<svg width="24" height="24" viewBox="0 0 24 24" fill="none" xmlns="http://www.w3.org/2000/svg">
<path fill-rule="evenodd" clip-rule="evenodd" d="M5.67598 4.77715C6.56456 3.82387 7.82809 3.29297 9.31322 3.29297H16.7698C18.2585 3.29297 19.5227 3.82353 20.4109 4.77745C21.2935 5.72531 21.749 7.03025 21.749 8.48718V15.5137C21.749 16.9707 21.2935 18.2754 20.4107 19.2231C19.5222 20.1768 18.2579 20.707 16.7689 20.707H9.31322C7.82464 20.707 6.56068 20.1767 5.67263 19.223C4.79022 18.2753 4.33496 16.9705 4.33496 15.5137C4.33496 15.0995 4.67075 14.7637 5.08496 14.7637C5.49917 14.7637 5.83496 15.0995 5.83496 15.5137C5.83496 16.661 6.19042 17.5779 6.77043 18.2008C7.34481 18.8177 8.19499 19.207 9.31322 19.207H16.7689C17.8877 19.207 18.7384 18.8176 19.3131 18.2007C19.8934 17.5777 20.249 16.6609 20.249 15.5137V8.48718C20.249 7.34001 19.8934 6.42284 19.3131 5.79963C18.7384 5.18246 17.888 4.79297 16.7698 4.79297H9.31322C8.1997 4.79297 7.3491 5.18212 6.77321 5.79993C6.19188 6.42358 5.83496 7.34088 5.83496 8.48718V12.1139C5.83496 12.5281 5.49917 12.8639 5.08496 12.8639C4.67075 12.8639 4.33496 12.5281 4.33496 12.1139V8.48718C4.33496 7.02938 4.79284 5.72458 5.67598 4.77715Z" fill="black"/>
<path fill-rule="evenodd" clip-rule="evenodd" d="M2.46967 9.47748C2.76256 9.18459 3.23744 9.18459 3.53033 9.47748L5.10506 11.0522L6.66799 9.48928C6.96088 9.19638 7.43576 9.19638 7.72865 9.48928C8.02154 9.78217 8.02154 10.257 7.72865 10.5499L5.63539 12.6432C5.34249 12.9361 4.86762 12.9361 4.57473 12.6432L2.46967 10.5381C2.17678 10.2452 2.17678 9.77038 2.46967 9.47748Z" fill="black"/>
<path fill-rule="evenodd" clip-rule="evenodd" d="M14.2439 8.52621C14.4798 8.65911 14.6258 8.90888 14.6258 9.17969V14.818C14.6258 15.2322 14.29 15.568 13.8758 15.568C13.4616 15.568 13.1258 15.2322 13.1258 14.818V10.5113L12.5969 10.8319C12.2426 11.0466 11.7814 10.9334 11.5667 10.5792C11.352 10.225 11.4651 9.76379 11.8194 9.54909L13.4871 8.5383C13.7187 8.39794 14.0079 8.39332 14.2439 8.52621Z" fill="black"/>
</svg>