<svg width="24" height="24" viewBox="0 0 24 24" fill="none" xmlns="http://www.w3.org/2000/svg">
<path fill-rule="evenodd" clip-rule="evenodd" d="M4.68592 5.79963C4.10563 6.42284 3.75 7.34001 3.75 8.48718V15.5137C3.75 16.6609 4.10562 17.5777 4.68592 18.2007C5.26062 18.8176 6.11129 19.207 7.23008 19.207H14.6858C15.804 19.207 16.6542 18.8177 17.2286 18.2008C17.8086 17.5779 18.1641 16.661 18.1641 15.5137C18.1641 15.0995 18.4998 14.7637 18.9141 14.7637C19.3283 14.7637 19.6641 15.0995 19.6641 15.5137C19.6641 16.9705 19.2088 18.2753 18.3264 19.223C17.4383 20.1767 16.1744 20.707 14.6858 20.707H7.23008C5.74113 20.707 4.47676 20.1768 3.58836 19.2231C2.70556 18.2754 2.25 16.9707 2.25 15.5137V8.48718C2.25 7.03025 2.70554 5.72531 3.58813 4.77745C4.47635 3.82353 5.74048 3.29297 7.22917 3.29297H14.6858C16.1709 3.29297 17.4345 3.82387 18.323 4.77715C19.2062 5.72458 19.6641 7.02938 19.6641 8.48718V12.1139C19.6641 12.5281 19.3283 12.8639 18.9141 12.8639C18.4998 12.8639 18.1641 12.5281 18.1641 12.1139V8.48718C18.1641 7.34088 17.8071 6.42358 17.2258 5.79993C16.6499 5.18212 15.7993 4.79297 14.6858 4.79297H7.22917C6.11103 4.79297 5.26059 5.18246 4.68592 5.79963Z" fill="black"/>
<path fill-rule="evenodd" clip-rule="evenodd" d="M21.5294 9.47748C21.8223 9.77038 21.8223 10.2452 21.5294 10.5381L19.4244 12.6432C19.1315 12.9361 18.6566 12.9361 18.3637 12.6432L16.2705 10.5499C15.9776 10.257 15.9776 9.78217 16.2705 9.48928C16.5633 9.19638 17.0382 9.19638 17.3311 9.48928L18.894 11.0522L20.4688 9.47748C20.7617 9.18459 21.2365 9.18459 21.5294 9.47748Z" fill="black"/>
<path fill-rule="evenodd" clip-rule="evenodd" d="M11.325 8.52621C11.5609 8.65911 11.7069 8.90888 11.7069 9.17969V14.818C11.7069 15.2322 11.3711 15.568 10.9569 15.568C10.5427 15.568 10.2069 15.2322 10.2069 14.818V10.5113L9.67791 10.8319C9.32368 11.0466 8.86248 10.9334 8.64778 10.5792C8.43309 10.225 8.5462 9.76379 8.90043 9.54909L10.5681 8.5383C10.7997 8.39794 11.089 8.39332 11.325 8.52621Z" fill="black"/>
</svg>