<svg width="24" height="25" viewBox="0 0 24 25" fill="none" xmlns="http://www.w3.org/2000/svg">
<path opacity="0.4" d="M19.999 9.38006V8.74006C19.999 5.53106 17.849 3.28906 14.771 3.28906H7.31396C4.23496 3.28906 2.08496 5.53106 2.08496 8.74006V15.7591C2.08496 18.9681 4.23596 21.2091 7.31496 21.2091H14.771C17.849 21.2091 19.999 18.9681 19.999 15.7591C19.999 15.2071 19.551 14.7591 18.999 14.7591C18.447 14.7591 17.999 15.2071 17.999 15.7591C17.999 17.8871 16.762 19.2091 14.771 19.2091H7.31496C5.32296 19.2091 4.08496 17.8871 4.08496 15.7591V8.74006C4.08496 6.61206 5.32196 5.28906 7.31396 5.28906H14.771C16.762 5.28906 17.999 6.61206 17.999 8.74006V9.38606L19.999 9.38006Z" fill="black"/>
<path fill-rule="evenodd" clip-rule="evenodd" d="M11.0418 16.0689C11.5938 16.0689 12.0418 15.6209 12.0418 15.0689V9.42893C12.0418 9.06893 11.8478 8.73593 11.5328 8.55793C11.2178 8.38193 10.8338 8.38693 10.5238 8.57393L8.85584 9.58393C8.38384 9.86993 8.23184 10.4849 8.51884 10.9569C8.80384 11.4289 9.41784 11.5819 9.89184 11.2949L10.0418 11.2039V15.0689C10.0418 15.6209 10.4898 16.0689 11.0418 16.0689Z" fill="black"/>
<path d="M17.1199 9.38806C16.7249 9.38906 16.3679 9.62206 16.2079 9.98406C16.0489 10.3451 16.1169 10.7661 16.3809 11.0591L18.2719 13.1491C18.4609 13.3581 18.7309 13.4781 19.0139 13.4781C19.2959 13.4781 19.5649 13.3581 19.7549 13.1491L21.6559 11.0491C21.9219 10.7551 21.9899 10.3331 21.8279 9.97106C21.6679 9.61006 21.3099 9.37806 20.9149 9.37806H20.9119L19.9989 9.38006L17.9989 9.38606L17.1199 9.38806Z" fill="black"/>
</svg>