<svg width="24" height="24" viewBox="0 0 24 24" fill="none" xmlns="http://www.w3.org/2000/svg">
<path fill-rule="evenodd" clip-rule="evenodd" d="M14.7482 12.4437V11.4207L14.0122 12.4437H14.7482Z" fill="black"/>
<path fill-rule="evenodd" clip-rule="evenodd" d="M16.5236 13.9437H16.2486V14.4027C16.2486 14.8167 15.9126 15.1527 15.4986 15.1527C15.0846 15.1527 14.7486 14.8167 14.7486 14.4027V13.9437H12.5486C12.2676 13.9437 12.0096 13.7857 11.8816 13.5357C11.7526 13.2857 11.7756 12.9847 11.9406 12.7557L14.8886 8.65471C15.0806 8.38971 15.4186 8.27971 15.7286 8.37871C16.0386 8.47871 16.2486 8.76671 16.2486 9.09271V12.4437H16.5236C16.9376 12.4437 17.2736 12.7797 17.2736 13.1937C17.2736 13.6077 16.9376 13.9437 16.5236 13.9437ZM10.8536 13.6347C11.2676 13.6347 11.6036 13.9707 11.6036 14.3847C11.6036 14.7987 11.2676 15.1347 10.8536 15.1347H8.02562C7.61162 15.1347 7.27562 14.7987 7.27562 14.3847C7.27562 12.8977 8.33462 12.1777 9.10662 11.6517C9.79962 11.1817 10.1036 10.9327 10.1036 10.5257C10.1036 10.1597 9.80562 9.86171 9.43962 9.86171C9.07262 9.86171 8.77462 10.1597 8.77462 10.5257C8.77462 10.9397 8.43962 11.2757 8.02462 11.2757C7.61062 11.2757 7.27462 10.9397 7.27462 10.5257C7.27462 9.33271 8.24562 8.36171 9.43962 8.36171C10.6326 8.36171 11.6036 9.33271 11.6036 10.5257C11.6036 11.7687 10.6866 12.3917 9.95062 12.8927C9.54662 13.1677 9.23762 13.3867 9.03762 13.6347H10.8536ZM20.7046 10.0857L20.0046 9.38571C19.6866 9.06471 19.5106 8.63871 19.5106 8.18771V7.18771C19.5106 5.69871 18.2996 4.48771 16.8106 4.48771H15.8086C15.3566 4.48771 14.9316 4.31371 14.6136 3.99671L13.9026 3.28671C12.8476 2.23671 11.1336 2.24071 10.0846 3.29671L9.38762 3.99471C9.07062 4.30871 8.63462 4.48871 8.19062 4.48871H7.18862C5.71962 4.48971 4.52062 5.67171 4.49062 7.13371C4.48862 7.15171 4.48762 7.17071 4.48762 7.18871V8.18571C4.48762 8.63771 4.31262 9.06271 3.99462 9.38271L3.30162 10.0777C3.29462 10.0837 3.28762 10.0907 3.28062 10.0977C2.23462 11.1557 2.24262 12.8677 3.29762 13.9117L3.99662 14.6107C4.31462 14.9307 4.49062 15.3547 4.49062 15.8057V16.8117C4.49062 18.2997 5.70062 19.5107 7.18962 19.5107H8.18762C8.64062 19.5117 9.06562 19.6877 9.38362 20.0047L10.0916 20.7127C10.1006 20.7207 10.1086 20.7297 10.1186 20.7367C10.6246 21.2277 11.2896 21.4977 11.9956 21.4977C11.9996 21.4977 12.0036 21.4977 12.0076 21.4977C12.7286 21.4947 13.4046 21.2107 13.9106 20.7007L14.6106 20.0017C14.9306 19.6837 15.3556 19.5077 15.8066 19.5077H16.8126C18.2986 19.5077 19.5096 18.2987 19.5116 16.8117V15.8077C19.5116 15.3577 19.6876 14.9327 20.0046 14.6127L20.7166 13.9017C21.7646 12.8447 21.7586 11.1317 20.7046 10.0857Z" fill="black"/>
</svg>