<svg width="25" height="24" viewBox="0 0 25 24" fill="none" xmlns="http://www.w3.org/2000/svg">
<path d="M20.3923 4.91406L20.3943 7.14714L18.1738 7.14909" stroke="black" stroke-width="1.5" stroke-linecap="round" stroke-linejoin="round"/>
<path d="M20.1327 7.09281C18.0813 3.93512 14.3504 2.49468 10.8492 3.21913" stroke="black" stroke-width="1.5" stroke-linecap="round" stroke-linejoin="round"/>
<path d="M7.95636 4.375C5.36911 5.97951 3.88914 8.69326 3.75 11.5199" stroke="black" stroke-width="1.5" stroke-linecap="round" stroke-linejoin="round"/>
<path d="M5.10546 19.0866L5.10352 16.8535L7.32395 16.8516" stroke="black" stroke-width="1.5" stroke-linecap="round" stroke-linejoin="round"/>
<path d="M5.36719 16.9048C7.37332 19.9928 10.9857 21.4386 14.4187 20.8232" stroke="black" stroke-width="1.5" stroke-linecap="round" stroke-linejoin="round"/>
<path d="M17.5439 19.6214C20.1312 18.0169 21.6112 15.3032 21.7503 12.4766" stroke="black" stroke-width="1.5" stroke-linecap="round" stroke-linejoin="round"/>
<path d="M16.4534 14.405V13.1955M16.4534 13.1955H17.478M16.4534 13.1955H13.5042L16.4534 9.09424V13.1955Z" stroke="black" stroke-width="1.5" stroke-linecap="round" stroke-linejoin="round"/>
<path d="M8.77441 10.5271C8.77441 9.74672 9.40785 9.11328 10.1882 9.11328C10.9686 9.11328 11.602 9.74672 11.602 10.5271C11.602 12.2941 8.77539 12.2941 8.77539 14.3861H11.602" stroke="black" stroke-width="1.5" stroke-linecap="round" stroke-linejoin="round"/>
</svg>