<svg width="24" height="24" viewBox="0 0 24 24" fill="none" xmlns="http://www.w3.org/2000/svg">
<path fill-rule="evenodd" clip-rule="evenodd" d="M16.8779 5.72222C13.2761 3.09155 8.21682 3.79138 5.47193 7.34085L5.4719 7.3409C2.68755 10.9408 3.35062 16.1255 6.95078 18.91C10.5584 21.7001 15.735 21.0317 18.5199 17.4311L18.5199 17.431C20.2465 15.1993 20.6552 12.365 19.8606 9.87162C19.7349 9.47696 19.9529 9.05508 20.3475 8.92932C20.7422 8.80356 21.1641 9.02154 21.2898 9.4162C22.2283 12.3613 21.7461 15.7123 19.7064 18.3488C16.4155 22.6036 10.2971 23.3943 6.0331 20.0965L6.03308 20.0965C1.77786 16.8053 0.994032 10.6787 4.28535 6.42324M4.28538 6.42319C7.52895 2.22892 13.507 1.40273 17.7626 4.5109C18.0971 4.75521 18.1702 5.22442 17.9259 5.55891C17.6816 5.89341 17.2124 5.96652 16.8779 5.72222" fill="black"/>
<path fill-rule="evenodd" clip-rule="evenodd" d="M16.2813 1.9139C16.6677 1.76459 17.1019 1.95677 17.2512 2.34313L18.1888 4.76915C18.3381 5.15552 18.1459 5.58977 17.7596 5.73908L15.3467 6.67154C14.9604 6.82086 14.5261 6.62869 14.3768 6.24232C14.2275 5.85596 14.4197 5.4217 14.806 5.27239L16.5193 4.61028L15.8521 2.88383C15.7028 2.49747 15.895 2.06322 16.2813 1.9139Z" fill="black"/>
<path fill-rule="evenodd" clip-rule="evenodd" d="M15.6694 8.84089C15.9792 8.94075 16.1893 9.22915 16.1893 9.55474V13.1769H16.5321C16.9463 13.1769 17.2821 13.5126 17.2821 13.9269C17.2821 14.3411 16.9463 14.6769 16.5321 14.6769H16.1893V15.2165C16.1893 15.6307 15.8535 15.9665 15.4393 15.9665C15.0251 15.9665 14.6893 15.6307 14.6893 15.2165V14.6769H12.2949C12.0135 14.6769 11.7558 14.5194 11.6275 14.269C11.4991 14.0186 11.5218 13.7174 11.686 13.4889L14.8304 9.11683C15.0205 8.85251 15.3595 8.74103 15.6694 8.84089ZM13.7581 13.1769H14.6893V11.8821L13.7581 13.1769Z" fill="black"/>
<path fill-rule="evenodd" clip-rule="evenodd" d="M8.97745 10.3242C8.55966 10.3242 8.2207 10.6632 8.2207 11.081C8.2207 11.4952 7.88492 11.831 7.4707 11.831C7.05649 11.831 6.7207 11.4952 6.7207 11.081C6.7207 9.83475 7.73123 8.82422 8.97745 8.82422C10.223 8.82422 11.2352 9.83409 11.2352 11.081C11.2352 11.7857 10.9413 12.3147 10.5601 12.719C10.2416 13.0569 9.8344 13.3331 9.50256 13.5583C9.46793 13.5818 9.43413 13.6047 9.40133 13.6271C8.96573 13.9244 8.64651 14.1675 8.45082 14.4454H10.4852C10.8994 14.4454 11.2352 14.7812 11.2352 15.1954C11.2352 15.6096 10.8994 15.9454 10.4852 15.9454H7.47172C7.0575 15.9454 6.72172 15.6096 6.72172 15.1954C6.72172 13.648 7.82194 12.8891 8.55561 12.3882C8.58153 12.3705 8.60698 12.3532 8.63199 12.3361C8.99897 12.086 9.26894 11.9019 9.46863 11.6901C9.6525 11.495 9.73522 11.3178 9.73522 11.081C9.73522 10.6638 9.39591 10.3242 8.97745 10.3242Z" fill="black"/>
</svg>