<svg width="25" height="24" viewBox="0 0 25 24" fill="none" xmlns="http://www.w3.org/2000/svg">
<path d="M9.7639 14.7072C12.8913 14.6992 15.5505 16.1352 16.528 19.2263C14.5578 20.4273 12.2388 20.8899 9.7639 20.8838C7.28903 20.8899 4.96998 20.4273 2.99982 19.2263C3.97838 16.1318 6.63309 14.6992 9.7639 14.7072Z" stroke="black" stroke-width="1.5" stroke-linecap="square"/>
<path d="M16.3352 18.2327C18.225 18.2373 19.9958 17.8841 21.5002 16.967C20.7538 14.6066 18.7233 13.5102 16.3352 13.5163C14.8308 13.5124 13.4705 13.9441 12.4824 14.8535" stroke="black" stroke-width="1.5" stroke-linecap="square"/>
<path d="M14.0008 7.35284C14.0008 9.6928 12.1039 11.5897 9.76391 11.5897C7.42395 11.5897 5.52704 9.6928 5.52704 7.35284C5.52704 5.01288 7.42395 3.11597 9.76391 3.11597C12.1039 3.11597 14.0008 5.01288 14.0008 7.35284Z" stroke="black" stroke-width="1.5" stroke-linecap="square"/>
<path d="M13.964 5.67038C14.5543 5.05172 15.3868 4.66626 16.3094 4.66626C18.0995 4.66626 19.5507 6.11743 19.5507 7.90753C19.5507 9.69763 18.0995 11.1488 16.3094 11.1488C15.2151 11.1488 14.2475 10.6065 13.6606 9.77599" stroke="black" stroke-width="1.5" stroke-linecap="square"/>
</svg>