<svg width="25" height="24" viewBox="0 0 25 24" fill="none" xmlns="http://www.w3.org/2000/svg">
<path fill-rule="evenodd" clip-rule="evenodd" d="M21.985 16.8199C21.225 14.4099 19.185 13.0299 16.385 13.0299H16.345C15.115 13.0299 14.045 13.2999 13.145 13.7899C15.405 14.6099 17.085 16.2999 17.865 18.6499C19.355 18.4899 20.665 18.0699 21.765 17.3999L22.105 17.1899L21.985 16.8199Z" fill="black"/>
<path fill-rule="evenodd" clip-rule="evenodd" d="M14.205 10.9899C14.815 11.4199 15.565 11.6799 16.365 11.6799C18.425 11.6799 20.105 9.99994 20.105 7.92994C20.105 5.86994 18.425 4.18994 16.365 4.18994C15.785 4.18994 15.245 4.31994 14.755 4.55994C15.225 5.38994 15.495 6.34994 15.495 7.36994C15.495 8.73994 15.015 9.99994 14.205 10.9899Z" fill="black"/>
<path fill-rule="evenodd" clip-rule="evenodd" d="M16.835 18.7199C16.045 16.5699 14.405 15.1099 12.165 14.5199C11.435 14.3199 10.625 14.2199 9.76502 14.2199H9.71502C6.11502 14.2199 3.49502 15.9899 2.51502 19.0799L2.39502 19.4499L2.73502 19.6499C4.63502 20.8199 6.91502 21.3799 9.68502 21.3799H9.73502C12.575 21.3899 14.835 20.8199 16.745 19.6499L17.085 19.4499L16.965 19.0799C16.925 18.9599 16.885 18.8399 16.835 18.7199Z" fill="black"/>
<path fill-rule="evenodd" clip-rule="evenodd" d="M9.73499 12.1299C11.255 12.1299 12.605 11.4099 13.475 10.2999C14.115 9.49993 14.495 8.47993 14.495 7.36993C14.495 6.54993 14.285 5.77993 13.925 5.10993C13.115 3.62993 11.545 2.61993 9.73499 2.61993C7.11499 2.61993 4.98499 4.74993 4.98499 7.36993C4.98499 9.98993 7.11499 12.1299 9.73499 12.1299Z" fill="black"/>
</svg>