<svg width="25" height="24" viewBox="0 0 25 24" fill="none" xmlns="http://www.w3.org/2000/svg">
<path fill-rule="evenodd" clip-rule="evenodd" d="M14.2049 10.9899C14.8149 11.4199 15.5649 11.6799 16.3649 11.6799C18.4249 11.6799 20.1049 9.99988 20.1049 7.92988C20.1049 5.86988 18.4249 4.18988 16.3649 4.18988C15.7849 4.18988 15.2449 4.31988 14.7549 4.55988C15.2249 5.38988 15.4949 6.34988 15.4949 7.36988C15.4949 8.73988 15.0149 9.99988 14.2049 10.9899Z" fill="black"/>
<path fill-rule="evenodd" clip-rule="evenodd" d="M9.73486 12.1299C11.2549 12.1299 12.6049 11.4099 13.4749 10.2999C14.1149 9.49987 14.4949 8.47987 14.4949 7.36987C14.4949 6.54987 14.2849 5.77987 13.9249 5.10987C13.1149 3.62987 11.5449 2.61987 9.73486 2.61987C7.11486 2.61987 4.98486 4.74987 4.98486 7.36987C4.98486 9.98987 7.11486 12.1299 9.73486 12.1299Z" fill="black"/>
<g opacity="0.4">
<path fill-rule="evenodd" clip-rule="evenodd" d="M21.985 16.82C21.225 14.41 19.185 13.03 16.385 13.03H16.345C15.115 13.03 14.045 13.3 13.145 13.79C15.405 14.61 17.085 16.3 17.865 18.65C19.355 18.49 20.665 18.07 21.765 17.4L22.105 17.19L21.985 16.82Z" fill="black"/>
<path fill-rule="evenodd" clip-rule="evenodd" d="M16.835 18.72C16.045 16.57 14.405 15.11 12.165 14.52C11.435 14.32 10.625 14.22 9.76502 14.22H9.71502C6.11502 14.22 3.49502 15.99 2.51502 19.08L2.39502 19.45L2.73502 19.65C4.63502 20.82 6.91502 21.38 9.68502 21.38H9.73502C12.575 21.39 14.835 20.82 16.745 19.65L17.085 19.45L16.965 19.08C16.925 18.96 16.885 18.84 16.835 18.72Z" fill="black"/>
</g>
</svg>