<svg width="24" height="24" viewBox="0 0 24 24" fill="none" xmlns="http://www.w3.org/2000/svg">
<path d="M9.59151 20.8068C13.3015 20.8068 16.4335 20.2318 16.4335 17.9988C16.4335 15.7658 13.2805 15.2068 9.59151 15.2068C5.88051 15.2068 2.74951 15.7848 2.74951 18.0188C2.74951 19.1981 3.62785 19.9092 5 20.3179" stroke="black" stroke-width="1.5" stroke-linecap="round" stroke-linejoin="round"/>
<path d="M5.20557 7.6348C5.20557 5.2128 7.16957 3.2498 9.59157 3.2498C12.0126 3.2498 13.9766 5.2128 13.9766 7.6348C13.9856 10.0478 12.0356 12.0108 9.62257 12.0198H9.59157C8.34164 12.0198 7.21369 11.497 6.41471 10.6581" stroke="black" stroke-width="1.5" stroke-linecap="round" stroke-linejoin="round"/>
<path d="M16.4829 10.8816C18.0839 10.6566 19.3169 9.2826 19.3199 7.6196C19.3199 5.9806 18.1249 4.6206 16.5579 4.3636" stroke="black" stroke-width="1.5" stroke-linecap="round" stroke-linejoin="round"/>
<path d="M18.5952 14.7322C20.1462 14.9632 21.2292 15.5072 21.2292 16.6272C21.2292 17.3982 20.7192 17.8982 19.8952 18.2112" stroke="black" stroke-width="1.5" stroke-linecap="round" stroke-linejoin="round"/>
</svg>