<svg width="25" height="24" viewBox="0 0 25 24" fill="none" xmlns="http://www.w3.org/2000/svg">
<path opacity="0.4" fill-rule="evenodd" clip-rule="evenodd" d="M9.55851 21.4562C5.88651 21.4562 2.74951 20.9012 2.74951 18.6772C2.74951 16.4532 5.86651 14.4492 9.55851 14.4492C13.2305 14.4492 16.3665 16.4342 16.3665 18.6572C16.3665 20.8802 13.2505 21.4562 9.55851 21.4562Z" stroke="black" stroke-width="1.5" stroke-linecap="round" stroke-linejoin="round"/>
<path fill-rule="evenodd" clip-rule="evenodd" d="M9.55861 11.2776C11.9686 11.2776 13.9226 9.32356 13.9226 6.91356C13.9226 4.50356 11.9686 2.54956 9.55861 2.54956C7.14861 2.54956 5.19461 4.50356 5.19461 6.91356C5.18561 9.31556 7.12661 11.2696 9.52761 11.2776H9.55861Z" stroke="black" stroke-width="1.5" stroke-linecap="round" stroke-linejoin="round"/>
<path d="M16.8013 10.0789C18.2043 9.70388 19.2383 8.42488 19.2383 6.90288C19.2393 5.31488 18.1123 3.98888 16.6143 3.68188" stroke="black" stroke-width="1.5" stroke-linecap="round" stroke-linejoin="round"/>
<path opacity="0.4" d="M17.4607 13.6536C19.4487 13.6536 21.1467 15.0016 21.1467 16.2046C21.1467 16.9136 20.5617 17.6416 19.6717 17.8506" stroke="black" stroke-width="1.5" stroke-linecap="round" stroke-linejoin="round"/>
</svg>