<svg width="25" height="24" viewBox="0 0 25 24" fill="none" xmlns="http://www.w3.org/2000/svg">
<path fill-rule="evenodd" clip-rule="evenodd" d="M9.58012 12.0258H9.61012C12.4301 12.0258 14.7241 9.73181 14.7241 6.91081C14.7241 4.09081 12.4301 1.79681 9.61012 1.79681C6.79112 1.79681 4.49712 4.09081 4.49712 6.90781C4.49112 8.27081 5.01712 9.55281 5.97712 10.5198C6.93612 11.4848 8.21512 12.0208 9.58012 12.0258ZM5.99712 6.91081C5.99712 4.91781 7.61812 3.29681 9.61012 3.29681C11.6031 3.29681 13.2241 4.91781 13.2241 6.91081C13.2241 8.90381 11.6031 10.5258 9.61012 10.5258H9.58312C8.62112 10.5218 7.71812 10.1448 7.04212 9.46181C6.36412 8.77981 5.99312 7.87481 5.99712 6.91081Z" fill="black"/>
<path fill-rule="evenodd" clip-rule="evenodd" d="M2.05078 18.6742C2.05078 22.2032 7.54278 22.2032 9.60978 22.2032C11.4788 22.2032 17.1688 22.2032 17.1688 18.6542C17.1688 15.9672 13.7078 13.6962 9.60978 13.6962C5.51178 13.6962 2.05078 15.9752 2.05078 18.6742ZM3.55078 18.6742C3.55078 17.0322 6.14178 15.1962 9.60978 15.1962C13.0778 15.1962 15.6688 17.0212 15.6688 18.6542C15.6688 20.3472 12.3738 20.7032 9.60978 20.7032C5.58878 20.7032 3.55078 20.0202 3.55078 18.6742Z" fill="black"/>
<path d="M16.8532 10.826C16.5212 10.826 16.2182 10.605 16.1282 10.269C16.0222 9.86903 16.2592 9.45903 16.6602 9.35103C17.7672 9.05503 18.5402 8.04803 18.5402 6.90003C18.5412 5.70003 17.6902 4.65403 16.5162 4.41303C16.1102 4.33003 15.8482 3.93303 15.9322 3.52803C16.0142 3.12203 16.4102 2.85603 16.8172 2.94403C18.6862 3.32803 20.0412 4.99203 20.0412 6.90003C20.0412 8.72503 18.8092 10.33 17.0462 10.801C16.9822 10.818 16.9162 10.826 16.8532 10.826Z" fill="black"/>
<path d="M18.9932 18.0196C19.0742 18.3645 19.3822 18.5975 19.7222 18.5975C19.7792 18.5975 19.8372 18.5916 19.8952 18.5776C21.0842 18.2976 21.9492 17.2986 21.9492 16.2016C21.9492 14.4746 19.8342 12.9016 17.5122 12.9016C17.0982 12.9016 16.7622 13.2376 16.7622 13.6516C16.7622 14.0655 17.0982 14.4016 17.5122 14.4016C19.1332 14.4016 20.4492 15.4916 20.4492 16.2016C20.4492 16.5486 20.1132 16.9855 19.5512 17.1175C19.1482 17.2116 18.8982 17.6166 18.9932 18.0196Z" fill="black"/>
</svg>