<svg width="25" height="24" viewBox="0 0 25 24" fill="none" xmlns="http://www.w3.org/2000/svg">
<path fill-rule="evenodd" clip-rule="evenodd" d="M16.2702 12.3072C15.1402 12.3072 14.0702 12.5372 13.1702 12.9172C16.3302 13.8372 18.5602 16.0272 18.6102 18.5772C20.2502 18.3572 22.0102 17.7472 22.0102 16.0472C22.0102 14.0172 19.3802 12.3072 16.2702 12.3072Z" fill="black"/>
<path fill-rule="evenodd" clip-rule="evenodd" d="M16.2402 10.8672H16.2702C18.4002 10.8672 20.1302 9.13725 20.1302 7.00725C20.1302 4.87725 18.4002 3.14725 16.2702 3.14725C15.8502 3.14725 15.4502 3.21725 15.0702 3.33725C15.7602 4.35725 16.1602 5.58725 16.1602 6.90725C16.1602 8.29725 15.7102 9.58725 14.9502 10.6372C15.3502 10.7872 15.7902 10.8672 16.2402 10.8672Z" fill="black"/>
<path fill-rule="evenodd" clip-rule="evenodd" d="M9.79875 13.9464C5.83675 13.9464 2.48975 16.1114 2.48975 18.6744C2.48975 21.6134 6.66075 21.9534 9.79875 21.9534C11.6067 21.9534 17.1077 21.9534 17.1077 18.6544C17.1077 16.1024 13.7607 13.9464 9.79875 13.9464Z" fill="black"/>
<path fill-rule="evenodd" clip-rule="evenodd" d="M9.76749 11.7755H9.79749C12.4805 11.7755 14.6625 9.59354 14.6625 6.91154C14.6625 4.22854 12.4805 2.04654 9.79749 2.04654C7.11649 2.04654 4.93449 4.22854 4.93449 6.90954C4.92949 8.20454 5.42849 9.42354 6.34149 10.3425C7.25449 11.2615 8.47049 11.7705 9.76749 11.7755Z" fill="black"/>
</svg>