<svg width="25" height="24" viewBox="0 0 25 24" fill="none" xmlns="http://www.w3.org/2000/svg">
<path d="M9.76408 14.7069C12.8915 14.6989 15.5507 16.1349 16.5282 19.226C14.558 20.4271 12.2389 20.8896 9.76408 20.8836C7.28921 20.8896 4.97016 20.4271 3 19.226C3.97857 16.1316 6.63327 14.6989 9.76408 14.7069Z" stroke="black" stroke-width="1.5" stroke-linecap="square"/>
<path opacity="0.4" d="M16.3353 18.2325C18.2251 18.2371 19.9959 17.8838 21.5003 16.9667C20.754 14.6064 18.7234 13.5099 16.3353 13.516C14.831 13.5122 13.4706 13.9439 12.4825 14.8533" stroke="black" stroke-width="1.5" stroke-linecap="square"/>
<circle cx="9.76409" cy="7.35259" r="4.23687" stroke="black" stroke-width="1.5" stroke-linecap="square"/>
<path opacity="0.4" d="M13.9642 5.67014C14.5545 5.05148 15.387 4.66602 16.3096 4.66602C18.0997 4.66602 19.5509 6.11718 19.5509 7.90729C19.5509 9.69739 18.0997 11.1486 16.3096 11.1486C15.2153 11.1486 14.2477 10.6063 13.6608 9.77575" stroke="black" stroke-width="1.5" stroke-linecap="square"/>
</svg>