<svg width="25" height="24" viewBox="0 0 25 24" fill="none" xmlns="http://www.w3.org/2000/svg">
<path fill-rule="evenodd" clip-rule="evenodd" d="M16.2398 10.8672H16.2698C18.3998 10.8672 20.1298 9.13722 20.1298 7.00722C20.1298 4.87722 18.3998 3.14722 16.2698 3.14722C15.8498 3.14722 15.4498 3.21722 15.0698 3.33722C15.7598 4.35722 16.1598 5.58722 16.1598 6.90722C16.1598 8.29722 15.7098 9.58722 14.9498 10.6372C15.3498 10.7872 15.7898 10.8672 16.2398 10.8672Z" fill="black"/>
<path fill-rule="evenodd" clip-rule="evenodd" d="M9.76712 11.7755H9.79712C12.4801 11.7755 14.6621 9.59351 14.6621 6.91151C14.6621 4.22851 12.4801 2.04651 9.79712 2.04651C7.11612 2.04651 4.93412 4.22851 4.93412 6.90951C4.92912 8.20451 5.42812 9.42351 6.34112 10.3425C7.25412 11.2615 8.47012 11.7705 9.76712 11.7755Z" fill="black"/>
<g opacity="0.4">
<path fill-rule="evenodd" clip-rule="evenodd" d="M16.2702 12.3073C15.1402 12.3073 14.0702 12.5373 13.1702 12.9173C16.3302 13.8373 18.5602 16.0273 18.6102 18.5773C20.2502 18.3573 22.0102 17.7473 22.0102 16.0473C22.0102 14.0173 19.3802 12.3073 16.2702 12.3073Z" fill="black"/>
<path fill-rule="evenodd" clip-rule="evenodd" d="M9.79875 13.9465C5.83675 13.9465 2.48975 16.1115 2.48975 18.6745C2.48975 21.6135 6.66075 21.9535 9.79875 21.9535C11.6067 21.9535 17.1077 21.9535 17.1077 18.6545C17.1077 16.1025 13.7607 13.9465 9.79875 13.9465Z" fill="black"/>
</g>
</svg>