<svg width="25" height="24" viewBox="0 0 25 24" fill="none" xmlns="http://www.w3.org/2000/svg">
<path d="M6.22276 20.5147C5.07576 20.2497 3.99376 19.8317 2.99976 19.2257C3.97876 16.1317 6.63276 14.6987 9.76376 14.7067C12.8918 14.6987 15.5508 16.1347 16.5278 19.2257C14.5578 20.4267 12.2388 20.8897 9.76376 20.8837" stroke="black" stroke-width="1.5" stroke-linecap="square"/>
<path d="M19.0622 17.9458C19.9292 17.7438 20.7482 17.4258 21.5002 16.9678C20.7542 14.6068 18.7232 13.5108 16.3352 13.5168C14.8312 13.5128 13.4712 13.9448 12.4832 14.8538" stroke="black" stroke-width="1.5" stroke-linecap="square"/>
<path d="M9.7641 3.11633C12.1041 3.11633 14.0011 5.01333 14.0011 7.35333C14.0011 9.69333 12.1041 11.5903 9.7641 11.5903C7.4241 11.5903 5.5271 9.69333 5.5271 7.35333C5.5271 6.72133 5.6651 6.12133 5.9131 5.58333" stroke="black" stroke-width="1.5" stroke-linecap="square"/>
<path d="M13.9636 5.67014C14.5536 5.05214 15.3866 4.66614 16.3096 4.66614C18.0996 4.66614 19.5506 6.11714 19.5506 7.90714C19.5506 9.69814 18.0996 11.1491 16.3096 11.1491" stroke="black" stroke-width="1.5" stroke-linecap="square"/>
</svg>