<?xml version="1.0" encoding="UTF-8"?>
<svg width="24px" height="24px" viewBox="0 0 24 24" version="1.1" xmlns="http://www.w3.org/2000/svg" xmlns:xlink="http://www.w3.org/1999/xlink">
    <title>Iconly/Light-Outline/2 User</title>
    <g id="Iconly/Light-Outline/2-User" stroke="none" stroke-width="1" fill="none" fill-rule="evenodd">
        <g id="2-User" transform="translate(2.000000, 2.000000)" fill="#000000">
            <path d="M7.5918,11.957 C10.8508,11.957 15.1838,12.324 15.1838,15.499 C15.1838,18.84352 10.1349096,19.0441912 7.969206,19.0562315 L7.1829025,19.0562358 C4.8737376,19.0442632 -0.0002,18.84472 -0.0002,15.519 C-0.0002,12.17072 5.0486904,11.9698232 7.214394,11.9577694 L7.4745932,11.9570285 C7.5151456,11.957 7.55424,11.957 7.5918,11.957 Z M7.5918,13.457 C4.8128,13.457 1.4998,13.814 1.4998,15.519 C1.4998,16.871 3.5498,17.557 7.5918,17.557 C11.6338,17.557 13.6838,16.864 13.6838,15.499 C13.6838,14.144 11.6338,13.457 7.5918,13.457 Z M16.7065,11.4899 C19.4125,11.8949 19.9795,13.1479 19.9795,14.1269 C19.9795,14.8559 19.6645,15.8429 18.1615,16.4119 C18.0745,16.4449 17.9845,16.4609 17.8955,16.4609 C17.5925,16.4609 17.3075,16.2759 17.1945,15.9769 C17.0475,15.5899 17.2425,15.1559 17.6295,15.0099 C18.4795,14.6879 18.4795,14.2949 18.4795,14.1269 C18.4795,13.5599 17.8085,13.1719 16.4855,12.9749 C16.0755,12.9129 15.7925,12.5309 15.8535,12.1219 C15.9155,11.7119 16.3045,11.4369 16.7065,11.4899 Z M7.5918,-1.77635684e-14 C10.4228,-1.77635684e-14 12.7268505,2.304 12.7268505,5.135 C12.7328,6.499 12.2038,7.787 11.2398,8.757 C10.2778,9.728 8.9928,10.265 7.6258,10.27 L7.5918,10.27 C4.7598,10.27 2.4558,7.966 2.4558,5.135 C2.4558,2.304 4.7598,-1.77635684e-14 7.5918,-1.77635684e-14 Z M14.6794,1.1238 C16.6444,1.4458 18.0704,3.1268 18.0704,5.1198 C18.0664,7.1248 16.5694,8.8468 14.5874,9.1248 C14.5524,9.1298 14.5174,9.1318 14.4824,9.1318 C14.1144,9.1318 13.7934,8.8608 13.7404,8.4858 C13.6834,8.0758 13.9684,7.6958 14.3784,7.6388 C15.6264,7.4638 16.5684,6.3808 16.5704,5.1188 C16.5704,3.8648 15.6724,2.8068 14.4374,2.6048 C14.0284,2.5368 13.7514,2.1518 13.8184,1.7428 C13.8854,1.3338 14.2724,1.0588 14.6794,1.1238 Z M7.5918,1.5 C5.5868,1.5 3.9558,3.131 3.9558,5.135 C3.9558,7.139 5.5868,8.77 7.5918,8.77 L7.6228,8.77 C8.5868,8.766 9.4948,8.387 10.1758,7.7 C10.8578,7.015 11.2308,6.104 11.2268318,5.138 C11.2268318,3.131 9.5958,1.5 7.5918,1.5 Z" id="Combined-Shape"></path>
        </g>
    </g>
</svg>