<svg width="24" height="24" viewBox="0 0 24 24" fill="none" xmlns="http://www.w3.org/2000/svg">
<path d="M11.9991 21.7542C11.2355 21.7562 10.5013 21.4597 9.95315 20.9281L9.91915 20.8961L9.21115 20.1881C9.07722 20.0542 8.91817 19.9482 8.74313 19.8759C8.56809 19.8037 8.38052 19.7667 8.19116 19.7672H7.19116C6.40936 19.7661 5.65987 19.455 5.10705 18.9022C4.55423 18.3494 4.24321 17.5999 4.24215 16.8181V15.8121C4.24246 15.623 4.20542 15.4356 4.13317 15.2607C4.06093 15.0858 3.95489 14.927 3.82113 14.7932L3.12115 14.0932C2.56771 13.5423 2.25516 12.7945 2.25198 12.0136C2.24879 11.2328 2.55522 10.4825 3.10415 9.92714L3.12313 9.90815L3.81814 9.20814C4.08653 8.93674 4.23769 8.57086 4.23913 8.18916V7.18916C4.23913 7.16616 4.23913 7.14315 4.23913 7.11915C4.25866 6.34989 4.57752 5.61859 5.12786 5.08076C5.67821 4.54293 6.41665 4.24098 7.18615 4.23915H8.18615C8.56871 4.23808 8.93547 4.08649 9.20715 3.81715L9.90716 3.11714C10.4595 2.56406 11.2085 2.25226 11.9902 2.25001C12.7718 2.24776 13.5226 2.55522 14.0781 3.10511L14.7902 3.81611C14.9241 3.9496 15.083 4.05537 15.2579 4.12727C15.4327 4.19917 15.6201 4.2358 15.8091 4.23512H16.8091C17.5912 4.23618 18.3409 4.54735 18.8939 5.10035C19.4469 5.65336 19.7581 6.40307 19.7591 7.18513V8.18513C19.7604 8.56795 19.9119 8.935 20.1811 9.20717L20.8812 9.90712C21.4341 10.459 21.746 11.2075 21.7487 11.9887C21.7513 12.77 21.4444 13.5205 20.8951 14.0761L20.1822 14.7882C20.0485 14.9218 19.9425 15.0805 19.8704 15.2552C19.7984 15.4299 19.7616 15.6172 19.7621 15.8062V16.8062C19.76 17.5875 19.4484 18.3362 18.8955 18.8884C18.3426 19.4405 17.5935 19.7511 16.8122 19.7521H15.8072C15.6177 19.7515 15.4299 19.7885 15.2548 19.8609C15.0798 19.9334 14.9208 20.0398 14.7871 20.1741L14.0872 20.8742C13.8155 21.1493 13.4919 21.3679 13.1352 21.5172C12.7786 21.6666 12.3958 21.7437 12.0091 21.7442L11.9991 21.7542ZM10.9662 19.8201L10.9802 19.8341C11.1142 19.9678 11.2732 20.0738 11.4483 20.1458C11.6233 20.2179 11.8109 20.2547 12.0001 20.2542H12.0041C12.1943 20.2538 12.3824 20.2157 12.5577 20.142C12.7329 20.0684 12.8918 19.9607 13.0251 19.8251L13.7311 19.1251C14.0036 18.8518 14.3275 18.6351 14.6842 18.4877C15.0408 18.3402 15.4232 18.2649 15.8091 18.2661H16.8141C17.198 18.2656 17.5661 18.1131 17.8378 17.8419C18.1095 17.5708 18.2628 17.203 18.2642 16.8192V15.8192C18.2631 15.4333 18.3383 15.0511 18.4856 14.6945C18.6328 14.3378 18.8492 14.0139 19.1222 13.7412L19.8221 13.0412C19.9574 12.9062 20.0647 12.7459 20.1379 12.5694C20.2111 12.3929 20.2488 12.2037 20.2488 12.0126C20.2488 11.8216 20.2111 11.6324 20.1379 11.4559C20.0647 11.2794 19.9574 11.1191 19.8221 10.9841L19.1222 10.2841C18.849 10.0109 18.6325 9.68641 18.4851 9.3293C18.3377 8.97218 18.2623 8.58948 18.2631 8.20314V7.20314C18.2626 6.81874 18.1097 6.45023 17.8379 6.17842C17.566 5.9066 17.1975 5.75365 16.8131 5.75312H15.8131C15.4272 5.75433 15.0449 5.67925 14.6881 5.53218C14.3313 5.3851 14.0071 5.16894 13.7342 4.89613L13.0341 4.19612C12.8991 4.06084 12.7387 3.95355 12.5621 3.88032C12.3856 3.8071 12.1963 3.76942 12.0052 3.76942C11.814 3.76942 11.6247 3.8071 11.4481 3.88032C11.2716 3.95355 11.1112 4.06084 10.9761 4.19612L10.2761 4.89613C10.0031 5.1692 9.67874 5.38568 9.3218 5.53309C8.96486 5.6805 8.58231 5.75594 8.19613 5.75514H7.19613C6.81198 5.7562 6.4439 5.90931 6.17236 6.18104C5.90082 6.45277 5.74795 6.821 5.74716 7.20515C5.74716 7.22615 5.74716 7.24613 5.74716 7.26613V8.20314C5.74805 8.58895 5.67269 8.9711 5.52545 9.32771C5.3782 9.68432 5.16198 10.0083 4.88915 10.2811L4.18914 10.9812L4.17315 10.9951C3.9054 11.2686 3.75662 11.6368 3.75924 12.0195C3.76186 12.4022 3.91568 12.7684 4.18716 13.0382L4.88714 13.7381C5.16037 14.0107 5.37695 14.3346 5.52438 14.6913C5.67181 15.0479 5.74718 15.4302 5.74615 15.8161V16.8222C5.74668 17.2063 5.89951 17.5745 6.17114 17.8461C6.44276 18.1178 6.81102 18.2706 7.19515 18.2711H8.19515C8.58131 18.2701 8.96384 18.3456 9.32067 18.4932C9.67751 18.6408 10.0016 18.8576 10.2741 19.1311L10.9662 19.8201Z" fill="black"/>
<path d="M10.2101 15.5891C9.88148 15.5898 9.55595 15.5254 9.25232 15.3996C8.94869 15.2738 8.673 15.089 8.44116 14.8561C8.30433 14.7148 8.22843 14.5255 8.22986 14.3288C8.23128 14.1321 8.3099 13.9439 8.44876 13.8047C8.58763 13.6654 8.77564 13.5863 8.97229 13.5843C9.16894 13.5823 9.35851 13.6576 9.50015 13.7941C9.61616 13.9108 9.75914 13.997 9.91647 14.0452C10.0738 14.0934 10.2406 14.102 10.4021 14.0703C10.5635 14.0386 10.7147 13.9676 10.8421 13.8635C10.9695 13.7594 11.0693 13.6254 11.1325 13.4735C11.1958 13.3216 11.2206 13.1565 11.2047 12.9927C11.1888 12.8289 11.1328 12.6715 11.0416 12.5346C10.9503 12.3977 10.8267 12.2854 10.6817 12.2076C10.5367 12.1299 10.3747 12.0892 10.2101 12.0891C10.0686 12.0891 9.92988 12.0491 9.81009 11.9737C9.6903 11.8982 9.59432 11.7904 9.53323 11.6627C9.47215 11.5349 9.44843 11.3926 9.46487 11.252C9.48132 11.1113 9.53725 10.9783 9.62616 10.8681L10.3961 9.91406H8.91016C8.71124 9.91406 8.52047 9.83505 8.37982 9.6944C8.23917 9.55374 8.16016 9.36297 8.16016 9.16406C8.16016 8.96515 8.23917 8.77438 8.37982 8.63373C8.52047 8.49308 8.71124 8.41406 8.91016 8.41406H11.9641C12.1057 8.414 12.2444 8.45403 12.3642 8.52948C12.484 8.60493 12.58 8.71274 12.6411 8.84045C12.7022 8.96817 12.7259 9.11061 12.7094 9.25122C12.693 9.39184 12.6371 9.5249 12.5482 9.63507L11.4922 10.9431C11.9618 11.2237 12.3263 11.6506 12.53 12.1584C12.7337 12.6661 12.7651 13.2267 12.6196 13.7541C12.4741 14.2815 12.1596 14.7465 11.7244 15.0779C11.2892 15.4094 10.7572 15.589 10.2101 15.5891Z" fill="black"/>
<path d="M15.1035 15.3841C14.9046 15.3841 14.7138 15.3051 14.5732 15.1644C14.4325 15.0238 14.3535 14.833 14.3535 14.6341V9.16406C14.3535 8.96515 14.4325 8.77438 14.5732 8.63373C14.7138 8.49308 14.9046 8.41406 15.1035 8.41406C15.3024 8.41406 15.4932 8.49308 15.6339 8.63373C15.7745 8.77438 15.8535 8.96515 15.8535 9.16406V14.6341C15.8535 14.833 15.7745 15.0238 15.6339 15.1644C15.4932 15.3051 15.3024 15.3841 15.1035 15.3841Z" fill="black"/>
</svg>