<svg width="24" height="24" viewBox="0 0 24 24" fill="none" xmlns="http://www.w3.org/2000/svg">
<path fill-rule="evenodd" clip-rule="evenodd" d="M15.8456 14.6303C15.8456 15.0443 15.5096 15.3803 15.0956 15.3803C14.6816 15.3803 14.3456 15.0443 14.3456 14.6303V9.16034C14.3456 8.74634 14.6816 8.41034 15.0956 8.41034C15.5096 8.41034 15.8456 8.74634 15.8456 9.16034V14.6303ZM10.2056 15.5853C9.53762 15.5853 8.90962 15.3253 8.43662 14.8523C8.14362 14.5603 8.14362 14.0853 8.43662 13.7923C8.72862 13.4983 9.20262 13.4983 9.49662 13.7913C9.68662 13.9813 9.93862 14.0853 10.2056 14.0853C10.7566 14.0853 11.2046 13.6363 11.2046 13.0853C11.2046 12.5343 10.7566 12.0853 10.2056 12.0853C9.91662 12.0853 9.65462 11.9193 9.52962 11.6593C9.40562 11.3983 9.44162 11.0893 9.62162 10.8643L10.3916 9.91034H8.90662C8.49162 9.91034 8.15662 9.57434 8.15662 9.16034C8.15662 8.74634 8.49162 8.41034 8.90662 8.41034H11.9596C12.2486 8.41034 12.5116 8.57634 12.6366 8.83734C12.7606 9.09734 12.7246 9.40634 12.5436 9.63134L11.4886 10.9403C12.2166 11.3773 12.7046 12.1753 12.7046 13.0853C12.7046 14.4633 11.5836 15.5853 10.2056 15.5853ZM20.7036 10.0853L20.0046 9.38534C19.6866 9.06434 19.5106 8.63834 19.5106 8.18734V7.18734C19.5106 5.69834 18.2996 4.48734 16.8106 4.48734H15.8086C15.3566 4.48734 14.9316 4.31334 14.6136 3.99634L13.9026 3.28634C12.8456 2.23734 11.1336 2.24034 10.0826 3.29634L9.38662 3.99434C9.07062 4.30834 8.63462 4.48834 8.19062 4.48834H7.18962C5.71762 4.48934 4.51662 5.67434 4.49062 7.13934C4.48962 7.15534 4.48862 7.17234 4.48862 7.18834V8.18534C4.48862 8.63734 4.31262 9.06234 3.99262 9.38234L3.28062 10.0973C2.23462 11.1553 2.24262 12.8673 3.29762 13.9103L3.99562 14.6103C4.31462 14.9303 4.49062 15.3543 4.49062 15.8053V16.8113C4.49062 18.2993 5.70062 19.5103 7.18962 19.5103H8.18662C8.64062 19.5113 9.06562 19.6873 9.38362 20.0043L10.0916 20.7123C10.0986 20.7193 10.1066 20.7263 10.1136 20.7323C10.6196 21.2263 11.2866 21.4973 11.9956 21.4973C11.9986 21.4973 12.0026 21.4973 12.0066 21.4973C12.7286 21.4943 13.4046 21.2103 13.9096 20.7003L14.6106 20.0013C14.9306 19.6833 15.3556 19.5073 15.8066 19.5073H16.8126C18.2986 19.5073 19.5096 18.2983 19.5116 16.8113V15.8073C19.5116 15.3573 19.6876 14.9323 20.0046 14.6123L20.7166 13.9013C21.7646 12.8443 21.7586 11.1313 20.7036 10.0853Z" fill="black"/>
</svg>