<svg width="25" height="24" viewBox="0 0 25 24" fill="none" xmlns="http://www.w3.org/2000/svg">
<path fill-rule="evenodd" clip-rule="evenodd" d="M10.9865 14.0761C10.7235 14.0761 10.4775 13.9741 10.2935 13.7881C10.0005 13.4941 9.52354 13.4931 9.23254 13.7851C8.93854 14.0761 8.93654 14.5521 9.22854 14.8461C9.69754 15.3171 10.3215 15.5761 10.9865 15.5761C12.3545 15.5761 13.4675 14.4631 13.4675 13.0941C13.4675 12.1941 12.9865 11.4041 12.2675 10.9691L13.3065 9.68008C13.4875 9.45608 13.5235 9.14708 13.3995 8.88608C13.2745 8.62608 13.0115 8.46008 12.7225 8.46008H9.70154C9.28754 8.46008 8.95154 8.79608 8.95154 9.21008C8.95154 9.62408 9.28754 9.96008 9.70154 9.96008H11.1545L10.4025 10.8911C10.2215 11.1161 10.1855 11.4251 10.3095 11.6861C10.4345 11.9461 10.6975 12.1121 10.9865 12.1121C11.5275 12.1121 11.9675 12.5531 11.9675 13.0941C11.9675 13.6361 11.5275 14.0761 10.9865 14.0761Z" fill="black"/>
<path fill-rule="evenodd" clip-rule="evenodd" d="M15.0763 9.20984V14.6208C15.0763 15.0348 15.4123 15.3708 15.8263 15.3708C16.2403 15.3708 16.5763 15.0348 16.5763 14.6208V9.20984C16.5763 8.79584 16.2403 8.45984 15.8263 8.45984C15.4123 8.45984 15.0763 8.79584 15.0763 9.20984Z" fill="black"/>
<path fill-rule="evenodd" clip-rule="evenodd" d="M8.3547 5.0302C11.4337 3.1202 15.3537 3.5352 17.9887 5.7912L17.4317 6.3522C17.2297 6.5562 17.1617 6.8582 17.2557 7.1282C17.3507 7.3992 17.5917 7.5932 17.8767 7.6262L20.3107 7.9092C20.3397 7.9122 20.3697 7.9142 20.3977 7.9142C20.5917 7.9142 20.7797 7.8392 20.9197 7.7022C21.0817 7.5452 21.1647 7.3242 21.1447 7.1002L20.9287 4.5822C20.9047 4.2912 20.7117 4.0402 20.4377 3.9412C20.1617 3.8412 19.8557 3.9102 19.6497 4.1172L19.0447 4.7272C15.9267 1.9982 11.2397 1.4772 7.5637 3.7562C4.8657 5.4292 3.1617 8.3252 3.0037 11.5012C2.9837 11.9142 3.3017 12.2662 3.7157 12.2872C3.7287 12.2872 3.7417 12.2882 3.7537 12.2882C4.1507 12.2882 4.4827 11.9762 4.5017 11.5752C4.6347 8.8912 6.0757 6.4452 8.3547 5.0302Z" fill="black"/>
<path fill-rule="evenodd" clip-rule="evenodd" d="M21.7843 11.7118C21.3803 11.6868 21.0173 12.0098 20.9983 12.4238C20.8663 15.1078 19.4273 17.5538 17.1463 18.9678C14.0663 20.8768 10.1463 20.4618 7.51231 18.2078L8.06931 17.6458C8.27131 17.4418 8.34031 17.1408 8.24531 16.8698C8.15031 16.5988 7.90931 16.4058 7.62431 16.3728L5.19031 16.0888C4.95731 16.0628 4.74231 16.1398 4.58131 16.2958C4.42031 16.4528 4.33731 16.6738 4.35631 16.8988L4.57231 19.4168C4.59731 19.7078 4.78931 19.9588 5.06331 20.0578C5.14731 20.0878 5.23331 20.1028 5.31931 20.1028C5.51531 20.1028 5.70831 20.0258 5.85131 19.8808L6.45631 19.2718C8.24431 20.8358 10.5443 21.6788 12.8783 21.6788C14.6153 21.6788 16.3693 21.2148 17.9373 20.2428C20.6363 18.5678 22.3413 15.6728 22.4963 12.4978C22.5163 12.0838 22.1973 11.7318 21.7843 11.7118Z" fill="black"/>
</svg>