<svg width="24" height="24" viewBox="0 0 24 24" fill="none" xmlns="http://www.w3.org/2000/svg">
<path d="M4.99021 7.18839C4.99021 5.97369 5.97443 4.98947 7.18913 4.9885H8.18988C8.77049 4.9885 9.32679 4.75801 9.73914 4.34954L10.4384 3.64931C11.2952 2.78763 12.6879 2.78277 13.5496 3.63958L13.5505 3.64055L13.5593 3.64833L14.2595 4.34857C14.6709 4.75801 15.2282 4.98753 15.8088 4.98753H16.8115C18.0262 4.98753 19.0114 5.97271 19.0114 7.18742V8.1872C19.0114 8.7678 19.2409 9.32507 19.6503 9.73743L20.3506 10.4377C21.2122 11.2935 21.2171 12.6862 20.3613 13.5488L20.3603 13.5498L20.3515 13.5586L19.6513 14.2588C19.2419 14.6702 19.0124 15.2265 19.0124 15.8071V16.8107C19.0104 18.0245 18.0252 19.0077 16.8115 19.0067H15.8068C15.2262 19.0067 14.669 19.2372 14.2576 19.6467L13.5574 20.3459C12.7025 21.2086 11.3098 21.2144 10.4481 20.3596C10.4472 20.3596 10.4462 20.3586 10.4452 20.3576L10.4365 20.3489L9.7372 19.6496C9.32581 19.2402 8.76855 19.0106 8.18794 19.0097H7.18913C5.97443 19.0097 4.99021 18.0255 4.99021 16.8107V15.8051C4.99021 15.2245 4.75972 14.6682 4.35028 14.2568L3.65102 13.5566C2.78837 12.7027 2.78254 11.311 3.63643 10.4484C3.6374 10.4474 3.63935 10.4454 3.64032 10.4445L3.64907 10.4357L4.34833 9.73549C4.75777 9.32313 4.98827 8.76586 4.98827 8.18525V7.18839" stroke="black" stroke-width="1.5" stroke-linecap="round" stroke-linejoin="round"/>
<path d="M8.96655 14.3254C9.2836 14.6424 9.72124 14.8389 10.2056 14.8389C11.1723 14.8389 11.9552 14.056 11.9552 13.0892C11.9552 12.1225 11.1723 11.3387 10.2056 11.3387L11.96 9.16406H8.90625" stroke="black" stroke-width="1.5" stroke-linecap="round" stroke-linejoin="round"/>
<path d="M15.0956 9.16406V14.6336" stroke="black" stroke-width="1.5" stroke-linecap="round" stroke-linejoin="round"/>
</svg>