<svg width="24" height="25" viewBox="0 0 24 25" fill="none" xmlns="http://www.w3.org/2000/svg">
<path fill-rule="evenodd" clip-rule="evenodd" d="M5.71836 11.7106L7.15036 9.93562C7.39236 9.63562 7.44036 9.22362 7.27436 8.87662C7.10836 8.52862 6.75636 8.30762 6.37136 8.30762H2.25336C1.70036 8.30762 1.25336 8.75562 1.25336 9.30762C1.25336 9.85962 1.70036 10.3076 2.25336 10.3076H4.28036L3.22736 11.6126C2.98536 11.9126 2.93736 12.3246 3.10336 12.6716C3.26936 13.0196 3.62036 13.2406 4.00536 13.2406C4.75536 13.2406 5.36536 13.8506 5.36536 14.5996C5.36536 15.3496 4.75536 15.9606 4.00536 15.9606C3.64236 15.9606 3.30036 15.8186 3.04336 15.5606C2.65436 15.1696 2.02136 15.1676 1.62936 15.5586C1.23936 15.9486 1.23736 16.5816 1.62736 16.9726C2.26236 17.6096 3.10636 17.9606 4.00536 17.9606C5.85836 17.9606 7.36536 16.4526 7.36536 14.5996C7.36536 13.3726 6.70336 12.2966 5.71836 11.7106Z" fill="black"/>
<path fill-rule="evenodd" clip-rule="evenodd" d="M10.9995 15.8441C10.2775 15.8441 9.69049 15.2571 9.69049 14.5351C9.69049 13.8131 10.2775 13.2261 10.9995 13.2261C11.7215 13.2261 12.3085 13.8131 12.3085 14.5351C12.3085 15.2571 11.7215 15.8441 10.9995 15.8441ZM11.8585 11.3541L12.9895 9.93013C13.3335 9.49813 13.2615 8.86913 12.8285 8.52513C12.3955 8.18013 11.7685 8.25413 11.4235 8.68613L8.31149 12.6001C8.29949 12.6151 8.29749 12.6351 8.28549 12.6511C7.91249 13.1871 7.69049 13.8341 7.69049 14.5351C7.69049 16.3601 9.17549 17.8441 10.9995 17.8441C12.8235 17.8441 14.3085 16.3601 14.3085 14.5351C14.3085 13.0101 13.2645 11.7341 11.8585 11.3541Z" fill="black"/>
<path fill-rule="evenodd" clip-rule="evenodd" d="M19.0719 14.7796C19.0719 15.3636 18.5959 15.8386 18.0119 15.8386C17.4279 15.8386 16.9539 15.3636 16.9539 14.7796V11.3686C16.9539 10.7836 17.4279 10.3086 18.0119 10.3086C18.5959 10.3086 19.0719 10.7836 19.0719 11.3686V14.7796ZM18.0119 8.30859C16.3259 8.30859 14.9539 9.68059 14.9539 11.3686V14.7796C14.9539 16.4666 16.3259 17.8386 18.0119 17.8386C19.6999 17.8386 21.0719 16.4666 21.0719 14.7796V11.3686C21.0719 9.68059 19.6999 8.30859 18.0119 8.30859Z" fill="black"/>
<path fill-rule="evenodd" clip-rule="evenodd" d="M21.7466 6.64062H21.7046C21.1516 6.64062 20.7256 7.08863 20.7256 7.64062C20.7256 8.19263 21.1936 8.64062 21.7466 8.64062C22.2996 8.64062 22.7466 8.19263 22.7466 7.64062C22.7466 7.08863 22.2996 6.64062 21.7466 6.64062Z" fill="black"/>
</svg>