<svg width="24" height="24" viewBox="0 0 24 24" fill="none" xmlns="http://www.w3.org/2000/svg">
<path d="M2.08219 16.2312C2.50894 16.659 3.10008 16.9235 3.75233 16.9235C5.05577 16.9235 6.11159 15.8677 6.11159 14.5642C6.11159 13.2618 5.05577 12.2049 3.75233 12.2049L6.11792 9.27246H2" stroke="black" stroke-width="1.5" stroke-linecap="round" stroke-linejoin="round"/>
<path d="M8.84247 13.186L11.953 9.27246" stroke="black" stroke-width="1.5" stroke-linecap="round" stroke-linejoin="round"/>
<path d="M10.7464 16.8068C12.0214 16.8068 13.0551 15.7731 13.0551 14.4981C13.0551 13.2231 12.0214 12.1895 10.7464 12.1895C9.47139 12.1895 8.43665 13.2231 8.43665 14.4981C8.43665 14.8792 8.52896 15.2386 8.69248 15.5554" stroke="black" stroke-width="1.5" stroke-linecap="round" stroke-linejoin="round"/>
<path d="M19.818 14.7433C19.818 15.8803 18.896 16.8023 17.759 16.8023C16.6221 16.8023 15.7001 15.8803 15.7001 14.7433V11.3325C15.7001 10.1945 16.6221 9.27246 17.759 9.27246C18.896 9.27246 19.818 10.1945 19.818 11.3325V12.373" stroke="black" stroke-width="1.5" stroke-linecap="round" stroke-linejoin="round"/>
<path d="M21.4511 7.60352H21.4933" stroke="black" stroke-width="1.5" stroke-linecap="round" stroke-linejoin="round"/>
</svg>