<svg width="25" height="24" viewBox="0 0 25 24" fill="none" xmlns="http://www.w3.org/2000/svg">
<path fill-rule="evenodd" clip-rule="evenodd" d="M16.291 11.2483C16.803 11.5333 17.382 11.6943 18.008 11.6943C19.971 11.6943 21.564 10.1003 21.564 8.13732C21.564 6.18432 19.971 4.59032 18.008 4.59032C17.619 4.59032 17.249 4.65732 16.898 4.77032C17.41 5.59632 17.704 6.57232 17.704 7.60632C17.704 9.01032 17.182 10.2813 16.291 11.2483Z" fill="black"/>
<path fill-rule="evenodd" clip-rule="evenodd" d="M6.49401 11.694C7.12001 11.694 7.69801 11.533 8.21101 11.248C7.31901 10.281 6.79701 9.01001 6.79701 7.60601C6.79701 6.57301 7.09101 5.59601 7.60401 4.77101C7.25301 4.65701 6.88301 4.59001 6.49401 4.59001C4.53101 4.59001 2.93701 6.18401 2.93701 8.13701C2.93701 10.101 4.53101 11.694 6.49401 11.694Z" fill="black"/>
<path fill-rule="evenodd" clip-rule="evenodd" d="M12.2507 12.1185C14.7367 12.1185 16.7587 10.0965 16.7587 7.61052C16.7587 5.12552 14.7367 3.10352 12.2507 3.10352C9.76474 3.10352 7.74274 5.12552 7.74274 7.61052C7.74274 10.0965 9.76474 12.1185 12.2507 12.1185Z" fill="black"/>
<g opacity="0.4">
<path fill-rule="evenodd" clip-rule="evenodd" d="M23.3466 16.569C22.6166 14.283 20.6816 12.975 18.0266 12.975H18.0076C16.9256 12.965 15.9586 13.183 15.1426 13.6C17.4196 14.331 19.1076 15.953 19.8846 18.248C21.1176 18.077 22.1896 17.698 23.1376 17.119L23.4506 16.92L23.3466 16.569Z" fill="black"/>
<path fill-rule="evenodd" clip-rule="evenodd" d="M9.31032 13.5816C8.51332 13.1836 7.57432 12.9746 6.51232 12.9746H6.47432C3.81932 12.9746 1.88432 14.2836 1.16332 16.5686L1.04932 16.9196L1.36232 17.1186C2.26332 17.6696 3.32632 18.0386 4.51132 18.2286C5.29832 15.9246 7.01532 14.2926 9.31032 13.5816Z" fill="black"/>
<path fill-rule="evenodd" clip-rule="evenodd" d="M12.216 14.1035C12.2 14.1035 12.185 14.1035 12.17 14.1035C8.756 14.1035 6.267 15.7815 5.341 18.7105L5.229 19.0645L5.546 19.2585C7.354 20.3605 9.514 20.8965 12.149 20.8965H12.234C14.871 20.8965 17.032 20.3605 18.84 19.2585L19.158 19.0645L19.046 18.7105C18.119 15.7815 15.631 14.1035 12.216 14.1035Z" fill="black"/>
</g>
</svg>