<svg width="24" height="24" viewBox="0 0 24 24" fill="none" xmlns="http://www.w3.org/2000/svg">
<path d="M17.8877 10.8967C19.2827 10.7007 20.3567 9.5047 20.3597 8.0557C20.3597 6.6277 19.3187 5.4437 17.9537 5.2197" stroke="black" stroke-width="1.5" stroke-linecap="round" stroke-linejoin="round"/>
<path d="M19.7285 14.2503C21.0795 14.4523 22.0225 14.9253 22.0225 15.9003C22.0225 16.5713 21.5785 17.0073 20.8605 17.2813" stroke="black" stroke-width="1.5" stroke-linecap="round" stroke-linejoin="round"/>
<path d="M11.8867 19.5408C15.1007 19.5408 17.8447 19.0588 17.8447 17.1128C17.8447 15.1668 15.1177 14.6638 11.8867 14.6638C8.67273 14.6638 5.92773 15.1508 5.92773 17.0958C5.92773 18.2899 6.95705 18.9396 8.5 19.2631" stroke="black" stroke-width="1.5" stroke-linecap="round" stroke-linejoin="round"/>
<path d="M8.0679 8.06889C8.0679 5.95989 9.7779 4.24989 11.8869 4.24989C13.9959 4.24989 15.7059 5.95989 15.7059 8.06889C15.7059 10.1789 13.9959 11.8879 11.8869 11.8879H11.8589C10.7792 11.8843 9.80637 11.4314 9.11656 10.7068" stroke="black" stroke-width="1.5" stroke-linecap="round" stroke-linejoin="round"/>
<path d="M5.88509 10.8967C4.48909 10.7007 3.41609 9.5047 3.41309 8.0557C3.41309 6.6277 4.45409 5.4437 5.81909 5.2197" stroke="black" stroke-width="1.5" stroke-linecap="round" stroke-linejoin="round"/>
<path d="M4.044 14.2503C2.693 14.4523 1.75 14.9253 1.75 15.9003C1.75 16.5713 2.194 17.0073 2.912 17.2813" stroke="black" stroke-width="1.5" stroke-linecap="round" stroke-linejoin="round"/>
</svg>