<svg width="25" height="24" viewBox="0 0 25 24" fill="none" xmlns="http://www.w3.org/2000/svg">
<path fill-rule="evenodd" clip-rule="evenodd" d="M18.2909 14.322C18.3741 13.9163 18.7706 13.6548 19.1763 13.7381C21.9501 14.3074 23.1001 16.2259 23.1001 17.9438C23.1001 18.358 22.7643 18.6938 22.3501 18.6938C21.9359 18.6938 21.6001 18.358 21.6001 17.9438C21.6001 16.9571 20.9697 15.6374 18.8748 15.2075C18.469 15.1242 18.2076 14.7278 18.2909 14.322Z" fill="black"/>
<path fill-rule="evenodd" clip-rule="evenodd" d="M17.7708 5.97687C17.8981 5.58268 18.3207 5.36626 18.7149 5.49349C20.1248 5.94853 21.1433 7.27304 21.1376 8.83625L21.1376 8.83638C21.1318 10.3332 20.1871 11.6067 18.8645 12.1019C18.4766 12.2472 18.0444 12.0505 17.8992 11.6625C17.7539 11.2746 17.9506 10.8424 18.3385 10.6972C19.096 10.4135 19.6342 9.68421 19.6376 8.8307M17.7708 5.97687C17.6436 6.37107 17.86 6.79376 18.2542 6.92098L17.7708 5.97687ZM18.2542 6.92098C19.0606 7.18125 19.6408 7.93905 19.6376 8.83058L18.2542 6.92098Z" fill="black"/>
<path fill-rule="evenodd" clip-rule="evenodd" d="M7.87644 17.3976C7.02994 18.1644 6.69141 19.1401 6.69141 19.9992C6.69141 20.4134 6.35562 20.7492 5.94141 20.7492C5.52719 20.7492 5.19141 20.4134 5.19141 19.9992C5.19141 18.7498 5.68515 17.3587 6.86936 16.2859C8.05543 15.2114 9.86627 14.5156 12.3997 14.5156C14.9317 14.5156 16.7422 15.2058 17.9287 16.2751C19.1139 17.3434 19.608 18.7306 19.608 19.9811C19.608 20.3953 19.2722 20.7311 18.858 20.7311C18.4438 20.7311 18.108 20.3953 18.108 19.9811C18.108 19.1218 17.7699 18.1514 16.9244 17.3893C16.0801 16.6284 14.6615 16.0156 12.3997 16.0156C10.1394 16.0156 8.72107 16.6324 7.87644 17.3976Z" fill="black"/>
<path fill-rule="evenodd" clip-rule="evenodd" d="M12.4015 4.75C10.5367 4.75 9.02539 6.26069 9.02539 8.12501C9.02539 9.98933 10.5367 11.5 12.4015 11.5C14.2651 11.5 15.7765 9.98946 15.7765 8.12501C15.7765 6.26055 14.2651 4.75 12.4015 4.75ZM7.52539 8.12501C7.52539 5.43172 9.70879 3.25 12.4015 3.25C15.0933 3.25 17.2765 5.43186 17.2765 8.12501C17.2765 10.8182 15.0933 13 12.4015 13C9.70879 13 7.52539 10.8183 7.52539 8.12501Z" fill="black"/>
<path fill-rule="evenodd" clip-rule="evenodd" d="M6.50993 14.322C6.42666 13.9163 6.03022 13.6548 5.62447 13.7381C2.85068 14.3074 1.70071 16.2259 1.70071 17.9438C1.70071 18.358 2.0365 18.6938 2.45071 18.6938C2.86493 18.6938 3.20071 18.358 3.20071 17.9438C3.20071 16.9571 3.83109 15.6374 5.92602 15.2075C6.33177 15.1242 6.5932 14.7278 6.50993 14.322Z" fill="black"/>
<path fill-rule="evenodd" clip-rule="evenodd" d="M7.02995 5.97687C6.90273 5.58268 6.48004 5.36626 6.08585 5.49349C4.67594 5.94853 3.65745 7.27304 3.66323 8.83625L3.66323 8.83638C3.66901 10.3332 4.61368 11.6067 5.93625 12.1019C6.32416 12.2472 6.75637 12.0505 6.90163 11.6625C7.04688 11.2746 6.85017 10.8424 6.46226 10.6972C5.70477 10.4135 5.16657 9.68421 5.16322 8.8307M7.02995 5.97687C7.15717 6.37107 6.94075 6.79376 6.54656 6.92098L7.02995 5.97687ZM6.54656 6.92098C5.74015 7.18125 5.15997 7.93905 5.16322 8.83058L6.54656 6.92098Z" fill="black"/>
</svg>