<svg width="25" height="24" viewBox="0 0 25 24" fill="none" xmlns="http://www.w3.org/2000/svg">
<path d="M12.2314 14.6231C15.2615 14.6153 17.8379 16.0066 18.7849 19.0014C16.8761 20.1651 14.6293 20.6133 12.2314 20.6074C9.83364 20.6133 7.58679 20.1651 5.67798 19.0014C6.62608 16.0033 9.19812 14.6153 12.2314 14.6231Z" stroke="black" stroke-width="1.5" stroke-linecap="square"/>
<path d="M6.84448 13.773C4.72011 13.7675 2.91382 14.7429 2.24988 16.8426C2.97457 17.2844 3.76875 17.5791 4.6116 17.7558" stroke="black" stroke-width="1.5" stroke-linecap="square"/>
<path d="M17.6555 13.773C19.7799 13.7675 21.5862 14.7429 22.2501 16.8426C21.5254 17.2844 20.7312 17.5791 19.8884 17.7558" stroke="black" stroke-width="1.5" stroke-linecap="square"/>
<path d="M16.3484 7.49102C16.3484 9.75453 14.5134 11.5895 12.2499 11.5895C9.98642 11.5895 8.15149 9.75453 8.15149 7.49102C8.15149 5.22751 9.98642 3.39258 12.2499 3.39258C14.5134 3.39258 16.3484 5.22751 16.3484 7.49102Z" stroke="black" stroke-width="1.5" stroke-linecap="square"/>
<path d="M16.733 6.05059C17.0226 5.95272 17.3328 5.89966 17.6555 5.89966C19.2461 5.89966 20.5355 7.18907 20.5355 8.77964C20.5355 10.3702 19.2461 11.6596 17.6555 11.6596C16.8825 11.6596 16.1806 11.3551 15.6633 10.8594" stroke="black" stroke-width="1.5" stroke-linecap="square"/>
<path d="M7.50042 5.97469C7.28971 5.92561 7.07012 5.89966 6.84446 5.89966C5.25389 5.89966 3.96448 7.18907 3.96448 8.77964C3.96448 10.3702 5.25389 11.6596 6.84446 11.6596C7.53768 11.6596 8.1737 11.4147 8.6707 11.0067" stroke="black" stroke-width="1.5" stroke-linecap="square"/>
</svg>