<svg width="25" height="24" viewBox="0 0 25 24" fill="none" xmlns="http://www.w3.org/2000/svg">
<path fill-rule="evenodd" clip-rule="evenodd" d="M23.3466 16.5689C22.6166 14.2829 20.6816 12.9749 18.0266 12.9749H18.0076C16.9256 12.9649 15.9586 13.1829 15.1426 13.5999C17.4196 14.3309 19.1076 15.9529 19.8846 18.2479C21.1176 18.0769 22.1896 17.6979 23.1376 17.1189L23.4506 16.9199L23.3466 16.5689Z" fill="black"/>
<path fill-rule="evenodd" clip-rule="evenodd" d="M16.2905 11.2484C16.8025 11.5334 17.3815 11.6944 18.0075 11.6944C19.9705 11.6944 21.5635 10.1004 21.5635 8.13738C21.5635 6.18438 19.9705 4.59038 18.0075 4.59038C17.6185 4.59038 17.2485 4.65738 16.8975 4.77038C17.4095 5.59638 17.7035 6.57238 17.7035 7.60638C17.7035 9.01038 17.1815 10.2814 16.2905 11.2484Z" fill="black"/>
<path fill-rule="evenodd" clip-rule="evenodd" d="M9.31032 13.5815C8.51332 13.1835 7.57432 12.9745 6.51232 12.9745H6.47432C3.81932 12.9745 1.88432 14.2835 1.16332 16.5685L1.04932 16.9195L1.36232 17.1185C2.26332 17.6695 3.32632 18.0385 4.51132 18.2285C5.29832 15.9245 7.01532 14.2925 9.31032 13.5815Z" fill="black"/>
<path fill-rule="evenodd" clip-rule="evenodd" d="M6.49346 11.6941C7.11946 11.6941 7.69746 11.5331 8.21046 11.2481C7.31846 10.2811 6.79646 9.01007 6.79646 7.60607C6.79646 6.57307 7.09046 5.59607 7.60346 4.77107C7.25246 4.65707 6.88246 4.59007 6.49346 4.59007C4.53046 4.59007 2.93646 6.18407 2.93646 8.13707C2.93646 10.1011 4.53046 11.6941 6.49346 11.6941Z" fill="black"/>
<path fill-rule="evenodd" clip-rule="evenodd" d="M12.216 14.1034C12.2 14.1034 12.185 14.1034 12.17 14.1034C8.756 14.1034 6.267 15.7814 5.341 18.7104L5.229 19.0644L5.546 19.2584C7.354 20.3604 9.514 20.8964 12.149 20.8964H12.234C14.871 20.8964 17.032 20.3604 18.84 19.2584L19.158 19.0644L19.046 18.7104C18.119 15.7814 15.631 14.1034 12.216 14.1034Z" fill="black"/>
<path fill-rule="evenodd" clip-rule="evenodd" d="M12.2502 12.1186C14.7362 12.1186 16.7582 10.0966 16.7582 7.61058C16.7582 5.12558 14.7362 3.10358 12.2502 3.10358C9.76419 3.10358 7.74219 5.12558 7.74219 7.61058C7.74219 10.0966 9.76419 12.1186 12.2502 12.1186Z" fill="black"/>
</svg>