<svg width="25" height="24" viewBox="0 0 25 24" fill="none" xmlns="http://www.w3.org/2000/svg">
<path fill-rule="evenodd" clip-rule="evenodd" d="M11.9729 12.14H11.9989C14.5359 12.14 16.5999 10.077 16.5999 7.54098C16.5999 5.00398 14.5359 2.94098 11.9989 2.94098C9.46294 2.94098 7.39894 5.00398 7.39894 7.53898C7.39294 10.068 9.44294 12.132 11.9729 12.14ZM8.89894 7.54098C8.89894 5.83198 10.2899 4.44098 11.9989 4.44098C13.7089 4.44098 15.0999 5.83198 15.0999 7.54098C15.0999 9.24998 13.7089 10.64 11.9989 10.64H11.9749C10.2739 10.634 8.89494 9.24498 8.89894 7.54098Z" fill="black"/>
<path fill-rule="evenodd" clip-rule="evenodd" d="M5.24316 17.8571C5.24316 21.0591 10.3282 21.0591 11.9992 21.0591C13.6702 21.0591 18.7552 21.0591 18.7552 17.8401C18.7552 15.4131 15.7252 13.4371 11.9992 13.4371C8.27316 13.4371 5.24316 15.4191 5.24316 17.8571ZM6.74316 17.8571C6.74316 16.4791 8.99116 14.9371 11.9992 14.9371C15.0072 14.9371 17.2552 16.4701 17.2552 17.8401C17.2552 19.2611 14.3962 19.5591 11.9992 19.5591C9.60216 19.5591 6.74316 19.2641 6.74316 17.8571Z" fill="black"/>
<path d="M18.3897 11.0826C18.0577 11.0826 17.7547 10.8616 17.6647 10.5266C17.5577 10.1266 17.7957 9.71556 18.1957 9.60756C19.1327 9.35656 19.7877 8.50256 19.7877 7.53056C19.7877 6.51356 19.0677 5.62756 18.0737 5.42556C17.6677 5.34256 17.4067 4.94556 17.4887 4.53956C17.5727 4.13456 17.9667 3.87856 18.3737 3.95456C20.0627 4.29956 21.2877 5.80356 21.2877 7.53056C21.2877 9.18056 20.1757 10.6306 18.5837 11.0576C18.5187 11.0746 18.4527 11.0826 18.3897 11.0826Z" fill="black"/>
<path d="M20.1912 17.3991C20.2732 17.7451 20.5802 17.9771 20.9202 17.9771C20.9782 17.9771 21.0352 17.9701 21.0932 17.9571C22.1642 17.7051 22.9732 16.7501 22.9732 15.7371C22.9732 14.1661 21.0662 12.7361 18.9712 12.7361C18.5572 12.7361 18.2212 13.0721 18.2212 13.4861C18.2212 13.9001 18.5572 14.2361 18.9712 14.2361C20.4412 14.2361 21.4732 15.2091 21.4732 15.7371C21.4732 15.9841 21.2222 16.3861 20.7492 16.4971C20.3462 16.5921 20.0962 16.9961 20.1912 17.3991Z" fill="black"/>
<path d="M5.61143 11.0826C5.54843 11.0826 5.48243 11.0746 5.41843 11.0576C3.82443 10.6316 2.71143 9.18156 2.71143 7.53056C2.71143 5.80356 3.93743 4.29956 5.62643 3.95456C6.03343 3.87856 6.42843 4.13456 6.51143 4.53956C6.59343 4.94556 6.33243 5.34256 5.92643 5.42556C4.93243 5.62756 4.21143 6.51356 4.21143 7.53056C4.21143 8.50256 4.86643 9.35656 5.80443 9.60756C6.20543 9.71556 6.44243 10.1266 6.33643 10.5256C6.24643 10.8616 5.94343 11.0826 5.61143 11.0826Z" fill="black"/>
<path d="M2.90686 17.9571C2.96486 17.9711 3.02186 17.9771 3.07986 17.9771C3.41986 17.9771 3.72686 17.7451 3.80886 17.3991C3.90386 16.9961 3.65386 16.5911 3.25086 16.4971C2.77786 16.3861 2.52686 15.9841 2.52686 15.7371C2.52686 15.2091 3.55886 14.2361 5.02886 14.2361C5.44286 14.2361 5.77886 13.9001 5.77886 13.4861C5.77886 13.0721 5.44286 12.7361 5.02886 12.7361C2.93386 12.7361 1.02686 14.1661 1.02686 15.7371C1.02686 16.7501 1.83586 17.7061 2.90686 17.9571Z" fill="black"/>
</svg>