<svg width="25" height="24" viewBox="0 0 25 24" fill="none" xmlns="http://www.w3.org/2000/svg">
<path d="M12.232 20.575C9.83398 20.58 7.58698 20.132 5.67798 18.969C6.62598 15.97 9.19798 14.582 12.232 14.59C15.262 14.582 17.838 15.974 18.785 18.969C17.766 19.59 16.651 20.007 15.468 20.26" stroke="black" stroke-width="1.5" stroke-linecap="square"/>
<path d="M6.84476 13.7399C4.71976 13.7349 2.91376 14.7099 2.24976 16.8099C2.61276 17.0309 2.99176 17.2149 3.38676 17.3659" stroke="black" stroke-width="1.5" stroke-linecap="square"/>
<path d="M17.656 13.7399C19.78 13.7349 21.586 14.7099 22.25 16.8099C21.861 17.0479 21.451 17.2419 21.025 17.3989" stroke="black" stroke-width="1.5" stroke-linecap="square"/>
<path d="M12.9826 3.42493C14.8966 3.76993 16.3486 5.44493 16.3486 7.45793C16.3486 9.72193 14.5136 11.5569 12.2496 11.5569C9.98661 11.5569 8.15161 9.72193 8.15161 7.45793C8.15161 6.20893 8.71061 5.08993 9.59261 4.33793" stroke="black" stroke-width="1.5" stroke-linecap="square"/>
<path d="M17.656 5.86682C19.246 5.86682 20.536 7.15582 20.536 8.74682C20.536 10.3368 19.246 11.6268 17.656 11.6268" stroke="black" stroke-width="1.5" stroke-linecap="square"/>
<path d="M6.84509 5.86682C5.25409 5.86682 3.96509 7.15582 3.96509 8.74682C3.96509 10.3368 5.25409 11.6268 6.84509 11.6268" stroke="black" stroke-width="1.5" stroke-linecap="square"/>
</svg>