<svg width="25" height="24" viewBox="0 0 25 24" fill="none" xmlns="http://www.w3.org/2000/svg">
<path d="M12.083 21H16.2999C19.249 21 21.084 18.9188 21.084 15.9736V8.02638C21.084 5.08119 19.249 3 16.3008 3H7.86615C4.9268 3 3.08398 5.08119 3.08398 8.02638V15.9736C3.08398 18.9188 4.91804 21 7.86615 21H8.73213" stroke="black" stroke-width="1.5" stroke-linecap="round" stroke-linejoin="round"/>
<path d="M7.90704 13.9905C8.1785 14.2629 8.55406 14.4313 8.96855 14.4313C9.79752 14.4313 10.4689 13.7589 10.4689 12.9309C10.4689 12.102 9.79752 11.4306 8.96855 11.4306L10.4737 9.56641H7.85547" stroke="black" stroke-width="1.5" stroke-linecap="round" stroke-linejoin="round"/>
<path fill-rule="evenodd" clip-rule="evenodd" d="M13.8808 14.4313H13.0703V9.56641H13.8808C15.2245 9.56641 16.3132 10.6561 16.3132 11.9988C16.3132 13.3425 15.2245 14.4313 13.8808 14.4313Z" stroke="black" stroke-width="1.5" stroke-linecap="round" stroke-linejoin="round"/>
</svg>