<svg width="24" height="24" viewBox="0 0 24 24" fill="none" xmlns="http://www.w3.org/2000/svg">
<path d="M21 12C21 7.02908 16.9709 3 12 3C7.02908 3 3 7.02908 3 12C3 16.9699 7.02908 21 12 21C16.9709 21 21 16.9699 21 12Z" stroke="black" stroke-width="1.5" stroke-linecap="round" stroke-linejoin="round"/>
<path d="M16.1507 9.66199C15.8393 9.50729 15.492 9.41291 15.1252 9.3954C13.7601 9.32729 12.6295 10.5026 12.5731 11.8687C12.5108 13.37 13.5081 14.6105 14.9929 14.6105C15.8637 14.6105 16.4834 14.3002 16.4834 13.4303V12.001H14.9929" stroke="black" stroke-width="1.5" stroke-linecap="round" stroke-linejoin="round"/>
<path d="M7.57499 14.131C7.86591 14.4219 8.26677 14.6019 8.71045 14.6019C9.59683 14.6019 10.3159 13.8838 10.3159 12.9965C10.3159 12.1111 9.59683 11.3921 8.71045 11.3921L10.3197 9.39844H7.51953" stroke="black" stroke-width="1.5" stroke-linecap="round" stroke-linejoin="round"/>
</svg>