<svg width="24" height="24" viewBox="0 0 24 24" fill="none" xmlns="http://www.w3.org/2000/svg">
<path opacity="0.4" fill-rule="evenodd" clip-rule="evenodd" d="M12 2.5C6.762 2.5 2.5 6.762 2.5 12C2.5 17.238 6.762 21.5 12 21.5C17.238 21.5 21.5 17.238 21.5 12C21.5 6.762 17.238 2.5 12 2.5Z" fill="black"/>
<path fill-rule="evenodd" clip-rule="evenodd" d="M17.233 13.4301C17.233 14.6391 16.395 15.3611 14.993 15.3611C14.129 15.3611 13.332 15.0271 12.75 14.4191C12.12 13.7631 11.783 12.8231 11.824 11.8391C11.861 10.9391 12.263 10.0761 12.928 9.46909C13.553 8.90009 14.337 8.60109 15.164 8.65209C15.592 8.66209 16.041 8.77509 16.476 8.98509C16.849 9.16409 17.006 9.61309 16.827 9.98609C16.648 10.3591 16.199 10.5181 15.826 10.3361C15.583 10.2191 15.339 10.1571 15.105 10.1511C14.641 10.1221 14.264 10.2811 13.939 10.5771C13.568 10.9161 13.343 11.3991 13.322 11.9021C13.298 12.4791 13.484 13.0181 13.832 13.3811C14.132 13.6951 14.534 13.8611 14.993 13.8611C15.733 13.8611 15.733 13.6421 15.733 13.4301V12.7501H14.993C14.579 12.7501 14.243 12.4141 14.243 12.0001C14.243 11.5861 14.579 11.2501 14.993 11.2501H16.483C16.897 11.2501 17.233 11.5861 17.233 12.0001V13.4301ZM8.71004 15.3501C8.08204 15.3501 7.49104 15.1061 7.04504 14.6611C6.75204 14.3691 6.75204 13.8941 7.04404 13.6011C7.33604 13.3071 7.81004 13.3071 8.10404 13.5991C8.26604 13.7611 8.48204 13.8501 8.71004 13.8501C9.18204 13.8501 9.56604 13.4691 9.56604 13.0001C9.56604 12.5261 9.18204 12.1401 8.71004 12.1401C8.42004 12.1401 8.15704 11.9741 8.03304 11.7131C7.90804 11.4521 7.94504 11.1431 8.12704 10.9181L8.74804 10.1511H7.51904C7.10504 10.1511 6.76904 9.81509 6.76904 9.40109C6.76904 8.98709 7.10504 8.65109 7.51904 8.65109H10.32C10.609 8.65109 10.873 8.81709 10.997 9.07709C11.122 9.33809 11.085 9.64809 10.903 9.87209L9.98004 11.0131C10.632 11.4331 11.066 12.1671 11.066 13.0001C11.066 14.2961 10.009 15.3501 8.71004 15.3501Z" fill="black"/>
</svg>