<svg width="25" height="24" viewBox="0 0 25 24" fill="none" xmlns="http://www.w3.org/2000/svg">
<path d="M16.7627 9.59759C16.4426 9.439 16.0865 9.34267 15.709 9.32321C14.3079 9.25316 13.1462 10.4616 13.0888 11.8636C13.0246 13.4058 14.0481 14.6804 15.5738 14.6804C16.4679 14.6804 17.1043 14.3613 17.1043 13.4681V11.9999H15.5738" stroke="black" stroke-width="1.5" stroke-linecap="round" stroke-linejoin="round"/>
<path d="M7.95389 14.1891C8.25259 14.4878 8.66513 14.6727 9.12048 14.6727C10.0312 14.6727 10.7687 13.9352 10.7687 13.0244C10.7687 12.1147 10.0312 11.3762 9.12048 11.3762L10.7726 9.32812H7.89648" stroke="black" stroke-width="1.5" stroke-linecap="round" stroke-linejoin="round"/>
<path d="M16.7159 21C19.665 21 21.5 18.9188 21.5 15.9736V8.02638C21.5 5.08119 19.665 3 16.7169 3H8.28216C5.34281 3 3.5 5.08119 3.5 8.02638V15.9736C3.5 18.9188 5.33308 21 8.28216 21H13.003" stroke="black" stroke-width="1.5" stroke-linecap="round" stroke-linejoin="round"/>
</svg>