<svg width="24" height="24" viewBox="0 0 24 24" fill="none" xmlns="http://www.w3.org/2000/svg">
<path d="M21 12C21 7.02908 16.9709 3 12 3C7.02908 3 3 7.02908 3 12C3 16.9699 7.02908 21 12 21C16.9709 21 21 16.9699 21 12Z" stroke="black" stroke-width="1.5" stroke-linecap="round" stroke-linejoin="round"/>
<path d="M9.98538 14.5823V13.3914M9.98538 13.3914H10.9944M9.98538 13.3914H7.08203L9.98538 9.35352V13.3914Z" stroke="black" stroke-width="1.5" stroke-linecap="round" stroke-linejoin="round"/>
<path d="M16.5843 9.62879C16.2729 9.47408 15.9256 9.38068 15.5588 9.36219C14.1937 9.29408 13.0631 10.4704 13.0067 11.8355C12.9444 13.3368 13.9417 14.5773 15.4264 14.5773C16.2963 14.5773 16.917 14.267 16.917 13.3971V11.9678H15.4264" stroke="black" stroke-width="1.5" stroke-linecap="round" stroke-linejoin="round"/>
</svg>