<svg width="24" height="24" viewBox="0 0 24 24" fill="none" xmlns="http://www.w3.org/2000/svg">
<path opacity="0.4" fill-rule="evenodd" clip-rule="evenodd" d="M12 2.5C6.762 2.5 2.5 6.761 2.5 12C2.5 17.238 6.762 21.5 12 21.5C17.238 21.5 21.5 17.238 21.5 12C21.5 6.761 17.238 2.5 12 2.5Z" fill="black"/>
<path fill-rule="evenodd" clip-rule="evenodd" d="M15.426 15.3299C16.829 15.3299 17.667 14.6079 17.667 13.3999V11.9689C17.667 11.5549 17.331 11.2189 16.917 11.2189H15.426C15.012 11.2189 14.676 11.5549 14.676 11.9689C14.676 12.3829 15.012 12.7189 15.426 12.7189H16.167V13.3999C16.167 13.6009 16.167 13.8299 15.426 13.8299C14.968 13.8299 14.566 13.6639 14.266 13.3499C13.918 12.9869 13.732 12.4479 13.756 11.8699C13.776 11.3649 14.003 10.8789 14.377 10.5379C14.704 10.2399 15.128 10.0939 15.519 10.1089C15.784 10.1229 16.026 10.1859 16.24 10.2959C16.61 10.4879 17.062 10.3389 17.251 9.97289C17.44 9.60489 17.296 9.15289 16.928 8.96289C16.524 8.75389 16.077 8.63589 15.598 8.61089C14.788 8.57189 13.992 8.85989 13.366 9.42889C12.698 10.0389 12.294 10.9059 12.257 11.8079C12.216 12.7919 12.554 13.7319 13.183 14.3879C13.766 14.9959 14.562 15.3299 15.426 15.3299ZM10.735 14.1389H10.994C11.408 14.1389 11.744 13.8029 11.744 13.3889C11.744 12.9749 11.408 12.6389 10.994 12.6389H10.735V9.34889C10.735 9.02389 10.525 8.73489 10.215 8.63489C9.906 8.53589 9.566 8.64689 9.376 8.91189L6.473 12.9519C6.309 13.1799 6.286 13.4809 6.415 13.7309C6.543 13.9819 6.801 14.1389 7.082 14.1389H9.235V14.5799C9.235 14.9939 9.571 15.3299 9.985 15.3299C10.399 15.3299 10.735 14.9939 10.735 14.5799V14.1389ZM9.23489 11.6782V12.6392H8.54489L9.23489 11.6782Z" fill="black"/>
</svg>