<svg width="24" height="24" viewBox="0 0 24 24" fill="none" xmlns="http://www.w3.org/2000/svg">
<path fill-rule="evenodd" clip-rule="evenodd" d="M17.667 13.4C17.667 14.608 16.829 15.33 15.426 15.33C14.562 15.33 13.766 14.996 13.183 14.388C12.554 13.732 12.216 12.792 12.257 11.808C12.294 10.906 12.698 10.039 13.366 9.429C13.992 8.86 14.788 8.572 15.598 8.611C16.077 8.636 16.524 8.754 16.928 8.963C17.296 9.153 17.44 9.605 17.251 9.973C17.062 10.339 16.61 10.488 16.24 10.296C16.026 10.186 15.784 10.123 15.519 10.109C15.128 10.094 14.704 10.24 14.377 10.538C14.003 10.879 13.776 11.365 13.756 11.87C13.732 12.448 13.918 12.987 14.266 13.35C14.566 13.664 14.968 13.83 15.426 13.83C16.167 13.83 16.167 13.601 16.167 13.4V12.719H15.426C15.012 12.719 14.676 12.383 14.676 11.969C14.676 11.555 15.012 11.219 15.426 11.219H16.917C17.331 11.219 17.667 11.555 17.667 11.969V13.4ZM10.994 14.139H10.735V14.58C10.735 14.994 10.399 15.33 9.985 15.33C9.571 15.33 9.235 14.994 9.235 14.58V14.139H7.082C6.801 14.139 6.543 13.982 6.415 13.731C6.286 13.481 6.309 13.18 6.473 12.952L9.376 8.912C9.566 8.647 9.906 8.536 10.215 8.635C10.525 8.735 10.735 9.024 10.735 9.349V12.639H10.994C11.408 12.639 11.744 12.975 11.744 13.389C11.744 13.803 11.408 14.139 10.994 14.139ZM12 2.5C6.762 2.5 2.5 6.761 2.5 12C2.5 17.238 6.762 21.5 12 21.5C17.238 21.5 21.5 17.238 21.5 12C21.5 6.761 17.238 2.5 12 2.5Z" fill="black"/>
<path fill-rule="evenodd" clip-rule="evenodd" d="M9.23489 12.6392V11.6782L8.54489 12.6392H9.23489Z" fill="black"/>
</svg>