<svg width="24" height="24" viewBox="0 0 24 24" fill="none" xmlns="http://www.w3.org/2000/svg">
<path opacity="0.4" fill-rule="evenodd" clip-rule="evenodd" d="M16.217 2.5H7.782C4.623 2.5 2.5 4.723 2.5 8.031V15.97C2.5 19.278 4.623 21.5 7.782 21.5H16.216C19.377 21.5 21.5 19.278 21.5 15.97V8.031C21.5 4.723 19.377 2.5 16.217 2.5Z" fill="black"/>
<path fill-rule="evenodd" clip-rule="evenodd" d="M15.519 15.4302C16.947 15.4302 17.8 14.6982 17.8 13.4702V12.0002C17.8 11.5862 17.464 11.2502 17.05 11.2502H15.519C15.105 11.2502 14.769 11.5862 14.769 12.0002C14.769 12.4142 15.105 12.7502 15.519 12.7502H16.3V13.4702C16.3 13.6862 16.3 13.9302 15.519 13.9302C15.042 13.9302 14.625 13.7582 14.313 13.4322C13.951 13.0562 13.758 12.4942 13.784 11.8912C13.805 11.3712 14.039 10.8702 14.425 10.5182C14.765 10.2072 15.182 10.0452 15.616 10.0702C15.878 10.0832 16.133 10.1512 16.373 10.2712C16.744 10.4562 17.194 10.3082 17.379 9.93517C17.564 9.56517 17.414 9.11517 17.044 8.92917C16.618 8.71617 16.164 8.59617 15.692 8.57217C14.869 8.52317 14.052 8.82817 13.414 9.40917C12.734 10.0312 12.322 10.9132 12.285 11.8292C12.242 12.8532 12.578 13.7912 13.23 14.4712C13.823 15.0892 14.636 15.4302 15.519 15.4302ZM10.681 14.2102H10.968C11.382 14.2102 11.718 13.8742 11.718 13.4602C11.718 13.0462 11.382 12.7102 10.968 12.7102H10.681V9.31117C10.681 8.98617 10.471 8.69717 10.161 8.59717C9.852 8.49617 9.512 8.60917 9.322 8.87317L6.341 13.0232C6.176 13.2512 6.154 13.5522 6.282 13.8022C6.41 14.0532 6.668 14.2102 6.949 14.2102H9.181V14.6902C9.181 15.1042 9.517 15.4402 9.931 15.4402C10.345 15.4402 10.681 15.1042 10.681 14.6902V14.2102ZM9.18138 11.6406V12.7106H8.41138L9.18138 11.6406Z" fill="black"/>
</svg>