<svg width="24" height="24" viewBox="0 0 24 24" fill="none" xmlns="http://www.w3.org/2000/svg">
<path fill-rule="evenodd" clip-rule="evenodd" d="M17.306 13.41C17.306 14.618 16.468 15.34 15.065 15.34C14.201 15.34 13.404 15.006 12.822 14.399C12.193 13.743 11.855 12.803 11.895 11.818C11.933 10.921 12.337 10.057 13.004 9.45C13.629 8.88 14.427 8.585 15.235 8.631C15.702 8.657 16.142 8.768 16.548 8.964C16.921 9.142 17.078 9.591 16.899 9.965C16.72 10.338 16.271 10.497 15.898 10.315C15.671 10.206 15.421 10.143 15.155 10.129C14.746 10.12 14.341 10.261 14.014 10.558C13.641 10.898 13.415 11.381 13.394 11.881C13.37 12.458 13.556 12.998 13.905 13.36C14.205 13.674 14.607 13.84 15.065 13.84C15.806 13.84 15.806 13.621 15.806 13.41V12.73H15.065C14.651 12.73 14.315 12.394 14.315 11.98C14.315 11.566 14.651 11.23 15.065 11.23H16.556C16.97 11.23 17.306 11.566 17.306 11.98V13.41ZM8.684 15.36C7.902 15.36 7.173 14.966 6.735 14.304C6.507 13.958 6.601 13.493 6.947 13.264C7.291 13.034 7.757 13.13 7.986 13.475C8.148 13.72 8.402 13.86 8.684 13.86C9.166 13.86 9.558 13.47 9.558 12.99C9.558 12.676 9.311 12.43 8.995 12.43H7.549C7.335 12.43 7.132 12.339 6.989 12.18C6.847 12.019 6.779 11.807 6.804 11.595L7.067 9.275C7.11 8.896 7.431 8.61 7.812 8.61H10.084C10.498 8.61 10.834 8.946 10.834 9.36C10.834 9.774 10.498 10.11 10.084 10.11H8.482L8.389 10.93H8.995C10.133 10.93 11.058 11.854 11.058 12.99C11.058 14.297 9.993 15.36 8.684 15.36ZM12 2.5C6.762 2.5 2.5 6.762 2.5 12C2.5 17.238 6.762 21.5 12 21.5C17.238 21.5 21.5 17.238 21.5 12C21.5 6.762 17.238 2.5 12 2.5Z" fill="black"/>
</svg>