<svg width="25" height="24" viewBox="0 0 25 24" fill="none" xmlns="http://www.w3.org/2000/svg">
<path fill-rule="evenodd" clip-rule="evenodd" d="M16.0181 2.33398C16.4323 2.33398 16.7681 2.66977 16.7681 3.08398V5.02339C16.7681 5.4376 16.4323 5.77339 16.0181 5.77339C15.6039 5.77339 15.2681 5.4376 15.2681 5.02339V3.08398C15.2681 2.66977 15.6039 2.33398 16.0181 2.33398Z" fill="black"/>
<path fill-rule="evenodd" clip-rule="evenodd" d="M8.48877 2.33398C8.90298 2.33398 9.23877 2.66977 9.23877 3.08398V5.02339C9.23877 5.4376 8.90298 5.77339 8.48877 5.77339C8.07456 5.77339 7.73877 5.4376 7.73877 5.02339V3.08398C7.73877 2.66977 8.07456 2.33398 8.48877 2.33398Z" fill="black"/>
<path fill-rule="evenodd" clip-rule="evenodd" d="M7.9446 4.27625L16.5707 4.27539C17.9757 4.27539 19.2111 4.6669 20.098 5.51216C20.9906 6.36288 21.4328 7.58024 21.4288 9.0314C21.4288 9.03117 21.4288 9.03162 21.4288 9.0314V16.9028C21.4288 18.3541 20.9845 19.5726 20.0919 20.4247C19.2046 21.2717 17.9695 21.6657 16.5633 21.6657C16.5633 21.6657 16.5634 21.6657 16.5633 21.6657L7.94468 21.6666C6.53822 21.6666 5.30199 21.264 4.41468 20.404C3.52365 19.5404 3.0791 18.3073 3.0791 16.8384V9.03077C3.0791 7.57877 3.52596 6.36212 4.41994 5.51234C5.3081 4.66809 6.54267 4.27626 7.9446 4.27625C7.94463 4.27625 7.94458 4.27625 7.9446 4.27625ZM16.5707 5.77539L7.94468 5.77625C6.8128 5.77625 5.9895 6.08992 5.45339 6.59953C4.92307 7.10363 4.5791 7.88925 4.5791 9.03077V16.8384C4.5791 18.004 4.92538 18.81 5.45864 19.3269C5.99562 19.8473 6.81719 20.1666 7.94453 20.1666C7.9445 20.1666 7.94455 20.1666 7.94453 20.1666L16.5632 20.1657C17.6983 20.1657 18.521 19.8505 19.0561 19.3397C19.5859 18.8339 19.9288 18.0459 19.9288 16.9028V9.02991L19.9288 9.02775C19.9321 7.88569 19.5909 7.10104 19.0631 6.598C18.5294 6.08939 17.7069 5.7754 16.5707 5.77539C16.5708 5.77539 16.5707 5.77539 16.5707 5.77539Z" fill="black"/>
<path fill-rule="evenodd" clip-rule="evenodd" d="M7.19385 10.3838C7.19385 9.96958 7.52963 9.63379 7.94385 9.63379H11.321C11.5662 9.63379 11.7958 9.75356 11.9361 9.95457C12.0764 10.1556 12.1096 10.4124 12.025 10.6425L10.057 15.9974C9.91415 16.3861 9.48314 16.5855 9.09435 16.4426C8.70556 16.2997 8.50622 15.8687 8.6491 15.4799L10.2464 11.1338H7.94385C7.52963 11.1338 7.19385 10.798 7.19385 10.3838Z" fill="black"/>
<path fill-rule="evenodd" clip-rule="evenodd" d="M16.1328 9.33398C16.547 9.33398 16.8828 9.66977 16.8828 10.084V15.7733C16.8828 16.1875 16.547 16.5233 16.1328 16.5233C15.7186 16.5233 15.3828 16.1875 15.3828 15.7733V10.084C15.3828 9.66977 15.7186 9.33398 16.1328 9.33398Z" fill="black"/>
<path fill-rule="evenodd" clip-rule="evenodd" d="M14.3091 13.5293C13.873 13.5293 13.5195 13.8828 13.5195 14.3188C13.5195 14.7549 13.873 15.1084 14.3091 15.1084C14.7451 15.1084 15.0986 14.7549 15.0986 14.3188C15.0986 13.8828 14.7451 13.5293 14.3091 13.5293ZM12.0195 14.3188C12.0195 13.0544 13.0446 12.0293 14.3091 12.0293C15.5736 12.0293 16.5986 13.0544 16.5986 14.3188C16.5986 15.5833 15.5736 16.6084 14.3091 16.6084C13.0446 16.6084 12.0195 15.5833 12.0195 14.3188Z" fill="black"/>
</svg>