<svg width="25" height="24" viewBox="0 0 25 24" fill="none" xmlns="http://www.w3.org/2000/svg">
<path opacity="0.4" fill-rule="evenodd" clip-rule="evenodd" d="M12.5 2.5C7.261 2.5 3 6.761 3 12C3 17.238 7.261 21.5 12.5 21.5C17.738 21.5 22 17.238 22 12C22 6.761 17.738 2.5 12.5 2.5Z" fill="black"/>
<path d="M15.248 15.7772C15.417 16.1562 15.86 16.3242 16.238 16.1582C16.616 15.9902 16.787 15.5472 16.619 15.1682L13.184 7.43719C13.064 7.16719 12.796 6.99219 12.499 6.99219C12.203 6.99219 11.933 7.16719 11.813 7.43719L10.104 11.2832H9.06201C8.64801 11.2832 8.31201 11.6192 8.31201 12.0332C8.31201 12.4472 8.64801 12.7832 9.06201 12.7832H9.43701L8.37701 15.1682C8.20901 15.5472 8.37901 15.9892 8.75801 16.1582C8.85601 16.2022 8.96001 16.2222 9.06201 16.2222C9.34901 16.2222 9.62401 16.0562 9.74801 15.7772L11.079 12.7832H12.278C12.692 12.7832 13.028 12.4472 13.028 12.0332C13.028 11.6192 12.692 11.2832 12.278 11.2832H11.746L12.499 9.58919L15.248 15.7772Z" fill="black"/>
</svg>