<svg width="25" height="24" viewBox="0 0 25 24" fill="none" xmlns="http://www.w3.org/2000/svg">
<path fill-rule="evenodd" clip-rule="evenodd" d="M15.9894 16.5274C16.4681 16.0486 17.1168 15.7812 17.7923 15.7812C18.4677 15.7812 19.1168 16.0485 19.5957 16.5274C20.0744 17.006 20.3423 17.6556 20.3423 18.3312V18.334H20.3423C20.3414 18.5684 20.3071 18.8014 20.2406 19.0259C20.0901 19.5576 19.771 20.026 19.3308 20.3608C18.8892 20.6966 18.3497 20.8795 17.7945 20.8811L17.7939 20.8811C17.2364 20.8823 16.6941 20.7005 16.25 20.3645C15.8055 20.0283 15.4839 19.5561 15.3335 19.0197L15.3334 19.0192C15.2705 18.7943 15.2394 18.5608 15.2424 18.3256C15.2438 17.6515 15.5123 17.0044 15.9894 16.5274ZM17.7923 17.2812C17.5131 17.2812 17.2464 17.3916 17.05 17.588C16.8533 17.7848 16.7424 18.0525 16.7424 18.3312V18.3424L16.7423 18.3424C16.7409 18.4337 16.7529 18.5256 16.7779 18.6152L16.0557 18.8172L16.7778 18.6147C16.8398 18.8358 16.9721 19.0299 17.155 19.1683C17.3382 19.3068 17.5615 19.3816 17.7905 19.3811C18.0188 19.3804 18.2409 19.3051 18.4229 19.1668C18.6047 19.0285 18.7363 18.8349 18.7981 18.6147L18.8015 18.6024L18.8016 18.6024C18.8281 18.5138 18.8418 18.4219 18.8423 18.3298C18.8419 18.0512 18.7312 17.7841 18.535 17.588C18.3388 17.3918 18.0717 17.2812 17.7923 17.2812Z" fill="black"/>
<path fill-rule="evenodd" clip-rule="evenodd" d="M20.6805 7.90625H21.4996C21.9138 7.90625 22.2496 8.24204 22.2496 8.65625C22.2496 9.07046 21.9138 9.40625 21.4996 9.40625H20.6841C20.6199 9.40709 20.5586 9.42466 20.5056 9.45634C20.452 9.4884 20.4074 9.53446 20.3766 9.59009L18.3439 13.3674C18.1477 13.7321 17.6928 13.8687 17.3281 13.6724C16.9633 13.4761 16.8268 13.0213 17.0231 12.6566L19.0596 8.87217C19.218 8.58229 19.4511 8.33922 19.7356 8.16904C20.0207 7.99852 20.3451 7.90876 20.6748 7.90627L20.6805 7.90625Z" fill="black"/>
<path fill-rule="evenodd" clip-rule="evenodd" d="M19.0762 18.332C19.0762 17.9178 19.412 17.582 19.8262 17.582H21.5001C21.9143 17.582 22.2501 17.9178 22.2501 18.332C22.2501 18.7462 21.9143 19.082 21.5001 19.082H19.8262C19.412 19.082 19.0762 18.7462 19.0762 18.332Z" fill="black"/>
<path fill-rule="evenodd" clip-rule="evenodd" d="M14.0338 13.1143C14.5508 12.5973 15.2523 12.3066 15.9835 12.3066H21.5002C21.9144 12.3066 22.2502 12.6424 22.2502 13.0566C22.2502 13.4709 21.9144 13.8066 21.5002 13.8066H15.9835C15.6502 13.8066 15.3302 13.9392 15.0944 14.1749C14.8587 14.4106 14.7266 14.7297 14.7266 15.0631V16.6205C14.7266 16.9542 14.859 17.2741 15.0944 17.5096C15.3296 17.7447 15.6493 17.877 15.9835 17.877V19.377C15.2531 19.377 14.5514 19.0878 14.0338 18.5702C13.5165 18.0529 13.2266 17.3513 13.2266 16.6205V15.0631C13.2266 14.332 13.5167 13.6313 14.0338 13.1143Z" fill="black"/>
<path fill-rule="evenodd" clip-rule="evenodd" d="M7.20834 17.2812C6.92895 17.2812 6.66186 17.3918 6.46561 17.588C6.26917 17.7845 6.15839 18.0521 6.15839 18.3312V18.3424L6.15831 18.3424C6.15694 18.4348 6.16876 18.5264 6.19332 18.6145C6.25543 18.8343 6.38758 19.0278 6.56993 19.1658C6.75224 19.3038 6.97457 19.3785 7.2035 19.3785C7.43263 19.3785 7.65536 19.3037 7.83752 19.1658C8.02008 19.0276 8.15232 18.8338 8.21434 18.6138L8.21755 18.6024L8.21763 18.6024C8.24413 18.5138 8.25781 18.4219 8.25828 18.3298C8.25792 18.0517 8.14708 17.7845 7.95063 17.588C7.75424 17.3916 7.48754 17.2812 7.20834 17.2812ZM5.40495 16.5274C5.88381 16.0485 6.53298 15.7812 7.20834 15.7812C7.88389 15.7812 8.53256 16.0486 9.01129 16.5274C9.48962 17.0057 9.75828 17.6551 9.75828 18.3312V18.334H9.75828C9.75741 18.5686 9.72304 18.8018 9.65648 19.0264C9.50502 19.559 9.18429 20.0276 8.74296 20.3617C8.29966 20.6973 7.75887 20.8785 7.2035 20.8785C6.64795 20.8785 6.10763 20.6972 5.66449 20.3617C5.22159 20.0264 4.90015 19.5557 4.74936 19.0207L4.74895 19.0192C4.6857 18.7931 4.65545 18.5595 4.6584 18.3256C4.65986 17.652 4.9276 17.0047 5.40495 16.5274Z" fill="black"/>
<path fill-rule="evenodd" clip-rule="evenodd" d="M2.75 8.65625C2.75 8.24204 3.08579 7.90625 3.5 7.90625H4.31193C4.64389 7.90715 4.97002 7.99735 5.2556 8.16816C5.54025 8.33842 5.77463 8.58235 5.93296 8.87536L7.97549 12.6554C8.1724 13.0199 8.03661 13.4749 7.67219 13.6718C7.30777 13.8687 6.85273 13.7329 6.65582 13.3685L4.61331 9.58847C4.61331 9.58846 4.61332 9.58848 4.61331 9.58847C4.58389 9.53402 4.53992 9.48794 4.48563 9.45546C4.43246 9.42366 4.3713 9.40655 4.30858 9.40625H3.5C3.08579 9.40625 2.75 9.07046 2.75 8.65625Z" fill="black"/>
<path fill-rule="evenodd" clip-rule="evenodd" d="M2.75 18.332C2.75 17.9178 3.08579 17.582 3.5 17.582H5.17394C5.58815 17.582 5.92394 17.9178 5.92394 18.332C5.92394 18.7462 5.58815 19.082 5.17394 19.082H3.5C3.08579 19.082 2.75 18.7462 2.75 18.332Z" fill="black"/>
<path fill-rule="evenodd" clip-rule="evenodd" d="M2.75 13.0566C2.75 12.6424 3.08579 12.3066 3.5 12.3066H9.01673C9.74795 12.3066 10.4494 12.5973 10.9664 13.1143C11.4835 13.6313 11.7736 14.332 11.7736 15.0631V16.6205C11.7736 17.3513 11.4837 18.0529 10.9664 18.5702C10.4489 19.0878 9.74711 19.377 9.01673 19.377C8.60251 19.377 8.26673 19.0412 8.26673 18.627C8.26673 18.2128 8.60251 17.877 9.01673 17.877C9.35089 17.877 9.67063 17.7447 9.90579 17.5096C10.1412 17.2741 10.2736 16.9542 10.2736 16.6205V15.0631C10.2736 14.7297 10.1415 14.4106 9.90579 14.1749C9.67004 13.9392 9.35005 13.8066 9.01673 13.8066H3.5C3.08579 13.8066 2.75 13.4709 2.75 13.0566Z" fill="black"/>
<path fill-rule="evenodd" clip-rule="evenodd" d="M12.9292 3.12244C13.2286 3.15055 13.4823 3.35482 13.5736 3.64136L14.4309 6.33063L16.9807 5.92728C17.253 5.88421 17.527 5.99398 17.6942 6.21316C17.8614 6.43233 17.8949 6.72557 17.7814 6.9768L15.9725 10.9817C15.802 11.3592 15.3577 11.527 14.9802 11.3565C14.6027 11.1859 14.4349 10.7417 14.6054 10.3642L15.8422 7.62603L14.0292 7.91284C13.6633 7.97072 13.3099 7.75279 13.1974 7.39984L12.68 5.77667L11.9707 7.08789C11.8754 7.26417 11.7134 7.39496 11.521 7.45107C11.3286 7.50718 11.1218 7.48396 10.9466 7.38658L10.0659 6.89694L10.3852 7.75694C10.5242 8.13115 10.3457 8.54863 9.97915 8.70671L9.38128 8.96456L10.5346 9.69811C10.8841 9.92041 10.9873 10.3839 10.765 10.7335C10.5427 11.083 10.0791 11.1861 9.72962 10.9638L7.38071 9.46984C7.14628 9.32074 7.01348 9.05427 7.03559 8.77732C7.0577 8.50038 7.23108 8.25834 7.4862 8.14832L8.73111 7.61141L7.95307 5.5162C7.84377 5.22187 7.92937 4.89062 8.16758 4.68609C8.40578 4.48156 8.74617 4.44705 9.02058 4.5996L11.0123 5.7069L12.1994 3.51233C12.3425 3.2478 12.6297 3.09432 12.9292 3.12244Z" fill="black"/>
<path fill-rule="evenodd" clip-rule="evenodd" d="M12.4104 8.55732C12.8232 8.52291 13.1857 8.82964 13.2201 9.24242L13.3912 11.2944C13.4256 11.7071 13.1188 12.0697 12.7061 12.1041C12.2933 12.1385 11.9308 11.8318 11.8963 11.419L11.7253 9.36703C11.6909 8.95425 11.9976 8.59173 12.4104 8.55732Z" fill="black"/>
</svg>