<svg width="25" height="25" viewBox="0 0 25 25" fill="none" xmlns="http://www.w3.org/2000/svg">
<path opacity="0.4" fill-rule="evenodd" clip-rule="evenodd" d="M15.2051 4.93473C15.2051 4.73473 15.2151 4.53473 15.2451 4.34473H2.46509V22.5547H20.6751V9.21473C20.3451 9.30473 19.9851 9.34473 19.6251 9.34473C17.1851 9.34473 15.2051 7.36473 15.2051 4.93473Z" fill="black"/>
<path d="M10.0852 13.1947L13.2852 15.7047L16.9552 10.9747L15.7652 10.0547L13.0252 13.5947L9.82522 11.0747L6.10522 15.9147L7.28522 16.8347L10.0852 13.1947Z" fill="black"/>
<path fill-rule="evenodd" clip-rule="evenodd" d="M19.6248 2.51465C18.4948 2.51465 17.5448 3.29465 17.2848 4.34465C17.2348 4.53465 17.2048 4.73465 17.2048 4.93465C17.2048 6.26465 18.2948 7.34465 19.6248 7.34465C19.9948 7.34465 20.3548 7.25465 20.6748 7.10465C21.4748 6.71465 22.0348 5.88465 22.0348 4.93465C22.0348 3.59465 20.9548 2.51465 19.6248 2.51465Z" fill="black"/>
</svg>