<svg width="25" height="25" viewBox="0 0 25 25" fill="none" xmlns="http://www.w3.org/2000/svg">
<path fill-rule="evenodd" clip-rule="evenodd" d="M13.2851 15.7046L10.0851 13.1946L7.28509 16.8346L6.10509 15.9146L9.82509 11.0746L13.0251 13.5946L15.7651 10.0546L16.9551 10.9746L13.2851 15.7046ZM15.2051 4.93464C15.2051 4.73464 15.2151 4.53464 15.2451 4.34464H2.46509V22.5546H20.6751V9.21464C20.3451 9.30464 19.9851 9.34464 19.6251 9.34464C17.1851 9.34464 15.2051 7.36464 15.2051 4.93464Z" fill="black"/>
<path fill-rule="evenodd" clip-rule="evenodd" d="M19.6251 2.51465C18.4951 2.51465 17.5451 3.29465 17.2851 4.34465C17.2351 4.53465 17.2051 4.73465 17.2051 4.93465C17.2051 6.26465 18.2951 7.34465 19.6251 7.34465C19.9951 7.34465 20.3551 7.25465 20.6751 7.10465C21.4751 6.71465 22.0351 5.88465 22.0351 4.93465C22.0351 3.59465 20.9551 2.51465 19.6251 2.51465Z" fill="black"/>
</svg>