<svg width="25" height="25" viewBox="0 0 25 25" fill="none" xmlns="http://www.w3.org/2000/svg">
<path fill-rule="evenodd" clip-rule="evenodd" d="M16.7124 10.2721C17.0398 10.5258 17.0996 10.9969 16.8459 11.3243L13.9169 15.1043C13.7945 15.2622 13.6143 15.3647 13.4161 15.3892C13.2178 15.4137 13.018 15.3582 12.8609 15.2348L10.0426 13.0224L7.51139 16.3113C7.25876 16.6396 6.78786 16.7009 6.45961 16.4483C6.13135 16.1956 6.07004 15.7247 6.32267 15.3965L9.31567 11.5075C9.43775 11.3489 9.61816 11.2456 9.81677 11.2207C10.0154 11.1958 10.2157 11.2514 10.3731 11.375L13.1935 13.5889L15.6602 10.4055C15.9139 10.0781 16.385 10.0183 16.7124 10.2721Z" fill="black"/>
<path fill-rule="evenodd" clip-rule="evenodd" d="M19.6671 4.10001C19.0193 4.10001 18.4951 4.62422 18.4951 5.27201C18.4951 5.91905 19.0196 6.44401 19.6671 6.44401C20.3146 6.44401 20.8391 5.91905 20.8391 5.27201C20.8391 4.62422 20.3149 4.10001 19.6671 4.10001ZM16.9951 5.27201C16.9951 3.79579 18.1909 2.60001 19.6671 2.60001C21.1433 2.60001 22.3391 3.79579 22.3391 5.27201C22.3391 6.74697 21.1436 7.94401 19.6671 7.94401C18.1906 7.94401 16.9951 6.74697 16.9951 5.27201Z" fill="black"/>
<path fill-rule="evenodd" clip-rule="evenodd" d="M5.00342 6.60696C3.78045 7.82994 3.19946 9.87611 3.19946 13.303C3.19946 16.7304 3.78046 18.7766 5.0034 19.9994C6.22635 21.2223 8.2725 21.803 11.6995 21.803C15.127 21.803 17.1731 21.2222 18.3959 19.9994C19.6187 18.7766 20.1995 16.7305 20.1995 13.303C20.1995 12.1973 20.1397 11.2279 20.0136 10.3793C19.9527 9.96954 20.2355 9.58804 20.6452 9.52716C21.0549 9.46627 21.4364 9.74905 21.4973 10.1588C21.6372 11.1002 21.6995 12.1467 21.6995 13.303C21.6995 16.8135 21.1242 19.3924 19.4565 21.0601C17.7889 22.7278 15.21 23.303 11.6995 23.303C8.18943 23.303 5.61058 22.7278 3.94278 21.0601C2.27497 19.3924 1.69946 16.8136 1.69946 13.303C1.69946 9.79291 2.27498 7.21408 3.94276 5.5463C5.61054 3.87853 8.18936 3.30301 11.6995 3.30301C12.8345 3.30301 13.8631 3.36324 14.7902 3.49778C15.2001 3.55727 15.4842 3.9378 15.4247 4.34772C15.3652 4.75764 14.9847 5.04172 14.5747 4.98223C13.7379 4.86078 12.7844 4.80301 11.6995 4.80301C8.27256 4.80301 6.22639 5.38399 5.00342 6.60696Z" fill="black"/>
</svg>