<svg width="24" height="24" viewBox="0 0 24 24" fill="none" xmlns="http://www.w3.org/2000/svg">
<path d="M17.8489 15.109C17.8489 14.8137 17.6095 14.5742 17.3141 14.5742C17.0187 14.5742 16.7793 14.8137 16.7793 15.109C16.7793 15.4044 17.0187 15.6439 17.3141 15.6439C17.6095 15.6439 17.8489 15.4044 17.8489 15.109Z" stroke="black" stroke-width="1.5" stroke-linecap="round" stroke-linejoin="round"/>
<path d="M17.8489 8.5563C17.8489 8.85168 17.6095 9.09112 17.3141 9.09112C17.0187 9.09112 16.7793 8.85168 16.7793 8.5563C16.7793 8.26093 17.0187 8.02148 17.3141 8.02148C17.6095 8.02148 17.8489 8.26093 17.8489 8.5563Z" stroke="black" stroke-width="1.5" stroke-linecap="round" stroke-linejoin="round"/>
<path d="M6.2168 15.1071C6.2168 14.8117 6.45624 14.5723 6.75162 14.5723C7.04699 14.5723 7.28643 14.8117 7.28643 15.1071C7.28643 15.4025 7.04699 15.6419 6.75162 15.6419C6.45624 15.6419 6.2168 15.4025 6.2168 15.1071Z" stroke="black" stroke-width="1.5" stroke-linecap="round" stroke-linejoin="round"/>
<path d="M6.2168 8.5563C6.2168 8.85168 6.45624 9.09112 6.75162 9.09112C7.04699 9.09112 7.28643 8.85168 7.28643 8.5563C7.28643 8.26093 7.04699 8.02148 6.75162 8.02148C6.45624 8.02148 6.2168 8.26093 6.2168 8.5563Z" stroke="black" stroke-width="1.5" stroke-linecap="round" stroke-linejoin="round"/>
<path d="M3.54297 11.8317C3.54297 11.5363 3.78242 11.2969 4.07779 11.2969C4.37316 11.2969 4.61261 11.5363 4.61261 11.8317C4.61261 12.1271 4.37316 12.3665 4.07779 12.3665C3.78242 12.3665 3.54297 12.1271 3.54297 11.8317Z" stroke="black" stroke-width="1.5" stroke-linecap="round" stroke-linejoin="round"/>
<path d="M20.5228 11.8317C20.5228 11.5363 20.2833 11.2969 19.9879 11.2969C19.6926 11.2969 19.4531 11.5363 19.4531 11.8317C19.4531 12.1271 19.6926 12.3665 19.9879 12.3665C20.2833 12.3665 20.5228 12.1271 20.5228 11.8317Z" stroke="black" stroke-width="1.5" stroke-linecap="round" stroke-linejoin="round"/>
<path d="M12.5677 17.6481C12.5677 17.9435 12.3282 18.1829 12.0329 18.1829C11.7375 18.1829 11.498 17.9435 11.498 17.6481C11.498 17.3527 11.7375 17.1133 12.0329 17.1133C12.3282 17.1133 12.5677 17.3527 12.5677 17.6481Z" stroke="black" stroke-width="1.5" stroke-linecap="round" stroke-linejoin="round"/>
<path d="M7.55469 18.3825C7.55469 18.0871 7.79413 17.8477 8.08951 17.8477C8.38488 17.8477 8.62433 18.0871 8.62433 18.3825C8.62433 18.6778 8.38488 18.9173 8.08951 18.9173C7.79413 18.9173 7.55469 18.6778 7.55469 18.3825Z" stroke="black" stroke-width="1.5" stroke-linecap="round" stroke-linejoin="round"/>
<path d="M16.513 18.3825C16.513 18.0871 16.2736 17.8477 15.9782 17.8477C15.6828 17.8477 15.4434 18.0871 15.4434 18.3825C15.4434 18.6778 15.6828 18.9173 15.9782 18.9173C16.2736 18.9173 16.513 18.6778 16.513 18.3825Z" stroke="black" stroke-width="1.5" stroke-linecap="round" stroke-linejoin="round"/>
<path d="M7.55469 5.28091C7.55469 5.57629 7.79413 5.81573 8.08951 5.81573C8.38488 5.81573 8.62433 5.57629 8.62433 5.28091C8.62433 4.98554 8.38488 4.74609 8.08951 4.74609C7.79413 4.74609 7.55469 4.98554 7.55469 5.28091Z" stroke="black" stroke-width="1.5" stroke-linecap="round" stroke-linejoin="round"/>
<path d="M16.513 5.28091C16.513 5.57629 16.2736 5.81573 15.9782 5.81573C15.6828 5.81573 15.4434 5.57629 15.4434 5.28091C15.4434 4.98554 15.6828 4.74609 15.9782 4.74609C16.2736 4.74609 16.513 4.98554 16.513 5.28091Z" stroke="black" stroke-width="1.5" stroke-linecap="round" stroke-linejoin="round"/>
<path d="M12.5677 6.35123C12.5677 6.6466 12.3282 6.88604 12.0329 6.88604C11.7375 6.88604 11.498 6.6466 11.498 6.35123C11.498 6.05585 11.7375 5.81641 12.0329 5.81641C12.3282 5.81641 12.5677 6.05585 12.5677 6.35123Z" stroke="black" stroke-width="1.5" stroke-linecap="round" stroke-linejoin="round"/>
<path d="M10.964 14.774C10.964 15.1432 10.6647 15.4425 10.2955 15.4425C9.92626 15.4425 9.62695 15.1432 9.62695 14.774C9.62695 14.4048 9.92626 14.1055 10.2955 14.1055C10.6647 14.1055 10.964 14.4048 10.964 14.774Z" stroke="black" stroke-width="1.5" stroke-linecap="round" stroke-linejoin="round"/>
<path d="M14.173 14.774C14.173 15.1432 13.8737 15.4425 13.5045 15.4425C13.1352 15.4425 12.8359 15.1432 12.8359 14.774C12.8359 14.4048 13.1352 14.1055 13.5045 14.1055C13.8737 14.1055 14.173 14.4048 14.173 14.774Z" stroke="black" stroke-width="1.5" stroke-linecap="round" stroke-linejoin="round"/>
<path d="M9.42689 11.9654C9.42689 12.3346 9.12758 12.6339 8.75837 12.6339C8.38915 12.6339 8.08984 12.3346 8.08984 11.9654C8.08984 11.5962 8.38915 11.2969 8.75837 11.2969C9.12758 11.2969 9.42689 11.5962 9.42689 11.9654Z" stroke="black" stroke-width="1.5" stroke-linecap="round" stroke-linejoin="round"/>
<path d="M15.7785 11.9654C15.7785 12.3346 15.4791 12.6339 15.1099 12.6339C14.7407 12.6339 14.4414 12.3346 14.4414 11.9654C14.4414 11.5962 14.7407 11.2969 15.1099 11.2969C15.4791 11.2969 15.7785 11.5962 15.7785 11.9654Z" stroke="black" stroke-width="1.5" stroke-linecap="round" stroke-linejoin="round"/>
<path d="M10.964 9.22516C10.964 9.59438 10.6647 9.89369 10.2955 9.89369C9.92626 9.89369 9.62695 9.59438 9.62695 9.22516C9.62695 8.85595 9.92626 8.55664 10.2955 8.55664C10.6647 8.55664 10.964 8.85595 10.964 9.22516Z" stroke="black" stroke-width="1.5" stroke-linecap="round" stroke-linejoin="round"/>
<path d="M14.173 9.22516C14.173 9.59438 13.8737 9.89369 13.5045 9.89369C13.1352 9.89369 12.8359 9.59438 12.8359 9.22516C12.8359 8.85595 13.1352 8.55664 13.5045 8.55664C13.8737 8.55664 14.173 8.85595 14.173 9.22516Z" stroke="black" stroke-width="1.5" stroke-linecap="round" stroke-linejoin="round"/>
<path d="M11.9135 20.9888V21M11.9135 3V3.01124M4.12902 16.4943L4.11929 16.4999M19.7078 7.49993L19.698 7.50556M19.6979 16.4943L19.7076 16.4999M4.11914 7.49993L4.12888 7.50556" stroke="black" stroke-width="1.5" stroke-linecap="round" stroke-linejoin="round"/>
</svg>