<svg width="25" height="24" viewBox="0 0 25 24" fill="none" xmlns="http://www.w3.org/2000/svg">
<path d="M19.293 8.6687V12.6787" stroke="black" stroke-width="1.5" stroke-linecap="square" stroke-linejoin="round"/>
<path d="M21.338 10.6736H17.248" stroke="black" stroke-width="1.5" stroke-linecap="square" stroke-linejoin="round"/>
<path d="M10.2051 21.2496C7.62811 21.2566 5.21311 20.7746 3.16211 19.5236C4.18111 16.3016 6.94511 14.8106 10.2051 14.8186C13.4611 14.8106 16.2301 16.3056 17.2481 19.5236C16.0981 20.2256 14.8321 20.6856 13.4891 20.9526" stroke="black" stroke-width="1.5" stroke-linecap="square"/>
<path d="M10.17 2.75024C12.611 2.75024 14.59 4.72924 14.59 7.17024C14.59 9.61124 12.611 11.5892 10.17 11.5892C7.729 11.5892 5.75 9.61124 5.75 7.17024C5.75 6.31824 5.991 5.52324 6.408 4.84824" stroke="black" stroke-width="1.5" stroke-linecap="square"/>
</svg>