<svg width="25" height="24" viewBox="0 0 25 24" fill="none" xmlns="http://www.w3.org/2000/svg">
<path fill-rule="evenodd" clip-rule="evenodd" d="M10.1272 12.1087C12.8502 12.1087 15.0652 9.89369 15.0652 7.17069C15.0652 4.44669 12.8502 2.23169 10.1272 2.23169C7.40421 2.23169 5.18921 4.44669 5.18921 7.17069C5.18921 9.89369 7.40421 12.1087 10.1272 12.1087Z" fill="black"/>
<path fill-rule="evenodd" clip-rule="evenodd" d="M22.0102 9.94177H19.9652V7.93677H18.4652V9.94177H16.4202V11.4418H18.4652V13.4468H19.9652V11.4418H22.0102V9.94177Z" fill="black"/>
<path opacity="0.4" fill-rule="evenodd" clip-rule="evenodd" d="M10.154 14.3367H10.101C6.35399 14.3367 3.62399 16.1777 2.60799 19.3907L2.48999 19.7647L2.82399 19.9687C4.78199 21.1627 7.22299 21.7677 10.081 21.7677C10.112 21.7687 10.143 21.7687 10.175 21.7677C13.072 21.7677 15.446 21.1787 17.431 19.9687L17.765 19.7647L17.647 19.3907C16.632 16.1777 13.901 14.3367 10.154 14.3367Z" fill="black"/>
</svg>