<svg width="25" height="24" viewBox="0 0 25 24" fill="none" xmlns="http://www.w3.org/2000/svg">
<path d="M19.2929 8.66882V12.6788M21.338 10.6737H17.248" stroke="black" stroke-width="1.5" stroke-linecap="square" stroke-linejoin="round"/>
<path d="M10.2049 14.8188C13.4613 14.8104 16.2301 16.3056 17.2478 19.5241C15.1964 20.7746 12.7818 21.2563 10.2049 21.25C7.62803 21.2563 5.21338 20.7746 3.16202 19.5241C4.18092 16.3021 6.94505 14.8104 10.2049 14.8188Z" stroke="black" stroke-width="1.5" stroke-linecap="square"/>
<path d="M14.5894 7.16961C14.5894 9.61056 12.6106 11.5893 10.1696 11.5893C7.72869 11.5893 5.74991 9.61056 5.74991 7.16961C5.74991 4.72866 7.72869 2.74988 10.1696 2.74988C12.6106 2.74988 14.5894 4.72866 14.5894 7.16961Z" stroke="black" stroke-width="1.5" stroke-linecap="square"/>
</svg>