<svg width="25" height="24" viewBox="0 0 25 24" fill="none" xmlns="http://www.w3.org/2000/svg">
<path fill-rule="evenodd" clip-rule="evenodd" d="M10.0005 11.7365H10.0325C12.8085 11.7365 15.0655 9.47851 15.0655 6.70351C15.0655 3.92851 12.8085 1.67151 10.0325 1.67151C7.25754 1.67151 4.99955 3.92851 4.99955 6.70151C4.98955 9.46751 7.23154 11.7265 10.0005 11.7365Z" fill="black"/>
<path fill-rule="evenodd" clip-rule="evenodd" d="M21.2887 9.40448H19.9917V8.14948C19.9917 7.73548 19.6557 7.39948 19.2417 7.39948C18.8277 7.39948 18.4917 7.73548 18.4917 8.14948V9.40448H17.1987C16.7847 9.40448 16.4487 9.74048 16.4487 10.1545C16.4487 10.5685 16.7847 10.9045 17.1987 10.9045H18.4917V12.1595C18.4917 12.5735 18.8277 12.9095 19.2417 12.9095C19.6557 12.9095 19.9917 12.5735 19.9917 12.1595V10.9045H21.2887C21.7027 10.9045 22.0387 10.5685 22.0387 10.1545C22.0387 9.74048 21.7027 9.40448 21.2887 9.40448Z" fill="black"/>
<path opacity="0.4" fill-rule="evenodd" clip-rule="evenodd" d="M10.0334 14.0304C5.92943 14.0304 2.46143 16.2794 2.46143 18.9414C2.46143 21.9774 6.78243 22.3284 10.0334 22.3284C11.9064 22.3284 17.6054 22.3284 17.6054 18.9214C17.6054 16.2694 14.1374 14.0304 10.0334 14.0304Z" fill="black"/>
</svg>