<svg width="24" height="25" viewBox="0 0 24 25" fill="none" xmlns="http://www.w3.org/2000/svg">
<path d="M13.5733 21.7786C13.0625 21.8691 12.5361 21.9158 12 21.9158C7.0291 21.9158 3 17.8867 3 12.9158C3 9.23714 5.2074 6.07341 8.37024 4.67773" stroke="black" stroke-width="1.5" stroke-linecap="round" stroke-linejoin="round"/>
<path d="M12 3.91602C16.9699 3.91602 21 7.94612 21 12.916C21 13.7489 20.8871 14.5545 20.675 15.3193" stroke="black" stroke-width="1.5" stroke-linecap="round" stroke-linejoin="round"/>
<path d="M17.9551 17.4922V21.1372" stroke="black" stroke-width="1.5" stroke-linecap="round" stroke-linejoin="round"/>
<path d="M19.7789 19.3164H16.1309" stroke="black" stroke-width="1.5" stroke-linecap="round" stroke-linejoin="round"/>
<path d="M9.32188 15.8772C9.30388 15.9912 9.32288 16.1072 9.37688 16.2092C9.51388 16.4682 9.83489 16.5662 10.0929 16.4292L11.6689 15.6122C11.8239 15.5322 12.0089 15.5322 12.1639 15.6122L13.7389 16.4282C13.8409 16.4822 13.9569 16.5022 14.0709 16.4832C14.3599 16.4372 14.5559 16.1652 14.5099 15.8762L14.2079 14.1462C14.1779 13.9762 14.2359 13.8022 14.3609 13.6832L15.6359 12.4572C15.7209 12.3752 15.7759 12.2672 15.7909 12.1502C15.8289 11.8642 15.6279 11.6022 15.3419 11.5642L13.5789 11.3102C13.4069 11.2862 13.2569 11.1792 13.1789 11.0242L12.3909 9.44919C12.3399 9.35119 12.2599 9.27119 12.1619 9.22019C11.8999 9.08419 11.5779 9.18719 11.4419 9.44919L10.6519 11.0242C10.5739 11.1792 10.4249 11.2862 10.2529 11.3112L8.48888 11.5642C8.37188 11.5802 8.26288 11.6352 8.18088 11.7202C7.98088 11.9282 7.98788 12.2582 8.19488 12.4582L9.47188 13.6832" stroke="black" stroke-width="1.5" stroke-linecap="round" stroke-linejoin="round"/>
</svg>