<svg width="24" height="24" viewBox="0 0 24 24" fill="none" xmlns="http://www.w3.org/2000/svg">
<path d="M9.87651 21.0452C13.7215 21.0452 17.0035 20.4632 17.0035 18.1362C17.0035 15.8092 13.7415 15.2062 9.87651 15.2062C6.03251 15.2062 2.74951 15.7872 2.74951 18.1152C2.74951 19.7129 4.28649 20.4977 6.49988 20.8328" stroke="black" stroke-width="1.5" stroke-linecap="round" stroke-linejoin="round"/>
<path fill-rule="evenodd" clip-rule="evenodd" d="M9.8766 11.8859C12.3996 11.8859 14.4446 9.84089 14.4446 7.31789C14.4446 4.79489 12.3996 2.74989 9.8766 2.74989C7.3546 2.74989 5.3096 4.79489 5.3096 7.31789C5.3006 9.83189 7.3306 11.8769 9.8456 11.8859H9.8766Z" stroke="black" stroke-width="1.5" stroke-linecap="round" stroke-linejoin="round"/>
<path d="M19.2036 8.6691V12.6791" stroke="black" stroke-width="1.5" stroke-linecap="round" stroke-linejoin="round"/>
<path d="M21.2497 10.674H17.1597" stroke="black" stroke-width="1.5" stroke-linecap="round" stroke-linejoin="round"/>
</svg>