<svg width="25" height="24" viewBox="0 0 25 24" fill="none" xmlns="http://www.w3.org/2000/svg">
<path opacity="0.4" d="M17.8882 18.102C17.1701 18.82 16.4492 19.5342 15.7282 20.2493C14.5032 21.4568 12.6332 21.4383 11.4073 20.2221C9.32806 18.1429 7.24009 16.0734 5.1706 13.9854C4.3718 13.1769 3.89991 12.2059 3.79094 11.0626C3.70921 10.1549 3.75494 6.76797 3.75494 5.9789C3.7637 4.56227 4.83493 3.28283 6.23307 3.03764C6.52301 2.99191 9.88167 3.00067 11.2798 3.00067C12.6507 3.00067 13.8309 3.49104 14.8019 4.46303C15.0179 4.67806 16.0181 5.69091 16.2332 5.90593" stroke="black" stroke-width="1.5" stroke-linecap="round" stroke-linejoin="round"/>
<path fill-rule="evenodd" clip-rule="evenodd" d="M10.7117 8.35431C10.7078 9.23192 9.97418 9.95385 9.08782 9.95191C8.20631 9.94996 7.47367 9.21538 7.47854 8.33971C7.4834 7.42707 8.20729 6.71584 9.12576 6.71876C9.99753 6.72168 10.7156 7.4621 10.7117 8.35431Z" stroke="black" stroke-width="1.5" stroke-linecap="round" stroke-linejoin="round"/>
<path d="M16.7461 11.4904H21.7422" stroke="black" stroke-width="1.5" stroke-linecap="round" stroke-linejoin="round"/>
<path d="M19.2433 8.98828V13.9844" stroke="black" stroke-width="1.5" stroke-linecap="round" stroke-linejoin="round"/>
</svg>