<svg width="24" height="24" viewBox="0 0 24 24" fill="none" xmlns="http://www.w3.org/2000/svg">
<path fill-rule="evenodd" clip-rule="evenodd" d="M9.92234 21.8084C6.10834 21.8084 2.85034 21.2314 2.85034 18.9214C2.85034 16.6114 6.08734 14.5104 9.92234 14.5104C13.7363 14.5104 16.9943 16.5914 16.9943 18.9004C16.9943 21.2094 13.7573 21.8084 9.92234 21.8084Z" stroke="black" stroke-width="1.5" stroke-linecap="round" stroke-linejoin="round"/>
<path fill-rule="evenodd" clip-rule="evenodd" d="M9.92243 11.216C12.4254 11.216 14.4554 9.18602 14.4554 6.68302C14.4554 4.17902 12.4254 2.15002 9.92243 2.15002C7.41943 2.15002 5.38943 4.17902 5.38943 6.68302C5.38043 9.17702 7.39643 11.207 9.89043 11.216H9.92243Z" stroke="black" stroke-width="1.5" stroke-linecap="round" stroke-linejoin="round"/>
<path d="M19.1313 8.12915V12.1392" stroke="black" stroke-width="1.5" stroke-linecap="round" stroke-linejoin="round"/>
<path d="M21.1776 10.1339H17.0876" stroke="black" stroke-width="1.5" stroke-linecap="round" stroke-linejoin="round"/>
</svg>