<svg width="25" height="24" viewBox="0 0 25 24" fill="none" xmlns="http://www.w3.org/2000/svg">
<path fill-rule="evenodd" clip-rule="evenodd" d="M13.749 7.99553C13.749 10.2017 11.9605 11.9911 9.75345 11.9911C7.54726 11.9911 5.75879 10.2017 5.75879 7.99553C5.75879 5.78934 7.54726 4 9.75345 4C11.9605 4 13.749 5.78934 13.749 7.99553Z" stroke="black" stroke-width="1.5" stroke-linecap="round" stroke-linejoin="round"/>
<path fill-rule="evenodd" clip-rule="evenodd" d="M9.7535 14.875C6.37805 14.875 3.49902 15.3853 3.49902 17.428C3.49902 19.4707 6.36162 19.9991 9.7535 19.9991C13.1272 19.9991 16.008 19.4872 16.008 17.4461C16.008 15.4034 13.1462 14.875 9.7535 14.875Z" stroke="black" stroke-width="1.5" stroke-linecap="round" stroke-linejoin="round"/>
<path d="M18.5472 8.56641V12.9857M20.8015 10.7758H16.2939" stroke="black" stroke-width="1.5" stroke-linecap="round" stroke-linejoin="round"/>
</svg>