<svg width="25" height="24" viewBox="0 0 25 24" fill="none" xmlns="http://www.w3.org/2000/svg">
<path fill-rule="evenodd" clip-rule="evenodd" d="M12.2266 3.75C7.66986 3.75 3.97656 7.44329 3.97656 12C3.97656 16.5567 7.66986 20.25 12.2266 20.25C12.7191 20.25 13.2017 20.2071 13.669 20.1243C14.0769 20.0521 14.4661 20.3241 14.5384 20.732C14.6106 21.1399 14.3385 21.5291 13.9307 21.6013C13.3764 21.6995 12.8062 21.75 12.2266 21.75C6.84143 21.75 2.47656 17.3851 2.47656 12C2.47656 6.61487 6.84143 2.25 12.2266 2.25C17.6107 2.25 21.9766 6.61481 21.9766 12C21.9766 12.9009 21.8544 13.774 21.6243 14.6037C21.5136 15.0028 21.1003 15.2367 20.7011 15.126C20.302 15.0153 20.0682 14.6019 20.1789 14.2028C20.373 13.503 20.4766 12.7648 20.4766 12C20.4766 7.44335 16.7823 3.75 12.2266 3.75Z" fill="black"/>
<path fill-rule="evenodd" clip-rule="evenodd" d="M10.3837 9.67632C9.54775 9.94649 9.13533 10.8991 9.45681 11.906C9.71777 12.7157 10.4445 13.4973 11.2047 14.1151C11.5719 14.4136 11.9214 14.6535 12.1791 14.8186C12.1947 14.8286 12.21 14.8384 12.225 14.8478C12.2411 14.8376 12.2577 14.827 12.2747 14.816C12.5344 14.649 12.8864 14.4067 13.2552 14.1066C14.0208 13.4838 14.744 12.7038 14.9937 11.91L14.9949 11.9062C15.3166 10.9022 14.9036 9.94836 14.0668 9.67685C13.5921 9.52847 13.0742 9.61622 12.6726 9.91398C12.4062 10.1115 12.0416 10.1106 11.7762 9.91174C11.3769 9.61259 10.8583 9.52498 10.3837 9.67632ZM12.2259 15.7224C11.8671 16.381 11.8669 16.3809 11.8668 16.3809L11.8654 16.3801L11.8626 16.3786L11.8541 16.3739L11.8253 16.3577C11.801 16.344 11.7667 16.3244 11.7237 16.2992C11.6377 16.2487 11.5164 16.1755 11.3698 16.0815C11.0774 15.8942 10.6798 15.6215 10.2586 15.2792C9.44238 14.6158 8.42766 13.6041 8.02873 12.3649L8.02826 12.3634C7.533 10.814 8.07561 8.84453 9.92426 8.24841L9.92614 8.2478C10.6946 8.00222 11.521 8.07419 12.2277 8.43276C12.9321 8.0784 13.7535 8.00589 14.5194 8.24676L14.5246 8.24839C16.3708 8.8437 16.9201 10.8104 16.424 12.362C16.036 13.5931 15.0182 14.6061 14.2018 15.2702C13.7795 15.6137 13.3801 15.8885 13.0863 16.0775C12.939 16.1723 12.817 16.2463 12.7306 16.2973C12.6874 16.3228 12.6529 16.3426 12.6285 16.3565L12.5996 16.3728L12.5911 16.3775L12.5884 16.379L12.5874 16.3796C12.5872 16.3796 12.5867 16.3799 12.2259 15.7224ZM12.2259 15.7224L12.5874 16.3796C12.3634 16.5025 12.0911 16.5031 11.8668 16.3809L12.2259 15.7224Z" fill="black"/>
<path fill-rule="evenodd" clip-rule="evenodd" d="M18.1011 15.792C18.5153 15.792 18.8511 16.1278 18.8511 16.542V17.566H19.8756C20.2898 17.566 20.6256 17.9017 20.6256 18.316C20.6256 18.7302 20.2898 19.066 19.8756 19.066H18.8511V20.0885C18.8511 20.5027 18.5153 20.8385 18.1011 20.8385C17.6869 20.8385 17.3511 20.5027 17.3511 20.0885V19.066H16.3262C15.912 19.066 15.5762 18.7302 15.5762 18.316C15.5762 17.9017 15.912 17.566 16.3262 17.566H17.3511V16.542C17.3511 16.1278 17.6869 15.792 18.1011 15.792Z" fill="black"/>
</svg>