<svg width="25" height="24" viewBox="0 0 25 24" fill="none" xmlns="http://www.w3.org/2000/svg">
<path fill-rule="evenodd" clip-rule="evenodd" d="M22.0103 9.94162H19.9653V7.93661H18.4653V9.94162H16.4203V11.4416H18.4653V13.4466H19.9653V11.4416H22.0103V9.94162Z" fill="black"/>
<path fill-rule="evenodd" clip-rule="evenodd" d="M10.1537 14.3366H10.1007C6.35375 14.3366 3.62375 16.1776 2.60775 19.3906L2.48975 19.7646L2.82375 19.9686C4.78175 21.1626 7.22275 21.7676 10.0807 21.7676C10.1117 21.7686 10.1427 21.7686 10.1747 21.7676C13.0717 21.7676 15.4457 21.1786 17.4307 19.9686L17.7647 19.7646L17.6467 19.3906C16.6317 16.1776 13.9007 14.3366 10.1537 14.3366Z" fill="black"/>
<path fill-rule="evenodd" clip-rule="evenodd" d="M10.1275 12.1086C12.8505 12.1086 15.0655 9.89363 15.0655 7.17063C15.0655 4.44663 12.8505 2.23163 10.1275 2.23163C7.40445 2.23163 5.18945 4.44663 5.18945 7.17063C5.18945 9.89363 7.40445 12.1086 10.1275 12.1086Z" fill="black"/>
</svg>