<svg width="24" height="24" viewBox="0 0 24 24" fill="none" xmlns="http://www.w3.org/2000/svg">
<path fill-rule="evenodd" clip-rule="evenodd" d="M2.25 12.001C2.25 6.616 6.61471 2.25 11.999 2.25C17.3791 2.25 21.75 6.51936 21.75 12C21.75 13.2239 21.4664 14.3002 20.8709 15.0899C20.2579 15.9028 19.3587 16.349 18.3 16.349C16.3942 16.349 14.85 14.8048 14.85 12.899V8.6413C14.85 8.22708 15.1858 7.8913 15.6 7.8913C16.0142 7.8913 16.35 8.22708 16.35 8.6413V12.899C16.35 13.9764 17.2226 14.849 18.3 14.849C18.9002 14.849 19.351 14.6141 19.6733 14.1868C20.0131 13.7362 20.25 13.013 20.25 12C20.25 7.35783 16.5608 3.75 11.999 3.75C7.44345 3.75 3.75 7.44411 3.75 12.001C3.75 12.4152 3.41421 12.751 3 12.751C2.58579 12.751 2.25 12.4152 2.25 12.001ZM17.6934 19.0105C17.927 19.3526 17.8391 19.8192 17.497 20.0529C15.881 21.1566 13.9657 21.75 12.001 21.75C11.1998 21.75 10.4203 21.6532 9.67374 21.4704C9.27142 21.3719 9.02514 20.9659 9.12368 20.5635C9.22221 20.1612 9.62823 19.9149 10.0306 20.0135C10.6612 20.1679 11.321 20.25 12.001 20.25C13.6635 20.25 15.284 19.7478 16.6511 18.8142C16.9931 18.5806 17.4598 18.6685 17.6934 19.0105Z" fill="black"/>
<path fill-rule="evenodd" clip-rule="evenodd" d="M12.0004 9.14941C10.4268 9.14941 9.15039 10.4258 9.15039 11.9994C9.15039 13.5738 10.4267 14.8494 12.0004 14.8494C13.5741 14.8494 14.8504 13.5738 14.8504 11.9994C14.8504 10.4258 13.574 9.14941 12.0004 9.14941ZM7.65039 11.9994C7.65039 9.59742 9.59839 7.64941 12.0004 7.64941C14.4024 7.64941 16.3504 9.59742 16.3504 11.9994C16.3504 14.4025 14.4023 16.3494 12.0004 16.3494C9.59853 16.3494 7.65039 14.4025 7.65039 11.9994Z" fill="black"/>
<path fill-rule="evenodd" clip-rule="evenodd" d="M5.5094 14.2939C5.92361 14.2939 6.2594 14.6297 6.2594 15.0439V16.8038H8.01957C8.43378 16.8038 8.76957 17.1396 8.76957 17.5538C8.76957 17.968 8.43378 18.3038 8.01957 18.3038H6.2594V20.0635C6.2594 20.4777 5.92361 20.8135 5.5094 20.8135C5.09518 20.8135 4.7594 20.4777 4.7594 20.0635V18.3038H3C2.58579 18.3038 2.25 17.968 2.25 17.5538C2.25 17.1396 2.58579 16.8038 3 16.8038H4.7594V15.0439C4.7594 14.6297 5.09518 14.2939 5.5094 14.2939Z" fill="black"/>
</svg>