<svg width="25" height="24" viewBox="0 0 25 24" fill="none" xmlns="http://www.w3.org/2000/svg">
<path fill-rule="evenodd" clip-rule="evenodd" d="M9.87628 11.9863H9.90828C12.8213 11.9863 15.1913 9.61633 15.1913 6.70333C15.1913 3.79033 12.8213 1.42133 9.90828 1.42133C6.99528 1.42133 4.62528 3.79033 4.62528 6.70033C4.61528 9.60533 6.96928 11.9773 9.87628 11.9863ZM6.12528 6.70333C6.12528 4.61733 7.82228 2.92133 9.90828 2.92133C11.9943 2.92133 13.6913 4.61733 13.6913 6.70333C13.6913 8.78933 11.9943 10.4863 9.90828 10.4863H9.87928C7.80228 10.4803 6.11828 8.78333 6.12528 6.70333Z" fill="black"/>
<path fill-rule="evenodd" clip-rule="evenodd" d="M2.08667 18.9417C2.08667 22.2017 6.55067 22.5787 9.90867 22.5787C11.8437 22.5787 17.7307 22.5787 17.7307 18.9217C17.7307 16.1347 14.1487 13.7807 9.90867 13.7807C5.66867 13.7807 2.08667 16.1437 2.08667 18.9417ZM3.58667 18.9417C3.58667 17.2137 6.29067 15.2807 9.90867 15.2807C13.5267 15.2807 16.2307 17.2027 16.2307 18.9217C16.2307 20.3527 14.1037 21.0787 9.90867 21.0787C5.71367 21.0787 3.58667 20.3597 3.58667 18.9417Z" fill="black"/>
<path d="M19.1165 12.9096C18.7025 12.9096 18.3665 12.5736 18.3665 12.1596V10.9047H17.0735C16.6595 10.9047 16.3235 10.5687 16.3235 10.1547C16.3235 9.74072 16.6595 9.40472 17.0735 9.40472H18.3665V8.1496C18.3665 7.7356 18.7025 7.3996 19.1165 7.3996C19.5305 7.3996 19.8665 7.7356 19.8665 8.1496V9.40472H21.1635C21.5775 9.40472 21.9135 9.74072 21.9135 10.1547C21.9135 10.5687 21.5775 10.9047 21.1635 10.9047H19.8665V12.1596C19.8665 12.5736 19.5305 12.9096 19.1165 12.9096Z" fill="black"/>
</svg>