<svg width="25" height="24" viewBox="0 0 25 24" fill="none" xmlns="http://www.w3.org/2000/svg">
<path d="M15.942 21.4413H7.84201C4.64201 21.4413 2.5 19.1993 2.5 15.8633V8.2313C2.5 4.8953 4.64601 2.6543 7.84201 2.6543H13.142C13.3409 2.6543 13.5317 2.73332 13.6723 2.87397C13.813 3.01462 13.892 3.20538 13.892 3.4043C13.892 3.60321 13.813 3.79397 13.6723 3.93462C13.5317 4.07528 13.3409 4.1543 13.142 4.1543H7.84201C5.50801 4.1543 4 5.7543 4 8.2313V15.8633C4 18.3403 5.50801 19.9413 7.84201 19.9413H15.942C18.277 19.9413 19.786 18.3413 19.786 15.8633V11.0343C19.786 10.8354 19.865 10.6446 20.0057 10.504C20.1463 10.3633 20.3371 10.2843 20.536 10.2843C20.7349 10.2843 20.9257 10.3633 21.0663 10.504C21.207 10.6446 21.286 10.8354 21.286 11.0343V15.8633C21.286 19.1993 19.139 21.4413 15.942 21.4413Z" fill="black"/>
<path d="M10.6436 16.8011C10.2439 16.8014 9.84884 16.7169 9.48429 16.5532C9.11974 16.3896 8.79405 16.1504 8.52875 15.8515C8.26346 15.5527 8.06457 15.201 7.94526 14.8196C7.82594 14.4382 7.78891 14.0359 7.83658 13.6391C7.92609 12.8954 8.30734 12.2178 8.89649 11.7552C9.48563 11.2927 10.2344 11.0831 10.9781 11.1726C11.7217 11.2621 12.3994 11.6434 12.8619 12.2325C13.3245 12.8217 13.5341 13.5704 13.4446 14.3141C13.3616 14.999 13.031 15.63 12.5151 16.0881C11.9992 16.5461 11.3335 16.7997 10.6436 16.8011V16.8011ZM10.6436 12.6531C10.3202 12.6539 10.0082 12.7729 9.76639 12.9876C9.52458 13.2023 9.36959 13.4981 9.33057 13.8191C9.2888 14.1674 9.38696 14.5181 9.60352 14.7941C9.82008 15.07 10.1373 15.2488 10.4856 15.2911C10.6605 15.317 10.8389 15.3075 11.0101 15.2633C11.1814 15.2191 11.342 15.1411 11.4826 15.0338C11.6232 14.9265 11.7409 14.7921 11.8286 14.6386C11.9164 14.485 11.9726 14.3155 11.9937 14.1399C12.0149 13.9643 12.0007 13.7863 11.9519 13.6163C11.9032 13.4463 11.8208 13.2878 11.7098 13.1501C11.5988 13.0124 11.4613 12.8984 11.3055 12.8148C11.1497 12.7311 10.9786 12.6796 10.8026 12.6631C10.7486 12.6551 10.6941 12.6507 10.6396 12.6501L10.6436 12.6531Z" fill="black"/>
<path d="M18.9141 8.73059C18.7152 8.73059 18.5244 8.65158 18.3838 8.51093C18.2431 8.37027 18.1641 8.1795 18.1641 7.98059V6.39359H16.5781C16.3792 6.39359 16.1884 6.31458 16.0478 6.17393C15.9071 6.03328 15.8281 5.84251 15.8281 5.64359C15.8281 5.44468 15.9071 5.25392 16.0478 5.11327C16.1884 4.97261 16.3792 4.89359 16.5781 4.89359H18.1641V3.30859C18.1641 3.10968 18.2431 2.91892 18.3838 2.77827C18.5244 2.63761 18.7152 2.55859 18.9141 2.55859C19.113 2.55859 19.3038 2.63761 19.4445 2.77827C19.5851 2.91892 19.6641 3.10968 19.6641 3.30859V4.89359H21.2501C21.449 4.89359 21.6398 4.97261 21.7805 5.11327C21.9211 5.25392 22.0001 5.44468 22.0001 5.64359C22.0001 5.84251 21.9211 6.03328 21.7805 6.17393C21.6398 6.31458 21.449 6.39359 21.2501 6.39359H19.6641V7.98059C19.6641 8.1795 19.5851 8.37027 19.4445 8.51093C19.3038 8.65158 19.113 8.73059 18.9141 8.73059Z" fill="black"/>
<path d="M12.6997 14.9747C12.6697 14.9747 12.6397 14.9747 12.6087 14.9747C12.4112 14.9507 12.2314 14.8493 12.1088 14.6927C11.9861 14.5361 11.9307 14.3372 11.9547 14.1397L12.6997 7.95975C12.7205 7.78573 12.8016 7.6245 12.9289 7.50404C13.0562 7.38359 13.2217 7.31152 13.3966 7.30035C13.5715 7.28918 13.7448 7.33962 13.8864 7.4429C14.028 7.54618 14.1289 7.69579 14.1717 7.86574C14.2646 8.17866 14.4279 8.46616 14.6491 8.70622C14.8702 8.94629 15.1434 9.13255 15.4477 9.25075C15.5412 9.2818 15.6277 9.33097 15.7022 9.39545C15.7767 9.45992 15.8377 9.53844 15.8819 9.62652C15.926 9.71459 15.9524 9.81051 15.9595 9.90877C15.9666 10.007 15.9543 10.1057 15.9232 10.1992C15.8921 10.2927 15.843 10.3792 15.7785 10.4537C15.714 10.5282 15.6355 10.5893 15.5474 10.6334C15.4594 10.6776 15.3635 10.704 15.2652 10.7111C15.1669 10.7181 15.0682 10.7058 14.9747 10.6747C14.6009 10.551 14.2526 10.3606 13.9467 10.1127L13.4397 14.3127C13.4184 14.4944 13.3315 14.662 13.1951 14.784C13.0588 14.9059 12.8826 14.9738 12.6997 14.9747Z" fill="black"/>
</svg>