<svg width="24" height="24" viewBox="0 0 24 24" fill="none" xmlns="http://www.w3.org/2000/svg">
<path d="M20.9995 18.1575C20.9995 16.8494 19.9392 15.7891 18.6311 15.7891V15.7891C17.3231 15.7891 16.2627 16.8494 16.2627 18.1575" stroke="black" stroke-width="1.5" stroke-linecap="round" stroke-linejoin="round"/>
<path d="M11.5264 8.2095H12.4737C14.5666 8.2095 16.2632 9.9061 16.2632 11.999V18.1569C16.2632 19.4649 17.3236 20.5253 18.6316 20.5253V20.5253C19.9397 20.5253 21.0001 19.4649 21.0001 18.1569V11.999C21.0001 7.29002 17.1827 3.47266 12.4737 3.47266H11.5264" stroke="black" stroke-width="1.5" stroke-linecap="round" stroke-linejoin="round"/>
<path fill-rule="evenodd" clip-rule="evenodd" d="M11.5263 8.2095V8.2095C9.43345 8.2095 7.73684 9.9061 7.73684 11.999V11.999C7.73684 14.0918 9.43345 15.7884 11.5263 15.7884V15.7884C12.8344 15.7884 13.8947 16.8488 13.8947 18.1569C13.8947 19.4649 12.8344 20.5253 11.5263 20.5253V20.5253C6.81736 20.5253 3 16.7079 3 11.999V11.999C3 7.29002 6.81736 3.47266 11.5263 3.47266V3.47266C12.8344 3.47266 13.8947 4.53303 13.8947 5.84108C13.8947 7.14912 12.8344 8.2095 11.5263 8.2095Z" stroke="black" stroke-width="1.5" stroke-linecap="round" stroke-linejoin="round"/>
</svg>