<svg width="24" height="24" viewBox="0 0 24 24" fill="none" xmlns="http://www.w3.org/2000/svg">
<path fill-rule="evenodd" clip-rule="evenodd" d="M3.7402 3.89737C4.72468 2.84117 6.12669 2.25 7.78216 2.25H16.2169C17.8762 2.25 19.2788 2.84084 20.2629 3.89765C21.2413 4.94841 21.75 6.39889 21.75 8.02638V15.9736C21.75 17.6011 21.2413 19.0516 20.2627 20.1024C19.2785 21.1592 17.8756 21.75 16.2159 21.75H7.78216C6.1228 21.75 4.72038 21.1591 3.73657 20.1023C2.75842 19.0515 2.25 17.601 2.25 15.9736V8.02638C2.25 6.39806 2.76117 4.94771 3.7402 3.89737ZM4.83745 4.92012C4.16024 5.64666 3.75 6.70951 3.75 8.02638V15.9736C3.75 17.2914 4.15861 18.3541 4.83451 19.0802C5.50475 19.8003 6.49341 20.25 7.78216 20.25H16.2159C17.5052 20.25 18.4944 19.8002 19.165 19.0801C19.8412 18.354 20.25 17.2913 20.25 15.9736V8.02638C20.25 6.70868 19.8412 5.64597 19.1651 4.91984C18.4946 4.19975 17.5056 3.75 16.2169 3.75H7.78216C6.49828 3.75 5.50921 4.19943 4.83745 4.92012Z" fill="black"/>
<path fill-rule="evenodd" clip-rule="evenodd" d="M13.9346 9.98438C14.3488 9.98438 14.6846 10.3202 14.6846 10.7344V15.2882C14.6846 15.7024 14.3488 16.0382 13.9346 16.0382C13.5204 16.0382 13.1846 15.7024 13.1846 15.2882V10.7344C13.1846 10.3202 13.5204 9.98438 13.9346 9.98438Z" fill="black"/>
<path fill-rule="evenodd" clip-rule="evenodd" d="M13.1846 13.6123C13.1846 11.7696 14.3926 10.0469 16.3002 10.0469C16.7144 10.0469 17.0502 10.3827 17.0502 10.7969C17.0502 11.2111 16.7144 11.5469 16.3002 11.5469C15.4737 11.5469 14.6846 12.3204 14.6846 13.6123C14.6846 14.0265 14.3488 14.3623 13.9346 14.3623C13.5204 14.3623 13.1846 14.0265 13.1846 13.6123Z" fill="black"/>
<path fill-rule="evenodd" clip-rule="evenodd" d="M6.94922 8.71094C6.94922 8.29672 7.28501 7.96094 7.69922 7.96094H11.0981C11.5123 7.96094 11.8481 8.29672 11.8481 8.71094C11.8481 9.12515 11.5123 9.46094 11.0981 9.46094H8.44922V15.2438C8.44922 15.658 8.11343 15.9938 7.69922 15.9938C7.28501 15.9938 6.94922 15.658 6.94922 15.2438V8.71094Z" fill="black"/>
<path fill-rule="evenodd" clip-rule="evenodd" d="M6.9502 11.9102C6.9502 11.4959 7.28598 11.1602 7.7002 11.1602H11.099C11.5132 11.1602 11.849 11.4959 11.849 11.9102C11.849 12.3244 11.5132 12.6602 11.099 12.6602H7.7002C7.28598 12.6602 6.9502 12.3244 6.9502 11.9102Z" fill="black"/>
</svg>