<svg width="24" height="24" viewBox="0 0 24 24" fill="none" xmlns="http://www.w3.org/2000/svg">
<path d="M16.21 21.7541H7.78C4.47 21.7541 2.25 19.4341 2.25 15.9741V8.02412C2.25 4.57412 4.47 2.24414 7.78 2.24414H16.22C19.53 2.24414 21.75 4.56412 21.75 8.02412V15.9741C21.75 19.4241 19.53 21.7541 16.22 21.7541H16.21ZM7.78 3.75414C5.33 3.75414 3.75 5.43413 3.75 8.03413V15.9841C3.75 18.5841 5.33 20.2641 7.78 20.2641H16.21C18.66 20.2641 20.24 18.5841 20.24 15.9841V8.03413C20.24 5.43413 18.66 3.75414 16.21 3.75414H7.77002H7.78Z" fill="black"/>
<path d="M8.33053 14.975C7.78053 14.975 7.24053 14.875 6.83053 14.705C6.45053 14.545 6.27051 14.105 6.43051 13.725C6.59051 13.345 7.03052 13.165 7.41052 13.325C7.96052 13.555 9.01054 13.555 9.49054 13.195C9.63054 13.095 9.75054 12.945 9.71054 12.605C9.68054 12.325 9.55052 12.115 9.01052 11.885L8.00052 11.465C7.64052 11.315 6.54053 10.845 6.39053 9.53502C6.30053 8.73502 6.59053 8.03502 7.20053 7.57502C8.16053 6.85502 9.80053 6.85502 10.7705 7.25502C11.1505 7.41502 11.3305 7.85503 11.1705 8.23503C11.0105 8.61503 10.5705 8.79502 10.1905 8.63502C9.64052 8.40502 8.59053 8.41503 8.11053 8.76503C7.97053 8.86503 7.85053 9.01502 7.89053 9.35502C7.92053 9.62502 8.05051 9.84502 8.59051 10.075L9.60052 10.495C9.97052 10.655 11.0605 11.115 11.2105 12.425C11.3005 13.225 11.0205 13.925 10.4005 14.385C9.85051 14.795 9.08051 14.975 8.34051 14.975H8.33053Z" fill="black"/>
<path d="M13.29 17.0262C12.88 17.0262 12.54 16.6862 12.54 16.2762V10.2862C12.54 9.93621 12.78 9.6362 13.11 9.5562C13.35 9.4962 15.4601 9.01622 16.7401 10.0162C17.1501 10.3362 17.63 10.9462 17.63 12.0162C17.63 13.0862 17.1501 13.6962 16.7401 14.0262C15.9501 14.6662 14.83 14.7262 14.04 14.6762V16.2762C14.04 16.6862 13.7 17.0262 13.29 17.0262ZM14.04 13.1762C14.61 13.2162 15.39 13.1962 15.8 12.8562C15.94 12.7462 16.13 12.5362 16.13 12.0162C16.13 11.4962 15.95 11.3062 15.81 11.1962C15.39 10.8662 14.61 10.8562 14.04 10.9162V13.1662V13.1762Z" fill="black"/>
</svg>