<svg width="24" height="24" viewBox="0 0 24 24" fill="none" xmlns="http://www.w3.org/2000/svg">
<path fill-rule="evenodd" clip-rule="evenodd" d="M12 3.75C7.44329 3.75 3.75 7.44329 3.75 12C3.75 16.5567 7.44329 20.25 12 20.25C16.5567 20.25 20.25 16.5567 20.25 12C20.25 7.44329 16.5567 3.75 12 3.75ZM2.25 12C2.25 6.61487 6.61487 2.25 12 2.25C17.3851 2.25 21.75 6.61487 21.75 12C21.75 17.3851 17.3851 21.75 12 21.75C6.61487 21.75 2.25 17.3851 2.25 12Z" fill="black"/>
<path fill-rule="evenodd" clip-rule="evenodd" d="M6.65355 8.50804C6.99861 8.2789 7.46409 8.37288 7.69323 8.71794L9.08882 10.8196L10.4844 8.71794C10.7135 8.37288 11.179 8.2789 11.5241 8.50804C11.8692 8.73718 11.9631 9.20267 11.734 9.54773L9.98912 12.1753L11.734 14.8029C11.9631 15.148 11.8692 15.6135 11.5241 15.8426C11.179 16.0717 10.7135 15.9778 10.4844 15.6327L9.08882 13.5311L7.69323 15.6327C7.46409 15.9778 6.99861 16.0717 6.65355 15.8426C6.30848 15.6135 6.21451 15.148 6.44365 14.8029L8.18852 12.1753L6.44365 9.54773C6.21451 9.20267 6.30848 8.73718 6.65355 8.50804Z" fill="black"/>
<path fill-rule="evenodd" clip-rule="evenodd" d="M16.9314 8.03125C17.3456 8.03125 17.6814 8.36704 17.6814 8.78125V11.3395C17.6816 11.3498 17.6816 11.3602 17.6814 11.3706V15.0637C17.6814 15.4091 17.4455 15.7099 17.11 15.7922L16.9314 15.0637C17.11 15.7922 17.1098 15.7922 17.1095 15.7923L17.1089 15.7924L17.1074 15.7928L17.1033 15.7938L17.0911 15.7967L17.0509 15.8058C17.0173 15.8132 16.9703 15.8232 16.9118 15.8345C16.795 15.857 16.6309 15.8853 16.4348 15.9096C16.0482 15.9576 15.5116 15.9936 14.9587 15.9282C14.4145 15.8639 13.778 15.6925 13.267 15.2606C12.7251 14.8026 12.4121 14.1265 12.4121 13.2482C12.4121 12.37 12.7248 11.6933 13.2603 11.2299C13.7667 10.7916 14.3993 10.6075 14.9437 10.532C15.3902 10.47 15.8263 10.4744 16.1814 10.4995V8.78125C16.1814 8.36704 16.5172 8.03125 16.9314 8.03125ZM16.1814 12.0042C15.8762 11.977 15.5064 11.9683 15.1498 12.0177C14.7519 12.0729 14.4422 12.1908 14.2418 12.3641C14.0706 12.5123 13.9121 12.7569 13.9121 13.2482C13.9121 13.7398 14.0703 13.9756 14.2352 14.1149C14.4309 14.2803 14.7367 14.3915 15.1348 14.4386C15.4968 14.4814 15.873 14.4638 16.1814 14.4292V12.0042Z" fill="black"/>
</svg>