<svg width="24" height="24" viewBox="0 0 24 24" fill="none" xmlns="http://www.w3.org/2000/svg">
<path opacity="0.4" d="M7.78216 3H16.2169C19.165 3 21 5.08119 21 8.02638V15.9736C21 18.9188 19.165 21 16.2159 21H7.78216C4.83405 21 3 18.9188 3 15.9736V8.02638C3 5.08119 4.84281 3 7.78216 3Z" stroke="black" stroke-width="1.5" stroke-linecap="round" stroke-linejoin="round"/>
<path d="M10.4747 7.93993C9.38044 7.47817 6.92494 7.65383 7.13271 9.43963C7.21708 10.1662 7.71825 10.5202 8.28869 10.7624L9.30741 11.1855C9.87658 11.429 10.3778 11.7817 10.4621 12.5082C10.6699 14.2954 8.21439 14.471 7.12012 14.0093" stroke="black" stroke-width="1.5" stroke-linecap="round" stroke-linejoin="round"/>
<path d="M13.2881 16.2737V10.2876C13.2881 10.2876 16.8794 9.40672 16.8794 12.0167C16.8794 14.6275 13.2881 13.8207 13.2881 13.8207" stroke="black" stroke-width="1.5" stroke-linecap="round" stroke-linejoin="round"/>
</svg>