<svg width="24" height="24" viewBox="0 0 24 24" fill="none" xmlns="http://www.w3.org/2000/svg">
<path d="M7.78216 3H16.2169C19.165 3 21 5.08119 21 8.02638V15.9736C21 18.9188 19.165 21 16.2159 21H7.78216C4.83405 21 3 18.9188 3 15.9736V8.02638C3 5.08119 4.84281 3 7.78216 3Z" stroke="black" stroke-width="1.5" stroke-linecap="round" stroke-linejoin="round"/>
<path d="M16.459 10.7494C15.5901 10.402 13.6422 10.5344 13.8067 11.8761C13.8738 12.4219 14.2718 12.6866 14.7242 12.8695L15.5318 13.1867C15.9842 13.3686 16.3821 13.6342 16.4493 14.1801C16.6137 15.5218 14.6658 15.6532 13.7969 15.3068" stroke="black" stroke-width="1.5" stroke-linecap="round" stroke-linejoin="round"/>
<path d="M7.53906 15.473V8.68946C7.53906 8.68946 11.609 7.69119 11.609 10.649C11.609 13.6069 7.53906 12.6932 7.53906 12.6932" stroke="black" stroke-width="1.5" stroke-linecap="round" stroke-linejoin="round"/>
</svg>