<svg width="24" height="24" viewBox="0 0 24 24" fill="none" xmlns="http://www.w3.org/2000/svg">
<path opacity="0.4" d="M7.78216 3H16.2169C19.165 3 21 5.08119 21 8.02638V15.9736C21 18.9188 19.165 21 16.2159 21H7.78216C4.83405 21 3 18.9188 3 15.9736V8.02638C3 5.08119 4.84281 3 7.78216 3Z" stroke="black" stroke-width="1.5" stroke-linecap="round" stroke-linejoin="round"/>
<path d="M9.5459 13.2292C10.7169 14.4383 11.7978 15.7983 13.6427 15.7983C15.7412 15.7983 17.4423 14.0972 17.4423 11.9987C17.4423 9.90032 15.7412 8.19922 13.6427 8.19922C13.266 8.19922 12.902 8.25406 12.5584 8.35618" stroke="black" stroke-width="1.5" stroke-linecap="round" stroke-linejoin="round"/>
<path d="M12.5258 11.6733C11.7287 10.7027 10.9419 9.79297 9.56173 9.79297C7.90261 9.79297 6.55762 11.138 6.55762 12.7971C6.55762 14.3029 7.66558 15.55 9.11076 15.7676" stroke="black" stroke-width="1.5" stroke-linecap="round" stroke-linejoin="round"/>
</svg>