<svg width="24" height="24" viewBox="0 0 24 24" fill="none" xmlns="http://www.w3.org/2000/svg">
<path d="M16.2149 21.7542H7.78488C4.47488 21.7542 2.25488 19.4342 2.25488 15.9742V8.02414C2.25488 4.57414 4.47488 2.24414 7.78488 2.24414H16.2149C19.5249 2.24414 21.7449 4.56414 21.7449 8.02414V15.9742C21.7449 19.4242 19.5249 21.7542 16.2149 21.7542ZM7.78488 3.75415C5.33488 3.75415 3.75488 5.43415 3.75488 8.03415V15.9842C3.75488 18.5842 5.33488 20.2642 7.78488 20.2642H16.2149C18.6649 20.2642 20.2449 18.5842 20.2449 15.9842V8.03415C20.2449 5.43415 18.6649 3.75415 16.2149 3.75415H7.78488Z" fill="black"/>
<path d="M14.7854 16.2243C14.2954 16.2243 13.8454 16.1343 13.5254 16.0043C13.1454 15.8543 12.9554 15.4143 13.1054 15.0343C13.2554 14.6443 13.6954 14.4643 14.0754 14.6143C14.4854 14.7743 15.2954 14.7643 15.6254 14.5143C15.6854 14.4643 15.7254 14.4243 15.7054 14.2743C15.6954 14.1843 15.6754 14.0543 15.2554 13.8843L14.4554 13.5643C14.1454 13.4343 13.2054 13.0643 13.0654 11.9643C12.9854 11.3143 13.2154 10.7343 13.7254 10.3443C14.6154 9.66427 16.0254 9.75428 16.7454 10.0443C17.1254 10.1943 17.3154 10.6343 17.1654 11.0143C17.0154 11.3943 16.5754 11.5843 16.1954 11.4343C15.7854 11.2743 14.9753 11.2843 14.6553 11.5343C14.5953 11.5843 14.5554 11.6243 14.5654 11.7743C14.5754 11.8643 14.5954 11.9943 15.0154 12.1643L15.8154 12.4843C16.1254 12.6143 17.0654 12.9843 17.2054 14.0843C17.2854 14.7343 17.0554 15.3143 16.5454 15.6943C16.0554 16.0743 15.4054 16.2143 14.7954 16.2143L14.7854 16.2243Z" fill="black"/>
<path d="M7.54492 16.2244C7.13492 16.2244 6.79492 15.8844 6.79492 15.4744V8.69444C6.79492 8.34444 7.03493 8.04442 7.36493 7.96442C7.62493 7.90442 9.98493 7.36442 11.3949 8.46442C11.8349 8.81442 12.3649 9.47443 12.3649 10.6544C12.3649 11.8344 11.8349 12.4944 11.3949 12.8544C10.4849 13.5844 9.17492 13.6344 8.29492 13.5644V15.4844C8.29492 15.8944 7.95492 16.2344 7.54492 16.2344V16.2244ZM8.29492 12.0444C8.97492 12.1044 9.93493 12.0944 10.4549 11.6744C10.6249 11.5344 10.8649 11.2744 10.8649 10.6444C10.8649 10.0144 10.6349 9.77445 10.4649 9.64445C9.94494 9.23445 8.96492 9.24444 8.29492 9.32444V12.0544V12.0444Z" fill="black"/>
</svg>