<svg width="24" height="24" viewBox="0 0 24 24" fill="none" xmlns="http://www.w3.org/2000/svg">
<path fill-rule="evenodd" clip-rule="evenodd" d="M12 3.75C7.44329 3.75 3.75 7.44329 3.75 12C3.75 16.5567 7.44329 20.25 12 20.25C16.5567 20.25 20.25 16.5567 20.25 12C20.25 7.44329 16.5567 3.75 12 3.75ZM2.25 12C2.25 6.61487 6.61487 2.25 12 2.25C17.3851 2.25 21.75 6.61487 21.75 12C21.75 17.3851 17.3851 21.75 12 21.75C6.61487 21.75 2.25 17.3851 2.25 12Z" fill="black"/>
<path fill-rule="evenodd" clip-rule="evenodd" d="M8.13639 9.54225C8.42758 9.51082 8.77765 9.49596 9.11433 9.53572C9.49525 9.58071 9.78391 9.68674 9.96671 9.84117C10.1186 9.96952 10.2682 10.1885 10.2682 10.655C10.2682 11.1214 10.1183 11.3493 9.95986 11.4865C9.77241 11.6487 9.47982 11.7611 9.09911 11.814C8.76793 11.86 8.42419 11.8534 8.13639 11.8292V9.54225ZM8.13639 13.3334C8.4745 13.3558 8.88508 13.3581 9.30548 13.2997C9.83272 13.2265 10.4481 13.0478 10.9416 12.6206C11.4641 12.1682 11.7682 11.5083 11.7682 10.655C11.7682 9.80177 11.4638 9.14232 10.9347 8.69536C10.4366 8.27448 9.81729 8.10832 9.29026 8.04608C8.75452 7.98281 8.23514 8.01775 7.86146 8.06414C7.67183 8.08769 7.51309 8.11504 7.40006 8.13689C7.34341 8.14785 7.29789 8.15749 7.2653 8.16469L7.22623 8.17356L7.21433 8.17637L7.21036 8.17733L7.20887 8.17769C7.2086 8.17775 7.20773 8.17797 7.38639 8.90638L7.20773 8.17797C6.87228 8.26025 6.63639 8.56098 6.63639 8.90638V12.4643C6.63618 12.4747 6.63618 12.485 6.63639 12.4954V14.9597C6.63639 15.3739 6.97218 15.7097 7.38639 15.7097C7.80061 15.7097 8.13639 15.3739 8.13639 14.9597V13.3334Z" fill="black"/>
<path fill-rule="evenodd" clip-rule="evenodd" d="M13.7109 10.1055C14.1252 10.1055 14.4609 10.4413 14.4609 10.8555V13.3119C14.4609 13.8085 14.8635 14.2111 15.3601 14.2111C15.8567 14.2111 16.2593 13.8085 16.2593 13.3119V10.8555C16.2593 10.4413 16.5951 10.1055 17.0093 10.1055C17.4235 10.1055 17.7593 10.4413 17.7593 10.8555V13.3119C17.7593 14.6369 16.6852 15.7111 15.3601 15.7111C14.0351 15.7111 12.9609 14.6369 12.9609 13.3119V10.8555C12.9609 10.4413 13.2967 10.1055 13.7109 10.1055Z" fill="black"/>
<path fill-rule="evenodd" clip-rule="evenodd" d="M9.47123 11.8383C9.8475 11.6651 10.2929 11.8297 10.4661 12.206L11.6009 14.6711C11.7741 15.0473 11.6095 15.4927 11.2332 15.666C10.857 15.8392 10.4115 15.6745 10.2383 15.2983L9.10357 12.8332C8.93036 12.4569 9.09497 12.0115 9.47123 11.8383Z" fill="black"/>
</svg>