<svg width="24" height="24" viewBox="0 0 24 24" fill="none" xmlns="http://www.w3.org/2000/svg">
<path d="M12 21.75C6.62 21.75 2.25 17.38 2.25 12C2.25 6.62 6.62 2.25 12 2.25C17.38 2.25 21.75 6.62 21.75 12C21.75 17.38 17.38 21.75 12 21.75ZM12 3.75C7.45 3.75 3.75 7.45 3.75 12C3.75 16.55 7.45 20.25 12 20.25C16.55 20.25 20.25 16.55 20.25 12C20.25 7.45 16.55 3.75 12 3.75Z" fill="black"/>
<path d="M14.47 16.011C14.03 16.011 13.61 15.931 13.27 15.791C12.89 15.631 12.71 15.191 12.87 14.811C13.03 14.431 13.47 14.251 13.85 14.411C14.21 14.561 14.93 14.551 15.22 14.331C15.28 14.281 15.32 14.241 15.31 14.081C15.3 13.981 15.29 13.871 14.9 13.711L14.15 13.401C13.85 13.271 12.96 12.901 12.83 11.821C12.75 11.161 12.99 10.581 13.5 10.201C14.28 9.61104 15.56 9.60103 16.35 9.94103C16.73 10.101 16.91 10.541 16.75 10.921C16.59 11.301 16.15 11.481 15.77 11.321C15.41 11.171 14.69 11.181 14.4 11.401C14.34 11.451 14.3 11.491 14.32 11.651C14.33 11.741 14.34 11.861 14.73 12.021L15.48 12.331C15.78 12.461 16.67 12.841 16.8 13.911C16.88 14.571 16.64 15.151 16.13 15.531C15.68 15.871 15.07 16.011 14.47 16.011Z" fill="black"/>
<path d="M7.93066 16.0083C7.52066 16.0083 7.18066 15.6683 7.18066 15.2583V8.73828C7.18066 8.32828 7.52066 7.98828 7.93066 7.98828H11.0807C11.4907 7.98828 11.8307 8.32828 11.8307 8.73828C11.8307 9.14828 11.4907 9.48828 11.0807 9.48828H8.68066V11.1783H11.0807C11.4907 11.1783 11.8307 11.5183 11.8307 11.9283C11.8307 12.3383 11.4907 12.6783 11.0807 12.6783H8.68066V15.2583C8.68066 15.6683 8.34066 16.0083 7.93066 16.0083Z" fill="black"/>
</svg>