<svg width="24" height="24" viewBox="0 0 24 24" fill="none" xmlns="http://www.w3.org/2000/svg">
<path opacity="0.4" fill-rule="evenodd" clip-rule="evenodd" d="M16.2169 3H7.78216C4.84281 3 3 5.08119 3 8.02638V15.9736C3 18.9188 4.83405 21 7.78216 21H16.2159C19.165 21 21 18.9188 21 15.9736V8.02638C21 5.08119 19.165 3 16.2169 3Z" stroke="black" stroke-width="1.5" stroke-linecap="round" stroke-linejoin="round"/>
<path d="M7.37891 15.4007L10.3552 8.59766L13.4172 15.4007" stroke="black" stroke-width="1.5" stroke-linecap="round" stroke-linejoin="round"/>
<path d="M8.30469 13.213H12.4291" stroke="black" stroke-width="1.5"/>
<path d="M16.1349 15.3994V11.4336" stroke="black" stroke-width="1.5" stroke-linecap="round" stroke-linejoin="round"/>
<path d="M16.1336 9.0885V9.09726M16.1691 9.09038C16.1691 9.1101 16.1531 9.12608 16.1333 9.12608C16.1136 9.12608 16.0977 9.1101 16.0977 9.09038C16.0977 9.07067 16.1136 9.05469 16.1333 9.05469C16.1531 9.05469 16.1691 9.07067 16.1691 9.09038Z" stroke="black" stroke-width="1.5" stroke-linecap="round" stroke-linejoin="round"/>
</svg>