<svg width="24" height="24" viewBox="0 0 24 24" fill="none" xmlns="http://www.w3.org/2000/svg">
<path fill-rule="evenodd" clip-rule="evenodd" d="M3.7402 3.89737C4.72468 2.84117 6.12669 2.25 7.78216 2.25H16.2169C17.8762 2.25 19.2788 2.84084 20.2629 3.89765C21.2413 4.94841 21.75 6.39889 21.75 8.02638V15.9736C21.75 17.6011 21.2413 19.0516 20.2627 20.1024C19.2785 21.1592 17.8756 21.75 16.2159 21.75H7.78216C6.1228 21.75 4.72038 21.1591 3.73657 20.1023C2.75842 19.0515 2.25 17.601 2.25 15.9736V8.02638C2.25 6.39806 2.76117 4.94771 3.7402 3.89737ZM4.83745 4.92012C4.16024 5.64666 3.75 6.70951 3.75 8.02638V15.9736C3.75 17.2914 4.15861 18.3541 4.83451 19.0802C5.50475 19.8003 6.49341 20.25 7.78216 20.25H16.2159C17.5052 20.25 18.4944 19.8002 19.165 19.0801C19.8412 18.354 20.25 17.2913 20.25 15.9736V8.02638C20.25 6.70868 19.8412 5.64597 19.1651 4.91984C18.4946 4.19975 17.5056 3.75 16.2169 3.75H7.78216C6.49828 3.75 5.50921 4.19943 4.83745 4.92012Z" fill="black"/>
<path fill-rule="evenodd" clip-rule="evenodd" d="M7.77134 9.4666C7.77116 9.46664 7.77122 9.46663 7.77151 9.46656L7.77134 9.4666ZM8.34391 9.37025C8.68184 9.32997 9.10438 9.3071 9.51152 9.35518C9.93985 9.40576 10.2759 9.526 10.4943 9.71049C10.6818 9.86887 10.855 10.1337 10.855 10.6691C10.855 11.2045 10.6814 11.4788 10.4874 11.6467C10.2644 11.8397 9.92442 11.9673 9.4963 12.0268C9.09485 12.0825 8.67887 12.0697 8.34391 12.0375V9.37025ZM8.34391 13.5431C8.72852 13.5728 9.2099 13.5809 9.70266 13.5125C10.2773 13.4327 10.9401 13.2388 11.4692 12.7808C12.0273 12.2977 12.355 11.5913 12.355 10.6691C12.355 9.747 12.0269 9.04168 11.4623 8.56467C10.9286 8.11375 10.2619 7.93337 9.68744 7.86553C9.10428 7.79666 8.53749 7.83462 8.12825 7.88543C7.92084 7.91118 7.74728 7.94109 7.62388 7.96495C7.56205 7.97691 7.51244 7.98741 7.47708 7.99523L7.43484 8.00481L7.42213 8.00782L7.41795 8.00882L7.41641 8.0092L7.41578 8.00935C7.41551 8.00942 7.41525 8.00948 7.59391 8.73789L7.41525 8.00948C7.0798 8.09176 6.84391 8.3925 6.84391 8.73789V12.669C6.8437 12.6794 6.8437 12.6897 6.84391 12.7001V15.4234C6.84391 15.8376 7.1797 16.1734 7.59391 16.1734C8.00813 16.1734 8.34391 15.8376 8.34391 15.4234V13.5431Z" fill="black"/>
<path fill-rule="evenodd" clip-rule="evenodd" d="M15.0195 8.22656C15.4337 8.22656 15.7695 8.56235 15.7695 8.97656V14.6699H16.4076C16.8218 14.6699 17.1576 15.0057 17.1576 15.4199C17.1576 15.8341 16.8218 16.1699 16.4076 16.1699H15.6195C14.8739 16.1699 14.2695 15.5655 14.2695 14.8199V8.97656C14.2695 8.56235 14.6053 8.22656 15.0195 8.22656Z" fill="black"/>
</svg>