<svg width="24" height="24" viewBox="0 0 24 24" fill="none" xmlns="http://www.w3.org/2000/svg">
<path opacity="0.4" fill-rule="evenodd" clip-rule="evenodd" d="M16.217 2.5H7.782C4.623 2.5 2.5 4.723 2.5 8.03V15.97C2.5 19.277 4.623 21.5 7.782 21.5H16.216C19.377 21.5 21.5 19.277 21.5 15.97V8.03C21.5 4.723 19.377 2.5 16.217 2.5Z" fill="black"/>
<path d="M15.348 9.09061C15.348 9.50461 15.719 9.87061 16.133 9.87061C16.547 9.87061 16.919 9.50461 16.919 9.09061C16.919 8.67661 16.547 8.30061 16.133 8.30061C15.719 8.30061 15.348 8.67661 15.348 9.09061Z" fill="black"/>
<path d="M16.135 16.1496C16.549 16.1496 16.885 15.8136 16.885 15.3996V11.4306C16.885 11.0166 16.549 10.6806 16.135 10.6806C15.721 10.6806 15.385 11.0166 15.385 11.4306V15.3996C15.385 15.8136 15.721 16.1496 16.135 16.1496Z" fill="black"/>
<path fill-rule="evenodd" clip-rule="evenodd" d="M13.725 16.0836C13.347 16.2536 12.904 16.0866 12.733 15.7076L11.946 13.9606H8.82798L8.06598 15.7006C7.94298 15.9816 7.66798 16.1496 7.37898 16.1496C7.27898 16.1496 7.17598 16.1296 7.07798 16.0876C6.69898 15.9216 6.52598 15.4786 6.69198 15.0996C7.68637 12.8275 8.6731 10.5728 9.66798 8.29961C9.78698 8.02761 10.055 7.85161 10.351 7.84961C10.694 7.86661 10.918 8.02161 11.039 8.29261L14.101 15.0926C14.271 15.4696 14.103 15.9136 13.725 16.0836ZM11.2704 12.4604H9.48441L10.3654 10.4484L11.2704 12.4604Z" fill="black"/>
</svg>