<svg width="24" height="24" viewBox="0 0 24 24" fill="none" xmlns="http://www.w3.org/2000/svg">
<path fill-rule="evenodd" clip-rule="evenodd" d="M12 3.75C7.44329 3.75 3.75 7.44329 3.75 12C3.75 16.5567 7.44329 20.25 12 20.25C16.5567 20.25 20.25 16.5567 20.25 12C20.25 7.44329 16.5567 3.75 12 3.75ZM2.25 12C2.25 6.61487 6.61487 2.25 12 2.25C17.3851 2.25 21.75 6.61487 21.75 12C21.75 17.3851 17.3851 21.75 12 21.75C6.61487 21.75 2.25 17.3851 2.25 12Z" fill="black"/>
<path fill-rule="evenodd" clip-rule="evenodd" d="M14.2705 10.0312C14.6847 10.0312 15.0205 10.367 15.0205 10.7812V15.1538C15.0205 15.568 14.6847 15.9038 14.2705 15.9038C13.8563 15.9038 13.5205 15.568 13.5205 15.1538V10.7812C13.5205 10.367 13.8563 10.0312 14.2705 10.0312Z" fill="black"/>
<path fill-rule="evenodd" clip-rule="evenodd" d="M13.5205 13.5471C13.5205 11.7667 14.6888 10.0938 16.542 10.0938C16.9562 10.0938 17.292 10.4295 17.292 10.8438C17.292 11.258 16.9562 11.5938 16.542 11.5938C15.7699 11.5938 15.0205 12.3176 15.0205 13.5471C15.0205 13.9613 14.6847 14.2971 14.2705 14.2971C13.8563 14.2971 13.5205 13.9613 13.5205 13.5471Z" fill="black"/>
<path fill-rule="evenodd" clip-rule="evenodd" d="M7.53418 8.84375C7.53418 8.42954 7.86997 8.09375 8.28418 8.09375H11.5477C11.9619 8.09375 12.2977 8.42954 12.2977 8.84375C12.2977 9.25796 11.9619 9.59375 11.5477 9.59375H9.03418V15.1165C9.03418 15.5307 8.69839 15.8665 8.28418 15.8665C7.86997 15.8665 7.53418 15.5307 7.53418 15.1165V8.84375Z" fill="black"/>
<path fill-rule="evenodd" clip-rule="evenodd" d="M7.53418 11.9102C7.53418 11.4959 7.86997 11.1602 8.28418 11.1602H11.5477C11.9619 11.1602 12.2977 11.4959 12.2977 11.9102C12.2977 12.3244 11.9619 12.6602 11.5477 12.6602H8.28418C7.86997 12.6602 7.53418 12.3244 7.53418 11.9102Z" fill="black"/>
</svg>