<svg width="24" height="24" viewBox="0 0 24 24" fill="none" xmlns="http://www.w3.org/2000/svg">
<path fill-rule="evenodd" clip-rule="evenodd" d="M12 3.75C7.44329 3.75 3.75 7.44329 3.75 12C3.75 16.5567 7.44329 20.25 12 20.25C16.5567 20.25 20.25 16.5567 20.25 12C20.25 7.44329 16.5567 3.75 12 3.75ZM2.25 12C2.25 6.61487 6.61487 2.25 12 2.25C17.3851 2.25 21.75 6.61487 21.75 12C21.75 17.3851 17.3851 21.75 12 21.75C6.61487 21.75 2.25 17.3851 2.25 12Z" fill="black"/>
<path fill-rule="evenodd" clip-rule="evenodd" d="M17.8798 10.456C17.4888 10.3195 17.0611 10.5258 16.9245 10.9169L16.3979 12.4253L15.9475 11.2857C15.8344 10.9994 15.5578 10.8113 15.25 10.8113C14.9422 10.8113 14.6656 10.9994 14.5525 11.2857L14.1022 12.4253L13.5755 10.9169C13.439 10.5258 13.0113 10.3195 12.6202 10.456C12.2291 10.5925 12.0228 11.0202 12.1593 11.4113L13.3506 14.8234C13.4539 15.1192 13.7303 15.3197 14.0436 15.326C14.3569 15.3323 14.6411 15.1432 14.7562 14.8518L15.25 13.6022L15.7438 14.8518C15.859 15.1432 16.1432 15.3323 16.4565 15.326C16.7698 15.3197 17.0461 15.1192 17.1494 14.8234L18.3407 11.4113C18.4772 11.0202 18.2709 10.5925 17.8798 10.456Z" fill="black"/>
<path fill-rule="evenodd" clip-rule="evenodd" d="M7.06911 10.2349L7.06774 10.2353C7.0676 10.2353 7.06768 10.2353 7.068 10.2352L7.06866 10.235L7.06911 10.2349ZM7.5957 10.121C7.92586 10.0694 8.33628 10.0401 8.72669 10.0989C9.11931 10.158 9.43725 10.297 9.65863 10.5356C9.87238 10.766 10.0811 11.1807 10.0811 11.9667C10.0811 12.7517 9.87267 13.1778 9.65249 13.4209C9.42497 13.6722 9.10081 13.8208 8.70757 13.8905C8.32381 13.9585 7.92169 13.9419 7.5957 13.901V10.121ZM6.8457 14.5202L6.63924 15.2412C6.31747 15.1491 6.0957 14.8549 6.0957 14.5202V9.5189C6.0957 9.19096 6.30877 8.90105 6.62175 8.80312L6.8457 9.5189C6.62175 8.80312 6.62206 8.80302 6.62238 8.80292L6.62311 8.80269L6.62486 8.80215L6.62945 8.80074L6.64299 8.79666C6.65392 8.7934 6.66865 8.7891 6.68691 8.78395C6.72342 8.77366 6.77423 8.75993 6.83734 8.74436C6.96322 8.71331 7.13993 8.67447 7.35111 8.64103C7.76654 8.57523 8.34814 8.52494 8.95014 8.61563C9.55388 8.70658 10.2323 8.94859 10.7582 9.51535C11.2917 10.0903 11.5811 10.9052 11.5811 11.9667C11.5811 13.029 11.2914 13.8458 10.7643 14.4278C10.2446 15.0017 9.57239 15.2606 8.96926 15.3675C8.36822 15.4739 7.78667 15.4392 7.37039 15.3843C7.15892 15.3565 6.98191 15.3222 6.85571 15.2945C6.79245 15.2805 6.74149 15.2681 6.70483 15.2588C6.6865 15.2541 6.6717 15.2501 6.66069 15.2472L6.64704 15.2434L6.6424 15.2421L6.64063 15.2416L6.63989 15.2414C6.63955 15.2413 6.63924 15.2412 6.8457 14.5202Z" fill="black"/>
</svg>