<svg width="24" height="24" viewBox="0 0 24 24" fill="none" xmlns="http://www.w3.org/2000/svg">
<path fill-rule="evenodd" clip-rule="evenodd" d="M3.7402 3.89737C4.72468 2.84117 6.12669 2.25 7.78216 2.25H16.2169C17.8762 2.25 19.2788 2.84084 20.2629 3.89765C21.2413 4.94841 21.75 6.39889 21.75 8.02638V15.9736C21.75 17.6011 21.2413 19.0516 20.2627 20.1024C19.2785 21.1592 17.8756 21.75 16.2159 21.75H7.78216C6.1228 21.75 4.72038 21.1591 3.73657 20.1023C2.75842 19.0515 2.25 17.601 2.25 15.9736V8.02638C2.25 6.39806 2.76117 4.94771 3.7402 3.89737ZM4.83745 4.92012C4.16024 5.64666 3.75 6.70951 3.75 8.02638V15.9736C3.75 17.2914 4.15861 18.3541 4.83451 19.0802C5.50475 19.8003 6.49341 20.25 7.78216 20.25H16.2159C17.5052 20.25 18.4944 19.8002 19.165 19.0801C19.8412 18.354 20.25 17.2913 20.25 15.9736V8.02638C20.25 6.70868 19.8412 5.64597 19.1651 4.91984C18.4946 4.19975 17.5056 3.75 16.2169 3.75H7.78216C6.49828 3.75 5.50921 4.19943 4.83745 4.92012Z" fill="black"/>
<path fill-rule="evenodd" clip-rule="evenodd" d="M14.3086 9.91797C14.7228 9.91797 15.0586 10.2538 15.0586 10.668V15.1785C15.0586 15.5927 14.7228 15.9285 14.3086 15.9285C13.8944 15.9285 13.5586 15.5927 13.5586 15.1785V10.668C13.5586 10.2538 13.8944 9.91797 14.3086 9.91797Z" fill="black"/>
<path fill-rule="evenodd" clip-rule="evenodd" d="M13.5586 13.5192C13.5586 11.6913 14.7572 9.98047 16.6517 9.98047C17.066 9.98047 17.4017 10.3163 17.4017 10.7305C17.4017 11.1447 17.066 11.4805 16.6517 11.4805C15.8383 11.4805 15.0586 12.2421 15.0586 13.5192C15.0586 13.9334 14.7228 14.2692 14.3086 14.2692C13.8944 14.2692 13.5586 13.9334 13.5586 13.5192Z" fill="black"/>
<path fill-rule="evenodd" clip-rule="evenodd" d="M8.05469 7.91797C8.4689 7.91797 8.80469 8.25376 8.80469 8.66797V14.3887H11.4212C11.8354 14.3887 12.1712 14.7245 12.1712 15.1387C12.1712 15.5529 11.8354 15.8887 11.4212 15.8887H8.05469C7.64047 15.8887 7.30469 15.5529 7.30469 15.1387V8.66797C7.30469 8.25376 7.64047 7.91797 8.05469 7.91797Z" fill="black"/>
</svg>