<svg width="24" height="24" viewBox="0 0 24 24" fill="none" xmlns="http://www.w3.org/2000/svg">
<path d="M12 21.75C6.62 21.75 2.25 17.38 2.25 12C2.25 6.62 6.62 2.25 12 2.25C17.38 2.25 21.75 6.62 21.75 12C21.75 17.38 17.38 21.75 12 21.75ZM12 3.75C7.45 3.75 3.75 7.45 3.75 12C3.75 16.55 7.45 20.25 12 20.25C16.55 20.25 20.25 16.55 20.25 12C20.25 7.45 16.55 3.75 12 3.75Z" fill="black"/>
<path d="M15.7905 15.5795C15.0005 15.5795 14.2804 15.2795 13.7504 14.7095C13.2704 14.1895 12.9604 13.4895 12.9104 12.7795C12.9104 12.7495 12.9104 12.7195 12.9104 12.6795C12.8804 11.9995 13.0604 11.3495 13.4304 10.8395C13.9104 10.1895 14.6705 9.78953 15.4605 9.76953C16.1105 9.76953 16.7404 9.99954 17.2204 10.4395C17.6904 10.8695 17.9905 11.4595 18.0805 12.0995C18.0905 12.2095 18.1005 12.4695 18.1005 12.4695C18.1005 13.0095 17.6805 13.4295 17.1705 13.4295H14.6604C14.7204 13.5195 14.7805 13.6095 14.8505 13.6895C15.4505 14.3395 16.3604 13.9996 16.6304 13.8896C17.0104 13.7196 17.4504 13.8895 17.6204 14.2795C17.7904 14.6595 17.6205 15.0995 17.2305 15.2695C16.7405 15.4795 16.2605 15.5895 15.7905 15.5895V15.5795ZM14.5205 11.9395H16.4905C16.4205 11.7995 16.3304 11.6695 16.2204 11.5595C16.0204 11.3795 15.7705 11.2595 15.4905 11.2795C15.1705 11.2795 14.8405 11.4596 14.6405 11.7296C14.5905 11.7896 14.5505 11.8595 14.5205 11.9395Z" fill="black"/>
<path d="M11.8807 15.5592C11.5807 15.5592 11.3107 15.3892 11.1907 15.0992L9.26073 10.4192L7.33074 15.0992C7.17074 15.4792 6.74073 15.6692 6.35073 15.5092C5.97073 15.3492 5.78072 14.9092 5.94072 14.5292L8.56072 8.15921C8.68072 7.87921 8.95072 7.69922 9.25072 7.69922C9.55072 7.69922 9.83072 7.87921 9.94072 8.15921L12.5607 14.5292C12.7207 14.9092 12.5307 15.3492 12.1507 15.5092C12.0607 15.5492 11.9607 15.5692 11.8707 15.5692L11.8807 15.5592Z" fill="black"/>
<path d="M10.9403 13.2812H7.57031C7.16031 13.2812 6.82031 12.9412 6.82031 12.5312C6.82031 12.1213 7.16031 11.7812 7.57031 11.7812H10.9403C11.3503 11.7812 11.6903 12.1213 11.6903 12.5312C11.6903 12.9412 11.3503 13.2812 10.9403 13.2812Z" fill="black"/>
</svg>