<svg width="24" height="24" viewBox="0 0 24 24" fill="none" xmlns="http://www.w3.org/2000/svg">
<path fill-rule="evenodd" clip-rule="evenodd" d="M12 3.75C7.44329 3.75 3.75 7.44329 3.75 12C3.75 16.5567 7.44329 20.25 12 20.25C16.5567 20.25 20.25 16.5567 20.25 12C20.25 7.44329 16.5567 3.75 12 3.75ZM2.25 12C2.25 6.61487 6.61487 2.25 12 2.25C17.3851 2.25 21.75 6.61487 21.75 12C21.75 17.3851 17.3851 21.75 12 21.75C6.61487 21.75 2.25 17.3851 2.25 12Z" fill="black"/>
<path fill-rule="evenodd" clip-rule="evenodd" d="M14.501 9.6875C14.9152 9.6875 15.251 10.0233 15.251 10.4375V15.2828C15.251 15.697 14.9152 16.0328 14.501 16.0328C14.0868 16.0328 13.751 15.697 13.751 15.2828V10.4375C13.751 10.0233 14.0868 9.6875 14.501 9.6875Z" fill="black"/>
<path fill-rule="evenodd" clip-rule="evenodd" d="M13.751 13.5035C13.751 11.5604 15.023 9.75781 17.018 9.75781C17.4323 9.75781 17.768 10.0936 17.768 10.5078C17.768 10.922 17.4323 11.2578 17.018 11.2578C16.1041 11.2578 15.251 12.1112 15.251 13.5035C15.251 13.9177 14.9152 14.2535 14.501 14.2535C14.0868 14.2535 13.751 13.9177 13.751 13.5035Z" fill="black"/>
<path fill-rule="evenodd" clip-rule="evenodd" d="M7.89909 7.85938H9.62345C10.9734 7.85938 12.0695 8.95325 12.0695 10.3044C12.0695 10.9632 11.8093 11.5614 11.386 12.0014C11.8093 12.4415 12.0695 13.0397 12.0695 13.6985C12.0695 15.0501 10.975 16.1445 9.62345 16.1445H7.8976C7.298 16.1445 6.80859 15.6591 6.80859 15.0555V8.94224C6.81185 8.34681 7.29447 7.85749 7.89909 7.85938ZM9.62345 11.2514C10.146 11.2514 10.5695 10.8281 10.5695 10.3044C10.5695 9.78285 10.1462 9.35938 9.62345 9.35938H8.30859V11.2514H9.62345ZM8.30859 12.7514H9.62345C10.146 12.7514 10.5695 13.1748 10.5695 13.6985C10.5695 14.2216 10.1466 14.6445 9.62345 14.6445H8.30859V12.7514ZM7.8935 9.35938H7.8976C7.89623 9.35939 7.89487 9.35939 7.8935 9.35938Z" fill="black"/>
</svg>