<svg width="24" height="24" viewBox="0 0 24 24" fill="none" xmlns="http://www.w3.org/2000/svg">
<path d="M12 21C16.9709 21 21 16.9709 21 12C21 7.02908 16.9709 3 12 3C7.02908 3 3 7.02908 3 12C3 16.9709 7.02908 21 12 21Z" stroke="black" stroke-width="1.5" stroke-linecap="round" stroke-linejoin="round"/>
<path d="M16.342 10.7839C15.4965 10.4462 13.5992 10.5747 13.7597 11.8804C13.8249 12.4116 14.2122 12.6705 14.6529 12.8475L15.4401 13.1569C15.8798 13.335 16.2671 13.5928 16.3323 14.1241C16.4928 15.4308 14.5955 15.5592 13.75 15.2216" stroke="black" stroke-width="1.5" stroke-linecap="round" stroke-linejoin="round"/>
<path d="M7.6582 15.3806V8.77504C7.6582 8.77504 11.6211 7.80304 11.6211 10.683C11.6211 13.564 7.6582 12.6737 7.6582 12.6737" stroke="black" stroke-width="1.5" stroke-linecap="round" stroke-linejoin="round"/>
</svg>