<svg width="24" height="24" viewBox="0 0 24 24" fill="none" xmlns="http://www.w3.org/2000/svg">
<path d="M12 21C16.9709 21 21 16.9709 21 12C21 7.02908 16.9709 3 12 3C7.02908 3 3 7.02908 3 12C3 16.9709 7.02908 21 12 21Z" stroke="black" stroke-width="1.5" stroke-linecap="round" stroke-linejoin="round"/>
<path d="M10.5433 8.12551C9.498 7.68443 7.15242 7.85222 7.3509 9.55808C7.43149 10.2521 7.91022 10.5902 8.45512 10.8216L9.42823 11.2258C9.97192 11.4584 10.4507 11.7953 10.5313 12.4893C10.7297 14.1964 8.38415 14.3642 7.33887 13.9231" stroke="black" stroke-width="1.5" stroke-linecap="round" stroke-linejoin="round"/>
<path d="M13.2305 16.0852V10.3671C13.2305 10.3671 16.661 9.52569 16.661 12.0188C16.661 14.5127 13.2305 13.7421 13.2305 13.7421" stroke="black" stroke-width="1.5" stroke-linecap="round" stroke-linejoin="round"/>
</svg>