<svg width="24" height="24" viewBox="0 0 24 24" fill="none" xmlns="http://www.w3.org/2000/svg">
<path fill-rule="evenodd" clip-rule="evenodd" d="M12 3.75C7.44329 3.75 3.75 7.44329 3.75 12C3.75 16.5567 7.44329 20.25 12 20.25C16.5567 20.25 20.25 16.5567 20.25 12C20.25 7.44329 16.5567 3.75 12 3.75ZM2.25 12C2.25 6.61487 6.61487 2.25 12 2.25C17.3851 2.25 21.75 6.61487 21.75 12C21.75 17.3851 17.3851 21.75 12 21.75C6.61487 21.75 2.25 17.3851 2.25 12Z" fill="black"/>
<path fill-rule="evenodd" clip-rule="evenodd" d="M13.4792 9.32812C13.2132 9.32812 12.9575 9.3668 12.7168 9.43835C12.3197 9.55636 11.9022 9.33016 11.7842 8.93312C11.6661 8.53607 11.8923 8.11853 12.2894 8.00052C12.6673 7.88818 13.0669 7.82812 13.4792 7.82812C15.7826 7.82812 17.6498 9.69534 17.6498 11.9987C17.6498 14.302 15.7826 16.1692 13.4792 16.1692C12.4417 16.1692 11.628 15.7797 10.9542 15.2685C10.4364 14.8755 9.96593 14.3791 9.5467 13.9367C9.44556 13.83 9.34739 13.7264 9.25227 13.6282C8.9641 13.3306 8.9717 12.8558 9.26924 12.5677C9.56678 12.2795 10.0416 12.2871 10.3298 12.5846C10.4509 12.7097 10.5664 12.8313 10.6784 12.9492C11.0886 13.381 11.4505 13.762 11.861 14.0735C12.3526 14.4466 12.8558 14.6692 13.4792 14.6692C14.9541 14.6692 16.1498 13.4736 16.1498 11.9987C16.1498 10.5238 14.9541 9.32812 13.4792 9.32812Z" fill="black"/>
<path fill-rule="evenodd" clip-rule="evenodd" d="M9.80506 10.7617C8.72564 10.7617 7.85059 11.6368 7.85059 12.7162C7.85059 13.6952 8.57115 14.5073 9.51072 14.6488C9.92032 14.7104 10.2024 15.0925 10.1407 15.5021C10.0791 15.9117 9.69702 16.1937 9.28742 16.132C7.62491 15.8818 6.35059 14.4485 6.35059 12.7162C6.35059 10.8083 7.89721 9.26172 9.80506 9.26172C11.4379 9.26172 12.3533 10.3764 13.0454 11.2192L13.0531 11.2285C13.316 11.5486 13.2696 12.0212 12.9495 12.2841C12.6294 12.547 12.1568 12.5006 11.8939 12.1805C11.1517 11.2768 10.6513 10.7617 9.80506 10.7617Z" fill="black"/>
</svg>