<svg width="24" height="24" viewBox="0 0 24 24" fill="none" xmlns="http://www.w3.org/2000/svg">
<path d="M16.2149 21.7541H7.78488C4.47488 21.7541 2.25488 19.4341 2.25488 15.9741V8.02414C2.25488 4.57414 4.47488 2.24414 7.78488 2.24414H16.2149C19.5249 2.24414 21.7449 4.56414 21.7449 8.02414V15.9741C21.7449 19.4241 19.5249 21.7541 16.2149 21.7541ZM7.78488 3.75414C5.33488 3.75414 3.75488 5.43413 3.75488 8.03413V15.9841C3.75488 18.5841 5.33488 20.2641 7.78488 20.2641H16.2149C18.6649 20.2641 20.2449 18.5841 20.2449 15.9841V8.03413C20.2449 5.43413 18.6649 3.75414 16.2149 3.75414H7.78488Z" fill="black"/>
<path d="M14.2849 16.0977C13.5249 16.0977 12.6249 15.9577 11.9549 15.4277C11.5249 15.0877 11.0049 14.4477 11.0049 13.3077C11.0049 12.1677 11.5149 11.5177 11.9449 11.1777C12.8149 10.4777 14.0649 10.4277 14.9049 10.4877V8.67773C14.9049 8.26773 15.2449 7.92773 15.6549 7.92773C16.0649 7.92773 16.4049 8.26773 16.4049 8.67773V15.1877C16.4049 15.5377 16.1649 15.8377 15.8349 15.9177C15.7049 15.9477 15.0549 16.0977 14.2749 16.0977H14.2849ZM14.3949 11.9677C13.8449 11.9677 13.2449 12.0477 12.8849 12.3477C12.7249 12.4777 12.5049 12.7177 12.5049 13.3077C12.5049 13.8977 12.7149 14.1177 12.8749 14.2477C13.3649 14.6277 14.2749 14.6277 14.9149 14.5577V11.9977C14.7549 11.9877 14.5749 11.9777 14.3949 11.9777V11.9677Z" fill="black"/>
<path d="M8.34473 15.9377C7.93473 15.9377 7.59473 15.5977 7.59473 15.1877V8.67773C7.59473 8.26773 7.93473 7.92773 8.34473 7.92773C8.75473 7.92773 9.09473 8.26773 9.09473 8.67773V15.1877C9.09473 15.5977 8.75473 15.9377 8.34473 15.9377Z" fill="black"/>
</svg>