<svg width="24" height="24" viewBox="0 0 24 24" fill="none" xmlns="http://www.w3.org/2000/svg">
<path fill-rule="evenodd" clip-rule="evenodd" d="M12 3.75C7.44329 3.75 3.75 7.44329 3.75 12C3.75 16.5567 7.44329 20.25 12 20.25C16.5567 20.25 20.25 16.5567 20.25 12C20.25 7.44329 16.5567 3.75 12 3.75ZM2.25 12C2.25 6.61487 6.61487 2.25 12 2.25C17.3851 2.25 21.75 6.61487 21.75 12C21.75 17.3851 17.3851 21.75 12 21.75C6.61487 21.75 2.25 17.3851 2.25 12Z" fill="black"/>
<path fill-rule="evenodd" clip-rule="evenodd" d="M7.98126 9.61913C7.98106 9.61918 7.98109 9.61917 7.98133 9.61911L7.98126 9.61913ZM8.55387 9.52445C8.86847 9.48864 9.25425 9.46994 9.62561 9.5138C10.03 9.56155 10.3421 9.6746 10.5425 9.8439C10.712 9.9871 10.8733 10.2288 10.8733 10.7293C10.8733 11.2299 10.7116 11.4807 10.5356 11.6331C10.3306 11.8106 10.0145 11.9304 9.61039 11.9866C9.24463 12.0374 8.86529 12.0278 8.55387 11.9997V9.52445ZM8.55387 13.5046C8.9152 13.5306 9.36068 13.5357 9.81675 13.4723C10.3675 13.3958 11.0063 13.2096 11.5174 12.7672C12.0575 12.2996 12.3733 11.6167 12.3733 10.7293C12.3733 9.84204 12.0572 9.15991 11.5105 8.69808C10.9948 8.26235 10.352 8.08916 9.80153 8.02415C9.24235 7.95811 8.69952 7.99454 8.30825 8.04312C8.10983 8.06775 7.94376 8.09637 7.8256 8.11922C7.76639 8.13067 7.71885 8.14074 7.68488 8.14825L7.64425 8.15746L7.63195 8.16037L7.62787 8.16135L7.62636 8.16172L7.62574 8.16187C7.62547 8.16194 7.62521 8.162 7.80387 8.89041L7.62521 8.162C7.28976 8.24428 7.05387 8.54502 7.05387 8.89041V12.6329C7.05366 12.6433 7.05366 12.6536 7.05387 12.664V15.2564C7.05387 15.6706 7.38966 16.0064 7.80387 16.0064C8.21809 16.0064 8.55387 15.6706 8.55387 15.2564V13.5046Z" fill="black"/>
<path fill-rule="evenodd" clip-rule="evenodd" d="M14.875 8.36719C15.2892 8.36719 15.625 8.70297 15.625 9.11719V14.5025H16.1967C16.611 14.5025 16.9467 14.8383 16.9467 15.2525C16.9467 15.6668 16.611 16.0025 16.1967 16.0025H15.4463C14.7166 16.0025 14.125 15.411 14.125 14.6812V9.11719C14.125 8.70297 14.4608 8.36719 14.875 8.36719Z" fill="black"/>
</svg>