<svg width="24" height="24" viewBox="0 0 24 24" fill="none" xmlns="http://www.w3.org/2000/svg">
<path fill-rule="evenodd" clip-rule="evenodd" d="M3.7402 3.89737C4.72468 2.84117 6.12669 2.25 7.78216 2.25H16.2169C17.8762 2.25 19.2788 2.84084 20.2629 3.89765C21.2413 4.94841 21.75 6.39889 21.75 8.02638V15.9736C21.75 17.6011 21.2413 19.0516 20.2627 20.1024C19.2785 21.1592 17.8757 21.75 16.2159 21.75H7.78216C6.1228 21.75 4.72038 21.1591 3.73657 20.1023C2.75842 19.0515 2.25 17.601 2.25 15.9736V8.02638C2.25 6.39806 2.76117 4.94771 3.7402 3.89737ZM4.83745 4.92012C4.16024 5.64667 3.75 6.70951 3.75 8.02638V15.9736C3.75 17.2914 4.15861 18.3541 4.83451 19.0802C5.50475 19.8003 6.49341 20.25 7.78216 20.25H16.2159C17.5052 20.25 18.4944 19.8002 19.165 19.0801C19.8412 18.354 20.25 17.2913 20.25 15.9736V8.02638C20.25 6.70868 19.8412 5.64597 19.1651 4.91984C18.4946 4.19975 17.5056 3.75 16.2169 3.75H7.78216C6.49828 3.75 5.50921 4.19943 4.83745 4.92012Z" fill="black"/>
<path fill-rule="evenodd" clip-rule="evenodd" d="M10.3515 7.84767C10.648 7.84611 10.9176 8.01942 11.0393 8.28983L14.1013 15.0929C14.2713 15.4706 14.1029 15.9146 13.7252 16.0846C13.3475 16.2546 12.9035 16.0862 12.7334 15.7085L10.3651 10.4466L8.06621 15.7013C7.90019 16.0808 7.45797 16.2538 7.07848 16.0878C6.699 15.9218 6.52595 15.4796 6.69198 15.1001L9.6683 8.29704C9.78716 8.02536 10.0549 7.84923 10.3515 7.84767Z" fill="black"/>
<path fill-rule="evenodd" clip-rule="evenodd" d="M12.4291 13.9631H8.30469V12.4631H12.4291V13.9631Z" fill="black"/>
<path fill-rule="evenodd" clip-rule="evenodd" d="M16.1348 10.6836C16.549 10.6836 16.8848 11.0194 16.8848 11.4336V15.3994C16.8848 15.8136 16.549 16.1494 16.1348 16.1494C15.7206 16.1494 15.3848 15.8136 15.3848 15.3994V11.4336C15.3848 11.0194 15.7206 10.6836 16.1348 10.6836Z" fill="black"/>
<path fill-rule="evenodd" clip-rule="evenodd" d="M15.3477 9.09038C15.3477 8.65669 15.6992 8.30469 16.1333 8.30469C16.5669 8.30469 16.9191 8.6561 16.9191 9.09038C16.9191 9.52466 16.5669 9.87608 16.1333 9.87608C15.6992 9.87608 15.3477 9.52407 15.3477 9.09038Z" fill="black"/>
</svg>