<svg width="24" height="24" viewBox="0 0 24 24" fill="none" xmlns="http://www.w3.org/2000/svg">
<path opacity="0.4" d="M7.78216 3H16.2169C19.165 3 21 5.08119 21 8.02638V15.9736C21 18.9188 19.165 21 16.2159 21H7.78216C4.83405 21 3 18.9188 3 15.9736V8.02638C3 5.08119 4.84281 3 7.78216 3Z" stroke="black" stroke-width="1.5" stroke-linecap="round" stroke-linejoin="round"/>
<path d="M17.1869 15.1058C16.2567 15.5125 15.1621 15.5066 14.4236 14.7127C14.0315 14.2904 13.7747 13.6881 13.7406 13.0995C13.7105 12.5877 13.8389 12.0604 14.1395 11.6498C14.4966 11.1623 15.0648 10.8636 15.6515 10.8519C16.1283 10.8422 16.6002 11.0241 16.9602 11.352C17.3134 11.6741 17.5479 12.1275 17.6101 12.614C17.6228 12.7054 17.6286 12.9244 17.6286 12.9244C17.6286 13.0314 17.5449 13.119 17.4418 13.119H13.7406" stroke="black" stroke-width="1.5" stroke-linecap="round" stroke-linejoin="round"/>
<path d="M11.8791 15.3484L9.12559 8.65625L6.37305 15.3484" stroke="black" stroke-width="1.5" stroke-linecap="round" stroke-linejoin="round"/>
<path d="M7.35742 12.957H10.8952" stroke="black" stroke-width="1.5" stroke-linecap="round" stroke-linejoin="round"/>
</svg>