<svg width="24" height="24" viewBox="0 0 24 24" fill="none" xmlns="http://www.w3.org/2000/svg">
<path d="M16.2149 21.7542H7.78488C4.47488 21.7542 2.25488 19.4342 2.25488 15.9742V8.02414C2.25488 4.57414 4.47488 2.24414 7.78488 2.24414H16.2149C19.5249 2.24414 21.7449 4.56414 21.7449 8.02414V15.9742C21.7449 19.4242 19.5249 21.7542 16.2149 21.7542ZM7.78488 3.75415C5.33488 3.75415 3.75488 5.43415 3.75488 8.03415V15.9842C3.75488 18.5842 5.33488 20.2642 7.78488 20.2642H16.2149C18.6649 20.2642 20.2449 18.5842 20.2449 15.9842V8.03415C20.2449 5.43415 18.6649 3.75415 16.2149 3.75415H7.78488Z" fill="black"/>
<path d="M14.8351 16.2042C14.3651 16.2042 13.9151 16.1242 13.5651 15.9842C13.1851 15.8342 12.9951 15.3942 13.1451 15.0142C13.2951 14.6342 13.7351 14.4442 14.1151 14.5942C14.5551 14.7642 15.4051 14.7542 15.7551 14.4942C15.8251 14.4442 15.8751 14.3842 15.8551 14.2142C15.8451 14.1142 15.8251 13.9742 15.3651 13.7842L14.5351 13.4542C14.2151 13.3242 13.2451 12.9342 13.1151 11.8142C13.0351 11.1442 13.2751 10.5542 13.7851 10.1642C14.6051 9.5342 16.0351 9.5142 16.8951 9.8542C17.2751 10.0042 17.4651 10.4442 17.3151 10.8242C17.1651 11.2142 16.7251 11.3942 16.3451 11.2442C15.9051 11.0742 15.0551 11.0842 14.7051 11.3442C14.6351 11.3942 14.5851 11.4542 14.6051 11.6242C14.6151 11.7242 14.6351 11.8642 15.0951 12.0542L15.9351 12.3842C16.2551 12.5142 17.2251 12.9042 17.3551 14.0242C17.4351 14.6942 17.1951 15.2742 16.6851 15.6742C16.2051 16.0442 15.5151 16.2042 14.8551 16.2042H14.8351Z" fill="black"/>
<path d="M7.39551 16.2067C6.98551 16.2067 6.64551 15.8667 6.64551 15.4567V8.55664C6.64551 8.14664 6.98551 7.80664 7.39551 7.80664H10.8855C11.2955 7.80664 11.6355 8.14664 11.6355 8.55664C11.6355 8.96664 11.2955 9.30664 10.8855 9.30664H8.14551V11.1767H10.8855C11.2955 11.1767 11.6355 11.5167 11.6355 11.9267C11.6355 12.3367 11.2955 12.6767 10.8855 12.6767H8.14551V15.4567C8.14551 15.8667 7.80551 16.2067 7.39551 16.2067Z" fill="black"/>
</svg>