<svg width="24" height="24" viewBox="0 0 24 24" fill="none" xmlns="http://www.w3.org/2000/svg">
<path fill-rule="evenodd" clip-rule="evenodd" d="M3.7402 3.89737C4.72468 2.84117 6.12669 2.25 7.78216 2.25H16.2169C17.8762 2.25 19.2788 2.84084 20.2629 3.89765C21.2413 4.94841 21.75 6.39889 21.75 8.02638V15.9736C21.75 17.6011 21.2413 19.0516 20.2627 20.1024C19.2785 21.1592 17.8756 21.75 16.2159 21.75H7.78216C6.1228 21.75 4.72038 21.1591 3.73657 20.1023C2.75842 19.0515 2.25 17.601 2.25 15.9736V8.02638C2.25 6.39806 2.76117 4.94771 3.7402 3.89737ZM4.83745 4.92012C4.16024 5.64666 3.75 6.70951 3.75 8.02638V15.9736C3.75 17.2914 4.15861 18.3541 4.83451 19.0802C5.50475 19.8003 6.49341 20.25 7.78216 20.25H16.2159C17.5052 20.25 18.4944 19.8002 19.165 19.0801C19.8412 18.354 20.25 17.2913 20.25 15.9736V8.02638C20.25 6.70868 19.8412 5.64597 19.1651 4.91984C18.4946 4.19975 17.5056 3.75 16.2169 3.75H7.78216C6.49828 3.75 5.50921 4.19943 4.83745 4.92012Z" fill="black"/>
<path fill-rule="evenodd" clip-rule="evenodd" d="M14.4736 9.63672C14.8878 9.63672 15.2236 9.97251 15.2236 10.3867V15.3855C15.2236 15.7997 14.8878 16.1355 14.4736 16.1355C14.0594 16.1355 13.7236 15.7997 13.7236 15.3855V10.3867C13.7236 9.97251 14.0594 9.63672 14.4736 9.63672Z" fill="black"/>
<path fill-rule="evenodd" clip-rule="evenodd" d="M13.7236 13.5476C13.7236 11.5517 15.0293 9.70703 17.0704 9.70703C17.4846 9.70703 17.8204 10.0428 17.8204 10.457C17.8204 10.8712 17.4846 11.207 17.0704 11.207C16.1104 11.207 15.2236 12.1025 15.2236 13.5476C15.2236 13.9618 14.8878 14.2976 14.4736 14.2976C14.0594 14.2976 13.7236 13.9618 13.7236 13.5476Z" fill="black"/>
<path fill-rule="evenodd" clip-rule="evenodd" d="M7.66178 7.75001H9.44079C10.8204 7.75001 11.9405 8.8679 11.9405 10.2487C11.9405 10.9302 11.6681 11.5483 11.226 11.9995C11.6681 12.4507 11.9405 13.0687 11.9405 13.7503C11.9405 15.1315 10.822 16.25 9.44079 16.25H7.66028C7.05477 16.25 6.56055 15.7598 6.56055 15.1503V8.84354C6.56383 8.24219 7.05125 7.74807 7.66178 7.75001ZM9.44079 11.2495C9.99303 11.2495 10.4405 10.8021 10.4405 10.2487C10.4405 9.6975 9.99315 9.25001 9.44079 9.25001H8.06055V11.2495H9.44079ZM8.06055 12.7495H9.44079C9.99303 12.7495 10.4405 13.1968 10.4405 13.7503C10.4405 14.3031 9.99362 14.75 9.44079 14.75H8.06055V12.7495ZM7.65618 9.25001H7.66028C7.65892 9.25001 7.65755 9.25001 7.65618 9.25001Z" fill="black"/>
</svg>