<svg width="24" height="24" viewBox="0 0 24 24" fill="none" xmlns="http://www.w3.org/2000/svg">
<path fill-rule="evenodd" clip-rule="evenodd" d="M10.3661 7.84767C10.6627 7.84611 10.9323 8.01942 11.054 8.28983L14.1159 15.0929C14.2859 15.4706 14.1176 15.9146 13.7398 16.0846C13.3621 16.2546 12.9181 16.0862 12.7481 15.7085L10.3798 10.4466L8.08086 15.7013C7.91484 16.0808 7.47261 16.2538 7.09313 16.0878C6.71365 15.9218 6.5406 15.4796 6.70663 15.1001L9.68295 8.29704C9.80181 8.02536 10.0696 7.84923 10.3661 7.84767Z" fill="black"/>
<path fill-rule="evenodd" clip-rule="evenodd" d="M12.4457 13.9631H8.32129V12.4631H12.4457V13.9631Z" fill="black"/>
<path fill-rule="evenodd" clip-rule="evenodd" d="M16.1504 10.6837C16.5646 10.6837 16.9004 11.0195 16.9004 11.4337V15.3996C16.9004 15.8138 16.5646 16.1496 16.1504 16.1496C15.7362 16.1496 15.4004 15.8138 15.4004 15.3996V11.4337C15.4004 11.0195 15.7362 10.6837 16.1504 10.6837Z" fill="black"/>
<path fill-rule="evenodd" clip-rule="evenodd" d="M12 3.75C7.44329 3.75 3.75 7.44329 3.75 12C3.75 16.5567 7.44329 20.25 12 20.25C16.5567 20.25 20.25 16.5567 20.25 12C20.25 7.44329 16.5567 3.75 12 3.75ZM2.25 12C2.25 6.61487 6.61487 2.25 12 2.25C17.3851 2.25 21.75 6.61487 21.75 12C21.75 17.3851 17.3851 21.75 12 21.75C6.61487 21.75 2.25 17.3851 2.25 12Z" fill="black"/>
<path fill-rule="evenodd" clip-rule="evenodd" d="M15.3633 9.08648C15.3633 8.65279 15.7148 8.30078 16.149 8.30078C16.5825 8.30078 16.9347 8.65219 16.9347 9.08648C16.9347 9.52076 16.5825 9.87217 16.149 9.87217C15.7148 9.87217 15.3633 9.52016 15.3633 9.08648Z" fill="black"/>
</svg>