<svg width="24" height="24" viewBox="0 0 24 24" fill="none" xmlns="http://www.w3.org/2000/svg">
<path fill-rule="evenodd" clip-rule="evenodd" d="M10.3594 11.8391C11.788 11.8391 13.1622 11.7394 14.2142 11.5571C14.3054 11.5413 14.3974 11.5885 14.4261 11.6766C14.5009 11.9064 14.5205 12.1528 14.4794 12.3991L14.3931 12.9172C14.379 13.002 14.3124 13.0683 14.2273 13.0811C13.1238 13.2473 11.7876 13.3391 10.3594 13.3391C8.84259 13.3391 7.42712 13.2378 6.30769 13.0527C6.22456 13.0389 6.15978 12.9738 6.14529 12.8908L6.05944 12.3991C6.01761 12.1398 6.03877 11.8804 6.12879 11.6387C6.16016 11.5544 6.25023 11.5112 6.33869 11.5274C7.39665 11.7207 8.83251 11.8391 10.3594 11.8391ZM11.3694 4.17914C11.0594 4.22914 10.6894 4.25914 10.2694 4.25914C9.84944 4.25914 9.47944 4.22914 9.16944 4.17914C8.93944 4.14914 8.73944 4.10914 8.57944 4.06914C8.96944 3.95914 9.54944 3.86914 10.2694 3.86914C10.9994 3.86914 11.5694 3.95914 11.9594 4.06914C11.7994 4.10914 11.5994 4.14914 11.3694 4.17914ZM20.6824 6.77614C20.9604 6.46914 20.9374 5.99514 20.6294 5.71714C20.3224 5.43914 19.8484 5.46214 19.5704 5.77014L15.4184 10.3581C15.3584 10.2581 15.2794 10.1691 15.1994 10.0791L14.224 9.00616C14.1476 8.92217 14.0306 8.88911 13.9203 8.91586C13.7146 8.96576 13.4879 9.00837 13.2494 9.03914C12.9694 9.08914 12.6594 9.11914 12.3294 9.14914C11.7294 9.20914 11.0394 9.23914 10.2794 9.23914C9.52944 9.23914 8.85944 9.20914 8.26944 9.15914C7.92944 9.12914 7.61944 9.08914 7.32944 9.04914C7.07756 9.00978 6.85045 8.96423 6.63838 8.91736C6.53372 8.89423 6.42442 8.92744 6.35133 9.00585L5.36944 10.0591L5.36344 10.0651L4.91444 9.22114C4.60844 8.60214 4.54144 7.94114 4.72444 7.36114C5.12144 6.11114 6.31144 6.14014 6.81944 6.21214L6.92708 7.22807C6.94048 7.35456 7.0321 7.45938 7.15713 7.48273C7.32318 7.51375 7.51172 7.54144 7.71944 7.56914C7.94944 7.59914 8.20944 7.62914 8.48944 7.64914C9.00944 7.69914 9.60944 7.72914 10.2794 7.73914C10.9694 7.72914 11.5794 7.69914 12.1094 7.64914C12.3894 7.62914 12.6394 7.59914 12.8694 7.56914C13.0752 7.53485 13.2574 7.50526 13.4193 7.47393C13.5455 7.44953 13.6376 7.34313 13.6496 7.21524L13.9294 4.24914V4.06914C13.9294 2.80914 11.9594 2.36914 10.2694 2.36914C8.57944 2.36914 6.60944 2.80914 6.60944 4.06914V4.10914C6.60944 4.15914 6.60944 4.20914 6.61944 4.25914L6.66944 4.69614C5.49344 4.63314 3.88944 5.03314 3.29344 6.90814C2.99344 7.86014 3.09144 8.91814 3.57944 9.90614L4.56944 11.7631C4.55944 11.8621 4.54944 11.9601 4.54944 12.0591C4.53944 12.2491 4.54944 12.4491 4.57944 12.6491L5.72944 19.3291C6.08944 20.7691 7.78944 21.6291 10.2694 21.6291C12.7594 21.6291 14.4594 20.7691 14.8294 19.2691L15.9594 12.6491C15.9894 12.4791 15.9994 12.3091 15.9994 12.1391V12.0791C15.9994 12.0391 15.9994 11.9991 15.9894 11.9691V11.9611L20.6824 6.77614Z" fill="black"/>
</svg>