<svg width="25" height="24" viewBox="0 0 25 24" fill="none" xmlns="http://www.w3.org/2000/svg">
<path d="M7.8618 4.30273L8.32198 8.64578L6.40433 10.7006C5.91883 11.2211 5.70381 11.9392 5.82348 12.6416L6.95403 19.2595C7.24786 20.4446 8.84736 21.0001 10.7728 21.0001C12.6982 21.0001 14.2977 20.4446 14.5916 19.2595L15.7221 12.6416C15.8418 11.9392 15.6268 11.2211 15.1413 10.7006L13.2756 8.64494L13.6833 4.30273" stroke="black" stroke-width="1.5" stroke-linecap="round" stroke-linejoin="round"/>
<path opacity="0.4" d="M5.79883 12.1665C6.90019 12.4973 8.75363 12.7143 10.8552 12.7143C12.8545 12.7143 14.6311 12.5168 15.7519 12.2171" stroke="black" stroke-width="1.5" stroke-linecap="round" stroke-linejoin="round"/>
<path d="M13.6911 8.35693C13.6911 8.67508 12.3319 8.93388 10.7723 8.93486C9.21368 8.93388 7.85352 8.67508 7.85352 8.35693" stroke="black" stroke-width="1.5" stroke-linecap="round" stroke-linejoin="round"/>
<path fill-rule="evenodd" clip-rule="evenodd" d="M13.6834 3.94861C13.6834 4.47302 12.3806 4.89722 10.7723 4.89722C9.16506 4.89722 7.86133 4.47302 7.86133 3.94861C7.86133 3.42517 9.16506 3 10.7723 3C12.3806 3 13.6834 3.42517 13.6834 3.94861Z" stroke="black" stroke-width="1.5" stroke-linecap="round" stroke-linejoin="round"/>
<path opacity="0.4" d="M7.72799 5.64454C7.72799 5.64454 5.22463 4.99851 4.51049 7.2489C4.25753 8.04671 4.37234 8.91554 4.74205 9.66567L5.8405 11.7322" stroke="black" stroke-width="1.5" stroke-linecap="round" stroke-linejoin="round"/>
<path d="M20.6272 6.39307L15.7129 11.822" stroke="black" stroke-width="1.5" stroke-linecap="round" stroke-linejoin="round"/>
</svg>