<svg width="25" height="24" viewBox="0 0 25 24" fill="none" xmlns="http://www.w3.org/2000/svg">
<path d="M10.5276 21.7514C8.0026 21.7514 6.34558 20.9094 5.98158 19.4414L4.8386 12.7694C4.76178 12.3091 4.7913 11.8375 4.92494 11.3904C5.05858 10.9434 5.2928 10.5329 5.6096 10.1904L7.2946 8.38536L6.87059 4.38536C6.84963 4.18751 6.90813 3.98944 7.03321 3.83472C7.1583 3.68 7.33973 3.58131 7.53758 3.56036C7.73543 3.53941 7.93352 3.59791 8.08824 3.723C8.24295 3.84808 8.34164 4.02951 8.36259 4.22736L8.82258 8.57036C8.83368 8.67746 8.82157 8.78569 8.78706 8.88768C8.75254 8.98966 8.69646 9.08302 8.6226 9.16137L6.7046 11.2154C6.54524 11.3883 6.42729 11.5952 6.35972 11.8204C6.29215 12.0456 6.27672 12.2833 6.31459 12.5154L7.4456 19.1334C7.6106 19.7894 8.82458 20.2494 10.5256 20.2494C12.2266 20.2494 13.4396 19.7894 13.6166 19.0784L14.7346 12.5154C14.7734 12.2834 14.7585 12.0455 14.6911 11.8202C14.6237 11.5948 14.5055 11.3879 14.3456 11.2154L12.4736 9.15136C12.4035 9.07424 12.3503 8.98338 12.3172 8.88456C12.2842 8.78574 12.272 8.68112 12.2816 8.57736L12.6886 4.23536C12.6966 4.13681 12.7242 4.04084 12.7698 3.95313C12.8155 3.86541 12.8782 3.78773 12.9544 3.72464C13.0305 3.66155 13.1185 3.61433 13.2132 3.58577C13.3078 3.55722 13.4073 3.5479 13.5056 3.55836C13.7036 3.57711 13.8861 3.67367 14.0131 3.82684C14.14 3.98001 14.201 4.17729 14.1826 4.37536L13.8066 8.38836L15.4546 10.2014C15.7701 10.5429 16.0032 10.9523 16.1358 11.398C16.2684 11.8437 16.2971 12.3139 16.2196 12.7724L15.0896 19.3904C14.7096 20.9094 13.0546 21.7514 10.5276 21.7514Z" fill="black"/>
<path d="M10.609 13.4662C8.83389 13.5042 7.06144 13.3092 5.33702 12.8862C5.24266 12.8579 5.15482 12.8112 5.0785 12.7489C5.00219 12.6866 4.93888 12.6098 4.89222 12.5231C4.84556 12.4363 4.81643 12.3412 4.80653 12.2431C4.79663 12.1451 4.80615 12.0461 4.83451 11.9517C4.86288 11.8574 4.90956 11.7695 4.97187 11.6932C5.03419 11.6169 5.1109 11.5536 5.19767 11.507C5.28445 11.4603 5.37958 11.4312 5.47761 11.4213C5.57564 11.4114 5.67467 11.4209 5.76902 11.4492C7.35324 11.8299 8.98016 12.0033 10.609 11.9652C12.1887 11.9931 13.7662 11.835 15.309 11.4942C15.405 11.4661 15.5057 11.4574 15.6051 11.4688C15.7046 11.4801 15.8007 11.5112 15.8879 11.5603C15.9751 11.6094 16.0516 11.6754 16.1129 11.7545C16.1742 11.8336 16.2191 11.9242 16.2448 12.0209C16.2706 12.1176 16.2767 12.2184 16.2629 12.3175C16.2491 12.4166 16.2156 12.512 16.1643 12.5979C16.1131 12.6839 16.0452 12.7587 15.9646 12.818C15.884 12.8773 15.7923 12.9199 15.695 12.9432C14.0268 13.3212 12.3192 13.4967 10.609 13.4662Z" fill="black"/>
<path d="M10.5274 9.68667C6.85937 9.68667 6.85938 8.68668 6.85938 8.35868C6.85952 8.19929 6.91045 8.04409 7.00476 7.9156C7.09907 7.78711 7.23187 7.692 7.38388 7.64408C7.53589 7.59615 7.69921 7.59791 7.85016 7.64908C8.00111 7.70026 8.13183 7.79819 8.22336 7.92868C9.74043 8.27268 11.3153 8.27268 12.8324 7.92868C12.9239 7.79819 13.0546 7.70026 13.2056 7.64908C13.3565 7.59791 13.5199 7.59615 13.6719 7.64408C13.8239 7.692 13.9567 7.78711 14.051 7.9156C14.1453 8.04409 14.1962 8.19929 14.1964 8.35868C14.1964 8.68668 14.1964 9.68467 10.5274 9.68667Z" fill="black"/>
<path d="M10.5262 5.64854C8.83825 5.64854 6.86523 5.20353 6.86523 3.94853C6.86523 2.69353 8.83825 2.24854 10.5262 2.24854C12.2142 2.24854 14.1873 2.69353 14.1873 3.94853C14.1873 5.20353 12.2152 5.64854 10.5262 5.64854ZM8.83826 3.95053C9.94845 4.21448 11.105 4.21448 12.2152 3.95053C11.1052 3.6852 9.94829 3.6852 8.83826 3.95053Z" fill="black"/>
<path d="M5.59647 12.4834C5.45999 12.4836 5.32604 12.4464 5.20918 12.3759C5.09231 12.3053 4.99698 12.2042 4.93348 12.0834L3.83347 10.0164C3.35262 9.09346 3.25038 8.01947 3.54847 7.02239C3.82205 6.20139 4.40718 5.5207 5.1778 5.12697C5.94843 4.73324 6.84288 4.65797 7.66847 4.91739C7.86128 4.96659 8.02666 5.09036 8.12821 5.26149C8.22976 5.43262 8.25917 5.63708 8.20997 5.82989C8.16077 6.0227 8.03701 6.18808 7.86588 6.28963C7.69476 6.39118 7.49028 6.42059 7.29746 6.37139C6.84359 6.22301 6.35009 6.25437 5.91865 6.45902C5.48721 6.66367 5.15069 7.02602 4.97846 7.47139C4.79966 8.09171 4.86774 8.75714 5.16847 9.32839L6.25547 11.3824C6.31599 11.4965 6.34598 11.6243 6.34254 11.7534C6.33909 11.8825 6.30234 12.0085 6.23582 12.1192C6.1693 12.2299 6.07527 12.3215 5.9629 12.3851C5.85052 12.4488 5.7236 12.4823 5.59446 12.4824L5.59647 12.4834Z" fill="black"/>
<path d="M15.4674 12.5732C15.3221 12.5733 15.1799 12.5313 15.0581 12.4521C14.9363 12.3729 14.8401 12.26 14.7812 12.1272C14.7223 11.9944 14.7032 11.8473 14.7263 11.7039C14.7495 11.5605 14.8138 11.4268 14.9114 11.3192L19.8254 5.89123C19.9603 5.74948 20.1452 5.66605 20.3407 5.65873C20.5362 5.65141 20.7268 5.72077 20.8719 5.85203C21.017 5.98328 21.105 6.16604 21.1173 6.36131C21.1295 6.55657 21.065 6.74889 20.9374 6.89723L16.0234 12.3262C15.9532 12.4041 15.8675 12.4663 15.7717 12.5089C15.6759 12.5515 15.5722 12.5734 15.4674 12.5732Z" fill="black"/>
</svg>