<svg width="25" height="24" viewBox="0 0 25 24" fill="none" xmlns="http://www.w3.org/2000/svg">
<g opacity="0.4">
<path d="M20.7933 13.5742C22.0485 14.2161 22.7051 17.8717 17.5877 18.1758V19.8989C17.5877 19.9436 17.5532 19.9799 17.5105 19.9799H15.8228C15.7922 19.9799 15.7645 19.9611 15.7521 19.9317L14.5559 17.1014C14.0088 17.2501 12.7639 17.2555 12.1614 16.0879C10.8869 17.3244 8.26062 16.8691 8.16406 14.6946" stroke="black" stroke-width="1.5" stroke-linecap="round" stroke-linejoin="round"/>
<path d="M3.7023 9.52148C2.45096 11.3864 2.93984 13.67 4.62922 14.6961C5.75214 15.3782 7.34219 15.2804 8.1631 14.6961C8.70256 14.3122 9.09375 13.7516 9.2881 13.1823" stroke="black" stroke-width="1.5" stroke-linecap="round" stroke-linejoin="round"/>
<path d="M7.48633 5.54542C8.4742 4.96348 10.3626 3.80277 12.7947 4.05747" stroke="black" stroke-width="1.5" stroke-linecap="round" stroke-linejoin="round"/>
<path d="M5.77689 11.3818C1.87613 10.3885 4.541 3.6584 9.23353 6.09095" stroke="black" stroke-width="1.5" stroke-linecap="round" stroke-linejoin="round"/>
<path d="M8.2627 9.11328C8.51385 9.52457 9.33993 9.75481 10.0747 9.54711" stroke="black" stroke-width="1.5" stroke-linecap="round" stroke-linejoin="round"/>
</g>
<path fill-rule="evenodd" clip-rule="evenodd" d="M20.6301 5.12574C21.2811 5.78961 21.682 6.69859 21.682 7.70183C21.682 9.73512 20.0347 11.3824 18.0014 11.3824C16.9724 11.3824 16.0416 10.9597 15.3737 10.2779" stroke="black" stroke-width="1.5" stroke-linecap="round" stroke-linejoin="round"/>
<path fill-rule="evenodd" clip-rule="evenodd" d="M20.6301 5.12574C19.9623 4.44401 19.0319 4.02148 18.0019 4.02148C15.9696 4.02148 14.3213 5.66974 14.3213 7.70204C14.3213 8.70528 14.7228 9.61405 15.3737 10.2779" stroke="black" stroke-width="1.5" stroke-linecap="round" stroke-linejoin="round"/>
<path d="M20.6294 5.125L15.373 10.2772" stroke="black" stroke-width="1.5" stroke-linecap="round" stroke-linejoin="round"/>
</svg>