<svg width="24" height="24" viewBox="0 0 24 24" fill="none" xmlns="http://www.w3.org/2000/svg">
<path d="M7.66406 14.6934C7.76062 16.8678 10.3869 17.3232 11.6614 16.0866C12.2639 17.2542 13.5088 17.2488 14.0559 17.1002L15.2521 19.9305C15.2645 19.9598 15.2922 19.9787 15.3228 19.9787H17.0105C17.0532 19.9787 17.0877 19.9424 17.0877 19.8976V18.1746C19.2958 18.0434 20.4288 17.2882 20.9027 16.4204C21.1604 15.9484 21.2231 15.4432 21.1578 14.9869" stroke="black" stroke-width="1.5" stroke-linecap="round" stroke-linejoin="round"/>
<path d="M3.2023 9.52148C1.95096 11.3864 2.43984 13.67 4.12922 14.6961C5.25214 15.3782 6.84219 15.2804 7.6631 14.6961C8.51482 14.0899 8.99697 13.0434 8.9183 12.2176" stroke="black" stroke-width="1.5" stroke-linecap="round" stroke-linejoin="round"/>
<path d="M6.98633 5.54592C7.74542 5.09875 9.03624 4.30985 10.6969 4.08398" stroke="black" stroke-width="1.5" stroke-linecap="round" stroke-linejoin="round"/>
<path d="M5.27689 11.3818C1.37613 10.3885 4.041 3.6584 8.73353 6.09095" stroke="black" stroke-width="1.5" stroke-linecap="round" stroke-linejoin="round"/>
<path fill-rule="evenodd" clip-rule="evenodd" d="M14.2373 6.5808C13.0517 6.591 12.0933 7.38818 12.0933 8.74431C12.0933 9.62214 12.6151 10.3776 13.366 10.7169C13.6821 10.8448 13.9963 10.8939 14.2355 10.8939H19.3541C19.5932 10.8939 19.9084 10.8476 20.2282 10.7197C20.979 10.3795 21.5 9.62214 21.5 8.74431C21.5 7.38818 20.5415 6.591 19.3559 6.5808C19.3559 5.72801 18.6867 4.02148 16.7966 4.02148C14.9066 4.02148 14.2373 5.72801 14.2373 6.5808Z" stroke="black" stroke-width="1.5" stroke-linecap="round" stroke-linejoin="round"/>
</svg>