<svg width="25" height="24" viewBox="0 0 25 24" fill="none" xmlns="http://www.w3.org/2000/svg">
<g opacity="0.4">
<path d="M4.59925 13.5742C3.34405 14.2161 2.68748 17.8717 7.80484 18.1758V19.8989C7.80484 19.9436 7.83943 19.9799 7.88209 19.9799H9.56983C9.60037 19.9799 9.62804 19.9611 9.64043 19.9317L10.8366 17.1014C11.3838 17.2501 12.6287 17.2555 13.2312 16.0879C14.5057 17.3244 17.132 16.8691 17.2285 14.6946" stroke="black" stroke-width="1.5" stroke-linecap="round" stroke-linejoin="round"/>
<path d="M21.6903 9.52148C22.9416 11.3864 22.4527 13.67 20.7634 14.6961C19.6404 15.3782 18.0504 15.2804 17.2295 14.6961C16.69 14.3122 16.2988 13.7516 16.1045 13.1823" stroke="black" stroke-width="1.5" stroke-linecap="round" stroke-linejoin="round"/>
<path d="M17.9062 5.54542C16.9184 4.96348 15.03 3.80277 12.5979 4.05747" stroke="black" stroke-width="1.5" stroke-linecap="round" stroke-linejoin="round"/>
<path d="M19.6157 11.3818C23.5165 10.3885 20.8516 3.6584 16.1591 6.09095" stroke="black" stroke-width="1.5" stroke-linecap="round" stroke-linejoin="round"/>
</g>
<path d="M4.60017 9.55915C5.48409 9.55915 6.19934 8.84339 6.19934 7.95975C6.19934 7.0761 5.48409 6.35938 4.60017 6.35938C3.71625 6.35938 3 7.0761 3 7.95975C3 8.84339 3.71625 9.55915 4.60017 9.55915Z" stroke="black" stroke-width="1.5" stroke-linecap="round" stroke-linejoin="round"/>
<path d="M6.19876 7.96017L6.19977 4.02148C6.19977 4.02148 6.61551 5.10223 7.73398 5.33045" stroke="black" stroke-width="1.5" stroke-linecap="round" stroke-linejoin="round"/>
<path d="M9.91023 12.1296C10.5881 12.1296 11.1366 11.5807 11.1366 10.9031C11.1366 10.2254 10.5881 9.67578 9.91023 9.67578C9.23237 9.67578 8.68311 10.2254 8.68311 10.9031C8.68311 11.5807 9.23237 12.1296 9.91023 12.1296Z" stroke="black" stroke-width="1.5" stroke-linecap="round" stroke-linejoin="round"/>
<path d="M11.1353 10.9041L11.1361 7.4043C11.1361 7.4043 11.5056 8.36463 12.4994 8.56742" stroke="black" stroke-width="1.5" stroke-linecap="round" stroke-linejoin="round"/>
</svg>