<svg width="24" height="24" viewBox="0 0 24 24" fill="none" xmlns="http://www.w3.org/2000/svg">
<path d="M13.9804 22.2296C13.9804 22.2296 13.8903 22.2296 13.8403 22.2196C13.4303 22.1396 13.1604 21.7496 13.2404 21.3496C13.2804 21.1396 13.6504 19.3096 14.9304 18.6396C15.3004 18.4496 15.7503 18.5896 15.9403 18.9496C16.1303 19.3196 15.9903 19.7696 15.6303 19.9596C15.1203 20.2296 14.8003 21.1896 14.7203 21.6196C14.6503 21.9796 14.3404 22.2296 13.9804 22.2296Z" fill="black"/>
<path d="M16.9703 20.4206L14.1703 19.7906C12.9703 19.5306 12.7604 18.5506 12.6104 17.8406C12.5804 17.6906 12.5403 17.5306 12.5003 17.3806C12.3903 16.9806 12.6203 16.5706 13.0203 16.4606C13.4303 16.3506 13.8303 16.5806 13.9403 16.9806C13.9903 17.1706 14.0303 17.3506 14.0703 17.5306C14.2203 18.2506 14.2804 18.2906 14.4904 18.3306L17.2803 18.9606C17.4003 18.9906 17.5303 18.9706 17.6003 18.9206C17.6603 18.8806 17.6903 18.8106 17.7103 18.7106L18.0203 16.0906C18.1303 15.4906 18.5003 15.0506 19.0203 14.8606L19.9403 14.5006C18.6303 12.7006 18.1203 11.2306 18.4003 9.96061C18.8503 7.92061 18.1603 6.21062 16.2303 4.58062C15.0903 3.62062 13.6104 3.18062 11.6104 3.23062H11.5903C11.1803 3.23062 10.8503 2.90062 10.8403 2.50062C10.8403 2.09062 11.1603 1.74062 11.5703 1.73062C13.9903 1.69062 15.7603 2.22061 17.1903 3.43061C19.5603 5.43061 20.4303 7.67062 19.8503 10.2806C19.6703 11.0806 20.1003 12.1906 21.1303 13.5706C21.4203 13.9606 21.5103 14.4506 21.3803 14.9006C21.2503 15.3506 20.9103 15.7106 20.4603 15.8906L19.5303 16.2506L19.1804 18.9006C19.1004 19.4406 18.8403 19.8706 18.4403 20.1506C18.0529 20.4218 17.4315 20.5071 16.9703 20.4206Z" fill="black"/>
<path d="M6.63019 10.4997C4.47019 10.4997 2.72021 8.74969 2.72021 6.58969C2.72021 4.42969 4.47019 2.67969 6.63019 2.67969C8.79019 2.67969 10.5402 4.42969 10.5402 6.58969C10.5402 8.74969 8.79019 10.4997 6.63019 10.4997ZM6.63019 4.17969C5.30019 4.17969 4.22021 5.25969 4.22021 6.58969C4.22021 7.91969 5.30019 8.99969 6.63019 8.99969C7.96019 8.99969 9.04022 7.91969 9.04022 6.58969C9.04022 5.25969 7.96019 4.17969 6.63019 4.17969Z" fill="black"/>
<path d="M7.61035 8.15953C7.48035 8.15953 7.35035 8.12955 7.23035 8.04955L6.23035 7.44954C6.00035 7.30954 5.86035 7.06954 5.86035 6.80954V5.51953C5.86035 5.10953 6.20035 4.76953 6.61035 4.76953C7.02035 4.76953 7.36035 5.10953 7.36035 5.51953V6.37953L7.99036 6.75954C8.35036 6.96954 8.46031 7.42954 8.25031 7.78954C8.11031 8.01954 7.86035 8.14954 7.61035 8.14954V8.15953Z" fill="black"/>
<path d="M5.28037 21.9996C5.18037 21.9996 5.08038 21.9796 4.98038 21.9396C4.60038 21.7696 4.43037 21.3296 4.59037 20.9496C5.60037 18.6396 5.31039 16.0396 3.74039 13.2096C3.54039 12.8496 3.67037 12.3896 4.03037 12.1896C4.40037 11.9896 4.85039 12.1196 5.05039 12.4796C6.84039 15.6896 7.16037 18.8296 5.97037 21.5496C5.85037 21.8296 5.57037 21.9996 5.28037 21.9996Z" fill="black"/>
</svg>