<svg width="24" height="24" viewBox="0 0 24 24" fill="none" xmlns="http://www.w3.org/2000/svg">
<path d="M7.66357 14.6942C7.76013 16.8687 10.3864 17.324 11.6609 16.0874C12.2634 17.2551 13.5083 17.2496 14.0555 17.101L15.2517 19.9313C15.264 19.9606 15.2917 19.9795 15.3223 19.9795H17.01C17.0527 19.9795 17.0872 19.9432 17.0872 19.8984V18.1754C22.2046 17.8713 21.548 14.2157 20.2928 13.5738C22.5715 11.4048 21.0653 9.4452 20.2928 8.66814C20.0085 7.86686 19.3852 6.66128 18.0142 6.25586" stroke="black" stroke-width="1.5" stroke-linecap="round" stroke-linejoin="round"/>
<path d="M7.6631 14.6956C6.84219 15.2799 5.25214 15.3777 4.12922 14.6956C2.43984 13.6695 1.95096 11.386 3.2023 9.521L3.39941 9.26172" stroke="black" stroke-width="1.5" stroke-linecap="round" stroke-linejoin="round"/>
<path d="M6.98633 5.54542C8.16286 4.85235 10.6168 3.33832 13.7451 4.37216" stroke="black" stroke-width="1.5" stroke-linecap="round" stroke-linejoin="round"/>
<path d="M12.6011 5.66594C14.9539 2.15509 19.3495 5.27707 17.4977 7.78654C17.4828 7.80674 17.4655 7.82641 17.4476 7.84404L16.7235 8.55925" stroke="black" stroke-width="1.5" stroke-linecap="round" stroke-linejoin="round"/>
<path d="M5.2764 11.3818C1.39042 10.3922 4.02041 3.70933 8.67977 6.06368C8.71419 6.08108 8.74797 6.10342 8.77757 6.12815L9.84775 7.02204" stroke="black" stroke-width="1.5" stroke-linecap="round" stroke-linejoin="round"/>
<path d="M14.054 17.0884L15.1361 13.5843L12.3545 10.588V5.81641" stroke="black" stroke-width="1.5" stroke-linecap="round" stroke-linejoin="round"/>
<path d="M4.93945 6.15234L7.05192 8.81043L5.29203 11.3846L5.66455 15.1231" stroke="black" stroke-width="1.5" stroke-linecap="round" stroke-linejoin="round"/>
<path d="M15.1567 13.5898H20.2792" stroke="black" stroke-width="1.5" stroke-linecap="round" stroke-linejoin="round"/>
<path d="M15.1582 13.5681L20.2456 8.65291L12.3774 8.51953" stroke="black" stroke-width="1.5" stroke-linecap="round" stroke-linejoin="round"/>
<path d="M8.95398 12.2444L12.4082 10.5888L7.04639 8.8195L12.6008 5.67578M8.95398 12.2444L11.6296 16.0447M8.95398 12.2444L7.64277 14.6516" stroke="black" stroke-width="1.5" stroke-linecap="round" stroke-linejoin="round"/>
<path d="M18.8995 17.7971L15.1572 13.5898" stroke="black" stroke-width="1.5" stroke-linecap="round" stroke-linejoin="round"/>
</svg>