<svg width="24" height="24" viewBox="0 0 24 24" fill="none" xmlns="http://www.w3.org/2000/svg">
<path d="M5.71034 22.2304C5.71034 22.2304 5.66035 22.2304 5.63035 22.2304C5.22035 22.1904 4.92034 21.8204 4.96034 21.4104C5.10034 20.1304 5.31035 16.5004 4.69035 15.0104L4.41035 14.3404C3.39035 11.9404 2.34034 9.4704 3.62034 6.5304C4.90034 3.5704 7.79034 1.83042 11.5303 1.74042C13.8803 1.70042 15.6504 2.2204 17.0704 3.4104C19.1204 5.1404 19.3903 7.40042 19.6203 9.40042C19.6803 9.94042 19.7403 10.4704 19.8403 10.9704C19.9303 11.4104 20.1703 11.9204 20.4203 12.4504C20.6903 13.0204 20.9703 13.6004 21.1203 14.2204C21.3403 15.6104 20.2304 15.9204 19.7604 16.0504C19.6204 16.0904 19.3503 16.1704 19.3003 16.2204L19.1703 18.5804C19.0103 19.4404 18.2803 20.0704 17.4103 20.1104L14.9003 20.2304V21.4704C14.9003 21.8804 14.5603 22.2204 14.1503 22.2204C13.7403 22.2204 13.4003 21.8804 13.4003 21.4704V20.1404C13.4003 19.3904 13.9804 18.7804 14.7304 18.7404L17.3403 18.6204C17.5003 18.6204 17.6403 18.5004 17.6903 18.3404L17.8204 15.9704C18.0104 14.9804 18.8903 14.7304 19.3603 14.6004C19.4503 14.5804 19.5603 14.5404 19.6503 14.5104C19.5403 14.0504 19.3104 13.5804 19.0704 13.0804C18.7904 12.4804 18.4903 11.8704 18.3703 11.2404C18.2703 10.7004 18.2003 10.1304 18.1303 9.5604C17.9103 7.6704 17.7004 5.89041 16.1004 4.54041C14.9804 3.60041 13.5503 3.1704 11.5603 3.2204C8.43034 3.2904 6.03034 4.7104 5.00034 7.1004C3.98034 9.4404 4.82033 11.4304 5.80033 13.7204L6.09034 14.4004C6.97034 16.5104 6.52035 21.0304 6.47035 21.5404C6.43035 21.9304 6.10035 22.2104 5.72035 22.2104L5.71034 22.2304Z" fill="black"/>
<path d="M8.24023 12.3411C8.06023 12.3411 7.88026 12.2711 7.73026 12.1411L5.98026 10.5311C5.83026 10.3911 5.74023 10.1911 5.74023 9.98113C5.74023 9.77113 5.83026 9.57114 5.98026 9.43114L7.73026 7.82112C8.04026 7.54112 8.51025 7.56113 8.79025 7.86113C9.07025 8.16113 9.05024 8.64113 8.75024 8.92113L7.60025 9.98113L8.75024 11.0411C9.05024 11.3211 9.07025 11.8011 8.79025 12.1011C8.64025 12.2611 8.44023 12.3411 8.24023 12.3411Z" fill="black"/>
<path d="M14.1802 12.3408C13.9802 12.3408 13.7802 12.2608 13.6302 12.1008C13.3502 11.8008 13.3702 11.3208 13.6702 11.0408L14.8202 9.98079L13.6702 8.92079C13.3702 8.64079 13.3502 8.17079 13.6302 7.86079C13.9102 7.55079 14.3902 7.54078 14.6902 7.82078L16.4402 9.4308C16.5902 9.5708 16.6802 9.77079 16.6802 9.98079C16.6802 10.1908 16.5902 10.3908 16.4402 10.5308L14.6902 12.1408C14.5502 12.2708 14.3602 12.3408 14.1802 12.3408Z" fill="black"/>
<path d="M10.0403 13.7796C9.96031 13.7796 9.8703 13.7696 9.7803 13.7396C9.3903 13.5996 9.19029 13.1696 9.33029 12.7796L11.6603 6.36965C11.8003 5.97965 12.2303 5.77964 12.6203 5.91964C13.0103 6.05964 13.2103 6.48963 13.0703 6.87963L10.7403 13.2896C10.6303 13.5896 10.3403 13.7796 10.0303 13.7796H10.0403Z" fill="black"/>
</svg>