<svg width="24" height="24" viewBox="0 0 24 24" fill="none" xmlns="http://www.w3.org/2000/svg">
<path d="M13.4328 22.2296C13.4328 22.2296 13.3428 22.2296 13.2928 22.2196C12.8828 22.1396 12.6128 21.7496 12.6928 21.3496C12.7328 21.1396 13.1028 19.3096 14.3828 18.6396C14.7528 18.4496 15.2028 18.5896 15.3928 18.9496C15.5828 19.3196 15.4428 19.7696 15.0828 19.9596C14.5728 20.2296 14.2528 21.1896 14.1728 21.6196C14.1028 21.9796 13.7928 22.2296 13.4328 22.2296Z" fill="black"/>
<path d="M16.4227 20.4209L13.6327 19.7909C12.4327 19.5309 12.2227 18.5509 12.0727 17.8309C12.0427 17.6809 12.0127 17.5209 11.9627 17.3709C11.8527 16.9709 12.0827 16.5609 12.4827 16.4509C12.8827 16.3409 13.2927 16.5709 13.4027 16.9709C13.4527 17.1609 13.4927 17.3409 13.5327 17.5209C13.6827 18.2409 13.7427 18.2809 13.9527 18.3209L16.7427 18.9509C16.8727 18.9809 16.9927 18.9609 17.0627 18.9109C17.1227 18.8709 17.1527 18.8009 17.1727 18.7009L17.4827 16.0809C17.5927 15.4909 17.9727 15.0409 18.4727 14.8509L19.4027 14.4909C18.0927 12.6909 17.5827 11.2209 17.8627 9.95086C18.3127 7.91086 17.6227 6.20086 15.6927 4.57086C14.5527 3.61086 13.0627 3.18085 11.0727 3.22085C10.6827 3.24085 10.3127 2.90087 10.3027 2.49087C10.3027 2.08087 10.6227 1.73085 11.0327 1.72085C13.4327 1.68085 15.2227 2.21086 16.6527 3.42086C19.0227 5.42086 19.8927 7.66087 19.3127 10.2709C19.1327 11.0709 19.5627 12.1808 20.5927 13.5608C20.8827 13.9508 20.9727 14.4409 20.8427 14.8909C20.7127 15.3409 20.3727 15.7009 19.9227 15.8809L18.9927 16.2409L18.6427 18.8909C18.5627 19.4309 18.3027 19.8609 17.9027 20.1409C17.4754 20.44 16.9293 20.5158 16.4227 20.4209Z" fill="black"/>
<path d="M4.73302 21.9996C4.63302 21.9996 4.53302 21.9796 4.43302 21.9396C4.05302 21.7696 3.88302 21.3296 4.04302 20.9496C5.05302 18.6396 4.77302 16.0396 3.19302 13.2096C2.99302 12.8496 3.12302 12.3896 3.48302 12.1896C3.84302 11.9896 4.30302 12.1196 4.50302 12.4796C6.29302 15.6896 6.61302 18.8296 5.42302 21.5496C5.30302 21.8296 5.02302 21.9996 4.73302 21.9996Z" fill="black"/>
<path d="M7.60272 11.8914C6.65272 11.8914 5.76272 11.4913 5.05272 10.7213C4.24272 9.84134 3.81272 8.54135 3.87272 7.16135C3.94272 5.40135 4.49272 3.95134 4.67272 3.59134C4.80272 3.32134 5.08272 3.16137 5.39272 3.18137C5.80272 3.21137 7.33272 3.46134 8.88272 4.28134C10.1027 4.92134 11.0127 5.94136 11.3727 7.08136C11.8427 8.58136 11.3727 10.0414 10.0927 10.9914C9.93272 11.1314 9.50272 11.4713 8.67272 11.7213C8.31272 11.8313 7.95272 11.8914 7.60272 11.8914ZM5.82272 4.76135C5.64272 5.30135 5.41272 6.21135 5.37272 7.23135C5.33272 8.21135 5.62272 9.12137 6.16272 9.71137C6.49272 10.0714 7.19272 10.6114 8.23272 10.2914C8.84272 10.1014 9.08272 9.88135 9.09272 9.88135C9.11272 9.86135 9.15272 9.83134 9.17272 9.81134C10.2227 9.04134 10.1027 8.05134 9.94272 7.53134C9.70272 6.76134 9.06272 6.06136 8.19272 5.61136C7.29272 5.14136 6.39272 4.89136 5.83272 4.77136L5.82272 4.76135Z" fill="black"/>
<path d="M10.1131 13.1202C9.74315 13.1202 9.41315 12.8402 9.37315 12.4602C9.16315 10.7402 8.38315 9.40018 6.84315 8.11018C6.52315 7.84018 6.48315 7.37018 6.75315 7.05018C7.01315 6.73018 7.49315 6.69018 7.81315 6.96018C9.64315 8.49018 10.6131 10.1802 10.8731 12.2802C10.9231 12.6902 10.6331 13.0602 10.2231 13.1102C10.1931 13.1102 10.1631 13.1102 10.1331 13.1102L10.1131 13.1202Z" fill="black"/>
</svg>