<svg width="24" height="24" viewBox="0 0 24 24" fill="none" xmlns="http://www.w3.org/2000/svg">
<path d="M13.9066 22.2706C13.9066 22.2706 13.8166 22.2706 13.7666 22.2606C13.3566 22.1806 13.0966 21.7906 13.1666 21.3906C13.2066 21.1806 13.5766 19.3506 14.8566 18.6806C15.2266 18.4906 15.6766 18.6306 15.8666 18.9906C16.0566 19.3606 15.9166 19.8106 15.5566 20.0006C15.0566 20.2606 14.7266 21.2306 14.6466 21.6606C14.5766 22.0206 14.2666 22.2706 13.9066 22.2706Z" fill="black"/>
<path d="M16.8969 20.4621L14.1068 19.8321C12.9068 19.5721 12.6969 18.5921 12.5469 17.8721C12.5169 17.7221 12.4869 17.5621 12.4369 17.4121C12.3269 17.0121 12.5569 16.6021 12.9569 16.4921C13.3569 16.3821 13.7669 16.6121 13.8769 17.0121C13.9269 17.2021 13.9669 17.3821 14.0069 17.5621C14.1569 18.2821 14.2169 18.3221 14.4269 18.3621L17.2169 18.9921C17.3369 19.0221 17.4668 19.0021 17.5368 18.9521C17.5968 18.9121 17.6269 18.8421 17.6469 18.7321L17.9569 16.1121C18.0669 15.5221 18.4369 15.0821 18.9469 14.8821L19.8769 14.5221C18.5669 12.7221 18.0569 11.2521 18.3369 9.9821C18.7869 7.9421 18.0969 6.2321 16.1669 4.6021C15.0269 3.6421 13.5569 3.2021 11.5469 3.2521C11.1369 3.2521 10.7869 2.9321 10.7769 2.5221C10.7769 2.1121 11.0969 1.7621 11.5069 1.7521C13.9069 1.7121 15.6969 2.2421 17.1269 3.4521C19.4969 5.4521 20.3668 7.6921 19.7868 10.3021C19.6068 11.1021 20.0369 12.2121 21.0669 13.5921C21.3569 13.9821 21.4469 14.4721 21.3169 14.9221C21.1869 15.3721 20.8469 15.7321 20.3969 15.9121L19.4669 16.2721L19.1169 18.9221C19.0369 19.4621 18.7769 19.8921 18.3769 20.1721C17.9843 20.4469 17.3649 20.5499 16.8969 20.4621Z" fill="black"/>
<path d="M5.20666 22.0306C5.10666 22.0306 5.00665 22.0106 4.90665 21.9706C4.52665 21.8006 4.35666 21.3606 4.51666 20.9806C5.52666 18.6706 5.24666 16.0706 3.66666 13.2506C3.46666 12.8906 3.59666 12.4306 3.95666 12.2306C4.31666 12.0306 4.77665 12.1606 4.97665 12.5206C6.76665 15.7306 7.08665 18.8706 5.89665 21.5906C5.77665 21.8706 5.49666 22.0406 5.20666 22.0406V22.0306Z" fill="black"/>
<path d="M6.66784 11.1833C6.54784 11.1833 6.41785 11.1633 6.29785 11.1233C5.80785 10.9633 5.47785 10.5133 5.47785 9.99328V8.19328H3.81784C3.36784 8.19328 2.96784 7.94328 2.75784 7.54328C2.54784 7.14328 2.58784 6.67328 2.85784 6.30328L5.80784 2.24328C6.10784 1.82328 6.64784 1.65328 7.13784 1.81328C7.62784 1.97328 7.95784 2.42328 7.95784 2.94328V4.74328H9.61785C10.0678 4.74328 10.4678 4.99328 10.6778 5.39328C10.8778 5.79328 10.8478 6.26328 10.5778 6.63328L7.62784 10.6933C7.39784 11.0033 7.03784 11.1833 6.66784 11.1833ZM4.42784 6.69328H6.22785C6.63785 6.69328 6.97785 7.03328 6.97785 7.44328V9.03328L9.00784 6.24328H7.20784C6.79784 6.24328 6.45784 5.90328 6.45784 5.49328V3.90328L4.42784 6.69328Z" fill="black"/>
</svg>