<svg width="24" height="24" viewBox="0 0 24 24" fill="none" xmlns="http://www.w3.org/2000/svg">
<path d="M9.52782 22.2789C9.17782 22.2789 8.85782 22.0289 8.78782 21.6689C8.70782 21.2389 8.37782 20.2689 7.87782 20.0089C7.50782 19.8189 7.36782 19.3589 7.56782 18.9989C7.75782 18.6289 8.21783 18.4889 8.57783 18.6889C9.85783 19.3589 10.2278 21.1989 10.2678 21.3989C10.3378 21.8089 10.0778 22.1989 9.66782 22.2689C9.61782 22.2689 9.57782 22.2789 9.52782 22.2789Z" fill="black"/>
<path d="M5.0372 20.1992C4.6372 19.9192 4.3772 19.4892 4.2972 18.9792L3.9872 16.3092L3.0172 15.9492C2.5672 15.7792 2.2272 15.4192 2.0972 14.9592C1.9672 14.4992 2.0572 14.0192 2.3472 13.6292C3.3772 12.2492 3.8072 11.1392 3.6272 10.3392C3.0472 7.72921 3.91721 5.48921 6.28721 3.48921C7.72721 2.27921 9.5072 1.74921 11.9072 1.78921C13.1772 1.81921 14.3872 2.03921 15.5072 2.45921C15.8972 2.59921 16.0972 3.03921 15.9472 3.41921C15.8072 3.80921 15.3672 3.99921 14.9872 3.85921C14.0372 3.50921 12.9672 3.30921 11.8772 3.27921C9.8672 3.22921 8.39721 3.65921 7.25721 4.62921C5.32721 6.25921 4.63721 7.96921 5.08721 10.0092C5.36721 11.2692 4.8572 12.7492 3.5472 14.5192L4.47721 14.9092C4.98721 15.1092 5.3572 15.5492 5.4572 16.0892L5.77721 18.7892C5.78721 18.8692 5.82721 18.9392 5.88721 18.9792C5.95721 19.0292 6.07721 19.0392 6.21721 19.0192L8.9872 18.3992C9.1972 18.3492 9.2572 18.3092 9.4072 17.5892C9.4472 17.4092 9.48721 17.2292 9.53721 17.0392C9.64721 16.6392 10.0572 16.4092 10.4572 16.5192C10.8572 16.6292 11.0872 17.0392 10.9772 17.4392C10.9372 17.5992 10.8972 17.7492 10.8672 17.8992C10.7172 18.6092 10.5072 19.5892 9.30721 19.8592L6.52721 20.4892C6.02383 20.5899 5.46206 20.4966 5.0372 20.1992Z" fill="black"/>
<path d="M18.2278 22.0387C17.9378 22.0387 17.6678 21.8687 17.5378 21.5887C16.3478 18.8687 16.6578 15.7287 18.4578 12.5187C18.6578 12.1587 19.1178 12.0287 19.4778 12.2287C19.8378 12.4287 19.9678 12.8887 19.7678 13.2487C18.1878 16.0687 17.8978 18.6787 18.9178 20.9787C19.0878 21.3587 18.9178 21.7987 18.5278 21.9687C18.4278 22.0087 18.3278 22.0287 18.2278 22.0287V22.0387Z" fill="black"/>
<path d="M17.2676 9.85992C17.0676 9.85992 16.8776 9.77992 16.7376 9.63992L15.1076 7.99992C14.8176 7.70992 14.8176 7.22992 15.1076 6.93992C15.3976 6.64992 15.8776 6.64992 16.1676 6.93992L17.2676 8.03992L20.1076 5.19992C20.3976 4.90992 20.8776 4.90992 21.1676 5.19992C21.4576 5.48992 21.4576 5.96992 21.1676 6.25992L17.7976 9.62992C17.6576 9.76992 17.4676 9.84992 17.2676 9.84992V9.85992Z" fill="black"/>
</svg>