<svg width="24" height="24" viewBox="0 0 24 24" fill="none" xmlns="http://www.w3.org/2000/svg">
<path d="M20.2933 13.5742C21.5485 14.2161 22.2051 17.8717 17.0877 18.1758V19.8989C17.0877 19.9436 17.0532 19.9799 17.0105 19.9799H15.3228C15.2922 19.9799 15.2645 19.9611 15.2521 19.9317L14.0559 17.1014C13.5088 17.2501 12.2639 17.2555 11.6614 16.0879C10.3869 17.3244 7.76062 16.8691 7.66406 14.6946" stroke="black" stroke-width="1.5" stroke-linecap="round" stroke-linejoin="round"/>
<path d="M3.2023 9.52148C1.95096 11.3864 2.43984 13.67 4.12922 14.6961C5.25214 15.3782 6.84219 15.2804 7.6631 14.6961C8.20256 14.3122 8.59375 13.7516 8.7881 13.1823" stroke="black" stroke-width="1.5" stroke-linecap="round" stroke-linejoin="round"/>
<path d="M6.98633 5.54542C7.9742 4.96348 9.86262 3.80277 12.2947 4.05747" stroke="black" stroke-width="1.5" stroke-linecap="round" stroke-linejoin="round"/>
<path d="M5.27689 11.3818C1.37613 10.3885 4.041 3.6584 8.73353 6.09095" stroke="black" stroke-width="1.5" stroke-linecap="round" stroke-linejoin="round"/>
<path d="M7.7627 9.11328C8.01385 9.52457 8.83993 9.75481 9.57475 9.54711" stroke="black" stroke-width="1.5" stroke-linecap="round" stroke-linejoin="round"/>
<path fill-rule="evenodd" clip-rule="evenodd" d="M20.1301 5.12574C20.781 5.78961 21.1819 6.69859 21.1819 7.70183C21.1819 9.73512 19.5347 11.3824 17.5014 11.3824C16.4723 11.3824 15.5415 10.9597 14.8737 10.2779" stroke="black" stroke-width="1.5" stroke-linecap="round" stroke-linejoin="round"/>
<path fill-rule="evenodd" clip-rule="evenodd" d="M20.1301 5.12574C19.4622 4.44401 18.5319 4.02148 17.5018 4.02148C15.4695 4.02148 13.8213 5.66974 13.8213 7.70204C13.8213 8.70528 14.2227 9.61405 14.8737 10.2779" stroke="black" stroke-width="1.5" stroke-linecap="round" stroke-linejoin="round"/>
<path d="M20.1294 5.125L14.873 10.2772" stroke="black" stroke-width="1.5" stroke-linecap="round" stroke-linejoin="round"/>
</svg>