<svg width="24" height="24" viewBox="0 0 24 24" fill="none" xmlns="http://www.w3.org/2000/svg">
<path d="M5.71031 22.2304C5.71031 22.2304 5.6603 22.2304 5.6303 22.2304C5.2203 22.1904 4.92031 21.8204 4.96031 21.4104C5.10031 20.1304 5.31029 16.5004 4.69029 15.0104L4.41033 14.3404C3.39033 11.9404 2.34035 9.4704 3.62035 6.5304C4.90035 3.5704 7.79032 1.83042 11.5303 1.74042C13.8903 1.70042 15.6503 2.2204 17.0703 3.4104C19.1203 5.1404 19.3903 7.40039 19.6203 9.40039C19.6803 9.94039 19.7403 10.4704 19.8403 10.9704C19.9303 11.4104 20.1703 11.9204 20.4203 12.4504C20.6903 13.0104 20.9703 13.6004 21.1203 14.2204C21.3403 15.6104 20.2303 15.9204 19.7603 16.0504C19.6203 16.0904 19.3503 16.1704 19.3003 16.2204L19.1803 18.4804C19.1803 18.4804 19.1803 18.5504 19.1703 18.5804C19.0103 19.4404 18.2803 20.0704 17.4103 20.1104L14.9003 20.2304V21.4704C14.9003 21.6704 14.8203 21.8604 14.6803 22.0004C14.5403 22.1404 14.3203 22.1904 14.1503 22.2204L11.3403 22.2004C10.9303 22.2004 10.6003 21.8604 10.6003 21.4504V11.9704C10.6003 11.5604 10.9403 11.2204 11.3503 11.2204C11.7603 11.2204 12.1003 11.5604 12.1003 11.9704V20.7104H13.4103V20.1504C13.4103 19.4004 13.9903 18.7904 14.7403 18.7504L17.3503 18.6304C17.5103 18.6304 17.6503 18.5104 17.7003 18.3504L17.8203 16.0904C17.8203 16.0904 17.8203 16.0204 17.8303 15.9904C18.0203 15.0004 18.9003 14.7504 19.3703 14.6204C19.4603 14.6004 19.5703 14.5604 19.6603 14.5304C19.5503 14.0704 19.3203 13.6004 19.0903 13.1104C18.8003 12.5104 18.5103 11.9004 18.3903 11.2704C18.2903 10.7304 18.2203 10.1604 18.1503 9.59039C17.9303 7.7004 17.7203 5.92044 16.1203 4.57044C15.0003 3.63044 13.5703 3.20043 11.5803 3.25043C8.45031 3.32043 6.05031 4.74043 5.02031 7.13043C4.00031 9.47043 4.8403 11.4604 5.8203 13.7504L6.11034 14.4304C6.99034 16.5404 6.54034 21.0604 6.49034 21.5704C6.45034 21.9604 6.12034 22.2404 5.74034 22.2404L5.71031 22.2304Z" fill="black"/>
<path d="M11.3704 12.7207C10.2704 12.7207 9.37036 11.8207 9.37036 10.7207C9.37036 9.6207 10.2704 8.7207 11.3704 8.7207C12.4704 8.7207 13.3704 9.6207 13.3704 10.7207C13.3704 11.8207 12.4704 12.7207 11.3704 12.7207ZM11.3704 10.2207C11.0904 10.2207 10.8704 10.4407 10.8704 10.7207C10.8704 11.0007 11.0904 11.2207 11.3704 11.2207C11.6504 11.2207 11.8704 11.0007 11.8704 10.7207C11.8704 10.4407 11.6504 10.2207 11.3704 10.2207Z" fill="black"/>
<path d="M8.60035 14.2406C8.41035 14.2406 8.22032 14.1706 8.07032 14.0206C6.25032 12.2006 6.25032 9.24063 8.07032 7.42063C8.36032 7.13063 8.84032 7.13063 9.13032 7.42063C9.42032 7.71062 9.42032 8.19062 9.13032 8.48062C7.90032 9.71062 7.90032 11.7206 9.13032 12.9606C9.42032 13.2506 9.42032 13.7306 9.13032 14.0206C8.98032 14.1706 8.79035 14.2406 8.60035 14.2406Z" fill="black"/>
<path d="M14.1403 14.2406C13.9503 14.2406 13.7603 14.1706 13.6103 14.0206C13.3203 13.7306 13.3203 13.2506 13.6103 12.9606C14.2103 12.3606 14.5403 11.5706 14.5403 10.7206C14.5403 9.87061 14.2103 9.08062 13.6103 8.48062C13.3203 8.19062 13.3203 7.71062 13.6103 7.42063C13.9003 7.13063 14.3803 7.13063 14.6703 7.42063C15.5503 8.30062 16.0403 9.47061 16.0403 10.7206C16.0403 11.9706 15.5503 13.1406 14.6703 14.0206C14.5203 14.1706 14.3303 14.2406 14.1403 14.2406Z" fill="black"/>
</svg>