<svg width="24" height="24" viewBox="0 0 24 24" fill="none" xmlns="http://www.w3.org/2000/svg">
<path fill-rule="evenodd" clip-rule="evenodd" d="M4.05604 13.2329C3.86744 12.8641 3.41559 12.718 3.04681 12.9066C2.51622 13.178 2.13654 13.7076 1.93461 14.2666C1.72682 14.8419 1.67268 15.5361 1.88475 16.2231C2.29187 17.5419 3.56383 18.5637 5.84389 18.8588V19.899C5.84389 20.3233 6.18035 20.7301 6.67113 20.7301H8.35887C8.70689 20.7301 8.99699 20.5157 9.12031 20.2239C9.12031 20.2239 9.12032 20.2239 9.12032 20.2239L10.0944 17.9192C10.3748 17.9271 10.6864 17.8987 11.0024 17.8112C11.412 17.6977 11.8303 17.4831 12.1854 17.1263C12.9506 17.5344 13.8643 17.6156 14.6622 17.3929C15.7626 17.0858 16.7024 16.1788 16.7668 14.728C16.7852 14.3142 16.4646 13.9639 16.0508 13.9455C15.637 13.9271 15.2867 14.2477 15.2683 14.6615C15.2362 15.3852 14.8146 15.7931 14.259 15.9481C13.6594 16.1155 12.968 15.9626 12.5425 15.5497C12.3721 15.3844 12.1335 15.3095 11.8992 15.3478C11.6649 15.3862 11.4626 15.5331 11.3537 15.7441C11.1615 16.1167 10.8849 16.2873 10.602 16.3656C10.2943 16.4509 9.9846 16.4219 9.82233 16.3778C9.46014 16.2794 9.08097 16.4639 8.93485 16.8096L7.91185 19.2301H7.34389V18.176C7.34389 17.779 7.03461 17.4508 6.63838 17.4273C4.2468 17.2852 3.50793 16.3958 3.31801 15.7806C3.21146 15.4355 3.23697 15.0764 3.3454 14.7762C3.45969 14.4598 3.63277 14.2917 3.72979 14.2421C4.09858 14.0535 4.24465 13.6017 4.05604 13.2329ZM7.73889 19.6393L7.73865 19.6399L7.73864 19.6399C7.73872 19.6397 7.73881 19.6395 7.73889 19.6393Z" fill="black"/>
<path fill-rule="evenodd" clip-rule="evenodd" d="M20.0616 8.89877C19.7176 9.12955 19.6259 9.59548 19.8567 9.93944C20.8938 11.4852 20.4514 13.2727 19.1632 14.0552C18.7448 14.3093 18.2125 14.4312 17.6866 14.4212C17.1523 14.411 16.7089 14.2669 16.4536 14.0852C16.05 13.798 15.7503 13.3702 15.6034 12.9401C15.4696 12.5481 15.0433 12.3388 14.6513 12.4726C14.2593 12.6064 14.05 13.0327 14.1839 13.4247C14.4257 14.1331 14.9084 14.8265 15.5838 15.3072C16.1493 15.7098 16.9114 15.9067 17.658 15.9209C18.4132 15.9353 19.2374 15.7651 19.9419 15.3372C22.0325 14.0674 22.5677 11.2878 21.1022 9.10368C20.8715 8.75972 20.4055 8.66798 20.0616 8.89877Z" fill="black"/>
<path fill-rule="evenodd" clip-rule="evenodd" d="M16.2589 6.15873C16.2777 6.1698 16.2962 6.18074 16.3145 6.19153C16.6714 6.40177 17.1312 6.28288 17.3414 5.92599C17.5516 5.5691 17.4328 5.10934 17.0759 4.89911C17.0442 4.88047 17.0114 4.86107 16.9774 4.84098C15.9653 4.24254 13.9268 3.03726 11.3087 3.31144C10.8968 3.35458 10.5978 3.72352 10.6409 4.13548C10.6841 4.54744 11.053 4.84642 11.465 4.80328C13.5836 4.5814 15.2512 5.56459 16.2589 6.15873Z" fill="black"/>
<path fill-rule="evenodd" clip-rule="evenodd" d="M19.4532 9.5735C19.3065 10.0503 18.9474 10.4697 18.2195 10.655C17.8181 10.7573 17.5756 11.1655 17.6778 11.5669C17.78 11.9683 18.1883 12.2109 18.5897 12.1087C19.8122 11.7973 20.5828 11.003 20.8869 10.0146C21.1797 9.06265 21.021 8.00271 20.5671 7.11141C20.1101 6.21401 19.3222 5.42338 18.2695 5.04584C17.2005 4.66249 15.9374 4.73336 14.6028 5.42519C14.2351 5.61582 14.0915 6.06847 14.2821 6.43621C14.4728 6.80395 14.9254 6.94753 15.2931 6.75689C16.3048 6.23245 17.1345 6.23236 17.7631 6.45779C18.4079 6.68902 18.9222 7.18689 19.2304 7.79209C19.5417 8.4034 19.6111 9.06019 19.4532 9.5735Z" fill="black"/>
<path fill-rule="evenodd" clip-rule="evenodd" d="M16.3097 8.4733C15.9562 8.25742 15.4946 8.369 15.2787 8.72252C15.2815 8.71807 15.2828 8.71589 15.2825 8.71561C15.2805 8.71387 15.2149 8.78381 15.0111 8.83512C14.8005 8.88812 14.5441 8.89144 14.3108 8.8255C13.9122 8.71283 13.4977 8.94463 13.3851 9.34322C13.2724 9.74182 13.5042 10.1563 13.9028 10.2689C14.4043 10.4107 14.9283 10.4028 15.3773 10.2897C15.7999 10.1834 16.2883 9.94741 16.5589 9.50426C16.7748 9.15075 16.6632 8.68917 16.3097 8.4733Z" fill="black"/>
<path fill-rule="evenodd" clip-rule="evenodd" d="M1.43263 4.41797C1.43263 4.00376 1.76842 3.66797 2.18263 3.66797H4.88424C5.18092 3.66797 5.44971 3.84285 5.56992 4.11408C5.69013 4.38532 5.63915 4.70191 5.43989 4.92171L3.8749 6.64795H4.88424C5.29846 6.64795 5.63424 6.98374 5.63424 7.39795C5.63424 7.81216 5.29846 8.14795 4.88424 8.14795H2.18263C1.88596 8.14795 1.61716 7.97307 1.49695 7.70183C1.37675 7.4306 1.42772 7.114 1.62698 6.89421L3.19197 5.16797H2.18263C1.76842 5.16797 1.43263 4.83218 1.43263 4.41797Z" fill="black"/>
<path fill-rule="evenodd" clip-rule="evenodd" d="M6.56154 7.41406C6.56154 6.99985 6.89732 6.66406 7.31154 6.66406H10.1923C10.489 6.66406 10.7578 6.83895 10.878 7.11019C10.9982 7.38143 10.9472 7.69803 10.7479 7.91782L9.00388 9.84146H10.1923C10.6065 9.84146 10.9423 10.1772 10.9423 10.5915C10.9423 11.0057 10.6065 11.3415 10.1923 11.3415H7.31154C7.01486 11.3415 6.74606 11.1666 6.62586 10.8953C6.50565 10.6241 6.55663 10.3075 6.75591 10.0877L8.49996 8.16406H7.31154C6.89732 8.16406 6.56154 7.82828 6.56154 7.41406Z" fill="black"/>
</svg>