<svg width="24" height="24" viewBox="0 0 24 24" fill="none" xmlns="http://www.w3.org/2000/svg">
<path d="M5.71029 22.2304C5.71029 22.2304 5.6603 22.2304 5.6303 22.2304C5.2203 22.1904 4.92029 21.8204 4.96029 21.4104C5.09029 20.1304 5.3103 16.5004 4.6903 15.0104L4.4103 14.3404C3.3903 11.9404 2.35029 9.4704 3.62029 6.5304C4.90029 3.5704 7.79029 1.83042 11.5303 1.74042C13.8803 1.70042 15.6503 2.2204 17.0703 3.4104C19.1203 5.1404 19.3903 7.40042 19.6203 9.40042C19.6803 9.94042 19.7403 10.4704 19.8403 10.9704C19.9303 11.4104 20.1703 11.9204 20.4203 12.4504C20.6903 13.0204 20.9703 13.6004 21.1203 14.2204C21.3403 15.6104 20.2303 15.9204 19.7603 16.0504C19.6203 16.0904 19.3503 16.1704 19.3003 16.2204L19.1703 18.5804C19.0103 19.4404 18.2803 20.0704 17.4103 20.1104L14.9003 20.2304V21.4704C14.9003 21.8804 14.5603 22.2204 14.1503 22.2204C13.7403 22.2204 13.4003 21.8804 13.4003 21.4704V20.1404C13.4003 19.3904 13.9803 18.7804 14.7303 18.7404L17.3403 18.6204C17.5003 18.6204 17.6403 18.5004 17.6903 18.3404L17.8203 15.9704C18.0103 14.9804 18.8903 14.7304 19.3603 14.6004C19.4503 14.5804 19.5603 14.5404 19.6503 14.5104C19.5403 14.0504 19.3103 13.5804 19.0703 13.0804C18.7903 12.4804 18.4903 11.8704 18.3703 11.2404C18.2703 10.7004 18.2003 10.1304 18.1303 9.5604C17.9103 7.6704 17.7003 5.89041 16.1003 4.54041C14.9803 3.60041 13.5403 3.1704 11.5603 3.2204C8.43029 3.2904 6.04029 4.7104 5.00029 7.1004C3.98029 9.4404 4.82028 11.4304 5.80028 13.7204L6.09029 14.4004C6.97029 16.5104 6.5203 21.0304 6.4703 21.5404C6.4303 21.9304 6.10031 22.2104 5.73031 22.2104L5.71029 22.2304Z" fill="black"/>
<path d="M9.28027 10.8013C7.90027 10.8013 6.77026 9.67126 6.77026 8.29126C6.77026 6.91126 7.90027 5.78125 9.28027 5.78125C10.6603 5.78125 11.7903 6.91126 11.7903 8.29126C11.7903 9.67126 10.6603 10.8013 9.28027 10.8013ZM9.28027 7.28125C8.72027 7.28125 8.27026 7.73126 8.27026 8.29126C8.27026 8.85126 8.72027 9.30127 9.28027 9.30127C9.84027 9.30127 10.2903 8.85126 10.2903 8.29126C10.2903 7.73126 9.84027 7.28125 9.28027 7.28125Z" fill="black"/>
<path d="M13.6804 15.1997C12.3004 15.1997 11.1704 14.0697 11.1704 12.6897C11.1704 11.3097 12.3004 10.1797 13.6804 10.1797C15.0604 10.1797 16.1904 11.3097 16.1904 12.6897C16.1904 14.0697 15.0604 15.1997 13.6804 15.1997ZM13.6804 11.6797C13.1204 11.6797 12.6704 12.1297 12.6704 12.6897C12.6704 13.2497 13.1204 13.6997 13.6804 13.6997C14.2404 13.6997 14.6904 13.2497 14.6904 12.6897C14.6904 12.1297 14.2404 11.6797 13.6804 11.6797Z" fill="black"/>
<path d="M12.4502 12.1512C12.2602 12.1512 12.0702 12.0812 11.9202 11.9312L10.0302 10.0412C9.74024 9.75117 9.74024 9.27117 10.0302 8.98117C10.3202 8.69117 10.8002 8.69117 11.0902 8.98117L12.9803 10.8712C13.2703 11.1612 13.2703 11.6412 12.9803 11.9312C12.8303 12.0812 12.6402 12.1512 12.4502 12.1512Z" fill="black"/>
</svg>