<svg width="24" height="24" viewBox="0 0 24 24" fill="none" xmlns="http://www.w3.org/2000/svg">
<path d="M4.09925 13.5742C2.84405 14.2161 2.18748 17.8717 7.30484 18.1758V19.8989C7.30484 19.9436 7.33943 19.9799 7.38209 19.9799H9.06983C9.10037 19.9799 9.12804 19.9611 9.14043 19.9317L10.3366 17.1014C10.8838 17.2501 12.1287 17.2555 12.7312 16.0879C14.0057 17.3244 16.632 16.8691 16.7285 14.6946" stroke="black" stroke-width="1.5" stroke-linecap="round" stroke-linejoin="round"/>
<path d="M21.1903 9.52148C22.4416 11.3864 21.9527 13.67 20.2634 14.6961C19.1404 15.3782 17.5504 15.2804 16.7295 14.6961C16.19 14.3122 15.7988 13.7516 15.6045 13.1823" stroke="black" stroke-width="1.5" stroke-linecap="round" stroke-linejoin="round"/>
<path d="M17.4062 5.54542C16.4184 4.96348 14.53 3.80277 12.0979 4.05747" stroke="black" stroke-width="1.5" stroke-linecap="round" stroke-linejoin="round"/>
<path d="M19.1157 11.3818C23.0165 10.3885 20.3516 3.6584 15.6591 6.09095" stroke="black" stroke-width="1.5" stroke-linecap="round" stroke-linejoin="round"/>
<path d="M4.10017 9.55915C4.98409 9.55915 5.69934 8.84339 5.69934 7.95975C5.69934 7.0761 4.98409 6.35938 4.10017 6.35938C3.21625 6.35938 2.5 7.0761 2.5 7.95975C2.5 8.84339 3.21625 9.55915 4.10017 9.55915Z" stroke="black" stroke-width="1.5" stroke-linecap="round" stroke-linejoin="round"/>
<path d="M5.69873 7.96017L5.69974 4.02148C5.69974 4.02148 6.11548 5.10223 7.23395 5.33045" stroke="black" stroke-width="1.5" stroke-linecap="round" stroke-linejoin="round"/>
<path d="M9.41023 12.1296C10.0881 12.1296 10.6366 11.5807 10.6366 10.9031C10.6366 10.2254 10.0881 9.67578 9.41023 9.67578C8.73237 9.67578 8.18311 10.2254 8.18311 10.9031C8.18311 11.5807 8.73237 12.1296 9.41023 12.1296Z" stroke="black" stroke-width="1.5" stroke-linecap="round" stroke-linejoin="round"/>
<path d="M10.6353 10.9041L10.6361 7.4043C10.6361 7.4043 11.0056 8.36463 11.9994 8.56742" stroke="black" stroke-width="1.5" stroke-linecap="round" stroke-linejoin="round"/>
</svg>