<svg width="24" height="24" viewBox="0 0 24 24" fill="none" xmlns="http://www.w3.org/2000/svg">
<path d="M13.9806 22.2298C13.9806 22.2298 13.8906 22.2298 13.8406 22.2198C13.4306 22.1398 13.1606 21.7498 13.2406 21.3498C13.2806 21.1398 13.6506 19.3098 14.9306 18.6298C15.3006 18.4398 15.7506 18.5798 15.9406 18.9398C16.1306 19.3098 15.9906 19.7598 15.6306 19.9498C15.1306 20.2098 14.8006 21.1798 14.7206 21.6098C14.6506 21.9698 14.3406 22.2198 13.9806 22.2198V22.2298Z" fill="black"/>
<path d="M16.9701 20.4206L14.1701 19.7906C12.9701 19.5306 12.7601 18.5506 12.6101 17.8406C12.5801 17.6906 12.5501 17.5306 12.5001 17.3806C12.3901 16.9806 12.6201 16.5706 13.0201 16.4606C13.4201 16.3506 13.8301 16.5806 13.9401 16.9806C13.9901 17.1706 14.0301 17.3506 14.0701 17.5306C14.2201 18.2506 14.2801 18.2906 14.4901 18.3306L17.2801 18.9606C17.4001 18.9906 17.5301 18.9706 17.6001 18.9206C17.6601 18.8806 17.6901 18.8106 17.7101 18.7106L18.0201 16.0906C18.1301 15.5006 18.5101 15.0506 19.0101 14.8606L19.9301 14.5006C18.6201 12.7006 18.1101 11.2306 18.3901 9.96061C18.8401 7.92061 18.1501 6.21062 16.2201 4.58062C15.0801 3.62062 13.6001 3.18062 11.6001 3.23062C11.2001 3.23062 10.8401 2.91062 10.8301 2.50062C10.8301 2.09062 11.1501 1.74062 11.5601 1.73062C13.9601 1.69062 15.7501 2.22061 17.1801 3.43061C19.5501 5.43061 20.4201 7.67062 19.8401 10.2806C19.6601 11.0806 20.1001 12.1906 21.1201 13.5706C21.4101 13.9606 21.5001 14.4506 21.3701 14.9006C21.2401 15.3506 20.9001 15.7106 20.4501 15.8906L19.5201 16.2506L19.1701 18.9006C19.0901 19.4406 18.8301 19.8706 18.4301 20.1506C18.0483 20.4179 17.4261 20.5118 16.9701 20.4206Z" fill="black"/>
<path d="M5.28039 21.9996C5.18039 21.9996 5.08041 21.9796 4.98041 21.9396C4.60041 21.7696 4.43039 21.3296 4.59039 20.9496C5.60039 18.6396 5.32039 16.0396 3.74039 13.2096C3.54039 12.8496 3.67039 12.3896 4.03039 12.1896C4.39039 11.9896 4.85038 12.1196 5.05038 12.4796C6.84038 15.6896 7.1604 18.8296 5.9704 21.5496C5.8504 21.8296 5.57039 21.9996 5.28039 21.9996Z" fill="black"/>
<path d="M9.95046 10.6809C9.76046 10.6809 9.57046 10.6109 9.42046 10.4609L8.20046 9.24093C6.69046 10.2509 4.63047 10.0909 3.30047 8.76093C1.79047 7.25093 1.79047 4.79094 3.30047 3.28094C4.81047 1.77094 7.27049 1.77094 8.79049 3.28094C9.52049 4.01094 9.93047 4.99093 9.93047 6.02093C9.93047 6.80093 9.70047 7.55093 9.27047 8.18093L10.4905 9.40093C10.7805 9.69093 10.7805 10.1709 10.4905 10.4609C10.3405 10.6109 10.1505 10.6809 9.96047 10.6809H9.95046ZM6.04049 3.64094C5.43049 3.64094 4.82047 3.87093 4.36047 4.34093C3.43047 5.27094 3.43047 6.78094 4.36047 7.70094C5.29047 8.63094 6.80048 8.63094 7.72048 7.70094C8.17048 7.25094 8.41048 6.66093 8.41048 6.02093C8.41048 5.38093 8.16047 4.79094 7.71047 4.34093C7.26047 3.89093 6.64048 3.65093 6.03048 3.65093L6.04049 3.64094Z" fill="black"/>
</svg>