<svg width="24" height="24" viewBox="0 0 24 24" fill="none" xmlns="http://www.w3.org/2000/svg">
<path fill-rule="evenodd" clip-rule="evenodd" d="M4.76698 13.2329C4.57838 12.8641 4.12653 12.718 3.75775 12.9066C3.22716 13.178 2.84747 13.7076 2.64555 14.2666C2.43776 14.8419 2.38362 15.5361 2.59569 16.2231C3.00281 17.5419 4.27476 18.5637 6.55483 18.8588V19.899C6.55483 20.3233 6.89129 20.7301 7.38207 20.7301H9.06981C9.41783 20.7301 9.70792 20.5157 9.83125 20.2239C9.83125 20.2239 9.83125 20.2239 9.83125 20.2239L10.8053 17.9192C11.0858 17.9271 11.3974 17.8987 11.7134 17.8112C12.123 17.6977 12.5412 17.4831 12.8964 17.1263C13.6616 17.5344 14.5752 17.6156 15.3732 17.3929C16.4735 17.0858 17.4133 16.1788 17.4778 14.728C17.4961 14.3142 17.1756 13.9639 16.7618 13.9455C16.348 13.9271 15.9976 14.2477 15.9792 14.6615C15.9471 15.3852 15.5255 15.7931 14.97 15.9481C14.3703 16.1155 13.6789 15.9626 13.2534 15.5497C13.083 15.3844 12.8444 15.3095 12.6101 15.3478C12.3758 15.3862 12.1735 15.5331 12.0647 15.7441C11.8724 16.1167 11.5958 16.2873 11.3129 16.3656C11.0052 16.4509 10.6955 16.4219 10.5333 16.3778C10.1711 16.2794 9.7919 16.4639 9.64579 16.8096L8.62279 19.2301H8.05483V18.176C8.05483 17.779 7.74555 17.4508 7.34932 17.4273C4.95774 17.2852 4.21887 16.3958 4.02895 15.7806C3.9224 15.4355 3.94791 15.0764 4.05634 14.7762C4.17063 14.4598 4.34371 14.2917 4.44073 14.2421C4.80951 14.0535 4.95558 13.6017 4.76698 13.2329ZM8.44983 19.6393L8.44958 19.6399L8.44958 19.6399C8.44966 19.6397 8.44974 19.6395 8.44983 19.6393Z" fill="black"/>
<path fill-rule="evenodd" clip-rule="evenodd" d="M20.7725 8.89877C20.4285 9.12955 20.3368 9.59548 20.5676 9.93944C21.6048 11.4852 21.1623 13.2727 19.8741 14.0552C19.4557 14.3093 18.9234 14.4312 18.3976 14.4212C17.8632 14.411 17.4199 14.2669 17.1645 14.0852C16.761 13.798 16.4612 13.3702 16.3144 12.9401C16.1805 12.5481 15.7543 12.3388 15.3623 12.4726C14.9703 12.6064 14.761 13.0327 14.8948 13.4247C15.1367 14.1331 15.6193 14.8265 16.2947 15.3072C16.8602 15.7098 17.6223 15.9067 18.369 15.9209C19.1241 15.9353 19.9483 15.7651 20.6528 15.3372C22.7434 14.0674 23.2787 11.2878 21.8132 9.10368C21.5824 8.75972 21.1165 8.66798 20.7725 8.89877Z" fill="black"/>
<path fill-rule="evenodd" clip-rule="evenodd" d="M16.9698 6.15873C16.9886 6.1698 17.0071 6.18074 17.0255 6.19153C17.3824 6.40177 17.8421 6.28288 18.0523 5.92599C18.2626 5.5691 18.1437 5.10934 17.7868 4.89911C17.7552 4.88047 17.7224 4.86107 17.6884 4.84098C16.6762 4.24254 14.6378 3.03726 12.0197 3.31144C11.6077 3.35458 11.3087 3.72352 11.3519 4.13548C11.395 4.54744 11.7639 4.84642 12.1759 4.80328C14.2946 4.5814 15.9621 5.56459 16.9698 6.15873Z" fill="black"/>
<path fill-rule="evenodd" clip-rule="evenodd" d="M20.1641 9.5735C20.0174 10.0503 19.6583 10.4697 18.9305 10.655C18.5291 10.7573 18.2865 11.1655 18.3887 11.5669C18.491 11.9683 18.8992 12.2109 19.3006 12.1087C20.5232 11.7973 21.2937 11.003 21.5978 10.0146C21.8907 9.06265 21.7319 8.00271 21.278 7.11141C20.8211 6.21401 20.0331 5.42338 18.9804 5.04584C17.9114 4.66249 16.6483 4.73336 15.3137 5.42519C14.946 5.61582 14.8024 6.06847 14.9931 6.43621C15.1837 6.80395 15.6363 6.94753 16.0041 6.75689C17.0158 6.23245 17.8454 6.23236 18.474 6.45779C19.1188 6.68902 19.6332 7.18689 19.9414 7.79209C20.2527 8.4034 20.322 9.06019 20.1641 9.5735Z" fill="black"/>
<path fill-rule="evenodd" clip-rule="evenodd" d="M4.10017 7.10938C3.63067 7.10938 3.25 7.49011 3.25 7.95975C3.25 8.42879 3.63008 8.80915 4.10017 8.80915C4.56965 8.80915 4.94934 8.42941 4.94934 7.95975C4.94934 7.48949 4.56906 7.10938 4.10017 7.10938ZM1.75 7.95975C1.75 6.66209 2.80183 5.60938 4.10017 5.60938C5.39913 5.60938 6.44934 6.66271 6.44934 7.95975C6.44934 9.25737 5.39854 10.3092 4.10017 10.3092C2.80242 10.3092 1.75 9.25799 1.75 7.95975Z" fill="black"/>
<path fill-rule="evenodd" clip-rule="evenodd" d="M6.39725 3.74593C6.26556 3.41254 5.91595 3.21863 5.56289 3.28415C5.20759 3.35008 4.94983 3.66 4.94974 4.02137L4.94873 7.96005C4.94862 8.37427 5.28433 8.71014 5.69854 8.71024C6.11275 8.71035 6.44862 8.37465 6.44873 7.96044L6.44927 5.85153C6.63854 5.94297 6.84968 6.01757 7.084 6.06539C7.48985 6.1482 7.88599 5.88632 7.96881 5.48047C8.05162 5.07462 7.78974 4.67848 7.38389 4.59567C7.04532 4.52658 6.80125 4.32799 6.62851 4.1163C6.54286 4.01133 6.48149 3.91081 6.44259 3.83854C6.4234 3.80287 6.41041 3.77546 6.40327 3.75965C6.39999 3.7524 6.398 3.74771 6.39725 3.74593Z" fill="black"/>
<path fill-rule="evenodd" clip-rule="evenodd" d="M9.41023 10.4258C9.14679 10.4258 8.93311 10.6394 8.93311 10.9031C8.93311 11.1661 9.14621 11.3796 9.41023 11.3796C9.67363 11.3796 9.88658 11.1667 9.88658 10.9031C9.88658 10.6388 9.67305 10.4258 9.41023 10.4258ZM7.43311 10.9031C7.43311 9.81141 8.31796 8.92578 9.41023 8.92578C10.5031 8.92578 11.3866 9.81202 11.3866 10.9031C11.3866 11.9947 10.5025 12.8796 9.41023 12.8796C8.31854 12.8796 7.43311 11.9953 7.43311 10.9031Z" fill="black"/>
<path fill-rule="evenodd" clip-rule="evenodd" d="M11.3332 7.12749C11.2011 6.79487 10.8519 6.60152 10.4993 6.66696C10.144 6.73289 9.88624 7.04281 9.88615 7.40418L9.88525 10.904C9.88515 11.3182 10.2208 11.6541 10.6351 11.6542C11.0493 11.6543 11.3851 11.3186 11.3853 10.9044L11.3857 9.15973C11.5278 9.21924 11.6822 9.26822 11.8495 9.30236C12.2553 9.38517 12.6515 9.12329 12.7343 8.71744C12.8171 8.31159 12.5552 7.91545 12.1494 7.83264C11.8731 7.77627 11.6718 7.61414 11.5262 7.43573C11.4541 7.3474 11.4024 7.26273 11.3698 7.20214C11.3538 7.17232 11.3431 7.14971 11.3374 7.13724L11.3332 7.12749Z" fill="black"/>
</svg>