<svg width="24" height="24" viewBox="0 0 24 24" fill="none" xmlns="http://www.w3.org/2000/svg">
<path d="M13.9806 22.2296C13.9806 22.2296 13.8906 22.2296 13.8406 22.2196C13.4306 22.1396 13.1606 21.7496 13.2406 21.3496C13.2806 21.1396 13.6506 19.3096 14.9306 18.6396C15.2906 18.4496 15.7506 18.5896 15.9406 18.9496C16.1306 19.3196 15.9906 19.7696 15.6306 19.9596C15.1206 20.2296 14.8006 21.1896 14.7206 21.6196C14.6506 21.9796 14.3406 22.2296 13.9806 22.2296Z" fill="black"/>
<path d="M16.9706 20.4209L14.1806 19.7908C12.9806 19.5308 12.7706 18.5509 12.6206 17.8309C12.5906 17.6809 12.5606 17.5209 12.5106 17.3709C12.4006 16.9709 12.6306 16.5609 13.0306 16.4509C13.4306 16.3409 13.8406 16.5709 13.9506 16.9709C14.0006 17.1609 14.0406 17.3408 14.0806 17.5208C14.2306 18.2408 14.2906 18.2808 14.5006 18.3208L17.2906 18.9509C17.4206 18.9809 17.5406 18.9608 17.6106 18.9108C17.6706 18.8708 17.7006 18.8009 17.7206 18.7009L18.0306 16.0809C18.1406 15.4909 18.5206 15.0408 19.0206 14.8508L19.9506 14.4908C18.6406 12.6908 18.1306 11.2209 18.4106 9.95085C18.8606 7.91085 18.1706 6.20085 16.2406 4.57085C15.1006 3.61085 13.6106 3.17086 11.6206 3.22086C11.2106 3.22086 10.8606 2.90085 10.8506 2.49085C10.8506 2.08085 11.1706 1.73085 11.5806 1.72085C13.9806 1.68085 15.7706 2.21086 17.2006 3.42086C19.5706 5.42086 20.4406 7.66085 19.8606 10.2708C19.6806 11.0708 20.1106 12.1809 21.1406 13.5609C21.4306 13.9509 21.5206 14.4409 21.3906 14.8909C21.2606 15.3409 20.9206 15.7008 20.4706 15.8808L19.5406 16.2408L19.1906 18.8909C19.1106 19.4309 18.8506 19.8609 18.4506 20.1409C18.0233 20.44 17.4771 20.5158 16.9706 20.4209Z" fill="black"/>
<path d="M5.28039 21.9996C5.18039 21.9996 5.08039 21.9796 4.98039 21.9396C4.60039 21.7696 4.43039 21.3296 4.59039 20.9496C5.60039 18.6396 5.32039 16.0396 3.74039 13.2096C3.54039 12.8496 3.67039 12.3896 4.03039 12.1896C4.39039 11.9896 4.85038 12.1196 5.05038 12.4796C6.84038 15.6896 7.16038 18.8296 5.97038 21.5496C5.85038 21.8296 5.57039 21.9996 5.28039 21.9996Z" fill="black"/>
<path d="M4.30051 9.69984C3.88051 9.69984 3.47051 9.46985 3.26051 9.07985C3.14051 8.84985 3.10051 8.58984 3.14051 8.33984L3.35051 7.12984L2.46051 6.27985C2.00051 5.82985 1.98051 5.08984 2.43051 4.62984C2.62051 4.42984 2.87051 4.30985 3.13051 4.27985L4.35051 4.09984L4.90051 2.99985C5.05051 2.70985 5.29051 2.50984 5.59051 2.40984C5.89051 2.30984 6.21051 2.33984 6.49051 2.48984C6.70051 2.59984 6.88051 2.77984 6.99051 2.98984L7.55051 4.09984L8.79051 4.27985C9.09051 4.31985 9.36051 4.47985 9.55051 4.71985C9.74051 4.96985 9.82051 5.26985 9.78051 5.57985C9.74051 5.83985 9.62051 6.07984 9.43051 6.26984L8.54051 7.12984L8.75052 8.33984C8.86052 8.97984 8.42051 9.58985 7.78051 9.68985C7.52051 9.72985 7.26051 9.68984 7.04051 9.56984L5.94051 8.99985L4.83051 9.57985C4.66051 9.66985 4.47051 9.70984 4.29051 9.70984L4.30051 9.69984ZM4.00052 5.65984L4.52051 6.15984C4.80051 6.42984 4.93051 6.81984 4.86051 7.19984L4.73051 7.92984L5.40051 7.57985C5.74051 7.40985 6.15051 7.40985 6.48051 7.57985L7.16051 7.92984L7.03051 7.20984C6.96051 6.82984 7.09051 6.43985 7.37051 6.16985L7.89051 5.66985L7.15051 5.55985C6.77051 5.49985 6.44051 5.26984 6.27051 4.92984L5.93051 4.25984L5.59051 4.92984C5.41051 5.27984 5.08051 5.50984 4.70051 5.56984L3.97051 5.67984L4.00052 5.65984ZM3.35051 5.75984H3.34051C3.34051 5.75984 3.34051 5.75984 3.35051 5.75984Z" fill="black"/>
</svg>