<svg width="25" height="24" viewBox="0 0 25 24" fill="none" xmlns="http://www.w3.org/2000/svg">
<g opacity="0.4">
<path d="M15.6872 19.3145C14.6962 19.8355 14.3896 21.5009 14.3896 21.5009" stroke="black" stroke-width="1.5" stroke-linecap="round"/>
<path d="M12.0103 2.50345C13.8868 2.46169 15.6681 2.78923 17.1349 4.02633C19.0179 5.61445 20.1193 7.55752 19.549 10.1413C19.245 11.5186 20.2506 13.083 20.9631 14.0401C21.2768 14.4615 21.1187 15.026 20.6285 15.215L19.701 15.5727C19.4334 15.6759 19.238 15.9098 19.1839 16.1914L18.8736 18.8346C18.7707 19.5205 18.1876 19.8464 17.536 19.7092L14.7515 19.0814C13.841 18.8807 13.8809 18.0571 13.6431 17.1952" stroke="black" stroke-width="1.5" stroke-linecap="round"/>
<path d="M4.80859 12.8633C6.2638 15.468 6.93596 18.4308 5.69335 21.2646" stroke="black" stroke-width="1.5" stroke-linecap="round"/>
</g>
<path d="M6.76255 5.92188H4.80859V8.71855H6.82286C7.63997 8.71855 8.29349 8.01711 8.21417 7.18265C8.14477 6.4556 7.4929 5.92188 6.76255 5.92188Z" stroke="black" stroke-width="1.5" stroke-linecap="round" stroke-linejoin="round"/>
<path d="M6.76255 3.125H4.80859V5.92167H6.82286C7.63997 5.92167 8.29349 5.22023 8.21417 4.38577C8.14477 3.65872 7.4929 3.125 6.76255 3.125Z" stroke="black" stroke-width="1.5" stroke-linecap="round" stroke-linejoin="round"/>
<path d="M6.26465 9.54329V8.71875" stroke="black" stroke-width="1.5" stroke-linecap="round" stroke-linejoin="round"/>
<path d="M6.26465 3.12142V2.29688" stroke="black" stroke-width="1.5" stroke-linecap="round" stroke-linejoin="round"/>
</svg>