<svg width="24" height="24" viewBox="0 0 24 24" fill="none" xmlns="http://www.w3.org/2000/svg">
<path d="M14.0537 21.5V20.1725C14.0537 19.8254 14.3253 19.5388 14.672 19.5203L17.2769 19.3982C17.8015 19.3701 18.2394 18.9881 18.3384 18.4722L18.458 16.1444C18.6764 15.0069 20.4976 15.6918 20.2971 14.4213C20.0216 13.2939 19.2065 12.177 19.0038 11.1307C18.5544 8.81119 18.8407 5.98843 16.4826 3.99959C15.0415 2.78417 13.2914 2.46236 11.4478 2.50339C8.37253 2.57173 5.49649 3.87741 4.2119 6.83871C2.95797 9.72798 4.21161 12.1275 5.29207 14.7298C6.12054 16.7251 5.61413 21.5 5.61413 21.5" stroke="black" stroke-width="1.5" stroke-linecap="round"/>
<path fill-rule="evenodd" clip-rule="evenodd" d="M11.2482 13.6289C11.2482 13.6289 14.1729 12.7435 14.1729 10.3017C14.1729 7.85995 14.2788 7.93852 14.044 7.70193C13.8092 7.46534 11.6314 6.70703 11.2482 6.70703C10.8651 6.70703 8.68638 7.46711 8.45156 7.70193C8.21674 7.93675 8.32356 7.85995 8.32356 10.3017C8.32356 12.7435 11.2482 13.6289 11.2482 13.6289Z" stroke="black" stroke-width="1.5" stroke-linecap="round" stroke-linejoin="round"/>
</svg>