<svg width="24" height="24" viewBox="0 0 24 24" fill="none" xmlns="http://www.w3.org/2000/svg">
<path d="M13.8976 22.2784C13.8976 22.2784 13.8076 22.2784 13.7576 22.2684C13.3476 22.1884 13.0876 21.7984 13.1576 21.3984C13.1976 21.1884 13.5676 19.3584 14.8476 18.6884C15.2176 18.4984 15.6676 18.6384 15.8576 18.9984C16.0476 19.3684 15.9076 19.8184 15.5376 20.0084C15.0376 20.2684 14.7076 21.2384 14.6276 21.6684C14.5576 22.0284 14.2476 22.2784 13.8876 22.2784H13.8976Z" fill="black"/>
<path d="M16.8876 20.4686L14.0876 19.8386C12.8876 19.5786 12.6776 18.5986 12.5276 17.8886C12.4976 17.7386 12.4576 17.5786 12.4176 17.4286C12.3076 17.0286 12.5376 16.6186 12.9376 16.5086C13.3476 16.3986 13.7476 16.6286 13.8576 17.0286C13.9076 17.2186 13.9476 17.3986 13.9876 17.5786C14.1376 18.2986 14.1976 18.3386 14.4076 18.3786L17.1976 19.0086C17.3176 19.0386 17.4476 19.0186 17.5176 18.9686C17.5776 18.9286 17.6076 18.8586 17.6276 18.7586L17.9376 16.1386C18.0476 15.5386 18.4176 15.0986 18.9276 14.9086L19.8476 14.5486C18.5376 12.7486 18.0276 11.2786 18.3076 10.0086C18.7576 7.96856 18.0676 6.25856 16.1376 4.62856C14.9976 3.66856 13.5176 3.22856 11.5176 3.27856H11.4976C11.0876 3.27856 10.7576 2.95856 10.7476 2.54856C10.7476 2.13856 11.0676 1.78856 11.4776 1.77856C13.8876 1.72856 15.6676 2.26856 17.0976 3.47856C19.4676 5.47856 20.3376 7.71856 19.7576 10.3286C19.5776 11.1286 20.0076 12.2386 21.0376 13.6186C21.3276 14.0086 21.4176 14.4986 21.2876 14.9486C21.1576 15.3986 20.8176 15.7586 20.3676 15.9386L19.4376 16.2986L19.0876 18.9486C19.0076 19.4886 18.7476 19.9186 18.3476 20.1986C17.9089 20.5056 17.3937 20.5635 16.8876 20.4686Z" fill="black"/>
<path d="M7.08765 6.53906H3.08765C2.67765 6.53906 2.33765 6.19906 2.33765 5.78906C2.33765 5.37906 2.67765 5.03906 3.08765 5.03906H7.08765C7.49765 5.03906 7.83765 5.37906 7.83765 5.78906C7.83765 6.19906 7.49765 6.53906 7.08765 6.53906Z" fill="black"/>
<path d="M5.19763 22.0384C5.09763 22.0384 4.99764 22.0184 4.89764 21.9784C4.51764 21.8084 4.34763 21.3684 4.50763 20.9884C5.51763 18.6784 5.22762 16.0784 3.65762 13.2584C3.45762 12.8984 3.58763 12.4384 3.94763 12.2384C4.31763 12.0384 4.76762 12.1684 4.96762 12.5284C6.75762 15.7384 7.07763 18.8784 5.88763 21.5984C5.76763 21.8784 5.48763 22.0484 5.19763 22.0484V22.0384Z" fill="black"/>
</svg>