<svg width="24" height="24" viewBox="0 0 24 24" fill="none" xmlns="http://www.w3.org/2000/svg">
<path d="M15.1872 19.3145C14.1962 19.8355 13.8896 21.5009 13.8896 21.5009" stroke="black" stroke-width="1.5" stroke-linecap="round"/>
<path d="M11.5103 2.50345C13.3868 2.46169 15.168 2.78923 16.6348 4.02633C18.5178 5.61445 19.6192 7.55752 19.0489 10.1413C18.745 11.5186 19.7505 13.083 20.463 14.0401C20.7767 14.4615 20.6186 15.026 20.1285 15.215L19.201 15.5727C18.9334 15.6759 18.7379 15.9098 18.6838 16.1914L18.3736 18.8346C18.2707 19.5205 17.6876 19.8464 17.0359 19.7092L14.2515 19.0814C13.341 18.8807 13.3809 18.0571 13.143 17.1952" stroke="black" stroke-width="1.5" stroke-linecap="round"/>
<path fill-rule="evenodd" clip-rule="evenodd" d="M5.99409 9.23792C5.54338 9.23792 3.17676 7.32201 3.17676 5.31733C3.17676 3.76108 4.43784 2.5 5.99409 2.5C7.55033 2.5 8.81142 3.76108 8.81142 5.31733C8.81142 7.32201 6.4448 9.23792 5.99409 9.23792Z" stroke="black" stroke-width="1.5" stroke-linecap="round" stroke-linejoin="round"/>
<path d="M6.02051 5.22852V5.28318" stroke="black" stroke-width="1.5" stroke-linecap="round" stroke-linejoin="round"/>
<path d="M4.30859 12.8633C5.7638 15.468 6.43596 18.4308 5.19335 21.2646" stroke="black" stroke-width="1.5" stroke-linecap="round"/>
</svg>