<svg width="24" height="24" viewBox="0 0 24 24" fill="none" xmlns="http://www.w3.org/2000/svg">
<path fill-rule="evenodd" clip-rule="evenodd" d="M7.63081 13.9441C8.04461 13.9257 8.39496 14.2463 8.41334 14.6601C8.44547 15.3838 8.86703 15.7917 9.42262 15.9467C10.0223 16.1141 10.7137 15.9612 11.1392 15.5483C11.3095 15.383 11.5481 15.3082 11.7824 15.3465C12.0167 15.3848 12.2191 15.5317 12.3279 15.7427C12.5202 16.1153 12.7968 16.2859 13.0797 16.3642C13.3873 16.4495 13.697 16.4205 13.8593 16.3764C14.2215 16.278 14.6007 16.4625 14.7468 16.8082L15.7698 19.2287H16.3377V18.1746C16.3377 17.7776 16.647 17.4494 17.0433 17.4259C19.1119 17.303 19.9423 16.6143 20.2445 16.061C20.4165 15.7458 20.4603 15.4067 20.4154 15.0932C20.3566 14.6832 20.6414 14.3032 21.0514 14.2444C21.4615 14.1857 21.8415 14.4705 21.9002 14.8805C21.986 15.4797 21.9043 16.1511 21.561 16.7798C20.9828 17.8387 19.7708 18.6083 17.8377 18.8576V19.8976C17.8377 20.3219 17.5013 20.7287 17.0105 20.7287H15.3228C14.9747 20.7287 14.6847 20.5143 14.5613 20.2225C14.5613 20.2225 14.5613 20.2225 14.5613 20.2225L13.5873 17.9178C13.3068 17.9257 12.9952 17.8973 12.6792 17.8098C12.2696 17.6963 11.8514 17.4817 11.4962 17.1249C10.731 17.533 9.81736 17.6142 9.0194 17.3915C7.91909 17.0844 6.97924 16.1774 6.91481 14.7266C6.89644 14.3128 7.217 13.9625 7.63081 13.9441ZM15.9427 19.638L15.943 19.6385L15.943 19.6386C15.9429 19.6384 15.9428 19.6382 15.9427 19.638Z" fill="black"/>
<path fill-rule="evenodd" clip-rule="evenodd" d="M3.62007 8.89877C3.96403 9.12955 4.05578 9.59548 3.82499 9.93944C2.78781 11.4852 3.23029 13.2727 4.51846 14.0552C4.93689 14.3093 5.46919 14.4312 5.99499 14.4212C6.52934 14.411 6.97273 14.2669 7.22809 14.0852C7.88975 13.6142 8.2217 12.815 8.17157 12.2888C8.13229 11.8764 8.43472 11.5103 8.84706 11.471C9.25941 11.4317 9.62553 11.7342 9.66481 12.1465C9.77201 13.2719 9.13967 14.5657 8.09788 15.3072C7.53234 15.7098 6.77024 15.9067 6.02361 15.9209C5.26843 15.9353 4.44425 15.7651 3.73976 15.3372C1.64916 14.0674 1.11389 11.2878 2.57939 9.10368C2.81018 8.75972 3.27611 8.66798 3.62007 8.89877Z" fill="black"/>
<path fill-rule="evenodd" clip-rule="evenodd" d="M11.4401 3.983C11.496 4.39343 11.2085 4.77141 10.7981 4.82723C9.3469 5.02461 8.20007 5.70098 7.43098 6.15457C7.40939 6.1673 7.38811 6.17986 7.36712 6.19222C7.01023 6.40246 6.55048 6.28358 6.34024 5.92668C6.13 5.56979 6.24888 5.11004 6.60577 4.8998C6.6356 4.88223 6.66648 4.86398 6.69839 4.84512C7.46816 4.39019 8.83936 3.57983 10.5959 3.34092C11.0063 3.28509 11.3843 3.57256 11.4401 3.983Z" fill="black"/>
<path fill-rule="evenodd" clip-rule="evenodd" d="M4.22821 9.5735C4.3749 10.0503 4.73404 10.4697 5.46186 10.655C5.86327 10.7573 6.10581 11.1655 6.00359 11.5669C5.90138 11.9683 5.49312 12.2109 5.09171 12.1087C3.86916 11.7973 3.09861 11.003 2.79452 10.0146C2.50166 9.06265 2.6604 8.00271 3.11429 7.11141C3.57128 6.21401 4.35919 5.42338 5.41194 5.04584C6.48088 4.66249 7.744 4.73336 9.07859 5.42519C9.44633 5.61582 9.5899 6.06847 9.39927 6.43621C9.20864 6.80395 8.75599 6.94753 8.38825 6.75689C7.37657 6.23245 6.54689 6.23236 5.91829 6.45779C5.27351 6.68902 4.75915 7.18689 4.45095 7.79209C4.13965 8.4034 4.07028 9.06019 4.22821 9.5735Z" fill="black"/>
<path fill-rule="evenodd" clip-rule="evenodd" d="M17.5646 4.90416C15.4636 4.47896 13.624 6.0653 13.624 8.08205C13.624 9.42288 14.4362 10.571 15.5955 11.0598C15.8734 11.177 16.0541 11.4493 16.0541 11.7509V13.0811C16.0541 13.5327 16.427 13.9052 16.8777 13.9052C17.3291 13.9052 17.7019 13.5325 17.7019 13.0811V11.7577C17.7019 11.4564 17.8822 11.1843 18.1598 11.067C19.5067 10.4975 20.3903 9.00876 20.0529 7.38195C19.7958 6.15225 18.794 5.15587 17.5646 4.90416ZM12.124 8.08205C12.124 5.13028 14.8197 2.81763 17.8631 3.43416L17.8645 3.43443C19.6801 3.80575 21.1417 5.25911 21.5212 7.07559L21.5214 7.07654C21.9712 9.24319 20.9192 11.2633 19.2019 12.2244V13.0811C19.2019 14.3609 18.1576 15.4052 16.8777 15.4052C15.5982 15.4052 14.5541 14.3608 14.5541 13.0811V12.2185C13.1045 11.412 12.124 9.86294 12.124 8.08205Z" fill="black"/>
<path fill-rule="evenodd" clip-rule="evenodd" d="M14.6069 11.8477C14.6069 11.4334 14.9427 11.0977 15.3569 11.0977L18.3923 11.0977C18.8065 11.0977 19.1423 11.4334 19.1423 11.8477C19.1423 12.2619 18.8065 12.5977 18.3923 12.5977L15.3569 12.5977C14.9427 12.5977 14.6069 12.2619 14.6069 11.8477Z" fill="black"/>
<path fill-rule="evenodd" clip-rule="evenodd" d="M17.1331 5.79631C17.497 5.99417 17.6316 6.44957 17.4337 6.81347L17.1975 7.24795H17.8127C18.0773 7.24795 18.3224 7.3874 18.4575 7.6149C18.5927 7.84241 18.5979 8.12429 18.4713 8.35668L17.6314 9.89884C17.4333 10.2626 16.9778 10.3969 16.614 10.1988C16.2503 10.0006 16.116 9.54514 16.3141 9.18138L16.5502 8.74795H15.936C15.6715 8.74795 15.4266 8.60861 15.2914 8.38124C15.1562 8.15386 15.1508 7.8721 15.2771 7.6397L16.1159 6.09697C16.3138 5.73307 16.7692 5.59846 17.1331 5.79631Z" fill="black"/>
</svg>