<svg width="24" height="24" viewBox="0 0 24 24" fill="none" xmlns="http://www.w3.org/2000/svg">
<path d="M13.9269 22.2298C13.9269 22.2298 13.8369 22.2298 13.7869 22.2198C13.3769 22.1398 13.1069 21.7498 13.1869 21.3498C13.2269 21.1398 13.5969 19.3098 14.8769 18.6298C15.2469 18.4398 15.6969 18.5798 15.8869 18.9398C16.0769 19.3098 15.9369 19.7598 15.5769 19.9498C15.0769 20.2098 14.7469 21.1798 14.6669 21.6098C14.5969 21.9698 14.2869 22.2198 13.9269 22.2198V22.2298Z" fill="black"/>
<path d="M16.9164 20.4206L14.1164 19.7906C12.9164 19.5306 12.7064 18.5506 12.5564 17.8406C12.5264 17.6906 12.4964 17.5306 12.4464 17.3806C12.3364 16.9806 12.5664 16.5706 12.9664 16.4606C13.3664 16.3506 13.7764 16.5806 13.8864 16.9806C13.9364 17.1706 13.9764 17.3506 14.0164 17.5306C14.1664 18.2506 14.2264 18.2906 14.4364 18.3306L17.2264 18.9606C17.3464 18.9906 17.4764 18.9706 17.5464 18.9206C17.6064 18.8806 17.6364 18.8106 17.6564 18.7106L17.9664 16.0906C18.0764 15.5006 18.4564 15.0506 18.9564 14.8606L19.8764 14.5006C18.5664 12.7006 18.0564 11.2306 18.3364 9.96061C18.7864 7.92061 18.0964 6.21062 16.1664 4.58062C15.0264 3.62062 13.5464 3.18062 11.5464 3.23062C11.1264 3.23062 10.7864 2.91062 10.7764 2.50062C10.7764 2.09062 11.0964 1.74062 11.5064 1.73062C13.9064 1.69062 15.6964 2.22061 17.1264 3.43061C19.4964 5.43061 20.3664 7.67062 19.7864 10.2806C19.6064 11.0806 20.0464 12.1906 21.0664 13.5706C21.3564 13.9606 21.4464 14.4506 21.3164 14.9006C21.1864 15.3506 20.8464 15.7106 20.3964 15.8906L19.4664 16.2506L19.1164 18.9006C19.0364 19.4406 18.7764 19.8706 18.3764 20.1506C17.9417 20.4548 17.4194 20.5212 16.9164 20.4206Z" fill="black"/>
<path d="M5.22668 21.9996C5.12668 21.9996 5.02668 21.9796 4.92668 21.9396C4.54668 21.7696 4.37668 21.3296 4.53668 20.9496C5.54668 18.6396 5.26667 16.0396 3.68667 13.2096C3.48667 12.8496 3.61668 12.3896 3.97668 12.1896C4.33668 11.9896 4.79669 12.1196 4.99669 12.4796C6.78669 15.6896 7.10669 18.8296 5.91669 21.5496C5.79669 21.8296 5.51668 21.9996 5.22668 21.9996Z" fill="black"/>
<path d="M3.37666 9.32024C2.96666 9.32024 2.62666 8.98024 2.62666 8.57024V5.01024L2.42666 5.20024C2.12666 5.49024 1.65666 5.48024 1.36666 5.18024C1.07666 4.88024 1.08667 4.41024 1.38667 4.12024L2.85667 2.70024C2.91667 2.65024 2.97666 2.60024 3.03666 2.57024C3.03666 2.57024 3.07666 2.55024 3.09666 2.54024C3.17666 2.51024 3.25667 2.49023 3.33667 2.49023C3.33667 2.49023 3.36666 2.49023 3.37666 2.49023C3.46666 2.49023 3.55667 2.51024 3.63667 2.54024C3.63667 2.54024 3.65667 2.54025 3.66667 2.55025C3.74667 2.59025 3.81666 2.63024 3.87666 2.70024L5.34666 4.12024C5.64666 4.41024 5.65666 4.88024 5.36666 5.18024C5.07666 5.48024 4.60667 5.49024 4.30667 5.20024L4.10667 5.01024V8.57024C4.10667 8.98024 3.76667 9.32024 3.35667 9.32024H3.37666Z" fill="black"/>
<path d="M7.76631 9.74016C7.57631 9.74016 7.38632 9.67017 7.24632 9.53017L5.77632 8.11017C5.47632 7.82017 5.46631 7.35017 5.75631 7.05017C6.04631 6.75017 6.51631 6.74017 6.81631 7.03017L7.01631 7.22017V3.66016C7.01631 3.25016 7.35631 2.91016 7.76631 2.91016C8.17631 2.91016 8.51631 3.25016 8.51631 3.66016V7.22017L8.7163 7.03017C9.0163 6.74017 9.48632 6.75017 9.77632 7.05017C10.0663 7.35017 10.0563 7.82017 9.75631 8.11017L8.28631 9.53017C8.13631 9.67017 7.95631 9.74016 7.76631 9.74016Z" fill="black"/>
</svg>