<svg width="24" height="24" viewBox="0 0 24 24" fill="none" xmlns="http://www.w3.org/2000/svg">
<path d="M7.66406 14.6934C7.76062 16.8678 10.3869 17.3232 11.6614 16.0866C12.2639 17.2542 13.5088 17.2488 14.0559 17.1002L15.2521 19.9305C15.2645 19.9598 15.2922 19.9787 15.3228 19.9787H17.0105C17.0532 19.9787 17.0877 19.9424 17.0877 19.8976V18.1746C19.2958 18.0434 20.4288 17.2882 20.9027 16.4204C21.1604 15.9484 21.2231 15.4432 21.1578 14.9869" stroke="black" stroke-width="1.5" stroke-linecap="round" stroke-linejoin="round"/>
<path d="M3.2023 9.52148C1.95096 11.3864 2.43984 13.67 4.12922 14.6961C5.25214 15.3782 6.84219 15.2804 7.6631 14.6961C8.51482 14.0899 8.99697 13.0434 8.9183 12.2176" stroke="black" stroke-width="1.5" stroke-linecap="round" stroke-linejoin="round"/>
<path d="M6.98633 5.54592C7.74542 5.09875 9.03624 4.30985 10.6969 4.08398" stroke="black" stroke-width="1.5" stroke-linecap="round" stroke-linejoin="round"/>
<path d="M5.27689 11.3818C1.37613 10.3885 4.041 3.6584 8.73353 6.09095" stroke="black" stroke-width="1.5" stroke-linecap="round" stroke-linejoin="round"/>
<path d="M17.3921 11.9551V12.0008" stroke="black" stroke-width="1.5" stroke-linecap="round" stroke-linejoin="round"/>
<path d="M13.2808 6.98499C15.6775 5.0649 19.1028 5.0649 21.4996 6.98499" stroke="black" stroke-width="1.5" stroke-linecap="round" stroke-linejoin="round"/>
<path d="M15.3018 9.52538C16.5001 8.50301 18.2819 8.50301 19.4866 9.5191" stroke="black" stroke-width="1.5" stroke-linecap="round" stroke-linejoin="round"/>
</svg>