<svg width="24" height="24" viewBox="0 0 24 24" fill="none" xmlns="http://www.w3.org/2000/svg">
<path d="M15.1872 19.3145C14.1962 19.8355 13.8896 21.5009 13.8896 21.5009" stroke="black" stroke-width="1.5" stroke-linecap="round"/>
<path d="M13.1431 17.1943C13.3809 18.0562 13.3411 18.8798 14.2516 19.0805L17.036 19.7083C17.6877 19.8455 18.2707 19.5196 18.3736 18.8336L18.6839 16.1905C18.738 15.9088 18.9335 15.675 19.2011 15.5718L20.1286 15.2141C20.6187 15.0251 20.7768 14.4605 20.4631 14.0392C19.7506 13.0821 18.745 11.5177 19.049 10.1404C19.6193 7.5566 18.5179 5.61353 16.6349 4.02541C15.6015 3.15383 14.412 2.73373 13.1431 2.57617" stroke="black" stroke-width="1.5" stroke-linecap="round"/>
<path d="M4.38175 9.16572H6.64027M9.1334 9.16572H9.45258M9.45309 3.16992L6.93107 3.16992M4.71316 3.16992H4.38204M3.375 6.16782H10.46" stroke="black" stroke-width="1.5" stroke-linecap="round" stroke-linejoin="round"/>
<path d="M4.30859 12.8633C5.7638 15.468 6.43596 18.4308 5.19335 21.2645" stroke="black" stroke-width="1.5" stroke-linecap="round"/>
</svg>