<svg width="24" height="24" viewBox="0 0 24 24" fill="none" xmlns="http://www.w3.org/2000/svg">
<path fill-rule="evenodd" clip-rule="evenodd" d="M11.731 4.66016C11.731 4.24594 12.0667 3.91016 12.481 3.91016H16.3789C17.085 3.91016 17.6574 4.48254 17.6574 5.18862V10.425C17.6574 10.8392 17.3216 11.175 16.9074 11.175C16.4932 11.175 16.1574 10.8392 16.1574 10.425V5.41016H12.481C12.0667 5.41016 11.731 5.07437 11.731 4.66016Z" fill="black"/>
<path fill-rule="evenodd" clip-rule="evenodd" d="M13.8918 20.25C14.3944 20.25 14.8018 19.8426 14.8018 19.3401C14.8018 18.8376 14.3944 18.4302 13.8918 18.4302C13.3893 18.4302 12.9819 18.8376 12.9819 19.3401C12.9819 19.8426 13.3893 20.25 13.8918 20.25ZM16.3018 19.3401C16.3018 20.671 15.2228 21.75 13.8918 21.75C12.5609 21.75 11.4819 20.671 11.4819 19.3401C11.4819 18.0091 12.5609 16.9302 13.8918 16.9302C15.2228 16.9302 16.3018 18.0091 16.3018 19.3401Z" fill="black"/>
<path fill-rule="evenodd" clip-rule="evenodd" d="M10.8196 3.75C10.317 3.75 9.90967 4.15738 9.90967 4.65991C9.90967 5.16244 10.317 5.56982 10.8196 5.56982C11.3221 5.56982 11.7295 5.16244 11.7295 4.65991C11.7295 4.15738 11.3221 3.75 10.8196 3.75ZM8.40967 4.65991C8.40967 3.32895 9.48862 2.25 10.8196 2.25C12.1505 2.25 13.2295 3.32895 13.2295 4.65991C13.2295 5.99087 12.1505 7.06982 10.8196 7.06982C9.48862 7.06982 8.40967 5.99087 8.40967 4.65991Z" fill="black"/>
<path fill-rule="evenodd" clip-rule="evenodd" d="M7.80664 14.9453C8.22085 14.9453 8.55664 15.2811 8.55664 15.6953L8.55664 18.5899L12.2331 18.5899C12.6473 18.5899 12.9831 18.9257 12.9831 19.3399C12.9831 19.7541 12.6473 20.0899 12.2331 20.0899L8.33511 20.0899C7.62903 20.0899 7.05664 19.5175 7.05664 18.8114L7.05664 15.6953C7.05664 15.2811 7.39243 14.9453 7.80664 14.9453Z" fill="black"/>
<path fill-rule="evenodd" clip-rule="evenodd" d="M7.7096 9.07617C6.10121 9.07617 4.79736 10.38 4.79736 11.9884C4.79736 13.5968 6.10122 14.9006 7.7096 14.9006C8.90119 14.9006 9.92682 14.1859 10.3778 13.1586C10.4975 12.8861 10.7669 12.7101 11.0646 12.7101H13.4985L14.4124 12.0081C14.6659 11.8134 15.0149 11.8008 15.2819 11.9766L16.1469 12.5465L16.8924 11.9986C17.1616 11.8007 17.5293 11.8048 17.794 12.0086L18.3908 12.468L18.8861 11.9827L18.1393 11.2359L11.049 11.2346C10.7543 11.2345 10.4869 11.0618 10.3656 10.7932C9.90808 9.77967 8.88969 9.07617 7.7096 9.07617ZM3.29736 11.9884C3.29736 9.55159 5.27279 7.57617 7.7096 7.57617C9.32384 7.57617 10.7338 8.44404 11.5026 9.73466L18.4502 9.73598C18.649 9.73602 18.8397 9.81503 18.9803 9.95565L20.4825 11.4578C20.6241 11.5994 20.7032 11.7917 20.7022 11.992C20.7012 12.1922 20.6201 12.3837 20.4771 12.5238L18.9749 13.9958C18.7079 14.2575 18.2888 14.2825 17.9925 14.0544L17.3261 13.5414L16.6145 14.0644C16.3616 14.2503 16.0198 14.259 15.7577 14.0864L14.9026 13.523L14.2101 14.0549C14.0791 14.1555 13.9185 14.2101 13.7533 14.2101H11.5229C10.7584 15.5199 9.33743 16.4006 7.7096 16.4006C5.27279 16.4006 3.29736 14.4252 3.29736 11.9884Z" fill="black"/>
<path fill-rule="evenodd" clip-rule="evenodd" d="M5.95605 11.9199C5.95605 11.5057 6.29184 11.1699 6.70605 11.1699H6.71605C7.13027 11.1699 7.46605 11.5057 7.46605 11.9199C7.46605 12.3341 7.13027 12.6699 6.71605 12.6699H6.70605C6.29184 12.6699 5.95605 12.3341 5.95605 11.9199Z" fill="black"/>
</svg>