<svg width="24" height="24" viewBox="0 0 24 24" fill="none" xmlns="http://www.w3.org/2000/svg">
<path d="M21 12.1759L19.0253 10.2012L17.5616 11.3677L16.3479 10.238L14.8474 11.3677L13.7176 10.2397L12.2245 10.2409C11.4799 8.54473 9.78543 7.36133 7.81424 7.36133C5.15541 7.36133 3 9.51674 3 12.1756C3 14.8344 5.15541 16.9898 7.81424 16.9898C9.76779 16.9898 11.4496 15.8244 12.2043 14.1524L19.0253 14.1506L21 12.1759Z" stroke="black" stroke-width="1.5" stroke-linecap="round" stroke-linejoin="round"/>
<circle cx="13.561" cy="5.55513" r="1.22416" transform="rotate(180 13.561 5.55513)" stroke="black" stroke-width="1.5" stroke-linecap="round" stroke-linejoin="round"/>
<circle cx="1.22416" cy="1.22416" r="1.22416" transform="matrix(1 8.74228e-08 8.74228e-08 -1 17.4277 19.668)" stroke="black" stroke-width="1.5" stroke-linecap="round" stroke-linejoin="round"/>
<circle cx="7.59539" cy="12.1575" r="1.51629" transform="rotate(-90 7.59539 12.1575)" stroke="black" stroke-width="1.5" stroke-linecap="round" stroke-linejoin="round"/>
<path d="M14.7849 5.55664L18.8574 5.55664" stroke="black" stroke-width="1.5" stroke-linecap="round" stroke-linejoin="round"/>
<path d="M17.428 18.4453L13.3555 18.4453" stroke="black" stroke-width="1.5" stroke-linecap="round" stroke-linejoin="round"/>
</svg>