<svg width="25" height="24" viewBox="0 0 25 24" fill="none" xmlns="http://www.w3.org/2000/svg">
<path fill-rule="evenodd" clip-rule="evenodd" d="M3.5 16.4169V16.9238C3.5 18.2646 4.58778 19.3524 5.92854 19.3524H19.0715C20.4122 19.3524 21.5 18.2646 21.5 16.9238V16.4169C21.5 16.1133 21.2538 15.8672 20.9493 15.8672H4.04973C3.74616 15.8672 3.5 16.1133 3.5 16.4169Z" stroke="black" stroke-width="1.5" stroke-linecap="round" stroke-linejoin="round"/>
<path opacity="0.4" d="M20.168 15.8668V7.66076C20.168 5.99698 18.8195 4.64844 17.1567 4.64844H7.84045C6.17666 4.64844 4.82812 5.99698 4.82812 7.66076V15.8668" stroke="black" stroke-width="1.5" stroke-linecap="round" stroke-linejoin="round"/>
<path d="M8.52783 12.9916L10.9193 7.52539L13.3796 12.9916" stroke="black" stroke-width="1.5" stroke-linecap="round" stroke-linejoin="round"/>
<path d="M9.16846 11.584L12.7386 11.584" stroke="black" stroke-width="1.5"/>
<path d="M16.0172 12.9897V7.72461" stroke="black" stroke-width="1.5" stroke-linecap="round" stroke-linejoin="round"/>
</svg>