<svg width="24" height="24" viewBox="0 0 24 24" fill="none" xmlns="http://www.w3.org/2000/svg">
<path fill-rule="evenodd" clip-rule="evenodd" d="M2.25 7.31228C2.25 4.673 4.38956 2.5332 7.02811 2.5332H16.9709C19.6103 2.5332 21.75 4.67288 21.75 7.31228V12.7687C21.75 15.4081 19.6103 17.5478 16.9709 17.5478H7.02811C4.38956 17.5478 2.25 15.408 2.25 12.7687V7.31228ZM7.02811 4.0332C5.21822 4.0332 3.75 5.50119 3.75 7.31228V12.7687C3.75 14.5798 5.21822 16.0478 7.02811 16.0478H16.9709C18.7819 16.0478 20.25 14.5797 20.25 12.7687V7.31228C20.25 5.50131 18.7819 4.0332 16.9709 4.0332H7.02811Z" fill="black"/>
<path fill-rule="evenodd" clip-rule="evenodd" d="M6.30469 20.7168C6.30469 20.3026 6.64047 19.9668 7.05469 19.9668H16.943C17.3572 19.9668 17.693 20.3026 17.693 20.7168C17.693 21.131 17.3572 21.4668 16.943 21.4668H7.05469C6.64047 21.4668 6.30469 21.131 6.30469 20.7168Z" fill="black"/>
<path fill-rule="evenodd" clip-rule="evenodd" d="M10.0039 16.0606C10.4128 16.1271 10.6903 16.5125 10.6238 16.9213L9.98647 20.8385C9.91996 21.2474 9.53461 21.5249 9.12577 21.4584C8.71693 21.3918 8.43943 21.0065 8.50594 20.5976L9.14324 16.6805C9.20975 16.2716 9.5951 15.9941 10.0039 16.0606Z" fill="black"/>
<path fill-rule="evenodd" clip-rule="evenodd" d="M13.9949 16.0606C14.4038 15.9941 14.7891 16.2716 14.8556 16.6805L15.4929 20.5976C15.5594 21.0065 15.2819 21.3918 14.8731 21.4584C14.4642 21.5249 14.0789 21.2474 14.0124 20.8385L13.3751 16.9213C13.3086 16.5125 13.5861 16.1271 13.9949 16.0606Z" fill="black"/>
<path fill-rule="evenodd" clip-rule="evenodd" d="M10.2066 6.21681C10.5031 6.21525 10.7727 6.38856 10.8944 6.65897L13.6616 12.8071C13.8316 13.1848 13.6632 13.6288 13.2855 13.7988C12.9078 13.9689 12.4638 13.8005 12.2938 13.4228L10.2202 8.81575L8.20782 13.4155C8.04179 13.795 7.59957 13.9681 7.22008 13.802C6.8406 13.636 6.66755 13.1938 6.83358 12.8143L9.52339 6.66618C9.64225 6.3945 9.91002 6.21837 10.2066 6.21681Z" fill="black"/>
<path fill-rule="evenodd" clip-rule="evenodd" d="M12.2567 12.2832L8.24121 12.2832L8.24121 10.7832L12.2567 10.7832L12.2567 12.2832Z" fill="black"/>
<path fill-rule="evenodd" clip-rule="evenodd" d="M15.9443 6.44141C16.3585 6.44141 16.6943 6.77719 16.6943 7.19141V13.1133C16.6943 13.5275 16.3585 13.8633 15.9443 13.8633C15.5301 13.8633 15.1943 13.5275 15.1943 13.1133V7.19141C15.1943 6.77719 15.5301 6.44141 15.9443 6.44141Z" fill="black"/>
</svg>