<svg width="24" height="24" viewBox="0 0 24 24" fill="none" xmlns="http://www.w3.org/2000/svg">
<path fill-rule="evenodd" clip-rule="evenodd" d="M2.25 16.4169C2.25 15.6991 2.83195 15.1172 3.54973 15.1172H20.4493C21.1672 15.1172 21.75 15.6983 21.75 16.4169V16.9238C21.75 18.6788 20.3264 20.1024 18.5715 20.1024H5.42854C3.67357 20.1024 2.25 18.6788 2.25 16.9238V16.4169ZM3.75 16.6172V16.9238C3.75 17.8504 4.502 18.6024 5.42854 18.6024H18.5715C19.498 18.6024 20.25 17.8504 20.25 16.9238V16.6172H3.75Z" fill="black"/>
<path fill-rule="evenodd" clip-rule="evenodd" d="M3.57812 7.66076C3.57812 5.58276 5.26245 3.89844 7.34045 3.89844H16.6567C18.7338 3.89844 20.418 5.58292 20.418 7.66076V15.8668C20.418 16.281 20.0822 16.6168 19.668 16.6168C19.2538 16.6168 18.918 16.281 18.918 15.8668V7.66076C18.918 6.41103 17.9051 5.39844 16.6567 5.39844H7.34045C6.09088 5.39844 5.07812 6.41119 5.07812 7.66076V15.8668C5.07812 16.281 4.74234 16.6168 4.32812 16.6168C3.91391 16.6168 3.57812 16.281 3.57812 15.8668V7.66076Z" fill="black"/>
<path fill-rule="evenodd" clip-rule="evenodd" d="M10.4156 6.7754C10.7121 6.77384 10.9817 6.94715 11.1034 7.21757L13.5637 12.6838C13.7337 13.0615 13.5653 13.5056 13.1876 13.6756C12.8099 13.8456 12.3659 13.6772 12.1959 13.2995L10.4292 9.37434L8.71514 13.2923C8.54911 13.6717 8.10689 13.8448 7.72741 13.6788C7.34792 13.5127 7.17488 13.0705 7.3409 12.691L9.73239 7.22478C9.85125 6.9531 10.119 6.77696 10.4156 6.7754Z" fill="black"/>
<path fill-rule="evenodd" clip-rule="evenodd" d="M12.2386 12.334L8.66846 12.334L8.66846 10.834L12.2386 10.834L12.2386 12.334Z" fill="black"/>
<path fill-rule="evenodd" clip-rule="evenodd" d="M15.5171 6.97461C15.9313 6.97461 16.2671 7.3104 16.2671 7.72461V12.9897C16.2671 13.404 15.9313 13.7397 15.5171 13.7397C15.1029 13.7397 14.7671 13.404 14.7671 12.9897V7.72461C14.7671 7.3104 15.1029 6.97461 15.5171 6.97461Z" fill="black"/>
</svg>