<svg width="24" height="24" viewBox="0 0 24 24" fill="none" xmlns="http://www.w3.org/2000/svg">
<path d="M19.7902 10.4106C18.6602 10.4106 17.7402 9.49057 17.7402 8.36057C17.7402 7.23057 18.6602 6.31055 19.7902 6.31055C20.9202 6.31055 21.8402 7.23057 21.8402 8.36057C21.8402 9.49057 20.9202 10.4106 19.7902 10.4106ZM19.7902 7.82056C19.4902 7.82056 19.2402 8.07057 19.2402 8.37057C19.2402 8.67057 19.4902 8.92056 19.7902 8.92056C20.0902 8.92056 20.3402 8.67057 20.3402 8.37057C20.3402 8.07057 20.0902 7.82056 19.7902 7.82056Z" fill="black"/>
<path d="M14.3203 6.77966C13.1903 6.77966 12.2703 5.85968 12.2703 4.72968C12.2703 3.59968 13.1903 2.67969 14.3203 2.67969C15.4503 2.67969 16.3703 3.59968 16.3703 4.72968C16.3703 5.85968 15.4503 6.77966 14.3203 6.77966ZM14.3203 4.18967C14.0203 4.18967 13.7703 4.43969 13.7703 4.73969C13.7703 5.03969 14.0203 5.28967 14.3203 5.28967C14.6203 5.28967 14.8703 5.03969 14.8703 4.73969C14.8703 4.43969 14.6203 4.18967 14.3203 4.18967Z" fill="black"/>
<path d="M8.23041 8.01993C7.10041 8.01993 6.18042 7.09991 6.18042 5.96991C6.18042 4.83991 7.10041 3.91992 8.23041 3.91992C9.36041 3.91992 10.2804 4.83991 10.2804 5.96991C10.2804 7.09991 9.36041 8.01993 8.23041 8.01993ZM8.23041 5.42993C7.93041 5.42993 7.68042 5.67992 7.68042 5.97992C7.68042 6.27992 7.93041 6.52991 8.23041 6.52991C8.53041 6.52991 8.7804 6.27992 8.7804 5.97992C8.7804 5.67992 8.53041 5.42993 8.23041 5.42993Z" fill="black"/>
<path d="M4.39032 11.6898C3.26032 11.6898 2.34033 10.7699 2.34033 9.63986C2.34033 8.50986 3.26032 7.58984 4.39032 7.58984C5.52032 7.58984 6.44031 8.50986 6.44031 9.63986C6.44031 10.7699 5.52032 11.6898 4.39032 11.6898ZM4.39032 9.09985C4.09032 9.09985 3.84033 9.34987 3.84033 9.64987C3.84033 9.94987 4.09032 10.1999 4.39032 10.1999C4.69032 10.1999 4.94031 9.94987 4.94031 9.64987C4.94031 9.34987 4.69032 9.09985 4.39032 9.09985Z" fill="black"/>
<path d="M10.2903 11.1699C9.88028 11.1699 9.54028 10.8299 9.54028 10.4199V8.86996L8.36029 7.56994C8.08029 7.25994 8.11027 6.78994 8.41027 6.50994C8.72027 6.22994 9.19027 6.25993 9.47027 6.55993L10.8403 8.06994C10.9603 8.20994 11.0303 8.38994 11.0303 8.56994V10.4099C11.0303 10.8199 10.6903 11.1599 10.2803 11.1599L10.2903 11.1699Z" fill="black"/>
<path d="M14.3203 10.6013C13.9103 10.6013 13.5703 10.2613 13.5703 9.85126V6.03125C13.5703 5.62125 13.9103 5.28125 14.3203 5.28125C14.7303 5.28125 15.0703 5.62125 15.0703 6.03125V9.85126C15.0703 10.2613 14.7303 10.6013 14.3203 10.6013Z" fill="black"/>
<path d="M17.3902 12.061C17.2102 12.061 17.0302 11.991 16.8802 11.861C16.5802 11.581 16.5602 11.101 16.8402 10.801L18.5502 8.95098C18.8302 8.65098 19.3102 8.63097 19.6102 8.91097C19.9102 9.19097 19.9302 9.67097 19.6502 9.97097L17.9402 11.821C17.7902 11.981 17.5902 12.061 17.3902 12.061Z" fill="black"/>
<path d="M12.1503 21.2809C10.7403 21.2809 9.3603 21.0109 7.9303 20.7209C6.9303 20.5209 5.00026 20.5209 4.27026 20.5209C3.86026 20.5209 3.52026 20.1809 3.52026 19.7709C3.52026 19.3609 3.86026 19.0209 4.27026 19.0209C5.58026 19.0209 7.20028 19.0409 8.16028 19.2309C10.6303 19.7209 12.7102 20.1309 14.9402 19.2709C16.4702 18.6709 17.5103 17.6309 18.7103 16.4209L18.8903 16.2409C19.2003 15.9309 19.2003 15.4209 18.8903 15.1009C18.6103 14.8209 18.1703 14.7909 17.8503 15.0309C17.6103 15.2109 17.3803 15.4009 17.1403 15.6009C16.1003 16.4609 14.9203 17.4309 13.3903 17.4609C13.1203 17.4609 12.8603 17.4609 12.5903 17.4509C12.1803 17.4309 11.8002 17.4209 11.4402 17.4709C11.0302 17.5309 10.6503 17.2509 10.5903 16.8409C10.5303 16.4309 10.8103 16.0509 11.2203 15.9909C11.7203 15.9209 12.1903 15.9409 12.6503 15.9509C12.8903 15.9509 13.1303 15.9709 13.3603 15.9609C14.3603 15.9409 15.2902 15.1709 16.1902 14.4409C16.4502 14.2309 16.7003 14.0209 16.9503 13.8309C17.8603 13.1409 19.1503 13.2409 19.9503 14.0409C20.8403 14.9409 20.8403 16.4009 19.9503 17.2909L19.7703 17.4709C18.5003 18.7409 17.3103 19.9509 15.4803 20.6609C14.3403 21.1009 13.2403 21.2709 12.1603 21.2709L12.1503 21.2809Z" fill="black"/>
<path d="M12.6604 17.451H11.3203C10.9103 17.451 10.5703 17.111 10.5703 16.701C10.5703 16.291 10.9103 15.951 11.3203 15.951H12.6604C13.2204 15.951 13.6303 15.581 13.6303 15.061C13.6303 14.631 13.3403 14.281 12.8903 14.171C11.9103 13.921 10.8604 13.691 9.74038 13.731C8.03038 13.771 5.95038 14.781 4.68038 15.631C4.34038 15.861 3.87034 15.771 3.64034 15.421C3.41034 15.081 3.50036 14.611 3.85036 14.381C5.35036 13.371 7.68035 12.281 9.71035 12.231C10.9903 12.201 12.1703 12.451 13.2603 12.721C14.3803 13.001 15.1303 13.941 15.1303 15.071C15.1303 16.411 14.0404 17.461 12.6604 17.461V17.451Z" fill="black"/>
</svg>