<svg width="25" height="24" viewBox="0 0 25 24" fill="none" xmlns="http://www.w3.org/2000/svg">
<path d="M8.99177 4.53711H16.0137C18.4569 4.53711 19.9699 5.86328 19.9631 8.29961V15.6952C19.9631 18.1315 18.4491 19.4645 16.006 19.4645H8.99177C6.55641 19.4645 5.03564 18.1082 5.03564 15.6329V8.29961C5.03564 5.86328 6.55641 4.53711 8.99177 4.53711Z" stroke="black" stroke-width="1.5" stroke-linecap="round" stroke-linejoin="round"/>
<path opacity="0.4" d="M16.5485 4.5373V3M12.4989 4.5373V3M8.44922 4.5373V3" stroke="black" stroke-width="1.5" stroke-linecap="round" stroke-linejoin="round"/>
<path opacity="0.4" d="M8.44922 19.4629V21.0002M12.4989 19.4629V21.0002M16.5485 19.4629V21.0002" stroke="black" stroke-width="1.5" stroke-linecap="round" stroke-linejoin="round"/>
<path opacity="0.4" d="M5.0373 7.94922H3.5M5.0373 11.9989H3.5M5.0373 16.0485H3.5" stroke="black" stroke-width="1.5" stroke-linecap="round" stroke-linejoin="round"/>
<path opacity="0.4" d="M19.9629 16.0485H21.5002M19.9629 11.9989H21.5002M19.9629 7.94922H21.5002" stroke="black" stroke-width="1.5" stroke-linecap="round" stroke-linejoin="round"/>
<path opacity="0.4" d="M12.499 11.1563L12.499 19.4651" stroke="black" stroke-width="1.5" stroke-linecap="round" stroke-linejoin="round"/>
<circle cx="1.15" cy="1.15" r="1.15" transform="matrix(1 0 0 -1 11.3491 11.1562)" stroke="black" stroke-width="1.5" stroke-linecap="round" stroke-linejoin="round"/>
<path opacity="0.4" d="M16.5483 13.9023L16.5483 19.4639" stroke="black" stroke-width="1.5" stroke-linecap="round" stroke-linejoin="round"/>
<circle cx="1.15" cy="1.15" r="1.15" transform="matrix(1 0 0 -1 15.3984 13.9023)" stroke="black" stroke-width="1.5" stroke-linecap="round" stroke-linejoin="round"/>
<path opacity="0.4" d="M8.44922 13.9023L8.44922 19.4639" stroke="black" stroke-width="1.5" stroke-linecap="round" stroke-linejoin="round"/>
<circle cx="1.15" cy="1.15" r="1.15" transform="matrix(1 0 0 -1 7.29932 13.9023)" stroke="black" stroke-width="1.5" stroke-linecap="round" stroke-linejoin="round"/>
</svg>