<svg width="24" height="24" viewBox="0 0 24 24" fill="none" xmlns="http://www.w3.org/2000/svg">
<path fill-rule="evenodd" clip-rule="evenodd" d="M12.7714 14.8991C13.1054 14.6542 13.5748 14.7264 13.8197 15.0604L14.5397 16.0423C14.5868 16.1065 14.6617 16.1444 14.7413 16.1444L17.6823 16.1444C18.0965 16.1444 18.4323 16.4802 18.4323 16.8944C18.4323 17.3087 18.0965 17.6444 17.6823 17.6444L14.7413 17.6444C14.1838 17.6444 13.6597 17.3788 13.3301 16.9293L12.6101 15.9475C12.3651 15.6134 12.4374 15.1441 12.7714 14.8991Z" fill="black"/>
<path fill-rule="evenodd" clip-rule="evenodd" d="M19.4239 16.3325C19.2244 16.1055 18.8788 16.0832 18.6518 16.2826C18.4249 16.482 18.4025 16.8276 18.6019 17.0546C18.8013 17.2816 19.147 17.3039 19.3739 17.1045C19.6009 16.9051 19.6233 16.5595 19.4239 16.3325ZM17.6618 15.1557C18.5111 14.4095 19.8046 14.4931 20.5507 15.3425C21.2969 16.1918 21.2133 17.4852 20.364 18.2314C19.5146 18.9776 18.2212 18.8939 17.475 18.0446C16.7289 17.1953 16.8125 15.9019 17.6618 15.1557Z" fill="black"/>
<path fill-rule="evenodd" clip-rule="evenodd" d="M18.5732 8.63395C18.9686 8.75749 19.189 9.17814 19.0654 9.5735L18.2603 12.15C18.0445 12.8407 17.4257 13.3273 16.7036 13.3743L15.6649 13.4419C15.2516 13.4688 14.8947 13.1555 14.8678 12.7421C14.8409 12.3288 15.1542 11.9719 15.5676 11.945L16.6062 11.8775C16.7094 11.8708 16.7978 11.8013 16.8286 11.7026L17.6337 9.12612C17.7572 8.73076 18.1779 8.5104 18.5732 8.63395Z" fill="black"/>
<path fill-rule="evenodd" clip-rule="evenodd" d="M19.4181 8.01159C19.3368 7.72063 19.035 7.5507 18.744 7.63205C18.453 7.7134 18.2831 8.01522 18.3645 8.30618C18.4458 8.59714 18.7476 8.76707 19.0386 8.68572C19.3296 8.60437 19.4995 8.30255 19.4181 8.01159ZM18.3401 6.18745C19.4289 5.88304 20.5583 6.5189 20.8627 7.60769C21.1672 8.69649 20.5313 9.82591 19.4425 10.1303C18.3537 10.4347 17.2243 9.79887 16.9199 8.71008C16.6155 7.62128 17.2513 6.49187 18.3401 6.18745Z" fill="black"/>
<path fill-rule="evenodd" clip-rule="evenodd" d="M10.5212 4.67705C10.745 4.32845 11.2089 4.22721 11.5575 4.45092L14.0106 6.02519C14.7389 6.49263 15.0162 7.42227 14.663 8.21234L14.3157 8.98891C14.1466 9.36704 13.703 9.53651 13.3249 9.36743C12.9468 9.19835 12.7773 8.75475 12.9464 8.37662L13.2936 7.60004C13.3441 7.48718 13.3045 7.35437 13.2004 7.28759L10.7474 5.71332C10.3988 5.48961 10.2975 5.02565 10.5212 4.67705Z" fill="black"/>
<path fill-rule="evenodd" clip-rule="evenodd" d="M10.1066 3.75001C9.80451 3.74838 9.55828 3.99197 9.55665 4.29409C9.55502 4.5962 9.79861 4.84244 10.1007 4.84407C10.4028 4.8457 10.6491 4.6021 10.6507 4.29999C10.6523 3.99787 10.4087 3.75164 10.1066 3.75001ZM8.05667 4.286C8.06277 3.15546 8.98419 2.24393 10.1147 2.25003C11.2453 2.25613 12.1568 3.17755 12.1507 4.30808C12.1446 5.43861 11.2232 6.35014 10.0926 6.34404C8.96211 6.33795 8.05057 5.41653 8.05667 4.286Z" fill="black"/>
<path fill-rule="evenodd" clip-rule="evenodd" d="M6.51441 9.14846C6.95172 8.41985 7.84925 8.11071 8.64249 8.41545L9.57811 8.7749C9.96477 8.92345 10.1578 9.35732 10.0093 9.74398C9.8607 10.1306 9.42683 10.3237 9.04017 10.1751L8.10455 9.81568C7.99123 9.77214 7.86301 9.8163 7.80054 9.92039L6.45079 12.1692C6.23763 12.5244 5.77692 12.6395 5.42176 12.4263C5.06661 12.2131 4.9515 11.7524 5.16467 11.3973L6.51441 9.14846Z" fill="black"/>
<path fill-rule="evenodd" clip-rule="evenodd" d="M4.98747 12.3184C4.68535 12.3184 4.44043 12.5633 4.44043 12.8654C4.44043 13.1675 4.68535 13.4124 4.98747 13.4124C5.28959 13.4124 5.53451 13.1675 5.53451 12.8654C5.53451 12.5633 5.28959 12.3184 4.98747 12.3184ZM2.94043 12.8654C2.94043 11.7348 3.85692 10.8184 4.98747 10.8184C6.11802 10.8184 7.03451 11.7348 7.03451 12.8654C7.03451 13.9959 6.11802 14.9124 4.98747 14.9124C3.85692 14.9124 2.94043 13.9959 2.94043 12.8654Z" fill="black"/>
<path fill-rule="evenodd" clip-rule="evenodd" d="M9.62624 13.7788C9.98364 13.9881 10.1037 14.4476 9.89428 14.805L9.38048 15.6821C9.33757 15.7553 9.33476 15.8454 9.37304 15.9212L10.4568 18.0671C10.6436 18.4368 10.4952 18.8879 10.1255 19.0746C9.75577 19.2614 9.30466 19.113 9.11793 18.7433L8.03412 16.5974C7.76619 16.0669 7.78581 15.4367 8.08621 14.9239L8.60001 14.0468C8.80938 13.6894 9.26884 13.5694 9.62624 13.7788Z" fill="black"/>
<path fill-rule="evenodd" clip-rule="evenodd" d="M10.3639 19.2316C10.1032 19.0789 9.76811 19.1664 9.61539 19.4271C9.46269 19.6878 9.55022 20.0229 9.8109 20.1756C10.0716 20.3283 10.4067 20.2408 10.5594 19.9801C10.7121 19.7194 10.6246 19.3843 10.3639 19.2316ZM8.32112 18.6689C8.89257 17.6934 10.1466 17.3659 11.1221 17.9373C12.0976 18.5088 12.4251 19.7628 11.8537 20.7383C11.2822 21.7138 10.0282 22.0413 9.05271 21.4699C8.07722 20.8985 7.74967 19.6444 8.32112 18.6689Z" fill="black"/>
<path fill-rule="evenodd" clip-rule="evenodd" d="M11.9964 9.07617C10.3895 9.07617 9.08691 10.3788 9.08691 11.9856C9.08691 13.5924 10.3895 14.895 11.9964 14.895C13.6032 14.895 14.9058 13.5924 14.9058 11.9856C14.9058 10.3788 13.6032 9.07617 11.9964 9.07617ZM7.58691 11.9856C7.58691 9.55034 9.56109 7.57617 11.9964 7.57617C14.4316 7.57617 16.4058 9.55034 16.4058 11.9856C16.4058 14.4209 14.4316 16.395 11.9964 16.395C9.56109 16.395 7.58691 14.4209 7.58691 11.9856Z" fill="black"/>
</svg>