<svg width="24" height="24" viewBox="0 0 24 24" fill="none" xmlns="http://www.w3.org/2000/svg">
<path fill-rule="evenodd" clip-rule="evenodd" d="M18.2436 3.42449C19.0822 4.20613 19.5459 5.31531 19.5459 6.6108L19.5459 17.3883C19.5459 18.6868 19.0825 19.7966 18.2433 20.578C17.4101 21.3538 16.2674 21.75 15.0006 21.75L8.9994 21.75C7.73262 21.75 6.58987 21.3538 5.75666 20.5779C4.9174 19.7963 4.4541 18.6863 4.4541 17.3874L4.4541 6.6108C4.4541 5.31263 4.91752 4.20306 5.75676 3.42181C6.58994 2.6462 7.73263 2.25 8.9994 2.25L15.0006 2.25C16.2683 2.25 17.4108 2.6483 18.2436 3.42449ZM17.2208 4.52176C16.7119 4.04739 15.9568 3.75 15.0006 3.75L8.9994 3.75C8.04227 3.75 7.28731 4.04635 6.77881 4.51972C6.27637 4.98744 5.9541 5.68327 5.9541 6.6108L5.9541 17.3874C5.9541 18.316 6.27649 19.0123 6.77891 19.4801C7.28737 19.9537 8.04227 20.25 8.9994 20.25L15.0006 20.25C15.9577 20.25 16.7127 19.9536 17.2211 19.4802C17.7236 19.0124 18.0459 18.3164 18.0459 17.3883L18.0459 6.6108C18.0459 5.68689 17.7239 4.99067 17.2208 4.52176Z" fill="black"/>
<path fill-rule="evenodd" clip-rule="evenodd" d="M19.5101 16.457C19.51 16.0428 19.1743 15.707 18.76 15.707L15.8503 15.7071L14.733 14.2529C14.4806 13.9245 14.0097 13.8628 13.6813 14.1152C13.3528 14.3676 13.2912 14.8384 13.5436 15.1669L14.8861 16.914C15.028 17.0988 15.2478 17.2071 15.4808 17.2071L18.7601 17.207C19.1743 17.207 19.5101 16.8712 19.5101 16.457Z" fill="black"/>
<path fill-rule="evenodd" clip-rule="evenodd" d="M13.8496 13.8645C13.8482 14.0025 13.7352 14.1134 13.5971 14.112C13.4591 14.1107 13.3482 13.9977 13.3496 13.8596C13.3509 13.7215 13.4639 13.6107 13.602 13.612C13.7401 13.6134 13.8509 13.7264 13.8496 13.8645ZM13.5826 15.6119C14.5491 15.6213 15.3401 14.8454 15.3495 13.879C15.3588 12.9125 14.583 12.1215 13.6165 12.1121C12.6501 12.1027 11.859 12.8786 11.8496 13.8451C11.8403 14.8115 12.6162 15.6026 13.5826 15.6119Z" fill="black"/>
<path fill-rule="evenodd" clip-rule="evenodd" d="M7.44238 6.95508C7.44238 5.98858 8.22588 5.20508 9.19238 5.20508H14.6059C15.5724 5.20508 16.3559 5.98858 16.3559 6.95508V8.84966C16.3559 9.81616 15.5724 10.5997 14.6059 10.5997H9.19238C8.22589 10.5997 7.44238 9.81616 7.44238 8.84966V6.95508ZM9.19238 6.70508C9.05431 6.70508 8.94238 6.81701 8.94238 6.95508V8.84966C8.94238 8.98773 9.05431 9.09966 9.19238 9.09966H14.6059C14.744 9.09966 14.8559 8.98773 14.8559 8.84966V6.95508C14.8559 6.81701 14.744 6.70508 14.6059 6.70508H9.19238Z" fill="black"/>
<path fill-rule="evenodd" clip-rule="evenodd" d="M11.0283 17.659C11.0269 17.5209 10.9139 17.4101 10.7759 17.4114C10.6378 17.4128 10.5269 17.5258 10.5283 17.6638C10.5296 17.8019 10.6426 17.9127 10.7807 17.9114C10.9188 17.9101 11.0296 17.797 11.0283 17.659ZM10.7613 15.9115C11.7278 15.9021 12.5188 16.678 12.5282 17.6444C12.5376 18.6109 11.7617 19.402 10.7952 19.4113C9.82879 19.4207 9.03772 18.6448 9.02836 17.6784C9.01899 16.7119 9.79486 15.9209 10.7613 15.9115Z" fill="black"/>
<path fill-rule="evenodd" clip-rule="evenodd" d="M9.00873 13.4383C9.00739 13.3002 8.89439 13.1894 8.75632 13.1907C8.61825 13.1921 8.50742 13.3051 8.50876 13.4431C8.51009 13.5812 8.6231 13.692 8.76117 13.6907C8.89923 13.6894 9.01007 13.5763 9.00873 13.4383ZM8.74178 11.6908C9.70823 11.6814 10.4993 12.4573 10.5087 13.4237C10.518 14.3902 9.74216 15.1813 8.77571 15.1906C7.80925 15.2 7.01819 14.4241 7.00883 13.4577C6.99946 12.4912 7.77533 11.7002 8.74178 11.6908Z" fill="black"/>
<path fill-rule="evenodd" clip-rule="evenodd" d="M9.76859 18.4121L5.25 18.4121C4.83579 18.4121 4.5 18.0763 4.5 17.6621C4.5 17.2479 4.83579 16.9121 5.25 16.9121L9.76859 16.9121C10.1828 16.9121 10.5186 17.2479 10.5186 17.6621C10.5186 18.0763 10.1828 18.4121 9.76859 18.4121Z" fill="black"/>
<path fill-rule="evenodd" clip-rule="evenodd" d="M7.74906 14.1914L5.25 14.1914C4.83579 14.1914 4.5 13.8556 4.5 13.4414C4.5 13.0272 4.83579 12.6914 5.25 12.6914L7.74906 12.6914C8.16327 12.6914 8.49906 13.0272 8.49906 13.4414C8.49906 13.8556 8.16327 14.1914 7.74906 14.1914Z" fill="black"/>
</svg>