<svg width="24" height="24" viewBox="0 0 24 24" fill="none" xmlns="http://www.w3.org/2000/svg">
<path fill-rule="evenodd" clip-rule="evenodd" d="M18.4082 8.38585C18.4082 9.10099 18.9881 9.68185 19.7042 9.68185C20.4193 9.68185 21.0002 9.10099 21.0002 8.38585C21.0002 7.67071 20.4193 7.08984 19.7042 7.08984C18.9881 7.08984 18.4082 7.67071 18.4082 8.38585Z" stroke="black" stroke-width="1.5" stroke-linecap="round" stroke-linejoin="round"/>
<path fill-rule="evenodd" clip-rule="evenodd" d="M12.9355 4.74913C12.9355 5.46524 13.5154 6.04513 14.2316 6.04513C14.9467 6.04513 15.5276 5.46524 15.5276 4.74913C15.5276 4.03399 14.9467 3.45312 14.2316 3.45312C13.5154 3.45312 12.9355 4.03399 12.9355 4.74913Z" stroke="black" stroke-width="1.5" stroke-linecap="round" stroke-linejoin="round"/>
<path fill-rule="evenodd" clip-rule="evenodd" d="M9.43381 5.99522C9.43381 6.71036 8.85391 7.29123 8.1378 7.29123C7.42266 7.29123 6.8418 6.71036 6.8418 5.99522C6.8418 5.28009 7.42266 4.69922 8.1378 4.69922C8.85391 4.69922 9.43381 5.28009 9.43381 5.99522Z" stroke="black" stroke-width="1.5" stroke-linecap="round" stroke-linejoin="round"/>
<path fill-rule="evenodd" clip-rule="evenodd" d="M5.59201 9.66319C5.59201 10.3783 5.01211 10.9592 4.296 10.9592C3.58087 10.9592 3 10.3783 3 9.66319C3 8.94708 3.58087 8.36719 4.296 8.36719C5.01211 8.36719 5.59201 8.94708 5.59201 9.66319Z" stroke="black" stroke-width="1.5" stroke-linecap="round" stroke-linejoin="round"/>
<path d="M10.201 10.4398V8.60379L8.83008 7.08984" stroke="black" stroke-width="1.5" stroke-linecap="round" stroke-linejoin="round"/>
<path d="M14.2324 6.04492L14.2325 9.86878" stroke="black" stroke-width="1.5" stroke-linecap="round" stroke-linejoin="round"/>
<path d="M17.3047 11.332L19.0132 9.48047" stroke="black" stroke-width="1.5" stroke-linecap="round" stroke-linejoin="round"/>
<path d="M11.2328 16.7461C11.908 16.6469 12.5959 16.7471 13.278 16.7306C14.86 16.6926 16.0996 15.3558 17.3042 14.4489C17.9191 13.9858 18.7811 14.0471 19.325 14.5929C19.9293 15.1991 19.9293 16.1818 19.325 16.788C18.0242 18.0947 16.8751 19.306 15.113 19.991C12.666 20.9426 10.396 20.4814 7.91884 19.991C6.96045 19.8013 5.14974 19.7906 4.17969 19.7906" stroke="black" stroke-width="1.5" stroke-linecap="round" stroke-linejoin="round"/>
<path d="M11.2318 16.7161H12.5677C13.5212 16.7161 14.2909 16.0302 14.2909 15.0767C14.2909 14.2847 13.7547 13.6513 12.9871 13.4576C11.8866 13.1823 10.7891 12.9653 9.641 12.9925C7.82154 13.0373 5.62164 14.0511 4.17969 15.0163" stroke="black" stroke-width="1.5" stroke-linecap="round" stroke-linejoin="round"/>
</svg>