<svg width="24" height="24" viewBox="0 0 24 24" fill="none" xmlns="http://www.w3.org/2000/svg">
<path fill-rule="evenodd" clip-rule="evenodd" d="M5.08995 4.95529C5.951 4.15527 7.14335 3.78711 8.49177 3.78711H15.5137C16.8654 3.78711 18.0585 4.15494 18.9184 4.95597C19.7863 5.76449 20.2167 6.9231 20.2131 8.30065C20.2131 8.30101 20.2131 8.30136 20.2131 8.30171L19.4631 8.29961H20.2131V8.30065V15.6952C20.2131 17.0728 19.7804 18.2323 18.9122 19.042C18.0518 19.8444 16.8587 20.2145 15.506 20.2145H8.49177C7.13905 20.2145 5.94501 19.8364 5.08468 19.0215C4.21824 18.2007 3.78564 17.0274 3.78564 15.6329V8.29961C3.78564 6.92094 4.2207 5.76293 5.08995 4.95529ZM6.11095 6.05418C5.61097 6.51871 5.28564 7.24195 5.28564 8.29961V15.6329C5.28564 16.7138 5.61344 17.4562 6.11622 17.9325C6.6251 18.4145 7.40913 18.7145 8.49177 18.7145H15.506C16.5964 18.7145 17.3818 18.4182 17.8892 17.945C18.3887 17.4791 18.7131 16.7539 18.7131 15.6952V8.29961L18.7131 8.29752C18.716 7.2392 18.3934 6.51694 17.8959 6.0535C17.3902 5.58236 16.6052 5.28711 15.5137 5.28711H8.49177C7.40483 5.28711 6.61912 5.58203 6.11095 6.05418Z" fill="black"/>
<path fill-rule="evenodd" clip-rule="evenodd" d="M7.94922 2.25C8.36343 2.25 8.69922 2.58579 8.69922 3V4.5373C8.69922 4.95152 8.36343 5.2873 7.94922 5.2873C7.53501 5.2873 7.19922 4.95152 7.19922 4.5373V3C7.19922 2.58579 7.53501 2.25 7.94922 2.25ZM11.9989 2.25C12.4131 2.25 12.7489 2.58579 12.7489 3V4.5373C12.7489 4.95152 12.4131 5.2873 11.9989 5.2873C11.5846 5.2873 11.2489 4.95152 11.2489 4.5373V3C11.2489 2.58579 11.5846 2.25 11.9989 2.25ZM16.0485 2.25C16.4627 2.25 16.7985 2.58579 16.7985 3V4.5373C16.7985 4.95152 16.4627 5.2873 16.0485 5.2873C15.6343 5.2873 15.2985 4.95152 15.2985 4.5373V3C15.2985 2.58579 15.6343 2.25 16.0485 2.25Z" fill="black"/>
<path fill-rule="evenodd" clip-rule="evenodd" d="M7.94922 18.7129C8.36343 18.7129 8.69922 19.0487 8.69922 19.4629V21.0002C8.69922 21.4144 8.36343 21.7502 7.94922 21.7502C7.53501 21.7502 7.19922 21.4144 7.19922 21.0002V19.4629C7.19922 19.0487 7.53501 18.7129 7.94922 18.7129ZM11.9989 18.7129C12.4131 18.7129 12.7489 19.0487 12.7489 19.4629V21.0002C12.7489 21.4144 12.4131 21.7502 11.9989 21.7502C11.5846 21.7502 11.2489 21.4144 11.2489 21.0002V19.4629C11.2489 19.0487 11.5846 18.7129 11.9989 18.7129ZM16.0485 18.7129C16.4627 18.7129 16.7985 19.0487 16.7985 19.4629V21.0002C16.7985 21.4144 16.4627 21.7502 16.0485 21.7502C15.6343 21.7502 15.2985 21.4144 15.2985 21.0002V19.4629C15.2985 19.0487 15.6343 18.7129 16.0485 18.7129Z" fill="black"/>
<path fill-rule="evenodd" clip-rule="evenodd" d="M2.25 7.94922C2.25 7.53501 2.58579 7.19922 3 7.19922H4.5373C4.95152 7.19922 5.2873 7.53501 5.2873 7.94922C5.2873 8.36343 4.95152 8.69922 4.5373 8.69922H3C2.58579 8.69922 2.25 8.36343 2.25 7.94922ZM2.25 11.9989C2.25 11.5846 2.58579 11.2489 3 11.2489H4.5373C4.95152 11.2489 5.2873 11.5846 5.2873 11.9989C5.2873 12.4131 4.95152 12.7489 4.5373 12.7489H3C2.58579 12.7489 2.25 12.4131 2.25 11.9989ZM2.25 16.0485C2.25 15.6343 2.58579 15.2985 3 15.2985H4.5373C4.95152 15.2985 5.2873 15.6343 5.2873 16.0485C5.2873 16.4627 4.95152 16.7985 4.5373 16.7985H3C2.58579 16.7985 2.25 16.4627 2.25 16.0485Z" fill="black"/>
<path fill-rule="evenodd" clip-rule="evenodd" d="M18.7129 7.94922C18.7129 7.53501 19.0487 7.19922 19.4629 7.19922H21.0002C21.4144 7.19922 21.7502 7.53501 21.7502 7.94922C21.7502 8.36343 21.4144 8.69922 21.0002 8.69922H19.4629C19.0487 8.69922 18.7129 8.36343 18.7129 7.94922ZM18.7129 11.9989C18.7129 11.5846 19.0487 11.2489 19.4629 11.2489H21.0002C21.4144 11.2489 21.7502 11.5846 21.7502 11.9989C21.7502 12.4131 21.4144 12.7489 21.0002 12.7489H19.4629C19.0487 12.7489 18.7129 12.4131 18.7129 11.9989ZM18.7129 16.0485C18.7129 15.6343 19.0487 15.2985 19.4629 15.2985H21.0002C21.4144 15.2985 21.7502 15.6343 21.7502 16.0485C21.7502 16.4627 21.4144 16.7985 21.0002 16.7985H19.4629C19.0487 16.7985 18.7129 16.4627 18.7129 16.0485Z" fill="black"/>
<path fill-rule="evenodd" clip-rule="evenodd" d="M7.99805 13.0918C8.41226 13.0918 8.74805 13.4276 8.74805 13.8418L8.74805 16.0484C8.74805 16.4626 8.41226 16.7984 7.99805 16.7984C7.58383 16.7984 7.24805 16.4626 7.24805 16.0484L7.24805 13.8418C7.24805 13.4276 7.58383 13.0918 7.99805 13.0918Z" fill="black"/>
<path fill-rule="evenodd" clip-rule="evenodd" d="M10.6982 11.252C11.1125 11.252 11.4482 11.5877 11.4482 12.002V16.0493C11.4482 16.4635 11.1125 16.7993 10.6982 16.7993C10.284 16.7993 9.94824 16.4635 9.94824 16.0493V12.002C9.94824 11.5877 10.284 11.252 10.6982 11.252Z" fill="black"/>
<path fill-rule="evenodd" clip-rule="evenodd" d="M13.3984 13.0918C13.8127 13.0918 14.1484 13.4276 14.1484 13.8418L14.1484 16.0484C14.1484 16.4626 13.8127 16.7984 13.3984 16.7984C12.9842 16.7984 12.6484 16.4626 12.6484 16.0484L12.6484 13.8418C12.6484 13.4276 12.9842 13.0918 13.3984 13.0918Z" fill="black"/>
<path fill-rule="evenodd" clip-rule="evenodd" d="M16.0986 11.252C16.5128 11.252 16.8486 11.5877 16.8486 12.002V16.0493C16.8486 16.4635 16.5128 16.7993 16.0986 16.7993C15.6844 16.7993 15.3486 16.4635 15.3486 16.0493V12.002C15.3486 11.5877 15.6844 11.252 16.0986 11.252Z" fill="black"/>
<path fill-rule="evenodd" clip-rule="evenodd" d="M16.6445 7.46849C16.9111 7.78551 16.8702 8.25862 16.5531 8.52521L14.0219 10.6538C13.7542 10.8789 13.3664 10.889 13.0872 10.6782L10.7207 8.89099L8.35331 10.6783C8.02274 10.9279 7.55242 10.8622 7.30284 10.5316C7.05326 10.2011 7.11893 9.73074 7.4495 9.48116L10.2688 7.35262C10.5363 7.15069 10.9053 7.15071 11.1727 7.35269L13.5141 9.12092L15.5877 7.37717C15.9048 7.11058 16.3779 7.15147 16.6445 7.46849Z" fill="black"/>
</svg>