<svg width="24" height="24" viewBox="0 0 24 24" fill="none" xmlns="http://www.w3.org/2000/svg">
<path fill-rule="evenodd" clip-rule="evenodd" d="M6.89286 3.75C5.15668 3.75 3.75 5.15693 3.75 6.89189V8.46907C3.75 8.88329 3.41421 9.21907 3 9.21907C2.58579 9.21907 2.25 8.88329 2.25 8.46907V6.89189C2.25 4.32826 4.3285 2.25 6.89286 2.25H8.18205C8.59626 2.25 8.93205 2.58579 8.93205 3C8.93205 3.41421 8.59626 3.75 8.18205 3.75H6.89286Z" fill="black"/>
<path fill-rule="evenodd" clip-rule="evenodd" d="M3 14.7812C3.41421 14.7812 3.75 15.117 3.75 15.5312V17.1084C3.75 18.8434 5.15668 20.2503 6.89286 20.2503H8.14994C8.56415 20.2503 8.89994 20.5861 8.89994 21.0003C8.89994 21.4145 8.56415 21.7503 8.14994 21.7503H6.89286C4.3285 21.7503 2.25 19.6721 2.25 17.1084V15.5312C2.25 15.117 2.58579 14.7812 3 14.7812Z" fill="black"/>
<path fill-rule="evenodd" clip-rule="evenodd" d="M21.0004 14.7812C21.4146 14.7812 21.7504 15.117 21.7504 15.5312V17.1084C21.7504 19.6721 19.6719 21.7503 17.1075 21.7503H15.8184C15.4041 21.7503 15.0684 21.4145 15.0684 21.0003C15.0684 20.5861 15.4041 20.2503 15.8184 20.2503H17.1075C18.8437 20.2503 20.2504 18.8434 20.2504 17.1084V15.5312C20.2504 15.117 20.5862 14.7812 21.0004 14.7812Z" fill="black"/>
<path fill-rule="evenodd" clip-rule="evenodd" d="M15.0996 3C15.0996 2.58579 15.4354 2.25 15.8496 2.25H17.1067C19.671 2.25 21.7495 4.32826 21.7495 6.89189V8.46907C21.7495 8.88329 21.4138 9.21907 20.9995 9.21907C20.5853 9.21907 20.2495 8.88329 20.2495 8.46907V6.89189C20.2495 5.15693 18.8429 3.75 17.1067 3.75H15.8496C15.4354 3.75 15.0996 3.41421 15.0996 3Z" fill="black"/>
<path fill-rule="evenodd" clip-rule="evenodd" d="M10.5003 8.17579C10.7968 8.17423 11.0664 8.34754 11.1881 8.61796L13.9553 14.7661C14.1253 15.1438 13.9569 15.5878 13.5792 15.7578C13.2015 15.9278 12.7575 15.7595 12.5875 15.3817L10.5139 10.7747L8.50152 15.3745C8.33549 15.754 7.89327 15.9271 7.51378 15.761C7.1343 15.595 6.96126 15.1528 7.12728 14.7733L9.81709 8.62517C9.93595 8.35349 10.2037 8.17735 10.5003 8.17579Z" fill="black"/>
<path fill-rule="evenodd" clip-rule="evenodd" d="M12.5506 14.2422L8.53516 14.2422L8.53516 12.7422L12.5506 12.7422L12.5506 14.2422Z" fill="black"/>
<path fill-rule="evenodd" clip-rule="evenodd" d="M16.2383 8.40039C16.6525 8.40039 16.9883 8.73618 16.9883 9.15039V15.0723C16.9883 15.4865 16.6525 15.8223 16.2383 15.8223C15.8241 15.8223 15.4883 15.4865 15.4883 15.0723V9.15039C15.4883 8.73618 15.8241 8.40039 16.2383 8.40039Z" fill="black"/>
</svg>