<svg width="24" height="24" viewBox="0 0 24 24" fill="none" xmlns="http://www.w3.org/2000/svg">
<path fill-rule="evenodd" clip-rule="evenodd" d="M11.9997 21C11.9997 21 19.3237 18.7826 19.3237 12.6694C19.3237 6.55622 19.5897 6.08238 19.0017 5.48984C18.4127 4.89632 12.9607 3 11.9997 3C11.0397 3 5.58669 4.90119 4.99769 5.48984C4.40969 6.07751 4.67669 6.55524 4.67669 12.6694C4.67669 18.7836 11.9997 21 11.9997 21Z" stroke="black" stroke-width="1.5" stroke-linecap="round" stroke-linejoin="round"/>
<circle cx="12.0557" cy="17.9609" r="0.75" transform="rotate(-90 12.0557 17.9609)" stroke="black" stroke-width="1.5" stroke-linecap="round" stroke-linejoin="round"/>
<path d="M12.0557 17.2109L12.0557 15.0528L18.8133 15.0528" stroke="black" stroke-width="1.5" stroke-linecap="round" stroke-linejoin="round"/>
<circle cx="9.05566" cy="11.834" r="0.75" transform="rotate(90 9.05566 11.834)" stroke="black" stroke-width="1.5" stroke-linecap="round" stroke-linejoin="round"/>
<path d="M9.05566 12.584L9.05566 14.2872L4.93048 14.2872" stroke="black" stroke-width="1.5" stroke-linecap="round" stroke-linejoin="round"/>
<circle cx="0.75" cy="0.75" r="0.75" transform="matrix(1 0 0 -1 12.8057 11.498)" stroke="black" stroke-width="1.5" stroke-linecap="round" stroke-linejoin="round"/>
<path d="M14.3057 10.748L16.4638 10.748L16.4638 4.40698" stroke="black" stroke-width="1.5" stroke-linecap="round" stroke-linejoin="round"/>
<circle cx="10.5557" cy="7.67773" r="0.75" transform="rotate(180 10.5557 7.67773)" stroke="black" stroke-width="1.5" stroke-linecap="round" stroke-linejoin="round"/>
<path d="M9.80566 7.67773L7.64753 7.67773L7.64753 4.35398" stroke="black" stroke-width="1.5" stroke-linecap="round" stroke-linejoin="round"/>
</svg>