<svg width="24" height="24" viewBox="0 0 24 24" fill="none" xmlns="http://www.w3.org/2000/svg">
<path d="M12.0005 18.09C12.6339 18.7614 13.601 19.6721 14.4096 20.144C15.0673 20.6791 17.4025 21.8905 19.5061 19.8949C21.6106 17.8993 20.2348 15.282 19.9702 14.7507C19.5499 13.9072 14.8075 4.73288 14.8075 4.73288C14.2821 3.70833 13.2313 3 12.0005 3C10.7697 3 9.71884 3.70833 9.19342 4.73288C9.19342 4.73288 4.4511 13.9072 4.03077 14.7507C3.76612 15.282 2.39032 17.8993 4.49488 19.8949C6.59848 21.8905 8.93461 20.6791 9.59138 20.144C10.3999 19.6721 11.3671 18.7614 12.0005 18.09ZM12.0005 18.09C10.83 16.8495 9.26445 15.4591 9.26445 13.5948C9.26445 12.0838 10.4894 10.8588 12.0005 10.8588C13.5115 10.8588 14.7365 12.0838 14.7365 13.5948C14.7365 15.4591 13.171 16.8495 12.0005 18.09Z" stroke="black" stroke-width="1.5" stroke-linecap="round" stroke-linejoin="round"/>
</svg>