<svg width="24" height="24" viewBox="0 0 24 24" fill="none" xmlns="http://www.w3.org/2000/svg">
<path opacity="0.4" d="M7.78216 3H16.2169C19.165 3 21 5.08119 21 8.02638V15.9736C21 18.9188 19.165 21 16.2159 21H7.78216C4.83405 21 3 18.9188 3 15.9736V8.02638C3 5.08119 4.84281 3 7.78216 3Z" stroke="black" stroke-width="1.5" stroke-linecap="round" stroke-linejoin="round"/>
<path d="M12.0006 15.4035C12.3547 15.779 12.8947 16.2879 13.3472 16.5516C13.7149 16.8512 15.0207 17.5284 16.196 16.4124C17.3724 15.2974 16.6037 13.834 16.4558 13.5373C16.2204 13.0654 13.57 7.93783 13.57 7.93783C13.2761 7.36475 12.6885 6.96875 12.0006 6.96875C11.3127 6.96875 10.725 7.36475 10.4312 7.93783C10.4312 7.93783 7.78078 13.0654 7.54532 13.5373C7.39743 13.834 6.62878 15.2974 7.80511 16.4124C8.98046 17.5284 10.2862 16.8512 10.654 16.5516C11.1064 16.2879 11.6464 15.779 12.0006 15.4035ZM12.0006 15.4035C11.3458 14.7107 10.4711 13.9333 10.4711 12.8912C10.4711 12.0467 11.156 11.3617 12.0006 11.3617C12.8451 11.3617 13.5301 12.0467 13.5301 12.8912C13.5301 13.9333 12.6554 14.7107 12.0006 15.4035Z" stroke="black" stroke-width="1.5" stroke-linecap="round" stroke-linejoin="round"/>
</svg>