<svg width="25" height="24" viewBox="0 0 25 24" fill="none" xmlns="http://www.w3.org/2000/svg">
<path d="M14.2941 13.6725L19.052 9.55788C19.5763 9.19788 19.8704 8.56869 19.7742 7.93949C19.2606 4.57623 16.3558 2 12.8487 2C9.34275 2 6.43787 4.57623 5.92435 7.93949C5.82814 8.56869 6.12219 9.19788 6.64652 9.55788L11.3957 13.6855" stroke="black" stroke-width="1.5" stroke-linecap="round" stroke-linejoin="round"/>
<path d="M12.8496 13.1612V9.00684" stroke="black" stroke-width="1.5" stroke-linecap="round" stroke-linejoin="round"/>
<path d="M19.4957 9.00684H6.19727" stroke="black" stroke-width="1.5" stroke-linecap="round" stroke-linejoin="round"/>
<path d="M10.2491 13.6821L15.4221 13.6724C16.927 13.6691 17.8653 14.7286 17.8686 16.2313L17.8783 19.4194C17.8826 20.9221 16.9486 21.987 15.4437 21.9903L10.2707 22C8.76583 22.0043 7.82744 20.9438 7.82312 19.4411L7.81447 16.254C7.81014 14.7502 8.74853 13.6864 10.2491 13.6821Z" stroke="black" stroke-width="1.5" stroke-linecap="round" stroke-linejoin="round"/>
<path d="M11.6953 16.6875H13.998" stroke="black" stroke-width="1.5" stroke-linecap="round" stroke-linejoin="round"/>
</svg>