<svg width="25" height="24" viewBox="0 0 25 24" fill="none" xmlns="http://www.w3.org/2000/svg">
<path fill-rule="evenodd" clip-rule="evenodd" d="M8.76532 3.75C6.79564 3.75 5.19824 5.34665 5.19824 7.31708V7.93961H7.19544C7.49953 7.12443 8.28542 6.54476 9.20613 6.54476H15.2921C16.2128 6.54476 16.9987 7.12443 17.3028 7.93961H19.3008V7.31708C19.3008 5.34665 17.7034 3.75 15.7338 3.75H8.76532ZM20.8008 8.65138V7.31708C20.8008 4.518 18.5316 2.25 15.7338 2.25H8.76532C5.96744 2.25 3.69824 4.518 3.69824 7.31708V16.6819C3.69824 19.4808 5.96722 21.75 8.76532 21.75H15.7338C18.5319 21.75 20.8008 19.4808 20.8008 16.6819V8.72784C20.8015 8.71518 20.8018 8.70243 20.8018 8.68961C20.8018 8.67679 20.8015 8.66404 20.8008 8.65138ZM19.3008 9.43961H17.3024C16.9981 10.2542 16.2128 10.8343 15.2921 10.8343H9.20613C8.28538 10.8343 7.50013 10.2542 7.19585 9.43961H5.19824V16.6819C5.19824 18.6526 6.79586 20.25 8.76532 20.25H15.7338C17.7032 20.25 19.3008 18.6526 19.3008 16.6819V9.43961ZM8.56135 8.7135C8.5742 9.05854 8.85794 9.33428 9.20613 9.33428H15.2921C15.6485 9.33428 15.9373 9.04541 15.9373 8.68903C15.9373 8.33333 15.6491 8.04476 15.2921 8.04476H9.20613C8.85711 8.04476 8.5739 8.32049 8.56133 8.66511C8.56159 8.67325 8.56172 8.68141 8.56172 8.68961C8.56172 8.6976 8.56159 8.70557 8.56135 8.7135Z" fill="black"/>
</svg>