<svg width="24" height="24" viewBox="0 0 24 24" fill="none" xmlns="http://www.w3.org/2000/svg">
<path d="M3.69873 7.3171C3.69873 4.65608 5.85596 2.5 8.51581 2.5H15.4842C18.1441 2.5 20.3013 4.65608 20.3013 7.3171V7.9375H3.69873V7.3171Z" fill="black"/>
<path fill-rule="evenodd" clip-rule="evenodd" d="M3.69873 9.4375V16.6819C3.69873 19.3428 5.85581 21.5 8.51581 21.5H15.4842C18.1442 21.5 20.3013 19.3428 20.3013 16.6819V9.4375H3.69873ZM11.0574 16.7699C11.0574 16.2478 11.4805 15.8242 12.003 15.8242C12.5249 15.8242 12.9487 16.2472 12.9487 16.7699C12.9487 17.2925 12.5249 17.7155 12.003 17.7155C11.4805 17.7155 11.0574 17.2919 11.0574 16.7699Z" fill="black"/>
</svg>