<svg width="25" height="24" viewBox="0 0 25 24" fill="none" xmlns="http://www.w3.org/2000/svg">
<path fill-rule="evenodd" clip-rule="evenodd" d="M14.9121 3.78905C14.0078 4.61836 13.4005 5.78012 13.4005 7.03832V13.1051C13.4005 13.3925 13.7863 13.5311 13.9949 13.3333C14.7379 12.6282 15.6795 12.1303 16.7271 11.9319C16.8741 11.9041 16.9846 11.7782 16.9846 11.6286V11.1388H17.8493C19.3221 11.1388 20.6757 10.433 21.5073 9.33346C21.8127 8.92981 21.9576 8.43318 21.9576 7.94054V5.61448C21.9576 5.11922 21.8104 4.62294 21.5065 4.21991C20.7582 3.22875 19.5954 2.57111 18.2839 2.50444L18.2827 2.50438C17.0345 2.44684 15.8162 2.95994 14.9121 3.78905ZM18.1372 6.16488C18.1372 5.75365 18.4706 5.42027 18.8818 5.42027C19.2931 5.42027 19.6264 5.75365 19.6264 6.16488V7.52111C19.6264 7.93234 19.2931 8.26572 18.8818 8.26572C18.4706 8.26572 18.1372 7.93234 18.1372 7.52111V6.16488Z" fill="black"/>
<path fill-rule="evenodd" clip-rule="evenodd" d="M10.0877 6.26632C10.992 7.09563 11.5993 8.25739 11.5993 9.51558V19.5771C11.5993 20.5692 10.7969 21.3747 9.80727 21.3747C8.81651 21.3747 8.01524 20.5691 8.01524 19.5771V13.6161H7.1505C5.67777 13.6161 4.32416 12.9103 3.49256 11.8107C3.18709 11.4071 3.04224 10.9104 3.04224 10.4178V8.09175C3.04224 7.59649 3.18944 7.1002 3.49335 6.69718C4.2416 5.70602 5.40448 5.04838 6.71594 4.98171L6.71711 4.98165C7.96538 4.92411 9.18362 5.4372 10.0877 6.26632ZM6.86261 8.64215C6.86261 8.23091 6.52923 7.89754 6.118 7.89754C5.70676 7.89754 5.37339 8.23091 5.37339 8.64215V9.99837C5.37339 10.4096 5.70676 10.743 6.118 10.743C6.52923 10.743 6.86261 10.4096 6.86261 9.99837V8.64215Z" fill="black"/>
<path fill-rule="evenodd" clip-rule="evenodd" d="M17.7486 21.5C20.0736 21.5 21.9576 19.6159 21.9576 17.291C21.9576 14.9661 20.0736 13.0821 17.7486 13.0821C15.4237 13.0821 13.5397 14.9661 13.5397 17.291C13.5397 19.6159 15.4237 21.5 17.7486 21.5ZM17.2238 15.7122C16.9329 15.4211 16.4612 15.421 16.1701 15.7119C15.8791 16.0028 15.879 16.4745 16.1698 16.7656L16.6945 17.2905L16.1698 17.8154C15.879 18.1065 15.8791 18.5782 16.1701 18.8691C16.4612 19.16 16.9329 19.1598 17.2238 18.8688L17.7479 18.3445L18.2719 18.8688C18.5628 19.1598 19.0345 19.16 19.3256 18.8691C19.6166 18.5782 19.6167 18.1065 19.3259 17.8154L18.8012 17.2905L19.3259 16.7656C19.6167 16.4745 19.6166 16.0028 19.3256 15.7119C19.0345 15.421 18.5628 15.4211 18.2719 15.7122L17.7479 16.2365L17.2238 15.7122Z" fill="black"/>
</svg>