<svg width="25" height="24" viewBox="0 0 25 24" fill="none" xmlns="http://www.w3.org/2000/svg">
<path d="M14.03 11.4891V6.86553C14.03 4.74443 16.088 2.9055 18.21 3.00377C19.326 3.0602 20.317 3.61772 20.956 4.46032C21.199 4.7814 21.318 5.17935 21.318 5.58217V7.67796C21.318 8.0798 21.2 8.47775 20.956 8.79786C20.246 9.73387 19.088 10.3362 17.828 10.3362H16.821V10.6845M3.5 10.7727C3.5 11.1745 3.619 11.5725 3.862 11.8926C4.573 12.8286 5.73001 13.4309 6.99001 13.4309H7.99699V18.9516C7.99699 19.7222 8.62301 20.3468 9.39301 20.3468C10.164 20.3468 10.789 19.7222 10.789 18.9516V9.96028C10.789 7.83818 8.73099 6.00022 6.60899 6.09849C5.49299 6.15395 4.50101 6.71244 3.86301 7.55504C3.62101 7.87515 3.5 8.27408 3.5 8.67689V10.7727Z" stroke="black" stroke-width="1.5" stroke-linecap="round" stroke-linejoin="round"/>
<path d="M6.05664 9.17139V10.3935" stroke="black" stroke-width="1.5" stroke-linecap="round" stroke-linejoin="round"/>
<path d="M18.7617 6.07666V7.29872" stroke="black" stroke-width="1.5" stroke-linecap="round" stroke-linejoin="round"/>
<path d="M17.5706 20.8062C19.7416 20.8062 21.5006 19.047 21.5006 16.8763C21.5006 14.7056 19.7416 12.9465 17.5706 12.9465C15.3996 12.9465 13.6406 14.7056 13.6406 16.8763C13.6406 19.047 15.3996 20.8062 17.5706 20.8062Z" stroke="black" stroke-width="1.5" stroke-linecap="round" stroke-linejoin="round"/>
<path d="M17.7224 18.4447L18.5764 16.8762H16.5684L17.4214 15.3068" stroke="black" stroke-width="1.5" stroke-linecap="round" stroke-linejoin="round"/>
</svg>