<svg width="24" height="24" viewBox="0 0 24 24" fill="none" xmlns="http://www.w3.org/2000/svg">
<path d="M14.8561 6.49203V7.87858M11.9541 8.30912C11.9541 8.76547 12.0891 9.21695 12.3641 9.57988C13.1711 10.6414 14.4841 11.3255 15.9151 11.3255H17.0581V17.6744C17.0581 18.5492 17.7661 19.2585 18.6411 19.2585C19.5161 19.2585 20.2251 18.5492 20.2251 17.6744V7.3867C20.2251 4.97946 17.8901 2.89331 15.4821 3.00423C14.2151 3.06845 13.0901 3.70091 12.3661 4.65739C12.0901 5.0213 11.9541 5.47375 11.9541 5.93009V8.30912Z" stroke="black" stroke-width="1.5" stroke-linecap="round" stroke-linejoin="round"/>
<path d="M6.50757 21C8.04257 21 9.28656 19.7555 9.28656 18.2201C9.28656 16.6847 8.04257 15.4402 6.50757 15.4402C4.97157 15.4402 3.72656 16.6847 3.72656 18.2201C3.72656 19.7555 4.97157 21 6.50757 21Z" stroke="black" stroke-width="1.5" stroke-linecap="round" stroke-linejoin="round"/>
<path d="M9.28711 18.22V11.3741C9.28711 11.3741 10.0091 13.254 11.9531 13.649" stroke="black" stroke-width="1.5" stroke-linecap="round" stroke-linejoin="round"/>
<path d="M4.651 11.1286C5.563 11.1286 6.30096 10.3901 6.30096 9.47836C6.30096 8.56664 5.563 7.82715 4.651 7.82715C3.739 7.82715 3 8.56664 3 9.47836C3 10.3901 3.739 11.1286 4.651 11.1286Z" stroke="black" stroke-width="1.5" stroke-linecap="round" stroke-linejoin="round"/>
<path d="M6.30078 9.47835L6.30182 5.41455C6.30182 5.41455 6.73077 6.52963 7.88477 6.7651" stroke="black" stroke-width="1.5" stroke-linecap="round" stroke-linejoin="round"/>
</svg>