<svg width="24" height="24" viewBox="0 0 24 24" fill="none" xmlns="http://www.w3.org/2000/svg">
<path d="M14.3393 7.00369C14.2606 7.33838 14.0912 7.6174 13.7915 7.80384C13.578 7.93649 13.3402 7.96332 13.0981 7.92926C12.3904 7.83083 11.8029 7.51029 11.3369 6.96767C11.0473 6.63028 10.9525 6.25446 11.0558 5.81838C11.2343 5.06605 11.4023 4.31132 11.5671 3.55589C11.6542 3.15665 11.876 2.86598 12.2403 2.68887C12.9385 2.35001 13.659 2.31276 14.3906 2.57157C14.828 2.72651 15.0813 3.13348 15.0667 3.63208C15.0636 3.74027 15.0497 3.84968 15.0266 3.95526C14.9464 4.32143 14.8635 4.68701 14.7807 5.05259L14.6876 5.46401C14.6536 5.61459 14.6196 5.76713 14.5852 5.92075L14.584 5.92621L14.5838 5.92728C14.504 6.28443 14.4229 6.64716 14.3393 7.00369Z" fill="black"/>
<path d="M9.66067 14.0291C9.73944 14.3638 9.90875 14.6428 10.2085 14.8292C10.422 14.9619 10.6598 14.9887 10.9019 14.9547C11.6096 14.8562 12.1971 14.5357 12.6631 13.9931C12.9527 13.6557 13.0475 13.2798 12.9442 12.8438C12.7657 12.0914 12.5977 11.3367 12.4329 10.5813C12.3458 10.182 12.124 9.89137 11.7597 9.71426C11.0614 9.3754 10.341 9.33815 9.60944 9.59696C9.17196 9.7519 8.91871 10.1589 8.93334 10.6575C8.93641 10.7657 8.95025 10.8751 8.9734 10.9806C9.05361 11.3468 9.13646 11.7124 9.21931 12.078L9.3124 12.4894C9.34651 12.6406 9.38073 12.7938 9.4152 12.9481L9.41592 12.9513L9.41615 12.9523C9.49593 13.3095 9.57705 13.6726 9.66067 14.0291Z" fill="black"/>
<g opacity="0.4">
<path fill-rule="evenodd" clip-rule="evenodd" d="M21.3557 6.42329C21.3401 5.1432 20.7828 4.1337 19.7778 3.36258C19.0048 2.76942 18.1151 2.48859 17.1448 2.45742C16.695 2.44295 16.2518 2.49536 15.8184 2.61927C15.7072 2.65078 15.6517 2.7442 15.6716 2.85822C15.6759 2.88435 15.6846 2.90957 15.6937 2.9348C15.7979 3.22678 15.8221 3.51963 15.7513 3.82642C15.5605 4.65435 15.374 5.48325 15.1875 6.31215C15.1039 6.68381 15.0202 7.05547 14.9362 7.42705C14.9296 7.4564 14.9226 7.48585 14.9147 7.51506C14.906 7.54745 14.8963 7.57955 14.8849 7.61095C14.8037 7.83399 14.6738 8.02571 14.5046 8.19223C14.3886 8.30637 14.3941 8.43611 14.5171 8.54132C14.8891 8.8584 15.3037 9.10626 15.7585 9.28466C15.896 9.33869 16.0363 9.38554 16.1772 9.43261L16.1801 9.43358C16.2463 9.45567 16.3126 9.47784 16.3789 9.50077L16.3758 9.50772L16.372 9.51664C16.3669 9.52887 16.3613 9.54221 16.3542 9.55473C16.2452 9.74938 16.1359 9.94392 16.0267 10.1384C15.7787 10.5801 15.5306 11.0219 15.2848 11.4648C15.2549 11.5188 15.2242 11.5724 15.1934 11.6259C15.0727 11.8362 14.9517 12.0468 14.883 12.2841C14.6797 12.9863 14.9121 13.7405 15.4832 14.1992C16.2363 14.8036 17.4061 14.6637 17.9771 13.886C18.2113 13.5677 18.4199 13.2297 18.6278 12.8929L18.6284 12.8918L18.6435 12.8674C19.6437 11.2463 20.5502 9.57943 21.1252 7.75246C21.2615 7.31957 21.3613 6.88003 21.3557 6.42329Z" fill="black"/>
<path fill-rule="evenodd" clip-rule="evenodd" d="M2.64427 13.4487C2.65988 12.1686 3.21715 11.1591 4.22215 10.388C4.99513 9.79481 5.88484 9.51398 6.85517 9.48281C7.30496 9.46834 7.74817 9.52075 8.18157 9.64466C8.29275 9.67617 8.34829 9.76959 8.32838 9.88361C8.32409 9.90974 8.31534 9.93496 8.30625 9.96019C8.20205 10.2522 8.17782 10.545 8.24866 10.8518C8.43949 11.6797 8.62599 12.5086 8.8125 13.3375C8.89612 13.7092 8.97974 14.0809 9.06376 14.4524C9.07038 14.4818 9.07739 14.5112 9.08525 14.5404C9.09395 14.5728 9.10369 14.6049 9.11509 14.6363C9.19626 14.8594 9.32617 15.0511 9.49538 15.2176C9.61141 15.3318 9.60587 15.4615 9.48285 15.5667C9.11083 15.8838 8.69629 16.1317 8.24144 16.31C8.10402 16.3641 7.96377 16.4109 7.82288 16.458L7.81986 16.459C7.75367 16.4811 7.68736 16.5032 7.62111 16.5262C7.62335 16.5311 7.62559 16.5364 7.62793 16.542C7.63306 16.5543 7.63865 16.5676 7.64576 16.5801C7.7548 16.7748 7.86404 16.9693 7.97326 17.1638C8.22131 17.6055 8.46935 18.0473 8.71512 18.4902C8.74511 18.5443 8.77596 18.598 8.80681 18.6517C8.92753 18.862 9.04825 19.0722 9.11694 19.3095C9.32031 20.0117 9.08791 20.7659 8.51673 21.2246C7.76368 21.829 6.59389 21.6891 6.02289 20.9114C5.78872 20.5931 5.58013 20.2551 5.37222 19.9183L5.35649 19.8928C4.35623 18.2717 3.44972 16.6048 2.8748 14.7779C2.73842 14.345 2.63863 13.9054 2.64427 13.4487Z" fill="black"/>
</g>
<path d="M18.3647 6.51919C17.8972 6.42025 17.4315 6.31488 16.967 6.20393C16.6181 6.12063 16.4142 5.78163 16.4949 5.44118C16.5774 5.09455 16.9106 4.88917 17.2645 4.96796C17.4017 4.99851 17.5389 5.02957 17.676 5.06062L17.944 5.12122L18.2119 5.18149C18.3491 5.21232 18.4862 5.24313 18.6232 5.27441C18.975 5.3548 19.1933 5.68847 19.1195 6.03151C19.0463 6.37206 18.7134 6.59324 18.3647 6.51919Z" fill="black"/>
<path d="M5.63531 13.5446C6.10282 13.4456 6.56855 13.3403 7.03302 13.2293C7.38193 13.146 7.58584 12.807 7.5051 12.4666C7.42265 12.1199 7.08939 11.9146 6.73552 11.9933C6.59833 12.0239 6.46124 12.0549 6.32415 12.086L6.32403 12.086L6.05604 12.1466L5.78879 12.2067C5.65137 12.2376 5.51401 12.2685 5.37686 12.2998C5.025 12.3802 4.80676 12.7139 4.88052 13.0569C4.95372 13.3975 5.28661 13.6186 5.63531 13.5446Z" fill="black"/>
</svg>