<svg width="25" height="24" viewBox="0 0 25 24" fill="none" xmlns="http://www.w3.org/2000/svg">
<path fill-rule="evenodd" clip-rule="evenodd" d="M15.58 4.75295C14.9274 5.34939 14.5298 6.14814 14.5298 6.96246V11.5861C14.5298 12.0003 14.1941 12.3361 13.7798 12.3361C13.3656 12.3361 13.0298 12.0003 13.0298 11.5861V6.96246C13.0298 5.65569 13.6613 4.47443 14.5681 3.64569C15.4743 2.81746 16.7082 2.29195 17.9945 2.35151L17.9976 2.35166C19.3434 2.41971 20.5365 3.09212 21.3034 4.10439C21.6557 4.5695 21.8184 5.13083 21.8184 5.6791V7.7749C21.8184 8.32089 21.6574 8.88307 21.3036 9.34857C20.4531 10.4691 19.0754 11.1831 17.5784 11.1831H17.2048C17.0718 11.3925 16.8378 11.5314 16.5713 11.5314C16.1571 11.5314 15.8213 11.1956 15.8213 10.7814V10.4331C15.8213 10.0189 16.1571 9.68308 16.5713 9.68308H17.5784C18.6012 9.68308 19.539 9.19267 20.109 8.44143L20.1093 8.44103C20.2421 8.26631 20.3184 8.03259 20.3184 7.7749V5.6791C20.3184 5.42176 20.2418 5.18721 20.1077 5.01015L20.1077 5.01012C19.5982 4.3376 18.8091 3.8951 17.9235 3.84983C17.0882 3.81163 16.2328 4.15639 15.58 4.75295ZM18.5117 5.42361C18.9259 5.42361 19.2617 5.75939 19.2617 6.17361V7.39567C19.2617 7.80988 18.9259 8.14567 18.5117 8.14567C18.0975 8.14567 17.7617 7.80988 17.7617 7.39567V6.17361C17.7617 5.75939 18.0975 5.42361 18.5117 5.42361ZM9.75032 6.74001C10.6572 7.56869 11.2886 8.74998 11.2886 10.0572V19.0485C11.2886 20.2333 10.3282 21.1937 9.14334 21.1937C7.95921 21.1937 6.99711 20.234 6.99711 19.0485V14.2778H6.74008C5.24256 14.2778 3.86598 13.5635 3.01479 12.4433C2.66107 11.9778 2.5 11.4156 2.5 10.8696V8.77383C2.5 8.22496 2.66403 7.66295 3.01489 7.19937L3.01508 7.19911C3.78159 6.18723 4.97477 5.51328 6.32144 5.44635L6.32398 5.44623C7.61011 5.38667 8.84398 5.91185 9.75032 6.74001ZM4.21095 8.10459C4.72076 7.43174 5.50993 6.98891 6.39465 6.94457L4.21095 8.10459ZM6.39465 6.94457C7.23018 6.90627 8.08572 7.25089 8.73849 7.84735C9.39102 8.4436 9.78859 9.24232 9.78859 10.0572V19.0485C9.78859 19.4049 9.49972 19.6937 9.14334 19.6937C8.78627 19.6937 8.49711 19.4042 8.49711 19.0485V13.5278C8.49711 13.1136 8.16133 12.7778 7.74711 12.7778H6.74008C5.71757 12.7778 4.78042 12.2876 4.20911 11.5358C4.07634 11.361 4 11.1273 4 10.8696V8.77383C4 8.51718 4.0772 8.28145 4.21076 8.10485M5.80692 8.51833C6.22114 8.51833 6.55692 8.85412 6.55692 9.26833V10.4904C6.55692 10.9046 6.22114 11.2404 5.80692 11.2404C5.39271 11.2404 5.05692 10.9046 5.05692 10.4904V9.26833C5.05692 8.85412 5.39271 8.51833 5.80692 8.51833ZM17.3201 13.7934C15.5636 13.7934 14.1403 15.2167 14.1403 16.9732C14.1403 18.7297 15.5636 20.1531 17.3201 20.1531C19.0766 20.1531 20.5 18.7297 20.5 16.9732C20.5 15.2167 19.0766 13.7934 17.3201 13.7934ZM12.6403 16.9732C12.6403 14.3883 14.7352 12.2934 17.3201 12.2934C19.9051 12.2934 22 14.3883 22 16.9732C22 19.5582 19.9051 21.6531 17.3201 21.6531C14.7352 21.6531 12.6403 19.5582 12.6403 16.9732ZM19.1894 15.4043C19.4824 15.6971 19.4825 16.172 19.1897 16.465L17.272 18.3837C17.1313 18.5244 16.9404 18.6035 16.7414 18.6035C16.5424 18.6034 16.3516 18.5243 16.2109 18.3835L15.2798 17.4514C14.987 17.1584 14.9873 16.6835 15.2803 16.3908C15.5734 16.098 16.0482 16.0983 16.341 16.3913L16.7417 16.7924L18.1288 15.4046C18.4216 15.1116 18.8965 15.1115 19.1894 15.4043Z" fill="black"/>
</svg>