<svg width="24" height="24" viewBox="0 0 24 24" fill="none" xmlns="http://www.w3.org/2000/svg">
<path d="M15.2859 21C17.6699 21 19.603 19.0667 19.603 16.6819V7.31708C19.603 4.93232 17.6699 3 15.2859 3H8.31696C5.93396 3 4 4.93232 4 7.31708V16.6819C4 19.0667 5.93396 21 8.31696 21H11.8015" stroke="black" stroke-width="1.5" stroke-linecap="round" stroke-linejoin="round"/>
<path d="M8.7583 7.2948C7.9883 7.2948 7.36328 7.91848 7.36328 8.68907C7.36328 9.45967 7.9883 10.0843 8.7583 10.0843H14.8443C15.6153 10.0843 16.2393 9.45967 16.2393 8.68907C16.2393 7.91848 15.6153 7.2948 14.8443 7.2948H11.8013" stroke="black" stroke-width="1.5" stroke-linecap="round" stroke-linejoin="round"/>
<path d="M19.6039 8.68958H16.2439M7.36389 8.68958H4.00391" stroke="black" stroke-width="1.5" stroke-linecap="round" stroke-linejoin="round"/>
</svg>