<svg width="25" height="24" viewBox="0 0 25 24" fill="none" xmlns="http://www.w3.org/2000/svg">
<path opacity="0.4" d="M15.3561 6.49203V7.87858M12.4541 8.30912C12.4541 8.76547 12.5891 9.21695 12.8641 9.57988C13.6711 10.6414 14.9841 11.3255 16.4151 11.3255H17.5581V17.6744C17.5581 18.5492 18.2661 19.2585 19.1411 19.2585C20.0161 19.2585 20.7251 18.5492 20.7251 17.6744V7.3867C20.7251 4.97946 18.3901 2.89331 15.9821 3.00423C14.7151 3.06845 13.5901 3.70091 12.8661 4.65739C12.5901 5.0213 12.4541 5.47375 12.4541 5.93009V8.30912Z" stroke="black" stroke-width="1.5" stroke-linecap="round" stroke-linejoin="round"/>
<path d="M7.00757 21C8.54257 21 9.78656 19.7555 9.78656 18.2201C9.78656 16.6847 8.54257 15.4402 7.00757 15.4402C5.47157 15.4402 4.22656 16.6847 4.22656 18.2201C4.22656 19.7555 5.47157 21 7.00757 21Z" stroke="black" stroke-width="1.5" stroke-linecap="round" stroke-linejoin="round"/>
<path d="M9.78711 18.22V11.3741C9.78711 11.3741 10.5091 13.254 12.4531 13.649" stroke="black" stroke-width="1.5" stroke-linecap="round" stroke-linejoin="round"/>
<path d="M5.151 11.1286C6.063 11.1286 6.80096 10.3901 6.80096 9.47836C6.80096 8.56664 6.063 7.82715 5.151 7.82715C4.239 7.82715 3.5 8.56664 3.5 9.47836C3.5 10.3901 4.239 11.1286 5.151 11.1286Z" stroke="black" stroke-width="1.5" stroke-linecap="round" stroke-linejoin="round"/>
<path d="M6.80078 9.47835L6.80182 5.41455C6.80182 5.41455 7.23077 6.52963 8.38477 6.7651" stroke="black" stroke-width="1.5" stroke-linecap="round" stroke-linejoin="round"/>
</svg>