<svg width="25" height="24" viewBox="0 0 25 24" fill="none" xmlns="http://www.w3.org/2000/svg">
<path fill-rule="evenodd" clip-rule="evenodd" d="M8.76532 3.75C6.79564 3.75 5.19824 5.34665 5.19824 7.31708V7.93771H19.3008V7.31708C19.3008 5.34665 17.7034 3.75 15.7338 3.75H8.76532ZM20.8008 7.31708C20.8008 4.518 18.5316 2.25 15.7338 2.25H8.76532C5.96744 2.25 3.69824 4.518 3.69824 7.31708V16.6819C3.69824 19.4808 5.96722 21.75 8.76532 21.75H15.7338C18.5319 21.75 20.8008 19.4808 20.8008 16.6819V7.31708ZM19.3008 9.43771H5.19824V16.6819C5.19824 18.6526 6.79586 20.25 8.76532 20.25H15.7338C17.7032 20.25 19.3008 18.6526 19.3008 16.6819V9.43771ZM12.249 15.8928C12.6632 15.8928 12.999 16.2286 12.999 16.6428V16.7129C12.999 17.1271 12.6632 17.4629 12.249 17.4629C11.8348 17.4629 11.499 17.1271 11.499 16.7129V16.6428C11.499 16.2286 11.8348 15.8928 12.249 15.8928Z" fill="black"/>
</svg>