<svg width="25" height="24" viewBox="0 0 25 24" fill="none" xmlns="http://www.w3.org/2000/svg">
<path fill-rule="evenodd" clip-rule="evenodd" d="M15.6999 5.14918C15.0392 5.7528 14.6364 6.56152 14.6364 7.38701V16.4699C14.6364 16.8341 14.9321 17.1298 15.2963 17.1298C15.6618 17.1298 15.9571 16.8337 15.9571 16.4699V10.8937C15.9571 10.4795 16.2929 10.1437 16.7071 10.1437H17.7239C18.7586 10.1437 19.7081 9.64708 20.2864 8.88689C20.4224 8.70689 20.5 8.46845 20.5 8.20822V6.09099C20.5 5.83029 20.4217 5.59055 20.2851 5.41003C19.7688 4.72882 18.97 4.28068 18.0729 4.23444C17.2267 4.19623 16.3606 4.54549 15.6999 5.14918ZM14.6881 4.04182C15.6024 3.20642 16.8468 2.67665 18.1435 2.7361L18.1473 2.73628V2.73629C19.5047 2.80539 20.7075 3.48366 21.481 4.50451L21.4812 4.50487C21.835 4.97237 22 5.53827 22 6.09099V8.20822C22 8.7593 21.8364 9.32441 21.4822 9.79239L21.4813 9.79364C20.6233 10.9225 19.2341 11.6437 17.7239 11.6437H17.4571V16.4699C17.4571 17.6628 16.4895 18.6298 15.2963 18.6298C14.1037 18.6298 13.1364 17.6625 13.1364 16.4699V7.38701C13.1364 6.06901 13.7732 4.87774 14.6881 4.04182ZM9.81192 6.68102C10.7268 7.5169 11.3636 8.70816 11.3636 10.0257V19.1086C11.3636 20.3012 10.3963 21.2685 9.20374 21.2685C8.01049 21.2685 7.0429 20.3016 7.0429 19.1086V14.2824H6.77612C5.26591 14.2824 3.87671 13.5612 3.01874 12.4324L3.01779 12.4311C2.66364 11.9631 2.5 11.398 2.5 10.8469V8.72971C2.5 8.17699 2.66498 7.61109 3.01876 7.14359L3.01904 7.14323C3.79253 6.12241 4.99544 5.4439 6.35333 5.37594L6.35613 5.3758L6.35613 5.37581C7.65307 5.31576 8.89763 5.84564 9.81192 6.68102ZM4.21487 8.04875C4.73131 7.36739 5.53013 6.91944 6.42691 6.87414L4.21487 8.04875ZM6.42691 6.87414C7.27303 6.83539 8.13926 7.18456 8.80012 7.78839C9.4608 8.39204 9.8636 9.20078 9.8636 10.0257V19.1086C9.8636 19.4728 9.56792 19.7685 9.20374 19.7685C8.83825 19.7685 8.5429 19.4725 8.5429 19.1086V13.5324C8.5429 13.1182 8.20711 12.7824 7.7929 12.7824H6.77612C5.74134 12.7824 4.79176 12.2857 4.21354 11.5255C4.07752 11.3455 4 11.1071 4 10.8469V8.72971C4 8.46907 4.07823 8.22938 4.21477 8.04888M18.6677 5.8406C19.082 5.8406 19.4177 6.17638 19.4177 6.5906V7.82532C19.4177 8.23954 19.082 8.57532 18.6677 8.57532C18.2535 8.57532 17.9177 8.23954 17.9177 7.82532V6.5906C17.9177 6.17638 18.2535 5.8406 18.6677 5.8406ZM5.83356 8.47927C6.24777 8.47927 6.58356 8.81505 6.58356 9.22927V10.464C6.58356 10.8782 6.24777 11.214 5.83356 11.214C5.41935 11.214 5.08356 10.8782 5.08356 10.464V9.22927C5.08356 8.81505 5.41935 8.47927 5.83356 8.47927Z" fill="black"/>
</svg>