<svg width="25" height="24" viewBox="0 0 25 24" fill="none" xmlns="http://www.w3.org/2000/svg">
<path fill-rule="evenodd" clip-rule="evenodd" d="M13.8569 3.24941C14.5486 2.616 15.4953 2.20812 16.4902 2.25343L16.4954 2.25366L16.4954 2.25368C17.5361 2.30826 18.4622 2.81958 19.0547 3.61371L19.0557 3.615C19.3347 3.99073 19.4643 4.43814 19.4643 4.8785V6.39923C19.4643 6.83334 19.3334 7.2801 19.0557 7.65397L19.0522 7.65857L19.0522 7.65856C18.4034 8.51829 17.3458 9.0739 16.1981 9.0776V9.531H17.9526C19.2729 9.531 20.342 10.6017 20.342 11.9204V16.936C20.342 19.5946 18.188 21.75 15.5289 21.75H8.97125C6.31329 21.75 4.1582 19.5947 4.1582 16.936V11.9204C4.1582 10.6017 5.22731 9.531 6.54763 9.531H8.29551V9.07756C7.15113 9.07107 6.09752 8.51603 5.4496 7.65911L5.44452 7.65239L5.44455 7.65236C5.16992 7.28053 5.03709 6.83499 5.03709 6.39923V4.8785C5.03709 4.43648 5.16854 3.99032 5.44455 3.61661L5.4467 3.61371L5.44671 3.61371C6.03847 2.82053 6.96406 2.30844 7.99787 2.2537L8.00358 2.2534L8.00358 2.25342C9.00131 2.20821 9.95004 2.61527 10.6434 3.24887C11.3372 3.88283 11.828 4.79306 11.828 5.80864V9.531H12.6744V5.80864C12.6744 4.79332 13.1647 3.8833 13.8569 3.24941ZM13.3803 11.031C13.3949 11.0318 13.4096 11.0323 13.4244 11.0323C13.4392 11.0323 13.4539 11.0318 13.4684 11.031H15.4041C15.4186 11.0318 15.4333 11.0323 15.4481 11.0323C15.4629 11.0323 15.4776 11.0318 15.4922 11.031H17.9526C18.4439 11.031 18.842 11.4295 18.842 11.9204V16.936C18.842 18.7666 17.3591 20.25 15.5289 20.25H8.97125C7.14195 20.25 5.6582 18.7665 5.6582 16.936V11.9204C5.6582 11.4295 6.05631 11.031 6.54763 11.031H9.00145C9.01603 11.0318 9.03072 11.0323 9.04551 11.0323C9.06029 11.0323 9.07498 11.0318 9.08956 11.031H11.034C11.0485 11.0318 11.0632 11.0323 11.078 11.0323C11.0928 11.0323 11.1075 11.0318 11.1221 11.031H13.3803ZM10.328 9.531V5.80864C10.328 5.28599 10.0715 4.7582 9.63161 4.35621C9.19204 3.95455 8.62174 3.72782 8.07431 3.75175C7.49299 3.78339 6.97838 4.07016 6.65021 4.50902C6.5804 4.60415 6.53709 4.73156 6.53709 4.8785V6.39923C6.53709 6.53419 6.57855 6.6615 6.64899 6.75828C7.02305 7.25045 7.64447 7.57762 8.31579 7.57762H9.04551C9.45972 7.57762 9.79551 7.9134 9.79551 8.32762V9.531H10.328ZM14.6981 9.531H14.1744V5.80864C14.1744 5.28573 14.4308 4.75773 14.8699 4.35566C15.3088 3.95375 15.8769 3.72784 16.4194 3.75176C17.01 3.78349 17.5245 4.07147 17.852 4.51005C17.9209 4.60322 17.9643 4.7296 17.9643 4.8785V6.39923C17.9643 6.53625 17.9227 6.66271 17.853 6.75759C17.4802 7.24983 16.8586 7.57762 16.1866 7.57762H15.4481C15.0339 7.57762 14.6981 7.9134 14.6981 8.32762V9.531ZM12.2501 16.1653C12.6644 16.1653 13.0001 16.5011 13.0001 16.9153V16.9639C13.0001 17.3782 12.6644 17.7139 12.2501 17.7139C11.8359 17.7139 11.5001 17.3782 11.5001 16.9639V16.9153C11.5001 16.5011 11.8359 16.1653 12.2501 16.1653Z" fill="black"/>
</svg>