<svg width="24" height="24" viewBox="0 0 24 24" fill="none" xmlns="http://www.w3.org/2000/svg">
<path fill-rule="evenodd" clip-rule="evenodd" d="M3.66216 10.2266C3.33763 10.1154 3 10.3565 3 10.6996V17.2413C3 17.6003 3.36703 17.8423 3.69696 17.7009L9.69696 15.1295C9.8808 15.0507 10 14.8699 10 14.6699V12.7568C10 12.5431 9.86426 12.3531 9.66216 12.2838L3.66216 10.2266Z" stroke="black" stroke-width="1.5" stroke-linecap="round" stroke-linejoin="round"/>
<path fill-rule="evenodd" clip-rule="evenodd" d="M4.42294 5.52596C3.96709 5.67791 3.96709 6.32269 4.42294 6.47464L11.8418 8.94759C11.9444 8.9818 12.0554 8.9818 12.158 8.94759L19.5769 6.47464C20.0327 6.32269 20.0327 5.67791 19.5769 5.52596L12.158 3.053C12.0554 3.01879 11.9444 3.01879 11.8418 3.053L4.42294 5.52596Z" stroke="black" stroke-width="1.5" stroke-linecap="round" stroke-linejoin="round"/>
<path fill-rule="evenodd" clip-rule="evenodd" d="M14.3439 12.1882C14.1387 12.2556 14 12.4472 14 12.6632V20.2429C14 20.6019 14.367 20.8439 14.697 20.7025L20.697 18.1311C20.8808 18.0523 21 17.8715 21 17.6715V10.6918C21 10.3514 20.6673 10.1105 20.3439 10.2168L14.3439 12.1882Z" stroke="black" stroke-width="1.5" stroke-linecap="round" stroke-linejoin="round"/>
</svg>