<svg width="25" height="24" viewBox="0 0 25 24" fill="none" xmlns="http://www.w3.org/2000/svg">
<path fill-rule="evenodd" clip-rule="evenodd" d="M2.5 12C2.5 6.61487 6.86487 2.25 12.25 2.25C17.6351 2.25 22 6.61487 22 12C22 17.3851 17.6351 21.75 12.25 21.75C6.86487 21.75 2.5 17.3851 2.5 12ZM12.25 3.75C7.69329 3.75 4 7.44329 4 12C4 16.5567 7.69329 20.25 12.25 20.25C16.8067 20.25 20.5 16.5567 20.5 12C20.5 7.44329 16.8067 3.75 12.25 3.75Z" fill="black"/>
<path fill-rule="evenodd" clip-rule="evenodd" d="M13.107 6.81253C13.3993 6.84934 13.6431 7.05394 13.7299 7.33551L16.1964 15.3285C16.3186 15.7243 16.0967 16.1442 15.7009 16.2663C15.3051 16.3884 14.8853 16.1666 14.7631 15.7708L12.7859 9.36323L8.75483 15.9415C8.53841 16.2947 8.07665 16.4055 7.72348 16.1891C7.3703 15.9727 7.25943 15.5109 7.47586 15.1578L12.3738 7.16479C12.5278 6.91354 12.8146 6.77573 13.107 6.81253Z" fill="black"/>
<path fill-rule="evenodd" clip-rule="evenodd" d="M15.6296 8.55398C15.9827 8.7704 16.0936 9.23215 15.8772 9.58533L11.9833 15.9398C11.7669 16.293 11.3052 16.4039 10.952 16.1874C10.5988 15.971 10.4879 15.5093 10.7044 15.1561L14.5982 8.80161C14.8146 8.44843 15.2764 8.33756 15.6296 8.55398Z" fill="black"/>
</svg>