<svg width="24" height="24" viewBox="0 0 24 24" fill="none" xmlns="http://www.w3.org/2000/svg">
<path d="M5.198 21.25C3.84593 21.25 2.75 20.1541 2.75 18.802V5.198C2.75 3.84593 3.84593 2.75 5.198 2.75H7.802C9.15407 2.75 10.25 3.84593 10.25 5.198V18.802C10.25 20.1541 9.15407 21.25 7.802 21.25H5.198Z" fill="black"/>
<path d="M16.198 14.25C14.8459 14.25 13.75 13.1541 13.75 11.802V5.198C13.75 3.84593 14.8459 2.75 16.198 2.75H18.802C20.1541 2.75 21.25 3.84593 21.25 5.198V11.802C21.25 13.1541 20.1541 14.25 18.802 14.25H16.198Z" fill="black"/>
</svg>