<svg width="25" height="25" viewBox="0 0 25 25" fill="none" xmlns="http://www.w3.org/2000/svg">
<path fill-rule="evenodd" clip-rule="evenodd" d="M3.75 5.76562C3.75 5.35141 4.08579 5.01562 4.5 5.01562H11.611C12.0252 5.01562 12.361 5.35141 12.361 5.76562C12.361 6.17984 12.0252 6.51562 11.611 6.51562H4.5C4.08579 6.51562 3.75 6.17984 3.75 5.76562ZM3.75 19.7656C3.75 19.3514 4.08579 19.0156 4.5 19.0156H20.5C20.9142 19.0156 21.25 19.3514 21.25 19.7656C21.25 20.1798 20.9142 20.5156 20.5 20.5156H4.5C4.08579 20.5156 3.75 20.1798 3.75 19.7656Z" fill="black"/>
<path fill-rule="evenodd" clip-rule="evenodd" d="M3.75 12.7656C3.75 12.3514 4.08579 12.0156 4.5 12.0156H16.056C16.4702 12.0156 16.806 12.3514 16.806 12.7656C16.806 13.1798 16.4702 13.5156 16.056 13.5156H4.5C4.08579 13.5156 3.75 13.1798 3.75 12.7656Z" fill="black"/>
</svg>