<svg width="24" height="24" viewBox="0 0 24 24" fill="none" xmlns="http://www.w3.org/2000/svg">
<path fill-rule="evenodd" clip-rule="evenodd" d="M20 6H4C3.448 6 3 5.553 3 5C3 4.447 3.448 4 4 4H20C20.552 4 21 4.447 21 5C21 5.553 20.552 6 20 6ZM20 20H4C3.448 20 3 19.553 3 19C3 18.447 3.448 18 4 18H20C20.552 18 21 18.447 21 19C21 19.553 20.552 20 20 20Z" fill="black"/>
<path fill-rule="evenodd" clip-rule="evenodd" d="M16 13H8C7.448 13 7 12.553 7 12C7 11.447 7.448 11 8 11H16C16.552 11 17 11.447 17 12C17 12.553 16.552 13 16 13Z" fill="black"/>
</svg>