<svg width="24" height="24" viewBox="0 0 24 24" fill="none" xmlns="http://www.w3.org/2000/svg">
<path opacity="0.4" fill-rule="evenodd" clip-rule="evenodd" d="M20 6H4C3.448 6 3 5.553 3 5C3 4.447 3.448 4 4 4H20C20.552 4 21 4.447 21 5C21 5.553 20.552 6 20 6ZM11.111 20H4C3.448 20 3 19.553 3 19C3 18.447 3.448 18 4 18H11.111C11.663 18 12.111 18.447 12.111 19C12.111 19.553 11.663 20 11.111 20Z" fill="black"/>
<path fill-rule="evenodd" clip-rule="evenodd" d="M15.5561 13H4.00012C3.44812 13 3.00012 12.553 3.00012 12C3.00012 11.447 3.44812 11 4.00012 11H15.5561C16.1081 11 16.5561 11.447 16.5561 12C16.5561 12.553 16.1081 13 15.5561 13Z" fill="black"/>
</svg>