<svg width="24" height="24" viewBox="0 0 24 24" fill="none" xmlns="http://www.w3.org/2000/svg">
<path fill-rule="evenodd" clip-rule="evenodd" d="M20 6H4C3.448 6 3 5.553 3 5C3 4.447 3.448 4 4 4H20C20.552 4 21 4.447 21 5C21 5.553 20.552 6 20 6ZM20 15.33H4C3.448 15.33 3 14.883 3 14.33C3 13.777 3.448 13.33 4 13.33H20C20.552 13.33 21 13.777 21 14.33C21 14.883 20.552 15.33 20 15.33Z" fill="black"/>
<path fill-rule="evenodd" clip-rule="evenodd" d="M19.999 10.6699H7.55499C7.00299 10.6699 6.55499 10.2229 6.55499 9.66992C6.55499 9.11692 7.00299 8.66992 7.55499 8.66992H19.999C20.551 8.66992 20.999 9.11692 20.999 9.66992C20.999 10.2229 20.551 10.6699 19.999 10.6699ZM19.999 19.9999H7.55499C7.00299 19.9999 6.55499 19.5529 6.55499 18.9999C6.55499 18.4469 7.00299 17.9999 7.55499 17.9999H19.999C20.551 17.9999 20.999 18.4469 20.999 18.9999C20.999 19.5529 20.551 19.9999 19.999 19.9999Z" fill="black"/>
</svg>