<svg width="24" height="24" viewBox="0 0 24 24" fill="none" xmlns="http://www.w3.org/2000/svg">
<path fill-rule="evenodd" clip-rule="evenodd" d="M5.198 21H7.802C9.016 21 10 20.016 10 18.802V5.198C10 3.984 9.016 3 7.802 3H5.198C3.984 3 3 3.984 3 5.198V18.802C3 20.016 3.984 21 5.198 21Z" stroke="black" stroke-width="1.5" stroke-linecap="round" stroke-linejoin="round"/>
<path fill-rule="evenodd" clip-rule="evenodd" d="M16.198 21H18.802C20.016 21 21 20.016 21 18.802V12.198C21 10.984 20.016 10 18.802 10H16.198C14.984 10 14 10.984 14 12.198V18.802C14 20.016 14.984 21 16.198 21Z" stroke="black" stroke-width="1.5" stroke-linecap="round" stroke-linejoin="round"/>
</svg>