<svg width="24" height="24" viewBox="0 0 24 24" fill="none" xmlns="http://www.w3.org/2000/svg">
<path d="M7.78216 3H16.2169C19.165 3 21 5.08119 21 8.02638V15.9736C21 18.9188 19.165 21 16.2159 21H7.78216C4.83405 21 3 18.9188 3 15.9736V8.02638C3 5.08119 4.84281 3 7.78216 3Z" stroke="black" stroke-width="1.5" stroke-linecap="round" stroke-linejoin="round"/>
<path d="M15.641 8.875H8.04102" stroke="black" stroke-width="1.5" stroke-linecap="round" stroke-linejoin="round"/>
<path d="M11.6406 6.875V11.375" stroke="black" stroke-width="1.5" stroke-linecap="round" stroke-linejoin="round"/>
<path d="M8.64087 11.375H15.0409C14.8418 12.7862 13.621 17.875 9.84082 17.875C8.44082 17.875 7.34082 16.975 7.34082 15.875C7.34082 15.156 7.81076 14.5225 8.52724 14.1699C9.26552 13.8065 10.1034 13.8436 10.8992 13.9395C11.8404 14.0529 12.7671 14.3109 13.6408 14.675L20.6408 17.875" stroke="black" stroke-width="1.5" stroke-linecap="round" stroke-linejoin="round"/>
</svg>