<svg width="24" height="24" viewBox="0 0 24 24" fill="none" xmlns="http://www.w3.org/2000/svg">
<path d="M15.5138 8.35087H8.33203M11.734 6.46094V10.7133" stroke="black" stroke-width="1.5" stroke-linecap="round" stroke-linejoin="round"/>
<path d="M8.8994 10.7109H14.9472C14.7591 12.0445 13.6054 16.8532 10.0333 16.8532C8.71036 16.8532 7.6709 16.0028 7.6709 14.9633C7.6709 14.2839 8.11497 13.6852 8.79203 13.352C9.48968 13.0086 10.2815 13.0437 11.0335 13.1343C11.9228 13.2415 12.7986 13.4853 13.6242 13.8293L19.7151 16.6138" stroke="black" stroke-width="1.5" stroke-linecap="round" stroke-linejoin="round"/>
<path opacity="0.4" d="M12 21C16.9709 21 21 16.9709 21 12C21 7.02908 16.9709 3 12 3C7.02908 3 3 7.02908 3 12C3 16.9709 7.02908 21 12 21Z" stroke="black" stroke-width="1.5" stroke-linecap="round" stroke-linejoin="round"/>
</svg>