<svg width="24" height="24" viewBox="0 0 24 24" fill="none" xmlns="http://www.w3.org/2000/svg">
<path fill-rule="evenodd" clip-rule="evenodd" d="M11.734 5.71094C12.1482 5.71094 12.484 6.04672 12.484 6.46094V7.60087H15.5138C15.928 7.60087 16.2638 7.93666 16.2638 8.35087C16.2638 8.76509 15.928 9.10087 15.5138 9.10087H12.484V10.7133C12.484 11.1275 12.1482 11.4633 11.734 11.4633C11.3198 11.4633 10.984 11.1275 10.984 10.7133V9.10087H8.33203C7.91782 9.10087 7.58203 8.76509 7.58203 8.35087C7.58203 7.93666 7.91782 7.60087 8.33203 7.60087H10.984V6.46094C10.984 6.04672 11.3198 5.71094 11.734 5.71094Z" fill="black"/>
<path fill-rule="evenodd" clip-rule="evenodd" d="M8.1494 10.7109C8.1494 10.2967 8.48519 9.96094 8.8994 9.96094H14.9472C15.1644 9.96094 15.3709 10.0551 15.5133 10.219C15.6558 10.383 15.7202 10.6006 15.6898 10.8157C15.612 11.3679 15.3856 12.4543 14.9168 13.5956L20.027 15.9317C20.4037 16.1039 20.5695 16.5489 20.3972 16.9256C20.225 17.3023 19.78 17.4681 19.4033 17.2959L14.2456 14.9381C13.4141 16.3063 12.0745 17.6032 10.0333 17.6032C8.4557 17.6032 6.9209 16.5603 6.9209 14.9633C6.9209 13.9314 7.59325 13.1061 8.46084 12.6791C9.37176 12.2307 10.3597 12.2977 11.1232 12.3897C11.9546 12.4899 12.7695 12.6994 13.5436 12.9907C13.7659 12.4435 13.9258 11.908 14.035 11.4609H8.8994C8.48519 11.4609 8.1494 11.1252 8.1494 10.7109ZM12.8535 14.3353C12.2317 14.1138 11.5893 13.9567 10.9438 13.8789C10.2032 13.7897 9.60759 13.7865 9.12321 14.0249C8.63669 14.2644 8.4209 14.6364 8.4209 14.9633C8.4209 15.4452 8.96502 16.1032 10.0333 16.1032C11.2621 16.1032 12.1731 15.3826 12.8535 14.3353Z" fill="black"/>
<path fill-rule="evenodd" clip-rule="evenodd" d="M12 3.75C7.44329 3.75 3.75 7.44329 3.75 12C3.75 16.5567 7.44329 20.25 12 20.25C16.5567 20.25 20.25 16.5567 20.25 12C20.25 7.44329 16.5567 3.75 12 3.75ZM2.25 12C2.25 6.61487 6.61487 2.25 12 2.25C17.3851 2.25 21.75 6.61487 21.75 12C21.75 17.3851 17.3851 21.75 12 21.75C6.61487 21.75 2.25 17.3851 2.25 12Z" fill="black"/>
</svg>