<svg width="24" height="25" viewBox="0 0 24 25" fill="none" xmlns="http://www.w3.org/2000/svg">
<path fill-rule="evenodd" clip-rule="evenodd" d="M12.5275 3.50879V4.27993C14.5252 4.73625 16.0204 6.53058 16.0204 8.66772C16.0204 9.94792 15.4817 11.1046 14.619 11.9233L16.1027 14.6233C17.6908 13.2083 18.6927 11.148 18.6927 8.85791C18.6927 8.30591 19.1407 7.85791 19.6927 7.85791C20.2447 7.85791 20.6927 8.30591 20.6927 8.85791C20.6927 11.9045 19.2845 14.628 17.0852 16.4114L19.6217 21.0276C19.8887 21.5106 19.7117 22.1186 19.2267 22.3846C19.0747 22.4686 18.9097 22.5086 18.7467 22.5086C18.3937 22.5086 18.0517 22.3216 17.8697 21.9896L15.4063 17.5077C14.0773 18.1917 12.5712 18.5779 10.9767 18.5779C9.76376 18.5779 8.5527 18.3486 7.42623 17.9096L5.18377 21.9895C5.00177 22.3215 4.65977 22.5085 4.30677 22.5085C4.14377 22.5085 3.97877 22.4685 3.82677 22.3845C3.34177 22.1185 3.16477 21.5105 3.43177 21.0275L8.43555 11.9212C7.57414 11.1027 7.03638 9.94684 7.03638 8.66772C7.03638 6.53119 8.53069 4.73727 10.5275 4.28032V3.50879C10.5275 2.95579 10.9755 2.50879 11.5275 2.50879C12.0795 2.50879 12.5275 2.95579 12.5275 3.50879ZM11.5275 6.16779L11.5181 6.16775C10.1488 6.17332 9.03638 7.29216 9.03638 8.66772C9.03638 10.0407 10.1544 11.1577 11.5284 11.1577C12.9024 11.1577 14.0204 10.0407 14.0204 8.66772C14.0204 7.29176 12.9073 6.17266 11.5374 6.16774L11.5275 6.16779ZM8.39924 16.1394C9.22241 16.4307 10.0856 16.5779 10.9767 16.5779C12.2222 16.5779 13.3998 16.2811 14.4425 15.7543L12.8981 12.9444C12.4661 13.0829 12.0058 13.1577 11.5284 13.1577C11.0499 13.1577 10.5887 13.0826 10.1559 12.9435L8.39924 16.1394Z" fill="black"/>
</svg>