<svg width="24" height="24" viewBox="0 0 24 24" fill="none" xmlns="http://www.w3.org/2000/svg">
<path fill-rule="evenodd" clip-rule="evenodd" d="M12 3.75C7.44329 3.75 3.75 7.44329 3.75 12C3.75 16.5567 7.44329 20.25 12 20.25C16.5567 20.25 20.25 16.5567 20.25 12C20.25 7.44329 16.5567 3.75 12 3.75ZM2.25 12C2.25 6.61487 6.61487 2.25 12 2.25C17.3851 2.25 21.75 6.61487 21.75 12C21.75 17.3851 17.3851 21.75 12 21.75C6.61487 21.75 2.25 17.3851 2.25 12Z" fill="black"/>
<path fill-rule="evenodd" clip-rule="evenodd" d="M11.75 8.65234C11.138 8.65234 10.6426 9.14819 10.6426 9.75975C10.6426 10.3713 11.138 10.8672 11.75 10.8672C12.3613 10.8672 12.8574 10.371 12.8574 9.75975C12.8574 9.14845 12.3613 8.65234 11.75 8.65234ZM9.14258 9.75975C9.14258 8.32028 10.309 7.15234 11.75 7.15234C13.1897 7.15234 14.3574 8.32002 14.3574 9.75975C14.3574 11.1995 13.1897 12.3672 11.75 12.3672C10.309 12.3672 9.14258 11.1992 9.14258 9.75975Z" fill="black"/>
<path fill-rule="evenodd" clip-rule="evenodd" d="M11.7503 6.26563C12.1645 6.26571 12.5003 6.60156 12.5002 7.01577L12.5 7.90125C12.4999 8.31547 12.1641 8.65119 11.7499 8.65111C11.3356 8.65102 10.9999 8.31517 11 7.90096L11.0002 7.01548C11.0003 6.60126 11.3361 6.26554 11.7503 6.26563Z" fill="black"/>
<path fill-rule="evenodd" clip-rule="evenodd" d="M11.1485 10.6942C11.5115 10.8937 11.6441 11.3497 11.4447 11.7127L8.56567 16.9531C8.36623 17.3162 7.91025 17.4488 7.54721 17.2493C7.18418 17.0499 7.05156 16.5939 7.25101 16.2309L10.13 10.9905C10.3295 10.6274 10.7855 10.4948 11.1485 10.6942Z" fill="black"/>
<path fill-rule="evenodd" clip-rule="evenodd" d="M12.348 10.6942C12.711 10.4948 13.167 10.6274 13.3665 10.9905L16.2455 16.2309C16.4449 16.5939 16.3123 17.0499 15.9493 17.2493C15.5862 17.4488 15.1303 17.3162 14.9308 16.9531L12.0518 11.7127C11.8523 11.3497 11.985 10.8937 12.348 10.6942Z" fill="black"/>
<path fill-rule="evenodd" clip-rule="evenodd" d="M16.0915 9.11328C16.5057 9.11328 16.8415 9.44907 16.8415 9.86328C16.8415 12.8374 14.4304 15.2485 11.4563 15.2485C10.5794 15.2485 9.74919 15.0384 9.0161 14.6662C8.64676 14.4787 8.49937 14.0272 8.68689 13.6579C8.8744 13.2886 9.32582 13.1412 9.69516 13.3287C10.223 13.5967 10.8212 13.7485 11.4563 13.7485C13.602 13.7485 15.3415 12.009 15.3415 9.86328C15.3415 9.44907 15.6773 9.11328 16.0915 9.11328Z" fill="black"/>
</svg>