<svg width="24" height="24" viewBox="0 0 24 24" fill="none" xmlns="http://www.w3.org/2000/svg">
<path fill-rule="evenodd" clip-rule="evenodd" d="M7.8661 5.38575C7.97958 5.2826 8.00524 5.11202 7.92034 4.98431L6.87963 3.41887C6.64963 3.06887 6.74963 2.60887 7.08963 2.37887C7.43963 2.14887 7.90963 2.23887 8.12963 2.58887L9.18439 4.17981C9.26752 4.30519 9.43036 4.34888 9.56821 4.28865C10.3069 3.96591 11.1229 3.77887 11.9796 3.77887C12.828 3.77887 13.6274 3.95806 14.356 4.27234C14.4917 4.33088 14.6515 4.28913 14.7353 4.1674L15.8296 2.57887C16.0696 2.23887 16.5296 2.14887 16.8796 2.38887C17.2196 2.61887 17.2996 3.08887 17.0696 3.42887L16.0163 4.95226C15.9277 5.08042 15.9525 5.2545 16.0682 5.35891C17.1355 6.32256 17.8559 7.647 18.0308 9.1404C18.051 9.31244 17.913 9.45887 17.7398 9.45887H6.21967C6.04636 9.45887 5.9084 9.31229 5.92875 9.14019C6.10343 7.66302 6.81538 6.34081 7.8661 5.38575Z" fill="black"/>
<g opacity="0.4">
<path fill-rule="evenodd" clip-rule="evenodd" d="M17.7796 10.9585C17.9453 10.9585 18.0796 11.0928 18.0796 11.2585V17.6985C18.0796 18.3985 17.5096 18.9685 16.8196 18.9685H15.0696C14.904 18.9685 14.7696 19.1028 14.7696 19.2685V20.9985C14.7696 21.4185 14.4396 21.7485 14.0196 21.7485C13.6096 21.7485 13.2696 21.4185 13.2696 20.9985V19.2685C13.2696 19.1028 13.1353 18.9685 12.9696 18.9685H10.7796C10.614 18.9685 10.4796 19.1028 10.4796 19.2685V20.9985C10.4796 21.4185 10.1396 21.7485 9.72964 21.7485C9.30964 21.7485 8.97964 21.4185 8.97964 20.9985V19.2685C8.97964 19.1028 8.84532 18.9685 8.67964 18.9685H7.13964C6.44964 18.9685 5.87964 18.3985 5.87964 17.6985V11.2585C5.87964 11.0928 6.01395 10.9585 6.17964 10.9585H17.7796Z" fill="black"/>
<path fill-rule="evenodd" clip-rule="evenodd" d="M3.10449 9.7832C2.69049 9.7832 2.35449 10.1192 2.35449 10.5332V16.1232C2.35449 16.5372 2.69049 16.8732 3.10449 16.8732C3.51849 16.8732 3.85449 16.5372 3.85449 16.1232V10.5332C3.85449 10.1192 3.51849 9.7832 3.10449 9.7832Z" fill="black"/>
<path fill-rule="evenodd" clip-rule="evenodd" d="M20.8956 9.7832C20.4816 9.7832 20.1456 10.1192 20.1456 10.5332V16.1232C20.1456 16.5372 20.4816 16.8732 20.8956 16.8732C21.3096 16.8732 21.6456 16.5372 21.6456 16.1232V10.5332C21.6456 10.1192 21.3096 9.7832 20.8956 9.7832Z" fill="black"/>
</g>
</svg>