<svg width="24" height="24" viewBox="0 0 24 24" fill="none" xmlns="http://www.w3.org/2000/svg">
<path fill-rule="evenodd" clip-rule="evenodd" d="M11.5299 5.41406C10.0161 5.41406 8.78809 6.64246 8.78809 8.15685C8.78809 9.67123 10.0161 10.8996 11.5299 10.8996C13.0448 10.8996 14.2727 9.6711 14.2727 8.15685C14.2727 6.6426 13.0448 5.41406 11.5299 5.41406ZM7.28809 8.15685C7.28809 5.81458 9.18708 3.91406 11.5299 3.91406C13.8735 3.91406 15.7727 5.81444 15.7727 8.15685C15.7727 10.4993 13.8735 12.3996 11.5299 12.3996C9.18708 12.3996 7.28809 10.4991 7.28809 8.15685Z" fill="black"/>
<path fill-rule="evenodd" clip-rule="evenodd" d="M11.5292 2.25C11.9435 2.24997 12.2793 2.58573 12.2793 2.99994L12.2794 4.66455C12.2795 5.07876 11.9437 5.41457 11.5295 5.41461C11.1153 5.41464 10.7795 5.07888 10.7794 4.66466L10.7793 3.00006C10.7793 2.58584 11.115 2.25003 11.5292 2.25Z" fill="black"/>
<path fill-rule="evenodd" clip-rule="evenodd" d="M10.0832 10.4911C10.4463 10.6906 10.5788 11.1466 10.3794 11.5096L4.96604 21.3614C4.76657 21.7244 4.31058 21.857 3.94756 21.6576C3.58454 21.4581 3.45195 21.0021 3.65143 20.6391L9.06476 10.7873C9.26423 10.4243 9.72022 10.2917 10.0832 10.4911Z" fill="black"/>
<path fill-rule="evenodd" clip-rule="evenodd" d="M12.9729 10.4911C13.336 10.2917 13.792 10.4243 13.9914 10.7873L19.4048 20.6391C19.6042 21.0021 19.4716 21.4581 19.1086 21.6576C18.7456 21.857 18.2896 21.7244 18.0901 21.3614L12.6768 11.5096C12.4773 11.1466 12.6099 10.6906 12.9729 10.4911Z" fill="black"/>
<path fill-rule="evenodd" clip-rule="evenodd" d="M19.694 7.60156C20.1082 7.60156 20.444 7.93735 20.444 8.35156C20.444 13.5788 16.2068 17.817 10.9785 17.817C9.43697 17.817 7.97901 17.4472 6.69118 16.7916C6.32204 16.6037 6.17512 16.1522 6.36302 15.783C6.55093 15.4139 7.0025 15.267 7.37164 15.4549C8.45384 16.0057 9.6792 16.317 10.9785 16.317C15.3783 16.317 18.944 12.7504 18.944 8.35156C18.944 7.93735 19.2798 7.60156 19.694 7.60156Z" fill="black"/>
</svg>