<svg width="24" height="24" viewBox="0 0 24 24" fill="none" xmlns="http://www.w3.org/2000/svg">
<path fill-rule="evenodd" clip-rule="evenodd" d="M3.7402 3.89737C4.72468 2.84117 6.12669 2.25 7.78216 2.25H16.2169C17.8762 2.25 19.2788 2.84084 20.2629 3.89765C21.2413 4.94841 21.75 6.39889 21.75 8.02638V15.9736C21.75 17.6011 21.2413 19.0516 20.2627 20.1024C19.2785 21.1592 17.8756 21.75 16.2159 21.75H7.78216C6.1228 21.75 4.72038 21.1591 3.73657 20.1023C2.75842 19.0515 2.25 17.601 2.25 15.9736V8.02638C2.25 6.39806 2.76117 4.94771 3.7402 3.89737ZM4.83745 4.92012C4.16024 5.64666 3.75 6.70951 3.75 8.02638V15.9736C3.75 17.2914 4.15861 18.3541 4.83451 19.0802C5.50475 19.8003 6.49341 20.25 7.78216 20.25H16.2159C17.5052 20.25 18.4944 19.8002 19.165 19.0801C19.8412 18.354 20.25 17.2913 20.25 15.9736V8.02638C20.25 6.70868 19.8412 5.64597 19.1651 4.91984C18.4946 4.19975 17.5056 3.75 16.2169 3.75H7.78216C6.49828 3.75 5.50921 4.19943 4.83745 4.92012Z" fill="black"/>
<path fill-rule="evenodd" clip-rule="evenodd" d="M11.7439 8.74219C11.1044 8.74219 10.5859 9.26067 10.5859 9.90019C10.5859 10.5397 11.1044 11.0582 11.7439 11.0582C12.3835 11.0582 12.9019 10.5397 12.9019 9.90019C12.9019 9.26067 12.3835 8.74219 11.7439 8.74219ZM9.08594 9.90019C9.08594 8.43224 10.276 7.24219 11.7439 7.24219C13.2119 7.24219 14.4019 8.43224 14.4019 9.90019C14.4019 11.3681 13.2119 12.5582 11.7439 12.5582C10.276 12.5582 9.08594 11.3681 9.08594 9.90019Z" fill="black"/>
<path fill-rule="evenodd" clip-rule="evenodd" d="M11.7441 6.33594C12.1583 6.33591 12.4941 6.67167 12.4941 7.08589L12.4942 7.99493C12.4942 8.40915 12.1585 8.74496 11.7443 8.74498C11.33 8.74501 10.9942 8.40925 10.9942 7.99503L10.9941 7.08599C10.9941 6.67177 11.3299 6.33597 11.7441 6.33594Z" fill="black"/>
<path fill-rule="evenodd" clip-rule="evenodd" d="M11.117 10.8779C11.48 11.0773 11.6126 11.5333 11.4131 11.8963L8.45628 17.2778C8.25682 17.6409 7.80083 17.7735 7.43781 17.574C7.07478 17.3745 6.94219 16.9186 7.14165 16.5555L10.0985 11.174C10.298 10.811 10.754 10.6784 11.117 10.8779Z" fill="black"/>
<path fill-rule="evenodd" clip-rule="evenodd" d="M12.3675 10.8779C12.7305 10.6784 13.1865 10.811 13.386 11.174L16.3428 16.5555C16.5423 16.9186 16.4097 17.3745 16.0467 17.574C15.6837 17.7735 15.2277 17.6409 15.0282 17.2778L12.0713 11.8963C11.8719 11.5333 12.0045 11.0773 12.3675 10.8779Z" fill="black"/>
<path fill-rule="evenodd" clip-rule="evenodd" d="M16.2032 9.25781C16.6174 9.25781 16.9532 9.5936 16.9532 10.0078C16.9532 13.051 14.4856 15.5186 11.4424 15.5186C10.5449 15.5186 9.69596 15.3035 8.9451 14.9213C8.57595 14.7334 8.42902 14.2818 8.61692 13.9127C8.80482 13.5435 9.25639 13.3966 9.62554 13.5845C10.1707 13.862 10.787 14.0186 11.4424 14.0186C13.6572 14.0186 15.4532 12.2226 15.4532 10.0078C15.4532 9.5936 15.7889 9.25781 16.2032 9.25781Z" fill="black"/>
</svg>