<svg width="24" height="24" viewBox="0 0 24 24" fill="none" xmlns="http://www.w3.org/2000/svg">
<path d="M19.8159 3C19.8159 3 21.901 4.6307 20.3462 8.64422C20.7636 9.68141 21 10.813 21 12C21 16.9709 16.9699 21 12 21C7.02908 21 3 16.9709 3 12C3 10.813 3.23546 9.68141 3.65286 8.64422C2.09903 4.6307 4.18411 3 4.18411 3C4.29211 4.55676 5.55989 5.21254 5.92768 5.37114C7.52919 3.90292 9.65611 3 12 3C14.3429 3 16.4698 3.90292 18.0714 5.37114C18.4391 5.21254 19.7069 4.55676 19.8159 3Z" stroke="black" stroke-width="1.5" stroke-linecap="round" stroke-linejoin="round"/>
<path fill-rule="evenodd" clip-rule="evenodd" d="M7.95886 12.2786C9.21789 13.0142 11.1882 11.8184 10.6005 11.1256C9.82697 10.2139 7.44805 9.0201 7.29724 9.13685C6.91681 9.42972 6.94599 11.687 7.95886 12.2786Z" stroke="black" stroke-width="1.5" stroke-linecap="round" stroke-linejoin="round"/>
<path d="M10.0156 15.8412C11.2114 15.3245 12.5541 15.4082 13.9815 15.8412" stroke="black" stroke-width="1.5" stroke-linecap="round" stroke-linejoin="round"/>
<path fill-rule="evenodd" clip-rule="evenodd" d="M16.0385 12.2786C14.7795 13.0142 12.8092 11.8184 13.3969 11.1256C14.1704 10.2139 16.5493 9.0201 16.7001 9.13685C17.0806 9.42972 17.0514 11.687 16.0385 12.2786Z" stroke="black" stroke-width="1.5" stroke-linecap="round" stroke-linejoin="round"/>
</svg>