<svg width="25" height="24" viewBox="0 0 25 24" fill="none" xmlns="http://www.w3.org/2000/svg">
<path d="M12.251 21.7509C9.66601 21.7479 7.18775 20.7198 5.3599 18.8919C3.53205 17.0641 2.50389 14.5858 2.50098 12.0009C2.49982 10.8538 2.703 9.71568 3.10099 8.63986C1.56599 4.35486 3.86998 2.48885 3.97098 2.40985C4.07825 2.32603 4.20629 2.27299 4.34141 2.25641C4.47652 2.23982 4.6136 2.26031 4.73795 2.3157C4.8623 2.3711 4.96923 2.45929 5.04728 2.57083C5.12532 2.68237 5.17154 2.81305 5.18097 2.94885C5.20324 3.25401 5.29614 3.5498 5.45234 3.8129C5.60853 4.07599 5.82373 4.29919 6.08097 4.46484C7.81814 3.03301 9.99928 2.25 12.2505 2.25C14.5017 2.25 16.6828 3.03301 18.42 4.46484C18.6771 4.29886 18.8923 4.07546 19.0484 3.81223C19.2046 3.54899 19.2976 3.2531 19.32 2.94785C19.3296 2.81213 19.3759 2.68159 19.454 2.57019C19.5321 2.45879 19.6391 2.37074 19.7634 2.31546C19.8877 2.26018 20.0247 2.23975 20.1598 2.25638C20.2948 2.27301 20.4228 2.32606 20.53 2.40985C20.63 2.48885 22.936 4.35486 21.399 8.63986C21.7972 9.71562 22.0003 10.8538 21.999 12.0009C21.9961 14.5855 20.9682 17.0634 19.1408 18.8912C17.3133 20.719 14.8356 21.7474 12.251 21.7509ZM4.24097 4.71286C3.94343 5.93906 4.07144 7.22995 4.60398 8.37384C4.67399 8.55084 4.67399 8.74787 4.60398 8.92487C4.09787 10.1773 3.90699 11.5349 4.04813 12.8783C4.18927 14.2217 4.65811 15.51 5.41346 16.6299C6.1688 17.7498 7.18754 18.6672 8.38025 19.3014C9.57296 19.9356 10.9031 20.2672 12.254 20.2672C13.6048 20.2672 14.935 19.9356 16.1277 19.3014C17.3204 18.6672 18.3392 17.7498 19.0945 16.6299C19.8499 15.51 20.3187 14.2217 20.4598 12.8783C20.601 11.5349 20.4101 10.1773 19.904 8.92487C19.834 8.74752 19.834 8.55021 19.904 8.37286C20.4366 7.22935 20.5646 5.93872 20.267 4.71286C19.8558 5.30657 19.2872 5.77376 18.625 6.06186C18.4926 6.11831 18.3467 6.13541 18.2048 6.11111C18.0629 6.08682 17.9311 6.02216 17.825 5.92487C16.3091 4.5269 14.3226 3.75073 12.2605 3.75073C10.1984 3.75073 8.21187 4.5269 6.69599 5.92487C6.5899 6.02216 6.45801 6.08682 6.31614 6.11111C6.17426 6.13541 6.02838 6.11831 5.89597 6.06186C5.22922 5.77545 4.65594 5.30816 4.24097 4.71286Z" fill="black"/>
<path d="M9.12415 13.2613C8.67148 13.2665 8.22559 13.1513 7.83215 12.9273C7.44245 12.6276 7.12707 12.2421 6.91046 11.8007C6.69385 11.3593 6.58185 10.874 6.58316 10.3823C6.52423 10.0574 6.53922 9.72339 6.62698 9.40504C6.71475 9.08668 6.87304 8.79217 7.09015 8.54334C7.95515 7.87934 10.9902 10.1303 11.4232 10.6433C11.6181 10.8794 11.7188 11.1792 11.7061 11.4851C11.6933 11.7909 11.568 12.0813 11.3542 12.3003C11.0696 12.6066 10.7243 12.8502 10.3404 13.0157C9.95642 13.1812 9.54221 13.2648 9.12415 13.2613ZM8.58817 11.6323C8.73844 11.7068 8.90203 11.7507 9.06943 11.7614C9.23682 11.772 9.40467 11.7492 9.56317 11.6943C9.75894 11.6415 9.94286 11.5519 10.1052 11.4303C9.48406 10.9121 8.80159 10.4721 8.07315 10.1203C8.08815 10.6723 8.24617 11.4323 8.58817 11.6323Z" fill="black"/>
<path d="M14.2323 16.5916C14.1588 16.5911 14.0858 16.5803 14.0153 16.5596C12.9055 16.1358 11.6803 16.1252 10.5633 16.5296C10.4723 16.5722 10.3736 16.5961 10.2732 16.5999C10.1728 16.6036 10.0727 16.5872 9.97877 16.5515C9.88485 16.5158 9.79906 16.4617 9.72648 16.3922C9.65391 16.3227 9.59603 16.2393 9.55629 16.147C9.51655 16.0547 9.49574 15.9554 9.49513 15.855C9.49452 15.7545 9.5141 15.6549 9.55272 15.5622C9.59133 15.4694 9.6482 15.3853 9.71992 15.315C9.79165 15.2446 9.87677 15.1894 9.97026 15.1526C11.4107 14.5999 13.0028 14.5896 14.4503 15.1236C14.6226 15.1756 14.7705 15.2879 14.8669 15.4399C14.9633 15.592 15.0018 15.7737 14.9754 15.9517C14.9489 16.1298 14.8593 16.2925 14.7229 16.4099C14.5864 16.5274 14.4123 16.5919 14.2323 16.5916Z" fill="black"/>
<path d="M15.3749 13.2633C14.9566 13.2665 14.5422 13.1825 14.1582 13.0165C13.7743 12.8505 13.4291 12.6062 13.1449 12.2993C12.9309 12.0801 12.8056 11.7895 12.793 11.4834C12.7805 11.1773 12.8816 10.8774 13.0769 10.6413C13.5099 10.1313 16.5449 7.87034 17.4099 8.54134C17.6263 8.7896 17.7842 9.08326 17.8719 9.40069C17.9597 9.71811 17.9751 10.0512 17.9169 10.3753C17.9184 10.8675 17.8066 11.3534 17.5902 11.7954C17.3738 12.2374 17.0586 12.6237 16.6689 12.9243C16.2755 13.1506 15.8287 13.2676 15.3749 13.2633ZM14.3949 11.4313C14.5569 11.5533 14.7409 11.643 14.9369 11.6953C15.0953 11.7496 15.2629 11.7721 15.4301 11.7615C15.5972 11.7508 15.7606 11.7073 15.9109 11.6333C16.2539 11.4333 16.4109 10.6723 16.4259 10.1203C15.6975 10.472 15.0153 10.9123 14.3949 11.4313Z" fill="black"/>
</svg>