<svg width="25" height="24" viewBox="0 0 25 24" fill="none" xmlns="http://www.w3.org/2000/svg">
<path opacity="0.4" d="M20.3159 3C20.3159 3 22.401 4.6307 20.8462 8.64422C21.2636 9.68141 21.5 10.813 21.5 12C21.5 16.9709 17.4699 21 12.5 21C7.52908 21 3.5 16.9709 3.5 12C3.5 10.813 3.73546 9.68141 4.15286 8.64422C2.59903 4.6307 4.68411 3 4.68411 3C4.79211 4.55676 6.05989 5.21254 6.42768 5.37114C8.02919 3.90292 10.1561 3 12.5 3C14.8429 3 16.9698 3.90292 18.5714 5.37114C18.9391 5.21254 20.2069 4.55676 20.3159 3Z" stroke="black" stroke-width="1.5" stroke-linecap="round" stroke-linejoin="round"/>
<path fill-rule="evenodd" clip-rule="evenodd" d="M8.45886 12.2786C9.71789 13.0142 11.6882 11.8184 11.1005 11.1256C10.327 10.2139 7.94805 9.0201 7.79724 9.13685C7.41681 9.42972 7.44599 11.687 8.45886 12.2786Z" stroke="black" stroke-width="1.5" stroke-linecap="round" stroke-linejoin="round"/>
<path d="M10.5156 15.8412C11.7114 15.3245 13.0541 15.4082 14.4815 15.8412" stroke="black" stroke-width="1.5" stroke-linecap="round" stroke-linejoin="round"/>
<path fill-rule="evenodd" clip-rule="evenodd" d="M16.5385 12.2786C15.2795 13.0142 13.3092 11.8184 13.8969 11.1256C14.6704 10.2139 17.0493 9.0201 17.2001 9.13685C17.5806 9.42972 17.5514 11.687 16.5385 12.2786Z" stroke="black" stroke-width="1.5" stroke-linecap="round" stroke-linejoin="round"/>
</svg>