<svg width="25" height="24" viewBox="0 0 25 24" fill="none" xmlns="http://www.w3.org/2000/svg">
<path opacity="0.4" fill-rule="evenodd" clip-rule="evenodd" d="M21.382 8.641C22.918 4.463 20.72 2.682 20.624 2.606C20.479 2.492 20.282 2.469 20.113 2.543C19.944 2.619 19.831 2.781 19.817 2.965C19.747 3.973 19.08 4.521 18.648 4.772C16.927 3.305 14.757 2.5 12.5 2.5C10.242 2.5 8.072 3.305 6.351 4.772C5.92 4.521 5.253 3.973 5.183 2.966C5.17 2.781 5.056 2.619 4.887 2.543C4.718 2.469 4.521 2.492 4.376 2.606C4.28 2.682 2.082 4.463 3.617 8.641C3.208 9.721 3 10.85 3 12C3 17.239 7.262 21.5 12.5 21.5C17.738 21.5 22 17.239 22 12C22 10.851 21.792 9.722 21.382 8.641Z" fill="black"/>
<path fill-rule="evenodd" clip-rule="evenodd" d="M17.6668 10.3472C17.6428 10.7272 17.4988 12.0072 16.6648 12.4952C16.3398 12.6842 15.9818 12.7642 15.6288 12.7642C14.8688 12.7642 14.1288 12.3992 13.7758 11.9772C13.4868 11.6322 13.4608 11.2532 13.7068 10.9642C14.3088 10.2542 16.9478 8.62024 17.3528 8.93924C17.7088 9.21324 17.6838 10.0862 17.6668 10.3472Z" fill="black"/>
<path fill-rule="evenodd" clip-rule="evenodd" d="M15.1997 16.0572C15.1017 16.3812 14.8047 16.5892 14.4817 16.5892C14.4097 16.5892 14.3367 16.5792 14.2647 16.5572C12.8747 16.1352 11.7437 16.1262 10.8127 16.5282C10.4347 16.6932 9.99067 16.5172 9.82667 16.1362C9.66267 15.7562 9.83767 15.3152 10.2187 15.1512C11.4887 14.6022 12.9557 14.5932 14.6997 15.1212C15.0967 15.2422 15.3197 15.6602 15.1997 16.0572Z" fill="black"/>
<path fill-rule="evenodd" clip-rule="evenodd" d="M8.33278 12.4952C7.49978 12.0082 7.35478 10.7302 7.33078 10.3502C7.31378 10.0892 7.28678 9.21424 7.64478 8.93924C8.04178 8.62024 10.6878 10.2542 11.2898 10.9652C11.5358 11.2532 11.5098 11.6322 11.2208 11.9772C10.8668 12.3992 10.1278 12.7642 9.36878 12.7642C9.01578 12.7642 8.65678 12.6842 8.33278 12.4952Z" fill="black"/>
</svg>