<svg width="24" height="24" viewBox="0 0 24 24" fill="none" xmlns="http://www.w3.org/2000/svg">
<path d="M15.25 15.3568L12.0056 7.77344L8.75 15.3568M9.47843 13.6606H14.524" stroke="black" stroke-width="1.5" stroke-linecap="round" stroke-linejoin="round"/>
<path d="M19.0595 5.61421L12.8361 3.14463C12.3555 2.9539 11.8205 2.9519 11.3384 3.13906L4.95439 5.6175C4.07909 5.95731 3.54664 6.84846 3.66215 7.78028L4.715 16.2731C4.79594 16.926 5.18534 17.5003 5.76187 17.8172L11.0925 20.7467C11.712 21.0872 12.4632 21.0844 13.0801 20.7394L18.2953 17.8227C18.8683 17.5023 19.253 16.9268 19.3303 16.275L20.3389 7.76038C20.4482 6.8377 19.9232 5.95691 19.0595 5.61421Z" stroke="black" stroke-width="1.5" stroke-linecap="round" stroke-linejoin="round"/>
</svg>