<svg width="24" height="24" viewBox="0 0 24 24" fill="none" xmlns="http://www.w3.org/2000/svg">
<path d="M15.25 15.3568L12.0056 7.77344L8.75 15.3568M9.47843 13.6606H14.524" stroke="black" stroke-width="1.5" stroke-linecap="round" stroke-linejoin="round"/>
<path opacity="0.4" d="M19.0595 5.61409L12.8361 3.14451C12.3555 2.95377 11.8205 2.95178 11.3384 3.13893L4.95439 5.61737C4.07909 5.95719 3.54664 6.84834 3.66215 7.78016L4.715 16.273C4.79594 16.9259 5.18534 17.5002 5.76187 17.817L11.0925 20.7466C11.712 21.0871 12.4632 21.0843 13.0801 20.7393L18.2953 17.8226C18.8683 17.5022 19.253 16.9267 19.3303 16.2749L20.3389 7.76025C20.4482 6.83757 19.9232 5.95679 19.0595 5.61409Z" stroke="black" stroke-width="1.5" stroke-linecap="round" stroke-linejoin="round"/>
</svg>