<svg width="25" height="24" viewBox="0 0 25 24" fill="none" xmlns="http://www.w3.org/2000/svg">
<path d="M12.25 21.75C10.3216 21.75 8.43657 21.1782 6.83319 20.1068C5.22981 19.0355 3.98013 17.5128 3.24217 15.7312C2.50422 13.9496 2.31114 11.9892 2.68735 10.0979C3.06356 8.20656 3.99215 6.46927 5.35572 5.10571C6.71928 3.74215 8.45656 2.81355 10.3479 2.43735C12.2392 2.06114 14.1996 2.25423 15.9812 2.99218C17.7628 3.73013 19.2855 4.97982 20.3568 6.5832C21.4282 8.18658 22 10.0716 22 12C21.9971 14.585 20.9689 17.0632 19.1411 18.8911C17.3132 20.7189 14.835 21.7471 12.25 21.75ZM12.25 3.75001C10.6183 3.75001 9.02326 4.23386 7.66655 5.14038C6.30985 6.0469 5.25242 7.33538 4.62799 8.84287C4.00357 10.3504 3.8402 12.0092 4.15853 13.6095C4.47685 15.2098 5.26259 16.6799 6.41637 17.8336C7.57015 18.9874 9.04016 19.7732 10.6405 20.0915C12.2408 20.4098 13.8996 20.2464 15.4071 19.622C16.9146 18.9976 18.2031 17.9402 19.1096 16.5835C20.0161 15.2268 20.5 13.6317 20.5 12C20.4976 9.8127 19.6277 7.71567 18.081 6.16901C16.5343 4.62235 14.4373 3.75239 12.25 3.75001Z" fill="black"/>
<path d="M8.97501 10.0008C8.7165 10.0005 8.46865 9.8977 8.28586 9.71491C8.10307 9.53212 8.00027 9.28429 8 9.02578C7.99974 8.89775 8.02475 8.77093 8.0736 8.65258C8.12244 8.53423 8.19416 8.42669 8.28464 8.33611C8.37512 8.24554 8.48258 8.17371 8.60088 8.12475C8.71917 8.07578 8.84597 8.05065 8.974 8.05078C9.23259 8.05078 9.48058 8.1535 9.66342 8.33635C9.84627 8.5192 9.94901 8.76719 9.94901 9.02578C9.94901 9.28437 9.84627 9.53236 9.66342 9.71521C9.48058 9.89806 9.23259 10.0008 8.974 10.0008H8.97501Z" fill="black"/>
<path d="M15.475 10.0008C15.2165 10.0005 14.9687 9.8977 14.7859 9.71491C14.6031 9.53212 14.5003 9.28429 14.5 9.02578C14.4997 8.89775 14.5248 8.77093 14.5736 8.65258C14.6224 8.53423 14.6942 8.42669 14.7846 8.33611C14.8751 8.24554 14.9826 8.17371 15.1009 8.12475C15.2192 8.07578 15.346 8.05065 15.474 8.05078C15.7326 8.05078 15.9806 8.1535 16.1634 8.33635C16.3463 8.5192 16.449 8.76719 16.449 9.02578C16.449 9.28437 16.3463 9.53236 16.1634 9.71521C15.9806 9.89806 15.7326 10.0008 15.474 10.0008H15.475Z" fill="black"/>
<path d="M15.1185 16.6857H9.3815C9.18259 16.6857 8.99183 16.6067 8.85118 16.4661C8.71053 16.3254 8.6315 16.1346 8.6315 15.9357C8.60191 15.4423 8.67356 14.948 8.84203 14.4833C9.01049 14.0186 9.27223 13.5932 9.61114 13.2334C9.95006 12.8735 10.359 12.5868 10.8128 12.3908C11.2666 12.1948 11.7557 12.0938 12.25 12.0938C12.7443 12.0938 13.2334 12.1948 13.6872 12.3908C14.141 12.5868 14.55 12.8735 14.8889 13.2334C15.2278 13.5932 15.4895 14.0186 15.658 14.4833C15.8265 14.948 15.8981 15.4423 15.8685 15.9357C15.8685 16.1346 15.7895 16.3254 15.6488 16.4661C15.5082 16.6067 15.3174 16.6857 15.1185 16.6857ZM10.2435 15.1857H14.2565C14.1487 14.7347 13.8921 14.3331 13.528 14.0458C13.164 13.7585 12.7138 13.6022 12.25 13.6022C11.7862 13.6022 11.336 13.7585 10.972 14.0458C10.6079 14.3331 10.3513 14.7347 10.2435 15.1857Z" fill="black"/>
</svg>