<svg width="25" height="24" viewBox="0 0 25 24" fill="none" xmlns="http://www.w3.org/2000/svg">
<path opacity="0.4" d="M12.5 21C17.4709 21 21.5 16.9699 21.5 12C21.5 7.02908 17.4709 3 12.5 3C7.52908 3 3.5 7.02908 3.5 12C3.5 16.9699 7.52908 21 12.5 21Z" stroke="black" stroke-width="1.5" stroke-linecap="round" stroke-linejoin="round"/>
<path d="M9.26953 9.00533V8.95377M9.22401 8.80078C9.10001 8.80078 8.99901 8.90178 9.00001 9.02578C9.00001 9.14978 9.10101 9.25078 9.22501 9.25078C9.34901 9.25078 9.45001 9.14978 9.45001 9.02578C9.45001 8.90078 9.34901 8.80078 9.22401 8.80078Z" stroke="black" stroke-width="1.5" stroke-linecap="round" stroke-linejoin="round"/>
<path d="M15.7307 9.00533V8.95377M15.724 8.80078C15.6 8.80078 15.499 8.90178 15.5 9.02578C15.5 9.14978 15.601 9.25078 15.725 9.25078C15.849 9.25078 15.95 9.14978 15.95 9.02578C15.95 8.90078 15.849 8.80078 15.724 8.80078Z" stroke="black" stroke-width="1.5" stroke-linecap="round" stroke-linejoin="round"/>
<path fill-rule="evenodd" clip-rule="evenodd" d="M15.3675 15.9359C15.3675 14.2332 14.0832 12.8516 12.4992 12.8516C10.9152 12.8516 9.63086 14.2332 9.63086 15.9359H15.3675Z" stroke="black" stroke-width="1.5" stroke-linecap="round" stroke-linejoin="round"/>
</svg>