<svg width="24" height="25" viewBox="0 0 24 25" fill="none" xmlns="http://www.w3.org/2000/svg">
<path d="M11.9985 7.44271C11.9985 7.44271 11.1981 3.30078 8.39593 3.30078C7.29064 3.30078 6.39453 4.22802 6.39453 5.37223C6.39453 6.51547 7.29064 7.44271 8.39593 7.44271" stroke="black" stroke-width="1.5" stroke-linecap="round" stroke-linejoin="round"/>
<path d="M15.601 7.44271C16.7062 7.44271 17.6023 6.51547 17.6023 5.37223C17.6023 4.22802 16.7062 3.30078 15.601 3.30078C12.7988 3.30078 11.998 7.44271 11.998 7.44271" stroke="black" stroke-width="1.5" stroke-linecap="round" stroke-linejoin="round"/>
<path d="M16.873 21.2994H7.12677C4.97748 21.2994 3.64062 19.6979 3.64062 17.4289V11.3109C3.64062 9.04291 4.97748 7.44141 7.12775 7.44141H16.873C19.0223 7.44141 20.3591 9.04291 20.3591 11.3109V17.4289C20.3591 19.6979 19.0155 21.2994 16.873 21.2994Z" stroke="black" stroke-width="1.5" stroke-linecap="round" stroke-linejoin="round"/>
<path d="M11.9976 7.44141L10.3345 10.2021" stroke="black" stroke-width="1.5" stroke-linecap="round" stroke-linejoin="round"/>
<path d="M11.998 7.44141L13.6614 10.2021" stroke="black" stroke-width="1.5" stroke-linecap="round" stroke-linejoin="round"/>
<path d="M12.064 12.4589V12.419M12.0588 12.3008C11.963 12.3008 11.885 12.3788 11.8857 12.4747C11.8857 12.5705 11.9638 12.6485 12.0596 12.6485C12.1554 12.6485 12.2335 12.5705 12.2335 12.4747C12.2335 12.3781 12.1554 12.3008 12.0588 12.3008Z" stroke="black" stroke-width="1.5" stroke-linecap="round" stroke-linejoin="round"/>
<path d="M14.5874 13.7401V13.7003M14.5823 13.582C14.4865 13.582 14.4084 13.6601 14.4092 13.7559C14.4092 13.8517 14.4872 13.9298 14.5831 13.9298C14.6789 13.9298 14.7569 13.8517 14.7569 13.7559C14.7569 13.6593 14.6789 13.582 14.5823 13.582Z" stroke="black" stroke-width="1.5" stroke-linecap="round" stroke-linejoin="round"/>
<path d="M9.55228 13.7401V13.7003M9.54713 13.582C9.45131 13.582 9.37326 13.6601 9.37403 13.7559C9.37403 13.8517 9.45208 13.9298 9.5479 13.9298C9.64372 13.9298 9.72177 13.8517 9.72177 13.7559C9.72177 13.6593 9.64372 13.582 9.54713 13.582Z" stroke="black" stroke-width="1.5" stroke-linecap="round" stroke-linejoin="round"/>
<path d="M12.0689 17.7103C13.1256 17.7103 14.4662 18.6261 14.4469 17.2165C14.4391 16.1594 13.3381 15.1672 12.0689 15.166C10.7922 15.166 9.52412 16.2441 9.7 17.3434C9.89471 18.6178 11.1323 17.7103 12.0689 17.7103Z" stroke="black" stroke-width="1.5"/>
</svg>