<svg width="24" height="25" viewBox="0 0 24 25" fill="none" xmlns="http://www.w3.org/2000/svg">
<path d="M7.96332 21.3008H16.037C18.3119 21.3008 20.1566 19.456 20.1566 17.1812V7.42035C20.1566 5.14554 18.3119 3.30078 16.037 3.30078H7.96332C5.68851 3.30078 3.84375 5.14554 3.84375 7.42035V17.1812C3.84375 19.456 5.68851 21.3008 7.96332 21.3008Z" stroke="black" stroke-width="1.5" stroke-linecap="round" stroke-linejoin="round"/>
<path d="M15.4873 17.2751H8.86719" stroke="black" stroke-width="1.5" stroke-linecap="round" stroke-linejoin="round"/>
<path d="M11.9944 6.88985V6.83829M11.9877 6.6853C11.8637 6.6853 11.7627 6.7863 11.7637 6.9103C11.7637 7.0343 11.8647 7.1353 11.9887 7.1353C12.1127 7.1353 12.2137 7.0343 12.2137 6.9103C12.2137 6.7853 12.1127 6.6853 11.9877 6.6853Z" stroke="black" stroke-width="1.5" stroke-linecap="round" stroke-linejoin="round"/>
<path d="M15.259 8.54806V8.49649M15.2523 8.34351C15.1283 8.34351 15.0273 8.44451 15.0283 8.56851C15.0283 8.69251 15.1293 8.79351 15.2533 8.79351C15.3773 8.79351 15.4783 8.69251 15.4783 8.56851C15.4783 8.44351 15.3773 8.34351 15.2523 8.34351Z" stroke="black" stroke-width="1.5" stroke-linecap="round" stroke-linejoin="round"/>
<path d="M8.74435 8.54806V8.49649M8.73768 8.34351C8.61368 8.34351 8.51268 8.44451 8.51368 8.56851C8.51368 8.69251 8.61468 8.79351 8.73868 8.79351C8.86268 8.79351 8.96368 8.69251 8.96368 8.56851C8.96368 8.44351 8.86268 8.34351 8.73768 8.34351Z" stroke="black" stroke-width="1.5" stroke-linecap="round" stroke-linejoin="round"/>
<path d="M12.0261 13.4723C13.3936 13.4723 15.1284 14.6575 15.1034 12.8334C15.0933 11.4654 13.6686 10.1815 12.0261 10.1799C10.374 10.1799 8.73308 11.575 8.96069 12.9975C9.21265 14.6468 10.8141 13.4723 12.0261 13.4723Z" stroke="black" stroke-width="1.5"/>
</svg>