<svg width="24" height="25" viewBox="0 0 24 25" fill="none" xmlns="http://www.w3.org/2000/svg">
<path d="M8.39502 8.19102C6.87502 8.19102 5.64502 6.92103 5.64502 5.37103C5.64502 3.82103 6.88502 2.55103 8.39502 2.55103C11.775 2.55103 12.695 7.11103 12.735 7.30103C12.815 7.71103 12.545 8.10102 12.145 8.18102C11.735 8.26102 11.345 7.99103 11.265 7.59103C11.265 7.55103 10.545 4.05103 8.39502 4.05103C7.70502 4.05103 7.14502 4.64103 7.14502 5.37103C7.14502 6.10103 7.70502 6.69102 8.39502 6.69102C8.80502 6.69102 9.14502 7.03102 9.14502 7.44102C9.14502 7.85102 8.80502 8.19102 8.39502 8.19102Z" fill="black"/>
<path d="M15.5949 8.19102C15.1849 8.19102 14.8449 7.85102 14.8449 7.44102C14.8449 7.03102 15.1849 6.69102 15.5949 6.69102C16.2849 6.69102 16.8449 6.10103 16.8449 5.37103C16.8449 4.64103 16.2849 4.05103 15.5949 4.05103C13.4449 4.05103 12.735 7.55103 12.725 7.59103C12.645 8.00103 12.2549 8.26102 11.8449 8.18102C11.4349 8.10102 11.1749 7.71103 11.2549 7.30103C11.2949 7.11103 12.2149 2.55103 15.5949 2.55103C17.1149 2.55103 18.3449 3.82103 18.3449 5.37103C18.3449 6.92103 17.1149 8.19102 15.5949 8.19102Z" fill="black"/>
<path d="M16.875 22.0507H7.125C4.595 22.0507 2.88501 20.1907 2.88501 17.4307V11.3107C2.88501 8.55068 4.585 6.69067 7.125 6.69067H16.875C19.365 6.69067 21.1151 8.59068 21.1151 11.3107V17.4307C21.1151 20.1507 19.375 22.0507 16.875 22.0507ZM7.125 8.19067C5.435 8.19067 4.38501 9.39068 4.38501 11.3107V17.4307C4.38501 19.3507 5.435 20.5507 7.125 20.5507H16.875C18.535 20.5507 19.6151 19.3307 19.6151 17.4307V11.3107C19.6151 9.39068 18.565 8.19067 16.875 8.19067H7.125Z" fill="black"/>
<path d="M10.3351 10.951C10.2051 10.951 10.0751 10.921 9.94508 10.841C9.58508 10.631 9.47507 10.171 9.68507 9.81097L11.3451 7.05096C11.5551 6.70096 12.0151 6.58096 12.3751 6.79096C12.7351 7.00096 12.8451 7.46096 12.6351 7.82096L10.9751 10.581C10.8351 10.811 10.5851 10.941 10.3351 10.941V10.951Z" fill="black"/>
<path d="M13.665 10.951C13.415 10.951 13.165 10.821 13.025 10.591L11.365 7.83104C11.155 7.48104 11.265 7.01104 11.625 6.80104C11.985 6.59104 12.445 6.70105 12.655 7.06105L14.315 9.82104C14.525 10.171 14.415 10.641 14.055 10.851C13.935 10.921 13.805 10.961 13.665 10.961V10.951Z" fill="black"/>
<path d="M12.0551 13.4008C11.5451 13.4008 11.135 12.9908 11.135 12.4808C11.135 12.2408 11.225 12.0108 11.405 11.8308C11.575 11.6508 11.815 11.5608 12.065 11.5608C12.575 11.5608 12.985 11.9708 12.985 12.4808C12.985 12.9908 12.575 13.4008 12.065 13.4008H12.0551Z" fill="black"/>
<path d="M14.585 14.6811C14.075 14.6811 13.665 14.2711 13.665 13.7611C13.665 13.5211 13.755 13.2911 13.935 13.1111C14.105 12.9311 14.345 12.8411 14.595 12.8411C15.105 12.8411 15.515 13.2511 15.515 13.7611C15.515 14.2711 15.105 14.6811 14.595 14.6811H14.585Z" fill="black"/>
<path d="M9.54504 14.6811C9.03504 14.6811 8.625 14.2711 8.625 13.7611C8.625 13.5211 8.71502 13.2911 8.89502 13.1111C9.06502 12.9311 9.30505 12.8411 9.55505 12.8411C10.0651 12.8411 10.475 13.2511 10.475 13.7611C10.475 14.2711 10.0651 14.6811 9.55505 14.6811H9.54504Z" fill="black"/>
<path d="M10.3651 18.7714C10.0951 18.7714 9.83503 18.7114 9.58503 18.5514C9.24503 18.3314 9.02503 17.9614 8.95503 17.4514C8.85503 16.8114 9.06505 16.1414 9.54505 15.5814C10.1551 14.8614 11.125 14.4114 12.065 14.4114C13.725 14.4114 15.185 15.7214 15.195 17.2014C15.195 17.7714 15.035 18.1914 14.695 18.4614C14.155 18.8914 13.4751 18.7314 12.8651 18.5814C12.5851 18.5114 12.295 18.4414 12.065 18.4414C11.875 18.4414 11.6151 18.5114 11.3651 18.5814C11.0451 18.6614 10.705 18.7614 10.375 18.7614L10.3651 18.7714ZM12.065 15.9114C11.565 15.9114 11.015 16.1714 10.685 16.5514C10.575 16.6814 10.395 16.9414 10.435 17.2214C10.435 17.2414 10.435 17.2514 10.435 17.2714C10.575 17.2514 10.805 17.1914 10.965 17.1514C11.295 17.0614 11.6751 16.9614 12.0551 16.9614C12.4551 16.9614 12.855 17.0514 13.205 17.1414C13.345 17.1714 13.535 17.2214 13.685 17.2414C13.685 16.6314 12.9551 15.9214 12.0551 15.9214L12.065 15.9114Z" fill="black"/>
</svg>