<svg width="24" height="24" viewBox="0 0 24 24" fill="none" xmlns="http://www.w3.org/2000/svg">
<path d="M21 12C21 16.971 16.971 21 12 21C7.029 21 3 16.971 3 12C3 7.03 7.029 3 12 3C16.971 3 21 7.03 21 12Z" stroke="black" stroke-width="1.5" stroke-linecap="round" stroke-linejoin="round"/>
<path d="M16.3687 13.0898V13.8004C16.3687 14.4044 16.0241 14.9555 15.4811 15.2199L12.6916 16.5782C12.2552 16.7906 11.7454 16.7906 11.3091 16.5781L8.52033 15.2199C7.97735 14.9555 7.63281 14.4045 7.63281 13.8005V13.0898" stroke="black" stroke-width="1.5" stroke-linecap="round" stroke-linejoin="round"/>
<path d="M16.3687 10.921V10.2535C16.3687 9.65851 16.0342 9.11402 15.5034 8.84514L12.7138 7.43211C12.2653 7.2049 11.7354 7.20492 11.2869 7.43216L8.49806 8.84511C7.96731 9.11402 7.63281 9.65847 7.63281 10.2535V10.921" stroke="black" stroke-width="1.5" stroke-linecap="round" stroke-linejoin="round"/>
<circle cx="11.9991" cy="11.9913" r="2.12997" stroke="black" stroke-width="1.5" stroke-linecap="round" stroke-linejoin="round"/>
<path d="M12 14.1289V16.7339" stroke="black" stroke-width="1.5" stroke-linecap="round" stroke-linejoin="round"/>
</svg>