<svg width="24" height="25" viewBox="0 0 24 25" fill="none" xmlns="http://www.w3.org/2000/svg">
<path opacity="0.4" d="M19.0861 10.058C18.0654 6.7425 14.9778 4.33276 11.3275 4.33276C6.84485 4.33276 3.21094 7.96668 3.21094 12.4493C3.21094 16.932 6.84485 20.5659 11.3275 20.5659C15.0605 20.5659 18.205 18.0458 19.1522 14.614" stroke="black" stroke-width="1.5" stroke-linecap="round" stroke-linejoin="round"/>
<path d="M17.4504 14.6002H19.1912C19.7849 14.6002 20.2789 14.1438 20.3259 13.5519L20.4514 11.9702C20.4514 11.9702 20.4514 11.004 21.0507 10.4716C21.1177 10.412 21.2112 10.3074 21.2112 10.3074C18.7449 9.97199 17.5897 9.96908 15.1233 10.2916C14.5997 10.3601 14.1885 10.3471 13.7824 10.2916C11.3098 9.95367 9.92453 9.9641 7.41797 10.3074C7.41797 10.3074 7.59969 10.3891 7.75561 10.5409C8.09617 10.8725 8.10738 11.0409 8.19468 11.7694C8.2667 12.3704 8.35316 13.0605 8.42271 13.6089C8.49469 14.1764 8.97778 14.6002 9.54987 14.6002H11.6332C12.0861 14.6002 12.496 14.3317 12.6768 13.9164L13.929 11.0412C14.0196 10.8331 14.225 10.6986 14.4519 10.6986C14.6743 10.6986 14.8764 10.8279 14.9696 11.0298L16.2693 13.8446C16.482 14.3053 16.943 14.6002 17.4504 14.6002Z" stroke="black" stroke-width="1.5" stroke-linecap="round" stroke-linejoin="round"/>
</svg>