<svg width="24" height="24" viewBox="0 0 24 24" fill="none" xmlns="http://www.w3.org/2000/svg">
<path fill-rule="evenodd" clip-rule="evenodd" d="M3.7402 3.89737C4.72468 2.84117 6.12669 2.25 7.78216 2.25H16.2169C17.8762 2.25 19.2788 2.84084 20.2629 3.89765C21.2413 4.94841 21.75 6.39889 21.75 8.02638V15.9736C21.75 17.6011 21.2413 19.0516 20.2627 20.1024C19.2785 21.1592 17.8756 21.75 16.2159 21.75H7.78216C6.1228 21.75 4.72038 21.1591 3.73657 20.1023C2.75842 19.0515 2.25 17.601 2.25 15.9736V8.02638C2.25 6.39806 2.76117 4.94771 3.7402 3.89737ZM4.83745 4.92012C4.16024 5.64666 3.75 6.70951 3.75 8.02638V15.9736C3.75 17.2914 4.15861 18.3541 4.83451 19.0802C5.50475 19.8003 6.49341 20.25 7.78216 20.25H16.2159C17.5052 20.25 18.4944 19.8002 19.165 19.0801C19.8412 18.354 20.25 17.2913 20.25 15.9736V8.02638C20.25 6.70868 19.8412 5.64597 19.1651 4.91984C18.4946 4.19975 17.5056 3.75 16.2169 3.75H7.78216C6.49828 3.75 5.50921 4.19943 4.83745 4.92012Z" fill="black"/>
<path fill-rule="evenodd" clip-rule="evenodd" d="M12.0002 6.75C12.2966 6.75 12.5652 6.92455 12.6855 7.1954L16.6855 16.1954C16.8177 16.4928 16.743 16.8415 16.5006 17.0586C16.2582 17.2758 15.9034 17.3118 15.6223 17.1478L9.99258 13.8638L8.68555 16.8046C8.51732 17.1831 8.0741 17.3536 7.69558 17.1854C7.31707 17.0171 7.1466 16.5739 7.31483 16.1954L8.95511 12.5048C8.95918 12.4951 8.96347 12.4854 8.96798 12.4758L11.3148 7.1954C11.4352 6.92455 11.7038 6.75 12.0002 6.75ZM10.6055 12.4847L14.3712 14.6815L12.0002 9.34666L10.6055 12.4847Z" fill="black"/>
</svg>