<svg width="24" height="24" viewBox="0 0 24 24" fill="none" xmlns="http://www.w3.org/2000/svg">
<path fill-rule="evenodd" clip-rule="evenodd" d="M12 3.75C7.44365 3.75 3.75 7.44365 3.75 12C3.75 16.5563 7.44365 20.25 12 20.25C16.5563 20.25 20.25 16.5563 20.25 12C20.25 7.44365 16.5563 3.75 12 3.75ZM2.25 12C2.25 6.61522 6.61522 2.25 12 2.25C17.3848 2.25 21.75 6.61522 21.75 12C21.75 17.3848 17.3848 21.75 12 21.75C6.61522 21.75 2.25 17.3848 2.25 12Z" fill="black"/>
<path fill-rule="evenodd" clip-rule="evenodd" d="M12.0001 6.71484C12.2965 6.71484 12.5651 6.88939 12.6854 7.16024L16.241 15.1602C16.3732 15.4576 16.2985 15.8063 16.056 16.0235C15.8136 16.2406 15.4588 16.2767 15.1777 16.1127L10.2539 13.2404L9.12988 15.7694C8.96165 16.148 8.51843 16.3184 8.13992 16.1502C7.76141 15.982 7.59094 15.5388 7.75916 15.1602L9.21666 11.8809C9.2206 11.8715 9.22474 11.8622 9.22909 11.8529L11.3147 7.16024C11.4351 6.88939 11.7037 6.71484 12.0001 6.71484ZM10.8668 11.8614L13.9267 13.6463L12.0001 9.3115L10.8668 11.8614Z" fill="black"/>
</svg>