<svg width="24" height="24" viewBox="0 0 24 24" fill="none" xmlns="http://www.w3.org/2000/svg">
<path fill-rule="evenodd" clip-rule="evenodd" d="M20.0497 2.68327C19.1537 2.31627 18.1727 2.50927 17.4867 3.19627L15.0537 5.62921C14.9602 5.72274 14.9817 5.87968 15.0939 5.94966C16.8162 7.02367 17.9667 8.93326 17.9667 11.1103C17.9667 14.4563 15.2407 17.1793 11.8917 17.1793C9.8633 17.1793 7.76092 16.1059 6.73681 14.3189C6.66893 14.2004 6.506 14.174 6.40947 14.2705L3.19268 17.4873C2.50768 18.1743 2.31368 19.1583 2.68468 20.0523C3.05568 20.9453 3.88768 21.4993 4.85568 21.4993H19.1507C20.4457 21.4993 21.5007 20.4463 21.5007 19.1503V4.84927C21.5007 3.88327 20.9447 3.05327 20.0497 2.68327Z" fill="black"/>
<path fill-rule="evenodd" clip-rule="evenodd" d="M8.00185 9.76027C8.01985 9.80727 8.04685 9.84627 8.07285 9.88727C8.09785 9.92727 8.11885 9.96827 8.15085 10.0033C8.18785 10.0433 8.23285 10.0723 8.27785 10.1033C8.30685 10.1243 8.32785 10.1523 8.36085 10.1683C8.36785 10.1723 8.37685 10.1713 8.38485 10.1753C8.43085 10.1973 8.48085 10.2043 8.53185 10.2163C8.57985 10.2273 8.62585 10.2433 8.67385 10.2443C8.68285 10.2453 8.69085 10.2503 8.69885 10.2503H10.6769C11.0909 10.2503 11.4269 9.91427 11.4269 9.50027C11.4269 9.08527 11.0909 8.75027 10.6769 8.75027H10.3499C10.8009 8.45327 11.3289 8.28027 11.8919 8.28027C13.4489 8.28027 14.7169 9.54927 14.7169 11.1103C14.7169 12.6653 13.4489 13.9293 11.8919 13.9293C10.8969 13.9293 9.99285 13.4213 9.47485 12.5703C9.25885 12.2153 8.79585 12.1033 8.44485 12.3193C8.08985 12.5343 7.97785 12.9963 8.19385 13.3493C8.98585 14.6523 10.3679 15.4293 11.8919 15.4293C14.2769 15.4293 16.2169 13.4923 16.2169 11.1103C16.2169 8.72227 14.2769 6.78027 11.8919 6.78027C10.9969 6.78027 10.1549 7.06027 9.44885 7.54627V7.53027C9.44885 7.11627 9.11285 6.78027 8.69885 6.78027C8.28485 6.78027 7.94885 7.11627 7.94885 7.53027V9.50027C7.94885 9.53727 7.96585 9.57027 7.97085 9.60627C7.97885 9.65827 7.98285 9.71027 8.00185 9.76027Z" fill="black"/>
</svg>