<svg width="24" height="24" viewBox="0 0 24 24" fill="none" xmlns="http://www.w3.org/2000/svg">
<path fill-rule="evenodd" clip-rule="evenodd" d="M21.7172 20.4661C21.6872 20.4261 21.6572 20.3861 21.6172 20.3461L21.0472 19.7861V19.7761L9.25715 7.98605C8.96715 7.69605 8.48715 7.69605 8.19715 7.98605C7.90715 8.27605 7.90715 8.75605 8.19715 9.04605L9.68715 10.5361L2.85715 17.3661C2.17715 18.0461 1.97715 19.0361 2.34715 19.9261C2.71715 20.8261 3.55715 21.3761 4.51715 21.3761H18.8172C19.3072 21.3761 19.7572 21.2261 20.1272 20.9761L20.5572 21.4061C20.7072 21.5561 20.8972 21.6261 21.0872 21.6261C21.2772 21.6261 21.4672 21.5561 21.6172 21.4061C21.8672 21.1561 21.9072 20.7561 21.7172 20.4661Z" fill="black"/>
<path opacity="0.4" fill-rule="evenodd" clip-rule="evenodd" d="M21.167 4.72601C21.167 3.75601 20.607 2.92601 19.717 2.55601C18.817 2.18601 17.837 2.38601 17.157 3.07601L11.9387 8.28459C11.8605 8.36267 11.8604 8.48941 11.9386 8.56756L20.8256 17.4546C20.9516 17.5806 21.167 17.4914 21.167 17.3132V4.72601Z" fill="black"/>
</svg>