<svg width="25" height="24" viewBox="0 0 25 24" fill="none" xmlns="http://www.w3.org/2000/svg">
<path fill-rule="evenodd" clip-rule="evenodd" d="M19.9567 4.7948C19.9567 3.86914 18.8319 3.39976 18.1723 4.05936L14.161 8.07073C13.8681 8.36363 13.3932 8.36363 13.1003 8.07073C12.8074 7.77784 12.8074 7.30297 13.1003 7.01007L17.1117 2.9987C18.7151 1.39527 21.4567 2.53121 21.4567 4.7948V14.6262C21.4567 15.0404 21.1209 15.3762 20.7067 15.3762C20.2925 15.3762 19.9567 15.0404 19.9567 14.6262V4.7948ZM8.35728 8.10908C8.65017 7.81618 9.12505 7.81618 9.41794 8.10908L11.1959 9.88703C11.2116 9.90032 11.2269 9.91436 11.2417 9.92914C11.2567 9.94418 11.271 9.9597 11.2845 9.97565L20.6693 19.3604C20.6851 19.3738 20.7005 19.388 20.7154 19.4029C20.7303 19.4178 20.7445 19.4332 20.7579 19.449L21.778 20.4691C22.0709 20.762 22.0709 21.2369 21.778 21.5298C21.4851 21.8227 21.0102 21.8227 20.7173 21.5298L20.1048 20.9173C19.7516 21.1062 19.3486 21.2144 18.9183 21.2144H5.04732C2.78308 21.2144 1.64776 18.4734 3.24986 16.8707C3.24997 16.8706 3.24975 16.8709 3.24986 16.8707L9.64959 10.462L8.35728 9.16974C8.06439 8.87684 8.06439 8.40197 8.35728 8.10908ZM10.7102 11.5227L4.31127 17.9307C3.65277 18.5892 4.1205 19.7144 5.04732 19.7144H18.902L10.7102 11.5227Z" fill="black"/>
</svg>