<svg width="24" height="24" viewBox="0 0 24 24" fill="none" xmlns="http://www.w3.org/2000/svg">
<path fill-rule="evenodd" clip-rule="evenodd" d="M7.09634 11.7109C7.38934 12.0039 7.86434 12.0039 8.15734 11.7109L9.86634 10.0009L11.5753 11.7109C11.7223 11.8569 11.9143 11.9309 12.1063 11.9309C12.2983 11.9309 12.4903 11.8569 12.6363 11.7109C12.9293 11.4179 12.9293 10.9429 12.6363 10.6499L10.9273 8.93995L12.6363 7.23095C12.9293 6.93795 12.9293 6.46295 12.6363 6.16995C12.3433 5.87695 11.8683 5.87695 11.5753 6.16995L9.86634 7.87995L8.15734 6.16995C7.86434 5.87695 7.38934 5.87695 7.09634 6.16995C6.80334 6.46295 6.80334 6.93795 7.09634 7.23095L8.80534 8.93995L7.09634 10.6499C6.80334 10.9429 6.80334 11.4179 7.09634 11.7109Z" fill="black"/>
<path opacity="0.4" fill-rule="evenodd" clip-rule="evenodd" d="M20.0495 2.6842C19.1535 2.3162 18.1725 2.5102 17.4875 3.1972L15.293 5.3907C15.2313 5.45233 15.217 5.54664 15.2554 5.6249C15.6837 6.4975 15.9285 7.47734 15.9285 8.5152C15.9285 12.1472 12.9835 15.0922 9.35146 15.0922C8.31259 15.0922 7.33266 14.8474 6.45915 14.4182C6.3809 14.3798 6.28657 14.3941 6.22492 14.4557L3.19246 17.4882C2.50746 18.1752 2.31246 19.1582 2.68446 20.0522C3.05546 20.9462 3.88646 21.5002 4.85546 21.5002H19.1505C20.4465 21.5002 21.5015 20.4472 21.5015 19.1512V4.8502C21.5015 3.8842 20.9455 3.0542 20.0495 2.6842Z" fill="black"/>
</svg>