<svg width="24" height="24" viewBox="0 0 24 24" fill="none" xmlns="http://www.w3.org/2000/svg">
<path fill-rule="evenodd" clip-rule="evenodd" d="M19.0449 17.2573L13.0342 20.723C12.394 21.0922 11.6055 21.0922 10.9653 20.723L4.95451 17.2573C4.31315 16.8875 3.91797 16.2035 3.91797 15.4632V8.53667C3.91797 7.79634 4.31315 7.11232 4.95451 6.74252L10.9653 3.27687C11.6055 2.90771 12.394 2.90771 13.0342 3.27687L19.0449 6.74252C19.6863 7.11232 20.0815 7.79634 20.0815 8.53667V15.4632C20.0815 16.2035 19.6863 16.8875 19.0449 17.2573V17.2573Z" stroke="black" stroke-width="1.5" stroke-linecap="round" stroke-linejoin="round"/>
<path fill-rule="evenodd" clip-rule="evenodd" d="M15.6475 14.7216L12.5354 16.516C12.2039 16.7071 11.7957 16.7071 11.4642 16.516L8.35211 14.7216C8.02004 14.5302 7.81543 14.176 7.81543 13.7927V10.2065C7.81543 9.82319 8.02005 9.46905 8.35211 9.2776L11.4642 7.48319C11.7957 7.29206 12.2039 7.29206 12.5354 7.48319L15.6475 9.2776C15.9796 9.46906 16.1842 9.82322 16.1842 10.2065V13.7928C16.1842 14.1761 15.9796 14.5302 15.6475 14.7216V14.7216Z" stroke="black" stroke-width="1.5" stroke-linecap="round" stroke-linejoin="round"/>
<path opacity="0.4" d="M19.8038 7.5L12 11.9995M12 11.9995L4.19629 7.5M12 11.9995L12 21" stroke="black" stroke-width="1.5" stroke-linecap="round" stroke-linejoin="round"/>
<path opacity="0.4" d="M12 3V7.3402" stroke="black" stroke-width="1.5" stroke-linecap="round" stroke-linejoin="round"/>
<path opacity="0.4" d="M16.0439 14.332L19.8041 16.5" stroke="black" stroke-width="1.5" stroke-linecap="round" stroke-linejoin="round"/>
<path opacity="0.4" d="M4.19629 16.5L7.95642 14.332" stroke="black" stroke-width="1.5" stroke-linecap="round" stroke-linejoin="round"/>
</svg>