<svg width="24" height="24" viewBox="0 0 24 24" fill="none" xmlns="http://www.w3.org/2000/svg">
<path fill-rule="evenodd" clip-rule="evenodd" d="M12 3.75C7.44329 3.75 3.75 7.44329 3.75 12C3.75 16.5567 7.44329 20.25 12 20.25C16.5567 20.25 20.25 16.5567 20.25 12C20.25 7.44329 16.5567 3.75 12 3.75ZM2.25 12C2.25 6.61487 6.61487 2.25 12 2.25C17.3851 2.25 21.75 6.61487 21.75 12C21.75 17.3851 17.3851 21.75 12 21.75C6.61487 21.75 2.25 17.3851 2.25 12Z" fill="black"/>
<path fill-rule="evenodd" clip-rule="evenodd" d="M6.51172 14.0429C6.51172 13.6286 6.84751 13.2929 7.26172 13.2929H12.5849C12.9991 13.2929 13.3349 13.6286 13.3349 14.0429C13.3349 14.4571 12.9991 14.7929 12.5849 14.7929H7.26172C6.84751 14.7929 6.51172 14.4571 6.51172 14.0429ZM14.0485 14.0429C14.0485 13.6286 14.3842 13.2929 14.7985 13.2929H16.7356C17.1499 13.2929 17.4856 13.6286 17.4856 14.0429C17.4856 14.4571 17.1499 14.7929 16.7356 14.7929H14.7985C14.3842 14.7929 14.0485 14.4571 14.0485 14.0429Z" fill="black"/>
<path fill-rule="evenodd" clip-rule="evenodd" d="M13.328 6.84952C13.6872 7.0557 13.8113 7.51407 13.6051 7.87333L9.85043 14.4156C9.64425 14.7749 9.18588 14.8989 8.82662 14.6928C8.46737 14.4866 8.34328 14.0282 8.54946 13.669L12.3042 7.12668C12.5103 6.76743 12.9687 6.64334 13.328 6.84952ZM8.46589 15.3206C8.8252 15.5267 8.94943 15.985 8.74335 16.3443L8.43978 16.8736C8.23371 17.233 7.77537 17.3572 7.41606 17.1511C7.05674 16.945 6.93252 16.4867 7.1386 16.1274L7.44216 15.5981C7.64824 15.2388 8.10658 15.1145 8.46589 15.3206Z" fill="black"/>
<path fill-rule="evenodd" clip-rule="evenodd" d="M10.6716 6.84962C11.0308 6.64334 11.4892 6.76731 11.6954 7.12651L12.6509 8.79029C12.8572 9.14949 12.7332 9.6079 12.374 9.81417C12.0148 10.0205 11.5564 9.89648 11.3501 9.53728L10.3947 7.8735C10.1884 7.5143 10.3124 7.0559 10.6716 6.84962ZM12.7334 10.4421C13.0926 10.2359 13.551 10.36 13.7572 10.7193L16.861 16.127C17.0672 16.4863 16.9431 16.9447 16.5838 17.1509C16.2246 17.357 15.7662 17.233 15.56 16.8737L12.4562 11.4659C12.25 11.1067 12.3741 10.6483 12.7334 10.4421Z" fill="black"/>
</svg>