<svg width="24" height="25" viewBox="0 0 24 25" fill="none" xmlns="http://www.w3.org/2000/svg">
<path fill-rule="evenodd" clip-rule="evenodd" d="M16.736 15.1191H16.093L16.86 16.4561C17.066 16.8151 16.942 17.2731 16.583 17.4791C16.465 17.5471 16.337 17.5791 16.211 17.5791C15.95 17.5791 15.698 17.4441 15.559 17.2021L12.457 11.7921C12.251 11.4321 12.375 10.9741 12.734 10.7681C13.093 10.5611 13.551 10.6861 13.757 11.0461L15.233 13.6191H16.736C17.15 13.6191 17.486 13.9551 17.486 14.3691C17.486 14.7831 17.15 15.1191 16.736 15.1191ZM12.585 15.1191H7.261C6.847 15.1191 6.511 14.7831 6.511 14.3691C6.511 13.9551 6.847 13.6191 7.261 13.6191H8.766L11.136 9.4911L10.394 8.2031C10.188 7.8451 10.311 7.3861 10.671 7.1791C11.031 6.9731 11.488 7.0961 11.695 7.4551L12 7.9851L12.304 7.4561C12.51 7.0971 12.969 6.9731 13.328 7.1791C13.687 7.3851 13.811 7.8441 13.605 8.2021L10.495 13.6191H12.585C12.999 13.6191 13.335 13.9551 13.335 14.3691C13.335 14.7831 12.999 15.1191 12.585 15.1191ZM8.743 16.6721L8.439 17.2021C8.301 17.4431 8.048 17.5791 7.788 17.5791C7.662 17.5791 7.534 17.5471 7.416 17.4791C7.056 17.2741 6.932 16.8151 7.138 16.4561L7.442 15.9261C7.645 15.5671 8.102 15.4401 8.465 15.6481C8.825 15.8531 8.949 16.3121 8.743 16.6721ZM12 2.8291C6.761 2.8291 2.5 7.0911 2.5 12.3291C2.5 17.5671 6.761 21.8291 12 21.8291C17.238 21.8291 21.5 17.5671 21.5 12.3291C21.5 7.0911 17.238 2.8291 12 2.8291Z" fill="black"/>
</svg>