<svg width="24" height="24" viewBox="0 0 24 24" fill="none" xmlns="http://www.w3.org/2000/svg">
<path opacity="0.4" fill-rule="evenodd" clip-rule="evenodd" d="M12 2.32031C6.761 2.32031 2.5 6.58231 2.5 11.8203C2.5 17.0583 6.761 21.3203 12 21.3203C17.238 21.3203 21.5 17.0583 21.5 11.8203C21.5 6.58231 17.238 2.32031 12 2.32031Z" fill="black"/>
<path d="M16.093 14.6101H16.736C17.15 14.6101 17.486 14.2741 17.486 13.8601C17.486 13.4461 17.15 13.1101 16.736 13.1101H15.233L13.757 10.5371C13.551 10.1771 13.093 10.0521 12.734 10.2591C12.375 10.4651 12.251 10.9231 12.457 11.2831L15.559 16.6931C15.698 16.9351 15.95 17.0701 16.211 17.0701C16.337 17.0701 16.465 17.0381 16.583 16.9701C16.942 16.7641 17.066 16.3061 16.86 15.9471L16.093 14.6101Z" fill="black"/>
<path d="M7.26099 14.6101H12.585C12.999 14.6101 13.335 14.2741 13.335 13.8601C13.335 13.4461 12.999 13.1101 12.585 13.1101H10.495L13.605 7.69311C13.811 7.33511 13.687 6.87611 13.328 6.67011C12.969 6.46411 12.51 6.58811 12.304 6.94711L12 7.47611L11.695 6.94611C11.488 6.58711 11.031 6.46411 10.671 6.67011C10.311 6.87711 10.188 7.33611 10.394 7.69411L11.136 8.98211L8.76599 13.1101H7.26099C6.84699 13.1101 6.51099 13.4461 6.51099 13.8601C6.51099 14.2741 6.84699 14.6101 7.26099 14.6101Z" fill="black"/>
<path d="M8.43899 16.6931L8.74299 16.1631C8.94899 15.8031 8.82499 15.3441 8.46499 15.1391C8.10199 14.9311 7.64499 15.0581 7.44199 15.4171L7.13799 15.9471C6.93199 16.3061 7.05599 16.7651 7.41599 16.9701C7.53399 17.0381 7.66199 17.0701 7.78799 17.0701C8.04799 17.0701 8.30099 16.9341 8.43899 16.6931Z" fill="black"/>
</svg>