<svg width="24" height="24" viewBox="0 0 24 24" fill="none" xmlns="http://www.w3.org/2000/svg">
<path fill-rule="evenodd" clip-rule="evenodd" d="M3.7402 3.89737C4.72468 2.84117 6.12669 2.25 7.78216 2.25H16.2169C17.8762 2.25 19.2788 2.84084 20.2629 3.89765C21.2413 4.94841 21.75 6.39889 21.75 8.02638V15.9736C21.75 17.6011 21.2413 19.0516 20.2627 20.1024C19.2785 21.1592 17.8756 21.75 16.2159 21.75H7.78216C6.1228 21.75 4.72038 21.1591 3.73657 20.1023C2.75842 19.0515 2.25 17.601 2.25 15.9736V8.02638C2.25 6.39806 2.76117 4.94771 3.7402 3.89737ZM4.83745 4.92012C4.16024 5.64666 3.75 6.70951 3.75 8.02638V15.9736C3.75 17.2914 4.15861 18.3541 4.83451 19.0802C5.50475 19.8003 6.49341 20.25 7.78216 20.25H16.2159C17.5052 20.25 18.4944 19.8002 19.165 19.0801C19.8412 18.354 20.25 17.2913 20.25 15.9736V8.02638C20.25 6.70868 19.8412 5.64597 19.1651 4.91984C18.4946 4.19975 17.5056 3.75 16.2169 3.75H7.78216C6.49828 3.75 5.50921 4.19943 4.83745 4.92012Z" fill="black"/>
<path fill-rule="evenodd" clip-rule="evenodd" d="M13.3545 6.72845C13.7137 6.93465 13.8378 7.39303 13.6316 7.75227L9.77474 14.4716C9.56853 14.8309 9.11015 14.9549 8.75091 14.7487C8.39167 14.5425 8.26761 14.0841 8.47381 13.7249L12.3307 7.00555C12.5369 6.64631 12.9953 6.52225 13.3545 6.72845ZM8.36074 15.4281C8.71994 15.6343 8.84392 16.0927 8.63765 16.4519L8.32533 16.9958C8.11906 17.355 7.66065 17.479 7.30145 17.2727C6.94225 17.0665 6.81827 16.6081 7.02454 16.2489L7.33686 15.705C7.54313 15.3458 8.00153 15.2218 8.36074 15.4281Z" fill="black"/>
<path fill-rule="evenodd" clip-rule="evenodd" d="M6.38477 14.0977C6.38477 13.6834 6.72055 13.3477 7.13477 13.3477H12.6019C13.0161 13.3477 13.3519 13.6834 13.3519 14.0977C13.3519 14.5119 13.0161 14.8477 12.6019 14.8477H7.13477C6.72055 14.8477 6.38477 14.5119 6.38477 14.0977ZM14.1248 14.0977C14.1248 13.6834 14.4606 13.3477 14.8748 13.3477H16.8646C17.2788 13.3477 17.6146 13.6834 17.6146 14.0977C17.6146 14.5119 17.2788 14.8477 16.8646 14.8477H14.8748C14.4606 14.8477 14.1248 14.5119 14.1248 14.0977Z" fill="black"/>
<path fill-rule="evenodd" clip-rule="evenodd" d="M10.6464 6.72837C11.0057 6.52224 11.4641 6.64641 11.6702 7.00569L12.651 8.7152C12.8571 9.07449 12.7329 9.53284 12.3736 9.73897C12.0144 9.94509 11.556 9.82093 11.3499 9.46165L10.3691 7.75213C10.163 7.39285 10.2872 6.93449 10.6464 6.72837ZM12.7643 10.4189C13.1235 10.2127 13.5819 10.3368 13.7881 10.696L16.9755 16.2498C17.1817 16.609 17.0576 17.0674 16.6984 17.2736C16.3391 17.4798 15.8807 17.3557 15.6746 16.9964L12.4871 11.4427C12.2809 11.0834 12.405 10.6251 12.7643 10.4189Z" fill="black"/>
</svg>