<svg width="24" height="24" viewBox="0 0 24 24" fill="none" xmlns="http://www.w3.org/2000/svg">
<path d="M11 7.5H17M11 12H17M11 16.5H17" stroke="black" stroke-width="1.5" stroke-linecap="round" stroke-linejoin="round"/>
<path d="M7.78216 3H16.2169C19.165 3 21 5.08119 21 8.02638V15.9736C21 18.9188 19.165 21 16.2159 21H7.78216C4.83405 21 3 18.9188 3 15.9736V8.02638C3 5.08119 4.84281 3 7.78216 3Z" stroke="black" stroke-width="1.5" stroke-linecap="round" stroke-linejoin="round"/>
<path d="M7.5115 7.48115V7.56733M7.86072 7.49967C7.86072 7.69365 7.70333 7.85091 7.50935 7.85091C7.31537 7.85091 7.1582 7.69365 7.1582 7.49967C7.1582 7.30569 7.31537 7.14844 7.50935 7.14844C7.70333 7.14844 7.86072 7.30569 7.86072 7.49967Z" stroke="black" stroke-width="1.5" stroke-linecap="round" stroke-linejoin="round"/>
<path d="M7.5115 11.9812V12.0673M7.86072 11.9997C7.86072 12.1937 7.70333 12.3509 7.50935 12.3509C7.31537 12.3509 7.1582 12.1937 7.1582 11.9997C7.1582 11.8057 7.31537 11.6484 7.50935 11.6484C7.70333 11.6484 7.86072 11.8057 7.86072 11.9997Z" stroke="black" stroke-width="1.5" stroke-linecap="round" stroke-linejoin="round"/>
<path d="M7.5115 16.4812V16.5673M7.86072 16.4997C7.86072 16.6937 7.70333 16.8509 7.50935 16.8509C7.31537 16.8509 7.1582 16.6937 7.1582 16.4997C7.1582 16.3057 7.31537 16.1484 7.50935 16.1484C7.70333 16.1484 7.86072 16.3057 7.86072 16.4997Z" stroke="black" stroke-width="1.5" stroke-linecap="round" stroke-linejoin="round"/>
</svg>