<svg width="24" height="24" viewBox="0 0 24 24" fill="none" xmlns="http://www.w3.org/2000/svg">
<path d="M12 21C16.9709 21 21 16.9709 21 12C21 7.02908 16.9709 3 12 3C7.02908 3 3 7.02908 3 12C3 16.9709 7.02908 21 12 21Z" stroke="black" stroke-width="1.5" stroke-linecap="round" stroke-linejoin="round"/>
<path d="M8.33023 10.4253C7.9751 10.9789 7.80677 11.6318 7.85056 12.2876C7.85348 12.9385 7.97704 13.5836 8.21542 14.1898C8.48688 14.9419 8.91012 15.6297 9.45985 16.2116C9.82375 16.6864 10.4863 16.8129 10.9991 16.5045C11.5624 16.2135 12.2299 16.2009 12.804 16.4714C13.3877 16.8343 14.1544 16.6757 14.5456 16.1104C15.0068 15.5899 15.3658 14.9876 15.6061 14.3347C15.6859 14.1051 15.6869 14.109 15.4787 13.9845C14.9396 13.6916 14.5602 13.173 14.4444 12.5717C14.2566 11.7456 14.5855 10.8865 15.2773 10.3971C15.4018 10.3008 15.429 10.2346 15.3201 10.113C14.8122 9.50489 14.0173 9.21494 13.2369 9.35505C12.9382 9.40661 12.6473 9.4971 12.372 9.62261C12.0178 9.79483 11.6023 9.78802 11.253 9.60607C10.2149 9.06218 8.93348 9.42218 8.33023 10.4253Z" stroke="black" stroke-width="1.5" stroke-linecap="round" stroke-linejoin="round"/>
<path d="M12.9228 6.67969L12.3691 7.41526" stroke="black" stroke-width="1.5" stroke-linecap="round" stroke-linejoin="round"/>
</svg>