<svg width="24" height="24" viewBox="0 0 24 24" fill="none" xmlns="http://www.w3.org/2000/svg">
<path fill-rule="evenodd" clip-rule="evenodd" d="M11.1243 15.5113C11.0809 16.0708 11.1372 16.6332 11.2013 17.2727C11.2071 17.3305 11.2129 17.3889 11.2188 17.448C11.3156 18.2571 11.4153 19.0397 11.5716 19.8059C11.6024 19.9403 11.6237 20.019 11.6491 20.0783C11.6582 20.0996 11.665 20.1113 11.6685 20.1167C11.6764 20.1228 11.6841 20.129 11.6918 20.1353C11.7845 20.2127 12.0201 20.2846 12.2767 20.2307C12.5195 20.1798 12.5595 20.0759 12.5674 20.0298C12.5694 20.0183 12.5717 20.0069 12.5742 19.9956C12.8301 18.8362 12.9618 17.6418 13.0714 16.4164C13.0729 16.3684 13.0743 16.322 13.0757 16.2771C13.0857 15.9643 13.0934 15.721 13.0617 15.4788L13.0615 15.4772L13.0615 15.4772C13.0536 15.4158 13.0183 15.3272 12.8452 15.2313C12.6625 15.1301 12.3861 15.0625 12.0767 15.0666C11.7668 15.0706 11.4979 15.1455 11.3254 15.2499C11.1674 15.3454 11.1308 15.4332 11.1243 15.5113ZM11.6713 20.1205C11.6713 20.1205 11.671 20.1202 11.6705 20.1195L11.6713 20.1205ZM14.5492 15.2851C14.4643 14.6272 14.04 14.1783 13.5719 13.9191C13.1132 13.665 12.5666 13.56 12.057 13.5667C11.548 13.5734 11.0019 13.6925 10.5492 13.9663C10.0824 14.2486 9.6831 14.7227 9.62913 15.3914L9.62913 15.3914L9.62896 15.3935C9.57434 16.0947 9.64484 16.7916 9.70732 17.4092C9.71395 17.4748 9.7205 17.5395 9.72679 17.6032L9.72847 17.6185C9.82588 18.4329 9.93221 19.2762 10.1038 20.1147L10.1072 20.1308C10.1095 20.1406 10.1118 20.151 10.1143 20.1621C10.1686 20.4048 10.2902 20.9478 10.7452 21.299C11.2657 21.724 11.9918 21.8232 12.5849 21.6987C13.1927 21.5712 13.8874 21.1473 14.0422 20.304C14.3193 19.0434 14.4569 17.7668 14.5675 16.5273C14.5689 16.5122 14.5697 16.4971 14.5702 16.482C14.5714 16.4378 14.573 16.3915 14.5746 16.3433C14.585 16.038 14.5979 15.6586 14.5492 15.2851Z" fill="black"/>
<path fill-rule="evenodd" clip-rule="evenodd" d="M12.1027 9.70312C11.5735 9.70312 11.1445 10.1321 11.1445 10.6613C11.1445 11.1905 11.5735 11.6195 12.1027 11.6195C12.6319 11.6195 13.0609 11.1905 13.0609 10.6613C13.0609 10.1321 12.6319 9.70312 12.1027 9.70312ZM9.64453 10.6613C9.64453 9.3037 10.7451 8.20312 12.1027 8.20312C13.4604 8.20312 14.5609 9.3037 14.5609 10.6613C14.5609 12.019 13.4604 13.1195 12.1027 13.1195C10.7451 13.1195 9.64453 12.019 9.64453 10.6613Z" fill="black"/>
<path fill-rule="evenodd" clip-rule="evenodd" d="M17.2591 5.92839C14.3546 3.02387 9.64542 3.02387 6.74089 5.92839C3.83637 8.83292 3.83637 13.5421 6.74089 16.4466C7.25475 16.9605 7.82406 17.3827 8.42903 17.7141C8.79231 17.9131 8.92549 18.3689 8.72649 18.7322C8.52749 19.0955 8.07168 19.2286 7.7084 19.0296C6.97985 18.6306 6.2958 18.1228 5.68023 17.5073C2.18992 14.017 2.18992 8.35804 5.68023 4.86773C9.17054 1.37742 14.8295 1.37742 18.3198 4.86773C21.8101 8.35804 21.8101 14.017 18.3198 17.5073C17.9243 17.9027 17.5005 18.2537 17.0547 18.5601C16.7133 18.7947 16.2464 18.7081 16.0118 18.3667C15.7772 18.0253 15.8638 17.5584 16.2052 17.3238C16.5758 17.0692 16.9288 16.7769 17.2591 16.4466C20.1636 13.5421 20.1636 8.83292 17.2591 5.92839Z" fill="black"/>
<path fill-rule="evenodd" clip-rule="evenodd" d="M15.1179 8.06896C13.3957 6.34681 10.6036 6.34681 8.88142 8.06896C7.30062 9.64976 7.17061 12.1334 8.49261 13.8616C8.74427 14.1906 8.68158 14.6614 8.35258 14.913C8.02358 15.1647 7.55287 15.102 7.30121 14.773C5.52847 12.4555 5.70125 9.12781 7.82076 7.0083C10.1287 4.70036 13.8706 4.70036 16.1785 7.0083C18.2981 9.12781 18.4708 12.4555 16.6981 14.773C16.4464 15.102 15.9757 15.1647 15.6467 14.913C15.3177 14.6614 15.255 14.1906 15.5067 13.8616C16.8287 12.1334 16.6987 9.64976 15.1179 8.06896Z" fill="black"/>
</svg>