<svg width="24" height="24" viewBox="0 0 24 24" fill="none" xmlns="http://www.w3.org/2000/svg">
<path d="M9.67492 21.7468C8.83492 21.7468 8.00492 21.3668 7.45492 20.6468C6.47492 19.6268 5.69492 18.3568 5.18492 16.9468C4.74492 15.8268 4.51492 14.6269 4.50492 13.4069C4.42492 12.1669 4.75492 10.8669 5.44492 9.78686C6.69492 7.71686 9.34492 6.97679 11.4849 8.09679C11.8749 8.29679 12.3549 8.30681 12.7549 8.11681C13.3049 7.86681 13.8749 7.68678 14.4449 7.58678C16.0549 7.29678 17.7149 7.90686 18.7549 9.16686C18.9649 9.39686 19.0649 9.67678 19.0449 9.95678C19.0049 10.3868 18.6849 10.6368 18.5649 10.7268C17.5849 11.4268 17.1349 12.5968 17.3949 13.7268C17.5649 14.5768 18.0749 15.2768 18.8149 15.6868C19.5049 16.0868 19.6449 16.4668 19.3849 17.1868C18.9349 18.4168 18.2649 19.5268 17.4049 20.5168C16.5549 21.7568 14.7849 22.1268 13.4249 21.2768C12.7249 20.9468 11.8049 20.9668 11.0449 21.3668C10.6149 21.6268 10.1349 21.7468 9.66492 21.7468H9.67492ZM9.37492 9.07678C8.32492 9.07678 7.30492 9.61677 6.73492 10.5668C6.73492 10.5668 6.73492 10.5768 6.72492 10.5868C6.20492 11.3968 5.94492 12.3768 6.01492 13.3468C6.01492 14.4268 6.21492 15.4469 6.59492 16.4169C7.03492 17.6569 7.70492 18.7469 8.59492 19.6769C9.04492 20.2569 9.76492 20.3969 10.3349 20.0569C11.5449 19.4169 12.9649 19.3968 14.1649 19.9668C14.9149 20.4268 15.7949 20.2468 16.2449 19.5968C16.9849 18.7468 17.5349 17.8468 17.9149 16.8868C16.8949 16.2668 16.1849 15.2269 15.9449 14.0369C15.5949 12.4869 16.1249 10.8668 17.3249 9.81677C16.6149 9.17677 15.6549 8.89677 14.7249 9.06677C14.2749 9.14677 13.8349 9.2868 13.4149 9.4768C12.6049 9.8568 11.6249 9.84676 10.8249 9.43676C10.3649 9.19676 9.87492 9.08678 9.39492 9.08678L9.37492 9.07678Z" fill="black"/>
<path d="M12.0445 7.72496C11.6645 7.72496 11.3345 7.44492 11.2945 7.06492C11.1445 5.83492 11.4845 4.65499 12.2345 3.75499C12.9845 2.85499 14.0545 2.32499 15.2645 2.25499C15.6545 2.23499 15.9745 2.49497 16.0445 2.86497C16.2845 4.13497 16.0045 5.335 15.2445 6.265C14.4845 7.195 13.3445 7.72497 12.0445 7.73497H12.0345L12.0445 7.72496ZM14.6245 3.88499C14.1345 4.04499 13.7045 4.32495 13.3845 4.71495C13.0545 5.11495 12.8445 5.60499 12.7745 6.13499C13.3045 5.99499 13.7545 5.71492 14.0845 5.31492C14.4045 4.91492 14.5945 4.425 14.6245 3.895V3.88499Z" fill="black"/>
</svg>