<svg width="24" height="24" viewBox="0 0 24 24" fill="none" xmlns="http://www.w3.org/2000/svg">
<path fill-rule="evenodd" clip-rule="evenodd" d="M3.7402 3.89737C4.72468 2.84117 6.12669 2.25 7.78216 2.25H16.2169C17.8762 2.25 19.2788 2.84084 20.2629 3.89765C21.2413 4.94841 21.75 6.39889 21.75 8.02638V15.9736C21.75 17.6011 21.2413 19.0516 20.2627 20.1024C19.2785 21.1592 17.8756 21.75 16.2159 21.75H7.78216C6.1228 21.75 4.72038 21.1591 3.73657 20.1023C2.75842 19.0515 2.25 17.601 2.25 15.9736V8.02638C2.25 6.39806 2.76117 4.94771 3.7402 3.89737ZM4.83745 4.92012C4.16024 5.64666 3.75 6.70951 3.75 8.02638V15.9736C3.75 17.2914 4.15861 18.3541 4.83451 19.0802C5.50475 19.8003 6.49341 20.25 7.78216 20.25H16.2159C17.5052 20.25 18.4944 19.8002 19.165 19.0801C19.8412 18.354 20.25 17.2913 20.25 15.9736V8.02638C20.25 6.70868 19.8412 5.64597 19.1651 4.91984C18.4946 4.19975 17.5056 3.75 16.2169 3.75H7.78216C6.49828 3.75 5.50921 4.19943 4.83745 4.92012Z" fill="black"/>
<path fill-rule="evenodd" clip-rule="evenodd" d="M13.6567 6.26794C13.9877 6.51702 14.0541 6.98724 13.805 7.31819L13.1774 8.15203C12.9283 8.48298 12.4581 8.54935 12.1272 8.30027C11.7962 8.05118 11.7298 7.58097 11.9789 7.25002L12.6065 6.41618C12.8556 6.08523 13.3258 6.01886 13.6567 6.26794Z" fill="black"/>
<path fill-rule="evenodd" clip-rule="evenodd" d="M14.6815 10.5339C14.3765 10.3588 14.0151 10.292 13.6583 10.3557L13.6556 10.3562L13.6556 10.3562C13.4138 10.3984 13.1788 10.4709 12.9574 10.5719C12.3824 10.8464 11.7098 10.8371 11.1423 10.5396C10.4271 10.166 9.54529 10.4137 9.13041 11.1041C9.12658 11.1105 9.12266 11.1168 9.11865 11.123C8.84079 11.5557 8.70946 12.0666 8.74358 12.5799C8.74461 12.5954 8.74516 12.6109 8.74523 12.6264C8.74774 13.2017 8.85745 13.7726 9.06805 14.3096L9.07516 14.3285C9.31943 15.0042 9.69983 15.6221 10.1935 16.1447C10.2114 16.1637 10.2283 16.1835 10.2441 16.2042C10.385 16.3885 10.6429 16.4376 10.8413 16.318C10.8555 16.3095 10.8699 16.3014 10.8845 16.2939C11.6706 15.8883 12.6015 15.8711 13.4021 16.2476C13.4288 16.2602 13.4547 16.2743 13.4797 16.2899C13.7385 16.4512 14.0803 16.3815 14.2559 16.1282C14.2726 16.1041 14.2907 16.081 14.3102 16.059C14.6421 15.6834 14.9149 15.2611 15.1203 14.8058C14.5604 14.3856 14.1708 13.771 14.0331 13.076C13.8295 12.1619 14.0815 11.2196 14.6815 10.5339ZM16.2357 9.90753C15.5411 9.08284 14.4594 8.6896 13.3962 8.87876C13.0275 8.94326 12.6675 9.05462 12.3266 9.21098L12.3132 9.21726C12.1604 9.29103 11.9844 9.28751 11.8385 9.21099L11.8376 9.21054C10.4235 8.47121 8.67758 8.95696 7.85056 10.3218C7.407 11.0168 7.19578 11.8341 7.24538 12.6557C7.25145 13.4062 7.39525 14.1492 7.66792 14.8478C7.97822 15.7023 8.45789 16.4846 9.07871 17.1488C9.68214 17.9039 10.7511 18.106 11.5894 17.6182C11.9472 17.44 12.3665 17.4301 12.7322 17.5907C13.6522 18.1321 14.8337 17.8843 15.461 17.0217C15.9827 16.4239 16.3903 15.7361 16.664 14.9908L16.6641 14.9908L16.6676 14.9808C16.669 14.9769 16.6705 14.9725 16.6722 14.9678C16.6881 14.9229 16.716 14.8438 16.7337 14.7705C16.7543 14.6852 16.7943 14.4851 16.711 14.256C16.6279 14.0274 16.4693 13.8997 16.3997 13.848C16.3399 13.8034 16.2683 13.7607 16.2276 13.7364C16.2232 13.7338 16.2191 13.7313 16.2155 13.7291C16.2063 13.7236 16.197 13.7183 16.1875 13.7132C15.8312 13.5197 15.5806 13.1771 15.5034 12.7789C15.5019 12.7711 15.5003 12.7633 15.4985 12.7555C15.373 12.2025 15.5933 11.6276 16.0553 11.301C16.064 11.2949 16.0725 11.2886 16.081 11.2821C16.0827 11.2807 16.0846 11.2793 16.0867 11.2777C16.1546 11.2255 16.4028 11.0348 16.4699 10.6992C16.5496 10.3011 16.331 10.0164 16.2357 9.90753Z" fill="black"/>
</svg>