<svg width="24" height="24" viewBox="0 0 24 24" fill="none" xmlns="http://www.w3.org/2000/svg">
<path opacity="0.4" fill-rule="evenodd" clip-rule="evenodd" d="M18.6975 15.9118C17.8945 15.4728 17.3335 14.7048 17.1555 13.7888C16.8745 12.5558 17.3625 11.2828 18.4175 10.5338C18.5225 10.4508 18.7705 10.2578 18.7985 9.93582C18.8265 9.61982 18.6235 9.39182 18.5685 9.33082C17.5775 8.13982 16.0135 7.56482 14.4905 7.83882C13.9405 7.93382 13.3955 8.10482 12.8675 8.34882C12.3945 8.57282 11.8355 8.56282 11.3755 8.32682C9.34949 7.26782 6.84049 7.96882 5.66049 9.92582C4.99449 10.9578 4.67349 12.2068 4.75449 13.4118C4.75849 14.5988 4.98249 15.7658 5.41549 16.8708C5.90949 18.2378 6.69249 19.5088 7.64349 20.5058C8.14249 21.1548 8.90149 21.5028 9.66649 21.5018C10.1035 21.5018 10.5425 21.3888 10.9355 21.1538C11.7645 20.7188 12.7665 20.7008 13.5645 21.0738C14.8045 21.8488 16.4265 21.5148 17.2195 20.3608C18.0635 19.3978 18.7125 18.3088 19.1515 17.1118C19.3675 16.5028 19.2725 16.2458 18.6975 15.9118Z" fill="black"/>
<path fill-rule="evenodd" clip-rule="evenodd" d="M12.0358 7.48053H12.0428C13.2668 7.46353 14.3338 6.97453 15.0478 6.10053C15.7558 5.23253 16.0208 4.09853 15.7948 2.90753C15.7478 2.65953 15.5178 2.48153 15.2718 2.50153C14.1328 2.57353 13.1188 3.07553 12.4178 3.91753C11.7058 4.76953 11.3908 5.87853 11.5288 7.04053C11.5588 7.29153 11.7828 7.48053 12.0358 7.48053Z" fill="black"/>
</svg>