<svg width="24" height="24" viewBox="0 0 24 24" fill="none" xmlns="http://www.w3.org/2000/svg">
<path fill-rule="evenodd" clip-rule="evenodd" d="M3.7402 3.89737C4.72468 2.84117 6.12669 2.25 7.78216 2.25H16.2169C17.8762 2.25 19.2788 2.84084 20.2629 3.89765C21.2413 4.94841 21.75 6.39889 21.75 8.02638V15.9736C21.75 17.6011 21.2413 19.0516 20.2627 20.1024C19.2785 21.1592 17.8756 21.75 16.2159 21.75H7.78216C6.1228 21.75 4.72038 21.1591 3.73657 20.1023C2.75842 19.0515 2.25 17.601 2.25 15.9736V8.02638C2.25 6.39806 2.76117 4.94771 3.7402 3.89737ZM4.83745 4.92012C4.16024 5.64666 3.75 6.70951 3.75 8.02638V15.9736C3.75 17.2914 4.15861 18.3541 4.83451 19.0802C5.50475 19.8003 6.49341 20.25 7.78216 20.25H16.2159C17.5052 20.25 18.4944 19.8002 19.165 19.0801C19.8412 18.354 20.25 17.2913 20.25 15.9736V8.02638C20.25 6.70868 19.8412 5.64597 19.1651 4.91984C18.4946 4.19975 17.5056 3.75 16.2169 3.75H7.78216C6.49828 3.75 5.50921 4.19943 4.83745 4.92012Z" fill="black"/>
<path fill-rule="evenodd" clip-rule="evenodd" d="M11.5 7.75C9.42893 7.75 7.75 9.42893 7.75 11.5C7.75 13.5711 9.42893 15.25 11.5 15.25C13.5711 15.25 15.25 13.5711 15.25 11.5C15.25 9.42893 13.5711 7.75 11.5 7.75ZM6.25 11.5C6.25 8.60051 8.60051 6.25 11.5 6.25C14.3995 6.25 16.75 8.60051 16.75 11.5C16.75 14.3995 14.3995 16.75 11.5 16.75C8.60051 16.75 6.25 14.3995 6.25 11.5Z" fill="black"/>
<path fill-rule="evenodd" clip-rule="evenodd" d="M14.1513 14.1494C14.4442 13.8565 14.9191 13.8565 15.212 14.1494L17.5309 16.4683C17.8238 16.7612 17.8238 17.236 17.5309 17.5289C17.238 17.8218 16.7631 17.8218 16.4702 17.5289L14.1513 15.21C13.8584 14.9171 13.8584 14.4423 14.1513 14.1494Z" fill="black"/>
<path fill-rule="evenodd" clip-rule="evenodd" d="M11.5 9.24609C11.9142 9.24609 12.25 9.58188 12.25 9.99609V12.9961C12.25 13.4103 11.9142 13.7461 11.5 13.7461C11.0858 13.7461 10.75 13.4103 10.75 12.9961V9.99609C10.75 9.58188 11.0858 9.24609 11.5 9.24609Z" fill="black"/>
<path fill-rule="evenodd" clip-rule="evenodd" d="M9.25 11.4961C9.25 11.0819 9.58579 10.7461 10 10.7461H13C13.4142 10.7461 13.75 11.0819 13.75 11.4961C13.75 11.9103 13.4142 12.2461 13 12.2461H10C9.58579 12.2461 9.25 11.9103 9.25 11.4961Z" fill="black"/>
</svg>