<svg width="24" height="24" viewBox="0 0 24 24" fill="none" xmlns="http://www.w3.org/2000/svg">
<path fill-rule="evenodd" clip-rule="evenodd" d="M10.25 7.5C10.25 7.08579 10.5858 6.75 11 6.75H17C17.4142 6.75 17.75 7.08579 17.75 7.5C17.75 7.91421 17.4142 8.25 17 8.25H11C10.5858 8.25 10.25 7.91421 10.25 7.5ZM10.25 12C10.25 11.5858 10.5858 11.25 11 11.25H17C17.4142 11.25 17.75 11.5858 17.75 12C17.75 12.4142 17.4142 12.75 17 12.75H11C10.5858 12.75 10.25 12.4142 10.25 12ZM10.25 16.5C10.25 16.0858 10.5858 15.75 11 15.75H17C17.4142 15.75 17.75 16.0858 17.75 16.5C17.75 16.9142 17.4142 17.25 17 17.25H11C10.5858 17.25 10.25 16.9142 10.25 16.5Z" fill="black"/>
<path fill-rule="evenodd" clip-rule="evenodd" d="M3.7402 3.89737C4.72468 2.84117 6.12669 2.25 7.78216 2.25H16.2169C17.8762 2.25 19.2788 2.84084 20.2629 3.89765C21.2413 4.94841 21.75 6.39889 21.75 8.02638V15.9736C21.75 17.6011 21.2413 19.0516 20.2627 20.1024C19.2785 21.1592 17.8756 21.75 16.2159 21.75H7.78216C6.1228 21.75 4.72038 21.1591 3.73657 20.1023C2.75842 19.0515 2.25 17.601 2.25 15.9736V8.02638C2.25 6.39806 2.76117 4.94771 3.7402 3.89737ZM4.83745 4.92012C4.16024 5.64666 3.75 6.70951 3.75 8.02638V15.9736C3.75 17.2914 4.15861 18.3541 4.83451 19.0802C5.50475 19.8003 6.49341 20.25 7.78216 20.25H16.2159C17.5052 20.25 18.4944 19.8002 19.165 19.0801C19.8412 18.354 20.25 17.2913 20.25 15.9736V8.02638C20.25 6.70868 19.8412 5.64597 19.1651 4.91984C18.4946 4.19975 17.5056 3.75 16.2169 3.75H7.78216C6.49828 3.75 5.50921 4.19943 4.83745 4.92012Z" fill="black"/>
<path fill-rule="evenodd" clip-rule="evenodd" d="M6.4082 7.49967C6.4082 6.89171 6.90092 6.39844 7.50935 6.39844C8.11718 6.39844 8.61072 6.89111 8.61072 7.49967C8.61072 8.10822 8.1172 8.60091 7.50935 8.60091C6.90091 8.60091 6.4082 8.10762 6.4082 7.49967Z" fill="black"/>
<path fill-rule="evenodd" clip-rule="evenodd" d="M6.4082 11.9997C6.4082 11.3917 6.90092 10.8984 7.50935 10.8984C8.11718 10.8984 8.61072 11.3911 8.61072 11.9997C8.61072 12.6082 8.1172 13.1009 7.50935 13.1009C6.90091 13.1009 6.4082 12.6076 6.4082 11.9997Z" fill="black"/>
<path fill-rule="evenodd" clip-rule="evenodd" d="M6.4082 16.4997C6.4082 15.8917 6.90092 15.3984 7.50935 15.3984C8.11718 15.3984 8.61072 15.8911 8.61072 16.4997C8.61072 17.1082 8.1172 17.6009 7.50935 17.6009C6.90091 17.6009 6.4082 17.1076 6.4082 16.4997Z" fill="black"/>
</svg>