<svg width="24" height="24" viewBox="0 0 24 24" fill="none" xmlns="http://www.w3.org/2000/svg">
<path d="M7.78216 3H16.2169C19.165 3 21 5.08119 21 8.02638V15.9736C21 18.9188 19.165 21 16.2159 21H7.78216C4.83405 21 3 18.9188 3 15.9736V8.02638C3 5.08119 4.84281 3 7.78216 3Z" stroke="black" stroke-width="1.5" stroke-linecap="round" stroke-linejoin="round"/>
<path d="M13.2057 6.86719L12.5781 7.70103" stroke="black" stroke-width="1.5" stroke-linecap="round" stroke-linejoin="round"/>
<path d="M8.48756 10.7178C8.12269 11.286 7.95048 11.9564 7.99523 12.6297C7.99815 13.2981 8.12561 13.9607 8.36983 14.5834C8.64907 15.3559 9.08399 16.0623 9.64831 16.6597C10.021 17.1472 10.702 17.2776 11.2284 16.9604C11.8073 16.6617 12.4933 16.649 13.0829 16.9263C13.6823 17.2999 14.4694 17.1365 14.8722 16.5556C15.3451 16.0205 15.7138 15.4026 15.96 14.7323C16.0427 14.4968 16.0437 14.5007 15.8296 14.3723C15.276 14.0716 14.8868 13.5394 14.7671 12.9216C14.5745 12.0731 14.9121 11.1906 15.6224 10.6886C15.7508 10.5893 15.778 10.5212 15.6671 10.3967C15.1446 9.77205 14.3283 9.47432 13.5266 9.61734C13.2201 9.67086 12.9214 9.76329 12.6392 9.89269C12.2744 10.0688 11.8482 10.063 11.4902 9.87518C10.4238 9.31767 9.10734 9.68642 8.48756 10.7178Z" stroke="black" stroke-width="1.5" stroke-linecap="round" stroke-linejoin="round"/>
</svg>