<svg width="24" height="24" viewBox="0 0 24 24" fill="none" xmlns="http://www.w3.org/2000/svg">
<path fill-rule="evenodd" clip-rule="evenodd" d="M3.7402 3.89737C4.72468 2.84117 6.12669 2.25 7.78216 2.25H16.2169C17.8762 2.25 19.2788 2.84084 20.2629 3.89765C21.2413 4.94841 21.75 6.39889 21.75 8.02638V15.9736C21.75 17.6011 21.2413 19.0516 20.2627 20.1024C19.2785 21.1592 17.8756 21.75 16.2159 21.75H7.78216C6.1228 21.75 4.72038 21.1591 3.73657 20.1023C2.75842 19.0515 2.25 17.601 2.25 15.9736V8.02638C2.25 6.39806 2.76117 4.94771 3.7402 3.89737ZM4.83745 4.92012C4.16024 5.64666 3.75 6.70951 3.75 8.02638V15.9736C3.75 17.2914 4.15861 18.3541 4.83451 19.0802C5.50475 19.8003 6.49341 20.25 7.78216 20.25H16.2159C17.5052 20.25 18.4944 19.8002 19.165 19.0801C19.8412 18.354 20.25 17.2913 20.25 15.9736V8.02638C20.25 6.70868 19.8412 5.64597 19.1651 4.91984C18.4946 4.19975 17.5056 3.75 16.2169 3.75H7.78216C6.49828 3.75 5.50921 4.19943 4.83745 4.92012Z" fill="black"/>
<path fill-rule="evenodd" clip-rule="evenodd" d="M12 7.15234C11.8619 7.15234 11.75 7.26427 11.75 7.40234C11.75 7.54041 11.8619 7.65234 12 7.65234C12.1381 7.65234 12.25 7.54041 12.25 7.40234C12.25 7.26427 12.1381 7.15234 12 7.15234ZM10.25 7.40234C10.25 6.43585 11.0335 5.65234 12 5.65234C12.9665 5.65234 13.75 6.43585 13.75 7.40234C13.75 8.36884 12.9665 9.15234 12 9.15234C11.0335 9.15234 10.25 8.36884 10.25 7.40234Z" fill="black"/>
<path fill-rule="evenodd" clip-rule="evenodd" d="M12 16.3516C11.8619 16.3516 11.75 16.4635 11.75 16.6016C11.75 16.7396 11.8619 16.8516 12 16.8516C12.1381 16.8516 12.25 16.7396 12.25 16.6016C12.25 16.4635 12.1381 16.3516 12 16.3516ZM10.25 16.6016C10.25 15.6351 11.0335 14.8516 12 14.8516C12.9665 14.8516 13.75 15.6351 13.75 16.6016C13.75 17.5681 12.9665 18.3516 12 18.3516C11.0335 18.3516 10.25 17.5681 10.25 16.6016Z" fill="black"/>
<path fill-rule="evenodd" clip-rule="evenodd" d="M12 7.65234C12.4142 7.65234 12.75 7.98813 12.75 8.40234L12.75 15.6023C12.75 16.0166 12.4142 16.3523 12 16.3523C11.5858 16.3523 11.25 16.0166 11.25 15.6023L11.25 8.40234C11.25 7.98813 11.5858 7.65234 12 7.65234Z" fill="black"/>
<path fill-rule="evenodd" clip-rule="evenodd" d="M17.4004 10.8008C17.8146 10.8008 18.1504 11.1366 18.1504 11.5508V12.4508C18.1504 12.865 17.8146 13.2008 17.4004 13.2008C16.9862 13.2008 16.6504 12.865 16.6504 12.4508V11.5508C16.6504 11.1366 16.9862 10.8008 17.4004 10.8008Z" fill="black"/>
<path fill-rule="evenodd" clip-rule="evenodd" d="M14.7002 9.90234C15.1144 9.90234 15.4502 10.2381 15.4502 10.6523V13.3523C15.4502 13.7666 15.1144 14.1023 14.7002 14.1023C14.286 14.1023 13.9502 13.7666 13.9502 13.3523V10.6523C13.9502 10.2381 14.286 9.90234 14.7002 9.90234Z" fill="black"/>
<path fill-rule="evenodd" clip-rule="evenodd" d="M6.59961 8.41016C7.01382 8.41016 7.34961 8.74594 7.34961 9.16016L7.34961 14.8396C7.34961 15.2539 7.01382 15.5896 6.59961 15.5896C6.1854 15.5896 5.84961 15.2539 5.84961 14.8396L5.84961 9.16016C5.84961 8.74594 6.1854 8.41016 6.59961 8.41016Z" fill="black"/>
<path fill-rule="evenodd" clip-rule="evenodd" d="M9.2998 9.90234C9.71402 9.90234 10.0498 10.2381 10.0498 10.6523V13.3523C10.0498 13.7666 9.71402 14.1023 9.2998 14.1023C8.88559 14.1023 8.5498 13.7666 8.5498 13.3523V10.6523C8.5498 10.2381 8.88559 9.90234 9.2998 9.90234Z" fill="black"/>
</svg>