<svg width="24" height="24" viewBox="0 0 24 24" fill="none" xmlns="http://www.w3.org/2000/svg">
<path fill-rule="evenodd" clip-rule="evenodd" d="M3.7402 3.89737C4.72468 2.84117 6.12669 2.25 7.78216 2.25H16.2169C17.8762 2.25 19.2788 2.84084 20.2629 3.89765C21.2413 4.94841 21.75 6.39889 21.75 8.02638V15.9736C21.75 17.6011 21.2413 19.0516 20.2627 20.1024C19.2785 21.1592 17.8756 21.75 16.2159 21.75H7.78216C6.1228 21.75 4.72038 21.1591 3.73657 20.1023C2.75842 19.0515 2.25 17.601 2.25 15.9736V8.02638C2.25 6.39806 2.76117 4.94771 3.7402 3.89737ZM4.83745 4.92012C4.16024 5.64666 3.75 6.70951 3.75 8.02638V15.9736C3.75 17.2914 4.15861 18.3541 4.83451 19.0802C5.50475 19.8003 6.49341 20.25 7.78216 20.25H16.2159C17.5052 20.25 18.4944 19.8002 19.165 19.0801C19.8412 18.354 20.25 17.2913 20.25 15.9736V8.02638C20.25 6.70868 19.8412 5.64597 19.1651 4.91984C18.4946 4.19975 17.5056 3.75 16.2169 3.75H7.78216C6.49828 3.75 5.50921 4.19943 4.83745 4.92012Z" fill="black"/>
<path fill-rule="evenodd" clip-rule="evenodd" d="M21.5381 8.45017C21.8267 8.74732 21.8197 9.22215 21.5226 9.51071L17.9192 13.0099C17.7658 13.1588 17.5561 13.2352 17.3429 13.2199C17.1296 13.2045 16.933 13.0989 16.8026 12.9295L14.9468 10.5208L11.8472 16.1494C11.7089 16.4004 11.4397 16.5507 11.1534 16.5367C10.8672 16.5226 10.6139 16.3467 10.5009 16.0833L9.15832 12.9538L8.42626 14.662C8.31531 14.9209 8.06868 15.0958 7.78768 15.1148C7.50668 15.1339 7.23869 14.9939 7.09378 14.7524L6.0907 13.0806L3.43599 14.9768C3.09893 15.2176 2.63051 15.1395 2.38976 14.8025C2.149 14.4654 2.22707 13.997 2.56413 13.7562L5.87992 11.3878C6.05024 11.2662 6.26365 11.2212 6.46857 11.2638C6.67349 11.3065 6.85128 11.4328 6.95897 11.6123L7.62535 12.7229L8.46859 10.7553C8.58676 10.4796 8.85784 10.3008 9.15781 10.3008C9.45778 10.3007 9.72893 10.4794 9.8472 10.755L11.274 14.0807L14.1852 8.79423C14.3072 8.57268 14.5326 8.42755 14.7848 8.40821C15.037 8.38888 15.2819 8.49794 15.4363 8.69829L17.4775 11.3479L20.4776 8.4346C20.7747 8.14604 21.2495 8.15301 21.5381 8.45017Z" fill="black"/>
<path fill-rule="evenodd" clip-rule="evenodd" d="M14.8418 2.25C15.256 2.25 15.5918 2.58579 15.5918 3V5.84211C15.5918 6.25632 15.256 6.59211 14.8418 6.59211C14.4276 6.59211 14.0918 6.25632 14.0918 5.84211V3C14.0918 2.58579 14.4276 2.25 14.8418 2.25Z" fill="black"/>
<path fill-rule="evenodd" clip-rule="evenodd" d="M14.8418 12.6719C15.256 12.6719 15.5918 13.0077 15.5918 13.4219V21.0008C15.5918 21.415 15.256 21.7508 14.8418 21.7508C14.4276 21.7508 14.0918 21.415 14.0918 21.0008V13.4219C14.0918 13.0077 14.4276 12.6719 14.8418 12.6719Z" fill="black"/>
<path fill-rule="evenodd" clip-rule="evenodd" d="M14.8419 8.96094C14.7329 8.96094 14.6445 9.0493 14.6445 9.15831C14.6445 9.26731 14.7329 9.35567 14.8419 9.35567C14.9509 9.35567 15.0393 9.26731 15.0393 9.15831C15.0393 9.0493 14.9509 8.96094 14.8419 8.96094ZM13.1445 9.15831C13.1445 8.22088 13.9045 7.46094 14.8419 7.46094C15.7793 7.46094 16.5393 8.22088 16.5393 9.15831C16.5393 10.0957 15.7793 10.8557 14.8419 10.8557C13.9045 10.8557 13.1445 10.0957 13.1445 9.15831Z" fill="black"/>
</svg>