<svg width="25" height="24" viewBox="0 0 25 24" fill="none" xmlns="http://www.w3.org/2000/svg">
<path fill-rule="evenodd" clip-rule="evenodd" d="M12.0001 17.95C9.89074 17.95 8.18225 16.24 8.18225 14.13V13.7C8.18225 12.72 8.97521 11.9301 9.9552 11.9301H14.0455C15.0255 11.9301 15.818 12.72 15.818 13.7V14.13C15.818 16.24 14.1095 17.95 12.0001 17.95ZM9.68225 14.13C9.68225 15.41 10.7194 16.45 12.0001 16.45C13.2809 16.45 14.318 15.41 14.318 14.13V13.7C14.318 13.55 14.1959 13.4301 14.0455 13.4301H9.9552C9.92297 13.4301 9.89172 13.4356 9.86291 13.4458C9.80871 13.465 9.76232 13.5006 9.7301 13.5468C9.69982 13.5902 9.68225 13.6429 9.68225 13.7V14.13Z" fill="black"/>
<path fill-rule="evenodd" clip-rule="evenodd" d="M14.8024 2C15.2164 2 15.5524 2.34 15.5524 2.75C15.5524 4.67999 15.6539 6.05005 16.11 7.17004C16.548 8.24005 17.3473 9.15004 18.9259 10.04C19.7726 10.51 20.2882 11.43 20.2198 12.42L19.7599 19.02C19.673 20.27 18.6901 21.28 17.4298 21.38C14.5348 21.59 9.45275 21.53 6.47717 21.2C5.25939 21.0703 4.31652 20.0854 4.22814 18.86C4.22814 18.8567 4.22814 18.8533 4.22814 18.85L3.77941 12.42C3.71154 11.43 4.22668 10.51 5.07336 10.04C6.65246 9.15004 7.45178 8.24005 7.88977 7.17004C8.34582 6.05005 8.44689 4.67999 8.44689 2.75C8.44689 2.34 8.78283 2 9.19689 2C9.61145 2 9.94689 2.34 9.94689 2.75C9.94689 3.7677 9.9215 4.70953 9.81164 5.57996H12.5572H14.1876C14.0939 4.83719 14.0616 4.04245 14.0543 3.19293C14.0543 3.13068 14.0529 3.06812 14.0529 3.00528C14.0529 2.92072 14.0524 2.83563 14.0524 2.75C14.0524 2.34 14.3883 2 14.8024 2ZM14.4928 7.07996H11.6163H9.50646C9.49035 7.13339 9.47473 7.18445 9.45764 7.23724C9.43322 7.31326 9.40783 7.38864 9.38098 7.46335C9.34973 7.54895 9.31701 7.6337 9.28283 7.71762C9.28137 7.72174 9.27941 7.72586 9.27795 7.72998C8.68127 9.19998 7.60266 10.33 5.80969 11.34C5.45373 11.54 5.24865 11.9201 5.276 12.3101L5.58166 16.6935L5.58215 16.7014L5.72473 18.75C5.75891 19.25 6.14416 19.65 6.64123 19.71C9.51916 20.03 14.5094 20.09 17.3195 19.88C17.8229 19.84 18.2272 19.44 18.2633 18.92L18.7233 12.3101C18.7506 11.9201 18.546 11.54 18.1901 11.34C16.3966 10.33 15.318 9.19998 14.7213 7.72998C14.6344 7.51874 14.5587 7.30209 14.4928 7.07996Z" fill="black"/>
</svg>