<svg width="24" height="24" viewBox="0 0 24 24" fill="none" xmlns="http://www.w3.org/2000/svg">
<path fill-rule="evenodd" clip-rule="evenodd" d="M9.19745 2.25C9.61166 2.25 9.94745 2.58579 9.94745 3C9.94745 4.02073 9.92206 4.96287 9.81179 5.83402H14.1884C14.0781 4.96287 14.0527 4.02073 14.0527 3C14.0527 2.58579 14.3885 2.25 14.8027 2.25C15.2169 2.25 15.5527 2.58579 15.5527 3C15.5527 4.92619 15.6542 6.30163 16.1102 7.41758C16.5482 8.48942 17.3475 9.39672 18.9264 10.2859C19.7732 10.7628 20.2884 11.6834 20.2202 12.6677L19.76 19.2733C19.6733 20.5211 18.6905 21.5321 17.4306 21.6253C14.5355 21.8386 9.45326 21.7771 6.47783 21.4497C5.25672 21.3155 4.3128 20.3274 4.22849 19.1048L3.77996 12.6677C3.71174 11.6834 4.22699 10.7628 5.07375 10.2859C6.65266 9.39672 7.45199 8.48942 7.88995 7.41758C8.34594 6.30163 8.44745 4.92619 8.44745 3C8.44745 2.58579 8.78323 2.25 9.19745 2.25ZM8.93275 14.3819C8.93275 16.0758 10.3056 17.4497 12.0005 17.4497C13.6954 17.4497 15.0683 16.0758 15.0683 14.3819V13.9509C15.0683 13.3866 14.611 12.9283 14.0457 12.9283H9.95535C9.39005 12.9283 8.93275 13.3866 8.93275 13.9509V14.3819Z" fill="black"/>
</svg>