<svg width="25" height="25" viewBox="0 0 25 25" fill="none" xmlns="http://www.w3.org/2000/svg">
<path d="M12.5 3.11865C14.5405 3.11865 16.5204 3.81204 18.1151 5.08511C19.7098 6.35818 20.8245 8.13535 21.2764 10.1252C21.7284 12.115 21.4908 14.1993 20.6026 16.0364C19.7143 17.8734 18.2282 19.3541 16.3879 20.2355C14.5477 21.117 12.4625 21.347 10.4743 20.8877C8.48617 20.4285 6.7131 19.3072 5.4459 17.7079C4.17869 16.1086 3.49257 14.1261 3.50006 12.0856C3.50755 10.0451 4.2082 8.06776 5.48712 6.47778" stroke="black" stroke-width="1.5" stroke-linecap="round"/>
<path d="M12.5 6.61865C11.4361 6.61865 10.395 6.92722 9.50295 7.50696C8.61088 8.0867 7.9061 8.91273 7.47401 9.88494C7.04193 10.8572 6.9011 11.9338 7.06858 12.9845C7.23606 14.0351 7.70466 15.0146 8.4176 15.8043C9.13055 16.594 10.0572 17.16 11.0853 17.4336C12.1134 17.7073 13.1989 17.6768 14.21 17.3461C15.2212 17.0153 16.1147 16.3983 16.7824 15.57C17.45 14.7416 17.863 13.7374 17.9714 12.679" stroke="black" stroke-width="1.5" stroke-linecap="round"/>
<path d="M12.4998 14.1187C12.8866 14.1187 13.2652 14.0064 13.5896 13.7956C13.914 13.5848 14.1703 13.2844 14.3274 12.9309C14.4845 12.5774 14.5357 12.1859 14.4748 11.8038C14.4139 11.4218 14.2435 11.0656 13.9843 10.7784C13.725 10.4913 13.388 10.2855 13.0142 10.1859C12.6403 10.0864 12.2456 10.0975 11.8779 10.2178" stroke="black" stroke-width="1.5" stroke-linecap="round"/>
</svg>