<svg width="25" height="24" viewBox="0 0 25 24" fill="none" xmlns="http://www.w3.org/2000/svg">
<path opacity="0.4" fill-rule="evenodd" clip-rule="evenodd" d="M3.25061 11L21.2504 11L21.2504 13L3.25061 13L3.25061 11Z" fill="black"/>
<path fill-rule="evenodd" clip-rule="evenodd" d="M4.24974 13C7.92066 13 10.9098 9.78058 10.9098 6.33995L10.9098 5.33995L8.90979 5.33995L8.90979 6.33995C8.90979 8.71881 6.77377 11 4.24974 11L3.24974 11L3.24974 13L4.24974 13Z" fill="black"/>
<path fill-rule="evenodd" clip-rule="evenodd" d="M4.24974 11C7.92066 11 10.9098 14.2194 10.9098 17.66L10.9098 18.66L8.90979 18.66L8.90979 17.66C8.90979 15.2812 6.77377 13 4.24974 13L3.24974 13L3.24974 11L4.24974 11Z" fill="black"/>
</svg>