<svg width="24" height="24" viewBox="0 0 24 24" fill="none" xmlns="http://www.w3.org/2000/svg">
<path fill-rule="evenodd" clip-rule="evenodd" d="M8.97443 8.99128C9.11541 8.85023 9.30676 8.77114 9.50618 8.77149L13.7853 8.77889C14.1995 8.77961 14.5347 9.11598 14.534 9.53019C14.5333 9.9444 14.1969 10.2796 13.7827 10.2789L11.3187 10.2746L18.8202 17.7761C19.1131 18.069 19.1131 18.5439 18.8202 18.8368C18.5273 19.1297 18.0524 19.1297 17.7595 18.8368L10.2589 11.3361L10.2643 13.7969C10.2652 14.2112 9.93013 14.5477 9.51591 14.5486C9.1017 14.5495 8.76518 14.2145 8.76427 13.8002L8.75488 9.52313C8.75445 9.32371 8.83345 9.13232 8.97443 8.99128Z" fill="black"/>
<path fill-rule="evenodd" clip-rule="evenodd" d="M17.8091 6.15629C14.5877 2.93486 9.36392 2.93425 6.14189 6.15629C2.91985 9.37833 2.92046 14.6021 6.14189 17.8236C8.20084 19.8825 11.0769 20.6266 13.7285 20.0528C14.1334 19.9652 14.5326 20.2224 14.6202 20.6272C14.7078 21.0321 14.4506 21.4313 14.0457 21.5189C10.9168 22.1959 7.51566 21.3186 5.08123 18.8842C1.27409 15.0771 1.27333 8.90353 5.08123 5.09563C8.88913 1.28773 15.0627 1.28849 18.8698 5.09563C21.3042 7.53007 22.1815 10.9312 21.5045 14.0601C21.4169 14.465 21.0177 14.7222 20.6128 14.6346C20.208 14.547 19.9508 14.1478 20.0384 13.7429C20.6122 11.0913 19.8681 8.21524 17.8091 6.15629Z" fill="black"/>
</svg>