<svg width="24" height="24" viewBox="0 0 24 24" fill="none" xmlns="http://www.w3.org/2000/svg">
<path fill-rule="evenodd" clip-rule="evenodd" d="M2.25 12C2.25 11.5858 2.58579 11.25 3 11.25H21C21.4142 11.25 21.75 11.5858 21.75 12C21.75 12.4142 21.4142 12.75 21 12.75H3C2.58579 12.75 2.25 12.4142 2.25 12Z" fill="black"/>
<path fill-rule="evenodd" clip-rule="evenodd" d="M6.53033 8.46967C6.82322 8.76256 6.82322 9.23744 6.53033 9.53033L4.06066 12L6.53033 14.4697C6.82322 14.7626 6.82322 15.2374 6.53033 15.5303C6.23744 15.8232 5.76256 15.8232 5.46967 15.5303L2.46967 12.5303C2.17678 12.2374 2.17678 11.7626 2.46967 11.4697L5.46967 8.46967C5.76256 8.17678 6.23744 8.17678 6.53033 8.46967Z" fill="black"/>
<path fill-rule="evenodd" clip-rule="evenodd" d="M21 8.25C21.4142 8.25 21.75 8.58579 21.75 9V15C21.75 15.4142 21.4142 15.75 21 15.75C20.5858 15.75 20.25 15.4142 20.25 15V9C20.25 8.58579 20.5858 8.25 21 8.25Z" fill="black"/>
</svg>