<svg width="24" height="24" viewBox="0 0 24 24" fill="none" xmlns="http://www.w3.org/2000/svg">
<path fill-rule="evenodd" clip-rule="evenodd" d="M2.25 12C2.25 6.61487 6.61487 2.25 12 2.25C17.3851 2.25 21.75 6.61487 21.75 12C21.75 17.3841 17.3852 21.75 12 21.75C6.61481 21.75 2.25 17.3841 2.25 12ZM12 3.75C7.44329 3.75 3.75 7.44329 3.75 12C3.75 16.5558 7.44335 20.25 12 20.25C16.5567 20.25 20.25 16.5558 20.25 12C20.25 7.44329 16.5567 3.75 12 3.75Z" fill="black"/>
<path fill-rule="evenodd" clip-rule="evenodd" d="M12.0592 8.34288C12.2983 8.47486 12.4468 8.72639 12.4468 8.99951V11.2492L17.066 11.2492C17.4802 11.2492 17.816 11.585 17.816 11.9992C17.816 12.4134 17.4802 12.7492 17.066 12.7492L12.4468 12.7492V14.9995C12.4468 15.2726 12.2983 15.5242 12.0592 15.6561C11.8201 15.7881 11.5281 15.7797 11.297 15.6341L6.53481 12.6341C6.31682 12.4968 6.18457 12.2572 6.18457 11.9995C6.18457 11.7419 6.31682 11.5023 6.53481 11.3649L11.297 8.36493C11.5281 8.21935 11.8201 8.21091 12.0592 8.34288ZM10.9468 11.9649C10.9463 11.9762 10.946 11.9877 10.946 11.9992C10.946 12.0107 10.9463 12.0222 10.9468 12.0335V13.6406L8.34166 11.9995L10.9468 10.3584V11.9649Z" fill="black"/>
</svg>