<svg width="24" height="24" viewBox="0 0 24 24" fill="none" xmlns="http://www.w3.org/2000/svg">
<path fill-rule="evenodd" clip-rule="evenodd" d="M2.25 12C2.25 11.5858 2.58579 11.25 3 11.25H16C16.4142 11.25 16.75 11.5858 16.75 12C16.75 12.4142 16.4142 12.75 16 12.75H3C2.58579 12.75 2.25 12.4142 2.25 12Z" fill="black"/>
<path fill-rule="evenodd" clip-rule="evenodd" d="M6.53033 8.46967C6.82322 8.76256 6.82322 9.23744 6.53033 9.53033L4.06066 12L6.53033 14.4697C6.82322 14.7626 6.82322 15.2374 6.53033 15.5303C6.23744 15.8232 5.76256 15.8232 5.46967 15.5303L2.46967 12.5303C2.17678 12.2374 2.17678 11.7626 2.46967 11.4697L5.46967 8.46967C5.76256 8.17678 6.23744 8.17678 6.53033 8.46967Z" fill="black"/>
<path fill-rule="evenodd" clip-rule="evenodd" d="M17 10.25C16.8619 10.25 16.75 10.3619 16.75 10.5V13.5C16.75 13.6381 16.8619 13.75 17 13.75H20C20.1381 13.75 20.25 13.6381 20.25 13.5V10.5C20.25 10.3619 20.1381 10.25 20 10.25H17ZM15.25 10.5C15.25 9.5335 16.0335 8.75 17 8.75H20C20.9665 8.75 21.75 9.5335 21.75 10.5V13.5C21.75 14.4665 20.9665 15.25 20 15.25H17C16.0335 15.25 15.25 14.4665 15.25 13.5V10.5Z" fill="black"/>
</svg>