<svg width="24" height="24" viewBox="0 0 24 24" fill="none" xmlns="http://www.w3.org/2000/svg">
<path fill-rule="evenodd" clip-rule="evenodd" d="M18.0303 2.46967C17.7374 2.17678 17.2626 2.17678 16.9697 2.46967L13.4697 5.96967C13.1768 6.26256 13.1768 6.73744 13.4697 7.03033C13.7626 7.32322 14.2374 7.32322 14.5303 7.03033L16.75 4.81066V11.707C16.75 12.1212 17.0858 12.457 17.5 12.457C17.9142 12.457 18.25 12.1212 18.25 11.707V4.81066L20.4697 7.03033C20.7626 7.32322 21.2374 7.32322 21.5303 7.03033C21.8232 6.73744 21.8232 6.26256 21.5303 5.96967L18.0303 2.46967Z" fill="black"/>
<path fill-rule="evenodd" clip-rule="evenodd" d="M7.03033 5.96967C6.73744 5.67678 6.26256 5.67678 5.96967 5.96967L2.46967 9.46967C2.17678 9.76256 2.17678 10.2374 2.46967 10.5303L5.96967 14.0303C6.26256 14.3232 6.73744 14.3232 7.03033 14.0303C7.32322 13.7374 7.32322 13.2626 7.03033 12.9697L4.06066 10L7.03033 7.03033C7.32322 6.73744 7.32322 6.26256 7.03033 5.96967Z" fill="black"/>
<path fill-rule="evenodd" clip-rule="evenodd" d="M6 10.75C11.6609 10.75 16.25 15.3391 16.25 21C16.25 21.4142 16.5858 21.75 17 21.75C17.4142 21.75 17.75 21.4142 17.75 21C17.75 14.5107 12.4893 9.25 6 9.25H3C2.58579 9.25 2.25 9.58579 2.25 10C2.25 10.4142 2.58579 10.75 3 10.75H6Z" fill="black"/>
</svg>