<svg width="25" height="24" viewBox="0 0 25 24" fill="none" xmlns="http://www.w3.org/2000/svg">
<path fill-rule="evenodd" clip-rule="evenodd" d="M13.0619 6.91145C12.5259 7.44645 12.3409 9.25845 12.2909 11.0034L12.2849 13.0034C12.3379 15.2404 12.5979 16.6104 13.0619 17.0744C13.6259 17.6374 14.5659 17.3484 15.3219 17.0344C16.8909 16.3834 21.4269 13.6374 21.4269 11.9924C21.4269 10.2974 16.6889 7.56045 15.2499 6.96345C14.4679 6.63845 13.5969 6.37845 13.0619 6.91145Z" fill="black"/>
<path opacity="0.4" fill-rule="evenodd" clip-rule="evenodd" d="M12.29 11.0037L4.073 11.0037C3.52 11.0037 3.073 11.4507 3.073 12.0037C3.073 12.5567 3.52 13.0037 4.073 13.0037L12.284 13.0037L12.29 11.0037Z" fill="black"/>
</svg>