<svg width="24" height="24" viewBox="0 0 24 24" fill="none" xmlns="http://www.w3.org/2000/svg">
<path fill-rule="evenodd" clip-rule="evenodd" d="M2.25 12C2.25 6.61487 6.61487 2.25 12 2.25C17.3851 2.25 21.75 6.61487 21.75 12C21.75 17.3841 17.3852 21.75 12 21.75C6.61481 21.75 2.25 17.3841 2.25 12ZM12 3.75C7.44329 3.75 3.75 7.44329 3.75 12C3.75 16.5558 7.44335 20.25 12 20.25C16.5567 20.25 20.25 16.5558 20.25 12C20.25 7.44329 16.5567 3.75 12 3.75Z" fill="black"/>
<path fill-rule="evenodd" clip-rule="evenodd" d="M12.0001 12.4724C12.4144 12.4724 12.7501 12.8082 12.7501 13.2224L12.7501 15.6895L13.9142 14.5254C14.2071 14.2325 14.682 14.2325 14.9749 14.5254C15.2678 14.8183 15.2678 15.2932 14.9749 15.5861L12.5304 18.0305C12.2375 18.3234 11.7627 18.3234 11.4698 18.0305L9.02533 15.5861C8.73244 15.2932 8.73244 14.8183 9.02533 14.5254C9.31823 14.2325 9.7931 14.2325 10.086 14.5254L11.2501 15.6895L11.2501 13.2224C11.2501 12.8082 11.5859 12.4724 12.0001 12.4724Z" fill="black"/>
<path fill-rule="evenodd" clip-rule="evenodd" d="M12.0001 5.74988C12.199 5.74988 12.3898 5.8289 12.5304 5.96955L14.9749 8.41399C15.2678 8.70688 15.2678 9.18176 14.9749 9.47465C14.682 9.76755 14.2071 9.76755 13.9142 9.47465L12.7501 8.31055L12.7501 10.7778C12.7501 11.192 12.4144 11.5278 12.0001 11.5278C11.5859 11.5278 11.2501 11.192 11.2501 10.7778L11.2501 8.31052L10.086 9.47465C9.7931 9.76755 9.31823 9.76755 9.02533 9.47465C8.73244 9.18176 8.73244 8.70689 9.02533 8.41399L11.4698 5.96955C11.6104 5.8289 11.8012 5.74988 12.0001 5.74988Z" fill="black"/>
</svg>