<svg width="24" height="24" viewBox="0 0 24 24" fill="none" xmlns="http://www.w3.org/2000/svg">
<path fill-rule="evenodd" clip-rule="evenodd" d="M12 21.75C11.5858 21.75 11.25 21.4142 11.25 21L11.25 8C11.25 7.58579 11.5858 7.25 12 7.25C12.4142 7.25 12.75 7.58579 12.75 8L12.75 21C12.75 21.4142 12.4142 21.75 12 21.75Z" fill="black"/>
<path fill-rule="evenodd" clip-rule="evenodd" d="M8.46967 17.4697C8.76256 17.1768 9.23744 17.1768 9.53033 17.4697L12 19.9393L14.4697 17.4697C14.7626 17.1768 15.2374 17.1768 15.5303 17.4697C15.8232 17.7626 15.8232 18.2374 15.5303 18.5303L12.5303 21.5303C12.2374 21.8232 11.7626 21.8232 11.4697 21.5303L8.46967 18.5303C8.17678 18.2374 8.17678 17.7626 8.46967 17.4697Z" fill="black"/>
<path fill-rule="evenodd" clip-rule="evenodd" d="M10.25 5.5C10.25 6.4665 11.0335 7.25 12 7.25C12.9665 7.25 13.75 6.4665 13.75 5.5C13.75 4.5335 12.9665 3.75 12 3.75C11.0335 3.75 10.25 4.5335 10.25 5.5ZM12 8.75C10.2051 8.75 8.75 7.29493 8.75 5.5C8.75 3.70507 10.2051 2.25 12 2.25C13.7949 2.25 15.25 3.70507 15.25 5.5C15.25 7.29493 13.7949 8.75 12 8.75Z" fill="black"/>
</svg>