<svg width="24" height="24" viewBox="0 0 24 24" fill="none" xmlns="http://www.w3.org/2000/svg">
<path fill-rule="evenodd" clip-rule="evenodd" d="M11.4802 19.5308C11.7705 19.81 12.2295 19.81 12.5198 19.5308C13.5063 18.5823 14.4739 17.6081 15.4342 16.6413C15.8004 16.2726 16.1656 15.905 16.5303 15.5402C16.8232 15.2473 16.8232 14.7725 16.5303 14.4796C16.2374 14.1867 15.7626 14.1867 15.4697 14.4796C15.097 14.8522 14.7271 15.2246 14.3583 15.596C13.8218 16.136 13.2876 16.6739 12.75 17.2074L12.75 8.0099C12.75 6.76726 13.7574 5.7599 15 5.7599L16 5.7599C16.4142 5.7599 16.75 5.42411 16.75 5.0099C16.75 4.59569 16.4142 4.2599 16 4.2599L15 4.2599C12.9289 4.2599 11.25 5.93883 11.25 8.0099L11.25 17.2074C10.7124 16.6739 10.1782 16.136 9.64172 15.596C9.27287 15.2246 8.903 14.8522 8.53033 14.4796C8.23744 14.1867 7.76256 14.1867 7.46967 14.4796C7.17678 14.7725 7.17678 15.2473 7.46967 15.5402C7.83442 15.905 8.19958 16.2726 8.56581 16.6413C9.52609 17.6081 10.4937 18.5823 11.4802 19.5308Z" fill="black"/>
</svg>