<svg width="25" height="24" viewBox="0 0 25 24" fill="none" xmlns="http://www.w3.org/2000/svg">
<path opacity="0.4" fill-rule="evenodd" clip-rule="evenodd" d="M12.2498 3.5C12.802 3.5 13.2498 3.94772 13.2498 4.5V19.5C13.2498 20.0523 12.802 20.5 12.2498 20.5C11.6975 20.5 11.2498 20.0523 11.2498 19.5V4.5C11.2498 3.94772 11.6975 3.5 12.2498 3.5Z" fill="black"/>
<path d="M19.1548 13.9244C19.4168 13.4382 19.2352 12.8317 18.749 12.5696C18.4197 12.3921 18.0352 12.4183 17.7398 12.6048C17.5992 12.6935 17.4788 12.8187 17.3943 12.9754L17.3932 12.9773L17.3875 12.9878L17.3626 13.0331C17.34 13.0738 17.3058 13.1349 17.2608 13.2136C17.1709 13.371 17.0382 13.598 16.8701 13.8713C16.5327 14.4197 16.0584 15.1455 15.5054 15.8662C14.9479 16.5928 14.335 17.2819 13.7251 17.7802C13.0915 18.298 12.5949 18.4999 12.2515 18.4999C11.9075 18.4999 11.4103 18.2977 10.7765 17.7801C10.1662 17.2817 9.55304 16.5926 8.99528 15.866C8.44208 15.1453 7.96756 14.4196 7.63009 13.8712C7.46195 13.5979 7.32921 13.3709 7.2392 13.2135C7.19397 13.1344 7.14899 13.0551 7.10557 12.975C6.84337 12.4891 6.23697 12.3076 5.75095 12.5697C5.26482 12.8318 5.08322 13.4384 5.34533 13.9245C5.39644 14.0192 5.44957 14.1128 5.503 14.2062C5.60217 14.3797 5.74587 14.6253 5.92673 14.9193C6.28726 15.5052 6.80099 16.292 7.40879 17.0838C8.01203 17.8697 8.73258 18.6931 9.51137 19.3291C10.2665 19.9458 11.2136 20.4999 12.2515 20.4999C13.2892 20.4999 14.2359 19.9456 14.9906 19.3289C15.769 18.6929 16.4892 17.8695 17.0922 17.0836C17.6997 16.2918 18.2132 15.5051 18.5736 14.9191C18.7544 14.6252 18.8981 14.3796 18.9972 14.2061C19.0468 14.1194 19.0853 14.0505 19.1119 14.0026L19.1427 13.9467L19.1511 13.9312L19.1535 13.9267L19.1548 13.9244Z" fill="black"/>
</svg>