<svg width="24" height="24" viewBox="0 0 24 24" fill="none" xmlns="http://www.w3.org/2000/svg">
<path fill-rule="evenodd" clip-rule="evenodd" d="M15.8639 9.2475C16.1568 9.5404 16.1568 10.0153 15.8639 10.3082L14.922 11.2501L17.0002 11.2501C17.4145 11.2501 17.7502 11.5859 17.7502 12.0001C17.7502 12.4143 17.4144 12.7501 17.0002 12.7501L14.922 12.7501L15.8639 13.692C16.1568 13.9849 16.1568 14.4597 15.8639 14.7526C15.571 15.0455 15.0961 15.0455 14.8032 14.7526L12.581 12.5304C12.2881 12.2375 12.2881 11.7626 12.581 11.4697L14.8032 9.2475C15.0961 8.95461 15.571 8.95461 15.8639 9.2475Z" fill="black"/>
<path fill-rule="evenodd" clip-rule="evenodd" d="M8.13647 9.2475C8.42937 8.95461 8.90424 8.95461 9.19713 9.2475L11.4194 11.4697C11.56 11.6104 11.639 11.8012 11.639 12.0001C11.639 12.199 11.56 12.3897 11.4194 12.5304L9.19713 14.7526C8.90424 15.0455 8.42937 15.0455 8.13647 14.7526C7.84358 14.4597 7.84358 13.9849 8.13647 13.692L9.07836 12.7501L7.00001 12.7501C6.58579 12.7501 6.25 12.4143 6.25 12.0001C6.25 11.5859 6.58578 11.2501 6.99999 11.2501L9.07839 11.2501L8.13647 10.3082C7.84358 10.0153 7.84358 9.5404 8.13647 9.2475Z" fill="black"/>
<path fill-rule="evenodd" clip-rule="evenodd" d="M2.25 12C2.25 6.61487 6.61487 2.25 12 2.25C17.3851 2.25 21.75 6.61487 21.75 12C21.75 17.3841 17.3852 21.75 12 21.75C6.61481 21.75 2.25 17.3841 2.25 12ZM12 3.75C7.44329 3.75 3.75 7.44329 3.75 12C3.75 16.5558 7.44335 20.25 12 20.25C16.5567 20.25 20.25 16.5558 20.25 12C20.25 7.44329 16.5567 3.75 12 3.75Z" fill="black"/>
</svg>