<?xml version="1.0" encoding="UTF-8"?>
<svg width="24px" height="24px" viewBox="0 0 24 24" version="1.1" xmlns="http://www.w3.org/2000/svg" xmlns:xlink="http://www.w3.org/1999/xlink">
    <title>Iconly/Light-Outline/Arrow - Down Square</title>
    <g id="Iconly/Light-Outline/Arrow---Down-Square" stroke="none" stroke-width="1" fill="none" fill-rule="evenodd">
        <g id="Arrow---Down-Square" transform="translate(2.000000, 2.000000)" fill="#000000">
            <path d="M14.335,0 C17.724,0 20,2.378 20,5.916 L20,14.084 C20,17.622 17.724,20 14.335,20 L5.666,20 C2.277,20 0,17.622 0,14.084 L0,5.916 C0,2.378 2.277,0 5.666,0 L14.335,0 Z M14.335,1.5 L5.666,1.5 C3.136,1.5 1.5,3.233 1.5,5.916 L1.5,14.084 C1.5,16.767 3.136,18.5 5.666,18.5 L14.335,18.5 C16.865,18.5 18.5,16.767 18.5,14.084 L18.5,5.916 C18.5,3.233 16.865,1.5 14.335,1.5 Z M10,5.1639 C10.414,5.1639 10.75,5.4999 10.75,5.9139 L10.75,12.27 L13.217,9.7929 C13.51,9.4979 13.984,9.4999 14.277,9.7909 C14.57,10.0829 14.572,10.5579 14.279,10.8519 L10.531,14.6159 C10.5064938,14.6399063 10.4811527,14.6620777 10.4543996,14.6824914 L10.531,14.6159 C10.4916337,14.6558287 10.4481559,14.6907762 10.401567,14.7203868 C10.3902046,14.7265489 10.3791194,14.733189 10.3678537,14.7395463 C10.3465158,14.7526369 10.3238276,14.7639646 10.3006272,14.7741101 C10.2941046,14.776001 10.2881003,14.7785344 10.2820568,14.7809913 C10.2588307,14.7913744 10.234565,14.799811 10.2099008,14.806989 C10.1946044,14.8105423 10.1793903,14.8144533 10.1639983,14.8178909 C10.1452229,14.8229856 10.1263389,14.8264555 10.1073104,14.8292005 C10.0919981,14.8304775 10.0760087,14.8322649 10.0598761,14.8335411 C10.03973,14.83611 10.0199,14.8369 10,14.8369 L9.941,14.832 L9.89827431,14.8290493 C9.89623753,14.8287727 9.89420334,14.828488 9.89217178,14.8281951 L10,14.8369 C9.94448947,14.8369 9.88952363,14.8307529 9.83607921,14.8188059 C9.82060967,14.8144533 9.80539563,14.8105423 9.79037569,14.8061738 C9.76543502,14.799811 9.7411693,14.7913744 9.71740339,14.7817151 C9.71189968,14.7785344 9.70589538,14.776001 9.69993147,14.7733922 C9.67617244,14.7639646 9.65348415,14.7526369 9.63140538,14.7401616 C9.6208806,14.733189 9.60979541,14.7265489 9.59890038,14.7196356 C9.580141,14.7087609 9.56232863,14.6963124 9.54505638,14.6830626 C9.51601633,14.6599175 9.48815887,14.6351942 9.46226178,14.6085553 L5.721,10.8519 C5.428,10.5579 5.43,10.0829 5.723,9.7909 C6.017,9.4999 6.491,9.4979 6.783,9.7929 L9.25,12.27 L9.25,5.9139 C9.25,5.4999 9.586,5.1639 10,5.1639 Z" id="Combined-Shape"></path>
        </g>
    </g>
</svg>