<svg width="24" height="24" viewBox="0 0 24 24" fill="none" xmlns="http://www.w3.org/2000/svg">
<path fill-rule="evenodd" clip-rule="evenodd" d="M7.91401 8.08589C8.2069 8.37878 8.68177 8.37878 8.97467 8.08589L11.9999 5.06066L15.0251 8.08589C15.318 8.37878 15.7929 8.37878 16.0858 8.08589C16.3787 7.79299 16.3787 7.31812 16.0858 7.02522L12.5302 3.46967C12.2373 3.17678 11.7625 3.17678 11.4696 3.46967L7.91401 7.02523C7.62111 7.31812 7.62111 7.79299 7.91401 8.08589Z" fill="black"/>
<path fill-rule="evenodd" clip-rule="evenodd" d="M7.91401 15.9141C8.2069 15.6212 8.68177 15.6212 8.97467 15.9141L11.9999 18.9393L15.0251 15.9141C15.318 15.6212 15.7929 15.6212 16.0858 15.9141C16.3787 16.207 16.3787 16.6819 16.0858 16.9748L12.5302 20.5303C12.2373 20.8232 11.7625 20.8232 11.4696 20.5303L7.91401 16.9748C7.62111 16.6819 7.62111 16.207 7.91401 15.9141Z" fill="black"/>
<path fill-rule="evenodd" clip-rule="evenodd" d="M12.75 4.00024L12.75 19.9427C12.75 20.357 12.4142 20.6927 12 20.6927C11.5858 20.6927 11.25 20.357 11.25 19.9427L11.25 4.00024C11.25 3.58603 11.5858 3.25025 12 3.25024C12.4142 3.25024 12.75 3.58603 12.75 4.00024Z" fill="black"/>
</svg>