<svg width="24" height="24" viewBox="0 0 24 24" fill="none" xmlns="http://www.w3.org/2000/svg">
<path fill-rule="evenodd" clip-rule="evenodd" d="M17.4697 8.46967C17.7626 8.17678 18.2374 8.17678 18.5303 8.46967L21.5303 11.4697C21.8232 11.7626 21.8232 12.2374 21.5303 12.5303L18.5303 15.5303C18.2374 15.8232 17.7626 15.8232 17.4697 15.5303C17.1768 15.2374 17.1768 14.7626 17.4697 14.4697L19.9393 12L17.4697 9.53033C17.1768 9.23744 17.1768 8.76256 17.4697 8.46967Z" fill="black"/>
<path fill-rule="evenodd" clip-rule="evenodd" d="M2.25 12C2.25 11.5858 2.58579 11.25 3 11.25H21C21.4142 11.25 21.75 11.5858 21.75 12C21.75 12.4142 21.4142 12.75 21 12.75H3C2.58579 12.75 2.25 12.4142 2.25 12Z" fill="black"/>
<path fill-rule="evenodd" clip-rule="evenodd" d="M3 8.25C3.41421 8.25 3.75 8.58579 3.75 9V15C3.75 15.4142 3.41421 15.75 3 15.75C2.58579 15.75 2.25 15.4142 2.25 15V9C2.25 8.58579 2.58579 8.25 3 8.25Z" fill="black"/>
</svg>