<svg width="25" height="24" viewBox="0 0 25 24" fill="none" xmlns="http://www.w3.org/2000/svg">
<path fill-rule="evenodd" clip-rule="evenodd" d="M13.1631 13.6778C12.2721 13.0258 12.0791 11.7738 12.7321 10.8828C13.3841 9.99083 14.6361 9.79983 15.5271 10.4508L18.5504 12.6653C18.6804 12.7605 18.8609 12.7341 18.9773 12.6227C19.2229 12.3879 19.5289 12.211 19.8841 12.1268C20.2511 12.042 20.6158 12.067 20.9491 12.1765C21.1236 12.2339 21.3247 12.1566 21.3776 11.9807C21.8382 10.4473 21.8453 8.8039 21.2351 7.29883C20.5931 5.71383 19.3541 4.55783 17.7481 4.04183C16.8771 3.76083 15.9271 3.69283 15.0051 3.84783C14.1661 3.98883 13.4111 4.48383 12.7741 4.94883C12.1611 4.50283 11.3871 3.99883 10.5451 3.85683C9.63314 3.70183 8.68614 3.76783 7.80214 4.04283C7.72255 4.06869 7.6444 4.09621 7.56753 4.12515C7.36115 4.20286 7.33353 4.4751 7.51114 4.60583C8.40214 5.25883 8.59414 6.51083 7.94014 7.40183C7.54914 7.93483 6.94214 8.21783 6.32714 8.21783C5.91514 8.21783 5.50114 8.09183 5.14514 7.82983L4.65806 7.47264C4.50128 7.35767 4.27804 7.41996 4.21435 7.60365C3.71989 9.0298 3.72021 10.6455 4.18314 12.0868C5.71114 16.9898 12.2841 20.1048 12.5631 20.2348C12.6301 20.2658 12.7031 20.2818 12.7751 20.2818C12.8471 20.2818 12.9191 20.2658 12.9861 20.2348C13.1105 20.1765 14.5013 19.5146 16.1373 18.3558C16.2652 18.2653 16.2974 18.0917 16.2333 17.9488C16.1419 17.7454 16.0824 17.5246 16.0661 17.2888C16.0429 16.9344 16.1164 16.5987 16.2607 16.3007C16.3306 16.1562 16.3011 15.9771 16.1716 15.8822L13.1631 13.6778Z" fill="black"/>
<path fill-rule="evenodd" clip-rule="evenodd" d="M6.32772 6.968C6.55772 6.968 6.78572 6.862 6.93272 6.661C7.17772 6.327 7.10572 5.859 6.77172 5.614L4.38772 3.864C4.05372 3.617 3.58372 3.691 3.33872 4.025C3.09372 4.359 3.16572 4.827 3.49972 5.072L5.88472 6.822C6.01772 6.921 6.17372 6.968 6.32772 6.968Z" fill="black"/>
<path fill-rule="evenodd" clip-rule="evenodd" d="M21.7502 16.8109C21.7492 16.8069 21.7512 16.8039 21.7502 16.7999L21.1312 14.1699C21.0642 13.8849 20.8392 13.6659 20.5532 13.6069C20.2682 13.5449 19.9722 13.6609 19.7992 13.8949L19.2062 14.6959L14.7882 11.4599C14.4532 11.2139 13.9852 11.2879 13.7402 11.6219C13.4952 11.9559 13.5682 12.4249 13.9022 12.6699L18.3132 15.9019L17.7162 16.7089C17.5412 16.9439 17.5202 17.2579 17.6602 17.5149C17.7922 17.7559 18.0452 17.9049 18.3182 17.9049C18.3352 17.9049 18.3522 17.9039 18.3692 17.9029L21.0712 17.7199C21.2902 17.7059 21.4922 17.5949 21.6232 17.4179C21.7082 17.3029 21.7432 17.1679 21.7532 17.0289C21.7602 16.9549 21.7642 16.8829 21.7502 16.8109Z" fill="black"/>
</svg>