<svg width="24" height="24" viewBox="0 0 24 24" fill="none" xmlns="http://www.w3.org/2000/svg">
<path fill-rule="evenodd" clip-rule="evenodd" d="M18.895 5.10541C19.1879 5.39831 19.1879 5.87318 18.895 6.16607L7.44738 17.6137L12.7078 17.6136C13.122 17.6136 13.4578 17.9494 13.4578 18.3636C13.4578 18.7779 13.122 19.1136 12.7078 19.1136L5.63672 19.1137C5.43781 19.1137 5.24704 19.0346 5.10639 18.894C4.96574 18.7533 4.88672 18.5626 4.88672 18.3637V11.2926C4.88672 10.8784 5.22251 10.5426 5.63672 10.5426C6.05093 10.5426 6.38672 10.8784 6.38672 11.2926V16.553L17.8343 5.10541C18.1272 4.81252 18.6021 4.81252 18.895 5.10541Z" fill="black"/>
</svg>