<svg width="24" height="24" viewBox="0 0 24 24" fill="none" xmlns="http://www.w3.org/2000/svg">
<path fill-rule="evenodd" clip-rule="evenodd" d="M12.0001 5.74988C12.4144 5.74988 12.7501 6.08567 12.7501 6.49988L12.7501 8.96712L13.9142 7.80302C14.2071 7.51013 14.682 7.51013 14.9749 7.80302C15.2678 8.09591 15.2678 8.57079 14.9749 8.86368L12.5304 11.3081C12.3898 11.4488 12.199 11.5278 12.0001 11.5278C11.8012 11.5278 11.6104 11.4488 11.4698 11.3081L9.02533 8.86368C8.73244 8.57079 8.73244 8.09591 9.02533 7.80302C9.31823 7.51013 9.7931 7.51013 10.086 7.80302L11.2501 8.96715L11.2501 6.49987C11.2501 6.08566 11.5859 5.74987 12.0001 5.74988ZM11.2501 15.0329L10.086 16.197C9.7931 16.4899 9.31823 16.4899 9.02533 16.197C8.73244 15.9041 8.73244 15.4293 9.02533 15.1364L11.4698 12.6919C11.7627 12.399 12.2375 12.399 12.5304 12.6919L14.9749 15.1364C15.2678 15.4292 15.2678 15.9041 14.9749 16.197C14.682 16.4899 14.2071 16.4899 13.9142 16.197L12.7501 15.0329L12.7501 17.5C12.7501 17.9142 12.4144 18.25 12.0001 18.25C11.5859 18.25 11.2501 17.9142 11.2501 17.5L11.2501 15.0329Z" fill="black"/>
<path fill-rule="evenodd" clip-rule="evenodd" d="M2.25 12C2.25 6.61487 6.61487 2.25 12 2.25C17.3851 2.25 21.75 6.61487 21.75 12C21.75 17.3841 17.3852 21.75 12 21.75C6.61481 21.75 2.25 17.3841 2.25 12ZM12 3.75C7.44329 3.75 3.75 7.44329 3.75 12C3.75 16.5558 7.44335 20.25 12 20.25C16.5567 20.25 20.25 16.5558 20.25 12C20.25 7.44329 16.5567 3.75 12 3.75Z" fill="black"/>
</svg>