<svg width="25" height="24" viewBox="0 0 25 24" fill="none" xmlns="http://www.w3.org/2000/svg">
<path opacity="0.4" d="M12.2502 7.50004C15.5164 7.50004 19.3713 13.7398 20.1101 14.9908C20.2522 15.2305 20.2825 15.5049 20.217 15.7539C20.1526 15.9996 19.9949 16.2207 19.759 16.3599C19.2864 16.6431 18.6711 16.483 18.3904 16.0088C16.8372 13.3838 13.8123 9.50004 12.2502 9.50004V7.50004Z" fill="black"/>
<path d="M12.2501 9.5C12.2501 9.5 12.2502 9.5 12.2501 9.5C10.6901 9.5 7.66514 13.384 6.11014 16.009C5.83014 16.483 5.21714 16.643 4.74114 16.36C4.26614 16.079 4.10814 15.466 4.39014 14.991C5.12914 13.74 8.98414 7.5 12.2501 7.5C12.2502 7.5 12.2501 7.5 12.2501 7.5V9.5Z" fill="black"/>
</svg>