<svg width="24" height="24" viewBox="0 0 24 24" fill="none" xmlns="http://www.w3.org/2000/svg">
<path fill-rule="evenodd" clip-rule="evenodd" d="M5.81147 5.81324C6.10436 5.52034 6.57923 5.52034 6.87213 5.81324L12.3376 11.2787L15.1577 8.45855C15.3508 8.26543 15.6337 8.19255 15.8961 8.26832C16.1585 8.34408 16.359 8.5565 16.4194 8.82284L18.3871 17.4902C18.4442 17.7414 18.3683 18.0044 18.1861 18.1866C18.0039 18.3687 17.7409 18.4446 17.4897 18.3876L8.82236 16.4199C8.55602 16.3595 8.3436 16.159 8.26784 15.8966C8.19207 15.6342 8.26495 15.3513 8.45807 15.1582L11.2769 12.3394L5.81147 6.8739C5.51857 6.581 5.51857 6.10613 5.81147 5.81324ZM12.8471 12.8905L10.4796 15.258L16.6608 16.6613L15.2575 10.4801L12.8887 12.8489C12.8821 12.856 12.8753 12.8631 12.8683 12.8701C12.8613 12.8771 12.8543 12.8839 12.8471 12.8905Z" fill="black"/>
</svg>