<?xml version="1.0" encoding="UTF-8"?>
<svg width="24px" height="24px" viewBox="0 0 24 24" version="1.1" xmlns="http://www.w3.org/2000/svg" xmlns:xlink="http://www.w3.org/1999/xlink">
    <title>Iconly/Light-Outline/Arrow - Right 3</title>
    <g id="Iconly/Light-Outline/Arrow---Right-3" stroke="none" stroke-width="1" fill="none" fill-rule="evenodd">
        <g id="Arrow---Right-3" transform="translate(3.000000, 7.000000)" fill="#000000">
            <path d="M10.0992,0.1148 L18.0372,5.1158 C18.2562,5.2538 18.3872,5.4928 18.3872,5.7508 C18.3872,6.0078 18.2562,6.2478 18.0372,6.3848 L10.0992,11.3858 C9.9782,11.4628 9.8392,11.5018 9.7002,11.5018 C9.5752,11.5018 9.4512,11.4698 9.3382,11.4078 C9.0982,11.2758 8.9502,11.0248 8.9502,10.7518 L8.9492,6.49999433 L0.7502,6.5004 C0.3362,6.5004 0.0002,6.1644 0.0002,5.7504 C0.0002,5.3364 0.3362,5.0004 0.7502,5.0004 L8.9492,4.99999433 L8.9502,0.7498 C8.9502,0.4758 9.0982,0.2248 9.3382,0.0928 C9.5772,-0.0382 9.8702,-0.0302 10.0992,0.1148 Z M10.4502,2.1088 L10.4500491,5.73521503 C10.4501495,5.74026466 10.4502,5.74532647 10.4502,5.7504 L10.4492,5.76499433 L10.4502,9.3918 L16.2302,5.7508 L10.4502,2.1088 Z" id="Combined-Shape"></path>
        </g>
    </g>
</svg>