<svg width="24" height="24" viewBox="0 0 24 24" fill="none" xmlns="http://www.w3.org/2000/svg">
<path fill-rule="evenodd" clip-rule="evenodd" d="M5.5 11.75C5.08579 11.75 4.75 12.0858 4.75 12.5V18.5C4.75 18.9142 5.08579 19.25 5.5 19.25H11.5C11.9142 19.25 12.25 18.9142 12.25 18.5C12.25 18.0858 11.9142 17.75 11.5 17.75H6.25V12.5C6.25 12.0858 5.91421 11.75 5.5 11.75Z" fill="black"/>
<path fill-rule="evenodd" clip-rule="evenodd" d="M19.25 5.5C19.25 5.08579 18.9142 4.75 18.5 4.75L12.5 4.75C12.0858 4.75 11.75 5.08579 11.75 5.5C11.75 5.91421 12.0858 6.25 12.5 6.25L17.75 6.25L17.75 11.5C17.75 11.9142 18.0858 12.25 18.5 12.25C18.9142 12.25 19.25 11.9142 19.25 11.5L19.25 5.5Z" fill="black"/>
<path fill-rule="evenodd" clip-rule="evenodd" d="M19.0303 4.96967C18.7374 4.67678 18.2626 4.67678 17.9697 4.96967L4.96967 17.9697C4.67678 18.2626 4.67678 18.7374 4.96967 19.0303C5.26256 19.3232 5.73744 19.3232 6.03033 19.0303L19.0303 6.03033C19.3232 5.73744 19.3232 5.26256 19.0303 4.96967Z" fill="black"/>
</svg>