<svg width="24" height="24" viewBox="0 0 24 24" fill="none" xmlns="http://www.w3.org/2000/svg">
<path fill-rule="evenodd" clip-rule="evenodd" d="M18.5 11.75C18.9142 11.75 19.25 12.0858 19.25 12.5V18.5C19.25 18.9142 18.9142 19.25 18.5 19.25H12.5C12.0858 19.25 11.75 18.9142 11.75 18.5C11.75 18.0858 12.0858 17.75 12.5 17.75H17.75V12.5C17.75 12.0858 18.0858 11.75 18.5 11.75Z" fill="black"/>
<path fill-rule="evenodd" clip-rule="evenodd" d="M4.75 5.5C4.75 5.08579 5.08579 4.75 5.5 4.75L11.5 4.75C11.9142 4.75 12.25 5.08579 12.25 5.5C12.25 5.91421 11.9142 6.25 11.5 6.25L6.25 6.25L6.25 11.5C6.25 11.9142 5.91421 12.25 5.5 12.25C5.08579 12.25 4.75 11.9142 4.75 11.5L4.75 5.5Z" fill="black"/>
<path fill-rule="evenodd" clip-rule="evenodd" d="M4.96967 4.96967C5.26256 4.67678 5.73744 4.67678 6.03033 4.96967L19.0303 17.9697C19.3232 18.2626 19.3232 18.7374 19.0303 19.0303C18.7374 19.3232 18.2626 19.3232 17.9697 19.0303L4.96967 6.03033C4.67678 5.73744 4.67678 5.26256 4.96967 4.96967Z" fill="black"/>
</svg>