<svg width="24" height="24" viewBox="0 0 24 24" fill="none" xmlns="http://www.w3.org/2000/svg">
<path d="M11.2963 20.684L11.8568 20.1857L11.2963 20.684ZM5.16426 13.7854L4.6037 14.2837H4.6037L5.16426 13.7854ZM5.51612 13.0019V12.2519V13.0019ZM9.17541 13.0019V13.7519C9.37433 13.7519 9.56509 13.6728 9.70575 13.5322C9.8464 13.3915 9.92541 13.2008 9.92541 13.0018L9.17541 13.0019ZM9.17534 7.39319H8.42534V7.3932L9.17534 7.39319ZM10.1169 6.45166V5.70166V6.45166ZM13.883 6.45166V7.20166V6.45166ZM14.8245 7.39319H14.0745V7.3932L14.8245 7.39319ZM14.8245 13.0019L14.0745 13.0019C14.0745 13.4161 14.4103 13.7519 14.8245 13.7519V13.0019ZM18.4838 13.0019V13.7519V13.0019ZM18.8357 13.7854L18.2751 13.2871L18.2751 13.2871L18.8357 13.7854ZM12.7037 20.684L13.2642 21.1822L12.7037 20.684ZM11.8568 20.1857L5.72482 13.2871L4.6037 14.2837L10.7357 21.1822L11.8568 20.1857ZM5.51612 13.7519H9.17541V12.2519H5.51612V13.7519ZM9.92541 13.0018L9.92534 7.39318L8.42534 7.3932L8.42541 13.0019L9.92541 13.0018ZM10.1169 7.20166L13.883 7.20166V5.70166L10.1169 5.70166V7.20166ZM14.0745 7.3932L14.0745 13.0019L15.5745 13.0018L15.5745 7.39318L14.0745 7.3932ZM14.8245 13.7519L18.4838 13.7519V12.2519L14.8245 12.2519V13.7519ZM18.2751 13.2871L12.1431 20.1857L13.2642 21.1822L19.3963 14.2837L18.2751 13.2871ZM18.4838 13.7519C18.2429 13.7519 18.1151 13.4672 18.2751 13.2871L19.3962 14.2837C20.096 13.4964 19.5372 12.2519 18.4838 12.2519V13.7519ZM13.883 7.20166C13.9887 7.20166 14.0745 7.2874 14.0745 7.39319H15.5745C15.5745 6.45899 14.8172 5.70166 13.883 5.70166V7.20166ZM9.92534 7.39319C9.92534 7.2874 10.0111 7.20166 10.1169 7.20166V5.70166C9.18265 5.70166 8.42534 6.45899 8.42534 7.39319H9.92534ZM5.72482 13.2871C5.88488 13.4672 5.75707 13.7519 5.51612 13.7519V12.2519C4.46277 12.2519 3.90392 13.4964 4.6037 14.2837L5.72482 13.2871ZM10.7357 21.1822C11.4086 21.9392 12.5914 21.9392 13.2642 21.1822L12.1431 20.1857C12.0669 20.2714 11.933 20.2714 11.8568 20.1857L10.7357 21.1822Z" fill="black"/>
<path d="M9.19336 3H14.807" stroke="black" stroke-width="1.5" stroke-linecap="round"/>
</svg>