<svg width="25" height="24" viewBox="0 0 25 24" fill="none" xmlns="http://www.w3.org/2000/svg">
<path fill-rule="evenodd" clip-rule="evenodd" d="M19.75 11.0004H6.117C7.023 9.58136 9.444 7.84436 11.274 6.85536C11.761 6.59336 11.941 5.98636 11.68 5.50136C11.417 5.01636 10.812 4.83236 10.325 5.09636C9.228 5.68736 3.755 8.80036 3.75 11.9984C3.75 11.9994 3.75 11.9994 3.75 12.0004V12.0024C3.75 15.1994 9.228 18.3124 10.325 18.9044C10.477 18.9864 10.639 19.0244 10.799 19.0244C11.154 19.0244 11.499 18.8344 11.68 18.4994C11.941 18.0144 11.761 17.4064 11.274 17.1454C9.443 16.1554 7.02 14.4184 6.115 13.0004H19.75C20.303 13.0004 20.75 12.5534 20.75 12.0004C20.75 11.4474 20.303 11.0004 19.75 11.0004Z" fill="black"/>
</svg>