<svg width="25" height="24" viewBox="0 0 25 24" fill="none" xmlns="http://www.w3.org/2000/svg">
<path fill-rule="evenodd" clip-rule="evenodd" d="M19.1549 10.075C18.5659 8.98 15.4639 3.527 12.2669 3.502C12.2629 3.502 12.2589 3.5 12.2559 3.5C12.2539 3.5 12.2529 3.501 12.2519 3.501C12.2489 3.501 12.2469 3.5 12.2449 3.5C9.04988 3.5 5.93588 8.977 5.34488 10.075C5.08288 10.561 5.26388 11.168 5.75088 11.429C5.90188 11.512 6.06388 11.55 6.22388 11.55C6.58088 11.55 6.92488 11.359 7.10488 11.024C8.06588 9.242 9.83188 6.783 11.2559 5.867V19.5C11.2559 20.053 11.7029 20.5 12.2559 20.5C12.8079 20.5 13.2559 20.053 13.2559 19.5V5.871C14.6759 6.781 16.4089 9.197 17.3949 11.024C17.6569 11.51 18.2619 11.69 18.7499 11.429C19.2359 11.168 19.4179 10.561 19.1549 10.075Z" fill="black"/>
</svg>