<svg width="24" height="24" viewBox="0 0 24 24" fill="none" xmlns="http://www.w3.org/2000/svg">
<path fill-rule="evenodd" clip-rule="evenodd" d="M18.1866 5.81336C18.4795 6.10625 18.4795 6.58113 18.1866 6.87402L12.7211 12.3395L15.54 15.1583C15.7331 15.3515 15.806 15.6343 15.7302 15.8967C15.6544 16.1591 15.442 16.3596 15.1757 16.42L6.50834 18.3877C6.25709 18.4448 5.99415 18.3689 5.81197 18.1867C5.62979 18.0045 5.55387 17.7416 5.61091 17.4903L7.5786 8.82296C7.63906 8.55662 7.83954 8.3442 8.10194 8.26844C8.36435 8.19268 8.64719 8.26555 8.84032 8.45867L11.6605 11.2788L17.1259 5.81336C17.4188 5.52047 17.8937 5.52047 18.1866 5.81336ZM11.1093 12.849L8.74053 10.4802L7.33726 16.6614L13.5184 15.2581L11.151 12.8906C11.1438 12.884 11.1367 12.8772 11.1297 12.8702C11.1227 12.8632 11.1159 12.8561 11.1093 12.849Z" fill="black"/>
</svg>