<svg width="24" height="24" viewBox="0 0 24 24" fill="none" xmlns="http://www.w3.org/2000/svg">
<path fill-rule="evenodd" clip-rule="evenodd" d="M21.75 12C21.75 11.5858 21.4142 11.25 21 11.25H8C7.58579 11.25 7.25 11.5858 7.25 12C7.25 12.4142 7.58579 12.75 8 12.75H21C21.4142 12.75 21.75 12.4142 21.75 12Z" fill="black"/>
<path fill-rule="evenodd" clip-rule="evenodd" d="M17.4697 8.46967C17.1768 8.76256 17.1768 9.23744 17.4697 9.53033L19.9393 12L17.4697 14.4697C17.1768 14.7626 17.1768 15.2374 17.4697 15.5303C17.7626 15.8232 18.2374 15.8232 18.5303 15.5303L21.5303 12.5303C21.8232 12.2374 21.8232 11.7626 21.5303 11.4697L18.5303 8.46967C18.2374 8.17678 17.7626 8.17678 17.4697 8.46967Z" fill="black"/>
<path fill-rule="evenodd" clip-rule="evenodd" d="M5.5 10.25C6.4665 10.25 7.25 11.0335 7.25 12C7.25 12.9665 6.4665 13.75 5.5 13.75C4.5335 13.75 3.75 12.9665 3.75 12C3.75 11.0335 4.5335 10.25 5.5 10.25ZM8.75 12C8.75 10.2051 7.29493 8.75 5.5 8.75C3.70507 8.75 2.25 10.2051 2.25 12C2.25 13.7949 3.70507 15.25 5.5 15.25C7.29493 15.25 8.75 13.7949 8.75 12Z" fill="black"/>
</svg>