<svg width="25" height="24" viewBox="0 0 25 24" fill="none" xmlns="http://www.w3.org/2000/svg">
<path opacity="0.4" fill-rule="evenodd" clip-rule="evenodd" d="M12.25 2.25C5.051 2.25 2.5 4.802 2.5 12C2.5 19.198 5.051 21.75 12.25 21.75C19.448 21.75 22 19.198 22 12C22 4.802 19.448 2.25 12.25 2.25Z" fill="black"/>
<path d="M12.5712 16.4979C12.7152 16.4979 12.8592 16.4569 12.9872 16.3709C14.2202 15.5449 17.0902 13.4659 17.0902 11.9999C17.0902 10.5339 14.2212 8.45192 12.9882 7.62492C12.6412 7.39392 12.1772 7.48592 11.9472 7.82992C11.7162 8.17392 11.8082 8.64092 12.1522 8.87092C13.3192 9.65292 14.4322 10.5819 15.0622 11.2499H8.16016C7.74616 11.2499 7.41016 11.5859 7.41016 11.9999C7.41016 12.4139 7.74616 12.7499 8.16016 12.7499H15.0602C14.4352 13.4179 13.3352 14.3329 12.1532 15.1249C11.8082 15.3549 11.7162 15.8209 11.9472 16.1649C12.0912 16.3819 12.3292 16.4979 12.5712 16.4979Z" fill="black"/>
</svg>