<svg width="24" height="24" viewBox="0 0 24 24" fill="none" xmlns="http://www.w3.org/2000/svg">
<path fill-rule="evenodd" clip-rule="evenodd" d="M5.45869 5.25614C5.34422 5.2494 5.24952 5.3441 5.25626 5.45857L5.7618 14.0519L7.90963 11.904C8.05028 11.7634 8.24105 11.6844 8.43996 11.6844C8.63888 11.6844 8.82964 11.7634 8.97029 11.904L12.9362 15.87C12.9362 15.87 12.9362 15.87 12.9362 15.87C13.011 15.9448 13.1322 15.9448 13.207 15.87L15.87 13.207C15.9448 13.1322 15.9448 13.0109 15.87 12.9361L11.9042 8.97016C11.6113 8.67726 11.6113 8.2024 11.9042 7.9095L14.052 5.76168L5.45869 5.25614L5.50274 4.50743L5.45869 5.25614ZM5.54678 3.75873L14.7608 4.30078C15.8123 4.36264 16.2972 5.63782 15.5523 6.38265L13.4951 8.43984L16.9307 11.8755C16.9307 11.8755 16.9307 11.8755 16.9307 11.8755C17.5913 12.5361 17.5913 13.6071 16.9307 14.2677L14.2677 16.9307C13.6071 17.5913 12.5361 17.5913 11.8755 16.9307L8.43995 13.495L6.38277 15.5522C5.63794 16.297 4.36276 15.8122 4.3009 14.7607L3.75885 5.54666C3.69937 4.5356 4.53572 3.69925 5.54678 3.75873Z" fill="black"/>
<path fill-rule="evenodd" clip-rule="evenodd" d="M20.0247 14.9945C20.3176 15.2873 20.3176 15.7622 20.0247 16.0551L16.0552 20.0246C15.7623 20.3175 15.2875 20.3175 14.9946 20.0246C14.7017 19.7317 14.7017 19.2568 14.9946 18.9639L18.964 14.9945C19.2569 14.7016 19.7318 14.7016 20.0247 14.9945Z" fill="black"/>
</svg>