<svg width="24" height="24" viewBox="0 0 24 24" fill="none" xmlns="http://www.w3.org/2000/svg">
<path fill-rule="evenodd" clip-rule="evenodd" d="M5.10639 5.1059C5.39928 4.81301 5.87416 4.81301 6.16705 5.1059L17.6145 16.5534L17.6143 11.2931C17.6142 10.8789 17.95 10.5431 18.3642 10.5431C18.7784 10.5431 19.1142 10.8788 19.1143 11.2931L19.1146 18.3641C19.1147 18.563 19.0356 18.7538 18.895 18.8945C18.7543 19.0351 18.5636 19.1142 18.3646 19.1142L11.2939 19.1141C10.8797 19.1141 10.5439 18.7783 10.5439 18.3641C10.5439 17.9499 10.8797 17.6141 11.2939 17.6141L16.554 17.6141L5.10639 6.16656C4.8135 5.87367 4.8135 5.39879 5.10639 5.1059Z" fill="black"/>
</svg>