<svg width="24" height="24" viewBox="0 0 24 24" fill="none" xmlns="http://www.w3.org/2000/svg">
<path fill-rule="evenodd" clip-rule="evenodd" d="M18.1862 5.8127C18.3684 5.99488 18.4443 6.25782 18.3873 6.50907L16.4196 15.1764C16.3591 15.4428 16.1587 15.6552 15.8963 15.7309C15.6339 15.8067 15.351 15.7338 15.1579 15.5407L12.339 12.7218L6.87359 18.1873C6.5807 18.4802 6.10582 18.4802 5.81293 18.1873C5.52004 17.8944 5.52004 17.4195 5.81293 17.1266L11.2784 11.6612L8.45825 8.84105C8.26512 8.64792 8.19225 8.36508 8.26801 8.10267C8.34377 7.84027 8.55619 7.6398 8.82254 7.57933L17.4899 5.61164C17.7411 5.5546 18.0041 5.63052 18.1862 5.8127ZM12.8902 11.1517C12.8836 11.1445 12.8768 11.1374 12.8698 11.1305C12.8628 11.1235 12.8557 11.1167 12.8485 11.11L10.4798 8.74127L16.661 7.338L15.2577 13.5192L12.8902 11.1517Z" fill="black"/>
</svg>