<svg width="24" height="24" viewBox="0 0 24 24" fill="none" xmlns="http://www.w3.org/2000/svg">
<path fill-rule="evenodd" clip-rule="evenodd" d="M11.2939 6.38611C10.8797 6.38611 10.5439 6.05032 10.5439 5.63611C10.5439 5.22189 10.8797 4.88611 11.2939 4.88611H18.3646C18.5636 4.88611 18.7543 4.96513 18.895 5.10579C19.0356 5.24645 19.1146 5.43723 19.1146 5.63615L19.1143 12.7072C19.1142 13.1214 18.7784 13.4572 18.3642 13.4572C17.95 13.4572 17.6142 13.1213 17.6143 12.7071L17.6145 7.44687L6.16705 18.8944C5.87416 19.1873 5.39928 19.1873 5.10639 18.8944C4.8135 18.6015 4.8135 18.1266 5.10639 17.8337L16.554 6.38611H11.2939Z" fill="black"/>
</svg>