<svg width="24" height="24" viewBox="0 0 24 24" fill="none" xmlns="http://www.w3.org/2000/svg">
<path fill-rule="evenodd" clip-rule="evenodd" d="M11.4696 10.753C11.7625 11.0459 12.2373 11.0459 12.5302 10.753L16.0858 7.19743C16.3787 6.90454 16.3787 6.42966 16.0858 6.13677C15.7929 5.84388 15.318 5.84388 15.0251 6.13677L12.7499 8.41198L12.7499 4.00024C12.7499 3.58602 12.4142 3.25023 11.9999 3.25023C11.5857 3.25023 11.2499 3.58601 11.2499 4.00022L11.2499 8.41201L8.97467 6.13677C8.68177 5.84388 8.2069 5.84388 7.91401 6.13677C7.62111 6.42966 7.62111 6.90454 7.91401 7.19743L11.4696 10.753Z" fill="black"/>
<path fill-rule="evenodd" clip-rule="evenodd" d="M11.9999 20.75C12.4142 20.75 12.7499 20.4142 12.7499 20L12.7499 15.5885L15.0251 17.8637C15.318 18.1566 15.7929 18.1566 16.0858 17.8637C16.3787 17.5708 16.3787 17.0959 16.0858 16.803L12.5302 13.2474C12.2373 12.9546 11.7625 12.9546 11.4696 13.2474L7.91401 16.803C7.62111 17.0959 7.62111 17.5708 7.91401 17.8637C8.2069 18.1566 8.68177 18.1566 8.97467 17.8637L11.2499 15.5884L11.2499 20C11.2499 20.4142 11.5857 20.75 11.9999 20.75Z" fill="black"/>
</svg>