<svg width="25" height="24" viewBox="0 0 25 24" fill="none" xmlns="http://www.w3.org/2000/svg">
<path opacity="0.4" d="M16.7501 11.9999C16.7501 8.73376 10.5103 4.87878 9.25936 4.14001C9.01961 3.99792 8.7452 3.96765 8.49617 4.03308C8.25057 4.09753 8.02938 4.25525 7.89022 4.49109C7.60701 4.96375 7.76717 5.57898 8.24129 5.85974C10.8663 7.41296 14.7501 10.4379 14.7501 11.9999L16.7501 11.9999Z" fill="black"/>
<path d="M14.7501 12C14.7501 12 14.7501 11.9999 14.7501 12C14.7501 13.56 10.8661 16.585 8.24112 18.14C7.76712 18.42 7.60712 19.033 7.89012 19.509C8.17112 19.984 8.78412 20.142 9.25912 19.86C10.5101 19.121 16.7501 15.266 16.7501 12C16.7501 11.9999 16.7501 12 16.7501 12L14.7501 12Z" fill="black"/>
</svg>