<svg width="24" height="24" viewBox="0 0 24 24" fill="none" xmlns="http://www.w3.org/2000/svg">
<path d="M11.2963 3.31601L11.8568 3.81428V3.81428L11.2963 3.31601ZM5.16426 10.2146L4.6037 9.71634H4.6037L5.16426 10.2146ZM5.51612 10.9981L5.51612 10.2481H5.51612L5.51612 10.9981ZM9.17541 10.9981L9.92541 10.9981C9.92541 10.7992 9.8464 10.6085 9.70575 10.4678C9.56509 10.3272 9.37433 10.2481 9.17541 10.2481V10.9981ZM9.17534 16.6068L8.42534 16.6068V16.6068H9.17534ZM10.1169 17.5483V18.2983V17.5483ZM13.8829 17.5483V16.7983V17.5483ZM14.8245 16.6068L14.0745 16.6068V16.6068H14.8245ZM14.8245 10.9981V10.2481C14.4103 10.2481 14.0745 10.5839 14.0745 10.9981L14.8245 10.9981ZM18.4838 10.9981V11.7481V10.9981ZM18.8357 10.2146L18.2751 10.7129L18.2751 10.7129L18.8357 10.2146ZM12.7037 3.31601L13.2642 2.81774L13.2642 2.81774L12.7037 3.31601ZM10.7357 2.81774L4.6037 9.71634L5.72482 10.7129L11.8568 3.81428L10.7357 2.81774ZM5.51612 11.7481H9.17541V10.2481L5.51612 10.2481L5.51612 11.7481ZM8.42541 10.9981L8.42534 16.6068L9.92534 16.6068L9.92541 10.9981L8.42541 10.9981ZM10.1169 18.2983H13.8829V16.7983H10.1169V18.2983ZM15.5745 16.6068L15.5745 10.9981L14.0745 10.9981L14.0745 16.6068L15.5745 16.6068ZM14.8245 11.7481L18.4838 11.7481V10.2481L14.8245 10.2481V11.7481ZM19.3963 9.71634L13.2642 2.81774L12.1431 3.81428L18.2751 10.7129L19.3963 9.71634ZM18.4838 11.7481C19.5372 11.7481 20.096 10.5036 19.3962 9.71634L18.2751 10.7129C18.1151 10.5328 18.2429 10.2481 18.4838 10.2481V11.7481ZM13.8829 18.2983C14.8172 18.2983 15.5745 17.541 15.5745 16.6068H14.0745C14.0745 16.7126 13.9887 16.7983 13.8829 16.7983V18.2983ZM8.42534 16.6068C8.42534 17.541 9.18265 18.2983 10.1169 18.2983V16.7983C10.0111 16.7983 9.92534 16.7126 9.92534 16.6068H8.42534ZM4.6037 9.71634C3.90392 10.5036 4.46277 11.7481 5.51612 11.7481L5.51612 10.2481C5.75707 10.2481 5.88488 10.5328 5.72482 10.7129L4.6037 9.71634ZM11.8568 3.81428C11.933 3.72857 12.0669 3.72857 12.1431 3.81428L13.2642 2.81774C12.5914 2.06075 11.4086 2.06075 10.7357 2.81774L11.8568 3.81428Z" fill="black"/>
<path d="M9.19336 21H14.807" stroke="black" stroke-width="1.5" stroke-linecap="round"/>
</svg>