<svg width="24" height="24" viewBox="0 0 24 24" fill="none" xmlns="http://www.w3.org/2000/svg">
<path fill-rule="evenodd" clip-rule="evenodd" d="M8.5 7.75H11.7308C12.145 7.75 12.4808 8.08579 12.4808 8.5C12.4808 8.91421 12.145 9.25 11.7308 9.25H10.3107L14.75 13.6893V12.2692C14.75 11.855 15.0858 11.5192 15.5 11.5192C15.9142 11.5192 16.25 11.855 16.25 12.2692V15.5C16.25 15.9142 15.9142 16.25 15.5 16.25H12.2692C11.855 16.25 11.5192 15.9142 11.5192 15.5C11.5192 15.0858 11.855 14.75 12.2692 14.75H13.6893L9.25 10.3107V11.7308C9.25 12.145 8.91421 12.4808 8.5 12.4808C8.08579 12.4808 7.75 12.145 7.75 11.7308V8.5C7.75 8.08579 8.08579 7.75 8.5 7.75Z" fill="black"/>
<path fill-rule="evenodd" clip-rule="evenodd" d="M2.25 12C2.25 6.61487 6.61487 2.25 12 2.25C17.3851 2.25 21.75 6.61487 21.75 12C21.75 17.3841 17.3852 21.75 12 21.75C6.61481 21.75 2.25 17.3841 2.25 12ZM12 3.75C7.44329 3.75 3.75 7.44329 3.75 12C3.75 16.5558 7.44335 20.25 12 20.25C16.5567 20.25 20.25 16.5558 20.25 12C20.25 7.44329 16.5567 3.75 12 3.75Z" fill="black"/>
</svg>