<svg width="25" height="24" viewBox="0 0 25 24" fill="none" xmlns="http://www.w3.org/2000/svg">
<path opacity="0.4" fill-rule="evenodd" clip-rule="evenodd" d="M12.25 2.25C5.052 2.25 2.5 4.801 2.5 12C2.5 19.198 5.052 21.75 12.25 21.75C19.448 21.75 22 19.198 22 12C22 4.801 19.448 2.25 12.25 2.25Z" fill="black"/>
<path d="M12.2496 14.7942C13.5326 14.7942 15.3616 12.4052 16.3376 10.9812C16.5716 10.6392 16.4846 10.1722 16.1436 9.93922C15.8006 9.70522 15.3336 9.79322 15.1016 10.1332C14.0136 11.7202 12.6666 13.1982 12.2796 13.2952C11.8336 13.1982 10.4866 11.7202 9.3986 10.1332C9.1666 9.79322 8.6966 9.70522 8.3566 9.93922C8.0146 10.1722 7.9276 10.6392 8.1616 10.9812C9.1376 12.4052 10.9666 14.7942 12.2496 14.7942Z" fill="black"/>
</svg>