<svg width="24" height="24" viewBox="0 0 24 24" fill="none" xmlns="http://www.w3.org/2000/svg">
<path fill-rule="evenodd" clip-rule="evenodd" d="M11.4802 4.4694C11.7705 4.19021 12.2295 4.19021 12.5198 4.4694C13.5063 5.41798 14.4739 6.39213 15.4342 7.35893C15.8004 7.72764 16.1656 8.09527 16.5303 8.46002C16.8232 8.75291 16.8232 9.22778 16.5303 9.52068C16.2374 9.81357 15.7626 9.81357 15.4697 9.52068C15.097 9.148 14.7271 8.77562 14.3583 8.40427C13.8218 7.86421 13.2876 7.32632 12.75 6.79286L12.75 15.9903C12.75 17.233 13.7574 18.2403 15 18.2403L16 18.2403C16.4142 18.2403 16.75 18.5761 16.75 18.9903C16.75 19.4046 16.4142 19.7403 16 19.7403L15 19.7403C12.9289 19.7403 11.25 18.0614 11.25 15.9903L11.25 6.79287C10.7124 7.32632 10.1782 7.86421 9.64172 8.40427C9.27287 8.77562 8.903 9.148 8.53033 9.52068C8.23744 9.81357 7.76256 9.81357 7.46967 9.52068C7.17678 9.22778 7.17678 8.75291 7.46967 8.46002C7.83442 8.09527 8.19958 7.72763 8.56581 7.35892C9.52609 6.39212 10.4937 5.41798 11.4802 4.4694Z" fill="black"/>
</svg>