<svg width="25" height="24" viewBox="0 0 25 24" fill="none" xmlns="http://www.w3.org/2000/svg">
<path fill-rule="evenodd" clip-rule="evenodd" d="M9.13731 17.0399C9.59031 17.2279 10.0733 17.3939 10.5033 17.3939C10.8123 17.3939 11.0933 17.3089 11.3163 17.0849C11.7799 16.6195 12.0371 14.7609 12.0877 12.7501H20.3045C20.7185 12.7501 21.0545 12.4141 21.0545 12.0001C21.0545 11.5861 20.7185 11.2501 20.3045 11.2501H12.0873C12.0358 9.24358 11.7785 7.39107 11.3153 6.92695C10.7513 6.36395 9.81831 6.65095 9.06531 6.96095C7.49231 7.61195 2.94531 10.3589 2.94531 12.0069C2.94531 13.7079 7.69531 16.4429 9.13731 17.0399ZM10.3153 15.8749C9.01931 15.6349 4.95231 12.9639 4.46631 12.0049C4.95031 11.0089 9.01831 8.31395 10.2913 8.11595C10.7043 9.36995 10.6973 14.6729 10.3153 15.8749Z" fill="black"/>
</svg>