<svg width="25" height="24" viewBox="0 0 25 24" fill="none" xmlns="http://www.w3.org/2000/svg">
<path d="M18.6843 10.1948C18.7463 10.3068 18.7743 10.4288 18.7743 10.5488C18.7743 10.8168 18.6313 11.0738 18.3803 11.2098C18.0153 11.4058 17.5603 11.2708 17.3643 10.9058C16.3493 9.02456 14.3576 6.19482 12.75 5.44024L12.75 19.5002C12.75 19.9142 12.414 20.2502 12 20.2502C11.586 20.2502 11.25 19.9142 11.25 19.5002L11.25 5.44186C9.64085 6.19885 7.65043 9.0259 6.63529 10.9058C6.43829 11.2708 5.98429 11.4058 5.61929 11.2098C5.25529 11.0128 5.12029 10.5558 5.31529 10.1948C5.67029 9.53376 8.87929 3.74976 12.0023 3.74976C15.1213 3.74976 18.3293 9.53376 18.6843 10.1948Z" fill="black"/>
</svg>