<svg width="25" height="24" viewBox="0 0 25 24" fill="none" xmlns="http://www.w3.org/2000/svg">
<path fill-rule="evenodd" clip-rule="evenodd" d="M17.3386 12.8117C16.8036 12.2757 14.9916 12.0907 13.2466 12.0407L11.2466 12.0347C9.00955 12.0877 7.63955 12.3477 7.17555 12.8117C6.61255 13.3757 6.90155 14.3157 7.21555 15.0717C7.86655 16.6407 10.6126 21.1767 12.2576 21.1767C13.9526 21.1767 16.6896 16.4387 17.2866 14.9997C17.6116 14.2177 17.8716 13.3467 17.3386 12.8117Z" fill="black"/>
<path opacity="0.4" fill-rule="evenodd" clip-rule="evenodd" d="M13.2473 12.0402V3.82324C13.2473 3.27024 12.8003 2.82324 12.2473 2.82324C11.6943 2.82324 11.2473 3.27024 11.2473 3.82324V12.0342L13.2473 12.0402Z" fill="black"/>
</svg>