<svg width="24" height="24" viewBox="0 0 24 24" fill="none" xmlns="http://www.w3.org/2000/svg">
<path fill-rule="evenodd" clip-rule="evenodd" d="M6.13677 7.91425C6.42966 7.62136 6.90454 7.62136 7.19743 7.91425L10.753 11.4698C11.0459 11.7627 11.0459 12.2376 10.753 12.5305L7.19743 16.086C6.90454 16.3789 6.42966 16.3789 6.13677 16.086C5.84388 15.7931 5.84388 15.3183 6.13677 15.0254L8.41203 12.7501L3.99999 12.75C3.58577 12.75 3.24999 12.4142 3.25 12C3.25001 11.5858 3.5858 11.25 4.00001 11.25L8.41196 11.2501L6.13677 8.97491C5.84388 8.68202 5.84388 8.20714 6.13677 7.91425Z" fill="black"/>
<path fill-rule="evenodd" clip-rule="evenodd" d="M17.8637 7.91425C18.1566 8.20714 18.1566 8.68202 17.8637 8.97491L15.5885 11.2501L20 11.25C20.4143 11.25 20.75 11.5858 20.7501 12C20.7501 12.4142 20.4143 12.75 20.0001 12.75L15.5885 12.7501L17.8637 15.0254C18.1566 15.3183 18.1566 15.7931 17.8637 16.086C17.5708 16.3789 17.096 16.3789 16.8031 16.086L13.2475 12.5305C12.9546 12.2376 12.9546 11.7627 13.2475 11.4698L16.8031 7.91425C17.096 7.62136 17.5708 7.62136 17.8637 7.91425Z" fill="black"/>
</svg>