<svg width="24" height="24" viewBox="0 0 24 24" fill="none" xmlns="http://www.w3.org/2000/svg">
<path fill-rule="evenodd" clip-rule="evenodd" d="M6.1664 5.10544C6.45929 5.39834 6.45929 5.87321 6.16639 6.1661C4.6726 7.65988 3.75 9.72137 3.75 11.9998C3.75 14.2782 4.6726 16.3396 6.16639 17.8334C6.45929 18.1263 6.45929 18.6012 6.1664 18.8941C5.87351 19.187 5.39863 19.187 5.10574 18.8941C3.34214 17.1305 2.25 14.692 2.25 11.9998C2.25 9.30756 3.34214 6.86902 5.10574 5.10544C5.39863 4.81255 5.87351 4.81255 6.1664 5.10544ZM17.8337 5.10549C18.1266 4.8126 18.6014 4.8126 18.8943 5.1055C20.6579 6.86908 21.75 9.30759 21.75 11.9998C21.75 14.6919 20.6579 17.1304 18.8943 18.894C18.6014 19.1869 18.1266 19.1869 17.8337 18.894C17.5408 18.6011 17.5408 18.1263 17.8337 17.8334C19.3274 16.3396 20.25 14.2781 20.25 11.9998C20.25 9.72139 19.3274 7.65993 17.8337 6.16615C17.5408 5.87326 17.5408 5.39839 17.8337 5.10549ZM11.4697 7.46946C11.7626 7.17656 12.2374 7.17656 12.5303 7.46946L15.5303 10.4695C15.8232 10.7624 15.8232 11.2372 15.5303 11.5301C15.2374 11.823 14.7626 11.823 14.4697 11.5301L12.75 9.81045V15.9998C12.75 16.414 12.4142 16.7498 12 16.7498C11.5858 16.7498 11.25 16.414 11.25 15.9998V9.81045L9.53033 11.5301C9.23744 11.823 8.76256 11.823 8.46967 11.5301C8.17678 11.2372 8.17678 10.7623 8.46967 10.4695L11.4697 7.46946Z" fill="black"/>
</svg>