<svg width="25" height="24" viewBox="0 0 25 24" fill="none" xmlns="http://www.w3.org/2000/svg">
<path fill-rule="evenodd" clip-rule="evenodd" d="M17.3386 11.1882C16.8036 11.7242 14.9916 11.9092 13.2466 11.9592L11.2466 11.9652C9.00955 11.9122 7.63955 11.6522 7.17555 11.1882C6.61255 10.6242 6.90155 9.68421 7.21555 8.92821C7.86655 7.35921 10.6126 2.82321 12.2576 2.82321C13.9526 2.82321 16.6896 7.56121 17.2866 9.00021C17.6116 9.78221 17.8716 10.6532 17.3386 11.1882Z" fill="black"/>
<path opacity="0.4" fill-rule="evenodd" clip-rule="evenodd" d="M13.2473 11.9596V20.1766C13.2473 20.7296 12.8003 21.1766 12.2473 21.1766C11.6943 21.1766 11.2473 20.7296 11.2473 20.1766V11.9656L13.2473 11.9596Z" fill="black"/>
</svg>