<svg width="24" height="24" viewBox="0 0 24 24" fill="none" xmlns="http://www.w3.org/2000/svg">
<path fill-rule="evenodd" clip-rule="evenodd" d="M16.1969 9.02533C16.4898 9.31823 16.4898 9.7931 16.1969 10.086L15.0328 11.2501L17.5 11.2501C17.9142 11.2501 18.2499 11.5859 18.2499 12.0001C18.2499 12.4144 17.9142 12.7501 17.4999 12.7501L15.0328 12.7501L16.1969 13.9142C16.4898 14.2071 16.4898 14.682 16.1969 14.9749C15.904 15.2678 15.4292 15.2678 15.1363 14.9749L12.6918 12.5304C12.3989 12.2375 12.3989 11.7627 12.6918 11.4698L15.1363 9.02533C15.4292 8.73244 15.904 8.73244 16.1969 9.02533Z" fill="black"/>
<path fill-rule="evenodd" clip-rule="evenodd" d="M7.80314 9.02533C8.09604 8.73244 8.57091 8.73244 8.8638 9.02533L11.3082 11.4698C11.4489 11.6104 11.5279 11.8012 11.5279 12.0001C11.5279 12.199 11.4489 12.3898 11.3082 12.5304L8.8638 14.9749C8.57091 15.2678 8.09604 15.2678 7.80314 14.9749C7.51025 14.682 7.51025 14.2071 7.80314 13.9142L8.96724 12.7501L6.50001 12.7501C6.08579 12.7501 5.75 12.4144 5.75 12.0001C5.75 11.5859 6.08578 11.2501 6.49999 11.2501L8.96727 11.2501L7.80314 10.086C7.51025 9.7931 7.51025 9.31823 7.80314 9.02533Z" fill="black"/>
<path fill-rule="evenodd" clip-rule="evenodd" d="M3.89765 3.73714C4.94841 2.75872 6.39889 2.25 8.02638 2.25H15.9736C17.6011 2.25 19.0516 2.75872 20.1024 3.73714C21.1592 4.72117 21.75 6.12379 21.75 7.78313V16.2178C21.75 17.8772 21.1591 19.2796 20.1023 20.2634C19.0515 21.2416 17.601 21.75 15.9736 21.75H8.02638C6.39795 21.75 4.94762 21.2385 3.89733 20.2594C2.8412 19.2748 2.25 17.8729 2.25 16.2178V7.78313C2.25 6.12379 2.84084 4.72117 3.89765 3.73714ZM4.91984 4.83492C4.19975 5.50542 3.75 6.49437 3.75 7.78313V16.2178C3.75 17.5012 4.19939 18.4903 4.92016 19.1622C5.64676 19.8396 6.70962 20.25 8.02638 20.25H15.9736C17.2914 20.25 18.3541 19.8414 19.0802 19.1655C19.8003 18.4952 20.25 17.5066 20.25 16.2178V7.78313C20.25 6.49437 19.8003 5.50542 19.0802 4.83492C18.354 4.15879 17.2913 3.75 15.9736 3.75H8.02638C6.70868 3.75 5.64597 4.15879 4.91984 4.83492Z" fill="black"/>
</svg>