<svg width="24" height="24" viewBox="0 0 24 24" fill="none" xmlns="http://www.w3.org/2000/svg">
<path fill-rule="evenodd" clip-rule="evenodd" d="M12.1164 6.6057C12.3555 6.47373 12.6475 6.48217 12.8786 6.62775L20.3987 11.3651C20.6167 11.5024 20.7489 11.7421 20.7489 11.9997C20.7489 12.2573 20.6167 12.497 20.3987 12.6343L12.8786 17.3716C12.6475 17.5172 12.3555 17.5257 12.1164 17.3937C11.8773 17.2617 11.7288 17.0102 11.7288 16.7371V12.7506L3.99951 12.7506C3.5853 12.7506 3.24951 12.4148 3.24951 12.0006C3.24951 11.5864 3.5853 11.2506 3.99951 11.2506L11.7288 11.2506V7.26233C11.7288 6.98921 11.8773 6.73768 12.1164 6.6057ZM13.2288 12.0301C13.2292 12.0203 13.2294 12.0105 13.2294 12.0006C13.2294 11.9907 13.2292 11.9809 13.2288 11.9712V8.62121L18.5918 11.9997L13.2288 15.3782V12.0301Z" fill="black"/>
</svg>