<svg width="25" height="24" viewBox="0 0 25 24" fill="none" xmlns="http://www.w3.org/2000/svg">
<path opacity="0.4" fill-rule="evenodd" clip-rule="evenodd" d="M21.8463 7.29696C21.2043 5.71196 19.9663 4.55596 18.3603 4.03996C17.4873 3.75896 16.5393 3.69296 15.6163 3.84596C14.7823 3.98496 14.0243 4.48196 13.3863 4.94596C12.7713 4.50096 11.9963 3.99696 11.1583 3.85496C10.5274 3.74845 9.88262 3.75123 9.25333 3.85298C8.99982 3.89397 8.94403 4.2142 9.1572 4.35741L9.19226 4.38096C9.78626 4.78096 10.1223 5.46996 10.0713 6.18596L10.0033 7.11636C9.99582 7.2194 10.0418 7.31906 10.1252 7.38014L11.2693 8.21896C12.1593 8.87196 12.3523 10.124 11.7003 11.015C11.3083 11.549 10.7003 11.832 10.0843 11.832C9.67426 11.832 9.26026 11.706 8.90426 11.445L7.79672 10.6334C7.71094 10.5706 7.59828 10.5578 7.50063 10.5999L6.67026 10.958C6.41626 11.068 6.14726 11.121 5.87826 11.121C5.57023 11.121 5.29847 11.0425 5.04158 10.9211C4.81208 10.8127 4.53545 10.9803 4.58118 11.23C4.63435 11.5203 4.70466 11.8067 4.79426 12.086C6.32326 16.987 12.8963 20.103 13.1753 20.233C13.2423 20.264 13.3143 20.279 13.3863 20.279C13.4583 20.279 13.5303 20.264 13.5973 20.233C13.7044 20.1822 14.7632 19.6786 16.1052 18.7942C16.2484 18.6998 16.2786 18.5049 16.1973 18.3539C16.0467 18.0742 15.9595 17.7558 15.9603 17.415C15.961 17.2029 15.9974 16.9999 16.0609 16.8089C16.1062 16.6729 16.0689 16.519 15.9532 16.4344L15.7503 16.286C14.8593 15.634 14.6643 14.382 15.3173 13.491C15.9683 12.599 17.2203 12.403 18.1123 13.058L18.2708 13.1737C18.3889 13.2599 18.5505 13.2463 18.6665 13.1573C18.8418 13.0228 19.0413 12.9141 19.2653 12.844C19.8995 12.6471 20.5581 12.781 21.0544 13.1489C21.2235 13.2742 21.4806 13.2453 21.5725 13.0558C21.7242 12.7428 21.8597 12.4224 21.9683 12.091C22.4883 10.475 22.4443 8.77296 21.8463 7.29696Z" fill="black"/>
<path fill-rule="evenodd" clip-rule="evenodd" d="M5.87831 9.62058C5.94531 9.62058 6.01331 9.60658 6.07631 9.57958L7.58631 8.92858L9.64331 10.4356C9.77631 10.5346 9.93231 10.5816 10.0853 10.5816C10.3163 10.5816 10.5443 10.4746 10.6903 10.2746C10.9363 9.94058 10.8633 9.47158 10.5293 9.22658L8.45631 7.70758L8.57431 6.07658C8.58731 5.89758 8.50331 5.72558 8.35531 5.62558L5.64931 3.80658C5.50031 3.70658 5.31131 3.69258 5.15031 3.77158C4.99031 3.84958 4.88431 4.00758 4.87031 4.18458L4.73231 6.07358L2.97131 6.84258C2.80431 6.91458 2.69031 7.07358 2.67331 7.25558C2.65631 7.43658 2.74031 7.61358 2.89231 7.71558L5.59931 9.53558C5.68331 9.59258 5.78031 9.62058 5.87831 9.62058Z" fill="black"/>
<path fill-rule="evenodd" clip-rule="evenodd" d="M21.433 17.2661L20.897 14.8891C20.832 14.6011 20.603 14.3771 20.314 14.3191C20.02 14.2621 19.726 14.3781 19.555 14.6191L19.067 15.3041L17.374 14.0661C17.037 13.8201 16.57 13.8951 16.326 14.2281C16.081 14.5631 16.154 15.0321 16.488 15.2771L18.196 16.5261L17.653 17.2881C17.48 17.5311 17.466 17.8511 17.619 18.1071C17.754 18.3361 18 18.4741 18.263 18.4741C18.292 18.4741 18.323 18.4721 18.353 18.4691L20.791 18.1761C20.844 18.1701 20.889 18.1431 20.939 18.1261C20.979 18.1121 21.02 18.1051 21.058 18.0851C21.131 18.0451 21.19 17.9881 21.246 17.9261C21.265 17.9061 21.291 17.8971 21.308 17.8741C21.31 17.8721 21.31 17.8681 21.312 17.8651L21.314 17.8641C21.32 17.8541 21.321 17.8421 21.327 17.8331C21.377 17.7551 21.415 17.6731 21.433 17.5861C21.439 17.5611 21.433 17.5361 21.436 17.5101C21.444 17.4351 21.448 17.3611 21.433 17.2871C21.432 17.2801 21.435 17.2731 21.433 17.2661Z" fill="black"/>
</svg>