<svg width="24" height="24" viewBox="0 0 24 24" fill="none" xmlns="http://www.w3.org/2000/svg">
<path fill-rule="evenodd" clip-rule="evenodd" d="M8.42491 6.46966C8.71781 6.17677 9.19268 6.17678 9.48557 6.46968L11.4407 8.42485C11.7336 8.71775 11.7336 9.19262 11.4407 9.48551C11.1478 9.7784 10.6729 9.77839 10.38 9.4855L9.70523 8.8107V12.8097C9.70523 13.6295 10.3699 14.2942 11.1897 14.2942H15.188L14.5137 13.6202C14.2208 13.3274 14.2206 12.8526 14.5134 12.5596C14.8062 12.2666 15.2811 12.2665 15.5741 12.5593L17.5296 14.5137C17.6703 14.6543 17.7494 14.8451 17.7494 15.044C17.7494 15.2429 17.6704 15.4337 17.5298 15.5744L15.5743 17.5304C15.2814 17.8233 14.8066 17.8234 14.5136 17.5305C14.2207 17.2376 14.2207 16.7628 14.5135 16.4698L15.189 15.7942H11.1897C9.54143 15.7942 8.20523 14.458 8.20523 12.8097V8.81062L7.53032 9.48551C7.23742 9.7784 6.76255 9.77839 6.46966 9.4855C6.17677 9.1926 6.17678 8.71773 6.46968 8.42484L8.42491 6.46966Z" fill="black"/>
<path fill-rule="evenodd" clip-rule="evenodd" d="M15.9736 3.75L8.02638 3.75C6.70951 3.75 5.64666 4.16024 4.92012 4.83745C4.19943 5.50921 3.75 6.49828 3.75 7.78216V16.2169C3.75 17.5056 4.19975 18.4946 4.91984 19.1651C5.64597 19.8412 6.70868 20.25 8.02638 20.25H15.9736C17.2913 20.25 18.354 19.8412 19.0801 19.165C19.8002 18.4944 20.25 17.5052 20.25 16.2159V7.78216C20.25 6.49341 19.8003 5.50475 19.0802 4.83451C18.3541 4.15861 17.2914 3.75 15.9736 3.75ZM8.02638 2.25L15.9736 2.25C17.601 2.25 19.0515 2.75842 20.1023 3.73657C21.1591 4.72038 21.75 6.1228 21.75 7.78216V16.2159C21.75 17.8756 21.1592 19.2785 20.1024 20.2627C19.0516 21.2413 17.6011 21.75 15.9736 21.75H8.02638C6.39889 21.75 4.94841 21.2413 3.89765 20.2629C2.84085 19.2788 2.25 17.8762 2.25 16.2169V7.78216C2.25 6.12669 2.84117 4.72468 3.89737 3.7402C4.94771 2.76117 6.39806 2.25 8.02638 2.25Z" fill="black"/>
</svg>