<svg width="24" height="24" viewBox="0 0 24 24" fill="none" xmlns="http://www.w3.org/2000/svg">
<path fill-rule="evenodd" clip-rule="evenodd" d="M8.08589 7.91425C8.37878 8.20714 8.37878 8.68202 8.08589 8.97491L5.81069 11.2501L10.2226 11.25C10.6369 11.25 10.9726 11.5858 10.9727 12C10.9727 12.4142 10.6369 12.75 10.2227 12.75L5.81063 12.7501L8.08589 15.0254C8.37878 15.3183 8.37878 15.7931 8.08589 16.086C7.79299 16.3789 7.31812 16.3789 7.02523 16.086L3.46967 12.5305C3.17678 12.2376 3.17678 11.7627 3.46967 11.4698L7.02522 7.91425C7.31812 7.62136 7.79299 7.62136 8.08589 7.91425Z" fill="black"/>
<path fill-rule="evenodd" clip-rule="evenodd" d="M15.9142 7.91425C16.2071 7.62136 16.6819 7.62136 16.9748 7.91425L20.5304 11.4698C20.8233 11.7627 20.8233 12.2376 20.5304 12.5305L16.9748 16.086C16.6819 16.3789 16.2071 16.3789 15.9142 16.086C15.6213 15.7931 15.6213 15.3183 15.9142 15.0254L18.1894 12.7501L13.7778 12.75C13.3636 12.75 13.0278 12.4142 13.0278 12C13.0278 11.5858 13.3636 11.25 13.7778 11.25L18.1894 11.2501L15.9142 8.97491C15.6213 8.68202 15.6213 8.20714 15.9142 7.91425Z" fill="black"/>
</svg>