<svg width="24" height="24" viewBox="0 0 24 24" fill="none" xmlns="http://www.w3.org/2000/svg">
<path fill-rule="evenodd" clip-rule="evenodd" d="M9.71634 4.6037C10.5036 3.90392 11.7481 4.46277 11.7481 5.51611V8.42542L16.6068 8.42548C17.541 8.42548 18.2983 9.18279 18.2983 10.117V13.8831C18.2983 14.8173 17.541 15.5746 16.6068 15.5746L11.7481 15.5746V18.4838C11.7481 19.5372 10.5036 20.096 9.71634 19.3963L2.81774 13.2642C2.06075 12.5914 2.06075 11.4086 2.81774 10.7357L9.71634 4.6037ZM10.2481 6.13792L3.81428 11.8568C3.72857 11.933 3.72857 12.0669 3.81428 12.1431L10.2481 17.862V14.8245C10.2481 14.6256 10.3272 14.4349 10.4678 14.2942C10.6085 14.1536 10.7992 14.0745 10.9981 14.0745L16.6068 14.0746C16.7126 14.0746 16.7983 13.9889 16.7983 13.8831V10.117C16.7983 10.0112 16.7126 9.92548 16.6068 9.92548L10.9981 9.92541C10.5839 9.92541 10.2481 9.58962 10.2481 9.17541V6.13792ZM10.7126 5.72505L10.7129 5.72482L10.5274 5.51611L10.7129 5.72482C10.7128 5.7249 10.7127 5.72497 10.7126 5.72505Z" fill="black"/>
<path fill-rule="evenodd" clip-rule="evenodd" d="M21 8.44312C21.4142 8.44312 21.75 8.7789 21.75 9.19312L21.75 14.8068C21.75 15.221 21.4142 15.5568 21 15.5568C20.5858 15.5568 20.25 15.221 20.25 14.8068L20.25 9.19312C20.25 8.7789 20.5858 8.44312 21 8.44312Z" fill="black"/>
</svg>