<svg width="24" height="24" viewBox="0 0 24 24" fill="none" xmlns="http://www.w3.org/2000/svg">
<path fill-rule="evenodd" clip-rule="evenodd" d="M13.3403 13.3366C13.6332 13.0437 14.108 13.0437 14.4009 13.3366L19.2464 18.1821L19.2392 14.3668C19.2384 13.9526 19.5736 13.6162 19.9878 13.6154C20.402 13.6146 20.7384 13.9498 20.7392 14.364L20.7498 19.9948C20.7502 20.1942 20.6711 20.3856 20.5301 20.5266C20.3891 20.6676 20.1977 20.7466 19.9982 20.7462L14.3676 20.7341C13.9534 20.7332 13.6183 20.3967 13.6192 19.9825C13.6201 19.5683 13.9566 19.2332 14.3708 19.2341L18.1853 19.2423L13.3403 14.3973C13.0474 14.1044 13.0474 13.6295 13.3403 13.3366Z" fill="black"/>
<path fill-rule="evenodd" clip-rule="evenodd" d="M3.46971 3.4739C3.61074 3.33289 3.80212 3.25386 4.00155 3.25427L9.6323 3.26591C10.0465 3.26677 10.3816 3.60325 10.3807 4.01746C10.3799 4.43167 10.0434 4.76677 9.6292 4.76591L5.81469 4.75803L10.6608 9.60312C10.9538 9.89598 10.9538 10.3709 10.661 10.6638C10.3681 10.9567 9.89323 10.9568 9.6003 10.6639L4.75346 5.81811L4.76072 9.63317C4.76151 10.0474 4.42636 10.3838 4.01215 10.3846C3.59794 10.3854 3.26151 10.0502 3.26072 9.63603L3.25 4.0057C3.24962 3.80627 3.32868 3.6149 3.46971 3.4739Z" fill="black"/>
</svg>