<svg width="24" height="24" viewBox="0 0 24 24" fill="none" xmlns="http://www.w3.org/2000/svg">
<path fill-rule="evenodd" clip-rule="evenodd" d="M12 21.75C12.4142 21.75 12.75 21.4142 12.75 21L12.75 8C12.75 7.58579 12.4142 7.25 12 7.25C11.5858 7.25 11.25 7.58579 11.25 8L11.25 21C11.25 21.4142 11.5858 21.75 12 21.75Z" fill="black"/>
<path fill-rule="evenodd" clip-rule="evenodd" d="M15.5303 17.4697C15.2374 17.1768 14.7626 17.1768 14.4697 17.4697L12 19.9393L9.53033 17.4697C9.23744 17.1768 8.76256 17.1768 8.46967 17.4697C8.17678 17.7626 8.17678 18.2374 8.46967 18.5303L11.4697 21.5303C11.7626 21.8232 12.2374 21.8232 12.5303 21.5303L15.5303 18.5303C15.8232 18.2374 15.8232 17.7626 15.5303 17.4697Z" fill="black"/>
<path fill-rule="evenodd" clip-rule="evenodd" d="M10.5 2.25L13.5 2.25C14.4665 2.25 15.25 3.0335 15.25 4V7C15.25 7.9665 14.4665 8.75 13.5 8.75H10.5C9.5335 8.75 8.75 7.9665 8.75 7L8.75 4C8.75 3.0335 9.5335 2.25 10.5 2.25ZM13.5 3.75L10.5 3.75C10.3619 3.75 10.25 3.86193 10.25 4L10.25 7C10.25 7.13807 10.3619 7.25 10.5 7.25H13.5C13.6381 7.25 13.75 7.13807 13.75 7V4C13.75 3.86193 13.6381 3.75 13.5 3.75Z" fill="black"/>
</svg>