<svg width="24" height="24" viewBox="0 0 24 24" fill="none" xmlns="http://www.w3.org/2000/svg">
<path fill-rule="evenodd" clip-rule="evenodd" d="M11.4696 3.46967C11.7625 3.17678 12.2373 3.17678 12.5302 3.46967L16.0858 7.02522C16.3787 7.31812 16.3787 7.79299 16.0858 8.08589C15.7929 8.37878 15.318 8.37878 15.0251 8.08589L12.7499 5.81067L12.7499 10.2224C12.7499 10.6366 12.4142 10.9724 11.9999 10.9724C11.5857 10.9724 11.2499 10.6366 11.2499 10.2224L11.2499 5.81065L8.97467 8.08589C8.68177 8.37878 8.2069 8.37878 7.91401 8.08589C7.62111 7.79299 7.62111 7.31812 7.91401 7.02523L11.4696 3.46967Z" fill="black"/>
<path fill-rule="evenodd" clip-rule="evenodd" d="M11.9999 13.0278C12.4142 13.0278 12.7499 13.3636 12.7499 13.7778L12.7499 18.1894L15.0251 15.9142C15.318 15.6213 15.7929 15.6213 16.0858 15.9142C16.3787 16.2071 16.3787 16.6819 16.0858 16.9748L12.5302 20.5304C12.2373 20.8233 11.7625 20.8233 11.4696 20.5304L7.91401 16.9748C7.62111 16.6819 7.62111 16.2071 7.91401 15.9142C8.2069 15.6213 8.68177 15.6213 8.97467 15.9142L11.2499 18.1894L11.2499 13.7778C11.2499 13.3636 11.5857 13.0278 11.9999 13.0278Z" fill="black"/>
</svg>