<?xml version="1.0" encoding="UTF-8"?>
<svg width="24px" height="24px" viewBox="0 0 24 24" version="1.1" xmlns="http://www.w3.org/2000/svg" xmlns:xlink="http://www.w3.org/1999/xlink">
    <title>Iconly/Light-Outline/Arrow - Left Square</title>
    <g id="Iconly/Light-Outline/Arrow---Left-Square" stroke="none" stroke-width="1" fill="none" fill-rule="evenodd">
        <g id="Arrow---Left-Square" transform="translate(12.000000, 12.000000) scale(-1, 1) translate(-12.000000, -12.000000) translate(2.000000, 2.000000)" fill="#000000">
            <path d="M14.084,0 C17.622,0 20,2.276 20,5.665 L20,14.334 C20,17.723 17.622,20 14.084,20 L5.916,20 C2.378,20 0,17.723 0,14.334 L0,5.665 C0,2.276 2.378,0 5.916,0 L14.084,0 Z M14.084,1.5 L5.916,1.5 C3.233,1.5 1.5,3.135 1.5,5.665 L1.5,14.334 C1.5,16.864 3.233,18.5 5.916,18.5 L14.084,18.5 C16.767,18.5 18.5,16.864 18.5,14.334 L18.5,5.665 C18.5,3.135 16.767,1.5 14.084,1.5 Z M10.8513,5.721 L14.6085553,9.46226178 C14.6366281,9.48955285 14.6625735,9.51902102 14.686118,9.55039275 L14.6153,9.469 C14.6507297,9.50393069 14.6822375,9.54209853 14.7095748,9.58280455 C14.7215077,9.6012464 14.7331142,9.62031535 14.7438703,9.63991619 C14.7526987,9.65523007 14.7607316,9.67121581 14.7681784,9.68746498 C14.7749791,9.70309954 14.7815454,9.71878958 14.7875833,9.73473868 C14.7937828,9.75027751 14.7991789,9.76614711 14.8040402,9.78219112 C14.8209153,9.83879697 14.8315734,9.89825769 14.8348325,9.95967067 C14.835943,9.97327533 14.8363,9.98662185 14.8363,10 L14.833,10.039 L14.8290493,10.1017257 C14.8236481,10.1415019 14.8151247,10.1802903 14.8037342,10.2178357 C14.7991789,10.2338529 14.7937828,10.2497225 14.787862,10.2653895 C14.7815454,10.2812104 14.7749791,10.2969005 14.7679057,10.31231 C14.7607316,10.3287842 14.7526987,10.3447699 14.7440921,10.360458 C14.7331142,10.3796847 14.7215077,10.3987536 14.7091006,10.4172409 C14.7022029,10.4281724 14.6945277,10.4389648 14.6865541,10.449559 C14.6647115,10.4781302 14.6413203,10.5050797 14.61615,10.53025 L14.6153,10.531 L10.8513,14.279 C10.7053,14.425 10.5133,14.498 10.3223,14.498 C10.1303,14.498 9.9373,14.425 9.7913,14.277 C9.4993,13.983 9.5003,13.509 9.7933,13.217 L12.27,10.75 L5.9139,10.75 C5.4999,10.75 5.1639,10.414 5.1639,10 C5.1639,9.586 5.4999,9.25 5.9139,9.25 L12.27,9.25 L9.7933,6.783 C9.5003,6.491 9.4993,6.017 9.7913,5.723 C10.0833,5.429 10.5573,5.429 10.8513,5.721 Z" id="Combined-Shape"></path>
        </g>
    </g>
</svg>