<svg width="24" height="24" viewBox="0 0 24 24" fill="none" xmlns="http://www.w3.org/2000/svg">
<path fill-rule="evenodd" clip-rule="evenodd" d="M16.9501 13.4305C17.243 13.1377 17.7179 13.1377 18.0108 13.4305L21.5303 16.9501C21.8232 17.243 21.8232 17.7179 21.5303 18.0108L18.0108 21.5303C17.7179 21.8232 17.243 21.8232 16.9501 21.5303C16.6572 21.2374 16.6572 20.7625 16.9501 20.4696L19.9394 17.4804L16.9501 14.4912C16.6572 14.1983 16.6572 13.7234 16.9501 13.4305Z" fill="black"/>
<path fill-rule="evenodd" clip-rule="evenodd" d="M6.51953 2.25C6.93374 2.25 7.26953 2.58579 7.26953 3V13.4581C7.26953 15.2654 8.73461 16.7304 10.5419 16.7304H21C21.4142 16.7304 21.75 17.0662 21.75 17.4804C21.75 17.8947 21.4142 18.2304 21 18.2304H10.5419C7.90618 18.2304 5.76953 16.0938 5.76953 13.4581V3C5.76953 2.58579 6.10532 2.25 6.51953 2.25Z" fill="black"/>
<path fill-rule="evenodd" clip-rule="evenodd" d="M5.98922 2.46967C6.28211 2.17678 6.75698 2.17678 7.04988 2.46967L10.5694 5.98922C10.8623 6.28211 10.8623 6.75698 10.5694 7.04988C10.2765 7.34277 9.80166 7.34277 9.50877 7.04988L6.51955 4.06066L3.53033 7.04988C3.23744 7.34277 2.76256 7.34277 2.46967 7.04988C2.17678 6.75698 2.17678 6.28211 2.46967 5.98922L5.98922 2.46967Z" fill="black"/>
</svg>