<svg width="25" height="24" viewBox="0 0 25 24" fill="none" xmlns="http://www.w3.org/2000/svg">
<path fill-rule="evenodd" clip-rule="evenodd" d="M3.49951 11.25L20.9993 11.25L20.9993 12.75L3.49951 12.75L3.49951 11.25Z" fill="black"/>
<path fill-rule="evenodd" clip-rule="evenodd" d="M4.24962 12.75C7.77717 12.75 10.6597 9.64786 10.6597 6.33995L10.6597 5.58995L9.15967 5.58995L9.15967 6.33995C9.15967 8.85153 6.91701 11.25 4.24962 11.25L3.49962 11.25L3.49962 12.75L4.24962 12.75Z" fill="black"/>
<path fill-rule="evenodd" clip-rule="evenodd" d="M4.24962 11.25C7.77717 11.25 10.6597 14.3521 10.6597 17.66L10.6597 18.41L9.15967 18.41L9.15967 17.66C9.15967 15.1485 6.91701 12.75 4.24962 12.75L3.49962 12.75L3.49962 11.25L4.24962 11.25Z" fill="black"/>
</svg>