<svg width="25" height="24" viewBox="0 0 25 24" fill="none" xmlns="http://www.w3.org/2000/svg">
<path opacity="0.4" fill-rule="evenodd" clip-rule="evenodd" d="M12.2498 20.5C12.802 20.5 13.2498 20.0523 13.2498 19.5V4.5C13.2498 3.94771 12.802 3.5 12.2498 3.5C11.6975 3.5 11.2498 3.94771 11.2498 4.5V19.5C11.2498 20.0523 11.6975 20.5 12.2498 20.5Z" fill="black"/>
<path d="M19.1548 10.0756C19.4168 10.5618 19.2352 11.1683 18.749 11.4304C18.4197 11.6079 18.0352 11.5817 17.7398 11.3952C17.5992 11.3065 17.4788 11.1813 17.3943 11.0246L17.3932 11.0227L17.3875 11.0122L17.3626 10.9669C17.34 10.9262 17.3058 10.8651 17.2608 10.7864C17.1709 10.629 17.0382 10.402 16.8701 10.1287C16.5327 9.58026 16.0584 8.85454 15.5054 8.13383C14.9479 7.4072 14.335 6.71811 13.7251 6.21977C13.0915 5.70205 12.5949 5.5001 12.2515 5.5001C11.9075 5.5001 11.4103 5.70226 10.7765 6.21994C10.1662 6.71829 9.55304 7.40738 8.99528 8.134C8.44208 8.85469 7.96756 9.5804 7.63009 10.1288C7.46195 10.4021 7.32921 10.6291 7.2392 10.7865C7.19397 10.8656 7.14899 10.9449 7.10557 11.025C6.84337 11.5109 6.23697 11.6924 5.75095 11.4303C5.26482 11.1682 5.08322 10.5616 5.34533 10.0755C5.39644 9.9808 5.44957 9.88718 5.503 9.79375C5.60217 9.62031 5.74587 9.37465 5.92673 9.08073C6.28726 8.4948 6.80099 7.70801 7.40879 6.9162C8.01203 6.13032 8.73258 5.30691 9.51137 4.67089C10.2665 4.05419 11.2136 3.5001 12.2515 3.5001C13.2892 3.5001 14.2359 4.0544 14.9906 4.67105C15.769 5.30709 16.4892 6.1305 17.0922 6.91637C17.6997 7.70816 18.2132 8.49494 18.5736 9.08087C18.7544 9.37478 18.8981 9.62044 18.9972 9.79388C19.0468 9.88064 19.0853 9.94948 19.1119 9.9974L19.1427 10.0533L19.1511 10.0688L19.1535 10.0733L19.1548 10.0756Z" fill="black"/>
</svg>