<svg width="24" height="24" viewBox="0 0 24 24" fill="none" xmlns="http://www.w3.org/2000/svg">
<path fill-rule="evenodd" clip-rule="evenodd" d="M18.871 5.09662C19.1639 5.38952 19.1639 5.86439 18.871 6.15728L11.3703 13.658L13.8311 13.6526C14.2453 13.6517 14.5819 13.9867 14.5828 14.4009C14.5837 14.8151 14.2486 15.1517 13.8344 15.1526L9.55731 15.1619C9.35789 15.1624 9.1665 15.0834 9.02546 14.9424C8.88441 14.8014 8.80532 14.6101 8.80567 14.4106L8.81307 10.1316C8.81379 9.71735 9.15016 9.38214 9.56437 9.38286C9.97858 9.38358 10.3138 9.71994 10.3131 10.1342L10.3088 12.5981L17.8103 5.09662C18.1032 4.80373 18.5781 4.80373 18.871 5.09662Z" fill="black"/>
<path fill-rule="evenodd" clip-rule="evenodd" d="M13.7773 3.87887C11.1257 3.30513 8.24967 4.04918 6.19071 6.10813C2.96929 9.32956 2.96867 14.5534 6.19071 17.7754C9.41275 20.9974 14.6365 20.9968 17.858 17.7754C19.9169 15.7164 20.661 12.8404 20.0872 10.1888C19.9996 9.78393 20.2568 9.38472 20.6617 9.29713C21.0665 9.20953 21.4657 9.46671 21.5533 9.87155C22.2303 13.0005 21.3531 16.4016 18.9186 18.8361C15.1115 22.6432 8.93795 22.644 5.13005 18.8361C1.32215 15.0282 1.32292 8.85461 5.13005 5.04747C7.56449 2.61303 10.9656 1.73577 14.0946 2.4128C14.4994 2.50039 14.7566 2.8996 14.669 3.30444C14.5814 3.70929 14.1822 3.96647 13.7773 3.87887Z" fill="black"/>
</svg>