<svg width="24" height="24" viewBox="0 0 24 24" fill="none" xmlns="http://www.w3.org/2000/svg">
<path fill-rule="evenodd" clip-rule="evenodd" d="M17.4697 8.46967C17.7626 8.17678 18.2374 8.17678 18.5303 8.46967L21.5303 11.4697C21.8232 11.7626 21.8232 12.2374 21.5303 12.5303L18.5303 15.5303C18.2374 15.8232 17.7626 15.8232 17.4697 15.5303C17.1768 15.2374 17.1768 14.7626 17.4697 14.4697L19.9393 12L17.4697 9.53033C17.1768 9.23744 17.1768 8.76256 17.4697 8.46967Z" fill="black"/>
<path fill-rule="evenodd" clip-rule="evenodd" d="M2.46967 8.46967C2.76256 8.17678 3.23744 8.17678 3.53033 8.46967L6.53033 11.4697C6.82322 11.7626 6.82322 12.2374 6.53033 12.5303L3.53033 15.5303C3.23744 15.8232 2.76256 15.8232 2.46967 15.5303C2.17678 15.2374 2.17678 14.7626 2.46967 14.4697L4.93934 12L2.46967 9.53033C2.17678 9.23744 2.17678 8.76256 2.46967 8.46967Z" fill="black"/>
<path fill-rule="evenodd" clip-rule="evenodd" d="M5.25 12C5.25 11.5858 5.58579 11.25 6 11.25H21C21.4142 11.25 21.75 11.5858 21.75 12C21.75 12.4142 21.4142 12.75 21 12.75H6C5.58579 12.75 5.25 12.4142 5.25 12Z" fill="black"/>
</svg>