<svg width="24" height="24" viewBox="0 0 24 24" fill="none" xmlns="http://www.w3.org/2000/svg">
<path fill-rule="evenodd" clip-rule="evenodd" d="M19.5308 12.5198C19.81 12.2295 19.81 11.7705 19.5308 11.4802C18.5823 10.4937 17.6081 9.52609 16.6413 8.56579C16.2726 8.19957 15.905 7.83441 15.5402 7.46967C15.2473 7.17678 14.7725 7.17678 14.4796 7.46967C14.1867 7.76256 14.1867 8.23744 14.4796 8.53033C14.8522 8.903 15.2246 9.27288 15.596 9.64173C16.136 10.1782 16.6739 10.7124 17.2074 11.25L8.0099 11.25C6.76726 11.25 5.7599 10.2426 5.7599 9L5.7599 8C5.7599 7.58579 5.42411 7.25 5.0099 7.25C4.59568 7.25 4.2599 7.58579 4.2599 8L4.2599 9C4.2599 11.0711 5.93883 12.75 8.0099 12.75L17.2074 12.75C16.6739 13.2876 16.136 13.8218 15.596 14.3583C15.2246 14.7271 14.8522 15.097 14.4796 15.4697C14.1867 15.7626 14.1867 16.2374 14.4796 16.5303C14.7725 16.8232 15.2473 16.8232 15.5402 16.5303C15.905 16.1656 16.2726 15.8004 16.6413 15.4342C17.6081 14.4739 18.5823 13.5063 19.5308 12.5198Z" fill="black"/>
</svg>