<svg width="25" height="24" viewBox="0 0 25 24" fill="none" xmlns="http://www.w3.org/2000/svg">
<path d="M13.2727 20.5539C13.1476 20.5541 13.0245 20.5228 12.9147 20.4629C12.6497 20.3189 6.43273 16.8889 4.91473 12.1569C4.88371 12.0629 4.87161 11.9637 4.87911 11.865C4.88662 11.7663 4.91358 11.6701 4.95846 11.5819C5.00333 11.4936 5.06522 11.4152 5.14057 11.351C5.21591 11.2868 5.30321 11.2381 5.39745 11.2079C5.49168 11.1776 5.59097 11.1662 5.68961 11.1745C5.78824 11.1828 5.88426 11.2105 5.97214 11.256C6.06001 11.3016 6.138 11.3641 6.2016 11.4399C6.26521 11.5158 6.31317 11.6034 6.34273 11.6979C7.48673 15.2549 11.9687 18.1539 13.2767 18.9369C13.5977 18.7439 14.1117 18.4219 14.7167 17.9969C14.8799 17.8904 15.078 17.8515 15.2694 17.8884C15.4607 17.9253 15.6302 18.0351 15.742 18.1946C15.8539 18.3541 15.8994 18.5508 15.8689 18.7433C15.8385 18.9357 15.7344 19.1088 15.5787 19.2259C14.9518 19.6716 14.3026 20.0851 13.6337 20.4649C13.5228 20.5245 13.3986 20.5551 13.2727 20.5539Z" fill="black"/>
<path d="M5.62394 9.70635C5.43572 9.70608 5.25448 9.63507 5.1162 9.50738C4.97791 9.37969 4.8927 9.20467 4.87746 9.01706C4.86223 8.82946 4.91809 8.64299 5.03396 8.49466C5.14982 8.34634 5.31723 8.24699 5.50294 8.21636L7.40294 7.90136L7.08094 6.00135C7.05392 5.8082 7.10321 5.61214 7.21834 5.45472C7.33347 5.2973 7.5054 5.19091 7.69765 5.15813C7.88991 5.12535 8.08737 5.16876 8.24816 5.27913C8.40895 5.38951 8.52043 5.55816 8.55894 5.74935L9.00794 8.39435C9.02456 8.49168 9.02179 8.59134 8.9998 8.6876C8.97781 8.78386 8.93702 8.87482 8.87979 8.95528C8.82256 9.03574 8.75 9.10412 8.66629 9.15647C8.58257 9.20882 8.48934 9.24412 8.39194 9.26035L5.74494 9.69936C5.70482 9.70449 5.66439 9.70682 5.62394 9.70635Z" fill="black"/>
<path d="M3.22945 8.03008C3.0419 8.0286 2.86169 7.95699 2.72428 7.82935C2.58686 7.70171 2.50217 7.52728 2.48688 7.34035C2.47158 7.15342 2.52678 6.96753 2.64163 6.81925C2.75647 6.67097 2.92263 6.57103 3.10745 6.53908L5.00745 6.22509L4.68545 4.32508C4.66848 4.22773 4.67091 4.12799 4.69261 4.03159C4.71431 3.93519 4.75485 3.84403 4.81189 3.76334C4.86894 3.68265 4.94136 3.61403 5.02501 3.56142C5.10865 3.50881 5.20187 3.47324 5.2993 3.45677C5.39674 3.44031 5.49646 3.44326 5.59275 3.46546C5.68904 3.48765 5.78 3.52865 5.86039 3.58611C5.94079 3.64356 6.00903 3.71634 6.06121 3.80025C6.11339 3.88416 6.14847 3.97756 6.16445 4.07508L6.61245 6.71907C6.62891 6.8164 6.62599 6.91603 6.60387 7.01223C6.58175 7.10843 6.54086 7.19932 6.48353 7.27968C6.42621 7.36004 6.35359 7.4283 6.26983 7.48053C6.18608 7.53277 6.09283 7.56796 5.99545 7.58408L3.34945 8.02208C3.30973 8.028 3.2696 8.03068 3.22945 8.03008Z" fill="black"/>
<path d="M10.143 10.5559C9.99021 10.5563 9.84108 10.5095 9.71596 10.4219L5.45296 7.45789C5.28958 7.34438 5.17799 7.17062 5.14274 6.97483C5.10748 6.77904 5.15144 6.57727 5.26496 6.4139C5.37847 6.25053 5.55223 6.13893 5.74802 6.10367C5.94381 6.06842 6.14558 6.11238 6.30896 6.2259L10.576 9.1899C10.7072 9.28104 10.8059 9.41169 10.8576 9.56283C10.9094 9.71396 10.9116 9.87769 10.8638 10.0301C10.816 10.1826 10.7208 10.3158 10.5921 10.4104C10.4633 10.5049 10.3077 10.5559 10.148 10.5559H10.143Z" fill="black"/>
<path d="M20.7605 18.1576L18.0195 18.1496C17.8206 18.1496 17.6299 18.0706 17.4892 17.93C17.3485 17.7893 17.2695 17.5985 17.2695 17.3996C17.2695 17.2007 17.3485 17.01 17.4892 16.8693C17.6299 16.7287 17.8206 16.6496 18.0195 16.6496L19.7355 16.6546L19.2035 14.9546C19.1478 14.766 19.1684 14.563 19.261 14.3894C19.3535 14.2158 19.5106 14.0855 19.6983 14.0266C19.886 13.9677 20.0893 13.9849 20.2644 14.0745C20.4396 14.1641 20.5725 14.319 20.6345 14.5056L21.4745 17.1806C21.5096 17.293 21.5179 17.4121 21.4985 17.5282C21.4791 17.6443 21.4327 17.7543 21.363 17.8492C21.2933 17.944 21.2023 18.0212 21.0973 18.0745C20.9923 18.1277 20.8763 18.1555 20.7585 18.1556L20.7605 18.1576Z" fill="black"/>
<path d="M20.7623 18.1567C20.6033 18.1568 20.4484 18.106 20.3203 18.0117L16.5483 15.2577C16.4676 15.2 16.3992 15.1269 16.3469 15.0426C16.2947 14.9584 16.2597 14.8646 16.2439 14.7667C16.2281 14.6688 16.232 14.5687 16.2551 14.4723C16.2783 14.3759 16.3203 14.285 16.3788 14.2049C16.4374 14.1249 16.5112 14.0572 16.596 14.0059C16.6808 13.9545 16.775 13.9205 16.873 13.9058C16.9711 13.8911 17.0711 13.8959 17.1673 13.9201C17.2635 13.9443 17.3539 13.9873 17.4333 14.0467L21.2053 16.8007C21.3333 16.894 21.4284 17.0254 21.4771 17.1761C21.5258 17.3268 21.5255 17.489 21.4763 17.6396C21.4272 17.7901 21.3316 17.9212 21.2033 18.0141C21.0751 18.107 20.9207 18.1569 20.7623 18.1567Z" fill="black"/>
<path d="M20.9217 12.6785C20.8441 12.6781 20.7669 12.6663 20.6927 12.6435C20.5034 12.5827 20.3459 12.4493 20.2548 12.2725C20.1636 12.0957 20.1464 11.89 20.2067 11.7005C20.9347 9.42348 20.2627 6.53847 17.5847 5.67647C16.9347 5.47263 16.2456 5.42553 15.5739 5.53902C14.9021 5.65252 14.2668 5.92338 13.7197 6.32947C13.5899 6.42684 13.432 6.47948 13.2697 6.47948C13.1075 6.47948 12.9496 6.42684 12.8197 6.32947C12.1728 5.84303 11.4007 5.55097 10.5937 5.48748C10.3954 5.47117 10.2117 5.3768 10.0829 5.22512C9.95404 5.07343 9.8907 4.87682 9.90674 4.67847C9.92653 4.48192 10.0216 4.30065 10.172 4.1726C10.3224 4.04454 10.5166 3.97964 10.7137 3.99148C11.6204 4.06382 12.4972 4.34924 13.2727 4.82448C13.9805 4.39592 14.7713 4.12291 15.5927 4.0236C16.4141 3.92428 17.2473 4.00094 18.0367 4.24848C21.5137 5.36848 22.5937 9.14848 21.6367 12.1585C21.5879 12.3096 21.4923 12.4414 21.3639 12.5348C21.2354 12.6283 21.0806 12.6786 20.9217 12.6785Z" fill="black"/>
</svg>