<svg width="24" height="24" viewBox="0 0 24 24" fill="none" xmlns="http://www.w3.org/2000/svg">
<path d="M4.50752 18.4976L5.25623 18.5416L4.50752 18.4976ZM5.04958 9.28357L4.30087 9.23952V9.23952L5.04958 9.28357ZM5.85241 8.97833L6.38274 8.448H6.38274L5.85241 8.97833ZM8.43993 11.5658L7.9096 12.0962C8.05025 12.2368 8.24102 12.3158 8.43993 12.3158C8.63884 12.3158 8.82961 12.2368 8.97026 12.0962L8.43993 11.5658ZM12.4058 7.59987L11.8755 7.06954L11.8755 7.06954L12.4058 7.59987ZM13.7373 7.59986L13.207 8.13019V8.13019L13.7373 7.59986ZM16.4003 10.2629L16.9307 9.73255L16.4003 10.2629ZM16.4003 11.5944L15.87 11.0641L15.87 11.0641L16.4003 11.5944ZM12.4345 15.5604L11.9041 15.0301C11.6112 15.3229 11.6112 15.7978 11.9041 16.0907L12.4345 15.5604ZM15.022 18.1479L14.4916 18.6782L15.022 18.1479ZM14.7167 18.9507L14.6727 18.202L14.7167 18.9507ZM5.50271 19.4928L5.54675 20.2415H5.54675L5.50271 19.4928ZM5.25623 18.5416L5.79828 9.32761L4.30087 9.23952L3.75882 18.4536L5.25623 18.5416ZM5.32208 9.50866L7.9096 12.0962L8.97026 11.0355L6.38274 8.448L5.32208 9.50866ZM8.97026 12.0962L12.9361 8.13019L11.8755 7.06954L7.90959 11.0355L8.97026 12.0962ZM13.207 8.13019L15.87 10.7932L16.9307 9.73255L14.2676 7.06953L13.207 8.13019ZM15.87 11.0641L11.9041 15.0301L12.9648 16.0907L16.9307 12.1247L15.87 11.0641ZM11.9041 16.0907L14.4916 18.6782L15.5523 17.6176L12.9648 15.03L11.9041 16.0907ZM14.6727 18.202L5.45866 18.7441L5.54675 20.2415L14.7608 19.6994L14.6727 18.202ZM14.4916 18.6782C14.3213 18.5078 14.4322 18.2162 14.6727 18.202L14.7608 19.6994C15.8123 19.6376 16.2971 18.3624 15.5523 17.6176L14.4916 18.6782ZM15.87 10.7932C15.9448 10.868 15.9448 10.9893 15.87 11.0641L16.9307 12.1247C17.5912 11.4642 17.5913 10.3931 16.9307 9.73255L15.87 10.7932ZM12.9361 8.1302C13.0109 8.05539 13.1322 8.0554 13.207 8.13019L14.2676 7.06953C13.6071 6.40894 12.536 6.40896 11.8755 7.06954L12.9361 8.1302ZM5.79828 9.32761C5.78413 9.56812 5.49246 9.67904 5.32208 9.50866L6.38274 8.448C5.63791 7.70317 4.36273 8.18802 4.30087 9.23952L5.79828 9.32761ZM3.75882 18.4536C3.69934 19.4646 4.53569 20.301 5.54675 20.2415L5.45866 18.7441C5.34418 18.7508 5.24949 18.6561 5.25623 18.5416L3.75882 18.4536Z" fill="black"/>
<path d="M15.5249 4.50586L19.4944 8.47532" stroke="black" stroke-width="1.5" stroke-linecap="round"/>
</svg>