<svg width="24" height="24" viewBox="0 0 24 24" fill="none" xmlns="http://www.w3.org/2000/svg">
<path fill-rule="evenodd" clip-rule="evenodd" d="M17.2941 13.5938C17.5875 13.3014 18.0624 13.3022 18.3548 13.5956L21.5312 16.7831C21.8229 17.0758 21.8229 17.5492 21.5312 17.8419L18.3548 21.0294C18.0624 21.3228 17.5875 21.3236 17.2941 21.0312C17.0007 20.7389 16.9999 20.264 17.2923 19.9706L19.1938 18.0625L3 18.0625C2.58579 18.0625 2.25 17.7267 2.25 17.3125C2.25 16.8983 2.58579 16.5625 3 16.5625L19.1938 16.5625L17.2923 14.6544C16.9999 14.361 17.0007 13.8861 17.2941 13.5938Z" fill="black"/>
<path fill-rule="evenodd" clip-rule="evenodd" d="M17.2941 2.96875C17.5875 2.67637 18.0624 2.67719 18.3548 2.97059L21.5312 6.15809C21.8229 6.45077 21.8229 6.92423 21.5312 7.21691L18.3548 10.4044C18.0624 10.6978 17.5875 10.6986 17.2941 10.4062C17.0007 10.1139 16.9999 9.63899 17.2923 9.34559L19.1938 7.4375H3C2.58579 7.4375 2.25 7.10171 2.25 6.6875C2.25 6.27329 2.58579 5.9375 3 5.9375H19.1938L17.2923 4.02941C16.9999 3.73601 17.0007 3.26114 17.2941 2.96875Z" fill="black"/>
</svg>