<svg width="24" height="24" viewBox="0 0 24 24" fill="none" xmlns="http://www.w3.org/2000/svg">
<path fill-rule="evenodd" clip-rule="evenodd" d="M2.25 12C2.25 6.61487 6.61487 2.25 12 2.25C17.3851 2.25 21.75 6.61487 21.75 12C21.75 17.3841 17.3852 21.75 12 21.75C6.61481 21.75 2.25 17.3841 2.25 12ZM12 3.75C7.44329 3.75 3.75 7.44329 3.75 12C3.75 16.5558 7.44335 20.25 12 20.25C16.5567 20.25 20.25 16.5558 20.25 12C20.25 7.44329 16.5567 3.75 12 3.75Z" fill="black"/>
<path fill-rule="evenodd" clip-rule="evenodd" d="M16.1126 7.8871C16.2947 8.06928 16.3707 8.33223 16.3136 8.58348L15.0676 14.0722C15.0071 14.3385 14.8066 14.5509 14.5442 14.6267C14.2818 14.7025 13.999 14.6296 13.8058 14.4365L12.2151 12.8457L8.94879 16.112C8.65589 16.4049 8.18102 16.4049 7.88813 16.112C7.59523 15.8191 7.59523 15.3442 7.88813 15.0513L11.1544 11.785L9.5632 10.1938C9.37007 10.0007 9.2972 9.71786 9.37296 9.45545C9.44872 9.19305 9.66114 8.99257 9.92749 8.93211L15.4162 7.68604C15.6674 7.62901 15.9304 7.70492 16.1126 7.8871ZM12.7697 11.279C12.762 11.2706 12.7541 11.2623 12.746 11.2542C12.7378 11.246 12.7295 11.2381 12.7211 11.2304L11.5847 10.094L14.5873 9.4124L13.9056 12.4149L12.7697 11.279Z" fill="black"/>
</svg>