<svg width="25" height="24" viewBox="0 0 25 24" fill="none" xmlns="http://www.w3.org/2000/svg">
<path fill-rule="evenodd" clip-rule="evenodd" d="M2.25 12C2.25 6.47784 6.72673 2 12.25 2C17.7722 2 22.25 6.47779 22.25 12C22.25 17.5222 17.7722 22 12.25 22C6.72673 22 2.25 17.5222 2.25 12ZM12.25 3.5C7.55527 3.5 3.75 7.30616 3.75 12C3.75 16.6938 7.55527 20.5 12.25 20.5C16.9438 20.5 20.75 16.6938 20.75 12C20.75 7.30621 16.9438 3.5 12.25 3.5Z" fill="black"/>
<path fill-rule="evenodd" clip-rule="evenodd" d="M8.78108 9.49695L12.2498 12.9807L15.7185 9.49695L16.7815 10.5553L12.2498 15.1066L7.71814 10.5553L8.78108 9.49695Z" fill="black"/>
</svg>