<svg width="24" height="24" viewBox="0 0 24 24" fill="none" xmlns="http://www.w3.org/2000/svg">
<path d="M19.4923 18.4976L18.7436 18.5416L19.4923 18.4976ZM18.9503 9.28357L19.699 9.23952V9.23952L18.9503 9.28357ZM18.1474 8.97833L17.6171 8.448L17.6171 8.448L18.1474 8.97833ZM15.5599 11.5658L15.0296 12.0962C15.1702 12.2368 15.361 12.3158 15.5599 12.3158C15.7588 12.3158 15.9496 12.2368 16.0902 12.0962L15.5599 11.5658ZM11.594 7.59987L12.1244 7.06954L12.1244 7.06954L11.594 7.59987ZM10.2625 7.59986L10.7928 8.13019L10.7928 8.13019L10.2625 7.59986ZM7.59949 10.2629L7.06916 9.73255H7.06916L7.59949 10.2629ZM7.5995 11.5944L8.12984 11.0641L8.12983 11.0641L7.5995 11.5944ZM11.5654 15.5604L12.0957 16.0907C12.3886 15.7978 12.3886 15.3229 12.0957 15.0301L11.5654 15.5604ZM8.97786 18.1479L9.50819 18.6782H9.50819L8.97786 18.1479ZM9.2831 18.9507L9.32715 18.202H9.32715L9.2831 18.9507ZM18.4971 19.4928L18.4531 20.2415L18.4971 19.4928ZM20.241 18.4536L19.699 9.23952L18.2016 9.32761L18.7436 18.5416L20.241 18.4536ZM17.6171 8.448L15.0296 11.0355L16.0902 12.0962L18.6778 9.50866L17.6171 8.448ZM16.0903 11.0355L12.1244 7.06954L11.0637 8.13019L15.0296 12.0962L16.0903 11.0355ZM9.73219 7.06953L7.06916 9.73255L8.12982 10.7932L10.7928 8.13019L9.73219 7.06953ZM7.06916 12.1247L11.035 16.0907L12.0957 15.0301L8.12984 11.0641L7.06916 12.1247ZM11.035 15.03L8.44753 17.6176L9.50819 18.6782L12.0957 16.0907L11.035 15.03ZM9.23906 19.6994L18.4531 20.2415L18.5412 18.7441L9.32715 18.202L9.23906 19.6994ZM8.44753 17.6176C7.7027 18.3624 8.18756 19.6376 9.23906 19.6994L9.32715 18.202C9.56765 18.2162 9.67857 18.5078 9.50819 18.6782L8.44753 17.6176ZM7.06916 9.73255C6.40858 10.3931 6.40859 11.4642 7.06917 12.1247L8.12983 11.0641C8.05503 10.9893 8.05504 10.868 8.12982 10.7932L7.06916 9.73255ZM12.1244 7.06954C11.4638 6.40896 10.3928 6.40894 9.73219 7.06953L10.7928 8.13019C10.8676 8.0554 10.9889 8.05539 11.0637 8.1302L12.1244 7.06954ZM19.699 9.23952C19.6371 8.18802 18.3619 7.70317 17.6171 8.448L18.6778 9.50866C18.5074 9.67904 18.2157 9.56812 18.2016 9.32761L19.699 9.23952ZM18.7436 18.5416C18.7503 18.6561 18.6557 18.7508 18.5412 18.7441L18.4531 20.2415C19.4642 20.301 20.3005 19.4646 20.241 18.4536L18.7436 18.5416Z" fill="black"/>
<path d="M8.47532 4.50586L4.50586 8.47532" stroke="black" stroke-width="1.5" stroke-linecap="round"/>
</svg>