<svg width="25" height="24" viewBox="0 0 25 24" fill="none" xmlns="http://www.w3.org/2000/svg">
<path fill-rule="evenodd" clip-rule="evenodd" d="M11.4386 6.91157C11.9746 7.44657 12.1596 9.25857 12.2096 11.0036L12.2156 13.0036C12.1626 15.2406 11.9026 16.6106 11.4386 17.0746C10.8746 17.6376 9.93458 17.3486 9.17858 17.0346C7.60958 16.3836 3.07358 13.6376 3.07358 11.9926C3.07358 10.2976 7.81158 7.56057 9.25058 6.96357C10.0326 6.63857 10.9036 6.37857 11.4386 6.91157Z" fill="black"/>
<path opacity="0.4" fill-rule="evenodd" clip-rule="evenodd" d="M12.2095 11.0038L20.4265 11.0038C20.9795 11.0038 21.4265 11.4508 21.4265 12.0038C21.4265 12.5568 20.9795 13.0038 20.4265 13.0038L12.2155 13.0038L12.2095 11.0038Z" fill="black"/>
</svg>