<svg width="24" height="24" viewBox="0 0 24 24" fill="none" xmlns="http://www.w3.org/2000/svg">
<path fill-rule="evenodd" clip-rule="evenodd" d="M12.1042 8.41712C12.3966 8.71052 12.3958 9.18539 12.1024 9.47778L10.3571 11.2171L20.9658 11.2171C21.3801 11.2171 21.7158 11.5529 21.7158 11.9671C21.7158 12.3813 21.3801 12.7171 20.9658 12.7171L10.3583 12.7171L12.1022 14.4533C12.3957 14.7456 12.3967 15.2204 12.1045 15.514C11.8122 15.8075 11.3374 15.8085 11.0438 15.5163L8.01283 12.4986C7.8715 12.3579 7.79204 12.1667 7.79199 11.9672C7.79195 11.7678 7.87132 11.5766 8.01258 11.4358L11.0436 8.41529C11.337 8.1229 11.8119 8.12372 12.1042 8.41712Z" fill="black"/>
<path fill-rule="evenodd" clip-rule="evenodd" d="M12.0342 3.71582C7.47839 3.71582 3.78418 7.40917 3.78418 11.9658C3.78418 16.5225 7.47839 20.2158 12.0342 20.2158C14.946 20.2158 17.5058 18.7083 18.9751 16.4276C19.1994 16.0794 19.6635 15.979 20.0117 16.2033C20.3599 16.4276 20.4604 16.8917 20.236 17.24C18.5022 19.9312 15.477 21.7158 12.0342 21.7158C6.65007 21.7158 2.28418 17.351 2.28418 11.9658C2.28418 6.58064 6.65007 2.21582 12.0342 2.21582C15.477 2.21582 18.5022 4.00044 20.236 6.69168C20.4604 7.03989 20.3599 7.50403 20.0117 7.72835C19.6635 7.95268 19.1994 7.85226 18.9751 7.50405C17.5058 5.22336 14.946 3.71582 12.0342 3.71582Z" fill="black"/>
</svg>