<svg width="24" height="24" viewBox="0 0 24 24" fill="none" xmlns="http://www.w3.org/2000/svg">
<path fill-rule="evenodd" clip-rule="evenodd" d="M12 2.25C12.4142 2.25 12.75 2.58579 12.75 3V21C12.75 21.4142 12.4142 21.75 12 21.75C11.5858 21.75 11.25 21.4142 11.25 21V3C11.25 2.58579 11.5858 2.25 12 2.25Z" fill="black"/>
<path fill-rule="evenodd" clip-rule="evenodd" d="M11.4697 2.46967C11.7626 2.17678 12.2374 2.17678 12.5303 2.46967L15.5303 5.46967C15.8232 5.76256 15.8232 6.23744 15.5303 6.53033C15.2374 6.82322 14.7626 6.82322 14.4697 6.53033L12 4.06066L9.53033 6.53033C9.23744 6.82322 8.76256 6.82322 8.46967 6.53033C8.17678 6.23744 8.17678 5.76256 8.46967 5.46967L11.4697 2.46967Z" fill="black"/>
<path fill-rule="evenodd" clip-rule="evenodd" d="M8.25 21C8.25 20.5858 8.58579 20.25 9 20.25H15C15.4142 20.25 15.75 20.5858 15.75 21C15.75 21.4142 15.4142 21.75 15 21.75H9C8.58579 21.75 8.25 21.4142 8.25 21Z" fill="black"/>
</svg>