<svg width="24" height="24" viewBox="0 0 24 24" fill="none" xmlns="http://www.w3.org/2000/svg">
<path fill-rule="evenodd" clip-rule="evenodd" d="M2.25 12C2.25 11.5858 2.58579 11.25 3 11.25H18C18.4142 11.25 18.75 11.5858 18.75 12C18.75 12.4142 18.4142 12.75 18 12.75H3C2.58579 12.75 2.25 12.4142 2.25 12Z" fill="black"/>
<path fill-rule="evenodd" clip-rule="evenodd" d="M6.53033 8.46967C6.82322 8.76256 6.82322 9.23744 6.53033 9.53033L4.06066 12L6.53033 14.4697C6.82322 14.7626 6.82322 15.2374 6.53033 15.5303C6.23744 15.8232 5.76256 15.8232 5.46967 15.5303L2.46967 12.5303C2.17678 12.2374 2.17678 11.7626 2.46967 11.4697L5.46967 8.46967C5.76256 8.17678 6.23744 8.17678 6.53033 8.46967Z" fill="black"/>
<path fill-rule="evenodd" clip-rule="evenodd" d="M21.5303 8.46967C21.8232 8.76256 21.8232 9.23744 21.5303 9.53033L19.0607 12L21.5303 14.4697C21.8232 14.7626 21.8232 15.2374 21.5303 15.5303C21.2374 15.8232 20.7626 15.8232 20.4697 15.5303L17.4697 12.5303C17.1768 12.2374 17.1768 11.7626 17.4697 11.4697L20.4697 8.46967C20.7626 8.17678 21.2374 8.17678 21.5303 8.46967Z" fill="black"/>
</svg>