<svg width="24" height="24" viewBox="0 0 24 24" fill="none" xmlns="http://www.w3.org/2000/svg">
<path fill-rule="evenodd" clip-rule="evenodd" d="M5.10596 5.10541C6.86953 3.34184 9.30805 2.24973 12.0002 2.24973C14.6924 2.24973 17.1309 3.34184 18.8945 5.1054C19.1874 5.3983 19.1874 5.87317 18.8945 6.16606C18.6016 6.45896 18.1267 6.45896 17.8338 6.16607C16.34 4.67231 14.2786 3.74973 12.0002 3.74973C9.72185 3.74973 7.66039 4.67231 6.16661 6.16607C5.87372 6.45896 5.39884 6.45896 5.10595 6.16607C4.81306 5.87317 4.81306 5.3983 5.10596 5.10541ZM12.4699 8.4694C12.7628 8.1765 13.2376 8.1765 13.5305 8.4694L16.5305 11.4694C16.6712 11.61 16.7502 11.8008 16.7502 11.9997C16.7502 12.1986 16.6712 12.3894 16.5305 12.5301L13.5305 15.5301C13.2376 15.8229 12.7628 15.8229 12.4699 15.5301C12.177 15.2372 12.177 14.7623 12.4699 14.4694L14.1895 12.7497H8.00019C7.58598 12.7497 7.25019 12.4139 7.25019 11.9997C7.25019 11.5855 7.58598 11.2497 8.00019 11.2497H14.1895L12.4699 9.53006C12.177 9.23716 12.177 8.76229 12.4699 8.4694ZM18.8945 17.8333C19.1874 18.1262 19.1874 18.6011 18.8945 18.894C17.131 20.6576 14.6924 21.7497 12.0002 21.7497C9.30802 21.7497 6.86948 20.6576 5.1059 18.894C4.81301 18.6011 4.81301 18.1262 5.1059 17.8333C5.3988 17.5404 5.87367 17.5404 6.16656 17.8333C7.66034 19.3271 9.72182 20.2497 12.0002 20.2497C14.2786 20.2497 16.3401 19.3271 17.8339 17.8333C18.1268 17.5404 18.6016 17.5404 18.8945 17.8333Z" fill="black"/>
</svg>