<svg width="24" height="24" viewBox="0 0 24 24" fill="none" xmlns="http://www.w3.org/2000/svg">
<path fill-rule="evenodd" clip-rule="evenodd" d="M18.4531 3.75885C19.4642 3.69937 20.3005 4.53572 20.241 5.54678L19.699 14.7608C19.6371 15.8123 18.3619 16.2972 17.6171 15.5523L15.5599 13.4952L12.1244 16.9308C11.4638 17.5914 10.3928 17.5914 9.73219 16.9308L7.06916 14.2678C6.40858 13.6072 6.40859 12.5362 7.06916 11.8756C7.06916 11.8756 7.06917 11.8756 7.06916 11.8756L10.5047 8.43996L8.44753 6.38277C7.7027 5.63794 8.18756 4.36276 9.23906 4.3009L18.4531 3.75885ZM18.7436 5.45869C18.7503 5.34422 18.6557 5.24952 18.5412 5.25626L9.94788 5.7618L12.0957 7.90963C12.3886 8.20252 12.3886 8.67739 12.0957 8.97028L8.12984 12.9363C8.05503 13.0111 8.05504 13.1323 8.12982 13.2071L10.7928 15.8701C10.8676 15.9449 10.9889 15.9449 11.0637 15.8701C11.0637 15.8701 11.0637 15.8701 11.0637 15.8701L15.0296 11.9042C15.1702 11.7635 15.361 11.6845 15.5599 11.6845C15.7588 11.6845 15.9496 11.7635 16.0902 11.9042L18.2381 14.052L18.7436 5.45869Z" fill="black"/>
<path fill-rule="evenodd" clip-rule="evenodd" d="M3.97553 14.9946C4.26842 14.7017 4.7433 14.7017 5.03619 14.9946L9.00565 18.964C9.29854 19.2569 9.29854 19.7318 9.00565 20.0247C8.71275 20.3176 8.23788 20.3176 7.94499 20.0247L3.97553 16.0552C3.68264 15.7623 3.68264 15.2875 3.97553 14.9946Z" fill="black"/>
</svg>