<svg width="24" height="24" viewBox="0 0 24 24" fill="none" xmlns="http://www.w3.org/2000/svg">
<path fill-rule="evenodd" clip-rule="evenodd" d="M5.96967 2.46967C6.26256 2.17678 6.73744 2.17678 7.03033 2.46967L10.5303 5.96967C10.8232 6.26256 10.8232 6.73744 10.5303 7.03033C10.2374 7.32322 9.76256 7.32322 9.46967 7.03033L7.25 4.81066V11.707C7.25 12.1212 6.91421 12.457 6.5 12.457C6.08579 12.457 5.75 12.1212 5.75 11.707V4.81066L3.53033 7.03033C3.23744 7.32322 2.76256 7.32322 2.46967 7.03033C2.17678 6.73744 2.17678 6.26256 2.46967 5.96967L5.96967 2.46967Z" fill="black"/>
<path fill-rule="evenodd" clip-rule="evenodd" d="M16.9697 5.96967C17.2626 5.67678 17.7374 5.67678 18.0303 5.96967L21.5303 9.46967C21.8232 9.76256 21.8232 10.2374 21.5303 10.5303L18.0303 14.0303C17.7374 14.3232 17.2626 14.3232 16.9697 14.0303C16.6768 13.7374 16.6768 13.2626 16.9697 12.9697L19.9393 10L16.9697 7.03033C16.6768 6.73744 16.6768 6.26256 16.9697 5.96967Z" fill="black"/>
<path fill-rule="evenodd" clip-rule="evenodd" d="M18 10.75C12.3391 10.75 7.75 15.3391 7.75 21C7.75 21.4142 7.41421 21.75 7 21.75C6.58579 21.75 6.25 21.4142 6.25 21C6.25 14.5107 11.5107 9.25 18 9.25H21C21.4142 9.25 21.75 9.58579 21.75 10C21.75 10.4142 21.4142 10.75 21 10.75H18Z" fill="black"/>
</svg>