<svg width="24" height="24" viewBox="0 0 24 24" fill="none" xmlns="http://www.w3.org/2000/svg">
<path fill-rule="evenodd" clip-rule="evenodd" d="M14.9766 8.99128C15.1176 9.13232 15.1966 9.32371 15.1961 9.52313L15.1867 13.8002C15.1858 14.2145 14.8493 14.5495 14.4351 14.5486C14.0209 14.5477 13.6858 14.2112 13.6867 13.7969L13.6921 11.3361L6.19146 18.8368C5.89857 19.1297 5.4237 19.1297 5.1308 18.8368C4.83791 18.5439 4.83791 18.069 5.1308 17.7761L12.6323 10.2746L10.1683 10.2789C9.75412 10.2796 9.41776 9.9444 9.41704 9.53019C9.41632 9.11598 9.75153 8.77961 10.1657 8.77889L14.4448 8.77149C14.6442 8.77114 14.8356 8.85023 14.9766 8.99128Z" fill="black"/>
<path fill-rule="evenodd" clip-rule="evenodd" d="M5.0814 5.09563C8.88854 1.28849 15.0621 1.28773 18.87 5.09563C22.6779 8.90353 22.6771 15.0771 18.87 18.8842C16.4356 21.3186 13.0345 22.1959 9.90549 21.5189C9.50064 21.4313 9.24346 21.0321 9.33106 20.6272C9.41866 20.2224 9.81786 19.9652 10.2227 20.0528C12.8743 20.6266 15.7504 19.8825 17.8093 17.8236C21.0308 14.6021 21.0314 9.37833 17.8093 6.15629C14.5873 2.93425 9.36349 2.93486 6.14207 6.15629C4.08311 8.21524 3.33906 11.0913 3.91281 13.7429C4.0004 14.1478 3.74322 14.547 3.33838 14.6346C2.93353 14.7222 2.53433 14.465 2.44673 14.0601C1.76971 10.9312 2.64697 7.53007 5.0814 5.09563Z" fill="black"/>
</svg>