<svg width="24" height="24" viewBox="0 0 24 24" fill="none" xmlns="http://www.w3.org/2000/svg">
<path fill-rule="evenodd" clip-rule="evenodd" d="M12 3.75C7.4433 3.75 3.75 7.44329 3.75 12C3.75 16.5558 7.44335 20.25 12 20.25C16.5567 20.25 20.25 16.5558 20.25 12C20.25 7.44329 16.5567 3.75 12 3.75ZM2.25 12C2.25 6.61487 6.61487 2.25 12 2.25C17.3851 2.25 21.75 6.61487 21.75 12C21.75 17.3841 17.3852 21.75 12 21.75C6.61481 21.75 2.25 17.3841 2.25 12Z" fill="black"/>
<path fill-rule="evenodd" clip-rule="evenodd" d="M7.88813 7.88715C8.18102 7.59426 8.65589 7.59426 8.94879 7.88715L12.2151 11.1534L13.8058 9.56267C13.999 9.36954 14.2818 9.29667 14.5442 9.37243C14.8066 9.4482 15.0071 9.66061 15.0676 9.92696L16.3136 15.4157C16.3707 15.6669 16.2947 15.9299 16.1126 16.112C15.9304 16.2942 15.6674 16.3701 15.4162 16.3131L9.92749 15.067C9.66114 15.0066 9.44872 14.8061 9.37296 14.5437C9.2972 14.2813 9.37007 13.9984 9.5632 13.8053L11.1544 12.2141L7.88813 8.94781C7.59523 8.65492 7.59523 8.18004 7.88813 7.88715ZM12.7211 12.7687L11.5847 13.9051L14.5873 14.5867L13.9056 11.5842L12.7697 12.7201C12.762 12.7286 12.7541 12.7368 12.746 12.745C12.7378 12.7531 12.7295 12.761 12.7211 12.7687Z" fill="black"/>
</svg>