<svg width="24" height="24" viewBox="0 0 24 24" fill="none" xmlns="http://www.w3.org/2000/svg">
<path fill-rule="evenodd" clip-rule="evenodd" d="M9.48624 6.46948C9.77917 6.76234 9.77922 7.23722 9.48636 7.53014L8.81084 8.20583H12.8102C14.4584 8.20583 15.7946 9.54203 15.7946 11.1903V15.1894L16.4696 14.5145C16.7625 14.2216 17.2373 14.2216 17.5302 14.5145C17.8231 14.8074 17.8231 15.2823 17.5302 15.5752L15.575 17.5303C15.4343 17.671 15.2435 17.75 15.0446 17.75C14.8457 17.75 14.655 17.671 14.5143 17.5303L12.5592 15.5751C12.2663 15.2822 12.2663 14.8074 12.5592 14.5145C12.8521 14.2216 13.327 14.2216 13.6199 14.5145L14.2946 15.1893V11.1903C14.2946 10.3705 13.63 9.70583 12.8102 9.70583H8.81186L9.48615 10.3797C9.77913 10.6726 9.77926 11.1474 9.48645 11.4404C9.19364 11.7334 8.71876 11.7335 8.42579 11.4407L6.47031 9.48631C6.3296 9.34568 6.25053 9.15491 6.25049 8.95598C6.25045 8.75705 6.32944 8.56625 6.47009 8.42556L8.42558 6.46961C8.71843 6.17668 9.19331 6.17663 9.48624 6.46948Z" fill="black"/>
<path fill-rule="evenodd" clip-rule="evenodd" d="M4.91988 4.835C4.1998 5.5056 3.75 6.49479 3.75 7.78411V16.2178C3.75 17.5066 4.19973 18.4952 4.91976 19.1655C5.64585 19.8414 6.70857 20.25 8.02638 20.25H15.9736C17.2905 20.25 18.3533 19.8398 19.0799 19.1625C19.8006 18.4908 20.25 17.5017 20.25 16.2178V7.78313C20.25 6.49437 19.8003 5.50542 19.0802 4.83492C18.354 4.15879 17.2913 3.75 15.9736 3.75H8.02638C6.70868 3.75 5.64599 4.15879 4.91988 4.835ZM3.89761 3.7373C4.94838 2.75873 6.39889 2.25 8.02638 2.25H15.9736C17.6011 2.25 19.0516 2.75872 20.1024 3.73714C21.1592 4.72117 21.75 6.12379 21.75 7.78313V16.2178C21.75 17.8733 21.1588 19.2753 20.1026 20.2598C19.0523 21.2388 17.6019 21.75 15.9736 21.75H8.02638C6.39899 21.75 4.94853 21.2416 3.89773 20.2634C2.84086 19.2796 2.25 17.8772 2.25 16.2178V7.78411C2.25 6.12435 2.8408 4.72148 3.89761 3.7373Z" fill="black"/>
</svg>