<svg width="24" height="24" viewBox="0 0 24 24" fill="none" xmlns="http://www.w3.org/2000/svg">
<path fill-rule="evenodd" clip-rule="evenodd" d="M13.2871 5.72482C13.287 5.72475 13.2872 5.7249 13.2871 5.72482V5.72482ZM13.7519 6.13792L20.1857 11.8568C20.2714 11.933 20.2714 12.0669 20.1857 12.1431L13.7519 17.862V14.8245C13.7519 14.6256 13.6728 14.4349 13.5322 14.2942C13.3915 14.1536 13.2008 14.0745 13.0018 14.0745L7.39319 14.0746C7.2874 14.0746 7.20166 13.9889 7.20166 13.8831V10.117C7.20166 10.0112 7.2874 9.92548 7.39319 9.92548L13.0019 9.92541C13.4161 9.92541 13.7519 9.58962 13.7519 9.17541V6.13792ZM12.2519 5.51611C12.2519 4.46277 13.4964 3.90392 14.2837 4.6037L21.1822 10.7357C21.9392 11.4086 21.9392 12.5914 21.1822 13.2642L14.2837 19.3963C13.4964 20.096 12.2519 19.5372 12.2519 18.4838V15.5746L7.39319 15.5746C6.45899 15.5746 5.70166 14.8173 5.70166 13.8831V10.117C5.70166 9.1828 6.45899 8.42549 7.39318 8.42548C7.39318 8.42548 7.39319 8.42548 7.39318 8.42548L12.2519 8.42542V5.51611Z" fill="black"/>
<path fill-rule="evenodd" clip-rule="evenodd" d="M3 8.44312C3.41421 8.44312 3.75 8.7789 3.75 9.19312V14.8068C3.75 15.221 3.41421 15.5568 3 15.5568C2.58579 15.5568 2.25 15.221 2.25 14.8068V9.19312C2.25 8.7789 2.58579 8.44312 3 8.44312Z" fill="black"/>
</svg>