<svg width="24" height="24" viewBox="0 0 24 24" fill="none" xmlns="http://www.w3.org/2000/svg">
<g opacity="0.4">
<path d="M12 4.12017L9.25612 3L5.08537 5.72856V8.73174L3 9.80373V14.1965L5.08537 15.2679V18.2679L9.25612 21L12 19.875" stroke="black" stroke-width="1.5" stroke-linecap="round" stroke-linejoin="round"/>
<path d="M12 18.125V19.8798L14.7439 21L18.9146 18.2714V15.2683L21 14.1963V9.80348L18.9146 8.73206V5.7321L14.7439 3L12 4.12498V5.87587" stroke="black" stroke-width="1.5" stroke-linecap="round" stroke-linejoin="round"/>
</g>
<path fill-rule="evenodd" clip-rule="evenodd" d="M12 15.6091C12 15.6091 14.9364 14.7201 14.9364 12.2692C14.9364 9.81833 15.043 9.62836 14.8073 9.3908C14.5711 9.15284 12.3853 8.39258 12 8.39258C11.6152 8.39258 9.42897 9.1548 9.19283 9.3908C8.95709 9.6264 9.06413 9.81793 9.06413 12.2692C9.06413 14.7205 12 15.6091 12 15.6091Z" stroke="black" stroke-width="1.5" stroke-linecap="round" stroke-linejoin="round"/>
</svg>