<svg width="24" height="24" viewBox="0 0 24 24" fill="none" xmlns="http://www.w3.org/2000/svg">
<path d="M12 4.12017L9.25612 3L5.08537 5.72856V8.73174L3 9.80373V14.1965L5.08537 15.2679V18.2679L9.25612 21L12 19.875" stroke="black" stroke-width="1.5" stroke-linecap="round" stroke-linejoin="round"/>
<path d="M12 18.125V19.8798L14.7439 21L18.9146 18.2714V15.2683L21 14.1963V9.80348L18.9146 8.73206V5.7321L14.7439 3L12 4.12498V5.87587" stroke="black" stroke-width="1.5" stroke-linecap="round" stroke-linejoin="round"/>
<path fill-rule="evenodd" clip-rule="evenodd" d="M12.0002 15.6091C12.0002 15.6091 14.9365 14.7201 14.9365 12.2692C14.9365 9.81833 15.0432 9.62836 14.8074 9.3908C14.5713 9.15284 12.3855 8.39258 12.0002 8.39258C11.6153 8.39258 9.42912 9.1548 9.19298 9.3908C8.95724 9.6264 9.06429 9.81793 9.06429 12.2692C9.06429 14.7205 12.0002 15.6091 12.0002 15.6091Z" stroke="black" stroke-width="1.5" stroke-linecap="round" stroke-linejoin="round"/>
</svg>