<svg width="24" height="24" viewBox="0 0 24 24" fill="none" xmlns="http://www.w3.org/2000/svg">
<path fill-rule="evenodd" clip-rule="evenodd" d="M9.53939 2.30564C9.31112 2.21245 9.05164 2.2374 8.84532 2.37238L4.67458 5.10094C4.4628 5.23948 4.33517 5.47549 4.33517 5.72856V8.27399L2.65692 9.1367C2.40695 9.2652 2.2498 9.52267 2.2498 9.80373V14.1965C2.2498 14.4776 2.40701 14.7352 2.65706 14.8636L4.33517 15.7258V18.2679C4.33517 18.5208 4.46264 18.7567 4.6742 18.8953L8.84495 21.6274C9.05165 21.7628 9.31179 21.7877 9.54043 21.6939L12.2843 20.569C12.6676 20.4118 12.8509 19.9738 12.6937 19.5905C12.5366 19.2073 12.0985 19.0239 11.7153 19.1811L9.33667 20.1563L5.83517 17.8626V15.2679C5.83517 14.9868 5.67796 14.7293 5.42792 14.6008L3.7498 13.7387V10.2615L5.42806 9.39877C5.67803 9.27028 5.83517 9.01281 5.83517 8.73174V6.13414L9.337 3.8432L11.7163 4.81454C12.0998 4.97109 12.5376 4.78713 12.6942 4.40364C12.8507 4.02015 12.6668 3.58236 12.2833 3.4258L9.53939 2.30564Z" fill="black"/>
<path fill-rule="evenodd" clip-rule="evenodd" d="M14.4604 21.6944C14.6887 21.7876 14.9482 21.7626 15.1545 21.6276L19.3252 18.8991C19.537 18.7605 19.6646 18.5245 19.6646 18.2714V15.726L21.3429 14.8633C21.5929 14.7348 21.75 14.4773 21.75 14.1963V9.80347C21.75 9.52235 21.5928 9.26484 21.3427 9.13637L19.6646 8.27419V5.7321C19.6646 5.47919 19.5372 5.24331 19.3256 5.10472L15.1549 2.37262C14.9481 2.23722 14.688 2.21232 14.4594 2.30606L11.7155 3.43104C11.4339 3.54649 11.25 3.82065 11.25 4.12498V6.19207C11.25 6.60629 11.5858 6.94207 12 6.94207C12.4142 6.94207 12.75 6.60629 12.75 6.19207V4.62807L14.6631 3.84369L18.1646 6.13739V8.73206C18.1646 9.01318 18.3218 9.27069 18.5719 9.39916L20.25 10.2613V13.7385L18.5717 14.6012C18.3218 14.7297 18.1646 14.9872 18.1646 15.2683V17.8659L14.6628 20.1568L12.75 19.3759V17.8868C12.75 17.4726 12.4142 17.1368 12 17.1368C11.5858 17.1368 11.25 17.4726 11.25 17.8868V19.8798C11.25 20.1846 11.4344 20.459 11.7165 20.5742L14.4604 21.6944Z" fill="black"/>
<path fill-rule="evenodd" clip-rule="evenodd" d="M12.7663 7.06226C10.4315 6.58971 8.38574 8.35327 8.38574 10.5959C8.38574 12.0869 9.28896 13.3636 10.5781 13.9071C10.856 14.0243 11.0367 14.2966 11.0367 14.5982V16.0493C11.0367 16.5796 11.4741 17.0166 12.0034 17.0166C12.5335 17.0166 12.9706 16.5795 12.9706 16.0493V14.6057C12.9706 14.3044 13.151 14.0323 13.4286 13.9149C14.9269 13.2815 15.9089 11.6259 15.5339 9.81819C15.2479 8.45 14.1341 7.34226 12.7663 7.06226ZM6.88574 10.5959C6.88574 7.41824 9.78754 4.92836 13.0648 5.59226L13.0662 5.59254C15.0203 5.99216 16.5939 7.55689 17.0023 9.51186L17.0025 9.51281C17.4899 11.8607 16.3398 14.0481 14.4706 15.0746V16.0493C14.4706 17.4079 13.3619 18.5166 12.0034 18.5166C10.6453 18.5166 9.53675 17.4077 9.53675 16.0493V15.0681C7.95698 14.2055 6.88574 12.5273 6.88574 10.5959Z" fill="black"/>
<path fill-rule="evenodd" clip-rule="evenodd" d="M9.60352 14.6074C9.60352 14.1932 9.9393 13.8574 10.3535 13.8574H13.7245C14.1387 13.8574 14.4745 14.1932 14.4745 14.6074C14.4745 15.0216 14.1387 15.3574 13.7245 15.3574H10.3535C9.9393 15.3574 9.60352 15.0216 9.60352 14.6074Z" fill="black"/>
<path fill-rule="evenodd" clip-rule="evenodd" d="M12.3631 8.16155C12.727 8.3594 12.8616 8.8148 12.6638 9.1787L12.3513 9.75343H12.9112C13.1758 9.75343 13.4209 9.89288 13.556 10.1204C13.6912 10.3479 13.6964 10.6298 13.5698 10.8622L12.6536 12.5445C12.4554 12.9083 11.9999 13.0426 11.6362 12.8444C11.2724 12.6463 11.1381 12.1908 11.3363 11.8271L11.6487 11.2534H11.0898C10.8253 11.2534 10.5804 11.1141 10.4452 10.8867C10.31 10.6593 10.3046 10.3776 10.4309 10.1452L11.346 8.46221C11.5438 8.0983 11.9992 7.96369 12.3631 8.16155Z" fill="black"/>
</svg>