<svg width="24" height="24" viewBox="0 0 24 24" fill="none" xmlns="http://www.w3.org/2000/svg">
<path d="M8.81278 19.3145C9.8038 19.8355 10.1104 21.5009 10.1104 21.5009" stroke="black" stroke-width="1.5" stroke-linecap="round"/>
<path d="M10.8579 17.1943C10.62 18.0562 10.6599 18.8798 9.74942 19.0805L6.965 19.7083C6.31332 19.8455 5.73023 19.5196 5.62733 18.8336L5.31708 16.1905C5.26301 15.9088 5.06752 15.675 4.79992 15.5718L3.87242 15.2141C3.38228 15.0251 3.22419 14.4605 3.53788 14.0392C4.25039 13.0821 5.25593 11.5177 4.95196 10.1404C4.38169 7.5566 5.48307 5.61353 7.36611 4.02541C8.3995 3.15383 9.58898 2.73373 10.8579 2.57617" stroke="black" stroke-width="1.5" stroke-linecap="round"/>
<path d="M18.0188 3.69141H15.5096C14.6326 3.69141 14.0868 4.31052 14.0868 5.18666V7.55081C14.0868 8.42695 14.6326 9.04606 15.5099 9.04606H18.0188C18.8958 9.04606 19.4414 8.42695 19.4414 7.55081V5.18666C19.4414 4.31052 18.8932 3.69141 18.0188 3.69141Z" stroke="black" stroke-width="1.5" stroke-linecap="round" stroke-linejoin="round"/>
<path d="M15.541 2.5L15.541 3.68647" stroke="black" stroke-width="1.5" stroke-linecap="round" stroke-linejoin="round"/>
<path d="M17.9756 2.5L17.9756 3.68647" stroke="black" stroke-width="1.5" stroke-linecap="round" stroke-linejoin="round"/>
<path d="M15.541 9.04688L15.541 10.2333" stroke="black" stroke-width="1.5" stroke-linecap="round" stroke-linejoin="round"/>
<path d="M17.9756 9.04688L17.9756 10.2333" stroke="black" stroke-width="1.5" stroke-linecap="round" stroke-linejoin="round"/>
<path d="M12.8916 7.58398L14.0781 7.58398" stroke="black" stroke-width="1.5" stroke-linecap="round" stroke-linejoin="round"/>
<path d="M12.8916 5.15039L14.0781 5.15039" stroke="black" stroke-width="1.5" stroke-linecap="round" stroke-linejoin="round"/>
<path d="M19.4385 7.58398L20.6249 7.58398" stroke="black" stroke-width="1.5" stroke-linecap="round" stroke-linejoin="round"/>
<path d="M19.4385 5.15039L20.6249 5.15039" stroke="black" stroke-width="1.5" stroke-linecap="round" stroke-linejoin="round"/>
<path d="M19.6914 12.8633C18.2362 15.468 17.564 18.4308 18.8066 21.2645" stroke="black" stroke-width="1.5" stroke-linecap="round"/>
</svg>