<svg width="24" height="24" viewBox="0 0 24 24" fill="none" xmlns="http://www.w3.org/2000/svg">
<path fill-rule="evenodd" clip-rule="evenodd" d="M8.0334 5.21401C8.0334 3.65467 9.29744 2.39063 10.8568 2.39063L11.9201 2.39063C12.3343 2.39063 12.6701 2.72641 12.6701 3.14063C12.6701 3.55484 12.3343 3.89063 11.9201 3.89063L10.8568 3.89063C10.1259 3.89063 9.5334 4.48309 9.5334 5.21401C9.5334 6.66166 7.96676 7.56632 6.71291 6.84193C6.08007 6.47662 5.27108 6.69348 4.90542 7.32691L4.15838 8.62049C4.15836 8.62053 4.1584 8.62045 4.15838 8.62049C3.79285 9.25385 4.00954 10.0627 4.6424 10.428C5.89512 11.1521 5.89688 12.961 4.6424 13.6848C4.00942 14.0502 3.79292 14.8598 4.15822 15.492L4.90542 16.7868C4.9054 16.7868 4.90544 16.7869 4.90542 16.7868C5.27079 17.4196 6.07956 17.6364 6.71291 17.2708C7.96599 16.5482 9.5334 17.4513 9.5334 18.8988C9.5334 19.6301 10.1263 20.2231 10.8568 20.2231L11.92 20.2231C12.3343 20.2231 12.67 20.5589 12.67 20.9731C12.67 21.3873 12.3343 21.7231 11.92 21.7231L10.8568 21.7231C9.29698 21.7231 8.0334 20.4577 8.0334 18.8988C8.0334 18.6074 7.71727 18.4234 7.46282 18.5699C6.11246 19.3494 4.38612 18.8876 3.60633 17.5367L2.85945 16.2425C2.85938 16.2423 2.85952 16.2426 2.85945 16.2425C2.07992 14.8929 2.54184 13.1654 3.89249 12.3857C4.14531 12.2399 4.14688 11.8741 3.89212 11.7269C2.54156 10.947 2.07985 9.22082 2.85929 7.87058L3.60633 6.577C3.60631 6.57704 3.60635 6.57696 3.60633 6.577C4.38584 5.22678 6.11196 4.76305 7.46282 5.54285C7.71648 5.68946 8.0334 5.50706 8.0334 5.21401Z" fill="black"/>
<path fill-rule="evenodd" clip-rule="evenodd" d="M11.5664 10.4355C10.6703 10.4355 9.94434 11.1615 9.94434 12.0576C9.94434 12.9538 10.6703 13.6797 11.5664 13.6797C11.9806 13.6797 12.3164 14.0155 12.3164 14.4297C12.3164 14.844 11.9806 15.1797 11.5664 15.1797C9.84189 15.1797 8.44434 13.7822 8.44434 12.0576C8.44434 10.3331 9.84189 8.93555 11.5664 8.93555C11.9806 8.93555 12.3164 9.27133 12.3164 9.68555C12.3164 10.0998 11.9806 10.4355 11.5664 10.4355Z" fill="black"/>
<path fill-rule="evenodd" clip-rule="evenodd" d="M11.5674 5.56445C11.9816 5.56445 12.3174 5.90024 12.3174 6.31445L12.3174 17.7999C12.3174 18.2142 11.9816 18.5499 11.5674 18.5499C11.1532 18.5499 10.8174 18.2142 10.8174 17.7999L10.8174 6.31445C10.8174 5.90024 11.1532 5.56445 11.5674 5.56445Z" fill="black"/>
<path fill-rule="evenodd" clip-rule="evenodd" d="M18.4107 7.71849C18.6654 8.04512 18.6072 8.5164 18.2805 8.77113L16.4612 10.19C16.2101 10.3858 15.9009 10.4921 15.5826 10.4921L11.5674 10.4921C11.1532 10.4921 10.8174 10.1563 10.8174 9.74212C10.8174 9.32791 11.1532 8.99212 11.5674 8.99212L15.558 8.99212L17.3581 7.58831C17.6847 7.33358 18.156 7.39186 18.4107 7.71849Z" fill="black"/>
<path fill-rule="evenodd" clip-rule="evenodd" d="M18.9795 7.36338C18.9795 7.52836 18.8457 7.66211 18.6808 7.66211C18.5158 7.66211 18.382 7.52836 18.382 7.36338C18.382 7.1984 18.5158 7.06465 18.6808 7.06465C18.8457 7.06465 18.9795 7.1984 18.9795 7.36338ZM18.6808 9.16211C19.6742 9.16211 20.4795 8.35679 20.4795 7.36338C20.4795 6.36997 19.6742 5.56465 18.6808 5.56465C17.6874 5.56465 16.882 6.36997 16.882 7.36338C16.882 8.35679 17.6874 9.16211 18.6808 9.16211Z" fill="black"/>
<path fill-rule="evenodd" clip-rule="evenodd" d="M15.7568 4.04893C15.7568 4.21391 15.6231 4.34766 15.4581 4.34766C15.2931 4.34766 15.1594 4.21391 15.1594 4.04893C15.1594 3.88395 15.2931 3.7502 15.4581 3.7502C15.6231 3.7502 15.7568 3.88395 15.7568 4.04893ZM15.4581 5.84766C16.4515 5.84766 17.2568 5.04234 17.2568 4.04893C17.2568 3.05552 16.4515 2.2502 15.4581 2.2502C14.4647 2.2502 13.6594 3.05552 13.6594 4.04893C13.6594 5.04234 14.4647 5.84766 15.4581 5.84766Z" fill="black"/>
<path fill-rule="evenodd" clip-rule="evenodd" d="M15.3942 4.34328C15.7807 4.49215 15.9734 4.92618 15.8245 5.31272L14.9738 7.52164C14.7858 7.99665 14.3267 8.30864 13.8158 8.30864L11.5674 8.30864C11.1532 8.30864 10.8174 7.97286 10.8174 7.55864C10.8174 7.14443 11.1532 6.80864 11.5674 6.80864L13.641 6.80864L14.4247 4.77362C14.5736 4.38708 15.0076 4.19442 15.3942 4.34328Z" fill="black"/>
<path fill-rule="evenodd" clip-rule="evenodd" d="M19.3418 12.0078C19.3418 11.5936 19.006 11.2578 18.5918 11.2578L11.5671 11.2578C11.1529 11.2578 10.8171 11.5936 10.8171 12.0078C10.8171 12.422 11.1529 12.7578 11.5671 12.7578L18.5918 12.7578C19.006 12.7578 19.3418 12.422 19.3418 12.0078Z" fill="black"/>
<path fill-rule="evenodd" clip-rule="evenodd" d="M18.4107 16.2815C18.6654 15.9549 18.6072 15.4836 18.2805 15.2289L16.4612 13.81C16.2101 13.6142 15.9009 13.5079 15.5826 13.5079L11.5674 13.5079C11.1532 13.5079 10.8174 13.8437 10.8174 14.2579C10.8174 14.6721 11.1532 15.0079 11.5674 15.0079L15.558 15.0079L17.3581 16.4117C17.6847 16.6664 18.156 16.6081 18.4107 16.2815Z" fill="black"/>
<path fill-rule="evenodd" clip-rule="evenodd" d="M18.9795 16.6366C18.9795 16.4716 18.8457 16.3379 18.6808 16.3379C18.5158 16.3379 18.382 16.4716 18.382 16.6366C18.382 16.8016 18.5158 16.9353 18.6808 16.9353C18.8457 16.9353 18.9795 16.8016 18.9795 16.6366ZM18.6808 14.8379C19.6742 14.8379 20.4795 15.6432 20.4795 16.6366C20.4795 17.63 19.6742 18.4353 18.6808 18.4353C17.6874 18.4353 16.882 17.63 16.882 16.6366C16.882 15.6432 17.6874 14.8379 18.6808 14.8379Z" fill="black"/>
<path fill-rule="evenodd" clip-rule="evenodd" d="M20.0195 12.0079C20.0195 12.1729 19.8858 12.3066 19.7208 12.3066C19.5558 12.3066 19.4221 12.1729 19.4221 12.0079C19.4221 11.8429 19.5558 11.7092 19.7208 11.7092C19.8858 11.7092 20.0195 11.8429 20.0195 12.0079ZM19.7208 13.8066C20.7142 13.8066 21.5195 13.0013 21.5195 12.0079C21.5195 11.0145 20.7142 10.2092 19.7208 10.2092C18.7274 10.2092 17.9221 11.0145 17.9221 12.0079C17.9221 13.0013 18.7274 13.8066 19.7208 13.8066Z" fill="black"/>
<path fill-rule="evenodd" clip-rule="evenodd" d="M15.7568 19.9511C15.7568 19.7861 15.6231 19.6523 15.4581 19.6523C15.2931 19.6523 15.1594 19.7861 15.1594 19.9511C15.1594 20.1161 15.2931 20.2498 15.4581 20.2498C15.6231 20.2498 15.7568 20.1161 15.7568 19.9511ZM15.4581 18.1523C16.4515 18.1523 17.2568 18.9577 17.2568 19.9511C17.2568 20.9445 16.4515 21.7498 15.4581 21.7498C14.4647 21.7498 13.6594 20.9445 13.6594 19.9511C13.6594 18.9577 14.4647 18.1523 15.4581 18.1523Z" fill="black"/>
<path fill-rule="evenodd" clip-rule="evenodd" d="M15.3942 19.6567C15.7807 19.5078 15.9734 19.0738 15.8245 18.6873L14.9738 16.4784C14.7858 16.0034 14.3267 15.6914 13.8158 15.6914L11.5674 15.6914C11.1532 15.6914 10.8174 16.0271 10.8174 16.4414C10.8174 16.8556 11.1532 17.1914 11.5674 17.1914L13.641 17.1914L14.4247 19.2264C14.5736 19.6129 15.0076 19.8056 15.3942 19.6567Z" fill="black"/>
</svg>