<svg width="24" height="24" viewBox="0 0 24 24" fill="none" xmlns="http://www.w3.org/2000/svg">
<path d="M10.1177 22.2789C9.76766 22.2789 9.44766 22.0289 9.37766 21.6689C9.29766 21.2389 8.96766 20.2689 8.46766 20.0089C8.09766 19.8189 7.95766 19.3589 8.15766 18.9989C8.34766 18.6289 8.80766 18.4889 9.16766 18.6889C10.4477 19.3589 10.8177 21.1989 10.8577 21.3989C10.9277 21.8089 10.6677 22.1989 10.2577 22.2689C10.2077 22.2689 10.1677 22.2789 10.1177 22.2789Z" fill="black"/>
<path d="M5.62802 20.1991C5.22802 19.9191 4.96802 19.4891 4.88802 18.9691L4.57802 16.2991L3.60802 15.9391C3.15802 15.7691 2.81802 15.4091 2.68802 14.9491C2.55802 14.4891 2.64802 14.0091 2.93802 13.6191C3.96802 12.2391 4.39802 11.1291 4.21802 10.3291C3.63802 7.71912 4.50802 5.47912 6.87802 3.47912C7.95802 2.57912 9.22802 2.04912 10.778 1.85912C11.188 1.80912 11.568 2.09912 11.618 2.50912C11.668 2.91912 11.378 3.29912 10.968 3.34912C9.71802 3.50912 8.69802 3.91912 7.86802 4.62912C5.93802 6.25912 5.24802 7.96912 5.69802 10.0091C5.97802 11.2691 5.46802 12.7491 4.15802 14.5191L5.08802 14.9091C5.59802 15.1091 5.96802 15.5491 6.06802 16.0891L6.38802 18.7891C6.39802 18.8691 6.43802 18.9391 6.49802 18.9791C6.56802 19.0291 6.68802 19.0391 6.82802 19.0191L9.59802 18.3891C9.80802 18.3391 9.86802 18.2991 10.018 17.5791C10.058 17.3991 10.098 17.2191 10.148 17.0291C10.258 16.6291 10.668 16.3991 11.068 16.5091C11.468 16.6191 11.698 17.0291 11.588 17.4291C11.548 17.5891 11.508 17.7391 11.478 17.8891C11.328 18.5991 11.118 19.5791 9.91802 19.8491L7.13802 20.4791C6.66884 20.573 6.0195 20.4732 5.62802 20.1991Z" fill="black"/>
<path d="M18.0277 9.82875H15.5177C14.2377 9.82875 13.3477 8.90875 13.3477 7.57875V5.21875C13.3477 3.89875 14.2377 2.96875 15.5177 2.96875H18.0277C19.3077 2.96875 20.1977 3.88875 20.1977 5.21875V7.57875C20.1977 8.89875 19.3077 9.82875 18.0277 9.82875ZM15.5177 4.47875C14.9577 4.47875 14.8477 4.88875 14.8477 5.22875V7.58875C14.8477 7.92875 14.9677 8.33875 15.5177 8.33875H18.0277C18.5877 8.33875 18.6977 7.92875 18.6977 7.58875V5.22875C18.6977 4.88875 18.5777 4.47875 18.0277 4.47875H15.5177Z" fill="black"/>
<path d="M15.5479 4.4693C15.1379 4.4693 14.7979 4.1293 14.7979 3.7193V2.5293C14.7979 2.1193 15.1379 1.7793 15.5479 1.7793C15.9579 1.7793 16.2979 2.1193 16.2979 2.5293V3.7193C16.2979 4.1293 15.9579 4.4693 15.5479 4.4693Z" fill="black"/>
<path d="M17.9873 4.4693C17.5773 4.4693 17.2373 4.1293 17.2373 3.7193V2.5293C17.2373 2.1193 17.5673 1.7793 17.9873 1.7793C18.4073 1.7793 18.7373 2.1193 18.7373 2.5293V3.7193C18.7373 4.1293 18.3973 4.4693 17.9873 4.4693Z" fill="black"/>
<path d="M15.5479 11.0084C15.1379 11.0084 14.7979 10.6684 14.7979 10.2584V9.06836C14.7979 8.65836 15.1379 8.31836 15.5479 8.31836C15.9579 8.31836 16.2979 8.65836 16.2979 9.06836V10.2584C16.2979 10.6684 15.9579 11.0084 15.5479 11.0084Z" fill="black"/>
<path d="M17.9873 11.0084C17.5773 11.0084 17.2373 10.6684 17.2373 10.2584V9.06836C17.2373 8.65836 17.5773 8.31836 17.9873 8.31836C18.3973 8.31836 18.7373 8.65836 18.7373 9.06836V10.2584C18.7373 10.6684 18.3973 11.0084 17.9873 11.0084Z" fill="black"/>
<path d="M14.0875 8.35938H12.8975C12.4875 8.35938 12.1475 8.01937 12.1475 7.60938C12.1475 7.19938 12.4875 6.85938 12.8975 6.85938H14.0875C14.4975 6.85938 14.8375 7.19938 14.8375 7.60938C14.8375 8.01937 14.4975 8.35938 14.0875 8.35938Z" fill="black"/>
<path d="M14.0875 5.92969H12.8975C12.4875 5.92969 12.1475 5.58969 12.1475 5.17969C12.1475 4.76969 12.4875 4.42969 12.8975 4.42969H14.0875C14.4975 4.42969 14.8375 4.76969 14.8375 5.17969C14.8375 5.58969 14.4975 5.92969 14.0875 5.92969Z" fill="black"/>
<path d="M20.6275 8.35938H19.4375C19.0275 8.35938 18.6875 8.01937 18.6875 7.60938C18.6875 7.19938 19.0275 6.85938 19.4375 6.85938H20.6275C21.0375 6.85938 21.3775 7.19938 21.3775 7.60938C21.3775 8.01937 21.0375 8.35938 20.6275 8.35938Z" fill="black"/>
<path d="M20.6275 5.92969H19.4375C19.0275 5.92969 18.6875 5.58969 18.6875 5.17969C18.6875 4.76969 19.0275 4.42969 19.4375 4.42969H20.6275C21.0375 4.42969 21.3775 4.76969 21.3775 5.17969C21.3775 5.58969 21.0375 5.92969 20.6275 5.92969Z" fill="black"/>
<path d="M18.8176 22.0387C18.5276 22.0387 18.2576 21.8687 18.1276 21.5887C16.9376 18.8687 17.2476 15.7287 19.0476 12.5187C19.2476 12.1587 19.7076 12.0287 20.0676 12.2287C20.4276 12.4287 20.5576 12.8887 20.3576 13.2487C18.7776 16.0687 18.4976 18.6787 19.5076 20.9787C19.6776 21.3587 19.5076 21.7987 19.1176 21.9687C19.0176 22.0087 18.9176 22.0287 18.8176 22.0287V22.0387Z" fill="black"/>
</svg>