<svg width="24" height="24" viewBox="0 0 24 24" fill="none" xmlns="http://www.w3.org/2000/svg">
<path fill-rule="evenodd" clip-rule="evenodd" d="M9.53963 2.30564C9.31137 2.21245 9.05189 2.2374 8.84556 2.37238L4.67482 5.10094C4.46304 5.23948 4.33542 5.47549 4.33542 5.72856V8.27399L2.65716 9.1367C2.40719 9.2652 2.25005 9.52267 2.25005 9.80373V14.1965C2.25005 14.4776 2.40726 14.7352 2.6573 14.8636L4.33542 15.7258V18.2679C4.33542 18.5208 4.46288 18.7567 4.67445 18.8953L8.84519 21.6274C9.0519 21.7628 9.31204 21.7877 9.54068 21.6939L12.2846 20.569C12.6678 20.4118 12.8511 19.9738 12.694 19.5905C12.5369 19.2073 12.0988 19.0239 11.7155 19.1811L9.33691 20.1563L5.83542 17.8626V15.2679C5.83542 14.9868 5.67821 14.7293 5.42816 14.6008L3.75005 13.7387V10.2615L5.42831 9.39877C5.67827 9.27028 5.83542 9.01281 5.83542 8.73174V6.13414L9.33725 3.8432L11.7166 4.81454C12.1001 4.97109 12.5379 4.78713 12.6944 4.40364C12.851 4.02015 12.667 3.58236 12.2835 3.4258L9.53963 2.30564Z" fill="black"/>
<path fill-rule="evenodd" clip-rule="evenodd" d="M14.4594 2.30606C14.688 2.21232 14.9481 2.23722 15.1549 2.37263L19.3256 5.10473C19.5372 5.24332 19.6646 5.4792 19.6646 5.73211V8.2742L21.3427 9.13637C21.5928 9.26484 21.75 9.52236 21.75 9.80348V14.1963C21.75 14.4773 21.5929 14.7348 21.3429 14.8633L19.6646 15.726V18.2714C19.6646 18.5245 19.537 18.7605 19.3252 18.8991L15.1545 21.6276C14.9482 21.7626 14.6887 21.7876 14.4604 21.6944L11.7165 20.5742C11.4344 20.459 11.25 20.1846 11.25 19.8798V18.125C11.25 17.7108 11.5858 17.375 12 17.375C12.4142 17.375 12.75 17.7108 12.75 18.125V19.3759L14.6628 20.1568L18.1646 17.8659V15.2683C18.1646 14.9872 18.3218 14.7297 18.5717 14.6012L20.25 13.7385V10.2613L18.5719 9.39917C18.3218 9.2707 18.1646 9.01319 18.1646 8.73207V6.1374L14.6631 3.8437L12.75 4.62808V5.87588C12.75 6.29009 12.4142 6.62588 12 6.62588C11.5858 6.62588 11.25 6.29009 11.25 5.87588V4.12499C11.25 3.82066 11.4339 3.5465 11.7155 3.43105L14.4594 2.30606Z" fill="black"/>
<path fill-rule="evenodd" clip-rule="evenodd" d="M8.36133 13.4258C8.36133 13.0116 8.69711 12.6758 9.11133 12.6758H10.993C11.4073 12.6758 11.743 13.0116 11.743 13.4258C11.743 13.84 11.4073 14.1758 10.993 14.1758H9.86133V15.1761C9.86133 15.5904 9.52554 15.9261 9.11133 15.9261C8.69711 15.9261 8.36133 15.5904 8.36133 15.1761V13.4258Z" fill="black"/>
<path fill-rule="evenodd" clip-rule="evenodd" d="M14.8876 8.07422C15.3018 8.07422 15.6376 8.41001 15.6376 8.82422V10.7059C15.6376 11.1201 15.3018 11.4559 14.8876 11.4559H13.0059C12.5916 11.4559 12.2559 11.1201 12.2559 10.7059C12.2559 10.2917 12.5916 9.95593 13.0059 9.95593H14.1376V8.82422C14.1376 8.41001 14.4734 8.07422 14.8876 8.07422Z" fill="black"/>
<path fill-rule="evenodd" clip-rule="evenodd" d="M11.8299 9.77148C10.9674 9.77148 10.2243 10.2325 9.82659 10.9274C9.62084 11.2869 9.16261 11.4116 8.80312 11.2058C8.44362 11.0001 8.31898 10.5418 8.52474 10.1823C9.18171 9.03444 10.4137 8.27148 11.8299 8.27148C13.0727 8.27148 14.0011 8.79011 14.6043 9.2918C14.9054 9.54219 15.1309 9.79232 15.2828 9.98201C15.359 10.0772 15.4177 10.1584 15.4588 10.2185C15.4794 10.2485 15.4957 10.2734 15.5078 10.2922L15.5226 10.3158L15.5277 10.324L15.5296 10.3272L15.5304 10.3285L15.5308 10.3291C15.531 10.3294 15.5312 10.3297 14.9015 10.7073L15.5312 10.3297C15.7442 10.6849 15.6289 11.1456 15.2736 11.3586C14.9197 11.5709 14.4611 11.4572 14.2471 11.1051L14.2443 11.1006C14.2404 11.0946 14.2329 11.0831 14.2218 11.0668C14.1994 11.0342 14.1627 10.983 14.1118 10.9195C14.0094 10.7915 13.8533 10.6182 13.6452 10.4451C13.23 10.0998 12.6294 9.77148 11.8299 9.77148Z" fill="black"/>
<path fill-rule="evenodd" clip-rule="evenodd" d="M8.71998 12.7938C9.07253 12.5783 9.53284 12.6885 9.74957 13.0399L9.7496 13.04L9.75365 13.0463C9.75827 13.0535 9.76658 13.0662 9.77848 13.0836C9.80234 13.1186 9.84028 13.1721 9.89147 13.2379C9.99469 13.3707 10.1472 13.5478 10.3417 13.7232C10.7404 14.0828 11.2481 14.3767 11.8307 14.3767C12.6825 14.3767 13.4279 13.9163 13.8258 13.2278C14.033 12.8691 14.4918 12.7464 14.8504 12.9536C15.2091 13.1608 15.3318 13.6196 15.1246 13.9782C14.4678 15.1149 13.2361 15.8767 11.8307 15.8767C10.729 15.8767 9.87706 15.3241 9.33712 14.8372C9.06229 14.5893 8.85068 14.3431 8.70717 14.1585C8.63499 14.0656 8.5789 13.9869 8.53956 13.9293C8.51987 13.9004 8.50429 13.8767 8.49292 13.8591L8.479 13.8372L8.4744 13.8299L8.4727 13.8271L8.472 13.826L8.47168 13.8254C8.47154 13.8252 8.47139 13.825 9.11125 13.4337" fill="black"/>
</svg>