<svg width="24" height="24" viewBox="0 0 24 24" fill="none" xmlns="http://www.w3.org/2000/svg">
<path fill-rule="evenodd" clip-rule="evenodd" d="M9.53939 2.30564C9.31112 2.21245 9.05164 2.2374 8.84532 2.37238L4.67458 5.10094C4.4628 5.23948 4.33517 5.47549 4.33517 5.72856V8.27399L2.65692 9.1367C2.40695 9.2652 2.2498 9.52267 2.2498 9.80373V14.1965C2.2498 14.4776 2.40701 14.7352 2.65706 14.8636L4.33517 15.7258V18.2679C4.33517 18.5208 4.46264 18.7567 4.6742 18.8953L8.84495 21.6274C9.05165 21.7628 9.31179 21.7877 9.54043 21.6939L12.2843 20.569C12.6676 20.4118 12.8509 19.9738 12.6937 19.5905C12.5366 19.2073 12.0985 19.0239 11.7153 19.1811L9.33667 20.1563L5.83517 17.8626V15.2679C5.83517 14.9868 5.67796 14.7293 5.42792 14.6008L3.7498 13.7387V10.2615L5.42806 9.39877C5.67803 9.27028 5.83517 9.01281 5.83517 8.73174V6.13414L9.337 3.8432L11.7163 4.81454C12.0998 4.97109 12.5376 4.78713 12.6942 4.40364C12.8507 4.02015 12.6668 3.58236 12.2833 3.4258L9.53939 2.30564Z" fill="black"/>
<path fill-rule="evenodd" clip-rule="evenodd" d="M14.4604 21.6944C14.6887 21.7876 14.9482 21.7626 15.1545 21.6276L19.3252 18.8991C19.537 18.7605 19.6646 18.5245 19.6646 18.2714V15.726L21.3429 14.8633C21.5929 14.7348 21.75 14.4773 21.75 14.1963V9.80347C21.75 9.52235 21.5928 9.26484 21.3427 9.13637L19.6646 8.27419V5.7321C19.6646 5.47919 19.5372 5.24331 19.3256 5.10472L15.1549 2.37262C14.9481 2.23722 14.688 2.21232 14.4594 2.30606L11.7155 3.43104C11.4339 3.54649 11.25 3.82065 11.25 4.12498V5.87587C11.25 6.29008 11.5858 6.62587 12 6.62587C12.4142 6.62587 12.75 6.29008 12.75 5.87587V4.62807L14.6631 3.84369L18.1646 6.13739V8.73206C18.1646 9.01318 18.3218 9.27069 18.5719 9.39916L20.25 10.2613V13.7385L18.5717 14.6012C18.3218 14.7297 18.1646 14.9872 18.1646 15.2683V17.8659L14.6628 20.1568L12.75 19.3759V18.125C12.75 17.7108 12.4142 17.375 12 17.375C11.5858 17.375 11.25 17.7108 11.25 18.125V19.8798C11.25 20.1846 11.4344 20.459 11.7165 20.5742L14.4604 21.6944Z" fill="black"/>
<path fill-rule="evenodd" clip-rule="evenodd" d="M12 10.7754C11.5858 10.7754 11.25 11.1112 11.25 11.5254L11.25 19.8395C11.25 20.2537 11.5858 20.5895 12 20.5895C12.4142 20.5895 12.75 20.2537 12.75 19.8395L12.75 11.5254C12.75 11.1112 12.4142 10.7754 12 10.7754Z" fill="black"/>
<path fill-rule="evenodd" clip-rule="evenodd" d="M12.086 10.7754C11.8651 10.7754 11.686 10.5963 11.686 10.3754C11.686 10.1545 11.8651 9.97539 12.086 9.97539C12.3069 9.97539 12.486 10.1545 12.486 10.3754C12.486 10.5963 12.3069 10.7754 12.086 10.7754ZM10.186 10.3754C10.186 11.4247 11.0367 12.2754 12.086 12.2754C13.1354 12.2754 13.986 11.4247 13.986 10.3754C13.986 9.32605 13.1354 8.47539 12.086 8.47539C11.0367 8.47539 10.186 9.32605 10.186 10.3754Z" fill="black"/>
<path fill-rule="evenodd" clip-rule="evenodd" d="M16.2952 13.3121C15.9302 13.1161 15.4755 13.253 15.2796 13.6179L14.0934 15.8264C14.0348 15.9355 14.0041 16.0574 14.0041 16.1813L14.0041 20.8495C14.0041 21.2637 14.3399 21.5995 14.7542 21.5995C15.1684 21.5995 15.5041 21.2637 15.5041 20.8495L15.5041 16.37L16.601 14.3277C16.797 13.9628 16.6601 13.5081 16.2952 13.3121Z" fill="black"/>
<path fill-rule="evenodd" clip-rule="evenodd" d="M16.6148 13.3945C16.3939 13.3945 16.2148 13.2154 16.2148 12.9945C16.2148 12.7736 16.3939 12.5945 16.6148 12.5945C16.8358 12.5945 17.0148 12.7736 17.0148 12.9945C17.0148 13.2154 16.8358 13.3945 16.6148 13.3945ZM14.7148 12.9945C14.7148 14.0439 15.5655 14.8945 16.6148 14.8945C17.6642 14.8945 18.5148 14.0439 18.5148 12.9945C18.5148 11.9452 17.6642 11.0945 16.6148 11.0945C15.5655 11.0945 14.7148 11.9452 14.7148 12.9945Z" fill="black"/>
<path fill-rule="evenodd" clip-rule="evenodd" d="M7.70534 13.3121C8.07025 13.1161 8.52495 13.253 8.72094 13.6179L9.90708 15.8264C9.96568 15.9355 9.99635 16.0574 9.99635 16.1813L9.99634 20.8495C9.99634 21.2637 9.66055 21.5995 9.24634 21.5995C8.83212 21.5995 8.49634 21.2637 8.49634 20.8495L8.49635 16.37L7.39947 14.3277C7.20348 13.9628 7.34042 13.5081 7.70534 13.3121Z" fill="black"/>
<path fill-rule="evenodd" clip-rule="evenodd" d="M7.38516 13.3945C7.60607 13.3945 7.78516 13.2154 7.78516 12.9945C7.78516 12.7736 7.60607 12.5945 7.38516 12.5945C7.16424 12.5945 6.98516 12.7736 6.98516 12.9945C6.98516 13.2154 7.16424 13.3945 7.38516 13.3945ZM9.28516 12.9945C9.28516 14.0439 8.4345 14.8945 7.38516 14.8945C6.33582 14.8945 5.48516 14.0439 5.48516 12.9945C5.48516 11.9452 6.33582 11.0945 7.38516 11.0945C8.4345 11.0945 9.28516 11.9452 9.28516 12.9945Z" fill="black"/>
</svg>