<svg width="24" height="24" viewBox="0 0 24 24" fill="none" xmlns="http://www.w3.org/2000/svg">
<path fill-rule="evenodd" clip-rule="evenodd" d="M9.53939 2.30564C9.31112 2.21245 9.05164 2.2374 8.84532 2.37238L4.67458 5.10094C4.4628 5.23948 4.33517 5.47549 4.33517 5.72856V8.27399L2.65692 9.1367C2.40695 9.2652 2.2498 9.52267 2.2498 9.80373V14.1965C2.2498 14.4776 2.40701 14.7352 2.65706 14.8636L4.33517 15.7258V18.2679C4.33517 18.5208 4.46264 18.7567 4.6742 18.8953L8.84495 21.6274C9.05165 21.7628 9.31179 21.7877 9.54043 21.6939L12.2843 20.569C12.6676 20.4118 12.8509 19.9738 12.6937 19.5905C12.5366 19.2073 12.0985 19.0239 11.7153 19.1811L9.33667 20.1563L5.83517 17.8626V15.2679C5.83517 14.9868 5.67796 14.7293 5.42792 14.6008L3.7498 13.7387V10.2615L5.42806 9.39877C5.67803 9.27028 5.83517 9.01281 5.83517 8.73174V6.13414L9.337 3.8432L11.7163 4.81454C12.0998 4.97109 12.5376 4.78713 12.6942 4.40364C12.8507 4.02015 12.6668 3.58236 12.2833 3.4258L9.53939 2.30564Z" fill="black"/>
<path fill-rule="evenodd" clip-rule="evenodd" d="M14.4604 21.6944C14.6887 21.7876 14.9482 21.7626 15.1545 21.6276L19.3252 18.8991C19.537 18.7605 19.6646 18.5245 19.6646 18.2714V15.726L21.3429 14.8633C21.5929 14.7348 21.75 14.4773 21.75 14.1963V9.80347C21.75 9.52235 21.5928 9.26484 21.3427 9.13637L19.6646 8.27419V5.7321C19.6646 5.47919 19.5372 5.24331 19.3256 5.10472L15.1549 2.37262C14.9481 2.23722 14.688 2.21232 14.4594 2.30606L11.7155 3.43104C11.4339 3.54649 11.25 3.82065 11.25 4.12498V5.87587C11.25 6.29008 11.5858 6.62587 12 6.62587C12.4142 6.62587 12.75 6.29008 12.75 5.87587V4.62807L14.6631 3.84369L18.1646 6.13739V8.73206C18.1646 9.01318 18.3218 9.27069 18.5719 9.39916L20.25 10.2613V13.7385L18.5717 14.6012C18.3218 14.7297 18.1646 14.9872 18.1646 15.2683V17.8659L14.6628 20.1568L12.75 19.3759V18.125C12.75 17.7108 12.4142 17.375 12 17.375C11.5858 17.375 11.25 17.7108 11.25 18.125V19.8798C11.25 20.1846 11.4344 20.459 11.7165 20.5742L14.4604 21.6944Z" fill="black"/>
<path fill-rule="evenodd" clip-rule="evenodd" d="M11.9996 8.57227C12.4138 8.57227 12.7496 8.90805 12.7496 9.32227V14.677C12.7496 15.0912 12.4138 15.427 11.9996 15.427C11.5854 15.427 11.2496 15.0912 11.2496 14.677V9.32227C11.2496 8.90805 11.5854 8.57227 11.9996 8.57227ZM9.0166 10.5807C9.43082 10.5807 9.7666 10.9165 9.7666 11.3307V14.677C9.7666 15.0913 9.43082 15.427 9.0166 15.427C8.60239 15.427 8.2666 15.0913 8.2666 14.677V11.3307C8.2666 10.9165 8.60239 10.5807 9.0166 10.5807ZM14.9834 12.3554C15.3976 12.3554 15.7334 12.6912 15.7334 13.1054V14.6765C15.7334 15.0907 15.3976 15.4265 14.9834 15.4265C14.5692 15.4265 14.2334 15.0907 14.2334 14.6765V13.1054C14.2334 12.6912 14.5692 12.3554 14.9834 12.3554Z" fill="black"/>
</svg>