<svg width="24" height="24" viewBox="0 0 24 24" fill="none" xmlns="http://www.w3.org/2000/svg">
<path d="M7.78216 3H16.2169C19.165 3 21 5.08119 21 8.02638V15.9736C21 18.9188 19.165 21 16.2159 21H7.78216C4.83405 21 3 18.9188 3 15.9736V8.02638C3 5.08119 4.84281 3 7.78216 3Z" stroke="black" stroke-width="1.5" stroke-linecap="round" stroke-linejoin="round"/>
<path fill-rule="evenodd" clip-rule="evenodd" d="M8.60935 13.0703C7.64285 13.0709 6.8598 13.8548 6.86035 14.8213C6.8609 15.7878 7.64485 16.5709 8.61135 16.5703C9.57785 16.5698 10.3609 15.7858 10.3604 14.8193C10.3601 14.3552 10.1755 13.9102 9.84708 13.5822C9.5187 13.2542 9.07348 13.07 8.60935 13.0703V13.0703Z" stroke="black" stroke-width="1.5" stroke-linecap="round" stroke-linejoin="round"/>
<path fill-rule="evenodd" clip-rule="evenodd" d="M15.3886 13.0703C14.4223 13.0709 13.6393 13.8546 13.6396 14.821C13.64 15.7873 14.4236 16.5705 15.39 16.5703C16.3563 16.5701 17.1396 15.7867 17.1396 14.8203C17.1396 14.356 16.9551 13.9107 16.6267 13.5825C16.2983 13.2543 15.853 13.07 15.3886 13.0703V13.0703Z" stroke="black" stroke-width="1.5" stroke-linecap="round" stroke-linejoin="round"/>
<path fill-rule="evenodd" clip-rule="evenodd" d="M11.999 7.42969C11.0326 7.43024 10.2496 8.21399 10.25 9.18035C10.2504 10.1467 11.034 10.9299 12.0003 10.9297C12.9667 10.9295 13.75 10.1461 13.75 9.17969C13.75 8.71539 13.5655 8.27011 13.2371 7.9419C12.9087 7.61368 12.4633 7.42942 11.999 7.42969V7.42969Z" stroke="black" stroke-width="1.5" stroke-linecap="round" stroke-linejoin="round"/>
</svg>