<svg width="24" height="24" viewBox="0 0 24 24" fill="none" xmlns="http://www.w3.org/2000/svg">
<path fill-rule="evenodd" clip-rule="evenodd" d="M12.9283 4.98323C13.9222 6.97568 14.9158 8.96857 15.9095 10.9615C17.3005 13.7516 18.6917 16.5418 20.0837 19.3312C19.7002 19.3313 19.3168 19.3314 18.9334 19.3315C17.6885 19.3319 16.4444 19.3323 15.2 19.3305C15.1279 19.1934 15.0563 19.0546 14.9831 18.9126L14.9811 18.9087C14.8825 18.7176 14.781 18.5207 14.676 18.3245C14.5183 18.0187 14.3735 17.7494 14.2319 17.4861C14.0657 17.1771 13.9041 16.8766 13.7316 16.5355L13.7316 16.5355L13.7293 16.5311C13.1285 15.3622 12.5775 14.2019 12.1815 12.9974L12.1809 12.9957C11.9584 12.3243 11.7854 11.6508 11.6925 10.9741L11.6925 10.9741L11.6919 10.9698C11.526 9.81169 11.5713 8.62972 11.8714 7.52291L11.8761 7.5045C11.9879 7.04652 12.1558 6.59227 12.3535 6.12452C12.5443 5.71714 12.7249 5.33796 12.9283 4.98323ZM12.6851 3.19832C13.1046 3.09413 13.5882 3.22945 13.8826 3.60214L13.8903 3.61179L13.8902 3.61185C13.9884 3.74044 14.0645 3.89837 14.0923 3.95591C14.0961 3.96386 14.099 3.96989 14.1009 3.97367L14.1033 3.97829L14.1033 3.9783C15.1534 6.08332 16.2029 8.18827 17.2523 10.2932C18.6689 13.1344 20.0854 15.9756 21.5033 18.8165L21.51 18.8304C21.5187 18.8487 21.5265 18.8637 21.5394 18.8886C21.546 18.9013 21.5538 18.9164 21.5638 18.9359C21.5881 18.9832 21.6232 19.053 21.6546 19.1324C21.7163 19.2878 21.7846 19.5302 21.7292 19.8178C21.6257 20.463 21.0298 20.8421 20.4876 20.8312C19.9701 20.8312 19.4525 20.8314 18.9347 20.8315C17.6357 20.8319 16.3359 20.8323 15.0364 20.8303C14.5642 20.8389 14.1534 20.5651 13.9531 20.1811C13.8497 19.9876 13.7496 19.7933 13.6523 19.6046L13.6479 19.5963C13.5477 19.4019 13.4504 19.2134 13.3508 19.0273L13.3453 19.0169L13.3454 19.0169C13.2224 18.7783 13.0787 18.5103 12.9315 18.2355C12.7468 17.8908 12.5565 17.5356 12.3942 17.2147C11.7835 16.0266 11.1899 14.7839 10.7568 13.4667C10.5141 12.7343 10.3153 11.9699 10.2067 11.1803C10.0165 9.85031 10.0635 8.46431 10.4211 7.13959C10.5609 6.56989 10.7639 6.03143 10.9777 5.52672C10.9813 5.51816 10.9851 5.50967 10.989 5.50125C11.2194 5.00918 11.4717 4.47552 11.7881 3.96751C11.7889 3.96596 11.7898 3.96437 11.7907 3.96274C11.8762 3.80699 12.138 3.33009 12.6851 3.19832Z" fill="black"/>
<path fill-rule="evenodd" clip-rule="evenodd" d="M7.50168 12.187C7.51982 12.2081 7.5384 12.2294 7.55733 12.2507C8.40066 13.2861 8.93673 14.5759 9.15098 15.9203L9.15095 15.9203L9.15221 15.9278C9.25053 16.5071 9.26084 17.1124 9.21688 17.7323C9.19456 17.8451 9.18322 17.9516 9.17567 18.0225C9.1748 18.0307 9.17397 18.0384 9.17319 18.0456C9.16239 18.145 9.15583 18.1853 9.14798 18.2137C9.14246 18.2336 9.13777 18.2538 9.13392 18.2741C9.06499 18.6377 8.96161 18.9868 8.81887 19.3113L8.81827 19.3127C8.81649 19.3168 8.81473 19.3208 8.81301 19.3248C7.82828 19.3251 6.84398 19.325 5.85951 19.325C5.2144 19.325 4.56923 19.3249 3.92382 19.325C3.96383 19.2465 4.00702 19.1612 4.05607 19.0602C4.35665 18.4607 4.65727 17.8612 4.95792 17.2616C5.80601 15.5704 6.65422 13.8788 7.50168 12.187ZM3.7146 19.752L3.71809 19.7445C3.71696 19.747 3.7158 19.7495 3.7146 19.752ZM7.07375 10.5096C7.50802 10.3841 8.02152 10.5002 8.35271 10.8724L8.35337 10.8732C8.41609 10.9439 8.47583 11.0153 8.52776 11.0773L8.53516 11.0862C8.59127 11.1532 8.63906 11.2101 8.68712 11.2639C8.69444 11.272 8.70157 11.2804 8.70852 11.2889C9.74426 12.5547 10.3796 14.1024 10.6317 15.6805C10.7582 16.4281 10.7631 17.1771 10.709 17.8948C10.7061 17.9335 10.7002 17.9719 10.6913 18.0097C10.6818 18.0503 10.6766 18.096 10.6644 18.2077L10.6641 18.2101C10.6546 18.2975 10.6398 18.4343 10.6025 18.5804C10.5154 19.0305 10.3829 19.4808 10.1924 19.9141C10.1923 19.9145 10.1921 19.9149 10.1919 19.9153L9.50539 19.6133L10.1925 19.9139C10.1925 19.914 10.1925 19.914 10.1924 19.9141C10.1921 19.915 10.191 19.9176 10.1893 19.9216C10.1765 19.9528 10.1281 20.0702 10.0919 20.1421C10.039 20.2475 9.95112 20.3959 9.80145 20.5286C9.80686 20.5237 9.81224 20.5186 9.8176 20.5134L9.29821 19.9724L9.78534 20.5427C9.79079 20.538 9.79615 20.5333 9.80145 20.5286C9.53861 20.7709 9.2186 20.8272 8.99476 20.8247C8.99651 20.8247 8.99826 20.8247 9.00001 20.8247L8.99975 20.0747L8.98648 20.8246C8.98922 20.8247 8.99198 20.8247 8.99476 20.8247C7.94939 20.8251 6.90371 20.825 5.85818 20.825C5.07518 20.825 4.29227 20.8249 3.50964 20.825C3.51309 20.825 3.51653 20.8249 3.51997 20.8249L3.50284 20.0751L3.50297 20.8251C3.50519 20.8251 3.50742 20.825 3.50964 20.825C3.23508 20.8291 2.91396 20.7459 2.65538 20.5144C2.6482 20.5079 2.64115 20.5014 2.63423 20.4947C2.32773 20.1981 2.10698 19.6493 2.35655 19.1151C2.35567 19.117 2.35478 19.119 2.3539 19.121L3.03763 19.4292L2.36067 19.1064C2.35928 19.1093 2.35791 19.1122 2.35655 19.1151C2.4267 18.96 2.51677 18.7823 2.5953 18.6274C2.63827 18.5426 2.67778 18.4647 2.70869 18.401L2.71295 18.3922L2.71301 18.3922C3.0144 17.7911 3.31582 17.19 3.61724 16.5889C4.52107 14.7864 5.42486 12.9841 6.32779 11.1813C6.32672 11.1835 6.32566 11.1857 6.32461 11.1879L7.00059 11.5128L6.33 11.1769C6.32926 11.1784 6.32852 11.1798 6.32779 11.1813C6.44912 10.9322 6.66429 10.68 6.98446 10.5416C7.01352 10.5291 7.04334 10.5184 7.07375 10.5096Z" fill="black"/>
</svg>