<svg width="25" height="24" viewBox="0 0 25 24" fill="none" xmlns="http://www.w3.org/2000/svg">
<path opacity="0.4" fill-rule="evenodd" clip-rule="evenodd" d="M8.65125 16.2318C7.28979 14.8701 6.16222 13.4239 5.30434 11.9997C6.16209 10.5757 7.28948 9.12961 8.6508 7.76799C10.0126 6.40652 11.4588 5.27904 12.8829 4.42126C14.3071 5.27904 15.7533 6.40652 17.1151 7.76799C18.4765 9.12973 19.604 10.5759 20.4618 12.0001C19.6039 13.4241 18.4763 14.8702 17.1146 16.2318C15.753 17.5934 14.307 18.721 12.8829 19.5787C11.4589 18.721 10.0129 17.5934 8.65125 16.2318ZM12.8829 19.5787C16.3708 21.6797 19.7267 22.1624 21.3865 20.5033C23.0456 18.8435 22.5625 15.4878 20.4618 12.0001C22.5629 8.51219 23.0459 5.15638 21.3861 3.49653C19.7263 1.83747 16.3707 2.32061 12.8829 4.42126C9.39521 2.32061 6.03958 1.83747 4.37979 3.49653C2.72 5.15632 3.20345 8.51195 5.30434 11.9997C3.20346 15.4876 2.72021 18.8434 4.37934 20.5033C6.0392 22.1624 9.39505 21.6797 12.8829 19.5787Z" fill="black"/>
<path fill-rule="evenodd" clip-rule="evenodd" d="M5.3042 12.0003C6.16207 13.4245 7.28964 14.8707 8.65111 16.2324C10.0127 17.5941 11.4588 18.7216 12.8828 19.5793C14.3068 18.7216 15.7529 17.5941 17.1145 16.2324C18.4761 14.8708 19.6038 13.4247 20.4616 12.0007C19.6039 10.5765 18.4764 9.13034 17.1149 7.7686C15.7532 6.40714 14.307 5.27965 12.8828 4.42188C11.4586 5.27965 10.0124 6.40714 8.65066 7.7686C7.28933 9.13022 6.16194 10.5763 5.3042 12.0003ZM15.13 12.0011C15.13 10.7594 14.1235 9.75391 12.8828 9.75391C11.6412 9.75391 10.6357 10.7594 10.6357 12.0011C10.6357 13.2417 11.6412 14.2482 12.8828 14.2482C14.1235 14.2482 15.13 13.2417 15.13 12.0011Z" fill="black"/>
</svg>