<svg width="24" height="24" viewBox="0 0 24 24" fill="none" xmlns="http://www.w3.org/2000/svg">
<path fill-rule="evenodd" clip-rule="evenodd" d="M17.1899 11.0364H14.5199C14.0999 11.0364 13.7699 10.7064 13.7699 10.2864C13.7699 9.87641 14.0999 9.53641 14.5199 9.53641H17.1899C17.5999 9.53641 17.9399 9.87641 17.9399 10.2864C17.9399 10.7064 17.5999 11.0364 17.1899 11.0364ZM17.1899 14.6664H11.6899C11.2699 14.6664 10.9399 14.3364 10.9399 13.9164C10.9399 13.5064 11.2699 13.1664 11.6899 13.1664H17.1899C17.5999 13.1664 17.9399 13.5064 17.9399 13.9164C17.9399 14.3364 17.5999 14.6664 17.1899 14.6664ZM17.5099 19.5164C17.1099 19.9664 16.5599 20.2864 15.9699 20.4064C15.3399 20.5264 14.4799 20.2864 12.7899 19.8364L10.9199 19.2664H15.5299C16.4399 19.2664 17.1399 19.2664 17.7099 19.2264C17.6499 19.3364 17.5799 19.4364 17.5099 19.5164ZM21.1499 6.63641C20.7599 5.84641 20.1099 5.19641 19.3199 4.80641C18.4899 4.39641 17.4999 4.39641 15.5299 4.39641H12.4299C12.3499 3.09641 11.2699 2.06641 9.95994 2.06641C8.63994 2.06641 7.54994 3.10641 7.47994 4.40641C7.77994 4.39641 8.10994 4.39641 8.46994 4.39641H8.98994C9.05994 3.92641 9.45994 3.56641 9.95994 3.56641C10.4499 3.56641 10.8499 3.92641 10.9199 4.39641H8.98994C8.96994 4.44641 8.96994 4.49641 8.96994 4.55641V7.74641C8.96994 8.05641 9.21994 8.29641 9.52994 8.29641C9.82994 8.29641 10.0799 8.05641 10.0799 7.74641V6.93641C10.0799 6.51641 10.4199 6.18641 10.8299 6.18641C11.2399 6.18641 11.5799 6.51641 11.5799 6.93641V7.74641C11.5799 8.87641 10.6599 9.79641 9.52994 9.79641C8.38994 9.79641 7.46994 8.87641 7.46994 7.74641V4.55641C7.46994 4.50641 7.46994 4.45641 7.47994 4.40641C6.13994 4.40641 5.35994 4.46641 4.67994 4.80641C3.88994 5.19641 3.23994 5.84641 2.84994 6.64641C2.43994 7.47641 2.43994 8.46641 2.43994 10.4364V13.2364C2.43994 15.2064 2.43994 16.1964 2.84994 17.0264C3.23994 17.8164 3.88994 18.4664 4.67994 18.8564C4.76994 18.9064 4.85994 18.9364 4.94994 18.9764C5.01994 19.0264 5.08994 19.0664 5.16994 19.0964L12.3799 21.2764C13.8899 21.6864 14.8199 21.9364 15.6099 21.9364C15.8299 21.9364 16.0399 21.9164 16.2499 21.8764C17.1699 21.6964 18.0199 21.2064 18.6399 20.5064C19.0099 20.0864 19.2699 19.5664 19.5399 18.7264C20.2299 18.3264 20.7999 17.7464 21.1499 17.0264C21.5599 16.1964 21.5599 15.2064 21.5599 13.2364V10.4364C21.5599 8.46641 21.5599 7.47641 21.1499 6.63641Z" fill="black"/>
<path fill-rule="evenodd" clip-rule="evenodd" d="M17.1899 11.0364H14.5199C14.0999 11.0364 13.7699 10.7064 13.7699 10.2864C13.7699 9.87641 14.0999 9.53641 14.5199 9.53641H17.1899C17.5999 9.53641 17.9399 9.87641 17.9399 10.2864C17.9399 10.7064 17.5999 11.0364 17.1899 11.0364ZM17.1899 14.6664H11.6899C11.2699 14.6664 10.9399 14.3364 10.9399 13.9164C10.9399 13.5064 11.2699 13.1664 11.6899 13.1664H17.1899C17.5999 13.1664 17.9399 13.5064 17.9399 13.9164C17.9399 14.3364 17.5999 14.6664 17.1899 14.6664ZM17.5099 19.5164C17.1099 19.9664 16.5599 20.2864 15.9699 20.4064C15.3399 20.5264 14.4799 20.2864 12.7899 19.8364L10.9199 19.2664H15.5299C16.4399 19.2664 17.1399 19.2664 17.7099 19.2264C17.6499 19.3364 17.5799 19.4364 17.5099 19.5164ZM21.1499 6.63641C20.7599 5.84641 20.1099 5.19641 19.3199 4.80641C18.4899 4.39641 17.4999 4.39641 15.5299 4.39641H12.4299C12.3499 3.09641 11.2699 2.06641 9.95994 2.06641C8.63994 2.06641 7.54994 3.10641 7.47994 4.40641C7.77994 4.39641 8.10994 4.39641 8.46994 4.39641H8.98994C9.05994 3.92641 9.45994 3.56641 9.95994 3.56641C10.4499 3.56641 10.8499 3.92641 10.9199 4.39641H8.98994C8.96994 4.44641 8.96994 4.49641 8.96994 4.55641V7.74641C8.96994 8.05641 9.21994 8.29641 9.52994 8.29641C9.82994 8.29641 10.0799 8.05641 10.0799 7.74641V6.93641C10.0799 6.51641 10.4199 6.18641 10.8299 6.18641C11.2399 6.18641 11.5799 6.51641 11.5799 6.93641V7.74641C11.5799 8.87641 10.6599 9.79641 9.52994 9.79641C8.38994 9.79641 7.46994 8.87641 7.46994 7.74641V4.55641C7.46994 4.50641 7.46994 4.45641 7.47994 4.40641C6.13994 4.40641 5.35994 4.46641 4.67994 4.80641C3.88994 5.19641 3.23994 5.84641 2.84994 6.64641C2.43994 7.47641 2.43994 8.46641 2.43994 10.4364V13.2364C2.43994 15.2064 2.43994 16.1964 2.84994 17.0264C3.23994 17.8164 3.88994 18.4664 4.67994 18.8564C4.76994 18.9064 4.85994 18.9364 4.94994 18.9764C5.01994 19.0264 5.08994 19.0664 5.16994 19.0964L12.3799 21.2764C13.8899 21.6864 14.8199 21.9364 15.6099 21.9364C15.8299 21.9364 16.0399 21.9164 16.2499 21.8764C17.1699 21.6964 18.0199 21.2064 18.6399 20.5064C19.0099 20.0864 19.2699 19.5664 19.5399 18.7264C20.2299 18.3264 20.7999 17.7464 21.1499 17.0264C21.5599 16.1964 21.5599 15.2064 21.5599 13.2364V10.4364C21.5599 8.46641 21.5599 7.47641 21.1499 6.63641Z" fill="black"/>
</svg>