<svg width="24" height="24" viewBox="0 0 24 24" fill="none" xmlns="http://www.w3.org/2000/svg">
<path opacity="0.4" d="M4 13.9999C4 18.4109 7.589 21.9999 12 21.9999C16.411 21.9999 20 18.4109 20 13.9999V4.88086C20 4.32786 19.552 3.88086 19 3.88086C18.448 3.88086 18 4.32786 18 4.88086V13.9999C18 17.3089 15.309 19.9999 12 19.9999C8.691 19.9999 6 17.3089 6 13.9999V7.64986H4V13.9999Z" fill="black"/>
<path d="M9.65 2C6.535 2 4 4.535 4 7.65H6C6 5.638 7.637 4 9.65 4C11.663 4 13.3 5.638 13.3 7.65V13.844C13.3 14.587 12.696 15.192 11.953 15.192C11.21 15.192 10.605 14.587 10.605 13.844V7.999C10.605 7.446 10.157 6.999 9.605 6.999C9.053 6.999 8.605 7.446 8.605 7.999V13.844C8.605 15.69 10.107 17.192 11.953 17.192C13.798 17.192 15.3 15.69 15.3 13.844V7.65C15.3 4.535 12.765 2 9.65 2Z" fill="black"/>
</svg>