<svg width="25" height="24" viewBox="0 0 25 24" fill="none" xmlns="http://www.w3.org/2000/svg">
<path fill-rule="evenodd" clip-rule="evenodd" d="M5.39355 18.9524L12.8606 21.2714C14.3706 21.6814 15.3006 21.9314 16.0906 21.9314C16.3106 21.9314 16.5206 21.9114 16.7306 21.8714C17.6506 21.6914 18.5006 21.2014 19.1206 20.5014C19.4886 20.0834 19.7476 19.5654 20.0156 18.7344C19.9496 18.7724 19.8886 18.8184 19.8196 18.8524C19.3366 19.0934 18.1446 19.2244 18.1906 19.2214C18.1306 19.3314 18.0606 19.4314 17.9906 19.5114C17.5906 19.9614 17.0406 20.2814 16.4506 20.4014C15.8406 20.5214 15.0206 20.3014 13.4506 19.8814L13.2706 19.8314L11.4046 19.2624H8.96955C7.63355 19.2594 6.46455 19.1394 5.39355 18.9524Z" fill="black"/>
<path fill-rule="evenodd" clip-rule="evenodd" d="M7.97994 4.39953L9.48994 4.38953H9.47094L7.96094 4.39953" fill="black"/>
<path fill-rule="evenodd" clip-rule="evenodd" d="M17.6707 14.6652H12.1707C11.7507 14.6652 11.4207 14.3352 11.4207 13.9152C11.4207 13.5052 11.7507 13.1652 12.1707 13.1652H17.6707C18.0807 13.1652 18.4207 13.5052 18.4207 13.9152C18.4207 14.3352 18.0807 14.6652 17.6707 14.6652ZM17.6707 11.0352H15.0007C14.5807 11.0352 14.2507 10.7052 14.2507 10.2852C14.2507 9.87516 14.5807 9.53516 15.0007 9.53516H17.6707C18.0807 9.53516 18.4207 9.87516 18.4207 10.2852C18.4207 10.7052 18.0807 11.0352 17.6707 11.0352Z" fill="black"/>
<path fill-rule="evenodd" clip-rule="evenodd" d="M12.0604 6.93031V7.74031C12.0604 8.87031 11.1404 9.79031 10.0104 9.79031C8.87044 9.79031 7.95044 8.87031 7.95044 7.74031V4.55031C7.95044 4.50031 7.95044 4.46031 7.96044 4.41031V4.40031C8.04044 3.10031 9.12044 2.07031 10.4404 2.07031C11.7504 2.07031 12.8204 3.09031 12.9104 4.39031H11.4004C11.3204 3.92031 10.9304 3.57031 10.4404 3.57031C9.94044 3.57031 9.55044 3.92031 9.47044 4.39031V4.40031C9.45044 4.45031 9.45044 4.49031 9.45044 4.55031V7.74031C9.45044 8.05031 9.70044 8.29031 10.0104 8.29031C10.3104 8.29031 10.5604 8.05031 10.5604 7.74031V6.93031C10.5604 6.51031 10.9004 6.18031 11.3104 6.18031C11.7204 6.18031 12.0604 6.51031 12.0604 6.93031Z" fill="black"/>
<path opacity="0.4" fill-rule="evenodd" clip-rule="evenodd" d="M21.6499 6.63063C21.2599 5.84063 20.6099 5.19062 19.8199 4.80062C18.9899 4.39062 17.9999 4.39062 16.0299 4.39062H9.48994L7.97994 4.40062C6.63994 4.40062 5.85994 4.46062 5.17994 4.80062C4.38994 5.19062 3.73994 5.84063 3.34994 6.64062C2.93994 7.47062 2.93994 8.46062 2.93994 10.4306V10.5816V13.2216C2.93994 15.1916 2.93994 16.1816 3.34994 17.0216C3.73994 17.8116 4.38994 18.4616 5.17994 18.8516C6.00994 19.2616 6.99994 19.2616 8.96994 19.2616H15.5099L17.0199 19.2516C18.3599 19.2516 19.1399 19.1916 19.8199 18.8516C20.6099 18.4616 21.2599 17.8116 21.6499 17.0116C22.0599 16.1816 22.0599 15.1916 22.0599 13.2216V10.5816V10.4306C22.0599 8.46062 22.0599 7.47062 21.6499 6.63063Z" fill="black"/>
</svg>