<svg width="25" height="24" viewBox="0 0 25 24" fill="none" xmlns="http://www.w3.org/2000/svg">
<path d="M11.0788 6.41556V7.23093C11.0788 7.95079 10.4952 8.53435 9.77535 8.53435C9.05549 8.53435 8.47192 7.95079 8.47192 7.23093V4.03589C8.47192 3.07869 9.24788 2.30273 10.2051 2.30273C11.1623 2.30273 11.9382 3.07869 11.9382 4.03589V4.28586" stroke="black" stroke-width="1.5" stroke-linecap="round" stroke-linejoin="round"/>
<path d="M11.9382 13.4043H17.4388" stroke="black" stroke-width="1.5" stroke-linecap="round" stroke-linejoin="round"/>
<path d="M14.7678 9.77148H17.4392" stroke="black" stroke-width="1.5" stroke-linecap="round" stroke-linejoin="round"/>
<path d="M3.19116 9.91476C3.19116 8.02059 3.19116 7.07351 3.54807 6.34498C3.88979 5.64744 4.45384 5.08339 5.15138 4.74167C5.87991 4.38477 6.82699 4.38477 8.72116 4.38477H15.779C17.6732 4.38477 18.6203 4.38477 19.3488 4.74167C20.0463 5.08339 20.6104 5.64744 20.9521 6.34498C21.309 7.07351 21.309 8.02059 21.309 9.91477V12.7206C21.309 14.6147 21.309 15.5618 20.9521 16.2904C20.6104 16.9879 20.0463 17.5519 19.3488 17.8937C18.6203 18.2506 17.6732 18.2506 15.779 18.2506H8.72116C6.82699 18.2506 5.87991 18.2506 5.15138 17.8937C4.45384 17.5519 3.88979 16.9879 3.54807 16.2904C3.28323 15.7498 3.21491 15.0888 3.19729 14.0098" stroke="black" stroke-width="1.5" stroke-linecap="round" stroke-linejoin="round"/>
<path d="M5.64185 18.084L12.8212 20.2603C14.6496 20.7548 15.5639 21.002 16.3603 20.8477C17.1229 20.6999 17.8146 20.3027 18.3266 19.7185C18.6548 19.3441 18.8746 18.8552 19.1098 18.1107" stroke="black" stroke-width="1.5" stroke-linecap="round" stroke-linejoin="round"/>
</svg>