<svg width="24" height="24" viewBox="0 0 24 24" fill="none" xmlns="http://www.w3.org/2000/svg">
<path fill-rule="evenodd" clip-rule="evenodd" d="M8.5653 12.4153H9.4953L9.0303 11.2983L8.5653 12.4153Z" fill="black"/>
<path fill-rule="evenodd" clip-rule="evenodd" d="M17.4151 14.3471C17.6301 14.7011 17.5171 15.1621 17.1621 15.3771C17.0411 15.4511 16.9061 15.4861 16.7741 15.4861C16.5201 15.4861 16.2731 15.3581 16.1321 15.1251L15.0201 13.2931H14.4551V14.7361C14.4551 15.1501 14.1191 15.4861 13.7051 15.4861C13.2911 15.4861 12.9551 15.1501 12.9551 14.7361V9.25312C12.9551 8.83912 13.2911 8.50312 13.7051 8.50312H15.5991C16.9191 8.50312 17.9931 9.57712 17.9931 10.8981C17.9931 11.8481 17.4321 12.6641 16.6291 13.0511L17.4151 14.3471ZM11.5231 15.3361C11.4301 15.3751 11.3321 15.3941 11.2351 15.3941C10.9411 15.3941 10.6631 15.2211 10.5431 14.9321L10.1201 13.9151H7.94008L7.51708 14.9321C7.35608 15.3151 6.91508 15.4941 6.53608 15.3361C6.15308 15.1771 5.97308 14.7381 6.13208 14.3551L8.33808 9.05812C8.45408 8.77912 8.72708 8.59712 9.03008 8.59712C9.33308 8.59712 9.60608 8.77912 9.72308 9.05912L11.3091 12.8701C11.3101 12.8721 11.3111 12.8741 11.3121 12.8761L11.9281 14.3561C12.0871 14.7381 11.9061 15.1771 11.5231 15.3361ZM16.2501 2.49512H7.81508C4.65608 2.49512 2.53308 4.71612 2.53308 8.02112V15.9691C2.53308 19.2741 4.65608 21.4951 7.81508 21.4951H16.2491C19.4091 21.4951 21.5331 19.2741 21.5331 15.9691V8.02112C21.5331 4.71612 19.4101 2.49512 16.2501 2.49512Z" fill="black"/>
<path fill-rule="evenodd" clip-rule="evenodd" d="M16.4933 10.8979C16.4933 10.4039 16.0923 10.0029 15.5983 10.0029H14.4553V11.7929H15.5983C16.0923 11.7929 16.4933 11.3919 16.4933 10.8979Z" fill="black"/>
</svg>