<svg width="25" height="24" viewBox="0 0 25 24" fill="none" xmlns="http://www.w3.org/2000/svg">
<path opacity="0.4" fill-rule="evenodd" clip-rule="evenodd" d="M12.4995 2.50488C7.26151 2.50488 2.99951 6.76688 2.99951 12.0049C2.99951 17.2439 7.26151 21.5049 12.4995 21.5049C17.7385 21.5049 21.9995 17.2439 21.9995 12.0049C21.9995 6.76688 17.7385 2.50488 12.4995 2.50488Z" fill="black"/>
<path d="M12.8864 17.0465L16.5534 14.8465C16.8894 14.6455 17.0134 14.2195 16.8394 13.8685L16.1064 12.3985C15.9214 12.0275 15.4714 11.8785 15.1004 12.0615C14.7294 12.2465 14.5784 12.6975 14.7634 13.0675L15.1864 13.9175L12.5004 15.5285L9.81442 13.9175L10.2384 13.0685C10.4234 12.6975 10.2734 12.2475 9.90242 12.0625C9.53242 11.8775 9.08142 12.0275 8.89642 12.3985L8.16242 13.8685C7.98742 14.2195 8.11242 14.6445 8.44842 14.8465L12.1154 17.0465C12.2334 17.1175 12.3674 17.1535 12.5004 17.1535C12.6344 17.1535 12.7674 17.1175 12.8864 17.0465Z" fill="black"/>
<path d="M11.8604 7.21752L9.97942 10.3465C9.76642 10.7015 9.88142 11.1625 10.2364 11.3765C10.5914 11.5875 11.0514 11.4745 11.2654 11.1195L12.5024 9.06152L13.7324 11.1175C13.8724 11.3535 14.1214 11.4835 14.3764 11.4835C14.5074 11.4835 14.6394 11.4495 14.7604 11.3765C15.1164 11.1645 15.2324 10.7035 15.0194 10.3485L13.1474 7.21852C13.0114 6.99252 12.7674 6.85352 12.5044 6.85352H12.5034C12.2404 6.85352 11.9964 6.99152 11.8604 7.21752Z" fill="black"/>
</svg>