<svg width="25" height="24" viewBox="0 0 25 24" fill="none" xmlns="http://www.w3.org/2000/svg">
<path opacity="0.4" fill-rule="evenodd" clip-rule="evenodd" d="M15.2589 2.28504C15.0922 2.23263 14.9435 2.40352 15.0198 2.56075C15.2325 2.99923 15.5684 3.68255 15.7865 4.08225C15.8395 4.17925 15.9545 4.27125 16.0605 4.30525C16.9215 4.58825 17.7855 4.86425 18.6535 5.12525C18.8405 5.18225 18.8865 5.27025 18.8865 5.45325C18.8805 7.35525 18.8885 9.25825 18.8785 11.1613C18.8765 11.5393 18.8415 11.9223 18.7775 12.2953C18.4825 14.0153 17.6345 15.4333 16.3435 16.5813C15.1225 17.6673 13.8725 18.7203 12.6385 19.7913C12.5905 19.8323 12.5515 19.8483 12.5115 19.8523C12.4725 19.8483 12.4325 19.8323 12.3855 19.7913C11.1515 18.7203 9.90153 17.6673 8.68053 16.5813C7.38953 15.4333 6.54153 14.0153 6.24653 12.2953C6.18253 11.9223 6.14753 11.5393 6.14553 11.1613C6.13553 9.25825 6.14353 7.35525 6.13753 5.45325C6.13653 5.27025 6.18353 5.18225 6.37053 5.12525C7.23853 4.86425 8.10253 4.58825 8.96353 4.30525C9.06953 4.27125 9.18453 4.17925 9.23753 4.08225C9.50419 3.59364 9.761 3.09949 10.0051 2.58099C10.0806 2.42054 9.92049 2.23636 9.7513 2.28955C8.57546 2.65922 5.45578 3.63942 4.62256 3.90121C4.49754 3.94049 4.41553 4.05541 4.41553 4.18646V11.3243C4.42953 11.4293 4.51953 12.3893 4.58953 12.7563C4.99453 14.8613 6.07053 16.5843 7.67353 17.9863C8.75453 18.9323 9.84753 19.8643 10.9355 20.8033C11.3191 21.1334 11.9972 21.7058 12.3245 21.9767C12.4328 22.0664 12.5905 22.0666 12.6988 21.977C13.0263 21.7062 13.7046 21.1335 14.0875 20.8033C15.1765 19.8643 16.2685 18.9323 17.3505 17.9863C18.9535 16.5843 20.0295 14.8613 20.4335 12.7563C20.5045 12.3893 20.5415 12.0143 20.5665 11.6373C20.5791 11.5438 20.6022 5.42419 20.6067 4.18402C20.6072 4.05259 20.5221 3.9394 20.3967 3.89999L15.2589 2.28504Z" fill="black"/>
<path fill-rule="evenodd" clip-rule="evenodd" d="M7.79483 11.0455C7.74683 11.1385 7.73183 11.2625 7.73983 11.3685C7.81283 12.2715 8.10783 13.0975 8.61983 13.8455C8.68888 13.9478 8.8414 13.9311 8.89868 13.8218C9.34309 12.9735 9.78596 12.1289 10.2288 11.2835C10.9888 9.8665 11.7468 8.4535 12.5118 7.0255C13.2778 8.4535 14.0348 9.8665 14.7948 11.2835C15.2377 12.1289 15.6806 12.9735 16.125 13.8218C16.1823 13.9311 16.3348 13.9478 16.4038 13.8455C16.9168 13.0975 17.2108 12.2715 17.2838 11.3685C17.2928 11.2625 17.2778 11.1385 17.2288 11.0455C17.1798 10.9501 13.4853 3.99897 12.6699 2.50659C12.5981 2.37533 12.4257 2.37544 12.354 2.50672C11.5392 3.99937 7.84474 10.9501 7.79483 11.0455Z" fill="black"/>
<path fill-rule="evenodd" clip-rule="evenodd" d="M12.7128 11.1397C12.6342 10.9911 12.3895 10.9911 12.3109 11.1397C11.8637 11.9847 10.7808 14.088 10.2018 15.2577C10.1778 15.3077 10.2078 15.4227 10.2528 15.4617C10.9528 16.0717 11.6618 16.6717 12.3628 17.2807C12.4198 17.3297 12.4668 17.3477 12.5118 17.3427C12.5568 17.3477 12.6038 17.3297 12.6608 17.2807C13.3618 16.6717 14.0708 16.0717 14.7708 15.4617C14.8158 15.4227 14.8458 15.3077 14.8218 15.2577C14.2429 14.088 13.1599 11.9847 12.7128 11.1397Z" fill="black"/>
</svg>