<svg width="24" height="24" viewBox="0 0 24 24" fill="none" xmlns="http://www.w3.org/2000/svg">
<path d="M12 21C16.9709 21 21 16.9709 21 12C21 7.02908 16.9709 3 12 3C7.02908 3 3 7.02908 3 12C3 16.9709 7.02908 21 12 21Z" stroke="black" stroke-width="1.5" stroke-linecap="round" stroke-linejoin="round"/>
<path d="M10.1381 15.7223L8.11696 13.7011C7.62338 13.2074 7.3456 12.5373 7.3457 11.8392C7.34581 11.1411 7.62324 10.4716 8.11696 9.978C9.14507 8.9502 10.8123 8.94989 11.8401 9.978L13.8612 11.9991" stroke="black" stroke-width="1.5" stroke-linecap="round" stroke-linejoin="round"/>
<path d="M13.8618 8.27734L15.8829 10.2984C16.3765 10.7922 16.6543 11.4623 16.6542 12.1604C16.6541 12.8585 16.3766 13.528 15.8829 14.0216C15.3892 14.5152 14.7191 14.7929 14.0209 14.7928C13.3228 14.7927 12.6533 14.5153 12.1598 14.0216L10.1387 12.0005" stroke="black" stroke-width="1.5" stroke-linecap="round" stroke-linejoin="round"/>
</svg>