<svg width="25" height="25" viewBox="0 0 25 25" fill="none" xmlns="http://www.w3.org/2000/svg">
<path fill-rule="evenodd" clip-rule="evenodd" d="M11.8764 2.51099C12.3255 2.3453 12.819 2.3453 13.2681 2.51099C13.517 2.60278 13.7174 2.74744 13.8962 2.90134C14.0645 3.04614 14.253 3.23461 14.4662 3.44782L15.3193 4.30095C15.5422 4.52383 15.5774 4.55335 15.6081 4.57299C15.6589 4.6055 15.715 4.62876 15.7739 4.64168C15.8095 4.64949 15.8553 4.65354 16.1705 4.65354L17.3767 4.65354C17.6782 4.65353 17.9448 4.65352 18.1661 4.67011C18.4014 4.68776 18.6454 4.72719 18.8863 4.83822C19.321 5.03864 19.67 5.3876 19.8704 5.82234C19.9815 6.06319 20.0209 6.30721 20.0385 6.54249C20.0551 6.76385 20.0551 7.03036 20.0551 7.33184V8.53811C20.0551 8.8533 20.0592 8.8991 20.067 8.93469C20.0799 8.99359 20.1031 9.04973 20.1357 9.10052C20.1553 9.13121 20.1848 9.16646 20.4077 9.38933L21.2612 10.2428C21.4744 10.456 21.6629 10.6445 21.8076 10.8127C21.9615 10.9916 22.1062 11.192 22.198 11.4408C22.3637 11.89 22.3637 12.3835 22.198 12.8326C22.1062 13.0814 21.9615 13.2818 21.8076 13.4607C21.6629 13.6289 21.4744 13.8174 21.2612 14.0306L20.4077 14.8841C20.1848 15.1069 20.1553 15.1422 20.1357 15.1729C20.1031 15.2237 20.0799 15.2798 20.067 15.3387C20.0592 15.3743 20.0551 15.4201 20.0551 15.7353V16.9416C20.0551 17.243 20.0551 17.5096 20.0385 17.7309C20.0209 17.9662 19.9815 18.2102 19.8704 18.4511C19.67 18.8858 19.321 19.2348 18.8863 19.4352C18.6454 19.5462 18.4014 19.5857 18.1661 19.6033C17.9448 19.6199 17.6783 19.6199 17.3768 19.6199H16.1705C15.8553 19.6199 15.8095 19.6239 15.774 19.6317C15.7151 19.6447 15.6589 19.6679 15.6081 19.7004C15.5774 19.7201 15.5422 19.7496 15.3193 19.9725L14.4662 20.8256C14.253 21.0388 14.0645 21.2273 13.8962 21.3721C13.7174 21.526 13.517 21.6707 13.2681 21.7624C12.819 21.9281 12.3255 21.9281 11.8764 21.7624C11.6276 21.6707 11.4271 21.526 11.2483 21.3721C11.08 21.2273 10.8915 21.0388 10.6783 20.8256L9.82522 19.9725C9.60235 19.7496 9.5671 19.7201 9.53641 19.7004C9.48562 19.6679 9.42948 19.6447 9.37057 19.6317C9.33499 19.6239 9.28918 19.6199 8.97399 19.6199H7.76708C7.4656 19.6199 7.19909 19.6199 6.97774 19.6033C6.74245 19.5857 6.49843 19.5462 6.25758 19.4352C5.82284 19.2348 5.47388 18.8858 5.27346 18.4511C5.16243 18.2102 5.123 17.9662 5.10535 17.7309C5.08876 17.5095 5.08877 17.243 5.08878 16.9415L5.08878 15.7347C5.08878 15.4195 5.08473 15.3737 5.07692 15.3381C5.064 15.2792 5.04074 15.223 5.00823 15.1722C4.98859 15.1416 4.95907 15.1063 4.73619 14.8834L3.88337 14.0306C3.67016 13.8174 3.48168 13.629 3.33688 13.4607C3.18299 13.2818 3.03832 13.0814 2.94653 12.8326C2.78084 12.3835 2.78084 11.89 2.94654 11.4408C3.03833 11.192 3.18299 10.9916 3.33689 10.8127C3.48169 10.6445 3.67016 10.456 3.88336 10.2428L4.73619 9.39001C4.95907 9.16713 4.98858 9.13188 5.00823 9.10119C5.04074 9.05041 5.064 8.99426 5.07692 8.93536C5.08473 8.89977 5.08878 8.85397 5.08878 8.53878L5.08878 7.3319C5.08877 7.0304 5.08876 6.76387 5.10535 6.5425C5.123 6.30721 5.16243 6.06319 5.27346 5.82234C5.47388 5.3876 5.82284 5.03864 6.25758 4.83822C6.49843 4.72719 6.74245 4.68776 6.97773 4.67011C7.19911 4.65352 7.46564 4.65353 7.76714 4.65354L8.97401 4.65354C9.28921 4.65354 9.335 4.64949 9.37059 4.64168C9.42949 4.62876 9.48564 4.6055 9.53643 4.57299C9.56711 4.55335 9.60236 4.52383 9.82524 4.30095L10.6784 3.44781C10.8916 3.23461 11.08 3.04614 11.2483 2.90134C11.4271 2.74744 11.6276 2.60278 11.8764 2.51099ZM12.749 3.91827C12.6349 3.8762 12.5096 3.8762 12.3956 3.91827C12.3849 3.92221 12.3413 3.9397 12.2267 4.03833C12.1062 4.142 11.9576 4.28988 11.721 4.52648L10.8859 5.36161C10.8737 5.37383 10.8615 5.386 10.8494 5.39814C10.6863 5.56166 10.5309 5.71743 10.3451 5.83632C10.1451 5.96435 9.92402 6.05594 9.69206 6.10683C9.47666 6.15409 9.25661 6.15384 9.02563 6.15358C9.00848 6.15356 8.99128 6.15354 8.97401 6.15354H7.7926C7.458 6.15354 7.24838 6.15403 7.08989 6.16592C6.93909 6.17722 6.89589 6.19568 6.88557 6.20044C6.77518 6.25133 6.68657 6.33994 6.63568 6.45033C6.63092 6.46065 6.61246 6.50385 6.60116 6.65465C6.58927 6.81314 6.58878 7.02276 6.58878 7.35736V8.53878C6.58878 8.55604 6.5888 8.57325 6.58882 8.59039C6.58908 8.82138 6.58933 9.04143 6.54207 9.25682C6.49117 9.48878 6.39959 9.70989 6.27155 9.9099C6.15266 10.0956 5.99689 10.2511 5.83337 10.4142C5.82123 10.4263 5.80906 10.4385 5.79685 10.4507L4.96203 11.2855C4.72543 11.5221 4.57755 11.6707 4.47388 11.7911C4.37525 11.9057 4.35775 11.9493 4.35382 11.96C4.31175 12.0741 4.31175 12.1994 4.35382 12.3134C4.35775 12.3241 4.37525 12.3677 4.47388 12.4823C4.57755 12.6028 4.72543 12.7513 4.96202 12.9879L5.79686 13.8228C5.80907 13.835 5.82124 13.8471 5.83338 13.8592C5.9969 14.0224 6.15267 14.1778 6.27156 14.3635C6.39959 14.5635 6.49118 14.7847 6.54207 15.0166C6.58933 15.232 6.58908 15.4521 6.58882 15.683C6.5888 15.7002 6.58878 15.7174 6.58878 15.7347V16.916C6.58878 17.2507 6.58927 17.4603 6.60116 17.6188C6.61246 17.7696 6.63092 17.8128 6.63568 17.8231C6.68657 17.9335 6.77518 18.0221 6.88557 18.073C6.89589 18.0777 6.93909 18.0962 7.08989 18.1075C7.24838 18.1194 7.458 18.1199 7.7926 18.1199H8.97399C8.99126 18.1199 9.00846 18.1198 9.02559 18.1198C9.25659 18.1196 9.47664 18.1193 9.69204 18.1666C9.924 18.2175 10.1451 18.3091 10.3451 18.4371C10.5308 18.556 10.6863 18.7118 10.8494 18.8753C10.8615 18.8874 10.8737 18.8996 10.8859 18.9118L11.721 19.747C11.9576 19.9836 12.1062 20.1314 12.2267 20.2351C12.3413 20.3337 12.3849 20.3512 12.3956 20.3552C12.5096 20.3972 12.6349 20.3972 12.749 20.3552C12.7596 20.3512 12.8032 20.3337 12.9179 20.2351C13.0383 20.1314 13.1869 19.9836 13.4235 19.747L14.2586 18.9118C14.2709 18.8996 14.283 18.8874 14.2951 18.8753C14.4583 18.7118 14.6137 18.556 14.7994 18.4371C14.9994 18.3091 15.2205 18.2175 15.4525 18.1666C15.6679 18.1193 15.8879 18.1196 16.1189 18.1198C16.1361 18.1198 16.1533 18.1199 16.1705 18.1199H17.3513C17.6859 18.1199 17.8955 18.1194 18.054 18.1075C18.2048 18.0962 18.248 18.0777 18.2583 18.073C18.3687 18.0221 18.4573 17.9335 18.5082 17.8231C18.513 17.8128 18.5314 17.7696 18.5427 17.6188C18.5546 17.4603 18.5551 17.2507 18.5551 16.916V15.7353C18.5551 15.718 18.5551 15.7008 18.5551 15.6837C18.5548 15.4527 18.5546 15.2326 18.6018 15.0173C18.6527 14.7853 18.7443 14.5642 18.8723 14.3642C18.9912 14.1785 19.147 14.023 19.3105 13.8599C19.3227 13.8478 19.3348 13.8356 19.347 13.8234L20.1825 12.9879C20.4191 12.7513 20.567 12.6028 20.6707 12.4823C20.7693 12.3677 20.7868 12.3241 20.7907 12.3134C20.8328 12.1994 20.8328 12.074 20.7907 11.96C20.7868 11.9493 20.7693 11.9057 20.6707 11.7911C20.567 11.6706 20.4191 11.5221 20.1825 11.2855L19.347 10.45C19.3348 10.4378 19.3226 10.4256 19.3105 10.4135C19.147 10.2504 18.9912 10.095 18.8723 9.90923C18.7443 9.70922 18.6527 9.48811 18.6018 9.25615C18.5546 9.04076 18.5548 8.82071 18.5551 8.58973C18.5551 8.57258 18.5551 8.55538 18.5551 8.53811V7.35736C18.5551 7.02276 18.5546 6.81314 18.5427 6.65465C18.5314 6.50386 18.513 6.46065 18.5082 6.45033C18.4573 6.33994 18.3687 6.25133 18.2583 6.20044C18.248 6.19568 18.2048 6.17722 18.054 6.16592C17.8955 6.15403 17.6859 6.15354 17.3513 6.15354H16.1705C16.1533 6.15354 16.136 6.15356 16.1189 6.15358C15.8879 6.15384 15.6679 6.15409 15.4525 6.10683C15.2205 6.05594 14.9994 5.96435 14.7994 5.83632C14.6137 5.71743 14.4582 5.56165 14.2951 5.39813C14.283 5.386 14.2708 5.37382 14.2586 5.36161L13.4235 4.52648C13.1869 4.28988 13.0383 4.142 12.9178 4.03833C12.8032 3.9397 12.7596 3.92221 12.749 3.91827Z" fill="black"/>
<path fill-rule="evenodd" clip-rule="evenodd" d="M12.5717 8.13672C12.8634 8.13672 13.1286 8.30581 13.2517 8.57025L16.0442 14.5702C16.219 14.9458 16.0563 15.3919 15.6808 15.5667C15.3052 15.7415 14.8591 15.5787 14.6843 15.2032L13.9786 13.6869H11.1649L10.4592 15.2032C10.2844 15.5787 9.8383 15.7415 9.46277 15.5667C9.08724 15.3919 8.92449 14.9458 9.09927 14.5703L11.8917 8.57026C12.0148 8.30582 12.28 8.13672 12.5717 8.13672ZM11.863 12.1869H13.2804L12.5717 10.6641L11.863 12.1869Z" fill="black"/>
</svg>