<svg width="24" height="24" viewBox="0 0 24 24" fill="none" xmlns="http://www.w3.org/2000/svg">
<path fill-rule="evenodd" clip-rule="evenodd" d="M6.95984 3.69732C7.23605 3.04716 7.87408 2.625 8.58048 2.625H13.0403C13.7477 2.625 14.3865 3.04841 14.662 3.70001L21.6908 20.3211C21.7887 20.5527 21.7641 20.818 21.6251 21.0276C21.4862 21.2372 21.2515 21.3632 21 21.3632H16.7545C16.0474 21.3632 15.4089 20.9402 15.1332 20.2892L13.8308 17.2145L7.44498 21.1182C6.59381 21.6385 5.48077 21.3485 4.99178 20.4789L2.47603 16.0052L3.12976 15.6376L2.47603 16.0052C2.20841 15.5293 2.1767 14.9561 2.39019 14.4536L6.95984 3.69732L7.65013 3.99058L6.95984 3.69732ZM13.1235 15.5446L10.8196 10.1054L8.3853 15.5446H13.1235ZM11.2327 17.0446H7.22796C6.97373 17.0446 6.73682 16.9159 6.59856 16.7025C6.46031 16.4892 6.43954 16.2203 6.54339 15.9883L10.154 7.92072C10.2759 7.64833 10.5477 7.47413 10.8461 7.47714C11.1445 7.48014 11.4127 7.65978 11.5291 7.93458L16.5144 19.7041C16.5552 19.8006 16.6498 19.8632 16.7545 19.8632H19.8685L13.2805 4.28424C13.2397 4.18772 13.145 4.125 13.0403 4.125H8.58048C8.47584 4.125 8.38133 4.18753 8.34042 4.28384L3.77077 15.0401C3.73914 15.1146 3.74384 15.1995 3.78348 15.27L6.29923 19.7437C6.37167 19.8725 6.53654 19.9155 6.66262 19.8384L11.2327 17.0446Z" fill="black"/>
</svg>