<svg width="24" height="24" viewBox="0 0 24 24" fill="none" xmlns="http://www.w3.org/2000/svg">
<path fill-rule="evenodd" clip-rule="evenodd" d="M14.379 7.56514C14.9573 8.43308 15.1026 9.58966 14.5233 10.4576L9.7506 18.1228C9.31765 18.8454 8.44971 19.4247 7.58176 19.4247H3.74867C3.17243 19.4247 2.81215 18.7983 3.10283 18.2998L10.9809 4.79651C11.249 4.33593 11.9 4.29703 12.2214 4.72179L14.379 7.56514Z" stroke="black" stroke-width="1.5" stroke-linecap="round" stroke-linejoin="round"/>
<path fill-rule="evenodd" clip-rule="evenodd" d="M20.8884 18.3861L18.0134 13.5428C17.7084 13.03 16.9653 13.03 16.6613 13.5428L13.7852 18.3861C13.474 18.9101 13.8517 19.5734 14.4617 19.5734H20.2129C20.8219 19.5734 21.1996 18.9101 20.8884 18.3861Z" stroke="black" stroke-width="1.5" stroke-linecap="round" stroke-linejoin="round"/>
</svg>