<svg width="25" height="24" viewBox="0 0 25 24" fill="none" xmlns="http://www.w3.org/2000/svg">
<path d="M4.83691 11.8128C4.93615 7.34311 8.59056 3.75 13.0846 3.75C17.6409 3.75 21.3343 7.44429 21.3343 11.9996C21.3343 16.556 17.6409 20.2493 13.0846 20.2493C10.2679 20.2493 7.78106 18.8385 6.29245 16.6834" stroke="black" stroke-width="1.5" stroke-linecap="round" stroke-linejoin="round"/>
<path d="M3.33398 9.80078L4.61439 12.0211L6.82201 10.7475" stroke="black" stroke-width="1.5" stroke-linecap="round" stroke-linejoin="round"/>
<path opacity="0.4" d="M10.543 14.6115V9.38672" stroke="black" stroke-width="1.5" stroke-linecap="round" stroke-linejoin="round"/>
<path opacity="0.4" fill-rule="evenodd" clip-rule="evenodd" d="M14.8017 14.7133C13.9153 14.7133 13.1963 13.9943 13.1963 13.1079V10.8954C13.1963 10.0081 13.9153 9.28906 14.8017 9.28906C15.688 9.28906 16.407 10.0081 16.407 10.8954V13.1079C16.407 13.9943 15.688 14.7133 14.8017 14.7133Z" stroke="black" stroke-width="1.5" stroke-linecap="round" stroke-linejoin="round"/>
</svg>