<svg width="25" height="24" viewBox="0 0 25 24" fill="none" xmlns="http://www.w3.org/2000/svg">
<path d="M5.4668 15.6129C5.4668 18.2906 7.1345 20.183 9.81508 20.183H17.4832C20.1648 20.183 21.8334 18.2906 21.8334 15.6129V8.38653C21.8334 5.70887 20.1648 3.81641 17.4842 3.81641H9.81508C7.14228 3.81641 5.4668 5.70887 5.4668 8.38653V12.117" stroke="black" stroke-width="1.5" stroke-linecap="round" stroke-linejoin="round"/>
<path d="M3.83398 10.4648L5.48612 12.117L7.12852 10.4746" stroke="black" stroke-width="1.5" stroke-linecap="round" stroke-linejoin="round"/>
<path d="M10.313 10.7109C10.313 9.96653 10.9162 9.36328 11.6606 9.36328C12.4049 9.36328 13.0082 9.96653 13.0082 10.7109C13.0082 11.4552 12.4049 12.0594 11.6606 12.0594C12.4059 12.0594 13.0087 12.6627 13.0087 13.407C13.0087 14.1523 12.4054 14.7556 11.6601 14.7556C10.9158 14.7556 10.3125 14.1523 10.3125 13.407" stroke="black" stroke-width="1.5" stroke-linecap="round" stroke-linejoin="round"/>
<path fill-rule="evenodd" clip-rule="evenodd" d="M16.587 14.7158C15.7191 14.7158 15.0156 14.0124 15.0156 13.1445V10.9776C15.0156 10.1097 15.7191 9.40625 16.587 9.40625C17.4549 9.40625 18.1584 10.1097 18.1584 10.9776V13.1445C18.1584 14.0124 17.4549 14.7158 16.587 14.7158Z" stroke="black" stroke-width="1.5" stroke-linecap="round" stroke-linejoin="round"/>
</svg>