<svg width="25" height="24" viewBox="0 0 25 24" fill="none" xmlns="http://www.w3.org/2000/svg">
<path fill-rule="evenodd" clip-rule="evenodd" d="M17.4083 3.07031H9.73934C6.69034 3.07031 4.64134 5.20831 4.64134 8.39031V9.41931L3.91534 9.41631H3.91234C3.62734 9.41631 3.36634 9.57731 3.24034 9.83331C3.11334 10.0893 3.14234 10.3953 3.31734 10.6223L4.78434 12.5373C4.91934 12.7343 5.13434 12.8713 5.39134 12.8713C5.39434 12.8713 5.39734 12.8693 5.40134 12.8693C5.40434 12.8693 5.40634 12.8713 5.40934 12.8713C5.45234 12.8713 5.48934 12.8503 5.53034 12.8433C5.58534 12.8323 5.64334 12.8273 5.69434 12.8043C5.76534 12.7753 5.82434 12.7273 5.88434 12.6763C5.89934 12.6633 5.91634 12.6533 5.93034 12.6393C5.95334 12.6153 5.98434 12.6033 6.00534 12.5773L7.49434 10.6333C7.66834 10.4083 7.69834 10.1023 7.57334 9.84731C7.44734 9.59131 7.18734 9.42831 6.90234 9.42731L6.14134 9.42431V8.39031C6.14134 6.07031 7.55434 4.57031 9.73934 4.57031H17.4083C19.5953 4.57031 21.0073 6.07031 21.0073 8.39031V15.6113C21.0073 17.9313 19.5943 19.4303 17.4073 19.4303H9.73934C7.55434 19.4303 6.14134 17.9313 6.14134 15.6113C6.14134 15.1973 5.80534 14.8613 5.39134 14.8613C4.97734 14.8613 4.64134 15.1973 4.64134 15.6113C4.64134 18.7933 6.69034 20.9303 9.73934 20.9303H17.4073C20.4573 20.9303 22.5073 18.7933 22.5073 15.6113V8.39031C22.5073 5.20831 20.4583 3.07031 17.4083 3.07031Z" fill="black"/>
<path fill-rule="evenodd" clip-rule="evenodd" d="M15.4426 13.8104H13.6276C13.2136 13.8104 12.8776 14.1464 12.8776 14.5604C12.8776 14.9744 13.2136 15.3104 13.6276 15.3104H15.4426C16.5806 15.3104 17.5066 14.3814 17.5066 13.2404C17.5066 12.1044 16.5806 11.1804 15.4426 11.1804H14.3776V10.1904H16.5076C16.9216 10.1904 17.2576 9.85443 17.2576 9.44043C17.2576 9.02643 16.9216 8.69043 16.5076 8.69043H13.6276C13.2136 8.69043 12.8776 9.02643 12.8776 9.44043V11.9304C12.8776 12.3444 13.2136 12.6804 13.6276 12.6804H15.4426C15.7536 12.6804 16.0066 12.9314 16.0066 13.2404C16.0066 13.5544 15.7536 13.8104 15.4426 13.8104Z" fill="black"/>
<path fill-rule="evenodd" clip-rule="evenodd" d="M11.7706 14.5604V9.44043C11.7706 9.02643 11.4346 8.69043 11.0206 8.69043C10.6066 8.69043 10.2706 9.02643 10.2706 9.44043V14.5604C10.2706 14.9744 10.6066 15.3104 11.0206 15.3104C11.4346 15.3104 11.7706 14.9744 11.7706 14.5604Z" fill="black"/>
</svg>