<svg width="25" height="24" viewBox="0 0 25 24" fill="none" xmlns="http://www.w3.org/2000/svg">
<path d="M10.293 14.6115V9.38672" stroke="black" stroke-width="1.5" stroke-linecap="round" stroke-linejoin="round"/>
<path fill-rule="evenodd" clip-rule="evenodd" d="M14.5517 14.7133C13.6653 14.7133 12.9463 13.9943 12.9463 13.1079V10.8954C12.9463 10.0081 13.6653 9.28906 14.5517 9.28906C15.438 9.28906 16.157 10.0081 16.157 10.8954V13.1079C16.157 13.9943 15.438 14.7133 14.5517 14.7133Z" stroke="black" stroke-width="1.5" stroke-linecap="round" stroke-linejoin="round"/>
<path d="M6.04187 16.6845C7.53052 18.8396 10.0174 20.2504 12.8342 20.2504C17.3906 20.2504 21.084 16.557 21.084 12.0006C21.084 11.2896 20.994 10.5997 20.8249 9.94141" stroke="black" stroke-width="1.5" stroke-linecap="round" stroke-linejoin="round"/>
<path d="M4.58661 11.813C4.68585 7.34318 8.34033 3.75 12.8345 3.75C15.527 3.75 17.9181 5.04002 19.4238 7.03543" stroke="black" stroke-width="1.5" stroke-linecap="round" stroke-linejoin="round"/>
<path d="M3.08417 9.80078L4.3646 12.0211L6.57227 10.7475" stroke="black" stroke-width="1.5" stroke-linecap="round" stroke-linejoin="round"/>
</svg>