<svg width="25" height="24" viewBox="0 0 25 24" fill="none" xmlns="http://www.w3.org/2000/svg">
<path fill-rule="evenodd" clip-rule="evenodd" d="M11.667 14.5814V9.36035C11.667 8.94635 11.331 8.61035 10.917 8.61035C10.503 8.61035 10.167 8.94635 10.167 9.36035V14.5814C10.167 14.9954 10.503 15.3314 10.917 15.3314C11.331 15.3314 11.667 14.9954 11.667 14.5814Z" fill="black"/>
<path fill-rule="evenodd" clip-rule="evenodd" d="M15.4346 13.8314H13.5806C13.1666 13.8314 12.8306 14.1674 12.8306 14.5814C12.8306 14.9954 13.1666 15.3314 13.5806 15.3314H15.4346C16.5886 15.3314 17.5276 14.3934 17.5276 13.2404C17.5276 12.0884 16.5886 11.1504 15.4346 11.1504H14.3306V10.1104H16.5226C16.9366 10.1104 17.2726 9.77435 17.2726 9.36035C17.2726 8.94635 16.9366 8.61035 16.5226 8.61035H13.5806C13.1666 8.61035 12.8306 8.94635 12.8306 9.36035V11.9004C12.8306 12.3144 13.1666 12.6504 13.5806 12.6504H15.4346C15.7616 12.6504 16.0276 12.9154 16.0276 13.2404C16.0276 13.5664 15.7616 13.8314 15.4346 13.8314Z" fill="black"/>
<path fill-rule="evenodd" clip-rule="evenodd" d="M13.4024 3C9.46839 3 6.07139 5.594 4.86839 9.159L4.23539 8.965C3.96939 8.883 3.67939 8.957 3.48339 9.153C3.28739 9.352 3.21639 9.642 3.30039 9.907L4.09339 12.416C4.16839 12.651 4.35339 12.835 4.58939 12.907C4.66139 12.93 4.73539 12.94 4.80839 12.94C4.97539 12.94 5.14039 12.885 5.27439 12.778L7.33439 11.146C7.55239 10.973 7.65739 10.692 7.60539 10.419C7.55339 10.146 7.35439 9.923 7.08839 9.841L6.30339 9.6C7.31539 6.646 10.1354 4.5 13.4024 4.5C17.5384 4.5 20.9024 7.864 20.9024 12C20.9024 16.136 17.5384 19.5 13.4024 19.5C10.9364 19.5 8.62939 18.287 7.22739 16.255C6.99239 15.914 6.52639 15.827 6.18439 16.063C5.84339 16.298 5.75739 16.766 5.99339 17.106C7.67339 19.545 10.4434 21 13.4024 21C18.3654 21 22.4024 16.963 22.4024 12C22.4024 7.037 18.3654 3 13.4024 3Z" fill="black"/>
</svg>