<svg width="25" height="24" viewBox="0 0 25 24" fill="none" xmlns="http://www.w3.org/2000/svg">
<path fill-rule="evenodd" clip-rule="evenodd" d="M14.0586 13.8713H12.1776C11.7636 13.8713 11.4276 14.2073 11.4276 14.6213C11.4276 15.0353 11.7636 15.3713 12.1776 15.3713H14.0586C15.2236 15.3713 16.1706 14.4253 16.1706 13.2623C16.1706 12.0983 15.2236 11.1513 14.0586 11.1513H12.9276V10.0713H15.1616C15.5756 10.0713 15.9116 9.73529 15.9116 9.32129C15.9116 8.90729 15.5756 8.57129 15.1616 8.57129H12.1776C11.7636 8.57129 11.4276 8.90729 11.4276 9.32129V11.9013C11.4276 12.3153 11.7636 12.6513 12.1776 12.6513H14.0586C14.3956 12.6513 14.6706 12.9253 14.6706 13.2623C14.6706 13.5983 14.3956 13.8713 14.0586 13.8713Z" fill="black"/>
<path fill-rule="evenodd" clip-rule="evenodd" d="M13.4034 3C9.46839 3 6.07239 5.594 4.86939 9.159L4.23639 8.965C3.97039 8.881 3.67939 8.956 3.48339 9.153C3.28739 9.352 3.21639 9.642 3.30039 9.908L4.09439 12.417C4.16939 12.651 4.35439 12.835 4.59039 12.907C4.66239 12.93 4.73639 12.94 4.80939 12.94C4.97639 12.94 5.14139 12.885 5.27539 12.778L7.33439 11.146C7.55239 10.973 7.65739 10.692 7.60539 10.419C7.55439 10.145 7.35539 9.923 7.08939 9.841L6.30439 9.6C7.31639 6.646 10.1364 4.5 13.4034 4.5C17.5394 4.5 20.9034 7.864 20.9034 12C20.9034 16.136 17.5394 19.5 13.4034 19.5C10.9374 19.5 8.62939 18.287 7.22939 16.255C6.99339 15.915 6.52739 15.828 6.18539 16.063C5.84439 16.298 5.75839 16.766 5.99339 17.106C7.67439 19.544 10.4444 21 13.4034 21C18.3654 21 22.4034 16.963 22.4034 12C22.4034 7.037 18.3654 3 13.4034 3Z" fill="black"/>
</svg>