<svg width="24" height="24" viewBox="0 0 24 24" fill="none" xmlns="http://www.w3.org/2000/svg">
<path d="M4.50195 11.8128C4.60119 7.34311 8.2556 3.75 12.7497 3.75C17.306 3.75 20.9993 7.44429 20.9993 11.9996C20.9993 16.556 17.306 20.2493 12.7497 20.2493C9.93296 20.2493 7.4461 18.8385 5.95749 16.6834" stroke="black" stroke-width="1.5" stroke-linecap="round" stroke-linejoin="round"/>
<path d="M3 9.80078L4.2804 12.0211L6.48803 10.7475" stroke="black" stroke-width="1.5" stroke-linecap="round" stroke-linejoin="round"/>
<path d="M8.92383 10.5552C8.92383 9.75639 9.57084 9.10938 10.3696 9.10938C11.1675 9.10938 11.8154 9.75639 11.8154 10.5552C11.8154 11.353 11.1675 12 10.3696 12C11.1675 12 11.8149 12.6477 11.8149 13.4455C11.8149 14.2433 11.1679 14.8913 10.3701 14.8913C9.57132 14.8913 8.9243 14.2433 8.9243 13.4455" stroke="black" stroke-width="1.5" stroke-linecap="round" stroke-linejoin="round"/>
<path fill-rule="evenodd" clip-rule="evenodd" d="M15.5406 14.846C14.6095 14.846 13.8555 14.091 13.8555 13.1609V10.8375C13.8555 9.90735 14.6095 9.15234 15.5406 9.15234C16.4717 9.15234 17.2258 9.90735 17.2258 10.8375V13.1609C17.2258 14.091 16.4717 14.846 15.5406 14.846Z" stroke="black" stroke-width="1.5" stroke-linecap="round" stroke-linejoin="round"/>
</svg>