<svg width="25" height="24" viewBox="0 0 25 24" fill="none" xmlns="http://www.w3.org/2000/svg">
<path d="M11.6133 14.6522H13.494C14.2461 14.6522 14.8561 14.0422 14.8561 13.2901C14.8561 12.538 14.2461 11.9289 13.494 11.9289H11.6133V9.35156H14.5973" stroke="black" stroke-width="1.5" stroke-linecap="round" stroke-linejoin="round"/>
<path d="M6.04187 16.6845C7.53052 18.8396 10.0174 20.2504 12.8342 20.2504C17.3906 20.2504 21.084 16.557 21.084 12.0006C21.084 11.2896 20.994 10.5997 20.8249 9.94141" stroke="black" stroke-width="1.5" stroke-linecap="round" stroke-linejoin="round"/>
<path d="M4.58667 11.813C4.68591 7.34318 8.34039 3.75 12.8345 3.75C15.527 3.75 17.9181 5.04002 19.4239 7.03543" stroke="black" stroke-width="1.5" stroke-linecap="round" stroke-linejoin="round"/>
<path d="M3.08411 9.80078L4.36453 12.0211L6.57221 10.7475" stroke="black" stroke-width="1.5" stroke-linecap="round" stroke-linejoin="round"/>
</svg>