<svg width="25" height="24" viewBox="0 0 25 24" fill="none" xmlns="http://www.w3.org/2000/svg">
<path opacity="0.4" fill-rule="evenodd" clip-rule="evenodd" d="M13.4024 3C9.46839 3 6.07139 5.594 4.86839 9.159L4.23539 8.965C3.96839 8.883 3.67939 8.957 3.48339 9.153C3.28739 9.352 3.21639 9.642 3.30039 9.907L4.09339 12.416C4.16839 12.651 4.35339 12.835 4.58939 12.907C4.66139 12.93 4.73539 12.94 4.80839 12.94C4.97539 12.94 5.14039 12.885 5.27439 12.778L7.33439 11.146C7.55239 10.973 7.65739 10.692 7.60539 10.419C7.55339 10.146 7.35439 9.923 7.08839 9.841L6.30339 9.6C7.31539 6.646 10.1354 4.5 13.4024 4.5C17.5384 4.5 20.9024 7.864 20.9024 12C20.9024 16.136 17.5384 19.5 13.4024 19.5C10.9364 19.5 8.62939 18.287 7.22739 16.255C6.99239 15.914 6.52639 15.827 6.18439 16.063C5.84339 16.298 5.75739 16.766 5.99339 17.106C7.67339 19.545 10.4434 21 13.4024 21C18.3654 21 22.4024 16.963 22.4024 12C22.4024 7.037 18.3654 3 13.4024 3Z" fill="black"/>
<path fill-rule="evenodd" clip-rule="evenodd" d="M11.5938 14.5853V9.36426C11.5938 8.95026 11.2578 8.61426 10.8438 8.61426C10.4297 8.61426 10.0938 8.95026 10.0938 9.36426V14.5853C10.0938 14.9993 10.4297 15.3353 10.8438 15.3353C11.2578 15.3353 11.5938 14.9993 11.5938 14.5853Z" fill="black"/>
<path fill-rule="evenodd" clip-rule="evenodd" d="M14.2461 10.8746C14.2461 10.4006 14.6301 10.0156 15.1011 10.0156C15.5731 10.0156 15.9571 10.4006 15.9571 10.8746V13.0856C15.9571 13.5546 15.5731 13.9356 15.1011 13.9356C14.6301 13.9356 14.2461 13.5546 14.2461 13.0856V10.8746ZM15.1011 15.4356C16.4001 15.4356 17.4571 14.3816 17.4571 13.0856V10.8746C17.4571 9.57363 16.4001 8.51562 15.1011 8.51562C13.8031 8.51562 12.7461 9.57363 12.7461 10.8746V13.0856C12.7461 14.3816 13.8031 15.4356 15.1011 15.4356Z" fill="black"/>
</svg>