<svg width="25" height="24" viewBox="0 0 25 24" fill="none" xmlns="http://www.w3.org/2000/svg">
<path d="M5.4668 15.6129C5.4668 18.2906 7.1345 20.183 9.81508 20.183H17.4832C20.1648 20.183 21.8334 18.2906 21.8334 15.6129V8.38653C21.8334 5.70887 20.1648 3.81641 17.4842 3.81641H9.81508C7.14228 3.81641 5.4668 5.70887 5.4668 8.38653V12.117" stroke="black" stroke-width="1.5" stroke-linecap="round" stroke-linejoin="round"/>
<path d="M3.83398 10.4648L5.48612 12.117L7.12852 10.4746" stroke="black" stroke-width="1.5" stroke-linecap="round" stroke-linejoin="round"/>
<path d="M10.957 14.5564V9.44141" stroke="black" stroke-width="1.5" stroke-linecap="round" stroke-linejoin="round"/>
<path fill-rule="evenodd" clip-rule="evenodd" d="M15.1261 14.6533C14.2582 14.6533 13.5547 13.9499 13.5547 13.082V10.9161C13.5547 10.0472 14.2582 9.34375 15.1261 9.34375C15.994 9.34375 16.6974 10.0472 16.6974 10.9161V13.082C16.6974 13.9499 15.994 14.6533 15.1261 14.6533Z" stroke="black" stroke-width="1.5" stroke-linecap="round" stroke-linejoin="round"/>
</svg>