<svg width="24" height="24" viewBox="0 0 24 24" fill="none" xmlns="http://www.w3.org/2000/svg">
<path opacity="0.4" fill-rule="evenodd" clip-rule="evenodd" d="M12.5684 3C8.6344 3 5.2374 5.594 4.0344 9.159L3.4014 8.965C3.1354 8.883 2.8444 8.957 2.6494 9.153C2.4534 9.352 2.3824 9.642 2.4664 9.907L3.2594 12.416C3.3344 12.651 3.5194 12.835 3.7554 12.907C3.8274 12.93 3.9014 12.94 3.9744 12.94C4.1414 12.94 4.3064 12.885 4.4404 12.778L6.5004 11.146C6.7184 10.973 6.8234 10.692 6.7714 10.419C6.7194 10.146 6.5204 9.923 6.2544 9.841L5.4694 9.6C6.4814 6.646 9.3014 4.5 12.5684 4.5C16.7044 4.5 20.0684 7.864 20.0684 12C20.0684 16.136 16.7044 19.5 12.5684 19.5C10.1024 19.5 7.7954 18.287 6.3934 16.255C6.1594 15.914 5.6914 15.827 5.3504 16.063C5.0094 16.298 4.9234 16.766 5.1594 17.106C6.8394 19.545 9.6094 21 12.5684 21C17.5314 21 21.5684 16.963 21.5684 12C21.5684 7.037 17.5314 3 12.5684 3Z" fill="black"/>
<path fill-rule="evenodd" clip-rule="evenodd" d="M10.1901 14.1071C9.80614 14.1071 9.49414 13.7971 9.49414 13.4181C9.49414 13.0031 9.15814 12.6681 8.74414 12.6681C8.33014 12.6681 7.99414 13.0031 7.99414 13.4181C7.99414 14.6251 8.97914 15.6071 10.1901 15.6071C11.4011 15.6071 12.3851 14.6251 12.3851 13.4181C12.3851 12.8631 12.1801 12.3561 11.8411 11.9691C12.1801 11.5841 12.3851 11.0791 12.3851 10.5271C12.3851 9.31412 11.4011 8.32812 10.1901 8.32812C8.97914 8.32812 7.99414 9.31412 7.99414 10.5271C7.99414 10.9411 8.33014 11.2771 8.74414 11.2771C9.15814 11.2771 9.49414 10.9411 9.49414 10.5271C9.49414 10.1411 9.80614 9.82812 10.1901 9.82812C10.5741 9.82812 10.8851 10.1411 10.8851 10.5271C10.8851 10.9081 10.5741 11.2171 10.1901 11.2171C9.77614 11.2171 9.44014 11.5531 9.44014 11.9671C9.44014 12.3811 9.77614 12.7171 10.1901 12.7171C10.5741 12.7171 10.8851 13.0321 10.8851 13.4181C10.8851 13.7971 10.5741 14.1071 10.1901 14.1071Z" fill="black"/>
<path fill-rule="evenodd" clip-rule="evenodd" d="M14.4255 13.1262V10.8072C14.4255 10.2882 14.8455 9.86621 15.3615 9.86621C15.8765 9.86621 16.2955 10.2882 16.2955 10.8072V13.1262C16.2955 13.6452 15.8765 14.0662 15.3615 14.0662C14.8455 14.0662 14.4255 13.6452 14.4255 13.1262ZM17.7955 13.1262V10.8072C17.7955 9.46121 16.7035 8.36621 15.3615 8.36621C14.0185 8.36621 12.9255 9.46121 12.9255 10.8072V13.1262C12.9255 14.4722 14.0185 15.5662 15.3615 15.5662C16.7035 15.5662 17.7955 14.4722 17.7955 13.1262Z" fill="black"/>
</svg>