<svg width="25" height="24" viewBox="0 0 25 24" fill="none" xmlns="http://www.w3.org/2000/svg">
<path opacity="0.4" fill-rule="evenodd" clip-rule="evenodd" d="M17.4083 3.07031H9.73934C6.69034 3.07031 4.64134 5.20831 4.64134 8.39031V9.41931L3.91534 9.41631H3.91234C3.62734 9.41631 3.36634 9.57731 3.24034 9.83331C3.11334 10.0893 3.14234 10.3953 3.31734 10.6223L4.78434 12.5373C4.91934 12.7343 5.13434 12.8713 5.39134 12.8713C5.39434 12.8713 5.39734 12.8693 5.40134 12.8693C5.40434 12.8693 5.40634 12.8713 5.40934 12.8713C5.45234 12.8713 5.48934 12.8503 5.53034 12.8433C5.58534 12.8323 5.64334 12.8273 5.69434 12.8043C5.76534 12.7753 5.82434 12.7273 5.88434 12.6763C5.89934 12.6633 5.91634 12.6533 5.93034 12.6393C5.95334 12.6153 5.98434 12.6033 6.00534 12.5773L7.49434 10.6333C7.66834 10.4083 7.69834 10.1023 7.57334 9.84731C7.44734 9.59131 7.18734 9.42831 6.90234 9.42731L6.14134 9.42431V8.39031C6.14134 6.07031 7.55434 4.57031 9.73934 4.57031H17.4083C19.5953 4.57031 21.0073 6.07031 21.0073 8.39031V15.6113C21.0073 17.9313 19.5943 19.4303 17.4073 19.4303H9.73934C7.55434 19.4303 6.14134 17.9313 6.14134 15.6113C6.14134 15.1973 5.80534 14.8613 5.39134 14.8613C4.97734 14.8613 4.64134 15.1973 4.64134 15.6113C4.64134 18.7933 6.69034 20.9303 9.73934 20.9303H17.4073C20.4573 20.9303 22.5073 18.7933 22.5073 15.6113V8.39031C22.5073 5.20831 20.4583 3.07031 17.4083 3.07031Z" fill="black"/>
<path fill-rule="evenodd" clip-rule="evenodd" d="M15.4415 13.8075H13.6265C13.2125 13.8075 12.8765 14.1435 12.8765 14.5575C12.8765 14.9715 13.2125 15.3075 13.6265 15.3075H15.4415C16.5795 15.3075 17.5055 14.3785 17.5055 13.2375C17.5055 12.1015 16.5795 11.1775 15.4415 11.1775H14.3765V10.1875H16.5065C16.9205 10.1875 17.2565 9.8515 17.2565 9.4375C17.2565 9.0235 16.9205 8.6875 16.5065 8.6875H13.6265C13.2125 8.6875 12.8765 9.0235 12.8765 9.4375V11.9275C12.8765 12.3415 13.2125 12.6775 13.6265 12.6775H15.4415C15.7525 12.6775 16.0055 12.9285 16.0055 13.2375C16.0055 13.5515 15.7525 13.8075 15.4415 13.8075Z" fill="black"/>
<path fill-rule="evenodd" clip-rule="evenodd" d="M11.7695 14.5575V9.4375C11.7695 9.0235 11.4335 8.6875 11.0195 8.6875C10.6055 8.6875 10.2695 9.0235 10.2695 9.4375V14.5575C10.2695 14.9715 10.6055 15.3075 11.0195 15.3075C11.4335 15.3075 11.7695 14.9715 11.7695 14.5575Z" fill="black"/>
</svg>