<svg width="25" height="24" viewBox="0 0 25 24" fill="none" xmlns="http://www.w3.org/2000/svg">
<path d="M5.00293 11.8128C5.10217 7.34311 8.75657 3.75 13.2506 3.75C17.807 3.75 21.5003 7.44429 21.5003 11.9996C21.5003 16.556 17.807 20.2493 13.2506 20.2493C10.4339 20.2493 7.94708 18.8385 6.45846 16.6834" stroke="black" stroke-width="1.5" stroke-linecap="round" stroke-linejoin="round"/>
<path d="M3.5 9.80078L4.7804 12.0211L6.98803 10.7475" stroke="black" stroke-width="1.5" stroke-linecap="round" stroke-linejoin="round"/>
<path opacity="0.4" d="M9.42383 10.5552C9.42383 9.75639 10.0708 9.10938 10.8696 9.10938C11.6675 9.10938 12.3154 9.75639 12.3154 10.5552C12.3154 11.353 11.6675 12 10.8696 12C11.6675 12 12.3149 12.6477 12.3149 13.4455C12.3149 14.2433 11.6679 14.8913 10.8701 14.8913C10.0713 14.8913 9.4243 14.2433 9.4243 13.4455" stroke="black" stroke-width="1.5" stroke-linecap="round" stroke-linejoin="round"/>
<path opacity="0.4" fill-rule="evenodd" clip-rule="evenodd" d="M16.0396 14.846C15.1085 14.846 14.3545 14.091 14.3545 13.1609V10.8375C14.3545 9.90735 15.1085 9.15234 16.0396 9.15234C16.9708 9.15234 17.7248 9.90735 17.7248 10.8375V13.1609C17.7248 14.091 16.9708 14.846 16.0396 14.846Z" stroke="black" stroke-width="1.5" stroke-linecap="round" stroke-linejoin="round"/>
</svg>