<svg width="25" height="24" viewBox="0 0 25 24" fill="none" xmlns="http://www.w3.org/2000/svg">
<path fill-rule="evenodd" clip-rule="evenodd" d="M12.9997 4.5C8.91424 4.5 5.59198 7.76647 5.50177 11.8295C5.49258 12.2436 5.14942 12.5718 4.73531 12.5627C4.3212 12.5535 3.99295 12.2103 4.00214 11.7962C4.11041 6.91974 8.09696 3 12.9997 3C17.9703 3 21.9993 7.03014 21.9993 11.9996C21.9993 16.9702 17.9702 20.9993 12.9997 20.9993C9.92635 20.9993 7.21313 19.4589 5.5904 17.1097C5.35498 16.7689 5.44042 16.3017 5.78124 16.0663C6.12205 15.8309 6.58917 15.9164 6.82459 16.2572C8.17908 18.2181 10.4396 19.4993 12.9997 19.4993C17.1418 19.4993 20.4993 16.1418 20.4993 11.9996C20.4993 7.85845 17.1417 4.5 12.9997 4.5Z" fill="black"/>
<path fill-rule="evenodd" clip-rule="evenodd" d="M2.87545 9.1512C3.23427 8.94427 3.6929 9.06741 3.89983 9.42623L4.8055 10.9967L6.36337 10.0979C6.72216 9.89096 7.18081 10.014 7.3878 10.3728C7.59478 10.7316 7.47172 11.1902 7.11294 11.3972L4.90531 12.6708C4.733 12.7702 4.52825 12.7971 4.33611 12.7455C4.14398 12.694 3.9802 12.5682 3.88082 12.3959L2.60042 10.1756C2.39349 9.81676 2.51663 9.35813 2.87545 9.1512Z" fill="black"/>
<path fill-rule="evenodd" clip-rule="evenodd" d="M8.42383 10.5552C8.42383 9.34217 9.40663 8.35938 10.6196 8.35938C11.8313 8.35938 12.8154 9.34184 12.8154 10.5552C12.8154 11.1088 12.6103 11.6144 12.272 12.0004C12.61 12.3866 12.8149 12.8923 12.8149 13.4455C12.8149 14.6569 11.8328 15.6413 10.6201 15.6413C9.40677 15.6413 8.4243 14.6572 8.4243 13.4455C8.4243 13.0313 8.76009 12.6955 9.1743 12.6955C9.58852 12.6955 9.9243 13.0313 9.9243 13.4455C9.9243 13.8295 10.2359 14.1413 10.6201 14.1413C11.0031 14.1413 11.3149 13.8298 11.3149 13.4455C11.3149 13.0618 11.0031 12.75 10.6196 12.75C10.2054 12.75 9.86963 12.4142 9.86963 12C9.86963 11.5858 10.2054 11.25 10.6196 11.25C11.0039 11.25 11.3154 10.9381 11.3154 10.5552C11.3154 10.1709 11.0036 9.85938 10.6196 9.85938C10.2351 9.85938 9.92383 10.1706 9.92383 10.5552C9.92383 10.9694 9.58804 11.3052 9.17383 11.3052C8.75961 11.3052 8.42383 10.9694 8.42383 10.5552Z" fill="black"/>
<path fill-rule="evenodd" clip-rule="evenodd" d="M15.7906 9.90234C15.274 9.90234 14.8555 10.3213 14.8555 10.8375V13.1609C14.8555 13.6771 15.274 14.096 15.7906 14.096C16.3072 14.096 16.7258 13.6771 16.7258 13.1609V10.8375C16.7258 10.3213 16.3072 9.90234 15.7906 9.90234ZM13.3555 10.8375C13.3555 9.49342 14.445 8.40234 15.7906 8.40234C17.1362 8.40234 18.2258 9.49342 18.2258 10.8375V13.1609C18.2258 14.505 17.1362 15.596 15.7906 15.596C14.445 15.596 13.3555 14.505 13.3555 13.1609V10.8375Z" fill="black"/>
</svg>