<svg width="25" height="24" viewBox="0 0 25 24" fill="none" xmlns="http://www.w3.org/2000/svg">
<path fill-rule="evenodd" clip-rule="evenodd" d="M12.25 3.75C7.69335 3.75 4 7.44421 4 12C4 16.5567 7.69329 20.25 12.25 20.25C16.8067 20.25 20.5 16.5567 20.5 12C20.5 7.44421 16.8067 3.75 12.25 3.75ZM2.5 12C2.5 6.61589 6.86481 2.25 12.25 2.25C17.6352 2.25 22 6.61589 22 12C22 17.3851 17.6351 21.75 12.25 21.75C6.86487 21.75 2.5 17.3851 2.5 12Z" fill="black"/>
<path fill-rule="evenodd" clip-rule="evenodd" d="M14.9689 9.88549C14.0215 10.2717 13.1554 10.8414 12.4625 11.4739C12.2457 11.6761 12.1868 11.8656 12.1875 12.0043C12.1882 12.1445 12.2503 12.3302 12.4602 12.5221L12.4636 12.5252L12.4636 12.5252C13.1907 13.1982 14.0304 13.7247 14.9757 14.1154L14.9822 14.1181L14.9822 14.1181C15.2019 14.2113 15.366 14.1834 15.4589 14.1342C15.5408 14.0909 15.6445 13.9916 15.6766 13.7563C15.7985 12.6604 15.802 11.4801 15.6759 10.2401C15.6446 10.0018 15.5448 9.90307 15.4751 9.86347C15.4023 9.8221 15.2418 9.77768 14.9689 9.88549ZM16.216 8.55925C16.7635 8.87026 17.0866 9.42817 17.1654 10.0624L17.1672 10.0785C17.3045 11.4224 17.3022 12.7156 17.1664 13.9305L17.1649 13.944L17.1648 13.9439C17.0773 14.6171 16.715 15.1665 16.1607 15.4599C15.6179 15.7473 14.9769 15.7443 14.3997 15.5004C13.3036 15.0469 12.3117 14.4281 11.4463 13.6275C10.9762 13.1969 10.6907 12.6302 10.6875 12.012C10.6843 11.392 10.9656 10.817 11.4438 10.3729L11.4483 10.3687L11.4483 10.3688C12.2643 9.62317 13.2817 8.95284 14.4064 8.49495L14.4121 8.49263L14.4121 8.49265C15.0211 8.25054 15.6713 8.24975 16.216 8.55925Z" fill="black"/>
<path fill-rule="evenodd" clip-rule="evenodd" d="M11.3181 9.39932L11.3142 9.4019L11.3006 9.41115L11.246 9.44846C11.1981 9.48132 11.1283 9.52953 11.0423 9.58999C10.8699 9.71112 10.6335 9.88042 10.3772 10.0732C9.84667 10.4723 9.29662 10.9239 9.01718 11.2494C8.6314 11.7092 8.64424 12.3119 9.01539 12.7458L9.0181 12.749C9.31487 13.0999 9.86577 13.5523 10.389 13.9427C10.6419 14.1314 10.8738 14.2949 11.0424 14.4113C11.1266 14.4694 11.1947 14.5155 11.2413 14.5468L11.2943 14.5822L11.3074 14.5909L11.3103 14.5928C11.3104 14.5928 11.3103 14.5928 11.3103 14.5928C11.6566 14.8201 11.7536 15.2855 11.5263 15.6317C11.299 15.978 10.834 16.0744 10.4877 15.8471L10.8993 15.2202C10.4877 15.8471 10.4878 15.8472 10.4877 15.8471L10.4812 15.8428L10.4649 15.8321L10.4051 15.7921C10.3538 15.7577 10.2804 15.708 10.1904 15.6459C10.0107 15.5219 9.76326 15.3473 9.49204 15.1449C8.96775 14.7537 8.29263 14.2135 7.87416 13.7193C7.02712 12.7275 7.01071 11.3028 7.87189 10.2807L7.8757 10.2762C8.27407 9.81083 8.9496 9.27014 9.47544 8.87456C9.74795 8.66954 9.99804 8.49046 10.1799 8.36266C10.271 8.29866 10.3454 8.24727 10.3973 8.21164L10.4578 8.17034L10.4741 8.15925L10.4799 8.15536C10.4799 8.15532 10.4805 8.15493 10.8993 8.77712L10.4799 8.15536C10.8235 7.92408 11.2902 8.01472 11.5215 8.35835C11.7528 8.70196 11.6616 9.16803 11.3181 9.39932Z" fill="black"/>
</svg>