<svg width="25" height="24" viewBox="0 0 25 24" fill="none" xmlns="http://www.w3.org/2000/svg">
<path opacity="0.4" fill-rule="evenodd" clip-rule="evenodd" d="M13.4034 3C9.46839 3 6.07239 5.594 4.86939 9.159L4.23639 8.965C3.97039 8.881 3.67939 8.956 3.48339 9.153C3.28739 9.352 3.21639 9.642 3.30039 9.908L4.09439 12.417C4.16939 12.651 4.35439 12.835 4.59039 12.907C4.66239 12.93 4.73639 12.94 4.80939 12.94C4.97639 12.94 5.14139 12.885 5.27539 12.778L7.33439 11.146C7.55239 10.973 7.65739 10.692 7.60539 10.419C7.55439 10.145 7.35539 9.923 7.08939 9.841L6.30439 9.6C7.31639 6.646 10.1364 4.5 13.4034 4.5C17.5394 4.5 20.9034 7.864 20.9034 12C20.9034 16.136 17.5394 19.5 13.4034 19.5C10.9374 19.5 8.62939 18.287 7.22939 16.255C6.99339 15.915 6.52739 15.828 6.18539 16.063C5.84439 16.298 5.75839 16.766 5.99339 17.106C7.67439 19.544 10.4444 21 13.4034 21C18.3654 21 22.4034 16.963 22.4034 12C22.4034 7.037 18.3654 3 13.4034 3Z" fill="black"/>
<path fill-rule="evenodd" clip-rule="evenodd" d="M14.0587 13.8703H12.1777C11.7637 13.8703 11.4277 14.2063 11.4277 14.6203C11.4277 15.0343 11.7637 15.3703 12.1777 15.3703H14.0587C15.2237 15.3703 16.1707 14.4243 16.1707 13.2613C16.1707 12.0973 15.2237 11.1503 14.0587 11.1503H12.9277V10.0703H15.1617C15.5757 10.0703 15.9117 9.73431 15.9117 9.32031C15.9117 8.90631 15.5757 8.57031 15.1617 8.57031H12.1777C11.7637 8.57031 11.4277 8.90631 11.4277 9.32031V11.9003C11.4277 12.3143 11.7637 12.6503 12.1777 12.6503H14.0587C14.3957 12.6503 14.6707 12.9243 14.6707 13.2613C14.6707 13.5973 14.3957 13.8703 14.0587 13.8703Z" fill="black"/>
</svg>