<svg width="24" height="24" viewBox="0 0 24 24" fill="none" xmlns="http://www.w3.org/2000/svg">
<path fill-rule="evenodd" clip-rule="evenodd" d="M11.1809 5.03998C11.4738 5.33288 11.4738 5.80775 11.1809 6.10064C10.777 6.50453 10.4355 6.84621 10.1124 7.16939C9.66728 7.61464 9.25729 8.02476 8.76781 8.51405C9.10713 8.85345 9.40821 9.15468 9.70927 9.45589L9.7094 9.45603C10.1578 9.90468 10.6062 10.3533 11.1809 10.928C11.4738 11.2209 11.4738 11.6958 11.1809 11.9886C10.888 12.2815 10.4131 12.2815 10.1202 11.9886C9.54576 11.4142 9.09746 10.9656 8.64931 10.5173L8.64834 10.5163C8.19987 10.0676 7.75145 9.61894 7.1767 9.04419C7.03601 8.9035 6.95699 8.71268 6.95703 8.51371C6.95707 8.31475 7.03617 8.12395 7.17691 7.98332C7.92243 7.23839 8.45523 6.70541 9.05135 6.1091C9.37441 5.78593 9.71606 5.44417 10.1202 5.03998C10.4131 4.74709 10.888 4.74709 11.1809 5.03998Z" fill="black"/>
<path fill-rule="evenodd" clip-rule="evenodd" d="M5 5.71484C5.41421 5.71484 5.75 6.05063 5.75 6.46484V11.1279C5.75 11.5421 5.41421 11.8779 5 11.8779C4.58579 11.8779 4.25 11.5421 4.25 11.1279V6.46484C4.25 6.05063 4.58579 5.71484 5 5.71484Z" fill="black"/>
<path fill-rule="evenodd" clip-rule="evenodd" d="M6.95672 8.51562C6.95672 8.10141 7.29251 7.76562 7.70672 7.76562H14.0412C17.1938 7.76562 19.75 10.3217 19.75 13.4736C19.75 16.6263 17.1938 19.1824 14.0412 19.1824H5C4.58579 19.1824 4.25 18.8466 4.25 18.4324C4.25 18.0182 4.58579 17.6824 5 17.6824H14.0412C16.3654 17.6824 18.25 15.7978 18.25 13.4736C18.25 11.1503 16.3655 9.26562 14.0412 9.26562H7.70672C7.29251 9.26562 6.95672 8.92984 6.95672 8.51562Z" fill="black"/>
</svg>