<svg width="25" height="24" viewBox="0 0 25 24" fill="none" xmlns="http://www.w3.org/2000/svg">
<path d="M4.96777 15.6129C4.96777 18.2906 6.63547 20.183 9.31606 20.183H16.9842C19.6657 20.183 21.3344 18.2906 21.3344 15.6129V8.38653C21.3344 5.70887 19.6657 3.81641 16.9852 3.81641H9.31606C6.64326 3.81641 4.96777 5.70887 4.96777 8.38653V12.117" stroke="black" stroke-width="1.5" stroke-linecap="round" stroke-linejoin="round"/>
<path d="M3.33398 10.4648L4.98612 12.117L6.62852 10.4746" stroke="black" stroke-width="1.5" stroke-linecap="round" stroke-linejoin="round"/>
<path opacity="0.4" d="M10.457 14.5564V9.44141" stroke="black" stroke-width="1.5" stroke-linecap="round" stroke-linejoin="round"/>
<path opacity="0.4" fill-rule="evenodd" clip-rule="evenodd" d="M14.627 14.6533C13.7591 14.6533 13.0557 13.9499 13.0557 13.082V10.9161C13.0557 10.0472 13.7591 9.34375 14.627 9.34375C15.4949 9.34375 16.1984 10.0472 16.1984 10.9161V13.082C16.1984 13.9499 15.4949 14.6533 14.627 14.6533Z" stroke="black" stroke-width="1.5" stroke-linecap="round" stroke-linejoin="round"/>
</svg>