<svg width="25" height="24" viewBox="0 0 25 24" fill="none" xmlns="http://www.w3.org/2000/svg">
<path fill-rule="evenodd" clip-rule="evenodd" d="M3.51681 9.88079C5.00224 8.524 6.85741 7.30236 8.89961 6.47099C10.638 5.78017 12.0932 6.64289 12.3072 8.37157C12.5667 10.9197 12.5613 13.3598 12.3072 15.6366C12.0737 17.4334 10.4705 18.1955 8.89961 17.5285C6.88877 16.6971 5.08549 15.5695 3.51681 14.1187C2.17733 12.8938 2.14489 11.1532 3.51681 9.88079Z" stroke="black" stroke-width="1.5" stroke-linecap="round" stroke-linejoin="round"/>
<path opacity="0.4" fill-rule="evenodd" clip-rule="evenodd" d="M13.5168 9.88079C15.0022 8.524 16.8574 7.30236 18.8996 6.47099C20.638 5.78017 22.0932 6.64289 22.3072 8.37157C22.5667 10.9197 22.5613 13.3598 22.3072 15.6366C22.0737 17.4334 20.4705 18.1955 18.8996 17.5285C16.8888 16.6971 15.0855 15.5695 13.5168 14.1187C12.1773 12.8938 12.1449 11.1532 13.5168 9.88079Z" stroke="black" stroke-width="1.5" stroke-linecap="round" stroke-linejoin="round"/>
</svg>