<svg width="24" height="24" viewBox="0 0 24 24" fill="none" xmlns="http://www.w3.org/2000/svg">
<path opacity="0.4" d="M16.2548 4.8059L16.2555 4.80662C18.3764 4.84016 20.1693 6.31177 20.776 8.2523C21.1525 9.45651 21.01 10.7859 20.6756 11.9829C19.5176 16.1278 15.4366 19.1983 12 19.1983C8.56226 19.1983 4.48208 16.1278 3.32433 11.9829C2.99003 10.786 2.84751 9.45649 3.22383 8.2523C3.83057 6.31075 5.62464 4.83852 7.74669 4.80592C9.5707 4.76358 11.2441 5.81323 12 7.47379C12.7594 5.81559 14.4314 4.76715 16.2548 4.8059Z" stroke="black" stroke-width="1.5" stroke-linecap="round" stroke-linejoin="round"/>
<path d="M16.0496 11.1016C15.7813 13.1402 14.057 14.6727 12.001 14.7C9.94527 14.6723 8.22144 13.1399 7.95312 11.1016" stroke="black" stroke-width="1.5" stroke-linecap="round" stroke-linejoin="round"/>
</svg>