<svg width="25" height="25" viewBox="0 0 25 25" fill="none" xmlns="http://www.w3.org/2000/svg">
<path fill-rule="evenodd" clip-rule="evenodd" d="M15.1893 13.0142H15.1433C14.5913 13.0142 14.1433 12.5662 14.1433 12.0142C14.1433 11.4622 14.5913 11.0142 15.1433 11.0142C15.6973 11.0142 16.1663 11.4722 16.1663 12.0142C16.1663 12.5752 15.7373 13.0142 15.1893 13.0142ZM8.7303 6.91115C8.8533 6.18115 9.1913 5.50615 9.7283 4.97415C10.4013 4.30715 11.2933 3.94016 12.2433 3.94016H12.2603C14.0243 3.94016 15.4833 5.22815 15.7703 6.91115C14.7383 6.77215 13.5803 6.69516 12.2503 6.69516C10.9213 6.69516 9.7623 6.77215 8.7303 6.91115ZM9.3583 13.0142H9.3123C8.7613 13.0142 8.3123 12.5662 8.3123 12.0142C8.3123 11.4622 8.7613 11.0142 9.3123 11.0142C9.8673 11.0142 10.3353 11.4722 10.3353 12.0142C10.3353 12.5752 9.9063 13.0142 9.3583 13.0142ZM20.9173 9.24716C20.1773 8.28216 18.9813 7.61215 17.2993 7.19815C17.1343 4.55015 14.9493 2.44016 12.2633 2.44016H12.2403C10.8953 2.44016 9.6283 2.96115 8.6723 3.90916C7.7843 4.78916 7.2833 5.94415 7.2023 7.19815C5.5193 7.61115 4.3233 8.28116 3.5833 9.24716C2.5733 10.5662 2.3983 12.3792 3.0493 14.7912C4.5523 20.3672 5.4343 22.6292 12.2503 22.6292C19.0653 22.6292 19.9473 20.3672 21.4513 14.7912C22.1013 12.3792 21.9273 10.5662 20.9173 9.24716Z" fill="black"/>
</svg>