<svg width="24" height="24" viewBox="0 0 24 24" fill="none" xmlns="http://www.w3.org/2000/svg">
<path fill-rule="evenodd" clip-rule="evenodd" d="M21.5 10.4041V16.7041C21.5 19.3941 19.77 21.1941 17.2 21.1941H6.79C4.23 21.1941 2.5 19.3941 2.5 16.7041V10.4041C2.5 7.71406 4.23 5.91406 6.79 5.91406H17.2C19.77 5.91406 21.5 7.71406 21.5 10.4041Z" fill="black" fill-opacity="0.4"/>
<path fill-rule="evenodd" clip-rule="evenodd" d="M16.11 5.91469V5.77469C16.11 4.13469 14.78 2.80469 13.14 2.80469H10.86C9.22002 2.80469 7.89001 4.13469 7.89001 5.77469V5.91469H9.39001V5.77469C9.39001 4.96469 10.05 4.30469 10.86 4.30469H13.14C13.95 4.30469 14.61 4.96469 14.61 5.77469V5.91469H16.11Z" fill="black"/>
<path fill-rule="evenodd" clip-rule="evenodd" d="M7.52002 10.1344C7.10602 10.1344 6.77002 10.4704 6.77002 10.8844V16.7544C6.77002 17.1684 7.10602 17.5044 7.52002 17.5044C7.93402 17.5044 8.27002 17.1684 8.27002 16.7544V10.8844C8.27002 10.4704 7.93402 10.1344 7.52002 10.1344Z" fill="black"/>
<path fill-rule="evenodd" clip-rule="evenodd" d="M12 10.1344C11.586 10.1344 11.25 10.4704 11.25 10.8844V16.7544C11.25 17.1684 11.586 17.5044 12 17.5044C12.414 17.5044 12.75 17.1684 12.75 16.7544V10.8844C12.75 10.4704 12.414 10.1344 12 10.1344Z" fill="black"/>
<path fill-rule="evenodd" clip-rule="evenodd" d="M16.48 10.1344C16.066 10.1344 15.73 10.4704 15.73 10.8844V16.7544C15.73 17.1684 16.066 17.5044 16.48 17.5044C16.894 17.5044 17.23 17.1684 17.23 16.7544V10.8844C17.23 10.4704 16.894 10.1344 16.48 10.1344Z" fill="black"/>
</svg>