<svg width="25" height="25" viewBox="0 0 25 25" fill="none" xmlns="http://www.w3.org/2000/svg">
<path d="M15.143 13.0144H15.189C15.737 13.0144 16.166 12.5754 16.166 12.0144C16.166 11.4724 15.697 11.0144 15.143 11.0144C14.591 11.0144 14.143 11.4624 14.143 12.0144C14.143 12.5664 14.591 13.0144 15.143 13.0144Z" fill="black"/>
<path d="M9.31201 13.0144H9.35801C9.90601 13.0144 10.335 12.5754 10.335 12.0144C10.335 11.4724 9.86701 11.0144 9.31201 11.0144C8.76101 11.0144 8.31201 11.4624 8.31201 12.0144C8.31201 12.5664 8.76101 13.0144 9.31201 13.0144Z" fill="black"/>
<path opacity="0.4" d="M15.7702 6.91034C16.6963 7.04098 17.5662 7.23413 18.3173 7.50119C18.326 7.50427 18.3347 7.50734 18.3433 7.51039C19.4875 7.92253 20.3408 8.49528 20.9173 9.24707C21.9273 10.5661 22.1013 12.3791 21.4513 14.7911C19.9473 20.3671 19.0653 22.6291 12.2503 22.6291C5.4343 22.6291 4.5523 20.3671 3.0493 14.7911C2.3983 12.3791 2.5733 10.5661 3.5833 9.24707C4.23022 8.40258 5.22563 7.7843 6.59026 7.36619L6.59473 7.36976C7.71288 7.01731 9.54972 6.76069 11.5403 6.70265C11.7715 6.69763 12.0081 6.69507 12.2503 6.69507C13.5803 6.69507 14.7382 6.77134 15.7702 6.91034C15.7701 6.91009 15.7702 6.91058 15.7702 6.91034Z" fill="black"/>
<path d="M15.77 6.91045C16.6505 7.03466 19.4641 7.73105 17.2991 7.19819C17.1341 4.55019 14.9491 2.44019 12.2631 2.44019H12.2401C10.8951 2.44019 9.62815 2.96119 8.67215 3.90919C7.78415 4.78919 7.28315 5.94419 7.20215 7.19819L8.73015 6.91119C8.85315 6.18119 9.19115 5.50619 9.72815 4.97419C10.4011 4.30719 11.2931 3.94019 12.2431 3.94019H12.2601C14.0239 3.94019 15.4827 5.22781 15.77 6.91045Z" fill="black"/>
</svg>