<svg width="24" height="25" viewBox="0 0 24 25" fill="none" xmlns="http://www.w3.org/2000/svg">
<path fill-rule="evenodd" clip-rule="evenodd" d="M2.54012 17.5362C2.51803 17.5362 2.50012 17.5541 2.50012 17.5762C2.50012 20.2612 4.22612 22.0662 6.79512 22.0662H17.2031C19.7731 22.0662 21.5001 20.2612 21.5001 17.5762C21.5001 17.5541 21.4822 17.5362 21.4601 17.5362H2.54012Z" fill="black"/>
<path fill-rule="evenodd" clip-rule="evenodd" d="M2.49988 15.8367C2.49988 15.9472 2.58942 16.0367 2.69988 16.0367H21.2999C21.4103 16.0367 21.4999 15.9472 21.4999 15.8367V12.8857C21.4999 12.7753 21.4103 12.6857 21.2999 12.6857H2.69988C2.58942 12.6857 2.49988 12.7753 2.49988 12.8857V15.8367Z" fill="black"/>
<path fill-rule="evenodd" clip-rule="evenodd" d="M9.3912 6.64603C9.3912 5.83503 10.0502 5.17603 10.8602 5.17603H13.1412C13.9512 5.17603 14.6102 5.83503 14.6102 6.64603C14.6102 6.72335 14.5475 6.78603 14.4702 6.78603H9.5312C9.45388 6.78603 9.3912 6.72335 9.3912 6.64603ZM21.2892 11.186C21.4008 11.186 21.4912 11.0943 21.4858 10.9828C21.3639 8.46159 19.6773 6.78603 17.2042 6.78603H16.2502C16.1729 6.78603 16.1102 6.72335 16.1102 6.64603C16.1102 5.00803 14.7782 3.67603 13.1412 3.67603H10.8602C9.2232 3.67603 7.8912 5.00803 7.8912 6.64603C7.8912 6.72335 7.82852 6.78603 7.7512 6.78603H6.7952C4.32209 6.78603 2.63646 8.46155 2.51367 10.9827C2.50824 11.0942 2.59862 11.186 2.71026 11.186H21.2892Z" fill="black"/>
</svg>