<svg width="25" height="25" viewBox="0 0 25 25" fill="none" xmlns="http://www.w3.org/2000/svg">
<path fill-rule="evenodd" clip-rule="evenodd" d="M8.98001 6.7837C8.99001 4.9937 10.45 3.5437 12.24 3.5437C14.09 3.5337 15.52 4.9937 15.52 6.8037V7.0437H17.02V6.8037C17.02 4.1737 14.88 2.0437 12.26 2.0437H12.24C9.63001 2.0437 7.49001 4.1637 7.48001 6.8037V7.0437H8.98001V6.7837Z" fill="black"/>
<path fill-rule="evenodd" clip-rule="evenodd" d="M17.02 7.0437L17.02 10.7737H15.52L15.52 7.0437H8.98001L8.98 10.7737H7.48L7.48001 7.0437H2.5V12.4837C2.5 17.8637 6.87 22.2337 12.25 22.2337C17.63 22.2337 22 17.8637 22 12.4837V7.0437H17.02Z" fill="black"/>
</svg>