<svg width="25" height="26" viewBox="0 0 25 26" fill="none" xmlns="http://www.w3.org/2000/svg">
<path fill-rule="evenodd" clip-rule="evenodd" d="M9.09113 4.21367C10.0149 3.29378 11.267 2.7796 12.5706 2.78471C15.2782 2.78556 17.4729 4.9808 17.4729 7.68864V8.43864H15.9729V7.68864C15.9729 5.8087 14.4489 4.28471 12.569 4.28471H12.5658V4.2847C11.6605 4.28086 10.791 4.6378 10.1495 5.27657C9.50806 5.91535 9.14745 6.78335 9.14746 7.68864L9.14747 8.43864L7.64747 8.43865L7.64746 7.68865C7.64745 6.38444 8.16696 5.13394 9.09113 4.21367Z" fill="black"/>
<path fill-rule="evenodd" clip-rule="evenodd" d="M14.626 11.2682H16.17V12.7682H14.626V11.2682Z" fill="black"/>
<path fill-rule="evenodd" clip-rule="evenodd" d="M9.01862 11.2682H10.5626V12.7682H9.01862V11.2682Z" fill="black"/>
<path fill-rule="evenodd" clip-rule="evenodd" d="M2.69333 23.2849L21.8074 23.2849L20.8278 7.14966L3.67298 7.14966L2.69333 23.2849ZM5.08467 8.64966L19.4161 8.64966L20.2136 21.7849L4.28716 21.7849L5.08467 8.64966Z" fill="black"/>
</svg>