<svg width="25" height="24" viewBox="0 0 25 24" fill="none" xmlns="http://www.w3.org/2000/svg">
<path d="M19.7772 9.21909V17.1322C19.7772 19.5159 18.0949 20.9997 15.7131 20.9997H9.28769C6.90588 20.9997 5.22363 19.5159 5.22363 17.1312V9.21909C5.22363 6.83533 6.90588 5.35254 9.28769 5.35254H15.7131C18.0949 5.35254 19.7772 6.84214 19.7772 9.21909Z" stroke="black" stroke-width="1.5" stroke-linecap="round" stroke-linejoin="round"/>
<path d="M15.2744 5.33992V4.74355C15.2744 3.78032 14.4941 3 13.5309 3H11.474C10.5118 3 9.73047 3.78032 9.73047 4.74355V5.33992" stroke="black" stroke-width="1.5" stroke-linecap="round" stroke-linejoin="round"/>
<path d="M8.96484 20.9577V13.208" stroke="black" stroke-width="1.5" stroke-linecap="round" stroke-linejoin="round"/>
<path d="M8.96484 9.33285V5.45801" stroke="black" stroke-width="1.5" stroke-linecap="round" stroke-linejoin="round"/>
<path d="M16.041 13.2077V5.45801" stroke="black" stroke-width="1.5" stroke-linecap="round" stroke-linejoin="round"/>
<path d="M16.041 20.9579V17.083" stroke="black" stroke-width="1.5" stroke-linecap="round" stroke-linejoin="round"/>
</svg>