<svg width="24" height="24" viewBox="0 0 24 24" fill="none" xmlns="http://www.w3.org/2000/svg">
<path d="M20.9995 8.46907V6.89189C20.9995 4.74259 19.257 3 17.1067 3H15.8496" stroke="black" stroke-width="1.5" stroke-linecap="round" stroke-linejoin="round"/>
<path d="M3 8.46907V6.89189C3 4.74259 4.74259 3 6.89286 3H8.18205" stroke="black" stroke-width="1.5" stroke-linecap="round" stroke-linejoin="round"/>
<path d="M3 15.5312V17.1084C3 19.2577 4.74259 21.0003 6.89286 21.0003H8.14994" stroke="black" stroke-width="1.5" stroke-linecap="round" stroke-linejoin="round"/>
<path d="M21.0004 15.5312V17.1084C21.0004 19.2577 19.2578 21.0003 17.1075 21.0003H15.8184" stroke="black" stroke-width="1.5" stroke-linecap="round" stroke-linejoin="round"/>
<path d="M9.74448 16.8082C8.16924 16.8082 7.18945 15.6961 7.18945 14.1228V9.87583C7.18945 8.30156 8.1741 7.18945 9.74448 7.18945H14.2523C15.8275 7.18945 16.8082 8.30156 16.8082 9.87583V14.1228C16.8082 15.6961 15.8275 16.8082 14.2523 16.8082H13.3635" stroke="black" stroke-width="1.5" stroke-linecap="round" stroke-linejoin="round"/>
<path d="M13.9136 10.2988C13.9136 11.3555 13.0574 12.2117 12.0008 12.2117C10.9441 12.2117 10.0879 11.3555 10.0879 10.2988" stroke="black" stroke-width="1.5" stroke-linecap="round" stroke-linejoin="round"/>
</svg>