<svg width="25" height="25" viewBox="0 0 25 25" fill="none" xmlns="http://www.w3.org/2000/svg">
<path fill-rule="evenodd" clip-rule="evenodd" d="M17.62 7.51464H16.07C15.57 5.88464 14.05 4.69464 12.25 4.69464C10.45 4.69464 8.92997 5.88464 8.42997 7.51464H6.87997C7.41997 5.04464 9.62997 3.19464 12.25 3.19464C14.87 3.19464 17.08 5.04464 17.62 7.51464Z" fill="black"/>
<path fill-rule="evenodd" clip-rule="evenodd" d="M22.04 7.51464L20.9 21.8746H3.59996L2.45996 7.51464L6.87997 7.51464C6.78997 7.89464 6.74996 8.28464 6.74996 8.69464V10.5546H8.24996V8.69464C8.24996 8.28464 8.30997 7.89464 8.42997 7.51464H16.07C16.19 7.89464 16.25 8.28464 16.25 8.69464V10.5546H17.75V8.69464C17.75 8.28464 17.71 7.89464 17.62 7.51464L22.04 7.51464Z" fill="black"/>
</svg>