<svg width="24" height="24" viewBox="0 0 24 24" fill="none" xmlns="http://www.w3.org/2000/svg">
<path fill-rule="evenodd" clip-rule="evenodd" d="M15.52 4.60961C15.42 4.59961 15.32 4.59961 15.21 4.59961H8.78997C8.67997 4.59961 8.57997 4.59961 8.47997 4.60961C5.80997 4.73961 3.96997 6.59961 3.96997 9.21961V17.1296C3.96997 19.8896 5.90997 21.7496 8.78997 21.7496H15.21C18.09 21.7496 20.03 19.8896 20.03 17.1296V9.21961C20.03 6.59961 18.19 4.73961 15.52 4.60961Z" fill="black" fill-opacity="0.4"/>
<path fill-rule="evenodd" clip-rule="evenodd" d="M15.5197 4.61C15.4497 3.29 14.3697 2.25 13.0297 2.25H10.9697C9.63974 2.25 8.54974 3.29 8.47974 4.61C8.57974 4.6 8.67974 4.6 8.78974 4.6H9.98974C10.0597 4.12 10.4797 3.75 10.9697 3.75H13.0297C13.5297 3.75 13.9397 4.12 14.0097 4.6H15.2097C15.3197 4.6 15.4197 4.6 15.5197 4.61Z" fill="black"/>
<path fill-rule="evenodd" clip-rule="evenodd" d="M7.70972 6.23979V20.1298C8.03972 20.2098 8.39972 20.2498 8.78972 20.2498H9.20972V6.09979H8.78972C8.39972 6.09979 8.03972 6.14979 7.70972 6.23979Z" fill="black"/>
<path fill-rule="evenodd" clip-rule="evenodd" d="M15.2098 6.09973H14.7898V20.2497H15.2098C15.5998 20.2497 15.9598 20.2097 16.2898 20.1297V6.23973C15.9598 6.14973 15.5998 6.09973 15.2098 6.09973Z" fill="black"/>
</svg>