<svg width="24" height="24" viewBox="0 0 24 24" fill="none" xmlns="http://www.w3.org/2000/svg">
<path d="M21 11.9903C20.999 11.3345 20.4503 10.8101 19.7945 10.8101H17.8553C16.5681 10.8101 15.4054 10.2886 14.5657 9.44404L14.5608 9.43917C13.7211 8.59949 13.1996 7.43192 13.1996 6.1544V4.20552C13.1996 3.54973 12.6762 3.00097 12.0204 3H11.997C6.69235 3 2.45892 7.59343 3.05633 13.0246C3.51071 17.152 6.84706 20.4893 10.9754 20.9437C16.4066 21.5411 21 17.3067 21 12.002V11.9903Z" stroke="black" stroke-width="1.5" stroke-linecap="round" stroke-linejoin="round"/>
<path fill-rule="evenodd" clip-rule="evenodd" d="M15.6266 12.0013C15.6266 9.9989 14.0027 8.375 12.0003 8.375C9.99793 8.375 8.375 9.9989 8.375 12.0013C8.375 14.0037 9.99793 15.6276 12.0003 15.6276C14.0027 15.6276 15.6266 14.0037 15.6266 12.0013Z" stroke="black" stroke-width="1.5" stroke-linecap="round" stroke-linejoin="round"/>
<path d="M14.3477 14.7601C14.3477 14.7601 16.3491 13.0603 17.3006 14.2327C18.2522 15.4052 16.5349 16.7654 16.9932 17.6849C17.5663 18.8379 19.123 17.501 19.123 17.501" stroke="black" stroke-width="1.5" stroke-linecap="round" stroke-linejoin="round"/>
<path d="M5.65725 5.6582C4.60644 6.70902 4.60644 8.4127 5.65725 9.46352C6.70807 10.5143 8.41176 10.5143 9.46257 9.46352" stroke="black" stroke-width="1.5" stroke-linecap="round" stroke-linejoin="round"/>
</svg>