<svg width="24" height="24" viewBox="0 0 24 24" fill="none" xmlns="http://www.w3.org/2000/svg">
<path fill-rule="evenodd" clip-rule="evenodd" d="M12.7618 5.8757C13.1338 5.6967 13.5758 5.8457 13.7608 6.2137C13.9458 6.5837 13.7958 7.0337 13.4258 7.2197L13.4018 7.2317C13.6748 7.7097 13.9888 8.16671 14.3478 8.5907L14.7398 8.1987C15.0328 7.9067 15.5078 7.9067 15.8008 8.1987C16.0938 8.4917 16.0938 8.9667 15.8008 9.2597L15.4088 9.6517C15.8338 10.0117 16.2888 10.3257 16.7678 10.5997L16.7798 10.5747C16.9658 10.2047 17.4168 10.0537 17.7858 10.2397C18.1548 10.4237 18.3048 10.8707 18.1238 11.2397C19.0969 11.5988 20.1326 11.7867 21.1867 11.7944C21.352 11.7956 21.4833 11.6579 21.4746 11.4928C21.3549 9.2317 20.4409 7.00583 18.7178 5.2827C16.9938 3.55964 14.7679 2.64477 12.5078 2.5258C12.3426 2.51711 12.205 2.64853 12.2063 2.8139C12.2148 3.86627 12.4028 4.90187 12.7618 5.8757Z" fill="black"/>
<path fill-rule="evenodd" clip-rule="evenodd" d="M20.8462 13.2956C19.6766 13.248 18.5317 13.0007 17.4525 12.5831L17.0325 13.4261C16.9005 13.6881 16.6355 13.8401 16.3605 13.8401C16.2475 13.8401 16.1335 13.8151 16.0265 13.7611C15.6555 13.5761 15.5045 13.1251 15.6905 12.7551L16.0955 11.9451C15.4745 11.5971 14.8895 11.1851 14.3465 10.7141L13.6195 11.4401C13.4735 11.5871 13.2825 11.6601 13.0895 11.6601C12.8975 11.6601 12.7055 11.5871 12.5595 11.4401C12.2665 11.1471 12.2665 10.6731 12.5595 10.3801L13.2875 9.65111C12.8165 9.10811 12.4075 8.52311 12.0595 7.90311L11.2455 8.31011C11.1375 8.36411 11.0235 8.38911 10.9105 8.38911C10.6355 8.38911 10.3705 8.23711 10.2395 7.97411C10.0535 7.60411 10.2035 7.15411 10.5745 6.96811L11.4095 6.55011C10.9677 5.40867 10.7351 4.19028 10.7116 2.95002C10.7081 2.76679 10.5473 2.62396 10.3667 2.65515C8.50397 2.97683 6.71836 3.84724 5.2825 5.28311C3.88115 6.68446 2.97959 8.47088 2.64744 10.3665C2.61576 10.5473 2.7588 10.7086 2.94235 10.712C4.18193 10.7352 5.40283 10.9696 6.5485 11.4121L6.9675 10.5751C7.1535 10.2051 7.6035 10.0541 7.9735 10.2391C8.3445 10.4241 8.4945 10.8751 8.3095 11.2451L7.9015 12.0611C8.5225 12.4091 9.1085 12.8181 9.6515 13.2881L10.3795 12.5601C10.6725 12.2671 11.1475 12.2671 11.4405 12.5601C11.7335 12.8531 11.7335 13.3271 11.4405 13.6201L10.7125 14.3481C11.1825 14.8921 11.5925 15.4771 11.9395 16.0971L12.7535 15.6901C13.1275 15.5051 13.5755 15.6561 13.7605 16.0261C13.9465 16.3961 13.7955 16.8461 13.4255 17.0321L12.5905 17.4501C13.0312 18.5912 13.2646 19.8092 13.2876 21.0491C13.291 21.2327 13.4524 21.3758 13.6333 21.3441C15.529 21.012 17.3171 20.1185 18.7175 18.7181C20.1494 17.2862 21.0186 15.5059 21.3424 13.6477C21.3741 13.4658 21.2293 13.3043 21.0447 13.3013C20.9785 13.3002 20.9124 13.2983 20.8462 13.2956Z" fill="black"/>
<path fill-rule="evenodd" clip-rule="evenodd" d="M11.2376 18.1246C11.1316 18.1756 11.0206 18.2016 10.9106 18.2016C10.6356 18.2016 10.3706 18.0496 10.2386 17.7876C10.0536 17.4166 10.2036 16.9666 10.5736 16.7806L10.5976 16.7686C10.3246 16.2906 10.0106 15.8346 9.65162 15.4096L9.25962 15.8016C9.11262 15.9476 8.92162 16.0206 8.72962 16.0206C8.53662 16.0206 8.34562 15.9476 8.19862 15.8016C7.90562 15.5086 7.90562 15.0336 8.19862 14.7406L8.59062 14.3486C8.16562 13.9886 7.71062 13.6746 7.23162 13.4016L7.21962 13.4256C7.08762 13.6886 6.82262 13.8406 6.54762 13.8406C6.43562 13.8406 6.32062 13.8146 6.21362 13.7616C5.84462 13.5776 5.69562 13.1306 5.87562 12.7616C4.90417 12.4033 3.86924 12.2155 2.81434 12.2071C2.64916 12.2058 2.51781 12.3431 2.52573 12.5081C2.55708 13.1611 2.64994 13.8147 2.82262 14.4586C3.69862 17.7266 6.27362 20.3006 9.54062 21.1766C10.1852 21.3492 10.8389 21.4428 11.4925 21.475C11.6577 21.4832 11.7953 21.3516 11.7938 21.1862C11.7846 20.1339 11.5966 19.0984 11.2376 18.1246Z" fill="black"/>
</svg>