<svg width="24" height="25" viewBox="0 0 24 25" fill="none" xmlns="http://www.w3.org/2000/svg">
<path d="M3.18932 13.947C2.58175 11.6795 3.84121 9.25385 6.10868 8.64628C8.37615 8.03871 10.793 9.47934 11.4006 11.7468C12.3139 15.1556 8.61845 18.0199 8.61845 18.0199C8.61845 18.0199 6.53938 17.8116 4.87121 16.3942" stroke="black" stroke-width="1.5" stroke-linecap="round" stroke-linejoin="round"/>
<path d="M5.78634 13.5144C5.56334 12.6822 6.0256 11.7918 6.85784 11.5688" stroke="black" stroke-width="1.5" stroke-linecap="round" stroke-linejoin="round"/>
<path d="M20.8115 8.80541C21.4191 6.53793 20.1596 4.11225 17.8921 3.50468C15.6247 2.89711 13.2078 4.33773 12.6002 6.60521C11.6869 10.014 15.3824 12.8783 15.3824 12.8783C15.3824 12.8783 17.3 12.6862 18.9296 11.4155" stroke="black" stroke-width="1.5" stroke-linecap="round" stroke-linejoin="round"/>
<path d="M18.073 8.34925C18.2751 7.59475 17.8561 6.78762 17.1016 6.58545" stroke="black" stroke-width="1.5" stroke-linecap="round" stroke-linejoin="round"/>
<path d="M8.62203 18.0256C8.92013 18.6541 9.16168 20.2055 7.93609 21.8654" stroke="black" stroke-width="1.5" stroke-linecap="round" stroke-linejoin="round"/>
<path d="M15.145 21.3171C17.2466 17.3406 13.3381 17.1539 15.3854 12.8818" stroke="black" stroke-width="1.5" stroke-linecap="round" stroke-linejoin="round"/>
<path d="M13.9727 13.3022L16.1133 13.7257" stroke="black" stroke-width="1.5" stroke-linecap="round" stroke-linejoin="round"/>
<path d="M9.86523 18.2622L7.72461 18.6856" stroke="black" stroke-width="1.5" stroke-linecap="round" stroke-linejoin="round"/>
</svg>