<svg width="24" height="24" viewBox="0 0 24 24" fill="none" xmlns="http://www.w3.org/2000/svg">
<path fill-rule="evenodd" clip-rule="evenodd" d="M18.8943 5.10573C15.0866 1.29809 8.91325 1.29809 5.10561 5.10573C2.64251 7.56883 1.68056 11.1589 2.58212 14.5236C3.48367 17.8882 6.11178 20.5163 9.47644 21.4179C12.8411 22.3194 16.4312 21.3575 18.8943 18.8944C22.7019 15.0868 22.7019 8.91336 18.8943 5.10573ZM6.16627 6.16639C9.38812 2.94454 14.6118 2.94454 17.8336 6.16639C21.0555 9.38823 21.0555 14.6119 17.8336 17.8337C15.7494 19.9179 12.7117 20.7319 9.86467 19.969C7.01764 19.2061 4.79386 16.9824 4.031 14.1353C3.26814 11.2883 4.08211 8.25056 6.16627 6.16639Z" fill="black"/>
<path fill-rule="evenodd" clip-rule="evenodd" d="M11.5461 2.27066C11.1325 2.24818 10.779 2.56526 10.7566 2.97886C10.6063 5.74453 11.6394 8.44359 13.5979 10.4021C15.5564 12.3606 18.2555 13.3937 21.0211 13.2434C21.4347 13.221 21.7518 12.8675 21.7293 12.4539C21.7069 12.0403 21.3534 11.7232 20.9398 11.7457C18.5996 11.8728 16.3158 10.9986 14.6586 9.34144C13.0014 7.68424 12.1272 5.40042 12.2543 3.06024C12.2768 2.64664 11.9597 2.29313 11.5461 2.27066Z" fill="black"/>
<path fill-rule="evenodd" clip-rule="evenodd" d="M10.4021 13.5979C8.44358 11.6394 5.74452 10.6063 2.97885 10.7566C2.56525 10.779 2.24817 11.1325 2.27065 11.5461C2.29312 11.9598 2.64662 12.2768 3.06023 12.2544C5.40041 12.1272 7.68423 13.0014 9.34143 14.6586C10.9986 16.3158 11.8728 18.5996 11.7456 20.9398C11.7232 21.3534 12.0402 21.7069 12.4539 21.7294C12.8675 21.7518 13.221 21.4348 13.2434 21.0211C13.3937 18.2555 12.3606 15.5564 10.4021 13.5979Z" fill="black"/>
<path fill-rule="evenodd" clip-rule="evenodd" d="M15.5303 8.46967C15.2374 8.17678 14.7626 8.17678 14.4697 8.46967L12.4697 10.4697C12.1768 10.7626 12.1768 11.2374 12.4697 11.5303C12.7626 11.8232 13.2374 11.8232 13.5303 11.5303L15.5303 9.53033C15.8232 9.23744 15.8232 8.76256 15.5303 8.46967Z" fill="black"/>
<path fill-rule="evenodd" clip-rule="evenodd" d="M11.5303 12.4697C11.2374 12.1768 10.7626 12.1768 10.4697 12.4697L8.46967 14.4697C8.17678 14.7626 8.17678 15.2374 8.46967 15.5303C8.76256 15.8232 9.23744 15.8232 9.53033 15.5303L11.5303 13.5303C11.8232 13.2374 11.8232 12.7626 11.5303 12.4697Z" fill="black"/>
<path fill-rule="evenodd" clip-rule="evenodd" d="M13.6707 6.66475C13.4854 6.29427 13.0349 6.1441 12.6644 6.32934L10.6644 7.32934C10.2939 7.51459 10.1438 7.96509 10.329 8.33557C10.5143 8.70606 10.9648 8.85623 11.3352 8.67098L13.3352 7.67098C13.7057 7.48574 13.8559 7.03524 13.6707 6.66475Z" fill="black"/>
<path fill-rule="evenodd" clip-rule="evenodd" d="M17.3352 10.3293C16.9648 10.1441 16.5143 10.2943 16.329 10.6648L15.329 12.6648C15.1438 13.0352 15.2939 13.4857 15.6644 13.671C16.0349 13.8562 16.4854 13.7061 16.6707 13.3356L17.6707 11.3356C17.8559 10.9651 17.7057 10.5146 17.3352 10.3293Z" fill="black"/>
<path fill-rule="evenodd" clip-rule="evenodd" d="M8.33525 10.3293C7.96476 10.1441 7.51426 10.2943 7.32902 10.6648L6.32902 12.6648C6.14377 13.0352 6.29394 13.4857 6.66443 13.671C7.03491 13.8562 7.48541 13.7061 7.67066 13.3356L8.67066 11.3356C8.8559 10.9651 8.70573 10.5146 8.33525 10.3293Z" fill="black"/>
<path fill-rule="evenodd" clip-rule="evenodd" d="M13.6707 15.6648C13.4854 15.2943 13.0349 15.1441 12.6644 15.3293L10.6644 16.3293C10.2939 16.5146 10.1438 16.9651 10.329 17.3356C10.5143 17.7061 10.9648 17.8562 11.3352 17.671L13.3352 16.671C13.7057 16.4857 13.8559 16.0352 13.6707 15.6648Z" fill="black"/>
</svg>