<svg width="24" height="24" viewBox="0 0 24 24" fill="none" xmlns="http://www.w3.org/2000/svg">
<path fill-rule="evenodd" clip-rule="evenodd" d="M18.7996 12.2589C18.6916 12.5669 18.4016 12.7599 18.0916 12.7599C18.0096 12.7599 17.9256 12.7459 17.8426 12.7169C17.3636 12.5489 16.8966 12.3459 16.4526 12.1159C16.0856 11.9249 15.9426 11.4709 16.1336 11.1039C16.3256 10.7369 16.7786 10.5959 17.1456 10.7849C17.5266 10.9829 17.9286 11.1569 18.3416 11.3019C18.7316 11.4399 18.9366 11.8679 18.7996 12.2589ZM15.4746 10.6539C15.3266 10.8279 15.1156 10.9169 14.9036 10.9169C14.7316 10.9169 14.5586 10.8579 14.4176 10.7379C14.2126 10.5629 14.0136 10.3769 13.8206 10.1839C13.6156 9.97891 13.4236 9.77091 13.2406 9.55691C12.9716 9.24291 13.0086 8.76891 13.3236 8.49991C13.6386 8.23091 14.1126 8.26791 14.3806 8.58291C14.5386 8.76791 14.7056 8.94691 14.8806 9.12391C15.0446 9.28591 15.2156 9.44591 15.3916 9.59691C15.7066 9.86591 15.7436 10.3389 15.4746 10.6539ZM12.8756 7.83491C12.7666 7.89091 12.6496 7.91791 12.5336 7.91791C12.2616 7.91791 11.9986 7.76891 11.8656 7.50991C11.6286 7.04891 11.4226 6.56391 11.2536 6.06991C11.1196 5.67791 11.3296 5.25191 11.7216 5.11791C12.1146 4.98491 12.5396 5.19391 12.6736 5.58591C12.8186 6.00991 12.9956 6.42691 13.1996 6.82491C13.3896 7.19291 13.2446 7.64491 12.8756 7.83491ZM12.2546 18.8009C12.1736 18.8299 12.0896 18.8429 12.0076 18.8429C11.6976 18.8429 11.4076 18.6489 11.2996 18.3399C11.1606 17.9389 10.9866 17.5369 10.7826 17.1449C10.5926 16.7769 10.7366 16.3239 11.1036 16.1339C11.4716 15.9419 11.9236 16.0859 12.1146 16.4539C12.3506 16.9089 12.5536 17.3779 12.7166 17.8459C12.8526 18.2379 12.6456 18.6649 12.2546 18.8009ZM10.1666 15.6549C9.95462 15.6549 9.74462 15.5659 9.59562 15.3929C9.44562 15.2169 9.28762 15.0469 9.12062 14.8799C8.94662 14.7069 8.76662 14.5399 8.58162 14.3819C8.26662 14.1129 8.22862 13.6389 8.49762 13.3239C8.76662 13.0099 9.24062 12.9719 9.55462 13.2409C9.76862 13.4229 9.97562 13.6149 10.1786 13.8169C10.3756 14.0129 10.5596 14.2119 10.7356 14.4169C11.0046 14.7319 10.9676 15.2049 10.6536 15.4749C10.5126 15.5959 10.3386 15.6549 10.1666 15.6549ZM7.83562 12.8759C7.70262 13.1349 7.43962 13.2829 7.16762 13.2829C7.05162 13.2829 6.93562 13.2569 6.82562 13.1999C6.42662 12.9959 6.01062 12.8189 5.58662 12.6749C5.19462 12.5409 4.98562 12.1149 5.11862 11.7229C5.25262 11.3309 5.67562 11.1189 6.07062 11.2549C6.56262 11.4229 7.04762 11.6279 7.51062 11.8659C7.87962 12.0559 8.02462 12.5079 7.83562 12.8759ZM20.3406 13.2689C19.9276 13.2289 19.6266 12.8619 19.6666 12.4499C19.7066 12.0369 20.0666 11.7329 20.4856 11.7759C20.7168 11.7989 20.9495 11.8015 21.182 11.8C21.3491 11.7988 21.4832 11.6603 21.4744 11.4935C21.3554 9.23274 20.4406 7.00586 18.7176 5.28291C17.0425 3.60879 14.8526 2.64258 12.5049 2.5209C12.3381 2.51226 12.1996 2.64629 12.1983 2.81329C12.1967 3.02876 12.1989 3.2435 12.2186 3.45591C12.2576 3.86791 11.9536 4.23391 11.5416 4.27191C11.5176 4.27391 11.4946 4.27491 11.4706 4.27491C11.0886 4.27491 10.7606 3.98291 10.7256 3.59391C10.7053 3.37932 10.694 3.16301 10.6887 2.9461C10.6841 2.76418 10.5238 2.62374 10.3445 2.65501C8.43815 2.98751 6.67989 3.88564 5.28262 5.28291C3.8528 6.71368 2.98442 8.49091 2.65992 10.3467C2.62856 10.526 2.76901 10.6865 2.95101 10.6909C3.16636 10.6963 3.38084 10.7073 3.59362 10.7269C4.00562 10.7649 4.30962 11.1309 4.27062 11.5429C4.23562 11.9319 3.90762 12.2239 3.52562 12.2239C3.50162 12.2239 3.47862 12.2229 3.45462 12.2199C3.24484 12.2009 3.03184 12.1985 2.81811 12.1998C2.65107 12.2009 2.51702 12.3394 2.5258 12.5062C2.64475 14.7679 3.5596 16.9949 5.28262 18.7179C6.95664 20.3919 9.14637 21.3572 11.4931 21.4798C11.66 21.4885 11.7985 21.3544 11.7995 21.1873C11.8008 20.9535 11.7979 20.72 11.7756 20.4869C11.7356 20.0739 12.0366 19.7079 12.4486 19.6669C12.8516 19.6199 13.2276 19.9279 13.2686 20.3409C13.2916 20.5788 13.3041 20.8176 13.3097 21.0567C13.3141 21.2387 13.4745 21.3791 13.6537 21.3478C15.561 21.0153 17.3194 20.1162 18.7176 18.7179C20.1493 17.2862 21.0182 15.5068 21.3421 13.649C21.3724 13.475 21.2409 13.3168 21.0645 13.3083C20.784 13.2947 20.4146 13.2761 20.3406 13.2689Z" fill="black"/>
</svg>