<svg width="24" height="24" viewBox="0 0 24 24" fill="none" xmlns="http://www.w3.org/2000/svg">
<path fill-rule="evenodd" clip-rule="evenodd" d="M21.5 12C21.5 12.51 21.46 13.01 21.38 13.5C21.2 14.63 20.82 15.7 20.28 16.67C19.96 17.23 19.59 17.75 19.17 18.23H19.16C18.2 19.35 16.97 20.23 15.58 20.8V20.81C15.04 21.02 14.47 21.2 13.88 21.32C13.27 21.44 12.64 21.5 12 21.5C11.4 21.5 10.81 21.44 10.24 21.34C9.66 21.23 9.1 21.07 8.56 20.86C7.11 20.29 5.84 19.38 4.83 18.23C4.41 17.76 4.05 17.24 3.73 16.69C3.18 15.72 2.8 14.65 2.62 13.51C2.54 13.02 2.5 12.51 2.5 12C2.5 11.87 2.5 11.74 2.51 11.61C2.57 10.07 3 8.63 3.7 7.36C4 6.84 4.33 6.35 4.72 5.9C5.66 4.78 6.87 3.87 8.23 3.27C8.81 3.02 9.42 2.83 10.06 2.7C10.68 2.57 11.33 2.5 12 2.5C12.67 2.5 13.32 2.57 13.94 2.7C14.58 2.83 15.19 3.02 15.77 3.27C17.14 3.87 18.35 4.79 19.29 5.92C19.68 6.37 20.02 6.86 20.31 7.38C21 8.64 21.43 10.07 21.49 11.59C21.5 11.73 21.5 11.86 21.5 12Z" fill="black" fill-opacity="0.4"/>
<path fill-rule="evenodd" clip-rule="evenodd" d="M13.6 14.5202H10.4L9.58 11.2302L12 9.6202L14.42 11.2302L13.6 14.5202ZM21.49 11.5902L19.37 9.6602L20.31 7.3802C20.02 6.8602 19.68 6.3702 19.29 5.9202C19.29 5.9302 19.28 5.9302 19.28 5.9402L17.91 9.2602L15.39 10.0802L12.75 8.3102V5.2902L15.69 3.3302C15.72 3.3102 15.75 3.2902 15.77 3.2702C15.19 3.0202 14.58 2.8302 13.94 2.7002L12 3.9902L10.06 2.7002C9.42 2.8302 8.81 3.0202 8.23 3.2702C8.25 3.2902 8.27 3.3102 8.3 3.3302L11.25 5.2902V8.3202L8.6 10.0802L6.14 9.3202L4.74 5.9402C4.73 5.9302 4.73 5.9102 4.72 5.9002C4.33 6.3502 4 6.8402 3.7 7.3602L4.66 9.6602L2.51 11.6102C2.5 11.7402 2.5 11.8702 2.5 12.0002C2.5 12.5102 2.54 13.0202 2.62 13.5102C2.65 13.4902 2.68 13.4702 2.71 13.4402L5.69 10.7502L8.1 11.4902L9.01 15.1602L7.98 16.9002L3.95 16.6702C3.87 16.6702 3.8 16.6702 3.73 16.6902C4.05 17.2402 4.41 17.7602 4.83 18.2302L7.84 18.4002L8.56 20.8602C9.1 21.0702 9.66 21.2302 10.24 21.3402C10.24 21.3102 10.24 21.2802 10.23 21.2502L9.21 17.7702L10.24 16.0202H13.77L14.9 17.7902L13.89 21.2502C13.88 21.2702 13.88 21.3002 13.88 21.3202C14.47 21.2002 15.04 21.0202 15.58 20.8102V20.8002L16.29 18.4002L19.16 18.2302H19.17C19.59 17.7502 19.96 17.2302 20.28 16.6702H20.17L16.12 16.9102L14.99 15.1502L15.9 11.4902L18.29 10.7102L21.31 13.4402C21.33 13.4602 21.36 13.4802 21.38 13.5002C21.46 13.0102 21.5 12.5102 21.5 12.0002C21.5 11.8602 21.5 11.7302 21.49 11.5902Z" fill="black"/>
</svg>