<svg width="24" height="24" viewBox="0 0 24 24" fill="none" xmlns="http://www.w3.org/2000/svg">
<path fill-rule="evenodd" clip-rule="evenodd" d="M12 3.75C7.44365 3.75 3.75 7.44365 3.75 12C3.75 16.5563 7.44365 20.25 12 20.25C16.5563 20.25 20.25 16.5563 20.25 12C20.25 7.44365 16.5563 3.75 12 3.75ZM2.25 12C2.25 6.61522 6.61522 2.25 12 2.25C17.3848 2.25 21.75 6.61522 21.75 12C21.75 17.3848 17.3848 21.75 12 21.75C6.61522 21.75 2.25 17.3848 2.25 12Z" fill="black"/>
<path fill-rule="evenodd" clip-rule="evenodd" d="M11.6314 11.347C11.9921 11.1434 12.4496 11.2707 12.6532 11.6314C14.1056 14.204 16.9737 15.6381 19.9032 15.2564C20.314 15.2029 20.6903 15.4925 20.7438 15.9032C20.7974 16.314 20.5078 16.6903 20.097 16.7438C16.5614 17.2045 13.0999 15.4737 11.347 12.3688C11.1434 12.0081 11.2707 11.5507 11.6314 11.347Z" fill="black"/>
<path fill-rule="evenodd" clip-rule="evenodd" d="M7.17002 12.8267C7.54194 12.6444 7.99126 12.7981 8.17359 13.17C9.72705 16.3387 12.6774 18.5948 16.1423 19.2638C16.549 19.3423 16.8151 19.7356 16.7366 20.1423C16.658 20.549 16.2647 20.8151 15.858 20.7366C11.931 19.9784 8.58733 17.4215 6.82674 13.8303C6.64441 13.4584 6.7981 13.0091 7.17002 12.8267Z" fill="black"/>
<path fill-rule="evenodd" clip-rule="evenodd" d="M12.7497 12.0074C12.7457 12.4216 12.4067 12.7541 11.9925 12.7501C9.03834 12.7216 6.36236 14.4884 5.22814 17.2163C5.06911 17.5988 4.63014 17.7799 4.24767 17.6209C3.8652 17.4618 3.68406 17.0229 3.84309 16.6404C5.21199 13.3482 8.44161 11.2158 12.007 11.2502C12.4211 11.2542 12.7537 11.5932 12.7497 12.0074Z" fill="black"/>
<path fill-rule="evenodd" clip-rule="evenodd" d="M13.6991 7.4035C13.6711 7.81676 13.3133 8.12904 12.9 8.10098C9.37917 7.86199 5.95017 9.28896 3.63833 11.9552C3.36697 12.2682 2.8933 12.3019 2.58034 12.0306C2.26739 11.7592 2.23366 11.2855 2.50502 10.9726C5.12511 7.95081 9.0113 6.33356 13.0016 6.60443C13.4149 6.63248 13.7272 6.99024 13.6991 7.4035Z" fill="black"/>
<path fill-rule="evenodd" clip-rule="evenodd" d="M11.6189 12.6456C11.2622 12.435 11.1437 11.9752 11.3543 11.6185C12.856 9.07436 12.6639 5.87349 10.8686 3.52728C10.6169 3.19832 10.6795 2.7276 11.0085 2.47588C11.3374 2.22417 11.8082 2.28679 12.0599 2.61574C14.2266 5.44737 14.4585 9.31049 12.646 12.381C12.4355 12.7377 11.9756 12.8561 11.6189 12.6456Z" fill="black"/>
<path fill-rule="evenodd" clip-rule="evenodd" d="M15.1309 15.7698C14.787 15.5388 14.6954 15.0729 14.9264 14.729C16.8938 11.7993 17.3725 8.11624 16.2193 4.78098C16.084 4.38951 16.2916 3.96243 16.6831 3.82708C17.0746 3.69173 17.5016 3.89936 17.637 4.29084C18.9439 8.07079 18.4014 12.245 16.1716 15.5653C15.9407 15.9091 15.4747 16.0007 15.1309 15.7698Z" fill="black"/>
</svg>