<svg width="24" height="25" viewBox="0 0 24 25" fill="none" xmlns="http://www.w3.org/2000/svg">
<path fill-rule="evenodd" clip-rule="evenodd" d="M6.43158 11.9424C6.24158 11.9924 6.07158 12.1224 5.97158 12.3024C5.86158 12.5024 5.82158 12.7424 5.88158 12.9724C5.99158 13.3724 5.75158 13.7824 5.35158 13.8924C5.29158 13.9124 5.22158 13.9124 5.16158 13.9124C4.83158 13.9124 4.53158 13.6924 4.44158 13.3624C4.27158 12.7524 4.36158 12.0924 4.67158 11.5524C4.97158 11.0224 5.46158 10.6524 6.04158 10.4924C6.45158 10.3924 6.85158 10.6324 6.96158 11.0324C7.06158 11.4324 6.83158 11.8424 6.43158 11.9424ZM9.88158 17.4024C10.9916 16.2324 12.5616 14.0224 11.8816 11.4924C11.2016 8.94245 8.50158 7.36245 5.98158 8.03245C3.48158 8.70245 2.01158 11.3624 2.71158 13.9524C2.71158 13.9624 2.71158 13.9724 2.72158 13.9824C3.61158 16.5324 5.74158 17.6224 7.17158 18.0724C7.02158 18.2424 6.94158 18.4724 6.99158 18.7024C7.06158 19.0624 7.37158 19.3124 7.72158 19.3124C7.77158 19.3124 7.82158 19.3024 7.87158 19.2924L8.10158 19.2524C8.08158 19.8224 7.89158 20.5424 7.33158 21.2924C7.09158 21.6224 7.16158 22.0924 7.49158 22.3424C7.62158 22.4424 7.78158 22.4924 7.93158 22.4924C8.17158 22.4924 8.39158 22.3824 8.54158 22.1824C9.38158 21.0424 9.65158 19.8924 9.61158 18.9524L10.0116 18.8724C10.4216 18.7924 10.6816 18.3924 10.6016 17.9924C10.5316 17.6424 10.2216 17.4024 9.88158 17.4024Z" fill="black"/>
<path fill-rule="evenodd" clip-rule="evenodd" d="M19.5716 7.86243C19.4816 8.20243 19.1816 8.42243 18.8516 8.42243C18.7816 8.42243 18.7216 8.41243 18.6516 8.39243C18.2516 8.28243 18.0116 7.87243 18.1216 7.47243C18.1716 7.29243 18.1516 7.10243 18.0616 6.94243C18.0116 6.85243 17.9016 6.69243 17.6816 6.63243C17.2816 6.52243 17.0416 6.11243 17.1516 5.71243C17.2616 5.31243 17.6616 5.07243 18.0716 5.18243C18.6316 5.33243 19.1016 5.70243 19.3816 6.22243C19.6516 6.73243 19.7216 7.31243 19.5716 7.86243ZM20.8716 5.17243C20.2516 4.03243 19.2416 3.22243 18.0216 2.89243C15.5116 2.22243 12.8016 3.80243 12.1216 6.35243C11.3916 9.06243 13.2516 11.3924 14.3416 12.4824L14.1216 12.4424C13.7216 12.3624 13.3216 12.6224 13.2416 13.0324C13.1616 13.4324 13.4216 13.8324 13.8316 13.9124L14.1616 13.9724C13.8116 15.5124 14.2416 16.5324 14.6016 17.3924C15.0416 18.4324 15.3616 19.1724 14.4816 20.8424C14.2916 21.2024 14.4316 21.6624 14.7916 21.8524C14.9116 21.9124 15.0316 21.9424 15.1416 21.9424C15.4116 21.9424 15.6716 21.7924 15.8116 21.5424C17.0216 19.2424 16.4716 17.9524 15.9816 16.8024C15.6616 16.0424 15.3716 15.3524 15.6316 14.2624L15.9716 14.3324C16.0216 14.3424 16.0716 14.3524 16.1116 14.3524C16.4616 14.3524 16.7816 14.1024 16.8516 13.7424C16.9116 13.4624 16.7816 13.1824 16.5716 13.0124C17.9916 12.6124 20.3416 11.5524 21.2816 8.84243C21.2916 8.83243 21.2916 8.82243 21.2916 8.81243C21.6216 7.57243 21.4716 6.28243 20.8716 5.17243Z" fill="black"/>
</svg>