<svg width="24" height="24" viewBox="0 0 24 24" fill="none" xmlns="http://www.w3.org/2000/svg">
<path fill-rule="evenodd" clip-rule="evenodd" d="M18.3639 18.3641C16.0903 20.6377 12.7764 21.5257 9.67056 20.6934C6.56471 19.8612 4.13877 17.4353 3.30656 14.3294C2.47435 11.2236 3.36231 7.90969 5.63594 5.63606C9.15068 2.12132 14.8492 2.12132 18.3639 5.63606C21.8787 9.1508 21.8787 14.8493 18.3639 18.3641V18.3641Z" stroke="black" stroke-width="1.5" stroke-linecap="round" stroke-linejoin="round"/>
<path d="M11.5055 3.01953C11.3668 5.57246 12.3204 8.06389 14.1283 9.87175C15.9361 11.6796 18.4275 12.6332 20.9805 12.4945" stroke="black" stroke-width="1.5" stroke-linecap="round" stroke-linejoin="round"/>
<path d="M3.01954 11.5055C5.57247 11.3668 8.0639 12.3204 9.87176 14.1282C11.6796 15.9361 12.6332 18.4275 12.4945 20.9805" stroke="black" stroke-width="1.5" stroke-linecap="round" stroke-linejoin="round"/>
<path d="M15 9L13 11" stroke="black" stroke-width="1.5" stroke-linecap="round" stroke-linejoin="round"/>
<path d="M11 13L9 15" stroke="black" stroke-width="1.5" stroke-linecap="round" stroke-linejoin="round"/>
<path d="M13 7L11 8" stroke="black" stroke-width="1.5" stroke-linecap="round" stroke-linejoin="round"/>
<path d="M17 11L16 13" stroke="black" stroke-width="1.5" stroke-linecap="round" stroke-linejoin="round"/>
<path d="M8 11L7 13" stroke="black" stroke-width="1.5" stroke-linecap="round" stroke-linejoin="round"/>
<path d="M13 16L11 17" stroke="black" stroke-width="1.5" stroke-linecap="round" stroke-linejoin="round"/>
</svg>