<svg width="24" height="24" viewBox="0 0 24 24" fill="none" xmlns="http://www.w3.org/2000/svg">
<path fill-rule="evenodd" clip-rule="evenodd" d="M21.5 12C21.5 14.55 20.5 16.86 18.86 18.57C18.51 18.93 18.13 19.27 17.74 19.58C16.14 20.78 14.15 21.5 12 21.5C9.85 21.5 7.86 20.78 6.26 19.58C5.87 19.27 5.49 18.93 5.14 18.57C3.5 16.86 2.5 14.55 2.5 12C2.5 9.45 3.5 7.14 5.15 5.43C5.5 5.07 5.87 4.73 6.26 4.43C7.86 3.22 9.85 2.5 12 2.5C14.15 2.5 16.14 3.22 17.74 4.43C18.13 4.73 18.5 5.07 18.85 5.43C20.5 7.14 21.5 9.45 21.5 12Z" fill="black" fill-opacity="0.4"/>
<path fill-rule="evenodd" clip-rule="evenodd" d="M9.51014 11.9998C9.51014 14.8798 8.33014 17.6198 6.26014 19.5798C5.87014 19.2698 5.49014 18.9298 5.14014 18.5698C6.96014 16.8798 8.01014 14.4998 8.01014 11.9998C8.01014 9.50981 6.97014 7.11981 5.15014 5.42981C5.50014 5.06981 5.87014 4.72981 6.26014 4.42981C8.33014 6.38981 9.51014 9.12981 9.51014 11.9998Z" fill="black"/>
<path fill-rule="evenodd" clip-rule="evenodd" d="M18.8601 18.5697C18.5101 18.9297 18.1301 19.2697 17.7401 19.5797C15.6701 17.6197 14.4901 14.8797 14.4901 11.9997C14.4901 9.12969 15.6701 6.38969 17.7401 4.42969C18.1301 4.72969 18.5001 5.06969 18.8501 5.42969C17.0301 7.11969 15.9901 9.50969 15.9901 11.9997C15.9901 14.4997 17.0401 16.8797 18.8601 18.5697Z" fill="black"/>
</svg>