<svg width="24" height="24" viewBox="0 0 24 24" fill="none" xmlns="http://www.w3.org/2000/svg">
<path fill-rule="evenodd" clip-rule="evenodd" d="M12 3.75C7.44365 3.75 3.75 7.44365 3.75 12C3.75 16.5563 7.44365 20.25 12 20.25C16.5563 20.25 20.25 16.5563 20.25 12C20.25 7.44365 16.5563 3.75 12 3.75ZM2.25 12C2.25 6.61522 6.61522 2.25 12 2.25C17.3848 2.25 21.75 6.61522 21.75 12C21.75 17.3848 17.3848 21.75 12 21.75C6.61522 21.75 2.25 17.3848 2.25 12Z" fill="black"/>
<path fill-rule="evenodd" clip-rule="evenodd" d="M5.12006 5.12006C5.41295 4.82717 5.88783 4.82717 6.18072 5.12006L18.8807 17.8201C19.1736 18.113 19.1736 18.5878 18.8807 18.8807C18.5878 19.1736 18.113 19.1736 17.8201 18.8807L5.12006 6.18072C4.82717 5.88783 4.82717 5.41295 5.12006 5.12006Z" fill="black"/>
<path fill-rule="evenodd" clip-rule="evenodd" d="M18.8807 5.12006C19.1736 5.41295 19.1736 5.88783 18.8807 6.18072L6.18072 18.8807C5.88783 19.1736 5.41295 19.1736 5.12006 18.8807C4.82717 18.5878 4.82717 18.113 5.12006 17.8201L17.8201 5.12006C18.113 4.82717 18.5878 4.82717 18.8807 5.12006Z" fill="black"/>
<path fill-rule="evenodd" clip-rule="evenodd" d="M12 2.25C12.4142 2.25 12.75 2.58579 12.75 3C12.75 7.55635 16.4437 11.25 21 11.25C21.4142 11.25 21.75 11.5858 21.75 12C21.75 12.4142 21.4142 12.75 21 12.75C15.6152 12.75 11.25 8.38478 11.25 3C11.25 2.58579 11.5858 2.25 12 2.25Z" fill="black"/>
<path fill-rule="evenodd" clip-rule="evenodd" d="M2.25 12C2.25 11.5858 2.58579 11.25 3 11.25C8.38478 11.25 12.75 15.6152 12.75 21C12.75 21.4142 12.4142 21.75 12 21.75C11.5858 21.75 11.25 21.4142 11.25 21C11.25 16.4437 7.55635 12.75 3 12.75C2.58579 12.75 2.25 12.4142 2.25 12Z" fill="black"/>
</svg>