<svg width="24" height="24" viewBox="0 0 24 24" fill="none" xmlns="http://www.w3.org/2000/svg">
<path d="M7.15588 21.7438C5.80297 21.84 4.46548 21.4076 3.42486 20.5378C2.30686 19.4108 2.18385 17.5108 2.27685 16.1148C2.52834 12.5336 4.06184 9.16294 6.5963 6.62039C9.13077 4.07784 12.4965 2.53366 16.0769 2.27076C17.4869 2.17076 19.4098 2.29576 20.5528 3.43876C21.6958 4.58176 21.8179 6.50076 21.7209 7.90976C21.4612 11.4929 19.9177 14.8621 17.374 17.399C14.8302 19.9358 11.4567 21.4699 7.87286 21.7198C7.64686 21.7348 7.40488 21.7438 7.15588 21.7438ZM16.8309 3.74376C16.6229 3.74376 16.4069 3.75176 16.1849 3.76676C12.9651 4.0024 9.93809 5.3904 7.6585 7.67642C5.37891 9.96243 3.99945 12.9934 3.77288 16.2138C3.56956 17.3546 3.82706 18.5295 4.48888 19.4808C4.95971 19.8172 5.49302 20.0561 6.05749 20.1835C6.62195 20.311 7.20618 20.3243 7.77587 20.2228C10.9983 19.9982 14.0317 18.6189 16.319 16.3379C18.6064 14.057 19.9943 11.0276 20.2279 7.80576C20.3313 7.23348 20.3197 6.64633 20.1939 6.07855C20.0681 5.51078 19.8304 4.97374 19.4949 4.49876C18.7312 3.92552 17.7818 3.65644 16.8309 3.74376Z" fill="black"/>
<path d="M8.04279 21.7C7.84387 21.7 7.6531 21.621 7.51245 21.4804C7.3718 21.3397 7.29279 21.1489 7.29279 20.95C7.29173 19.825 6.84438 18.7464 6.04889 17.9509C5.2534 17.1555 4.17479 16.7081 3.0498 16.707C2.85089 16.707 2.66012 16.628 2.51947 16.4874C2.37882 16.3467 2.2998 16.1559 2.2998 15.957C2.2998 15.7581 2.37882 15.5674 2.51947 15.4267C2.66012 15.286 2.85089 15.207 3.0498 15.207C4.57246 15.2086 6.03227 15.8142 7.10895 16.8909C8.18563 17.9675 8.7912 19.4274 8.79279 20.95C8.79279 21.1489 8.71377 21.3397 8.57312 21.4804C8.43247 21.621 8.2417 21.7 8.04279 21.7Z" fill="black"/>
<path d="M20.9502 8.7968C19.4261 8.79628 17.9645 8.19065 16.8867 7.11302C15.8088 6.03539 15.2029 4.57393 15.2021 3.0498C15.2021 2.85089 15.2812 2.66013 15.4218 2.51947C15.5625 2.37882 15.7532 2.2998 15.9521 2.2998C16.1511 2.2998 16.3418 2.37882 16.4825 2.51947C16.6231 2.66013 16.7021 2.85089 16.7021 3.0498C16.7024 4.17627 17.1501 5.25651 17.9467 6.05295C18.7433 6.84939 19.8237 7.2968 20.9502 7.2968C21.1491 7.2968 21.3399 7.37582 21.4805 7.51647C21.6212 7.65713 21.7002 7.84789 21.7002 8.0468C21.7002 8.24572 21.6212 8.43648 21.4805 8.57713C21.3399 8.71779 21.1491 8.7968 20.9502 8.7968Z" fill="black"/>
<path d="M9.34953 15.4045C9.20129 15.4041 9.05651 15.3598 8.93339 15.2772C8.81027 15.1947 8.7143 15.0776 8.65763 14.9406C8.60096 14.8036 8.5861 14.6529 8.61491 14.5075C8.64371 14.3621 8.71494 14.2285 8.81956 14.1235L13.8775 9.06447C14.0182 8.92377 14.2091 8.84473 14.4081 8.84473C14.607 8.84473 14.7978 8.92377 14.9385 9.06447C15.0792 9.20516 15.1583 9.39599 15.1583 9.59497C15.1583 9.79394 15.0792 9.98477 14.9385 10.1255L9.87955 15.1845C9.81004 15.2542 9.7274 15.3096 9.63645 15.3473C9.5455 15.3851 9.448 15.4045 9.34953 15.4045Z" fill="black"/>
<path d="M14.1289 13.128C14.0304 13.128 13.9329 13.1086 13.842 13.0708C13.751 13.033 13.6684 12.9777 13.5989 12.908L11.0879 10.397C11.0182 10.3273 10.9629 10.2446 10.9252 10.1536C10.8875 10.0625 10.8682 9.96497 10.8682 9.86645C10.8682 9.76793 10.8875 9.67037 10.9252 9.57935C10.9629 9.48832 11.0182 9.40562 11.0879 9.33595C11.2286 9.19525 11.4194 9.11621 11.6184 9.11621C11.7169 9.11621 11.8145 9.13562 11.9055 9.17332C11.9965 9.21102 12.0792 9.26628 12.1489 9.33595L14.6589 11.847C14.7635 11.952 14.8347 12.0856 14.8635 12.231C14.8923 12.3764 14.8774 12.5271 14.8207 12.6641C14.7641 12.801 14.6682 12.9182 14.545 13.0007C14.4219 13.0833 14.2771 13.1275 14.1289 13.128Z" fill="black"/>
<path d="M12.127 15.128C12.0285 15.128 11.931 15.1086 11.84 15.0708C11.7491 15.033 11.6664 14.9777 11.5969 14.908L9.08594 12.397C8.94524 12.2563 8.86621 12.0654 8.86621 11.8665C8.86621 11.6675 8.94524 11.4766 9.08594 11.336C9.22663 11.1953 9.41748 11.1162 9.61646 11.1162C9.81543 11.1162 10.0063 11.1953 10.147 11.336L12.6569 13.847C12.7615 13.952 12.8328 14.0856 12.8616 14.231C12.8904 14.3764 12.8755 14.5271 12.8188 14.6641C12.7622 14.801 12.6662 14.9182 12.5431 15.0007C12.42 15.0833 12.2752 15.1275 12.127 15.128Z" fill="black"/>
</svg>