<svg width="24" height="24" viewBox="0 0 24 24" fill="none" xmlns="http://www.w3.org/2000/svg">
<path d="M16.2149 21.75H7.78488C4.47488 21.75 2.25488 19.43 2.25488 15.97V8.02002C2.25488 4.57002 4.47488 2.25 7.78488 2.25H16.2149C19.5249 2.25 21.7449 4.57002 21.7449 8.02002V15.97C21.7449 19.43 19.5249 21.75 16.2149 21.75ZM7.78488 3.75C5.33488 3.75 3.75488 5.43002 3.75488 8.02002V15.97C3.75488 18.57 5.33488 20.25 7.78488 20.25H16.2149C18.6649 20.25 20.2449 18.57 20.2449 15.97V8.02002C20.2449 5.43002 18.6649 3.75 16.2149 3.75H7.78488Z" fill="black"/>
<path d="M13.2847 16.0598H8.68468C8.11468 16.0598 7.58467 15.7798 7.27467 15.3098C6.95467 14.8298 6.90468 14.2297 7.12468 13.6997L9.15468 8.95972C9.42468 8.32972 10.0347 7.92969 10.7147 7.92969H15.3147C15.8947 7.92969 16.4247 8.21971 16.7347 8.69971C17.0447 9.15971 17.0947 9.7698 16.8747 10.2998L14.8447 15.0398C14.5747 15.6598 13.9647 16.0598 13.2847 16.0598ZM10.7147 9.42969C10.6347 9.42969 10.5647 9.4798 10.5347 9.5498L8.50469 14.2798C8.47469 14.3398 8.48467 14.4097 8.52467 14.4697C8.55467 14.5197 8.62468 14.5498 8.68468 14.5498H13.2847C13.3647 14.5498 13.4347 14.5097 13.4647 14.4397L15.4947 9.69971C15.5147 9.63971 15.5147 9.56978 15.4847 9.51978C15.4447 9.45978 15.3847 9.41968 15.3147 9.41968H10.7147V9.42969Z" fill="black"/>
</svg>