<svg width="24" height="24" viewBox="0 0 24 24" fill="none" xmlns="http://www.w3.org/2000/svg">
<path fill-rule="evenodd" clip-rule="evenodd" d="M12.881 6.14291L14.244 4.78591C14.911 4.11991 15.795 3.75291 16.734 3.75291C16.736 3.75291 16.738 3.75291 16.74 3.75391C17.676 3.75491 18.555 4.12091 19.219 4.78991C19.882 5.44291 20.246 6.32591 20.246 7.27491C20.246 8.21091 19.88 9.09191 19.214 9.75791L17.861 11.1209L12.881 6.14291ZM14.916 13.8709L13.861 14.9209C13.666 15.1229 13.396 15.2379 13.107 15.2379C12.818 15.2379 12.547 15.1229 12.345 14.9149L9.06503 11.6399C8.86403 11.4409 8.75203 11.1729 8.75203 10.8859C8.75203 10.5999 8.86403 10.3309 9.06703 10.1309L10.12 9.07291C10.54 8.65891 11.218 8.66091 11.632 9.06891L14.918 12.3529C15.335 12.7819 15.331 13.4609 14.916 13.8709ZM9.76003 19.2239C8.38403 20.5889 6.14703 20.5879 4.77703 19.2279C3.41103 17.8539 3.41103 15.6179 4.77403 14.2469L6.13803 12.8899L11.115 17.8659L9.76003 19.2239ZM18.922 12.1809L20.276 10.8159C21.224 9.86891 21.746 8.61091 21.746 7.27491C21.746 5.92191 21.222 4.65991 20.278 3.72791C19.336 2.77891 18.08 2.25591 16.743 2.25391H16.734C15.394 2.25391 14.134 2.77591 13.184 3.72491L11.82 5.08291L10.639 3.90191C9.73903 2.99991 8.54203 2.50391 7.26803 2.50391C5.99403 2.50391 4.79703 2.99991 3.89603 3.90191C2.04003 5.76291 2.04003 8.78891 3.89603 10.6489L5.07703 11.8299L3.71303 13.1879C1.76703 15.1439 1.76703 18.3279 3.71703 20.2879C4.69403 21.2599 5.97903 21.7459 7.26503 21.7459C8.55203 21.7459 9.83903 21.2589 10.819 20.2849L12.175 18.9259L13.359 20.1089C14.26 21.0119 15.458 21.5079 16.731 21.5079C18.006 21.5079 19.203 21.0119 20.103 20.1089C21.96 18.2489 21.96 15.2229 20.103 13.3619L18.922 12.1809Z" fill="black"/>
</svg>