<svg width="25" height="24" viewBox="0 0 25 24" fill="none" xmlns="http://www.w3.org/2000/svg">
<path fill-rule="evenodd" clip-rule="evenodd" d="M3.76979 4.82826C4.61272 3.92395 5.8104 3.42188 7.21472 3.42188H17.2846C18.6919 3.42188 19.8899 3.92366 20.7324 4.8286C21.5693 5.72747 21.9993 6.96314 21.9993 8.33896V11.6324C21.9993 12.0466 21.6635 12.3824 21.2493 12.3824C20.8351 12.3824 20.4993 12.0466 20.4993 11.6324V8.33896C20.4993 7.27272 20.1691 6.42484 19.6345 5.85069C19.1057 5.2826 18.3214 4.92188 17.2846 4.92188H7.21472C6.18183 4.92188 5.39715 5.28231 4.86703 5.85103C4.33145 6.4256 4 7.2736 4 8.33896V14.9257C4 15.992 4.33027 16.8399 4.86479 17.414C5.39367 17.9821 6.17797 18.3428 7.21472 18.3428H10.5412C10.9554 18.3428 11.2912 18.6786 11.2912 19.0928C11.2912 19.507 10.9554 19.8428 10.5412 19.8428H7.21472C5.80745 19.8428 4.60939 19.3411 3.76692 18.4361C2.93008 17.5372 2.5 16.3016 2.5 14.9257V8.33896C2.5 6.96226 2.93231 5.72671 3.76979 4.82826Z" fill="black"/>
<path fill-rule="evenodd" clip-rule="evenodd" d="M2.5 9.46875C2.5 9.05454 2.83579 8.71875 3.25 8.71875H21.2493C21.6635 8.71875 21.9993 9.05454 21.9993 9.46875C21.9993 9.88296 21.6635 10.2188 21.2493 10.2188H3.25C2.83579 10.2188 2.5 9.88296 2.5 9.46875Z" fill="black"/>
<path fill-rule="evenodd" clip-rule="evenodd" d="M19.5127 13.5117C19.9269 13.5117 20.2627 13.8475 20.2627 14.2617V19.8269C20.2627 20.2411 19.9269 20.5769 19.5127 20.5769C19.0985 20.5769 18.7627 20.2411 18.7627 19.8269V14.2617C18.7627 13.8475 19.0985 13.5117 19.5127 13.5117Z" fill="black"/>
<path fill-rule="evenodd" clip-rule="evenodd" d="M17.2355 17.6279C17.523 17.3297 17.9978 17.321 18.296 17.6085L19.5129 18.7819L20.729 17.6087C21.0271 17.3211 21.5019 17.3296 21.7895 17.6277C22.0771 17.9258 22.0686 18.4006 21.7705 18.6882L20.0338 20.3636C19.7433 20.6439 19.2831 20.6439 18.9925 20.3638L17.2548 18.6884C16.9566 18.4009 16.948 17.9261 17.2355 17.6279Z" fill="black"/>
<path fill-rule="evenodd" clip-rule="evenodd" d="M14.9141 13.0156C15.3283 13.0156 15.6641 13.3514 15.6641 13.7656V19.3308C15.6641 19.745 15.3283 20.0808 14.9141 20.0808C14.4998 20.0808 14.1641 19.745 14.1641 19.3308V13.7656C14.1641 13.3514 14.4998 13.0156 14.9141 13.0156Z" fill="black"/>
<path fill-rule="evenodd" clip-rule="evenodd" d="M14.3927 13.2259C14.6832 12.9456 15.1434 12.9455 15.434 13.2257L17.1717 14.9011C17.4699 15.1886 17.4785 15.6634 17.191 15.9616C16.9035 16.2598 16.4287 16.2684 16.1305 15.9809L14.9136 14.8076L13.6975 15.9808C13.3994 16.2684 12.9246 16.2598 12.637 15.9617C12.3494 15.6636 12.3579 15.1888 12.656 14.9013L14.3927 13.2259Z" fill="black"/>
</svg>