<svg width="24" height="24" viewBox="0 0 24 24" fill="none" xmlns="http://www.w3.org/2000/svg">
<path fill-rule="evenodd" clip-rule="evenodd" d="M21.4096 9.75938C20.9126 8.92538 20.0906 8.36438 19.0316 8.13738C18.8655 8.10139 18.7086 8.22793 18.7086 8.39788V12.4844C18.7086 15.3164 16.7976 17.2944 14.0596 17.2944H6.61039C6.38143 17.2944 6.24055 17.5392 6.38054 17.7204C6.87552 18.361 7.60198 18.8269 8.51761 19.0244L16.3356 20.7014C16.6386 20.7664 16.9346 20.7984 17.2206 20.7984C18.9396 20.7974 20.2876 19.6514 20.6976 17.7394L21.7956 12.6264C22.0236 11.5584 21.8906 10.5674 21.4096 9.75938Z" fill="black"/>
<path fill-rule="evenodd" clip-rule="evenodd" d="M17.3872 7.01312C17.3872 4.73512 15.9212 3.20312 13.7412 3.20312H5.74419C3.56219 3.20312 2.09619 4.73512 2.09619 7.01312C2.09619 7.09597 2.16335 7.16313 2.24619 7.16313H17.2372C17.32 7.16313 17.3872 7.09597 17.3872 7.01312Z" fill="black"/>
<path fill-rule="evenodd" clip-rule="evenodd" d="M17.3872 12.2436V8.96357C17.3872 8.79789 17.2529 8.66357 17.0872 8.66357H2.39619C2.23051 8.66357 2.09619 8.79789 2.09619 8.96357V12.2436C2.09619 14.5216 3.56219 16.0536 5.74419 16.0536H13.7402C15.9212 16.0536 17.3872 14.5216 17.3872 12.2436Z" fill="black"/>
</svg>