<svg width="25" height="24" viewBox="0 0 25 24" fill="none" xmlns="http://www.w3.org/2000/svg">
<path opacity="0.4" fill-rule="evenodd" clip-rule="evenodd" d="M11.9522 14.9103L13.1822 12.7103C13.6222 11.9203 14.4622 11.4303 15.3622 11.4303H20.2822C20.6116 11.4303 20.9295 11.496 21.2237 11.6178C21.4492 11.711 21.7322 11.5614 21.7322 11.3174V9.87031C21.7322 9.70463 21.5979 9.57031 21.4322 9.57031H3.03218C2.86649 9.57031 2.73218 9.70463 2.73218 9.87031V14.2703C2.73218 17.0603 4.52218 18.9403 7.19218 18.9403H12.6268C12.8868 18.9403 13.0237 18.6321 12.8494 18.4392L12.2722 17.8003C11.5622 17.0103 11.4322 15.8403 11.9522 14.9103Z" fill="black"/>
<path fill-rule="evenodd" clip-rule="evenodd" d="M21.7316 7.68953C21.7316 4.89653 19.9376 3.01953 17.2676 3.01953H7.19664C4.52664 3.01953 2.73364 4.89653 2.73364 7.68953V7.76953C2.73364 7.93522 2.86796 8.06953 3.03364 8.06953H21.4316C21.5973 8.06953 21.7316 7.93522 21.7316 7.76953V7.68953Z" fill="black"/>
<path fill-rule="evenodd" clip-rule="evenodd" d="M17.8261 19.1102L15.0501 16.0282L15.8041 14.6812H19.8471L20.6011 16.0282L17.8261 19.1102ZM22.1721 15.7642L20.9411 13.5652C20.8091 13.3282 20.5581 13.1812 20.2871 13.1812H15.3641C15.0931 13.1812 14.8421 13.3282 14.7101 13.5652L13.4791 15.7642C13.3221 16.0452 13.3611 16.3932 13.5761 16.6322L17.2691 20.7332C17.4111 20.8912 17.6141 20.9812 17.8261 20.9812C18.0381 20.9812 18.2411 20.8912 18.3841 20.7332L22.0761 16.6322C22.2901 16.3932 22.3291 16.0452 22.1721 15.7642Z" fill="black"/>
</svg>