<svg width="25" height="24" viewBox="0 0 25 24" fill="none" xmlns="http://www.w3.org/2000/svg">
<path fill-rule="evenodd" clip-rule="evenodd" d="M17.5356 4.53906H7.46543C5.02936 4.53906 3.50195 6.26396 3.50195 8.70489V15.2922C3.50195 17.7341 5.02158 19.458 7.46543 19.458H17.5346C19.9795 19.458 21.5001 17.7341 21.5001 15.2922V8.70489C21.5001 6.26396 19.9795 4.53906 17.5356 4.53906Z" stroke="black" stroke-width="1.5" stroke-linecap="round" stroke-linejoin="round"/>
<path opacity="0.4" d="M3.5 9.12315H21.4981" stroke="black" stroke-width="1.5" stroke-linecap="round" stroke-linejoin="round"/>
<path d="M6.92969 15.4357H10.3425" stroke="black" stroke-width="1.5" stroke-linecap="round" stroke-linejoin="round"/>
<path d="M6.92969 12.7169H9.46401" stroke="black" stroke-width="1.5" stroke-linecap="round" stroke-linejoin="round"/>
<path fill-rule="evenodd" clip-rule="evenodd" d="M15.8058 15.6899H17.0813C17.627 15.6899 18.0697 15.2472 18.0697 14.7015V13.4494C18.0697 12.9036 17.627 12.4609 17.0813 12.4609H15.8058C15.26 12.4609 14.8174 12.9036 14.8174 13.4494V14.7015C14.8174 15.2472 15.26 15.6899 15.8058 15.6899Z" stroke="black" stroke-width="1.5" stroke-linecap="round" stroke-linejoin="round"/>
</svg>