<svg width="24" height="24" viewBox="0 0 24 24" fill="none" xmlns="http://www.w3.org/2000/svg">
<path fill-rule="evenodd" clip-rule="evenodd" d="M22.3746 7.82625C22.3746 5.03325 20.5806 3.15625 17.9106 3.15625H7.83959C5.16959 3.15625 3.37659 5.03325 3.37659 7.82625V7.90625C3.37659 8.07194 3.5109 8.20625 3.67659 8.20625H22.0746C22.2403 8.20625 22.3746 8.07194 22.3746 7.90625V7.82625Z" fill="black"/>
<path fill-rule="evenodd" clip-rule="evenodd" d="M3.67619 9.70752C3.5105 9.70752 3.37619 9.84183 3.37619 10.0075V12.3634C3.37619 12.5488 3.54466 12.7079 3.73004 12.7076C3.74828 12.7075 3.7629 12.7075 3.77226 12.7075C7.22226 12.7075 9.80619 15.2173 9.80619 18.6673C9.80619 18.6722 9.80619 18.6813 9.80617 18.6935C9.80589 18.8887 9.98525 19.0775 10.1804 19.0775H17.9062C20.5762 19.0775 22.3762 17.1975 22.3762 14.4075V10.0075C22.3762 9.84183 22.2419 9.70752 22.0762 9.70752H3.67619Z" fill="black"/>
<path fill-rule="evenodd" clip-rule="evenodd" d="M6.70129 15.7686C6.40829 15.4756 5.93329 15.4756 5.64029 15.7686L4.27229 17.1366L2.90529 15.7696C2.61229 15.4766 2.13729 15.4766 1.84429 15.7696C1.55129 16.0626 1.55129 16.5376 1.84429 16.8306L3.21129 18.1976L1.84329 19.5656C1.55029 19.8586 1.55029 20.3326 1.84329 20.6256C1.99029 20.7726 2.18129 20.8456 2.37329 20.8456C2.56529 20.8456 2.75729 20.7726 2.90429 20.6256L4.27229 19.2576L5.63929 20.6246C5.78628 20.7716 5.97829 20.8446 6.17029 20.8446C6.36229 20.8446 6.55429 20.7716 6.70028 20.6246C6.99329 20.3316 6.99329 19.8576 6.70028 19.5646L5.33329 18.1976L6.70129 16.8296C6.99429 16.5366 6.99429 16.0616 6.70129 15.7686Z" fill="black"/>
</svg>