<svg width="24" height="24" viewBox="0 0 24 24" fill="none" xmlns="http://www.w3.org/2000/svg">
<path fill-rule="evenodd" clip-rule="evenodd" d="M17.0305 20.0598C16.217 19.566 15.4598 18.9848 14.7726 18.3248C14.2886 17.8495 13.9192 17.2692 13.6928 16.6287C13.2836 15.3817 13.7423 13.951 15.0516 13.5194C15.7407 13.292 16.4969 13.4144 17.0791 13.846C17.6555 13.4076 18.4088 13.2764 19.0998 13.4932C20.4139 13.9072 20.8941 15.3321 20.5024 16.585C20.2847 17.2284 19.9221 17.8135 19.4449 18.2966C18.7664 18.9644 18.0171 19.5553 17.2093 20.0588L17.1219 20.1132L17.0305 20.0598Z" stroke="black" stroke-width="1.5" stroke-linecap="round" stroke-linejoin="round"/>
<path d="M21 10.9433L20.9806 8.02353C20.965 5.58389 19.4351 3.87031 16.9935 3.88684L6.93271 3.95196C4.49891 3.96751 2.98361 5.70053 3.00013 8.14017L3.0429 14.7204C3.05845 17.16 4.58833 18.8726 7.02991 18.8571L10.0556 18.8376" stroke="black" stroke-width="1.5" stroke-linecap="round" stroke-linejoin="round"/>
<path d="M3.00781 9.27086L20.9892 9.15423" stroke="black" stroke-width="1.5" stroke-linecap="round" stroke-linejoin="round"/>
</svg>