<svg width="25" height="24" viewBox="0 0 25 24" fill="none" xmlns="http://www.w3.org/2000/svg">
<path d="M11.3724 19.3346H7.21486C4.77076 19.3346 3.25 17.6105 3.25 15.1683V8.58033C3.25 6.13914 4.77757 4.41406 7.21486 4.41406H8.90091" stroke="black" stroke-width="1.5" stroke-linecap="round" stroke-linejoin="round"/>
<path d="M21.25 11.5041V8.58033C21.25 6.13914 19.7292 4.41406 17.2851 4.41406H12.25" stroke="black" stroke-width="1.5" stroke-linecap="round" stroke-linejoin="round"/>
<path d="M3.25 9.71191H21.25" stroke="black" stroke-width="1.5" stroke-linecap="round" stroke-linejoin="round"/>
<path d="M15.0842 13.8667C16.2255 12.7254 18.0751 12.7254 19.2164 13.8667C20.3577 15.008 20.3577 16.8576 19.2164 17.9989C18.0751 19.1402 16.2255 19.1402 15.0842 17.9989C14.6529 17.5677 14.3846 17.0353 14.2793 16.4782" stroke="black" stroke-width="1.5" stroke-linecap="round" stroke-linejoin="round"/>
<path d="M20.7997 19.585L19.2167 18.002" stroke="black" stroke-width="1.5" stroke-linecap="round" stroke-linejoin="round"/>
</svg>