<svg width="24" height="24" viewBox="0 0 24 24" fill="none" xmlns="http://www.w3.org/2000/svg">
<path fill-rule="evenodd" clip-rule="evenodd" d="M21.4981 7.99813C21.4981 5.20513 19.7041 3.32812 17.0341 3.32812H6.96312C4.29312 3.32812 2.50012 5.20513 2.50012 7.99813V8.07812C2.50012 8.24381 2.63444 8.37813 2.80012 8.37813H21.1981C21.3638 8.37813 21.4981 8.24381 21.4981 8.07812V7.99813Z" fill="black"/>
<path fill-rule="evenodd" clip-rule="evenodd" d="M2.8 9.87598C2.63431 9.87598 2.5 10.0103 2.5 10.176V14.576C2.5 17.376 4.29 19.246 6.96 19.246H9.32186C9.49204 19.246 9.63 19.108 9.63 18.9378C9.63 18.7783 9.50759 18.6471 9.35136 18.6146C8.88743 18.5182 8.43853 18.2862 8.08 17.936C7.11 16.956 7.1 15.376 8.08 14.396L10.2 12.276L10.36 12.106C10.42 12.046 10.48 11.996 10.54 11.936C10.67 11.836 10.81 11.746 10.95 11.666C11.31 11.476 11.72 11.376 12.13 11.376C12.55 11.376 12.95 11.476 13.31 11.666L13.72 11.936C13.79 11.986 13.85 12.046 13.9 12.106L14.06 12.276L16.19 14.396C17.16 15.376 17.16 16.956 16.18 17.926C15.8227 18.2833 15.3757 18.5094 14.9134 18.6043C14.7545 18.637 14.63 18.7703 14.63 18.9326C14.63 19.1057 14.7703 19.246 14.9434 19.246H17.03C19.7 19.246 21.5 17.376 21.5 14.576V10.176C21.5 10.0103 21.3657 9.87598 21.2 9.87598H2.8Z" fill="black"/>
<path fill-rule="evenodd" clip-rule="evenodd" d="M14.9476 15.6318L12.6866 13.3658C12.5486 13.2118 12.3546 13.1108 12.1326 13.1108C11.9136 13.1108 11.7216 13.2088 11.5836 13.3578L9.31762 15.6318C9.02562 15.9248 9.02662 16.3998 9.31962 16.6928C9.61262 16.9838 10.0876 16.9858 10.3806 16.6908L11.3826 15.6848V19.9208C11.3826 20.3348 11.7186 20.6708 12.1326 20.6708C12.5466 20.6708 12.8826 20.3348 12.8826 19.9208V15.6858L13.8856 16.6908C14.0326 16.8378 14.2246 16.9108 14.4166 16.9108C14.6086 16.9108 14.8006 16.8378 14.9466 16.6928C15.2396 16.3998 15.2396 15.9248 14.9476 15.6318Z" fill="black"/>
</svg>