<svg width="25" height="24" viewBox="0 0 25 24" fill="none" xmlns="http://www.w3.org/2000/svg">
<path fill-rule="evenodd" clip-rule="evenodd" d="M18.9375 7.58594H9.88617C7.69711 7.58594 6.32422 9.13611 6.32422 11.3306V17.2513C6.32422 19.4458 7.68954 20.9959 9.88617 20.9959H18.9364C21.1341 20.9959 22.5005 19.4458 22.5005 17.2513V11.3306C22.5005 9.13611 21.1341 7.58594 18.9375 7.58594Z" stroke="black" stroke-width="1.5" stroke-linecap="round" stroke-linejoin="round"/>
<path d="M9.87207 12.0483H18.9472" stroke="black" stroke-width="1.5" stroke-linecap="round" stroke-linejoin="round"/>
<path opacity="0.4" d="M18.5852 7.58365L16.9994 4.94056C15.8632 3.06933 13.8979 2.43801 12.0116 3.57524L4.26284 8.23874C2.38403 9.36733 2.00568 11.4029 3.13426 13.2893L6.19569 18.3549C6.33839 18.6003 6.49622 18.8208 6.67675 19.0186V19.0262" stroke="black" stroke-width="1.5" stroke-linecap="round" stroke-linejoin="round"/>
</svg>