<svg width="24" height="24" viewBox="0 0 24 24" fill="none" xmlns="http://www.w3.org/2000/svg">
<path fill-rule="evenodd" clip-rule="evenodd" d="M18.4375 7.58594H9.38617C7.19711 7.58594 5.82422 9.13611 5.82422 11.3306V17.2513C5.82422 19.4458 7.18954 20.9959 9.38617 20.9959H18.4364C20.6341 20.9959 22.0005 19.4458 22.0005 17.2513V11.3306C22.0005 9.13611 20.6341 7.58594 18.4375 7.58594Z" stroke="black" stroke-width="1.5" stroke-linecap="round" stroke-linejoin="round"/>
<path d="M9.37207 12.0483H18.4472" stroke="black" stroke-width="1.5" stroke-linecap="round" stroke-linejoin="round"/>
<path d="M18.0852 7.58365L16.4994 4.94056C15.3632 3.06933 13.3979 2.43801 11.5116 3.57524L3.76284 8.23874C1.88403 9.36733 1.50568 11.4029 2.63426 13.2893L5.69569 18.3549C5.83839 18.6003 5.99622 18.8208 6.17675 19.0186V19.0262" stroke="black" stroke-width="1.5" stroke-linecap="round" stroke-linejoin="round"/>
</svg>