<svg width="25" height="24" viewBox="0 0 25 24" fill="none" xmlns="http://www.w3.org/2000/svg">
<path fill-rule="evenodd" clip-rule="evenodd" d="M17.9667 13.443L18.8044 15.1281C18.8463 15.2138 18.928 15.2721 19.0214 15.2867L20.8973 15.5572C20.9732 15.5679 21.0423 15.6078 21.088 15.6681C21.1756 15.782 21.1629 15.9435 21.0579 16.0418L19.6976 17.3563C19.6295 17.4205 19.5984 17.5168 19.6159 17.6092L19.9419 19.4647C19.9642 19.6184 19.8601 19.7624 19.7064 19.7867C19.6422 19.7965 19.577 19.7867 19.5196 19.7585L17.849 18.8828C17.7653 18.8371 17.6641 18.8371 17.5804 18.8828L15.8972 19.7634C15.7571 19.8344 15.5849 19.7819 15.508 19.6437C15.4788 19.5883 15.4681 19.525 15.4788 19.4627L15.8038 17.6083C15.8203 17.5148 15.7902 17.4205 15.7221 17.3543L14.356 16.0408C14.2441 15.9289 14.2441 15.7489 14.355 15.638C14.4008 15.5961 14.4582 15.5689 14.5195 15.5582L16.3954 15.2858C16.4888 15.2712 16.5695 15.2118 16.6123 15.1272L17.4491 13.443C17.4831 13.3748 17.5425 13.3223 17.6155 13.298C17.6875 13.2737 17.7673 13.2795 17.8354 13.3145C17.8918 13.3418 17.9375 13.3875 17.9667 13.443Z" stroke="black" stroke-width="1.5" stroke-linecap="round" stroke-linejoin="round"/>
<path d="M11.3734 19.1276H7.21486C4.77076 19.1276 3.25 17.4035 3.25 14.9613V8.3733C3.25 5.93211 4.77757 4.20703 7.21486 4.20703H8.33962" stroke="black" stroke-width="1.5" stroke-linecap="round" stroke-linejoin="round"/>
<path d="M21.25 11.2971V8.3733C21.25 5.93211 19.7292 4.20703 17.2851 4.20703H12.25" stroke="black" stroke-width="1.5" stroke-linecap="round" stroke-linejoin="round"/>
<path d="M3.25 9.50488H18.4095" stroke="black" stroke-width="1.5" stroke-linecap="round" stroke-linejoin="round"/>
</svg>