<svg width="24" height="24" viewBox="0 0 24 24" fill="none" xmlns="http://www.w3.org/2000/svg">
<path d="M21 10.6486V7.72486C21 5.28367 19.4792 3.55859 17.0351 3.55859H6.96486C4.52757 3.55859 3 5.28367 3 7.72486V14.3129C3 16.755 4.52076 18.4791 6.96486 18.4791H10.271" stroke="black" stroke-width="1.5" stroke-linecap="round" stroke-linejoin="round"/>
<path d="M3 8.85758H21" stroke="black" stroke-width="1.5" stroke-linecap="round" stroke-linejoin="round"/>
<path fill-rule="evenodd" clip-rule="evenodd" d="M20.8988 16.654C20.8988 18.7449 19.2039 20.4408 17.112 20.4408C15.0211 20.4408 13.3262 18.7449 13.3262 16.654C13.3262 14.5631 15.0211 12.8672 17.112 12.8672C19.2039 12.8672 20.8988 14.5631 20.8988 16.654Z" stroke="black" stroke-width="1.5" stroke-linecap="round" stroke-linejoin="round"/>
<path d="M18.2895 17.6411L17.0928 16.926V15.3867" stroke="black" stroke-width="1.5" stroke-linecap="round" stroke-linejoin="round"/>
</svg>