<svg width="24" height="24" viewBox="0 0 24 24" fill="none" xmlns="http://www.w3.org/2000/svg">
<path fill-rule="evenodd" clip-rule="evenodd" d="M21.2318 7.68953C21.2318 4.89653 19.4378 3.01953 16.7678 3.01953H6.69683C4.02683 3.01953 2.23383 4.89653 2.23383 7.68953V7.76953C2.23383 7.93522 2.36814 8.06953 2.53383 8.06953H20.9318C21.0975 8.06953 21.2318 7.93522 21.2318 7.76953V7.68953Z" fill="black"/>
<path fill-rule="evenodd" clip-rule="evenodd" d="M11.4524 14.9113L12.6824 12.7113C13.1224 11.9213 13.9624 11.4313 14.8624 11.4313H19.7824C20.1119 11.4313 20.4297 11.497 20.724 11.6187C20.9494 11.712 21.2324 11.5623 21.2324 11.3183V9.87129C21.2324 9.7056 21.0981 9.57129 20.9324 9.57129H2.53242C2.36674 9.57129 2.23242 9.7056 2.23242 9.87129V14.2713C2.23242 17.0613 4.02242 18.9413 6.69242 18.9413H12.1271C12.3871 18.9413 12.524 18.6331 12.3497 18.4402L11.7724 17.8013C11.0624 17.0113 10.9324 15.8413 11.4524 14.9113Z" fill="black"/>
<path fill-rule="evenodd" clip-rule="evenodd" d="M17.3263 19.1102L14.5503 16.0282L15.3043 14.6812H19.3473L20.1013 16.0282L17.3263 19.1102ZM21.6723 15.7642L20.4413 13.5652C20.3093 13.3282 20.0583 13.1812 19.7873 13.1812H14.8643C14.5933 13.1812 14.3423 13.3282 14.2103 13.5652L12.9793 15.7642C12.8223 16.0452 12.8613 16.3932 13.0763 16.6322L16.7693 20.7332C16.9113 20.8912 17.1143 20.9812 17.3263 20.9812C17.5383 20.9812 17.7413 20.8912 17.8843 20.7332L21.5763 16.6322C21.7903 16.3932 21.8293 16.0452 21.6723 15.7642Z" fill="black"/>
</svg>