<svg width="24" height="24" viewBox="0 0 24 24" fill="none" xmlns="http://www.w3.org/2000/svg">
<path fill-rule="evenodd" clip-rule="evenodd" d="M17.7162 13.441L18.554 15.1262C18.5958 15.2118 18.6775 15.2702 18.7709 15.2848L20.6468 15.5553C20.7227 15.566 20.7918 15.6059 20.8375 15.6662C20.9251 15.78 20.9124 15.9415 20.8074 16.0398L19.4471 17.3543C19.379 17.4185 19.3479 17.5148 19.3654 17.6073L19.6914 19.4627C19.7137 19.6165 19.6096 19.7605 19.4559 19.7848C19.3917 19.7945 19.3265 19.7848 19.2691 19.7566L17.5985 18.8809C17.5148 18.8352 17.4136 18.8352 17.33 18.8809L15.6467 19.7614C15.5066 19.8325 15.3344 19.7799 15.2575 19.6418C15.2283 19.5863 15.2176 19.5231 15.2283 19.4608L15.5533 17.6063C15.5698 17.5129 15.5397 17.4185 15.4716 17.3524L14.1055 16.0388C13.9936 15.9269 13.9936 15.7469 14.1046 15.636C14.1055 15.636 14.1055 15.636 14.1055 15.636C14.1513 15.5942 14.2077 15.5669 14.269 15.5562L16.1449 15.2838C16.2383 15.2692 16.319 15.2099 16.3618 15.1252L17.1986 13.441C17.2327 13.3729 17.292 13.3204 17.365 13.296C17.437 13.2717 17.5168 13.2775 17.5849 13.3126C17.6413 13.3398 17.687 13.3855 17.7162 13.441Z" stroke="black" stroke-width="1.5" stroke-linecap="round" stroke-linejoin="round"/>
<path d="M21 11.2971V8.3733C21 5.93211 19.4792 4.20703 17.0351 4.20703H6.96486C4.52757 4.20703 3 5.93211 3 8.3733V14.9613C3 17.4035 4.52076 19.1276 6.96486 19.1276H11.1234" stroke="black" stroke-width="1.5" stroke-linecap="round" stroke-linejoin="round"/>
<path d="M3 9.50602H21" stroke="black" stroke-width="1.5" stroke-linecap="round" stroke-linejoin="round"/>
</svg>