<svg width="25" height="24" viewBox="0 0 25 24" fill="none" xmlns="http://www.w3.org/2000/svg">
<path d="M19.6944 18.2956C20.1716 17.8126 20.5342 17.2274 20.7519 16.584C21.1436 15.3311 20.6634 13.9062 19.3493 13.4922C18.6583 13.2754 17.905 13.4066 17.3286 13.845C16.7464 13.4134 15.9902 13.291 15.3011 13.5184C13.9918 13.95 13.5331 15.3807 13.9423 16.6277C14.1687 17.2683 14.5381 17.8485 15.0221 18.3238C15.7093 18.9838 16.4665 19.565 17.28 20.0588L17.3714 20.1122" stroke="black" stroke-width="1.5" stroke-linecap="round" stroke-linejoin="round"/>
<path d="M10.3056 18.8378L7.27991 18.8573C4.83833 18.8728 3.30845 17.1602 3.2929 14.7206L3.25013 8.14036C3.23361 5.70072 4.74891 3.9677 7.18271 3.95215H8.49838" stroke="black" stroke-width="1.5" stroke-linecap="round" stroke-linejoin="round"/>
<path d="M21.2498 10.9433L21.2303 8.02353C21.2148 5.58389 19.6849 3.87031 17.2433 3.88684L12.2129 3.9194" stroke="black" stroke-width="1.5" stroke-linecap="round" stroke-linejoin="round"/>
<path d="M3.25757 9.27191L21.239 9.15527" stroke="black" stroke-width="1.5" stroke-linecap="round" stroke-linejoin="round"/>
</svg>