<svg width="25" height="24" viewBox="0 0 25 24" fill="none" xmlns="http://www.w3.org/2000/svg">
<path fill-rule="evenodd" clip-rule="evenodd" d="M14.1382 13.4573C14.271 13.2207 14.5211 13.0742 14.7923 13.0742H19.7156C19.9869 13.0742 20.237 13.2207 20.3697 13.4573L21.6005 15.6513C21.7578 15.9317 21.7189 16.281 21.5039 16.52L17.8115 20.623C17.6692 20.781 17.4666 20.8713 17.254 20.8713C17.0413 20.8713 16.8387 20.781 16.6965 20.623L13.004 16.52C12.789 16.281 12.7502 15.9317 12.9074 15.6513L14.1382 13.4573ZM15.2316 14.5742L14.4787 15.9163L17.254 19.0001L20.0292 15.9163L19.2764 14.5742H15.2316Z" fill="black"/>
<path fill-rule="evenodd" clip-rule="evenodd" d="M3.76987 4.53907C4.61282 3.6349 5.8105 3.13281 7.21486 3.13281H17.2851C18.6924 3.13281 19.8905 3.63461 20.733 4.53941C21.5699 5.43816 22 6.67362 22 8.04908V10.9729C22 11.3871 21.6642 11.7229 21.25 11.7229C20.8358 11.7229 20.5 11.3871 20.5 10.9729V8.04908C20.5 6.98335 20.1698 6.13568 19.6352 5.56159C19.1063 4.99356 18.3219 4.63281 17.2851 4.63281H7.21486C6.18193 4.63281 5.39718 4.99327 4.86702 5.56193C4.33142 6.13644 4 6.98423 4 8.04908V14.6371C4 15.7034 4.33027 16.551 4.86474 17.1249C5.3936 17.6928 6.17794 18.0534 7.21486 18.0534H10.7721C11.1863 18.0534 11.5221 18.3891 11.5221 18.8034C11.5221 19.2176 11.1863 19.5534 10.7721 19.5534H7.21486C5.80768 19.5534 4.60959 19.0519 3.76704 18.1472C2.93011 17.2485 2.5 16.013 2.5 14.6371V8.04908C2.5 6.67274 2.93237 5.4374 3.76987 4.53907Z" fill="black"/>
<path fill-rule="evenodd" clip-rule="evenodd" d="M2.5 9.17969C2.5 8.76547 2.83579 8.42969 3.25 8.42969H21.25C21.6642 8.42969 22 8.76547 22 9.17969C22 9.5939 21.6642 9.92969 21.25 9.92969H3.25C2.83579 9.92969 2.5 9.5939 2.5 9.17969Z" fill="black"/>
</svg>