<svg width="25" height="24" viewBox="0 0 25 24" fill="none" xmlns="http://www.w3.org/2000/svg">
<path opacity="0.4" fill-rule="evenodd" clip-rule="evenodd" d="M3.3 9.875C3.13431 9.875 3 10.0093 3 10.175V14.575C3 17.375 4.79 19.245 7.46 19.245H9.82186C9.99204 19.245 10.13 19.107 10.13 18.9369C10.13 18.7773 10.0076 18.6461 9.85136 18.6136C9.38743 18.5172 8.93853 18.2852 8.58 17.935C7.61 16.955 7.6 15.375 8.58 14.395L10.7 12.275L10.86 12.105C10.92 12.045 10.98 11.995 11.04 11.935C11.17 11.835 11.31 11.745 11.45 11.665C11.81 11.475 12.22 11.375 12.63 11.375C13.05 11.375 13.45 11.475 13.81 11.665L14.22 11.935C14.29 11.985 14.35 12.045 14.4 12.105L14.56 12.275L16.69 14.395C17.66 15.375 17.66 16.955 16.68 17.925C16.3227 18.2823 15.8757 18.5084 15.4134 18.6033C15.2545 18.636 15.13 18.7694 15.13 18.9316C15.13 19.1047 15.2703 19.245 15.4434 19.245H17.53C20.2 19.245 22 17.375 22 14.575V10.175C22 10.0093 21.8657 9.875 21.7 9.875H3.3Z" fill="black"/>
<path fill-rule="evenodd" clip-rule="evenodd" d="M21.998 7.99813C21.998 5.20513 20.204 3.32812 17.534 3.32812H7.463C4.793 3.32812 3 5.20513 3 7.99813V8.07812C3 8.24381 3.13431 8.37813 3.3 8.37813H21.698C21.8637 8.37813 21.998 8.24381 21.998 8.07812V7.99813Z" fill="black"/>
<path fill-rule="evenodd" clip-rule="evenodd" d="M15.4475 15.6318L13.1865 13.3658C13.0485 13.2118 12.8545 13.1108 12.6325 13.1108C12.4135 13.1108 12.2215 13.2088 12.0835 13.3578L9.8175 15.6318C9.5255 15.9248 9.5265 16.3998 9.8195 16.6928C10.1125 16.9838 10.5875 16.9858 10.8805 16.6908L11.8825 15.6848V19.9208C11.8825 20.3348 12.2185 20.6708 12.6325 20.6708C13.0465 20.6708 13.3825 20.3348 13.3825 19.9208V15.6858L14.3855 16.6908C14.5325 16.8378 14.7245 16.9108 14.9165 16.9108C15.1085 16.9108 15.3005 16.8378 15.4465 16.6928C15.7395 16.3998 15.7395 15.9248 15.4475 15.6318Z" fill="black"/>
</svg>