<svg width="25" height="24" viewBox="0 0 25 24" fill="none" xmlns="http://www.w3.org/2000/svg">
<path opacity="0.4" fill-rule="evenodd" clip-rule="evenodd" d="M20.9933 11.9163C21.2068 12.052 21.5056 11.9071 21.5056 11.6542V9.95625C21.5056 9.79056 21.3713 9.65625 21.2056 9.65625H2.80561C2.63993 9.65625 2.50562 9.79056 2.50562 9.95625V14.3562C2.50562 17.1462 4.29562 19.0262 6.96562 19.0262H12.8017C13.0268 19.0262 13.1732 18.7866 13.0876 18.5785C12.82 17.9284 12.6756 17.2254 12.6756 16.4963C12.6756 15.0463 13.2356 13.6863 14.2656 12.6663C16.0916 10.8403 18.9041 10.5877 20.9933 11.9163Z" fill="black"/>
<path fill-rule="evenodd" clip-rule="evenodd" d="M21.5043 7.77938C21.5043 4.98638 19.7103 3.10938 17.0403 3.10938H6.96935C4.29935 3.10938 2.50635 4.98638 2.50635 7.77938V7.85938C2.50635 8.02506 2.64066 8.15938 2.80635 8.15938H21.2043C21.37 8.15938 21.5043 8.02506 21.5043 7.85938V7.77938Z" fill="black"/>
<path fill-rule="evenodd" clip-rule="evenodd" d="M16.5586 18.0332C16.1486 17.6232 15.9226 17.0782 15.9226 16.4982C15.9226 15.9192 16.1486 15.3742 16.5586 14.9642C16.9816 14.5412 17.5386 14.3292 18.0946 14.3292C18.6506 14.3292 19.2066 14.5412 19.6306 14.9652C20.0406 15.3742 20.2666 15.9182 20.2666 16.4982C20.2666 17.0772 20.0406 17.6232 19.6306 18.0332C18.7856 18.8792 17.4056 18.8792 16.5586 18.0332ZM22.2736 19.6122L21.1656 18.5062C21.5556 17.9142 21.7666 17.2222 21.7666 16.4972C21.7666 15.5162 21.3846 14.5952 20.6906 13.9032C19.2606 12.4722 16.9316 12.4712 15.4986 13.9032C14.8046 14.5952 14.4226 15.5172 14.4226 16.4982C14.4226 17.4782 14.8046 18.4002 15.4986 19.0952C16.2146 19.8082 17.1546 20.1662 18.0946 20.1662C18.7966 20.1662 19.4976 19.9662 20.1056 19.5682L21.2146 20.6752C21.3606 20.8202 21.5526 20.8932 21.7446 20.8932C21.9366 20.8932 22.1286 20.8202 22.2746 20.6742C22.5676 20.3802 22.5676 19.9052 22.2736 19.6122Z" fill="black"/>
</svg>