<svg width="25" height="24" viewBox="0 0 25 24" fill="none" xmlns="http://www.w3.org/2000/svg">
<path opacity="0.4" fill-rule="evenodd" clip-rule="evenodd" d="M19.1755 7.34766H10.1235C7.69452 7.34766 6.06152 9.05566 6.06152 11.5977V17.5177C6.06152 20.0537 7.69452 21.7577 10.1235 21.7577H19.1745C21.6045 21.7577 23.2385 20.0537 23.2385 17.5177V11.5977C23.2385 9.05566 21.6055 7.34766 19.1755 7.34766Z" fill="black"/>
<path fill-rule="evenodd" clip-rule="evenodd" d="M5.0621 11.6C5.0621 8.50896 7.1441 6.34996 10.1241 6.34996H17.822C18.0552 6.34996 18.1992 6.09544 18.0791 5.89549L17.1911 4.41696C15.8761 2.25196 13.5961 1.63296 11.5181 2.87896L3.7701 7.54896C1.6911 8.79996 1.1681 11.104 2.4721 13.287L4.5062 16.6114C4.66429 16.8698 5.0621 16.7577 5.0621 16.4548V11.6Z" fill="black"/>
<path d="M19.1856 13.0696H10.1106C9.69659 13.0696 9.36059 12.7336 9.36059 12.3196C9.36059 11.9056 9.69659 11.5696 10.1106 11.5696H19.1856C19.5996 11.5696 19.9356 11.9056 19.9356 12.3196C19.9356 12.7336 19.5996 13.0696 19.1856 13.0696Z" fill="black"/>
</svg>