<svg width="25" height="24" viewBox="0 0 25 24" fill="none" xmlns="http://www.w3.org/2000/svg">
<path d="M16.1668 20.9985C16.0166 20.999 15.8681 20.9668 15.7317 20.9042C15.5952 20.8415 15.474 20.7499 15.3765 20.6358C15.279 20.5216 15.2075 20.3876 15.167 20.243C15.1264 20.0984 15.1178 19.9468 15.1417 19.7985L15.4267 18.1735L14.2417 17.0365C14.1421 16.9397 14.063 16.8239 14.0091 16.6959C13.9551 16.5679 13.9275 16.4304 13.9278 16.2915C13.9269 16.1561 13.953 16.0218 14.0045 15.8964C14.056 15.7711 14.1319 15.6573 14.2277 15.5615C14.3824 15.4127 14.5775 15.3128 14.7887 15.2745L16.4477 15.0335L17.1787 13.5635C17.2397 13.4407 17.3244 13.3311 17.428 13.2413C17.5316 13.1515 17.6521 13.0831 17.7823 13.0402C17.9126 12.9973 18.0501 12.9807 18.1868 12.9914C18.3235 13.0021 18.4568 13.0399 18.5788 13.1025C18.7743 13.2002 18.9334 13.3579 19.0327 13.5525L19.0387 13.5635L19.7697 15.0345L21.4117 15.2665C21.6818 15.3063 21.9258 15.4498 22.0917 15.6665C22.2478 15.8695 22.3224 16.1234 22.3009 16.3785C22.2794 16.6336 22.1635 16.8715 21.9757 17.0455L20.8048 18.1775L21.0877 19.7895C21.131 20.0602 21.0659 20.337 20.9067 20.56C20.7474 20.7831 20.5068 20.9345 20.2367 20.9815C20.0179 21.0161 19.7937 20.9811 19.5958 20.8815L18.1218 20.1085L16.6538 20.8775C16.5031 20.9552 16.3363 20.9967 16.1668 20.9985ZM15.9717 16.6155L16.6467 17.2645C16.77 17.3835 16.8619 17.5312 16.9143 17.6943C16.9666 17.8575 16.9778 18.031 16.9468 18.1995L16.7847 19.1165L17.6388 18.6695C17.7894 18.5887 17.958 18.5472 18.1289 18.5488C18.2998 18.5503 18.4676 18.595 18.6167 18.6785L19.4457 19.1125L19.2827 18.1905C19.2514 18.0233 19.2624 17.8508 19.3148 17.6889C19.3672 17.5269 19.4593 17.3807 19.5828 17.2635L20.2528 16.6155L19.3178 16.4805C19.1504 16.4554 18.9915 16.3903 18.8547 16.2908C18.7179 16.1912 18.6071 16.0601 18.5317 15.9085L18.1117 15.0665L17.6887 15.9195C17.6138 16.0678 17.505 16.1963 17.371 16.2945C17.237 16.3927 17.0817 16.4578 16.9177 16.4845L15.9717 16.6155Z" fill="black"/>
<path d="M11.7787 20.3342H7.6197C6.97678 20.3578 6.33617 20.2451 5.73989 20.0036C5.14361 19.762 4.60516 19.3971 4.15989 18.9328C3.71461 18.4684 3.37258 17.9151 3.15626 17.3092C2.93993 16.7034 2.8542 16.0586 2.9047 15.4172V8.82922C2.86195 8.18964 2.95305 7.54818 3.17219 6.9458C3.39132 6.34342 3.73367 5.79336 4.17737 5.33074C4.62107 4.86812 5.15638 4.50313 5.74909 4.25905C6.3418 4.01498 6.97889 3.89719 7.6197 3.91322H17.6907C18.3335 3.88966 18.974 4.00232 19.5701 4.2438C20.1663 4.48528 20.7046 4.85013 21.1498 5.31439C21.595 5.77864 21.9369 6.33181 22.1532 6.93757C22.3695 7.54334 22.4552 8.18799 22.4047 8.82922V11.7532C22.4047 11.9521 22.3257 12.1429 22.185 12.2835C22.0444 12.4242 21.8536 12.5032 21.6547 12.5032C21.4558 12.5032 21.265 12.4242 21.1244 12.2835C20.9837 12.1429 20.9047 11.9521 20.9047 11.7532V8.82922C20.9488 8.38694 20.8975 7.94036 20.7544 7.51956C20.6113 7.09876 20.3796 6.71353 20.0751 6.38982C19.7705 6.06611 19.4001 5.81144 18.9888 5.64297C18.5775 5.47451 18.1348 5.39617 17.6907 5.41322H7.6197C7.17552 5.39618 6.73286 5.47453 6.32151 5.64299C5.91016 5.81144 5.53968 6.06609 5.23504 6.38978C4.93039 6.71347 4.69866 7.09869 4.55543 7.51949C4.41219 7.94028 4.36079 8.38689 4.4047 8.82922V15.4172C4.35532 15.8607 4.4029 16.3096 4.54412 16.7329C4.68534 17.1561 4.91684 17.5437 5.2226 17.8686C5.52837 18.1936 5.90108 18.4483 6.31498 18.615C6.72887 18.7817 7.17404 18.8565 7.6197 18.8342H11.7787C11.9776 18.8342 12.1684 18.9132 12.309 19.0539C12.4497 19.1945 12.5287 19.3853 12.5287 19.5842C12.5287 19.7831 12.4497 19.9739 12.309 20.1145C12.1684 20.2552 11.9776 20.3342 11.7787 20.3342Z" fill="black"/>
<path d="M21.6543 10.7109H3.6543C3.45538 10.7109 3.26463 10.6319 3.12398 10.4913C2.98333 10.3506 2.9043 10.1598 2.9043 9.96094C2.9043 9.76203 2.98333 9.57126 3.12398 9.43061C3.26463 9.28995 3.45538 9.21094 3.6543 9.21094H21.6543C21.8532 9.21094 22.044 9.28995 22.1846 9.43061C22.3253 9.57126 22.4043 9.76203 22.4043 9.96094C22.4043 10.1598 22.3253 10.3506 22.1846 10.4913C22.044 10.6319 21.8532 10.7109 21.6543 10.7109Z" fill="black"/>
</svg>