<svg width="25" height="25" viewBox="0 0 25 25" fill="none" xmlns="http://www.w3.org/2000/svg">
<path fill-rule="evenodd" clip-rule="evenodd" d="M13.8978 4.36672C13.0839 3.70328 11.9163 3.70328 11.1025 4.36672L5.52833 8.90658C5.52827 8.90662 5.52838 8.90653 5.52833 8.90658C5.01213 9.32762 4.71265 9.95791 4.71265 10.6235V17.7974C4.71265 19.2174 5.86373 20.3691 7.28442 20.3691H17.7158C19.1365 20.3691 20.2876 19.2174 20.2876 17.7974V10.6235C20.2876 9.95791 19.9883 9.32775 19.4721 8.90671C19.472 8.90667 19.4721 8.90676 19.4721 8.90671L13.8978 4.36672ZM14.8453 3.20386C13.4797 2.0909 11.5205 2.0909 10.1549 3.20386C10.1549 3.20393 10.155 3.20379 10.1549 3.20386L4.58071 7.74382C3.71537 8.44949 3.21265 9.50673 3.21265 10.6235V17.7974C3.21265 20.0455 5.03501 21.8691 7.28442 21.8691H17.7158C19.9652 21.8691 21.7876 20.0455 21.7876 17.7974V10.6235C21.7876 9.50673 21.2852 8.44979 20.4199 7.74411L14.8453 3.20386C14.8454 3.20393 14.8452 3.20379 14.8453 3.20386Z" fill="black"/>
<path fill-rule="evenodd" clip-rule="evenodd" d="M16.0639 10.6309C16.4781 10.6309 16.8139 10.9666 16.8139 11.3809V17.3676C16.8139 17.7819 16.4781 18.1176 16.0639 18.1176C15.6497 18.1176 15.3139 17.7819 15.3139 17.3676V11.3809C15.3139 10.9666 15.6497 10.6309 16.0639 10.6309ZM8.93945 11.6856C9.35367 11.6856 9.68945 12.0213 9.68945 12.4356V17.3686C9.68945 17.7828 9.35367 18.1186 8.93945 18.1186C8.52524 18.1186 8.18945 17.7828 8.18945 17.3686V12.4356C8.18945 12.0213 8.52524 11.6856 8.93945 11.6856ZM12.5311 14.5998C12.9454 14.5998 13.2811 14.9356 13.2811 15.3498V17.3677C13.2811 17.782 12.9454 18.1177 12.5311 18.1177C12.1169 18.1177 11.7811 17.782 11.7811 17.3677V15.3498C11.7811 14.9356 12.1169 14.5998 12.5311 14.5998Z" fill="black"/>
</svg>