<svg width="25" height="25" viewBox="0 0 25 25" fill="none" xmlns="http://www.w3.org/2000/svg">
<path fill-rule="evenodd" clip-rule="evenodd" d="M12.5007 20.1185V15.1182L4.49951 15.1182L4.49951 20.1185C4.49951 20.6712 4.94808 21.1188 5.49978 21.1188L11.5004 21.1188C12.0531 21.1188 12.5007 20.6712 12.5007 20.1185Z" stroke="black" stroke-width="1.5" stroke-linecap="round" stroke-linejoin="round"/>
<path fill-rule="evenodd" clip-rule="evenodd" d="M16.5008 14.1185V9.11816L4.50049 9.11816L4.50049 15.1188L15.5005 15.1188C16.0532 15.1188 16.5008 14.6712 16.5008 14.1185Z" stroke="black" stroke-width="1.5" stroke-linecap="round" stroke-linejoin="round"/>
<path fill-rule="evenodd" clip-rule="evenodd" d="M20.5009 8.11951V4.11941C20.5009 3.56673 20.0533 3.11914 19.5006 3.11914L5.49978 3.11914C4.94808 3.11914 4.49951 3.56673 4.49951 4.11941L4.49951 9.11978L19.5006 9.11978C20.0533 9.11978 20.5009 8.67219 20.5009 8.11951Z" stroke="black" stroke-width="1.5" stroke-linecap="round" stroke-linejoin="round"/>
</svg>