<svg width="25" height="25" viewBox="0 0 25 25" fill="none" xmlns="http://www.w3.org/2000/svg">
<g opacity="0.4">
<path fill-rule="evenodd" clip-rule="evenodd" d="M5.35747 20.4061C4.33199 20.4061 3.50012 19.5752 3.50012 18.5487V14.9897C3.50012 13.9633 4.33199 13.1324 5.35747 13.1324C6.38294 13.1324 7.21481 13.9633 7.21481 14.9897V18.5487C7.21481 19.5752 6.38294 20.4061 5.35747 20.4061Z" stroke="black" stroke-width="1.5" stroke-linecap="round" stroke-linejoin="round"/>
<path fill-rule="evenodd" clip-rule="evenodd" d="M19.6428 20.4065C18.6173 20.4065 17.7854 19.5757 17.7854 18.5492V5.68791C17.7854 4.66145 18.6173 3.82959 19.6428 3.82959C20.6683 3.82959 21.5001 4.66145 21.5001 5.68791V18.5492C21.5001 19.5757 20.6683 20.4065 19.6428 20.4065Z" stroke="black" stroke-width="1.5" stroke-linecap="round" stroke-linejoin="round"/>
</g>
<path fill-rule="evenodd" clip-rule="evenodd" d="M12.5 20.4044C11.4746 20.4044 10.6427 19.5735 10.6427 18.547V11.2616C10.6427 10.2352 11.4746 9.40332 12.5 9.40332C13.5255 9.40332 14.3574 10.2352 14.3574 11.2616V18.547C14.3574 19.5735 13.5255 20.4044 12.5 20.4044Z" stroke="black" stroke-width="1.5" stroke-linecap="round" stroke-linejoin="round"/>
</svg>