<svg width="25" height="25" viewBox="0 0 25 25" fill="none" xmlns="http://www.w3.org/2000/svg">
<path fill-rule="evenodd" clip-rule="evenodd" d="M19.1429 21.1178C20.0974 21.1178 20.8699 20.3453 20.8699 19.3908V16.0808C20.8699 15.1264 20.0974 14.3529 19.1429 14.3529C18.1894 14.3529 17.4159 15.1264 17.4159 16.0808V19.3908C17.4159 20.3453 18.1894 21.1178 19.1429 21.1178Z" stroke="black" stroke-width="1.5" stroke-linecap="round" stroke-linejoin="round"/>
<path fill-rule="evenodd" clip-rule="evenodd" d="M12.5004 21.1182C13.4548 21.1182 14.2274 20.3457 14.2274 19.3912V13.5905C14.2274 12.637 13.4548 11.8635 12.5004 11.8635C11.5469 11.8635 10.7734 12.637 10.7734 13.5905V19.3912C10.7734 20.3457 11.5469 21.1182 12.5004 21.1182Z" stroke="black" stroke-width="1.5" stroke-linecap="round" stroke-linejoin="round"/>
<path fill-rule="evenodd" clip-rule="evenodd" d="M5.85688 21.1181C6.81136 21.1181 7.58388 20.3456 7.58388 19.3911V9.38032C7.58388 8.42682 6.81136 7.65332 5.85688 7.65332C4.90338 7.65332 4.12988 8.42682 4.12988 9.38032V19.3911C4.12988 20.3456 4.90338 21.1181 5.85688 21.1181Z" stroke="black" stroke-width="1.5" stroke-linecap="round" stroke-linejoin="round"/>
<path d="M20.8702 10.6878L15.0529 6.53033L12.8706 8.82943L5.87695 3.11816" stroke="black" stroke-width="1.5" stroke-linecap="round" stroke-linejoin="round"/>
</svg>