<svg width="25" height="25" viewBox="0 0 25 25" fill="none" xmlns="http://www.w3.org/2000/svg">
<path fill-rule="evenodd" clip-rule="evenodd" d="M4.50027 12.8672C4.3618 12.8672 4.25 12.979 4.25 13.1175V19.1181C4.25 19.2561 4.36228 19.3684 4.50027 19.3684H8.75064V12.8672H4.50027ZM2.75 13.1175C2.75 12.1506 3.53338 11.3672 4.50027 11.3672H9.50064C9.91485 11.3672 10.2506 11.703 10.2506 12.1172V20.1184C10.2506 20.5326 9.91485 20.8684 9.50064 20.8684H4.50027C3.5329 20.8684 2.75 20.0835 2.75 19.1181V13.1175Z" fill="black"/>
<path fill-rule="evenodd" clip-rule="evenodd" d="M10.5003 8.86816C10.3618 8.86816 10.25 8.97997 10.25 9.11843V19.3685H14.7506V8.86816H10.5003ZM8.75 9.11843C8.75 8.15154 9.53338 7.36816 10.5003 7.36816H15.5006C15.9149 7.36816 16.2506 7.70395 16.2506 8.11816V20.1185C16.2506 20.5327 15.9149 20.8685 15.5006 20.8685H9.5C9.08579 20.8685 8.75 20.5327 8.75 20.1185V9.11843Z" fill="black"/>
<path fill-rule="evenodd" clip-rule="evenodd" d="M16.4993 4.86816C16.3608 4.86816 16.249 4.97997 16.249 5.11843V19.3695H20.4994C20.6374 19.3695 20.7497 19.2572 20.7497 19.1193V5.11843C20.7497 4.97997 20.6379 4.86816 20.4994 4.86816H16.4993ZM14.749 5.11843C14.749 4.15154 15.5324 3.36816 16.4993 3.36816H20.4994C21.4663 3.36816 22.2497 4.15154 22.2497 5.11843V19.1193C22.2497 20.0847 21.4668 20.8695 20.4994 20.8695H15.499C15.0848 20.8695 14.749 20.5338 14.749 20.1195V5.11843Z" fill="black"/>
</svg>