<svg width="25" height="25" viewBox="0 0 25 25" fill="none" xmlns="http://www.w3.org/2000/svg">
<path fill-rule="evenodd" clip-rule="evenodd" d="M20.4997 12.8682C20.6382 12.8682 20.75 12.98 20.75 13.1184V19.1191C20.75 19.257 20.6377 19.3693 20.4997 19.3693H16.2494V12.8682H20.4997ZM22.25 13.1184C22.25 12.1515 21.4666 11.3682 20.4997 11.3682H15.4994C15.0851 11.3682 14.7494 11.704 14.7494 12.1182V20.1193C14.7494 20.5336 15.0851 20.8693 15.4994 20.8693H20.4997C21.4671 20.8693 22.25 20.0845 22.25 19.1191V13.1184Z" fill="black"/>
<path fill-rule="evenodd" clip-rule="evenodd" d="M14.4997 8.86816C14.6382 8.86816 14.75 8.97997 14.75 9.11843V19.3685H10.2494V8.86816H14.4997ZM16.25 9.11843C16.25 8.15154 15.4666 7.36816 14.4997 7.36816H9.49936C9.08515 7.36816 8.74936 7.70395 8.74936 8.11816V20.1185C8.74936 20.5327 9.08515 20.8685 9.49936 20.8685H15.5C15.9142 20.8685 16.25 20.5327 16.25 20.1185V9.11843Z" fill="black"/>
<path fill-rule="evenodd" clip-rule="evenodd" d="M8.50071 4.86816C8.63917 4.86816 8.75098 4.97997 8.75098 5.11843V19.3695H4.50061C4.36262 19.3695 4.25034 19.2572 4.25034 19.1193V5.11843C4.25034 4.97997 4.36214 4.86816 4.50061 4.86816H8.50071ZM10.251 5.11843C10.251 4.15154 9.4676 3.36816 8.50071 3.36816H4.50061C3.53372 3.36816 2.75034 4.15154 2.75034 5.11843V19.1193C2.75034 20.0847 3.53324 20.8695 4.50061 20.8695H9.50098C9.91519 20.8695 10.251 20.5338 10.251 20.1195V5.11843Z" fill="black"/>
</svg>