<svg width="25" height="25" viewBox="0 0 25 25" fill="none" xmlns="http://www.w3.org/2000/svg">
<path fill-rule="evenodd" clip-rule="evenodd" d="M4.21189 4.97551C4.21189 3.95003 5.04278 3.11816 6.06923 3.11816L9.62825 3.11816C10.6547 3.11816 11.4856 3.95003 11.4856 4.97551C11.4856 6.00099 10.6547 6.83285 9.62825 6.83285L6.06923 6.83285C5.04278 6.83285 4.21189 6.00099 4.21189 4.97551Z" stroke="black" stroke-width="1.5" stroke-linecap="round" stroke-linejoin="round"/>
<path fill-rule="evenodd" clip-rule="evenodd" d="M4.21143 19.2608C4.21143 18.2353 5.04232 17.4035 6.06877 17.4035L18.9301 17.4035C19.9565 17.4035 20.7884 18.2353 20.7884 19.2608C20.7884 20.2863 19.9565 21.1182 18.9301 21.1182H6.06877C5.04232 21.1182 4.21143 20.2863 4.21143 19.2608Z" stroke="black" stroke-width="1.5" stroke-linecap="round" stroke-linejoin="round"/>
<path fill-rule="evenodd" clip-rule="evenodd" d="M4.21387 12.1181C4.21387 11.0926 5.04476 10.2607 6.07121 10.2607L13.3566 10.2607C14.383 10.2607 15.2149 11.0926 15.2149 12.1181C15.2149 13.1436 14.383 13.9754 13.3566 13.9754L6.07121 13.9754C5.04476 13.9754 4.21387 13.1436 4.21387 12.1181Z" stroke="black" stroke-width="1.5" stroke-linecap="round" stroke-linejoin="round"/>
</svg>