<svg width="25" height="25" viewBox="0 0 25 25" fill="none" xmlns="http://www.w3.org/2000/svg">
<path fill-rule="evenodd" clip-rule="evenodd" d="M19.6427 4.57959C19.0316 4.57959 18.5353 5.07541 18.5353 5.68791V18.5492C18.5353 19.1612 19.0311 19.6565 19.6427 19.6565C20.2542 19.6565 20.75 19.1612 20.75 18.5492V5.68791C20.75 5.07541 20.2537 4.57959 19.6427 4.57959ZM17.0353 5.68791C17.0353 4.2475 18.2027 3.07959 19.6427 3.07959C21.0826 3.07959 22.25 4.2475 22.25 5.68791V18.5492C22.25 19.9901 21.0821 21.1565 19.6427 21.1565C18.2032 21.1565 17.0353 19.9901 17.0353 18.5492V5.68791ZM2.75 10.2134C2.75 8.77369 3.91765 7.60604 5.35734 7.60604C6.79704 7.60604 7.96469 8.77369 7.96469 10.2134V18.5486C7.96469 19.9895 6.79678 21.1559 5.35734 21.1559C3.91791 21.1559 2.75 19.9895 2.75 18.5486V10.2134ZM5.35734 9.10604C4.74608 9.10604 4.25 9.60212 4.25 10.2134V18.5486C4.25 19.1605 4.74582 19.6559 5.35734 19.6559C5.96886 19.6559 6.46469 19.1605 6.46469 18.5486V10.2134C6.46469 9.60212 5.96861 9.10604 5.35734 9.10604Z" fill="black"/>
<path fill-rule="evenodd" clip-rule="evenodd" d="M9.89258 14.9911C9.89258 13.5502 11.0605 12.3838 12.4999 12.3838C13.9394 12.3838 15.1073 13.5502 15.1073 14.9911V18.5501C15.1073 19.9911 13.9394 21.1575 12.4999 21.1575C11.0605 21.1575 9.89258 19.9911 9.89258 18.5501V14.9911ZM12.4999 13.8838C11.8884 13.8838 11.3926 14.3792 11.3926 14.9911V18.5501C11.3926 19.1621 11.8884 19.6575 12.4999 19.6575C13.1114 19.6575 13.6073 19.1621 13.6073 18.5501V14.9911C13.6073 14.3791 13.1114 13.8838 12.4999 13.8838Z" fill="black"/>
</svg>