<svg width="25" height="25" viewBox="0 0 25 25" fill="none" xmlns="http://www.w3.org/2000/svg">
<path fill-rule="evenodd" clip-rule="evenodd" d="M5.50076 3.86914C5.36279 3.86914 5.25049 3.98142 5.25049 4.11941L5.25049 8.36978L11.7517 8.36978V4.11941C11.7517 3.98095 11.6399 3.86914 11.5014 3.86914L5.50076 3.86914ZM3.75049 4.11941C3.75049 3.15204 4.53531 2.36914 5.50076 2.36914L11.5014 2.36914C12.4683 2.36914 13.2517 3.15252 13.2517 4.11941V9.11978C13.2517 9.31869 13.1726 9.50946 13.032 9.65011C12.8913 9.79076 12.7006 9.86978 12.5017 9.86978L4.50049 9.86978C4.08627 9.86978 3.75049 9.53399 3.75049 9.11978L3.75049 4.11941Z" fill="black"/>
<path fill-rule="evenodd" clip-rule="evenodd" d="M3.75024 9.11914C3.75024 8.70493 4.08603 8.36914 4.50024 8.36914L15.5003 8.36914C16.4672 8.36914 17.2505 9.15252 17.2505 10.1194V15.1198C17.2505 15.3187 17.1715 15.5095 17.0309 15.6501C16.8902 15.7908 16.6995 15.8698 16.5005 15.8698L4.50024 15.8698C4.30133 15.8698 4.11057 15.7908 3.96991 15.6501C3.82926 15.5095 3.75024 15.3187 3.75024 15.1198L3.75024 9.11914ZM5.25024 9.86914L5.25024 14.3698L15.7505 14.3698V10.1194C15.7505 9.98095 15.6387 9.86914 15.5003 9.86914L5.25024 9.86914Z" fill="black"/>
<path fill-rule="evenodd" clip-rule="evenodd" d="M3.96894 14.5878C4.10959 14.4472 4.30036 14.3682 4.49927 14.3682L19.5004 14.3682C20.4673 14.3682 21.2506 15.1515 21.2506 16.1184V20.1185C21.2506 21.0854 20.4673 21.8688 19.5004 21.8688L5.49954 21.8688C4.53409 21.8688 3.74927 21.0859 3.74927 20.1185L3.74927 15.1182C3.74927 14.9193 3.82829 14.7285 3.96894 14.5878ZM5.24927 15.8682L5.24927 20.1185C5.24927 20.2565 5.36157 20.3688 5.49954 20.3688L19.5004 20.3688C19.6388 20.3688 19.7506 20.257 19.7506 20.1185V16.1184C19.7506 15.98 19.6388 15.8682 19.5004 15.8682L5.24927 15.8682Z" fill="black"/>
</svg>