<svg width="25" height="25" viewBox="0 0 25 25" fill="none" xmlns="http://www.w3.org/2000/svg">
<path fill-rule="evenodd" clip-rule="evenodd" d="M5.50076 3.86914C5.36279 3.86914 5.25049 3.98142 5.25049 4.11941L5.25049 8.36978L11.7517 8.36978V4.11941C11.7517 3.98095 11.6399 3.86914 11.5014 3.86914L5.50076 3.86914ZM3.75049 4.11941C3.75049 3.15204 4.53531 2.36914 5.50076 2.36914L11.5014 2.36914C12.4683 2.36914 13.2517 3.15252 13.2517 4.11941V9.11978C13.2517 9.31869 13.1726 9.50946 13.032 9.65011C12.8913 9.79076 12.7006 9.86978 12.5017 9.86978L4.50049 9.86978C4.08627 9.86978 3.75049 9.53399 3.75049 9.11978L3.75049 4.11941Z" fill="black"/>
<path fill-rule="evenodd" clip-rule="evenodd" d="M3.96991 14.5878C4.11057 14.4472 4.30133 14.3682 4.50024 14.3682L16.5005 14.3682C16.9148 14.3682 17.2505 14.704 17.2505 15.1182V20.1185C17.2505 21.0854 16.4672 21.8688 15.5003 21.8688L5.49954 21.8688C4.53315 21.8688 3.75024 21.0849 3.75024 20.1185L3.75024 15.1182C3.75024 14.9193 3.82926 14.7285 3.96991 14.5878ZM5.25024 15.8682L5.25024 20.1185C5.25024 20.2575 5.36252 20.3688 5.49954 20.3688L15.5003 20.3688C15.6387 20.3688 15.7505 20.257 15.7505 20.1185V15.8682L5.25024 15.8682Z" fill="black"/>
<path fill-rule="evenodd" clip-rule="evenodd" d="M3.74927 9.11914C3.74927 8.70493 4.08505 8.36914 4.49927 8.36914L19.5004 8.36914C20.4673 8.36914 21.2506 9.15252 21.2506 10.1194V14.1195C21.2506 15.0864 20.4673 15.8698 19.5004 15.8698L4.49927 15.8698C4.30036 15.8698 4.10959 15.7908 3.96894 15.6501C3.82829 15.5095 3.74927 15.3187 3.74927 15.1198L3.74927 9.11914ZM5.24927 9.86914L5.24927 14.3698L19.5004 14.3698C19.6388 14.3698 19.7506 14.258 19.7506 14.1195V10.1194C19.7506 9.98095 19.6388 9.86914 19.5004 9.86914L5.24927 9.86914Z" fill="black"/>
</svg>