<svg width="25" height="25" viewBox="0 0 25 25" fill="none" xmlns="http://www.w3.org/2000/svg">
<path fill-rule="evenodd" clip-rule="evenodd" d="M4.21238 19.2609C4.21238 20.2863 5.04323 21.1182 6.06962 21.1182H9.62845C10.6548 21.1182 11.4857 20.2863 11.4857 19.2609C11.4857 18.2355 10.6548 17.4037 9.62845 17.4037H6.06962C5.04323 17.4037 4.21238 18.2355 4.21238 19.2609Z" stroke="black" stroke-width="1.5" stroke-linecap="round" stroke-linejoin="round"/>
<path fill-rule="evenodd" clip-rule="evenodd" d="M4.21191 4.97541C4.21191 6.00083 5.04276 6.83265 6.06916 6.83265L18.9298 6.83266C19.9562 6.83266 20.788 6.00084 20.788 4.97541C20.788 3.94998 19.9562 3.11816 18.9298 3.11816L6.06916 3.11816C5.04276 3.11816 4.21191 3.94998 4.21191 4.97541Z" stroke="black" stroke-width="1.5" stroke-linecap="round" stroke-linejoin="round"/>
<path fill-rule="evenodd" clip-rule="evenodd" d="M4.21436 12.118C4.21436 13.1434 5.0452 13.9752 6.0716 13.9752L13.3566 13.9752C14.383 13.9752 15.2148 13.1434 15.2148 12.118C15.2148 11.0926 14.383 10.2607 13.3566 10.2607L6.0716 10.2607C5.0452 10.2607 4.21436 11.0926 4.21436 12.118Z" stroke="black" stroke-width="1.5" stroke-linecap="round" stroke-linejoin="round"/>
</svg>