<svg width="25" height="25" viewBox="0 0 25 25" fill="none" xmlns="http://www.w3.org/2000/svg">
<path fill-rule="evenodd" clip-rule="evenodd" d="M19.6428 20.4057C20.6682 20.4057 21.5 19.5749 21.5 18.5485V14.9896C21.5 13.9632 20.6682 13.1324 19.6428 13.1324C18.6173 13.1324 17.7855 13.9632 17.7855 14.9896V18.5485C17.7855 19.5749 18.6173 20.4057 19.6428 20.4057Z" stroke="black" stroke-width="1.5" stroke-linecap="round" stroke-linejoin="round"/>
<path fill-rule="evenodd" clip-rule="evenodd" d="M5.35725 20.4062C6.38267 20.4062 7.21449 19.5753 7.21449 18.5489V5.6883C7.21449 4.6619 6.38267 3.83008 5.35725 3.83008C4.33182 3.83008 3.5 4.6619 3.5 5.6883V18.5489C3.5 19.5753 4.33182 20.4062 5.35725 20.4062Z" stroke="black" stroke-width="1.5" stroke-linecap="round" stroke-linejoin="round"/>
<path fill-rule="evenodd" clip-rule="evenodd" d="M12.4998 20.4038C13.5252 20.4038 14.3571 19.5729 14.3571 18.5465V11.2615C14.3571 10.2351 13.5252 9.40332 12.4998 9.40332C11.4744 9.40332 10.6426 10.2351 10.6426 11.2615V18.5465C10.6426 19.5729 11.4744 20.4038 12.4998 20.4038Z" stroke="black" stroke-width="1.5" stroke-linecap="round" stroke-linejoin="round"/>
</svg>