<svg width="25" height="25" viewBox="0 0 25 25" fill="none" xmlns="http://www.w3.org/2000/svg">
<path fill-rule="evenodd" clip-rule="evenodd" d="M6.06948 3.86816C5.4575 3.86816 4.96213 4.36399 4.96213 4.97551C4.96213 5.58703 5.4575 6.08285 6.06948 6.08285L9.62849 6.08285C10.2405 6.08285 10.7358 5.58703 10.7358 4.97551C10.7358 4.36399 10.2405 3.86816 9.62849 3.86816L6.06948 3.86816ZM3.46213 4.97551C3.46213 3.53607 4.62856 2.36816 6.06948 2.36816L9.62849 2.36816C11.0694 2.36816 12.2358 3.53607 12.2358 4.97551C12.2358 6.41494 11.0694 7.58285 9.62849 7.58285L6.06948 7.58285C4.62856 7.58285 3.46213 6.41494 3.46213 4.97551ZM6.06901 18.1535C5.45703 18.1535 4.96167 18.6493 4.96167 19.2608C4.96167 19.8723 5.45703 20.3682 6.06901 20.3682H18.9303C19.5428 20.3682 20.0386 19.8718 20.0386 19.2608C20.0386 18.6498 19.5428 18.1535 18.9303 18.1535L6.06901 18.1535ZM3.46167 19.2608C3.46167 17.8214 4.62809 16.6535 6.06901 16.6535L18.9303 16.6535C20.3707 16.6535 21.5386 17.8209 21.5386 19.2608C21.5386 20.7008 20.3707 21.8682 18.9303 21.8682H6.06901C4.62809 21.8682 3.46167 20.7003 3.46167 19.2608Z" fill="black"/>
<path fill-rule="evenodd" clip-rule="evenodd" d="M6.07121 11.0107C5.45923 11.0107 4.96387 11.5066 4.96387 12.1181C4.96387 12.7296 5.45923 13.2254 6.07121 13.2254L13.3566 13.2254C13.9691 13.2254 14.4649 12.7291 14.4649 12.1181C14.4649 11.5071 13.9691 11.0107 13.3566 11.0107L6.07121 11.0107ZM3.46387 12.1181C3.46387 10.6787 4.63029 9.51074 6.07121 9.51074L13.3566 9.51074C14.797 9.51074 15.9649 10.6781 15.9649 12.1181C15.9649 13.558 14.797 14.7254 13.3566 14.7254H6.07121C4.63029 14.7254 3.46387 13.5575 3.46387 12.1181Z" fill="black"/>
</svg>