<svg width="25" height="25" viewBox="0 0 25 25" fill="none" xmlns="http://www.w3.org/2000/svg">
<path fill-rule="evenodd" clip-rule="evenodd" d="M4.21255 4.976C4.21255 6.00147 5.04345 6.83334 6.0699 6.83334L14.4051 6.83334C15.4306 6.83334 16.2624 6.00148 16.2624 4.976C16.2624 3.95052 15.4306 3.11865 14.4051 3.11865L6.0699 3.11865C5.04345 3.11865 4.21255 3.95052 4.21255 4.976Z" stroke="black" stroke-width="1.5" stroke-linecap="round" stroke-linejoin="round"/>
<path fill-rule="evenodd" clip-rule="evenodd" d="M4.21191 19.2613C4.21191 18.2358 5.04281 17.404 6.06926 17.404L18.9306 17.404C19.957 17.404 20.7889 18.2358 20.7889 19.2613C20.7889 20.2868 19.957 21.1187 18.9306 21.1187H6.06926C5.04281 21.1187 4.21191 20.2868 4.21191 19.2613Z" stroke="black" stroke-width="1.5" stroke-linecap="round" stroke-linejoin="round"/>
<path fill-rule="evenodd" clip-rule="evenodd" d="M4.21094 12.1186C4.21094 13.1441 5.04183 13.9759 6.06828 13.9759L9.6273 13.9759C10.6537 13.9759 11.4846 13.1441 11.4846 12.1186C11.4846 11.0931 10.6537 10.2612 9.6273 10.2612L6.06828 10.2612C5.04183 10.2612 4.21094 11.0931 4.21094 12.1186Z" stroke="black" stroke-width="1.5" stroke-linecap="round" stroke-linejoin="round"/>
</svg>