<svg width="25" height="25" viewBox="0 0 25 25" fill="none" xmlns="http://www.w3.org/2000/svg">
<path fill-rule="evenodd" clip-rule="evenodd" d="M4.5 3.36914C4.91421 3.36914 5.25 3.70493 5.25 4.11914L5.25 18.1191C5.25 18.8095 5.80964 19.3691 6.5 19.3691L20.5 19.3691C20.9142 19.3691 21.25 19.7049 21.25 20.1191C21.25 20.5334 20.9142 20.8691 20.5 20.8691L6.5 20.8691C4.98122 20.8691 3.75 19.6379 3.75 18.1191L3.75 4.11914C3.75 3.70493 4.08579 3.36914 4.5 3.36914Z" fill="black"/>
<path fill-rule="evenodd" clip-rule="evenodd" d="M16.5 6.36914C17.4665 6.36914 18.25 7.15264 18.25 8.11914L18.25 9.11914C18.25 10.0856 17.4665 10.8691 16.5 10.8691L4.5 10.8691C4.08579 10.8691 3.75 10.5334 3.75 10.1191C3.75 9.70493 4.08579 9.36914 4.5 9.36914L16.5 9.36914C16.6381 9.36914 16.75 9.25721 16.75 9.11914L16.75 8.11914C16.75 7.98107 16.6381 7.86914 16.5 7.86914L4.5 7.86914C4.08579 7.86914 3.75 7.53335 3.75 7.11914C3.75 6.70493 4.08579 6.36914 4.5 6.36914L16.5 6.36914Z" fill="black"/>
<path fill-rule="evenodd" clip-rule="evenodd" d="M11.416 12.8691C12.3825 12.8691 13.166 13.6526 13.166 14.6191L13.166 15.6191C13.166 16.5856 12.3825 17.3691 11.416 17.3691L4.5 17.3691C4.08579 17.3691 3.75 17.0334 3.75 16.6191C3.75 16.2049 4.08579 15.8691 4.5 15.8691L11.416 15.8691C11.5541 15.8691 11.666 15.7572 11.666 15.6191L11.666 14.6191C11.666 14.4811 11.5541 14.3691 11.416 14.3691L4.5 14.3691C4.08579 14.3691 3.75 14.0334 3.75 13.6191C3.75 13.2049 4.08579 12.8691 4.5 12.8691L11.416 12.8691Z" fill="black"/>
</svg>