<svg width="25" height="25" viewBox="0 0 25 25" fill="none" xmlns="http://www.w3.org/2000/svg">
<path fill-rule="evenodd" clip-rule="evenodd" d="M12.5 3.36816C12.9142 3.36816 13.25 3.70395 13.25 4.11816V20.1182C13.25 20.5324 12.9142 20.8682 12.5 20.8682C12.0858 20.8682 11.75 20.5324 11.75 20.1182V4.11816C11.75 3.70395 12.0858 3.36816 12.5 3.36816ZM18.5 9.36816C18.9142 9.36816 19.25 9.70395 19.25 10.1182V20.1182C19.25 20.5324 18.9142 20.8682 18.5 20.8682C18.0858 20.8682 17.75 20.5324 17.75 20.1182V10.1182C17.75 9.70395 18.0858 9.36816 18.5 9.36816ZM6.5 13.3682C6.91421 13.3682 7.25 13.704 7.25 14.1182V20.1182C7.25 20.5324 6.91421 20.8682 6.5 20.8682C6.08579 20.8682 5.75 20.5324 5.75 20.1182V14.1182C5.75 13.704 6.08579 13.3682 6.5 13.3682Z" fill="black"/>
</svg>