<svg width="25" height="25" viewBox="0 0 25 25" fill="none" xmlns="http://www.w3.org/2000/svg">
<path fill-rule="evenodd" clip-rule="evenodd" d="M5.35734 20.4061C4.33186 20.4061 3.5 19.5752 3.5 18.5487V14.9897C3.5 13.9633 4.33186 13.1324 5.35734 13.1324C6.38282 13.1324 7.21469 13.9633 7.21469 14.9897V18.5487C7.21469 19.5752 6.38282 20.4061 5.35734 20.4061Z" stroke="black" stroke-width="1.5" stroke-linecap="round" stroke-linejoin="round"/>
<path fill-rule="evenodd" clip-rule="evenodd" d="M19.6427 20.4065C18.6172 20.4065 17.7853 19.5757 17.7853 18.5492V5.68791C17.7853 4.66145 18.6172 3.82959 19.6427 3.82959C20.6681 3.82959 21.5 4.66145 21.5 5.68791V18.5492C21.5 19.5757 20.6681 20.4065 19.6427 20.4065Z" stroke="black" stroke-width="1.5" stroke-linecap="round" stroke-linejoin="round"/>
<path fill-rule="evenodd" clip-rule="evenodd" d="M12.4999 20.4044C11.4744 20.4044 10.6426 19.5735 10.6426 18.547V11.2616C10.6426 10.2352 11.4744 9.40332 12.4999 9.40332C13.5254 9.40332 14.3573 10.2352 14.3573 11.2616V18.547C14.3573 19.5735 13.5254 20.4044 12.4999 20.4044Z" stroke="black" stroke-width="1.5" stroke-linecap="round" stroke-linejoin="round"/>
</svg>