<svg width="25" height="25" viewBox="0 0 25 25" fill="none" xmlns="http://www.w3.org/2000/svg">
<path fill-rule="evenodd" clip-rule="evenodd" d="M3.46191 4.97541C3.46191 3.53603 4.62829 2.36816 6.06916 2.36816L18.9298 2.36816C20.3701 2.36816 21.538 3.53552 21.538 4.97541C21.538 6.4153 20.3701 7.58266 18.9298 7.58265L6.06916 7.58265C4.62829 7.58265 3.46191 6.41479 3.46191 4.97541ZM6.06916 3.86816C5.45723 3.86816 4.96191 4.36394 4.96191 4.97541C4.96191 5.58688 5.45723 6.08265 6.06916 6.08265L18.9298 6.08266C19.5422 6.08266 20.038 5.58637 20.038 4.97541C20.038 4.36445 19.5422 3.86816 18.9298 3.86816L6.06916 3.86816ZM3.46238 19.2609C3.46238 17.8215 4.62876 16.6537 6.06962 16.6537H9.62845C11.0693 16.6537 12.2357 17.8215 12.2357 19.2609C12.2357 20.7003 11.0693 21.8682 9.62845 21.8682H6.06962C4.62876 21.8682 3.46238 20.7003 3.46238 19.2609ZM6.06962 18.1537C5.45769 18.1537 4.96238 18.6495 4.96238 19.2609C4.96238 19.8724 5.45769 20.3682 6.06962 20.3682H9.62845C10.2404 20.3682 10.7357 19.8724 10.7357 19.2609C10.7357 18.6495 10.2404 18.1537 9.62845 18.1537H6.06962Z" fill="black"/>
<path fill-rule="evenodd" clip-rule="evenodd" d="M3.46436 12.118C3.46436 10.6786 4.63073 9.51074 6.0716 9.51074L13.3566 9.51074C14.7969 9.51074 15.9648 10.6781 15.9648 12.118C15.9648 13.5579 14.7969 14.7252 13.3566 14.7252H6.0716C4.63073 14.7252 3.46436 13.5574 3.46436 12.118ZM6.0716 11.0107C5.45967 11.0107 4.96436 11.5065 4.96436 12.118C4.96436 12.7295 5.45967 13.2252 6.0716 13.2252L13.3566 13.2252C13.969 13.2252 14.4648 12.7289 14.4648 12.118C14.4648 11.507 13.969 11.0107 13.3566 11.0107L6.0716 11.0107Z" fill="black"/>
</svg>