<svg width="24" height="24" viewBox="0 0 24 24" fill="none" xmlns="http://www.w3.org/2000/svg">
<path d="M7.03723 8.23242V15.7629" stroke="black" stroke-width="1.5" stroke-linecap="round" stroke-linejoin="round"/>
<path d="M13.6407 8.23242V11.2582" stroke="black" stroke-width="1.5" stroke-linecap="round" stroke-linejoin="round"/>
<path d="M16.9415 8.23242V10.0246" stroke="black" stroke-width="1.5" stroke-linecap="round" stroke-linejoin="round"/>
<path d="M10.338 15.6721V12.0781" stroke="black" stroke-width="1.5" stroke-linecap="round" stroke-linejoin="round"/>
<path d="M10.338 9.18103V8.2334" stroke="black" stroke-width="1.5" stroke-linecap="round" stroke-linejoin="round"/>
<path d="M20.9992 9.08156V7.68833C20.9992 5.78819 19.4591 4.24805 17.559 4.24805H16.4489" stroke="black" stroke-width="1.5" stroke-linecap="round" stroke-linejoin="round"/>
<path d="M3 9.08156V7.68833C3 5.78819 4.54015 4.24805 6.44028 4.24805H7.55039" stroke="black" stroke-width="1.5" stroke-linecap="round" stroke-linejoin="round"/>
<path d="M3 14.918V16.3112C3 18.2113 4.54015 19.7515 6.44028 19.7515H7.57958" stroke="black" stroke-width="1.5" stroke-linecap="round" stroke-linejoin="round"/>
<path fill-rule="evenodd" clip-rule="evenodd" d="M17.39 12.9375C19.0732 12.9375 20.4382 14.3025 20.4382 15.9857C20.4382 17.6698 19.0732 19.0348 17.39 19.0348C15.7068 19.0348 14.3418 17.6698 14.3418 15.9857C14.3418 14.3025 15.7068 12.9375 17.39 12.9375Z" stroke="black" stroke-width="1.5" stroke-linecap="round" stroke-linejoin="round"/>
<path d="M19.4648 18.2188L20.9992 19.7501" stroke="black" stroke-width="1.5" stroke-linecap="round" stroke-linejoin="round"/>
</svg>