<svg width="24" height="24" viewBox="0 0 24 24" fill="none" xmlns="http://www.w3.org/2000/svg">
<path fill-rule="evenodd" clip-rule="evenodd" d="M5.91272 8.10791V15.6389C5.91272 16.1909 6.36072 16.6389 6.91272 16.6389C7.46472 16.6389 7.91272 16.1909 7.91272 15.6389V8.10791C7.91272 7.55591 7.46472 7.10791 6.91272 7.10791C6.36072 7.10791 5.91272 7.55591 5.91272 8.10791Z" fill="black"/>
<path fill-rule="evenodd" clip-rule="evenodd" d="M14.5167 11.1338V8.10782C14.5167 7.55582 14.0687 7.10782 13.5167 7.10782C12.9647 7.10782 12.5167 7.55582 12.5167 8.10782V11.1338C12.5167 11.6858 12.9647 12.1338 13.5167 12.1338C14.0687 12.1338 14.5167 11.6858 14.5167 11.1338Z" fill="black"/>
<path fill-rule="evenodd" clip-rule="evenodd" d="M15.8175 8.10791V9.90091C15.8175 10.4529 16.2655 10.9009 16.8175 10.9009C17.3695 10.9009 17.8175 10.4529 17.8175 9.90091V8.10791C17.8175 7.55591 17.3695 7.10791 16.8175 7.10791C16.2655 7.10791 15.8175 7.55591 15.8175 8.10791Z" fill="black"/>
<path fill-rule="evenodd" clip-rule="evenodd" d="M10.2135 10.9541C9.6615 10.9541 9.2135 11.4021 9.2135 11.9541V15.5481C9.2135 16.1001 9.6615 16.5481 10.2135 16.5481C10.7655 16.5481 11.2135 16.1001 11.2135 15.5481V11.9541C11.2135 11.4021 10.7655 10.9541 10.2135 10.9541Z" fill="black"/>
<path fill-rule="evenodd" clip-rule="evenodd" d="M10.2135 7.10892C9.6615 7.10892 9.2135 7.55692 9.2135 8.10892V9.05692C9.2135 9.60892 9.6615 10.0569 10.2135 10.0569C10.7655 10.0569 11.2135 9.60892 11.2135 9.05692V8.10892C11.2135 7.55692 10.7655 7.10892 10.2135 7.10892Z" fill="black"/>
<path fill-rule="evenodd" clip-rule="evenodd" d="M16.3224 4.87402H17.4324C18.9164 4.87402 20.1234 6.08102 20.1234 7.56402V8.95802C20.1234 9.37202 20.4594 9.70802 20.8734 9.70802C21.2874 9.70802 21.6234 9.37202 21.6234 8.95802V7.56402C21.6234 5.25302 19.7434 3.37402 17.4324 3.37402H16.3224C15.9084 3.37402 15.5724 3.71002 15.5724 4.12402C15.5724 4.53802 15.9084 4.87402 16.3224 4.87402Z" fill="black"/>
<path fill-rule="evenodd" clip-rule="evenodd" d="M2.87561 9.70802C3.28961 9.70802 3.62561 9.37202 3.62561 8.95802V7.56402C3.62561 6.08102 4.83261 4.87402 6.31561 4.87402H7.42561C7.83961 4.87402 8.17561 4.53802 8.17561 4.12402C8.17561 3.71002 7.83961 3.37402 7.42561 3.37402H6.31561C4.00461 3.37402 2.12561 5.25302 2.12561 7.56402V8.95802C2.12561 9.37202 2.46161 9.70802 2.87561 9.70802Z" fill="black"/>
<path fill-rule="evenodd" clip-rule="evenodd" d="M7.45573 18.877H6.31573C4.83173 18.877 3.62573 17.67 3.62573 16.187V14.794C3.62573 14.38 3.28973 14.044 2.87573 14.044C2.46173 14.044 2.12573 14.38 2.12573 14.794V16.187C2.12573 18.498 4.00473 20.377 6.31573 20.377H7.45573C7.86973 20.377 8.20573 20.041 8.20573 19.627C8.20573 19.213 7.86973 18.877 7.45573 18.877Z" fill="black"/>
<path fill-rule="evenodd" clip-rule="evenodd" d="M15.2174 15.8618C15.2174 14.7328 16.1364 13.8138 17.2654 13.8138C18.3954 13.8138 19.3134 14.7328 19.3134 15.8618C19.3134 16.9918 18.3954 17.9108 17.2654 17.9108C16.1364 17.9108 15.2174 16.9918 15.2174 15.8618ZM21.5814 18.9178L20.6794 18.0178C21.0754 17.3918 21.3134 16.6558 21.3134 15.8618C21.3134 13.6298 19.4974 11.8138 17.2654 11.8138C15.0334 11.8138 13.2174 13.6298 13.2174 15.8618C13.2174 18.0948 15.0334 19.9108 17.2654 19.9108C17.9774 19.9108 18.6374 19.7108 19.2184 19.3868L20.1684 20.3338C20.3634 20.5288 20.6184 20.6258 20.8744 20.6258C21.1314 20.6258 21.3874 20.5288 21.5824 20.3328C21.9724 19.9418 21.9714 19.3078 21.5814 18.9178Z" fill="black"/>
</svg>