<svg width="25" height="24" viewBox="0 0 25 24" fill="none" xmlns="http://www.w3.org/2000/svg">
<path fill-rule="evenodd" clip-rule="evenodd" d="M3.9902 3.89737C4.97468 2.84117 6.37669 2.25 8.03216 2.25H16.4669C18.1262 2.25 19.5288 2.84084 20.5129 3.89765C21.4913 4.94841 22 6.39889 22 8.02638V15.9736C22 17.6011 21.4913 19.0516 20.5127 20.1024C19.5285 21.1592 18.1256 21.75 16.4659 21.75H8.03216C6.3728 21.75 4.97038 21.1591 3.98657 20.1023C3.00842 19.0515 2.5 17.601 2.5 15.9736V8.02638C2.5 6.39806 3.01117 4.94771 3.9902 3.89737ZM5.08745 4.92012C4.41024 5.64666 4 6.70951 4 8.02638V15.9736C4 17.2914 4.40861 18.3541 5.08451 19.0802C5.75475 19.8003 6.74341 20.25 8.03216 20.25H16.4659C17.7552 20.25 18.7444 19.8002 19.415 19.0801C20.0912 18.354 20.5 17.2913 20.5 15.9736V8.02638C20.5 6.70868 20.0912 5.64597 19.4151 4.91984C18.7446 4.19975 17.7556 3.75 16.4669 3.75H8.03216C6.74828 3.75 5.75921 4.19943 5.08745 4.92012Z" fill="black"/>
<path fill-rule="evenodd" clip-rule="evenodd" d="M12.2499 7.6543C12.5146 7.65428 12.7597 7.79378 12.8948 8.02137L16.6242 14.3019C16.7618 14.5337 16.7645 14.8216 16.6311 15.0559C16.4978 15.2901 16.2489 15.4348 15.9793 15.4348H8.52148C8.25191 15.4348 8.00307 15.2902 7.8697 15.0559C7.73633 14.8216 7.73895 14.5338 7.87656 14.302L11.605 8.02144C11.7401 7.79384 11.9852 7.65431 12.2499 7.6543ZM12.25 9.87338L9.83892 13.9348H14.6617L12.25 9.87338Z" fill="black"/>
</svg>