<svg width="25" height="24" viewBox="0 0 25 24" fill="none" xmlns="http://www.w3.org/2000/svg">
<path opacity="0.4" fill-rule="evenodd" clip-rule="evenodd" d="M16.717 2.5H8.282C5.123 2.5 3 4.722 3 8.03V15.97C3 19.278 5.123 21.5 8.282 21.5H16.716C19.877 21.5 22 19.278 22 15.97V8.03C22 4.722 19.877 2.5 16.717 2.5Z" fill="black"/>
<path fill-rule="evenodd" clip-rule="evenodd" d="M16.8809 15.051C16.7479 15.285 16.4989 15.43 16.2289 15.43H8.7709C8.5019 15.43 8.2529 15.285 8.1189 15.051C7.9859 14.817 7.9879 14.529 8.1259 14.297L11.8549 8.01703C12.1259 7.56203 12.8749 7.56203 13.1449 8.01703L16.8739 14.297C17.0119 14.529 17.0139 14.817 16.8809 15.051ZM14.9114 13.93H10.0884L12.5004 9.86905L14.9114 13.93Z" fill="black"/>
</svg>