<svg width="24" height="24" viewBox="0 0 24 24" fill="none" xmlns="http://www.w3.org/2000/svg">
<path fill-rule="evenodd" clip-rule="evenodd" d="M16.5613 18.8705H7.43968C4.98778 18.8705 3 16.8837 3 14.4318V13.6495C3 12.9305 3.58281 12.3486 4.30086 12.3486H19.6991C20.4182 12.3486 21 12.9305 21 13.6495V14.4318C21 16.8837 19.0132 18.8705 16.5613 18.8705Z" stroke="black" stroke-width="1.5" stroke-linecap="round" stroke-linejoin="round"/>
<path d="M18.945 12.3477V5.30238C18.945 4.06573 17.8455 3.11903 16.6225 3.30389L14.7485 3.58606C13.76 3.73492 13.0293 4.58433 13.0293 5.58454V6.58962" stroke="black" stroke-width="1.5" stroke-linecap="round" stroke-linejoin="round"/>
<path fill-rule="evenodd" clip-rule="evenodd" d="M11.0059 8.42939C11.0059 7.38441 11.9652 6.54182 13.1289 6.59144C14.2176 6.63814 15.0554 7.49047 15.0554 8.48095C15.0554 8.67263 14.8841 8.82831 14.673 8.82831H11.3882C11.1771 8.82831 11.0059 8.67263 11.0059 8.48095V8.42939Z" stroke="black" stroke-width="1.5" stroke-linecap="round" stroke-linejoin="round"/>
<path d="M7.43904 18.8701L6.07031 20.7189" stroke="black" stroke-width="1.5" stroke-linecap="round" stroke-linejoin="round"/>
<path d="M18.0682 20.7188L16.6992 18.8701" stroke="black" stroke-width="1.5" stroke-linecap="round" stroke-linejoin="round"/>
</svg>