<svg width="25" height="24" viewBox="0 0 25 24" fill="none" xmlns="http://www.w3.org/2000/svg">
<path fill-rule="evenodd" clip-rule="evenodd" d="M6.91638 4.42139C6.68642 4.42139 6.5 4.60781 6.5 4.83776V6.8078C6.5 7.22201 6.16421 7.5578 5.75 7.5578C5.33579 7.5578 5 7.22201 5 6.8078V4.83776C5 3.77938 5.85799 2.92139 6.91638 2.92139C7.97476 2.92139 8.83276 3.77938 8.83276 4.83776V6.66631C8.83276 7.08052 8.49697 7.41631 8.08276 7.41631C7.66854 7.41631 7.33276 7.08052 7.33276 6.66631V4.83776C7.33276 4.60781 7.14634 4.42139 6.91638 4.42139Z" fill="black"/>
<path fill-rule="evenodd" clip-rule="evenodd" d="M15.6675 4.83776C15.6675 3.77938 16.5255 2.92139 17.5839 2.92139C18.6422 2.92139 19.5002 3.77938 19.5002 4.83776V6.8078C19.5002 7.22201 19.1644 7.5578 18.7502 7.5578C18.336 7.5578 18.0002 7.22201 18.0002 6.8078V4.83776C18.0002 4.60781 17.8138 4.42139 17.5839 4.42139C17.3539 4.42139 17.1675 4.60781 17.1675 4.83776V6.66631C17.1675 7.08052 16.8317 7.41631 16.4175 7.41631C16.0033 7.41631 15.6675 7.08052 15.6675 6.66631V4.83776Z" fill="black"/>
<path fill-rule="evenodd" clip-rule="evenodd" d="M6 13.6714C6 13.2572 6.33579 12.9214 6.75 12.9214H9.75C10.1642 12.9214 10.5 13.2572 10.5 13.6714C10.5 14.0856 10.1642 14.4214 9.75 14.4214H6.75C6.33579 14.4214 6 14.0856 6 13.6714Z" fill="black"/>
<path fill-rule="evenodd" clip-rule="evenodd" d="M14 13.6714C14 13.2572 14.3358 12.9214 14.75 12.9214H17.75C18.1642 12.9214 18.5 13.2572 18.5 13.6714C18.5 14.0856 18.1642 14.4214 17.75 14.4214H14.75C14.3358 14.4214 14 14.0856 14 13.6714Z" fill="black"/>
<path fill-rule="evenodd" clip-rule="evenodd" d="M16.25 11.4214C16.6642 11.4214 17 11.7572 17 12.1714V15.1714C17 15.5856 16.6642 15.9214 16.25 15.9214C15.8358 15.9214 15.5 15.5856 15.5 15.1714V12.1714C15.5 11.7572 15.8358 11.4214 16.25 11.4214Z" fill="black"/>
<path fill-rule="evenodd" clip-rule="evenodd" d="M17.7621 5.92139C20.1025 5.92139 22 7.81892 22 10.1593L22 16.8408C22 19.1812 20.1025 21.0787 17.7621 21.0787L6.73793 21.0787C4.39753 21.0787 2.5 19.1812 2.5 16.8408L2.5 10.1593C2.5 7.81892 4.39753 5.92139 6.73793 5.92139L17.7621 5.92139ZM20.5 10.1593C20.5 8.64734 19.274 7.42139 17.7621 7.42139L6.73793 7.42139C5.22596 7.42139 4 8.64734 4 10.1593L4 16.8408C4 18.3528 5.22596 19.5787 6.73793 19.5787L17.7621 19.5787C19.274 19.5787 20.5 18.3528 20.5 16.8408L20.5 10.1593Z" fill="black"/>
</svg>