<svg width="24" height="25" viewBox="0 0 24 25" fill="none" xmlns="http://www.w3.org/2000/svg">
<path fill-rule="evenodd" clip-rule="evenodd" d="M6.35865 15.1083C6.76492 15.189 7.0288 15.5838 6.94806 15.9901L6.41782 18.6578C6.37904 18.8529 6.26435 19.0246 6.09898 19.1352C5.9336 19.2457 5.73109 19.286 5.53599 19.2472L2.85368 18.7141C2.44742 18.6333 2.18354 18.2385 2.26429 17.8322C2.34504 17.426 2.73985 17.1621 3.14611 17.2428L5.09281 17.6298L5.47683 15.6977C5.55758 15.2914 5.95239 15.0275 6.35865 15.1083Z" fill="black"/>
<path fill-rule="evenodd" clip-rule="evenodd" d="M13.3857 4.21578C10.8802 3.76704 8.20719 4.51687 6.28168 6.45751L6.28167 6.45752C3.20538 9.55783 3.18489 14.5398 6.20492 17.6648C6.49277 17.9626 6.48466 18.4374 6.1868 18.7253C5.88895 19.0131 5.41415 19.005 5.1263 18.7072C1.54027 14.9965 1.56454 9.08186 5.21689 5.40099L5.74928 5.92926L5.21689 5.40099C7.50407 3.09586 10.6801 2.20733 13.6502 2.73927C14.0579 2.8123 14.3292 3.20203 14.2562 3.60975C14.1832 4.01748 13.7935 4.2888 13.3857 4.21578Z" fill="black"/>
<path fill-rule="evenodd" clip-rule="evenodd" d="M17.9005 5.13818C18.0659 5.02765 18.2684 4.98733 18.4635 5.02611L21.1458 5.55927C21.552 5.64002 21.8159 6.03482 21.7352 6.44109C21.6544 6.84736 21.2596 7.11124 20.8533 7.03049L18.9066 6.64355L18.5226 8.57565C18.4419 8.98191 18.0471 9.2458 17.6408 9.16505C17.2345 9.0843 16.9706 8.68949 17.0514 8.28323L17.5816 5.61551C17.6204 5.42042 17.7351 5.24871 17.9005 5.13818Z" fill="black"/>
<path fill-rule="evenodd" clip-rule="evenodd" d="M17.8135 5.54663C18.1113 5.25878 18.5861 5.26689 18.874 5.56474C22.46 9.27541 22.4357 15.19 18.7834 18.8709C16.4962 21.176 13.3201 22.0646 10.3501 21.5326C9.94236 21.4596 9.67103 21.0699 9.74405 20.6622C9.81708 20.2544 10.2068 19.9831 10.6145 20.0561C13.12 20.5049 15.7931 19.755 17.7186 17.8144L17.7186 17.8144C20.7949 14.7141 20.8154 9.73213 17.7953 6.60713C17.5075 6.30928 17.5156 5.83448 17.8135 5.54663Z" fill="black"/>
<path fill-rule="evenodd" clip-rule="evenodd" d="M10.9746 7.98047L9.31415 12.0319H10.8046C11.5034 12.0319 12.0123 12.6943 11.8322 13.3695L11.3891 15.0314L14.3738 11.6246H12.7818C12.0478 11.6246 11.5344 10.8987 11.779 10.2066C11.7843 10.1918 11.79 10.1771 11.7962 10.1626L12.7259 7.98047H10.9746ZM9.6894 7.16079C9.84748 6.75141 10.2414 6.48047 10.6815 6.48047H13.387C14.121 6.48047 14.6344 7.20639 14.3898 7.89844C14.3845 7.9133 14.3788 7.92799 14.3726 7.94249L13.4429 10.1246H15.3365C16.2505 10.1246 16.7388 11.2015 16.1364 11.889L11.2858 17.4255C10.5444 18.2717 9.16834 17.5377 9.45821 16.4506L10.2365 13.5319H8.66336C7.92402 13.5319 7.41025 12.7962 7.66488 12.1021C7.66809 12.0933 7.67147 12.0846 7.67501 12.076L9.6894 7.16079Z" fill="black"/>
</svg>