<svg width="25" height="24" viewBox="0 0 25 24" fill="none" xmlns="http://www.w3.org/2000/svg">
<path opacity="0.4" d="M17.75 6.75603V4.95603C17.75 4.45923 18.1532 4.05603 18.65 4.05603H19.45C19.9468 4.05603 20.35 4.45923 20.35 4.95603V6.9521" stroke="black" stroke-width="1.5" stroke-linecap="round" stroke-linejoin="round"/>
<path opacity="0.4" d="M6.95264 6.75603V4.95603C6.95264 4.45923 6.54944 4.05603 6.05264 4.05603H5.25264C4.75584 4.05603 4.35264 4.45923 4.35264 4.95603V6.9521" stroke="black" stroke-width="1.5" stroke-linecap="round" stroke-linejoin="round"/>
<path d="M19.25 6.75605H17.6724C17.0871 6.75605 16.5312 6.49965 16.1512 6.05444L15.8125 5.65767C15.4325 5.21246 14.8766 4.95605 14.2913 4.95605H10.2087C9.6234 4.95605 9.06746 5.21246 8.68747 5.65767L8.34883 6.05444C7.96884 6.49965 7.4129 6.75605 6.82758 6.75605H5.25C4.14543 6.75605 3.25 7.65148 3.25 8.75605V16.4561C3.25 18.3822 4.81174 19.944 6.73793 19.944L17.7621 19.944C19.6883 19.944 21.25 18.3822 21.25 16.4561V8.75605C21.25 7.65149 20.3546 6.75605 19.25 6.75605Z" stroke="black" stroke-width="1.5" stroke-linecap="round" stroke-linejoin="round"/>
<path opacity="0.4" d="M6.71338 12.9165H9.71338" stroke="black" stroke-width="1.5" stroke-linecap="round" stroke-linejoin="round"/>
<path opacity="0.4" d="M14.7134 12.9165H17.7134M16.2134 11.4165V14.4165" stroke="black" stroke-width="1.5" stroke-linecap="round" stroke-linejoin="round"/>
</svg>