<svg width="24" height="25" viewBox="0 0 24 25" fill="none" xmlns="http://www.w3.org/2000/svg">
<path d="M3 17.9783L5.68231 18.5115L6.21255 15.8438" stroke="black" stroke-width="1.5" stroke-linecap="round" stroke-linejoin="round"/>
<path d="M5.66561 18.186C2.36258 14.7682 2.38496 9.3199 5.74928 5.92932C7.85563 3.80643 10.7802 2.98724 13.518 3.47759" stroke="black" stroke-width="1.5" stroke-linecap="round" stroke-linejoin="round"/>
<path d="M20.9997 6.29487L18.3173 5.76172L17.7871 8.42944" stroke="black" stroke-width="1.5" stroke-linecap="round" stroke-linejoin="round"/>
<path d="M18.3348 6.08594C21.6378 9.50377 21.6154 14.9521 18.2511 18.3426C16.1448 20.4655 13.2202 21.2847 10.4824 20.7944" stroke="black" stroke-width="1.5" stroke-linecap="round" stroke-linejoin="round"/>
<path d="M8.36907 12.3604L10.3872 7.43603C10.4325 7.31255 10.5501 7.23047 10.6816 7.23047H13.3871C13.6035 7.23047 13.7548 7.44448 13.6827 7.6485L12.4862 10.4566C12.4141 10.6606 12.5655 10.8746 12.7819 10.8746H15.3365C15.606 10.8746 15.7499 11.1921 15.5724 11.3948L10.7218 16.9313C10.5032 17.1808 10.0975 16.9644 10.183 16.6439L11.1076 13.1763C11.1607 12.9772 11.0107 12.7819 10.8047 12.7819H8.66343C8.44546 12.7819 8.294 12.565 8.36907 12.3604Z" stroke="black" stroke-width="1.5" stroke-linecap="round" stroke-linejoin="round"/>
</svg>