<svg width="24" height="24" viewBox="0 0 24 24" fill="none" xmlns="http://www.w3.org/2000/svg">
<path opacity="0.4" fill-rule="evenodd" clip-rule="evenodd" d="M7.34333 5.24521C7.34333 4.88521 7.64333 4.59521 7.99333 4.59521C8.35333 4.59521 8.64332 4.88521 8.64332 5.24521V6.14521H7.34333V5.24521ZM15.4233 5.24521C15.4233 4.88521 15.7133 4.59521 16.0733 4.59521C16.4233 4.59521 16.7133 4.88521 16.7133 5.24521V6.14521H15.4233V5.24521ZM18.2133 6.21521V5.24521C18.2133 4.05521 17.2533 3.09521 16.0733 3.09521C14.8833 3.09521 13.9233 4.05521 13.9233 5.24521V6.14521H10.1433V5.24521C10.1433 4.05521 9.18333 3.09521 7.99333 3.09521C6.81333 3.09521 5.84333 4.05521 5.84333 5.24521V6.21521C3.84333 6.53521 2.53333 8.13521 2.53333 10.4152V16.3752C2.53333 18.9252 4.17333 20.6452 6.62333 20.6452H17.4433C19.8933 20.6452 21.5333 18.9252 21.5333 16.3752V10.4152C21.5333 8.13521 20.2233 6.53521 18.2133 6.21521Z" fill="black"/>
<path d="M13.8333 14.155H17.4333C17.8433 14.155 18.1833 13.815 18.1833 13.405C18.1833 12.985 17.8433 12.655 17.4333 12.655H13.8333C13.4133 12.655 13.0833 12.985 13.0833 13.405C13.0833 13.815 13.4133 14.155 13.8333 14.155Z" fill="black"/>
<path d="M9.1833 14.155H10.2333C10.6533 14.155 10.9833 13.815 10.9833 13.405C10.9833 12.995 10.6533 12.655 10.2333 12.655H9.1833V11.605C9.1833 11.195 8.8533 10.855 8.4333 10.855C8.0233 10.855 7.6833 11.195 7.6833 11.605V12.655H6.6333C6.2233 12.655 5.8833 12.995 5.8833 13.405C5.8833 13.815 6.2233 14.155 6.6333 14.155H7.6833V15.205C7.6833 15.615 8.0233 15.955 8.4333 15.955C8.8533 15.955 9.1833 15.615 9.1833 15.205V14.155Z" fill="black"/>
</svg>