<svg width="25" height="24" viewBox="0 0 25 24" fill="none" xmlns="http://www.w3.org/2000/svg">
<path opacity="0.4" fill-rule="evenodd" clip-rule="evenodd" d="M20.7013 7.34586C19.8613 7.06586 18.8213 6.83586 16.6613 6.58586L14.9713 6.41586C13.3813 6.28586 11.7913 6.28586 10.2113 6.41586L8.54131 6.57586C6.33131 6.82586 5.28131 7.06586 4.44131 7.34586C3.56131 7.64586 3.00131 8.48586 3.08131 9.39586C3.79131 17.4459 6.98131 21.5259 12.5713 21.5259C18.1613 21.5259 21.3613 17.4459 22.0613 9.39586C22.1513 8.48586 21.5913 7.64586 20.7013 7.34586Z" fill="black"/>
<path fill-rule="evenodd" clip-rule="evenodd" d="M15.3819 4.13116C16.1503 5.15601 16.7824 6.64767 17.2265 8.5676C17.3199 8.97115 17.0684 9.37398 16.6648 9.46732C16.2613 9.56067 15.8585 9.3092 15.7651 8.90564C15.3481 7.10288 14.781 5.83013 14.1818 5.03098C13.5813 4.23008 13.0184 3.98542 12.5819 3.99649C12.1364 4.00778 11.5604 4.29105 10.9538 5.1221C10.352 5.94667 9.78833 7.22754 9.37719 8.99686C9.28343 9.40033 8.88036 9.6514 8.47689 9.55764C8.07343 9.46389 7.82236 9.06081 7.91612 8.65735C8.35488 6.76918 8.98204 5.27932 9.74221 4.2378C10.4976 3.20277 11.4548 2.52459 12.5438 2.49697C13.6418 2.46912 14.6148 3.10806 15.3819 4.13116Z" fill="black"/>
</svg>