<svg width="24" height="24" viewBox="0 0 24 24" fill="none" xmlns="http://www.w3.org/2000/svg">
<path d="M12 21.75C6.62 21.75 2.25 17.38 2.25 12C2.25 6.62 6.62 2.25 12 2.25C17.38 2.25 21.75 6.62 21.75 12C21.75 17.38 17.38 21.75 12 21.75ZM12 3.75C7.45 3.75 3.75 7.45 3.75 12C3.75 16.55 7.45 20.25 12 20.25C16.55 20.25 20.25 16.55 20.25 12C20.25 7.45 16.55 3.75 12 3.75Z" fill="black"/>
<path d="M12.0003 17.2801C9.89026 17.2801 7.28026 16.16 6.81026 10.82C6.75026 10.14 7.18026 9.49007 7.84026 9.29007C8.29026 9.13007 8.88028 9 10.3603 8.84C11.4503 8.72 12.5603 8.72 13.6503 8.84C15.1203 9 15.7103 9.13008 16.1903 9.30008C16.8303 9.50008 17.2603 10.14 17.2003 10.82C16.7303 16.16 14.1203 17.2801 12.0103 17.2801H12.0003ZM8.31026 10.72C8.76026 15.78 11.2003 15.7801 12.0003 15.7801C12.8003 15.7801 15.2503 15.78 15.6903 10.69C15.3103 10.59 14.8103 10.48 13.4803 10.33C12.5003 10.22 11.5003 10.23 10.5103 10.33C9.18027 10.48 8.68028 10.58 8.30028 10.71L8.31026 10.72Z" fill="black"/>
<path d="M9.96052 11.4506C9.96052 11.4506 9.86049 11.4507 9.81049 11.4307C9.40049 11.3507 9.1405 10.9507 9.2205 10.5507C9.5605 8.87066 10.2205 6.64062 11.9905 6.64062C13.7605 6.64062 14.4005 8.70061 14.7605 10.5006C14.8405 10.9106 14.5805 11.3006 14.1705 11.3806C13.7605 11.4606 13.3705 11.2006 13.2905 10.7906C12.9405 9.08065 12.4805 8.13062 11.9905 8.13062C11.8105 8.13062 11.2005 8.33058 10.6905 10.8406C10.6205 11.2006 10.3105 11.4406 9.96052 11.4406V11.4506Z" fill="black"/>
</svg>