<svg width="24" height="24" viewBox="0 0 24 24" fill="none" xmlns="http://www.w3.org/2000/svg">
<path d="M12 21C16.9709 21 21 16.9709 21 12C21 7.02908 16.9709 3 12 3C7.02908 3 3 7.02908 3 12C3 16.9709 7.02908 21 12 21Z" stroke="black" stroke-width="1.5" stroke-linecap="round" stroke-linejoin="round"/>
<path d="M7.55737 10.762C7.88234 14.4564 9.28342 16.5317 12 16.5317C14.7165 16.5317 16.1176 14.4564 16.4426 10.762C16.4717 10.4253 16.2596 10.114 15.9386 10.0079C15.5007 9.86296 14.9422 9.73648 13.5635 9.59345C12.5263 9.48448 11.4736 9.48448 10.4364 9.59345C9.05769 9.73648 8.4992 9.86296 8.06137 10.0079C7.74028 10.114 7.52818 10.4253 7.55737 10.762Z" stroke="black" stroke-width="1.5" stroke-linecap="round" stroke-linejoin="round"/>
<path d="M14.0319 10.6501C13.5862 8.44435 12.9577 7.39062 11.9984 7.39062C11.039 7.39062 10.4056 8.529 9.96484 10.7036" stroke="black" stroke-width="1.5" stroke-linecap="round" stroke-linejoin="round"/>
</svg>