<svg width="24" height="24" viewBox="0 0 24 24" fill="none" xmlns="http://www.w3.org/2000/svg">
<path fill-rule="evenodd" clip-rule="evenodd" d="M4.43945 3C4.43945 2.58579 4.77524 2.25 5.18945 2.25H10.7535C14.0775 2.25 16.7722 4.94468 16.7722 8.26873C16.7722 11.5928 14.0775 14.2875 10.7535 14.2875H5.18945C4.77524 14.2875 4.43945 13.9517 4.43945 13.5375V3ZM5.93945 3.75V12.7875H10.7535C13.2491 12.7875 15.2722 10.7644 15.2722 8.26873C15.2722 5.77311 13.2491 3.75 10.7535 3.75H5.93945Z" fill="black"/>
<path fill-rule="evenodd" clip-rule="evenodd" d="M17.6951 11.8215C17.9426 11.8074 18.1811 11.9165 18.3322 12.1129C19.1094 13.1229 19.5719 14.3891 19.5719 15.7612C19.5719 19.0678 16.8913 21.7483 13.5848 21.7483H5.17871C4.7645 21.7483 4.42871 21.4125 4.42871 20.9983V16.2581C4.42871 15.8439 4.7645 15.5081 5.17871 15.5081H11.2193C13.7124 15.5081 15.8953 14.1772 17.0952 12.1836C17.2231 11.9712 17.4476 11.8357 17.6951 11.8215ZM17.6874 13.9407C16.1564 15.812 13.8278 17.0081 11.2193 17.0081H5.92871V20.2483H13.5848C16.0629 20.2483 18.0719 18.2394 18.0719 15.7612C18.0719 15.1126 17.9346 14.4968 17.6874 13.9407Z" fill="black"/>
</svg>