<svg width="24" height="24" viewBox="0 0 24 24" fill="none" xmlns="http://www.w3.org/2000/svg">
<path d="M16.0951 13.8034C16.0951 15.7906 14.4841 17.4016 12.4969 17.4016C12.3915 17.4016 11.2935 17.3882 11.1903 17.3793C9.34961 17.2207 7.905 15.6763 7.905 13.7945V4.79886C7.905 3.80524 7.0995 2.99973 6.10588 2.99973C5.11226 2.99973 4.30676 3.80524 4.30676 4.79886V13.7945C4.30676 17.6641 7.36102 20.8205 11.1903 20.9843C11.2941 20.9887 12.3921 20.9998 12.4969 20.9998C16.4714 20.9998 19.6934 17.7779 19.6934 13.8034C19.6934 10.0006 17.4427 7.52371 13.757 6.84907C13.6138 6.81204 13.4637 6.79235 13.3089 6.79235C12.3235 6.79235 11.5246 7.5912 11.5246 8.57663C11.5246 9.44284 12.1419 10.1649 12.9606 10.3269C12.9757 10.3303 12.9909 10.3336 13.0061 10.3366C14.9039 10.7171 16.0951 11.9143 16.0951 13.8034Z" stroke="black" stroke-width="1.5" stroke-linecap="round" stroke-linejoin="round"/>
</svg>