<svg width="25" height="24" viewBox="0 0 25 24" fill="none" xmlns="http://www.w3.org/2000/svg">
<path fill-rule="evenodd" clip-rule="evenodd" d="M10.073 7.22517C10.868 8.45617 12.422 9.20217 12.501 9.23817C12.567 9.26917 12.64 9.28517 12.712 9.28517C12.783 9.28517 12.855 9.26917 12.922 9.23917C12.999 9.20317 14.54 8.46717 15.345 7.22417C15.9264 7.32108 17.1435 7.57009 18.6069 8.01399C18.6908 8.03946 18.748 8.11702 18.748 8.20475V11.5588C18.748 11.6717 18.6546 11.7622 18.5417 11.7603C18.3323 11.7567 18.0912 11.7562 17.796 11.7562H7.62198C7.32908 11.7562 7.08923 11.7567 6.88025 11.7603C6.76736 11.7622 6.67398 11.6717 6.67398 11.5588V8.20476C6.67398 8.11702 6.73116 8.03946 6.81512 8.01399C8.27545 7.57106 9.48968 7.32207 10.073 7.22517ZM22.109 14.4282C21.861 13.4052 21.172 12.5742 20.248 12.1182V4.94517C20.248 4.53117 19.912 4.19517 19.498 4.19517C19.084 4.19517 18.748 4.53117 18.748 4.94517V6.22251C18.748 6.35584 18.6199 6.45181 18.4916 6.41549C17.3786 6.10039 16.434 5.89477 15.816 5.78417C15.83 5.36817 15.756 4.95917 15.572 4.60317C15.314 4.10417 14.895 3.75017 14.359 3.57917C14.038 3.47617 13.686 3.44917 13.335 3.50517C13.102 3.55017 12.897 3.65317 12.712 3.77017C12.527 3.65417 12.318 3.55017 12.089 3.51417C11.755 3.45117 11.4 3.47317 11.064 3.57917C10.468 3.76917 10.007 4.19817 9.76698 4.78417C9.63998 5.09717 9.58998 5.43917 9.60098 5.78517C8.98306 5.89575 8.0405 6.10044 6.93053 6.41529C6.80221 6.45169 6.67398 6.35571 6.67398 6.22232V4.94517C6.67398 4.53117 6.33798 4.19517 5.92398 4.19517C5.50998 4.19517 5.17398 4.53117 5.17398 4.94517V12.1152C4.24898 12.5682 3.55698 13.4022 3.30698 14.4282C3.20898 14.8362 3.20898 15.2802 3.20898 16.1662C3.20898 16.6412 3.20898 16.9042 3.26798 17.1542C3.45598 17.9182 4.04798 18.5072 4.80198 18.6892C4.91698 18.7202 5.03498 18.7352 5.17398 18.7442V19.7752C5.17398 20.1892 5.50998 20.5252 5.92398 20.5252C6.33798 20.5252 6.67398 20.1892 6.67398 19.7752V18.9562C6.67398 18.8457 6.76353 18.7562 6.87398 18.7562H18.548C18.6584 18.7562 18.748 18.8457 18.748 18.9562V19.7752C18.748 20.1892 19.084 20.5252 19.498 20.5252C19.912 20.5252 20.248 20.1892 20.248 19.7752V18.7442C20.383 18.7362 20.497 18.7212 20.606 18.6922C21.371 18.5072 21.963 17.9172 22.149 17.1532C22.209 16.9052 22.209 16.6422 22.209 16.1662C22.209 15.2802 22.209 14.8352 22.109 14.4282Z" fill="black"/>
</svg>