<svg width="25" height="24" viewBox="0 0 25 24" fill="none" xmlns="http://www.w3.org/2000/svg">
<path d="M13.1582 3.64062H14.8008L13.1582 5.92522H14.8008" stroke="black" stroke-width="1.5" stroke-linecap="round" stroke-linejoin="round"/>
<path d="M16.8848 5.19873H19.3079L16.8848 8.56895H19.3079" stroke="black" stroke-width="1.5" stroke-linecap="round" stroke-linejoin="round"/>
<path opacity="0.4" d="M18.9023 18.8779V20.3999" stroke="black" stroke-width="1.5" stroke-linecap="round" stroke-linejoin="round"/>
<path opacity="0.4" d="M5.32812 18.8779V20.3999" stroke="black" stroke-width="1.5" stroke-linecap="round" stroke-linejoin="round"/>
<path d="M3.11328 16.791C3.11328 15.9421 3.1133 15.5177 3.1983 15.1676C3.4633 14.0788 4.31428 13.2286 5.40228 12.9632C5.75228 12.8779 6.17731 12.8779 7.02631 12.8779H17.2003C18.0493 12.8779 18.4733 12.8779 18.8233 12.9632C19.9123 13.2286 20.7623 14.0788 21.0273 15.1676C21.1133 15.5177 21.1133 15.9421 21.1133 16.791C21.1133 17.2437 21.1133 17.4701 21.0673 17.6568C20.9263 18.2375 20.4723 18.6909 19.8923 18.8324C19.7053 18.8779 19.4783 18.8779 19.0263 18.8779H5.20032C4.74732 18.8779 4.52129 18.8779 4.33429 18.8324C3.75329 18.6909 3.30026 18.2375 3.15826 17.6568C3.11326 17.4701 3.11328 17.2437 3.11328 16.791Z" stroke="black" stroke-width="1.5" stroke-linecap="round" stroke-linejoin="round"/>
<path opacity="0.4" d="M18.9023 11.6299V12.9215" stroke="black" stroke-width="1.5" stroke-linecap="round" stroke-linejoin="round"/>
<path opacity="0.4" d="M5.32715 12.9212V7.8431C5.32715 7.22858 5.32715 6.92131 5.41583 6.675C5.56726 6.25438 5.89842 5.92322 6.31904 5.77178C6.56536 5.68311 6.87262 5.68311 7.48715 5.68311H9.87645" stroke="black" stroke-width="1.5" stroke-linecap="round" stroke-linejoin="round"/>
</svg>