<svg width="24" height="24" viewBox="0 0 24 24" fill="none" xmlns="http://www.w3.org/2000/svg">
<path d="M14.6861 6.65665H13.0432C12.9051 6.65669 12.7697 6.61863 12.6519 6.54666C12.5342 6.4747 12.4385 6.37162 12.3756 6.24879C12.3126 6.12595 12.2847 5.98812 12.2951 5.85047C12.3054 5.71283 12.3535 5.5807 12.4341 5.46865L13.2231 4.36865H13.0432C12.8442 4.36865 12.6535 4.28963 12.5128 4.14898C12.3722 4.00833 12.2932 3.81756 12.2932 3.61865C12.2932 3.41974 12.3722 3.22897 12.5128 3.08832C12.6535 2.94767 12.8442 2.86865 13.0432 2.86865H14.6861C14.8242 2.86862 14.9595 2.90668 15.0773 2.97864C15.1951 3.05061 15.2908 3.15368 15.3537 3.27652C15.4167 3.39935 15.4445 3.53718 15.4342 3.67483C15.4239 3.81248 15.3757 3.9446 15.2951 4.05665L14.5061 5.15665H14.6861C14.885 5.15665 15.0758 5.23567 15.2165 5.37632C15.3571 5.51697 15.4361 5.70774 15.4361 5.90665C15.4361 6.10556 15.3571 6.29633 15.2165 6.43698C15.0758 6.57763 14.885 6.65665 14.6861 6.65665Z" fill="black"/>
<path d="M19.1947 9.30066H16.7717C16.6338 9.30052 16.4985 9.26238 16.3808 9.19041C16.2631 9.11844 16.1674 9.01544 16.1044 8.8927C16.0414 8.76996 16.0134 8.63223 16.0235 8.49463C16.0336 8.35703 16.0814 8.22487 16.1617 8.11266L17.7317 5.93066H16.7717C16.5728 5.93066 16.3821 5.85165 16.2414 5.71099C16.1007 5.57034 16.0217 5.37958 16.0217 5.18066C16.0217 4.98175 16.1007 4.79099 16.2414 4.65033C16.3821 4.50968 16.5728 4.43066 16.7717 4.43066H19.1947C19.3328 4.43063 19.4681 4.46869 19.5859 4.54065C19.7037 4.61262 19.7993 4.71569 19.8623 4.83853C19.9253 4.96136 19.9532 5.0992 19.9428 5.23684C19.9325 5.37449 19.8843 5.50661 19.8037 5.61866L18.2347 7.80066H19.1947C19.3937 7.80066 19.5844 7.87968 19.725 8.02033C19.8657 8.16099 19.9447 8.35175 19.9447 8.55066C19.9447 8.74958 19.8657 8.94034 19.725 9.08099C19.5844 9.22165 19.3937 9.30066 19.1947 9.30066Z" fill="black"/>
<path d="M18.7871 21.1314C18.5882 21.1314 18.3974 21.0524 18.2568 20.9117C18.1161 20.7711 18.0371 20.5803 18.0371 20.3814V18.8594C18.0371 18.6605 18.1161 18.4697 18.2568 18.329C18.3974 18.1884 18.5882 18.1094 18.7871 18.1094C18.986 18.1094 19.1768 18.1884 19.3174 18.329C19.4581 18.4697 19.5371 18.6605 19.5371 18.8594V20.3814C19.5371 20.5803 19.4581 20.7711 19.3174 20.9117C19.1768 21.0524 18.986 21.1314 18.7871 21.1314Z" fill="black"/>
<path d="M5.21484 21.1314C5.01593 21.1314 4.82516 21.0524 4.68451 20.9117C4.54386 20.7711 4.46484 20.5803 4.46484 20.3814V18.8594C4.46484 18.6605 4.54386 18.4697 4.68451 18.329C4.82516 18.1884 5.01593 18.1094 5.21484 18.1094C5.41376 18.1094 5.60453 18.1884 5.74518 18.329C5.88583 18.4697 5.96484 18.6605 5.96484 18.8594V20.3814C5.96484 20.5803 5.88583 20.7711 5.74518 20.9117C5.60453 21.0524 5.41376 21.1314 5.21484 21.1314Z" fill="black"/>
<path d="M18.7871 13.6523C18.5882 13.6523 18.3974 13.5733 18.2568 13.4327C18.1161 13.292 18.0371 13.1012 18.0371 12.9023V11.6113C18.0371 11.4124 18.1161 11.2216 18.2568 11.081C18.3974 10.9403 18.5882 10.8613 18.7871 10.8613C18.986 10.8613 19.1768 10.9403 19.3174 11.081C19.4581 11.2216 19.5371 11.4124 19.5371 11.6113V12.9023C19.5371 13.1012 19.4581 13.292 19.3174 13.4327C19.1768 13.5733 18.986 13.6523 18.7871 13.6523Z" fill="black"/>
<path d="M18.9139 19.6097H5.08787C4.73882 19.6286 4.38876 19.6064 4.04487 19.5437C3.62591 19.4424 3.243 19.2275 2.9383 18.9226C2.6336 18.6177 2.41891 18.2347 2.31785 17.8157C2.25416 17.4719 2.23168 17.1218 2.25086 16.7727C2.21656 16.1706 2.25246 15.5665 2.35786 14.9727C2.51869 14.3041 2.86107 13.693 3.34721 13.2067C3.83335 12.7204 4.44436 12.3778 5.11286 12.2167C5.70669 12.1114 6.31073 12.0755 6.91285 12.1097H17.0879C17.69 12.0756 18.294 12.1115 18.8879 12.2167C19.5561 12.3779 20.167 12.7204 20.6531 13.2065C21.1391 13.6926 21.4817 14.3034 21.6429 14.9717C21.7482 15.5655 21.7841 16.1696 21.7499 16.7717C21.7691 17.1215 21.7466 17.4723 21.6829 17.8167C21.5812 18.2351 21.3663 18.6174 21.0616 18.9217C20.757 19.226 20.3744 19.4405 19.9558 19.5417C19.6124 19.6056 19.2627 19.6285 18.9139 19.6097ZM6.91386 13.6097C6.43092 13.5849 5.9467 13.6064 5.46784 13.6737C5.06683 13.7703 4.70028 13.9758 4.40861 14.2675C4.11693 14.5591 3.91148 14.9257 3.81486 15.3267C3.74751 15.8056 3.72609 16.2898 3.75086 16.7727C3.74069 17.003 3.74904 17.2337 3.77586 17.4627C3.81264 17.6138 3.89033 17.7519 4.0004 17.8618C4.11047 17.9717 4.24866 18.0492 4.39985 18.0857C4.62822 18.1115 4.85826 18.1195 5.08787 18.1097H18.9139C19.1435 18.1195 19.3735 18.1115 19.6018 18.0857C19.7533 18.0489 19.8918 17.9711 20.002 17.8608C20.1122 17.7506 20.19 17.6122 20.2268 17.4607C20.2526 17.2323 20.2606 17.0023 20.2509 16.7727C20.2756 16.2901 20.2542 15.8062 20.1869 15.3277C20.0901 14.9267 19.8846 14.5601 19.593 14.2682C19.3013 13.9764 18.9348 13.7707 18.5339 13.6737C18.055 13.6064 17.5708 13.585 17.0879 13.6097H6.91386Z" fill="black"/>
<path d="M5.21428 13.6525C5.01537 13.6525 4.8246 13.5735 4.68395 13.4329C4.5433 13.2922 4.46428 13.1014 4.46428 12.9025V7.82452C4.42621 7.34607 4.47121 6.86463 4.59728 6.40152C4.70947 6.08996 4.8891 5.80704 5.12334 5.57297C5.35758 5.33891 5.64065 5.15948 5.95229 5.04752C6.41504 4.92137 6.89616 4.87637 7.37429 4.91452H9.76329C9.96221 4.91452 10.1529 4.99354 10.2936 5.13419C10.4342 5.27484 10.5133 5.46561 10.5133 5.66452C10.5133 5.86343 10.4342 6.0542 10.2936 6.19485C10.1529 6.3355 9.96221 6.41452 9.76329 6.41452H7.37429C7.06923 6.39551 6.763 6.4106 6.46129 6.45952C6.35716 6.49637 6.26256 6.55597 6.18437 6.63399C6.10618 6.71201 6.04635 6.80648 6.00926 6.91052C5.96042 7.21258 5.94534 7.51913 5.96428 7.82452V12.9025C5.96428 13.1014 5.88527 13.2922 5.74462 13.4329C5.60396 13.5735 5.41319 13.6525 5.21428 13.6525Z" fill="black"/>
</svg>