<svg width="24" height="24" viewBox="0 0 24 24" fill="none" xmlns="http://www.w3.org/2000/svg">
<path d="M19 9.38623V10.8594" stroke="black" stroke-width="1.5" stroke-linecap="round" stroke-linejoin="round"/>
<path d="M5 6.86719L5 10.8672" stroke="black" stroke-width="1.5" stroke-linecap="round" stroke-linejoin="round"/>
<path d="M3 13.0272C3 12.4127 3 12.1054 3.08868 11.8591C3.24011 11.4385 3.57127 11.1073 3.99189 10.9559C4.23821 10.8672 4.54547 10.8672 5.16 10.8672H18.84C19.4545 10.8672 19.7618 10.8672 20.0081 10.9559C20.4287 11.1073 20.7599 11.4385 20.9113 11.8591C21 12.1054 21 12.4127 21 13.0272V13.6896C21 14.3041 21 14.6114 20.9113 14.8577C20.7599 15.2783 20.4287 15.6095 20.0081 15.7609C19.7618 15.8496 19.4545 15.8496 18.84 15.8496H5.16C4.54547 15.8496 4.23821 15.8496 3.99189 15.7609C3.57127 15.6095 3.24011 15.2783 3.08868 14.8577C3 14.6114 3 14.3041 3 13.6896V13.0272Z" stroke="black" stroke-width="1.5" stroke-linecap="round" stroke-linejoin="round"/>
<path d="M5.00586 17.3945L5.33398 15.8555" stroke="black" stroke-width="1.5" stroke-linecap="round" stroke-linejoin="round"/>
<path d="M18.9941 17.3945L18.666 15.8555" stroke="black" stroke-width="1.5" stroke-linecap="round" stroke-linejoin="round"/>
<path d="M8.8574 10.8662C8.8574 9.1673 7.48014 7.79004 5.7812 7.79004H5.00879" stroke="black" stroke-width="1.5" stroke-linecap="round" stroke-linejoin="round"/>
</svg>