<svg width="24" height="24" viewBox="0 0 24 24" fill="none" xmlns="http://www.w3.org/2000/svg">
<path fill-rule="evenodd" clip-rule="evenodd" d="M12 3.75C7.44329 3.75 3.75 7.44329 3.75 12C3.75 16.5567 7.44329 20.25 12 20.25C16.5567 20.25 20.25 16.5567 20.25 12C20.25 7.44329 16.5567 3.75 12 3.75ZM2.25 12C2.25 6.61487 6.61487 2.25 12 2.25C17.3851 2.25 21.75 6.61487 21.75 12C21.75 17.3851 17.3851 21.75 12 21.75C6.61487 21.75 2.25 17.3851 2.25 12Z" fill="black"/>
<path fill-rule="evenodd" clip-rule="evenodd" d="M14.1645 13.6859H17.1516C17.6739 13.6859 18.0972 13.2626 18.0972 12.7404V12.7053C18.0972 11.1615 16.8459 9.91016 15.302 9.91016C13.7589 9.91016 12.5078 11.1617 12.5078 12.7053V13.0479C12.5078 14.6366 13.7972 15.9256 15.3857 15.9256C16.1179 15.9256 16.8522 15.6464 17.4125 15.09C17.7065 14.7981 17.7081 14.3233 17.4163 14.0293C17.1244 13.7354 16.6496 13.7337 16.3556 14.0256C16.087 14.2923 15.7374 14.4256 15.3857 14.4256C14.8556 14.4256 14.3949 14.1254 14.1645 13.6859ZM14.1161 12.1859H16.4889C16.2888 11.7292 15.8327 11.4102 15.302 11.4102C14.7722 11.4102 14.3162 11.7291 14.1161 12.1859Z" fill="black"/>
<path fill-rule="evenodd" clip-rule="evenodd" d="M7.31474 7.98829H9.30853C10.6144 7.98829 11.6746 9.0464 11.6746 10.3534C11.6746 10.9786 11.4325 11.5473 11.0367 11.9705C11.4325 12.3937 11.6746 12.9624 11.6746 13.5876C11.6746 14.895 10.6159 15.9537 9.30853 15.9537H7.31326C6.72247 15.9537 6.24023 15.4754 6.24023 14.8807V9.05527C6.24344 8.46865 6.71894 7.98645 7.31474 7.98829ZM9.30853 11.2205C9.78692 11.2205 10.1746 10.833 10.1746 10.3534C10.1746 9.87601 9.78712 9.48829 9.30853 9.48829H7.74023V11.2205H9.30853ZM7.74023 12.7205H9.30853C9.78692 12.7205 10.1746 13.108 10.1746 13.5876C10.1746 14.0666 9.78751 14.4537 9.30853 14.4537H7.74023V12.7205ZM7.30916 9.48829H7.31326C7.3119 9.48829 7.31053 9.48829 7.30916 9.48829Z" fill="black"/>
</svg>