<svg width="24" height="25" viewBox="0 0 24 25" fill="none" xmlns="http://www.w3.org/2000/svg">
<path fill-rule="evenodd" clip-rule="evenodd" d="M9.53988 9.99805H7.43188V11.728H9.53988C10.0179 11.728 10.4059 11.338 10.4059 10.858C10.4059 10.384 10.0179 9.99805 9.53988 9.99805Z" fill="black"/>
<path fill-rule="evenodd" clip-rule="evenodd" d="M9.53988 13.2285H7.43188V14.9585H9.53988C10.0179 14.9585 10.4059 14.5735 10.4059 14.0985C10.4059 13.6195 10.0179 13.2285 9.53988 13.2285Z" fill="black"/>
<path fill-rule="evenodd" clip-rule="evenodd" d="M15.2176 11.8791C14.6536 11.8791 14.1686 12.2271 13.9666 12.7191H16.4606C16.2556 12.2191 15.7756 11.8791 15.2176 11.8791Z" fill="black"/>
<path fill-rule="evenodd" clip-rule="evenodd" d="M17.117 14.2188H14.013C14.248 14.6928 14.738 15.0188 15.303 15.0188C15.684 15.0188 16.045 14.8708 16.315 14.6048C16.608 14.3158 17.085 14.3158 17.376 14.6128C17.667 14.9068 17.663 15.3818 17.368 15.6728C16.815 16.2178 16.082 16.5188 15.303 16.5188C13.683 16.5188 12.367 15.2038 12.367 13.5888V13.2288C12.367 11.6568 13.645 10.3788 15.218 10.3788C16.79 10.3788 18.068 11.6568 18.068 13.2288C18.068 13.7928 17.641 14.2188 17.117 14.2188ZM11.906 14.0988C11.906 15.4008 10.845 16.4588 9.54 16.4588H7.005C6.413 16.4588 5.931 15.9788 5.931 15.3888V9.56879C5.934 8.97679 6.416 8.49779 7.005 8.49779H9.54C10.845 8.49779 11.906 9.55679 11.906 10.8588C11.906 11.4848 11.663 12.0548 11.265 12.4788C11.663 12.9028 11.906 13.4728 11.906 14.0988ZM14.004 8.51879H16.43C16.844 8.51879 17.179 8.85479 17.179 9.26879C17.179 9.68279 16.844 10.0188 16.43 10.0188H14.004C13.59 10.0188 13.254 9.68279 13.254 9.26879C13.254 8.85479 13.59 8.51879 14.004 8.51879ZM16.217 3.00879H7.782C4.623 3.00879 2.5 5.23179 2.5 8.53879V16.4788C2.5 19.7858 4.623 22.0088 7.782 22.0088H16.216C19.376 22.0088 21.5 19.7858 21.5 16.4788V8.53879C21.5 5.23179 19.377 3.00879 16.217 3.00879Z" fill="black"/>
</svg>