<svg width="24" height="24" viewBox="0 0 24 24" fill="none" xmlns="http://www.w3.org/2000/svg">
<path fill-rule="evenodd" clip-rule="evenodd" d="M2.25 7.0229C2.25232 6.30596 2.83496 5.73047 3.54777 5.73047H7.83656C9.76045 5.73047 11.3215 7.28989 11.3215 9.21447C11.3215 10.3236 10.8033 11.3119 9.99568 11.9504C10.8033 12.5889 11.3215 13.5772 11.3215 14.6864C11.3215 16.6116 9.76177 18.1714 7.83656 18.1714H3.54777C2.83321 18.1714 2.25231 17.5932 2.25 16.8779L2.25 16.8755L2.25 7.0229ZM7.83608 11.2004C8.93316 11.1997 9.82154 10.3104 9.82154 9.21447C9.82154 8.11901 8.93272 7.23047 7.83656 7.23047H3.75V11.2086C3.78624 11.2032 3.82333 11.2004 3.86107 11.2004H7.83608ZM3.75 12.6923V16.6714H7.83656C8.93335 16.6714 9.82154 15.7832 9.82154 14.6864C9.82154 13.5905 8.93316 12.7011 7.83608 12.7004H3.86107C3.82333 12.7004 3.78624 12.6976 3.75 12.6923Z" fill="black"/>
<path fill-rule="evenodd" clip-rule="evenodd" d="M14.6445 6.51562C14.6445 6.10141 14.9803 5.76562 15.3945 5.76562H19.4994C19.9136 5.76562 20.2494 6.10141 20.2494 6.51562C20.2494 6.92984 19.9136 7.26562 19.4994 7.26562H15.3945C14.9803 7.26562 14.6445 6.92984 14.6445 6.51562Z" fill="black"/>
<path fill-rule="evenodd" clip-rule="evenodd" d="M14.6622 12.876H20.2275C20.0556 11.4926 18.8758 10.4219 17.4448 10.4219C16.0146 10.4219 14.8341 11.4927 14.6622 12.876ZM14.6931 14.376C14.9533 15.7385 16.1513 16.7682 17.5898 16.7682C18.3403 16.7682 19.0892 16.4832 19.6647 15.9132C19.9589 15.6217 20.4338 15.624 20.7253 15.9182C21.0168 16.2125 21.0145 16.6874 20.7203 16.9789C19.8538 17.8372 18.721 18.2682 17.5898 18.2682C15.1336 18.2682 13.1418 16.2779 13.1406 13.8215L13.1406 13.2251C13.1406 10.8482 15.0684 8.92188 17.4448 8.92188C19.8223 8.92188 21.749 10.8483 21.749 13.2251V13.2854C21.749 13.8874 21.2605 14.376 20.6585 14.376H14.6931Z" fill="black"/>
</svg>