<svg width="25" height="25" viewBox="0 0 25 25" fill="none" xmlns="http://www.w3.org/2000/svg">
<path fill-rule="evenodd" clip-rule="evenodd" d="M6.91837 13.4253C5.3066 13.4253 4 14.7319 4 16.3437C4 17.9554 5.3066 19.262 6.91837 19.262C8.53014 19.262 9.83675 17.9554 9.83675 16.3437C9.83675 14.7319 8.53014 13.4253 6.91837 13.4253ZM2.5 16.3437C2.5 13.9035 4.47817 11.9253 6.91837 11.9253C9.35857 11.9253 11.3367 13.9035 11.3367 16.3437C11.3367 18.7838 9.35857 20.762 6.91837 20.762C4.47817 20.762 2.5 18.7838 2.5 16.3437Z" fill="black"/>
<path fill-rule="evenodd" clip-rule="evenodd" d="M17.5815 13.4253C15.9697 13.4253 14.6631 14.7319 14.6631 16.3437C14.6631 17.9554 15.9697 19.262 17.5815 19.262C19.1932 19.262 20.4998 17.9554 20.4998 16.3437C20.4998 14.7319 19.1932 13.4253 17.5815 13.4253ZM13.1631 16.3437C13.1631 13.9035 15.1413 11.9253 17.5815 11.9253C20.0216 11.9253 21.9998 13.9035 21.9998 16.3437C21.9998 18.7838 20.0216 20.762 17.5815 20.762C15.1413 20.762 13.1631 18.7838 13.1631 16.3437Z" fill="black"/>
<path fill-rule="evenodd" clip-rule="evenodd" d="M8.07039 10.8684C8.07039 10.4542 8.40618 10.1184 8.82039 10.1184H15.9388C16.353 10.1184 16.6888 10.4542 16.6888 10.8684C16.6888 11.2826 16.353 11.6184 15.9388 11.6184H9.55441C9.51832 12.3854 9.41233 13.124 9.15051 13.8591C8.80137 14.8395 8.19558 15.7588 7.21253 16.7296C6.9178 17.0206 6.44293 17.0177 6.15189 16.7229C5.86085 16.4282 5.86383 15.9533 6.15856 15.6623C7.01819 14.8134 7.47982 14.0793 7.73744 13.3559C7.99813 12.6239 8.07039 11.8476 8.07039 10.8684Z" fill="black"/>
<path fill-rule="evenodd" clip-rule="evenodd" d="M17.7495 5.46385C17.9117 5.84499 17.7342 6.28545 17.3531 6.44763L15.6565 7.1696L18.2997 15.9804C18.4187 16.3772 18.1936 16.7953 17.7969 16.9143C17.4001 17.0333 16.982 16.8082 16.863 16.4114L14.0269 6.95778C13.9171 6.5918 14.1 6.20177 14.4516 6.05216L16.7658 5.0674C17.1469 4.90521 17.5874 5.08271 17.7495 5.46385Z" fill="black"/>
<path fill-rule="evenodd" clip-rule="evenodd" d="M5.07129 8.27856C5.07129 7.86435 5.40708 7.52856 5.82129 7.52856H8.56876C8.98297 7.52856 9.31876 7.86435 9.31876 8.27856C9.31876 8.69278 8.98297 9.02856 8.56876 9.02856H5.82129C5.40708 9.02856 5.07129 8.69278 5.07129 8.27856Z" fill="black"/>
<path fill-rule="evenodd" clip-rule="evenodd" d="M6.49142 7.67274C6.82597 7.42851 7.29517 7.50172 7.5394 7.83627L9.43013 10.4262C9.67437 10.7607 9.60115 11.2299 9.2666 11.4742C8.93205 11.7184 8.46286 11.6452 8.21862 11.3106L6.32789 8.72072C6.08366 8.38617 6.15687 7.91697 6.49142 7.67274Z" fill="black"/>
</svg>