<svg width="25" height="25" viewBox="0 0 25 25" fill="none" xmlns="http://www.w3.org/2000/svg">
<path opacity="0.4" d="M3.25 16.3437C3.25 18.3696 4.89239 20.012 6.91837 20.012C8.94436 20.012 10.5867 18.3696 10.5867 16.3437C10.5867 14.3177 8.94436 12.6753 6.91837 12.6753C4.89239 12.6753 3.25 14.3177 3.25 16.3437Z" stroke="black" stroke-width="1.5" stroke-miterlimit="10" stroke-linecap="round" stroke-linejoin="round"/>
<path opacity="0.4" d="M13.9133 16.3437C13.9133 18.3696 15.5557 20.012 17.5816 20.012C19.6076 20.012 21.25 18.3696 21.25 16.3437C21.25 14.3177 19.6076 12.6753 17.5816 12.6753C15.5557 12.6753 13.9133 14.3177 13.9133 16.3437Z" stroke="black" stroke-width="1.5" stroke-miterlimit="10" stroke-linecap="round" stroke-linejoin="round"/>
<path d="M15.9388 10.8684H8.82039C8.82039 12.889 8.52822 14.3763 6.68555 16.1959" stroke="black" stroke-width="1.5" stroke-miterlimit="10" stroke-linecap="round" stroke-linejoin="round"/>
<path d="M17.5815 16.196L14.7454 6.74232L17.0596 5.75757" stroke="black" stroke-width="1.5" stroke-miterlimit="10" stroke-linecap="round" stroke-linejoin="round"/>
<path d="M8.56864 8.27856H5.82117" stroke="black" stroke-width="1.5" stroke-miterlimit="10" stroke-linecap="round" stroke-linejoin="round"/>
<path d="M8.82445 10.8685L6.93372 8.27856" stroke="black" stroke-width="1.5" stroke-miterlimit="10" stroke-linecap="round" stroke-linejoin="round"/>
</svg>