<svg width="24" height="24" viewBox="0 0 24 24" fill="none" xmlns="http://www.w3.org/2000/svg">
<path fill-rule="evenodd" clip-rule="evenodd" d="M4.25 17C4.25 18.5188 5.48122 19.75 7 19.75H15C16.5188 19.75 17.75 18.5188 17.75 17C17.75 15.4812 16.5188 14.25 15 14.25H13.6391L18.9445 8.94454C20.0185 7.8706 20.0185 6.1294 18.9445 5.05546C17.8706 3.98151 16.1294 3.98151 15.0555 5.05546L9.75 10.3609V9C9.75 7.48122 8.51878 6.25 7 6.25C5.48122 6.25 4.25 7.48122 4.25 9V17ZM7 18.25C6.30964 18.25 5.75 17.6904 5.75 17V9C5.75 8.30964 6.30964 7.75 7 7.75C7.69036 7.75 8.25 8.30964 8.25 9V12.1716C8.25 12.4749 8.43273 12.7484 8.71299 12.8645C8.99324 12.9806 9.31583 12.9164 9.53033 12.7019L16.1161 6.11612C16.6043 5.62796 17.3957 5.62796 17.8839 6.11612C18.372 6.60427 18.372 7.39573 17.8839 7.88388L11.2981 14.4697C11.0836 14.6842 11.0194 15.0068 11.1355 15.287C11.2516 15.5673 11.5251 15.75 11.8284 15.75H15C15.6904 15.75 16.25 16.3096 16.25 17C16.25 17.6904 15.6904 18.25 15 18.25H7Z" fill="black"/>
</svg>