<svg width="24" height="24" viewBox="0 0 24 24" fill="none" xmlns="http://www.w3.org/2000/svg">
<path fill-rule="evenodd" clip-rule="evenodd" d="M4.40336 6.95021C3.86555 7.48802 3.86555 8.35998 4.40336 8.89779L9.79668 14.2911C10.0035 14.498 10.0035 14.8333 9.79668 15.0402C9.2111 15.6258 8.62552 16.2114 8.03995 16.797C7.16774 17.6692 7.79396 19.1645 9.02746 19.1612C11.948 19.1535 14.8686 19.1659 17.7892 19.1609C18.5468 19.1596 19.1598 18.5452 19.1602 17.7876C19.1617 14.8648 19.1543 11.942 19.1603 9.01922C19.1628 7.78781 17.6716 7.16536 16.8008 8.03609C16.2139 8.62295 15.6271 9.20981 15.0402 9.79668C14.8333 10.0035 14.498 10.0035 14.2911 9.79668L8.89779 4.40336C8.35998 3.86555 7.48802 3.86555 6.95021 4.40336L4.40336 6.95021Z" stroke="black" stroke-width="1.5" stroke-linecap="round" stroke-linejoin="round"/>
</svg>