<svg width="24" height="24" viewBox="0 0 24 24" fill="none" xmlns="http://www.w3.org/2000/svg">
<path fill-rule="evenodd" clip-rule="evenodd" d="M4.18461 17.2659C3.6468 16.7281 3.6468 15.8561 4.18461 15.3183L9.57793 9.92502C9.78478 9.71816 9.78478 9.38279 9.57793 9.17594C8.99235 8.59035 8.40677 8.00476 7.8212 7.41916C6.94899 6.54694 7.57521 5.05166 8.80871 5.05493C11.7293 5.06267 14.6499 5.05026 17.5704 5.05523C18.3281 5.05652 18.941 5.67093 18.9414 6.42853C18.9429 9.35133 18.9355 12.2741 18.9416 15.1969C18.9441 16.4283 17.4528 17.0508 16.5821 16.18C15.9952 15.5932 15.4083 15.0063 14.8214 14.4194C14.6146 14.2126 14.2792 14.2126 14.0724 14.4194L8.67904 19.8128C8.14123 20.3506 7.26927 20.3506 6.73146 19.8128L4.18461 17.2659Z" stroke="black" stroke-width="1.5" stroke-linecap="round" stroke-linejoin="round"/>
</svg>