<svg width="24" height="24" viewBox="0 0 24 24" fill="none" xmlns="http://www.w3.org/2000/svg">
<path fill-rule="evenodd" clip-rule="evenodd" d="M8.81406 4.30364C10.1522 2.95843 12.4658 3.89817 12.4658 5.80604L12.4659 8.07015L19.8728 8.07015C21.0476 8.07015 22 9.02251 22 10.1973V13.7991C22 14.9739 21.0476 15.9262 19.8728 15.9262H12.4659L12.4658 18.1958C12.4658 20.0995 10.1594 21.0424 8.82083 19.6983C7.58087 18.4532 6.3388 17.2128 5.09586 15.9717C4.27134 15.1483 3.44645 14.3246 2.62155 13.4988C1.79418 12.6706 1.79221 11.3287 2.61929 10.4988C3.57939 9.53545 4.53669 8.58018 5.49314 7.62576C6.60025 6.521 7.70621 5.41738 8.81406 4.30364ZM10.9658 5.80606C10.9658 5.24693 10.2792 4.95764 9.87752 5.36148C8.77393 6.47095 7.66021 7.58233 6.54764 8.69257C5.58909 9.64912 4.63139 10.6048 3.68175 11.5577C3.43923 11.801 3.43927 12.195 3.68276 12.4387C4.50471 13.2615 5.32868 14.0843 6.15302 14.9075C7.3976 16.1503 8.64302 17.394 9.88368 18.6398C10.283 19.0408 10.9658 18.7549 10.9658 18.1958L10.9659 15.7059C10.9659 14.9992 11.5388 14.4262 12.2455 14.4262H19.8728C20.2192 14.4262 20.5 14.1455 20.5 13.7991V10.1973C20.5 9.85094 20.2192 9.57015 19.8728 9.57015L12.2455 9.57015C11.5388 9.57015 10.9659 8.99722 10.9659 8.29048L10.9658 5.80606Z" fill="black"/>
</svg>