<svg width="24" height="24" viewBox="0 0 24 24" fill="none" xmlns="http://www.w3.org/2000/svg">
<path fill-rule="evenodd" clip-rule="evenodd" d="M18.757 16.212C19.2948 15.6742 19.2948 14.8022 18.757 14.2644L13.3637 8.87106C13.1569 8.66421 13.1569 8.32884 13.3637 8.12199C13.9493 7.5364 14.5349 6.9508 15.1204 6.36521C15.9927 5.49298 15.3664 3.9977 14.1329 4.00097C11.2124 4.00872 8.29179 3.9963 5.37119 4.00128C4.61359 4.00257 4.00059 4.61697 4.00021 5.37458C3.9987 8.29738 4.00614 11.2202 4.00009 14.143C3.99754 15.3744 5.48882 15.9968 6.35957 15.1261C6.94645 14.5392 7.53333 13.9524 8.1202 13.3655C8.32706 13.1586 8.66243 13.1586 8.86928 13.3655L14.2626 18.7588C14.8004 19.2966 15.6724 19.2966 16.2102 18.7588L18.757 16.212Z" stroke="black" stroke-width="1.5" stroke-linecap="round" stroke-linejoin="round"/>
</svg>