<svg width="24" height="24" viewBox="0 0 24 24" fill="none" xmlns="http://www.w3.org/2000/svg">
<path fill-rule="evenodd" clip-rule="evenodd" d="M9.43362 3.25183C10.9976 3.25349 12.5601 3.25515 14.1309 3.25098C16.0283 3.24595 16.9998 5.54645 15.6508 6.89554L14.0498 8.49653L19.2874 13.7341C20.1181 14.5648 20.1181 15.9116 19.2874 16.7423L16.7405 19.2892C15.9098 20.1199 14.563 20.1199 13.7323 19.2892L8.49474 14.0516L6.88989 15.6564C5.54374 17.0026 3.24617 16.0383 3.25009 14.1414C3.25373 12.3843 3.25249 10.629 3.25125 8.87245C3.25043 7.7072 3.24961 6.54142 3.25021 5.3742C3.25081 4.20351 4.19827 3.25328 5.36992 3.25128C6.73004 3.24897 8.08243 3.2504 9.43362 3.25183ZM9.42487 4.75183C8.0707 4.75041 6.71774 4.74899 5.37247 4.75128C5.02892 4.75187 4.75038 5.03044 4.75021 5.37497C4.74961 6.53797 4.75043 7.7024 4.75125 8.86736C4.75249 10.6262 4.75373 12.3863 4.75009 14.1445C4.74892 14.7104 5.4339 14.9911 5.82924 14.5958L7.58988 12.8352C8.08962 12.3354 8.89986 12.3354 9.39961 12.8352L14.7929 18.2285C15.0378 18.4734 15.4349 18.4734 15.6799 18.2285L18.2267 15.6816C18.4716 15.4367 18.4716 15.0396 18.2267 14.7947L12.8334 9.4014C12.3336 8.90165 12.3336 8.09141 12.8334 7.59167L14.5901 5.83489C14.9855 5.43952 14.7045 4.74947 14.1349 4.75098C12.57 4.75513 10.9966 4.75348 9.42487 4.75183Z" fill="black"/>
</svg>