<svg width="24" height="24" viewBox="0 0 24 24" fill="none" xmlns="http://www.w3.org/2000/svg">
<path fill-rule="evenodd" clip-rule="evenodd" d="M6.25 7C6.25 5.48122 7.48122 4.25 9 4.25H17C18.5188 4.25 19.75 5.48122 19.75 7V15C19.75 16.5188 18.5188 17.75 17 17.75C15.4812 17.75 14.25 16.5188 14.25 15V13.6391L8.94454 18.9445C7.8706 20.0185 6.1294 20.0185 5.05546 18.9445L5.58579 18.4142L5.05546 18.9445C3.98151 17.8706 3.98151 16.1294 5.05546 15.0555L5.58579 15.5858L5.05546 15.0555L10.3609 9.75H9C7.48122 9.75 6.25 8.51878 6.25 7ZM9 5.75C8.30964 5.75 7.75 6.30964 7.75 7C7.75 7.69036 8.30964 8.25 9 8.25H12.1716C12.4749 8.25 12.7484 8.43273 12.8645 8.71299C12.9806 8.99324 12.9164 9.31583 12.7019 9.53033L6.11612 16.1161L5.59714 15.5971L6.11612 16.1161C5.62796 16.6043 5.62796 17.3957 6.11612 17.8839L5.59027 18.4097L6.11612 17.8839C6.60427 18.372 7.39573 18.372 7.88388 17.8839L14.4697 11.2981C14.6842 11.0836 15.0068 11.0194 15.287 11.1355C15.5673 11.2516 15.75 11.5251 15.75 11.8284V15C15.75 15.6904 16.3096 16.25 17 16.25C17.6904 16.25 18.25 15.6904 18.25 15V7C18.25 6.30964 17.6904 5.75 17 5.75H9Z" fill="black"/>
</svg>