<svg width="24" height="24" viewBox="0 0 24 24" fill="none" xmlns="http://www.w3.org/2000/svg">
<path fill-rule="evenodd" clip-rule="evenodd" d="M18.5966 6.78809C19.1345 7.3259 19.1345 8.19787 18.5966 8.73568L13.2033 14.129C12.9965 14.3359 12.9965 14.6712 13.2033 14.8781C13.7889 15.4637 14.3745 16.0493 14.9601 16.6349C15.8323 17.5071 15.206 19.0024 13.9725 18.9991C11.052 18.9913 8.13139 19.0038 5.2108 18.9988C4.4532 18.9975 3.8402 18.3831 3.83981 17.6255C3.83831 14.7027 3.84574 11.7799 3.8397 8.8571C3.83715 7.6257 5.32843 7.00325 6.19917 7.87397C6.78605 8.46084 7.37294 9.0477 7.95981 9.63457C8.16666 9.84142 8.50204 9.84142 8.70889 9.63457L14.1022 4.24125C14.64 3.70343 15.512 3.70343 16.0498 4.24125L18.5966 6.78809Z" stroke="black" stroke-width="1.5" stroke-linecap="round" stroke-linejoin="round"/>
</svg>