<svg width="24" height="24" viewBox="0 0 24 24" fill="none" xmlns="http://www.w3.org/2000/svg">
<path fill-rule="evenodd" clip-rule="evenodd" d="M2.75 10.1973C2.75 9.43673 3.36657 8.82016 4.12715 8.82016L11.7545 8.82016C12.047 8.82016 12.2841 8.58302 12.2841 8.29048C12.2841 7.46234 12.2842 6.6342 12.2842 5.80606C12.2842 4.57255 13.7843 3.95804 14.6542 4.83257C16.7139 6.9032 18.7878 8.95958 20.8495 11.0283C21.3843 11.5649 21.3833 12.4328 20.8478 12.9688C18.7822 15.0366 16.7102 17.098 14.6477 19.169C13.7788 20.0416 12.2842 19.4272 12.2842 18.1958C12.2842 17.3658 12.2841 16.5359 12.2841 15.7059C12.2841 15.4134 12.047 15.1762 11.7545 15.1762H4.12715C3.36657 15.1762 2.75 14.5597 2.75 13.7991V10.1973Z" stroke="black" stroke-width="1.5" stroke-linecap="round" stroke-linejoin="round"/>
</svg>