<svg width="24" height="24" viewBox="0 0 24 24" fill="none" xmlns="http://www.w3.org/2000/svg">
<path fill-rule="evenodd" clip-rule="evenodd" d="M9.26448 18.2482C10.8363 18.2466 12.4096 18.2449 13.9745 18.2491C14.5441 18.2506 14.8251 17.5605 14.4297 17.1652L12.673 15.4084C12.1732 14.9087 12.1732 14.0984 12.673 13.5987L18.0663 8.20534C18.3112 7.96043 18.3112 7.56333 18.0663 7.31842L15.5195 4.77157C15.2745 4.52665 14.8775 4.52665 14.6325 4.77157L9.23922 10.1649C8.73947 10.6646 7.92923 10.6646 7.42949 10.1649L5.66885 8.4043C5.27351 8.00897 4.58853 8.28967 4.5897 8.85555C4.59333 10.6138 4.59209 12.3739 4.59086 14.1328C4.59004 15.2977 4.58922 16.4621 4.58981 17.6251C4.58999 17.9696 4.86852 18.2482 5.21208 18.2488C6.55735 18.2511 7.91031 18.2497 9.26448 18.2482ZM9.27323 19.7482C7.92204 19.7497 6.56964 19.7511 5.20952 19.7488C4.03787 19.7468 3.09042 18.7965 3.08981 17.6259C3.08921 16.4586 3.09004 15.2928 3.09086 14.1276C3.0921 12.3711 3.09333 10.6158 3.0897 8.85865C3.08578 6.96172 5.38334 5.99751 6.7295 7.34363L8.33435 8.94844L13.5719 3.71091C14.4026 2.8802 15.7494 2.8802 16.5801 3.71091L19.127 6.25776C19.9577 7.08846 19.9577 8.4353 19.127 9.266L13.8894 14.5035L15.4904 16.1045C16.8394 17.4536 15.8679 19.7541 13.9706 19.7491C12.3997 19.7449 10.8373 19.7466 9.27323 19.7482Z" fill="black"/>
</svg>