<svg width="25" height="24" viewBox="0 0 25 24" fill="none" xmlns="http://www.w3.org/2000/svg">
<path fill-rule="evenodd" clip-rule="evenodd" d="M18.4443 5.09616C18.6319 5.46549 18.4845 5.91692 18.1152 6.10444L16.6646 6.84096L18.1744 11.8544C18.2856 11.8445 18.3983 11.8394 18.5121 11.8394C20.5764 11.8394 22.25 13.513 22.25 15.5773C22.25 17.6417 20.5764 19.3153 18.5121 19.3153C16.4485 19.3153 14.7751 17.6415 14.7751 15.5773C14.7751 14.1553 15.5693 12.9186 16.738 12.2867L16.5079 11.5226L12.8615 15.6056C12.5135 15.9946 12.0152 16.2189 11.4916 16.2189H10.17C9.8658 17.9776 8.33254 19.3153 6.48697 19.3153C4.42344 19.3153 2.75 17.6415 2.75 15.5773C2.75 13.5131 4.42344 11.8394 6.48697 11.8394C6.88502 11.8394 7.26854 11.9016 7.62834 12.0169L9.38922 10.0449L8.24203 8.47272H7.60275C7.18853 8.47272 6.85275 8.13693 6.85275 7.72272C6.85275 7.3085 7.18853 6.97272 7.60275 6.97272H8.61375C8.61965 6.97265 8.62555 6.97265 8.63144 6.97272H10.1149C10.5291 6.97272 10.8649 7.3085 10.8649 7.72272C10.8649 8.13693 10.5291 8.47272 10.1149 8.47272H10.0989L10.7335 9.34239H15.8514L15.0473 6.67261C14.9426 6.32485 15.1021 5.95202 15.4259 5.7876L17.4361 4.76697C17.8054 4.57944 18.2568 4.72683 18.4443 5.09616ZM15.1043 10.8424H10.6881L8.96161 12.7758C9.53118 13.2793 9.94606 13.9538 10.1259 14.7189H11.4916C11.5868 14.7189 11.6785 14.6782 11.743 14.6061C11.743 14.6062 11.743 14.6061 11.743 14.6061L15.1043 10.8424ZM8.55435 14.7189C8.21763 13.909 7.41878 13.3394 6.48697 13.3394C5.25218 13.3394 4.25 14.3412 4.25 15.5773C4.25 16.8134 5.25218 17.8153 6.48697 17.8153C7.4999 17.8153 8.35572 17.1422 8.63156 16.2189H6.67065C6.25644 16.2189 5.92065 15.8831 5.92065 15.4689C5.92065 15.0547 6.25644 14.7189 6.67065 14.7189H8.55435ZM17.1862 13.7748C16.6337 14.1823 16.2751 14.8379 16.2751 15.5773C16.2751 16.8134 17.2773 17.8153 18.5121 17.8153C19.748 17.8153 20.75 16.8132 20.75 15.5773C20.75 14.3784 19.8071 13.3996 18.6224 13.3421L19.2303 15.3605C19.3497 15.7571 19.125 16.1755 18.7284 16.2949C18.3318 16.4144 17.9134 16.1897 17.794 15.7931L17.1862 13.7748Z" fill="black"/>
</svg>