<svg width="24" height="24" viewBox="0 0 24 24" fill="none" xmlns="http://www.w3.org/2000/svg">
<path fill-rule="evenodd" clip-rule="evenodd" d="M21.3534 12.0318L19.3504 10.0218C19.2564 9.92776 19.1284 9.87476 18.9964 9.87476C18.8634 9.87476 18.7364 9.92776 18.6424 10.0218L10.0194 18.6518C9.92541 18.7448 9.87341 18.8728 9.87341 19.0058C9.87341 19.1378 9.92541 19.2648 10.0194 19.3588L12.0224 21.3588C12.1204 21.4558 12.2484 21.5048 12.3754 21.5048C12.5034 21.5048 12.6314 21.4558 12.7294 21.3588L21.3524 12.7388C21.5474 12.5438 21.5474 12.2268 21.3534 12.0318Z" fill="black"/>
<path fill-rule="evenodd" clip-rule="evenodd" d="M17.8144 8.69383C17.8144 8.56183 17.7614 8.43383 17.6684 8.33983L15.6634 6.33983C15.4674 6.14583 15.1514 6.14583 14.9564 6.34083L6.33438 14.9608C6.24038 15.0548 6.18738 15.1818 6.18738 15.3148C6.18738 15.4468 6.24038 15.5748 6.33438 15.6688L8.33738 17.6688C8.43538 17.7658 8.56338 17.8148 8.69138 17.8148C8.81938 17.8148 8.94738 17.7658 9.04438 17.6678L17.6684 9.04783C17.7614 8.95383 17.8144 8.82683 17.8144 8.69383Z" fill="black"/>
<path fill-rule="evenodd" clip-rule="evenodd" d="M7.49025 11.1406L5.48725 9.14062C5.29225 8.94662 4.97525 8.94662 4.78025 9.14062L2.64625 11.2706C2.45125 11.4666 2.45125 11.7826 2.64525 11.9776L4.64825 13.9876C4.74225 14.0816 4.87025 14.1346 5.00325 14.1346C5.13625 14.1346 5.26325 14.0816 5.35725 13.9876L7.49125 11.8476C7.68525 11.6526 7.68525 11.3356 7.49025 11.1406Z" fill="black"/>
<path fill-rule="evenodd" clip-rule="evenodd" d="M8.36908 10.2676C8.46308 10.3616 8.59108 10.4146 8.72308 10.4146C8.85608 10.4146 8.98308 10.3616 9.07708 10.2676L13.9811 5.35863C14.0751 5.26463 14.1281 5.13763 14.1281 5.00463C14.1281 4.87163 14.0751 4.74463 13.9811 4.65063L11.9781 2.65063C11.7831 2.45663 11.4671 2.45563 11.2711 2.65163L6.36708 7.55063C6.17208 7.74563 6.17208 8.06163 6.36608 8.25763L8.36908 10.2676Z" fill="black"/>
</svg>