<svg width="25" height="25" viewBox="0 0 25 25" fill="none" xmlns="http://www.w3.org/2000/svg">
<path fill-rule="evenodd" clip-rule="evenodd" d="M3.25 18.823C3.25 20.2314 4.39167 21.373 5.8 21.373H8.8837C10.292 21.373 11.4337 20.2314 11.4337 18.823V17.9188C11.4337 16.5105 10.292 15.3688 8.8837 15.3688H5.8C4.39168 15.3688 3.25 16.5105 3.25 17.9188V18.823ZM5.8 19.873C5.2201 19.873 4.75 19.4029 4.75 18.823V17.9188C4.75 17.3389 5.2201 16.8688 5.8 16.8688H8.8837C9.4636 16.8688 9.9337 17.3389 9.9337 17.9188V18.823C9.9337 19.4029 9.4636 19.873 8.8837 19.873H5.8Z" fill="black"/>
<path fill-rule="evenodd" clip-rule="evenodd" d="M13.5662 18.823C13.5662 20.2314 14.7078 21.373 16.1162 21.373H19.1999C20.6082 21.373 21.7499 20.2314 21.7499 18.823V17.9188C21.7499 16.5105 20.6082 15.3688 19.1999 15.3688H16.1162C14.7078 15.3688 13.5662 16.5105 13.5662 17.9188V18.823ZM16.1162 19.873C15.5363 19.873 15.0662 19.4029 15.0662 18.823V17.9188C15.0662 17.3389 15.5363 16.8688 16.1162 16.8688H19.1999C19.7798 16.8688 20.2499 17.3389 20.2499 17.9188V18.823C20.2499 19.4029 19.7798 19.873 19.1999 19.873H16.1162Z" fill="black"/>
<path fill-rule="evenodd" clip-rule="evenodd" d="M8.48096 6.31865C8.48096 7.72698 9.62263 8.86865 11.031 8.86865H14.1147C15.523 8.86865 16.6647 7.72698 16.6647 6.31865V5.41442C16.6647 4.00609 15.523 2.86442 14.1147 2.86442H11.031C9.62263 2.86442 8.48096 4.00609 8.48096 5.41442V6.31865ZM11.031 7.36865C10.4511 7.36865 9.98096 6.89855 9.98096 6.31865V5.41442C9.98096 4.83452 10.4511 4.36442 11.031 4.36442H14.1147C14.6946 4.36442 15.1647 4.83452 15.1647 5.41442V6.31865C15.1647 6.89855 14.6946 7.36865 14.1147 7.36865H11.031Z" fill="black"/>
<path fill-rule="evenodd" clip-rule="evenodd" d="M6.66961 16.6316C6.95289 16.9338 7.42752 16.9491 7.72972 16.6658L12.5 12.1943L17.2703 16.6658C17.5725 16.9491 18.0472 16.9338 18.3304 16.6316C18.6137 16.3294 18.5984 15.8547 18.2962 15.5715L13.25 10.8413V8.11865C13.25 7.70444 12.9142 7.36865 12.5 7.36865C12.0858 7.36865 11.75 7.70444 11.75 8.11865V10.8413L6.70388 15.5715C6.40168 15.8547 6.38634 16.3294 6.66961 16.6316Z" fill="black"/>
</svg>