<svg width="24" height="25" viewBox="0 0 24 25" fill="none" xmlns="http://www.w3.org/2000/svg">
<path d="M15.5799 9.77594H15.55C13.89 9.71594 13.03 8.11595 13.03 6.56595V6.09595C13.03 5.54595 12.59 5.10596 12.04 5.10596C11.49 5.10596 11.05 5.54595 11.05 6.09595V6.56595C11.05 8.08595 10.14 9.72595 8.46995 9.78595H8.44994C8.04994 9.78595 7.70994 9.46594 7.69994 9.05594C7.68994 8.64594 8.00998 8.29595 8.42998 8.28595C9.13998 8.26595 9.55998 7.39595 9.55998 6.56595V6.09595C9.55998 4.72595 10.68 3.60596 12.05 3.60596C13.42 3.60596 14.54 4.72595 14.54 6.09595V6.56595C14.54 7.23595 14.83 8.25594 15.61 8.27594C16.02 8.28594 16.3499 8.63594 16.3299 9.05594C16.3199 9.46594 15.9799 9.77594 15.5799 9.77594Z" fill="black"/>
<path d="M8.44994 9.77594C8.04994 9.77594 7.70994 9.45594 7.69994 9.05594C7.68994 8.64594 8.00997 8.29594 8.41997 8.27594C9.20997 8.24594 9.48997 7.23595 9.48997 6.56595V6.09595C9.48997 4.72595 10.61 3.60596 11.98 3.60596C13.35 3.60596 14.47 4.72595 14.47 6.09595V6.56595C14.47 7.39595 14.89 8.26595 15.6 8.28595C16.01 8.29595 16.3399 8.64594 16.3299 9.05594C16.3199 9.46594 16.02 9.78595 15.56 9.78595C13.88 9.73595 12.98 8.08595 12.98 6.56595V6.09595C12.98 5.54595 12.54 5.10596 11.99 5.10596C11.44 5.10596 11 5.54595 11 6.09595V6.56595C11 8.11595 10.13 9.72594 8.47996 9.77594H8.44994Z" fill="black"/>
<path d="M12.01 20.9758C11.09 20.9758 10.18 20.7158 8.89997 20.1958C8.52997 20.0458 8.33997 19.6358 8.46997 19.2558L9.44996 16.4058C6.31996 15.5558 2.92996 13.4157 2.19996 10.3657C2.19996 10.3657 2.18 10.2758 2.18 10.2658C1.84 8.71577 1.99998 6.93576 2.65998 4.97576C2.74998 4.69576 3.00999 4.49575 3.29999 4.46575C3.59999 4.44575 3.87996 4.58576 4.01996 4.84576C5.02996 6.66576 6.31998 7.29576 8.09998 8.16576L8.57996 8.39574C9.55996 8.85574 10.58 9.33576 11.4 10.1958C11.61 10.4158 11.81 10.6558 12 10.9158C12.19 10.6558 12.38 10.4258 12.59 10.2058C13.42 9.34577 14.44 8.85574 15.43 8.39574L15.9 8.17577C17.69 7.30577 18.98 6.67577 19.98 4.85577C20.12 4.59577 20.41 4.45576 20.7 4.47576C21 4.50576 21.25 4.70577 21.34 4.98577C22 6.94577 22.16 8.72575 21.82 10.2757C21.79 10.4157 21.75 10.5558 21.72 10.6858C20.79 13.9258 17.1 15.7258 14.55 16.4258L15.53 19.2757C15.66 19.6557 15.47 20.0658 15.1 20.2158C13.82 20.7358 12.91 20.9958 11.99 20.9958L12.01 20.9758ZM10.13 19.0658C11.62 19.6158 12.4 19.6158 13.89 19.0658L12.87 16.1157C12.8 15.9157 12.82 15.6858 12.93 15.4958C13.04 15.3058 13.22 15.1758 13.43 15.1358C16.22 14.5758 19.55 12.8058 20.28 10.2558C20.31 10.1558 20.34 10.0458 20.36 9.93575C20.56 9.04575 20.55 8.04577 20.33 6.95577C19.26 8.19577 17.98 8.81576 16.55 9.50576L16.06 9.73577C15.15 10.1658 14.3 10.5658 13.67 11.2258C13.29 11.6258 12.95 12.1158 12.66 12.6758C12.53 12.9258 12.27 13.0857 11.99 13.0857C11.71 13.0857 11.45 12.9258 11.32 12.6758C11.03 12.1058 10.69 11.6158 10.31 11.2158C9.68 10.5558 8.83 10.1558 7.93 9.73577L7.44001 9.50576C6.01001 8.81576 4.72998 8.18577 3.65998 6.95577C3.44998 8.04577 3.44001 9.04575 3.63001 9.93575L2.89997 10.0958L3.64997 9.99575C4.32997 12.8758 8.16001 14.6458 10.57 15.1258C10.78 15.1658 10.96 15.2958 11.07 15.4858C11.18 15.6758 11.2 15.8958 11.13 16.1058L10.11 19.0557L10.13 19.0658Z" fill="black"/>
</svg>