<svg width="24" height="25" viewBox="0 0 24 25" fill="none" xmlns="http://www.w3.org/2000/svg">
<path d="M21 11.0866L13.3086 4.77586C12.5478 4.15121 11.4522 4.15121 10.6914 4.77586L3 11.0866" stroke="black" stroke-width="1.5" stroke-linecap="round" stroke-linejoin="round"/>
<path d="M4.4873 9.86328L6.88936 18.2133C7.09076 19.414 8.1299 20.2926 9.34612 20.2926H14.6541C15.8713 20.2926 16.9104 19.414 17.1118 18.2133L19.5139 9.86328" stroke="black" stroke-width="1.5" stroke-linecap="round" stroke-linejoin="round"/>
<path d="M11.9995 13.2275C13.2767 13.2275 14.312 12.1922 14.312 10.915C14.312 9.63788 13.2767 8.60254 11.9995 8.60254C10.7224 8.60254 9.68701 9.63788 9.68701 10.915C9.68701 12.1922 10.7224 13.2275 11.9995 13.2275Z" stroke="black" stroke-width="1.5" stroke-linecap="round" stroke-linejoin="round"/>
<path d="M12.0049 16.5661V16.5197M11.9989 16.3821C11.8873 16.3821 11.7965 16.473 11.7974 16.5845C11.7974 16.6961 11.8882 16.787 11.9998 16.787C12.1114 16.787 12.2023 16.6961 12.2023 16.5845C12.2023 16.4721 12.1114 16.3821 11.9989 16.3821Z" stroke="black" stroke-width="1.5" stroke-linecap="round" stroke-linejoin="round"/>
</svg>