<svg width="25" height="24" viewBox="0 0 25 24" fill="none" xmlns="http://www.w3.org/2000/svg">
<path d="M3.5 11.6387V8.14771C3.5 5.70555 5.02076 3.98047 7.46486 3.98047H12.5" stroke="black" stroke-width="1.5" stroke-linecap="round" stroke-linejoin="round"/>
<path d="M17.535 3.98047C19.9723 3.98047 21.4999 5.70555 21.4999 8.14771V14.7347C21.4999 17.1769 19.9791 18.902 17.535 18.902H13.7861" stroke="black" stroke-width="1.5" stroke-linecap="round" stroke-linejoin="round"/>
<path d="M18.8445 9.27734L3.5 9.27734" stroke="black" stroke-width="1.5" stroke-linecap="round" stroke-linejoin="round"/>
<path d="M8.18068 13.082H6.06836V16.1051H8.2449C9.12933 16.1051 9.83571 15.3461 9.75009 14.4452C9.67517 13.659 8.96976 13.082 8.18068 13.082Z" stroke="black" stroke-width="1.5" stroke-linecap="round" stroke-linejoin="round"/>
<path d="M8.18068 16.1055H6.06836V19.1285H8.2449C9.12933 19.1285 9.83571 18.3696 9.75009 17.4686C9.67517 16.6824 8.96976 16.1055 8.18068 16.1055Z" stroke="black" stroke-width="1.5" stroke-linecap="round" stroke-linejoin="round"/>
<path d="M7.64062 20.0201V19.1289" stroke="black" stroke-width="1.5" stroke-linecap="round" stroke-linejoin="round"/>
<path d="M7.64062 13.0787V12.1875" stroke="black" stroke-width="1.5" stroke-linecap="round" stroke-linejoin="round"/>
</svg>