<svg width="24" height="24" viewBox="0 0 24 24" fill="none" xmlns="http://www.w3.org/2000/svg">
<path d="M3 8.62535C3 5.89907 5.20962 3.68945 7.93589 3.68945H16.0641C18.7904 3.68945 21 5.89907 21 8.62535V15.3749C21 18.1011 18.7904 20.3108 16.0641 20.3108H10.7575" stroke="black" stroke-width="1.5" stroke-linecap="round" stroke-linejoin="round"/>
<path d="M5.2067 16.2188H3V19.378H5.27481C6.19816 19.378 6.93665 18.585 6.84714 17.6432C6.76832 16.822 6.03178 16.2188 5.2067 16.2188Z" stroke="black" stroke-width="1.5" stroke-linecap="round" stroke-linejoin="round"/>
<path d="M5.2067 13.0586H3V16.2178H5.27481C6.19816 16.2178 6.93665 15.4249 6.84714 14.483C6.76832 13.6618 6.03178 13.0586 5.2067 13.0586Z" stroke="black" stroke-width="1.5" stroke-linecap="round" stroke-linejoin="round"/>
<path d="M4.64453 20.31V19.3789" stroke="black" stroke-width="1.5" stroke-linecap="round" stroke-linejoin="round"/>
<path d="M4.64453 13.0561V12.125" stroke="black" stroke-width="1.5" stroke-linecap="round" stroke-linejoin="round"/>
<path d="M20.9991 14.4081H17.1918C15.7937 14.4081 14.6602 13.2746 14.6602 11.8764C14.6602 10.4792 15.7937 9.3457 17.1918 9.3457H20.9991" stroke="black" stroke-width="1.5" stroke-linecap="round" stroke-linejoin="round"/>
<path d="M17.3401 11.8184H17.3301" stroke="black" stroke-width="1.5" stroke-linecap="round" stroke-linejoin="round"/>
</svg>