<svg width="24" height="24" viewBox="0 0 24 24" fill="none" xmlns="http://www.w3.org/2000/svg">
<path fill-rule="evenodd" clip-rule="evenodd" d="M17.0498 13.4022C17.1078 14.0102 16.9068 14.6142 16.5008 15.0612C16.1368 15.4612 15.6328 15.6972 15.0978 15.7442V15.8442C15.0978 16.2582 14.7618 16.5942 14.3478 16.5942C13.9338 16.5942 13.5978 16.2582 13.5978 15.8442V15.7642H12.8908C12.4768 15.7642 12.1408 15.4282 12.1408 15.0142V9.4142C12.1408 9.0002 12.4768 8.6642 12.8908 8.6642H13.5978V8.5852C13.5978 8.1712 13.9338 7.8352 14.3478 7.8352C14.7618 7.8352 15.0978 8.1712 15.0978 8.5852V8.6872C16.1178 8.8032 16.9538 9.6022 17.0498 10.6132C17.1058 11.1992 16.9178 11.7842 16.5328 12.2262C16.8188 12.5492 17.0068 12.9572 17.0498 13.4022ZM7.46976 17.8202C7.46976 18.8402 6.63976 19.6702 5.60976 19.6702C5.10976 19.6702 4.64976 19.4802 4.29976 19.1502C3.94976 18.7902 3.74976 18.3202 3.74976 17.8202V10.5702C3.74976 10.3502 3.87976 10.2602 3.91976 10.2302C4.01976 10.1702 4.10976 10.2102 4.13976 10.2302L4.77976 10.5602C5.34976 10.8802 6.03976 10.9002 6.68976 10.6302L7.46976 10.2802V17.8202ZM20.8598 3.6602C20.3498 3.3502 19.7198 3.3202 19.1698 3.6002L18.5098 3.9402C18.3298 4.0402 18.1198 4.0502 17.9198 3.9602L16.0798 3.1402C15.1298 2.7202 14.0898 2.7202 13.1398 3.1402L11.2998 3.9602C11.0998 4.0502 10.8898 4.0402 10.6998 3.9402L10.0398 3.6002C9.49976 3.3202 8.86976 3.3502 8.35976 3.6602C7.79976 4.0102 7.46976 4.6102 7.46976 5.2802V8.6602C7.41976 8.6602 7.36976 8.6802 7.31976 8.7002L6.08976 9.2502C5.96976 9.3102 5.72976 9.3702 5.47976 9.2402L4.82976 8.9002C4.28976 8.62019 3.65976 8.6402 3.13976 8.9502C2.57976 9.2902 2.24976 9.9002 2.24976 10.5702V17.8202C2.24976 18.7202 2.59976 19.5602 3.23976 20.2102C3.87976 20.8302 4.71976 21.1702 5.60976 21.1702H17.7498C20.2098 21.1702 21.7398 19.4802 21.7398 16.7602L21.7498 5.2802C21.7498 4.6102 21.4198 4.0002 20.8598 3.6602Z" fill="black"/>
<path fill-rule="evenodd" clip-rule="evenodd" d="M14.8481 12.9646H13.6411V14.2646H14.9091C15.0951 14.2646 15.2661 14.1896 15.3901 14.0516C15.5151 13.9146 15.5751 13.7356 15.5561 13.5446C15.5261 13.2256 15.2081 12.9646 14.8481 12.9646Z" fill="black"/>
<path fill-rule="evenodd" clip-rule="evenodd" d="M14.8481 10.1638H13.6411V11.4648H14.9091C15.0961 11.4648 15.2681 11.3888 15.3931 11.2508C15.5161 11.1148 15.5741 10.9388 15.5561 10.7558C15.5251 10.4298 15.2081 10.1638 14.8481 10.1638Z" fill="black"/>
</svg>