<svg width="25" height="24" viewBox="0 0 25 24" fill="none" xmlns="http://www.w3.org/2000/svg">
<path opacity="0.4" fill-rule="evenodd" clip-rule="evenodd" d="M12.5 2.5C7.262 2.5 3 6.761 3 12C3 17.238 7.262 21.5 12.5 21.5C17.739 21.5 22 17.238 22 12C22 6.761 17.739 2.5 12.5 2.5Z" fill="black"/>
<path fill-rule="evenodd" clip-rule="evenodd" d="M15.7611 15.4748L15.6441 15.1778C16.6551 14.4948 17.0991 13.1768 16.6361 11.9948C16.3741 11.3338 15.8721 10.8148 15.2201 10.5328C15.142 10.4992 15.0621 10.4766 14.9822 10.4541C14.9598 10.4477 14.9374 10.4414 14.9151 10.4348C15.0421 9.96984 15.0341 9.46483 14.8441 8.98583C14.6181 8.41083 14.1821 7.95884 13.6161 7.71584C13.2981 7.57984 12.9621 7.52484 12.6271 7.53684L12.4821 7.16684C12.3311 6.77984 11.8961 6.58984 11.5101 6.74184C11.1241 6.89284 10.9341 7.32784 11.0851 7.71284L11.1821 7.95884L10.6171 8.18183L10.5221 7.94384C10.3691 7.55784 9.9321 7.37084 9.5481 7.52284C9.1631 7.67484 8.9751 8.11184 9.1271 8.49683L9.2211 8.73383L9.0861 8.78684C9.0811 8.78884 9.07635 8.78934 9.0716 8.78984C9.06685 8.79034 9.0621 8.79083 9.0571 8.79283C9.05227 8.79445 9.0483 8.7975 9.04427 8.8006C9.04079 8.80327 9.03727 8.80598 9.0331 8.80784L8.5141 9.01284C8.1291 9.16584 7.9401 9.60083 8.0921 9.98583C8.2231 10.3168 8.5631 10.4898 8.9001 10.4378L10.9161 15.5418C10.6331 15.7348 10.5011 16.0938 10.6321 16.4258C10.7491 16.7198 11.0311 16.8998 11.3301 16.8998C11.4221 16.8998 11.5151 16.8828 11.6061 16.8468L12.3161 16.5658L12.4071 16.7958C12.5241 17.0898 12.8061 17.2698 13.1041 17.2698C13.1971 17.2698 13.2901 17.2528 13.3811 17.2168C13.7661 17.0648 13.9541 16.6288 13.8021 16.2438L13.7111 16.0138L14.2731 15.7908L14.3661 16.0258C14.4821 16.3208 14.7651 16.5008 15.0631 16.5008C15.1551 16.5008 15.2481 16.4838 15.3391 16.4478C15.7241 16.2958 15.9131 15.8608 15.7611 15.4748ZM12.4107 9.08612L10.3077 9.91612L10.9037 11.4251L13.0087 10.5741C13.4137 10.4101 13.6107 9.94412 13.4497 9.53612C13.3697 9.33412 13.2187 9.17812 13.0217 9.09312C12.8277 9.01012 12.6097 9.00612 12.4107 9.08612ZM12.2988 14.9587L11.4548 12.8217L13.7388 11.8977C14.0258 11.7827 14.3418 11.7867 14.6248 11.9097C14.9088 12.0327 15.1278 12.2577 15.2398 12.5437C15.4778 13.1497 15.1908 13.8127 14.5868 14.0527L12.4718 14.8907C12.4698 14.8912 12.4678 14.8914 12.4658 14.8917C12.4638 14.8919 12.4618 14.8922 12.4598 14.8927L12.4556 14.8955C12.4538 14.8968 12.4521 14.8981 12.4498 14.8987L12.2988 14.9587Z" fill="black"/>
</svg>