<svg width="24" height="24" viewBox="0 0 24 24" fill="none" xmlns="http://www.w3.org/2000/svg">
<path d="M18.2812 16.4736L19.6396 15.1152L20.9989 16.4736" stroke="black" stroke-width="1.5" stroke-linecap="round" stroke-linejoin="round"/>
<path d="M5.71765 7.56445L4.35931 8.92279L3 7.56445" stroke="black" stroke-width="1.5" stroke-linecap="round" stroke-linejoin="round"/>
<path d="M4.35938 8.92159V5.69505C4.35938 4.46807 5.3538 3.47461 6.57981 3.47461H7.7562" stroke="black" stroke-width="1.5" stroke-linecap="round" stroke-linejoin="round"/>
<path d="M19.641 15.1152V18.3418C19.641 19.5688 18.6465 20.5622 17.4205 20.5622H16.2441" stroke="black" stroke-width="1.5" stroke-linecap="round" stroke-linejoin="round"/>
<path fill-rule="evenodd" clip-rule="evenodd" d="M20.6686 7.16C20.6686 5.06119 18.9668 3.35938 16.869 3.35938C14.7702 3.35938 13.0684 5.06119 13.0684 7.16C13.0684 9.25881 14.7702 10.9597 16.869 10.9597C18.9668 10.9597 20.6686 9.25881 20.6686 7.16Z" stroke="black" stroke-width="1.5" stroke-linecap="round" stroke-linejoin="round"/>
<path d="M6.20243 16.1425H9.38194C10.1749 16.1327 10.8121 15.4867 10.8121 14.6928C10.8121 13.8931 10.1642 13.2441 9.36345 13.2441H5.49609" stroke="black" stroke-width="1.5" stroke-linecap="round" stroke-linejoin="round"/>
<path d="M5.49414 19.7044H9.55511C10.5387 19.7044 11.3365 18.9066 11.3365 17.923C11.3365 16.9384 10.5397 16.1406 9.55511 16.1406C9.54733 16.1406 9.26172 16.1406 9.25394 16.1406" stroke="black" stroke-width="1.5" stroke-linecap="round" stroke-linejoin="round"/>
<path d="M6.04102 13.2441V19.7053" stroke="black" stroke-width="1.5" stroke-linecap="round" stroke-linejoin="round"/>
<path d="M6.9043 19.707V20.641M9.3841 19.707V20.641" stroke="black" stroke-width="1.5" stroke-linecap="round" stroke-linejoin="round"/>
<path d="M6.9043 12.3086V13.2445M9.3841 12.3086V13.2445" stroke="black" stroke-width="1.5" stroke-linecap="round" stroke-linejoin="round"/>
</svg>