<svg width="24" height="24" viewBox="0 0 24 24" fill="none" xmlns="http://www.w3.org/2000/svg">
<path d="M3 11.6387V8.14771C3 5.70555 4.52076 3.98047 6.96486 3.98047H17.0351C19.4724 3.98047 21 5.70555 21 8.14771V14.7347C21 17.1769 19.4792 18.902 17.0351 18.902H13.2863" stroke="black" stroke-width="1.5" stroke-linecap="round" stroke-linejoin="round"/>
<path d="M21 9.27734H3" stroke="black" stroke-width="1.5" stroke-linecap="round" stroke-linejoin="round"/>
<path d="M7.68068 13.082H5.56836V16.1051H7.7449C8.62933 16.1051 9.33571 15.3461 9.25009 14.4452C9.17517 13.659 8.46976 13.082 7.68068 13.082Z" stroke="black" stroke-width="1.5" stroke-linecap="round" stroke-linejoin="round"/>
<path d="M7.68068 16.1055H5.56836V19.1285H7.7449C8.62933 19.1285 9.33571 18.3696 9.25009 17.4686C9.17517 16.6824 8.46976 16.1055 7.68068 16.1055Z" stroke="black" stroke-width="1.5" stroke-linecap="round" stroke-linejoin="round"/>
<path d="M7.14062 20.0201V19.1289" stroke="black" stroke-width="1.5" stroke-linecap="round" stroke-linejoin="round"/>
<path d="M7.14062 13.0787V12.1875" stroke="black" stroke-width="1.5" stroke-linecap="round" stroke-linejoin="round"/>
</svg>