<svg width="25" height="24" viewBox="0 0 25 24" fill="none" xmlns="http://www.w3.org/2000/svg">
<path d="M21.4955 11.0138L21.4999 5.27522C21.4999 4.44625 20.7059 3.90722 20.0171 4.26041L19.3642 4.60484C18.975 4.80819 18.5255 4.81695 18.1188 4.63987L16.274 3.81868C15.5239 3.49273 14.6939 3.49273 13.9438 3.81868L12.099 4.63987C11.6923 4.81695 11.2418 4.80819 10.8536 4.60484L10.2007 4.26041C9.51188 3.90722 8.71793 4.455 8.71793 5.27522V17.8198C8.71793 19.2588 7.55231 20.4244 6.11328 20.4244H18.2511C20.3352 20.4244 21.4911 19.0204 21.4911 16.7524L21.4933 13.8831" stroke="black" stroke-width="1.5" stroke-linecap="round" stroke-linejoin="round"/>
<path fill-rule="evenodd" clip-rule="evenodd" d="M13.3906 9.41211H15.3482C16.0799 9.41211 16.7338 9.94724 16.8028 10.676C16.8826 11.5108 16.2278 12.2143 15.4086 12.2143L13.3906 12.2142" stroke="black" stroke-width="1.5" stroke-linecap="round" stroke-linejoin="round"/>
<path fill-rule="evenodd" clip-rule="evenodd" d="M13.3906 12.2109H15.3482C16.0799 12.2109 16.7338 12.7461 16.8028 13.4748C16.8826 14.3096 16.2278 15.0131 15.4086 15.0131L13.3906 15.013" stroke="black" stroke-width="1.5" stroke-linecap="round" stroke-linejoin="round"/>
<path d="M14.8477 15.8426V15.0166M14.8477 9.40808V8.58203" stroke="black" stroke-width="1.5" stroke-linecap="round" stroke-linejoin="round"/>
<path d="M6.11341 20.4246C5.38951 20.4246 4.73665 20.1327 4.26865 19.6657C3.79189 19.1889 3.5 18.5351 3.5 17.8199V10.5723C3.5 9.74231 4.29492 9.20425 4.98378 9.55744L5.63665 9.90187C6.02487 10.1052 6.47535 10.114 6.88108 9.9369" stroke="black" stroke-width="1.5" stroke-linecap="round" stroke-linejoin="round"/>
</svg>