<svg width="24" height="24" viewBox="0 0 24 24" fill="none" xmlns="http://www.w3.org/2000/svg">
<path d="M10.2877 3.32422H9.29045C7.32902 3.32422 5.73731 4.91496 5.73828 6.87736L5.73925 17.4473C5.73925 19.4097 7.33 21.0004 9.29142 21.0004H14.7077C16.6701 21.0004 18.2609 19.4097 18.2609 17.4473L18.2599 12.1798" stroke="black" stroke-width="1.5" stroke-linecap="round" stroke-linejoin="round"/>
<path d="M15.8419 6.84766H13.7676V9.81704H15.9051C16.773 9.81704 17.4676 9.07177 17.383 8.18641C17.309 7.41487 16.6173 6.84766 15.8419 6.84766Z" stroke="black" stroke-width="1.5" stroke-linecap="round" stroke-linejoin="round"/>
<path d="M15.8419 3.87891H13.7676V6.84829H15.9051C16.773 6.84829 17.4676 6.10302 17.383 5.21766C17.309 4.44612 16.6173 3.87891 15.8419 3.87891Z" stroke="black" stroke-width="1.5" stroke-linecap="round" stroke-linejoin="round"/>
<path d="M15.3125 10.692V9.81641" stroke="black" stroke-width="1.5" stroke-linecap="round" stroke-linejoin="round"/>
<path d="M15.3125 3.87564V3" stroke="black" stroke-width="1.5" stroke-linecap="round" stroke-linejoin="round"/>
<path d="M11.9921 17.4459V17.4646M12.1737 17.4433C12.1737 17.5436 12.0924 17.6249 11.9921 17.6249C11.8918 17.6249 11.8105 17.5436 11.8105 17.4433C11.8105 17.343 11.8918 17.2617 11.9921 17.2617C12.0924 17.2617 12.1737 17.343 12.1737 17.4433Z" stroke="black" stroke-width="1.5" stroke-linecap="round" stroke-linejoin="round"/>
</svg>