<svg width="24" height="24" viewBox="0 0 24 24" fill="none" xmlns="http://www.w3.org/2000/svg">
<path d="M4.48633 9.56445L5.88838 17.9145C6.08979 19.1152 7.12892 19.9937 8.34514 19.9937H15.6531C16.8703 19.9937 17.9095 19.1152 18.1109 17.9145L19.5129 9.56445" stroke="black" stroke-width="1.5" stroke-linecap="round" stroke-linejoin="round"/>
<path d="M21 10.785L13.3086 4.47435C12.5478 3.8497 11.4522 3.8497 10.6914 4.47435L3 10.785" stroke="black" stroke-width="1.5" stroke-linecap="round" stroke-linejoin="round"/>
<path d="M12.2439 12.8496H10.3184V15.606H12.3032C13.1088 15.606 13.753 14.9143 13.6741 14.0921C13.606 13.376 12.9639 12.8496 12.2439 12.8496Z" stroke="black" stroke-width="1.5" stroke-linecap="round" stroke-linejoin="round"/>
<path d="M12.2439 10.0938H10.3184V12.8502H12.3032C13.1088 12.8502 13.753 12.1584 13.6741 11.3362C13.606 10.6201 12.9639 10.0938 12.2439 10.0938Z" stroke="black" stroke-width="1.5" stroke-linecap="round" stroke-linejoin="round"/>
<path d="M11.7539 16.4179V15.6055" stroke="black" stroke-width="1.5" stroke-linecap="round" stroke-linejoin="round"/>
<path d="M11.7539 10.0898V9.27734" stroke="black" stroke-width="1.5" stroke-linecap="round" stroke-linejoin="round"/>
</svg>