<svg width="24" height="24" viewBox="0 0 24 24" fill="none" xmlns="http://www.w3.org/2000/svg">
<path d="M4.78516 10.9032C4.78516 6.53857 8.32373 3 12.6883 3C17.0539 3 20.5915 6.53857 20.5915 10.9032C20.5915 13.6313 19.2099 16.0364 17.1074 17.4569" stroke="black" stroke-width="1.5" stroke-linecap="round" stroke-linejoin="round"/>
<path d="M11.2695 20.385L13.4061 20.9998L14.021 18.8633" stroke="black" stroke-width="1.5" stroke-linecap="round" stroke-linejoin="round"/>
<path d="M3.41016 13.9141L5.66348 17.549L10.5933 16.073L13.4081 20.999" stroke="black" stroke-width="1.5" stroke-linecap="round" stroke-linejoin="round"/>
<path d="M13.1618 10.5273H11.2695V13.2357H13.2202C14.0115 13.2357 14.6444 12.5564 14.5676 11.7483C14.5004 11.0442 13.8691 10.5273 13.1618 10.5273Z" stroke="black" stroke-width="1.5" stroke-linecap="round" stroke-linejoin="round"/>
<path d="M13.1618 7.82031H11.2695V10.5287H13.2202C14.0115 10.5287 14.6444 9.8494 14.5676 9.04129C14.5004 8.33719 13.8691 7.82031 13.1618 7.82031Z" stroke="black" stroke-width="1.5" stroke-linecap="round" stroke-linejoin="round"/>
<path d="M12.6797 14.0368V13.2383" stroke="black" stroke-width="1.5" stroke-linecap="round" stroke-linejoin="round"/>
<path d="M12.6797 7.81804V7.01953" stroke="black" stroke-width="1.5" stroke-linecap="round" stroke-linejoin="round"/>
</svg>