<svg width="25" height="24" viewBox="0 0 25 24" fill="none" xmlns="http://www.w3.org/2000/svg">
<path opacity="0.4" fill-rule="evenodd" clip-rule="evenodd" d="M11.3433 6.10224C11.3433 5.45094 11.4328 4.82101 11.5954 4.22119C11.6489 4.0237 11.5042 3.82324 11.2996 3.82324H8.89331C7.81031 3.82324 6.79231 4.24524 6.02831 5.01124C5.26231 5.77824 4.84031 6.79824 4.84131 7.88324L4.84231 18.4532C4.84231 20.6862 6.65931 22.5032 8.89431 22.5032H14.3113C16.5453 22.5032 18.3643 20.6862 18.3643 18.4532L18.3634 13.6223C18.3633 13.4602 18.2341 13.328 18.0723 13.3167C14.3129 13.0543 11.3433 9.92902 11.3433 6.10224Z" fill="black"/>
<path fill-rule="evenodd" clip-rule="evenodd" d="M18.4666 8.07409C18.3246 8.23009 18.1316 8.31609 17.9226 8.31609H16.5356V6.84609H17.8606C18.2706 6.84609 18.6186 7.13709 18.6546 7.50909C18.6746 7.71809 18.6086 7.91809 18.4666 8.07409ZM16.5356 3.87609H17.8606C18.2636 3.87609 18.6196 4.17309 18.6546 4.53809C18.6746 4.74709 18.6086 4.94809 18.4666 5.10409C18.3246 5.26009 18.1316 5.34609 17.9226 5.34609H16.5356V3.87609ZM19.5826 6.10609C20.0016 5.64109 20.2076 5.01809 20.1476 4.39409C20.0456 3.33409 19.1556 2.50009 18.0796 2.39709V2.24609C18.0796 1.83209 17.7436 1.49609 17.3296 1.49609C16.9156 1.49609 16.5796 1.83209 16.5796 2.24609V2.37609H15.7856C15.3716 2.37609 15.0356 2.71209 15.0356 3.12609V9.06609C15.0356 9.48009 15.3716 9.81609 15.7856 9.81609H16.5796V9.93609C16.5796 10.3501 16.9156 10.6861 17.3296 10.6861C17.7436 10.6861 18.0796 10.3501 18.0796 9.93609V9.80009C18.6496 9.75809 19.1896 9.50909 19.5776 9.08209C20.0006 8.61609 20.2076 7.99109 20.1486 7.36609C20.1016 6.87809 19.8916 6.44709 19.5826 6.10609Z" fill="black"/>
<path d="M10.6633 18.4417C10.6633 18.9547 11.0813 19.3717 11.5953 19.3717C12.1093 19.3717 12.5273 18.9547 12.5273 18.4417C12.5273 17.9287 12.1093 17.5117 11.5953 17.5117C11.0813 17.5117 10.6633 17.9287 10.6633 18.4417Z" fill="black"/>
</svg>