<svg width="25" height="24" viewBox="0 0 25 24" fill="none" xmlns="http://www.w3.org/2000/svg">
<path d="M15.907 20.743H8.59901C7.83136 20.7453 7.08794 20.4744 6.50169 19.9788C5.91543 19.4832 5.52457 18.7953 5.399 18.038L3.99901 9.68798C3.9824 9.59074 3.9851 9.49118 4.00697 9.39498C4.02883 9.29878 4.06943 9.20783 4.12644 9.12732C4.18346 9.04681 4.25577 8.97832 4.33926 8.92576C4.42274 8.8732 4.51576 8.8376 4.61301 8.82099C4.71025 8.80437 4.80982 8.80708 4.90601 8.82894C5.00221 8.85081 5.09316 8.89141 5.17367 8.94842C5.25418 9.00544 5.32267 9.07775 5.37523 9.16124C5.42779 9.24472 5.46339 9.33774 5.48 9.43499L6.88001 17.785C6.94718 18.1916 7.1568 18.561 7.47136 18.8272C7.78592 19.0934 8.18493 19.239 8.59701 19.238H15.905C16.3173 19.2392 16.7165 19.0937 17.0313 18.8275C17.346 18.5613 17.5558 18.1917 17.623 17.785L19.023 9.43499C19.0374 9.33617 19.0713 9.24122 19.1229 9.1557C19.1745 9.07019 19.2426 8.99582 19.3233 8.93698C19.404 8.87815 19.4956 8.83602 19.5928 8.81306C19.6899 8.7901 19.7907 8.78678 19.8892 8.80329C19.9877 8.81981 20.0819 8.85583 20.1663 8.90923C20.2507 8.96263 20.3235 9.03235 20.3806 9.11428C20.4377 9.19622 20.4778 9.28873 20.4987 9.38639C20.5195 9.48404 20.5206 9.58488 20.502 9.68299L19.102 18.033C18.9778 18.7904 18.5882 19.479 18.0029 19.9755C17.4175 20.472 16.6746 20.7441 15.907 20.743Z" fill="black"/>
<path d="M21.254 11.5358C21.0802 11.536 20.9119 11.4755 20.778 11.3648L13.087 5.05383C12.8517 4.86216 12.5575 4.75751 12.254 4.75751C11.9505 4.75751 11.6563 4.86216 11.421 5.05383L3.72996 11.3648C3.65406 11.4289 3.56617 11.4773 3.47141 11.5071C3.37665 11.537 3.27691 11.5477 3.17797 11.5387C3.07903 11.5297 2.98287 11.5011 2.89508 11.4546C2.80728 11.4081 2.7296 11.3446 2.66654 11.2678C2.60348 11.1911 2.5563 11.1025 2.52775 11.0074C2.49919 10.9122 2.48982 10.8123 2.50019 10.7135C2.51055 10.6147 2.54045 10.519 2.58813 10.4318C2.63582 10.3447 2.70035 10.2678 2.77797 10.2058L10.47 3.89483C10.9734 3.48288 11.6039 3.25781 12.2545 3.25781C12.905 3.25781 13.5355 3.48288 14.039 3.89483L21.73 10.2058C21.8496 10.3039 21.936 10.4366 21.9773 10.5856C22.0185 10.7347 22.0127 10.8929 21.9606 11.0386C21.9085 11.1842 21.8126 11.3102 21.6861 11.3992C21.5596 11.4882 21.4087 11.5359 21.254 11.5358Z" fill="black"/>
<path d="M12.5523 16.3537H10.5703C10.3714 16.3537 10.1806 16.2747 10.04 16.134C9.89933 15.9934 9.82031 15.8026 9.82031 15.6037V12.8477C9.82031 12.6488 9.89933 12.458 10.04 12.3174C10.1806 12.1767 10.3714 12.0977 10.5703 12.0977H12.4963C13.032 12.094 13.5502 12.2879 13.9518 12.6423C14.3535 12.9967 14.6103 13.4868 14.6733 14.0187C14.7024 14.3145 14.6691 14.6131 14.5757 14.8952C14.4823 15.1774 14.3308 15.4368 14.1309 15.6569C13.9311 15.8769 13.6874 16.0525 13.4155 16.1726C13.1436 16.2926 12.8495 16.3543 12.5523 16.3537ZM11.3173 14.8537H12.5523C12.6399 14.8541 12.7265 14.836 12.8066 14.8007C12.8867 14.7654 12.9585 14.7136 13.0173 14.6487C13.0766 14.5832 13.1214 14.5061 13.149 14.4222C13.1766 14.3383 13.1862 14.2496 13.1773 14.1617C13.1522 14.0002 13.0687 13.8536 12.9426 13.7496C12.8165 13.6457 12.6566 13.5916 12.4933 13.5977H11.3203L11.3173 14.8537Z" fill="black"/>
<path d="M12.5523 13.6008H10.5703C10.3714 13.6008 10.1806 13.5218 10.04 13.3811C9.89933 13.2405 9.82031 13.0497 9.82031 12.8508V10.0938C9.82031 9.89489 9.89933 9.70413 10.04 9.56347C10.1806 9.42282 10.3714 9.3438 10.5703 9.3438H12.4963C13.0321 9.34011 13.5504 9.53415 13.9521 9.88877C14.3538 10.2434 14.6106 10.7337 14.6733 11.2658C14.7022 11.5616 14.6689 11.8601 14.5754 12.1422C14.4819 12.4243 14.3304 12.6836 14.1306 12.9036C13.9308 13.1236 13.6871 13.2993 13.4153 13.4193C13.1434 13.5394 12.8495 13.6012 12.5523 13.6008ZM11.3173 12.1008H12.5523C12.6403 12.1007 12.7272 12.0822 12.8075 12.0464C12.8878 12.0106 12.9598 11.9584 13.0187 11.8931C13.0776 11.8278 13.1221 11.7508 13.1494 11.6673C13.1768 11.5837 13.1863 11.4953 13.1773 11.4078C13.1522 11.2463 13.0687 11.0997 12.9426 10.9957C12.8165 10.8918 12.6566 10.8377 12.4933 10.8438H11.3203L11.3173 12.1008Z" fill="black"/>
<path d="M12.0078 17.1675C11.8089 17.1675 11.6181 17.0885 11.4775 16.9478C11.3368 16.8071 11.2578 16.6164 11.2578 16.4175V15.6055C11.2578 15.4066 11.3368 15.2158 11.4775 15.0751C11.6181 14.9345 11.8089 14.8555 12.0078 14.8555C12.2067 14.8555 12.3975 14.9345 12.5381 15.0751C12.6788 15.2158 12.7578 15.4066 12.7578 15.6055V16.4175C12.7578 16.6164 12.6788 16.8071 12.5381 16.9478C12.3975 17.0885 12.2067 17.1675 12.0078 17.1675Z" fill="black"/>
<path d="M12.0078 10.8354C11.8089 10.8354 11.6181 10.7564 11.4775 10.6158C11.3368 10.4751 11.2578 10.2844 11.2578 10.0854V9.27344C11.2578 9.07453 11.3368 8.88376 11.4775 8.74311C11.6181 8.60246 11.8089 8.52344 12.0078 8.52344C12.2067 8.52344 12.3975 8.60246 12.5381 8.74311C12.6788 8.88376 12.7578 9.07453 12.7578 9.27344V10.0854C12.7578 10.2844 12.6788 10.4751 12.5381 10.6158C12.3975 10.7564 12.2067 10.8354 12.0078 10.8354Z" fill="black"/>
</svg>