<svg width="24" height="24" viewBox="0 0 24 24" fill="none" xmlns="http://www.w3.org/2000/svg">
<path d="M21 12C21 7.02908 16.9709 3 12 3C7.02908 3 3 7.02908 3 12C3 16.9709 7.02908 21 12 21C16.9709 21 21 16.9709 21 12Z" stroke="black" stroke-width="1.5" stroke-linecap="round" stroke-linejoin="round"/>
<path d="M10.8285 16.1469L14.3633 14.7516C15.3441 14.3634 15.8257 13.2552 15.4385 12.2734C15.0512 11.2927 13.942 10.8111 12.9613 11.1983C12.9613 11.1983 11.0811 11.9604 10.1426 12.3406" stroke="black" stroke-width="1.5" stroke-linecap="round" stroke-linejoin="round"/>
<path d="M12.79 11.2688C13.5772 10.9468 13.9586 10.0516 13.6463 9.26062C13.331 8.46278 12.4291 8.07164 11.6312 8.38591L8.28906 9.70624" stroke="black" stroke-width="1.5" stroke-linecap="round" stroke-linejoin="round"/>
<path d="M12.2363 15.5918L12.6041 16.5229M14.1956 14.8184L14.5634 15.7495" stroke="black" stroke-width="1.5" stroke-linecap="round" stroke-linejoin="round"/>
<path d="M9.32422 8.2168L9.69298 9.14988M11.2835 7.44336L11.6522 8.37644" stroke="black" stroke-width="1.5" stroke-linecap="round" stroke-linejoin="round"/>
<path d="M8.83203 9.49023L11.3754 15.9313" stroke="black" stroke-width="1.5" stroke-linecap="round" stroke-linejoin="round"/>
</svg>