<svg width="24" height="24" viewBox="0 0 24 24" fill="none" xmlns="http://www.w3.org/2000/svg">
<path d="M19.2153 10.9036C19.2153 6.53875 15.6766 3 11.3118 3C6.94598 3 3.4082 6.53875 3.4082 10.9036C3.4082 13.6318 4.78984 16.037 6.89246 17.4576" stroke="black" stroke-width="1.5" stroke-linecap="round" stroke-linejoin="round"/>
<path d="M17.8398 14.529L19.9765 13.9141L20.5914 16.0507" stroke="black" stroke-width="1.5" stroke-linecap="round" stroke-linejoin="round"/>
<path d="M9.98047 20.9993L12.2339 17.3643L17.164 18.8403L19.9789 13.9141" stroke="black" stroke-width="1.5" stroke-linecap="round" stroke-linejoin="round"/>
<path d="M11.9553 10.5293H10.0625V13.2385H12.0137C12.8053 13.2385 13.4383 12.559 13.3615 11.7506C13.2943 11.0463 12.6628 10.5293 11.9553 10.5293Z" stroke="black" stroke-width="1.5" stroke-linecap="round" stroke-linejoin="round"/>
<path d="M11.9553 7.82031H10.0625V10.5295H12.0137C12.8053 10.5295 13.4383 9.84998 13.3615 9.04163C13.2943 8.33733 12.6628 7.82031 11.9553 7.82031Z" stroke="black" stroke-width="1.5" stroke-linecap="round" stroke-linejoin="round"/>
<path d="M11.4727 14.039V13.2402" stroke="black" stroke-width="1.5" stroke-linecap="round" stroke-linejoin="round"/>
<path d="M11.4727 7.81827V7.01953" stroke="black" stroke-width="1.5" stroke-linecap="round" stroke-linejoin="round"/>
</svg>