<svg width="24" height="24" viewBox="0 0 24 24" fill="none" xmlns="http://www.w3.org/2000/svg">
<path fill-rule="evenodd" clip-rule="evenodd" d="M11.9106 9.08528L9.80762 9.91528L10.4036 11.4243L12.5086 10.5733C12.9136 10.4093 13.1106 9.94328 12.9496 9.53528C12.8696 9.33328 12.7186 9.17728 12.5216 9.09228C12.3276 9.00928 12.1096 9.00528 11.9106 9.08528Z" fill="black"/>
<path fill-rule="evenodd" clip-rule="evenodd" d="M13.2387 11.8968L10.9547 12.8208L11.7987 14.9578L11.9497 14.8978C11.9537 14.8968 11.9557 14.8938 11.9597 14.8918C11.9637 14.8908 11.9677 14.8908 11.9717 14.8898L14.0867 14.0518C14.6907 13.8118 14.9777 13.1488 14.7397 12.5428C14.6277 12.2568 14.4087 12.0318 14.1247 11.9088C13.8417 11.7858 13.5257 11.7818 13.2387 11.8968Z" fill="black"/>
<path fill-rule="evenodd" clip-rule="evenodd" d="M15.144 15.177L15.261 15.474C15.413 15.86 15.224 16.295 14.839 16.447C14.748 16.483 14.655 16.5 14.563 16.5C14.265 16.5 13.982 16.32 13.866 16.025L13.773 15.79L13.211 16.013L13.302 16.243C13.454 16.628 13.266 17.064 12.881 17.216C12.79 17.252 12.697 17.269 12.604 17.269C12.306 17.269 12.024 17.089 11.907 16.795L11.816 16.565L11.106 16.846C11.015 16.882 10.922 16.899 10.83 16.899C10.531 16.899 10.249 16.719 10.132 16.425C10.001 16.093 10.133 15.734 10.416 15.541L8.4 10.437C8.063 10.489 7.723 10.316 7.592 9.985C7.44 9.6 7.629 9.165 8.014 9.012L8.533 8.807C8.542 8.803 8.548 8.795 8.557 8.792C8.567 8.788 8.576 8.79 8.586 8.786L8.721 8.733L8.627 8.496C8.475 8.111 8.663 7.674 9.048 7.522C9.432 7.37 9.869 7.557 10.022 7.943L10.117 8.181L10.682 7.958L10.585 7.712C10.434 7.327 10.624 6.892 11.01 6.741C11.396 6.589 11.831 6.779 11.982 7.166L12.127 7.536C12.462 7.524 12.798 7.579 13.116 7.715C13.682 7.958 14.118 8.41 14.344 8.985C14.534 9.464 14.542 9.969 14.415 10.434C14.517 10.464 14.62 10.489 14.72 10.532C15.372 10.814 15.874 11.333 16.136 11.994C16.599 13.176 16.155 14.494 15.144 15.177ZM12 2.5C6.762 2.5 2.5 6.761 2.5 12C2.5 17.238 6.762 21.5 12 21.5C17.239 21.5 21.5 17.238 21.5 12C21.5 6.761 17.239 2.5 12 2.5Z" fill="black"/>
</svg>