<svg width="25" height="24" viewBox="0 0 25 24" fill="none" xmlns="http://www.w3.org/2000/svg">
<path opacity="0.4" fill-rule="evenodd" clip-rule="evenodd" d="M17.1362 10.6545C17.0802 10.7595 17.0122 10.8665 16.9272 10.9565C16.1122 11.8205 15.2662 12.6565 14.4212 13.4915C14.1792 13.7305 13.9792 13.7185 13.7302 13.4815C13.4272 13.1935 13.1292 12.8975 12.8422 12.5925C12.5902 12.3245 12.5942 12.1255 12.8592 11.8575C13.6412 11.0685 14.4232 10.2795 15.2202 9.50648C15.4052 9.32748 15.6362 9.17348 15.8732 9.07648C16.2522 8.92148 16.6902 9.05848 16.9862 9.37648C17.3072 9.72048 17.3572 10.2385 17.1362 10.6545ZM11.2852 8.29048C11.2702 8.31248 11.2542 8.33248 11.2372 8.35248C10.9422 8.69948 10.6092 9.01748 10.2772 9.33148C10.0182 9.57548 9.82524 9.56648 9.56524 9.31748C9.27624 9.04148 8.99424 8.75848 8.71824 8.47148C8.43524 8.17748 8.43724 7.98248 8.71824 7.69448C9.01124 7.39448 9.30124 7.09148 9.60824 6.80848C9.95124 6.49248 10.3552 6.37748 10.7902 6.59748C11.0292 6.71848 11.2192 6.88048 11.3492 7.10348C11.5662 7.47348 11.5352 7.94248 11.2852 8.29048ZM21.7932 9.72348C21.6602 8.52748 21.0882 7.55348 20.2642 6.71248C18.8902 5.30848 17.3052 4.54648 15.2942 5.12248C15.0272 5.19848 14.8402 5.09248 14.6702 4.86948C14.2932 4.37748 13.9302 3.86148 13.4842 3.43548C12.5702 2.56148 11.4802 2.03848 10.2112 2.02148C8.86724 2.03248 7.75824 2.57048 6.83124 3.45448C5.51324 4.71148 4.24124 6.01648 2.95124 7.30148C2.57324 7.67748 2.57024 7.84048 2.95424 8.22548C6.61724 11.8905 10.2812 15.5545 13.9472 19.2175C14.3252 19.5945 14.4882 19.5875 14.8702 19.2055C16.5232 17.5525 18.1852 15.9085 19.8232 14.2405C20.2502 13.8065 20.6452 13.3275 20.9822 12.8205C21.6012 11.8895 21.9192 10.8605 21.7932 9.72348Z" fill="black"/>
<path fill-rule="evenodd" clip-rule="evenodd" d="M5.3779 13.3272C5.3019 13.2512 5.2249 13.1762 5.1389 13.1142C4.6039 12.7312 3.8769 12.9352 3.6319 13.5432C3.4609 13.9672 3.5589 14.3452 3.8799 14.6662C6.2209 17.0082 8.5639 19.3502 10.9059 21.6922C10.9469 21.7332 10.9889 21.7752 11.0369 21.8092C11.3759 22.0522 11.7399 22.0932 12.1099 21.9012C12.4689 21.7152 12.6349 21.3972 12.6529 21.0052C12.6359 20.6652 12.4699 20.4152 12.2409 20.1862C9.9519 17.9022 7.6659 15.6132 5.3779 13.3272Z" fill="black"/>
</svg>