<svg width="24" height="24" viewBox="0 0 24 24" fill="none" xmlns="http://www.w3.org/2000/svg">
<path d="M14.0624 18.3974L19.2712 13.1887C19.9765 12.5096 20.3902 11.5492 20.3993 10.5702C20.4084 9.59107 20.0125 8.62325 19.3199 7.93116C18.6273 7.23906 17.6592 6.84392 16.6801 6.8537C15.7011 6.86348 14.741 7.27789 14.0624 7.98369L8.85742 13.1887" stroke="black" stroke-width="1.5" stroke-linecap="round" stroke-linejoin="round"/>
<path d="M12.7498 9.28445C13.4009 8.58786 13.7561 7.66571 13.7405 6.71237C13.7249 5.75903 13.3398 4.84898 12.6663 4.17405C11.9928 3.49911 11.0836 3.11203 10.1303 3.09438C9.177 3.07673 8.25409 3.4299 7.55609 4.07945L3.65234 7.9832L14.0623 18.3969" stroke="black" stroke-width="1.5" stroke-linecap="round" stroke-linejoin="round"/>
<path d="M3.65234 13.1875L11.4598 20.9988" stroke="black" stroke-width="1.5" stroke-linecap="round" stroke-linejoin="round"/>
</svg>