<svg width="24" height="24" viewBox="0 0 24 24" fill="none" xmlns="http://www.w3.org/2000/svg">
<path fill-rule="evenodd" clip-rule="evenodd" d="M2.25 11.4264C2.25 9.75945 3.60057 8.40845 5.267 8.40845H7.995C8.84825 8.40845 9.65545 8.79167 10.1948 9.45196C10.1948 9.45195 10.1948 9.45196 10.1948 9.45196L11.9613 11.6143C11.9613 11.6143 11.9614 11.6144 11.9613 11.6143C12.0996 11.7831 12.3566 11.7821 12.4931 11.615L14.2602 9.45196C14.8001 8.79262 15.6074 8.40845 16.46 8.40845H18.732C20.398 8.40845 21.75 9.75902 21.75 11.4264V12.5734C21.75 14.2409 20.398 15.5914 18.732 15.5914H5.267C3.60057 15.5914 2.25 14.2404 2.25 12.5734V11.4264ZM5.267 9.90845C4.42943 9.90845 3.75 10.5874 3.75 11.4264V12.5734C3.75 13.4124 4.42943 14.0914 5.267 14.0914H18.732C19.57 14.0914 20.25 13.412 20.25 12.5734V11.4264C20.25 10.5879 19.57 9.90845 18.732 9.90845H16.46C16.0587 9.90845 15.6774 10.0889 15.4214 10.4015C15.4213 10.4015 15.4214 10.4015 15.4214 10.4015L13.6549 12.5639C13.6548 12.5639 13.6549 12.5639 13.6549 12.5639C12.9174 13.4667 11.5384 13.4656 10.8007 12.5646L9.03317 10.4009C8.77855 10.0892 8.39775 9.90845 7.995 9.90845H5.267Z" fill="black"/>
<path fill-rule="evenodd" clip-rule="evenodd" d="M2.25 5.74383C2.25 4.07683 3.60057 2.72583 5.267 2.72583H18.732C20.398 2.72583 21.75 4.0764 21.75 5.74383V6.89083C21.75 8.55704 20.3982 9.90883 18.732 9.90883H5.267C3.60036 9.90883 2.25 8.55661 2.25 6.89083V5.74383ZM5.267 4.22583C4.42943 4.22583 3.75 4.90483 3.75 5.74383V6.89083C3.75 7.72905 4.42964 8.40883 5.267 8.40883H18.732C19.5698 8.40883 20.25 7.72862 20.25 6.89083V5.74383C20.25 4.90526 19.57 4.22583 18.732 4.22583H5.267Z" fill="black"/>
<path fill-rule="evenodd" clip-rule="evenodd" d="M5.267 15.5911C4.42964 15.5911 3.75 16.2708 3.75 17.1091V18.2561C3.75 19.0951 4.42943 19.7741 5.267 19.7741H18.732C19.57 19.7741 20.25 19.0946 20.25 18.2561V17.1091C20.25 16.2713 19.5698 15.5911 18.732 15.5911H5.267ZM2.25 17.1091C2.25 15.4433 3.60036 14.0911 5.267 14.0911H18.732C20.3982 14.0911 21.75 15.4429 21.75 17.1091V18.2561C21.75 19.9235 20.398 21.2741 18.732 21.2741H5.267C3.60057 21.2741 2.25 19.9231 2.25 18.2561V17.1091Z" fill="black"/>
</svg>