<svg width="24" height="24" viewBox="0 0 24 24" fill="none" xmlns="http://www.w3.org/2000/svg">
<path opacity="0.4" d="M13.2233 4.94307C12.9095 4.67133 12.451 4.62026 12.064 4.7422C11.8142 4.82211 11.5728 4.98413 11.466 5.23143C11.3897 5.39516 11.3968 5.59335 11.4841 5.75146C11.5623 5.90394 11.7089 5.99998 11.8372 6.10653C12.205 6.40686 12.574 6.70573 12.942 7.00582C13.29 7.29418 13.6487 7.56958 13.9891 7.86649C11.6202 7.87236 9.25123 7.87358 6.88205 7.87236C6.41456 7.86552 5.93046 8.08692 5.67827 8.4894C5.55413 8.69052 5.50306 8.95077 5.59665 9.17437C5.69709 9.43096 5.95319 9.59811 6.21662 9.64846C6.46759 9.70344 6.72516 9.6724 6.97955 9.6768C8.01471 9.67582 9.05011 9.679 10.0853 9.67485C7.9282 11.3268 5.77455 12.9839 3.61797 14.6368C3.39852 14.803 3.21207 15.018 3.09917 15.2705C3.0459 15.3924 2.99531 15.521 3.00069 15.6566C3.00386 15.7841 2.99384 15.9122 3.00704 16.0395C3.06031 16.2844 3.22526 16.4994 3.44105 16.6253C3.6385 16.7396 3.87163 16.7829 4.09792 16.7685C4.44957 16.7458 4.7868 16.5955 5.05414 16.3684C6.21418 15.4164 7.37959 14.4702 8.53645 13.5144C8.53156 13.6752 8.50223 13.8341 8.5037 13.9951C8.48904 14.258 8.53302 14.519 8.58556 14.7756C8.72877 15.4476 9.02006 16.084 9.40836 16.649C9.93816 17.4158 10.653 18.0509 11.4689 18.4996C12.3315 18.9771 13.3032 19.252 14.2865 19.3109C14.6868 19.3192 15.0893 19.3305 15.4874 19.2809C16.5184 19.1689 17.5232 18.8134 18.3905 18.244C19.1334 17.7555 19.7722 17.105 20.2314 16.3425C20.7374 15.499 21.0239 14.5151 20.9984 13.5286C21.0014 12.825 20.8428 12.1239 20.5661 11.4783C20.1778 10.5778 19.5405 9.7941 18.7637 9.19954C16.9177 7.7795 15.0692 6.36263 13.2233 4.94307Z" stroke="black" stroke-width="1.5" stroke-linecap="round" stroke-linejoin="round"/>
<path d="M12.0921 10.7239C12.684 10.2222 13.4306 9.91429 14.1996 9.82509C14.6778 9.78062 15.1659 9.79161 15.6343 9.90476C16.54 10.111 17.3777 10.6433 17.9114 11.4084C18.4001 12.1022 18.6081 12.9946 18.4468 13.8301C18.2999 14.6549 17.8068 15.3943 17.1477 15.9016C16.4378 16.4547 15.5324 16.7364 14.6358 16.7252C13.6784 16.7198 12.716 16.3755 12.0037 15.7289C11.3747 15.1724 10.9446 14.3799 10.8796 13.5373C10.8415 13.1244 10.8925 12.7043 11.0162 12.3086C11.21 11.6901 11.5958 11.1381 12.0921 10.7239Z" stroke="black" stroke-width="1.5" stroke-linecap="round" stroke-linejoin="round"/>
<path d="M14.5892 12.0944C15.0018 12.0355 15.4476 12.1891 15.7128 12.5159C15.8586 12.6927 15.9444 12.9197 15.9439 13.1495C15.9458 13.3712 15.868 13.5911 15.7322 13.7656C15.5054 14.0605 15.1316 14.2291 14.7615 14.2215C14.3695 14.2277 13.9722 14.0358 13.7542 13.7061C13.6223 13.5107 13.5622 13.2672 13.5928 13.0331C13.6186 12.815 13.7216 12.6082 13.8743 12.451C14.0616 12.2535 14.3206 12.1302 14.5892 12.0944Z" stroke="black" stroke-width="1.5" stroke-linecap="round" stroke-linejoin="round"/>
</svg>