<svg width="24" height="24" viewBox="0 0 24 24" fill="none" xmlns="http://www.w3.org/2000/svg">
<path d="M14.7761 20.0588C14.5961 20.0588 14.4261 20.0588 14.2561 20.0588C13.1261 19.9888 12.0361 19.6787 11.0961 19.1587C10.1761 18.6487 9.37609 17.9288 8.78609 17.0788C8.33609 16.4188 8.0261 15.7388 7.8661 15.0288C7.6261 15.2188 7.39608 15.4189 7.15608 15.6089C6.61608 16.0589 6.06614 16.4987 5.52614 16.9487C5.12614 17.2787 4.64608 17.4788 4.15608 17.5188C3.72608 17.5388 3.35609 17.4488 3.04609 17.2588C2.66609 17.0488 2.36613 16.6487 2.26613 16.1987C2.24613 15.9987 2.23611 15.8888 2.24611 15.7788V15.6587C2.23611 15.3987 2.31608 15.1587 2.40608 14.9587C2.57608 14.5887 2.83609 14.2688 3.16609 14.0288L7.8661 10.4187C7.5761 10.4187 7.2761 10.4187 6.9861 10.4187C6.8761 10.4187 6.8061 10.4187 6.7361 10.4187C6.5361 10.4187 6.31612 10.4186 6.07612 10.3786C5.53612 10.2786 5.08608 9.9187 4.90608 9.4387C4.73608 9.0287 4.78609 8.51885 5.04609 8.08885C5.4261 7.47885 6.15608 7.10888 6.90608 7.11888C8.56608 7.11888 10.2261 7.11888 11.8961 7.11888C11.7161 6.96888 11.5361 6.82869 11.3561 6.67869C11.1861 6.54869 10.9661 6.37886 10.8261 6.09886C10.6261 5.73886 10.6161 5.28867 10.7961 4.90867C10.9661 4.50867 11.3461 4.18879 11.8461 4.02879C12.5061 3.81879 13.2161 3.94887 13.7061 4.35887L19.2361 8.60887C20.1361 9.28887 20.8361 10.1787 21.2661 11.1887C21.5961 11.9487 21.7661 12.7588 21.7561 13.5388C21.7861 14.6088 21.4761 15.7487 20.8861 16.7287C20.3761 17.5687 19.6561 18.3089 18.8161 18.8689C17.8461 19.5089 16.7261 19.9088 15.5761 20.0288C15.3161 20.0588 15.0461 20.0688 14.7961 20.0688L14.7761 20.0588ZM8.52614 12.7488C8.63614 12.7488 8.74609 12.7688 8.85609 12.8288C9.11609 12.9588 9.28614 13.2288 9.27614 13.5188C9.27614 13.6088 9.26612 13.6988 9.25612 13.7888C9.25612 13.8488 9.24611 13.9087 9.24611 13.9687C9.23611 14.2087 9.27611 14.4089 9.31611 14.5989C9.43611 15.1489 9.66614 15.6887 10.0261 16.2087C10.4861 16.8687 11.1061 17.4288 11.8261 17.8288C12.5761 18.2488 13.4361 18.4888 14.3261 18.5488C14.6661 18.5488 15.0361 18.5688 15.3861 18.5188C16.3161 18.4188 17.2061 18.0989 17.9761 17.5989C18.6361 17.1589 19.1961 16.5887 19.5861 15.9387C20.0361 15.1987 20.2661 14.3488 20.2461 13.5388C20.2461 12.9388 20.1161 12.3288 19.8761 11.7688C19.5461 10.9988 19.0061 10.3188 18.3061 9.7888L12.7661 5.52879L12.7361 5.49876C12.6361 5.41876 12.4561 5.39871 12.2861 5.44871C12.2761 5.44871 12.2561 5.44872 12.2461 5.45872C12.5461 5.70872 12.7861 5.89884 13.0161 6.07884L13.8761 6.77879C14.0761 6.93879 14.2761 7.10878 14.4761 7.26878C14.7161 7.46878 14.8061 7.79886 14.6961 8.09886C14.5861 8.38886 14.3061 8.58885 13.9961 8.58885C11.6261 8.59885 9.25612 8.59886 6.88612 8.59886C6.66612 8.59886 6.41611 8.70888 6.31611 8.86888C6.45611 8.90888 6.58609 8.90867 6.72609 8.90867C6.81609 8.90867 6.91613 8.90867 7.01613 8.90867C7.49613 8.90867 8.01609 8.90867 8.53609 8.90867C9.04609 8.90867 9.56612 8.90867 10.0761 8.90867C10.3961 8.90867 10.6761 9.10867 10.7861 9.40867C10.8961 9.70867 10.7861 10.0488 10.5361 10.2488L4.06611 15.2187C3.92611 15.3187 3.82614 15.4388 3.77614 15.5588C3.76614 15.5788 3.7461 15.6187 3.7361 15.6487V15.7788C3.7361 15.8288 3.7361 15.8787 3.7361 15.9287C3.7361 15.8887 3.75609 15.9287 3.78609 15.9387C3.86609 15.9887 3.94609 15.9988 4.04609 15.9988C4.19609 15.9888 4.3961 15.8988 4.5561 15.7688C5.0961 15.3188 5.64612 14.8687 6.19612 14.4287C6.81612 13.9287 7.42608 13.4187 8.03609 12.9187C8.17608 12.8087 8.34613 12.7488 8.51613 12.7488H8.52614Z" fill="black"/>
<path d="M14.6765 17.4602C13.5165 17.4702 12.3465 17.0403 11.4965 16.2803C10.7065 15.5803 10.2065 14.5904 10.1265 13.5904C10.0765 13.1004 10.1365 12.5704 10.2965 12.0804C10.5265 11.3404 10.9765 10.6702 11.6065 10.1402C12.2965 9.56017 13.1865 9.18035 14.1165 9.07035C14.7565 9.02035 15.3065 9.05019 15.8065 9.16019C16.9165 9.42019 17.9066 10.0803 18.5266 10.9703C19.1366 11.8303 19.3765 12.9302 19.1865 13.9602C19.0165 14.9202 18.4365 15.8403 17.6065 16.4803C16.7865 17.1103 15.7565 17.4602 14.6765 17.4602ZM12.5665 11.2803C12.1565 11.6203 11.8665 12.0503 11.7265 12.5203C11.6265 12.8303 11.5965 13.1502 11.6265 13.4602C11.6765 14.0902 11.9965 14.7102 12.5065 15.1602C13.0865 15.6802 13.8865 15.9402 14.6765 15.9602C15.4265 15.9602 16.1365 15.7303 16.6865 15.3003C17.2265 14.8803 17.5966 14.3002 17.7066 13.6902C17.8266 13.0602 17.6765 12.3704 17.2965 11.8404C16.8765 11.2404 16.2165 10.8002 15.4665 10.6302C15.1165 10.5502 14.7266 10.5303 14.2666 10.5703C13.6566 10.6403 13.0466 10.9003 12.5766 11.3003L12.5665 11.2803Z" fill="black"/>
<path d="M14.7858 14.9608H14.6858C14.0758 14.9608 13.4658 14.6309 13.1158 14.1009C12.8858 13.7709 12.7858 13.3508 12.8358 12.9208C12.8758 12.5508 13.0458 12.2008 13.3158 11.9208C13.6058 11.6108 14.0158 11.4009 14.4658 11.3409C15.1458 11.2409 15.8558 11.5109 16.2758 12.0209C16.5358 12.3409 16.6758 12.7407 16.6758 13.1407C16.6758 13.5307 16.5458 13.9108 16.2958 14.2208C15.9458 14.6808 15.3758 14.9608 14.7658 14.9608H14.7858ZM14.7358 13.4608C14.9158 13.4608 15.0458 13.4009 15.1258 13.3009C15.1658 13.2509 15.1858 13.1907 15.1858 13.1507C15.1858 13.0907 15.1658 13.0308 15.1258 12.9808C15.0358 12.8708 14.8558 12.8109 14.6958 12.8309C14.5858 12.8509 14.4758 12.9008 14.4158 12.9608C14.3858 13.0008 14.3458 13.0509 14.3358 13.1109C14.3358 13.1709 14.3358 13.2208 14.3658 13.2608C14.4458 13.3908 14.5958 13.4408 14.7358 13.4608Z" fill="black"/>
</svg>