<svg width="24" height="24" viewBox="0 0 24 24" fill="none" xmlns="http://www.w3.org/2000/svg">
<path fill-rule="evenodd" clip-rule="evenodd" d="M3.7402 3.89737C4.72468 2.84117 6.12669 2.25 7.78216 2.25H16.2169C17.8762 2.25 19.2788 2.84084 20.2629 3.89765C21.2413 4.94841 21.75 6.39889 21.75 8.02638V15.9736C21.75 17.6011 21.2413 19.0516 20.2627 20.1024C19.2785 21.1592 17.8756 21.75 16.2159 21.75H7.78216C6.1228 21.75 4.72038 21.1591 3.73657 20.1023C2.75842 19.0515 2.25 17.601 2.25 15.9736V8.02638C2.25 6.39806 2.76117 4.94771 3.7402 3.89737ZM4.83745 4.92012C4.16024 5.64666 3.75 6.70951 3.75 8.02638V15.9736C3.75 17.2914 4.15861 18.3541 4.83451 19.0802C5.50475 19.8003 6.49341 20.25 7.78216 20.25H16.2159C17.5052 20.25 18.4944 19.8002 19.165 19.0801C19.8412 18.354 20.25 17.2913 20.25 15.9736V8.02638C20.25 6.70868 19.8412 5.64597 19.1651 4.91984C18.4946 4.19975 17.5056 3.75 16.2169 3.75H7.78216C6.49828 3.75 5.50921 4.19943 4.83745 4.92012Z" fill="black"/>
<path fill-rule="evenodd" clip-rule="evenodd" d="M9.80688 7.76799C9.11828 7.82942 8.47694 8.15862 8.11143 8.66645L8.10593 8.67408L8.10588 8.67405C7.86366 9.00184 7.73958 9.43858 7.74849 9.8991L7.7487 9.91025L7.74862 9.91025C7.75115 10.4764 7.75021 11.0354 7.74927 11.5918C7.74787 12.4155 7.74649 13.2335 7.75641 14.0608C7.80948 15.1777 8.81482 16.1846 9.93323 16.2405C10.8035 16.2525 11.6684 16.2505 12.5404 16.2485C12.9938 16.2475 13.4492 16.2464 13.9081 16.2473L13.9115 16.2473C14.8194 16.2533 15.7146 15.6446 16.0638 14.7904L16.0673 14.7818L16.0674 14.7818C16.2024 14.4628 16.247 14.1012 16.2519 13.656C16.2539 13.4723 16.2495 13.2891 16.2446 13.0908C16.2435 13.0467 16.2424 13.0018 16.2414 12.9561C16.2361 12.7272 16.2323 12.4802 16.2428 12.2298C16.2337 12.0885 16.2389 11.9543 16.2434 11.8537C16.2444 11.832 16.2454 11.8116 16.2463 11.7924C16.2507 11.6967 16.2538 11.6299 16.2523 11.5633C16.2518 11.5437 16.251 11.5271 16.2499 11.5131C16.2062 11.5106 16.1473 11.5094 16.0623 11.5089C16.0548 11.5088 16.047 11.5088 16.039 11.5087C15.9163 11.5081 15.7256 11.507 15.5408 11.4754C15.3339 11.4399 15.0544 11.3547 14.8187 11.122L14.8082 11.1115C14.5291 10.8249 14.4274 10.4874 14.3838 10.2278C14.3541 10.0512 14.3441 9.83864 14.3377 9.70411C14.3359 9.6659 14.3344 9.63398 14.3328 9.61096C14.3323 9.60377 14.3319 9.59658 14.3317 9.58938C14.3141 9.14734 14.0853 8.6997 13.7205 8.39087L13.7178 8.38857L13.7178 8.38856C13.2107 7.95506 12.5007 7.73783 11.7711 7.75188L11.7648 7.752L11.7648 7.75197C11.4735 7.75516 11.2255 7.75336 10.9921 7.75166C10.6009 7.74882 10.2508 7.74628 9.80688 7.76799ZM16.2392 11.4469C16.2393 11.4467 16.2401 11.4482 16.2411 11.452C16.2397 11.449 16.2391 11.4471 16.2392 11.4469ZM11.7455 6.25209C11.5125 6.25461 11.2874 6.25317 11.0621 6.25174C10.6343 6.24901 10.2054 6.24627 9.71865 6.27052C9.71003 6.27095 9.70141 6.27153 9.69281 6.27226C8.6445 6.36086 7.56404 6.86197 6.89672 7.7864C6.42872 8.42173 6.23567 9.19319 6.24866 9.92223C6.25107 10.4654 6.25017 11.0159 6.24927 11.5692C6.2479 12.4088 6.24652 13.2547 6.25667 14.0911C6.25676 14.0986 6.25697 14.1061 6.25728 14.1136C6.33761 16.0171 7.97508 17.6548 9.87701 17.7395C9.88464 17.7398 9.89227 17.74 9.8999 17.7402C10.7858 17.7525 11.6771 17.7505 12.5612 17.7485C13.0111 17.7475 13.459 17.7464 13.9035 17.7473C15.441 17.7566 16.8758 16.763 17.4505 15.3623C17.6964 14.7793 17.7461 14.1902 17.7518 13.6725C17.7542 13.4595 17.7489 13.2441 17.7439 13.0447C17.7429 13.0029 17.7419 12.9619 17.741 12.9217C17.7355 12.6819 17.7329 12.4641 17.7432 12.2554C17.7449 12.2201 17.7442 12.1847 17.7409 12.1495C17.7364 12.0998 17.7369 12.0336 17.7419 11.9208C17.7426 11.9066 17.7433 11.8914 17.7441 11.8752C17.7486 11.7804 17.7547 11.653 17.7519 11.5293C17.7452 11.2319 17.6871 10.7826 17.3181 10.4131C17.0883 10.177 16.8125 10.0857 16.603 10.0468C16.4104 10.011 16.2134 10.0098 16.088 10.009C16.0827 10.009 16.0774 10.0089 16.0723 10.0089C15.9783 10.0083 15.9148 10.0073 15.8677 10.0045C15.8662 9.99693 15.8646 9.98854 15.8631 9.97932C15.8547 9.92921 15.8489 9.86835 15.8442 9.78636C15.8422 9.75208 15.8406 9.71819 15.8387 9.68023C15.8384 9.67268 15.838 9.66496 15.8376 9.65705C15.8356 9.61459 15.8332 9.56719 15.83 9.51888C15.7911 8.62225 15.3418 7.79879 14.6912 7.24729C13.854 6.5322 12.7662 6.23313 11.7455 6.25209ZM15.8887 10.0724C15.8887 10.0725 15.8882 10.0718 15.8873 10.0702C15.8883 10.0715 15.8887 10.0724 15.8887 10.0724Z" fill="black"/>
<path fill-rule="evenodd" clip-rule="evenodd" d="M9.28809 10.1328C9.28809 9.7186 9.62387 9.38281 10.0381 9.38281H11.8543C12.2685 9.38281 12.6043 9.7186 12.6043 10.1328C12.6043 10.547 12.2685 10.8828 11.8543 10.8828H10.0381C9.62387 10.8828 9.28809 10.547 9.28809 10.1328Z" fill="black"/>
<path fill-rule="evenodd" clip-rule="evenodd" d="M9.28809 13.7305C9.28809 13.3163 9.62387 12.9805 10.0381 12.9805H13.3821C13.7963 12.9805 14.1321 13.3163 14.1321 13.7305C14.1321 14.1447 13.7963 14.4805 13.3821 14.4805H10.0381C9.62387 14.4805 9.28809 14.1447 9.28809 13.7305Z" fill="black"/>
</svg>