<svg width="25" height="24" viewBox="0 0 25 24" fill="none" xmlns="http://www.w3.org/2000/svg">
<path opacity="0.4" fill-rule="evenodd" clip-rule="evenodd" d="M11.7754 2.5C6.53539 2.5 2.27539 6.76 2.27539 12C2.27539 17.24 6.53539 21.5 11.7754 21.5C14.0195 21.5 16.0745 20.7175 17.701 19.4076C17.8395 19.296 17.7632 19.06 17.5854 19.06C17.3354 19.03 17.1154 18.87 16.9954 18.64C16.9354 18.52 15.4854 15.54 16.1954 13.33C16.7254 11.59 18.4054 10.62 19.9954 11.11C20.2395 11.1881 20.4693 11.2972 20.6801 11.4315C20.9117 11.5789 21.2622 11.4253 21.2379 11.1518C20.8064 6.30618 16.7328 2.5 11.7754 2.5Z" fill="black"/>
<path fill-rule="evenodd" clip-rule="evenodd" d="M16.0553 10.3987C15.9253 10.4987 15.7653 10.5587 15.6053 10.5587C15.3753 10.5587 15.1553 10.4488 15.0053 10.2587C14.9353 10.1587 14.7653 9.99875 14.5153 9.99875C14.2653 9.99875 14.0953 10.1587 14.0253 10.2587C13.7653 10.5887 13.2953 10.6487 12.9653 10.3987C12.6453 10.1487 12.5753 9.67875 12.8353 9.34875C13.6653 8.25875 15.3653 8.25875 16.1953 9.34875C16.4453 9.67875 16.3853 10.1487 16.0553 10.3987Z" fill="black"/>
<path fill-rule="evenodd" clip-rule="evenodd" d="M13.6453 15.7687C13.6453 16.1787 13.4353 16.9387 11.9953 17.3787C11.9253 17.3987 11.8553 17.4087 11.7753 17.4087C11.4553 17.4087 11.1653 17.1987 11.0653 16.8787C10.9353 16.4787 11.1653 16.0687 11.5553 15.9387C11.7553 15.8787 11.8953 15.8187 11.9953 15.7687C11.9253 15.7087 11.8353 15.6587 11.7653 15.6187C11.5253 15.4787 11.3753 15.2287 11.3853 14.9487C11.3853 14.6787 11.5353 14.4287 11.7753 14.2987C11.8153 14.2787 11.8453 14.2587 11.8853 14.2387C11.8153 14.2087 11.7153 14.1787 11.6153 14.1487C11.2153 14.0387 10.9853 13.6287 11.0953 13.2287C11.2053 12.8287 11.6053 12.5887 12.0153 12.6987C13.3653 13.0787 13.6453 13.7187 13.6453 14.1987C13.6453 14.4987 13.5153 14.7587 13.3353 14.9687C13.5153 15.1987 13.6453 15.4587 13.6453 15.7687Z" fill="black"/>
<path fill-rule="evenodd" clip-rule="evenodd" d="M10.5852 10.3987C10.4552 10.4987 10.2952 10.5587 10.1352 10.5587C9.90524 10.5587 9.68524 10.4488 9.53524 10.2587C9.46524 10.1587 9.29524 9.99875 9.04524 9.99875C8.79524 9.99875 8.62524 10.1587 8.55524 10.2587C8.30524 10.5887 7.83524 10.6487 7.50524 10.3987C7.17524 10.1487 7.10524 9.67875 7.36524 9.34875C8.19524 8.25875 9.89524 8.25875 10.7252 9.34875C10.9852 9.67875 10.9152 10.1487 10.5852 10.3987Z" fill="black"/>
<path fill-rule="evenodd" clip-rule="evenodd" d="M22.4452 14.5689C22.1652 14.1989 21.6852 13.9889 21.2452 13.9989C21.1852 13.9989 21.1152 13.9989 21.0652 13.9789C20.8052 13.9289 20.5952 13.7389 20.5052 13.4789C20.3552 13.0389 20.0052 12.6889 19.5552 12.5389C18.6252 12.2589 17.8752 12.9689 17.6252 13.7689C17.2552 14.9389 17.7952 16.6789 18.1752 17.5989C18.5252 17.6089 18.9752 17.6089 19.4552 17.5789C20.3352 17.4989 21.3152 17.2889 21.9552 16.8089C22.3952 16.4689 22.7252 15.9389 22.7252 15.3889C22.7252 15.1089 22.6452 14.8289 22.4452 14.5689Z" fill="black"/>
</svg>