<svg width="24" height="24" viewBox="0 0 24 24" fill="none" xmlns="http://www.w3.org/2000/svg">
<path d="M20.5716 9.24816C19.409 5.62339 16.0111 3 12 3C7.02908 3 3 7.02908 3 12C3 16.9699 7.02908 21 12 21C13.3428 21 14.6169 20.7059 15.7615 20.1786" stroke="black" stroke-width="1.5" stroke-linecap="round" stroke-linejoin="round"/>
<path d="M8.11719 9.80946C8.38184 9.46503 8.772 9.25 9.20497 9.25C9.63794 9.25 10.0281 9.46503 10.2928 9.80946" stroke="black" stroke-width="1.5" stroke-linecap="round" stroke-linejoin="round"/>
<path d="M13.5859 9.80946C13.8506 9.46503 14.2407 9.25 14.6737 9.25C15.1067 9.25 15.4969 9.46503 15.7615 9.80946" stroke="black" stroke-width="1.5" stroke-linecap="round" stroke-linejoin="round"/>
<path d="M11.9375 16.6628C12.6199 16.4534 13.0567 16.1318 13.0567 15.7713C13.0567 15.3923 12.2903 14.9657 12.2903 14.9657C12.2903 14.9657 13.0567 14.5593 13.0567 14.1999C13.0567 13.89 12.6354 13.6131 11.9739 13.4297" stroke="black" stroke-width="1.5" stroke-linecap="round" stroke-linejoin="round"/>
<path fill-rule="evenodd" clip-rule="evenodd" d="M21.1267 16.7329C21.9666 16.0943 22.3175 14.9381 21.6482 14.0551C21.2952 13.591 20.7399 13.3265 20.1571 13.3453C19.9735 12.794 19.5373 12.3643 18.983 12.1888C17.9242 11.862 16.9556 12.5855 16.6428 13.5932C16.14 15.1842 17.2678 17.4717 17.2678 17.4717C17.2678 17.4717 19.779 17.7548 21.1267 16.7329Z" stroke="black" stroke-width="1.5" stroke-linecap="round" stroke-linejoin="round"/>
</svg>