<svg width="25" height="24" viewBox="0 0 25 24" fill="none" xmlns="http://www.w3.org/2000/svg">
<path fill-rule="evenodd" clip-rule="evenodd" d="M4.89115 3.89729C5.87586 2.84115 7.27807 2.25 8.93353 2.25H15.5682C17.2276 2.25 18.63 2.84086 19.6138 3.89773C20.592 4.94853 21.1004 6.39899 21.1004 8.02638V15.9736C21.1004 17.601 20.592 19.0515 19.6137 20.1023C18.6297 21.1592 17.227 21.75 15.5673 21.75H8.93353C7.27418 21.75 5.87156 21.1592 4.88753 20.1024C3.90912 19.0516 3.40039 17.6011 3.40039 15.9736V8.02638C3.40039 6.39795 3.91186 4.9476 4.89115 3.89729ZM5.98826 4.9202C5.31081 5.64678 4.90039 6.70962 4.90039 8.02638V15.9736C4.90039 17.2913 5.30918 18.354 5.98531 19.0802C6.65581 19.8003 7.64476 20.25 8.93353 20.25H15.5673C16.8566 20.25 17.8455 19.8002 18.5158 19.0802C19.1918 18.3541 19.6004 17.2914 19.6004 15.9736V8.02638C19.6004 6.70857 19.1918 5.64585 18.5159 4.91976C17.8456 4.19973 16.857 3.75 15.5682 3.75H8.93353C7.64963 3.75 6.66027 4.19944 5.98826 4.9202ZM11.9256 7.14515C12.1855 7.02027 12.494 7.05543 12.7191 7.23559L15.3889 9.37224C15.5668 9.51459 15.6703 9.73006 15.6703 9.95788C15.6703 10.1857 15.5667 10.4012 15.3888 10.5435L13.4506 12.094L15.3888 13.6445C15.5667 13.7868 15.6703 14.0023 15.6703 14.2301C15.6703 14.458 15.5667 14.6735 15.3888 14.8158L12.719 16.9515C12.4938 17.1316 12.1854 17.1667 11.9256 17.0418C11.6657 16.9169 11.5005 16.6541 11.5005 16.3658V13.654L10.0482 14.8158C9.72471 15.0745 9.25274 15.0221 8.99399 14.6986C8.73524 14.3752 8.78769 13.9032 9.11115 13.6445L11.0494 12.094L9.11115 10.5435C8.78769 10.2847 8.73524 9.81275 8.99399 9.4893C9.25274 9.16585 9.72471 9.11339 10.0482 9.37214L11.5005 10.5339V7.82116C11.5005 7.53283 11.6658 7.27003 11.9256 7.14515ZM13.0005 13.6548L13.7197 14.2301L13.0005 14.8054V13.6548ZM13.0005 10.5332V9.38198L13.7198 9.95769L13.0005 10.5332Z" fill="black"/>
</svg>