<svg width="25" height="24" viewBox="0 0 25 24" fill="none" xmlns="http://www.w3.org/2000/svg">
<path fill-rule="evenodd" clip-rule="evenodd" d="M9.52225 2.32776C9.77791 2.20129 10.0832 2.23078 10.3099 2.40386L12.7073 4.23402C13.0365 4.48536 13.0997 4.95602 12.8484 5.28526C12.597 5.6145 12.1264 5.67765 11.7971 5.42631L10.6048 4.51611V10.4939L11.7242 9.6481C12.0546 9.39837 12.525 9.46383 12.7747 9.7943C13.0244 10.1248 12.959 10.5951 12.6285 10.8448L11.071 12.0218L15.9441 15.9192C16.1221 16.0615 16.2257 16.277 16.2257 16.5049C16.2257 16.7328 16.1221 16.9483 15.9441 17.0906L10.3232 21.5857C10.0981 21.7658 9.78967 21.8009 9.52986 21.676C9.27004 21.5511 9.1048 21.2883 9.1048 21V13.5686L5.63514 16.3404C5.31152 16.599 4.83958 16.5462 4.58105 16.2226C4.32251 15.899 4.37528 15.427 4.6989 15.1685L8.65402 12.0088L4.69825 8.84146C4.37491 8.58256 4.32267 8.11057 4.58157 7.78723C4.84046 7.4639 5.31245 7.41166 5.63579 7.67055L9.1048 10.4482V3.00001C9.1048 2.71478 9.26659 2.45423 9.52225 2.32776ZM10.6048 13.5697V19.4399L14.2748 16.5049L10.6048 13.5697ZM14.9441 5.07266C15.237 4.77977 15.7119 4.77977 16.0048 5.07266L17.4039 6.47174L18.8029 5.07266C19.0958 4.77977 19.5707 4.77977 19.8636 5.07266C20.1565 5.36556 20.1565 5.84043 19.8636 6.13332L18.4645 7.5324L19.8636 8.93147C20.1565 9.22437 20.1565 9.69924 19.8636 9.99213C19.5707 10.285 19.0958 10.285 18.8029 9.99213L17.4039 8.59306L16.0048 9.99213C15.7119 10.285 15.237 10.285 14.9441 9.99213C14.6512 9.69924 14.6512 9.22437 14.9441 8.93147L16.3432 7.5324L14.9441 6.13332C14.6512 5.84043 14.6512 5.36556 14.9441 5.07266Z" fill="black"/>
</svg>