<svg width="24" height="24" viewBox="0 0 24 24" fill="none" xmlns="http://www.w3.org/2000/svg">
<path fill-rule="evenodd" clip-rule="evenodd" d="M7.13676 2.77937C7.13676 2.6608 7.03383 2.568 6.91641 2.58445C4.24809 2.95839 2.49976 5.03718 2.49976 8.02568V15.9737C2.49976 18.9622 4.24809 21.041 6.91641 21.4149C7.03384 21.4314 7.13676 21.3386 7.13676 21.22V2.77937Z" fill="black"/>
<path fill-rule="evenodd" clip-rule="evenodd" d="M15.9912 8.406H11.9762C11.5622 8.406 11.2262 8.07 11.2262 7.656C11.2262 7.242 11.5622 6.906 11.9762 6.906H15.9912C16.4052 6.906 16.7412 7.242 16.7412 7.656C16.7412 8.07 16.4052 8.406 15.9912 8.406ZM15.9912 12.751H11.9762C11.5622 12.751 11.2262 12.415 11.2262 12.001C11.2262 11.587 11.5622 11.251 11.9762 11.251H15.9912C16.4052 11.251 16.7412 11.587 16.7412 12.001C16.7412 12.415 16.4052 12.751 15.9912 12.751ZM15.9912 17.095H11.9762C11.5622 17.095 11.2262 16.76 11.2262 16.345C11.2262 15.931 11.5622 15.595 11.9762 15.595H15.9912C16.4052 15.595 16.7412 15.931 16.7412 16.345C16.7412 16.76 16.4052 17.095 15.9912 17.095ZM16.2172 2.5H8.83721C8.72675 2.5 8.63721 2.58954 8.63721 2.7V21.3C8.63721 21.4105 8.72675 21.5 8.83721 21.5H16.2162C19.3762 21.5 21.5002 19.279 21.5002 15.973V8.026C21.5002 4.72 19.3772 2.5 16.2172 2.5Z" fill="black"/>
</svg>