<svg width="24" height="24" viewBox="0 0 24 24" fill="none" xmlns="http://www.w3.org/2000/svg">
<path opacity="0.4" fill-rule="evenodd" clip-rule="evenodd" d="M16.2172 2.5H8.83721C8.72675 2.5 8.63721 2.58954 8.63721 2.7V21.3C8.63721 21.4105 8.72675 21.5 8.83721 21.5H16.2162C19.3762 21.5 21.5002 19.279 21.5002 15.973V8.026C21.5002 4.72 19.3772 2.5 16.2172 2.5Z" fill="black"/>
<path fill-rule="evenodd" clip-rule="evenodd" d="M7.13676 2.7808C7.13676 2.66223 7.03383 2.56942 6.91641 2.58588C4.24809 2.95982 2.49976 5.03861 2.49976 8.02711V15.9751C2.49976 18.9636 4.24809 21.0424 6.91641 21.4163C7.03384 21.4328 7.13676 21.34 7.13676 21.2214V2.7808Z" fill="black"/>
<path fill-rule="evenodd" clip-rule="evenodd" d="M15.9912 9.37891H11.9762C11.5622 9.37891 11.2262 9.04291 11.2262 8.62891C11.2262 8.21491 11.5622 7.87891 11.9762 7.87891H15.9912C16.4052 7.87891 16.7412 8.21491 16.7412 8.62891C16.7412 9.04291 16.4052 9.37891 15.9912 9.37891ZM14.0962 13.7239H11.9762C11.5622 13.7239 11.2262 13.3879 11.2262 12.9739C11.2262 12.5599 11.5622 12.2239 11.9762 12.2239H14.0962C14.5112 12.2239 14.8462 12.5599 14.8462 12.9739C14.8462 13.3879 14.5112 13.7239 14.0962 13.7239Z" fill="black"/>
</svg>