<svg width="24" height="24" viewBox="0 0 24 24" fill="none" xmlns="http://www.w3.org/2000/svg">
<path fill-rule="evenodd" clip-rule="evenodd" d="M8.33594 9.04688C8.33594 8.63266 8.67172 8.29688 9.08594 8.29688H14.914C15.3282 8.29688 15.664 8.63266 15.664 9.04688C15.664 9.46109 15.3282 9.79688 14.914 9.79688H9.08594C8.67172 9.79688 8.33594 9.46109 8.33594 9.04688ZM8.33594 12.5207C8.33594 12.1064 8.67172 11.7707 9.08594 11.7707H12.1031C12.5173 11.7707 12.8531 12.1064 12.8531 12.5207C12.8531 12.9349 12.5173 13.2707 12.1031 13.2707H9.08594C8.67172 13.2707 8.33594 12.9349 8.33594 12.5207Z" fill="black"/>
<path fill-rule="evenodd" clip-rule="evenodd" d="M2.84961 8.37768C2.84961 5.88619 4.86862 3.86719 7.3601 3.86719H16.6402C19.1317 3.86719 21.1507 5.88619 21.1507 8.37768V13.4711C21.1507 15.9626 19.1317 17.9816 16.6402 17.9816H7.3601C4.86862 17.9816 2.84961 15.9626 2.84961 13.4711V8.37768ZM7.3601 5.36719C5.69704 5.36719 4.34961 6.71462 4.34961 8.37768V13.4711C4.34961 15.1342 5.69704 16.4816 7.3601 16.4816H16.6402C18.3032 16.4816 19.6507 15.1342 19.6507 13.4711V8.37768C19.6507 6.71462 18.3032 5.36719 16.6402 5.36719H7.3601Z" fill="black"/>
<path fill-rule="evenodd" clip-rule="evenodd" d="M12 2.25C12.4142 2.25 12.75 2.58579 12.75 3V4.62873C12.75 5.04295 12.4142 5.37873 12 5.37873C11.5858 5.37873 11.25 5.04295 11.25 4.62873V3C11.25 2.58579 11.5858 2.25 12 2.25Z" fill="black"/>
<path fill-rule="evenodd" clip-rule="evenodd" d="M12.0011 16.5078C12.2024 16.5078 12.3952 16.5887 12.5362 16.7324L16.2082 20.4724C16.4984 20.768 16.494 21.2429 16.1984 21.5331C15.9029 21.8232 15.428 21.8189 15.1378 21.5233L12.001 18.3283L8.86324 21.5234C8.57301 21.8189 8.09815 21.8232 7.80262 21.533C7.50709 21.2428 7.50279 20.7679 7.79301 20.4724L11.4659 16.7323C11.607 16.5887 11.7998 16.5078 12.0011 16.5078Z" fill="black"/>
</svg>