<svg width="25" height="24" viewBox="0 0 25 24" fill="none" xmlns="http://www.w3.org/2000/svg">
<path fill-rule="evenodd" clip-rule="evenodd" d="M3.9902 3.89737C4.97468 2.84117 6.37669 2.25 8.03216 2.25H16.4669C18.1262 2.25 19.5288 2.84084 20.5129 3.89765C21.4913 4.94841 22 6.39889 22 8.02638V15.9736C22 17.6011 21.4913 19.0516 20.5127 20.1024C19.5285 21.1592 18.1256 21.75 16.4659 21.75H8.03216C6.3728 21.75 4.97038 21.1591 3.98657 20.1023C3.00842 19.0515 2.5 17.601 2.5 15.9736V8.02638C2.5 6.39806 3.01117 4.94771 3.9902 3.89737ZM5.08745 4.92012C4.41024 5.64666 4 6.70951 4 8.02638V15.9736C4 17.2914 4.40861 18.3541 5.08451 19.0802C5.75475 19.8003 6.74341 20.25 8.03216 20.25H16.4659C17.7552 20.25 18.7444 19.8002 19.415 19.0801C20.0912 18.354 20.5 17.2913 20.5 15.9736V8.02638C20.5 6.70868 20.0912 5.64597 19.4151 4.91984C18.7446 4.19975 17.7556 3.75 16.4669 3.75H8.03216C6.74828 3.75 5.75921 4.19943 5.08745 4.92012Z" fill="black"/>
<path fill-rule="evenodd" clip-rule="evenodd" d="M12.207 15.3047C12.207 14.8905 12.5428 14.5547 12.957 14.5547H17.2673C17.6815 14.5547 18.0173 14.8905 18.0173 15.3047C18.0173 15.7189 17.6815 16.0547 17.2673 16.0547H12.957C12.5428 16.0547 12.207 15.7189 12.207 15.3047Z" fill="black"/>
<path fill-rule="evenodd" clip-rule="evenodd" d="M10.6739 13.2901C10.9667 13.5831 10.9665 14.058 10.6736 14.3508L9.0701 15.9533C8.77718 16.246 8.30243 16.246 8.0096 15.9531L7.18647 15.13C6.89357 14.8371 6.89357 14.3622 7.18647 14.0693C7.47936 13.7764 7.95423 13.7764 8.24713 14.0693L8.54009 14.3623L9.61322 13.2898C9.9062 12.997 10.3811 12.9972 10.6739 13.2901Z" fill="black"/>
<path fill-rule="evenodd" clip-rule="evenodd" d="M10.6739 8.04796C10.9667 8.34094 10.9665 8.81581 10.6736 9.10862L9.0701 10.7111C8.77718 11.0038 8.30243 11.0038 8.0096 10.7109L7.18647 9.88781C6.89357 9.59491 6.89357 9.12004 7.18647 8.82715C7.47936 8.53425 7.95423 8.53425 8.24713 8.82715L8.54009 9.12011L9.61322 8.04763C9.9062 7.75483 10.3811 7.75497 10.6739 8.04796Z" fill="black"/>
<path fill-rule="evenodd" clip-rule="evenodd" d="M12.207 10.0664C12.207 9.65219 12.5428 9.31641 12.957 9.31641H17.2673C17.6815 9.31641 18.0173 9.65219 18.0173 10.0664C18.0173 10.4806 17.6815 10.8164 17.2673 10.8164H12.957C12.5428 10.8164 12.207 10.4806 12.207 10.0664Z" fill="black"/>
</svg>