<svg width="24" height="24" viewBox="0 0 24 24" fill="none" xmlns="http://www.w3.org/2000/svg">
<path d="M7.36422 5.82812C5.23638 6.09179 3.93652 7.75456 3.93652 10.0274V16.7446C3.93652 19.2354 5.4913 20.9993 7.98204 20.9993H12.5468" stroke="black" stroke-width="1.5" stroke-linecap="round" stroke-linejoin="round"/>
<path d="M16.6266 5.82031C18.7632 6.08398 20.0631 7.74772 20.0631 10.0293V16.7465C20.0631 19.2373 18.5083 21.0012 16.0176 21.0012" stroke="black" stroke-width="1.5" stroke-linecap="round" stroke-linejoin="round"/>
<path d="M11.9954 8.565V10.4194M14.1409 3.62269C14.2888 3.99435 14.1974 4.41856 13.9104 4.69682C13.9104 4.69682 13.4579 5.03541 13.3869 5.20276C13.2964 5.4168 13.2828 5.92274 13.3869 6.12998C13.492 6.34013 14.138 6.69331 14.138 6.69331C14.5292 6.98714 14.7597 7.44832 14.7597 7.93771C14.7597 8.28408 14.4786 8.56429 14.1322 8.56429H9.859C9.51263 8.56429 9.23145 8.28408 9.23145 7.93771C9.23145 7.44832 9.46203 6.98714 9.85316 6.69331C9.85316 6.69331 10.4992 6.34013 10.6043 6.12998C10.7084 5.92274 10.6948 5.4168 10.6043 5.20276C10.5333 5.03541 10.0808 4.69682 10.0808 4.69682C9.79381 4.41856 9.70333 3.99435 9.85024 3.62269C10.0001 3.24713 10.363 3 10.7677 3H13.2235C13.6282 3 13.9921 3.24713 14.1409 3.62269Z" stroke="black" stroke-width="1.5" stroke-linecap="round" stroke-linejoin="round"/>
<path d="M9.38442 13.7031H14.6072M8.33594 17.0609H15.6554" stroke="black" stroke-width="1.5" stroke-linecap="round" stroke-linejoin="round"/>
</svg>