<svg width="24" height="24" viewBox="0 0 24 24" fill="none" xmlns="http://www.w3.org/2000/svg">
<path opacity="0.4" fill-rule="evenodd" clip-rule="evenodd" d="M16.2172 2.5H8.83721C8.72675 2.5 8.63721 2.58954 8.63721 2.7V21.3C8.63721 21.4105 8.72675 21.5 8.83721 21.5H16.2162C19.3762 21.5 21.5002 19.279 21.5002 15.973V8.026C21.5002 4.72 19.3772 2.5 16.2172 2.5Z" fill="black"/>
<path fill-rule="evenodd" clip-rule="evenodd" d="M7.13676 2.77885C7.13676 2.66027 7.03383 2.56747 6.91641 2.58393C4.24809 2.95786 2.49976 5.03666 2.49976 8.02515V15.9732C2.49976 18.9617 4.24809 21.0404 6.91641 21.4144C7.03384 21.4308 7.13676 21.338 7.13676 21.2195V2.77885Z" fill="black"/>
<path fill-rule="evenodd" clip-rule="evenodd" d="M15.9912 8.40625H11.9762C11.5622 8.40625 11.2262 8.07025 11.2262 7.65625C11.2262 7.24225 11.5622 6.90625 11.9762 6.90625H15.9912C16.4052 6.90625 16.7412 7.24225 16.7412 7.65625C16.7412 8.07025 16.4052 8.40625 15.9912 8.40625ZM15.9912 12.7513H11.9762C11.5622 12.7513 11.2262 12.4153 11.2262 12.0013C11.2262 11.5873 11.5622 11.2513 11.9762 11.2513H15.9912C16.4052 11.2513 16.7412 11.5873 16.7412 12.0013C16.7412 12.4153 16.4052 12.7513 15.9912 12.7513ZM15.9912 17.0953H11.9762C11.5622 17.0953 11.2262 16.7603 11.2262 16.3453C11.2262 15.9313 11.5622 15.5953 11.9762 15.5953H15.9912C16.4052 15.5953 16.7412 15.9313 16.7412 16.3453C16.7412 16.7603 16.4052 17.0953 15.9912 17.0953Z" fill="black"/>
</svg>