<svg width="24" height="24" viewBox="0 0 24 24" fill="none" xmlns="http://www.w3.org/2000/svg">
<path fill-rule="evenodd" clip-rule="evenodd" d="M12.7496 4.12012V3C12.7496 2.586 12.4136 2.25 11.9996 2.25C11.5856 2.25 11.2496 2.586 11.2496 3V4.12012H7.35949C5.01049 4.12012 3.09949 6.03112 3.09949 8.38012V13.4701C3.09949 15.8191 5.01049 17.7301 7.35949 17.7301H10.4876L7.79248 20.4751C7.50248 20.7711 7.50648 21.2451 7.80248 21.5351C8.09848 21.8261 8.57248 21.8211 8.86248 21.5251L12.0005 18.3301L15.1375 21.5251C15.2845 21.6751 15.4785 21.7501 15.6725 21.7501C15.8615 21.7501 16.0515 21.6791 16.1975 21.5351C16.4935 21.2451 16.4975 20.7711 16.2075 20.4751L13.5131 17.7301H16.6395C18.9895 17.7301 20.9005 15.8191 20.9005 13.4701V8.38012C20.9005 6.03112 18.9895 4.12012 16.6395 4.12012H12.7496ZM9.08569 9.79004H14.9137C15.3277 9.79004 15.6637 9.45404 15.6637 9.04004C15.6637 8.62604 15.3277 8.29004 14.9137 8.29004H9.08569C8.67169 8.29004 8.33569 8.62604 8.33569 9.04004C8.33569 9.45404 8.67169 9.79004 9.08569 9.79004ZM9.08569 13.269H12.1027C12.5167 13.269 12.8527 12.934 12.8527 12.519C12.8527 12.105 12.5167 11.769 12.1027 11.769H9.08569C8.67169 11.769 8.33569 12.105 8.33569 12.519C8.33569 12.934 8.67169 13.269 9.08569 13.269Z" fill="black"/>
</svg>