<svg width="24" height="25" viewBox="0 0 24 25" fill="none" xmlns="http://www.w3.org/2000/svg">
<path fill-rule="evenodd" clip-rule="evenodd" d="M17.8336 6.30309C14.6118 3.08126 9.38819 3.08126 6.16637 6.30309C2.94454 9.52491 2.94454 14.7485 6.16637 17.9704C9.38819 21.1922 14.6118 21.1922 17.8336 17.9704C21.0555 14.7485 21.0555 9.52491 17.8336 6.30309ZM5.10571 5.24243C8.91332 1.43482 15.0867 1.43482 18.8943 5.24243C22.7019 9.05004 22.7019 15.2234 18.8943 19.031C15.0867 22.8386 8.91332 22.8386 5.10571 19.031C1.2981 15.2234 1.2981 9.05004 5.10571 5.24243Z" fill="black"/>
<path fill-rule="evenodd" clip-rule="evenodd" d="M12.4189 7.50667C12.7669 7.73141 12.8668 8.19566 12.642 8.5436L10.805 11.3878H14.5706C14.8453 11.3878 15.0981 11.538 15.2294 11.7794C15.3607 12.0207 15.3495 12.3145 15.2003 12.5452L12.6133 16.5441C12.3883 16.8918 11.924 16.9914 11.5762 16.7664C11.2285 16.5414 11.1289 16.0771 11.3539 15.7293L13.1921 12.8878H9.42774C9.15309 12.8878 8.90041 12.7377 8.76907 12.4965C8.63772 12.2553 8.64871 11.9616 8.79772 11.7309L11.382 7.72977C11.6067 7.38182 12.071 7.28194 12.4189 7.50667Z" fill="black"/>
</svg>