<svg width="24" height="24" viewBox="0 0 24 24" fill="none" xmlns="http://www.w3.org/2000/svg">
<path d="M10.0887 10.0068L7.23327 12.8638C6.06627 12.0388 4.42727 12.1448 3.37627 13.1878C2.81127 13.7558 2.49927 14.5098 2.49927 15.3088C2.49927 16.1098 2.81127 16.8608 3.37727 17.4248C3.99627 18.0438 4.85627 18.3508 5.70827 18.2928C5.64727 19.1458 5.95327 20.0048 6.57327 20.6248C7.15727 21.2058 7.92427 21.4958 8.69227 21.4958C9.45927 21.4958 10.2283 21.2048 10.8133 20.6228C11.3813 20.0538 11.6923 19.2978 11.6903 18.4958C11.6893 17.8588 11.4903 17.2528 11.1223 16.7488L13.9765 13.8946L10.0887 10.0068Z" fill="black"/>
<path opacity="0.4" d="M13.9768 13.8947L10.0891 10.007L12.8626 7.23195C12.5046 6.73195 12.3106 6.1349 12.3096 5.50685C12.3076 4.70485 12.6196 3.94789 13.1876 3.37892C14.3566 2.21291 16.2586 2.21486 17.4276 3.37685C18.0466 3.99684 18.3527 4.8539 18.2916 5.70888C19.1547 5.65187 20.0046 5.9579 20.6226 6.57692C21.1866 7.13893 21.4987 7.88795 21.5006 8.68495C21.5026 9.48793 21.1906 10.2439 20.6226 10.8129C19.6046 11.8379 17.8896 11.9589 16.7456 11.1259L13.9768 13.8947Z" fill="black"/>
</svg>