<svg width="24" height="25" viewBox="0 0 24 25" fill="none" xmlns="http://www.w3.org/2000/svg">
<path d="M12.0571 22.0508C6.67713 22.0508 2.30713 17.6808 2.30713 12.3008C2.30713 6.92078 6.67713 2.55078 12.0571 2.55078C17.4371 2.55078 21.8071 6.92078 21.8071 12.3008C21.8071 17.6808 17.4371 22.0508 12.0571 22.0508ZM12.0571 4.05078C7.50713 4.05078 3.80713 7.75078 3.80713 12.3008C3.80713 16.8508 7.50713 20.5508 12.0571 20.5508C16.6071 20.5508 20.3071 16.8508 20.3071 12.3008C20.3071 7.75078 16.6071 4.05078 12.0571 4.05078Z" fill="black"/>
<path d="M10.4375 18.2806C9.81746 18.2806 9.22746 18.0406 8.78746 17.6006C8.41746 17.2306 8.18746 16.7406 8.12746 16.2406C7.61746 16.1806 7.13746 15.9506 6.76746 15.5806C5.85746 14.6706 5.85746 13.1906 6.76746 12.2806C7.49746 11.5606 8.57746 11.4106 9.44746 11.8406L11.5975 9.69058C11.1675 8.82058 11.3175 7.73059 12.0375 7.01059C12.9175 6.13059 14.4575 6.13059 15.3375 7.01059C15.7075 7.38059 15.9375 7.87059 15.9975 8.37059C16.5075 8.43059 16.9875 8.66057 17.3575 9.03058C18.2675 9.94058 18.2675 11.4206 17.3575 12.3306C16.6375 13.0506 15.5475 13.2006 14.6775 12.7706L12.5275 14.9206C12.6875 15.2406 12.7675 15.5906 12.7675 15.9506C12.7675 16.5706 12.5275 17.1606 12.0875 17.6006C11.6475 18.0406 11.0575 18.2806 10.4375 18.2806ZM8.95746 14.6606C9.15746 14.6606 9.34746 14.7406 9.48746 14.8806C9.69746 15.0906 9.75746 15.3906 9.65746 15.6706C9.54746 15.9806 9.61746 16.3106 9.84746 16.5406C10.1675 16.8606 10.7075 16.8506 11.0275 16.5406C11.1875 16.3806 11.2675 16.1706 11.2675 15.9506C11.2675 15.7306 11.1775 15.5206 11.0275 15.3606C10.7375 15.0706 10.7375 14.5906 11.0275 14.3006L14.0675 11.2606C14.3575 10.9706 14.8375 10.9706 15.1275 11.2606C15.4575 11.5906 15.9775 11.5806 16.3075 11.2606C16.6275 10.9306 16.6275 10.4106 16.3075 10.0806C16.0775 9.85058 15.7375 9.78058 15.4375 9.89058C15.1675 9.99058 14.8575 9.92058 14.6475 9.72058C14.4375 9.51058 14.3775 9.21058 14.4775 8.93058C14.5875 8.62058 14.5175 8.28058 14.2875 8.05058C13.9775 7.74058 13.4275 7.74058 13.1075 8.05058C12.7875 8.38058 12.7875 8.90057 13.1075 9.23057C13.3975 9.52057 13.3975 10.0006 13.1075 10.2906L10.0675 13.3306C9.77746 13.6206 9.29746 13.6206 9.00746 13.3306C8.68746 13.0006 8.15746 13.0006 7.82746 13.3306C7.50746 13.6506 7.50746 14.1806 7.82746 14.5106C8.05746 14.7406 8.39746 14.8106 8.70746 14.7006C8.78746 14.6706 8.87746 14.6606 8.96746 14.6606H8.95746Z" fill="black"/>
</svg>