<svg width="25" height="24" viewBox="0 0 25 24" fill="none" xmlns="http://www.w3.org/2000/svg">
<path opacity="0.4" d="M8.28216 3H16.7169C19.665 3 21.5 5.08119 21.5 8.02638V15.9736C21.5 18.9188 19.665 21 16.7159 21H8.28216C5.33405 21 3.5 18.9188 3.5 15.9736V8.02638C3.5 5.08119 5.34281 3 8.28216 3Z" stroke="black" stroke-width="1.5" stroke-linecap="round" stroke-linejoin="round"/>
<path d="M17.0133 14.8643C14.6227 14.4887 12.4996 16.1282 12.4996 16.1282C12.4996 16.1282 10.3769 14.4887 7.98633 14.8643V7.92896C10.3769 7.55339 12.4996 9.19285 12.4996 9.19285C12.4996 9.19285 14.6227 7.55339 17.0133 7.92896V14.8643Z" stroke="black" stroke-width="1.5" stroke-linecap="round" stroke-linejoin="round"/>
<path d="M12.5 16.1268V9.19141" stroke="black" stroke-width="1.5" stroke-linecap="round" stroke-linejoin="round"/>
</svg>