<svg width="24" height="24" viewBox="0 0 24 24" fill="none" xmlns="http://www.w3.org/2000/svg">
<path d="M14.9566 3C17.4766 3 19.2269 4.02357 19.2269 6.58638L19.2318 20.1117C19.2318 20.2644 19.1919 20.4133 19.117 20.5456C18.8776 20.9708 18.3386 21.1206 17.9134 20.8813L12.026 17.5557L6.08304 20.8871C5.95072 20.9611 5.80185 21 5.65007 21C5.16163 21 4.76661 20.604 4.76758 20.1165V6.41514C4.76758 3.95643 6.59774 3 9.0399 3H14.9566Z" stroke="black" stroke-width="1.5" stroke-linecap="round" stroke-linejoin="round"/>
<path d="M13.2606 11.4201L14.5148 12.6723M11.564 7.10352C12.9398 7.10352 14.0558 8.21952 14.0558 9.5953C14.0558 10.9721 12.9398 12.0871 11.564 12.0871C10.1883 12.0871 9.07227 10.9721 9.07227 9.5953C9.07227 8.21952 10.1883 7.10352 11.564 7.10352Z" stroke="black" stroke-width="1.5" stroke-linecap="round" stroke-linejoin="round"/>
</svg>