<svg width="24" height="24" viewBox="0 0 24 24" fill="none" xmlns="http://www.w3.org/2000/svg">
<path fill-rule="evenodd" clip-rule="evenodd" d="M5.65095 21.5C5.27995 21.5 4.93295 21.355 4.67095 21.094C4.40995 20.832 4.26695 20.485 4.26795 20.116V6.415C4.26795 3.927 6.00695 2.5 9.03995 2.5H14.9569C18.0319 2.5 19.7269 3.951 19.7269 6.586L19.7319 20.112C19.7319 20.349 19.67 20.584 19.5529 20.792C19.372 21.113 19.0759 21.345 18.7199 21.444C18.363 21.545 17.99 21.498 17.6679 21.316L12.0249 18.13L6.32795 21.323C6.11995 21.439 5.88595 21.5 5.65095 21.5ZM11.249 12.811C11.249 13.225 11.585 13.561 11.999 13.561C12.413 13.561 12.749 13.225 12.749 12.811V11.22H14.34C14.754 11.22 15.09 10.884 15.09 10.47C15.09 10.056 14.754 9.72003 14.34 9.72003H12.749V8.12903C12.749 7.71503 12.413 7.37903 11.999 7.37903C11.585 7.37903 11.249 7.71503 11.249 8.12903V9.72003H9.65796C9.24396 9.72003 8.90796 10.056 8.90796 10.47C8.90796 10.884 9.24396 11.22 9.65796 11.22H11.249V12.811Z" fill="black"/>
</svg>