<svg width="25" height="24" viewBox="0 0 25 24" fill="none" xmlns="http://www.w3.org/2000/svg">
<path fill-rule="evenodd" clip-rule="evenodd" d="M3.9902 3.89737C4.97468 2.84117 6.37669 2.25 8.03216 2.25H16.4669C18.1262 2.25 19.5288 2.84084 20.5129 3.89765C21.4913 4.94841 22 6.39889 22 8.02638V15.9736C22 17.6011 21.4913 19.0516 20.5127 20.1024C19.5285 21.1592 18.1257 21.75 16.4659 21.75H8.03216C6.3728 21.75 4.97038 21.1591 3.98657 20.1023C3.00842 19.0515 2.5 17.601 2.5 15.9736V8.02638C2.5 6.39806 3.01117 4.94771 3.9902 3.89737ZM5.08745 4.92012C4.41024 5.64667 4 6.70951 4 8.02638V15.9736C4 17.2914 4.40861 18.3541 5.08451 19.0802C5.75475 19.8003 6.74341 20.25 8.03216 20.25H16.4659C17.7552 20.25 18.7444 19.8002 19.415 19.0801C20.0912 18.354 20.5 17.2913 20.5 15.9736V8.02638C20.5 6.70868 20.0912 5.64597 19.4151 4.91984C18.7446 4.19975 17.7556 3.75 16.4669 3.75H8.03216C6.74828 3.75 5.75921 4.19943 5.08745 4.92012ZM8.4867 8.62258V14.0578C9.53606 14.0621 10.4814 14.3575 11.1904 14.6677C11.2984 14.715 11.4017 14.7629 11.5 14.8107V9.58834C11.4945 9.58488 11.4889 9.58137 11.4833 9.57784C11.2712 9.44518 10.9637 9.27047 10.5892 9.1066C9.9915 8.8451 9.25921 8.62695 8.4867 8.62258ZM13 9.58837V14.8108C13.0983 14.7629 13.2017 14.715 13.3097 14.6677C14.0188 14.3575 14.9642 14.0621 16.0136 14.0578V8.62258C15.2411 8.62695 14.5087 8.8451 13.9109 9.10661C13.5363 9.27048 13.2289 9.4452 13.0167 9.57786C13.0111 9.5814 13.0055 9.5849 13 9.58837ZM11.7916 16.7212L11.7799 16.7126C11.7683 16.704 11.7491 16.69 11.7227 16.6714C11.67 16.6343 11.589 16.5793 11.4833 16.5132C11.2712 16.3805 10.9637 16.2058 10.5892 16.042C9.82988 15.7097 8.85335 15.4475 7.8531 15.6046C7.63651 15.6387 7.41588 15.5762 7.24926 15.4337C7.08263 15.2912 6.9867 15.083 6.9867 14.8637V7.92838C6.9867 7.5591 7.2555 7.24478 7.6203 7.18747C9.01064 6.96904 10.2908 7.33875 11.1904 7.73237C11.629 7.92424 11.9911 8.12784 12.25 8.28827C12.509 8.12784 12.8712 7.92423 13.3097 7.73236C14.2095 7.33874 15.4897 6.96904 16.88 7.18747C17.2448 7.24478 17.5136 7.5591 17.5136 7.92838V14.8637C17.5136 15.083 17.4177 15.2912 17.2511 15.4337C17.0844 15.5762 16.8638 15.6387 16.6472 15.6046C15.647 15.4475 14.6703 15.7097 13.9109 16.042C13.5363 16.2058 13.2289 16.3806 13.0167 16.5132C12.911 16.5793 12.83 16.6344 12.7772 16.6715C12.7509 16.69 12.7317 16.704 12.72 16.7126L12.7084 16.7212C12.7074 16.722 12.7069 16.7224 12.7069 16.7224L12.7084 16.7212C12.4384 16.9294 12.0614 16.9296 11.7916 16.7212Z" fill="black"/>
</svg>