<svg width="24" height="24" viewBox="0 0 24 24" fill="none" xmlns="http://www.w3.org/2000/svg">
<path fill-rule="evenodd" clip-rule="evenodd" d="M12 3.75C7.44329 3.75 3.75 7.44329 3.75 12C3.75 16.5567 7.44329 20.25 12 20.25C16.5567 20.25 20.25 16.5567 20.25 12C20.25 7.44329 16.5567 3.75 12 3.75ZM2.25 12C2.25 6.61487 6.61487 2.25 12 2.25C17.3851 2.25 21.75 6.61487 21.75 12C21.75 17.3851 17.3851 21.75 12 21.75C6.61487 21.75 2.25 17.3851 2.25 12Z" fill="black"/>
<path fill-rule="evenodd" clip-rule="evenodd" d="M8.56836 8.75C8.43057 8.75 8.31836 8.86221 8.31836 9V11.25H10.5684C11.2591 11.25 11.8184 10.6908 11.8184 10C11.8184 9.30921 11.2591 8.75 10.5684 8.75H8.56836ZM12.8349 11.5582C13.1398 11.1153 13.3184 10.5786 13.3184 10C13.3184 8.48079 12.0876 7.25 10.5684 7.25H8.56836C7.60215 7.25 6.81836 8.03379 6.81836 9V16C6.81836 16.4142 7.15415 16.75 7.56836 16.75H11.5684C13.0876 16.75 14.3184 15.5192 14.3184 14C14.3184 12.9376 13.7164 12.0162 12.8349 11.5582ZM8.31836 12.75V15.25H11.5684C12.2591 15.25 12.8184 14.6908 12.8184 14C12.8184 13.3092 12.2591 12.75 11.5684 12.75H8.31836Z" fill="black"/>
<path fill-rule="evenodd" clip-rule="evenodd" d="M15.2412 15.5014C15.2412 14.9659 15.6753 14.5312 16.2114 14.5312C16.7468 14.5312 17.1816 14.9653 17.1816 15.5014C17.1816 16.0376 16.7468 16.4716 16.2114 16.4716C15.6753 16.4716 15.2412 16.037 15.2412 15.5014Z" fill="black"/>
</svg>