<svg width="25" height="24" viewBox="0 0 25 24" fill="none" xmlns="http://www.w3.org/2000/svg">
<path fill-rule="evenodd" clip-rule="evenodd" d="M8.04248 9.21771C8.04248 8.8035 8.37827 8.46771 8.79248 8.46771H15.6475C16.0617 8.46771 16.3975 8.8035 16.3975 9.21771C16.3975 9.63193 16.0617 9.96771 15.6475 9.96771H8.79248C8.37827 9.96771 8.04248 9.63193 8.04248 9.21771Z" fill="black"/>
<path fill-rule="evenodd" clip-rule="evenodd" d="M8.2088 2.02799C9.28824 1.80708 10.6189 1.75 12.2202 1.75C13.8216 1.75 15.1523 1.80708 16.2317 2.02799C17.3247 2.25168 18.2255 2.65608 18.9023 3.39749C19.5711 4.13015 19.9432 5.10742 20.1565 6.31915C20.3694 7.52872 20.4362 9.04736 20.4362 10.929C20.4362 11.6552 20.4375 12.337 20.4386 12.9766C20.4441 16.0013 20.4479 18.0807 20.3115 19.4369C20.2301 20.2461 20.0898 20.9329 19.7813 21.4262C19.6154 21.6915 19.395 21.9113 19.1089 22.0577C18.8279 22.2015 18.5312 22.25 18.2472 22.25C17.5985 22.25 16.9694 21.8931 16.4616 21.5403C15.9659 21.1959 15.4441 20.7499 14.9506 20.3282C14.9115 20.2948 14.8726 20.2615 14.8338 20.2284C14.2889 19.7633 13.7771 19.3339 13.2968 19.0186C12.7986 18.6915 12.4484 18.566 12.2202 18.566C11.9921 18.566 11.6419 18.6915 11.1437 19.0186C10.6634 19.3339 10.1516 19.7633 9.60667 20.2284C9.56793 20.2615 9.52899 20.2948 9.48987 20.3282C8.99641 20.7499 8.4746 21.1959 7.97889 21.5403C7.47111 21.8931 6.84202 22.25 6.19325 22.25C5.90927 22.25 5.61259 22.2015 5.3316 22.0577C5.04548 21.9113 4.82513 21.6915 4.65921 21.4262C4.35069 20.9329 4.21038 20.2461 4.12901 19.4369C3.99264 18.0807 3.99639 16.0013 4.00186 12.9766C4.00302 12.337 4.00425 11.6552 4.00425 10.929C4.00425 9.04736 4.07109 7.52872 4.28399 6.31915C4.49729 5.10742 4.8694 4.13015 5.5382 3.39749C6.21498 2.65608 7.11579 2.25168 8.2088 2.02799ZM5.76128 6.57919C5.57229 7.65291 5.50425 9.06214 5.50425 10.929C5.50425 11.6729 5.50307 12.3658 5.50198 13.011C5.49685 16.0367 5.49349 18.014 5.62149 19.2868C5.70037 20.0713 5.82005 20.4535 5.93097 20.6309C5.97477 20.7009 6.004 20.7168 6.01478 20.7223C6.03068 20.7305 6.07823 20.75 6.19325 20.75C6.34197 20.75 6.63664 20.6464 7.12298 20.3085C7.55412 20.0089 8.02052 19.6105 8.53259 19.1732C8.56581 19.1448 8.59922 19.1162 8.63283 19.0876C9.16692 18.6317 9.74861 18.1401 10.3204 17.7647C10.8744 17.401 11.5349 17.066 12.2202 17.066C12.9056 17.066 13.5661 17.401 14.1201 17.7647C14.6919 18.1401 15.2736 18.6317 15.8077 19.0876C15.8413 19.1162 15.8747 19.1448 15.9079 19.1731C16.42 19.6105 16.8864 20.0089 17.3175 20.3085C17.8039 20.6464 18.0985 20.75 18.2472 20.75C18.3623 20.75 18.4098 20.7305 18.4257 20.7223C18.4365 20.7168 18.4657 20.7009 18.5095 20.6309C18.6204 20.4535 18.7401 20.0713 18.819 19.2868C18.947 18.014 18.9437 16.0367 18.9385 13.0109C18.9374 12.3657 18.9362 11.6729 18.9362 10.929C18.9362 9.06214 18.8682 7.65291 18.6792 6.57919C18.4906 5.50764 18.1938 4.84622 17.7945 4.40876C17.4031 3.98004 16.8366 3.68288 15.931 3.49754C15.0117 3.30942 13.8124 3.25 12.2202 3.25C10.6281 3.25 9.42876 3.30942 8.50954 3.49754C7.60389 3.68288 7.0374 3.98004 6.64605 4.40876C6.24672 4.84622 5.9499 5.50764 5.76128 6.57919Z" fill="black"/>
</svg>