<svg width="24" height="24" viewBox="0 0 24 24" fill="none" xmlns="http://www.w3.org/2000/svg">
<path d="M3.77246 18.5131V5.59096C3.77246 4.15976 4.93222 3 6.36342 3H17.4541C18.1157 3 18.6527 3.53707 18.6527 4.19867V4.62872" stroke="black" stroke-width="1.5" stroke-linecap="round" stroke-linejoin="round"/>
<path d="M18.8612 11.4579L20.2292 12.8239M17.0104 6.74609C18.5126 6.74609 19.7298 7.96325 19.7298 9.46549C19.7298 10.9677 18.5126 12.1849 17.0104 12.1849C15.5082 12.1849 14.291 10.9677 14.291 9.46549C14.291 7.96325 15.5082 6.74609 17.0104 6.74609Z" stroke="black" stroke-width="1.5" stroke-linecap="round" stroke-linejoin="round"/>
<path d="M18.6537 14.9805V16.0254M18.6537 16.0254H6.2603C4.88649 16.0254 3.77344 17.1385 3.77344 18.5123C3.77344 19.8861 4.88649 20.9991 6.2603 20.9991H17.4619C18.1225 20.9991 18.6586 20.465 18.6605 19.8044L18.6537 16.0254Z" stroke="black" stroke-width="1.5" stroke-linecap="round" stroke-linejoin="round"/>
<path d="M7.57617 16.0262V3.09375" stroke="black" stroke-width="1.5" stroke-linecap="round" stroke-linejoin="round"/>
</svg>