<svg width="24" height="24" viewBox="0 0 24 24" fill="none" xmlns="http://www.w3.org/2000/svg">
<path opacity="0.4" d="M4.67107 21.094C4.93307 21.355 5.28007 21.5 5.65107 21.5C5.88607 21.5 6.12007 21.439 6.32807 21.323L12.0251 18.13L17.6681 21.316C17.9901 21.498 18.3631 21.545 18.7201 21.444C19.0761 21.345 19.3721 21.113 19.5531 20.792C19.6701 20.584 19.7321 20.349 19.7321 20.112L19.7271 6.586C19.7271 3.951 18.0321 2.5 14.9571 2.5H9.04007C6.00707 2.5 4.26807 3.927 4.26807 6.415V20.116C4.26707 20.485 4.41007 20.832 4.67107 21.094Z" fill="black"/>
<path fill-rule="evenodd" clip-rule="evenodd" d="M13.9767 13.1969C13.7847 13.1969 13.5927 13.1239 13.4467 12.9769L11.9997 11.5309L10.5537 12.9769C10.2607 13.2699 9.78668 13.2699 9.49368 12.9769C9.20068 12.6839 9.20068 12.2099 9.49368 11.9169L10.9397 10.4699L9.49368 9.02389C9.20068 8.73089 9.20068 8.25689 9.49368 7.96389C9.78668 7.67089 10.2607 7.67089 10.5537 7.96389L11.9997 9.40989L13.4467 7.96389C13.7397 7.67089 14.2137 7.67089 14.5067 7.96389C14.7997 8.25689 14.7997 8.73089 14.5067 9.02389L13.0607 10.4699L14.5067 11.9169C14.7997 12.2099 14.7997 12.6839 14.5067 12.9769C14.3607 13.1239 14.1687 13.1969 13.9767 13.1969" fill="black"/>
</svg>