<svg width="25" height="24" viewBox="0 0 25 24" fill="none" xmlns="http://www.w3.org/2000/svg">
<path fill-rule="evenodd" clip-rule="evenodd" d="M7.60422 3.75C6.22315 3.75 5.10449 4.86895 5.10449 6.24876V14.4166C5.82168 13.822 6.74268 13.4645 7.74725 13.4645H16.7531C16.873 13.4645 16.9683 13.3683 16.9683 13.2503V3.96422C16.9683 3.84623 16.873 3.75 16.7531 3.75H7.60422ZM3.60449 17.6072V6.24876C3.60449 4.04023 5.39502 2.25 7.60422 2.25H16.7531C17.6995 2.25 18.4683 3.01583 18.4683 3.96422V5.80263L19.7274 5.78778C20.6817 5.77741 21.4621 6.5483 21.4621 7.50292V20.0348C21.4621 20.9822 20.6943 21.75 19.7469 21.75H7.74725C5.45909 21.75 3.60449 19.8954 3.60449 17.6072ZM18.4683 7.30274V13.2503C18.4683 14.1987 17.6995 14.9645 16.7531 14.9645H7.74725C6.28752 14.9645 5.10449 16.1475 5.10449 17.6072C5.10449 19.067 6.28752 20.25 7.74725 20.25H19.7469C19.8659 20.25 19.9621 20.1538 19.9621 20.0348V7.50292C19.9621 7.38349 19.8644 7.28656 19.7447 7.28768C19.7446 7.28768 19.7448 7.28768 19.7447 7.28768L18.4683 7.30274ZM7.32488 17.6212C7.32488 17.207 7.66067 16.8712 8.07488 16.8712H17.5293C17.9435 16.8712 18.2793 17.207 18.2793 17.6212C18.2793 18.0354 17.9435 18.3712 17.5293 18.3712H8.07488C7.66067 18.3712 7.32488 18.0354 7.32488 17.6212Z" fill="black"/>
</svg>