<svg width="24" height="24" viewBox="0 0 24 24" fill="none" xmlns="http://www.w3.org/2000/svg">
<path fill-rule="evenodd" clip-rule="evenodd" d="M7.5 3H16.504C18.987 3 21 5.013 21 7.496V16.504C21 18.987 18.987 21 16.504 21H5C3.895 21 3 20.105 3 19V7.5C3 5.015 5.015 3 7.5 3Z" stroke="black" stroke-width="1.5" stroke-linecap="round" stroke-linejoin="round"/>
<path d="M7.63672 12H11.6367C12.7417 12 13.6367 12.895 13.6367 14C13.6367 15.105 12.7417 16 11.6367 16H7.63672V9C7.63672 8.448 8.08472 8 8.63672 8H10.6367C11.7417 8 12.6367 8.895 12.6367 10C12.6367 11.105 11.7417 12 10.6367 12" stroke="black" stroke-width="1.5" stroke-linecap="round" stroke-linejoin="round"/>
<path d="M16.2811 15.4898V15.5439M16.5 15.5014C16.5 15.6231 16.4013 15.7216 16.2797 15.7216C16.1581 15.7216 16.0596 15.6231 16.0596 15.5014C16.0596 15.3798 16.1581 15.2812 16.2797 15.2812C16.4013 15.2812 16.5 15.3798 16.5 15.5014Z" stroke="black" stroke-width="1.5" stroke-linecap="round" stroke-linejoin="round"/>
</svg>