<svg width="24" height="24" viewBox="0 0 24 24" fill="none" xmlns="http://www.w3.org/2000/svg">
<path opacity="0.4" d="M4.67107 21.094C4.93307 21.355 5.28007 21.5 5.65107 21.5C5.88607 21.5 6.12007 21.439 6.32807 21.323L12.0251 18.13L17.6681 21.316C17.9901 21.498 18.3631 21.545 18.7201 21.444C19.0761 21.345 19.3721 21.113 19.5531 20.792C19.6701 20.584 19.7321 20.349 19.7321 20.112L19.7271 6.586C19.7271 3.951 18.0321 2.5 14.9571 2.5H9.04007C6.00707 2.5 4.26807 3.927 4.26807 6.415V20.116C4.26707 20.485 4.41007 20.832 4.67107 21.094Z" fill="black"/>
<path fill-rule="evenodd" clip-rule="evenodd" d="M11.5648 7.854C10.6038 7.854 9.82275 8.635 9.82275 9.595C9.82275 10.555 10.6038 11.337 11.5648 11.337C12.5248 11.337 13.3058 10.555 13.3058 9.595C13.3058 8.635 12.5248 7.854 11.5648 7.854ZM14.5148 13.422C14.3238 13.422 14.1308 13.349 13.9848 13.203L13.1838 12.403C12.7078 12.679 12.1548 12.837 11.5648 12.837C9.77675 12.837 8.32275 11.382 8.32275 9.595C8.32275 7.808 9.77675 6.354 11.5648 6.354C13.3518 6.354 14.8058 7.808 14.8058 9.595C14.8058 10.25 14.6108 10.861 14.2748 11.372L15.0448 12.141C15.3378 12.434 15.3378 12.909 15.0448 13.202C14.8988 13.349 14.7078 13.422 14.5148 13.422Z" fill="black"/>
</svg>