<svg width="25" height="24" viewBox="0 0 25 24" fill="none" xmlns="http://www.w3.org/2000/svg">
<path fill-rule="evenodd" clip-rule="evenodd" d="M7.27944 3.75C6.26245 3.75 5.43848 4.57397 5.43848 5.59096V15.7811C5.94028 15.4614 6.53614 15.2763 7.17533 15.2763H7.74048V3.75H7.27944ZM9.24048 3.75H18.3701C18.6175 3.75 18.8188 3.95128 18.8188 4.19867V4.62872C18.8188 5.04293 19.1545 5.37872 19.5688 5.37872C19.983 5.37872 20.3188 5.04293 20.3188 4.62872V4.19867C20.3188 3.12285 19.4459 2.25 18.3701 2.25H7.27944C5.43402 2.25 3.93848 3.74554 3.93848 5.59096V18.5131C3.93848 20.3012 5.38732 21.75 7.17533 21.75H18.3769C19.4506 21.75 20.3224 20.8817 20.3256 19.8074L20.3256 19.8039L20.3188 16.0263V14.9813C20.3188 14.5671 19.983 14.2313 19.5688 14.2313C19.1545 14.2313 18.8188 14.5671 18.8188 14.9813V15.2763H9.24048V3.75ZM8.47213 16.7763C8.47823 16.7764 8.48435 16.7765 8.49048 16.7765C8.49662 16.7765 8.50274 16.7764 8.50884 16.7763H18.8201L18.8256 19.8045C18.8241 20.0508 18.624 20.25 18.3769 20.25H7.17533C6.21574 20.25 5.43848 19.4727 5.43848 18.5131C5.43848 17.5536 6.21574 16.7763 7.17533 16.7763H8.47213ZM13.9476 6.59293C14.4244 5.96258 15.1937 5.45864 16.2785 5.45864C17.3631 5.45864 18.1326 5.96252 18.6096 6.59273C18.8903 6.96355 19.0724 7.37961 19.1704 7.76833C19.6094 7.87309 20.0166 8.08274 20.3488 8.3999C20.8481 8.87652 21.1275 9.54813 21.1275 10.3252C21.1275 11.393 20.4938 12.3162 19.578 12.7298C19.5685 12.7342 19.5588 12.7383 19.5491 12.7422C19.1758 12.8923 18.8047 12.9491 18.5075 12.9491H14.0465C13.7469 12.9491 13.3749 12.8892 13.0064 12.7389C12.9978 12.7354 12.9893 12.7317 12.9808 12.7279C12.0672 12.3152 11.4294 11.3953 11.4294 10.3252C11.4294 9.54786 11.7093 8.87623 12.2088 8.39971C12.5411 8.08268 12.9483 7.87308 13.3874 7.76834C13.4853 7.37974 13.6671 6.96375 13.9476 6.59293ZM15.1439 7.49783C14.8944 7.82774 14.7985 8.22534 14.7985 8.43961C14.7985 8.85135 14.4665 9.1861 14.0548 9.18959C13.7037 9.19256 13.4272 9.31041 13.2442 9.48506C13.0675 9.6536 12.9294 9.92039 12.9294 10.3252C12.9294 10.7798 13.1966 11.1736 13.5858 11.3552C13.7616 11.4246 13.9345 11.4491 14.0465 11.4491H18.5075C18.6234 11.4491 18.7966 11.4255 18.9746 11.3564C19.3609 11.1754 19.6275 10.7813 19.6275 10.3252C19.6275 9.92012 19.4895 9.65331 19.3131 9.48488C19.1303 9.31038 18.8541 9.19256 18.5031 9.18959C18.0914 9.1861 17.7594 8.85135 17.7594 8.43961C17.7594 8.22561 17.6634 7.82804 17.4136 7.49803C17.187 7.19858 16.841 6.95864 16.2785 6.95864C15.716 6.95864 15.3703 7.19853 15.1439 7.49783Z" fill="black"/>
</svg>