<svg width="24" height="24" viewBox="0 0 24 24" fill="none" xmlns="http://www.w3.org/2000/svg">
<path fill-rule="evenodd" clip-rule="evenodd" d="M3.7402 3.89737C4.72468 2.84117 6.12669 2.25 7.78216 2.25H16.2169C17.8762 2.25 19.2788 2.84084 20.2629 3.89765C21.2413 4.94841 21.75 6.39889 21.75 8.02638V15.9736C21.75 17.6011 21.2413 19.0516 20.2627 20.1024C19.2785 21.1592 17.8756 21.75 16.2159 21.75H7.78216C6.1228 21.75 4.72038 21.1591 3.73657 20.1023C2.75842 19.0515 2.25 17.601 2.25 15.9736V8.02638C2.25 6.39806 2.76117 4.94771 3.7402 3.89737ZM4.83745 4.92012C4.16024 5.64666 3.75 6.70951 3.75 8.02638V15.9736C3.75 17.2914 4.15861 18.3541 4.83451 19.0802C5.50475 19.8003 6.49341 20.25 7.78216 20.25H16.2159C17.5052 20.25 18.4944 19.8002 19.165 19.0801C19.8412 18.354 20.25 17.2913 20.25 15.9736V8.02638C20.25 6.70868 19.8412 5.64597 19.1651 4.91984C18.4946 4.19975 17.5056 3.75 16.2169 3.75H7.78216C6.49828 3.75 5.50921 4.19943 4.83745 4.92012Z" fill="black"/>
<path fill-rule="evenodd" clip-rule="evenodd" d="M8.56836 8.75C8.43057 8.75 8.31836 8.86221 8.31836 9V11.25H10.5684C11.2591 11.25 11.8184 10.6908 11.8184 10C11.8184 9.30921 11.2591 8.75 10.5684 8.75H8.56836ZM12.8349 11.5582C13.1398 11.1153 13.3184 10.5786 13.3184 10C13.3184 8.48079 12.0876 7.25 10.5684 7.25H8.56836C7.60215 7.25 6.81836 8.03379 6.81836 9V16C6.81836 16.4142 7.15415 16.75 7.56836 16.75H11.5684C13.0876 16.75 14.3184 15.5192 14.3184 14C14.3184 12.9376 13.7164 12.0162 12.8349 11.5582ZM8.31836 12.75V15.25H11.5684C12.2591 15.25 12.8184 14.6908 12.8184 14C12.8184 13.3092 12.2591 12.75 11.5684 12.75H8.31836Z" fill="black"/>
<path fill-rule="evenodd" clip-rule="evenodd" d="M15.2412 15.5014C15.2412 14.9659 15.6753 14.5312 16.2114 14.5312C16.7468 14.5312 17.1816 14.9653 17.1816 15.5014C17.1816 16.0376 16.7468 16.4716 16.2114 16.4716C15.6753 16.4716 15.2412 16.037 15.2412 15.5014Z" fill="black"/>
</svg>