<svg width="24" height="24" viewBox="0 0 24 24" fill="none" xmlns="http://www.w3.org/2000/svg">
<path fill-rule="evenodd" clip-rule="evenodd" d="M5.65007 21.5C5.28007 21.5 4.93307 21.355 4.67107 21.094C4.41007 20.832 4.26707 20.485 4.26807 20.116V6.415C4.26807 3.927 6.00707 2.5 9.04007 2.5H14.9571C18.0331 2.5 19.7271 3.951 19.7271 6.586L19.7321 20.112C19.7321 20.349 19.6701 20.583 19.5531 20.791C19.3711 21.113 19.0751 21.346 18.7191 21.444C18.3631 21.543 17.9891 21.499 17.6671 21.316L12.0251 18.129L6.32807 21.323C6.12107 21.438 5.88707 21.5 5.65007 21.5ZM10.4344 13.194C10.5804 13.341 10.7724 13.414 10.9644 13.414C11.1564 13.414 11.3484 13.341 11.4944 13.194L15.6314 9.06005C15.9234 8.76705 15.9234 8.29205 15.6314 7.99905C15.3384 7.70605 14.8634 7.70605 14.5704 7.99905L10.9644 11.603L9.42638 10.066C9.13338 9.77305 8.65838 9.77305 8.36538 10.066C8.07238 10.359 8.07238 10.834 8.36538 11.127L10.4344 13.194Z" fill="black"/>
</svg>