<svg width="24" height="24" viewBox="0 0 24 24" fill="none" xmlns="http://www.w3.org/2000/svg">
<path fill-rule="evenodd" clip-rule="evenodd" d="M14.25 11.9C13.83 11.9 13.5 11.57 13.5 11.16V11.15C13.5 10.73 13.83 10.4 14.25 10.4C14.66 10.4 15 10.73 15 11.15C15 11.56 14.66 11.9 14.25 11.9ZM13.38 15.15H10.62C10.21 15.15 9.87 14.82 9.87 14.4C9.87 13.99 10.21 13.65 10.62 13.65H13.38C13.79 13.65 14.13 13.99 14.13 14.4C14.13 14.82 13.79 15.15 13.38 15.15ZM9 11.16V11.15C9 10.73 9.34 10.4 9.75 10.4C10.17 10.4 10.5 10.73 10.5 11.15C10.5 11.56 10.17 11.9 9.75 11.9C9.34 11.9 9 11.57 9 11.16ZM12 3.75C12.28 3.75 12.51 3.98 12.51 4.26C12.51 4.54 12.28 4.76 12 4.76C11.72 4.76 11.49 4.54 11.49 4.26C11.49 3.98 11.72 3.75 12 3.75ZM14.93 7.09H12.75V6.12C13.49 5.82 14.01 5.1 14.01 4.26C14.01 3.15 13.11 2.25 12 2.25C10.89 2.25 9.99 3.15 9.99 4.26C9.99 5.1 10.51 5.82 11.25 6.12V7.09H9.07C6.78 7.09 5.25 8.7 5.25 11.08V14.34C5.25 16.73 6.78 18.33 9.07 18.33H14.93C17.22 18.33 18.75 16.73 18.75 14.34V11.08C18.75 8.7 17.22 7.09 14.93 7.09Z" fill="black"/>
<path fill-rule="evenodd" clip-rule="evenodd" d="M16.3271 20.3505C15.2331 19.7165 13.6571 19.3535 12.0021 19.3535C10.3421 19.3535 8.76312 19.7165 7.66912 20.3505C7.31012 20.5585 7.18812 21.0175 7.39512 21.3755C7.60312 21.7335 8.06012 21.8555 8.42112 21.6485C9.28012 21.1505 10.6191 20.8535 12.0021 20.8535C13.4011 20.8535 14.7031 21.1425 15.5751 21.6485C15.6931 21.7165 15.8231 21.7495 15.9501 21.7495C16.2091 21.7495 16.4611 21.6155 16.6001 21.3755C16.8071 21.0175 16.6851 20.5585 16.3271 20.3505Z" fill="black"/>
<path fill-rule="evenodd" clip-rule="evenodd" d="M3.45312 10.502C3.03912 10.502 2.70312 10.838 2.70312 11.252V14.028C2.70312 14.442 3.03912 14.778 3.45312 14.778C3.86713 14.778 4.20312 14.442 4.20312 14.028V11.252C4.20312 10.838 3.86713 10.502 3.45312 10.502Z" fill="black"/>
<path fill-rule="evenodd" clip-rule="evenodd" d="M20.5469 10.502C20.1329 10.502 19.7969 10.838 19.7969 11.252V14.028C19.7969 14.442 20.1329 14.778 20.5469 14.778C20.9609 14.778 21.2969 14.442 21.2969 14.028V11.252C21.2969 10.838 20.9609 10.502 20.5469 10.502Z" fill="black"/>
</svg>