<svg width="24" height="24" viewBox="0 0 24 24" fill="none" xmlns="http://www.w3.org/2000/svg">
<path d="M12.5053 11.7487C12.2102 11.4536 11.7316 11.4536 11.4365 11.7487L9.29891 13.8863C9.00377 14.1814 9.00377 14.66 9.29891 14.9551L11.4365 17.0927C11.7316 17.3878 12.2102 17.3878 12.5053 17.0927L14.6429 14.9551C14.938 14.66 14.938 14.1814 14.6429 13.8863L12.5053 11.7487Z" stroke="black" stroke-width="1.5" stroke-linecap="round" stroke-linejoin="round"/>
<path d="M11.9712 8.06641L11.9712 11.5275" stroke="black" stroke-width="1.5" stroke-linecap="round" stroke-linejoin="round"/>
<path d="M14.9227 14.4434H18.4097C18.9696 14.4434 19.4234 14.8972 19.4234 15.4571V17.6145" stroke="black" stroke-width="1.5" stroke-linecap="round" stroke-linejoin="round"/>
<path d="M11.9704 5.7437V5.70335V5.7437ZM11.8071 5.73489C11.8071 5.64409 11.8803 5.57031 11.9711 5.57031C12.0618 5.57031 12.1356 5.64409 12.1356 5.73489C12.1356 5.82568 12.0618 5.89944 11.9711 5.89944C11.8803 5.89944 11.8071 5.82568 11.8071 5.73489Z" stroke="black" stroke-width="1.5" stroke-linecap="round" stroke-linejoin="round"/>
<path d="M14.4309 5.7437V5.70335V5.7437ZM14.2676 5.73489C14.2676 5.64409 14.3413 5.57031 14.4321 5.57031C14.5229 5.57031 14.5961 5.64409 14.5961 5.73489C14.5961 5.82568 14.5229 5.89944 14.4321 5.89944C14.3413 5.89944 14.2676 5.82568 14.2676 5.73489Z" stroke="black" stroke-width="1.5" stroke-linecap="round" stroke-linejoin="round"/>
<path d="M9.5072 5.7437V5.70335V5.7437ZM9.34326 5.73489C9.34326 5.64409 9.41703 5.57031 9.50782 5.57031C9.59862 5.57031 9.67239 5.64409 9.67239 5.73489C9.67239 5.82568 9.59862 5.89944 9.50782 5.89944C9.41703 5.89944 9.34326 5.82568 9.34326 5.73489Z" stroke="black" stroke-width="1.5" stroke-linecap="round" stroke-linejoin="round"/>
<rect x="6.00781" y="3.23242" width="11.9177" height="4.83441" rx="2.4172" stroke="black" stroke-width="1.5" stroke-linecap="round" stroke-linejoin="round"/>
<circle cx="19.4232" cy="19.1901" r="1.57682" transform="rotate(90 19.4232 19.1901)" stroke="black" stroke-width="1.5" stroke-linecap="round" stroke-linejoin="round"/>
<path d="M9.07732 14.4434H5.59032C5.03045 14.4434 4.57658 14.8972 4.57658 15.4571V17.6145" stroke="black" stroke-width="1.5" stroke-linecap="round" stroke-linejoin="round"/>
<circle cx="1.57682" cy="1.57682" r="1.57682" transform="matrix(-4.37114e-08 1 1 4.37114e-08 3 17.6133)" stroke="black" stroke-width="1.5" stroke-linecap="round" stroke-linejoin="round"/>
</svg>