<svg width="25" height="24" viewBox="0 0 25 24" fill="none" xmlns="http://www.w3.org/2000/svg">
<path fill-rule="evenodd" clip-rule="evenodd" d="M8.68359 3.5H8.40234C7.98828 3.5 7.65234 3.16 7.65234 2.75C7.65234 2.34 7.98828 2 8.40234 2H15.4048C15.8193 2 16.1548 2.34 16.1548 2.75C16.1548 3.16 15.8193 3.5 15.4048 3.5H15.3159V4.51001C15.3159 4.88 15.4448 5.23003 15.6802 5.52002L17.0405 7.16003C17.5005 7.71004 17.7515 8.39999 17.7515 9.12V17.96C17.7515 18.93 17.4448 19.82 16.8335 20.48C16.2163 21.14 15.3452 21.5 14.3433 21.5H9.65625C8.65186 21.5 7.78027 21.14 7.16406 20.48C6.55273 19.82 6.24805 18.93 6.24805 17.96V9.12C6.24805 8.39999 6.50049 7.71004 6.95801 7.16003L8.31982 5.52002C8.55469 5.23003 8.68359 4.88 8.68359 4.51001V3.5ZM13.8159 3.5H10.1836V4.51001C10.1836 5.23001 9.93262 5.91998 9.47266 6.47998L8.1123 8.10999C7.87744 8.39998 7.74805 8.75 7.74805 9.12V17.96C7.74805 18.62 7.95312 19.12 8.26172 19.46C8.56445 19.78 9.02197 20 9.65625 20H14.3433C14.9741 20 15.4321 19.78 15.7363 19.46C16.0454 19.12 16.2515 18.62 16.2515 17.96V9.12C16.2515 8.75 16.1226 8.39999 15.8877 8.12L15.8872 8.10999L14.5259 6.46997C14.0679 5.91997 13.8159 5.23001 13.8159 4.51001V3.5Z" fill="black"/>
</svg>