<svg width="24" height="24" viewBox="0 0 24 24" fill="none" xmlns="http://www.w3.org/2000/svg">
<path opacity="0.4" d="M8.93388 3.75V4.75914C8.93388 5.1856 8.78484 5.59872 8.51247 5.92601L7.15085 7.566C6.73026 8.07283 6.49854 8.71207 6.49854 9.372V18.2066C6.49854 19.1286 6.78673 19.9562 7.34727 20.5581C7.91158 21.1641 8.71403 21.5 9.6567 21.5H14.3435C15.2841 21.5 16.0863 21.1639 16.6509 20.5584C17.2119 19.9567 17.5017 19.1292 17.5017 18.2066V9.372C17.5017 8.71281 17.2714 8.07336 16.8493 7.56591L15.4882 5.92654C15.216 5.59856 15.0663 5.18504 15.0663 4.75914V3.75C17.3149 3.75 7.32548 3.75 8.93388 3.75Z" fill="black"/>
<path d="M8.40283 2.25C7.98862 2.25 7.65283 2.58578 7.65283 3C7.65283 3.41421 7.98862 3.75 8.40283 3.75H8.9339H15.0663H15.4053C15.8195 3.75 16.1553 3.41421 16.1553 3C16.1553 2.58578 15.8195 2.25 15.4053 2.25H8.40283Z" fill="black"/>
</svg>