<svg width="24" height="24" viewBox="0 0 24 24" fill="none" xmlns="http://www.w3.org/2000/svg">
<path fill-rule="evenodd" clip-rule="evenodd" d="M7.55498 10.8554C7.90498 10.3354 8.16498 9.92539 8.36498 9.57539C8.37498 9.54539 8.38498 9.52539 8.39498 9.49539C8.70498 8.64539 9.13498 7.48539 8.18498 6.46539C7.67498 5.96539 7.00498 5.68539 6.31498 5.69539C5.67498 5.71539 5.07498 5.99539 4.62498 6.48539C3.68498 7.49539 4.12498 8.64539 4.43498 9.48539C4.57498 9.86539 4.71498 10.2254 4.71498 10.5054C4.71498 11.4354 4.40498 12.0454 3.47498 13.4354C1.28498 16.7154 3.12498 19.8554 4.55498 21.2054C4.75498 21.3954 5.03498 21.4954 5.32498 21.4954H7.50498C7.73862 21.4954 7.90889 21.4227 8.07508 21.3212C8.22794 21.2279 8.25388 21.0162 8.14302 20.8755C6.38834 18.6492 4.89172 14.8262 7.55498 10.8554Z" fill="black"/>
<path fill-rule="evenodd" clip-rule="evenodd" d="M20.525 13.4352C19.575 12.0252 19.255 11.4552 19.285 10.5152C19.295 10.2352 19.425 9.87521 19.565 9.49521C19.875 8.64521 20.305 7.48521 19.355 6.46521C18.835 5.96521 18.155 5.68521 17.475 5.69521C16.845 5.71521 16.245 5.99521 15.795 6.48521C14.945 7.39521 15.215 8.41521 15.505 9.22521C15.725 9.62521 16.055 10.1352 16.535 10.8552C19.2262 14.8824 17.6628 18.7502 15.8727 20.9618C15.7741 21.0836 15.779 21.2654 15.9145 21.3443C16.0828 21.4423 16.2782 21.4952 16.485 21.4952H18.675C18.965 21.4952 19.235 21.3952 19.445 21.2052C20.875 19.8552 22.715 16.7152 20.525 13.4352Z" fill="black"/>
<path fill-rule="evenodd" clip-rule="evenodd" d="M15.5284 11.8593C14.3674 10.1263 13.9644 9.41532 14.0044 8.24932C14.0174 7.88732 14.1794 7.44432 14.3524 6.97632C14.7444 5.91032 15.2324 4.58432 14.1254 3.40332C13.5194 2.80932 12.7224 2.48832 11.9234 2.50032C11.1684 2.51932 10.4844 2.83832 9.94536 3.42132C8.85236 4.60632 9.34436 5.91432 9.73936 6.96432C9.91736 7.43532 10.0844 7.87932 10.0844 8.23232C10.0844 9.38932 9.70336 10.1533 8.56036 11.8593C5.93036 15.7863 8.13636 19.5583 9.85536 21.1683C10.0844 21.3823 10.3904 21.5003 10.7164 21.5003H13.3734C13.6984 21.5003 14.0044 21.3823 14.2344 21.1673C15.9524 19.5583 18.1584 15.7863 15.5284 11.8593Z" fill="black"/>
</svg>