<svg width="24" height="24" viewBox="0 0 24 24" fill="none" xmlns="http://www.w3.org/2000/svg">
<path d="M3 12C3 7.02944 7.02944 3 12 3C16.9706 3 21 7.02944 21 12C21 16.9706 16.9706 21 12 21C8.55235 21 5.55747 19.0614 4.04593 16.2149" stroke="black" stroke-width="1.5" stroke-linecap="round" stroke-linejoin="round"/>
<path d="M12.9455 11.0806V11.0324M12.9455 10.7793C12.8073 10.7793 12.6953 10.8913 12.6953 11.0291C12.6953 11.1673 12.8073 11.2793 12.9455 11.2793C13.0838 11.2793 13.1958 11.1673 13.1958 11.0291C13.1958 10.8913 13.0838 10.7793 12.9455 10.7793Z" stroke="black" stroke-width="1.5" stroke-linecap="round" stroke-linejoin="round"/>
<path d="M16.0725 9.07083V9.02266M16.0725 8.76953C15.9343 8.76953 15.8223 8.88153 15.8223 9.0193C15.8223 9.15753 15.9343 9.26953 16.0725 9.26953C16.2107 9.26953 16.3227 9.15753 16.3227 9.0193C16.3227 8.88153 16.2107 8.76953 16.0725 8.76953Z" stroke="black" stroke-width="1.5" stroke-linecap="round" stroke-linejoin="round"/>
<path d="M12.9455 6.87551V6.82735M12.9455 6.57422C12.8073 6.57422 12.6953 6.68621 12.6953 6.82398C12.6953 6.96222 12.8073 7.07422 12.9455 7.07422C13.0838 7.07422 13.1958 6.96222 13.1958 6.82398C13.1958 6.68621 13.0838 6.57422 12.9455 6.57422Z" stroke="black" stroke-width="1.5" stroke-linecap="round" stroke-linejoin="round"/>
</svg>