<svg width="24" height="24" viewBox="0 0 24 24" fill="none" xmlns="http://www.w3.org/2000/svg">
<path fill-rule="evenodd" clip-rule="evenodd" d="M18.1802 13.583C18.6349 13.583 19.002 13.9519 19.002 14.4049C19.002 14.8579 18.6349 15.2268 18.1802 15.2268C17.7263 15.2268 17.3583 14.8588 17.3583 14.4049C17.3583 13.951 17.7263 13.583 18.1802 13.583Z" fill="black"/>
<path fill-rule="evenodd" clip-rule="evenodd" d="M15.3267 13.4395C15.7814 13.4395 16.1484 13.8083 16.1484 14.2614C16.1484 14.7144 15.7814 15.0832 15.3267 15.0832C14.8727 15.0832 14.5048 14.7153 14.5048 14.2614C14.5048 13.8074 14.8727 13.4395 15.3267 13.4395Z" fill="black"/>
<path fill-rule="evenodd" clip-rule="evenodd" d="M16.4517 16.0312C16.9064 16.0312 17.2734 16.4001 17.2734 16.8531C17.2734 17.3062 16.9064 17.675 16.4517 17.675C15.9977 17.675 15.6298 17.3071 15.6298 16.8531C15.6298 16.3992 15.9977 16.0312 16.4517 16.0312Z" fill="black"/>
<path fill-rule="evenodd" clip-rule="evenodd" d="M20.7617 14.5003C20.7617 17.9514 17.9641 20.749 14.513 20.749C13.0194 20.749 11.6501 20.226 10.5752 19.3525C10.2537 19.0912 9.78138 19.14 9.52014 19.4615C9.25891 19.7829 9.30773 20.2553 9.62918 20.5165C10.9617 21.5994 12.6625 22.249 14.513 22.249C18.7925 22.249 22.2617 18.7798 22.2617 14.5003C22.2617 10.2207 18.7925 6.7515 14.513 6.7515C12.0325 6.7515 9.82402 7.91784 8.40697 9.729C8.15173 10.0552 8.20927 10.5266 8.5355 10.7818C8.86173 11.0371 9.3331 10.9795 9.58834 10.6533C10.7333 9.18988 12.5134 8.2515 14.513 8.2515C17.9641 8.2515 20.7617 11.0492 20.7617 14.5003Z" fill="black"/>
<path fill-rule="evenodd" clip-rule="evenodd" d="M8.22073 3.82806C7.45441 3.08882 6.3716 3.03388 5.65276 3.81245L5.65273 3.81249C5.41161 4.07361 5.32119 4.31965 5.29755 4.56374C5.27189 4.82868 5.3215 5.13256 5.43315 5.50002C5.50727 5.74398 5.5899 5.96286 5.67973 6.20083C5.7345 6.34593 5.79195 6.49813 5.85179 6.66744C5.99242 7.06535 6.13782 7.54073 6.13782 8.02313C6.13782 9.6492 5.55145 10.7159 4.31357 12.5639C3.13062 14.3298 3.0601 16.0005 3.45154 17.4113C3.85109 18.8513 4.74146 20.0416 5.49129 20.7441C5.49185 20.7444 5.49298 20.7449 5.49486 20.7456C5.50014 20.7476 5.51091 20.7504 5.52719 20.7504H8.33181C8.34809 20.7504 8.35886 20.7476 8.36414 20.7456C8.36603 20.7449 8.36716 20.7444 8.36772 20.7441C9.11754 20.0416 10.0079 18.8513 10.4075 17.4113C10.7989 16.0005 10.7284 14.3298 9.54544 12.5639C8.32452 10.7413 7.66372 9.6804 7.72163 7.99733C7.73798 7.52228 7.88346 7.0513 8.02367 6.6508C8.07662 6.49956 8.12815 6.35964 8.17757 6.22549C8.27212 5.9688 8.3589 5.7332 8.43294 5.47968C8.64227 4.76292 8.63239 4.27604 8.22073 3.82806ZM4.5507 2.79487C5.95403 1.27498 8.02986 1.54279 9.28178 2.76757C9.28963 2.77525 9.29731 2.7831 9.30482 2.79112C10.2702 3.82232 10.1395 4.98707 9.87279 5.90019C9.7845 6.20253 9.66671 6.52305 9.56256 6.80646C9.51786 6.92808 9.47568 7.04286 9.43941 7.14645C9.30459 7.53156 9.22869 7.81813 9.22075 8.04892C9.1815 9.18924 9.54929 9.8744 10.7917 11.7291C12.2394 13.8902 12.3505 16.0188 11.8529 17.8123C11.3635 19.5761 10.2945 20.9947 9.39231 21.8396C9.09045 22.1223 8.70402 22.2504 8.33181 22.2504H5.52719C5.15498 22.2504 4.76856 22.1223 4.4667 21.8396C3.56449 20.9947 2.49553 19.5761 2.00614 17.8123C1.50851 16.0188 1.61963 13.8902 3.06734 11.7291C4.29275 9.89973 4.63782 9.16224 4.63782 8.02313C4.63782 7.81423 4.57104 7.54507 4.43752 7.16727C4.39934 7.05924 4.35267 6.93497 4.30265 6.80178C4.20046 6.52964 4.08428 6.22027 3.99794 5.93609C3.86165 5.48755 3.75153 4.96633 3.80453 4.41913C3.85955 3.85108 4.08618 3.29794 4.55067 2.79491" fill="black"/>
</svg>