<svg width="24" height="24" viewBox="0 0 24 24" fill="none" xmlns="http://www.w3.org/2000/svg">
<path d="M18.1654 14.4049L18.1792 14.4049M18.252 14.4049C18.252 14.3652 18.2198 14.333 18.1802 14.333C18.1405 14.333 18.1083 14.3652 18.1083 14.4049C18.1083 14.4446 18.1405 14.4768 18.1802 14.4768C18.2198 14.4768 18.252 14.4446 18.252 14.4049Z" stroke="black" stroke-width="1.5" stroke-linecap="round" stroke-linejoin="round"/>
<path d="M15.3119 14.2613L15.3257 14.2613M15.3984 14.2614C15.3984 14.2216 15.3663 14.1895 15.3267 14.1895C15.287 14.1895 15.2548 14.2216 15.2548 14.2614C15.2548 14.3011 15.287 14.3332 15.3267 14.3332C15.3663 14.3332 15.3984 14.3011 15.3984 14.2614Z" stroke="black" stroke-width="1.5" stroke-linecap="round" stroke-linejoin="round"/>
<path d="M16.4369 16.8531L16.4507 16.8531M16.5234 16.8531C16.5234 16.8134 16.4913 16.7812 16.4517 16.7812C16.412 16.7812 16.3798 16.8134 16.3798 16.8531C16.3798 16.8929 16.412 16.925 16.4517 16.925C16.4913 16.925 16.5234 16.8929 16.5234 16.8531Z" stroke="black" stroke-width="1.5" stroke-linecap="round" stroke-linejoin="round"/>
<path d="M8.99766 10.1912C10.2787 8.55386 12.2729 7.5015 14.513 7.5015C18.3783 7.5015 21.5117 10.635 21.5117 14.5003C21.5117 18.3656 18.3783 21.499 14.513 21.499C12.841 21.499 11.3059 20.9127 10.1022 19.9345" stroke="black" stroke-width="1.5" stroke-linecap="round" stroke-linejoin="round"/>
<path d="M3.69057 12.146C1.05992 16.0732 3.32729 19.7445 4.97947 21.2917C5.12763 21.4305 5.32433 21.5 5.52731 21.5H8.33193C8.53492 21.5 8.73161 21.4305 8.87977 21.2917C10.532 19.7445 12.7993 16.0732 10.1687 12.146C8.93703 10.3074 8.42273 9.43439 8.47131 8.0227C8.51989 6.61101 10.1452 4.78569 8.75741 3.30325C7.74795 2.31567 6.16481 2.15195 5.10183 3.30325C3.69057 4.83158 5.38794 6.64011 5.38794 8.0227C5.38794 9.40529 4.92222 10.3074 3.69057 12.146Z" stroke="black" stroke-width="1.5" stroke-linecap="round" stroke-linejoin="round"/>
</svg>