<svg width="24" height="24" viewBox="0 0 24 24" fill="none" xmlns="http://www.w3.org/2000/svg">
<path fill-rule="evenodd" clip-rule="evenodd" d="M13.1954 4.28577C12.4823 3.59858 11.4828 3.55217 10.8199 4.27018L10.8199 4.27021C10.5973 4.51122 10.5152 4.73624 10.4937 4.95895C10.4701 5.20252 10.5155 5.48469 10.6206 5.83067C10.6905 6.06079 10.768 6.26604 10.8527 6.49041C10.9047 6.62802 10.9594 6.77282 11.0167 6.93497C11.1501 7.31246 11.2899 7.76826 11.2899 8.23246C11.2899 9.78577 10.728 10.805 9.55498 12.5562C8.44125 14.2188 8.37551 15.7895 8.74356 17.1159C9.11863 18.4677 9.9537 19.5869 10.6588 20.2493C10.6616 20.2499 10.6659 20.2504 10.6719 20.2504H13.3289C13.3349 20.2504 13.3393 20.2499 13.3421 20.2493C14.0472 19.5869 14.8822 18.4677 15.2573 17.1159C15.6254 15.7895 15.5596 14.2188 14.4459 12.5562C13.2898 10.8303 12.6561 9.81543 12.7114 8.20667C12.7271 7.75019 12.8668 7.29914 12.9998 6.91932C13.0504 6.77466 13.0995 6.64151 13.1464 6.51419C13.2356 6.27189 13.3171 6.05076 13.3869 5.81181C13.5836 5.13829 13.5707 4.69472 13.1954 4.28577ZM9.71783 3.2526C11.0652 1.7933 13.0577 2.05249 14.2565 3.22529C14.2644 3.23298 14.272 3.24083 14.2796 3.24885C15.2084 4.24103 15.0808 5.36226 14.8267 6.23232C14.7427 6.52008 14.6302 6.82615 14.5313 7.09515C14.4892 7.20994 14.4495 7.31797 14.4155 7.41496C14.2879 7.77941 14.2178 8.04603 14.2105 8.25825C14.1739 9.32427 14.5146 9.96349 15.6921 11.7214C17.0706 13.7792 17.1769 15.8078 16.7027 17.517C16.2367 19.1964 15.2193 20.5464 14.3606 21.3506C14.0665 21.626 13.6905 21.7504 13.3289 21.7504H10.6719C10.3104 21.7504 9.93433 21.626 9.64027 21.3506C8.78154 20.5464 7.76415 19.1964 7.29816 17.517C6.82393 15.8078 6.93027 13.7792 8.30874 11.7214C9.46933 9.98882 9.78989 9.2988 9.78989 8.23246C9.78989 8.04175 9.7287 7.79219 9.60239 7.4348C9.56674 7.33393 9.52285 7.21705 9.47566 7.09137C9.37859 6.83286 9.26754 6.5371 9.18539 6.26675C9.05563 5.83968 8.94972 5.34017 9.00065 4.81434C9.0536 4.26766 9.27188 3.73556 9.7178 3.25263" fill="black"/>
<path fill-rule="evenodd" clip-rule="evenodd" d="M17.8232 7.72059C17.5355 7.44518 17.1829 7.31965 16.868 7.33888C16.4546 7.36412 16.0989 7.04942 16.0737 6.63598C16.0484 6.22253 16.3631 5.86691 16.7766 5.84167C17.5612 5.79376 18.3231 6.11102 18.8844 6.66014C18.8922 6.66782 18.8999 6.67568 18.9074 6.68369C19.7052 7.53593 19.5889 8.50102 19.3799 9.21662C19.3111 9.45213 19.2177 9.70644 19.1379 9.92363C19.1047 10.0138 19.0739 10.0977 19.0482 10.171C18.9466 10.4613 18.8974 10.6564 18.8924 10.802C18.8649 11.6015 19.1085 12.0759 20.0535 13.4866C21.1837 15.1737 21.2728 16.8436 20.8825 18.2503C20.5005 19.6273 19.6681 20.7309 18.9654 21.389C18.6993 21.6382 18.3603 21.7495 18.0371 21.7495H16.8223C16.4081 21.7495 16.0723 21.4138 16.0723 20.9995C16.0723 20.5853 16.4081 20.2495 16.8223 20.2495H17.987C18.5273 19.7289 19.1531 18.8731 19.4372 17.8493C19.7213 16.8253 19.6727 15.6133 18.8073 14.3214C17.8838 12.9427 17.3471 12.0927 17.3933 10.7504C17.4067 10.3606 17.5255 9.98106 17.6325 9.67541C17.6749 9.5543 17.715 9.44541 17.7529 9.3427C17.8231 9.1521 17.8855 8.98277 17.94 8.79611C18.0913 8.27813 18.068 7.98948 17.8232 7.72059Z" fill="black"/>
<path fill-rule="evenodd" clip-rule="evenodd" d="M6.17677 7.72059C6.46447 7.44518 6.81712 7.31965 7.132 7.33888C7.54545 7.36412 7.90107 7.04942 7.92632 6.63598C7.95156 6.22253 7.63686 5.86691 7.22342 5.84167C6.43878 5.79376 5.67692 6.11102 5.11563 6.66014C5.10778 6.66782 5.10009 6.67568 5.09259 6.68369C4.29478 7.53593 4.41113 8.50102 4.62012 9.21662C4.6889 9.45213 4.78234 9.70644 4.86214 9.92363C4.89529 10.0138 4.92608 10.0977 4.95177 10.171C5.0534 10.4613 5.10257 10.6564 5.10758 10.802C5.1351 11.6015 4.89148 12.0759 3.94647 13.4866C2.81635 15.1737 2.72715 16.8436 3.11745 18.2503C3.49951 19.6273 4.33188 20.7309 5.03464 21.389C5.30073 21.6382 5.63966 21.7495 5.96286 21.7495H7.17771C7.59192 21.7495 7.92771 21.4138 7.92771 20.9995C7.92771 20.5853 7.59192 20.2495 7.17771 20.2495H6.01301C5.47272 19.7289 4.84693 18.8731 4.56285 17.8493C4.27874 16.8253 4.32733 15.6133 5.19271 14.3214C6.11625 12.9427 6.65288 12.0927 6.6067 10.7504C6.59328 10.3606 6.47453 9.98106 6.36752 9.67541C6.32512 9.5543 6.28499 9.44541 6.24714 9.3427C6.17689 9.1521 6.11449 8.98277 6.05997 8.79611C5.9087 8.27813 5.93202 7.98948 6.17677 7.72059Z" fill="black"/>
</svg>