<svg width="24" height="24" viewBox="0 0 24 24" fill="none" xmlns="http://www.w3.org/2000/svg">
<path fill-rule="evenodd" clip-rule="evenodd" d="M11.9976 6.13281C9.47388 6.13281 7.16568 6.36643 5.46795 6.75513C4.62511 6.9481 3.89137 7.18842 3.35007 7.4814C3.07988 7.62764 2.82204 7.80583 2.62363 8.02779C2.42117 8.25429 2.25 8.56351 2.25 8.94272C2.25 9.01267 2.25582 9.08024 2.2666 9.14535C2.26644 9.14772 2.26628 9.15008 2.26613 9.15244L2.26452 9.17695V9.19184C2.2538 9.35276 2.25381 9.49648 2.25381 9.62808V9.63743C2.25381 14.312 6.75491 17.8681 12.0014 17.8681C17.2489 17.8681 21.75 14.3121 21.75 9.63743V9.62819C21.75 9.49655 21.75 9.35278 21.7393 9.19183V9.17695L21.7377 9.15244C21.7368 9.13858 21.7358 9.12473 21.7348 9.11088C21.7422 9.05648 21.7462 9.00041 21.7462 8.94272C21.7462 8.5635 21.575 8.25429 21.3726 8.02779C21.1741 7.80583 20.9163 7.62764 20.6461 7.4814C20.1048 7.18842 19.371 6.9481 18.5281 6.75513C16.8303 6.36643 14.5218 6.13281 11.9976 6.13281ZM4.06408 9.08487C3.96464 9.03105 3.891 8.98291 3.83774 8.94272C3.891 8.90253 3.96464 8.85439 4.06408 8.80057C4.43339 8.60068 5.01731 8.39712 5.80272 8.2173C7.36148 7.86041 9.55207 7.63281 11.9976 7.63281C14.4436 7.63281 16.6345 7.86041 18.1934 8.2173C18.9788 8.39712 19.5628 8.60068 19.9321 8.80057C20.0316 8.85439 20.1052 8.90253 20.1585 8.94272C20.1052 8.98291 20.0316 9.03104 19.9321 9.08486C19.5628 9.28475 18.9788 9.48831 18.1934 9.66814C16.6345 10.025 14.4436 10.2526 11.9976 10.2526C9.55207 10.2526 7.36148 10.025 5.80272 9.66814C5.01731 9.48832 4.43339 9.28476 4.06408 9.08487Z" fill="black"/>
</svg>