<svg width="24" height="24" viewBox="0 0 24 24" fill="none" xmlns="http://www.w3.org/2000/svg">
<path fill-rule="evenodd" clip-rule="evenodd" d="M16.072 10.02C15.52 10.02 15.072 9.571 15.072 9.019C15.072 8.468 15.52 8.02 16.072 8.02C16.624 8.02 17.073 8.468 17.073 9.019C17.073 9.571 16.624 10.02 16.072 10.02ZM12.946 7.825C12.394 7.825 11.945 7.376 11.945 6.825C11.945 6.274 12.394 5.825 12.946 5.825C13.498 5.825 13.946 6.274 13.946 6.825C13.946 7.376 13.498 7.825 12.946 7.825ZM12.946 12.029C12.394 12.029 11.945 11.581 11.945 11.029C11.945 10.478 12.394 10.029 12.946 10.029C13.498 10.029 13.946 10.478 13.946 11.029C13.946 11.581 13.498 12.029 12.946 12.029ZM12 2.5C6.761 2.5 2.5 6.762 2.5 12C2.5 17.239 6.761 21.5 12 21.5C17.238 21.5 21.5 17.239 21.5 12C21.5 6.762 17.238 2.5 12 2.5Z" fill="black"/>
</svg>