<svg width="24" height="24" viewBox="0 0 24 24" fill="none" xmlns="http://www.w3.org/2000/svg">
<path fill-rule="evenodd" clip-rule="evenodd" d="M13.5303 14.5303C13.8232 14.2374 13.8232 13.7626 13.5303 13.4697L11.0607 11L13.5303 8.53033C13.8232 8.23744 13.8232 7.76256 13.5303 7.46967C13.2374 7.17678 12.7626 7.17678 12.4697 7.46967L9.46967 10.4697C9.17678 10.7626 9.17678 11.2374 9.46967 11.5303L12.4697 14.5303C12.7626 14.8232 13.2374 14.8232 13.5303 14.5303Z" fill="black"/>
<path fill-rule="evenodd" clip-rule="evenodd" d="M20.75 15.9712C20.75 18.0423 19.0711 19.7212 17 19.7212H7C4.92893 19.7212 3.25 18.0423 3.25 15.9712V13.4712C3.25 13.057 3.58579 12.7212 4 12.7212C4.41421 12.7212 4.75 13.057 4.75 13.4712V15.9712C4.75 17.2138 5.75736 18.2212 7 18.2212H17C18.2426 18.2212 19.25 17.2138 19.25 15.9712V13.9712C19.25 12.7286 18.2426 11.7212 17 11.7212H10.3145C9.90024 11.7212 9.56446 11.3854 9.56446 10.9712C9.56446 10.557 9.90024 10.2212 10.3145 10.2212H17C19.0711 10.2212 20.75 11.9001 20.75 13.9712V15.9712Z" fill="black"/>
</svg>