<svg width="24" height="24" viewBox="0 0 24 24" fill="none" xmlns="http://www.w3.org/2000/svg">
<path d="M15.51 20.1855H8.50005C5.60005 20.1855 3.79004 18.4356 3.79004 15.6056V8.27563C3.79004 5.49563 5.59005 3.76562 8.50005 3.76562H15.5201C16.9901 3.76562 18.2 4.20563 19.03 5.02563C19.81 5.81563 20.23 6.93563 20.22 8.27563V15.6755C20.22 18.4555 18.42 20.1855 15.51 20.1855ZM8.50005 5.26562C7.04005 5.26562 5.29004 5.78563 5.29004 8.27563V15.6056C5.29004 18.1556 7.03005 18.6855 8.50005 18.6855H15.51C16.97 18.6855 18.72 18.1655 18.72 15.6755V8.27563C18.72 7.32563 18.47 6.59557 17.97 6.08557C17.43 5.54557 16.59 5.26562 15.53 5.26562H8.51004H8.50005Z" fill="black"/>
<path d="M16.0502 5.2666C15.6402 5.2666 15.3002 4.9266 15.3002 4.5166V2.97656C15.3002 2.56656 15.6402 2.22656 16.0502 2.22656C16.4602 2.22656 16.8002 2.56656 16.8002 2.97656V4.5166C16.8002 4.9266 16.4602 5.2666 16.0502 5.2666ZM12.0002 5.2666C11.5902 5.2666 11.2502 4.9266 11.2502 4.5166V2.97656C11.2502 2.56656 11.5902 2.22656 12.0002 2.22656C12.4102 2.22656 12.7502 2.56656 12.7502 2.97656V4.5166C12.7502 4.9266 12.4102 5.2666 12.0002 5.2666ZM7.9502 5.2666C7.5402 5.2666 7.2002 4.9266 7.2002 4.5166V2.97656C7.2002 2.56656 7.5402 2.22656 7.9502 2.22656C8.3602 2.22656 8.7002 2.56656 8.7002 2.97656V4.5166C8.7002 4.9266 8.3602 5.2666 7.9502 5.2666Z" fill="black"/>
<path d="M16.0502 21.7275C15.6402 21.7275 15.3002 21.3875 15.3002 20.9775V19.4375C15.3002 19.0275 15.6402 18.6875 16.0502 18.6875C16.4602 18.6875 16.8002 19.0275 16.8002 19.4375V20.9775C16.8002 21.3875 16.4602 21.7275 16.0502 21.7275ZM12.0002 21.7275C11.5902 21.7275 11.2502 21.3875 11.2502 20.9775V19.4375C11.2502 19.0275 11.5902 18.6875 12.0002 18.6875C12.4102 18.6875 12.7502 19.0275 12.7502 19.4375V20.9775C12.7502 21.3875 12.4102 21.7275 12.0002 21.7275ZM7.9502 21.7275C7.5402 21.7275 7.2002 21.3875 7.2002 20.9775V19.4375C7.2002 19.0275 7.5402 18.6875 7.9502 18.6875C8.3602 18.6875 8.7002 19.0275 8.7002 19.4375V20.9775C8.7002 21.3875 8.3602 21.7275 7.9502 21.7275Z" fill="black"/>
<path d="M4.53999 16.7759H3C2.59 16.7759 2.25 16.4359 2.25 16.0259C2.25 15.6159 2.59 15.2759 3 15.2759H4.53999C4.94999 15.2759 5.28999 15.6159 5.28999 16.0259C5.28999 16.4359 4.94999 16.7759 4.53999 16.7759ZM4.53999 12.7258H3C2.59 12.7258 2.25 12.3858 2.25 11.9758C2.25 11.5658 2.59 11.2258 3 11.2258H4.53999C4.94999 11.2258 5.28999 11.5658 5.28999 11.9758C5.28999 12.3858 4.94999 12.7258 4.53999 12.7258ZM4.53999 8.67578H3C2.59 8.67578 2.25 8.33578 2.25 7.92578C2.25 7.51578 2.59 7.17578 3 7.17578H4.53999C4.94999 7.17578 5.28999 7.51578 5.28999 7.92578C5.28999 8.33578 4.94999 8.67578 4.53999 8.67578Z" fill="black"/>
<path d="M21 16.7759H19.46C19.05 16.7759 18.71 16.4359 18.71 16.0259C18.71 15.6159 19.05 15.2759 19.46 15.2759H21C21.41 15.2759 21.75 15.6159 21.75 16.0259C21.75 16.4359 21.41 16.7759 21 16.7759ZM21 12.7258H19.46C19.05 12.7258 18.71 12.3858 18.71 11.9758C18.71 11.5658 19.05 11.2258 19.46 11.2258H21C21.41 11.2258 21.75 11.5658 21.75 11.9758C21.75 12.3858 21.41 12.7258 21 12.7258ZM21 8.67578H19.46C19.05 8.67578 18.71 8.33578 18.71 7.92578C18.71 7.51578 19.05 7.17578 19.46 7.17578H21C21.41 7.17578 21.75 7.51578 21.75 7.92578C21.75 8.33578 21.41 8.67578 21 8.67578Z" fill="black"/>
<path d="M11.3901 14.0273C11.0601 14.0273 10.7301 13.9473 10.4301 13.7873C9.85008 13.4573 9.48008 12.8872 9.42008 12.2572C9.38008 11.8472 9.68008 11.4772 10.0901 11.4372C10.5101 11.3972 10.8701 11.6972 10.9101 12.1072C10.9301 12.2572 11.0201 12.4072 11.1601 12.4872C11.3001 12.5672 11.4901 12.5672 11.6401 12.4672C11.9901 12.2472 12.4501 12.3572 12.6701 12.7072C12.8901 13.0572 12.7801 13.5172 12.4301 13.7372C12.1101 13.9372 11.7501 14.0373 11.3801 14.0373L11.3901 14.0273Z" fill="black"/>
<path d="M11.86 11.4264C11.57 11.4264 11.27 11.3464 11.01 11.1764C10.66 10.9564 10.56 10.4865 10.78 10.1365C11 9.78647 11.47 9.68649 11.82 9.90649C11.86 9.49649 12.29 9.16641 12.7 9.20641C13.11 9.24641 13.47 9.58645 13.43 9.99645C13.38 10.5265 13.07 10.9864 12.61 11.2264C12.38 11.3564 12.12 11.4264 11.86 11.4264Z" fill="black"/>
<path d="M9.23025 14.8563C9.00025 14.8563 8.78025 14.8264 8.55025 14.7664C7.72025 14.5264 7.04025 13.7663 6.81025 12.8263C6.62025 12.0663 6.77026 11.3163 7.21026 10.7963C7.21026 10.7763 7.21026 10.7563 7.21026 10.7363C7.18026 10.2963 7.13025 9.47633 7.81025 8.71633C8.44025 8.00633 9.20025 7.95629 9.66025 7.92629C9.74025 7.92629 9.86025 7.91638 9.92025 7.89638C10.6402 7.02638 11.6003 6.58631 12.5803 6.69631C13.5703 6.80631 14.4502 7.46633 14.9302 8.46633C16.2602 8.69633 17.2202 9.80637 17.2802 11.1364C17.3502 12.5764 16.3203 13.8564 14.8903 14.1164C14.4803 14.1864 14.0903 13.9164 14.0203 13.5064C13.9503 13.0964 14.2203 12.7064 14.6303 12.6364C15.3403 12.5164 15.8202 11.9163 15.7902 11.2163C15.7602 10.5663 15.3103 10.0563 14.7103 9.95632C14.1803 9.87632 13.8103 9.61635 13.5803 9.11635C13.3203 8.58635 12.9002 8.24631 12.4202 8.19631C11.9402 8.13631 11.4503 8.38638 11.0503 8.89638C10.6903 9.36638 10.1502 9.40629 9.76025 9.42629C9.36025 9.45629 9.14024 9.47633 8.93024 9.71633C8.68024 9.99633 8.68025 10.2564 8.70025 10.6564C8.72025 10.9764 8.75025 11.4063 8.39025 11.7363C8.15025 11.9563 8.23025 12.3663 8.26025 12.4863C8.36025 12.9063 8.65025 13.2563 8.95025 13.3463C9.48025 13.4963 9.94025 13.1763 10.1603 12.7963C10.3703 12.4363 10.8303 12.3164 11.1903 12.5264C11.5503 12.7364 11.6703 13.1963 11.4603 13.5563C10.9703 14.3963 10.1202 14.8864 9.23025 14.8864V14.8563Z" fill="black"/>
<path d="M11.6201 17.2857C11.2101 17.2857 10.8701 16.9457 10.8701 16.5357C10.8701 16.1257 10.9601 15.3856 11.5401 14.8056C11.9901 14.3556 12.6201 14.1257 13.4101 14.1257C13.7201 14.1157 13.9701 13.8956 13.9701 13.5856C13.9701 13.3956 13.8701 13.2157 13.7001 13.1157C13.3401 12.9157 13.2101 12.4557 13.4201 12.0957C13.6201 11.7357 14.0801 11.6056 14.4401 11.8156C15.0801 12.1756 15.4701 12.8556 15.4701 13.5856C15.4701 14.7056 14.5501 15.6257 13.4301 15.6257C13.0801 15.6557 12.7601 15.7057 12.6001 15.8657C12.3901 16.0757 12.3701 16.4057 12.3701 16.5357C12.3701 16.9457 12.0301 17.2857 11.6201 17.2857Z" fill="black"/>
</svg>