<svg width="24" height="24" viewBox="0 0 24 24" fill="none" xmlns="http://www.w3.org/2000/svg">
<path opacity="0.4" fill-rule="evenodd" clip-rule="evenodd" d="M21.3588 13.5216C21.8288 14.1616 22.0488 15.0917 21.8688 15.9616C21.7088 16.7217 20.9888 18.4516 17.8388 18.8616V19.9016C17.8388 20.3517 17.4688 20.7316 17.0088 20.7316H15.3188C15.0188 20.7316 14.6688 20.4916 14.5588 20.2116L13.5888 17.9216C12.8888 17.9616 12.0788 17.7116 11.4988 17.1216C10.6588 17.5716 9.61878 17.6516 8.69878 17.2816C8.45878 17.1816 8.22878 17.0616 8.03878 16.9016C7.93878 16.8316 7.83878 16.7516 7.76878 16.6616C7.74878 16.6516 7.73878 16.6516 7.74878 16.6416C7.57878 16.4816 7.43878 16.3016 7.32878 16.1016C7.25878 15.9916 7.19878 15.8716 7.14878 15.7516C7.11878 15.7617 7.08878 15.7716 7.05878 15.7716C6.70878 15.8716 6.32878 15.9216 5.94878 15.9216C5.17878 15.9216 4.38878 15.7317 3.73878 15.3417C3.59878 15.2617 3.46878 15.1616 3.34878 15.0716C2.58878 14.4716 2.05878 13.6416 1.84878 12.6816C1.58878 11.4716 1.84878 10.2016 2.57878 9.10165C2.59878 9.07165 2.62878 9.05165 2.65878 9.03165C2.64878 7.75165 3.28878 6.42165 4.35878 5.61165C5.05878 5.08165 5.87878 4.83165 6.73878 4.82165C8.01878 4.06165 10.5888 2.59165 13.8788 3.62165C14.3988 3.40165 14.9588 3.31165 15.5288 3.36165C16.8088 3.47165 17.9488 4.26165 18.4488 5.37165C18.4888 5.47165 18.4988 5.57165 18.5388 5.67165C19.6088 6.09165 20.4488 6.96165 20.9388 8.26165C21.8188 9.18165 22.2688 10.2016 22.2488 11.2116C22.2388 12.0216 21.9388 12.7916 21.3588 13.5216Z" fill="black"/>
<path fill-rule="evenodd" clip-rule="evenodd" d="M11.3639 10.5821C11.5579 10.5821 11.7599 10.5581 11.9679 10.5061C12.3699 10.4041 12.6129 9.99706 12.5119 9.59506C12.4109 9.19206 11.9969 8.95106 11.6009 9.05106C11.1639 9.16706 10.8539 8.93606 10.6639 8.71506C10.9739 8.26606 11.1429 7.69506 11.1429 7.03906C11.1429 6.62506 10.8069 6.28906 10.3929 6.28906C9.97889 6.28906 9.64289 6.62506 9.64289 7.03906C9.64289 7.64406 9.43689 8.01906 9.01189 8.18106C8.55089 8.35806 8.04689 8.21106 7.93889 8.09906C7.71989 7.75406 7.26489 7.64306 6.91389 7.85906C6.55989 8.07506 6.44789 8.53606 6.66489 8.89006C6.99889 9.43706 7.74589 9.76406 8.54289 9.76406C8.79989 9.76406 9.06289 9.72906 9.31789 9.65806C9.36389 9.64506 9.40489 9.62506 9.44889 9.61006C9.88989 10.1621 10.5589 10.5821 11.3639 10.5821Z" fill="black"/>
<path fill-rule="evenodd" clip-rule="evenodd" d="M19.3727 10.2698C19.2847 9.86583 18.8867 9.61483 18.4797 9.69583L17.1857 9.97583C16.7817 10.0638 16.5247 10.4628 16.6117 10.8688C16.6877 11.2188 16.9997 11.4588 17.3447 11.4588C17.3967 11.4588 17.4507 11.4538 17.5047 11.4428L18.7987 11.1628C19.2027 11.0748 19.4597 10.6748 19.3727 10.2698Z" fill="black"/>
<path fill-rule="evenodd" clip-rule="evenodd" d="M15.7257 12.03C16.2197 10.441 15.6137 9.17297 14.8627 8.52197C14.5507 8.25297 14.0767 8.28497 13.8037 8.59797C13.5337 8.91097 13.5677 9.38497 13.8807 9.65697C14.0837 9.83097 14.6447 10.441 14.3027 11.558C13.0157 11.404 11.7237 11.874 11.1537 12.766C10.9297 13.115 11.0327 13.578 11.3817 13.801C11.7337 14.025 12.1947 13.921 12.4177 13.574C12.6777 13.164 13.5857 12.876 14.4717 13.115C15.0947 13.282 15.8477 13.745 15.9027 15.001C15.9197 15.404 16.2517 15.719 16.6507 15.719C16.6627 15.719 16.6737 15.719 16.6837 15.718C17.0977 15.701 17.4187 15.351 17.4007 14.937C17.3447 13.638 16.7307 12.608 15.7257 12.03Z" fill="black"/>
<path fill-rule="evenodd" clip-rule="evenodd" d="M8.03859 16.9019C7.93859 16.8319 7.83859 16.7519 7.76859 16.6619C7.76859 16.6519 7.75859 16.6519 7.75859 16.6419H7.74859C7.57859 16.4819 7.43859 16.3019 7.32859 16.1019C7.25859 15.9919 7.19859 15.8719 7.14859 15.7519C7.11859 15.7619 7.08859 15.7719 7.05859 15.7719C7.84859 15.1719 8.21859 14.2019 8.15859 13.5919C8.11859 13.1719 8.41859 12.8119 8.82859 12.7719C9.23859 12.7119 9.60859 13.0319 9.64859 13.4419C9.77859 14.6519 9.10859 16.0519 8.03859 16.9019Z" fill="black"/>
</svg>