<svg width="24" height="24" viewBox="0 0 24 24" fill="none" xmlns="http://www.w3.org/2000/svg">
<path fill-rule="evenodd" clip-rule="evenodd" d="M6.70504 6.04338C6.58758 5.64617 6.17036 5.41938 5.77315 5.53684C4.14611 6.01796 3.39664 7.38069 3.05851 8.26008C2.63777 8.7059 2.04411 9.46443 1.83041 10.4384C1.61916 11.4013 1.8009 12.4708 2.64734 13.529C2.47947 13.7531 2.34728 14.0065 2.25346 14.2662C2.04567 14.8415 1.99153 15.5357 2.2036 16.2227C2.61071 17.5415 3.88267 18.5633 6.16274 18.8584V19.8986C6.16274 20.3229 6.4992 20.7297 6.98998 20.7297H8.67772C9.02573 20.7297 9.31583 20.5153 9.43916 20.2235C9.43916 20.2235 9.43916 20.2235 9.43916 20.2235L10.4132 17.9188C10.6937 17.9267 11.0053 17.8983 11.3213 17.8108C11.7309 17.6973 12.1491 17.4827 12.5043 17.1259C13.2695 17.534 14.1831 17.6152 14.9811 17.3925C16.0814 17.0854 17.0213 16.1784 17.0857 14.7276C17.104 14.3138 16.7835 13.9635 16.3697 13.9451C15.9559 13.9267 15.6055 14.2473 15.5872 14.6611C15.555 15.3848 15.1335 15.7927 14.5779 15.9477C13.9782 16.1151 13.2868 15.9622 12.8613 15.5493C12.6909 15.384 12.4523 15.3091 12.2181 15.3475C11.9838 15.3858 11.7814 15.5327 11.6726 15.7437C11.4803 16.1163 11.2037 16.2869 10.9208 16.3652C10.6132 16.4505 10.3034 16.4215 10.1412 16.3774C9.77899 16.279 9.39982 16.4635 9.2537 16.8092L8.2307 19.2297H7.66274V18.1756C7.66274 17.7786 7.35346 17.4504 6.95723 17.4269C4.56565 17.2848 3.82678 16.3955 3.63686 15.7802C3.53031 15.4351 3.55582 15.076 3.66425 14.7758C3.77854 14.4594 3.95162 14.2913 4.04864 14.2417C4.26511 14.131 4.41449 13.9222 4.44938 13.6816C4.48428 13.441 4.40036 13.1984 4.22425 13.0307C3.25357 12.1068 3.16952 11.3344 3.29556 10.7599C3.43775 10.1118 3.88571 9.55255 4.23906 9.19708C4.31717 9.1185 4.3769 9.02359 4.41396 8.91918C4.67581 8.18135 5.1841 7.27523 6.19849 6.97527C6.59571 6.85782 6.82249 6.44059 6.70504 6.04338Z" fill="black"/>
<path fill-rule="evenodd" clip-rule="evenodd" d="M20.3799 8.89877C20.036 9.12955 19.9442 9.59548 20.175 9.93944C21.2122 11.4852 20.7697 13.2727 19.4815 14.0552C19.0631 14.3093 18.5308 14.4312 18.005 14.4212C17.4707 14.411 17.0273 14.2669 16.7719 14.0852C16.1103 13.6142 15.7783 12.815 15.8284 12.2888C15.8677 11.8764 15.5653 11.5103 15.1529 11.471C14.7406 11.4317 14.3745 11.7342 14.3352 12.1465C14.228 13.2719 14.8603 14.5657 15.9021 15.3072C16.4677 15.7098 17.2298 15.9067 17.9764 15.9209C18.7316 15.9353 19.5558 15.7651 20.2602 15.3372C22.3508 14.0674 22.8861 11.2878 21.4206 9.10368C21.1898 8.75972 20.7239 8.66798 20.3799 8.89877Z" fill="black"/>
<path fill-rule="evenodd" clip-rule="evenodd" d="M16.5776 6.15908C16.5962 6.17009 16.6147 6.18095 16.6329 6.19168C16.9898 6.40192 17.4495 6.28303 17.6598 5.92614C17.87 5.56925 17.7511 5.1095 17.3942 4.89926C17.3624 4.88052 17.3294 4.86103 17.2953 4.84085C16.0811 4.12292 13.4056 2.54103 10.0194 3.66008C9.62614 3.79005 9.41268 4.21424 9.54265 4.60754C9.67262 5.00083 10.0968 5.21429 10.4901 5.08432C13.223 4.18119 15.3763 5.45083 16.5776 6.15908Z" fill="black"/>
<path fill-rule="evenodd" clip-rule="evenodd" d="M5.4319 5.70467C5.17786 6.53196 5.3058 7.45174 5.92887 8.27148C6.17952 8.60124 6.65004 8.66538 6.97981 8.41473C7.30958 8.16408 7.37371 7.69355 7.12306 7.36379C6.79047 6.92621 6.75443 6.50771 6.86581 6.145C6.98482 5.75745 7.29229 5.37942 7.73217 5.12796C8.16693 4.87942 8.6917 4.77788 9.20905 4.89333C9.71578 5.00641 10.2794 5.3421 10.7763 6.08354C11.0069 6.42763 11.4728 6.51964 11.8169 6.28904C12.161 6.05845 12.253 5.59257 12.0224 5.24848C11.338 4.22726 10.4629 3.63624 9.53575 3.42934C8.61921 3.22481 7.71491 3.41002 6.98773 3.82572C6.26567 4.2385 5.67831 4.90221 5.4319 5.70467Z" fill="black"/>
<path fill-rule="evenodd" clip-rule="evenodd" d="M19.772 9.5735C19.6253 10.0503 19.2662 10.4697 18.5384 10.655C18.137 10.7573 17.8944 11.1655 17.9967 11.5669C18.0989 11.9683 18.5071 12.2109 18.9085 12.1087C20.1311 11.7973 20.9016 11.003 21.2057 10.0146C21.4986 9.06265 21.3398 8.00271 20.886 7.11141C20.429 6.21401 19.6411 5.42338 18.5883 5.04584C17.5194 4.66249 16.2562 4.73336 14.9217 5.42519C14.5539 5.61582 14.4103 6.06847 14.601 6.43621C14.7916 6.80395 15.2443 6.94753 15.612 6.75689C16.6237 6.23245 17.4534 6.23236 18.0819 6.45779C18.7267 6.68902 19.2411 7.18689 19.5493 7.79209C19.8606 8.4034 19.93 9.06019 19.772 9.5735Z" fill="black"/>
<path fill-rule="evenodd" clip-rule="evenodd" d="M13.1314 6.9043C12.7171 6.9043 12.3814 7.24008 12.3814 7.6543C12.3814 8.38986 12.5863 9.00244 12.9644 9.46734C13.3388 9.92767 13.8361 10.1855 14.3237 10.3001C14.8061 10.4134 15.3044 10.3935 15.7327 10.2762C16.1372 10.1654 16.6003 9.93192 16.8612 9.5047C17.077 9.15119 16.9655 8.68961 16.612 8.47374C16.2584 8.25786 15.7969 8.36944 15.581 8.72295C15.5839 8.71817 15.5854 8.71586 15.5851 8.71559C15.5834 8.71406 15.5237 8.77822 15.3366 8.82946C15.1403 8.88319 14.8963 8.89373 14.6667 8.8398C14.4422 8.78708 14.2576 8.68007 14.1281 8.52087C14.0023 8.36622 13.8814 8.1046 13.8814 7.6543C13.8814 7.24008 13.5456 6.9043 13.1314 6.9043Z" fill="black"/>
<path fill-rule="evenodd" clip-rule="evenodd" d="M14.072 8.61323C13.6933 8.44553 13.2503 8.61662 13.0826 8.99537C13.0201 9.13649 12.8675 9.36557 12.651 9.52301C12.4567 9.66423 12.2268 9.74143 11.9212 9.66569C11.5191 9.56604 11.1124 9.81118 11.0128 10.2132C10.9131 10.6153 11.1583 11.022 11.5603 11.1216C12.367 11.3216 13.0446 11.0913 13.533 10.7362C13.9991 10.3974 14.3042 9.9413 14.4542 9.60266C14.6218 9.22391 14.4508 8.78093 14.072 8.61323Z" fill="black"/>
<path fill-rule="evenodd" clip-rule="evenodd" d="M9.26098 13.0634C9.48875 12.996 9.59237 12.8973 9.62298 12.8494C9.84617 12.5005 10.31 12.3986 10.6589 12.6217C11.0078 12.8449 11.1098 13.3087 10.8866 13.6577C10.6019 14.1027 10.1371 14.3684 9.68652 14.5017C9.22641 14.6379 8.70505 14.6608 8.20582 14.5537C7.70382 14.446 7.19475 14.1995 6.79981 13.7676C6.39809 13.3284 6.15505 12.7412 6.12475 12.0322C6.10706 11.6184 6.4282 11.2686 6.84203 11.2509C7.25587 11.2332 7.60569 11.5543 7.62338 11.9682C7.64003 12.3577 7.76425 12.5996 7.90669 12.7553C8.05592 12.9185 8.26794 13.0329 8.52057 13.0871C8.77597 13.1419 9.04277 13.1279 9.26098 13.0634Z" fill="black"/>
</svg>