<svg width="24" height="24" viewBox="0 0 24 24" fill="none" xmlns="http://www.w3.org/2000/svg">
<path fill-rule="evenodd" clip-rule="evenodd" d="M9.76022 3.84961C8.97589 3.84961 8.32594 4.46479 8.27404 5.25234C8.25888 5.48227 8.13887 5.69248 7.94857 5.82241C7.75826 5.95235 7.51879 5.98759 7.29912 5.91799C7.09728 5.85403 6.88226 5.81935 6.65845 5.81935C5.48482 5.81935 4.52501 6.77848 4.52501 7.97228C4.52501 8.514 4.72183 9.00629 5.04755 9.38403C5.21122 9.57383 5.26926 9.83284 5.20226 10.0743C5.13525 10.3158 4.95205 10.5079 4.71398 10.5862C4.15606 10.7698 3.75 11.3005 3.75 11.9297C3.75 12.5621 4.16115 13.0954 4.72372 13.2761C4.9642 13.3534 5.14965 13.5465 5.2171 13.7899C5.28456 14.0333 5.22497 14.2943 5.05856 14.4843C4.72631 14.8637 4.52501 15.3611 4.52501 15.9085C4.52501 17.1023 5.48482 18.0614 6.65845 18.0614C6.881 18.0614 7.09464 18.0271 7.29493 17.964C7.52093 17.8927 7.7673 17.9325 7.95943 18.0712C8.15156 18.2099 8.26684 18.4312 8.27036 18.6681C8.28261 19.4929 8.9496 20.1496 9.76022 20.1496C10.5781 20.1496 11.25 19.4806 11.25 18.6445V15.9085C11.25 15.4943 11.5858 15.1585 12 15.1585C12.4142 15.1585 12.75 15.4943 12.75 15.9085V18.6445C12.75 20.2994 11.4161 21.6496 9.76022 21.6496C8.42083 21.6496 7.29184 20.7664 6.90928 19.5528C6.82633 19.5585 6.74269 19.5614 6.65845 19.5614C4.64682 19.5614 3.02501 17.9211 3.02501 15.9085C3.02501 15.3174 3.16503 14.758 3.41374 14.2631C2.70677 13.7316 2.25 12.8838 2.25 11.9297C2.25 10.9792 2.70295 10.1339 3.40572 9.60192C3.16197 9.11091 3.02501 8.55715 3.02501 7.97228C3.02501 5.95967 4.64682 4.31935 6.65845 4.31935C6.75611 4.31935 6.85296 4.32325 6.94885 4.33091C7.36481 3.1773 8.46355 2.34961 9.76022 2.34961C11.4161 2.34961 12.75 3.69981 12.75 5.35476V7.97228C12.75 8.38649 12.4142 8.72228 12 8.72228C11.5858 8.72228 11.25 8.38649 11.25 7.97228V5.35476C11.25 4.51863 10.5781 3.84961 9.76022 3.84961Z" fill="black"/>
<path fill-rule="evenodd" clip-rule="evenodd" d="M14.2398 20.1504C15.0241 20.1504 15.6741 19.5352 15.726 18.7477C15.7411 18.5177 15.8611 18.3075 16.0514 18.1776C16.2417 18.0476 16.4812 18.0124 16.7009 18.082C16.9027 18.146 17.1177 18.1807 17.3415 18.1807C18.5152 18.1807 19.475 17.2215 19.475 16.0277C19.475 15.486 19.2782 14.9937 18.9524 14.616C18.7888 14.4262 18.7307 14.1672 18.7977 13.9257C18.8648 13.6842 19.048 13.4921 19.286 13.4138C19.8439 13.2302 20.25 12.6995 20.25 12.0703C20.25 11.4379 19.8388 10.9046 19.2763 10.7239C19.0358 10.6466 18.8504 10.4535 18.7829 10.2101C18.7154 9.96669 18.775 9.70568 18.9414 9.51567C19.2737 9.1363 19.475 8.63892 19.475 8.09152C19.475 6.89772 18.5152 5.93858 17.3415 5.93858C17.119 5.93858 16.9054 5.97288 16.7051 6.03602C16.4791 6.10727 16.2327 6.06752 16.0406 5.92883C15.8484 5.79013 15.7332 5.5688 15.7296 5.33187C15.7174 4.50714 15.0504 3.85039 14.2398 3.85039C13.4219 3.85039 12.75 4.51941 12.75 5.35554C12.75 5.76975 12.4142 6.10554 12 6.10554C11.5858 6.10554 11.25 5.76975 11.25 5.35554C11.25 3.7006 12.5839 2.35039 14.2398 2.35039C15.5792 2.35039 16.7082 3.23361 17.0907 4.4472C17.1737 4.44149 17.2573 4.43858 17.3415 4.43858C19.3532 4.43858 20.975 6.0789 20.975 8.09152C20.975 8.68263 20.835 9.242 20.5863 9.73689C21.2932 10.2684 21.75 11.1162 21.75 12.0703C21.75 13.0208 21.2971 13.8661 20.5943 14.3981C20.838 14.8891 20.975 15.4429 20.975 16.0277C20.975 18.0403 19.3532 19.6807 17.3415 19.6807C17.2439 19.6807 17.147 19.6768 17.0511 19.6691C16.6352 20.8227 15.5364 21.6504 14.2398 21.6504C12.5839 21.6504 11.25 20.3002 11.25 18.6452C11.25 18.231 11.5858 17.8952 12 17.8952C12.4142 17.8952 12.75 18.231 12.75 18.6452C12.75 19.4814 13.4219 20.1504 14.2398 20.1504Z" fill="black"/>
<path fill-rule="evenodd" clip-rule="evenodd" d="M8.15138 8.18331C8.66215 7.63534 9.38027 7.3418 10.195 7.3418H13.8048C14.6209 7.3418 15.3395 7.63501 15.8503 8.18359C16.3555 8.72614 16.6018 9.4578 16.6018 10.2429V13.6441C16.6018 14.4292 16.3555 15.1609 15.8502 15.7034C15.3393 16.252 14.6206 16.5452 13.8044 16.5452H10.195C9.37889 16.5452 8.66036 16.2519 8.14964 15.7033C7.64457 15.1607 7.39844 14.4291 7.39844 13.6441V10.2429C7.39844 9.45696 7.64606 8.72544 8.15138 8.18331ZM9.24864 9.20607C9.04514 9.42439 8.89844 9.76842 8.89844 10.2429V13.6441C8.89844 14.1195 9.04476 14.4634 9.24757 14.6813C9.44473 14.8931 9.7495 15.0452 10.195 15.0452H13.8044C14.2502 15.0452 14.5552 14.893 14.7525 14.6811C14.9554 14.4632 15.1018 14.1194 15.1018 13.6441V10.2429C15.1018 9.76759 14.9554 9.42369 14.7525 9.20579C14.5553 8.99392 14.2503 8.8418 13.8048 8.8418H10.195C9.75186 8.8418 9.44668 8.9936 9.24864 9.20607Z" fill="black"/>
<path fill-rule="evenodd" clip-rule="evenodd" d="M15.1187 10.248C15.1187 9.83383 15.4544 9.49805 15.8687 9.49805H17.2241C17.6383 9.49805 17.9741 9.83383 17.9741 10.248C17.9741 10.6623 17.6383 10.998 17.2241 10.998H15.8687C15.4544 10.998 15.1187 10.6623 15.1187 10.248Z" fill="black"/>
<path fill-rule="evenodd" clip-rule="evenodd" d="M15.1187 13.752C15.1187 13.3377 15.4544 13.002 15.8687 13.002H17.2241C17.6383 13.002 17.9741 13.3377 17.9741 13.752C17.9741 14.1662 17.6383 14.502 17.2241 14.502H15.8687C15.4544 14.502 15.1187 14.1662 15.1187 13.752Z" fill="black"/>
<path fill-rule="evenodd" clip-rule="evenodd" d="M6.04297 10.248C6.04297 9.83383 6.37876 9.49805 6.79297 9.49805H8.14844C8.56265 9.49805 8.89844 9.83383 8.89844 10.248C8.89844 10.6623 8.56265 10.998 8.14844 10.998H6.79297C6.37876 10.998 6.04297 10.6623 6.04297 10.248Z" fill="black"/>
<path fill-rule="evenodd" clip-rule="evenodd" d="M6.04297 13.752C6.04297 13.3377 6.37876 13.002 6.79297 13.002H8.14844C8.56265 13.002 8.89844 13.3377 8.89844 13.752C8.89844 14.1662 8.56265 14.502 8.14844 14.502H6.79297C6.37876 14.502 6.04297 14.1662 6.04297 13.752Z" fill="black"/>
</svg>