<svg width="25" height="24" viewBox="0 0 25 24" fill="none" xmlns="http://www.w3.org/2000/svg">
<path d="M8.99177 4.53711H16.0137C18.4569 4.53711 19.9699 5.86328 19.9631 8.29961V15.6952C19.9631 18.1315 18.4491 19.4645 16.006 19.4645H8.99177C6.55641 19.4645 5.03564 18.1082 5.03564 15.6329V8.29961C5.03564 5.86328 6.55641 4.53711 8.99177 4.53711Z" stroke="black" stroke-width="1.5" stroke-linecap="round" stroke-linejoin="round"/>
<path opacity="0.4" d="M16.5485 4.5373V3M12.4989 4.5373V3M8.44922 4.5373V3" stroke="black" stroke-width="1.5" stroke-linecap="round" stroke-linejoin="round"/>
<path opacity="0.4" d="M8.44922 19.4629V21.0002M12.4989 19.4629V21.0002M16.5485 19.4629V21.0002" stroke="black" stroke-width="1.5" stroke-linecap="round" stroke-linejoin="round"/>
<path opacity="0.4" d="M5.0373 7.94922H3.5M5.0373 11.9989H3.5M5.0373 16.0485H3.5" stroke="black" stroke-width="1.5" stroke-linecap="round" stroke-linejoin="round"/>
<path opacity="0.4" d="M19.9629 16.0485H21.5002M19.9629 11.9989H21.5002M19.9629 7.94922H21.5002" stroke="black" stroke-width="1.5" stroke-linecap="round" stroke-linejoin="round"/>
<g opacity="0.4">
<path d="M10.6603 12.1964C10.7001 12.5823 10.921 12.9433 11.2854 13.1468C11.691 13.3734 12.1696 13.3462 12.5381 13.1172" stroke="black" stroke-width="1.5" stroke-linecap="round"/>
<path d="M13.1825 9.95176C13.1556 10.2126 13.0062 10.4567 12.7599 10.5943C12.4857 10.7474 12.1622 10.7291 11.9131 10.5742" stroke="black" stroke-width="1.5" stroke-linecap="round"/>
<path d="M15.2458 13.3756C16.3219 13.186 17.0762 12.2531 17.0216 11.1811C16.9725 10.2004 16.2756 9.37252 15.3113 9.22112C15.0249 9.17611 14.8735 9.07655 14.7412 8.79967C13.9828 7.22571 12.1505 6.90108 10.9462 8.43413C10.5741 8.9078 9.60444 8.38185 8.8603 9.22112C8.11615 10.0604 8.62887 10.9484 8.38102 11.1811C7.52734 11.9825 8.12114 13.7407 9.25129 14.0586C10.0968 14.2964 10.9035 13.8664 11.3155 13.1658" stroke="black" stroke-width="1.5" stroke-linecap="round"/>
<path d="M12.1239 16.5629C12.1239 16.0648 12.3181 14.8946 13.9345 14.8963C14.6461 14.897 15.2246 14.3211 15.2246 13.6095C15.2246 13.1309 14.963 12.7134 14.5749 12.4922" stroke="black" stroke-width="1.5" stroke-linecap="round"/>
</g>
</svg>