<svg width="24" height="24" viewBox="0 0 24 24" fill="none" xmlns="http://www.w3.org/2000/svg">
<path d="M17.0874 19.8979V18.1749C22.2048 17.8708 21.5482 14.2152 20.293 13.5733C22.5717 11.4043 21.0654 9.44472 20.293 8.66765C20.1762 8.3386 20.0023 7.94137 19.7429 7.55938C19.3706 7.01116 18.8224 6.49431 18.0143 6.25537" stroke="black" stroke-width="1.5" stroke-linecap="round" stroke-linejoin="round"/>
<path d="M15.2517 19.9307L14.0555 17.1004C13.5083 17.2491 12.2634 17.2545 11.6609 16.0869C10.3864 17.3234 7.76013 16.8681 7.66357 14.6936" stroke="black" stroke-width="1.5" stroke-linecap="round" stroke-linejoin="round"/>
<path d="M3.96228 14.0042C4.8963 14.9282 6.46565 15.202 7.39972 14.8241C8.36885 14.4321 9.08066 13.5259 9.19574 12.7044" stroke="black" stroke-width="1.5" stroke-linecap="round" stroke-linejoin="round"/>
<path d="M6.98633 5.54545C7.75445 5.09295 9.06704 4.29054 10.7563 4.07568" stroke="black" stroke-width="1.5" stroke-linecap="round" stroke-linejoin="round"/>
<path d="M17.4742 7.81756C19.3855 5.30293 14.9634 2.14061 12.6008 5.66594" stroke="black" stroke-width="1.5" stroke-linecap="round" stroke-linejoin="round"/>
<path d="M5.27665 11.3825C1.37588 10.3892 4.04076 3.65913 8.73328 6.09168" stroke="black" stroke-width="1.5" stroke-linecap="round" stroke-linejoin="round"/>
<path d="M7.77856 9.11383C8.26133 9.90441 10.8683 10.026 10.8683 7.6543" stroke="black" stroke-width="1.5" stroke-linecap="round" stroke-linejoin="round"/>
<path d="M10.2314 9.29834C10.4439 9.77809 11.1468 10.6687 12.2591 10.393" stroke="black" stroke-width="1.5" stroke-linecap="round" stroke-linejoin="round"/>
<path d="M17.8201 11.3224L19.1139 11.0386" stroke="black" stroke-width="1.5" stroke-linecap="round" stroke-linejoin="round"/>
<path d="M14.8459 9.69897C15.3416 10.1314 16.1011 11.268 15.2515 13.0032" stroke="black" stroke-width="1.5" stroke-linecap="round" stroke-linejoin="round"/>
<path d="M12.2595 13.7756C13.1671 12.3566 16.9907 12.4174 17.1258 15.5798" stroke="black" stroke-width="1.5" stroke-linecap="round" stroke-linejoin="round"/>
</svg>