<svg width="24" height="24" viewBox="0 0 24 24" fill="none" xmlns="http://www.w3.org/2000/svg">
<path d="M6.6582 5.18801C7.7266 5.18801 8.65925 5.77318 9.1573 6.64258" stroke="black" stroke-width="1.5" stroke-linecap="round" stroke-linejoin="round"/>
<path d="M3.77539 16.0273C3.77539 14.7308 4.61957 13.6328 5.78468 13.2601" stroke="black" stroke-width="1.5" stroke-linecap="round" stroke-linejoin="round"/>
<path d="M12 18.6452C12 19.8908 10.9971 20.9004 9.76022 20.9004C8.57379 20.9004 7.60307 19.9717 7.52566 18.797C7.25167 18.8838 6.96028 18.9307 6.65845 18.9307C5.06582 18.9307 3.77501 17.6309 3.77501 16.0277C3.77501 15.3003 4.0403 14.6356 4.47956 14.1262C3.62018 13.8434 3 13.0299 3 12.0703C3 11.1053 3.62801 10.2881 4.49435 10.0098C4.04639 9.49831 3.77501 8.82677 3.77501 8.09152C3.77501 6.48831 5.06582 5.18858 6.65845 5.18858C6.95854 5.18858 7.24819 5.23489 7.52044 5.32072C7.53871 4.09128 8.53465 3.10039 9.76022 3.10039C10.9971 3.10039 12 4.11 12 5.35554" stroke="black" stroke-width="1.5" stroke-linecap="round" stroke-linejoin="round"/>
<path d="M17.3418 5.18803C16.3975 5.18803 15.5593 5.64513 15.0334 6.35156" stroke="black" stroke-width="1.5" stroke-linecap="round" stroke-linejoin="round"/>
<path d="M17.3418 18.9252C16.3975 18.9252 15.5593 18.4682 15.0334 17.7617" stroke="black" stroke-width="1.5" stroke-linecap="round" stroke-linejoin="round"/>
<path d="M6.6582 18.9252C7.60247 18.9252 8.44071 18.4682 8.96658 17.7617" stroke="black" stroke-width="1.5" stroke-linecap="round" stroke-linejoin="round"/>
<path d="M20.2246 16.0273C20.2246 14.7866 19.4516 13.7277 18.364 13.3122" stroke="black" stroke-width="1.5" stroke-linecap="round" stroke-linejoin="round"/>
<path d="M12 18.6452C12 19.8908 13.0029 20.9004 14.2398 20.9004C15.4262 20.9004 16.3969 19.9717 16.4743 18.797C16.7483 18.8838 17.0397 18.9307 17.3415 18.9307C18.9342 18.9307 20.225 17.6309 20.225 16.0277C20.225 15.3003 19.9597 14.6356 19.5204 14.1262C20.3798 13.8434 21 13.0299 21 12.0703C21 11.1053 20.372 10.2881 19.5057 10.0098C19.9536 9.49831 20.225 8.82677 20.225 8.09152C20.225 6.48831 18.9342 5.18858 17.3415 5.18858C17.0415 5.18858 16.7518 5.23489 16.4796 5.32072C16.4613 4.09128 15.4654 3.10039 14.2398 3.10039C13.0029 3.10039 12 4.11 12 5.35554" stroke="black" stroke-width="1.5" stroke-linecap="round" stroke-linejoin="round"/>
<path d="M11.9493 15.4201L13.8115 12.0011H10.1094L11.9697 8.58008" stroke="black" stroke-width="1.5" stroke-linecap="round" stroke-linejoin="round"/>
</svg>