<svg width="24" height="24" viewBox="0 0 24 24" fill="none" xmlns="http://www.w3.org/2000/svg">
<path d="M8.49177 4.53711H15.5137C17.9569 4.53711 19.4699 5.86328 19.4631 8.29961V15.6952C19.4631 18.1315 17.9491 19.4645 15.506 19.4645H8.49177C6.05641 19.4645 4.53564 18.1082 4.53564 15.6329V8.29961C4.53564 5.86328 6.05641 4.53711 8.49177 4.53711Z" stroke="black" stroke-width="1.5" stroke-linecap="round" stroke-linejoin="round"/>
<path d="M16.0485 4.5373V3M11.9989 4.5373V3M7.94922 4.5373V3" stroke="black" stroke-width="1.5" stroke-linecap="round" stroke-linejoin="round"/>
<path d="M7.94922 19.4629V21.0002M11.9989 19.4629V21.0002M16.0485 19.4629V21.0002" stroke="black" stroke-width="1.5" stroke-linecap="round" stroke-linejoin="round"/>
<path d="M4.5373 7.94922H3M4.5373 11.9989H3M4.5373 16.0485H3" stroke="black" stroke-width="1.5" stroke-linecap="round" stroke-linejoin="round"/>
<path d="M19.4629 16.0485H21.0002M19.4629 11.9989H21.0002M19.4629 7.94922H21.0002" stroke="black" stroke-width="1.5" stroke-linecap="round" stroke-linejoin="round"/>
<path d="M10.1603 12.1964C10.2001 12.5823 10.421 12.9433 10.7854 13.1468C11.191 13.3734 11.6696 13.3462 12.0381 13.1172" stroke="black" stroke-width="1.5" stroke-linecap="round"/>
<path d="M12.6825 9.95176C12.6556 10.2126 12.5062 10.4567 12.2599 10.5943C11.9857 10.7474 11.6622 10.7291 11.4131 10.5742" stroke="black" stroke-width="1.5" stroke-linecap="round"/>
<path d="M14.7458 13.3756C15.8219 13.186 16.5762 12.2531 16.5216 11.1811C16.4725 10.2004 15.7756 9.37252 14.8113 9.22112C14.5249 9.17611 14.3735 9.07655 14.2412 8.79967C13.4828 7.22571 11.6505 6.90108 10.4462 8.43413C10.0741 8.9078 9.10444 8.38185 8.3603 9.22112C7.61615 10.0604 8.12887 10.9484 7.88102 11.1811C7.02734 11.9825 7.62114 13.7407 8.75129 14.0586C9.59676 14.2964 10.4035 13.8664 10.8155 13.1658" stroke="black" stroke-width="1.5" stroke-linecap="round"/>
<path d="M11.6239 16.5629C11.6239 16.0648 11.8181 14.8946 13.4345 14.8963C14.1461 14.897 14.7246 14.3211 14.7246 13.6095C14.7246 13.1309 14.463 12.7134 14.0749 12.4922" stroke="black" stroke-width="1.5" stroke-linecap="round"/>
</svg>