<svg width="24" height="24" viewBox="0 0 24 24" fill="none" xmlns="http://www.w3.org/2000/svg">
<path fill-rule="evenodd" clip-rule="evenodd" d="M3.10742 4C3.10742 3.58579 3.44321 3.25 3.85742 3.25H7.85742C8.27164 3.25 8.60742 3.58579 8.60742 4C8.60742 4.41421 8.27164 4.75 7.85742 4.75H5.66804L10.1426 9.22472C10.4355 9.51761 10.4355 9.99249 10.1426 10.2854C9.84971 10.5783 9.37484 10.5783 9.08195 10.2854L4.60742 5.8107V8C4.60742 8.41421 4.27164 8.75 3.85742 8.75C3.44321 8.75 3.10742 8.41421 3.10742 8V4Z" fill="black"/>
<path fill-rule="evenodd" clip-rule="evenodd" d="M11.3266 11.4697C11.4672 11.329 11.658 11.25 11.8569 11.25H20.1431C20.5573 11.25 20.8931 11.5858 20.8931 12C20.8931 12.4142 20.5573 12.75 20.1431 12.75H12.1676L5.668 19.25H7.85742C8.27164 19.25 8.60742 19.5858 8.60742 20C8.60742 20.4142 8.27164 20.75 7.85742 20.75H3.85742C3.44321 20.75 3.10742 20.4142 3.10742 20V16C3.10742 15.5858 3.44321 15.25 3.85742 15.25C4.27164 15.25 4.60742 15.5858 4.60742 16V18.1893L11.3266 11.4697Z" fill="black"/>
</svg>