<svg width="24" height="24" viewBox="0 0 24 24" fill="none" xmlns="http://www.w3.org/2000/svg">
<path fill-rule="evenodd" clip-rule="evenodd" d="M15.393 4C15.393 3.58579 15.7288 3.25 16.143 3.25H20.143C20.5573 3.25 20.893 3.58579 20.893 4V8C20.893 8.41421 20.5573 8.75 20.143 8.75C19.7288 8.75 19.393 8.41421 19.393 8V5.8107L14.9185 10.2854C14.6256 10.5783 14.1508 10.5783 13.8579 10.2854C13.565 9.99249 13.565 9.51761 13.8578 9.22472L18.3324 4.75H16.143C15.7288 4.75 15.393 4.41421 15.393 4Z" fill="black"/>
<path fill-rule="evenodd" clip-rule="evenodd" d="M3.10742 12C3.10742 11.5858 3.44321 11.25 3.85742 11.25H12.1436C12.3425 11.25 12.5333 11.329 12.6739 11.4697L19.3931 18.1893V16C19.3931 15.5858 19.7289 15.25 20.1431 15.25C20.5573 15.25 20.8931 15.5858 20.8931 16V20C20.8931 20.4142 20.5573 20.75 20.1431 20.75H16.1431C15.7289 20.75 15.3931 20.4142 15.3931 20C15.3931 19.5858 15.7289 19.25 16.1431 19.25H18.3325L11.8329 12.75H3.85742C3.44321 12.75 3.10742 12.4142 3.10742 12Z" fill="black"/>
</svg>