<svg width="24" height="24" viewBox="0 0 24 24" fill="none" xmlns="http://www.w3.org/2000/svg">
<path fill-rule="evenodd" clip-rule="evenodd" d="M10.2859 13.8576C10.5788 14.1505 10.5787 14.6254 10.2858 14.9183L5.81119 19.3928L8.00049 19.3928C8.4147 19.3928 8.75049 19.7286 8.75049 20.1428C8.75049 20.557 8.4147 20.8928 8.00049 20.8928L4.00049 20.8928C3.80158 20.8928 3.61081 20.8138 3.47016 20.6731C3.32951 20.5325 3.25049 20.3417 3.25049 20.1428L3.25049 16.1428C3.25049 15.7286 3.58627 15.3928 4.00049 15.3928C4.4147 15.3928 4.75049 15.7286 4.75049 16.1428L4.75049 18.3322L9.2252 13.8576C9.5181 13.5647 9.99298 13.5647 10.2859 13.8576Z" fill="black"/>
<path fill-rule="evenodd" clip-rule="evenodd" d="M12 3.10718C12.4142 3.10718 12.75 3.44296 12.75 3.85718L12.75 11.8327L19.25 18.3322V16.1428C19.25 15.7286 19.5858 15.3928 20 15.3928C20.4142 15.3928 20.75 15.7286 20.75 16.1428V20.1428C20.75 20.557 20.4142 20.8928 20 20.8928H16C15.5858 20.8928 15.25 20.557 15.25 20.1428C15.25 19.7286 15.5858 19.3928 16 19.3928H18.1893L11.4697 12.6737C11.329 12.533 11.25 12.3423 11.25 12.1433L11.25 3.85718C11.25 3.44296 11.5858 3.10718 12 3.10718Z" fill="black"/>
</svg>