<svg width="25" height="24" viewBox="0 0 25 24" fill="none" xmlns="http://www.w3.org/2000/svg">
<path fill-rule="evenodd" clip-rule="evenodd" d="M19.7663 7.01977C22.2366 10.2556 22.9133 14.6763 20.5149 18.5515C19.8181 19.6816 18.6872 21.1914 16.9568 21.5215C15.4846 21.8115 14.01 21.2415 12.8083 20.6116C9.18577 18.6814 6.3928 15.8716 4.17356 12.5115C3.19407 11.0315 2.04417 8.9414 2.67796 6.76147C2.96067 5.78149 3.63401 4.99145 4.37767 4.38159C5.12669 3.78149 6.0012 3.32153 6.78733 3.03149C8.49778 2.40161 10.4411 2.26147 12.2073 2.53149C15.2668 2.99658 17.8962 4.6438 19.6589 6.88256C19.6999 6.92382 19.7361 6.96997 19.7663 7.01977ZM19.9719 10.4844C19.6799 9.66528 19.2693 8.88208 18.7561 8.15942C18.0198 8.21313 16.5823 8.53198 15.3215 9.90161C15.0417 10.2114 14.5671 10.2314 14.2619 9.95141C13.9563 9.67138 13.9358 9.20141 14.2156 8.8916C15.3508 7.65527 16.6155 7.08007 17.6242 6.82983C17.0832 6.29589 16.4758 5.81738 15.8117 5.40893C15.7937 5.40722 15.7766 5.40478 15.7585 5.40161H15.717C15.7019 5.40161 15.6843 5.40039 15.6633 5.39868L15.6584 5.39819L15.654 5.39795C15.6174 5.39502 15.572 5.3916 15.5193 5.3916C15.3406 5.3916 15.0788 5.40136 14.7678 5.47143C14.1531 5.59155 13.3342 5.93139 12.5671 6.78149C12.4187 6.94751 12.2136 7.03027 12.008 7.03003C11.8298 7.02978 11.6511 6.96704 11.508 6.84155C11.2004 6.56152 11.1755 6.08154 11.4529 5.78149C12.095 5.07031 12.78 4.61694 13.4192 4.33471C12.9563 4.19506 12.4773 4.08642 11.9831 4.01147C10.4333 3.78149 8.74925 3.90136 7.30589 4.4414C7.0471 4.53613 6.77757 4.65258 6.50901 4.78881C6.0969 4.99829 5.68724 5.25488 5.32249 5.55151C4.71507 6.0415 4.28587 6.60156 4.11839 7.17163C3.69358 8.6416 4.43675 10.1914 5.42454 11.6914C7.53538 14.8813 10.1535 17.5015 13.511 19.2815C14.6482 19.8816 15.7287 20.2314 16.6711 20.0515C17.7136 19.8516 18.5481 18.8816 19.239 17.7615C20.3845 15.9084 20.6975 13.8699 20.3576 11.9392C20.2195 11.9614 20.0554 11.9973 19.8708 12.0515C19.259 12.2314 18.4216 12.6016 17.572 13.4116C17.2707 13.6914 16.7961 13.6814 16.5119 13.3816C16.2278 13.0715 16.2414 12.6016 16.5427 12.3115C17.5876 11.3315 18.6443 10.8415 19.4533 10.6116C19.6408 10.5557 19.8147 10.5149 19.9719 10.4844Z" fill="black"/>
</svg>