<svg width="25" height="25" viewBox="0 0 25 25" fill="none" xmlns="http://www.w3.org/2000/svg">
<path d="M14.1963 10.1175L18.2962 10.1107C19.2779 10.1088 20.0747 10.9046 20.0747 11.8873C20.0747 12.868 19.2799 13.6629 18.2982 13.6629H6.06953C5.08688 13.6629 4.29103 12.8651 4.29297 11.8824V11.8795C4.29589 10.8998 5.09077 10.1078 6.06953 10.1078H10.1665C10.0819 9.3684 9.63723 5.70924 9.63723 5.70924C9.63723 4.30629 10.7746 3.16797 12.1785 3.16797C13.5815 3.16797 14.7198 4.30629 14.7198 5.70924L14.5497 7.14165" stroke="black" stroke-width="1.5" stroke-linecap="round" stroke-linejoin="round"/>
<path d="M5.44909 16.228C5.53859 18.4531 4.50632 19.9018 4.4353 20.0185C4.14829 20.4884 4.37693 21.0391 4.91203 21.1666C4.92273 21.1685 19.4455 21.1675 19.4514 21.1666C19.9855 21.0391 20.2141 20.4884 19.9271 20.0185C19.8561 19.9018 18.8238 18.4531 18.9133 16.228V13.8242" stroke="black" stroke-width="1.5" stroke-linecap="round" stroke-linejoin="round"/>
<path d="M9.33098 18.3828C9.33098 18.3828 9.23174 19.776 8.26758 21.1693" stroke="black" stroke-width="1.5" stroke-linecap="round" stroke-linejoin="round"/>
<path d="M14.3051 19.4668C14.2516 20.0029 14.2807 20.5633 14.4695 21.1694" stroke="black" stroke-width="1.5" stroke-linecap="round" stroke-linejoin="round"/>
</svg>