<svg width="25" height="24" viewBox="0 0 25 24" fill="none" xmlns="http://www.w3.org/2000/svg">
<path d="M16.0676 12.6235C18.7251 12.6235 20.8794 10.4692 20.8794 7.81177C20.8794 5.1543 18.7251 3 16.0676 3C13.4102 3 11.2559 5.1543 11.2559 7.81177C11.2559 10.4692 13.4102 12.6235 16.0676 12.6235Z" stroke="black" stroke-width="1.5" stroke-linecap="round" stroke-linejoin="round"/>
<path d="M6.83611 17.4037C8.7622 17.4037 10.3236 15.8423 10.3236 13.9162C10.3236 11.9901 8.7622 10.4287 6.83611 10.4287C4.91003 10.4287 3.34863 11.9901 3.34863 13.9162C3.34863 15.8423 4.91003 17.4037 6.83611 17.4037Z" stroke="black" stroke-width="1.5" stroke-linecap="round" stroke-linejoin="round"/>
<path d="M15.8379 21C17.3912 21 18.6504 19.7408 18.6504 18.1875C18.6504 16.6342 17.3912 15.375 15.8379 15.375C14.2846 15.375 13.0254 16.6342 13.0254 18.1875C13.0254 19.7408 14.2846 21 15.8379 21Z" stroke="black" stroke-width="1.5" stroke-linecap="round" stroke-linejoin="round"/>
</svg>