<svg width="25" height="25" viewBox="0 0 25 25" fill="none" xmlns="http://www.w3.org/2000/svg">
<path fill-rule="evenodd" clip-rule="evenodd" d="M19.4417 7.72502C19.4417 8.13902 19.1057 8.47502 18.6917 8.47502C18.2777 8.47502 17.9417 8.13902 17.9417 7.72502C17.9417 7.31102 18.2777 6.97002 18.6917 6.97002C19.1057 6.97002 19.4417 7.30002 19.4417 7.71402V7.72502ZM18.6917 12.958C18.2777 12.958 17.9417 12.628 17.9417 12.214V12.203C17.9417 11.789 18.2777 11.453 18.6917 11.453C19.1057 11.453 19.4417 11.789 19.4417 12.203C19.4417 12.617 19.1057 12.958 18.6917 12.958ZM19.4417 16.692C19.4417 17.106 19.1057 17.442 18.6917 17.442C18.2777 17.442 17.9417 17.106 17.9417 16.692C17.9417 16.278 18.2777 15.936 18.6917 15.936C19.1057 15.936 19.4417 16.267 19.4417 16.681V16.692ZM15.9127 7.72502C15.9127 8.13902 15.5767 8.47502 15.1627 8.47502C14.7487 8.47502 14.4127 8.13902 14.4127 7.72502C14.4127 7.31102 14.7487 6.97002 15.1627 6.97002C15.5767 6.97002 15.9127 7.30002 15.9127 7.71402V7.72502ZM19.5047 3.29102H14.2817C12.8357 3.29102 11.6577 4.46602 11.6577 5.91102V7.92369C11.6577 8.0149 11.6992 8.10116 11.7704 8.15809L15.4897 11.129C16.1957 11.678 16.6187 12.519 16.6347 13.425V18.74C16.6309 19.4304 16.4306 20.086 16.0661 20.6506C15.9228 20.8726 16.0693 21.201 16.3335 21.201H19.5047C20.9597 21.201 22.1427 20.017 22.1427 18.561V5.93102C22.1427 4.47502 20.9597 3.29102 19.5047 3.29102Z" fill="black"/>
<path fill-rule="evenodd" clip-rule="evenodd" d="M14.5218 11.9108L10.5388 8.72778C9.65577 8.03278 8.41877 8.03278 7.52977 8.73178L3.58177 11.9108C3.09077 12.2768 2.80477 12.8398 2.79877 13.4608V18.7338C2.80577 20.1548 3.97277 21.3108 5.39877 21.3108H8.28746C8.29205 21.3108 8.29377 21.3074 8.29377 21.3028V17.0208C8.29377 16.6068 8.62977 16.2708 9.04377 16.2708C9.45777 16.2708 9.79377 16.6068 9.79377 17.0208V21.3028C9.79377 21.3074 9.79548 21.3108 9.80007 21.3108H12.7068C13.3898 21.3108 14.0328 21.0478 14.5188 20.5688C15.0128 20.0818 15.2878 19.4308 15.2918 18.7338V13.4418C15.2808 12.8408 14.9988 12.2808 14.5218 11.9108Z" fill="black"/>
</svg>