<svg width="25" height="24" viewBox="0 0 25 24" fill="none" xmlns="http://www.w3.org/2000/svg">
<path d="M15.4641 18.4304C15.4573 19.5854 14.5164 20.5156 13.3614 20.5088H6.07147C4.91746 20.5146 3.97654 19.5834 3.9707 18.4285V13.1576C3.97557 12.7041 4.19061 12.2789 4.55257 12.0055L8.51572 8.82467C9.21532 8.27199 10.2029 8.27199 10.9016 8.82467L14.8822 12.0026C15.2423 12.276 15.4563 12.7002 15.4641 13.1517V18.4304Z" stroke="black" stroke-width="1.5" stroke-linecap="round" stroke-linejoin="round"/>
<path opacity="0.4" d="M9.71582 16.7227V20.2713" stroke="black" stroke-width="1.5" stroke-linecap="round" stroke-linejoin="round"/>
<path opacity="0.4" d="M18.5356 20.4015H19.8337C21.0139 20.4015 21.9704 19.445 21.9704 18.2647V5.62896C21.9704 4.44867 21.0139 3.49219 19.8337 3.49219H14.6104C13.437 3.49219 12.4863 4.44284 12.4863 5.61631V6.49495" stroke="black" stroke-width="1.5" stroke-linecap="round" stroke-linejoin="round"/>
<path opacity="0.4" d="M18.7373 16.2578V16.2678" stroke="black" stroke-width="1.5" stroke-linecap="round" stroke-linejoin="round"/>
<path opacity="0.4" d="M18.7373 12.0452V12.0352" stroke="black" stroke-width="1.5" stroke-linecap="round" stroke-linejoin="round"/>
<path opacity="0.4" d="M15.6777 7.8125V7.8225" stroke="black" stroke-width="1.5" stroke-linecap="round" stroke-linejoin="round"/>
<path opacity="0.4" d="M18.7373 7.8125V7.8225" stroke="black" stroke-width="1.5" stroke-linecap="round" stroke-linejoin="round"/>
</svg>