<svg width="25" height="24" viewBox="0 0 25 24" fill="none" xmlns="http://www.w3.org/2000/svg">
<path fill-rule="evenodd" clip-rule="evenodd" d="M4.77832 5.16778C4.77832 3.55659 6.08535 2.25 7.69708 2.25H17.7459C19.3577 2.25 20.6647 3.55659 20.6647 5.16778V21C20.6647 21.4142 20.3289 21.75 19.9147 21.75C19.5005 21.75 19.1647 21.4142 19.1647 21V5.16778C19.1647 4.38546 18.5297 3.75 17.7459 3.75H7.69708C6.91334 3.75 6.27832 4.38546 6.27832 5.16778V21C6.27832 21.4142 5.94253 21.75 5.52832 21.75C5.11411 21.75 4.77832 21.4142 4.77832 21V5.16778Z" fill="black"/>
<path fill-rule="evenodd" clip-rule="evenodd" d="M9.21289 8.3125C9.21289 7.89829 9.54868 7.5625 9.96289 7.5625H10.9991C11.4133 7.5625 11.7491 7.89829 11.7491 8.3125C11.7491 8.72671 11.4133 9.0625 10.9991 9.0625H9.96289C9.54868 9.0625 9.21289 8.72671 9.21289 8.3125ZM13.6901 8.3125C13.6901 7.89829 14.0259 7.5625 14.4401 7.5625H15.4763C15.8905 7.5625 16.2263 7.89829 16.2263 8.3125C16.2263 8.72671 15.8905 9.0625 15.4763 9.0625H14.4401C14.0259 9.0625 13.6901 8.72671 13.6901 8.3125ZM9.21289 12.2947C9.21289 11.8804 9.54868 11.5447 9.96289 11.5447H10.9991C11.4133 11.5447 11.7491 11.8804 11.7491 12.2947C11.7491 12.7089 11.4133 13.0447 10.9991 13.0447H9.96289C9.54868 13.0447 9.21289 12.7089 9.21289 12.2947ZM13.6901 12.2947C13.6901 11.8804 14.0259 11.5447 14.4401 11.5447H15.4763C15.8905 11.5447 16.2263 11.8804 16.2263 12.2947C16.2263 12.7089 15.8905 13.0447 15.4763 13.0447H14.4401C14.0259 13.0447 13.6901 12.7089 13.6901 12.2947ZM9.21289 16.2768C9.21289 15.8626 9.54868 15.5268 9.96289 15.5268H10.9991C11.4133 15.5268 11.7491 15.8626 11.7491 16.2768C11.7491 16.691 11.4133 17.0268 10.9991 17.0268H9.96289C9.54868 17.0268 9.21289 16.691 9.21289 16.2768ZM13.6901 16.2768C13.6901 15.8626 14.0259 15.5268 14.4401 15.5268H15.4763C15.8905 15.5268 16.2263 15.8626 16.2263 16.2768C16.2263 16.691 15.8905 17.0268 15.4763 17.0268H14.4401C14.0259 17.0268 13.6901 16.691 13.6901 16.2768Z" fill="black"/>
<path fill-rule="evenodd" clip-rule="evenodd" d="M3.375 21C3.375 20.5858 3.71079 20.25 4.125 20.25H21.3155C21.7297 20.25 22.0655 20.5858 22.0655 21C22.0655 21.4142 21.7297 21.75 21.3155 21.75H4.125C3.71079 21.75 3.375 21.4142 3.375 21Z" fill="black"/>
</svg>