<svg width="24" height="25" viewBox="0 0 24 25" fill="none" xmlns="http://www.w3.org/2000/svg">
<path fill-rule="evenodd" clip-rule="evenodd" d="M10.4402 11.8933C9.94024 12.3833 9.62024 13.0733 9.62024 13.8233C9.62024 15.2333 10.7302 17.3933 12.2102 17.3933C13.6902 17.3933 14.8002 15.2333 14.8002 13.8233C14.8002 13.0633 14.4702 12.3633 13.9602 11.8733C13.7402 11.6633 10.6402 11.6933 10.4402 11.8933Z" fill="black"/>
<path fill-rule="evenodd" clip-rule="evenodd" d="M7.90477 12.5392C7.90477 12.1092 7.79477 11.6892 7.59477 11.3192V11.3092C7.59477 11.3092 7.59477 11.2992 7.58477 11.2992C7.39477 11.0692 4.50477 10.4692 4.21477 10.3992C4.20477 10.3992 4.20477 10.4092 4.19477 10.4192C3.64477 10.7592 3.23477 11.3092 3.06477 11.9192C2.72477 13.2092 3.21477 15.4592 4.56477 15.8192C4.69477 15.8592 4.82477 15.8692 4.95477 15.8692C6.20477 15.8692 7.50477 14.3592 7.81477 13.1992C7.87477 12.9792 7.90477 12.7592 7.90477 12.5392Z" fill="black"/>
<path fill-rule="evenodd" clip-rule="evenodd" d="M21.4824 11.1287C21.3124 10.5187 20.9324 10.0187 20.4424 9.69865C20.4024 9.66865 20.3624 9.64865 20.3224 9.62865C20.2024 9.54865 17.3424 10.5587 17.0024 10.6787C16.7524 11.2087 16.6924 11.8087 16.8424 12.3687C17.0724 13.2287 17.8424 14.2287 18.6324 14.6787C18.9724 14.8787 19.3124 14.9787 19.6324 14.9787C19.7624 14.9787 19.8924 14.9587 20.0124 14.9287C20.6524 14.7587 21.1424 14.1687 21.4024 13.2687C21.6124 12.5487 21.6424 11.7287 21.4824 11.1287Z" fill="black"/>
<path fill-rule="evenodd" clip-rule="evenodd" d="M19.973 17.0307C19.68 16.7377 19.205 16.7377 18.912 17.0307C18.619 17.3237 18.619 17.7987 18.912 18.0917L19.882 19.0607C20.029 19.2077 20.22 19.2807 20.412 19.2807C20.605 19.2807 20.796 19.2077 20.943 19.0607C21.236 18.7677 21.236 18.2937 20.943 18.0007L19.973 17.0307Z" fill="black"/>
<path fill-rule="evenodd" clip-rule="evenodd" d="M3.60577 17.515L2.63577 18.485C2.34277 18.778 2.34277 19.252 2.63577 19.545C2.78277 19.692 2.97477 19.765 3.16677 19.765C3.35777 19.765 3.54977 19.692 3.69677 19.545L4.66677 18.576C4.95977 18.283 4.95977 17.808 4.66677 17.515C4.37377 17.222 3.89877 17.222 3.60577 17.515Z" fill="black"/>
<path fill-rule="evenodd" clip-rule="evenodd" d="M16.099 19.9496C15.685 19.9496 15.349 20.2856 15.349 20.6996V21.2216C15.349 21.6366 15.685 21.9716 16.099 21.9716C16.513 21.9716 16.849 21.6366 16.849 21.2216V20.6996C16.849 20.2856 16.513 19.9496 16.099 19.9496Z" fill="black"/>
<path fill-rule="evenodd" clip-rule="evenodd" d="M12.6444 18.7005C12.2374 18.4895 11.7734 18.4485 11.3374 18.5865C10.9004 18.7235 10.5434 19.0235 10.3334 19.4295L10.2714 19.5475C10.2144 19.6575 10.1204 19.7015 10.0694 19.7175C10.0184 19.7325 9.91539 19.7525 9.80939 19.6965L9.68039 19.6285C8.71039 19.1255 7.50839 19.5045 7.00239 20.4735C6.81139 20.8415 6.95339 21.2945 7.32039 21.4855C7.43139 21.5435 7.55039 21.5705 7.66639 21.5705C7.93739 21.5705 8.19839 21.4245 8.33239 21.1675C8.45739 20.9295 8.75139 20.8365 8.98539 20.9575L9.11339 21.0245C9.55039 21.2535 10.0514 21.2955 10.5204 21.1475C10.9914 20.9995 11.3754 20.6765 11.6024 20.2395L11.6644 20.1215C11.6974 20.0555 11.7504 20.0285 11.7884 20.0155C11.8274 20.0045 11.8854 19.9955 11.9504 20.0305C12.3154 20.2215 12.7704 20.0805 12.9624 19.7125C13.1534 19.3455 13.0114 18.8915 12.6444 18.7005Z" fill="black"/>
<path fill-rule="evenodd" clip-rule="evenodd" d="M6.16032 6.85364L6.10032 7.09364C5.46032 7.21364 4.91032 7.68364 4.73032 8.35364L4.35032 9.76364H4.37032C4.66032 9.83364 7.55032 10.4336 7.74032 10.6636C7.75032 10.6636 7.75032 10.6736 7.75032 10.6736L8.12032 9.26364C8.31032 8.58364 8.06032 7.89364 7.55032 7.46364L7.60032 7.27364C8.67032 7.54364 9.93032 7.73364 11.3303 7.73364H11.4403V8.24364C10.8503 8.52364 10.4403 9.12364 10.4403 9.82364V11.2436C10.6403 11.0436 13.7403 11.0136 13.9603 11.2236V9.82364C13.9603 9.11364 13.5403 8.51364 12.9403 8.23364V7.64364C14.2003 7.50364 15.5303 7.21364 16.9403 6.68364L16.9603 6.78364C16.8103 6.91364 16.6703 7.07364 16.5703 7.25364C16.3303 7.65364 16.2703 8.13364 16.3903 8.58364L16.7703 9.99364C16.7703 9.99364 16.7903 9.99364 16.8103 9.98364C17.1503 9.86364 20.0103 8.85364 20.1303 8.93364L19.7903 7.67364C19.6703 7.22364 19.3803 6.84364 18.9703 6.60364C18.7903 6.50364 18.6103 6.44364 18.4203 6.41364L18.3303 6.07364C19.1403 5.68364 19.9703 5.20364 20.8003 4.63364C21.1403 4.39364 21.2303 3.93364 21.0003 3.58364C20.7603 3.24364 20.3003 3.15364 19.9603 3.39364C11.7103 9.04364 4.84032 4.66364 4.55032 4.47364C4.20032 4.24364 3.74032 4.34364 3.51032 4.68364C3.28032 5.03364 3.38032 5.49364 3.72032 5.72364C3.75032 5.74364 4.65032 6.31364 6.16032 6.85364Z" fill="black"/>
<path fill-rule="evenodd" clip-rule="evenodd" d="M9.98907 4.76219C10.1811 4.76219 10.3731 4.68919 10.5191 4.54219C10.8121 4.24919 10.8121 3.77519 10.5191 3.48219L10.5121 3.47519C10.2211 3.18319 9.74906 3.18719 9.45506 3.47819C9.16206 3.77119 9.16606 4.24919 9.45906 4.54219C9.60506 4.68919 9.79707 4.76219 9.98907 4.76219Z" fill="black"/>
</svg>