<svg width="24" height="24" viewBox="0 0 24 24" fill="none" xmlns="http://www.w3.org/2000/svg">
<path fill-rule="evenodd" clip-rule="evenodd" d="M2.42362 8.48256C3.48637 4.84423 7.3024 2.25 11.7268 2.25C16.1513 2.25 19.9674 4.84471 21.0302 8.48304C21.4778 10.0193 20.0762 11.2374 18.6194 11.2374H4.83425C3.37746 11.2374 1.97604 10.0188 2.42362 8.48256ZM11.7266 5.63696C11.3123 5.63696 10.9766 5.97275 10.9766 6.38696C10.9766 6.80118 11.3123 7.13696 11.7266 7.13696H11.8079C12.2221 7.13696 12.5579 6.80118 12.5579 6.38696C12.5579 5.97275 12.2221 5.63696 11.8079 5.63696H11.7266ZM15.4961 7.04883C15.0819 7.04883 14.7461 7.38461 14.7461 7.79883C14.7461 8.21304 15.0819 8.54883 15.4961 8.54883H15.5774C15.9916 8.54883 16.3274 8.21304 16.3274 7.79883C16.3274 7.38461 15.9916 7.04883 15.5774 7.04883H15.4961ZM7.21387 7.79883C7.21387 7.38461 7.54965 7.04883 7.96387 7.04883H8.04516C8.45938 7.04883 8.79516 7.38461 8.79516 7.79883C8.79516 8.21304 8.45938 8.54883 8.04516 8.54883H7.96387C7.54965 8.54883 7.21387 8.21304 7.21387 7.79883Z" fill="black"/>
<path d="M2.34375 17.6777C2.34375 17.0361 2.91069 16.5166 3.61091 16.5166H20.3894C21.0895 16.5166 21.6555 17.0369 21.6555 17.6777C21.6555 19.9266 19.6654 21.7501 17.211 21.7501H6.78834C4.33387 21.7501 2.34375 19.9266 2.34375 17.6777Z" fill="black"/>
<path d="M6.20962 15.0061C5.84314 15.1632 5.41996 15.2585 4.89409 15.2585C4.33298 15.2585 3.8913 15.1494 3.51184 14.975C3.20155 14.8325 2.94126 14.6468 2.7454 14.5071C2.71641 14.4864 2.68844 14.4665 2.66232 14.4481C2.32353 14.2098 2.24206 13.742 2.48037 13.4032C2.71867 13.0644 3.18651 12.9829 3.5253 13.2212L3.62549 13.292C3.82744 13.435 3.96536 13.5326 4.13814 13.612C4.31502 13.6933 4.54233 13.7585 4.89409 13.7585C5.22723 13.7585 5.4483 13.7005 5.61869 13.6274C5.80217 13.5488 5.95511 13.4425 6.17613 13.2846L6.19357 13.2722C6.39995 13.1246 6.67094 12.931 7.01457 12.7837C7.38105 12.6266 7.80423 12.5312 8.3301 12.5312C8.85611 12.5312 9.27951 12.6265 9.64606 12.7837C9.99099 12.9316 10.2623 13.1261 10.4688 13.2741L10.4844 13.2853C10.7053 13.4436 10.8571 13.5496 11.039 13.6281C11.2075 13.7008 11.4259 13.7585 11.7553 13.7585C12.0885 13.7585 12.3095 13.7005 12.48 13.6274C12.6635 13.5488 12.8165 13.4425 13.0376 13.2846L13.0549 13.2722C13.2614 13.1246 13.5325 12.9309 13.8763 12.7836C14.2429 12.6266 14.6663 12.5312 15.1923 12.5312C15.7182 12.5312 16.1414 12.6266 16.5078 12.7837C16.8515 12.931 17.1225 13.1246 17.3288 13.2722L17.3463 13.2846C17.5673 13.4425 17.7202 13.5488 17.9037 13.6274C18.0741 13.7005 18.2952 13.7585 18.6283 13.7585C19.2534 13.7585 19.5288 13.565 19.925 13.2838C20.2628 13.044 20.7309 13.1235 20.9707 13.4613C21.2104 13.7991 21.1309 14.2673 20.7931 14.507C20.3254 14.839 19.731 15.2585 18.6283 15.2585C18.1025 15.2585 17.6793 15.1632 17.3128 15.0061C16.9692 14.8588 16.6982 14.6651 16.4918 14.5176L16.4744 14.5052C16.2533 14.3473 16.1004 14.241 15.9169 14.1624C15.7465 14.0893 15.5255 14.0312 15.1923 14.0312C14.8589 14.0312 14.6376 14.0893 14.467 14.1624C14.2834 14.2411 14.1304 14.3474 13.9093 14.5052L13.8918 14.5178C13.6854 14.6653 13.4144 14.8589 13.0709 15.0061C12.7044 15.1632 12.2812 15.2585 11.7553 15.2585C11.2317 15.2585 10.8101 15.1629 10.445 15.0055C10.1042 14.8585 9.83485 14.6653 9.62993 14.5184L9.61062 14.5045C9.3908 14.347 9.23815 14.2408 9.05504 14.1623C8.8848 14.0894 8.66358 14.0312 8.3301 14.0312C7.99696 14.0312 7.7759 14.0893 7.6055 14.1624C7.42202 14.241 7.26908 14.3473 7.04806 14.5052L7.03062 14.5176C6.82424 14.6651 6.55325 14.8588 6.20962 15.0061Z" fill="black"/>
</svg>