<svg width="24" height="24" viewBox="0 0 24 24" fill="none" xmlns="http://www.w3.org/2000/svg">
<path opacity="0.4" d="M11.727 2.25C7.30252 2.25 3.48649 4.84423 2.42375 8.48256C1.97616 10.0188 3.37758 11.2374 4.83438 11.2374H18.6195C20.0763 11.2374 21.4779 10.0193 21.0303 8.48304C19.9676 4.84471 16.1514 2.25 11.727 2.25Z" fill="black"/>
<path opacity="0.4" d="M3.61091 16.5156C2.91069 16.5156 2.34375 17.0351 2.34375 17.6767C2.34375 19.9256 4.33387 21.7491 6.78834 21.7491H17.211C19.6654 21.7491 21.6555 19.9256 21.6555 17.6767C21.6555 17.0359 21.0895 16.5156 20.3894 16.5156H3.61091Z" fill="black"/>
<path fill-rule="evenodd" clip-rule="evenodd" d="M6.20962 15.0061C5.84314 15.1632 5.41996 15.2585 4.89409 15.2585C4.33298 15.2585 3.8913 15.1494 3.51184 14.975C3.20155 14.8325 2.94126 14.6468 2.7454 14.5071C2.71627 14.4863 2.68856 14.4666 2.66232 14.4481C2.32353 14.2098 2.24206 13.742 2.48037 13.4032C2.71867 13.0644 3.18651 12.9829 3.5253 13.2212C3.56053 13.246 3.5938 13.2695 3.62549 13.292C3.82744 13.435 3.96536 13.5327 4.13814 13.612C4.31502 13.6933 4.54233 13.7585 4.89409 13.7585C5.22723 13.7585 5.4483 13.7005 5.61869 13.6274C5.80217 13.5488 5.95511 13.4425 6.17613 13.2846C6.18189 13.2805 6.18771 13.2763 6.19357 13.2722C6.39995 13.1246 6.67094 12.931 7.01457 12.7837C7.38105 12.6266 7.80423 12.5312 8.3301 12.5312C8.85611 12.5312 9.27951 12.6265 9.64606 12.7837C9.99099 12.9316 10.2623 13.1261 10.4688 13.2741L10.4844 13.2853C10.7053 13.4436 10.8571 13.5496 11.039 13.6281C11.2075 13.7007 11.4259 13.7585 11.7553 13.7585C12.0885 13.7585 12.3095 13.7005 12.48 13.6274C12.6635 13.5488 12.8165 13.4425 13.0376 13.2846L13.0549 13.2722C13.2614 13.1246 13.5325 12.9309 13.8763 12.7836C14.2429 12.6266 14.6663 12.5312 15.1923 12.5312C15.7182 12.5312 16.1414 12.6266 16.5078 12.7837C16.8515 12.931 17.1225 13.1246 17.3288 13.2722L17.3463 13.2846C17.5673 13.4425 17.7202 13.5488 17.9037 13.6274C18.0741 13.7005 18.2952 13.7585 18.6283 13.7585C19.2534 13.7585 19.5288 13.565 19.925 13.2838C20.2628 13.044 20.7309 13.1235 20.9707 13.4613C21.2104 13.7991 21.1309 14.2673 20.7931 14.507C20.3254 14.839 19.731 15.2585 18.6283 15.2585C18.1025 15.2585 17.6793 15.1632 17.3128 15.0061C16.9692 14.8588 16.6982 14.6651 16.4918 14.5176L16.4744 14.5052C16.2533 14.3473 16.1004 14.241 15.9169 14.1624C15.7465 14.0893 15.5255 14.0312 15.1923 14.0312C14.8589 14.0312 14.6376 14.0893 14.467 14.1624C14.2834 14.2411 14.1304 14.3474 13.9093 14.5052C13.9035 14.5094 13.8977 14.5136 13.8918 14.5178C13.6854 14.6653 13.4144 14.8589 13.0709 15.0061C12.7044 15.1632 12.2812 15.2585 11.7553 15.2585C11.2317 15.2585 10.8101 15.1629 10.445 15.0055C10.1042 14.8585 9.83485 14.6653 9.62993 14.5184C9.62343 14.5137 9.61699 14.5091 9.61062 14.5045C9.3908 14.347 9.23815 14.2408 9.05504 14.1623C8.8848 14.0894 8.66358 14.0312 8.3301 14.0312C7.99696 14.0312 7.7759 14.0893 7.6055 14.1624C7.42202 14.241 7.26908 14.3473 7.04806 14.5052C7.0423 14.5093 7.03648 14.5134 7.03062 14.5176C6.82424 14.6651 6.55325 14.8588 6.20962 15.0061Z" fill="black"/>
<path fill-rule="evenodd" clip-rule="evenodd" d="M10.9764 6.38672C10.9764 5.97251 11.3122 5.63672 11.7264 5.63672H11.8077C12.222 5.63672 12.5577 5.97251 12.5577 6.38672C12.5577 6.80093 12.222 7.13672 11.8077 7.13672H11.7264C11.3122 7.13672 10.9764 6.80093 10.9764 6.38672ZM14.746 7.79858C14.746 7.38437 15.0818 7.04858 15.496 7.04858H15.5773C15.9915 7.04858 16.3273 7.38437 16.3273 7.79858C16.3273 8.2128 15.9915 8.54858 15.5773 8.54858H15.496C15.0818 8.54858 14.746 8.2128 14.746 7.79858ZM7.96374 7.04858C7.54953 7.04858 7.21375 7.38437 7.21375 7.79858C7.21375 8.2128 7.54953 8.54858 7.96374 8.54858H8.04504C8.45926 8.54858 8.79504 8.2128 8.79504 7.79858C8.79504 7.38437 8.45926 7.04858 8.04504 7.04858H7.96374Z" fill="black"/>
</svg>