<svg width="25" height="25" viewBox="0 0 25 25" fill="none" xmlns="http://www.w3.org/2000/svg">
<path fill-rule="evenodd" clip-rule="evenodd" d="M3.62264 6.17869C3.62265 4.65992 4.85386 3.42871 6.37264 3.42871H18.1265C19.6453 3.42871 20.8765 4.65992 20.8765 6.1787L20.8766 20.5908C20.8766 21.5574 20.0931 22.3409 19.1266 22.3409H17.6997C17.0773 22.3409 16.5017 22.0103 16.1881 21.4726L15.7996 20.8066C15.7548 20.7298 15.6726 20.6826 15.5836 20.6826H8.91277C8.82385 20.6826 8.74162 20.7298 8.69682 20.8066L8.3083 21.4726L7.66046 21.0947L8.3083 21.4726C7.99468 22.0103 7.4191 22.3409 6.79668 22.3409H5.37256C4.40605 22.3409 3.62255 21.5573 3.62256 20.5908L3.62264 6.17869ZM6.37264 4.92871C5.68229 4.92871 5.12264 5.48835 5.12264 6.1787L5.12256 20.5909C5.12256 20.7289 5.23449 20.8409 5.37256 20.8409H6.79668C6.8856 20.8409 6.96783 20.7936 7.01263 20.7168L7.40115 20.0508L7.83304 20.3027L7.40115 20.0508C7.71477 19.5132 8.29035 19.1826 8.91277 19.1826H15.5836C16.2061 19.1826 16.7816 19.5132 17.0953 20.0508L16.4474 20.4287L17.0953 20.0508L17.4838 20.7168C17.5286 20.7936 17.6108 20.8409 17.6997 20.8409H19.1266C19.2646 20.8409 19.3766 20.7289 19.3766 20.5909L19.3765 6.17871C19.3765 5.48835 18.8168 4.92871 18.1265 4.92871H6.37264Z" fill="black"/>
<path fill-rule="evenodd" clip-rule="evenodd" d="M3.63433 14.0904C3.69561 13.6808 4.07738 13.3984 4.48703 13.4596C9.6999 14.2394 14.7853 14.2406 20.0129 13.4596C20.4226 13.3984 20.8043 13.6809 20.8655 14.0906C20.9267 14.5002 20.6442 14.882 20.2345 14.9432C14.86 15.7461 9.62508 15.7449 4.26512 14.9431C3.85547 14.8819 3.57305 14.5001 3.63433 14.0904Z" fill="black"/>
<path fill-rule="evenodd" clip-rule="evenodd" d="M2.24992 9.58765C2.66413 9.5876 2.99995 9.92335 3 10.3376L3.0002 12.0993C3.00024 12.5136 2.66449 12.8494 2.25028 12.8494C1.83607 12.8495 1.50024 12.5137 1.5002 12.0995L1.5 10.3377C1.49995 9.92352 1.8357 9.58769 2.24992 9.58765ZM22.2497 9.58765C22.6639 9.5876 22.9998 9.92335 22.9998 10.3376L23 12.0993C23 12.5136 22.6643 12.8494 22.2501 12.8494C21.8359 12.8495 21.5 12.5137 21.5 12.0995L21.4998 10.3377C21.4998 9.92352 21.8355 9.58769 22.2497 9.58765Z" fill="black"/>
<path fill-rule="evenodd" clip-rule="evenodd" d="M3.62256 7.11841C3.62256 6.70419 3.95835 6.36841 4.37256 6.36841H20.1264C20.5406 6.36841 20.8764 6.70419 20.8764 7.11841C20.8764 7.53262 20.5406 7.86841 20.1264 7.86841H4.37256C3.95835 7.86841 3.62256 7.53262 3.62256 7.11841Z" fill="black"/>
<path fill-rule="evenodd" clip-rule="evenodd" d="M16.8203 17.4451C16.8203 17.0309 17.1561 16.6951 17.5703 16.6951L18.054 16.6951C18.4682 16.6951 18.804 17.0309 18.804 17.4451C18.804 17.8593 18.4682 18.1951 18.054 18.1951L17.5703 18.1951C17.1561 18.1951 16.8203 17.8593 16.8203 17.4451Z" fill="black"/>
<path fill-rule="evenodd" clip-rule="evenodd" d="M5.6958 17.4451C5.6958 17.0309 6.03159 16.6951 6.4458 16.6951L6.92947 16.6951C7.34369 16.6951 7.67947 17.0309 7.67947 17.4451C7.67947 17.8593 7.34368 18.1951 6.92947 18.1951L6.4458 18.1951C6.03159 18.1951 5.6958 17.8593 5.6958 17.4451Z" fill="black"/>
<path fill-rule="evenodd" clip-rule="evenodd" d="M9.08154 17.4451C9.08154 17.0309 9.41733 16.6951 9.83154 16.6951H14.6682C15.0825 16.6951 15.4182 17.0309 15.4182 17.4451C15.4182 17.8593 15.0825 18.1951 14.6682 18.1951H9.83154C9.41733 18.1951 9.08154 17.8593 9.08154 17.4451Z" fill="black"/>
</svg>