<svg width="25" height="25" viewBox="0 0 25 25" fill="none" xmlns="http://www.w3.org/2000/svg">
<path fill-rule="evenodd" clip-rule="evenodd" d="M6.91408 16.6599C6.59928 16.6599 6.29705 16.7851 6.07441 17.0077C5.85244 17.2297 5.72734 17.5308 5.72659 17.8446C5.72766 17.9516 5.7439 18.0582 5.77477 18.1609L5.77881 18.1748C5.84793 18.4219 5.99621 18.6397 6.20144 18.7952C6.4039 18.9487 6.65119 19.0325 6.90614 19.0339C7.16577 19.027 7.41624 18.9395 7.62338 18.7833C7.82779 18.6292 7.97938 18.4167 8.05833 18.1743C8.08444 18.0646 8.09879 17.9528 8.10107 17.8414C8.09949 17.5288 7.97448 17.229 7.75325 17.0077C7.53047 16.785 7.22868 16.6599 6.91408 16.6599ZM8.85108 17.8474H9.60108C9.60108 17.1347 9.31781 16.451 8.81391 15.9471C8.31015 15.4433 7.62696 15.1599 6.91408 15.1599C6.20139 15.1599 5.51765 15.4432 5.01375 15.9471C4.50985 16.451 4.22658 17.1347 4.22658 17.8474H4.22656L4.22661 17.8531C4.22848 18.1013 4.26547 18.3482 4.33625 18.586C4.49473 19.1465 4.83174 19.6392 5.29528 19.9906C5.76157 20.3441 6.33053 20.5343 6.91461 20.5339L6.9295 20.5338C7.50661 20.5219 8.0652 20.3288 8.52645 19.981C8.98723 19.6336 9.32721 19.1501 9.49755 18.598C9.50145 18.5853 9.50502 18.5726 9.50824 18.5597C9.56561 18.3315 9.59711 18.0965 9.60098 17.8597L8.85108 17.8474Z" fill="black"/>
<path fill-rule="evenodd" clip-rule="evenodd" d="M17.6441 16.6639C17.477 16.6639 17.3127 16.6971 17.1615 16.7607C17.0103 16.8242 16.8761 16.9165 16.7663 17.0303C16.6565 17.1442 16.5739 17.2769 16.5218 17.4194C16.4697 17.5623 16.4488 17.7131 16.4599 17.8624C16.4615 17.8839 16.4622 17.9054 16.462 17.9269C16.4608 18.0241 16.4741 18.1222 16.5018 18.2178C16.5699 18.4459 16.7145 18.6516 16.9197 18.801C17.1257 18.9508 17.3797 19.0339 17.6441 19.0339C17.9087 19.0339 18.1633 18.9507 18.369 18.801C18.5713 18.6538 18.7146 18.4519 18.784 18.2277C18.8103 18.1226 18.8245 18.0144 18.8264 17.9054C18.8266 17.8911 18.8273 17.8767 18.8283 17.8624C18.8395 17.7121 18.8188 17.5614 18.7669 17.4194C18.7149 17.2769 18.6322 17.1442 18.5224 17.0303C18.413 16.9168 18.2785 16.8244 18.1267 16.7607C17.9756 16.6971 17.8112 16.6639 17.6441 16.6639ZM16.5803 15.3779C16.917 15.2363 17.2791 15.1639 17.6441 15.1639C18.0092 15.1639 18.3713 15.2363 18.708 15.3779C19.0442 15.5192 19.3492 15.7267 19.6024 15.9893C19.8551 16.2515 20.0511 16.5629 20.176 16.905C20.2985 17.2407 20.3491 17.5971 20.3257 17.9521C20.3203 18.1763 20.2892 18.4 20.2323 18.6183C20.2302 18.6264 20.228 18.6346 20.2256 18.6426C20.0618 19.1947 19.7178 19.6746 19.2516 20.0138C18.7855 20.353 18.221 20.5339 17.6441 20.5339C17.0671 20.5339 16.5031 20.3529 16.0371 20.0138C15.571 19.6746 15.227 19.1947 15.0632 18.6426L15.0621 18.6389L15.0621 18.6389C14.9964 18.413 14.9622 18.1783 14.9619 17.9417C14.9401 17.5893 14.9918 17.2366 15.1128 16.905C15.2377 16.5629 15.4336 16.2515 15.6864 15.9893C15.9392 15.7271 16.2436 15.5194 16.5803 15.3779Z" fill="black"/>
<path fill-rule="evenodd" clip-rule="evenodd" d="M8.10156 17.8474C8.10156 17.4332 8.43735 17.0974 8.85156 17.0974H15.7112C16.1254 17.0974 16.4612 17.4332 16.4612 17.8474C16.4612 18.2616 16.1254 18.5974 15.7112 18.5974H8.85156C8.43735 18.5974 8.10156 18.2616 8.10156 17.8474Z" fill="black"/>
<path fill-rule="evenodd" clip-rule="evenodd" d="M4.40689 6.7356C4.03395 6.7356 3.6761 6.88386 3.41218 7.14778C3.14827 7.4117 3 7.76954 3 8.14248V15.7501C3 16.123 3.14827 16.4809 3.41218 16.7448C3.6761 17.0087 4.03395 17.157 4.40689 17.157H4.71648C5.13069 17.157 5.46648 17.4928 5.46648 17.907C5.46648 18.3212 5.13069 18.657 4.71648 18.657H4.40689C3.63583 18.657 2.89654 18.3505 2.35152 17.8054C1.80651 17.2604 1.5 16.5211 1.5 15.7501V8.14248C1.5 7.37142 1.80651 6.63213 2.35152 6.08712C2.89654 5.54211 3.63583 5.2356 4.40689 5.2356H17.3895C17.8123 5.23691 18.2294 5.33995 18.6047 5.53731C18.9789 5.73414 19.2997 6.01819 19.5405 6.36551C19.5409 6.36603 19.5412 6.36656 19.5416 6.36708L22.5415 10.6668C22.8441 11.1137 23.0038 11.6425 22.9999 12.1817L22.9999 12.1869L22.9498 15.7541C22.9505 16.1327 22.8772 16.5086 22.7332 16.8596C22.5886 17.2123 22.3757 17.5335 22.1063 17.8042C21.8372 18.0745 21.5173 18.2893 21.1648 18.4357C20.8116 18.5825 20.4336 18.657 20.0531 18.657H19.7235C19.3093 18.657 18.9735 18.3212 18.9735 17.907C18.9735 17.4928 19.3093 17.157 19.7235 17.157H20.0531C20.2381 17.157 20.4203 17.1208 20.5892 17.0506C20.7589 16.98 20.9132 16.8765 21.0431 16.746C21.1727 16.6159 21.2755 16.461 21.3454 16.2904C21.4151 16.1205 21.4506 15.9379 21.4497 15.7536L21.4497 15.7395L21.5 12.1711C21.5 12.1703 21.5 12.1696 21.5 12.1688C21.5012 11.9349 21.432 11.7054 21.3019 11.5115L18.3098 7.22309L18.3082 7.2208C18.2048 7.07137 18.0671 6.94938 17.9064 6.86487C17.7464 6.78075 17.5678 6.73632 17.3859 6.7356H4.40689Z" fill="black"/>
<path fill-rule="evenodd" clip-rule="evenodd" d="M1.5 11.1578C1.5 10.7436 1.83579 10.4078 2.25 10.4078L14.5938 10.4078C15.008 10.4078 15.3437 10.7436 15.3437 11.1578C15.3437 11.5721 15.008 11.9078 14.5937 11.9078L2.25 11.9078C1.83579 11.9078 1.5 11.5721 1.5 11.1578Z" fill="black"/>
<path fill-rule="evenodd" clip-rule="evenodd" d="M6.3252 5.2356C6.73941 5.2356 7.0752 5.57138 7.0752 5.9856L7.0752 11.1578C7.0752 11.572 6.73941 11.9078 6.3252 11.9078C5.91098 11.9078 5.5752 11.572 5.5752 11.1578L5.5752 5.9856C5.5752 5.57138 5.91098 5.2356 6.3252 5.2356Z" fill="black"/>
<path fill-rule="evenodd" clip-rule="evenodd" d="M10.5186 5.2356C10.9328 5.2356 11.2686 5.57138 11.2686 5.9856L11.2686 11.1578C11.2686 11.572 10.9328 11.9078 10.5186 11.9078C10.1043 11.9078 9.76855 11.572 9.76855 11.1578L9.76855 5.9856C9.76855 5.57138 10.1043 5.2356 10.5186 5.2356Z" fill="black"/>
<path fill-rule="evenodd" clip-rule="evenodd" d="M14.5938 5.29492C15.008 5.29492 15.3438 5.63071 15.3438 6.04492V12.6252C15.3438 12.7633 15.4557 12.8752 15.5938 12.8752H22.2207C22.6349 12.8752 22.9707 13.211 22.9707 13.6252C22.9707 14.0395 22.6349 14.3752 22.2207 14.3752H15.5938C14.6273 14.3752 13.8438 13.5917 13.8438 12.6252V6.04492C13.8438 5.63071 14.1795 5.29492 14.5938 5.29492Z" fill="black"/>
</svg>