<svg width="24" height="24" viewBox="0 0 24 24" fill="none" xmlns="http://www.w3.org/2000/svg">
<path fill-rule="evenodd" clip-rule="evenodd" d="M19.2192 4.78061L15.102 5.23808L18.7618 8.89786L19.2192 4.78061ZM19.3411 3.25783C20.1491 3.16806 20.8318 3.85075 20.742 4.6587L20.1994 9.54214C20.0819 10.5993 18.7938 11.0512 18.0416 10.299L13.7008 5.95821C12.9487 5.20608 13.4005 3.9179 14.4577 3.80044L19.3411 3.25783Z" fill="black"/>
<path fill-rule="evenodd" clip-rule="evenodd" d="M18.0402 13.7008C18.7923 12.9487 20.0805 13.4005 20.1979 14.4577L20.7406 19.3411C20.8303 20.1491 20.1476 20.8318 19.3397 20.742L14.4562 20.1994C13.3991 20.0819 12.9472 18.7938 13.6993 18.0416L18.0402 13.7008ZM18.7603 15.102L15.1005 18.7618L19.2178 19.2192L18.7603 15.102Z" fill="black"/>
<path fill-rule="evenodd" clip-rule="evenodd" d="M5.95785 13.7008C5.20571 12.9487 3.91754 13.4005 3.80007 14.4577L3.25747 19.3411C3.1677 20.1491 3.85039 20.8318 4.65834 20.742L9.54178 20.1994C10.5989 20.0819 11.0508 18.7938 10.2987 18.0416L5.95785 13.7008ZM5.23772 15.102L8.89749 18.7618L4.78024 19.2192L5.23772 15.102Z" fill="black"/>
<path fill-rule="evenodd" clip-rule="evenodd" d="M3.25796 4.6587C3.16818 3.85075 3.85087 3.16806 4.65883 3.25783L9.54226 3.80044C10.5994 3.9179 11.0513 5.20608 10.2992 5.95821L5.95833 10.299C5.2062 11.0512 3.91802 10.5993 3.80056 9.54214L3.25796 4.6587ZM4.78073 4.78061L5.2382 8.89786L8.89798 5.23808L4.78073 4.78061Z" fill="black"/>
<path fill-rule="evenodd" clip-rule="evenodd" d="M12.0002 10.0833C10.9416 10.0833 10.0835 10.9414 10.0835 11.9999C10.0835 13.0584 10.9416 13.9166 12.0002 13.9166C13.0587 13.9166 13.9168 13.0584 13.9168 11.9999C13.9168 10.9414 13.0587 10.0833 12.0002 10.0833ZM8.5835 11.9999C8.5835 10.1129 10.1132 8.58325 12.0002 8.58325C13.8871 8.58325 15.4168 10.1129 15.4168 11.9999C15.4168 13.8869 13.8871 15.4166 12.0002 15.4166C10.1132 15.4166 8.5835 13.8869 8.5835 11.9999Z" fill="black"/>
</svg>