<svg width="25" height="25" viewBox="0 0 25 25" fill="none" xmlns="http://www.w3.org/2000/svg">
<path d="M14.624 10.9637H17.296" stroke="black" stroke-width="1.5" stroke-linecap="square"/>
<path fill-rule="evenodd" clip-rule="evenodd" d="M7.90828 20.0272C8.19828 20.0272 8.43228 20.2622 8.43228 20.5512C8.43228 20.8412 8.19828 21.0762 7.90828 21.0762C7.61828 21.0762 7.38428 20.8412 7.38428 20.5512C7.38428 20.2622 7.61828 20.0272 7.90828 20.0272" fill="black"/>
<path fill-rule="evenodd" clip-rule="evenodd" d="M7.90828 20.0272C8.19828 20.0272 8.43228 20.2622 8.43228 20.5512C8.43228 20.8412 8.19828 21.0762 7.90828 21.0762C7.61828 21.0762 7.38428 20.8412 7.38428 20.5512C7.38428 20.2622 7.61828 20.0272 7.90828 20.0272Z" stroke="black" stroke-width="1.5" stroke-linecap="square"/>
<path fill-rule="evenodd" clip-rule="evenodd" d="M18.775 20.0272C19.065 20.0272 19.3 20.2622 19.3 20.5512C19.3 20.8412 19.065 21.0762 18.775 21.0762C18.485 21.0762 18.251 20.8412 18.251 20.5512C18.251 20.2622 18.485 20.0272 18.775 20.0272" fill="black"/>
<path fill-rule="evenodd" clip-rule="evenodd" d="M18.775 20.0272C19.065 20.0272 19.3 20.2622 19.3 20.5512C19.3 20.8412 19.065 21.0762 18.775 21.0762C18.485 21.0762 18.251 20.8412 18.251 20.5512C18.251 20.2622 18.485 20.0272 18.775 20.0272Z" stroke="black" stroke-width="1.5" stroke-linecap="square"/>
<path d="M8.734 7.05304H21.5L20.231 16.688H6.744L5.467 3.99304H3" stroke="black" stroke-width="1.5" stroke-linecap="square"/>
</svg>