<svg width="25" height="25" viewBox="0 0 25 25" fill="none" xmlns="http://www.w3.org/2000/svg">
<path opacity="0.4" fill-rule="evenodd" clip-rule="evenodd" d="M19.2141 6.38454C20.5341 6.98454 21.3641 8.23454 21.5641 9.90454C21.6441 10.5345 21.6241 11.2045 21.5341 11.8745C21.2541 13.8845 20.2841 15.8945 18.9941 16.9045C18.0141 17.6645 16.7641 18.0345 15.4941 18.2045C14.7241 18.3145 13.9441 18.3445 13.2141 18.3445C12.9541 18.3445 12.6941 18.3445 12.4441 18.3345C10.6041 18.2845 8.26409 18.0745 6.57409 16.8745C4.30446 15.2648 4.564 11.8457 4.79397 8.81605L4.79409 8.81454C4.79704 8.7765 4.8 8.73852 4.80295 8.70061C4.87985 7.71229 4.95298 6.77241 4.92409 5.93454C4.96409 4.68454 3.66409 4.43454 3.51409 4.41454C3.11409 4.34454 2.83409 3.96454 2.89409 3.55454C2.96409 3.15454 3.34409 2.88454 3.74409 2.93454C4.68409 3.07454 6.43409 3.87454 6.42409 5.87454C6.42409 5.92482 6.42496 5.97505 6.42619 6.02526C6.43099 6.22106 6.59745 6.37731 6.79312 6.36865C8.71968 6.28062 10.6371 6.19301 12.5641 6.12454C13.6441 6.08454 14.7141 6.05454 15.7941 6.03454C15.8841 6.03454 15.9716 6.03204 16.0591 6.02954C16.1466 6.02704 16.2341 6.02454 16.3241 6.02454L16.3608 6.02333C17.2614 5.99355 18.267 5.96031 19.2141 6.38454Z" fill="black"/>
<path d="M7.39778 19.5516C6.68378 19.5516 6.10278 20.1316 6.10278 20.8456C6.10278 21.5596 6.68378 22.1406 7.39778 22.1406C8.11178 22.1406 8.69178 21.5596 8.69178 20.8456C8.69178 20.1316 8.11178 19.5516 7.39778 19.5516Z" fill="black"/>
<path d="M17.7288 19.5516C17.0148 19.5516 16.4348 20.1316 16.4348 20.8456C16.4348 21.5596 17.0148 22.1406 17.7288 22.1406C18.4428 22.1406 19.0238 21.5596 19.0238 20.8456C19.0238 20.1316 18.4428 19.5516 17.7288 19.5516Z" fill="black"/>
<path d="M13.134 11.4247H15.904C16.324 11.4247 16.654 11.0847 16.654 10.6747C16.654 10.2647 16.324 9.92468 15.904 9.92468H13.134C12.724 9.92468 12.384 10.2647 12.384 10.6747C12.384 11.0847 12.724 11.4247 13.134 11.4247Z" fill="black"/>
</svg>