<svg width="24" height="24" viewBox="0 0 24 24" fill="none" xmlns="http://www.w3.org/2000/svg">
<path d="M9 7.09891C9 7.09891 20.0371 7.10391 20.1011 7.11291C20.8331 7.21891 21.3421 7.89891 21.2361 8.63191L20.2871 15.1899C20.1601 16.0779 19.3991 16.7379 18.5021 16.7359H12.5" stroke="black" stroke-width="1.5" stroke-linecap="round" stroke-linejoin="round"/>
<path d="M2.75 3.24991L4.83 3.60991L5.793 15.0829C5.87 16.0199 6.653 16.7389 7.593 16.7359H8.77263" stroke="black" stroke-width="1.5" stroke-linecap="round" stroke-linejoin="round"/>
<path d="M14.125 10.7948H16.898" stroke="black" stroke-width="1.5" stroke-linecap="round" stroke-linejoin="round"/>
<path fill-rule="evenodd" clip-rule="evenodd" d="M7.15435 20.2025C7.45535 20.2025 7.69835 20.4465 7.69835 20.7465C7.69835 21.0475 7.45535 21.2915 7.15435 21.2915C6.85335 21.2915 6.61035 21.0475 6.61035 20.7465C6.61035 20.4465 6.85335 20.2025 7.15435 20.2025Z" fill="black" stroke="black" stroke-width="1.5" stroke-linecap="round" stroke-linejoin="round"/>
<path fill-rule="evenodd" clip-rule="evenodd" d="M18.4346 20.2025C18.7356 20.2025 18.9796 20.4465 18.9796 20.7465C18.9796 21.0475 18.7356 21.2915 18.4346 21.2915C18.1336 21.2915 17.8906 21.0475 17.8906 20.7465C17.8906 20.4465 18.1336 20.2025 18.4346 20.2025Z" fill="black" stroke="black" stroke-width="1.5" stroke-linecap="round" stroke-linejoin="round"/>
</svg>