<svg width="24" height="24" viewBox="0 0 24 24" fill="none" xmlns="http://www.w3.org/2000/svg">
<path d="M5.52377 7.00012C9.41427 5.74398 13.9724 5.45585 16 5.50012C18.0276 5.5444 18.8831 6.26642 19.5 7.50012C20.5 9.50012 20.289 14.4882 18.5 16.0872C16.712 17.6862 9.33015 17.8382 6.87015 16.0872C4.27115 14.2362 5.629 9.19212 5.544 5.74312C5.595 3.81312 3.5 3.50012 3.5 3.50012" stroke="black" stroke-width="1.5" stroke-linecap="round" stroke-linejoin="round"/>
<path d="M13 10.5001H15.773" stroke="black" stroke-width="1.5" stroke-linecap="round" stroke-linejoin="round"/>
<path fill-rule="evenodd" clip-rule="evenodd" d="M7.26399 20.1276C7.56399 20.1276 7.80799 20.3716 7.80799 20.6716C7.80799 20.9726 7.56399 21.2166 7.26399 21.2166C6.96299 21.2166 6.71899 20.9726 6.71899 20.6716C6.71899 20.3716 6.96299 20.1276 7.26399 20.1276Z" fill="black" stroke="black" stroke-width="1.5" stroke-linecap="round" stroke-linejoin="round"/>
<path fill-rule="evenodd" clip-rule="evenodd" d="M17.5955 20.1276C17.8965 20.1276 18.1405 20.3716 18.1405 20.6716C18.1405 20.9726 17.8965 21.2166 17.5955 21.2166C17.2955 21.2166 17.0515 20.9726 17.0515 20.6716C17.0515 20.3716 17.2955 20.1276 17.5955 20.1276Z" fill="black" stroke="black" stroke-width="1.5" stroke-linecap="round" stroke-linejoin="round"/>
</svg>