<svg width="25" height="25" viewBox="0 0 25 25" fill="none" xmlns="http://www.w3.org/2000/svg">
<path fill-rule="evenodd" clip-rule="evenodd" d="M19.2141 6.38463C20.5341 6.98463 21.3641 8.23463 21.5641 9.90463C21.6441 10.5346 21.6241 11.2046 21.5341 11.8746C21.2541 13.8846 20.2841 15.8946 18.9941 16.9046C18.0141 17.6646 16.7641 18.0346 15.4941 18.2046C14.7241 18.3146 13.9441 18.3446 13.2141 18.3446C12.9541 18.3446 12.6941 18.3446 12.4441 18.3346C10.6041 18.2846 8.26409 18.0746 6.57409 16.8746C4.30446 15.2649 4.564 11.8458 4.79397 8.81614L4.79409 8.81463C4.79704 8.77659 4.8 8.73861 4.80295 8.7007C4.87985 7.71239 4.95298 6.7725 4.92409 5.93463C4.96409 4.68463 3.66409 4.43463 3.51409 4.41463C3.11409 4.34463 2.83409 3.96463 2.89409 3.55463C2.96409 3.15463 3.34409 2.88463 3.74409 2.93463C4.68409 3.07463 6.43409 3.87463 6.42409 5.87463C6.42409 5.92491 6.42496 5.97514 6.42619 6.02535C6.43099 6.22115 6.59745 6.3774 6.79312 6.36874C8.71968 6.28071 10.6371 6.19311 12.5641 6.12463C13.6441 6.08463 14.7141 6.05463 15.7941 6.03463C15.8841 6.03463 15.9716 6.03213 16.0591 6.02963C16.1466 6.02713 16.2341 6.02463 16.3241 6.02463L16.3608 6.02342C17.2614 5.99365 18.267 5.9604 19.2141 6.38463ZM13.1341 11.4246H15.9041C16.3241 11.4246 16.6541 11.0846 16.6541 10.6746C16.6541 10.2646 16.3241 9.92463 15.9041 9.92463H13.1341C12.7241 9.92463 12.3841 10.2646 12.3841 10.6746C12.3841 11.0846 12.7241 11.4246 13.1341 11.4246Z" fill="black"/>
<path d="M7.39778 19.5517C6.68378 19.5517 6.10278 20.1317 6.10278 20.8457C6.10278 21.5597 6.68378 22.1407 7.39778 22.1407C8.11178 22.1407 8.69178 21.5597 8.69178 20.8457C8.69178 20.1317 8.11178 19.5517 7.39778 19.5517Z" fill="black"/>
<path d="M17.7288 19.5517C17.0148 19.5517 16.4348 20.1317 16.4348 20.8457C16.4348 21.5597 17.0148 22.1407 17.7288 22.1407C18.4428 22.1407 19.0238 21.5597 19.0238 20.8457C19.0238 20.1317 18.4428 19.5517 17.7288 19.5517Z" fill="black"/>
</svg>