<?xml version="1.0" encoding="UTF-8"?>
<svg width="24px" height="24px" viewBox="0 0 24 24" version="1.1" xmlns="http://www.w3.org/2000/svg" xmlns:xlink="http://www.w3.org/1999/xlink">
    <title>Iconly/Light-Outline/Buy</title>
    <g id="Iconly/Light-Outline/Buy" stroke="none" stroke-width="1" fill="none" fill-rule="evenodd">
        <g id="Buy" transform="translate(2.000000, 3.000000)" fill="#000000">
            <path d="M5.5435,16.9518 C6.2575,16.9518 6.8385,17.5318 6.8385,18.2458 C6.8385,18.9598 6.2575,19.5408 5.5435,19.5408 C4.8295,19.5408 4.2495,18.9598 4.2495,18.2458 C4.2495,17.5318 4.8295,16.9518 5.5435,16.9518 Z M16.8238,16.9518 C17.5388,16.9518 18.1198,17.5318 18.1198,18.2458 C18.1198,18.9598 17.5388,19.5408 16.8238,19.5408 C16.1098,19.5408 15.5298,18.9598 15.5298,18.2458 C15.5298,17.5318 16.1098,16.9518 16.8238,16.9518 Z M1.2677,0.0094 L3.3477,0.3694 C3.6827,0.4284 3.9377,0.7064 3.9667,1.0464 L4.2017,3.8474 L5.07555023,3.8477763 C5.21814679,3.84783924 5.35923151,3.84790228 5.49882051,3.84796543 L7.10312478,3.84872845 C7.23100575,3.84879247 7.35745543,3.8488566 7.48248993,3.84892083 L9.25388314,3.84989251 C9.36516865,3.84995783 9.47511953,3.85002326 9.58375189,3.8500888 L10.8250826,3.85088047 C10.9234246,3.85094687 11.0205125,3.85101339 11.1163625,3.85108001 L12.2081706,3.8518847 C12.2943746,3.85195219 12.3794051,3.85201979 12.4632781,3.8520875 L13.4152297,3.85290521 C13.4901012,3.85297378 13.5638797,3.85304247 13.6365813,3.85311126 L14.2622556,3.85373333 C14.328641,3.85380278 14.3939979,3.85387233 14.4583423,3.85394199 L15.1829102,3.85478314 C15.239413,3.85485367 15.2949678,3.85492431 15.3495908,3.85499505 L15.9613667,3.85584922 C16.0087924,3.85592083 16.0553506,3.85599256 16.1010575,3.85606439 L16.4898686,3.8567138 C16.5306126,3.85678628 16.5705535,3.85685888 16.6097075,3.85693158 L17.0428161,3.85780918 C17.0759328,3.85788275 17.108327,3.85795642 17.1400149,3.85803021 L17.4065696,3.8586972 C17.4341644,3.85877164 17.4611013,3.85884618 17.4873962,3.85892083 L17.7731551,3.85982187 C17.7945726,3.8598974 17.8154126,3.85997303 17.8356912,3.86004876 L18.0034778,3.86073333 C18.0205333,3.86080972 18.0370759,3.86088622 18.0531215,3.86096283 L18.2228483,3.8618873 C18.2351764,3.86196478 18.247072,3.86204236 18.2585513,3.86212005 L18.3510578,3.8628222 C18.3601839,3.86290054 18.368942,3.86297899 18.3773481,3.86305755 L18.4439363,3.86376751 C18.4503759,3.86384672 18.4565119,3.86392604 18.4623604,3.86400547 L18.5076699,3.86472324 C18.5119385,3.86480332 18.515968,3.86488351 18.5197744,3.8649638 L18.5484449,3.86568939 C18.5510581,3.86577033 18.5534965,3.86585139 18.5557763,3.86593255 L18.5765523,3.86691172 C18.5778211,3.86699375 18.5789956,3.86707589 18.5800922,3.86715814 C18.589835,3.8680671 18.5912625,3.86823333 18.5927,3.8684 C19.1497,3.9494 19.6397,4.2404 19.9737,4.6884 C20.3077,5.1354 20.4477,5.6864 20.3677,6.2384 L19.4187,12.7964 C19.2397,14.0444 18.1557,14.9854 16.8957,14.9854 L5.9747,14.9854 C4.6577,14.9854 3.5427,13.9574 3.4357,12.6424 L2.5197,1.7484 L1.0127,1.4884 C0.6037,1.4164 0.3307,1.0294 0.4007,0.6204 C0.4727,0.2114 0.8677,-0.0546 1.2677,0.0094 Z M4.87493244,5.34774126 L4.3277,5.3474 L4.3277,5.3474 L4.9307,12.5194 C4.9747,13.0714 5.4257,13.4854 5.9767,13.4854 L16.8937,13.4854 C17.4147,13.4854 17.8597,13.0974 17.9337,12.5824 L18.8837,6.0234 C18.9057,5.8674 18.8667,5.7114 18.7717,5.5854 C18.6777,5.4584 18.5397,5.3764 18.3837,5.3544 C18.3764931,5.35467586 18.359222,5.35492794 18.3323772,5.35515743 L18.2236122,5.35577931 C18.2008613,5.35587206 18.1758397,5.35595945 18.1486085,5.35604165 L17.5820944,5.35690297 C17.5343012,5.35693686 17.4846052,5.35696629 17.4330675,5.35699141 L16.1010913,5.35693627 C16.0267755,5.35690832 15.9510474,5.35687711 15.8739681,5.35684278 L14.3538668,5.35591977 C14.2627816,5.35585333 14.1707133,5.35578466 14.077723,5.35571391 L13.217575,5.355025 C13.1196052,5.3549431 13.0208974,5.35485957 12.9215129,5.35477455 L12.010439,5.35397328 C11.9075465,5.35388068 11.8041613,5.35378704 11.7003447,5.35369251 L11.0727589,5.35311581 C10.967462,5.35301831 10.8618563,5.35292021 10.7560032,5.35282167 L9.7982992,5.35192675 C9.69151317,5.35182687 9.58466363,5.35172699 9.47781189,5.35162726 L8.83716556,5.35103184 C8.73055028,5.35093329 8.62405543,5.3508352 8.51774231,5.35073769 L7.88253505,5.350161 C7.77719416,5.35006647 7.67215763,5.34997283 7.56748679,5.34988023 L6.63697812,5.34907895 C6.53505319,5.34899394 6.43367789,5.3489104 6.33291352,5.34882851 L5.15699014,5.34793374 C5.06209428,5.3478673 4.96805461,5.34780309 4.87493244,5.34774126 Z M15.2876,7.5437 C15.7016,7.5437 16.0376,7.8797 16.0376,8.2937 C16.0376,8.7077 15.7016,9.0437 15.2876,9.0437 L12.5156,9.0437 C12.1006,9.0437 11.7656,8.7077 11.7656,8.2937 C11.7656,7.8797 12.1006,7.5437 12.5156,7.5437 L15.2876,7.5437 Z" id="Combined-Shape"></path>
        </g>
    </g>
</svg>