<svg width="24" height="24" viewBox="0 0 24 24" fill="none" xmlns="http://www.w3.org/2000/svg">
<path fill-rule="evenodd" clip-rule="evenodd" d="M15.2809 11.3335L14.0009 12.6235C13.8509 12.7635 13.6609 12.8335 13.4709 12.8335C13.2709 12.8335 13.0809 12.7635 12.9409 12.6235C12.6409 12.3235 12.6409 11.8535 12.9409 11.5535L14.2209 10.2735C14.5209 9.97348 14.9909 9.97348 15.2809 10.2735C15.5809 10.5635 15.5809 11.0435 15.2809 11.3335ZM18.5809 8.03348L18.6309 7.98348C19.5309 7.07348 19.5209 5.57348 18.6009 4.64348L18.0209 4.07348C17.9009 3.95348 17.9009 3.76348 18.0109 3.65348C18.3009 3.36348 18.3009 2.88348 18.0109 2.59348C17.7209 2.30348 17.2409 2.30348 16.9509 2.59348C16.2509 3.29348 16.2609 4.42348 16.9609 5.13348L17.5409 5.70348C17.8809 6.05348 17.8909 6.60348 17.5609 6.93348L17.5209 6.97348C14.9709 4.93348 11.3409 4.98348 9.10085 7.22348L5.67085 10.6635C3.26085 13.0635 3.38085 17.0935 5.92085 19.6335C7.15085 20.8635 8.76085 21.5635 10.4509 21.6235H10.6509C12.2709 21.6235 13.7709 21.0135 14.9009 19.8835L18.3309 16.4435C20.5709 14.2135 20.6209 10.5835 18.5809 8.03348Z" fill="black"/>
</svg>