<svg width="24" height="24" viewBox="0 0 24 24" fill="none" xmlns="http://www.w3.org/2000/svg">
<path opacity="0.4" fill-rule="evenodd" clip-rule="evenodd" d="M18.5809 8.03348L18.6309 7.98348C19.5309 7.07348 19.5209 5.57348 18.6009 4.64348L18.0209 4.07348C17.9009 3.95348 17.9009 3.76348 18.0109 3.65348C18.3009 3.36348 18.3009 2.88348 18.0109 2.59348C17.7209 2.30348 17.2409 2.30348 16.9509 2.59348C16.2509 3.29348 16.2609 4.42348 16.9609 5.13348L17.5409 5.70348C17.8809 6.05348 17.8909 6.60348 17.5609 6.93348L17.5209 6.97348C14.9709 4.93348 11.3409 4.98348 9.10091 7.22348L5.67091 10.6635C3.26091 13.0635 3.38091 17.0935 5.92091 19.6335C7.15091 20.8635 8.76091 21.5635 10.4509 21.6235H10.6509C12.2709 21.6235 13.7709 21.0135 14.9009 19.8835L18.3309 16.4435C20.5709 14.2135 20.6209 10.5835 18.5809 8.03348Z" fill="black"/>
<path d="M14.0009 12.6233L15.2809 11.3333C15.5809 11.0433 15.5809 10.5633 15.2809 10.2733C14.9909 9.97334 14.5209 9.97334 14.2209 10.2733L12.9409 11.5533C12.6409 11.8533 12.6409 12.3233 12.9409 12.6233C13.0809 12.7633 13.2709 12.8333 13.4709 12.8333C13.6609 12.8333 13.8509 12.7633 14.0009 12.6233Z" fill="black"/>
</svg>