<svg width="24" height="24" viewBox="0 0 24 24" fill="none" xmlns="http://www.w3.org/2000/svg">
<path opacity="0.4" fill-rule="evenodd" clip-rule="evenodd" d="M21.4987 17.3C21.4987 17.23 21.3487 9.94997 18.1887 8.29997C18.1887 8.29997 18.1787 8.28997 18.1687 8.28997L18.0587 8.23997C17.3887 7.92997 15.6087 7.10997 13.5887 8.36997C12.1587 9.25997 11.7687 9.17997 10.4087 8.35997C8.32869 7.12997 6.66869 7.89997 5.96869 8.22997L5.80869 8.29997C2.66869 9.93997 2.49869 17.22 2.49869 17.27C2.48869 18.01 2.42869 20.25 4.34869 21.03C4.84869 21.22 5.34869 21.31 5.82869 21.31C6.54869 21.31 7.21869 21.1 7.76869 20.69C8.12869 20.43 8.32869 20.15 8.50869 19.91C8.73869 19.59 8.95869 19.29 9.56869 18.94C10.6087 18.34 13.5187 18.43 14.4387 18.94C14.9587 19.23 15.1787 19.53 15.4487 19.87C15.6587 20.14 15.8787 20.42 16.2387 20.69C17.1487 21.37 18.3987 21.5 19.6687 21.03C21.5687 20.25 21.5187 18.01 21.4987 17.3Z" fill="black"/>
<path fill-rule="evenodd" clip-rule="evenodd" d="M9.1885 5.29141H10.0885C10.6485 5.29141 11.1385 5.73541 11.1385 6.24141V6.94141C11.1385 7.35541 11.4745 7.69141 11.8885 7.69141C12.3025 7.69141 12.6385 7.35541 12.6385 6.94141V6.24141C12.6385 4.91341 11.4705 3.79141 10.0885 3.79141H9.1885C9.0015 3.79141 8.8385 3.62741 8.8385 3.44141C8.8385 3.02741 8.5025 2.69141 8.0885 2.69141C7.6745 2.69141 7.3385 3.02741 7.3385 3.44141C7.3385 4.46141 8.1685 5.29141 9.1885 5.29141Z" fill="black"/>
<path fill-rule="evenodd" clip-rule="evenodd" d="M17.3587 14.4305C16.9487 14.4305 16.6087 14.1005 16.6087 13.6905C16.6087 13.2805 16.9487 12.9505 17.3587 12.9505C17.7687 12.9505 18.0987 13.2805 18.0987 13.6905C18.0987 14.1005 17.7687 14.4305 17.3587 14.4305ZM15.8987 15.8905C15.4887 15.8905 15.1487 15.5605 15.1487 15.1505C15.1487 14.7405 15.4887 14.4105 15.8987 14.4105C16.3087 14.4105 16.6387 14.7405 16.6387 15.1505C16.6387 15.5605 16.3087 15.8905 15.8987 15.8905ZM14.4387 14.4305C14.0287 14.4305 13.6887 14.1005 13.6887 13.6905C13.6887 13.2805 14.0287 12.9505 14.4387 12.9505C14.8487 12.9505 15.1787 13.2805 15.1787 13.6905C15.1787 14.1005 14.8487 14.4305 14.4387 14.4305ZM15.8987 11.4805C16.3087 11.4805 16.6387 11.8205 16.6387 12.2305C16.6387 12.6405 16.3087 12.9705 15.8987 12.9705C15.4887 12.9705 15.1487 12.6405 15.1487 12.2305C15.1487 11.8205 15.4887 11.4805 15.8987 11.4805ZM9.28867 14.4905H8.63867V15.1405C8.63867 15.5505 8.29867 15.8905 7.88867 15.8905C7.47867 15.8905 7.13867 15.5505 7.13867 15.1405V14.4905H6.38867C5.97867 14.4905 5.63867 14.1505 5.63867 13.7405C5.63867 13.3205 5.97867 12.9905 6.38867 12.9905H7.13867V12.2405C7.13867 11.8205 7.47867 11.4905 7.88867 11.4905C8.29867 11.4905 8.63867 11.8205 8.63867 12.2405V12.9905H9.28867C9.69867 12.9905 10.0387 13.3205 10.0387 13.7405C10.0387 14.1505 9.69867 14.4905 9.28867 14.4905Z" fill="black"/>
</svg>