<svg width="24" height="24" viewBox="0 0 24 24" fill="none" xmlns="http://www.w3.org/2000/svg">
<path fill-rule="evenodd" clip-rule="evenodd" d="M17.12 11.7196C16.642 11.7196 16.254 11.3306 16.254 10.8536C16.254 10.3756 16.642 9.98761 17.12 9.98761C17.598 9.98761 17.986 10.3756 17.986 10.8536C17.986 11.3306 17.598 11.7196 17.12 11.7196ZM15.411 14.5996C14.933 14.5996 14.545 14.2106 14.545 13.7326C14.545 13.2556 14.933 12.8666 15.411 12.8666C15.889 12.8666 16.277 13.2556 16.277 13.7326C16.277 14.2106 15.889 14.5996 15.411 14.5996ZM14.823 18.1586H9.17804C8.76404 18.1586 8.42804 17.8226 8.42804 17.4086C8.42804 16.9946 8.76404 16.6586 9.17804 16.6586H14.823C15.237 16.6586 15.573 16.9946 15.573 17.4086C15.573 17.8226 15.237 18.1586 14.823 18.1586ZM7.71304 13.7326C7.71304 13.2556 8.10104 12.8666 8.57904 12.8666C9.05704 12.8666 9.44504 13.2556 9.44504 13.7326C9.44504 14.2106 9.05704 14.5996 8.57904 14.5996C8.10104 14.5996 7.71304 14.2106 7.71304 13.7326ZM6.87004 11.7196C6.39204 11.7196 6.00404 11.3306 6.00404 10.8536C6.00404 10.3756 6.39204 9.98761 6.87004 9.98761C7.34804 9.98761 7.73604 10.3756 7.73604 10.8536C7.73604 11.3306 7.34804 11.7196 6.87004 11.7196ZM10.288 9.98761C10.766 9.98761 11.154 10.3756 11.154 10.8536C11.154 11.3306 10.766 11.7196 10.288 11.7196C9.81004 11.7196 9.42204 11.3306 9.42204 10.8536C9.42204 10.3756 9.81004 9.98761 10.288 9.98761ZM11.995 12.8666C12.473 12.8666 12.861 13.2556 12.861 13.7326C12.861 14.2106 12.473 14.5996 11.995 14.5996C11.517 14.5996 11.129 14.2106 11.129 13.7326C11.129 13.2556 11.517 12.8666 11.995 12.8666ZM13.702 9.98761C14.18 9.98761 14.568 10.3756 14.568 10.8536C14.568 11.3306 14.18 11.7196 13.702 11.7196C13.224 11.7196 12.836 11.3306 12.836 10.8536C12.836 10.3756 13.224 9.98761 13.702 9.98761ZM16.229 6.40961H12.894V6.27061C12.873 4.80361 11.668 3.61761 10.21 3.61761H9.20204C8.92804 3.61761 8.70304 3.39661 8.70104 3.12261C8.69704 2.70861 8.34904 2.36961 7.94404 2.37961C7.53004 2.38361 7.19704 2.72261 7.20104 3.13661C7.21204 4.23361 8.10704 5.11761 9.19404 5.11761H10.195C10.802 5.10161 11.385 5.63961 11.394 6.28161V6.40961H7.77104C4.47104 6.40961 2.50004 8.34361 2.50004 11.5826V16.4556C2.49504 18.0186 2.96404 19.3186 3.85604 20.2136C4.77404 21.1346 6.12404 21.6206 7.76204 21.6206H16.229C19.529 21.6206 21.5 19.6906 21.5 16.4576V11.6586C21.5 8.37161 19.529 6.40961 16.229 6.40961Z" fill="black"/>
</svg>