<svg width="24" height="24" viewBox="0 0 24 24" fill="none" xmlns="http://www.w3.org/2000/svg">
<path opacity="0.4" d="M7.49947 6.41412C4.36319 6.51798 2.50004 8.43353 2.50004 11.5827V16.4557C2.49504 18.0187 2.96404 19.3187 3.85604 20.2137C4.77404 21.1347 6.12404 21.6207 7.76204 21.6207H16.229C19.529 21.6207 21.5 19.6907 21.5 16.4577V11.6587C21.5 8.37167 19.529 6.40967 16.229 6.40967H15.6967V6.41412H7.49947Z" fill="black"/>
<path d="M12.8941 6.40961V6.27061C12.8731 4.80361 11.6681 3.61761 10.2101 3.61761H9.20209C8.92809 3.61761 8.70309 3.39661 8.70109 3.12261C8.69709 2.70861 8.34908 2.36961 7.94409 2.37961C7.53008 2.38361 7.19709 2.72261 7.20109 3.13661C7.21209 4.23361 8.10708 5.11761 9.19409 5.11761H10.1951C10.8021 5.10161 11.3851 5.63961 11.3941 6.28161V6.40961H12.8941Z" fill="black"/>
<path d="M6.00403 10.8538C6.00403 11.3308 6.39203 11.7198 6.87003 11.7198C7.34803 11.7198 7.73603 11.3308 7.73603 10.8538C7.73603 10.3758 7.34803 9.98779 6.87003 9.98779C6.39203 9.98779 6.00403 10.3758 6.00403 10.8538Z" fill="black"/>
<path d="M17.12 11.7198C16.642 11.7198 16.254 11.3308 16.254 10.8538C16.254 10.3758 16.642 9.98779 17.12 9.98779C17.598 9.98779 17.986 10.3758 17.986 10.8538C17.986 11.3308 17.598 11.7198 17.12 11.7198Z" fill="black"/>
<path d="M15.411 14.5998C14.933 14.5998 14.545 14.2108 14.545 13.7328C14.545 13.2558 14.933 12.8668 15.411 12.8668C15.889 12.8668 16.277 13.2558 16.277 13.7328C16.277 14.2108 15.889 14.5998 15.411 14.5998Z" fill="black"/>
<path d="M9.17803 18.1588H14.823C15.237 18.1588 15.573 17.8228 15.573 17.4088C15.573 16.9948 15.237 16.6588 14.823 16.6588H9.17803C8.76403 16.6588 8.42803 16.9948 8.42803 17.4088C8.42803 17.8228 8.76403 18.1588 9.17803 18.1588Z" fill="black"/>
<path d="M7.71303 13.7328C7.71303 13.2558 8.10103 12.8668 8.57903 12.8668C9.05703 12.8668 9.44503 13.2558 9.44503 13.7328C9.44503 14.2108 9.05703 14.5998 8.57903 14.5998C8.10103 14.5998 7.71303 14.2108 7.71303 13.7328Z" fill="black"/>
<path d="M10.288 9.98779C10.766 9.98779 11.154 10.3758 11.154 10.8538C11.154 11.3308 10.766 11.7198 10.288 11.7198C9.81003 11.7198 9.42203 11.3308 9.42203 10.8538C9.42203 10.3758 9.81003 9.98779 10.288 9.98779Z" fill="black"/>
<path d="M12.861 13.7328C12.861 13.2558 12.473 12.8668 11.995 12.8668C11.517 12.8668 11.129 13.2558 11.129 13.7328C11.129 14.2108 11.517 14.5998 11.995 14.5998C12.473 14.5998 12.861 14.2108 12.861 13.7328Z" fill="black"/>
<path d="M13.702 9.98779C14.18 9.98779 14.568 10.3758 14.568 10.8538C14.568 11.3308 14.18 11.7198 13.702 11.7198C13.224 11.7198 12.836 11.3308 12.836 10.8538C12.836 10.3758 13.224 9.98779 13.702 9.98779Z" fill="black"/>
</svg>