<svg width="24" height="24" viewBox="0 0 24 24" fill="none" xmlns="http://www.w3.org/2000/svg">
<path opacity="0.4" d="M12.1892 2.5C9.55033 2.5 7.33209 4.27307 6.64574 6.68979C6.63279 6.7354 6.59052 6.76647 6.54311 6.76647C4.53616 6.76647 2.90918 8.39324 2.90918 10.3994C2.90918 12.4076 4.53616 14.0334 6.54311 14.0334C7.4104 14.0334 8.19727 13.7234 8.81571 13.2192C8.92335 13.1314 9.07547 13.119 9.19398 13.1914C10.0663 13.7242 11.0911 14.0334 12.1892 14.0334C13.2001 14.0334 14.1481 13.7712 14.9732 13.3143C15.0844 13.2528 15.2216 13.2632 15.3242 13.3381C15.9218 13.7739 16.6579 14.0334 17.4559 14.0334C19.4629 14.0334 21.0899 12.4076 21.0899 10.3994C21.0899 8.56729 19.7329 7.05159 17.9689 6.80238C17.8433 6.78465 17.7375 6.69678 17.7004 6.57553C16.9775 4.21697 14.7859 2.5 12.1892 2.5Z" fill="black"/>
<path d="M15.5961 14.8464C15.6342 14.6294 15.8868 14.5248 16.0804 14.6299C16.6401 14.9339 17.2814 15.1077 17.9643 15.1077C18.277 15.1077 18.5812 15.0716 18.8731 15.0033C19.1077 14.9484 19.3416 15.153 19.2881 15.3878L18.4618 19.0147C18.1307 20.4683 16.8376 21.4994 15.3463 21.4994H14.785C14.5986 21.4994 14.4573 21.3311 14.4895 21.1475L15.5961 14.8464Z" fill="black"/>
<path d="M10.0686 15.219C10.0287 14.9899 10.2545 14.8021 10.478 14.8661C11.0271 15.0233 11.607 15.1077 12.2069 15.1077C12.6866 15.1077 13.1534 15.0536 13.6018 14.9517C13.8209 14.9018 14.0308 15.0873 13.992 15.3086L12.9483 21.2513C12.9231 21.3947 12.7985 21.4994 12.6529 21.4994H11.4146C11.2688 21.4994 11.1441 21.3945 11.1191 21.2509L10.0686 15.219Z" fill="black"/>
<path d="M4.71155 15.388C4.65804 15.1531 4.89194 14.9486 5.1265 15.0034C5.41819 15.0716 5.72224 15.1077 6.03472 15.1077C6.74658 15.1077 7.40888 14.9166 7.9809 14.5882C8.17512 14.4766 8.43486 14.5806 8.47329 14.8012L9.57859 21.1479C9.61055 21.3314 9.46931 21.4994 9.28304 21.4994H8.65328C7.16206 21.4994 5.8689 20.4683 5.53779 19.0147L4.71155 15.388Z" fill="black"/>
<path d="M14.2717 5.51097C14.6476 5.68496 14.8113 6.13074 14.6373 6.50664L13.9699 7.94858C13.7959 8.32447 13.3501 8.48814 12.9742 8.31415C12.5983 8.14015 12.4346 7.69437 12.6086 7.31848L13.2761 5.87654C13.4501 5.50064 13.8959 5.33697 14.2717 5.51097Z" fill="black"/>
<path d="M12.5723 10.0614C12.7437 10.4385 12.577 10.8831 12.1999 11.0545L12.1142 11.0935C11.7372 11.2649 11.2925 11.0981 11.1211 10.721C10.9497 10.344 11.1165 9.89931 11.4935 9.72791L11.5792 9.68899C11.9562 9.51759 12.4009 9.68433 12.5723 10.0614Z" fill="black"/>
<path d="M10.9053 6.41325C10.7445 6.0315 10.3048 5.85233 9.92302 6.01307C9.54127 6.17381 9.3621 6.61358 9.52284 6.99534L9.56954 7.10626C9.73028 7.48801 10.1701 7.66718 10.5518 7.50644C10.9336 7.3457 11.1127 6.90593 10.952 6.52417L10.9053 6.41325Z" fill="black"/>
<path d="M8.70364 8.93907C8.96409 9.26116 8.91414 9.73339 8.59206 9.99385L7.35639 10.9931C7.0343 11.2535 6.56207 11.2036 6.30161 10.8815C6.04116 10.5594 6.09111 10.0872 6.4132 9.82673L7.64887 8.82749C7.97095 8.56704 8.44319 8.61699 8.70364 8.93907Z" fill="black"/>
<path d="M15.6764 8.90844C15.2956 8.74534 14.8548 8.92177 14.6916 9.30252C14.5285 9.68327 14.705 10.1241 15.0857 10.2873L16.5461 10.9129C16.9269 11.076 17.3678 10.8995 17.5309 10.5188C17.694 10.138 17.5176 9.69717 17.1368 9.53406L15.6764 8.90844Z" fill="black"/>
</svg>