<svg width="24" height="24" viewBox="0 0 24 24" fill="none" xmlns="http://www.w3.org/2000/svg">
<path d="M10.4313 21L9.68262 16.7009" stroke="black" stroke-width="1.5" stroke-linecap="round" stroke-linejoin="round"/>
<path d="M15.0523 12.8608L13.623 20.9997" stroke="black" stroke-width="1.5" stroke-linecap="round" stroke-linejoin="round"/>
<path d="M19.351 12.8608L17.9742 18.9039C17.695 20.1299 16.6043 20.9997 15.3462 20.9997H8.65318C7.39513 20.9997 6.30443 20.1299 6.02519 18.9039L4.64844 12.8608" stroke="black" stroke-width="1.5" stroke-linecap="round" stroke-linejoin="round"/>
<path d="M12.1892 3C9.60602 3 7.46257 4.86129 7.01305 7.31414C6.85835 7.29079 6.70365 7.26647 6.54311 7.26647C4.8122 7.26647 3.40918 8.66949 3.40918 10.3994C3.40918 12.1313 4.8122 13.5334 6.54311 13.5334C7.50732 13.5334 8.35964 13.0877 8.93467 12.4028C9.83077 13.1091 10.9594 13.5334 12.1892 13.5334C13.314 13.5334 14.3531 13.1782 15.2093 12.5779C15.7785 13.1656 16.5734 13.5334 17.4559 13.5334C19.1868 13.5334 20.5899 12.1313 20.5899 10.3994C20.5899 8.66949 19.1868 7.26647 17.4559 7.26647C17.4228 7.26647 17.3927 7.27522 17.3596 7.2762C17.1194 6.01604 16.4309 4.91467 15.4663 4.14536" stroke="black" stroke-width="1.5" stroke-linecap="round" stroke-linejoin="round"/>
<path d="M13.9575 6.19165L13.29 7.63359" stroke="black" stroke-width="1.5" stroke-linecap="round" stroke-linejoin="round"/>
<path d="M11.8893 10.3718L11.8037 10.4107" stroke="black" stroke-width="1.5" stroke-linecap="round" stroke-linejoin="round"/>
<path d="M10.2606 6.81526L10.2139 6.70435" stroke="black" stroke-width="1.5" stroke-linecap="round" stroke-linejoin="round"/>
<path d="M6.88477 10.4099L8.12044 9.41064" stroke="black" stroke-width="1.5" stroke-linecap="round" stroke-linejoin="round"/>
<path d="M16.8413 10.2233L15.3809 9.59766" stroke="black" stroke-width="1.5" stroke-linecap="round" stroke-linejoin="round"/>
</svg>