<svg width="25" height="24" viewBox="0 0 25 24" fill="none" xmlns="http://www.w3.org/2000/svg">
<path d="M8.84868 21C6.05041 21 4.31073 19.0258 4.31073 16.2315V7.76854C4.31073 4.97416 6.05041 3 8.8477 3H16.2189C19.0075 3 20.7559 4.97416 20.7559 7.76854V16.2315C20.7559 19.0258 19.0153 21 16.2189 21H12.5338" stroke="black" stroke-width="1.5" stroke-linecap="round" stroke-linejoin="round"/>
<path d="M8.17622 13.5313V13.5413M8.17622 17.2813V17.2913M12.4262 13.5313V13.5413M12.4262 17.2813V17.2913M16.6762 13.5313V13.5413M16.6762 17.2813V17.2913M8.20165 13.4297C8.22636 13.4298 8.25048 13.4372 8.27097 13.451C8.29146 13.4648 8.30741 13.4843 8.3168 13.5072C8.32618 13.53 8.32859 13.5552 8.32371 13.5794C8.31884 13.6036 8.30689 13.6258 8.28939 13.6432C8.27189 13.6607 8.24962 13.6725 8.22538 13.6773C8.20115 13.6821 8.17604 13.6796 8.15323 13.6701C8.13042 13.6607 8.11092 13.6446 8.09721 13.6241C8.08349 13.6035 8.07617 13.5794 8.07617 13.5547C8.07609 13.5382 8.07928 13.5219 8.08556 13.5066C8.09184 13.4914 8.10108 13.4776 8.11276 13.4659C8.12444 13.4543 8.13831 13.4451 8.15357 13.4389C8.16883 13.4327 8.18517 13.4295 8.20165 13.4297ZM8.20165 17.1797C8.22636 17.1798 8.25048 17.1872 8.27097 17.201C8.29146 17.2148 8.30741 17.2343 8.3168 17.2572C8.32618 17.28 8.32859 17.3052 8.32371 17.3294C8.31884 17.3536 8.30689 17.3758 8.28939 17.3932C8.27189 17.4107 8.24962 17.4225 8.22538 17.4273C8.20115 17.4321 8.17604 17.4296 8.15323 17.4201C8.13042 17.4107 8.11092 17.3946 8.09721 17.3741C8.08349 17.3535 8.07617 17.3294 8.07617 17.3047C8.07609 17.2882 8.07928 17.2719 8.08556 17.2566C8.09184 17.2414 8.10108 17.2276 8.11276 17.2159C8.12444 17.2043 8.13831 17.1951 8.15357 17.1889C8.16883 17.1827 8.18517 17.1795 8.20165 17.1797ZM12.4517 13.4297C12.4764 13.4298 12.5005 13.4372 12.521 13.451C12.5415 13.4648 12.5574 13.4843 12.5668 13.5072C12.5762 13.53 12.5786 13.5552 12.5737 13.5794C12.5688 13.6036 12.5569 13.6258 12.5394 13.6432C12.5219 13.6607 12.4996 13.6725 12.4754 13.6773C12.4512 13.6821 12.426 13.6796 12.4032 13.6701C12.3804 13.6607 12.3609 13.6446 12.3472 13.6241C12.3335 13.6035 12.3262 13.5794 12.3262 13.5547C12.3261 13.5382 12.3293 13.5219 12.3356 13.5066C12.3418 13.4914 12.3511 13.4776 12.3628 13.4659C12.3744 13.4543 12.3883 13.4451 12.4036 13.4389C12.4188 13.4327 12.4352 13.4295 12.4517 13.4297ZM12.4517 17.1797C12.4764 17.1798 12.5005 17.1872 12.521 17.201C12.5415 17.2148 12.5574 17.2343 12.5668 17.2572C12.5762 17.28 12.5786 17.3052 12.5737 17.3294C12.5688 17.3536 12.5569 17.3758 12.5394 17.3932C12.5219 17.4107 12.4996 17.4225 12.4754 17.4273C12.4512 17.4321 12.426 17.4296 12.4032 17.4201C12.3804 17.4107 12.3609 17.3946 12.3472 17.3741C12.3335 17.3535 12.3262 17.3294 12.3262 17.3047C12.3261 17.2882 12.3293 17.2719 12.3356 17.2566C12.3418 17.2414 12.3511 17.2276 12.3628 17.2159C12.3744 17.2043 12.3883 17.1951 12.4036 17.1889C12.4188 17.1827 12.4352 17.1795 12.4517 17.1797ZM16.7017 13.4297C16.7264 13.4298 16.7505 13.4372 16.771 13.451C16.7915 13.4648 16.8074 13.4843 16.8168 13.5072C16.8262 13.53 16.8286 13.5552 16.8237 13.5794C16.8188 13.6036 16.8069 13.6258 16.7894 13.6432C16.7719 13.6607 16.7496 13.6725 16.7254 13.6773C16.7012 13.6821 16.676 13.6796 16.6532 13.6701C16.6304 13.6607 16.6109 13.6446 16.5972 13.6241C16.5835 13.6035 16.5762 13.5794 16.5762 13.5547C16.5761 13.5382 16.5793 13.5219 16.5856 13.5066C16.5918 13.4914 16.6011 13.4776 16.6128 13.4659C16.6244 13.4543 16.6383 13.4451 16.6536 13.4389C16.6688 13.4327 16.6852 13.4295 16.7017 13.4297ZM16.7017 17.1797C16.7264 17.1798 16.7505 17.1872 16.771 17.201C16.7915 17.2148 16.8074 17.2343 16.8168 17.2572C16.8262 17.28 16.8286 17.3052 16.8237 17.3294C16.8188 17.3536 16.8069 17.3758 16.7894 17.3932C16.7719 17.4107 16.7496 17.4225 16.7254 17.4273C16.7012 17.4321 16.676 17.4296 16.6532 17.4201C16.6304 17.4107 16.6109 17.3946 16.5972 17.3741C16.5835 17.3535 16.5762 17.3294 16.5762 17.3047C16.5761 17.2882 16.5793 17.2719 16.5856 17.2566C16.5918 17.2414 16.6011 17.2276 16.6128 17.2159C16.6244 17.2043 16.6383 17.1951 16.6536 17.1889C16.6688 17.1827 16.6852 17.1795 16.7017 17.1797Z" stroke="black" stroke-width="1.5" stroke-linecap="round" stroke-linejoin="round"/>
<path d="M15.7515 6.40039C16.7595 6.40039 17.3832 6.96277 17.3803 7.99509V8.31131C17.3803 9.34461 16.7566 9.90893 15.7486 9.90893H9.31722C8.31214 9.90893 7.68555 9.3339 7.68555 8.28504V7.99509C7.68555 6.96277 8.31214 6.40039 9.31722 6.40039H12.5344" stroke="black" stroke-width="1.5" stroke-linecap="round" stroke-linejoin="round"/>
</svg>