<svg width="25" height="24" viewBox="0 0 25 24" fill="none" xmlns="http://www.w3.org/2000/svg">
<path fill-rule="evenodd" clip-rule="evenodd" d="M4.50788 3.62413C5.4871 2.68924 6.85368 2.25 8.41842 2.25H16.6566C18.225 2.25 19.5924 2.68891 20.5701 3.62483C21.5528 4.56567 22.0445 5.91556 22.0399 7.53789V16.4543C22.0399 18.0766 21.5458 19.4279 20.5628 20.3704C19.5846 21.3082 18.2175 21.75 16.6478 21.75H8.41842C6.84916 21.75 5.48098 21.2989 4.50266 20.3466C3.52106 19.3912 3.02637 18.0232 3.02637 16.3803V7.53697C3.02637 5.91349 3.52331 4.56412 4.50788 3.62413ZM5.5437 4.70906C4.92164 5.30296 4.52637 6.22208 4.52637 7.53697V16.3803C4.52637 17.7216 4.92389 18.6634 5.54891 19.2718C6.17722 19.8833 7.13007 20.25 8.41842 20.25H16.6478C17.9445 20.25 18.8984 19.8881 19.5247 19.2877C20.1461 18.6919 20.5399 17.7703 20.5399 16.4543L20.5399 7.53474C20.5438 6.21928 20.152 5.30116 19.5328 4.70835C18.9082 4.11039 17.9545 3.75 16.6566 3.75H8.41842C7.12554 3.75 6.1711 4.11006 5.5437 4.70906ZM6.89973 7.66153C6.89973 7.24732 7.23552 6.91153 7.64973 6.91153H17.4164C17.8306 6.91153 18.1664 7.24732 18.1664 7.66153C18.1664 8.07574 17.8306 8.41153 17.4164 8.41153H7.64973C7.23552 8.41153 6.89973 8.07574 6.89973 7.66153Z" fill="black"/>
<path fill-rule="evenodd" clip-rule="evenodd" d="M8.20176 10.9922C8.69881 10.9922 9.10176 11.3951 9.10176 11.8922V12.0002C9.10176 12.4972 8.69881 12.9002 8.20176 12.9002C7.7047 12.9002 7.30176 12.4972 7.30176 12.0002V11.8922C7.30176 11.3951 7.7047 10.9922 8.20176 10.9922ZM12.5046 10.9922C13.0017 10.9922 13.4046 11.3951 13.4046 11.8922V12.0002C13.4046 12.4972 13.0017 12.9002 12.5046 12.9002C12.0075 12.9002 11.6046 12.4972 11.6046 12.0002V11.8922C11.6046 11.3951 12.0075 10.9922 12.5046 10.9922ZM16.8635 10.9922C17.3606 10.9922 17.7635 11.3951 17.7635 11.8922V12.0002C17.7635 12.4972 17.3606 12.9002 16.8635 12.9002C16.3664 12.9002 15.9635 12.4972 15.9635 12.0002V11.8922C15.9635 11.3951 16.3664 10.9922 16.8635 10.9922ZM8.20176 15.3316C8.69881 15.3316 9.10176 15.7346 9.10176 16.2316V16.3396C9.10176 16.8367 8.69881 17.2396 8.20176 17.2396C7.7047 17.2396 7.30176 16.8367 7.30176 16.3396V16.2316C7.30176 15.7346 7.7047 15.3316 8.20176 15.3316ZM12.5046 15.3316C13.0017 15.3316 13.4046 15.7346 13.4046 16.2316V16.3396C13.4046 16.8367 13.0017 17.2396 12.5046 17.2396C12.0075 17.2396 11.6046 16.8367 11.6046 16.3396V16.2316C11.6046 15.7346 12.0075 15.3316 12.5046 15.3316ZM16.8635 15.3316C17.3606 15.3316 17.7635 15.7346 17.7635 16.2316V16.3396C17.7635 16.8367 17.3606 17.2396 16.8635 17.2396C16.3664 17.2396 15.9635 16.8367 15.9635 16.3396V16.2316C15.9635 15.7346 16.3664 15.3316 16.8635 15.3316Z" fill="black"/>
</svg>