<svg width="25" height="24" viewBox="0 0 25 24" fill="none" xmlns="http://www.w3.org/2000/svg">
<path d="M15.5084 3V5.84877" stroke="black" stroke-width="1.5" stroke-linecap="round" stroke-linejoin="round"/>
<path d="M8.51528 3V5.84877" stroke="black" stroke-width="1.5" stroke-linecap="round" stroke-linejoin="round"/>
<path d="M19.7965 10.8791V8.38543C19.8043 5.78184 18.2242 4.36621 15.6751 4.36621H8.34596C5.80366 4.36621 4.2168 5.78184 4.2168 8.38543V16.2176C4.2168 18.8621 5.80366 20.3108 8.34596 20.3108H10.1945" stroke="black" stroke-width="1.5" stroke-linecap="round" stroke-linejoin="round"/>
<path fill-rule="evenodd" clip-rule="evenodd" d="M20.7917 17.0958C20.7917 19.2519 19.0434 21.0002 16.8873 21.0002C14.7313 21.0002 12.9829 19.2519 12.9829 17.0958C12.9829 14.9398 14.7313 13.1914 16.8873 13.1914C19.0434 13.1914 20.7917 14.9398 20.7917 17.0958Z" stroke="black" stroke-width="1.5" stroke-linecap="round" stroke-linejoin="round"/>
<path d="M18.0999 18.1095L16.8652 17.372V15.7852" stroke="black" stroke-width="1.5" stroke-linecap="round" stroke-linejoin="round"/>
<path d="M16.0931 9.63588H7.92236" stroke="black" stroke-width="1.5" stroke-linecap="round" stroke-linejoin="round"/>
</svg>