<svg width="25" height="25" viewBox="0 0 25 25" fill="none" xmlns="http://www.w3.org/2000/svg">
<path fill-rule="evenodd" clip-rule="evenodd" d="M5.30894 7.06047C4.08225 8.28705 3.49976 10.3392 3.49976 13.7756C3.49976 17.2121 4.08225 19.2642 5.30894 20.4908C6.53564 21.7174 8.58779 22.2996 12.0238 22.2996C15.4602 22.2996 17.5126 21.7174 18.7395 20.4907C19.9663 19.2642 20.5488 17.2121 20.5488 13.7756C20.5488 10.3392 19.9663 8.28707 18.7395 7.06049C17.5126 5.83388 15.4602 5.25162 12.0238 5.25162C8.58779 5.25162 6.53564 5.83387 5.30894 7.06047ZM4.24832 5.99976C5.91987 4.32836 8.50472 3.75162 12.0238 3.75162C15.5433 3.75162 18.1284 4.32835 19.8 5.99974C21.4718 7.67117 22.0488 10.2561 22.0488 13.7756C22.0488 17.2952 21.4718 19.8801 19.8 21.5515C18.1284 23.2229 15.5433 23.7996 12.0238 23.7996C8.50472 23.7996 5.91987 23.2229 4.24832 21.5515C2.57676 19.8801 1.99976 17.2952 1.99976 13.7756C1.99976 10.2561 2.57676 7.67118 4.24832 5.99976Z" fill="black"/>
<path fill-rule="evenodd" clip-rule="evenodd" d="M2.27515 10.324C2.27515 9.90979 2.61093 9.57401 3.02515 9.57401H21.0331C21.4474 9.57401 21.7831 9.90979 21.7831 10.324C21.7831 10.7382 21.4474 11.074 21.0331 11.074H3.02515C2.61093 11.074 2.27515 10.7382 2.27515 10.324Z" fill="black"/>
<path fill-rule="evenodd" clip-rule="evenodd" d="M15.6785 14.261C15.6785 13.8468 16.0143 13.511 16.4285 13.511H16.4375C16.8517 13.511 17.1875 13.8468 17.1875 14.261C17.1875 14.6752 16.8517 15.011 16.4375 15.011H16.4285C16.0143 15.011 15.6785 14.6752 15.6785 14.261Z" fill="black"/>
<path fill-rule="evenodd" clip-rule="evenodd" d="M11.2791 14.261C11.2791 13.8468 11.6148 13.511 12.0291 13.511H12.0381C12.4523 13.511 12.7881 13.8468 12.7881 14.261C12.7881 14.6752 12.4523 15.011 12.0381 15.011H12.0291C11.6148 15.011 11.2791 14.6752 11.2791 14.261Z" fill="black"/>
<path fill-rule="evenodd" clip-rule="evenodd" d="M6.87134 14.261C6.87134 13.8468 7.20712 13.511 7.62134 13.511H7.63034C8.04455 13.511 8.38034 13.8468 8.38034 14.261C8.38034 14.6752 8.04455 15.011 7.63034 15.011H7.62134C7.20712 15.011 6.87134 14.6752 6.87134 14.261Z" fill="black"/>
<path fill-rule="evenodd" clip-rule="evenodd" d="M15.6785 18.113C15.6785 17.6988 16.0143 17.363 16.4285 17.363H16.4375C16.8517 17.363 17.1875 17.6988 17.1875 18.113C17.1875 18.5272 16.8517 18.863 16.4375 18.863H16.4285C16.0143 18.863 15.6785 18.5272 15.6785 18.113Z" fill="black"/>
<path fill-rule="evenodd" clip-rule="evenodd" d="M11.2791 18.113C11.2791 17.6988 11.6148 17.363 12.0291 17.363H12.0381C12.4523 17.363 12.7881 17.6988 12.7881 18.113C12.7881 18.5272 12.4523 18.863 12.0381 18.863H12.0291C11.6148 18.863 11.2791 18.5272 11.2791 18.113Z" fill="black"/>
<path fill-rule="evenodd" clip-rule="evenodd" d="M6.87134 18.113C6.87134 17.6988 7.20712 17.363 7.62134 17.363H7.63034C8.04455 17.363 8.38034 17.6988 8.38034 18.113C8.38034 18.5272 8.04455 18.863 7.63034 18.863H7.62134C7.20712 18.863 6.87134 18.5272 6.87134 18.113Z" fill="black"/>
<path fill-rule="evenodd" clip-rule="evenodd" d="M16.033 2.30011C16.4472 2.30011 16.783 2.6359 16.783 3.05011V6.31211C16.783 6.72632 16.4472 7.06211 16.033 7.06211C15.6187 7.06211 15.283 6.72632 15.283 6.31211V3.05011C15.283 2.6359 15.6187 2.30011 16.033 2.30011Z" fill="black"/>
<path fill-rule="evenodd" clip-rule="evenodd" d="M8.02466 2.30011C8.43887 2.30011 8.77466 2.6359 8.77466 3.05011V6.31211C8.77466 6.72632 8.43887 7.06211 8.02466 7.06211C7.61044 7.06211 7.27466 6.72632 7.27466 6.31211V3.05011C7.27466 2.6359 7.61044 2.30011 8.02466 2.30011Z" fill="black"/>
</svg>