<svg width="25" height="24" viewBox="0 0 25 24" fill="none" xmlns="http://www.w3.org/2000/svg">
<path d="M4.48779 9.66422H20.5293" stroke="black" stroke-width="1.5" stroke-linecap="round" stroke-linejoin="round"/>
<path d="M16.1447 3V5.96174" stroke="black" stroke-width="1.5" stroke-linecap="round" stroke-linejoin="round"/>
<path d="M8.87223 3V5.96174" stroke="black" stroke-width="1.5" stroke-linecap="round" stroke-linejoin="round"/>
<path fill-rule="evenodd" clip-rule="evenodd" d="M16.3184 4.42188H8.69804C6.05446 4.42188 4.4043 5.89399 4.4043 8.59984V16.7456C4.4043 19.4943 6.05446 21.0004 8.69804 21.0004H16.3106C18.962 21.0004 20.6044 19.5205 20.6044 16.8137V8.59984C20.6121 5.89399 18.9698 4.42188 16.3184 4.42188Z" stroke="black" stroke-width="1.5" stroke-linecap="round" stroke-linejoin="round"/>
<path fill-rule="evenodd" clip-rule="evenodd" d="M12.8811 12.3171L13.5047 13.5635C13.567 13.6861 13.6847 13.7707 13.8209 13.7902L15.2162 13.9906C15.4429 14.0208 15.6015 14.228 15.5723 14.4547C15.5597 14.5472 15.5159 14.6328 15.4487 14.698L14.4398 15.6671C14.3405 15.7615 14.2958 15.8996 14.3191 16.0339L14.5575 17.4029C14.5945 17.6315 14.4388 17.8465 14.2101 17.8835C14.1206 17.8981 14.0282 17.8825 13.9474 17.8397L12.7011 17.1937C12.5785 17.1304 12.4325 17.1304 12.3099 17.1937L11.0626 17.8407C10.8582 17.9487 10.6043 17.8709 10.4963 17.6665C10.4535 17.5858 10.4379 17.4934 10.4525 17.4038L10.6919 16.0349C10.7152 15.8996 10.6705 15.7624 10.5712 15.6671L9.56126 14.698C9.39683 14.5394 9.39196 14.2786 9.54958 14.1142C9.61477 14.0461 9.70039 14.0033 9.79283 13.9906L11.189 13.7902C11.3253 13.7717 11.443 13.6861 11.5053 13.5635L12.1299 12.3171C12.2379 12.1099 12.4928 12.0291 12.7001 12.1361C12.7779 12.176 12.8412 12.2393 12.8811 12.3171Z" stroke="black" stroke-width="1.5" stroke-linecap="round" stroke-linejoin="round"/>
</svg>