<svg width="25" height="24" viewBox="0 0 25 24" fill="none" xmlns="http://www.w3.org/2000/svg">
<path fill-rule="evenodd" clip-rule="evenodd" d="M4.78915 4.95273C5.70818 4.07898 6.9873 3.67188 8.44413 3.67188H16.0645C17.5246 3.67188 18.8044 4.07866 19.7221 4.95341C20.6453 5.83345 21.1045 7.09417 21.1004 8.60159V16.8137C21.1004 18.3212 20.6391 19.5833 19.7158 20.465C18.7977 21.3417 17.5181 21.7514 16.0567 21.7514H8.44413C6.98267 21.7514 5.70195 21.3328 4.78385 20.4427C3.86206 19.549 3.40039 18.2716 3.40039 16.7456V8.6008C3.40039 7.09223 3.86433 5.83198 4.78915 4.95273ZM5.82269 6.03983C5.26153 6.57334 4.90039 7.40256 4.90039 8.6008V16.7456C4.90039 17.9682 5.26381 18.8187 5.82799 19.3658C6.39586 19.9163 7.26201 20.2514 8.44413 20.2514H16.0567C17.2467 20.2514 18.1139 19.9206 18.6798 19.3802C19.2405 18.8448 19.6004 18.013 19.6004 16.8137V8.6008L19.6004 8.59865C19.6039 7.39986 19.2457 6.5716 18.6871 6.03916C18.1227 5.50114 17.2557 5.17188 16.0645 5.17188H8.44413C7.25738 5.17188 6.38963 5.50083 5.82269 6.03983Z" fill="black"/>
<path fill-rule="evenodd" clip-rule="evenodd" d="M8.61914 2.25C9.03335 2.25 9.36914 2.58579 9.36914 3V5.96174C9.36914 6.37595 9.03335 6.71174 8.61914 6.71174C8.20493 6.71174 7.86914 6.37595 7.86914 5.96174V3C7.86914 2.58579 8.20493 2.25 8.61914 2.25ZM15.8898 2.25C16.3041 2.25 16.6398 2.58579 16.6398 3V5.96174C16.6398 6.37595 16.3041 6.71174 15.8898 6.71174C15.4756 6.71174 15.1398 6.37595 15.1398 5.96174V3C15.1398 2.58579 15.4756 2.25 15.8898 2.25Z" fill="black"/>
<path fill-rule="evenodd" clip-rule="evenodd" d="M12.2491 10.0669C12.8525 9.77911 13.5499 9.72689 14.1989 9.93498L14.2 9.93532C15.82 10.4574 16.2821 12.1777 15.8558 13.5106L15.8554 13.5116C15.513 14.5768 14.6462 15.4361 13.964 15.9905C13.6098 16.2783 13.2757 16.5074 13.0301 16.6648C12.9068 16.7438 12.8047 16.8054 12.732 16.8481C12.6956 16.8694 12.6666 16.886 12.6458 16.8977L12.621 16.9116L12.6135 16.9157L12.611 16.9171L12.6101 16.9176C12.61 16.9177 12.6094 16.918 12.2507 16.2593C11.8899 16.9168 11.8897 16.9167 11.8895 16.9167L11.8883 16.916L11.8858 16.9146L11.8783 16.9104L11.8535 16.8964C11.8327 16.8846 11.8035 16.8678 11.767 16.8463C11.694 16.8032 11.5914 16.7409 11.4676 16.6613C11.2209 16.5025 10.8855 16.2718 10.5305 15.9829C9.84873 15.4282 8.97909 14.5678 8.64513 13.5089C8.21909 12.1744 8.68664 10.4567 10.3043 9.93532L10.3097 9.93359C10.956 9.73068 11.648 9.78252 12.2491 10.0669ZM12.2507 16.2593L11.8895 16.9167C12.1135 17.0396 12.3857 17.0398 12.6101 16.9176L12.2507 16.2593ZM12.2517 15.382C12.4592 15.2478 12.7322 15.0587 13.018 14.8264C13.6443 14.3175 14.2228 13.6883 14.4273 13.0529C14.6796 12.2632 14.3481 11.5594 13.7405 11.3632C13.3865 11.2499 12.9984 11.3152 12.7003 11.5384C12.4349 11.7373 12.0703 11.7381 11.8039 11.5406C11.5045 11.3184 11.118 11.253 10.7618 11.3639C10.1537 11.5616 9.82253 12.2664 10.0743 13.0535L10.0754 13.0568C10.2711 13.6785 10.8463 14.3061 11.4772 14.8194C11.7658 15.0543 12.0421 15.246 12.2517 15.382Z" fill="black"/>
</svg>