<svg width="25" height="25" viewBox="0 0 25 25" fill="none" xmlns="http://www.w3.org/2000/svg">
<path opacity="0.4" fill-rule="evenodd" clip-rule="evenodd" d="M21.8696 10.6843H2.63059C2.52859 11.5043 2.47559 12.3973 2.47559 13.3863C2.47559 20.6013 5.03359 23.1593 12.2496 23.1593C19.4666 23.1593 22.0246 20.6013 22.0246 13.3863C22.0246 12.3973 21.9716 11.5043 21.8696 10.6843Z" fill="black"/>
<path d="M15.9086 13.8713C15.9086 14.2853 16.2486 14.6213 16.6626 14.6213C17.0766 14.6213 17.4126 14.2853 17.4126 13.8713C17.4126 13.4573 17.0766 13.1213 16.6626 13.1213H16.6536C16.2396 13.1213 15.9086 13.4573 15.9086 13.8713Z" fill="black"/>
<path d="M15.9086 17.7243C15.9086 18.1383 16.2486 18.4743 16.6626 18.4743C17.0766 18.4743 17.4126 18.1383 17.4126 17.7243C17.4126 17.3093 17.0766 16.9743 16.6626 16.9743H16.6536C16.2396 16.9743 15.9086 17.3093 15.9086 17.7243Z" fill="black"/>
<path d="M11.5086 13.8713C11.5086 14.2853 11.8496 14.6213 12.2636 14.6213C12.6776 14.6213 13.0136 14.2853 13.0136 13.8713C13.0136 13.4573 12.6776 13.1213 12.2636 13.1213H12.2546C11.8406 13.1213 11.5086 13.4573 11.5086 13.8713Z" fill="black"/>
<path d="M11.5086 17.7243C11.5086 18.1383 11.8496 18.4743 12.2636 18.4743C12.6776 18.4743 13.0136 18.1383 13.0136 17.7243C13.0136 17.3093 12.6776 16.9743 12.2636 16.9743H12.2546C11.8406 16.9743 11.5086 17.3093 11.5086 17.7243Z" fill="black"/>
<path d="M7.10059 13.8713C7.10059 14.2853 7.44159 14.6213 7.85559 14.6213C8.26959 14.6213 8.60559 14.2853 8.60559 13.8713C8.60559 13.4573 8.26959 13.1213 7.85559 13.1213H7.84659C7.43259 13.1213 7.10059 13.4573 7.10059 13.8713Z" fill="black"/>
<path d="M7.10059 17.7243C7.10059 18.1383 7.44159 18.4743 7.85559 18.4743C8.26959 18.4743 8.60559 18.1383 8.60559 17.7243C8.60559 17.3093 8.26959 16.9743 7.85559 16.9743H7.84659C7.43259 16.9743 7.10059 17.3093 7.10059 17.7243Z" fill="black"/>
<path fill-rule="evenodd" clip-rule="evenodd" d="M17.2033 4.26291V2.65991C17.2033 2.24591 16.8673 1.90991 16.4533 1.90991C16.0393 1.90991 15.7033 2.24591 15.7033 2.65991V5.92291C15.7033 6.18291 15.8443 6.40191 16.0463 6.53591C15.9273 6.61591 15.7923 6.67291 15.6383 6.67291C15.2243 6.67291 14.8883 6.33691 14.8883 5.92291V3.75691C14.0863 3.66091 13.2123 3.61191 12.2493 3.61191C11.1153 3.61191 10.1043 3.67991 9.19534 3.81691V2.65991C9.19534 2.24591 8.85934 1.90991 8.44534 1.90991C8.03134 1.90991 7.69534 2.24591 7.69534 2.65991V5.92291C7.69534 6.18291 7.83634 6.40191 8.03834 6.53591C7.91934 6.61591 7.78434 6.67291 7.63034 6.67291C7.21634 6.67291 6.88034 6.33691 6.88034 5.92291V4.39291C4.74634 5.21591 3.49434 6.74691 2.90234 9.18491H21.5973C20.9693 6.59891 19.5813 5.04691 17.2033 4.26291Z" fill="black"/>
</svg>