<svg width="25" height="24" viewBox="0 0 25 24" fill="none" xmlns="http://www.w3.org/2000/svg">
<path fill-rule="evenodd" clip-rule="evenodd" d="M15.5884 2.25C16.0026 2.25 16.3384 2.58579 16.3384 3V5.84877C16.3384 6.26298 16.0026 6.59877 15.5884 6.59877C15.1742 6.59877 14.8384 6.26298 14.8384 5.84877V3C14.8384 2.58579 15.1742 2.25 15.5884 2.25Z" fill="black"/>
<path fill-rule="evenodd" clip-rule="evenodd" d="M8.59521 2.25C9.00943 2.25 9.34521 2.58579 9.34521 3V5.84877C9.34521 6.26298 9.00943 6.59877 8.59521 6.59877C8.181 6.59877 7.84521 6.26298 7.84521 5.84877V3C7.84521 2.58579 8.181 2.25 8.59521 2.25Z" fill="black"/>
<path fill-rule="evenodd" clip-rule="evenodd" d="M4.8913 4.85594C5.78186 4.00919 7.01986 3.61621 8.42604 3.61621H15.7552C17.1642 3.61621 18.4029 4.00889 19.2922 4.8566C20.1871 5.70964 20.6307 6.93046 20.6266 8.38636V10.8791C20.6266 11.2933 20.2908 11.6291 19.8766 11.6291C19.4624 11.6291 19.1266 11.2933 19.1266 10.8791V8.38543L19.1266 8.38319C19.13 7.23607 18.7874 6.44776 18.2572 5.94234C17.7212 5.43134 16.8953 5.11621 15.7552 5.11621H8.42604C7.28992 5.11621 6.46333 5.43105 5.92489 5.943C5.39222 6.44947 5.04688 7.23875 5.04688 8.38543V16.2176C5.04688 17.3883 5.39452 18.1981 5.93016 18.7174C6.4695 19.2403 7.29447 19.5608 8.42604 19.5608H10.2746C10.6888 19.5608 11.0246 19.8966 11.0246 20.3108C11.0246 20.725 10.6888 21.0608 10.2746 21.0608H8.42604C7.01531 21.0608 5.7757 20.6569 4.88603 19.7943C3.99267 18.9282 3.54688 17.6914 3.54688 16.2176V8.38543C3.54688 6.92852 3.99496 5.70819 4.8913 4.85594Z" fill="black"/>
<path fill-rule="evenodd" clip-rule="evenodd" d="M16.9674 13.9414C15.2256 13.9414 13.813 15.354 13.813 17.0958C13.813 18.8376 15.2256 20.2502 16.9674 20.2502C18.7092 20.2502 20.1218 18.8376 20.1218 17.0958C20.1218 15.354 18.7092 13.9414 16.9674 13.9414ZM12.313 17.0958C12.313 14.5256 14.3971 12.4414 16.9674 12.4414C19.5377 12.4414 21.6218 14.5256 21.6218 17.0958C21.6218 19.6661 19.5377 21.7502 16.9674 21.7502C14.3971 21.7502 12.313 19.6661 12.313 17.0958Z" fill="black"/>
<path fill-rule="evenodd" clip-rule="evenodd" d="M16.9453 15.0352C17.3595 15.0352 17.6953 15.3709 17.6953 15.7852V16.9464L18.5646 17.4656C18.9202 17.678 19.0363 18.1385 18.8239 18.4941C18.6114 18.8497 18.151 18.9658 17.7954 18.7534L16.5607 18.0159C16.3341 17.8805 16.1953 17.636 16.1953 17.372V15.7852C16.1953 15.3709 16.5311 15.0352 16.9453 15.0352Z" fill="black"/>
<path fill-rule="evenodd" clip-rule="evenodd" d="M7.25244 9.63574C7.25244 9.22153 7.58823 8.88574 8.00244 8.88574H16.1732C16.5874 8.88574 16.9232 9.22153 16.9232 9.63574C16.9232 10.05 16.5874 10.3857 16.1732 10.3857H8.00244C7.58823 10.3857 7.25244 10.05 7.25244 9.63574Z" fill="black"/>
</svg>