<svg width="25" height="24" viewBox="0 0 25 24" fill="none" xmlns="http://www.w3.org/2000/svg">
<path fill-rule="evenodd" clip-rule="evenodd" d="M3.81787 9.66406C3.81787 9.24985 4.15366 8.91406 4.56787 8.91406H20.6093C21.0235 8.91406 21.3593 9.24985 21.3593 9.66406C21.3593 10.0783 21.0235 10.4141 20.6093 10.4141H4.56787C4.15366 10.4141 3.81787 10.0783 3.81787 9.66406Z" fill="black"/>
<path fill-rule="evenodd" clip-rule="evenodd" d="M16.2246 2.25C16.6388 2.25 16.9746 2.58579 16.9746 3V5.96174C16.9746 6.37595 16.6388 6.71174 16.2246 6.71174C15.8104 6.71174 15.4746 6.37595 15.4746 5.96174V3C15.4746 2.58579 15.8104 2.25 16.2246 2.25Z" fill="black"/>
<path fill-rule="evenodd" clip-rule="evenodd" d="M8.9541 2.25C9.36832 2.25 9.7041 2.58579 9.7041 3V5.96174C9.7041 6.37595 9.36832 6.71174 8.9541 6.71174C8.53989 6.71174 8.2041 6.37595 8.2041 5.96174V3C8.2041 2.58579 8.53989 2.25 8.9541 2.25Z" fill="black"/>
<path fill-rule="evenodd" clip-rule="evenodd" d="M5.12318 4.95257C6.0422 4.07898 7.32129 3.67188 8.77812 3.67188H16.3985C17.8586 3.67188 19.1384 4.07866 20.0561 4.95324C20.9794 5.83328 21.4386 7.094 21.4344 8.60132C21.4344 8.60154 21.4344 8.60177 21.4344 8.60199L21.4344 16.8137C21.4344 18.3212 20.9731 19.5831 20.0497 20.4646C19.1316 21.341 17.8519 21.7504 16.3907 21.7504H8.77812C7.31679 21.7504 6.03608 21.3322 5.11793 20.4423C4.19605 19.5488 3.73438 18.2716 3.73438 16.7456V8.59984C3.73438 7.09167 4.19836 5.83167 5.12318 4.95257ZM6.15663 6.03976C5.59547 6.57317 5.23438 7.40215 5.23438 8.59984V16.7456C5.23438 17.9683 5.59778 18.8185 6.16188 19.3652C6.72971 19.9156 7.59587 20.2504 8.77812 20.2504H16.3907C17.5808 20.2504 18.448 19.9198 19.0139 19.3796C19.5745 18.8445 19.9344 18.013 19.9344 16.8137V8.59984L19.9344 8.59768C19.9379 7.39945 19.5798 6.57144 19.0212 6.03908C18.4568 5.50115 17.5897 5.17188 16.3985 5.17188H8.77812C7.59137 5.17188 6.72359 5.50083 6.15663 6.03976Z" fill="black"/>
<path fill-rule="evenodd" clip-rule="evenodd" d="M16.3458 12.6932C16.6388 12.986 16.6389 13.4608 16.3461 13.7538L12.7296 17.3723C12.5889 17.5131 12.3979 17.5922 12.1989 17.5921C11.9998 17.5921 11.809 17.5129 11.6683 17.372L9.91308 15.6139C9.62043 15.3207 9.62082 14.8458 9.91396 14.5532C10.2071 14.2605 10.682 14.2609 10.9746 14.5541L12.1994 15.7809L15.2852 12.6934C15.578 12.4005 16.0529 12.4003 16.3458 12.6932Z" fill="black"/>
</svg>