<svg width="25" height="24" viewBox="0 0 25 24" fill="none" xmlns="http://www.w3.org/2000/svg">
<g opacity="0.4">
<path fill-rule="evenodd" clip-rule="evenodd" d="M11.744 17.6535L14.384 14.7735C14.414 14.7335 14.414 14.6735 14.374 14.6435L13.814 14.1235H13.694L11.034 17.0335C10.934 17.1335 10.874 17.2735 10.864 17.4235L10.804 17.9735L11.324 17.8835C11.484 17.8535 11.634 17.7735 11.744 17.6535Z" fill="black"/>
<path fill-rule="evenodd" clip-rule="evenodd" d="M9.36389 17.2634C9.41389 16.8034 9.60389 16.3734 9.91389 16.0234L12.5839 13.1134C12.8739 12.8034 13.2739 12.6134 13.6939 12.6034C14.1139 12.5834 14.5239 12.7334 14.8339 13.0234L15.3939 13.5434C16.0339 14.1434 16.0739 15.1434 15.4839 15.7834L12.8539 18.6634C12.5239 19.0234 12.0739 19.2734 11.5739 19.3634L10.9639 19.4634C10.8839 19.4734 10.8039 19.4834 10.7239 19.4834C10.3639 19.4834 10.0139 19.3434 9.74389 19.0934C9.41389 18.7834 9.25389 18.3434 9.30389 17.8934L9.36389 17.2634ZM3.98389 16.8634C3.98389 19.8434 5.77389 21.6234 8.77389 21.6234H16.3939C19.3939 21.6234 21.1839 19.8734 21.1839 16.9334V11.2234C21.1839 11.113 21.0943 11.0234 20.9839 11.0234H4.18389C4.07343 11.0234 3.98389 11.113 3.98389 11.2234V16.8634Z" fill="black"/>
</g>
<path fill-rule="evenodd" clip-rule="evenodd" d="M19.9539 5.325C19.2239 4.605 18.1939 4.195 16.9739 4.085V3.125C16.9739 2.715 16.6339 2.375 16.2239 2.375C15.8039 2.375 15.4739 2.715 15.4739 3.125V6.675C15.4039 6.695 15.3439 6.715 15.2739 6.715C14.8539 6.715 14.5239 6.375 14.5239 5.965V4.245C14.5239 4.13454 14.4343 4.045 14.3239 4.045H9.69389V3.125C9.69389 2.715 9.36389 2.375 8.94389 2.375C8.53389 2.375 8.19389 2.715 8.19389 3.125V6.675C8.13389 6.695 8.06389 6.715 7.99389 6.715C7.58389 6.715 7.24389 6.375 7.24389 5.965V4.50055C7.24389 4.37063 7.12152 4.27513 6.99707 4.31245C5.08835 4.88473 3.98389 6.43211 3.98389 8.725V9.325C3.98389 9.43546 4.07343 9.525 4.18389 9.525H20.9839C21.0943 9.525 21.1839 9.43546 21.1839 9.325V8.725C21.1839 7.315 20.7639 6.135 19.9539 5.325Z" fill="black"/>
<path fill-rule="evenodd" clip-rule="evenodd" d="M9.91392 16.0233C9.60392 16.3733 9.41392 16.8033 9.36392 17.2633L9.30392 17.8933C9.25392 18.3433 9.41392 18.7833 9.74392 19.0933C10.0139 19.3433 10.3639 19.4833 10.7239 19.4833C10.8039 19.4833 10.8839 19.4733 10.9639 19.4633L10.9639 19.4633L11.5739 19.3633C12.0739 19.2733 12.5239 19.0233 12.8539 18.6633L15.4839 15.7833C16.0739 15.1433 16.0339 14.1433 15.3939 13.5433L14.8339 13.0233C14.5239 12.7333 14.1139 12.5833 13.6939 12.6033C13.2739 12.6133 12.8739 12.8033 12.5839 13.1133L9.91392 16.0233ZM14.384 14.7735L11.744 17.6535C11.634 17.7735 11.484 17.8535 11.324 17.8835L10.804 17.9735L10.864 17.4235C10.874 17.2735 10.934 17.1335 11.034 17.0335L13.694 14.1235H13.814L14.374 14.6435C14.414 14.6735 14.414 14.7335 14.384 14.7735Z" fill="black"/>
</svg>