<svg width="25" height="24" viewBox="0 0 25 24" fill="none" xmlns="http://www.w3.org/2000/svg">
<path d="M4.48779 9.66422H20.5293" stroke="black" stroke-width="1.5" stroke-linecap="round" stroke-linejoin="round"/>
<path d="M16.1447 3V5.96174" stroke="black" stroke-width="1.5" stroke-linecap="round" stroke-linejoin="round"/>
<path d="M8.8737 3V5.96174" stroke="black" stroke-width="1.5" stroke-linecap="round" stroke-linejoin="round"/>
<path fill-rule="evenodd" clip-rule="evenodd" d="M16.3184 4.42188H8.69804C6.05446 4.42188 4.4043 5.89399 4.4043 8.59984V16.7456C4.4043 19.4943 6.05446 21.0004 8.69804 21.0004H16.3106C18.962 21.0004 20.6044 19.5205 20.6044 16.8137V8.59984C20.6121 5.89399 18.9698 4.42188 16.3184 4.42188Z" stroke="black" stroke-width="1.5" stroke-linecap="round" stroke-linejoin="round"/>
<path fill-rule="evenodd" clip-rule="evenodd" d="M9.72812 15.0307C9.40217 14.011 9.78358 12.8453 10.8529 12.5009C11.4162 12.3209 12.0321 12.424 12.505 12.7792C12.9788 12.4279 13.5918 12.3238 14.1542 12.5009C15.2245 12.8453 15.6088 14.011 15.2819 15.0307C14.774 16.6458 12.505 17.8902 12.505 17.8902C12.505 17.8902 10.2535 16.6643 9.72812 15.0307Z" stroke="black" stroke-width="1.5" stroke-linecap="round" stroke-linejoin="round"/>
</svg>