<svg width="25" height="24" viewBox="0 0 25 24" fill="none" xmlns="http://www.w3.org/2000/svg">
<path fill-rule="evenodd" clip-rule="evenodd" d="M7.58643 9.60352C7.58643 9.1893 7.92221 8.85352 8.33643 8.85352H16.8325C17.2467 8.85352 17.5825 9.1893 17.5825 9.60352C17.5825 10.0177 17.2467 10.3535 16.8325 10.3535H8.33643C7.92221 10.3535 7.58643 10.0177 7.58643 9.60352Z" fill="black"/>
<path fill-rule="evenodd" clip-rule="evenodd" d="M16.2229 2.25C16.6371 2.25 16.9729 2.58579 16.9729 3V5.57644C16.9729 5.99065 16.6371 6.32644 16.2229 6.32644C15.8087 6.32644 15.4729 5.99065 15.4729 5.57644V3C15.4729 2.58579 15.8087 2.25 16.2229 2.25Z" fill="black"/>
<path fill-rule="evenodd" clip-rule="evenodd" d="M8.95215 2.25C9.36636 2.25 9.70215 2.58579 9.70215 3V5.57644C9.70215 5.99065 9.36636 6.32644 8.95215 6.32644C8.53793 6.32644 8.20215 5.99065 8.20215 5.57644V3C8.20215 2.58579 8.53793 2.25 8.95215 2.25Z" fill="black"/>
<path fill-rule="evenodd" clip-rule="evenodd" d="M5.12318 4.95257C6.0422 4.07898 7.32129 3.67188 8.77812 3.67188H16.3985C17.8586 3.67188 19.1384 4.07866 20.0561 4.95324C20.9794 5.83328 21.4386 7.094 21.4344 8.60132C21.4344 8.60154 21.4344 8.60177 21.4344 8.60199L21.4344 16.8137C21.4344 18.3212 20.9731 19.5831 20.0497 20.4646C19.1316 21.341 17.8519 21.7504 16.3907 21.7504H8.77812C7.31679 21.7504 6.03608 21.3322 5.11793 20.4423C4.19605 19.5488 3.73438 18.2716 3.73438 16.7456V8.59984C3.73438 7.09167 4.19836 5.83167 5.12318 4.95257ZM6.15663 6.03976C5.59547 6.57317 5.23438 7.40215 5.23438 8.59984V16.7456C5.23438 17.9683 5.59778 18.8185 6.16188 19.3652C6.72971 19.9156 7.59587 20.2504 8.77812 20.2504H16.3907C17.5808 20.2504 18.448 19.9198 19.0139 19.3796C19.5745 18.8445 19.9344 18.013 19.9344 16.8137V8.59984L19.9344 8.59768C19.9379 7.39945 19.5798 6.57144 19.0212 6.03908C18.4568 5.50115 17.5897 5.17188 16.3985 5.17188H8.77812C7.59137 5.17188 6.72359 5.50083 6.15663 6.03976Z" fill="black"/>
<path fill-rule="evenodd" clip-rule="evenodd" d="M8.44922 15.2607C8.44922 14.8465 8.78501 14.5107 9.19922 14.5107H15.9984C16.4126 14.5107 16.7484 14.8465 16.7484 15.2607C16.7484 15.675 16.4126 16.0107 15.9984 16.0107H9.19922C8.78501 16.0107 8.44922 15.675 8.44922 15.2607Z" fill="black"/>
<path fill-rule="evenodd" clip-rule="evenodd" d="M11.782 12.8246C12.0644 13.1275 12.0477 13.6021 11.7447 13.8846L10.2686 15.2605L11.7447 16.6364C12.0477 16.9188 12.0644 17.3934 11.782 17.6964C11.4995 17.9994 11.025 18.0161 10.722 17.7337L8.65731 15.8091C8.50512 15.6672 8.4187 15.4685 8.4187 15.2605C8.4187 15.0524 8.50512 14.8537 8.65731 14.7119L10.722 12.7873C11.025 12.5049 11.4995 12.5216 11.782 12.8246Z" fill="black"/>
</svg>