<svg width="24" height="24" viewBox="0 0 24 24" fill="none" xmlns="http://www.w3.org/2000/svg">
<path fill-rule="evenodd" clip-rule="evenodd" d="M11.0546 17.2275L10.9576 17.7805L11.4746 17.5125C11.8046 17.3395 12.2006 17.3415 12.5316 17.5145L13.0426 17.7795L12.9466 17.2295C12.8826 16.8565 13.0066 16.4785 13.2796 16.2175L13.6746 15.8375L13.1166 15.7575C12.7456 15.7035 12.4266 15.4735 12.2596 15.1425L11.9996 14.6235L11.7416 15.1405C11.5726 15.4765 11.2506 15.7065 10.8806 15.7585L10.3256 15.8375L10.7226 16.2185C10.9926 16.4745 11.1176 16.8535 11.0546 17.2275Z" fill="black"/>
<path fill-rule="evenodd" clip-rule="evenodd" d="M19.3701 5.325C18.6401 4.605 17.6101 4.195 16.3901 4.085V3.125C16.3901 2.715 16.0501 2.375 15.6401 2.375C15.2201 2.375 14.8901 2.715 14.8901 3.125V6.675C14.8201 6.695 14.7601 6.715 14.6901 6.715C14.2701 6.715 13.9401 6.375 13.9401 5.965V4.245C13.9401 4.13454 13.8506 4.045 13.7401 4.045H9.11015V3.125C9.11015 2.715 8.78015 2.375 8.36015 2.375C7.95015 2.375 7.61015 2.715 7.61015 3.125V6.675C7.55015 6.695 7.48015 6.715 7.41015 6.715C7.00015 6.715 6.66015 6.375 6.66015 5.965V4.50055C6.66015 4.37063 6.53778 4.27513 6.41333 4.31245C4.50461 4.88473 3.40015 6.43211 3.40015 8.725V9.325C3.40015 9.43546 3.48969 9.525 3.60015 9.525H20.4001C20.5106 9.525 20.6001 9.43546 20.6001 9.325V8.725C20.6001 7.315 20.1801 6.135 19.3701 5.325Z" fill="black"/>
<path fill-rule="evenodd" clip-rule="evenodd" d="M8.71284 14.7969C8.88784 14.6129 9.12484 14.4919 9.37784 14.4579L10.4848 14.2999L10.9808 13.3109C11.2788 12.7419 11.9738 12.5249 12.5258 12.8129C12.7368 12.9209 12.9068 13.0909 13.0168 13.3039C13.0178 13.3059 13.0198 13.3089 13.0208 13.3109L13.5158 14.2999L14.6258 14.4589C15.2368 14.5409 15.6748 15.1109 15.5948 15.7299C15.5598 15.9829 15.4418 16.2169 15.2628 16.3939L14.4578 17.1649L14.6478 18.2439C14.6968 18.5539 14.6248 18.8559 14.4468 19.1029C14.2688 19.3499 14.0048 19.5119 13.7038 19.5599C13.4608 19.5999 13.2038 19.5579 12.9838 19.4389L12.0008 18.9299L11.0048 19.4449C10.8428 19.5309 10.6618 19.5749 10.4808 19.5749C10.3668 19.5749 10.2538 19.5589 10.1428 19.5249C9.85184 19.4349 9.61184 19.2369 9.46984 18.9679C9.35484 18.7489 9.31384 18.4949 9.35284 18.2529L9.54284 17.1659L8.74484 16.4009C8.29484 15.9639 8.28084 15.2459 8.71284 14.7969ZM3.39984 16.8649C3.39984 19.8449 5.18984 21.6249 8.18984 21.6249H15.8098C18.8098 21.6249 20.5998 19.8749 20.5998 16.9349V11.2249C20.5998 11.1144 20.5103 11.0249 20.3998 11.0249H3.59984C3.48938 11.0249 3.39984 11.1144 3.39984 11.2249V16.8649Z" fill="black"/>
</svg>