<svg width="25" height="24" viewBox="0 0 25 24" fill="none" xmlns="http://www.w3.org/2000/svg">
<path fill-rule="evenodd" clip-rule="evenodd" d="M3.81787 9.66406C3.81787 9.24985 4.15366 8.91406 4.56787 8.91406H20.6093C21.0235 8.91406 21.3593 9.24985 21.3593 9.66406C21.3593 10.0783 21.0235 10.4141 20.6093 10.4141H4.56787C4.15366 10.4141 3.81787 10.0783 3.81787 9.66406Z" fill="black"/>
<path fill-rule="evenodd" clip-rule="evenodd" d="M16.2246 2.25C16.6388 2.25 16.9746 2.58579 16.9746 3V5.96174C16.9746 6.37595 16.6388 6.71174 16.2246 6.71174C15.8104 6.71174 15.4746 6.37595 15.4746 5.96174V3C15.4746 2.58579 15.8104 2.25 16.2246 2.25Z" fill="black"/>
<path fill-rule="evenodd" clip-rule="evenodd" d="M8.9541 2.25C9.36832 2.25 9.7041 2.58579 9.7041 3V5.96174C9.7041 6.37595 9.36832 6.71174 8.9541 6.71174C8.53989 6.71174 8.2041 6.37595 8.2041 5.96174V3C8.2041 2.58579 8.53989 2.25 8.9541 2.25Z" fill="black"/>
<path fill-rule="evenodd" clip-rule="evenodd" d="M5.12318 4.95257C6.0422 4.07898 7.32129 3.67188 8.77812 3.67188H16.3985C17.8586 3.67188 19.1384 4.07866 20.0561 4.95324C20.9794 5.83328 21.4386 7.094 21.4344 8.60132C21.4344 8.60154 21.4344 8.60177 21.4344 8.60199L21.4344 16.8137C21.4344 18.3212 20.9731 19.5831 20.0497 20.4646C19.1316 21.341 17.8519 21.7504 16.3907 21.7504H8.77812C7.31679 21.7504 6.03608 21.3322 5.11793 20.4423C4.19605 19.5488 3.73438 18.2716 3.73438 16.7456V8.59984C3.73438 7.09167 4.19836 5.83167 5.12318 4.95257ZM6.15663 6.03976C5.59547 6.57317 5.23438 7.40215 5.23438 8.59984V16.7456C5.23438 17.9683 5.59778 18.8185 6.16188 19.3652C6.72971 19.9156 7.59587 20.2504 8.77812 20.2504H16.3907C17.5808 20.2504 18.448 19.9198 19.0139 19.3796C19.5745 18.8445 19.9344 18.013 19.9344 16.8137V8.59984L19.9344 8.59768C19.9379 7.39945 19.5798 6.57144 19.0212 6.03908C18.4568 5.50115 17.5897 5.17188 16.3985 5.17188H8.77812C7.59137 5.17188 6.72359 5.50083 6.15663 6.03976Z" fill="black"/>
<path fill-rule="evenodd" clip-rule="evenodd" d="M11.1618 13.2151C10.5996 13.3967 10.2832 14.0533 10.5221 14.8017C10.716 15.4035 11.2659 16.0031 11.8664 16.491C12.1326 16.7073 12.3874 16.8846 12.584 17.0123C12.7826 16.8829 13.0405 16.7031 13.3096 16.4843C13.9147 15.9921 14.4612 15.3941 14.6462 14.8057L14.6475 14.8017C14.8865 14.0562 14.5705 13.3986 14.0065 13.2156C13.6749 13.112 13.3126 13.1733 13.0315 13.3817C12.7648 13.5794 12.3999 13.5782 12.1344 13.3789C11.8568 13.1704 11.4944 13.1091 11.1618 13.2151ZM12.5848 17.8902C12.2262 18.5489 12.226 18.5488 12.2258 18.5487L12.2246 18.548L12.2221 18.5467L12.2148 18.5427L12.1908 18.5292C12.1708 18.5179 12.1427 18.5019 12.1076 18.4813C12.0375 18.4402 11.9391 18.3808 11.8203 18.3047C11.5836 18.1531 11.2617 17.9324 10.9205 17.6551C10.264 17.1218 9.42576 16.2919 9.09397 15.2603L9.09356 15.259C8.6811 13.9687 9.12702 12.2946 10.7028 11.787L10.7044 11.7865C11.3304 11.5865 12.003 11.6343 12.5869 11.9094C13.1676 11.6385 13.8352 11.589 14.4593 11.7855L14.4638 11.787C16.0381 12.2936 16.49 13.965 16.0765 15.2576C15.7532 16.2835 14.912 17.1145 14.256 17.648C13.9139 17.9262 13.5907 18.1485 13.353 18.3014C13.2337 18.3781 13.1348 18.4381 13.0644 18.4796C13.0291 18.5004 13.001 18.5166 12.9808 18.528L12.9568 18.5416L12.9495 18.5456L12.9471 18.547L12.9462 18.5474C12.946 18.5475 12.9455 18.5478 12.5848 17.8902ZM12.5848 17.8902L12.9462 18.5474C12.7222 18.6703 12.4502 18.6709 12.2258 18.5487L12.5848 17.8902Z" fill="black"/>
</svg>