<svg width="25" height="24" viewBox="0 0 25 24" fill="none" xmlns="http://www.w3.org/2000/svg">
<path fill-rule="evenodd" clip-rule="evenodd" d="M15.3303 11.263L13.6673 16.618C13.5673 16.94 13.2713 17.146 12.9513 17.146C12.8783 17.146 12.8033 17.135 12.7283 17.112C12.3333 16.989 12.1123 16.569 12.2353 16.173L13.5963 11.79H11.2373C10.8233 11.79 10.4873 11.454 10.4873 11.04C10.4873 10.626 10.8233 10.29 11.2373 10.29H14.6143C14.8523 10.29 15.0773 10.404 15.2183 10.596C15.3593 10.787 15.4013 11.035 15.3303 11.263ZM20.2943 5.327C19.5713 4.601 18.5403 4.193 17.3123 4.09V3.125C17.3123 2.711 16.9763 2.375 16.5623 2.375C16.1483 2.375 15.8123 2.711 15.8123 3.125V6.674C15.7473 6.692 15.6833 6.714 15.6113 6.714C15.1973 6.714 14.8613 6.378 14.8613 5.964V4.246C14.8613 4.13554 14.7718 4.046 14.6613 4.046H10.0393V3.125C10.0393 2.711 9.70329 2.375 9.28929 2.375C8.87529 2.375 8.53929 2.711 8.53929 3.125V6.674C8.47429 6.692 8.41029 6.714 8.33829 6.714C7.92429 6.714 7.58829 6.378 7.58829 5.964V4.49991C7.58829 4.36988 7.46573 4.27436 7.34122 4.31189C5.43251 4.88709 4.32629 6.43696 4.32629 8.724V16.87C4.32629 19.848 6.11829 21.625 9.11929 21.625H16.7323C19.7343 21.625 21.5253 19.873 21.5253 16.938V8.726C21.5293 7.314 21.1043 6.139 20.2943 5.327Z" fill="black"/>
</svg>