<svg width="25" height="24" viewBox="0 0 25 24" fill="none" xmlns="http://www.w3.org/2000/svg">
<path fill-rule="evenodd" clip-rule="evenodd" d="M16.1245 16.632C16.1245 17.046 15.7885 17.382 15.3745 17.382C14.9605 17.382 14.6245 17.046 14.6245 16.632V11.038C14.6245 10.624 14.9605 10.288 15.3745 10.288C15.7885 10.288 16.1245 10.624 16.1245 11.038V16.632ZM12.6515 15.189C12.6515 16.424 11.6465 17.43 10.4125 17.43C9.1775 17.43 8.1725 16.424 8.1725 15.189C8.1725 14.775 8.5085 14.439 8.9225 14.439C9.3365 14.439 9.6725 14.775 9.6725 15.189C9.6725 15.598 10.0045 15.93 10.4125 15.93C10.8195 15.93 11.1515 15.598 11.1515 15.189C11.1515 14.781 10.8195 14.449 10.4125 14.449C9.9985 14.449 9.6625 14.113 9.6625 13.699C9.6625 13.285 9.9985 12.949 10.4125 12.949C10.8195 12.949 11.1515 12.617 11.1515 12.208C11.1515 11.801 10.8195 11.47 10.4125 11.47C10.0045 11.47 9.6725 11.801 9.6725 12.208C9.6725 12.622 9.3365 12.958 8.9225 12.958C8.5085 12.958 8.1725 12.622 8.1725 12.208C8.1725 10.974 9.1775 9.97 10.4125 9.97C11.6465 9.97 12.6515 10.974 12.6515 12.208C12.6515 12.783 12.4285 13.302 12.0715 13.699C12.4285 14.096 12.6515 14.615 12.6515 15.189ZM19.4525 5.327C18.7295 4.602 17.6975 4.193 16.4705 4.091V3.125C16.4705 2.711 16.1345 2.375 15.7205 2.375C15.3065 2.375 14.9705 2.711 14.9705 3.125V6.674C14.9055 6.693 14.8405 6.715 14.7695 6.715C14.3555 6.715 14.0195 6.379 14.0195 5.965V4.247C14.0195 4.13654 13.93 4.047 13.8195 4.047H9.1975V3.125C9.1975 2.711 8.8615 2.375 8.4475 2.375C8.0335 2.375 7.6975 2.711 7.6975 3.125V6.674C7.6325 6.693 7.5675 6.715 7.4965 6.715C7.0825 6.715 6.7465 6.379 6.7465 5.965V4.50003C6.7465 4.36996 6.62387 4.27444 6.49934 4.31203C4.59068 4.88814 3.4845 6.438 3.4845 8.725V16.871C3.4845 19.848 5.2765 21.625 8.2775 21.625H15.8905C18.8915 21.625 20.6835 19.873 20.6835 16.939V8.726C20.6875 7.314 20.2615 6.139 19.4525 5.327Z" fill="black"/>
</svg>