<svg width="25" height="24" viewBox="0 0 25 24" fill="none" xmlns="http://www.w3.org/2000/svg">
<path d="M15.5883 3V5.84877" stroke="black" stroke-width="1.5" stroke-linecap="round" stroke-linejoin="round"/>
<path d="M8.5953 3V5.84877" stroke="black" stroke-width="1.5" stroke-linecap="round" stroke-linejoin="round"/>
<path d="M19.8766 10.8791V8.38543C19.8844 5.78184 18.3043 4.36621 15.7552 4.36621H8.42604C5.88374 4.36621 4.29688 5.78184 4.29688 8.38543V16.2176C4.29688 18.8621 5.88374 20.3108 8.42604 20.3108H10.2746" stroke="black" stroke-width="1.5" stroke-linecap="round" stroke-linejoin="round"/>
<path opacity="0.4" fill-rule="evenodd" clip-rule="evenodd" d="M20.8717 17.0958C20.8717 19.2519 19.1233 21.0002 16.9672 21.0002C14.8112 21.0002 13.0628 19.2519 13.0628 17.0958C13.0628 14.9398 14.8112 13.1914 16.9672 13.1914C19.1233 13.1914 20.8717 14.9398 20.8717 17.0958Z" stroke="black" stroke-width="1.5" stroke-linecap="round" stroke-linejoin="round"/>
<path d="M18.1798 18.1095L16.9451 17.372V15.7852" stroke="black" stroke-width="1.5" stroke-linecap="round" stroke-linejoin="round"/>
<path opacity="0.4" d="M16.1732 9.63588H8.00241" stroke="black" stroke-width="1.5" stroke-linecap="round" stroke-linejoin="round"/>
</svg>