<svg width="24" height="24" viewBox="0 0 24 24" fill="none" xmlns="http://www.w3.org/2000/svg">
<path fill-rule="evenodd" clip-rule="evenodd" d="M16.419 11.797H12.432C12.018 11.797 11.682 11.461 11.682 11.047C11.682 10.633 12.018 10.297 12.432 10.297H16.419C16.833 10.297 17.169 10.633 17.169 11.047C17.169 11.461 16.833 11.797 16.419 11.797ZM16.419 16.645H12.432C12.018 16.645 11.682 16.309 11.682 15.895C11.682 15.481 12.018 15.145 12.432 15.145H16.419C16.833 15.145 17.169 15.481 17.169 15.895C17.169 16.309 16.833 16.645 16.419 16.645ZM10.357 10.198L8.87396 11.681C8.72796 11.828 8.53596 11.901 8.34396 11.901C8.15196 11.901 7.95996 11.828 7.81396 11.681L7.05196 10.92C6.75896 10.627 6.75896 10.152 7.05196 9.859C7.34496 9.566 7.81896 9.566 8.11196 9.859L8.34396 10.09L9.29696 9.138C9.58996 8.845 10.065 8.845 10.357 9.138C10.65 9.431 10.65 9.906 10.357 10.198ZM10.357 15.049L8.87396 16.532C8.72796 16.679 8.53596 16.752 8.34396 16.752C8.15196 16.752 7.95996 16.679 7.81396 16.532L7.05196 15.771C6.75896 15.478 6.75896 15.003 7.05196 14.71C7.34496 14.417 7.81896 14.417 8.11196 14.71L8.34396 14.942L9.29696 13.989C9.58996 13.696 10.065 13.696 10.357 13.989C10.65 14.282 10.65 14.757 10.357 15.049ZM19.369 5.327C18.687 4.644 17.727 4.248 16.592 4.119V3.125C16.592 2.711 16.256 2.375 15.842 2.375C15.428 2.375 15.092 2.711 15.092 3.125V5.701C15.092 6.002 15.272 6.258 15.528 6.378C15.432 6.422 15.327 6.451 15.214 6.451C14.8 6.451 14.464 6.115 14.464 5.701V4.247C14.464 4.13654 14.3744 4.047 14.264 4.047H9.32096V3.125C9.32096 2.711 8.98496 2.375 8.57096 2.375C8.15696 2.375 7.82096 2.711 7.82096 3.125V5.701C7.82096 6.002 8.00096 6.258 8.25696 6.378C8.16096 6.422 8.05596 6.451 7.94296 6.451C7.52896 6.451 7.19296 6.115 7.19296 5.701V4.35486C7.19296 4.23272 7.08428 4.13884 6.96425 4.16147C4.711 4.58625 3.39996 6.22254 3.39996 8.726V16.871C3.39996 19.849 5.19196 21.626 8.19396 21.626H15.807C18.808 21.626 20.6 19.874 20.6 16.939V8.728C20.604 7.315 20.178 6.139 19.369 5.327Z" fill="black"/>
</svg>