<svg width="24" height="24" viewBox="0 0 24 24" fill="none" xmlns="http://www.w3.org/2000/svg">
<path opacity="0.4" fill-rule="evenodd" clip-rule="evenodd" d="M16.53 3.69609V2.99609C16.53 2.58609 16.19 2.24609 15.78 2.24609C15.36 2.24609 15.03 2.58609 15.03 2.99609V5.95609C15.03 6.24609 15.2 6.49609 15.44 6.61609C15.34 6.67609 15.23 6.70609 15.11 6.70609C14.69 6.70609 14.36 6.37609 14.36 5.95609V3.86609C14.36 3.75564 14.2705 3.66609 14.16 3.66609H9.24999V2.99609C9.24999 2.58609 8.91999 2.24609 8.49999 2.24609C8.08999 2.24609 7.74999 2.58609 7.74999 2.99609V5.95609C7.74999 6.24609 7.92999 6.49609 8.16999 6.61609C8.06999 6.67609 7.95999 6.70609 7.83999 6.70609C7.41999 6.70609 7.08999 6.37609 7.08999 5.95609V4.0007C7.08999 3.87428 6.97398 3.7794 6.85151 3.81077C4.75008 4.34896 3.17999 6.26172 3.17999 8.54609V17.0761C3.17999 19.6461 5.25999 21.7561 7.80999 21.7561H13.3C13.57 21.7561 13.77 21.5361 13.77 21.2761V17.9361C13.77 16.0361 15.32 14.4761 17.2 14.4661H20.36C20.62 14.4661 20.82 14.2561 20.82 14.0061V8.32609C20.82 5.86609 18.93 3.86609 16.53 3.69609Z" fill="black"/>
<path fill-rule="evenodd" clip-rule="evenodd" d="M19.8974 15.9777C19.0524 15.9747 18.0574 15.9777 17.3414 15.9847C16.2054 15.9847 15.2694 16.9307 15.2694 18.0777V20.8127C15.2694 21.2597 15.8064 21.4827 16.1134 21.1597C16.6694 20.5757 17.4344 19.7727 18.1944 18.9737C18.9534 18.1767 19.7084 17.3837 20.2494 16.8147C20.5494 16.5007 20.3294 15.9787 19.8974 15.9777Z" fill="black"/>
<path fill-rule="evenodd" clip-rule="evenodd" d="M14.54 11.2051H7.89999C7.48999 11.2051 7.14999 10.8651 7.14999 10.4551C7.14999 10.0351 7.48999 9.70508 7.89999 9.70508H14.54C14.95 9.70508 15.29 10.0351 15.29 10.4551C15.29 10.8651 14.95 11.2051 14.54 11.2051ZM10.82 15.2751H7.89999C7.48999 15.2751 7.14999 14.9451 7.14999 14.5251C7.14999 14.1151 7.48999 13.7751 7.89999 13.7751H10.82C11.23 13.7751 11.57 14.1151 11.57 14.5251C11.57 14.9451 11.23 15.2751 10.82 15.2751Z" fill="black"/>
</svg>