<svg width="24" height="24" viewBox="0 0 24 24" fill="none" xmlns="http://www.w3.org/2000/svg">
<path opacity="0.4" fill-rule="evenodd" clip-rule="evenodd" d="M12.54 13.1161H11.13V14.5261C11.13 14.9361 10.8 15.2761 10.38 15.2761C9.96999 15.2761 9.62999 14.9361 9.62999 14.5261V13.1161H8.22999C7.80999 13.1161 7.47999 12.7761 7.47999 12.3661C7.47999 11.9561 7.80999 11.6161 8.22999 11.6161H9.62999V10.2061C9.62999 9.79609 9.96999 9.45609 10.38 9.45609C10.8 9.45609 11.13 9.79609 11.13 10.2061V11.6161H12.54C12.96 11.6161 13.29 11.9561 13.29 12.3661C13.29 12.7761 12.96 13.1161 12.54 13.1161ZM16.53 3.69609V2.99609C16.53 2.58609 16.19 2.24609 15.78 2.24609C15.36 2.24609 15.03 2.58609 15.03 2.99609V5.95609C15.03 6.24609 15.2 6.49609 15.44 6.61609C15.34 6.67609 15.23 6.70609 15.11 6.70609C14.69 6.70609 14.36 6.37609 14.36 5.95609V3.86609C14.36 3.75564 14.2705 3.66609 14.16 3.66609H9.24999V2.99609C9.24999 2.58609 8.91999 2.24609 8.49999 2.24609C8.08999 2.24609 7.74999 2.58609 7.74999 2.99609V5.95609C7.74999 6.24609 7.92999 6.49609 8.16999 6.61609C8.06999 6.67609 7.95999 6.70609 7.83999 6.70609C7.41999 6.70609 7.08999 6.37609 7.08999 5.95609V4.0007C7.08999 3.87428 6.97398 3.7794 6.85151 3.81077C4.75008 4.34896 3.17999 6.26172 3.17999 8.54609V17.0761C3.17999 19.6461 5.25999 21.7561 7.80999 21.7561H13.3C13.57 21.7561 13.77 21.5361 13.77 21.2761V17.9361C13.77 16.0361 15.32 14.4761 17.2 14.4661H20.36C20.62 14.4661 20.82 14.2561 20.82 14.0061V8.32609C20.82 5.86609 18.93 3.86609 16.53 3.69609Z" fill="black"/>
<path fill-rule="evenodd" clip-rule="evenodd" d="M12.54 13.117H11.13V14.527C11.13 14.937 10.8 15.277 10.38 15.277C9.97 15.277 9.63 14.937 9.63 14.527V13.117H8.23C7.81 13.117 7.48 12.777 7.48 12.367C7.48 11.957 7.81 11.617 8.23 11.617H9.63V10.207C9.63 9.79703 9.97 9.45703 10.38 9.45703C10.8 9.45703 11.13 9.79703 11.13 10.207V11.617H12.54C12.96 11.617 13.29 11.957 13.29 12.367C13.29 12.777 12.96 13.117 12.54 13.117Z" fill="black"/>
<path fill-rule="evenodd" clip-rule="evenodd" d="M19.8974 15.9777C19.0524 15.9747 18.0574 15.9777 17.3414 15.9847C16.2054 15.9847 15.2694 16.9307 15.2694 18.0777V20.8127C15.2694 21.2597 15.8064 21.4827 16.1134 21.1597C16.6694 20.5757 17.4344 19.7727 18.1944 18.9737C18.9534 18.1767 19.7084 17.3837 20.2494 16.8147C20.5494 16.5007 20.3294 15.9787 19.8974 15.9777Z" fill="black"/>
</svg>