<svg width="25" height="24" viewBox="0 0 25 24" fill="none" xmlns="http://www.w3.org/2000/svg">
<path fill-rule="evenodd" clip-rule="evenodd" d="M4.7891 4.95314C5.70808 4.07929 6.98718 3.67188 8.44413 3.67188H16.0645C17.5247 3.67188 18.8045 4.07898 19.7222 4.95382C20.6453 5.83394 21.1045 7.09459 21.1004 8.60159V14.6041C21.1004 15.362 20.8076 16.09 20.2825 16.6372L16.2397 20.8484C15.6862 21.4241 14.9217 21.7514 14.1214 21.7514H8.44413C6.98267 21.7514 5.70195 21.3328 4.78385 20.4427C3.86206 19.549 3.40039 18.2716 3.40039 16.7456V8.6008C3.40039 7.09265 3.86437 5.83246 4.7891 4.95314ZM5.82274 6.04015C5.2615 6.57383 4.90039 7.40311 4.90039 8.6008V16.7456C4.90039 17.9682 5.26381 18.8187 5.82799 19.3658C6.39586 19.9163 7.26201 20.2514 8.44413 20.2514H14.1214C14.5121 20.2514 14.8863 20.0918 15.158 19.8092L19.2001 15.5988C19.2002 15.5987 19.2001 15.5988 19.2001 15.5988C19.4573 15.3307 19.6004 14.9746 19.6004 14.6041V8.6008L19.6004 8.59864C19.6039 7.40041 19.2458 6.5721 18.6871 6.03948C18.1226 5.50132 17.2556 5.17188 16.0645 5.17188H8.44413C7.25751 5.17188 6.38974 5.501 5.82274 6.04015Z" fill="black"/>
<path fill-rule="evenodd" clip-rule="evenodd" d="M17.3581 14.3711L17.3601 14.3711L20.2809 14.3711C20.6952 14.3711 21.0309 14.7069 21.0309 15.1211C21.0309 15.5353 20.6952 15.8711 20.2809 15.8711H17.3611C16.2694 15.8744 15.386 16.7601 15.3867 17.8518L15.3867 20.9366C15.3867 21.3508 15.0509 21.6866 14.6367 21.6866C14.2225 21.6866 13.8867 21.3508 13.8867 20.9366V17.8525C13.8867 17.8524 13.8867 17.8526 13.8867 17.8525C13.8857 15.9324 15.44 14.3761 17.3581 14.3711Z" fill="black"/>
<path fill-rule="evenodd" clip-rule="evenodd" d="M8.61914 2.25C9.03335 2.25 9.36914 2.58579 9.36914 3V5.96174C9.36914 6.37595 9.03335 6.71174 8.61914 6.71174C8.20493 6.71174 7.86914 6.37595 7.86914 5.96174V3C7.86914 2.58579 8.20493 2.25 8.61914 2.25ZM15.8903 2.25C16.3045 2.25 16.6403 2.58579 16.6403 3V5.96174C16.6403 6.37595 16.3045 6.71174 15.8903 6.71174C15.4761 6.71174 15.1403 6.37595 15.1403 5.96174V3C15.1403 2.58579 15.4761 2.25 15.8903 2.25Z" fill="black"/>
<path fill-rule="evenodd" clip-rule="evenodd" d="M11.8888 9.46094C12.303 9.46094 12.6388 9.79672 12.6388 10.2109V11.6197H14.0466C14.4608 11.6197 14.7966 11.9555 14.7966 12.3697C14.7966 12.7839 14.4608 13.1197 14.0466 13.1197H12.6388V14.5271C12.6388 14.9413 12.303 15.2771 11.8888 15.2771C11.4746 15.2771 11.1388 14.9413 11.1388 14.5271V13.1197H9.73047C9.31626 13.1197 8.98047 12.7839 8.98047 12.3697C8.98047 11.9555 9.31626 11.6197 9.73047 11.6197H11.1388V10.2109C11.1388 9.79672 11.4746 9.46094 11.8888 9.46094Z" fill="black"/>
</svg>