<svg width="25" height="24" viewBox="0 0 25 24" fill="none" xmlns="http://www.w3.org/2000/svg">
<path d="M4.48779 9.66422H20.5293" stroke="black" stroke-width="1.5" stroke-linecap="round" stroke-linejoin="round"/>
<path d="M16.1427 3V5.96174" stroke="black" stroke-width="1.5" stroke-linecap="round" stroke-linejoin="round"/>
<path d="M8.87223 3V5.96174" stroke="black" stroke-width="1.5" stroke-linecap="round" stroke-linejoin="round"/>
<path fill-rule="evenodd" clip-rule="evenodd" d="M16.3184 4.42188H8.69804C6.05446 4.42188 4.4043 5.89399 4.4043 8.59984V16.7456C4.4043 19.4943 6.05446 21.0004 8.69804 21.0004H16.3106C18.962 21.0004 20.6044 19.5205 20.6044 16.8137V8.59984C20.6121 5.89399 18.9698 4.42188 16.3184 4.42188Z" stroke="black" stroke-width="1.5" stroke-linecap="round" stroke-linejoin="round"/>
<path fill-rule="evenodd" clip-rule="evenodd" d="M13.9038 16.4922C12.9649 17.4311 11.4412 17.4311 10.5023 16.4922C9.56239 15.5533 9.56239 14.0296 10.5023 13.0907C11.4412 12.1508 12.9649 12.1508 13.9038 13.0907C14.8427 14.0296 14.8427 15.5533 13.9038 16.4922Z" stroke="black" stroke-width="1.5" stroke-linecap="round" stroke-linejoin="round"/>
<path d="M15.2081 17.793L13.9043 16.4902" stroke="black" stroke-width="1.5" stroke-linecap="round" stroke-linejoin="round"/>
</svg>