<svg width="24" height="24" viewBox="0 0 24 24" fill="none" xmlns="http://www.w3.org/2000/svg">
<path fill-rule="evenodd" clip-rule="evenodd" d="M7.99921 17.0369C8.42721 17.0369 8.77521 17.3839 8.77521 17.8129C8.77521 18.2409 8.42721 18.5889 7.99921 18.5889C7.57121 18.5889 7.22321 18.2409 7.22321 17.8129C7.22321 17.3839 7.57121 17.0369 7.99921 17.0369ZM12.0372 17.0369C12.4652 17.0369 12.8132 17.3839 12.8132 17.8129C12.8132 18.2409 12.4652 18.5889 12.0372 18.5889C11.6082 18.5889 11.2612 18.2409 11.2612 17.8129C11.2612 17.3839 11.6082 17.0369 12.0372 17.0369ZM12.0372 13.5419C12.4652 13.5419 12.8132 13.8889 12.8132 14.3179C12.8132 14.7459 12.4652 15.0939 12.0372 15.0939C11.6082 15.0939 11.2612 14.7459 11.2612 14.3179C11.2612 13.8889 11.6082 13.5419 12.0372 13.5419ZM15.2722 14.3089C15.2722 13.8949 15.6082 13.5589 16.0222 13.5589C16.4362 13.5589 16.7762 13.8949 16.7762 14.3089C16.7762 14.3359 16.7752 14.3609 16.7722 14.3859V17.8069C16.7722 18.2209 16.4362 18.5569 16.0222 18.5569C15.6082 18.5569 15.2722 18.2209 15.2722 17.8069V14.3089ZM3.40021 16.8649C3.40021 19.8449 5.19021 21.6249 8.19021 21.6249H15.8102C18.8102 21.6249 20.6002 19.8749 20.6002 16.9349V11.2249C20.6002 11.1144 20.5107 11.0249 20.4002 11.0249H3.60021C3.48975 11.0249 3.40021 11.1144 3.40021 11.2249V16.8649Z" fill="black"/>
<path fill-rule="evenodd" clip-rule="evenodd" d="M19.3699 5.325C18.6399 4.605 17.6099 4.195 16.3899 4.085V3.125C16.3899 2.715 16.0499 2.375 15.6399 2.375C15.2199 2.375 14.8899 2.715 14.8899 3.125V6.675C14.8199 6.695 14.7599 6.715 14.6899 6.715C14.2699 6.715 13.9399 6.375 13.9399 5.965V4.245C13.9399 4.13454 13.8504 4.045 13.7399 4.045H9.1099V3.125C9.1099 2.715 8.7799 2.375 8.3599 2.375C7.9499 2.375 7.6099 2.715 7.6099 3.125V6.675C7.5499 6.695 7.4799 6.715 7.4099 6.715C6.9999 6.715 6.6599 6.375 6.6599 5.965V4.50055C6.6599 4.37063 6.53754 4.27513 6.41308 4.31245C4.50437 4.88473 3.3999 6.43211 3.3999 8.725V9.325C3.3999 9.43546 3.48945 9.525 3.5999 9.525H20.3999C20.5104 9.525 20.5999 9.43546 20.5999 9.325V8.725C20.5999 7.315 20.1799 6.135 19.3699 5.325Z" fill="black"/>
</svg>