<svg width="25" height="24" viewBox="0 0 25 24" fill="none" xmlns="http://www.w3.org/2000/svg">
<path fill-rule="evenodd" clip-rule="evenodd" d="M7.58643 9.60352C7.58643 9.1893 7.92221 8.85352 8.33643 8.85352H16.8325C17.2467 8.85352 17.5825 9.1893 17.5825 9.60352C17.5825 10.0177 17.2467 10.3535 16.8325 10.3535H8.33643C7.92221 10.3535 7.58643 10.0177 7.58643 9.60352Z" fill="black"/>
<path fill-rule="evenodd" clip-rule="evenodd" d="M8.94434 2.25C9.35855 2.25 9.69434 2.58579 9.69434 3V5.57644C9.69434 5.99065 9.35855 6.32644 8.94434 6.32644C8.53012 6.32644 8.19434 5.99065 8.19434 5.57644V3C8.19434 2.58579 8.53012 2.25 8.94434 2.25Z" fill="black"/>
<path fill-rule="evenodd" clip-rule="evenodd" d="M16.2173 2.25C16.6315 2.25 16.9673 2.58579 16.9673 3V5.57644C16.9673 5.99065 16.6315 6.32644 16.2173 6.32644C15.8031 6.32644 15.4673 5.99065 15.4673 5.57644V3C15.4673 2.58579 15.8031 2.25 16.2173 2.25Z" fill="black"/>
<path fill-rule="evenodd" clip-rule="evenodd" d="M6.14764 6.03908C5.58906 6.57144 5.23095 7.39945 5.2344 8.59768L5.23441 8.59984L5.2344 16.8137C5.2344 18.013 5.59428 18.8445 6.15489 19.3796C6.7208 19.9198 7.58804 20.2504 8.77815 20.2504H16.3907C17.573 20.2504 18.4391 19.9156 19.0069 19.3652C19.5711 18.8185 19.9345 17.9683 19.9345 16.7456V8.59984C19.9345 7.40215 19.5734 6.57317 19.0122 6.03976C18.4452 5.50083 17.5775 5.17188 16.3907 5.17188H8.77036C7.57909 5.17188 6.71207 5.50115 6.14764 6.03908ZM5.11277 4.95324C6.03042 4.07866 7.31028 3.67188 8.77036 3.67188H16.3907C17.8475 3.67188 19.1266 4.07898 20.0456 4.95257C20.9705 5.83167 21.4345 7.09167 21.4345 8.59984V16.7456C21.4345 18.2716 20.9728 19.5488 20.0509 20.4423C19.1328 21.3322 17.852 21.7504 16.3907 21.7504H8.77815C7.3169 21.7504 6.03726 21.341 5.11914 20.4646C4.19571 19.5831 3.7344 18.3212 3.7344 16.8137V8.60089C3.73029 7.09376 4.18948 5.83319 5.11277 4.95324Z" fill="black"/>
<path fill-rule="evenodd" clip-rule="evenodd" d="M8.41895 15.2607C8.41895 14.8465 8.75473 14.5107 9.16895 14.5107H15.9681C16.3823 14.5107 16.7181 14.8465 16.7181 15.2607C16.7181 15.675 16.3823 16.0107 15.9681 16.0107H9.16895C8.75473 16.0107 8.41895 15.675 8.41895 15.2607Z" fill="black"/>
<path fill-rule="evenodd" clip-rule="evenodd" d="M13.3879 12.8246C13.6703 12.5216 14.1449 12.5049 14.4479 12.7873L16.5126 14.7119C16.6648 14.8537 16.7512 15.0524 16.7512 15.2605C16.7512 15.4685 16.6648 15.6672 16.5126 15.8091L14.4479 17.7337C14.1449 18.0161 13.6703 17.9994 13.3879 17.6964C13.1055 17.3934 13.1221 16.9188 13.4251 16.6364L14.9012 15.2605L13.4251 13.8846C13.1221 13.6021 13.1055 13.1275 13.3879 12.8246Z" fill="black"/>
</svg>