<svg width="25" height="25" viewBox="0 0 25 25" fill="none" xmlns="http://www.w3.org/2000/svg">
<path opacity="0.4" fill-rule="evenodd" clip-rule="evenodd" d="M3.42505 22.4098H21.075V11.0098H3.42505V22.4098Z" fill="black"/>
<path d="M16.985 2.65967V4.37967H21.075V9.50967H3.42505V4.37967H7.01505V7.20967H8.01505V2.65967H9.51505V4.37967H14.485V7.20967H15.485V2.65967H16.985Z" fill="black"/>
<path d="M8.89501 13.1299V14.6299H7.39501L7.38501 13.1299H8.89501Z" fill="black"/>
<path d="M8.89501 16.7199V18.2199H7.39501L7.38501 16.7199H8.89501Z" fill="black"/>
<path d="M13.005 18.2199V16.7199H11.495L11.505 18.2199H13.005Z" fill="black"/>
<path d="M13.005 13.1299V14.6299H11.505L11.495 13.1299H13.005Z" fill="black"/>
<path d="M17.115 18.2199V16.7199H15.605L15.615 18.2199H17.115Z" fill="black"/>
<path d="M17.115 13.1299V14.6299H15.615L15.605 13.1299H17.115Z" fill="black"/>
</svg>