<svg width="25" height="24" viewBox="0 0 25 24" fill="none" xmlns="http://www.w3.org/2000/svg">
<path fill-rule="evenodd" clip-rule="evenodd" d="M15.6625 11.294H8.2975C7.8835 11.294 7.5475 10.958 7.5475 10.544C7.5475 10.13 7.8835 9.794 8.2975 9.794H15.6625C16.0765 9.794 16.4125 10.13 16.4125 10.544C16.4125 10.958 16.0765 11.294 15.6625 11.294ZM16.0355 16.748L13.9715 18.674C13.8265 18.809 13.6425 18.875 13.4595 18.875C13.2585 18.875 13.0585 18.795 12.9115 18.637C12.6285 18.334 12.6445 17.859 12.9475 17.576L13.6185 16.95H8.6915C8.2775 16.95 7.9415 16.614 7.9415 16.2C7.9415 15.786 8.2775 15.45 8.6915 15.45H13.6195L12.9485 14.824C12.6445 14.542 12.6285 14.067 12.9105 13.764C13.1935 13.462 13.6675 13.444 13.9705 13.727L16.0345 15.65C16.1865 15.792 16.2735 15.991 16.2735 16.199C16.2735 16.407 16.1865 16.606 16.0355 16.748ZM19.4525 5.327C18.7295 4.602 17.6975 4.193 16.4705 4.091V3.125C16.4705 2.711 16.1345 2.375 15.7205 2.375C15.3065 2.375 14.9705 2.711 14.9705 3.125V6.674C14.9055 6.693 14.8405 6.715 14.7695 6.715C14.3555 6.715 14.0195 6.379 14.0195 5.965V4.247C14.0195 4.13654 13.93 4.047 13.8195 4.047H9.1975V3.125C9.1975 2.711 8.8615 2.375 8.4475 2.375C8.0335 2.375 7.6975 2.711 7.6975 3.125V6.674C7.6325 6.693 7.5675 6.715 7.4965 6.715C7.0825 6.715 6.7465 6.379 6.7465 5.965V4.50003C6.7465 4.36996 6.62387 4.27444 6.49934 4.31203C4.59068 4.88814 3.4845 6.438 3.4845 8.725V16.87C3.4845 19.848 5.2765 21.625 8.2775 21.625H15.8905C18.8915 21.625 20.6835 19.873 20.6835 16.939V8.726C20.6875 7.314 20.2615 6.139 19.4525 5.327Z" fill="black"/>
</svg>