<svg width="25" height="25" viewBox="0 0 25 25" fill="none" xmlns="http://www.w3.org/2000/svg">
<path fill-rule="evenodd" clip-rule="evenodd" d="M5.03915 5.07187C5.95818 4.19812 7.2373 3.79102 8.69413 3.79102H16.3145C17.7746 3.79102 19.0544 4.1978 19.9721 5.07255C20.8953 5.95259 21.3545 7.21331 21.3504 8.72073V16.9328C21.3504 18.4403 20.8891 19.7024 19.9658 20.5841C19.0477 21.4608 17.7681 21.8705 16.3067 21.8705H8.69413C7.23267 21.8705 5.95195 21.452 5.03385 20.5618C4.11206 19.6681 3.65039 18.3907 3.65039 16.8647V8.71994C3.65039 7.21137 4.11433 5.95112 5.03915 5.07187ZM6.07269 6.15898C5.51153 6.69248 5.15039 7.5217 5.15039 8.71994V16.8647C5.15039 18.0874 5.51381 18.9379 6.07799 19.4849C6.64586 20.0355 7.51201 20.3705 8.69413 20.3705H16.3067C17.4967 20.3705 18.3639 20.0398 18.9298 19.4993C19.4905 18.9639 19.8504 18.1322 19.8504 16.9328V8.71994L19.8504 8.71779C19.8539 7.519 19.4957 6.69074 18.9371 6.1583C18.3727 5.62028 17.5057 5.29102 16.3145 5.29102H8.69413C7.50738 5.29102 6.63963 5.61997 6.07269 6.15898Z" fill="black"/>
<path fill-rule="evenodd" clip-rule="evenodd" d="M8.86914 2.36914C9.28335 2.36914 9.61914 2.70493 9.61914 3.11914V5.69558C9.61914 6.10979 9.28335 6.44558 8.86914 6.44558C8.45493 6.44558 8.11914 6.10979 8.11914 5.69558V3.11914C8.11914 2.70493 8.45493 2.36914 8.86914 2.36914ZM16.1403 2.36914C16.5545 2.36914 16.8903 2.70493 16.8903 3.11914V5.69558C16.8903 6.10979 16.5545 6.44558 16.1403 6.44558C15.7261 6.44558 15.3903 6.10979 15.3903 5.69558V3.11914C15.3903 2.70493 15.7261 2.36914 16.1403 2.36914Z" fill="black"/>
<path fill-rule="evenodd" clip-rule="evenodd" d="M16.4639 13.8857C16.8781 13.8857 17.2139 14.2215 17.2139 14.6357V16.7291C17.2139 17.1433 16.8781 17.4791 16.4639 17.4791C16.0497 17.4791 15.7139 17.1433 15.7139 16.7291V14.6357C15.7139 14.2215 16.0497 13.8857 16.4639 13.8857Z" fill="black"/>
<path fill-rule="evenodd" clip-rule="evenodd" d="M11.2349 13.1191C11.6491 13.1191 11.9849 13.4549 11.9849 13.8691V16.7298C11.9849 17.144 11.6491 17.4798 11.2349 17.4798C10.8206 17.4798 10.4849 17.144 10.4849 16.7298V13.8691C10.4849 13.4549 10.8206 13.1191 11.2349 13.1191Z" fill="black"/>
<path fill-rule="evenodd" clip-rule="evenodd" d="M13.8499 15.2056C14.2641 15.2056 14.5999 15.5414 14.5999 15.9556V16.7293C14.5999 17.1435 14.2641 17.4793 13.8499 17.4793C13.4356 17.4793 13.0999 17.1435 13.0999 16.7293V15.9556C13.0999 15.5414 13.4356 15.2056 13.8499 15.2056Z" fill="black"/>
<path fill-rule="evenodd" clip-rule="evenodd" d="M8.54443 15.2056C8.95865 15.2056 9.29443 15.5414 9.29443 15.9556V16.7293C9.29443 17.1435 8.95865 17.4793 8.54443 17.4793C8.13022 17.4793 7.79443 17.1435 7.79443 16.7293V15.9556C7.79443 15.5414 8.13022 15.2056 8.54443 15.2056Z" fill="black"/>
<path fill-rule="evenodd" clip-rule="evenodd" d="M17.3124 8.38308C17.6159 8.66497 17.6334 9.13952 17.3515 9.44302L14.6526 12.3489C14.4039 12.6167 13.9982 12.6662 13.6923 12.466L11.0767 10.7538L8.74892 13.2761C8.468 13.5805 7.99351 13.5995 7.68911 13.3186C7.38471 13.0377 7.36568 12.5632 7.6466 12.2588L10.405 9.26984C10.6535 9.00053 11.0603 8.95027 11.3669 9.15098L13.9843 10.8643L16.2525 8.42222C16.5344 8.11872 17.0089 8.1012 17.3124 8.38308Z" fill="black"/>
</svg>