<svg width="25" height="24" viewBox="0 0 25 24" fill="none" xmlns="http://www.w3.org/2000/svg">
<path fill-rule="evenodd" clip-rule="evenodd" d="M6.74288 10.5223C6.32288 10.5223 5.99288 10.1823 5.99288 9.7723C5.99288 9.3523 6.32288 9.0223 6.74288 9.0223H15.2329C15.6529 9.0223 15.9829 9.3523 15.9829 9.7723C15.9829 10.1823 15.6529 10.5223 15.2329 10.5223H6.74288ZM17.3729 11.8323C18.0484 11.8323 18.7014 11.9448 19.3124 12.1633C19.447 12.2114 19.5929 12.1143 19.5929 11.9713V8.2123C19.5929 6.8023 19.1629 5.6323 18.3529 4.8123C17.6329 4.0923 16.6029 3.6823 15.3729 3.5823V2.6123C15.3729 2.2023 15.0429 1.8623 14.6229 1.8623C14.2129 1.8623 13.8729 2.2023 13.8729 2.6123V6.1623C13.8129 6.1823 13.7429 6.2023 13.6729 6.2023C13.2629 6.2023 12.9229 5.8723 12.9229 5.4523V3.7323C12.9229 3.62185 12.8333 3.5323 12.7229 3.5323H8.10288V2.6123C8.10288 2.2023 7.76288 1.8623 7.35288 1.8623C6.94288 1.8623 6.60288 2.2023 6.60288 2.6123V6.1623C6.53288 6.1823 6.47288 6.2023 6.40288 6.2023C5.98288 6.2023 5.65288 5.8723 5.65288 5.4523V3.98906C5.65288 3.85876 5.52985 3.76321 5.40521 3.80118C3.49702 4.38248 2.39288 5.92935 2.39288 8.2123V16.3623C2.39288 19.3423 4.18288 21.1123 7.18288 21.1123H12.1461C12.3084 21.1123 12.4048 20.9279 12.3199 20.7896C11.7721 19.8968 11.4629 18.8542 11.4629 17.7323C11.4629 14.4723 14.1129 11.8323 17.3729 11.8323Z" fill="black"/>
<path fill-rule="evenodd" clip-rule="evenodd" d="M19.2271 19.1316C19.0861 19.3656 18.8381 19.4966 18.5821 19.4966C18.4521 19.4966 18.3191 19.4626 18.1991 19.3906L16.9631 18.6526C16.7361 18.5186 16.5981 18.2736 16.5981 18.0096V16.4226C16.5981 16.0086 16.9341 15.6726 17.3481 15.6726C17.7621 15.6726 18.0981 16.0086 18.0981 16.4226V17.5836L18.9671 18.1036C19.3231 18.3156 19.4391 18.7756 19.2271 19.1316ZM17.3701 13.3286C14.9411 13.3286 12.9661 15.3046 12.9661 17.7336C12.9661 20.1616 14.9411 22.1376 17.3701 22.1376C19.7991 22.1376 21.7751 20.1616 21.7751 17.7336C21.7751 15.3046 19.7991 13.3286 17.3701 13.3286Z" fill="black"/>
</svg>