<svg width="25" height="25" viewBox="0 0 25 25" fill="none" xmlns="http://www.w3.org/2000/svg">
<path fill-rule="evenodd" clip-rule="evenodd" d="M5.0391 5.07228C5.95808 4.19843 7.23718 3.79102 8.69413 3.79102H16.3145C17.7747 3.79102 19.0545 4.19812 19.9722 5.07296C20.8953 5.95308 21.3545 7.21373 21.3504 8.72073V14.7232C21.3504 15.4812 21.0576 16.2091 20.5325 16.7564L16.4897 20.9676C15.9362 21.5432 15.1717 21.8705 14.3714 21.8705H8.69413C7.23267 21.8705 5.95195 21.452 5.03385 20.5618C4.11206 19.6681 3.65039 18.3907 3.65039 16.8647V8.71994C3.65039 7.21179 4.11437 5.95161 5.0391 5.07228ZM6.07274 6.1593C5.5115 6.69297 5.15039 7.52225 5.15039 8.71994V16.8647C5.15039 18.0874 5.51381 18.9379 6.07799 19.4849C6.64586 20.0355 7.51201 20.3705 8.69413 20.3705H14.3714C14.7621 20.3705 15.1363 20.2109 15.408 19.9284L19.4501 15.7179C19.4501 15.718 19.4502 15.7179 19.4501 15.7179C19.7073 15.4498 19.8504 15.0938 19.8504 14.7232V8.71994L19.8504 8.71779C19.8539 7.51955 19.4958 6.69124 18.9371 6.15862C18.3726 5.62046 17.5056 5.29102 16.3145 5.29102H8.69413C7.50751 5.29102 6.63974 5.62014 6.07274 6.1593Z" fill="black"/>
<path fill-rule="evenodd" clip-rule="evenodd" d="M17.6081 14.4902L17.6101 14.4902L20.5309 14.4902C20.9452 14.4902 21.2809 14.826 21.2809 15.2402C21.2809 15.6545 20.9452 15.9902 20.5309 15.9902H17.6111C16.5194 15.9935 15.636 16.8792 15.6367 17.9709L15.6367 21.0557C15.6367 21.4699 15.3009 21.8057 14.8867 21.8057C14.4725 21.8057 14.1367 21.4699 14.1367 21.0557V17.9717C14.1367 17.9716 14.1367 17.9718 14.1367 17.9717C14.1357 16.0515 15.69 14.4952 17.6081 14.4902Z" fill="black"/>
<path fill-rule="evenodd" clip-rule="evenodd" d="M8.86914 2.36914C9.28335 2.36914 9.61914 2.70493 9.61914 3.11914V6.08088C9.61914 6.49509 9.28335 6.83088 8.86914 6.83088C8.45493 6.83088 8.11914 6.49509 8.11914 6.08088V3.11914C8.11914 2.70493 8.45493 2.36914 8.86914 2.36914ZM16.1403 2.36914C16.5545 2.36914 16.8903 2.70493 16.8903 3.11914V6.08088C16.8903 6.49509 16.5545 6.83088 16.1403 6.83088C15.7261 6.83088 15.3903 6.49509 15.3903 6.08088V3.11914C15.3903 2.70493 15.7261 2.36914 16.1403 2.36914Z" fill="black"/>
<path fill-rule="evenodd" clip-rule="evenodd" d="M10.5732 13.5332C10.9875 13.5332 11.3232 13.869 11.3232 14.2832V17.1439C11.3232 17.5581 10.9875 17.8939 10.5732 17.8939C10.159 17.8939 9.82324 17.5581 9.82324 17.1439V14.2832C9.82324 13.869 10.159 13.5332 10.5732 13.5332Z" fill="black"/>
<path fill-rule="evenodd" clip-rule="evenodd" d="M13.1882 15.6196C13.6024 15.6196 13.9382 15.9554 13.9382 16.3696V17.1433C13.9382 17.5576 13.6024 17.8933 13.1882 17.8933C12.774 17.8933 12.4382 17.5576 12.4382 17.1433V16.3696C12.4382 15.9554 12.774 15.6196 13.1882 15.6196Z" fill="black"/>
<path fill-rule="evenodd" clip-rule="evenodd" d="M7.88306 15.6196C8.29727 15.6196 8.63306 15.9554 8.63306 16.3696V17.1433C8.63306 17.5576 8.29727 17.8933 7.88306 17.8933C7.46884 17.8933 7.13306 17.5576 7.13306 17.1433V16.3696C7.13306 15.9554 7.46884 15.6196 7.88306 15.6196Z" fill="black"/>
<path fill-rule="evenodd" clip-rule="evenodd" d="M16.6508 8.79715C16.9543 9.07903 16.9718 9.55358 16.6899 9.85708L13.991 12.7629C13.7422 13.0308 13.3366 13.0803 13.0307 12.88L10.4151 11.1678L8.0873 13.6901C7.80638 13.9945 7.33189 14.0136 7.02749 13.7327C6.72309 13.4517 6.70406 12.9772 6.98498 12.6729L9.74338 9.68391C9.99192 9.41459 10.3987 9.36433 10.7053 9.56504L13.3227 11.2784L15.5908 8.83628C15.8727 8.53278 16.3473 8.51526 16.6508 8.79715Z" fill="black"/>
</svg>