<svg width="25" height="25" viewBox="0 0 25 25" fill="none" xmlns="http://www.w3.org/2000/svg">
<path fill-rule="evenodd" clip-rule="evenodd" d="M16.985 4.37967V2.65967H15.485V7.20967H14.485V4.37967H9.51505V2.65967H8.01505V7.20967H7.01505V4.37967H3.42505V9.50967H21.075V4.37967H16.985Z" fill="black"/>
<path fill-rule="evenodd" clip-rule="evenodd" d="M8.89505 16.7197V18.2197H7.39505L7.38505 16.7197H8.89505ZM8.89505 13.1297V14.6297H7.39505L7.38505 13.1297H8.89505ZM13.005 16.7197V18.2197H11.505L11.495 16.7197H13.005ZM13.005 13.1297V14.6297H11.505L11.495 13.1297H13.005ZM17.115 16.7197V18.2197H15.615L15.605 16.7197H17.115ZM17.115 13.1297V14.6297H15.615L15.605 13.1297H17.115ZM3.42505 22.4097H21.075V11.0097H3.42505V22.4097Z" fill="black"/>
</svg>