<svg width="25" height="25" viewBox="0 0 25 25" fill="none" xmlns="http://www.w3.org/2000/svg">
<path fill-rule="evenodd" clip-rule="evenodd" d="M6.25917 3.6308C6.17317 3.6308 6.08617 3.6388 5.99817 3.6528C4.88017 3.8418 3.87317 5.1458 3.66517 5.4848C2.62317 6.9498 3.43717 10.3468 8.73917 15.6498C14.0432 20.9528 17.4402 21.7648 18.8512 20.7598C19.2452 20.5158 20.5472 19.5128 20.7362 18.3928C20.8182 17.9058 20.6732 17.4438 20.2942 16.9818C18.0772 14.2898 17.3752 14.6308 16.4082 15.1018C14.9522 15.8118 13.5302 16.1848 10.8672 13.5228C8.20818 10.8618 8.57917 9.4398 9.28817 7.9828C9.76017 7.0138 10.1012 6.3138 7.40617 4.0938C7.02917 3.7838 6.65117 3.6308 6.25917 3.6308ZM17.5122 22.6598C15.5302 22.6598 12.3922 21.4238 7.67917 16.7098C0.641174 9.6728 1.35517 6.1458 2.40717 4.6688C2.40517 4.6688 3.72917 2.5518 5.69217 2.1848C6.62617 2.0108 7.54517 2.2698 8.35917 2.9348C11.7012 5.6888 11.3912 7.0908 10.6372 8.6388C10.1742 9.5898 9.80818 10.3408 11.9282 12.4618C14.0492 14.5808 14.8012 14.2188 15.7512 13.7528C17.3002 12.9998 18.7012 12.6878 21.4532 16.0288C22.1212 16.8448 22.3812 17.7698 22.2032 18.7048C21.8262 20.6968 19.6742 22.0128 19.6532 22.0248C19.1882 22.3588 18.4902 22.6598 17.5122 22.6598Z" fill="black"/>
</svg>