<svg width="25" height="25" viewBox="0 0 25 25" fill="none" xmlns="http://www.w3.org/2000/svg">
<path d="M21.7038 10.5393C21.3268 10.5393 21.0028 10.2563 20.9598 9.87334C20.5798 6.49734 17.9568 3.87734 14.5808 3.50234C14.1698 3.45634 13.8728 3.08634 13.9188 2.67434C13.9638 2.26334 14.3328 1.95634 14.7468 2.01234C18.8238 2.46434 21.9918 5.62834 22.4498 9.70534C22.4968 10.1173 22.1998 10.4883 21.7888 10.5343C21.7608 10.5373 21.7318 10.5393 21.7038 10.5393Z" fill="black"/>
<path d="M18.1625 10.5501C17.8105 10.5501 17.4975 10.3021 17.4275 9.9441C17.1395 8.4641 15.9985 7.3231 14.5205 7.0361C14.1135 6.9571 13.8485 6.5641 13.9275 6.1571C14.0065 5.7501 14.4095 5.4851 14.8065 5.5641C16.8875 5.9681 18.4945 7.5741 18.8995 9.6561C18.9785 10.0641 18.7135 10.4571 18.3075 10.5361C18.2585 10.5451 18.2105 10.5501 18.1625 10.5501Z" fill="black"/>
<path fill-rule="evenodd" clip-rule="evenodd" d="M7.48215 16.8362C12.1952 21.5502 15.3332 22.7862 17.3152 22.7862C18.2932 22.7862 18.9912 22.4852 19.4562 22.1512C19.4772 22.1392 21.6292 20.8232 22.0062 18.8312C22.1842 17.8962 21.9242 16.9712 21.2562 16.1552C18.5042 12.8142 17.1022 13.1262 15.5542 13.8792C14.6032 14.3452 13.8522 14.7072 11.7312 12.5882C9.6114 10.4675 9.97707 9.7164 10.44 8.76556C11.194 7.21756 11.5042 5.81523 8.16215 3.06123C7.34815 2.39623 6.42915 2.13623 5.49515 2.31123C3.53215 2.67823 2.20815 4.79523 2.21015 4.79523C1.15815 6.27223 0.444153 9.79923 7.48215 16.8362ZM5.80115 3.77923C5.88915 3.76523 5.97615 3.75723 6.06215 3.75723C6.45415 3.75723 6.83215 3.91023 7.20915 4.22023C9.90413 6.44021 9.56316 7.14022 9.09116 8.1092C8.38216 9.5662 8.01115 10.9882 10.6702 13.6492C13.3322 16.3102 14.7552 15.9392 16.2102 15.2282L16.2126 15.227C17.1804 14.7566 17.8801 14.4165 20.0972 17.1082C20.4762 17.5702 20.6212 18.0322 20.5392 18.5192C20.3502 19.6392 19.0482 20.6422 18.6542 20.8862C17.2432 21.8922 13.8462 21.0792 8.54215 15.7762C3.24015 10.4732 2.42615 7.07623 3.46815 5.61123C3.67615 5.27223 4.68315 3.96823 5.80115 3.77923Z" fill="black"/>
</svg>