<svg width="25" height="24" viewBox="0 0 25 24" fill="none" xmlns="http://www.w3.org/2000/svg">
<path fill-rule="evenodd" clip-rule="evenodd" d="M19.8571 14.8977C19.6151 14.6677 19.3531 14.4187 19.0771 14.1417C17.7921 12.8577 16.7301 13.2737 15.7941 13.6407C14.7291 14.0597 13.7221 14.4537 11.8851 12.6217C10.0481 10.7837 10.4421 9.77472 10.8591 8.70672C11.2261 7.76772 11.6421 6.70472 10.3601 5.42172C10.0781 5.13972 9.82507 4.87372 9.59107 4.62772C8.65007 3.63872 7.97007 2.92372 7.01407 2.91172C6.15407 2.91172 5.31707 3.42672 4.02207 4.72172C4.00907 4.73472 3.94407 4.79872 3.93307 4.81272C3.64607 5.09272 2.88307 5.83672 2.87507 7.29372C2.86207 9.56672 4.69407 12.5557 8.32007 16.1787C11.9331 19.7937 14.9151 21.6257 17.1841 21.6257H17.2071C18.6611 21.6177 19.4051 20.8557 19.6861 20.5687L19.7781 20.4787C21.0721 19.1867 21.5951 18.3207 21.5851 17.4907C21.5731 16.5297 20.8531 15.8447 19.8571 14.8977Z" fill="black"/>
<path fill-rule="evenodd" clip-rule="evenodd" d="M22.0694 2.844V2.843C22.0314 2.751 21.9774 2.666 21.9054 2.595C21.8344 2.524 21.7504 2.469 21.6584 2.432C21.5814 2.4 21.4994 2.389 21.4184 2.384C21.4034 2.383 21.3904 2.375 21.3754 2.375H21.3734L17.1544 2.385C16.7404 2.386 16.4054 2.723 16.4064 3.137C16.4074 3.55 16.7424 3.885 17.1564 3.885H17.1584L19.5594 3.88L15.6024 7.835C15.3094 8.128 15.3094 8.603 15.6024 8.896C15.7494 9.042 15.9414 9.116 16.1334 9.116C16.3244 9.116 16.5164 9.042 16.6634 8.896L20.6214 4.938L20.6164 7.343C20.6154 7.758 20.9504 8.094 21.3644 8.095H21.3664C21.7804 8.095 22.1154 7.76 22.1164 7.347L22.1254 3.127C22.1254 3.029 22.1054 2.933 22.0694 2.844Z" fill="black"/>
</svg>