<svg width="25" height="25" viewBox="0 0 25 25" fill="none" xmlns="http://www.w3.org/2000/svg">
<path fill-rule="evenodd" clip-rule="evenodd" d="M14.8608 2.36C14.4478 2.308 14.0778 2.611 14.0328 3.022C13.9868 3.434 14.2838 3.804 14.6948 3.85C18.0718 4.225 20.6938 6.845 21.0728 10.221C21.1158 10.604 21.4398 10.887 21.8168 10.887C21.8448 10.887 21.8738 10.885 21.9018 10.882C22.3128 10.837 22.6088 10.465 22.5628 10.053C22.1058 5.977 18.9388 2.813 14.8608 2.36Z" fill="black"/>
<path fill-rule="evenodd" clip-rule="evenodd" d="M17.5415 10.2916C17.6115 10.6496 17.9255 10.8976 18.2765 10.8976C18.3245 10.8976 18.3725 10.8936 18.4215 10.8846C18.8275 10.8056 19.0935 10.4106 19.0145 10.0046C18.6075 7.9226 17.0005 6.3156 14.9205 5.9116C14.5235 5.8326 14.1205 6.0986 14.0415 6.5056C13.9625 6.9116 14.2285 7.3056 14.6355 7.3846C16.1115 7.6716 17.2535 8.8126 17.5415 10.2916Z" fill="black"/>
<path fill-rule="evenodd" clip-rule="evenodd" d="M15.7759 14.4518C14.7779 14.9378 13.9139 15.3598 11.6669 13.1128C9.42088 10.8658 9.84088 10.0028 10.3279 9.00381C11.0329 7.55581 11.3179 6.23881 8.11588 3.60181C7.35088 2.97681 6.52088 2.73681 5.65388 2.90481C3.82088 3.24781 2.52588 5.28781 2.52788 5.28781C1.71588 6.42381 0.603876 9.83981 7.77088 17.0078C12.4849 21.7228 15.5769 22.8538 17.4529 22.8538C18.4289 22.8538 19.0759 22.5478 19.4499 22.2788C19.4699 22.2668 21.5279 20.9918 21.8759 19.1228C22.0379 18.2538 21.8019 17.4268 21.1759 16.6618C18.5399 13.4628 17.2229 13.7468 15.7759 14.4518Z" fill="black"/>
</svg>