<svg width="25" height="26" viewBox="0 0 25 26" fill="none" xmlns="http://www.w3.org/2000/svg">
<path fill-rule="evenodd" clip-rule="evenodd" d="M6.72904 2.86337L10.656 8.25748L8.93102 11.2532C8.99234 11.4341 9.09091 11.6944 9.23777 12.0043C9.5372 12.6361 10.0321 13.4627 10.8117 14.2422C11.6375 15.0681 12.5138 15.6095 13.1845 15.944C13.5181 16.1104 13.798 16.2242 13.9911 16.2954L16.9783 14.5754L22.516 18.6589L22.1929 19.2362C21.2675 20.8896 20.0864 22.0708 18.433 22.9961L18.2782 23.0828L18.101 23.0909C13.2223 23.3142 9.02726 20.6613 6.2041 17.3777C4.78768 15.7303 3.69289 13.8991 3.0115 12.1366C2.33526 10.3873 2.0418 8.64088 2.31355 7.18787L2.33737 7.0605L2.40255 6.94851C3.33731 5.34226 4.54413 4.14491 6.14307 3.20707L6.72904 2.86337ZM14.0736 17.1133C13.8754 17.8366 13.8751 17.8366 13.8749 17.8365L13.8733 17.8361L13.8705 17.8353L13.8626 17.8331L13.8384 17.826C13.8185 17.8202 13.7912 17.8119 13.7571 17.801C13.6887 17.7793 13.5929 17.7473 13.4739 17.7034C13.236 17.6158 12.9045 17.4806 12.515 17.2863C11.7376 16.8986 10.7178 16.2697 9.75103 15.3029C8.82267 14.3745 8.23674 13.3945 7.8823 12.6467C7.70471 12.272 7.58393 11.9528 7.50656 11.7234C7.46783 11.6085 7.43987 11.5158 7.42102 11.4494C7.41159 11.4163 7.40443 11.3896 7.39934 11.3701L7.39323 11.3461L7.39129 11.3382L7.39058 11.3353L7.3903 11.3341C7.39024 11.3339 7.39006 11.3331 8.11965 11.1593L7.39006 11.3331L7.32103 11.0433L8.87011 8.35297L6.32922 4.86277C5.26852 5.58502 4.44162 6.46287 3.76673 7.58833C3.60252 8.6518 3.8133 10.0507 4.41059 11.5957C5.02638 13.1886 6.02925 14.8736 7.3415 16.3998C9.93902 19.421 13.6568 21.7232 17.8546 21.5992C18.9924 20.936 19.844 20.1367 20.543 19.0677L16.8772 16.3645L14.1769 17.9193L13.8749 17.8365L14.0736 17.1133Z" fill="black"/>
</svg>