<svg width="25" height="24" viewBox="0 0 25 24" fill="none" xmlns="http://www.w3.org/2000/svg">
<path d="M17.0664 21.7383C14.7294 21.7383 11.6894 19.8833 8.02941 16.2233C4.35341 12.5493 2.49741 9.49834 2.51041 7.15634C2.50087 6.6588 2.59681 6.16488 2.79192 5.70709C2.98703 5.24931 3.2769 4.83803 3.64242 4.50034C3.65942 4.47934 3.71141 4.42834 3.73041 4.40934C5.07941 3.06134 5.97742 2.53134 6.90342 2.52734C7.96542 2.54134 8.71342 3.32734 9.65942 4.32734C9.89142 4.57134 10.1424 4.83534 10.4224 5.11534C10.9068 5.55424 11.2262 6.14593 11.3272 6.79175C11.4282 7.43758 11.3047 8.09851 10.9774 8.66434C10.5774 9.69634 10.2254 10.5873 11.9474 12.3083C13.6694 14.0293 14.5584 13.6793 15.5894 13.2753C16.1548 12.9478 16.8153 12.8239 17.461 12.9243C18.1066 13.0248 18.6983 13.3435 19.1374 13.8273C19.4134 14.1033 19.6744 14.3513 19.9154 14.5803C20.9154 15.5323 21.7064 16.2803 21.7204 17.3493C21.7314 18.2493 21.1874 19.1723 19.8414 20.5193L19.2144 20.0833L19.7504 20.6073C19.4128 20.9736 19.0013 21.2641 18.5431 21.4596C18.0849 21.6551 17.5905 21.7511 17.0924 21.7413L17.0664 21.7383ZM4.79641 5.46634C4.79641 5.46634 4.75042 5.51434 4.69642 5.57234C4.47247 5.77123 4.29528 6.01718 4.17754 6.29259C4.05981 6.56799 4.00445 6.86603 4.01542 7.16534C4.00842 8.48934 4.88341 10.9513 9.09441 15.1653C13.2854 19.3543 15.7434 20.2403 17.0714 20.2403H17.0884C17.388 20.2509 17.6863 20.1952 17.9618 20.0771C18.2374 19.9591 18.4834 19.7816 18.6824 19.5573C18.7341 19.5023 18.7892 19.4505 18.8474 19.4023C19.7604 18.4823 20.2304 17.8023 20.2254 17.3663C20.2204 16.9303 19.6604 16.4023 18.8874 15.6663C18.6374 15.4283 18.3674 15.1723 18.0874 14.8863C17.3874 14.1863 16.9964 14.3363 16.1464 14.6693C14.9464 15.1373 13.3124 15.7823 10.8964 13.3693C8.48141 10.9553 9.12242 9.31634 9.59042 8.11934C9.92342 7.26834 10.0754 6.88034 9.37241 6.17734C9.08241 5.88834 8.82242 5.61434 8.58242 5.36234C7.85242 4.59334 7.32341 4.03734 6.89341 4.03234C6.06948 4.298 5.34171 4.79976 4.80041 5.47534L4.79641 5.46634Z" fill="black"/>
<path d="M16.0176 8.97681C15.919 8.97694 15.8213 8.9576 15.7302 8.9199C15.6391 8.88219 15.5563 8.82686 15.4866 8.75708C15.4169 8.68731 15.3617 8.60446 15.3241 8.51329C15.2865 8.42212 15.2673 8.32443 15.2676 8.22581L15.2766 4.00681C15.2771 3.80815 15.3563 3.6178 15.4969 3.47742C15.6375 3.33704 15.8279 3.25808 16.0266 3.25781C16.1251 3.25807 16.2226 3.27773 16.3134 3.31567C16.4043 3.3536 16.4869 3.40907 16.5563 3.4789C16.6258 3.54873 16.6808 3.63155 16.7183 3.72265C16.7557 3.81374 16.7748 3.91132 16.7746 4.00981L16.7666 7.47581L20.2336 7.46781C20.4325 7.46781 20.6233 7.54683 20.7639 7.68748C20.9046 7.82813 20.9836 8.0189 20.9836 8.21781C20.9836 8.41672 20.9046 8.60749 20.7639 8.74814C20.6233 8.88879 20.4325 8.96781 20.2336 8.96781L16.0136 8.97681H16.0176Z" fill="black"/>
<path d="M16.0189 8.9801C15.8706 8.97997 15.7258 8.93592 15.6025 8.8535C15.4793 8.77108 15.3833 8.65399 15.3266 8.51703C15.2699 8.38006 15.255 8.22937 15.2839 8.08397C15.3128 7.93857 15.3841 7.80499 15.4889 7.7001L20.7299 2.4591C20.872 2.32662 21.0601 2.2545 21.2544 2.25793C21.4487 2.26136 21.6341 2.34007 21.7715 2.47748C21.9089 2.6149 21.9876 2.80028 21.991 2.99458C21.9945 3.18888 21.9224 3.37693 21.7899 3.5191L16.5489 8.7601C16.4795 8.83004 16.3969 8.88549 16.3059 8.92326C16.2149 8.96102 16.1174 8.98035 16.0189 8.9801Z" fill="black"/>
</svg>