<svg width="25" height="25" viewBox="0 0 25 25" fill="none" xmlns="http://www.w3.org/2000/svg">
<path opacity="0.4" fill-rule="evenodd" clip-rule="evenodd" d="M16.8854 14.455L13.9404 16.15C13.4204 15.97 11.9254 15.367 10.5584 14C9.27536 12.717 8.73936 11.3 8.58236 10.805L10.2814 7.85405L6.58336 2.77405L6.19336 3.00405C4.61136 3.93205 3.45036 5.09305 2.54136 6.65605L2.48336 6.81505C1.96936 9.55905 3.53936 13.603 6.38936 16.88C9.47936 20.432 13.4904 22.434 17.4734 22.434C17.6534 22.434 17.8334 22.431 18.0134 22.422L18.1324 22.417L18.2354 22.359C19.8374 21.461 21.0014 20.297 21.8984 18.695L22.1134 18.31L16.8854 14.455Z" fill="black"/>
<path fill-rule="evenodd" clip-rule="evenodd" d="M16.0361 11.1714L18.4621 8.74536L20.8891 11.1714L21.9491 10.1104L19.5231 7.68536L21.9491 5.25936L20.8891 4.19836L18.4621 6.62436L16.0361 4.19836L14.9751 5.25936L17.4021 7.68536L14.9751 10.1104L16.0361 11.1714Z" fill="black"/>
</svg>