<svg width="25" height="25" viewBox="0 0 25 25" fill="none" xmlns="http://www.w3.org/2000/svg">
<path fill-rule="evenodd" clip-rule="evenodd" d="M19.845 6.10504L22.315 3.63504C22.608 3.34204 22.608 2.86804 22.315 2.57504C22.022 2.28204 21.547 2.28204 21.254 2.57504L18.784 5.04404L16.315 2.57504C16.022 2.28204 15.547 2.28204 15.254 2.57504C14.961 2.86804 14.961 3.34204 15.254 3.63504L17.724 6.10504L15.254 8.57504C14.961 8.86804 14.961 9.34204 15.254 9.63504C15.401 9.78204 15.592 9.85504 15.784 9.85504C15.977 9.85504 16.168 9.78204 16.315 9.63504L18.784 7.16604L21.254 9.63504C21.401 9.78204 21.592 9.85504 21.784 9.85504C21.977 9.85504 22.168 9.78204 22.315 9.63504C22.608 9.34204 22.608 8.86804 22.315 8.57504L19.845 6.10504Z" fill="black"/>
<path fill-rule="evenodd" clip-rule="evenodd" d="M15.8079 14.4517C14.8099 14.9377 13.9469 15.3597 11.6999 13.1127C9.45387 10.8657 9.87287 10.0027 10.3609 9.00375C11.0649 7.55575 11.3499 6.23875 8.14787 3.60175C7.38487 2.97775 6.56287 2.74075 5.68887 2.90375C3.82887 3.24975 2.55787 5.28675 2.55987 5.28675C1.74887 6.42375 0.636873 9.84175 7.80387 17.0077C12.5159 21.7197 15.6079 22.8527 17.4839 22.8527C18.4609 22.8527 19.1099 22.5457 19.4859 22.2767C19.5059 22.2637 21.5749 20.9597 21.9109 19.1087C22.0669 18.2447 21.8309 17.4227 21.2079 16.6617C18.5749 13.4647 17.2569 13.7467 15.8079 14.4517Z" fill="black"/>
</svg>