<svg width="25" height="24" viewBox="0 0 25 24" fill="none" xmlns="http://www.w3.org/2000/svg">
<g opacity="0.4">
<path fill-rule="evenodd" clip-rule="evenodd" d="M22 17.3032C21.987 16.3322 21.259 15.6402 20.251 14.6822C20.004 14.4472 19.735 14.1912 19.453 13.9072C18.153 12.6072 17.076 13.0282 16.125 13.4012C15.039 13.8252 14.014 14.2292 12.144 12.3582H12.143C10.273 10.4912 10.674 9.46524 11.099 8.37924C11.471 7.42824 11.893 6.35024 10.594 5.04824C10.309 4.76324 10.052 4.49224 9.81505 4.24324C8.85905 3.23824 8.16805 2.51024 7.19905 2.49824C6.40905 2.48624 5.47905 3.02124 4.16305 4.33724C4.15005 4.35124 4.08205 4.41924 4.07005 4.43424C3.78005 4.71924 3.00705 5.47724 3.00005 6.95124C2.98905 9.25824 4.85005 12.2932 8.53205 15.9752C12.201 19.6442 15.228 21.5042 17.531 21.5032H17.562C19.037 21.4922 19.791 20.7172 20.075 20.4252L20.167 20.3352C21.479 19.0222 22.01 18.1442 22 17.3032Z" fill="black"/>
</g>
</svg>