<svg width="25" height="24" viewBox="0 0 25 24" fill="none" xmlns="http://www.w3.org/2000/svg">
<path fill-rule="evenodd" clip-rule="evenodd" d="M4.79551 5.34933C4.75489 5.39488 4.71235 5.43627 4.68964 5.45836C4.68697 5.46096 4.68457 5.4633 4.68248 5.46534L4.67933 5.46842C4.63982 5.50704 4.60209 5.54393 4.5606 5.58763C4.47746 5.67521 4.38461 5.78492 4.29853 5.92449C4.13263 6.19347 3.96626 6.61344 4.00593 7.26152C4.08804 8.6028 5.06264 11.0219 9.05682 15.0151C13.051 19.0084 15.4697 19.9814 16.8104 20.0625C17.4581 20.1016 17.8779 19.9349 18.1469 19.7687C18.2865 19.6824 18.3963 19.5894 18.484 19.506C18.5275 19.4647 18.5642 19.4272 18.6027 19.3878L18.6066 19.3838C18.6087 19.3817 18.611 19.3793 18.6135 19.3767C18.6357 19.3539 18.6772 19.3113 18.723 19.2705C19.4157 18.5758 19.8009 18.0801 19.9914 17.7075C20.1673 17.3634 20.1539 17.1747 20.1044 17.0251C20.0366 16.8203 19.858 16.5645 19.4705 16.1672C19.2836 15.9755 19.068 15.7701 18.8179 15.5324L18.8036 15.5187C18.5604 15.2875 18.2898 15.0301 18.0036 14.7441C17.5396 14.2804 17.2339 14.234 16.997 14.2517C16.8461 14.263 16.6758 14.306 16.4574 14.3829C16.3488 14.4211 16.2368 14.4645 16.1118 14.5136C16.0994 14.5184 16.0868 14.5233 16.0742 14.5283C15.9625 14.5721 15.8405 14.62 15.716 14.6656C15.153 14.8721 14.4379 15.0738 13.5759 14.9023C12.7211 14.7322 11.8314 14.2187 10.8423 13.2299C9.85321 12.2411 9.3394 11.3515 9.16884 10.4967C8.99685 9.63477 9.1978 8.91959 9.40376 8.35628C9.44932 8.23168 9.49706 8.10962 9.54075 7.99794C9.5457 7.98527 9.55061 7.97273 9.55545 7.96034C9.60435 7.83522 9.64767 7.72318 9.68577 7.61459C9.76249 7.396 9.80533 7.22563 9.8165 7.07466C9.83405 6.83741 9.78728 6.53158 9.32338 6.06769C9.03368 5.77798 8.77352 5.50411 8.54009 5.25839L8.53485 5.25287C8.29706 5.00255 8.09185 4.78675 7.90031 4.59945C7.5032 4.21116 7.24793 4.03227 7.04366 3.96435C6.89488 3.91489 6.7068 3.90107 6.36236 4.07727C5.98916 4.26819 5.49236 4.65444 4.79551 5.34933ZM9.62307 4.2205C9.85889 4.46876 10.108 4.73096 10.384 5.00703C11.0984 5.72143 11.3678 6.43723 11.3124 7.18535C11.2871 7.52707 11.1963 7.8403 11.1011 8.1113C11.0533 8.24751 11.0012 8.38177 10.9526 8.50631C10.9477 8.51879 10.9428 8.53116 10.938 8.54344C10.8935 8.65726 10.852 8.76346 10.8125 8.87137C10.6407 9.34126 10.5481 9.74338 10.6398 10.2032C10.733 10.6702 11.0403 11.3068 11.9028 12.1691C12.7653 13.0314 13.4019 13.3383 13.8686 13.4311C14.3281 13.5225 14.7299 13.4296 15.1995 13.2574C15.3074 13.2178 15.4136 13.1762 15.5274 13.1315C15.5396 13.1267 15.552 13.1219 15.5644 13.117C15.6889 13.0682 15.8231 13.016 15.9592 12.968C16.2301 12.8727 16.5433 12.7815 16.885 12.7559C17.6331 12.6999 18.3491 12.9688 19.0639 13.683C19.3368 13.9557 19.596 14.2023 19.8415 14.4358L19.8517 14.4454C20.097 14.6788 20.334 14.9043 20.5443 15.1198C20.9512 15.537 21.3454 16.0008 21.5284 16.5537C21.7296 17.1616 21.645 17.7684 21.327 18.3903C21.0254 18.9802 20.4995 19.6153 19.7646 20.3502C19.7499 20.3649 19.7346 20.379 19.7188 20.3924C19.7163 20.3949 19.7049 20.4061 19.6791 20.4325L19.6723 20.4394C19.6351 20.4775 19.5813 20.5326 19.5173 20.5934C19.3789 20.7249 19.1874 20.889 18.9354 21.0447C18.4213 21.3624 17.697 21.6188 16.7198 21.5597C14.8107 21.4443 12.0565 20.1351 7.99629 16.0759C3.93607 12.0167 2.62561 9.2624 2.50874 7.35317C2.44892 6.376 2.70459 5.65143 3.02184 5.13706C3.17732 4.88496 3.34134 4.69329 3.47278 4.55485C3.53398 4.49038 3.58926 4.43636 3.62748 4.39901C3.62967 4.39687 3.6318 4.39479 3.63387 4.39277C3.66061 4.36662 3.67182 4.35516 3.67424 4.35284C3.68755 4.33715 3.70149 4.322 3.71605 4.30745C4.45275 3.57074 5.08889 3.04385 5.67922 2.74186C6.30166 2.42345 6.90881 2.33879 7.5169 2.54096C8.06949 2.72469 8.53272 3.11992 8.94899 3.52695C9.16311 3.73631 9.3872 3.97221 9.61901 4.21624L9.62307 4.2205Z" fill="black"/>
<path fill-rule="evenodd" clip-rule="evenodd" d="M13.9787 6.32795C14.0576 5.92132 14.4513 5.65566 14.8579 5.73458C16.8025 6.112 18.3226 7.63212 18.7001 9.57676C18.779 9.98338 18.5133 10.377 18.1067 10.4559C17.7001 10.5348 17.3065 10.2692 17.2275 9.86255C16.9667 8.51848 15.9162 7.46796 14.5721 7.2071C14.1655 7.12819 13.8998 6.73457 13.9787 6.32795Z" fill="black"/>
<path fill-rule="evenodd" clip-rule="evenodd" d="M13.9695 3.09895C14.0152 2.68727 14.386 2.39058 14.7977 2.43629C18.5817 2.85638 21.5705 5.84198 21.9948 9.6259C22.041 10.0375 21.7447 10.4087 21.3331 10.4548C20.9215 10.501 20.5503 10.2047 20.5042 9.79308C20.1579 6.70575 17.7194 4.26986 14.6322 3.92713C14.2205 3.88142 13.9238 3.51064 13.9695 3.09895Z" fill="black"/>
</svg>