<svg width="25" height="25" viewBox="0 0 25 25" fill="none" xmlns="http://www.w3.org/2000/svg">
<path fill-rule="evenodd" clip-rule="evenodd" d="M20.6281 10.6342L20.7111 11.3802L22.2021 11.2122L22.1181 10.4672C21.6611 6.39019 18.4941 3.22619 14.4161 2.77319L13.6701 2.69019L13.5051 4.18119L14.2501 4.26419C17.6271 4.63919 20.2491 7.25919 20.6281 10.6342Z" fill="black"/>
<path fill-rule="evenodd" clip-rule="evenodd" d="M17.0968 10.7045L17.2408 11.4405L18.7128 11.1545L18.5698 10.4185C18.1638 8.3365 16.5578 6.7295 14.4768 6.3255L13.7408 6.1825L13.4538 7.6545L14.1898 7.79749C15.6678 8.08449 16.8088 9.22549 17.0968 10.7045Z" fill="black"/>
<path fill-rule="evenodd" clip-rule="evenodd" d="M13.8517 16.2338C13.3317 16.0538 11.8367 15.4498 10.4697 14.0838C9.1867 12.8008 8.6517 11.3828 8.4947 10.8888L10.1937 7.93779L6.4957 2.85779L6.1047 3.08779C4.5227 4.01579 3.3627 5.17579 2.4537 6.73879L2.3947 6.89879C1.8807 9.64279 3.4517 13.6868 6.3007 16.9628C9.3907 20.5158 13.4027 22.5178 17.3847 22.5178C17.5647 22.5178 17.7457 22.5138 17.9247 22.5058L18.0437 22.5008L18.1467 22.4418C19.7487 21.5448 20.9137 20.3808 21.8097 18.7788L22.0247 18.3938L16.7967 14.5388L13.8517 16.2338Z" fill="black"/>
</svg>