<svg width="25" height="25" viewBox="0 0 25 25" fill="none" xmlns="http://www.w3.org/2000/svg">
<path opacity="0.4" fill-rule="evenodd" clip-rule="evenodd" d="M13.8515 16.2338C13.3315 16.0538 11.8365 15.4498 10.4695 14.0838C9.18645 12.8008 8.65145 11.3828 8.49445 10.8888L10.1935 7.93779L6.49545 2.85779L6.10445 3.08779C4.52245 4.01579 3.36245 5.17579 2.45345 6.73879L2.39445 6.89879C1.88045 9.64279 3.45145 13.6868 6.30045 16.9628C9.39045 20.5158 13.4025 22.5178 17.3845 22.5178C17.5645 22.5178 17.7455 22.5138 17.9245 22.5058L18.0435 22.5008L18.1465 22.4418C19.7485 21.5448 20.9135 20.3808 21.8095 18.7788L22.0245 18.3938L16.7965 14.5388L13.8515 16.2338Z" fill="black"/>
<path fill-rule="evenodd" clip-rule="evenodd" d="M20.6279 10.6343L20.7109 11.3803L22.2019 11.2123L22.1179 10.4673C21.6609 6.39031 18.4939 3.22631 14.4159 2.77331L13.6699 2.69031L13.5049 4.18131L14.2499 4.26431C17.6269 4.63931 20.2489 7.25931 20.6279 10.6343Z" fill="black"/>
<path fill-rule="evenodd" clip-rule="evenodd" d="M17.0966 10.7046L17.2406 11.4406L18.7126 11.1546L18.5696 10.4186C18.1636 8.33662 16.5576 6.72962 14.4766 6.32562L13.7406 6.18262L13.4536 7.65462L14.1896 7.79762C15.6676 8.08462 16.8086 9.22562 17.0966 10.7046Z" fill="black"/>
</svg>