<svg width="25" height="25" viewBox="0 0 25 25" fill="none" xmlns="http://www.w3.org/2000/svg">
<path fill-rule="evenodd" clip-rule="evenodd" d="M16.0357 11.1713L18.4617 8.74529L20.8887 11.1713L21.9487 10.1103L19.5227 7.68529L21.9487 5.25929L20.8887 4.19829L18.4617 6.62429L16.0357 4.19829L14.9747 5.25929L17.4017 7.68529L14.9747 10.1103L16.0357 11.1713Z" fill="black"/>
<path fill-rule="evenodd" clip-rule="evenodd" d="M16.8854 14.455L13.9404 16.15C13.4204 15.97 11.9254 15.367 10.5584 14C9.27536 12.717 8.73936 11.3 8.58236 10.805L10.2814 7.85399L6.58336 2.77399L6.19336 3.00399C4.61136 3.93199 3.45036 5.09299 2.54136 6.65599L2.48336 6.81499C1.96936 9.55899 3.53936 13.603 6.38936 16.88C9.47936 20.432 13.4904 22.434 17.4734 22.434C17.6534 22.434 17.8334 22.431 18.0134 22.422L18.1324 22.417L18.2354 22.359C19.8374 21.461 21.0014 20.297 21.8984 18.695L22.1134 18.31L16.8854 14.455Z" fill="black"/>
</svg>