<svg width="25" height="25" viewBox="0 0 25 25" fill="none" xmlns="http://www.w3.org/2000/svg">
<path fill-rule="evenodd" clip-rule="evenodd" d="M6.20774 16.2593L9.59174 12.4263L9.39474 12.1103C8.92174 11.3503 8.67974 10.6893 8.58274 10.3823L10.2817 7.43126L6.58374 2.35126L6.19274 2.58126C4.61074 3.50926 3.45074 4.67026 2.54174 6.23326L2.48274 6.39226C2.00674 8.93526 3.32274 12.6253 5.83674 15.7923L6.20774 16.2593Z" fill="black"/>
<path fill-rule="evenodd" clip-rule="evenodd" d="M16.8855 14.0318L13.9405 15.7268C13.5885 15.6048 12.7895 15.2838 11.8935 14.6748L19.8645 6.17276L18.7695 5.14676L3.12848 21.8308L4.22348 22.8568L8.38148 18.4208C10.4415 20.1748 13.5225 22.0128 17.4385 22.0128C17.6275 22.0128 17.8205 22.0088 18.0135 21.9998L18.1325 21.9938L18.2355 21.9358C19.8385 21.0378 21.0015 19.8738 21.8985 18.2728L22.1135 17.8878L16.8855 14.0318Z" fill="black"/>
</svg>