<svg width="25" height="25" viewBox="0 0 25 25" fill="none" xmlns="http://www.w3.org/2000/svg">
<path d="M8.58217 10.8049C8.73917 11.2999 9.27516 12.7169 10.5582 13.9999L6.38717 16.8779C3.53817 13.6019 1.96917 9.55793 2.48317 6.81493L2.54117 6.65593C3.45017 5.09193 4.61216 3.93193 6.19416 3.00393L6.58417 2.77393L10.2812 7.85393L8.58217 10.8049Z" fill="black"/>
<path opacity="0.4" d="M13.9405 16.15L16.8855 14.455L22.1135 18.31L21.8985 18.695C21.0015 20.297 19.8375 21.461 18.2355 22.359L18.1325 22.417L18.0135 22.422C17.8335 22.431 17.6535 22.434 17.4735 22.434C13.4895 22.434 9.47845 20.432 6.38745 16.878L10.5585 14C11.9255 15.367 13.4205 15.97 13.9405 16.15Z" fill="black"/>
</svg>