<svg width="25" height="25" viewBox="0 0 25 25" fill="none" xmlns="http://www.w3.org/2000/svg">
<path fill-rule="evenodd" clip-rule="evenodd" d="M21.8743 16.0376C19.2393 12.8416 17.9233 13.1266 16.4733 13.8306C15.5573 14.2776 14.7593 14.6636 12.9063 13.0076L21.6543 4.25963C21.9473 3.96663 21.9473 3.49163 21.6543 3.19863C21.3613 2.90563 20.8873 2.90563 20.5943 3.19863L2.09426 21.6986C1.80126 21.9916 1.80126 22.4666 2.09426 22.7596C2.24026 22.9056 2.43226 22.9786 2.62426 22.9786C2.81626 22.9786 3.00826 22.9056 3.15426 22.7596L9.00826 16.9056C13.4253 21.1766 16.3513 22.2326 18.1483 22.2326C19.1283 22.2326 19.7723 21.9226 20.1433 21.6526C20.1633 21.6416 22.2303 20.3606 22.5763 18.4986C22.7373 17.6306 22.5013 16.8036 21.8743 16.0376Z" fill="black"/>
<path opacity="0.4" fill-rule="evenodd" clip-rule="evenodd" d="M6.71412 14.2868H6.73412C6.86612 14.2868 6.99312 14.2338 7.08712 14.1408L10.5901 10.6368C10.7191 10.5078 10.7681 10.3178 10.7161 10.1418C10.5101 9.43884 10.7491 8.94784 11.0261 8.38084C11.7291 6.93284 12.0131 5.61584 8.81112 2.97384C8.04612 2.34884 7.21412 2.11684 6.34512 2.27984C4.49912 2.63084 3.22312 4.66584 3.22512 4.66584C2.38812 5.84884 1.68312 8.65084 6.35412 14.1118C6.44412 14.2178 6.57512 14.2808 6.71412 14.2868Z" fill="black"/>
</svg>