<svg width="25" height="25" viewBox="0 0 25 25" fill="none" xmlns="http://www.w3.org/2000/svg">
<path opacity="0.4" fill-rule="evenodd" clip-rule="evenodd" d="M15.8076 14.4517C14.8096 14.9377 13.9466 15.3597 11.6996 13.1127C9.45363 10.8657 9.87263 10.0027 10.3606 9.00375C11.0646 7.55575 11.3496 6.23875 8.14763 3.60175C7.38463 2.97775 6.56263 2.74075 5.68863 2.90375C3.82863 3.24975 2.55763 5.28675 2.55963 5.28675C1.74863 6.42375 0.636629 9.84175 7.80363 17.0077C12.5156 21.7197 15.6076 22.8527 17.4836 22.8527C18.4606 22.8527 19.1096 22.5457 19.4856 22.2767C19.5056 22.2637 21.5746 20.9597 21.9106 19.1087C22.0666 18.2447 21.8306 17.4227 21.2076 16.6617C18.5746 13.4647 17.2566 13.7467 15.8076 14.4517Z" fill="black"/>
<path fill-rule="evenodd" clip-rule="evenodd" d="M19.8452 6.10504L22.3152 3.63504C22.6082 3.34204 22.6082 2.86804 22.3152 2.57504C22.0222 2.28204 21.5472 2.28204 21.2542 2.57504L18.7842 5.04404L16.3152 2.57504C16.0222 2.28204 15.5472 2.28204 15.2542 2.57504C14.9612 2.86804 14.9612 3.34204 15.2542 3.63504L17.7242 6.10504L15.2542 8.57504C14.9612 8.86804 14.9612 9.34204 15.2542 9.63504C15.4012 9.78204 15.5922 9.85504 15.7842 9.85504C15.9772 9.85504 16.1682 9.78204 16.3152 9.63504L18.7842 7.16604L21.2542 9.63504C21.4012 9.78204 21.5922 9.85504 21.7842 9.85504C21.9772 9.85504 22.1682 9.78204 22.3152 9.63504C22.6082 9.34204 22.6082 8.86804 22.3152 8.57504L19.8452 6.10504Z" fill="black"/>
</svg>