<svg width="25" height="25" viewBox="0 0 25 25" fill="none" xmlns="http://www.w3.org/2000/svg">
<path fill-rule="evenodd" clip-rule="evenodd" d="M21.4974 16.4125C18.8594 13.2125 17.5444 13.4995 16.0984 14.2025C15.0974 14.6885 14.2334 15.1105 11.9874 12.8635C9.74141 10.6165 10.1624 9.75354 10.6484 8.75454C11.3534 7.30754 11.6394 5.98954 8.43641 3.35254C7.67341 2.72754 6.84141 2.48754 5.97541 2.65554C4.14241 2.99854 2.84741 5.03854 2.84941 5.03854C2.03741 6.17454 0.925409 9.59054 8.09241 16.7585C12.8064 21.4735 15.8974 22.6045 17.7734 22.6045C18.7504 22.6045 19.3964 22.2985 19.7704 22.0295C19.7914 22.0175 21.8494 20.7425 22.1964 18.8735C22.3584 18.0045 22.1234 17.1775 21.4974 16.4125Z" fill="black"/>
</svg>