<svg width="25" height="26" viewBox="0 0 25 26" fill="none" xmlns="http://www.w3.org/2000/svg">
<path fill-rule="evenodd" clip-rule="evenodd" d="M13.8344 3.02582L14.5798 3.1086C18.6291 3.55827 21.8283 6.75302 22.2824 10.8024L22.366 11.5478L20.8753 11.7149L20.7917 10.9696C20.4158 7.61701 17.767 4.97176 14.4143 4.59943L13.6689 4.51665L13.8344 3.02582Z" fill="black"/>
<path fill-rule="evenodd" clip-rule="evenodd" d="M13.9038 6.51773L14.6401 6.66074C16.7116 7.06311 18.3299 8.683 18.7332 10.7536L18.8766 11.4897L17.4043 11.7765L17.2609 11.0404C16.9743 9.56896 15.8246 8.41885 14.3541 8.13322L13.6178 7.99021L13.9038 6.51773Z" fill="black"/>
<path fill-rule="evenodd" clip-rule="evenodd" d="M6.72806 2.86337L10.655 8.25748L8.93004 11.2532C8.99136 11.4341 9.08993 11.6944 9.23679 12.0043C9.53622 12.6361 10.0311 13.4627 10.8107 14.2422C11.6365 15.0681 12.5128 15.6095 13.1835 15.944C13.5171 16.1104 13.797 16.2242 13.9901 16.2954L16.9773 14.5754L22.5151 18.6589L22.1919 19.2362C21.2666 20.8896 20.0854 22.0708 18.432 22.9961L18.2772 23.0828L18.1 23.0909C13.2213 23.3142 9.02628 20.6613 6.20312 17.3777C4.7867 15.7303 3.69191 13.8991 3.01052 12.1366C2.33428 10.3873 2.04082 8.64088 2.31257 7.18787L2.33639 7.0605L2.40157 6.94851C3.33633 5.34226 4.54315 4.14491 6.14209 3.20707L6.72806 2.86337ZM14.0727 17.1133C13.8744 17.8366 13.8742 17.8366 13.8739 17.8365L13.8723 17.8361L13.8695 17.8353L13.8617 17.8331L13.8374 17.826C13.8175 17.8202 13.7902 17.8119 13.7561 17.801C13.6878 17.7793 13.5919 17.7473 13.4729 17.7034C13.2351 17.6158 12.9035 17.4806 12.514 17.2863C11.7367 16.8986 10.7168 16.2697 9.75005 15.3029C8.82169 14.3745 8.23576 13.3945 7.88132 12.6467C7.70373 12.272 7.58295 11.9528 7.50558 11.7234C7.46685 11.6085 7.43889 11.5158 7.42004 11.4494C7.41061 11.4163 7.40345 11.3896 7.39836 11.3701L7.39225 11.3461L7.39031 11.3382L7.3896 11.3353L7.38932 11.3341C7.38926 11.3339 7.38908 11.3331 8.11867 11.1593L7.38908 11.3331L7.32005 11.0433L8.86913 8.35297L6.32824 4.86277C5.26754 5.58502 4.44064 6.46287 3.76575 7.58833C3.60154 8.6518 3.81232 10.0507 4.40961 11.5957C5.0254 13.1886 6.02827 14.8736 7.34052 16.3998C9.93804 19.421 13.6558 21.7232 17.8536 21.5992C18.9914 20.936 19.843 20.1367 20.542 19.0677L16.8762 16.3645L14.1759 17.9193L13.8739 17.8365L14.0727 17.1133Z" fill="black"/>
</svg>