<svg width="24" height="24" viewBox="0 0 24 24" fill="none" xmlns="http://www.w3.org/2000/svg">
<path d="M14.353 2.5C18.054 2.911 20.978 5.831 21.393 9.532" stroke="black" stroke-width="1.5" stroke-linecap="round" stroke-linejoin="round"/>
<path d="M14.353 6.043C16.124 6.387 17.508 7.772 17.853 9.543" stroke="black" stroke-width="1.5" stroke-linecap="round" stroke-linejoin="round"/>
<path d="M11.0315 12.4724C7.04254 8.48441 11.6541 7.5765 9.11539 5.03733C6.66682 2.58938 6.18377 1.17385 3.07394 4.28395C2.85551 4.55561 0.953765 5.84581 2.79676 9.56361" stroke="black" stroke-width="1.5" stroke-linecap="round" stroke-linejoin="round"/>
<path d="M13.0001 13.9205C15.4225 14.968 16.4071 12.3279 18.4653 14.3848C20.9139 16.8328 22.3223 17.3232 19.2189 20.4247C18.8303 20.737 16.3614 24.4943 7.68456 15.8197C6.17687 14.3124 5.04447 12.9923 4.2041 11.838" stroke="black" stroke-width="1.5" stroke-linecap="round" stroke-linejoin="round"/>
</svg>