<?xml version="1.0" encoding="UTF-8"?>
<svg width="24px" height="24px" viewBox="0 0 24 24" version="1.1" xmlns="http://www.w3.org/2000/svg" xmlns:xlink="http://www.w3.org/1999/xlink">
    <title>Iconly/Light-Outline/Calling</title>
    <g id="Iconly/Light-Outline/Calling" stroke="none" stroke-width="1" fill="none" fill-rule="evenodd">
        <g id="Calling" transform="translate(2.000000, 2.000000)" fill="#000000">
            <path d="M4.6575,0.0004 C5.7745,0.0154 6.5705,0.8524 7.5775,1.9114 C7.8265,2.1724 8.0955,2.4574 8.3965,2.7574 C9.8555,4.2174 9.4405,5.4084 9.1055,6.3644 C8.7415,7.4074 8.4265,8.3074 10.3125,10.1934 C12.1985,12.0794 13.0975,11.7644 14.1395,11.3974 C15.0965,11.0634 16.2845,10.6454 17.7465,12.1054 C18.0435,12.4024 18.3235,12.6684 18.5835,12.9154 C19.6465,13.9274 20.4865,14.7264 20.5006533,15.8464 C20.5115,16.8004 19.9315,17.7744 18.4995,19.2064 L17.8655,18.7764 L18.4025,19.2994 C18.0855,19.6244 17.2425,20.4904 15.5915,20.5004 L15.5615,20.5004 C13.0695,20.5004 9.8205,18.5164 5.9045,14.6014 C1.9725,10.6704 -0.0145,7.4114 0.000415706294,4.9144 C0.0095,3.2644 0.8745,2.4194 1.1995,2.1024 L1.22724074,2.0721037 L1.22724074,2.0721037 L1.2945,2.0044 L1.2945,2.0044 C2.7295,0.5694 3.7155,-0.0206 4.6575,0.0004 Z M4.6385,1.5004 L4.6305,1.5004 C4.1814375,1.5004 3.49946484,1.9504 2.54832715,2.87429526 L2.35733235,3.06185986 L2.3595,3.0614 C2.3607,3.0614 2.34318,3.08012 2.315364,3.108488 L2.2485,3.1754 L2.2485,3.1754 C2.0065,3.4104 1.5055,3.8994 1.50044962,4.9224 C1.4925,6.3534 2.4335,9.0104 6.9645,13.5404 C11.4735,18.0484 14.1265,19.0004 15.5615,19.0004 L15.5825,19.0004 C16.6055,18.9944 17.0935,18.4934 17.3285,18.2524 C17.3995,18.1794 17.4575,18.1244 17.4985,18.0914 C18.4955,17.0884 19.0055,16.3434 19.0005364,15.8644 C18.9945,15.3764 18.3875,14.8004 17.5485,14.0014 C17.2815,13.7484 16.9915,13.4714 16.6855,13.1654 C15.8915,12.3744 15.5005,12.5094 14.6355,12.8134 C13.4405,13.2324 11.8035,13.8064 9.2525,11.2534 C6.7005,8.7024 7.2725,7.0654 7.6895,5.8694 C7.9915,5.0054 8.1295,4.6124 7.3365,3.8184 C7.0265,3.5084 6.7475,3.2144 6.4905,2.9444 C5.6965,2.1104 5.1235,1.5074 4.6385,1.5004 Z M13.2466,3.5579 C15.3276,3.9619 16.9346,5.5679 17.3396,7.6499 C17.4186,8.0579 17.1536,8.4509 16.7476,8.5299 C16.6986,8.5389 16.6506,8.5439 16.6026,8.5439 C16.2506,8.5439 15.9376,8.2959 15.8676,7.9379 C15.5796,6.4579 14.4386,5.3169 12.9606,5.0299 C12.5536,4.9509 12.2886,4.5579 12.3676,4.1509 C12.4466,3.7439 12.8466,3.4779 13.2466,3.5579 Z M13.1867,0.0061 C17.2647,0.4591 20.4317,3.6221 20.8887,7.6991 C20.9347,8.1111 20.6387,8.4821 20.2277,8.5281 C20.1997,8.5311 20.1707,8.5331 20.1427,8.5331 C19.7657,8.5331 19.4417,8.2501 19.3987,7.8671 C19.0197,4.4911 16.3977,1.8711 13.0207,1.4961 C12.6097,1.4501 12.3127,1.0801 12.3587,0.6681 C12.4037,0.2571 12.7707,-0.0459 13.1867,0.0061 Z" id="Combined-Shape"></path>
        </g>
    </g>
</svg>