<?xml version="1.0" encoding="UTF-8"?>
<svg width="24px" height="24px" viewBox="0 0 24 24" version="1.1" xmlns="http://www.w3.org/2000/svg" xmlns:xlink="http://www.w3.org/1999/xlink">
    <title>Iconly/Light-Outline/Call Missed</title>
    <g id="Iconly/Light-Outline/Call-Missed" stroke="none" stroke-width="1" fill="none" fill-rule="evenodd">
        <g id="Call-Missed" transform="translate(1.000000, 1.500000)" fill="#000000" fill-rule="nonzero">
            <path d="M6.06538956,0.585229786 C6.40246947,0.779065505 6.7211116,1.04070249 7.12449673,1.43722548 L7.30286524,1.61561781 L8.809237,3.17764139 C9.58926077,4.02879404 9.80425256,4.84738821 9.604847,5.78673465 L9.55948522,5.97625939 L9.52216209,6.11127602 L9.48073483,6.24552611 L9.27935886,6.83635127 C8.84834572,8.1613278 9.02829075,8.90888591 10.5617845,10.44199 C12.0951521,11.9749679 12.8423612,12.154515 14.1663343,11.7226946 L14.3280668,11.6679891 L14.5824238,11.5795758 L14.8899946,11.4796928 L15.0246115,11.4423313 C16.0448714,11.1701221 16.9160388,11.3585571 17.8246615,12.1907827 L17.9955127,12.3544141 L19.2092522,13.5267933 L19.566531,13.8781857 C19.9626486,14.2821405 20.2244452,14.6021884 20.4178249,14.9404919 C21.1567318,16.2331552 20.7054078,17.447096 18.8885439,19.307494 L18.6886466,19.5093291 L18.4999941,19.7004817 C18.2039097,19.9858223 17.9273051,20.1902525 17.5209323,20.3831967 C16.8387995,20.7070707 16.0329242,20.8291735 15.0965164,20.6989478 C12.789055,20.3780504 9.86248454,18.5574031 6.15420289,14.8500638 C5.95296057,14.6488726 5.75738474,14.4502755 5.56739007,14.2542373 L5.28657328,13.962095 L4.74979895,13.3892202 C-0.1918098,8.02032634 -0.706807002,4.68592596 1.23133423,2.57408139 L1.33749874,2.46211177 L1.47104207,2.32945892 L1.54358971,2.25364362 C3.47101051,0.32604747 4.72616966,-0.184880363 6.06538956,0.585229786 Z M3.59403698,2.39302583 L3.43561687,2.52608297 L3.14585154,2.78495259 L3.06916388,2.85627322 L3.06916388,2.85627322 L2.99070508,2.93029214 L2.6584328,3.25392058 L2.62849429,3.29132966 L2.4032327,3.5176381 C1.858882,4.07364973 1.60103279,4.75224488 1.82322791,5.91927796 C2.18783492,7.83429949 3.85674265,10.4321366 7.21472827,13.7892688 C10.7136047,17.2872561 13.3794846,18.9457253 15.3031321,19.213246 C16.3497835,19.3588032 16.9178251,19.1319328 17.4631851,18.6151561 L17.5798669,18.500011 L18.0247037,18.0510789 C18.1811688,17.887365 18.3205408,17.7351378 18.4439431,17.5930077 L18.5620638,17.4541917 L18.7673644,17.1955185 C19.2920206,16.4966717 19.339947,16.0774235 19.1155653,15.6848842 C19.047267,15.5654015 18.9541239,15.4367018 18.8270378,15.2875373 L18.7252167,15.1716509 L18.4799767,14.9126373 L18.334852,14.7674011 L16.8035992,13.2888029 C16.3345368,12.8562515 16.0016176,12.7639522 15.5404441,12.8606807 L15.4112909,12.8916342 L15.258015,12.9357155 L14.6237248,13.1510361 C12.7836138,13.7453249 11.456123,13.457152 9.50125914,11.5027849 C7.54643251,9.54845507 7.25766991,8.22099831 7.85067105,6.38004315 L7.91754526,6.18078109 L7.96106336,6.0557172 L8.08140398,5.69314239 L8.14055657,5.46203816 C8.2454584,4.95907061 8.12569315,4.60838211 7.58501638,4.06761417 L7.54970925,4.03216142 L7.54970925,4.03216142 L7.5107976,3.99280967 L6.08873693,2.52253291 C5.76294269,2.20134266 5.52628425,2.00554417 5.31764004,1.88556461 C4.88326426,1.63577949 4.41631586,1.72046048 3.59403698,2.39302583 Z M14.7611117,1.64695176 L14.8452301,1.71956991 L17.3143236,4.18860772 L19.7845699,1.71956991 C20.0774631,1.4266767 20.5523369,1.4266767 20.8452301,1.71956991 C21.1114966,1.98583648 21.1357027,2.40250016 20.9178482,2.69611165 L20.8452301,2.78023009 L18.3753236,5.24960772 L20.8452301,7.71956991 C21.1381233,8.01246313 21.1381233,8.48733687 20.8452301,8.78023009 C20.5789635,9.04649665 20.1622998,9.0707027 19.8686883,8.85284824 L19.7845699,8.78023009 L17.3143236,6.30960772 L14.8452301,8.78023009 C14.5523369,9.0731233 14.0774631,9.0731233 13.7845699,8.78023009 C13.5183034,8.51396352 13.4940973,8.09729984 13.7119518,7.80368835 L13.7845699,7.71956991 L16.2543236,5.24960772 L13.7845699,2.78023009 C13.4916767,2.48733687 13.4916767,2.01246313 13.7845699,1.71956991 C14.0508365,1.45330335 14.4675002,1.4290973 14.7611117,1.64695176 Z" id="Combined-Shape"></path>
        </g>
    </g>
</svg>