<svg width="25" height="24" viewBox="0 0 25 24" fill="none" xmlns="http://www.w3.org/2000/svg">
<path fill-rule="evenodd" clip-rule="evenodd" d="M19.8556 14.8951C19.6136 14.6661 19.3526 14.4161 19.0766 14.1411C17.7936 12.8581 16.7316 13.2741 15.7936 13.6401C14.7296 14.0591 13.7216 14.4531 11.8856 12.6211C10.0486 10.7831 10.4426 9.77413 10.8596 8.70613C11.2266 7.76713 11.6426 6.70413 10.3606 5.42113C10.0786 5.13913 9.82557 4.87313 9.59157 4.62713C8.65057 3.63813 7.97057 2.92313 7.01457 2.91113C6.18657 2.91113 5.31757 3.42613 4.02257 4.72113C4.00957 4.73413 3.94457 4.79813 3.93357 4.81213C3.64657 5.09213 2.88457 5.83613 2.87557 7.29213C2.86157 9.56713 4.69357 12.5601 8.32057 16.1881C11.9326 19.7961 14.9136 21.6251 17.1816 21.6251H17.2056C18.6606 21.6171 19.4056 20.8551 19.6866 20.5691L19.7796 20.4781C21.0726 19.1851 21.5956 18.3201 21.5856 17.4891C21.5736 16.5281 20.8526 15.8431 19.8556 14.8951Z" fill="black"/>
<path fill-rule="evenodd" clip-rule="evenodd" d="M21.9049 2.59475C21.6119 2.30175 21.1369 2.30175 20.8439 2.59475L16.8869 6.55075L16.8929 4.14675C16.8939 3.73275 16.5589 3.39575 16.1439 3.39475C15.7299 3.39475 15.3939 3.72975 15.3929 4.14275L15.3839 8.36375C15.3839 8.46075 15.4019 8.55875 15.4399 8.64975C15.4769 8.74075 15.5319 8.82475 15.6029 8.89575C15.6739 8.96675 15.7579 9.02075 15.8489 9.05875C15.9399 9.09575 16.0369 9.11575 16.1339 9.11575L20.3549 9.10575C20.7689 9.10475 21.1039 8.76775 21.1029 8.35375C21.1019 7.94075 20.7659 7.60575 20.3529 7.60575H20.3509L17.9489 7.61075L21.9049 3.65575C22.1979 3.36275 22.1979 2.88775 21.9049 2.59475Z" fill="black"/>
</svg>