<svg width="25" height="25" viewBox="0 0 25 25" fill="none" xmlns="http://www.w3.org/2000/svg">
<path opacity="0.4" fill-rule="evenodd" clip-rule="evenodd" d="M15.7759 14.4518C14.7779 14.9378 13.9139 15.3598 11.6669 13.1128C9.42088 10.8658 9.84088 10.0028 10.3279 9.00381C11.0329 7.55581 11.3179 6.23881 8.11588 3.60181C7.35088 2.97681 6.52088 2.73681 5.65388 2.90481C3.82088 3.24781 2.52588 5.28781 2.52788 5.28781C1.71588 6.42381 0.603876 9.83981 7.77088 17.0078C12.4849 21.7228 15.5769 22.8538 17.4529 22.8538C18.4289 22.8538 19.0759 22.5478 19.4499 22.2788C19.4699 22.2668 21.5279 20.9918 21.8759 19.1228C22.0379 18.2538 21.8019 17.4268 21.1759 16.6618C18.5399 13.4628 17.2229 13.7468 15.7759 14.4518Z" fill="black"/>
<path fill-rule="evenodd" clip-rule="evenodd" d="M14.8605 2.36C14.4475 2.308 14.0775 2.611 14.0325 3.022C13.9865 3.434 14.2835 3.804 14.6945 3.85C18.0715 4.225 20.6935 6.845 21.0725 10.221C21.1155 10.604 21.4395 10.887 21.8165 10.887C21.8445 10.887 21.8735 10.885 21.9015 10.882C22.3125 10.837 22.6085 10.465 22.5625 10.053C22.1055 5.977 18.9385 2.813 14.8605 2.36Z" fill="black"/>
<path fill-rule="evenodd" clip-rule="evenodd" d="M17.5412 10.2916C17.6112 10.6496 17.9252 10.8976 18.2762 10.8976C18.3242 10.8976 18.3722 10.8936 18.4212 10.8846C18.8272 10.8056 19.0932 10.4106 19.0142 10.0046C18.6072 7.9226 17.0002 6.3156 14.9202 5.9116C14.5232 5.8326 14.1202 6.0986 14.0412 6.5056C13.9622 6.9116 14.2282 7.3056 14.6352 7.3846C16.1112 7.6716 17.2532 8.8126 17.5412 10.2916Z" fill="black"/>
</svg>