<svg width="25" height="25" viewBox="0 0 25 25" fill="none" xmlns="http://www.w3.org/2000/svg">
<path fill-rule="evenodd" clip-rule="evenodd" d="M16.8854 14.455L13.9404 16.15C13.4204 15.97 11.9254 15.367 10.5584 14C9.27541 12.717 8.73941 11.3 8.58241 10.805L10.2814 7.85399L6.58441 2.77399L6.19441 3.00399C4.61241 3.93199 3.45041 5.09199 2.54141 6.65599L2.48341 6.81499C1.96941 9.55799 3.53841 13.602 6.38741 16.878C9.47841 20.432 13.4894 22.434 17.4734 22.434C17.6534 22.434 17.8334 22.431 18.0134 22.422L18.1324 22.417L18.2354 22.359C19.8374 21.461 21.0014 20.297 21.8984 18.695L22.1134 18.31L16.8854 14.455Z" fill="black"/>
</svg>