<svg width="25" height="24" viewBox="0 0 25 24" fill="none" xmlns="http://www.w3.org/2000/svg">
<path opacity="0.4" fill-rule="evenodd" clip-rule="evenodd" d="M19.8568 14.8981C19.6148 14.6681 19.3528 14.4191 19.0768 14.1421C17.7918 12.8581 16.7298 13.2741 15.7938 13.6411C14.7288 14.0601 13.7218 14.4541 11.8848 12.6221C10.0478 10.7841 10.4418 9.77511 10.8588 8.70711C11.2258 7.76811 11.6418 6.70511 10.3598 5.42211C10.0778 5.14011 9.82482 4.87411 9.59082 4.62811C8.64982 3.63911 7.96982 2.92411 7.01382 2.91211C6.15382 2.91211 5.31682 3.42711 4.02182 4.72211C4.00882 4.73511 3.94382 4.79911 3.93282 4.81311C3.64582 5.09311 2.88282 5.83711 2.87482 7.29411C2.86182 9.56711 4.69382 12.5561 8.31982 16.1791C11.9328 19.7941 14.9148 21.6261 17.1838 21.6261H17.2068C18.6608 21.6181 19.4048 20.8561 19.6858 20.5691L19.7778 20.4791C21.0718 19.1871 21.5948 18.3211 21.5848 17.4911C21.5728 16.5301 20.8528 15.8451 19.8568 14.8981Z" fill="black"/>
<path fill-rule="evenodd" clip-rule="evenodd" d="M22.0691 2.844V2.843C22.0311 2.751 21.9771 2.666 21.9051 2.595C21.8341 2.524 21.7501 2.469 21.6581 2.432C21.5811 2.4 21.4991 2.389 21.4181 2.384C21.4031 2.383 21.3901 2.375 21.3751 2.375H21.3731L17.1541 2.385C16.7401 2.386 16.4051 2.723 16.4061 3.137C16.4071 3.55 16.7421 3.885 17.1561 3.885H17.1581L19.5591 3.88L15.6021 7.835C15.3091 8.128 15.3091 8.603 15.6021 8.896C15.7491 9.042 15.9411 9.116 16.1331 9.116C16.3241 9.116 16.5161 9.042 16.6631 8.896L20.6211 4.938L20.6161 7.343C20.6151 7.758 20.9501 8.094 21.3641 8.095H21.3661C21.7801 8.095 22.1151 7.76 22.1161 7.347L22.1251 3.127C22.1251 3.029 22.1051 2.933 22.0691 2.844Z" fill="black"/>
</svg>