<svg width="24" height="24" viewBox="0 0 24 24" fill="none" xmlns="http://www.w3.org/2000/svg">
<path fill-rule="evenodd" clip-rule="evenodd" d="M15.438 12.498C15.438 10.7612 14.0296 9.35278 12.2927 9.35278C10.5559 9.35278 9.14746 10.7612 9.14746 12.498C9.14746 14.2349 10.5559 15.6433 12.2927 15.6433C14.0296 15.6433 15.438 14.2349 15.438 12.498Z" stroke="black" stroke-width="1.5" stroke-linecap="round" stroke-linejoin="round"/>
<path fill-rule="evenodd" clip-rule="evenodd" d="M12.2925 20.2001C20.3377 20.2001 21.2956 17.7895 21.2956 12.5664C21.2956 8.90533 20.8114 6.94639 17.7619 6.10428C17.4819 6.01586 17.1714 5.84744 16.9198 5.5706C16.5135 5.12533 16.2167 3.75796 15.2356 3.34428C14.2546 2.93165 10.3146 2.9506 9.34931 3.34428C8.3851 3.73902 8.07141 5.12533 7.6651 5.5706C7.41352 5.84744 7.10404 6.01586 6.82299 6.10428C3.77352 6.94639 3.28931 8.90533 3.28931 12.5664C3.28931 17.7895 4.2472 20.2001 12.2925 20.2001Z" stroke="black" stroke-width="1.5" stroke-linecap="round" stroke-linejoin="round"/>
<path d="M17.2045 9H17.2135" stroke="black" stroke-width="1.5" stroke-linecap="round" stroke-linejoin="round"/>
</svg>