<svg width="25" height="24" viewBox="0 0 25 24" fill="none" xmlns="http://www.w3.org/2000/svg">
<path d="M10.7616 13.5897L7.58203 10.4102M7.58203 13.5897L10.7616 10.4102" stroke="black" stroke-width="1.5" stroke-linecap="round" stroke-linejoin="round"/>
<path d="M12.7232 19.2451C15.0973 19.2451 16.5752 17.5694 16.5752 15.1985V8.80051C16.5752 6.42963 15.0973 4.75391 12.7243 4.75391H5.93382C3.56727 4.75391 2.08398 6.42963 2.08398 8.80051V15.1985C2.08398 17.5694 3.5597 19.2451 5.93382 19.2451H9.32852" stroke="black" stroke-width="1.5" stroke-linecap="round" stroke-linejoin="round"/>
<path d="M16.5684 14.0131L19.9749 16.8013C20.5263 17.2532 21.3404 17.1721 21.7923 16.6207C21.9815 16.3894 22.0853 16.0996 22.0842 15.8012V12.5781" stroke="black" stroke-width="1.5" stroke-linecap="round" stroke-linejoin="round"/>
<path d="M16.5684 9.9922L19.962 7.2051C20.1922 7.0159 20.4809 6.91212 20.7782 6.91212C21.4917 6.90995 22.0701 7.48727 22.0723 8.2008L22.0753 9.10113" stroke="black" stroke-width="1.5" stroke-linecap="round" stroke-linejoin="round"/>
</svg>