<svg width="24" height="25" viewBox="0 0 24 25" fill="none" xmlns="http://www.w3.org/2000/svg">
<path fill-rule="evenodd" clip-rule="evenodd" d="M11.3849 13.2995H12.6119L11.9979 11.8955L11.3849 13.2995Z" fill="black"/>
<path fill-rule="evenodd" clip-rule="evenodd" d="M14.742 16.2995C14.36 16.4665 13.92 16.2925 13.754 15.9125L13.267 14.7985H10.73L10.243 15.9125C10.12 16.1945 9.845 16.3625 9.555 16.3625C9.455 16.3625 9.353 16.3425 9.256 16.2995C8.876 16.1335 8.702 15.6915 8.868 15.3125L9.547 13.7585C9.547 13.7585 9.548 13.7565 9.548 13.7545L11.31 9.7215C11.549 9.1755 12.445 9.1745 12.685 9.7215L14.446 13.7495C14.448 13.7545 14.45 13.7585 14.452 13.7635L15.129 15.3125C15.295 15.6915 15.121 16.1335 14.742 16.2995ZM17.956 6.8515C17.594 6.8375 17.256 6.6855 17.013 6.4325C16.969 6.3825 16.79 6.1605 16.376 5.3835C15.898 4.4915 14.974 3.9375 13.965 3.9375H10.053C9.058 3.9375 8.142 4.4785 7.661 5.3485C7.225 6.1385 7.044 6.3725 6.996 6.4255C6.744 6.6895 6.405 6.8415 6.062 6.8565C4.1 6.8565 2.502 8.4525 2.5 10.4145V16.0565C2.5 18.5965 4.566 20.6635 7.106 20.6635H16.893C19.433 20.6635 21.5 18.5965 21.5 16.0565V10.4125C21.5 8.4485 19.902 6.8515 17.956 6.8515Z" fill="black"/>
</svg>