<svg width="24" height="25" viewBox="0 0 24 25" fill="none" xmlns="http://www.w3.org/2000/svg">
<path fill-rule="evenodd" clip-rule="evenodd" d="M14.524 14.0665H12.752V15.8405C12.752 16.2545 12.416 16.5905 12.002 16.5905C11.588 16.5905 11.252 16.2545 11.252 15.8405V14.0665H9.476C9.062 14.0665 8.726 13.7305 8.726 13.3165C8.726 12.9025 9.062 12.5665 9.476 12.5665H11.252V10.7925C11.252 10.3785 11.588 10.0425 12.002 10.0425C12.416 10.0425 12.752 10.3785 12.752 10.7925V12.5665H14.524C14.938 12.5665 15.274 12.9025 15.274 13.3165C15.274 13.7305 14.938 14.0665 14.524 14.0665ZM17.957 6.8515C17.594 6.8375 17.256 6.6855 17.013 6.4315C16.969 6.3825 16.791 6.1615 16.376 5.3835C15.899 4.4915 14.975 3.9375 13.965 3.9375H10.053C9.059 3.9375 8.142 4.4785 7.662 5.3485C7.225 6.1395 7.044 6.3725 6.995 6.4265C6.744 6.6895 6.406 6.8415 6.062 6.8565C4.1 6.8565 2.503 8.4525 2.5 10.4145V16.0565C2.5 18.5965 4.566 20.6635 7.106 20.6635H16.894C19.434 20.6635 21.5 18.5965 21.5 16.0565V10.4125C21.5 8.4485 19.902 6.8515 17.957 6.8515Z" fill="black"/>
</svg>