<svg width="24" height="25" viewBox="0 0 24 25" fill="none" xmlns="http://www.w3.org/2000/svg">
<path opacity="0.4" fill-rule="evenodd" clip-rule="evenodd" d="M17.956 6.8515C17.594 6.8375 17.256 6.6855 17.013 6.4325C16.969 6.3825 16.79 6.1605 16.376 5.3835C15.898 4.4915 14.974 3.9375 13.965 3.9375H10.053C9.058 3.9375 8.142 4.4785 7.661 5.3485C7.225 6.1385 7.044 6.3725 6.996 6.4255C6.744 6.6895 6.405 6.8415 6.062 6.8565C4.1 6.8565 2.502 8.4525 2.5 10.4145V16.0565C2.5 18.5965 4.566 20.6635 7.106 20.6635H16.893C19.433 20.6635 21.5 18.5965 21.5 16.0565V10.4125C21.5 8.4485 19.902 6.8515 17.956 6.8515Z" fill="black"/>
<path fill-rule="evenodd" clip-rule="evenodd" d="M14.7421 16.2994C14.3601 16.4664 13.9201 16.2924 13.7541 15.9124L13.2671 14.7984H10.7301L10.2431 15.9124C10.1201 16.1944 9.84507 16.3624 9.55507 16.3624C9.45507 16.3624 9.35307 16.3424 9.25607 16.2994C8.87607 16.1334 8.70207 15.6914 8.86807 15.3124L9.54707 13.7584C9.54707 13.7584 9.54807 13.7564 9.54807 13.7544L11.3101 9.7214C11.5491 9.1754 12.4451 9.1744 12.6851 9.7214L14.4461 13.7494C14.4471 13.7519 14.4481 13.7541 14.4491 13.7564C14.4501 13.7586 14.4511 13.7609 14.4521 13.7634L15.1291 15.3124C15.2951 15.6914 15.1211 16.1334 14.7421 16.2994ZM12.612 13.2994H11.385L11.998 11.8954L12.612 13.2994Z" fill="black"/>
</svg>