<svg width="24" height="25" viewBox="0 0 24 25" fill="none" xmlns="http://www.w3.org/2000/svg">
<path opacity="0.4" fill-rule="evenodd" clip-rule="evenodd" d="M17.957 6.8515C17.594 6.8375 17.256 6.6855 17.013 6.4315C16.969 6.3825 16.791 6.1615 16.376 5.3835C15.899 4.4915 14.975 3.9375 13.965 3.9375H10.053C9.059 3.9375 8.142 4.4785 7.662 5.3485C7.225 6.1395 7.044 6.3725 6.995 6.4265C6.744 6.6895 6.406 6.8415 6.062 6.8565C4.1 6.8565 2.503 8.4525 2.5 10.4145V16.0565C2.5 18.5965 4.567 20.6635 7.106 20.6635H16.894C19.434 20.6635 21.5 18.5965 21.5 16.0565V10.4125C21.5 8.4485 19.902 6.8515 17.957 6.8515Z" fill="black"/>
<path d="M16.423 10.1801C16.423 10.5941 16.759 10.9011 17.173 10.9011C17.587 10.9011 17.923 10.5361 17.923 10.1221C17.923 9.70807 17.587 9.37207 17.173 9.37207C16.759 9.37207 16.423 9.70807 16.423 10.1221V10.1801Z" fill="black"/>
<path fill-rule="evenodd" clip-rule="evenodd" d="M15.883 17.4761C15.736 17.6231 15.545 17.6961 15.352 17.6961C15.16 17.6961 14.969 17.6231 14.822 17.4771L13.847 16.5031C13.305 16.8331 12.676 17.0331 11.997 17.0331C10.022 17.0331 8.41504 15.4261 8.41504 13.4501C8.41504 11.4751 10.022 9.86707 11.997 9.86707C13.972 9.86707 15.579 11.4751 15.579 13.4501C15.579 14.2041 15.343 14.9021 14.944 15.4791L15.882 16.4151C16.175 16.7081 16.176 17.1821 15.883 17.4761ZM11.9972 11.3668C13.1452 11.3668 14.0792 12.3018 14.0792 13.4498C14.0792 14.5978 13.1452 15.5328 11.9972 15.5328C10.8492 15.5328 9.9152 14.5978 9.9152 13.4498C9.9152 12.3018 10.8492 11.3668 11.9972 11.3668Z" fill="black"/>
</svg>