<svg width="25" height="24" viewBox="0 0 25 24" fill="none" xmlns="http://www.w3.org/2000/svg">
<path fill-rule="evenodd" clip-rule="evenodd" d="M12.949 15.18H10.429C10.019 15.18 9.67898 14.84 9.67898 14.43C9.67898 14.01 10.019 13.68 10.429 13.68H12.949C13.359 13.68 13.699 14.01 13.699 14.43C13.699 14.84 13.359 15.18 12.949 15.18ZM21.839 12.34C21.559 11.99 21.159 11.77 20.729 11.73C20.279 11.68 19.859 11.82 19.519 12.1L17.279 13.96C17.109 11.73 15.599 10.25 13.399 10.25H7.37898C5.03898 10.25 3.45898 11.91 3.45898 14.39V17.36C3.45898 19.84 5.03898 21.5 7.37898 21.5H13.399C15.599 21.5 17.109 20.02 17.279 17.79L19.499 19.64C19.799 19.89 20.169 20.03 20.549 20.03C21.449 20.03 22.189 19.29 22.189 18.37L22.209 13.39C22.209 13.01 22.079 12.64 21.839 12.34Z" fill="black"/>
<path fill-rule="evenodd" clip-rule="evenodd" d="M13.4198 9.37C15.2918 9.37 16.8138 7.831 16.8138 5.939C16.8138 4.043 15.2918 2.5 13.4198 2.5C11.5478 2.5 10.0258 4.043 10.0258 5.939C10.0258 7.831 11.5478 9.37 13.4198 9.37Z" fill="black"/>
<path fill-rule="evenodd" clip-rule="evenodd" d="M6.4818 9.36984C7.7858 9.36984 8.8458 8.29784 8.8458 6.97884C8.8458 5.66184 7.7858 4.58984 6.4818 4.58984C5.1788 4.58984 4.1178 5.66184 4.1178 6.97884C4.1178 8.29784 5.1788 9.36984 6.4818 9.36984Z" fill="black"/>
</svg>