<svg width="25" height="24" viewBox="0 0 25 24" fill="none" xmlns="http://www.w3.org/2000/svg">
<path opacity="0.4" fill-rule="evenodd" clip-rule="evenodd" d="M6.51602 4.25H13.306C15.909 4.25 17.658 6.078 17.658 8.8V15.2C17.658 17.922 15.909 19.75 13.305 19.75H6.51602C3.91402 19.75 2.16602 17.922 2.16602 15.2V8.8C2.16602 6.078 3.91402 4.25 6.51602 4.25Z" fill="black"/>
<path d="M20.576 6.81024C21.339 6.18624 22.47 6.29724 23.096 7.05924C23.36 7.37824 23.503 7.78424 23.502 8.19924L23.49 15.7972C23.487 16.7842 22.682 17.5862 21.696 17.5862C21.281 17.5862 20.878 17.4432 20.562 17.1822L19.3476 16.184C19.0915 15.9734 18.9731 15.6508 18.9898 15.3196C18.9919 15.2793 18.993 15.2386 18.993 15.1972V8.79624C18.993 8.75725 18.992 8.71876 18.9901 8.68067C18.9739 8.34843 19.0924 8.02491 19.3497 7.81419L20.576 6.81024Z" fill="black"/>
<path fill-rule="evenodd" clip-rule="evenodd" d="M11.9552 13.0638C12.2452 13.3538 12.2452 13.8238 11.9552 14.1238C11.8052 14.2638 11.6152 14.3438 11.4252 14.3438C11.2352 14.3438 11.0352 14.2638 10.8952 14.1238L9.83523 13.0638L8.77523 14.1238C8.48523 14.4138 8.00523 14.4138 7.71523 14.1238C7.41523 13.8238 7.41523 13.3538 7.71523 13.0638L8.77523 11.9938L7.71523 10.9438C7.41523 10.6438 7.41523 10.1738 7.71523 9.87375C8.00523 9.58375 8.48523 9.58375 8.77523 9.87375L9.83523 10.9338L10.8952 9.87375C11.1852 9.58375 11.6652 9.58375 11.9552 9.87375C12.2452 10.1738 12.2452 10.6438 11.9552 10.9438L10.8952 11.9938L11.9552 13.0638Z" fill="black"/>
</svg>