<svg width="25" height="24" viewBox="0 0 25 24" fill="none" xmlns="http://www.w3.org/2000/svg">
<path fill-rule="evenodd" clip-rule="evenodd" d="M3.58089 11.2638C4.32765 10.4507 5.38906 10 6.62825 10H12.6524C13.8939 10 14.9559 10.4504 15.7026 11.264C16.4427 12.0705 16.8187 13.1736 16.8187 14.3927V17.3582C16.8187 18.5776 16.4428 19.6809 15.7023 20.4874C14.9555 21.3009 13.8932 21.7509 12.6514 21.7509H6.62825C5.38638 21.7509 4.3245 21.3008 3.57806 20.4871C2.83816 19.6805 2.46289 18.5774 2.46289 17.3582V14.3927C2.46289 13.1729 2.84045 12.0699 3.58089 11.2638ZM4.68564 12.2784C4.24327 12.7601 3.96289 13.4784 3.96289 14.3927V17.3582C3.96289 18.274 4.24221 18.9922 4.68344 19.4732C5.11813 19.947 5.76393 20.2509 6.62825 20.2509H12.6514C13.5158 20.2509 14.1622 19.947 14.5974 19.4729C15.039 18.9918 15.3187 18.2737 15.3187 17.3582V14.3927C15.3187 13.4777 15.0391 12.7595 14.5974 12.2782C14.1622 11.804 13.516 11.5 12.6524 11.5H6.62825C5.76796 11.5 5.12169 11.8036 4.68564 12.2784Z" fill="black"/>
<path fill-rule="evenodd" clip-rule="evenodd" d="M8.92969 14.4258C8.92969 14.0116 9.26547 13.6758 9.67969 13.6758H12.2002C12.6144 13.6758 12.9502 14.0116 12.9502 14.4258C12.9502 14.84 12.6144 15.1758 12.2002 15.1758H9.67969C9.26547 15.1758 8.92969 14.84 8.92969 14.4258Z" fill="black"/>
<path fill-rule="evenodd" clip-rule="evenodd" d="M12.6709 3.75C11.4977 3.75 10.5273 4.71866 10.5273 5.93676C10.5273 7.15487 11.4977 8.12353 12.6709 8.12353C13.8442 8.12353 14.8146 7.15487 14.8146 5.93676C14.8146 4.71866 13.8442 3.75 12.6709 3.75ZM9.02734 5.93676C9.02734 3.9112 10.6485 2.25 12.6709 2.25C14.6934 2.25 16.3146 3.9112 16.3146 5.93676C16.3146 7.96233 14.6934 9.62353 12.6709 9.62353C10.6485 9.62353 9.02734 7.96233 9.02734 5.93676Z" fill="black"/>
<path fill-rule="evenodd" clip-rule="evenodd" d="M5.73324 5.83984C5.1285 5.83984 4.61914 6.34067 4.61914 6.98175C4.61914 7.62282 5.1285 8.12365 5.73324 8.12365C6.33798 8.12365 6.84734 7.62282 6.84734 6.98175C6.84734 6.34067 6.33798 5.83984 5.73324 5.83984ZM3.11914 6.98175C3.11914 5.53321 4.27926 4.33984 5.73324 4.33984C7.18722 4.33984 8.34734 5.53321 8.34734 6.98175C8.34734 8.43028 7.18722 9.62365 5.73324 9.62365C4.27926 9.62365 3.11914 8.43029 3.11914 6.98175Z" fill="black"/>
<path d="M19.8143 20.2788C19.3726 20.2816 18.9444 20.1262 18.6073 19.8408L15.5963 17.3328C15.518 17.2706 15.4529 17.1934 15.4048 17.1057C15.3567 17.018 15.3267 16.9216 15.3164 16.8221C15.3062 16.7226 15.3159 16.6221 15.3451 16.5264C15.3743 16.4308 15.4223 16.3419 15.4863 16.2651C15.5503 16.1883 15.6291 16.125 15.7179 16.0791C15.8068 16.0331 15.9039 16.0054 16.0036 15.9976C16.1033 15.9897 16.2035 16.0019 16.2984 16.0333C16.3934 16.0648 16.4811 16.1149 16.5563 16.1808L19.5673 18.6898C19.6358 18.747 19.7221 18.7785 19.8113 18.7788C19.8636 18.7865 19.917 18.78 19.9658 18.7597C20.0146 18.7394 20.057 18.7063 20.0883 18.6638C20.1668 18.5837 20.2103 18.4758 20.2093 18.3638L20.2203 13.3848C20.2214 13.2887 20.1888 13.1953 20.1283 13.1208C20.096 13.0798 20.0558 13.0458 20.0101 13.0208C19.9644 12.9957 19.9142 12.98 19.8623 12.9748C19.8115 12.9698 19.7602 12.975 19.7115 12.9902C19.6627 13.0053 19.6174 13.0299 19.5783 13.0628L16.5553 15.5728C16.4022 15.6998 16.2048 15.7608 16.0067 15.7423C15.8085 15.7238 15.6259 15.6274 15.4988 15.4743C15.3718 15.3211 15.3108 15.1237 15.3293 14.9256C15.3477 14.7275 15.4442 14.5448 15.5973 14.4178L18.6203 11.9088C18.8127 11.7486 19.035 11.6284 19.2744 11.5551C19.5137 11.4819 19.7652 11.4571 20.0142 11.4821C20.2633 11.5072 20.5048 11.5816 20.7248 11.701C20.9448 11.8204 21.1387 11.9825 21.2953 12.1778C21.5716 12.5208 21.7216 12.9483 21.7203 13.3888L21.7093 18.3678C21.7095 18.8722 21.5104 19.3564 21.1553 19.7148C20.9807 19.8935 20.7721 20.0354 20.5418 20.1323C20.3115 20.2291 20.0642 20.2789 19.8143 20.2788V20.2788Z" fill="black"/>
</svg>