<svg width="25" height="24" viewBox="0 0 25 24" fill="none" xmlns="http://www.w3.org/2000/svg">
<path opacity="0.4" fill-rule="evenodd" clip-rule="evenodd" d="M17.8696 6.00298C17.7006 5.94998 17.4546 5.83898 17.2476 5.61198C17.1616 5.51798 17.0456 5.28298 16.9336 5.05698C16.6316 4.44598 16.2186 3.60998 15.3876 3.25998C14.3196 2.81198 10.2196 2.80998 9.11658 3.25798C8.29658 3.59498 7.87858 4.43498 7.57358 5.04798C7.45858 5.27798 7.34058 5.51598 7.25258 5.61198C7.04658 5.83998 6.80058 5.94998 6.64758 5.99898C3.35058 6.91098 2.74658 9.05398 2.74658 12.944C2.74658 18.568 4.11858 21.077 12.2506 21.077C20.3816 21.077 21.7536 18.568 21.7536 12.944C21.7536 9.05398 21.1506 6.91098 17.8696 6.00298Z" fill="black"/>
<path d="M16.4175 9.37708C16.4175 9.79108 16.7575 10.1271 17.1715 10.1271C17.5855 10.1271 17.9215 9.79108 17.9215 9.37708C17.9215 8.96308 17.5855 8.62708 17.1715 8.62708H17.1625C16.7485 8.62708 16.4175 8.96308 16.4175 9.37708Z" fill="black"/>
<path fill-rule="evenodd" clip-rule="evenodd" d="M12.2505 16.7711C10.1025 16.7711 8.35547 15.0231 8.35547 12.8751C8.35547 10.7281 10.1025 8.98107 12.2505 8.98107C14.3985 8.98107 16.1455 10.7281 16.1455 12.8751C16.1455 15.0231 14.3985 16.7711 12.2505 16.7711ZM9.8556 12.8756C9.8556 11.5546 10.9296 10.4806 12.2506 10.4806C13.5716 10.4806 14.6456 11.5546 14.6456 12.8756C14.6456 14.1966 13.5716 15.2706 12.2506 15.2706C10.9296 15.2706 9.8556 14.1966 9.8556 12.8756Z" fill="black"/>
</svg>