<svg width="25" height="24" viewBox="0 0 25 24" fill="none" xmlns="http://www.w3.org/2000/svg">
<path fill-rule="evenodd" clip-rule="evenodd" d="M13.4024 10.75H7.37825C5.27878 10.75 3.96289 12.2587 3.96289 14.3927V17.3582C3.96289 19.4932 5.27206 21.0009 7.37825 21.0009H13.4014C15.5076 21.0009 16.8187 19.4932 16.8187 17.3582V14.3927C16.8187 12.2587 15.5076 10.75 13.4024 10.75Z" stroke="black" stroke-width="1.5" stroke-linecap="round" stroke-linejoin="round"/>
<path d="M16.8125 14.9957L19.8346 12.4857C20.3238 12.079 21.046 12.1519 21.4469 12.6487C21.6147 12.8569 21.7068 13.1177 21.7058 13.3863L21.6953 18.3669C21.6934 19.0085 21.1802 19.5284 20.5472 19.5265C20.2825 19.5265 20.0274 19.4325 19.8231 19.2627L16.8125 16.7537" stroke="black" stroke-width="1.5" stroke-linecap="round" stroke-linejoin="round"/>
<path d="M10.4297 14.4258H12.9502" stroke="black" stroke-width="1.5" stroke-linecap="round" stroke-linejoin="round"/>
<path fill-rule="evenodd" clip-rule="evenodd" d="M16.3146 5.93676C16.3146 7.5586 15.0188 8.87353 13.4209 8.87353C11.8231 8.87353 10.5273 7.5586 10.5273 5.93676C10.5273 4.31493 11.8231 3 13.4209 3C15.0188 3 16.3146 4.31493 16.3146 5.93676Z" stroke="black" stroke-width="1.5" stroke-linecap="round" stroke-linejoin="round"/>
<path fill-rule="evenodd" clip-rule="evenodd" d="M8.34734 6.98175C8.34734 8.02655 7.5126 8.87365 6.48324 8.87365C5.45388 8.87365 4.61914 8.02655 4.61914 6.98175C4.61914 5.93694 5.45388 5.08984 6.48324 5.08984C7.5126 5.08984 8.34734 5.93694 8.34734 6.98175Z" stroke="black" stroke-width="1.5" stroke-linecap="round" stroke-linejoin="round"/>
</svg>