<svg width="24" height="25" viewBox="0 0 24 25" fill="none" xmlns="http://www.w3.org/2000/svg">
<path fill-rule="evenodd" clip-rule="evenodd" d="M12.826 13.5634H11.174C10.76 13.5634 10.424 13.2274 10.424 12.8134C10.424 12.3994 10.76 12.0634 11.174 12.0634H12.826C13.24 12.0634 13.576 12.3994 13.576 12.8134C13.576 13.2274 13.24 13.5634 12.826 13.5634ZM21 20.6094H20.59L12.85 6.2394L13.66 4.7394C13.85 4.3694 13.72 3.9194 13.35 3.7194C12.99 3.5294 12.53 3.6594 12.34 4.0294L12 4.6594L11.66 4.0294C11.46 3.6594 11.01 3.5294 10.64 3.7194C10.28 3.9194 10.14 4.3694 10.34 4.7394L11.15 6.2394L3.41 20.6094H3C2.59 20.6094 2.25 20.9494 2.25 21.3594C2.25 21.7794 2.59 22.1094 3 22.1094H8.721C8.83146 22.1094 8.921 22.0199 8.921 21.9094V17.0164C8.921 16.1014 9.649 15.3564 10.544 15.3564H13.455C14.35 15.3564 15.079 16.1014 15.079 17.0164V21.9094C15.079 22.0199 15.1685 22.1094 15.279 22.1094H21C21.41 22.1094 21.75 21.7794 21.75 21.3594C21.75 20.9494 21.41 20.6094 21 20.6094Z" fill="black"/>
<path fill-rule="evenodd" clip-rule="evenodd" d="M13.4554 16.8564H10.5444C10.4774 16.8564 10.4204 16.9294 10.4204 17.0164V21.9094C10.4204 22.0199 10.51 22.1094 10.6204 22.1094H13.3794C13.4899 22.1094 13.5794 22.0199 13.5794 21.9094V17.0164C13.5794 16.9284 13.5234 16.8564 13.4554 16.8564Z" fill="black"/>
</svg>