<svg width="24" height="24" viewBox="0 0 24 24" fill="none" xmlns="http://www.w3.org/2000/svg">
<path opacity="0.4" fill-rule="evenodd" clip-rule="evenodd" d="M18.553 20.228C17.753 18.745 17.253 16.879 17.053 14.58L19.336 20.228H18.553ZM5.513 20.228H4.73L7.012 14.58C6.812 16.879 6.313 18.745 5.513 20.228ZM21 20.228H20.88L17.89 12.798C17.85 12.688 17.79 12.598 17.71 12.528L12.81 7.028V6.488L15.9 5.198C16.18 5.078 16.37 4.808 16.37 4.498C16.37 4.198 16.18 3.928 15.9 3.808L12.35 2.328C12.12 2.238 11.86 2.258 11.65 2.398C11.44 2.538 11.31 2.768 11.31 3.018V7.028L6.25 12.568C6.19 12.628 6.14 12.708 6.11 12.798L3.12 20.228H3C2.59 20.228 2.25 20.568 2.25 20.978C2.25 21.398 2.59 21.728 3 21.728H21C21.41 21.728 21.75 21.398 21.75 20.978C21.75 20.568 21.41 20.228 21 20.228Z" fill="black"/>
<path d="M7.31897 20.2273H11.31V14.3652C9.98734 16.6349 8.51499 18.6815 7.31897 20.2273Z" fill="black"/>
</svg>