<svg width="25" height="24" viewBox="0 0 25 24" fill="none" xmlns="http://www.w3.org/2000/svg">
<path fill-rule="evenodd" clip-rule="evenodd" d="M2.5 20.4932C2.5 20.079 2.83579 19.7432 3.25 19.7432H21.25C21.6642 19.7432 22 20.079 22 20.4932C22 20.9074 21.6642 21.2432 21.25 21.2432H3.25C2.83579 21.2432 2.5 20.9074 2.5 20.4932Z" fill="black"/>
<path fill-rule="evenodd" clip-rule="evenodd" d="M12.246 10.3447C12.4502 10.3447 12.6456 10.428 12.7871 10.5753L13.9737 11.8114L14.9087 10.8364C15.1954 10.5374 15.6701 10.5275 15.9691 10.8141C16.2681 11.1008 16.278 11.5756 15.9914 11.8746L14.5154 13.4138C14.374 13.5613 14.1785 13.6447 13.9742 13.6447C13.7699 13.6448 13.5745 13.5615 13.433 13.4141L12.246 12.1777L11.0591 13.4141C10.9173 13.5618 10.7214 13.6451 10.5167 13.6447C10.312 13.6444 10.1164 13.5604 9.97515 13.4122L8.50791 11.873C8.22211 11.5731 8.23348 11.0984 8.5333 10.8126C8.83312 10.5268 9.30786 10.5382 9.59366 10.838L10.5199 11.8097L11.705 10.5753C11.8464 10.428 12.0418 10.3447 12.246 10.3447Z" fill="black"/>
<path fill-rule="evenodd" clip-rule="evenodd" d="M12.2499 15.2393C12.5257 15.2392 12.7792 15.3906 12.9101 15.6333L15.3387 20.1372C15.5353 20.5018 15.3991 20.9567 15.0345 21.1533C14.6699 21.3499 14.215 21.2137 14.0184 20.8491L12.2501 17.5697L10.4826 20.849C10.2861 21.2136 9.83119 21.3499 9.46656 21.1534C9.10194 20.9568 8.96568 20.5019 9.1622 20.1373L11.5898 15.6334C11.7206 15.3906 11.9741 15.2393 12.2499 15.2393Z" fill="black"/>
<path fill-rule="evenodd" clip-rule="evenodd" d="M13.6376 2.84676C14.0023 3.04327 14.1385 3.49816 13.942 3.86279L4.78928 20.846C4.59277 21.2107 4.13787 21.347 3.77324 21.1504C3.40861 20.9539 3.27232 20.499 3.46883 20.1344L12.6216 3.15117C12.8181 2.78654 13.273 2.65025 13.6376 2.84676Z" fill="black"/>
<path fill-rule="evenodd" clip-rule="evenodd" d="M10.8653 2.84661C11.23 2.65025 11.6849 2.78672 11.8812 3.15143L21.0252 20.1347C21.2216 20.4994 21.0851 20.9542 20.7204 21.1506C20.3557 21.347 19.9008 21.2105 19.7045 20.8458L10.5605 3.86253C10.3641 3.49782 10.5006 3.04298 10.8653 2.84661Z" fill="black"/>
</svg>