<svg width="24" height="24" viewBox="0 0 24 24" fill="none" xmlns="http://www.w3.org/2000/svg">
<path fill-rule="evenodd" clip-rule="evenodd" d="M21.75 20.4885C21.75 20.9085 21.41 21.2385 21 21.2385H3C2.59 21.2385 2.25 20.9085 2.25 20.4885C2.25 20.0785 2.59 19.7385 3 19.7385H3.41L11.15 5.36855L10.34 3.86855C10.14 3.49855 10.28 3.04855 10.64 2.84855C11.01 2.65855 11.46 2.78855 11.66 3.15855L12 3.78855L12.34 3.15855C12.53 2.78855 12.99 2.65855 13.35 2.84855C13.72 3.04855 13.85 3.49855 13.66 3.86855L12.85 5.36855L20.59 19.7385H21C21.41 19.7385 21.75 20.0785 21.75 20.4885Z" fill="black" fill-opacity="0.4"/>
<path fill-rule="evenodd" clip-rule="evenodd" d="M12.8261 12.6914H11.1741C10.7601 12.6914 10.4241 12.3554 10.4241 11.9414C10.4241 11.5274 10.7601 11.1914 11.1741 11.1914H12.8261C13.2401 11.1914 13.5761 11.5274 13.5761 11.9414C13.5761 12.3554 13.2401 12.6914 12.8261 12.6914Z" fill="black"/>
<path fill-rule="evenodd" clip-rule="evenodd" d="M15.0799 16.1489V21.2389H13.5799V16.1489C13.5799 16.0589 13.5199 15.9889 13.4599 15.9889H10.5399C10.4799 15.9889 10.4199 16.0589 10.4199 16.1489V21.2389H8.91992V16.1489C8.91992 15.2289 9.64992 14.4889 10.5399 14.4889H13.4599C14.3499 14.4889 15.0799 15.2289 15.0799 16.1489Z" fill="black"/>
</svg>