<svg width="25" height="24" viewBox="0 0 25 24" fill="none" xmlns="http://www.w3.org/2000/svg">
<path fill-rule="evenodd" clip-rule="evenodd" d="M13.8317 5.65928C13.8317 5.65935 13.8316 5.65921 13.8317 5.65928L21.0744 19.0997C21.7188 20.2968 20.8525 21.7487 19.4927 21.7487H5.00707C3.6473 21.7487 2.78084 20.2971 3.42528 19.1L10.6681 5.65928C10.6682 5.65921 10.6681 5.65935 10.6681 5.65928C11.3464 4.40003 13.1534 4.40003 13.8317 5.65928ZM12.5109 6.37043C12.3991 6.1627 12.1007 6.1627 11.9888 6.37043L4.74604 19.8111C4.63934 20.0093 4.78283 20.2487 5.00707 20.2487H19.4927C19.717 20.2487 19.8604 20.0093 19.7537 19.8111L12.5109 6.37043Z" fill="black"/>
<path fill-rule="evenodd" clip-rule="evenodd" d="M10.0343 3.21756C10.3273 2.92476 10.8021 2.92489 11.0949 3.21787L12.2508 4.37437L13.4074 3.21772C13.7003 2.92482 14.1752 2.92482 14.4681 3.21772C14.761 3.51061 14.761 3.98548 14.4681 4.27838L12.7809 5.96552C12.6403 6.10619 12.4495 6.18521 12.2505 6.18519C12.0516 6.18516 11.8608 6.10608 11.7201 5.96536L10.034 4.27822C9.74116 3.98525 9.7413 3.51037 10.0343 3.21756Z" fill="black"/>
<path fill-rule="evenodd" clip-rule="evenodd" d="M12.25 2.25C12.6642 2.25 13 2.58579 13 3V5.43536C13 5.84957 12.6642 6.18536 12.25 6.18536C11.8358 6.18536 11.5 5.84957 11.5 5.43536V3C11.5 2.58579 11.8358 2.25 12.25 2.25Z" fill="black"/>
<path fill-rule="evenodd" clip-rule="evenodd" d="M12.2507 14.1504C12.5265 14.1504 12.7801 14.3018 12.9109 14.5445L16.1986 20.6441C16.3951 21.0087 16.2589 21.4636 15.8943 21.6602C15.5296 21.8567 15.0747 21.7204 14.8782 21.3558L12.2507 16.4811L9.62324 21.3558C9.42671 21.7204 8.97181 21.8567 8.60718 21.6602C8.24256 21.4636 8.1063 21.0087 8.30283 20.6441L11.5905 14.5445C11.7214 14.3018 11.9749 14.1504 12.2507 14.1504Z" fill="black"/>
<path fill-rule="evenodd" clip-rule="evenodd" d="M11.7439 10.0286C12.0292 9.77172 12.4623 9.77172 12.7476 10.0286L14.1603 11.3006L15.294 10.2789C15.6017 10.0016 16.0759 10.0262 16.3533 10.3339C16.6306 10.6416 16.6059 11.1158 16.2982 11.3931L14.6627 12.8672C14.3774 13.1243 13.9441 13.1244 13.6587 12.8674L12.2457 11.5952L10.8328 12.8674C10.5468 13.1249 10.1123 13.1242 9.82717 12.8657L8.20132 11.3916C7.89446 11.1134 7.87123 10.6391 8.14945 10.3322C8.42767 10.0254 8.90198 10.0021 9.20884 10.2804L10.3327 11.2993L11.7439 10.0286Z" fill="black"/>
</svg>