<svg width="24" height="25" viewBox="0 0 24 25" fill="none" xmlns="http://www.w3.org/2000/svg">
<path fill-rule="evenodd" clip-rule="evenodd" d="M18.553 21.0984C17.753 19.6154 17.253 17.7494 17.053 15.4504L19.336 21.0984H18.553ZM11.31 21.0984H8.537C9.368 20.0244 10.391 18.6024 11.31 17.0254V21.0984ZM5.513 21.0984H4.73L7.012 15.4504C6.812 17.7494 6.313 19.6154 5.513 21.0984ZM21 21.0984H20.88L17.89 13.6684C17.85 13.5584 17.79 13.4684 17.71 13.3984L12.81 7.89836V7.35836L15.9 6.06836C16.18 5.94836 16.37 5.67836 16.37 5.36836C16.37 5.06836 16.18 4.79836 15.9 4.67836L12.35 3.19836C12.12 3.10836 11.86 3.12836 11.65 3.26836C11.44 3.40836 11.31 3.63836 11.31 3.88836V7.89836L6.25 13.4384C6.19 13.4984 6.14 13.5784 6.11 13.6684L3.12 21.0984H3C2.59 21.0984 2.25 21.4384 2.25 21.8484C2.25 22.2684 2.59 22.5984 3 22.5984H21C21.41 22.5984 21.75 22.2684 21.75 21.8484C21.75 21.4384 21.41 21.0984 21 21.0984Z" fill="black"/>
</svg>