<svg width="25" height="24" viewBox="0 0 25 24" fill="none" xmlns="http://www.w3.org/2000/svg">
<path fill-rule="evenodd" clip-rule="evenodd" d="M2.5 20.4922C2.5 20.078 2.83579 19.7422 3.25 19.7422H21.25C21.6642 19.7422 22 20.078 22 20.4922C22 20.9064 21.6642 21.2422 21.25 21.2422H3.25C2.83579 21.2422 2.5 20.9064 2.5 20.4922Z" fill="black"/>
<path fill-rule="evenodd" clip-rule="evenodd" d="M9.375 17.4843C9.375 15.8904 10.6677 14.5996 12.2607 14.5996C13.8541 14.5996 15.1454 15.8909 15.1454 17.4843V20.4198C15.1454 20.834 14.8096 21.1698 14.3954 21.1698C13.9812 21.1698 13.6454 20.834 13.6454 20.4198V17.4843C13.6454 16.7193 13.0257 16.0996 12.2607 16.0996C11.4952 16.0996 10.875 16.7197 10.875 17.4843V20.4198C10.875 20.834 10.5392 21.1698 10.125 21.1698C9.71079 21.1698 9.375 20.834 9.375 20.4198V17.4843Z" fill="black"/>
<path fill-rule="evenodd" clip-rule="evenodd" d="M13.6095 2.84778C13.9741 3.04434 14.1103 3.49926 13.9138 3.86386L12.9458 5.65937C12.9363 5.68214 12.9256 5.70447 12.9139 5.72628L4.7872 20.7928C4.59056 21.1573 4.13561 21.2935 3.77105 21.0968C3.40649 20.9002 3.27036 20.4452 3.467 20.0807L11.5624 5.0722C11.5719 5.04952 11.5825 5.02728 11.5942 5.00557L12.5934 3.15205C12.79 2.78745 13.2449 2.65122 13.6095 2.84778Z" fill="black"/>
<path fill-rule="evenodd" clip-rule="evenodd" d="M10.8892 2.84838C11.2535 2.65121 11.7086 2.78667 11.9058 3.15094L12.9145 5.01446L21.033 20.0809C21.2295 20.4456 21.0931 20.9005 20.7285 21.097C20.3639 21.2934 19.909 21.1571 19.7125 20.7925L10.5867 3.86497C10.3895 3.50069 10.525 3.04555 10.8892 2.84838Z" fill="black"/>
<path fill-rule="evenodd" clip-rule="evenodd" d="M7.96875 11.9404C7.96875 11.5262 8.30454 11.1904 8.71875 11.1904H15.6259C16.0401 11.1904 16.3759 11.5262 16.3759 11.9404C16.3759 12.3546 16.0401 12.6904 15.6259 12.6904H8.71875C8.30454 12.6904 7.96875 12.3546 7.96875 11.9404Z" fill="black"/>
</svg>