<svg width="24" height="25" viewBox="0 0 24 25" fill="none" xmlns="http://www.w3.org/2000/svg">
<path fill-rule="evenodd" clip-rule="evenodd" d="M12.0478 7.22192C9.09142 7.22192 6.69476 9.61858 6.69476 12.575C6.69476 15.5314 9.09142 17.9281 12.0478 17.9281C15.0043 17.9281 17.4009 15.5314 17.4009 12.575C17.4009 9.61858 15.0043 7.22192 12.0478 7.22192ZM5.19476 12.575C5.19476 8.79015 8.26299 5.72192 12.0478 5.72192C15.8327 5.72192 18.9009 8.79015 18.9009 12.575C18.9009 16.3599 15.8327 19.4281 12.0478 19.4281C8.26299 19.4281 5.19476 16.3599 5.19476 12.575Z" fill="black"/>
<path fill-rule="evenodd" clip-rule="evenodd" d="M13.1211 13.1459C10.4242 9.94762 8.04752 9.43285 7.42219 9.47753C7.00903 9.50704 6.65017 9.19604 6.62065 8.78288C6.59114 8.36972 6.90214 8.01086 7.3153 7.98134C8.58217 7.89084 11.3849 8.76002 14.2679 12.179C14.5349 12.4956 14.4946 12.9688 14.178 13.2358C13.8613 13.5028 13.3882 13.4626 13.1211 13.1459Z" fill="black"/>
<path fill-rule="evenodd" clip-rule="evenodd" d="M16.5194 2.76394C16.6841 2.64087 16.8921 2.59082 17.0948 2.62549C18.1625 2.80811 19.2785 3.55125 20.1443 4.41449C21.0133 5.28092 21.7685 6.40588 21.9855 7.50035C22.0268 7.70875 21.9778 7.92489 21.8506 8.09509C21.0358 9.18562 20.0665 9.70987 19.1157 9.88335C18.1876 10.0527 17.3348 9.87828 16.7319 9.67615C16.3391 9.54449 16.1275 9.11939 16.2592 8.72665C16.3908 8.33392 16.8159 8.12229 17.2087 8.25395C17.669 8.40829 18.2523 8.51611 18.8464 8.40772C19.3468 8.31641 19.899 8.06464 20.4264 7.47085C20.2122 6.84419 19.7294 6.11901 19.0852 5.47673C18.442 4.83538 17.7366 4.37494 17.1504 4.1823C16.5545 4.71013 16.3036 5.26474 16.2141 5.76884C16.1081 6.36584 16.2191 6.95361 16.3768 7.41864C16.5099 7.81091 16.2997 8.23675 15.9074 8.36978C15.5152 8.5028 15.0893 8.29265 14.9563 7.90038C14.7508 7.29447 14.5719 6.43784 14.7372 5.50668C14.9066 4.55217 15.4281 3.57932 16.5194 2.76394Z" fill="black"/>
<path fill-rule="evenodd" clip-rule="evenodd" d="M7.48101 22.4656C7.31631 22.5886 7.10831 22.6387 6.90565 22.604C5.838 22.4214 4.72195 21.6782 3.85613 20.815C2.98711 19.9486 2.23193 18.8236 2.01499 17.7291C1.97368 17.5207 2.0227 17.3046 2.14986 17.1344C3.02262 15.9663 4.06991 15.4513 5.0755 15.3159C6.05261 15.1844 6.93227 15.4179 7.50771 15.6394C7.89429 15.7882 8.08706 16.2222 7.93829 16.6087C7.92437 16.6449 7.90796 16.6794 7.88933 16.712C7.92068 16.6943 7.9537 16.6786 7.98828 16.6652C8.37451 16.5155 8.80894 16.7073 8.9586 17.0935C9.18308 17.6729 9.42008 18.5561 9.29211 19.5355C9.16036 20.5438 8.64827 21.5934 7.48101 22.4656ZM7.60849 16.9917C7.41999 17.0985 7.18694 17.1232 6.96896 17.0393C6.52336 16.8678 5.9111 16.717 5.27559 16.8025C4.73927 16.8747 4.14128 17.12 3.57401 17.7586C3.78822 18.3853 4.27101 19.1105 4.9152 19.7528C5.55847 20.3941 6.26386 20.8546 6.85001 21.0472C7.4898 20.4805 7.73423 19.8809 7.80476 19.3411C7.88813 18.703 7.73464 18.0864 7.55993 17.6355C7.47491 17.4161 7.50008 17.1812 7.60849 16.9917Z" fill="black"/>
<path fill-rule="evenodd" clip-rule="evenodd" d="M7.96512 16.5108C8.21658 16.84 8.1536 17.3106 7.82444 17.5621C7.63212 17.709 7.51221 17.92 7.4223 18.2078C7.37674 18.3536 7.34358 18.5032 7.30838 18.6684C7.30578 18.6806 7.30311 18.6932 7.30037 18.7061C7.27033 18.8479 7.23224 19.0277 7.18052 19.1831C7.0497 19.5761 6.62505 19.7886 6.23204 19.6578C5.83902 19.527 5.62648 19.1023 5.7573 18.7093C5.78087 18.6385 5.80232 18.5388 5.84131 18.3558C5.87632 18.1915 5.92192 17.9802 5.99055 17.7605C6.12902 17.3172 6.37923 16.7785 6.91383 16.3701C7.24299 16.1187 7.71366 16.1816 7.96512 16.5108Z" fill="black"/>
</svg>