<svg width="24" height="25" viewBox="0 0 24 25" fill="none" xmlns="http://www.w3.org/2000/svg">
<path d="M8.40274 5.32945C10.689 3.04318 14.3958 3.04318 16.6821 5.32945C18.9683 7.61571 18.9683 11.3225 16.6821 13.6088L9.31261 20.9782C8.46388 21.8269 7.08782 21.8269 6.23909 20.9782C5.39036 20.1295 5.39036 18.7534 6.23908 17.9047L13.6085 10.5352C14.1973 9.94643 14.1973 8.99178 13.6085 8.40296C13.0197 7.81415 12.0651 7.81415 11.4763 8.40296C10.6275 9.25169 9.25147 9.25169 8.40274 8.40296C7.55401 7.55424 7.55401 6.17818 8.40274 5.32945Z" stroke="black" stroke-width="1.5" stroke-linecap="round" stroke-linejoin="round"/>
<path d="M13.5308 8.311L16.5756 5.26611" stroke="black" stroke-width="1.5" stroke-linecap="round" stroke-linejoin="round"/>
<path d="M11.2333 3.78076L11.6629 8.22102" stroke="black" stroke-width="1.5" stroke-linecap="round" stroke-linejoin="round"/>
<path d="M13.8215 10.2651L18.2655 10.7272" stroke="black" stroke-width="1.5" stroke-linecap="round" stroke-linejoin="round"/>
<path d="M10.2507 13.9841L15.6986 14.5505" stroke="black" stroke-width="1.5" stroke-linecap="round" stroke-linejoin="round"/>
<path d="M6.54517 17.6904L12.0094 18.2585" stroke="black" stroke-width="1.5" stroke-linecap="round" stroke-linejoin="round"/>
</svg>