<svg width="25" height="25" viewBox="0 0 25 25" fill="none" xmlns="http://www.w3.org/2000/svg">
<path d="M7.75 21.1187V17.6187" stroke="black" stroke-width="1.5" stroke-linecap="round" stroke-linejoin="round"/>
<path fill-rule="evenodd" clip-rule="evenodd" d="M8.5152 17.6187H6.98376C6.16453 17.6187 5.5 16.9566 5.5 16.1396V8.09677C5.5 7.27969 6.16453 6.61865 6.98376 6.61865H8.5152C9.33541 6.61865 9.99994 7.27969 9.99994 8.09677V16.1396C9.99994 16.9566 9.33541 17.6187 8.5152 17.6187Z" stroke="black" stroke-width="1.5" stroke-linecap="round" stroke-linejoin="round"/>
<path d="M7.75 6.61865V3.11865" stroke="black" stroke-width="1.5" stroke-linecap="round" stroke-linejoin="round"/>
<path d="M17.25 19.1187V14.6187" stroke="black" stroke-width="1.5" stroke-linecap="round" stroke-linejoin="round"/>
<path fill-rule="evenodd" clip-rule="evenodd" d="M18.0152 14.6187H16.4838C15.6645 14.6187 15 13.9566 15 13.1396V11.0968C15 10.2797 15.6645 9.61865 16.4838 9.61865H18.0152C18.8354 9.61865 19.4999 10.2797 19.4999 11.0968V13.1396C19.4999 13.9566 18.8354 14.6187 18.0152 14.6187Z" stroke="black" stroke-width="1.5" stroke-linecap="round" stroke-linejoin="round"/>
<path d="M17.25 9.61865V5.11865" stroke="black" stroke-width="1.5" stroke-linecap="round" stroke-linejoin="round"/>
</svg>