<svg width="24" height="24" viewBox="0 0 24 24" fill="none" xmlns="http://www.w3.org/2000/svg">
<path opacity="0.4" fill-rule="evenodd" clip-rule="evenodd" d="M18 19.25V21C18 21.41 18.34 21.75 18.75 21.75C19.16 21.75 19.5 21.41 19.5 21V19.25H18ZM11.25 10.25V21C11.25 21.41 11.59 21.75 12 21.75C12.41 21.75 12.75 21.41 12.75 21V10.25H11.25ZM4.5 18.12V21C4.5 21.41 4.84 21.75 5.25 21.75C5.66 21.75 6 21.41 6 21V18.12H4.5ZM18.75 2.25C18.34 2.25 18 2.59 18 3V11.5H19.5V3C19.5 2.59 19.16 2.25 18.75 2.25ZM5.25 2.25C4.84 2.25 4.5 2.59 4.5 3V11.5H6V3C6 2.59 5.66 2.25 5.25 2.25ZM12 2.25C11.59 2.25 11.25 2.59 11.25 3V3.63L11.99 3.62L12.75 3.63V3C12.75 2.59 12.41 2.25 12 2.25Z" fill="black"/>
<path fill-rule="evenodd" clip-rule="evenodd" d="M6.02 11.501H4.49C3.39 11.501 2.5 12.391 2.5 13.481V16.141C2.5 17.231 3.39 18.121 4.49 18.121H6.02C7.11 18.121 8 17.231 8 16.141V13.481C8 12.391 7.11 11.501 6.02 11.501Z" fill="black"/>
<path fill-rule="evenodd" clip-rule="evenodd" d="M19.52 11.501H17.99C16.89 11.501 16 12.391 16 13.481V17.271C16 18.361 16.89 19.251 17.99 19.251H19.52C20.61 19.251 21.5 18.361 21.5 17.271V13.481C21.5 12.391 20.61 11.501 19.52 11.501Z" fill="black"/>
<path fill-rule="evenodd" clip-rule="evenodd" d="M12.77 3.63109H12.75L11.99 3.62109L11.25 3.63109H11.24C10.14 3.63109 9.25 4.52109 9.25 5.61109V8.27109C9.25 9.36109 10.14 10.2511 11.24 10.2511H12.77C13.86 10.2511 14.75 9.36109 14.75 8.27109V5.61109C14.75 4.52109 13.86 3.63109 12.77 3.63109Z" fill="black"/>
</svg>