<svg width="24" height="25" viewBox="0 0 24 25" fill="none" xmlns="http://www.w3.org/2000/svg">
<path d="M18.151 12.575C18.151 15.9456 15.4185 18.6781 12.0479 18.6781C8.67727 18.6781 5.94482 15.9456 5.94482 12.575C5.94482 9.20437 8.67727 6.47192 12.0479 6.47192C15.4185 6.47192 18.151 9.20437 18.151 12.575Z" stroke="black" stroke-width="1.5" stroke-linecap="round" stroke-linejoin="round"/>
<path d="M7.36877 8.72946C8.31487 8.66187 10.9046 9.35384 13.6945 12.6625" stroke="black" stroke-width="1.5" stroke-linecap="round" stroke-linejoin="round"/>
<path d="M15.6666 7.6595C15.3034 6.58857 15.0867 4.7707 16.9684 3.36475C18.6706 3.65591 20.8962 5.86207 21.2498 7.64617C19.8426 9.5295 18.0336 9.32151 16.9703 8.96505" stroke="black" stroke-width="1.5" stroke-linecap="round" stroke-linejoin="round"/>
<path d="M8.25927 17.3645C8.65845 18.3947 9.04025 20.3643 7.0321 21.8647C5.32986 21.5736 3.10432 19.3674 2.75068 17.5833C4.2545 15.5706 6.21729 15.9464 7.23834 16.3394" stroke="black" stroke-width="1.5" stroke-linecap="round" stroke-linejoin="round"/>
<path d="M6.46887 18.9464C6.62888 18.4657 6.64217 17.5217 7.3691 16.9663" stroke="black" stroke-width="1.5" stroke-linecap="round" stroke-linejoin="round"/>
</svg>