<svg width="24" height="25" viewBox="0 0 24 25" fill="none" xmlns="http://www.w3.org/2000/svg">
<path fill-rule="evenodd" clip-rule="evenodd" d="M16.1517 5.85978C14.1583 3.8664 10.9264 3.8664 8.93307 5.85978C8.37724 6.41561 8.37724 7.3168 8.93307 7.87263C9.48891 8.42847 10.3901 8.42847 10.9459 7.87263C11.8276 6.99093 13.2572 6.99093 14.1389 7.87263C15.0206 8.75434 15.0206 10.1839 14.1389 11.0656L6.76941 18.435C6.21358 18.9908 6.21358 19.892 6.76942 20.4479C7.32525 21.0037 8.22644 21.0037 8.78228 20.4479L16.1517 13.0784C18.1451 11.0851 18.1451 7.85315 16.1517 5.85978ZM7.87241 4.79912C10.4516 2.21996 14.6332 2.21996 17.2124 4.79912C19.7915 7.37828 19.7915 11.5599 17.2124 14.1391L9.84294 21.5085C8.70131 22.6502 6.85038 22.6502 5.70876 21.5085C4.56713 20.3669 4.56713 18.516 5.70875 17.3744L13.0782 10.0049C13.3741 9.70899 13.3741 9.22921 13.0782 8.93329C12.7823 8.63738 12.3025 8.63738 12.0066 8.93329C10.865 10.0749 9.01403 10.0749 7.87241 8.93329C6.73079 7.79167 6.73079 5.94074 7.87241 4.79912Z" fill="black"/>
<path fill-rule="evenodd" clip-rule="evenodd" d="M17.106 4.73578C17.3989 5.02868 17.3989 5.50355 17.106 5.79644L14.0611 8.84133C13.7682 9.13422 13.2933 9.13422 13.0004 8.84133C12.7075 8.54843 12.7075 8.07356 13.0004 7.78067L16.0453 4.73578C16.3382 4.44289 16.8131 4.44289 17.106 4.73578Z" fill="black"/>
<path fill-rule="evenodd" clip-rule="evenodd" d="M11.161 3.0343C11.5733 2.99441 11.9399 3.29629 11.9798 3.70858L12.4094 8.14884C12.4493 8.56113 12.1474 8.9277 11.7351 8.96759C11.3228 9.00749 10.9563 8.7056 10.9164 8.29331L10.4867 3.85305C10.4468 3.44076 10.7487 3.0742 11.161 3.0343Z" fill="black"/>
<path fill-rule="evenodd" clip-rule="evenodd" d="M13.0755 10.1876C13.1184 9.77565 13.4871 9.47638 13.8991 9.51922L18.343 9.98124C18.755 10.0241 19.0543 10.3928 19.0114 10.8048C18.9686 11.2168 18.5999 11.516 18.1879 11.4732L13.7439 11.0112C13.332 10.9683 13.0327 10.5996 13.0755 10.1876Z" fill="black"/>
<path fill-rule="evenodd" clip-rule="evenodd" d="M9.50478 13.9066C9.54762 13.4946 9.91633 13.1954 10.3283 13.2382L15.7762 13.8046C16.1882 13.8474 16.4874 14.2162 16.4446 14.6281C16.4018 15.0401 16.0331 15.3394 15.6211 15.2966L10.1732 14.7302C9.76121 14.6873 9.46195 14.3186 9.50478 13.9066Z" fill="black"/>
<path fill-rule="evenodd" clip-rule="evenodd" d="M5.79912 17.6127C5.84196 17.2007 6.21067 16.9014 6.62266 16.9443L12.0869 17.5124C12.4989 17.5552 12.7981 17.9239 12.7553 18.3359C12.7125 18.7479 12.3437 19.0472 11.9318 19.0043L6.46755 18.4362C6.05555 18.3934 5.75629 18.0247 5.79912 17.6127Z" fill="black"/>
</svg>