<svg width="25" height="25" viewBox="0 0 25 25" fill="none" xmlns="http://www.w3.org/2000/svg">
<path d="M20.5 20.1191H6.5C5.39543 20.1191 4.5 19.2237 4.5 18.1191V4.11914" stroke="black" stroke-width="1.5" stroke-linecap="round" stroke-linejoin="round"/>
<path d="M10.709 16.4751V14.0726" stroke="black" stroke-width="1.5" stroke-linecap="round" stroke-linejoin="round"/>
<path fill-rule="evenodd" clip-rule="evenodd" d="M11.2343 14.0728H10.1831C9.62071 14.0728 9.16455 13.6183 9.16455 13.0574V9.90942C9.16455 9.34854 9.62071 8.89478 10.1831 8.89478H11.2343C11.7973 8.89478 12.2535 9.34854 12.2535 9.90942V13.0574C12.2535 13.6183 11.7973 14.0728 11.2343 14.0728Z" stroke="black" stroke-width="1.5" stroke-linecap="round" stroke-linejoin="round"/>
<path d="M10.709 8.89453V6.49198" stroke="black" stroke-width="1.5" stroke-linecap="round" stroke-linejoin="round"/>
<path d="M17.23 15.1021V12.6995" stroke="black" stroke-width="1.5" stroke-linecap="round" stroke-linejoin="round"/>
<path fill-rule="evenodd" clip-rule="evenodd" d="M17.7553 12.6997H16.7041C16.1417 12.6997 15.6855 12.2453 15.6855 11.6844V7.53637C15.6855 6.97549 16.1417 6.52173 16.7041 6.52173H17.7553C18.3183 6.52173 18.7745 6.97549 18.7745 7.53637V11.6844C18.7745 12.2453 18.3183 12.6997 17.7553 12.6997Z" stroke="black" stroke-width="1.5" stroke-linecap="round" stroke-linejoin="round"/>
<path d="M17.23 6.52148V4.11894" stroke="black" stroke-width="1.5" stroke-linecap="round" stroke-linejoin="round"/>
</svg>