<svg width="25" height="25" viewBox="0 0 25 25" fill="none" xmlns="http://www.w3.org/2000/svg">
<path fill-rule="evenodd" clip-rule="evenodd" d="M6.5 18.8687C6.08579 18.8687 5.75 18.5329 5.75 18.1187L5.75 6.11865C5.75 5.70444 6.08579 5.36865 6.5 5.36865C6.91421 5.36865 7.25 5.70444 7.25 6.11865L7.25 18.1187C7.25 18.5329 6.91421 18.8687 6.5 18.8687Z" fill="black"/>
<path fill-rule="evenodd" clip-rule="evenodd" d="M10.5 15.8687C10.9142 15.8687 11.25 15.5329 11.25 15.1187L11.25 9.11865C11.25 8.70444 10.9142 8.36865 10.5 8.36865C10.0858 8.36865 9.75 8.70444 9.75 9.11865L9.75 15.1187C9.75 15.5329 10.0858 15.8687 10.5 15.8687Z" fill="black"/>
<path fill-rule="evenodd" clip-rule="evenodd" d="M14.5 20.8687C14.9142 20.8687 15.25 20.5329 15.25 20.1187L15.25 4.11865C15.25 3.70444 14.9142 3.36865 14.5 3.36865C14.0858 3.36865 13.75 3.70444 13.75 4.11865L13.75 20.1187C13.75 20.5329 14.0858 20.8687 14.5 20.8687Z" fill="black"/>
<path fill-rule="evenodd" clip-rule="evenodd" d="M18.5 17.8687C18.9142 17.8687 19.25 17.5329 19.25 17.1187L19.25 7.11865C19.25 6.70444 18.9142 6.36865 18.5 6.36865C18.0858 6.36865 17.75 6.70444 17.75 7.11865L17.75 17.1187C17.75 17.5329 18.0858 17.8687 18.5 17.8687Z" fill="black"/>
<path fill-rule="evenodd" clip-rule="evenodd" d="M22.25 12.1182C22.25 11.704 21.9142 11.3682 21.5 11.3682L3.5 11.3682C3.08579 11.3682 2.75 11.704 2.75 12.1182C2.75 12.5324 3.08579 12.8682 3.5 12.8682L21.5 12.8682C21.9142 12.8682 22.25 12.5324 22.25 12.1182Z" fill="black"/>
</svg>