<svg width="25" height="24" viewBox="0 0 25 24" fill="none" xmlns="http://www.w3.org/2000/svg">
<path d="M12.1489 4.02148V7.05523M10.1265 4.02148H14.1715" stroke="black" stroke-width="1.5" stroke-linecap="round" stroke-linejoin="round"/>
<path d="M3.25 10.2097V16.2772M6.08149 13.2434H3.25" stroke="black" stroke-width="1.5" stroke-linecap="round" stroke-linejoin="round"/>
<path fill-rule="evenodd" clip-rule="evenodd" d="M6.24121 9.86607C6.24121 9.31379 6.68893 8.86607 7.24121 8.86607H7.88144C8.1276 8.86607 8.36511 8.77528 8.5485 8.61108L10.0014 7.31017C10.1848 7.14597 10.4223 7.05518 10.6685 7.05518H14.3289C14.6999 7.05518 15.0403 7.26048 15.2134 7.58854L16.9545 10.8886H18.3762V9.86607C18.3762 9.31379 18.8239 8.86607 19.3762 8.86607H20.4099C20.9622 8.86607 21.4099 9.31342 21.4099 9.8657C21.4099 12.0835 21.4099 15.7498 21.4099 17.9677C21.4099 18.52 20.9622 18.9673 20.4099 18.9673H19.3762C18.8239 18.9673 18.3762 18.5196 18.3762 17.9673V16.9448H16.1692V18.9785C16.1692 19.5308 15.7215 19.9785 15.1692 19.9785H10.9245C10.5997 19.9785 10.2951 19.8208 10.1077 19.5555L8.56253 17.3679C8.37514 17.1026 8.07056 16.9448 7.74574 16.9448H7.24121C6.68893 16.9448 6.24121 16.4971 6.24121 15.9448V9.86607Z" stroke="black" stroke-width="1.5" stroke-linecap="round" stroke-linejoin="round"/>
</svg>