<svg width="25" height="24" viewBox="0 0 25 24" fill="none" xmlns="http://www.w3.org/2000/svg">
<path fill-rule="evenodd" clip-rule="evenodd" d="M17.5506 13.3525L14.6395 17.3623C14.4318 17.6483 14.6361 18.049 14.9894 18.049H17.3708V20.5666C17.3708 20.9855 17.9077 21.1602 18.1539 20.8205L21.065 16.8111C21.2727 16.5251 21.0684 16.124 20.7151 16.124H18.3333V13.6068C18.3333 13.1875 17.7968 13.0132 17.5506 13.3525Z" stroke="black" stroke-width="1.5" stroke-linecap="round" stroke-linejoin="round"/>
<path d="M14.3208 11.0488H15.8932" stroke="black" stroke-width="1.5" stroke-linecap="round" stroke-linejoin="round"/>
<path d="M6.55127 11.0488H8.12366" stroke="black" stroke-width="1.5" stroke-linecap="round" stroke-linejoin="round"/>
<path d="M3.35596 7.38477C8.57117 8.12423 13.8646 8.12423 19.0798 7.38477" stroke="black" stroke-width="1.5" stroke-linecap="round" stroke-linejoin="round"/>
<path d="M19.0966 10.8108C19.096 10.1016 18.8698 9.41071 18.4506 8.83866L17.4307 7.46996C17.349 7.35465 17.2833 7.22932 17.2352 7.09645L16.3172 4.54663C16.0875 3.89123 15.4899 3.39083 14.8043 3.28002C12.4363 2.90666 10.0244 2.90666 7.6564 3.28002C6.97387 3.39365 6.38035 3.89347 6.15199 4.54663L5.23399 7.09645C5.18579 7.22397 5.12001 7.34406 5.03852 7.45336L4.00162 8.88099C3.5915 9.44698 3.37132 10.1284 3.37267 10.8274L3.3584 15.3814C3.35689 15.8657 3.74902 16.259 4.23326 16.259H5.96663C6.4498 16.259 6.84149 15.8673 6.84149 15.3842V15.0256C6.84149 14.5425 7.23318 14.1508 7.71635 14.1508H12.0237" stroke="black" stroke-width="1.5" stroke-linecap="round" stroke-linejoin="round"/>
</svg>