<svg width="25" height="24" viewBox="0 0 25 24" fill="none" xmlns="http://www.w3.org/2000/svg">
<path d="M18.0926 14.1245V15.3523M18.0926 15.3523C16.8721 15.3523 15.8827 16.3417 15.8827 17.5623C15.8827 18.7828 16.8721 19.7722 18.0926 19.7722M18.0926 15.3523C19.3132 15.3523 20.3026 16.3417 20.3026 17.5623C20.3026 18.7828 19.3132 19.7722 18.0926 19.7722M18.0926 19.7722V21M20.0065 18.6673L21.0393 19.2635M21.0393 15.861L20.0065 16.4573M16.1787 16.4573L15.146 15.861M15.146 19.2635L16.1787 18.6673" stroke="black" stroke-width="1.5" stroke-linecap="round" stroke-linejoin="round"/>
<path d="M14.8237 11.338H16.4526" stroke="black" stroke-width="1.5" stroke-linecap="round" stroke-linejoin="round"/>
<path d="M6.7749 11.338H8.40377" stroke="black" stroke-width="1.5" stroke-linecap="round" stroke-linejoin="round"/>
<path d="M3.46484 7.5423C8.8674 8.30832 14.351 8.30832 19.7536 7.5423" stroke="black" stroke-width="1.5" stroke-linecap="round" stroke-linejoin="round"/>
<path d="M12.4438 14.5513H7.98178C7.48125 14.5513 7.0755 14.9571 7.0755 15.4576V15.829C7.0755 16.3296 6.66974 16.7353 6.16921 16.7353H4.37357C3.87193 16.7353 3.46572 16.3278 3.46729 15.8262L3.48207 11.1086C3.48067 10.3845 3.70876 9.67857 4.13361 9.09224L5.20776 7.61333C5.29217 7.50011 5.36032 7.3757 5.41025 7.2436L6.36123 4.60218C6.59779 3.92556 7.21262 3.4078 7.91968 3.29008C10.3728 2.90331 12.8713 2.90331 15.3244 3.29008C16.0346 3.40487 16.6536 3.92324 16.8916 4.60218L17.8426 7.2436C17.8924 7.38125 17.9605 7.51107 18.0451 7.63052L19.1016 9.04839C19.5359 9.64099 19.7702 10.3567 19.7708 11.0914V11.8413" stroke="black" stroke-width="1.5" stroke-linecap="round" stroke-linejoin="round"/>
</svg>