<svg width="25" height="24" viewBox="0 0 25 24" fill="none" xmlns="http://www.w3.org/2000/svg">
<path d="M9.99791 17.848C9.99717 18.0496 9.96738 18.2502 9.90962 18.4434C9.77925 18.9059 9.50135 19.313 9.11822 19.603C8.7351 19.8931 8.2674 20.0499 7.78685 20.0499C7.3063 20.0499 6.83914 19.8931 6.45602 19.603C6.07289 19.313 5.79499 18.9059 5.66462 18.4434C5.61044 18.2497 5.58464 18.0491 5.58764 17.848C5.58764 17.2631 5.81959 16.7013 6.23313 16.2878C6.64668 15.8742 7.20793 15.6428 7.79277 15.6428C8.37761 15.6428 8.93833 15.8742 9.35187 16.2878C9.76542 16.7013 9.99791 17.2631 9.99791 17.848Z" stroke="black" stroke-width="1.5" stroke-linecap="round" stroke-linejoin="round"/>
<path d="M3.25 5.99524H4.2422C4.48413 5.9959 4.72153 6.06163 4.92916 6.18582C5.13678 6.31001 5.30728 6.48765 5.4223 6.7005L7.92461 11.3315" stroke="black" stroke-width="1.5" stroke-linecap="round" stroke-linejoin="round"/>
<path d="M5.30076 17.8474H3.25" stroke="black" stroke-width="1.5" stroke-linecap="round" stroke-linejoin="round"/>
<path d="M3.25 11.3865H10.0086C10.6607 11.3865 11.2864 11.6457 11.7475 12.1068C12.2086 12.5679 12.4673 13.1925 12.4673 13.8446V15.7526C12.4673 16.4047 12.2086 17.0304 11.7475 17.4915C11.2864 17.9526 10.6607 18.2108 10.0086 18.2108V18.2108" stroke="black" stroke-width="1.5" stroke-linecap="round" stroke-linejoin="round"/>
<path d="M13.5942 5.99524V3.9502" stroke="black" stroke-width="1.5" stroke-linecap="round" stroke-linejoin="round"/>
<path d="M19.2051 12.0851H21.2501" stroke="black" stroke-width="1.5" stroke-linecap="round" stroke-linejoin="round"/>
<path d="M11.5852 8.62811L12.5932 9.53108L14.4621 9.53108L14.6931 11.253L16.1635 12.1141L14.9845 13.7638L15.3654 14.97" stroke="black" stroke-width="1.5" stroke-linecap="round" stroke-linejoin="round"/>
<path d="M17.7593 16.7647L19.2053 18.2108" stroke="black" stroke-width="1.5" stroke-linecap="round" stroke-linejoin="round"/>
<path d="M17.5635 7.60144L19.0095 6.15537" stroke="black" stroke-width="1.5" stroke-linecap="round" stroke-linejoin="round"/>
</svg>