<svg width="25" height="24" viewBox="0 0 25 24" fill="none" xmlns="http://www.w3.org/2000/svg">
<path d="M14.2805 6.87296C13.9116 6.29977 13.1438 5.90472 12.2501 5.90472C11.3564 5.90472 10.5886 6.29977 10.2148 6.87296" stroke="black" stroke-width="1.5" stroke-linecap="round" stroke-linejoin="round"/>
<path d="M16.7526 4.90937C15.7612 3.75619 14.1161 3 12.2493 3C10.3806 3 8.73464 3.75813 7.74316 4.91227" stroke="black" stroke-width="1.5" stroke-linecap="round" stroke-linejoin="round"/>
<path d="M14.8687 16.5895H16.1995" stroke="black" stroke-width="1.5" stroke-linecap="round" stroke-linejoin="round"/>
<path d="M8.29297 16.5895H9.62386" stroke="black" stroke-width="1.5" stroke-linecap="round" stroke-linejoin="round"/>
<path d="M5.58789 13.488C10.0021 14.1139 14.4826 14.1139 18.8968 13.488" stroke="black" stroke-width="1.5" stroke-linecap="round" stroke-linejoin="round"/>
<path d="M5.59082 20.2572C5.58954 20.6671 5.92145 21 6.33132 21H7.79847C8.20743 21 8.53896 20.6685 8.53896 20.2595V19.956C8.53896 19.5471 8.8705 19.2155 9.27946 19.2155H15.2131C15.6221 19.2155 15.9536 19.5471 15.9536 19.956V20.2595C15.9536 20.6685 16.2852 21 16.6941 21H18.1714C18.5803 21 18.9118 20.6685 18.9118 20.2595V16.3885C18.9114 15.7882 18.7199 15.2035 18.3651 14.7193L17.5018 13.5608C17.4327 13.4632 17.3771 13.3571 17.3364 13.2446L16.5594 11.0864C16.3649 10.5317 15.8591 10.1081 15.2788 10.0144C13.2745 9.69834 11.2331 9.69834 9.22872 10.0144C8.65101 10.1105 8.14865 10.5336 7.95536 11.0864L7.17835 13.2446C7.13755 13.3526 7.08187 13.4542 7.0129 13.5467L6.13525 14.7551C5.78812 15.2342 5.60175 15.811 5.6029 16.4026L5.59082 20.2572Z" stroke="black" stroke-width="1.5" stroke-linecap="round" stroke-linejoin="round"/>
</svg>