<svg width="25" height="24" viewBox="0 0 25 24" fill="none" xmlns="http://www.w3.org/2000/svg">
<path d="M12.1489 4.02148V7.05523M10.1265 4.02148H14.1715" stroke="black" stroke-width="1.5" stroke-linecap="round" stroke-linejoin="round"/>
<path d="M3.25 10.2097V16.2772M6.08149 13.2434H3.25" stroke="black" stroke-width="1.5" stroke-linecap="round" stroke-linejoin="round"/>
<path fill-rule="evenodd" clip-rule="evenodd" d="M6.08105 9.86607C6.08105 9.31379 6.52877 8.86607 7.08105 8.86607H7.72128C7.96744 8.86607 8.20495 8.77528 8.38834 8.61108L9.84125 7.31017C10.0246 7.14597 10.2622 7.05518 10.5083 7.05518H14.1688C14.5397 7.05518 14.8801 7.26048 15.0532 7.58854L16.7943 10.8886H18.216V9.86607C18.216 9.31379 18.6637 8.86607 19.216 8.86607H20.2498C20.802 8.86607 21.2498 9.31342 21.2498 9.8657C21.2498 12.0835 21.2498 15.7498 21.2498 17.9677C21.2498 18.52 20.802 18.9673 20.2498 18.9673H19.216C18.6637 18.9673 18.216 18.5196 18.216 17.9673V16.9448H16.0091V18.9785C16.0091 19.5308 15.5614 19.9785 15.0091 19.9785H10.7643C10.4395 19.9785 10.1349 19.8208 9.94755 19.5555L8.40238 17.3679C8.21498 17.1026 7.9104 16.9448 7.58558 16.9448H7.08105C6.52877 16.9448 6.08105 16.4971 6.08105 15.9448V9.86607Z" stroke="black" stroke-width="1.5" stroke-linecap="round" stroke-linejoin="round"/>
<path d="M12.2539 15.8374L13.6653 13.2449H10.1689L11.5803 10.6493" stroke="black" stroke-width="1.5" stroke-linecap="round" stroke-linejoin="round"/>
</svg>