<svg width="25" height="24" viewBox="0 0 25 24" fill="none" xmlns="http://www.w3.org/2000/svg">
<path fill-rule="evenodd" clip-rule="evenodd" d="M9.58644 6.46333C10.1247 5.63775 11.1546 5.15472 12.2499 5.15472C13.3439 5.15472 14.3768 5.6371 14.911 6.46707C15.1352 6.81538 15.0345 7.27947 14.6862 7.50364C14.3379 7.72781 13.8738 7.62717 13.6496 7.27885C13.446 6.96244 12.9433 6.65472 12.2499 6.65472C11.5579 6.65472 11.0521 6.96178 10.8429 7.2826C10.6167 7.62957 10.152 7.72745 9.80505 7.50121C9.45808 7.27498 9.3602 6.8103 9.58644 6.46333Z" fill="black"/>
<path fill-rule="evenodd" clip-rule="evenodd" d="M7.17403 4.42355C8.32271 3.08641 10.1854 2.25 12.2491 2.25C14.3105 2.25 16.1723 3.08421 17.3211 4.42041C17.5911 4.73449 17.5554 5.20802 17.2414 5.47807C16.9273 5.74811 16.4537 5.71241 16.1837 5.39833C15.3496 4.42818 13.9212 3.75 12.2491 3.75C10.5754 3.75 9.14611 4.42985 8.31184 5.40099C8.04192 5.71519 7.56841 5.75109 7.25421 5.48117C6.94001 5.21126 6.90412 4.73775 7.17403 4.42355Z" fill="black"/>
<path fill-rule="evenodd" clip-rule="evenodd" d="M14.1189 16.5895C14.1189 16.1753 14.4547 15.8395 14.8689 15.8395H16.1998C16.614 15.8395 16.9498 16.1753 16.9498 16.5895C16.9498 17.0038 16.614 17.3395 16.1998 17.3395H14.8689C14.4547 17.3395 14.1189 17.0038 14.1189 16.5895Z" fill="black"/>
<path fill-rule="evenodd" clip-rule="evenodd" d="M7.54272 16.5895C7.54272 16.1753 7.87851 15.8395 8.29272 15.8395H9.62362C10.0378 15.8395 10.3736 16.1753 10.3736 16.5895C10.3736 17.0038 10.0378 17.3395 9.62362 17.3395H8.29272C7.87851 17.3395 7.54272 17.0038 7.54272 16.5895Z" fill="black"/>
<path fill-rule="evenodd" clip-rule="evenodd" d="M4.84541 13.3827C4.90356 12.9726 5.28316 12.6873 5.69327 12.7454C10.0377 13.3614 14.4472 13.3614 18.7916 12.7454C19.2018 12.6873 19.5814 12.9726 19.6395 13.3827C19.6977 13.7928 19.4123 14.1724 19.0022 14.2306C14.5181 14.8664 9.96678 14.8664 5.4827 14.2306C5.07258 14.1724 4.78726 13.7928 4.84541 13.3827Z" fill="black"/>
<path fill-rule="evenodd" clip-rule="evenodd" d="M9.11167 9.27351C11.1934 8.94529 13.3137 8.94529 15.3954 9.27351L15.3983 9.27396C16.249 9.41147 16.9796 10.0226 17.2658 10.8351L18.0414 12.9895C18.0414 12.9895 18.0415 12.9896 18.0414 12.9895C18.0581 13.0357 18.0809 13.08 18.1095 13.1214L18.9698 14.276C19.4188 14.8886 19.661 15.6285 19.6616 16.388L19.6616 20.2595C19.6616 21.0827 18.9943 21.75 18.1711 21.75H16.6939C15.8707 21.75 15.2034 21.0827 15.2034 20.2595V19.9655H9.28872V20.2595C9.28872 21.0827 8.6214 21.75 7.79822 21.75H6.33107C5.50607 21.75 4.838 21.0798 4.84058 20.2548L4.85266 16.404C4.85266 16.4033 4.85265 16.4027 4.85265 16.402C4.85163 15.6526 5.08791 14.922 5.52768 14.315L6.41134 13.0984C6.43763 13.0631 6.45902 13.0246 6.47491 12.9837L7.2484 10.8353C7.53293 10.0258 8.25851 9.41552 9.1053 9.27454L9.11167 9.27351ZM9.34896 10.7546C9.04265 10.8067 8.76572 11.0404 8.66309 11.334L8.66081 11.3405L7.87976 13.5098C7.81483 13.6816 7.72635 13.8434 7.61706 13.9908L6.74233 15.1952C6.74225 15.1953 6.74242 15.1951 6.74233 15.1952C6.4884 15.5458 6.35182 15.9682 6.35265 16.4011L6.35266 16.4049L6.34061 20.25H7.78872V19.956C7.78872 19.1329 8.45604 18.4655 9.27922 18.4655H15.2129C16.0361 18.4655 16.7034 19.1329 16.7034 19.956V20.25H18.1616V16.3891C18.1613 15.9489 18.0211 15.5201 17.7615 15.1648L16.9002 14.0089L16.8896 13.9943C16.7819 13.8423 16.6947 13.6763 16.6309 13.4998L15.8513 11.3345C15.748 11.0396 15.4684 10.8053 15.1601 10.7549C13.2349 10.4516 11.2742 10.4515 9.34896 10.7546Z" fill="black"/>
</svg>