<svg width="25" height="24" viewBox="0 0 25 24" fill="none" xmlns="http://www.w3.org/2000/svg">
<path fill-rule="evenodd" clip-rule="evenodd" d="M13.5708 11.0488C13.5708 10.6346 13.9066 10.2988 14.3208 10.2988H15.8932C16.3074 10.2988 16.6432 10.6346 16.6432 11.0488C16.6432 11.463 16.3074 11.7988 15.8932 11.7988H14.3208C13.9066 11.7988 13.5708 11.463 13.5708 11.0488Z" fill="black"/>
<path fill-rule="evenodd" clip-rule="evenodd" d="M5.80127 11.0488C5.80127 10.6346 6.13706 10.2988 6.55127 10.2988H8.12366C8.53787 10.2988 8.87366 10.6346 8.87366 11.0488C8.87366 11.463 8.53787 11.7988 8.12366 11.7988H6.55127C6.13706 11.7988 5.80127 11.463 5.80127 11.0488Z" fill="black"/>
<path fill-rule="evenodd" clip-rule="evenodd" d="M2.61348 7.27945C2.67163 6.86934 3.05123 6.58402 3.46134 6.64217C8.60671 7.37173 13.8293 7.37173 18.9747 6.64217C19.3848 6.58402 19.7644 6.86934 19.8225 7.27945C19.8807 7.68956 19.5953 8.06916 19.1852 8.12731C13.9002 8.87668 8.53582 8.87668 3.25076 8.12731C2.84065 8.06916 2.55533 7.68956 2.61348 7.27945Z" fill="black"/>
<path fill-rule="evenodd" clip-rule="evenodd" d="M7.53959 2.53917C9.98503 2.15361 12.4757 2.15361 14.9211 2.53917L14.924 2.53962C15.88 2.69415 16.7024 3.38207 17.0239 4.29522L17.9405 6.84134C17.9404 6.84114 17.9406 6.84154 17.9405 6.84134C17.9645 6.9076 17.9974 6.9713 18.0384 7.03023L19.0556 8.39534C19.5689 9.09587 19.8459 9.94185 19.8466 10.8102C19.8469 11.2244 19.5113 11.5605 19.0971 11.5608C18.6829 11.5611 18.3469 11.2256 18.3466 10.8113C18.3461 10.2623 18.1713 9.72738 17.8473 9.28427L16.8293 7.91809L16.8187 7.90344C16.6985 7.73372 16.6012 7.54848 16.53 7.35156L16.5296 7.3505L15.6094 4.79474C15.4708 4.39912 15.0994 4.08794 14.6859 4.02061C12.3969 3.6599 10.0657 3.6598 7.77679 4.0203C7.3657 4.08986 6.99765 4.40035 6.85997 4.79415L6.85768 4.80069L5.93564 7.36164C5.8633 7.55303 5.76471 7.7333 5.64288 7.8975L4.60894 9.32105C4.60887 9.32115 4.60901 9.32095 4.60894 9.32105C4.292 9.75859 4.12162 10.2856 4.12267 10.8259L4.12268 10.8297L4.1084 15.3838C4.10818 15.4529 4.16415 15.509 4.23326 15.509H5.96663C6.03559 15.509 6.09149 15.4531 6.09149 15.3842V15.0256C6.09149 14.1283 6.81896 13.4008 7.71635 13.4008H12.0237C12.4379 13.4008 12.7737 13.7366 12.7737 14.1508C12.7737 14.565 12.4379 14.9008 12.0237 14.9008H7.71635C7.64739 14.9008 7.59149 14.9567 7.59149 15.0256V15.3842C7.59149 16.2816 6.86401 17.009 5.96663 17.009H4.23326C3.33389 17.009 2.60559 16.2785 2.60841 15.3791L2.62267 10.8288C2.62267 10.8282 2.62267 10.8275 2.62267 10.8268C2.62143 9.97004 2.89153 9.13478 3.39429 8.44092L4.4372 7.00502C4.47595 6.95305 4.50741 6.89618 4.53069 6.83583L5.44526 4.29555C5.76486 3.38569 6.5816 2.69864 7.53322 2.5402L7.53959 2.53917Z" fill="black"/>
<path d="M17.8102 21.7612C17.6902 21.7612 17.5602 21.7413 17.4402 21.7013C16.9502 21.5413 16.6202 21.0912 16.6202 20.5712V18.8013H14.9902C14.5402 18.8013 14.1402 18.5513 13.9402 18.1513C13.7402 17.7513 13.7702 17.2813 14.0402 16.9213L16.9502 12.9112C17.2502 12.4912 17.7802 12.3213 18.2702 12.4813C18.7602 12.6413 19.0902 13.0912 19.0902 13.6012V15.3712H20.7202C21.1702 15.3712 21.5702 15.6213 21.7702 16.0213C21.9702 16.4213 21.9402 16.8912 21.6702 17.2512L18.7602 21.2612C18.5302 21.5712 18.1802 21.7512 17.8002 21.7512L17.8102 21.7612ZM15.6202 17.3112H17.3802C17.7902 17.3112 18.1302 17.6512 18.1302 18.0612V19.6012L20.1002 16.8812H18.3402C17.9302 16.8812 17.5902 16.5412 17.5902 16.1312V14.5912L15.6202 17.3112Z" fill="black"/>
</svg>