<svg width="25" height="24" viewBox="0 0 25 24" fill="none" xmlns="http://www.w3.org/2000/svg">
<path d="M14.2803 6.87296C13.9114 6.29977 13.1436 5.90472 12.2499 5.90472C11.3562 5.90472 10.5884 6.29977 10.2146 6.87296" stroke="black" stroke-width="1.5" stroke-linecap="round" stroke-linejoin="round"/>
<path d="M16.7524 4.90937C15.761 3.75619 14.1159 3 12.2492 3C10.3805 3 8.73445 3.75813 7.74297 4.91227" stroke="black" stroke-width="1.5" stroke-linecap="round" stroke-linejoin="round"/>
<path opacity="0.4" d="M14.8689 16.5895H16.1998" stroke="black" stroke-width="1.5" stroke-linecap="round" stroke-linejoin="round"/>
<path opacity="0.4" d="M8.29279 16.5895H9.62368" stroke="black" stroke-width="1.5" stroke-linecap="round" stroke-linejoin="round"/>
<path opacity="0.4" d="M5.58802 13.488C10.0023 14.1139 14.4827 14.1139 18.897 13.488" stroke="black" stroke-width="1.5" stroke-linecap="round" stroke-linejoin="round"/>
<path d="M5.59058 20.2572C5.5893 20.6671 5.9212 21 6.33107 21H7.79822C8.20719 21 8.53872 20.6685 8.53872 20.2595V19.956C8.53872 19.5471 8.87025 19.2155 9.27922 19.2155H15.2129C15.6218 19.2155 15.9534 19.5471 15.9534 19.956V20.2595C15.9534 20.6685 16.2849 21 16.6939 21H18.1711C18.5801 21 18.9116 20.6685 18.9116 20.2595V16.3885C18.9112 15.7882 18.7197 15.2035 18.3649 14.7193L17.5016 13.5608C17.4325 13.4632 17.3768 13.3571 17.3362 13.2446L16.5591 11.0864C16.3647 10.5317 15.8589 10.1081 15.2786 10.0144C13.2742 9.69834 11.2328 9.69834 9.22847 10.0144C8.65076 10.1105 8.1484 10.5336 7.95512 11.0864L7.1781 13.2446C7.13731 13.3526 7.08163 13.4542 7.01266 13.5467L6.13501 14.7551C5.78788 15.2342 5.60151 15.811 5.60266 16.4026L5.59058 20.2572Z" stroke="black" stroke-width="1.5" stroke-linecap="round" stroke-linejoin="round"/>
</svg>