<svg width="25" height="25" viewBox="0 0 25 25" fill="none" xmlns="http://www.w3.org/2000/svg">
<path fill-rule="evenodd" clip-rule="evenodd" d="M18.922 15.994C19.2148 16.2869 19.2147 16.7618 18.9217 17.0546L18.9128 17.0636C18.6198 17.3564 18.145 17.3563 17.8521 17.0633C17.5593 16.7704 17.5594 16.2955 17.8524 16.0027L17.8613 15.9937C18.1543 15.7009 18.6291 15.701 18.922 15.994Z" fill="black"/>
<path fill-rule="evenodd" clip-rule="evenodd" d="M18.0544 15.0106C17.0227 15.0106 16.1863 15.847 16.1863 16.8787C16.1863 17.0009 16.2034 17.1272 16.236 17.276C16.2908 17.5258 16.2145 17.7864 16.0336 17.9672L13.9971 20.0026V20.8355L14.7042 20.8355L14.7328 20.8048C14.751 20.7854 14.7735 20.7616 14.7979 20.7371L14.8023 20.7328L16.1818 19.3758L16.7189 18.8398C16.918 18.6412 17.2114 18.5706 17.479 18.6569C17.6587 18.7149 17.8525 18.7467 18.0544 18.7467C19.0861 18.7467 19.9224 17.9104 19.9224 16.8787C19.9224 15.847 19.0861 15.0106 18.0544 15.0106ZM14.6289 20.9128C14.6289 20.9127 14.6294 20.9124 14.6302 20.9117L14.6289 20.9128ZM14.6863 16.8787C14.6863 15.0185 16.1942 13.5106 18.0544 13.5106C19.9145 13.5106 21.4224 15.0185 21.4224 16.8787C21.4224 18.7388 19.9145 20.2467 18.0544 20.2467C17.8597 20.2467 17.668 20.2301 17.4813 20.1981L17.2356 20.4432L15.8568 21.7996C15.8449 21.8116 15.8345 21.8227 15.817 21.8416C15.8072 21.8522 15.7951 21.8653 15.7792 21.8822C15.7426 21.9213 15.6879 21.9789 15.6236 22.0357C15.5111 22.1349 15.2563 22.3355 14.8882 22.3355L13.5652 22.3355C12.9753 22.3355 12.4971 21.8573 12.4971 21.2674V19.8236C12.4971 19.5404 12.6096 19.2687 12.8098 19.0684L14.7018 17.1775C14.692 17.0818 14.6863 16.9821 14.6863 16.8787Z" fill="black"/>
<path fill-rule="evenodd" clip-rule="evenodd" d="M14.584 11.8406C14.584 11.4264 14.9198 11.0906 15.334 11.0906H16.9472C17.3614 11.0906 17.6972 11.4264 17.6972 11.8406C17.6972 12.2549 17.3614 12.5906 16.9472 12.5906H15.334C14.9198 12.5906 14.584 12.2549 14.584 11.8406Z" fill="black"/>
<path fill-rule="evenodd" clip-rule="evenodd" d="M6.61279 11.8406C6.61279 11.4264 6.94858 11.0906 7.36279 11.0906H8.97602C9.39023 11.0906 9.72602 11.4264 9.72602 11.8406C9.72602 12.2549 9.39023 12.5906 8.97602 12.5906H7.36279C6.94858 12.5906 6.61279 12.2549 6.61279 11.8406Z" fill="black"/>
<path fill-rule="evenodd" clip-rule="evenodd" d="M3.34199 7.9761C3.40014 7.56599 3.77974 7.28067 4.18986 7.33882C9.47068 8.08759 14.8307 8.08759 20.1115 7.33882C20.5217 7.28067 20.9013 7.56599 20.9594 7.9761C21.0176 8.38622 20.7322 8.76582 20.3221 8.82397C14.9016 9.59254 9.39979 9.59254 3.97928 8.82397C3.56917 8.76582 3.28384 8.38622 3.34199 7.9761Z" fill="black"/>
<path fill-rule="evenodd" clip-rule="evenodd" d="M8.37974 3.1292C10.8867 2.73395 13.44 2.73395 15.9469 3.1292L15.9498 3.12966C16.9236 3.28707 17.7615 3.98804 18.089 4.91827L19.0294 7.53049C19.0294 7.53028 19.0295 7.53071 19.0294 7.53049C19.0547 7.60017 19.0893 7.66713 19.1323 7.72904L20.1761 9.12974C20.7003 9.84514 20.9832 10.7091 20.9838 11.5958C20.9841 12.0101 20.6486 12.3461 20.2344 12.3464C19.8202 12.3467 19.4841 12.0112 19.4838 11.597C19.4834 11.0295 19.3026 10.4766 18.9678 10.0186L17.9233 8.61694L17.9127 8.6023C17.7903 8.42958 17.6914 8.24109 17.6189 8.04071L17.6185 8.03966L16.6745 5.41767C16.5299 5.00505 16.143 4.68088 15.7117 4.61065C13.3613 4.24024 10.9674 4.24013 8.61692 4.61034C8.18811 4.68286 7.80465 5.00632 7.66104 5.41708L7.65875 5.42363L6.71287 8.05079C6.63928 8.2455 6.53898 8.42889 6.41502 8.59594L5.35416 10.0566C5.35409 10.0567 5.35423 10.0565 5.35416 10.0566C5.02657 10.5088 4.85047 11.0535 4.85155 11.612L4.85156 11.6158L4.83692 16.2881C4.83666 16.3698 4.90281 16.4362 4.9845 16.4362H6.76289C6.84439 16.4362 6.91047 16.3701 6.91047 16.2886V15.9207C6.91047 15.0108 7.64812 14.2732 8.55805 14.2732H12.9772C13.3914 14.2732 13.7272 14.6089 13.7272 15.0232C13.7272 15.4374 13.3914 15.7732 12.9772 15.7732H8.55805C8.47654 15.7732 8.41047 15.8392 8.41047 15.9207V16.2886C8.41047 17.1985 7.67282 17.9362 6.76289 17.9362H4.9845C4.07255 17.9362 3.33407 17.1954 3.33692 16.2834L3.35156 11.6149C3.35156 11.6142 3.35155 11.6136 3.35155 11.6129C3.35028 10.7379 3.6261 9.88499 4.13951 9.17643L5.20935 7.70345C5.25021 7.64865 5.28337 7.58867 5.3079 7.52502L6.24632 4.91849C6.57186 3.99166 7.40401 3.29163 8.37337 3.13024L8.37974 3.1292Z" fill="black"/>
</svg>