<svg width="25" height="24" viewBox="0 0 25 24" fill="none" xmlns="http://www.w3.org/2000/svg">
<path d="M14.4669 3H8.03216C5.09281 3 3.25 5.08119 3.25 8.02638V15.9736C3.25 18.9188 5.08405 21 8.03216 21H16.4659C19.415 21 21.25 18.9188 21.25 15.9736V10.0264" stroke="black" stroke-width="1.5" stroke-linecap="round" stroke-linejoin="round"/>
<circle cx="19.2974" cy="5" r="2" stroke="black" stroke-width="1.5" stroke-linecap="round" stroke-linejoin="round"/>
<path d="M14.4595 12.9081L15.0129 12.9081" stroke="black" stroke-width="1.5" stroke-linecap="round" stroke-linejoin="round"/>
<path d="M9.48877 12.9081L10.0422 12.9081" stroke="black" stroke-width="1.5" stroke-linecap="round" stroke-linejoin="round"/>
<path d="M7.21533 10.5648C10.5516 11.0379 13.9379 11.0379 17.2742 10.5648" stroke="black" stroke-width="1.5" stroke-linecap="round" stroke-linejoin="round"/>
<path d="M7.21729 15.6801C7.21632 15.9899 7.46717 16.2415 7.77695 16.2415H9.1253C9.43439 16.2415 9.68496 15.991 9.68496 15.6819V15.4525C9.68496 15.1434 9.93553 14.8929 10.2446 14.8929H14.2527C14.5618 14.8929 14.8124 15.1434 14.8124 15.4525V15.6819C14.8124 15.991 15.0629 16.2415 15.372 16.2415H16.7256C17.0347 16.2415 17.2852 15.991 17.2852 15.6819V12.7562C17.2849 12.3025 17.1402 11.8605 16.872 11.4946L16.2196 10.619C16.1673 10.5453 16.1253 10.4651 16.0945 10.3801L15.5073 8.74892C15.3603 8.32965 14.978 8.00954 14.5394 7.93865C13.0245 7.69981 11.4817 7.69981 9.96678 7.93865C9.53016 8.01135 9.15047 8.33109 9.00439 8.74892L8.41713 10.3801C8.3863 10.4617 8.34421 10.5385 8.29208 10.6084L7.62876 11.5217C7.3664 11.8838 7.22555 12.3197 7.22641 12.7668L7.21729 15.6801Z" stroke="black" stroke-width="1.5" stroke-linecap="round" stroke-linejoin="round"/>
</svg>