<svg width="25" height="24" viewBox="0 0 25 24" fill="none" xmlns="http://www.w3.org/2000/svg">
<path d="M3.37109 20.3339C4.3522 19.7417 5.94149 19.7417 6.92259 20.3339C7.90369 20.9261 9.49323 20.9261 10.4743 20.3339C11.4554 19.7417 13.0448 19.7417 14.0259 20.3339C15.007 20.9261 16.5962 20.9261 17.5773 20.3339C18.5584 19.7417 20.1477 19.7417 21.1288 20.3339" stroke="black" stroke-width="1.5" stroke-linecap="round" stroke-linejoin="round"/>
<path d="M3.37109 17.2264C4.3522 16.6342 5.94149 16.6342 6.92259 17.2264" stroke="black" stroke-width="1.5" stroke-linecap="round" stroke-linejoin="round"/>
<path d="M17.5771 17.2264C18.5582 16.6342 20.1475 16.6342 21.1286 17.2264" stroke="black" stroke-width="1.5" stroke-linecap="round" stroke-linejoin="round"/>
<path d="M9.8794 5.37081V10.1309C8.92507 10.8522 8.29834 11.9857 8.29834 13.2746C8.29834 15.457 10.0678 17.2264 12.2502 17.2264C14.4326 17.2264 16.2021 15.457 16.2021 13.2746C16.2021 11.9857 15.5761 10.8522 14.6218 10.1309V5.37081C14.6218 4.06121 13.5598 3 12.2502 3C10.9406 3 9.8794 4.06121 9.8794 5.37081Z" stroke="black" stroke-width="1.5" stroke-linecap="round" stroke-linejoin="round"/>
<path fill-rule="evenodd" clip-rule="evenodd" d="M13.4142 13.2745C13.4142 13.9174 12.8929 14.4388 12.25 14.4388C11.6063 14.4388 11.085 13.9174 11.085 13.2745C11.085 12.6316 11.6063 12.1095 12.25 12.1095C12.8929 12.1095 13.4142 12.6316 13.4142 13.2745Z" stroke="black" stroke-width="1.5" stroke-linecap="round" stroke-linejoin="round"/>
<path d="M12.25 6.95178V12.1102" stroke="black" stroke-width="1.5" stroke-linecap="round" stroke-linejoin="round"/>
</svg>