<svg width="25" height="25" viewBox="0 0 25 25" fill="none" xmlns="http://www.w3.org/2000/svg">
<path fill-rule="evenodd" clip-rule="evenodd" d="M9.07874 5.08915C8.4729 4.48331 7.49064 4.48331 6.8848 5.08915C6.27896 5.69499 6.27896 6.67725 6.8848 7.28309C7.49064 7.88893 8.4729 7.88893 9.07874 7.28309C9.14697 7.21486 9.20448 7.14684 9.2525 7.07869C9.39304 6.87918 9.62187 6.76053 9.86591 6.76062L12.6693 6.76168L13.28 6.15101L12.7595 5.63052L12.7116 5.63225C12.6847 5.63316 12.6515 5.63409 12.6166 5.63409L12.6113 5.63409L9.86036 5.61474C9.61828 5.61303 9.39191 5.49459 9.2525 5.29669C9.2001 5.22232 9.14153 5.15193 9.07874 5.08915ZM12.8654 5.62939C12.8654 5.6294 12.8648 5.62935 12.8637 5.62922L12.8654 5.62939ZM5.82414 4.02849C7.01577 2.83686 8.94778 2.83686 10.1394 4.02849C10.1686 4.05764 10.1969 4.08726 10.2245 4.11726L12.6188 4.13409C12.6363 4.13404 12.6521 4.13345 12.6787 4.13245C12.6934 4.1319 12.7113 4.13122 12.7347 4.13044C12.789 4.12864 12.8692 4.12663 12.9556 4.13203C13.1069 4.14149 13.4304 4.18016 13.6917 4.44139L14.6424 5.39212C15.0615 5.81124 15.0615 6.49078 14.6424 6.9099L13.6049 7.94741C13.4037 8.14864 13.1307 8.26172 12.8461 8.26175L10.2196 8.26076C10.1933 8.28895 10.1665 8.31661 10.1394 8.34375C8.94778 9.53538 7.01577 9.53538 5.82414 8.34375C4.63251 7.15212 4.63251 5.22011 5.82414 4.02849Z" fill="black"/>
<path fill-rule="evenodd" clip-rule="evenodd" d="M7.15234 6.19977C7.15244 5.78556 7.48831 5.44985 7.90252 5.44995L7.91347 5.44995C8.32768 5.45005 8.66339 5.78592 8.66329 6.20013C8.66319 6.61435 8.32732 6.95005 7.91311 6.94995L7.90216 6.94995C7.48795 6.94985 7.15224 6.61399 7.15234 6.19977Z" fill="black"/>
<path fill-rule="evenodd" clip-rule="evenodd" d="M15.8596 7.58984C15.8596 8.00406 16.1954 8.33984 16.6096 8.33984H18.6723C19.0865 8.33984 19.4223 8.00406 19.4223 7.58984C19.4223 7.17563 19.0865 6.83984 18.6723 6.83984H16.6096C16.1954 6.83984 15.8596 7.17563 15.8596 7.58984Z" fill="black"/>
<path fill-rule="evenodd" clip-rule="evenodd" d="M15.5142 4.66101C15.5142 5.07522 15.8499 5.41101 16.2642 5.41101H17.6411C18.0553 5.41101 18.3911 5.07522 18.3911 4.66101C18.3911 4.2468 18.0553 3.91101 17.6411 3.91101H16.2642C15.8499 3.91101 15.5142 4.2468 15.5142 4.66101Z" fill="black"/>
<path fill-rule="evenodd" clip-rule="evenodd" d="M14.1328 17.5896C14.1328 17.1754 14.471 16.8396 14.8883 16.8396H16.2289C16.6461 16.8396 16.9844 17.1754 16.9844 17.5896C16.9844 18.0038 16.6461 18.3396 16.2289 18.3396H14.8883C14.471 18.3396 14.1328 18.0038 14.1328 17.5896Z" fill="black"/>
<path fill-rule="evenodd" clip-rule="evenodd" d="M7.50854 17.5896C7.50854 17.1754 7.84678 16.8396 8.26402 16.8396H9.60462C10.0219 16.8396 10.3601 17.1754 10.3601 17.5896C10.3601 18.0038 10.0219 18.3396 9.60462 18.3396H8.26402C7.84678 18.3396 7.50854 18.0038 7.50854 17.5896Z" fill="black"/>
<path fill-rule="evenodd" clip-rule="evenodd" d="M4.79176 14.3827C4.85033 13.9726 5.2327 13.6873 5.6458 13.7454C10.0219 14.3614 14.4636 14.3614 18.8397 13.7454C19.2528 13.6873 19.6352 13.9726 19.6938 14.3827C19.7524 14.7928 19.465 15.1724 19.0519 15.2306C14.5351 15.8664 9.95049 15.8664 5.43369 15.2306C5.02059 15.1724 4.73318 14.7928 4.79176 14.3827Z" fill="black"/>
<path fill-rule="evenodd" clip-rule="evenodd" d="M9.08887 10.2735C11.1858 9.94529 13.3215 9.94529 15.4184 10.2735L15.4213 10.274C16.2783 10.4115 17.0142 11.0226 17.3025 11.8351L18.0838 13.9895C18.0838 13.9895 18.0838 13.9896 18.0838 13.9895C18.1006 14.0357 18.1236 14.08 18.1523 14.1214L19.019 15.276C19.4712 15.8886 19.7152 16.6285 19.7158 17.388L19.7158 21.2595C19.7158 22.0827 19.0436 22.75 18.2144 22.75H16.7264C15.8972 22.75 15.225 22.0827 15.225 21.2595V20.9655H9.26722V21.2595C9.26722 22.0827 8.59503 22.75 7.76585 22.75H6.28799C5.45697 22.75 4.78403 22.0798 4.78663 21.2548L4.79879 17.404C4.79879 17.4033 4.79879 17.4027 4.79879 17.402C4.79775 16.6526 5.03576 15.922 5.47874 15.315L6.36884 14.0984C6.39533 14.0631 6.41687 14.0246 6.43288 13.9837L7.21201 11.8353C7.49862 11.0258 8.22949 10.4155 9.08246 10.2745L9.08887 10.2735ZM9.3279 11.7546C9.01935 11.8067 8.7404 12.0404 8.63703 12.334L8.63472 12.3405L7.84797 14.5098C7.78257 14.6816 7.69345 14.8434 7.58336 14.9908L6.70225 16.1952C6.70217 16.1953 6.70234 16.1951 6.70225 16.1952C6.44647 16.5458 6.30889 16.9682 6.30973 17.4011L6.30974 17.4049L6.2976 21.25H7.75628V20.956C7.75628 20.1329 8.42846 19.4655 9.25765 19.4655H15.2346C16.0638 19.4655 16.736 20.1329 16.736 20.956V21.25H18.2048V17.3891C18.2045 16.9489 18.0633 16.5201 17.8018 16.1648L16.9342 15.0089L16.9235 14.9943C16.8151 14.8423 16.7273 14.6763 16.6629 14.4998L15.8777 12.3345C15.7736 12.0396 15.492 11.8053 15.1815 11.7549C13.2422 11.4516 11.2672 11.4515 9.3279 11.7546Z" fill="black"/>
</svg>