<svg width="25" height="25" viewBox="0 0 25 25" fill="none" xmlns="http://www.w3.org/2000/svg">
<path d="M19.7464 15.9266C20.8892 17.0693 20.8892 18.9221 19.7464 20.0649C18.6036 21.2077 16.7508 21.2077 15.6081 20.0649C14.4653 18.9221 14.4653 17.0693 15.608 15.9266C16.1568 15.3778 16.9011 15.0695 17.6772 15.0695C18.4533 15.0695 19.1977 15.3778 19.7464 15.9266V15.9266V15.9266" stroke="black" stroke-width="1.5" stroke-linecap="round" stroke-linejoin="round"/>
<path d="M19.7676 20.0861L21.2537 21.5721" stroke="black" stroke-width="1.5" stroke-linecap="round" stroke-linejoin="round"/>
<path d="M15.0453 12.0659H16.7055" stroke="black" stroke-width="1.5" stroke-linecap="round" stroke-linejoin="round"/>
<path d="M6.84029 12.0659H8.50053" stroke="black" stroke-width="1.5" stroke-linecap="round" stroke-linejoin="round"/>
<path d="M3.46582 8.19788C8.97341 8.9788 14.5636 8.9788 20.0712 8.19788" stroke="black" stroke-width="1.5" stroke-linecap="round" stroke-linejoin="round"/>
<path d="M20.0888 11.8145C20.0882 11.0656 19.8493 10.336 19.4066 9.73184L18.3296 8.28641C18.2433 8.16463 18.1739 8.03228 18.1231 7.89196L17.1537 5.19919C16.911 4.50705 16.28 3.9786 15.5559 3.86157C13.0551 3.46729 10.5081 3.46729 8.00729 3.86157C7.28649 3.98158 6.6597 4.50941 6.41854 5.19919L5.44907 7.89196C5.39817 8.02663 5.3287 8.15345 5.24264 8.26888L4.14761 9.77654C3.7145 10.3743 3.48197 11.0939 3.4834 11.8321L3.46834 16.6414C3.46674 17.1528 3.88085 17.5682 4.39224 17.5682H6.22279C6.73305 17.5682 7.14669 17.1546 7.14669 16.6443V16.2657C7.14669 15.7554 7.56034 15.3418 8.0706 15.3418H12.6194" stroke="black" stroke-width="1.5" stroke-linecap="round" stroke-linejoin="round"/>
</svg>