<svg width="25" height="24" viewBox="0 0 25 24" fill="none" xmlns="http://www.w3.org/2000/svg">
<path opacity="0.4" d="M12.25 21C7.27908 21 3.25 16.9709 3.25 12C3.25 7.02908 7.27908 3 12.25 3C17.2209 3 21.25 7.02908 21.25 12C21.25 12.9588 21.1001 13.8825 20.8225 14.7491" stroke="black" stroke-width="1.5" stroke-linecap="round" stroke-linejoin="round"/>
<path d="M21.2502 18.5996L18.8499 20.9999L17.4097 19.5597" stroke="black" stroke-width="1.5" stroke-linecap="round" stroke-linejoin="round"/>
<path d="M7.85406 10.7462C10.7669 11.1592 13.7235 11.1592 16.6363 10.7462" stroke="black" stroke-width="1.5" stroke-linecap="round" stroke-linejoin="round"/>
<path d="M7.85562 15.2123C7.85478 15.4828 8.07379 15.7025 8.34426 15.7025H9.52149C9.79136 15.7025 10.0101 15.4837 10.0101 15.2138V15.0136C10.0101 14.7437 10.2289 14.5249 10.4988 14.5249H13.9982C14.2681 14.5249 14.4868 14.7437 14.4868 15.0136V15.2138C14.4868 15.4837 14.7056 15.7025 14.9755 15.7025H16.1572C16.4271 15.7025 16.6459 15.4837 16.6459 15.2138V12.6594C16.6456 12.2633 16.5192 11.8775 16.2851 11.5579L15.7154 10.7935C15.6698 10.7291 15.6331 10.6591 15.6063 10.5849L15.0935 9.16071C14.9652 8.79465 14.6315 8.51517 14.2485 8.45327C12.9259 8.24474 11.5788 8.24474 10.2562 8.45327C9.87497 8.51674 9.54348 8.7959 9.41593 9.16071L8.9032 10.5849C8.87628 10.6561 8.83953 10.7232 8.79402 10.7842L8.21488 11.5816C7.98582 11.8977 7.86284 12.2783 7.86359 12.6687L7.85562 15.2123Z" stroke="black" stroke-width="1.5" stroke-linecap="round" stroke-linejoin="round"/>
</svg>