<svg width="25" height="24" viewBox="0 0 25 24" fill="none" xmlns="http://www.w3.org/2000/svg">
<path fill-rule="evenodd" clip-rule="evenodd" d="M18.4227 20.4642C18.4227 20.4642 21.2269 19.6473 21.2269 17.3952C21.2269 15.1431 21.3288 14.9686 21.1036 14.7503C20.8781 14.5316 18.7906 13.833 18.4227 13.833C18.0551 13.833 15.9673 14.5334 15.7418 14.7503C15.5166 14.9668 15.6189 15.1428 15.6189 17.3952C15.6189 19.6477 18.4227 20.4642 18.4227 20.4642Z" stroke="black" stroke-width="1.5" stroke-linecap="round" stroke-linejoin="round"/>
<path d="M14.5044 11.8052H16.1183" stroke="black" stroke-width="1.5" stroke-linecap="round" stroke-linejoin="round"/>
<path d="M6.52979 11.8052H8.14373" stroke="black" stroke-width="1.5" stroke-linecap="round" stroke-linejoin="round"/>
<path d="M3.25 8.04395C8.60305 8.80295 14.0364 8.80295 19.3895 8.04395" stroke="black" stroke-width="1.5" stroke-linecap="round" stroke-linejoin="round"/>
<path d="M19.4065 11.5602C19.406 10.8323 19.1738 10.1232 18.7435 9.536L17.6967 8.13112C17.6128 8.01277 17.5454 7.88413 17.496 7.74774L16.5538 5.13053C16.318 4.45781 15.7046 3.94419 15.0009 3.83045C12.5702 3.44722 10.0947 3.44722 7.66404 3.83045C6.96346 3.94709 6.35426 4.46011 6.11986 5.13053L5.1776 7.74774C5.12813 7.87864 5.06061 8.0019 4.97697 8.11408L3.91266 9.57945C3.4917 10.1604 3.2657 10.8599 3.26709 11.5773L3.25245 16.2517C3.25089 16.7487 3.65338 17.1525 4.15042 17.1525H5.92961C6.42555 17.1525 6.82759 16.7504 6.82759 16.2545V15.8865C6.82759 15.3906 7.22963 14.9885 7.72557 14.9885H12.1467" stroke="black" stroke-width="1.5" stroke-linecap="round" stroke-linejoin="round"/>
</svg>