<svg width="25" height="24" viewBox="0 0 25 24" fill="none" xmlns="http://www.w3.org/2000/svg">
<path fill-rule="evenodd" clip-rule="evenodd" d="M16.7685 17.2023C16.3807 17.2023 16.0659 17.5171 16.0659 17.9049V19.5474C16.0659 19.9352 16.3807 20.25 16.7685 20.25H19.6954C20.0832 20.25 20.398 19.9352 20.398 19.5474V17.9049C20.398 17.5171 20.0832 17.2023 19.6954 17.2023H16.7685ZM14.5659 17.9049C14.5659 16.6886 15.5524 15.7023 16.7685 15.7023H19.6954C20.9116 15.7023 21.898 16.6887 21.898 17.9049V19.5474C21.898 20.7636 20.9116 21.75 19.6954 21.75H16.7685C15.5524 21.75 14.5659 20.7636 14.5659 19.5474V17.9049Z" fill="black"/>
<path fill-rule="evenodd" clip-rule="evenodd" d="M18.2014 12.9231C19.5793 12.907 20.7111 14.0096 20.7286 15.3879L20.7287 15.3974L20.7287 16.4787C20.7287 16.8929 20.3929 17.2287 19.9787 17.2287C19.5645 17.2287 19.2287 16.8929 19.2287 16.4787V15.4028C19.2195 14.8557 18.7692 14.4169 18.2194 14.423C17.6821 14.4302 17.2478 14.8611 17.2358 15.3981V16.4787C17.2358 16.8929 16.9001 17.2287 16.4858 17.2287C16.0716 17.2287 15.7358 16.8929 15.7358 16.4787V15.3782C15.7587 14.028 16.8509 12.9406 18.2014 12.9231Z" fill="black"/>
<path fill-rule="evenodd" clip-rule="evenodd" d="M13.5708 11.0488C13.5708 10.6346 13.9066 10.2988 14.3208 10.2988H15.8932C16.3074 10.2988 16.6432 10.6346 16.6432 11.0488C16.6432 11.463 16.3074 11.7988 15.8932 11.7988H14.3208C13.9066 11.7988 13.5708 11.463 13.5708 11.0488Z" fill="black"/>
<path fill-rule="evenodd" clip-rule="evenodd" d="M5.80127 11.0488C5.80127 10.6346 6.13706 10.2988 6.55127 10.2988H8.12366C8.53787 10.2988 8.87366 10.6346 8.87366 11.0488C8.87366 11.463 8.53787 11.7988 8.12366 11.7988H6.55127C6.13706 11.7988 5.80127 11.463 5.80127 11.0488Z" fill="black"/>
<path fill-rule="evenodd" clip-rule="evenodd" d="M2.61348 7.27945C2.67163 6.86934 3.05123 6.58402 3.46134 6.64217C8.60671 7.37173 13.8293 7.37173 18.9747 6.64217C19.3848 6.58402 19.7644 6.86934 19.8225 7.27945C19.8807 7.68956 19.5953 8.06916 19.1852 8.12731C13.9002 8.87668 8.53582 8.87668 3.25076 8.12731C2.84065 8.06916 2.55533 7.68956 2.61348 7.27945Z" fill="black"/>
<path fill-rule="evenodd" clip-rule="evenodd" d="M7.53959 2.53917C9.98503 2.15361 12.4757 2.15361 14.9211 2.53917L14.924 2.53962C15.88 2.69415 16.7024 3.38207 17.0239 4.29522L17.9405 6.84134C17.9404 6.84114 17.9406 6.84154 17.9405 6.84134C17.9645 6.9076 17.9974 6.9713 18.0384 7.03023L19.0556 8.39534C19.5689 9.09587 19.8459 9.94185 19.8466 10.8102C19.8469 11.2244 19.5113 11.5605 19.0971 11.5608C18.6829 11.5611 18.3469 11.2256 18.3466 10.8113C18.3461 10.2623 18.1713 9.72738 17.8473 9.28427L16.8293 7.91809L16.8187 7.90344C16.6985 7.73372 16.6012 7.54848 16.53 7.35156L16.5296 7.3505L15.6094 4.79474C15.4708 4.39912 15.0994 4.08794 14.6859 4.02061C12.3969 3.6599 10.0657 3.6598 7.77679 4.0203C7.3657 4.08986 6.99765 4.40035 6.85997 4.79415L6.85768 4.80069L5.93564 7.36164C5.8633 7.55303 5.76471 7.7333 5.64288 7.8975L4.60894 9.32105C4.60887 9.32115 4.60901 9.32095 4.60894 9.32105C4.292 9.75859 4.12162 10.2856 4.12267 10.8259L4.12268 10.8297L4.1084 15.3838C4.10818 15.4529 4.16415 15.509 4.23326 15.509H5.96663C6.03559 15.509 6.09149 15.4531 6.09149 15.3842V15.0256C6.09149 14.1283 6.81896 13.4008 7.71635 13.4008H12.0237C12.4379 13.4008 12.7737 13.7366 12.7737 14.1508C12.7737 14.565 12.4379 14.9008 12.0237 14.9008H7.71635C7.64739 14.9008 7.59149 14.9567 7.59149 15.0256V15.3842C7.59149 16.2816 6.86401 17.009 5.96663 17.009H4.23326C3.33389 17.009 2.60559 16.2785 2.60841 15.3791L2.62267 10.8288C2.62267 10.8282 2.62267 10.8275 2.62267 10.8268C2.62143 9.97004 2.89153 9.13478 3.39429 8.44092L4.4372 7.00502C4.47595 6.95305 4.50741 6.89618 4.53069 6.83583L5.44526 4.29555C5.76486 3.38569 6.5816 2.69864 7.53322 2.5402L7.53959 2.53917Z" fill="black"/>
</svg>