<svg width="25" height="24" viewBox="0 0 25 24" fill="none" xmlns="http://www.w3.org/2000/svg">
<path fill-rule="evenodd" clip-rule="evenodd" d="M3.25 9.45972C3.66421 9.45972 4 9.7955 4 10.2097V16.2772C4 16.6914 3.66421 17.0272 3.25 17.0272C2.83579 17.0272 2.5 16.6914 2.5 16.2772V10.2097C2.5 9.7955 2.83579 9.45972 3.25 9.45972Z" fill="black"/>
<path fill-rule="evenodd" clip-rule="evenodd" d="M12.1489 3.27148C12.5631 3.27148 12.8989 3.60727 12.8989 4.02148V7.05523C12.8989 7.46944 12.5631 7.80523 12.1489 7.80523C11.7347 7.80523 11.3989 7.46944 11.3989 7.05523V4.02148C11.3989 3.60727 11.7347 3.27148 12.1489 3.27148Z" fill="black"/>
<path fill-rule="evenodd" clip-rule="evenodd" d="M9.37646 4.02148C9.37646 3.60727 9.71225 3.27148 10.1265 3.27148H14.1715C14.5857 3.27148 14.9215 3.60727 14.9215 4.02148C14.9215 4.4357 14.5857 4.77148 14.1715 4.77148H10.1265C9.71225 4.77148 9.37646 4.4357 9.37646 4.02148Z" fill="black"/>
<path fill-rule="evenodd" clip-rule="evenodd" d="M2.5 13.2434C2.5 12.8292 2.83579 12.4934 3.25 12.4934H6.08149C6.49571 12.4934 6.83149 12.8292 6.83149 13.2434C6.83149 13.6576 6.49571 13.9934 6.08149 13.9934H3.25C2.83579 13.9934 2.5 13.6576 2.5 13.2434Z" fill="black"/>
<path fill-rule="evenodd" clip-rule="evenodd" d="M10.5083 7.80518C10.4468 7.80518 10.3874 7.82787 10.3415 7.86892L8.88864 9.16983C8.5677 9.45719 8.15206 9.61607 7.72128 9.61607H7.08105C6.94298 9.61607 6.83105 9.728 6.83105 9.86607V15.9448C6.83105 16.0829 6.94298 16.1948 7.08105 16.1948H7.58558C8.15401 16.1948 8.68703 16.4709 9.01497 16.9352L10.5601 19.1228C10.607 19.1891 10.6831 19.2285 10.7643 19.2285H15.0091C15.1472 19.2285 15.2591 19.1166 15.2591 18.9785V16.9448C15.2591 16.5306 15.5949 16.1948 16.0091 16.1948H18.216C18.6302 16.1948 18.966 16.5306 18.966 16.9448V17.9673C18.966 18.1054 19.0779 18.2173 19.216 18.2173H20.2498C20.3882 18.2173 20.4998 18.1054 20.4998 17.9677V9.8657C20.4998 9.72799 20.3882 9.61607 20.2498 9.61607H19.216C19.0779 9.61607 18.966 9.728 18.966 9.86607V10.8886C18.966 11.3028 18.6302 11.6386 18.216 11.6386H16.7943C16.5161 11.6386 16.2608 11.4846 16.131 11.2385L14.3899 7.93852C14.3466 7.8565 14.2615 7.80518 14.1688 7.80518H10.5083ZM9.34096 6.75142C9.66189 6.46406 10.0775 6.30518 10.5083 6.30518H14.1688C14.8179 6.30518 15.4137 6.66446 15.7166 7.23856L17.2466 10.1386H17.466V9.86607C17.466 8.89957 18.2495 8.11607 19.216 8.11607H20.2498C21.2159 8.11607 21.9998 8.89885 21.9998 9.8657V17.9677C21.9998 18.9345 21.2159 19.7173 20.2498 19.7173H19.216C18.2495 19.7173 17.466 18.9338 17.466 17.9673V17.6948H16.7591V18.9785C16.7591 19.945 15.9756 20.7285 15.0091 20.7285H10.7643C10.1959 20.7285 9.6629 20.4525 9.33496 19.9882L7.78978 17.8006C7.74293 17.7342 7.66679 17.6948 7.58558 17.6948H7.08105C6.11456 17.6948 5.33105 16.9113 5.33105 15.9448V9.86607C5.33105 8.89958 6.11456 8.11607 7.08105 8.11607H7.72128C7.78282 8.11607 7.8422 8.09338 7.88805 8.05233L9.34096 6.75142Z" fill="black"/>
<path fill-rule="evenodd" clip-rule="evenodd" d="M11.9389 9.99042C12.3028 10.1883 12.4373 10.6437 12.2395 11.0076L11.4307 12.495H13.6655C13.9301 12.495 14.1752 12.6344 14.3103 12.8618C14.4455 13.0893 14.4508 13.3712 14.3243 13.6036L12.9129 16.1961C12.7148 16.5599 12.2593 16.6942 11.8956 16.4962C11.5318 16.2981 11.3974 15.8426 11.5954 15.4788L12.4033 13.995H10.1692C9.90466 13.995 9.6597 13.8556 9.52452 13.6282C9.38934 13.4008 9.38393 13.1191 9.5103 12.8867L10.9217 10.291C11.1196 9.92714 11.575 9.79255 11.9389 9.99042Z" fill="black"/>
</svg>