<svg width="25" height="25" viewBox="0 0 25 25" fill="none" xmlns="http://www.w3.org/2000/svg">
<path d="M14.9951 22.6402C14.6251 22.6402 14.2351 22.6002 13.8251 22.5202C12.3951 22.2302 11.4951 21.1401 11.5051 19.7401C11.5151 18.9701 11.8251 18.3801 12.0751 17.9101C12.3851 17.3201 12.4851 17.0901 12.2751 16.7201C12.1551 16.9001 12.0251 17.1401 11.9151 17.3201C11.7451 17.6201 11.5651 17.9401 11.3651 18.2201C10.0651 20.3301 7.81512 21.1601 5.63512 20.3001C3.76512 19.5601 2.01513 17.4201 2.61513 14.4401C2.90513 13.0301 3.97512 12.1301 5.35512 12.1301H5.39513C6.16513 12.1401 6.75512 12.4502 7.22512 12.7002C7.81512 13.0102 8.04512 13.1102 8.41512 12.9002C8.23512 12.7802 7.99511 12.6501 7.81511 12.5401C7.51511 12.3701 7.19512 12.1901 6.91512 11.9901C4.80512 10.7001 3.9751 8.44015 4.8351 6.26015C5.5751 4.39015 7.72512 2.64013 10.6951 3.24013C12.1151 3.53013 13.0251 4.62016 13.0051 6.02016C12.9951 6.79016 12.6851 7.38012 12.4351 7.85012C12.1251 8.44012 12.0251 8.67012 12.2351 9.04012C12.3551 8.86012 12.4851 8.62014 12.5951 8.44014C12.7651 8.14014 12.9451 7.83012 13.1351 7.54012C14.4351 5.43012 16.6851 4.60016 18.8651 5.46016C20.7351 6.20016 22.4851 8.34015 21.8851 11.3201C21.5951 12.7301 20.5251 13.6402 19.1451 13.6402H19.1051C18.3351 13.6302 17.7451 13.3201 17.2751 13.0701C16.6851 12.7601 16.4551 12.6601 16.0851 12.8701C16.2651 12.9901 16.5051 13.1201 16.6851 13.2301C16.9851 13.4001 17.3051 13.5802 17.5851 13.7802C19.6951 15.0702 20.5251 17.3301 19.6651 19.5101C19.0251 21.1301 17.3351 22.6502 14.9751 22.6502L14.9951 22.6402ZM13.0151 19.7601C13.0051 20.6801 13.7051 20.9601 14.1251 21.0501C16.2651 21.4801 17.7551 20.3002 18.2951 18.9502C18.7551 17.7802 18.5951 16.1402 16.7951 15.0302C16.5151 14.8402 16.2351 14.6802 15.9651 14.5302C15.1851 14.0902 14.4451 13.6701 14.4051 12.9201C14.3851 12.6201 14.4851 12.1902 15.0351 11.7802C16.3051 10.8502 17.2751 11.3701 17.9851 11.7401C18.3851 11.9501 18.7251 12.1302 19.1351 12.1402H19.1551C20.0551 12.1402 20.3351 11.4502 20.4151 11.0302C20.8451 8.89017 19.6751 7.40013 18.3151 6.86013C17.1451 6.40013 15.5051 6.55013 14.3951 8.36013C14.2051 8.64013 14.0451 8.92014 13.8951 9.19014C13.4551 9.97014 13.0351 10.7101 12.2851 10.7501C11.9851 10.7601 11.5451 10.6701 11.1451 10.1201C10.2151 8.85014 10.7351 7.88011 11.1051 7.16011C11.3151 6.76011 11.4951 6.42015 11.5051 6.01015C11.5151 5.09015 10.8151 4.81011 10.3951 4.72011C8.25513 4.29011 6.76512 5.46015 6.22512 6.82015C5.76512 7.99015 5.92512 9.63013 7.72512 10.7401C8.01512 10.9301 8.2851 11.0901 8.5551 11.2401C9.3351 11.6801 10.0651 12.1001 10.1151 12.8501C10.1351 13.1501 10.0351 13.5801 9.48513 13.9901C8.21513 14.9201 7.23511 14.4002 6.5251 14.0302C6.1251 13.8202 5.78511 13.6401 5.37511 13.6301C4.48511 13.6101 4.1751 14.3201 4.0851 14.7401C3.6551 16.8801 4.82511 18.3701 6.18511 18.9101C7.35511 19.3701 8.99512 19.2201 10.1051 17.4101C10.2951 17.1301 10.4551 16.8502 10.6051 16.5802C11.0451 15.8002 11.4651 15.0602 12.2151 15.0202C12.4951 15.0002 12.9451 15.1002 13.3551 15.6502C14.2851 16.9202 13.7651 17.9001 13.3951 18.6101C13.1851 19.0101 13.0051 19.3501 12.9951 19.7501L13.0151 19.7601Z" fill="black"/>
<path d="M12.2648 16.511C10.2648 16.511 8.63477 14.881 8.63477 12.881C8.63477 10.881 10.2648 9.25098 12.2648 9.25098C14.2648 9.25098 15.8948 10.881 15.8948 12.881C15.8948 14.881 14.2648 16.511 12.2648 16.511ZM12.2648 10.761C11.0948 10.761 10.1348 11.711 10.1348 12.891C10.1348 14.071 11.0848 15.021 12.2648 15.021C13.4448 15.021 14.3948 14.071 14.3948 12.891C14.3948 11.711 13.4448 10.761 12.2648 10.761Z" fill="black"/>
</svg>