<svg width="25" height="24" viewBox="0 0 25 24" fill="none" xmlns="http://www.w3.org/2000/svg">
<path fill-rule="evenodd" clip-rule="evenodd" d="M3.25 9.45972C3.66421 9.45972 4 9.7955 4 10.2097V16.2772C4 16.6914 3.66421 17.0272 3.25 17.0272C2.83579 17.0272 2.5 16.6914 2.5 16.2772V10.2097C2.5 9.7955 2.83579 9.45972 3.25 9.45972Z" fill="black"/>
<path fill-rule="evenodd" clip-rule="evenodd" d="M12.1489 3.27148C12.5631 3.27148 12.8989 3.60727 12.8989 4.02148V7.05523C12.8989 7.46944 12.5631 7.80523 12.1489 7.80523C11.7347 7.80523 11.3989 7.46944 11.3989 7.05523V4.02148C11.3989 3.60727 11.7347 3.27148 12.1489 3.27148Z" fill="black"/>
<path fill-rule="evenodd" clip-rule="evenodd" d="M9.37646 4.02148C9.37646 3.60727 9.71225 3.27148 10.1265 3.27148H14.1715C14.5857 3.27148 14.9215 3.60727 14.9215 4.02148C14.9215 4.4357 14.5857 4.77148 14.1715 4.77148H10.1265C9.71225 4.77148 9.37646 4.4357 9.37646 4.02148Z" fill="black"/>
<path fill-rule="evenodd" clip-rule="evenodd" d="M2.5 13.2434C2.5 12.8292 2.83579 12.4934 3.25 12.4934H6.08149C6.49571 12.4934 6.83149 12.8292 6.83149 13.2434C6.83149 13.6576 6.49571 13.9934 6.08149 13.9934H3.25C2.83579 13.9934 2.5 13.6576 2.5 13.2434Z" fill="black"/>
<path fill-rule="evenodd" clip-rule="evenodd" d="M10.6685 7.80518C10.6069 7.80518 10.5476 7.82787 10.5017 7.86892L9.04879 9.16983C8.72786 9.45719 8.31222 9.61607 7.88144 9.61607H7.24121C7.10314 9.61607 6.99121 9.728 6.99121 9.86607V15.9448C6.99121 16.0829 7.10314 16.1948 7.24121 16.1948H7.74574C8.31417 16.1948 8.84719 16.4709 9.17513 16.9352L10.7203 19.1228C10.7672 19.1891 10.8433 19.2285 10.9245 19.2285H15.1692C15.3073 19.2285 15.4192 19.1166 15.4192 18.9785V16.9448C15.4192 16.5306 15.755 16.1948 16.1692 16.1948H18.3762C18.7904 16.1948 19.1262 16.5306 19.1262 16.9448V17.9673C19.1262 18.1054 19.2381 18.2173 19.3762 18.2173H20.4099C20.5483 18.2173 20.6599 18.1054 20.6599 17.9677V9.8657C20.6599 9.72799 20.5483 9.61607 20.4099 9.61607H19.3762C19.2381 9.61607 19.1262 9.728 19.1262 9.86607V10.8886C19.1262 11.3028 18.7904 11.6386 18.3762 11.6386H16.9545C16.6763 11.6386 16.421 11.4846 16.2911 11.2385L14.55 7.93852C14.5068 7.8565 14.4217 7.80518 14.3289 7.80518H10.6685ZM9.50111 6.75142C9.82204 6.46406 10.2377 6.30518 10.6685 6.30518H14.3289C14.978 6.30518 15.5738 6.66446 15.8767 7.23856L17.4068 10.1386H17.6262V9.86607C17.6262 8.89957 18.4097 8.11607 19.3762 8.11607H20.4099C21.3761 8.11607 22.1599 8.89885 22.1599 9.8657V17.9677C22.1599 18.9345 21.3761 19.7173 20.4099 19.7173H19.3762C18.4097 19.7173 17.6262 18.9338 17.6262 17.9673V17.6948H16.9192V18.9785C16.9192 19.945 16.1357 20.7285 15.1692 20.7285H10.9245C10.3561 20.7285 9.82306 20.4525 9.49511 19.9882L7.94994 17.8006C7.90309 17.7342 7.82694 17.6948 7.74574 17.6948H7.24121C6.27471 17.6948 5.49121 16.9113 5.49121 15.9448V9.86607C5.49121 8.89958 6.27471 8.11607 7.24121 8.11607H7.88144C7.94298 8.11607 8.00235 8.09338 8.0482 8.05233L9.50111 6.75142Z" fill="black"/>
</svg>