<svg width="25" height="24" viewBox="0 0 25 24" fill="none" xmlns="http://www.w3.org/2000/svg">
<path fill-rule="evenodd" clip-rule="evenodd" d="M17.3576 14.1696C15.6785 14.1696 14.3174 15.5307 14.3174 17.2098C14.3174 18.8888 15.6785 20.25 17.3576 20.25C19.0367 20.25 20.3978 18.8888 20.3978 17.2098C20.3978 15.5307 19.0367 14.1696 17.3576 14.1696ZM17.3576 12.6696C14.8501 12.6696 12.8174 14.7023 12.8174 17.2098C12.8174 19.7173 14.8501 21.75 17.3576 21.75C19.8651 21.75 21.8978 19.7173 21.8978 17.2098C21.8978 14.7023 19.8651 12.6696 17.3576 12.6696Z" fill="black"/>
<path fill-rule="evenodd" clip-rule="evenodd" d="M17.3574 15.1816C17.7716 15.1816 18.1074 15.5174 18.1074 15.9316V16.459H18.6348C19.049 16.459 19.3848 16.7948 19.3848 17.209C19.3848 17.6232 19.049 17.959 18.6348 17.959H18.1074V18.4863C18.1074 18.9005 17.7716 19.2363 17.3574 19.2363C16.9432 19.2363 16.6074 18.9005 16.6074 18.4863V17.959H16.0801C15.6659 17.959 15.3301 17.6232 15.3301 17.209C15.3301 16.7948 15.6659 16.459 16.0801 16.459H16.6074V15.9316C16.6074 15.5174 16.9432 15.1816 17.3574 15.1816Z" fill="black"/>
<path fill-rule="evenodd" clip-rule="evenodd" d="M13.5708 11.048C13.5708 10.6338 13.9066 10.298 14.3208 10.298H15.8932C16.3074 10.298 16.6432 10.6338 16.6432 11.048C16.6432 11.4622 16.3074 11.798 15.8932 11.798H14.3208C13.9066 11.798 13.5708 11.4622 13.5708 11.048Z" fill="black"/>
<path fill-rule="evenodd" clip-rule="evenodd" d="M5.80127 11.048C5.80127 10.6338 6.13706 10.298 6.55127 10.298H8.12366C8.53787 10.298 8.87366 10.6338 8.87366 11.048C8.87366 11.4622 8.53787 11.798 8.12366 11.798H6.55127C6.13706 11.798 5.80127 11.4622 5.80127 11.048Z" fill="black"/>
<path fill-rule="evenodd" clip-rule="evenodd" d="M2.61348 7.27927C2.67163 6.86915 3.05123 6.58383 3.46134 6.64198C8.60671 7.37154 13.8293 7.37154 18.9747 6.64198C19.3848 6.58383 19.7644 6.86915 19.8225 7.27927C19.8807 7.68938 19.5953 8.06898 19.1852 8.12713C13.9002 8.87649 8.53582 8.87649 3.25076 8.12713C2.84065 8.06898 2.55533 7.68938 2.61348 7.27927Z" fill="black"/>
<path fill-rule="evenodd" clip-rule="evenodd" d="M7.53959 2.53917C9.98503 2.15361 12.4757 2.15361 14.9211 2.53917L14.924 2.53962C15.88 2.69415 16.7024 3.38207 17.0239 4.29522L17.9405 6.84134C17.9404 6.84114 17.9406 6.84154 17.9405 6.84134C17.9645 6.9076 17.9974 6.9713 18.0384 7.03023L19.0556 8.39534C19.5689 9.09587 19.8459 9.94185 19.8466 10.8102C19.8469 11.2244 19.5113 11.5605 19.0971 11.5608C18.6829 11.5611 18.3469 11.2256 18.3466 10.8113C18.3461 10.2623 18.1713 9.72738 17.8473 9.28427L16.8293 7.91809L16.8187 7.90344C16.6985 7.73372 16.6012 7.54848 16.53 7.35156L16.5296 7.3505L15.6094 4.79474C15.4708 4.39912 15.0994 4.08794 14.6859 4.02061C12.3969 3.6599 10.0657 3.6598 7.77679 4.0203C7.3657 4.08986 6.99765 4.40035 6.85997 4.79415L6.85768 4.80069L5.93564 7.36164C5.8633 7.55303 5.76471 7.7333 5.64288 7.8975L4.60894 9.32105C4.60887 9.32115 4.60901 9.32095 4.60894 9.32105C4.292 9.75859 4.12162 10.2856 4.12267 10.8259L4.12268 10.8297L4.1084 15.3838C4.10818 15.4529 4.16415 15.509 4.23326 15.509H5.96663C6.03559 15.509 6.09149 15.4531 6.09149 15.3842V15.0256C6.09149 14.1283 6.81896 13.4008 7.71635 13.4008H12.0237C12.4379 13.4008 12.7737 13.7366 12.7737 14.1508C12.7737 14.565 12.4379 14.9008 12.0237 14.9008H7.71635C7.64739 14.9008 7.59149 14.9567 7.59149 15.0256V15.3842C7.59149 16.2816 6.86401 17.009 5.96663 17.009H4.23326C3.33389 17.009 2.60559 16.2785 2.60841 15.3791L2.62267 10.8288C2.62267 10.8282 2.62267 10.8275 2.62267 10.8268C2.62143 9.97004 2.89153 9.13478 3.39429 8.44092L4.4372 7.00502C4.47595 6.95305 4.50741 6.89618 4.53069 6.83583L5.44526 4.29555C5.76486 3.38569 6.5816 2.69864 7.53322 2.5402L7.53959 2.53917Z" fill="black"/>
</svg>