<svg width="25" height="25" viewBox="0 0 25 25" fill="none" xmlns="http://www.w3.org/2000/svg">
<path fill-rule="evenodd" clip-rule="evenodd" d="M17.8038 13.7858C18.1339 13.7858 18.4252 14.0016 18.5213 14.3174C18.9511 15.7296 20.0563 16.8348 21.4683 17.2646C21.7841 17.3607 22 17.652 22 17.9821C22 18.3122 21.7841 18.6035 21.4683 18.6996C20.0563 19.1294 18.9511 20.2346 18.5213 21.6468C18.4252 21.9626 18.1339 22.1784 17.8038 22.1784C17.4737 22.1784 17.1824 21.9626 17.0863 21.6468C16.6565 20.2346 15.5514 19.1294 14.1393 18.6996C13.8235 18.6035 13.6077 18.3122 13.6077 17.9821C13.6077 17.652 13.8235 17.3607 14.1393 17.2646C15.5514 16.8348 16.6565 15.7296 17.0863 14.3174C17.1824 14.0016 17.4737 13.7858 17.8038 13.7858ZM16.1062 17.9821C16.7817 18.4262 17.3597 19.0042 17.8038 19.6797C18.2479 19.0042 18.8259 18.4262 19.5014 17.9821C18.8259 17.538 18.2479 16.96 17.8038 16.2845C17.3597 16.96 16.7817 17.538 16.1062 17.9821Z" fill="black"/>
<path fill-rule="evenodd" clip-rule="evenodd" d="M13.8984 12.0742C13.8984 11.66 14.2342 11.3242 14.6484 11.3242H16.2824C16.6967 11.3242 17.0324 11.66 17.0324 12.0742C17.0324 12.4884 16.6967 12.8242 16.2824 12.8242H14.6484C14.2342 12.8242 13.8984 12.4884 13.8984 12.0742Z" fill="black"/>
<path fill-rule="evenodd" clip-rule="evenodd" d="M5.82422 12.0742C5.82422 11.66 6.16001 11.3242 6.57422 11.3242H8.20822C8.62244 11.3242 8.95822 11.66 8.95822 12.0742C8.95822 12.4884 8.62244 12.8242 8.20822 12.8242H6.57422C6.16001 12.8242 5.82422 12.4884 5.82422 12.0742Z" fill="black"/>
<path fill-rule="evenodd" clip-rule="evenodd" d="M2.51143 8.16226C2.56958 7.75215 2.94918 7.46683 3.35929 7.52498C8.70903 8.28352 14.139 8.28352 19.4888 7.52498C19.8989 7.46683 20.2785 7.75215 20.3366 8.16226C20.3948 8.57237 20.1095 8.95197 19.6993 9.01012C14.2099 9.78847 8.63814 9.78847 3.14871 9.01012C2.7386 8.95197 2.45328 8.57237 2.51143 8.16226Z" fill="black"/>
<path fill-rule="evenodd" clip-rule="evenodd" d="M7.60597 3.25913C10.1442 2.85894 12.7294 2.85894 15.2676 3.25913L15.2705 3.25958C16.2534 3.41845 17.0991 4.12598 17.4296 5.06481L18.3823 7.71085C18.3822 7.71064 18.3823 7.71105 18.3823 7.71085C18.4082 7.78229 18.4436 7.85088 18.4877 7.91431L19.5449 9.33312C20.0747 10.0561 20.3606 10.9291 20.3612 11.8253C20.3615 12.2395 20.026 12.5755 19.6118 12.5758C19.1976 12.5762 18.8615 12.2406 18.8612 11.8264C18.8608 11.2495 18.6771 10.6875 18.3367 10.222L17.2787 8.80223L17.2681 8.78759C17.1447 8.61335 17.0448 8.4232 16.9717 8.22107L16.9713 8.22001L16.0152 5.56433C15.8675 5.14304 15.4728 4.81227 15.0324 4.74057C12.6507 4.36523 10.2249 4.36512 7.84314 4.74026C7.40532 4.81428 7.01402 5.14435 6.86739 5.56374L6.8651 5.57029L5.90709 8.23115C5.83286 8.42754 5.73169 8.61252 5.60666 8.78101L4.5321 10.2605C4.53203 10.2606 4.53217 10.2604 4.5321 10.2605C4.19909 10.7202 4.02008 11.274 4.02118 11.8416L4.02118 11.8454L4.00635 16.578C4.00607 16.666 4.0774 16.7376 4.16549 16.7376H5.96679C6.05468 16.7376 6.12593 16.6663 6.12593 16.5785V16.2059C6.12593 15.2896 6.86875 14.5467 7.78507 14.5467H12.2612C12.6754 14.5467 13.0112 14.8825 13.0112 15.2967C13.0112 15.7109 12.6754 16.0467 12.2612 16.0467H7.78507C7.69718 16.0467 7.62593 16.118 7.62593 16.2059V16.5785C7.62593 17.4948 6.8831 18.2376 5.96679 18.2376H4.16549C3.24714 18.2376 2.50348 17.4916 2.50636 16.5733L2.52118 11.8446C2.52118 11.8439 2.52118 11.8432 2.52118 11.8426C2.51988 10.9584 2.79861 10.0964 3.31745 9.38036L4.40099 7.88852C4.44292 7.83228 4.47695 7.77072 4.50212 7.70539L5.45267 5.06516C5.78122 4.12969 6.62122 3.42305 7.5996 3.26016L7.60597 3.25913Z" fill="black"/>
</svg>