<svg width="25" height="25" viewBox="0 0 25 25" fill="none" xmlns="http://www.w3.org/2000/svg">
<path fill-rule="evenodd" clip-rule="evenodd" d="M17.6772 15.8195C17.1001 15.8195 16.5465 16.0487 16.1384 16.4569C15.2885 17.3068 15.2885 18.6847 16.1384 19.5346C16.9883 20.3845 18.3662 20.3845 19.2161 19.5346C20.066 18.6847 20.066 17.3068 19.2161 16.4569C18.808 16.0487 18.2544 15.8195 17.6772 15.8195ZM20.2768 15.3962C19.5873 14.7068 18.6523 14.3195 17.6772 14.3195C16.7022 14.3195 15.7671 14.7068 15.0777 15.3962C13.6421 16.8319 13.6421 19.1596 15.0777 20.5952C16.5134 22.0309 18.8411 22.0309 20.2768 20.5952C21.7124 19.1596 21.7124 16.8319 20.2768 15.3962Z" fill="black"/>
<path fill-rule="evenodd" clip-rule="evenodd" d="M19.2372 19.5557C19.5301 19.2628 20.005 19.2628 20.2979 19.5557L21.784 21.0418C22.0769 21.3347 22.0769 21.8096 21.784 22.1025C21.4911 22.3954 21.0162 22.3954 20.7233 22.1025L19.2372 20.6164C18.9444 20.3235 18.9444 19.8486 19.2372 19.5557Z" fill="black"/>
<path fill-rule="evenodd" clip-rule="evenodd" d="M14.2952 12.0659C14.2952 11.6516 14.631 11.3159 15.0452 11.3159H16.7054C17.1196 11.3159 17.4554 11.6516 17.4554 12.0659C17.4554 12.4801 17.1196 12.8159 16.7054 12.8159H15.0452C14.631 12.8159 14.2952 12.4801 14.2952 12.0659Z" fill="black"/>
<path fill-rule="evenodd" clip-rule="evenodd" d="M6.09033 12.0659C6.09033 11.6516 6.42612 11.3159 6.84033 11.3159H8.50058C8.91479 11.3159 9.25058 11.6516 9.25058 12.0659C9.25058 12.4801 8.91479 12.8159 8.50058 12.8159H6.84033C6.42612 12.8159 6.09033 12.4801 6.09033 12.0659Z" fill="black"/>
<path fill-rule="evenodd" clip-rule="evenodd" d="M2.72334 8.09256C2.78149 7.68245 3.16109 7.39713 3.5712 7.45528C9.00895 8.22629 14.5283 8.22629 19.966 7.45528C20.3761 7.39713 20.7557 7.68245 20.8139 8.09256C20.872 8.50267 20.5867 8.88227 20.1766 8.94042C14.5992 9.73124 8.93806 9.73124 3.36063 8.94042C2.95051 8.88227 2.66519 8.50267 2.72334 8.09256Z" fill="black"/>
<path fill-rule="evenodd" clip-rule="evenodd" d="M7.89041 3.12072C10.4686 2.71423 13.0945 2.71423 15.6727 3.12072L15.6755 3.12118C16.67 3.28192 17.5259 3.99796 17.8603 4.94791L18.8283 7.63685C18.8283 7.63664 18.8284 7.63705 18.8283 7.63685C18.8551 7.71052 18.8916 7.78122 18.9371 7.8466L20.0115 9.28852C20.5484 10.0211 20.8381 10.9058 20.8387 11.814C20.839 12.2282 20.5035 12.5642 20.0893 12.5645C19.6751 12.5648 19.339 12.2293 19.3387 11.8151C19.3383 11.2263 19.1507 10.6526 18.8033 10.1775L17.7281 8.73454L17.7175 8.71989C17.5927 8.5437 17.4917 8.35144 17.4178 8.14707L17.4174 8.14601L16.4458 5.4473C16.2942 5.01496 15.8894 4.67574 15.4375 4.60217C13.0158 4.22052 10.5493 4.22042 8.12758 4.60186C7.67824 4.6778 7.27693 5.0163 7.12644 5.44672L7.12416 5.45326L6.15065 8.15715C6.07561 8.3557 5.97333 8.5427 5.84692 8.71304L4.75486 10.2166C4.75479 10.2167 4.75494 10.2165 4.75486 10.2166C4.41493 10.6859 4.23221 11.2511 4.23333 11.8306L4.23334 11.8344L4.21826 16.6438C4.21796 16.74 4.29591 16.8182 4.39217 16.8182H6.22271C6.31876 16.8182 6.39662 16.7404 6.39662 16.6443V16.2657C6.39662 15.3412 7.14605 14.5918 8.07053 14.5918H12.6193C13.0335 14.5918 13.3693 14.9276 13.3693 15.3418C13.3693 15.756 13.0335 16.0918 12.6193 16.0918H8.07053C7.97448 16.0918 7.89662 16.1696 7.89662 16.2657V16.6443C7.89662 17.5688 7.14719 18.3182 6.22271 18.3182H4.39217C3.46565 18.3182 2.71537 17.5656 2.71827 16.6391L2.73333 11.8335C2.73333 11.8328 2.73333 11.8322 2.73333 11.8315C2.73202 10.9355 3.01446 10.0621 3.54021 9.33648L4.64125 7.82054C4.68455 7.76246 4.71969 7.69889 4.74567 7.63142L5.71173 4.94813C6.04413 4.00164 6.89415 3.28657 7.88404 3.12176L7.89041 3.12072Z" fill="black"/>
</svg>