<svg width="25" height="25" viewBox="0 0 25 25" fill="none" xmlns="http://www.w3.org/2000/svg">
<path d="M12.8463 7.51175L9.86587 7.51062C9.79069 7.61734 9.70477 7.71796 9.60932 7.81342C8.71058 8.71215 7.25345 8.71215 6.35471 7.81342C5.45598 6.91468 5.45598 5.45755 6.35471 4.55882C7.25345 3.66008 8.71058 3.66008 9.60932 4.55882C9.70477 4.65427 9.79069 4.75804 9.86587 4.86475L12.6168 4.88409C12.7961 4.88409 13.0353 4.84549 13.1616 4.97172L14.1123 5.92245C14.2385 6.04868 14.2385 6.25334 14.1123 6.37958L13.0748 7.41708C13.0142 7.47769 12.932 7.51174 12.8463 7.51175Z" stroke="black" stroke-width="1.5" stroke-linecap="round" stroke-linejoin="round"/>
<path d="M7.90234 6.19995L7.91329 6.19995" stroke="black" stroke-width="1.5" stroke-linecap="round" stroke-linejoin="round"/>
<path d="M16.6099 7.58984H18.6725" stroke="black" stroke-width="1.5" stroke-linecap="round" stroke-linejoin="round"/>
<path d="M16.2642 4.66101H17.6411" stroke="black" stroke-width="1.5" stroke-linecap="round" stroke-linejoin="round"/>
<path d="M14.9014 17.5137H16.2521" stroke="black" stroke-width="1.5" stroke-linecap="round" stroke-linejoin="round"/>
<path d="M8.22803 17.5137H9.57873" stroke="black" stroke-width="1.5" stroke-linecap="round" stroke-linejoin="round"/>
<path d="M5.48291 14.4409C9.96285 15.0612 14.51 15.0612 18.9899 14.4409" stroke="black" stroke-width="1.5" stroke-linecap="round" stroke-linejoin="round"/>
<path d="M5.48487 21.1487C5.48356 21.5549 5.82041 21.8848 6.23638 21.8848H7.72537C8.14042 21.8848 8.47689 21.5563 8.47689 21.151V20.8502C8.47689 20.4449 8.81335 20.1164 9.2284 20.1164H15.2504C15.6654 20.1164 16.0019 20.4449 16.0019 20.8502V21.151C16.0019 21.5563 16.3384 21.8848 16.7534 21.8848H18.2526C18.6677 21.8848 19.0041 21.5563 19.0041 21.151V17.3147C19.0037 16.7199 18.8093 16.1403 18.4493 15.6605L17.5732 14.5124C17.503 14.4157 17.4465 14.3106 17.4053 14.1991L16.6167 12.0603C16.4193 11.5105 15.906 11.0908 15.3171 10.9978C13.2829 10.6846 11.2111 10.6846 9.1769 10.9978C8.5906 11.0931 8.08076 11.5124 7.88459 12.0603L7.09602 14.1991C7.05462 14.3061 6.99811 14.4068 6.92811 14.4985L6.0374 15.696C5.6851 16.1708 5.49596 16.7424 5.49712 17.3287L5.48487 21.1487Z" stroke="black" stroke-width="1.5" stroke-linecap="round" stroke-linejoin="round"/>
</svg>