<svg width="25" height="24" viewBox="0 0 25 24" fill="none" xmlns="http://www.w3.org/2000/svg">
<path d="M12.25 21C7.27908 21 3.25 16.9709 3.25 12C3.25 7.02908 7.27908 3 12.25 3C17.2209 3 21.25 7.02908 21.25 12C21.25 12.9588 21.1001 13.8825 20.8225 14.7491" stroke="black" stroke-width="1.5" stroke-linecap="round" stroke-linejoin="round"/>
<path d="M21.2502 18.5996L18.8499 20.9999L17.4097 19.5597" stroke="black" stroke-width="1.5" stroke-linecap="round" stroke-linejoin="round"/>
<path d="M7.854 10.7462C10.7669 11.1592 13.7234 11.1592 16.6363 10.7462" stroke="black" stroke-width="1.5" stroke-linecap="round" stroke-linejoin="round"/>
<path d="M7.85547 15.2123C7.85462 15.4828 8.07364 15.7025 8.34411 15.7025H9.52134C9.79121 15.7025 10.01 15.4837 10.01 15.2138V15.0136C10.01 14.7437 10.2287 14.5249 10.4986 14.5249H13.998C14.2679 14.5249 14.4867 14.7437 14.4867 15.0136V15.2138C14.4867 15.4837 14.7054 15.7025 14.9753 15.7025H16.1571C16.427 15.7025 16.6457 15.4837 16.6457 15.2138V12.6594C16.6454 12.2633 16.5191 11.8775 16.2849 11.5579L15.7153 10.7935C15.6697 10.7291 15.633 10.6591 15.6061 10.5849L15.0934 9.16071C14.9651 8.79465 14.6313 8.51517 14.2484 8.45327C12.9258 8.24474 11.5787 8.24474 10.256 8.45327C9.87482 8.51674 9.54332 8.7959 9.41578 9.16071L8.90304 10.5849C8.87612 10.6561 8.83938 10.7232 8.79387 10.7842L8.21473 11.5816C7.98566 11.8977 7.86268 12.2783 7.86344 12.6687L7.85547 15.2123Z" stroke="black" stroke-width="1.5" stroke-linecap="round" stroke-linejoin="round"/>
</svg>