<svg width="25" height="24" viewBox="0 0 25 24" fill="none" xmlns="http://www.w3.org/2000/svg">
<path d="M17.3583 21C15.2655 21 13.5688 19.3034 13.5688 17.2105C13.5688 15.1176 15.2655 13.421 17.3583 13.421C19.4512 13.421 21.1478 15.1176 21.1478 17.2105C21.1478 19.3034 19.4512 21 17.3583 21" stroke="black" stroke-width="1.5" stroke-linecap="round" stroke-linejoin="round"/>
<path opacity="0.4" d="M17.2681 15.9332V17.4099L18.432 18.12" stroke="black" stroke-width="1.5" stroke-linecap="round" stroke-linejoin="round"/>
<path opacity="0.4" d="M14.3208 11.048H15.8932" stroke="black" stroke-width="1.5" stroke-linecap="round" stroke-linejoin="round"/>
<path opacity="0.4" d="M6.55125 11.048H8.12364" stroke="black" stroke-width="1.5" stroke-linecap="round" stroke-linejoin="round"/>
<path opacity="0.4" d="M3.35596 7.38458C8.57117 8.12405 13.8646 8.12405 19.0798 7.38458" stroke="black" stroke-width="1.5" stroke-linecap="round" stroke-linejoin="round"/>
<path d="M19.0967 10.8108C19.0962 10.1016 18.8699 9.41071 18.4507 8.83866L17.4308 7.46996C17.3492 7.35465 17.2834 7.22932 17.2354 7.09645L16.3174 4.54663C16.0876 3.89123 15.49 3.39083 14.8044 3.28002C12.4364 2.90666 10.0246 2.90666 7.65652 3.28002C6.97399 3.39365 6.38047 3.89347 6.15211 4.54663L5.23411 7.09645C5.18591 7.22397 5.12013 7.34406 5.03864 7.45336L4.00174 8.88099C3.59162 9.44698 3.37144 10.1284 3.37279 10.8274L3.35852 15.3814C3.35701 15.8657 3.74914 16.259 4.23338 16.259H5.96675C6.44992 16.259 6.84161 15.8673 6.84161 15.3842V15.0256C6.84161 14.5425 7.2333 14.1508 7.71647 14.1508H12.0238" stroke="black" stroke-width="1.5" stroke-linecap="round" stroke-linejoin="round"/>
</svg>