<svg width="25" height="24" viewBox="0 0 25 24" fill="none" xmlns="http://www.w3.org/2000/svg">
<path fill-rule="evenodd" clip-rule="evenodd" d="M9.90644 16.7145C10.1993 16.4216 10.6742 16.4216 10.9671 16.7145L12.7796 18.527C13.0725 18.8199 13.0725 19.2948 12.7796 19.5877L10.9671 21.4002C10.6742 21.6931 10.1993 21.6931 9.90644 21.4002C9.61354 21.1073 9.61354 20.6324 9.90644 20.3395L11.1886 19.0573L9.90644 17.7751C9.61354 17.4822 9.61354 17.0074 9.90644 16.7145Z" fill="black"/>
<path fill-rule="evenodd" clip-rule="evenodd" d="M19.6093 13.5727C19.8245 13.2188 20.2859 13.1064 20.6398 13.3216C21.4079 13.7887 21.9107 14.5907 21.9966 15.4856C21.9989 15.5094 22 15.5333 22 15.5572C22 16.7188 21.0933 17.5954 20.0345 18.1923C18.9318 18.8139 17.4247 19.2783 15.7156 19.5455C15.3063 19.6094 14.9227 19.3296 14.8587 18.9203C14.7947 18.5111 15.0746 18.1274 15.4839 18.0635C17.085 17.8132 18.403 17.3901 19.2979 16.8856C20.2048 16.3743 20.4813 15.9013 20.4991 15.5895C20.4478 15.1813 20.2131 14.8177 19.8604 14.6032C19.5065 14.3879 19.3941 13.9266 19.6093 13.5727Z" fill="black"/>
<path fill-rule="evenodd" clip-rule="evenodd" d="M4.89071 13.5727C5.10595 13.9266 4.99354 14.3879 4.63964 14.6032C4.28677 14.8178 4.05203 15.1815 4.00088 15.5899C4.01155 15.7889 4.12171 16.052 4.4649 16.3676C4.82786 16.7014 5.39447 17.0364 6.15787 17.3333C7.67989 17.9252 9.83356 18.3074 12.2501 18.3074C12.6644 18.3074 13.0001 18.6432 13.0001 19.0574C13.0001 19.4716 12.6644 19.8074 12.2501 19.8074C9.69594 19.8074 7.34954 19.4061 5.61419 18.7313C4.7489 18.3948 3.9975 17.9756 3.44961 17.4718C2.90108 16.9674 2.5 16.3213 2.5 15.5572C2.5 15.5333 2.50114 15.5094 2.50343 15.4856C2.58929 14.5907 3.09211 13.7887 3.8602 13.3216C4.2141 13.1064 4.67548 13.2188 4.89071 13.5727Z" fill="black"/>
<path fill-rule="evenodd" clip-rule="evenodd" d="M13.7712 9.03827C13.7712 8.62406 14.107 8.28827 14.5212 8.28827H15.6754C16.0896 8.28827 16.4254 8.62406 16.4254 9.03827C16.4254 9.45248 16.0896 9.78827 15.6754 9.78827H14.5212C14.107 9.78827 13.7712 9.45248 13.7712 9.03827Z" fill="black"/>
<path fill-rule="evenodd" clip-rule="evenodd" d="M8.06836 9.03827C8.06836 8.62406 8.40415 8.28827 8.81836 8.28827H9.97253C10.3867 8.28827 10.7225 8.62406 10.7225 9.03827C10.7225 9.45248 10.3867 9.78827 9.97253 9.78827H8.81836C8.40415 9.78827 8.06836 9.45248 8.06836 9.03827Z" fill="black"/>
<path fill-rule="evenodd" clip-rule="evenodd" d="M5.73042 6.24393C5.78857 5.83381 6.16817 5.54849 6.57828 5.60664C10.3365 6.13952 14.1511 6.13952 17.9094 5.60664C18.3195 5.54849 18.6991 5.83381 18.7572 6.24393C18.8154 6.65404 18.5301 7.03364 18.12 7.09179C14.222 7.64447 10.2656 7.64447 6.36771 7.09179C5.95759 7.03364 5.67227 6.65404 5.73042 6.24393Z" fill="black"/>
<path fill-rule="evenodd" clip-rule="evenodd" d="M9.51287 2.59555C11.3285 2.3093 13.1776 2.3093 14.9932 2.59555L14.9961 2.596C15.7698 2.72106 16.4332 3.27591 16.6936 4.01475L17.366 5.88263C17.366 5.88246 17.3661 5.88281 17.366 5.88263C17.3774 5.91388 17.3929 5.94441 17.4124 5.97284L18.1578 6.97324C18.5597 7.52163 18.7765 8.18384 18.777 8.86359L18.777 12.2211C18.777 12.99 18.1537 13.6133 17.3848 13.6133H16.1038C15.3349 13.6133 14.7116 12.99 14.7116 12.2211V12.0658H9.78152V12.2211C9.78152 12.99 9.15822 13.6133 8.38935 13.6133H7.11702C6.34645 13.6133 5.72245 12.9873 5.72486 12.2168L5.73533 8.87779C5.73533 8.87711 5.73533 8.87643 5.73533 8.87575C5.73446 8.20487 5.94599 7.55088 6.33966 7.00757L7.10678 5.95139C7.12399 5.92831 7.13803 5.90316 7.14851 5.87649L7.81871 4.01495C8.07759 3.27887 8.73645 2.72479 9.50651 2.59658L9.51287 2.59555ZM9.75029 4.07665C9.52062 4.11594 9.31036 4.2935 9.23339 4.51364L9.2311 4.52018L8.55323 6.40293C8.49373 6.56037 8.41266 6.70865 8.31254 6.84376L7.55431 7.8877C7.55425 7.88779 7.55438 7.8876 7.55431 7.8877C7.34645 8.17469 7.23464 8.52048 7.23533 8.87488L7.23533 8.87868L7.22519 12.1133H8.28152V11.9579C8.28152 11.1891 8.90481 10.5658 9.67369 10.5658H14.8194C15.5883 10.5658 16.2116 11.1891 16.2116 11.9579V12.1133H17.277V8.86471C17.2767 8.50425 17.162 8.15308 16.9495 7.86211L16.2028 6.86004L16.1922 6.84539C16.0937 6.70634 16.0139 6.55443 15.9555 6.39285L15.9551 6.3918L15.2791 4.51423C15.2015 4.29291 14.9891 4.11482 14.7579 4.07698C13.0989 3.8156 11.4093 3.81549 9.75029 4.07665Z" fill="black"/>
</svg>