<svg width="25" height="25" viewBox="0 0 25 25" fill="none" xmlns="http://www.w3.org/2000/svg">
<path d="M18.3916 16.5242L18.3826 16.5331" stroke="black" stroke-width="1.5" stroke-linecap="round" stroke-linejoin="round"/>
<path d="M13.3401 19.5987L15.5034 17.4367C15.4635 17.2552 15.4362 17.0722 15.4362 16.8787C15.4362 15.4328 16.6084 14.2606 18.0543 14.2606C19.5002 14.2606 20.6723 15.4328 20.6723 16.8787C20.6723 18.3246 19.5002 19.4967 18.0543 19.4967C17.7735 19.4967 17.5021 19.4525 17.2486 19.3707L16.7096 19.9086L15.3282 21.2674C15.2034 21.3922 15.0638 21.5855 14.8881 21.5855L13.5651 21.5855C13.3894 21.5855 13.247 21.4431 13.247 21.2674V19.8236C13.247 19.7392 13.2805 19.6584 13.3401 19.5987Z" stroke="black" stroke-width="1.5" stroke-linecap="round" stroke-linejoin="round"/>
<path d="M15.3341 11.8406H16.9473" stroke="black" stroke-width="1.5" stroke-linecap="round" stroke-linejoin="round"/>
<path d="M7.36277 11.8406H8.976" stroke="black" stroke-width="1.5" stroke-linecap="round" stroke-linejoin="round"/>
<path d="M4.08447 8.08142C9.43514 8.84009 14.8661 8.84009 20.2167 8.08142" stroke="black" stroke-width="1.5" stroke-linecap="round" stroke-linejoin="round"/>
<path d="M20.2339 11.5964C20.2333 10.8688 20.0012 10.16 19.5711 9.57306L18.5248 8.16881C18.441 8.05051 18.3735 7.92193 18.3242 7.7856L17.3824 5.16956C17.1467 4.49714 16.5336 3.98375 15.8302 3.87005C13.4006 3.487 10.9261 3.487 8.49661 3.87005C7.79634 3.98664 7.18741 4.49944 6.95312 5.16956L6.01128 7.7856C5.96183 7.91644 5.89434 8.03965 5.81073 8.15178L4.7469 9.61649C4.32613 10.1972 4.10023 10.8963 4.10162 11.6134L4.08698 16.2858C4.08543 16.7826 4.48774 17.1862 4.98456 17.1862H6.76295C7.25867 17.1862 7.66053 16.7843 7.66053 16.2886V15.9207C7.66053 15.425 8.06239 15.0232 8.55811 15.0232H12.9773" stroke="black" stroke-width="1.5" stroke-linecap="round" stroke-linejoin="round"/>
</svg>