<svg width="25" height="24" viewBox="0 0 25 24" fill="none" xmlns="http://www.w3.org/2000/svg">
<path fill-rule="evenodd" clip-rule="evenodd" d="M12.25 3.75C7.69329 3.75 4 7.44329 4 12C4 16.5567 7.69329 20.25 12.25 20.25C16.8067 20.25 20.5 16.5567 20.5 12C20.5 7.44329 16.8067 3.75 12.25 3.75ZM2.5 12C2.5 6.61487 6.86487 2.25 12.25 2.25C17.6351 2.25 22 6.61487 22 12C22 17.3851 17.6351 21.75 12.25 21.75C6.86487 21.75 2.5 17.3851 2.5 12Z" fill="black"/>
<path fill-rule="evenodd" clip-rule="evenodd" d="M13.7686 12.9316C13.7686 12.5174 14.1043 12.1816 14.5186 12.1816L15.0869 12.1816C15.5011 12.1816 15.8369 12.5174 15.8369 12.9316C15.8369 13.3459 15.5011 13.6816 15.0869 13.6816L14.5186 13.6816C14.1043 13.6816 13.7686 13.3459 13.7686 12.9316Z" fill="black"/>
<path fill-rule="evenodd" clip-rule="evenodd" d="M8.66406 12.9316C8.66406 12.5174 8.99985 12.1816 9.41406 12.1816L9.98242 12.1816C10.3966 12.1816 10.7324 12.5174 10.7324 12.9316C10.7324 13.3459 10.3966 13.6816 9.98242 13.6816L9.41406 13.6816C8.99985 13.6816 8.66406 13.3459 8.66406 12.9316Z" fill="black"/>
<path fill-rule="evenodd" clip-rule="evenodd" d="M6.33711 10.4196C6.39526 10.0095 6.77486 9.72415 7.18497 9.7823C10.5412 10.2582 13.9477 10.2582 17.3039 9.7823C17.714 9.72415 18.0936 10.0095 18.1518 10.4196C18.2099 10.8297 17.9246 11.2093 17.5145 11.2674C14.0186 11.7631 10.4703 11.7631 6.9744 11.2674C6.56428 11.2093 6.27896 10.8297 6.33711 10.4196Z" fill="black"/>
<path fill-rule="evenodd" clip-rule="evenodd" d="M9.78823 7.08763C11.4213 6.83016 13.0845 6.83016 14.7175 7.08763L14.7204 7.08809C15.4412 7.20459 16.0585 7.72081 16.3012 8.40905L16.903 10.0805C16.9029 10.0804 16.903 10.0807 16.903 10.0805C16.9107 10.1017 16.9213 10.1227 16.9345 10.1423L17.6011 11.0368C17.9706 11.5411 18.17 12.15 18.1704 12.7751V15.7801C18.1704 16.5117 17.5773 17.1048 16.8457 17.1048H15.4557C14.7241 17.1048 14.131 16.5117 14.131 15.7801V15.7198H10.3656V15.7801C10.3656 16.5117 9.77252 17.1048 9.0409 17.1048H7.65627C6.92302 17.1048 6.32925 16.5092 6.33155 15.7759L6.34092 12.788C6.34092 12.7874 6.34092 12.7867 6.34092 12.786C6.34015 12.169 6.53471 11.5675 6.89677 11.0679L7.58395 10.1217C7.59495 10.107 7.60398 10.091 7.61075 10.074L8.21005 8.40937C8.45133 7.72365 9.06443 7.20811 9.78186 7.08867L9.78823 7.08763ZM10.0258 8.56871C9.84864 8.59922 9.68409 8.73825 9.62472 8.90808L9.62243 8.91463L9.01533 10.6008C8.95955 10.7484 8.88356 10.8874 8.78974 11.0141L8.11142 11.948C8.11135 11.9481 8.11149 11.9479 8.11142 11.948C7.93517 12.1914 7.84033 12.4846 7.84092 12.7851L7.84092 12.7889L7.83209 15.6048H8.86562V15.5446C8.86562 14.8129 9.45872 14.2198 10.1903 14.2198H14.3063C15.0379 14.2198 15.631 14.8129 15.631 15.5446V15.6048H16.6704V12.7762C16.6702 12.4704 16.5729 12.1725 16.3927 11.9256L15.7247 11.0291L15.714 11.0145C15.6219 10.8843 15.5471 10.7421 15.4924 10.5907L15.492 10.5897L14.8868 8.90867C14.8269 8.73786 14.6606 8.59835 14.4821 8.56905C13.0058 8.33647 11.5022 8.33636 10.0258 8.56871Z" fill="black"/>
</svg>