<svg width="25" height="24" viewBox="0 0 25 24" fill="none" xmlns="http://www.w3.org/2000/svg">
<path fill-rule="evenodd" clip-rule="evenodd" d="M14.4334 14.3657C14.8361 13.9337 15.3982 13.708 16.0212 13.708H18.5304C19.1542 13.708 19.7167 13.9333 20.1196 14.366C20.5168 14.7926 20.7033 15.3603 20.7033 15.9533V18.3174C20.7033 18.9104 20.5168 19.4781 20.1195 19.9047C19.7166 20.3374 19.154 20.5627 18.5301 20.5627H16.0212C15.3974 20.5627 14.8349 20.3373 14.4321 19.9046C14.0349 19.478 13.8486 18.9103 13.8486 18.3174V15.9533C13.8486 15.3595 14.0361 14.7919 14.4334 14.3657ZM15.5307 15.3885C15.4352 15.4909 15.3486 15.6709 15.3486 15.9533V18.3174C15.3486 18.6007 15.4351 18.7806 15.53 18.8826C15.6193 18.9784 15.768 19.0627 16.0212 19.0627H18.5301C18.7835 19.0627 18.9325 18.9784 19.0218 18.8825C19.1168 18.7805 19.2033 18.6006 19.2033 18.3174V15.9533C19.2033 15.6701 19.1168 15.4902 19.0218 15.3882C18.9325 15.2922 18.7836 15.208 18.5304 15.208H16.0212C15.7698 15.208 15.6206 15.2919 15.5307 15.3885Z" fill="black"/>
<path fill-rule="evenodd" clip-rule="evenodd" d="M18.4985 12.5166C18.9127 12.5166 19.2485 12.8524 19.2485 13.2666L19.2485 14.4531C19.2485 14.8673 18.9127 15.2031 18.4985 15.2031C18.0843 15.2031 17.7485 14.8673 17.7485 14.4531L17.7485 13.2666C17.7485 12.8524 18.0843 12.5166 18.4985 12.5166Z" fill="black"/>
<path fill-rule="evenodd" clip-rule="evenodd" d="M16.064 12.5166C16.4782 12.5166 16.814 12.8524 16.814 13.2666L16.814 14.4531C16.814 14.8673 16.4782 15.2031 16.064 15.2031C15.6498 15.2031 15.314 14.8673 15.314 14.4531L15.314 13.2666C15.314 12.8524 15.6498 12.5166 16.064 12.5166Z" fill="black"/>
<path fill-rule="evenodd" clip-rule="evenodd" d="M18.4985 19.0635C18.9127 19.0635 19.2485 19.3993 19.2485 19.8135L19.2485 20.9999C19.2485 21.4142 18.9127 21.7499 18.4985 21.7499C18.0843 21.7499 17.7485 21.4142 17.7485 20.9999L17.7485 19.8135C17.7485 19.3993 18.0843 19.0635 18.4985 19.0635Z" fill="black"/>
<path fill-rule="evenodd" clip-rule="evenodd" d="M16.064 19.0635C16.4782 19.0635 16.814 19.3993 16.814 19.8135L16.814 20.9999C16.814 21.4142 16.4782 21.7499 16.064 21.7499C15.6498 21.7499 15.314 21.4142 15.314 20.9999L15.314 19.8135C15.314 19.3993 15.6498 19.0635 16.064 19.0635Z" fill="black"/>
<path fill-rule="evenodd" clip-rule="evenodd" d="M21.8979 18.3506C21.8979 18.7648 21.5622 19.1006 21.1479 19.1006L19.9615 19.1006C19.5473 19.1006 19.2115 18.7648 19.2115 18.3506C19.2115 17.9364 19.5473 17.6006 19.9615 17.6006L21.1479 17.6006C21.5622 17.6006 21.8979 17.9364 21.8979 18.3506Z" fill="black"/>
<path fill-rule="evenodd" clip-rule="evenodd" d="M21.8979 15.915C21.8979 16.3293 21.5622 16.665 21.1479 16.665L19.9615 16.665C19.5473 16.665 19.2115 16.3293 19.2115 15.915C19.2115 15.5008 19.5473 15.165 19.9615 15.165L21.1479 15.165C21.5622 15.165 21.8979 15.5008 21.8979 15.915Z" fill="black"/>
<path fill-rule="evenodd" clip-rule="evenodd" d="M15.3511 18.3506C15.3511 18.7648 15.0153 19.1006 14.6011 19.1006L13.4146 19.1006C13.0004 19.1006 12.6646 18.7648 12.6646 18.3506C12.6646 17.9364 13.0004 17.6006 13.4146 17.6006L14.6011 17.6006C15.0153 17.6006 15.3511 17.9364 15.3511 18.3506Z" fill="black"/>
<path fill-rule="evenodd" clip-rule="evenodd" d="M15.3511 15.915C15.3511 16.3293 15.0153 16.665 14.6011 16.665L13.4146 16.665C13.0004 16.665 12.6646 16.3293 12.6646 15.915C12.6646 15.5008 13.0004 15.165 13.4146 15.165L14.6011 15.165C15.0153 15.165 15.3511 15.5008 15.3511 15.915Z" fill="black"/>
<path fill-rule="evenodd" clip-rule="evenodd" d="M13.5708 11.0488C13.5708 10.6346 13.9066 10.2988 14.3208 10.2988H15.8932C16.3074 10.2988 16.6432 10.6346 16.6432 11.0488C16.6432 11.463 16.3074 11.7988 15.8932 11.7988H14.3208C13.9066 11.7988 13.5708 11.463 13.5708 11.0488Z" fill="black"/>
<path fill-rule="evenodd" clip-rule="evenodd" d="M5.80127 11.0488C5.80127 10.6346 6.13706 10.2988 6.55127 10.2988H8.12366C8.53787 10.2988 8.87366 10.6346 8.87366 11.0488C8.87366 11.463 8.53787 11.7988 8.12366 11.7988H6.55127C6.13706 11.7988 5.80127 11.463 5.80127 11.0488Z" fill="black"/>
<path fill-rule="evenodd" clip-rule="evenodd" d="M2.61348 7.27945C2.67163 6.86934 3.05123 6.58402 3.46134 6.64217C8.60671 7.37173 13.8293 7.37173 18.9747 6.64217C19.3848 6.58402 19.7644 6.86934 19.8225 7.27945C19.8807 7.68956 19.5953 8.06916 19.1852 8.12731C13.9002 8.87668 8.53582 8.87668 3.25076 8.12731C2.84065 8.06916 2.55533 7.68956 2.61348 7.27945Z" fill="black"/>
<path fill-rule="evenodd" clip-rule="evenodd" d="M7.53959 2.53917C9.98503 2.15361 12.4757 2.15361 14.9211 2.53917L14.924 2.53962C15.88 2.69415 16.7024 3.38207 17.0239 4.29522L17.9405 6.84134C17.9404 6.84114 17.9406 6.84154 17.9405 6.84134C17.9645 6.9076 17.9974 6.9713 18.0384 7.03023L19.0556 8.39534C19.5689 9.09587 19.8459 9.94185 19.8466 10.8102C19.8469 11.2244 19.5113 11.5605 19.0971 11.5608C18.6829 11.5611 18.3469 11.2256 18.3466 10.8113C18.3461 10.2623 18.1713 9.72738 17.8473 9.28427L16.8293 7.91809L16.8187 7.90344C16.6985 7.73372 16.6012 7.54848 16.53 7.35156L16.5296 7.3505L15.6094 4.79474C15.4708 4.39912 15.0994 4.08794 14.6859 4.02061C12.3969 3.6599 10.0657 3.6598 7.77679 4.0203C7.3657 4.08986 6.99765 4.40035 6.85997 4.79415L6.85768 4.80069L5.93564 7.36164C5.8633 7.55303 5.76471 7.7333 5.64288 7.8975L4.60894 9.32105C4.60887 9.32115 4.60901 9.32095 4.60894 9.32105C4.292 9.75859 4.12162 10.2856 4.12267 10.8259L4.12268 10.8297L4.1084 15.3838C4.10818 15.4529 4.16415 15.509 4.23326 15.509H5.96663C6.03559 15.509 6.09149 15.4531 6.09149 15.3842V15.0256C6.09149 14.1283 6.81896 13.4008 7.71635 13.4008H12.0237C12.4379 13.4008 12.7737 13.7366 12.7737 14.1508C12.7737 14.565 12.4379 14.9008 12.0237 14.9008H7.71635C7.64739 14.9008 7.59149 14.9567 7.59149 15.0256V15.3842C7.59149 16.2816 6.86401 17.009 5.96663 17.009H4.23326C3.33389 17.009 2.60559 16.2785 2.60841 15.3791L2.62267 10.8288C2.62267 10.8282 2.62267 10.8275 2.62267 10.8268C2.62143 9.97004 2.89153 9.13478 3.39429 8.44092L4.4372 7.00502C4.47595 6.95305 4.50741 6.89618 4.53069 6.83583L5.44526 4.29555C5.76486 3.38569 6.5816 2.69864 7.53322 2.5402L7.53959 2.53917Z" fill="black"/>
</svg>