<svg width="25" height="24" viewBox="0 0 25 24" fill="none" xmlns="http://www.w3.org/2000/svg">
<path d="M17.3576 13.4196C19.4509 13.4196 21.1478 15.1165 21.1478 17.2098C21.1478 19.3031 19.4509 21 17.3576 21C15.2643 21 13.5674 19.3031 13.5674 17.2098C13.5674 15.1165 15.2643 13.4196 17.3576 13.4196" stroke="black" stroke-width="1.5" stroke-linecap="round" stroke-linejoin="round"/>
<path d="M16.4541 16.3065L18.2605 18.113M18.2605 16.3065L16.4541 18.113" stroke="black" stroke-width="1.5" stroke-linecap="round" stroke-linejoin="round"/>
<path d="M14.3208 11.048H15.8932" stroke="black" stroke-width="1.5" stroke-linecap="round" stroke-linejoin="round"/>
<path d="M6.55127 11.048H8.12366" stroke="black" stroke-width="1.5" stroke-linecap="round" stroke-linejoin="round"/>
<path d="M3.35596 7.38458C8.57117 8.12405 13.8646 8.12405 19.0798 7.38458" stroke="black" stroke-width="1.5" stroke-linecap="round" stroke-linejoin="round"/>
<path d="M19.0966 10.8108C19.096 10.1016 18.8698 9.41071 18.4506 8.83866L17.4307 7.46996C17.349 7.35465 17.2833 7.22932 17.2352 7.09645L16.3172 4.54663C16.0875 3.89123 15.4899 3.39083 14.8043 3.28002C12.4363 2.90666 10.0244 2.90666 7.6564 3.28002C6.97387 3.39365 6.38035 3.89347 6.15199 4.54663L5.23399 7.09645C5.18579 7.22397 5.12001 7.34406 5.03852 7.45336L4.00162 8.88099C3.5915 9.44698 3.37132 10.1284 3.37267 10.8274L3.3584 15.3814C3.35689 15.8657 3.74902 16.259 4.23326 16.259H5.96663C6.4498 16.259 6.84149 15.8673 6.84149 15.3842V15.0256C6.84149 14.5425 7.23318 14.1508 7.71635 14.1508H12.0237" stroke="black" stroke-width="1.5" stroke-linecap="round" stroke-linejoin="round"/>
</svg>