<svg width="25" height="25" viewBox="0 0 25 25" fill="none" xmlns="http://www.w3.org/2000/svg">
<path d="M8.08259 20.2101C6.85663 20.2101 5.86279 19.2163 5.86279 17.9903C5.86279 16.7644 6.85663 15.7705 8.08259 15.7705C9.30855 15.7705 10.3024 16.7644 10.3024 17.9903C10.3024 19.2163 9.30855 20.2101 8.08259 20.2101Z" stroke="black" stroke-width="1.5" stroke-linecap="round" stroke-linejoin="round"/>
<path d="M10.3965 17.9904H17.9801H21.3424L22.25 19.7476" stroke="black" stroke-width="1.5" stroke-linecap="round" stroke-linejoin="round"/>
<path d="M5.64355 9.5564V12.1008C5.64355 12.3723 5.86364 12.5924 6.13513 12.5924L8.91466 12.5924C9.18615 12.5924 9.40624 12.3723 9.40624 12.1008V9.5564C9.40624 9.28491 9.18615 9.06482 8.91466 9.06482H6.13513C5.86364 9.06482 5.64355 9.28491 5.64355 9.5564Z" stroke="black" stroke-width="1.5" stroke-linecap="round" stroke-linejoin="round"/>
<path d="M12.9741 17.9903V10.407C12.9741 10.1136 13.212 9.87573 13.5054 9.87573H16.5095C16.803 9.87573 17.0409 10.1136 17.0409 10.407V17.9903" stroke="black" stroke-width="1.5" stroke-linecap="round" stroke-linejoin="round"/>
<path d="M5.81385 17.9902H4.37536C3.13023 17.9902 2.15183 16.9246 2.25788 15.684L2.95715 7.50353C3.05114 6.40398 3.97108 5.55933 5.07464 5.55933H17.9427C19.1164 5.55933 20.0679 6.51081 20.0679 7.68453V17.9252" stroke="black" stroke-width="1.5" stroke-linecap="round" stroke-linejoin="round"/>
</svg>