<svg width="24" height="25" viewBox="0 0 24 25" fill="none" xmlns="http://www.w3.org/2000/svg">
<path fill-rule="evenodd" clip-rule="evenodd" d="M21.1802 7.83016C21.1802 5.03716 19.3862 3.16016 16.7152 3.16016H6.64518C3.97418 3.16016 2.18018 5.03716 2.18018 7.83016V7.91016C2.18018 8.07584 2.31449 8.21016 2.48018 8.21016H20.8802C21.0459 8.21016 21.1802 8.07584 21.1802 7.91016V7.83016Z" fill="black"/>
<path fill-rule="evenodd" clip-rule="evenodd" d="M17.8454 10.747C18.8594 10.726 19.8554 11.117 20.6064 11.845C20.7996 12.0321 21.1804 11.9112 21.1804 11.6422V10.01C21.1804 9.84427 21.0461 9.70996 20.8804 9.70996H2.48042C2.31473 9.70996 2.18042 9.84428 2.18042 10.01V14.41C2.18042 17.203 3.97442 19.08 6.64542 19.08H12.4074C12.5731 19.08 12.7074 18.9456 12.7074 18.78V17.356C12.7074 16.3147 13.1647 15.3873 13.8784 14.7337C13.9433 14.6743 13.9817 14.591 13.9849 14.503C14.0596 12.4491 15.7814 10.7664 17.8454 10.747Z" fill="black"/>
<path fill-rule="evenodd" clip-rule="evenodd" d="M20.3203 19.1459C20.3203 19.6099 19.9453 19.9869 19.4853 19.9869H16.2923C15.8323 19.9869 15.4573 19.6099 15.4573 19.1459V17.3559C15.4573 16.8979 15.8323 16.5259 16.2923 16.5259H19.4853C19.9453 16.5259 20.3203 16.8979 20.3203 17.3559V19.1459ZM17.8793 13.4969C18.1953 13.5059 18.4723 13.6049 18.6923 13.8189C18.9163 14.0349 19.0413 14.3249 19.0443 14.6259V15.0259H16.7323V14.6289C16.7433 13.9999 17.2433 13.5019 17.8793 13.4969ZM20.5443 15.2909V14.6179C20.5363 13.9049 20.2493 13.2389 19.7363 12.7419C19.2263 12.2479 18.5753 11.9789 17.8573 11.9969C16.4103 12.0099 15.2583 13.1559 15.2323 14.6169V15.2919C14.4793 15.6789 13.9573 16.4539 13.9573 17.3559V19.1459C13.9573 20.4369 15.0053 21.4869 16.2923 21.4869H19.4853C20.7733 21.4869 21.8203 20.4369 21.8203 19.1459V17.3559C21.8203 16.4529 21.2983 15.6779 20.5443 15.2909Z" fill="black"/>
</svg>