<svg width="24" height="24" viewBox="0 0 24 24" fill="none" xmlns="http://www.w3.org/2000/svg">
<path fill-rule="evenodd" clip-rule="evenodd" d="M16.2169 3H7.78216C4.84281 3 3 5.08119 3 8.02638V15.9736C3 18.9188 4.83405 21 7.78216 21H16.2159C19.165 21 21 18.9188 21 15.9736V8.02638C21 5.08119 19.165 3 16.2169 3Z" stroke="black" stroke-width="1.5" stroke-linecap="round" stroke-linejoin="round"/>
<path d="M16.3808 9.34918V8.50074C16.3808 7.22323 15.5888 6.32031 14.3025 6.32031H9.69741C8.41989 6.32031 7.61816 7.22323 7.61816 8.50074V9.34918" stroke="black" stroke-width="1.5" stroke-linecap="round" stroke-linejoin="round"/>
<path d="M5.83887 9.34977H18.1635" stroke="black" stroke-width="1.5" stroke-linecap="round" stroke-linejoin="round"/>
<path d="M16.3808 15.6977V15.0877C16.3808 13.8092 15.5888 12.9062 14.3025 12.9062H9.69741C8.41989 12.9062 7.61816 13.8092 7.61816 15.0877V15.6977" stroke="black" stroke-width="1.5" stroke-linecap="round" stroke-linejoin="round"/>
<path d="M18.1587 15.6953H13.9554L13.9544 15.6982V15.7245C13.9544 16.8084 13.0827 17.6802 11.9997 17.6802C10.9158 17.6802 10.0441 16.8084 10.0441 15.7245V15.6982V15.6953H5.84082" stroke="black" stroke-width="1.5" stroke-linecap="round" stroke-linejoin="round"/>
</svg>