<svg width="24" height="24" viewBox="0 0 24 24" fill="none" xmlns="http://www.w3.org/2000/svg">
<path fill-rule="evenodd" clip-rule="evenodd" d="M14.3027 13.6509H9.69772C8.91672 13.6509 8.44772 14.1379 8.39072 14.9399H10.0447C10.4587 14.9399 10.7947 15.2759 10.7947 15.6899C10.7947 16.3989 11.3247 16.9299 12.0007 16.9299C12.6757 16.9299 13.2047 16.3989 13.2047 15.7209C13.2047 15.3069 13.5417 14.9399 13.9557 14.9399H15.6087C15.5507 14.1379 15.0827 13.6509 14.3027 13.6509Z" fill="black"/>
<path fill-rule="evenodd" clip-rule="evenodd" d="M15.6308 8.50031C15.6308 7.60431 15.1338 7.07031 14.3028 7.07031H9.6968C8.8648 7.07031 8.3678 7.60431 8.3678 8.50031V8.60031H15.6308V8.50031Z" fill="black"/>
<path fill-rule="evenodd" clip-rule="evenodd" d="M18.164 10.1H5.839C5.425 10.1 5.089 9.764 5.089 9.35C5.089 8.936 5.425 8.6 5.839 8.6H6.868V8.5C6.868 6.776 8.032 5.571 9.697 5.571H14.303C15.968 5.571 17.131 6.776 17.131 8.5V8.6H18.164C18.578 8.6 18.914 8.936 18.914 9.35C18.914 9.764 18.578 10.1 18.164 10.1ZM18.159 16.44H16.434C16.415 16.441 16.4 16.451 16.381 16.451C16.362 16.451 16.346 16.441 16.328 16.44H14.613C14.307 17.576 13.251 18.43 12 18.43C10.757 18.43 9.707 17.586 9.392 16.44H7.671C7.653 16.441 7.637 16.451 7.618 16.451C7.599 16.451 7.583 16.441 7.565 16.44H5.842C5.428 16.44 5.092 16.104 5.092 15.69C5.092 15.276 5.428 14.94 5.842 14.94H6.881C6.948 13.293 8.082 12.151 9.697 12.151H14.303C15.917 12.151 17.05 13.293 17.118 14.94H18.159C18.573 14.94 18.909 15.276 18.909 15.69C18.909 16.104 18.573 16.44 18.159 16.44ZM16.217 2.5H7.783C4.623 2.5 2.5 4.722 2.5 8.03V15.971C2.5 19.279 4.623 21.5 7.783 21.5H16.216C19.377 21.5 21.5 19.279 21.5 15.971V8.03C21.5 4.722 19.377 2.5 16.217 2.5Z" fill="black"/>
</svg>