<svg width="25" height="24" viewBox="0 0 25 24" fill="none" xmlns="http://www.w3.org/2000/svg">
<path fill-rule="evenodd" clip-rule="evenodd" d="M7.19261 16.664L8.40361 7.20602C8.58861 5.76702 9.25961 4.53502 10.2936 3.73602C10.9307 3.24503 11.689 2.94019 12.506 2.83079C12.7301 2.80076 12.7718 2.53024 12.5463 2.51203C12.2865 2.49105 12.0175 2.49719 11.7416 2.53302L6.31761 3.22502C5.30161 3.35202 4.46761 3.80402 3.90561 4.53102C3.32061 5.28802 3.07661 6.30902 3.21961 7.40302L4.50961 17.515C4.65261 18.617 5.14861 19.545 5.90561 20.127C6.49461 20.58 7.21161 20.812 8.00361 20.812C8.01227 20.812 8.02094 20.812 8.02963 20.8119C8.19426 20.81 8.27051 20.6098 8.16929 20.4799C7.38527 19.4742 7.00155 18.1445 7.19261 16.664Z" fill="black"/>
<path fill-rule="evenodd" clip-rule="evenodd" d="M16.8946 11.1403C16.6546 11.0103 16.3746 11.0003 16.1346 11.1203C15.8346 11.2603 15.4746 11.1903 15.2546 10.9403C15.0746 10.7403 14.8146 10.6403 14.5446 10.6703C14.0046 10.7403 13.7746 11.3003 13.8246 11.8003C13.9246 12.5703 14.6446 13.4203 15.1346 13.9103C15.7746 13.6403 16.7746 13.1203 17.1346 12.4503C17.2846 12.1703 17.3346 11.8503 17.2546 11.5803C17.1946 11.3903 17.0746 11.2403 16.8946 11.1403Z" fill="black"/>
<path fill-rule="evenodd" clip-rule="evenodd" d="M18.4546 13.1704C17.6346 14.6704 15.4446 15.4104 15.1946 15.4804C15.1246 15.5104 15.0446 15.5204 14.9646 15.5204C14.7946 15.5204 14.6246 15.4604 14.4846 15.3504C14.2946 15.1804 12.5446 13.7004 12.3346 11.9804C12.3246 11.8704 12.3146 11.7604 12.3146 11.6504C12.3146 10.3904 13.1646 9.34037 14.3646 9.19037C14.9346 9.12037 15.5146 9.27037 15.9746 9.59037C16.5346 9.47037 17.1146 9.55037 17.6146 9.83037C18.1346 10.1104 18.5246 10.5804 18.6946 11.1604C18.8846 11.8104 18.7946 12.5404 18.4546 13.1704ZM21.0846 6.18037C20.5546 5.50037 19.7646 5.07037 18.8146 4.95037L13.7246 4.30037C12.7646 4.18037 11.8946 4.39037 11.2146 4.92037C10.4946 5.48037 10.0246 6.36037 9.89461 7.40037L8.68461 16.8604C8.40461 18.9604 9.58461 20.5504 11.6046 20.8204L16.6946 21.4704C16.8746 21.4904 17.0446 21.5004 17.2146 21.5004C18.0046 21.5004 18.7146 21.2604 19.2946 20.7804C19.9646 20.2204 20.3946 19.3904 20.5246 18.3704L21.7346 8.91037C21.8746 7.87037 21.6346 6.90037 21.0846 6.18037Z" fill="black"/>
</svg>