<svg width="25" height="24" viewBox="0 0 25 24" fill="none" xmlns="http://www.w3.org/2000/svg">
<path opacity="0.4" fill-rule="evenodd" clip-rule="evenodd" d="M20.2255 14.85C20.3912 14.85 20.5255 14.7157 20.5255 14.55V6.52C20.5255 4.303 18.7195 2.5 16.5005 2.5H8.45149C6.23349 2.5 4.42749 4.303 4.42749 6.52V14.55C4.42749 14.7157 4.5618 14.85 4.72749 14.85H20.2255Z" fill="black"/>
<path fill-rule="evenodd" clip-rule="evenodd" d="M4.72798 16.3496C4.56229 16.3496 4.42798 16.4839 4.42798 16.6496V17.4806C4.42798 19.6976 6.23298 21.4996 8.45198 21.4996H16.501C18.72 21.4996 20.525 19.6976 20.525 17.4806V16.6496C20.525 16.4839 20.3907 16.3496 20.225 16.3496H4.72798Z" fill="black"/>
<path fill-rule="evenodd" clip-rule="evenodd" d="M15.7063 7.79266C15.4615 7.18842 14.9895 6.74808 14.3781 6.55182C14.0442 6.44326 13.6822 6.41846 13.3317 6.47741C13.0107 6.53097 12.7199 6.72328 12.4755 6.90193C12.2397 6.73083 11.9417 6.53528 11.6193 6.481C11.2717 6.42205 10.9104 6.4465 10.5736 6.55182C9.23281 6.98568 8.8198 8.45299 9.19471 9.61942C9.77847 11.4929 12.2929 12.6838 12.3996 12.7338C12.4237 12.7449 12.4496 12.7507 12.4758 12.7507C12.5014 12.7507 12.5276 12.7449 12.5517 12.7338C12.6566 12.6849 15.134 11.5145 15.7527 9.62194C15.7527 9.62158 15.7527 9.62122 15.753 9.62122C15.9511 9.00439 15.9342 8.35485 15.7063 7.79266Z" fill="black"/>
</svg>