<svg width="25" height="25" viewBox="0 0 25 25" fill="none" xmlns="http://www.w3.org/2000/svg">
<path d="M10.1574 19.6732H7.21539C6.57243 19.6966 5.93179 19.5838 5.33551 19.3421C4.73923 19.1005 4.2008 18.7355 3.75554 18.2711C3.31028 17.8066 2.96827 17.2533 2.75195 16.6474C2.53564 16.0414 2.44992 15.3966 2.5004 14.7552V8.16321C2.45765 7.52364 2.54875 6.88217 2.76788 6.27979C2.98702 5.67741 3.32937 5.12736 3.77307 4.66474C4.21677 4.20212 4.75206 3.8371 5.34477 3.59302C5.93749 3.34895 6.57459 3.23117 7.21539 3.2472H17.2854C17.9282 3.22365 18.5688 3.33632 19.165 3.5778C19.7612 3.81927 20.2996 4.18408 20.7448 4.64832C21.1901 5.11256 21.5321 5.66573 21.7485 6.27149C21.9649 6.87725 22.0507 7.52194 22.0004 8.16321V11.4632C22.0004 11.6621 21.9214 11.8529 21.7807 11.9935C21.6401 12.1342 21.4493 12.2132 21.2504 12.2132C21.0515 12.2132 20.8607 12.1342 20.7201 11.9935C20.5794 11.8529 20.5004 11.6621 20.5004 11.4632V8.16321C20.5496 7.71982 20.5019 7.27102 20.3606 6.84788C20.2193 6.42473 19.9878 6.03733 19.6821 5.71247C19.3763 5.38761 19.0037 5.13304 18.5898 4.96638C18.176 4.79971 17.731 4.72492 17.2854 4.7472H7.21539C6.77121 4.73016 6.32855 4.80851 5.91721 4.97697C5.50586 5.14542 5.13538 5.40007 4.83073 5.72376C4.52609 6.04745 4.29435 6.43266 4.15112 6.85346C4.00789 7.27426 3.95649 7.72088 4.0004 8.16321V14.7502C3.95104 15.1937 3.9986 15.6427 4.13982 16.066C4.28103 16.4893 4.51252 16.8769 4.81827 17.2019C5.12401 17.527 5.49672 17.7817 5.91061 17.9486C6.3245 18.1154 6.76969 18.1903 7.21539 18.1682H10.1574C10.3563 18.1682 10.5471 18.2472 10.6877 18.3879C10.8284 18.5285 10.9074 18.7193 10.9074 18.9182C10.9074 19.1171 10.8284 19.3079 10.6877 19.4485C10.5471 19.5892 10.3563 19.6682 10.1574 19.6682V19.6732Z" fill="black"/>
<path d="M19.2096 21.3233H16.0166C15.3975 21.3228 14.8039 21.0766 14.3661 20.6388C13.9283 20.201 13.6822 19.6074 13.6816 18.9883V17.1963C13.6824 16.5773 13.9287 15.9838 14.3664 15.5461C14.8041 15.1084 15.3976 14.8621 16.0166 14.8613H19.2096C19.8287 14.8621 20.4221 15.1084 20.8598 15.5461C21.2976 15.9838 21.5438 16.5773 21.5446 17.1963V18.9883C21.5441 19.6074 21.2979 20.201 20.8601 20.6388C20.4224 21.0766 19.8288 21.3228 19.2096 21.3233ZM16.0166 16.3613C15.7953 16.3616 15.583 16.4496 15.4265 16.6062C15.27 16.7627 15.1819 16.9749 15.1816 17.1963V18.9883C15.1819 19.2097 15.27 19.4219 15.4265 19.5785C15.583 19.735 15.7953 19.823 16.0166 19.8233H19.2096C19.431 19.823 19.6432 19.735 19.7998 19.5785C19.9563 19.4219 20.0444 19.2097 20.0446 18.9883V17.1963C20.0444 16.9749 19.9563 16.7627 19.7998 16.6062C19.6432 16.4496 19.431 16.3616 19.2096 16.3613H16.0166Z" fill="black"/>
<path d="M19.519 16.391C19.3201 16.391 19.1293 16.312 18.9887 16.1713C18.848 16.0307 18.769 15.8399 18.769 15.641V14.462C18.7635 14.1598 18.6383 13.8721 18.421 13.662C18.1976 13.4539 17.9044 13.3369 17.599 13.334C17.2977 13.3364 17.0094 13.4567 16.7959 13.6693C16.5823 13.8819 16.4607 14.1697 16.457 14.471V15.646C16.457 15.8449 16.378 16.0357 16.2374 16.1763C16.0967 16.317 15.9059 16.396 15.707 16.396C15.5081 16.396 15.3173 16.317 15.1767 16.1763C15.036 16.0357 14.957 15.8449 14.957 15.646V14.458C14.963 13.7641 15.2413 13.1003 15.7319 12.6095C16.2224 12.1188 16.8861 11.8403 17.58 11.834C18.2837 11.83 18.9611 12.101 19.468 12.589C19.7186 12.832 19.9184 13.1223 20.0558 13.4432C20.1931 13.764 20.2653 14.109 20.268 14.458V15.646C20.2667 15.8439 20.1872 16.0332 20.047 16.1728C19.9067 16.3123 19.7169 16.3907 19.519 16.391Z" fill="black"/>
<path d="M21.25 10.0488H3.25C3.05109 10.0488 2.86032 9.96981 2.71967 9.82916C2.57901 9.68851 2.5 9.49774 2.5 9.29883C2.5 9.09992 2.57901 8.90915 2.71967 8.76849C2.86032 8.62784 3.05109 8.54883 3.25 8.54883H21.25C21.4489 8.54883 21.6397 8.62784 21.7803 8.76849C21.921 8.90915 22 9.09992 22 9.29883C22 9.49774 21.921 9.68851 21.7803 9.82916C21.6397 9.96981 21.4489 10.0488 21.25 10.0488Z" fill="black"/>
</svg>