<svg width="24" height="24" viewBox="0 0 24 24" fill="none" xmlns="http://www.w3.org/2000/svg">
<path opacity="0.4" d="M14.0509 5.22718C14.0857 5.48973 13.835 5.68711 13.5722 5.65471C11.1186 5.35229 7.86862 7.09641 6.85575 9.35709C6.74576 9.60259 6.44059 9.71625 6.23374 9.54426C5.82819 9.20705 5.47977 8.79353 5.26598 8.31486C5.04636 7.82314 4.97679 7.21703 5.35243 6.70796C5.61826 6.3477 6.04823 6.12075 6.60044 6.00446C6.23373 4.51949 6.65025 3.26868 7.65588 2.73703C8.66217 2.20503 9.93289 2.56547 10.9551 3.70522C11.368 3.31295 11.7996 3.08378 12.2459 3.06527C12.8791 3.03901 13.3361 3.43832 13.6132 3.89671C13.842 4.27512 13.9862 4.73983 14.0509 5.22718Z" fill="black"/>
<path d="M9.71968 15.7292C9.50245 15.8441 9.23334 15.7843 9.08895 15.5854C8.06327 14.1728 7.33745 12.8621 7.1895 12.0929C6.96358 10.9061 6.90522 8.93338 10.108 7.23851C13.3118 5.54363 14.9105 6.70237 15.7633 7.55738C15.9871 7.78198 16.231 8.13473 16.4812 8.58399C16.6134 8.82144 16.5172 9.11813 16.277 9.24523L13.8945 10.5058C13.5284 10.6996 13.3886 11.1534 13.5823 11.5195C13.7761 11.8856 14.2299 12.0254 14.596 11.8317L16.8247 10.6524C17.088 10.5132 17.4141 10.6332 17.517 10.9126C17.9018 11.9571 18.2546 13.1358 18.5197 14.3208C18.5683 14.538 18.4636 14.7598 18.2669 14.8639L16.4696 15.8151C16.1035 16.0089 15.9638 16.4627 16.1576 16.8288C16.3513 17.1949 16.8052 17.3346 17.1713 17.1409L18.2313 16.5799C18.5391 16.4169 18.915 16.611 18.9464 16.9578C19.1432 19.1338 18.8526 20.9697 17.669 21.5304C15.9743 22.5251 13.0376 20.2421 10.6989 17.592C10.4879 17.3529 10.5603 16.9815 10.8422 16.8324L12.4698 15.9715C12.836 15.7778 12.9758 15.324 12.7821 14.9578C12.5885 14.5917 12.1347 14.4519 11.7685 14.6455L9.71968 15.7292Z" fill="black"/>
</svg>