<svg width="24" height="25" viewBox="0 0 24 25" fill="none" xmlns="http://www.w3.org/2000/svg">
<path d="M10.8039 20.5871C9.33133 21.0355 7.96625 21.2014 7.15351 21.2162C7.22622 19.7583 7.4213 18.0938 7.78821 16.0168C8.09529 14.2784 6.82953 13.0418 5.35979 13.0418C3.40763 13.0418 2.52339 10.6966 2.7994 9.57891C3.81372 9.57891 4.50958 9.03261 4.93161 8.00591C5.66328 6.22597 7.14173 5.77051 8.88195 5.77051V2.93799C11.9943 4.22658 14.422 6.73325 15.0413 10.1298" stroke="black" stroke-width="1.5" stroke-linecap="round" stroke-linejoin="round"/>
<path d="M8.27734 9.08643V9.10131" stroke="black" stroke-width="1.5" stroke-linecap="round" stroke-linejoin="round"/>
<path fill-rule="evenodd" clip-rule="evenodd" d="M18.5128 21.2164H16.5351C16.224 21.2164 15.9712 20.9635 15.9712 20.6524V19.0453H14.3618C14.0507 19.0453 13.7979 18.7935 13.7979 18.4813V16.4981C13.7979 16.187 14.0507 15.9342 14.3618 15.9342H15.9712V14.3281C15.9712 14.017 16.224 13.7642 16.5351 13.7642H18.5128C18.8239 13.7642 19.0767 14.017 19.0767 14.3281V15.9342H20.6861C20.9972 15.9342 21.2501 16.187 21.2501 16.4981V18.4813C21.2501 18.7935 20.9972 19.0453 20.6861 19.0453H19.0767V20.6524C19.0767 20.9635 18.8239 21.2164 18.5128 21.2164Z" stroke="black" stroke-width="1.5" stroke-linecap="round" stroke-linejoin="round"/>
</svg>