<svg width="24" height="25" viewBox="0 0 24 25" fill="none" xmlns="http://www.w3.org/2000/svg">
<path d="M12 22.0508C6.62 22.0508 2.25 17.6808 2.25 12.3008C2.25 6.92078 6.62 2.55078 12 2.55078C17.38 2.55078 21.75 6.92078 21.75 12.3008C21.75 17.6808 17.38 22.0508 12 22.0508ZM12 4.05078C7.45 4.05078 3.75 7.75078 3.75 12.3008C3.75 16.8508 7.45 20.5508 12 20.5508C16.55 20.5508 20.25 16.8508 20.25 12.3008C20.25 7.75078 16.55 4.05078 12 4.05078Z" fill="black"/>
<path d="M9.87008 17.8311C9.87008 17.8311 9.80007 17.8311 9.77007 17.8311C9.36007 17.7711 9.07009 17.4011 9.13009 16.9911C9.19009 16.5611 9.26009 16.0911 9.35009 15.5911C9.40009 15.3111 9.35009 15.0711 9.19009 14.8911C9.04009 14.7111 8.81009 14.6111 8.57009 14.6111C7.88009 14.6111 7.25007 14.2911 6.80007 13.7211C6.30007 13.0911 6.07008 12.1811 6.24008 11.5111C6.32008 11.1811 6.62009 10.9411 6.97009 10.9411C7.18009 10.9411 7.4101 10.9011 7.6101 10.4211C8.1601 9.0911 9.24008 8.7111 10.0301 8.6011V7.53112C10.0301 7.28112 10.1501 7.0511 10.3601 6.9111C10.5701 6.7711 10.8301 6.74112 11.0601 6.84112C13.8301 7.99112 15.4801 10.3311 15.4801 13.1211V13.9311C15.4801 14.2011 15.7501 14.4311 16.0101 14.5311C16.4401 14.7011 16.9901 14.9411 17.5101 15.3111C17.8501 15.5511 17.9301 16.0211 17.6901 16.3611C17.4501 16.7011 16.9801 16.7811 16.6401 16.5411C16.2501 16.2611 15.8201 16.0711 15.4501 15.9311C14.5601 15.5711 13.9801 14.7911 13.9801 13.9411V13.1311C13.9801 11.3411 13.0801 9.77111 11.5301 8.77111V9.31112C11.5301 9.72112 11.1901 10.0611 10.7801 10.0611C9.62008 10.0611 9.23008 10.4311 9.00008 11.0011C8.73008 11.6511 8.30008 12.1011 7.74007 12.3111C7.79007 12.4711 7.87007 12.6411 7.99007 12.8011C8.24008 13.1211 8.49007 13.1211 8.58007 13.1211C9.27007 13.1211 9.92009 13.4211 10.3501 13.9411C10.7901 14.4611 10.9601 15.1511 10.8401 15.8711C10.7501 16.3511 10.6901 16.8011 10.6301 17.2111C10.5801 17.5911 10.2601 17.8611 9.8901 17.8611L9.87008 17.8311Z" fill="black"/>
<path d="M10.97 12.3506C10.56 12.3506 10.22 12.0106 10.22 11.6006C10.22 11.1906 10.56 10.8506 10.97 10.8506C11.38 10.8506 11.72 11.1806 11.72 11.6006C11.72 12.0206 11.38 12.3606 10.97 12.3606V12.3506Z" fill="black"/>
</svg>