<svg width="24" height="25" viewBox="0 0 24 25" fill="none" xmlns="http://www.w3.org/2000/svg">
<path d="M12 20.0708C6.31 20.0708 3.22 18.7308 2.84 16.0908L2.01001 8.78083L3.5 8.61083L4.32999 15.9008C4.66999 18.2208 9.28 18.5708 12 18.5708C14.72 18.5708 19.34 18.2208 19.68 15.8708L20.51 8.60083L22 8.77083L21.17 16.0608C20.78 18.7308 17.7 20.0608 12 20.0608V20.0708Z" fill="black"/>
<path d="M6.76001 13.7109C6.35001 13.7109 6.01001 13.3609 6.01001 12.9409C6.01001 11.1909 9.12001 10.3909 12.01 10.3909C14.9 10.3909 18.01 11.1909 18.01 12.9409C18.01 13.3509 17.67 13.6909 17.26 13.6909C16.85 13.6909 16.51 13.3509 16.51 12.9409C16.39 12.6609 14.87 11.8909 12.01 11.8909C9.15001 11.8909 7.63001 12.6609 7.51001 12.9709C7.51001 13.3809 7.18001 13.7009 6.76001 13.7009V13.7109Z" fill="black"/>
<path d="M12.01 16.5705C11.22 16.5705 10.43 16.5205 9.59 16.4105C8.63 16.2905 8.04999 16.2205 7.51999 15.8905C7.07999 15.6205 6.67001 15.1805 6.42001 14.7205C6.15001 14.2205 6.09 13.6905 6 12.9705L5.95999 12.6405C5.92999 12.2305 5.91 11.9605 5.87 11.8705C5.82 11.7405 5.73001 11.6405 5.45001 11.5105C2.61001 10.6205 2 9.37052 2 8.49052C2 5.88052 7.03 4.53052 12 4.53052C16.97 4.53052 21.95 5.86052 22 8.42052V8.49052C22 9.39052 21.37 10.6605 18.37 11.5705C18.39 11.5705 18.35 11.5805 18.32 11.6005C18.21 11.6805 18.16 11.7505 18.11 11.8905C18.08 11.9705 18.07 12.2105 18.04 12.5005V12.6305C17.95 13.5105 17.89 14.1005 17.6 14.6605C17.35 15.1405 16.94 15.5905 16.49 15.8705C15.93 16.2205 15.36 16.2905 14.41 16.4105C13.58 16.5105 12.79 16.5705 12 16.5705H12.01ZM12.01 6.03052C6.90001 6.03052 3.51001 7.49052 3.51001 8.45052C3.51001 8.90052 4.28999 9.58052 5.98999 10.1105C6.45999 10.3105 7 10.6205 7.28 11.3105C7.4 11.6105 7.43 11.9105 7.47 12.4705L7.5 12.7305C7.58 13.4005 7.62001 13.7605 7.76001 14.0105C7.88001 14.2405 8.10999 14.4905 8.32999 14.6205C8.57999 14.7705 8.92999 14.8205 9.70999 14.9205C11.35 15.1305 12.68 15.1305 14.25 14.9305C15.14 14.8205 15.46 14.7705 15.72 14.6105C15.94 14.4705 16.17 14.2205 16.29 13.9805C16.45 13.6805 16.49 13.2305 16.56 12.4805C16.6 11.9405 16.62 11.6705 16.71 11.4205C16.86 10.9705 17.11 10.6405 17.48 10.3805C17.59 10.3005 17.71 10.2405 17.88 10.1705C19.72 9.60052 20.52 8.91052 20.52 8.49052L21.27 8.44052H20.52C20.52 7.48052 17.12 6.03052 12.02 6.03052H12.01Z" fill="black"/>
</svg>