<svg width="24" height="25" viewBox="0 0 24 25" fill="none" xmlns="http://www.w3.org/2000/svg">
<path d="M10.6444 6.42122C14.8662 6.42122 18.2887 9.84372 18.2887 14.0656C18.2887 18.2875 14.8662 21.71 10.6444 21.71C6.4225 21.71 3 18.2875 3 14.0656C3 9.84372 6.4225 6.42122 10.6444 6.42122Z" stroke="black" stroke-width="1.5" stroke-linecap="round" stroke-linejoin="round"/>
<path d="M14.0404 20.9143C14.7198 19.5331 15.0718 18.0139 15.0689 16.4747C15.068 14.3342 14.3847 12.2499 13.1182 10.5243C11.8517 8.79876 10.0681 7.52195 8.02637 6.87935" stroke="black" stroke-width="1.5" stroke-linecap="round" stroke-linejoin="round"/>
<path d="M10.2693 21.7012C10.9558 21.0166 11.4995 20.2025 11.869 19.3062C12.2384 18.4099 12.4263 17.4491 12.4217 16.4797C12.4218 15.5064 12.2302 14.5426 11.8579 13.6434C11.4855 12.7442 10.9396 11.9271 10.2514 11.2389C9.56326 10.5506 8.74625 10.0047 7.84707 9.63218C6.94788 9.25969 5.98414 9.06798 5.01086 9.06798C4.95906 9.06798 4.90726 9.06798 4.85547 9.06798" stroke="black" stroke-width="1.5" stroke-linecap="round" stroke-linejoin="round"/>
<path d="M7.02366 20.7998C8.13136 20.2671 8.9906 19.3273 9.4221 18.1764C9.8536 17.0255 9.82403 15.7525 9.33956 14.6228C8.85509 13.4932 7.95314 12.5943 6.8219 12.1136C5.69066 11.633 4.4175 11.6077 3.26807 12.0431" stroke="black" stroke-width="1.5" stroke-linecap="round" stroke-linejoin="round"/>
<path d="M17.9839 16.2075C17.0757 14.9569 15.8927 13.9314 14.5259 13.21" stroke="black" stroke-width="1.5" stroke-linecap="round" stroke-linejoin="round"/>
<path d="M8.4482 13.337C6.53312 13.8174 4.76906 14.7704 3.31738 16.1086" stroke="black" stroke-width="1.5" stroke-linecap="round" stroke-linejoin="round"/>
<path d="M9.67535 16.0008C8.67816 16.055 7.70507 16.3276 6.82492 16.7995C5.94478 17.2714 5.17909 17.9309 4.58203 18.7314" stroke="black" stroke-width="1.5" stroke-linecap="round" stroke-linejoin="round"/>
<path d="M14.0059 7.19859C13.0972 7.57959 12.2493 8.09175 11.4893 8.71875" stroke="black" stroke-width="1.5" stroke-linecap="round" stroke-linejoin="round"/>
<path d="M16.5298 9.1913C15.3252 9.41287 14.1949 9.93141 13.2412 10.7" stroke="black" stroke-width="1.5" stroke-linecap="round" stroke-linejoin="round"/>
<path d="M17.8848 11.7146C17.2546 11.7136 16.6305 11.8381 16.049 12.0809C15.4674 12.3237 14.94 12.6799 14.4976 13.1287" stroke="black" stroke-width="1.5" stroke-linecap="round" stroke-linejoin="round"/>
<path d="M16.3176 9.11981C18.2632 9.52622 20.3124 8.50253 21.1098 7.17278C21.962 5.75142 20.8244 3.63489 18.1376 4.41085C14.0615 5.58806 13.6761 2.92844 10.6563 2.8917C8.31679 2.86323 7.83448 5.77267 4.49268 3.54802" stroke="black" stroke-width="1.5" stroke-linecap="round" stroke-linejoin="round"/>
</svg>