<svg width="24" height="25" viewBox="0 0 24 25" fill="none" xmlns="http://www.w3.org/2000/svg">
<path d="M20.968 13.8379L3.01611 13.8379" stroke="black" stroke-width="1.5" stroke-linecap="round" stroke-linejoin="round"/>
<path d="M8.92824 7.17864L8.92822 5.64207C8.92821 4.79343 9.61617 4.10547 10.4648 4.10547H13.538C14.3866 4.10547 15.0746 4.79341 15.0746 5.64204L15.0746 7.17864" stroke="black" stroke-width="1.5" stroke-linecap="round" stroke-linejoin="round"/>
<path d="M12.0015 7.17896L12.0015 13.8375" stroke="black" stroke-width="1.5" stroke-linecap="round" stroke-linejoin="round"/>
<path d="M15.6851 7.17896L16.7034 13.8375" stroke="black" stroke-width="1.5" stroke-linecap="round" stroke-linejoin="round"/>
<path d="M8.31787 7.17896L7.29948 13.8375" stroke="black" stroke-width="1.5" stroke-linecap="round" stroke-linejoin="round"/>
<path d="M17.5802 7.17896C18.4796 7.17896 19.2739 7.76557 19.5384 8.62522L20.8641 12.9337C21.0453 13.5226 21.0453 14.1524 20.8641 14.7413L19.5384 19.0498C19.2739 19.9094 18.4796 20.4961 17.5802 20.4961H6.41978C5.52035 20.4961 4.7261 19.9094 4.46159 19.0498L3.1359 14.7413C2.9547 14.1524 2.9547 13.5226 3.1359 12.9337L4.46159 8.62522C4.7261 7.76557 5.52035 7.17896 6.41978 7.17896H17.5802Z" stroke="black" stroke-width="1.5" stroke-linecap="round" stroke-linejoin="round"/>
</svg>