<svg width="24" height="25" viewBox="0 0 24 25" fill="none" xmlns="http://www.w3.org/2000/svg">
<path d="M21.25 19.2419C20.1925 16.8396 18.549 15.9226 16.7911 15.2198C15.9146 14.8693 15.1952 14.0974 15.1952 13.1534V11.8603C15.1952 7.58282 12.5017 4.43662 8.88195 2.93798V5.77051C7.14173 5.77051 5.66328 6.22596 4.93161 8.0059C4.50958 9.03261 3.81372 9.5789 2.7994 9.5789C2.52339 10.6966 3.40763 13.0418 5.35979 13.0418C6.82953 13.0418 8.09529 14.2784 7.78821 16.0167C7.4213 18.0938 7.22622 19.7583 7.15351 21.2162C8.80007 21.1863 12.7136 20.536 15.1952 18.1732" stroke="black" stroke-width="1.5" stroke-linecap="round" stroke-linejoin="round"/>
<path d="M8.27734 9.08643V9.10131" stroke="black" stroke-width="1.5" stroke-linecap="round" stroke-linejoin="round"/>
</svg>