<svg width="24" height="25" viewBox="0 0 24 25" fill="none" xmlns="http://www.w3.org/2000/svg">
<path d="M8.46997 7.97192C8.05997 7.97192 7.71997 7.63192 7.71997 7.22192C7.71997 6.81192 8.05997 6.47192 8.46997 6.47192C8.87997 6.47192 9.21997 6.80192 9.21997 7.22192C9.21997 7.64192 8.87997 7.98193 8.46997 7.98193V7.97192Z" fill="black"/>
<path d="M16.0801 15.1116C15.6701 15.1116 15.3301 14.7716 15.3301 14.3616C15.3301 13.9516 15.6701 13.6116 16.0801 13.6116C16.4901 13.6116 16.8301 13.9416 16.8301 14.3616C16.8301 14.7816 16.4901 15.1215 16.0801 15.1215V15.1116Z" fill="black"/>
<path d="M7.65001 19.5718C7.52001 19.5718 7.38001 19.5318 7.26001 19.4618C6.91001 19.2418 6.79001 18.7818 7.01001 18.4318C7.85001 17.0518 8.06001 13.9218 7.88001 12.3218C7.40001 12.4118 6.69001 12.5118 5.62001 12.6318C4.78001 12.7318 4.03001 12.5018 3.43001 11.9818C2.13001 10.8518 2.02001 8.77179 2.01001 8.37179C2.01001 8.06179 2.18001 7.78183 2.47001 7.66183L5.44001 6.40182C5.47001 5.97182 5.60001 5.39184 6.02001 4.86184C6.38001 4.40184 7.09001 3.84179 8.41001 3.75179L10 3.62179C11.52 3.49179 14.26 3.83181 15.3 7.64181C15.41 8.04181 15.17 8.45179 14.77 8.56179C14.37 8.67179 13.96 8.43182 13.85 8.03182C13.28 5.93182 12.02 4.95184 10.12 5.11184L8.51001 5.24184C7.89001 5.28184 7.44001 5.46182 7.19001 5.78182C6.94001 6.09182 6.90001 6.5018 6.94001 6.7618C6.99001 7.1018 6.81001 7.4318 6.49001 7.5718L3.54001 8.8218C3.64001 9.5818 3.92001 10.4218 4.41001 10.8418C4.69001 11.0918 5.02001 11.1818 5.44001 11.1318C7.42001 10.9018 8.01001 10.7518 8.11001 10.7218C8.28001 10.6318 8.48001 10.6218 8.67001 10.6718C8.90001 10.7418 9.08001 10.9218 9.16001 11.1518C9.63001 12.6018 9.53001 17.1518 8.28001 19.1918C8.14001 19.4218 7.89001 19.5518 7.64001 19.5518L7.65001 19.5718ZM10.94 12.6418C10.59 12.6418 10.28 12.3918 10.21 12.0418C9.90001 10.5218 10.17 8.77182 10.3 8.09182C10.38 7.68182 10.77 7.42184 11.18 7.49184C11.59 7.57184 11.85 7.96179 11.78 8.37179C11.69 8.83179 11.43 10.4518 11.69 11.7518C11.77 12.1618 11.51 12.5518 11.1 12.6318C11.05 12.6318 11 12.6418 10.95 12.6418H10.94Z" fill="black"/>
<path d="M20.99 20.9915C20.99 20.9915 20.91 20.9915 20.87 20.9915C20.46 20.9315 20.18 20.5415 20.25 20.1315C20.51 18.5115 20.51 16.6215 20.51 16.6015C20.51 14.1715 19.18 11.4915 17.31 10.9115V11.9115C17.31 12.3215 16.97 12.6615 16.56 12.6615C15.41 12.6615 14.69 13.0915 14.31 14.0215C13.93 14.9515 13.34 15.3715 12.77 15.5515C12.81 15.7415 12.9 15.9615 13.03 16.1515C13.19 16.3915 13.49 16.7015 13.97 16.7715C15.61 17.0215 16.43 17.9615 16.49 19.6715C16.5 20.0815 16.18 20.4315 15.77 20.4515C15.37 20.4515 15.01 20.1415 14.99 19.7315C14.96 18.7515 14.65 18.3915 13.75 18.2615C12.95 18.1415 12.25 17.6915 11.78 16.9915C11.32 16.3015 11.13 15.4115 11.29 14.7315C11.37 14.4015 11.67 14.1615 12.02 14.1615C12.33 14.1615 12.66 14.0715 12.91 13.4515C13.43 12.1815 14.42 11.4115 15.79 11.2115V10.0515C15.79 9.64151 16.13 9.30151 16.54 9.30151C19.75 9.30151 21.99 13.1515 21.99 16.6015C21.99 16.6815 21.99 18.6315 21.71 20.3715C21.65 20.7415 21.33 21.0015 20.97 21.0015L20.99 20.9915Z" fill="black"/>
</svg>