<svg width="24" height="25" viewBox="0 0 24 25" fill="none" xmlns="http://www.w3.org/2000/svg">
<path d="M12 21.3008C7.02944 21.3008 3 17.2713 3 12.3008C3 7.33022 7.02944 3.30078 12 3.30078C16.9706 3.30078 21 7.33022 21 12.3008C21 17.2713 16.9706 21.3008 12 21.3008Z" stroke="black" stroke-width="1.5" stroke-linecap="round" stroke-linejoin="round"/>
<path d="M17.0717 15.9119C16.6511 15.6136 16.1945 15.4015 15.7249 15.2137C15.1758 14.9942 14.7252 14.5107 14.7252 13.9194V13.1093C14.7252 10.43 13.0381 8.45924 10.7707 7.52051V9.29477C9.68062 9.29477 8.75453 9.58007 8.29623 10.695C8.03187 11.3381 7.59599 11.6803 6.96063 11.6803C6.78774 12.3804 7.34162 13.8494 8.56444 13.8494C9.48506 13.8494 10.2779 14.6241 10.0856 15.7129C9.99893 16.2034 9.92758 16.6572 9.86986 17.0812" stroke="black" stroke-width="1.5" stroke-linecap="round" stroke-linejoin="round"/>
<path d="M10.9707 11.5918V11.599" stroke="black" stroke-width="1.5" stroke-linecap="round" stroke-linejoin="round"/>
</svg>