<svg width="24" height="25" viewBox="0 0 24 25" fill="none" xmlns="http://www.w3.org/2000/svg">
<path fill-rule="evenodd" clip-rule="evenodd" d="M7.01999 9.80435C7.14999 9.90436 7.30002 9.94437 7.45001 9.94437L7.45999 9.95436C7.69 9.95436 7.92001 9.84436 8.07001 9.63435C8.39001 9.17436 8.83002 8.63435 9.34 8.09436C10.54 9.11436 12.03 9.99435 13.59 9.93436C15.03 9.87436 16.25 9.04436 17.21 7.44437C17.35 7.20436 17.35 6.91435 17.21 6.67436C16.26 5.07436 15.04 4.24435 13.59 4.18436C12.03 4.12436 10.53 5.00436 9.34 6.02435C8.83002 5.48436 8.39001 4.93436 8.07001 4.48436C7.82001 4.14436 7.35999 4.06436 7.01999 4.30435C6.67999 4.54436 6.60001 5.01436 6.84 5.35435C7.04001 5.63435 7.54001 6.30435 8.25 7.05435C7.54001 7.80435 7.04001 8.47436 6.84 8.75436C6.60001 9.09436 6.67999 9.56436 7.01999 9.80435ZM13.51 8.43436C12.49 8.47436 11.4 7.86436 10.43 7.05435C11.4 6.24435 12.49 5.61436 13.51 5.67436C14.32 5.71436 15.02 6.16435 15.65 7.05435C15.03 7.95436 14.32 8.40436 13.51 8.43436Z" fill="black"/>
<path fill-rule="evenodd" clip-rule="evenodd" d="M4.03937 20.4346C4.01306 20.4359 3.98651 20.436 3.95975 20.4346H3C2.59 20.4346 2.25 20.0946 2.25 19.6846C2.25 19.2746 2.59 18.9346 3 18.9346H3.36859L4.00995 15.2746C4.19995 13.9546 5.36993 12.9346 6.72995 12.9346H17.2599C18.6199 12.9346 19.7899 13.9446 19.9799 15.2946L20.6208 18.9346H21C21.41 18.9346 21.75 19.2746 21.75 19.6846C21.75 20.0946 21.41 20.4346 21 20.4346H4.03937ZM18.5099 15.5346L19.1057 18.9346H4.89511L5.49994 15.5046C5.58994 14.8946 6.11993 14.4346 6.73993 14.4346H17.2699C17.8899 14.4346 18.42 14.8946 18.5099 15.5346Z" fill="black"/>
</svg>