<svg width="24" height="25" viewBox="0 0 24 25" fill="none" xmlns="http://www.w3.org/2000/svg">
<path d="M7.15574 22.1951C6.95574 22.1951 6.75574 22.1151 6.61574 21.9651C6.47574 21.8151 6.39574 21.6151 6.40574 21.4051C6.48574 19.8651 6.69574 18.1351 7.05574 16.1151C7.18574 15.3851 6.93574 14.9051 6.70574 14.6251C6.38574 14.2351 5.89574 14.0151 5.36574 14.0151C4.40574 14.0151 3.52574 13.5751 2.89574 12.7651C2.18574 11.8551 1.84574 10.5651 2.07574 9.62514C2.15574 9.29514 2.45574 9.05513 2.80574 9.05513C3.26574 9.05513 3.83574 8.92515 4.24574 7.94515C5.12574 5.80515 6.97574 5.36512 8.13574 5.26512V3.15514C8.13574 2.90514 8.25574 2.67513 8.46574 2.53513C8.67574 2.39513 8.93574 2.36514 9.16574 2.46514C12.7357 3.94514 15.1457 6.76514 15.7757 10.2151C15.8457 10.6251 15.5757 11.0151 15.1757 11.0851C14.7657 11.1551 14.3757 10.8851 14.3057 10.4851C13.8357 7.88513 12.1557 5.69514 9.63574 4.34514V5.99514C9.63574 6.40514 9.29574 6.74514 8.88574 6.74514C7.08574 6.74514 6.14574 7.25512 5.62574 8.51512C5.10574 9.78512 4.27574 10.2951 3.51574 10.4751C3.56574 10.8951 3.74574 11.4251 4.07574 11.8351C4.42574 12.2851 4.86574 12.5151 5.36574 12.5151C6.33574 12.5151 7.24574 12.9351 7.85574 13.6551C8.47574 14.3851 8.71574 15.3551 8.53574 16.3651C8.25574 17.9651 8.06574 19.3651 7.96574 20.6251C8.69574 20.5451 9.62574 20.3751 10.5957 20.0851C10.9857 19.9651 11.4057 20.1851 11.5357 20.5851C11.6657 20.9851 11.4357 21.4051 11.0357 21.5251C9.11574 22.1051 7.59574 22.1751 7.18574 22.1851H7.17574L7.15574 22.1951Z" fill="black"/>
<path d="M8.27539 10.0754C7.86539 10.0754 7.52539 9.73541 7.52539 9.32541C7.52539 8.91541 7.86539 8.56543 8.27539 8.56543C8.68539 8.56543 9.02539 8.89542 9.02539 9.30542C9.02539 9.73542 8.68539 10.0654 8.27539 10.0654V10.0754Z" fill="black"/>
<path d="M18.5157 22.1949H16.5357C15.8157 22.1949 15.2257 21.6049 15.2257 20.8849V20.0249H14.3657C13.6457 20.0249 13.0557 19.4349 13.0557 18.7149V16.7349C13.0557 16.0149 13.6457 15.4249 14.3657 15.4249H15.2257V14.5649C15.2257 13.8449 15.8157 13.2549 16.5357 13.2549H18.5157C19.2357 13.2549 19.8257 13.8449 19.8257 14.5649V15.4249H20.6857C21.4057 15.4249 21.9957 16.0149 21.9957 16.7349V18.7149C21.9957 19.4349 21.4057 20.0249 20.6857 20.0249H19.8257V20.8849C19.8257 21.6049 19.2357 22.1949 18.5157 22.1949ZM16.7257 20.6949H18.3357V19.2749C18.3357 18.8649 18.6757 18.5249 19.0857 18.5249H20.5057V16.9149H19.0857C18.6757 16.9149 18.3357 16.5749 18.3357 16.1649V14.7449H16.7257V16.1649C16.7257 16.5749 16.3857 16.9149 15.9757 16.9149H14.5557V18.5249H15.9757C16.3857 18.5249 16.7257 18.8649 16.7257 19.2749V20.6949Z" fill="black"/>
</svg>