<svg width="25" height="24" viewBox="0 0 25 24" fill="none" xmlns="http://www.w3.org/2000/svg">
<path opacity="0.4" d="M18.4932 12.7152L15.5829 14.4212C14.7839 14.8892 13.8879 15.1232 12.9919 15.1232C12.0959 15.1232 11.1999 14.8892 10.3999 14.4212L7.44905 12.6914L5.33439 14.0985C4.72839 14.5025 4.37839 15.1785 4.40039 15.9065C4.42139 16.6345 4.80839 17.2885 5.43639 17.6555L11.1304 20.9935C11.7044 21.3305 12.3474 21.4985 12.9904 21.4985C13.6334 21.4985 14.2764 21.3305 14.8494 20.9935L20.5244 17.6675C21.1564 17.2975 21.5434 16.6395 21.5614 15.9085C21.5794 15.1775 21.2254 14.5015 20.6134 14.1005L18.4932 12.7152Z" fill="black"/>
<path d="M11.1318 13.1278C11.7058 13.4638 12.3488 13.6328 12.9918 13.6328C13.6358 13.6328 14.2788 13.4638 14.8518 13.1278L20.3958 9.87784C21.0468 9.49784 21.4348 8.82084 21.4348 8.06684C21.4348 7.31384 21.0468 6.63684 20.3968 6.25584L14.8518 3.00484L14.8508 3.00384C13.7048 2.33384 12.2798 2.33384 11.1318 3.00484L5.58683 6.25584C4.93683 6.63684 4.54883 7.31384 4.54883 8.06684C4.54983 8.81984 4.93683 9.49784 5.58683 9.87784L11.1318 13.1278Z" fill="black"/>
</svg>