<svg width="25" height="24" viewBox="0 0 25 24" fill="none" xmlns="http://www.w3.org/2000/svg">
<path d="M10.5388 6.64685C10.5388 8.65818 8.90831 10.2887 6.89697 10.2887C4.88564 10.2887 3.25513 8.65818 3.25513 6.64685C3.25513 4.63551 4.88564 3.005 6.89697 3.005C8.90831 3.005 10.5388 4.63551 10.5388 6.64685Z" fill="black"/>
<path d="M21.245 17.3531C21.245 19.3644 19.6145 20.9949 17.6032 20.9949C15.5918 20.9949 13.9613 19.3644 13.9613 17.3531C13.9613 15.3418 15.5918 13.7112 17.6032 13.7112C19.6145 13.7112 21.245 15.3418 21.245 17.3531Z" fill="black"/>
<g opacity="0.4">
<path d="M21.245 6.64685C21.245 8.65818 19.6145 10.2887 17.6032 10.2887C15.5918 10.2887 13.9613 8.65818 13.9613 6.64685C13.9613 4.63551 15.5918 3.005 17.6032 3.005C19.6145 3.005 21.245 4.63551 21.245 6.64685Z" fill="black"/>
<path d="M10.5388 17.3531C10.5388 19.3644 8.90831 20.9949 6.89697 20.9949C4.88564 20.9949 3.25513 19.3644 3.25513 17.3531C3.25513 15.3418 4.88564 13.7112 6.89697 13.7112C8.90831 13.7112 10.5388 15.3418 10.5388 17.3531Z" fill="black"/>
</g>
</svg>