<svg width="25" height="24" viewBox="0 0 25 24" fill="none" xmlns="http://www.w3.org/2000/svg">
<path fill-rule="evenodd" clip-rule="evenodd" d="M8.56977 5.17635C8.00213 4.57598 7.10013 4.57598 6.53249 5.17635C5.9423 5.80056 5.9423 6.82908 6.53249 7.45329C7.10013 8.05366 8.00213 8.05366 8.56977 7.45329C8.85435 7.15231 9.32904 7.13901 9.63002 7.42359C9.931 7.70817 9.9443 8.18285 9.65972 8.48383C8.50024 9.71014 6.60202 9.71014 5.44254 8.48383C4.30561 7.28137 4.30561 5.34827 5.44254 4.1458C6.60202 2.9195 8.50024 2.9195 9.65972 4.1458C9.9443 4.44678 9.931 4.92147 9.63002 5.20605C9.32904 5.49063 8.85435 5.47733 8.56977 5.17635Z" fill="black"/>
<path fill-rule="evenodd" clip-rule="evenodd" d="M3.06543 3.15603C3.06543 2.65588 3.4708 2.25 3.97143 2.25C4.47146 2.25 4.87752 2.65529 4.87752 3.15603C4.87752 3.65678 4.47146 4.06207 3.97143 4.06207C3.47079 4.06207 3.06543 3.65618 3.06543 3.15603Z" fill="black"/>
<path fill-rule="evenodd" clip-rule="evenodd" d="M17.8522 8.97363C16.8344 8.97363 15.942 9.51395 15.4475 10.3268C15.2322 10.6807 14.7708 10.793 14.4169 10.5778C14.0631 10.3625 13.9507 9.90109 14.166 9.54722C14.9213 8.3057 16.2892 7.47363 17.8522 7.47363C20.2337 7.47363 22.1635 9.40429 22.1635 11.7849C22.1635 13.2769 21.4054 14.5915 20.2566 15.3646C19.913 15.5959 19.4469 15.5048 19.2157 15.1611C18.9844 14.8175 19.0755 14.3514 19.4191 14.1202C20.1713 13.614 20.6635 12.7569 20.6635 11.7849C20.6635 10.2325 19.4051 8.97363 17.8522 8.97363Z" fill="black"/>
<path fill-rule="evenodd" clip-rule="evenodd" d="M9.27246 10.8202C10.0615 9.77754 11.3257 8.94385 13.1413 8.94385C14.9568 8.94385 16.2212 9.77751 17.0104 10.8202C17.5862 11.5808 17.913 12.4549 18.0399 13.2071C18.921 13.3372 19.7316 13.7074 20.3643 14.3111C21.1636 15.0738 21.6282 16.1616 21.6282 17.4634C21.6282 19.2103 20.5914 20.7198 19.096 21.3956C19.0861 21.4001 19.0762 21.4043 19.0661 21.4083C18.4453 21.657 17.8306 21.7499 17.3485 21.7499H8.92901C8.44285 21.7499 7.82902 21.6514 7.2167 21.4029C7.20768 21.3993 7.19874 21.3954 7.18986 21.3914C5.6966 20.7166 4.6543 19.2125 4.6543 17.4634C4.6543 16.1615 5.11928 15.0737 5.91876 14.311C6.55156 13.7073 7.36227 13.3372 8.24348 13.2071C8.37023 12.455 8.69683 11.5809 9.27246 10.8202ZM10.4686 11.7254C9.90686 12.4677 9.68152 13.3601 9.68152 13.9044C9.68152 14.316 9.34984 14.6507 8.93827 14.6544C8.12821 14.6617 7.43707 14.9357 6.95414 15.3964C6.47765 15.8509 6.1543 16.5338 6.1543 17.4634C6.1543 18.5966 6.82558 19.5746 7.79436 20.0185C8.21623 20.1874 8.63212 20.2499 8.92901 20.2499H17.3485C17.6491 20.2499 18.0668 20.1902 18.493 20.022C19.4589 19.5787 20.1282 18.5982 20.1282 17.4634C20.1282 16.5337 19.805 15.8508 19.3287 15.3963C18.846 14.9356 18.1551 14.6617 17.3451 14.6544C16.9335 14.6507 16.6019 14.316 16.6019 13.9044C16.6019 13.3603 16.3764 12.4678 15.8144 11.7255C15.2757 11.0137 14.4348 10.4438 13.1413 10.4438C11.8478 10.4438 11.0072 11.0137 10.4686 11.7254Z" fill="black"/>
</svg>