<svg width="25" height="24" viewBox="0 0 25 24" fill="none" xmlns="http://www.w3.org/2000/svg">
<path fill-rule="evenodd" clip-rule="evenodd" d="M14.2061 2.67663C14.2061 2.6766 14.2062 2.67666 14.2061 2.67663L19.8922 5.95846C20.8775 6.52751 21.4845 7.57998 21.4845 8.71749V15.2823C21.4845 16.4202 20.8774 17.4714 19.8923 18.0403L14.2061 21.3232C14.2061 21.3232 14.2061 21.3232 14.2061 21.3232C13.221 21.8921 12.0067 21.8921 11.0216 21.3232C11.0216 21.3232 11.0216 21.3232 11.0216 21.3232L5.33539 18.0403C4.35034 17.4714 3.74316 16.4202 3.74316 15.2823V8.71749C3.74316 7.57998 4.34997 6.52761 5.3353 5.95856L11.0215 2.67663C11.0215 2.67666 11.0216 2.6766 11.0215 2.67663C12.0066 2.10779 13.221 2.10779 14.2061 2.67663ZM13.456 3.97557C12.9349 3.67468 12.2927 3.67468 11.7717 3.97557L6.08547 7.2575C6.08541 7.25753 6.08552 7.25747 6.08547 7.2575C5.5647 7.55833 5.24316 8.11535 5.24316 8.71749V15.2823C5.24316 15.8842 5.56428 16.4403 6.08538 16.7413C6.08535 16.7413 6.08541 16.7413 6.08538 16.7413L11.7716 20.0242C12.2926 20.3251 12.9349 20.3251 13.456 20.0242L19.1422 16.7413C19.1421 16.7414 19.1422 16.7413 19.1422 16.7413C19.6633 16.4403 19.9845 15.8842 19.9845 15.2823V8.71749C19.9845 8.11528 19.663 7.55831 19.1422 7.2575L13.456 3.97557Z" fill="black"/>
<path fill-rule="evenodd" clip-rule="evenodd" d="M15.6103 11.0125C14.6405 10.0427 13.0682 10.0427 12.0984 11.0125C11.1286 11.9823 11.1286 13.5546 12.0984 14.5244C13.0682 15.4942 14.6405 15.4942 15.6103 14.5244C15.9032 14.2315 16.3781 14.2315 16.671 14.5244C16.9639 14.8173 16.9639 15.2921 16.671 15.585C15.1154 17.1406 12.5933 17.1406 11.0378 15.585C9.4822 14.0295 9.4822 11.5074 11.0378 9.95183C12.5933 8.39626 15.1154 8.39626 16.671 9.95183C16.9639 10.2447 16.9639 10.7196 16.671 11.0125C16.3781 11.3054 15.9032 11.3054 15.6103 11.0125Z" fill="black"/>
<path fill-rule="evenodd" clip-rule="evenodd" d="M7.96094 8.50669C7.96094 7.98466 8.38403 7.56104 8.90654 7.56104C9.42845 7.56104 9.85227 7.98406 9.85227 8.50669C9.85227 9.02931 9.42846 9.45234 8.90654 9.45234C8.38403 9.45234 7.96094 9.02872 7.96094 8.50669Z" fill="black"/>
</svg>