<svg width="25" height="24" viewBox="0 0 25 24" fill="none" xmlns="http://www.w3.org/2000/svg">
<path opacity="0.4" fill-rule="evenodd" clip-rule="evenodd" d="M17.3301 21H6.89888C5.06385 21 3.57715 19.5123 3.57715 17.6783V10.5045C3.57715 9.6133 3.97801 8.76973 4.66882 8.20638L10.243 3.66551C11.3327 2.77816 12.8963 2.77816 13.986 3.66551L19.5602 8.20638C20.251 8.76973 20.6519 9.6133 20.6519 10.5045V17.6783C20.6519 19.5123 19.1651 21 17.3301 21Z" stroke="black" stroke-width="1.5" stroke-linecap="round" stroke-linejoin="round"/>
<path d="M15.8301 16.4746C14.5674 17.7373 12.5202 17.7373 11.2576 16.4746C9.99488 15.212 9.99488 13.1648 11.2576 11.9021C12.5202 10.6394 14.5674 10.6394 15.8301 11.9021" stroke="black" stroke-width="1.5" stroke-linecap="round" stroke-linejoin="round"/>
<path d="M8.60182 9.91678V9.96479M8.79062 9.9271C8.79062 10.0352 8.70295 10.1228 8.5949 10.1228C8.48684 10.1228 8.39929 10.0352 8.39929 9.9271C8.39929 9.81904 8.48684 9.73145 8.5949 9.73145C8.70295 9.73145 8.79062 9.81904 8.79062 9.9271Z" stroke="black" stroke-width="1.5" stroke-linecap="round" stroke-linejoin="round"/>
</svg>