<svg width="25" height="24" viewBox="0 0 25 24" fill="none" xmlns="http://www.w3.org/2000/svg">
<path opacity="0.4" d="M8.61475 7.96856C7.75119 8.8819 6.35108 8.8819 5.48751 7.96856C4.62395 7.05522 4.62395 5.57441 5.48751 4.66108C6.35108 3.74774 7.75118 3.74774 8.61475 4.66108" stroke="black" stroke-width="1.5" stroke-linecap="round" stroke-linejoin="round"/>
<path d="M3.47695 3.14781V3.18609M3.62752 3.15603C3.62752 3.24221 3.5576 3.31207 3.47143 3.31207C3.38525 3.31207 3.31543 3.24221 3.31543 3.15603C3.31543 3.06986 3.38525 3 3.47143 3C3.5576 3 3.62752 3.06986 3.62752 3.15603Z" stroke="black" stroke-width="1.5" stroke-linecap="round" stroke-linejoin="round"/>
<path opacity="0.4" d="M14.3066 9.93702C14.9315 8.90983 16.0617 8.22363 17.3521 8.22363C19.3193 8.22363 20.9134 9.81841 20.9134 11.7849C20.9134 13.0169 20.2882 14.1028 19.3378 14.7424" stroke="black" stroke-width="1.5" stroke-linecap="round" stroke-linejoin="round"/>
<path fill-rule="evenodd" clip-rule="evenodd" d="M8.43152 13.9044C6.48097 13.922 4.9043 15.2318 4.9043 17.4634C4.9043 18.9071 5.76415 20.1501 6.99872 20.708C7.51814 20.9187 8.03589 20.9999 8.42901 20.9999H16.8485C17.2416 20.9999 17.7611 20.9229 18.2872 20.7121C19.5217 20.1542 20.3782 18.9071 20.3782 17.4634C20.3782 15.2318 18.8024 13.922 16.8519 13.9044C16.8519 12.5009 15.7503 9.69385 12.6413 9.69385C9.53226 9.69385 8.43152 12.5009 8.43152 13.9044Z" stroke="black" stroke-width="1.5" stroke-linecap="round" stroke-linejoin="round"/>
</svg>