<svg width="24" height="25" viewBox="0 0 24 25" fill="none" xmlns="http://www.w3.org/2000/svg">
<path fill-rule="evenodd" clip-rule="evenodd" d="M12.0008 9.64924L12.5148 10.6764L12.5155 10.6777C12.6995 11.0437 13.0512 11.2947 13.4546 11.3519C13.4552 11.352 13.4557 11.352 13.4563 11.3521L14.5862 11.5148L13.7757 12.2936C13.4777 12.5782 13.3407 12.9928 13.4124 13.4002C13.4124 13.4005 13.4125 13.4008 13.4125 13.4012L13.6064 14.5123L12.5781 13.9792C12.2165 13.7924 11.7863 13.792 11.4247 13.9788L10.3951 14.5124L10.5893 13.3997C10.5892 13.3997 10.5893 13.3996 10.5893 13.3997C10.6602 12.993 10.5233 12.5787 10.2261 12.2942C10.2258 12.294 10.2256 12.2937 10.2253 12.2934L9.41446 11.5152L10.5457 11.3523C10.9494 11.2951 11.3003 11.044 11.4845 10.6796L12.0008 9.64924ZM12.5762 7.98256C11.963 7.66526 11.208 7.90421 10.8899 8.51815L10.2044 9.88597L8.68173 10.1052C8.40623 10.1429 8.15052 10.2721 7.95674 10.473C7.48155 10.9667 7.49682 11.7514 7.98881 12.226L7.99017 12.2273L9.0874 13.2804L8.82844 14.765L8.82704 14.7733C8.78311 15.043 8.82951 15.3172 8.95528 15.5556L8.95625 15.5575C9.27825 16.1639 10.0301 16.396 10.6378 16.0762L12.001 15.3696L13.3635 16.0759C13.6017 16.2011 13.874 16.2461 14.1403 16.2037L14.1418 16.2035C14.8209 16.094 15.2844 15.4549 15.1747 14.7741L14.914 13.28L16.0114 12.2256C16.2134 12.0308 16.3431 11.7733 16.3799 11.4961L16.38 11.495C16.4687 10.8195 15.9955 10.1968 15.3182 10.1048L13.7964 9.88564L13.1168 8.52754L13.1122 8.51843C12.9935 8.28912 12.8067 8.10158 12.5762 7.98256ZM14.8896 13.1401C14.8897 13.1406 14.8898 13.1412 14.8899 13.1417L14.8896 13.1401ZM10.3329 9.86746C10.3326 9.86751 10.3332 9.86742 10.3329 9.86746V9.86746Z" fill="black"/>
<path fill-rule="evenodd" clip-rule="evenodd" d="M12.0002 17.7146C12.4145 17.7146 12.7502 18.0504 12.7502 18.4646V21.3918C12.7502 21.806 12.4145 22.1418 12.0002 22.1418C11.586 22.1418 11.2502 21.806 11.2502 21.3918V18.4646C11.2502 18.0504 11.586 17.7146 12.0002 17.7146Z" fill="black"/>
<path fill-rule="evenodd" clip-rule="evenodd" d="M12.0002 3.23267C12.4145 3.23267 12.7502 3.56845 12.7502 3.98267V3.99137C12.7502 4.40558 12.4145 4.74137 12.0002 4.74137C11.586 4.74137 11.2502 4.40558 11.2502 3.99137V3.98267C11.2502 3.56845 11.586 3.23267 12.0002 3.23267Z" fill="black"/>
<path fill-rule="evenodd" clip-rule="evenodd" d="M21.0309 3.14838C21.3204 3.4446 21.315 3.91945 21.0187 4.20897L16.4854 8.63975C16.1892 8.92927 15.7143 8.92384 15.4248 8.62762C15.1353 8.33139 15.1407 7.85655 15.437 7.56702L19.9703 3.13625C20.2665 2.84672 20.7413 2.85215 21.0309 3.14838Z" fill="black"/>
<path fill-rule="evenodd" clip-rule="evenodd" d="M15.6846 2.78054C16.0613 2.95283 16.227 3.39786 16.0547 3.77454L14.8424 6.42491C14.6702 6.8016 14.2251 6.96729 13.8484 6.795C13.4718 6.62272 13.3061 6.17769 13.4784 5.80101L14.6906 3.15063C14.8629 2.77395 15.3079 2.60825 15.6846 2.78054Z" fill="black"/>
<path fill-rule="evenodd" clip-rule="evenodd" d="M21.6966 8.31577C21.8494 8.70075 21.6612 9.13674 21.2762 9.28957L19.1578 10.1305C18.7728 10.2833 18.3368 10.0951 18.184 9.71014C18.0312 9.32515 18.2194 8.88917 18.6044 8.73634L20.7228 7.8954C21.1078 7.74257 21.5438 7.93078 21.6966 8.31577Z" fill="black"/>
<path fill-rule="evenodd" clip-rule="evenodd" d="M16.6701 14.4232C16.8381 14.0445 17.2812 13.8737 17.6598 14.0416L21.241 15.63C21.6196 15.798 21.7904 16.2411 21.6225 16.6197C21.4546 16.9984 21.0115 17.1692 20.6328 17.0012L17.0516 15.4128C16.673 15.2449 16.5022 14.8018 16.6701 14.4232Z" fill="black"/>
<path fill-rule="evenodd" clip-rule="evenodd" d="M16.8282 17.3089C17.1227 17.0176 17.5976 17.0201 17.8889 17.3146L20.8161 20.2735C21.1074 20.568 21.1049 21.0428 20.8104 21.3342C20.5159 21.6255 20.0411 21.6229 19.7498 21.3284L16.8225 18.3695C16.5312 18.075 16.5338 17.6002 16.8282 17.3089Z" fill="black"/>
<path fill-rule="evenodd" clip-rule="evenodd" d="M14.7659 20.3621C15.1801 20.3621 15.5159 20.6978 15.5159 21.1121V21.1208C15.5159 21.535 15.1801 21.8708 14.7659 21.8708C14.3517 21.8708 14.0159 21.535 14.0159 21.1208V21.1121C14.0159 20.6978 14.3517 20.3621 14.7659 20.3621Z" fill="black"/>
<path fill-rule="evenodd" clip-rule="evenodd" d="M20.2834 11.8245C20.6977 11.8245 21.0334 12.1602 21.0334 12.5745V12.5832C21.0334 12.9974 20.6977 13.3332 20.2834 13.3332C19.8692 13.3332 19.5334 12.9974 19.5334 12.5832V12.5745C19.5334 12.1602 19.8692 11.8245 20.2834 11.8245Z" fill="black"/>
<path fill-rule="evenodd" clip-rule="evenodd" d="M2.96962 3.14838C2.6801 3.4446 2.68553 3.91945 2.98176 4.20897L7.51508 8.63975C7.8113 8.92927 8.28614 8.92384 8.57567 8.62762C8.86519 8.33139 8.85976 7.85655 8.56354 7.56702L4.03021 3.13625C3.73399 2.84672 3.25915 2.85215 2.96962 3.14838Z" fill="black"/>
<path fill-rule="evenodd" clip-rule="evenodd" d="M8.31395 2.78054C7.93727 2.95283 7.77157 3.39786 7.94386 3.77454L9.15609 6.42491C9.32838 6.8016 9.77341 6.96729 10.1501 6.795C10.5268 6.62272 10.6925 6.17769 10.5202 5.80101L9.30795 3.15063C9.13566 2.77395 8.69063 2.60825 8.31395 2.78054Z" fill="black"/>
<path fill-rule="evenodd" clip-rule="evenodd" d="M2.30388 8.31577C2.15105 8.70075 2.33925 9.13674 2.72424 9.28957L4.84265 10.1305C5.22764 10.2833 5.66362 10.0951 5.81645 9.71014C5.96928 9.32515 5.78108 8.88917 5.39609 8.73634L3.27768 7.8954C2.89269 7.74257 2.45671 7.93078 2.30388 8.31577Z" fill="black"/>
<path fill-rule="evenodd" clip-rule="evenodd" d="M7.33036 14.4232C7.16242 14.0445 6.71933 13.8737 6.34069 14.0416L2.75949 15.63C2.38085 15.798 2.21005 16.2411 2.37799 16.6197C2.54593 16.9984 2.98902 17.1692 3.36766 17.0012L6.94886 15.4128C7.3275 15.2449 7.4983 14.8018 7.33036 14.4232Z" fill="black"/>
<path fill-rule="evenodd" clip-rule="evenodd" d="M7.17224 17.3089C6.87777 17.0176 6.40291 17.0201 6.1116 17.3146L3.18437 20.2735C2.89306 20.568 2.89562 21.0428 3.19009 21.3342C3.48456 21.6255 3.95942 21.6229 4.25073 21.3284L7.17795 18.3695C7.46927 18.075 7.46671 17.6002 7.17224 17.3089Z" fill="black"/>
<path fill-rule="evenodd" clip-rule="evenodd" d="M9.23462 20.3621C8.82041 20.3621 8.48462 20.6978 8.48462 21.1121V21.1208C8.48462 21.535 8.82041 21.8708 9.23462 21.8708C9.64883 21.8708 9.98462 21.535 9.98462 21.1208V21.1121C9.98462 20.6978 9.64883 20.3621 9.23462 20.3621Z" fill="black"/>
<path fill-rule="evenodd" clip-rule="evenodd" d="M3.71899 11.8245C3.30478 11.8245 2.96899 12.1602 2.96899 12.5745V12.5832C2.96899 12.9974 3.30478 13.3332 3.71899 13.3332C4.13321 13.3332 4.46899 12.9974 4.46899 12.5832V12.5745C4.46899 12.1602 4.13321 11.8245 3.71899 11.8245Z" fill="black"/>
</svg>