<svg width="24" height="25" viewBox="0 0 24 25" fill="none" xmlns="http://www.w3.org/2000/svg">
<path fill-rule="evenodd" clip-rule="evenodd" d="M21.0961 20.281C20.6921 20.193 20.2911 20.446 20.2001 20.85C20.1671 21 20.1811 21.149 20.2331 21.282C20.3421 21.579 20.6261 21.771 20.9351 21.771C20.9951 21.771 21.0571 21.764 21.1171 21.749C21.4551 21.665 21.6961 21.356 21.6911 21.009C21.6861 20.66 21.4351 20.357 21.0961 20.281Z" fill="black"/>
<path fill-rule="evenodd" clip-rule="evenodd" d="M11.0463 5.44707C11.1003 5.44707 11.1553 5.44107 11.2103 5.42907C11.5563 5.35207 11.8073 5.04007 11.8033 4.68507C11.7993 4.33107 11.5393 4.02307 11.1923 3.95407C10.7833 3.87507 10.3903 4.13507 10.3093 4.54207C10.2793 4.68607 10.2943 4.83007 10.3443 4.95807C10.4523 5.25307 10.7353 5.44707 11.0463 5.44707Z" fill="black"/>
<path fill-rule="evenodd" clip-rule="evenodd" d="M4.16949 6.24863C4.50949 6.43863 4.89949 6.62863 5.33949 6.81863C6.39949 7.29863 7.74949 7.76863 9.26949 8.13863C9.26949 8.14863 9.26949 8.15863 9.27949 8.16863L11.9795 14.0486C12.0595 14.2086 12.2195 14.3286 12.3995 14.3386H12.4395C12.5995 14.3386 12.7595 14.2586 12.8495 14.1186L16.3395 8.90863L16.4595 8.72863C17.7995 8.60863 19.1595 8.35863 20.5095 7.91863C20.8995 7.79863 21.2995 7.64863 21.6895 7.48863C22.0795 7.32863 22.2595 6.89863 22.0995 6.50863C21.9495 6.12863 21.5095 5.94863 21.1295 6.09863C14.6795 8.73863 7.68949 6.49863 4.89949 4.93863C4.53949 4.73863 4.07949 4.86863 3.87949 5.22863C3.67949 5.58863 3.80949 6.04863 4.16949 6.24863Z" fill="black"/>
<path fill-rule="evenodd" clip-rule="evenodd" d="M20.8595 13.8787C18.0695 15.4387 11.0895 17.6787 4.63947 15.0387C4.25947 14.8787 3.81947 15.0687 3.65947 15.4487C3.49947 15.8287 3.68947 16.2687 4.06947 16.4287C4.36947 16.5487 4.65947 16.6387 4.95947 16.7387L6.54947 20.6587C6.61947 20.8387 6.78947 20.9587 6.98947 20.9687H7.01947C7.19947 20.9687 7.36947 20.8687 7.44947 20.7087L9.13947 17.6487C9.36947 17.6687 9.59947 17.6887 9.82947 17.6987C10.2495 17.7287 10.6595 17.7487 11.0695 17.7487C12.6095 17.7487 14.0795 17.5787 15.4295 17.3087C15.7795 17.2387 16.1195 17.1687 16.4495 17.0887L18.0595 19.7487C18.1495 19.8987 18.3095 19.9887 18.4895 19.9887C18.5095 19.9887 18.5295 19.9787 18.5495 19.9787C18.7395 19.9587 18.8995 19.8187 18.9595 19.6287L20.1295 15.8887C20.6895 15.6487 21.1895 15.4087 21.5895 15.1887C21.9595 14.9887 22.0895 14.5287 21.8795 14.1687C21.6795 13.8087 21.2295 13.6687 20.8595 13.8787Z" fill="black"/>
<path d="M9.26936 8.1386L7.22936 10.6486C7.12936 10.7586 6.98936 10.8286 6.83936 10.8286C6.80936 10.8286 6.76936 10.8286 6.73936 10.8186C6.55936 10.7786 6.40936 10.6386 6.35936 10.4586L5.33936 6.8186C6.39936 7.2986 7.74936 7.7686 9.26936 8.1386Z" fill="black" fill-opacity="0.4"/>
<path d="M20.5094 7.91858L18.9094 11.4886C18.8294 11.6586 18.6694 11.7686 18.4894 11.7886H18.4494C18.2794 11.7886 18.1194 11.6986 18.0294 11.5586L16.3394 8.90858L16.4594 8.72858C17.7994 8.60858 19.1594 8.35858 20.5094 7.91858Z" fill="black" fill-opacity="0.4"/>
<path d="M13.4094 21.6786L15.4294 17.3086C14.0794 17.5786 12.6094 17.7486 11.0694 17.7486C10.6594 17.7486 10.2494 17.7286 9.82941 17.6986L12.5494 21.7486C12.6394 21.8886 12.7894 21.9686 12.9594 21.9686H12.9994C13.1794 21.9586 13.3394 21.8486 13.4094 21.6786Z" fill="black" fill-opacity="0.4"/>
<path fill-rule="evenodd" clip-rule="evenodd" d="M2.51984 18.3951C2.10784 18.4341 1.80584 18.8001 1.84584 19.2131C1.88484 19.6251 2.25784 19.9361 2.66484 19.8871C3.06284 19.8611 3.41984 20.1421 3.45784 20.5411C3.49584 20.9291 3.82184 21.2191 4.20384 21.2191C4.22784 21.2191 4.25184 21.2181 4.27684 21.2151C4.68884 21.1761 4.99084 20.8101 4.95084 20.3971C4.83284 19.1751 3.74184 18.2601 2.51984 18.3951Z" fill="black" fill-opacity="0.4"/>
<path fill-rule="evenodd" clip-rule="evenodd" d="M3.88317 10.4948L3.75717 10.4788C3.54417 10.4528 3.39217 10.2568 3.41817 10.0428C3.46917 9.63176 3.17717 9.25776 2.76617 9.20676C2.35417 9.15576 1.98117 9.44876 1.93017 9.85876C1.80217 10.8918 2.53817 11.8388 3.57417 11.9678L3.70017 11.9828C3.79317 11.9948 3.84917 12.0498 3.87317 12.0818C3.89817 12.1128 3.93817 12.1808 3.92617 12.2718C3.87417 12.6828 4.16617 13.0578 4.57617 13.1098C4.60917 13.1138 4.64017 13.1158 4.67117 13.1158C5.04317 13.1158 5.36617 12.8388 5.41417 12.4598C5.47317 11.9928 5.34617 11.5318 5.05717 11.1608C4.76917 10.7898 4.35317 10.5538 3.88317 10.4948Z" fill="black" fill-opacity="0.4"/>
<path fill-rule="evenodd" clip-rule="evenodd" d="M15.1048 5.54165C15.4558 5.76065 15.8518 5.87265 16.2538 5.87265C16.4198 5.87265 16.5878 5.85365 16.7528 5.81465C17.1568 5.72165 17.4078 5.31765 17.3138 4.91465C17.2188 4.51065 16.8088 4.25665 16.4138 4.35465C16.2368 4.39465 16.0518 4.36465 15.8978 4.26865C15.7428 4.17265 15.6338 4.02065 15.5928 3.84365C15.4998 3.43865 15.0888 3.18465 14.6938 3.28165C14.2898 3.37565 14.0388 3.77765 14.1318 4.18165C14.2638 4.75065 14.6088 5.23265 15.1048 5.54165Z" fill="black" fill-opacity="0.4"/>
</svg>