<svg width="25" height="24" viewBox="0 0 25 24" fill="none" xmlns="http://www.w3.org/2000/svg">
<path opacity="0.4" d="M8.28216 3H16.7169C19.665 3 21.5 5.08119 21.5 8.02638V15.9736C21.5 18.9188 19.665 21 16.7159 21H8.28216C5.33405 21 3.5 18.9188 3.5 15.9736V8.02638C3.5 5.08119 5.34281 3 8.28216 3Z" stroke="black" stroke-width="1.5" stroke-linecap="round" stroke-linejoin="round"/>
<path d="M15.9631 14.9068C15.069 16.0695 13.6377 16.8742 12.1179 16.8742C9.43544 16.8742 7.28906 14.7278 7.28906 12.0453C7.28906 9.36285 9.43544 7.12695 12.1179 7.12695C12.7124 7.12695 13.3069 7.2369 13.8557 7.44122" stroke="black" stroke-width="1.5" stroke-linecap="round" stroke-linejoin="round"/>
<path fill-rule="evenodd" clip-rule="evenodd" d="M16.5876 11.1587C17.2094 11.1587 17.7124 10.6557 17.7124 10.0339C17.7124 9.4122 17.2094 8.9082 16.5876 8.9082C15.9659 8.9082 15.4629 9.4122 15.4629 10.0339C15.4629 10.6557 15.9659 11.1587 16.5876 11.1587Z" stroke="black" stroke-width="1.5" stroke-linecap="round" stroke-linejoin="round"/>
</svg>