<svg width="24" height="24" viewBox="0 0 24 24" fill="none" xmlns="http://www.w3.org/2000/svg">
<path d="M7.78216 3H16.2169C19.165 3 21 5.08119 21 8.02638V15.9736C21 18.9188 19.165 21 16.2159 21H7.78216C4.83405 21 3 18.9188 3 15.9736V8.02638C3 5.08119 4.84281 3 7.78216 3Z" stroke="black" stroke-width="1.5" stroke-linecap="round" stroke-linejoin="round"/>
<path d="M15.4631 14.9068C14.569 16.0695 13.1377 16.8742 11.6179 16.8742C8.93544 16.8742 6.78906 14.7278 6.78906 12.0453C6.78906 9.36285 8.93544 7.12695 11.6179 7.12695C12.2124 7.12695 12.8069 7.2369 13.3557 7.44122" stroke="black" stroke-width="1.5" stroke-linecap="round" stroke-linejoin="round"/>
<path fill-rule="evenodd" clip-rule="evenodd" d="M16.0876 11.1587C16.7094 11.1587 17.2124 10.6557 17.2124 10.0339C17.2124 9.4122 16.7094 8.9082 16.0876 8.9082C15.4659 8.9082 14.9629 9.4122 14.9629 10.0339C14.9629 10.6557 15.4659 11.1587 16.0876 11.1587Z" stroke="black" stroke-width="1.5" stroke-linecap="round" stroke-linejoin="round"/>
</svg>