<svg width="24" height="24" viewBox="0 0 24 24" fill="none" xmlns="http://www.w3.org/2000/svg">
<path fill-rule="evenodd" clip-rule="evenodd" d="M14.189 10.561H6.892C6.478 10.561 6.142 10.225 6.142 9.811C6.142 9.397 6.478 9.061 6.892 9.061H14.189C14.603 9.061 14.939 9.397 14.939 9.811C14.939 10.225 14.603 10.561 14.189 10.561ZM10.26 14.94H6.892C6.478 14.94 6.142 14.604 6.142 14.19C6.142 13.776 6.478 13.44 6.892 13.44H10.26C10.674 13.44 11.01 13.776 11.01 14.19C11.01 14.604 10.674 14.94 10.26 14.94ZM16.218 2.5H7.783C4.623 2.5 2.5 4.723 2.5 8.031V15.97C2.5 19.278 4.623 21.5 7.783 21.5H16.217C19.377 21.5 21.5 19.278 21.5 15.97V8.031C21.5 4.723 19.377 2.5 16.218 2.5Z" fill="black"/>
</svg>