<svg width="24" height="24" viewBox="0 0 24 24" fill="none" xmlns="http://www.w3.org/2000/svg">
<path fill-rule="evenodd" clip-rule="evenodd" d="M15.649 10.561H8.352C7.938 10.561 7.602 10.225 7.602 9.811C7.602 9.397 7.938 9.061 8.352 9.061H15.649C16.063 9.061 16.399 9.397 16.399 9.811C16.399 10.225 16.063 10.561 15.649 10.561ZM13.403 14.94H10.035C9.621 14.94 9.285 14.604 9.285 14.19C9.285 13.776 9.621 13.44 10.035 13.44H13.403C13.817 13.44 14.153 13.776 14.153 14.19C14.153 14.604 13.817 14.94 13.403 14.94ZM16.218 2.5H7.783C4.623 2.5 2.5 4.723 2.5 8.031V15.97C2.5 19.278 4.623 21.5 7.783 21.5H16.217C19.377 21.5 21.5 19.278 21.5 15.97V8.031C21.5 4.723 19.378 2.5 16.218 2.5Z" fill="black"/>
</svg>