<svg width="25" height="25" viewBox="0 0 25 25" fill="none" xmlns="http://www.w3.org/2000/svg">
<path fill-rule="evenodd" clip-rule="evenodd" d="M5.33447 5.68506C4.65864 6.41098 4.25 7.47366 4.25 8.792V16.7392C4.25 18.057 4.65861 19.1197 5.33459 19.8458C6.00493 20.5658 6.99383 21.0156 8.28314 21.0156H16.7169C18.0056 21.0156 18.9946 20.5659 19.6651 19.8458C20.3412 19.1197 20.75 18.0569 20.75 16.7392V8.792C20.75 7.47471 20.3396 6.41191 19.6622 5.6855C18.9902 4.9649 18.0009 4.51562 16.7169 4.51562H8.28216C6.99331 4.51562 6.00467 4.96519 5.33447 5.68506ZM4.23661 4.66295C5.22047 3.60617 6.62291 3.01562 8.28216 3.01562H16.7169C18.3722 3.01562 19.7744 3.60646 20.7592 4.66251C21.7386 5.71274 22.25 7.16314 22.25 8.792V16.7392C22.25 18.3667 21.7413 19.8172 20.7629 20.868C19.7788 21.9248 18.3762 22.5156 16.7169 22.5156H8.28314C6.62336 22.5156 5.22069 21.9248 4.23673 20.8679C3.25842 19.8171 2.75 18.3666 2.75 16.7392V8.792C2.75 7.16418 3.25839 5.71367 4.23661 4.66295Z" fill="black"/>
<path fill-rule="evenodd" clip-rule="evenodd" d="M9.56055 10.5781C9.56055 10.1639 9.89633 9.82812 10.3105 9.82812H17.6078C18.0221 9.82812 18.3578 10.1639 18.3578 10.5781C18.3578 10.9923 18.0221 11.3281 17.6078 11.3281H10.3105C9.89633 11.3281 9.56055 10.9923 9.56055 10.5781ZM13.4899 14.9565C13.4899 14.5423 13.8256 14.2065 14.2399 14.2065H17.6078C18.0221 14.2065 18.3578 14.5423 18.3578 14.9565C18.3578 15.3707 18.0221 15.7065 17.6078 15.7065H14.2399C13.8256 15.7065 13.4899 15.3707 13.4899 14.9565Z" fill="black"/>
</svg>