<svg width="24" height="24" viewBox="0 0 24 24" fill="none" xmlns="http://www.w3.org/2000/svg">
<path fill-rule="evenodd" clip-rule="evenodd" d="M11.8397 13.6669C10.3442 13.6795 9.13477 14.6846 9.13477 16.3961C9.13477 17.5024 9.79445 18.4559 10.7412 18.884C11.1391 19.0455 11.5361 19.1078 11.8377 19.1078H18.2935C18.5951 19.1078 18.9931 19.0485 19.3969 18.8869C20.3436 18.4588 21.0004 17.5024 21.0004 16.3961C21.0004 14.6846 19.7919 13.6795 18.2964 13.6669C18.2964 12.5907 17.4519 10.4375 15.0681 10.4375C12.6842 10.4375 11.8397 12.5907 11.8397 13.6669Z" stroke="black" stroke-width="1.5" stroke-linecap="round" stroke-linejoin="round"/>
<path d="M3 16.4376L4.28045 15.1289L5.58912 16.4103" stroke="black" stroke-width="1.5" stroke-linecap="round" stroke-linejoin="round"/>
<path d="M4.25977 15.1523V16.4474C4.25977 18.2338 5.70855 19.6826 7.49593 19.6826" stroke="black" stroke-width="1.5" stroke-linecap="round" stroke-linejoin="round"/>
<path d="M13.6161 7.8474C13.1821 7.5195 12.6295 7.34144 12.0272 7.33658C12.0272 6.33051 11.2391 4.32031 9.01188 4.32031C6.78471 4.32031 5.99658 6.33051 5.99658 7.33658C4.59937 7.34826 3.4707 8.28719 3.4707 9.88581C3.4707 10.9191 4.08563 11.8094 4.97008 12.2093C5.34273 12.3601 5.71344 12.4185 5.99464 12.4185H8.0204" stroke="black" stroke-width="1.5" stroke-linecap="round" stroke-linejoin="round"/>
<path d="M19.0506 9.32711V8.03206C19.0506 6.24566 17.6018 4.79688 15.8145 4.79688" stroke="black" stroke-width="1.5" stroke-linecap="round" stroke-linejoin="round"/>
<path d="M20.3118 8.04297L19.0313 9.35164L17.7227 8.07021" stroke="black" stroke-width="1.5" stroke-linecap="round" stroke-linejoin="round"/>
</svg>