<svg width="25" height="24" viewBox="0 0 25 24" fill="none" xmlns="http://www.w3.org/2000/svg">
<path fill-rule="evenodd" clip-rule="evenodd" d="M12.2119 11.1961C12.8461 10.3578 13.865 9.6875 15.3181 9.6875C16.7711 9.6875 17.79 10.3578 18.4243 11.1961C18.8521 11.7615 19.1084 12.4053 19.2236 12.9793C19.8839 13.0989 20.4933 13.3901 20.9771 13.8519C21.6276 14.4728 22.0004 15.3544 22.0004 16.3961C22.0004 17.8056 21.1631 19.0244 19.9559 19.5703C19.9459 19.5749 19.9357 19.5792 19.9254 19.5833C19.4277 19.7824 18.9346 19.8578 18.5435 19.8578H12.0877C11.6931 19.8578 11.2 19.7782 10.7091 19.579C10.7001 19.5753 10.6911 19.5714 10.6821 19.5674C9.47707 19.0225 8.63477 17.8079 8.63477 16.3961C8.63477 15.3542 9.00794 14.4726 9.65871 13.8517C10.1426 13.3901 10.7522 13.0989 11.4125 12.9793C11.5277 12.4053 11.784 11.7615 12.2119 11.1961ZM13.408 12.1012C13.0009 12.6392 12.8397 13.2863 12.8397 13.6669C12.8397 14.0786 12.5077 14.4133 12.096 14.4168C11.5138 14.4218 11.0283 14.6182 10.6941 14.9371C10.3663 15.2498 10.1348 15.7265 10.1348 16.3961C10.1348 17.1917 10.6057 17.8805 11.287 18.1946C11.5873 18.3142 11.8823 18.3578 12.0877 18.3578H18.5435C18.7521 18.3578 19.0483 18.316 19.3528 18.1967C20.031 17.8832 20.5004 17.1933 20.5004 16.3961C20.5004 15.7263 20.2689 15.2496 19.9414 14.9369C19.6074 14.6182 19.1223 14.4218 18.5401 14.4168C18.1284 14.4133 17.7964 14.0786 17.7964 13.6669C17.7964 13.2863 17.6352 12.6392 17.2281 12.1012C16.8442 11.5938 16.2488 11.1875 15.3181 11.1875C14.3873 11.1875 13.792 11.5938 13.408 12.1012Z" fill="black"/>
<path fill-rule="evenodd" clip-rule="evenodd" d="M4.52242 14.3789C4.72137 14.3768 4.91302 14.4538 5.05518 14.593L6.36385 15.8745C6.65981 16.1643 6.6648 16.6391 6.375 16.9351C6.08521 17.231 5.61036 17.236 5.3144 16.9462L4.54181 16.1897L3.78608 16.9621C3.49639 17.2582 3.02155 17.2633 2.72548 16.9737C2.42941 16.684 2.42424 16.2091 2.71392 15.9131L3.99438 14.6044C4.13352 14.4622 4.32347 14.3811 4.52242 14.3789Z" fill="black"/>
<path fill-rule="evenodd" clip-rule="evenodd" d="M4.50977 14.4023C4.92398 14.4023 5.25977 14.7381 5.25977 15.1523V16.4474C5.25977 17.8194 6.37261 18.9326 7.74593 18.9326C8.16014 18.9326 8.49593 19.2684 8.49593 19.6826C8.49593 20.0968 8.16014 20.4326 7.74593 20.4326C5.54448 20.4326 3.75977 18.6482 3.75977 16.4474V15.1523C3.75977 14.7381 4.09555 14.4023 4.50977 14.4023Z" fill="black"/>
<path fill-rule="evenodd" clip-rule="evenodd" d="M6.32096 4.99862C6.92169 4.20472 7.88733 3.57031 9.26188 3.57031C10.6364 3.57031 11.6021 4.20472 12.2028 4.99862C12.599 5.52219 12.8395 6.11678 12.9515 6.65175C13.4501 6.74694 13.9174 6.94616 14.3182 7.24901C14.6487 7.49873 14.7142 7.96906 14.4644 8.29954C14.2147 8.63002 13.7444 8.6955 13.4139 8.44579C13.1219 8.22515 12.7299 8.09026 12.2711 8.08656C11.8593 8.08323 11.5272 7.74843 11.5272 7.33658C11.5272 6.9909 11.3799 6.39703 11.0066 5.90372C10.6565 5.441 10.1145 5.07031 9.26188 5.07031C8.40925 5.07031 7.86725 5.441 7.51712 5.90372C7.14384 6.39703 6.99658 6.9909 6.99658 7.33658C6.99658 7.74835 6.6646 8.08311 6.25285 8.08655C5.71978 8.09101 5.27921 8.27068 4.97752 8.55863C4.68219 8.84051 4.4707 9.27246 4.4707 9.88581C4.4707 10.6088 4.89725 11.234 5.51555 11.5197C5.79127 11.629 6.06015 11.6685 6.24464 11.6685H8.2704C8.68462 11.6685 9.0204 12.0043 9.0204 12.4185C9.0204 12.8327 8.68462 13.1685 8.2704 13.1685H6.24464C5.86989 13.1685 5.4034 13.0926 4.93872 12.9045C4.92943 12.9008 4.92022 12.8968 4.91109 12.8927C3.76779 12.3758 2.9707 11.2242 2.9707 9.88581C2.9707 8.90054 3.32355 8.06371 3.94185 7.47355C4.39334 7.04262 4.95938 6.7687 5.57222 6.65178C5.68424 6.1168 5.92478 5.52219 6.32096 4.99862Z" fill="black"/>
<path fill-rule="evenodd" clip-rule="evenodd" d="M15.3145 4.79688C15.3145 4.38266 15.6502 4.04688 16.0645 4.04688C18.2659 4.04688 20.0506 5.8313 20.0506 8.03206V9.32711C20.0506 9.74133 19.7148 10.0771 19.3006 10.0771C18.8864 10.0771 18.5506 9.74133 18.5506 9.32711V8.03206C18.5506 6.66002 17.4378 5.54688 16.0645 5.54688C15.6502 5.54688 15.3145 5.21109 15.3145 4.79688Z" fill="black"/>
<path fill-rule="evenodd" clip-rule="evenodd" d="M21.0863 7.50689C21.3824 7.79658 21.3875 8.27142 21.0979 8.56749L19.8174 9.87616C19.6783 10.0184 19.4883 10.0995 19.2894 10.1016C19.0904 10.1037 18.8988 10.0267 18.7566 9.88752L17.4479 8.60609C17.152 8.31629 17.147 7.84145 17.4368 7.54549C17.7266 7.24953 18.2014 7.24454 18.4974 7.53433L19.27 8.29084L20.0257 7.51845C20.3154 7.22238 20.7902 7.21721 21.0863 7.50689Z" fill="black"/>
</svg>