<svg width="25" height="24" viewBox="0 0 25 24" fill="none" xmlns="http://www.w3.org/2000/svg">
<path fill-rule="evenodd" clip-rule="evenodd" d="M6.96976 10.44C9.15876 10.44 10.9408 8.659 10.9408 6.47C10.9408 4.281 9.15876 2.5 6.96976 2.5C4.78176 2.5 2.99976 4.281 2.99976 6.47C2.99976 8.659 4.78176 10.44 6.96976 10.44Z" fill="black"/>
<path fill-rule="evenodd" clip-rule="evenodd" d="M18.0283 13.5587C15.8404 13.5587 14.0583 15.3397 14.0583 17.5287C14.0583 19.7177 15.8404 21.4987 18.0283 21.4987C20.2174 21.4987 21.9993 19.7177 21.9993 17.5287C21.9993 15.3397 20.2174 13.5587 18.0283 13.5587Z" fill="black"/>
<g opacity="0.4">
<path fill-rule="evenodd" clip-rule="evenodd" d="M11.0185 20.0473C7.28651 20.0473 4.24951 17.0103 4.24951 13.2773C4.24951 12.8633 3.91451 12.5273 3.49951 12.5273C3.08551 12.5273 2.74951 12.8633 2.74951 13.2773C2.74951 17.8373 6.45851 21.5473 11.0185 21.5473C11.4325 21.5473 11.7685 21.2113 11.7685 20.7973C11.7685 20.3833 11.4325 20.0473 11.0185 20.0473Z" fill="black"/>
<path fill-rule="evenodd" clip-rule="evenodd" d="M13.9805 2.45312C13.5665 2.45312 13.2305 2.78912 13.2305 3.20312C13.2305 3.61713 13.5665 3.95312 13.9805 3.95312C17.7125 3.95312 20.7505 6.99012 20.7505 10.7221C20.7505 11.1361 21.0855 11.4721 21.5005 11.4721C21.9145 11.4721 22.2505 11.1361 22.2505 10.7221C22.2505 6.16213 18.5405 2.45312 13.9805 2.45312Z" fill="black"/>
</g>
</svg>