<svg width="24" height="25" viewBox="0 0 24 25" fill="none" xmlns="http://www.w3.org/2000/svg">
<path fill-rule="evenodd" clip-rule="evenodd" d="M14.625 10.2541C14.625 11.5611 13.741 12.4741 12.475 12.4741H8.37502C7.10902 12.4741 6.22502 11.5611 6.22502 10.2541V7.92414C6.22502 6.63814 7.12902 5.70414 8.37502 5.70414H12.475C13.741 5.70414 14.625 6.61714 14.625 7.92414V10.2541ZM12.108 16.6631L11.231 18.2731C11.095 18.5231 10.838 18.6641 10.572 18.6641C10.451 18.6641 10.328 18.6351 10.214 18.5731C9.85002 18.3751 9.71602 17.9191 9.91402 17.5551L10.188 17.0541H9.27802C9.01302 17.0541 8.76802 16.9141 8.63302 16.6871C8.49802 16.4591 8.49302 16.1771 8.61902 15.9451L9.49602 14.3351C9.69402 13.9711 10.15 13.8371 10.514 14.0351C10.877 14.2331 11.012 14.6891 10.813 15.0531L10.541 15.5541H11.45C11.714 15.5541 11.959 15.6931 12.095 15.9211C12.229 16.1481 12.235 16.4301 12.108 16.6631ZM21.505 7.95414L19.656 6.10414C19.363 5.81114 18.889 5.81114 18.596 6.10414C18.303 6.39614 18.303 6.87114 18.596 7.16414L20.225 8.79514V16.0141C20.225 16.2241 20.056 16.3941 19.848 16.3941C19.644 16.3941 19.471 16.2201 19.471 16.0141V14.5841C19.471 13.5471 18.629 12.7041 17.595 12.7041H17.101V6.44414C17.101 4.08214 15.581 2.49414 13.319 2.49414H7.53102C5.27002 2.49414 3.75002 4.08214 3.75002 6.44414V20.2441H3.02502C2.61102 20.2441 2.27502 20.5801 2.27502 20.9941C2.27502 21.4081 2.61102 21.7441 3.02502 21.7441H17.9C18.314 21.7441 18.65 21.4081 18.65 20.9941C18.65 20.5801 18.314 20.2441 17.9 20.2441H17.101V14.2041H17.595C17.799 14.2041 17.971 14.3781 17.971 14.5841V16.0141C17.971 17.0501 18.813 17.8941 19.848 17.8941C20.883 17.8941 21.725 17.0501 21.725 16.0141V8.48414C21.725 8.28514 21.646 8.09414 21.505 7.95414Z" fill="black"/>
<path fill-rule="evenodd" clip-rule="evenodd" d="M12.475 7.20435H8.37504C7.83804 7.20435 7.72504 7.59635 7.72504 7.92435V10.2543C7.72504 10.5823 7.83804 10.9743 8.37504 10.9743H9.61804L10.316 8.94935C10.451 8.55735 10.877 8.35035 11.269 8.48535C11.661 8.62035 11.869 9.04735 11.734 9.43835L11.205 10.9743H12.475C13.012 10.9743 13.125 10.5823 13.125 10.2543V7.92435C13.125 7.59635 13.012 7.20435 12.475 7.20435Z" fill="black"/>
</svg>