<svg width="25" height="25" viewBox="0 0 25 25" fill="none" xmlns="http://www.w3.org/2000/svg">
<path fill-rule="evenodd" clip-rule="evenodd" d="M12.0337 7.30566C12.4479 7.30566 12.7837 7.64145 12.7837 8.05566V17.1841C12.7837 17.5983 12.4479 17.9341 12.0337 17.9341C11.6195 17.9341 11.2837 17.5983 11.2837 17.1841V8.05566C11.2837 7.64145 11.6195 7.30566 12.0337 7.30566ZM7.83398 10.2597C8.2482 10.2597 8.58398 10.5955 8.58398 11.0097V17.1842C8.58398 17.5984 8.2482 17.9342 7.83398 17.9342C7.41977 17.9342 7.08398 17.5984 7.08398 17.1842V11.0097C7.08398 10.5955 7.41977 10.2597 7.83398 10.2597ZM16.1651 13.5226C16.5793 13.5226 16.9151 13.8584 16.9151 14.2726V17.1838C16.9151 17.598 16.5793 17.9338 16.1651 17.9338C15.7509 17.9338 15.4151 17.598 15.4151 17.1838V14.2726C15.4151 13.8584 15.7509 13.5226 16.1651 13.5226Z" fill="black"/>
<path fill-rule="evenodd" clip-rule="evenodd" d="M3.74072 4.51561C4.72544 3.45932 6.12768 2.86816 7.78313 2.86816H12.2178C12.6321 2.86816 12.9678 3.20395 12.9678 3.61816C12.9678 4.03238 12.6321 4.36816 12.2178 4.36816H7.78313C6.49924 4.36816 5.50991 4.8176 4.8379 5.53845C4.16046 6.26513 3.75 7.32821 3.75 8.64552V16.5918C3.75 17.91 4.15882 18.9727 4.83488 19.6987C5.50534 20.4186 6.49426 20.8682 7.78313 20.8682H16.2169C17.5063 20.8682 18.4952 20.4186 19.1654 19.6987C19.8414 18.9728 20.25 17.9101 20.25 16.5918V12.6455C20.25 12.2313 20.5858 11.8955 21 11.8955C21.4142 11.8955 21.75 12.2313 21.75 12.6455V16.5918C21.75 18.2196 21.2416 19.6701 20.2632 20.7209C19.2792 21.7777 17.8765 22.3682 16.2169 22.3682H7.78313C6.1239 22.3682 4.72126 21.7776 3.73717 20.7209C2.7587 19.6702 2.25 18.2197 2.25 16.5918V8.64552C2.25 7.01666 2.76144 5.56607 3.74072 4.51561Z" fill="black"/>
<path d="M17.0302 9.36804C16.6702 9.36804 16.3202 9.17804 16.1402 8.83804C16.0302 8.62804 15.9902 8.39804 16.0302 8.18804L16.2902 6.72804L15.2202 5.69804C15.0202 5.49804 14.9102 5.23804 14.9102 4.96804C14.9102 4.69804 15.0202 4.44804 15.2102 4.24804C15.3802 4.08804 15.5602 3.99804 15.7602 3.96804L17.2602 3.74804L17.9202 2.41804C18.0302 2.17804 18.2502 1.98804 18.5102 1.90804C18.7602 1.81804 19.0502 1.84804 19.2902 1.96804C19.4802 2.05804 19.6302 2.20804 19.7302 2.40804C19.7302 2.40804 19.7302 2.41804 19.7302 2.42804L20.3902 3.75804L21.8702 3.96804C22.1302 4.00804 22.3702 4.14804 22.5302 4.35804C22.8502 4.76804 22.8002 5.34804 22.4202 5.70804L21.3602 6.72804L21.6102 8.17804C21.6902 8.74804 21.3202 9.25804 20.7802 9.34804C20.5502 9.37804 20.3402 9.34804 20.1502 9.24804L18.8302 8.55804L17.5002 9.24804C17.3502 9.32804 17.1902 9.35804 17.0302 9.35804V9.36804ZM18.6102 8.43804C18.6102 8.43804 18.6102 8.43804 18.6202 8.43804H18.6102ZM19.0702 8.42804H19.0602C19.0602 8.42804 19.0602 8.42804 19.0702 8.42804ZM16.9802 5.30804L17.5202 5.82804C17.7702 6.06804 17.8702 6.40804 17.8102 6.73804L17.6802 7.46804L18.3602 7.10804C18.6502 6.94804 19.0102 6.94804 19.3102 7.10804L19.9702 7.45804L19.8402 6.72804C19.7802 6.39804 19.8902 6.05804 20.1402 5.81804L20.6702 5.30804L19.9202 5.19804C19.5902 5.14804 19.3002 4.94804 19.1602 4.64804L18.8202 3.96804L18.4802 4.64804C18.3302 4.94804 18.0502 5.14804 17.7202 5.19804L16.9702 5.30804H16.9802ZM21.3202 6.44804V6.46804C21.3202 6.46804 21.3202 6.45804 21.3202 6.44804Z" fill="black"/>
</svg>