<svg width="25" height="25" viewBox="0 0 25 25" fill="none" xmlns="http://www.w3.org/2000/svg">
<path d="M7.83398 11.0097V17.1842M12.0337 8.05566V17.1841M16.1651 14.2726V17.1838" stroke="black" stroke-width="1.5" stroke-linecap="round" stroke-linejoin="round"/>
<path d="M12.2178 3.61816H7.78313C4.84378 3.61816 3 5.69935 3 8.64552V16.5918C3 19.5379 4.83503 21.6182 7.78313 21.6182H16.2169C19.1659 21.6182 21 19.5379 21 16.5918V12.6455" stroke="black" stroke-width="1.5" stroke-linecap="round" stroke-linejoin="round"/>
<path fill-rule="evenodd" clip-rule="evenodd" d="M19.0704 2.76504L19.8421 4.31837C19.8813 4.39662 19.956 4.45086 20.0422 4.4633L21.7707 4.71315C21.8401 4.72293 21.9041 4.75939 21.9467 4.8154C22.0277 4.92032 22.0152 5.06881 21.9183 5.1595L20.6655 6.37052C20.6024 6.43009 20.5739 6.51812 20.5899 6.60436L20.8904 8.3133C20.9109 8.45556 20.8149 8.58715 20.6726 8.61027C20.6139 8.61916 20.5543 8.61027 20.501 8.5836L18.9619 7.77714C18.8845 7.73535 18.7912 7.73535 18.7147 7.77714L17.164 8.58893C17.0342 8.65473 16.8751 8.60582 16.8048 8.47868C16.7782 8.42711 16.7684 8.36931 16.7782 8.31152L17.0778 6.60258C17.0929 6.51723 17.0645 6.43009 17.0022 6.36963L15.7432 5.15861C15.6409 5.05636 15.6409 4.89009 15.7432 4.78784V4.78784C15.785 4.74961 15.8374 4.72382 15.8935 4.71404L17.622 4.46241C17.7091 4.44908 17.7829 4.39484 17.822 4.3166L18.5938 2.76504C18.6249 2.70191 18.68 2.6539 18.7467 2.63167C18.8134 2.60944 18.8863 2.61477 18.9494 2.64678C19.0019 2.67257 19.0437 2.71347 19.0704 2.76504Z" stroke="black" stroke-width="1.5" stroke-linecap="round" stroke-linejoin="round"/>
</svg>