<svg width="25" height="25" viewBox="0 0 25 25" fill="none" xmlns="http://www.w3.org/2000/svg">
<path fill-rule="evenodd" clip-rule="evenodd" d="M2.75 7.4324C2.75 4.79312 4.88956 2.65332 7.52811 2.65332H17.4709C20.1103 2.65332 22.25 4.793 22.25 7.4324V12.8888C22.25 15.5282 20.1103 17.6679 17.4709 17.6679H7.52811C4.88956 17.6679 2.75 15.5281 2.75 12.8888V7.4324ZM7.52811 4.15332C5.71822 4.15332 4.25 5.62131 4.25 7.4324V12.8888C4.25 14.6999 5.71822 16.1679 7.52811 16.1679H17.4709C19.2819 16.1679 20.75 14.6998 20.75 12.8888V7.4324C20.75 5.62143 19.2819 4.15332 17.4709 4.15332H7.52811Z" fill="black"/>
<path fill-rule="evenodd" clip-rule="evenodd" d="M8.87988 7.32617C9.2941 7.32617 9.62988 7.66196 9.62988 8.07617V12.2463C9.62988 12.6605 9.2941 12.9963 8.87988 12.9963C8.46567 12.9963 8.12988 12.6605 8.12988 12.2463V8.07617C8.12988 7.66196 8.46567 7.32617 8.87988 7.32617ZM16.1202 8.18227C16.5344 8.18227 16.8702 8.51806 16.8702 8.93227V12.2452C16.8702 12.6595 16.5344 12.9952 16.1202 12.9952C15.706 12.9952 15.3702 12.6595 15.3702 12.2452V8.93227C15.3702 8.51806 15.706 8.18227 16.1202 8.18227ZM12.6948 9.53721C13.109 9.53721 13.4448 9.873 13.4448 10.2872V12.2458C13.4448 12.66 13.109 12.9958 12.6948 12.9958C12.2806 12.9958 11.9448 12.66 11.9448 12.2458V10.2872C11.9448 9.873 12.2806 9.53721 12.6948 9.53721Z" fill="black"/>
<path fill-rule="evenodd" clip-rule="evenodd" d="M6.80664 20.834C6.80664 20.4198 7.14243 20.084 7.55664 20.084H17.445C17.8592 20.084 18.195 20.4198 18.195 20.834C18.195 21.2482 17.8592 21.584 17.445 21.584H7.55664C7.14243 21.584 6.80664 21.2482 6.80664 20.834Z" fill="black"/>
<path fill-rule="evenodd" clip-rule="evenodd" d="M10.5049 16.1798C10.9138 16.2463 11.1913 16.6316 11.1247 17.0405L10.4875 20.9577C10.4209 21.3665 10.0356 21.644 9.62675 21.5775C9.21791 21.511 8.9404 21.1256 9.00692 20.7168L9.64421 16.7996C9.71073 16.3908 10.0961 16.1133 10.5049 16.1798ZM14.4954 16.1798C14.9043 16.1133 15.2896 16.3908 15.3561 16.7996L15.9934 20.7168C16.0599 21.1256 15.7824 21.511 15.3736 21.5775C14.9647 21.644 14.5794 21.3665 14.5129 20.9577L13.8756 17.0405C13.8091 16.6316 14.0866 16.2463 14.4954 16.1798Z" fill="black"/>
</svg>