<svg width="25" height="25" viewBox="0 0 25 25" fill="none" xmlns="http://www.w3.org/2000/svg">
<path fill-rule="evenodd" clip-rule="evenodd" d="M4.24076 4.01594C5.22547 2.95981 6.62768 2.36865 8.28313 2.36865H10.7178C11.1321 2.36865 11.4678 2.70444 11.4678 3.11865C11.4678 3.53287 11.1321 3.86865 10.7178 3.86865H8.28313C6.99924 3.86865 6.00988 4.31809 5.33786 5.03885C4.66042 5.76543 4.25 6.82827 4.25 8.14503V16.0923C4.25 17.41 4.65879 18.4727 5.33492 19.1988C6.00542 19.9189 6.99437 20.3687 8.28313 20.3687H16.7169C18.0062 20.3687 18.9951 19.9189 19.6654 19.1989C20.3414 18.4728 20.75 17.4101 20.75 16.0923V14.145C20.75 13.7308 21.0858 13.395 21.5 13.395C21.9142 13.395 22.25 13.7308 22.25 14.145V16.0923C22.25 17.7197 21.7416 19.1702 20.7633 20.221C19.7793 21.2778 18.3766 21.8687 16.7169 21.8687H8.28313C6.62379 21.8687 5.22117 21.2778 4.23714 20.221C3.25872 19.1702 2.75 17.7198 2.75 16.0923V8.14503C2.75 6.5166 3.26147 5.06625 4.24076 4.01594Z" fill="black"/>
<path fill-rule="evenodd" clip-rule="evenodd" d="M17.6259 13.9292C17.9161 14.2248 17.9116 14.6997 17.616 14.9898L15.0404 17.5179C14.7877 17.7659 14.396 17.8034 14.1008 17.6078L10.8116 15.4287L8.61793 17.7551C8.33376 18.0564 7.85909 18.0704 7.55773 17.7862C7.25637 17.502 7.24243 17.0274 7.52661 16.726L10.1536 13.9401C10.404 13.6746 10.8092 13.6278 11.1135 13.8294L14.423 16.022L16.5653 13.9193C16.8609 13.6292 17.3358 13.6336 17.6259 13.9292Z" fill="black"/>
<path fill-rule="evenodd" clip-rule="evenodd" d="M10.1729 11.5928C10.5871 11.5928 10.9229 11.257 10.9229 10.8428L10.9229 8.35877C10.9229 7.94456 10.5871 7.60877 10.1729 7.60877C9.75864 7.60877 9.42285 7.94456 9.42285 8.35877L9.42285 10.8428C9.42285 11.257 9.75864 11.5928 10.1729 11.5928ZM7.17127 11.5928C7.58548 11.5928 7.92127 11.257 7.92127 10.8428L7.92127 6.89737C7.92127 6.48315 7.58548 6.14737 7.17127 6.14737C6.75705 6.14737 6.42127 6.48315 6.42127 6.89737L6.42127 10.8428C6.42127 11.257 6.75705 11.5928 7.17127 11.5928Z" fill="black"/>
<path fill-rule="evenodd" clip-rule="evenodd" d="M17.4842 3.86865C15.6803 3.86865 14.2183 5.33107 14.2183 7.13455C14.2183 8.93842 15.6803 10.4005 17.4842 10.4005C19.288 10.4005 20.7501 8.93842 20.7501 7.13455C20.7501 5.33107 19.288 3.86865 17.4842 3.86865ZM12.7183 7.13455C12.7183 4.50275 14.8518 2.36865 17.4842 2.36865C20.1165 2.36865 22.2501 4.50275 22.2501 7.13455C22.2501 9.76685 20.1165 11.9005 17.4842 11.9005C14.8519 11.9005 12.7183 9.76685 12.7183 7.13455Z" fill="black"/>
<path fill-rule="evenodd" clip-rule="evenodd" d="M17.3455 2.37012C17.7597 2.37012 18.0955 2.7059 18.0955 3.12012V6.52191H21.4973C21.9115 6.52191 22.2473 6.8577 22.2473 7.27191C22.2473 7.68612 21.9115 8.02191 21.4973 8.02191H17.7917C17.131 8.02191 16.5955 7.48635 16.5955 6.8257V3.12012C16.5955 2.7059 16.9312 2.37012 17.3455 2.37012Z" fill="black"/>
</svg>