<svg width="24" height="24" viewBox="0 0 24 24" fill="none" xmlns="http://www.w3.org/2000/svg">
<path opacity="0.4" fill-rule="evenodd" clip-rule="evenodd" d="M16.218 2.5H7.784C4.623 2.5 2.5 4.723 2.5 8.03V15.97C2.5 19.277 4.623 21.5 7.784 21.5H16.217C19.377 21.5 21.5 19.277 21.5 15.97V8.03C21.5 4.723 19.378 2.5 16.218 2.5Z" fill="black"/>
<path fill-rule="evenodd" clip-rule="evenodd" d="M13.9939 17.4392L17.8019 14.1593C18.1159 13.8883 18.1519 13.4153 17.8809 13.1013C17.6099 12.7853 17.1359 12.7533 16.8229 13.0223L13.5099 15.8772L11.4419 14.0573C11.1769 13.8253 10.7839 13.8073 10.4999 14.0183L7.12594 16.5183C6.79294 16.7643 6.72294 17.2343 6.96994 17.5673C7.11694 17.7663 7.34394 17.8713 7.57294 17.8713C7.72794 17.8713 7.88494 17.8233 8.01894 17.7233L10.9059 15.5843L13.0099 17.4343C13.2909 17.6813 13.7109 17.6833 13.9939 17.4392ZM6.68994 9.84125C6.27594 9.84125 5.93994 10.1773 5.93994 10.5913C5.93994 11.0053 6.27594 11.3413 6.68994 11.3413H10.6349C11.0489 11.3413 11.3849 11.0053 11.3849 10.5913C11.3849 10.1773 11.0489 9.84125 10.6349 9.84125H6.68994ZM9.17294 6.84125H6.68994C6.27594 6.84125 5.93994 7.17725 5.93994 7.59125C5.93994 8.00525 6.27594 8.34125 6.68994 8.34125H9.17294C9.58694 8.34125 9.92294 8.00525 9.92294 7.59125C9.92294 7.17725 9.58694 6.84125 9.17294 6.84125ZM17.9499 8.69025C17.9499 7.36225 16.8659 6.28125 15.5339 6.28125C14.2019 6.28125 13.1189 7.36225 13.1189 8.69025C13.1189 10.0253 14.2019 11.1112 15.5339 11.1112C16.8659 11.1112 17.9499 10.0253 17.9499 8.69025ZM16.4503 8.69028C16.4503 9.19828 16.0393 9.61128 15.5343 9.61128C15.0293 9.61128 14.6193 9.19828 14.6193 8.69028C14.6193 8.18928 15.0293 7.78128 15.5343 7.78128C16.0393 7.78128 16.4503 8.18928 16.4503 8.69028Z" fill="black"/>
</svg>