<svg width="25" height="25" viewBox="0 0 25 25" fill="none" xmlns="http://www.w3.org/2000/svg">
<path d="M7.83398 11.0097V17.1842M12.0337 8.05566V17.1841M16.1651 14.2726V17.1838" stroke="black" stroke-width="1.5" stroke-linecap="round" stroke-linejoin="round"/>
<path d="M12.2178 3.61816H7.78313C4.84378 3.61816 3 5.69935 3 8.64552V16.5918C3 19.5379 4.83503 21.6182 7.78313 21.6182H16.2169C19.1659 21.6182 21 19.5379 21 16.5918V12.6455" stroke="black" stroke-width="1.5" stroke-linecap="round" stroke-linejoin="round"/>
<path fill-rule="evenodd" clip-rule="evenodd" d="M15.5738 9.70379L15.3395 8.08997C15.2975 7.80088 15.3841 7.50789 15.5764 7.28799L19.3615 2.95986C19.7251 2.54414 20.3569 2.50186 20.7726 2.86543L21.6584 3.64013C22.0741 4.0037 22.1164 4.63546 21.7528 5.05118L17.9861 9.35822C17.7968 9.57473 17.5234 9.69923 17.2357 9.6999L15.5738 9.70379Z" stroke="black" stroke-width="1.5" stroke-linecap="round" stroke-linejoin="round"/>
</svg>