<svg width="25" height="24" viewBox="0 0 25 24" fill="none" xmlns="http://www.w3.org/2000/svg">
<path fill-rule="evenodd" clip-rule="evenodd" d="M4.85401 3.45549C5.57847 2.67799 6.6052 2.25 7.79952 2.25H13.5877C14.7845 2.25 15.8118 2.67767 16.5361 3.45572C17.2549 4.22772 17.6196 5.28388 17.6196 6.44919V20.25H18.1316C18.5459 20.25 18.8816 20.5858 18.8816 21C18.8816 21.4142 18.5459 21.75 18.1316 21.75H3.25684C2.84262 21.75 2.50684 21.4142 2.50684 21C2.50684 20.5858 2.84262 20.25 3.25684 20.25H3.76866V6.44919C3.76866 5.28312 4.13504 4.2271 4.85401 3.45549ZM5.26866 20.25H16.1196V6.44919C16.1196 5.59363 15.8548 4.9252 15.4383 4.47782C15.0274 4.03649 14.4138 3.75 13.5877 3.75H7.79952C6.97688 3.75 6.36318 4.03617 5.95144 4.47805C5.53423 4.92582 5.26866 5.59439 5.26866 6.44919V20.25Z" fill="black"/>
<path fill-rule="evenodd" clip-rule="evenodd" d="M7.07318 6.36463C7.472 5.937 8.02841 5.71387 8.64425 5.71387H12.7444C13.3611 5.71387 13.918 5.93664 14.3169 6.36504C14.7102 6.7874 14.8945 7.34909 14.8945 7.935V10.2624C14.8945 10.8483 14.7102 11.41 14.3169 11.8323C13.918 12.2607 13.3611 12.4835 12.7444 12.4835H8.64425C8.02751 12.4835 7.47064 12.2607 7.0717 11.8323C6.67838 11.41 6.49414 10.8483 6.49414 10.2624V7.935C6.49414 7.34802 6.67974 6.78647 7.07318 6.36463ZM8.17013 7.3877C8.07854 7.48591 7.99414 7.65993 7.99414 7.935V10.2624C7.99414 10.5385 8.07845 10.7124 8.16942 10.8101C8.25478 10.9017 8.39796 10.9835 8.64425 10.9835H12.7444C12.9906 10.9835 13.1338 10.9017 13.2192 10.8101C13.3102 10.7124 13.3945 10.5385 13.3945 10.2624V7.935C13.3945 7.65886 13.3102 7.48498 13.2192 7.38729C13.1338 7.29563 12.9906 7.21387 12.7444 7.21387H8.64425C8.39998 7.21387 8.25633 7.29528 8.17013 7.3877Z" fill="black"/>
<path fill-rule="evenodd" clip-rule="evenodd" d="M11.5381 8.49398C11.9298 8.62889 12.1379 9.05573 12.003 9.44736L11.1312 11.9781C10.9963 12.3697 10.5694 12.5778 10.1778 12.4429C9.78618 12.308 9.57807 11.8811 9.71297 11.4895L10.5848 8.95881C10.7197 8.56718 11.1465 8.35907 11.5381 8.49398Z" fill="black"/>
<path fill-rule="evenodd" clip-rule="evenodd" d="M18.8647 6.11127C19.1575 5.81838 19.6324 5.81838 19.9253 6.11127L21.774 7.95992C21.9146 8.10057 21.9936 8.29134 21.9936 8.49025V16.022C21.9936 17.0589 21.1539 17.8987 20.1169 17.8987C19.0814 17.8987 18.2402 17.0594 18.2402 16.022V14.5898C18.2402 14.3823 18.071 14.2131 17.8635 14.2131H16.8711C16.4569 14.2131 16.1211 13.8773 16.1211 13.4631C16.1211 13.0489 16.4569 12.7131 16.8711 12.7131H17.8635C18.8995 12.7131 19.7402 13.5539 19.7402 14.5898V16.022C19.7402 16.2301 19.909 16.3987 20.1169 16.3987C20.3254 16.3987 20.4936 16.2305 20.4936 16.022V8.80091L18.8647 7.17193C18.5718 6.87904 18.5718 6.40416 18.8647 6.11127Z" fill="black"/>
<path fill-rule="evenodd" clip-rule="evenodd" d="M10.7818 14.0443C11.1457 14.2421 11.2803 14.6975 11.0824 15.0614L10.8084 15.5654H11.7186C11.9831 15.5654 12.2282 15.7048 12.3633 15.9323C12.4985 16.1597 12.5038 16.4416 12.3773 16.674L11.5006 18.2842C11.3026 18.648 10.8471 18.7824 10.4833 18.5843C10.1195 18.3863 9.98514 17.9308 10.1832 17.567L10.4563 17.0654H9.54688C9.28235 17.0654 9.03738 16.926 8.9022 16.6986C8.76702 16.4713 8.76162 16.1895 8.88798 15.9571L9.76463 14.3449C9.9625 13.981 10.4179 13.8464 10.7818 14.0443Z" fill="black"/>
</svg>