<svg width="25" height="25" viewBox="0 0 25 25" fill="none" xmlns="http://www.w3.org/2000/svg">
<path d="M7.83398 11.0097V17.1842M12.0337 8.05566V17.1841M16.1651 14.2726V17.1838" stroke="black" stroke-width="1.5" stroke-linecap="round" stroke-linejoin="round"/>
<path d="M12.2178 3.61816H7.78313C4.84378 3.61816 3 5.69935 3 8.64552V16.5918C3 19.5379 4.83503 21.6182 7.78313 21.6182H16.2169C19.1659 21.6182 21 19.5379 21 16.5918V12.6455" stroke="black" stroke-width="1.5" stroke-linecap="round" stroke-linejoin="round"/>
<path d="M21.8723 7.55114C21.3021 8.49103 20.2698 9.11957 19.0905 9.11957C17.2954 9.11957 15.8398 7.664 15.8398 5.86887C15.8398 4.07276 17.2954 2.61816 19.0905 2.61816C20.3603 2.61816 21.4607 3.34595 21.9958 4.40843" stroke="black" stroke-width="1.5" stroke-linecap="round" stroke-linejoin="round"/>
<path d="M20.1953 4.40746H21.9943V2.61816" stroke="black" stroke-width="1.5" stroke-linecap="round" stroke-linejoin="round"/>
</svg>