<svg width="25" height="25" viewBox="0 0 25 25" fill="none" xmlns="http://www.w3.org/2000/svg">
<path fill-rule="evenodd" clip-rule="evenodd" d="M12.0337 7.30566C12.4479 7.30566 12.7837 7.64145 12.7837 8.05566V17.1841C12.7837 17.5983 12.4479 17.9341 12.0337 17.9341C11.6195 17.9341 11.2837 17.5983 11.2837 17.1841V8.05566C11.2837 7.64145 11.6195 7.30566 12.0337 7.30566ZM7.83398 10.2597C8.2482 10.2597 8.58398 10.5955 8.58398 11.0097V17.1842C8.58398 17.5984 8.2482 17.9342 7.83398 17.9342C7.41977 17.9342 7.08398 17.5984 7.08398 17.1842V11.0097C7.08398 10.5955 7.41977 10.2597 7.83398 10.2597ZM16.1651 13.5226C16.5793 13.5226 16.9151 13.8584 16.9151 14.2726V17.1838C16.9151 17.598 16.5793 17.9338 16.1651 17.9338C15.7509 17.9338 15.4151 17.598 15.4151 17.1838V14.2726C15.4151 13.8584 15.7509 13.5226 16.1651 13.5226Z" fill="black"/>
<path fill-rule="evenodd" clip-rule="evenodd" d="M3.74072 4.51561C4.72544 3.45932 6.12768 2.86816 7.78313 2.86816H12.2178C12.6321 2.86816 12.9678 3.20395 12.9678 3.61816C12.9678 4.03238 12.6321 4.36816 12.2178 4.36816H7.78313C6.49924 4.36816 5.50991 4.8176 4.8379 5.53845C4.16046 6.26513 3.75 7.32821 3.75 8.64552V16.5918C3.75 17.91 4.15882 18.9727 4.83488 19.6987C5.50534 20.4186 6.49426 20.8682 7.78313 20.8682H16.2169C17.5063 20.8682 18.4952 20.4186 19.1654 19.6987C19.8414 18.9728 20.25 17.9101 20.25 16.5918V12.6455C20.25 12.2313 20.5858 11.8955 21 11.8955C21.4142 11.8955 21.75 12.2313 21.75 12.6455V16.5918C21.75 18.2196 21.2416 19.6701 20.2632 20.7209C19.2792 21.7777 17.8765 22.3682 16.2169 22.3682H7.78313C6.1239 22.3682 4.72126 21.7776 3.73717 20.7209C2.7587 19.6702 2.25 18.2197 2.25 16.5918V8.64552C2.25 7.01666 2.76144 5.56607 3.74072 4.51561Z" fill="black"/>
<path fill-rule="evenodd" clip-rule="evenodd" d="M16.9164 2.86901C18.2508 1.53455 20.4149 1.53455 21.7494 2.86901C23.0838 4.20346 23.0838 6.36756 21.7494 7.70201C20.4149 9.03647 18.2508 9.03647 16.9164 7.70201C15.5819 6.36756 15.5819 4.20346 16.9164 2.86901ZM20.6887 3.92967C19.94 3.181 18.7257 3.181 17.977 3.92967C17.2284 4.67833 17.2284 5.89268 17.977 6.64135C18.7257 7.39002 19.94 7.39002 20.6887 6.64135C21.4374 5.89268 21.4374 4.67833 20.6887 3.92967Z" fill="black"/>
<path fill-rule="evenodd" clip-rule="evenodd" d="M17.9754 6.64252C18.2683 6.93541 18.2683 7.41028 17.9754 7.70318L16.1837 9.49497C15.8908 9.78787 15.4159 9.78787 15.123 9.49499C14.8301 9.2021 14.8301 8.72722 15.123 8.43432L16.9147 6.64253C17.2076 6.34963 17.6825 6.34963 17.9754 6.64252Z" fill="black"/>
</svg>