<svg width="25" height="25" viewBox="0 0 25 25" fill="none" xmlns="http://www.w3.org/2000/svg">
<path d="M7.83398 12.0097V17.1842M12.0337 9.05566V17.1841M16.1651 14.2726V17.1838" stroke="black" stroke-width="1.5" stroke-linecap="round" stroke-linejoin="round"/>
<path d="M11.2178 3.61816H7.78313C4.84378 3.61816 3 5.69935 3 8.64552V16.5918C3 19.5379 4.83503 21.6182 7.78313 21.6182H16.2169C19.1659 21.6182 21 19.5379 21 16.5918V13.6455" stroke="black" stroke-width="1.5" stroke-linecap="round" stroke-linejoin="round"/>
<path fill-rule="evenodd" clip-rule="evenodd" d="M22.0001 6.12012C22.0001 8.05396 20.432 9.62207 18.4982 9.62207C16.5643 9.62207 14.9971 8.05396 14.9971 6.12012C14.9971 4.18628 16.5643 2.61816 18.4982 2.61816C20.432 2.61816 22.0001 4.18628 22.0001 6.12012Z" stroke="black" stroke-width="1.5" stroke-linecap="round" stroke-linejoin="round"/>
<path d="M19.5864 7.03019L18.479 6.36833V4.94531" stroke="black" stroke-width="1.5" stroke-linecap="round" stroke-linejoin="round"/>
</svg>