<svg width="24" height="24" viewBox="0 0 24 24" fill="none" xmlns="http://www.w3.org/2000/svg">
<path opacity="0.4" fill-rule="evenodd" clip-rule="evenodd" d="M17.6823 12.7092H12.2623C11.7263 12.7092 11.2903 12.2732 11.2903 11.7372V6.31924C11.2903 5.93724 11.1253 5.57024 10.8383 5.31524C10.5483 5.05724 10.1603 4.93424 9.77734 4.98324C7.51034 5.25724 5.43534 6.47824 4.08334 8.33424C2.71334 10.2172 2.20734 12.5362 2.66134 14.8632C3.29034 18.1072 5.89134 20.7102 9.13334 21.3402C9.68934 21.4472 10.2443 21.5002 10.7923 21.5002C12.5453 21.5002 14.2333 20.9582 15.6653 19.9152C17.5203 18.5662 18.7433 16.4932 19.0203 14.2282C19.0673 13.8422 18.9463 13.4532 18.6893 13.1632C18.4333 12.8742 18.0663 12.7092 17.6823 12.7092Z" fill="black"/>
<path fill-rule="evenodd" clip-rule="evenodd" d="M21.4899 9.19492V9.19292C21.0319 5.70992 18.2839 2.96192 14.8109 2.51292C14.4299 2.45892 14.0429 2.57592 13.7499 2.83092C13.4539 3.08792 13.2849 3.45892 13.2849 3.84792V9.37892C13.2849 10.1179 13.8859 10.7179 14.6269 10.7179H20.1529C20.5399 10.7179 20.9079 10.5509 21.1639 10.2599C21.4209 9.96892 21.5399 9.58092 21.4899 9.19492Z" fill="black"/>
</svg>