<svg width="24" height="24" viewBox="0 0 24 24" fill="none" xmlns="http://www.w3.org/2000/svg">
<path opacity="0.4" fill-rule="evenodd" clip-rule="evenodd" d="M9.40454 22.0003C8.85154 22.0003 8.40454 21.5533 8.40454 21.0003V12.5703C8.40454 12.0183 8.85154 11.5703 9.40454 11.5703C9.95754 11.5703 10.4045 12.0183 10.4045 12.5703V21.0003C10.4045 21.5533 9.95754 22.0003 9.40454 22.0003ZM20.4375 22.0003C19.8845 22.0003 19.4375 21.5533 19.4375 21.0003V16.2603C19.4375 15.7073 19.8845 15.2603 20.4375 15.2603C20.9905 15.2603 21.4375 15.7073 21.4375 16.2603V21.0003C21.4375 21.5533 20.9905 22.0003 20.4375 22.0003Z" fill="black"/>
<path d="M2.5625 21C2.5625 21.553 3.0095 22 3.5625 22C4.1155 22 4.5625 21.553 4.5625 21V3C4.5625 2.447 4.1155 2 3.5625 2C3.0095 2 2.5625 2.447 2.5625 3V21Z" fill="black"/>
<path d="M14.3265 21C14.3265 21.553 14.7735 22 15.3265 22C15.8785 22 16.3265 21.553 16.3265 21V8.6C16.3265 8.047 15.8785 7.6 15.3265 7.6C14.7735 7.6 14.3265 8.047 14.3265 8.6V21Z" fill="black"/>
</svg>