<svg width="25" height="25" viewBox="0 0 25 25" fill="none" xmlns="http://www.w3.org/2000/svg">
<path opacity="0.4" fill-rule="evenodd" clip-rule="evenodd" d="M12.2499 2.29761C4.69094 2.29761 2.01294 4.97561 2.01294 12.5346C2.01294 20.0936 4.69094 22.7716 12.2499 22.7716C19.8079 22.7716 22.4869 20.0936 22.4869 12.5346C22.4869 4.97561 19.8079 2.29761 12.2499 2.29761Z" fill="black"/>
<path d="M16.729 18.2024C17.143 18.2024 17.479 17.8664 17.479 17.4524V14.2954C17.479 13.8814 17.143 13.5454 16.729 13.5454C16.315 13.5454 15.979 13.8814 15.979 14.2954V17.4524C15.979 17.8664 16.315 18.2024 16.729 18.2024Z" fill="black"/>
<path d="M12.25 18.2024C12.664 18.2024 13 17.8664 13 17.4524V7.55444C13 7.13944 12.664 6.80444 12.25 6.80444C11.836 6.80444 11.5 7.13944 11.5 7.55444V17.4524C11.5 17.8664 11.836 18.2024 12.25 18.2024Z" fill="black"/>
<path d="M7.69604 18.2024C8.11004 18.2024 8.44604 17.8664 8.44604 17.4524V10.7584C8.44604 10.3444 8.11004 10.0084 7.69604 10.0084C7.28204 10.0084 6.94604 10.3444 6.94604 10.7584V17.4524C6.94604 17.8664 7.28204 18.2024 7.69604 18.2024Z" fill="black"/>
</svg>