<svg width="25" height="25" viewBox="0 0 25 25" fill="none" xmlns="http://www.w3.org/2000/svg">
<path d="M10.7178 3.11865H8.28313C5.34378 3.11865 3.5 5.19984 3.5 8.14503V16.0923C3.5 19.0375 5.33503 21.1187 8.28313 21.1187H16.7169C19.6659 21.1187 21.5 19.0375 21.5 16.0923V14.145" stroke="black" stroke-width="1.5" stroke-linecap="round" stroke-linejoin="round"/>
<path d="M8.07227 17.2405L10.6993 14.4547L14.515 16.9826L17.0907 14.4546" stroke="black" stroke-width="1.5" stroke-linecap="round" stroke-linejoin="round"/>
<path d="M10.1729 10.8428L10.1729 8.35877M7.17127 10.8428L7.17127 6.89737" stroke="black" stroke-width="1.5" stroke-linecap="round" stroke-linejoin="round"/>
<path d="M21.5001 7.13455C21.5001 4.91691 19.7022 3.11865 17.4842 3.11865C15.2661 3.11865 13.4683 4.91691 13.4683 7.13455C13.4683 9.35264 15.2661 11.1505 17.4842 11.1505C19.7022 11.1505 21.5001 9.35264 21.5001 7.13455Z" stroke="black" stroke-width="1.5" stroke-linecap="round" stroke-linejoin="round"/>
<path d="M17.3457 3.12012V6.8257C17.3457 7.07213 17.5455 7.27191 17.7919 7.27191H21.4975" stroke="black" stroke-width="1.5" stroke-linecap="round" stroke-linejoin="round"/>
</svg>