<svg width="24" height="24" viewBox="0 0 24 24" fill="none" xmlns="http://www.w3.org/2000/svg">
<path d="M10.6855 16.8432H12.1353C13.1705 16.8432 14.0063 16.0989 14.0063 15.0636C14.0063 14.2035 13.4245 13.5156 12.5906 13.3064C11.3958 13.0067 10.2049 12.7713 8.95846 12.8014C6.98428 12.8501 5.60264 13.9505 4.03809 14.9984" stroke="black" stroke-width="1.5" stroke-linecap="round" stroke-linejoin="round"/>
<path d="M10.6865 16.8774C11.4191 16.7704 12.1654 16.8784 12.9068 16.8609C14.6241 16.82 15.9698 15.3683 17.2765 14.3837C17.9449 13.8806 18.88 13.9478 19.4706 14.5403C20.1254 15.199 20.1254 16.2654 19.4706 16.9241C18.0588 18.3408 16.8114 19.6563 14.8975 20.3996C12.2423 21.4329 9.77868 20.9318 7.08936 20.3996C6.04924 20.1943 5.09085 20.1817 4.03711 20.1817" stroke="black" stroke-width="1.5" stroke-linecap="round" stroke-linejoin="round"/>
<path d="M15.456 5.27508C15.3665 4.7341 15.1203 4.21355 14.7019 3.79614C13.6404 2.73462 11.9202 2.73462 10.8586 3.79614C9.79712 4.85767 9.79712 6.57888 10.8586 7.6404C11.5193 8.30106 12.4349 8.54917 13.2892 8.38765" stroke="black" stroke-width="1.5" stroke-linecap="round" stroke-linejoin="round"/>
<path fill-rule="evenodd" clip-rule="evenodd" d="M18.6841 7.94508C18.6841 9.44639 17.4669 10.6626 15.9656 10.6626C14.4652 10.6626 13.248 9.44639 13.248 7.94508C13.248 6.44376 14.4652 5.22656 15.9656 5.22656C17.4669 5.22656 18.6841 6.44376 18.6841 7.94508Z" stroke="black" stroke-width="1.5" stroke-linecap="round" stroke-linejoin="round"/>
</svg>