<svg width="24" height="24" viewBox="0 0 24 24" fill="none" xmlns="http://www.w3.org/2000/svg">
<path fill-rule="evenodd" clip-rule="evenodd" d="M13.2998 17.0724H11.9688L12.4568 16.1834C12.6558 15.8214 12.5248 15.3644 12.1608 15.1654C11.7978 14.9654 11.3418 15.0984 11.1428 15.4614L10.0428 17.4614C9.9148 17.6934 9.9198 17.9754 10.0548 18.2044C10.1898 18.4324 10.4348 18.5724 10.6998 18.5724H12.0308L11.5428 19.4614C11.3438 19.8234 11.4758 20.2804 11.8388 20.4794C11.9528 20.5424 12.0768 20.5724 12.1988 20.5724C12.4638 20.5724 12.7208 20.4324 12.8578 20.1834L13.9568 18.1834C14.0848 17.9514 14.0798 17.6694 13.9458 17.4404C13.8108 17.2124 13.5658 17.0724 13.2998 17.0724Z" fill="black"/>
<path fill-rule="evenodd" clip-rule="evenodd" d="M17.3587 10.1702C16.9487 10.1702 16.6087 9.8402 16.6087 9.4302C16.6087 9.0202 16.9487 8.6902 17.3587 8.6902C17.7687 8.6902 18.0987 9.0202 18.0987 9.4302C18.0987 9.8402 17.7687 10.1702 17.3587 10.1702ZM15.8987 11.6302C15.4887 11.6302 15.1487 11.3002 15.1487 10.8902C15.1487 10.4802 15.4887 10.1502 15.8987 10.1502C16.3087 10.1502 16.6387 10.4802 16.6387 10.8902C16.6387 11.3002 16.3087 11.6302 15.8987 11.6302ZM14.4387 10.1702C14.0287 10.1702 13.6887 9.8402 13.6887 9.4302C13.6887 9.0202 14.0287 8.6902 14.4387 8.6902C14.8487 8.6902 15.1787 9.0202 15.1787 9.4302C15.1787 9.8402 14.8487 10.1702 14.4387 10.1702ZM15.8987 7.2202C16.3087 7.2202 16.6387 7.5602 16.6387 7.9702C16.6387 8.3802 16.3087 8.7102 15.8987 8.7102C15.4887 8.7102 15.1487 8.3802 15.1487 7.9702C15.1487 7.5602 15.4887 7.2202 15.8987 7.2202ZM9.28869 10.2302H8.63869V10.8802C8.63869 11.2902 8.29869 11.6302 7.88869 11.6302C7.47869 11.6302 7.13869 11.2902 7.13869 10.8802V10.2302H6.38869C5.97869 10.2302 5.63869 9.8902 5.63869 9.4802C5.63869 9.0602 5.97869 8.7302 6.38869 8.7302H7.13869V7.9802C7.13869 7.5602 7.47869 7.2302 7.88869 7.2302C8.29869 7.2302 8.63869 7.5602 8.63869 7.9802V8.7302H9.28869C9.69869 8.7302 10.0387 9.0602 10.0387 9.4802C10.0387 9.8902 9.69869 10.2302 9.28869 10.2302ZM21.4987 13.0402C21.4987 12.9702 21.3487 5.6902 18.1887 4.0402C18.1887 4.0402 18.1787 4.0302 18.1687 4.0302L18.0587 3.9802C17.3887 3.6702 15.6087 2.8502 13.5887 4.1102C12.1587 5.0002 11.7687 4.9202 10.4087 4.1002C8.32869 2.8702 6.66869 3.6402 5.96869 3.9702L5.80869 4.0402C2.66869 5.6802 2.49869 12.9602 2.49869 13.0102C2.48869 13.7502 2.42869 15.9902 4.34869 16.7702C4.84869 16.9602 5.34869 17.0502 5.82869 17.0502C6.54869 17.0502 7.21869 16.8402 7.76869 16.4302C8.12869 16.1702 8.32869 15.8902 8.50869 15.6502C8.73869 15.3302 8.95869 15.0302 9.56869 14.6802C10.6087 14.0802 13.5187 14.1702 14.4387 14.6802C14.9587 14.9702 15.1787 15.2702 15.4487 15.6102C15.6587 15.8802 15.8787 16.1602 16.2387 16.4302C17.1487 17.1102 18.3987 17.2402 19.6687 16.7702C21.5687 15.9902 21.5187 13.7502 21.4987 13.0402Z" fill="black"/>
</svg>