<svg width="25" height="25" viewBox="0 0 25 25" fill="none" xmlns="http://www.w3.org/2000/svg">
<path d="M17.1196 21.248V6.69724C17.1196 4.67637 15.8606 3.24805 13.8377 3.24805H8.04952C6.03255 3.24805 4.76866 4.67637 4.76866 6.69724V21.248M3.50684 21.248H18.3816" stroke="black" stroke-width="1.5" stroke-linecap="round" stroke-linejoin="round"/>
<path fill-rule="evenodd" clip-rule="evenodd" d="M12.9944 6.71191H8.89425C8.03414 6.71191 7.49414 7.321 7.49414 8.18305V10.5104C7.49414 11.3725 8.03122 11.9815 8.89425 11.9815H12.9944C13.8574 11.9815 14.3945 11.3725 14.3945 10.5104V8.18305C14.3945 7.321 13.8574 6.71191 12.9944 6.71191Z" stroke="black" stroke-width="1.5" stroke-linecap="round" stroke-linejoin="round"/>
<path opacity="0.4" d="M11.5437 9.45117L10.6719 11.9819" stroke="black" stroke-width="1.5" stroke-linecap="round" stroke-linejoin="round"/>
<path opacity="0.4" d="M19.645 6.88965L21.4936 8.7383V16.2701C21.4936 16.8928 20.9896 17.3968 20.3669 17.3968C19.7452 17.3968 19.2402 16.8928 19.2402 16.2701V14.8379C19.2402 14.2161 18.7353 13.7112 18.1135 13.7112H17.1211" stroke="black" stroke-width="1.5" stroke-linecap="round" stroke-linejoin="round"/>
<path opacity="0.4" d="M11.0919 18.1737L11.9686 16.5634H9.79688L10.6735 14.9512" stroke="black" stroke-width="1.5" stroke-linecap="round" stroke-linejoin="round"/>
</svg>