<svg width="25" height="25" viewBox="0 0 25 25" fill="none" xmlns="http://www.w3.org/2000/svg">
<path fill-rule="evenodd" clip-rule="evenodd" d="M12.53 7.3125C12.9442 7.3125 13.28 7.64829 13.28 8.0625V16.1767C13.28 16.5909 12.9442 16.9267 12.53 16.9267C12.1158 16.9267 11.78 16.5909 11.78 16.1767V8.0625C11.78 7.64829 12.1158 7.3125 12.53 7.3125ZM8.79688 9.93834C9.21109 9.93834 9.54688 10.2741 9.54688 10.6883V16.1768C9.54688 16.591 9.21109 16.9268 8.79688 16.9268C8.38266 16.9268 8.04688 16.591 8.04688 16.1768V10.6883C8.04688 10.2741 8.38266 9.93834 8.79688 9.93834ZM16.2023 12.8387C16.6165 12.8387 16.9523 13.1745 16.9523 13.5887V16.1764C16.9523 16.5906 16.6165 16.9264 16.2023 16.9264C15.7881 16.9264 15.4523 16.5906 15.4523 16.1764V13.5887C15.4523 13.1745 15.7881 12.8387 16.2023 12.8387Z" fill="black"/>
<path fill-rule="evenodd" clip-rule="evenodd" d="M2.75 12.1182C2.75 6.73406 7.11481 2.36816 12.5 2.36816C17.8852 2.36816 22.25 6.73406 22.25 12.1182C22.25 17.5033 17.8851 21.8682 12.5 21.8682C7.11487 21.8682 2.75 17.5033 2.75 12.1182ZM12.5 3.86816C7.94335 3.86816 4.25 7.56238 4.25 12.1182C4.25 16.6749 7.9433 20.3682 12.5 20.3682C17.0567 20.3682 20.75 16.6749 20.75 12.1182C20.75 7.56238 17.0567 3.86816 12.5 3.86816Z" fill="black"/>
</svg>