<svg width="25" height="24" viewBox="0 0 25 24" fill="none" xmlns="http://www.w3.org/2000/svg">
<path fill-rule="evenodd" clip-rule="evenodd" d="M5.93447 6.02823C6.78762 5.1348 8.00853 4.68848 9.46558 4.68848H12.8087C14.2826 4.68848 15.52 5.13253 16.387 6.02298C17.2509 6.91017 17.6558 8.14677 17.6558 9.5541V10.2566C17.6558 10.6708 17.32 11.0066 16.9058 11.0066C16.4916 11.0066 16.1558 10.6708 16.1558 10.2566V9.5541C16.1558 8.42784 15.8354 7.60663 15.3123 7.06941C14.7924 6.53544 13.9812 6.18848 12.8087 6.18848H9.46558C8.31704 6.18848 7.52634 6.53317 7.0193 7.06416C6.50717 7.60046 6.19238 8.42327 6.19238 9.5541V16.8591C6.19238 17.995 6.50754 18.8173 7.01864 19.3511C7.52457 19.8796 8.31423 20.2213 9.46334 20.2179L9.46558 20.2179L10.5533 20.2179C10.9676 20.2179 11.3033 20.5537 11.3033 20.9679C11.3033 21.3821 10.9676 21.7179 10.5533 21.7179L9.46782 21.7179C9.4676 21.7179 9.46739 21.7179 9.46717 21.7179C8.01097 21.7221 6.78927 21.2806 5.93513 20.3885C5.08602 19.5015 4.69238 18.2655 4.69238 16.8591V9.5541C4.69238 8.15134 5.0864 6.91634 5.93447 6.02823Z" fill="black"/>
<path fill-rule="evenodd" clip-rule="evenodd" d="M8.30112 2.82823C8.84678 2.38051 9.5712 2.25 10.3039 2.25H12.0085C12.7509 2.25 13.4825 2.37979 14.0343 2.82358C14.6215 3.2958 14.8543 3.99602 14.8543 4.79025V5.58905C14.8543 6.00326 14.5185 6.33905 14.1043 6.33905C13.6901 6.33905 13.3543 6.00326 13.3543 5.58905V4.79025C13.3543 4.28557 13.2164 4.09067 13.0943 3.99249C12.9369 3.86588 12.6205 3.75 12.0085 3.75H10.3039C9.70562 3.75 9.4021 3.86516 9.25259 3.98784C9.13523 4.08413 8.99805 4.28014 8.99805 4.79025V5.58127C8.99805 5.99548 8.66226 6.33127 8.24805 6.33127C7.83383 6.33127 7.49805 5.99548 7.49805 5.58127V4.79025C7.49805 4.00146 7.72329 3.30233 8.30112 2.82823Z" fill="black"/>
<path fill-rule="evenodd" clip-rule="evenodd" d="M16.1801 13.5107C14.3195 13.5107 12.8105 15.0197 12.8105 16.8803C12.8105 18.7408 14.3195 20.2498 16.1801 20.2498C18.0406 20.2498 19.5496 18.7408 19.5496 16.8803C19.5496 15.0197 18.0406 13.5107 16.1801 13.5107ZM11.3105 16.8803C11.3105 14.1913 13.4911 12.0107 16.1801 12.0107C18.8691 12.0107 21.0496 14.1913 21.0496 16.8803C21.0496 19.5693 18.8691 21.7498 16.1801 21.7498C13.4911 21.7498 11.3105 19.5693 11.3105 16.8803Z" fill="black"/>
<path fill-rule="evenodd" clip-rule="evenodd" d="M16.0293 14.5615C16.4435 14.5615 16.7793 14.8973 16.7793 15.3115V16.7619L17.8677 17.4125C18.2232 17.625 18.3392 18.0855 18.1267 18.441C17.9141 18.7966 17.4536 18.9125 17.0981 18.7L15.6445 17.8312C15.418 17.6958 15.2793 17.4513 15.2793 17.1874V15.3115C15.2793 14.8973 15.6151 14.5615 16.0293 14.5615Z" fill="black"/>
</svg>