<svg width="25" height="25" viewBox="0 0 25 25" fill="none" xmlns="http://www.w3.org/2000/svg">
<path fill-rule="evenodd" clip-rule="evenodd" d="M10.3965 8.25684C10.8107 8.25684 11.1465 8.59262 11.1465 9.00684V15.2269C11.1465 15.6412 10.8107 15.9769 10.3965 15.9769C9.98227 15.9769 9.64648 15.6412 9.64648 15.2269V9.00684C9.64648 8.59262 9.98227 8.25684 10.3965 8.25684ZM14.6034 11.3421C15.0176 11.3421 15.3534 11.6779 15.3534 12.0921V15.2273C15.3534 15.6415 15.0176 15.9773 14.6034 15.9773C14.1892 15.9773 13.8534 15.6415 13.8534 15.2273V12.0921C13.8534 11.6779 14.1892 11.3421 14.6034 11.3421Z" fill="black"/>
<path fill-rule="evenodd" clip-rule="evenodd" d="M2.75 12.1182C2.75 6.73406 7.11481 2.36816 12.5 2.36816C17.8852 2.36816 22.25 6.73406 22.25 12.1182C22.25 17.5033 17.8851 21.8682 12.5 21.8682C7.11487 21.8682 2.75 17.5033 2.75 12.1182ZM12.5 3.86816C7.94335 3.86816 4.25 7.56238 4.25 12.1182C4.25 16.6749 7.9433 20.3682 12.5 20.3682C17.0567 20.3682 20.75 16.6749 20.75 12.1182C20.75 7.56238 17.0567 3.86816 12.5 3.86816Z" fill="black"/>
</svg>