<svg width="25" height="25" viewBox="0 0 25 25" fill="none" xmlns="http://www.w3.org/2000/svg">
<path fill-rule="evenodd" clip-rule="evenodd" d="M4.85401 3.70354C5.57847 2.92604 6.6052 2.49805 7.79952 2.49805H13.5877C14.7845 2.49805 15.8118 2.92572 16.5361 3.70377C17.2549 4.47577 17.6196 5.53193 17.6196 6.69724V20.498H18.1316C18.5459 20.498 18.8816 20.8338 18.8816 21.248C18.8816 21.6623 18.5459 21.998 18.1316 21.998H3.25684C2.84262 21.998 2.50684 21.6623 2.50684 21.248C2.50684 20.8338 2.84262 20.498 3.25684 20.498H3.76866V6.69724C3.76866 5.53117 4.13504 4.47515 4.85401 3.70354ZM5.26866 20.498H16.1196V6.69724C16.1196 5.84168 15.8548 5.17324 15.4383 4.72586C15.0274 4.28454 14.4138 3.99805 13.5877 3.99805H7.79952C6.97688 3.99805 6.36318 4.28422 5.95144 4.7261C5.53423 5.17386 5.26866 5.84244 5.26866 6.69724V20.498Z" fill="black"/>
<path fill-rule="evenodd" clip-rule="evenodd" d="M7.07318 6.61267C7.472 6.18504 8.02841 5.96191 8.64425 5.96191H12.7444C13.3611 5.96191 13.918 6.18469 14.3169 6.61309C14.7102 7.03545 14.8945 7.59713 14.8945 8.18305V10.5104C14.8945 11.0963 14.7102 11.658 14.3169 12.0804C13.918 12.5088 13.3611 12.7315 12.7444 12.7315H8.64425C8.02751 12.7315 7.47064 12.5088 7.0717 12.0804C6.67838 11.658 6.49414 11.0963 6.49414 10.5104V8.18305C6.49414 7.59607 6.67974 7.03452 7.07318 6.61267ZM8.17013 7.63575C8.07854 7.73396 7.99414 7.90798 7.99414 8.18305V10.5104C7.99414 10.7865 8.07845 10.9604 8.16942 11.0581C8.25478 11.1498 8.39796 11.2315 8.64425 11.2315H12.7444C12.9906 11.2315 13.1338 11.1498 13.2192 11.0581C13.3102 10.9604 13.3945 10.7865 13.3945 10.5104V8.18305C13.3945 7.90691 13.3102 7.73303 13.2192 7.63534C13.1338 7.54368 12.9906 7.46191 12.7444 7.46191H8.64425C8.39998 7.46191 8.25633 7.54333 8.17013 7.63575Z" fill="black"/>
<path fill-rule="evenodd" clip-rule="evenodd" d="M11.5381 8.74227C11.9298 8.87718 12.1379 9.30402 12.003 9.69565L11.1312 12.2264C10.9963 12.618 10.5694 12.8261 10.1778 12.6912C9.78618 12.5563 9.57807 12.1294 9.71297 11.7378L10.5848 9.2071C10.7197 8.81547 11.1465 8.60736 11.5381 8.74227Z" fill="black"/>
<path fill-rule="evenodd" clip-rule="evenodd" d="M18.8647 6.35932C19.1575 6.06643 19.6324 6.06643 19.9253 6.35932L21.774 8.20797C21.9146 8.34862 21.9936 8.53938 21.9936 8.7383V16.2701C21.9936 17.307 21.1539 18.1468 20.1169 18.1468C19.0814 18.1468 18.2402 17.3074 18.2402 16.2701V14.8379C18.2402 14.6303 18.071 14.4612 17.8635 14.4612H16.8711C16.4569 14.4612 16.1211 14.1254 16.1211 13.7112C16.1211 13.2969 16.4569 12.9612 16.8711 12.9612H17.8635C18.8995 12.9612 19.7402 13.8019 19.7402 14.8379V16.2701C19.7402 16.4781 19.909 16.6468 20.1169 16.6468C20.3254 16.6468 20.4936 16.4786 20.4936 16.2701V9.04896L18.8647 7.41998C18.5718 7.12709 18.5718 6.65221 18.8647 6.35932Z" fill="black"/>
<path fill-rule="evenodd" clip-rule="evenodd" d="M10.7818 14.2924C11.1457 14.4903 11.2803 14.9457 11.0824 15.3096L10.8084 15.8135H11.7186C11.9831 15.8135 12.2282 15.953 12.3633 16.1804C12.4985 16.4079 12.5038 16.6898 12.3773 16.9221L11.5006 18.5324C11.3026 18.8962 10.8471 19.0306 10.4833 18.8325C10.1195 18.6345 9.98514 18.179 10.1832 17.8152L10.4563 17.3135H9.54688C9.28235 17.3135 9.03738 17.1742 8.9022 16.9468C8.76702 16.7194 8.76162 16.4376 8.88798 16.2053L9.76463 14.593C9.9625 14.2291 10.4179 14.0946 10.7818 14.2924Z" fill="black"/>
</svg>