<svg width="25" height="25" viewBox="0 0 25 25" fill="none" xmlns="http://www.w3.org/2000/svg">
<path fill-rule="evenodd" clip-rule="evenodd" d="M15.3374 2.36914C15.7516 2.36914 16.0874 2.70493 16.0874 3.11914V4.54019C16.0874 4.95441 15.7516 5.29019 15.3374 5.29019C14.9232 5.29019 14.5874 4.95441 14.5874 4.54019V3.11914C14.5874 2.70493 14.9232 2.36914 15.3374 2.36914ZM20.6046 4.00986C20.8975 4.30276 20.8975 4.77763 20.6046 5.07052L19.5997 6.07536C19.3068 6.36825 18.832 6.36825 18.5391 6.07536C18.2462 5.78247 18.2462 5.30759 18.5391 5.0147L19.5439 4.00986C19.8368 3.71697 20.3117 3.71697 20.6046 4.00986ZM19.334 9.27704C19.334 8.86282 19.6697 8.52704 20.084 8.52704H21.505C21.9192 8.52704 22.255 8.86282 22.255 9.27704C22.255 9.69125 21.9192 10.027 21.505 10.027H20.084C19.6697 10.027 19.334 9.69125 19.334 9.27704Z" fill="black"/>
<path fill-rule="evenodd" clip-rule="evenodd" d="M5.34255 5.87183C4.67124 6.49701 4.25 7.42054 4.25 8.62893V16.5997C4.25 17.8076 4.67118 18.7306 5.34243 19.3554C6.01976 19.9859 7.0135 20.3694 8.25048 20.3694H15.7615C16.9975 20.3694 17.9914 19.9844 18.6692 19.3527C19.3411 18.7264 19.762 17.8029 19.762 16.5997V13.628C19.762 13.2138 20.0977 12.878 20.512 12.878C20.9262 12.878 21.262 13.2138 21.262 13.628V16.5997C21.262 18.1745 20.6994 19.5109 19.6919 20.4499C18.6903 21.3835 17.309 21.8694 15.7615 21.8694H8.25048C6.70392 21.8694 5.32243 21.3861 4.3204 20.4534C3.3123 19.515 2.75 18.1782 2.75 16.5997V8.62893C2.75 7.05011 3.31224 5.71289 4.32028 4.77412C5.32229 3.84097 6.70382 3.35742 8.25048 3.35742H10.7615C11.1757 3.35742 11.5115 3.69321 11.5115 4.10742C11.5115 4.52164 11.1757 4.85742 10.7615 4.85742H8.25048C7.01361 4.85742 6.0199 5.24103 5.34255 5.87183Z" fill="black"/>
<path fill-rule="evenodd" clip-rule="evenodd" d="M11.2715 8.80371C11.2715 8.3895 11.6073 8.05371 12.0215 8.05371H15.811C16.2252 8.05371 16.561 8.3895 16.561 8.80371V12.5932C16.561 13.0074 16.2252 13.3432 15.811 13.3432C15.3967 13.3432 15.061 13.0074 15.061 12.5932V9.55371H12.0215C11.6073 9.55371 11.2715 9.21792 11.2715 8.80371Z" fill="black"/>
<path fill-rule="evenodd" clip-rule="evenodd" d="M15.8839 8.19152C16.222 8.43076 16.3022 8.89882 16.063 9.23696C13.698 12.5796 9.79913 14.7643 5.38996 14.7643C4.70717 14.7643 4.03614 14.7119 3.38077 14.6107C2.97141 14.5475 2.6908 14.1644 2.75401 13.755C2.81722 13.3456 3.20031 13.065 3.60968 13.1282C4.18957 13.2178 4.78408 13.2643 5.38996 13.2643C9.29179 13.2643 12.7426 11.3329 14.8385 8.37059C15.0777 8.03245 15.5458 7.95228 15.8839 8.19152Z" fill="black"/>
</svg>