<svg width="25" height="24" viewBox="0 0 25 24" fill="none" xmlns="http://www.w3.org/2000/svg">
<path d="M16.6558 10.2566V9.5541C16.6558 7.02051 15.2051 5.43848 12.5587 5.43848H9.21558C6.60999 5.43848 5.19238 7.02051 5.19238 9.5541V16.8591C5.19238 19.4014 6.60999 20.9757 9.21558 20.9679H10.3033" stroke="black" stroke-width="1.5" stroke-linecap="round" stroke-linejoin="round"/>
<path d="M13.8543 5.58905V4.79025C13.8543 3.49135 13.1129 3 11.7585 3H10.0539C8.7229 3 7.99805 3.49135 7.99805 4.79025V5.58127" stroke="black" stroke-width="1.5" stroke-linecap="round" stroke-linejoin="round"/>
<path d="M15.9301 20.9998C18.2048 20.9998 20.0496 19.155 20.0496 16.8803C20.0496 14.6055 18.2048 12.7607 15.9301 12.7607C13.6553 12.7607 11.8105 14.6055 11.8105 16.8803C11.8105 19.155 13.6553 20.9998 15.9301 20.9998Z" stroke="black" stroke-width="1.5" stroke-linecap="round" stroke-linejoin="round"/>
<path d="M17.2329 18.0562L15.7793 17.1874V15.3115" stroke="black" stroke-width="1.5" stroke-linecap="round" stroke-linejoin="round"/>
</svg>