<svg width="25" height="24" viewBox="0 0 25 24" fill="none" xmlns="http://www.w3.org/2000/svg">
<path d="M11.1855 16.8432H12.6353C13.6705 16.8432 14.5063 16.0989 14.5063 15.0636C14.5063 14.2035 13.9245 13.5156 13.0906 13.3064C11.8958 13.0067 10.7049 12.7713 9.45846 12.8014C7.48428 12.8501 6.10264 13.9505 4.53809 14.9984" stroke="black" stroke-width="1.5" stroke-linecap="round" stroke-linejoin="round"/>
<path d="M11.1865 16.8774C11.9191 16.7704 12.6654 16.8784 13.4068 16.8609C15.1241 16.82 16.4698 15.3683 17.7765 14.3837C18.4449 13.8806 19.38 13.9478 19.9706 14.5403C20.6254 15.199 20.6254 16.2654 19.9706 16.9241C18.5588 18.3408 17.3114 19.6563 15.3975 20.3996C12.7423 21.4329 10.2787 20.9318 7.58936 20.3996C6.54924 20.1943 5.59085 20.1817 4.53711 20.1817" stroke="black" stroke-width="1.5" stroke-linecap="round" stroke-linejoin="round"/>
<path opacity="0.4" d="M15.956 5.27508C15.8665 4.7341 15.6203 4.21355 15.2019 3.79614C14.1404 2.73462 12.4202 2.73462 11.3586 3.79614C10.2971 4.85767 10.2971 6.57888 11.3586 7.6404C12.0193 8.30106 12.9349 8.54917 13.7892 8.38765" stroke="black" stroke-width="1.5" stroke-linecap="round" stroke-linejoin="round"/>
<path fill-rule="evenodd" clip-rule="evenodd" d="M19.1841 7.94508C19.1841 9.44639 17.9669 10.6626 16.4656 10.6626C14.9652 10.6626 13.748 9.44639 13.748 7.94508C13.748 6.44376 14.9652 5.22656 16.4656 5.22656C17.9669 5.22656 19.1841 6.44376 19.1841 7.94508Z" stroke="black" stroke-width="1.5" stroke-linecap="round" stroke-linejoin="round"/>
</svg>