<svg width="25" height="24" viewBox="0 0 25 24" fill="none" xmlns="http://www.w3.org/2000/svg">
<path d="M16.7178 21C19.6659 21 21.5 18.9198 21.5 15.9736V8.02735C21.5 5.08119 19.6659 3 16.7169 3H8.28313C5.33503 3 3.5 5.08119 3.5 8.02735V15.9736C3.5 18.9198 5.34378 21 8.28313 21H13.2858" stroke="black" stroke-width="1.5" stroke-linecap="round" stroke-linejoin="round"/>
<path d="M16.535 14.2574C15.4005 16.2889 12.8941 17.1821 10.702 16.2558C8.35033 15.2615 7.25087 12.5498 8.24525 10.1981C8.62471 9.29909 9.27757 8.54796 10.1036 8.04688" stroke="black" stroke-width="1.5" stroke-linecap="round" stroke-linejoin="round"/>
<path fill-rule="evenodd" clip-rule="evenodd" d="M17.1226 11.1399C17.1479 9.68438 15.3615 7.33952 13.183 7.37941C13.0128 7.38622 12.8766 7.52341 12.8707 7.69368C12.8629 8.44773 12.8649 9.71649 12.8678 10.5727C12.8688 11.0679 13.2677 11.4678 13.7639 11.4717C14.6814 11.4776 16.0815 11.4834 16.8424 11.4639C17.001 11.4377 17.1197 11.3015 17.1226 11.1399Z" stroke="black" stroke-width="1.5" stroke-linecap="round" stroke-linejoin="round"/>
</svg>