<svg width="25" height="25" viewBox="0 0 25 25" fill="none" xmlns="http://www.w3.org/2000/svg">
<path opacity="0.4" fill-rule="evenodd" clip-rule="evenodd" d="M19.1555 5.25821C17.3205 3.42321 14.8795 2.41321 12.2795 2.41321C9.68049 2.41321 7.23749 3.42421 5.40249 5.25921C3.56249 7.09921 2.55049 9.54321 2.55249 12.1442C2.55549 15.4952 2.50449 21.3382 2.50449 21.3382L2.50049 21.8472L3.00849 21.8432C3.06649 21.8422 8.81749 21.7912 12.0685 21.8622C12.1425 21.8632 12.2155 21.8642 12.2895 21.8642C14.8825 21.8642 17.3135 20.8572 19.1555 19.0152C22.9475 15.2222 22.9475 9.05121 19.1555 5.25821Z" fill="black"/>
<path d="M16.7872 13.2701H15.1892V11.7701H16.7872V13.2701Z" fill="black"/>
<path d="M13.0532 13.2701H11.4542V11.7701H13.0532V13.2701Z" fill="black"/>
<path d="M9.31921 13.2701H7.72021V11.7701H9.31921V13.2701Z" fill="black"/>
</svg>