<svg width="25" height="25" viewBox="0 0 25 25" fill="none" xmlns="http://www.w3.org/2000/svg">
<path fill-rule="evenodd" clip-rule="evenodd" d="M2.80078 7.54177C2.80078 4.94677 4.89842 2.83984 7.49035 2.83984H17.6122C20.2044 2.83984 22.3008 4.94702 22.3008 7.54177V14.4811C22.3008 17.0756 20.2046 19.184 17.6122 19.184H16.5439C16.171 19.184 15.8134 19.3321 15.5495 19.597L14.1274 21.0229C13.257 21.8971 11.8452 21.8969 10.9746 21.0233L9.55307 19.597C9.28911 19.3321 8.93153 19.184 8.55867 19.184H7.49035C4.89818 19.184 2.80078 17.0758 2.80078 14.4811V7.54177ZM7.49035 4.33984C5.73114 4.33984 4.30078 5.7709 4.30078 7.54177V14.4811C4.30078 16.2522 5.73138 17.684 7.49035 17.684H8.55867C9.33003 17.684 10.07 17.9907 10.6155 18.5381L12.037 19.9645C12.3221 20.2505 12.7806 20.2499 13.0641 19.9649L14.487 18.5381C14.4871 18.5381 14.487 18.5382 14.487 18.5381C15.0325 17.9909 15.7726 17.684 16.5439 17.684H17.6122C19.3709 17.684 20.8008 16.2524 20.8008 14.4811V7.54177C20.8008 5.77066 19.3712 4.33984 17.6122 4.33984H7.49035Z" fill="black"/>
<path fill-rule="evenodd" clip-rule="evenodd" d="M8.93571 10.7721C9.31514 10.606 9.75742 10.7789 9.92355 11.1584C10.3646 12.1658 11.3764 12.8726 12.5505 12.8726C13.7256 12.8726 14.7373 12.1657 15.1783 11.1584C15.3445 10.7789 15.7868 10.606 16.1662 10.7721C16.5456 10.9383 16.7185 11.3805 16.5524 11.76C15.8804 13.2949 14.341 14.3726 12.5505 14.3726C10.7608 14.3726 9.22148 13.2948 8.54949 11.76C8.38335 11.3805 8.55627 10.9383 8.93571 10.7721Z" fill="black"/>
</svg>