<svg width="25" height="25" viewBox="0 0 25 25" fill="none" xmlns="http://www.w3.org/2000/svg">
<path opacity="0.4" fill-rule="evenodd" clip-rule="evenodd" d="M17.3618 3.12305H7.23978C4.92978 3.12305 3.05078 5.00805 3.05078 7.32505V14.264C3.05078 16.582 4.92978 18.467 7.23978 18.467H8.30878C8.81078 18.467 9.30278 18.671 9.65678 19.028L11.0778 20.453C11.4058 20.781 11.8398 20.962 12.3008 20.962H12.3018C12.7628 20.962 13.1968 20.781 13.5228 20.454L14.9448 19.027C15.2998 18.672 15.7918 18.467 16.2938 18.467H17.3618C19.6708 18.467 21.5508 16.582 21.5508 14.264V7.32505C21.5508 5.00805 19.6708 3.12305 17.3618 3.12305Z" fill="black"/>
<path fill-rule="evenodd" clip-rule="evenodd" d="M15.2995 13.4635L15.2973 13.4632L15.2938 13.4629H9.30882C9.30732 13.4629 9.30582 13.4632 9.30432 13.4634C9.30282 13.4637 9.30132 13.4639 9.29982 13.4639C7.84582 13.4639 6.66382 12.2789 6.66382 10.8219C6.66382 9.36493 7.84582 8.17993 9.29982 8.17993C10.7528 8.17993 11.9348 9.36493 11.9348 10.8219C11.9348 11.2319 11.8328 11.6159 11.6658 11.9629H12.9368C12.7698 11.6159 12.6678 11.2319 12.6678 10.8219C12.6678 9.36493 13.8498 8.17993 15.3038 8.17993C16.7568 8.17993 17.9388 9.36493 17.9388 10.8219C17.9388 12.2789 16.7568 13.4639 15.3038 13.4639L15.3011 13.4637L15.2995 13.4635ZM10.4344 10.8219C10.4344 11.4499 9.92742 11.9599 9.30442 11.9629H9.29642C8.67142 11.9619 8.16342 11.4509 8.16342 10.8219C8.16342 10.1919 8.67342 9.67993 9.29942 9.67993C9.92542 9.67993 10.4344 10.1919 10.4344 10.8219ZM14.1678 10.8224C14.1678 10.1924 14.6778 9.68042 15.3038 9.68042C15.9288 9.68042 16.4388 10.1924 16.4388 10.8224C16.4388 11.4514 15.9308 11.9624 15.3058 11.9634H15.2988C14.6748 11.9604 14.1678 11.4504 14.1678 10.8224Z" fill="black"/>
</svg>