<svg width="25" height="25" viewBox="0 0 25 25" fill="none" xmlns="http://www.w3.org/2000/svg">
<path fill-rule="evenodd" clip-rule="evenodd" d="M18.2677 6.64269C14.9613 3.3359 9.58847 3.3359 6.28204 6.64355C4.62282 8.30241 3.79657 10.4711 3.79819 12.6426C3.79943 14.3218 3.78737 16.6241 3.77501 18.5051C3.76883 19.4459 3.76257 20.2819 3.75785 20.8827L3.75621 21.0871C3.81761 21.0867 3.8822 21.0863 3.94981 21.0859C4.54389 21.0822 5.37036 21.0779 6.30002 21.0759C8.15728 21.0719 10.4337 21.0767 12.0909 21.1125C14.3214 21.1607 16.5632 20.3356 18.2677 18.6309C21.5745 15.3237 21.5803 9.95569 18.2677 6.64269ZM3 21.8428L2.25002 21.8363L2.2579 20.871C2.26261 20.2706 2.26886 19.4353 2.27504 18.4952C2.2874 16.6145 2.29943 14.317 2.29819 12.6437C2.29629 10.0902 3.26915 7.53475 5.22118 5.58308C5.22124 5.58303 5.22113 5.58314 5.22118 5.58308M5.22118 5.58308C9.11344 1.68956 15.4362 1.68946 19.3284 5.58209C23.2274 9.48154 23.2203 15.7992 19.3284 19.6915C17.3229 21.6972 14.6811 22.6689 12.0585 22.6122C10.4205 22.5768 8.15957 22.5719 6.30328 22.5759C5.37615 22.5779 4.5518 22.5821 3.95925 22.5859C3.663 22.5877 3.42473 22.5895 3.26059 22.5907L3.00771 22.5928L3 21.8428L3.00671 22.5928L2.24341 22.5996L2.25002 21.8363L3 21.8428" fill="black"/>
<path fill-rule="evenodd" clip-rule="evenodd" d="M7.71594 12.2695H9.31468V13.7695H7.71594V12.2695Z" fill="black"/>
<path fill-rule="evenodd" clip-rule="evenodd" d="M11.4502 12.2696H13.0489V13.7696H11.4502V12.2696Z" fill="black"/>
<path fill-rule="evenodd" clip-rule="evenodd" d="M15.1845 12.2695H16.7832V13.7695H15.1845V12.2695Z" fill="black"/>
</svg>