<svg width="25" height="25" viewBox="0 0 25 25" fill="none" xmlns="http://www.w3.org/2000/svg">
<path opacity="0.4" d="M11.7558 20.2771L10.3343 18.8507C9.92954 18.4446 9.38078 18.2171 8.80867 18.2171H7.74035C5.56478 18.2171 3.80078 16.4472 3.80078 14.2642V7.32496C3.80078 5.14204 5.56478 3.37305 7.74035 3.37305H17.8622C20.0378 3.37305 21.8008 5.14204 21.8008 7.32496V14.2642C21.8008 16.4472 20.0378 18.2171 17.8622 18.2171H16.7939C16.2218 18.2171 15.673 18.4446 15.2682 18.8507L13.8458 20.2771C13.2688 20.857 12.3338 20.857 11.7558 20.2771Z" stroke="black" stroke-width="1.5" stroke-linecap="round" stroke-linejoin="round"/>
<path fill-rule="evenodd" clip-rule="evenodd" d="M7.91406 10.8217C7.91406 11.8663 8.7586 12.7137 9.79968 12.7137C10.8417 12.7137 11.6853 11.8663 11.6853 10.8217C11.6853 9.77708 10.8417 8.92969 9.79968 8.92969C8.7586 8.92969 7.91406 9.77708 7.91406 10.8217Z" stroke="black" stroke-width="1.5" stroke-linecap="round" stroke-linejoin="round"/>
<path fill-rule="evenodd" clip-rule="evenodd" d="M13.918 10.8217C13.918 11.8663 14.7625 12.7137 15.8036 12.7137C16.8456 12.7137 17.6892 11.8663 17.6892 10.8217C17.6892 9.77708 16.8456 8.92969 15.8036 8.92969C14.7625 8.92969 13.918 9.77708 13.918 10.8217Z" stroke="black" stroke-width="1.5" stroke-linecap="round" stroke-linejoin="round"/>
<path d="M15.8039 12.7129H9.79883" stroke="black" stroke-width="1.5" stroke-linecap="round" stroke-linejoin="round"/>
</svg>