<svg width="24" height="24" viewBox="0 0 24 24" fill="none" xmlns="http://www.w3.org/2000/svg">
<circle cx="1.54813" cy="1.54813" r="1.54813" transform="matrix(-1 0 0 1 16.9927 4.5)" stroke="black" stroke-width="1.5" stroke-linejoin="round"/>
<circle cx="1.54813" cy="1.54813" r="1.54813" transform="matrix(-1 0 0 1 6.15576 16.3691)" stroke="black" stroke-width="1.5" stroke-linejoin="round"/>
<path d="M13.8965 6.04883H6.67189C5.53188 6.04883 4.60772 6.97299 4.60772 8.113V16.3697" stroke="black" stroke-width="1.5" stroke-linejoin="round"/>
<path d="M11.2202 10.623H19.0916C20.1784 10.623 21.0595 11.5041 21.0595 12.5909L21.0596 19.8393C21.0596 20.3651 20.472 20.6772 20.0363 20.3828L18.1143 19.0839C17.9351 18.9629 17.7238 18.8982 17.5075 18.8982H11.2202C10.1333 18.8982 9.25227 18.0171 9.25227 16.9303V12.5909C9.25227 11.5041 10.1333 10.623 11.2202 10.623Z" stroke="black" stroke-width="1.5" stroke-linejoin="round"/>
</svg>