<svg width="25" height="24" viewBox="0 0 25 24" fill="none" xmlns="http://www.w3.org/2000/svg">
<path opacity="0.4" fill-rule="evenodd" clip-rule="evenodd" d="M19.3581 5.12005C17.5231 3.28505 15.0821 2.27405 12.4821 2.27405C9.8831 2.27405 7.4401 3.28505 5.6051 5.12105C3.7651 6.96005 2.7531 9.40505 2.7551 12.004C2.7551 14.64 4.1391 17.152 4.6411 17.976L2.2981 21.712L3.2111 21.704C3.2691 21.704 9.0211 21.654 12.2711 21.724C12.3441 21.725 12.4161 21.726 12.4881 21.726C15.0841 21.726 17.5161 20.719 19.3581 18.876C23.1501 15.083 23.1501 8.91305 19.3581 5.12005Z" fill="black"/>
<path d="M16.9901 13.131H15.3921V11.631H16.9901V13.131Z" fill="black"/>
<path d="M13.2561 13.131H11.6571V11.631H13.2561V13.131Z" fill="black"/>
<path d="M9.5221 13.131H7.9231V11.631H9.5221V13.131Z" fill="black"/>
</svg>