<svg width="25" height="25" viewBox="0 0 25 25" fill="none" xmlns="http://www.w3.org/2000/svg">
<path opacity="0.4" fill-rule="evenodd" clip-rule="evenodd" d="M17.3618 3.33984H7.23978C4.92978 3.33984 3.05078 5.22484 3.05078 7.54184V14.4808C3.05078 16.7988 4.92978 18.6838 7.23978 18.6838H8.30878C8.81078 18.6838 9.30278 18.8878 9.65678 19.2438L11.0778 20.6708C11.4058 20.9988 11.8398 21.1788 12.3008 21.1788H12.3018C12.7628 21.1788 13.1968 20.9988 13.5228 20.6708L14.9448 19.2448C15.2998 18.8878 15.7918 18.6838 16.2938 18.6838H17.3618C19.6708 18.6838 21.5508 16.7988 21.5508 14.4808V7.54184C21.5508 5.22484 19.6708 3.33984 17.3618 3.33984Z" fill="black"/>
<path fill-rule="evenodd" clip-rule="evenodd" d="M14.6138 11.9089H13.0508V13.4859C13.0508 13.8999 12.7148 14.2359 12.3008 14.2359C11.8858 14.2359 11.5508 13.8999 11.5508 13.4859V11.9089H9.98779C9.57279 11.9089 9.23779 11.5729 9.23779 11.1589C9.23779 10.7449 9.57279 10.4089 9.98779 10.4089H11.5508V8.83594C11.5508 8.42194 11.8858 8.08594 12.3008 8.08594C12.7148 8.08594 13.0508 8.42194 13.0508 8.83594V10.4089H14.6138C15.0278 10.4089 15.3638 10.7449 15.3638 11.1589C15.3638 11.5729 15.0278 11.9089 14.6138 11.9089Z" fill="black"/>
</svg>