<svg width="25" height="25" viewBox="0 0 25 25" fill="none" xmlns="http://www.w3.org/2000/svg">
<path fill-rule="evenodd" clip-rule="evenodd" d="M15.1895 13.2701H16.7875V11.7701H15.1895V13.2701ZM11.4545 13.2701H13.0535V11.7701H11.4545V13.2701ZM7.72049 13.2701H9.31949V11.7701H7.72049V13.2701ZM19.1555 5.25815C17.3205 3.42315 14.8795 2.41315 12.2795 2.41315C9.68049 2.41315 7.23749 3.42415 5.40249 5.25915C3.56249 7.09915 2.55049 9.54315 2.55249 12.1441C2.55549 15.4951 2.50449 21.3381 2.50449 21.3381L2.50049 21.8471L3.00849 21.8431C3.06649 21.8421 8.81749 21.7911 12.0685 21.8621C12.1425 21.8631 12.2155 21.8641 12.2895 21.8641C14.8825 21.8641 17.3135 20.8571 19.1555 19.0151C22.9475 15.2221 22.9475 9.05115 19.1555 5.25815Z" fill="black"/>
</svg>