<svg width="25" height="25" viewBox="0 0 25 25" fill="none" xmlns="http://www.w3.org/2000/svg">
<path fill-rule="evenodd" clip-rule="evenodd" d="M12.2918 7.57104C11.0598 7.57104 10.0568 8.57904 10.0568 9.81804C10.0568 11.056 11.0598 12.064 12.2918 12.064C13.5248 12.064 14.5278 11.056 14.5278 9.81804C14.5278 8.57904 13.5248 7.57104 12.2918 7.57104Z" fill="black"/>
<path fill-rule="evenodd" clip-rule="evenodd" d="M12.2918 13.564C10.2318 13.564 8.55678 11.883 8.55678 9.81805C8.55678 7.75205 10.2318 6.07105 12.2918 6.07105C14.3528 6.07105 16.0278 7.75205 16.0278 9.81805C16.0278 11.883 14.3528 13.564 12.2918 13.564ZM17.3628 3.12305H7.24078C4.92978 3.12305 3.05078 5.00905 3.05078 7.32505V14.264C3.05078 16.464 4.74978 18.254 6.89778 18.432C6.89478 18.399 6.87978 18.369 6.88078 18.334C6.92978 16.301 8.62078 14.249 12.2918 14.249C15.9778 14.249 17.6738 16.301 17.7218 18.335C17.7218 18.369 17.7078 18.399 17.7038 18.432C19.8518 18.255 21.5508 16.464 21.5508 14.264V7.32505C21.5508 5.00905 19.6718 3.12305 17.3628 3.12305Z" fill="black"/>
<path fill-rule="evenodd" clip-rule="evenodd" d="M16.2215 18.3698C16.1935 17.1608 15.1475 15.7488 12.2915 15.7488C9.45048 15.7488 8.40948 17.1618 8.38048 18.3698C8.37948 18.4068 8.36348 18.4368 8.35748 18.4718C8.84848 18.4848 9.30848 18.6778 9.65748 19.0278L11.0795 20.4538C11.4055 20.7818 11.8405 20.9618 12.3015 20.9618C12.7625 20.9618 13.1965 20.7818 13.5225 20.4538L14.9445 19.0278C15.2945 18.6788 15.7535 18.4848 16.2445 18.4718C16.2385 18.4368 16.2225 18.4058 16.2215 18.3698Z" fill="black"/>
</svg>