<svg width="25" height="24" viewBox="0 0 25 24" fill="none" xmlns="http://www.w3.org/2000/svg">
<path opacity="0.4" fill-rule="evenodd" clip-rule="evenodd" d="M19.6766 4.57605C17.6956 2.59505 15.0586 1.50305 12.2526 1.50305C9.44664 1.50305 6.80964 2.59505 4.82864 4.57605C1.72664 7.67905 0.880636 12.4411 2.70564 16.3751C2.73864 16.5371 2.64964 17.1961 2.58564 17.6781C2.34364 19.4841 2.21964 20.8101 2.83264 21.4241C3.44464 22.0371 4.76964 21.9131 6.57564 21.6701C7.05764 21.6061 7.72464 21.5201 7.82864 21.5311C9.23464 22.1821 10.7376 22.4971 12.2296 22.4971C14.9676 22.4971 17.6696 21.4351 19.6766 19.4271C23.7696 15.3321 23.7706 8.67005 19.6766 4.57605Z" fill="black"/>
<path d="M15.1955 12.4161C15.1955 12.9691 15.6485 13.4161 16.2005 13.4161C16.7525 13.4161 17.2005 12.9691 17.2005 12.4161C17.2005 11.8631 16.7525 11.4161 16.2005 11.4161H16.1915C15.6385 11.4161 15.1955 11.8631 15.1955 12.4161Z" fill="black"/>
<path d="M11.1865 12.4161C11.1865 12.9691 11.6385 13.4161 12.1915 13.4161C12.7435 13.4161 13.1915 12.9691 13.1915 12.4161C13.1915 11.8631 12.7435 11.4161 12.1915 11.4161H12.1825C11.6305 11.4161 11.1865 11.8631 11.1865 12.4161Z" fill="black"/>
<path d="M7.17847 12.4161C7.17847 12.9691 7.63047 13.4161 8.18247 13.4161C8.73447 13.4161 9.18247 12.9691 9.18247 12.4161C9.18247 11.8631 8.73447 11.4161 8.18247 11.4161H8.17347C7.62047 11.4161 7.17847 11.8631 7.17847 12.4161Z" fill="black"/>
</svg>