<svg width="25" height="24" viewBox="0 0 25 24" fill="none" xmlns="http://www.w3.org/2000/svg">
<path fill-rule="evenodd" clip-rule="evenodd" d="M15.3921 13.131H16.9901V11.631H15.3921V13.131ZM11.6571 13.131H13.2561V11.631H11.6571V13.131ZM7.9231 13.131H9.5221V11.631H7.9231V13.131ZM19.3581 5.11999C17.5231 3.28499 15.0821 2.27399 12.4821 2.27399C9.8831 2.27399 7.4401 3.28499 5.6051 5.12099C3.7651 6.95999 2.7531 9.40499 2.7551 12.004C2.7551 14.64 4.1391 17.152 4.6411 17.976L2.2981 21.712L3.2111 21.704C3.2691 21.704 9.0211 21.654 12.2711 21.724C12.3441 21.725 12.4161 21.726 12.4881 21.726C15.0841 21.726 17.5161 20.719 19.3581 18.876C23.1501 15.083 23.1501 8.91299 19.3581 5.11999Z" fill="black"/>
</svg>