<svg width="24" height="24" viewBox="0 0 24 24" fill="none" xmlns="http://www.w3.org/2000/svg">
<path fill-rule="evenodd" clip-rule="evenodd" d="M17.962 11.7014L15.675 13.9874C15.528 14.1344 15.337 14.2074 15.145 14.2074C14.953 14.2074 14.761 14.1344 14.614 13.9874C14.321 13.6944 14.321 13.2194 14.614 12.9274L16.371 11.1714L14.614 9.41537C14.321 9.12238 14.321 8.64738 14.614 8.35437C14.907 8.06138 15.382 8.06138 15.675 8.35437L17.962 10.6404C18.103 10.7814 18.182 10.9724 18.182 11.1714C18.182 11.3694 18.103 11.5604 17.962 11.7014ZM13.525 9.13737L11.889 13.7094C11.779 14.0164 11.491 14.2074 11.183 14.2074C11.099 14.2074 11.014 14.1934 10.93 14.1634C10.54 14.0234 10.337 13.5944 10.477 13.2044L12.112 8.63237C12.251 8.24237 12.68 8.03837 13.071 8.17938C13.461 8.31838 13.664 8.74738 13.525 9.13737ZM9.385 12.9274C9.678 13.2204 9.678 13.6944 9.385 13.9874C9.238 14.1344 9.046 14.2074 8.855 14.2074C8.663 14.2074 8.471 14.1344 8.324 13.9874L6.038 11.7014C5.745 11.4084 5.745 10.9334 6.038 10.6404L8.324 8.35437C8.617 8.06138 9.092 8.06138 9.385 8.35437C9.678 8.64738 9.678 9.12238 9.385 9.41537L7.629 11.1714L9.385 12.9274ZM17.061 2.85938H6.94C4.491 2.85938 2.5 4.85038 2.5 7.29938V14.2144C2.5 16.6614 4.491 18.6534 6.94 18.6534H8.007C8.45 18.6534 8.867 18.8254 9.18 19.1384L10.602 20.5604C10.987 20.9454 11.494 21.1384 12 21.1384C12.506 21.1384 13.013 20.9454 13.398 20.5594L14.82 19.1384C15.133 18.8254 15.55 18.6534 15.993 18.6534H17.061C19.508 18.6534 21.5 16.6614 21.5 14.2144V7.29938C21.5 4.85038 19.508 2.85938 17.061 2.85938Z" fill="black"/>
</svg>