<svg width="25" height="24" viewBox="0 0 25 24" fill="none" xmlns="http://www.w3.org/2000/svg">
<path fill-rule="evenodd" clip-rule="evenodd" d="M13.977 7.65274L16.9953 13.0176C17.3408 13.6313 17.3346 14.3821 16.9791 14.9901C16.6237 15.598 15.9724 15.9716 15.2682 15.9716H9.23245C8.52825 15.9716 7.87692 15.598 7.52148 14.99C7.16603 14.3821 7.15986 13.6313 7.50527 13.0176L10.5236 7.65274C10.8748 7.02935 11.5348 6.64368 12.2503 6.64368C12.9658 6.64368 13.6258 7.02935 13.977 7.65274V7.65274Z" stroke="black" stroke-width="1.5" stroke-linecap="round" stroke-linejoin="round"/>
<path fill-rule="evenodd" clip-rule="evenodd" d="M18.6142 18.3832C15.8645 21.1431 11.7897 21.7396 8.4582 20.1932C7.96587 19.994 7.56208 19.8339 7.17872 19.8339C6.11039 19.8398 4.78032 20.8795 4.0895 20.1863C3.39868 19.4932 4.43491 18.1586 4.43491 17.0808C4.43491 16.6952 4.28118 16.2978 4.08366 15.8029C2.54149 12.4601 3.13695 8.37243 5.8866 5.6125C9.3981 2.0901 15.1027 2.0901 18.6142 5.6125C22.1315 9.14271 22.1257 14.8598 18.6142 18.3832Z" stroke="black" stroke-width="1.5" stroke-linecap="round" stroke-linejoin="round"/>
<path d="M12.25 11.4664V9.85596" stroke="black" stroke-width="1.5" stroke-linecap="round" stroke-linejoin="round"/>
<path d="M12.25 13.6017V13.5917" stroke="black" stroke-width="1.5" stroke-linecap="round" stroke-linejoin="round"/>
</svg>