<svg width="25" height="25" viewBox="0 0 25 25" fill="none" xmlns="http://www.w3.org/2000/svg">
<path fill-rule="evenodd" clip-rule="evenodd" d="M16.3018 11.7598C15.6078 13.3468 14.0358 14.3718 12.2998 14.3718C10.5648 14.3718 8.99478 13.3468 8.29878 11.7598C8.13278 11.3808 8.30478 10.9388 8.68478 10.7718C9.06678 10.6068 9.50678 10.7788 9.67278 11.1578C10.1298 12.1988 11.1598 12.8718 12.2998 12.8718C13.4408 12.8718 14.4728 12.1988 14.9288 11.1578C15.0948 10.7778 15.5388 10.6048 15.9158 10.7718C16.2958 10.9378 16.4688 11.3808 16.3018 11.7598ZM17.3618 3.33984H7.23978C4.92978 3.33984 3.05078 5.22484 3.05078 7.54184V14.4808C3.05078 16.7988 4.92978 18.6838 7.23978 18.6838H8.30878C8.81178 18.6838 9.30278 18.8878 9.65678 19.2438L11.0788 20.6708C11.4058 20.9988 11.8398 21.1788 12.3008 21.1788H12.3018C12.7638 21.1788 13.1968 20.9978 13.5218 20.6708L14.9438 19.2448C15.3058 18.8838 15.7848 18.6838 16.2938 18.6838H17.3618C19.6718 18.6838 21.5508 16.7988 21.5508 14.4808V7.54184C21.5508 5.22484 19.6718 3.33984 17.3618 3.33984Z" fill="black"/>
</svg>