<svg width="25" height="25" viewBox="0 0 25 25" fill="none" xmlns="http://www.w3.org/2000/svg">
<path opacity="0.4" fill-rule="evenodd" clip-rule="evenodd" d="M17.3618 3.33984H7.23978C4.92978 3.33984 3.05078 5.22484 3.05078 7.54184V14.4808C3.05078 16.7988 4.92978 18.6838 7.23978 18.6838H8.30878C8.81078 18.6838 9.30278 18.8878 9.65678 19.2438L11.0778 20.6708C11.4058 20.9988 11.8398 21.1788 12.3008 21.1788H12.3018C12.7628 21.1788 13.1968 20.9988 13.5228 20.6708L14.9448 19.2448C15.2998 18.8878 15.7918 18.6838 16.2938 18.6838H17.3618C19.6708 18.6838 21.5508 16.7988 21.5508 14.4808V7.54184C21.5508 5.22484 19.6708 3.33984 17.3618 3.33984Z" fill="black"/>
<path fill-rule="evenodd" clip-rule="evenodd" d="M12.6618 15.5194C12.7878 15.4494 15.7528 13.7974 16.4638 11.5264C17.0278 9.75536 16.2008 7.95836 14.5738 7.43136C13.8208 7.19436 13.0018 7.26436 12.3028 7.61536C11.6018 7.25936 10.7808 7.18836 10.0208 7.43236L10.0188 7.43336C8.39982 7.95736 7.57282 9.75536 8.13782 11.5274C8.87482 13.8214 11.8158 15.4514 11.9408 15.5204C12.0528 15.5814 12.1758 15.6114 12.2998 15.6114C12.4248 15.6114 12.5488 15.5814 12.6618 15.5194ZM12.7476 9.09529C13.1426 8.80229 13.6586 8.71729 14.1176 8.86029C15.0726 9.16929 15.3026 10.2303 15.0336 11.0743C14.6536 12.2863 13.1616 13.4403 12.2996 13.9883C11.4436 13.4443 9.96062 12.2983 9.56662 11.0713C9.29962 10.2303 9.52762 9.17029 10.4776 8.86129C10.9476 8.71229 11.4576 8.79929 11.8486 9.09329C12.1156 9.29329 12.4816 9.29529 12.7476 9.09529Z" fill="black"/>
</svg>