<svg width="25" height="25" viewBox="0 0 25 25" fill="none" xmlns="http://www.w3.org/2000/svg">
<path opacity="0.4" fill-rule="evenodd" clip-rule="evenodd" d="M17.3618 3.12305H7.24078C4.93078 3.12305 3.05078 5.00805 3.05078 7.32505V14.264C3.05078 16.581 4.93078 18.467 7.24078 18.467H8.30878C8.81178 18.467 9.30278 18.671 9.65678 19.028L11.0788 20.453C11.4058 20.781 11.8398 20.962 12.3018 20.962C12.7628 20.962 13.1978 20.781 13.5238 20.453L14.9458 19.027C15.3008 18.671 15.7918 18.467 16.2938 18.467H17.3618C19.6718 18.467 21.5508 16.581 21.5508 14.264V7.32505C21.5508 5.00805 19.6718 3.12305 17.3618 3.12305Z" fill="black"/>
<path fill-rule="evenodd" clip-rule="evenodd" d="M15.4318 14.5641C15.6238 14.5641 15.8158 14.4911 15.9618 14.3451C16.2548 14.0521 16.2558 13.5771 15.9628 13.2841L14.9248 12.2431C15.8068 10.8711 15.6498 9.01805 14.4538 7.81905C13.7858 7.14805 12.8978 6.77905 11.9538 6.77905C11.0088 6.77905 10.1208 7.14805 9.45279 7.81805C8.07579 9.19905 8.07579 11.4471 9.45279 12.8291C10.1208 13.4991 11.0098 13.8681 11.9548 13.8681C12.6428 13.8681 13.3008 13.6721 13.8658 13.3051L14.9008 14.3441C15.0478 14.4911 15.2398 14.5641 15.4318 14.5641ZM10.515 8.87781C10.9 8.49181 11.411 8.27881 11.954 8.27881C12.496 8.27881 13.006 8.49181 13.391 8.87781C14.186 9.67481 14.186 10.9728 13.391 11.7708C13.007 12.1558 12.496 12.3678 11.954 12.3678C11.411 12.3678 10.899 12.1558 10.515 11.7708C9.72 10.9728 9.72 9.67481 10.515 8.87781Z" fill="black"/>
</svg>