<svg width="25" height="25" viewBox="0 0 25 25" fill="none" xmlns="http://www.w3.org/2000/svg">
<path d="M11.2558 20.2771L9.83429 18.8507C9.42954 18.4446 8.88078 18.2171 8.30867 18.2171H7.24035C5.06478 18.2171 3.30078 16.4472 3.30078 14.2642V7.32496C3.30078 5.14204 5.06478 3.37305 7.24035 3.37305H17.3622C19.5378 3.37305 21.3008 5.14204 21.3008 7.32496V14.2642C21.3008 16.4472 19.5378 18.2171 17.3622 18.2171H16.2939C15.7218 18.2171 15.173 18.4446 14.7682 18.8507L13.3458 20.2771C12.7688 20.857 11.8338 20.857 11.2558 20.2771Z" stroke="black" stroke-width="1.5" stroke-linecap="round" stroke-linejoin="round"/>
<path d="M17.2273 10.7714L13.1087 7.49991C12.6359 7.12503 11.9684 7.12503 11.4955 7.49991L7.37695 10.7714" stroke="black" stroke-width="1.5" stroke-linecap="round" stroke-linejoin="round"/>
<path d="M15.7257 13.614V9.64062M8.875 9.64062V13.614" stroke="black" stroke-width="1.5" stroke-linecap="round" stroke-linejoin="round"/>
</svg>