<svg width="25" height="25" viewBox="0 0 25 25" fill="none" xmlns="http://www.w3.org/2000/svg">
<path d="M3.80078 7.32521C3.80078 5.14228 5.56478 3.37329 7.74035 3.37329H17.8622C20.0378 3.37329 21.8008 5.14228 21.8008 7.32521V14.2645C21.8008 16.4474 20.0378 18.2174 17.8622 18.2174H16.7939C16.2218 18.2174 15.673 18.4449 15.2682 18.851L13.8458 20.2773C13.2688 20.8572 12.3338 20.8572 11.7558 20.2773L10.3343 18.851C9.92954 18.4449 9.38078 18.2174 8.80867 18.2174H7.74035C5.56478 18.2174 3.80078 16.4474 3.80078 14.2645V10.7948" stroke="black" stroke-width="1.429" stroke-linecap="round" stroke-linejoin="round"/>
<path d="M12.7978 6.68945C11.1486 6.68945 9.81177 8.03084 9.81177 9.68561C9.81177 11.3404 11.1486 12.6818 12.7978 12.6818C14.447 12.6818 15.7839 11.3404 15.7839 9.68561C15.7839 8.95528 15.5235 8.28599 15.0907 7.76613" stroke="black" stroke-width="1.429" stroke-linecap="round" stroke-linejoin="round"/>
<path d="M8.13672 18.2197C8.17272 16.7055 9.40353 14.8672 12.7982 14.8672C16.2114 14.8672 17.4422 16.7055 17.4782 18.2197" stroke="black" stroke-width="1.429" stroke-linecap="round" stroke-linejoin="round"/>
</svg>