<svg width="25" height="24" viewBox="0 0 25 24" fill="none" xmlns="http://www.w3.org/2000/svg">
<path fill-rule="evenodd" clip-rule="evenodd" d="M3.90163 4.41967C4.82916 3.42456 6.14893 2.86914 7.70321 2.86914H15.5569C17.1146 2.86914 18.4349 3.42425 19.3621 4.41993C20.2837 5.40959 20.7611 6.77368 20.7611 8.30002V15.7003C20.7611 17.2262 20.2837 18.5901 19.3619 19.5796C18.4346 20.5752 17.114 21.1302 15.5559 21.1302H7.70321C6.14508 21.1302 4.8249 20.5751 3.89802 19.5795C2.97679 18.5899 2.5 17.226 2.5 15.7003V8.30002C2.5 6.7729 2.97954 5.40894 3.90163 4.41967ZM4.99889 5.44242C4.3786 6.10791 4 7.08439 4 8.30002V15.7003C4 16.9164 4.37697 17.8925 4.99593 18.5574C5.60924 19.2162 6.51566 19.6302 7.70321 19.6302H15.5559C16.7435 19.6302 17.6505 19.2162 18.2643 18.5572C18.8838 17.8923 19.2611 16.9162 19.2611 15.7003V8.30002C19.2611 7.08361 18.8837 6.10726 18.2644 5.44216C17.6507 4.78309 16.7439 4.36914 15.5569 4.36914H7.70321C6.52057 4.36914 5.61373 4.78278 4.99889 5.44242Z" fill="black"/>
<path fill-rule="evenodd" clip-rule="evenodd" d="M21.9247 4.99269C22.1052 5.36551 21.9493 5.81406 21.5764 5.99456C16.6266 8.39097 13.5755 12.7816 12.1685 15.4248C12.0413 15.6638 11.7952 15.8156 11.5246 15.8222C11.254 15.8287 11.0009 15.689 10.8622 15.4564C9.97952 13.9756 8.85987 12.6576 7.49483 11.5057C7.17827 11.2385 7.13821 10.7653 7.40536 10.4488C7.6725 10.1322 8.14568 10.0922 8.46224 10.3593C9.61973 11.3361 10.6199 12.4265 11.4634 13.6274C13.144 10.8281 16.2189 6.92181 20.9228 4.64446C21.2956 4.46396 21.7442 4.61987 21.9247 4.99269Z" fill="black"/>
</svg>