<svg width="24" height="24" viewBox="0 0 24 24" fill="none" xmlns="http://www.w3.org/2000/svg">
<path fill-rule="evenodd" clip-rule="evenodd" d="M12.5375 15.4261C12.4105 15.6651 12.1645 15.8171 11.8925 15.8231H11.8755C11.6115 15.8231 11.3665 15.6851 11.2305 15.4571C10.3495 13.9781 9.21751 12.6491 7.86451 11.5071C7.54851 11.2391 7.50951 10.7661 7.77551 10.4491C8.04251 10.1341 8.51551 10.0921 8.83351 10.3611C9.98251 11.3321 10.9885 12.4281 11.8335 13.6301C13.1935 11.3741 15.8965 7.73014 20.0965 5.30514C19.2545 3.93514 17.7815 3.11914 15.9275 3.11914H8.07251C5.10951 3.11914 3.11951 5.20114 3.11951 8.30114V15.7001C3.11951 18.7991 5.10951 20.8811 8.07251 20.8811H15.9265C18.8895 20.8811 20.8805 18.7991 20.8805 15.7001V8.30114C20.8805 7.72314 20.7905 7.19614 20.6585 6.69614C16.1245 9.38014 13.5015 13.6171 12.5375 15.4261Z" fill="black"/>
</svg>