<svg width="24" height="25" viewBox="0 0 24 25" fill="none" xmlns="http://www.w3.org/2000/svg">
<path d="M14.9382 16.2331C15.8889 17.3719 17.7968 17.1535 18.4655 15.8294C19.6144 13.5547 18.8948 9.56241 18.2206 7.40159L13.2727 7.96796C13.1609 9.46548 13.2117 11.7528 13.7354 13.694" stroke="black" stroke-width="1.5" stroke-linecap="round" stroke-linejoin="round"/>
<path d="M5.57071 14.7702C6.17735 16.1238 8.07309 16.4305 9.07551 15.337C10.7975 13.4586 11.1862 9.42066 11.1226 7.15801L6.20621 6.3628C5.66119 7.86137 5.0515 10.2668 5.10307 12.3707" stroke="black" stroke-width="1.5" stroke-linecap="round" stroke-linejoin="round"/>
<path d="M19.0081 11.8855C17.9112 12.2045 16.4596 11.8421 15.229 11.3452" stroke="black" stroke-width="1.5" stroke-linecap="round" stroke-linejoin="round"/>
<path d="M11.0117 9.54736C10.2229 9.99305 8.71655 10.6671 7.27182 10.8949" stroke="black" stroke-width="1.5" stroke-linecap="round" stroke-linejoin="round"/>
<path d="M16.8046 16.9602L17.3209 21.4709M19.0596 21.2717L15.5823 21.6697" stroke="black" stroke-width="1.5" stroke-linecap="round" stroke-linejoin="round"/>
<path d="M7.15524 16.0005L6.44853 20.4591M4.70654 20.1797L8.16164 20.7385" stroke="black" stroke-width="1.5" stroke-linecap="round" stroke-linejoin="round"/>
<path d="M10.2426 5.08364L9.29593 4.05468" stroke="black" stroke-width="1.5" stroke-linecap="round" stroke-linejoin="round"/>
<path d="M14.5803 5.67182L15.7344 4.88257" stroke="black" stroke-width="1.5" stroke-linecap="round" stroke-linejoin="round"/>
<path d="M12.5627 4.56908L12.7543 3.18408" stroke="black" stroke-width="1.5" stroke-linecap="round" stroke-linejoin="round"/>
</svg>