<svg width="24" height="25" viewBox="0 0 24 25" fill="none" xmlns="http://www.w3.org/2000/svg">
<path fill-rule="evenodd" clip-rule="evenodd" d="M12.5247 7.91207C12.5515 7.55303 12.8297 7.2637 13.1874 7.22275L18.1353 6.65638C18.493 6.61544 18.8293 6.83444 18.9366 7.17813C19.2874 8.30271 19.6488 9.89683 19.7745 11.5146C19.8982 13.1083 19.8036 14.8437 19.135 16.1674C18.2231 17.9729 15.6587 18.2664 14.3625 16.7137C13.4121 15.5752 12.9278 13.9061 12.6883 12.3257C12.4452 10.7214 12.4371 9.08682 12.5247 7.91207ZM13.9866 8.64106C13.9495 9.64624 13.9877 10.8888 14.1714 12.101C14.3986 13.5998 14.8313 14.9346 15.514 15.7524C16.119 16.4771 17.3704 16.3339 17.7961 15.4912C18.2764 14.5403 18.3963 13.1422 18.279 11.6308C18.184 10.4085 17.9405 9.18941 17.6772 8.21861L13.9866 8.64106Z" fill="black"/>
<path fill-rule="evenodd" clip-rule="evenodd" d="M11.8723 7.13695C11.8621 6.77706 11.5977 6.47514 11.2423 6.41765L6.32598 5.62244C5.97056 5.56496 5.62445 5.76813 5.50139 6.10648C5.09874 7.21357 4.66382 8.78922 4.46329 10.3995C4.26576 11.9856 4.27982 13.7236 4.8863 15.0769C5.71347 16.9227 8.2615 17.3348 9.62836 15.8439C10.6305 14.7507 11.1917 13.1058 11.5042 11.5383C11.8214 9.94691 11.9054 8.31451 11.8723 7.13695ZM10.3782 7.79737C10.3686 8.80319 10.2728 10.0427 10.0331 11.245C9.73672 12.7317 9.24255 14.045 8.52267 14.8302C7.88469 15.5261 6.64125 15.325 6.25513 14.4635C5.81947 13.4913 5.76445 12.0892 5.95179 10.5848C6.1033 9.36825 6.40311 8.16178 6.71109 7.20423L10.3782 7.79737Z" fill="black"/>
<path fill-rule="evenodd" clip-rule="evenodd" d="M12.6378 9.961C12.858 9.6102 13.321 9.50438 13.6717 9.72464C14.2086 10.0617 15.1371 10.5469 16.1357 10.8815C17.1626 11.2256 18.1228 11.362 18.7985 11.1655C19.1962 11.0498 19.6125 11.2784 19.7281 11.6761C19.8438 12.0739 19.6152 12.4901 19.2175 12.6058C18.0863 12.9348 16.7583 12.6721 15.6591 12.3038C14.5317 11.926 13.496 11.3855 12.8741 10.995C12.5233 10.7747 12.4175 10.3118 12.6378 9.961Z" fill="black"/>
<path fill-rule="evenodd" clip-rule="evenodd" d="M11.6648 9.17823C11.461 8.81759 11.0035 8.69042 10.6429 8.89418C10.0909 9.20601 9.14097 9.64761 8.1279 9.93555C7.08614 10.2317 6.1207 10.3234 5.45478 10.0957C5.06284 9.9617 4.63648 10.1708 4.50247 10.5627C4.36846 10.9547 4.57755 11.381 4.96949 11.515C6.08418 11.8962 7.42292 11.6953 8.538 11.3784C9.68178 11.0533 10.7413 10.5614 11.3807 10.2001C11.7414 9.99639 11.8685 9.53886 11.6648 9.17823Z" fill="black"/>
<path fill-rule="evenodd" clip-rule="evenodd" d="M16.7192 16.2151C17.1307 16.168 17.5025 16.4635 17.5496 16.875L17.9806 20.6404L18.9742 20.5266C19.3857 20.4795 19.7575 20.775 19.8046 21.1865C19.8517 21.598 19.5563 21.9698 19.1447 22.0169L17.4234 22.2139C17.4176 22.2147 17.4119 22.2155 17.406 22.2161C17.4003 22.2168 17.3945 22.2174 17.3887 22.2179L15.6675 22.4149C15.2559 22.462 14.8841 22.1666 14.837 21.7551C14.7899 21.3436 15.0853 20.9718 15.4969 20.9247L16.4903 20.811L16.0593 17.0456C16.0122 16.634 16.3077 16.2622 16.7192 16.2151Z" fill="black"/>
<path fill-rule="evenodd" clip-rule="evenodd" d="M7.27265 15.2596C7.68175 15.3244 7.96083 15.7087 7.89599 16.1178L7.30596 19.8402L8.28138 19.998C8.69028 20.0641 8.96814 20.4492 8.90201 20.8581C8.83587 21.267 8.45077 21.5449 8.04187 21.4788L4.58678 20.9199C4.17788 20.8538 3.90002 20.4687 3.96616 20.0598C4.03229 19.6509 4.41739 19.373 4.82629 19.4391L5.8252 19.6007L6.41448 15.8829C6.47933 15.4738 6.86354 15.1948 7.27265 15.2596Z" fill="black"/>
<path fill-rule="evenodd" clip-rule="evenodd" d="M8.78813 3.50272C8.48329 3.78316 8.46352 4.25763 8.74397 4.56246L9.69062 5.59142C9.97106 5.89625 10.4455 5.91602 10.7504 5.63558C11.0552 5.35513 11.075 4.88067 10.7945 4.57584L9.84787 3.54687C9.56742 3.24204 9.09296 3.22227 8.78813 3.50272Z" fill="black"/>
<path fill-rule="evenodd" clip-rule="evenodd" d="M16.3535 4.45927C16.5873 4.80118 16.4997 5.2679 16.1578 5.50172L15.0037 6.29098C14.6618 6.5248 14.1951 6.43717 13.9613 6.09526C13.7274 5.75335 13.8151 5.28664 14.157 5.05282L15.3111 4.26356C15.653 4.02974 16.1197 4.11736 16.3535 4.45927Z" fill="black"/>
<path fill-rule="evenodd" clip-rule="evenodd" d="M12.8569 2.44125C13.2672 2.498 13.5539 2.87662 13.4971 3.28693L13.3055 4.67192C13.2488 5.08223 12.8702 5.36884 12.4599 5.31209C12.0496 5.25534 11.7629 4.87672 11.8197 4.46641L12.0113 3.08142C12.068 2.67111 12.4466 2.38449 12.8569 2.44125Z" fill="black"/>
</svg>