<svg width="24" height="24" viewBox="0 0 24 24" fill="none" xmlns="http://www.w3.org/2000/svg">
<path fill-rule="evenodd" clip-rule="evenodd" d="M7.33 10.805C7.33 11.215 7.66 11.555 8.08 11.555H10.96V12.795H8.86C8.44 12.795 8.11 13.135 8.11 13.545C8.11 13.955 8.44 14.295 8.86 14.295H10.96V15.955C10.96 17.975 9.32 19.625 7.29 19.625C6.32 19.625 5.40001 19.245 4.70001 18.555C4.02 17.875 3.63 16.925 3.63 15.955V7.005H10.96V10.055H8.08C7.66 10.055 7.33 10.395 7.33 10.805Z" fill="black"/>
<path fill-rule="evenodd" clip-rule="evenodd" d="M12.08 3.125C12.08 3.535 11.75 3.875 11.33 3.875H10.96V5.505H3.63001V3.875H3.26001C2.84001 3.875 2.51001 3.535 2.51001 3.125C2.51001 2.715 2.84001 2.375 3.26001 2.375H11.33C11.75 2.375 12.08 2.715 12.08 3.125Z" fill="black"/>
<path fill-rule="evenodd" clip-rule="evenodd" d="M16.74 13.705C16.74 14.115 17.08 14.455 17.49 14.455H20.37V15.695H18.27C17.85 15.695 17.52 16.035 17.52 16.445C17.52 16.855 17.85 17.195 18.27 17.195H20.37V17.955C20.37 19.975 18.73 21.625 16.71 21.625C15.73 21.625 14.81 21.245 14.11 20.555C13.43 19.875 13.04 18.925 13.04 17.955V11.705H20.37V12.955H17.49C17.08 12.955 16.74 13.295 16.74 13.705Z" fill="black"/>
<path fill-rule="evenodd" clip-rule="evenodd" d="M21.49 7.82507C21.49 8.23507 21.16 8.57507 20.74 8.57507H20.37V10.2051H13.04V8.57507H12.67C12.26 8.57507 11.92 8.23507 11.92 7.82507C11.92 7.41507 12.26 7.07507 12.67 7.07507H20.74C21.16 7.07507 21.49 7.41507 21.49 7.82507Z" fill="black"/>
</svg>