<svg width="25" height="24" viewBox="0 0 25 24" fill="none" xmlns="http://www.w3.org/2000/svg">
<path fill-rule="evenodd" clip-rule="evenodd" d="M4.37793 2.25C4.79214 2.25 5.12793 2.58579 5.12793 3V15.8338C5.12793 16.4995 5.39369 17.1035 5.83177 17.5425C6.27547 17.9793 6.88249 18.2499 7.54406 18.2499C8.8736 18.2499 9.96116 17.1621 9.96116 15.8338V3C9.96116 2.58579 10.2969 2.25 10.7112 2.25C11.1254 2.25 11.4612 2.58579 11.4612 3V15.8338C11.4612 17.9908 9.70173 19.7499 7.54406 19.7499C6.46486 19.7499 5.48471 19.3071 4.77654 18.6085L4.77292 18.605C4.06005 17.8921 3.62793 16.9089 3.62793 15.8338V3C3.62793 2.58579 3.96372 2.25 4.37793 2.25Z" fill="black"/>
<path fill-rule="evenodd" clip-rule="evenodd" d="M2.75781 3C2.75781 2.58579 3.0936 2.25 3.50781 2.25H11.5817C11.9959 2.25 12.3317 2.58579 12.3317 3C12.3317 3.41421 11.9959 3.75 11.5817 3.75H3.50781C3.0936 3.75 2.75781 3.41421 2.75781 3Z" fill="black"/>
<path fill-rule="evenodd" clip-rule="evenodd" d="M7.57812 10.6758C7.57812 10.2616 7.91391 9.92578 8.32812 9.92578H10.712C11.1262 9.92578 11.462 10.2616 11.462 10.6758C11.462 11.09 11.1262 11.4258 10.712 11.4258H8.32812C7.91391 11.4258 7.57812 11.09 7.57812 10.6758ZM8.35633 13.423C8.35633 13.0088 8.69212 12.673 9.10633 12.673H10.7118C11.126 12.673 11.4618 13.0088 11.4618 13.423C11.4618 13.8372 11.126 14.173 10.7118 14.173H9.10633C8.69212 14.173 8.35633 13.8372 8.35633 13.423Z" fill="black"/>
<path fill-rule="evenodd" clip-rule="evenodd" d="M3.62695 6.13281C3.62695 5.7186 3.96274 5.38281 4.37695 5.38281H10.7102C11.1244 5.38281 11.4602 5.7186 11.4602 6.13281C11.4602 6.54703 11.1244 6.88281 10.7102 6.88281H4.37695C3.96274 6.88281 3.62695 6.54703 3.62695 6.13281Z" fill="black"/>
<path fill-rule="evenodd" clip-rule="evenodd" d="M13.79 6.94922C14.2043 6.94922 14.54 7.28501 14.54 7.69922V17.833C14.54 18.4995 14.8057 19.1025 15.2439 19.5416C15.6876 19.9785 16.2946 20.2491 16.9562 20.2491C18.2857 20.2491 19.3733 19.1612 19.3733 17.833V7.69922C19.3733 7.28501 19.7091 6.94922 20.1233 6.94922C20.5375 6.94922 20.8733 7.28501 20.8733 7.69922V17.833C20.8733 19.99 19.1138 21.7491 16.9562 21.7491C15.877 21.7491 14.8968 21.3063 14.1886 20.6077L14.185 20.6041C13.4722 19.8913 13.04 18.9091 13.04 17.833V7.69922C13.04 7.28501 13.3758 6.94922 13.79 6.94922Z" fill="black"/>
<path fill-rule="evenodd" clip-rule="evenodd" d="M16.9902 13.5781C16.9902 13.1639 17.326 12.8281 17.7402 12.8281H20.1241C20.5383 12.8281 20.8741 13.1639 20.8741 13.5781C20.8741 13.9923 20.5383 14.3281 20.1241 14.3281H17.7402C17.326 14.3281 16.9902 13.9923 16.9902 13.5781ZM17.7684 16.3247C17.7684 15.9104 18.1042 15.5747 18.5184 15.5747H20.1239C20.5381 15.5747 20.8739 15.9104 20.8739 16.3247C20.8739 16.7389 20.5381 17.0747 20.1239 17.0747H18.5184C18.1042 17.0747 17.7684 16.7389 17.7684 16.3247Z" fill="black"/>
<path fill-rule="evenodd" clip-rule="evenodd" d="M12.1699 7.69922C12.1699 7.28501 12.5057 6.94922 12.9199 6.94922H20.9938C21.4081 6.94922 21.7438 7.28501 21.7438 7.69922C21.7438 8.11343 21.4081 8.44922 20.9938 8.44922H12.9199C12.5057 8.44922 12.1699 8.11343 12.1699 7.69922Z" fill="black"/>
<path fill-rule="evenodd" clip-rule="evenodd" d="M13.041 10.8281C13.041 10.4139 13.3768 10.0781 13.791 10.0781H20.1242C20.5385 10.0781 20.8742 10.4139 20.8742 10.8281C20.8742 11.2423 20.5385 11.5781 20.1242 11.5781H13.791C13.3768 11.5781 13.041 11.2423 13.041 10.8281Z" fill="black"/>
</svg>