<svg width="24" height="24" viewBox="0 0 24 24" fill="none" xmlns="http://www.w3.org/2000/svg">
<path d="M10.4609 3V15.8338C10.4609 17.5765 9.03742 18.9999 7.29381 18.9999C6.42298 18.9999 5.62902 18.6429 5.053 18.0746C4.47699 17.4986 4.12769 16.7046 4.12769 15.8338V12.6254" stroke="black" stroke-width="1.5" stroke-linecap="round" stroke-linejoin="round"/>
<path d="M4.12793 9.41691V3" stroke="black" stroke-width="1.5" stroke-linecap="round" stroke-linejoin="round"/>
<path d="M3.25781 3H11.3317" stroke="black" stroke-width="1.5" stroke-linecap="round" stroke-linejoin="round"/>
<path d="M8.07812 10.6758H10.462M8.85633 13.423H10.4618" stroke="black" stroke-width="1.5" stroke-linecap="round" stroke-linejoin="round"/>
<path d="M4.12695 6.13086H10.4602" stroke="black" stroke-width="1.5" stroke-linecap="round" stroke-linejoin="round"/>
<path d="M19.8735 7.69922V17.833C19.8735 19.5756 18.45 20.9991 16.7064 20.9991C15.8356 20.9991 15.0416 20.642 14.4656 20.0738C13.8896 19.4978 13.5403 18.7048 13.5403 17.833V15.2995" stroke="black" stroke-width="1.5" stroke-linecap="round" stroke-linejoin="round"/>
<path d="M13.54 12.504V7.69922" stroke="black" stroke-width="1.5" stroke-linecap="round" stroke-linejoin="round"/>
<path d="M17.4902 13.5762H19.8741M18.2684 16.3227H19.8739" stroke="black" stroke-width="1.5" stroke-linecap="round" stroke-linejoin="round"/>
<path d="M12.6699 7.69922H20.7438" stroke="black" stroke-width="1.5" stroke-linecap="round" stroke-linejoin="round"/>
<path d="M13.541 10.8301H19.8742" stroke="black" stroke-width="1.5" stroke-linecap="round" stroke-linejoin="round"/>
</svg>