<svg width="25" height="24" viewBox="0 0 25 24" fill="none" xmlns="http://www.w3.org/2000/svg">
<path d="M11.3713 3V15.8338C11.3713 17.5765 9.94782 18.9999 8.20421 18.9999C7.33338 18.9999 6.53942 18.6429 5.9634 18.0746C5.38739 17.4986 5.03809 16.7046 5.03809 15.8338V3" stroke="black" stroke-width="1.5" stroke-linecap="round" stroke-linejoin="round"/>
<path d="M4.16797 3H12.2419" stroke="black" stroke-width="1.5" stroke-linecap="round" stroke-linejoin="round"/>
<path opacity="0.4" d="M8.98828 10.6758H11.3721M9.76649 13.423H11.3719" stroke="black" stroke-width="1.5" stroke-linecap="round" stroke-linejoin="round"/>
<path opacity="0.4" d="M5.03711 6.13281H11.3703" stroke="black" stroke-width="1.5" stroke-linecap="round" stroke-linejoin="round"/>
<path d="M20.7834 7.69922V17.833C20.7834 19.5756 19.3599 20.9991 17.6163 20.9991C16.7455 20.9991 15.9515 20.642 15.3755 20.0738C14.7995 19.4978 14.4502 18.7048 14.4502 17.833V7.69922" stroke="black" stroke-width="1.5" stroke-linecap="round" stroke-linejoin="round"/>
<path opacity="0.4" d="M18.4004 13.5781H20.7842M19.1786 16.3247H20.784" stroke="black" stroke-width="1.5" stroke-linecap="round" stroke-linejoin="round"/>
<path d="M13.5801 7.69922H21.654" stroke="black" stroke-width="1.5" stroke-linecap="round" stroke-linejoin="round"/>
<path opacity="0.4" d="M14.4512 10.8281H20.7844" stroke="black" stroke-width="1.5" stroke-linecap="round" stroke-linejoin="round"/>
</svg>