<svg width="24" height="24" viewBox="0 0 24 24" fill="none" xmlns="http://www.w3.org/2000/svg">
<g opacity="0.4">
<path d="M20.3702 12.9578V11.7048H13.0402V17.9548C13.0402 18.9248 13.4302 19.8748 14.1102 20.5548C14.8102 21.2448 15.7302 21.6248 16.7102 21.6248C18.7302 21.6248 20.3702 19.9748 20.3702 17.9548V17.1978V15.6978V14.4578V12.9578Z" fill="black"/>
<path d="M10.9601 10.0579V7.00488H3.63013V15.9549C3.63013 16.9249 4.02013 17.8749 4.70013 18.5549C5.40013 19.2449 6.32013 19.6249 7.29013 19.6249C9.32013 19.6249 10.9601 17.9749 10.9601 15.9549V14.2979V12.7979V11.5579V10.0579Z" fill="black"/>
</g>
<path fill-rule="evenodd" clip-rule="evenodd" d="M11.33 2.375H3.26001C2.84001 2.375 2.51001 2.715 2.51001 3.125C2.51001 3.535 2.84001 3.875 3.26001 3.875H3.63001V5.505H10.96V3.875H11.33C11.75 3.875 12.08 3.535 12.08 3.125C12.08 2.715 11.75 2.375 11.33 2.375Z" fill="black"/>
<path fill-rule="evenodd" clip-rule="evenodd" d="M20.74 7.07495H12.67C12.26 7.07495 11.92 7.41495 11.92 7.82495C11.92 8.23495 12.26 8.57495 12.67 8.57495H13.04V10.205H20.37V8.57495H20.74C21.16 8.57495 21.49 8.23495 21.49 7.82495C21.49 7.41495 21.16 7.07495 20.74 7.07495Z" fill="black"/>
<path d="M10.9601 10.0576H8.08008C7.66008 10.0576 7.33008 10.3876 7.33008 10.8076C7.33008 11.2176 7.66008 11.5576 8.08008 11.5576H10.9601V10.0576Z" fill="black"/>
<path d="M8.86008 14.2976H10.9601V12.7976H8.86008C8.44008 12.7976 8.11008 13.1276 8.11008 13.5476C8.11008 13.9576 8.44008 14.2976 8.86008 14.2976Z" fill="black"/>
<path d="M20.3701 12.9576H17.4901C17.0801 12.9576 16.7401 13.2876 16.7401 13.7076C16.7401 14.1176 17.0801 14.4576 17.4901 14.4576H20.3701V12.9576Z" fill="black"/>
<path d="M18.2701 17.1976H20.3701V15.6976H18.2701C17.8501 15.6976 17.5201 16.0276 17.5201 16.4476C17.5201 16.8576 17.8501 17.1976 18.2701 17.1976Z" fill="black"/>
</svg>