<svg width="24" height="24" viewBox="0 0 24 24" fill="none" xmlns="http://www.w3.org/2000/svg">
<path d="M10.4612 3V15.8338C10.4612 17.5765 9.03767 18.9999 7.29406 18.9999C6.42323 18.9999 5.62926 18.6429 5.05325 18.0746C4.47724 17.4986 4.12793 16.7046 4.12793 15.8338V3" stroke="black" stroke-width="1.5" stroke-linecap="round" stroke-linejoin="round"/>
<path d="M3.25781 3H11.3317" stroke="black" stroke-width="1.5" stroke-linecap="round" stroke-linejoin="round"/>
<path d="M8.07812 10.6758H10.462M8.85633 13.423H10.4618" stroke="black" stroke-width="1.5" stroke-linecap="round" stroke-linejoin="round"/>
<path d="M4.12695 6.13281H10.4602" stroke="black" stroke-width="1.5" stroke-linecap="round" stroke-linejoin="round"/>
<path d="M19.8733 7.69922V17.833C19.8733 19.5756 18.4498 20.9991 16.7062 20.9991C15.8353 20.9991 15.0414 20.642 14.4654 20.0738C13.8893 19.4978 13.54 18.7048 13.54 17.833V7.69922" stroke="black" stroke-width="1.5" stroke-linecap="round" stroke-linejoin="round"/>
<path d="M17.4902 13.5781H19.8741M18.2684 16.3247H19.8739" stroke="black" stroke-width="1.5" stroke-linecap="round" stroke-linejoin="round"/>
<path d="M12.6699 7.69922H20.7438" stroke="black" stroke-width="1.5" stroke-linecap="round" stroke-linejoin="round"/>
<path d="M13.541 10.8281H19.8742" stroke="black" stroke-width="1.5" stroke-linecap="round" stroke-linejoin="round"/>
</svg>