<svg width="24" height="24" viewBox="0 0 24 24" fill="none" xmlns="http://www.w3.org/2000/svg">
<path fill-rule="evenodd" clip-rule="evenodd" d="M9.53033 11.4697C9.82322 11.7626 9.82322 12.2374 9.53033 12.5303L5.53033 16.5303C5.23744 16.8232 4.76256 16.8232 4.46967 16.5303C4.17678 16.2374 4.17678 15.7626 4.46967 15.4697L7.93934 12L4.46967 8.53033C4.17678 8.23744 4.17678 7.76256 4.46967 7.46967C4.76256 7.17678 5.23744 7.17678 5.53033 7.46967L9.53033 11.4697Z" fill="black"/>
<path fill-rule="evenodd" clip-rule="evenodd" d="M19.5303 7.46967C19.8232 7.76256 19.8232 8.23744 19.5303 8.53033L16.0607 12L19.5303 15.4697C19.8232 15.7626 19.8232 16.2374 19.5303 16.5303C19.2374 16.8232 18.7626 16.8232 18.4697 16.5303L14.4697 12.5303C14.1768 12.2374 14.1768 11.7626 14.4697 11.4697L18.4697 7.46967C18.7626 7.17678 19.2374 7.17678 19.5303 7.46967Z" fill="black"/>
</svg>