<svg width="24" height="24" viewBox="0 0 24 24" fill="none" xmlns="http://www.w3.org/2000/svg">
<path fill-rule="evenodd" clip-rule="evenodd" d="M11.5303 7.46967C11.8232 7.76256 11.8232 8.23744 11.5303 8.53033L8.06066 12L11.5303 15.4697C11.8232 15.7626 11.8232 16.2374 11.5303 16.5303C11.2374 16.8232 10.7626 16.8232 10.4697 16.5303L6.46967 12.5303C6.17678 12.2374 6.17678 11.7626 6.46967 11.4697L10.4697 7.46967C10.7626 7.17678 11.2374 7.17678 11.5303 7.46967ZM17.5303 7.46967C17.8232 7.76256 17.8232 8.23744 17.5303 8.53033L14.0607 12L17.5303 15.4697C17.8232 15.7626 17.8232 16.2374 17.5303 16.5303C17.2374 16.8232 16.7626 16.8232 16.4697 16.5303L12.4697 12.5303C12.1768 12.2374 12.1768 11.7626 12.4697 11.4697L16.4697 7.46967C16.7626 7.17678 17.2374 7.17678 17.5303 7.46967Z" fill="black"/>
</svg>