<svg width="25" height="24" viewBox="0 0 25 24" fill="none" xmlns="http://www.w3.org/2000/svg">
<path fill-rule="evenodd" clip-rule="evenodd" d="M16.4351 5.37012C16.854 5.6499 17.5049 5.81006 18.5181 5.87012C19.4927 5.91992 20.2881 6.71997 20.2881 7.72998V18.28C20.2881 20.2 18.7358 21.75 16.8228 21.75H7.67676C5.76367 21.75 4.21191 20.2 4.21191 18.28V5.71997C4.21191 3.80005 5.76367 2.25 7.67676 2.25H13.8149C14.7891 2.25 15.5298 2.98999 15.6587 3.89014C15.7769 4.69995 16.061 5.11011 16.4351 5.37012ZM18.7881 15.8701H13V20.25H16.8228C17.9077 20.25 18.7881 19.3701 18.7881 18.28V15.8701ZM11.5 20.25V15.8701H5.71191V18.28C5.71191 19.3701 6.5918 20.25 7.67676 20.25H11.5ZM5.71191 14.3701H11.5V10H5.71191V14.3701ZM5.71191 8.5H11.5V3.75H7.67676C6.5918 3.75 5.71191 4.62988 5.71191 5.71997V8.5ZM13 3.75V8.5H18.7881V7.72998C18.7881 7.61133 18.731 7.50439 18.6377 7.43848C18.5815 7.39868 18.5122 7.37378 18.4331 7.37012C17.353 7.31006 16.3638 7.12988 15.5967 6.60986C14.7847 6.06006 14.3359 5.21997 14.1748 4.1001C14.1421 3.86987 13.9731 3.75 13.8149 3.75H13ZM18.7881 10H13V14.3701H18.7881V10Z" fill="black"/>
</svg>