<svg width="24" height="25" viewBox="0 0 24 25" fill="none" xmlns="http://www.w3.org/2000/svg">
<path d="M7.93457 21.0817L17.3388 11.6772" stroke="black" stroke-width="1.5" stroke-linecap="round" stroke-linejoin="round"/>
<path d="M14.609 3.89956C14.1847 3.93114 14.0288 4.35065 14.2942 4.74734C15.8347 6.83869 17.6791 8.84203 19.8807 10.3338C20.2424 10.5789 20.6969 10.4434 20.7285 10.019L21.1776 3.98334C21.2002 3.68014 20.9479 3.42781 20.6447 3.45038L17.6268 3.67497" stroke="black" stroke-width="1.5" stroke-linecap="round" stroke-linejoin="round"/>
<path d="M14.7182 5.60571L8.24784 12.0763C7.8484 12.4756 7.84837 13.1232 8.24779 13.5226L10.2552 15.53" stroke="black" stroke-width="1.5" stroke-linecap="round" stroke-linejoin="round"/>
<path d="M11.8779 8.46533H15.1098" stroke="black" stroke-width="1.5" stroke-linecap="round" stroke-linejoin="round"/>
<path d="M8.41113 11.9233H13.5946" stroke="black" stroke-width="1.5" stroke-linecap="round" stroke-linejoin="round"/>
<path d="M9.05585 14.394C9.26888 14.9027 9.3054 16.2902 6.64988 16.0756C3.99437 15.8611 3.22201 16.8592 2.77832 17.5489" stroke="black" stroke-width="1.5" stroke-linecap="round" stroke-linejoin="round"/>
<path d="M4.6377 12.5088V12.5188" stroke="black" stroke-width="1.5" stroke-linecap="round" stroke-linejoin="round"/>
</svg>