<svg width="24" height="25" viewBox="0 0 24 25" fill="none" xmlns="http://www.w3.org/2000/svg">
<path fill-rule="evenodd" clip-rule="evenodd" d="M7.59017 5.5914C7.59012 5.5914 7.59047 5.59059 7.59138 5.58899C7.59068 5.59061 7.59022 5.59141 7.59017 5.5914ZM7.64967 5.52323C7.68185 5.49352 7.73035 5.45449 7.80256 5.40694C8.05732 5.23919 8.4755 5.05921 9.05944 4.89657C10.2168 4.57423 11.8586 4.36523 13.7023 4.36523C15.546 4.36523 17.1877 4.57423 18.3451 4.89657C18.9291 5.05921 19.3472 5.23919 19.602 5.40694C19.6742 5.45449 19.7227 5.49352 19.7549 5.52323C19.7227 5.55294 19.6742 5.59197 19.602 5.63952C19.3472 5.80727 18.9291 5.98725 18.3451 6.14989C17.1877 6.47223 15.546 6.68123 13.7023 6.68123C11.8586 6.68123 10.2168 6.47223 9.05944 6.14989C8.4755 5.98725 8.05732 5.80727 7.80256 5.63952C7.73035 5.59197 7.68185 5.55294 7.64967 5.52323ZM19.8144 5.5914C19.8143 5.59141 19.8139 5.59061 19.8132 5.589C19.8141 5.59059 19.8144 5.5914 19.8144 5.5914ZM19.8132 5.45746C19.8139 5.45585 19.8143 5.45505 19.8144 5.45506C19.8144 5.45506 19.8141 5.45587 19.8132 5.45746ZM7.59139 5.45749C7.59047 5.45588 7.59012 5.45506 7.59017 5.45506C7.59022 5.45505 7.59068 5.45585 7.59139 5.45749ZM8.65699 3.45157C9.97902 3.08336 11.7625 2.86523 13.7023 2.86523C15.642 2.86523 17.4255 3.08336 18.7476 3.45157C19.4033 3.63421 19.9884 3.86538 20.4269 4.15416C20.8354 4.42312 21.3028 4.87012 21.3028 5.52323C21.3028 6.17634 20.8354 6.62334 20.4269 6.8923C19.9884 7.18108 19.4033 7.41225 18.7476 7.59489C17.4255 7.9631 15.642 8.18123 13.7023 8.18123C11.7625 8.18123 9.97902 7.9631 8.65699 7.59489C8.00122 7.41225 7.41617 7.18108 6.97762 6.8923C6.56917 6.62334 6.10174 6.17634 6.10174 5.52323C6.10174 4.87012 6.56917 4.42312 6.97762 4.15416C7.41617 3.86538 8.00122 3.63421 8.65699 3.45157Z" fill="black"/>
<path fill-rule="evenodd" clip-rule="evenodd" d="M13.703 10.5996C14.1172 10.5996 14.453 10.9354 14.453 11.3496V16.6283C14.453 17.0426 14.1172 17.3783 13.703 17.3783C13.2888 17.3783 12.953 17.0426 12.953 16.6283V11.3496C12.953 10.9354 13.2888 10.5996 13.703 10.5996Z" fill="black"/>
<path fill-rule="evenodd" clip-rule="evenodd" d="M16.6389 12.295C16.846 12.6537 16.7231 13.1124 16.3644 13.3195L11.7928 15.9589C11.4341 16.166 10.9754 16.0431 10.7683 15.6844C10.5612 15.3257 10.6841 14.867 11.0428 14.6599L15.6144 12.0205C15.9731 11.8134 16.4318 11.9363 16.6389 12.295Z" fill="black"/>
<path fill-rule="evenodd" clip-rule="evenodd" d="M16.6389 15.684C16.846 15.3253 16.7231 14.8666 16.3644 14.6595L11.7928 12.0201C11.4341 11.813 10.9754 11.9359 10.7683 12.2946C10.5612 12.6533 10.6841 13.112 11.0428 13.3191L15.6144 15.9585C15.9731 16.1656 16.4318 16.0427 16.6389 15.684Z" fill="black"/>
<path fill-rule="evenodd" clip-rule="evenodd" d="M7.60174 5.52246V17.7334C7.60174 18.7599 8.14194 19.5057 9.19629 20.0381C10.287 20.5889 11.8657 20.8653 13.7023 20.8653C15.531 20.8653 17.1105 20.5683 18.2034 20.0064C19.269 19.4584 19.8028 18.7083 19.8028 17.7334L19.8028 5.52246H21.3028L21.3028 17.7334C21.3028 19.4226 20.3031 20.6134 18.8893 21.3403C17.5028 22.0533 15.657 22.3653 13.7023 22.3653C11.7554 22.3653 9.90886 22.0784 8.52013 21.3771C7.09508 20.6575 6.10174 19.4623 6.10174 17.7334V5.52246H7.60174Z" fill="black"/>
<path fill-rule="evenodd" clip-rule="evenodd" d="M6.70882 7.51025L6.74297 7.51025C7.15718 7.51025 7.49297 7.84604 7.49297 8.26025C7.49297 8.67447 7.15718 9.01025 6.74297 9.01025C6.10979 9.01025 5.68548 9.01099 5.36039 9.0407C5.04574 9.06945 4.89905 9.12045 4.80291 9.17653C4.62101 9.28264 4.46965 9.434 4.36354 9.6159C4.30746 9.71204 4.25646 9.85873 4.22771 10.1734C4.198 10.4985 4.19727 10.9228 4.19727 11.556V13.041C4.19727 13.6742 4.198 14.0985 4.22771 14.4236C4.25646 14.7383 4.30746 14.885 4.36354 14.9811C4.46965 15.163 4.62101 15.3144 4.80291 15.4205C4.89905 15.4765 5.04574 15.5275 5.36039 15.5563C5.68548 15.586 6.10979 15.5867 6.74297 15.5867C7.15718 15.5867 7.49297 15.9225 7.49297 16.3367C7.49297 16.751 7.15718 17.0867 6.74297 17.0867H6.70883C6.11864 17.0868 5.62535 17.0868 5.22387 17.0501C4.80421 17.0117 4.41118 16.9285 4.04713 16.7162C3.6417 16.4797 3.30435 16.1423 3.06786 15.7369C2.8555 15.3728 2.77229 14.9798 2.73393 14.5601C2.69724 14.1587 2.69725 13.6654 2.69727 13.0752V11.5218C2.69725 10.9316 2.69724 10.4383 2.73393 10.0369C2.77229 9.6172 2.8555 9.22417 3.06786 8.86012C3.30435 8.45469 3.6417 8.11734 4.04713 7.88085C4.41118 7.66849 4.80421 7.58527 5.22387 7.54692C5.62535 7.51023 6.11864 7.51024 6.70882 7.51025Z" fill="black"/>
</svg>