<svg width="24" height="25" viewBox="0 0 24 25" fill="none" xmlns="http://www.w3.org/2000/svg">
<path d="M15.9121 3.61523V6.83849" stroke="black" stroke-width="1.5" stroke-linecap="round" stroke-linejoin="round"/>
<path d="M8.08723 3.61523V6.83849" stroke="black" stroke-width="1.5" stroke-linecap="round" stroke-linejoin="round"/>
<path fill-rule="evenodd" clip-rule="evenodd" d="M16.4857 5.10156L7.52178 5.10245C4.88872 5.10245 3.24512 6.56871 3.24512 9.26379V17.3771C3.24512 20.1149 4.88872 21.615 7.52178 21.615L16.478 21.6142C19.1188 21.6142 20.7546 20.1401 20.7546 17.4441V9.2629C20.7624 6.56782 19.1265 5.10156 16.4857 5.10156Z" stroke="black" stroke-width="1.5" stroke-linecap="round" stroke-linejoin="round"/>
<path d="M10.3449 14.6644C9.79976 15.7721 9.14586 16.7402 8.37891 17.565H15.6201C14.8537 16.7402 14.1993 15.7721 13.6542 14.6644H15.0634C13.8973 13.2972 12.8936 11.6714 11.9998 9.88965C11.1054 11.6714 10.1023 13.2972 8.93568 14.6644H10.3449Z" stroke="black" stroke-width="1.5" stroke-linecap="round" stroke-linejoin="round"/>
<path d="M11.998 17.5649L11.998 21.1177" stroke="black" stroke-width="1.5" stroke-linecap="round" stroke-linejoin="round"/>
<path d="M18.0427 15.8784L18.0527 15.8884" stroke="black" stroke-width="1.5" stroke-linecap="round" stroke-linejoin="round"/>
<path d="M6.52075 11.8976L7.09826 11.3208" stroke="black" stroke-width="1.5" stroke-linecap="round" stroke-linejoin="round"/>
<path d="M17.0943 10.1743L16.4004 10.868" stroke="black" stroke-width="1.5" stroke-linecap="round" stroke-linejoin="round"/>
</svg>