<svg width="24" height="25" viewBox="0 0 24 25" fill="none" xmlns="http://www.w3.org/2000/svg">
<path fill-rule="evenodd" clip-rule="evenodd" d="M12.0021 16.6616C12.2051 16.6616 12.3995 16.7439 12.5407 16.8897L14.1624 18.5631C14.372 18.7794 14.4318 19.1001 14.3144 19.3775C14.1969 19.6549 13.925 19.8351 13.6238 19.8351H10.3809C10.0797 19.8351 9.80771 19.6549 9.69025 19.3775C9.57279 19.1002 9.63263 18.7795 9.8422 18.5632L11.4635 16.8898C11.6047 16.7439 11.7991 16.6616 12.0021 16.6616Z" fill="black"/>
<path fill-rule="evenodd" clip-rule="evenodd" d="M12.9342 19.8124C13.3328 19.7119 13.5768 19.3088 13.4797 18.9084C13.3821 18.5059 12.9767 18.2587 12.5741 18.3562L12.7508 19.0851C12.5741 18.3562 12.5737 18.3563 12.5733 18.3564L12.5724 18.3567L12.5705 18.3571L12.566 18.3583L12.5547 18.3612C12.5461 18.3634 12.5355 18.3663 12.5229 18.3698C12.4979 18.3769 12.465 18.3868 12.4259 18.3998C12.348 18.4256 12.2429 18.4646 12.123 18.5201C11.8882 18.6288 11.5684 18.8138 11.2887 19.1129C11.0008 19.4207 10.7596 19.8465 10.7049 20.401C10.6511 20.9469 10.7846 21.5483 11.1194 22.2058C11.3073 22.5749 11.7589 22.7218 12.128 22.5338C12.4972 22.3459 12.644 21.8943 12.4561 21.5252C12.2137 21.0491 12.1791 20.7362 12.1976 20.5482C12.2153 20.3689 12.287 20.2414 12.3842 20.1375C12.4896 20.0248 12.627 19.9398 12.7531 19.8814C12.8136 19.8534 12.8649 19.8345 12.8983 19.8235C12.9148 19.818 12.9263 19.8146 12.9317 19.8131C12.9328 19.8128 12.9336 19.8125 12.9342 19.8124C12.9342 19.8124 12.9342 19.8124 12.9342 19.8124Z" fill="black"/>
<path fill-rule="evenodd" clip-rule="evenodd" d="M11.9996 4.11523C8.767 4.11523 6.14648 6.73575 6.14648 9.96832C6.14648 11.5982 6.81181 13.29 7.90179 14.5715C8.99072 15.8518 10.4468 16.6614 11.9996 16.6614C13.5523 16.6614 15.0084 15.8518 16.0974 14.5715C17.1873 13.29 17.8527 11.5982 17.8527 9.96832C17.8527 6.73575 15.2321 4.11523 11.9996 4.11523ZM4.64648 9.96832C4.64648 5.90732 7.93857 2.61523 11.9996 2.61523C16.0606 2.61523 19.3527 5.90732 19.3527 9.96832C19.3527 11.9852 18.5398 14.015 17.24 15.5433C15.939 17.0729 14.0936 18.1614 11.9996 18.1614C9.90552 18.1614 8.0601 17.0729 6.75918 15.5433C5.45931 14.015 4.64648 11.9852 4.64648 9.96832Z" fill="black"/>
<path fill-rule="evenodd" clip-rule="evenodd" d="M5.4807 19.6973C5.4354 19.229 5.01904 18.8861 4.55074 18.9314C4.13845 18.9713 3.77189 18.6694 3.73201 18.2571C3.69212 17.8448 3.99402 17.4782 4.40631 17.4383C5.69918 17.3133 6.84866 18.26 6.97373 19.5528C7.01361 19.9651 6.71172 20.3317 6.29943 20.3716C5.88714 20.4115 5.52058 20.1096 5.4807 19.6973Z" fill="black"/>
<path fill-rule="evenodd" clip-rule="evenodd" d="M20.1976 16.5176C20.4544 16.8427 20.399 17.3143 20.0739 17.571C19.7248 17.8468 19.6653 18.3534 19.941 18.7025C20.1978 19.0276 20.1424 19.4992 19.8173 19.756C19.4923 20.0127 19.0206 19.9573 18.7639 19.6323C17.9747 18.633 18.145 17.1831 19.1442 16.3939C19.4693 16.1372 19.9409 16.1925 20.1976 16.5176Z" fill="black"/>
<path fill-rule="evenodd" clip-rule="evenodd" d="M19.2989 3.65983C19.3613 3.51988 19.3814 3.35962 19.3469 3.19832C19.2603 2.79326 18.8618 2.53511 18.4567 2.62171C18.4188 2.62982 18.3516 2.64688 18.2751 2.6846C18.2285 2.70758 18.0248 2.80976 17.9157 3.06141C17.8511 3.21022 17.8325 3.38597 17.8805 3.5602C17.925 3.72191 18.0126 3.83245 18.0783 3.89707C18.1977 4.01462 18.3243 4.06033 18.366 4.07462C18.7403 4.20291 19.1462 4.01816 19.2989 3.65983ZM18.8524 2.65566C18.8616 2.65881 18.8761 2.66389 18.8945 2.6715C18.8807 2.66584 18.8667 2.66055 18.8524 2.65566Z" fill="black"/>
<path fill-rule="evenodd" clip-rule="evenodd" d="M3.30993 14.0861C3.37228 13.9462 3.39246 13.7859 3.35798 13.6246C3.27137 13.2195 2.8728 12.9614 2.46774 13.048C2.42983 13.0561 2.36268 13.0731 2.28616 13.1109C2.23955 13.1338 2.03586 13.236 1.92669 13.4877C1.86213 13.6365 1.84356 13.8122 1.89149 13.9865C1.93598 14.1482 2.02368 14.2587 2.08932 14.3233C2.20873 14.4409 2.33535 14.4866 2.37703 14.5009C2.75132 14.6292 3.15727 14.4444 3.30993 14.0861ZM2.8634 13.0819C2.87261 13.0851 2.88712 13.0902 2.90553 13.0978C2.89173 13.0921 2.87769 13.0868 2.8634 13.0819Z" fill="black"/>
<path fill-rule="evenodd" clip-rule="evenodd" d="M12.0004 6.00537C12.2286 6.00537 12.4445 6.10933 12.5868 6.28782L15.3176 9.71301C15.4972 9.93826 15.5319 10.2465 15.4069 10.506C15.2819 10.7655 15.0193 10.9306 14.7312 10.9306H14.4668L14.9846 11.8274C15.1186 12.0594 15.1186 12.3453 14.9846 12.5774C14.8507 12.8094 14.6031 12.9524 14.3351 12.9524H12.8184V14.0216C12.8184 14.4358 12.4826 14.7716 12.0684 14.7716C11.6542 14.7716 11.3184 14.4358 11.3184 14.0216V12.9524H9.6659C9.39795 12.9524 9.15036 12.8094 9.01638 12.5774C8.88241 12.3453 8.88241 12.0594 9.01638 11.8274L9.53416 10.9306H9.26954C8.98146 10.9306 8.71884 10.7655 8.59383 10.506C8.46882 10.2465 8.50352 9.93826 8.68311 9.71301L11.4139 6.28782C11.5562 6.10933 11.7721 6.00537 12.0004 6.00537ZM10.8267 9.43055H10.8332C11.1012 9.43055 11.3487 9.5735 11.4827 9.80555C11.6167 10.0376 11.6167 10.3235 11.4827 10.5556L10.9649 11.4524H13.0361L12.5183 10.5556C12.3843 10.3235 12.3843 10.0376 12.5183 9.80555C12.6523 9.5735 12.8999 9.43055 13.1678 9.43055H13.174L12.0004 7.95846L10.8267 9.43055Z" fill="black"/>
</svg>