<svg width="24" height="25" viewBox="0 0 24 25" fill="none" xmlns="http://www.w3.org/2000/svg">
<path fill-rule="evenodd" clip-rule="evenodd" d="M21.2217 20.0657L19.9617 8.23569C19.8517 7.18569 19.2417 6.39569 18.2117 6.27569V6.26569H16.6617C17.0917 7.06569 17.0817 7.73569 17.0917 7.84569L18.1117 20.0057C18.1617 20.4957 18.0917 21.0057 17.9117 21.4857C17.7817 21.8657 17.5817 22.2357 17.3217 22.5557H18.9817C19.6217 22.5557 20.2317 22.2857 20.6617 21.8057C21.0817 21.3357 21.2917 20.6957 21.2217 20.0657Z" fill="black" fill-opacity="0.4"/>
<path fill-rule="evenodd" clip-rule="evenodd" d="M13.6537 6.22412H5.90371C5.82371 6.22412 5.73371 6.22412 5.65371 6.24412C4.79371 6.33412 4.06371 6.93412 3.79371 7.72412C3.71371 7.90412 3.67371 8.10412 3.65371 8.30412L2.77371 20.1341C2.74371 20.4441 2.79371 20.7641 2.90371 21.0541C2.99371 21.3341 3.15371 21.6041 3.36371 21.8341C3.78371 22.2941 4.39371 22.5541 5.01371 22.5541H14.5337C15.1637 22.5541 15.7637 22.2941 16.1837 21.8341C16.6137 21.3741 16.8237 20.7541 16.7837 20.1341L15.8937 8.30412C15.8037 7.14412 14.8237 6.22412 13.6537 6.22412Z" fill="black" fill-opacity="0.4"/>
<path fill-rule="evenodd" clip-rule="evenodd" d="M12.7462 13.1686C12.5392 12.8106 12.0802 12.6886 11.7222 12.8946L10.5262 13.5846V12.2026C10.5262 11.7886 10.1902 11.4526 9.77623 11.4526C9.36223 11.4526 9.02623 11.7886 9.02623 12.2026V13.5836L7.83223 12.8946C7.47323 12.6886 7.01523 12.8106 6.80823 13.1686C6.60023 13.5266 6.72323 13.9856 7.08223 14.1926L8.27723 14.8826L7.08223 15.5726C6.72323 15.7796 6.60023 16.2386 6.80823 16.5976C6.94623 16.8376 7.19923 16.9726 7.45723 16.9726C7.58523 16.9726 7.71423 16.9396 7.83223 16.8716L9.02623 16.1826V17.5606C9.02623 17.9746 9.36223 18.3106 9.77623 18.3106C10.1902 18.3106 10.5262 17.9746 10.5262 17.5606V16.1806L11.7222 16.8706C11.8402 16.9396 11.9692 16.9716 12.0962 16.9716C12.3552 16.9716 12.6072 16.8366 12.7462 16.5966C12.9532 16.2376 12.8302 15.7786 12.4722 15.5716L11.2772 14.8826L12.4722 14.1926C12.8302 13.9856 12.9532 13.5266 12.7462 13.1686Z" fill="black"/>
<path fill-rule="evenodd" clip-rule="evenodd" d="M12.5483 3.49383C12.4983 3.44383 12.4483 3.40383 12.3883 3.37383C11.7883 2.93383 11.0483 2.67383 10.2483 2.67383C8.24834 2.67383 6.62834 4.24383 6.54834 6.22383H8.04834C8.12834 5.08383 9.07834 4.17383 10.2483 4.17383C10.3783 4.17383 10.5183 4.18383 10.6383 4.21383C10.1383 4.77383 9.81834 5.48383 9.70834 6.22383H11.2383C11.3483 5.75383 11.5983 5.32383 11.9583 5.00383C12.2283 5.34383 12.4083 5.76383 12.4383 6.22383H13.6883C13.7683 6.22383 13.8583 6.22383 13.9383 6.24383C13.9083 5.12383 13.3683 4.13383 12.5483 3.49383Z" fill="black"/>
<path fill-rule="evenodd" clip-rule="evenodd" d="M15.3217 3.06539C14.9317 2.92539 14.5017 3.12539 14.3617 3.51539C14.2217 3.90539 14.4417 4.27539 14.8117 4.47539C15.7917 5.01539 16.3517 5.67539 16.6617 6.26539H18.2117C17.9217 4.85539 16.6617 3.54539 15.3217 3.06539Z" fill="black"/>
</svg>