<svg width="24" height="25" viewBox="0 0 24 25" fill="none" xmlns="http://www.w3.org/2000/svg">
<path fill-rule="evenodd" clip-rule="evenodd" d="M4.8957 12.6978C5.11903 12.3489 5.58287 12.2472 5.93172 12.4705L11.3833 15.9605C11.7594 16.2015 12.2415 16.2016 12.6176 15.9607L18.0693 12.4705C18.4182 12.2472 18.882 12.3489 19.1054 12.6978C19.3287 13.0466 19.2269 13.5105 18.8781 13.7338L13.4267 17.2237C12.5575 17.7804 11.4437 17.7806 10.5745 17.2238L5.12297 13.7338C4.77412 13.5105 4.67237 13.0466 4.8957 12.6978Z" fill="black"/>
<path fill-rule="evenodd" clip-rule="evenodd" d="M8.82818 4.42383C7.93472 4.42383 7.21094 5.14761 7.21094 6.04107V13.6224C7.21094 14.0366 6.87515 14.3724 6.46094 14.3724C6.04672 14.3724 5.71094 14.0366 5.71094 13.6224V6.04107C5.71094 4.31918 7.10629 2.92383 8.82818 2.92383H15.1652C16.8898 2.92383 18.2709 4.32087 18.2824 6.02726L18.2824 6.03145L18.2912 13.6216C18.2916 14.0358 17.9562 14.3719 17.542 14.3724C17.1278 14.3729 16.7916 14.0375 16.7912 13.6233L16.7824 6.03737C16.7824 6.03675 16.7824 6.03614 16.7824 6.03552C16.7754 5.14492 16.0552 4.42383 15.1652 4.42383H8.82818Z" fill="black"/>
<path fill-rule="evenodd" clip-rule="evenodd" d="M7.19564 5.6643C7.2862 6.06849 7.03196 6.46957 6.62777 6.56014C4.92721 6.94118 3.75 8.54658 3.75 10.6163V16.6643C3.75 19.0462 5.29649 20.8145 7.4742 20.8074L7.47665 20.8074L16.5146 20.8074L16.517 20.8074C18.6966 20.8145 20.25 19.0441 20.25 16.6643V10.6163C20.25 8.5498 19.0669 6.94224 17.3545 6.5603C16.9502 6.47013 16.6955 6.0693 16.7857 5.66502C16.8759 5.26074 17.2767 5.0061 17.681 5.09627C20.2088 5.66006 21.75 7.98915 21.75 10.6163V16.6643C21.75 19.6958 19.6903 22.3171 16.5133 22.3074C16.5129 22.3074 16.5125 22.3074 16.5121 22.3074L16.5146 21.5574V22.3074H16.5133H7.47789C7.4783 22.3074 7.4787 22.3074 7.4791 22.3074L7.47665 21.5574V22.3074H7.47789C4.2991 22.3171 2.25 19.6937 2.25 16.6643V10.6163C2.25 7.99238 3.7796 5.66113 6.2998 5.09643C6.70399 5.00587 7.10507 5.26011 7.19564 5.6643Z" fill="black"/>
<path fill-rule="evenodd" clip-rule="evenodd" d="M11.2008 9.36721C11.5595 9.57431 11.6824 10.033 11.4753 10.3917L10.9514 11.2991H13.047L12.5231 10.3917C12.316 10.033 12.4389 9.57431 12.7976 9.36721C13.1563 9.1601 13.615 9.28301 13.8221 9.64173L14.9955 11.6741C15.1295 11.9062 15.1295 12.1921 14.9955 12.4241C14.8615 12.6562 14.6139 12.7991 14.346 12.7991H9.65234C9.38439 12.7991 9.1368 12.6562 9.00282 12.4241C8.86885 12.1921 8.86885 11.9062 9.00282 11.6741L10.1762 9.64173C10.3833 9.28301 10.842 9.1601 11.2008 9.36721Z" fill="black"/>
<path fill-rule="evenodd" clip-rule="evenodd" d="M11.999 5.82373C12.2273 5.82373 12.4431 5.92769 12.5855 6.10618L15.3306 9.5493C15.5888 9.87317 15.5356 10.3451 15.2117 10.6033C14.8878 10.8615 14.4159 10.8083 14.1577 10.4844L11.999 7.77682L9.84034 10.4844C9.58212 10.8083 9.11024 10.8615 8.78636 10.6033C8.46248 10.3451 8.40926 9.87317 8.66748 9.5493L11.4126 6.10618C11.5549 5.92769 11.7707 5.82373 11.999 5.82373Z" fill="black"/>
<path fill-rule="evenodd" clip-rule="evenodd" d="M12.0684 11.2993C12.4826 11.2993 12.8184 11.6351 12.8184 12.0493V13.8773C12.8184 14.2915 12.4826 14.6273 12.0684 14.6273C11.6541 14.6273 11.3184 14.2915 11.3184 13.8773L11.3184 12.0493C11.3184 11.6351 11.6541 11.2993 12.0684 11.2993Z" fill="black"/>
</svg>