<svg width="24" height="25" viewBox="0 0 24 25" fill="none" xmlns="http://www.w3.org/2000/svg">
<path d="M9.02661 20.4663C9.02661 21.6753 10.3136 22.6223 11.9556 22.6223C13.5986 22.6223 14.8846 21.6753 14.8846 20.4663C14.8846 20.1903 14.6616 19.9663 14.3846 19.9663H9.52661C9.25061 19.9663 9.02661 20.1903 9.02661 20.4663Z" fill="black"/>
<path fill-rule="evenodd" clip-rule="evenodd" d="M18.8883 15.6216L18.4903 14.7746C18.2403 14.2456 18.1073 13.6536 18.1073 13.0626L18.1063 11.9376C18.1063 10.5606 17.6413 9.25361 16.8263 8.20061C16.6673 8.23761 16.5013 8.25761 16.3263 8.25761C15.4573 8.25761 14.3733 7.77861 13.0693 6.85761C12.7923 7.08361 12.4433 7.22561 12.0593 7.22561C11.6703 7.22561 11.3183 7.08061 11.0403 6.84961C9.65326 7.77661 8.50526 8.25761 7.59326 8.25761C7.44326 8.25761 7.30426 8.23561 7.16726 8.21061C6.35726 9.26161 5.89326 10.5646 5.89326 11.9376L5.89226 13.0626C5.89226 13.6516 5.76026 14.2446 5.51026 14.7756L5.11126 15.6216C4.75326 16.3846 4.80826 17.2646 5.26026 17.9756C5.71226 18.6876 6.48526 19.1126 7.32826 19.1126H16.6723C17.5153 19.1126 18.2883 18.6876 18.7403 17.9756C19.1913 17.2646 19.2473 16.3846 18.8883 15.6216Z" fill="black" fill-opacity="0.4"/>
<path fill-rule="evenodd" clip-rule="evenodd" d="M16.5844 6.70543C16.2324 6.88643 15.2764 6.64343 13.6654 5.45043V4.76843C15.2744 3.57443 16.2294 3.33243 16.5844 3.51243C16.8704 3.65443 17.0414 4.25243 17.0414 5.10843C17.0414 5.96543 16.8704 6.56143 16.5844 6.70543ZM7.2644 6.68943C6.9594 6.53143 6.7854 5.95543 6.7854 5.10843C6.7854 4.26243 6.9594 3.68543 7.2644 3.52743C7.4534 3.43043 8.2464 3.23543 10.4534 4.77243V5.44643C8.2474 6.98043 7.4544 6.78743 7.2644 6.68943ZM17.2564 2.17043C16.2634 1.67443 14.8854 2.06843 13.0644 3.35743C12.7884 3.13343 12.4414 2.99343 12.0594 2.99343C11.6724 2.99343 11.3224 3.13643 11.0444 3.36443C9.0774 2.04843 7.6074 1.65943 6.5724 2.19643C5.7184 2.64043 5.2854 3.62043 5.2854 5.10843C5.2854 6.59743 5.7184 7.57643 6.5724 8.02043C6.8754 8.17843 7.2154 8.25743 7.5934 8.25743C8.5054 8.25743 9.6534 7.77543 11.0404 6.84943C11.3184 7.08043 11.6704 7.22543 12.0594 7.22543C12.4434 7.22543 12.7924 7.08343 13.0694 6.85743C14.3734 7.77743 15.4574 8.25743 16.3264 8.25743C16.6674 8.25743 16.9774 8.18643 17.2564 8.04643C18.1094 7.61943 18.5414 6.63143 18.5414 5.10843C18.5414 3.58643 18.1094 2.59843 17.2564 2.17043Z" fill="black"/>
</svg>