<svg width="24" height="25" viewBox="0 0 24 25" fill="none" xmlns="http://www.w3.org/2000/svg">
<path fill-rule="evenodd" clip-rule="evenodd" d="M8.39571 4.04248C7.72869 4.04248 7.14432 4.60946 7.14432 5.36393C7.14432 6.1172 7.72847 6.68441 8.39571 6.68441C8.80993 6.68441 9.14571 7.0202 9.14571 7.43441C9.14571 7.84862 8.80993 8.18441 8.39571 8.18441C6.85237 8.18441 5.64432 6.89714 5.64432 5.36393C5.64432 3.82998 6.85215 2.54248 8.39571 2.54248C10.227 2.54248 11.3218 3.90465 11.9101 5.01144C12.2145 5.58416 12.4187 6.14974 12.5466 6.56777C12.611 6.77815 12.6571 6.95457 12.6875 7.08032C12.7027 7.14327 12.714 7.19375 12.7218 7.22968L12.7308 7.2725L12.7333 7.28529L12.7342 7.28946L12.7345 7.29097C12.7345 7.29123 12.7347 7.2921 12.0248 7.42928L12.7347 7.2921C12.8133 7.69879 12.5473 8.09219 12.1406 8.17078C11.7343 8.24931 11.3412 7.98388 11.2621 7.57781C11.2621 7.57766 11.2622 7.57797 11.2621 7.57781L11.2619 7.57672L11.2611 7.57256L11.2555 7.5461C11.2502 7.52137 11.2416 7.48286 11.2294 7.43255C11.2051 7.33179 11.1667 7.18462 11.1123 7.00669C11.0026 6.64812 10.8315 6.17821 10.5856 5.71545C10.0731 4.75127 9.3666 4.04248 8.39571 4.04248Z" fill="black"/>
<path fill-rule="evenodd" clip-rule="evenodd" d="M12.0865 5.0114C12.6748 3.90463 13.7697 2.54248 15.601 2.54248C17.1445 2.54248 18.3523 3.82998 18.3523 5.36393C18.3523 6.89714 17.1443 8.18441 15.601 8.18441C15.1867 8.18441 14.851 7.84862 14.851 7.43441C14.851 7.0202 15.1867 6.68441 15.601 6.68441C16.2682 6.68441 16.8523 6.1172 16.8523 5.36393C16.8523 4.60946 16.268 4.04248 15.601 4.04248C14.63 4.04248 13.9235 4.7513 13.4109 5.71549C13.1649 6.17826 12.9939 6.64816 12.8841 7.00674C12.8296 7.18467 12.7913 7.33184 12.7669 7.4326C12.7548 7.48291 12.7462 7.52142 12.7408 7.54616L12.7353 7.57261L12.7344 7.57677C12.6556 7.98321 12.2622 8.24937 11.8557 8.17077C11.449 8.09215 11.1831 7.69873 11.2617 7.29205L11.998 7.43441C11.2617 7.29205 11.2616 7.29231 11.2617 7.29205L11.2622 7.2894L11.263 7.28524L11.2656 7.27244L11.2746 7.22963C11.2824 7.19369 11.2937 7.14322 11.3089 7.08027C11.3393 6.95452 11.3854 6.7781 11.4498 6.56772C11.5777 6.14969 11.782 5.58411 12.0865 5.0114Z" fill="black"/>
<path fill-rule="evenodd" clip-rule="evenodd" d="M4.01529 8.02134C4.77116 7.16408 5.85374 6.68311 7.12775 6.68311H16.873C18.1466 6.68311 19.229 7.16416 19.9847 8.02139C20.7316 8.86875 21.1091 10.0247 21.1091 11.3026V17.4206C21.1091 18.6999 20.7295 19.856 19.9818 20.703C19.2257 21.5597 18.1437 22.0411 16.873 22.0411H7.12677C5.85314 22.0411 4.77078 21.56 4.01507 20.7026C3.26808 19.8551 2.89062 18.699 2.89062 17.4206V11.3026C2.89062 10.0247 3.26813 8.86871 4.01529 8.02134ZM5.14039 9.01338C4.68155 9.53375 4.39062 10.3125 4.39062 11.3026V17.4206C4.39062 18.4113 4.6816 19.1903 5.14036 19.7108C5.5904 20.2214 6.25111 20.5411 7.12677 20.5411H16.873C17.7447 20.5411 18.4059 20.2218 18.8572 19.7104C19.317 19.1895 19.6091 18.4103 19.6091 17.4206V11.3026C19.6091 10.3125 19.3182 9.53372 18.8595 9.01332C18.4094 8.50281 17.7487 8.18311 16.873 8.18311H7.12775C6.25149 8.18311 5.59051 8.50288 5.14039 9.01338Z" fill="black"/>
<path fill-rule="evenodd" clip-rule="evenodd" d="M12.412 6.80805C12.7573 7.03691 12.8516 7.50231 12.6228 7.84756L10.3966 11.206C10.1678 11.5512 9.70236 11.6456 9.35711 11.4167C9.01186 11.1879 8.9175 10.7225 9.14635 10.3772L11.3725 7.01881C11.6014 6.67356 12.0668 6.5792 12.412 6.80805Z" fill="black"/>
<path fill-rule="evenodd" clip-rule="evenodd" d="M12.7381 7.3114C12.7382 7.31176 12.738 7.31104 12.7381 7.3114V7.3114ZM11.998 7.4332L11.2579 7.55423C11.191 7.14545 11.4682 6.75987 11.877 6.69303C12.2853 6.62627 12.6705 6.90345 12.7381 7.3114L12.7383 7.31266L12.741 7.32764C12.7437 7.34227 12.7482 7.36592 12.7548 7.3975C12.7679 7.46074 12.789 7.55513 12.8198 7.67183C12.8817 7.90683 12.9805 8.22406 13.1271 8.55635C13.4341 9.2524 13.8817 9.8603 14.4896 10.09C14.8771 10.2365 15.0725 10.6693 14.9261 11.0567C14.7797 11.4442 14.3469 11.6396 13.9594 11.4932C12.7796 11.0474 12.1139 9.97608 11.7547 9.1618C11.5681 8.73893 11.4455 8.34322 11.3693 8.05407C11.331 7.9087 11.3039 7.78821 11.286 7.7021C11.2771 7.65899 11.2704 7.62435 11.2658 7.59935L11.2604 7.56917L11.2588 7.55975L11.2582 7.55649L11.258 7.55524C11.258 7.555 11.2579 7.55423 11.998 7.4332Z" fill="black"/>
<path fill-rule="evenodd" clip-rule="evenodd" d="M11.999 12.231C12.4132 12.231 12.749 12.5667 12.749 12.981V18.3382C12.749 18.7524 12.4132 19.0882 11.999 19.0882C11.5848 19.0882 11.249 18.7524 11.249 18.3382V12.981C11.249 12.5667 11.5848 12.231 11.999 12.231Z" fill="black"/>
<path fill-rule="evenodd" clip-rule="evenodd" d="M14.9689 13.9464C15.176 14.3051 15.0531 14.7638 14.6943 14.9709L10.0549 17.6495C9.69615 17.8566 9.23746 17.7337 9.03035 17.375C8.82324 17.0163 8.94615 16.5576 9.30487 16.3505L13.9443 13.6719C14.3031 13.4648 14.7618 13.5877 14.9689 13.9464Z" fill="black"/>
<path fill-rule="evenodd" clip-rule="evenodd" d="M14.9689 17.3744C15.176 17.0157 15.0531 16.557 14.6943 16.3499L10.0549 13.6713C9.69615 13.4642 9.23746 13.5871 9.03035 13.9458C8.82324 14.3045 8.94615 14.7632 9.30487 14.9703L13.9443 17.6489C14.3031 17.856 14.7618 17.7331 14.9689 17.3744Z" fill="black"/>
</svg>