<svg width="24" height="25" viewBox="0 0 24 25" fill="none" xmlns="http://www.w3.org/2000/svg">
<path d="M13.6237 19.0848H10.3809L12.0021 17.4114L13.6237 19.0848Z" stroke="black" stroke-width="1.5" stroke-linecap="round" stroke-linejoin="round"/>
<path d="M11.7877 21.8653C10.6335 19.5983 12.7508 19.085 12.7508 19.085" stroke="black" stroke-width="1.5" stroke-linecap="round" stroke-linejoin="round"/>
<path d="M5.39648 9.96832C5.39648 13.6151 8.35279 17.4114 11.9996 17.4114C15.6464 17.4114 18.6027 13.6151 18.6027 9.96832C18.6027 6.32154 15.6464 3.36523 11.9996 3.36523C9.78579 3.36523 7.82646 4.45466 6.62845 6.12664" stroke="black" stroke-width="1.5" stroke-linecap="round" stroke-linejoin="round"/>
<path d="M4.47852 18.1848C5.3591 18.0996 6.14202 18.7444 6.22721 19.625" stroke="black" stroke-width="1.5" stroke-linecap="round" stroke-linejoin="round"/>
<path d="M19.3525 19.1674C18.82 18.4932 18.9349 17.5149 19.6091 16.9824" stroke="black" stroke-width="1.5" stroke-linecap="round" stroke-linejoin="round"/>
<path d="M18.6092 3.36547C18.6002 3.36238 18.6021 3.35791 18.6135 3.35547" stroke="black" stroke-width="1.5" stroke-linecap="round" stroke-linejoin="round"/>
<path d="M2.62016 13.7912C2.61116 13.7882 2.6131 13.7837 2.6245 13.7812" stroke="black" stroke-width="1.5" stroke-linecap="round" stroke-linejoin="round"/>
<path d="M14.7312 10.1806L13.1678 10.1806L14.3351 12.2024H9.66589L10.8332 10.1806L9.26953 10.1806L12.0004 6.75537L13.1678 8.06657M12.0684 12.2031V14.0216" stroke="black" stroke-width="1.5" stroke-linecap="round" stroke-linejoin="round"/>
</svg>