<svg width="24" height="25" viewBox="0 0 24 25" fill="none" xmlns="http://www.w3.org/2000/svg">
<path fill-rule="evenodd" clip-rule="evenodd" d="M19.6604 5.1935C19.6604 3.9243 18.6259 3.16786 17.473 3.05598C17.3081 3.03998 17.1734 3.17582 17.1734 3.3415V5.2555C17.1734 5.6695 16.8374 6.0055 16.4234 6.0055C16.0094 6.0055 15.6734 5.6695 15.6734 5.2555V3.3415C15.6734 3.17582 15.5391 3.0415 15.3734 3.0415H14.3974C14.2318 3.0415 14.0974 3.17582 14.0974 3.3415V5.2555C14.0974 5.6695 13.7614 6.0055 13.3474 6.0055C12.9324 6.0055 12.5974 5.6695 12.5974 5.2555V3.3415C12.5974 3.17582 12.4631 3.0415 12.2974 3.0415H11.3224C11.1568 3.0415 11.0224 3.17582 11.0224 3.3415V5.2555C11.0224 5.6695 10.6864 6.0055 10.2724 6.0055C9.85845 6.0055 9.52245 5.6695 9.52245 5.2555V3.3415C9.52245 3.17582 9.38776 3.03998 9.22285 3.05594C8.06926 3.16759 7.03345 3.92294 7.03345 5.1935L7.03445 6.5495C7.03445 7.7975 8.04545 8.7035 9.43945 8.7035H17.2564C18.6494 8.7035 19.6614 7.7975 19.6614 6.5495L19.6604 5.1935Z" fill="black"/>
<path fill-rule="evenodd" clip-rule="evenodd" d="M18.0917 9.83385C18.2968 9.78176 18.511 9.92756 18.511 10.1392V15.3183C18.511 16.4983 17.911 17.5883 16.911 18.2183L11.961 21.3283L11.791 21.4383C11.381 21.6983 10.951 21.8883 10.501 22.0083C10.081 22.1283 9.64096 22.1883 9.20096 22.1883C7.90096 22.1883 6.61096 21.6583 5.66096 20.6683C4.62096 19.5483 4.16096 18.0483 4.40096 16.5483C4.44096 16.3383 4.48096 16.1183 4.55096 15.9183C4.70096 15.4183 4.92096 14.9583 5.22096 14.5383C5.65096 13.9183 6.22096 13.4083 6.91096 13.0383L8.56096 12.1583V10.206C8.56096 10.0067 8.75193 9.86375 8.94851 9.89665C9.10776 9.9233 9.27137 9.93827 9.44096 9.93827H17.251C17.5479 9.93827 17.8281 9.90077 18.0917 9.83385Z" fill="black" fill-opacity="0.4"/>
<path fill-rule="evenodd" clip-rule="evenodd" d="M14.998 14.4025L14.552 14.1455L14.998 13.8875C15.357 13.6805 15.479 13.2215 15.272 12.8635C15.065 12.5055 14.606 12.3815 14.248 12.5895L13.803 12.8455V12.3315C13.803 11.9175 13.467 11.5815 13.053 11.5815C12.639 11.5815 12.303 11.9175 12.303 12.3315V12.8465L11.856 12.5895C11.498 12.3815 11.039 12.5055 10.832 12.8635C10.625 13.2215 10.748 13.6805 11.106 13.8875L11.552 14.1455L11.106 14.4025C10.748 14.6095 10.625 15.0685 10.832 15.4265C10.971 15.6675 11.223 15.8015 11.482 15.8015C11.609 15.8015 11.738 15.7695 11.856 15.7015L12.303 15.4435V15.9585C12.303 16.3725 12.639 16.7085 13.053 16.7085C13.467 16.7085 13.803 16.3725 13.803 15.9585V15.4445L14.248 15.7015C14.366 15.7695 14.495 15.8015 14.623 15.8015C14.881 15.8015 15.134 15.6675 15.272 15.4265C15.479 15.0685 15.357 14.6095 14.998 14.4025Z" fill="black"/>
<path fill-rule="evenodd" clip-rule="evenodd" d="M11.9605 21.3281L11.7905 21.4381C11.3805 21.6981 10.9505 21.8881 10.5005 22.0081V21.9781C10.4205 18.8181 7.47054 16.5481 4.55054 15.9181C4.70054 15.4181 4.92054 14.9581 5.22054 14.5381C8.33054 15.3181 11.5405 17.6981 11.9605 21.3281Z" fill="black"/>
</svg>