<svg width="24" height="25" viewBox="0 0 24 25" fill="none" xmlns="http://www.w3.org/2000/svg">
<path fill-rule="evenodd" clip-rule="evenodd" d="M16.3739 9.72844C15.8739 10.8784 14.9639 12.1984 13.8039 13.4384C13.6239 13.6284 13.4439 13.8084 13.2739 13.9784C13.2639 13.9884 13.2639 13.9984 13.2539 13.9884C13.2039 14.0584 13.1439 14.1084 13.0939 14.1484V14.1584C11.3439 15.8284 9.83393 16.5784 9.08393 16.7084C8.91393 16.7384 8.77393 16.7484 8.68393 16.7184C8.64393 16.7084 8.61393 16.6884 8.59393 16.6684C8.48393 16.5684 8.41393 16.0184 8.87393 14.9484C9.38393 13.7984 10.2939 12.4784 11.4539 11.2384C11.9439 10.7184 12.4139 10.2684 12.8539 9.88844C13.2939 9.51844 13.7039 9.20844 14.0939 8.95844C15.1539 8.23844 15.9939 7.93844 16.4139 7.93844C16.5339 7.93844 16.6239 7.96844 16.6639 8.00844L16.7339 8.21844C16.7439 8.24844 16.7439 8.28844 16.7439 8.33844C16.7439 8.62844 16.6539 9.07844 16.3739 9.72844ZM21.8539 19.3684C21.8539 19.3684 18.0839 7.41844 17.9439 7.22844C17.8739 7.10844 17.7839 6.99844 17.6939 6.91844C16.7239 6.00844 14.9839 6.53844 13.1939 7.75844C12.7839 8.02844 12.3739 8.34844 11.9639 8.67844C11.4139 9.15844 10.8639 9.66844 10.3539 10.2184C9.08393 11.5784 8.07393 13.0484 7.50393 14.3484C6.64393 16.3184 7.06393 17.2884 7.56393 17.7584C7.70393 17.8884 7.85393 17.9884 8.01393 18.0484C8.02393 18.0584 20.0539 21.2584 20.0539 21.2584C20.1739 21.2984 20.3039 21.3084 20.4339 21.3084C20.8339 21.3084 21.2239 21.1484 21.5139 20.8484C21.8839 20.4484 22.0139 19.8884 21.8539 19.3684Z" fill="black" fill-opacity="0.4"/>
<path fill-rule="evenodd" clip-rule="evenodd" d="M17.0036 11.7383C16.7136 12.2183 16.3636 12.7083 15.9836 13.1883C16.5336 14.6383 17.0836 16.7983 16.8736 18.8783L18.3336 19.2583C18.7036 16.3483 17.7236 13.2883 17.0036 11.7383Z" fill="black"/>
<path fill-rule="evenodd" clip-rule="evenodd" d="M13.2236 16.0482C13.3336 16.7082 13.3936 17.3482 13.3936 17.9582L14.8836 18.3482C14.9236 17.2582 14.8036 16.0882 14.5136 14.8682C14.0936 15.2882 13.6636 15.6882 13.2236 16.0482Z" fill="black"/>
<path fill-rule="evenodd" clip-rule="evenodd" d="M6.74709 9.51431C6.16709 9.37031 5.56309 9.46231 5.05309 9.77231L4.87709 9.87831C4.43309 10.1503 3.85109 10.0053 3.58409 9.56531L3.47309 9.37831C3.26209 9.02431 2.80309 8.90731 2.44409 9.11931C2.08909 9.33131 1.97309 9.79131 2.18509 10.1483L2.30009 10.3393C2.99809 11.4913 4.50409 11.8583 5.65309 11.1623L5.82909 11.0563C5.99909 10.9533 6.19709 10.9273 6.38909 10.9703C6.58009 11.0183 6.74109 11.1363 6.84309 11.3043C6.98309 11.5373 7.23109 11.6663 7.48509 11.6663C7.61709 11.6663 7.75109 11.6313 7.87209 11.5583C8.22609 11.3443 8.34109 10.8833 8.12609 10.5293C7.81709 10.0173 7.32709 9.65731 6.74709 9.51431Z" fill="black"/>
<path fill-rule="evenodd" clip-rule="evenodd" d="M8.1465 4.46641C7.8255 4.72741 7.7755 5.19941 8.0375 5.52141C8.3845 5.94941 8.5565 6.62441 8.4355 7.09141C8.3325 7.49241 8.5735 7.90141 8.9745 8.00541C9.0375 8.02141 9.1005 8.02941 9.1635 8.02941C9.4965 8.02941 9.8005 7.80441 9.8885 7.46641C10.1275 6.53841 9.8515 5.37641 9.2015 4.57541C8.9385 4.25341 8.4655 4.20441 8.1465 4.46641Z" fill="black"/>
<path fill-rule="evenodd" clip-rule="evenodd" d="M3.72273 6.15594C3.86873 6.29694 4.05573 6.36594 4.24373 6.36594C4.43973 6.36594 4.63573 6.28894 4.78373 6.13594C5.07073 5.83894 5.06173 5.36294 4.76373 5.07594L4.35773 4.68394C4.06073 4.39694 3.58573 4.40594 3.29673 4.70394C3.00973 5.00194 3.01873 5.47694 3.31673 5.76394L3.72273 6.15594Z" fill="black"/>
<path fill-rule="evenodd" clip-rule="evenodd" d="M4.23153 13.86L3.67253 13.925C3.26053 13.974 2.96653 14.346 3.01453 14.757C3.05953 15.139 3.38353 15.421 3.75853 15.421C3.78853 15.421 3.81753 15.419 3.84653 15.416L4.40553 15.35C4.81753 15.301 5.11153 14.929 5.06353 14.518C5.01453 14.106 4.63453 13.817 4.23153 13.86Z" fill="black"/>
<path fill-rule="evenodd" clip-rule="evenodd" d="M14.4063 10.1393C14.3883 9.42934 14.0943 8.76834 13.5843 8.28334L13.4243 8.12834C13.2413 7.95534 13.1373 7.72134 13.1313 7.47034C13.1253 7.21834 13.2173 6.98034 13.3903 6.79734L13.5333 6.64834C14.3833 5.75234 14.3463 4.33334 13.4533 3.48334C13.1543 3.19834 12.6773 3.20934 12.3923 3.51034C12.1073 3.81034 12.1193 4.28534 12.4203 4.57134C12.7153 4.85134 12.7253 5.31934 12.4463 5.61434L12.3043 5.76234C11.8543 6.23634 11.6153 6.85534 11.6323 7.50834C11.6473 8.16034 11.9183 8.76734 12.3863 9.21234L12.5473 9.36734C12.7713 9.57934 12.8983 9.86734 12.9063 10.1763C12.9143 10.4863 12.8013 10.7803 12.5873 11.0043C12.3013 11.3043 12.3123 11.7793 12.6123 12.0653C12.7583 12.2033 12.9443 12.2723 13.1303 12.2723C13.3283 12.2723 13.5253 12.1943 13.6733 12.0393C14.1633 11.5253 14.4243 10.8503 14.4063 10.1393Z" fill="black"/>
</svg>