<svg width="24" height="25" viewBox="0 0 24 25" fill="none" xmlns="http://www.w3.org/2000/svg">
<path fill-rule="evenodd" clip-rule="evenodd" d="M21.2223 20.0639L19.9623 8.23393C19.8523 7.18393 19.2423 6.39393 18.2123 6.27393V6.26393C17.9223 4.85393 16.6623 3.54393 15.3223 3.06393C14.9323 2.92393 14.5023 3.12393 14.3623 3.51393C14.2223 3.90393 14.4423 4.27393 14.8123 4.47393C15.7923 5.01393 16.3523 5.67393 16.6623 6.26393C17.0923 7.06393 17.0823 7.73393 17.0923 7.84393L18.1123 20.0039C18.1623 20.4939 18.0923 21.0039 17.9123 21.4839C17.7823 21.8639 17.5823 22.2339 17.3223 22.5539H18.9823C19.6223 22.5539 20.2323 22.2839 20.6623 21.8039C21.0823 21.3339 21.2923 20.6939 21.2223 20.0639Z" fill="black"/>
<path fill-rule="evenodd" clip-rule="evenodd" d="M12.4732 15.5748C12.8332 15.7748 12.9532 16.2348 12.7432 16.5948C12.6032 16.8348 12.3532 16.9648 12.0932 16.9648C11.9732 16.9648 11.8432 16.9348 11.7232 16.8648L10.5232 16.1748V17.5548C10.5232 17.9748 10.1932 18.3048 9.77322 18.3048C9.36322 18.3048 9.02322 17.9748 9.02322 17.5548V16.1848L7.83322 16.8748C7.71322 16.9348 7.58322 16.9748 7.45322 16.9748C7.20322 16.9748 6.94322 16.8348 6.80322 16.5948C6.60322 16.2348 6.72322 15.7748 7.08322 15.5748L8.27322 14.8848L7.08322 14.1948C6.72322 13.9848 6.60322 13.5248 6.80322 13.1648C7.01322 12.8048 7.47322 12.6848 7.83322 12.8948L9.02322 13.5848V12.2048C9.02322 11.7848 9.36322 11.4548 9.77322 11.4548C10.1932 11.4548 10.5232 11.7848 10.5232 12.2048V13.5848L11.7232 12.8948C12.0832 12.6848 12.5432 12.8048 12.7432 13.1648C12.9532 13.5248 12.8332 13.9848 12.4732 14.1948L11.2732 14.8848L12.4732 15.5748ZM10.2532 4.1748C10.3832 4.1748 10.5232 4.1848 10.6432 4.2148C10.1432 4.7748 9.82322 5.4848 9.71322 6.2248H8.05322C8.13322 5.0848 9.08322 4.1748 10.2532 4.1748ZM11.9632 5.0048C12.2332 5.3448 12.4132 5.7648 12.4432 6.2248H11.2432C11.3532 5.7548 11.6032 5.3248 11.9632 5.0048ZM13.9432 6.2448C13.9132 5.1248 13.3732 4.1348 12.5532 3.4948C12.5032 3.4448 12.4532 3.4048 12.3932 3.3748C11.7932 2.9348 11.0532 2.6748 10.2532 2.6748C8.25322 2.6748 6.63322 4.2448 6.55322 6.2248H5.90322C5.82322 6.2248 5.73322 6.2248 5.65322 6.2448C4.79322 6.3348 4.06322 6.9348 3.79322 7.7248C3.71322 7.9048 3.67322 8.1048 3.65322 8.3048L2.77322 20.1348C2.74322 20.4448 2.79322 20.7648 2.90322 21.0548C2.99322 21.3348 3.15322 21.6048 3.36322 21.8348C3.78322 22.2948 4.39322 22.5548 5.01322 22.5548H14.5332C15.1632 22.5548 15.7632 22.2948 16.1832 21.8348C16.6132 21.3748 16.8232 20.7548 16.7832 20.1348L15.8932 8.3048C15.8132 7.2448 14.9832 6.3748 13.9432 6.2448Z" fill="black"/>
</svg>