<svg width="24" height="25" viewBox="0 0 24 25" fill="none" xmlns="http://www.w3.org/2000/svg">
<path d="M12 22.166C15.9798 22.166 19.2061 18.9398 19.2061 14.96C19.2061 10.9802 15.9798 7.75391 12 7.75391C8.02021 7.75391 4.79395 10.9802 4.79395 14.96C4.79395 18.0423 6.72924 20.6727 9.45102 21.7022" stroke="black" stroke-width="1.5" stroke-linecap="round" stroke-linejoin="round"/>
<path d="M14.9704 13.6226L13.4416 13.4032C13.2928 13.3816 13.1627 13.2888 13.095 13.1545L12.4126 11.7892C12.368 11.7043 12.2985 11.6349 12.2139 11.5907C11.9867 11.4737 11.7079 11.5621 11.5894 11.7892L10.9052 13.1553C10.8375 13.2896 10.7083 13.3824 10.5586 13.4032L9.0298 13.6234C8.92823 13.6364 8.83381 13.684 8.76254 13.7577C8.5897 13.938 8.59595 14.2241 8.77502 14.3975L9.88152 15.4594C9.99021 15.5633 10.0401 15.7142 10.0134 15.8615L9.75232 17.3611C9.73629 17.46 9.75322 17.5613 9.79955 17.6497C9.91804 17.8734 10.1969 17.9583 10.4205 17.8396L11.7863 17.1314C11.9208 17.0621 12.0812 17.0621 12.2157 17.1314L13.5805 17.8396C13.6687 17.8864 13.7694 17.9029 13.8683 17.8872C14.1186 17.8465 14.2888 17.6108 14.2487 17.3611L13.9868 15.8615" stroke="black" stroke-width="1.5" stroke-linecap="round" stroke-linejoin="round"/>
<path d="M14.3711 8.12183V6.60156C14.3711 6.04928 13.9234 5.60156 13.3711 5.60156H10.6328C10.0805 5.60156 9.63281 6.04928 9.63281 6.60156V8.12183" stroke="black" stroke-width="1.5" stroke-linecap="round" stroke-linejoin="round"/>
<path d="M13.0137 5.60156V4.72656C13.0137 4.17428 12.566 3.72656 12.0137 3.72656H11.9883C11.436 3.72656 10.9883 4.17428 10.9883 4.72656V5.60156" stroke="black" stroke-width="1.5" stroke-linecap="round" stroke-linejoin="round"/>
</svg>