<svg width="24" height="25" viewBox="0 0 24 25" fill="none" xmlns="http://www.w3.org/2000/svg">
<path fill-rule="evenodd" clip-rule="evenodd" d="M18.6767 9.33375C18.9017 9.11575 19.0487 8.82575 19.0887 8.51775C19.1367 8.14975 19.0397 7.78575 18.8147 7.49075C18.5887 7.19575 18.2617 7.00675 17.9007 6.95875L14.8987 6.52775C14.7687 6.50875 14.6557 6.42875 14.5967 6.31175L13.2567 3.63275C13.2547 3.63075 13.2537 3.62775 13.2527 3.62575C13.1167 3.36475 12.9077 3.15675 12.6497 3.02375C12.3147 2.84975 11.9317 2.81775 11.5757 2.93175C11.2167 3.04575 10.9237 3.29175 10.7477 3.63275L9.40567 6.30975C9.34567 6.42875 9.23167 6.50975 9.09967 6.52875L6.10467 6.95975C5.79367 7.00075 5.50367 7.14775 5.28767 7.37275C5.03067 7.63875 4.89267 7.98975 4.89967 8.36075C4.90567 8.73175 5.05667 9.07775 5.32467 9.33475L7.49767 11.4217C7.58967 11.5087 7.63167 11.6357 7.60967 11.7617L7.09467 14.7117C7.04767 15.0147 7.09667 15.3167 7.23967 15.5907C7.49167 16.0647 7.97867 16.3347 8.47967 16.3347C8.69967 16.3347 8.92267 16.2827 9.12967 16.1727L10.3427 15.5447L8.14167 20.9907C8.01667 21.2997 8.05267 21.6477 8.23867 21.9247C8.42567 22.2007 8.73567 22.3657 9.06867 22.3657H14.9277C15.2607 22.3657 15.5707 22.2007 15.7567 21.9257C15.9427 21.6497 15.9797 21.3007 15.8557 20.9907L13.6517 15.5397L14.8667 16.1687C15.1337 16.3117 15.4467 16.3657 15.7467 16.3157C16.5097 16.1927 17.0307 15.4727 16.9067 14.7047L16.3927 11.7607C16.3707 11.6357 16.4117 11.5087 16.5067 11.4187L18.6767 9.33375Z" fill="black"/>
</svg>