<svg width="24" height="25" viewBox="0 0 24 25" fill="none" xmlns="http://www.w3.org/2000/svg">
<circle cx="11.9942" cy="9.02202" r="3.06816" stroke="black" stroke-width="1.5" stroke-linecap="round" stroke-linejoin="round"/>
<ellipse cx="11.2618" cy="3.60152" rx="2.6049" ry="0.228078" transform="rotate(-5.7271 11.2618 3.60152)" stroke="black" stroke-width="1.5" stroke-linecap="round" stroke-linejoin="round"/>
<path d="M10.7878 11.9121C7.63505 14.5829 7.37228 19.3617 7.63499 21.4172C11.0426 22.3516 12.9469 22.343 16.3324 21.4172C16.5952 19.3617 16.3324 14.5829 13.1796 11.9121" stroke="black" stroke-width="1.5" stroke-linecap="round" stroke-linejoin="round"/>
<path d="M14.5784 10.7833C15.2974 11.1379 17.8465 11.8023 20.9848 9.71021C20.9848 11.8023 20.0233 17.1471 16.3424 18.1197" stroke="black" stroke-width="1.5" stroke-linecap="round" stroke-linejoin="round"/>
<path d="M9.41931 10.7833C8.7003 11.1379 6.1512 11.8023 3.01287 9.71021C3.01287 11.8023 3.97437 17.1471 7.65529 18.1197" stroke="black" stroke-width="1.5" stroke-linecap="round" stroke-linejoin="round"/>
<path d="M12.0568 15.9924V16.0024" stroke="black" stroke-width="1.5" stroke-linecap="round" stroke-linejoin="round"/>
<path d="M12.0568 18.7319V18.7419" stroke="black" stroke-width="1.5" stroke-linecap="round" stroke-linejoin="round"/>
<path d="M17.7224 13.9158C18.2269 14.0389 19.3965 14.2112 20.0393 13.9158" stroke="black" stroke-width="1.5" stroke-linecap="round" stroke-linejoin="round"/>
<path d="M6.10645 13.9158C5.60197 14.0389 4.43231 14.2112 3.78954 13.9158" stroke="black" stroke-width="1.5" stroke-linecap="round" stroke-linejoin="round"/>
</svg>