<svg width="24" height="25" viewBox="0 0 24 25" fill="none" xmlns="http://www.w3.org/2000/svg">
<path fill-rule="evenodd" clip-rule="evenodd" d="M18.3339 19.2581L16.8739 18.8781C17.0839 16.7981 16.5339 14.6381 15.9839 13.1881C16.3639 12.7081 16.7139 12.2181 17.0039 11.7381C17.7239 13.2881 18.7039 16.3481 18.3339 19.2581ZM13.3939 17.9581C13.3939 17.3481 13.3339 16.7081 13.2239 16.0481C13.6639 15.6881 14.0939 15.2881 14.5139 14.8681C14.8039 16.0881 14.9239 17.2581 14.8839 18.3481L13.3939 17.9581ZM13.0939 14.1581C11.3439 15.8281 9.83393 16.5781 9.08393 16.7081C8.91393 16.7381 8.77393 16.7481 8.68393 16.7181C8.64393 16.7081 8.61393 16.6881 8.59393 16.6681C8.48393 16.5681 8.41393 16.0181 8.87393 14.9481C9.38393 13.7981 10.2939 12.4781 11.4539 11.2381C11.9409 10.7221 12.4069 10.2751 12.8439 9.89709C12.8699 9.98909 12.9039 10.0781 12.9059 10.1761C12.9139 10.4861 12.8009 10.7801 12.5869 11.0041C12.3009 11.3041 12.3129 11.7791 12.6129 12.0651C12.7579 12.2031 12.9449 12.2721 13.1299 12.2721C13.3279 12.2721 13.5259 12.1941 13.6729 12.0391C14.1629 11.5251 14.4239 10.8501 14.4059 10.1391C14.3959 9.71909 14.2789 9.32209 14.0869 8.96309C14.0889 8.96109 14.0919 8.95909 14.0939 8.95809C15.1539 8.23809 15.9939 7.93809 16.4139 7.93809C16.5339 7.93809 16.6239 7.96809 16.6639 8.00809L16.7339 8.21809C16.7439 8.24809 16.7439 8.28809 16.7439 8.33809C16.7439 8.62809 16.6539 9.07809 16.3739 9.72809C15.8739 10.8781 14.9639 12.1981 13.8039 13.4381C13.6239 13.6281 13.4439 13.8081 13.2739 13.9781C13.2639 13.9881 13.2639 13.9981 13.2539 13.9881C13.2039 14.0581 13.1439 14.1081 13.0939 14.1481V14.1581ZM21.8539 19.3681C21.8539 19.3681 18.0839 7.41809 17.9439 7.22809C17.8739 7.10809 17.7839 6.99809 17.6939 6.91809C16.7239 6.00809 14.9849 6.53809 13.1959 7.75709C13.1629 7.66509 13.1339 7.57009 13.1309 7.47009C13.1249 7.21809 13.2169 6.98009 13.3909 6.79709L13.5329 6.64809C14.3829 5.75209 14.3469 4.33309 13.4529 3.48309C13.1539 3.19809 12.6779 3.20909 12.3929 3.51009C12.1079 3.81009 12.1189 4.28409 12.4199 4.57109C12.7149 4.85109 12.7259 5.31909 12.4459 5.61409L12.3049 5.76209C11.8549 6.23609 11.6149 6.85509 11.6319 7.50809C11.6419 7.92609 11.7669 8.32109 11.9719 8.67109C11.9699 8.67409 11.9669 8.67609 11.9639 8.67809C11.4139 9.15809 10.8639 9.66809 10.3539 10.2181C9.08393 11.5781 8.07393 13.0481 7.50393 14.3481C6.64393 16.3181 7.06393 17.2881 7.56393 17.7581C7.70393 17.8881 7.85393 17.9881 8.01393 18.0481C8.02393 18.0581 20.0539 21.2581 20.0539 21.2581C20.1739 21.2981 20.3039 21.3081 20.4339 21.3081C20.8339 21.3081 21.2239 21.1481 21.5139 20.8481C21.8839 20.4481 22.0139 19.8881 21.8539 19.3681Z" fill="black"/>
<path fill-rule="evenodd" clip-rule="evenodd" d="M7.87209 11.558C8.22609 11.344 8.34109 10.883 8.12609 10.529C7.81709 10.017 7.32709 9.65702 6.74709 9.51402C6.16709 9.37002 5.56309 9.46202 5.05309 9.77202L4.87709 9.87802C4.43309 10.15 3.85109 10.005 3.58409 9.56502L3.47309 9.37802C3.26209 9.02402 2.80309 8.90702 2.44409 9.12002C2.08909 9.33102 1.97309 9.79102 2.18509 10.148L2.30009 10.339C2.99809 11.491 4.50409 11.858 5.65309 11.162L5.82909 11.056C5.99909 10.954 6.19709 10.927 6.38909 10.97C6.58009 11.018 6.74109 11.136 6.84309 11.304C6.98309 11.537 7.23109 11.666 7.48509 11.666C7.61709 11.666 7.75109 11.631 7.87209 11.558Z" fill="black"/>
<path fill-rule="evenodd" clip-rule="evenodd" d="M8.43562 7.09123C8.33162 7.49223 8.57362 7.90123 8.97462 8.00523C9.03762 8.02122 9.10062 8.02822 9.16362 8.02822C9.49662 8.02822 9.80062 7.80423 9.88862 7.46623C10.1276 6.53823 9.85162 5.37623 9.20162 4.57523C8.93862 4.25323 8.46562 4.20423 8.14662 4.46623C7.82562 4.72723 7.77562 5.19923 8.03762 5.52123C8.38462 5.94923 8.55662 6.62423 8.43562 7.09123Z" fill="black"/>
<path fill-rule="evenodd" clip-rule="evenodd" d="M3.72273 6.15569C3.86873 6.29669 4.05573 6.36569 4.24373 6.36569C4.43973 6.36569 4.63573 6.28869 4.78373 6.13569C5.07073 5.83869 5.06173 5.36269 4.76373 5.07569L4.35773 4.68369C4.06073 4.39669 3.58573 4.40569 3.29673 4.70369C3.00973 5.00169 3.01873 5.47669 3.31673 5.76369L3.72273 6.15569Z" fill="black"/>
<path fill-rule="evenodd" clip-rule="evenodd" d="M4.23153 13.8598L3.67253 13.9248C3.26053 13.9738 2.96653 14.3458 3.01453 14.7568C3.05953 15.1388 3.38353 15.4208 3.75853 15.4208C3.78853 15.4208 3.81753 15.4188 3.84653 15.4158L4.40553 15.3498C4.81753 15.3008 5.11153 14.9288 5.06353 14.5178C5.01453 14.1058 4.63453 13.8168 4.23153 13.8598Z" fill="black"/>
</svg>