<svg width="24" height="25" viewBox="0 0 24 25" fill="none" xmlns="http://www.w3.org/2000/svg">
<path d="M18.3813 10.8689V15.2429C18.3813 16.2488 17.8651 17.1842 17.014 17.7203L11.8978 20.9436C10.1349 22.0542 7.83267 21.7623 6.40272 20.247C4.43027 18.1567 4.98442 14.7632 7.51934 13.409L9.38791 12.4108C9.4171 12.3952 9.43533 12.3648 9.43533 12.3317V8.38794" stroke="black" stroke-width="1.5" stroke-linecap="round" stroke-linejoin="round"/>
<path d="M13.4277 11.7178V15.8864" stroke="black" stroke-width="1.5" stroke-linecap="round" stroke-linejoin="round"/>
<path d="M15.2317 12.7603L11.6215 14.8446" stroke="black" stroke-width="1.5" stroke-linecap="round" stroke-linejoin="round"/>
<path d="M15.2317 14.8445L11.6215 12.7602" stroke="black" stroke-width="1.5" stroke-linecap="round" stroke-linejoin="round"/>
<path d="M5.51486 15.6407C7.50272 16.0445 9.46026 17.2537 10.4392 19.0075" stroke="black" stroke-width="1.5" stroke-linecap="round" stroke-linejoin="round"/>
<path d="M14.721 8.2776H17.6295C18.6815 8.2776 19.5343 7.65403 19.5343 6.62378L19.5353 5.26857C19.5353 4.23832 18.6824 3.61475 17.6304 3.61475H9.81353C8.76149 3.61475 7.90864 4.23832 7.90864 5.26857L7.90771 6.62377C7.90771 7.65403 8.76056 8.2776 9.8126 8.2776H11.7668" stroke="black" stroke-width="1.5" stroke-linecap="round" stroke-linejoin="round"/>
<path d="M13.7207 3.61475L13.7207 5.32964" stroke="black" stroke-width="1.5" stroke-linecap="round" stroke-linejoin="round"/>
<path d="M10.6465 3.61475L10.6465 5.32964" stroke="black" stroke-width="1.5" stroke-linecap="round" stroke-linejoin="round"/>
<path d="M16.7969 3.61475L16.7969 5.32964" stroke="black" stroke-width="1.5" stroke-linecap="round" stroke-linejoin="round"/>
</svg>