<svg width="24" height="25" viewBox="0 0 24 25" fill="none" xmlns="http://www.w3.org/2000/svg">
<path fill-rule="evenodd" clip-rule="evenodd" d="M8.15313 17.2855C9.10524 18.1746 11.9143 16.7117 14.428 14.0193C16.9407 11.327 18.207 8.4244 17.2549 7.53535C16.3028 6.64629 13.4927 8.10913 10.98 10.8015C8.4663 13.4939 7.20102 16.3965 8.15313 17.2855Z" stroke="black" stroke-width="1.5" stroke-linecap="round" stroke-linejoin="round"/>
<path d="M17.4195 7.74878L21.2143 19.6659C21.3909 20.2229 20.8843 20.7567 20.3179 20.6085L8.50903 17.5011" stroke="black" stroke-width="1.5" stroke-linecap="round" stroke-linejoin="round"/>
<path opacity="0.4" d="M16.2319 11.8013C16.9428 13.1616 18.2061 16.6739 17.572 19.8408" stroke="black" stroke-width="1.5" stroke-linecap="round" stroke-linejoin="round"/>
<path opacity="0.4" d="M13.7659 14.677C14.0944 15.9512 14.3101 17.4437 14.1773 18.9144" stroke="black" stroke-width="1.5" stroke-linecap="round" stroke-linejoin="round"/>
<path opacity="0.4" d="M2.90493 9.8352L3.01742 10.021C3.50169 10.8207 4.54257 11.0764 5.3423 10.5921L5.51706 10.4863C6.22026 10.0605 7.13552 10.2853 7.56134 10.9885" stroke="black" stroke-width="1.5" stroke-linecap="round" stroke-linejoin="round"/>
<path opacity="0.4" d="M13.2063 11.5944C13.9336 10.8303 13.9039 9.62136 13.1398 8.89405L12.9825 8.74432C12.3054 8.0997 12.279 7.02819 12.9236 6.35103L13.0645 6.20306C13.6313 5.60762 13.6081 4.66543 13.0126 4.09862" stroke="black" stroke-width="1.5" stroke-linecap="round" stroke-linejoin="round"/>
<path d="M9.23779 7.34985C9.41949 6.65125 9.1898 5.72903 8.69549 5.12037" stroke="black" stroke-width="1.5" stroke-linecap="round" stroke-linejoin="round"/>
<path opacity="0.4" d="M4.31958 5.68726L3.91341 5.29664" stroke="black" stroke-width="1.5" stroke-linecap="round" stroke-linejoin="round"/>
<path d="M4.39551 14.677L3.8358 14.7424" stroke="black" stroke-width="1.5" stroke-linecap="round" stroke-linejoin="round"/>
</svg>