<svg width="24" height="25" viewBox="0 0 24 25" fill="none" xmlns="http://www.w3.org/2000/svg">
<path fill-rule="evenodd" clip-rule="evenodd" d="M11.9942 6.70386C10.7139 6.70386 9.676 7.74173 9.676 9.02202C9.676 10.3023 10.7139 11.3402 11.9942 11.3402C13.2745 11.3402 14.3123 10.3023 14.3123 9.02202C14.3123 7.74173 13.2745 6.70386 11.9942 6.70386ZM8.176 9.02202C8.176 6.91331 9.88545 5.20386 11.9942 5.20386C14.1029 5.20386 15.8123 6.91331 15.8123 9.02202C15.8123 11.1307 14.1029 12.8402 11.9942 12.8402C9.88545 12.8402 8.176 11.1307 8.176 9.02202Z" fill="black"/>
<path fill-rule="evenodd" clip-rule="evenodd" d="M9.27325 2.888C9.76567 2.79468 10.4338 2.70159 11.1641 2.62835C11.8945 2.5551 12.5678 2.51365 13.0689 2.50732C13.3154 2.50421 13.5418 2.50922 13.7191 2.52776C13.8016 2.53639 13.913 2.55165 14.0211 2.58561C14.0719 2.60156 14.1686 2.63558 14.2685 2.70567C14.3623 2.77145 14.568 2.94865 14.5999 3.26676C14.6318 3.58486 14.4654 3.79937 14.3866 3.88247C14.3025 3.97102 14.2145 4.02355 14.1679 4.04926C14.0687 4.10403 13.9626 4.14111 13.8834 4.16595C13.7133 4.21933 13.4924 4.26919 13.2502 4.31509C12.7578 4.40841 12.0897 4.50149 11.3593 4.57474C10.629 4.64799 9.95569 4.68944 9.45455 4.69576C9.20807 4.69887 8.98169 4.69387 8.8044 4.67533C8.72186 4.6667 8.61046 4.65144 8.50233 4.61747C8.45156 4.60153 8.3549 4.56751 8.25494 4.49742C8.16114 4.43164 7.95549 4.25444 7.92358 3.93633C7.89168 3.61822 8.05805 3.40372 8.13692 3.32062C8.22097 3.23207 8.30894 3.17954 8.35554 3.15382C8.45477 3.09906 8.56092 3.06198 8.6401 3.03713C8.81018 2.98376 9.03106 2.9339 9.27325 2.888Z" fill="black"/>
<path fill-rule="evenodd" clip-rule="evenodd" d="M11.3601 11.4273C11.6278 11.7434 11.5887 12.2167 11.2726 12.4844C9.85818 13.6826 9.06431 15.3791 8.66002 17.0698C8.31955 18.4936 8.26757 19.8649 8.33169 20.8264C9.75901 21.1932 10.8848 21.3657 11.9914 21.3648C13.0973 21.3639 14.218 21.1898 15.6357 20.8261C15.6998 19.8646 15.6478 18.4935 15.3074 17.0698C14.9031 15.3791 14.1092 13.6826 12.6948 12.4844C12.3787 12.2167 12.3396 11.7434 12.6073 11.4273C12.875 11.1113 13.3483 11.0721 13.6644 11.3399C15.4027 12.8125 16.3166 14.8407 16.7663 16.721C17.2158 18.6009 17.2184 20.4011 17.0764 21.5123C17.038 21.8128 16.8225 22.0607 16.5303 22.1407C14.8046 22.6125 13.4106 22.8636 11.9926 22.8648C10.5744 22.8659 9.17453 22.617 7.43665 22.1405C7.14463 22.0605 6.92941 21.8127 6.89102 21.5123C6.74901 20.4011 6.75162 18.6009 7.20115 16.721C7.65077 14.8407 8.56468 12.8125 10.303 11.3399C10.6191 11.0721 11.0924 11.1113 11.3601 11.4273Z" fill="black"/>
<path fill-rule="evenodd" clip-rule="evenodd" d="M21.3387 9.04896C21.5826 9.17947 21.7348 9.43361 21.7348 9.71021C21.7348 10.8393 21.4805 12.7965 20.7385 14.6178C20.0023 16.4249 18.7106 18.2697 16.534 18.8448C16.1335 18.9506 15.7231 18.7118 15.6173 18.3113C15.5115 17.9108 15.7504 17.5004 16.1508 17.3946C17.6552 16.9971 18.6847 15.6833 19.3494 14.0518C19.7639 13.0343 20.0073 11.96 20.1308 11.0632C17.3256 12.419 15.0651 11.8596 14.2466 11.4559C13.8751 11.2727 13.7225 10.823 13.9057 10.4515C14.089 10.08 14.5387 9.92743 14.9101 10.1107C15.4094 10.3569 17.6714 11.0176 20.5688 9.08615C20.799 8.93274 21.0949 8.91844 21.3387 9.04896Z" fill="black"/>
<path fill-rule="evenodd" clip-rule="evenodd" d="M2.65898 9.04896C2.41512 9.17947 2.26288 9.43361 2.26288 9.71021C2.26288 10.8393 2.51717 12.7965 3.25918 14.6178C3.99546 16.4249 5.28714 18.2697 7.46372 18.8448C7.86419 18.9506 8.27461 18.7118 8.38042 18.3113C8.48623 17.9108 8.24736 17.5004 7.84689 17.3946C6.34255 16.9971 5.31302 15.6833 4.64831 14.0518C4.23378 13.0343 3.9904 11.96 3.86688 11.0632C6.67212 12.419 8.93264 11.8596 9.75108 11.4559C10.1226 11.2727 10.2752 10.823 10.092 10.4515C9.90874 10.08 9.45906 9.92743 9.08757 10.1107C8.58834 10.3569 6.32629 11.0176 3.42889 9.08615C3.19874 8.93274 2.90284 8.91844 2.65898 9.04896Z" fill="black"/>
<path fill-rule="evenodd" clip-rule="evenodd" d="M12.0567 15.2424C12.4709 15.2424 12.8067 15.5782 12.8067 15.9924V16.0024C12.8067 16.4166 12.4709 16.7524 12.0567 16.7524C11.6425 16.7524 11.3067 16.4166 11.3067 16.0024V15.9924C11.3067 15.5782 11.6425 15.2424 12.0567 15.2424Z" fill="black"/>
<path fill-rule="evenodd" clip-rule="evenodd" d="M12.0567 17.9819C12.4709 17.9819 12.8067 18.3177 12.8067 18.7319V18.7419C12.8067 19.1561 12.4709 19.4919 12.0567 19.4919C11.6425 19.4919 11.3067 19.1561 11.3067 18.7419V18.7319C11.3067 18.3177 11.6425 17.9819 12.0567 17.9819Z" fill="black"/>
<path fill-rule="evenodd" clip-rule="evenodd" d="M20.7208 13.6025C20.8938 13.9788 20.7289 14.4242 20.3526 14.5972C19.86 14.8236 19.2549 14.8446 18.792 14.8218C18.303 14.7976 17.8371 14.7157 17.5446 14.6443C17.1422 14.5461 16.8956 14.1403 16.9938 13.7379C17.092 13.3355 17.4978 13.0889 17.9002 13.1871C18.1121 13.2388 18.4833 13.3047 18.866 13.3236C19.2747 13.3438 19.5758 13.3033 19.7261 13.2343C20.1024 13.0613 20.5478 13.2261 20.7208 13.6025Z" fill="black"/>
<path fill-rule="evenodd" clip-rule="evenodd" d="M3.10809 13.6025C2.93509 13.9788 3.09994 14.4242 3.47629 14.5972C3.96879 14.8236 4.57393 14.8446 5.03688 14.8218C5.52585 14.7976 5.99172 14.7157 6.28426 14.6443C6.68666 14.5461 6.93327 14.1403 6.83506 13.7379C6.73686 13.3355 6.33104 13.0889 5.92864 13.1871C5.7167 13.2388 5.3455 13.3047 4.96282 13.3236C4.55414 13.3438 4.25306 13.3033 4.10279 13.2343C3.72643 13.0613 3.28109 13.2261 3.10809 13.6025Z" fill="black"/>
</svg>