<svg width="24" height="25" viewBox="0 0 24 25" fill="none" xmlns="http://www.w3.org/2000/svg">
<path d="M18.3814 8.38794V15.2429C18.3814 16.2488 17.8651 17.1842 17.0141 17.7203L11.8979 20.9436C10.135 22.0542 7.83273 21.7623 6.40278 20.247C4.43033 18.1567 4.98448 14.7632 7.5194 13.409L9.38797 12.4108C9.41716 12.3952 9.43539 12.3648 9.43539 12.3317V8.38794" stroke="black" stroke-width="1.5" stroke-linecap="round" stroke-linejoin="round"/>
<path d="M13.4277 11.7178V15.8864" stroke="black" stroke-width="1.5" stroke-linecap="round" stroke-linejoin="round"/>
<path d="M15.2316 12.7603L11.6215 14.8446" stroke="black" stroke-width="1.5" stroke-linecap="round" stroke-linejoin="round"/>
<path d="M15.2316 14.8445L11.6215 12.7602" stroke="black" stroke-width="1.5" stroke-linecap="round" stroke-linejoin="round"/>
<path d="M11.083 21.3369C11.0095 18.3403 8.29177 16.2046 5.51493 15.6406" stroke="black" stroke-width="1.5" stroke-linecap="round" stroke-linejoin="round"/>
<path d="M17.6303 3.61475H9.81341C8.76137 3.61475 7.90852 4.23832 7.90852 5.26857L7.90759 6.62377C7.90759 7.65403 8.76044 8.2776 9.81248 8.2776H17.6293C18.6814 8.2776 19.5342 7.65403 19.5342 6.62378L19.5352 5.26857C19.5352 4.23832 18.6823 3.61475 17.6303 3.61475Z" stroke="black" stroke-width="1.5" stroke-linecap="round" stroke-linejoin="round"/>
<path d="M13.7207 3.61475L13.7207 5.32964" stroke="black" stroke-width="1.5" stroke-linecap="round" stroke-linejoin="round"/>
<path d="M10.6465 3.61475L10.6465 5.32964" stroke="black" stroke-width="1.5" stroke-linecap="round" stroke-linejoin="round"/>
<path d="M16.7969 3.61475L16.7969 5.32964" stroke="black" stroke-width="1.5" stroke-linecap="round" stroke-linejoin="round"/>
</svg>