<svg width="24" height="25" viewBox="0 0 24 25" fill="none" xmlns="http://www.w3.org/2000/svg">
<path d="M20.5529 5.52323C20.5529 6.57699 17.4858 7.43123 13.7023 7.43123C9.9189 7.43123 6.85181 6.57699 6.85181 5.52323C6.85181 4.46947 9.9189 3.61523 13.7023 3.61523C17.4858 3.61523 20.5529 4.46947 20.5529 5.52323Z" stroke="black" stroke-width="1.5"/>
<path opacity="0.4" d="M13.7029 11.3496V16.6283M15.9892 12.6703L11.4177 15.3097M15.9892 15.3093L11.4177 12.6699" stroke="black" stroke-width="1.5" stroke-linecap="round" stroke-linejoin="round"/>
<path d="M6.85181 5.52246V17.7334C6.85181 20.4888 9.9189 21.6153 13.7023 21.6153C17.4858 21.6153 20.5529 20.3974 20.5529 17.7334L20.5529 5.52246" stroke="black" stroke-width="1.5"/>
<path opacity="0.4" d="M6.74296 16.3367C5.50446 16.3367 4.88521 16.3367 4.42502 16.0683C4.13135 15.897 3.887 15.6527 3.7157 15.359C3.44727 14.8988 3.44727 14.2795 3.44727 13.041V11.556C3.44727 10.3175 3.44727 9.6982 3.7157 9.23801C3.887 8.94434 4.13135 8.69999 4.42502 8.52869C4.88521 8.26025 5.50446 8.26025 6.74296 8.26025" stroke="black" stroke-width="1.5" stroke-linecap="round" stroke-linejoin="round"/>
</svg>