<svg width="24" height="25" viewBox="0 0 24 25" fill="none" xmlns="http://www.w3.org/2000/svg">
<path d="M7.93457 21.0815L19.0743 9.94158" stroke="black" stroke-width="1.5" stroke-linecap="round" stroke-linejoin="round"/>
<path d="M20.6445 3.45038C20.9477 3.42781 21.2001 3.68014 21.1775 3.98334L20.7283 10.019C20.6967 10.4434 20.2423 10.5789 19.8806 10.3338C17.679 8.84203 15.8346 6.83869 14.2941 4.74734C14.0287 4.35065 14.1845 3.93114 14.6089 3.89956L20.6445 3.45038Z" stroke="black" stroke-width="1.5" stroke-linecap="round" stroke-linejoin="round"/>
<path d="M14.7182 5.6058L8.24784 12.0763C7.8484 12.4757 7.84837 13.1233 8.24779 13.5227L11.8006 17.0756" stroke="black" stroke-width="1.5" stroke-linecap="round" stroke-linejoin="round"/>
<path d="M11.8779 8.46533H15.1098" stroke="black" stroke-width="1.5" stroke-linecap="round" stroke-linejoin="round"/>
<path d="M8.41113 11.9233H13.5946" stroke="black" stroke-width="1.5" stroke-linecap="round" stroke-linejoin="round"/>
<path d="M9.05585 14.394C9.26888 14.9027 9.3054 16.2902 6.64988 16.0756C3.99437 15.8611 3.22201 16.8592 2.77832 17.5489" stroke="black" stroke-width="1.5" stroke-linecap="round" stroke-linejoin="round"/>
<path d="M4.6377 12.5088V12.5188" stroke="black" stroke-width="1.5" stroke-linecap="round" stroke-linejoin="round"/>
</svg>