<svg width="24" height="25" viewBox="0 0 24 25" fill="none" xmlns="http://www.w3.org/2000/svg">
<path fill-rule="evenodd" clip-rule="evenodd" d="M19.6608 5.19326C19.6608 3.92405 18.6263 3.16762 17.4734 3.05574C17.3085 3.03974 17.1738 3.17557 17.1738 3.34126V5.25526C17.1738 5.66926 16.8378 6.00526 16.4238 6.00526C16.0098 6.00526 15.6738 5.66926 15.6738 5.25526V3.34126C15.6738 3.17557 15.5395 3.04126 15.3738 3.04126H14.3978C14.2321 3.04126 14.0978 3.17557 14.0978 3.34126V5.25526C14.0978 5.66926 13.7618 6.00526 13.3478 6.00526C12.9328 6.00526 12.5978 5.66926 12.5978 5.25526V3.34126C12.5978 3.17557 12.4635 3.04126 12.2978 3.04126H11.3228C11.1571 3.04126 11.0228 3.17557 11.0228 3.34126V5.25526C11.0228 5.66926 10.6868 6.00526 10.2728 6.00526C9.85878 6.00526 9.52278 5.66926 9.52278 5.25526V3.34126C9.52278 3.17557 9.3881 3.03974 9.22318 3.0557C8.0696 3.16735 7.03378 3.9227 7.03378 5.19326L7.03478 6.54926C7.03478 7.79726 8.04578 8.70326 9.43978 8.70326H17.2568C18.6498 8.70326 19.6618 7.79726 19.6618 6.54926L19.6608 5.19326Z" fill="black"/>
<path fill-rule="evenodd" clip-rule="evenodd" d="M18.0919 9.8337C18.2971 9.78161 18.5112 9.92741 18.5112 10.1391V15.3181C18.5112 16.4981 17.9112 17.5881 16.9112 18.2181L11.9612 21.3281L11.7912 21.4381C11.3812 21.6981 10.9512 21.8881 10.5012 22.0081C10.0812 22.1281 9.6412 22.1881 9.2012 22.1881C7.9012 22.1881 6.6112 21.6581 5.6612 20.6681C4.6212 19.5481 4.1612 18.0481 4.4012 16.5481C4.4412 16.3381 4.4812 16.1181 4.5512 15.9181C4.7012 15.4181 4.9212 14.9581 5.2212 14.5381C5.6512 13.9181 6.2212 13.4081 6.9112 13.0381L8.5612 12.1581V10.2058C8.5612 10.0065 8.75217 9.8636 8.94875 9.8965C9.10801 9.92316 9.27161 9.93812 9.4412 9.93812H17.2512C17.5481 9.93812 17.8284 9.90062 18.0919 9.8337Z" fill="black"/>
<path fill-rule="evenodd" clip-rule="evenodd" d="M14.9987 14.4027L14.5527 14.1457L14.9987 13.8877C15.3577 13.6807 15.4797 13.2217 15.2727 12.8637C15.0657 12.5057 14.6067 12.3817 14.2487 12.5897L13.8037 12.8457V12.3317C13.8037 11.9177 13.4677 11.5817 13.0537 11.5817C12.6397 11.5817 12.3037 11.9177 12.3037 12.3317V12.8467L11.8567 12.5897C11.4987 12.3817 11.0397 12.5057 10.8327 12.8637C10.6257 13.2217 10.7487 13.6807 11.1067 13.8877L11.5527 14.1457L11.1067 14.4027C10.7487 14.6097 10.6257 15.0687 10.8327 15.4267C10.9717 15.6677 11.2237 15.8017 11.4827 15.8017C11.6097 15.8017 11.7387 15.7697 11.8567 15.7017L12.3037 15.4437V15.9587C12.3037 16.3727 12.6397 16.7087 13.0537 16.7087C13.4677 16.7087 13.8037 16.3727 13.8037 15.9587V15.4447L14.2487 15.7017C14.3667 15.7697 14.4957 15.8017 14.6237 15.8017C14.8817 15.8017 15.1347 15.6677 15.2727 15.4267C15.4797 15.0687 15.3577 14.6097 14.9987 14.4027Z" fill="white"/>
<path fill-rule="evenodd" clip-rule="evenodd" d="M11.9612 21.3281L11.7912 21.4381C11.3812 21.6981 10.9512 21.8881 10.5012 22.0081L10.5012 21.9781C10.4212 18.8181 7.4712 16.5481 4.5512 15.9181C4.7012 15.4181 4.9212 14.9581 5.2212 14.5381C8.3312 15.3181 11.5412 17.6981 11.9612 21.3281Z" fill="white"/>
</svg>