<svg width="24" height="24" viewBox="0 0 24 24" fill="none" xmlns="http://www.w3.org/2000/svg">
<path fill-rule="evenodd" clip-rule="evenodd" d="M12 3.75C7.44329 3.75 3.75 7.44329 3.75 12C3.75 16.5567 7.44329 20.25 12 20.25C16.5567 20.25 20.25 16.5567 20.25 12C20.25 7.44329 16.5567 3.75 12 3.75ZM2.25 12C2.25 6.61487 6.61487 2.25 12 2.25C17.3851 2.25 21.75 6.61487 21.75 12C21.75 17.3851 17.3851 21.75 12 21.75C6.61487 21.75 2.25 17.3851 2.25 12Z" fill="black"/>
<path fill-rule="evenodd" clip-rule="evenodd" d="M12.0004 9.14844C10.426 9.14844 9.15039 10.4247 9.15039 11.9984C9.15039 13.573 10.4258 14.8484 12.0004 14.8484C13.5749 14.8484 14.8504 13.573 14.8504 11.9984C14.8504 10.4247 13.5748 9.14844 12.0004 9.14844ZM7.65039 11.9984C7.65039 9.59657 9.59729 7.64844 12.0004 7.64844C14.4035 7.64844 16.3504 9.59657 16.3504 11.9984C16.3504 14.4014 14.4034 16.3484 12.0004 16.3484C9.59742 16.3484 7.65039 14.4014 7.65039 11.9984Z" fill="black"/>
<path fill-rule="evenodd" clip-rule="evenodd" d="M15.4906 13.1511C15.8494 13.3581 15.9724 13.8168 15.7654 14.1756L11.6429 21.3211C11.4359 21.6799 10.9773 21.8029 10.6185 21.5959C10.2597 21.3889 10.1367 20.9303 10.3437 20.5715L14.4661 13.426C14.6731 13.0672 15.1318 12.9442 15.4906 13.1511Z" fill="black"/>
<path fill-rule="evenodd" clip-rule="evenodd" d="M4.38059 6.00696C4.73918 5.79964 5.19795 5.92227 5.40528 6.28086L9.53652 13.4264C9.74384 13.785 9.62122 14.2437 9.26262 14.4511C8.90403 14.6584 8.44526 14.5358 8.23794 14.1772L4.10669 7.03165C3.89937 6.67305 4.022 6.21429 4.38059 6.00696Z" fill="black"/>
<path fill-rule="evenodd" clip-rule="evenodd" d="M11.25 8.39844C11.25 7.98422 11.5858 7.64844 12 7.64844H20.2529C20.6672 7.64844 21.0029 7.98422 21.0029 8.39844C21.0029 8.81265 20.6672 9.14844 20.2529 9.14844H12C11.5858 9.14844 11.25 8.81265 11.25 8.39844Z" fill="black"/>
</svg>