<svg width="24" height="25" viewBox="0 0 24 25" fill="none" xmlns="http://www.w3.org/2000/svg">
<path fill-rule="evenodd" clip-rule="evenodd" d="M7.33091 10.6058C7.41807 10.7567 7.64818 10.733 7.71605 10.5725C8.41847 8.91131 10.0467 7.73679 11.9601 7.73679H19.6783C19.91 7.73679 20.0527 7.48613 19.9251 7.29281C18.2247 4.71672 15.3104 3.00879 12.0001 3.00879C9.21789 3.00879 6.7179 4.21621 4.97931 6.12881C4.89317 6.22358 4.8801 6.36324 4.94417 6.47413L7.33091 10.6058Z" fill="black"/>
<path fill-rule="evenodd" clip-rule="evenodd" d="M8.82928 12.3686C8.82928 14.0956 10.2333 15.4996 11.9603 15.4996C13.6863 15.4996 15.0913 14.0956 15.0913 12.3686C15.0913 10.6416 13.6863 9.23657 11.9603 9.23657C10.2333 9.23657 8.82928 10.6416 8.82928 12.3686Z" fill="black"/>
<path fill-rule="evenodd" clip-rule="evenodd" d="M10.2249 21.6422L12.7424 17.2758C12.8294 17.1249 12.6943 16.9387 12.5217 16.9614C12.3378 16.9857 12.1506 16.9992 11.9599 16.9992C10.2699 16.9992 8.80388 16.0802 7.99488 14.7242C7.98388 14.7082 7.96488 14.7012 7.95488 14.6842L4.1258 8.05669C4.01163 7.85908 3.72846 7.85701 3.62076 8.05822C2.90958 9.38695 2.49988 10.8992 2.49988 12.5092C2.49988 17.0513 5.70437 20.8556 9.97086 21.7873C10.0787 21.8109 10.1698 21.7378 10.2249 21.6422Z" fill="black"/>
<path fill-rule="evenodd" clip-rule="evenodd" d="M15.8066 9.23663C15.6321 9.23674 15.5386 9.44809 15.6444 9.58684C16.2347 10.3615 16.5912 11.3218 16.5912 12.3688C16.5912 13.1748 16.3662 13.9218 16.0022 14.5828C15.9892 14.6168 15.9872 14.6518 15.9682 14.6838L11.8762 21.7816C11.8203 21.8786 11.8883 22.0088 12.0002 22.0088C17.2382 22.0088 21.5002 17.7478 21.5002 12.5088C21.5002 11.4285 21.3091 10.3929 20.9738 9.4249C20.9326 9.30604 20.8217 9.22798 20.6959 9.22827C19.9622 9.22998 17.4441 9.23563 15.8066 9.23663Z" fill="black"/>
</svg>