<svg width="24" height="24" viewBox="0 0 24 24" fill="none" xmlns="http://www.w3.org/2000/svg">
<path fill-rule="evenodd" clip-rule="evenodd" d="M3.7402 3.89737C4.72468 2.84117 6.12669 2.25 7.78216 2.25H16.2169C17.8762 2.25 19.2788 2.84084 20.2629 3.89765C21.2413 4.94841 21.75 6.39889 21.75 8.02638V15.9736C21.75 17.6011 21.2413 19.0516 20.2627 20.1024C19.2785 21.1592 17.8756 21.75 16.2159 21.75H7.78216C6.1228 21.75 4.72038 21.1591 3.73657 20.1023C2.75842 19.0515 2.25 17.601 2.25 15.9736V8.02638C2.25 6.39806 2.76117 4.94771 3.7402 3.89737ZM4.83745 4.92012C4.16024 5.64666 3.75 6.70951 3.75 8.02638V15.9736C3.75 17.2914 4.15861 18.3541 4.83451 19.0802C5.50475 19.8003 6.49341 20.25 7.78216 20.25H16.2159C17.5052 20.25 18.4944 19.8002 19.165 19.0801C19.8412 18.354 20.25 17.2913 20.25 15.9736V8.02638C20.25 6.70868 19.8412 5.64597 19.1651 4.91984C18.4946 4.19975 17.5056 3.75 16.2169 3.75H7.78216C6.49828 3.75 5.50921 4.19943 4.83745 4.92012Z" fill="black"/>
<path fill-rule="evenodd" clip-rule="evenodd" d="M12 7.25C9.37643 7.25 7.25 9.37643 7.25 12C7.25 14.6236 9.37643 16.75 12 16.75C14.6236 16.75 16.75 14.6236 16.75 12C16.75 9.37643 14.6236 7.25 12 7.25ZM5.75 12C5.75 8.548 8.548 5.75 12 5.75C15.452 5.75 18.25 8.548 18.25 12C18.25 15.452 15.452 18.25 12 18.25C8.548 18.25 5.75 15.452 5.75 12Z" fill="black"/>
<path fill-rule="evenodd" clip-rule="evenodd" d="M12.0008 10.5469C11.1998 10.5469 10.5508 11.1962 10.5508 11.9969C10.5508 12.798 11.1996 13.4469 12.0008 13.4469C12.8019 13.4469 13.4508 12.798 13.4508 11.9969C13.4508 11.1962 12.8018 10.5469 12.0008 10.5469ZM9.05078 11.9969C9.05078 10.368 10.3711 9.04688 12.0008 9.04688C13.6305 9.04688 14.9508 10.368 14.9508 11.9969C14.9508 13.6264 13.6303 14.9469 12.0008 14.9469C10.3712 14.9469 9.05078 13.6264 9.05078 11.9969Z" fill="black"/>
<path fill-rule="evenodd" clip-rule="evenodd" d="M14.279 12.448C14.6378 12.655 14.7608 13.1137 14.5538 13.4725L12.0345 17.8392C11.8275 18.1979 11.3689 18.321 11.0101 18.114C10.6513 17.907 10.5283 17.4483 10.7353 17.0896L13.2546 12.7229C13.4615 12.3641 13.9202 12.241 14.279 12.448Z" fill="black"/>
<path fill-rule="evenodd" clip-rule="evenodd" d="M7.197 8.08509C7.55559 7.87776 8.01436 8.00039 8.22168 8.35898L10.7463 12.7257C10.9537 13.0843 10.831 13.543 10.4724 13.7504C10.1138 13.9577 9.65507 13.8351 9.44775 13.4765L6.9231 9.10977C6.71577 8.75118 6.8384 8.29241 7.197 8.08509Z" fill="black"/>
<path fill-rule="evenodd" clip-rule="evenodd" d="M11.25 9.79688C11.25 9.38266 11.5858 9.04688 12 9.04688H17.0435C17.4577 9.04688 17.7935 9.38266 17.7935 9.79688C17.7935 10.2111 17.4577 10.5469 17.0435 10.5469H12C11.5858 10.5469 11.25 10.2111 11.25 9.79688Z" fill="black"/>
</svg>