<svg width="25" height="24" viewBox="0 0 25 24" fill="none" xmlns="http://www.w3.org/2000/svg">
<path fill-rule="evenodd" clip-rule="evenodd" d="M12.3538 7.67692C12.2678 7.61774 12.1542 7.61814 12.0687 7.67795L9.07041 9.77506C9.00353 9.82184 8.9637 9.89831 8.9637 9.97992V12.2162C8.9637 12.8659 8.60375 13.4622 8.02883 13.7648L3.87879 15.9493C3.51225 16.1422 3.05871 16.0015 2.86578 15.635C2.67284 15.2684 2.81357 14.8149 3.18011 14.6219L7.33014 12.4374C7.41228 12.3942 7.4637 12.309 7.4637 12.2162V9.97992C7.4637 9.40864 7.74254 8.87332 8.21068 8.54589L11.2089 6.44878C11.8075 6.03013 12.6031 6.02727 13.2046 6.4416L16.256 8.54329C16.7301 8.86987 17.0133 9.40877 17.0133 9.9845V12.2148C17.0133 12.3078 17.0649 12.3931 17.1473 12.4363L21.3191 14.6212C21.6861 14.8134 21.8277 15.2666 21.6355 15.6336C21.4434 16.0005 20.9901 16.1422 20.6232 15.95L16.4514 13.7651C15.8747 13.463 15.5133 12.8658 15.5133 12.2148V9.9845C15.5133 9.90226 15.4728 9.82527 15.4051 9.77862L12.3538 7.67692Z" fill="black"/>
<path fill-rule="evenodd" clip-rule="evenodd" d="M12.207 10.7383C12.6212 10.7383 12.957 11.0741 12.957 11.4883V13.3167C12.957 13.7309 12.6212 14.0667 12.207 14.0667C11.7928 14.0667 11.457 13.7309 11.457 13.3167V11.4883C11.457 11.0741 11.7928 10.7383 12.207 10.7383Z" fill="black"/>
<path fill-rule="evenodd" clip-rule="evenodd" d="M19.0859 13.5488C19.5001 13.5488 19.8359 13.8846 19.8359 14.2988V20.4998C19.8359 21.4663 19.0524 22.2498 18.0859 22.2498H15.241C14.2745 22.2498 13.491 21.4663 13.491 20.4998V18.673C13.491 18.0008 12.9461 17.4558 12.2738 17.4558C11.6016 17.4558 11.0566 18.0007 11.0566 18.673V20.4998C11.0566 21.4663 10.2731 22.2498 9.30662 22.2498H6.2832C5.31671 22.2498 4.5332 21.4663 4.5332 20.4998V14.3632C4.5332 13.9489 4.86899 13.6132 5.2832 13.6132C5.69742 13.6132 6.0332 13.9489 6.0332 14.3632V20.4998C6.0332 20.6378 6.14513 20.7498 6.2832 20.7498H9.30662C9.44469 20.7498 9.55662 20.6378 9.55662 20.4998V18.673C9.55662 17.1723 10.7731 15.9558 12.2738 15.9558C13.7745 15.9558 14.991 17.1723 14.991 18.673V20.4998C14.991 20.6378 15.1029 20.7498 15.241 20.7498H18.0859C18.224 20.7498 18.3359 20.6378 18.3359 20.4998V14.2988C18.3359 13.8846 18.6717 13.5488 19.0859 13.5488Z" fill="black"/>
<path fill-rule="evenodd" clip-rule="evenodd" d="M9.66211 3.88086C9.66211 3.46665 9.9979 3.13086 10.4121 3.13086H14.0905C14.5048 3.13086 14.8405 3.46665 14.8405 3.88086C14.8405 4.29507 14.5048 4.63086 14.0905 4.63086H10.4121C9.9979 4.63086 9.66211 4.29507 9.66211 3.88086Z" fill="black"/>
<path fill-rule="evenodd" clip-rule="evenodd" d="M12.207 1.75C12.6212 1.75 12.957 2.08579 12.957 2.5V6.66641C12.957 7.08062 12.6212 7.41641 12.207 7.41641C11.7928 7.41641 11.457 7.08062 11.457 6.66641V2.5C11.457 2.08579 11.7928 1.75 12.207 1.75Z" fill="black"/>
</svg>