<svg width="25" height="25" viewBox="0 0 25 25" fill="none" xmlns="http://www.w3.org/2000/svg">
<path opacity="0.4" fill-rule="evenodd" clip-rule="evenodd" d="M20.9967 20.5211V14.4011C20.9967 13.5289 20.4223 12.7886 19.636 12.5496C19.4644 12.4974 19.3067 12.6384 19.3067 12.8178V20.5211H18.1167V11.4511C18.1167 10.7811 17.7767 10.1711 17.1867 9.83105L13.3967 7.62105C13.3792 7.61233 13.3601 7.60446 13.34 7.59694C13.2509 7.56357 13.2167 7.47619 13.2167 7.38105V6.66105C13.2167 6.49537 13.351 6.36105 13.5167 6.36105H15.4167C15.8267 6.36105 16.1667 6.03105 16.1667 5.61105V3.33105C16.1667 2.92105 15.8267 2.58105 15.4167 2.58105H12.4667C12.0567 2.58105 11.7167 2.92105 11.7167 3.33105V7.38105C11.7167 7.47619 11.6814 7.56133 11.5945 7.59999C11.574 7.60911 11.5544 7.61921 11.5367 7.63105L7.73667 9.83105C7.15667 10.1711 6.81667 10.7811 6.81667 11.4511V20.5211H5.62667V12.793C5.62667 12.619 5.47789 12.4794 5.30891 12.521C4.47097 12.7273 3.83667 13.4928 3.83667 14.4011V20.5211H20.9967Z" fill="black"/>
<path d="M12.4665 11.4609C13.0265 11.4609 13.4765 11.9209 13.4765 12.4709C13.4765 13.0309 13.0265 13.4809 12.4665 13.4809C11.9065 13.4809 11.4565 13.0309 11.4565 12.4709C11.4565 11.9209 11.9065 11.4609 12.4665 11.4609Z" fill="black"/>
<path d="M10.4465 20.5205V17.3509C10.4465 16.9309 10.7965 16.5809 11.2165 16.5809H13.7165C14.1365 16.5809 14.4865 16.9309 14.4865 17.3509V20.5205H21.4748C21.8948 20.5205 22.2248 20.8605 22.2248 21.2705C22.2248 21.6905 21.8948 22.0205 21.4748 22.0205H3.46655C3.05655 22.0205 2.71655 21.6905 2.71655 21.2705C2.71655 20.8605 3.05655 20.5205 3.46655 20.5205H10.4465Z" fill="black"/>
</svg>