<svg width="24" height="24" viewBox="0 0 24 24" fill="none" xmlns="http://www.w3.org/2000/svg">
<path fill-rule="evenodd" clip-rule="evenodd" d="M13.3359 5.7956C13.3948 6.2056 13.1102 6.58575 12.7002 6.64469C10.7605 6.92352 9.26953 8.59353 9.26953 10.6105C9.26953 12.8234 11.0634 14.6173 13.2763 14.6173C15.2148 14.6173 16.8332 13.24 17.2035 11.4102C17.2856 11.0043 17.6813 10.7417 18.0873 10.8239C18.4933 10.906 18.7558 11.3018 18.6737 11.7077C18.1647 14.2233 15.9425 16.1173 13.2763 16.1173C10.235 16.1173 7.76953 13.6518 7.76953 10.6105C7.76953 7.83692 9.81928 5.5434 12.4868 5.15995C12.8968 5.10101 13.277 5.3856 13.3359 5.7956Z" fill="black"/>
<path fill-rule="evenodd" clip-rule="evenodd" d="M13.6307 3.1167C13.7388 2.71684 14.1506 2.48033 14.5504 2.58844C17.7871 3.46352 20.3546 5.96132 21.3279 9.15593C21.4487 9.55217 21.2253 9.97124 20.8291 10.092C20.4329 10.2127 20.0138 9.98933 19.8931 9.5931C19.0699 6.89121 16.8956 4.77633 14.1589 4.03645C13.7591 3.92834 13.5226 3.51656 13.6307 3.1167Z" fill="black"/>
<path fill-rule="evenodd" clip-rule="evenodd" d="M11.9823 3.75002C7.43408 3.75958 3.75 7.44956 3.75 12C3.75 16.5563 7.44365 20.25 12 20.25C16.5563 20.25 20.25 16.5563 20.25 12C20.25 11.6625 20.2254 11.0207 20.1017 10.3702C19.981 9.73511 19.7886 9.22007 19.5414 8.9264C19.5342 8.92715 19.5266 8.92827 19.5187 8.92985C19.4981 8.93398 19.485 8.93935 19.4812 8.9412C19.392 8.98444 19.2827 9.08094 19.1697 9.29534C19.0556 9.51199 18.963 9.80205 18.8891 10.1533C18.816 10.5007 18.7677 10.8741 18.7262 11.2466C18.7159 11.3392 18.7058 11.4337 18.6958 11.5284C18.6671 11.7973 18.6385 12.0667 18.6041 12.2917C18.2347 14.7146 17.4998 16.6617 16.1698 17.9155C14.8067 19.2004 12.9521 19.6366 10.6378 19.3215C8.07085 19.0051 6.17734 17.0989 5.29704 14.8866C4.41734 12.6758 4.47969 9.98645 6.03563 8.002C6.0429 7.99273 6.05039 7.98363 6.05809 7.97471C7.45736 6.35356 8.76831 5.78826 10.1797 5.50381C10.6408 5.4109 11.1308 5.34519 11.6155 5.2802C11.8243 5.25221 12.032 5.22435 12.236 5.19451C12.9362 5.09212 13.6701 4.95784 14.4812 4.70273C14.7882 4.60615 14.8275 4.43812 14.8293 4.39785C14.8306 4.37085 14.8242 4.34052 14.7974 4.3053C14.7701 4.26934 14.7013 4.20353 14.5451 4.15361C13.9484 3.96295 13.6031 3.88152 13.2752 3.83658C12.9854 3.79686 12.7011 3.78363 12.2465 3.76247C12.1643 3.75865 12.0766 3.75456 11.9823 3.75002ZM2.25 12C2.25 6.61522 6.61522 2.25 12 2.25C12.0121 2.25 12.0242 2.25029 12.0362 2.25088C12.1279 2.25531 12.2157 2.25935 12.3005 2.26326C12.7536 2.28411 13.1167 2.30083 13.4788 2.35047C13.9263 2.4118 14.3629 2.52071 15.0016 2.72477C15.8354 2.99117 16.3649 3.67042 16.3277 4.46779C16.2917 5.23973 15.7339 5.88115 14.9313 6.13361C14.0138 6.4222 13.1929 6.57053 12.4531 6.67872C12.2062 6.71483 11.9757 6.74568 11.7562 6.77507C11.2981 6.83637 10.8877 6.89128 10.4761 6.97425C9.35425 7.20033 8.35652 7.61257 7.20541 8.94116C6.06852 10.4032 5.9579 12.4902 6.69075 14.332C7.42467 16.1764 8.93474 17.602 10.8253 17.8333L10.8358 17.8345L10.8358 17.8346C12.8568 18.1107 14.205 17.7062 15.1409 16.824C16.1108 15.9097 16.7713 14.3611 17.1213 12.0656C17.1501 11.8767 17.1733 11.659 17.2004 11.4041C17.2112 11.3024 17.2227 11.1948 17.2354 11.0807C17.2781 10.6975 17.3327 10.2652 17.4213 9.84425C17.5091 9.42709 17.6372 8.98605 17.8426 8.59614C18.0493 8.20399 18.3585 7.81845 18.8269 7.59141C19.0747 7.47129 19.3657 7.41322 19.6462 7.42727C19.9215 7.44105 20.278 7.53115 20.5547 7.81278C21.1565 8.42515 21.4341 9.34724 21.5753 10.09C21.7227 10.865 21.75 11.608 21.75 12C21.75 17.3848 17.3848 21.75 12 21.75C6.61522 21.75 2.25 17.3848 2.25 12Z" fill="black"/>
</svg>