<svg width="25" height="24" viewBox="0 0 25 24" fill="none" xmlns="http://www.w3.org/2000/svg">
<path fill-rule="evenodd" clip-rule="evenodd" d="M12.25 3.75C7.69365 3.75 4 7.44365 4 12C4 16.5563 7.69365 20.25 12.25 20.25C16.8063 20.25 20.5 16.5563 20.5 12C20.5 7.44365 16.8063 3.75 12.25 3.75ZM2.5 12C2.5 6.61522 6.86522 2.25 12.25 2.25C17.6348 2.25 22 6.61522 22 12C22 17.3848 17.6348 21.75 12.25 21.75C6.86522 21.75 2.5 17.3848 2.5 12Z" fill="black"/>
<path fill-rule="evenodd" clip-rule="evenodd" d="M12.2507 14.3112L10.8093 15.7527L12.2507 17.1941L13.6921 15.7527L12.2507 14.3112ZM11.2779 13.1627C11.8152 12.6255 12.6862 12.6255 13.2235 13.1627L14.8407 14.7799L14.3103 15.3102L14.8407 14.7799C15.3779 15.3171 15.3779 16.1882 14.8407 16.7254L13.2235 18.3426C12.6862 18.8799 11.8152 18.8799 11.2779 18.3426L9.66075 16.7254C9.1235 16.1882 9.1235 15.3171 9.66075 14.7799L11.2779 13.1627Z" fill="black"/>
<path fill-rule="evenodd" clip-rule="evenodd" d="M12.2488 6.80148L10.8073 8.24289L12.2488 9.68431L13.6902 8.24289L12.2488 6.80148ZM11.276 5.65294C11.8132 5.11569 12.6843 5.11569 13.2215 5.65294L14.8387 7.27011C15.376 7.80736 15.376 8.67842 14.8387 9.21568L13.2215 10.8328C12.6843 11.3701 11.8132 11.3701 11.276 10.8328L9.6588 9.21568C9.12155 8.67842 9.12155 7.80736 9.6588 7.27011L11.276 5.65294Z" fill="black"/>
<path fill-rule="evenodd" clip-rule="evenodd" d="M8.4968 10.5554L7.05538 11.9968L8.4968 13.4382L9.93822 11.9968L8.4968 10.5554ZM8.40892 13.5261C8.40897 13.526 8.40902 13.526 8.40907 13.5259L8.40892 13.5261ZM7.52402 9.40685C8.06127 8.86959 8.93233 8.86959 9.46958 9.40685L11.0868 11.024C11.624 11.5613 11.624 12.4323 11.0868 12.9696L9.46958 14.5868C8.93233 15.124 8.06127 15.124 7.52402 14.5868L5.90685 12.9696C5.36959 12.4323 5.36959 11.5613 5.90685 11.024L7.52402 9.40685Z" fill="black"/>
<path fill-rule="evenodd" clip-rule="evenodd" d="M15.0299 9.40685C15.5671 8.86959 16.4382 8.86959 16.9754 9.40685L18.5926 11.024C19.1299 11.5613 19.1299 12.4323 18.5926 12.9696L16.9754 14.5868C16.4382 15.124 15.5671 15.124 15.0299 14.5868L13.4127 12.9696C12.8755 12.4323 12.8755 11.5613 13.4127 11.024L13.943 11.5543L13.4127 11.024L15.0299 9.40685ZM16.0027 10.5554L14.5612 11.9968L16.0027 13.4382L17.4441 11.9968L16.0027 10.5554ZM17.532 11.9089L17.5318 11.9091L17.532 11.9089Z" fill="black"/>
</svg>