<svg width="25" height="25" viewBox="0 0 25 25" fill="none" xmlns="http://www.w3.org/2000/svg">
<path fill-rule="evenodd" clip-rule="evenodd" d="M11.75 3.11865C11.75 2.70444 12.0858 2.36865 12.5 2.36865C14.7105 2.36865 16.8555 3.11983 18.583 4.49898C20.3106 5.87814 21.5182 7.80341 22.0078 9.95904C22.4974 12.1147 22.24 14.3727 21.2778 16.3628C20.3155 18.353 18.7056 19.957 16.7119 20.912C14.7183 21.8669 12.4593 22.116 10.3055 21.6185C8.15169 21.1209 6.23086 19.9063 4.85806 18.1737C3.48525 16.4411 2.74195 14.2934 2.75007 12.0829C2.75818 9.87234 3.51722 7.73018 4.90271 6.00771C5.16232 5.68495 5.63443 5.63376 5.95719 5.89337C6.27995 6.15299 6.33114 6.62509 6.07152 6.94785C4.89919 8.40533 4.25692 10.2179 4.25006 12.0884C4.24319 13.9588 4.87213 15.7761 6.03374 17.2421C7.19535 18.7082 8.82066 19.736 10.6431 20.157C12.4656 20.578 14.377 20.3672 16.0639 19.5591C17.7509 18.7511 19.1131 17.3938 19.9274 15.7099C20.7416 14.0259 20.9594 12.1153 20.5451 10.2913C20.1308 8.46729 19.1089 6.83822 17.6472 5.67124C16.1854 4.50426 14.3705 3.86865 12.5 3.86865C12.0858 3.86865 11.75 3.53287 11.75 3.11865Z" fill="black"/>
<path fill-rule="evenodd" clip-rule="evenodd" d="M11.75 6.61865C11.75 6.20444 12.0858 5.86865 12.5 5.86865C13.709 5.86865 14.892 6.2193 15.9057 6.87809C16.9195 7.53689 17.7204 8.47556 18.2114 9.58035C18.7024 10.6851 18.8624 11.9086 18.6721 13.1025C18.4818 14.2964 17.9493 15.4095 17.1391 16.3069C16.3289 17.2043 15.2759 17.8474 14.1076 18.1584C12.9393 18.4693 11.7059 18.4348 10.5568 18.0589C9.40772 17.683 8.39234 16.9819 7.6337 16.0406C6.87505 15.0993 6.4057 13.9581 6.28253 12.7554C6.24032 12.3434 6.54015 11.9751 6.95221 11.9329C7.36427 11.8907 7.73252 12.1905 7.77472 12.6026C7.86833 13.5166 8.22504 14.3839 8.80161 15.0993C9.37818 15.8147 10.1499 16.3476 11.0232 16.6332C11.8964 16.9189 12.8338 16.9452 13.7218 16.7088C14.6097 16.4725 15.41 15.9837 16.0257 15.3017C16.6414 14.6197 17.0461 13.7738 17.1908 12.8664C17.3354 11.959 17.2138 11.0292 16.8406 10.1895C16.4675 9.3499 15.8588 8.63651 15.0884 8.13583C14.3179 7.63514 13.4188 7.36865 12.5 7.36865C12.0858 7.36865 11.75 7.03287 11.75 6.61865Z" fill="black"/>
<path fill-rule="evenodd" clip-rule="evenodd" d="M11.75 10.1187C11.75 9.70444 12.0857 9.36865 12.5 9.36865C13.0319 9.36865 13.5524 9.52294 13.9985 9.81281C14.4445 10.1027 14.7969 10.5157 15.013 11.0018C15.229 11.4879 15.2994 12.0262 15.2157 12.5516C15.1319 13.0769 14.8976 13.5666 14.5412 13.9615C14.1847 14.3563 13.7214 14.6393 13.2073 14.7761C12.6932 14.913 12.1505 14.8977 11.6449 14.7324C11.2513 14.6036 11.0365 14.18 11.1653 13.7863C11.2941 13.3927 11.7176 13.1779 12.1113 13.3067C12.3411 13.3819 12.5878 13.3888 12.8215 13.3266C13.0551 13.2644 13.2657 13.1358 13.4278 12.9563C13.5898 12.7768 13.6963 12.5542 13.7344 12.3154C13.7724 12.0766 13.7404 11.8319 13.6422 11.611C13.544 11.39 13.3839 11.2023 13.1811 11.0705C12.9784 10.9388 12.7418 10.8687 12.5 10.8687C12.0857 10.8687 11.75 10.5329 11.75 10.1187Z" fill="black"/>
</svg>