<svg width="24" height="24" viewBox="0 0 24 24" fill="none" xmlns="http://www.w3.org/2000/svg">
<path fill-rule="evenodd" clip-rule="evenodd" d="M10.8935 12.6135C10.8395 12.6075 10.7855 12.6035 10.7315 12.6035C10.0575 12.6035 9.47149 13.1095 9.38849 13.7945C9.34549 14.1535 9.44449 14.5075 9.66749 14.7915C9.89049 15.0755 10.2105 15.2565 10.5695 15.2995C10.9315 15.3455 11.2835 15.2435 11.5665 15.0205C11.8515 14.7975 12.0315 14.4765 12.0745 14.1175C12.1645 13.3775 11.6345 12.7025 10.8935 12.6135Z" fill="black"/>
<path fill-rule="evenodd" clip-rule="evenodd" d="M16.082 10.126C15.951 10.519 15.526 10.731 15.134 10.602C14.714 10.463 14.366 10.257 14.08 10.022L13.565 14.297C13.564 14.301 13.562 14.304 13.562 14.308C13.468 15.06 13.089 15.732 12.493 16.2C11.986 16.598 11.373 16.809 10.738 16.809C10.623 16.809 10.507 16.802 10.391 16.788C9.634 16.697 8.958 16.317 8.488 15.718C8.018 15.118 7.809 14.372 7.899 13.615C8.087 12.054 9.512 10.935 11.073 11.124C11.562 11.183 11.999 11.374 12.374 11.641L12.831 7.852C12.874 7.493 13.167 7.216 13.528 7.193C13.87 7.173 14.214 7.408 14.302 7.758C14.313 7.797 14.605 8.847 15.606 9.178C15.999 9.309 16.212 9.733 16.082 10.126ZM12 2.5C6.762 2.5 2.5 6.762 2.5 12C2.5 17.238 6.762 21.5 12 21.5C17.239 21.5 21.5 17.238 21.5 12C21.5 6.762 17.239 2.5 12 2.5Z" fill="black"/>
</svg>