<svg width="24" height="24" viewBox="0 0 24 24" fill="none" xmlns="http://www.w3.org/2000/svg">
<path d="M12 3C16.9706 3 21 7.02944 21 12C21 16.9706 16.9706 21 12 21C7.02944 21 3 16.9706 3 12C3 7.02944 7.02944 3 12 3Z" stroke="black" stroke-width="1.5" stroke-linecap="round" stroke-linejoin="round"/>
<path fill-rule="evenodd" clip-rule="evenodd" d="M9.14086 10.7837C7.85848 10.7954 6.82227 11.6565 6.82227 13.1237C6.82227 14.0724 7.38756 14.8897 8.19902 15.2565C8.54054 15.3947 8.88108 15.4482 9.13891 15.4482H14.6732C14.932 15.4482 15.2735 15.3976 15.6189 15.2594C16.4313 14.8916 16.9937 14.0724 16.9937 13.1237C16.9937 11.6565 15.9575 10.7954 14.6751 10.7837C14.6751 9.86136 13.9522 8.01562 11.908 8.01562C9.86475 8.01562 9.14086 9.86136 9.14086 10.7837Z" stroke="black" stroke-width="1.5" stroke-linecap="round" stroke-linejoin="round"/>
</svg>