<svg width="25" height="24" viewBox="0 0 25 24" fill="none" xmlns="http://www.w3.org/2000/svg">
<path fill-rule="evenodd" clip-rule="evenodd" d="M12.25 3.75C7.69329 3.75 4 7.44329 4 12C4 16.5558 7.69335 20.25 12.25 20.25C16.8067 20.25 20.5 16.5558 20.5 12C20.5 7.44329 16.8067 3.75 12.25 3.75ZM2.5 12C2.5 6.61487 6.86487 2.25 12.25 2.25C17.6351 2.25 22 6.61487 22 12C22 17.3841 17.6352 21.75 12.25 21.75C6.86481 21.75 2.5 17.3841 2.5 12Z" fill="black"/>
<path fill-rule="evenodd" clip-rule="evenodd" d="M11.9219 7.82617C12.3361 7.82617 12.6719 8.16196 12.6719 8.57617V12.2488L15.4814 13.9278C15.837 14.1403 15.953 14.6008 15.7405 14.9564C15.528 15.3119 15.0675 15.4279 14.7119 15.2154L11.5371 13.3181C11.3106 13.1827 11.1719 12.9383 11.1719 12.6743V8.57617C11.1719 8.16196 11.5077 7.82617 11.9219 7.82617Z" fill="black"/>
</svg>