<svg width="25" height="25" viewBox="0 0 25 25" fill="none" xmlns="http://www.w3.org/2000/svg">
<path d="M12.5 3.11865C14.5405 3.11865 16.5204 3.81204 18.1151 5.08511C19.7098 6.35818 20.8245 8.13535 21.2764 10.1252C21.7284 12.115 21.4908 14.1993 20.6026 16.0364C19.7143 17.8734 18.2282 19.3541 16.3879 20.2355C14.5477 21.117 12.4625 21.347 10.4743 20.8877C8.48617 20.4285 6.7131 19.3072 5.4459 17.7079C4.17869 16.1086 3.49257 14.1261 3.50006 12.0856C3.50755 10.0451 4.2082 8.06776 5.48712 6.47778" stroke="black" stroke-width="1.5" stroke-linecap="round"/>
<path d="M12.5 6.61865C13.5639 6.61865 14.605 6.92722 15.497 7.50696C16.3891 8.0867 17.0939 8.91273 17.526 9.88494C17.9581 10.8572 18.0989 11.9338 17.9314 12.9845C17.7639 14.0351 17.2953 15.0146 16.5824 15.8043C15.8695 16.594 14.9428 17.16 13.9147 17.4336C12.8866 17.7073 11.8011 17.6768 10.79 17.3461C9.77879 17.0153 8.88526 16.3983 8.21765 15.57C7.55004 14.7416 7.13701 13.7374 7.02862 12.679" stroke="black" stroke-width="1.5" stroke-linecap="round"/>
<path d="M12.4998 10.1187C12.8866 10.1187 13.2652 10.2309 13.5896 10.4417C13.914 10.6525 14.1703 10.9529 14.3274 11.3064C14.4845 11.6599 14.5357 12.0514 14.4748 12.4335C14.4139 12.8155 14.2435 13.1717 13.9843 13.4589C13.725 13.746 13.388 13.9519 13.0142 14.0514C12.6403 14.1509 12.2456 14.1398 11.8779 14.0195" stroke="black" stroke-width="1.5" stroke-linecap="round"/>
</svg>