<svg width="25" height="24" viewBox="0 0 25 24" fill="none" xmlns="http://www.w3.org/2000/svg">
<path opacity="0.4" fill-rule="evenodd" clip-rule="evenodd" d="M13 2C7.762 2 3.5 6.261 3.5 11.5C3.5 16.738 7.762 21 13 21C18.239 21 22.5 16.738 22.5 11.5C22.5 6.261 18.239 2 13 2Z" fill="black"/>
<path fill-rule="evenodd" clip-rule="evenodd" d="M16.9292 15.4426C16.5072 15.6126 16.0722 15.6986 15.6742 15.6986H10.1392C9.74424 15.6986 9.31124 15.6106 8.91824 15.4516C7.78624 14.9416 7.07324 13.8356 7.07324 12.6236C7.07324 11.0806 8.04724 9.89662 9.46924 9.60362C9.75924 8.27862 10.8722 6.76562 12.9082 6.76562C14.9452 6.76562 16.0582 8.27862 16.3482 9.60362C17.7702 9.89662 18.7442 11.0806 18.7442 12.6236C18.7442 13.8376 18.0322 14.9436 16.9292 15.4426ZM14.9259 10.2839C14.9259 10.6959 15.2569 11.0299 15.6689 11.0339C16.4309 11.0409 17.2439 11.4619 17.2439 12.6239C17.2439 13.2489 16.8769 13.8199 16.3409 14.0629C16.0359 14.1849 15.7729 14.1989 15.6739 14.1989H10.1389C9.93894 14.1989 9.69294 14.1469 9.50794 14.0729C8.93994 13.8159 8.57294 13.2469 8.57294 12.6239C8.57294 11.4619 9.38693 11.0409 10.1479 11.0339C10.5599 11.0299 10.8919 10.6959 10.8919 10.2839C10.8919 9.88388 11.2509 8.26588 12.9089 8.26588C14.5669 8.26588 14.9259 9.88388 14.9259 10.2839Z" fill="black"/>
</svg>