<svg width="24" height="24" viewBox="0 0 24 24" fill="none" xmlns="http://www.w3.org/2000/svg">
<path fill-rule="evenodd" clip-rule="evenodd" d="M14.743 4.78259H14.783C15.173 4.78259 15.503 4.47259 15.533 4.07259L15.603 2.76259C15.623 2.3526 15.313 1.99259 14.893 1.97259C14.493 1.95259 14.133 2.2626 14.103 2.6826L14.033 3.99259C14.013 4.4026 14.323 4.76259 14.743 4.78259Z" fill="black"/>
<path fill-rule="evenodd" clip-rule="evenodd" d="M17.613 5.78337C17.823 5.78337 18.043 5.69337 18.193 5.51337L19.033 4.49337C19.293 4.17337 19.243 3.70337 18.923 3.44337C18.603 3.17337 18.133 3.22337 17.873 3.54337L17.033 4.56337C16.773 4.88337 16.813 5.35337 17.133 5.61337C17.273 5.73337 17.443 5.78337 17.613 5.78337Z" fill="black"/>
<path fill-rule="evenodd" clip-rule="evenodd" d="M21.133 6.73308C20.993 6.34308 20.563 6.14308 20.173 6.29308L18.943 6.75308C18.553 6.89308 18.353 7.32308 18.503 7.71308C18.613 8.01308 18.903 8.20308 19.203 8.20308C19.293 8.20308 19.383 8.19308 19.463 8.15308L20.693 7.69308C21.083 7.55308 21.283 7.12308 21.133 6.73308Z" fill="black"/>
<path fill-rule="evenodd" clip-rule="evenodd" d="M6.1417 6.32794L6.3917 6.77794C6.6417 6.85794 6.8717 6.98794 7.0617 7.14794C7.1417 7.20794 7.2117 7.27794 7.2817 7.34794C7.6717 6.78794 8.3017 6.41794 9.0017 6.36794L8.3217 5.12794C8.2417 4.98794 8.1317 4.85794 8.0117 4.76794C7.8817 4.65794 7.7417 4.58794 7.5817 4.53794C7.4117 4.48794 7.2517 4.47794 7.0917 4.49794C6.7717 4.52794 6.4617 4.69794 6.2617 4.94794C6.1617 5.07794 6.0817 5.21794 6.0417 5.38794C5.9917 5.54794 5.9717 5.70794 5.9917 5.86794C6.0117 6.01794 6.0617 6.17794 6.1417 6.32794Z" fill="black"/>
<path fill-rule="evenodd" clip-rule="evenodd" d="M9.86171 6.47804C10.3817 6.65804 10.8417 7.03804 11.1117 7.52804L12.4817 10.028C12.7217 9.60804 13.0717 9.25804 13.5117 9.01804C13.6617 8.92804 13.8217 8.86804 13.9917 8.83804L11.8017 4.83804C11.6417 4.54804 11.3717 4.33804 11.0617 4.23804C10.4217 4.05804 9.71171 4.43804 9.51171 5.08804C9.43171 5.41804 9.46171 5.74804 9.62171 6.03804L9.86171 6.47804Z" fill="black"/>
<path fill-rule="evenodd" clip-rule="evenodd" d="M16.6517 7.04803C16.5517 6.85803 16.3817 6.72803 16.1717 6.66803C15.9717 6.59803 15.7517 6.62803 15.5617 6.72803C14.7917 7.14803 14.4817 8.07803 14.8417 8.85803C14.8517 8.85803 14.8617 8.86803 14.8717 8.86803C15.3417 9.00803 15.7317 9.30803 15.9617 9.73803L17.5717 12.678C18.0317 13.548 18.3017 14.478 18.3817 15.418C18.5217 15.138 18.6317 14.848 18.7217 14.548C19.1817 13.018 19.0117 11.398 18.2617 9.97803L16.6517 7.04803Z" fill="black"/>
<path fill-rule="evenodd" clip-rule="evenodd" d="M15.0817 10.2184C14.9817 10.0284 14.8117 9.8884 14.6017 9.8284C14.5817 9.8184 14.5617 9.8184 14.5317 9.8184C14.4817 9.7984 14.4317 9.7984 14.3717 9.7984C14.2417 9.7984 14.1117 9.8284 13.9917 9.8984C13.1817 10.3384 12.8817 11.3584 13.3317 12.1684C13.3317 12.1784 13.3517 12.2084 13.3517 12.2184L14.1617 13.7084C14.2517 13.8784 14.1917 14.0884 14.0217 14.1784C13.9617 14.2184 13.9017 14.2284 13.8517 14.2284C13.7517 14.2284 13.6617 14.1884 13.6017 14.1184C13.5817 14.1084 13.5617 14.0784 13.5417 14.0484L11.6117 10.5184L10.2317 8.0084C10.0917 7.7484 9.86172 7.5484 9.59172 7.4484C9.56172 7.4284 9.53172 7.4184 9.49172 7.4084C9.44172 7.3984 9.39172 7.3884 9.34172 7.3784C9.28172 7.3684 9.22172 7.3584 9.16172 7.3584C9.13172 7.3584 9.10172 7.3584 9.07172 7.3684C8.99172 7.3784 8.92172 7.3884 8.84172 7.4084C8.80172 7.4184 8.76172 7.4384 8.72172 7.4484C8.68172 7.4684 8.63172 7.4784 8.59172 7.4984C8.53172 7.5384 8.47172 7.5684 8.42172 7.6084C8.20172 7.7584 8.03172 7.9884 7.94172 8.2584C7.86172 8.5784 7.89172 8.9184 8.05172 9.2084L10.2317 13.1884C10.3317 13.3584 10.2617 13.5784 10.0917 13.6684C10.0417 13.6984 9.99172 13.7084 9.93172 13.7084C9.86172 13.7084 9.79172 13.6884 9.74172 13.6584C9.71172 13.6484 9.68172 13.6284 9.67172 13.5984C9.65172 13.5784 9.63172 13.5584 9.61172 13.5284L8.81172 12.0584L6.75172 8.2984C6.67172 8.1584 6.56172 8.0284 6.44172 7.9284C6.31172 7.8284 6.17172 7.7484 6.01172 7.7084C5.84172 7.6584 5.68172 7.6384 5.52172 7.6584C5.20172 7.6984 4.89172 7.8684 4.69172 8.1184C4.59172 8.2384 4.51172 8.3884 4.47172 8.5484C4.42172 8.7084 4.40172 8.8784 4.42172 9.0384C4.42172 9.0584 4.43172 9.0884 4.44172 9.1084C4.46172 9.2384 4.50172 9.3684 4.57172 9.4884L7.43172 14.7284C7.52172 14.8784 7.48172 15.0684 7.34172 15.1584C7.33172 15.1784 7.31172 15.1884 7.29172 15.1984C7.24172 15.2284 7.19172 15.2484 7.13172 15.2484C7.00172 15.2484 6.88172 15.1784 6.81172 15.0684L5.14172 12.0084C4.92172 11.6084 4.47172 11.3684 4.02172 11.3684C3.83172 11.3684 3.63172 11.4184 3.46172 11.5084C2.87172 11.8284 2.64172 12.6184 2.96172 13.1984L6.11172 18.9584C6.90172 20.3484 8.17172 21.3584 9.71172 21.7984C9.85172 21.8384 9.99172 21.8684 10.1217 21.8984C10.4017 21.9584 10.6817 21.9984 10.9617 22.0184C11.1017 22.0184 11.2417 22.0284 11.3817 22.0284C12.3817 22.0284 13.3717 21.7784 14.2717 21.2884C15.6717 20.5184 16.6917 19.2584 17.1517 17.7184C17.2217 17.4684 17.2817 17.2284 17.3217 16.9784C17.5417 15.6784 17.3217 14.3384 16.6917 13.1484L15.0817 10.2184Z" fill="black"/>
</svg>