<svg width="25" height="25" viewBox="0 0 25 25" fill="none" xmlns="http://www.w3.org/2000/svg">
<path fill-rule="evenodd" clip-rule="evenodd" d="M7.57914 6.18612C8.11498 5.57346 8.8901 5.22266 9.70326 5.22266H18.829C20.7183 5.22266 22.2499 6.75426 22.2499 8.64354V16.8878C22.2499 18.7778 20.7185 20.3096 18.829 20.3096H9.70326C8.89001 20.3096 8.11481 19.9587 7.57896 19.346L3.44773 14.6241C2.51755 13.5601 2.51736 11.9714 3.44754 10.9074L7.57914 6.18612C7.5792 6.18605 7.57908 6.18618 7.57914 6.18612ZM9.70326 6.72266C9.32167 6.72266 8.95846 6.88746 8.70812 7.17373L4.57684 11.8946C4.14099 12.3932 4.14092 13.1378 4.57664 13.6364C4.57657 13.6364 4.57671 13.6365 4.57664 13.6364L8.70799 18.3584C8.95833 18.6447 9.32167 18.8096 9.70326 18.8096H18.829C19.8897 18.8096 20.7499 17.9498 20.7499 16.8878V8.64354C20.7499 7.58269 19.8899 6.72266 18.829 6.72266H9.70326Z" fill="black"/>
<path fill-rule="evenodd" clip-rule="evenodd" d="M12.122 10.1806C12.4149 9.88771 12.8898 9.88771 13.1827 10.1806L14.7078 11.7057L16.2329 10.1806C16.5258 9.88771 17.0007 9.88771 17.2936 10.1806C17.5865 10.4735 17.5865 10.9484 17.2936 11.2413L15.7685 12.7664L17.2936 14.2915C17.5865 14.5844 17.5865 15.0593 17.2936 15.3522C17.0007 15.6451 16.5258 15.6451 16.2329 15.3522L14.7078 13.8271L13.1827 15.3522C12.8898 15.6451 12.4149 15.6451 12.122 15.3522C11.8291 15.0593 11.8291 14.5844 12.122 14.2915L13.6471 12.7664L12.122 11.2413C11.8291 10.9484 11.8291 10.4735 12.122 10.1806Z" fill="black"/>
</svg>