<svg width="24" height="24" viewBox="0 0 24 24" fill="none" xmlns="http://www.w3.org/2000/svg">
<path opacity="0.4" fill-rule="evenodd" clip-rule="evenodd" d="M16.8928 4.38282C16.7728 4.34737 16.6552 4.43697 16.6373 4.56081C16.4645 5.75695 15.4285 6.68126 14.19 6.68126H9.81001C8.57162 6.68126 7.52688 5.75709 7.35287 4.56109C7.33484 4.43717 7.21708 4.34755 7.09705 4.38323C5.34572 4.90375 4.07001 6.53566 4.07001 8.46126V17.3613C4.07001 19.7013 5.97001 21.6113 8.32001 21.6113H15.68C18.03 21.6113 19.93 19.7013 19.93 17.3613V8.46126C19.93 6.53515 18.6536 4.90289 16.8928 4.38282Z" fill="black"/>
<path fill-rule="evenodd" clip-rule="evenodd" d="M9.80997 5.48062H14.19C14.87 5.48062 15.43 4.94062 15.45 4.26063C15.46 4.24063 15.46 4.22062 15.46 4.20062V3.66062C15.46 2.96062 14.89 2.39062 14.19 2.39062H9.80997C9.10997 2.39062 8.52997 2.96062 8.52997 3.66062V4.20062C8.52997 4.22062 8.52997 4.23063 8.53997 4.25063C8.55997 4.94062 9.12997 5.48062 9.80997 5.48062Z" fill="black"/>
<path fill-rule="evenodd" clip-rule="evenodd" d="M14.25 15.1902C14.54 15.4802 14.54 15.9602 14.25 16.2502C13.96 16.5402 13.48 16.5402 13.19 16.2502L12 15.0702L10.81 16.2502C10.67 16.4002 10.48 16.4702 10.28 16.4702C10.09 16.4702 9.9 16.4002 9.75 16.2502C9.46 15.9602 9.46 15.4902 9.75 15.1902L10.94 14.0002L9.75 12.8202C9.46 12.5202 9.46 12.0502 9.75 11.7602C10.05 11.4602 10.52 11.4602 10.81 11.7602L12 12.9402L13.19 11.7602C13.48 11.4602 13.96 11.4602 14.25 11.7602C14.54 12.0502 14.54 12.5202 14.25 12.8202L13.06 14.0002L14.25 15.1902Z" fill="black"/>
</svg>