<svg width="25" height="24" viewBox="0 0 25 24" fill="none" xmlns="http://www.w3.org/2000/svg">
<path fill-rule="evenodd" clip-rule="evenodd" d="M12.248 9.85547C12.6622 9.85547 12.998 10.1913 12.998 10.6055V14.2265L13.8278 13.3932C14.1201 13.0997 14.595 13.0987 14.8885 13.391C15.182 13.6832 15.183 14.1581 14.8907 14.4516L12.7804 16.5707C12.7625 16.5887 12.7437 16.6057 12.7242 16.6216C12.5947 16.7282 12.4288 16.7922 12.248 16.7922C12.0245 16.7922 11.8239 16.6945 11.6865 16.5395L9.60724 14.4516C9.31496 14.1581 9.31594 13.6832 9.60944 13.391C9.90294 13.0987 10.3778 13.0997 10.6701 13.3932L11.498 14.2245V10.6055C11.498 10.1913 11.8338 9.85547 12.248 9.85547Z" fill="black"/>
<path fill-rule="evenodd" clip-rule="evenodd" d="M9.92659 3.75C9.59164 3.75 9.32031 4.02133 9.32031 4.35627V4.92933C9.32031 5.26428 9.59164 5.53561 9.92659 5.53561H14.5733C14.9083 5.53561 15.1796 5.26428 15.1796 4.92933V4.35627C15.1796 4.02133 14.9083 3.75 14.5733 3.75H9.92659ZM7.82031 4.35627C7.82031 3.1929 8.76321 2.25 9.92659 2.25H14.5733C15.7367 2.25 16.6796 3.1929 16.6796 4.35627V4.92933C16.6796 6.09271 15.7367 7.03561 14.5733 7.03561H9.92659C8.76321 7.03561 7.82031 6.09271 7.82031 4.92933V4.35627Z" fill="black"/>
<path fill-rule="evenodd" clip-rule="evenodd" d="M8.57097 5.34375C6.91185 5.34375 5.56641 6.6892 5.56641 8.34831V17.2458C5.56641 18.9049 6.91185 20.2504 8.57097 20.2504H15.9303C17.5894 20.2504 18.9348 18.9049 18.9348 17.2458V8.34831C18.9348 6.6892 17.5894 5.34375 15.9303 5.34375C15.516 5.34375 15.1803 5.00796 15.1803 4.59375C15.1803 4.17954 15.516 3.84375 15.9303 3.84375C18.4178 3.84375 20.4348 5.86077 20.4348 8.34831V17.2458C20.4348 19.7334 18.4178 21.7504 15.9303 21.7504H8.57097C6.08343 21.7504 4.06641 19.7334 4.06641 17.2458V8.34831C4.06641 5.86077 6.08343 3.84375 8.57097 3.84375C8.98518 3.84375 9.32097 4.17954 9.32097 4.59375C9.32097 5.00796 8.98518 5.34375 8.57097 5.34375Z" fill="black"/>
</svg>