<svg width="24" height="24" viewBox="0 0 24 24" fill="none" xmlns="http://www.w3.org/2000/svg">
<path fill-rule="evenodd" clip-rule="evenodd" d="M15.02 16.159H8.99001C8.57001 16.159 8.24001 15.829 8.24001 15.409C8.24001 14.999 8.57001 14.659 8.99001 14.659H15.02C15.44 14.659 15.77 14.999 15.77 15.409C15.77 15.829 15.44 16.159 15.02 16.159ZM8.99001 10.649H12C12.42 10.649 12.75 10.989 12.75 11.409C12.75 11.819 12.42 12.149 12 12.149H8.99001C8.57001 12.149 8.24001 11.819 8.24001 11.409C8.24001 10.989 8.57001 10.649 8.99001 10.649ZM16.8928 4.38053C16.7728 4.34508 16.6552 4.43468 16.6373 4.55852C16.4645 5.75466 15.4285 6.67897 14.19 6.67897H9.81001C8.57162 6.67897 7.52688 5.7548 7.35287 4.5588C7.33484 4.43488 7.21708 4.34526 7.09705 4.38094C5.34572 4.90146 4.07001 6.53337 4.07001 8.45897V17.359C4.07001 19.699 5.97001 21.609 8.32001 21.609H15.68C18.03 21.609 19.93 19.699 19.93 17.359V8.45897C19.93 6.53286 18.6536 4.9006 16.8928 4.38053Z" fill="black"/>
<path fill-rule="evenodd" clip-rule="evenodd" d="M9.81363 5.48062H14.1936C14.8736 5.48062 15.4336 4.94062 15.4536 4.26063C15.4636 4.24063 15.4636 4.22062 15.4636 4.20062V3.66062C15.4636 2.96062 14.8936 2.39062 14.1936 2.39062H9.81363C9.11363 2.39062 8.53363 2.96062 8.53363 3.66062V4.20062C8.53363 4.22062 8.53363 4.23063 8.54363 4.25063C8.56363 4.94062 9.13363 5.48062 9.81363 5.48062Z" fill="black"/>
</svg>