<svg width="24" height="24" viewBox="0 0 24 24" fill="none" xmlns="http://www.w3.org/2000/svg">
<path fill-rule="evenodd" clip-rule="evenodd" d="M14.2 14.609H9.79001C9.38001 14.609 9.04001 14.269 9.04001 13.859C9.04001 13.439 9.38001 13.109 9.79001 13.109H14.2C14.62 13.109 14.95 13.439 14.95 13.859C14.95 14.269 14.62 14.609 14.2 14.609ZM16.8928 4.38053C16.7728 4.34508 16.6552 4.43468 16.6373 4.55852C16.4645 5.75466 15.4285 6.67897 14.19 6.67897H9.81001C8.57162 6.67897 7.52688 5.7548 7.35287 4.5588C7.33484 4.43488 7.21708 4.34526 7.09705 4.38094C5.34572 4.90146 4.07001 6.53337 4.07001 8.45897V17.359C4.07001 19.699 5.97001 21.609 8.32001 21.609H15.68C18.03 21.609 19.93 19.699 19.93 17.359V8.45897C19.93 6.53286 18.6536 4.9006 16.8928 4.38053Z" fill="black"/>
<path fill-rule="evenodd" clip-rule="evenodd" d="M9.80924 5.48062H14.1892C14.8692 5.48062 15.4292 4.94062 15.4492 4.26063C15.4592 4.24063 15.4592 4.22062 15.4592 4.20062V3.66062C15.4592 2.96062 14.8892 2.39062 14.1892 2.39062H9.80924C9.10924 2.39062 8.52924 2.96062 8.52924 3.66062V4.20062C8.52924 4.22062 8.52924 4.23063 8.53924 4.25063C8.55924 4.94062 9.12924 5.48062 9.80924 5.48062Z" fill="black"/>
</svg>