<svg width="24" height="24" viewBox="0 0 24 24" fill="none" xmlns="http://www.w3.org/2000/svg">
<path opacity="0.4" fill-rule="evenodd" clip-rule="evenodd" d="M16.8928 4.38282C16.7728 4.34737 16.6552 4.43697 16.6373 4.56081C16.4645 5.75695 15.4285 6.68126 14.19 6.68126H9.81001C8.57162 6.68126 7.52688 5.75709 7.35287 4.56109C7.33484 4.43717 7.21708 4.34755 7.09705 4.38323C5.34572 4.90375 4.07001 6.53566 4.07001 8.46126V17.3613C4.07001 19.7013 5.97001 21.6113 8.32001 21.6113H15.68C18.03 21.6113 19.93 19.7013 19.93 17.3613V8.46126C19.93 6.53515 18.6536 4.90289 16.8928 4.38282Z" fill="black"/>
<path fill-rule="evenodd" clip-rule="evenodd" d="M9.80997 5.48062H14.19C14.87 5.48062 15.43 4.94062 15.45 4.26063C15.46 4.24063 15.46 4.22062 15.46 4.20062V3.66062C15.46 2.96062 14.89 2.39062 14.19 2.39062H9.80997C9.10997 2.39062 8.52997 2.96062 8.52997 3.66062V4.20062C8.52997 4.22062 8.52997 4.23063 8.53997 4.25063C8.55997 4.94062 9.12997 5.48062 9.80997 5.48062Z" fill="black"/>
<path fill-rule="evenodd" clip-rule="evenodd" d="M15.02 12.1699H8.98001C8.57001 12.1699 8.23001 11.8299 8.23001 11.4199C8.23001 10.9999 8.57001 10.6699 8.98001 10.6699H15.02C15.43 10.6699 15.77 10.9999 15.77 11.4199C15.77 11.8299 15.43 12.1699 15.02 12.1699ZM15.02 16.6499H8.98001C8.57001 16.6499 8.23001 16.3099 8.23001 15.8999C8.23001 15.4899 8.57001 15.1499 8.98001 15.1499H15.02C15.43 15.1499 15.77 15.4899 15.77 15.8999C15.77 16.3099 15.43 16.6499 15.02 16.6499Z" fill="black"/>
</svg>