<svg width="24" height="24" viewBox="0 0 24 24" fill="none" xmlns="http://www.w3.org/2000/svg">
<path fill-rule="evenodd" clip-rule="evenodd" d="M14.21 14.609H12.75V16.059C12.75 16.479 12.42 16.809 12 16.809C11.59 16.809 11.25 16.479 11.25 16.059V14.609H9.80001C9.38001 14.609 9.05001 14.269 9.05001 13.859C9.05001 13.439 9.38001 13.109 9.80001 13.109H11.25V11.649C11.25 11.239 11.59 10.899 12 10.899C12.42 10.899 12.75 11.239 12.75 11.649V13.109H14.21C14.62 13.109 14.96 13.439 14.96 13.859C14.96 14.269 14.62 14.609 14.21 14.609ZM16.8928 4.38053C16.7728 4.34508 16.6552 4.43468 16.6373 4.55852C16.4645 5.75466 15.4285 6.67897 14.19 6.67897H9.81001C8.57162 6.67897 7.52688 5.7548 7.35287 4.5588C7.33484 4.43488 7.21708 4.34526 7.09705 4.38094C5.34572 4.90146 4.07001 6.53337 4.07001 8.45897V17.359C4.07001 19.699 5.97001 21.609 8.32001 21.609H15.68C18.03 21.609 19.93 19.699 19.93 17.359V8.45897C19.93 6.53286 18.6536 4.9006 16.8928 4.38053Z" fill="black"/>
<path fill-rule="evenodd" clip-rule="evenodd" d="M9.8107 5.48062H14.1907C14.8707 5.48062 15.4307 4.94062 15.4507 4.26063C15.4607 4.24063 15.4607 4.22062 15.4607 4.20062V3.66062C15.4607 2.96062 14.8907 2.39062 14.1907 2.39062H9.8107C9.1107 2.39062 8.5307 2.96062 8.5307 3.66062V4.20062C8.5307 4.22062 8.5307 4.23063 8.5407 4.25063C8.5607 4.94062 9.1307 5.48062 9.8107 5.48062Z" fill="black"/>
</svg>