<svg width="25" height="25" viewBox="0 0 25 25" fill="none" xmlns="http://www.w3.org/2000/svg">
<path fill-rule="evenodd" clip-rule="evenodd" d="M14.8233 6.40475H10.1766C9.42742 6.40475 8.82031 5.79763 8.82031 5.04847V4.47541C8.82031 3.72625 9.42742 3.11914 10.1766 3.11914H14.8233C15.5725 3.11914 16.1796 3.72625 16.1796 4.47541V5.04847C16.1796 5.79763 15.5725 6.40475 14.8233 6.40475Z" stroke="black" stroke-width="1.5" stroke-linecap="round" stroke-linejoin="round"/>
<path d="M16.1803 4.71289C18.2536 4.71289 19.9348 6.39412 19.9348 8.46745V17.365C19.9348 19.4383 18.2536 21.1195 16.1803 21.1195H8.82097C6.74764 21.1195 5.06641 19.4383 5.06641 17.365V8.46745C5.06641 6.39412 6.74764 4.71289 8.82097 4.71289" stroke="black" stroke-width="1.5" stroke-linecap="round" stroke-linejoin="round"/>
<path d="M16.4639 17.1436V15.0503" stroke="black" stroke-width="1.5" stroke-linecap="round" stroke-linejoin="round"/>
<path d="M11.2349 17.1439V14.2832" stroke="black" stroke-width="1.5" stroke-linecap="round" stroke-linejoin="round"/>
<path d="M13.8498 17.1433V16.3696" stroke="black" stroke-width="1.5" stroke-linecap="round" stroke-linejoin="round"/>
<path d="M8.54465 17.1433V16.3696" stroke="black" stroke-width="1.5" stroke-linecap="round" stroke-linejoin="round"/>
<path d="M8.19775 13.1815L10.9562 10.1926L14.1031 12.2525L16.802 9.34668" stroke="black" stroke-width="1.5" stroke-linecap="round" stroke-linejoin="round"/>
</svg>