<svg width="24" height="24" viewBox="0 0 24 24" fill="none" xmlns="http://www.w3.org/2000/svg">
<path d="M11.9996 15.3887V17.2247M14.1235 10.4957C14.2694 10.8635 14.1789 11.2829 13.8948 11.5582C13.8948 11.5582 13.4473 11.8939 13.3772 12.0602C13.2877 12.2714 13.2741 12.7734 13.3772 12.9787C13.4804 13.1859 14.1206 13.5362 14.1206 13.5362C14.5078 13.8271 14.7364 14.2824 14.7364 14.7669C14.7364 15.1104 14.4582 15.3886 14.1147 15.3886H9.8844C9.54095 15.3886 9.2627 15.1104 9.2627 14.7669C9.2627 14.2824 9.49134 13.8271 9.87856 13.5362C9.87856 13.5362 10.5188 13.1859 10.6219 12.9787C10.725 12.7734 10.7124 12.2714 10.6219 12.0602C10.5518 11.8939 10.1043 11.5582 10.1043 11.5582C9.82019 11.2829 9.7297 10.8635 9.87565 10.4957C10.0235 10.1231 10.3835 9.87891 10.7834 9.87891H13.2157C13.6156 9.87891 13.9756 10.1231 14.1235 10.4957Z" stroke="black" stroke-width="1.5" stroke-linecap="round" stroke-linejoin="round"/>
<path d="M8.31999 4.59375C6.24666 4.59375 4.56543 6.27498 4.56543 8.34831V17.2458C4.56543 19.3191 6.24666 21.0004 8.31999 21.0004H12.3172" stroke="black" stroke-width="1.5" stroke-linecap="round" stroke-linejoin="round"/>
<path d="M15.6797 4.59375C17.753 4.59375 19.4342 6.27498 19.4342 8.34831V17.2458C19.4342 19.3191 17.753 21.0004 15.6797 21.0004" stroke="black" stroke-width="1.5" stroke-linecap="round" stroke-linejoin="round"/>
<path d="M14.3233 3C15.0725 3 15.6796 3.60711 15.6796 4.35627V4.92933C15.6796 5.67849 15.0725 6.28561 14.3233 6.28561H9.67659C8.92742 6.28561 8.32031 5.67849 8.32031 4.92933V4.35627C8.32031 3.60711 8.92742 3 9.67659 3H12" stroke="black" stroke-width="1.5" stroke-linecap="round" stroke-linejoin="round"/>
</svg>