<svg width="24" height="24" viewBox="0 0 24 24" fill="none" xmlns="http://www.w3.org/2000/svg">
<path fill-rule="evenodd" clip-rule="evenodd" d="M15.47 12.3606H11.48C11.07 12.3606 10.73 12.0206 10.73 11.6106C10.73 11.2006 11.07 10.8606 11.48 10.8606H15.47C15.88 10.8606 16.22 11.2006 16.22 11.6106C16.22 12.0206 15.88 12.3606 15.47 12.3606ZM15.47 17.1806H11.48C11.07 17.1806 10.73 16.8406 10.73 16.4306C10.73 16.0206 11.07 15.6806 11.48 15.6806H15.47C15.88 15.6806 16.22 16.0206 16.22 16.4306C16.22 16.8406 15.88 17.1806 15.47 17.1806ZM8.81001 12.3606H8.52001C8.11001 12.3606 7.77001 12.0206 7.77001 11.6106C7.77001 11.2006 8.11001 10.8606 8.52001 10.8606H8.81001C9.22001 10.8606 9.56001 11.2006 9.56001 11.6106C9.56001 12.0206 9.22001 12.3606 8.81001 12.3606ZM8.81001 17.1806H8.52001C8.11001 17.1806 7.77001 16.8406 7.77001 16.4306C7.77001 16.0206 8.11001 15.6806 8.52001 15.6806H8.81001C9.22001 15.6806 9.56001 16.0206 9.56001 16.4306C9.56001 16.8406 9.22001 17.1806 8.81001 17.1806ZM16.8928 4.38212C16.7728 4.34667 16.6552 4.43627 16.6373 4.56011C16.4645 5.75625 15.4285 6.68056 14.19 6.68056H9.81001C8.57162 6.68056 7.52688 5.75639 7.35287 4.56039C7.33484 4.43647 7.21708 4.34685 7.09705 4.38253C5.34572 4.90305 4.07001 6.53496 4.07001 8.46056V17.3606C4.07001 19.7006 5.97001 21.6106 8.32001 21.6106H15.68C18.03 21.6106 19.93 19.7006 19.93 17.3606V8.46056C19.93 6.53445 18.6536 4.90219 16.8928 4.38212Z" fill="black"/>
<path fill-rule="evenodd" clip-rule="evenodd" d="M9.80679 5.48062H14.1868C14.8668 5.48062 15.4268 4.94062 15.4468 4.26063C15.4568 4.24063 15.4568 4.22062 15.4568 4.20062V3.66062C15.4568 2.96062 14.8868 2.39062 14.1868 2.39062H9.80679C9.10679 2.39062 8.52679 2.96062 8.52679 3.66062V4.20062C8.52679 4.22062 8.52679 4.23063 8.53679 4.25063C8.55679 4.94062 9.12679 5.48062 9.80679 5.48062Z" fill="black"/>
</svg>