<svg width="24" height="24" viewBox="0 0 24 24" fill="none" xmlns="http://www.w3.org/2000/svg">
<path fill-rule="evenodd" clip-rule="evenodd" d="M14.64 15.0606L12.53 17.1806C12.39 17.3206 12.21 17.4006 12 17.4006C11.77 17.4006 11.57 17.3006 11.44 17.1506L9.36001 15.0606C9.07001 14.7706 9.07001 14.2906 9.36001 14.0006C9.65001 13.7106 10.13 13.7106 10.42 14.0006L11.25 14.8306V11.2206C11.25 10.8006 11.58 10.4706 12 10.4706C12.41 10.4706 12.75 10.8006 12.75 11.2206V14.8406L13.58 14.0006C13.87 13.7106 14.35 13.7106 14.64 14.0006C14.93 14.2906 14.93 14.7706 14.64 15.0606ZM16.8928 4.38212C16.7728 4.34667 16.6552 4.43627 16.6373 4.56011C16.4645 5.75625 15.4285 6.68056 14.19 6.68056H9.81001C8.57162 6.68056 7.52688 5.75639 7.35287 4.56039C7.33484 4.43647 7.21708 4.34685 7.09705 4.38253C5.34572 4.90305 4.07001 6.53496 4.07001 8.46056V17.3606C4.07001 19.7006 5.97001 21.6106 8.32001 21.6106H15.68C18.03 21.6106 19.93 19.7006 19.93 17.3606V8.46056C19.93 6.53445 18.6536 4.90219 16.8928 4.38212Z" fill="black"/>
<path fill-rule="evenodd" clip-rule="evenodd" d="M9.80936 5.48062H14.1894C14.8694 5.48062 15.4294 4.94062 15.4494 4.26063C15.4594 4.24063 15.4594 4.22062 15.4594 4.20062V3.66062C15.4594 2.96062 14.8894 2.39062 14.1894 2.39062H9.80936C9.10936 2.39062 8.52936 2.96062 8.52936 3.66062V4.20062C8.52936 4.22062 8.52936 4.23063 8.53936 4.25063C8.55936 4.94062 9.12936 5.48062 9.80936 5.48062Z" fill="black"/>
</svg>