<svg width="25" height="24" viewBox="0 0 25 24" fill="none" xmlns="http://www.w3.org/2000/svg">
<g opacity="0.4">
<path fill-rule="evenodd" clip-rule="evenodd" d="M5.50528 7.62849C5.81228 7.62849 6.11528 7.48749 6.31128 7.22149C6.68428 6.71649 7.11828 6.25249 7.60328 5.84249C8.02528 5.48549 8.07728 4.85449 7.72128 4.43349C7.36428 4.01149 6.73328 3.95849 6.31228 4.31549C5.70828 4.82549 5.16628 5.40449 4.70128 6.03549C4.37328 6.48049 4.46828 7.10649 4.91328 7.4335C5.09128 7.5655 5.29928 7.62849 5.50528 7.62849Z" fill="black"/>
<path fill-rule="evenodd" clip-rule="evenodd" d="M17.6737 18.3013C16.4177 19.2833 14.9187 19.8613 13.3347 19.9723C12.5477 20.0333 11.7567 19.9763 10.9867 19.8033C10.4507 19.6823 9.91271 20.0213 9.79171 20.5603C9.67071 21.0993 10.0097 21.6343 10.5487 21.7553C11.2637 21.9153 11.9927 21.9963 12.7217 21.9963C12.9747 21.9963 13.2287 21.9863 13.4817 21.9673C15.4577 21.8273 17.3337 21.1053 18.9047 19.8773C19.3407 19.5373 19.4177 18.9083 19.0777 18.4733C18.7367 18.0383 18.1087 17.9623 17.6737 18.3013Z" fill="black"/>
<path fill-rule="evenodd" clip-rule="evenodd" d="M5.37688 15.1761C5.15388 14.6711 4.56388 14.4431 4.05888 14.6631C3.55288 14.8861 3.32388 15.4761 3.54588 15.9821C4.29088 17.6731 5.48788 19.1251 7.01088 20.1811C7.18488 20.3011 7.38288 20.3591 7.57988 20.3591C7.89688 20.3591 8.20788 20.2091 8.40188 19.9291C8.71688 19.4751 8.60488 18.8521 8.14988 18.5371C6.93188 17.6921 5.97288 16.5301 5.37688 15.1761Z" fill="black"/>
<path fill-rule="evenodd" clip-rule="evenodd" d="M3.83145 13.576C4.38245 13.535 4.79545 13.055 4.75445 12.505C4.68745 11.608 4.77745 10.702 5.02045 9.813C5.16645 9.281 4.85245 8.73 4.32045 8.585C3.78645 8.436 3.23745 8.752 3.09145 9.285C2.78845 10.395 2.67645 11.528 2.76045 12.653C2.79945 13.179 3.23745 13.579 3.75645 13.579C3.78145 13.579 3.80645 13.578 3.83145 13.576Z" fill="black"/>
<path fill-rule="evenodd" clip-rule="evenodd" d="M12.331 2.00986C11.779 2.03086 11.349 2.49586 11.37 3.04786C11.392 3.59986 11.87 4.03086 12.407 4.00886C16.815 3.82486 20.549 7.28986 20.718 11.6979C20.779 13.2839 20.366 14.8379 19.523 16.1909C19.232 16.6599 19.375 17.2769 19.844 17.5689C20.009 17.6709 20.191 17.7189 20.372 17.7189C20.706 17.7189 21.032 17.5519 21.222 17.2479C22.276 15.5539 22.792 13.6089 22.716 11.6209C22.505 6.11086 17.858 1.81786 12.331 2.00986Z" fill="black"/>
</g>
<path fill-rule="evenodd" clip-rule="evenodd" d="M12.6694 7.62866C12.1174 7.62866 11.6694 8.07666 11.6694 8.62866V12.2387C11.6694 12.5907 11.8544 12.9177 12.1564 13.0977L14.9544 14.7677C15.1154 14.8637 15.2924 14.9087 15.4664 14.9087C15.8064 14.9087 16.1384 14.7347 16.3264 14.4217C16.6084 13.9467 16.4544 13.3337 15.9804 13.0497L13.6694 11.6707V8.62866C13.6694 8.07666 13.2214 7.62866 12.6694 7.62866Z" fill="black"/>
</svg>