<svg width="25" height="24" viewBox="0 0 25 24" fill="none" xmlns="http://www.w3.org/2000/svg">
<g opacity="0.4">
<path fill-rule="evenodd" clip-rule="evenodd" d="M4.58931 8.50556C4.74431 8.59356 4.91331 8.63456 5.08031 8.63456C5.42931 8.63456 5.76831 8.45256 5.95131 8.12656C6.17831 7.72656 6.45231 7.33256 6.79231 6.92456C7.14531 6.49956 7.08731 5.86856 6.66231 5.51656C6.23631 5.16356 5.60731 5.22256 5.25431 5.64656C4.83731 6.14756 4.49531 6.63756 4.21031 7.14356C3.93931 7.62456 4.10831 8.23456 4.58931 8.50556Z" fill="black"/>
<path fill-rule="evenodd" clip-rule="evenodd" d="M6.06003 16.057C5.78203 15.61 5.54403 15.112 5.37203 14.617C5.19003 14.095 4.62203 13.818 4.09903 14.001C3.57703 14.182 3.30103 14.752 3.48303 15.273C3.70303 15.907 4.00703 16.543 4.36203 17.114C4.55103 17.418 4.87803 17.585 5.21203 17.585C5.39203 17.585 5.57503 17.536 5.73903 17.434C6.20803 17.143 6.35203 16.526 6.06003 16.057Z" fill="black"/>
<path fill-rule="evenodd" clip-rule="evenodd" d="M12.8998 19.8058C12.3148 19.8208 11.7338 19.7698 11.1798 19.6488C10.8528 19.5758 10.5158 19.6718 10.2758 19.9008L10.2658 19.9108C9.86578 20.2918 9.85478 20.9198 10.2358 21.3198C10.4008 21.4928 10.6138 21.5928 10.8358 21.6198C11.4358 21.7458 12.0558 21.8088 12.6838 21.8088C12.7748 21.8088 12.8668 21.8078 12.9588 21.8048C13.5108 21.7888 13.9448 21.3278 13.9288 20.7758C13.9128 20.2238 13.4638 19.7738 12.8998 19.8058Z" fill="black"/>
<path fill-rule="evenodd" clip-rule="evenodd" d="M8.14303 5.48526C8.32303 5.48526 8.50503 5.43726 8.66903 5.33526C9.11303 5.06026 9.60103 4.82926 10.117 4.65026C10.639 4.46926 10.915 3.89926 10.734 3.37826C10.553 2.85526 9.98203 2.57826 9.46103 2.76026C8.80603 2.98826 8.18503 3.28226 7.61503 3.63526C7.14603 3.92626 7.00103 4.54226 7.29203 5.01226C7.48103 5.31726 7.80803 5.48526 8.14303 5.48526Z" fill="black"/>
<path fill-rule="evenodd" clip-rule="evenodd" d="M16.7994 18.6674C16.3084 18.9614 15.8164 19.1944 15.3384 19.3604C14.8164 19.5424 14.5404 20.1124 14.7214 20.6334C14.8644 21.0464 15.2524 21.3064 15.6664 21.3064C15.7754 21.3064 15.8854 21.2884 15.9944 21.2504C16.6014 21.0394 17.2184 20.7474 17.8264 20.3834C18.3004 20.0994 18.4544 19.4854 18.1714 19.0114C17.8874 18.5384 17.2754 18.3844 16.7994 18.6674Z" fill="black"/>
<path fill-rule="evenodd" clip-rule="evenodd" d="M22.374 10.2355C22.278 9.71348 22.143 9.20548 21.975 8.74048C21.753 8.09248 21.457 7.46648 21.098 6.88448C20.562 6.00448 19.887 5.21348 19.099 4.54048C18.653 4.15248 18.142 3.79648 17.59 3.48748C16.668 2.95948 15.69 2.59148 14.704 2.39848C13.988 2.24148 13.244 2.17248 12.495 2.19548C11.943 2.21248 11.509 2.67348 11.525 3.22548C11.542 3.77748 11.993 4.22348 12.555 4.19448C13.139 4.17748 13.719 4.22948 14.297 4.35648C15.09 4.51148 15.863 4.80348 16.604 5.22848C17.046 5.47448 17.444 5.75148 17.794 6.05548C18.427 6.59648 18.964 7.22548 19.393 7.92948C19.681 8.39648 19.907 8.87348 20.088 9.40348C20.224 9.77948 20.331 10.1805 20.406 10.5945C20.481 11.0055 20.523 11.4155 20.532 11.8245C20.549 12.4155 20.498 12.9775 20.375 13.5425C20.368 13.5745 20.363 13.6075 20.359 13.6405C20.202 14.4065 19.915 15.1505 19.491 15.8775C19.269 16.2875 18.987 16.6925 18.677 17.0475C18.313 17.4645 18.356 18.0955 18.772 18.4585C18.962 18.6245 19.196 18.7055 19.43 18.7055C19.708 18.7055 19.986 18.5895 20.184 18.3625C20.595 17.8915 20.953 17.3765 21.234 16.8585C21.768 15.9425 22.138 14.9655 22.335 13.9575C22.34 13.9345 22.343 13.9115 22.346 13.8875C22.492 13.1885 22.552 12.4935 22.531 11.7755C22.521 11.2685 22.468 10.7505 22.374 10.2355Z" fill="black"/>
<path fill-rule="evenodd" clip-rule="evenodd" d="M8.84226 18.759C8.41726 18.525 8.02526 18.253 7.67626 17.95C7.25926 17.588 6.62826 17.633 6.26626 18.05C5.90426 18.466 5.94826 19.098 6.36526 19.46C6.82026 19.855 7.32826 20.209 7.87826 20.511C8.03126 20.595 8.19626 20.635 8.35926 20.635C8.71226 20.635 9.05426 20.448 9.23626 20.117C9.50326 19.633 9.32626 19.025 8.84226 18.759Z" fill="black"/>
<path fill-rule="evenodd" clip-rule="evenodd" d="M3.95451 13.2047C4.50651 13.1887 4.94051 12.7277 4.92451 12.1757C4.90751 11.5767 4.95851 10.9947 5.07751 10.4467C5.19451 9.9077 4.85151 9.3747 4.31151 9.2577C3.77451 9.1417 3.24051 9.4837 3.12251 10.0227C2.96951 10.7287 2.90351 11.4727 2.92551 12.2347C2.94151 12.7767 3.38651 13.2047 3.92451 13.2047C3.93451 13.2047 3.94451 13.2047 3.95451 13.2047Z" fill="black"/>
</g>
<path fill-rule="evenodd" clip-rule="evenodd" d="M14.7413 15.6085C14.9203 15.7415 15.1293 15.8055 15.3363 15.8055C15.6423 15.8055 15.9443 15.6655 16.1403 15.4005C16.4693 14.9575 16.3763 14.3315 15.9323 14.0025L13.4243 12.1415V8.63452C13.4243 8.08252 12.9763 7.63452 12.4243 7.63452C11.8723 7.63452 11.4243 8.08252 11.4243 8.63452V12.6455C11.4243 12.9615 11.5743 13.2595 11.8283 13.4485L14.7413 15.6085Z" fill="black"/>
</svg>