<svg width="25" height="24" viewBox="0 0 25 24" fill="none" xmlns="http://www.w3.org/2000/svg">
<path fill-rule="evenodd" clip-rule="evenodd" d="M12.0992 7.62866C11.5472 7.62866 11.0992 8.07666 11.0992 8.62866V12.2387C11.0992 12.5907 11.2842 12.9177 11.5862 13.0977L14.3842 14.7677C14.5452 14.8637 14.7222 14.9087 14.8962 14.9087C15.2362 14.9087 15.5682 14.7347 15.7562 14.4217C16.0382 13.9467 15.8842 13.3337 15.4102 13.0497L13.0992 11.6707V8.62866C13.0992 8.07666 12.6512 7.62866 12.0992 7.62866Z" fill="black"/>
<path fill-rule="evenodd" clip-rule="evenodd" d="M4.93509 7.62849C5.24209 7.62849 5.54509 7.48749 5.74109 7.22149C6.11409 6.71649 6.54809 6.25249 7.03309 5.84249C7.45509 5.48549 7.50709 4.85449 7.15109 4.43349C6.79409 4.01149 6.16309 3.95849 5.74209 4.31549C5.13809 4.82549 4.59609 5.40449 4.13109 6.03549C3.80309 6.48049 3.89809 7.10649 4.34309 7.4335C4.52109 7.5655 4.72909 7.62849 4.93509 7.62849Z" fill="black"/>
<path fill-rule="evenodd" clip-rule="evenodd" d="M17.1035 18.3013C15.8475 19.2833 14.3485 19.8613 12.7645 19.9723C11.9775 20.0333 11.1865 19.9763 10.4165 19.8033C9.88052 19.6823 9.34252 20.0213 9.22152 20.5603C9.10052 21.0993 9.43952 21.6343 9.97852 21.7553C10.6935 21.9153 11.4225 21.9963 12.1515 21.9963C12.4045 21.9963 12.6585 21.9863 12.9115 21.9673C14.8875 21.8273 16.7635 21.1053 18.3345 19.8773C18.7705 19.5373 18.8475 18.9083 18.5075 18.4733C18.1665 18.0383 17.5385 17.9623 17.1035 18.3013Z" fill="black"/>
<path fill-rule="evenodd" clip-rule="evenodd" d="M4.80669 15.1761C4.58369 14.6711 3.99369 14.4431 3.48869 14.6631C2.98269 14.8861 2.75369 15.4761 2.97569 15.9821C3.72069 17.6731 4.91769 19.1251 6.44069 20.1811C6.61469 20.3011 6.81269 20.3591 7.00969 20.3591C7.32669 20.3591 7.63769 20.2091 7.83169 19.9291C8.14669 19.4751 8.03469 18.8521 7.57969 18.5371C6.36169 17.6921 5.40269 16.5301 4.80669 15.1761Z" fill="black"/>
<path fill-rule="evenodd" clip-rule="evenodd" d="M3.26126 13.576C3.81226 13.535 4.22526 13.055 4.18426 12.505C4.11726 11.608 4.20726 10.702 4.45026 9.813C4.59626 9.281 4.28226 8.73 3.75026 8.585C3.21626 8.436 2.66726 8.752 2.52126 9.285C2.21826 10.395 2.10626 11.528 2.19026 12.653C2.22926 13.179 2.66726 13.579 3.18626 13.579C3.21126 13.579 3.23626 13.578 3.26126 13.576Z" fill="black"/>
<path fill-rule="evenodd" clip-rule="evenodd" d="M11.7608 2.00986C11.2088 2.03086 10.7788 2.49586 10.7998 3.04786C10.8218 3.59986 11.2998 4.03086 11.8368 4.00886C16.2448 3.82486 19.9788 7.28986 20.1478 11.6979C20.2088 13.2839 19.7958 14.8379 18.9528 16.1909C18.6618 16.6599 18.8048 17.2769 19.2738 17.5689C19.4388 17.6709 19.6208 17.7189 19.8018 17.7189C20.1358 17.7189 20.4618 17.5519 20.6518 17.2479C21.7058 15.5539 22.2218 13.6089 22.1458 11.6209C21.9348 6.11086 17.2878 1.81786 11.7608 2.00986Z" fill="black"/>
</svg>