<svg width="25" height="24" viewBox="0 0 25 24" fill="none" xmlns="http://www.w3.org/2000/svg">
<path d="M15.1466 14.6648C15.0114 14.6649 14.8787 14.6283 14.7626 14.5588L11.9626 12.8878C11.8512 12.8214 11.7589 12.727 11.6949 12.6141C11.6309 12.5012 11.5974 12.3736 11.5977 12.2438V8.63281C11.5977 8.4339 11.6767 8.24315 11.8173 8.10249C11.958 7.96184 12.1487 7.88281 12.3477 7.88281C12.5466 7.88281 12.7373 7.96184 12.878 8.10249C13.0186 8.24315 13.0977 8.4339 13.0977 8.63281V11.8178L15.5296 13.2708C15.6706 13.355 15.7802 13.4831 15.8413 13.6355C15.9025 13.7879 15.9119 13.9562 15.8682 14.1145C15.8245 14.2728 15.73 14.4123 15.5993 14.5118C15.4686 14.6112 15.3089 14.6649 15.1447 14.6648H15.1466Z" fill="black"/>
<path d="M5.18697 7.38323C5.0487 7.38241 4.91333 7.34338 4.79585 7.27046C4.67838 7.19753 4.58334 7.09355 4.52126 6.96999C4.45917 6.84644 4.43245 6.70814 4.44405 6.57035C4.45564 6.43257 4.5051 6.30067 4.58696 6.18923C5.04322 5.56887 5.57122 5.00462 6.15996 4.50823C6.23477 4.44162 6.32218 4.39066 6.41701 4.35838C6.51184 4.32609 6.61217 4.31313 6.71208 4.32026C6.812 4.32739 6.90948 4.35445 6.99877 4.39987C7.08805 4.44528 7.16732 4.50812 7.23192 4.58468C7.29652 4.66124 7.34515 4.74997 7.3749 4.84562C7.40464 4.94127 7.41492 5.04192 7.40514 5.14161C7.39535 5.2413 7.3657 5.33802 7.31792 5.42606C7.27014 5.51411 7.20522 5.59169 7.12697 5.65423C6.62931 6.07402 6.18318 6.55135 5.79796 7.07623C5.72768 7.1721 5.63566 7.24994 5.52944 7.30331C5.42322 7.35668 5.30584 7.38407 5.18697 7.38323Z" fill="black"/>
<path d="M12.4197 21.7494C11.7016 21.749 10.9857 21.6702 10.2847 21.5144C10.0904 21.4712 9.92129 21.3526 9.81449 21.1846C9.70768 21.0167 9.67195 20.8132 9.71518 20.6189C9.75841 20.4246 9.87705 20.2555 10.045 20.1487C10.2129 20.0419 10.4164 20.0062 10.6107 20.0494C11.8041 20.3173 13.042 20.3169 14.2352 20.0484C15.4284 19.7798 16.5472 19.2497 17.5107 18.4964C17.6673 18.3754 17.8654 18.3211 18.0619 18.3456C18.2583 18.37 18.4371 18.4711 18.5593 18.6268C18.6815 18.7826 18.7372 18.9803 18.7142 19.1769C18.6913 19.3735 18.5915 19.5531 18.4367 19.6764C16.9175 20.8686 15.0775 21.5809 13.1517 21.7224C12.9097 21.7404 12.6657 21.7494 12.4197 21.7494Z" fill="black"/>
<path d="M7.25951 20.1106C7.10728 20.1107 6.95865 20.0643 6.83352 19.9776C5.35075 18.9486 4.18135 17.5297 3.45452 15.8776C3.37416 15.6955 3.36942 15.489 3.44134 15.3034C3.51326 15.1179 3.65596 14.9685 3.83803 14.8881C4.02011 14.8078 4.22662 14.803 4.41219 14.8749C4.59776 14.9469 4.74718 15.0895 4.82754 15.2716C5.4423 16.6701 6.43217 17.8711 7.68752 18.7416C7.81874 18.8327 7.91742 18.9634 7.9692 19.1145C8.02098 19.2657 8.02313 19.4294 7.97536 19.5819C7.9276 19.7343 7.8324 19.8675 7.70363 19.9621C7.57487 20.0567 7.41927 20.1076 7.25951 20.1076V20.1106Z" fill="black"/>
<path d="M3.43662 13.3296C3.24659 13.3293 3.06377 13.2568 2.92511 13.1269C2.78645 12.9969 2.7023 12.8192 2.68964 12.6296C2.60922 11.5238 2.71878 10.4124 3.01361 9.3436C3.06665 9.15172 3.19375 8.98877 3.36694 8.8906C3.54013 8.79242 3.74525 8.76706 3.93713 8.8201C4.12902 8.87315 4.29196 9.00025 4.39014 9.17344C4.48831 9.34663 4.51368 9.55173 4.46063 9.74361C4.21063 10.6477 4.11759 11.588 4.18561 12.5236C4.19909 12.7216 4.1337 12.9169 4.00366 13.0668C3.87362 13.2167 3.68954 13.309 3.49164 13.3236L3.43662 13.3296Z" fill="black"/>
<path d="M20.0504 17.4731C19.9111 17.4733 19.7745 17.4342 19.6564 17.3601C19.4874 17.2554 19.3669 17.0879 19.3213 16.8944C19.2757 16.7009 19.3088 16.4972 19.4134 16.3281C20.1994 15.0558 20.6245 13.5937 20.6433 12.0983C20.6621 10.6029 20.2738 9.13059 19.52 7.83896C18.7662 6.54733 17.6753 5.48503 16.3641 4.76582C15.0529 4.04662 13.5708 3.69758 12.0764 3.75609C11.9774 3.76277 11.878 3.74913 11.7844 3.71599C11.6908 3.68285 11.605 3.63091 11.5322 3.56338C11.4594 3.49585 11.4012 3.41415 11.3612 3.3233C11.3212 3.23245 11.3001 3.13437 11.2994 3.03509C11.2955 2.93668 11.3111 2.83848 11.3453 2.74611C11.3794 2.65374 11.4315 2.56903 11.4985 2.49684C11.5655 2.42465 11.6461 2.36639 11.7357 2.32542C11.8252 2.28445 11.922 2.26156 12.0204 2.25809C13.7876 2.18602 15.541 2.59676 17.0924 3.44618C18.6437 4.2956 19.9343 5.55162 20.8256 7.0793C21.7169 8.60698 22.1752 10.3486 22.1512 12.1171C22.1272 13.8856 21.6218 15.6142 20.6894 17.1171C20.6221 17.226 20.5281 17.316 20.4163 17.3783C20.3044 17.4406 20.1785 17.4732 20.0504 17.4731Z" fill="black"/>
</svg>