<svg width="25" height="24" viewBox="0 0 25 24" fill="none" xmlns="http://www.w3.org/2000/svg">
<path fill-rule="evenodd" clip-rule="evenodd" d="M12.2988 7.69531C12.713 7.69531 13.0488 8.0311 13.0488 8.44531V12.0762L15.657 14.004C15.9901 14.2502 16.0605 14.7198 15.8143 15.0529C15.5681 15.386 15.0985 15.4564 14.7654 15.2102L11.853 13.0576C11.6617 12.9162 11.5488 12.6924 11.5488 12.4545V8.44531C11.5488 8.0311 11.8846 7.69531 12.2988 7.69531Z" fill="black"/>
<path fill-rule="evenodd" clip-rule="evenodd" d="M6.37934 5.51962C6.69644 5.78612 6.73745 6.25922 6.47095 6.57631C6.1416 6.96819 5.8535 7.3764 5.60582 7.80832C5.39977 8.16764 4.94144 8.2919 4.58211 8.08585C4.22279 7.87979 4.09854 7.42146 4.30459 7.06214C4.59959 6.5477 4.93986 6.06668 5.32265 5.61122C5.58915 5.29413 6.06225 5.25311 6.37934 5.51962Z" fill="black"/>
<path fill-rule="evenodd" clip-rule="evenodd" d="M4.05621 14.0393C4.44774 13.9041 4.87473 14.1119 5.00992 14.5035C5.19193 15.0306 5.43865 15.5351 5.72467 16.0036C5.94051 16.3571 5.82887 16.8187 5.47533 17.0345C5.12179 17.2503 4.66023 17.1387 4.4444 16.7852C4.10967 16.2369 3.81371 15.635 3.59205 14.993C3.45687 14.6015 3.66468 14.1745 4.05621 14.0393Z" fill="black"/>
<path fill-rule="evenodd" clip-rule="evenodd" d="M10.7641 19.6873C10.8417 19.6796 10.92 19.6839 10.9963 19.7003C11.5722 19.8241 12.173 19.8766 12.7824 19.86C13.1965 19.8487 13.5413 20.1753 13.5525 20.5893C13.5638 21.0034 13.2372 21.3482 12.8232 21.3594C12.1222 21.3785 11.4221 21.3207 10.7411 21.1795C10.3989 21.1394 10.1186 20.8661 10.0829 20.5092C10.0417 20.097 10.3424 19.7295 10.7545 19.6883L10.7641 19.6873Z" fill="black"/>
<path fill-rule="evenodd" clip-rule="evenodd" d="M10.3713 3.26208C10.5072 3.65339 10.3 4.08072 9.90874 4.21655C9.38371 4.39879 8.87917 4.63786 8.41175 4.92849C8.05998 5.1472 7.59752 5.03935 7.37881 4.68759C7.16009 4.33582 7.26795 3.87336 7.61971 3.65465C8.18432 3.30359 8.78989 3.01711 9.41687 2.79949C9.80818 2.66366 10.2355 2.87077 10.3713 3.26208Z" fill="black"/>
<path fill-rule="evenodd" clip-rule="evenodd" d="M17.8286 18.9371C18.0425 19.2918 17.9283 19.7527 17.5736 19.9666C17.0188 20.3011 16.4184 20.5966 15.7852 20.8164C15.3939 20.9522 14.9666 20.7451 14.8307 20.3538C14.6949 19.9625 14.902 19.5352 15.2933 19.3994C15.8121 19.2193 16.318 18.9721 16.7991 18.682C17.1538 18.4682 17.6147 18.5823 17.8286 18.9371Z" fill="black"/>
<path fill-rule="evenodd" clip-rule="evenodd" d="M14.2039 3.91364C13.628 3.789 13.0279 3.73582 12.4199 3.75321C12.0058 3.76506 11.6606 3.43902 11.6488 3.02497C11.6369 2.61093 11.9629 2.26567 12.377 2.25383C13.0975 2.23321 13.8163 2.29568 14.5139 2.446C15.513 2.64234 16.4685 3.00798 17.3366 3.51136C17.8567 3.8021 18.3505 4.14125 18.8043 4.5331C19.5646 5.17856 20.2275 5.94637 20.7571 6.82037C21.1069 7.38359 21.3912 7.98702 21.6099 8.62049C21.7785 9.0918 21.9083 9.57808 22.0007 10.0806L22.001 10.0818C22.0923 10.5826 22.1442 11.0841 22.1538 11.5849C22.1755 12.2959 22.1138 12.9762 21.9735 13.6494C21.9712 13.6706 21.968 13.6918 21.9639 13.7128C21.7677 14.7144 21.3997 15.6623 20.8976 16.529C20.6095 17.0593 20.2587 17.5541 19.8717 18.0028C19.6012 18.3165 19.1277 18.3515 18.814 18.081C18.5003 17.8105 18.4653 17.3369 18.7358 17.0232C19.0624 16.6445 19.3514 16.2344 19.584 15.8049C19.5875 15.7983 19.5912 15.7918 19.5949 15.7854C20.0106 15.0695 20.3137 14.2957 20.4796 13.4859C20.4824 13.4572 20.4869 13.4287 20.493 13.4004C20.6182 12.8216 20.6734 12.2401 20.6544 11.6268L20.6541 11.6175L20.6542 11.6175C20.6464 11.2004 20.6032 10.7783 20.5254 10.3517C20.4468 9.92476 20.3372 9.51576 20.1962 9.12214L20.1932 9.11364L20.1932 9.11362C20.009 8.57904 19.7709 8.07509 19.4809 7.60862L19.4761 7.60096L19.4762 7.60093C19.0318 6.86666 18.474 6.21988 17.8313 5.67478L17.826 5.67026L17.826 5.67024C17.4538 5.34851 17.0422 5.0649 16.6 4.81802L16.5888 4.81179L16.5888 4.8117C15.8573 4.38685 15.0541 4.08012 14.2185 3.91665L14.2039 3.91364Z" fill="black"/>
<path fill-rule="evenodd" clip-rule="evenodd" d="M6.32649 18.022C6.59694 17.7083 7.07052 17.6732 7.38425 17.9437C7.7582 18.266 8.16892 18.5501 8.59777 18.7879C8.96003 18.9887 9.09088 19.4452 8.89003 19.8075C8.68918 20.1697 8.23269 20.3006 7.87043 20.0997C7.35483 19.8139 6.85919 19.4715 6.40484 19.0798C6.09111 18.8093 6.05603 18.3358 6.32649 18.022Z" fill="black"/>
<path fill-rule="evenodd" clip-rule="evenodd" d="M4.13154 9.30401C4.5365 9.39105 4.79423 9.78989 4.7072 10.1949C4.58336 10.771 4.53014 11.3713 4.54843 11.9887C4.56069 12.4027 4.235 12.7483 3.82096 12.7606C3.40693 12.7728 3.06135 12.4471 3.04909 12.0331C3.02739 11.3005 3.09032 10.5793 3.24068 9.87967C3.32772 9.4747 3.72657 9.21697 4.13154 9.30401Z" fill="black"/>
</svg>