<svg width="25" height="24" viewBox="0 0 25 24" fill="none" xmlns="http://www.w3.org/2000/svg">
<path fill-rule="evenodd" clip-rule="evenodd" d="M2.6582 12C2.6582 6.61487 7.02307 2.25 12.4082 2.25C17.7933 2.25 22.1582 6.61487 22.1582 12C22.1582 12.4142 21.8224 12.75 21.4082 12.75C20.994 12.75 20.6582 12.4142 20.6582 12C20.6582 7.44329 16.9649 3.75 12.4082 3.75C7.8515 3.75 4.1582 7.44329 4.1582 12C4.1582 16.5558 7.85155 20.25 12.4082 20.25C12.8224 20.25 13.1582 20.5858 13.1582 21C13.1582 21.4142 12.8224 21.75 12.4082 21.75C7.02302 21.75 2.6582 17.3841 2.6582 12Z" fill="black"/>
<path fill-rule="evenodd" clip-rule="evenodd" d="M15.706 15.1845C15.9989 14.8916 16.4738 14.8916 16.7667 15.1845L20.859 19.2768C21.1519 19.5697 21.1519 20.0446 20.859 20.3375C20.5661 20.6304 20.0912 20.6304 19.7983 20.3375L15.706 16.2452C15.4131 15.9523 15.4131 15.4774 15.706 15.1845Z" fill="black"/>
<path fill-rule="evenodd" clip-rule="evenodd" d="M20.859 15.1845C21.1519 15.4774 21.1519 15.9523 20.859 16.2452L16.7667 20.3375C16.4738 20.6304 15.9989 20.6304 15.706 20.3375C15.4131 20.0446 15.4131 19.5697 15.706 19.2768L19.7983 15.1845C20.0912 14.8916 20.5661 14.8916 20.859 15.1845Z" fill="black"/>
<path fill-rule="evenodd" clip-rule="evenodd" d="M12.7374 7.83789C13.1516 7.83789 13.4874 8.17368 13.4874 8.58789V12.6861C13.4874 12.9499 13.3488 13.1944 13.1223 13.3298L9.9475 15.228C9.59199 15.4406 9.13147 15.3247 8.9189 14.9692C8.70634 14.6137 8.82222 14.1532 9.17773 13.9406L11.9874 12.2607V8.58789C11.9874 8.17368 12.3232 7.83789 12.7374 7.83789Z" fill="black"/>
</svg>