<svg width="25" height="24" viewBox="0 0 25 24" fill="none" xmlns="http://www.w3.org/2000/svg">
<path fill-rule="evenodd" clip-rule="evenodd" d="M2.6582 12C2.6582 6.61487 7.02307 2.25 12.4082 2.25C17.7933 2.25 22.1582 6.61487 22.1582 12C22.1582 12.4142 21.8224 12.75 21.4082 12.75C20.994 12.75 20.6582 12.4142 20.6582 12C20.6582 7.44329 16.9649 3.75 12.4082 3.75C7.8515 3.75 4.1582 7.44329 4.1582 12C4.1582 16.5558 7.85155 20.25 12.4082 20.25C12.8224 20.25 13.1582 20.5858 13.1582 21C13.1582 21.4142 12.8224 21.75 12.4082 21.75C7.02302 21.75 2.6582 17.3841 2.6582 12Z" fill="black"/>
<path fill-rule="evenodd" clip-rule="evenodd" d="M12.7374 7.82617C13.1516 7.82617 13.4874 8.16196 13.4874 8.57617V12.6743C13.4874 12.9383 13.3487 13.1827 13.1222 13.3181L9.94735 15.2154C9.59179 15.4279 9.1313 15.3119 8.91882 14.9564C8.70633 14.6008 8.82232 14.1403 9.17787 13.9278L11.9874 12.2488V8.57617C11.9874 8.16196 12.3232 7.82617 12.7374 7.82617Z" fill="black"/>
<path fill-rule="evenodd" clip-rule="evenodd" d="M18.2812 14.1172C18.6955 14.1172 19.0312 14.453 19.0312 14.8672V20.6544C19.0312 21.0686 18.6955 21.4044 18.2812 21.4044C17.867 21.4044 17.5312 21.0686 17.5312 20.6544V14.8672C17.5312 14.453 17.867 14.1172 18.2812 14.1172Z" fill="black"/>
<path fill-rule="evenodd" clip-rule="evenodd" d="M14.6367 17.7598C14.6367 17.3456 14.9725 17.0098 15.3867 17.0098H21.174C21.5882 17.0098 21.924 17.3456 21.924 17.7598C21.924 18.174 21.5882 18.5098 21.174 18.5098H15.3867C14.9725 18.5098 14.6367 18.174 14.6367 17.7598Z" fill="black"/>
</svg>