<svg width="25" height="24" viewBox="0 0 25 24" fill="none" xmlns="http://www.w3.org/2000/svg">
<path fill-rule="evenodd" clip-rule="evenodd" d="M21.2572 13.4442C20.7242 13.2972 20.1742 13.6102 20.0272 14.1422C19.3282 16.6732 17.4242 18.6952 14.9302 19.5532C12.9112 20.2532 10.7432 20.1232 8.82421 19.1892C6.90321 18.2542 5.46321 16.6252 4.76821 14.6012C4.07021 12.5862 4.20121 10.4192 5.13621 8.49922C6.07021 6.58022 7.69521 5.13922 9.71321 4.44322C12.7582 3.38422 16.0682 4.28222 18.1882 6.56822H17.1202C16.5682 6.56822 16.1202 7.01622 16.1202 7.56822C16.1202 8.12022 16.5682 8.56822 17.1202 8.56822H20.4012C20.9532 8.56822 21.4012 8.12022 21.4012 7.56822V4.26822C21.4012 3.71522 20.9532 3.26822 20.4012 3.26822C19.8492 3.26822 19.4012 3.71522 19.4012 4.26822V4.93722C16.7472 2.27922 12.7452 1.27422 9.05821 2.55222C6.53721 3.42322 4.50621 5.22422 3.33821 7.62422C2.16921 10.0252 2.00621 12.7352 2.87721 15.2532C3.74521 17.7812 5.54721 19.8182 7.94821 20.9872C9.33021 21.6602 10.8152 21.9992 12.3072 21.9992C13.4082 21.9992 14.5132 21.8152 15.5832 21.4442C18.6982 20.3722 21.0802 17.8412 21.9552 14.6742C22.1022 14.1422 21.7892 13.5912 21.2572 13.4442Z" fill="black"/>
<path fill-rule="evenodd" clip-rule="evenodd" d="M11.9779 7.56836C11.4259 7.56836 10.9779 8.01636 10.9779 8.56836V12.6684C10.9779 13.0194 11.1629 13.3454 11.4639 13.5264L14.6389 15.4264C14.7999 15.5224 14.9769 15.5684 15.1509 15.5684C15.4909 15.5684 15.8229 15.3954 16.0099 15.0824C16.2939 14.6084 16.1399 13.9944 15.6659 13.7104L12.9779 12.1014V8.56836C12.9779 8.01636 12.5299 7.56836 11.9779 7.56836Z" fill="black"/>
</svg>