<svg width="24" height="24" viewBox="0 0 24 24" fill="none" xmlns="http://www.w3.org/2000/svg">
<path opacity="0.4" fill-rule="evenodd" clip-rule="evenodd" d="M16.217 2.5H7.782C4.622 2.5 2.5 4.72 2.5 8.026V15.974C2.5 19.279 4.622 21.5 7.782 21.5H16.216C19.376 21.5 21.5 19.279 21.5 15.974V8.026C21.5 4.72 19.377 2.5 16.217 2.5Z" fill="black"/>
<path fill-rule="evenodd" clip-rule="evenodd" d="M14.8641 14.858C14.7181 15.004 14.5261 15.078 14.3341 15.078C14.1421 15.078 13.9501 15.004 13.8031 14.858L11.9971 13.051L10.1961 14.853C9.90306 15.146 9.42806 15.146 9.13506 14.853C8.84306 14.56 8.84306 14.086 9.13506 13.793L10.9361 11.991L9.13406 10.188C8.84106 9.89495 8.84106 9.42095 9.13406 9.12795C9.42706 8.83495 9.90106 8.83495 10.1941 9.12795L11.9971 10.93L13.7981 9.12895C14.0911 8.83695 14.5651 8.83695 14.8581 9.12895C15.1511 9.42195 15.1511 9.89695 14.8581 10.19L13.0581 11.991L14.8641 13.797C15.1571 14.09 15.1571 14.565 14.8641 14.858Z" fill="black"/>
</svg>