<svg width="24" height="24" viewBox="0 0 24 24" fill="none" xmlns="http://www.w3.org/2000/svg">
<path fill-rule="evenodd" clip-rule="evenodd" d="M10.2633 4.27951C10.2633 3.15889 11.1722 2.25 12.2928 2.25C13.414 2.25 14.3233 3.15852 14.3233 4.27951C14.3233 4.52808 14.2787 4.76609 14.197 4.98603L17.2365 8.21126C18.324 8.28086 19.2565 8.70848 19.9313 9.43312C20.6656 10.2216 21.0392 11.3012 21.0392 12.4939V17.4573C21.0392 18.6504 20.6656 19.7301 19.9311 20.5185C19.1909 21.313 18.141 21.75 16.9167 21.75H7.08146C5.8575 21.75 4.80801 21.3129 4.06826 20.5183C3.33414 19.7299 2.96094 18.6503 2.96094 17.4573V12.4939C2.96094 11.3004 3.33617 10.221 4.07072 9.43289C4.81072 8.63892 5.85981 8.20116 7.08146 8.20116H7.35208L10.3897 4.98646C10.308 4.76638 10.2633 4.52822 10.2633 4.27951ZM11.9213 4.65704C11.9017 4.63019 11.8801 4.60438 11.8565 4.5798C11.7977 4.49451 11.7633 4.39108 11.7633 4.27951C11.7633 3.98732 12.0006 3.75 12.2928 3.75C12.5864 3.75 12.8233 3.98769 12.8233 4.27951C12.8233 4.39796 12.7845 4.50733 12.7188 4.59554C12.7049 4.61075 12.6918 4.62642 12.6794 4.64247C12.5828 4.74501 12.4455 4.80903 12.2928 4.80903C12.148 4.80903 12.0169 4.75107 11.9213 4.65704ZM11.3991 6.10224L9.41581 8.20116H15.1658L13.1876 6.10199C12.9176 6.23459 12.6139 6.30903 12.2928 6.30903C11.9722 6.30903 11.6688 6.23468 11.3991 6.10224ZM5.16802 10.4556C4.73519 10.92 4.46094 11.612 4.46094 12.4939V17.4573C4.46094 18.3406 4.7343 19.0324 5.1661 19.4962C5.59227 19.9539 6.22803 20.25 7.08146 20.25H16.9167C17.7707 20.25 18.407 19.9539 18.8335 19.496C19.2656 19.0322 19.5392 18.3405 19.5392 17.4573V12.4939C19.5392 11.6112 19.2657 10.9194 18.8336 10.4554C18.4071 9.99737 17.771 9.70116 16.9177 9.70116H7.08146C6.23156 9.70116 5.59539 9.99706 5.16802 10.4556Z" fill="black"/>
<path fill-rule="evenodd" clip-rule="evenodd" d="M9.42969 12.2932C9.8439 12.2932 10.1797 12.6289 10.1797 13.0432V13.0532C10.1797 13.4674 9.8439 13.8032 9.42969 13.8032C9.01547 13.8032 8.67969 13.4674 8.67969 13.0532V13.0432C8.67969 12.6289 9.01547 12.2932 9.42969 12.2932Z" fill="black"/>
<path fill-rule="evenodd" clip-rule="evenodd" d="M14.5703 12.2932C14.9845 12.2932 15.3203 12.6289 15.3203 13.0432V13.0532C15.3203 13.4674 14.9845 13.8032 14.5703 13.8032C14.1561 13.8032 13.8203 13.4674 13.8203 13.0532V13.0432C13.8203 12.6289 14.1561 12.2932 14.5703 12.2932Z" fill="black"/>
<path fill-rule="evenodd" clip-rule="evenodd" d="M14.1401 18.0377C13.8204 18.3012 13.3477 18.2556 13.0843 17.936C12.8157 17.6101 12.4114 17.4044 11.9584 17.4044C11.5054 17.4044 11.1011 17.6101 10.8325 17.936C10.5691 18.2556 10.0964 18.3012 9.77674 18.0377C9.4571 17.7743 9.41153 17.3016 9.67497 16.982C10.2163 16.3252 11.0385 15.9044 11.9584 15.9044C12.8783 15.9044 13.7005 16.3252 14.2418 16.982C14.5053 17.3016 14.4597 17.7743 14.1401 18.0377Z" fill="black"/>
</svg>