<svg width="25" height="25" viewBox="0 0 25 25" fill="none" xmlns="http://www.w3.org/2000/svg">
<path opacity="0.4" fill-rule="evenodd" clip-rule="evenodd" d="M12.25 2.78467C5.052 2.78467 2.5 5.33667 2.5 12.5347C2.5 19.7327 5.052 22.2847 12.25 22.2847C19.449 22.2847 22 19.7327 22 12.5347C22 5.33667 19.449 2.78467 12.25 2.78467Z" fill="black"/>
<path d="M14.6504 15.6777C14.8424 15.6777 15.0344 15.6037 15.1804 15.4577C15.4734 15.1647 15.4734 14.6897 15.1804 14.3967L13.3064 12.5237L15.1694 10.6597C15.4624 10.3667 15.4624 9.89268 15.1694 9.59968C14.8764 9.30668 14.4024 9.30668 14.1094 9.59968L12.2454 11.4637L10.3794 9.59768C10.0864 9.30468 9.61236 9.30468 9.31936 9.59768C9.02636 9.89068 9.02636 10.3647 9.31936 10.6577L11.1854 12.5237L9.31936 14.3917C9.02636 14.6847 9.02636 15.1587 9.31936 15.4517C9.46536 15.5987 9.65836 15.6717 9.84936 15.6717C10.0414 15.6717 10.2334 15.5987 10.3794 15.4517L12.2464 13.5847L14.1194 15.4577C14.2664 15.6037 14.4574 15.6777 14.6504 15.6777Z" fill="black"/>
</svg>