<svg width="24" height="24" viewBox="0 0 24 24" fill="none" xmlns="http://www.w3.org/2000/svg">
<path d="M14.7542 18.4377V19.9356C14.7542 19.9934 14.7391 20.0498 14.7108 20.0998C14.6202 20.2607 14.4162 20.3174 14.2554 20.2268L12.0277 18.9685L9.77899 20.229C9.72893 20.257 9.6726 20.2717 9.61517 20.2717C9.43035 20.2717 9.28089 20.1219 9.28125 19.9375V14.7532C9.28125 13.8228 9.97375 13.4609 10.8978 13.4609H13.1365C14.0901 13.4609 14.7524 13.8482 14.7524 14.8179V15.1893" stroke="black" stroke-width="1.5" stroke-linecap="round" stroke-linejoin="round"/>
<path d="M12 3.73047C8.38346 3.73047 7.10303 6.99577 7.10303 8.62841C4.83308 8.64885 3 10.1735 3 12.7694C3 14.4487 3.99924 15.8946 5.43632 16.5435" stroke="black" stroke-width="1.5" stroke-linecap="round" stroke-linejoin="round"/>
<path d="M18.5632 16.5433C19.9993 15.8943 20.9995 14.4485 20.9995 12.7692C20.9995 10.1733 19.1694 8.63013 16.8965 8.62818C16.8965 7.55888 16.3472 5.78923 14.9521 4.69531" stroke="black" stroke-width="1.5" stroke-linecap="round" stroke-linejoin="round"/>
</svg>