<svg width="25" height="24" viewBox="0 0 25 24" fill="none" xmlns="http://www.w3.org/2000/svg">
<path d="M11.9186 15.9355C11.618 15.9355 11.2221 15.8734 10.825 15.7123C9.88106 15.2857 9.22363 14.3354 9.22363 13.2315C9.22363 11.5253 10.4291 10.5238 11.9205 10.5104C11.9205 9.43726 12.7621 7.29102 15.1392 7.29102C17.5163 7.29102 18.3586 9.43726 18.3586 10.5104C19.85 10.5238 21.0548 11.5253 21.0548 13.2315C21.0548 14.3354 20.3999 15.2889 19.456 15.7155C19.0537 15.8766 18.6566 15.9355 18.356 15.9355" stroke="black" stroke-width="1.5" stroke-linecap="round" stroke-linejoin="round"/>
<path d="M9.47467 14.7268H6.52093C6.13433 14.7268 5.62517 14.6471 5.11436 14.4398C3.90027 13.8911 3.05469 12.6688 3.05469 11.2491C3.05469 9.05452 4.6052 7.7664 6.52339 7.74913C6.52339 6.36889 7.60587 3.6084 10.6633 3.6084C13.3733 3.6084 14.5323 5.77713 14.7608 7.23118" stroke="black" stroke-width="1.5" stroke-linecap="round" stroke-linejoin="round"/>
<path d="M15.0388 15.519L13.9854 17.2818H16.2607L15.0388 19.2984" stroke="black" stroke-width="1.5" stroke-linecap="round" stroke-linejoin="round"/>
<path d="M6.42384 14.8071L5.13574 16.8618H7.41108L6.18915 18.8784" stroke="black" stroke-width="1.5" stroke-linecap="round" stroke-linejoin="round"/>
<path d="M19.2109 20.3914L20.0179 19.0596" stroke="black" stroke-width="1.5" stroke-linecap="round" stroke-linejoin="round"/>
<path d="M10.2266 20.3914L11.0335 19.0596" stroke="black" stroke-width="1.5" stroke-linecap="round" stroke-linejoin="round"/>
</svg>