<svg width="24" height="24" viewBox="0 0 24 24" fill="none" xmlns="http://www.w3.org/2000/svg">
<path fill-rule="evenodd" clip-rule="evenodd" d="M17.5153 9.00171C17.4207 8.98999 17.3453 8.91618 17.3321 8.82186C17.0376 6.71432 15.3233 4.08203 12.0011 4.08203C8.42961 4.08203 6.96104 6.9916 6.67627 8.82452C6.66182 8.91756 6.58677 8.98981 6.49332 9.00126C4.13425 9.29024 2.53711 11.0981 2.53711 13.584C2.53711 15.396 3.60511 17.05 5.27611 17.806C6.07911 18.131 6.77611 18.18 7.12011 18.18H9.1427C9.3412 18.18 9.50211 18.0191 9.50211 17.8206C9.50211 17.6067 9.31574 17.4424 9.1021 17.4324C8.50577 17.4047 7.91832 17.1691 7.46311 16.713C6.48611 15.737 6.48611 14.154 7.46311 13.178L10.2321 10.409C10.3491 10.292 10.4771 10.187 10.6151 10.095C10.6761 10.055 10.7411 10.027 10.8041 9.99203C10.8841 9.94903 10.9611 9.90103 11.0451 9.86603C11.1251 9.83303 11.2091 9.81403 11.2911 9.78903C11.3651 9.76703 11.4361 9.73903 11.5121 9.72403C11.6651 9.69303 11.8191 9.67903 11.9741 9.67703C11.9831 9.67703 11.9921 9.67403 12.0011 9.67403C12.0091 9.67403 12.0161 9.67603 12.0231 9.67703C12.1801 9.67803 12.3361 9.69303 12.4901 9.72403C12.5651 9.73903 12.6341 9.76603 12.7071 9.78803C12.7911 9.81303 12.8761 9.83203 12.9571 9.86603C13.0381 9.90003 13.1121 9.94503 13.1881 9.98703C13.2551 10.023 13.3241 10.053 13.3881 10.096C13.5111 10.178 13.6241 10.273 13.7301 10.375C13.7431 10.386 13.7571 10.394 13.7691 10.406L16.5401 13.177C17.5171 14.154 17.5171 15.736 16.5401 16.713C16.0934 17.1607 15.5124 17.4014 14.9006 17.4306C14.6872 17.4408 14.5021 17.6054 14.5021 17.819C14.5021 18.0184 14.6638 18.18 14.8632 18.18H16.8731C17.2211 18.18 17.9241 18.132 18.7481 17.802C20.3971 17.056 21.4631 15.4 21.4631 13.584C21.4631 11.101 19.87 9.29355 17.5153 9.00171Z" fill="black"/>
<path fill-rule="evenodd" clip-rule="evenodd" d="M14.7712 15.6954C14.9632 15.6954 15.1552 15.6224 15.3012 15.4754C15.5942 15.1824 15.5942 14.7084 15.3012 14.4154L12.5302 11.6444C12.4612 11.5744 12.3782 11.5204 12.2862 11.4824C12.1942 11.4444 12.0972 11.4244 11.9992 11.4244C11.9952 11.4244 11.9922 11.4264 11.9882 11.4264C11.8942 11.4284 11.8012 11.4454 11.7132 11.4824C11.6212 11.5204 11.5372 11.5754 11.4682 11.6454L8.6982 14.4154C8.4052 14.7084 8.4052 15.1824 8.6982 15.4754C8.9912 15.7684 9.4662 15.7684 9.7592 15.4754L11.2502 13.9854V19.1684C11.2502 19.5834 11.5862 19.9184 12.0002 19.9184C12.4142 19.9184 12.7502 19.5824 12.7502 19.1684V13.9854L14.2412 15.4754C14.3872 15.6224 14.5792 15.6954 14.7712 15.6954Z" fill="black"/>
</svg>