<svg width="25" height="24" viewBox="0 0 25 24" fill="none" xmlns="http://www.w3.org/2000/svg">
<path d="M10.5553 4.70898L10.5497 4.73282M5.35702 5.55782L5.36805 5.57568M3.11626 15.0336L3.13412 15.0225M2.28585 9.83923L2.24902 9.83052" stroke="black" stroke-width="1.5" stroke-linecap="round" stroke-linejoin="round"/>
<path d="M11.9464 8.49513C11.4544 8.05457 10.8485 7.72707 10.1605 7.56438C7.96092 7.04424 5.75609 8.40573 5.23613 10.6045C4.86804 12.1611 5.44227 13.7204 6.58901 14.6833" stroke="black" stroke-width="1.5" stroke-linecap="round" stroke-linejoin="round"/>
<path d="M18.6582 19.2914C19.0587 19.2914 19.5863 19.214 20.1217 18.9994C21.3794 18.4308 22.25 17.1631 22.25 15.693C22.25 13.4232 20.6471 12.0891 18.6616 12.0714C18.6616 10.6434 17.541 7.78613 14.3774 7.78613C11.2137 7.78613 10.0932 10.6434 10.0932 12.0714C8.10761 12.0891 6.50366 13.4232 6.50366 15.693C6.50366 17.1631 7.37864 18.4275 8.63525 18.9949C9.164 19.2095 9.69053 19.2914 10.0899 19.2914H14.374" stroke="black" stroke-width="1.5" stroke-linecap="round" stroke-linejoin="round"/>
</svg>