<svg width="25" height="24" viewBox="0 0 25 24" fill="none" xmlns="http://www.w3.org/2000/svg">
<path d="M11.9186 15.724C11.618 15.724 11.2221 15.662 10.825 15.5008C9.88106 15.0743 9.22363 14.1239 9.22363 13.0201C9.22363 11.3139 10.4291 10.3124 11.9205 10.299C11.9205 9.22583 12.7621 7.07959 15.1392 7.07959C17.5163 7.07959 18.3586 9.22583 18.3586 10.299C19.85 10.3124 21.0548 11.3139 21.0548 13.0201C21.0548 14.1239 20.3999 15.0775 19.456 15.504C19.0537 15.6652 18.6566 15.724 18.356 15.724" stroke="black" stroke-width="1.5" stroke-linecap="round" stroke-linejoin="round"/>
<path d="M6.52093 14.5159C6.13433 14.5159 5.62517 14.4361 5.11436 14.2288C3.90027 13.6802 3.05469 12.4579 3.05469 11.0382C3.05469 8.84358 4.6052 7.55547 6.52339 7.53819C6.52339 6.15795 7.60587 3.39746 10.6633 3.39746C13.3733 3.39746 14.5323 5.56619 14.7608 7.02024" stroke="black" stroke-width="1.5" stroke-linecap="round" stroke-linejoin="round"/>
<path d="M6.9141 20.0462C7.14109 20.382 7.52532 20.6027 7.96109 20.6027C8.65874 20.6027 9.22363 20.0373 9.22363 19.3402C9.22363 18.6426 8.71445 18.0771 7.96109 18.0771H3.9259" stroke="black" stroke-width="1.5" stroke-linecap="round" stroke-linejoin="round"/>
<path d="M18.5176 20.6025H16.9775" stroke="black" stroke-width="1.5" stroke-linecap="round" stroke-linejoin="round"/>
<path d="M14.1643 16.3387C14.4119 16.0787 14.7616 15.9165 15.1493 15.9165C15.9005 15.9165 16.5093 16.5257 16.5093 17.2769C16.5093 18.0276 16.0108 18.6226 15.1493 18.6368H11.8594" stroke="black" stroke-width="1.5" stroke-linecap="round" stroke-linejoin="round"/>
</svg>