<svg width="24" height="25" viewBox="0 0 24 25" fill="none" xmlns="http://www.w3.org/2000/svg">
<path fill-rule="evenodd" clip-rule="evenodd" d="M21.5 13.5828C21.5 13.5738 21.495 13.5658 21.495 13.5568C21.466 11.0318 19.804 9.21884 17.371 9.00184C17.143 6.86584 15.42 4.08984 12 4.08984C8.579 4.08984 6.856 6.86684 6.629 9.00384C4.196 9.22984 2.534 11.0418 2.505 13.5568C2.505 13.5658 2.5 13.5738 2.5 13.5828C2.5 13.5888 2.502 13.5948 2.502 13.6008C2.502 13.6078 2.5 13.6138 2.5 13.6198C2.5 13.8848 2.529 14.1438 2.572 14.3988C2.599 14.5728 2.641 14.7368 2.684 14.9018C2.691 14.9258 2.697 14.9498 2.704 14.9738C3.26643 17.0068 4.99439 18.0696 6.96915 18.2074C7.18167 18.2223 7.3277 18.0065 7.26506 17.8029C7.12876 17.3598 7.049 16.8789 7.049 16.3558C7.049 15.5858 7.038 15.0628 7.031 14.7018C7.012 13.7558 6.997 13.0088 7.779 12.2398C8.516 11.4838 11.395 10.6348 12.079 10.6348C12.765 10.6348 15.647 11.4858 16.411 12.2708C17.162 13.0088 17.147 13.7568 17.128 14.7048C17.12 15.0658 17.11 15.5878 17.11 16.3558C17.11 16.8787 17.0309 17.3594 16.8945 17.8023C16.8318 18.0061 16.9779 18.2221 17.1905 18.2054C19.1165 18.0534 20.7718 16.9148 21.302 14.9588C21.305 14.9468 21.308 14.9358 21.311 14.9248C21.357 14.7518 21.401 14.5798 21.428 14.3978C21.471 14.1428 21.5 13.8838 21.5 13.6198C21.5 13.6138 21.498 13.6078 21.498 13.6008C21.498 13.5948 21.5 13.5888 21.5 13.5828Z" fill="black"/>
<path fill-rule="evenodd" clip-rule="evenodd" d="M14.3782 14.6488C14.3712 15.0228 14.3602 15.5618 14.3602 16.3558C14.3602 17.9448 12.6902 18.7608 12.0792 19.0068C11.4692 18.7608 9.79918 17.9448 9.79918 16.3558C9.79918 15.5598 9.78818 15.0188 9.78018 14.6458C9.77618 14.4338 9.77118 14.2858 9.77118 14.1788C10.2642 13.9348 11.7532 13.4198 12.0522 13.3838C12.4062 13.4198 13.9372 13.9498 14.3872 14.1748C14.3882 14.2838 14.3822 14.4328 14.3782 14.6488ZM12.0792 11.8848C11.5432 11.8848 9.07518 12.7008 8.65518 13.1308C8.25718 13.5218 8.26318 13.7898 8.28118 14.6758C8.28818 15.0438 8.29918 15.5738 8.29918 16.3558C8.29918 19.4068 11.7162 20.4788 11.8612 20.5228C11.9322 20.5448 12.0062 20.5548 12.0792 20.5548C12.1522 20.5548 12.2262 20.5448 12.2972 20.5228C12.4422 20.4788 15.8602 19.4068 15.8602 16.3558C15.8602 15.5758 15.8712 15.0458 15.8782 14.6788C15.8962 13.7908 15.9012 13.5218 15.5152 13.1428C15.0862 12.7018 12.6162 11.8848 12.0792 11.8848Z" fill="black"/>
</svg>