<svg width="24" height="24" viewBox="0 0 24 24" fill="none" xmlns="http://www.w3.org/2000/svg">
<path fill-rule="evenodd" clip-rule="evenodd" d="M17.5153 9.21264C17.4207 9.20093 17.3453 9.12712 17.3321 9.0328C17.0376 6.92526 15.3233 4.29297 12.0011 4.29297C8.42961 4.29297 6.96104 7.20254 6.67627 9.03546C6.66182 9.12849 6.58677 9.20075 6.49332 9.2122C4.13425 9.50122 2.53711 11.31 2.53711 13.795C2.53711 15.608 3.60511 17.262 5.27611 18.017C6.08011 18.343 6.77611 18.392 7.12011 18.392H9.30511C9.41557 18.392 9.50511 18.3024 9.50511 18.192V14.852C9.50511 14.3565 9.65305 13.8987 9.90238 13.5117C9.94959 13.4384 9.9493 13.3437 9.90174 13.2707C9.6528 12.8882 9.50511 12.4341 9.50511 11.94V11.879C9.50511 10.498 10.6241 9.37897 12.0051 9.37897C13.3861 9.37897 14.5051 10.498 14.5051 11.879C14.5051 12.3838 14.3507 12.8525 14.0932 13.25C14.0457 13.3233 14.0461 13.4183 14.094 13.4913C14.351 13.8828 14.5051 14.3477 14.5051 14.852V18.192C14.5051 18.3024 14.5947 18.392 14.7051 18.392H16.8731C17.2201 18.392 17.9221 18.344 18.7481 18.014C20.3971 17.267 21.4631 15.612 21.4631 13.795C21.4631 11.3119 19.87 9.50449 17.5153 9.21264Z" fill="black"/>
<path fill-rule="evenodd" clip-rule="evenodd" d="M12.0055 14.1018C11.5915 14.1018 11.2555 14.4378 11.2555 14.8518V18.9588C11.2555 19.3728 11.5915 19.7088 12.0055 19.7088C12.4195 19.7088 12.7555 19.3728 12.7555 18.9588V14.8518C12.7555 14.4378 12.4195 14.1018 12.0055 14.1018Z" fill="black"/>
<path fill-rule="evenodd" clip-rule="evenodd" d="M12.0055 11.1292C11.5915 11.1292 11.2555 11.4652 11.2555 11.8792V11.9402C11.2555 12.3542 11.5915 12.6592 12.0055 12.6592C12.4195 12.6592 12.7555 12.2932 12.7555 11.8792C12.7555 11.4652 12.4195 11.1292 12.0055 11.1292Z" fill="black"/>
</svg>