<svg width="24" height="24" viewBox="0 0 24 24" fill="none" xmlns="http://www.w3.org/2000/svg">
<path d="M18.5637 16.7428C20.0008 16.0938 21 14.648 21 12.9686C21 10.3727 19.1698 8.82958 16.897 8.82861C16.897 7.19596 15.6165 3.92969 12 3.92969C8.38346 3.92969 7.10303 7.19596 7.10303 8.82861C4.83308 8.84807 3 10.3727 3 12.9686C3 14.648 3.99924 16.0938 5.43632 16.7428" stroke="black" stroke-width="1.5" stroke-linecap="round" stroke-linejoin="round"/>
<path fill-rule="evenodd" clip-rule="evenodd" d="M8.95829 17.0262C8.61094 15.9404 9.01667 14.7008 10.156 14.334C10.7554 14.1433 11.4102 14.2532 11.9132 14.6308C12.4172 14.2562 13.0701 14.1462 13.6685 14.334C14.8068 14.7008 15.2165 15.9404 14.8691 17.0262C14.3281 18.7445 11.9132 20.0697 11.9132 20.0697C11.9132 20.0697 9.51775 18.7649 8.95829 17.0262Z" stroke="black" stroke-width="1.5" stroke-linecap="round" stroke-linejoin="round"/>
</svg>