<svg width="25" height="24" viewBox="0 0 25 24" fill="none" xmlns="http://www.w3.org/2000/svg">
<path d="M18.6184 16.5904C20.0545 15.9415 21.0547 14.4956 21.0547 12.8163C21.0547 10.2204 19.2245 8.67724 16.9517 8.67529C16.9517 7.04264 15.6712 3.77734 12.0547 3.77734C8.43815 3.77734 7.15771 7.04264 7.15771 8.67529C4.88777 8.69572 3.05469 10.2204 3.05469 12.8163C3.05469 14.4956 4.05393 15.9415 5.49101 16.5904" stroke="black" stroke-width="1.5" stroke-linecap="round" stroke-linejoin="round"/>
<path d="M5.95456 20.0566L6.4523 18.9627" stroke="black" stroke-width="1.5" stroke-linecap="round" stroke-linejoin="round"/>
<path d="M14.9145 16.7749L15.4123 15.681" stroke="black" stroke-width="1.5" stroke-linecap="round" stroke-linejoin="round"/>
<path d="M17.9056 20.0625C17.9086 20.0625 17.9106 20.0603 17.9106 20.057C17.9106 20.0538 17.9086 20.0516 17.9056 20.0516C17.9026 20.0516 17.9006 20.0538 17.9006 20.057C17.9006 20.0603 17.9026 20.0625 17.9056 20.0625" stroke="black" stroke-width="1.5" stroke-linecap="round" stroke-linejoin="round"/>
<path d="M11.9329 20.0625C11.9359 20.0625 11.9379 20.0603 11.9379 20.057C11.9379 20.0538 11.9359 20.0516 11.9329 20.0516C11.9299 20.0516 11.9279 20.0538 11.9279 20.057C11.9279 20.0603 11.9299 20.0625 11.9329 20.0625" stroke="black" stroke-width="1.5" stroke-linecap="round" stroke-linejoin="round"/>
<path d="M9.93683 16.7861C9.93981 16.7861 9.9418 16.7839 9.9418 16.7807C9.9418 16.7774 9.93981 16.7752 9.93683 16.7752C9.93384 16.7752 9.93185 16.7774 9.93185 16.7807C9.93185 16.7839 9.93384 16.7861 9.93683 16.7861" stroke="black" stroke-width="1.5" stroke-linecap="round" stroke-linejoin="round"/>
</svg>