<svg width="25" height="24" viewBox="0 0 25 24" fill="none" xmlns="http://www.w3.org/2000/svg">
<g opacity="0.4">
<path fill-rule="evenodd" clip-rule="evenodd" d="M4.69057 14.9925C4.47657 14.4375 4.32557 13.8775 4.24157 13.3255C4.17857 12.9155 3.79257 12.6395 3.38657 12.6975C2.97757 12.7605 2.69657 13.1425 2.75857 13.5525C2.85957 14.2105 3.03857 14.8765 3.29057 15.5315C3.40557 15.8295 3.68957 16.0125 3.99057 16.0125C4.08057 16.0125 4.17057 15.9955 4.25957 15.9615C4.64657 15.8135 4.83857 15.3795 4.69057 14.9925Z" fill="black"/>
<path fill-rule="evenodd" clip-rule="evenodd" d="M6.01089 17.2738C5.74889 16.9508 5.27689 16.9028 4.95589 17.1628C4.63389 17.4228 4.58389 17.8958 4.84489 18.2168C5.23489 18.6978 5.67289 19.1408 6.15089 19.5338C6.28989 19.6488 6.45889 19.7048 6.62689 19.7048C6.84289 19.7048 7.05789 19.6118 7.20589 19.4318C7.46889 19.1118 7.42389 18.6398 7.10389 18.3758C6.70389 18.0468 6.33689 17.6758 6.01089 17.2738Z" fill="black"/>
<path fill-rule="evenodd" clip-rule="evenodd" d="M11.172 20.2577C10.578 20.1677 9.96998 19.9987 9.36198 19.7567C8.97998 19.6007 8.54098 19.7897 8.38798 20.1747C8.23398 20.5587 8.42098 20.9947 8.80598 21.1487C9.51998 21.4337 10.239 21.6327 10.947 21.7407C10.985 21.7467 11.024 21.7497 11.061 21.7497C11.425 21.7497 11.744 21.4837 11.801 21.1117C11.863 20.7027 11.582 20.3197 11.172 20.2577Z" fill="black"/>
<path fill-rule="evenodd" clip-rule="evenodd" d="M15.4845 19.8026C14.9785 20.0046 14.4175 20.1576 13.8155 20.2586C13.4075 20.3266 13.1315 20.7136 13.2005 21.1216C13.2605 21.4886 13.5795 21.7486 13.9385 21.7486C13.9795 21.7486 14.0215 21.7446 14.0635 21.7386C14.7695 21.6196 15.4345 21.4376 16.0415 21.1966C16.4255 21.0426 16.6125 20.6066 16.4595 20.2216C16.3055 19.8366 15.8725 19.6506 15.4845 19.8026Z" fill="black"/>
<path fill-rule="evenodd" clip-rule="evenodd" d="M18.8712 17.3924C18.5432 17.8004 18.1782 18.1634 17.7842 18.4714C17.4582 18.7264 17.4002 19.1974 17.6552 19.5234C17.8042 19.7124 18.0232 19.8114 18.2472 19.8114C18.4082 19.8114 18.5712 19.7594 18.7082 19.6514C19.1922 19.2734 19.6402 18.8294 20.0392 18.3324C20.2992 18.0104 20.2482 17.5384 19.9252 17.2784C19.6032 17.0194 19.1302 17.0704 18.8712 17.3924Z" fill="black"/>
<path fill-rule="evenodd" clip-rule="evenodd" d="M21.6134 12.6956C21.2114 12.6336 20.8214 12.9136 20.7594 13.3236C20.6684 13.9186 20.5044 14.5076 20.2574 15.1246C20.1024 15.5086 20.2904 15.9456 20.6754 16.0996C20.7654 16.1356 20.8604 16.1536 20.9534 16.1536C21.2514 16.1536 21.5324 15.9746 21.6494 15.6816C21.9394 14.9566 22.1334 14.2586 22.2414 13.5496C22.3034 13.1406 22.0224 12.7576 21.6134 12.6956Z" fill="black"/>
<path fill-rule="evenodd" clip-rule="evenodd" d="M20.3087 8.99552C20.5247 9.56452 20.6747 10.1295 20.7577 10.6745C20.8137 11.0455 21.1337 11.3115 21.4977 11.3115C21.5357 11.3115 21.5737 11.3095 21.6117 11.3035C22.0207 11.2415 22.3027 10.8595 22.2407 10.4495C22.1427 9.80052 21.9637 9.13252 21.7107 8.46452C21.5647 8.07652 21.1277 7.88352 20.7447 8.02852C20.3567 8.17552 20.1627 8.60852 20.3087 8.99552Z" fill="black"/>
<path fill-rule="evenodd" clip-rule="evenodd" d="M3.38485 11.3006C3.42385 11.3066 3.46285 11.3096 3.50085 11.3096C3.86385 11.3096 4.18385 11.0446 4.24085 10.6746C4.33785 10.0466 4.50585 9.44362 4.73885 8.88062C4.89885 8.49762 4.71685 8.05962 4.33385 7.90062C3.95285 7.74262 3.51285 7.92362 3.35485 8.30562C3.07385 8.97962 2.87385 9.69862 2.75885 10.4446C2.69585 10.8536 2.97585 11.2376 3.38485 11.3006Z" fill="black"/>
<path fill-rule="evenodd" clip-rule="evenodd" d="M6.26573 4.35049C5.76573 4.76349 5.32473 5.20149 4.95373 5.65349C4.69073 5.97349 4.73773 6.44649 5.05773 6.70849C5.19773 6.82349 5.36573 6.87849 5.53373 6.87849C5.74973 6.87849 5.96473 6.78549 6.11373 6.60449C6.42173 6.22749 6.79473 5.85849 7.22073 5.50749C7.53973 5.24449 7.58473 4.77149 7.32273 4.45249C7.05773 4.13149 6.58673 4.08749 6.26573 4.35049Z" fill="black"/>
<path fill-rule="evenodd" clip-rule="evenodd" d="M18.9756 6.71331C19.1236 6.89831 19.3416 6.99431 19.5606 6.99431C19.7256 6.99431 19.8916 6.94031 20.0306 6.82931C20.3526 6.56931 20.4046 6.09831 20.1456 5.77531C19.7466 5.27731 19.3046 4.83131 18.8316 4.45031C18.5106 4.19131 18.0386 4.24031 17.7776 4.56431C17.5176 4.88631 17.5686 5.35831 17.8906 5.61831C18.2786 5.93131 18.6436 6.29931 18.9756 6.71331Z" fill="black"/>
<path fill-rule="evenodd" clip-rule="evenodd" d="M13.8253 3.74055C14.4553 3.83755 15.0543 4.00455 15.6063 4.23755C15.7013 4.27755 15.8003 4.29655 15.8973 4.29655C16.1893 4.29655 16.4683 4.12355 16.5893 3.83755C16.7493 3.45555 16.5703 3.01555 16.1883 2.85455C15.5233 2.57455 14.8043 2.37355 14.0543 2.25855C13.6433 2.19955 13.2613 2.47555 13.1983 2.88555C13.1353 3.29455 13.4163 3.67755 13.8253 3.74055Z" fill="black"/>
<path fill-rule="evenodd" clip-rule="evenodd" d="M9.23839 4.23865C9.33139 4.23865 9.42539 4.22165 9.51639 4.18465C10.0324 3.97865 10.5904 3.82965 11.1754 3.74065C11.5844 3.67865 11.8664 3.29665 11.8034 2.88665C11.7424 2.47765 11.3634 2.19965 10.9504 2.25765C10.2514 2.36365 9.58139 2.54365 8.96039 2.79265C8.57539 2.94665 8.38739 3.38265 8.54239 3.76665C8.65939 4.06065 8.94039 4.23865 9.23839 4.23865Z" fill="black"/>
</g>
<path fill-rule="evenodd" clip-rule="evenodd" d="M15.3135 10.3765C15.1095 9.27947 14.2015 7.98047 12.4995 7.98047C10.7965 7.98047 9.8885 9.27947 9.6845 10.3765C8.4755 10.5755 7.6665 11.5325 7.6665 12.8325C7.6665 13.8085 8.2415 14.7005 9.1505 15.1125C9.4675 15.2415 9.8195 15.3125 10.1385 15.3125H14.8555C15.1785 15.3125 15.5315 15.2415 15.8675 15.1055C16.7565 14.7035 17.3325 13.8105 17.3325 12.8325C17.3325 11.5325 16.5225 10.5755 15.3135 10.3765Z" fill="black"/>
</svg>