<svg width="24" height="24" viewBox="0 0 24 24" fill="none" xmlns="http://www.w3.org/2000/svg">
<path d="M18.5637 16.4732C19.9998 15.8243 21 14.3784 21 12.6991C21 10.1032 19.1698 8.56005 16.897 8.5581C16.897 6.92545 15.6165 3.66016 12 3.66016C8.38346 3.66016 7.10303 6.92545 7.10303 8.5581C4.83308 8.57853 3 10.1032 3 12.6991C3 14.3784 3.99924 15.8243 5.43632 16.4732" stroke="black" stroke-width="1.5" stroke-linecap="round" stroke-linejoin="round"/>
<path fill-rule="evenodd" clip-rule="evenodd" d="M12.0001 20.4699C12.0001 20.4699 14.8798 19.598 14.8798 17.1942C14.8798 14.8905 14.9842 14.7042 14.7531 14.4712C14.5217 14.2378 12.3777 13.4922 12.0001 13.4922C11.6225 13.4922 9.47811 14.2398 9.24665 14.4712C9.01557 14.7023 9.1204 14.8901 9.1204 17.1942C9.1204 19.5984 12.0001 20.4699 12.0001 20.4699Z" stroke="black" stroke-width="1.5" stroke-linecap="round" stroke-linejoin="round"/>
</svg>