<svg width="25" height="24" viewBox="0 0 25 24" fill="none" xmlns="http://www.w3.org/2000/svg">
<path d="M10.36 4.70898L10.3544 4.73282M5.16171 5.55782L5.17273 5.57568M2.92095 15.0336L2.93881 15.0225M2.09054 9.83923L2.05371 9.83052" stroke="black" stroke-width="1.5" stroke-linecap="round" stroke-linejoin="round"/>
<path d="M11.7507 8.49464C11.2588 8.05408 10.6528 7.72659 9.96484 7.56389C7.76524 7.04375 5.56041 8.40524 5.04045 10.6041C4.67236 12.1607 5.2466 13.7199 6.39333 14.6828" stroke="black" stroke-width="1.5" stroke-linecap="round" stroke-linejoin="round"/>
<path fill-rule="evenodd" clip-rule="evenodd" d="M9.89811 12.0714C7.91254 12.0891 6.30859 13.4232 6.30859 15.693C6.30859 17.1631 7.18357 18.4275 8.44018 18.9949C8.96893 19.2095 9.49546 19.2914 9.89479 19.2914H18.4632C18.8636 19.2914 19.3912 19.214 19.9266 18.9994C21.1843 18.4308 22.0549 17.1631 22.0549 15.693C22.0549 13.4232 20.4521 12.0891 18.4665 12.0714C18.4665 10.6434 17.3459 7.78613 14.1823 7.78613C11.0187 7.78613 9.89811 10.6434 9.89811 12.0714Z" stroke="black" stroke-width="1.5" stroke-linecap="round" stroke-linejoin="round"/>
</svg>