<svg width="25" height="24" viewBox="0 0 25 24" fill="none" xmlns="http://www.w3.org/2000/svg">
<path fill-rule="evenodd" clip-rule="evenodd" d="M15.3606 4.53516C18.3673 4.53516 20.8047 6.97252 20.8047 9.97923C20.8047 11.5384 20.1502 12.9436 19.0989 13.937C18.7978 14.2215 18.7843 14.6962 19.0688 14.9972C19.3533 15.2983 19.828 15.3117 20.1291 15.0273C21.4678 13.7623 22.3047 11.9679 22.3047 9.97923C22.3047 6.1441 19.1957 3.03516 15.3606 3.03516C12.4736 3.03516 9.99934 4.79654 8.95142 7.30217C8.61232 7.22738 8.2603 7.188 7.8996 7.188C5.21107 7.188 3.03173 9.3673 3.03173 12.0557C3.03173 12.4699 3.36752 12.8057 3.78173 12.8057C4.19594 12.8057 4.53173 12.4699 4.53173 12.0557C4.53173 10.1958 6.03946 8.688 7.8996 8.688C8.33935 8.688 8.75767 8.77199 9.14106 8.92412C9.33702 9.00188 9.55666 8.99357 9.74618 8.90123C9.93571 8.80889 10.0776 8.64105 10.1372 8.43881C10.8017 6.18161 12.89 4.53516 15.3606 4.53516Z" fill="black"/>
<path fill-rule="evenodd" clip-rule="evenodd" d="M14.55 12.5469C13.4983 12.5469 12.5599 13.1204 12.0209 14.0122C11.8066 14.3667 11.3455 14.4803 10.991 14.2661C10.6366 14.0518 10.5229 13.5907 10.7372 13.2362C11.5255 11.932 12.9313 11.0469 14.55 11.0469C16.3562 11.0469 17.892 12.1448 18.6104 13.7035C18.7587 13.682 18.91 13.6709 19.0638 13.6709C20.8843 13.6709 22.305 15.2026 22.305 17.0227C22.305 18.8428 20.8843 20.3745 19.0638 20.3745H15.4954C15.0812 20.3745 14.7454 20.0387 14.7454 19.6245C14.7454 19.2103 15.0812 18.8745 15.4954 18.8745H19.0638C19.9951 18.8745 20.805 18.0764 20.805 17.0227C20.805 15.9689 19.9951 15.1709 19.0638 15.1709C18.8403 15.1709 18.6279 15.2154 18.4325 15.2964C18.2345 15.3784 18.0109 15.3719 17.8181 15.2783C17.6252 15.1848 17.4816 15.0133 17.4235 14.807C17.0495 13.4803 15.8877 12.5469 14.55 12.5469Z" fill="black"/>
<path fill-rule="evenodd" clip-rule="evenodd" d="M7.28763 12.8561C7.66869 13.0185 7.84598 13.459 7.68362 13.8401L7.24205 14.8764H8.06011C8.87848 14.8764 9.31559 15.8405 8.77631 16.4561L8.21219 15.9619L8.77631 16.4561L5.64841 20.0263C4.98466 20.7839 3.75265 20.1267 4.01217 19.1535L4.42472 17.6064H3.75698C3.09505 17.6064 2.63507 16.9477 2.86304 16.3262C2.86626 16.3175 2.86964 16.3088 2.87318 16.3001L3.52388 14.7124C3.68096 14.3291 4.119 14.1458 4.50227 14.3028C4.88555 14.4599 5.06892 14.8979 4.91184 15.2812L4.57367 16.1064H5.13775C5.75317 16.1064 6.20408 16.6802 6.06519 17.2743L6.85185 16.3764H6.41274C5.75559 16.3764 5.29599 15.7265 5.51498 15.1069C5.52023 15.0921 5.52595 15.0774 5.53213 15.0629L6.30366 13.2521C6.46603 12.871 6.90656 12.6937 7.28763 12.8561Z" fill="black"/>
<path fill-rule="evenodd" clip-rule="evenodd" d="M12.1955 15.8879C12.5084 16.1593 12.5422 16.6329 12.2708 16.9459L11.7152 17.5868H12.3476C12.6409 17.5868 12.9072 17.7578 13.0294 18.0243C13.1516 18.2909 13.1072 18.6042 12.9158 18.8264L11.2571 20.7516C10.9867 21.0654 10.5131 21.1006 10.1993 20.8303C9.88552 20.5599 9.85031 20.0863 10.1207 19.7725L10.7114 19.0868H10.0723C9.77861 19.0868 9.51197 18.9155 9.39001 18.6483C9.26805 18.3812 9.31323 18.0674 9.5056 17.8455L11.1375 15.9633C11.4088 15.6503 11.8825 15.6166 12.1955 15.8879Z" fill="black"/>
</svg>