<svg width="24" height="24" viewBox="0 0 24 24" fill="none" xmlns="http://www.w3.org/2000/svg">
<path d="M10.5341 20.0444C9.73104 20.0444 9.08008 19.3934 9.08008 18.5904V16.9462C9.08008 16.1431 9.73104 15.4922 10.5341 15.4922H13.4639C14.267 15.4922 14.9179 16.1431 14.9179 16.9462V18.5904C14.9179 19.3934 14.267 20.0444 13.4639 20.0444H13.1218" stroke="black" stroke-width="1.5" stroke-linecap="round" stroke-linejoin="round"/>
<path d="M10.25 15.5204V14.4304C10.2663 13.4843 11.0313 12.7228 11.9765 12.7111C12.4154 12.7057 12.8185 12.8624 13.129 13.1255" stroke="black" stroke-width="1.5" stroke-linecap="round" stroke-linejoin="round"/>
<path d="M12 3.95312C8.38346 3.95312 7.10303 7.21842 7.10303 8.85107C4.83308 8.8715 3 10.3962 3 12.992C3 14.6714 3.99924 16.1172 5.43632 16.7662" stroke="black" stroke-width="1.5" stroke-linecap="round" stroke-linejoin="round"/>
<path d="M18.5632 16.766C19.9993 16.117 20.9995 14.6712 20.9995 12.9918C20.9995 10.3959 19.1694 8.85278 16.8965 8.85084C16.8965 7.78153 16.3472 6.01189 14.9521 4.91797" stroke="black" stroke-width="1.5" stroke-linecap="round" stroke-linejoin="round"/>
</svg>