<svg width="24" height="24" viewBox="0 0 24 24" fill="none" xmlns="http://www.w3.org/2000/svg">
<path fill-rule="evenodd" clip-rule="evenodd" d="M2.68798 10.0279C2.80798 9.5739 2.51798 9.1039 2.06398 8.9849C1.61498 8.8649 1.14598 9.1369 1.02598 9.5909C0.905982 10.0449 1.17698 10.5089 1.63098 10.6289L1.66798 10.6379C1.73998 10.6569 1.81198 10.6669 1.88198 10.6669C2.25498 10.6669 2.58698 10.4099 2.68798 10.0279Z" fill="black"/>
<path fill-rule="evenodd" clip-rule="evenodd" d="M9.92814 5.52734C10.0021 5.54734 10.0761 5.55634 10.1491 5.55634C10.5241 5.55634 10.8671 5.30634 10.9691 4.92634L10.9741 4.90634C11.0961 4.45334 10.8241 3.99734 10.3711 3.87534C9.91914 3.75634 9.44914 4.03234 9.32714 4.48634C9.20614 4.93934 9.47414 5.40534 9.92814 5.52734Z" fill="black"/>
<path fill-rule="evenodd" clip-rule="evenodd" d="M2.30419 14.2621L2.28619 14.2721C1.88119 14.5091 1.75319 15.0241 1.98919 15.4301C2.14619 15.6991 2.43319 15.8481 2.72619 15.8481C2.87419 15.8481 3.02519 15.8101 3.16019 15.7311C3.56619 15.4941 3.70319 14.9731 3.46719 14.5681C3.23019 14.1631 2.71119 14.0251 2.30419 14.2621Z" fill="black"/>
<path fill-rule="evenodd" clip-rule="evenodd" d="M4.9678 6.40679C5.1088 6.40679 5.2508 6.37179 5.3828 6.29779C5.7918 6.06879 5.9378 5.55079 5.7078 5.14079L5.6968 5.12079C5.4678 4.71179 4.9548 4.57679 4.5458 4.80479C4.1358 5.03479 3.9958 5.56279 4.2258 5.97279C4.3818 6.25079 4.6698 6.40679 4.9678 6.40679Z" fill="black"/>
<path fill-rule="evenodd" clip-rule="evenodd" d="M8.42496 10.7511C8.55146 10.7084 8.65174 10.6098 8.69524 10.4836C9.05295 9.44593 9.68465 8.40193 10.6101 7.60209C10.7198 7.50733 10.7038 7.33034 10.5707 7.2731C10.3495 7.17799 10.1165 7.10246 9.87872 7.04651C7.41872 6.46651 4.92872 7.99651 4.34872 10.4665C4.07937 11.6337 4.26144 12.817 4.84427 13.8065C4.92731 13.9475 5.13328 13.9187 5.19546 13.7674C5.78612 12.3296 6.93213 11.2547 8.42496 10.7511Z" fill="black"/>
<path fill-rule="evenodd" clip-rule="evenodd" d="M19.5456 11.9793C19.4531 11.9664 19.3794 11.8941 19.3651 11.8018C19.0769 9.93973 17.5524 7.65393 14.6297 7.65393C11.7081 7.65393 10.1836 9.93964 9.89629 11.8016C9.88203 11.8941 9.80832 11.9664 9.71569 11.9793C7.6499 12.266 6.25671 13.8666 6.25671 16.0539C6.25671 17.6779 7.20971 19.1529 8.69571 19.8149C9.40371 20.1099 10.0317 20.1539 10.3437 20.1539H18.9107C19.4387 20.1539 20.0237 20.0389 20.5817 19.8189C22.0527 19.1519 23.0027 17.6739 23.0027 16.0539C23.0027 13.8666 21.6095 12.266 19.5456 11.9793Z" fill="black"/>
</svg>