<svg width="25" height="24" viewBox="0 0 25 24" fill="none" xmlns="http://www.w3.org/2000/svg">
<path fill-rule="evenodd" clip-rule="evenodd" d="M12.5397 8.70928C13.1724 7.87308 14.1889 7.20459 15.6385 7.20459C17.0881 7.20459 18.1047 7.87305 18.7376 8.70919C19.1642 9.27277 19.4199 9.91441 19.5349 10.4867C20.1931 10.6064 20.8006 10.8968 21.283 11.3571C21.9321 11.9766 22.3041 12.856 22.3041 13.8951C22.3041 15.3021 21.4688 16.5181 20.2641 17.0625C20.2543 17.067 20.2443 17.0712 20.2342 17.0752C19.7373 17.2743 19.2448 17.349 18.8553 17.349H13.2971C12.8829 17.349 12.5471 17.0132 12.5471 16.599C12.5471 16.1848 12.8829 15.849 13.2971 15.849H18.8553C19.0634 15.849 19.3588 15.8075 19.6611 15.6889C20.3364 15.377 20.8041 14.6901 20.8041 13.8951C20.8041 13.228 20.5736 12.7536 20.2475 12.4423C19.9149 12.125 19.4316 11.9291 18.8511 11.9239C18.4395 11.9202 18.1079 11.5855 18.1079 11.174C18.1079 10.795 17.9472 10.1504 17.5416 9.61451C17.1591 9.10925 16.566 8.70459 15.6385 8.70459C14.711 8.70459 14.1181 9.10922 13.7358 9.61442C13.3303 10.1502 13.1698 10.7949 13.1698 11.174C13.1698 11.5855 12.8381 11.9202 12.4265 11.9239C11.3875 11.9333 10.6205 12.5394 10.4924 13.5708C10.4413 13.9818 10.0667 14.2737 9.65566 14.2226C9.2446 14.1715 8.95278 13.7969 9.00385 13.3858C9.20501 11.7667 10.3435 10.7436 11.7426 10.4873C11.8575 9.91489 12.113 9.27305 12.5397 8.70928Z" fill="black"/>
<path fill-rule="evenodd" clip-rule="evenodd" d="M7.34875 5.37217C8.12679 4.34402 9.37355 3.52197 11.1633 3.52197C12.7436 3.52197 13.9083 4.16395 14.698 5.03404C15.4698 5.88437 15.8688 6.93289 16.0017 7.77835C16.066 8.18755 15.7864 8.57138 15.3772 8.63566C14.968 8.69995 14.5841 8.42034 14.5198 8.01115C14.4242 7.40256 14.1296 6.63969 13.5872 6.04215C13.0628 5.46436 12.293 5.02197 11.1633 5.02197C9.89562 5.02197 9.07243 5.58017 8.54487 6.27732C7.99417 7.00506 7.77339 7.88006 7.77339 8.4127C7.77339 8.82428 7.44171 9.15897 7.03015 9.16267C6.23626 9.16982 5.55975 9.43828 5.08741 9.88888C4.6215 10.3333 4.30469 11.0015 4.30469 11.9127C4.30469 13.0219 4.96171 13.9793 5.91002 14.4139C6.32327 14.5793 6.73056 14.6404 7.02093 14.6404C7.43514 14.6404 7.77093 14.9762 7.77093 15.3904C7.77093 15.8046 7.43514 16.1404 7.02093 16.1404C6.54129 16.1404 5.93604 16.0433 5.33235 15.7983C5.32333 15.7946 5.31438 15.7908 5.30551 15.7868C3.83273 15.1213 2.80469 13.6378 2.80469 11.9127C2.80469 10.6292 3.26313 9.55609 4.05203 8.80352C4.67424 8.20997 5.47058 7.84544 6.33601 7.71593C6.46205 6.97639 6.7837 6.11887 7.34875 5.37217Z" fill="black"/>
<path fill-rule="evenodd" clip-rule="evenodd" d="M6.88286 13.8911C7.37553 13.2401 8.16986 12.7197 9.29134 12.7197C10.4128 12.7197 11.2072 13.2401 11.7 13.8911C11.9953 14.2811 12.1849 14.7197 12.285 15.1272C12.7459 15.2338 13.1731 15.4516 13.5206 15.7832C14.0351 16.2742 14.3239 16.9667 14.3239 17.7703C14.3239 18.8726 13.6694 19.8254 12.7253 20.252C12.7154 20.2565 12.7054 20.2607 12.6954 20.2648C12.3095 20.4193 11.9267 20.4778 11.6201 20.4778H6.95978C6.64915 20.4778 6.26647 20.4156 5.88608 20.2612C5.87706 20.2575 5.86811 20.2537 5.85924 20.2497C4.91719 19.824 4.25879 18.8748 4.25879 17.7703C4.25879 16.9666 4.54779 16.274 5.06242 15.7831C5.40993 15.4516 5.83721 15.2338 6.29811 15.1272C6.39814 14.7197 6.58766 14.2812 6.88286 13.8911ZM8.07898 14.7963C7.81364 15.1469 7.71117 15.5694 7.71117 15.8004C7.71117 16.2119 7.37949 16.5466 6.96792 16.5503C6.5933 16.5537 6.29588 16.6795 6.09779 16.8685C5.90615 17.0513 5.75879 17.3389 5.75879 17.7703C5.75879 18.259 6.04626 18.6821 6.46387 18.8768C6.65367 18.9515 6.83815 18.9778 6.95978 18.9778H11.6201C11.7454 18.9778 11.931 18.9525 12.1221 18.8784C12.5369 18.6843 12.8239 18.2606 12.8239 17.7703C12.8239 17.3388 12.6766 17.0511 12.485 16.8684C12.2871 16.6795 11.9898 16.5537 11.6152 16.5503C11.2037 16.5466 10.872 16.2119 10.872 15.8004C10.872 15.5695 10.7695 15.1471 10.504 14.7964C10.2617 14.4763 9.89078 14.2197 9.29134 14.2197C8.69193 14.2197 8.32118 14.4762 8.07898 14.7963Z" fill="black"/>
</svg>