<svg width="24" height="24" viewBox="0 0 24 24" fill="none" xmlns="http://www.w3.org/2000/svg">
<path d="M3.48939 15.2608C3.26853 14.6848 3.09632 14.0709 3 13.4375" stroke="black" stroke-width="1.5" stroke-linecap="round" stroke-linejoin="round"/>
<path d="M6.12738 18.9555C5.69539 18.6003 5.29259 18.1975 4.92773 17.7461" stroke="black" stroke-width="1.5" stroke-linecap="round" stroke-linejoin="round"/>
<path d="M10.56 20.9999C9.86925 20.8948 9.20667 20.7022 8.58398 20.4531" stroke="black" stroke-width="1.5" stroke-linecap="round" stroke-linejoin="round"/>
<path d="M15.2628 20.5C14.6868 20.7296 14.0728 20.8931 13.4395 20.9991" stroke="black" stroke-width="1.5" stroke-linecap="round" stroke-linejoin="round"/>
<path d="M18.9555 17.8633C18.6003 18.305 18.1975 18.7078 17.7461 19.062" stroke="black" stroke-width="1.5" stroke-linecap="round" stroke-linejoin="round"/>
<path d="M20.9999 13.4375C20.8948 14.1283 20.7022 14.7811 20.4531 15.4038" stroke="black" stroke-width="1.5" stroke-linecap="round" stroke-linejoin="round"/>
<path d="M20.9992 10.5625C20.9028 9.92914 20.7306 9.31521 20.5098 8.73047" stroke="black" stroke-width="1.5" stroke-linecap="round" stroke-linejoin="round"/>
<path d="M3.5468 8.59375C3.28799 9.21741 3.10508 9.87901 3 10.5601" stroke="black" stroke-width="1.5" stroke-linecap="round" stroke-linejoin="round"/>
<path d="M6.24258 4.92969C5.80086 5.29454 5.38833 5.69734 5.0332 6.12933" stroke="black" stroke-width="1.5" stroke-linecap="round" stroke-linejoin="round"/>
<path d="M15.397 3.5468C14.7831 3.28799 14.1205 3.10508 13.4395 3" stroke="black" stroke-width="1.5" stroke-linecap="round" stroke-linejoin="round"/>
<path d="M17.8609 5.03516C18.3027 5.40001 18.7152 5.80281 19.0703 6.2348" stroke="black" stroke-width="1.5" stroke-linecap="round" stroke-linejoin="round"/>
<path d="M10.5616 3C9.9282 3.09632 9.31427 3.2588 8.73828 3.48939" stroke="black" stroke-width="1.5" stroke-linecap="round" stroke-linejoin="round"/>
<path d="M9.63915 14.8124C9.41927 14.8124 9.12933 14.7677 8.83842 14.6499C8.14665 14.3366 7.66602 13.641 7.66602 12.8325C7.66602 11.5822 8.54848 10.8486 9.6411 10.8389C9.6411 10.0528 10.2579 8.48047 11.9986 8.48047C13.7401 8.48047 14.357 10.0528 14.357 10.8389C15.4496 10.8486 16.3321 11.5822 16.3321 12.8325C16.3321 13.641 15.8524 14.3386 15.1606 14.6509C14.8658 14.7696 14.5749 14.8124 14.355 14.8124H13.2404" stroke="black" stroke-width="1.5" stroke-linecap="round" stroke-linejoin="round"/>
</svg>