<svg width="24" height="25" viewBox="0 0 24 25" fill="none" xmlns="http://www.w3.org/2000/svg">
<path opacity="0.4" d="M18.5637 17.647C19.9998 16.999 21 15.553 21 13.873C21 11.277 19.1699 9.73396 16.897 9.73196C16.897 8.10096 15.6166 4.83398 12 4.83398C8.38346 4.83398 7.10303 8.10096 7.10303 9.73196C4.83308 9.75296 3 11.277 3 13.873C3 15.553 3.99924 16.999 5.43632 17.647" stroke="black" stroke-width="1.5" stroke-linecap="round" stroke-linejoin="round"/>
<path opacity="0.4" d="M11.9658 13.5596L11.9658 13.5727" stroke="black" stroke-width="1.5" stroke-linecap="round" stroke-linejoin="round"/>
<path d="M13.7286 21.1857L13.729 16.9472C13.9263 16.8209 14.1137 16.6822 14.2861 16.5097C15.5745 15.2214 15.5745 13.1326 14.2861 11.8442C12.9978 10.5558 10.9089 10.5558 9.62056 11.8442C8.33221 13.1325 8.33221 15.2214 9.62056 16.5097C9.87069 16.7599 10.152 16.9623 10.4507 17.1154L10.4518 18.0749L11.0096 18.6327L10.159 19.4833L11.0236 20.3479L10.4703 20.9012C10.3138 21.0577 10.3138 21.3115 10.4703 21.4681L11.7579 22.7556C11.9144 22.9122 12.1682 22.9122 12.3247 22.7556L13.6112 21.4691C13.6864 21.394 13.7286 21.292 13.7286 21.1857Z" stroke="black" stroke-width="1.5" stroke-linecap="round" stroke-linejoin="round"/>
</svg>