<svg width="25" height="24" viewBox="0 0 25 24" fill="none" xmlns="http://www.w3.org/2000/svg">
<path fill-rule="evenodd" clip-rule="evenodd" d="M7.8472 5.93159C8.74457 4.74545 10.1806 3.79688 12.25 3.79688C14.3194 3.79688 15.7554 4.74545 16.6528 5.93159C17.3317 6.829 17.7065 7.86474 17.8401 8.73881C18.8802 8.86934 19.8332 9.29569 20.5696 10.0011C21.4724 10.8659 22 12.1028 22 13.5858C22 15.5703 20.8185 17.2775 19.1224 18.0435C18.7448 18.214 18.3006 18.0461 18.1301 17.6686C17.9597 17.2911 18.1275 16.8469 18.505 16.6764C19.683 16.1444 20.5 14.96 20.5 13.5858C20.5 12.4729 20.1125 11.6403 19.532 11.0843C18.946 10.523 18.1134 10.1962 17.1467 10.1958C16.7326 10.1956 16.397 9.85988 16.397 9.44579C16.397 8.78693 16.1267 7.72235 15.4566 6.8366C14.8096 5.98143 13.7971 5.29688 12.25 5.29688C10.7029 5.29688 9.6904 5.98143 9.04342 6.8366C8.3733 7.72235 8.10303 8.78693 8.10303 9.44579C8.10303 9.8575 7.77115 10.1922 7.35946 10.1958C6.38987 10.2041 5.55495 10.5322 4.96806 11.0922C4.38756 11.6462 4 12.4739 4 13.5858C4 14.96 4.81699 16.1444 5.995 16.6764C6.37251 16.8469 6.54034 17.2911 6.36986 17.6686C6.19938 18.0461 5.75515 18.214 5.37765 18.0435C3.6815 17.2775 2.5 15.5703 2.5 13.5858C2.5 12.1018 3.02898 10.8692 3.93251 10.007C4.66942 9.30382 5.62188 8.87869 6.65925 8.74309C6.79225 7.86812 7.16715 6.83046 7.8472 5.93159Z" fill="black"/>
<path fill-rule="evenodd" clip-rule="evenodd" d="M12.25 11.707C12.6642 11.707 13 12.0428 13 12.457L13.0003 19.4515C13.0004 19.8657 12.6646 20.2015 12.2504 20.2016C11.8362 20.2016 11.5004 19.8658 11.5003 19.4516L11.5 12.4571C11.5 12.0429 11.8358 11.7071 12.25 11.707Z" fill="black"/>
<path fill-rule="evenodd" clip-rule="evenodd" d="M8.94819 16.1494C9.24108 15.8565 9.71595 15.8565 10.0088 16.1494L12.2495 18.3901L14.4902 16.1494C14.7831 15.8565 15.258 15.8565 15.5509 16.1494C15.8438 16.4423 15.8438 16.9171 15.5509 17.21L12.7799 19.981C12.487 20.2739 12.0121 20.2739 11.7192 19.981L8.94819 17.21C8.65529 16.9171 8.65529 16.4423 8.94819 16.1494Z" fill="black"/>
</svg>