<svg width="24" height="24" viewBox="0 0 24 24" fill="none" xmlns="http://www.w3.org/2000/svg">
<path d="M18.5637 16.9537C19.9998 16.3047 21 14.8589 21 13.1795C21 10.5837 19.1698 9.04052 16.897 9.03857C16.897 7.40592 15.6165 4.14062 12 4.14062C8.38346 4.14062 7.10303 7.40592 7.10303 9.03857C4.83308 9.059 3 10.5837 3 13.1795C3 14.8589 3.99924 16.3047 5.43632 16.9537" stroke="black" stroke-width="1.5" stroke-linecap="round" stroke-linejoin="round"/>
<path d="M15.0666 13.7812V15.5813H13.2656" stroke="black" stroke-width="1.5" stroke-linecap="round" stroke-linejoin="round"/>
<path d="M11.34 18.1836H9.53906V19.8581" stroke="black" stroke-width="1.5" stroke-linecap="round" stroke-linejoin="round"/>
<path d="M14.6705 18.3539C14.1665 19.2266 13.2218 19.8124 12.1408 19.8124C10.5295 19.8124 9.53906 18.1914 9.53906 18.1914" stroke="black" stroke-width="1.5" stroke-linecap="round" stroke-linejoin="round"/>
<path d="M9.60156 15.436C10.1056 14.5535 11.0513 13.9688 12.14 13.9688C14.0938 13.9688 15.0668 15.5887 15.0668 15.5887" stroke="black" stroke-width="1.5" stroke-linecap="round" stroke-linejoin="round"/>
</svg>