<svg width="24" height="24" viewBox="0 0 24 24" fill="none" xmlns="http://www.w3.org/2000/svg">
<path d="M18.5637 16.8131C19.9998 16.1641 21 14.7183 21 13.0389C21 10.443 19.1698 8.89989 16.897 8.89795C16.897 7.2653 15.6165 4 12 4C8.38346 4 7.10303 7.2653 7.10303 8.89795C4.83308 8.91838 3 10.443 3 13.0389C3 14.7183 3.99924 16.1641 5.43632 16.8131" stroke="black" stroke-width="1.5" stroke-linecap="round" stroke-linejoin="round"/>
<path fill-rule="evenodd" clip-rule="evenodd" d="M15.1167 16.8821C15.1167 15.1609 13.7214 13.7656 12.0002 13.7656C10.2781 13.7656 8.88281 15.1609 8.88281 16.8821C8.88281 18.6042 10.2781 19.9995 12.0002 19.9995C13.7214 19.9995 15.1167 18.6042 15.1167 16.8821Z" stroke="black" stroke-width="1.5" stroke-linecap="round" stroke-linejoin="round"/>
<path d="M14.2211 14.6953L9.81836 19.1068" stroke="black" stroke-width="1.5" stroke-linecap="round" stroke-linejoin="round"/>
</svg>