<svg width="25" height="24" viewBox="0 0 25 24" fill="none" xmlns="http://www.w3.org/2000/svg">
<path opacity="0.4" fill-rule="evenodd" clip-rule="evenodd" d="M18.0084 9.87235C17.915 9.8609 17.8399 9.78866 17.8255 9.69563C17.5407 7.86356 16.0731 4.95312 12.5016 4.95312C8.93017 4.95312 7.46158 7.86356 7.17679 9.69563C7.16233 9.78866 7.08729 9.8609 6.99384 9.87235C4.63472 10.1614 3.03662 11.9702 3.03662 14.4561C3.03662 16.2681 4.10562 17.9221 5.77662 18.6781C6.31139 18.8948 6.87268 19.0149 7.44493 19.0447C7.58361 19.0519 7.68029 18.9138 7.64635 18.7792C7.59966 18.5939 7.57262 18.4008 7.57262 18.2011C7.57262 16.8201 8.69162 15.7011 10.0726 15.7011H14.9986C16.3796 15.7011 17.4986 16.8201 17.4986 18.2011C17.4986 18.4009 17.4711 18.594 17.4241 18.7792C17.39 18.9138 17.4866 19.0518 17.6253 19.0436C18.1812 19.0103 18.7307 18.8814 19.2476 18.6741C20.8976 17.9271 21.9636 16.2721 21.9636 14.4561C21.9636 11.9702 20.3674 10.1614 18.0084 9.87235Z" fill="black"/>
<path fill-rule="evenodd" clip-rule="evenodd" d="M14.9983 17.4531H10.0723C9.65827 17.4531 9.32227 17.7891 9.32227 18.2031C9.32227 18.6171 9.65827 18.9531 10.0723 18.9531H14.9983C15.4123 18.9531 15.7483 18.6171 15.7483 18.2031C15.7483 17.7891 15.4123 17.4531 14.9983 17.4531Z" fill="black"/>
</svg>