<svg width="25" height="24" viewBox="0 0 25 24" fill="none" xmlns="http://www.w3.org/2000/svg">
<path d="M3.28173 11.3716C3.28173 9.09745 5.12527 7.25392 7.3996 7.25392C7.93575 7.25392 8.44782 7.35647 8.91769 7.54292C9.67359 4.97531 12.0484 3.10107 14.8606 3.10107C18.2815 3.10107 21.0547 5.87423 21.0547 9.29515C21.0547 11.0691 20.309 12.6688 19.114 13.798" stroke="black" stroke-width="1.5" stroke-linecap="round" stroke-linejoin="round"/>
<path d="M16.9948 18.9409C18.7808 18.9409 16.7771 18.9409 18.5632 18.9409C19.9391 18.9409 21.0544 17.776 21.0544 16.3391C21.0544 14.9022 19.9391 13.7373 18.5632 13.7373C18.2388 13.7373 17.929 13.8021 17.6448 13.9199C17.1875 12.2975 15.7507 11.1133 14.0494 11.1133C12.9266 11.1133 11.9192 11.629 11.2324 12.446" stroke="black" stroke-width="1.5" stroke-linecap="round" stroke-linejoin="round"/>
<path d="M8.72852 14.7524L8.73728 14.7036" stroke="black" stroke-width="1.5" stroke-linecap="round" stroke-linejoin="round"/>
<path d="M4.34224 14.7524L5.62979 15.4958V16.9825L4.34224 17.7259L3.05469 16.9825V15.4958L4.34224 14.7524Z" stroke="black" stroke-width="1.5" stroke-linecap="round" stroke-linejoin="round"/>
<path d="M13.4555 14.7524L14.7431 15.4958V16.9825L13.4555 17.7259L12.168 16.9825V15.4958L13.4555 14.7524Z" stroke="black" stroke-width="1.5" stroke-linecap="round" stroke-linejoin="round"/>
<path d="M8.72798 17.9253L10.0155 18.6687V20.1554L8.72798 20.8988L7.44043 20.1554V18.6687L8.72798 17.9253Z" stroke="black" stroke-width="1.5" stroke-linecap="round" stroke-linejoin="round"/>
</svg>