<svg width="25" height="24" viewBox="0 0 25 24" fill="none" xmlns="http://www.w3.org/2000/svg">
<path d="M18.6184 17.0426C20.0545 16.3936 21.0547 14.9478 21.0547 13.2684C21.0547 10.6725 19.2216 9.14787 16.9517 9.12744C16.9517 7.49479 15.6712 4.22949 12.0547 4.22949C8.43815 4.22949 7.15771 7.49479 7.15771 9.12744C4.88777 9.14787 3.05469 10.6725 3.05469 13.2684C3.05469 14.9478 4.05393 16.3936 5.49101 17.0426" stroke="black" stroke-width="1.5" stroke-linecap="round" stroke-linejoin="round"/>
<path d="M12.0537 16.8194L9.39648 18.2954M12.0537 16.8194L14.7103 15.3428M12.0537 16.8194L14.7103 18.2954M12.0537 16.8194L9.39648 15.3428M12.0537 16.8194L12.0532 19.7714M12.0537 16.8194L12.0532 13.8672" stroke="black" stroke-width="1.5" stroke-linecap="round" stroke-linejoin="round"/>
</svg>