<svg width="25" height="24" viewBox="0 0 25 24" fill="none" xmlns="http://www.w3.org/2000/svg">
<path opacity="0.4" fill-rule="evenodd" clip-rule="evenodd" d="M18.0158 9.21655C17.9213 9.20483 17.8458 9.13103 17.8326 9.0367C17.5382 6.92917 15.8238 4.29688 12.5016 4.29688C8.93012 4.29688 7.46155 7.20644 7.17678 9.03936C7.16233 9.1324 7.08728 9.20465 6.99383 9.2161C4.63378 9.5051 3.03662 11.3139 3.03662 13.7989C3.03662 15.6119 4.10462 17.2659 5.77662 18.0209C6.58062 18.3469 7.27662 18.3959 7.62062 18.3959H9.7269C9.82032 18.3959 9.90041 18.3309 9.92767 18.2416C9.9597 18.1366 9.99902 18.0351 10.0439 17.9366C10.0698 17.8796 10.0698 17.8141 10.044 17.7571C9.90705 17.4548 9.82317 17.1236 9.81862 16.7709C9.81655 16.6302 9.82257 16.4947 9.83503 16.3642C9.84453 16.2646 9.78354 16.1713 9.68953 16.1373C8.72737 15.789 8.03862 14.8675 8.03862 13.7849C8.03862 11.3119 10.0496 9.30088 12.5226 9.30088C14.9936 9.30088 17.0046 11.3119 17.0046 13.7849C17.0046 15.3879 16.1616 16.7739 14.6926 17.5869C14.6746 17.5965 14.6608 17.6125 14.6533 17.6316C14.6365 17.6743 14.6175 17.7158 14.5977 17.7568C14.5705 17.8132 14.5703 17.8787 14.5963 17.9357C14.6414 18.0347 14.6811 18.1364 14.7134 18.2416C14.7408 18.3309 14.8209 18.3959 14.9143 18.3959H17.3736C17.7206 18.3959 18.4226 18.3479 19.2486 18.0179C20.8976 17.2709 21.9636 15.6149 21.9636 13.7989C21.9636 11.3158 20.3705 9.5084 18.0158 9.21655Z" fill="black"/>
<path fill-rule="evenodd" clip-rule="evenodd" d="M12.3194 18.1982C11.9054 18.1982 11.5694 18.5372 11.5694 18.9512C11.5694 19.3652 11.9054 19.7012 12.3194 19.7012C12.7334 19.7012 13.0694 19.3652 13.0694 18.9512V18.9452C13.0694 18.5312 12.7334 18.1982 12.3194 18.1982Z" fill="black"/>
<path fill-rule="evenodd" clip-rule="evenodd" d="M12.5226 11.0508C11.0156 11.0508 9.78857 12.2778 9.78857 13.7848C9.78857 14.1988 10.1246 14.5348 10.5386 14.5348C10.9526 14.5348 11.2886 14.1988 11.2886 13.7848C11.2886 13.0928 11.8306 12.5508 12.5226 12.5508C13.2016 12.5508 13.7546 13.1048 13.7546 13.7848C13.7546 13.9348 13.7546 14.3908 13.1116 14.7468L12.9986 14.8108C12.4586 15.1128 11.5536 15.6178 11.5686 16.7478C11.5736 17.1588 11.9086 17.4878 12.3186 17.4878H12.3286C12.7426 17.4828 13.0736 17.1418 13.0686 16.7278C13.0656 16.5278 13.2396 16.3948 13.7306 16.1198L13.8456 16.0548C14.7536 15.5518 15.2546 14.7458 15.2546 13.7848C15.2546 12.2778 14.0286 11.0508 12.5226 11.0508Z" fill="black"/>
</svg>