<svg width="25" height="24" viewBox="0 0 25 24" fill="none" xmlns="http://www.w3.org/2000/svg">
<path fill-rule="evenodd" clip-rule="evenodd" d="M12.5394 10.2737C13.1722 9.43753 14.1887 8.76904 15.6382 8.76904C17.0878 8.76904 18.1044 9.43751 18.7373 10.2736C19.1639 10.8372 19.4196 11.4789 19.5347 12.0512C20.1929 12.1709 20.8004 12.4613 21.2828 12.9216C21.9319 13.541 22.3038 14.4204 22.3038 15.4596C22.3038 16.8665 21.4686 18.0825 20.2639 18.6269C20.254 18.6314 20.244 18.6357 20.234 18.6397C19.7371 18.8388 19.2446 18.9135 18.855 18.9135H12.4176C12.024 18.9135 11.532 18.8341 11.042 18.6352C11.033 18.6316 11.024 18.6278 11.0152 18.6237C9.81254 18.0803 8.97266 16.8688 8.97266 15.4596C8.97266 14.4203 9.34485 13.5409 9.99414 12.9215C10.4766 12.4612 11.0842 12.1709 11.7424 12.0512C11.8574 11.4789 12.1129 10.8373 12.5394 10.2737ZM13.7355 11.1789C13.3301 11.7147 13.1695 12.3593 13.1695 12.7384C13.1695 13.15 12.8378 13.4847 12.4263 13.4884C11.8458 13.4936 11.3623 13.6894 11.0295 14.0069C10.7032 14.3181 10.4727 14.7926 10.4727 15.4596C10.4727 16.2529 10.9416 16.9383 11.6197 17.2508C11.9193 17.3701 12.2132 17.4135 12.4176 17.4135H18.855C19.0632 17.4135 19.3585 17.3719 19.6608 17.2533C20.3361 16.9414 20.8038 16.2545 20.8038 15.4596C20.8038 14.7925 20.5734 14.318 20.2472 14.0068C19.9146 13.6894 19.4313 13.4936 18.8509 13.4884C18.4393 13.4847 18.1076 13.15 18.1076 12.7384C18.1076 12.3594 17.947 11.7148 17.5413 11.179C17.1589 10.6737 16.5658 10.269 15.6382 10.269C14.7107 10.269 14.1178 10.6737 13.7355 11.1789Z" fill="black"/>
<path fill-rule="evenodd" clip-rule="evenodd" d="M7.34875 6.93711C8.12679 5.90896 9.37355 5.08691 11.1633 5.08691C12.7436 5.08691 13.9083 5.72889 14.698 6.59898C15.4698 7.44931 15.8688 8.49783 16.0017 9.34329C16.066 9.75249 15.7863 10.1363 15.3772 10.2006C14.968 10.2649 14.5841 9.98528 14.5198 9.57609C14.4242 8.9675 14.1296 8.20463 13.5872 7.60709C13.0628 7.0293 12.293 6.58691 11.1633 6.58691C9.89562 6.58691 9.07243 7.14511 8.54487 7.84226C7.99417 8.57 7.77339 9.445 7.77339 9.97765C7.77339 10.3892 7.44171 10.7239 7.03015 10.7276C6.23626 10.7348 5.55975 11.0032 5.08741 11.4538C4.6215 11.8983 4.30469 12.5665 4.30469 13.4776C4.30469 14.5868 4.96171 15.5442 5.91 15.9788C6.32326 16.1443 6.73055 16.2054 7.02093 16.2054H9.97467C10.3889 16.2054 10.7247 16.5411 10.7247 16.9554C10.7247 17.3696 10.3889 17.7054 9.97467 17.7054H7.02093C6.54129 17.7054 5.93604 17.6082 5.33235 17.3633C5.32333 17.3596 5.31438 17.3558 5.30551 17.3517C3.83273 16.6862 2.80469 15.2027 2.80469 13.4776C2.80469 12.1942 3.26313 11.121 4.05203 10.3685C4.67424 9.77491 5.47058 9.41038 6.33601 9.28087C6.46205 8.54133 6.7837 7.68381 7.34875 6.93711Z" fill="black"/>
</svg>