<svg width="25" height="25" viewBox="0 0 25 25" fill="none" xmlns="http://www.w3.org/2000/svg">
<path fill-rule="evenodd" clip-rule="evenodd" d="M7.8472 6.04892C8.74453 4.86287 10.1805 3.91406 12.25 3.91406C14.3195 3.91406 15.7555 4.86287 16.6528 6.04891C17.3317 6.94619 17.7065 7.98168 17.8401 8.8553C18.8802 8.98617 19.8332 9.41271 20.5697 10.1182C21.4724 10.9831 22 12.22 22 13.7031C22 15.6883 20.8175 17.3957 19.1221 18.1607C18.7446 18.331 18.3004 18.1631 18.1301 17.7855C17.9597 17.408 18.1277 16.9638 18.5052 16.7934C19.6821 16.2624 20.5 15.0779 20.5 13.7031C20.5 12.5901 20.1125 11.7575 19.532 11.2014C18.9459 10.6399 18.1132 10.3129 17.1463 10.312C16.7324 10.3117 16.397 9.976 16.397 9.56204C16.397 8.90409 16.1268 7.83973 15.4566 6.95394C14.8096 6.09875 13.7971 5.41406 12.25 5.41406C10.7029 5.41406 9.69043 6.09874 9.04342 6.95394C8.37325 7.83974 8.10303 8.90409 8.10303 9.56204C8.10303 9.97355 7.77146 10.3082 7.35997 10.312C6.39013 10.321 5.55504 10.6493 4.96808 11.2095C4.38754 11.7635 4 12.5911 4 13.7031C4 15.0781 4.81711 16.2624 5.99461 16.7933C6.37221 16.9636 6.54029 17.4077 6.37003 17.7853C6.19976 18.1629 5.75563 18.331 5.37803 18.1608C3.68137 17.3957 2.5 15.688 2.5 13.7031C2.5 12.219 3.029 10.9866 3.93249 10.1244C4.66944 9.42105 5.62192 8.99578 6.65927 8.8597C6.79228 7.98516 7.16721 6.9477 7.8472 6.04892Z" fill="black"/>
<path fill-rule="evenodd" clip-rule="evenodd" d="M10.768 16.0391C10.3689 16.0391 10.0449 16.3632 10.0449 16.7621V18.429C10.0449 18.8279 10.3689 19.152 10.768 19.152H13.7365C14.1357 19.152 14.4596 18.8279 14.4596 18.429V16.7621C14.4596 16.3632 14.1357 16.0391 13.7365 16.0391H10.768ZM8.54492 16.7621C8.54492 15.5349 9.54036 14.5391 10.768 14.5391H13.7365C14.9642 14.5391 15.9596 15.5349 15.9596 16.7621V18.429C15.9596 19.6562 14.9642 20.652 13.7365 20.652H10.768C9.54036 20.652 8.54492 19.6562 8.54492 18.429V16.7621Z" fill="black"/>
<path fill-rule="evenodd" clip-rule="evenodd" d="M12.2185 11.7229C13.6126 11.7047 14.7541 12.8212 14.7721 14.2132L14.7722 14.2228L14.7721 15.3188C14.7721 15.733 14.4363 16.0688 14.0221 16.0688C13.6079 16.0688 13.2721 15.733 13.2721 15.3188V14.2283C13.2626 13.6644 12.7999 13.2153 12.2379 13.2228C11.6872 13.2296 11.241 13.6709 11.2285 14.2222V15.3188C11.2285 15.733 10.8927 16.0688 10.4785 16.0688C10.0643 16.0688 9.72852 15.733 9.72852 15.3188V14.2018C9.75212 12.8379 10.8547 11.7403 12.2185 11.7229Z" fill="black"/>
</svg>