<svg width="25" height="24" viewBox="0 0 25 24" fill="none" xmlns="http://www.w3.org/2000/svg">
<path fill-rule="evenodd" clip-rule="evenodd" d="M11.96 18.927C11.9591 17.5065 13.1107 16.3555 14.5305 16.3555H19.4306C20.8499 16.3555 22.0004 17.506 22.0004 18.9253C22.0004 20.3446 20.8499 21.4952 19.4306 21.4952H14.5303C13.1118 21.4952 11.9608 20.3462 11.96 18.927ZM14.5305 17.8555C13.9389 17.8555 13.4596 18.335 13.46 18.9261C13.4603 19.5165 13.9392 19.9952 14.5303 19.9952H19.4306C20.0215 19.9952 20.5004 19.5162 20.5004 18.9253C20.5004 18.3345 20.0215 17.8555 19.4306 17.8555H14.5305Z" fill="black"/>
<path fill-rule="evenodd" clip-rule="evenodd" d="M11.959 15.2863C11.9582 13.8659 13.1097 12.7148 14.5295 12.7148H19.4296C20.8489 12.7148 21.9995 13.8654 21.9995 15.2847C21.9995 16.704 20.8489 17.8545 19.4296 17.8545H14.5293C13.1108 17.8545 11.9598 16.7055 11.959 15.2863ZM14.5295 14.2148C13.9379 14.2148 13.4586 14.6944 13.459 15.2855C13.4593 15.8759 13.9382 16.3545 14.5293 16.3545H19.4296C20.0205 16.3545 20.4995 15.8755 20.4995 15.2847C20.4995 14.6938 20.0205 14.2148 19.4296 14.2148H14.5295Z" fill="black"/>
<path fill-rule="evenodd" clip-rule="evenodd" d="M5.94148 3.96062C6.55562 3.14902 7.54251 2.5 8.94838 2.5C10.3543 2.5 11.3412 3.14902 11.9553 3.96062C12.3641 4.50088 12.611 5.11507 12.7244 5.66559C13.3561 5.78364 13.9395 6.06447 14.4038 6.50771C15.035 7.11014 15.3958 7.96484 15.3958 8.97268C15.3958 10.3384 14.5846 11.5193 13.4149 12.0483C13.4048 12.0528 13.3946 12.0572 13.3844 12.0613C12.9026 12.254 12.4253 12.327 12.0461 12.327H5.84595C5.46321 12.327 4.98585 12.2499 4.51075 12.0571C4.50168 12.0534 4.49269 12.0495 4.48378 12.0455C3.31618 11.5175 2.5 10.3407 2.5 8.97268C2.5 7.96465 2.86121 7.10994 3.4926 6.50759C3.95713 6.06442 4.54057 5.78362 5.17237 5.66557C5.28576 5.11506 5.53268 4.50088 5.94148 3.96062ZM7.13763 4.86573C6.75071 5.37708 6.59782 5.99229 6.59782 6.3515C6.59782 6.76324 6.26589 7.09799 5.85416 7.10147C5.30152 7.10615 4.84286 7.29253 4.52801 7.59291C4.21956 7.88717 4 8.33698 4 8.97268C4 9.72447 4.44486 10.3755 5.08862 10.6727C5.37318 10.7859 5.65244 10.827 5.84595 10.827H12.0461C12.2428 10.827 12.5233 10.7875 12.8117 10.6747C13.4524 10.3781 13.8958 9.72608 13.8958 8.97268C13.8958 8.3368 13.6764 7.88697 13.3682 7.59278C13.0536 7.29251 12.5952 7.10614 12.0426 7.10147C11.6309 7.09799 11.2989 6.76324 11.2989 6.3515C11.2989 5.99229 11.1461 5.37708 10.7591 4.86573C10.3953 4.38497 9.83196 4 8.94838 4C8.06481 4 7.50142 4.38497 7.13763 4.86573Z" fill="black"/>
<path fill-rule="evenodd" clip-rule="evenodd" d="M8.50391 10.8281C8.91812 10.8281 9.25391 11.1639 9.25391 11.5781V16.8803C9.25391 17.6257 9.85819 18.23 10.6036 18.23H12.7111C13.1253 18.23 13.4611 18.5657 13.4611 18.98C13.4611 19.3942 13.1253 19.73 12.7111 19.73H10.6036C9.02976 19.73 7.75391 18.4541 7.75391 16.8803V11.5781C7.75391 11.1639 8.08969 10.8281 8.50391 10.8281Z" fill="black"/>
<path fill-rule="evenodd" clip-rule="evenodd" d="M7.76172 15.2109C7.76172 14.7967 8.09751 14.4609 8.51172 14.4609H12.6708C13.085 14.4609 13.4208 14.7967 13.4208 15.2109C13.4208 15.6252 13.085 15.9609 12.6708 15.9609H8.51172C8.09751 15.9609 7.76172 15.6252 7.76172 15.2109Z" fill="black"/>
</svg>