<svg width="25" height="24" viewBox="0 0 25 24" fill="none" xmlns="http://www.w3.org/2000/svg">
<path opacity="0.4" d="M18.6184 15.8805C20.0545 15.2315 21.0547 13.7857 21.0547 12.1063C21.0547 9.51041 19.2245 7.96727 16.9517 7.96533C16.9517 6.33268 15.6712 3.06738 12.0547 3.06738C8.43815 3.06738 7.15771 6.33268 7.15771 7.96533C4.88777 7.98576 3.05469 9.51041 3.05469 12.1063C3.05469 13.7857 4.05393 15.2315 5.49101 15.8805" stroke="black" stroke-width="1.5" stroke-linecap="round" stroke-linejoin="round"/>
<path d="M12.0548 20.8838L12.0636 20.9326" stroke="black" stroke-width="1.5" stroke-linecap="round" stroke-linejoin="round"/>
<path d="M7.63021 20.8838L8.92925 20.1338V18.6338L7.63021 17.8838L6.33118 18.6338V20.1338L7.63021 20.8838Z" stroke="black" stroke-width="1.5" stroke-linecap="round" stroke-linejoin="round"/>
<path d="M16.4797 20.8838L17.7787 20.1338V18.6338L16.4797 17.8838L15.1807 18.6338V20.1338L16.4797 20.8838Z" stroke="black" stroke-width="1.5" stroke-linecap="round" stroke-linejoin="round"/>
<path d="M12.0548 17.6826L13.3538 16.9326V15.4326L12.0548 14.6826L10.7557 15.4326V16.9326L12.0548 17.6826Z" stroke="black" stroke-width="1.5" stroke-linecap="round" stroke-linejoin="round"/>
</svg>