<svg width="25" height="24" viewBox="0 0 25 24" fill="none" xmlns="http://www.w3.org/2000/svg">
<path fill-rule="evenodd" clip-rule="evenodd" d="M15.3606 4.83008C18.3673 4.83008 20.8047 7.26745 20.8047 10.2742C20.8047 11.8334 20.1502 13.2385 19.0989 14.2319C18.7978 14.5164 18.7843 14.9911 19.0688 15.2921C19.3533 15.5932 19.828 15.6067 20.1291 15.3222C21.4678 14.0572 22.3047 12.2628 22.3047 10.2742C22.3047 6.43902 19.1957 3.33008 15.3606 3.33008C12.4736 3.33008 9.99934 5.09146 8.95142 7.59709C8.61232 7.52231 8.2603 7.48292 7.8996 7.48292C5.21107 7.48292 3.03173 9.66222 3.03173 12.3506C3.03173 12.7648 3.36752 13.1006 3.78173 13.1006C4.19594 13.1006 4.53173 12.7648 4.53173 12.3506C4.53173 10.4907 6.03946 8.98292 7.8996 8.98292C8.33935 8.98292 8.75767 9.06691 9.14106 9.21904C9.33702 9.2968 9.55666 9.28849 9.74618 9.19616C9.93571 9.10382 10.0776 8.93597 10.1372 8.73373C10.8017 6.47653 12.89 4.83008 15.3606 4.83008Z" fill="black"/>
<path fill-rule="evenodd" clip-rule="evenodd" d="M14.55 12.8418C13.4983 12.8418 12.5599 13.4153 12.0209 14.3071C11.8066 14.6616 11.3455 14.7753 10.991 14.561C10.6366 14.3467 10.5229 13.8856 10.7372 13.5312C11.5255 12.2269 12.9313 11.3418 14.55 11.3418C16.3562 11.3418 17.892 12.4397 18.6104 13.9985C18.7587 13.977 18.91 13.9658 19.0638 13.9658C20.8843 13.9658 22.305 15.4975 22.305 17.3176C22.305 19.1377 20.8843 20.6694 19.0638 20.6694H15.4954C15.0812 20.6694 14.7454 20.3336 14.7454 19.9194C14.7454 19.5052 15.0812 19.1694 15.4954 19.1694H19.0638C19.9951 19.1694 20.805 18.3714 20.805 17.3176C20.805 16.2639 19.9951 15.4658 19.0638 15.4658C18.8403 15.4658 18.6279 15.5103 18.4325 15.5913C18.2345 15.6733 18.0109 15.6668 17.8181 15.5733C17.6252 15.4797 17.4816 15.3082 17.4235 15.1019C17.0495 13.7752 15.8877 12.8418 14.55 12.8418Z" fill="black"/>
<path fill-rule="evenodd" clip-rule="evenodd" d="M4.39859 20.6155C4.00165 20.4972 3.7758 20.0794 3.89414 19.6825L4.37161 18.081C4.48996 17.6841 4.90768 17.4582 5.30463 17.5766C5.70158 17.6949 5.92743 18.1126 5.80908 18.5096L5.33162 20.1111C5.21327 20.508 4.79554 20.7339 4.39859 20.6155ZM8.68143 20.6163C8.28406 20.4994 8.05671 20.0824 8.17363 19.6851L8.5576 18.3801H7.5813C7.34291 18.3801 7.11872 18.2668 6.97737 18.0748C6.83602 17.8829 6.79434 17.6352 6.8651 17.4075L7.53821 15.2419C7.66116 14.8463 8.08148 14.6254 8.47702 14.7483C8.87257 14.8712 9.09356 15.2916 8.97062 15.6871L8.59981 16.8801H9.56007C9.79645 16.8801 10.019 16.9916 10.1606 17.1808C10.3022 17.3701 10.3463 17.6151 10.2796 17.8418L9.61263 20.1085C9.49571 20.5058 9.0788 20.7332 8.68143 20.6163ZM12.5363 19.0226C12.1346 18.9216 11.8908 18.5141 11.9919 18.1124L12.3938 16.5142C12.4948 16.1125 12.9024 15.8687 13.3041 15.9697C13.7058 16.0708 13.9495 16.4783 13.8485 16.88L13.4466 18.4782C13.3455 18.8799 12.938 19.1237 12.5363 19.0226ZM3.36503 16.9091C2.96425 16.8045 2.72415 16.3948 2.82876 15.994L3.14195 14.7941C3.24655 14.3933 3.65626 14.1532 4.05704 14.2578C4.45783 14.3624 4.69793 14.7722 4.59332 15.1729L4.28013 16.3729C4.17552 16.7736 3.76582 17.0137 3.36503 16.9091Z" fill="black"/>
</svg>