<svg width="24" height="24" viewBox="0 0 24 24" fill="none" xmlns="http://www.w3.org/2000/svg">
<path fill-rule="evenodd" clip-rule="evenodd" d="M17.5153 8.25171C17.4207 8.23999 17.3453 8.16618 17.3321 8.07186C17.0376 5.96432 15.3233 3.33203 12.0011 3.33203C8.43065 3.33203 6.96115 6.24149 6.6772 8.07442C6.66278 8.1675 6.58772 8.23981 6.49423 8.25126C4.13423 8.5403 2.53711 10.3491 2.53711 12.834C2.53711 14.647 3.60511 16.301 5.27611 17.056C5.58413 17.1809 5.87539 17.2644 6.13734 17.3203C6.26552 17.3477 6.37963 17.2404 6.37255 17.1095C6.36703 17.0076 6.36411 16.9047 6.36411 16.801C6.36411 13.704 8.88311 11.185 11.9811 11.185C13.5301 11.185 14.9341 11.815 15.9511 12.832C15.9561 12.837 15.9621 12.84 15.9671 12.845C15.9811 12.859 15.9911 12.876 16.0041 12.89C16.9891 13.902 17.5981 15.281 17.5981 16.801C17.5981 16.9067 17.5951 17.0117 17.5893 17.116C17.582 17.2464 17.6949 17.3541 17.823 17.3284C18.1005 17.2727 18.4119 17.1874 18.7481 17.053C20.3971 16.306 21.4631 14.651 21.4631 12.834C21.4631 10.351 19.87 8.54355 17.5153 8.25171Z" fill="black"/>
<path fill-rule="evenodd" clip-rule="evenodd" d="M11.9811 19.1687C11.6131 19.1687 11.2691 19.0777 10.9581 18.9267L14.1041 15.7747C14.2561 16.0857 14.3481 16.4317 14.3481 16.8017C14.3481 18.1067 13.2871 19.1687 11.9811 19.1687ZM11.9811 14.4347C12.3691 14.4347 12.7301 14.5377 13.0531 14.7037L9.88514 17.8777C9.71714 17.5537 9.61414 17.1907 9.61414 16.8017C9.61414 15.4967 10.6751 14.4347 11.9811 14.4347ZM14.7311 14.0837C14.7281 14.0817 14.7251 14.0807 14.7221 14.0777C14.0211 13.3727 13.0521 12.9347 11.9811 12.9347C9.84814 12.9347 8.11414 14.6687 8.11414 16.8017C8.11414 17.8757 8.55514 18.8477 9.26514 19.5487C9.26714 19.5507 9.26814 19.5547 9.27014 19.5567C9.27714 19.5637 9.28614 19.5657 9.29214 19.5717C9.98914 20.2477 10.9351 20.6687 11.9811 20.6687C14.1141 20.6687 15.8481 18.9337 15.8481 16.8017C15.8481 15.7537 15.4261 14.8067 14.7481 14.1097C14.7411 14.1017 14.7391 14.0907 14.7311 14.0837Z" fill="black"/>
</svg>