<svg width="24" height="24" viewBox="0 0 24 24" fill="none" xmlns="http://www.w3.org/2000/svg">
<path fill-rule="evenodd" clip-rule="evenodd" d="M17.6055 15.8021C17.3955 14.5181 16.3415 12.9591 14.3365 12.9591C12.3325 12.9591 11.2775 14.5181 11.0685 15.8021C9.63847 16.0071 8.67547 17.1201 8.67547 18.6421C8.67547 18.7261 8.68647 18.8071 8.69447 18.8901H6.38247C5.74747 18.8901 5.23047 18.3731 5.23047 17.7381V14.4101C5.23047 13.9961 4.89547 13.6601 4.48047 13.6601C4.06647 13.6601 3.73047 13.9961 3.73047 14.4101V17.7381C3.73047 19.2001 4.92047 20.3901 6.38247 20.3901H9.28147C9.56647 20.7591 9.93747 21.0671 10.3845 21.2691C10.7525 21.4181 11.1575 21.5001 11.5265 21.5001H17.1415C17.5125 21.5001 17.9195 21.4191 18.3075 21.2641C19.3335 20.8001 19.9965 19.7701 19.9965 18.6421C19.9965 17.1201 19.0345 16.0071 17.6055 15.8021Z" fill="black"/>
<path fill-rule="evenodd" clip-rule="evenodd" d="M17.6181 6.055H14.4221C14.0231 5.684 13.5121 5.43 12.9111 5.344C12.7011 4.059 11.6471 2.5 9.64212 2.5C7.63712 2.5 6.58312 4.059 6.37312 5.344C4.94412 5.549 3.98212 6.662 3.98212 8.183C3.98212 9.31 4.64512 10.338 5.69112 10.81C6.05812 10.96 6.46412 11.042 6.83312 11.042H12.4481C12.8181 11.042 13.2241 10.961 13.6141 10.805C14.6391 10.342 15.3021 9.312 15.3021 8.183C15.3021 7.964 15.2761 7.756 15.2381 7.555H17.6181C18.2531 7.555 18.7691 8.072 18.7691 8.706V12.034C18.7691 12.449 19.1051 12.784 19.5191 12.784C19.9331 12.784 20.2691 12.449 20.2691 12.034V8.706C20.2691 7.244 19.0801 6.055 17.6181 6.055Z" fill="black"/>
</svg>