<svg width="24" height="24" viewBox="0 0 24 24" fill="none" xmlns="http://www.w3.org/2000/svg">
<path fill-rule="evenodd" clip-rule="evenodd" d="M17.7441 8.54509C17.6036 8.52613 17.4913 8.41793 17.4679 8.27814C17.1516 6.38998 15.6346 3.46094 12.0004 3.46094C8.36707 3.46094 6.851 6.3893 6.53399 8.27824C6.51053 8.41798 6.39826 8.52611 6.25784 8.54505C3.86707 8.86741 2.25342 10.7163 2.25342 13.2479C2.25342 15.1149 3.35142 16.8189 5.07142 17.5969C5.57955 17.7983 6.11729 17.921 6.62266 17.9601C6.77363 17.9718 6.90172 17.8599 6.93654 17.7125C6.99339 17.4719 7.08173 17.2396 7.20756 17.0256C7.27394 16.9128 7.27415 16.771 7.20635 16.659C6.75659 15.9159 6.70747 14.9594 7.15942 14.1459C7.64171 13.2821 8.56022 12.816 9.48273 12.866C9.6177 12.8733 9.7465 12.8021 9.81196 12.6839C10.2382 11.914 11.0578 11.3929 11.9994 11.3929C12.9408 11.3929 13.7621 11.9137 14.1886 12.6833C14.2542 12.8018 14.3834 12.873 14.5187 12.8654C15.4427 12.8133 16.3611 13.2812 16.8434 14.1459C17.2953 14.9594 17.2462 15.9158 16.7965 16.6589C16.7287 16.771 16.729 16.9128 16.7955 17.0257C16.9221 17.2407 17.011 17.4745 17.0678 17.7167C17.1024 17.8644 17.2304 17.9768 17.3817 17.9652C17.7734 17.9352 18.3281 17.844 18.9534 17.5879C20.6494 16.8199 21.7464 15.1169 21.7464 13.2479C21.7464 10.7164 20.1329 8.86756 17.7441 8.54509Z" fill="black"/>
<path fill-rule="evenodd" clip-rule="evenodd" d="M15.3139 14.9975C15.1119 14.6355 14.6589 14.5055 14.2929 14.7065L12.7509 15.5665V13.8925C12.7509 13.4775 12.4149 13.1425 12.0009 13.1425C11.5859 13.1425 11.2509 13.4785 11.2509 13.8935L11.2519 15.5655L9.70991 14.7065C9.34391 14.5055 8.89091 14.6355 8.68891 14.9975C8.48791 15.3595 8.61791 15.8155 8.97891 16.0175L10.4599 16.8425L8.97891 17.6665C8.61791 17.8685 8.48791 18.3255 8.68891 18.6865C8.89091 19.0485 9.34391 19.1795 9.70991 18.9775L11.2519 18.1185L11.2509 19.7915C11.2509 20.2065 11.5859 20.5425 12.0009 20.5425C12.4149 20.5425 12.7509 20.2065 12.7509 19.7925V18.1185L14.2929 18.9775C14.6589 19.1795 15.1119 19.0485 15.3139 18.6865C15.5149 18.3255 15.3849 17.8685 15.0239 17.6665L13.5429 16.8425L15.0239 16.0175C15.3849 15.8155 15.5149 15.3595 15.3139 14.9975Z" fill="black"/>
</svg>