<svg width="25" height="24" viewBox="0 0 25 24" fill="none" xmlns="http://www.w3.org/2000/svg">
<path fill-rule="evenodd" clip-rule="evenodd" d="M15.8057 9.26904C18.5666 9.26904 20.8047 11.5072 20.8047 14.2681C20.8047 17.029 18.5666 19.2671 15.8057 19.2671H8.88077C7.18403 19.2671 5.80878 17.8917 5.80878 16.1953C5.80878 14.4988 7.18404 13.1235 8.88077 13.1235C9.28199 13.1235 9.66351 13.2001 10.0131 13.3388C10.2091 13.4166 10.4287 13.4083 10.6183 13.316C10.8078 13.2236 10.9497 13.0558 11.0092 12.8535C11.6194 10.7808 13.5371 9.26904 15.8057 9.26904ZM22.3047 14.2681C22.3047 10.6787 19.395 7.76904 15.8057 7.76904C13.1196 7.76904 10.8153 9.39823 9.82473 11.7213C9.51978 11.6572 9.20397 11.6235 8.88077 11.6235C6.35566 11.6235 4.30878 13.6703 4.30878 16.1953C4.30878 18.7202 6.35567 20.7671 8.88077 20.7671H15.8057C19.395 20.7671 22.3047 17.8574 22.3047 14.2681Z" fill="black"/>
<path fill-rule="evenodd" clip-rule="evenodd" d="M12.0336 4.7334C14.1244 4.7334 15.8193 6.42833 15.8193 8.51917C15.8193 8.93338 16.1551 9.26917 16.5693 9.26917C16.9835 9.26917 17.3193 8.93338 17.3193 8.51917C17.3193 5.5999 14.9528 3.2334 12.0336 3.2334C9.8942 3.2334 8.05292 4.50396 7.22086 6.33063C7.0092 6.29367 6.7917 6.27442 6.57004 6.27442C4.49041 6.27442 2.80462 7.96017 2.80462 10.0397C2.80462 12.1192 4.49042 13.8049 6.57004 13.8049C6.98426 13.8049 7.32004 13.4692 7.32004 13.0549C7.32004 12.6407 6.98426 12.3049 6.57004 12.3049C5.31878 12.3049 4.30462 11.2907 4.30462 10.0397C4.30462 8.78864 5.3188 7.77442 6.57004 7.77442C6.86625 7.77442 7.14748 7.83096 7.40508 7.93318C7.60104 8.01093 7.82067 8.00263 8.0102 7.91029C8.19972 7.81795 8.34163 7.6501 8.40117 7.44786C8.86332 5.87807 10.3158 4.7334 12.0336 4.7334Z" fill="black"/>
</svg>