<svg width="24" height="24" viewBox="0 0 24 24" fill="none" xmlns="http://www.w3.org/2000/svg">
<path d="M18.5637 16.5435C20.0008 15.8946 21 14.4487 21 12.7694C21 10.1735 19.1698 8.63036 16.897 8.62939C16.897 6.99674 15.6165 3.73047 12 3.73047C8.38346 3.73047 7.10303 6.99674 7.10303 8.62939C4.83308 8.64885 3 10.1735 3 12.7694C3 14.4487 3.99924 15.8946 5.43632 16.5435" stroke="black" stroke-width="1.5" stroke-linecap="round" stroke-linejoin="round"/>
<path fill-rule="evenodd" clip-rule="evenodd" d="M14.7524 14.8179C14.7524 13.8482 14.0901 13.4609 13.1365 13.4609H10.8978C9.97374 13.4609 9.28125 13.8228 9.28125 14.7532V19.9375C9.28088 20.1219 9.43035 20.2717 9.61516 20.2717C9.6726 20.2717 9.72892 20.257 9.77899 20.229L12.0277 18.9685L14.2554 20.2268C14.4162 20.3174 14.6202 20.2607 14.7108 20.0998C14.7391 20.0498 14.7542 19.9934 14.7542 19.9356L14.7524 14.8179Z" stroke="black" stroke-width="1.5" stroke-linecap="round" stroke-linejoin="round"/>
</svg>