<svg width="25" height="24" viewBox="0 0 25 24" fill="none" xmlns="http://www.w3.org/2000/svg">
<path opacity="0.4" fill-rule="evenodd" clip-rule="evenodd" d="M18.0148 8.3728C17.9203 8.36108 17.8448 8.28728 17.8316 8.19295C17.5372 6.08542 15.8228 3.45312 12.5006 3.45312C8.93016 3.45312 7.46066 6.36258 7.17672 8.19551C7.1623 8.28859 7.08723 8.36091 6.99374 8.37236C4.63374 8.6614 3.03662 10.4702 3.03662 12.9551C3.03662 14.7681 4.10462 16.4221 5.77562 17.1771C6.06976 17.2962 6.34679 17.3775 6.5971 17.433C6.80111 17.4782 6.91378 17.1866 6.77708 17.0285C6.75861 17.0072 6.74045 16.9854 6.72262 16.9631C5.85962 15.8861 6.03362 14.3121 7.11162 13.4491C10.1276 11.0341 14.5036 11.0351 17.5186 13.4491C18.5966 14.3121 18.7706 15.8861 17.9076 16.9631C17.87 17.0099 17.8309 17.0545 17.7904 17.0971C17.6495 17.2455 17.7432 17.5321 17.9463 17.5068C18.3901 17.4513 18.8247 17.3433 19.2476 17.1741C20.8976 16.4271 21.9636 14.7711 21.9636 12.9551C21.9636 10.4721 20.3696 8.66465 18.0148 8.3728Z" fill="black"/>
<path fill-rule="evenodd" clip-rule="evenodd" d="M12.3154 20.5464C11.9014 20.5464 11.5654 20.2344 11.5654 19.8194V19.7734C11.5654 19.3594 11.9014 19.0234 12.3154 19.0234C12.7294 19.0234 13.0654 19.3594 13.0654 19.7734C13.0654 20.1874 12.7294 20.5464 12.3154 20.5464Z" fill="black"/>
<path fill-rule="evenodd" clip-rule="evenodd" d="M10.4648 18.4048C10.2528 18.4048 10.0428 18.3158 9.89485 18.1418C9.62485 17.8268 9.66285 17.3528 9.97885 17.0848C11.3078 15.9518 13.3188 15.9468 14.6558 17.0758C14.9728 17.3428 15.0138 17.8158 14.7458 18.1328C14.4788 18.4488 14.0038 18.4878 13.6898 18.2218C12.9028 17.5618 11.7288 17.5628 10.9508 18.2248C10.8108 18.3458 10.6378 18.4048 10.4648 18.4048Z" fill="black"/>
<path fill-rule="evenodd" clip-rule="evenodd" d="M15.956 16.1527C15.791 16.1527 15.626 16.0987 15.487 15.9877C13.648 14.5147 10.979 14.5157 9.14303 15.9877C8.81903 16.2467 8.34803 16.1957 8.08903 15.8717C7.82903 15.5487 7.88203 15.0757 8.20503 14.8177C10.585 12.9107 14.043 12.9087 16.425 14.8177C16.748 15.0757 16.801 15.5487 16.541 15.8717C16.393 16.0567 16.176 16.1527 15.956 16.1527Z" fill="black"/>
</svg>