<svg width="25" height="25" viewBox="0 0 25 25" fill="none" xmlns="http://www.w3.org/2000/svg">
<path d="M5.6853 18.1091C5.5788 18.109 5.47351 18.0866 5.3763 18.0431C4.51937 17.6546 3.79239 17.0277 3.28221 16.2372C2.77204 15.4467 2.50024 14.5259 2.4993 13.5851C2.44345 12.3998 2.84265 11.238 3.61521 10.3373C4.38778 9.43666 5.47532 8.86528 6.6553 8.74008C6.82386 7.37533 7.48555 6.11928 8.51577 5.20847C9.546 4.29765 10.8737 3.79492 12.2488 3.79492C13.6239 3.79492 14.9516 4.29765 15.9818 5.20847C17.012 6.11928 17.6737 7.37533 17.8423 8.74008C19.025 8.86063 20.1161 9.43123 20.8899 10.3338C21.6637 11.2364 22.0609 12.4018 21.9993 13.5891C21.9984 14.5299 21.7266 15.4506 21.2164 16.2412C20.7062 17.0317 19.9792 17.6586 19.1223 18.0471C18.941 18.1292 18.7346 18.1359 18.5483 18.0657C18.3621 17.9956 18.2114 17.8544 18.1293 17.6731C18.0472 17.4918 18.0405 17.2853 18.1106 17.0991C18.1808 16.9129 18.322 16.7622 18.5033 16.6801C19.0982 16.4113 19.6032 15.9768 19.9579 15.4287C20.3125 14.8806 20.5019 14.2419 20.5033 13.5891C20.5307 13.1398 20.4631 12.6898 20.3047 12.2684C20.1464 11.847 19.9009 11.4638 19.5844 11.1438C19.2678 10.8238 18.8873 10.5741 18.4677 10.4111C18.0481 10.2482 17.5989 10.1756 17.1493 10.1981C17.0509 10.1981 16.9534 10.1787 16.8624 10.141C16.7715 10.1033 16.6889 10.048 16.6193 9.97836C16.5498 9.90871 16.4946 9.826 16.457 9.73502C16.4194 9.64403 16.4002 9.54653 16.4003 9.44809C16.4003 8.34824 15.9634 7.29343 15.1857 6.51572C14.408 5.738 13.3532 5.30109 12.2533 5.30109C11.1534 5.30109 10.0986 5.738 9.32093 6.51572C8.54321 7.29343 8.1063 8.34824 8.1063 9.44809C8.10631 9.64597 8.02812 9.83581 7.88876 9.97629C7.7494 10.1168 7.56017 10.1965 7.3623 10.1981C6.91307 10.1779 6.46459 10.252 6.04576 10.4157C5.62693 10.5794 5.24705 10.829 4.93058 11.1485C4.61412 11.4679 4.36811 11.8502 4.2084 12.2705C4.04869 12.6909 3.97882 13.1401 4.0033 13.5891C4.00472 14.2419 4.19407 14.8806 4.54873 15.4287C4.90339 15.9768 5.40835 16.4113 6.0033 16.6801C6.15938 16.7509 6.2865 16.873 6.3635 17.0262C6.4405 17.1793 6.46273 17.3542 6.42649 17.5217C6.39025 17.6892 6.29773 17.8392 6.16432 17.9468C6.03092 18.0544 5.86469 18.1131 5.6933 18.1131L5.6853 18.1091Z" fill="black"/>
<path d="M12.2506 20.7697C12.1767 20.7697 12.1032 20.7586 12.0326 20.7367C11.8876 20.6927 8.46962 19.6227 8.46962 16.5717C8.46962 15.7897 8.45861 15.2587 8.45161 14.8917C8.43361 14.0077 8.42762 13.7407 8.82162 13.3477C9.87882 12.725 11.0409 12.3007 12.2506 12.0957C13.462 12.3004 14.6253 12.7261 15.6826 13.3517C16.0716 13.7437 16.0656 14.0117 16.0486 14.8977C16.0416 15.2657 16.0306 15.7977 16.0306 16.5717C16.0306 19.6227 12.6126 20.6927 12.4676 20.7367C12.3974 20.7586 12.3242 20.7697 12.2506 20.7697ZM9.94162 14.3937C9.94162 14.5007 9.94161 14.6477 9.95061 14.8607C9.95861 15.2347 9.96962 15.7747 9.96962 16.5717C9.96962 18.1717 11.6386 18.9807 12.2486 19.2227C12.8566 18.9787 14.5306 18.1617 14.5306 16.5717C14.5306 15.7797 14.5416 15.2417 14.5486 14.8717C14.5536 14.6497 14.5596 14.4977 14.5586 14.3897C13.8039 14.0596 13.0224 13.7947 12.2226 13.5977C11.4424 13.8022 10.6797 14.0684 9.94162 14.3937Z" fill="black"/>
</svg>