<svg width="25" height="24" viewBox="0 0 25 24" fill="none" xmlns="http://www.w3.org/2000/svg">
<path fill-rule="evenodd" clip-rule="evenodd" d="M7.84725 5.67322C8.74466 4.48731 10.1807 3.53906 12.25 3.53906C14.3193 3.53906 15.7553 4.48731 16.6528 5.67322C17.3318 6.57053 17.7066 7.6062 17.8401 8.48027C18.8802 8.61113 19.8332 9.03768 20.5697 9.74319C21.4724 10.6081 22 11.845 22 13.328C22 15.3127 20.8173 17.0197 19.1225 17.7856C18.7451 17.9562 18.3008 17.7885 18.1302 17.411C17.9596 17.0335 18.1274 16.5893 18.5048 16.4187C19.6822 15.8866 20.5 14.702 20.5 13.328C20.5 12.2151 20.1125 11.3825 19.532 10.8263C18.9459 10.2649 18.1132 9.93784 17.1463 9.93701C16.7324 9.93665 16.397 9.60097 16.397 9.18701C16.397 8.52816 16.1267 7.46386 15.4566 6.57837C14.8097 5.72346 13.7972 5.03906 12.25 5.03906C10.7028 5.03906 9.69031 5.72346 9.04337 6.57837C8.37329 7.46386 8.10303 8.52816 8.10303 9.18701C8.10303 9.59859 7.77134 9.93327 7.35978 9.93698C6.39009 9.94571 5.55506 10.274 4.96811 10.8342C4.38755 11.3884 4 12.2161 4 13.328C4 14.7022 4.81699 15.8866 5.995 16.4186C6.37251 16.5891 6.54034 17.0333 6.36986 17.4108C6.19938 17.7883 5.75515 17.9562 5.37765 17.7857C3.6815 17.0197 2.5 15.3125 2.5 13.328C2.5 11.844 3.02899 10.6115 3.93246 9.74915C4.66938 9.04581 5.62184 8.62048 6.65922 8.48455C6.79219 7.60958 7.16711 6.572 7.84725 5.67322Z" fill="black"/>
<path fill-rule="evenodd" clip-rule="evenodd" d="M12.2402 18.9141C12.6544 18.9141 12.9902 19.2498 12.9902 19.6641V19.7108C12.9902 20.125 12.6544 20.4608 12.2402 20.4608C11.826 20.4608 11.4902 20.125 11.4902 19.7108V19.6641C11.4902 19.2498 11.826 18.9141 12.2402 18.9141Z" fill="black"/>
<path fill-rule="evenodd" clip-rule="evenodd" d="M13.6152 18.1148C12.8265 17.4499 11.658 17.4518 10.8775 18.1178C10.5624 18.3867 10.089 18.3492 9.82013 18.0341C9.55125 17.7191 9.58871 17.2457 9.9038 16.9768C11.2463 15.8311 13.236 15.8331 14.5821 16.9681C14.8988 17.2351 14.939 17.7083 14.672 18.0249C14.405 18.3416 13.9318 18.3818 13.6152 18.1148Z" fill="black"/>
<path fill-rule="evenodd" clip-rule="evenodd" d="M15.4136 15.8805C13.5636 14.3992 10.9184 14.3992 9.06842 15.8805C8.74509 16.1394 8.2731 16.0872 8.01419 15.7639C7.75529 15.4406 7.80752 14.9686 8.13085 14.7097C10.5289 12.7895 13.9531 12.7895 16.3511 14.7097C16.6745 14.9686 16.7267 15.4406 16.4678 15.7639C16.2089 16.0872 15.7369 16.1394 15.4136 15.8805Z" fill="black"/>
</svg>