<svg width="25" height="24" viewBox="0 0 25 24" fill="none" xmlns="http://www.w3.org/2000/svg">
<path opacity="0.4" fill-rule="evenodd" clip-rule="evenodd" d="M18.0158 8.75952C17.9213 8.7478 17.8458 8.67399 17.8326 8.57967C17.5382 6.47213 15.8238 3.83984 12.5016 3.83984C8.93012 3.83984 7.46155 6.74941 7.17678 8.58233C7.16233 8.67537 7.08728 8.74762 6.99383 8.75907C4.63378 9.04807 3.03662 10.8569 3.03662 13.3418C3.03662 15.1548 4.10462 16.8088 5.77662 17.5638C6.35096 17.7969 6.86783 17.8876 7.24187 17.9206C7.39784 17.9344 7.49718 17.7634 7.43565 17.6194C7.04664 16.7091 7.21864 15.6169 7.96162 14.8748C8.46199 14.3736 9.12215 14.1386 9.77825 14.1533C9.89723 14.156 10.0006 14.0639 10.0006 13.9449V12.4188C10.0006 11.0378 11.1196 9.91884 12.5006 9.91884C13.8816 9.91884 15.0006 11.0378 15.0006 12.4188V13.9449C15.0006 14.0639 15.104 14.156 15.223 14.1533C15.8789 14.1386 16.5383 14.3736 17.0386 14.8748C17.7813 15.6166 17.9543 16.7082 17.566 17.6183C17.5045 17.7626 17.6043 17.934 17.7605 17.9202C18.138 17.8869 18.6608 17.7958 19.2486 17.5608C20.8976 16.8138 21.9636 15.1578 21.9636 13.3418C21.9636 10.8588 20.3705 9.05137 18.0158 8.75952Z" fill="black"/>
<path fill-rule="evenodd" clip-rule="evenodd" d="M14.7408 16.111L13.2498 17.602V12.418C13.2498 12.004 12.9138 11.668 12.4998 11.668C12.0858 11.668 11.7498 12.004 11.7498 12.418V17.602L10.2598 16.111C9.96675 15.818 9.49175 15.818 9.19875 16.111C8.90575 16.404 8.90575 16.879 9.19875 17.172L11.9678 19.941C12.0378 20.011 12.1218 20.067 12.2158 20.106C12.2638 20.126 12.3158 20.127 12.3668 20.136C12.4118 20.145 12.4528 20.163 12.4998 20.163C12.5478 20.163 12.5888 20.145 12.6338 20.136C12.6838 20.127 12.7358 20.126 12.7848 20.106C12.8778 20.067 12.9618 20.011 13.0328 19.941L15.8018 17.172C16.0948 16.879 16.0948 16.404 15.8018 16.111C15.5088 15.818 15.0338 15.818 14.7408 16.111Z" fill="black"/>
</svg>