<svg width="24" height="24" viewBox="0 0 24 24" fill="none" xmlns="http://www.w3.org/2000/svg">
<path opacity="0.4" fill-rule="evenodd" clip-rule="evenodd" d="M15 2.5H9C6.519 2.5 4.5 4.518 4.5 7V17C4.5 19.481 6.519 21.5 9 21.5H15C17.481 21.5 19.5 19.481 19.5 17V7C19.5 4.518 17.481 2.5 15 2.5Z" fill="black"/>
<path fill-rule="evenodd" clip-rule="evenodd" d="M16 6.76086C16.414 6.76086 16.75 6.42486 16.75 6.01086V6.00086C16.75 5.58686 16.414 5.25586 16 5.25586C15.586 5.25586 15.25 5.59686 15.25 6.01086C15.25 6.42486 15.586 6.76086 16 6.76086ZM13.645 15.0249C14.647 15.0599 15.527 14.5279 15.949 13.6649C16.248 13.0619 16.277 12.3479 16.029 11.7059C15.781 11.0639 15.278 10.5549 14.651 10.3089C14.562 10.2739 14.471 10.2449 14.378 10.2199C14.453 9.72286 14.378 9.20486 14.142 8.74786C13.635 7.74986 12.482 7.22386 11.394 7.48886C10.547 7.69386 9.87 8.33986 9.63 9.17086C9.527 9.51586 9.506 9.87486 9.56 10.2239C9.448 10.2539 9.338 10.2909 9.23 10.3369C8.043 10.8429 7.447 12.2339 7.902 13.4369C8.255 14.3769 9.165 15.0119 10.169 15.0189L10.2971 15.0087C10.6458 14.9813 10.9365 14.9585 11.224 14.8719C11.225 15.6699 11.227 15.8859 11.227 15.8859C11.23 16.2979 11.565 16.6289 11.977 16.6289H11.983C12.397 16.6249 12.73 16.2869 12.727 15.8729L12.727 15.8685C12.7267 15.8346 12.7249 15.5982 12.724 14.8799C13.006 14.9689 13.313 15.0169 13.645 15.0249ZM8 18.7609C8.414 18.7609 8.75 18.4249 8.75 18.0109V18.0009C8.75 17.5869 8.414 17.2559 8 17.2559C7.586 17.2559 7.25 17.5969 7.25 18.0109C7.25 18.4249 7.586 18.7609 8 18.7609ZM13.4695 11.6848C13.6745 11.6208 13.9045 11.6278 14.1035 11.7058C14.3405 11.7988 14.5335 11.9958 14.6295 12.2468C14.7265 12.4978 14.7175 12.7718 14.6035 13.0028C14.4425 13.3308 14.0735 13.5438 13.6915 13.5258C13.1675 13.5138 12.8335 13.3638 12.5765 13.0248C12.5605 13.0038 12.5445 12.9848 12.5275 12.9658C12.5065 12.9438 12.4865 12.9228 12.4635 12.9038L12.4625 12.9028C12.3345 12.7928 12.1705 12.7248 11.9905 12.7208H11.9645C11.7765 12.7228 11.6055 12.7938 11.4745 12.9098L11.4735 12.9108C11.4545 12.9278 11.4355 12.9468 11.4175 12.9658L11.4165 12.9668C11.3905 12.9958 11.3675 13.0258 11.3465 13.0578C11.0835 13.4378 10.5685 13.5188 10.1815 13.5188H10.1755C9.7975 13.5168 9.4405 13.2658 9.3055 12.9088C9.1335 12.4538 9.3695 11.9088 9.8195 11.7168C10.0145 11.6328 10.2385 11.6258 10.5065 11.6938C10.8155 11.7748 11.1535 11.6438 11.3275 11.3688C11.5005 11.0938 11.4775 10.7378 11.2695 10.4878C11.0545 10.2298 10.9785 9.89583 11.0695 9.59283C11.1605 9.27783 11.4255 9.02483 11.7495 8.94583C12.1655 8.84583 12.6135 9.05283 12.8065 9.43183C12.9795 9.76783 12.9265 10.1888 12.6755 10.4798C12.4565 10.7338 12.4325 11.1018 12.6175 11.3828C12.8015 11.6638 13.1475 11.7878 13.4695 11.6848Z" fill="black"/>
</svg>