<svg width="24" height="24" viewBox="0 0 24 24" fill="none" xmlns="http://www.w3.org/2000/svg">
<path d="M11.9993 21.5159V2.48442C12.3514 2.48281 12.707 2.52382 13.0587 2.61085C14.5717 2.98385 15.8247 4.18385 16.2497 5.66785C16.5587 6.71285 16.4547 7.83185 15.9807 8.82085C16.6537 8.78885 17.2937 8.90385 17.8847 9.15585C20.0357 10.0779 21.1127 12.5979 20.2857 14.7739C19.6517 16.4729 18.0017 17.6239 16.1817 17.6359C15.6757 17.6469 14.9907 17.6019 14.2677 17.4059C14.6667 19.1889 16.1057 20.6459 16.1217 20.6619C16.2647 20.8049 16.3077 21.0199 16.2307 21.2069C16.1537 21.3939 15.9707 21.5159 15.7687 21.5159H11.9993Z" fill="black"/>
<path opacity="0.4" d="M11.9993 21.5159V2.48442C11.6472 2.48281 11.2916 2.52382 10.9399 2.61085C9.42687 2.98385 8.17387 4.18385 7.74887 5.66785C7.43987 6.71285 7.54387 7.83185 8.01787 8.82085C7.34487 8.78885 6.70487 8.90385 6.11387 9.15585C3.96287 10.0779 2.88587 12.5979 3.71287 14.7739C4.34687 16.4729 5.99687 17.6239 7.81687 17.6359C8.32287 17.6469 9.00787 17.6019 9.73087 17.4059C9.33187 19.1889 7.89287 20.6459 7.87687 20.6619C7.73387 20.8049 7.69087 21.0199 7.76787 21.2069C7.84487 21.3939 8.02787 21.5159 8.22987 21.5159H11.9993Z" fill="black"/>
</svg>