<svg width="25" height="24" viewBox="0 0 25 24" fill="none" xmlns="http://www.w3.org/2000/svg">
<path opacity="0.4" d="M15.5 3H9.5C7.29086 3 5.5 4.79086 5.5 7V17C5.5 19.2091 7.29086 21 9.5 21H15.5C17.7091 21 19.5 19.2091 19.5 17V7C19.5 4.79086 17.7091 3 15.5 3Z" stroke="black" stroke-width="1.5" stroke-linecap="round" stroke-linejoin="round"/>
<path d="M16.5 6V6.01" stroke="black" stroke-width="1.5" stroke-linecap="round" stroke-linejoin="round"/>
<path d="M8.5 18V18.01" stroke="black" stroke-width="1.5" stroke-linecap="round" stroke-linejoin="round"/>
<path d="M12.473 13.4699C13 14.1699 13.7133 14.2641 14.1737 14.2749C14.8392 14.3012 15.4812 13.9364 15.777 13.3317C16.2079 12.4624 15.7865 11.3627 14.8765 11.0068C14.5178 10.8657 14.1107 10.8527 13.7434 10.9694C14.1885 10.4525 14.2883 9.69797 13.9735 9.08755C13.624 8.40144 12.8182 8.03239 12.0696 8.21744C11.4911 8.35719 11.0154 8.81069 10.8492 9.38262C10.6854 9.93667 10.8276 10.5286 11.1933 10.9674C10.8015 10.8662 10.4038 10.8636 10.0244 11.0263C9.20606 11.3748 8.79074 12.3436 9.1051 13.1728C9.34653 13.8181 9.98054 14.2638 10.6705 14.2682C11.1576 14.269 12 14.1699 12.473 13.4699ZM12.473 13.4699C12.473 15.4351 12.4766 15.8783 12.4766 15.8783" stroke="black" stroke-width="1.5" stroke-linecap="round" stroke-linejoin="round"/>
</svg>