<svg width="24" height="24" viewBox="0 0 24 24" fill="none" xmlns="http://www.w3.org/2000/svg">
<path d="M15 21C17.2091 21 19 19.2091 19 17V7C19 4.79086 17.2091 3 15 3H9C6.79086 3 5 4.79086 5 7V17C5 19.2091 6.79086 21 9 21H12" stroke="black" stroke-width="1.5" stroke-linecap="round" stroke-linejoin="round"/>
<path d="M16 6V6.01" stroke="black" stroke-width="1.5" stroke-linecap="round" stroke-linejoin="round"/>
<path d="M8 18V18.01" stroke="black" stroke-width="1.5" stroke-linecap="round" stroke-linejoin="round"/>
<path d="M13.6737 14.2749C13.2133 14.2641 12.5 14.1699 11.973 13.4699M11.973 13.4699C11.5 14.1699 10.6576 14.269 10.1705 14.2682C9.48054 14.2638 8.84653 13.8181 8.6051 13.1728C8.29074 12.3436 8.70606 11.3748 9.52441 11.0263C9.9038 10.8636 10.3015 10.8662 10.6933 10.9674C10.3276 10.5286 10.1854 9.93667 10.3492 9.38262C10.5154 8.81069 10.9911 8.35719 11.5696 8.21744C12.3182 8.03239 13.124 8.40144 13.4735 9.08755C13.7883 9.69797 13.6885 10.4525 13.2434 10.9694C13.6107 10.8527 14.0178 10.8657 14.3765 11.0068C15.1634 11.3146 15.585 12.1786 15.4059 12.9688M11.973 13.4699C11.973 15.4351 11.9766 15.8783 11.9766 15.8783" stroke="black" stroke-width="1.5" stroke-linecap="round" stroke-linejoin="round"/>
</svg>