<svg width="24" height="24" viewBox="0 0 24 24" fill="none" xmlns="http://www.w3.org/2000/svg">
<path fill-rule="evenodd" clip-rule="evenodd" d="M17.8847 9.15585C17.2937 8.90385 16.6537 8.78885 15.9807 8.82085C16.4547 7.83185 16.5587 6.71285 16.2497 5.66785C15.8247 4.18385 14.5717 2.98385 13.0587 2.61085C11.0867 2.12285 8.99273 3.08185 8.07373 4.88685C7.44373 6.11185 7.44473 7.57385 8.01973 8.80485C7.41373 8.78385 6.80873 8.88185 6.23573 9.10085C5.09973 9.54685 4.19073 10.4729 3.73973 11.6409C3.28973 12.8059 3.34173 14.0989 3.87973 15.1869C4.65373 16.7559 6.30673 17.7209 8.06473 17.6559C8.50073 17.6419 9.09173 17.5989 9.73173 17.4209C9.31973 19.1869 7.88973 20.6469 7.87373 20.6629C7.73173 20.8069 7.68973 21.0219 7.76673 21.2079C7.84473 21.3939 8.02673 21.5159 8.22873 21.5159H15.7687C15.9707 21.5159 16.1537 21.3939 16.2307 21.2069C16.3077 21.0199 16.2647 20.8049 16.1217 20.6619C16.1057 20.6459 14.6667 19.1889 14.2677 17.4059C14.9907 17.6019 15.6757 17.6469 16.1817 17.6359C18.0017 17.6239 19.6517 16.4729 20.2857 14.7739C21.1127 12.5979 20.0357 10.0779 17.8847 9.15585Z" fill="black"/>
</svg>