<svg width="24" height="24" viewBox="0 0 24 24" fill="none" xmlns="http://www.w3.org/2000/svg">
<path fill-rule="evenodd" clip-rule="evenodd" d="M16.643 17.986H18.709C20.386 17.986 21.75 16.622 21.75 14.945C21.75 13.702 21.012 12.597 19.872 12.132L12.768 9.19402C12.774 9.00502 12.899 8.83802 13.102 8.76102C14.531 8.18802 15.266 6.68402 14.849 5.18202C14.579 4.22102 13.779 3.43602 12.813 3.18102C11.904 2.93802 10.961 3.12202 10.228 3.68502C9.497 4.24802 9.078 5.09602 9.078 6.01502C9.078 6.42902 9.414 6.76502 9.828 6.76502C10.242 6.76502 10.578 6.42902 10.578 6.01502C10.578 5.56602 10.784 5.15002 11.142 4.87502C11.508 4.59302 11.963 4.50502 12.43 4.63102C12.886 4.75102 13.278 5.13602 13.405 5.58502C13.64 6.43502 13.15 7.12502 12.558 7.36402C11.882 7.61902 11.399 8.22002 11.292 8.91302C11.219 8.92102 11.145 8.94102 11.074 8.97202L4.104 12.055C2.977 12.533 2.25 13.631 2.25 14.945C2.25 16.622 3.613 17.986 5.29 17.986H7.35303V19.1852C7.35303 20.1452 8.13303 20.9252 9.09003 20.9252H14.908C15.865 20.9252 16.643 20.1452 16.643 19.1852V17.986ZM11.659 10.354L4.701 13.431C4.119 13.678 3.75 14.235 3.75 14.855C3.75 15.794 4.44 16.486 5.29 16.486H18.709C19.558 16.486 20.25 15.794 20.25 14.945C20.25 14.314 19.878 13.755 19.302 13.52L11.73 10.388L11.7183 10.3827C11.698 10.3734 11.6774 10.3641 11.659 10.354Z" fill="black"/>
</svg>