<svg width="24" height="24" viewBox="0 0 24 24" fill="none" xmlns="http://www.w3.org/2000/svg">
<path d="M9.69892 11.9744L4.39816 14.2171C3.5507 14.5762 3 15.4071 3 16.3265V16.4131C3 17.678 4.02551 18.7035 5.29038 18.7035H18.7086C19.9745 18.7035 21 17.678 21 16.4131C21 15.4869 20.4415 14.6511 19.5853 14.2969L12.0185 11.1639L12.0195 10.6784C12.0204 10.1647 12.3454 9.71907 12.8231 9.53226C13.8175 9.1421 14.4577 8.04556 14.1279 6.86048C13.9284 6.14534 13.3388 5.56545 12.6208 5.37572C11.1516 4.98653 9.82832 6.08307 9.82832 7.48902" stroke="black" stroke-width="1.5" stroke-linecap="round" stroke-linejoin="round"/>
</svg>