<svg width="24" height="24" viewBox="0 0 24 24" fill="none" xmlns="http://www.w3.org/2000/svg">
<path d="M19.262 19.3018H4.74099C4.08093 19.3013 3.44804 19.0389 2.98122 18.5722C2.5144 18.1056 2.25178 17.4728 2.25098 16.8128V16.1618C2.24991 15.6668 2.39682 15.1828 2.67283 14.7719C2.94883 14.361 3.34134 14.042 3.79998 13.8558L11.736 10.6228C11.9176 10.5483 12.1213 10.5483 12.303 10.6228L20.203 13.8558C20.6604 14.0416 21.052 14.3598 21.3274 14.7696C21.6028 15.1793 21.7496 15.662 21.749 16.1558V16.8088C21.7493 17.469 21.4875 18.1024 21.0212 18.5698C20.5549 19.0372 19.9222 19.3005 19.262 19.3018ZM12.019 12.1268L4.36698 15.2448C4.18464 15.3189 4.0286 15.4458 3.91884 15.6091C3.80909 15.7725 3.75064 15.965 3.75098 16.1618V16.8128C3.75151 17.0751 3.85601 17.3265 4.04159 17.5119C4.22716 17.6973 4.47868 17.8015 4.74099 17.8018H19.262C19.5242 17.8015 19.7756 17.6972 19.961 17.5118C20.1464 17.3264 20.2507 17.075 20.251 16.8128V16.1598C20.2517 15.9635 20.1937 15.7715 20.0845 15.6085C19.9753 15.4454 19.8197 15.3188 19.638 15.2448L12.019 12.1268Z" fill="black"/>
<path d="M12.0181 12.0673C11.9196 12.0672 11.8221 12.0476 11.7312 12.0098C11.6402 11.972 11.5576 11.9167 11.4881 11.8469C11.4185 11.7772 11.3634 11.6944 11.3258 11.6034C11.2883 11.5123 11.269 11.4148 11.2691 11.3163V10.8303C11.2722 10.4298 11.3961 10.0396 11.6246 9.71073C11.8532 9.38187 12.1758 9.12972 12.5501 8.9873C12.8899 8.85391 13.1668 8.59722 13.3255 8.26851C13.4842 7.93981 13.513 7.56331 13.4061 7.2143C13.3389 6.98415 13.214 6.77502 13.0432 6.60681C12.8723 6.4386 12.6613 6.3169 12.4301 6.2533C12.2113 6.19138 11.9811 6.18128 11.7577 6.2238C11.5343 6.26633 11.3239 6.36031 11.1431 6.4983C10.9672 6.63276 10.8248 6.80607 10.7269 7.0047C10.6291 7.20332 10.5785 7.42188 10.5791 7.6433C10.5791 7.84221 10.5001 8.03298 10.3595 8.17363C10.2188 8.31429 10.028 8.3933 9.82912 8.3933C9.6302 8.3933 9.43943 8.31429 9.29878 8.17363C9.15813 8.03298 9.07912 7.84221 9.07912 7.6433C9.07767 7.19214 9.18064 6.74677 9.37997 6.34203C9.57931 5.93729 9.86959 5.58417 10.2281 5.3103C10.5907 5.0321 11.0127 4.84158 11.4612 4.75362C11.9096 4.66566 12.3723 4.68267 12.8131 4.8033C13.2959 4.93578 13.7367 5.18984 14.0933 5.54121C14.4499 5.89258 14.7105 6.32952 14.8501 6.8103C15.0543 7.51708 14.988 8.27459 14.6641 8.93515C14.3402 9.5957 13.7819 10.112 13.0981 10.3833C13.0046 10.4172 12.9234 10.4783 12.8648 10.5586C12.8062 10.6389 12.7729 10.7349 12.7691 10.8343V11.3193C12.7686 11.518 12.6892 11.7084 12.5484 11.8487C12.4076 11.9889 12.2169 12.0676 12.0181 12.0673Z" fill="black"/>
</svg>