<svg width="24" height="24" viewBox="0 0 24 24" fill="none" xmlns="http://www.w3.org/2000/svg">
<g opacity="0.4">
<path d="M15.7751 11.9481C15.9437 11.9197 16.1123 11.8928 16.2565 11.7835C16.5844 11.5358 16.6622 11.0856 16.4329 10.7359C16.3972 10.6813 16.3601 10.6281 16.323 10.5742C16.6301 10.6507 16.9093 10.8 17.1993 10.9202C18.0964 11.2925 18.9899 11.6728 19.8841 12.0516C21.0919 12.563 21.8447 13.7803 21.7783 15.1098C21.7054 16.5689 20.5733 17.8285 19.1527 18.004C18.4128 18.0958 17.6671 18.0266 16.9243 18.0383C16.9065 17.5305 16.9043 17.022 16.9251 16.5143C17.5022 16.5128 18.0785 16.5107 18.6556 16.5099C19.5556 16.5085 20.2227 15.9002 20.2719 14.9903C20.3069 14.3441 19.9577 13.7453 19.2934 13.4627C18.1871 12.9913 17.0765 12.5295 15.9687 12.0611C15.9008 12.0326 15.818 12.0239 15.7759 11.9474L15.7751 11.9481Z" fill="black"/>
<path d="M7.0815 16.5028C7.10078 17.0193 7.09649 17.5358 7.08364 18.053C6.50725 18.0494 5.93087 18.0457 5.35448 18.0428C4.11744 18.0377 3.19108 17.4841 2.57755 16.3913C1.9826 15.3307 2.14544 13.7943 2.91896 12.8582C3.35321 12.3322 3.91888 12.0357 4.52383 11.7837C5.16164 11.5185 5.79302 11.2395 6.42797 10.967C6.46011 10.9532 6.49511 10.9466 6.5294 10.9372C6.5194 10.9576 6.51297 10.9809 6.49868 10.9969C6.28941 11.2307 6.22299 11.5017 6.32798 11.7975C6.43297 12.0933 6.65081 12.2616 6.9615 12.2987C6.98865 12.3016 7.01364 12.3213 7.03936 12.3337C7.02936 12.4073 6.96079 12.4007 6.91651 12.4204C6.16799 12.7453 5.41877 13.068 4.66811 13.39C3.97816 13.6857 3.61033 14.4339 3.75532 15.2513C3.87888 15.947 4.5274 16.5021 5.24378 16.5094C5.85659 16.5152 6.46869 16.505 7.0815 16.5028Z" fill="black"/>
</g>
<path d="M15.7751 11.9485C15.4658 11.8639 15.1738 11.734 14.8818 11.6041C14.7667 11.5529 14.6514 11.5016 14.5352 11.4532C13.7137 11.1115 12.8945 10.7641 12.0751 10.4165L11.7761 10.2898C11.4104 10.1346 11.2526 9.86943 11.2647 9.46367C11.267 9.38971 11.2671 9.31563 11.2672 9.24159C11.2677 9.00638 11.2681 8.77151 11.3355 8.54213C11.5254 7.89159 11.934 7.44576 12.5475 7.18205C13.4603 6.78939 13.7624 5.65587 13.166 4.8844C12.7896 4.3985 12.1432 4.20472 11.5611 4.40433C10.989 4.60029 10.5934 5.14447 10.5741 5.7615C10.5591 6.23501 10.2584 6.56429 9.83414 6.57085C9.4206 6.57667 9.08134 6.24449 9.07134 5.82269C9.03848 4.43347 10.0477 3.14696 11.3947 2.85994C13.3889 2.43523 15.1752 4.05903 14.953 6.12574C14.8316 7.25999 14.2259 8.07371 13.2096 8.55889L13.1846 8.57071C13.0461 8.6362 12.9112 8.69997 12.8296 8.84154C12.7425 8.99234 12.7611 9.04989 12.916 9.11545L13.9558 9.55362C14.6492 9.84568 15.3425 10.1377 16.0358 10.4311C16.106 10.4607 16.1733 10.4965 16.2405 10.5323C16.2677 10.5468 16.2949 10.5613 16.3222 10.5753C16.3361 10.5958 16.3501 10.6162 16.3642 10.6366C16.3871 10.6699 16.4101 10.7032 16.4322 10.7371C16.6615 11.0867 16.5836 11.5369 16.2558 11.7846C16.1158 11.8906 15.9536 11.9185 15.7895 11.9467L15.7744 11.9493L15.7751 11.9485Z" fill="black"/>
<path d="M16.908 18.7503C16.9096 18.8763 16.9113 19.0023 16.9093 19.1282C16.8936 20.1386 16.2915 20.9298 15.3637 21.1542C15.2194 21.1891 15.0723 21.2088 14.9223 21.2081C13.9499 21.2077 12.9774 21.2077 12.005 21.2077C11.0326 21.2077 10.0602 21.2077 9.08774 21.2073C7.97711 21.2066 7.10146 20.3179 7.08932 19.18C7.08646 18.9293 7.08551 18.6787 7.08456 18.4281C7.08408 18.3028 7.08361 18.1775 7.08289 18.0523C7.09646 17.5358 7.10003 17.0193 7.08075 16.502C7.08503 16.25 7.10789 16.0038 7.29502 15.8114C7.45358 15.649 7.64856 15.5718 7.87283 15.5718L10.2278 15.5715C12.1909 15.5712 14.1539 15.5709 16.1172 15.5725C16.5772 15.5725 16.8836 15.8836 16.9079 16.3534C16.91 16.3935 16.9145 16.4331 16.919 16.473L16.9236 16.5144C16.9029 17.0222 16.905 17.5307 16.9229 18.0384C16.9019 18.2753 16.9049 18.5132 16.908 18.7503Z" fill="black"/>
<path d="M7.01637 12.3215C7.02402 12.3258 7.03166 12.3302 7.03936 12.3339C7.07114 12.3241 7.10322 12.3161 7.13523 12.3074C7.20108 12.2894 7.26663 12.2715 7.32863 12.245C8.20713 11.8684 9.08564 11.4903 9.962 11.1071C10.3755 10.9258 10.5505 10.4901 10.3841 10.0865C10.2241 9.6968 9.79273 9.51978 9.38418 9.69534C9.14221 9.79924 8.89982 9.9022 8.65742 10.0052C7.94467 10.3079 7.23186 10.6107 6.5294 10.9374C6.52635 10.9436 6.52363 10.9501 6.52092 10.9566C6.51475 10.9714 6.50861 10.986 6.49869 10.9971C6.28871 11.2303 6.22228 11.5013 6.32799 11.7978C6.43298 12.0935 6.65082 12.2618 6.96151 12.299C6.98052 12.301 6.99848 12.3113 7.01637 12.3215Z" fill="black"/>
</svg>