<svg width="24" height="24" viewBox="0 0 24 24" fill="none" xmlns="http://www.w3.org/2000/svg">
<g opacity="0.4">
<path d="M15.5164 12.0404L19.2955 13.6043L19.2974 13.6051C19.875 13.8491 20.2502 14.4139 20.2502 15.0369C20.2502 15.8808 19.5614 16.5733 18.705 16.5733H17.6808C17.6831 16.6109 17.6843 16.6488 17.6843 16.687V18.0733H18.705C20.3861 18.0733 21.7502 16.713 21.7502 15.0369C21.7502 13.8062 21.0093 12.6982 19.8775 12.2218L16.092 10.6553C16.4727 10.8147 16.6533 11.2521 16.4953 11.6339C16.3371 12.0163 15.8989 12.1982 15.5164 12.0404Z" fill="black"/>
<path d="M6.31254 16.5731C6.31017 16.6108 6.30896 16.6488 6.30896 16.687V18.0731H5.28628C3.61211 18.0731 2.24988 16.7109 2.24988 15.0367V14.9472C2.24988 13.7338 2.97416 12.6198 4.10466 12.1493L6.75237 11.0257C6.37107 11.1875 6.19314 11.6278 6.35496 12.0091C6.51634 12.3893 6.95468 12.5673 7.33527 12.4078L4.68252 13.5335C4.12181 13.7662 3.74988 14.3267 3.74988 14.9472V15.0367C3.74988 15.8824 4.44054 16.5731 5.28628 16.5731H6.31254Z" fill="black"/>
</g>
<path d="M10.5722 6.10937C10.5722 5.18919 11.4375 4.46007 12.4293 4.71922C12.8836 4.84121 13.2754 5.22748 13.4021 5.68148C13.6261 6.48069 13.2024 7.19952 12.5478 7.45321L12.5427 7.4552C11.8037 7.74778 11.2681 8.44957 11.2681 9.29476V9.78122C11.2681 10.0847 11.4509 10.3582 11.7313 10.4742L15.5155 12.0402C15.8983 12.1986 16.3369 12.0167 16.4953 11.6339C16.6537 11.2512 16.4718 10.8125 16.0891 10.6542L12.7683 9.28001C12.7743 9.10527 12.8856 8.93351 13.093 8.85062C14.4349 8.32878 15.2876 6.85111 14.8467 5.2777C14.5764 4.31005 13.7802 3.52748 12.8148 3.26961L12.8116 3.26876C10.8523 2.7547 9.07216 4.22217 9.07216 6.10937C9.07216 6.52358 9.40795 6.85937 9.82216 6.85937C10.2364 6.85937 10.5722 6.52358 10.5722 6.10937Z" fill="black"/>
<path d="M9.98863 11.2819C10.3699 11.12 10.5479 10.6798 10.386 10.2985C10.2242 9.91716 9.78394 9.73924 9.40264 9.90105L6.75237 11.0258C6.37107 11.1876 6.19314 11.6279 6.35496 12.0092C6.51677 12.3905 6.95705 12.5684 7.33835 12.4066L9.98863 11.2819Z" fill="black"/>
<path d="M6.30896 16.6871C6.30896 15.7037 7.10588 14.9067 8.08934 14.9067H15.904C16.8874 14.9067 17.6843 15.7037 17.6843 16.6871V19.0552C17.6843 20.0387 16.8874 20.8356 15.904 20.8356H8.08934C7.10588 20.8356 6.30896 20.0387 6.30896 19.0552V16.6871Z" fill="black"/>
</svg>