<svg width="24" height="24" viewBox="0 0 24 24" fill="none" xmlns="http://www.w3.org/2000/svg">
<path d="M18.709 19.4543H5.29004C4.58417 19.4422 3.90368 19.189 3.36159 18.7368C2.8195 18.2845 2.44844 17.6604 2.31003 16.9682C2.17162 16.2759 2.2742 15.5571 2.60073 14.9312C2.92726 14.3053 3.45808 13.8099 4.10504 13.5273L9.40505 11.2843C9.58831 11.2069 9.79484 11.2054 9.97919 11.2802C10.1635 11.3551 10.3106 11.5001 10.388 11.6833C10.4655 11.8666 10.467 12.0731 10.3921 12.2575C10.3173 12.4418 10.1723 12.5889 9.98905 12.6663L4.68904 14.9083C4.41016 15.0262 4.17222 15.2236 4.00502 15.476C3.83782 15.7284 3.74878 16.0246 3.74904 16.3273C3.74047 16.536 3.7738 16.7442 3.84706 16.9398C3.92032 17.1353 4.03203 17.3142 4.17559 17.4659C4.31914 17.6176 4.49164 17.7389 4.68288 17.8228C4.87412 17.9067 5.08024 17.9514 5.28905 17.9543H18.708C19.0643 17.954 19.4094 17.8303 19.6847 17.6042C19.96 17.3781 20.1485 17.0636 20.218 16.7142C20.2876 16.3648 20.2339 16.0021 20.0662 15.6878C19.8984 15.3735 19.627 15.127 19.2981 14.9903L11.73 11.8573C11.5929 11.8004 11.4757 11.7041 11.3933 11.5805C11.3109 11.457 11.267 11.3118 11.267 11.1633V10.6773C11.2693 10.2766 11.3929 9.88604 11.6215 9.55702C11.8502 9.22801 12.1733 8.97603 12.5481 8.83432C12.8876 8.70095 13.1642 8.44436 13.3227 8.11584C13.4812 7.78732 13.5099 7.41107 13.403 7.06232C13.3363 6.83195 13.2115 6.62259 13.0406 6.45431C12.8697 6.28603 12.6584 6.16448 12.4271 6.10132C12.2084 6.0387 11.9781 6.02816 11.7546 6.07053C11.5311 6.11291 11.3206 6.20701 11.14 6.34532C10.9643 6.47967 10.8219 6.65282 10.7241 6.85127C10.6262 7.04971 10.5756 7.26807 10.5761 7.48932C10.5761 7.68823 10.497 7.879 10.3564 8.01965C10.2157 8.16031 10.025 8.23932 9.82605 8.23932C9.62714 8.23932 9.43637 8.16031 9.29572 8.01965C9.15507 7.879 9.07605 7.68823 9.07605 7.48932C9.0746 7.03816 9.17758 6.59279 9.37691 6.18805C9.57624 5.78331 9.86653 5.43019 10.2251 5.15632C10.5881 4.87876 11.0104 4.68871 11.4589 4.60095C11.9074 4.51318 12.3701 4.53008 12.8111 4.65032C13.294 4.78325 13.7347 5.0377 14.0913 5.3894C14.4479 5.7411 14.7085 6.17831 14.8481 6.65932C15.0517 7.36533 14.9856 8.12185 14.6625 8.78183C14.3395 9.44181 13.7826 9.9581 13.1001 10.2303C13.009 10.2627 12.9295 10.321 12.8714 10.3982C12.8132 10.4754 12.779 10.5679 12.773 10.6643L19.873 13.6043C20.5227 13.8737 21.0588 14.36 21.3902 14.9803C21.7216 15.6005 21.8278 16.3165 21.6907 17.0063C21.5536 17.696 21.1816 18.317 20.6381 18.7633C20.0947 19.2097 19.4133 19.4539 18.7101 19.4543H18.709Z" fill="black"/>
</svg>