<svg width="24" height="24" viewBox="0 0 24 24" fill="none" xmlns="http://www.w3.org/2000/svg">
<path fill-rule="evenodd" clip-rule="evenodd" d="M20 16.8093C20 17.2173 19.668 17.5493 19.261 17.5493H4.74C4.332 17.5493 4 17.2173 4 16.8093V16.1593C4 15.8593 4.182 15.5903 4.46 15.4753L12.017 12.3993L19.539 15.4743C19.819 15.5893 20 15.8583 20 16.1593V16.8093ZM20.298 13.6233L13.096 10.6793C13.123 10.6523 13.15 10.6253 13.188 10.6103C14.719 10.0103 15.537 8.3463 15.089 6.7383C14.795 5.6943 13.926 4.8403 12.877 4.5633C11.892 4.3033 10.869 4.4993 10.075 5.1113C9.283 5.7203 8.828 6.6423 8.828 7.6393C8.828 8.1923 9.276 8.6393 9.828 8.6393C10.38 8.6393 10.828 8.1923 10.828 7.6393C10.828 7.2683 10.998 6.9243 11.294 6.6963C11.469 6.5613 11.84 6.3553 12.365 6.4963C12.739 6.5953 13.06 6.9113 13.164 7.2773C13.36 7.9843 12.958 8.5523 12.453 8.7503C11.648 9.0713 11.126 9.8003 11.048 10.6343L3.702 13.6243C2.668 14.0503 2 15.0453 2 16.1593V16.8093C2 18.3203 3.229 19.5493 4.74 19.5493H19.261C20.771 19.5493 22 18.3203 22 16.8093V16.1593C22 15.0453 21.333 14.0503 20.298 13.6233Z" fill="black"/>
</svg>