<svg width="24" height="24" viewBox="0 0 24 24" fill="none" xmlns="http://www.w3.org/2000/svg">
<path d="M18.589 19.3359H5.41203C4.71554 19.3242 4.04404 19.0746 3.50907 18.6284C2.97411 18.1823 2.60789 17.5665 2.47132 16.8835C2.33476 16.2004 2.43604 15.4912 2.75834 14.8736C3.08065 14.2561 3.60459 13.7675 4.24305 13.4889L9.44905 11.2889C9.63231 11.2115 9.83883 11.21 10.0232 11.2848C10.2075 11.3596 10.3546 11.5046 10.432 11.6879C10.5095 11.8712 10.511 12.0777 10.4361 12.262C10.3613 12.4464 10.2163 12.5934 10.033 12.6709L4.82704 14.8709C4.55576 14.9858 4.32432 15.178 4.1616 15.4236C3.99888 15.6692 3.91207 15.9573 3.91203 16.2519C3.90373 16.4551 3.93623 16.6579 4.00761 16.8483C4.07899 17.0387 4.18782 17.2129 4.32765 17.3605C4.46747 17.5082 4.63548 17.6263 4.82173 17.708C5.00798 17.7896 5.20869 17.8331 5.41203 17.8359H18.589C18.9357 17.8354 19.2715 17.7149 19.5394 17.4948C19.8072 17.2747 19.9906 16.9686 20.0582 16.6286C20.1259 16.2886 20.0736 15.9356 19.9104 15.6298C19.7472 15.3239 19.4831 15.084 19.163 14.9509L11.7301 11.8759C11.5921 11.8185 11.4744 11.7212 11.392 11.5965C11.3097 11.4718 11.2666 11.3253 11.268 11.1759V10.6979C11.2707 10.3022 11.3929 9.91655 11.6186 9.59157C11.8444 9.26658 12.1631 9.01746 12.533 8.87689C12.8636 8.7475 13.1331 8.49792 13.2874 8.17819C13.4417 7.85846 13.4694 7.49221 13.365 7.15289C13.3005 6.92922 13.1797 6.72587 13.014 6.56232C12.8484 6.39878 12.6435 6.28052 12.419 6.21889C12.206 6.15731 11.9815 6.14676 11.7636 6.18811C11.5458 6.22946 11.3407 6.32154 11.165 6.45689C10.9941 6.58741 10.8557 6.75571 10.7606 6.94862C10.6656 7.14153 10.6164 7.35383 10.617 7.56889C10.617 7.7678 10.538 7.95857 10.3974 8.09922C10.2567 8.23987 10.066 8.31889 9.86705 8.31889C9.66813 8.31889 9.47736 8.23987 9.33671 8.09922C9.19606 7.95857 9.11705 7.7678 9.11705 7.56889C9.11572 7.124 9.2174 6.68485 9.41413 6.28582C9.61087 5.88679 9.89733 5.53872 10.251 5.26889C10.6085 4.99364 11.025 4.80521 11.4677 4.71844C11.9104 4.63167 12.3672 4.64894 12.802 4.76889C13.2787 4.89916 13.7138 5.14993 14.0655 5.49705C14.4171 5.84418 14.6736 6.27597 14.81 6.75089C15.0112 7.4481 14.9454 8.19521 14.6255 8.84655C14.3057 9.49789 13.7547 10.0067 13.08 10.2739C12.9955 10.304 12.9213 10.3576 12.8662 10.4285C12.8111 10.4994 12.7774 10.5845 12.7691 10.6739L19.735 13.5569C20.3752 13.8231 20.9034 14.3029 21.2298 14.9146C21.5562 15.5264 21.6607 16.2323 21.5254 16.9123C21.3901 17.5923 21.0234 18.2045 20.4877 18.6447C19.952 19.0849 19.2804 19.326 18.587 19.3269L18.589 19.3359Z" fill="black"/>
<path d="M21 8.31445H14.264C14.0651 8.31445 13.8743 8.23544 13.7337 8.09479C13.593 7.95414 13.514 7.76337 13.514 7.56445C13.514 7.36554 13.593 7.17478 13.7337 7.03413C13.8743 6.89347 14.0651 6.81445 14.264 6.81445H21C21.1989 6.81445 21.3897 6.89347 21.5303 7.03413C21.671 7.17478 21.75 7.36554 21.75 7.56445C21.75 7.76337 21.671 7.95414 21.5303 8.09479C21.3897 8.23544 21.1989 8.31445 21 8.31445ZM7.31201 8.31445H3C2.80109 8.31445 2.61032 8.23544 2.46967 8.09479C2.32901 7.95414 2.25 7.76337 2.25 7.56445C2.25 7.36554 2.32901 7.17478 2.46967 7.03413C2.61032 6.89347 2.80109 6.81445 3 6.81445H7.31201C7.51092 6.81445 7.70166 6.89347 7.84232 7.03413C7.98297 7.17478 8.06201 7.36554 8.06201 7.56445C8.06201 7.76337 7.98297 7.95414 7.84232 8.09479C7.70166 8.23544 7.51092 8.31445 7.31201 8.31445Z" fill="black"/>
</svg>