<svg width="24" height="24" viewBox="0 0 24 24" fill="none" xmlns="http://www.w3.org/2000/svg">
<path d="M9.74081 11.9747L4.53447 14.1765C3.70259 14.5287 3.16162 15.345 3.16162 16.2489V16.3335C3.16162 17.576 4.16864 18.583 5.41112 18.583H18.589C19.8305 18.583 20.8375 17.576 20.8375 16.3335C20.8375 15.4238 20.2897 14.6036 19.4491 14.2553L12.0175 11.1797L12.0195 10.702C12.0205 10.198 12.3396 9.76019 12.8086 9.5763C13.7854 9.19295 14.414 8.11685 14.09 6.95221C13.8944 6.24973 13.3155 5.68055 12.6101 5.49471C11.1672 5.11233 9.86827 6.18941 9.86827 7.57004" stroke="black" stroke-width="1.5" stroke-linecap="round" stroke-linejoin="round"/>
<path d="M14.2642 7.56055H21M3 7.56055H7.31218" stroke="black" stroke-width="1.5" stroke-linecap="round" stroke-linejoin="round"/>
</svg>