<svg width="24" height="24" viewBox="0 0 24 24" fill="none" xmlns="http://www.w3.org/2000/svg">
<path fill-rule="evenodd" clip-rule="evenodd" d="M12.0181 11.3167L4.08292 14.5499C3.42811 14.8175 3 15.4538 3 16.1612V16.8121C3 17.7724 3.77838 18.5517 4.73968 18.5517H19.2613C20.2216 18.5517 21 17.7724 21 16.8121V16.1592C21 15.4528 20.5729 14.8165 19.92 14.5499L12.0181 11.3167Z" stroke="black" stroke-width="1.5" stroke-linecap="round" stroke-linejoin="round"/>
<path d="M12.0173 11.3164L12.0183 10.8299C12.0202 10.3172 12.3452 9.87155 12.8229 9.68377C13.8173 9.2936 14.4575 8.19706 14.1267 7.01101C13.9273 6.29587 13.3376 5.71696 12.6196 5.52723C11.1504 5.13901 9.82812 6.23555 9.82812 7.6415" stroke="black" stroke-width="1.5" stroke-linecap="round" stroke-linejoin="round"/>
</svg>