<svg width="24" height="24" viewBox="0 0 24 24" fill="none" xmlns="http://www.w3.org/2000/svg">
<path d="M18.7102 19.4942H5.29225C4.58589 19.4828 3.90471 19.2299 3.36199 18.7777C2.81927 18.3255 2.44772 17.7011 2.30913 17.0083C2.17054 16.3156 2.27326 15.5963 2.60021 14.9701C2.92716 14.3438 3.45864 13.8484 4.10625 13.5661C6.25425 12.3731 12.0873 9.14115 12.4393 8.92915C13.6953 8.17315 13.4392 7.29515 13.3612 7.00715C13.3029 6.78108 13.1863 6.57424 13.0231 6.40721C12.86 6.24019 12.6559 6.11881 12.4312 6.05515C12.2192 5.99729 11.9966 5.98976 11.7811 6.03317C11.5657 6.07657 11.3633 6.1697 11.1903 6.30515C11.0022 6.44939 10.8496 6.6346 10.7439 6.84669C10.6382 7.05878 10.5822 7.29219 10.5802 7.52915C10.5802 7.72807 10.5012 7.91883 10.3606 8.05948C10.2199 8.20013 10.0292 8.27915 9.83025 8.27915C9.63134 8.27915 9.44057 8.20013 9.29992 8.05948C9.15926 7.91883 9.08025 7.72807 9.08025 7.52915C9.08276 7.06268 9.1917 6.60294 9.39879 6.18495C9.60588 5.76696 9.90565 5.40175 10.2752 5.11715C10.6307 4.84206 11.0447 4.65267 11.4853 4.56369C11.9258 4.47472 12.3809 4.48856 12.8153 4.60415C13.2913 4.73342 13.7251 4.98518 14.0736 5.33433C14.422 5.68348 14.6729 6.11785 14.8013 6.59415C15.0042 7.28816 14.9559 8.03151 14.6649 8.69345C14.3739 9.35538 13.8588 9.89351 13.2102 10.2132C12.7642 10.4822 5.08725 14.7311 4.76125 14.9131C4.42296 15.0504 4.14179 15.2993 3.96443 15.6184C3.78706 15.9375 3.72416 16.3077 3.78617 16.6675C3.84817 17.0272 4.03136 17.355 4.30532 17.5963C4.57927 17.8376 4.92752 17.978 5.29225 17.9942H18.7102C19.0669 17.9944 19.4126 17.8709 19.6884 17.6447C19.9642 17.4185 20.153 17.1037 20.2226 16.7539C20.2922 16.4041 20.2383 16.0409 20.0701 15.7264C19.9019 15.4119 19.6298 15.1655 19.3003 15.0292L13.7692 12.7402C13.5888 12.6619 13.4464 12.5159 13.3726 12.3336C13.2988 12.1513 13.2995 11.9473 13.3746 11.7656C13.4498 11.5838 13.5933 11.4389 13.7743 11.3619C13.9553 11.285 14.1592 11.2822 14.3423 11.3542L19.8742 13.6442C20.5239 13.9136 21.0601 14.3999 21.3915 15.0203C21.7229 15.6407 21.8291 16.3568 21.6918 17.0466C21.5545 17.7364 21.1824 18.3573 20.6388 18.8036C20.0951 19.2499 19.4136 19.4939 18.7102 19.4942Z" fill="black"/>
</svg>