<svg width="24" height="24" viewBox="0 0 24 24" fill="none" xmlns="http://www.w3.org/2000/svg">
<path fill-rule="evenodd" clip-rule="evenodd" d="M15.9041 20.2099H8.08946C7.38214 20.2099 6.80908 19.6368 6.80908 18.9295V16.5614C6.80908 15.8541 7.38214 15.281 8.08946 15.281H15.9041C16.6114 15.281 17.1845 15.8541 17.1845 16.5614V18.9295C17.1845 19.6368 16.6114 20.2099 15.9041 20.2099Z" stroke="black" stroke-width="1.5" stroke-linecap="round" stroke-linejoin="round"/>
<path d="M9.82227 5.98373C9.82227 4.57979 11.1455 3.48135 12.6214 3.86857C13.3316 4.0583 13.9261 4.64303 14.1246 5.35425C14.4573 6.54123 13.8181 7.63967 12.8189 8.0269C12.3422 8.21565 12.0182 8.65639 12.0182 9.16912V9.65559L19.5866 12.7875C20.4419 13.1475 21.0003 13.9842 21.0003 14.9114C21.0003 16.1713 19.9739 17.1978 18.7052 17.1978H17.1845" stroke="black" stroke-width="1.5" stroke-linecap="round" stroke-linejoin="round"/>
<path d="M6.8071 17.1976H5.2864C4.02645 17.1976 3 16.1711 3 14.9112V14.8217C3 13.9042 3.54874 13.0665 4.39519 12.7152L9.69574 10.4658" stroke="black" stroke-width="1.5" stroke-linecap="round" stroke-linejoin="round"/>
</svg>