<svg width="24" height="24" viewBox="0 0 24 24" fill="none" xmlns="http://www.w3.org/2000/svg">
<path d="M9.69892 10.3767L4.39719 12.6194C3.54973 12.9784 3 13.8094 3 14.7288V14.8154C3 16.0813 4.02454 17.1068 5.29038 17.1068H18.7086C19.9735 17.1068 21 16.0813 21 14.8154C21 13.8891 20.4415 13.0534 19.5853 12.6992L12.0175 9.5672L12.0195 9.08072C12.0204 8.56796 12.3454 8.12234 12.8231 7.93455C13.8175 7.54439 14.4577 6.44785 14.1279 5.26277C13.9284 4.54764 13.3388 3.96774 12.6208 3.77801C11.1516 3.38882 9.82832 4.48634 9.82832 5.89228" stroke="black" stroke-width="1.5" stroke-linecap="round" stroke-linejoin="round"/>
<path d="M7.85352 17.2056V19.0649C7.85352 19.7479 8.40714 20.3016 9.09016 20.3016H14.9076C15.5906 20.3016 16.1442 19.7479 16.1442 19.0649V17.2056" stroke="black" stroke-width="1.5" stroke-linecap="round" stroke-linejoin="round"/>
</svg>