<svg width="24" height="24" viewBox="0 0 24 24" fill="none" xmlns="http://www.w3.org/2000/svg">
<path fill-rule="evenodd" clip-rule="evenodd" d="M18.709 19.6993H5.29C3.476 19.6993 2 18.2223 2 16.4083C2 15.0073 2.788 13.8173 4.006 13.2993L9.309 11.0483C9.815 10.8333 10.404 11.0693 10.62 11.5783C10.835 12.0873 10.598 12.6743 10.09 12.8893L4.789 15.1393C4.31 15.3433 4 15.8103 4 16.3293C4 17.1203 4.579 17.6993 5.29 17.6993H18.709C19.421 17.6993 20 17.1203 20 16.4083C20 15.8933 19.682 15.4183 19.207 15.2243L11.635 12.0823C11.261 11.9273 11.017 11.5613 11.018 11.1563L11.019 10.6773C11.021 9.76032 11.584 8.94432 12.455 8.59932C12.958 8.40232 13.36 7.83432 13.165 7.12732C13.061 6.76032 12.74 6.44432 12.366 6.34532C11.838 6.20532 11.467 6.40932 11.292 6.54432C10.998 6.77132 10.828 7.11532 10.828 7.48832C10.828 8.04132 10.38 8.48832 9.828 8.48832C9.276 8.48832 8.828 8.04132 8.828 7.48832C8.828 6.48932 9.282 5.56732 10.073 4.95932C10.866 4.34932 11.89 4.15332 12.878 4.41232C13.928 4.68932 14.797 5.54432 15.091 6.58932C15.537 8.19632 14.719 9.85932 13.189 10.4603C13.152 10.4743 13.119 10.4963 13.093 10.5213L19.968 13.3753C21.2 13.8783 22 15.0693 22 16.4083C22 18.2223 20.523 19.6993 18.709 19.6993Z" fill="black"/>
</svg>