<svg width="25" height="24" viewBox="0 0 25 24" fill="none" xmlns="http://www.w3.org/2000/svg">
<path d="M10.1989 10.3767L4.89719 12.6194C4.04973 12.9784 3.5 13.8094 3.5 14.7288V14.8154C3.5 16.0813 4.52454 17.1068 5.79038 17.1068H19.2086C20.4735 17.1068 21.5 16.0813 21.5 14.8154C21.5 13.8891 20.9415 13.0534 20.0853 12.6992L12.5175 9.5672L12.5195 9.08072C12.5204 8.56796 12.8454 8.12234 13.3231 7.93455C14.3175 7.54439 14.9577 6.44785 14.6279 5.26277C14.4284 4.54764 13.8388 3.96774 13.1208 3.77801C11.6516 3.38882 10.3283 4.48634 10.3283 5.89228" stroke="black" stroke-width="1.5" stroke-linecap="round" stroke-linejoin="round"/>
<path opacity="0.4" d="M8.35352 17.2056V19.0649C8.35352 19.7479 8.90714 20.3016 9.59016 20.3016H15.4076C16.0906 20.3016 16.6442 19.7479 16.6442 19.0649V17.2056" stroke="black" stroke-width="1.5" stroke-linecap="round" stroke-linejoin="round"/>
</svg>