<svg width="25" height="24" viewBox="0 0 25 24" fill="none" xmlns="http://www.w3.org/2000/svg">
<path fill-rule="evenodd" clip-rule="evenodd" d="M6.43103 4.79641C6.9214 4.53421 7.51924 4.41406 8.22186 4.41406C8.63607 4.41406 8.97186 4.74985 8.97186 5.16406C8.97186 5.57828 8.63607 5.91406 8.22186 5.91406C7.68151 5.91406 7.34712 6.00754 7.13832 6.11919C6.94215 6.22408 6.81492 6.36679 6.72152 6.55941C6.50164 7.01291 6.48593 7.67172 6.48593 8.58209C6.48593 8.61076 6.48595 8.63976 6.48597 8.66906C6.48652 9.45586 6.48722 10.4607 6.10004 11.2592C5.96767 11.5322 5.79021 11.7841 5.55805 12.0001C5.79021 12.2161 5.96767 12.468 6.10004 12.741C6.48722 13.5396 6.48652 14.5444 6.48597 15.3312C6.48595 15.3605 6.48593 15.3895 6.48593 15.4181C6.48593 16.3285 6.50164 16.9873 6.72152 17.4408C6.81492 17.6334 6.94215 17.7762 7.13832 17.8811C7.34712 17.9927 7.68151 18.0862 8.22186 18.0862C8.63607 18.0862 8.97186 18.422 8.97186 18.8362C8.97186 19.2504 8.63607 19.5862 8.22186 19.5862C7.51924 19.5862 6.9214 19.466 6.43103 19.2038C5.92804 18.9349 5.58916 18.5435 5.37181 18.0953C4.98464 17.2967 4.98534 16.2919 4.98589 15.5051C4.98591 15.4758 4.98593 15.4468 4.98593 15.4181C4.98593 14.5078 4.97022 13.849 4.75033 13.3955C4.65694 13.2029 4.52971 13.0601 4.33353 12.9552C4.12473 12.8436 3.79034 12.7501 3.25 12.7501C2.83579 12.7501 2.5 12.4143 2.5 12.0001C2.5 11.5859 2.83579 11.2501 3.25 11.2501C3.79034 11.2501 4.12473 11.1566 4.33353 11.045C4.52971 10.9401 4.65694 10.7974 4.75033 10.6048C4.97022 10.1513 4.98593 9.49246 4.98593 8.58209C4.98593 8.55342 4.98591 8.52442 4.98589 8.49512C4.98534 7.70833 4.98464 6.70351 5.37181 5.90498C5.58916 5.45672 5.92804 5.06536 6.43103 4.79641Z" fill="black"/>
<path fill-rule="evenodd" clip-rule="evenodd" d="M10.0942 9.60848C10.5357 9.02497 11.2491 8.55859 12.251 8.55859C13.2526 8.55859 13.9659 9.02507 14.4074 9.60837C14.6556 9.93616 14.8204 10.3023 14.9134 10.6486C15.3033 10.7489 15.6656 10.9398 15.9637 11.2244C16.4291 11.6685 16.6876 12.293 16.6876 13.0107C16.6876 14.0019 16.0984 14.8587 15.2502 15.2421C15.24 15.2467 15.2297 15.2511 15.2193 15.2553C14.8748 15.3928 14.5328 15.4459 14.2553 15.4459H10.2438C9.96222 15.4459 9.62049 15.3894 9.28085 15.2522C9.27143 15.2484 9.2621 15.2444 9.25284 15.2402C8.40619 14.8575 7.81445 14.0036 7.81445 13.0107C7.81445 12.293 8.07297 11.6685 8.53836 11.2244C8.83646 10.9399 9.19863 10.749 9.58854 10.6486C9.68145 10.3024 9.84606 9.93631 10.0942 9.60848ZM11.2903 10.5136C11.076 10.7968 10.9948 11.1381 10.9948 11.3148C10.9948 11.7266 10.6628 12.0614 10.251 12.0648C9.95204 12.0673 9.72282 12.1674 9.57398 12.3095C9.4315 12.4455 9.31445 12.6651 9.31445 13.0107C9.31445 13.3883 9.53574 13.7156 9.85713 13.8671C10.0085 13.9259 10.1527 13.9459 10.2438 13.9459H14.2553C14.3501 13.9459 14.4954 13.9265 14.6472 13.8684C14.9663 13.7173 15.1876 13.3895 15.1876 13.0107C15.1876 12.6651 15.0705 12.4455 14.9281 12.3095C14.7792 12.1674 14.55 12.0673 14.251 12.0648C13.8392 12.0614 13.5073 11.7266 13.5073 11.3148C13.5073 11.1384 13.426 10.797 13.2115 10.5138C13.0202 10.261 12.7303 10.0586 12.251 10.0586C11.7711 10.0586 11.4814 10.2611 11.2903 10.5136Z" fill="black"/>
<path fill-rule="evenodd" clip-rule="evenodd" d="M15.5283 5.16406C15.5283 4.74985 15.8641 4.41406 16.2783 4.41406C16.9809 4.41406 17.5788 4.53421 18.0691 4.79641C18.5721 5.06536 18.911 5.45672 19.1284 5.90498C19.5155 6.70351 19.5148 7.70833 19.5143 8.49512C19.5143 8.52442 19.5142 8.55342 19.5142 8.58209C19.5142 9.49246 19.53 10.1513 19.7498 10.6048C19.8432 10.7974 19.9705 10.9401 20.1666 11.045C20.3754 11.1566 20.7098 11.2501 21.2502 11.2501C21.6644 11.2501 22.0002 11.5859 22.0002 12.0001C22.0002 12.4143 21.6644 12.7501 21.2502 12.7501C20.7098 12.7501 20.3754 12.8436 20.1666 12.9552C19.9705 13.0601 19.8432 13.2029 19.7498 13.3955C19.53 13.849 19.5142 14.5078 19.5142 15.4181C19.5142 15.4468 19.5143 15.4758 19.5143 15.5051C19.5148 16.2919 19.5155 17.2967 19.1284 18.0953C18.911 18.5435 18.5721 18.9349 18.0691 19.2038C17.5788 19.466 16.9809 19.5862 16.2783 19.5862C15.8641 19.5862 15.5283 19.2504 15.5283 18.8362C15.5283 18.422 15.8641 18.0862 16.2783 18.0862C16.8187 18.0862 17.1531 17.9927 17.3619 17.8811C17.558 17.7762 17.6853 17.6334 17.7787 17.4408C17.9985 16.9873 18.0142 16.3285 18.0142 15.4181C18.0142 15.3895 18.0142 15.3605 18.0142 15.3312C18.0137 14.5444 18.013 13.5396 18.4001 12.741C18.5325 12.468 18.71 12.2161 18.9421 12.0001C18.71 11.7841 18.5325 11.5322 18.4001 11.2592C18.013 10.4607 18.0137 9.45586 18.0142 8.66906C18.0142 8.63976 18.0142 8.61076 18.0142 8.58209C18.0142 7.67172 17.9985 7.01291 17.7787 6.55941C17.6853 6.36679 17.558 6.22408 17.3619 6.11919C17.1531 6.00754 16.8187 5.91406 16.2783 5.91406C15.8641 5.91406 15.5283 5.57828 15.5283 5.16406Z" fill="black"/>
</svg>