<svg width="25" height="24" viewBox="0 0 25 24" fill="none" xmlns="http://www.w3.org/2000/svg">
<path d="M10.2433 14.694C10.0555 14.694 9.80936 14.655 9.56125 14.5548C8.97358 14.2892 8.56396 13.6967 8.56396 13.0088C8.56396 11.9453 9.31509 11.3207 10.2443 11.3129C10.2443 10.6445 10.7687 9.30664 12.2505 9.30664C13.7314 9.30664 14.2568 10.6445 14.2568 11.3129C15.186 11.3207 15.9371 11.9453 15.9371 13.0088C15.9371 13.6967 15.5285 14.2911 14.9408 14.5568C14.6898 14.657 14.4426 14.694 14.2548 14.694H13.0636" stroke="black" stroke-width="1.5" stroke-linecap="round" stroke-linejoin="round"/>
<path d="M16.2783 5.16406C21.2502 5.16406 16.2783 12.0001 21.2502 12.0001C16.2783 12.0001 21.2502 18.8362 16.2783 18.8362" stroke="black" stroke-width="1.5" stroke-linecap="round" stroke-linejoin="round"/>
<path d="M8.22302 5.16406C3.25117 5.16406 8.22302 12.0001 3.25117 12.0001C8.22302 12.0001 3.25117 18.8362 8.22302 18.8362" stroke="black" stroke-width="1.5" stroke-linecap="round" stroke-linejoin="round"/>
</svg>