<svg width="25" height="24" viewBox="0 0 25 24" fill="none" xmlns="http://www.w3.org/2000/svg">
<path d="M6.21818 7.56445L4.85958 8.92306L3.50098 7.56445" stroke="black" stroke-width="1.5" stroke-linecap="round" stroke-linejoin="round"/>
<path d="M4.85742 8.84567V6.79495C4.85742 4.91873 6.37772 3.39844 8.25393 3.39844" stroke="black" stroke-width="1.5" stroke-linecap="round" stroke-linejoin="round"/>
<path d="M18.7812 16.4719L20.1399 15.1133L21.4985 16.4719" stroke="black" stroke-width="1.5" stroke-linecap="round" stroke-linejoin="round"/>
<path d="M20.1407 15.1914V17.2421C20.1407 19.1183 18.6204 20.6386 16.7441 20.6386" stroke="black" stroke-width="1.5" stroke-linecap="round" stroke-linejoin="round"/>
<path fill-rule="evenodd" clip-rule="evenodd" d="M10.577 13.1172H5.49945C4.27099 13.1172 3.5 13.9868 3.5 15.2182V18.5398C3.5 19.7702 4.26705 20.6398 5.49945 20.6398H10.577C11.8094 20.6398 12.5754 19.7702 12.5754 18.5398V15.2182C12.5754 13.9868 11.8094 13.1172 10.577 13.1172Z" stroke="black" stroke-width="1.5" stroke-linecap="round" stroke-linejoin="round"/>
<path opacity="0.4" d="M3.5 15.7871H12.5754" stroke="black" stroke-width="1.5" stroke-linecap="round" stroke-linejoin="round"/>
<path opacity="0.4" fill-rule="evenodd" clip-rule="evenodd" d="M21.1679 7.15913C21.1679 5.06009 19.4662 3.35938 17.3681 3.35938C15.2691 3.35938 13.5684 5.06009 13.5684 7.15913C13.5684 9.25816 15.2691 10.9589 17.3681 10.9589C19.4662 10.9589 21.1679 9.25816 21.1679 7.15913Z" stroke="black" stroke-width="1.5" stroke-linecap="round" stroke-linejoin="round"/>
</svg>