<svg width="24" height="24" viewBox="0 0 24 24" fill="none" xmlns="http://www.w3.org/2000/svg">
<path fill-rule="evenodd" clip-rule="evenodd" d="M14.1924 16.6292C10.4324 16.6292 7.37441 13.5692 7.37441 9.80922C7.37441 9.66271 7.22829 9.56519 7.10243 9.64019C5.54695 10.5671 4.49341 12.2497 4.49341 14.1892C4.49341 17.1222 6.87941 19.5092 9.81041 19.5092C11.7504 19.5092 13.4322 18.4542 14.3593 16.8977C14.4333 16.7734 14.3371 16.6292 14.1924 16.6292Z" fill="black"/>
<path fill-rule="evenodd" clip-rule="evenodd" d="M14.1924 15.1293C17.1244 15.1293 19.5094 12.7423 19.5094 9.80928C19.5094 6.87528 17.1244 4.48828 14.1924 4.48828C11.2594 4.48828 8.87439 6.87528 8.87439 9.80928C8.87439 12.7423 11.2594 15.1293 14.1924 15.1293Z" fill="black"/>
<g opacity="0.4">
<path fill-rule="evenodd" clip-rule="evenodd" d="M6.4248 5.16329V5.76029C6.4248 6.04829 6.5898 6.31029 6.8488 6.43629C6.9518 6.48629 7.0638 6.51029 7.1748 6.51029C7.3408 6.51029 7.5058 6.45429 7.6408 6.34829L9.3798 4.96829C9.5598 4.82529 9.6638 4.60929 9.6638 4.38029C9.6638 4.15229 9.5598 3.93529 9.3798 3.79229L7.6408 2.41229C7.4148 2.23429 7.1068 2.19929 6.8488 2.32429C6.5898 2.45029 6.4248 2.71229 6.4248 3.00029V3.66329C4.2628 3.83229 2.5498 5.62529 2.5498 7.83029C2.5498 8.24429 2.8858 8.58029 3.2998 8.58029C3.7138 8.58029 4.0498 8.24429 4.0498 7.83029C4.0498 6.45229 5.0898 5.32629 6.4248 5.16329Z" fill="black"/>
<path fill-rule="evenodd" clip-rule="evenodd" d="M21.4501 16.1707C21.4501 15.7567 21.1141 15.4207 20.7001 15.4207C20.2861 15.4207 19.9501 15.7567 19.9501 16.1707C19.9501 17.5677 18.8811 18.7067 17.5191 18.8437V18.2397C17.5191 17.9497 17.3521 17.6867 17.0901 17.5627C16.8311 17.4387 16.5191 17.4757 16.2931 17.6607L14.6121 19.0417C14.4391 19.1847 14.3391 19.3967 14.3391 19.6207C14.3391 19.8457 14.4391 20.0587 14.6131 20.2007L16.2941 21.5807C16.4301 21.6927 16.5991 21.7507 16.7691 21.7507C16.8791 21.7507 16.9881 21.7277 17.0901 21.6787C17.3521 21.5547 17.5191 21.2907 17.5191 21.0007V20.3437C19.7081 20.2017 21.4501 18.3947 21.4501 16.1707Z" fill="black"/>
</g>
</svg>