<svg width="25" height="24" viewBox="0 0 25 24" fill="none" xmlns="http://www.w3.org/2000/svg">
<path fill-rule="evenodd" clip-rule="evenodd" d="M3.26909 12.8307C3.78972 12.2721 4.52207 11.9727 5.35423 11.9727H10.6983C11.5319 11.9727 12.2646 12.2718 12.7852 12.831C13.3001 13.3842 13.5515 14.1308 13.5515 14.9334V18.4296C13.5515 19.2318 13.3 19.9783 12.7853 20.5315C12.2648 21.0908 11.5321 21.3903 10.6983 21.3903H5.35423C4.5204 21.3903 3.78768 21.0908 3.26723 20.5315C2.75245 19.9783 2.50098 19.2318 2.50098 18.4296V14.9334C2.50098 14.1299 2.7539 13.3834 3.26909 12.8307ZM4.36633 13.8534C4.15315 14.0822 4.00098 14.441 4.00098 14.9334V18.4296C4.00098 18.9223 4.15268 19.2811 4.3653 19.5096C4.57225 19.732 4.89116 19.8903 5.35423 19.8903H10.6983C11.1613 19.8903 11.4802 19.732 11.6872 19.5096C11.8998 19.2811 12.0515 18.9223 12.0515 18.4296V14.9334C12.0515 14.4401 11.8997 14.0813 11.6873 13.8531C11.4804 13.6309 11.1616 13.4727 10.6983 13.4727H5.35423C4.89333 13.4727 4.57405 13.6306 4.36633 13.8534Z" fill="black"/>
<path fill-rule="evenodd" clip-rule="evenodd" d="M2.5 15.5332C2.5 15.119 2.83579 14.7832 3.25 14.7832H12.8015C13.2157 14.7832 13.5515 15.119 13.5515 15.5332C13.5515 15.9474 13.2157 16.2832 12.8015 16.2832H3.25C2.83579 16.2832 2.5 15.9474 2.5 15.5332Z" fill="black"/>
<path fill-rule="evenodd" clip-rule="evenodd" d="M12.9004 7.16081C12.9004 4.6479 14.9384 2.61133 17.4508 2.61133C19.9635 2.61133 22.0003 4.64814 22.0003 7.16081C22.0003 9.67347 19.9635 11.7103 17.4508 11.7103C14.9384 11.7103 12.9004 9.67372 12.9004 7.16081ZM17.4508 4.11133C15.7663 4.11133 14.4004 5.47682 14.4004 7.16081C14.4004 8.8448 15.7663 10.2103 17.4508 10.2103C19.1351 10.2103 20.5003 8.84505 20.5003 7.16081C20.5003 5.47657 19.1351 4.11133 17.4508 4.11133Z" fill="black"/>
<path fill-rule="evenodd" clip-rule="evenodd" d="M21.2494 14.7773C21.6637 14.7773 21.9994 15.1131 21.9994 15.5273C21.9994 18.7638 19.3751 21.3881 16.1387 21.3881C15.8931 21.3881 15.6631 21.2679 15.5229 21.0662C15.3827 20.8646 15.3501 20.6071 15.4356 20.3769L16.0423 18.744C16.1866 18.3557 16.6183 18.1579 17.0066 18.3022C17.3949 18.4465 17.5927 18.8782 17.4484 19.2665L17.2728 19.7391C19.1311 19.2398 20.4994 17.5431 20.4994 15.5273C20.4994 15.1131 20.8352 14.7773 21.2494 14.7773Z" fill="black"/>
<path fill-rule="evenodd" clip-rule="evenodd" d="M7.22666 4.25836C5.36834 4.75767 4 6.45439 4 8.47015C4 8.88436 3.66421 9.22015 3.25 9.22015C2.83579 9.22015 2.5 8.88436 2.5 8.47015C2.5 5.23368 5.12431 2.60938 8.36077 2.60938C8.60635 2.60938 8.83638 2.72961 8.97657 2.93124C9.11676 3.13288 9.14935 3.39038 9.06381 3.62059L8.45713 5.25346C8.31286 5.64174 7.88115 5.83956 7.49287 5.69529C7.10459 5.55103 6.90678 5.11932 7.05104 4.73104L7.22666 4.25836Z" fill="black"/>
</svg>