<svg width="24" height="24" viewBox="0 0 24 24" fill="none" xmlns="http://www.w3.org/2000/svg">
<path d="M7.53223 5.76031L8.91287 4.38064L7.53223 3" stroke="black" stroke-width="1.5" stroke-linecap="round" stroke-linejoin="round"/>
<path d="M8.8321 4.38086H6.74897C4.8439 4.38086 3.29883 5.92593 3.29883 7.83101" stroke="black" stroke-width="1.5" stroke-linecap="round" stroke-linejoin="round"/>
<path d="M16.4685 18.2402L15.0879 19.6209L16.4685 21.0005" stroke="black" stroke-width="1.5" stroke-linecap="round" stroke-linejoin="round"/>
<path d="M15.166 19.6201H17.2491C19.1542 19.6201 20.6993 18.075 20.6993 16.1699" stroke="black" stroke-width="1.5" stroke-linecap="round" stroke-linejoin="round"/>
<path fill-rule="evenodd" clip-rule="evenodd" d="M14.6285 14.1892C14.6285 16.8503 12.4714 19.0074 9.81033 19.0074C7.14926 19.0074 4.99219 16.8503 4.99219 14.1892C4.99219 11.5282 7.14926 9.37109 9.81033 9.37109C12.4714 9.37109 14.6285 11.5282 14.6285 14.1892Z" stroke="black" stroke-width="1.5" stroke-linecap="round" stroke-linejoin="round"/>
<path fill-rule="evenodd" clip-rule="evenodd" d="M19.0093 9.81033C19.0093 12.4714 16.8523 14.6285 14.1912 14.6285C11.5301 14.6285 9.37305 12.4714 9.37305 9.81033C9.37305 7.14926 11.5301 4.99219 14.1912 4.99219C16.8523 4.99219 19.0093 7.14926 19.0093 9.81033Z" stroke="black" stroke-width="1.5" stroke-linecap="round" stroke-linejoin="round"/>
</svg>