<svg width="24" height="24" viewBox="0 0 24 24" fill="none" xmlns="http://www.w3.org/2000/svg">
<path d="M18.524 15.084C18.524 16.272 16.6579 17.2362 14.3548 17.2362C12.0527 17.2362 10.1865 16.272 10.1865 15.084" stroke="black" stroke-width="1.5" stroke-linecap="round" stroke-linejoin="round"/>
<path d="M18.5231 11.3203V18.8482C18.5231 20.0362 16.6569 20.9995 14.3538 20.9995C12.0517 20.9995 10.1855 20.0362 10.1855 18.8482V11.3203" stroke="black" stroke-width="1.5" stroke-linecap="round" stroke-linejoin="round"/>
<path fill-rule="evenodd" clip-rule="evenodd" d="M18.5231 11.3202C18.5231 12.5082 16.6569 13.4725 14.3538 13.4725C12.0517 13.4725 10.1855 12.5082 10.1855 11.3202C10.1855 10.1312 12.0517 9.16797 14.3538 9.16797C16.6569 9.16797 18.5231 10.1312 18.5231 11.3202Z" stroke="black" stroke-width="1.5" stroke-linecap="round" stroke-linejoin="round"/>
<path d="M9.64581 11.0683C7.34372 11.0683 5.47656 10.105 5.47656 8.91602" stroke="black" stroke-width="1.5" stroke-linecap="round" stroke-linejoin="round"/>
<path d="M9.64581 14.8319C7.34372 14.8319 5.47656 13.8687 5.47656 12.6797" stroke="black" stroke-width="1.5" stroke-linecap="round" stroke-linejoin="round"/>
<path d="M5.47751 5.15234L5.47656 16.4438C5.47656 17.6327 7.34372 18.596 9.64581 18.596" stroke="black" stroke-width="1.5" stroke-linecap="round" stroke-linejoin="round"/>
<path d="M13.8151 5.15234L13.8145 9.16875" stroke="black" stroke-width="1.5" stroke-linecap="round" stroke-linejoin="round"/>
<path fill-rule="evenodd" clip-rule="evenodd" d="M13.8141 5.15224C13.8141 6.34026 11.9479 7.30449 9.64483 7.30449C7.34275 7.30449 5.47656 6.34026 5.47656 5.15224C5.47656 3.96326 7.34275 3 9.64483 3C11.9479 3 13.8141 3.96326 13.8141 5.15224Z" stroke="black" stroke-width="1.5" stroke-linecap="round" stroke-linejoin="round"/>
</svg>