<svg width="24" height="24" viewBox="0 0 24 24" fill="none" xmlns="http://www.w3.org/2000/svg">
<path fill-rule="evenodd" clip-rule="evenodd" d="M7.69738 11.6898C7.17738 11.6198 6.66738 11.5098 6.16738 11.3398C5.76738 11.2098 5.37738 11.0398 5.00738 10.7898C4.90738 10.7298 4.81738 10.6498 4.70738 10.5698V12.9298C4.69738 13.2198 4.77738 13.4498 4.93738 13.6398C5.16738 13.9298 5.44738 14.1098 5.74738 14.2598C6.17738 14.4798 6.62738 14.6198 7.08738 14.7298C7.53738 14.8298 7.98738 14.8898 8.43738 14.9198C8.71738 14.9398 8.99738 14.9498 9.27738 14.9398C9.28738 14.2398 9.28738 13.2698 9.28738 13.0198L9.27738 11.7798C8.75738 11.7998 8.22738 11.7598 7.69738 11.6898Z" fill="black"/>
<path fill-rule="evenodd" clip-rule="evenodd" d="M7.53727 15.9897C7.12727 15.9197 6.71727 15.8297 6.31727 15.7197C5.84727 15.5897 5.39727 15.3897 4.96727 15.0897C4.88727 15.0297 4.79727 14.9697 4.70727 14.8997C4.70727 14.9497 4.70727 16.4997 4.69727 17.2297C4.69727 17.5797 4.80727 17.8297 4.99727 18.0397C5.21727 18.2897 5.47727 18.4497 5.74727 18.5897C6.23727 18.8297 6.73727 18.9797 7.24727 19.0797C7.72727 19.1797 8.21727 19.2297 8.70727 19.2497C8.89727 19.2597 9.08727 19.2597 9.27727 19.2597C9.28727 18.6097 9.28727 17.3297 9.28727 17.0197V16.0997C9.18727 16.1097 9.07727 16.1097 8.97727 16.1097C8.49727 16.1097 8.01727 16.0797 7.53727 15.9897Z" fill="black"/>
<path fill-rule="evenodd" clip-rule="evenodd" d="M12.4874 8.07981C12.8274 8.00981 13.1674 7.94981 13.5174 7.90981V6.30981C13.4174 6.38981 13.3274 6.44981 13.2374 6.51981C12.5174 6.98981 11.7474 7.20981 10.9574 7.35981C10.5874 7.41981 10.2174 7.45981 9.84738 7.48981C9.12738 7.54981 8.41738 7.52981 7.69738 7.42981C7.17738 7.35981 6.66738 7.24981 6.16738 7.07981C5.76738 6.94981 5.37738 6.77981 5.00738 6.52981C4.90738 6.45981 4.81738 6.38981 4.70738 6.30981V8.66981C4.69738 8.94981 4.77738 9.17981 4.93738 9.37981C5.16738 9.66981 5.44738 9.84981 5.74738 9.99981C6.17738 10.2198 6.62738 10.3598 7.08738 10.4698C7.53738 10.5698 7.98738 10.6298 8.43738 10.6598C8.72738 10.6798 9.01738 10.6898 9.29738 10.6798C9.30738 10.3498 9.40738 9.95981 9.69738 9.57981C10.0274 9.14981 10.4074 8.89981 10.7074 8.72981C11.2174 8.44981 11.7874 8.23981 12.4874 8.07981Z" fill="black"/>
<path fill-rule="evenodd" clip-rule="evenodd" d="M4.98919 5.13082C5.24319 5.41782 5.54419 5.59582 5.85619 5.74382C6.42019 6.01182 7.00619 6.15782 7.59919 6.25282C8.10119 6.33382 8.60519 6.37382 9.01119 6.36682C9.95919 6.36782 10.7992 6.27282 11.6272 6.02682C12.0402 5.90382 12.4422 5.74282 12.8202 5.48982C13.0272 5.35082 13.2212 5.18782 13.3702 4.95082C13.5692 4.63682 13.5722 4.27082 13.3702 3.96082C13.3012 3.85482 13.2212 3.75682 13.1352 3.67382C12.8142 3.36282 12.4442 3.18182 12.0642 3.03282C11.3872 2.76782 10.6922 2.63682 9.98819 2.57782C9.02819 2.49682 8.07219 2.53782 7.12219 2.74782C6.60619 2.86082 6.10019 3.01982 5.61819 3.28882C5.36119 3.43282 5.11619 3.60282 4.91919 3.86582C4.75519 4.08482 4.65919 4.33382 4.72819 4.64682C4.77219 4.84482 4.87119 4.99782 4.98919 5.13082Z" fill="black"/>
<path fill-rule="evenodd" clip-rule="evenodd" d="M19.3008 17.0859C19.2648 17.1129 19.2468 17.1279 19.2278 17.1409C19.0198 17.2739 18.8178 17.4229 18.6028 17.5349C17.8448 17.9339 17.0478 18.1189 16.2368 18.2279C15.7458 18.2939 15.2528 18.3149 14.7588 18.3109C14.2758 18.3079 13.7928 18.2779 13.3148 18.1939C12.9078 18.1209 12.5018 18.0279 12.0998 17.9169C11.6298 17.7869 11.1748 17.5909 10.7498 17.2929C10.6658 17.2339 10.5818 17.1719 10.4858 17.1019C10.4858 17.1529 10.4928 18.6979 10.4818 19.4349C10.4778 19.7769 10.5868 20.0299 10.7788 20.2419C11.0018 20.4879 11.2618 20.6529 11.5328 20.7889C12.0148 21.0309 12.5158 21.1769 13.0268 21.2809C13.5108 21.3789 13.9978 21.4339 14.4868 21.4519C15.3298 21.4829 16.1678 21.4249 16.9988 21.2289C17.4768 21.1159 17.9458 20.9639 18.3918 20.7129C18.6468 20.5699 18.8888 20.3999 19.0858 20.1399C19.2288 19.9509 19.3048 19.7309 19.3028 19.4589C19.2978 18.7079 19.3008 17.1399 19.3008 17.0859Z" fill="black"/>
<path fill-rule="evenodd" clip-rule="evenodd" d="M10.7149 15.8404C10.9459 16.1304 11.2289 16.3104 11.5239 16.4624C11.9569 16.6854 12.4069 16.8244 12.8649 16.9294C13.3129 17.0324 13.7639 17.0954 14.2169 17.1244C15.0929 17.1814 15.9649 17.1354 16.8319 16.9504C17.3589 16.8384 17.8759 16.6794 18.3689 16.4064C18.6329 16.2614 18.8839 16.0874 19.0869 15.8204C19.2289 15.6334 19.3049 15.4164 19.3029 15.1474C19.2969 14.3904 19.2979 12.8174 19.2959 12.7794C19.1969 12.8504 19.1069 12.9184 19.0159 12.9804C18.3009 13.4594 17.5269 13.6794 16.7379 13.8214C16.3699 13.8874 15.9989 13.9264 15.6279 13.9574C14.9109 14.0174 14.1939 13.9894 13.4789 13.8934C12.9619 13.8234 12.4499 13.7124 11.9459 13.5434C11.5469 13.4094 11.1569 13.2434 10.7909 12.9944C10.6929 12.9274 10.5959 12.8544 10.4849 12.7754C10.4849 12.8254 10.4899 14.3874 10.4829 15.1334C10.4809 15.4194 10.5609 15.6474 10.7149 15.8404Z" fill="black"/>
<path fill-rule="evenodd" clip-rule="evenodd" d="M11.3983 9.75342C11.1413 9.89642 10.8963 10.0674 10.6993 10.3304C10.5353 10.5494 10.4393 10.7984 10.5083 11.1114C10.5523 11.3094 10.6513 11.4624 10.7693 11.5954C11.0233 11.8824 11.3243 12.0604 11.6363 12.2084C12.2003 12.4764 12.7863 12.6224 13.3803 12.7174C13.8813 12.7974 14.3853 12.8384 14.7913 12.8314C15.7393 12.8324 16.5793 12.7374 17.4073 12.4914C17.8203 12.3684 18.2233 12.2074 18.6003 11.9544C18.8073 11.8154 19.0013 11.6524 19.1513 11.4154C19.3493 11.1014 19.3523 10.7354 19.1503 10.4254C19.0813 10.3194 19.0013 10.2214 18.9153 10.1384C18.5953 9.82742 18.2243 9.64642 17.8443 9.49742C17.1683 9.23242 16.4723 9.10142 15.7683 9.04242C14.8083 8.96142 13.8523 9.00242 12.9023 9.21242C12.3863 9.32542 11.8803 9.48442 11.3983 9.75342Z" fill="black"/>
</svg>