<svg width="24" height="24" viewBox="0 0 24 24" fill="none" xmlns="http://www.w3.org/2000/svg">
<path fill-rule="evenodd" clip-rule="evenodd" d="M10.4483 12.7227H5.10423C3.81117 12.7227 3.00098 13.6375 3.00098 14.9334V18.4296C3.00098 19.7245 3.80733 20.6403 5.10423 20.6403H10.4483C11.7452 20.6403 12.5515 19.7245 12.5515 18.4296V14.9334C12.5515 13.6375 11.7452 12.7227 10.4483 12.7227Z" stroke="black" stroke-width="1.5" stroke-linecap="round" stroke-linejoin="round"/>
<path d="M3 15.5332H12.5515" stroke="black" stroke-width="1.5" stroke-linecap="round" stroke-linejoin="round"/>
<path fill-rule="evenodd" clip-rule="evenodd" d="M21.0003 7.16081C21.0003 5.06236 19.2993 3.36133 17.2008 3.36133C15.1024 3.36133 13.4004 5.06236 13.4004 7.16081C13.4004 9.25926 15.1024 10.9603 17.2008 10.9603C19.2993 10.9603 21.0003 9.25926 21.0003 7.16081Z" stroke="black" stroke-width="1.5" stroke-linecap="round" stroke-linejoin="round"/>
<path d="M20.9994 15.5273C20.9994 18.3496 18.7109 20.6381 15.8887 20.6381L16.4954 19.0052" stroke="black" stroke-width="1.5" stroke-linecap="round" stroke-linejoin="round"/>
<path d="M3 8.47015C3 5.6479 5.28852 3.35938 8.11077 3.35938L7.50408 4.99225" stroke="black" stroke-width="1.5" stroke-linecap="round" stroke-linejoin="round"/>
</svg>