<svg width="24" height="24" viewBox="0 0 24 24" fill="none" xmlns="http://www.w3.org/2000/svg">
<path d="M20.1495 14.3008C20.1495 15.6464 18.0353 16.738 15.4278 16.738C12.8203 16.738 10.707 15.6464 10.707 14.3008" stroke="black" stroke-width="1.5" stroke-linecap="round" stroke-linejoin="round"/>
<path d="M8.5733 12.1365C5.96579 12.1365 3.85156 11.0458 3.85156 9.69922" stroke="black" stroke-width="1.5" stroke-linecap="round" stroke-linejoin="round"/>
<path d="M3.85156 5.4375V13.9624C3.85156 15.309 5.96579 16.3996 8.5733 16.3996" stroke="black" stroke-width="1.5" stroke-linecap="round" stroke-linejoin="round"/>
<path d="M8.5733 7.87449C5.96579 7.87449 3.85156 6.78381 3.85156 5.43724C3.85156 4.09165 5.96579 3 8.5733 3C11.1808 3 13.295 4.09165 13.295 5.43724" stroke="black" stroke-width="1.5" stroke-linecap="round" stroke-linejoin="round"/>
<path d="M20.1495 10.0391V18.564C20.1495 19.9105 18.0353 21.0012 15.4278 21.0012C12.8203 21.0012 10.707 19.9105 10.707 18.564V10.0391" stroke="black" stroke-width="1.5" stroke-linecap="round" stroke-linejoin="round"/>
<path fill-rule="evenodd" clip-rule="evenodd" d="M20.1495 10.0388C20.1495 11.3844 18.0353 12.4761 15.4278 12.4761C12.8203 12.4761 10.707 11.3844 10.707 10.0388C10.707 8.69321 12.8203 7.60156 15.4278 7.60156C18.0353 7.60156 20.1495 8.69321 20.1495 10.0388Z" stroke="black" stroke-width="1.5" stroke-linecap="round" stroke-linejoin="round"/>
</svg>