<svg width="25" height="24" viewBox="0 0 25 24" fill="none" xmlns="http://www.w3.org/2000/svg">
<path fill-rule="evenodd" clip-rule="evenodd" d="M2.72065 7.03412C3.01354 6.74123 3.48841 6.74123 3.78131 7.03412L4.60958 7.8624L5.43785 7.03412C5.73075 6.74123 6.20562 6.74123 6.49851 7.03412C6.79141 7.32702 6.79141 7.80189 6.49851 8.09478L5.13991 9.45339C4.99926 9.59404 4.80849 9.67306 4.60958 9.67306C4.41067 9.67306 4.2199 9.59404 4.07925 9.45339L2.72065 8.09478C2.42775 7.80189 2.42775 7.32702 2.72065 7.03412Z" fill="black"/>
<path fill-rule="evenodd" clip-rule="evenodd" d="M8.00393 4.14844C6.54193 4.14844 5.35742 5.33295 5.35742 6.79495V8.84567C5.35742 9.25988 5.02164 9.59567 4.60742 9.59567C4.19321 9.59567 3.85742 9.25988 3.85742 8.84567V6.79495C3.85742 4.50452 5.7135 2.64844 8.00393 2.64844C8.41815 2.64844 8.75393 2.98422 8.75393 3.39844C8.75393 3.81265 8.41815 4.14844 8.00393 4.14844Z" fill="black"/>
<path fill-rule="evenodd" clip-rule="evenodd" d="M19.3595 14.583C19.6524 14.2901 20.1273 14.2901 20.4202 14.583L21.7788 15.9416C22.0717 16.2344 22.0717 16.7093 21.7788 17.0022C21.4859 17.2951 21.011 17.2951 20.7181 17.0022L19.8899 16.1739L19.0616 17.0022C18.7687 17.2951 18.2938 17.2951 18.0009 17.0022C17.708 16.7093 17.708 16.2344 18.0009 15.9416L19.3595 14.583Z" fill="black"/>
<path fill-rule="evenodd" clip-rule="evenodd" d="M19.8907 14.4414C20.3049 14.4414 20.6407 14.7772 20.6407 15.1914V17.2421C20.6407 19.5326 18.7846 21.3886 16.4941 21.3886C16.0799 21.3886 15.7441 21.0529 15.7441 20.6386C15.7441 20.2244 16.0799 19.8886 16.4941 19.8886C17.9561 19.8886 19.1407 18.7041 19.1407 17.2421V15.1914C19.1407 14.7772 19.4764 14.4414 19.8907 14.4414Z" fill="black"/>
<path fill-rule="evenodd" clip-rule="evenodd" d="M3.24057 13.1944C3.74324 12.6554 4.44952 12.3672 5.24945 12.3672H10.327C11.1284 12.3672 11.835 12.6551 12.3374 13.195C12.8341 13.7287 13.0754 14.4479 13.0754 15.2182V18.5398C13.0754 19.3097 12.834 20.0286 12.3373 20.5622C11.8349 21.1019 11.1284 21.3898 10.327 21.3898H5.24945C4.44808 21.3898 3.74142 21.1019 3.23881 20.5624C2.7418 20.0289 2.5 19.31 2.5 18.5398V15.2182C2.5 14.4466 2.7433 13.7276 3.24057 13.1944ZM4.33754 14.2174C4.1422 14.4269 4 14.7584 4 15.2182V18.5398C4 19 4.14173 19.3311 4.33634 19.54C4.52536 19.7429 4.81842 19.8898 5.24945 19.8898H10.327C10.758 19.8898 11.0507 19.7429 11.2394 19.5402C11.4338 19.3313 11.5754 19.0002 11.5754 18.5398V15.2182C11.5754 14.7571 11.4337 14.4257 11.2393 14.2169C11.0506 14.0141 10.7579 13.8672 10.327 13.8672H5.24945C4.82093 13.8672 4.52748 14.0138 4.33754 14.2174Z" fill="black"/>
<path fill-rule="evenodd" clip-rule="evenodd" d="M2.5 15.7871C2.5 15.3729 2.83579 15.0371 3.25 15.0371H12.3254C12.7396 15.0371 13.0754 15.3729 13.0754 15.7871C13.0754 16.2013 12.7396 16.5371 12.3254 16.5371H3.25C2.83579 16.5371 2.5 16.2013 2.5 15.7871Z" fill="black"/>
<path fill-rule="evenodd" clip-rule="evenodd" d="M12.5684 7.15913C12.5684 4.64588 14.6049 2.60938 17.1181 2.60938C19.6302 2.60938 21.6679 4.64575 21.6679 7.15913C21.6679 9.6725 19.6302 11.7089 17.1181 11.7089C14.6049 11.7089 12.5684 9.67237 12.5684 7.15913ZM17.1181 4.10938C15.4333 4.10938 14.0684 5.47431 14.0684 7.15913C14.0684 8.84395 15.4333 10.2089 17.1181 10.2089C18.8021 10.2089 20.1679 8.84382 20.1679 7.15913C20.1679 5.47444 18.8021 4.10938 17.1181 4.10938Z" fill="black"/>
</svg>