<svg width="24" height="24" viewBox="0 0 24 24" fill="none" xmlns="http://www.w3.org/2000/svg">
<path fill-rule="evenodd" clip-rule="evenodd" d="M6.54366 13.0534C6.06366 12.9734 5.58366 12.8634 5.10366 12.7334C4.55366 12.5734 4.02366 12.3434 3.51366 11.9934C3.42366 11.9234 3.32366 11.8534 3.20366 11.7734C3.20366 11.8334 3.21366 13.6534 3.20366 14.5134C3.19366 14.9234 3.32366 15.2234 3.55366 15.4734C3.81366 15.7534 4.12366 15.9534 4.44366 16.1134C5.00366 16.3934 5.59366 16.5734 6.20366 16.6934C6.77366 16.8034 7.34366 16.8734 7.92366 16.8934C8.25366 16.9034 8.58366 16.9034 8.91366 16.8834V16.7234L8.90366 15.2034V15.1434C8.90366 15.0134 8.91366 14.8534 8.90366 14.6834C8.91366 14.4034 8.91366 14.0834 8.91366 13.7734V13.1734C8.69366 13.1934 8.46366 13.1934 8.24366 13.1934C7.67366 13.1934 7.10366 13.1534 6.54366 13.0534Z" fill="black"/>
<path fill-rule="evenodd" clip-rule="evenodd" d="M6.73361 7.99334C6.12361 7.90334 5.52361 7.77334 4.92361 7.57334C4.45361 7.42334 3.99361 7.22334 3.56361 6.93334C3.45361 6.85334 3.33361 6.76334 3.20361 6.67334C3.20361 6.73334 3.21361 8.57334 3.20361 9.45334C3.20361 9.78334 3.29361 10.0533 3.47361 10.2833C3.75361 10.6233 4.08361 10.8333 4.43361 11.0133C4.94361 11.2833 5.47361 11.4433 6.01361 11.5633C6.53361 11.6833 7.06361 11.7633 7.60361 11.7933C8.04361 11.8233 8.48361 11.8333 8.91361 11.8133L8.90361 9.54334L8.93361 9.56334C8.88361 9.14334 8.94361 8.61334 9.26361 8.06334C8.42361 8.13334 7.57361 8.10334 6.73361 7.99334Z" fill="black"/>
<path fill-rule="evenodd" clip-rule="evenodd" d="M3.54105 5.28293C3.84005 5.62093 4.19505 5.82993 4.56305 6.00493C5.22605 6.31993 5.91605 6.49293 6.61605 6.60493C7.20605 6.69893 7.80005 6.74693 8.27805 6.73793C9.39505 6.73993 10.3851 6.62893 11.3601 6.33793C11.8461 6.19293 12.3201 6.00393 12.7651 5.70593C13.0091 5.54193 13.2371 5.34993 13.4131 5.07093C13.6471 4.70093 13.6501 4.26993 13.4131 3.90493C13.3321 3.77993 13.2381 3.66493 13.1371 3.56693C12.7591 3.20093 12.3231 2.98793 11.8751 2.81193C11.0781 2.49893 10.2581 2.34593 9.42905 2.27593C8.29905 2.18093 7.17205 2.22893 6.05305 2.47593C5.44505 2.60893 4.84905 2.79593 4.28205 3.11293C3.97905 3.28193 3.69005 3.48293 3.45805 3.79293C3.26505 4.05093 3.15205 4.34493 3.23305 4.71293C3.28505 4.94693 3.40205 5.12593 3.54105 5.28293Z" fill="black"/>
<path fill-rule="evenodd" clip-rule="evenodd" d="M20.7946 16.6172C20.7526 16.6492 20.7305 16.6672 20.7076 16.6812C20.4635 16.8382 20.2256 17.0142 19.9726 17.1462C19.0796 17.6152 18.1406 17.8342 17.1856 17.9622C16.6066 18.0402 16.0266 18.0652 15.4446 18.0602C14.8746 18.0562 14.3066 18.0212 13.7436 17.9222C13.2646 17.8372 12.7866 17.7262 12.3126 17.5962C11.7596 17.4422 11.2236 17.2112 10.7226 16.8612C10.6236 16.7912 10.5246 16.7182 10.4106 16.6362C10.4106 16.6962 10.4196 18.5162 10.4076 19.3842C10.4016 19.7872 10.5296 20.0852 10.7566 20.3352C11.0196 20.6252 11.3246 20.8182 11.6436 20.9792C12.2126 21.2642 12.8026 21.4352 13.4036 21.5582C13.9746 21.6742 14.5476 21.7392 15.1236 21.7602C16.1166 21.7962 17.1046 21.7282 18.0836 21.4972C18.6466 21.3642 19.1986 21.1852 19.7236 20.8892C20.0236 20.7202 20.3085 20.5202 20.5406 20.2152C20.7106 19.9922 20.7996 19.7332 20.7966 19.4132C20.7906 18.5282 20.7946 16.6812 20.7946 16.6172Z" fill="black"/>
<path fill-rule="evenodd" clip-rule="evenodd" d="M10.681 15.15C10.953 15.491 11.286 15.704 11.634 15.883C12.144 16.145 12.674 16.31 13.214 16.433C13.741 16.554 14.272 16.628 14.806 16.663C15.838 16.73 16.865 16.675 17.886 16.458C18.507 16.325 19.117 16.138 19.697 15.817C20.007 15.646 20.303 15.441 20.543 15.126C20.71 14.906 20.799 14.651 20.797 14.333C20.79 13.442 20.791 11.589 20.789 11.544C20.671 11.628 20.567 11.709 20.458 11.781C19.617 12.345 18.705 12.604 17.775 12.771C17.342 12.849 16.905 12.895 16.468 12.932C15.623 13.003 14.779 12.97 13.937 12.857C13.328 12.775 12.724 12.644 12.131 12.444C11.66 12.287 11.202 12.091 10.771 11.798C10.655 11.718 10.541 11.633 10.411 11.54C10.411 11.599 10.416 13.439 10.408 14.317C10.405 14.654 10.499 14.922 10.681 15.15Z" fill="black"/>
<path fill-rule="evenodd" clip-rule="evenodd" d="M11.4862 7.9801C11.1832 8.1491 10.8952 8.3501 10.6632 8.6601C10.4702 8.9171 10.3562 9.2111 10.4382 9.5801C10.4892 9.8131 10.6072 9.9931 10.7452 10.1501C11.0442 10.4871 11.3992 10.6971 11.7672 10.8721C12.4312 11.1871 13.1212 11.3601 13.8202 11.4721C14.4112 11.5661 15.0042 11.6141 15.4822 11.6051C16.5992 11.6071 17.5892 11.4951 18.5642 11.2051C19.0502 11.0601 19.5252 10.8701 19.9692 10.5721C20.2132 10.4091 20.4422 10.2171 20.6182 9.9381C20.8512 9.5671 20.8552 9.1371 20.6182 8.7721C20.5362 8.6471 20.4422 8.5321 20.3412 8.4341C19.9632 8.0671 19.5272 7.8541 19.0792 7.6791C18.2822 7.3661 17.4622 7.2121 16.6342 7.1431C15.5032 7.0471 14.3762 7.0961 13.2572 7.3421C12.6502 7.4761 12.0532 7.6631 11.4862 7.9801Z" fill="black"/>
</svg>