<svg width="25" height="24" viewBox="0 0 25 24" fill="none" xmlns="http://www.w3.org/2000/svg">
<path d="M6.3227 5.99968V12.0224C5.11524 12.935 4.32227 14.3692 4.32227 15.9999C4.32227 18.7612 6.56108 21 9.32237 21C12.0837 21 14.3225 18.7612 14.3225 15.9999C14.3225 14.3692 13.5305 12.935 12.323 12.0224V5.99968C12.323 4.3427 10.9793 3 9.32237 3C7.6654 3 6.3227 4.3427 6.3227 5.99968Z" stroke="black" stroke-width="1.5" stroke-linecap="round" stroke-linejoin="round"/>
<path d="M17.6613 5.43994V7.80037M15.417 7.07162L17.6616 7.80135M17.6616 7.80135L16.274 9.71058M17.6616 7.80135L19.0488 9.71058M17.6616 7.80135L19.9059 7.07162" stroke="black" stroke-width="1.5" stroke-linecap="round" stroke-linejoin="round"/>
<path fill-rule="evenodd" clip-rule="evenodd" d="M10.7938 15.9997C10.7938 16.8131 10.1341 17.4728 9.32073 17.4728C8.50635 17.4728 7.84668 16.8131 7.84668 15.9997C7.84668 15.1863 8.50696 14.5264 9.32134 14.5264C10.1347 14.5264 10.7938 15.1863 10.7938 15.9997Z" stroke="black" stroke-width="1.5" stroke-linecap="round" stroke-linejoin="round"/>
<path d="M9.32129 10.481V14.5266" stroke="black" stroke-width="1.5" stroke-linecap="round" stroke-linejoin="round"/>
</svg>