<svg width="24" height="24" viewBox="0 0 24 24" fill="none" xmlns="http://www.w3.org/2000/svg">
<path fill-rule="evenodd" clip-rule="evenodd" d="M17.5303 10.4697C17.8232 10.7626 17.8232 11.2374 17.5303 11.5303L14.8107 14.25L21 14.25C21.4142 14.25 21.75 14.5858 21.75 15C21.75 15.4142 21.4142 15.75 21 15.75L14.8107 15.75L17.5303 18.4697C17.8232 18.7626 17.8232 19.2374 17.5303 19.5303C17.2374 19.8232 16.7626 19.8232 16.4697 19.5303L12.4697 15.5303C12.329 15.3897 12.25 15.1989 12.25 15C12.25 14.8011 12.329 14.6103 12.4697 14.4697L16.4697 10.4697C16.7626 10.1768 17.2374 10.1768 17.5303 10.4697Z" fill="black"/>
<path fill-rule="evenodd" clip-rule="evenodd" d="M6.46967 4.46967C6.76256 4.17678 7.23744 4.17678 7.53033 4.46967L11.5303 8.46967C11.671 8.61032 11.75 8.80109 11.75 9C11.75 9.19891 11.671 9.38968 11.5303 9.53033L7.53033 13.5303C7.23744 13.8232 6.76256 13.8232 6.46967 13.5303C6.17678 13.2374 6.17678 12.7626 6.46967 12.4697L9.18934 9.75L3 9.75C2.58579 9.75 2.25 9.41421 2.25 9C2.25 8.58579 2.58579 8.25 3 8.25L9.18934 8.25L6.46967 5.53033C6.17678 5.23744 6.17678 4.76256 6.46967 4.46967Z" fill="black"/>
</svg>