<svg width="25" height="24" viewBox="0 0 25 24" fill="none" xmlns="http://www.w3.org/2000/svg">
<path d="M9.48176 20.2646C8.98411 20.2638 8.49241 20.1564 8.03976 19.9496C5.77473 18.8758 3.95041 17.0522 2.87576 14.7876C2.61744 14.227 2.51598 13.6068 2.58219 12.9932C2.64841 12.3795 2.87981 11.7952 3.25177 11.3026L9.82777 2.6906C9.88664 2.60996 9.96101 2.54189 10.0465 2.49037C10.1321 2.43886 10.227 2.40492 10.3258 2.39058C10.4246 2.37624 10.5253 2.38179 10.622 2.40688C10.7186 2.43196 10.8093 2.47608 10.8886 2.53667C10.968 2.59726 11.0345 2.67308 11.0841 2.75969C11.1338 2.84631 11.1657 2.94197 11.1779 3.04106C11.1901 3.14016 11.1824 3.2407 11.1553 3.33678C11.1281 3.43286 11.082 3.52256 11.0198 3.6006L4.44476 12.2106C4.23737 12.4873 4.1088 12.815 4.0727 13.1588C4.03661 13.5027 4.09434 13.8499 4.23976 14.1636C5.16476 16.1003 6.72642 17.6609 8.66377 18.5846C8.97526 18.7323 9.32129 18.7918 9.66423 18.7565C10.0072 18.7213 10.3338 18.5926 10.6088 18.3846L19.2288 11.8116C19.3876 11.6983 19.5842 11.6513 19.7771 11.6805C19.9699 11.7096 20.1439 11.8127 20.2621 11.9678C20.3804 12.123 20.4336 12.318 20.4106 12.5117C20.3876 12.7054 20.2901 12.8825 20.1388 13.0056L11.5218 19.5736C10.9373 20.024 10.2196 20.2671 9.48176 20.2646Z" fill="black"/>
<path d="M19.465 21.6365C19.0063 21.6387 18.5556 21.5167 18.1607 21.2834C17.7657 21.0502 17.4414 20.7143 17.222 20.3115C16.9871 19.8998 16.8648 19.4336 16.8672 18.9596C16.8697 18.4857 16.9968 18.0207 17.236 17.6115C17.7311 16.9107 18.3446 16.3016 19.049 15.8115C19.1722 15.7294 19.3169 15.6855 19.465 15.6855C19.613 15.6855 19.7578 15.7294 19.881 15.8115C20.5794 16.2962 21.1884 16.8985 21.681 17.5915C21.9255 18.0021 22.057 18.4702 22.062 18.9481C22.0671 19.426 21.9457 19.8967 21.71 20.3125C21.4903 20.7154 21.1655 21.0513 20.7702 21.2844C20.3749 21.5175 19.9239 21.6392 19.465 21.6365ZM19.465 17.3785C19.0965 17.6836 18.7703 18.0363 18.495 18.4275C18.4037 18.6075 18.3594 18.8077 18.366 19.0094C18.3727 19.2111 18.4301 19.4078 18.5329 19.5815C18.6239 19.7494 18.7585 19.8896 18.9226 19.9873C19.0866 20.085 19.274 20.1365 19.465 20.1365C19.6559 20.1365 19.8433 20.085 20.0073 19.9873C20.1714 19.8896 20.306 19.7494 20.397 19.5815C20.5016 19.4038 20.5587 19.2022 20.5627 18.996C20.5667 18.7898 20.5176 18.5861 20.42 18.4045C20.149 18.0213 19.8278 17.6762 19.465 17.3785Z" fill="black"/>
<path d="M19.0452 13.3774C18.3081 13.3341 17.592 13.1157 16.9562 12.7404C14.11 11.0888 11.7443 8.72278 10.0932 5.87634C9.11121 4.00134 9.4432 3.07035 9.8932 2.61935C10.3432 2.16835 11.2742 1.83434 13.1502 2.81934C15.9968 4.47027 18.3629 6.836 20.0142 9.68234C20.9952 11.5563 20.6632 12.4884 20.2142 12.9394C20.0593 13.0879 19.8757 13.2033 19.6748 13.2786C19.4738 13.3539 19.2596 13.3875 19.0452 13.3774ZM11.0832 3.66834C11.0333 3.66619 10.9835 3.67474 10.9372 3.69336C10.7972 4.02036 11.4862 6.04636 14.1372 8.69336C16.7372 11.2934 18.7372 12.0074 19.1492 11.8694C19.2862 11.4554 18.5732 9.45836 15.9732 6.85736C13.5722 4.46036 11.6852 3.66834 11.0832 3.66834Z" fill="black"/>
</svg>