<svg width="25" height="24" viewBox="0 0 25 24" fill="none" xmlns="http://www.w3.org/2000/svg">
<path opacity="0.4" d="M10.612 3.23828L4.03662 11.8481C3.44019 12.6343 3.33802 13.6715 3.74473 14.5666C4.13781 15.4209 4.80235 16.4513 5.73154 17.3795C6.65976 18.3087 7.68333 18.9664 8.5376 19.3585C9.43273 19.7662 10.4767 19.6708 11.2561 19.0676L19.8718 12.499" stroke="black" stroke-width="1.5" stroke-linecap="round" stroke-linejoin="round"/>
<path fill-rule="evenodd" clip-rule="evenodd" d="M19.6526 20.9797C18.09 20.9797 17.3855 19.1904 18.0608 18.1016C18.6893 17.1705 19.6526 16.5273 19.6526 16.5273C19.6526 16.5273 20.6158 17.1705 21.2453 18.1016C21.9196 19.1904 21.2152 20.9797 19.6526 20.9797Z" stroke="black" stroke-width="1.5" stroke-linecap="round" stroke-linejoin="round"/>
<path fill-rule="evenodd" clip-rule="evenodd" d="M19.8715 12.5005C19.0717 13.3003 16.3513 11.8758 13.7943 9.31886C11.2383 6.76286 9.81386 4.04145 10.6127 3.24166C11.4125 2.44285 14.1339 3.86631 16.6899 6.42329C19.2468 8.98026 20.6713 11.7007 19.8715 12.5005Z" stroke="black" stroke-width="1.5" stroke-linecap="round" stroke-linejoin="round"/>
</svg>