<svg width="25" height="24" viewBox="0 0 25 24" fill="none" xmlns="http://www.w3.org/2000/svg">
<path fill-rule="evenodd" clip-rule="evenodd" d="M5.66797 6.00746C5.66797 3.9327 7.34906 2.25 9.42445 2.25H15.0755C17.1497 2.25 18.832 3.93254 18.832 6.00746V17.9935C18.832 20.0688 17.1494 21.75 15.0755 21.75H9.42445C7.34938 21.75 5.66797 20.0686 5.66797 17.9935V6.00746ZM9.42445 3.75C8.17812 3.75 7.16797 4.76049 7.16797 6.00746V17.9935C7.16797 19.2402 8.1778 20.25 9.42445 20.25H15.0755C16.3213 20.25 17.332 19.24 17.332 17.9935V6.00746C17.332 4.76065 16.321 3.75 15.0755 3.75H9.42445Z" fill="black"/>
<path fill-rule="evenodd" clip-rule="evenodd" d="M9.14648 11.1934C9.14648 10.7791 9.48227 10.4434 9.89648 10.4434H14.6066C15.0209 10.4434 15.3566 10.7791 15.3566 11.1934C15.3566 11.6076 15.0209 11.9434 14.6066 11.9434H9.89648C9.48227 11.9434 9.14648 11.6076 9.14648 11.1934Z" fill="black"/>
<path fill-rule="evenodd" clip-rule="evenodd" d="M9.14648 7.67969C9.14648 7.26547 9.48227 6.92969 9.89648 6.92969H14.6066C15.0209 6.92969 15.3566 7.26547 15.3566 7.67969C15.3566 8.0939 15.0209 8.42969 14.6066 8.42969H9.89648C9.48227 8.42969 9.14648 8.0939 9.14648 7.67969Z" fill="black"/>
<path fill-rule="evenodd" clip-rule="evenodd" d="M11.2686 17.3789C11.2686 16.8366 11.7086 16.3984 12.2494 16.3984C12.7903 16.3984 13.2303 16.8366 13.2303 17.3789C13.2303 17.9207 12.7912 18.3598 12.2494 18.3598C11.7077 18.3598 11.2686 17.9207 11.2686 17.3789Z" fill="black"/>
</svg>