<svg width="25" height="24" viewBox="0 0 25 24" fill="none" xmlns="http://www.w3.org/2000/svg">
<path opacity="0.4" d="M19.539 11.9975C19.539 11.2559 19.951 10.6349 20.558 10.317C20.97 10.1008 21.177 9.99272 21.232 9.94832C21.424 9.79362 21.438 9.76962 21.486 9.52782C21.5 9.45842 21.5 9.34202 21.5 9.10922C21.5 8.02452 21.5 7.48212 21.372 7.03942C21.062 5.97412 20.229 5.14112 19.164 4.83172C18.721 4.70312 18.179 4.70313 17.094 4.70313H7.907C6.825 4.70313 6.283 4.70313 5.842 4.83113C4.774 5.14063 3.939 5.97612 3.63 7.04442C3.503 7.48632 3.503 8.02763 3.504 9.11023C3.5124 11.0553 3.5 12.9687 3.5 14.8975C3.5 15.977 3.5 16.5168 3.627 16.9575C3.936 18.0262 4.772 18.8618 5.841 19.1706C6.281 19.298 6.821 19.298 7.901 19.298H17.094C18.178 19.298 18.72 19.298 19.163 19.1695C20.229 18.8601 21.062 18.0267 21.371 16.9608C21.5 16.5183 21.5 15.9761 21.499 14.8918C21.499 14.6592 21.499 14.543 21.486 14.4738C21.438 14.2319 21.424 14.2089 21.232 14.0538C21.177 14.0095 20.971 13.9006 20.558 13.683C19.95 13.3631 19.539 12.7387 19.539 11.9975Z" stroke="black" stroke-width="1.5" stroke-linecap="round" stroke-linejoin="round"/>
<path fill-rule="evenodd" clip-rule="evenodd" d="M15.0069 13.4815C15.0069 14.4653 14.2095 15.2637 13.2246 15.2637C12.2408 15.2637 11.4424 14.4653 11.4424 13.4815C11.4424 12.4976 12.2408 11.6992 13.2246 11.6992C14.2095 11.6992 15.0069 12.4976 15.0069 13.4815Z" stroke="black" stroke-width="1.5" stroke-linecap="round" stroke-linejoin="round"/>
<path d="M15.0062 13.4825L15.0059 8.13281C15.0059 8.13281 15.4684 9.33793 16.7144 9.59112" stroke="black" stroke-width="1.5" stroke-linecap="round" stroke-linejoin="round"/>
<path d="M7.90918 4.74603V19.1429" stroke="black" stroke-width="1.5" stroke-linecap="round" stroke-linejoin="round"/>
</svg>