<svg width="25" height="24" viewBox="0 0 25 24" fill="none" xmlns="http://www.w3.org/2000/svg">
<path d="M12.5007 21.0004C8.14886 21.0004 4.62012 19.335 4.62012 17.2812" stroke="black" stroke-width="1.5" stroke-linecap="round" stroke-linejoin="round"/>
<path d="M20.3791 17.2812C20.3791 18.7221 18.6432 19.9718 16.1045 20.5894" stroke="black" stroke-width="1.5" stroke-linecap="round" stroke-linejoin="round"/>
<path d="M10.3262 13.7048C11.0165 13.6115 11.7463 13.5615 12.5001 13.5615C13.1992 13.5615 13.878 13.6048 14.5241 13.6856" stroke="black" stroke-width="1.5" stroke-linecap="round" stroke-linejoin="round"/>
<path d="M4.61914 17.281C4.61914 16.1186 5.74892 15.0811 7.5181 14.3984" stroke="black" stroke-width="1.5" stroke-linecap="round" stroke-linejoin="round"/>
<path d="M17.4785 14.3984C19.2477 15.0801 20.3775 16.1186 20.3775 17.281" stroke="black" stroke-width="1.5" stroke-linecap="round" stroke-linejoin="round"/>
<path d="M4.99414 16.0924L11.3786 3.71681C11.8718 2.76106 13.1247 2.76106 13.6179 3.71681L15.214 6.81071" stroke="black" stroke-width="1.5" stroke-linecap="round" stroke-linejoin="round"/>
<path d="M20.0028 16.0921L16.8105 9.9043" stroke="black" stroke-width="1.5" stroke-linecap="round" stroke-linejoin="round"/>
</svg>