<svg width="25" height="24" viewBox="0 0 25 24" fill="none" xmlns="http://www.w3.org/2000/svg">
<path fill-rule="evenodd" clip-rule="evenodd" d="M11.8891 2.46967C12.182 2.17678 12.6569 2.17678 12.9498 2.46967L14.8856 4.40551C15.1785 4.69841 15.1785 5.17328 14.8856 5.46617C14.5928 5.75907 14.1179 5.75907 13.825 5.46617L13.1695 4.81066V11.9209L16.993 10.7029V9.67521H16.9435C16.1693 9.67521 15.5412 9.04711 15.5412 8.27283V6.67382C15.5412 5.89785 16.17 5.27145 16.9435 5.27145H18.5425C19.3161 5.27145 19.9449 5.89785 19.9449 6.67382V8.27283C19.9449 9.04711 19.3168 9.67521 18.5425 9.67521H18.493V11.2511C18.493 11.5776 18.2818 11.8666 17.9707 11.9657L13.1695 13.4951V14.6934C13.1697 14.7036 13.1697 14.7139 13.1695 14.7242V16.1612C14.3765 16.4905 15.264 17.595 15.264 18.9054C15.264 20.4763 13.9903 21.75 12.4194 21.75C10.8485 21.75 9.57483 20.4763 9.57483 18.9054C9.57483 17.5949 10.4624 16.4905 11.6695 16.1612V15.3121L6.93438 14.2678C6.59067 14.192 6.34591 13.8874 6.34591 13.5354V11.6414C5.30779 11.3205 4.55469 10.3511 4.55469 9.21339C4.55469 7.81559 5.69112 6.6737 7.09534 6.6737C8.49956 6.6737 9.636 7.81559 9.636 9.21339C9.636 10.3507 8.88345 11.3198 7.84591 11.641V12.9328L11.6695 13.776V12.9641C11.6692 12.9525 11.6692 12.9409 11.6695 12.9294V4.81066L11.014 5.46617C10.7211 5.75907 10.2462 5.75907 9.9533 5.46617C9.66041 5.17328 9.66041 4.69841 9.9533 4.40551L11.8891 2.46967ZM18.4449 8.17521V6.77145H17.0412V8.17521H18.4449ZM7.09534 8.1737C6.52113 8.1737 6.05469 8.64244 6.05469 9.21339C6.05469 9.78487 6.52166 10.254 7.09534 10.254C7.66903 10.254 8.136 9.78487 8.136 9.21339C8.136 8.64244 7.66955 8.1737 7.09534 8.1737ZM12.4195 17.5613C11.677 17.5613 11.0748 18.1639 11.0748 18.9054C11.0748 19.6479 11.677 20.25 12.4194 20.25C13.1619 20.25 13.764 19.6479 13.764 18.9054C13.764 18.1639 13.1619 17.5613 12.4195 17.5613Z" fill="black"/>
</svg>