<svg width="24" height="25" viewBox="0 0 24 25" fill="none" xmlns="http://www.w3.org/2000/svg">
<path d="M9.35156 9.46679L10.9763 7.84209C12.4428 6.37555 14.8205 6.37555 16.2871 7.84209C17.7536 9.30864 17.7536 11.6864 16.2871 13.1529L14.6624 14.7776" stroke="black" stroke-width="1.5" stroke-linecap="round" stroke-linejoin="round"/>
<path d="M16.291 7.83656L20.9909 3.13672" stroke="black" stroke-width="1.5" stroke-linecap="round" stroke-linejoin="round"/>
<path d="M14.6487 14.8069L13.024 16.4316C11.5575 17.8982 9.17973 17.8981 7.71319 16.4316C6.24665 14.9651 6.24665 12.5873 7.71319 11.1208L9.3379 9.49609" stroke="black" stroke-width="1.5" stroke-linecap="round" stroke-linejoin="round"/>
<path d="M15.2856 15.4233L8.71387 8.85156" stroke="black" stroke-width="1.5" stroke-linecap="round" stroke-linejoin="round"/>
<path d="M7.70961 16.4375L3.00977 21.1373" stroke="black" stroke-width="1.5" stroke-linecap="round" stroke-linejoin="round"/>
<path d="M19.0029 14.4375L20.4763 14.8323" stroke="black" stroke-width="1.5" stroke-linecap="round" stroke-linejoin="round"/>
<path d="M3.51074 9.30078L4.98414 9.69558" stroke="black" stroke-width="1.5" stroke-linecap="round" stroke-linejoin="round"/>
<path d="M14.1631 19.1406L14.7031 20.5672" stroke="black" stroke-width="1.5" stroke-linecap="round" stroke-linejoin="round"/>
<path d="M9.28516 3.56641L9.8252 4.99298" stroke="black" stroke-width="1.5" stroke-linecap="round" stroke-linejoin="round"/>
</svg>