<svg width="24" height="25" viewBox="0 0 24 25" fill="none" xmlns="http://www.w3.org/2000/svg">
<path fill-rule="evenodd" clip-rule="evenodd" d="M15.7568 8.37242C14.5831 7.19877 12.6803 7.19877 11.5066 8.37242L9.88189 9.99712C9.589 10.29 9.11412 10.29 8.82123 9.99711C8.52834 9.70422 8.52834 9.22935 8.82124 8.93645L10.4459 7.31176C10.4459 7.31176 10.4459 7.31176 10.4459 7.31176C12.2054 5.55233 15.058 5.55233 16.8174 7.31176C18.5769 9.0712 18.5769 11.9238 16.8174 13.6832L15.1927 15.3079C14.8998 15.6008 14.4249 15.6008 14.132 15.3079C13.8392 15.015 13.8392 14.5402 14.1321 14.2473L15.7568 12.6226C16.9304 11.4489 16.9304 9.54607 15.7568 8.37242Z" fill="black"/>
<path fill-rule="evenodd" clip-rule="evenodd" d="M21.5212 2.60639C21.8141 2.89928 21.8141 3.37416 21.5212 3.66705L16.8213 8.36689C16.5285 8.65979 16.0536 8.65979 15.7607 8.36689C15.4678 8.074 15.4678 7.59913 15.7607 7.30623L20.4605 2.60639C20.7534 2.3135 21.2283 2.3135 21.5212 2.60639Z" fill="black"/>
<path fill-rule="evenodd" clip-rule="evenodd" d="M9.86823 8.96577C10.1611 9.25866 10.1611 9.73353 9.86822 10.0264L8.24352 11.6511C8.24352 11.6511 8.24352 11.6511 8.24352 11.6511C7.06987 12.8248 7.06987 14.7276 8.24352 15.9013C9.41717 17.0749 11.32 17.0749 12.4937 15.9013L12.9758 16.3834L12.4937 15.9013L14.1184 14.2766C14.4113 13.9837 14.8862 13.9837 15.179 14.2766C15.4719 14.5695 15.4719 15.0444 15.179 15.3372L13.5543 16.9619C13.5543 16.9619 13.5543 16.9619 13.5543 16.9619C11.7949 18.7214 8.94229 18.7214 7.18286 16.9619C5.42342 15.2025 5.42342 12.3499 7.18286 10.5905L7.18286 10.5905L8.80757 8.96576C9.10046 8.67287 9.57534 8.67287 9.86823 8.96577Z" fill="black"/>
<path fill-rule="evenodd" clip-rule="evenodd" d="M8.18354 8.32123C8.47643 8.02834 8.9513 8.02834 9.2442 8.32123L15.8159 14.893C16.1088 15.1858 16.1088 15.6607 15.8159 15.9536C15.523 16.2465 15.0481 16.2465 14.7553 15.9536L8.18354 9.38189C7.89064 9.089 7.89064 8.61413 8.18354 8.32123Z" fill="black"/>
<path fill-rule="evenodd" clip-rule="evenodd" d="M8.23994 15.9072C8.53283 16.2001 8.53283 16.6749 8.23994 16.9678L3.5401 21.6677C3.2472 21.9606 2.77233 21.9606 2.47944 21.6677C2.18654 21.3748 2.18654 20.8999 2.47944 20.607L7.17928 15.9072C7.47217 15.6143 7.94705 15.6143 8.23994 15.9072Z" fill="black"/>
<path fill-rule="evenodd" clip-rule="evenodd" d="M18.2785 14.244C18.3857 13.8439 18.797 13.6064 19.1971 13.7136L20.6705 14.1084C21.0706 14.2156 21.308 14.6269 21.2008 15.027C21.0936 15.4271 20.6824 15.6645 20.2823 15.5573L18.8089 15.1625C18.4088 15.0553 18.1713 14.6441 18.2785 14.244Z" fill="black"/>
<path fill-rule="evenodd" clip-rule="evenodd" d="M2.78648 9.10685C2.89369 8.70675 3.30494 8.46932 3.70504 8.57652L5.17844 8.97132C5.57854 9.07852 5.81597 9.48978 5.70877 9.88988C5.60156 10.29 5.19031 10.5274 4.79021 10.4202L3.31681 10.0254C2.91671 9.91821 2.67928 9.50695 2.78648 9.10685Z" fill="black"/>
<path fill-rule="evenodd" clip-rule="evenodd" d="M13.8977 18.4413C14.2851 18.2947 14.718 18.4898 14.8647 18.8772L15.4047 20.3038C15.5513 20.6912 15.3562 21.1241 14.9688 21.2707C14.5814 21.4174 14.1485 21.2222 14.0018 20.8348L13.4618 19.4083C13.3152 19.0209 13.5103 18.588 13.8977 18.4413Z" fill="black"/>
<path fill-rule="evenodd" clip-rule="evenodd" d="M9.01983 2.86519C9.40722 2.71854 9.84013 2.91369 9.98678 3.30108L10.5268 4.72765C10.6735 5.11504 10.4783 5.54796 10.0909 5.69461C9.70354 5.84125 9.27062 5.6461 9.12398 5.25871L8.58394 3.83214C8.43729 3.44475 8.63244 3.01183 9.01983 2.86519Z" fill="black"/>
</svg>