<svg width="24" height="24" viewBox="0 0 24 24" fill="none" xmlns="http://www.w3.org/2000/svg">
<path d="M14.2644 18.9047C14.2644 20.0614 13.3264 20.9993 12.1698 20.9993C11.0131 20.9993 10.0752 20.0614 10.0752 18.9047C10.0752 17.749 11.0132 16.8105 12.1698 16.8105C13.3265 16.8105 14.2644 17.749 14.2644 18.9047Z" stroke="black" stroke-width="1.5" stroke-linecap="round" stroke-linejoin="round"/>
<path d="M10.2324 4.93584L12.1683 3L14.1041 4.93584" stroke="black" stroke-width="1.5" stroke-linecap="round" stroke-linejoin="round"/>
<path d="M16.041 8.27287V6.67386C16.041 6.31283 16.3333 6.02148 16.6934 6.02148H18.2924C18.6525 6.02148 18.9448 6.31283 18.9448 6.67386V8.27287C18.9448 8.63294 18.6525 8.92525 18.2924 8.92525H16.6934C16.3333 8.92525 16.041 8.63294 16.041 8.27287Z" stroke="black" stroke-width="1.5" stroke-linecap="round" stroke-linejoin="round"/>
<path d="M8.636 9.21351C8.636 10.1979 7.83456 11.0042 6.84534 11.0042C5.85613 11.0042 5.05469 10.1979 5.05469 9.21351C5.05469 8.22914 5.85613 7.42383 6.84534 7.42383C7.83456 7.42383 8.636 8.22914 8.636 9.21351Z" stroke="black" stroke-width="1.5" stroke-linecap="round" stroke-linejoin="round"/>
<path d="M12.1693 14.7101L6.8457 13.536V11.1348" stroke="black" stroke-width="1.5" stroke-linecap="round" stroke-linejoin="round"/>
<path d="M12.1699 12.9475L17.4935 11.2517V8.92578" stroke="black" stroke-width="1.5" stroke-linecap="round" stroke-linejoin="round"/>
<path d="M12.1699 3V16.8113" stroke="black" stroke-width="1.5" stroke-linecap="round" stroke-linejoin="round"/>
</svg>