<svg width="24" height="25" viewBox="0 0 24 25" fill="none" xmlns="http://www.w3.org/2000/svg">
<path fill-rule="evenodd" clip-rule="evenodd" d="M3.7402 4.03408C4.72468 2.97789 6.12669 2.38672 7.78216 2.38672H16.2169C17.8762 2.38672 19.2788 2.97756 20.2629 4.03437C21.2413 5.08513 21.75 6.53561 21.75 8.1631V16.1103C21.75 17.7378 21.2413 19.1883 20.2627 20.2391C19.2785 21.2959 17.8756 21.8867 16.2159 21.8867H7.78216C6.1228 21.8867 4.72038 21.2959 3.73657 20.239C2.75842 19.1882 2.25 17.7377 2.25 16.1103V8.1631C2.25 6.53477 2.76117 5.08443 3.7402 4.03408ZM4.83745 5.05684C4.16024 5.78338 3.75 6.84623 3.75 8.1631V16.1103C3.75 17.4281 4.15861 18.4909 4.83451 19.217C5.50475 19.937 6.49341 20.3867 7.78216 20.3867H16.2159C17.5052 20.3867 18.4944 19.9369 19.165 19.2168C19.8412 18.4907 20.25 17.428 20.25 16.1103V8.1631C20.25 6.8454 19.8412 5.78269 19.1651 5.05656C18.4946 4.33647 17.5056 3.88672 16.2169 3.88672H7.78216C6.49828 3.88672 5.50921 4.33615 4.83745 5.05684Z" fill="black"/>
<path fill-rule="evenodd" clip-rule="evenodd" d="M14.9122 9.21453C14.0272 8.32953 12.5923 8.32953 11.7073 9.21453L11.7073 9.21454L10.4024 10.5195C10.1095 10.8123 9.63463 10.8123 9.34174 10.5195C9.04885 10.2266 9.04885 9.75168 9.34174 9.45879L10.6467 8.15387C10.6467 8.15387 10.6467 8.15387 10.6467 8.15387C12.1175 6.68308 14.5021 6.68308 15.9729 8.15387C17.4437 9.62466 17.4437 12.0093 15.9729 13.4801L15.4705 12.9777L15.9729 13.4801L14.6679 14.785C14.375 15.0779 13.9002 15.0779 13.6073 14.785C13.3144 14.4921 13.3144 14.0172 13.6073 13.7243L14.9122 12.4194C15.7972 11.5344 15.7972 10.0995 14.9122 9.21453Z" fill="black"/>
<path fill-rule="evenodd" clip-rule="evenodd" d="M20.0928 4.03608C20.3857 4.32897 20.3857 4.80384 20.0928 5.09674L15.9766 9.21295C15.6837 9.50584 15.2089 9.50584 14.916 9.21295C14.6231 8.92005 14.6231 8.44518 14.916 8.15229L19.0322 4.03608C19.3251 3.74318 19.7999 3.74318 20.0928 4.03608Z" fill="black"/>
<path fill-rule="evenodd" clip-rule="evenodd" d="M10.3915 9.4853C10.6844 9.77819 10.6844 10.2531 10.3915 10.546L9.0866 11.8509C9.0866 11.8509 9.0866 11.8509 9.0866 11.8509C8.2016 12.7359 8.2016 14.1708 9.0866 15.0558C9.97161 15.9408 11.4065 15.9408 12.2915 15.0558L13.5964 13.7508C13.8893 13.4579 14.3642 13.4579 14.6571 13.7508C14.95 14.0437 14.95 14.5186 14.6571 14.8115L13.3521 16.1164C11.8814 17.5872 9.49673 17.5872 8.02594 16.1164C6.55515 14.6456 6.55515 12.261 8.02594 10.7902L9.33088 9.48529C9.62377 9.1924 10.0986 9.1924 10.3915 9.4853Z" fill="black"/>
<path fill-rule="evenodd" clip-rule="evenodd" d="M8.83002 8.96576C9.12291 8.67287 9.59779 8.67287 9.89068 8.96576L15.1689 14.244C15.4618 14.5369 15.4618 15.0118 15.1689 15.3047C14.8761 15.5976 14.4012 15.5976 14.1083 15.3047L8.83002 10.0264C8.53713 9.73353 8.53713 9.25866 8.83002 8.96576Z" fill="black"/>
<path fill-rule="evenodd" clip-rule="evenodd" d="M9.08453 15.0595C9.37742 15.3524 9.37742 15.8273 9.08453 16.1202L4.91998 20.2847C4.62709 20.5776 4.15221 20.5776 3.85932 20.2847C3.56643 19.9918 3.56643 19.517 3.85932 19.2241L8.02387 15.0595C8.31676 14.7666 8.79164 14.7666 9.08453 15.0595Z" fill="black"/>
<path fill-rule="evenodd" clip-rule="evenodd" d="M16.8996 13.7909C17.0068 13.3908 17.4181 13.1533 17.8182 13.2605L19.0016 13.5776C19.4017 13.6848 19.6391 14.0961 19.5319 14.4962C19.4247 14.8963 19.0135 15.1337 18.6134 15.0265L17.43 14.7094C17.0299 14.6022 16.7924 14.191 16.8996 13.7909Z" fill="black"/>
<path fill-rule="evenodd" clip-rule="evenodd" d="M4.45738 9.66545C4.56459 9.26535 4.97584 9.02791 5.37594 9.13512L6.55934 9.45221C6.95944 9.55941 7.19688 9.97067 7.08967 10.3708C6.98247 10.7709 6.57121 11.0083 6.17111 10.9011L4.98771 10.584C4.58761 10.4768 4.35018 10.0655 4.45738 9.66545Z" fill="black"/>
<path fill-rule="evenodd" clip-rule="evenodd" d="M13.4705 17.0624C13.8578 16.9158 14.2908 17.1109 14.4374 17.4983L14.8712 18.6441C15.0178 19.0315 14.8226 19.4644 14.4353 19.611C14.0479 19.7577 13.615 19.5625 13.4683 19.1752L13.0346 18.0294C12.8879 17.642 13.0831 17.2091 13.4705 17.0624Z" fill="black"/>
<path fill-rule="evenodd" clip-rule="evenodd" d="M9.55401 4.55269C9.94139 4.40604 10.3743 4.60119 10.521 4.98858L10.9547 6.13438C11.1014 6.52176 10.9062 6.95468 10.5188 7.10133C10.1314 7.24798 9.69851 7.05282 9.55187 6.66543L9.11812 5.51964C8.97147 5.13225 9.16662 4.69933 9.55401 4.55269Z" fill="black"/>
</svg>