<svg width="24" height="25" viewBox="0 0 24 25" fill="none" xmlns="http://www.w3.org/2000/svg">
<path d="M7.86533 16.2696C6.88368 15.288 6.88368 13.6964 7.86533 12.7147L8.42403 12.156C8.6186 11.9615 8.93407 11.9615 9.12864 12.156L11.9789 15.0063C12.1735 15.2009 12.1735 15.5164 11.9789 15.7109L11.4202 16.2696C10.4386 17.2513 8.84698 17.2513 7.86533 16.2696Z" stroke="black" stroke-width="1.5" stroke-linecap="round" stroke-linejoin="round"/>
<path d="M15.9786 8.15634C14.997 7.17469 13.4054 7.17469 12.4237 8.15634L11.865 8.71505C11.6705 8.90962 11.6705 9.22509 11.865 9.41966L14.7153 12.2699C14.9099 12.4645 15.2253 12.4645 15.4199 12.2699L15.9786 11.7112C16.9603 10.7296 16.9603 9.138 15.9786 8.15634Z" stroke="black" stroke-width="1.5" stroke-linecap="round" stroke-linejoin="round"/>
<path d="M9.62793 12.6562L10.7292 11.555M11.4822 14.5105L12.5834 13.4092" stroke="black" stroke-width="1.5" stroke-linecap="round" stroke-linejoin="round"/>
<path d="M7.86346 16.2734L5.5625 18.5743" stroke="black" stroke-width="1.5" stroke-linecap="round" stroke-linejoin="round"/>
<path d="M15.9814 8.15602L18.2781 5.85938" stroke="black" stroke-width="1.5" stroke-linecap="round" stroke-linejoin="round"/>
<path d="M18.364 5.94073C21.8787 9.45545 21.8787 15.1539 18.364 18.6686C14.8492 22.1834 9.15076 22.1834 5.63604 18.6686C2.12132 15.1539 2.12132 9.45545 5.63604 5.94073C9.15076 2.42601 14.8492 2.42601 18.364 5.94073Z" stroke="black" stroke-width="1.5" stroke-linecap="round" stroke-linejoin="round"/>
</svg>