<svg width="24" height="25" viewBox="0 0 24 25" fill="none" xmlns="http://www.w3.org/2000/svg">
<path d="M7.12513 17.0109C5.94552 15.8313 5.94552 13.9187 7.12513 12.7391L7.7965 12.0678C8.03031 11.8339 8.40939 11.8339 8.6432 12.0678L12.0682 15.4928C12.3021 15.7266 12.3021 16.1057 12.0682 16.3395L11.3969 17.0109C10.2173 18.1905 8.30474 18.1905 7.12513 17.0109Z" stroke="black" stroke-width="1.5" stroke-linecap="round" stroke-linejoin="round"/>
<path d="M7.12258 17.0132L4.38574 19.75" stroke="black" stroke-width="1.5" stroke-linecap="round" stroke-linejoin="round"/>
<path d="M11.9314 8.78049L15.3564 12.2055C15.5902 12.4393 15.9693 12.4393 16.2031 12.2055L16.8745 11.5342C18.0541 10.3546 18.0541 8.44203 16.8745 7.26242C15.992 6.37996 14.6994 6.15766 13.6103 6.59553" stroke="black" stroke-width="1.5" stroke-linecap="round" stroke-linejoin="round"/>
<path d="M16.8779 7.25978L19.6377 4.5" stroke="black" stroke-width="1.5" stroke-linecap="round" stroke-linejoin="round"/>
<path d="M9.24219 12.668L10.5655 11.3446M11.4703 14.8961L12.7937 13.5728" stroke="black" stroke-width="1.5" stroke-linecap="round" stroke-linejoin="round"/>
<path d="M16.2159 21.1367C19.165 21.1367 21 19.0555 21 16.1103V8.1631C21 5.21791 19.165 3.13672 16.2169 3.13672H7.78216C4.84281 3.13672 3 5.21791 3 8.1631V16.1103C3 19.0555 4.83405 21.1367 7.78216 21.1367H11.999" stroke="black" stroke-width="1.5" stroke-linecap="round" stroke-linejoin="round"/>
</svg>