<svg width="25" height="25" viewBox="0 0 25 25" fill="none" xmlns="http://www.w3.org/2000/svg">
<path fill-rule="evenodd" clip-rule="evenodd" d="M18.65 6.47106C15.4282 3.24923 10.2046 3.24923 6.98278 6.47106C3.76095 9.69288 3.76095 14.9165 6.98278 18.1383C10.2046 21.3601 15.4282 21.3601 18.65 18.1383C21.8719 14.9165 21.8719 9.69288 18.65 6.47106ZM5.92212 5.4104C9.72973 1.60278 15.9031 1.60278 19.7107 5.4104C23.5183 9.21801 23.5183 15.3914 19.7107 19.199C15.9031 23.0066 9.72973 23.0066 5.92212 19.199C2.1145 15.3914 2.1145 9.21801 5.92212 5.4104Z" fill="black"/>
<path fill-rule="evenodd" clip-rule="evenodd" d="M15.0801 9.86756C14.3921 9.17956 13.2767 9.17956 12.5887 9.86756L11.502 10.9542C11.2091 11.2471 10.7342 11.2471 10.4413 10.9542C10.1485 10.6613 10.1485 10.1865 10.4414 9.89356L11.528 8.8069C11.528 8.8069 11.528 8.8069 11.528 8.8069C12.8018 7.53312 14.867 7.53312 16.1408 8.8069C17.4146 10.0807 17.4146 12.1459 16.1408 13.4197L15.0541 14.5063C14.7612 14.7992 14.2863 14.7992 13.9935 14.5063C13.7006 14.2134 13.7006 13.7386 13.9935 13.4457L15.0801 12.359C15.7681 11.671 15.7681 10.5556 15.0801 9.86756Z" fill="black"/>
<path fill-rule="evenodd" clip-rule="evenodd" d="M19.5714 5.37592C19.8643 5.66881 19.8643 6.14369 19.5714 6.43658L16.1436 9.86434C15.8507 10.1572 15.3758 10.1572 15.083 9.86434C14.7901 9.57144 14.7901 9.09657 15.083 8.80367L18.5107 5.37592C18.8036 5.08303 19.2785 5.08303 19.5714 5.37592Z" fill="black"/>
<path fill-rule="evenodd" clip-rule="evenodd" d="M11.4926 9.91498C11.7855 10.2079 11.7855 10.6828 11.4926 10.9756L10.4059 12.0623C10.4059 12.0623 10.4059 12.0623 10.4059 12.0623C9.71789 12.7503 9.71789 13.8658 10.4059 14.5538C11.0939 15.2418 12.2093 15.2418 12.8973 14.5538L13.3923 15.0487L12.8973 14.5538L13.984 13.4671C14.2769 13.1742 14.7518 13.1742 15.0447 13.4671C15.3376 13.76 15.3376 14.2349 15.0447 14.5278L13.958 15.6144C13.958 15.6144 13.958 15.6144 13.958 15.6144C12.6842 16.8882 10.619 16.8882 9.34523 15.6144C8.07145 14.3406 8.07145 12.2754 9.34523 11.0016L9.34523 11.0016L10.4319 9.91498C10.7248 9.62209 11.1997 9.62209 11.4926 9.91498Z" fill="black"/>
<path fill-rule="evenodd" clip-rule="evenodd" d="M10.0146 9.48127C10.3075 9.18837 10.7824 9.18837 11.0753 9.48127L15.4707 13.8767C15.7636 14.1696 15.7636 14.6445 15.4707 14.9374C15.1778 15.2303 14.7029 15.2303 14.41 14.9374L10.0146 10.5419C9.7217 10.249 9.7217 9.77416 10.0146 9.48127Z" fill="black"/>
<path fill-rule="evenodd" clip-rule="evenodd" d="M10.4046 14.5556C10.6975 14.8485 10.6975 15.3234 10.4046 15.6163L6.93658 19.0843C6.64369 19.3772 6.16881 19.3772 5.87592 19.0843C5.58303 18.7914 5.58303 18.3165 5.87592 18.0236L9.34393 14.5556C9.63682 14.2627 10.1117 14.2627 10.4046 14.5556Z" fill="black"/>
<path fill-rule="evenodd" clip-rule="evenodd" d="M17.177 13.9979C17.2842 13.5978 17.6954 13.3603 18.0955 13.4676L19.081 13.7316C19.4811 13.8388 19.7185 14.2501 19.6113 14.6502C19.5041 15.0503 19.0929 15.2877 18.6928 15.1805L17.7073 14.9164C17.3072 14.8092 17.0698 14.398 17.177 13.9979Z" fill="black"/>
<path fill-rule="evenodd" clip-rule="evenodd" d="M14.3984 16.6405C14.7858 16.4939 15.2187 16.689 15.3654 17.0764L15.7266 18.0306C15.8732 18.418 15.6781 18.8509 15.2907 18.9975C14.9033 19.1442 14.4704 18.949 14.3237 18.5616L13.9625 17.6075C13.8159 17.2201 14.011 16.7872 14.3984 16.6405Z" fill="black"/>
<path fill-rule="evenodd" clip-rule="evenodd" d="M5.86632 9.7631C5.97352 9.363 6.38478 9.12557 6.78488 9.23277L7.77035 9.49683C8.17045 9.60404 8.40788 10.0153 8.30068 10.4154C8.19347 10.8155 7.78222 11.0529 7.38212 10.9457L6.39665 10.6817C5.99655 10.5745 5.75911 10.1632 5.86632 9.7631Z" fill="black"/>
<path fill-rule="evenodd" clip-rule="evenodd" d="M10.1866 5.41987C10.574 5.27323 11.0069 5.46838 11.1535 5.85577L11.5147 6.80992C11.6614 7.19731 11.4662 7.63023 11.0788 7.77688C10.6915 7.92352 10.2585 7.72837 10.1119 7.34098L9.75068 6.38683C9.60404 5.99944 9.79919 5.56652 10.1866 5.41987Z" fill="black"/>
</svg>