<svg width="24" height="25" viewBox="0 0 24 25" fill="none" xmlns="http://www.w3.org/2000/svg">
<path d="M12.6692 16.985L7.73512 12.0509C7.43806 11.7539 6.95643 11.7539 6.65937 12.0509L5.8064 12.9039C4.3077 14.4026 4.3077 16.8325 5.8064 18.3312C7.1057 19.6305 9.10489 19.8033 10.5904 18.8498" stroke="black" stroke-width="1.5" stroke-linecap="round" stroke-linejoin="round"/>
<path d="M5.8029 18.332L3 21.1349" stroke="black" stroke-width="1.5" stroke-linecap="round" stroke-linejoin="round"/>
<path d="M11.3446 7.30477L16.2647 12.2246C16.5617 12.5216 17.0434 12.5216 17.3404 12.2246L18.1934 11.3716C19.6921 9.87291 19.6921 7.44304 18.1934 5.94434C16.9168 4.66777 14.9647 4.47856 13.4878 5.37672" stroke="black" stroke-width="1.5" stroke-linecap="round" stroke-linejoin="round"/>
<path d="M18.197 5.93962L20.9999 3.13672" stroke="black" stroke-width="1.5" stroke-linecap="round" stroke-linejoin="round"/>
<path d="M8.49609 12.8101L10.1774 11.1288M11.327 15.641L13.0083 13.9597" stroke="black" stroke-width="1.5" stroke-linecap="round" stroke-linejoin="round"/>
</svg>