<svg width="24" height="24" viewBox="0 0 24 24" fill="none" xmlns="http://www.w3.org/2000/svg">
<path d="M16.0244 16.0603C16.2316 16.3299 16.4292 16.5916 16.7532 16.8339C17.4285 17.3379 18.2331 17.5724 19.4844 17.1044C20.8077 16.5644 21.0325 15.1418 20.9965 13.8282C21.0062 13.5305 20.763 6.75247 17.9636 5.28613C17.3876 5.03315 15.7578 4.14187 13.8497 5.33965C12.2209 6.35645 11.6088 6.20369 10.1503 5.33965C8.16048 4.1516 6.61241 5.03315 6.03638 5.28613C3.24577 6.75247 2.99376 13.5305 3.00349 13.8282C2.96749 15.1418 3.19226 16.5644 4.51556 17.1044C5.77561 17.5724 6.57835 17.3379 7.25363 16.8339C7.59613 16.5819 7.75765 16.3299 7.95614 16.0603" stroke="black" stroke-width="1.5" stroke-linecap="round" stroke-linejoin="round"/>
<path d="M16.0098 11.6516V11.6416" stroke="black" stroke-width="1.5" stroke-linecap="round" stroke-linejoin="round"/>
<path d="M14.5742 10.217V10.207" stroke="black" stroke-width="1.5" stroke-linecap="round" stroke-linejoin="round"/>
<path d="M17.4434 10.217V10.207" stroke="black" stroke-width="1.5" stroke-linecap="round" stroke-linejoin="round"/>
<path d="M16.0098 8.78148V8.77148" stroke="black" stroke-width="1.5" stroke-linecap="round" stroke-linejoin="round"/>
<path d="M8.00318 8.77148V11.6419M9.43876 10.2073H6.56836" stroke="black" stroke-width="1.5" stroke-linecap="round" stroke-linejoin="round"/>
<path d="M13.0781 16.8467L10.6543 19.2705M13.0781 19.2705L10.6543 16.8467" stroke="black" stroke-width="1.5" stroke-linecap="round" stroke-linejoin="round"/>
</svg>