<svg width="25" height="24" viewBox="0 0 25 24" fill="none" xmlns="http://www.w3.org/2000/svg">
<path opacity="0.4" d="M8.63274 4H16.6762C19.4748 4 21.2084 5.55385 21.2002 8.41097V17.0799C21.2002 19.937 19.4666 21.5001 16.668 21.5001H8.63274C5.84238 21.5001 4.10059 19.9093 4.10059 17.008V8.41097C4.10059 5.55385 5.84238 4 8.63274 4Z" stroke="black" stroke-width="1.5" stroke-linecap="round" stroke-linejoin="round"/>
<path fill-rule="evenodd" clip-rule="evenodd" d="M12.6501 14.8516C10.7429 14.8516 9.11719 15.1391 9.11719 16.2935C9.11719 17.4478 10.7347 17.7457 12.6501 17.7457C14.5562 17.7457 16.183 17.4571 16.183 16.3037C16.183 15.1504 14.5665 14.8516 12.6501 14.8516Z" stroke="black" stroke-width="1.5" stroke-linecap="round" stroke-linejoin="round"/>
<path fill-rule="evenodd" clip-rule="evenodd" d="M14.8931 10.3445C14.8931 11.5831 13.8887 12.5865 12.6512 12.5865C11.4126 12.5865 10.4082 11.5831 10.4082 10.3445C10.4082 9.10597 11.4126 8.10156 12.6512 8.10156C13.8887 8.10156 14.8931 9.10597 14.8931 10.3445Z" stroke="black" stroke-width="1.5" stroke-linecap="round" stroke-linejoin="round"/>
<path d="M16.4928 2.5V5.62619M8.81641 2.5V5.62619" stroke="black" stroke-width="1.5" stroke-linecap="round" stroke-linejoin="round"/>
</svg>