<svg width="25" height="24" viewBox="0 0 25 24" fill="none" xmlns="http://www.w3.org/2000/svg">
<path fill-rule="evenodd" clip-rule="evenodd" d="M5.14623 3.70857C6.10945 2.69792 7.49325 2.19055 9.1602 2.19535H17.2212C18.8878 2.19535 20.2727 2.70528 21.2375 3.7162C22.1973 4.72178 22.6503 6.12787 22.6503 7.74513V16.2527C22.6503 17.8694 22.1876 19.2765 21.213 20.2823C20.2347 21.2918 18.8323 21.8025 17.1444 21.8025H9.15911C7.49106 21.8025 6.10785 21.2896 5.14552 20.2771C4.18871 19.2704 3.73828 17.8648 3.73828 16.2527V7.73598C3.73828 6.11994 4.18837 4.71358 5.14623 3.70857ZM6.23206 4.74344C5.61086 5.39522 5.23828 6.38874 5.23828 7.73598V16.2527C5.23828 17.5947 5.61053 18.589 6.23277 19.2437C6.84948 19.8925 7.80168 20.3025 9.15911 20.3025H17.1444C18.5287 20.3025 19.5042 19.8903 20.1358 19.2384C20.7711 18.5829 21.1503 17.5901 21.1503 16.2527V7.74513C21.1503 6.39911 20.7761 5.40531 20.1524 4.75182C19.5338 4.10367 18.5793 3.69535 17.2212 3.69535H9.15911L9.15684 3.69534C7.79884 3.69124 6.84765 4.09754 6.23206 4.74344Z" fill="black"/>
<path fill-rule="evenodd" clip-rule="evenodd" d="M10.8041 13.6413C11.6078 13.3716 12.6448 13.2969 13.6704 13.2969C14.7019 13.2969 15.7396 13.3745 16.5428 13.6476C16.9484 13.7855 17.3488 13.991 17.6544 14.3111C17.9772 14.6494 18.1611 15.0825 18.1611 15.5843C18.1611 16.0877 17.9754 16.5213 17.6505 16.8587C17.3434 17.1776 16.9415 17.3812 16.5358 17.5173C15.732 17.7869 14.6951 17.8617 13.6704 17.8617C12.639 17.8617 11.6013 17.7843 10.798 17.5113C10.3924 17.3735 9.99192 17.168 9.68632 16.8477C9.36342 16.5094 9.17969 16.0761 9.17969 15.5742C9.17969 15.0711 9.36504 14.6375 9.68979 14.3C9.99678 13.981 10.3985 13.7774 10.8041 13.6413ZM10.7706 15.3402C10.7095 15.4037 10.6797 15.4665 10.6797 15.5742C10.6797 15.6834 10.71 15.7477 10.7715 15.8122C10.8503 15.8948 11.0046 15.9973 11.2806 16.0911C11.8405 16.2813 12.6731 16.3617 13.6704 16.3617C14.6632 16.3617 15.4966 16.2837 16.0588 16.0951C16.3361 16.0021 16.4911 15.9002 16.5701 15.8182C16.6313 15.7546 16.6611 15.6918 16.6611 15.5843C16.6611 15.4756 16.6309 15.4113 16.5693 15.3468C16.4905 15.2642 16.336 15.1617 16.06 15.0678C15.5001 14.8774 14.6675 14.7969 13.6704 14.7969C12.6765 14.7969 11.8432 14.8748 11.2813 15.0634C11.0042 15.1564 10.8494 15.2582 10.7706 15.3402Z" fill="black"/>
<path fill-rule="evenodd" clip-rule="evenodd" d="M13.6692 7.65234C12.7719 7.65234 12.0449 8.37931 12.0449 9.27663C12.0449 10.1739 12.7719 10.9009 13.6692 10.9009C14.5665 10.9009 15.2935 10.1739 15.2935 9.27663C15.2935 8.37931 14.5665 7.65234 13.6692 7.65234ZM10.5449 9.27663C10.5449 7.55089 11.9435 6.15234 13.6692 6.15234C15.3949 6.15234 16.7935 7.55089 16.7935 9.27663C16.7935 11.0024 15.3949 12.4009 13.6692 12.4009C11.9435 12.4009 10.5449 11.0024 10.5449 9.27663Z" fill="black"/>
<path fill-rule="evenodd" clip-rule="evenodd" d="M2.15039 7.93359C2.15039 7.51938 2.48618 7.18359 2.90039 7.18359H6.21122C6.62543 7.18359 6.96122 7.51938 6.96122 7.93359C6.96122 8.34781 6.62543 8.68359 6.21122 8.68359H2.90039C2.48618 8.68359 2.15039 8.34781 2.15039 7.93359ZM2.15039 16.06C2.15039 15.6458 2.48618 15.31 2.90039 15.31H6.21122C6.62543 15.31 6.96122 15.6458 6.96122 16.06C6.96122 16.4742 6.62543 16.81 6.21122 16.81H2.90039C2.48618 16.81 2.15039 16.4742 2.15039 16.06Z" fill="black"/>
</svg>