<svg width="24" height="24" viewBox="0 0 24 24" fill="none" xmlns="http://www.w3.org/2000/svg">
<path d="M7.88593 6.94238H16.1134C18.8092 6.94238 20.9954 9.12762 20.9954 11.8244V16.1181C20.9954 18.8139 18.8092 21.0001 16.1134 21.0001H7.88593C5.18915 21.0001 3.00391 18.8139 3.00391 16.1181V11.8244C3.00391 9.12762 5.18915 6.94238 7.88593 6.94238Z" stroke="black" stroke-width="1.5" stroke-linecap="round" stroke-linejoin="round"/>
<path d="M16.5725 15.5977H16.5625" stroke="black" stroke-width="1.5" stroke-linecap="round" stroke-linejoin="round"/>
<path d="M14.9397 12.3818H14.9297" stroke="black" stroke-width="1.5" stroke-linecap="round" stroke-linejoin="round"/>
<path d="M9.16241 12.2793V15.6481M10.8822 13.9641H7.44531" stroke="black" stroke-width="1.5" stroke-linecap="round" stroke-linejoin="round"/>
<path d="M8.46484 3C8.46484 3.66617 9.01626 4.20592 9.69508 4.20592H10.6462C11.6946 4.20981 12.5436 5.04228 12.5484 6.07023V6.80718" stroke="black" stroke-width="1.5" stroke-linecap="round" stroke-linejoin="round"/>
</svg>