<svg width="24" height="24" viewBox="0 0 24 24" fill="none" xmlns="http://www.w3.org/2000/svg">
<g opacity="0.4">
<path fill-rule="evenodd" clip-rule="evenodd" d="M21.497 13.8465C21.498 13.7745 21.349 6.49947 18.192 4.84947C18.183 4.84447 18.174 4.83947 18.164 4.83547L18.054 4.78547C17.385 4.47747 15.608 3.65847 13.587 4.91747C12.161 5.80847 11.77 5.72747 10.404 4.91247C8.32797 3.67447 6.67097 4.44647 5.96397 4.77647L5.80797 4.84947C2.67197 6.48847 2.50097 13.7725 2.50297 13.8225C2.48497 14.5595 2.42997 16.8005 4.34697 17.5815C4.84697 17.7655 5.34597 17.8565 5.82397 17.8565C6.54397 17.8565 7.21397 17.6495 7.76497 17.2405C9.27685 16.1202 9.91313 13.1342 11.7535 12.7421C11.8964 12.7116 12.051 12.6955 12.218 12.6955C12.6337 12.6955 12.9685 12.7912 13.2363 12.9556C14.653 13.8252 14.9017 16.25 16.236 17.2415C17.152 17.9195 18.399 18.0435 19.668 17.5745C21.572 16.7995 21.515 14.5585 21.497 13.8465Z" fill="black"/>
<path fill-rule="evenodd" clip-rule="evenodd" d="M12.2181 13.9453C11.8041 13.9453 11.4681 14.2813 11.4681 14.6953V16.8953C11.4681 17.3093 11.8041 17.6453 12.2181 17.6453C12.6321 17.6453 12.9681 17.3093 12.9681 16.8953V14.6953C12.9681 14.2813 12.6321 13.9453 12.2181 13.9453Z" fill="black"/>
<path fill-rule="evenodd" clip-rule="evenodd" d="M12.2235 18.3125C11.8225 18.3125 11.4975 18.6375 11.4975 19.0385C11.4975 19.4395 11.8225 19.7645 12.2235 19.7645C12.6245 19.7645 12.9495 19.4395 12.9495 19.0385C12.9495 18.6375 12.6245 18.3125 12.2235 18.3125Z" fill="black"/>
</g>
<path fill-rule="evenodd" clip-rule="evenodd" d="M17.828 10.8854C17.698 11.0254 17.498 11.1054 17.298 11.1054C17.108 11.1054 16.908 11.0254 16.778 10.8854C16.638 10.7454 16.548 10.5554 16.548 10.3554C16.548 10.1654 16.638 9.96542 16.778 9.82542C17.048 9.54542 17.558 9.54542 17.828 9.82542C17.968 9.96542 18.058 10.1654 18.058 10.3554C18.058 10.5554 17.968 10.7454 17.828 10.8854ZM16.438 12.2854C16.288 12.4254 16.098 12.5054 15.908 12.5054C15.808 12.5054 15.708 12.4854 15.618 12.4454C15.528 12.4154 15.438 12.3554 15.378 12.2854C15.238 12.1454 15.148 11.9554 15.148 11.7554C15.148 11.6554 15.168 11.5654 15.208 11.4754C15.248 11.3754 15.308 11.2954 15.378 11.2254C15.648 10.9454 16.148 10.9454 16.438 11.2254C16.498 11.2954 16.558 11.3754 16.598 11.4754C16.638 11.5654 16.658 11.6554 16.658 11.7554C16.658 11.9554 16.578 12.1454 16.438 12.2854ZM14.498 11.1054C14.308 11.1054 14.108 11.0254 13.978 10.8854C13.838 10.7454 13.748 10.5554 13.748 10.3554C13.748 10.2554 13.768 10.1654 13.808 10.0654C13.848 9.97542 13.908 9.89542 13.978 9.82542C14.248 9.54542 14.758 9.54542 15.038 9.82542C15.098 9.89542 15.158 9.97542 15.198 10.0654C15.238 10.1654 15.258 10.2554 15.258 10.3554C15.258 10.5554 15.178 10.7454 15.038 10.8854C14.898 11.0254 14.698 11.1054 14.498 11.1054ZM15.378 8.32542C15.438 8.25542 15.528 8.20542 15.618 8.16542C15.888 8.05542 16.218 8.11542 16.438 8.32542C16.578 8.46542 16.658 8.66542 16.658 8.85542C16.658 8.95542 16.638 9.05542 16.598 9.14542C16.558 9.23542 16.498 9.31542 16.438 9.38542C16.298 9.52542 16.098 9.60542 15.908 9.60542C15.708 9.60542 15.508 9.52542 15.378 9.38542C15.308 9.31542 15.248 9.23542 15.208 9.14542C15.168 9.05542 15.148 8.95542 15.148 8.85542C15.148 8.66542 15.238 8.46542 15.378 8.32542ZM9.30295 11.1074H8.65295V11.7574C8.65295 12.1714 8.31695 12.5074 7.90295 12.5074C7.48895 12.5074 7.15295 12.1714 7.15295 11.7574V11.1074H6.40295C5.98895 11.1074 5.65295 10.7714 5.65295 10.3574C5.65295 9.94342 5.98895 9.60742 6.40295 9.60742H7.15295V8.85742C7.15295 8.44342 7.48895 8.10742 7.90295 8.10742C8.31695 8.10742 8.65295 8.44342 8.65295 8.85742V9.60742H9.30295C9.71695 9.60742 10.053 9.94342 10.053 10.3574C10.053 10.7714 9.71695 11.1074 9.30295 11.1074Z" fill="black"/>
<path fill-rule="evenodd" clip-rule="evenodd" d="M12.2181 13.9463C11.8041 13.9463 11.4681 14.2823 11.4681 14.6963V16.8963C11.4681 17.3103 11.8041 17.6463 12.2181 17.6463C12.6321 17.6463 12.9681 17.3103 12.9681 16.8963V14.6963C12.9681 14.2823 12.6321 13.9463 12.2181 13.9463Z" fill="black"/>
<path fill-rule="evenodd" clip-rule="evenodd" d="M12.2235 18.3135C11.8225 18.3135 11.4975 18.6385 11.4975 19.0395C11.4975 19.4405 11.8225 19.7655 12.2235 19.7655C12.6245 19.7655 12.9495 19.4405 12.9495 19.0395C12.9495 18.6385 12.6245 18.3135 12.2235 18.3135Z" fill="black"/>
</svg>