<svg width="24" height="24" viewBox="0 0 24 24" fill="none" xmlns="http://www.w3.org/2000/svg">
<path opacity="0.4" d="M13.35 6.52539H16.1C19.08 6.52539 21.5 8.94539 21.5 11.9254V16.2254C21.5 19.2054 19.08 21.6254 16.1 21.6254H7.9C4.92 21.6254 2.5 19.2054 2.5 16.2254V11.9254C2.5 8.94539 4.92 6.52539 7.9 6.52539H11.85H13.35Z" fill="black"/>
<path fill-rule="evenodd" clip-rule="evenodd" d="M16.63 16.5058C16.2 16.5058 15.86 16.1658 15.86 15.7458C15.86 15.3158 16.2 14.9758 16.63 14.9758C17.05 14.9758 17.39 15.3158 17.39 15.7458C17.39 16.1658 17.05 16.5058 16.63 16.5058ZM14.9 13.2958C14.47 13.2958 14.13 12.9558 14.13 12.5258C14.13 12.1058 14.47 11.7558 14.9 11.7558C15.32 11.7558 15.67 12.1058 15.67 12.5258C15.67 12.9558 15.32 13.2958 14.9 13.2958ZM10.9 14.8758H9.95V15.8258C9.95 16.2358 9.61 16.5758 9.2 16.5758C8.79 16.5758 8.45 16.2358 8.45 15.8258V14.8758H7.5C7.09 14.8758 6.75 14.5358 6.75 14.1258C6.75 13.7158 7.09 13.3758 7.5 13.3758H8.45V12.4258C8.45 12.0158 8.79 11.6758 9.2 11.6758C9.61 11.6758 9.95 12.0158 9.95 12.4258V13.3758H10.9C11.31 13.3758 11.65 13.7158 11.65 14.1258C11.65 14.5358 11.31 14.8758 10.9 14.8758Z" fill="black"/>
<path d="M11.845 6.52808H13.345V6.225C13.345 4.714 12.205 3.575 10.695 3.575H9.695C9.507 3.575 9.245 3.404 9.245 3.125C9.245 2.711 8.90899 2.375 8.495 2.375C8.081 2.375 7.745 2.711 7.745 3.125C7.745 4.182 8.63799 5.075 9.695 5.075H10.695C11.382 5.075 11.845 5.537 11.845 6.225V6.52808Z" fill="black"/>
</svg>