<svg width="25" height="24" viewBox="0 0 25 24" fill="none" xmlns="http://www.w3.org/2000/svg">
<path fill-rule="evenodd" clip-rule="evenodd" d="M4.93949 4.95314C5.85847 4.07929 7.13757 3.67188 8.59452 3.67188H16.2149C17.6751 3.67188 18.9549 4.07898 19.8725 4.95382C20.7957 5.83394 21.2549 7.09459 21.2508 8.60159V16.8137C21.2508 18.3212 20.7895 19.5833 19.8662 20.465C18.9481 21.3417 17.6685 21.7514 16.2071 21.7514H8.59452C7.13306 21.7514 5.85235 21.3328 4.93424 20.4427C4.01245 19.549 3.55078 18.2716 3.55078 16.7456V8.6008C3.55078 7.09265 4.01476 5.83246 4.93949 4.95314ZM5.97313 6.04015C5.41189 6.57383 5.05078 7.40311 5.05078 8.6008V16.7456C5.05078 17.9682 5.4142 18.8187 5.97838 19.3658C6.54625 19.9163 7.4124 20.2514 8.59452 20.2514H16.2071C17.3971 20.2514 18.2643 19.9206 18.8302 19.3802C19.3909 18.8448 19.7508 18.013 19.7508 16.8137V8.6008L19.7508 8.59864C19.7543 7.40041 19.3961 6.5721 18.8375 6.03948C18.273 5.50132 17.406 5.17188 16.2149 5.17188H8.59452C7.4079 5.17188 6.54013 5.501 5.97313 6.04015Z" fill="black"/>
<path fill-rule="evenodd" clip-rule="evenodd" d="M10.2998 16.2044C9.9427 16.5281 9.80469 16.9336 9.80469 17.2849C9.80469 17.6991 9.4689 18.0349 9.05469 18.0349C8.64047 18.0349 8.30469 17.6991 8.30469 17.2849C8.30469 16.5436 8.5977 15.7227 9.29243 15.093C9.98905 14.4616 11.0216 14.082 12.3998 14.082C13.7769 14.082 14.8094 14.4584 15.5065 15.0868C16.2024 15.7141 16.4958 16.5333 16.4958 17.2752C16.4958 17.6894 16.16 18.0252 15.7458 18.0252C15.3316 18.0252 14.9958 17.6894 14.9958 17.2752C14.9958 16.9244 14.8583 16.522 14.5021 16.2009C14.1472 15.8809 13.5066 15.582 12.3998 15.582C11.2949 15.582 10.6549 15.8825 10.2998 16.2044Z" fill="black"/>
<path fill-rule="evenodd" clip-rule="evenodd" d="M12.3993 9.06641C11.6329 9.06641 11.0117 9.6875 11.0117 10.4531C11.0117 11.2186 11.6329 11.8397 12.3993 11.8397C13.1653 11.8397 13.786 11.2191 13.786 10.4531C13.786 9.68705 13.1654 9.06641 12.3993 9.06641ZM9.51172 10.4531C9.51172 8.85818 10.8054 7.56641 12.3993 7.56641C13.9938 7.56641 15.286 8.85863 15.286 10.4531C15.286 12.0475 13.9938 13.3397 12.3993 13.3397C10.8054 13.3397 9.51172 12.0479 9.51172 10.4531Z" fill="black"/>
<path fill-rule="evenodd" clip-rule="evenodd" d="M8.76758 2.25C9.18179 2.25 9.51758 2.58579 9.51758 3V5.96174C9.51758 6.37595 9.18179 6.71174 8.76758 6.71174C8.35336 6.71174 8.01758 6.37595 8.01758 5.96174V3C8.01758 2.58579 8.35336 2.25 8.76758 2.25ZM16.0392 2.25C16.4534 2.25 16.7892 2.58579 16.7892 3V5.96174C16.7892 6.37595 16.4534 6.71174 16.0392 6.71174C15.625 6.71174 15.2892 6.37595 15.2892 5.96174V3C15.2892 2.58579 15.625 2.25 16.0392 2.25Z" fill="black"/>
</svg>