<svg width="25" height="24" viewBox="0 0 25 24" fill="none" xmlns="http://www.w3.org/2000/svg">
<path d="M9.83989 20.5126H15.1591C18.6609 20.5126 21.5 17.6735 21.5 14.1717V14.1192C21.5 10.6175 18.6609 7.7793 15.1591 7.7793H9.83989C6.33816 7.7793 3.5 10.6175 3.5 14.1192V14.1717C3.5 17.6735 6.33816 20.5126 9.83989 20.5126Z" stroke="black" stroke-width="1.5" stroke-linecap="round" stroke-linejoin="round"/>
<path opacity="0.4" d="M17.0413 15.5127H17.0312" stroke="black" stroke-width="1.5" stroke-linecap="round" stroke-linejoin="round"/>
<path opacity="0.4" d="M15.4026 12.2832H15.3926" stroke="black" stroke-width="1.5" stroke-linecap="round" stroke-linejoin="round"/>
<path opacity="0.4" d="M9.5985 12.1797V15.5647M11.3242 13.8719H7.87109" stroke="black" stroke-width="1.5" stroke-linecap="round" stroke-linejoin="round"/>
<path opacity="0.4" d="M8.62695 3.4873C8.62695 4.15671 9.18057 4.69866 9.8636 4.69866H10.8181C11.8718 4.70255 12.7251 5.5393 12.729 6.57163V7.62828" stroke="black" stroke-width="1.5" stroke-linecap="round" stroke-linejoin="round"/>
</svg>