<svg width="25" height="24" viewBox="0 0 25 24" fill="none" xmlns="http://www.w3.org/2000/svg">
<path d="M16.418 21.5001C19.2166 21.5001 20.9502 19.937 20.9502 17.0799V8.41097C20.9584 5.55385 19.2248 4 16.4262 4H8.38274C5.59238 4 3.85059 5.55385 3.85059 8.41097V17.008C3.85059 19.9093 5.59238 21.5001 8.38274 21.5001H12.6363" stroke="black" stroke-width="1.5" stroke-linecap="round" stroke-linejoin="round"/>
<path fill-rule="evenodd" clip-rule="evenodd" d="M12.3999 14.8506C10.4928 14.8506 8.86707 15.1381 8.86707 16.2925C8.86707 17.4468 10.4846 17.7447 12.3999 17.7447C14.3061 17.7447 15.9328 17.4561 15.9328 16.3028C15.9328 15.1494 14.3163 14.8506 12.3999 14.8506Z" stroke="black" stroke-width="1.5" stroke-linecap="round" stroke-linejoin="round"/>
<path d="M10.1587 10.3455C10.1587 11.5841 11.1631 12.5875 12.4017 12.5875C13.6392 12.5875 14.6436 11.5841 14.6436 10.3455C14.6436 9.10695 13.6392 8.10254 12.4017 8.10254" stroke="black" stroke-width="1.5" stroke-linecap="round" stroke-linejoin="round"/>
<path d="M16.243 2.5V5.62619M8.56653 2.5V5.62619" stroke="black" stroke-width="1.5" stroke-linecap="round" stroke-linejoin="round"/>
</svg>