<svg width="24" height="24" viewBox="0 0 24 24" fill="none" xmlns="http://www.w3.org/2000/svg">
<path fill-rule="evenodd" clip-rule="evenodd" d="M17.921 10.4996C17.881 10.5896 17.831 10.6696 17.761 10.7396C17.691 10.8096 17.601 10.8696 17.511 10.9096C17.421 10.9396 17.321 10.9596 17.231 10.9596C17.031 10.9596 16.831 10.8796 16.701 10.7396C16.631 10.6796 16.571 10.5896 16.531 10.4996C16.501 10.4096 16.481 10.3096 16.481 10.2096C16.481 10.0096 16.561 9.81963 16.701 9.67963C16.901 9.46963 17.241 9.40963 17.511 9.51963C17.601 9.55963 17.691 9.60963 17.761 9.67963C17.901 9.81963 17.981 10.0096 17.981 10.2096C17.981 10.3096 17.961 10.4096 17.921 10.4996ZM16.521 11.8996C16.481 11.9896 16.421 12.0696 16.361 12.1396C16.221 12.2796 16.021 12.3596 15.831 12.3596C15.631 12.3596 15.441 12.2796 15.301 12.1396C15.231 12.0696 15.171 11.9896 15.131 11.8996C15.101 11.8096 15.081 11.7096 15.081 11.6096C15.081 11.4096 15.161 11.2196 15.301 11.0796C15.581 10.7996 16.071 10.7996 16.361 11.0796C16.501 11.2196 16.581 11.4196 16.581 11.6096C16.581 11.7096 16.561 11.8096 16.521 11.8996ZM14.431 10.9596C14.231 10.9596 14.041 10.8796 13.901 10.7396C13.831 10.6696 13.771 10.5896 13.731 10.4996C13.701 10.4096 13.681 10.3096 13.681 10.2096C13.681 10.0096 13.761 9.81963 13.901 9.67963C14.181 9.39963 14.671 9.39963 14.961 9.67963C15.101 9.81963 15.181 10.0196 15.181 10.2096C15.181 10.3096 15.161 10.4096 15.121 10.4996C15.081 10.5896 15.021 10.6796 14.961 10.7396C14.821 10.8796 14.621 10.9596 14.431 10.9596ZM15.131 8.41963C15.171 8.32963 15.231 8.24963 15.301 8.17963C15.581 7.89963 16.081 7.89963 16.361 8.17963C16.501 8.31963 16.581 8.51963 16.581 8.70963C16.581 8.90963 16.501 9.09963 16.361 9.23963C16.221 9.37963 16.021 9.45963 15.831 9.45963C15.631 9.45963 15.441 9.37963 15.301 9.23963C15.161 9.09963 15.081 8.90963 15.081 8.70963C15.081 8.60963 15.101 8.51963 15.131 8.41963ZM9.227 10.9616H8.577V11.6116C8.577 12.0256 8.241 12.3616 7.827 12.3616C7.413 12.3616 7.077 12.0256 7.077 11.6116V10.9616H6.327C5.913 10.9616 5.577 10.6256 5.577 10.2116C5.577 9.79763 5.913 9.46163 6.327 9.46163H7.077V8.71163C7.077 8.29763 7.413 7.96163 7.827 7.96163C8.241 7.96163 8.577 8.29763 8.577 8.71163V9.46163H9.227C9.641 9.46163 9.977 9.79763 9.977 10.2116C9.977 10.6256 9.641 10.9616 9.227 10.9616ZM21.439 13.1766C21.27 11.4446 20.756 6.17463 18.136 4.77063C18.132 4.76863 18.128 4.76663 18.124 4.76463C17.52 4.46263 15.683 3.54363 13.535 4.78763C12.108 5.68063 11.717 5.59863 10.357 4.78263C8.227 3.50463 6.581 4.35063 5.879 4.71163L5.764 4.77063C2.589 6.47163 2.5 13.6396 2.5 13.7116C2.5 15.0746 2.704 16.7326 4.321 17.4786C4.871 17.6896 5.361 17.7696 5.788 17.7696C6.772 17.7696 7.421 17.3446 7.691 17.1186C7.997 16.8996 8.242 16.5166 8.361 16.2556C9.08 14.6776 10.2 13.4586 12 13.4586C13.818 13.4586 14.881 14.7266 15.645 16.3066C15.76 16.5456 16.025 16.9046 16.309 17.1186C17.223 17.7706 18.412 17.9006 19.68 17.4786C21.312 16.8506 21.5 15.0276 21.5 13.7116C21.5 13.6636 21.457 13.3676 21.439 13.1766Z" fill="black"/>
<path fill-rule="evenodd" clip-rule="evenodd" d="M12.7052 18.2267C12.5422 18.3357 12.2862 18.4007 12.0212 18.4007C11.4972 18.4007 11.0232 17.9827 10.9672 17.4687C10.9212 17.0567 10.5452 16.7587 10.1392 16.8057C9.72719 16.8517 9.43019 17.2217 9.47619 17.6337C9.61719 18.9047 10.7342 19.9007 12.0212 19.9007C12.5872 19.9007 13.1252 19.7487 13.5372 19.4747C13.8822 19.2447 13.9752 18.7797 13.7452 18.4347C13.5152 18.0897 13.0492 17.9967 12.7052 18.2267Z" fill="black"/>
<path fill-rule="evenodd" clip-rule="evenodd" d="M12.0211 14.6992C11.5391 14.6992 11.0281 14.8762 10.5051 15.2252C10.1601 15.4552 10.0671 15.9202 10.2971 16.2652C10.5261 16.6092 10.9921 16.7022 11.3371 16.4732C11.5981 16.2992 11.8471 16.1992 12.0211 16.1992C12.5451 16.1992 13.0191 16.6172 13.0751 17.1322C13.1181 17.5152 13.4421 17.7992 13.8201 17.7992C13.8471 17.7992 13.8751 17.7982 13.9031 17.7952C14.3151 17.7492 14.6121 17.3782 14.5661 16.9672C14.4261 15.6952 13.3081 14.6992 12.0211 14.6992Z" fill="black"/>
</svg>