<svg width="25" height="24" viewBox="0 0 25 24" fill="none" xmlns="http://www.w3.org/2000/svg">
<path d="M8.38593 6.94238H16.6134C19.3092 6.94238 21.4954 9.12762 21.4954 11.8244V16.1181C21.4954 18.8139 19.3092 21.0001 16.6134 21.0001H8.38593C5.68915 21.0001 3.50391 18.8139 3.50391 16.1181V11.8244C3.50391 9.12762 5.68915 6.94238 8.38593 6.94238Z" stroke="black" stroke-width="1.5" stroke-linecap="round" stroke-linejoin="round"/>
<path opacity="0.4" d="M17.0725 15.5977H17.0625" stroke="black" stroke-width="1.5" stroke-linecap="round" stroke-linejoin="round"/>
<path opacity="0.4" d="M15.4397 12.3818H15.4297" stroke="black" stroke-width="1.5" stroke-linecap="round" stroke-linejoin="round"/>
<path opacity="0.4" d="M9.66241 12.2793V15.6481M11.3822 13.9641H7.94531" stroke="black" stroke-width="1.5" stroke-linecap="round" stroke-linejoin="round"/>
<path opacity="0.4" d="M8.96484 3C8.96484 3.66617 9.51626 4.20592 10.1951 4.20592H11.1462C12.1946 4.20981 13.0436 5.04228 13.0484 6.07023V6.80718" stroke="black" stroke-width="1.5" stroke-linecap="round" stroke-linejoin="round"/>
</svg>