<svg width="24" height="24" viewBox="0 0 24 24" fill="none" xmlns="http://www.w3.org/2000/svg">
<path opacity="0.4" d="M11.5 7.42188V7.42492H9.35005C5.60005 7.42492 2.55005 10.4749 2.55005 14.2249V14.3249C2.55005 18.0749 5.60005 21.1249 9.35005 21.1249H14.65C18.399 21.1249 21.45 18.0749 21.45 14.3249V14.2249C21.45 10.4749 18.399 7.42492 14.65 7.42492H13V7.42188H11.5Z" fill="black"/>
<path d="M11.5 7.42196H13V6.725C13 5.214 11.86 4.075 10.35 4.075H9.34996C9.16196 4.075 8.89996 3.904 8.89996 3.625C8.89996 3.211 8.56396 2.875 8.14996 2.875C7.73596 2.875 7.39996 3.211 7.39996 3.625C7.39996 4.682 8.29296 5.575 9.34996 5.575H10.35C11.037 5.575 11.5 6.037 11.5 6.725V7.42196Z" fill="black"/>
<path d="M15.863 15.5642C15.863 16.0072 16.222 16.3662 16.665 16.3662C17.108 16.3662 17.467 16.0072 17.467 15.5642C17.467 15.1222 17.108 14.7632 16.665 14.7632C16.222 14.7632 15.863 15.1222 15.863 15.5642Z" fill="black"/>
<path d="M14.121 12.3932C14.121 12.8362 14.48 13.1952 14.922 13.1952C15.365 13.1952 15.724 12.8362 15.724 12.3932C15.724 11.9502 15.365 11.5912 14.922 11.5912C14.48 11.5912 14.121 11.9502 14.121 12.3932Z" fill="black"/>
<path d="M9.89998 14.7742H10.85C11.264 14.7742 11.6 14.4382 11.6 14.0242C11.6 13.6102 11.264 13.2742 10.85 13.2742H9.89998V12.3242C9.89998 11.9102 9.56398 11.5742 9.14998 11.5742C8.73598 11.5742 8.39998 11.9102 8.39998 12.3242V13.2742H7.34998C6.93498 13.2742 6.59998 13.6102 6.59998 14.0242C6.59998 14.4382 6.93498 14.7742 7.34998 14.7742H8.39998V15.7242C8.39998 16.1382 8.73598 16.4742 9.14998 16.4742C9.56398 16.4742 9.89998 16.1382 9.89998 15.7242V14.7742Z" fill="black"/>
</svg>