<svg width="25" height="24" viewBox="0 0 25 24" fill="none" xmlns="http://www.w3.org/2000/svg">
<path opacity="0.4" d="M8.84452 4.42188H16.4649C19.1162 4.42188 20.7586 5.89496 20.7508 8.6008V16.8137C20.7508 19.5205 19.1084 21.0014 16.4571 21.0014H8.84452C6.20095 21.0014 4.55078 19.4942 4.55078 16.7456V8.6008C4.55078 5.89496 6.20095 4.42188 8.84452 4.42188Z" stroke="black" stroke-width="1.5" stroke-linecap="round" stroke-linejoin="round"/>
<path d="M9.30469 17.2849C9.30469 16.1923 10.1667 14.832 12.6498 14.832C15.1338 14.832 15.9958 16.1825 15.9958 17.2752" stroke="black" stroke-width="1.5" stroke-linecap="round" stroke-linejoin="round"/>
<path fill-rule="evenodd" clip-rule="evenodd" d="M14.786 10.4531C14.786 11.6333 13.8296 12.5897 12.6493 12.5897C11.4691 12.5897 10.5117 11.6333 10.5117 10.4531C10.5117 9.27284 11.4691 8.31641 12.6493 8.31641C13.8296 8.31641 14.786 9.27284 14.786 10.4531Z" stroke="black" stroke-width="1.5" stroke-linecap="round" stroke-linejoin="round"/>
<path d="M16.2892 3V5.96174M9.01758 3V5.96174" stroke="black" stroke-width="1.5" stroke-linecap="round" stroke-linejoin="round"/>
</svg>