<svg width="25" height="24" viewBox="0 0 25 24" fill="none" xmlns="http://www.w3.org/2000/svg">
<path d="M8.34452 4.42188H15.9649C18.6162 4.42188 20.2586 5.89496 20.2508 8.6008V16.8137C20.2508 19.5205 18.6084 21.0014 15.9571 21.0014H8.34452C5.70095 21.0014 4.05078 19.4942 4.05078 16.7456V8.6008C4.05078 5.89496 5.70095 4.42188 8.34452 4.42188Z" stroke="black" stroke-width="1.5" stroke-linecap="round" stroke-linejoin="round"/>
<path d="M8.80469 17.2849C8.80469 16.1923 9.66674 14.832 12.1498 14.832C14.6338 14.832 15.4958 16.1825 15.4958 17.2752" stroke="black" stroke-width="1.5" stroke-linecap="round" stroke-linejoin="round"/>
<path fill-rule="evenodd" clip-rule="evenodd" d="M14.286 10.4531C14.286 11.6333 13.3296 12.5897 12.1493 12.5897C10.9691 12.5897 10.0117 11.6333 10.0117 10.4531C10.0117 9.27284 10.9691 8.31641 12.1493 8.31641C13.3296 8.31641 14.286 9.27284 14.286 10.4531Z" stroke="black" stroke-width="1.5" stroke-linecap="round" stroke-linejoin="round"/>
<path d="M15.7892 3V5.96174M8.51758 3V5.96174" stroke="black" stroke-width="1.5" stroke-linecap="round" stroke-linejoin="round"/>
</svg>