<svg width="24" height="24" viewBox="0 0 24 24" fill="none" xmlns="http://www.w3.org/2000/svg">
<path fill-rule="evenodd" clip-rule="evenodd" d="M8.99854 13.5098C8.72692 13.5098 8.48322 13.6754 8.38347 13.9277L8.38346 13.9277L7.58756 15.9408C7.43527 16.326 6.99954 16.5148 6.61434 16.3625C6.22914 16.2103 6.04033 15.7745 6.19263 15.3893L6.98851 13.3763C6.98851 13.3763 6.98852 13.3762 6.98852 13.3762C7.31494 12.5505 8.11232 12.0098 8.99854 12.0098H15.174C16.0602 12.0098 16.8576 12.5505 17.184 13.3762C17.1841 13.3762 17.1841 13.3763 17.1841 13.3763L17.9799 15.3893C18.1322 15.7745 17.9434 16.2103 17.5582 16.3625C17.173 16.5148 16.7373 16.326 16.585 15.9408L15.7891 13.9277L15.7891 13.9277C15.6893 13.6754 15.4457 13.5098 15.174 13.5098H8.99854Z" fill="black"/>
<path fill-rule="evenodd" clip-rule="evenodd" d="M14.7144 7.14038C14.7144 6.72617 15.0501 6.39038 15.4644 6.39038H17.2838C17.698 6.39038 18.0338 6.72617 18.0338 7.14038C18.0338 7.55459 17.698 7.89038 17.2838 7.89038H15.4644C15.0501 7.89038 14.7144 7.55459 14.7144 7.14038Z" fill="black"/>
<path fill-rule="evenodd" clip-rule="evenodd" d="M12.0247 17.1721C12.4389 17.1721 12.7747 17.5079 12.7747 17.9221V20.1804C12.7747 20.5946 12.4389 20.9304 12.0247 20.9304C11.6104 20.9304 11.2747 20.5946 11.2747 20.1804V17.9221C11.2747 17.5079 11.6104 17.1721 12.0247 17.1721Z" fill="black"/>
<path fill-rule="evenodd" clip-rule="evenodd" d="M14.6663 17.1731C15.0805 17.1731 15.4163 17.5089 15.4163 17.9231C15.4163 18.7551 16.0912 19.4304 16.9245 19.4304C17.3388 19.4304 17.6745 19.7662 17.6745 20.1804C17.6745 20.5946 17.3388 20.9304 16.9245 20.9304C15.2632 20.9304 13.9163 19.5839 13.9163 17.9231C13.9163 17.5089 14.252 17.1731 14.6663 17.1731Z" fill="black"/>
<path fill-rule="evenodd" clip-rule="evenodd" d="M9.24706 17.1731C9.66127 17.1731 9.99706 17.5089 9.99706 17.9231C9.99706 19.5837 8.65035 20.9304 6.98975 20.9304C6.57553 20.9304 6.23975 20.5946 6.23975 20.1804C6.23975 19.7662 6.57553 19.4304 6.98975 19.4304C7.82192 19.4304 8.49706 18.7553 8.49706 17.9231C8.49706 17.5089 8.83284 17.1731 9.24706 17.1731Z" fill="black"/>
<path fill-rule="evenodd" clip-rule="evenodd" d="M11.9978 4.56974C13.0708 4.56781 14.3866 4.58377 15.4598 4.60666L11.9978 4.56974ZM15.4598 4.60666C15.9965 4.61811 16.4696 4.63123 16.8196 4.64459L15.4598 4.60666ZM16.8196 4.64459C16.9952 4.65128 17.1359 4.65789 17.2367 4.66415L16.8196 4.64459ZM17.2367 4.66415C17.2854 4.66716 17.3203 4.66983 17.3433 4.67198L17.2367 4.66415ZM17.3652 4.67435C17.3651 4.67436 17.3635 4.67417 17.3606 4.67375C17.3638 4.67412 17.3653 4.67433 17.3652 4.67435ZM17.3433 4.67198L17.3498 4.67358L17.3925 4.67918C18.5596 4.83197 19.1592 5.27261 19.4951 5.68871C19.8399 6.11598 19.97 6.59307 20.0533 6.96649C20.311 8.84741 20.3208 10.7482 20.0514 12.6192C19.9363 13.2101 19.7221 13.6946 19.353 14.0637C18.984 14.4328 18.3905 14.7557 17.3884 14.8925L17.3699 14.895L17.3514 14.8985C17.3522 14.8983 17.3521 14.8983 17.351 14.8985C17.3468 14.8991 17.3293 14.9016 17.2931 14.9051C17.251 14.9091 17.1956 14.9134 17.1266 14.9177C16.9887 14.9263 16.8098 14.9344 16.5982 14.9418C16.1758 14.9565 15.6389 14.968 15.0701 14.9768C13.9333 14.9943 12.683 15.0009 11.9959 15.0014C11.3061 15.0019 10.1451 15.0019 9.05531 14.9876C7.93913 14.973 6.97027 14.9436 6.61896 14.8947L6.61896 14.8947L6.61318 14.8939C5.65687 14.7684 5.0722 14.4748 4.69588 14.1156C4.32279 13.7595 4.08288 13.2707 3.94294 12.6152C3.68601 10.7422 3.68569 8.84282 3.94198 6.96979C4.03562 6.56659 4.16798 6.09234 4.51085 5.67246C4.8443 5.26411 5.44063 4.83288 6.6125 4.68021L6.63511 4.67727L6.6565 4.67315C6.65628 4.67319 6.65617 4.67321 6.65617 4.67322C6.65618 4.67327 6.66925 4.67113 6.70136 4.66784C6.73601 4.66428 6.78215 4.66042 6.84062 4.65644C6.95751 4.64846 7.11023 4.64086 7.29419 4.63376C7.66145 4.61959 8.13679 4.60802 8.66629 4.59882C9.72433 4.58042 10.9843 4.57168 11.9978 4.56974M17.6107 3.19499C17.5591 3.18577 17.5132 3.18137 17.4911 3.17926L17.4894 3.1791C17.4428 3.17463 17.3882 3.17066 17.3296 3.16702C17.2115 3.15969 17.0572 3.15255 16.8768 3.14568C16.515 3.13188 16.0327 3.11854 15.4918 3.10701C14.4098 3.08392 13.0821 3.06778 11.9951 3.06974L11.995 3.06974C10.9769 3.07169 9.70858 3.08047 8.64021 3.09904C8.10648 3.10832 7.61906 3.12011 7.23634 3.13488C6.90179 3.14779 6.58264 3.16453 6.40142 3.19506C4.90946 3.39301 3.95214 3.9851 3.349 4.72371C2.76209 5.44246 2.57308 6.22869 2.47262 6.66618L2.46522 6.69841L2.46068 6.73116C2.17977 8.75996 2.17977 10.818 2.46068 12.8468L2.46418 12.872L2.46937 12.8969C2.64837 13.7558 2.99533 14.566 3.66019 15.2006C4.32591 15.8361 5.2373 16.2258 6.41537 16.3808C6.88401 16.4455 7.96331 16.4734 9.03566 16.4874C10.1368 16.5019 11.307 16.5019 11.9969 16.5014C12.6895 16.5009 13.9475 16.4943 15.0933 16.4766C15.6658 16.4677 16.2138 16.4561 16.6505 16.4409C17.0393 16.4273 17.4099 16.4095 17.6054 16.3768C18.8418 16.2057 19.7622 15.7759 20.4137 15.1243C21.0644 14.4737 21.3775 13.671 21.5278 12.8847L21.531 12.8681L21.5334 12.8515C21.8283 10.8167 21.8155 8.75792 21.535 6.73121L21.531 6.70182L21.5246 6.67285C21.4325 6.25441 21.247 5.47103 20.6623 4.74662C20.0629 4.0039 19.1058 3.39571 17.6107 3.19499Z" fill="black"/>
</svg>