<svg width="25" height="24" viewBox="0 0 25 24" fill="none" xmlns="http://www.w3.org/2000/svg">
<path opacity="0.4" fill-rule="evenodd" clip-rule="evenodd" d="M22.1816 6.59631C22.0226 5.88531 21.5376 3.72331 18.5286 3.33431C18.1346 3.22131 13.5716 3.19531 12.8966 3.19531C11.6296 3.19531 7.88662 3.21831 7.35062 3.31931C4.28362 3.72131 3.79862 5.80731 3.60862 6.63731C3.33162 8.64931 3.33162 10.6833 3.61462 12.7163C3.91448 14.1624 4.67773 15.1207 5.91496 15.6327C6.06335 15.6941 6.23004 15.6165 6.28892 15.4671L6.92262 13.8593C7.29762 12.9113 8.19962 12.2993 9.22162 12.2993H16.7506C17.7736 12.2993 18.6756 12.9113 19.0496 13.8593L19.6599 15.4058C19.7202 15.5585 19.8927 15.6354 20.0421 15.5674C21.2106 15.035 21.9196 14.0924 22.1836 12.7083C22.1846 12.7013 22.1866 12.6943 22.1876 12.6863C22.4706 10.7273 22.4706 8.69331 22.1816 6.59631Z" fill="black"/>
<path d="M16.3656 7.76562H18.1836C18.5976 7.76562 18.9336 7.42962 18.9336 7.01562C18.9336 6.60162 18.5976 6.26562 18.1836 6.26562H16.3656C15.9516 6.26562 15.6156 6.60162 15.6156 7.01562C15.6156 7.42962 15.9516 7.76562 16.3656 7.76562Z" fill="black"/>
<path fill-rule="evenodd" clip-rule="evenodd" d="M12.9248 17.0464C12.5108 17.0464 12.1748 17.3824 12.1748 17.7964V20.0564C12.1748 20.4704 12.5108 20.8064 12.9248 20.8064C13.3388 20.8064 13.6748 20.4704 13.6748 20.0564V17.7964C13.6748 17.3824 13.3388 17.0464 12.9248 17.0464Z" fill="black"/>
<path fill-rule="evenodd" clip-rule="evenodd" d="M17.8251 19.3061C16.9941 19.3061 16.3171 18.6281 16.3171 17.7961C16.3171 17.3821 15.9811 17.0461 15.5671 17.0461C15.1531 17.0461 14.8171 17.3821 14.8171 17.7961C14.8171 19.4551 16.1671 20.8061 17.8251 20.8061C18.2391 20.8061 18.5751 20.4701 18.5751 20.0561C18.5751 19.6421 18.2391 19.3061 17.8251 19.3061Z" fill="black"/>
<path fill-rule="evenodd" clip-rule="evenodd" d="M10.1484 17.0464C9.7344 17.0464 9.3984 17.3824 9.3984 17.7964C9.3984 18.6284 8.7214 19.3064 7.8894 19.3064C7.4754 19.3064 7.1394 19.6424 7.1394 20.0564C7.1394 20.4704 7.4754 20.8064 7.8894 20.8064C9.5484 20.8064 10.8984 19.4554 10.8984 17.7964C10.8984 17.3824 10.5624 17.0464 10.1484 17.0464Z" fill="black"/>
<path fill-rule="evenodd" clip-rule="evenodd" d="M17.8952 16.0574C18.095 16.0478 18.2199 15.8456 18.1465 15.6595L17.6543 14.4108C17.5093 14.0398 17.1533 13.8008 16.7513 13.8008H9.22127C8.81927 13.8008 8.46527 14.0398 8.31827 14.4108L7.82535 15.663C7.75133 15.8511 7.88031 16.0562 8.08217 16.0658C9.18714 16.1183 11.0854 16.1268 12.8963 16.1268C13.0663 16.1268 16.4664 16.126 17.8952 16.0574Z" fill="black"/>
</svg>