<svg width="24" height="24" viewBox="0 0 24 24" fill="none" xmlns="http://www.w3.org/2000/svg">
<path fill-rule="evenodd" clip-rule="evenodd" d="M3.35524 3.45506C4.07829 2.67832 5.10301 2.25 6.29465 2.25H12.0693C13.1204 2.25 14.0425 2.57989 14.7439 3.19491C15.443 3.80788 15.8759 4.66269 16.0263 5.63312C16.0898 6.04244 15.8094 6.42571 15.4001 6.48917C14.9907 6.55262 14.6075 6.27224 14.544 5.86292C14.4401 5.19289 14.1552 4.67369 13.755 4.32276C13.3571 3.97389 12.7984 3.75 12.0693 3.75H6.29465C5.47598 3.75 4.86413 4.03562 4.45317 4.4771C4.03671 4.92448 3.77148 5.59223 3.77148 6.44497V11.8837C3.77148 12.6606 3.99258 13.2849 4.34662 13.7257C4.69583 14.1604 5.20825 14.4606 5.88607 14.5446C6.29714 14.5956 6.58905 14.9702 6.53807 15.3812C6.48709 15.7923 6.11253 16.0842 5.70147 16.0332C4.65729 15.9037 3.78357 15.42 3.17713 14.665C2.57554 13.916 2.27148 12.9444 2.27148 11.8837V6.44497C2.27148 5.28063 2.63769 4.22589 3.35524 3.45506Z" fill="black"/>
<path fill-rule="evenodd" clip-rule="evenodd" d="M8.99395 9.13225C9.71719 8.35653 10.7419 7.92969 11.9333 7.92969H17.706C18.9002 7.92969 19.9254 8.35619 20.6483 9.13266C21.3655 9.90307 21.7292 10.957 21.7292 12.1198V17.5586C21.7292 18.7214 21.3655 19.7753 20.6481 20.5458C19.9251 21.3223 18.8997 21.7487 17.705 21.7487H11.9333C10.7391 21.7487 9.71388 21.3222 8.99102 20.5457C8.27381 19.7753 7.91016 18.7214 7.91016 17.5586V12.1198C7.91016 10.9559 8.27614 9.90215 8.99395 9.13225ZM10.0911 10.1552C9.67512 10.6013 9.41016 11.2675 9.41016 12.1198V17.5586C9.41016 18.4119 9.67406 19.078 10.0889 19.5236C10.4981 19.9632 11.1095 20.2487 11.9333 20.2487H17.705C18.5294 20.2487 19.1411 19.9631 19.5503 19.5236C19.9653 19.078 20.2292 18.4119 20.2292 17.5586V12.1198C20.2292 11.2665 19.9653 10.6004 19.5504 10.1547C19.1412 9.71519 18.5298 9.42969 17.706 9.42969H11.9333C11.1134 9.42969 10.5016 9.71484 10.0911 10.1552Z" fill="black"/>
</svg>