<svg width="24" height="24" viewBox="0 0 24 24" fill="none" xmlns="http://www.w3.org/2000/svg">
<path opacity="0.4" fill-rule="evenodd" clip-rule="evenodd" d="M15.3094 6.11C15.4198 6.11 15.5099 6.02032 15.5048 5.90998C15.4163 3.99126 14.0553 2.5 12.0594 2.5H6.86937C4.79937 2.5 3.41937 3.95 3.41937 6.1V12.79C3.41937 14.8332 4.79252 16.2941 6.78939 16.3855C6.89973 16.3905 6.98937 16.3005 6.98937 16.19V11.21C6.98937 8.26 9.06937 6.11 11.9394 6.11H15.3094Z" fill="black"/>
<path fill-rule="evenodd" clip-rule="evenodd" d="M17.1347 7.61328H11.9397C9.87865 7.61328 8.49365 9.05828 8.49365 11.2093V17.9043C8.49365 20.0543 9.87865 21.5003 11.9397 21.5003H17.1337C19.1957 21.5003 20.5807 20.0543 20.5807 17.9043V11.2093C20.5807 9.05828 19.1957 7.61328 17.1347 7.61328Z" fill="black"/>
</svg>