<svg width="25" height="24" viewBox="0 0 25 24" fill="none" xmlns="http://www.w3.org/2000/svg">
<path fill-rule="evenodd" clip-rule="evenodd" d="M5.10608 4.85603C8.91321 1.04799 15.087 1.04799 18.8942 4.85603C22.7023 8.66304 22.7023 14.837 18.8942 18.644C15.087 22.452 8.91321 22.452 5.10608 18.644C1.29797 14.837 1.29797 8.66304 5.10608 4.85603ZM14.9537 15.7637C13.1158 16.9375 10.6466 16.7216 9.04114 15.116C7.43567 13.5105 7.21936 11.0412 8.39319 9.20332L5.65979 6.46986C2.95471 9.71126 3.12366 14.5407 6.16614 17.584C9.20959 20.6264 14.0387 20.7951 17.2804 18.0902L14.9537 15.7637ZM18.3405 17.0302C21.0455 13.7887 20.8766 8.9593 17.8341 5.91603C14.7906 2.87367 9.96155 2.70491 6.71985 5.40987L9.39075 8.08089C11.2565 6.54982 14.0162 6.65553 15.7589 8.39803C16.0524 8.69099 16.0524 9.16597 15.7589 9.459C15.4659 9.75197 14.9913 9.75197 14.6984 9.459C13.5426 8.30324 11.7321 8.20009 10.4596 9.14955L15.1495 13.8394C15.3668 13.8164 15.5924 13.8883 15.7589 14.055C15.9259 14.2216 15.9977 14.4472 15.9747 14.6647L18.3405 17.0302ZM13.8546 14.6643C12.6373 15.2731 11.1173 15.0701 10.1022 14.055C9.08704 13.0399 8.88391 11.5199 9.4928 10.3028L13.8546 14.6643Z" fill="black"/>
</svg>