<svg width="24" height="24" viewBox="0 0 24 24" fill="none" xmlns="http://www.w3.org/2000/svg">
<path opacity="0.4" fill-rule="evenodd" clip-rule="evenodd" d="M15.6254 6.68609C15.7359 6.68609 15.8254 6.59655 15.8254 6.48609V6.42609C15.8254 4.07609 14.3154 2.49609 12.0554 2.49609H6.28543C4.02543 2.49609 2.50543 4.07609 2.50543 6.42609V11.8661C2.50543 14.2261 4.02543 15.8061 6.28543 15.8061H6.47543C6.58589 15.8061 6.67543 15.7166 6.67543 15.6061V12.1261C6.67543 8.97609 8.89543 6.68609 11.9454 6.68609H15.6254Z" fill="black"/>
<path fill-rule="evenodd" clip-rule="evenodd" d="M17.7215 8.18555H11.9485C9.69154 8.18555 8.17554 9.76955 8.17554 12.1255V17.5645C8.17554 19.9205 9.69154 21.5045 11.9485 21.5045H17.7205C19.9775 21.5045 21.4945 19.9205 21.4945 17.5645V12.1255C21.4945 9.76955 19.9785 8.18555 17.7215 8.18555Z" fill="black"/>
</svg>