<svg width="24" height="24" viewBox="0 0 24 24" fill="none" xmlns="http://www.w3.org/2000/svg">
<path d="M3 5.97498C3 4.87041 3.89543 3.97498 5 3.97498C6.10457 3.97498 7 4.87041 7 5.97497V8.95595C7 10.9587 8.62347 12.5821 10.6262 12.5821H14.1713L14.1424 12.5533C13.3614 11.7722 13.3614 10.5059 14.1424 9.72482C14.9235 8.94378 16.1898 8.94378 16.9709 9.72482L20.4139 13.1679C21.195 13.9489 21.195 15.2153 20.4139 15.9963L16.9709 19.4394C16.1898 20.2204 14.9235 20.2204 14.1424 19.4394C13.3614 18.6583 13.3614 17.392 14.1424 16.6109L14.1712 16.5821H10.6262C6.41433 16.5821 3 13.1678 3 8.95595L3 5.97498Z" stroke="black" stroke-width="1.5" stroke-linecap="round" stroke-linejoin="round"/>
</svg>