<svg width="24" height="24" viewBox="0 0 24 24" fill="none" xmlns="http://www.w3.org/2000/svg">
<path fill-rule="evenodd" clip-rule="evenodd" d="M12.9695 7.40339C13.2624 7.11049 13.7373 7.11049 14.0302 7.40339L16.0304 9.40355C16.3233 9.69644 16.3233 10.1713 16.0304 10.4642C15.7375 10.7571 15.2626 10.7571 14.9697 10.4642L14.2495 9.74406L14.2495 12.798C14.2495 15.0172 12.4505 16.8164 10.2317 16.8164H8.5C8.08579 16.8164 7.75 16.4806 7.75 16.0664C7.75 15.6521 8.08579 15.3164 8.5 15.3164H10.2317C11.6219 15.3164 12.7495 14.1889 12.7495 12.798L12.7495 9.74469L12.03 10.4642C11.7371 10.7571 11.2623 10.7571 10.9694 10.4642C10.6765 10.1713 10.6765 9.69644 10.9694 9.40355L12.9695 7.40339Z" fill="black"/>
<path fill-rule="evenodd" clip-rule="evenodd" d="M2.25 12C2.25 6.61487 6.61487 2.25 12 2.25C17.3841 2.25 21.75 6.61481 21.75 12C21.75 17.3852 17.3841 21.75 12 21.75C6.61487 21.75 2.25 17.3851 2.25 12ZM12 3.75C7.44329 3.75 3.75 7.4433 3.75 12C3.75 16.5567 7.44329 20.25 12 20.25C16.5558 20.25 20.25 16.5567 20.25 12C20.25 7.44335 16.5558 3.75 12 3.75Z" fill="black"/>
</svg>