<svg width="24" height="24" viewBox="0 0 24 24" fill="none" xmlns="http://www.w3.org/2000/svg">
<path fill-rule="evenodd" clip-rule="evenodd" d="M14.5817 4.25C14.7806 4.25 14.9714 4.32902 15.1121 4.46967L18.5551 7.91272C18.848 8.20561 18.848 8.68049 18.5551 8.97338C18.2622 9.26627 17.7873 9.26627 17.4944 8.97338L14.5817 6.06066L11.669 8.97338C11.3761 9.26627 10.9012 9.26627 10.6083 8.97338C10.3154 8.68049 10.3154 8.20561 10.6083 7.91272L14.0514 4.46967C14.192 4.32902 14.3828 4.25 14.5817 4.25Z" fill="black"/>
<path fill-rule="evenodd" clip-rule="evenodd" d="M14.5817 4.44922C14.9959 4.44922 15.3317 4.78501 15.3317 5.19922V13.3753C15.3317 16.8968 12.4771 19.7515 8.95558 19.7515H5.97461C5.5604 19.7515 5.22461 19.4157 5.22461 19.0015C5.22461 18.5873 5.5604 18.2515 5.97461 18.2515H8.95558C11.6486 18.2515 13.8317 16.0684 13.8317 13.3753V5.19922C13.8317 4.78501 14.1675 4.44922 14.5817 4.44922Z" fill="black"/>
</svg>