<svg width="24" height="24" viewBox="0 0 24 24" fill="none" xmlns="http://www.w3.org/2000/svg">
<path fill-rule="evenodd" clip-rule="evenodd" d="M7.75 7.93372C7.75 7.5195 8.08579 7.18372 8.5 7.18372H10.2317C12.4505 7.18372 14.2495 8.98288 14.2495 11.2021L14.2495 14.256L14.9697 13.5359C15.2626 13.243 15.7375 13.243 16.0304 13.5359C16.3233 13.8287 16.3233 14.3036 16.0304 14.5965L14.0302 16.5967C13.7373 16.8896 13.2624 16.8896 12.9695 16.5967L10.9694 14.5965C10.6765 14.3036 10.6765 13.8287 10.9694 13.5359C11.2623 13.243 11.7371 13.243 12.03 13.5359L12.7495 14.2554L12.7495 11.2021C12.7495 9.81114 11.6219 8.68372 10.2317 8.68372H8.5C8.08579 8.68372 7.75 8.34793 7.75 7.93372Z" fill="black"/>
<path fill-rule="evenodd" clip-rule="evenodd" d="M12 3.75C7.44329 3.75 3.75 7.44329 3.75 12C3.75 16.5567 7.44329 20.25 12 20.25C16.5558 20.25 20.25 16.5567 20.25 12C20.25 7.44335 16.5558 3.75 12 3.75ZM2.25 12C2.25 6.61487 6.61487 2.25 12 2.25C17.3841 2.25 21.75 6.61481 21.75 12C21.75 17.3852 17.3841 21.75 12 21.75C6.61487 21.75 2.25 17.3851 2.25 12Z" fill="black"/>
</svg>