<svg width="25" height="25" viewBox="0 0 25 25" fill="none" xmlns="http://www.w3.org/2000/svg">
<path fill-rule="evenodd" clip-rule="evenodd" d="M7.57914 6.18612C8.11498 5.57346 8.8901 5.22266 9.70326 5.22266H18.829C20.7183 5.22266 22.2499 6.75426 22.2499 8.64354V16.8878C22.2499 18.7778 20.7185 20.3096 18.829 20.3096H9.70326C8.89001 20.3096 8.11481 19.9587 7.57896 19.346L3.44773 14.6241C2.51755 13.5601 2.51736 11.9714 3.44754 10.9074L7.57914 6.18612C7.5792 6.18605 7.57908 6.18618 7.57914 6.18612ZM9.70326 6.72266C9.32167 6.72266 8.95846 6.88746 8.70812 7.17373L4.57684 11.8946C4.14099 12.3932 4.14092 13.1378 4.57664 13.6364C4.57657 13.6364 4.57671 13.6365 4.57664 13.6364L8.70799 18.3584C8.95833 18.6447 9.32167 18.8096 9.70326 18.8096H18.829C19.8897 18.8096 20.7499 17.9498 20.7499 16.8878V8.64354C20.7499 7.58269 19.8899 6.72266 18.829 6.72266H9.70326Z" fill="black"/>
<path fill-rule="evenodd" clip-rule="evenodd" d="M17.9619 10.3173C18.2548 10.6101 18.2549 11.085 17.962 11.3779L14.1265 15.2145C13.8336 15.5074 13.3588 15.5074 13.0659 15.2146L11.0323 13.1821C10.7393 12.8892 10.7392 12.4144 11.032 12.1214C11.3249 11.8284 11.7997 11.8283 12.0927 12.1211L13.5959 13.6236L16.9012 10.3174C17.1941 10.0245 17.669 10.0244 17.9619 10.3173Z" fill="black"/>
</svg>