<svg width="24" height="24" viewBox="0 0 24 24" fill="none" xmlns="http://www.w3.org/2000/svg">
<path fill-rule="evenodd" clip-rule="evenodd" d="M9.85958 12.8673L8.06258 13.9043C7.90958 13.9943 7.85658 14.1913 7.94658 14.3513C8.03558 14.5003 8.23158 14.5503 8.38658 14.4623L10.1796 13.4253V13.0523L9.85958 12.8673Z" fill="black"/>
<path fill-rule="evenodd" clip-rule="evenodd" d="M10.1801 10.5819L8.3821 9.54395C8.2321 9.45995 8.0341 9.50895 7.9461 9.65795C7.9021 9.73695 7.8911 9.82495 7.9131 9.90795C7.9291 9.96395 7.9661 10.0409 8.0571 10.0919L9.8611 11.1349L10.1801 10.9509V10.5819Z" fill="black"/>
<path fill-rule="evenodd" clip-rule="evenodd" d="M12.3198 9.71571V7.64471C12.3198 7.46871 12.1758 7.32471 11.9998 7.32471C11.8238 7.32471 11.6798 7.46871 11.6798 7.64471V9.71571L11.9998 9.90071L12.3198 9.71571Z" fill="black"/>
<path fill-rule="evenodd" clip-rule="evenodd" d="M12 11.6322L11.68 11.8172V12.1872L12 12.3722L12.32 12.1872V11.8162L12 11.6322Z" fill="black"/>
<path fill-rule="evenodd" clip-rule="evenodd" d="M17.3574 15.0949C17.0204 15.6779 16.4044 16.0049 15.7724 16.0049C15.4664 16.0049 15.1574 15.9279 14.8744 15.7679L13.8194 15.1579V16.3649C13.8194 17.3679 13.0034 18.1849 12.0004 18.1849C10.9964 18.1849 10.1804 17.3679 10.1804 16.3649V15.1579L9.13237 15.7639C8.84637 15.9269 8.53437 16.0039 8.22637 16.0039C7.59537 16.0039 6.98237 15.6789 6.64737 15.1009L6.64437 15.0959C6.14137 14.2129 6.43437 13.1199 7.30937 12.6079L8.36037 12.0009L7.31237 11.3939C6.89837 11.1589 6.59637 10.7719 6.46737 10.3069C6.33737 9.83688 6.40037 9.34188 6.64437 8.91388L6.64737 8.90788C7.14637 8.04788 8.25837 7.74988 9.12737 8.24188L10.1804 8.84988V7.64488C10.1804 6.64088 10.9964 5.82488 12.0004 5.82488C13.0034 5.82488 13.8194 6.64088 13.8194 7.64488V8.84988L14.8684 8.24488C15.7424 7.74888 16.8564 8.04688 17.3544 8.90888C17.5984 9.33888 17.6614 9.82888 17.5364 10.2959C17.4094 10.7659 17.1064 11.1569 16.6824 11.3979L15.6394 12.0009L16.6884 12.6059C17.5654 13.1189 17.8584 14.2119 17.3574 15.0949ZM12.0004 2.50488C6.76137 2.50488 2.50037 6.76688 2.50037 12.0049C2.50037 17.2429 6.76137 21.5049 12.0004 21.5049C17.2384 21.5049 21.5004 17.2429 21.5004 12.0049C21.5004 6.76688 17.2384 2.50488 12.0004 2.50488Z" fill="black"/>
<path fill-rule="evenodd" clip-rule="evenodd" d="M11.6801 14.2906V16.3646C11.6801 16.5406 11.8241 16.6846 12.0001 16.6846C12.1761 16.6846 12.3201 16.5406 12.3201 16.3646V14.2906L12.0001 14.1056L11.6801 14.2906Z" fill="black"/>
<path fill-rule="evenodd" clip-rule="evenodd" d="M14.1397 11.1352L15.9377 10.0952C16.0347 10.0402 16.0717 9.96218 16.0877 9.90618C16.1097 9.82318 16.0977 9.73318 16.0527 9.65518C15.9677 9.50918 15.7707 9.45818 15.6127 9.54718L13.8197 10.5822V10.9502L14.1397 11.1352Z" fill="black"/>
<path fill-rule="evenodd" clip-rule="evenodd" d="M14.1408 12.8676L13.8198 13.0536V13.4246L15.6188 14.4656C15.7708 14.5536 15.9688 14.5006 16.0558 14.3496C16.1438 14.1936 16.0918 13.9946 15.9338 13.9026L14.1408 12.8676Z" fill="black"/>
</svg>