<svg width="25" height="24" viewBox="0 0 25 24" fill="none" xmlns="http://www.w3.org/2000/svg">
<path fill-rule="evenodd" clip-rule="evenodd" d="M20.9784 7.62433C19.8104 5.22533 17.7784 3.42433 15.2584 2.55333C11.5704 1.27333 7.56943 2.27933 4.91543 4.93633V4.26833C4.91543 3.71633 4.46743 3.26833 3.91543 3.26833C3.36243 3.26833 2.91543 3.71633 2.91543 4.26833V7.56833C2.91543 8.12133 3.36243 8.56833 3.91543 8.56833H7.19643C7.74843 8.56833 8.19643 8.12133 8.19643 7.56833C8.19643 7.01633 7.74843 6.56833 7.19643 6.56833H6.12843C8.24743 4.28433 11.5584 3.38733 14.6044 4.44333C16.6214 5.14033 18.2464 6.58133 19.1804 8.49933C20.1144 10.4193 20.2454 12.5863 19.5474 14.6033C18.8534 16.6253 17.4134 18.2543 15.4914 19.1893C13.5714 20.1243 11.4034 20.2533 9.38343 19.5523C6.89243 18.6953 4.98843 16.6733 4.28943 14.1423C4.14243 13.6103 3.59143 13.2963 3.05943 13.4443C2.52643 13.5913 2.21443 14.1423 2.36143 14.6743C3.23543 17.8413 5.61743 20.3723 8.73043 21.4433C9.80243 21.8143 10.9074 21.9993 12.0094 21.9993C13.5014 21.9993 14.9864 21.6603 16.3674 20.9873C18.7694 19.8183 20.5704 17.7813 21.4374 15.2553C22.3104 12.7353 22.1474 10.0253 20.9784 7.62433Z" fill="black"/>
<path fill-rule="evenodd" clip-rule="evenodd" d="M8.98433 15.5684C9.15933 15.5684 9.33633 15.5224 9.49733 15.4264L12.6713 13.5264C12.9723 13.3454 13.1573 13.0194 13.1573 12.6684V8.56836C13.1573 8.01636 12.7093 7.56836 12.1573 7.56836C11.6053 7.56836 11.1573 8.01636 11.1573 8.56836V12.1014L8.46933 13.7104C7.99533 13.9944 7.84133 14.6084 8.12533 15.0824C8.31333 15.3954 8.64433 15.5684 8.98433 15.5684Z" fill="black"/>
</svg>