<svg width="25" height="24" viewBox="0 0 25 24" fill="none" xmlns="http://www.w3.org/2000/svg">
<path d="M12.2523 21.7508C10.121 21.7483 8.04899 21.0491 6.35195 19.7597C4.65492 18.4703 3.42596 16.6615 2.85235 14.6088C2.79931 14.4171 2.82461 14.2121 2.92269 14.039C3.02077 13.8659 3.18358 13.7388 3.37533 13.6858C3.56708 13.6328 3.77206 13.6581 3.94515 13.7561C4.11825 13.8542 4.24529 14.0171 4.29833 14.2088C4.81178 16.0443 5.94557 17.6451 7.50665 18.7386C9.06773 19.8321 10.9596 20.3507 12.86 20.206C14.7605 20.0614 16.5521 19.2625 17.9297 17.9454C19.3073 16.6282 20.1858 14.8743 20.4156 12.9822C20.6453 11.0902 20.2122 9.17695 19.1898 7.56838C18.1675 5.95981 16.6192 4.75533 14.8086 4.16005C12.998 3.56476 11.037 3.61548 9.25954 4.30356C7.48212 4.99164 5.99815 6.27454 5.06033 7.93381C4.95474 8.09089 4.79369 8.20225 4.60943 8.24554C4.42517 8.28883 4.23135 8.26085 4.06686 8.16722C3.90237 8.07359 3.77935 7.92122 3.7225 7.74068C3.66565 7.56015 3.67917 7.3648 3.76034 7.19381C4.63602 5.64799 5.91745 4.37084 7.46621 3.50037C9.01497 2.62989 10.7722 2.19918 12.5479 2.25478C14.3237 2.31037 16.0505 2.85015 17.5417 3.81579C19.033 4.78144 20.2321 6.13624 21.0093 7.73381C21.7314 9.21897 22.0645 10.8632 21.9774 12.5123C21.8903 14.1614 21.3858 15.7613 20.5113 17.1621C19.6368 18.563 18.4208 19.7188 16.9775 20.5212C15.5342 21.3236 13.9107 21.7464 12.2593 21.7498L12.2523 21.7508Z" fill="black"/>
<path d="M7.448 8.31758H4.16699C3.96808 8.31758 3.77731 8.23856 3.63666 8.09791C3.49601 7.95726 3.41699 7.76649 3.41699 7.56758V4.26758C3.41699 4.06867 3.49601 3.8779 3.63666 3.73725C3.77731 3.5966 3.96808 3.51758 4.16699 3.51758C4.3659 3.51758 4.55667 3.5966 4.69733 3.73725C4.83798 3.8779 4.91699 4.06867 4.91699 4.26758V6.81758H7.448C7.64691 6.81758 7.83765 6.8966 7.9783 7.03725C8.11895 7.17791 8.198 7.36867 8.198 7.56758C8.198 7.76649 8.11895 7.95726 7.9783 8.09791C7.83765 8.23856 7.64691 8.31758 7.448 8.31758Z" fill="black"/>
<path d="M9.23038 15.3173C9.06647 15.317 8.90715 15.2631 8.7768 15.1637C8.64644 15.0644 8.55221 14.9251 8.50855 14.7671C8.46488 14.6091 8.47418 14.4411 8.53501 14.2889C8.59584 14.1367 8.70484 14.0086 8.84537 13.9243L11.6544 12.2453V8.57227C11.6544 8.37335 11.7334 8.18259 11.874 8.04194C12.0147 7.90129 12.2054 7.82227 12.4044 7.82227C12.6033 7.82227 12.794 7.90129 12.9347 8.04194C13.0753 8.18259 13.1544 8.37335 13.1544 8.57227V12.6723C13.1547 12.8021 13.1213 12.9297 13.0573 13.0427C12.9932 13.1556 12.9009 13.2499 12.7894 13.3163L9.61536 15.2163C9.4985 15.2841 9.36548 15.319 9.23038 15.3173Z" fill="black"/>
</svg>