<svg width="25" height="24" viewBox="0 0 25 24" fill="none" xmlns="http://www.w3.org/2000/svg">
<path d="M12.2656 6.02803C12.837 5.91764 13.3719 4.56377 12.3523 3.76172" stroke="black" stroke-width="1.5" stroke-linecap="round" stroke-linejoin="round"/>
<path d="M12.2665 18.2227C13.0144 18.3277 13.2232 19.7784 12.1562 20.24" stroke="black" stroke-width="1.5" stroke-linecap="round" stroke-linejoin="round"/>
<path d="M17.0537 8.18442C19.6372 8.18442 20.235 6.32987 19.5176 4.77734" stroke="black" stroke-width="1.5" stroke-linecap="round" stroke-linejoin="round"/>
<path opacity="0.4" d="M7.9609 16.4688C7.9609 17.7176 7.00758 19.7349 4.44629 18.7262" stroke="black" stroke-width="1.5" stroke-linecap="round" stroke-linejoin="round"/>
<path opacity="0.4" d="M21.41 12.1203C20.5019 11.2801 18.8952 11.5136 18.3617 12.1203C18.0086 12.528 17.0288 13.264 15.9336 12.947" stroke="black" stroke-width="1.5" stroke-linecap="round" stroke-linejoin="round"/>
<path opacity="0.4" d="M9.08565 12.191C9.87788 12.3497 10.8834 13.6244 10.6098 14.8309" stroke="black" stroke-width="1.5" stroke-linecap="round" stroke-linejoin="round"/>
<path d="M6.16781 12.1207C5.25802 11.5146 4.93653 12.8269 3.41016 12.2894" stroke="black" stroke-width="1.5" stroke-linecap="round" stroke-linejoin="round"/>
<path d="M16.5762 16.4375C17.9251 16.541 19.3624 17.7551 18.7802 20.0191" stroke="black" stroke-width="1.5" stroke-linecap="round" stroke-linejoin="round"/>
<path opacity="0.4" d="M7.95185 7.81151C5.22433 7.81151 7.22029 5.27978 5.03711 5.10938" stroke="black" stroke-width="1.5" stroke-linecap="round" stroke-linejoin="round"/>
<circle cx="12.2655" cy="12.1239" r="6.09658" stroke="black" stroke-width="1.5" stroke-linecap="round" stroke-linejoin="round"/>
<path opacity="0.4" d="M12.7194 10.0066H12.7471M13.2285 9.91112C13.2285 9.64523 13.013 9.42969 12.7471 9.42969C12.4812 9.42969 12.2656 9.64523 12.2656 9.91112C12.2656 10.177 12.4812 10.3926 12.7471 10.3926C13.013 10.3926 13.2285 10.177 13.2285 9.91112Z" stroke="black" stroke-width="1.5" stroke-linecap="round" stroke-linejoin="round"/>
<path d="M13.662 14.7767H13.6661M13.7373 14.7626C13.7373 14.7233 13.7054 14.6914 13.6661 14.6914C13.6268 14.6914 13.5949 14.7233 13.5949 14.7626C13.5949 14.8019 13.6268 14.8338 13.6661 14.8338C13.7054 14.8338 13.7373 14.8019 13.7373 14.7626Z" stroke="black" stroke-width="1.5" stroke-linecap="round" stroke-linejoin="round"/>
</svg>