<svg width="24" height="24" viewBox="0 0 24 24" fill="none" xmlns="http://www.w3.org/2000/svg">
<path d="M11.8551 6.02803C12.4265 5.91764 12.9613 4.56377 11.9417 3.76172" stroke="black" stroke-width="1.5" stroke-linecap="round" stroke-linejoin="round"/>
<path d="M11.8562 18.2212C12.6041 18.3263 12.8129 19.7769 11.746 20.2385" stroke="black" stroke-width="1.5" stroke-linecap="round" stroke-linejoin="round"/>
<path d="M16.6439 8.18491C19.2274 8.18491 19.8252 6.33036 19.1078 4.77783" stroke="black" stroke-width="1.5" stroke-linecap="round" stroke-linejoin="round"/>
<path d="M7.5505 16.4668C7.5505 17.7157 6.59718 19.7329 4.03589 18.7243" stroke="black" stroke-width="1.5" stroke-linecap="round" stroke-linejoin="round"/>
<path d="M20.9994 12.1203C20.0913 11.2801 18.4846 11.5136 17.9511 12.1203C17.5981 12.528 16.6183 13.264 15.5231 12.947" stroke="black" stroke-width="1.5" stroke-linecap="round" stroke-linejoin="round"/>
<path d="M8.67505 12.1895C9.46728 12.3481 10.4728 13.6228 10.1992 14.8294" stroke="black" stroke-width="1.5" stroke-linecap="round" stroke-linejoin="round"/>
<path d="M5.75765 12.1217C4.84787 11.5156 4.52638 12.8278 3 12.2904" stroke="black" stroke-width="1.5" stroke-linecap="round" stroke-linejoin="round"/>
<path d="M16.1656 16.4392C17.5146 16.5427 18.9518 17.7568 18.3697 20.0208" stroke="black" stroke-width="1.5" stroke-linecap="round" stroke-linejoin="round"/>
<path d="M7.54206 7.81346C4.81454 7.81346 6.8105 5.28173 4.62732 5.11133" stroke="black" stroke-width="1.5" stroke-linecap="round" stroke-linejoin="round"/>
<path d="M17.9517 12.1247C17.9517 15.4917 15.2222 18.2212 11.8551 18.2212C8.48808 18.2212 5.75854 15.4917 5.75854 12.1247C5.75854 8.75761 8.48808 6.02808 11.8551 6.02808C15.2222 6.02808 17.9517 8.75761 17.9517 12.1247Z" stroke="black" stroke-width="1.5" stroke-linecap="round" stroke-linejoin="round"/>
<path d="M12.3092 10.0073H12.3369M12.8183 9.91185C12.8183 9.64596 12.6028 9.43042 12.3369 9.43042C12.071 9.43042 11.8555 9.64596 11.8555 9.91185C11.8555 10.1777 12.071 10.3933 12.3369 10.3933C12.6028 10.3933 12.8183 10.1777 12.8183 9.91185Z" stroke="black" stroke-width="1.5" stroke-linecap="round" stroke-linejoin="round"/>
<path d="M13.2515 14.775H13.2556M13.3268 14.7609C13.3268 14.7216 13.2949 14.6897 13.2556 14.6897C13.2163 14.6897 13.1844 14.7216 13.1844 14.7609C13.1844 14.8002 13.2163 14.8321 13.2556 14.8321C13.2949 14.8321 13.3268 14.8002 13.3268 14.7609Z" stroke="black" stroke-width="1.5" stroke-linecap="round" stroke-linejoin="round"/>
</svg>