<svg width="24" height="24" viewBox="0 0 24 24" fill="none" xmlns="http://www.w3.org/2000/svg">
<path fill-rule="evenodd" clip-rule="evenodd" d="M11.3528 3.29804C11.6089 2.97249 12.0804 2.91618 12.406 3.17228C13.1598 3.7653 13.3527 4.59409 13.2347 5.28118C13.1773 5.61544 13.0453 5.93087 12.8567 6.18599C12.6776 6.42827 12.3908 6.68853 11.9979 6.76444C11.5912 6.84301 11.1978 6.57702 11.1192 6.17032C11.0456 5.78931 11.2744 5.41999 11.638 5.31025C11.6417 5.30588 11.6458 5.30062 11.6505 5.29435C11.691 5.2395 11.736 5.14564 11.7564 5.02738C11.7938 4.80943 11.7443 4.56025 11.4785 4.35122C11.153 4.09512 11.0967 3.6236 11.3528 3.29804ZM11.6201 5.3287C11.62 5.32855 11.6215 5.32716 11.6246 5.32495C11.6217 5.32773 11.6201 5.32884 11.6201 5.3287Z" fill="black"/>
<path fill-rule="evenodd" clip-rule="evenodd" d="M11.1138 18.1184C11.1715 17.7082 11.5507 17.4224 11.9609 17.48C12.852 17.6053 13.2141 18.4597 13.2316 19.0764C13.2514 19.7712 12.8987 20.5587 12.0441 20.9284C11.6639 21.0929 11.2224 20.918 11.0579 20.5379C10.8935 20.1577 11.0683 19.7162 11.4485 19.5517C11.6608 19.4599 11.7371 19.2913 11.7323 19.119C11.73 19.0414 11.7104 18.9853 11.6943 18.955C11.3155 18.8715 11.059 18.509 11.1138 18.1184Z" fill="black"/>
<path fill-rule="evenodd" clip-rule="evenodd" d="M18.7929 4.09669C19.1689 3.92295 19.6145 4.08692 19.7883 4.46293C20.2204 5.39814 20.2986 6.51754 19.7616 7.44047C19.2065 8.39445 18.1168 8.9346 16.6436 8.9346C16.2293 8.9346 15.8936 8.59882 15.8936 8.1846C15.8936 7.77039 16.2293 7.4346 16.6436 7.4346C17.7538 7.4346 18.2548 7.04748 18.4651 6.68605C18.6935 6.29357 18.7119 5.70943 18.4266 5.09212C18.2529 4.71611 18.4169 4.27044 18.7929 4.09669Z" fill="black"/>
<path fill-rule="evenodd" clip-rule="evenodd" d="M7.55095 15.7188C7.96516 15.7188 8.30095 16.0545 8.30095 16.4688C8.30095 17.2419 8.01504 18.2757 7.27261 18.986C6.46424 19.7594 5.26107 20.0146 3.76153 19.4241C3.37612 19.2723 3.18672 18.8369 3.33849 18.4514C3.49026 18.066 3.92573 17.8766 4.31114 18.0284C5.37289 18.4465 5.92703 18.1974 6.23564 17.9021C6.6102 17.5438 6.80095 16.9445 6.80095 16.4688C6.80095 16.0545 7.13673 15.7188 7.55095 15.7188Z" fill="black"/>
<path fill-rule="evenodd" clip-rule="evenodd" d="M18.515 12.6144C18.5999 12.5192 18.9045 12.3502 19.372 12.3267C19.8148 12.3045 20.2242 12.4251 20.4897 12.6708C20.7937 12.9521 21.2682 12.9337 21.5495 12.6296C21.8308 12.3256 21.8124 11.8511 21.5084 11.5698C20.8658 10.9752 20.0177 10.7924 19.2968 10.8286C18.6024 10.8634 17.8375 11.1132 17.3875 11.6251L17.3875 11.625L17.3838 11.6293C17.2708 11.7597 17.0222 11.977 16.7024 12.1236C16.3906 12.2666 16.0602 12.3218 15.7312 12.2265C15.3333 12.1113 14.9174 12.3405 14.8022 12.7384C14.6871 13.1363 14.9162 13.5522 15.3141 13.6674C16.0803 13.8891 16.7875 13.7348 17.3276 13.4871C17.8578 13.244 18.2745 12.8911 18.515 12.6144Z" fill="black"/>
<path fill-rule="evenodd" clip-rule="evenodd" d="M9.20728 13.5222C8.95225 13.1276 8.65212 12.9484 8.52819 12.9236C8.12203 12.8423 7.85871 12.4471 7.94003 12.0409C8.02135 11.6348 8.41653 11.3715 8.82268 11.4528C9.49099 11.5866 10.0897 12.1241 10.4671 12.7081C10.8589 13.3144 11.1246 14.1401 10.931 14.9939C10.8394 15.3979 10.4377 15.6511 10.0337 15.5595C9.62976 15.4679 9.37655 15.0662 9.46815 14.6622C9.54814 14.3095 9.44792 13.8946 9.20728 13.5222Z" fill="black"/>
<path fill-rule="evenodd" clip-rule="evenodd" d="M5.03819 11.2266C5.42405 11.1642 5.80391 11.2502 6.17369 11.4966C6.51841 11.7262 6.61168 12.1919 6.38202 12.5366C6.15237 12.8813 5.68674 12.9746 5.34203 12.7449C5.30595 12.7209 5.28394 12.7113 5.27457 12.7078C5.22757 12.7161 5.17038 12.7422 4.93533 12.8552C4.73204 12.953 4.43414 13.0912 4.05589 13.1466C3.6666 13.2037 3.23756 13.1681 2.75111 12.9969C2.36041 12.8593 2.15521 12.431 2.29278 12.0403C2.43035 11.6496 2.8586 11.4444 3.2493 11.582C3.52604 11.6794 3.70958 11.6814 3.83829 11.6625C3.97804 11.642 4.10358 11.5908 4.28518 11.5034C4.30085 11.4959 4.31824 11.4874 4.33718 11.4781C4.49357 11.4012 4.75611 11.2721 5.03819 11.2266Z" fill="black"/>
<path fill-rule="evenodd" clip-rule="evenodd" d="M15.4183 16.3801C15.4499 15.9671 15.8104 15.658 16.2234 15.6897C17.0893 15.7562 17.9918 16.1773 18.5895 16.9646C19.2028 17.7723 19.436 18.8853 19.0964 20.2059C18.9933 20.6071 18.5844 20.8487 18.1833 20.7455C17.7821 20.6423 17.5405 20.2335 17.6437 19.8323C17.8863 18.889 17.6919 18.2629 17.3949 17.8717C17.0824 17.4601 16.5917 17.2224 16.1087 17.1853C15.6957 17.1536 15.3866 16.7931 15.4183 16.3801Z" fill="black"/>
<path fill-rule="evenodd" clip-rule="evenodd" d="M3.87926 5.05105C3.9115 4.63809 4.2724 4.32945 4.68535 4.36169C5.4049 4.41785 5.93786 4.69461 6.25678 5.20744C6.48585 5.57579 6.55874 6.02563 6.60271 6.29697C6.60853 6.33287 6.61384 6.36565 6.61894 6.3947C6.67733 6.72732 6.72718 6.83508 6.78352 6.89374C6.81576 6.9273 6.96392 7.06154 7.54173 7.06154C7.95595 7.06154 8.29173 7.39733 8.29173 7.81154C8.29173 8.22576 7.95595 8.56154 7.54173 8.56154C6.75578 8.56154 6.13061 8.37932 5.70175 7.93286C5.297 7.5115 5.19799 6.97567 5.14153 6.65405C5.13677 6.62694 5.13223 6.601 5.12788 6.57616C5.06722 6.22943 5.04424 6.09806 4.983 5.99958C4.9827 5.9991 4.98234 5.9984 4.98186 5.9975C4.97258 5.97986 4.92253 5.88476 4.56863 5.85714C4.15567 5.82491 3.84703 5.46401 3.87926 5.05105Z" fill="black"/>
<path fill-rule="evenodd" clip-rule="evenodd" d="M11.8554 6.77734C8.90254 6.77734 6.50879 9.17109 6.50879 12.1239C6.50879 15.0768 8.90254 17.4705 11.8554 17.4705C14.8082 17.4705 17.202 15.0768 17.202 12.1239C17.202 9.17109 14.8082 6.77734 11.8554 6.77734ZM5.00879 12.1239C5.00879 8.34266 8.07411 5.27734 11.8554 5.27734C15.6366 5.27734 18.702 8.34266 18.702 12.1239C18.702 15.9052 15.6366 18.9705 11.8554 18.9705C8.07411 18.9705 5.00879 15.9052 5.00879 12.1239Z" fill="black"/>
<path fill-rule="evenodd" clip-rule="evenodd" d="M13.5684 9.91112C13.5684 9.23102 13.017 8.67969 12.3369 8.67969C11.6568 8.67969 11.1055 9.23102 11.1055 9.91112C11.1055 10.5912 11.6568 11.1426 12.3369 11.1426C13.017 11.1426 13.5684 10.5912 13.5684 9.91112Z" fill="black"/>
<path fill-rule="evenodd" clip-rule="evenodd" d="M14.0771 14.7626C14.0771 14.3091 13.7095 13.9414 13.256 13.9414C12.8024 13.9414 12.4348 14.3091 12.4348 14.7626C12.4348 15.2161 12.8024 15.5838 13.256 15.5838C13.7095 15.5838 14.0771 15.2161 14.0771 14.7626Z" fill="black"/>
</svg>