<svg width="24" height="24" viewBox="0 0 24 24" fill="none" xmlns="http://www.w3.org/2000/svg">
<path d="M11.8555 6.02803C12.4268 5.91764 12.9617 4.56377 11.9421 3.76172" stroke="black" stroke-width="1.5" stroke-linecap="round" stroke-linejoin="round"/>
<path d="M11.8564 18.2227C12.6042 18.3277 12.813 19.7784 11.7461 20.24" stroke="black" stroke-width="1.5" stroke-linecap="round" stroke-linejoin="round"/>
<path d="M16.6436 8.18442C19.227 8.18442 19.8248 6.32987 19.1075 4.77734" stroke="black" stroke-width="1.5" stroke-linecap="round" stroke-linejoin="round"/>
<path d="M7.55075 16.4688C7.55075 17.7176 6.59743 19.7349 4.03613 18.7262" stroke="black" stroke-width="1.5" stroke-linecap="round" stroke-linejoin="round"/>
<path d="M20.9998 12.1203C20.0917 11.2801 18.485 11.5136 17.9515 12.1203C17.5985 12.528 16.6186 13.264 15.5234 12.947" stroke="black" stroke-width="1.5" stroke-linecap="round" stroke-linejoin="round"/>
<path d="M8.67549 12.191C9.46772 12.3497 10.4732 13.6244 10.1996 14.8309" stroke="black" stroke-width="1.5" stroke-linecap="round" stroke-linejoin="round"/>
<path d="M5.75765 12.1207C4.84787 11.5146 4.52638 12.8269 3 12.2894" stroke="black" stroke-width="1.5" stroke-linecap="round" stroke-linejoin="round"/>
<path d="M16.166 16.4375C17.5149 16.541 18.9522 17.7551 18.37 20.0191" stroke="black" stroke-width="1.5" stroke-linecap="round" stroke-linejoin="round"/>
<path d="M7.54169 7.81151C4.81417 7.81151 6.81014 5.27978 4.62695 5.10938" stroke="black" stroke-width="1.5" stroke-linecap="round" stroke-linejoin="round"/>
<circle cx="11.8554" cy="12.1239" r="6.09658" stroke="black" stroke-width="1.5" stroke-linecap="round" stroke-linejoin="round"/>
<path d="M12.3092 10.0066H12.3369M12.8184 9.91112C12.8184 9.64523 12.6028 9.42969 12.3369 9.42969C12.071 9.42969 11.8555 9.64523 11.8555 9.91112C11.8555 10.177 12.071 10.3926 12.3369 10.3926C12.6028 10.3926 12.8184 10.177 12.8184 9.91112Z" stroke="black" stroke-width="1.5" stroke-linecap="round" stroke-linejoin="round"/>
<path d="M13.2519 14.7767H13.256M13.3271 14.7626C13.3271 14.7233 13.2953 14.6914 13.256 14.6914C13.2167 14.6914 13.1848 14.7233 13.1848 14.7626C13.1848 14.8019 13.2167 14.8338 13.256 14.8338C13.2953 14.8338 13.3271 14.8019 13.3271 14.7626Z" stroke="black" stroke-width="1.5" stroke-linecap="round" stroke-linejoin="round"/>
</svg>