<svg width="24" height="24" viewBox="0 0 24 24" fill="none" xmlns="http://www.w3.org/2000/svg">
<path opacity="0.4" fill-rule="evenodd" clip-rule="evenodd" d="M11.8577 5.52344C8.21974 5.52344 5.26074 8.48244 5.26074 12.1204C5.26074 15.7574 8.21974 18.7164 11.8577 18.7164C15.4947 18.7164 18.4537 15.7574 18.4537 12.1204C18.4537 8.48244 15.4947 5.52344 11.8577 5.52344Z" fill="black"/>
<path fill-rule="evenodd" clip-rule="evenodd" d="M11.7726 4.90075C11.7726 5.10075 11.6826 5.26075 11.6426 5.31075C11.5026 5.35075 11.3926 5.43075 11.3026 5.54075C11.4826 5.53075 11.6626 5.52075 11.8526 5.52075C12.2926 5.52075 12.7226 5.56075 13.1326 5.64075C13.1626 5.58075 13.1826 5.50075 13.2026 5.43075C13.4126 4.57075 13.1126 3.73075 12.4126 3.17075C12.0826 2.91075 11.6126 2.97075 11.3526 3.30075C11.1026 3.62075 11.1526 4.09075 11.4826 4.35075C11.6726 4.50075 11.7626 4.68075 11.7726 4.90075Z" fill="black"/>
<path fill-rule="evenodd" clip-rule="evenodd" d="M13.1528 18.5908C12.7328 18.6808 12.2928 18.7208 11.8528 18.7208C11.6428 18.7208 11.4428 18.7108 11.2428 18.6908C11.3428 18.8208 11.5028 18.9008 11.6828 18.9308C11.7028 18.9608 11.7528 19.0708 11.7228 19.2308C11.6928 19.3808 11.6028 19.4908 11.4528 19.5508C11.0728 19.7208 10.8928 20.1608 11.0628 20.5408C11.1828 20.8208 11.4628 20.9908 11.7528 20.9908C11.8528 20.9908 11.9528 20.9708 12.0428 20.9308C12.9828 20.5208 13.3128 19.6108 13.2128 18.8808C13.2028 18.7808 13.1828 18.6808 13.1528 18.5908Z" fill="black"/>
<path fill-rule="evenodd" clip-rule="evenodd" d="M19.7027 7.52992C20.2527 6.67992 20.2827 5.52992 19.7927 4.46992C19.6127 4.08992 19.1727 3.92992 18.7927 4.09992C18.4227 4.26992 18.2527 4.71992 18.4327 5.08992C18.7027 5.68992 18.7127 6.29992 18.4427 6.71992C18.1527 7.18992 17.5227 7.42992 16.6427 7.42992C16.6027 7.42992 16.5527 7.42992 16.5127 7.44992C16.9227 7.85992 17.2827 8.32992 17.5727 8.84992C18.5227 8.66992 19.2627 8.21992 19.7027 7.52992Z" fill="black"/>
<path fill-rule="evenodd" clip-rule="evenodd" d="M6.81268 16.3604C6.80268 16.4004 6.80268 16.4304 6.80268 16.4704C6.80268 16.9804 6.57268 17.6904 6.07268 18.0304C5.65268 18.3204 5.06268 18.3204 4.31268 18.0204C3.92268 17.8704 3.49268 18.0604 3.34268 18.4404C3.19268 18.8304 3.37268 19.2704 3.76268 19.4204C4.36268 19.6504 4.88268 19.7404 5.32268 19.7404C6.03268 19.7404 6.56268 19.5204 6.92268 19.2704C7.55268 18.8404 7.93268 18.2004 8.13268 17.5604C7.64268 17.2304 7.19268 16.8204 6.81268 16.3604Z" fill="black"/>
<path fill-rule="evenodd" clip-rule="evenodd" d="M5.00298 12.8304C5.09298 12.7804 5.24298 12.7104 5.27298 12.7104C5.27298 12.7104 5.28298 12.7104 5.29298 12.7204C5.27298 12.5304 5.26298 12.3204 5.26298 12.1204C5.26298 11.8104 5.28298 11.5004 5.33298 11.2104C4.92298 11.2004 4.58298 11.3604 4.34298 11.4804C3.99298 11.6504 3.76298 11.7604 3.25298 11.5804C2.86298 11.4404 2.43298 11.6504 2.29298 12.0404C2.15298 12.4304 2.36298 12.8604 2.75298 13.0004C3.11298 13.1204 3.43298 13.1704 3.71298 13.1704C4.29298 13.1704 4.71298 12.9704 5.00298 12.8304Z" fill="black"/>
<path fill-rule="evenodd" clip-rule="evenodd" d="M17.2325 15.9307C16.9025 16.4007 16.5125 16.8207 16.0825 17.1907H16.1125C16.6325 17.2307 17.1225 17.5007 17.4225 17.9107C17.7725 18.3907 17.8425 19.0607 17.6425 19.8307C17.5425 20.2307 17.7825 20.6407 18.1825 20.7507C18.2525 20.7607 18.3125 20.7707 18.3725 20.7707C18.7025 20.7707 19.0125 20.5407 19.1025 20.2107C19.4925 18.6707 19.0725 17.6307 18.6425 17.0307C18.2925 16.5507 17.7925 16.1607 17.2325 15.9307Z" fill="black"/>
<path fill-rule="evenodd" clip-rule="evenodd" d="M4.57287 5.86032C5.01287 5.89032 5.02287 5.94032 5.12287 6.53032C5.21287 7.08032 5.37287 8.01032 6.42287 8.38032C6.76287 7.89032 7.17287 7.45032 7.62287 7.07032C7.60287 7.06032 7.57287 7.06032 7.54287 7.06032C6.73287 7.06032 6.71287 6.93032 6.60287 6.28032C6.49287 5.66032 6.30287 4.49032 4.69287 4.36032C4.25287 4.34032 3.91287 4.64032 3.88287 5.05032C3.85287 5.46032 4.16287 5.83032 4.57287 5.86032Z" fill="black"/>
<path fill-rule="evenodd" clip-rule="evenodd" d="M21.5125 11.5703C20.9425 11.0403 20.1625 10.7803 19.2825 10.8303C18.9525 10.8503 18.6425 10.9103 18.3525 11.0103C18.4225 11.3703 18.4525 11.7403 18.4525 12.1203C18.4525 12.3203 18.4425 12.5103 18.4225 12.7003C18.4525 12.6803 18.4925 12.6503 18.5225 12.6103C18.6025 12.5203 18.9125 12.3503 19.3625 12.3303C19.8325 12.2903 20.2325 12.4303 20.4925 12.6703C20.7925 12.9503 21.2725 12.9303 21.5525 12.6303C21.8325 12.3303 21.8125 11.8503 21.5125 11.5703Z" fill="black"/>
<path fill-rule="evenodd" clip-rule="evenodd" d="M8.82573 11.4543C8.42473 11.3763 8.02373 11.6343 7.94173 12.0413C7.85973 12.4473 8.12273 12.8433 8.52873 12.9253C8.65873 12.9513 8.95873 13.1373 9.20873 13.5233C9.45373 13.9003 9.54873 14.3173 9.47073 14.6653C9.37873 15.0683 9.63273 15.4713 10.0367 15.5613C10.0927 15.5743 10.1477 15.5803 10.2027 15.5803C10.5457 15.5803 10.8537 15.3443 10.9327 14.9953C11.1027 14.2453 10.9377 13.4333 10.4687 12.7083C10.0387 12.0443 9.42473 11.5753 8.82573 11.4543Z" fill="black"/>
<path fill-rule="evenodd" clip-rule="evenodd" d="M16.7482 13.7393C16.7502 13.6113 16.8642 13.3113 17.1682 13.0073C17.4602 12.7143 17.4602 12.2393 17.1662 11.9463C16.8722 11.6553 16.3972 11.6533 16.1052 11.9483C15.5792 12.4753 15.2592 13.1353 15.2482 13.7123C15.2412 14.1263 15.5702 14.4683 15.9842 14.4753H15.9982C16.4062 14.4753 16.7402 14.1483 16.7482 13.7393Z" fill="black"/>
<path fill-rule="evenodd" clip-rule="evenodd" d="M12.3394 11.1397C13.0184 11.1397 13.5704 10.5877 13.5704 9.91069C13.5704 9.23169 13.0184 8.67969 12.3394 8.67969C11.6604 8.67969 11.1084 9.23169 11.1084 9.91069C11.1084 10.5877 11.6604 11.1397 12.3394 11.1397Z" fill="black"/>
<path fill-rule="evenodd" clip-rule="evenodd" d="M13.258 13.9395C12.805 13.9395 12.436 14.3075 12.436 14.7595C12.436 15.2115 12.805 15.5805 13.258 15.5805C13.711 15.5805 14.079 15.2115 14.079 14.7595C14.079 14.3075 13.711 13.9395 13.258 13.9395Z" fill="black"/>
</svg>