<svg width="24" height="24" viewBox="0 0 24 24" fill="none" xmlns="http://www.w3.org/2000/svg">
<path fill-rule="evenodd" clip-rule="evenodd" d="M17.1666 13.0057C16.8626 13.3107 16.7486 13.6097 16.7466 13.7377C16.7386 14.1477 16.4046 14.4747 15.9966 14.4747H15.9826C15.5686 14.4667 15.2396 14.1247 15.2466 13.7107C15.2576 13.1347 15.5776 12.4747 16.1046 11.9467C16.3956 11.6517 16.8706 11.6537 17.1646 11.9447C17.4586 12.2377 17.4586 12.7127 17.1666 13.0057ZM13.2566 15.5797C12.8036 15.5797 12.4346 15.2117 12.4346 14.7597C12.4346 14.3077 12.8036 13.9397 13.2566 13.9397C13.7096 13.9397 14.0776 14.3077 14.0776 14.7597C14.0776 15.2117 13.7096 15.5797 13.2566 15.5797ZM11.1056 9.90971C11.1056 9.23171 11.6586 8.67971 12.3376 8.67971C13.0166 8.67971 13.5686 9.23171 13.5686 9.90971C13.5686 10.5877 13.0166 11.1397 12.3376 11.1397C11.6586 11.1397 11.1056 10.5877 11.1056 9.90971ZM10.9316 14.9947C10.8526 15.3437 10.5436 15.5797 10.2006 15.5797C10.1456 15.5797 10.0906 15.5737 10.0346 15.5617C9.63062 15.4707 9.37662 15.0687 9.46862 14.6647C9.54662 14.3177 9.45162 13.9007 9.20662 13.5237C8.95662 13.1367 8.65662 12.9507 8.52662 12.9247C8.12062 12.8427 7.85762 12.4467 7.93962 12.0407C8.02162 11.6337 8.42262 11.3757 8.82362 11.4537C9.42262 11.5747 10.0366 12.0437 10.4666 12.7077C10.9366 13.4327 11.1016 14.2447 10.9316 14.9947ZM21.5086 11.5687C20.9406 11.0447 20.1626 10.7767 19.2856 10.8277C18.9526 10.8457 18.6406 10.9177 18.3526 11.0197C18.2206 10.2387 17.9536 9.50571 17.5726 8.84371C18.5216 8.66871 19.2646 8.22071 19.7056 7.53071C20.2516 6.67771 20.2826 5.53071 19.7896 4.46571C19.6146 4.08871 19.1676 3.92571 18.7946 4.09971C18.4186 4.27371 18.2546 4.71871 18.4286 5.09471C18.7056 5.69371 18.7106 6.30271 18.4416 6.72271C18.1456 7.18571 17.5246 7.42971 16.6446 7.42971C16.5986 7.42971 16.5586 7.44771 16.5156 7.45571C15.6066 6.54671 14.4336 5.90471 13.1236 5.64871C13.1496 5.57471 13.1846 5.50871 13.2036 5.43071C13.4116 4.57071 13.1136 3.72671 12.4066 3.16971C12.0806 2.91371 11.6086 2.97171 11.3536 3.29571C11.0976 3.62171 11.1536 4.09371 11.4796 4.34971C11.6686 4.49771 11.7656 4.68271 11.7676 4.89671C11.7686 5.10371 11.6846 5.25771 11.6376 5.31271C11.4956 5.35571 11.3846 5.44471 11.2936 5.55171C9.89862 5.67071 8.62762 6.22171 7.61462 7.07471C7.58962 7.07271 7.56762 7.06071 7.54262 7.06071C6.73262 7.06071 6.71062 6.92671 6.60162 6.28271C6.49462 5.65571 6.29662 4.48771 4.68662 4.36171C4.24962 4.34171 3.91162 4.63871 3.87962 5.05171C3.84762 5.46471 4.15662 5.82571 4.56862 5.85871C5.01362 5.89271 5.02162 5.94171 5.12262 6.53371C5.21562 7.08471 5.38362 7.99871 6.42862 8.37971C5.85662 9.20671 5.47362 10.1717 5.32962 11.2117C4.92162 11.2007 4.58162 11.3627 4.34262 11.4797C3.99062 11.6507 3.75662 11.7627 3.25062 11.5827C2.85862 11.4437 2.43162 11.6507 2.29362 12.0397C2.15562 12.4307 2.35962 12.8597 2.75062 12.9967C3.10962 13.1237 3.42862 13.1727 3.70962 13.1727C4.28762 13.1727 4.70762 12.9687 4.99662 12.8287C5.09262 12.7817 5.23662 12.7127 5.27262 12.7077C5.27362 12.7077 5.28662 12.7157 5.28962 12.7167C5.41462 14.1027 5.96962 15.3657 6.82062 16.3727C6.81662 16.4057 6.80162 16.4347 6.80162 16.4697C6.80162 16.9837 6.57362 17.6917 6.07462 18.0297C5.65062 18.3207 5.05762 18.3167 4.31262 18.0227C3.92562 17.8687 3.49062 18.0587 3.33962 18.4437C3.18762 18.8297 3.37562 19.2657 3.76162 19.4167C4.35762 19.6527 4.87862 19.7437 5.32562 19.7437C6.03162 19.7437 6.55762 19.5167 6.91862 19.2707C7.55362 18.8387 7.93362 18.1917 8.12962 17.5587C9.03362 18.1797 10.0976 18.5797 11.2476 18.6857C11.3536 18.8107 11.4966 18.9057 11.6796 18.9327C11.7016 18.9547 11.7546 19.0737 11.7226 19.2327C11.6916 19.3807 11.6036 19.4847 11.4496 19.5517C11.0686 19.7157 10.8946 20.1567 11.0586 20.5367C11.1806 20.8207 11.4566 20.9897 11.7466 20.9897C11.8466 20.9897 11.9466 20.9707 12.0436 20.9287C12.9856 20.5227 13.3116 19.6057 13.2156 18.8767C13.2016 18.7737 13.1636 18.6847 13.1356 18.5897C14.2416 18.3717 15.2476 17.8767 16.0816 17.1787C16.0916 17.1807 16.1006 17.1867 16.1106 17.1877C16.6356 17.2267 17.1256 17.4957 17.4216 17.9087C17.7676 18.3907 17.8446 19.0567 17.6446 19.8317C17.5406 20.2327 17.7826 20.6427 18.1836 20.7457C18.2466 20.7617 18.3096 20.7697 18.3716 20.7697C18.7056 20.7697 19.0096 20.5447 19.0976 20.2067C19.4936 18.6647 19.0676 17.6307 18.6406 17.0337C18.2876 16.5427 17.7826 16.1767 17.2186 15.9467C17.8886 15.0097 18.3206 13.8937 18.4236 12.6827C18.4536 12.6577 18.4896 12.6447 18.5166 12.6137C18.6026 12.5157 18.9096 12.3497 19.3646 12.3257C19.8336 12.2947 20.2286 12.4277 20.4906 12.6707C20.7926 12.9497 21.2696 12.9347 21.5506 12.6287C21.8316 12.3247 21.8126 11.8507 21.5086 11.5687Z" fill="black"/>
</svg>