<svg width="24" height="24" viewBox="0 0 24 24" fill="none" xmlns="http://www.w3.org/2000/svg">
<path d="M8.78711 13.4192C8.78711 14.468 9.44286 15.2103 10.4946 15.2103H13.5038C14.5555 15.2103 15.2084 14.468 15.2084 13.4192V10.5841C15.2084 9.53237 14.5555 8.78906 13.5038 8.78906H10.4946C9.44675 8.78906 8.78711 9.53237 8.78711 10.5841V13.4192Z" stroke="black" stroke-width="1.5" stroke-linecap="round" stroke-linejoin="round"/>
<path d="M11.3438 13.2637V15.2105" stroke="black" stroke-width="1.5" stroke-linecap="round" stroke-linejoin="round"/>
<path d="M12.8203 8.78906V10.7349" stroke="black" stroke-width="1.5" stroke-linecap="round" stroke-linejoin="round"/>
<path d="M5.02148 15.0835C5.02148 17.3614 6.44696 18.9746 8.73162 18.9746H15.2694C17.555 18.9746 18.9727 17.3614 18.9727 15.0835V8.92234C18.9727 6.63768 17.555 5.02344 15.2694 5.02344H8.73162C6.45377 5.02344 5.02148 6.63768 5.02148 8.92234V15.0835Z" stroke="black" stroke-width="1.5" stroke-linecap="round" stroke-linejoin="round"/>
<path d="M9.61328 20.9975V18.9766M14.3872 20.9975V18.9766" stroke="black" stroke-width="1.5" stroke-linecap="round" stroke-linejoin="round"/>
<path d="M5.02097 9.61719H3M5.02097 14.3835H3" stroke="black" stroke-width="1.5" stroke-linecap="round" stroke-linejoin="round"/>
<path d="M9.61328 5.02487V3.00391M14.3872 5.02487V3.00391" stroke="black" stroke-width="1.5" stroke-linecap="round" stroke-linejoin="round"/>
<path d="M20.9995 9.61719H18.9707M20.9995 14.3835H18.9707" stroke="black" stroke-width="1.5" stroke-linecap="round" stroke-linejoin="round"/>
</svg>