<svg width="25" height="24" viewBox="0 0 25 24" fill="none" xmlns="http://www.w3.org/2000/svg">
<path d="M9.28711 13.4192C9.28711 14.468 9.94286 15.2103 10.9946 15.2103H14.0038C15.0555 15.2103 15.7084 14.468 15.7084 13.4192V10.5841C15.7084 9.53237 15.0555 8.78906 14.0038 8.78906H10.9946C9.94675 8.78906 9.28711 9.53237 9.28711 10.5841V13.4192Z" stroke="black" stroke-width="1.5" stroke-linecap="round" stroke-linejoin="round"/>
<path opacity="0.4" d="M11.8438 13.2637V15.2105" stroke="black" stroke-width="1.5" stroke-linecap="round" stroke-linejoin="round"/>
<path opacity="0.4" d="M13.3203 8.78906V10.7349" stroke="black" stroke-width="1.5" stroke-linecap="round" stroke-linejoin="round"/>
<path d="M5.52148 15.0835C5.52148 17.3614 6.94696 18.9746 9.23162 18.9746H15.7694C18.055 18.9746 19.4727 17.3614 19.4727 15.0835V8.92234C19.4727 6.63768 18.055 5.02344 15.7694 5.02344H9.23162C6.95377 5.02344 5.52148 6.63768 5.52148 8.92234V15.0835Z" stroke="black" stroke-width="1.5" stroke-linecap="round" stroke-linejoin="round"/>
<path opacity="0.4" d="M10.1133 20.9975V18.9766M14.8872 20.9975V18.9766" stroke="black" stroke-width="1.5" stroke-linecap="round" stroke-linejoin="round"/>
<path opacity="0.4" d="M5.52097 9.61719H3.5M5.52097 14.3835H3.5" stroke="black" stroke-width="1.5" stroke-linecap="round" stroke-linejoin="round"/>
<path opacity="0.4" d="M10.1133 5.02487V3.00391M14.8872 5.02487V3.00391" stroke="black" stroke-width="1.5" stroke-linecap="round" stroke-linejoin="round"/>
<path opacity="0.4" d="M21.4995 9.61719H19.4707M21.4995 14.3835H19.4707" stroke="black" stroke-width="1.5" stroke-linecap="round" stroke-linejoin="round"/>
</svg>