<svg width="24" height="24" viewBox="0 0 24 24" fill="none" xmlns="http://www.w3.org/2000/svg">
<path fill-rule="evenodd" clip-rule="evenodd" d="M13.6739 9.19482H10.3289C9.31191 9.19482 9.19391 9.78982 9.19391 10.2378V13.7318C9.19391 14.1938 9.31191 14.8078 10.3289 14.8078H13.6699C14.6879 14.8078 14.8059 14.2118 14.8059 13.7618V10.2378C14.8069 9.89382 14.7249 9.63682 14.5599 9.47282C14.3309 9.24282 13.9519 9.19482 13.6739 9.19482Z" fill="black"/>
<path fill-rule="evenodd" clip-rule="evenodd" d="M16.31 13.76C16.31 15.31 15.27 16.31 13.67 16.31H10.33C8.73 16.31 7.69 15.3 7.69 13.73V10.24C7.69 8.69 8.73 7.69 10.33 7.69H13.67C14.48 7.69 15.15 7.94 15.62 8.41C16.07 8.86 16.31 9.5 16.31 10.24V13.76ZM21 12.75C21.41 12.75 21.75 12.41 21.75 12C21.75 11.59 21.41 11.25 21 11.25H19.96V8.7H21C21.41 8.7 21.75 8.36 21.75 7.95C21.75 7.54 21.41 7.2 21 7.2H19.84C19.68 6.42 19.35 5.74 18.84 5.23C18.32 4.71 17.62 4.37 16.8 4.19V3C16.8 2.59 16.46 2.25 16.05 2.25C15.63 2.25 15.3 2.59 15.3 3V4.04H12.75V3C12.75 2.59 12.41 2.25 12 2.25C11.58 2.25 11.25 2.59 11.25 3V4.04H8.7V3C8.7 2.59 8.36 2.25 7.95 2.25C7.54 2.25 7.2 2.59 7.2 3V4.19C5.56 4.54 4.48 5.6 4.15 7.2H3C2.59 7.2 2.25 7.54 2.25 7.95C2.25 8.36 2.59 8.7 3 8.7H4.04V11.25H3C2.59 11.25 2.25 11.59 2.25 12C2.25 12.41 2.59 12.75 3 12.75H4.04V15.3H3C2.59 15.3 2.25 15.63 2.25 16.05C2.25 16.46 2.59 16.8 3 16.8H4.17C4.51 18.4 5.57 19.46 7.2 19.81V21C7.2 21.41 7.54 21.75 7.95 21.75C8.36 21.75 8.7 21.41 8.7 21V19.96H11.25V21C11.25 21.41 11.58 21.75 12 21.75C12.41 21.75 12.75 21.41 12.75 21V19.96H15.3V21C15.3 21.41 15.63 21.75 16.05 21.75C16.46 21.75 16.8 21.41 16.8 21V19.82C18.44 19.46 19.52 18.4 19.84 16.8H21C21.41 16.8 21.75 16.46 21.75 16.05C21.75 15.63 21.41 15.3 21 15.3H19.96V12.75H21Z" fill="black"/>
</svg>