<svg width="25" height="24" viewBox="0 0 25 24" fill="none" xmlns="http://www.w3.org/2000/svg">
<path opacity="0.4" d="M12.488 14.9463L14.1995 11.999H10.7969L12.5065 9.05078" stroke="black" stroke-width="1.5" stroke-linecap="round" stroke-linejoin="round"/>
<path d="M5.52148 15.0835C5.52148 17.3614 6.94696 18.9746 9.23162 18.9746H15.7694C18.055 18.9746 19.4727 17.3614 19.4727 15.0835V8.92234C19.4727 6.63768 18.055 5.02344 15.7694 5.02344H9.23162C6.95377 5.02344 5.52148 6.63768 5.52148 8.92234V15.0835Z" stroke="black" stroke-width="1.5" stroke-linecap="round" stroke-linejoin="round"/>
<path opacity="0.4" d="M10.1133 20.9975V18.9766M14.8872 20.9975V18.9766" stroke="black" stroke-width="1.5" stroke-linecap="round" stroke-linejoin="round"/>
<path opacity="0.4" d="M5.52097 9.61719H3.5M5.52097 14.3835H3.5" stroke="black" stroke-width="1.5" stroke-linecap="round" stroke-linejoin="round"/>
<path opacity="0.4" d="M10.1133 5.02487V3.00391M14.8872 5.02487V3.00391" stroke="black" stroke-width="1.5" stroke-linecap="round" stroke-linejoin="round"/>
<path opacity="0.4" d="M21.4995 9.61719H19.4707M21.4995 14.3835H19.4707" stroke="black" stroke-width="1.5" stroke-linecap="round" stroke-linejoin="round"/>
</svg>