<svg width="24" height="24" viewBox="0 0 24 24" fill="none" xmlns="http://www.w3.org/2000/svg">
<path opacity="0.4" fill-rule="evenodd" clip-rule="evenodd" d="M19.48 13.63V12.14C19.48 11.9743 19.3456 11.8407 19.1801 11.8334C18.1232 11.7863 17.0913 11.4902 16.1874 10.9452C15.9757 10.8175 15.69 10.9628 15.69 11.21V13.3C15.69 14.7 14.74 15.69 13.38 15.69H10.63C9.27003 15.69 8.31003 14.7 8.31003 13.3V10.71C8.31003 9.30002 9.27003 8.31002 10.63 8.31002H13.38C13.5473 8.31002 13.6864 8.12106 13.6209 7.96718C13.2125 7.00745 13.0419 5.91873 13.1789 4.88289C13.2038 4.69452 13.062 4.52002 12.872 4.52002H10.37C10.37 4.52002 8.807 4.52002 8.74003 4.52002C6.23003 4.52002 4.55003 6.27002 4.53003 8.87002V15.13C4.55003 17.73 6.23003 19.48 8.74003 19.48H8.87003H15.14H15.27C17.77 19.48 19.45 17.73 19.47 15.13L19.48 13.63Z" fill="black"/>
<path d="M18.315 5.68C18.315 6.1 17.975 6.43 17.565 6.43C17.145 6.43 16.815 6.1 16.815 5.68V3C16.815 2.58 17.145 2.25 17.565 2.25C17.975 2.25 18.315 2.58 18.315 3V5.68Z" fill="black"/>
<path d="M17.5351 8.83981H17.5651C17.9651 8.83981 18.2951 8.49981 18.3151 8.09981C18.3451 7.67981 18.0251 7.32981 17.6051 7.30981C17.2251 7.29981 16.8451 7.59981 16.8251 8.01981L16.8151 8.07981C16.7951 8.48981 17.1151 8.80981 17.5351 8.83981Z" fill="black"/>
<path d="M10.6301 9.81006C9.89006 9.81006 9.81006 10.4401 9.81006 10.7101V13.3001C9.81006 13.6301 9.92006 14.1901 10.6301 14.1901H13.3801C14.0801 14.1901 14.1901 13.6301 14.1901 13.3001V10.7101C14.1901 10.3701 14.0801 9.81006 13.3801 9.81006H10.6301Z" fill="black"/>
<path d="M10.3633 3.00293C10.3633 2.58872 10.0275 2.25293 9.61328 2.25293C9.19907 2.25293 8.86328 2.58872 8.86328 3.00293V4.53125H10.3633V3.00293Z" fill="black"/>
<path d="M19.4699 15.1196C19.4711 15.0721 19.4716 15.0244 19.4716 14.9765V13.6196L20.9995 13.6325C21.4137 13.6325 21.7495 13.9683 21.7495 14.3825C21.7495 14.7967 21.4137 15.1325 20.9995 15.1325L19.4699 15.1196Z" fill="black"/>
<path d="M15.1372 19.4648V20.9966C15.1372 21.4108 14.8014 21.7466 14.3872 21.7466C13.973 21.7466 13.6372 21.4108 13.6372 20.9966V19.4648H15.1372Z" fill="black"/>
<path d="M8.86328 19.4648H10.3633V20.9966C10.3633 21.4108 10.0275 21.7466 9.61328 21.7466C9.19907 21.7466 8.86328 21.4108 8.86328 20.9966V19.4648Z" fill="black"/>
<path d="M4.53516 13.6335V14.9894C4.53516 15.0376 4.53574 15.0857 4.5369 15.1335H3C2.58579 15.1335 2.25 14.7977 2.25 14.3835C2.25 13.9693 2.58579 13.6335 3 13.6335H4.53516Z" fill="black"/>
<path d="M4.53707 8.86719C4.5358 8.91733 4.53516 8.96768 4.53516 9.01824V10.3672H3C2.58579 10.3672 2.25 10.0314 2.25 9.61719C2.25 9.20297 2.58579 8.86719 3 8.86719H4.53707Z" fill="black"/>
</svg>