<svg width="25" height="24" viewBox="0 0 25 24" fill="none" xmlns="http://www.w3.org/2000/svg">
<path d="M5.03516 9.68427V8.29961C5.03516 5.86328 6.55592 4.53711 8.99128 4.53711H12.5023" stroke="black" stroke-width="1.5" stroke-linecap="round" stroke-linejoin="round"/>
<path d="M14.9609 4.53711H16.013C18.4561 4.53711 19.9691 5.86328 19.9623 8.29961V9.54064" stroke="black" stroke-width="1.5" stroke-linecap="round" stroke-linejoin="round"/>
<path d="M15.4023 19.4652H16.005C18.4481 19.4652 19.9621 18.1322 19.9621 15.6958V11.998" stroke="black" stroke-width="1.5" stroke-linecap="round" stroke-linejoin="round"/>
<path d="M12.4984 19.4647H8.99128C6.55592 19.4647 5.03516 18.1084 5.03516 15.6331V12.125" stroke="black" stroke-width="1.5" stroke-linecap="round" stroke-linejoin="round"/>
<path d="M16.5485 4.5373V3M12.4989 4.5373V3M8.44922 4.5373V3" stroke="black" stroke-width="1.5" stroke-linecap="round" stroke-linejoin="round"/>
<path d="M8.44922 19.4629V21.0002M12.4989 19.4629V21.0002M16.5485 19.4629V21.0002" stroke="black" stroke-width="1.5" stroke-linecap="round" stroke-linejoin="round"/>
<path d="M5.0373 7.94922H3.5M5.0373 11.9989H3.5M5.0373 16.0485H3.5" stroke="black" stroke-width="1.5" stroke-linecap="round" stroke-linejoin="round"/>
<path d="M19.9629 16.0485H21.5002M19.9629 11.9989H21.5002M19.9629 7.94922H21.5002" stroke="black" stroke-width="1.5" stroke-linecap="round" stroke-linejoin="round"/>
<path d="M10.829 8.44531C9.66823 8.44531 8.94336 9.07677 8.94336 10.2375V13.7325C8.94336 14.9117 9.66823 15.5578 10.829 15.5578H14.1702C15.3348 15.5578 16.0558 14.9224 16.0558 13.7617V10.2375C16.0597 9.07677 15.3378 8.44531 14.1741 8.44531" stroke="black" stroke-width="1.5" stroke-linecap="round" stroke-linejoin="round"/>
</svg>