<svg width="25" height="24" viewBox="0 0 25 24" fill="none" xmlns="http://www.w3.org/2000/svg">
<path fill-rule="evenodd" clip-rule="evenodd" d="M6.82178 6.62966C6.32984 7.15708 6.02246 7.93808 6.02246 8.92429V15.0855C6.02246 16.0687 6.32835 16.8475 6.81916 17.3736C7.3045 17.8938 8.02552 18.2266 8.98259 18.2266H15.5203C16.4778 18.2266 17.1967 17.8939 17.68 17.3744C18.169 16.8487 18.4737 16.0698 18.4737 15.0855V11.6244C18.4737 11.2102 18.8094 10.8744 19.2237 10.8744C19.6379 10.8744 19.9737 11.2102 19.9737 11.6244V15.0855C19.9737 16.379 19.5694 17.5456 18.7782 18.3961C17.9813 19.2527 16.8485 19.7266 15.5203 19.7266H8.98259C7.65501 19.7266 6.52096 19.2528 5.7224 18.3969C4.92931 17.5468 4.52246 16.3801 4.52246 15.0855V8.92429C4.52246 7.62585 4.93123 6.4574 5.72489 5.60652C6.52391 4.7499 7.65775 4.27539 8.98259 4.27539H12.8202C13.2344 4.27539 13.5702 4.61118 13.5702 5.02539C13.5702 5.4396 13.2344 5.77539 12.8202 5.77539H8.98259C8.02959 5.77539 7.30837 6.10801 6.82178 6.62966Z" fill="black"/>
<path fill-rule="evenodd" clip-rule="evenodd" d="M17.3047 2.72461C17.7189 2.72461 18.0547 3.0604 18.0547 3.47461V6.16112C18.0547 6.57534 17.7189 6.91112 17.3047 6.91112C16.8905 6.91112 16.5547 6.57534 16.5547 6.16112V3.47461C16.5547 3.0604 16.8905 2.72461 17.3047 2.72461ZM17.3518 7.78529C17.7655 7.80632 18.0838 8.15873 18.0628 8.57241L18.0599 8.62981C18.0388 9.04349 17.6864 9.36179 17.2727 9.34076C16.8591 9.31972 16.5408 8.96732 16.5618 8.55364L16.5647 8.49623C16.5858 8.08255 16.9382 7.76425 17.3518 7.78529Z" fill="black"/>
<path fill-rule="evenodd" clip-rule="evenodd" d="M18.4707 14.3828C18.4707 13.9686 18.8065 13.6328 19.2207 13.6328H21.2495C21.6637 13.6328 21.9995 13.9686 21.9995 14.3828C21.9995 14.797 21.6637 15.1328 21.2495 15.1328H19.2207C18.8065 15.1328 18.4707 14.797 18.4707 14.3828Z" fill="black"/>
<path fill-rule="evenodd" clip-rule="evenodd" d="M9.86328 2.25391C10.2775 2.25391 10.6133 2.58969 10.6133 3.00391V5.02487C10.6133 5.43909 10.2775 5.77487 9.86328 5.77487C9.44907 5.77487 9.11328 5.43909 9.11328 5.02487V3.00391C9.11328 2.58969 9.44907 2.25391 9.86328 2.25391Z" fill="black"/>
<path fill-rule="evenodd" clip-rule="evenodd" d="M2.5 9.61719C2.5 9.20297 2.83579 8.86719 3.25 8.86719H5.27097C5.68518 8.86719 6.02097 9.20297 6.02097 9.61719C6.02097 10.0314 5.68518 10.3672 5.27097 10.3672H3.25C2.83579 10.3672 2.5 10.0314 2.5 9.61719ZM2.5 14.3835C2.5 13.9693 2.83579 13.6335 3.25 13.6335H5.27097C5.68518 13.6335 6.02097 13.9693 6.02097 14.3835C6.02097 14.7977 5.68518 15.1335 5.27097 15.1335H3.25C2.83579 15.1335 2.5 14.7977 2.5 14.3835Z" fill="black"/>
<path fill-rule="evenodd" clip-rule="evenodd" d="M9.86328 18.2266C10.2775 18.2266 10.6133 18.5623 10.6133 18.9766V20.9975C10.6133 21.4117 10.2775 21.7475 9.86328 21.7475C9.44907 21.7475 9.11328 21.4117 9.11328 20.9975V18.9766C9.11328 18.5623 9.44907 18.2266 9.86328 18.2266ZM14.6372 18.2266C15.0514 18.2266 15.3872 18.5623 15.3872 18.9766V20.9975C15.3872 21.4117 15.0514 21.7475 14.6372 21.7475C14.223 21.7475 13.8872 21.4117 13.8872 20.9975V18.9766C13.8872 18.5623 14.223 18.2266 14.6372 18.2266Z" fill="black"/>
<path fill-rule="evenodd" clip-rule="evenodd" d="M10.2804 10.034C10.1607 10.1623 10.0605 10.379 10.0605 10.704V13.2971C10.0605 13.6211 10.1602 13.8368 10.2793 13.9646C10.393 14.0864 10.5769 14.1857 10.8722 14.1857H13.6249C13.9208 14.1857 14.1034 14.0865 14.216 13.9654C14.3343 13.8382 14.4337 13.6224 14.4337 13.2971V12.5041C14.4337 12.0899 14.7695 11.7541 15.1837 11.7541C15.5979 11.7541 15.9337 12.0899 15.9337 12.5041V13.2971C15.9337 13.9312 15.7349 14.5347 15.3144 14.9869C14.8882 15.4453 14.2914 15.6857 13.6249 15.6857H10.8722C10.2062 15.6857 9.60929 15.4453 9.18246 14.9877C8.76111 14.536 8.56055 13.9325 8.56055 13.2971V10.704C8.56055 10.0667 8.76207 9.46258 9.18358 9.01076C9.61043 8.55321 10.2071 8.3125 10.8722 8.3125H12.7249C13.1391 8.3125 13.4749 8.64829 13.4749 9.0625C13.4749 9.47671 13.1391 9.8125 12.7249 9.8125H10.8722C10.5789 9.8125 10.3948 9.91137 10.2804 10.034Z" fill="black"/>
</svg>