<svg width="24" height="24" viewBox="0 0 24 24" fill="none" xmlns="http://www.w3.org/2000/svg">
<path fill-rule="evenodd" clip-rule="evenodd" d="M13.3759 9.81299H10.6239C9.9179 9.81299 9.8129 10.372 9.8129 10.705V13.298C9.8129 13.629 9.9179 14.186 10.6239 14.186H13.3759C14.0789 14.186 14.1849 13.629 14.1849 13.298V10.705C14.1849 10.372 14.0789 9.81299 13.3759 9.81299Z" fill="black"/>
<path fill-rule="evenodd" clip-rule="evenodd" d="M15.68 13.3C15.68 14.7 14.74 15.69 13.38 15.69H10.62C9.26 15.69 8.31 14.7 8.31 13.3V10.71C8.31 9.3 9.26 8.31 10.62 8.31H13.38C14.74 8.31 15.68 9.3 15.68 10.71V13.3ZM21 13.63H19.47V10.37H21C21.41 10.37 21.75 10.03 21.75 9.62C21.75 9.2 21.41 8.87 21 8.87H19.47C19.44 6.27 17.76 4.52 15.27 4.52H15.14V3C15.14 2.59 14.8 2.25 14.39 2.25C13.97 2.25 13.64 2.59 13.64 3V4.52H10.36V3C10.36 2.59 10.03 2.25 9.61 2.25C9.2 2.25 8.86 2.59 8.86 3V4.52H8.73C6.23 4.52 4.55 6.27 4.53 8.87H3C2.59 8.87 2.25 9.2 2.25 9.62C2.25 10.03 2.59 10.37 3 10.37H4.52V13.63H3C2.59 13.63 2.25 13.97 2.25 14.38C2.25 14.8 2.59 15.13 3 15.13H4.53C4.55 17.73 6.23 19.48 8.73 19.48H8.86V21C8.86 21.41 9.2 21.75 9.61 21.75C10.03 21.75 10.36 21.41 10.36 21V19.48H13.64V21C13.64 21.41 13.97 21.75 14.39 21.75C14.8 21.75 15.14 21.41 15.14 21V19.48H15.27C17.77 19.48 19.45 17.73 19.47 15.13H21C21.41 15.13 21.75 14.8 21.75 14.38C21.75 13.97 21.41 13.63 21 13.63Z" fill="black"/>
</svg>