<svg width="24" height="24" viewBox="0 0 24 24" fill="none" xmlns="http://www.w3.org/2000/svg">
<path fill-rule="evenodd" clip-rule="evenodd" d="M3.7402 3.89737C4.72468 2.84117 6.12669 2.25 7.78216 2.25H16.2169C17.8762 2.25 19.2788 2.84084 20.2629 3.89765C21.2413 4.94841 21.75 6.39889 21.75 8.02638V15.9736C21.75 17.6011 21.2413 19.0516 20.2627 20.1024C19.2785 21.1592 17.8756 21.75 16.2159 21.75H7.78216C6.1228 21.75 4.72038 21.1591 3.73657 20.1023C2.75842 19.0515 2.25 17.601 2.25 15.9736V8.02638C2.25 6.39806 2.76117 4.94771 3.7402 3.89737ZM4.83745 4.92012C4.16024 5.64666 3.75 6.70951 3.75 8.02638V15.9736C3.75 17.2914 4.15861 18.3541 4.83451 19.0802C5.50475 19.8003 6.49341 20.25 7.78216 20.25H16.2159C17.5052 20.25 18.4944 19.8002 19.165 19.0801C19.8412 18.354 20.25 17.2913 20.25 15.9736V8.02638C20.25 6.70868 19.8412 5.64597 19.1651 4.91984C18.4946 4.19975 17.5056 3.75 16.2169 3.75H7.78216C6.49828 3.75 5.50921 4.19943 4.83745 4.92012Z" fill="black"/>
<path fill-rule="evenodd" clip-rule="evenodd" d="M9.47144 6.68769C10.1691 6.39873 10.9168 6.25 11.6719 6.25C12.0861 6.25 12.4219 6.58579 12.4219 7C12.4219 7.41421 12.0861 7.75 11.6719 7.75C11.1138 7.75 10.5611 7.85993 10.0455 8.07351C9.52984 8.28709 9.06132 8.60015 8.66667 8.9948C8.27202 9.38945 7.95897 9.85796 7.74539 10.3736C7.5318 10.8892 7.42188 11.4419 7.42188 12C7.42188 12.5581 7.5318 13.1108 7.74539 13.6264C7.95897 14.142 8.27202 14.6106 8.66667 15.0052C9.06132 15.3999 9.52984 15.7129 10.0455 15.9265C10.5611 16.1401 11.1138 16.25 11.6719 16.25C12.0861 16.25 12.4219 16.5858 12.4219 17C12.4219 17.4142 12.0861 17.75 11.6719 17.75C10.9168 17.75 10.1691 17.6013 9.47145 17.3123C8.77382 17.0233 8.13995 16.5998 7.60601 16.0659C7.07207 15.5319 6.64853 14.8981 6.35957 14.2004C6.0706 13.5028 5.92188 12.7551 5.92188 12C5.92187 11.2449 6.0706 10.4972 6.35957 9.79957C6.64853 9.10195 7.07207 8.46807 7.60601 7.93414C8.13995 7.4002 8.77382 6.97666 9.47144 6.68769Z" fill="black"/>
<path fill-rule="evenodd" clip-rule="evenodd" d="M12.4219 12C12.4219 12.4142 12.0861 12.75 11.6719 12.75L6.67187 12.75C6.25766 12.75 5.92187 12.4142 5.92187 12C5.92187 11.5858 6.25766 11.25 6.67187 11.25L11.6719 11.25C12.0861 11.25 12.4219 11.5858 12.4219 12Z" fill="black"/>
<path fill-rule="evenodd" clip-rule="evenodd" d="M11.6719 6.25L15.0052 6.25C15.667 6.25 16.2963 6.52373 16.7156 6.99038C17.1485 7.47219 17.3515 8.16271 17.1015 8.88167C16.8186 9.69565 16.3546 10.449 15.7377 11.0659C14.6685 12.1351 13.184 12.75 11.6719 12.75C11.2577 12.75 10.9219 12.4142 10.9219 12L10.9219 7C10.9219 6.58579 11.2577 6.25 11.6719 6.25ZM12.4219 7.75L12.4219 11.1815C13.2685 11.0267 14.0672 10.6151 14.6771 10.0052C15.129 9.55328 15.4738 8.99591 15.6847 8.38909C15.737 8.23862 15.7063 8.11145 15.5998 7.99292C15.4797 7.85924 15.2639 7.75 15.0052 7.75L12.4219 7.75Z" fill="black"/>
<path fill-rule="evenodd" clip-rule="evenodd" d="M11.6719 17.75L15.0052 17.75C15.667 17.75 16.2963 17.4763 16.7156 17.0096C17.1485 16.5278 17.3515 15.8373 17.1015 15.1183C16.8186 14.3043 16.3546 13.551 15.7377 12.9341C14.6685 11.8649 13.184 11.25 11.6719 11.25C11.2577 11.25 10.9219 11.5858 10.9219 12L10.9219 17C10.9219 17.4142 11.2577 17.75 11.6719 17.75ZM12.4219 16.25L12.4219 12.8185C13.2685 12.9733 14.0672 13.3849 14.6771 13.9948C15.129 14.4467 15.4738 15.0041 15.6847 15.6109C15.737 15.7614 15.7063 15.8886 15.5998 16.0071C15.4797 16.1408 15.2639 16.25 15.0052 16.25L12.4219 16.25Z" fill="black"/>
</svg>