<svg width="24" height="24" viewBox="0 0 24 24" fill="none" xmlns="http://www.w3.org/2000/svg">
<path fill-rule="evenodd" clip-rule="evenodd" d="M12 3.75C7.44365 3.75 3.75 7.44365 3.75 12C3.75 16.5563 7.44365 20.25 12 20.25C16.5563 20.25 20.25 16.5563 20.25 12C20.25 7.44365 16.5563 3.75 12 3.75ZM2.25 12C2.25 6.61522 6.61522 2.25 12 2.25C17.3848 2.25 21.75 6.61522 21.75 12C21.75 17.3848 17.3848 21.75 12 21.75C6.61522 21.75 2.25 17.3848 2.25 12Z" fill="black"/>
<path fill-rule="evenodd" clip-rule="evenodd" d="M9.53681 7.14963C10.1738 6.8858 10.8565 6.75 11.5459 6.75C11.9601 6.75 12.2959 7.08579 12.2959 7.5C12.2959 7.91421 11.9601 8.25 11.5459 8.25C11.0534 8.25 10.5658 8.347 10.1108 8.53545C9.65586 8.72391 9.24247 9.00013 8.89425 9.34835C8.54603 9.69657 8.26981 10.11 8.08135 10.5649C7.89289 11.0199 7.7959 11.5075 7.7959 12C7.7959 12.4925 7.8929 12.9801 8.08135 13.4351C8.26981 13.89 8.54603 14.3034 8.89425 14.6517C9.24247 14.9999 9.65587 15.2761 10.1108 15.4645C10.5658 15.653 11.0534 15.75 11.5459 15.75C11.9601 15.75 12.2959 16.0858 12.2959 16.5C12.2959 16.9142 11.9601 17.25 11.5459 17.25C10.8565 17.25 10.1738 17.1142 9.53681 16.8504C8.89985 16.5865 8.3211 16.1998 7.83359 15.7123C7.34608 15.2248 6.95937 14.646 6.69553 14.0091C6.43169 13.3721 6.2959 12.6894 6.2959 12C6.2959 11.3106 6.43169 10.6279 6.69553 9.99091C6.95937 9.35395 7.34608 8.7752 7.83359 8.28769C8.32109 7.80018 8.89985 7.41347 9.53681 7.14963Z" fill="black"/>
<path fill-rule="evenodd" clip-rule="evenodd" d="M12.2959 12C12.2959 12.4142 11.9601 12.75 11.5459 12.75L7.0459 12.75C6.63169 12.75 6.2959 12.4142 6.2959 12C6.2959 11.5858 6.63168 11.25 7.0459 11.25L11.5459 11.25C11.9601 11.25 12.2959 11.5858 12.2959 12Z" fill="black"/>
<path fill-rule="evenodd" clip-rule="evenodd" d="M11.5459 6.75L14.5459 6.75C15.1617 6.75 15.7487 7.00458 16.141 7.44122C16.547 7.89301 16.7383 8.54264 16.5034 9.21813C16.2451 9.96107 15.8217 10.6489 15.2582 11.2123C14.2818 12.1887 12.9267 12.75 11.5459 12.75C11.1317 12.75 10.7959 12.4142 10.7959 12L10.7959 7.5C10.7959 7.08579 11.1317 6.75 11.5459 6.75ZM12.2959 8.25L12.2959 11.1723C13.01 11.0239 13.6808 10.6684 14.1975 10.1517C14.596 9.75316 14.9004 9.26133 15.0866 8.72555C15.1238 8.61856 15.1048 8.53226 15.0253 8.44376C14.9321 8.3401 14.7585 8.25 14.5459 8.25L12.2959 8.25Z" fill="black"/>
<path fill-rule="evenodd" clip-rule="evenodd" d="M11.5459 17.25L14.5459 17.25C15.1617 17.25 15.7487 16.9954 16.141 16.5588C16.547 16.107 16.7383 15.4574 16.5034 14.7819C16.2451 14.0389 15.8217 13.3511 15.2582 12.7877C14.2818 11.8113 12.9267 11.25 11.5459 11.25C11.1317 11.25 10.7959 11.5858 10.7959 12L10.7959 16.5C10.7959 16.9142 11.1317 17.25 11.5459 17.25ZM12.2959 15.75L12.2959 12.8277C13.01 12.9761 13.6808 13.3316 14.1975 13.8483C14.596 14.2468 14.9004 14.7387 15.0866 15.2744C15.1238 15.3814 15.1048 15.4677 15.0253 15.5562C14.9321 15.6599 14.7585 15.75 14.5459 15.75L12.2959 15.75Z" fill="black"/>
</svg>