<svg width="24" height="24" viewBox="0 0 24 24" fill="none" xmlns="http://www.w3.org/2000/svg">
<path fill-rule="evenodd" clip-rule="evenodd" d="M13.0026 3.75251C12.4226 3.72388 11.8575 3.94177 11.4469 4.35237L10.9405 3.84599L11.4469 4.35237L4.62638 11.173C3.45787 12.3415 3.45787 14.236 4.62638 15.4045L8.59551 19.3737C8.59552 19.3737 8.59552 19.3737 8.59553 19.3737C9.76404 20.5421 11.6585 20.5421 12.8271 19.3737L19.6476 12.553L20.178 13.0833L19.6476 12.553C20.0582 12.1424 20.2761 11.5774 20.2475 10.9974L19.9986 5.95416L19.9986 5.95414C19.9465 4.89806 19.102 4.05357 18.0459 4.00144L13.0026 3.75251ZM10.3863 3.29172C11.0963 2.58161 12.0735 2.20482 13.0766 2.25433L18.1198 2.50326L18.0828 3.25235L18.1198 2.50326C19.9462 2.59342 21.4067 4.05382 21.4968 5.88023L21.7457 10.9234C21.7952 11.9265 21.4184 12.9036 20.7083 13.6137L13.8877 20.4343L13.8877 20.4344C12.1334 22.1886 9.28917 22.1886 7.53488 20.4343L7.53486 20.4343L3.56571 16.4651L4.09605 15.9348L3.56571 16.4651C1.81143 14.7108 1.81143 11.8666 3.56571 10.1123L3.56571 10.1123L10.3863 3.29172Z" fill="black"/>
<path fill-rule="evenodd" clip-rule="evenodd" d="M11.0818 9.2461C11.496 9.24393 11.8336 9.57795 11.8357 9.99216L11.8438 11.5206L13.1392 10.7413C13.4942 10.5278 13.955 10.6425 14.1685 10.9974C14.382 11.3524 14.2674 11.8132 13.9124 12.0267L12.5858 12.8248L13.9113 13.5788C14.2714 13.7836 14.3972 14.2415 14.1924 14.6016C13.9876 14.9616 13.5297 15.0874 13.1696 14.8826L11.8575 14.1362L11.8656 15.6857C11.8677 16.0999 11.5337 16.4375 11.1195 16.4396C10.7053 16.4418 10.3678 16.1078 10.3656 15.6936L10.3576 14.1651L9.06208 14.9444C8.70714 15.1579 8.24632 15.0433 8.0328 14.6883C7.81929 14.3334 7.93395 13.8726 8.28889 13.659L9.61556 12.861L8.2895 12.1068C7.92944 11.902 7.80357 11.4441 8.00835 11.0841C8.21314 10.724 8.67103 10.5982 9.03108 10.8029L10.3439 11.5496L10.3358 10C10.3336 9.58582 10.6676 9.24828 11.0818 9.2461Z" fill="black"/>
<path fill-rule="evenodd" clip-rule="evenodd" d="M15.9521 7.04869C15.9521 6.50211 16.3951 6.05859 16.9422 6.05859C17.4886 6.05859 17.9324 6.50151 17.9324 7.04869C17.9324 7.59586 17.4887 8.03879 16.9422 8.03879C16.3951 8.03879 15.9521 7.59526 15.9521 7.04869Z" fill="black"/>
</svg>