<svg width="25" height="25" viewBox="0 0 25 25" fill="none" xmlns="http://www.w3.org/2000/svg">
<path fill-rule="evenodd" clip-rule="evenodd" d="M6.10449 3.19531C6.51871 3.19531 6.85449 3.5311 6.85449 3.94531V15.6008C6.85449 17.217 8.1639 18.5265 9.78015 18.5265H21.4356C21.8498 18.5265 22.1856 18.8622 22.1856 19.2765C22.1856 19.6907 21.8498 20.0265 21.4356 20.0265H9.78015C7.33547 20.0265 5.35449 18.0455 5.35449 15.6008V3.94531C5.35449 3.5311 5.69028 3.19531 6.10449 3.19531Z" fill="black"/>
<path fill-rule="evenodd" clip-rule="evenodd" d="M2.68555 6.61719C2.68555 6.20297 3.02133 5.86719 3.43555 5.86719H6.09938C6.51359 5.86719 6.84938 6.20297 6.84938 6.61719C6.84938 7.0314 6.51359 7.36719 6.09938 7.36719H3.43555C3.02133 7.36719 2.68555 7.0314 2.68555 6.61719ZM18.7618 18.5293C19.176 18.5293 19.5118 18.8651 19.5118 19.2793V21.9422C19.5118 22.3564 19.176 22.6922 18.7618 22.6922C18.3475 22.6922 18.0118 22.3564 18.0118 21.9422V19.2793C18.0118 18.8651 18.3475 18.5293 18.7618 18.5293Z" fill="black"/>
<path fill-rule="evenodd" clip-rule="evenodd" d="M9.13672 6.61914C9.13672 6.20493 9.47251 5.86914 9.88672 5.86914H15.085C17.5286 5.86914 19.5077 7.84707 19.5077 10.2919V15.4902C19.5077 15.9044 19.1719 16.2402 18.7577 16.2402C18.3435 16.2402 18.0077 15.9044 18.0077 15.4902V10.2919C18.0077 8.67576 16.7004 7.36914 15.085 7.36914H9.88672C9.47251 7.36914 9.13672 7.03335 9.13672 6.61914Z" fill="black"/>
</svg>