<svg width="24" height="24" viewBox="0 0 24 24" fill="none" xmlns="http://www.w3.org/2000/svg">
<path fill-rule="evenodd" clip-rule="evenodd" d="M4.36127 3.91303C4.65416 3.62014 5.12904 3.62014 5.42193 3.91303L12.533 11.0241C12.8259 11.317 12.8259 11.7919 12.533 12.0848C12.2401 12.3777 11.7653 12.3777 11.4724 12.0848L4.36127 4.97369C4.06838 4.6808 4.06838 4.20592 4.36127 3.91303ZM14.1386 13.6904C14.4315 13.3975 14.9064 13.3975 15.1993 13.6904L19.2511 17.7422V15.1113C19.2511 14.6971 19.5869 14.3613 20.0011 14.3613C20.4153 14.3613 20.7511 14.6971 20.7511 15.1113V19.5116C20.7606 19.6806 20.7132 19.8523 20.6089 19.9953C20.4726 20.1834 20.2511 20.3058 20.0011 20.3058H15.5566C15.1424 20.3058 14.8066 19.97 14.8066 19.5558C14.8066 19.1416 15.1424 18.8058 15.5566 18.8058H18.1934L14.1386 14.751C13.8457 14.4581 13.8457 13.9833 14.1386 13.6904Z" fill="black"/>
<path fill-rule="evenodd" clip-rule="evenodd" d="M19.6424 3.91304C19.9353 4.20594 19.9353 4.68081 19.6424 4.9737L5.81169 18.8038H8.44542C8.85963 18.8038 9.19542 19.1396 9.19542 19.5538C9.19542 19.968 8.85963 20.3038 8.44542 20.3038H4.00098C3.80206 20.3038 3.6113 20.2248 3.47065 20.0841C3.32999 19.9435 3.25098 19.7527 3.25098 19.5538L3.25098 15.1094C3.25098 14.6952 3.58676 14.3594 4.00098 14.3594C4.41519 14.3594 4.75098 14.6952 4.75098 15.1094L4.75098 17.7432L18.5818 3.91302C18.8747 3.62013 19.3495 3.62014 19.6424 3.91304Z" fill="black"/>
</svg>