<svg width="24" height="24" viewBox="0 0 24 24" fill="none" xmlns="http://www.w3.org/2000/svg">
<path fill-rule="evenodd" clip-rule="evenodd" d="M3.91498 4.36029C4.20788 4.0674 4.68275 4.0674 4.97564 4.36029L12.0868 11.4714C12.3796 11.7643 12.3796 12.2392 12.0868 12.5321C11.7939 12.825 11.319 12.825 11.0261 12.5321L3.91498 5.42096C3.62209 5.12806 3.62209 4.65319 3.91498 4.36029ZM13.6923 14.1376C13.9852 13.8447 14.4601 13.8447 14.753 14.1376L18.8077 18.1924V15.5557C18.8077 15.1415 19.1435 14.8057 19.5577 14.8057C19.9719 14.8057 20.3077 15.1415 20.3077 15.5557V20.0001C20.3077 20.2501 20.1854 20.4715 19.9974 20.6078C19.8544 20.7122 19.6827 20.7596 19.5136 20.7501H15.1133C14.6991 20.7501 14.3633 20.4143 14.3633 20.0001C14.3633 19.5859 14.6991 19.2501 15.1133 19.2501H17.7441L13.6923 15.1983C13.3994 14.9054 13.3994 14.4305 13.6923 14.1376Z" fill="black"/>
<path fill-rule="evenodd" clip-rule="evenodd" d="M14.3613 4C14.3613 3.58579 14.6971 3.25 15.1113 3.25H19.5558C19.97 3.25 20.3058 3.58579 20.3058 4V8.44444C20.3058 8.85866 19.97 9.19444 19.5558 9.19444C19.1416 9.19444 18.8058 8.85866 18.8058 8.44444V5.81071L4.97565 19.6414C4.68277 19.9343 4.20789 19.9343 3.91499 19.6415C3.62209 19.3486 3.62208 18.8737 3.91497 18.5808L17.7452 4.75H15.1113C14.6971 4.75 14.3613 4.41421 14.3613 4Z" fill="black"/>
</svg>