<svg width="25" height="24" viewBox="0 0 25 24" fill="none" xmlns="http://www.w3.org/2000/svg">
<path fill-rule="evenodd" clip-rule="evenodd" d="M12.25 3.75C7.69329 3.75 4 7.44329 4 12C4 16.5558 7.69335 20.25 12.25 20.25C16.8067 20.25 20.5 16.5558 20.5 12C20.5 7.44329 16.8067 3.75 12.25 3.75ZM2.5 12C2.5 6.61487 6.86487 2.25 12.25 2.25C17.6351 2.25 22 6.61487 22 12C22 17.3841 17.6352 21.75 12.25 21.75C6.86481 21.75 2.5 17.3841 2.5 12Z" fill="black"/>
<path fill-rule="evenodd" clip-rule="evenodd" d="M12.2504 13.5508C11.6965 13.5508 11.2471 14.0002 11.2471 14.5541V15.3003C11.2471 15.8542 11.6965 16.3036 12.2504 16.3036C12.8043 16.3036 13.2537 15.8542 13.2537 15.3003V14.5541C13.2537 14.0002 12.8043 13.5508 12.2504 13.5508ZM9.74707 14.5541C9.74707 13.1718 10.868 12.0508 12.2504 12.0508C13.6327 12.0508 14.7537 13.1718 14.7537 14.5541V15.3003C14.7537 16.6827 13.6327 17.8036 12.2504 17.8036C10.868 17.8036 9.74707 16.6827 9.74707 15.3003V14.5541Z" fill="black"/>
<path fill-rule="evenodd" clip-rule="evenodd" d="M13.6249 7.28217C13.9178 6.98928 14.3927 6.98928 14.6856 7.28217L15.1676 7.7642L15.6487 7.28312C15.9416 6.99023 16.4165 6.99023 16.7094 7.28312C17.0023 7.57601 17.0023 8.05089 16.7094 8.34378L16.2283 8.82486L16.7123 9.30887C17.0052 9.60177 17.0052 10.0766 16.7123 10.3695C16.4194 10.6624 15.9445 10.6624 15.6516 10.3695L15.1676 9.88552L14.6866 10.3666C14.3937 10.6595 13.9188 10.6595 13.6259 10.3666C13.333 10.0737 13.333 9.59882 13.6259 9.30593L14.107 8.82486L13.6249 8.34283C13.3321 8.04994 13.3321 7.57506 13.6249 7.28217Z" fill="black"/>
<path fill-rule="evenodd" clip-rule="evenodd" d="M7.78901 7.28217C8.0819 6.98928 8.55677 6.98928 8.84967 7.28217L9.33169 7.7642L9.81277 7.28312C10.1057 6.99023 10.5805 6.99023 10.8734 7.28312C11.1663 7.57601 11.1663 8.05089 10.8734 8.34378L10.3924 8.82486L10.8764 9.30887C11.1693 9.60177 11.1693 10.0766 10.8764 10.3695C10.5835 10.6624 10.1086 10.6624 9.81571 10.3695L9.33169 9.88552L8.85062 10.3666C8.55772 10.6595 8.08285 10.6595 7.78996 10.3666C7.49706 10.0737 7.49706 9.59882 7.78996 9.30593L8.27103 8.82486L7.78901 8.34283C7.49611 8.04994 7.49611 7.57506 7.78901 7.28217Z" fill="black"/>
</svg>