<svg width="25" height="24" viewBox="0 0 25 24" fill="none" xmlns="http://www.w3.org/2000/svg">
<path opacity="0.4" d="M12.5 21C17.4709 21 21.5 16.9699 21.5 12C21.5 7.02908 17.4709 3 12.5 3C7.52908 3 3.5 7.02908 3.5 12C3.5 16.9699 7.52908 21 12.5 21Z" stroke="black" stroke-width="1.5" stroke-linecap="round" stroke-linejoin="round"/>
<path fill-rule="evenodd" clip-rule="evenodd" d="M12.5004 17.0536C11.5323 17.0536 10.7471 16.2685 10.7471 15.3003V14.5541C10.7471 13.586 11.5323 12.8008 12.5004 12.8008C13.4685 12.8008 14.2537 13.586 14.2537 14.5541V15.3003C14.2537 16.2685 13.4685 17.0536 12.5004 17.0536Z" stroke="black" stroke-width="1.5" stroke-linecap="round" stroke-linejoin="round"/>
<path d="M16.429 7.81345L14.4062 9.83626M16.432 9.8392L14.4053 7.8125" stroke="black" stroke-width="1.5" stroke-linecap="round" stroke-linejoin="round"/>
<path d="M10.5931 7.81345L8.57029 9.83626M10.596 9.8392L8.56934 7.8125" stroke="black" stroke-width="1.5" stroke-linecap="round" stroke-linejoin="round"/>
</svg>