<svg width="25" height="24" viewBox="0 0 25 24" fill="none" xmlns="http://www.w3.org/2000/svg">
<path fill-rule="evenodd" clip-rule="evenodd" d="M12.25 3.75C7.69329 3.75 4 7.44329 4 12C4 16.5558 7.69335 20.25 12.25 20.25C14.6934 20.25 16.8877 19.1888 18.3994 17.4998C18.6756 17.1912 19.1498 17.1649 19.4584 17.4411C19.7671 17.7174 19.7933 18.1915 19.5171 18.5002C17.7329 20.4936 15.1378 21.75 12.25 21.75C6.86481 21.75 2.5 17.3841 2.5 12C2.5 6.61487 6.86487 2.25 12.25 2.25C15.8601 2.25 19.0107 4.21202 20.6954 7.12448C20.9027 7.48304 20.7802 7.94183 20.4216 8.14922C20.0631 8.35661 19.6043 8.23407 19.3969 7.87552C17.9694 5.40759 15.3031 3.75 12.25 3.75Z" fill="black"/>
<path fill-rule="evenodd" clip-rule="evenodd" d="M12.2502 14.5938C11.3642 14.5938 10.5418 15.0319 9.96479 15.7827C9.71236 16.1111 9.24149 16.1727 8.91309 15.9202C8.58468 15.6678 8.52309 15.1969 8.77552 14.8685C9.6015 13.794 10.8438 13.0938 12.2502 13.0938C13.6566 13.0938 14.8988 13.794 15.7248 14.8685C15.9772 15.1969 15.9156 15.6678 15.5872 15.9202C15.2588 16.1727 14.788 16.1111 14.5355 15.7827C13.9585 15.0319 13.1361 14.5938 12.2502 14.5938Z" fill="black"/>
<path fill-rule="evenodd" clip-rule="evenodd" d="M10.6064 8.17959C11.0014 8.30441 11.2204 8.72577 11.0955 9.12073C10.903 9.72998 10.4573 10.2603 9.80608 10.4973C9.15489 10.7343 8.47258 10.6146 7.93347 10.2716C7.58398 10.0493 7.4809 9.58575 7.70323 9.23626C7.92556 8.88677 8.38911 8.78368 8.7386 9.00601C8.93247 9.12935 9.13051 9.14688 9.29305 9.08773C9.45558 9.02857 9.59602 8.88784 9.66526 8.66874C9.79007 8.27378 10.2114 8.05478 10.6064 8.17959Z" fill="black"/>
<path fill-rule="evenodd" clip-rule="evenodd" d="M13.7713 8.17959C14.1662 8.05478 14.5876 8.27378 14.7124 8.66874C14.7817 8.88784 14.9221 9.02857 15.0846 9.08773C15.2472 9.14688 15.4452 9.12935 15.6391 9.00601C15.9886 8.78369 16.4521 8.88677 16.6744 9.23626C16.8968 9.58575 16.7937 10.0493 16.4442 10.2716C15.9051 10.6146 15.2228 10.7343 14.5716 10.4973C13.9204 10.2603 13.4747 9.72998 13.2821 9.12073C13.1573 8.72577 13.3763 8.30441 13.7713 8.17959Z" fill="black"/>
<path fill-rule="evenodd" clip-rule="evenodd" d="M18.8916 9.8161L18.7068 10.543L18.2061 9.98459C18.3922 9.81769 18.6493 9.75451 18.8916 9.8161ZM18.926 11.4349C18.8761 11.5052 18.8247 11.5847 18.7755 11.6722C18.5651 12.0464 18.4205 12.5202 18.5514 13.0526C18.6745 13.5535 19.1239 13.7872 19.4826 13.699C19.8412 13.6109 20.1311 13.1954 20.008 12.6946C19.8771 12.1622 19.5293 11.8094 19.1694 11.5753C19.0853 11.5206 19.0028 11.4741 18.926 11.4349ZM19.9872 10.3179C20.5466 10.6817 21.2136 11.3152 21.4646 12.3365C21.7634 13.5519 21.0909 14.8483 19.8406 15.1557C18.5903 15.463 17.3935 14.626 17.0947 13.4107C16.8437 12.3894 17.1409 11.5188 17.4679 10.9371C17.632 10.6452 17.8097 10.414 17.947 10.2548C18.0161 10.1747 18.0763 10.1113 18.1212 10.0661C18.1437 10.0434 18.1625 10.0252 18.1769 10.0116L18.1951 9.99461L18.2015 9.98872L18.204 9.98644L18.2051 9.98546L18.2056 9.98501C18.2058 9.9848 18.2061 9.98459 18.7068 10.543C18.8916 9.8161 18.8919 9.81617 18.8922 9.81625L18.8928 9.81642L18.8942 9.81678L18.8975 9.81764L18.9059 9.81987L18.9299 9.82649C18.9489 9.83188 18.9741 9.8393 19.0045 9.84893C19.0653 9.86817 19.148 9.89643 19.2464 9.9354C19.4419 10.0128 19.7064 10.1353 19.9872 10.3179Z" fill="black"/>
</svg>