<svg width="24" height="24" viewBox="0 0 24 24" fill="none" xmlns="http://www.w3.org/2000/svg">
<path fill-rule="evenodd" clip-rule="evenodd" d="M7.15863 20.0381C5.47763 19.4591 4.20763 18.0171 3.84463 16.2741C3.76063 15.8691 3.36463 15.6121 2.95663 15.6931C2.55163 15.7781 2.29163 16.1751 2.37563 16.5801C2.84663 18.8381 4.49263 20.7061 6.67063 21.4561C6.75163 21.4841 6.83363 21.4971 6.91463 21.4971C7.22563 21.4971 7.51663 21.3021 7.62363 20.9911C7.75863 20.6001 7.55063 20.1731 7.15863 20.0381Z" fill="black"/>
<path fill-rule="evenodd" clip-rule="evenodd" d="M16.8432 3.92634C18.5232 4.50534 19.7932 5.94734 20.1562 7.69034C20.2292 8.04434 20.5412 8.28734 20.8892 8.28734C20.9402 8.28734 20.9912 8.28234 21.0432 8.27134C21.4482 8.18734 21.7092 7.78934 21.6242 7.38434C21.1542 5.12634 19.5092 3.25834 17.3312 2.50834C16.9402 2.37234 16.5132 2.58134 16.3782 2.97334C16.2432 3.36434 16.4512 3.79134 16.8432 3.92634Z" fill="black"/>
<path fill-rule="evenodd" clip-rule="evenodd" d="M7.09019 14.9478C7.27635 15.0068 7.46023 14.8633 7.47326 14.6685C7.48755 14.4549 7.51349 14.2413 7.55029 14.0328C8.06029 10.6628 10.7303 7.98277 14.1103 7.47277C14.3301 7.43398 14.5496 7.41609 14.7687 7.40292C14.9564 7.39164 15.0882 7.21358 15.032 7.03412C14.2266 4.4621 11.8242 2.59277 9.00029 2.59277C5.51029 2.59277 2.67029 5.43277 2.67029 8.92277C2.67029 11.7484 4.52923 14.1366 7.09019 14.9478Z" fill="black"/>
<path fill-rule="evenodd" clip-rule="evenodd" d="M15.3203 8.88281C14.9855 8.88281 14.65 8.901 14.3203 8.96281C11.6003 9.37281 9.45033 11.5328 9.04033 14.2428C8.98091 14.5597 8.96033 14.9055 8.96033 15.2428C8.98033 18.7128 11.8103 21.5328 15.2903 21.5328C18.7703 21.5328 21.6103 18.6928 21.6103 15.2028C21.6103 11.7328 18.7903 8.90281 15.3203 8.88281Z" fill="black"/>
</svg>