<svg width="25" height="24" viewBox="0 0 25 24" fill="none" xmlns="http://www.w3.org/2000/svg">
<g opacity="0.4">
<path fill-rule="evenodd" clip-rule="evenodd" d="M7.65863 20.0381C5.97763 19.4591 4.70763 18.0171 4.34463 16.2741C4.26063 15.8691 3.86463 15.6121 3.45663 15.6931C3.05163 15.7781 2.79163 16.1751 2.87563 16.5801C3.34663 18.8381 4.99263 20.7061 7.17063 21.4561C7.25163 21.4841 7.33363 21.4971 7.41463 21.4971C7.72563 21.4971 8.01663 21.3021 8.12363 20.9911C8.25863 20.6001 8.05063 20.1731 7.65863 20.0381Z" fill="black"/>
<path fill-rule="evenodd" clip-rule="evenodd" d="M7.59019 14.9478C7.77635 15.0068 7.96023 14.8633 7.97326 14.6685C7.98755 14.4549 8.01349 14.2413 8.05029 14.0328C8.56029 10.6628 11.2303 7.98277 14.6103 7.47277C14.8301 7.43398 15.0496 7.41609 15.2687 7.40292C15.4564 7.39164 15.5882 7.21358 15.532 7.03412C14.7266 4.4621 12.3242 2.59277 9.50029 2.59277C6.01029 2.59277 3.17029 5.43277 3.17029 8.92277C3.17029 11.7484 5.02923 14.1366 7.59019 14.9478Z" fill="black"/>
</g>
<path fill-rule="evenodd" clip-rule="evenodd" d="M15.8204 8.88281C15.4856 8.88281 15.1501 8.901 14.8204 8.96281C12.1004 9.37281 9.95045 11.5328 9.54045 14.2428C9.48103 14.5597 9.46045 14.9055 9.46045 15.2428C9.48045 18.7128 12.3104 21.5328 15.7904 21.5328C19.2704 21.5328 22.1104 18.6928 22.1104 15.2028C22.1104 11.7328 19.2904 8.90281 15.8204 8.88281Z" fill="black"/>
<path fill-rule="evenodd" clip-rule="evenodd" d="M17.3433 3.92634C19.0233 4.50534 20.2933 5.94734 20.6563 7.69034C20.7293 8.04434 21.0413 8.28734 21.3893 8.28734C21.4403 8.28734 21.4913 8.28234 21.5433 8.27134C21.9483 8.18734 22.2093 7.78934 22.1243 7.38434C21.6543 5.12634 20.0093 3.25834 17.8313 2.50834C17.4403 2.37234 17.0133 2.58134 16.8783 2.97334C16.7433 3.36434 16.9513 3.79134 17.3433 3.92634Z" fill="black"/>
</svg>