<svg width="25" height="24" viewBox="0 0 25 24" fill="none" xmlns="http://www.w3.org/2000/svg">
<path fill-rule="evenodd" clip-rule="evenodd" d="M6.72803 4.13392C7.04374 3.58696 7.62729 3.25 8.25882 3.25H16.2412C16.8727 3.25 17.4563 3.58696 17.772 4.13392L21.7633 11.0489C22.079 11.5958 22.0789 12.2695 21.7631 12.8164L17.7719 19.7278C17.4562 20.2746 16.8727 20.6114 16.2413 20.6114H8.25868C7.62728 20.6114 7.04383 20.2746 6.72808 19.7278L2.73688 12.8164C2.4211 12.2695 2.42103 11.5958 2.7367 11.0489L6.72803 4.13392ZM8.25882 4.75C8.16325 4.75 8.07493 4.80099 8.02716 4.88377L4.03582 11.7988C3.98805 11.8815 3.98806 11.9835 4.03585 12.0662L8.02704 18.9777C8.07483 19.0604 8.16313 19.1114 8.25868 19.1114H16.2413C16.3369 19.1114 16.4252 19.0604 16.473 18.9777L20.4642 12.0662C20.5119 11.9835 20.512 11.8815 20.4642 11.7988L16.4728 4.88377C16.4251 4.80099 16.3368 4.75 16.2412 4.75H8.25882Z" fill="black"/>
<path fill-rule="evenodd" clip-rule="evenodd" d="M7.89814 11.8301C8.14778 11.6442 8.48631 11.6318 8.74888 11.799L10.1874 12.7147C10.4036 12.8524 10.5346 13.091 10.5346 13.3474V14.6717L11.3908 15.4919C11.5385 15.6334 11.622 15.829 11.622 16.0336V16.5258C11.622 16.734 11.5355 16.9328 11.3831 17.0747L10.3338 18.0515C10.195 18.1807 10.0124 18.2526 9.82274 18.2526H8.93753C8.66924 18.2526 8.42139 18.1092 8.28753 17.8767L6.06686 14.0192C5.87722 13.6897 5.96402 13.2705 6.26889 13.0435L7.89814 11.8301ZM8.37945 13.3419L7.69936 13.8484L9.37117 16.7526H9.52768L10.0403 16.2754L9.26578 15.5335C9.1181 15.392 9.03459 15.1964 9.03459 14.9919V13.759L8.37945 13.3419Z" fill="black"/>
<path fill-rule="evenodd" clip-rule="evenodd" d="M15.7478 11.8032C16.0124 11.6309 16.3565 11.6427 16.6086 11.8327L18.234 13.0575C18.5361 13.2851 18.6214 13.702 18.433 14.03L16.2238 17.8761C16.09 18.109 15.842 18.2526 15.5734 18.2526H14.6997C14.5116 18.2526 14.3303 18.1819 14.1919 18.0545L13.1426 17.0892C12.9882 16.9471 12.9004 16.747 12.9004 16.5372V16.045C12.9004 15.8409 12.9835 15.6457 13.1306 15.5043L13.984 14.684V13.3588C13.984 13.1052 14.1122 12.8688 14.3246 12.7304L15.7478 11.8032ZM15.484 13.7653V15.0033C15.484 15.2074 15.4009 15.4026 15.2538 15.544L14.4835 16.2845L14.9922 16.7526H15.1393L16.8025 13.857L16.1259 13.3471L15.484 13.7653Z" fill="black"/>
<path fill-rule="evenodd" clip-rule="evenodd" d="M10.0508 10.5866C10.1767 10.3292 10.4381 10.166 10.7246 10.166H13.7771C14.0665 10.166 14.3301 10.3325 14.4544 10.5938C14.5787 10.8552 14.5415 11.1647 14.3589 11.3892L13.4965 12.4497L13.6138 13.6025C13.6353 13.8136 13.5664 14.0238 13.4242 14.1812C13.282 14.3387 13.0798 14.4285 12.8677 14.4285H11.7194L11.6076 14.432C11.3912 14.4386 11.1825 14.3515 11.0351 14.193C10.8877 14.0344 10.816 13.8199 10.8384 13.6046L10.9598 12.4396L10.1327 11.3766C9.95677 11.1505 9.92501 10.8439 10.0508 10.5866Z" fill="black"/>
<path fill-rule="evenodd" clip-rule="evenodd" d="M8.83863 6.36459C8.92576 6.03569 9.22338 5.80664 9.56362 5.80664H14.9016C15.238 5.80664 15.5332 6.03061 15.6239 6.35455L16.2687 8.65916C16.3319 8.88511 16.2858 9.12762 16.144 9.31454C16.0022 9.50146 15.7811 9.61125 15.5465 9.61125H8.95313C8.72034 9.61125 8.50074 9.50316 8.35877 9.31867C8.21679 9.13419 8.16853 8.89423 8.22814 8.6692L8.83863 6.36459ZM10.1408 7.30664L9.92768 8.11125H14.5578L14.3327 7.30664H10.1408Z" fill="black"/>
</svg>