<svg width="25" height="24" viewBox="0 0 25 24" fill="none" xmlns="http://www.w3.org/2000/svg">
<path opacity="0.4" d="M8.50882 4H16.4912C16.8547 4 17.1907 4.19398 17.3724 4.50884L21.3637 11.4238C21.5455 11.7387 21.5454 12.1265 21.3636 12.4413L17.3724 19.3527C17.1907 19.6675 16.8548 19.8614 16.4913 19.8614H8.50868C8.1452 19.8614 7.80933 19.6675 7.62756 19.3527L3.63637 12.4413C3.45458 12.1265 3.45454 11.7387 3.63626 11.4238L7.62759 4.50884C7.80934 4.19398 8.14527 4 8.50882 4Z" stroke="black" stroke-width="1.5" stroke-linecap="round" stroke-linejoin="round"/>
<path d="M6.9668 13.645L8.59605 12.4316L10.0345 13.3474V14.9919L11.122 16.0336V16.5258L10.0727 17.5025H9.18747L6.9668 13.645Z" stroke="black" stroke-width="1.5" stroke-linecap="round" stroke-linejoin="round"/>
<path d="M13.9004 16.5372V16.045L14.984 15.0033V13.3588L16.4072 12.4316L18.0327 13.6564L15.8234 17.5025H14.9497L13.9004 16.5372Z" stroke="black" stroke-width="1.5" stroke-linecap="round" stroke-linejoin="round"/>
<path d="M11.987 12.2171L10.9746 10.916H14.0271L12.9689 12.2171L13.1177 13.6785H11.9578L11.8344 13.6823L11.987 12.2171Z" stroke="black" stroke-width="1.5" stroke-linecap="round" stroke-linejoin="round"/>
<path d="M9.20312 8.86125L9.81362 6.55664H15.1516L15.7965 8.86125H9.20312Z" stroke="black" stroke-width="1.5" stroke-linecap="round" stroke-linejoin="round"/>
</svg>