<svg width="24" height="24" viewBox="0 0 24 24" fill="none" xmlns="http://www.w3.org/2000/svg">
<path fill-rule="evenodd" clip-rule="evenodd" d="M6.07356 3.75C5.3246 3.75 4.73892 4.39588 4.81197 5.14126L5.99236 17.1869C6.03838 17.6564 6.34135 18.0616 6.77875 18.2384L11.5247 20.1576C11.8296 20.2808 12.1703 20.2808 12.4752 20.1576L17.2211 18.2385C17.6585 18.0616 17.9615 17.6564 18.0075 17.1869L19.1879 5.14126C19.2609 4.39587 18.6752 3.75 17.9263 3.75H6.07356ZM3.31912 5.28755C3.15964 3.66015 4.43836 2.25 6.07356 2.25H17.9263C19.5615 2.25 20.8402 3.66014 20.6807 5.28754L19.5004 17.3332C19.3999 18.3583 18.7384 19.2429 17.7835 19.6291L13.0375 21.5482C12.372 21.8173 11.6279 21.8173 10.9624 21.5482L6.21644 19.6291C5.26147 19.2429 4.59997 18.3583 4.49951 17.3332L3.31912 5.28755Z" fill="black"/>
<path fill-rule="evenodd" clip-rule="evenodd" d="M7.63477 7.4375C7.63477 7.02329 7.97055 6.6875 8.38477 6.6875H15.6145C15.8245 6.6875 16.0249 6.77556 16.167 6.93027C16.309 7.08497 16.3797 7.29215 16.3618 7.5014L15.648 15.8479C15.621 16.1638 15.3982 16.4286 15.0916 16.5093L12.1439 17.285C12.0175 17.3183 11.8846 17.3179 11.7583 17.284L8.87272 16.5083C8.58571 16.4311 8.37133 16.1918 8.32614 15.8981L8.13997 14.6879C8.07698 14.2786 8.35781 13.8956 8.7672 13.8326C9.1766 13.7696 9.55954 14.0505 9.62253 14.4599L9.73434 15.1867L11.9551 15.7836L14.1985 15.1933L14.7976 8.1875H8.38477C7.97055 8.1875 7.63477 7.85171 7.63477 7.4375Z" fill="black"/>
<path fill-rule="evenodd" clip-rule="evenodd" d="M9.77539 11.8438C9.77539 11.4295 10.1112 11.0938 10.5254 11.0938H14.9626C15.3769 11.0938 15.7126 11.4295 15.7126 11.8438C15.7126 12.258 15.3769 12.5938 14.9626 12.5938H10.5254C10.1112 12.5938 9.77539 12.258 9.77539 11.8438Z" fill="black"/>
</svg>