<svg width="24" height="25" viewBox="0 0 24 25" fill="none" xmlns="http://www.w3.org/2000/svg">
<g opacity="0.4">
<path fill-rule="evenodd" clip-rule="evenodd" d="M20.5514 8.54456V11.7265C20.5514 11.8336 20.4943 11.9326 20.4015 11.9862L17.5225 13.6504C17.3225 13.766 17.0724 13.6216 17.0724 13.3906V10.2322C17.0724 10.1248 17.1298 10.0256 17.223 9.97207L20.1692 8.27989C20.3362 8.18396 20.5447 8.27096 20.5503 8.46349C20.5511 8.49022 20.5514 8.51722 20.5514 8.54456Z" fill="black"/>
<path fill-rule="evenodd" clip-rule="evenodd" d="M20.1013 13.4699C20.3013 13.3543 20.5514 13.4987 20.5514 13.7297V15.9097C20.5514 16.7007 20.1444 17.4007 19.4674 17.7957L17.522 18.9151C17.322 19.0301 17.0724 18.8858 17.0724 18.655V15.3938C17.0724 15.2867 17.1295 15.1877 17.2223 15.1341L20.1013 13.4699Z" fill="black"/>
<path fill-rule="evenodd" clip-rule="evenodd" d="M15.4926 16.1358C15.6926 16.0202 15.9426 16.1646 15.9426 16.3956V19.6565C15.9426 19.7637 15.8854 19.8628 15.7926 19.9163L13.0846 21.4788C13.044 21.5019 13.0033 21.5236 12.9625 21.5439C12.786 21.6312 12.5986 21.4889 12.5986 21.292V17.9809C12.5986 17.8738 12.6558 17.7747 12.7486 17.7211L15.4926 16.1358Z" fill="black"/>
<path fill-rule="evenodd" clip-rule="evenodd" d="M15.4926 10.9737C15.6926 10.8581 15.9426 11.0025 15.9426 11.2334V14.3925C15.9426 14.4997 15.8855 14.5987 15.7927 14.6523L13.0487 16.2376C12.8487 16.3532 12.5986 16.2088 12.5986 15.9779V12.8188C12.5986 12.7116 12.6558 12.6126 12.7486 12.559L15.4926 10.9737Z" fill="black"/>
<path fill-rule="evenodd" clip-rule="evenodd" d="M11.3196 12.5583C11.4123 12.6119 11.4695 12.7109 11.4695 12.8181V15.991C11.4695 16.2213 11.2206 16.3657 11.0206 16.2515L8.22061 14.6513C8.12714 14.5979 8.06946 14.4985 8.06946 14.3909V11.1998C8.06946 10.9688 8.31957 10.8245 8.51957 10.9401L11.3196 12.5583Z" fill="black"/>
<path fill-rule="evenodd" clip-rule="evenodd" d="M11.3177 17.71C11.4115 17.7633 11.4695 17.8629 11.4695 17.9709V21.3355C11.4695 21.5221 11.2997 21.6616 11.1289 21.5863C11.0573 21.5547 10.9864 21.5183 10.9155 21.4783L8.21981 19.9268C8.12679 19.8733 8.06946 19.7741 8.06946 19.6668V16.3798C8.06946 16.1498 8.31768 16.0053 8.51767 16.119L11.3177 17.71Z" fill="black"/>
<path fill-rule="evenodd" clip-rule="evenodd" d="M6.78756 15.1345C6.8816 15.1878 6.93973 15.2875 6.93973 15.3956V18.6661C6.93973 18.897 6.68974 19.0414 6.48974 18.9259L4.53373 17.7967C3.85573 17.4007 3.44873 16.7007 3.44873 15.9097V13.7583C3.44873 13.5285 3.69657 13.384 3.89656 13.4973L6.78756 15.1345Z" fill="black"/>
<path fill-rule="evenodd" clip-rule="evenodd" d="M6.78977 9.93778C6.88257 9.99138 6.93973 10.0904 6.93973 10.1976V13.4053C6.93973 13.6355 6.69127 13.7799 6.49127 13.666L3.60027 12.0197C3.50659 11.9663 3.44873 11.8668 3.44873 11.759V8.54439C3.44873 8.50511 3.44997 8.46583 3.45245 8.42667C3.46477 8.23152 3.68115 8.14235 3.85048 8.24015L6.78977 9.93778Z" fill="black"/>
</g>
<path fill-rule="evenodd" clip-rule="evenodd" d="M10.4244 6.83805C10.6233 6.95441 10.6222 7.24215 10.4225 7.35701L7.64275 8.9559C7.54989 9.00931 7.43559 9.00915 7.34287 8.95548L4.38338 7.24218C4.21695 7.14583 4.18186 6.91746 4.33489 6.801C4.39779 6.75313 4.46404 6.70908 4.53369 6.67021L7.20675 5.13018C7.30008 5.07641 7.41508 5.0768 7.50804 5.13121L10.4244 6.83805Z" fill="black"/>
<path fill-rule="evenodd" clip-rule="evenodd" d="M15.0856 4.13992C15.2858 4.25521 15.286 4.54393 15.0861 4.65956L12.1513 6.35683C12.0578 6.41092 11.9424 6.41054 11.8492 6.35582L8.94238 4.64874C8.74429 4.53241 8.7451 4.24571 8.94385 4.1305L10.916 2.98736C11.255 2.79536 11.628 2.69336 12 2.69336C12.373 2.69336 12.746 2.79536 13.085 2.98736L15.0856 4.13992Z" fill="black"/>
<path fill-rule="evenodd" clip-rule="evenodd" d="M19.7125 6.83798C19.8602 6.95493 19.8237 7.17488 19.6602 7.26859L16.6581 8.9895C16.5649 9.04296 16.4501 9.04244 16.3574 8.98813L13.5761 7.35988C13.3774 7.24355 13.3784 6.95601 13.5779 6.84105L16.5272 5.14144C16.6201 5.08791 16.7345 5.08802 16.8273 5.14173L19.4673 6.66993C19.5523 6.71995 19.635 6.77663 19.7125 6.83798Z" fill="black"/>
<path fill-rule="evenodd" clip-rule="evenodd" d="M14.9326 9.47056C15.1312 9.58679 15.1304 9.87412 14.9312 9.98924L12.1838 11.5765C12.091 11.6301 11.9767 11.6302 11.8839 11.5767L9.07425 9.9573C8.87391 9.84182 8.87402 9.55267 9.07445 9.43735L11.849 7.84097C11.9423 7.78728 12.0572 7.78771 12.1501 7.84208L14.9326 9.47056Z" fill="black"/>
</svg>