<svg width="25" height="24" viewBox="0 0 25 24" fill="none" xmlns="http://www.w3.org/2000/svg">
<path fill-rule="evenodd" clip-rule="evenodd" d="M13.0929 3.97567C12.5718 3.67478 11.9292 3.67478 11.408 3.97567L5.72234 7.25779C5.72233 7.2578 5.72236 7.25778 5.72234 7.25779C5.20123 7.55869 4.87988 8.11524 4.87988 8.71702V15.2822C4.87988 15.884 5.20117 16.4405 5.72229 16.7414C5.72231 16.7415 5.72227 16.7414 5.72229 16.7414L11.408 20.0236C11.9288 20.3249 12.5715 20.3253 13.0923 20.024L18.7786 16.7415C18.7786 16.7415 18.7786 16.7415 18.7786 16.7415C19.2997 16.4406 19.621 15.884 19.621 15.2822V8.71702C19.621 8.11522 19.2997 7.55869 18.7786 7.25779L13.0929 3.97567ZM13.8429 2.67664C12.8577 2.1078 11.6433 2.10779 10.6581 2.67661C10.6581 2.6766 10.658 2.67662 10.6581 2.67661L4.97238 5.95873C3.98714 6.52758 3.37988 7.57933 3.37988 8.71702V15.2822C3.37988 16.4199 3.98708 17.4717 4.97232 18.0405L10.6574 21.3223C11.6429 21.8925 12.8578 21.8926 13.8433 21.3224C13.8432 21.3225 13.8434 21.3224 13.8433 21.3224L19.5285 18.0405C20.5138 17.4717 21.121 16.4199 21.121 15.2822V8.71702C21.121 7.57933 20.5138 6.52761 19.5286 5.95876L13.8429 2.67664Z" fill="black"/>
<path fill-rule="evenodd" clip-rule="evenodd" d="M9.76548 13.4358C9.9725 13.7946 9.84948 14.2533 9.49071 14.4603L7.9902 15.3261C7.63143 15.5331 7.17277 15.4101 6.96575 15.0513C6.75873 14.6926 6.88175 14.2339 7.24052 14.0269L8.74103 13.1611C9.0998 12.954 9.55846 13.0771 9.76548 13.4358Z" fill="black"/>
<path fill-rule="evenodd" clip-rule="evenodd" d="M14.7372 13.4358C14.9443 13.0771 15.4029 12.954 15.7617 13.1611L17.2622 14.0269C17.621 14.2339 17.744 14.6926 17.537 15.0513C17.3299 15.4101 16.8713 15.5331 16.5125 15.3261L15.012 14.4603C14.6532 14.2533 14.5302 13.7946 14.7372 13.4358Z" fill="black"/>
<path fill-rule="evenodd" clip-rule="evenodd" d="M12.25 5.89844C12.6642 5.89844 13 6.23422 13 6.64844V8.38108C13 8.79529 12.6642 9.13108 12.25 9.13108C11.8358 9.13108 11.5 8.79529 11.5 8.38108V6.64844C11.5 6.23422 11.8358 5.89844 12.25 5.89844Z" fill="black"/>
<path fill-rule="evenodd" clip-rule="evenodd" d="M12.25 11.2773C12.6642 11.2773 13 11.6131 13 12.0273V20.9462C13 21.3604 12.6642 21.6962 12.25 21.6962C11.8358 21.6962 11.5 21.3604 11.5 20.9462V12.0273C11.5 11.6131 11.8358 11.2773 12.25 11.2773Z" fill="black"/>
<path fill-rule="evenodd" clip-rule="evenodd" d="M20.6235 7.19246C20.8307 7.55117 20.7078 8.00987 20.3491 8.217L12.6252 12.6771C12.2665 12.8842 11.8078 12.7614 11.6006 12.4027C11.3935 12.044 11.5164 11.5853 11.8751 11.3781L19.599 6.91801C19.9577 6.71088 20.4164 6.83376 20.6235 7.19246Z" fill="black"/>
<path fill-rule="evenodd" clip-rule="evenodd" d="M3.87599 7.19349C4.0831 6.83477 4.54179 6.71186 4.90051 6.91896L12.6242 11.3781C12.9829 11.5852 13.1058 12.0439 12.8987 12.4026C12.6916 12.7614 12.2329 12.8843 11.8742 12.6772L4.15052 8.21801C3.7918 8.0109 3.66889 7.55221 3.87599 7.19349Z" fill="black"/>
</svg>