<svg width="24" height="25" viewBox="0 0 24 25" fill="none" xmlns="http://www.w3.org/2000/svg">
<path opacity="0.4" d="M12.0185 21.6501L12.001 21.6501C11.493 21.6501 10.985 21.5181 10.531 21.2531L4.84703 17.9741C3.94303 17.4581 3.37903 16.4831 3.37903 15.4321V8.87112C3.37903 7.81912 3.94303 6.84512 4.85003 6.32712L10.533 3.04912C10.9908 2.78052 11.5049 2.64804 12.0184 2.65143C12.5201 2.65475 13.0213 2.78766 13.469 3.05005L19.153 6.32905C20.058 6.84405 20.621 7.81805 20.621 8.87105V15.4321C20.621 16.4841 20.058 17.4591 19.151 17.9751L13.467 21.2541C13.0202 21.515 12.5196 21.6471 12.0185 21.6501Z" fill="black"/>
<path d="M12.001 21.6494L12.0185 21.6494C12.2646 21.6479 12.5105 21.6153 12.75 21.5516V19.0728C12.75 18.6586 12.4142 18.3228 12 18.3228C11.5858 18.3228 11.25 18.6586 11.25 19.0728V21.5514C11.4959 21.6168 11.7485 21.6494 12.001 21.6494Z" fill="black"/>
<path d="M3.4353 8.29819L5.82628 9.67796C6.18505 9.88499 6.64371 9.76199 6.85074 9.40323C7.05778 9.04447 6.93477 8.5858 6.57601 8.37877L4.09545 6.94731C3.76418 7.33011 3.53508 7.79589 3.4353 8.29819Z" fill="black"/>
<path d="M19.906 6.94727C20.2368 7.32969 20.4656 7.7958 20.565 8.29879L18.1734 9.67894C17.8146 9.88597 17.356 9.76297 17.1489 9.40421C16.9419 9.04544 17.0649 8.58678 17.4237 8.37974L19.906 6.94727Z" fill="black"/>
<path d="M8.5275 10.373C8.73456 10.0143 9.19323 9.89132 9.55198 10.0984L11.9996 11.5111L14.4473 10.0984C14.806 9.89132 15.2647 10.0143 15.4717 10.373C15.6788 10.7318 15.5558 11.1905 15.1971 11.3975L12.75 12.8099V15.6359C12.75 16.0501 12.4142 16.3859 12 16.3859C11.5858 16.3859 11.25 16.0501 11.25 15.6359V12.8103L8.80217 11.3975C8.44342 11.1905 8.32045 10.7318 8.5275 10.373Z" fill="black"/>
</svg>