<svg width="25" height="24" viewBox="0 0 25 24" fill="none" xmlns="http://www.w3.org/2000/svg">
<path fill-rule="evenodd" clip-rule="evenodd" d="M10.6581 2.67661C11.6433 2.10779 12.8577 2.1078 13.8429 2.67664L19.5285 5.95873C20.5138 6.52758 21.121 7.57933 21.121 8.71702V15.2822C21.121 16.4199 20.5138 17.4717 19.5286 18.0405L13.8436 21.3223C13.8435 21.3223 13.8436 21.3222 13.8436 21.3223C12.858 21.8924 11.6429 21.8925 10.6574 21.3223L4.97238 18.0405C3.98714 17.4717 3.37988 16.4199 3.37988 15.2822V8.71702C3.37988 7.57933 3.98708 6.52761 4.97232 5.95876L10.6581 2.67661C10.658 2.67662 10.6581 2.6766 10.6581 2.67661ZM13.0929 3.97567C12.5718 3.67478 11.9292 3.67478 11.408 3.97567L5.72234 7.25779C5.72233 7.2578 5.72236 7.25778 5.72234 7.25779C5.20123 7.55869 4.87988 8.11524 4.87988 8.71702V15.2822C4.87988 15.884 5.20117 16.4405 5.72229 16.7414C5.72231 16.7415 5.72227 16.7414 5.72229 16.7414L11.408 20.0236C11.9288 20.3249 12.5715 20.3253 13.0923 20.024L18.7786 16.7415C18.7786 16.7415 18.7786 16.7415 18.7786 16.7415C19.2997 16.4406 19.621 15.884 19.621 15.2822V8.71702C19.621 8.11522 19.2997 7.55869 18.7786 7.25779L13.0929 3.97567Z" fill="black"/>
<path fill-rule="evenodd" clip-rule="evenodd" d="M12.25 11.2773C12.6642 11.2773 13 11.6131 13 12.0273V20.9462C13 21.3604 12.6642 21.6962 12.25 21.6962C11.8358 21.6962 11.5 21.3604 11.5 20.9462V12.0273C11.5 11.6131 11.8358 11.2773 12.25 11.2773Z" fill="black"/>
<path fill-rule="evenodd" clip-rule="evenodd" d="M3.87601 7.19249C4.08313 6.83378 4.54182 6.71088 4.90054 6.918L12.2501 11.1616L19.599 6.91894C19.9578 6.71184 20.4165 6.83476 20.6236 7.19348C20.8307 7.5522 20.7077 8.01089 20.349 8.21799L12.6251 12.6771C12.3931 12.8111 12.1072 12.8111 11.8751 12.6771L4.1505 8.21702C3.79178 8.0099 3.66889 7.5512 3.87601 7.19249Z" fill="black"/>
</svg>