<svg width="25" height="24" viewBox="0 0 25 24" fill="none" xmlns="http://www.w3.org/2000/svg">
<path d="M9.765 3H19.445C20.58 3 21.5 3.92 21.5 5.055V14.735C21.5 15.545 21.178 16.322 20.605 16.895L17.395 20.105C16.822 20.678 16.045 21 15.235 21H5.555C4.42 21 3.5 20.08 3.5 18.945V9.265C3.5 8.455 3.822 7.678 4.395 7.105L7.605 3.895C8.178 3.322 8.955 3 9.765 3Z" stroke="black" stroke-width="1.5" stroke-linecap="round" stroke-linejoin="round"/>
<path opacity="0.4" d="M8.50098 14.9973L4.10156 20.3968M8.50098 14.9973L21.491 14.9971M8.50098 14.9973L8.5 3.27734" stroke="black" stroke-width="1.5" stroke-linecap="round" stroke-linejoin="round"/>
<path d="M3.56055 8.68766L8.5 8.6875L16.2905 8.68766" stroke="black" stroke-width="1.5" stroke-linecap="round" stroke-linejoin="round"/>
<path d="M16.2891 20.8169V9.08691C16.2891 8.82691 16.3791 8.57691 16.5591 8.37691L20.8791 3.58691" stroke="black" stroke-width="1.5" stroke-linecap="round" stroke-linejoin="round"/>
</svg>