<svg width="25" height="24" viewBox="0 0 25 24" fill="none" xmlns="http://www.w3.org/2000/svg">
<path d="M11.0297 3H9.765C8.955 3 8.178 3.322 7.605 3.895L4.395 7.105C3.822 7.678 3.5 8.455 3.5 9.265V18.945C3.5 20.08 4.42 21 5.555 21H6.98926" stroke="black" stroke-width="1.5" stroke-linecap="round" stroke-linejoin="round"/>
<path d="M21.4995 12.3145V14.7345C21.4995 15.5445 21.1775 16.3215 20.6045 16.8945L17.3945 20.1045C16.8215 20.6775 16.0445 20.9995 15.2345 20.9995H10.3945" stroke="black" stroke-width="1.5" stroke-linecap="round" stroke-linejoin="round"/>
<path d="M21.5005 8.16591V5.055C21.5005 3.92 20.5805 3 19.4455 3H14.6055" stroke="black" stroke-width="1.5" stroke-linecap="round" stroke-linejoin="round"/>
<path d="M5.51766 18.6475L4.09766 20.3975" stroke="black" stroke-width="1.5" stroke-linecap="round" stroke-linejoin="round"/>
<path d="M8.49805 5.18734V3.27734" stroke="black" stroke-width="1.5" stroke-linecap="round" stroke-linejoin="round"/>
<path d="M8.5 7.53027V10.2383" stroke="black" stroke-width="1.5" stroke-linecap="round" stroke-linejoin="round"/>
<path d="M8.5 13V15H10.5" stroke="black" stroke-width="1.5" stroke-linecap="round" stroke-linejoin="round"/>
<path d="M8.5 15L7.23633 16.55" stroke="black" stroke-width="1.5" stroke-linecap="round" stroke-linejoin="round"/>
<path d="M21.4882 14.9971H18.9482M16.2869 15H13.1289" stroke="black" stroke-width="1.5" stroke-linecap="round" stroke-linejoin="round"/>
<path d="M16.2891 20.8172V12.8477" stroke="black" stroke-width="1.5" stroke-linecap="round" stroke-linejoin="round"/>
<path d="M20.8791 3.58594L16.5591 8.37594C16.3891 8.57594 16.2891 8.82594 16.2891 9.08594V9.88609" stroke="black" stroke-width="1.5" stroke-linecap="round" stroke-linejoin="round"/>
<path d="M6.30957 8.6875H16.2888" stroke="black" stroke-width="1.5" stroke-linecap="round" stroke-linejoin="round"/>
</svg>