<svg width="24" height="25" viewBox="0 0 24 25" fill="none" xmlns="http://www.w3.org/2000/svg">
<path fill-rule="evenodd" clip-rule="evenodd" d="M20.5514 9.26572V12.4476C20.5514 12.5547 20.4943 12.6537 20.4015 12.7073L17.5225 14.3715C17.3225 14.4871 17.0724 14.3428 17.0724 14.1118V10.9534C17.0724 10.846 17.1298 10.7467 17.223 10.6932L20.1692 9.00106C20.3362 8.90513 20.5447 8.99212 20.5503 9.18466C20.5511 9.21139 20.5514 9.23839 20.5514 9.26572Z" fill="black"/>
<path fill-rule="evenodd" clip-rule="evenodd" d="M20.1013 14.1911C20.3013 14.0755 20.5514 14.2198 20.5514 14.4508V16.6309C20.5514 17.4219 20.1444 18.1219 19.4674 18.5169L17.522 19.6362C17.322 19.7513 17.0724 19.6069 17.0724 19.3762V16.115C17.0724 16.0079 17.1295 15.9089 17.2223 15.8553L20.1013 14.1911Z" fill="black"/>
<path fill-rule="evenodd" clip-rule="evenodd" d="M15.4926 16.857C15.6926 16.7414 15.9426 16.8857 15.9426 17.1167V20.3777C15.9426 20.4849 15.8854 20.5839 15.7926 20.6375L13.0846 22.1999C13.044 22.2231 13.0033 22.2448 12.9625 22.265C12.786 22.3524 12.5986 22.2101 12.5986 22.0132V18.7021C12.5986 18.5949 12.6558 18.4959 12.7486 18.4423L15.4926 16.857Z" fill="black"/>
<path fill-rule="evenodd" clip-rule="evenodd" d="M15.4926 11.6948C15.6926 11.5793 15.9426 11.7236 15.9426 11.9546V15.1137C15.9426 15.2208 15.8855 15.3198 15.7927 15.3734L13.0487 16.9588C12.8487 17.0743 12.5986 16.93 12.5986 16.699V13.54C12.5986 13.4328 12.6558 13.3338 12.7486 13.2802L15.4926 11.6948Z" fill="black"/>
<path fill-rule="evenodd" clip-rule="evenodd" d="M11.3196 13.2795C11.4123 13.3331 11.4695 13.4321 11.4695 13.5392V16.7122C11.4695 16.9425 11.2206 17.0869 11.0206 16.9726L8.22061 15.3725C8.12714 15.3191 8.06946 15.2197 8.06946 15.112V11.921C8.06946 11.69 8.31957 11.5457 8.51957 11.6613L11.3196 13.2795Z" fill="black"/>
<path fill-rule="evenodd" clip-rule="evenodd" d="M11.3177 18.4312C11.4115 18.4845 11.4695 18.5841 11.4695 18.692V22.0567C11.4695 22.2433 11.2997 22.3828 11.1289 22.3075C11.0573 22.2759 10.9864 22.2394 10.9155 22.1994L8.21981 20.648C8.12679 20.5944 8.06946 20.4953 8.06946 20.388V17.101C8.06946 16.8709 8.31768 16.7265 8.51767 16.8401L11.3177 18.4312Z" fill="black"/>
<path fill-rule="evenodd" clip-rule="evenodd" d="M6.78756 15.8557C6.8816 15.9089 6.93973 16.0086 6.93973 16.1167V19.3872C6.93973 19.6182 6.68974 19.7625 6.48974 19.6471L4.53373 18.5178C3.85573 18.1218 3.44873 17.4218 3.44873 16.6308V14.4795C3.44873 14.2497 3.69657 14.1052 3.89656 14.2185L6.78756 15.8557Z" fill="black"/>
<path fill-rule="evenodd" clip-rule="evenodd" d="M6.78977 10.6589C6.88257 10.7125 6.93973 10.8116 6.93973 10.9187V14.1265C6.93973 14.3566 6.69127 14.5011 6.49127 14.3872L3.60027 12.7409C3.50659 12.6875 3.44873 12.588 3.44873 12.4802V9.26555C3.44873 9.22627 3.44997 9.18699 3.45245 9.14784C3.46477 8.95269 3.68115 8.86352 3.85048 8.96131L6.78977 10.6589Z" fill="black"/>
<path fill-rule="evenodd" clip-rule="evenodd" d="M10.4245 7.55875C10.6233 7.67511 10.6222 7.96285 10.4225 8.07772L7.64278 9.6766C7.54991 9.73002 7.43561 9.72986 7.34289 9.67618L4.38341 7.96289C4.21698 7.86654 4.18188 7.63816 4.33492 7.5217C4.39781 7.47383 4.46406 7.42978 4.53372 7.39092L7.20677 5.85088C7.3001 5.79711 7.4151 5.7975 7.50806 5.85191L10.4245 7.55875Z" fill="black"/>
<path fill-rule="evenodd" clip-rule="evenodd" d="M15.0857 4.86062C15.2858 4.97591 15.286 5.26463 15.0861 5.38026L12.1514 7.07753C12.0578 7.13163 11.9424 7.13124 11.8493 7.07653L8.94241 5.36944C8.74431 5.25311 8.74513 4.96641 8.94388 4.8512L10.916 3.70806C11.255 3.51606 11.628 3.41406 12 3.41406C12.373 3.41406 12.746 3.51606 13.085 3.70806L15.0857 4.86062Z" fill="black"/>
<path fill-rule="evenodd" clip-rule="evenodd" d="M19.7125 7.55869C19.8603 7.67563 19.8237 7.89558 19.6602 7.9893L16.6581 9.7102C16.5649 9.76366 16.4502 9.76314 16.3574 9.70883L13.5761 8.08058C13.3774 7.96425 13.3784 7.67671 13.5779 7.56175L16.5272 5.86215C16.6201 5.80861 16.7345 5.80873 16.8273 5.86244L19.4674 7.39063C19.5524 7.44066 19.635 7.49734 19.7125 7.55869Z" fill="black"/>
<path fill-rule="evenodd" clip-rule="evenodd" d="M14.9327 10.1913C15.1313 10.3075 15.1305 10.5948 14.9312 10.7099L12.1838 12.2972C12.0911 12.3508 11.9768 12.3509 11.8839 12.2974L9.07428 10.678C8.87393 10.5625 8.87404 10.2734 9.07447 10.158L11.849 8.56167C11.9423 8.50799 12.0573 8.50841 12.1502 8.56279L14.9327 10.1913Z" fill="black"/>
</svg>