<svg width="24" height="24" viewBox="0 0 24 24" fill="none" xmlns="http://www.w3.org/2000/svg">
<path d="M10.0032 21.7507C9.59325 21.7507 9.25325 21.4107 9.25325 21.0007V19.3107C5.14325 17.9607 2.64325 13.8607 3.37325 9.5407C4.13325 5.0907 8.24325 1.90069 12.7333 2.28069C17.2333 2.66069 20.7532 6.49066 20.7532 11.0007C20.7532 16.9307 15.9232 21.7507 10.0032 21.7507ZM12.0133 3.75066C8.53325 3.75066 5.45325 6.3007 4.85325 9.7907C4.22325 13.5307 6.51325 17.0707 10.1933 18.0207C10.5233 18.1107 10.7532 18.4007 10.7532 18.7507V20.2206C15.5032 19.8406 19.2532 15.8507 19.2532 11.0007C19.2532 7.26066 16.3333 4.09069 12.6132 3.78069C12.4132 3.76069 12.2133 3.75066 12.0133 3.75066Z" fill="black"/>
<path d="M10.6534 8.87026C10.3734 8.87026 10.1034 8.71033 9.97339 8.44033L9.52339 7.47024C9.34339 7.09024 9.51339 6.65024 9.88339 6.47024C10.2534 6.30024 10.7034 6.46022 10.8834 6.83022L11.3334 7.80032C11.5134 8.18032 11.3434 8.62032 10.9734 8.80032C10.8734 8.85032 10.7634 8.87026 10.6534 8.87026Z" fill="black"/>
<path d="M13.8028 15.6089C13.5228 15.6089 13.2528 15.449 13.1228 15.179L12.6728 14.2089C12.4928 13.8289 12.6628 13.3889 13.0328 13.2089C13.4128 13.0289 13.8528 13.199 14.0328 13.569L14.4828 14.539C14.6628 14.919 14.4928 15.359 14.1228 15.539C14.0228 15.589 13.9128 15.6089 13.8028 15.6089Z" fill="black"/>
<path d="M8.1432 13.5516C7.8632 13.5516 7.5932 13.3915 7.4632 13.1215C7.2932 12.7415 7.4532 12.3015 7.8332 12.1215L8.80321 11.6716C9.17321 11.5016 9.62321 11.6716 9.80321 12.0416C9.97321 12.4216 9.8132 12.8616 9.4332 13.0416L8.4632 13.4915C8.3632 13.5415 8.2532 13.5616 8.1532 13.5616L8.1432 13.5516Z" fill="black"/>
<path d="M10.5437 15.7507C10.4637 15.7507 10.3737 15.7407 10.2837 15.7107C9.8937 15.5707 9.69371 15.1407 9.83371 14.7507L10.2037 13.7407C10.3437 13.3507 10.7737 13.1507 11.1637 13.2907C11.5537 13.4307 11.7537 13.8607 11.6137 14.2507L11.2437 15.2607C11.1337 15.5607 10.8437 15.7507 10.5437 15.7507Z" fill="black"/>
<path d="M13.0828 8.76242C12.9928 8.76242 12.9128 8.75238 12.8228 8.72238C12.4328 8.58238 12.2328 8.15242 12.3728 7.76242L12.7428 6.75241C12.8828 6.36241 13.3128 6.16246 13.7028 6.30246C14.0928 6.44246 14.2928 6.87242 14.1528 7.26242L13.7828 8.27243C13.6728 8.57243 13.3828 8.76242 13.0828 8.76242Z" fill="black"/>
<path d="M16.0029 13.2105C15.9129 13.2105 15.8329 13.2006 15.7429 13.1606L14.7329 12.7906C14.3429 12.6506 14.1429 12.2205 14.2829 11.8305C14.4229 11.4405 14.8529 11.2406 15.2429 11.3806L16.2529 11.7506C16.6429 11.8906 16.8429 12.3205 16.7029 12.7105C16.5929 13.0105 16.3029 13.2007 16.0029 13.2007V13.2105Z" fill="black"/>
<path d="M9.01346 10.6604C8.93346 10.6604 8.84346 10.6504 8.76346 10.6204L7.75346 10.2604C7.36346 10.1204 7.16346 9.69041 7.29346 9.30041C7.43346 8.91041 7.85346 8.71032 8.25346 8.84032L9.26346 9.20043C9.65346 9.34043 9.85346 9.77039 9.72346 10.1604C9.61346 10.4704 9.32346 10.6604 9.01346 10.6604Z" fill="black"/>
</svg>