<svg width="25" height="24" viewBox="0 0 25 24" fill="none" xmlns="http://www.w3.org/2000/svg">
<path d="M6.89893 19.2344H8.22993H16.9119H18.2439C18.6579 19.2344 18.9939 19.5704 18.9939 19.9844C18.9939 20.3984 18.6579 20.7344 18.2439 20.7344H6.89893C6.48493 20.7344 6.14893 20.3984 6.14893 19.9844C6.14893 19.5704 6.48493 19.2344 6.89893 19.2344Z" fill="black"/>
<path opacity="0.4" d="M22.2209 5.44163C22.1789 5.06263 21.8579 4.77562 21.4759 4.77562H19.0129C19.0469 4.21562 19.0499 3.84263 19.0499 3.76562C19.0499 3.48963 18.8269 3.26562 18.5499 3.26562H6.44987C6.31687 3.26562 6.18987 3.31863 6.09587 3.41262C6.00187 3.50563 5.94987 3.63362 5.94987 3.76662C5.94987 3.84363 5.95287 4.21662 5.98687 4.77562H3.52387C3.14187 4.77562 2.82087 5.06263 2.77887 5.44163C2.75887 5.61563 2.33587 9.72262 5.49087 11.7976C5.61787 11.8816 5.75987 11.9216 5.90187 11.9216C6.14587 11.9216 6.38487 11.8026 6.52987 11.5836C6.75687 11.2376 6.66187 10.7726 6.31487 10.5446C4.58887 9.40963 4.28987 7.33862 4.25487 6.27562H6.12787C6.51687 9.40462 7.76487 14.3896 11.7479 14.9536V16.7086L9.40398 16.709C9.18598 16.709 8.99398 16.85 8.92698 17.056L8.22998 19.232H16.912L16.216 17.057C16.15 16.85 15.958 16.709 15.74 16.709L13.2479 16.7086V14.9556C17.2399 14.3996 18.4859 9.40763 18.8739 6.27562H20.7449C20.7099 7.33862 20.4109 9.40963 18.6849 10.5446C18.3379 10.7726 18.2429 11.2376 18.4699 11.5836C18.6149 11.8026 18.8539 11.9216 19.0979 11.9216C19.2399 11.9216 19.3819 11.8816 19.5089 11.7976C22.6639 9.72262 22.2409 5.61563 22.2209 5.44163Z" fill="black"/>
</svg>