<svg width="24" height="24" viewBox="0 0 24 24" fill="none" xmlns="http://www.w3.org/2000/svg">
<path fill-rule="evenodd" clip-rule="evenodd" d="M12.5776 10.5786C12.5776 10.9926 12.2416 11.3286 11.8276 11.3286C11.4136 11.3286 11.0776 10.9926 11.0776 10.5786V7.64062L10.7836 7.72662C10.3866 7.84262 9.96965 7.61563 9.85365 7.21763C9.73765 6.82063 9.96565 6.40363 10.3626 6.28763L11.6176 5.92062C11.8456 5.85362 12.0886 5.89863 12.2776 6.04063C12.4666 6.18263 12.5776 6.40462 12.5776 6.64062V10.5786ZM21.7216 5.44163C21.6796 5.06163 21.3586 4.77462 20.9766 4.77462H18.5136C18.5476 4.21562 18.5506 3.84262 18.5506 3.76562C18.5506 3.48862 18.3266 3.26562 18.0506 3.26562H5.94965C5.81665 3.26562 5.68965 3.31763 5.59565 3.41162C5.50265 3.50562 5.44965 3.63262 5.44965 3.76562C5.44965 3.84262 5.45265 4.21562 5.48765 4.77462H3.02365C2.64165 4.77462 2.32065 5.06163 2.27865 5.44163C2.25865 5.61563 1.83765 9.72162 4.98965 11.7976C5.11665 11.8806 5.26065 11.9206 5.40165 11.9206C5.64565 11.9206 5.88465 11.8026 6.02865 11.5836C6.25665 11.2376 6.16065 10.7726 5.81465 10.5446C4.08965 9.40862 3.78865 7.33763 3.75565 6.27463H5.62765C6.01665 9.40363 7.26465 14.3896 11.2486 14.9536V16.7076H8.90465C8.68665 16.7076 8.49465 16.8486 8.42865 17.0556L7.73165 19.2306H6.39965C5.98565 19.2306 5.64965 19.5666 5.64965 19.9806C5.64965 20.3946 5.98565 20.7306 6.39965 20.7306H17.7446C18.1586 20.7306 18.4946 20.3946 18.4946 19.9806C18.4946 19.5666 18.1586 19.2306 17.7446 19.2306H16.4126L15.7166 17.0556C15.6506 16.8486 15.4576 16.7076 15.2406 16.7076H12.7486V14.9546C16.7396 14.3986 17.9866 9.40663 18.3736 6.27463H20.2446C20.2106 7.33763 19.9096 9.40862 18.1846 10.5446C17.8396 10.7726 17.7436 11.2376 17.9706 11.5836C18.1156 11.8026 18.3546 11.9206 18.5976 11.9206C18.7396 11.9206 18.8826 11.8806 19.0106 11.7976C22.1626 9.72162 21.7416 5.61563 21.7216 5.44163Z" fill="black"/>
</svg>