<svg width="25" height="24" viewBox="0 0 25 24" fill="none" xmlns="http://www.w3.org/2000/svg">
<path fill-rule="evenodd" clip-rule="evenodd" d="M10.4497 8.64896C10.4497 8.13096 10.0277 7.70996 9.5097 7.70996C8.9917 7.70996 8.5697 8.13096 8.5697 8.64896C8.5697 9.16796 8.9917 9.58896 9.5097 9.58896C10.0277 9.58896 10.4497 9.16796 10.4497 8.64896Z" fill="black"/>
<path fill-rule="evenodd" clip-rule="evenodd" d="M9.50931 14.4092C8.99131 14.4092 8.57031 14.8312 8.57031 15.3492C8.57031 15.8682 8.99131 16.2902 9.50931 16.2902C10.0283 16.2902 10.4493 15.8682 10.4493 15.3492C10.4493 14.8312 10.0283 14.4092 9.50931 14.4092Z" fill="black"/>
<path fill-rule="evenodd" clip-rule="evenodd" d="M18.356 15.66C18.66 15.941 18.677 16.416 18.396 16.72C18.249 16.879 18.047 16.96 17.846 16.96C17.664 16.96 17.48 16.893 17.336 16.76L13.309 13.023L11.772 14.448C11.884 14.727 11.95 15.03 11.95 15.349C11.95 16.695 10.855 17.79 9.50898 17.79C8.16498 17.79 7.06998 16.695 7.06998 15.349C7.06998 14.004 8.16498 12.909 9.50898 12.909C9.98898 12.909 10.434 13.053 10.812 13.293L12.206 12L10.811 10.706C10.434 10.946 9.98898 11.09 9.50898 11.09C8.16498 11.09 7.06998 9.995 7.06998 8.649C7.06998 7.305 8.16498 6.21 9.50898 6.21C10.855 6.21 11.95 7.305 11.95 8.649C11.95 8.969 11.884 9.272 11.772 9.552L13.309 10.977L17.336 7.24C17.638 6.959 18.115 6.976 18.396 7.28C18.677 7.584 18.66 8.058 18.356 8.34L14.411 12L18.356 15.66ZM17.05 2.5H8.61598C5.45698 2.5 3.33398 4.722 3.33398 8.03V15.97C3.33398 19.277 5.45698 21.5 8.61598 21.5H17.049C20.21 21.5 22.334 19.277 22.334 15.97V8.03C22.334 4.722 20.21 2.5 17.05 2.5Z" fill="black"/>
</svg>