<svg width="25" height="24" viewBox="0 0 25 24" fill="none" xmlns="http://www.w3.org/2000/svg">
<path opacity="0.4" fill-rule="evenodd" clip-rule="evenodd" d="M17.05 2.5H8.61598C5.45698 2.5 3.33398 4.722 3.33398 8.03V15.97C3.33398 19.277 5.45698 21.5 8.61598 21.5H17.049C20.21 21.5 22.334 19.277 22.334 15.97V8.03C22.334 4.722 20.21 2.5 17.05 2.5Z" fill="black"/>
<path fill-rule="evenodd" clip-rule="evenodd" d="M18.3963 16.7209C18.6773 16.4169 18.6603 15.9419 18.3563 15.6609L14.4113 12.0009L18.3563 8.34094C18.6603 8.05894 18.6773 7.58494 18.3963 7.28094C18.1153 6.97694 17.6383 6.95994 17.3363 7.24094L13.3093 10.9779L11.7723 9.55294C11.8843 9.27294 11.9503 8.96994 11.9503 8.64994C11.9503 7.30594 10.8553 6.21094 9.50931 6.21094C8.16531 6.21094 7.07031 7.30594 7.07031 8.64994C7.07031 9.99594 8.16531 11.0909 9.50931 11.0909C9.98931 11.0909 10.4343 10.9469 10.8113 10.7069L12.2063 12.0009L10.8123 13.2939C10.4343 13.0539 9.98931 12.9099 9.50931 12.9099C8.16531 12.9099 7.07031 14.0049 7.07031 15.3499C7.07031 16.6959 8.16531 17.7909 9.50931 17.7909C10.8553 17.7909 11.9503 16.6959 11.9503 15.3499C11.9503 15.0309 11.8843 14.7279 11.7723 14.4489L13.3093 13.0239L17.3363 16.7609C17.4803 16.8939 17.6643 16.9609 17.8463 16.9609C18.0473 16.9609 18.2493 16.8799 18.3963 16.7209ZM9.50964 14.4101C8.99164 14.4101 8.57064 14.8321 8.57064 15.3501C8.57064 15.8691 8.99164 16.2911 9.50964 16.2911C10.0286 16.2911 10.4496 15.8691 10.4496 15.3501C10.4496 14.8321 10.0286 14.4101 9.50964 14.4101ZM9.51003 7.7109C10.028 7.7109 10.45 8.1319 10.45 8.6499C10.45 9.1689 10.028 9.5899 9.51003 9.5899C8.99203 9.5899 8.57003 9.1689 8.57003 8.6499C8.57003 8.1319 8.99203 7.7109 9.51003 7.7109Z" fill="black"/>
</svg>