<svg width="25" height="24" viewBox="0 0 25 24" fill="none" xmlns="http://www.w3.org/2000/svg">
<path fill-rule="evenodd" clip-rule="evenodd" d="M8.21909 18C7.47609 18 6.87109 17.395 6.87109 16.649C6.87109 15.905 7.47609 15.3 8.21909 15.3C8.96209 15.3 9.56809 15.905 9.56809 16.649C9.56809 17.395 8.96209 18 8.21909 18ZM6.87109 7.35C6.87109 6.605 7.47609 6 8.21909 6C8.96209 6 9.56809 6.605 9.56809 7.35C9.56809 8.095 8.96209 8.7 8.21909 8.7C7.47609 8.7 6.87109 8.095 6.87109 7.35ZM14.9681 11.997L20.4781 6.893C20.8831 6.518 20.9071 5.885 20.5321 5.479C20.1561 5.073 19.5231 5.049 19.1181 5.426L13.4981 10.633L11.3171 8.61C11.4761 8.22 11.5681 7.796 11.5681 7.35C11.5681 5.503 10.0661 4 8.21909 4C6.37309 4 4.87109 5.503 4.87109 7.35C4.87109 9.197 6.37309 10.7 8.21909 10.7C8.89109 10.7 9.51609 10.497 10.0411 10.154L12.0271 11.996L10.0341 13.842C9.51009 13.502 8.88909 13.3 8.21909 13.3C6.37309 13.3 4.87109 14.803 4.87109 16.649C4.87109 18.497 6.37309 20 8.21909 20C10.0661 20 11.5681 18.497 11.5681 16.649C11.5681 16.2 11.4761 15.773 11.3151 15.382L13.4971 13.36L19.1181 18.573C19.3111 18.752 19.5551 18.84 19.7981 18.84C20.0671 18.84 20.3341 18.732 20.5321 18.52C20.9071 18.115 20.8831 17.482 20.4781 17.106L14.9681 11.997Z" fill="black"/>
</svg>