<svg width="25" height="24" viewBox="0 0 25 24" fill="none" xmlns="http://www.w3.org/2000/svg">
<path opacity="0.4" d="M8.11615 3H16.5508C19.499 3 21.334 5.08119 21.334 8.02638V15.9736C21.334 18.9188 19.499 21 16.5499 21H8.11615C5.16804 21 3.33398 18.9188 3.33398 15.9736V8.02638C3.33398 5.08119 5.1768 3 8.11615 3Z" stroke="black" stroke-width="1.5" stroke-linecap="round" stroke-linejoin="round"/>
<path fill-rule="evenodd" clip-rule="evenodd" d="M9.01134 13.6602C9.94442 13.6602 10.7014 14.4171 10.7014 15.3502C10.7014 16.2843 9.94442 17.0403 9.01134 17.0403C8.07826 17.0403 7.32129 16.2843 7.32129 15.3502C7.32129 14.4171 8.07826 13.6602 9.01134 13.6602Z" stroke="black" stroke-width="1.5" stroke-linecap="round" stroke-linejoin="round"/>
<path fill-rule="evenodd" clip-rule="evenodd" d="M9.01134 10.341C9.94442 10.341 10.7014 9.58407 10.7014 8.65099C10.7014 7.71791 9.94442 6.96094 9.01134 6.96094C8.07826 6.96094 7.32129 7.71791 7.32129 8.65099C7.32129 9.58407 8.07826 10.341 9.01134 10.341Z" stroke="black" stroke-width="1.5" stroke-linecap="round" stroke-linejoin="round"/>
<path d="M17.3472 16.2055L10.3301 9.69922" stroke="black" stroke-width="1.5" stroke-linecap="round" stroke-linejoin="round"/>
<path d="M17.3472 7.79297L10.3301 14.2992" stroke="black" stroke-width="1.5" stroke-linecap="round" stroke-linejoin="round"/>
</svg>