<svg width="24" height="25" viewBox="0 0 24 25" fill="none" xmlns="http://www.w3.org/2000/svg">
<path opacity="0.4" d="M4.63049 12.4712V17.6474C4.63049 17.6974 4.63049 17.7574 4.64049 17.8084C4.78049 20.1184 7.96049 21.8974 12.0005 21.8974C16.0405 21.8974 19.2205 20.1184 19.3605 17.8084C19.3705 17.7574 19.3705 17.6974 19.3705 17.6474V12.4658C19.016 14.0261 16.0891 15.6201 11.9999 15.6201C7.91536 15.6201 4.99048 14.0297 4.63049 12.4712Z" fill="black"/>
<path d="M19.3704 12.4663V6.66288C19.3704 6.66149 19.3709 6.6601 19.3713 6.65861C19.3719 6.65688 19.3724 6.65503 19.3724 6.65288C19.3724 6.62645 19.3696 6.60001 19.3667 6.57357C19.3645 6.55302 19.3623 6.53243 19.3614 6.51188C19.3614 6.50939 19.3612 6.50715 19.3609 6.50491C19.3609 6.50408 19.3608 6.50323 19.3607 6.50239C19.3605 6.50094 19.3604 6.49946 19.3604 6.49788C19.2974 5.44388 18.6064 4.45888 17.3854 3.71388C17.0304 3.49488 16.5694 3.60988 16.3544 3.96288C16.1394 4.31588 16.2504 4.77688 16.6034 4.99288C17.0754 5.28188 17.8644 5.87888 17.8714 6.64388L17.8704 6.64788C17.8704 7.95788 15.4604 9.39788 12.0004 9.39788C8.54044 9.39788 6.13044 7.95788 6.13044 6.64788C6.13044 6.64688 6.12994 6.64563 6.12944 6.64438C6.12894 6.64313 6.12844 6.64188 6.12844 6.64088C6.13744 5.87688 6.92444 5.28088 7.39544 4.99288C7.74944 4.77688 7.86144 4.31588 7.64444 3.96288C7.43144 3.60988 6.96944 3.49488 6.61444 3.71388C5.33344 4.49588 4.62744 5.53988 4.62744 6.65288C4.62744 6.65538 4.62819 6.65788 4.62894 6.66038C4.62969 6.66288 4.63044 6.66538 4.63044 6.66788V12.4716C4.99043 14.0301 7.91531 15.6205 11.9998 15.6205C16.089 15.6205 19.0159 14.0265 19.3704 12.4663Z" fill="black"/>
<path d="M13.6102 4.0152C12.5912 3.8672 11.4042 3.8672 10.3792 4.0152C9.98024 4.0722 9.58924 3.7912 9.52924 3.3802C9.47024 2.9712 9.75424 2.5902 10.1642 2.5312C11.3302 2.3612 12.6652 2.3602 13.8272 2.5312C14.2372 2.5912 14.5212 2.9722 14.4612 3.3812C14.4062 3.7542 14.0862 4.0232 13.7202 4.0232C13.6842 4.0232 13.6472 4.0202 13.6102 4.0152Z" fill="black"/>
</svg>