<svg width="25" height="24" viewBox="0 0 25 24" fill="none" xmlns="http://www.w3.org/2000/svg">
<path fill-rule="evenodd" clip-rule="evenodd" d="M5.62695 5.75C6.04117 5.75 6.37695 6.08579 6.37695 6.5V17.5005C6.37695 17.9147 6.04117 18.2505 5.62695 18.2505C5.21274 18.2505 4.87695 17.9147 4.87695 17.5005V6.5C4.87695 6.08579 5.21274 5.75 5.62695 5.75Z" fill="black"/>
<path fill-rule="evenodd" clip-rule="evenodd" d="M18.873 5.75C19.2873 5.75 19.623 6.08579 19.623 6.5V17.5005C19.623 17.9147 19.2873 18.2505 18.873 18.2505C18.4588 18.2505 18.123 17.9147 18.123 17.5005V6.5C18.123 6.08579 18.4588 5.75 18.873 5.75Z" fill="black"/>
<path fill-rule="evenodd" clip-rule="evenodd" d="M7.91709 15.6891C6.81285 16.2727 6.37695 16.9497 6.37695 17.5007C6.37695 18.0517 6.81285 18.7288 7.91709 19.3123C8.98745 19.8779 10.518 20.2505 12.2497 20.2505C13.9814 20.2505 15.5119 19.8779 16.5823 19.3123C17.6865 18.7288 18.1224 18.0517 18.1224 17.5007C18.1224 16.9497 17.6865 16.2727 16.5823 15.6891C15.5119 15.1235 13.9814 14.751 12.2497 14.751C10.518 14.751 8.98745 15.1235 7.91709 15.6891ZM7.21626 14.3629C8.54284 13.6619 10.3237 13.251 12.2497 13.251C14.1757 13.251 15.9565 13.6619 17.2831 14.3629C18.5758 15.046 19.6224 16.1189 19.6224 17.5007C19.6224 18.8826 18.5758 19.9554 17.2831 20.6385C15.9565 21.3395 14.1757 21.7505 12.2497 21.7505C10.3237 21.7505 8.54284 21.3395 7.21626 20.6385C5.92357 19.9554 4.87695 18.8826 4.87695 17.5007C4.87695 16.1189 5.92357 15.046 7.21626 14.3629Z" fill="black"/>
<path fill-rule="evenodd" clip-rule="evenodd" d="M7.91709 4.68816C6.81285 5.27169 6.37695 5.94872 6.37695 6.49974C6.37695 7.05077 6.81285 7.7278 7.91709 8.31133C8.98745 8.87696 10.518 9.24949 12.2497 9.24949C13.9814 9.24949 15.5119 8.87696 16.5823 8.31133C17.6865 7.7278 18.1224 7.05077 18.1224 6.49974C18.1224 5.94872 17.6865 5.27169 16.5823 4.68816C15.5119 4.12253 13.9814 3.75 12.2497 3.75C10.518 3.75 8.98745 4.12253 7.91709 4.68816ZM7.21626 3.36195C8.54284 2.66092 10.3237 2.25 12.2497 2.25C14.1757 2.25 15.9565 2.66092 17.2831 3.36195C18.5758 4.04507 19.6224 5.11791 19.6224 6.49974C19.6224 7.88158 18.5758 8.95442 17.2831 9.63754C15.9565 10.3386 14.1757 10.7495 12.2497 10.7495C10.3237 10.7495 8.54284 10.3386 7.21626 9.63754C5.92357 8.95442 4.87695 7.88158 4.87695 6.49974C4.87695 5.11791 5.92357 4.04507 7.21626 3.36195Z" fill="black"/>
</svg>