<svg width="25" height="24" viewBox="0 0 25 24" fill="none" xmlns="http://www.w3.org/2000/svg">
<path opacity="0.4" d="M5.87695 6.5V17.5005" stroke="black" stroke-width="1.5" stroke-linecap="round" stroke-linejoin="round"/>
<path opacity="0.4" d="M19.123 6.5V17.5005" stroke="black" stroke-width="1.5" stroke-linecap="round" stroke-linejoin="round"/>
<path fill-rule="evenodd" clip-rule="evenodd" d="M19.1224 17.5007C19.1224 19.4336 16.1574 21.0005 12.4997 21.0005C8.84197 21.0005 5.87695 19.4336 5.87695 17.5007C5.87695 15.5679 8.84197 14.001 12.4997 14.001C16.1574 14.001 19.1224 15.5679 19.1224 17.5007Z" stroke="black" stroke-width="1.5" stroke-linecap="round" stroke-linejoin="round"/>
<path fill-rule="evenodd" clip-rule="evenodd" d="M19.1224 6.49974C19.1224 8.4326 16.1574 9.99949 12.4997 9.99949C8.84197 9.99949 5.87695 8.4326 5.87695 6.49974C5.87695 4.56689 8.84197 3 12.4997 3C16.1574 3 19.1224 4.56689 19.1224 6.49974Z" stroke="black" stroke-width="1.5" stroke-linecap="round" stroke-linejoin="round"/>
</svg>