<svg width="25" height="24" viewBox="0 0 25 24" fill="none" xmlns="http://www.w3.org/2000/svg">
<path opacity="0.4" fill-rule="evenodd" clip-rule="evenodd" d="M12.5 2.50488C7.262 2.50488 3 6.76688 3 12.0049C3 17.2429 7.262 21.5049 12.5 21.5049C17.738 21.5049 22 17.2429 22 12.0049C22 6.76688 17.738 2.50488 12.5 2.50488Z" fill="black"/>
<path fill-rule="evenodd" clip-rule="evenodd" d="M17.6451 12.301C17.638 12.3548 17.6309 12.4088 17.6259 12.4634H17.8839C18.2979 12.4634 18.6339 12.7994 18.6339 13.2134C18.6339 13.6274 18.2979 13.9634 17.8839 13.9634H17.2499C16.5159 15.6084 14.8859 16.7324 12.9379 16.7324H9.75195C9.33795 16.7324 9.00195 16.3974 9.00195 15.9824V13.9634H8.22095C7.80695 13.9634 7.47095 13.6274 7.47095 13.2134C7.47095 12.7994 7.80695 12.4634 8.22095 12.4634H9.00195V11.5434H8.22095C7.80695 11.5434 7.47095 11.2074 7.47095 10.7934C7.47095 10.3794 7.80695 10.0434 8.22095 10.0434H9.00195V8.02344C9.00195 7.60844 9.33795 7.27344 9.75195 7.27344H12.9379C14.8859 7.27344 16.5169 8.39844 17.2499 10.0434H17.8839C18.2979 10.0434 18.6339 10.3794 18.6339 10.7934C18.6339 11.2074 18.2979 11.5434 17.8839 11.5434H17.6259C17.6309 11.5981 17.638 11.652 17.6451 11.7059C17.6581 11.8038 17.6709 11.9015 17.6709 12.0034C17.6709 12.1053 17.6581 12.2031 17.6451 12.301ZM10.5019 8.77297H12.9379C14.0039 8.77297 14.9239 9.27097 15.5089 10.044H10.5019V8.77297ZM10.5019 12.4632H16.1259L16.1327 12.4146C16.1518 12.2797 16.1709 12.1443 16.1709 12.0032C16.1709 11.8621 16.1518 11.7266 16.1327 11.5918L16.1259 11.5432H10.5019V12.4632ZM12.9379 15.2329H10.5019V13.9629H15.5089C14.9229 14.7349 14.0029 15.2329 12.9379 15.2329Z" fill="black"/>
</svg>