<svg width="25" height="25" viewBox="0 0 25 25" fill="none" xmlns="http://www.w3.org/2000/svg">
<path fill-rule="evenodd" clip-rule="evenodd" d="M5.30371 6.30405C4.08074 7.52702 3.49976 9.57319 3.49976 13.0001C3.49976 16.427 4.08074 18.4732 5.30371 19.6961C6.52668 20.9191 8.57285 21.5001 11.9998 21.5001C15.4267 21.5001 17.4728 20.9191 18.6958 19.6961C19.9188 18.4732 20.4998 16.427 20.4998 13.0001C20.4998 9.57319 19.9188 7.52702 18.6958 6.30405C17.4728 5.08107 15.4267 4.50009 11.9998 4.50009C8.57285 4.50009 6.52668 5.08107 5.30371 6.30405ZM4.24305 5.24339C5.91083 3.57561 8.48966 3.00009 11.9998 3.00009C15.5099 3.00009 18.0887 3.57561 19.7565 5.24339C21.4242 6.91116 21.9998 9.48999 21.9998 13.0001C21.9998 16.5102 21.4242 19.089 19.7565 20.7568C18.0887 22.4246 15.5099 23.0001 11.9998 23.0001C8.48966 23.0001 5.91083 22.4246 4.24305 20.7568C2.57527 19.089 1.99976 16.5102 1.99976 13.0001C1.99976 9.48999 2.57527 6.91116 4.24305 5.24339Z" fill="black"/>
<path fill-rule="evenodd" clip-rule="evenodd" d="M11.9998 8.35498C12.414 8.35498 12.7498 8.69077 12.7498 9.10498V13C12.7498 13.4142 12.414 13.75 11.9998 13.75C11.5855 13.75 11.2498 13.4142 11.2498 13V9.10498C11.2498 8.69077 11.5855 8.35498 11.9998 8.35498Z" fill="black"/>
<path fill-rule="evenodd" clip-rule="evenodd" d="M11.2454 16.5C11.2454 16.0858 11.5811 15.75 11.9954 15.75H12.0044C12.4186 15.75 12.7544 16.0858 12.7544 16.5C12.7544 16.9142 12.4186 17.25 12.0044 17.25H11.9954C11.5811 17.25 11.2454 16.9142 11.2454 16.5Z" fill="black"/>
</svg>