<svg width="25" height="26" viewBox="0 0 25 26" fill="none" xmlns="http://www.w3.org/2000/svg">
<path fill-rule="evenodd" clip-rule="evenodd" d="M12.25 4.53467C7.55521 4.53467 3.75 8.33988 3.75 13.0347C3.75 17.7285 7.55527 21.5347 12.25 21.5347C16.9438 21.5347 20.75 17.7285 20.75 13.0347C20.75 8.33993 16.9438 4.53467 12.25 4.53467ZM2.25 13.0347C2.25 7.51145 6.72679 3.03467 12.25 3.03467C17.7722 3.03467 22.25 7.5114 22.25 13.0347C22.25 18.5569 17.7722 23.0347 12.25 23.0347C6.72673 23.0347 2.25 18.5568 2.25 13.0347Z" fill="black"/>
<path fill-rule="evenodd" clip-rule="evenodd" d="M12.9951 8.48877V14.4078H11.4951V8.48877H12.9951Z" fill="black"/>
<path fill-rule="evenodd" clip-rule="evenodd" d="M11.495 16.0806H13.005V17.5806H11.495V16.0806Z" fill="black"/>
</svg>