<svg width="24" height="24" viewBox="0 0 24 24" fill="none" xmlns="http://www.w3.org/2000/svg">
<path d="M18.8049 17.11V12.8888C18.8049 8.52437 15.2668 4.98633 10.9024 4.98633C6.53804 4.98633 3 8.52437 3 12.8888V17.11C2.99999 18.0264 3.36313 18.9055 4.00989 19.5547C4.65665 20.2039 5.53433 20.5704 6.45073 20.5739H15.341C16.2597 20.5739 17.1407 20.2089 17.7903 19.5593C18.4399 18.9097 18.8049 18.0287 18.8049 17.11Z" stroke="black" stroke-width="1.5" stroke-linecap="round" stroke-linejoin="round"/>
<path d="M21.0007 5.75586L19.6836 7.07293" stroke="black" stroke-width="1.5" stroke-linecap="round" stroke-linejoin="round"/>
<path d="M17.5999 4L17.4199 4.93689" stroke="black" stroke-width="1.5" stroke-linecap="round" stroke-linejoin="round"/>
<path d="M7.61038 14.0977C8.70147 14.0977 9.58599 13.2132 9.58599 12.1221C9.58599 11.031 8.70147 10.1465 7.61038 10.1465C6.51928 10.1465 5.63477 11.031 5.63477 12.1221C5.63477 13.2132 6.51928 14.0977 7.61038 14.0977Z" stroke="black" stroke-width="1.5" stroke-linecap="round" stroke-linejoin="round"/>
<path d="M14.1944 14.0977C15.2855 14.0977 16.17 13.2132 16.17 12.1221C16.17 11.031 15.2855 10.1465 14.1944 10.1465C13.1033 10.1465 12.2188 11.031 12.2188 12.1221C12.2188 13.2132 13.1033 14.0977 14.1944 14.0977Z" stroke="black" stroke-width="1.5" stroke-linecap="round" stroke-linejoin="round"/>
</svg>