<svg width="25" height="24" viewBox="0 0 25 24" fill="none" xmlns="http://www.w3.org/2000/svg">
<path d="M13.599 3V4.6073M3.05487 13.5443H4.66216M6.14333 6.08808L7.27983 7.22459M6.14333 21L7.27983 19.8635M19.9182 7.22515L21.0547 6.08864" stroke="black" stroke-width="1.5" stroke-linecap="round" stroke-linejoin="round"/>
<path fill-rule="evenodd" clip-rule="evenodd" d="M8.03528 15.1145C8.00612 15.099 7.97138 15.1257 7.98068 15.158C8.68113 17.6086 10.9388 19.4022 13.6053 19.4022C16.8395 19.4022 19.457 16.7785 19.457 13.5505C19.457 10.8778 17.6696 8.62568 15.2184 7.92586C15.1867 7.91655 15.1601 7.95129 15.1756 7.98045C16.2334 9.97073 15.9176 12.507 14.24 14.1852C12.5618 15.8628 10.0256 16.1786 8.03528 15.1145Z" stroke="black" stroke-width="1.5" stroke-linecap="round" stroke-linejoin="round"/>
<path d="M9.45707 9.40225C7.16944 11.6899 7.16944 15.3989 9.45707 17.6865C11.7447 19.9741 15.4537 19.9741 17.7413 17.6865C20.0289 15.3989 20.0289 11.6899 17.7413 9.40225C15.4537 7.11462 11.7447 7.11462 9.45707 9.40225Z" stroke="black" stroke-width="1.5" stroke-linecap="round" stroke-linejoin="round"/>
</svg>