<svg width="25" height="24" viewBox="0 0 25 24" fill="none" xmlns="http://www.w3.org/2000/svg">
<path d="M6.64078 21.7551C6.45078 21.7551 6.26078 21.6851 6.11078 21.5351C5.82078 21.2451 5.82078 20.7651 6.11078 20.4751L7.25076 19.3351C7.54076 19.0451 8.02076 19.0451 8.31076 19.3351C8.60076 19.6251 8.60076 20.1051 8.31076 20.3951L7.17078 21.5351C7.02078 21.6851 6.83078 21.7551 6.64078 21.7551ZM5.16077 14.2951H3.55078C3.14078 14.2951 2.80078 13.9551 2.80078 13.5451C2.80078 13.1351 3.14078 12.7951 3.55078 12.7951H5.16077C5.57077 12.7951 5.91077 13.1351 5.91077 13.5451C5.91077 13.9551 5.57077 14.2951 5.16077 14.2951ZM20.4208 7.97513C20.2308 7.97513 20.0408 7.90513 19.8908 7.75513C19.6008 7.46513 19.6008 6.98513 19.8908 6.69513L21.0308 5.55511C21.3208 5.26511 21.8008 5.26511 22.0908 5.55511C22.3808 5.84511 22.3808 6.32511 22.0908 6.61511L20.9508 7.75513C20.8008 7.90513 20.6108 7.97513 20.4208 7.97513ZM7.78076 7.97513C7.59076 7.97513 7.40076 7.90513 7.25076 7.75513L6.11078 6.61511C5.82078 6.32511 5.82078 5.84511 6.11078 5.55511C6.40078 5.26511 6.88078 5.26511 7.17078 5.55511L8.31076 6.69513C8.60076 6.98513 8.60076 7.46513 8.31076 7.75513C8.16076 7.90513 7.97076 7.97513 7.78076 7.97513ZM14.1008 5.3551C13.6908 5.3551 13.3508 5.0151 13.3508 4.6051V2.99512C13.3508 2.58512 13.6908 2.24512 14.1008 2.24512C14.5108 2.24512 14.8508 2.58512 14.8508 2.99512V4.6051C14.8508 5.0151 14.5108 5.3551 14.1008 5.3551Z" fill="black"/>
<path d="M14.1009 20.1558C11.1709 20.1558 8.56088 18.1858 7.75088 15.3658C7.67088 15.0758 7.77088 14.7358 8.00088 14.5458C8.23088 14.3558 8.61088 14.3158 8.88088 14.4558C10.6209 15.3858 12.8009 15.0558 14.2009 13.6558C15.6009 12.2558 15.9309 10.0658 15.0009 8.33579C14.8609 8.06579 14.8909 7.7058 15.0809 7.4758C15.2709 7.2358 15.6209 7.12579 15.9109 7.21579C18.7209 8.01579 20.6909 10.6258 20.6909 13.5558C20.6909 17.1958 17.7309 20.1558 14.0909 20.1558H14.1009ZM9.86089 16.3758C10.7909 17.7758 12.3809 18.6558 14.1009 18.6558C16.9109 18.6558 19.2009 16.3658 19.2009 13.5558C19.2009 11.8258 18.3109 10.2358 16.9209 9.30579C17.2909 11.2358 16.7009 13.2858 15.2709 14.7258C13.8409 16.1558 11.7909 16.7458 9.86089 16.3758Z" fill="black"/>
<path d="M14.0909 20.1554C12.3209 20.1554 10.671 19.4654 9.42096 18.2154C8.17096 16.9654 7.48096 15.3054 7.48096 13.5454C7.48096 11.7854 8.17096 10.1254 9.42096 8.87543C12.001 6.29543 16.191 6.29543 18.761 8.87543C20.011 10.1254 20.701 11.7854 20.701 13.5454C20.701 15.3054 20.011 16.9654 18.761 18.2154C17.511 19.4654 15.8509 20.1554 14.0909 20.1554ZM10.481 9.93543C9.52096 10.9054 8.98096 12.1854 8.98096 13.5454C8.98096 14.9054 9.51096 16.1954 10.481 17.1554C11.451 18.1154 12.7309 18.6554 14.0909 18.6554C15.4509 18.6554 16.741 18.1254 17.701 17.1554C18.661 16.1854 19.201 14.9054 19.201 13.5454C19.201 12.1854 18.671 10.8954 17.701 9.93543C15.711 7.94543 12.471 7.94543 10.481 9.93543Z" fill="black"/>
</svg>