<svg width="25" height="24" viewBox="0 0 25 24" fill="none" xmlns="http://www.w3.org/2000/svg">
<path d="M12.6143 21.7229C10.0843 21.7229 7.58427 20.7529 5.72427 18.8829C3.86427 17.0129 2.87427 14.6029 2.87427 12.0029C2.87427 9.40288 3.88427 6.96294 5.72427 5.12294C8.77427 2.06294 13.5443 1.39293 17.3143 3.49293C17.5743 3.64293 17.7543 3.9729 17.7243 4.2729C17.6943 4.6029 17.4743 4.87292 17.1543 4.97291C14.1043 5.91291 11.9643 8.80288 11.9643 12.0029C11.9643 15.2129 14.1043 18.1029 17.1543 19.0229C17.4443 19.1129 17.6843 19.4029 17.7243 19.7029C17.7643 20.0029 17.5843 20.3529 17.3243 20.5029C15.8543 21.3229 14.2243 21.7229 12.6143 21.7229ZM12.6143 3.78291C10.4743 3.78291 8.36427 4.61294 6.78427 6.18294C5.20427 7.75294 4.37427 9.80288 4.37427 12.0029C4.37427 14.2029 5.22427 16.2729 6.78427 17.8229C8.99427 20.0329 12.2743 20.7629 15.1743 19.8129C12.3443 18.3029 10.4743 15.2929 10.4743 12.0029C10.4743 8.71288 12.3443 5.70294 15.1643 4.18294C14.3343 3.91294 13.4643 3.78291 12.6143 3.78291ZM16.5843 4.80293C16.5843 4.80293 16.5943 4.80294 16.6043 4.81294C16.6043 4.81294 16.5943 4.81293 16.5843 4.80293Z" fill="black"/>
<path d="M18.9743 19.0525C18.7843 19.0525 18.5943 18.9825 18.4443 18.8325C18.1543 18.5425 18.1543 18.0625 18.4443 17.7725C19.9943 16.2225 20.8543 14.1525 20.8543 11.9625C20.8543 9.7725 20.0043 7.7025 18.4443 6.1525C18.1543 5.8625 18.1543 5.3825 18.4443 5.0925C18.7343 4.8025 19.2143 4.8025 19.5043 5.0925C21.3443 6.9325 22.3543 9.3725 22.3543 11.9625C22.3543 14.5525 21.3443 17.0025 19.5043 18.8325C19.3543 18.9825 19.1643 19.0525 18.9743 19.0525Z" fill="black"/>
</svg>