<svg width="25" height="24" viewBox="0 0 25 24" fill="none" xmlns="http://www.w3.org/2000/svg">
<path d="M17.3912 4.62549C15.9301 3.60114 14.1506 3 12.2305 3C7.25955 3 3.23047 7.02908 3.23047 12C3.23047 16.9699 7.25955 21 12.2305 21C17.2014 21 21.2305 16.9699 21.2305 12C21.2305 10.2247 20.7166 8.56952 19.8294 7.1751" stroke="black" stroke-width="1.5" stroke-linecap="round" stroke-linejoin="round"/>
<path d="M12.2305 3V5.47427M12.2305 21V18.7491M21.2305 12H18.9805M3.23047 12H5.70571" stroke="black" stroke-width="1.5" stroke-linecap="round" stroke-linejoin="round"/>
<path d="M12.231 9.25586C13.1855 10.0362 14.0826 11.4022 14.2791 12.2808C14.4757 13.1594 14.0194 14.8874 12.231 14.8874C10.4427 14.8874 9.98638 13.1594 10.1829 12.2808C10.2439 12.0084 10.3722 11.6891 10.5486 11.3549" stroke="black" stroke-width="1.5" stroke-linecap="round" stroke-linejoin="round"/>
</svg>