<svg width="25" height="24" viewBox="0 0 25 24" fill="none" xmlns="http://www.w3.org/2000/svg">
<path d="M5.25293 6.63192C5.67324 6.05886 6.16069 5.53931 6.70456 5.08008" stroke="black" stroke-width="1.5" stroke-linecap="round" stroke-linejoin="round"/>
<path d="M3.80129 9.5459C3.53859 10.5091 3.42476 11.5278 3.50259 12.5795" stroke="black" stroke-width="1.5" stroke-linecap="round" stroke-linejoin="round"/>
<path d="M7.32629 19.3619C5.97001 18.424 4.88517 17.1183 4.20703 15.5791" stroke="black" stroke-width="1.5" stroke-linecap="round" stroke-linejoin="round"/>
<path d="M18.0365 19.0859C16.6802 20.1494 15.0058 20.8363 13.1581 20.9744C12.2484 21.0425 11.3601 20.9705 10.5137 20.7808" stroke="black" stroke-width="1.5" stroke-linecap="round" stroke-linejoin="round"/>
<path d="M20.1211 16.7243C21.0308 15.2562 21.5377 13.5195 21.4667 11.6641" stroke="black" stroke-width="1.5" stroke-linecap="round" stroke-linejoin="round"/>
<path d="M20.5699 8.07371C19.0548 4.95714 15.8024 2.86542 12.1172 3.00675" stroke="black" stroke-width="1.5" stroke-linecap="round" stroke-linejoin="round"/>
<path d="M12.4755 16.0502C12.4755 16.0502 9.47884 14.4176 8.7793 12.243C8.34536 10.8858 8.85227 9.33492 10.2767 8.87666C11.0268 8.63634 11.846 8.7745 12.4755 9.24638C13.106 8.77839 13.9223 8.64121 14.6705 8.87666C16.0949 9.33492 16.6066 10.8858 16.1717 12.243C15.9135 13.0637 15.3135 13.8128 14.6705 14.4253" stroke="black" stroke-width="1.5" stroke-linecap="round" stroke-linejoin="round"/>
</svg>