<svg width="25" height="24" viewBox="0 0 25 24" fill="none" xmlns="http://www.w3.org/2000/svg">
<path d="M21.9805 12C21.9805 7.02908 17.9514 3 12.9805 3C8.00955 3 3.98047 7.02908 3.98047 12C3.98047 16.9699 8.00955 21 12.9805 21C17.9514 21 21.9805 16.9699 21.9805 12Z" stroke="black" stroke-width="1.5" stroke-linecap="round" stroke-linejoin="round"/>
<path opacity="0.4" d="M12.9805 3V5.47427M12.9805 21V18.7491M21.9805 12H19.7305M3.98047 12H6.45571" stroke="black" stroke-width="1.5" stroke-linecap="round" stroke-linejoin="round"/>
<path opacity="0.4" fill-rule="evenodd" clip-rule="evenodd" d="M12.981 14.8874C11.1927 14.8874 10.7364 13.1594 10.9329 12.2808C11.1295 11.4022 12.0265 10.0362 12.981 9.25586C13.9355 10.0362 14.8326 11.4022 15.0291 12.2808C15.2257 13.1594 14.7694 14.8874 12.981 14.8874Z" stroke="black" stroke-width="1.5" stroke-linecap="round" stroke-linejoin="round"/>
</svg>