<svg width="25" height="24" viewBox="0 0 25 24" fill="none" xmlns="http://www.w3.org/2000/svg">
<path fill-rule="evenodd" clip-rule="evenodd" d="M22.4613 10.4589C22.3563 9.76788 22.1773 9.10188 21.9343 8.48488C21.5673 7.52388 21.0463 6.62488 20.3893 5.81388C20.0103 5.34088 19.5713 4.89888 19.0993 4.51288C18.2903 3.81988 17.3933 3.27888 16.4513 2.91088C15.7773 2.62888 15.0593 2.42988 14.3163 2.31988C13.9043 2.26288 13.5253 2.54188 13.4643 2.95288C13.4043 3.36288 13.6883 3.74388 14.0973 3.80488C14.7163 3.89588 15.3143 4.06088 15.8883 4.30088C16.6903 4.61388 17.4423 5.06888 18.1363 5.66288C18.5413 5.99388 18.9053 6.35988 19.2213 6.75588C19.7813 7.44588 20.2233 8.20788 20.5363 9.02788C20.7413 9.54788 20.8903 10.1049 20.9793 10.6909C21.0483 11.1219 21.0843 11.5629 21.0843 12.0029C21.0843 12.4489 21.0493 12.8779 20.9793 13.3189C20.8833 13.9419 20.7213 14.5229 20.4833 15.0959C20.4743 15.1189 20.4653 15.1439 20.4583 15.1689C20.1463 15.9409 19.6973 16.6749 19.1133 17.3629C18.8043 17.7479 18.4393 18.1089 18.0233 18.4409C17.3413 18.9989 16.5763 19.4429 15.7533 19.7609C15.1863 19.9759 14.6293 20.1229 14.0993 20.1999C13.6893 20.2599 13.4053 20.6399 13.4643 21.0499C13.5193 21.4239 13.8393 21.6919 14.2063 21.6919C14.2413 21.6919 14.2783 21.6889 14.3143 21.6849C14.9513 21.5929 15.6143 21.4169 16.2893 21.1619C17.2653 20.7849 18.1683 20.2609 18.9653 19.6079C19.4613 19.2129 19.9043 18.7729 20.2703 18.3179C20.9613 17.5039 21.5003 16.6119 21.8743 15.6689C21.8813 15.6489 21.8883 15.6309 21.8943 15.6099C22.1653 14.9449 22.3503 14.2699 22.4603 13.5519C22.5433 13.0369 22.5843 12.5299 22.5843 12.0029C22.5843 11.4829 22.5423 10.9619 22.4613 10.4589Z" fill="black"/>
<path fill-rule="evenodd" clip-rule="evenodd" d="M13.5175 16.1992L13.5195 16.1972L13.5205 16.1962H13.5215L13.5415 16.1762L16.2465 13.4582C16.6365 13.0672 16.6345 12.4332 16.2435 12.0442C15.8515 11.6542 15.2195 11.6562 14.8295 12.0482L13.8305 13.0512V8.5332C13.8305 7.9802 13.3835 7.5332 12.8305 7.5332C12.2785 7.5332 11.8305 7.9802 11.8305 8.5332V13.0492L10.8355 12.0482C10.4465 11.6562 9.81346 11.6532 9.42146 12.0442C9.03046 12.4332 9.02846 13.0662 9.41746 13.4582L12.1195 16.1762L12.1255 16.1812C12.1385 16.1942 12.1505 16.2062 12.1635 16.2182L12.1665 16.2202L12.1685 16.2222L12.1715 16.2242C12.1755 16.2262 12.1735 16.2262 12.1735 16.2262C12.1805 16.2262 12.1765 16.2282 12.1765 16.2282L12.1785 16.2302C12.1795 16.2322 12.1815 16.2322 12.1815 16.2322C12.1825 16.2342 12.1845 16.2322 12.1835 16.2352C12.1835 16.2352 12.1865 16.2352 12.1855 16.2372C12.1875 16.2382 12.1885 16.2392 12.1885 16.2392L12.1915 16.2412L12.1935 16.2432L12.1965 16.2452L12.1975 16.2462C12.2035 16.2452 12.1995 16.2482 12.1995 16.2482C12.2035 16.2502 12.2025 16.2502 12.2025 16.2502C12.2045 16.2552 12.2045 16.2522 12.2045 16.2522C12.2065 16.2552 12.2065 16.2542 12.2065 16.2542C12.2075 16.2562 12.2095 16.2562 12.2095 16.2562C12.2105 16.2582 12.2115 16.2582 12.2115 16.2582C12.2125 16.2602 12.2145 16.2602 12.2145 16.2602L12.2165 16.2612C12.2185 16.2632 12.2195 16.2632 12.2195 16.2632C12.2205 16.2662 12.2215 16.2652 12.2215 16.2652C12.2235 16.2692 12.2245 16.2672 12.2245 16.2672C12.2315 16.2682 12.2265 16.2692 12.2265 16.2692C12.2315 16.2722 12.2285 16.2712 12.2285 16.2712L12.2305 16.2722L12.2335 16.2742L12.2355 16.2762L12.2385 16.2782C12.2385 16.2782 12.2395 16.2782 12.2405 16.2802C12.2405 16.2802 12.2425 16.2802 12.2435 16.2822L12.2445 16.2832L12.2465 16.2842C12.2485 16.2862 12.2495 16.2862 12.2495 16.2862L12.2505 16.2872C12.2535 16.2922 12.2535 16.2892 12.2535 16.2892C12.2545 16.2912 12.2565 16.2912 12.2565 16.2912L12.2585 16.2932C12.2585 16.2932 12.2605 16.2932 12.2615 16.2952L12.2635 16.2962L12.2655 16.2982H12.2665L12.2675 16.3002C12.2695 16.2992 12.2705 16.3012 12.2705 16.3012L12.2735 16.3032L12.2765 16.3042L12.2785 16.3062H12.2795C12.3345 16.3442 12.3925 16.3742 12.4535 16.3992C12.5705 16.4462 12.6975 16.4722 12.8305 16.4722C12.9675 16.4722 13.0975 16.4452 13.2165 16.3952C13.2565 16.3792 13.2965 16.3592 13.3345 16.3372L13.3375 16.3352C13.3385 16.3302 13.3415 16.3332 13.3415 16.3332L13.3435 16.3322C13.3435 16.3322 13.3445 16.3322 13.3455 16.3302L13.3485 16.3292L13.3505 16.3282L13.3525 16.3262L13.3555 16.3242L13.3585 16.3222C13.4145 16.2872 13.4675 16.2462 13.5175 16.1992Z" fill="black"/>
<g opacity="0.4">
<path fill-rule="evenodd" clip-rule="evenodd" d="M11.4557 20.1984C10.8367 20.1074 10.2407 19.9424 9.6817 19.7094C9.5907 19.6704 9.4917 19.6504 9.3927 19.6504H9.3827C8.9687 19.6504 8.6377 19.9864 8.6377 20.4004C8.6377 20.7214 8.8417 20.9954 9.1267 21.1024C9.7937 21.3794 10.5037 21.5744 11.2367 21.6824C11.2737 21.6874 11.3107 21.6904 11.3477 21.6904C11.7127 21.6904 12.0337 21.4234 12.0887 21.0504C12.1487 20.6394 11.8657 20.2594 11.4557 20.1984Z" fill="black"/>
<path fill-rule="evenodd" clip-rule="evenodd" d="M6.34436 17.2515C6.08636 16.9295 5.61536 16.8775 5.29036 17.1365C4.96736 17.3965 4.91536 17.8675 5.17536 18.1905C5.55636 18.6655 5.99136 19.1035 6.46836 19.4915C6.60736 19.6055 6.77536 19.6605 6.94136 19.6605C7.15936 19.6605 7.37536 19.5665 7.52336 19.3845C7.78436 19.0635 7.73736 18.5915 7.41636 18.3295C7.02036 18.0075 6.66036 17.6445 6.34436 17.2515Z" fill="black"/>
<path fill-rule="evenodd" clip-rule="evenodd" d="M5.02015 14.9724C4.80915 14.4214 4.65915 13.8654 4.57515 13.3184C4.51315 12.9094 4.13615 12.6274 3.72115 12.6904C3.31215 12.7524 3.03015 13.1354 3.09315 13.5444C3.19215 14.1984 3.37015 14.8594 3.62015 15.5094C3.73415 15.8084 4.01915 15.9914 4.32015 15.9914C4.40915 15.9914 4.50015 15.9754 4.58915 15.9414C4.97615 15.7924 5.16815 15.3584 5.02015 14.9724Z" fill="black"/>
<path fill-rule="evenodd" clip-rule="evenodd" d="M3.7223 11.3124C3.7603 11.3184 3.7983 11.3214 3.8353 11.3214C4.2003 11.3214 4.5193 11.0544 4.5763 10.6834C4.6693 10.0654 4.8353 9.4654 5.0703 8.8994C5.2283 8.5164 5.0473 8.0784 4.6643 7.9194C4.2803 7.7594 3.8423 7.9414 3.6843 8.3254C3.4033 9.0024 3.2033 9.7214 3.0923 10.4584C3.0313 10.8694 3.3123 11.2504 3.7223 11.3124Z" fill="black"/>
<path fill-rule="evenodd" clip-rule="evenodd" d="M6.5739 4.39865C6.0789 4.81565 5.6569 5.23465 5.2819 5.67765C5.0149 5.99465 5.0549 6.46665 5.3709 6.73465C5.5119 6.85365 5.6839 6.91165 5.8549 6.91165C6.0679 6.91165 6.2799 6.82065 6.4279 6.64465C6.7469 6.26665 7.1119 5.90765 7.5409 5.54465C7.8579 5.27865 7.8979 4.80465 7.6309 4.48865C7.3629 4.17165 6.8899 4.12865 6.5739 4.39865Z" fill="black"/>
<path fill-rule="evenodd" clip-rule="evenodd" d="M9.53527 4.29218C9.62327 4.29218 9.71327 4.27618 9.80127 4.24318C10.3673 4.02818 10.9233 3.88118 11.4543 3.80418C11.8653 3.74418 12.1493 3.36418 12.0893 2.95418C12.0303 2.54418 11.6453 2.26518 11.2403 2.31918C10.6003 2.41218 9.93727 2.58718 9.26927 2.84118C8.88227 2.98718 8.68727 3.42118 8.83427 3.80818C8.94827 4.10718 9.23227 4.29218 9.53527 4.29218Z" fill="black"/>
</g>
</svg>