<svg width="25" height="24" viewBox="0 0 25 24" fill="none" xmlns="http://www.w3.org/2000/svg">
<path fill-rule="evenodd" clip-rule="evenodd" d="M12.9805 3.75C8.42376 3.75 4.73047 7.44329 4.73047 12C4.73047 16.5558 8.42382 20.25 12.9805 20.25C17.5371 20.25 21.2305 16.5558 21.2305 12C21.2305 7.44329 17.5372 3.75 12.9805 3.75ZM3.23047 12C3.23047 6.61487 7.59534 2.25 12.9805 2.25C18.3656 2.25 22.7305 6.61487 22.7305 12C22.7305 17.3841 18.3657 21.75 12.9805 21.75C7.59528 21.75 3.23047 17.3841 3.23047 12Z" fill="black"/>
<path fill-rule="evenodd" clip-rule="evenodd" d="M12.9805 11.4395C12.6708 11.4395 12.4199 11.6904 12.4199 12C12.4199 12.3097 12.6708 12.5606 12.9805 12.5606C13.2902 12.5606 13.5411 12.3097 13.5411 12C13.5411 11.6904 13.2902 11.4395 12.9805 11.4395ZM10.9199 12C10.9199 10.8619 11.8424 9.93945 12.9805 9.93945C14.1186 9.93945 15.0411 10.8619 15.0411 12C15.0411 13.1382 14.1186 14.0606 12.9805 14.0606C11.8424 14.0606 10.9199 13.1382 10.9199 12Z" fill="black"/>
<path fill-rule="evenodd" clip-rule="evenodd" d="M17.0865 8.06537C17.3794 8.35827 17.3794 8.83314 17.0865 9.12603L14.5831 11.6295C14.2902 11.9224 13.8153 11.9224 13.5224 11.6295C13.2295 11.3366 13.2295 10.8617 13.5224 10.5688L16.0259 8.06537C16.3188 7.77248 16.7936 7.77248 17.0865 8.06537Z" fill="black"/>
<path fill-rule="evenodd" clip-rule="evenodd" d="M12.979 7.5957C10.5463 7.5957 8.57422 9.56781 8.57422 12.0005C8.57422 12.4147 8.23843 12.7505 7.82422 12.7505C7.41001 12.7505 7.07422 12.4147 7.07422 12.0005C7.07422 8.73938 9.7179 6.0957 12.979 6.0957C13.3932 6.0957 13.729 6.43149 13.729 6.8457C13.729 7.25992 13.3932 7.5957 12.979 7.5957Z" fill="black"/>
<path fill-rule="evenodd" clip-rule="evenodd" d="M18.1353 11.25C18.5495 11.25 18.8853 11.5858 18.8853 12C18.8853 15.2611 16.2416 17.9048 12.9805 17.9048C12.5663 17.9048 12.2305 17.569 12.2305 17.1548C12.2305 16.7406 12.5663 16.4048 12.9805 16.4048C15.4132 16.4048 17.3853 14.4327 17.3853 12C17.3853 11.5858 17.7211 11.25 18.1353 11.25Z" fill="black"/>
<path fill-rule="evenodd" clip-rule="evenodd" d="M8.43875 14.5524C8.76686 14.2996 9.2378 14.3606 9.49062 14.6888C9.7554 15.0324 10.0715 15.3363 10.4268 15.5898C10.7639 15.8304 10.8422 16.2987 10.6016 16.6359C10.361 16.9731 9.89263 17.0514 9.55546 16.8107C9.08172 16.4727 8.6584 16.0663 8.30243 15.6043C8.04961 15.2762 8.11064 14.8052 8.43875 14.5524Z" fill="black"/>
</svg>