<svg width="25" height="24" viewBox="0 0 25 24" fill="none" xmlns="http://www.w3.org/2000/svg">
<path fill-rule="evenodd" clip-rule="evenodd" d="M12.9805 3.75C8.42376 3.75 4.73047 7.44329 4.73047 12C4.73047 16.5558 8.42382 20.25 12.9805 20.25C17.5371 20.25 21.2305 16.5558 21.2305 12C21.2305 7.44329 17.5372 3.75 12.9805 3.75ZM3.23047 12C3.23047 6.61487 7.59534 2.25 12.9805 2.25C18.3656 2.25 22.7305 6.61487 22.7305 12C22.7305 14.3202 21.9199 16.4513 20.5664 18.1254C20.5307 18.1829 20.4874 18.2353 20.438 18.281C18.6495 20.4023 15.9725 21.75 12.9805 21.75C9.98698 21.75 7.30878 20.401 5.52032 18.2779C5.4734 18.2339 5.43213 18.184 5.39771 18.1294C4.04231 16.4547 3.23047 14.322 3.23047 12Z" fill="black"/>
<path fill-rule="evenodd" clip-rule="evenodd" d="M12.9805 2.25C13.3947 2.25 13.7305 2.58579 13.7305 3V5.25049C13.7305 5.6647 13.3947 6.00049 12.9805 6.00049C12.5663 6.00049 12.2305 5.6647 12.2305 5.25049V3C12.2305 2.58579 12.5663 2.25 12.9805 2.25Z" fill="black"/>
<path fill-rule="evenodd" clip-rule="evenodd" d="M19.875 5.10639C20.1679 5.39928 20.1679 5.87416 19.875 6.16705L18.2842 7.75786C17.9913 8.05075 17.5165 8.05075 17.2236 7.75786C16.9307 7.46497 16.9307 6.99009 17.2236 6.6972L18.8144 5.10639C19.1073 4.8135 19.5822 4.8135 19.875 5.10639Z" fill="black"/>
<path fill-rule="evenodd" clip-rule="evenodd" d="M6.08686 5.10639C6.37975 4.8135 6.85462 4.8135 7.14752 5.10639L8.73833 6.6972C9.03122 6.99009 9.03122 7.46497 8.73833 7.75786C8.44544 8.05075 7.97056 8.05075 7.67767 7.75786L6.08686 6.16705C5.79396 5.87416 5.79396 5.39928 6.08686 5.10639Z" fill="black"/>
<path fill-rule="evenodd" clip-rule="evenodd" d="M3.23047 12C3.23047 11.5858 3.56626 11.25 3.98047 11.25H6.45571C6.86993 11.25 7.20571 11.5858 7.20571 12C7.20571 12.4142 6.86993 12.75 6.45571 12.75H3.98047C3.56626 12.75 3.23047 12.4142 3.23047 12Z" fill="black"/>
<path fill-rule="evenodd" clip-rule="evenodd" d="M18.9805 12C18.9805 11.5858 19.3163 11.25 19.7305 11.25H21.9814C22.3956 11.25 22.7314 11.5858 22.7314 12C22.7314 12.4142 22.3956 12.75 21.9814 12.75H19.7305C19.3163 12.75 18.9805 12.4142 18.9805 12Z" fill="black"/>
<path fill-rule="evenodd" clip-rule="evenodd" d="M5.45696 17.2419C7.25727 15.0807 9.9571 13.7051 12.9809 13.7051C16.0035 13.7051 18.7051 15.0806 20.5055 17.2419C20.7706 17.5601 20.7275 18.033 20.4093 18.2981C20.091 18.5633 19.6181 18.5202 19.353 18.2019C17.8238 16.3662 15.5372 15.2051 12.9809 15.2051C10.4236 15.2051 8.13869 16.3661 6.60948 18.2019C6.34437 18.5202 5.87145 18.5633 5.55319 18.2981C5.23494 18.033 5.19185 17.5601 5.45696 17.2419Z" fill="black"/>
<path fill-rule="evenodd" clip-rule="evenodd" d="M12.9805 9.06445C13.3947 9.06445 13.7305 9.40024 13.7305 9.81445V14.4546C13.7305 14.8688 13.3947 15.2046 12.9805 15.2046C12.5663 15.2046 12.2305 14.8688 12.2305 14.4546V9.81445C12.2305 9.40024 12.5663 9.06445 12.9805 9.06445Z" fill="black"/>
</svg>