<svg width="24" height="24" viewBox="0 0 24 24" fill="none" xmlns="http://www.w3.org/2000/svg">
<path fill-rule="evenodd" clip-rule="evenodd" d="M16.266 12.753C15.908 14.577 14.299 15.899 12.443 15.899H9.057C8.643 15.899 8.307 15.564 8.307 15.149C8.307 14.735 8.643 14.399 9.057 14.399H12.443C13.584 14.399 14.574 13.586 14.793 12.465C14.932 11.758 14.749 11.035 14.293 10.481C13.837 9.927 13.162 9.609 12.443 9.609H10.092C9.678 9.609 9.342 9.274 9.342 8.859C9.342 8.445 9.678 8.109 10.092 8.109H12.443C13.613 8.109 14.709 8.626 15.452 9.527C16.194 10.428 16.491 11.604 16.266 12.753ZM7.661 12C7.661 11.586 7.996 11.25 8.411 11.25H10.573C10.987 11.25 11.323 11.586 11.323 12C11.323 12.414 10.987 12.75 10.573 12.75H8.411C7.996 12.75 7.661 12.414 7.661 12ZM16.217 2.5H7.783C4.623 2.5 2.5 4.722 2.5 8.029V15.969C2.5 19.277 4.623 21.5 7.783 21.5H16.216C19.376 21.5 21.5 19.277 21.5 15.969V8.029C21.5 4.722 19.377 2.5 16.217 2.5Z" fill="black"/>
</svg>