<svg width="25" height="24" viewBox="0 0 25 24" fill="none" xmlns="http://www.w3.org/2000/svg">
<path fill-rule="evenodd" clip-rule="evenodd" d="M5.25332 7.38003C5.48232 7.38003 5.71032 7.27503 5.85732 7.07603C6.24332 6.55303 6.69232 6.07403 7.19032 5.65203C7.50632 5.38603 7.54632 4.91203 7.27832 4.59603C7.01132 4.27903 6.53932 4.24003 6.22132 4.50803C5.63532 5.00403 5.10632 5.56803 4.65032 6.18403C4.40432 6.51803 4.47532 6.98603 4.80832 7.23403C4.94232 7.33203 5.09832 7.38003 5.25332 7.38003Z" fill="black"/>
<path fill-rule="evenodd" clip-rule="evenodd" d="M3.55954 13.3287C3.97254 13.2977 4.28254 12.9377 4.25154 12.5247C4.18354 11.5997 4.27454 10.6657 4.52554 9.7477C4.63454 9.3487 4.39854 8.9357 3.99854 8.8267C3.60054 8.7227 3.18654 8.9527 3.07854 9.3527C2.78254 10.4357 2.67454 11.5407 2.75554 12.6367C2.78554 13.0307 3.11454 13.3307 3.50254 13.3307C3.52154 13.3307 3.54054 13.3297 3.55954 13.3287Z" fill="black"/>
<path fill-rule="evenodd" clip-rule="evenodd" d="M4.89453 15.2783C4.72753 14.8993 4.28853 14.7273 3.90553 14.8933C3.52653 15.0603 3.35453 15.5033 3.52153 15.8823C4.24753 17.5323 5.41553 18.9473 6.89953 19.9753C7.03053 20.0663 7.17953 20.1093 7.32653 20.1093C7.56353 20.1093 7.79753 19.9973 7.94353 19.7863C8.17953 19.4463 8.09453 18.9783 7.75453 18.7433C6.49853 17.8723 5.50853 16.6743 4.89453 15.2783Z" fill="black"/>
<path fill-rule="evenodd" clip-rule="evenodd" d="M17.5751 18.4993C16.2811 19.5113 14.7361 20.1073 13.1021 20.2233C12.2861 20.2873 11.4691 20.2273 10.6801 20.0483C10.2751 19.9563 9.87513 20.2093 9.78313 20.6133C9.69213 21.0183 9.94613 21.4193 10.3491 21.5113C11.0441 21.6683 11.7561 21.7473 12.4711 21.7473C12.7181 21.7473 12.9651 21.7373 13.2121 21.7193C15.1401 21.5823 16.9691 20.8773 18.4991 19.6813C18.8251 19.4263 18.8831 18.9543 18.6281 18.6283C18.3721 18.3023 17.9011 18.2433 17.5751 18.4993Z" fill="black"/>
<path fill-rule="evenodd" clip-rule="evenodd" d="M12.0898 2.26084C11.6758 2.27684 11.3528 2.62384 11.3688 3.03784C11.3848 3.45184 11.7728 3.79684 12.1468 3.75884C16.7178 3.57184 20.5428 7.14384 20.7168 11.6888C20.7798 13.3248 20.3538 14.9278 19.4858 16.3238C19.2668 16.6768 19.3738 17.1388 19.7258 17.3578C19.8488 17.4348 19.9858 17.4708 20.1218 17.4708C20.3718 17.4708 20.6168 17.3458 20.7588 17.1168C21.7868 15.4648 22.2908 13.5678 22.2158 11.6318C22.0098 6.25884 17.4678 2.03184 12.0898 2.26084Z" fill="black"/>
<path fill-rule="evenodd" clip-rule="evenodd" d="M12.2382 16.4895C12.3122 16.5295 12.3952 16.5505 12.4772 16.5505C12.5602 16.5505 12.6432 16.5295 12.7172 16.4885C12.8482 16.4165 15.9222 14.7055 16.6492 12.3935C16.9332 11.5105 16.8682 10.5625 16.4712 9.79245C16.1202 9.11345 15.5502 8.63445 14.8232 8.40345C14.0392 8.15145 13.1862 8.24745 12.4792 8.65145C11.7762 8.24545 10.9202 8.15045 10.1272 8.40345C9.40021 8.63345 8.83221 9.11145 8.48221 9.78845C8.08421 10.5575 8.01921 11.5085 8.30321 12.3935C9.05621 14.7365 12.1082 16.4195 12.2382 16.4895Z" fill="black"/>
</svg>