<svg width="25" height="24" viewBox="0 0 25 24" fill="none" xmlns="http://www.w3.org/2000/svg">
<path d="M18.1097 19.9046C20.0206 18.2563 21.23 15.82 21.23 13.0976C21.23 8.12186 17.2019 4.09375 12.2261 4.09375C10.0954 4.09375 8.13723 4.83502 6.5957 6.07438" stroke="black" stroke-width="1.5" stroke-linecap="round" stroke-linejoin="round"/>
<path d="M6.35177 19.9055C4.44085 18.2573 3.23047 15.821 3.23047 13.0986C3.23047 11.658 3.5682 10.2968 4.16866 9.08984" stroke="black" stroke-width="1.5" stroke-linecap="round" stroke-linejoin="round"/>
<path d="M12.2281 15.0665C11.1403 15.0665 10.2578 14.185 10.2578 13.0962C10.2578 12.0075 11.1403 11.125 12.2281 11.125C13.3168 11.125 14.1993 12.0075 14.1993 13.0962" stroke="black" stroke-width="1.5" stroke-linecap="round" stroke-linejoin="round"/>
<path d="M16.072 9.26953L13.6309 11.7107" stroke="black" stroke-width="1.5" stroke-linecap="round" stroke-linejoin="round"/>
</svg>