<svg width="25" height="24" viewBox="0 0 25 24" fill="none" xmlns="http://www.w3.org/2000/svg">
<path opacity="0.4" d="M8.76247 21.5H17.1965C20.3565 21.5 22.4805 19.279 22.4805 15.974V8.026C22.4805 4.721 20.3575 2.5 17.1975 2.5H8.76247C5.60347 2.5 3.48047 4.721 3.48047 8.026V15.974C3.48047 19.279 5.60347 21.5 8.76247 21.5Z" fill="black"/>
<path d="M8.58362 7.67383H17.3776C17.7916 7.67383 18.1276 7.33783 18.1276 6.92383C18.1276 6.50983 17.7916 6.17383 17.3776 6.17383H8.58362C8.16962 6.17383 7.83362 6.50983 7.83362 6.92383C7.83362 7.33783 8.16962 7.67383 8.58362 7.67383Z" fill="black"/>
<path fill-rule="evenodd" clip-rule="evenodd" d="M9.84541 17.8268H16.1154C17.6034 17.8268 18.6434 16.7498 18.6434 15.2068V12.2488C18.6434 10.7068 17.6034 9.62885 16.1154 9.62885H9.84541C8.35641 9.62885 7.31641 10.7068 7.31641 12.2488V15.2068C7.31641 16.7498 8.35641 17.8268 9.84541 17.8268ZM8.81641 12.2488C8.81641 11.9118 8.91641 11.1288 9.84541 11.1288H16.1154C17.0424 11.1288 17.1434 11.9118 17.1434 12.2488V15.2068C17.1434 15.5438 17.0424 16.3268 16.1154 16.3268H9.84541C8.91641 16.3268 8.81641 15.5438 8.81641 15.2068V12.2488Z" fill="black"/>
</svg>