<svg width="25" height="24" viewBox="0 0 25 24" fill="none" xmlns="http://www.w3.org/2000/svg">
<path d="M6.94217 18.9108C6.51291 18.5579 6.11265 18.1577 5.75977 17.7188" stroke="black" stroke-width="1.5" stroke-linecap="round" stroke-linejoin="round"/>
<path d="M4.32029 15.2415C4.10082 14.6691 3.9297 14.0591 3.83398 13.4297" stroke="black" stroke-width="1.5" stroke-linecap="round" stroke-linejoin="round"/>
<path d="M4.37733 8.60547C4.12016 9.22519 3.9384 9.88262 3.83398 10.569" stroke="black" stroke-width="1.5" stroke-linecap="round" stroke-linejoin="round"/>
<path d="M7.05721 4.97266C6.61828 5.33521 6.21802 5.7258 5.85547 6.15506" stroke="black" stroke-width="1.5" stroke-linecap="round" stroke-linejoin="round"/>
<path d="M9.38281 20.4009H9.39248C10.0122 20.6581 10.6696 20.8399 11.3464 20.9443M11.3471 3.05859C10.7274 3.15431 10.1173 3.31673 9.53529 3.5449" stroke="black" stroke-width="1.5" stroke-linecap="round" stroke-linejoin="round"/>
<path d="M14.207 3.05859C14.8838 3.16398 15.5422 3.34477 16.1619 3.60194C17.0581 3.95482 17.8867 4.46046 18.6118 5.08018C19.0507 5.44177 19.451 5.84299 19.8039 6.28095C20.4042 7.01572 20.8906 7.84524 21.2338 8.75017C21.4629 9.33219 21.6244 9.94224 21.7201 10.5716C21.7964 11.0386 21.8341 11.5152 21.8341 12.0015C21.8341 12.4878 21.7964 12.9645 21.7201 13.4314C21.6147 14.1179 21.4339 14.7569 21.1767 15.3766V15.3863C20.8238 16.2825 20.3182 17.1024 19.6985 17.8265C19.3456 18.2655 18.9357 18.6657 18.4977 19.0186C17.7629 19.619 16.9238 20.115 16.0188 20.4582C15.4368 20.6776 14.8268 20.8488 14.207 20.9445" stroke="black" stroke-width="1.5" stroke-linecap="round" stroke-linejoin="round"/>
<path d="M12.8338 8.53125V15.4681M12.8338 8.53125L10.127 11.247M12.8338 8.53125L15.5382 11.247" stroke="black" stroke-width="1.5" stroke-linecap="round" stroke-linejoin="round"/>
</svg>