<svg width="24" height="25" viewBox="0 0 24 25" fill="none" xmlns="http://www.w3.org/2000/svg">
<path fill-rule="evenodd" clip-rule="evenodd" d="M10.7172 20.8839C10.1242 20.7889 9.53123 20.6239 8.95523 20.3929C8.43923 20.1859 7.86023 20.4369 7.65523 20.9489C7.44923 21.4619 7.69823 22.0439 8.21123 22.2499C8.92523 22.5349 9.66223 22.7399 10.4022 22.8589C10.4552 22.8669 10.5082 22.8709 10.5602 22.8709C11.0432 22.8709 11.4682 22.5209 11.5472 22.0299C11.6342 21.4839 11.2622 20.9709 10.7172 20.8839Z" fill="black"/>
<path fill-rule="evenodd" clip-rule="evenodd" d="M5.70553 17.9924C5.35753 17.5634 4.72853 17.4954 4.29953 17.8444C3.86953 18.1904 3.80253 18.8204 4.14953 19.2504C4.53453 19.7254 4.98353 20.1794 5.48553 20.5984C5.67253 20.7554 5.89953 20.8314 6.12553 20.8314C6.41253 20.8314 6.69553 20.7094 6.89353 20.4724C7.24753 20.0494 7.19153 19.4184 6.76753 19.0634C6.35953 18.7224 6.01253 18.3734 5.70553 17.9924Z" fill="black"/>
<path fill-rule="evenodd" clip-rule="evenodd" d="M4.42134 15.7716C4.21834 15.2456 4.06834 14.6876 3.98834 14.1596C3.90434 13.6146 3.39534 13.2416 2.84834 13.3226C2.30234 13.4056 1.92734 13.9166 2.01034 14.4616C2.11434 15.1386 2.29734 15.8216 2.55534 16.4906C2.70834 16.8876 3.08734 17.1306 3.48834 17.1306C3.60834 17.1306 3.72934 17.1096 3.84734 17.0646C4.36334 16.8656 4.62034 16.2876 4.42134 15.7716Z" fill="black"/>
<path fill-rule="evenodd" clip-rule="evenodd" d="M2.84564 12.4191C2.89764 12.4271 2.94964 12.4311 3.00064 12.4311C3.48464 12.4311 3.91064 12.0781 3.98764 11.5851C4.08164 10.9801 4.24464 10.3931 4.47064 9.84108C4.68064 9.33008 4.43764 8.74608 3.92664 8.53608C3.41564 8.32308 2.83064 8.57008 2.62164 9.08108C2.33464 9.77708 2.12964 10.5171 2.01164 11.2761C1.92664 11.8221 2.29964 12.3341 2.84564 12.4191Z" fill="black"/>
<path fill-rule="evenodd" clip-rule="evenodd" d="M5.61076 5.02646C5.11576 5.43046 4.66276 5.88046 4.26376 6.36446C3.91176 6.79046 3.97176 7.42046 4.39776 7.77146C4.58376 7.92546 4.80976 8.00146 5.03376 8.00146C5.32176 8.00146 5.60776 7.87746 5.80576 7.63746C6.11776 7.25946 6.48776 6.89246 6.87676 6.57546C7.30376 6.22546 7.36776 5.59546 7.01776 5.16846C6.66876 4.74046 6.03676 4.67746 5.61076 5.02646Z" fill="black"/>
<path fill-rule="evenodd" clip-rule="evenodd" d="M10.4053 2.88301C9.67927 2.99701 8.99327 3.18201 8.36727 3.43201C7.85427 3.63601 7.60427 4.21801 7.80827 4.73101C7.96427 5.12201 8.34027 5.36101 8.73827 5.36101C8.86127 5.36101 8.98627 5.33801 9.10727 5.28901C9.59527 5.09501 10.1363 4.95001 10.7163 4.86001C11.2613 4.77401 11.6343 4.26101 11.5483 3.71601C11.4623 3.17001 10.9473 2.80301 10.4053 2.88301Z" fill="black"/>
<path fill-rule="evenodd" clip-rule="evenodd" d="M15.7861 3.50025C15.1211 3.21925 14.3851 3.01125 13.5981 2.88425C13.0461 2.79425 12.5391 3.16725 12.4511 3.71125C12.3631 4.25725 12.7331 4.77125 13.2791 4.85825C13.9081 4.96025 14.4891 5.12325 15.0071 5.34225C15.1341 5.39625 15.2661 5.42125 15.3961 5.42125C15.7861 5.42125 16.1561 5.19225 16.3171 4.81125C16.5331 4.30225 16.2951 3.71525 15.7861 3.50025Z" fill="black"/>
<path fill-rule="evenodd" clip-rule="evenodd" d="M18.2826 7.7385C18.4806 7.9835 18.7696 8.11051 19.0606 8.11051C19.2816 8.11051 19.5036 8.03851 19.6886 7.8885C20.1186 7.5415 20.1856 6.91151 19.8386 6.48251C19.4206 5.96451 18.9636 5.5085 18.4806 5.1275C18.0466 4.7845 17.4176 4.8575 17.0756 5.2915C16.7336 5.7245 16.8066 6.3535 17.2406 6.6955C17.6066 6.98551 17.9576 7.3365 18.2826 7.7385Z" fill="black"/>
<path fill-rule="evenodd" clip-rule="evenodd" d="M19.5767 9.95513C19.7847 10.5041 19.9307 11.0511 20.0117 11.5821C20.0877 12.0761 20.5137 12.4311 20.9987 12.4311C21.0497 12.4311 21.0997 12.4271 21.1517 12.4191C21.6977 12.3361 22.0727 11.8251 21.9897 11.2791C21.8867 10.6101 21.7047 9.92613 21.4467 9.24613C21.2507 8.73013 20.6737 8.47013 20.1577 8.66513C19.6407 8.86113 19.3807 9.43813 19.5767 9.95513Z" fill="black"/>
<path fill-rule="evenodd" clip-rule="evenodd" d="M21.1513 13.3223C20.6023 13.2383 20.0943 13.6123 20.0113 14.1593C19.9223 14.7343 19.7633 15.3073 19.5233 15.9113C19.3193 16.4243 19.5693 17.0063 20.0833 17.2103C20.2043 17.2583 20.3293 17.2803 20.4523 17.2803C20.8503 17.2803 21.2263 17.0423 21.3813 16.6493C21.6783 15.9043 21.8763 15.1883 21.9873 14.4623C22.0713 13.9163 21.6973 13.4063 21.1513 13.3223Z" fill="black"/>
<path fill-rule="evenodd" clip-rule="evenodd" d="M18.1786 18.1037C17.8506 18.5087 17.4996 18.8577 17.1356 19.1407C16.6986 19.4787 16.6186 20.1067 16.9566 20.5427C17.1546 20.7977 17.4496 20.9307 17.7476 20.9307C17.9626 20.9307 18.1776 20.8627 18.3596 20.7207C18.8476 20.3437 19.3096 19.8857 19.7346 19.3597C20.0816 18.9307 20.0146 18.3007 19.5846 17.9537C19.1566 17.6067 18.5256 17.6737 18.1786 18.1037Z" fill="black"/>
<path fill-rule="evenodd" clip-rule="evenodd" d="M14.8926 20.4425C14.4096 20.6345 13.8776 20.7795 13.2676 20.8855C12.7236 20.9805 12.3586 21.4985 12.4536 22.0435C12.5386 22.5285 12.9596 22.8715 13.4376 22.8715C13.4946 22.8715 13.5516 22.8665 13.6096 22.8565C14.3586 22.7255 15.0196 22.5445 15.6326 22.2995C16.1456 22.0955 16.3956 21.5135 16.1916 21.0015C15.9866 20.4885 15.4056 20.2365 14.8926 20.4425Z" fill="black"/>
</svg>