<svg width="25" height="24" viewBox="0 0 25 24" fill="none" xmlns="http://www.w3.org/2000/svg">
<path d="M5.00459 7.38201C4.86649 7.38106 4.73133 7.342 4.61402 7.26912C4.4967 7.19625 4.40178 7.0924 4.33972 6.96902C4.27767 6.84564 4.2509 6.70752 4.26235 6.56989C4.27379 6.43226 4.32301 6.30046 4.40459 6.18902C4.86081 5.56833 5.38881 5.00374 5.97759 4.50701C6.0529 4.44345 6.14 4.39535 6.2339 4.36545C6.32781 4.33555 6.42668 4.32444 6.52487 4.33275C6.62307 4.34106 6.71867 4.36863 6.80622 4.41389C6.89376 4.45915 6.97152 4.5212 7.03508 4.59652C7.09864 4.67183 7.14675 4.75893 7.17665 4.85283C7.20655 4.94674 7.21766 5.0456 7.20935 5.1438C7.20104 5.242 7.17348 5.3376 7.12822 5.42514C7.08296 5.51269 7.0209 5.59046 6.94559 5.65402C6.44706 6.07351 6.00025 6.55087 5.6146 7.07601C5.54437 7.17163 5.45245 7.24922 5.34641 7.30242C5.24037 7.35561 5.12323 7.38289 5.00459 7.38201Z" fill="black"/>
<path d="M3.25102 13.3296C3.06189 13.3296 2.87975 13.2581 2.74119 13.1294C2.60263 13.0006 2.51791 12.8243 2.50402 12.6356C2.42392 11.5296 2.53281 10.4181 2.82601 9.34864C2.88146 9.1604 3.00848 9.00138 3.17982 8.90571C3.35115 8.81004 3.55316 8.78534 3.7425 8.8369C3.93184 8.88845 4.09344 9.01216 4.19262 9.18149C4.2918 9.35082 4.32066 9.55227 4.27302 9.74264C4.02455 10.6474 3.93221 11.5879 4.00001 12.5236C4.01378 12.7214 3.94874 12.9165 3.81907 13.0664C3.6894 13.2163 3.50567 13.3088 3.30802 13.3236L3.25102 13.3296Z" fill="black"/>
<path d="M7.07779 20.1119C6.92525 20.112 6.77629 20.0656 6.65079 19.9789C5.16754 18.9506 3.99826 17.5314 3.27278 15.8789C3.22789 15.7879 3.20191 15.6888 3.19641 15.5875C3.19092 15.4862 3.20602 15.3849 3.24082 15.2896C3.27561 15.1943 3.32937 15.1071 3.39884 15.0332C3.46831 14.9593 3.55205 14.9002 3.64499 14.8596C3.73793 14.819 3.83815 14.7977 3.93958 14.7969C4.041 14.7961 4.14153 14.8159 4.23508 14.8551C4.32863 14.8943 4.41327 14.9521 4.48386 15.0249C4.55445 15.0977 4.60954 15.1841 4.64579 15.2789C5.25982 16.677 6.24949 17.8774 7.50479 18.7469C7.63638 18.8378 7.73544 18.9684 7.78752 19.1196C7.83961 19.2709 7.84197 19.4348 7.79428 19.5875C7.74659 19.7401 7.65134 19.8736 7.52243 19.9683C7.39353 20.063 7.23774 20.114 7.07779 20.1139V20.1119Z" fill="black"/>
<path d="M12.2384 21.7498C11.5195 21.75 10.8028 21.6705 10.1014 21.5128C9.90725 21.4692 9.73839 21.3502 9.63197 21.1821C9.52554 21.014 9.49025 20.8105 9.53388 20.6163C9.57751 20.4222 9.69648 20.2533 9.8646 20.1469C10.0327 20.0405 10.2362 20.0052 10.4304 20.0488C11.6228 20.317 12.8599 20.3167 14.0521 20.0481C15.2444 19.7796 16.3621 19.2493 17.3244 18.4958C17.481 18.373 17.68 18.3175 17.8775 18.3414C18.0751 18.3653 18.2551 18.4667 18.3779 18.6233C18.5007 18.7799 18.5562 18.9789 18.5323 19.1765C18.5084 19.374 18.407 19.554 18.2504 19.6768C16.7312 20.8689 14.8912 21.5812 12.9654 21.7228C12.7234 21.7408 12.4804 21.7498 12.2384 21.7498Z" fill="black"/>
<path d="M19.8737 17.4751C19.7402 17.475 19.6091 17.4394 19.494 17.3717C19.3789 17.3041 19.2839 17.207 19.2189 17.0904C19.1538 16.9738 19.1211 16.8419 19.1241 16.7084C19.127 16.575 19.1656 16.4447 19.2357 16.3311C20.022 15.0588 20.4473 13.5965 20.4662 12.101C20.4851 10.6055 20.0969 9.13295 19.3431 7.84116C18.5892 6.54937 17.4982 5.48695 16.1869 4.7677C14.8755 4.04844 13.3932 3.69944 11.8987 3.75807C11.6998 3.76576 11.506 3.69412 11.3599 3.55891C11.2138 3.4237 11.1274 3.23599 11.1197 3.03708C11.112 2.83816 11.1836 2.64434 11.3189 2.49825C11.4541 2.35216 11.6418 2.26576 11.8407 2.25807C13.6081 2.18608 15.3618 2.59691 16.9133 3.44644C18.4648 4.29597 19.7556 5.5521 20.6471 7.07993C21.5385 8.60776 21.9969 10.3496 21.9731 12.1183C21.9492 13.887 21.444 15.6158 20.5117 17.1191C20.4446 17.2279 20.3507 17.3178 20.239 17.3801C20.1274 17.4425 20.0016 17.4751 19.8737 17.4751Z" fill="black"/>
<path d="M12.2276 16.801C12.1022 16.8008 11.9787 16.7691 11.8686 16.709C11.7356 16.637 8.59963 14.909 7.81663 12.473C7.66058 12.0601 7.58817 11.6204 7.6036 11.1793C7.61903 10.7382 7.72201 10.3045 7.90653 9.90358C8.09105 9.50263 8.35343 9.14236 8.67843 8.84372C9.00342 8.54508 9.38454 8.31403 9.79963 8.164C10.6045 7.90599 11.4788 7.97792 12.2306 8.36399C12.979 7.98341 13.8468 7.9116 14.6476 8.164C15.0637 8.31322 15.4458 8.54376 15.7719 8.8422C16.0979 9.14064 16.3612 9.501 16.5465 9.90226C16.7319 10.3035 16.8354 10.7377 16.8512 11.1794C16.8671 11.6211 16.7948 12.0615 16.6386 12.475C15.8826 14.875 12.7236 16.638 12.5896 16.711C12.4786 16.7712 12.354 16.8022 12.2276 16.801ZM9.24462 12.014C9.67662 13.355 11.3076 14.602 12.2266 15.179C13.1516 14.596 14.7926 13.341 15.2086 12.018C15.3038 11.7922 15.3529 11.5496 15.3532 11.3046C15.3534 11.0595 15.3048 10.8168 15.2101 10.5908C15.1153 10.3648 14.9765 10.1599 14.8016 9.98826C14.6267 9.81658 14.4194 9.68153 14.1916 9.591C13.9363 9.51168 13.6658 9.4937 13.4023 9.53853C13.1387 9.58336 12.8894 9.68972 12.6746 9.84899C12.5449 9.94651 12.3869 9.99925 12.2246 9.99925C12.0623 9.99925 11.9044 9.94651 11.7746 9.84899C11.56 9.68826 11.3101 9.58116 11.0457 9.53663C10.7813 9.4921 10.5101 9.51143 10.2546 9.593C10.0283 9.68424 9.82225 9.81956 9.64863 9.9911C9.475 10.1626 9.33721 10.367 9.24323 10.5922C9.14926 10.8175 9.10098 11.0592 9.10122 11.3033C9.10146 11.5473 9.1502 11.7889 9.24462 12.014Z" fill="black"/>
</svg>