<svg width="25" height="24" viewBox="0 0 25 24" fill="none" xmlns="http://www.w3.org/2000/svg">
<path d="M8.63281 20.3984H8.64248C9.26219 20.6556 9.9196 20.8374 10.5963 20.9418" stroke="black" stroke-width="1.5" stroke-linecap="round" stroke-linejoin="round"/>
<path d="M6.19214 18.9108C5.76289 18.5579 5.36264 18.1577 5.00977 17.7188" stroke="black" stroke-width="1.5" stroke-linecap="round" stroke-linejoin="round"/>
<path d="M3.57027 15.2414C3.35082 14.6691 3.1797 14.0591 3.08398 13.4297" stroke="black" stroke-width="1.5" stroke-linecap="round" stroke-linejoin="round"/>
<path d="M3.62731 8.60547C3.37015 9.22517 3.1884 9.88258 3.08398 10.569" stroke="black" stroke-width="1.5" stroke-linecap="round" stroke-linejoin="round"/>
<path d="M6.30718 4.97266C5.86826 5.3352 5.46801 5.72578 5.10547 6.15503" stroke="black" stroke-width="1.5" stroke-linecap="round" stroke-linejoin="round"/>
<path d="M10.5969 3.05859C9.97719 3.1543 9.36716 3.31672 8.78516 3.54488" stroke="black" stroke-width="1.5" stroke-linecap="round" stroke-linejoin="round"/>
<path d="M13.457 3.05859C14.1338 3.16397 14.7922 3.34476 15.4119 3.60192C16.3081 3.9548 17.1366 4.46042 17.8617 5.08013C18.3006 5.4417 18.7008 5.84292 19.0537 6.28087C19.6541 7.01562 20.1404 7.84512 20.4836 8.75002C20.7127 9.33202 20.8742 9.94206 20.9699 10.5714C21.0462 11.0384 21.0839 11.515 21.0839 12.0013" stroke="black" stroke-width="1.5" stroke-linecap="round" stroke-linejoin="round"/>
<path d="M20.4265 15.375V15.3847C20.0737 16.2809 19.568 17.1007 18.9483 17.8248C18.5955 18.2637 18.1855 18.664 17.7476 19.0169C17.0128 19.6172 16.1737 20.1132 15.2688 20.4564C14.6868 20.6758 14.0767 20.847 13.457 20.9427" stroke="black" stroke-width="1.5" stroke-linecap="round" stroke-linejoin="round"/>
<path d="M12.0814 15.4679V8.53125M12.0814 15.4679L14.788 12.7522M12.0814 15.4679L9.37695 12.7522" stroke="black" stroke-width="1.5" stroke-linecap="round" stroke-linejoin="round"/>
</svg>