<svg width="25" height="24" viewBox="0 0 25 24" fill="none" xmlns="http://www.w3.org/2000/svg">
<path d="M9.84547 11.1289C8.91647 11.1289 8.81647 11.9119 8.81647 12.2489V15.2069C8.81647 15.5439 8.91647 16.3269 9.84547 16.3269H16.1155C17.0425 16.3269 17.1435 15.5439 17.1435 15.2069V12.2489C17.1435 11.9119 17.0425 11.1289 16.1155 11.1289H9.84547Z" fill="black"/>
<path fill-rule="evenodd" clip-rule="evenodd" d="M17.1965 21.5H8.76247C5.60347 21.5 3.48047 19.279 3.48047 15.974V8.026C3.48047 4.721 5.60347 2.5 8.76247 2.5H17.1975C20.3575 2.5 22.4805 4.721 22.4805 8.026V15.974C22.4805 19.279 20.3565 21.5 17.1965 21.5ZM17.3777 7.67389H8.58368C8.16968 7.67389 7.83368 7.33789 7.83368 6.92389C7.83368 6.50989 8.16968 6.17389 8.58368 6.17389H17.3777C17.7917 6.17389 18.1277 6.50989 18.1277 6.92389C18.1277 7.33789 17.7917 7.67389 17.3777 7.67389ZM16.1155 17.8269H9.84547C8.35647 17.8269 7.31647 16.7499 7.31647 15.2069V12.2489C7.31647 10.7069 8.35647 9.62891 9.84547 9.62891H16.1155C17.6035 9.62891 18.6435 10.7069 18.6435 12.2489V15.2069C18.6435 16.7499 17.6035 17.8269 16.1155 17.8269Z" fill="black"/>
</svg>