<svg width="25" height="24" viewBox="0 0 25 24" fill="none" xmlns="http://www.w3.org/2000/svg">
<path d="M8.76263 3H17.1973C20.1454 3 21.9805 5.08119 21.9805 8.02638V15.9736C21.9805 18.9188 20.1454 21 17.1964 21H8.76263C5.81452 21 3.98047 18.9188 3.98047 15.9736V8.02638C3.98047 5.08119 5.82328 3 8.76263 3Z" stroke="black" stroke-width="1.5" stroke-linecap="round" stroke-linejoin="round"/>
<path fill-rule="evenodd" clip-rule="evenodd" d="M16.1148 10.3789H9.84597C8.75235 10.3789 8.06641 11.1534 8.06641 12.249V15.2068C8.06641 16.3024 8.74943 17.0769 9.84597 17.0769H16.1148C17.2124 17.0769 17.8944 16.3024 17.8944 15.2068V12.249C17.8944 11.1534 17.2124 10.3789 16.1148 10.3789Z" stroke="black" stroke-width="1.5" stroke-linecap="round" stroke-linejoin="round"/>
<path d="M17.3777 6.92383H8.58398" stroke="black" stroke-width="1.5" stroke-linecap="round" stroke-linejoin="round"/>
</svg>