<svg width="25" height="24" viewBox="0 0 25 24" fill="none" xmlns="http://www.w3.org/2000/svg">
<path d="M8.88281 20.3984H8.89248C9.51219 20.6556 10.1696 20.8374 10.8463 20.9418" stroke="black" stroke-width="1.5" stroke-linecap="round" stroke-linejoin="round"/>
<path d="M6.44214 18.9108C6.01289 18.5579 5.61264 18.1577 5.25977 17.7188" stroke="black" stroke-width="1.5" stroke-linecap="round" stroke-linejoin="round"/>
<path d="M3.82027 15.2414C3.60082 14.6691 3.4297 14.0591 3.33398 13.4297" stroke="black" stroke-width="1.5" stroke-linecap="round" stroke-linejoin="round"/>
<path d="M3.87731 8.60547C3.62015 9.22517 3.4384 9.88258 3.33398 10.569" stroke="black" stroke-width="1.5" stroke-linecap="round" stroke-linejoin="round"/>
<path d="M6.55718 4.97266C6.11826 5.3352 5.71801 5.72578 5.35547 6.15503" stroke="black" stroke-width="1.5" stroke-linecap="round" stroke-linejoin="round"/>
<path d="M10.8469 3.05859C10.2272 3.1543 9.61716 3.31672 9.03516 3.54488" stroke="black" stroke-width="1.5" stroke-linecap="round" stroke-linejoin="round"/>
<path opacity="0.4" d="M13.707 3.05859C14.3838 3.16397 15.0422 3.34476 15.6619 3.60192C16.5581 3.9548 17.3866 4.46042 18.1117 5.08013C18.5506 5.4417 18.9508 5.84292 19.3037 6.28087C19.9041 7.01562 20.3904 7.84512 20.7336 8.75002C20.9627 9.33202 21.1242 9.94206 21.2199 10.5714C21.2962 11.0384 21.3339 11.515 21.3339 12.0013C21.3339 12.4876 21.2962 12.9642 21.2199 13.4312C21.1145 14.1176 20.9337 14.7566 20.6765 15.3763V15.386C20.3237 16.2822 19.818 17.102 19.1983 17.8261C18.8455 18.2651 18.4355 18.6653 17.9976 19.0182C17.2628 19.6185 16.4237 20.1145 15.5188 20.4577C14.9368 20.6772 14.3267 20.8483 13.707 20.944" stroke="black" stroke-width="1.5" stroke-linecap="round" stroke-linejoin="round"/>
<path d="M12.3314 15.4679V8.53125M12.3314 15.4679L15.038 12.7522M12.3314 15.4679L9.62695 12.7522" stroke="black" stroke-width="1.5" stroke-linecap="round" stroke-linejoin="round"/>
</svg>