<svg width="25" height="24" viewBox="0 0 25 24" fill="none" xmlns="http://www.w3.org/2000/svg">
<path fill-rule="evenodd" clip-rule="evenodd" d="M12.9805 3.75C8.42376 3.75 4.73047 7.44329 4.73047 12C4.73047 16.5558 8.42382 20.25 12.9805 20.25C17.5371 20.25 21.2305 16.5558 21.2305 12C21.2305 7.44329 17.5372 3.75 12.9805 3.75ZM3.23047 12C3.23047 6.61487 7.59534 2.25 12.9805 2.25C18.3656 2.25 22.7305 6.61487 22.7305 12C22.7305 17.3841 18.3657 21.75 12.9805 21.75C7.59528 21.75 3.23047 17.3841 3.23047 12Z" fill="black"/>
<path fill-rule="evenodd" clip-rule="evenodd" d="M12.9805 2.25C13.3947 2.25 13.7305 2.58579 13.7305 3V5.47427C13.7305 5.88848 13.3947 6.22427 12.9805 6.22427C12.5663 6.22427 12.2305 5.88848 12.2305 5.47427V3C12.2305 2.58579 12.5663 2.25 12.9805 2.25ZM12.9805 17.9991C13.3947 17.9991 13.7305 18.3348 13.7305 18.7491V21C13.7305 21.4142 13.3947 21.75 12.9805 21.75C12.5663 21.75 12.2305 21.4142 12.2305 21V18.7491C12.2305 18.3348 12.5663 17.9991 12.9805 17.9991Z" fill="black"/>
<path fill-rule="evenodd" clip-rule="evenodd" d="M3.23047 12C3.23047 11.5858 3.56626 11.25 3.98047 11.25H6.45571C6.86993 11.25 7.20571 11.5858 7.20571 12C7.20571 12.4142 6.86993 12.75 6.45571 12.75H3.98047C3.56626 12.75 3.23047 12.4142 3.23047 12ZM18.9805 12C18.9805 11.5858 19.3163 11.25 19.7305 11.25H21.9805C22.3947 11.25 22.7305 11.5858 22.7305 12C22.7305 12.4142 22.3947 12.75 21.9805 12.75H19.7305C19.3163 12.75 18.9805 12.4142 18.9805 12Z" fill="black"/>
<path fill-rule="evenodd" clip-rule="evenodd" d="M12.5063 8.67521C12.7825 8.44941 13.1795 8.44941 13.4557 8.67521C14.0022 9.12197 14.5126 9.71805 14.9121 10.3137C15.3055 10.9002 15.6341 11.55 15.761 12.1171C15.8998 12.7378 15.8071 13.582 15.3988 14.2888C14.9632 15.0427 14.1652 15.6374 12.981 15.6374C11.7968 15.6374 10.9988 15.0427 10.5632 14.2888C10.1548 13.582 10.0621 12.7378 10.201 12.1171C10.3278 11.55 10.6565 10.9002 11.0498 10.3137C11.4494 9.71805 11.9598 9.12197 12.5063 8.67521ZM12.2956 11.1493C11.9526 11.6606 11.7345 12.1331 11.6648 12.4446C11.6071 12.7025 11.6442 13.1615 11.862 13.5384C12.0525 13.8681 12.3769 14.1374 12.981 14.1374C13.5851 14.1374 13.9094 13.8681 14.1 13.5384C14.3177 13.1615 14.3549 12.7025 14.2972 12.4446C14.2275 12.1331 14.0093 11.6606 13.6664 11.1493C13.4607 10.8426 13.2257 10.5453 12.981 10.2843C12.7362 10.5453 12.5012 10.8426 12.2956 11.1493Z" fill="black"/>
</svg>