<svg width="24" height="24" viewBox="0 0 24 24" fill="none" xmlns="http://www.w3.org/2000/svg">
<path fill-rule="evenodd" clip-rule="evenodd" d="M16.7257 10.6405C16.7257 9.88936 16.1167 9.28125 15.3655 9.28125H13.5938V11.9997H15.3655C16.1167 11.9997 16.7257 11.3916 16.7257 10.6405Z" stroke="black" stroke-width="1.5" stroke-linecap="round" stroke-linejoin="round"/>
<path fill-rule="evenodd" clip-rule="evenodd" d="M16.7257 13.3592C16.7257 12.6081 16.1167 12 15.3655 12H13.5938V14.7185H15.3655C16.1167 14.7185 16.7257 14.1104 16.7257 13.3592Z" stroke="black" stroke-width="1.5" stroke-linecap="round" stroke-linejoin="round"/>
<path fill-rule="evenodd" clip-rule="evenodd" d="M8.38361 14.6842H7.27734V9.28906H8.38361C9.87324 9.28906 11.0807 10.4965 11.0807 11.9871C11.0807 13.4758 9.87324 14.6842 8.38361 14.6842Z" stroke="black" stroke-width="1.5" stroke-linecap="round" stroke-linejoin="round"/>
<path d="M12 21C7.02908 21 3 16.9699 3 12C3 7.02908 7.02908 3 12 3C16.9709 3 21 7.02908 21 12C21 15.8466 18.5865 19.1301 15.1908 20.418" stroke="black" stroke-width="1.5" stroke-linecap="round" stroke-linejoin="round"/>
</svg>