<svg width="25" height="24" viewBox="0 0 25 24" fill="none" xmlns="http://www.w3.org/2000/svg">
<path fill-rule="evenodd" clip-rule="evenodd" d="M17.9955 15.7578C18.4097 15.7576 18.7457 16.0933 18.7458 16.5075L18.7465 18.0037H20.2422C20.6564 18.0037 20.9922 18.3394 20.9922 18.7537C20.9922 19.1679 20.6564 19.5037 20.2422 19.5037H18.7471L18.7478 20.9992C18.7479 21.4135 18.4123 21.7494 17.9981 21.7496C17.5839 21.7497 17.2479 21.4141 17.2478 20.9999L17.2471 19.5033L15.7497 19.5027C15.3355 19.5025 14.9998 19.1666 15 18.7524C15.0002 18.3382 15.3361 18.0025 15.7503 18.0027L17.2465 18.0033L17.2458 16.5081C17.2457 16.0939 17.5813 15.758 17.9955 15.7578Z" fill="black"/>
<path fill-rule="evenodd" clip-rule="evenodd" d="M4.2793 5.11816C4.69351 5.11816 5.0293 5.45395 5.0293 5.86816V11.5813C5.02978 11.5847 5.03049 11.5893 5.03153 11.5951C5.0368 11.6243 5.05036 11.6828 5.08375 11.7621C5.14847 11.9158 5.29782 12.1718 5.65063 12.4511C6.3673 13.0184 7.98137 13.7233 11.5259 13.7233C15.0705 13.7233 16.6845 13.0184 17.4012 12.4511C17.754 12.1718 17.9034 11.9158 17.9681 11.762C18.0015 11.6828 18.015 11.6242 18.0203 11.595C18.0213 11.5892 18.0221 11.5846 18.0225 11.5812V5.86816C18.0225 5.45395 18.3583 5.11816 18.7725 5.11816C19.1868 5.11816 19.5225 5.45395 19.5225 5.86816V11.6049H18.7725C19.5225 11.6049 19.5225 11.6058 19.5225 11.6068L19.5225 11.6088L19.5225 11.6129L19.5224 11.622L19.5217 11.6437C19.521 11.6596 19.5199 11.6785 19.5181 11.7001C19.5145 11.7433 19.508 11.7976 19.4965 11.8614C19.4734 11.989 19.4304 12.1545 19.3505 12.3441C19.1888 12.7282 18.8852 13.1893 18.3322 13.6271C17.2372 14.494 15.228 15.2233 11.5259 15.2233C7.82385 15.2233 5.81461 14.494 4.71962 13.6272C4.1666 13.1894 3.86304 12.7283 3.70131 12.3442C3.62146 12.1546 3.57841 11.9891 3.55537 11.8615C3.54386 11.7977 3.53735 11.7434 3.53371 11.7002C3.53189 11.6786 3.53079 11.6597 3.53014 11.6438L3.52948 11.6221L3.52934 11.613L3.52931 11.6089L3.5293 11.6069C3.5293 11.606 3.5293 11.605 4.2793 11.605H3.5293V5.86816C3.5293 5.45395 3.86508 5.11816 4.2793 5.11816Z" fill="black"/>
<path fill-rule="evenodd" clip-rule="evenodd" d="M4.2793 10.8555C4.69351 10.8555 5.0293 11.1913 5.0293 11.6055V17.3185C5.02978 17.3219 5.0305 17.3265 5.03153 17.3323C5.0368 17.3615 5.05037 17.4201 5.08375 17.4993C5.14848 17.6531 5.29783 17.9091 5.65064 18.1884C6.36731 18.7557 7.98137 19.4606 11.5259 19.4606C11.9401 19.4606 12.2759 19.7964 12.2759 20.2106C12.2759 20.6248 11.9401 20.9606 11.5259 20.9606C7.82384 20.9606 5.8146 20.2313 4.71961 19.3644C4.16659 18.9267 3.86303 18.4655 3.7013 18.0814C3.62146 17.8918 3.57841 17.7263 3.55537 17.5987C3.54386 17.5349 3.53735 17.4806 3.53371 17.4374C3.53189 17.4158 3.53079 17.3969 3.53014 17.381L3.52948 17.3593L3.52934 17.3502L3.52931 17.3461L3.5293 17.3441C3.5293 17.3432 3.5293 17.3422 4.2793 17.3422H3.5293V11.6055C3.5293 11.1913 3.86508 10.8555 4.2793 10.8555Z" fill="black"/>
<path fill-rule="evenodd" clip-rule="evenodd" d="M5.36373 5.31323C5.09045 5.57132 5.0293 5.7681 5.0293 5.89472C5.0293 6.02133 5.09045 6.21811 5.36373 6.47621C5.63856 6.73576 6.07654 7.00405 6.68 7.2451C7.88273 7.72554 9.5957 8.03943 11.5259 8.03943C13.4561 8.03943 15.1691 7.72554 16.3718 7.2451C16.9753 7.00405 17.4133 6.73576 17.6881 6.47621C17.9614 6.21811 18.0225 6.02133 18.0225 5.89472C18.0225 5.7681 17.9614 5.57132 17.6881 5.31323C17.4133 5.05368 16.9753 4.78539 16.3718 4.54433C15.1691 4.06389 13.4561 3.75 11.5259 3.75C9.5957 3.75 7.88273 4.06389 6.68 4.54433C6.07654 4.78539 5.63856 5.05368 5.36373 5.31323ZM6.12357 3.15136C7.54359 2.58411 9.45394 2.25 11.5259 2.25C13.5979 2.25 15.5082 2.58411 16.9283 3.15136C17.6362 3.43414 18.2594 3.78961 18.718 4.2227C19.1781 4.65724 19.5225 5.22198 19.5225 5.89472C19.5225 6.56746 19.1781 7.13219 18.718 7.56674C18.2594 7.99983 17.6362 8.3553 16.9283 8.63808C15.5082 9.20532 13.5979 9.53943 11.5259 9.53943C9.45394 9.53943 7.54359 9.20532 6.12357 8.63808C5.41565 8.3553 4.79238 7.99983 4.33381 7.56674C3.87369 7.13219 3.5293 6.56746 3.5293 5.89472C3.5293 5.22198 3.87369 4.65724 4.33381 4.2227C4.79238 3.78961 5.41565 3.43414 6.12357 3.15136Z" fill="black"/>
</svg>