<svg width="25" height="24" viewBox="0 0 25 24" fill="none" xmlns="http://www.w3.org/2000/svg">
<path fill-rule="evenodd" clip-rule="evenodd" d="M20.9897 14.2705C21.4039 14.2705 21.7397 14.6063 21.7397 15.0205V21.0003C21.7397 21.4146 21.4039 21.7503 20.9897 21.7503C20.5755 21.7503 20.2397 21.4146 20.2397 21.0003V15.0205C20.2397 14.6063 20.5755 14.2705 20.9897 14.2705ZM18.0007 16.2638C18.4149 16.2638 18.7507 16.5996 18.7507 17.0138V21C18.7507 21.4143 18.4149 21.75 18.0007 21.75C17.5865 21.75 17.2507 21.4143 17.2507 21V17.0138C17.2507 16.5996 17.5865 16.2638 18.0007 16.2638ZM15.0098 18.2562C15.424 18.2562 15.7598 18.5919 15.7598 19.0062V20.9998C15.7598 21.414 15.424 21.7498 15.0098 21.7498C14.5956 21.7498 14.2598 21.414 14.2598 20.9998V19.0062C14.2598 18.5919 14.5956 18.2562 15.0098 18.2562Z" fill="black"/>
<path fill-rule="evenodd" clip-rule="evenodd" d="M3.51172 5.35449C3.92593 5.35449 4.26172 5.69028 4.26172 6.10449V12.0396C4.26227 12.0437 4.26314 12.0496 4.2645 12.0571C4.27032 12.0894 4.28499 12.1523 4.32056 12.2369C4.38968 12.401 4.54777 12.6709 4.91803 12.9641C5.66956 13.5593 7.35335 14.292 11.0374 14.292C11.4516 14.292 11.7874 14.6278 11.7874 15.042C11.7874 15.4562 11.4516 15.792 11.0374 15.792C7.19574 15.792 5.1167 15.0348 3.98682 14.1401C3.41637 13.6883 3.10412 13.2133 2.93805 12.8188C2.85604 12.624 2.81191 12.4541 2.78833 12.3234C2.77655 12.2581 2.76991 12.2026 2.7662 12.1586C2.76435 12.1366 2.76323 12.1174 2.76257 12.1013L2.7619 12.0794L2.76176 12.0702L2.76173 12.0661L2.76172 12.0641C2.76172 12.0632 2.76172 12.0622 3.51172 12.0622H2.76172V6.10449C2.76172 5.69028 3.09751 5.35449 3.51172 5.35449Z" fill="black"/>
<path fill-rule="evenodd" clip-rule="evenodd" d="M18.5635 5.35449C18.9777 5.35449 19.3135 5.69028 19.3135 6.10449V11.0695C19.3135 11.4837 18.9777 11.8195 18.5635 11.8195C18.1493 11.8195 17.8135 11.4837 17.8135 11.0695V6.10449C17.8135 5.69028 18.1493 5.35449 18.5635 5.35449Z" fill="black"/>
<path fill-rule="evenodd" clip-rule="evenodd" d="M3.51172 11.3125C3.92593 11.3125 4.26172 11.6483 4.26172 12.0625V17.9985C4.26227 18.0026 4.26314 18.0085 4.2645 18.016C4.27031 18.0482 4.28497 18.1111 4.32053 18.1955C4.38962 18.3596 4.54769 18.6294 4.91794 18.9225C5.66949 19.5175 7.35331 20.25 11.0374 20.25C11.4516 20.25 11.7874 20.5858 11.7874 21C11.7874 21.4142 11.4516 21.75 11.0374 21.75C7.19578 21.75 5.11678 20.9931 3.98691 20.0986C3.41645 19.647 3.10417 19.1721 2.93808 18.7776C2.85606 18.5828 2.81192 18.413 2.78834 18.2823C2.77656 18.2171 2.76991 18.1616 2.7662 18.1175C2.76435 18.0955 2.76323 18.0764 2.76257 18.0602L2.7619 18.0383L2.76176 18.0292L2.76173 18.025L2.76172 18.023C2.76172 18.0221 2.76172 18.0212 3.51172 18.0212H2.76172V12.0625C2.76172 11.6483 3.09751 11.3125 3.51172 11.3125Z" fill="black"/>
<path fill-rule="evenodd" clip-rule="evenodd" d="M4.61993 5.39432C4.33311 5.66787 4.26172 5.88333 4.26172 6.03163C4.26172 6.17994 4.33311 6.39539 4.61993 6.66895C4.90858 6.94424 5.36615 7.22673 5.99344 7.47978C7.24404 7.98427 9.02329 8.31326 11.0269 8.31326C13.0305 8.31326 14.8097 7.98427 16.0603 7.47978C16.6876 7.22673 17.1452 6.94424 17.4339 6.66895C17.7207 6.39539 17.7921 6.17994 17.7921 6.03163C17.7921 5.88333 17.7207 5.66787 17.4339 5.39432C17.1452 5.11902 16.6876 4.83653 16.0603 4.58348C14.8097 4.07899 13.0305 3.75 11.0269 3.75C9.02329 3.75 7.24404 4.07899 5.99344 4.58348C5.36615 4.83653 4.90858 5.11902 4.61993 5.39432ZM5.43228 3.19241C6.90164 2.59967 8.87998 2.25 11.0269 2.25C13.1738 2.25 15.1521 2.59967 16.6215 3.19241C17.3542 3.48797 17.9972 3.85875 18.4691 4.30885C18.9429 4.7607 19.2921 5.34277 19.2921 6.03163C19.2921 6.72049 18.9429 7.30256 18.4691 7.75441C17.9972 8.20451 17.3542 8.57529 16.6215 8.87086C15.1521 9.4636 13.1738 9.81326 11.0269 9.81326C8.87998 9.81326 6.90164 9.4636 5.43228 8.87086C4.69959 8.57529 4.05659 8.20451 3.58467 7.75441C3.11091 7.30256 2.76172 6.72049 2.76172 6.03163C2.76172 5.34277 3.11091 4.7607 3.58467 4.30885C4.05659 3.85875 4.69959 3.48797 5.43228 3.19241Z" fill="black"/>
</svg>