<svg width="25" height="24" viewBox="0 0 25 24" fill="none" xmlns="http://www.w3.org/2000/svg">
<path d="M12.1136 9.07312C16.2855 9.07312 19.6676 7.7088 19.6676 6.02582C19.6676 4.34284 16.2855 2.97852 12.1136 2.97852C7.94159 2.97852 4.55957 4.34284 4.55957 6.02582C4.55957 7.7088 7.94159 9.07312 12.1136 9.07312Z" stroke="black" stroke-width="1.5"/>
<path d="M4.55957 6.02734V18.014C4.55957 18.014 4.55957 21.0221 12.1567 21.0221" stroke="black" stroke-width="1.5" stroke-linecap="round" stroke-linejoin="round"/>
<path d="M19.6678 11.5571V5.98438" stroke="black" stroke-width="1.5" stroke-linecap="round" stroke-linejoin="round"/>
<path opacity="0.4" d="M4.55957 11.999C4.55957 11.999 4.55957 15.0061 12.1567 15.0061" stroke="black" stroke-width="1.5" stroke-linecap="round" stroke-linejoin="round"/>
<path opacity="0.4" d="M14.8076 17.1802L17.6245 14.3633M17.6245 14.3633L20.4414 17.1802M17.6245 14.3633L17.6249 21.0214" stroke="black" stroke-width="1.5" stroke-linecap="round" stroke-linejoin="round"/>
</svg>