<svg width="24" height="24" viewBox="0 0 24 24" fill="none" xmlns="http://www.w3.org/2000/svg">
<path fill-rule="evenodd" clip-rule="evenodd" d="M19.0931 11.5274C19.2114 11.5348 19.3133 11.442 19.3125 11.3234C19.3063 10.401 19.3047 9.12405 19.3043 8.51064C19.3042 8.35445 19.1349 8.26229 19.002 8.3444C18.933 8.38705 18.8644 8.42769 18.7941 8.46491C17.5041 9.19491 16.1041 9.53491 14.6741 9.74491C14.0141 9.85491 13.3341 9.91491 12.6641 9.95491C11.3741 10.0449 10.0741 10.0049 8.78414 9.85491C7.84414 9.75491 6.92414 9.58491 6.01414 9.32491C5.28414 9.12491 4.58414 8.86491 3.92414 8.48491C3.84048 8.43843 3.75897 8.38979 3.67562 8.33899C3.54287 8.25809 3.37411 8.35219 3.37403 8.50765C3.37364 9.22776 3.37191 10.8689 3.36414 11.7549C3.36414 12.1949 3.50414 12.5349 3.78414 12.8349C4.20414 13.2749 4.71414 13.5549 5.24414 13.7849C6.03414 14.1249 6.84414 14.3349 7.67414 14.4949C8.48414 14.6549 9.29414 14.7549 10.1141 14.7949C10.8017 14.8331 11.4802 14.8439 12.167 14.8187C12.2283 14.8165 12.285 14.7857 12.3215 14.7363C13.7658 12.7809 16.079 11.5149 18.6941 11.5149C18.8295 11.5149 18.9607 11.5191 19.0931 11.5274Z" fill="black"/>
<path fill-rule="evenodd" clip-rule="evenodd" d="M11.0941 16.605C10.2241 16.605 9.35413 16.555 8.48413 16.425C7.75413 16.315 7.01413 16.175 6.29413 16.005C5.44413 15.805 4.61413 15.505 3.84413 15.055C3.78705 15.0208 3.72998 14.9851 3.6718 14.9485C3.54086 14.8661 3.37476 14.9596 3.37517 15.1142C3.37709 15.8278 3.37968 17.4542 3.36413 18.325C3.35413 18.845 3.55413 19.235 3.90413 19.555C4.30413 19.935 4.77413 20.185 5.26413 20.395C6.13413 20.765 7.04413 20.985 7.96413 21.145C8.84413 21.295 9.72413 21.385 10.6041 21.405C10.6653 21.4091 10.7249 21.4115 10.7841 21.4129C10.9154 21.4161 11.011 21.2906 10.9816 21.1626C10.8521 20.5996 10.7841 20.0148 10.7841 19.415C10.7841 18.4985 10.9384 17.6248 11.2311 16.8019C11.265 16.7066 11.1953 16.605 11.0941 16.605Z" fill="black"/>
<path fill-rule="evenodd" clip-rule="evenodd" d="M3.88395 6.34898C4.34195 6.78698 4.88695 7.05898 5.45195 7.28598C6.47095 7.69498 7.52995 7.91898 8.60395 8.06398C9.50995 8.18598 10.421 8.24798 11.156 8.23698C12.87 8.23898 14.39 8.09398 15.887 7.71698C16.632 7.52898 17.361 7.28398 18.043 6.89698C18.418 6.68498 18.768 6.43598 19.039 6.07398C19.397 5.59398 19.403 5.03498 19.038 4.56198C18.914 4.39998 18.769 4.24998 18.614 4.12298C18.033 3.64798 17.364 3.37198 16.677 3.14398C15.453 2.73898 14.195 2.53898 12.923 2.44898C11.187 2.32498 9.45795 2.38798 7.73995 2.70798C6.80695 2.88098 5.89195 3.12398 5.02095 3.53498C4.55595 3.75398 4.11295 4.01498 3.75695 4.41698C3.46095 4.75098 3.28695 5.13198 3.41195 5.60898C3.49095 5.91298 3.67095 6.14598 3.88395 6.34898Z" fill="black"/>
<path fill-rule="evenodd" clip-rule="evenodd" d="M19.8859 17.8705H18.5908C18.4804 17.8705 18.3909 17.781 18.3908 17.6706L18.3899 16.3705C18.3899 15.9565 18.0539 15.6205 17.6399 15.6205C17.2259 15.6205 16.8899 15.9565 16.8899 16.3705L16.8908 17.6704C16.8909 17.7809 16.8013 17.8705 16.6908 17.8705H15.3939C14.9799 17.8705 14.6439 18.2065 14.6439 18.6205C14.6439 19.0345 14.9799 19.3705 15.3939 19.3705H16.6911C16.8015 19.3705 16.891 19.4599 16.8911 19.5703L16.8919 20.8605C16.8919 21.2745 17.2279 21.6105 17.6419 21.6105C18.0559 21.6105 18.3919 21.2745 18.3919 20.8605L18.3911 19.5706C18.391 19.4601 18.4805 19.3705 18.5911 19.3705H19.8859C20.2999 19.3705 20.6359 19.0345 20.6359 18.6205C20.6359 18.2065 20.2999 17.8705 19.8859 17.8705Z" fill="black"/>
</svg>