<svg width="25" height="24" viewBox="0 0 25 24" fill="none" xmlns="http://www.w3.org/2000/svg">
<path fill-rule="evenodd" clip-rule="evenodd" d="M17.4793 15.5782L17.0012 16.5878C16.8946 16.813 16.683 16.9706 16.4366 17.0082L15.2971 17.1822L16.1437 18.0457C16.3109 18.2163 16.3869 18.4563 16.3483 18.692L16.156 19.8663L17.1186 19.3372C17.3436 19.2135 17.6163 19.2136 17.8412 19.3373L18.8026 19.866L18.6104 18.692C18.5718 18.4563 18.6478 18.2163 18.815 18.0457L19.6616 17.1822L18.5221 17.0082C18.2757 16.9706 18.0641 16.813 17.9574 16.5878L17.4793 15.5782ZM18.4338 14.089C18.0521 13.2724 16.9066 13.2724 16.5249 14.0889L15.8162 15.5855L14.2415 15.826C13.3418 15.9632 13.0686 17.0564 13.6502 17.645L14.8066 18.8246L14.5317 20.5036C14.4046 21.29 15.2299 22.0921 16.0822 21.6185L17.4797 20.8504L18.8768 21.6187C19.7298 22.0915 20.5542 21.2904 20.427 20.5036L20.1521 18.8246L21.3084 17.6451C21.8901 17.0564 21.6171 15.9633 20.7175 15.826C20.7175 15.826 20.7174 15.826 20.7175 15.826L19.1425 15.5855L18.4338 14.089Z" fill="black"/>
<path fill-rule="evenodd" clip-rule="evenodd" d="M3.63281 5.1543C4.04703 5.1543 4.38281 5.49008 4.38281 5.9043V11.6898C4.38332 11.6934 4.38409 11.6985 4.38523 11.7048C4.39068 11.735 4.40461 11.795 4.43872 11.8761C4.50489 12.0333 4.6571 12.2938 5.0156 12.5777C5.74362 13.1542 7.38036 13.8683 10.9703 13.8683C11.3845 13.8683 11.7203 14.2041 11.7203 14.6183C11.7203 15.0325 11.3845 15.3683 10.9703 15.3683C7.22275 15.3683 5.19075 14.6298 4.08439 13.7537C3.52571 13.3113 3.21933 12.8455 3.05621 12.458C2.97566 12.2667 2.93227 12.0997 2.90906 11.9711C2.89746 11.9068 2.89091 11.8521 2.88725 11.8086C2.88542 11.7869 2.88431 11.7679 2.88366 11.7519L2.88299 11.7302L2.88285 11.7211L2.88282 11.7169L2.88281 11.715C2.88281 11.714 2.88281 11.7131 3.63281 11.7131H2.88281V5.9043C2.88281 5.49008 3.2186 5.1543 3.63281 5.1543Z" fill="black"/>
<path fill-rule="evenodd" clip-rule="evenodd" d="M18.3086 5.1543C18.7228 5.1543 19.0586 5.49008 19.0586 5.9043V10.7452C19.0586 11.1594 18.7228 11.4952 18.3086 11.4952C17.8944 11.4952 17.5586 11.1594 17.5586 10.7452V5.9043C17.5586 5.49008 17.8944 5.1543 18.3086 5.1543Z" fill="black"/>
<path fill-rule="evenodd" clip-rule="evenodd" d="M3.63281 10.9629C4.04703 10.9629 4.38281 11.2987 4.38281 11.7129V17.4992C4.38332 17.5029 4.38409 17.5079 4.38522 17.5142C4.39067 17.5443 4.40459 17.6043 4.43868 17.6853C4.50483 17.8424 4.65702 18.1029 5.01552 18.3867C5.74354 18.963 7.38032 19.6769 10.9703 19.6769C11.3845 19.6769 11.7203 20.0127 11.7203 20.4269C11.7203 20.8411 11.3845 21.1769 10.9703 21.1769C7.22279 21.1769 5.19083 20.4386 4.08448 19.5628C3.52579 19.1205 3.21938 18.6549 3.05624 18.2674C2.97568 18.0761 2.93228 17.9092 2.90906 17.7805C2.89747 17.7163 2.89091 17.6616 2.88725 17.6181C2.88542 17.5964 2.88431 17.5774 2.88366 17.5614L2.88299 17.5397L2.88285 17.5305L2.88282 17.5264L2.88281 17.5244C2.88281 17.5235 2.88281 17.5226 3.63281 17.5226H2.88281V11.7129C2.88281 11.2987 3.2186 10.9629 3.63281 10.9629Z" fill="black"/>
<path fill-rule="evenodd" clip-rule="evenodd" d="M4.72626 5.22497C4.44895 5.48946 4.38281 5.69494 4.38281 5.83278C4.38281 5.97062 4.44895 6.17611 4.72626 6.44059C5.0054 6.70682 5.44921 6.98114 6.0595 7.22733C7.2761 7.71811 9.00837 8.03861 10.9601 8.03861C12.9118 8.03861 14.6441 7.71811 15.8607 7.22733C16.471 6.98114 16.9148 6.70682 17.1939 6.44059C17.4712 6.17611 17.5374 5.97062 17.5374 5.83278C17.5374 5.69494 17.4712 5.48946 17.1939 5.22497C16.9148 4.95874 16.471 4.68443 15.8607 4.43823C14.6441 3.94746 12.9118 3.62695 10.9601 3.62695C9.00837 3.62695 7.2761 3.94746 6.0595 4.43823C5.44921 4.68443 5.0054 4.95874 4.72626 5.22497ZM5.49834 3.04716C6.93369 2.46813 8.86506 2.12695 10.9601 2.12695C13.0551 2.12695 14.9865 2.46813 16.4218 3.04716C17.1375 3.33587 17.7668 3.69848 18.2292 4.13951C18.6934 4.58229 19.0374 5.15439 19.0374 5.83278C19.0374 6.51118 18.6934 7.08328 18.2292 7.52606C17.7668 7.96709 17.1375 8.3297 16.4218 8.61841C14.9865 9.19743 13.0551 9.53861 10.9601 9.53861C8.86506 9.53861 6.93369 9.19743 5.49834 8.61841C4.78265 8.3297 4.15341 7.96709 3.691 7.52606C3.22674 7.08328 2.88281 6.51118 2.88281 5.83278C2.88281 5.15439 3.22674 4.58229 3.691 4.13951C4.15341 3.69848 4.78265 3.33587 5.49834 3.04716Z" fill="black"/>
</svg>