<svg width="24" height="24" viewBox="0 0 24 24" fill="none" xmlns="http://www.w3.org/2000/svg">
<path fill-rule="evenodd" clip-rule="evenodd" d="M5.64111 13.8077C6.43111 14.1477 7.24111 14.3577 8.07111 14.5177C8.88111 14.6777 9.69111 14.7677 10.5111 14.8177C11.2157 14.8548 11.9116 14.8575 12.607 14.8258C12.7024 14.8215 12.7804 14.7494 12.7973 14.6554C13.1856 12.4942 15.0875 10.8377 17.3511 10.8377C18.0848 10.8377 18.782 11.0124 19.3995 11.3183C19.5391 11.3874 19.7096 11.2888 19.7086 11.133C19.7031 10.2358 19.7017 9.10101 19.7013 8.5336C19.7011 8.37741 19.5308 8.28341 19.3962 8.36261C19.3281 8.40264 19.2604 8.44102 19.1911 8.47772C17.9011 9.21772 16.5011 9.54772 15.0711 9.76772C14.4111 9.86772 13.7311 9.92772 13.0611 9.97772C11.7711 10.0677 10.4711 10.0277 9.18111 9.87772C8.24111 9.76772 7.32111 9.59772 6.41111 9.34772C5.68111 9.13772 4.98111 8.88772 4.32111 8.50772C4.23722 8.45646 4.1555 8.40519 4.07191 8.35291C3.9401 8.27049 3.77108 8.36521 3.771 8.52067C3.77062 9.24252 3.7689 10.8874 3.76111 11.7677C3.76111 12.2077 3.90111 12.5577 4.18111 12.8477C4.60111 13.2977 5.11111 13.5677 5.64111 13.8077Z" fill="black"/>
<path fill-rule="evenodd" clip-rule="evenodd" d="M14.6311 18.6876C14.6311 18.4876 14.6476 18.2987 14.6723 18.1166C14.6868 18.0106 14.6184 17.9108 14.5158 17.8805C13.8913 17.6957 13.3659 17.2716 13.0531 16.7152C13.0136 16.645 12.9388 16.6008 12.8584 16.6051C12.4026 16.6292 11.9469 16.6367 11.4911 16.6276C10.6211 16.6176 9.7511 16.5776 8.8811 16.4476C8.1511 16.3376 7.4111 16.1976 6.6911 16.0276C5.8411 15.8276 5.0111 15.5276 4.2411 15.0676C4.18865 15.0361 4.13621 15.0047 4.0829 14.9723C3.94737 14.8901 3.77176 14.9859 3.77218 15.1444C3.7741 15.867 3.77655 17.4745 3.7611 18.3476C3.7511 18.8676 3.9511 19.2576 4.3011 19.5776C4.7011 19.9576 5.1711 20.2076 5.6611 20.4076C6.5311 20.7776 7.4411 21.0076 8.3611 21.1676C9.2411 21.3176 10.1211 21.3976 11.0011 21.4276C12.1637 21.4654 13.3174 21.4228 14.4621 21.266C14.5719 21.251 14.6465 21.1485 14.6383 21.0379C14.6335 20.9728 14.6311 20.9064 14.6311 20.8376C14.6311 20.4831 14.7055 20.1368 14.8467 19.8289C14.8733 19.7709 14.8737 19.7041 14.8476 19.6459C14.7148 19.3495 14.6402 19.0226 14.6311 18.6876Z" fill="black"/>
<path fill-rule="evenodd" clip-rule="evenodd" d="M4.2808 6.36656C4.7388 6.80456 5.2838 7.07656 5.8488 7.30356C6.8678 7.71256 7.9268 7.93656 9.0008 8.08156C9.9068 8.20356 10.8178 8.26556 11.5528 8.25456C13.2668 8.25656 14.7868 8.11256 16.2838 7.73456C17.0288 7.54656 17.7578 7.30156 18.4398 6.91456C18.8148 6.70256 19.1648 6.45356 19.4358 6.09156C19.7938 5.61156 19.7998 5.05256 19.4348 4.57956C19.3108 4.41756 19.1658 4.26756 19.0108 4.14056C18.4298 3.66556 17.7608 3.38956 17.0738 3.16156C15.8498 2.75656 14.5918 2.55656 13.3198 2.46656C11.5838 2.34256 9.8548 2.40556 8.1368 2.72556C7.2038 2.89856 6.2888 3.14156 5.4178 3.55256C4.9528 3.77156 4.5098 4.03256 4.1538 4.43456C3.8578 4.76856 3.6838 5.14956 3.8088 5.62656C3.8878 5.93056 4.0678 6.16356 4.2808 6.36656Z" fill="black"/>
<path fill-rule="evenodd" clip-rule="evenodd" d="M17.3539 12.5916C15.7639 12.5916 14.4699 13.8886 14.4699 15.4826C14.4699 15.8966 14.8059 16.2326 15.2199 16.2326C15.6339 16.2326 15.9699 15.8966 15.9699 15.4826C15.9699 14.7016 16.5779 14.0916 17.3539 14.0916C18.1179 14.0916 18.7389 14.7156 18.7389 15.4826C18.7389 15.6516 18.7389 16.1636 18.0129 16.5636L17.8879 16.6336C17.3209 16.9546 16.3719 17.4906 16.3859 18.6706C16.3909 19.0816 16.7259 19.4116 17.1359 19.4116H17.1459C17.5599 19.4066 17.8909 19.0676 17.8859 18.6536C17.8829 18.4036 18.0769 18.2496 18.6249 17.9406L18.7479 17.8696C19.7089 17.3426 20.2389 16.4946 20.2389 15.4826C20.2389 13.8886 18.9449 12.5916 17.3539 12.5916Z" fill="black"/>
<path fill-rule="evenodd" clip-rule="evenodd" d="M17.1361 20.0769C16.7221 20.0769 16.3861 20.4279 16.3861 20.8419C16.3861 21.2559 16.7221 21.5919 17.1361 21.5919C17.5501 21.5919 17.8861 21.2559 17.8861 20.8419V20.8119C17.8861 20.3979 17.5501 20.0769 17.1361 20.0769Z" fill="black"/>
</svg>