<svg width="24" height="24" viewBox="0 0 24 24" fill="none" xmlns="http://www.w3.org/2000/svg">
<path d="M12.0004 13.2377C7.79404 13.2377 4.38501 11.8182 4.38501 10.0669V6.16992" stroke="black" stroke-width="1.5" stroke-linecap="round"/>
<path d="M19.6151 6.17188V10.0689C19.6151 11.1369 18.3473 12.0815 16.4043 12.656" stroke="black" stroke-width="1.5" stroke-linecap="round"/>
<path d="M19.6147 9.875V13.7723C19.6147 15.5226 16.2057 16.9431 12.0002 16.9431" stroke="black" stroke-width="1.5" stroke-linecap="round"/>
<path d="M4.38477 9.875V13.7723C4.38477 14.9994 6.06049 16.0645 8.51187 16.5915" stroke="black" stroke-width="1.5" stroke-linecap="round"/>
<path d="M12.0002 21.0007C7.7938 21.0007 4.38477 19.5812 4.38477 17.8299V13.9336" stroke="black" stroke-width="1.5" stroke-linecap="round"/>
<path d="M19.6146 13.9336V17.8299C19.6146 18.9398 18.2453 19.9164 16.1719 20.4829" stroke="black" stroke-width="1.5" stroke-linecap="round"/>
<path d="M12.0002 3C7.7938 3 4.38477 4.41953 4.38477 6.1708C4.38477 7.92208 7.7938 9.34161 12.0002 9.34161C16.2056 9.34161 19.6147 7.92208 19.6147 6.1708C19.6147 5.0672 18.2609 4.09534 16.2072 3.52744" stroke="black" stroke-width="1.5" stroke-linecap="round"/>
</svg>