<svg width="24" height="24" viewBox="0 0 24 24" fill="none" xmlns="http://www.w3.org/2000/svg">
<path fill-rule="evenodd" clip-rule="evenodd" d="M19.9604 8.54714C19.9593 8.40541 19.8235 8.33278 19.7031 8.40756C19.6188 8.45995 19.5371 8.51101 19.4554 8.56207C18.1554 9.29207 16.7554 9.62207 15.3354 9.84207C14.6654 9.94207 13.9954 10.0021 13.3254 10.0521C12.0254 10.1421 10.7354 10.1021 9.44537 9.95207C8.50537 9.85207 7.57537 9.68207 6.66537 9.42207C5.94537 9.21207 5.24537 8.96207 4.58537 8.58207C4.49961 8.53442 4.41385 8.48223 4.32592 8.42767C4.19383 8.3457 4.02602 8.43956 4.02651 8.59502C4.02881 9.31719 4.03316 10.964 4.02537 11.8521C4.01537 12.2821 4.16537 12.6321 4.44537 12.9321C4.86537 13.3721 5.37537 13.6421 5.90537 13.8821C6.68537 14.2221 7.50537 14.4321 8.33537 14.5921C9.14537 14.7521 9.95537 14.8421 10.7754 14.8921C11.8975 14.957 13.0111 14.9359 14.132 14.8128C14.2826 14.7963 14.3933 14.6683 14.4012 14.5171C14.4045 14.4552 14.4095 14.3934 14.4169 14.3317C14.5951 12.85 15.858 11.6921 17.3954 11.6921C18.1807 11.6921 18.8931 11.9981 19.427 12.492C19.5679 12.6223 19.7987 12.6164 19.8708 12.4385C19.9398 12.2682 19.9754 12.0808 19.9754 11.8721C19.9674 10.9472 19.9658 9.23403 19.9604 8.54714Z" fill="black"/>
<path fill-rule="evenodd" clip-rule="evenodd" d="M14.3954 17.6819V16.908C14.3954 16.7288 14.2395 16.5898 14.0612 16.607C13.2926 16.6813 12.524 16.7107 11.7554 16.7019C10.8854 16.7019 10.0054 16.6519 9.14538 16.5219C8.40538 16.4119 7.67538 16.2719 6.94538 16.1019C6.09538 15.9019 5.27538 15.6019 4.50538 15.1519C4.44665 15.1167 4.38791 15.0799 4.32737 15.0416C4.19539 14.9581 4.0267 15.0518 4.02771 15.208C4.03232 15.9253 4.04091 17.5445 4.02538 18.4219C4.01538 18.9419 4.21538 19.3319 4.55538 19.6519C4.96538 20.0319 5.43538 20.2819 5.92538 20.4919C6.79538 20.8619 7.69538 21.0819 8.62538 21.2419C9.49538 21.3919 10.3754 21.4719 11.2654 21.5019C12.2242 21.5378 13.1911 21.5094 14.1516 21.4095C14.3297 21.391 14.4474 21.2193 14.4255 21.0416C14.4125 20.9358 14.4054 20.8289 14.4054 20.7219C14.3965 20.2235 14.5064 19.7489 14.714 19.3333C14.7615 19.238 14.7621 19.1256 14.7146 19.0302C14.5134 18.6262 14.3954 18.1698 14.3954 17.6819Z" fill="black"/>
<path fill-rule="evenodd" clip-rule="evenodd" d="M4.54179 6.44273C4.99979 6.88073 5.54479 7.15273 6.10979 7.37973C7.12879 7.78873 8.18779 8.01273 9.26179 8.15773C10.1678 8.27973 11.0788 8.34173 11.8138 8.33073C13.5278 8.33273 15.0478 8.18873 16.5448 7.81073C17.2898 7.62273 18.0188 7.37773 18.7008 6.99073C19.0758 6.77873 19.4258 6.52973 19.6968 6.16773C20.0548 5.68773 20.0608 5.12873 19.6958 4.65573C19.5718 4.49373 19.4268 4.34373 19.2718 4.21673C18.6908 3.74173 18.0218 3.46573 17.3348 3.23773C16.1108 2.83273 14.8528 2.63273 13.5808 2.54273C11.8448 2.41873 10.1158 2.48173 8.39779 2.80173C7.46479 2.97473 6.54979 3.21773 5.67879 3.62873C5.21379 3.84773 4.77079 4.10873 4.41479 4.51073C4.11879 4.84473 3.94479 5.22573 4.06979 5.70273C4.14879 6.00673 4.32879 6.23973 4.54179 6.44273Z" fill="black"/>
<path fill-rule="evenodd" clip-rule="evenodd" d="M17.3923 18.4361C17.8063 18.4361 18.1423 18.1001 18.1423 17.6861V14.6971C18.1423 14.2831 17.8063 13.9471 17.3923 13.9471C16.9783 13.9471 16.6423 14.2831 16.6423 14.6971V17.6861C16.6423 18.1001 16.9783 18.4361 17.3923 18.4361Z" fill="black"/>
<path fill-rule="evenodd" clip-rule="evenodd" d="M17.3895 19.8971C16.9755 19.9041 16.6455 20.2741 16.6525 20.6891C16.6595 21.0981 16.9935 21.4261 17.4025 21.4261H17.4145C17.8285 21.4191 18.1595 21.0791 18.1525 20.6641L18.1515 20.6041C18.1445 20.1901 17.7615 19.8781 17.3895 19.8971Z" fill="black"/>
</svg>