<svg width="25" height="24" viewBox="0 0 25 24" fill="none" xmlns="http://www.w3.org/2000/svg">
<path fill-rule="evenodd" clip-rule="evenodd" d="M13.3965 19.1582C13.3965 18.744 13.7323 18.4082 14.1465 18.4082H16.1268C16.541 18.4082 16.8768 18.744 16.8768 19.1582C16.8768 19.5724 16.541 19.9082 16.1268 19.9082H14.8965V20.9999C14.8965 21.4141 14.5607 21.7499 14.1465 21.7499C13.7323 21.7499 13.3965 21.4141 13.3965 20.9999V19.1582Z" fill="black"/>
<path fill-rule="evenodd" clip-rule="evenodd" d="M14.785 18.7745C14.785 18.7745 14.785 18.7745 14.7851 18.7745C14.7851 18.7746 14.7851 18.7746 14.7851 18.7746L14.7897 18.7818C14.7947 18.7896 14.8036 18.8032 14.8163 18.8218C14.8418 18.8592 14.8822 18.9162 14.9366 18.9862C15.0463 19.1273 15.2082 19.3154 15.415 19.5018C15.8382 19.8835 16.3814 20.1995 17.0081 20.1995C17.9188 20.1995 18.7155 19.7073 19.1407 18.9709C19.3479 18.6122 19.8065 18.4893 20.1653 18.6964C20.524 18.9035 20.6469 19.3622 20.4397 19.7209C19.7557 20.9056 18.4726 21.6995 17.0081 21.6995C15.8624 21.6995 14.9749 21.1248 14.4104 20.6157C14.1233 20.3568 13.9022 20.0996 13.7523 19.9067C13.6769 19.8097 13.6183 19.7274 13.5774 19.6674C13.5568 19.6373 13.5406 19.6127 13.5289 19.5944L13.5145 19.5718L13.5098 19.5642L13.508 19.5614L13.5073 19.5603L13.507 19.5598C13.5069 19.5595 13.5067 19.5593 14.1466 19.1681L13.5067 19.5593C13.2906 19.2059 13.402 18.7443 13.7554 18.5282C14.108 18.3126 14.5684 18.423 14.785 18.7745Z" fill="black"/>
<path fill-rule="evenodd" clip-rule="evenodd" d="M20.2254 13.5664C20.6397 13.5664 20.9754 13.9022 20.9754 14.3164V16.2968C20.9754 16.711 20.6397 17.0468 20.2254 17.0468H18.2461C17.8319 17.0468 17.4961 16.711 17.4961 16.2968C17.4961 15.8825 17.8319 15.5468 18.2461 15.5468H19.4754V14.3164C19.4754 13.9022 19.8112 13.5664 20.2254 13.5664Z" fill="black"/>
<path fill-rule="evenodd" clip-rule="evenodd" d="M17.0091 15.2744C16.0884 15.2744 15.2931 15.7674 14.8681 16.5111C14.6626 16.8708 14.2045 16.9957 13.8448 16.7902C13.4852 16.5847 13.3602 16.1266 13.5657 15.7669C14.25 14.5695 15.5345 13.7744 17.0091 13.7744C18.3049 13.7744 19.2731 14.3152 19.9028 14.839C20.2172 15.1004 20.4527 15.3616 20.6112 15.5596C20.6907 15.659 20.7518 15.7436 20.7947 15.806C20.8161 15.8373 20.833 15.8631 20.8455 15.8825L20.8608 15.9069L20.866 15.9153L20.8679 15.9185L20.8688 15.9199L20.8691 15.9205C20.8693 15.9208 20.8695 15.9211 20.2399 16.2987L20.8695 15.9211C21.0825 16.2763 20.9673 16.737 20.6121 16.95C20.2581 17.1623 19.7994 17.0486 19.5854 16.6963L19.582 16.6911C19.5778 16.6844 19.5696 16.6719 19.5577 16.6544C19.5336 16.6194 19.4944 16.5648 19.4402 16.4971C19.3311 16.3608 19.1651 16.1764 18.9437 15.9923C18.5019 15.6248 17.8615 15.2744 17.0091 15.2744ZM19.5834 16.6931C19.5834 16.6931 19.5834 16.6931 19.5834 16.6931L19.5835 16.6933C19.5835 16.6932 19.5835 16.6932 19.5834 16.6931Z" fill="black"/>
<path fill-rule="evenodd" clip-rule="evenodd" d="M4.27344 5.27734C4.68765 5.27734 5.02344 5.61313 5.02344 6.02734V11.8128C5.02379 11.8154 5.02428 11.8186 5.02494 11.8226C5.02912 11.8475 5.04014 11.8991 5.06761 11.9701C5.12105 12.1081 5.24378 12.338 5.53176 12.596C6.11259 13.1164 7.43411 13.8077 10.3754 13.9606C10.789 13.9821 11.1069 14.3349 11.0854 14.7486C11.0639 15.1622 10.7111 15.4801 10.2975 15.4586C7.17574 15.2963 5.46578 14.5508 4.53086 13.7133C4.06097 13.2923 3.80476 12.863 3.66873 12.5115C3.60146 12.3377 3.56512 12.187 3.54562 12.0708C3.53588 12.0127 3.53034 11.9633 3.52723 11.9238C3.52567 11.904 3.52473 11.8867 3.52417 11.8721L3.52359 11.8521L3.52347 11.8436L3.52345 11.8397L3.52344 11.8379C3.52344 11.837 3.52344 11.8361 4.27344 11.8361H3.52344V6.02734C3.52344 5.61313 3.85922 5.27734 4.27344 5.27734Z" fill="black"/>
<path fill-rule="evenodd" clip-rule="evenodd" d="M18.9492 5.27734C19.3634 5.27734 19.6992 5.61313 19.6992 6.02734V10.8682C19.6992 11.2825 19.3634 11.6182 18.9492 11.6182C18.535 11.6182 18.1992 11.2825 18.1992 10.8682V6.02734C18.1992 5.61313 18.535 5.27734 18.9492 5.27734Z" fill="black"/>
<path fill-rule="evenodd" clip-rule="evenodd" d="M4.27344 11.0859C4.68765 11.0859 5.02344 11.4217 5.02344 11.8359V17.6223C5.02382 17.625 5.02435 17.6285 5.02508 17.6328C5.02946 17.6586 5.04095 17.7116 5.06949 17.7842C5.12498 17.9255 5.25248 18.1605 5.55191 18.423C6.15663 18.9531 7.52978 19.6493 10.5779 19.7788C10.9918 19.7964 11.313 20.1461 11.2954 20.5599C11.2778 20.9738 10.9281 21.295 10.5143 21.2774C7.28976 21.1405 5.52658 20.3955 4.56313 19.5509C4.07847 19.1261 3.81393 18.6904 3.67341 18.3328C3.60393 18.156 3.56642 18.0026 3.5463 17.8843C3.53625 17.8251 3.53054 17.7748 3.52734 17.7346C3.52574 17.7145 3.52476 17.6969 3.52419 17.6821L3.5236 17.6618L3.52347 17.6532L3.52345 17.6492L3.52344 17.6474C3.52344 17.6465 3.52344 17.6456 4.27344 17.6456H3.52344V11.8359C3.52344 11.4217 3.85922 11.0859 4.27344 11.0859Z" fill="black"/>
<path fill-rule="evenodd" clip-rule="evenodd" d="M5.36688 5.34802C5.08957 5.6125 5.02344 5.81799 5.02344 5.95583C5.02344 6.09367 5.08957 6.29916 5.36688 6.56364C5.64602 6.82987 6.08984 7.10419 6.70013 7.35038C7.91672 7.84116 9.64899 8.16166 11.6007 8.16166C13.5524 8.16166 15.2847 7.84116 16.5013 7.35038C17.1116 7.10419 17.5554 6.82987 17.8345 6.56364C18.1118 6.29916 18.178 6.09367 18.178 5.95583C18.178 5.81799 18.1118 5.6125 17.8345 5.34802C17.5554 5.08179 17.1116 4.80747 16.5013 4.56128C15.2847 4.0705 13.5524 3.75 11.6007 3.75C9.64899 3.75 7.91672 4.0705 6.70013 4.56128C6.08984 4.80747 5.64602 5.08179 5.36688 5.34802ZM6.13896 3.1702C7.57432 2.59118 9.50568 2.25 11.6007 2.25C13.6957 2.25 15.6271 2.59118 17.0625 3.1702C17.7781 3.45891 18.4074 3.82152 18.8698 4.26256C19.334 4.70533 19.678 5.27744 19.678 5.95583C19.678 6.63422 19.334 7.20633 18.8698 7.64911C18.4074 8.09014 17.7781 8.45275 17.0625 8.74146C15.6271 9.32048 13.6957 9.66166 11.6007 9.66166C9.50568 9.66166 7.57432 9.32048 6.13896 8.74146C5.42328 8.45275 4.79404 8.09014 4.33162 7.64911C3.86737 7.20633 3.52344 6.63422 3.52344 5.95583C3.52344 5.27744 3.86737 4.70533 4.33162 4.26256C4.79404 3.82152 5.42328 3.45891 6.13896 3.1702Z" fill="black"/>
</svg>