<svg width="24" height="24" viewBox="0 0 24 24" fill="none" xmlns="http://www.w3.org/2000/svg">
<path d="M11.0304 3.00977C6.98366 3.00977 3.70312 4.33313 3.70312 5.96559C3.70312 7.59805 6.98366 8.92142 11.0304 8.92142C15.0771 8.92142 18.3577 7.59805 18.3577 5.96559C18.3577 4.82312 16.7509 3.83204 14.3992 3.34001" stroke="black" stroke-width="1.5" stroke-linecap="round"/>
<path d="M3.70312 15.6055V17.6582C3.70312 17.6582 3.70312 20.2667 9.90663 20.5592" stroke="black" stroke-width="1.5" stroke-linecap="round" stroke-linejoin="round"/>
<path d="M18.3569 10.8263V5.94141" stroke="black" stroke-width="1.5" stroke-linecap="round" stroke-linejoin="round"/>
<path d="M9.90663 14.7019C3.70312 14.4094 3.70312 11.8009 3.70312 11.8009V5.93945" stroke="black" stroke-width="1.5" stroke-linecap="round" stroke-linejoin="round"/>
<path d="M16.9783 20.9139C16.9783 20.9139 14.4253 19.5233 13.829 17.6703C13.4588 16.513 13.8912 15.1919 15.1055 14.801C15.7443 14.5977 16.4422 14.7149 16.9783 15.1172C17.5154 14.718 18.2113 14.6008 18.849 14.801C20.0623 15.1919 20.4988 16.513 20.1286 17.6703C19.9342 18.2878 19.5126 18.8578 19.0392 19.342" stroke="black" stroke-width="1.5" stroke-linecap="round" stroke-linejoin="round"/>
</svg>