<svg width="24" height="24" viewBox="0 0 24 24" fill="none" xmlns="http://www.w3.org/2000/svg">
<path d="M12 11.6759C18.5754 11.6759 18.5754 9.07356 18.5754 9.07356V5.60352" stroke="black" stroke-width="1.5" stroke-linecap="round" stroke-linejoin="round"/>
<path d="M5.4248 5.60352V9.07356C5.4248 9.07356 5.4248 10.8073 9.00055 11.4445" stroke="black" stroke-width="1.5" stroke-linecap="round" stroke-linejoin="round"/>
<path d="M5.42383 9.07422V12.5439C5.42383 12.5439 5.42383 15.1476 11.9992 15.1476C18.5746 15.1476 18.5746 12.5439 18.5746 12.5439V9.07422" stroke="black" stroke-width="1.5" stroke-linecap="round" stroke-linejoin="round"/>
<path d="M11.9992 3C8.36774 3 5.42383 4.16292 5.42383 5.59745C5.42383 7.03198 8.36774 8.1949 11.9992 8.1949C15.6307 8.1949 18.5746 7.03198 18.5746 5.59745C18.5746 4.76849 17.5916 4.03023 16.0609 3.55466" stroke="black" stroke-width="1.5" stroke-linecap="round" stroke-linejoin="round"/>
<path fill-rule="evenodd" clip-rule="evenodd" d="M13.5945 19.4032C13.5945 20.2847 12.8794 20.9998 11.998 20.9998C11.1165 20.9998 10.4014 20.2847 10.4014 19.4032C10.4014 18.5217 11.1165 17.8066 11.998 17.8066C12.8794 17.8066 13.5945 18.5217 13.5945 19.4032Z" stroke="black" stroke-width="1.5" stroke-linecap="round" stroke-linejoin="round"/>
<path d="M18.2011 19.4023H13.5728M10.4183 19.4023H5.7998" stroke="black" stroke-width="1.5" stroke-linecap="round" stroke-linejoin="round"/>
<path d="M11.999 17.8015V15.1582" stroke="black" stroke-width="1.5" stroke-linecap="round" stroke-linejoin="round"/>
</svg>