<svg width="24" height="24" viewBox="0 0 24 24" fill="none" xmlns="http://www.w3.org/2000/svg">
<path d="M15.681 20.9681C14.8187 20.9681 14.1191 20.2685 14.1191 19.4063V17.64C14.1191 16.7777 14.8187 16.0781 15.681 16.0781H18.8273C19.6896 16.0781 20.3892 16.7777 20.3892 17.64V19.4063C20.3892 20.2685 19.6896 20.9681 18.8273 20.9681" stroke="black" stroke-width="1.5" stroke-linecap="round" stroke-linejoin="round"/>
<path d="M19.1332 16.1072V14.9448C19.1201 13.908 18.2686 13.0768 17.2318 13.09C16.2165 13.1032 15.3937 13.9211 15.377 14.9364V16.1072" stroke="black" stroke-width="1.5" stroke-linecap="round" stroke-linejoin="round"/>
<path d="M3.57812 5.91992V11.7592C3.57812 11.7592 3.57812 14.6786 10.9541 14.6786" stroke="black" stroke-width="1.5" stroke-linecap="round" stroke-linejoin="round"/>
<path d="M18.3301 9.72787V5.91797" stroke="black" stroke-width="1.5" stroke-linecap="round" stroke-linejoin="round"/>
<path d="M3.57812 15.4062V17.5979C3.57812 17.5979 3.57812 20.5185 10.9541 20.5185" stroke="black" stroke-width="1.5" stroke-linecap="round" stroke-linejoin="round"/>
<path d="M10.9541 3C6.88046 3 3.57812 4.31543 3.57812 5.93809C3.57812 7.56075 6.88046 8.87618 10.9541 8.87618C15.0277 8.87618 18.3301 7.56075 18.3301 5.93809C18.3301 4.78746 16.6696 3.79132 14.2511 3.30913" stroke="black" stroke-width="1.5" stroke-linecap="round" stroke-linejoin="round"/>
</svg>