<svg width="25" height="24" viewBox="0 0 25 24" fill="none" xmlns="http://www.w3.org/2000/svg">
<path d="M11.5587 8.91361C15.6055 8.91361 18.886 7.59024 18.886 5.95778C18.886 4.32532 15.6055 3.00195 11.5587 3.00195C7.51198 3.00195 4.23145 4.32532 4.23145 5.95778C4.23145 7.59024 7.51198 8.91361 11.5587 8.91361Z" stroke="black" stroke-width="1.5"/>
<path d="M4.23145 5.98047L4.23145 17.5228C4.23145 17.5228 4.23145 20.44 11.6014 20.44" stroke="black" stroke-width="1.5" stroke-linecap="round" stroke-linejoin="round"/>
<path d="M18.8848 10.8976V5.85352" stroke="black" stroke-width="1.5" stroke-linecap="round" stroke-linejoin="round"/>
<path opacity="0.4" d="M4.23145 11.6875C4.23145 11.6875 4.23145 14.6047 11.6014 14.6047" stroke="black" stroke-width="1.5" stroke-linecap="round" stroke-linejoin="round"/>
<path opacity="0.4" d="M15.4346 15.3825C16.0002 14.8828 16.7435 14.5801 17.5575 14.5801C19.3303 14.5801 20.7682 16.0171 20.7682 17.7898" stroke="black" stroke-width="1.5" stroke-linecap="round" stroke-linejoin="round"/>
<path opacity="0.4" d="M19.6803 20.1963C19.1146 20.696 18.3714 20.9988 17.5573 20.9988C15.7846 20.9988 14.3467 19.5618 14.3467 17.7891" stroke="black" stroke-width="1.5" stroke-linecap="round" stroke-linejoin="round"/>
</svg>