<svg width="25" height="24" viewBox="0 0 25 24" fill="none" xmlns="http://www.w3.org/2000/svg">
<path fill-rule="evenodd" clip-rule="evenodd" d="M16.1234 18.35C16.3303 18.7088 16.2073 19.1674 15.8485 19.3744L14.8632 19.9428C14.5044 20.1498 14.0457 20.0267 13.8388 19.6679C13.6318 19.3091 13.7548 18.8505 14.1136 18.6435L15.0989 18.0751C15.4577 17.8681 15.9164 17.9912 16.1234 18.35Z" fill="black"/>
<path fill-rule="evenodd" clip-rule="evenodd" d="M18.7645 18.35C18.9715 17.9912 19.4302 17.8681 19.789 18.0751L20.7743 18.6435C21.1331 18.8505 21.2561 19.3091 21.0491 19.6679C20.8422 20.0267 20.3835 20.1498 20.0247 19.9428L19.0394 19.3744C18.6806 19.1674 18.5576 18.7088 18.7645 18.35Z" fill="black"/>
<path fill-rule="evenodd" clip-rule="evenodd" d="M13.8388 15.5062C14.0457 15.1474 14.5044 15.0244 14.8632 15.2313L15.8485 15.7997C16.2073 16.0067 16.3303 16.4654 16.1234 16.8242C15.9164 17.183 15.4577 17.306 15.0989 17.099L14.1136 16.5306C13.7548 16.3237 13.6318 15.865 13.8388 15.5062Z" fill="black"/>
<path fill-rule="evenodd" clip-rule="evenodd" d="M21.0491 15.5072C21.2561 15.866 21.1331 16.3246 20.7743 16.5316L19.789 17.1C19.4302 17.307 18.9715 17.1839 18.7645 16.8251C18.5576 16.4664 18.6806 16.0077 19.0394 15.8007L20.0247 15.2323C20.3835 15.0253 20.8422 15.1484 21.0491 15.5072Z" fill="black"/>
<path fill-rule="evenodd" clip-rule="evenodd" d="M17.4434 19.1113C17.8576 19.1113 18.1934 19.4471 18.1934 19.8613V20.9991C18.1934 21.4133 17.8576 21.7491 17.4434 21.7491C17.0291 21.7491 16.6934 21.4133 16.6934 20.9991V19.8613C16.6934 19.4471 17.0291 19.1113 17.4434 19.1113Z" fill="black"/>
<path fill-rule="evenodd" clip-rule="evenodd" d="M17.4434 13.4238C17.8576 13.4238 18.1934 13.7596 18.1934 14.1738V15.3116C18.1934 15.7258 17.8576 16.0616 17.4434 16.0616C17.0291 16.0616 16.6934 15.7258 16.6934 15.3116V14.1738C16.6934 13.7596 17.0291 13.4238 17.4434 13.4238Z" fill="black"/>
<path fill-rule="evenodd" clip-rule="evenodd" d="M17.443 16.0615C16.6008 16.0615 15.918 16.7444 15.918 17.5868C15.918 18.429 16.6007 19.1117 17.443 19.1117C18.2861 19.1117 18.9681 18.4292 18.9681 17.5868C18.9681 16.7443 18.2859 16.0615 17.443 16.0615ZM14.418 17.5868C14.418 15.9162 15.7722 14.5615 17.443 14.5615C19.1149 14.5615 20.4681 15.9164 20.4681 17.5868C20.4681 19.2574 19.1147 20.6117 17.443 20.6117C15.7723 20.6117 14.418 19.2575 14.418 17.5868Z" fill="black"/>
<path fill-rule="evenodd" clip-rule="evenodd" d="M3.85352 5.27734C4.26773 5.27734 4.60352 5.61313 4.60352 6.02734V11.8128C4.60402 11.8165 4.60479 11.8215 4.60593 11.8278C4.61138 11.858 4.62531 11.9181 4.65942 11.9991C4.72559 12.1563 4.87781 12.4169 5.23631 12.7008C5.96432 13.2773 7.60107 13.9914 11.191 13.9914C11.6052 13.9914 11.941 14.3271 11.941 14.7414C11.941 15.1556 11.6052 15.4914 11.191 15.4914C7.44346 15.4914 5.41146 14.7528 4.3051 13.8767C3.74641 13.4343 3.44003 12.9686 3.27691 12.581C3.19636 12.3897 3.15297 12.2228 3.12976 12.0941C3.11817 12.0299 3.11161 11.9752 3.10795 11.9317C3.10612 11.9099 3.10501 11.891 3.10436 11.875L3.10369 11.8533L3.10356 11.8441L3.10353 11.84L3.10352 11.838C3.10352 11.8371 3.10352 11.8361 3.85352 11.8361H3.10352V6.02734C3.10352 5.61313 3.4393 5.27734 3.85352 5.27734Z" fill="black"/>
<path fill-rule="evenodd" clip-rule="evenodd" d="M18.5293 5.27734C18.9435 5.27734 19.2793 5.61313 19.2793 6.02734V10.8682C19.2793 11.2825 18.9435 11.6182 18.5293 11.6182C18.1151 11.6182 17.7793 11.2825 17.7793 10.8682V6.02734C17.7793 5.61313 18.1151 5.27734 18.5293 5.27734Z" fill="black"/>
<path fill-rule="evenodd" clip-rule="evenodd" d="M3.85352 11.0859C4.26773 11.0859 4.60352 11.4217 4.60352 11.8359V17.6223C4.60402 17.6259 4.60479 17.6309 4.60593 17.6372C4.61137 17.6674 4.62529 17.7274 4.65939 17.8084C4.72554 17.9655 4.87773 18.2259 5.23622 18.5097C5.96424 19.0861 7.60103 19.7999 11.191 19.7999C11.6052 19.7999 11.941 20.1357 11.941 20.5499C11.941 20.9642 11.6052 21.2999 11.191 21.2999C7.44349 21.2999 5.41153 20.5617 4.30518 19.6858C3.74649 19.2435 3.44009 18.7779 3.27694 18.3905C3.19639 18.1991 3.15298 18.0322 3.12977 17.9036C3.11817 17.8393 3.11161 17.7846 3.10795 17.7412C3.10612 17.7194 3.10501 17.7005 3.10436 17.6845L3.10369 17.6627L3.10356 17.6536L3.10353 17.6495L3.10352 17.6475C3.10352 17.6465 3.10352 17.6456 3.85352 17.6456H3.10352V11.8359C3.10352 11.4217 3.4393 11.0859 3.85352 11.0859Z" fill="black"/>
<path fill-rule="evenodd" clip-rule="evenodd" d="M4.94696 5.34802C4.66965 5.6125 4.60352 5.81799 4.60352 5.95583C4.60352 6.09367 4.66965 6.29916 4.94696 6.56364C5.2261 6.82987 5.66992 7.10419 6.2802 7.35038C7.4968 7.84116 9.22907 8.16166 11.1808 8.16166C13.1325 8.16166 14.8648 7.84116 16.0814 7.35038C16.6917 7.10419 17.1355 6.82987 17.4146 6.56364C17.6919 6.29916 17.7581 6.09367 17.7581 5.95583C17.7581 5.81799 17.6919 5.6125 17.4146 5.34802C17.1355 5.08179 16.6917 4.80747 16.0814 4.56128C14.8648 4.0705 13.1325 3.75 11.1808 3.75C9.22907 3.75 7.4968 4.0705 6.2802 4.56128C5.66992 4.80747 5.2261 5.08179 4.94696 5.34802ZM5.71904 3.1702C7.15439 2.59118 9.08576 2.25 11.1808 2.25C13.2758 2.25 15.2072 2.59118 16.6425 3.1702C17.3582 3.45891 17.9875 3.82152 18.4499 4.26256C18.9141 4.70533 19.2581 5.27744 19.2581 5.95583C19.2581 6.63422 18.9141 7.20633 18.4499 7.64911C17.9875 8.09014 17.3582 8.45275 16.6425 8.74146C15.2072 9.32048 13.2758 9.66166 11.1808 9.66166C9.08576 9.66166 7.15439 9.32048 5.71904 8.74146C5.00336 8.45275 4.37412 8.09014 3.9117 7.64911C3.44745 7.20633 3.10352 6.63422 3.10352 5.95583C3.10352 5.27744 3.44745 4.70533 3.9117 4.26256C4.37412 3.82152 5.00336 3.45891 5.71904 3.1702Z" fill="black"/>
</svg>