<svg width="24" height="24" viewBox="0 0 24 24" fill="none" xmlns="http://www.w3.org/2000/svg">
<path opacity="0.4" fill-rule="evenodd" clip-rule="evenodd" d="M19.315 4.711C19.085 3.199 15.908 2 12.012 2C8.25902 2 5.17102 3.111 4.74202 4.544C4.68802 4.648 4.65002 4.761 4.65002 4.885V12.849C4.65002 13.179 4.86002 15.971 11.25 16.179H12.75C19.14 15.971 19.35 13.179 19.35 12.849V4.885C19.35 4.824 19.329 4.768 19.315 4.711ZM6.15002 12.505C6.15302 12.505 6.43502 14.355 12 14.355C17.589 14.355 17.849 12.489 17.851 12.47V11.164C16.803 11.813 15.029 12.355 12 12.355C8.97102 12.355 7.19802 11.813 6.15002 11.164V12.505ZM17.851 8.35V6.623C16.513 7.319 14.399 7.771 12.012 7.771C9.61102 7.771 7.48602 7.314 6.15002 6.61V8.385L6.15072 8.38781C6.16854 8.46801 6.5613 10.235 12 10.235C17.589 10.235 17.849 8.369 17.851 8.35Z" fill="black"/>
<path fill-rule="evenodd" clip-rule="evenodd" d="M11.25 16.1787V17.4277C10.549 17.6577 10.009 18.1977 9.77905 18.8987H5.80005C5.38605 18.8987 5.05005 19.2347 5.05005 19.6487C5.05005 20.0627 5.38605 20.3987 5.80005 20.3987H9.77905C10.087 21.3357 10.947 21.9987 12 21.9987C13.053 21.9987 13.913 21.3357 14.221 20.3987H18.2C18.614 20.3987 18.95 20.0627 18.95 19.6487C18.95 19.2347 18.614 18.8987 18.2 18.8987H14.221C13.991 18.1977 13.451 17.6577 12.75 17.4277V16.1787H11.25ZM11.15 19.6487C11.15 20.1337 11.515 20.4987 12 20.4987C12.485 20.4987 12.85 20.1337 12.85 19.6487C12.85 19.1637 12.485 18.7987 12 18.7987C11.515 18.7987 11.15 19.1637 11.15 19.6487Z" fill="black"/>
</svg>