<svg width="24" height="24" viewBox="0 0 24 24" fill="none" xmlns="http://www.w3.org/2000/svg">
<path fill-rule="evenodd" clip-rule="evenodd" d="M19.0413 11.626C19.1597 11.6334 19.2615 11.5406 19.2607 11.422C19.2545 10.4996 19.2529 9.22268 19.2525 8.60927C19.2524 8.45308 19.0831 8.36093 18.9503 8.44304C18.8813 8.48568 18.8127 8.52632 18.7424 8.56354C17.4524 9.29354 16.0524 9.63354 14.6224 9.84354C13.9624 9.95354 13.2924 10.0135 12.6224 10.0535C11.3224 10.1435 10.0224 10.1035 8.73237 9.95354C7.80237 9.85354 6.87237 9.68354 5.96237 9.42354C5.24237 9.22354 4.53237 8.96354 3.87237 8.58354C3.78871 8.53706 3.70721 8.48842 3.62385 8.43762C3.4911 8.35672 3.32303 8.45083 3.32353 8.60628C3.32583 9.32639 3.33014 10.9675 3.32237 11.8535C3.31237 12.2935 3.46237 12.6335 3.73237 12.9335C4.15237 13.3735 4.66237 13.6535 5.20237 13.8835C5.98237 14.2235 6.79237 14.4335 7.62237 14.5935C8.43237 14.7535 9.25237 14.8535 10.0724 14.8935C10.7594 14.9317 11.4465 14.9426 12.1249 14.9174C12.1864 14.9151 12.2432 14.8841 12.2796 14.8345C13.7144 12.8794 16.0274 11.6135 18.6424 11.6135C18.7777 11.6135 18.9089 11.6177 19.0413 11.626Z" fill="black"/>
<path fill-rule="evenodd" clip-rule="evenodd" d="M11.0524 16.7036C10.1724 16.7036 9.30237 16.6536 8.44237 16.5236C7.70237 16.4136 6.97237 16.2736 6.24237 16.1036C5.39237 15.9036 4.57237 15.6036 3.80237 15.1536C3.74374 15.1185 3.68358 15.0818 3.62189 15.0441C3.48984 14.9636 3.323 15.0582 3.32341 15.2129C3.32533 15.9264 3.32792 17.5529 3.31237 18.4236C3.30237 18.9436 3.50237 19.3336 3.85237 19.6536C4.25237 20.0336 4.72237 20.2836 5.21237 20.4936C6.08237 20.8636 6.99237 21.0836 7.91237 21.2436C8.79237 21.3936 9.67237 21.4836 10.5524 21.5036C10.6157 21.5079 10.679 21.5103 10.7423 21.5117C10.8736 21.5146 10.9693 21.3892 10.9398 21.2612C10.8104 20.6982 10.7424 20.1135 10.7424 19.5136C10.7424 18.5971 10.8966 17.7234 11.1893 16.9005C11.2232 16.8052 11.1535 16.7036 11.0524 16.7036Z" fill="black"/>
<path fill-rule="evenodd" clip-rule="evenodd" d="M3.83537 6.44761C4.29337 6.88561 4.83837 7.15761 5.40337 7.38461C6.42237 7.79361 7.48137 8.01761 8.55537 8.16261C9.46137 8.28461 10.3724 8.34661 11.1074 8.33561C12.8214 8.33761 14.3414 8.19261 15.8384 7.81561C16.5834 7.62761 17.3124 7.38261 17.9944 6.99561C18.3694 6.78361 18.7194 6.53461 18.9904 6.17261C19.3484 5.69261 19.3544 5.13361 18.9894 4.66061C18.8654 4.49861 18.7204 4.34861 18.5654 4.22161C17.9844 3.74661 17.3154 3.47061 16.6284 3.24261C15.4044 2.83761 14.1464 2.63761 12.8744 2.54761C11.1384 2.42361 9.40937 2.48661 7.69137 2.80661C6.75837 2.97961 5.84337 3.22261 4.97237 3.63361C4.50737 3.85261 4.06437 4.11361 3.70837 4.51561C3.41237 4.84961 3.23837 5.23061 3.36337 5.70761C3.44237 6.01161 3.62237 6.24461 3.83537 6.44761Z" fill="black"/>
<path fill-rule="evenodd" clip-rule="evenodd" d="M19.9383 17.9437H15.2393C14.8253 17.9437 14.4893 18.2797 14.4893 18.6937C14.4893 19.1077 14.8253 19.4437 15.2393 19.4437H19.9383C20.3523 19.4437 20.6883 19.1077 20.6883 18.6937C20.6883 18.2797 20.3523 17.9437 19.9383 17.9437Z" fill="black"/>
</svg>