<svg width="24" height="24" viewBox="0 0 24 24" fill="none" xmlns="http://www.w3.org/2000/svg">
<path opacity="0.4" fill-rule="evenodd" clip-rule="evenodd" d="M19.8535 9.094H16.8895C15.1235 9.085 13.6655 7.622 13.6655 5.838V2.698C13.6655 2.455 13.4725 2.25 13.2215 2.25H8.06649C5.66249 2.25 3.71249 4.229 3.71249 6.647V17.158C3.71249 19.693 5.75949 21.75 8.26949 21.75H15.9435C18.3475 21.75 20.2875 19.79 20.2875 17.372V9.533C20.2875 9.289 20.0945 9.094 19.8535 9.094Z" fill="black"/>
<path fill-rule="evenodd" clip-rule="evenodd" d="M14.221 12.5775C14.221 12.9915 13.885 13.3275 13.471 13.3275C13.057 13.3275 12.721 12.9915 12.721 12.5775V11.8555H11.277V16.2405H11.999C12.413 16.2405 12.749 16.5765 12.749 16.9905C12.749 17.4045 12.413 17.7405 11.999 17.7405H10.554C10.545 17.7405 10.535 17.7405 10.527 17.7405C10.518 17.7405 10.508 17.7405 10.499 17.7405H9.057C8.643 17.7405 8.307 17.4045 8.307 16.9905C8.307 16.5765 8.643 16.2405 9.057 16.2405H9.777V11.8555H8.336V12.5775C8.336 12.9915 8 13.3275 7.586 13.3275C7.172 13.3275 6.836 12.9915 6.836 12.5775V11.5965C6.836 10.9125 7.393 10.3555 8.076 10.3555H12.981C13.664 10.3555 14.221 10.9125 14.221 11.5965V12.5775Z" fill="black"/>
<path fill-rule="evenodd" clip-rule="evenodd" d="M17.0158 7.67175C17.6888 7.67875 18.6238 7.68175 19.4168 7.67875C19.8228 7.67775 20.0288 7.18775 19.7478 6.89175C19.2388 6.35775 18.5298 5.61275 17.8178 4.86475C17.1028 4.11375 16.3848 3.35975 15.8628 2.81175C15.5738 2.50875 15.0698 2.71675 15.0698 3.13675V5.70575C15.0698 6.78375 15.9488 7.67175 17.0158 7.67175Z" fill="black"/>
</svg>