<svg width="24" height="24" viewBox="0 0 24 24" fill="none" xmlns="http://www.w3.org/2000/svg">
<path opacity="0.4" fill-rule="evenodd" clip-rule="evenodd" d="M19.8535 9.094H16.8895C15.1235 9.085 13.6655 7.622 13.6655 5.838V2.698C13.6655 2.455 13.4725 2.25 13.2215 2.25H8.06649C5.66249 2.25 3.71249 4.229 3.71249 6.647V17.158C3.71249 19.693 5.75949 21.75 8.26949 21.75H15.9435C18.3475 21.75 20.2875 19.79 20.2875 17.372V9.533C20.2875 9.289 20.0945 9.094 19.8535 9.094Z" fill="black"/>
<path fill-rule="evenodd" clip-rule="evenodd" d="M14.249 14.2773H9.75101C9.33701 14.2773 9.00101 13.9413 9.00101 13.5273C9.00101 13.1133 9.33701 12.7773 9.75101 12.7773H14.249C14.663 12.7773 14.999 13.1133 14.999 13.5273C14.999 13.9413 14.663 14.2773 14.249 14.2773Z" fill="black"/>
<path fill-rule="evenodd" clip-rule="evenodd" d="M17.0158 7.67175C17.6888 7.67875 18.6238 7.68175 19.4168 7.67875C19.8228 7.67775 20.0288 7.18775 19.7478 6.89175C19.2388 6.35775 18.5298 5.61275 17.8178 4.86475C17.1028 4.11375 16.3848 3.35975 15.8628 2.81175C15.5738 2.50875 15.0698 2.71675 15.0698 3.13675V5.70575C15.0698 6.78375 15.9488 7.67175 17.0158 7.67175Z" fill="black"/>
</svg>