<svg width="24" height="24" viewBox="0 0 24 24" fill="none" xmlns="http://www.w3.org/2000/svg">
<path fill-rule="evenodd" clip-rule="evenodd" d="M14.2491 14.2769H9.75106C9.33706 14.2769 9.00106 13.9409 9.00106 13.5269C9.00106 13.1129 9.33706 12.7769 9.75106 12.7769H14.2491C14.6631 12.7769 14.9991 13.1129 14.9991 13.5269C14.9991 13.9409 14.6631 14.2769 14.2491 14.2769ZM19.8501 9.09591H16.8871C15.1221 9.08591 13.6641 7.62391 13.6641 5.84091V2.70191C13.6641 2.45891 13.4711 2.25391 13.2211 2.25391H8.06806C5.66506 2.25391 3.71606 4.23291 3.71606 6.64891V17.1549C3.71606 19.6889 5.76206 21.7459 8.27006 21.7459H15.9421C18.3441 21.7459 20.2841 19.7869 20.2841 17.3699V9.53391C20.2841 9.29091 20.0911 9.09591 19.8501 9.09591Z" fill="black"/>
<path fill-rule="evenodd" clip-rule="evenodd" d="M17.0158 7.67181C17.6888 7.67881 18.6238 7.68181 19.4168 7.67881C19.8228 7.67781 20.0288 7.18781 19.7478 6.89181C19.2388 6.35781 18.5298 5.61281 17.8178 4.86481C17.1028 4.11381 16.3848 3.35981 15.8628 2.81181C15.5738 2.50881 15.0698 2.71681 15.0698 3.13681V5.70581C15.0698 6.78381 15.9488 7.67181 17.0158 7.67181Z" fill="black"/>
</svg>