<svg width="25" height="25" viewBox="0 0 25 25" fill="none" xmlns="http://www.w3.org/2000/svg">
<path d="M8.54403 21.1182C6.4716 21.0724 4.82825 19.3551 4.87398 17.2827V6.7756C4.92263 4.73625 6.59419 3.11042 8.63451 3.11918H14.2855C14.844 3.11918 15.3782 3.34588 15.7644 3.74869L19.5561 7.69798C19.9219 8.08036 20.1272 8.58922 20.1272 9.11754V17.2827C20.1409 19.3376 18.5238 21.0355 16.4698 21.1191M8.54403 21.1182C8.57419 21.1182 8.60435 21.1191 8.63451 21.1191H16.4698M8.54403 21.1182C8.57419 21.1182 16.4698 21.1191 16.4698 21.1191" stroke="black" stroke-width="1.5" stroke-linecap="round" stroke-linejoin="round"/>
<path d="M14.7695 3.18164V6.07428C14.7686 7.48606 15.9118 8.63125 17.3236 8.63417H20.0625" stroke="black" stroke-width="1.5" stroke-linecap="round" stroke-linejoin="round"/>
<path d="M15.4785 17.6114V15.7178" stroke="black" stroke-width="1.5" stroke-linecap="round" stroke-linejoin="round"/>
<path d="M10.7485 17.6112V15.0234" stroke="black" stroke-width="1.5" stroke-linecap="round" stroke-linejoin="round"/>
<path d="M13.114 17.611V16.9111" stroke="black" stroke-width="1.5" stroke-linecap="round" stroke-linejoin="round"/>
<path d="M8.31473 17.611V16.9111" stroke="black" stroke-width="1.5" stroke-linecap="round" stroke-linejoin="round"/>
<path d="M8.00098 14.0271L10.4962 11.3233L13.343 13.1868L15.7844 10.5581" stroke="black" stroke-width="1.5" stroke-linecap="round" stroke-linejoin="round"/>
</svg>