<svg width="24" height="24" viewBox="0 0 24 24" fill="none" xmlns="http://www.w3.org/2000/svg">
<path opacity="0.4" fill-rule="evenodd" clip-rule="evenodd" d="M19.8535 9.094H16.8895C15.1235 9.085 13.6655 7.622 13.6655 5.838V2.698C13.6655 2.455 13.4725 2.25 13.2215 2.25H8.06649C5.66249 2.25 3.71249 4.229 3.71249 6.647V17.158C3.71249 19.693 5.75949 21.75 8.26949 21.75H15.9435C18.3475 21.75 20.2875 19.79 20.2875 17.372V9.533C20.2875 9.289 20.0945 9.094 19.8535 9.094Z" fill="black"/>
<path fill-rule="evenodd" clip-rule="evenodd" d="M14.8595 13.8106H8.1315C7.7175 13.8106 7.3815 13.4746 7.3815 13.0606C7.3815 12.6466 7.7175 12.3106 8.1315 12.3106H14.8595C15.2735 12.3106 15.6095 12.6466 15.6095 13.0606C15.6095 13.4746 15.2735 13.8106 14.8595 13.8106ZM12.5905 17.2316H8.1315C7.7175 17.2316 7.3815 16.8956 7.3815 16.4816C7.3815 16.0676 7.7175 15.7316 8.1315 15.7316H12.5905C13.0055 15.7316 13.3405 16.0676 13.3405 16.4816C13.3405 16.8956 13.0055 17.2316 12.5905 17.2316ZM8.1315 8.89062H11.0745C11.4885 8.89062 11.8245 9.22662 11.8245 9.64062C11.8245 10.0546 11.4885 10.3906 11.0745 10.3906H8.1315C7.7175 10.3906 7.3815 10.0546 7.3815 9.64062C7.3815 9.22662 7.7175 8.89062 8.1315 8.89062Z" fill="black"/>
<path fill-rule="evenodd" clip-rule="evenodd" d="M17.0183 7.67028C17.6913 7.67728 18.6263 7.68028 19.4203 7.67728C19.8263 7.67628 20.0333 7.18528 19.7513 6.89028C19.2423 6.35628 18.5333 5.61028 17.8203 4.86228C17.1053 4.11128 16.3873 3.35628 15.8643 2.80828C15.5763 2.50428 15.0713 2.71328 15.0713 3.13328V5.70328C15.0713 6.78228 15.9503 7.67028 17.0183 7.67028Z" fill="black"/>
</svg>