<svg width="25" height="24" viewBox="0 0 25 24" fill="none" xmlns="http://www.w3.org/2000/svg">
<path d="M11.4794 16.6004C11.3 16.6003 11.1226 16.5625 10.9588 16.4894C10.795 16.4164 10.6483 16.3097 10.5284 16.1764L9.68536 15.2374L8.63739 16.3374C8.4993 16.4763 8.31236 16.5557 8.11651 16.5586C7.92066 16.5614 7.73146 16.4876 7.58935 16.3528C7.44724 16.218 7.36348 16.033 7.35601 15.8372C7.34855 15.6415 7.41794 15.4506 7.54937 15.3054L8.76141 14.0274C9.01649 13.7799 9.35512 13.6372 9.71038 13.6274C9.88693 13.6304 10.0609 13.6699 10.2215 13.7434C10.3821 13.8169 10.5257 13.9227 10.6434 14.0544L11.4764 14.9804L13.3894 12.7224C13.5049 12.586 13.6477 12.4753 13.8085 12.3975C13.9694 12.3196 14.1447 12.2763 14.3234 12.2704C14.5026 12.2638 14.6811 12.2955 14.8472 12.3632C15.0132 12.431 15.1629 12.5333 15.2864 12.6634L16.9434 14.3784C17.0815 14.5216 17.1572 14.7138 17.1536 14.9128C17.1501 15.1118 17.0676 15.3012 16.9244 15.4394C16.7812 15.5776 16.5889 15.6532 16.3899 15.6496C16.191 15.6461 16.0016 15.5636 15.8634 15.4204L14.3754 13.8784L12.4574 16.1424C12.3388 16.2823 12.1915 16.3952 12.0256 16.4733C11.8596 16.5515 11.6788 16.5931 11.4954 16.5954L11.4794 16.6004Z" fill="black"/>
<path d="M16.2502 21.75H8.29416C7.70146 21.7396 7.11665 21.6122 6.57333 21.3751C6.03002 21.1381 5.53892 20.796 5.1282 20.3686C4.71749 19.9411 4.39523 19.4367 4.18002 18.8844C3.96481 18.3321 3.86091 17.7426 3.87417 17.15V6.657C3.90428 5.48264 4.3901 4.36607 5.22885 3.54356C6.0676 2.72106 7.19341 2.25715 8.36813 2.25H14.0362C14.4134 2.25057 14.7867 2.3271 15.1338 2.47502C15.4808 2.62295 15.7945 2.83924 16.0562 3.111L19.8462 7.06C20.3483 7.58081 20.628 8.27657 20.6261 9V17.163C20.6384 18.3471 20.1879 19.4892 19.3705 20.346C18.5531 21.2027 17.4335 21.7065 16.2502 21.75ZM8.37112 3.75C7.58914 3.75254 6.83886 4.0592 6.27896 4.60511C5.71906 5.15102 5.39345 5.89333 5.37112 6.675V17.163C5.35968 17.5589 5.42681 17.9531 5.56851 18.323C5.71021 18.6928 5.9237 19.031 6.19674 19.3178C6.46979 19.6047 6.79695 19.8347 7.15933 19.9946C7.52171 20.1544 7.91216 20.2408 8.30813 20.249H16.2171C17.0069 20.2132 17.7518 19.8716 18.2942 19.2964C18.8365 18.7212 19.1338 17.9575 19.1231 17.167V9C19.1231 8.66453 18.9934 8.34205 18.7611 8.1L14.9701 4.15C14.8489 4.02367 14.7035 3.92312 14.5424 3.85439C14.3814 3.78565 14.2082 3.75015 14.0332 3.75H8.36813H8.37112Z" fill="black"/>
<path d="M19.8124 9.2655H17.0734C16.1975 9.26153 15.3588 8.91108 14.7405 8.29069C14.1221 7.6703 13.7745 6.83041 13.7734 5.9545V3.0625C13.7734 2.86359 13.8525 2.67282 13.9931 2.53217C14.1338 2.39151 14.3245 2.3125 14.5234 2.3125C14.7223 2.3125 14.9131 2.39151 15.0538 2.53217C15.1944 2.67282 15.2734 2.86359 15.2734 3.0625V5.9545C15.2734 6.43291 15.4627 6.89188 15.8 7.23119C16.1372 7.57051 16.595 7.76259 17.0734 7.7655H19.8104C20.0093 7.7655 20.2001 7.84452 20.3408 7.98517C20.4814 8.12582 20.5604 8.31658 20.5604 8.5155C20.5604 8.71441 20.4814 8.90518 20.3408 9.04583C20.2001 9.18648 20.0093 9.2655 19.8104 9.2655H19.8124Z" fill="black"/>
<path d="M9.49147 12.2017C10.0498 12.2017 10.5025 11.749 10.5025 11.1907C10.5025 10.6323 10.0498 10.1797 9.49147 10.1797C8.93311 10.1797 8.48047 10.6323 8.48047 11.1907C8.48047 11.749 8.93311 12.2017 9.49147 12.2017Z" fill="black"/>
</svg>