<svg width="24" height="24" viewBox="0 0 24 24" fill="none" xmlns="http://www.w3.org/2000/svg">
<path opacity="0.4" fill-rule="evenodd" clip-rule="evenodd" d="M11.5884 15.9701C12.1784 14.5291 13.5284 13.1581 15.7164 13.1581C17.9024 13.1581 19.2524 14.5271 19.8434 15.9681C19.8864 15.9861 19.9244 16.0121 19.9664 16.0311V9.02709C19.9664 8.78309 19.7734 8.58809 19.5324 8.58809H16.5704C14.8044 8.57809 13.3474 7.11609 13.3474 5.33309V2.19509C13.3474 1.95109 13.1544 1.74609 12.9034 1.74609H7.75044C5.34844 1.74609 3.39844 3.72509 3.39844 6.14209V16.6481C3.39844 19.1821 5.44444 21.2381 7.95344 21.2381H9.46444C9.27244 20.7611 9.16244 20.2501 9.16444 19.7201C9.17244 18.0001 10.1424 16.5881 11.5884 15.9701Z" fill="black"/>
<path fill-rule="evenodd" clip-rule="evenodd" d="M18.4556 20.6559C18.2286 20.7459 18.0366 20.7559 17.9646 20.7559H13.4646C13.4106 20.7559 13.2156 20.7489 13.0106 20.6669C12.5966 20.4789 12.3296 20.0679 12.3316 19.6179C12.3356 18.7729 12.9486 18.4679 13.4726 18.4639C13.8846 18.4599 14.2166 18.1249 14.2166 17.7139C14.2166 17.4159 14.4826 16.2129 15.7166 16.2129C16.9496 16.2129 17.2166 17.4159 17.2166 17.7139C17.2166 18.1249 17.5486 18.4599 17.9606 18.4639C18.5126 18.4679 19.1016 18.7729 19.1016 19.6149C19.1016 20.0699 18.8366 20.4829 18.4556 20.6559ZM18.6296 17.0419C18.3516 15.9349 17.4066 14.7129 15.7166 14.7129C14.0256 14.7129 13.0806 15.9349 12.8036 17.0419C11.6346 17.3219 10.8376 18.3199 10.8316 19.6119C10.8266 20.6509 11.4376 21.6009 12.4206 22.0449C12.7566 22.1809 13.1276 22.2559 13.4646 22.2559H17.9646C18.3056 22.2559 18.6776 22.1819 19.0426 22.0359C19.9896 21.6079 20.6016 20.6569 20.6016 19.6149C20.6016 18.3209 19.8036 17.3209 18.6296 17.0419Z" fill="black"/>
<path fill-rule="evenodd" clip-rule="evenodd" d="M16.6984 7.16393C17.3714 7.17093 18.3064 7.17393 19.0994 7.17093C19.5054 7.16993 19.7114 6.67993 19.4304 6.38393C18.9214 5.84993 18.2124 5.10493 17.5004 4.35693C16.7854 3.60593 16.0674 2.85193 15.5454 2.30393C15.2564 2.00093 14.7524 2.20893 14.7524 2.62893V5.19793C14.7524 6.27593 15.6314 7.16393 16.6984 7.16393Z" fill="black"/>
</svg>