<svg width="24" height="24" viewBox="0 0 24 24" fill="none" xmlns="http://www.w3.org/2000/svg">
<path fill-rule="evenodd" clip-rule="evenodd" d="M17.0158 7.67229C17.6888 7.67929 18.6238 7.68229 19.4168 7.67929C19.8228 7.67829 20.0288 7.18829 19.7478 6.89229C19.2388 6.35829 18.5298 5.61329 17.8178 4.86529C17.1028 4.11429 16.3848 3.36029 15.8628 2.81229C15.5738 2.50929 15.0698 2.71729 15.0698 3.13729V5.70629C15.0698 6.78429 15.9488 7.67229 17.0158 7.67229Z" fill="black"/>
<path fill-rule="evenodd" clip-rule="evenodd" d="M13.537 12.7529C13.243 13.0449 12.768 13.0449 12.476 12.7509L11.457 11.7269V15.8359C11.457 16.2509 11.121 16.5859 10.707 16.5859C10.293 16.5859 9.957 16.2509 9.957 15.8359V11.7289L8.939 12.7509C8.647 13.0449 8.173 13.0449 7.879 12.7529C7.585 12.4609 7.584 11.9859 7.877 11.6919L10.153 9.40591C10.29 9.25591 10.488 9.16191 10.707 9.16191H10.708C10.907 9.16191 11.099 9.24191 11.239 9.38291L13.539 11.6919C13.831 11.9859 13.83 12.4609 13.537 12.7529ZM19.85 9.09591H16.887C15.122 9.08591 13.664 7.62391 13.664 5.84091V2.70291C13.664 2.45891 13.472 2.25391 13.221 2.25391H8.068C5.665 2.25391 3.716 4.23291 3.716 6.64991V17.1559C3.716 19.6899 5.762 21.7459 8.271 21.7459H15.942C18.344 21.7459 20.284 19.7869 20.284 17.3699V9.53491C20.284 9.29091 20.091 9.09591 19.85 9.09591Z" fill="black"/>
</svg>