<svg width="25" height="25" viewBox="0 0 25 25" fill="none" xmlns="http://www.w3.org/2000/svg">
<path fill-rule="evenodd" clip-rule="evenodd" d="M14.7695 2.43164C15.1837 2.43164 15.5195 2.76743 15.5195 3.18164V6.07428C15.5188 7.07158 16.3264 7.88176 17.3245 7.88417H20.0625C20.4767 7.88417 20.8125 8.21996 20.8125 8.63417C20.8125 9.04838 20.4767 9.38417 20.0625 9.38417L17.322 9.38417C15.4971 9.3804 14.0186 7.9001 14.0195 6.07428C14.0195 6.0742 14.0195 6.07436 14.0195 6.07428V3.18164C14.0195 2.76743 14.3553 2.43164 14.7695 2.43164Z" fill="black"/>
<path fill-rule="evenodd" clip-rule="evenodd" d="M15.3293 11.3257C15.7436 11.3257 16.0793 11.6615 16.0793 12.0757V15.7722C16.0793 16.1864 15.7436 16.5222 15.3293 16.5222C14.9151 16.5222 14.5793 16.1864 14.5793 15.7722V12.0757C14.5793 11.6615 14.9151 11.3257 15.3293 11.3257Z" fill="black"/>
<path fill-rule="evenodd" clip-rule="evenodd" d="M9.67041 9.9707C10.0846 9.9707 10.4204 10.3065 10.4204 10.7207V15.7723C10.4204 16.1865 10.0846 16.5223 9.67041 16.5223C9.2562 16.5223 8.92041 16.1865 8.92041 15.7723V10.7207C8.92041 10.3065 9.2562 9.9707 9.67041 9.9707Z" fill="black"/>
<path fill-rule="evenodd" clip-rule="evenodd" d="M12.5007 13.1357C12.9149 13.1357 13.2507 13.4715 13.2507 13.8857V15.7723C13.2507 16.1865 12.9149 16.5223 12.5007 16.5223C12.0865 16.5223 11.7507 16.1865 11.7507 15.7723V13.8857C11.7507 13.4715 12.0865 13.1357 12.5007 13.1357Z" fill="black"/>
<path d="M16.5004 21.8691H8.54443C7.95174 21.8588 7.36692 21.7314 6.82361 21.4943C6.28029 21.2572 5.78919 20.9151 5.37848 20.4877C4.96776 20.0602 4.64553 19.5559 4.43033 19.0035C4.21512 18.4512 4.11115 17.8618 4.12442 17.2691V6.77614C4.15452 5.60178 4.64035 4.48521 5.47909 3.6627C6.31784 2.8402 7.44372 2.37629 8.61844 2.36914H14.2864C14.6637 2.36988 15.0369 2.44649 15.3839 2.59441C15.7309 2.74232 16.0447 2.95851 16.3064 3.23013L20.0964 7.17914C20.5985 7.69959 20.8782 8.39501 20.8764 9.11813V17.2821C20.8884 18.4661 20.4378 19.6081 19.6205 20.4648C18.8032 21.3216 17.6837 21.8254 16.5004 21.8691ZM8.62143 3.86914C7.83952 3.87193 7.08933 4.17868 6.52948 4.72453C5.96963 5.27039 5.64401 6.01256 5.62143 6.79414V17.2821C5.60999 17.678 5.67705 18.0723 5.81875 18.4421C5.96046 18.812 6.174 19.1501 6.44705 19.437C6.72009 19.7239 7.04725 19.9539 7.40964 20.1137C7.77202 20.2735 8.16246 20.36 8.55844 20.3681H16.4674C17.2572 20.3324 18.0021 19.9907 18.5444 19.4155C19.0868 18.8403 19.3841 18.0767 19.3734 17.2861V9.11914C19.374 8.78355 19.2442 8.46086 19.0114 8.21915L15.2204 4.26913C15.099 4.14312 14.9535 4.0428 14.7925 3.97409C14.6316 3.90538 14.4584 3.86969 14.2834 3.86914H8.61844H8.62143Z" fill="black"/>
</svg>