<svg width="24" height="24" viewBox="0 0 24 24" fill="none" xmlns="http://www.w3.org/2000/svg">
<path opacity="0.4" fill-rule="evenodd" clip-rule="evenodd" d="M19.8535 9.094H16.8895C15.1235 9.085 13.6655 7.622 13.6655 5.838V2.698C13.6655 2.455 13.4725 2.25 13.2215 2.25H8.06649C5.66249 2.25 3.71249 4.229 3.71249 6.647V17.158C3.71249 19.693 5.75949 21.75 8.26949 21.75H15.9435C18.3475 21.75 20.2875 19.79 20.2875 17.372V9.533C20.2875 9.289 20.0945 9.094 19.8535 9.094Z" fill="black"/>
<path fill-rule="evenodd" clip-rule="evenodd" d="M17.0158 7.67175C17.6888 7.67875 18.6238 7.68175 19.4168 7.67875C19.8228 7.67775 20.0288 7.18775 19.7478 6.89175C19.2388 6.35775 18.5298 5.61275 17.8178 4.86475C17.1028 4.11375 16.3848 3.35975 15.8628 2.81175C15.5738 2.50875 15.0698 2.71675 15.0698 3.13675V5.70575C15.0698 6.78375 15.9488 7.67175 17.0158 7.67175Z" fill="black"/>
<path fill-rule="evenodd" clip-rule="evenodd" d="M14.479 12.2886L10.942 15.8246C10.795 15.9716 10.604 16.0446 10.412 16.0446C10.22 16.0446 10.028 15.9716 9.881 15.8246L8.153 14.0976C7.86 13.8046 7.86 13.3296 8.153 13.0366C8.446 12.7436 8.921 12.7436 9.214 13.0366L10.412 14.2336L13.418 11.2276C13.711 10.9346 14.186 10.9346 14.479 11.2276C14.772 11.5206 14.772 11.9956 14.479 12.2886Z" fill="black"/>
</svg>