<svg width="24" height="24" viewBox="0 0 24 24" fill="none" xmlns="http://www.w3.org/2000/svg">
<path fill-rule="evenodd" clip-rule="evenodd" d="M14.479 12.2889L10.942 15.8249C10.795 15.9719 10.604 16.0449 10.412 16.0449C10.22 16.0449 10.028 15.9719 9.881 15.8249L8.153 14.0979C7.86 13.8049 7.86 13.3299 8.153 13.0369C8.446 12.7439 8.921 12.7439 9.214 13.0369L10.412 14.2339L13.418 11.2279C13.711 10.9349 14.186 10.9349 14.479 11.2279C14.772 11.5209 14.772 11.9959 14.479 12.2889ZM19.85 9.09591H16.888C15.122 9.08591 13.665 7.62391 13.665 5.84091V2.70291C13.665 2.45891 13.472 2.25391 13.221 2.25391H8.068C5.666 2.25391 3.716 4.23291 3.716 6.64991V17.1559C3.716 19.6899 5.762 21.7459 8.271 21.7459H15.942C18.345 21.7459 20.284 19.7869 20.284 17.3699V9.53391C20.284 9.29091 20.091 9.09591 19.85 9.09591Z" fill="black"/>
<path fill-rule="evenodd" clip-rule="evenodd" d="M17.0163 7.67211C17.6893 7.67911 18.6243 7.68211 19.4173 7.67911C19.8233 7.67811 20.0293 7.18811 19.7483 6.89211C19.2393 6.35811 18.5303 5.61311 17.8183 4.86511C17.1033 4.11411 16.3853 3.36011 15.8633 2.81211C15.5743 2.50911 15.0703 2.71711 15.0703 3.13711V5.70611C15.0703 6.78411 15.9493 7.67211 17.0163 7.67211Z" fill="black"/>
</svg>