<svg width="25" height="24" viewBox="0 0 25 24" fill="none" xmlns="http://www.w3.org/2000/svg">
<path d="M8.58097 16.3806C8.41599 16.381 8.25558 16.3264 8.12497 16.2256C7.96734 16.1043 7.86429 15.9254 7.83841 15.7282C7.81254 15.5309 7.86596 15.3315 7.98697 15.1736L10.338 12.1186C10.3985 12.0401 10.4739 11.9743 10.5599 11.9251C10.646 11.8758 10.7409 11.8441 10.8393 11.8318C10.9376 11.8194 11.0375 11.8266 11.133 11.853C11.2285 11.8794 11.3179 11.9245 11.396 11.9856L13.485 13.6256L15.324 11.2516C15.4458 11.0944 15.6252 10.9919 15.8226 10.9669C16.02 10.9419 16.2192 10.9963 16.3765 11.1181C16.5337 11.24 16.6362 11.4194 16.6612 11.6167C16.6862 11.8141 16.6319 12.0134 16.51 12.1706L14.21 15.1406C14.0872 15.2979 13.9071 15.4 13.7091 15.4246C13.5111 15.4492 13.3114 15.3942 13.154 15.2716L11.066 13.6326L9.17798 16.0886C9.1076 16.1799 9.01712 16.2537 8.91358 16.3044C8.81004 16.355 8.69622 16.3811 8.58097 16.3806Z" fill="black"/>
<path d="M16.2502 21.75H8.29419C7.70149 21.7396 7.11668 21.6122 6.57336 21.3751C6.03005 21.1381 5.53895 20.796 5.12823 20.3686C4.71752 19.9411 4.39529 19.4367 4.18008 18.8844C3.96487 18.3321 3.86091 17.7426 3.87417 17.15V6.657C3.90428 5.48264 4.3901 4.36607 5.22885 3.54356C6.06759 2.72106 7.19347 2.25715 8.36819 2.25H14.0362C14.4134 2.25057 14.7867 2.3271 15.1338 2.47502C15.4808 2.62295 15.7945 2.83924 16.0562 3.111L19.8462 7.06C20.3483 7.58081 20.628 8.27657 20.6262 9V17.163C20.6385 18.3471 20.1879 19.4892 19.3705 20.346C18.5531 21.2027 17.4335 21.7065 16.2502 21.75ZM8.37118 3.75C7.5892 3.75254 6.83886 4.0592 6.27896 4.60511C5.71906 5.15102 5.39351 5.89333 5.37118 6.675V17.163C5.35975 17.5589 5.42681 17.9531 5.56851 18.323C5.71021 18.6928 5.92376 19.031 6.19681 19.3178C6.46985 19.6047 6.79701 19.8347 7.15939 19.9946C7.52178 20.1544 7.91222 20.2408 8.30819 20.249H16.2172C17.007 20.2132 17.7518 19.8716 18.2942 19.2964C18.8365 18.7212 19.1338 17.9575 19.1232 17.167V9C19.1231 8.66453 18.9934 8.34205 18.7612 8.1L14.9702 4.15C14.849 4.02367 14.7035 3.92312 14.5425 3.85439C14.3815 3.78565 14.2082 3.75015 14.0332 3.75H8.36819H8.37118Z" fill="black"/>
<path d="M19.8124 9.2655H17.0734C16.1975 9.26153 15.3588 8.91108 14.7405 8.29069C14.1221 7.6703 13.7745 6.83041 13.7734 5.9545V3.0625C13.7734 2.86359 13.8525 2.67282 13.9931 2.53217C14.1338 2.39151 14.3245 2.3125 14.5234 2.3125C14.7223 2.3125 14.9131 2.39151 15.0538 2.53217C15.1944 2.67282 15.2734 2.86359 15.2734 3.0625V5.9545C15.2734 6.43377 15.4634 6.89349 15.8017 7.23295C16.1401 7.5724 16.5992 7.76391 17.0784 7.7655H19.8154C20.0143 7.7655 20.2051 7.84452 20.3458 7.98517C20.4864 8.12582 20.5654 8.31658 20.5654 8.5155C20.5654 8.71441 20.4864 8.90518 20.3458 9.04583C20.2051 9.18648 20.0143 9.2655 19.8154 9.2655H19.8124Z" fill="black"/>
</svg>