<svg width="25" height="24" viewBox="0 0 25 24" fill="none" xmlns="http://www.w3.org/2000/svg">
<path d="M14.3184 13.6992H9.81836C9.61945 13.6992 9.42868 13.6202 9.28803 13.4796C9.14738 13.3389 9.06836 13.1481 9.06836 12.9492C9.06836 12.7503 9.14738 12.5595 9.28803 12.4189C9.42868 12.2782 9.61945 12.1992 9.81836 12.1992H14.3184C14.5173 12.1992 14.708 12.2782 14.8487 12.4189C14.9893 12.5595 15.0684 12.7503 15.0684 12.9492C15.0684 13.1481 14.9893 13.3389 14.8487 13.4796C14.708 13.6202 14.5173 13.6992 14.3184 13.6992Z" fill="black"/>
<path d="M16.248 21.75H8.29195C7.09601 21.7256 5.95868 21.2274 5.12989 20.3648C4.30109 19.5023 3.84864 18.346 3.87195 17.15V6.657C3.90206 5.48264 4.38789 4.36607 5.22663 3.54356C6.06538 2.72106 7.19123 2.25715 8.36595 2.25H14.034C14.4112 2.25062 14.7845 2.32718 15.1315 2.4751C15.4785 2.62302 15.7923 2.83928 16.054 3.111L19.8479 7.06C20.35 7.58081 20.6298 8.27657 20.6279 9V17.163C20.6402 18.3478 20.1891 19.4904 19.3709 20.3473C18.5526 21.2042 17.432 21.7076 16.248 21.75ZM8.36895 3.75C7.58714 3.75253 6.83696 4.05906 6.27708 4.60475C5.7172 5.15044 5.39154 5.89251 5.36895 6.674V17.163C5.35752 17.5589 5.42458 17.9531 5.56629 18.323C5.70799 18.6928 5.92152 19.031 6.19457 19.3178C6.46761 19.6047 6.79476 19.8347 7.15715 19.9946C7.51953 20.1544 7.90997 20.2408 8.30595 20.249H16.218C17.0077 20.2132 17.7526 19.8716 18.295 19.2964C18.8373 18.7212 19.1346 17.9575 19.124 17.167V9C19.1248 8.66437 18.9949 8.34159 18.762 8.1L14.971 4.15C14.8495 4.02399 14.704 3.92365 14.543 3.85494C14.3821 3.78623 14.209 3.75054 14.034 3.75H8.36895Z" fill="black"/>
<path d="M19.8115 9.2655H17.0715C16.1955 9.2618 15.3566 8.91142 14.7382 8.29098C14.1199 7.67053 13.7723 6.83049 13.7715 5.9545V3.0625C13.7715 2.86359 13.8505 2.67282 13.9911 2.53217C14.1318 2.39151 14.3226 2.3125 14.5215 2.3125C14.7204 2.3125 14.9112 2.39151 15.0518 2.53217C15.1925 2.67282 15.2715 2.86359 15.2715 3.0625V5.9545C15.2715 6.43377 15.4615 6.89349 15.7998 7.23295C16.1381 7.5724 16.5972 7.76391 17.0765 7.7655H19.8145C20.0134 7.7655 20.2042 7.84452 20.3448 7.98517C20.4855 8.12582 20.5645 8.31658 20.5645 8.5155C20.5645 8.71441 20.4855 8.90518 20.3448 9.04583C20.2042 9.18648 20.0134 9.2655 19.8145 9.2655H19.8115Z" fill="black"/>
</svg>