<svg width="24" height="24" viewBox="0 0 24 24" fill="none" xmlns="http://www.w3.org/2000/svg">
<path fill-rule="evenodd" clip-rule="evenodd" d="M14.2491 14.2769H12.7511V15.7759C12.7511 16.1899 12.4151 16.5259 12.0011 16.5259C11.5871 16.5259 11.2511 16.1899 11.2511 15.7759V14.2769H9.75106C9.33706 14.2769 9.00106 13.9409 9.00106 13.5269C9.00106 13.1129 9.33706 12.7769 9.75106 12.7769H11.2511V11.2779C11.2511 10.8639 11.5871 10.5279 12.0011 10.5279C12.4151 10.5279 12.7511 10.8639 12.7511 11.2779V12.7769H14.2491C14.6631 12.7769 14.9991 13.1129 14.9991 13.5269C14.9991 13.9409 14.6631 14.2769 14.2491 14.2769ZM19.8501 9.09591H16.8871C15.1221 9.08591 13.6641 7.62391 13.6641 5.84091V2.70191C13.6641 2.45891 13.4721 2.25391 13.2211 2.25391H8.06806C5.66506 2.25391 3.71606 4.23291 3.71606 6.64891V17.1549C3.71606 19.6889 5.76206 21.7459 8.27106 21.7459H15.9421C18.3441 21.7459 20.2841 19.7869 20.2841 17.3699V9.53391C20.2841 9.29091 20.0911 9.09591 19.8501 9.09591Z" fill="black"/>
<path fill-rule="evenodd" clip-rule="evenodd" d="M17.0159 7.67181C17.6889 7.67881 18.6239 7.68181 19.4169 7.67881C19.8229 7.67781 20.0289 7.18781 19.7479 6.89181C19.2389 6.35781 18.5299 5.61281 17.8179 4.86481C17.1029 4.11381 16.3849 3.35981 15.8629 2.81181C15.5739 2.50881 15.0699 2.71681 15.0699 3.13681V5.70581C15.0699 6.78381 15.9489 7.67181 17.0159 7.67181Z" fill="black"/>
</svg>