<svg width="25" height="24" viewBox="0 0 25 24" fill="none" xmlns="http://www.w3.org/2000/svg">
<path d="M11.8718 16.6818C11.6729 16.6818 11.4822 16.6028 11.3415 16.4621C11.2009 16.3215 11.1218 16.1307 11.1218 15.9318V11.8248L10.1039 12.8468C9.9626 12.9836 9.77323 13.0595 9.57658 13.0581C9.37992 13.0567 9.19169 12.9781 9.05244 12.8392C8.91318 12.7003 8.83405 12.5123 8.83207 12.3157C8.83009 12.119 8.90542 11.9295 9.04185 11.7878L11.3178 9.50181C11.3882 9.42488 11.4737 9.36345 11.5691 9.32143C11.6645 9.27942 11.7676 9.25776 11.8718 9.25781C11.9706 9.25768 12.0683 9.27714 12.1595 9.31508C12.2506 9.35302 12.3334 9.40866 12.4028 9.47881L14.7029 11.7878C14.7744 11.8571 14.8314 11.9399 14.8706 12.0315C14.9097 12.1231 14.9303 12.2215 14.931 12.3211C14.9317 12.4207 14.9126 12.5194 14.8748 12.6115C14.8369 12.7036 14.7811 12.7873 14.7106 12.8576C14.6401 12.9279 14.5563 12.9835 14.4641 13.0211C14.3718 13.0586 14.273 13.0775 14.1735 13.0765C14.0739 13.0755 13.9755 13.0546 13.8841 13.0152C13.7926 12.9758 13.7099 12.9185 13.6408 12.8468L12.6209 11.8228V15.9318C12.6209 16.1305 12.542 16.3212 12.4015 16.4618C12.2611 16.6024 12.0706 16.6815 11.8718 16.6818Z" fill="black"/>
<path d="M16.2499 21.75H8.29394C7.09791 21.7258 5.96043 21.2277 5.13158 20.3651C4.30274 19.5025 3.85035 18.346 3.87392 17.15V6.657C3.90403 5.48264 4.38985 4.36607 5.2286 3.54356C6.06735 2.72106 7.19322 2.25715 8.36794 2.25H14.0359C14.4132 2.25057 14.7865 2.3271 15.1335 2.47502C15.4806 2.62295 15.7943 2.83924 16.0559 3.111L19.8459 7.06C20.348 7.58081 20.6278 8.27657 20.6259 9V17.163C20.6382 18.3471 20.1876 19.4892 19.3703 20.346C18.5529 21.2027 17.4333 21.7065 16.2499 21.75ZM8.37093 3.75C7.58903 3.75279 6.83883 4.05953 6.27898 4.60538C5.71914 5.15124 5.39351 5.89342 5.37093 6.675V17.163C5.36109 17.5585 5.42927 17.952 5.57156 18.3212C5.71384 18.6903 5.92745 19.0278 6.20019 19.3144C6.47292 19.601 6.79944 19.831 7.16109 19.9914C7.52275 20.1517 7.91245 20.2393 8.30795 20.249H16.2169C17.0067 20.2132 17.7516 19.8716 18.2939 19.2964C18.8363 18.7212 19.1336 17.9575 19.1229 17.167V9C19.1229 8.66453 18.9932 8.34205 18.7609 8.1L14.9699 4.15C14.8487 4.02367 14.7033 3.92312 14.5423 3.85439C14.3812 3.78565 14.208 3.75015 14.0329 3.75H8.36794H8.37093Z" fill="black"/>
<path d="M19.8124 9.2655H17.0734C16.1975 9.26153 15.3588 8.91108 14.7405 8.29069C14.1221 7.6703 13.7745 6.83041 13.7734 5.9545V3.0625C13.7734 2.86359 13.8525 2.67282 13.9931 2.53217C14.1338 2.39151 14.3245 2.3125 14.5234 2.3125C14.7223 2.3125 14.9131 2.39151 15.0538 2.53217C15.1944 2.67282 15.2734 2.86359 15.2734 3.0625V5.9545C15.2734 6.43377 15.4634 6.89349 15.8017 7.23295C16.1401 7.5724 16.5992 7.76391 17.0784 7.7655H19.8154C20.0143 7.7655 20.2051 7.84452 20.3458 7.98517C20.4864 8.12582 20.5654 8.31658 20.5654 8.5155C20.5654 8.71441 20.4864 8.90518 20.3458 9.04583C20.2051 9.18648 20.0143 9.2655 19.8154 9.2655H19.8124Z" fill="black"/>
</svg>