<svg width="24" height="24" viewBox="0 0 24 24" fill="none" xmlns="http://www.w3.org/2000/svg">
<path d="M12 21.75C6.62 21.75 2.25 17.38 2.25 12C2.25 6.62 6.62 2.25 12 2.25C17.38 2.25 21.75 6.62 21.75 12C21.75 17.38 17.38 21.75 12 21.75ZM12 3.75C7.45 3.75 3.75 7.45 3.75 12C3.75 16.55 7.45 20.25 12 20.25C16.55 20.25 20.25 16.55 20.25 12C20.25 7.45 16.55 3.75 12 3.75Z" fill="black"/>
<path d="M11.9902 17.7796C11.9002 17.7796 11.8103 17.7596 11.7203 17.7296C9.00028 16.6596 7.24023 14.1796 7.24023 11.3996C7.24023 9.01963 8.31024 7.86958 9.12024 7.21958C10.6002 6.02958 12.6703 5.8896 14.4003 6.8596C16.0803 7.8096 16.9703 9.53961 16.7203 11.3696C16.5303 12.7796 15.3002 13.8496 13.8702 13.8496C12.2902 13.8496 11.0002 12.5596 11.0002 10.9796C11.0002 10.3996 11.1803 9.82958 11.5103 9.33958C11.7403 8.99958 12.2102 8.90962 12.5502 9.13962C12.8902 9.36962 12.9802 9.83966 12.7502 10.1797C12.5902 10.4197 12.5002 10.6996 12.5002 10.9796C12.5002 11.7296 13.1202 12.3496 13.8702 12.3496C14.5502 12.3496 15.1402 11.8397 15.2302 11.1697C15.4302 9.71965 14.5503 8.66965 13.6603 8.16965C12.4703 7.49965 11.0603 7.58962 10.0703 8.38962C9.68025 8.70962 8.75024 9.46964 8.75024 11.4096C8.75024 13.5696 10.1303 15.4996 12.2703 16.3396C12.6503 16.4896 12.8502 16.9297 12.6902 17.3097C12.5702 17.5997 12.2902 17.7896 11.9902 17.7896V17.7796Z" fill="black"/>
</svg>