<svg width="25" height="24" viewBox="0 0 25 24" fill="none" xmlns="http://www.w3.org/2000/svg">
<path opacity="0.4" d="M21.5 12C21.5 16.9709 17.4709 21 12.5 21C7.52908 21 3.5 16.9709 3.5 12C3.5 7.02908 7.52908 3 12.5 3C17.4709 3 21.5 7.02908 21.5 12Z" stroke="black" stroke-width="1.5" stroke-linecap="round" stroke-linejoin="round"/>
<path d="M11.8141 15.5907H10.3887C9.07713 15.5907 8.01367 14.5272 8.01367 13.2166C8.01367 11.9051 9.07713 10.8426 10.3887 10.8426H11.8141L9.53346 8.41016" stroke="black" stroke-width="1.5" stroke-linecap="round" stroke-linejoin="round"/>
<path d="M13.1855 8.41016H14.611C15.9225 8.41016 16.986 9.47362 16.986 10.7842C16.986 12.0958 15.9225 13.1583 14.611 13.1583H13.1855L15.4662 15.5907" stroke="black" stroke-width="1.5" stroke-linecap="round" stroke-linejoin="round"/>
</svg>