<svg width="24" height="24" viewBox="0 0 24 24" fill="none" xmlns="http://www.w3.org/2000/svg">
<path fill-rule="evenodd" clip-rule="evenodd" d="M14.405 13.9009L15.512 15.0819C15.796 15.3839 15.781 15.8589 15.479 16.1419C15.334 16.2769 15.15 16.3449 14.966 16.3449C14.765 16.3449 14.566 16.2649 14.419 16.1079L12.138 13.6779C11.933 13.4599 11.879 13.1409 11.997 12.8669C12.116 12.5919 12.386 12.4149 12.685 12.4149H14.111C15.008 12.4149 15.736 11.6839 15.736 10.7849C15.736 9.89088 15.008 9.16488 14.111 9.16488H12.685C12.271 9.16488 11.935 8.82888 11.935 8.41488C11.935 8.00088 12.271 7.66488 12.685 7.66488H14.111C15.834 7.66488 17.236 9.06488 17.236 10.7849C17.236 12.4109 15.991 13.7529 14.405 13.9009ZM11.314 16.3449H9.888C8.166 16.3449 6.763 14.9449 6.763 13.2249C6.763 11.5979 8.009 10.2569 9.594 10.1089L8.486 8.92788C8.203 8.62588 8.218 8.15088 8.519 7.86788C8.822 7.58488 9.297 7.59888 9.58 7.90088L11.861 10.3319C12.066 10.5489 12.121 10.8679 12.003 11.1429C11.884 11.4169 11.613 11.5949 11.314 11.5949H9.888C8.992 11.5949 8.263 12.3259 8.263 13.2249C8.263 14.1179 8.992 14.8449 9.888 14.8449H11.314C11.728 14.8449 12.064 15.1809 12.064 15.5949C12.064 16.0089 11.728 16.3449 11.314 16.3449ZM12 2.50488C6.761 2.50488 2.5 6.76688 2.5 12.0049C2.5 17.2429 6.761 21.5049 12 21.5049C17.238 21.5049 21.5 17.2429 21.5 12.0049C21.5 6.76688 17.238 2.50488 12 2.50488Z" fill="black"/>
</svg>