<svg width="25" height="25" viewBox="0 0 25 25" fill="none" xmlns="http://www.w3.org/2000/svg">
<path fill-rule="evenodd" clip-rule="evenodd" d="M7.81166 6.17065C7.85456 5.47587 8.05238 4.48385 8.74916 3.68256C9.48616 2.83356 10.5802 2.40356 11.9992 2.40356C13.4192 2.40356 14.5122 2.83356 15.2502 3.68256C15.9468 4.48369 16.1443 5.47581 16.187 6.17065H20.0756C20.4896 6.17065 20.8256 6.50665 20.8256 6.92065C20.8256 7.33465 20.4896 7.67065 20.0756 7.67065H3.92456C3.51056 7.67065 3.17456 7.33465 3.17456 6.92065C3.17456 6.50665 3.51056 6.17065 3.92456 6.17065H7.81166ZM14.6842 6.17065C14.6464 5.71875 14.5136 5.11744 14.1122 4.65956C13.6722 4.15756 12.9612 3.90356 11.9992 3.90356C11.0382 3.90356 10.3272 4.15756 9.88616 4.65956C9.48476 5.11744 9.35218 5.71875 9.31447 6.17065H14.6842Z" fill="black"/>
<path d="M11.989 22.3884C9.03002 22.3884 7.20802 21.8754 6.08202 20.7274C4.49397 19.1084 4.54596 16.4546 4.6179 12.783L4.61802 12.7764C4.63502 11.9154 4.65302 10.9894 4.65302 9.99341C4.65302 9.57941 4.98902 9.24341 5.40302 9.24341C5.81702 9.24341 6.15302 9.57941 6.15302 9.99341C6.15302 10.9994 6.13502 11.9364 6.11702 12.8064C6.05002 16.2394 6.00602 18.5064 7.15302 19.6764C7.96302 20.5034 9.50002 20.8884 11.989 20.8884C14.483 20.8884 16.023 20.5014 16.837 19.6724C17.991 18.4955 17.948 16.2147 17.883 12.762L17.8812 12.6653C17.8657 11.8365 17.849 10.9455 17.849 9.99341C17.849 9.57941 18.185 9.24341 18.599 9.24341C19.013 9.24341 19.349 9.57941 19.349 9.99341C19.349 10.9724 19.366 11.8844 19.383 12.7334L19.3832 12.7411C19.4521 16.4311 19.5019 19.0985 17.907 20.7234C16.778 21.8744 14.952 22.3884 11.989 22.3884Z" fill="black"/>
</svg>