<svg width="25" height="24" viewBox="0 0 25 24" fill="none" xmlns="http://www.w3.org/2000/svg">
<path d="M15.6297 19.1799C16.2171 20.1495 17.2825 20.7969 18.4979 20.7969C20.3491 20.7969 21.85 19.296 21.85 17.4449C21.85 15.5937 20.3491 14.0928 18.4979 14.0928C17.1886 14.0928 16.0535 14.8447 15.5029 15.9401" stroke="black" stroke-width="1.5" stroke-linecap="round" stroke-linejoin="round"/>
<path d="M17.356 15.9391H15.5V14.0938" stroke="black" stroke-width="1.5" stroke-linecap="round" stroke-linejoin="round"/>
<path d="M21.7703 10.3597L21.7519 8.02656C21.7451 5.09736 19.9152 3.03134 16.9831 3.03908L8.59421 3.05844C5.67082 3.06521 3.84285 5.13897 3.84963 8.06914L3.86801 15.9732C3.87479 18.9024 5.70372 20.9675 8.63679 20.9607L12.5811 20.9414" stroke="black" stroke-width="1.5" stroke-linecap="round" stroke-linejoin="round"/>
<path d="M15.625 3.03906L15.6414 9.67935L12.8216 8.76102L9.98527 9.6958L9.97656 3.06422" stroke="black" stroke-width="1.5" stroke-linecap="round" stroke-linejoin="round"/>
</svg>