<svg width="25" height="24" viewBox="0 0 25 24" fill="none" xmlns="http://www.w3.org/2000/svg">
<path fill-rule="evenodd" clip-rule="evenodd" d="M12.4604 8.82915C12.6104 8.77915 12.7734 8.77815 12.9274 8.82815L14.7754 9.42915L14.7629 2.62725C14.7626 2.46152 14.628 2.32744 14.4623 2.3278L10.8881 2.3355C10.7225 2.33586 10.5885 2.47027 10.5887 2.63584L10.5964 9.44415L12.4604 8.82915Z" fill="black"/>
<path fill-rule="evenodd" clip-rule="evenodd" d="M12.1155 18.5808C12.2255 17.6008 12.6255 16.6908 13.2855 15.9508L15.7055 13.3008C15.7655 13.2108 15.8455 13.1308 15.9255 13.0508C15.9455 13.0208 15.9655 13.0008 15.9855 12.9808L16.8955 11.9808C18.1469 10.6318 20.1387 10.3934 21.6335 11.3215C21.855 11.459 22.1745 11.3116 22.1738 11.0509L22.1655 7.8308C22.1655 6.1908 21.6155 4.7408 20.6155 3.7508C19.6755 2.8208 18.3855 2.3208 16.8955 2.3208H16.5659C16.4001 2.3208 16.2657 2.45534 16.2659 2.62117L16.2755 10.4608C16.2755 10.7008 16.1655 10.9308 15.9655 11.0708C15.7755 11.2108 15.5255 11.2508 15.2955 11.1708L12.6955 10.3308L10.0855 11.1908C10.0055 11.2208 9.92555 11.2308 9.84555 11.2308C9.69555 11.2308 9.53555 11.1808 9.40555 11.0908C9.21555 10.9508 9.09555 10.7208 9.09555 10.4808L9.08592 2.64043C9.08571 2.47489 8.95146 2.3408 8.78592 2.3408H8.44555C5.30555 2.3508 3.18555 4.5608 3.18555 7.8508V7.8708L3.20555 15.8108C3.20555 17.4008 3.70555 18.7708 4.63555 19.7608C5.58555 20.7808 6.91555 21.3208 8.47555 21.3208H8.49555L11.8286 21.312C12.0445 21.3114 12.1905 21.0887 12.1308 20.8812C12.0058 20.4472 11.9632 19.984 12.0155 19.5208L12.1155 18.5808Z" fill="black"/>
<path fill-rule="evenodd" clip-rule="evenodd" d="M20.8755 15.6413L20.2575 16.3213L18.7315 14.7963L19.2985 14.1743C19.4865 13.9683 19.8075 13.9573 20.0115 14.1443L20.8535 14.9263C20.9515 15.0173 21.0085 15.1413 21.0145 15.2743C21.0195 15.4083 20.9715 15.5373 20.8755 15.6413ZM17.3155 19.5643C17.0955 19.8093 16.7985 19.9733 16.4805 20.0253L15.5645 20.1743C15.4435 20.1933 15.3665 20.1373 15.3295 20.1023C15.2925 20.0673 15.2325 19.9913 15.2455 19.8763L15.3475 18.9343C15.3795 18.6303 15.5035 18.3503 15.7015 18.1293L17.7215 15.9083L19.2485 17.4333L17.3155 19.5643ZM21.8715 13.8263L21.0305 13.0433C20.2175 12.2933 18.9465 12.3443 18.1925 13.1603L17.2195 14.2303C17.1985 14.2473 17.1785 14.2663 17.1595 14.2853C17.1225 14.3213 17.0905 14.3613 17.0625 14.4033L14.5885 17.1243C14.1745 17.5843 13.9215 18.1563 13.8555 18.7743L13.7535 19.7133C13.6935 20.2673 13.8915 20.8063 14.2985 21.1913C14.6335 21.5083 15.0645 21.6793 15.5145 21.6793C15.6115 21.6793 15.7095 21.6713 15.8075 21.6553L16.7225 21.5053C17.3765 21.3983 17.9835 21.0653 18.4285 20.5693L21.9815 16.6533C22.3455 16.2603 22.5335 15.7493 22.5125 15.2153C22.4925 14.6813 22.2635 14.1873 21.8715 13.8263Z" fill="black"/>
</svg>