<svg width="25" height="24" viewBox="0 0 25 24" fill="none" xmlns="http://www.w3.org/2000/svg">
<path d="M21.6312 10.2776L21.6127 7.96286C21.6059 5.05651 19.7913 3.00737 16.881 3.01418L8.55798 3.03364C5.65649 3.04045 3.84282 5.09834 3.84963 8.0047L3.86812 15.8471C3.87493 18.7544 5.68957 20.8035 8.59982 20.7967L12.018 20.7773" stroke="black" stroke-width="1.5" stroke-linecap="round" stroke-linejoin="round"/>
<path d="M18.0505 20.9868C20.1483 20.9868 21.8501 19.285 21.8501 17.1863C21.8501 15.0875 20.1483 13.3857 18.0505 13.3857C15.9518 13.3857 14.25 15.0875 14.25 17.1863C14.25 19.285 15.9518 20.9868 18.0505 20.9868Z" stroke="black" stroke-width="1.5" stroke-linecap="round" stroke-linejoin="round"/>
<path d="M18.0508 17.1869L19.0861 16.2148" stroke="black" stroke-width="1.5" stroke-linecap="round" stroke-linejoin="round"/>
<path d="M15.5342 3.01318L15.5507 9.60234L12.7524 8.68967L9.93844 9.61888L9.92969 3.03751" stroke="black" stroke-width="1.5" stroke-linecap="round" stroke-linejoin="round"/>
</svg>