<svg width="25" height="24" viewBox="0 0 25 24" fill="none" xmlns="http://www.w3.org/2000/svg">
<path d="M3.46549 2.30214C3.59 2.25283 3.72965 2.23623 3.87125 2.26064L5.94644 2.6205C6.28336 2.68056 6.53726 2.96035 6.56607 3.30068L7.5275 14.7406C7.57144 15.2904 8.0275 15.7103 8.57535 15.7006H20.4562C20.8703 15.7006 21.2062 16.0404 21.2062 16.4506C21.2062 16.8705 20.8703 17.2006 20.4562 17.2006H8.5773C7.24918 17.2103 6.14029 16.1903 6.03238 14.8705L5.12027 4.00185L3.61539 3.74062C3.20719 3.67031 2.93424 3.28066 3.00406 2.8705C3.05045 2.60293 3.2316 2.39492 3.46549 2.30214Z" fill="black"/>
<path fill-rule="evenodd" clip-rule="evenodd" d="M16.3722 2.25039C16.3888 2.25039 16.4054 2.25087 16.4215 2.25185L17.1252 2.25039C18.1242 2.25039 18.9914 2.60048 19.6051 3.26064C20.2145 3.91054 20.5182 4.80068 20.5212 5.76064L20.5314 10.1503C20.5334 11.1102 20.2331 12.0004 19.6271 12.6503C19.0153 13.3104 18.1501 13.6703 17.1525 13.6703L12.5021 13.6903C11.5031 13.6903 10.6364 13.3305 10.0221 12.6806C9.41324 12.0204 9.10807 11.1405 9.10611 10.1703L9.09635 5.79043C9.09439 4.8207 9.39615 3.94033 10.0021 3.28066C10.6144 2.6205 11.4782 2.26064 12.4743 2.26064H13.2423L16.3205 2.25234C16.3376 2.25136 16.3546 2.25039 16.3722 2.25039ZM15.6256 3.7538L13.9933 3.75722L13.9962 6.1913L14.5851 6.00039C14.7365 5.95058 14.9001 5.95058 15.0524 6.00039L15.631 6.18935L15.6256 3.7538ZM12.4933 3.76064H12.4782C11.8532 3.76064 11.401 3.98037 11.1022 4.30068C10.797 4.63027 10.5944 5.13027 10.5963 5.79043L10.6061 10.1703C10.6071 10.5766 10.6847 10.9188 10.8156 11.1986C10.8976 11.3729 11.0002 11.5233 11.1173 11.6503C11.4171 11.9701 11.8703 12.1903 12.4982 12.1903L17.1481 12.1703C17.776 12.1703 18.2282 11.9603 18.5275 11.6303C18.8312 11.3104 19.0324 10.8104 19.0314 10.1503L19.0212 5.77041C19.0192 5.11025 18.8151 4.61025 18.5094 4.28066C18.2101 3.96035 17.7575 3.75039 17.1291 3.75039L17.1335 7.2206C17.1339 7.3456 17.1027 7.46523 17.0451 7.57119C16.9923 7.66835 16.9176 7.7538 16.8244 7.8207C16.63 7.9706 16.3791 8.01015 16.151 7.93056L14.8229 7.49697L13.4821 7.94033C13.3659 7.97597 13.2438 7.98574 13.1261 7.96816C13.0129 7.95107 12.904 7.90908 12.8083 7.84072C12.6134 7.69033 12.4982 7.4706 12.4972 7.23037L12.4933 3.76064Z" fill="black"/>
<path d="M8.12418 19.1903C8.83414 19.1903 9.40641 19.7606 9.40836 20.4706C9.41129 21.1806 8.83609 21.7504 8.1315 21.7504C7.42105 21.7504 6.85025 21.1806 6.8483 20.4706C6.8483 19.7606 7.42105 19.1903 8.12418 19.1903Z" fill="black"/>
<path d="M19.4401 19.1903C20.1501 19.1903 20.7213 19.7606 20.7243 20.4706C20.7262 21.1806 20.151 21.7504 19.4474 21.7504C18.7375 21.7504 18.1652 21.1806 18.1632 20.4706C18.1652 19.7606 18.734 19.1903 19.4401 19.1903Z" fill="black"/>
</svg>