<svg width="24" height="24" viewBox="0 0 24 24" fill="none" xmlns="http://www.w3.org/2000/svg">
<path fill-rule="evenodd" clip-rule="evenodd" d="M17.165 12.329L15.501 13.999C15.478 14.022 15.447 14.033 15.421 14.052C15.37 14.092 15.32 14.135 15.259 14.161C15.168 14.199 15.07 14.22 14.97 14.22L14.969 14.219V14.22C14.947 14.22 14.928 14.209 14.907 14.207C14.829 14.2 14.752 14.191 14.681 14.161C14.589 14.123 14.506 14.068 14.437 13.998L12.773 12.329C12.481 12.036 12.481 11.561 12.775 11.268C13.069 10.975 13.544 10.978 13.836 11.27L14.219 11.654V7.28C14.219 6.866 14.555 6.53 14.969 6.53C15.383 6.53 15.719 6.866 15.719 7.28V11.655L16.103 11.27C16.395 10.977 16.87 10.975 17.163 11.268C17.457 11.561 17.457 12.036 17.165 12.329ZM16.54 17.47H7.463C7.049 17.47 6.713 17.134 6.713 16.72C6.713 16.306 7.049 15.97 7.463 15.97H16.54C16.954 15.97 17.29 16.306 17.29 16.72C17.29 17.134 16.954 17.47 16.54 17.47ZM6.838 11.269C7.13 10.976 7.606 10.977 7.898 11.27L8.282 11.655V7.28C8.282 6.866 8.618 6.53 9.032 6.53C9.446 6.53 9.782 6.866 9.782 7.28V11.656L10.166 11.27C10.458 10.977 10.933 10.975 11.227 11.268C11.52 11.561 11.52 12.036 11.228 12.329L9.564 13.999C9.541 14.022 9.51 14.033 9.484 14.052C9.433 14.092 9.383 14.135 9.323 14.161C9.232 14.199 9.134 14.22 9.033 14.22C9.011 14.22 8.992 14.209 8.971 14.207C8.893 14.2 8.815 14.191 8.744 14.161C8.652 14.123 8.57 14.068 8.501 13.998L6.836 12.329C6.544 12.036 6.544 11.561 6.838 11.269ZM16.218 2.5H7.783C4.623 2.5 2.5 4.722 2.5 8.03V15.97C2.5 19.277 4.623 21.5 7.783 21.5H16.218C19.377 21.5 21.5 19.277 21.5 15.97V8.03C21.5 4.722 19.377 2.5 16.218 2.5Z" fill="black"/>
</svg>