<svg width="25" height="24" viewBox="0 0 25 24" fill="none" xmlns="http://www.w3.org/2000/svg">
<g opacity="0.4">
<path fill-rule="evenodd" clip-rule="evenodd" d="M11.7997 7.26514C11.9654 7.26514 12.0997 7.13082 12.0997 6.96514V2.81514C12.0997 2.64945 11.9654 2.51514 11.7997 2.51514H7.74669C6.39469 2.51514 5.19669 3.32914 4.69569 4.59014L3.84969 6.69914C3.82548 6.75932 3.80235 6.82015 3.78014 6.88147C3.71165 7.07065 3.8565 7.26514 4.0577 7.26514H11.7997Z" fill="black"/>
<path fill-rule="evenodd" clip-rule="evenodd" d="M13.5997 6.96514C13.5997 7.13082 13.734 7.26514 13.8997 7.26514H21.6525C21.8538 7.26514 21.9984 7.07064 21.9292 6.88163C21.9056 6.81688 21.8808 6.75239 21.8547 6.68814L21.0067 4.57914C20.5057 3.32614 19.3087 2.51514 17.9577 2.51514H13.8997C13.734 2.51514 13.5997 2.64945 13.5997 2.81514V6.96514Z" fill="black"/>
<path fill-rule="evenodd" clip-rule="evenodd" d="M3.66385 8.76538C3.50651 8.76538 3.37404 8.88683 3.36641 9.04398C3.3635 9.10412 3.36164 9.16425 3.36164 9.22438L3.34964 16.9134C3.34164 19.7594 4.81664 21.4644 7.29464 21.4754L18.4256 21.4844C19.5456 21.4844 20.4556 21.1464 21.1276 20.4784C21.9146 19.6974 22.3316 18.4794 22.3356 16.9564L22.3496 9.24538C22.3496 9.17835 22.3477 9.1115 22.3447 9.04482C22.3376 8.88733 22.2053 8.76538 22.0477 8.76538H3.66385Z" fill="black"/>
</g>
<path d="M7.95264 13.2987H9.14964C9.56364 13.2987 9.89964 13.6347 9.89964 14.0487C9.89964 14.4627 9.56364 14.7987 9.14964 14.7987H7.95264C7.53864 14.7987 7.20264 14.4627 7.20264 14.0487C7.20264 13.6347 7.53864 13.2987 7.95264 13.2987Z" fill="black"/>
<path d="M10.9486 17.6388H7.95264C7.53864 17.6388 7.20264 17.3027 7.20264 16.8888C7.20264 16.4748 7.53864 16.1388 7.95264 16.1388H10.9486C11.3626 16.1388 11.6986 16.4748 11.6986 16.8888C11.6986 17.3027 11.3626 17.6388 10.9486 17.6388Z" fill="black"/>
<path fill-rule="evenodd" clip-rule="evenodd" d="M19.2716 14.5787C19.2716 15.4327 18.5766 16.1287 17.7226 16.1287H15.6606C14.8066 16.1287 14.1126 15.4327 14.1126 14.5787V12.5188C14.1126 11.6638 14.8066 10.9688 15.6606 10.9688H17.7226C18.5766 10.9688 19.2716 11.6638 19.2716 12.5188V14.5787ZM15.6604 14.6288L15.6124 14.5788L15.6604 12.4688L17.7714 12.5188L17.7224 14.6288H15.6604Z" fill="black"/>
</svg>