<svg width="25" height="24" viewBox="0 0 25 24" fill="none" xmlns="http://www.w3.org/2000/svg">
<path d="M15.7945 13.2602L19.3313 13.2515C20.568 13.2486 21.3386 14.1194 21.3416 15.3541L21.3493 18.3987C21.3523 19.6334 20.5855 20.5081 19.3488 20.5111L15.812 20.5198C14.5763 20.5227 13.8047 19.6519 13.8017 18.4162L13.794 15.3726C13.791 14.1369 14.5617 13.2631 15.7945 13.2602Z" stroke="black" stroke-width="1.5" stroke-linecap="round" stroke-linejoin="round"/>
<path opacity="0.4" d="M16.7695 16.0278H18.374" stroke="black" stroke-width="1.5" stroke-linecap="round" stroke-linejoin="round"/>
<path d="M15.7954 3.48923L19.3323 3.48048C20.569 3.47756 21.3396 4.3484 21.3425 5.58314L21.3503 8.37275C21.3532 9.60749 20.5865 10.4822 19.3498 10.4851L15.8129 10.4929C14.5772 10.4958 13.8056 9.625 13.8027 8.39026L13.7949 5.60163C13.792 4.36591 14.5626 3.49118 15.7954 3.48923Z" stroke="black" stroke-width="1.5" stroke-linecap="round" stroke-linejoin="round"/>
<path opacity="0.4" d="M16.7695 6.25684H18.374" stroke="black" stroke-width="1.5" stroke-linecap="round" stroke-linejoin="round"/>
<path d="M5.35012 6.46433L8.88699 6.45557C10.1237 6.45265 10.8943 7.32349 10.8972 8.55824L10.905 18.1637C10.9079 19.3985 10.1412 20.2732 8.9045 20.2761L5.36763 20.2839C4.13191 20.2868 3.36032 19.416 3.3574 18.1813L3.34962 8.57672C3.3467 7.34101 4.11732 6.46725 5.35012 6.46433Z" stroke="black" stroke-width="1.5" stroke-linecap="round" stroke-linejoin="round"/>
<path opacity="0.4" d="M6.32422 9.54834H7.9287" stroke="black" stroke-width="1.5" stroke-linecap="round" stroke-linejoin="round"/>
</svg>