<svg width="25" height="24" viewBox="0 0 25 24" fill="none" xmlns="http://www.w3.org/2000/svg">
<path fill-rule="evenodd" clip-rule="evenodd" d="M11.574 8.56865C11.724 8.51865 11.887 8.51765 12.041 8.56765L13.889 9.16865L13.8766 2.36675C13.8763 2.20102 13.7417 2.06694 13.5759 2.0673L10.0017 2.075C9.83615 2.07536 9.70218 2.20978 9.70236 2.37534L9.71003 9.18365L11.574 8.56865Z" fill="black"/>
<path fill-rule="evenodd" clip-rule="evenodd" d="M13.7749 15.2925C13.7549 14.0425 13.7449 13.5225 14.4149 12.8425C15.1249 12.1525 18.5949 11.0125 19.4049 11.0125C19.6568 11.0125 20.2258 11.1394 20.893 11.3339C21.0877 11.3907 21.2844 11.2458 21.2839 11.043L21.2749 7.5725C21.2749 5.9325 20.7249 4.4825 19.7249 3.4925C18.7849 2.5525 17.5049 2.0625 16.0149 2.0625H15.6757C15.5097 2.0625 15.3753 2.19726 15.3757 2.36324L15.3949 10.2025C15.3949 10.4425 15.2749 10.6625 15.0849 10.8125C14.8849 10.9525 14.6349 10.9925 14.4049 10.9125L11.8149 10.0725L9.19492 10.9325C9.11492 10.9625 9.04492 10.9725 8.96492 10.9725C8.80492 10.9725 8.65492 10.9225 8.52492 10.8325C8.32492 10.6925 8.21492 10.4625 8.21492 10.2225L8.20529 2.38213C8.20509 2.21659 8.07083 2.0825 7.90529 2.0825H7.56492C5.98492 2.0925 4.66492 2.6425 3.74492 3.6125C2.82492 4.5825 2.29492 5.9625 2.29492 7.6125L2.31492 15.5525C2.32492 17.1425 2.81492 18.5125 3.74492 19.5025C4.69492 20.5225 6.02492 21.0625 7.58492 21.0625H7.60492L14.4085 21.0442C14.6605 21.0435 14.804 20.7474 14.6671 20.5359C14.1444 19.7284 13.7949 18.7412 13.7949 17.5525C13.7949 16.5025 13.7849 15.7925 13.7749 15.2925Z" fill="black"/>
<path fill-rule="evenodd" clip-rule="evenodd" d="M21.8981 15.7133C21.8901 16.1093 21.8791 16.6793 21.8791 17.5173C21.8791 19.2513 20.0481 20.1323 19.4051 20.3893C18.7611 20.1323 16.9311 19.2513 16.9311 17.5173C16.9311 16.6743 16.9191 16.1013 16.9111 15.7033C16.9071 15.4893 16.9031 15.2963 16.9041 15.1683C17.4281 14.9093 19.0671 14.3413 19.3801 14.3063C19.7521 14.3423 21.4631 14.9333 21.9041 15.1573C21.9061 15.2853 21.9021 15.4893 21.8981 15.7133ZM23.0181 14.1173C22.5751 13.6733 19.9491 12.8073 19.4051 12.8073C18.8721 12.8073 16.2571 13.6673 15.7901 14.1183C15.3881 14.5233 15.3931 14.7793 15.4121 15.7333C15.4191 16.1243 15.4311 16.6883 15.4311 17.5173C15.4311 20.7263 19.0331 21.8583 19.1871 21.9043C19.2581 21.9263 19.3311 21.9373 19.4051 21.9373C19.4791 21.9373 19.5521 21.9263 19.6231 21.9043C19.7761 21.8583 23.3791 20.7263 23.3791 17.5173C23.3791 16.6933 23.3901 16.1323 23.3981 15.7423C23.4161 14.7943 23.4211 14.5393 23.0181 14.1173Z" fill="black"/>
</svg>