<svg width="25" height="24" viewBox="0 0 25 24" fill="none" xmlns="http://www.w3.org/2000/svg">
<path opacity="0.4" d="M8.11524 3.02045L16.5412 3.00002C19.4864 2.99321 21.3233 5.06758 21.3301 8.00985L21.3486 15.9473C21.3564 18.8906 19.5292 20.9727 16.583 20.9796L8.15806 21C5.21287 21.0068 3.3759 18.9324 3.36909 15.9902L3.3506 8.05168C3.34379 5.10942 5.17979 3.02726 8.11524 3.02045Z" stroke="black" stroke-width="1.5" stroke-linecap="round" stroke-linejoin="round"/>
<path d="M16.7798 10.1907V13.8014C16.7798 14.2674 16.5307 14.6984 16.1269 14.932L13.0008 16.7368C12.597 16.9703 12.0988 16.9703 11.695 16.7368L8.56888 14.932C8.1651 14.6984 7.91602 14.2674 7.91602 13.8014V10.1907C7.91602 9.72461 8.1651 9.29359 8.56888 9.06105L11.695 7.25521C12.0988 7.0217 12.597 7.0217 13.0008 7.25521L16.1269 9.06105C16.5307 9.29359 16.7798 9.72461 16.7798 10.1907Z" stroke="black" stroke-width="1.5" stroke-linecap="round" stroke-linejoin="round"/>
<path d="M8.09961 9.52393L12.3457 11.9807L16.5917 9.52393" stroke="black" stroke-width="1.5" stroke-linecap="round" stroke-linejoin="round"/>
<path d="M12.3477 16.9188V11.9771" stroke="black" stroke-width="1.5" stroke-linecap="round" stroke-linejoin="round"/>
</svg>