<svg width="25" height="24" viewBox="0 0 25 24" fill="none" xmlns="http://www.w3.org/2000/svg">
<path d="M3.86719 15.7402C3.87362 18.5198 5.60912 20.4793 8.39235 20.4729L12.1352 20.4546" stroke="black" stroke-width="1.5" stroke-linecap="round" stroke-linejoin="round"/>
<path d="M20.8548 10.4134L20.8373 8.1995C20.8309 5.41994 19.0945 3.46038 16.3122 3.46681L8.35183 3.48518C5.57778 3.49161 3.8432 5.45943 3.84963 8.2399L3.85835 11.9901" stroke="black" stroke-width="1.5" stroke-linecap="round" stroke-linejoin="round"/>
<path d="M15.0239 6.46782L15.0395 9.76889L12.3637 8.89655L9.67233 9.7845L9.66406 3.4917" stroke="black" stroke-width="1.5" stroke-linecap="round" stroke-linejoin="round"/>
<path d="M18.1602 20.5334C20.1979 20.5334 21.8498 18.8815 21.8498 16.8438C21.8498 14.8062 20.1979 13.1543 18.1602 13.1543C16.1226 13.1543 14.4707 14.8062 14.4707 16.8438C14.4707 18.8815 16.1226 20.5334 18.1602 20.5334Z" stroke="black" stroke-width="1.5" stroke-linecap="round" stroke-linejoin="round"/>
<path d="M19.3068 17.8034L18.1406 17.1064V15.6069" stroke="black" stroke-width="1.5" stroke-linecap="round" stroke-linejoin="round"/>
</svg>