<svg width="24" height="24" viewBox="0 0 24 24" fill="none" xmlns="http://www.w3.org/2000/svg">
<path d="M21 10.3526L20.9815 8.0093C20.9747 5.0673 19.1368 2.99225 16.1919 3.00002L7.76632 3.01946C4.83015 3.02626 2.99419 5.10909 3.001 8.05206L3.01946 15.9907C3.02627 18.9327 4.86319 21.0068 7.80908 21L11.7706 20.9805" stroke="black" stroke-width="1.5" stroke-linecap="round" stroke-linejoin="round"/>
<path d="M18.0048 14.248H18.9767C20.0507 14.248 20.9206 15.1179 20.9206 16.1919C20.9206 17.2649 20.0507 18.1357 18.9767 18.1357H14.1074" stroke="black" stroke-width="1.5" stroke-linecap="round" stroke-linejoin="round"/>
<path d="M16.0532 16.1646L14.1094 18.1084L16.0532 20.0522" stroke="black" stroke-width="1.5" stroke-linecap="round" stroke-linejoin="round"/>
<path d="M14.8274 3L14.8439 9.66932L12.0117 8.74696L9.16304 9.68584L9.1543 3.02527" stroke="black" stroke-width="1.5" stroke-linecap="round" stroke-linejoin="round"/>
</svg>