<svg width="25" height="24" viewBox="0 0 25 24" fill="none" xmlns="http://www.w3.org/2000/svg">
<path d="M6.74857 15.8804C6.87455 15.7856 7.03178 15.73 7.2017 15.73H10.1978C10.6119 15.73 10.9478 16.0596 10.9478 16.48C10.9478 16.7217 10.8306 16.9395 10.6495 17.0771C10.524 17.1729 10.3672 17.23 10.1978 17.23H7.2017C6.78764 17.23 6.4517 16.8896 6.4517 16.48C6.4517 16.2324 6.5684 16.0161 6.74857 15.8804Z" fill="black"/>
<path d="M6.4517 13.6396C6.4517 13.2295 6.78764 12.8896 7.2017 12.8896H8.39848C8.81254 12.8896 9.14848 13.2295 9.14848 13.6396C9.14848 14.0498 8.81254 14.3896 8.39848 14.3896H7.2017C6.78764 14.3896 6.4517 14.0498 6.4517 13.6396Z" fill="black"/>
<path fill-rule="evenodd" clip-rule="evenodd" d="M18.5215 14.1694C18.5215 15.0298 17.8277 15.7197 16.9737 15.7197H14.9117C14.0557 15.7197 13.3638 15.0298 13.3638 14.1694V12.1099C13.3638 11.25 14.0567 10.5601 14.9117 10.5601H16.9737C17.8267 10.5601 18.5215 11.25 18.5215 12.1099V14.1694ZM16.9737 14.2197C17.0005 14.2197 17.0215 14.1997 17.0215 14.1694V12.1099C17.0215 12.0801 17.0005 12.0601 16.9737 12.0601H14.9117C14.898 12.0601 14.8858 12.0654 14.877 12.0742C14.8706 12.0806 14.8667 12.0889 14.8648 12.0991L14.8638 12.1045V12.1099V14.1694C14.8638 14.1997 14.8858 14.2197 14.9117 14.2197H16.9737Z" fill="black"/>
<path fill-rule="evenodd" clip-rule="evenodd" d="M2.86674 6.6001L3.71391 4.48975C4.24955 3.13965 5.5518 2.25977 6.99662 2.25977H17.2076C18.6509 2.25977 19.9497 3.13965 20.4888 4.47998L21.3365 6.58984C21.5313 7.0708 21.6714 7.57129 21.7554 8.08203C21.8184 8.46338 21.8501 8.85059 21.8496 9.23975L21.8355 16.9497C21.8326 18.2295 21.5489 19.4297 20.8477 20.3198C20.1236 21.2397 19.0337 21.7397 17.6519 21.7397L6.5435 21.7197C5.16264 21.7197 4.06889 21.2197 3.34086 20.2896C2.6348 19.3999 2.34574 18.1997 2.34965 16.9097L2.36186 9.21973C2.36283 8.31982 2.53471 7.43994 2.86674 6.6001ZM3.88139 8.75977C3.86869 8.91211 3.86186 9.06543 3.86186 9.21973L3.84965 16.9097V16.9194C3.84672 17.9995 4.09379 18.8301 4.51859 19.3599C4.92191 19.8799 5.55375 20.2197 6.54691 20.2197L17.6558 20.2397C18.3345 20.2397 18.8409 20.0806 19.2198 19.8203C19.3946 19.7002 19.5425 19.5581 19.6675 19.3999C20.0874 18.8599 20.3326 18.0396 20.3355 16.9497L20.3496 9.23975C20.3496 9.0791 20.3428 8.91895 20.3291 8.75977H3.88139ZM12.8496 7.25977H19.9888C19.9746 7.22314 19.9605 7.18652 19.9458 7.1499L19.0967 5.03955C18.7867 4.27002 18.0386 3.75977 17.2076 3.75977H12.8496V7.25977ZM11.3496 3.75977H6.99662C6.16361 3.75977 5.41459 4.27002 5.10648 5.03955V5.0498L4.2598 7.15967C4.24662 7.19287 4.23393 7.22656 4.22123 7.25977H11.3496V3.75977Z" fill="black"/>
</svg>