<svg width="24" height="24" viewBox="0 0 24 24" fill="none" xmlns="http://www.w3.org/2000/svg">
<path fill-rule="evenodd" clip-rule="evenodd" d="M11.6277 9.0081C11.7777 8.9581 11.9407 8.9571 12.0947 9.0071L13.9427 9.6081L13.9303 2.8062C13.93 2.64048 13.7954 2.50639 13.6296 2.50675L10.0554 2.51446C9.88986 2.51481 9.75589 2.64923 9.75607 2.81479L9.76374 9.6231L11.6277 9.0081Z" fill="black"/>
<path fill-rule="evenodd" clip-rule="evenodd" d="M12.315 20.35C12.2 20.235 12.101 20.113 12.014 19.985C11.93 19.856 11.844 19.727 11.785 19.58C11.785 19.56 11.775 19.54 11.765 19.52C11.735 19.45 11.705 19.37 11.685 19.29C11.645 19.14 11.615 18.98 11.595 18.82C11.575 18.59 11.585 18.34 11.635 18.11L11.695 17.87C11.805 17.48 12.015 17.12 12.315 16.82L14.255 14.87C14.5657 14.5593 14.9435 14.3379 15.3433 14.2253C15.4585 14.1929 15.5503 14.1039 15.5855 13.9896C15.9007 12.9661 16.8534 12.22 17.975 12.22H18.955C19.6377 12.22 20.2843 12.3765 20.8621 12.6568C21.0767 12.7609 21.3443 12.6134 21.3439 12.3748L21.335 8.01C21.325 6.37 20.775 4.92 19.785 3.93C18.845 3 17.555 2.5 16.065 2.5H15.7257C15.5597 2.5 15.4253 2.63476 15.4257 2.80074L15.445 10.64C15.445 10.88 15.335 11.11 15.135 11.25C14.945 11.39 14.695 11.43 14.465 11.35L11.865 10.51L9.24498 11.37C9.17498 11.4 9.09498 11.41 9.01498 11.41C8.85498 11.41 8.70498 11.36 8.57498 11.27C8.38498 11.13 8.26498 10.9 8.26498 10.66L8.25535 2.81963C8.25515 2.65409 8.12089 2.52 7.95535 2.52H7.61498C4.46498 2.53 2.35498 4.74 2.35498 8.03V8.05L2.37498 15.99C2.37498 17.58 2.86498 18.95 3.79498 19.94C4.75498 20.96 6.07498 21.5 7.63498 21.5H7.66498L12.7325 21.4912C12.9995 21.4908 13.1329 21.1679 12.9441 20.9791L12.315 20.35Z" fill="black"/>
<path fill-rule="evenodd" clip-rule="evenodd" d="M18.9514 13.9745H17.9794C17.5654 13.9745 17.2294 14.3105 17.2294 14.7245C17.2294 15.1385 17.5654 15.4745 17.9794 15.4745H18.9514C19.6094 15.4745 20.1454 16.0085 20.1454 16.6635C20.1454 17.3255 19.6094 17.8645 18.9514 17.8645H15.8604L16.5584 17.1635C16.8504 16.8705 16.8504 16.3955 16.5564 16.1025C16.2634 15.8095 15.7884 15.8115 15.4964 16.1045L13.5534 18.0555C13.4044 18.2045 13.3334 18.4005 13.3364 18.5955C13.3354 18.6015 13.3324 18.6075 13.3324 18.6145C13.3324 18.8625 13.4614 19.0725 13.6484 19.2095L15.4974 21.0555C15.6434 21.2015 15.8364 21.2745 16.0274 21.2745C16.2204 21.2745 16.4124 21.2015 16.5584 21.0545C16.8504 20.7615 16.8504 20.2865 16.5574 19.9935L15.9274 19.3645H18.9514C20.4364 19.3645 21.6454 18.1525 21.6454 16.6635C21.6454 15.1815 20.4364 13.9745 18.9514 13.9745Z" fill="black"/>
</svg>