<svg width="25" height="24" viewBox="0 0 25 24" fill="none" xmlns="http://www.w3.org/2000/svg">
<path d="M3.86816 15.9438C3.87497 18.853 5.69152 20.9021 8.60267 20.8953L11.7892 20.8759" stroke="black" stroke-width="1.5" stroke-linecap="round" stroke-linejoin="round"/>
<path d="M21.6405 10.3717L21.622 8.05599C21.6152 5.14776 19.7996 3.09673 16.8885 3.10451L8.5598 3.12397C5.65839 3.13078 3.84282 5.1896 3.84963 8.09783L3.85887 12.0209" stroke="black" stroke-width="1.5" stroke-linecap="round" stroke-linejoin="round"/>
<path fill-rule="evenodd" clip-rule="evenodd" d="M18.3717 13.7433L19.2882 15.5871C19.334 15.6805 19.4235 15.7447 19.5256 15.7603L21.5777 16.057C21.6604 16.0677 21.7363 16.1115 21.7868 16.1777C21.8822 16.3022 21.8676 16.4793 21.7528 16.5863L20.2661 18.0244C20.1902 18.0954 20.1571 18.1995 20.1766 18.3017L20.5327 20.3313C20.558 20.4996 20.4422 20.6563 20.2748 20.6845C20.2048 20.6952 20.1338 20.6835 20.0705 20.6524L18.2423 19.695C18.1508 19.6444 18.0409 19.6444 17.9494 19.695L16.1076 20.6582C15.9539 20.7361 15.7651 20.6786 15.6814 20.5269C15.6493 20.4665 15.6386 20.3975 15.6493 20.3294L16.0054 18.2997C16.0239 18.1985 15.9899 18.0944 15.9159 18.0224L14.4214 16.5853C14.2998 16.4637 14.2998 16.2662 14.4204 16.1456L14.4214 16.1446C14.471 16.0989 14.5333 16.0687 14.5995 16.057L16.6525 15.7593C16.7546 15.7427 16.8432 15.6785 16.8899 15.5861L17.8054 13.7433C17.8424 13.6684 17.9076 13.611 17.9874 13.5847C18.0662 13.5584 18.1538 13.5652 18.2287 13.6022C18.29 13.6333 18.3396 13.682 18.3717 13.7433Z" stroke="black" stroke-width="1.5" stroke-linecap="round" stroke-linejoin="round"/>
<path d="M15.5409 6.10458L15.5574 9.69649L12.7581 8.78482L9.94235 9.71303L9.93359 3.12891" stroke="black" stroke-width="1.5" stroke-linecap="round" stroke-linejoin="round"/>
</svg>