<svg width="25" height="24" viewBox="0 0 25 24" fill="none" xmlns="http://www.w3.org/2000/svg">
<path fill-rule="evenodd" clip-rule="evenodd" d="M9.33271 9.10067L11.1967 8.48567C11.3467 8.43567 11.5097 8.43467 11.6637 8.48467L13.5117 9.08467L13.4983 2.28279C13.498 2.11706 13.3633 1.98299 13.1976 1.98339L9.62432 1.99195C9.45879 1.99234 9.32486 2.12675 9.32504 2.29228L9.33271 9.10067Z" fill="black"/>
<path fill-rule="evenodd" clip-rule="evenodd" d="M20.9046 11.8271C20.9051 12.0666 20.6357 12.214 20.4219 12.1061C19.7469 11.7655 18.958 11.5671 18.0858 11.5671C15.7758 11.5671 14.0958 12.9671 13.3458 14.6871C11.7258 15.4371 10.6558 17.0571 10.6558 19.0171C10.6558 19.5408 10.7448 20.0527 10.909 20.539C10.9783 20.7442 10.8328 20.9677 10.6162 20.9682L7.22578 20.9771H7.20578C5.64578 20.9771 4.31578 20.4371 3.36578 19.4171C2.43578 18.4271 1.94578 17.0571 1.93578 15.4671L1.92578 7.52705V7.50705C1.92578 4.21705 4.03578 2.00705 7.18578 1.99705H7.52615C7.69169 1.99705 7.82595 2.13114 7.82615 2.29668L7.83578 10.1371C7.83578 10.3771 7.94578 10.6071 8.14578 10.7471C8.27578 10.8371 8.42578 10.8871 8.58578 10.8871C8.66578 10.8871 8.74578 10.8771 8.81578 10.8471L11.4358 9.98705L14.0358 10.8271C14.2658 10.9071 14.5058 10.8671 14.7058 10.7271C14.8958 10.5871 15.0158 10.3571 15.0158 10.1171L14.9965 2.27779C14.9961 2.11181 15.1305 1.97705 15.2965 1.97705H15.6358C17.1258 1.97705 18.4058 2.47705 19.3558 3.40705C20.3458 4.39705 20.8958 5.84705 20.8958 7.48705L20.9046 11.8271Z" fill="black"/>
<path fill-rule="evenodd" clip-rule="evenodd" d="M18.0879 14.813C16.4969 14.813 16.1519 16.36 16.1519 16.743C16.1519 17.155 15.8199 17.49 15.4079 17.493C14.7129 17.498 13.9019 17.9 13.9019 19.013C13.9019 19.614 14.2509 20.158 14.7919 20.397C15.0589 20.51 15.3059 20.523 15.3999 20.523H20.7719C20.8659 20.523 21.1169 20.51 21.4199 20.393C21.9229 20.162 22.2739 19.613 22.2739 19.013C22.2739 17.9 21.4629 17.498 20.7679 17.493C20.3559 17.49 20.0239 17.155 20.0239 16.743C20.0239 16.36 19.6789 14.813 18.0879 14.813ZM20.7719 22.023H15.3999C15.0039 22.023 14.5759 21.934 14.1949 21.774C13.1009 21.288 12.4019 20.206 12.4019 19.013C12.4019 17.508 13.3489 16.353 14.7309 16.063C15.0199 14.775 16.1069 13.313 18.0879 13.313C20.0689 13.313 21.1559 14.775 21.4449 16.063C22.8269 16.353 23.7739 17.508 23.7739 19.013C23.7739 20.199 23.0789 21.283 22.0019 21.775C21.5759 21.941 21.1539 22.023 20.7719 22.023Z" fill="black"/>
</svg>