<svg width="25" height="24" viewBox="0 0 25 24" fill="none" xmlns="http://www.w3.org/2000/svg">
<path d="M10.5977 5.25C10.1836 5.25 9.84767 5.58984 9.84767 6C9.84767 6.41992 10.1836 6.75 10.5977 6.75H12.5957C13.0098 6.75 13.3457 6.41992 13.3457 6C13.3457 5.58984 13.0098 5.25 12.5957 5.25H10.5977Z" fill="black"/>
<path d="M6.60353 14.25C6.18849 14.25 5.85353 14.5801 5.85353 15C5.85353 15.4102 6.18849 15.75 6.60353 15.75H8.60157C9.01564 15.75 9.35157 15.4102 9.35157 15C9.35157 14.5801 9.01564 14.25 8.60157 14.25H6.60353Z" fill="black"/>
<path d="M15.1084 14.4287C14.9483 14.5654 14.8467 14.769 14.8467 15C14.8467 15.4102 15.1826 15.75 15.5967 15.75H17.5957C18.0098 15.75 18.3457 15.4102 18.3457 15C18.3457 14.5801 18.0098 14.25 17.5957 14.25H15.5967C15.4102 14.25 15.2398 14.3169 15.1084 14.4287Z" fill="black"/>
<path fill-rule="evenodd" clip-rule="evenodd" d="M6.34571 9.47998C6.34425 10.1226 6.48927 10.729 6.78175 11.2461L5.50685 11.2397C4.58448 11.2397 3.7798 11.5698 3.20753 12.1802C2.64161 12.79 2.36085 13.6099 2.35841 14.5L2.34962 18.4702C2.34864 18.9189 2.41896 19.3506 2.56153 19.7461C2.65089 19.9941 2.76856 20.228 2.91456 20.4434C2.99708 20.5649 3.08888 20.6807 3.18946 20.79C3.7588 21.4102 4.56153 21.7397 5.48146 21.7397L9.69679 21.75C10.6187 21.75 11.4238 21.4199 11.9956 20.8101C12.0317 20.772 12.0664 20.7334 12.1001 20.6934C12.1279 20.7261 12.1563 20.7583 12.1856 20.79C12.7544 21.4102 13.5576 21.7397 14.4775 21.7397L18.6924 21.75C19.6138 21.75 20.4194 21.4199 20.9907 20.8101C21.5567 20.21 21.8374 19.3901 21.8408 18.5L21.8496 14.52C21.8516 13.6299 21.5747 12.8101 21.0108 12.1997C20.4424 11.5898 19.6387 11.2603 18.7168 11.2603L16.4072 11.249C16.6953 10.7358 16.8389 10.1357 16.8408 9.5L16.8496 5.52979C16.8516 4.64014 16.5747 3.81982 16.0117 3.20996C15.4424 2.58984 14.6397 2.26025 13.7168 2.26025L9.50245 2.25C8.58058 2.25 7.7754 2.58008 7.20362 3.18994C6.63771 3.79004 6.35646 4.60986 6.35548 5.5L6.34571 9.47998ZM13.6968 11.2603L9.48146 11.25C8.93263 11.2402 8.54249 11.0498 8.28565 10.7798C8.02247 10.4902 7.84474 10.0601 7.84571 9.47998L7.85548 5.51025C7.85646 4.93018 8.03663 4.48975 8.29981 4.20996C8.34376 4.16406 8.39112 4.12012 8.44239 4.07959C8.49513 4.03809 8.55177 3.99951 8.6128 3.96436C8.84376 3.83154 9.13673 3.75 9.49855 3.75L13.7134 3.76025C14.2647 3.76025 14.6558 3.9502 14.9116 4.22998C15.1724 4.50977 15.3516 4.93994 15.3496 5.52979L15.3408 9.5C15.3399 10.0801 15.1587 10.5103 14.8955 10.79C14.6387 11.0698 14.2476 11.2603 13.6968 11.2603ZM10.8994 19.79C11.1626 19.5103 11.3438 19.0698 11.3447 18.4897V18.4702L11.3535 14.52C11.3545 13.9399 11.1768 13.5 10.9155 13.2202C10.6597 12.9502 10.2695 12.7603 9.71681 12.7603L5.50245 12.7397C4.95167 12.7397 4.56056 12.9302 4.30274 13.21C4.20509 13.3145 4.11866 13.4399 4.04835 13.5859C4.01417 13.6577 3.9839 13.7344 3.95802 13.8159C3.89503 14.0142 3.8589 14.2422 3.85841 14.5L3.84962 18.4702C3.84767 19.0498 4.02687 19.4902 4.28956 19.77C4.5464 20.0498 4.93653 20.2397 5.48585 20.2397L9.70069 20.25C10.2515 20.25 10.6426 20.0601 10.8994 19.79ZM18.6968 20.25L14.4815 20.2397C13.9326 20.2397 13.5415 20.0498 13.2847 19.77C13.0254 19.4932 12.8472 19.0586 12.8447 18.4878V18.4702L12.8535 14.52L12.8545 14.5C12.8555 13.9199 13.0357 13.4897 13.2988 13.21C13.5557 12.9302 13.9468 12.7397 14.4985 12.7397L18.7124 12.7603C19.2647 12.7603 19.6558 12.9502 19.9107 13.2202C20.1729 13.5 20.3506 13.9399 20.3496 14.52L20.3408 18.4897C20.3384 19.0698 20.1587 19.5103 19.8955 19.79C19.6387 20.0601 19.2476 20.25 18.6968 20.25Z" fill="black"/>
</svg>