<svg width="25" height="24" viewBox="0 0 25 24" fill="none" xmlns="http://www.w3.org/2000/svg">
<path d="M12.8705 20.9898L8.65806 21C5.71287 21.0068 3.8759 18.9324 3.86909 15.9902L3.8506 8.05168C3.84379 5.10942 5.67979 3.02726 8.61524 3.02045L17.0412 3.00002C19.9864 2.99321 21.8233 5.06758 21.8301 8.00985L21.8486 15.9473C21.8564 18.8906 20.0292 20.9727 17.083 20.9796H16.6041" stroke="black" stroke-width="1.5" stroke-linecap="round" stroke-linejoin="round"/>
<path d="M17.2798 13.8014C17.2798 14.2674 17.0307 14.6984 16.6269 14.932L13.5008 16.7368C13.097 16.9703 12.5988 16.9703 12.195 16.7368L9.06888 14.932C8.6651 14.6984 8.41602 14.2674 8.41602 13.8014V10.1907C8.41602 9.72461 8.6651 9.29359 9.06888 9.06105L12.195 7.25521C12.5988 7.0217 13.097 7.0217 13.5008 7.25521L16.6269 9.06105C17.0307 9.29359 17.2798 9.72461 17.2798 10.1907V11.2419" stroke="black" stroke-width="1.5" stroke-linecap="round" stroke-linejoin="round"/>
<path d="M8.59961 9.52393L12.8457 11.9807L17.0917 9.52393" stroke="black" stroke-width="1.5" stroke-linecap="round" stroke-linejoin="round"/>
<path d="M12.8477 14.4479V11.9771" stroke="black" stroke-width="1.5" stroke-linecap="round" stroke-linejoin="round"/>
</svg>