<svg width="25" height="24" viewBox="0 0 25 24" fill="none" xmlns="http://www.w3.org/2000/svg">
<path d="M21.7262 10.3637L21.7077 8.03715C21.7009 5.11416 19.8765 3.05424 16.9506 3.06105L8.58247 3.08051C5.66629 3.08732 3.84282 5.156 3.84963 8.07899L3.85887 12.0212" stroke="black" stroke-width="1.5" stroke-linecap="round" stroke-linejoin="round"/>
<path d="M3.86816 15.9634C3.87498 18.8854 5.69942 20.9453 8.62533 20.9385L12.5593 20.919" stroke="black" stroke-width="1.5" stroke-linecap="round" stroke-linejoin="round"/>
<path d="M15.6133 5.80894V9.68555L12.8003 8.76797L9.97067 9.70209L9.96289 3.08545" stroke="black" stroke-width="1.5" stroke-linecap="round" stroke-linejoin="round"/>
<path d="M20.8948 19.379C19.9425 20.3906 18.6 20.7971 18.6 20.7971C18.6 20.7971 15.3763 19.8211 15.3763 17.1297C15.3763 14.4383 15.2586 14.5229 15.5174 14.2641C15.7762 14.0053 18.1777 13.1675 18.6 13.1675C19.0223 13.1675 21.4228 14.0033 21.6816 14.2641C21.9218 14.5061 21.8385 15.1562 21.8253 16.5625" stroke="black" stroke-width="1.5" stroke-linecap="round" stroke-linejoin="round"/>
</svg>