<svg width="25" height="24" viewBox="0 0 25 24" fill="none" xmlns="http://www.w3.org/2000/svg">
<path opacity="0.4" fill-rule="evenodd" clip-rule="evenodd" d="M22.0413 12.1435C22.0418 12.3542 21.8303 12.5002 21.6289 12.4383C21.017 12.2503 20.3679 12.1509 19.6922 12.1509C15.9922 12.1509 12.9822 15.1609 12.9822 18.8609C12.9822 19.6025 13.1045 20.3101 13.3265 20.9726C13.3942 21.1747 13.249 21.3913 13.0358 21.3918L8.36225 21.4009H8.33225C6.77225 21.4009 5.45225 20.8609 4.49225 19.8409C3.56225 18.8409 3.07225 17.4809 3.07225 15.8909L3.05225 7.95088V7.93088C3.05225 4.64088 5.16225 2.43088 8.31225 2.42088L8.64793 2.41563C8.81529 2.41302 8.95241 2.54785 8.95262 2.71523L8.96225 10.5609C8.96225 10.8009 9.08225 11.0209 9.27225 11.1609C9.40225 11.2609 9.55225 11.3109 9.71225 11.3109C9.79225 11.3109 9.87225 11.2909 9.94225 11.2709L12.5622 10.4009L15.1622 11.2509C15.3922 11.3209 15.6422 11.2809 15.8322 11.1409C16.0222 11.0009 16.1422 10.7709 16.1422 10.5309L16.123 2.70162C16.1226 2.53564 16.257 2.40088 16.423 2.40088H16.7622C18.2522 2.40088 19.5322 2.89088 20.4822 3.83088C21.4722 4.82088 22.0222 6.26088 22.0322 7.90088L22.0413 12.1435Z" fill="black"/>
<path fill-rule="evenodd" clip-rule="evenodd" d="M10.4608 9.51767L12.3248 8.90267C12.4748 8.85267 12.6378 8.85167 12.7918 8.90167L14.6398 9.50167L14.6264 2.6998C14.6261 2.53406 14.4914 2.39999 14.3257 2.40039L10.7524 2.40895C10.5869 2.40935 10.4529 2.54375 10.4531 2.70929L10.4608 9.51767Z" fill="black"/>
<path fill-rule="evenodd" clip-rule="evenodd" d="M19.2384 21.598C18.8244 21.598 18.4884 21.262 18.4884 20.848V18.938H16.5784C16.1644 18.938 15.8284 18.602 15.8284 18.188C15.8284 17.774 16.1644 17.438 16.5784 17.438H18.4884V15.528C18.4884 15.114 18.8244 14.778 19.2384 14.778C19.6524 14.778 19.9884 15.114 19.9884 15.528V17.438H21.8974C22.3114 17.438 22.6474 17.774 22.6474 18.188C22.6474 18.602 22.3114 18.938 21.8974 18.938H19.9884V20.848C19.9884 21.262 19.6524 21.598 19.2384 21.598Z" fill="black"/>
</svg>