<svg width="25" height="24" viewBox="0 0 25 24" fill="none" xmlns="http://www.w3.org/2000/svg">
<g opacity="0.4">
<path fill-rule="evenodd" clip-rule="evenodd" d="M7.17926 15.0226C6.93826 14.8926 6.64226 14.9066 6.41126 15.0586L5.66526 15.5536C4.13126 12.5526 4.62626 8.83064 7.13726 6.29264C8.99126 4.42464 11.6503 3.58864 14.2423 4.05164C14.6433 4.12564 15.0393 3.85364 15.1133 3.44564C15.1863 3.03864 14.9143 2.64864 14.5063 2.57564C11.4283 2.02564 8.27526 3.01864 6.07226 5.23664C3.04726 8.29364 2.49326 12.7946 4.41226 16.3836L3.44226 17.0276C3.20926 17.1816 3.08126 17.4506 3.11026 17.7276C3.13726 18.0036 3.31626 18.2426 3.57426 18.3476L6.55226 19.5576C6.64326 19.5946 6.73926 19.6126 6.83426 19.6126C6.98226 19.6126 7.12826 19.5686 7.25426 19.4836C7.46126 19.3446 7.58526 19.1106 7.58426 18.8606L7.57526 15.6816C7.57526 15.4056 7.42226 15.1526 7.17926 15.0226Z" fill="black"/>
<path fill-rule="evenodd" clip-rule="evenodd" d="M22.5893 6.27216C22.5623 5.99516 22.3833 5.75616 22.1253 5.65216L19.1473 4.44216C18.9163 4.34716 18.6523 4.37516 18.4443 4.51516C18.2373 4.65516 18.1133 4.88916 18.1143 5.13916L18.1233 8.31816C18.1243 8.59416 18.2773 8.84716 18.5203 8.97716C18.6303 9.03716 18.7523 9.06616 18.8733 9.06616C19.0183 9.06616 19.1623 9.02416 19.2873 8.94116L20.0343 8.44616C21.5683 11.4472 21.0733 15.1702 18.5623 17.7072C16.7083 19.5742 14.0553 20.4142 11.4563 19.9482C11.0483 19.8792 10.6583 20.1472 10.5863 20.5542C10.5133 20.9622 10.7843 21.3522 11.1933 21.4242C11.7523 21.5242 12.3143 21.5732 12.8713 21.5732C15.3853 21.5732 17.8243 20.5782 19.6273 18.7632C22.6523 15.7072 23.2073 11.2052 21.2863 7.61516L22.2573 6.97216C22.4893 6.81816 22.6173 6.54916 22.5893 6.27216Z" fill="black"/>
</g>
<path fill-rule="evenodd" clip-rule="evenodd" d="M8.80615 10.6976C8.80615 10.5434 8.97323 10.4472 9.10657 10.5246L11.9468 12.1735C12.0392 12.2272 12.0962 12.326 12.0962 12.4329V15.6456C12.0962 15.7992 11.9308 15.8958 11.7975 15.8196C11.2288 15.4947 10.0084 14.7975 9.57615 14.5502C9.09615 14.2602 8.80615 13.7602 8.80615 13.2002V10.6976Z" fill="black"/>
<path fill-rule="evenodd" clip-rule="evenodd" d="M15.8573 8.84955C15.9975 8.92468 16.0034 9.12628 15.8658 9.20619L12.9971 10.8724C12.9039 10.9266 12.7887 10.9265 12.6954 10.8722L9.83592 9.20632C9.69855 9.12629 9.70455 8.92489 9.84469 8.84982C10.6017 8.44436 11.3348 7.96715 12.0762 7.54008C12.5462 7.26008 13.1462 7.26008 13.6262 7.54008C14.3675 7.96705 15.1004 8.44415 15.8573 8.84955Z" fill="black"/>
<path fill-rule="evenodd" clip-rule="evenodd" d="M16.5957 10.5251C16.7291 10.4475 16.8963 10.5437 16.8963 10.698V13.2002C16.8963 13.7602 16.6063 14.2602 16.1263 14.5502C15.6928 14.799 14.4659 15.502 13.8951 15.829C13.7618 15.9054 13.5963 15.8088 13.5963 15.6551V12.4428C13.5963 12.3359 13.6531 12.2372 13.7454 12.1835L16.5957 10.5251Z" fill="black"/>
</svg>