<svg width="25" height="24" viewBox="0 0 25 24" fill="none" xmlns="http://www.w3.org/2000/svg">
<path fill-rule="evenodd" clip-rule="evenodd" d="M9.72161 3.12934C7.77737 2.79018 6.28076 3.60244 5.49854 5.12211C5.36998 5.37188 5.11261 5.52886 4.8317 5.52886H2.25345C1.83923 5.52886 1.50345 5.19308 1.50345 4.77886C1.50345 4.36465 1.83923 4.02886 2.25345 4.02886H4.3948C5.54027 2.17866 7.57381 1.23154 9.9807 1.65188L9.98286 1.65226L16.9438 2.88889L16.9468 2.8894L18.2898 3.12251C19.9273 3.41306 21.2075 4.23869 21.9929 5.4513C22.7738 6.65704 23.0201 8.17435 22.7346 9.778L21.352 17.6163C21.3519 17.6164 21.352 17.6162 21.352 17.6163C21.0721 19.2202 20.3195 20.5621 19.1718 21.4276C18.0175 22.2979 16.5304 22.6354 14.8922 22.3448C14.8921 22.3448 14.8923 22.3448 14.8922 22.3448L6.58723 20.8749C6.5868 20.8748 6.58637 20.8747 6.58594 20.8747C4.04053 20.4314 2.41942 18.6955 2.08763 16.3852C2.02874 15.9752 2.31339 15.5951 2.72339 15.5362C3.1334 15.4773 3.51351 15.762 3.57239 16.172C3.80976 17.8248 4.92289 19.0629 6.8443 19.3971L6.84648 19.3975L15.1536 20.8678C16.4275 21.0938 17.4825 20.8227 18.2687 20.2299C19.0614 19.6322 19.6479 18.6562 19.8743 17.3585L19.8745 17.3571L21.2576 9.51627L21.2578 9.51512C21.4891 8.21601 21.2728 7.09887 20.7338 6.2667C20.1995 5.44167 19.3031 4.82604 18.0291 4.59969C18.0286 4.59961 18.0282 4.59953 18.0278 4.59945L17.8493 4.56849L16.6386 11.4134C16.5967 11.6502 16.4438 11.8526 16.2275 11.9576C16.0112 12.0625 15.7576 12.0574 15.5457 11.9438L13.1316 10.6495L10.3997 11.0381C10.1616 11.072 9.92168 10.9896 9.7546 10.8166C9.58751 10.6436 9.51354 10.401 9.55567 10.1642L10.7742 3.31633L9.72264 3.12952C9.7223 3.12946 9.72195 3.1294 9.72161 3.12934ZM12.2511 3.5787L11.2139 9.40722L13.1637 9.12986C13.3218 9.10737 13.4829 9.13594 13.6237 9.21139L15.3419 10.1326L16.3716 4.31072L12.2511 3.5787ZM3.08491 8.74175C3.08491 8.32753 3.42069 7.99175 3.83491 7.99175H7.1546C7.56882 7.99175 7.9046 8.32753 7.9046 8.74175C7.9046 9.15596 7.56882 9.49175 7.1546 9.49175H3.83491C3.42069 9.49175 3.08491 9.15596 3.08491 8.74175ZM1.34961 12.6862C1.34961 12.2719 1.6854 11.9362 2.09961 11.9362H5.6787C6.09292 11.9362 6.4287 12.2719 6.4287 12.6862C6.4287 13.1004 6.09292 13.4362 5.6787 13.4362H2.09961C1.6854 13.4362 1.34961 13.1004 1.34961 12.6862Z" fill="black"/>
</svg>