<svg width="25" height="24" viewBox="0 0 25 24" fill="none" xmlns="http://www.w3.org/2000/svg">
<path d="M11.824 12.5477L15.931 12.5577C17.367 12.5607 18.2629 11.5497 18.2659 10.1157L18.2749 6.24669C18.2779 4.81269 17.3879 3.79668 15.9519 3.79368L11.846 3.78468C10.41 3.78068 9.51494 4.79169 9.51094 6.22569L9.50197 10.0947C9.49797 11.5297 10.393 12.5447 11.824 12.5477Z" stroke="black" stroke-width="1.5" stroke-linecap="round" stroke-linejoin="round"/>
<path d="M3.85547 3.24756L5.87949 3.59753L6.81647 14.7606C6.89147 15.6716 7.65448 16.3725 8.56848 16.3695H19.1825C20.0545 16.3715 20.7955 15.7286 20.9185 14.8646L21.8425 8.48456" stroke="black" stroke-width="1.5" stroke-linecap="round" stroke-linejoin="round"/>
<path d="M8.14612 20.2455V20.3636M8.62512 20.2715C8.62512 20.5375 8.40913 20.7526 8.14313 20.7526C7.87813 20.7526 7.66211 20.5375 7.66211 20.2715C7.66211 20.0055 7.87813 19.7896 8.14313 19.7896C8.40913 19.7896 8.62512 20.0055 8.62512 20.2715Z" stroke="black" stroke-width="1.5" stroke-linecap="round" stroke-linejoin="round"/>
<path d="M19.1715 20.2455V20.3636M19.6505 20.2715C19.6505 20.5375 19.4345 20.7526 19.1685 20.7526C18.9025 20.7526 18.6875 20.5375 18.6875 20.2715C18.6875 20.0055 18.9025 19.7896 19.1685 19.7896C19.4345 19.7896 19.6505 20.0055 19.6505 20.2715Z" stroke="black" stroke-width="1.5" stroke-linecap="round" stroke-linejoin="round"/>
<path d="M13.1113 6.71045H14.6603" stroke="black" stroke-width="1.5" stroke-linecap="round" stroke-linejoin="round"/>
</svg>