<svg width="25" height="24" viewBox="0 0 25 24" fill="none" xmlns="http://www.w3.org/2000/svg">
<path opacity="0.4" fill-rule="evenodd" clip-rule="evenodd" d="M22.3296 8.01C22.3196 6.37 21.7696 4.93 20.7796 3.94C19.8396 3 18.5496 2.5 17.0596 2.5H17.0396L16.7155 2.50523C16.5514 2.50787 16.4199 2.64184 16.4203 2.80593L16.4396 10.64C16.4396 10.88 16.3296 11.11 16.1296 11.25C15.9396 11.39 15.6896 11.43 15.4596 11.36L12.8596 10.51L10.2496 11.38C10.1696 11.4 10.0896 11.41 10.0096 11.41C9.84961 11.41 9.69961 11.37 9.56961 11.27C9.37961 11.13 9.25961 10.91 9.25961 10.67L9.24998 2.81963C9.24977 2.65409 9.11552 2.52 8.94998 2.52H8.60961C5.46961 2.54 3.34961 4.75 3.34961 8.04V8.06L3.36961 16C3.36961 17.59 3.85961 18.95 4.78961 19.95C5.74961 20.97 7.06961 21.5 8.62961 21.5H8.65961L17.0796 21.48C20.2396 21.47 22.3496 19.25 22.3496 15.95L22.3296 8.01Z" fill="black"/>
<path fill-rule="evenodd" clip-rule="evenodd" d="M12.623 9.01112C12.773 8.96112 12.936 8.96012 13.09 9.01012L14.938 9.61112L14.9255 2.80922C14.9252 2.64349 14.7906 2.50941 14.6249 2.50977L11.0507 2.51747C10.8851 2.51783 10.7511 2.65225 10.7513 2.81781L10.759 9.62612L12.623 9.01112Z" fill="black"/>
<path d="M11.1798 17.2291H8.08984C7.67984 17.2291 7.33984 16.8991 7.33984 16.4791C7.33984 16.0691 7.67984 15.7291 8.08984 15.7291H11.1798C11.5998 15.7291 11.9298 16.0691 11.9298 16.4791C11.9298 16.8991 11.5998 17.2291 11.1798 17.2291Z" fill="black"/>
</svg>