<svg width="25" height="24" viewBox="0 0 25 24" fill="none" xmlns="http://www.w3.org/2000/svg">
<path d="M10.8787 16.3821C11.6999 16.2615 12.5357 16.3841 13.3647 16.3636C15.2882 16.3179 16.7944 14.6921 18.2587 13.5897C19.0069 13.0263 20.0538 13.1013 20.7155 13.7648C21.4491 14.5023 21.4491 15.6971 20.7155 16.4337C19.1344 18.0216 17.7372 19.4937 15.5947 20.3265C12.6213 21.4834 9.86199 20.923 6.85065 20.3265C5.68504 20.0969 4.61185 20.0823 3.43262 20.0823" stroke="black" stroke-width="1.5" stroke-linecap="round" stroke-linejoin="round"/>
<path d="M10.8787 16.3456H12.5026C13.6614 16.3456 14.5984 15.5128 14.5984 14.353C14.5984 13.3898 13.9455 12.6192 13.0115 12.3847C11.6746 12.049 10.3407 11.7863 8.94546 11.8204C6.7339 11.8739 5.18688 13.1056 3.43359 14.279" stroke="black" stroke-width="1.5" stroke-linecap="round" stroke-linejoin="round"/>
<path d="M19.9033 13.2123L19.8878 6.69438C19.8829 4.31645 18.726 2.99418 16.3471 3.00002L8.83873 3.01656C6.46664 3.02142 5.35648 4.3505 5.36134 6.72843L5.37691 12.9943" stroke="black" stroke-width="1.5" stroke-linecap="round" stroke-linejoin="round"/>
<path opacity="0.4" d="M14.6355 3L14.6472 8.41651L12.64 7.76171L10.6211 8.42819L10.6152 3.01751" stroke="black" stroke-width="1.5" stroke-linecap="round" stroke-linejoin="round"/>
</svg>