<svg width="25" height="24" viewBox="0 0 25 24" fill="none" xmlns="http://www.w3.org/2000/svg">
<path fill-rule="evenodd" clip-rule="evenodd" d="M18.0136 9.48C17.7216 9.773 17.2446 9.772 16.9526 9.479L16.5706 9.095V13.469C16.5706 13.883 16.2346 14.219 15.8206 14.219C15.4066 14.219 15.0706 13.883 15.0706 13.469V9.092L14.6856 9.479C14.5386 9.626 14.3466 9.699 14.1546 9.699C13.9626 9.699 13.7716 9.626 13.6246 9.48C13.3306 9.188 13.3306 8.713 13.6226 8.42L15.2866 6.75C15.5686 6.468 16.0686 6.467 16.3496 6.75L18.0156 8.419C18.3076 8.713 18.3076 9.188 18.0136 9.48ZM17.3886 17.469H8.31261C7.89861 17.469 7.56261 17.133 7.56261 16.719C7.56261 16.305 7.89861 15.969 8.31261 15.969H17.3886C17.8026 15.969 18.1386 16.305 18.1386 16.719C18.1386 17.133 17.8026 17.469 17.3886 17.469ZM7.68361 8.42L9.34761 6.75C9.62861 6.468 10.1286 6.467 10.4096 6.75L12.0756 8.419C12.3676 8.713 12.3676 9.188 12.0736 9.48C11.7806 9.773 11.3056 9.771 11.0126 9.479L10.6286 9.094V13.469C10.6286 13.883 10.2926 14.219 9.87861 14.219C9.46461 14.219 9.12861 13.883 9.12861 13.469V9.094L8.74561 9.479C8.59961 9.626 8.40761 9.699 8.21461 9.699C8.02361 9.699 7.83161 9.626 7.68561 9.48C7.39161 9.188 7.39161 8.713 7.68361 8.42ZM17.0676 2.5H8.63261C5.47261 2.5 3.34961 4.722 3.34961 8.029V15.969C3.34961 19.277 5.47261 21.5 8.63261 21.5H17.0676C20.2266 21.5 22.3496 19.277 22.3496 15.969V8.029C22.3496 4.722 20.2266 2.5 17.0676 2.5Z" fill="black"/>
</svg>