<svg width="24" height="24" viewBox="0 0 24 24" fill="none" xmlns="http://www.w3.org/2000/svg">
<path d="M12.4218 6.57607C12.3396 6.69489 12.2043 6.7658 12.0599 6.7658H6.20755C5.96456 6.7658 5.76759 6.96279 5.7676 7.20577L5.76772 10.4591C5.76773 10.702 5.96471 10.899 6.20768 10.899H9.30011C9.44136 10.899 9.52505 11.057 9.44567 11.1739L5.91966 16.3639C5.82056 16.5098 5.76758 16.6821 5.76758 16.8584V20.3256C5.76758 20.5686 5.96455 20.7655 6.20752 20.7656L8.96302 20.7656C8.96595 20.7656 8.96866 20.7641 8.97021 20.7616L11.6023 16.9552C11.6845 16.8364 11.8197 16.7655 11.9642 16.7655H17.8165C18.0595 16.7655 18.2565 16.5685 18.2565 16.3255L18.2564 13.0722C18.2564 12.8292 18.0594 12.6322 17.8164 12.6322H14.724C14.5827 12.6322 14.499 12.4742 14.5784 12.3574L18.1044 7.16732C18.2035 7.02145 18.2565 6.84918 18.2565 6.67284V3.20565C18.2565 2.96268 18.0595 2.7657 17.8166 2.7657L15.0611 2.76563C15.0581 2.76562 15.0554 2.76713 15.0539 2.76962L12.4218 6.57607Z" stroke="black" stroke-width="1.5" stroke-linecap="round" stroke-linejoin="round"/>
</svg>