<svg width="24" height="24" viewBox="0 0 24 24" fill="none" xmlns="http://www.w3.org/2000/svg">
<path fill-rule="evenodd" clip-rule="evenodd" d="M14.4348 2.34623C14.5757 2.13992 14.8099 2.01562 15.0611 2.01563L17.8166 2.0157C18.4738 2.01571 19.0065 2.54847 19.0065 3.20565V6.67284C19.0065 6.99949 18.9084 7.3186 18.7248 7.58879L15.8079 11.8822H17.8164C18.4736 11.8822 19.0063 12.415 19.0064 13.0722L19.0065 16.3254C19.0065 16.9827 18.4738 17.5155 17.8165 17.5155H12.1268L9.58933 21.185C9.44843 21.3913 9.21426 21.5156 8.963 21.5156L6.2075 21.5156C5.55032 21.5155 5.01758 20.9828 5.01758 20.3256V16.8584C5.01758 16.5318 5.11572 16.2127 5.29928 15.9425L8.21617 11.649H6.20768C5.5505 11.649 5.01775 11.1163 5.01772 10.4591L5.0176 7.2058C5.01757 6.54859 5.55034 6.0158 6.20755 6.0158H11.8973L14.4348 2.34623ZM15.4499 3.51564L13.0386 7.00264C12.8164 7.324 12.4506 7.5158 12.0599 7.5158H6.51761L6.51771 10.149H9.30011C10.0434 10.149 10.4837 10.9806 10.066 11.5953L6.54003 16.7854C6.5254 16.8069 6.51758 16.8324 6.51758 16.8584V20.0156L8.57423 20.0156L10.9855 16.5286C11.2077 16.2072 11.5735 16.0155 11.9642 16.0155H17.5065L17.5064 13.3822H14.724C13.9807 13.3822 13.5404 12.5507 13.958 11.9359L17.4841 6.74585C17.4987 6.72431 17.5065 6.69888 17.5065 6.67284V3.51569L15.4499 3.51564Z" fill="black"/>
</svg>