<svg width="24" height="24" viewBox="0 0 24 24" fill="none" xmlns="http://www.w3.org/2000/svg">
<path opacity="0.4" d="M15.0538 2.76962C15.0553 2.76713 15.058 2.76562 15.0609 2.76563L17.8164 2.7657C18.0594 2.7657 18.2564 2.96268 18.2564 3.20565V6.67284C18.2564 6.84918 18.2034 7.02145 18.1043 7.16732L14.5783 12.3574C14.4989 12.4742 14.5826 12.6322 14.7239 12.6322H17.8163C18.0593 12.6322 18.2562 12.8292 18.2562 13.0722L18.2564 16.3255C18.2564 16.5685 18.0594 16.7655 17.8164 16.7655H11.9641C11.8196 16.7655 11.6844 16.8364 11.6022 16.9552L8.97008 20.7616C8.96853 20.7641 8.96581 20.7656 8.96289 20.7656" stroke="black" stroke-width="1.5" stroke-linecap="round" stroke-linejoin="round"/>
<path d="M15.0539 2.76562L12.4218 6.57208C12.3396 6.69089 12.2043 6.76181 12.0599 6.76181H6.20755C5.96456 6.76181 5.76759 6.95879 5.7676 7.20178L5.76772 10.4551C5.76773 10.698 5.96471 10.895 6.20768 10.895H9.30011C9.44136 10.895 9.52505 11.053 9.44567 11.1699L5.91966 16.3599C5.82056 16.5058 5.76758 16.6781 5.76758 16.8544V20.3216C5.76758 20.5646 5.96455 20.7616 6.20752 20.7616L8.96302 20.7616" stroke="black" stroke-width="1.5" stroke-linecap="round" stroke-linejoin="round"/>
</svg>