<svg width="24" height="24" viewBox="0 0 24 24" fill="none" xmlns="http://www.w3.org/2000/svg">
<path fill-rule="evenodd" clip-rule="evenodd" d="M10.5755 8.51988C10.8406 8.83809 10.7976 9.31101 10.4794 9.57618L8.27397 11.4141L10.6365 12.8907L12.3042 8.72148C12.3867 8.5152 12.5564 8.35613 12.7676 8.28712C12.9788 8.21811 13.2097 8.24627 13.398 8.36402L17.3997 10.8651C17.6037 10.9925 17.7341 11.2101 17.7505 11.45C17.7668 11.69 17.6671 11.9233 17.4824 12.0772L14.4811 14.5783C14.1629 14.8434 13.69 14.8004 13.4248 14.4822C13.1596 14.164 13.2026 13.6911 13.5208 13.4259L15.7263 11.588L13.3638 10.1115L11.6961 14.2806C11.6136 14.4869 11.4439 14.646 11.2327 14.715C11.0215 14.784 10.7906 14.7558 10.6022 14.6381L6.60055 12.1371C6.39659 12.0096 6.26615 11.792 6.24979 11.5521C6.23343 11.3121 6.33314 11.0789 6.51791 10.9249L9.51916 8.42385C9.83737 8.15868 10.3103 8.20167 10.5755 8.51988Z" fill="black"/>
<path fill-rule="evenodd" clip-rule="evenodd" d="M2.26953 5.63035C2.07715 4.02556 3.33025 2.61328 4.94652 2.61328H19.0537C20.6576 2.61328 21.9067 4.00491 21.7342 5.59943L20.6111 15.9812C20.5132 16.8854 19.9662 17.6794 19.1561 18.0928L13.2749 21.0941C12.5033 21.4878 11.5895 21.4869 10.8188 21.0915L4.96005 18.0862C4.16243 17.6771 3.62033 16.8982 3.51363 16.0082L2.26953 5.63035ZM4.94652 4.11328C4.22946 4.11328 3.67352 4.73984 3.75887 5.45181L5.00296 15.8296C5.0503 16.2245 5.29081 16.57 5.64467 16.7516L11.5034 19.7568C11.8454 19.9322 12.2508 19.9327 12.5931 19.758L18.4743 16.7567C18.8337 16.5733 19.0764 16.2211 19.1198 15.8199L20.2429 5.43809C20.3195 4.73068 19.7653 4.11328 19.0537 4.11328H4.94652Z" fill="black"/>
</svg>