<svg width="25" height="24" viewBox="0 0 25 24" fill="none" xmlns="http://www.w3.org/2000/svg">
<path d="M15.4807 8.90377V8.8522M15.474 8.69922C15.35 8.69922 15.249 8.80022 15.25 8.92422C15.25 9.04822 15.351 9.14922 15.475 9.14922C15.599 9.14922 15.7 9.04822 15.7 8.92422C15.7 8.79922 15.599 8.69922 15.474 8.69922Z" stroke="black" stroke-width="1.5" stroke-linecap="round" stroke-linejoin="round"/>
<path d="M9.01953 8.90377V8.8522M8.97401 8.69922C8.85001 8.69922 8.74901 8.80022 8.75001 8.92422C8.75001 9.04822 8.85101 9.14922 8.97501 9.14922C9.09901 9.14922 9.20001 9.04822 9.20001 8.92422C9.20001 8.79922 9.09901 8.69922 8.97401 8.69922Z" stroke="black" stroke-width="1.5" stroke-linecap="round" stroke-linejoin="round"/>
<path d="M10.4785 14.6582H7.82031" stroke="black" stroke-width="1.5" stroke-linecap="round" stroke-linejoin="round"/>
<path d="M12.25 21C7.27908 21 3.25 16.9709 3.25 12C3.25 7.03005 7.27908 3 12.25 3C17.2209 3 21.25 7.03005 21.25 12C21.25 15.7397 18.9696 18.9464 15.7233 20.3054" stroke="black" stroke-width="1.5" stroke-linecap="round" stroke-linejoin="round"/>
</svg>