<svg width="25" height="24" viewBox="0 0 25 24" fill="none" xmlns="http://www.w3.org/2000/svg">
<path opacity="0.4" d="M12.5 21C7.52908 21 3.5 16.9699 3.5 12C3.5 7.02908 7.52908 3 12.5 3C17.4709 3 21.5 7.02908 21.5 12C21.5 16.9699 17.4709 21 12.5 21Z" stroke="black" stroke-width="1.5" stroke-linecap="round" stroke-linejoin="round"/>
<path d="M15.7307 8.90377V8.8522M15.724 8.69922C15.6 8.69922 15.499 8.80022 15.5 8.92422C15.5 9.04822 15.601 9.14922 15.725 9.14922C15.849 9.14922 15.95 9.04822 15.95 8.92422C15.95 8.79922 15.849 8.69922 15.724 8.69922Z" stroke="black" stroke-width="1.5" stroke-linecap="round" stroke-linejoin="round"/>
<path d="M9.26953 8.90377V8.8522M9.22401 8.69922C9.10001 8.69922 8.99901 8.80022 9.00001 8.92422C9.00001 9.04822 9.10101 9.14922 9.22501 9.14922C9.34901 9.14922 9.45001 9.04822 9.45001 8.92422C9.45001 8.79922 9.34901 8.69922 9.22401 8.69922Z" stroke="black" stroke-width="1.5" stroke-linecap="round" stroke-linejoin="round"/>
<path d="M10.7285 14.6562H8.07031" stroke="black" stroke-width="1.5" stroke-linecap="round" stroke-linejoin="round"/>
</svg>