<svg width="25" height="24" viewBox="0 0 25 24" fill="none" xmlns="http://www.w3.org/2000/svg">
<path opacity="0.4" fill-rule="evenodd" clip-rule="evenodd" d="M12.5 2.5C7.262 2.5 3 6.762 3 12C3 17.238 7.262 21.5 12.5 21.5C17.739 21.5 22 17.238 22 12C22 6.762 17.739 2.5 12.5 2.5Z" fill="black"/>
<path fill-rule="evenodd" clip-rule="evenodd" d="M15.7248 9.89922C15.1878 9.89922 14.7498 9.46222 14.7498 8.92422C14.7478 8.66922 14.8488 8.42222 15.0328 8.23722C15.2168 8.05122 15.4618 7.94922 15.7238 7.94922C16.2618 7.94922 16.7008 8.38622 16.7008 8.92422C16.7008 9.46222 16.2628 9.89922 15.7248 9.89922Z" fill="black"/>
<path fill-rule="evenodd" clip-rule="evenodd" d="M10.7288 15.4082H8.0708C7.6568 15.4082 7.3208 15.0722 7.3208 14.6582C7.3208 14.2442 7.6568 13.9082 8.0708 13.9082H10.7288C11.1428 13.9082 11.4788 14.2442 11.4788 14.6582C11.4788 15.0722 11.1428 15.4082 10.7288 15.4082Z" fill="black"/>
<path fill-rule="evenodd" clip-rule="evenodd" d="M8.53278 8.23722C8.71678 8.05122 8.96178 7.94922 9.22378 7.94922C9.76179 7.94922 10.2008 8.38622 10.2008 8.92422C10.2008 9.46222 9.76278 9.89922 9.22479 9.89922C8.68779 9.89922 8.24979 9.46222 8.24979 8.92422C8.24779 8.66922 8.34878 8.42222 8.53278 8.23722Z" fill="black"/>
</svg>