<svg width="24" height="24" viewBox="0 0 24 24" fill="none" xmlns="http://www.w3.org/2000/svg">
<path opacity="0.4" fill-rule="evenodd" clip-rule="evenodd" d="M15 2.5H9C6.519 2.5 4.5 4.518 4.5 7V17C4.5 19.481 6.519 21.5 9 21.5H15C17.481 21.5 19.5 19.481 19.5 17V7C19.5 4.518 17.481 2.5 15 2.5Z" fill="black"/>
<path fill-rule="evenodd" clip-rule="evenodd" d="M16 6.76086C16.414 6.76086 16.75 6.42486 16.75 6.01086V6.00086C16.75 5.58686 16.414 5.25586 16 5.25586C15.586 5.25586 15.25 5.59686 15.25 6.01086C15.25 6.42486 15.586 6.76086 16 6.76086ZM13.365 15.9579L15.712 13.1179C16.255 12.4609 16.253 11.5089 15.707 10.8559L13.361 8.03786C13.023 7.63286 12.526 7.40086 11.999 7.40086C11.472 7.40186 10.976 7.63386 10.639 8.03886L8.293 10.8549C7.746 11.5089 7.744 12.4609 8.287 13.1189L10.634 15.9579C10.972 16.3669 11.471 16.6009 12.001 16.6009C12.531 16.6009 13.028 16.3659 13.365 15.9579ZM8 18.7609C8.414 18.7609 8.75 18.4249 8.75 18.0109V18.0009C8.75 17.5869 8.414 17.2559 8 17.2559C7.586 17.2559 7.25 17.5969 7.25 18.0109C7.25 18.4249 7.586 18.7609 8 18.7609ZM11.999 8.8993C12.047 8.8993 12.138 8.9123 12.209 8.9973L14.556 11.8153C14.639 11.9153 14.639 12.0603 14.556 12.1613L12.209 15.0013C12.138 15.0863 12.048 15.1003 12 15.1003C11.952 15.1003 11.861 15.0863 11.79 15.0003L9.44299 12.1623C9.35999 12.0603 9.35998 11.9153 9.44398 11.8143L11.791 8.9973C11.862 8.9123 11.952 8.8993 11.999 8.8993Z" fill="black"/>
</svg>