<svg width="25" height="24" viewBox="0 0 25 24" fill="none" xmlns="http://www.w3.org/2000/svg">
<path d="M15.25 21.75H9.25C7.99071 21.7484 6.78346 21.2475 5.89301 20.357C5.00255 19.4665 4.50159 18.2593 4.5 17V7C4.50159 5.74071 5.00255 4.53345 5.89301 3.643C6.78346 2.75254 7.99071 2.25159 9.25 2.25H15.25C16.5093 2.25159 17.7165 2.75254 18.607 3.643C19.4974 4.53345 19.9984 5.74071 20 7V17C19.9984 18.2593 19.4974 19.4665 18.607 20.357C17.7165 21.2475 16.5093 21.7484 15.25 21.75ZM9.25 3.75C8.38837 3.75106 7.56233 4.09381 6.95306 4.70307C6.3438 5.31234 6.00106 6.13837 6 7V17C6.00106 17.8616 6.3438 18.6877 6.95306 19.2969C7.56233 19.9062 8.38837 20.2489 9.25 20.25H15.25C16.1116 20.2489 16.9377 19.9062 17.5469 19.2969C18.1562 18.6877 18.4989 17.8616 18.5 17V7C18.4989 6.13837 18.1562 5.31234 17.5469 4.70307C16.9377 4.09381 16.1116 3.75106 15.25 3.75H9.25Z" fill="black"/>
<path d="M16.2501 6.75986C16.1016 6.76025 15.9562 6.71665 15.8325 6.63456C15.7087 6.55248 15.612 6.43558 15.5546 6.29862C15.4971 6.16165 15.4816 6.01074 15.5098 5.86493C15.538 5.71912 15.6088 5.58494 15.7132 5.47929C15.8176 5.37365 15.9509 5.30129 16.0964 5.27133C16.2418 5.24136 16.3929 5.25514 16.5306 5.31092C16.6682 5.36671 16.7862 5.462 16.8698 5.58479C16.9533 5.70757 16.9987 5.85234 17.0001 6.00086V6.00986C17.0001 6.20877 16.9211 6.39953 16.7804 6.54018C16.6398 6.68084 16.449 6.75986 16.2501 6.75986Z" fill="black"/>
<path d="M8.25007 18.7599C8.10155 18.7602 7.95624 18.7166 7.83247 18.6346C7.70869 18.5525 7.612 18.4356 7.55457 18.2986C7.49715 18.1616 7.48158 18.0107 7.5098 17.8649C7.53803 17.7191 7.60881 17.5849 7.7132 17.4793C7.81759 17.3737 7.95092 17.3013 8.09638 17.2713C8.24184 17.2414 8.39291 17.2551 8.53055 17.3109C8.6682 17.3667 8.78623 17.462 8.86979 17.5848C8.95334 17.7076 8.99868 17.8523 9.00007 18.0009V18.0099C9.00007 18.2088 8.92105 18.3995 8.7804 18.5402C8.63975 18.6808 8.44898 18.7599 8.25007 18.7599Z" fill="black"/>
<path d="M12.2497 16.6043C11.9887 16.6046 11.731 16.5472 11.4948 16.4362C11.2587 16.3252 11.05 16.1634 10.8837 15.9623L8.53666 13.1213C8.27349 12.8027 8.12995 12.4021 8.13086 11.9889C8.13178 11.5757 8.27709 11.1757 8.54166 10.8583L10.8877 8.0433C11.0536 7.84302 11.2617 7.68188 11.4972 7.57141C11.7326 7.46095 11.9896 7.40388 12.2497 7.4043C12.5095 7.40418 12.7661 7.46129 13.0013 7.57156C13.2365 7.68182 13.4446 7.84254 13.6107 8.0423L15.9567 10.8583C16.2213 11.1759 16.3667 11.576 16.3676 11.9894C16.3685 12.4028 16.2249 12.8035 15.9617 13.1223L13.6147 15.9613C13.4487 16.1624 13.2404 16.3243 13.0046 16.4354C12.7688 16.5466 12.5114 16.6042 12.2507 16.6043H12.2497ZM12.2497 8.9043C12.21 8.90584 12.1711 8.91552 12.1353 8.93272C12.0995 8.94992 12.0676 8.97428 12.0417 9.0043L9.69468 11.8203C9.65416 11.8688 9.63196 11.9301 9.63196 11.9933C9.63196 12.0565 9.65416 12.1178 9.69468 12.1663L12.0397 15.0043C12.065 15.0356 12.097 15.0609 12.1333 15.0782C12.1697 15.0955 12.2094 15.1044 12.2497 15.1043C12.2897 15.1041 12.3293 15.0951 12.3654 15.0778C12.4015 15.0605 12.4334 15.0354 12.4587 15.0043L14.8057 12.1643C14.8461 12.1155 14.8682 12.0542 14.8682 11.9908C14.8682 11.9275 14.8461 11.8661 14.8057 11.8173L12.4587 9.0043C12.4335 8.97306 12.4017 8.94785 12.3655 8.93054C12.3294 8.91324 12.2898 8.90427 12.2497 8.9043Z" fill="black"/>
</svg>