<svg width="25" height="24" viewBox="0 0 25 24" fill="none" xmlns="http://www.w3.org/2000/svg">
<path d="M12.5061 3.00002C12.2228 2.99785 11.9385 3.14679 11.7984 3.44685L9.41975 8.54535C9.34235 8.71005 9.21005 8.84235 9.04535 8.91885L3.94685 11.2984C3.35105 11.5765 3.35105 12.4234 3.94685 12.7015L9.04535 15.0812C9.21005 15.1577 9.34235 15.2899 9.41975 15.4546L11.7984 20.5532C11.9385 20.8532 12.2228 21.0022 12.5061 21" stroke="black" stroke-width="1.5" stroke-linecap="round" stroke-linejoin="round"/>
<path opacity="0.4" d="M12.5059 3C12.7851 3.00214 13.0633 3.15109 13.2013 3.44683L15.5809 8.54533C15.6574 8.71003 15.7897 8.84233 15.9553 8.91883L21.0529 11.2984C21.6487 11.5765 21.6487 12.4234 21.0529 12.7015L15.9553 15.0811C15.7897 15.1576 15.6574 15.2899 15.5809 15.4546L13.2013 20.5531C13.0633 20.8489 12.7851 20.9978 12.5059 21" stroke="black" stroke-width="1.5" stroke-linecap="round" stroke-linejoin="round"/>
</svg>