<svg width="24" height="24" viewBox="0 0 24 24" fill="none" xmlns="http://www.w3.org/2000/svg">
<path d="M11.5498 17.7891H14.1498C14.7021 17.7891 15.1498 17.3413 15.1498 16.7891V15.0891M15.1498 15.0891V9.78906C15.1498 9.23678 14.7021 8.78906 14.1498 8.78906H12.5498C11.9975 8.78906 11.5498 9.23678 11.5498 9.78906V14.0891C11.5498 14.6413 11.9975 15.0891 12.5498 15.0891H15.1498Z" stroke="black" stroke-width="1.5" stroke-linecap="round" stroke-linejoin="round"/>
<path d="M6.6 8.78509V14.0851C6.6 14.6374 6.15228 15.0851 5.6 15.0851H4C3.44772 15.0851 3 14.6374 3 14.0851V9.78509C3 9.23281 3.44772 8.78509 4 8.78509H6.6ZM6.6 8.78509V6.21094" stroke="black" stroke-width="1.5" stroke-linecap="round" stroke-linejoin="round"/>
<path d="M9.2998 9.04297L9.2998 14.8391" stroke="black" stroke-width="1.5" stroke-linecap="round" stroke-linejoin="round"/>
<path d="M9.2998 6.38281V6.48032" stroke="black" stroke-width="1.5" stroke-linecap="round" stroke-linejoin="round"/>
<path d="M17.4004 17.7891H20.0004C20.5527 17.7891 21.0004 17.3413 21.0004 16.7891V15.0891M21.0004 15.0891V9.78906C21.0004 9.23678 20.5527 8.78906 20.0004 8.78906H18.4004C17.8481 8.78906 17.4004 9.23678 17.4004 9.78906V14.0891C17.4004 14.6413 17.8481 15.0891 18.4004 15.0891H21.0004Z" stroke="black" stroke-width="1.5" stroke-linecap="round" stroke-linejoin="round"/>
</svg>