<svg width="25" height="24" viewBox="0 0 25 24" fill="none" xmlns="http://www.w3.org/2000/svg">
<path d="M16.5107 20.1423L16.5107 16.6094" stroke="black" stroke-width="1.5" stroke-linecap="round" stroke-linejoin="round"/>
<path d="M16.5107 3.85572L16.5107 7.38867" stroke="black" stroke-width="1.5" stroke-linecap="round" stroke-linejoin="round"/>
<path d="M19.2136 16.6094L19.2136 18.6074L21.5 18.6074" stroke="black" stroke-width="1.5" stroke-linecap="round" stroke-linejoin="round"/>
<path d="M19.2136 7.38867L19.2136 5.39063L21.5 5.39063" stroke="black" stroke-width="1.5" stroke-linecap="round" stroke-linejoin="round"/>
<path d="M13.8079 16.6094L13.8079 18.6074L11.5215 18.6074" stroke="black" stroke-width="1.5" stroke-linecap="round" stroke-linejoin="round"/>
<path d="M13.8079 7.38867L13.8079 5.39063L11.5215 5.39063" stroke="black" stroke-width="1.5" stroke-linecap="round" stroke-linejoin="round"/>
<path opacity="0.4" d="M20.7371 11.9992L18.8461 10.1082L17.4444 11.2253L16.2822 10.1434L14.8453 11.2253L13.7634 10.145L12.3336 10.1462C11.6205 8.52191 9.99785 7.38867 8.1102 7.38867C5.56406 7.38867 3.5 9.45273 3.5 11.9989C3.5 14.545 5.56406 16.6091 8.1102 16.6091C9.98096 16.6091 11.5915 15.493 12.3142 13.892L18.8461 13.8902L20.7371 11.9992Z" stroke="black" stroke-width="1.5" stroke-linecap="round" stroke-linejoin="round"/>
<path d="M6.82518 12.9755C6.28614 12.4364 6.28614 11.5625 6.82518 11.0234" stroke="black" stroke-width="1.5" stroke-linecap="round" stroke-linejoin="round"/>
</svg>