<svg width="24" height="24" viewBox="0 0 24 24" fill="none" xmlns="http://www.w3.org/2000/svg">
<path fill-rule="evenodd" clip-rule="evenodd" d="M2.88196 4.79029C3.43039 4.72513 3.9278 5.11689 3.99296 5.66532L4.80515 12.5012H7.17932C8.31244 12.5012 9.23106 13.4198 9.23106 14.553V18.2161C9.23106 18.7683 8.78334 19.2161 8.23106 19.2161C7.67877 19.2161 7.23106 18.7683 7.23106 18.2161V14.553C7.23106 14.5244 7.20787 14.5012 7.17932 14.5012H4.75302L3.981 18.4102C3.87399 18.952 3.34801 19.3045 2.80619 19.1975C2.26437 19.0905 1.91189 18.5645 2.0189 18.0227L2.91064 13.5075L2.00693 5.90128C1.94177 5.35286 2.33354 4.85544 2.88196 4.79029ZM21.1179 4.79029C21.6664 4.85544 22.0581 5.35286 21.993 5.90128L21.0893 13.5075L21.981 18.0227C22.088 18.5645 21.7355 19.0905 21.1937 19.1975C20.6519 19.3045 20.1259 18.952 20.0189 18.4102L19.2469 14.5012H16.8209C16.7923 14.5012 16.7691 14.5244 16.7691 14.553V18.2161C16.7691 18.7683 16.3214 19.2161 15.7691 19.2161C15.2168 19.2161 14.7691 18.7683 14.7691 18.2161V14.553C14.7691 13.4198 15.6877 12.5012 16.8209 12.5012H19.1947L20.0069 5.66532C20.0721 5.11689 20.5695 4.72513 21.1179 4.79029ZM5.58613 9.19713C5.58613 8.64485 6.03384 8.19713 6.58613 8.19713H17.4489C18.0012 8.19713 18.4489 8.64485 18.4489 9.19713C18.4489 9.74942 18.0012 10.1971 17.4489 10.1971H13.018V18.2162C13.018 18.7685 12.5703 19.2162 12.018 19.2162C11.4657 19.2162 11.018 18.7685 11.018 18.2162V10.1971H6.58613C6.03384 10.1971 5.58613 9.74942 5.58613 9.19713Z" fill="black"/>
</svg>