<svg width="25" height="24" viewBox="0 0 25 24" fill="none" xmlns="http://www.w3.org/2000/svg">
<path d="M2.91212 4.79272C3.32325 4.7427 3.6963 5.03262 3.74513 5.44262L4.58302 12.5027H7.17921C8.17432 12.5027 8.98145 13.3127 8.98145 14.3027V17.9727C8.98145 18.3827 8.64552 18.7227 8.23145 18.7227C7.81739 18.7227 7.48145 18.3827 7.48145 17.9727V14.3027C7.48145 14.1427 7.3462 14.0027 7.17921 14.0027H4.54786L3.73634 18.1127C3.65626 18.5227 3.26124 18.7826 2.85548 18.7026C2.44825 18.6226 2.18458 18.2326 2.26417 17.8226L3.16456 13.2684L2.25538 5.62268C2.20655 5.21267 2.5005 4.84271 2.91212 4.79272Z" fill="black"/>
<path d="M21.0884 4.79272C21.5005 4.84271 21.7944 5.21267 21.7451 5.62268L20.8359 13.2669L21.7363 17.8226C21.8164 18.2326 21.5523 18.6226 21.1455 18.7026C20.7393 18.7826 20.3442 18.5227 20.2642 18.1127L19.4526 14.0027H16.8213C16.6543 14.0027 16.5195 14.1427 16.5195 14.3027V17.9727C16.5195 18.3827 16.1831 18.7227 15.7695 18.7227C15.3555 18.7227 15.0195 18.3827 15.0195 17.9727V14.3027C15.0195 13.3127 15.8262 12.5027 16.8213 12.5027H19.418L20.2554 5.44262C20.3042 5.03262 20.6773 4.7427 21.0884 4.79272Z" fill="black"/>
<path d="M5.83643 8.95263C5.83643 8.53262 6.17237 8.20263 6.58643 8.20263H17.4492C17.8633 8.20263 18.1992 8.53262 18.1992 8.95263C18.1992 9.36264 17.8633 9.70263 17.4492 9.70263H12.7686V17.9727C12.7686 18.3827 12.4321 18.7227 12.0186 18.7227C11.6045 18.7227 11.2686 18.3827 11.2686 17.9727V9.70263H6.58643C6.17237 9.70263 5.83643 9.36264 5.83643 8.95263Z" fill="black"/>
</svg>