<svg width="24" height="24" viewBox="0 0 24 24" fill="none" xmlns="http://www.w3.org/2000/svg">
<path fill-rule="evenodd" clip-rule="evenodd" d="M3.89773 3.73657C4.94853 2.75842 6.39899 2.25 8.02638 2.25H15.9736C17.6019 2.25 19.0523 2.76117 20.1026 3.7402C21.1588 4.72468 21.75 6.12669 21.75 7.78216V16.2169C21.75 17.8762 21.1592 19.2788 20.1024 20.2629C19.0516 21.2413 17.6011 21.75 15.9736 21.75H8.02638C6.39889 21.75 4.94838 21.2413 3.89761 20.2627C2.8408 19.2785 2.25 17.8756 2.25 16.2159V7.78216C2.25 6.1228 2.84086 4.72038 3.89773 3.73657ZM4.91976 4.83451C4.19973 5.50475 3.75 6.49341 3.75 7.78216V16.2159C3.75 17.5052 4.1998 18.4944 4.91988 19.165C5.64599 19.8412 6.70868 20.25 8.02638 20.25H15.9736C17.2913 20.25 18.354 19.8412 19.0802 19.1651C19.8003 18.4946 20.25 17.5056 20.25 16.2169V7.78216C20.25 6.49828 19.8006 5.50921 19.0799 4.83745C18.3533 4.16024 17.2905 3.75 15.9736 3.75H8.02638C6.70857 3.75 5.64585 4.15861 4.91976 4.83451Z" fill="black"/>
<path fill-rule="evenodd" clip-rule="evenodd" d="M13.9334 8.06672C14.2263 7.77382 14.7011 7.77382 14.994 8.06672L17.5303 10.603C17.671 10.7437 17.75 10.9344 17.75 11.1334C17.75 11.3323 17.671 11.523 17.5303 11.6637L14.994 14.2C14.7011 14.4929 14.2263 14.4929 13.9334 14.2C13.6405 13.9071 13.6405 13.4322 13.9334 13.1393L15.1893 11.8834H12.9734C12.2086 11.8834 11.5886 12.5034 11.5886 13.2682C11.5886 14.8614 10.297 16.153 8.70374 16.153H7C6.58579 16.153 6.25 15.8172 6.25 15.403C6.25 14.9888 6.58579 14.653 7 14.653H8.70374C9.46856 14.653 10.0886 14.033 10.0886 13.2682C10.0886 11.6749 11.3801 10.3834 12.9734 10.3834H15.1893L13.9334 9.12738C13.6405 8.83448 13.6405 8.35961 13.9334 8.06672Z" fill="black"/>
</svg>