<svg width="24" height="24" viewBox="0 0 24 24" fill="none" xmlns="http://www.w3.org/2000/svg">
<path opacity="0.4" fill-rule="evenodd" clip-rule="evenodd" d="M20.1227 8.83379L15.1647 3.87679C14.2237 2.93679 13.1037 2.45879 11.9097 2.50279C10.7557 2.54379 9.64271 3.06979 8.69171 4.02079L4.01971 8.69179C2.04171 10.6708 1.98371 13.2738 3.87671 15.1658L8.83471 20.1228C9.73771 21.0268 10.8097 21.4998 11.9447 21.4998C11.9927 21.4998 12.0407 21.4988 12.0897 21.4978C13.2437 21.4568 14.3577 20.9318 15.3087 19.9808L19.9807 15.3088C21.9587 13.3298 22.0157 10.7278 20.1227 8.83379Z" fill="black"/>
<path fill-rule="evenodd" clip-rule="evenodd" d="M16.1705 11.3192L13.9815 13.4982C13.8355 13.6432 13.6435 13.7162 13.4525 13.7162C13.2595 13.7162 13.0675 13.6432 12.9205 13.4962C12.6285 13.2022 12.6295 12.7272 12.9225 12.4352L13.8245 11.5382H10.8405C10.3825 11.5382 10.0105 11.9102 10.0105 12.3682V15.3882C10.0105 15.8022 9.6745 16.1382 9.2605 16.1382C8.8465 16.1382 8.5105 15.8022 8.5105 15.3882V12.3682C8.5105 11.0832 9.5555 10.0382 10.8405 10.0382H13.8265L12.9225 9.1372C12.6295 8.8452 12.6285 8.3702 12.9205 8.0772C13.2135 7.7822 13.6885 7.7842 13.9815 8.0752L16.1705 10.2572C16.2255 10.3112 16.2615 10.3782 16.2965 10.4442C16.3065 10.4632 16.3235 10.4772 16.3315 10.4962C16.3695 10.5882 16.3915 10.6872 16.3915 10.7882C16.3915 10.8892 16.3705 10.9872 16.3315 11.0792C16.3175 11.1112 16.2915 11.1352 16.2745 11.1642C16.2425 11.2182 16.2155 11.2742 16.1705 11.3192Z" fill="black"/>
</svg>