<svg width="24" height="24" viewBox="0 0 24 24" fill="none" xmlns="http://www.w3.org/2000/svg">
<path fill-rule="evenodd" clip-rule="evenodd" d="M16.1705 11.3197L13.9815 13.4987C13.8355 13.6437 13.6435 13.7167 13.4525 13.7167C13.2595 13.7167 13.0675 13.6437 12.9205 13.4967C12.6285 13.2027 12.6295 12.7277 12.9225 12.4357L13.8245 11.5387H10.8405C10.3825 11.5387 10.0105 11.9107 10.0105 12.3687V15.3887C10.0105 15.8027 9.67453 16.1387 9.26053 16.1387C8.84653 16.1387 8.51053 15.8027 8.51053 15.3887V12.3687C8.51053 11.0837 9.55553 10.0387 10.8405 10.0387H13.8265L12.9225 9.13766C12.6295 8.84565 12.6285 8.37066 12.9205 8.07765C13.2135 7.78265 13.6885 7.78466 13.9815 8.07565L16.1705 10.2577C16.2255 10.3117 16.2615 10.3787 16.2965 10.4447C16.3065 10.4637 16.3235 10.4777 16.3315 10.4967C16.3695 10.5887 16.3915 10.6877 16.3915 10.7887C16.3915 10.8897 16.3705 10.9877 16.3315 11.0797C16.3175 11.1117 16.2915 11.1357 16.2745 11.1647C16.2425 11.2187 16.2155 11.2747 16.1705 11.3197ZM19.9805 8.69165L15.3085 4.02065C14.3575 3.06965 13.2445 2.54465 12.0905 2.50365C10.8895 2.45265 9.77653 2.93665 8.83553 3.87765L3.87653 8.83465C1.98353 10.7287 2.04153 13.3307 4.01953 15.3087L8.69153 19.9807C9.64253 20.9317 10.7555 21.4577 11.9105 21.4987C11.9595 21.4997 12.0075 21.5007 12.0555 21.5007C13.1905 21.5007 14.2625 21.0267 15.1655 20.1237L20.1235 15.1667C22.0165 13.2737 21.9585 10.6717 19.9805 8.69165Z" fill="black"/>
</svg>