<svg width="24" height="24" viewBox="0 0 24 24" fill="none" xmlns="http://www.w3.org/2000/svg">
<path opacity="0.4" fill-rule="evenodd" clip-rule="evenodd" d="M20.1228 8.83379L15.1648 3.87679C14.2238 2.93679 13.1038 2.45879 11.9098 2.50279C10.7558 2.54379 9.64277 3.06979 8.69177 4.02079L4.01977 8.69179C2.04177 10.6708 1.98377 13.2738 3.87677 15.1658L8.83477 20.1228C9.73777 21.0268 10.8098 21.4998 11.9448 21.4998C11.9928 21.4998 12.0408 21.4988 12.0898 21.4978C13.2438 21.4568 14.3578 20.9318 15.3088 19.9808L19.9808 15.3088C21.9588 13.3298 22.0158 10.7278 20.1228 8.83379Z" fill="black"/>
<path fill-rule="evenodd" clip-rule="evenodd" d="M15.4888 15.3883C15.4888 15.8023 15.1528 16.1383 14.7388 16.1383C14.3248 16.1383 13.9888 15.8023 13.9888 15.3883V12.3673C13.9888 11.9093 13.6158 11.5373 13.1578 11.5373H10.1758L11.0768 12.4353C11.3708 12.7273 11.3718 13.2013 11.0798 13.4953C10.9328 13.6433 10.7398 13.7163 10.5478 13.7163C10.3568 13.7163 10.1648 13.6433 10.0188 13.4973L7.82976 11.3193L7.82876 11.3183C7.76076 11.2493 7.70576 11.1673 7.66776 11.0763C7.62976 10.9863 7.60876 10.8883 7.60876 10.7873C7.60876 10.6873 7.62976 10.5893 7.66776 10.4983C7.70576 10.4073 7.76076 10.3253 7.82876 10.2573L7.82976 10.2563L10.0188 8.07532C10.3118 7.78432 10.7868 7.78232 11.0788 8.07632C11.3718 8.36932 11.3708 8.84532 11.0768 9.13732L10.1738 10.0373H13.1578C14.4438 10.0373 15.4888 11.0823 15.4888 12.3673V15.3883Z" fill="black"/>
</svg>