<svg width="25" height="24" viewBox="0 0 25 24" fill="none" xmlns="http://www.w3.org/2000/svg">
<path d="M15.7778 7.41848C12.4507 5.6706 4.96181 6.16534 4.25532 9.36052C4.01592 10.976 5.96047 12.2237 8.41936 12.569C9.27922 12.6897 10.185 12.7337 11.0875 12.7159" stroke="black" stroke-width="1.5" stroke-linecap="round" stroke-linejoin="round"/>
<path d="M12.9208 17.1698C11.5956 17.251 10.1519 17.1845 8.85277 16.9102C6.8456 16.4864 5.31343 15.348 5.60218 14.03C5.82603 13.2692 6.51775 12.733 7.4503 12.3961" stroke="black" stroke-width="1.5" stroke-linecap="round" stroke-linejoin="round"/>
<path d="M9.50487 20.9999C7.9849 20.6404 6.83209 19.6395 7.06333 18.4618C7.24023 17.7815 7.77027 17.2971 8.48133 16.9883" stroke="black" stroke-width="1.5" stroke-linecap="round" stroke-linejoin="round"/>
<path d="M17.3006 16.3068H15.6972C15.5715 16.3068 15.4638 16.217 15.4413 16.0933L14.4956 10.892C14.4666 10.7324 14.5893 10.5854 14.7515 10.5854H18.2561C18.4289 10.5854 18.5537 10.7508 18.5062 10.917L17.6554 13.8948C17.6079 14.061 17.7326 14.2263 17.9054 14.2263H20.7278C20.933 14.2263 21.0574 14.4529 20.9472 14.626L18.0401 19.1943C17.9004 19.4138 17.5607 19.3148 17.5607 19.0547V16.5669C17.5607 16.4233 17.4442 16.3068 17.3006 16.3068Z" stroke="black" stroke-width="1.5" stroke-linecap="round" stroke-linejoin="round"/>
<path d="M14.1865 20.9612L14.7958 19.3838" stroke="black" stroke-width="1.5" stroke-linecap="round" stroke-linejoin="round"/>
<path d="M20.263 7.84175C20.263 5.16773 16.2021 3 11.1927 3C7.76593 3 4.78303 4.01435 3.24023 5.51125" stroke="black" stroke-width="1.5" stroke-linecap="round" stroke-linejoin="round"/>
</svg>