<svg width="24" height="25" viewBox="0 0 24 25" fill="none" xmlns="http://www.w3.org/2000/svg">
<path d="M7.26953 8.94835V6.3209C7.26953 4.68826 8.59305 3.36475 10.2257 3.36475C11.8583 3.36475 13.1818 4.68826 13.1818 6.3209V8.94835" stroke="black" stroke-width="1.5" stroke-linecap="round" stroke-linejoin="round"/>
<path d="M10.4102 7.01275V6.70505C10.4102 5.52098 11.0563 4.48783 12.0152 3.93896" stroke="black" stroke-width="1.5" stroke-linecap="round" stroke-linejoin="round"/>
<path d="M16.7792 7.02842V6.70523C16.7792 5.32374 15.8996 4.14769 14.6699 3.70654" stroke="black" stroke-width="1.5" stroke-linecap="round" stroke-linejoin="round"/>
<path d="M17.7034 7.0376H5.92344C5.13859 7.0376 4.48643 7.64262 4.42765 8.42527L3.53945 20.2524C3.4741 21.1226 4.16256 21.8647 5.03524 21.8647H18.965C19.8564 21.8647 20.5511 21.092 20.4565 20.2056L19.1949 8.37849C19.1136 7.61598 18.4702 7.0376 17.7034 7.0376Z" stroke="black" stroke-width="1.5" stroke-linecap="round" stroke-linejoin="round"/>
<path d="M12.3535 7.0376H14.4819C15.2668 7.0376 15.9189 7.64262 15.9777 8.42527L16.8659 20.2524C16.9313 21.1226 16.2428 21.8647 15.3701 21.8647H12.3535" stroke="black" stroke-width="1.5" stroke-linecap="round" stroke-linejoin="round"/>
<path d="M12.189 13.0508L8.26642 16.9731" stroke="black" stroke-width="1.5" stroke-linecap="round" stroke-linejoin="round"/>
<path d="M12.1829 16.959L12.1894 16.9656" stroke="black" stroke-width="1.5" stroke-linecap="round" stroke-linejoin="round"/>
<path d="M8.26044 13.0508H8.26641" stroke="black" stroke-width="1.5" stroke-linecap="round" stroke-linejoin="round"/>
</svg>