<svg width="25" height="25" viewBox="0 0 25 25" fill="none" xmlns="http://www.w3.org/2000/svg">
<path d="M9.90796 14.6691L14.383 10.1941" stroke="black" stroke-width="1.5" stroke-linecap="square" stroke-linejoin="round"/>
<path d="M14.3161 14.6067H14.3241" stroke="black" stroke-width="1.5" stroke-linecap="square" stroke-linejoin="round"/>
<path d="M9.96501 10.2542H9.97201" stroke="black" stroke-width="1.5" stroke-linecap="square" stroke-linejoin="round"/>
<path d="M5.13424 15.1934C4.66024 14.1624 3.93624 13.2444 3.00024 12.5344C5.01924 11.0044 6.05424 8.50342 5.70924 5.99442C8.21924 6.33942 10.7192 5.30342 12.2502 3.28442C13.7812 5.30342 16.2812 6.33942 18.7912 5.99442C18.6182 7.24942 18.7912 8.50142 19.2592 9.63142" stroke="black" stroke-width="1.5" stroke-linecap="square"/>
<path d="M21.4997 12.5349C19.4807 14.0659 18.4457 16.5659 18.7907 19.0759C16.2807 18.7309 13.7807 19.7659 12.2497 21.7849C10.7187 19.7659 8.21874 18.7309 5.70874 19.0759" stroke="black" stroke-width="1.5" stroke-linecap="square"/>
</svg>