<svg width="24" height="24" viewBox="0 0 24 24" fill="none" xmlns="http://www.w3.org/2000/svg">
<path d="M16.9468 4.79401C18.1958 4.79401 19.2088 5.80601 19.2088 7.05601V8.08301C19.2088 8.68001 19.4448 9.25301 19.8658 9.67701L20.5858 10.397C21.4718 11.278 21.4768 12.71 20.5958 13.596L20.5948 13.597L20.5858 13.606L19.8658 14.326C19.4448 14.749 19.2088 15.321 19.2088 15.918V16.947C19.2088 18.196 18.1968 19.208 16.9478 19.208" stroke="black" stroke-width="1.5" stroke-linecap="round" stroke-linejoin="round"/>
<path d="M14.3258 4.13701L13.6058 3.41701L13.5968 3.40901L13.5958 3.40801C12.7098 2.52701 11.2778 2.53101 10.3968 3.41701L9.67776 4.13701C9.25376 4.55701 8.68176 4.79401 8.08476 4.79401H7.05576C5.80676 4.79501 4.79476 5.80701 4.79476 7.05601V8.08101C4.79476 8.67901 4.55776 9.25101 4.13676 9.67501L3.41776 10.395L3.40876 10.404L3.40676 10.407C2.52676 11.293 2.53176 12.724 3.41776 13.604" stroke="black" stroke-width="1.5" stroke-linecap="round" stroke-linejoin="round"/>
<path d="M14.3239 19.866L13.6039 20.585C12.7239 21.471 11.2929 21.476 10.4069 20.597L10.4039 20.594L10.3949 20.585L9.67592 19.866C9.25292 19.445 8.67992 19.209 8.08292 19.208H7.05592C5.80692 19.208 4.79492 18.196 4.79492 16.947V15.916" stroke="black" stroke-width="1.5" stroke-linecap="round" stroke-linejoin="round"/>
<path d="M9.43164 14.5717L14.5716 9.4317" stroke="black" stroke-width="1.5" stroke-linecap="round" stroke-linejoin="round"/>
<path d="M14.4955 14.5H14.5045" stroke="black" stroke-width="2" stroke-linecap="round" stroke-linejoin="round"/>
<path d="M9.4955 9.5H9.5045" stroke="black" stroke-width="2" stroke-linecap="round" stroke-linejoin="round"/>
</svg>