<svg width="25" height="25" viewBox="0 0 25 25" fill="none" xmlns="http://www.w3.org/2000/svg">
<path fill-rule="evenodd" clip-rule="evenodd" d="M9.9081 15.7296L8.8471 14.6686L14.3831 9.13364L15.4431 10.1946L9.9081 15.7296ZM15.0741 15.3566H13.5741L13.5661 13.8566H15.0741V15.3566ZM10.7211 9.50364V11.0036H9.2211L9.2151 9.50364H10.7211ZM21.8021 12.1366C19.9301 10.7166 18.9671 8.38964 19.2861 6.06264L19.3761 5.40964L18.7221 5.49964C16.4021 5.81964 14.0681 4.85464 12.6481 2.98264L12.2501 2.45764L11.8511 2.98264C10.4311 4.85464 8.0981 5.82064 5.7771 5.49964L5.1241 5.40964L5.2141 6.06264C5.5331 8.38964 4.5691 10.7166 2.6981 12.1366L2.1731 12.5346L2.6981 12.9336C4.5691 14.3526 5.5331 16.6796 5.2141 19.0076L5.1241 19.6606L5.7771 19.5706C8.0971 19.2526 10.4311 20.2146 11.8511 22.0866L12.2501 22.6116L12.6481 22.0866C14.0681 20.2146 16.4031 19.2536 18.7221 19.5706L19.3761 19.6606L19.2861 19.0076C18.9671 16.6796 19.9301 14.3526 21.8021 12.9336L22.3271 12.5346L21.8021 12.1366Z" fill="black"/>
</svg>