<svg width="25" height="26" viewBox="0 0 25 26" fill="none" xmlns="http://www.w3.org/2000/svg">
<path fill-rule="evenodd" clip-rule="evenodd" d="M15.4435 10.6941L9.9082 16.2294L8.84754 15.1687L14.3828 9.63342L15.4435 10.6941Z" fill="black"/>
<path fill-rule="evenodd" clip-rule="evenodd" d="M13.5661 14.3562H15.074V15.8562H13.5661V14.3562Z" fill="black"/>
<path fill-rule="evenodd" clip-rule="evenodd" d="M9.21456 10.0036H10.7224V11.5036H9.21456V10.0036Z" fill="black"/>
<path fill-rule="evenodd" clip-rule="evenodd" d="M12.25 2.54337L12.8476 3.33153C14.2144 5.13412 16.4475 6.05907 18.6886 5.75093L19.6685 5.6162L19.5337 6.5961C19.2256 8.83721 20.1506 11.0702 21.9531 12.4371L22.7413 13.0347L21.9531 13.6323C20.1506 14.9991 19.2256 17.2321 19.5337 19.4733L19.6685 20.4532L18.6886 20.3184C16.4475 20.0103 14.2144 20.9352 12.8476 22.7378L12.25 23.526L11.6524 22.7378C10.2856 20.9352 8.05254 20.0103 5.81142 20.3184L4.83152 20.4532L4.96625 19.4733C5.27439 17.2321 4.34944 14.9991 2.54685 13.6323L1.75869 13.0347L2.54685 12.4371C4.34945 11.0702 5.27439 8.83721 4.96625 6.5961L4.83152 5.6162L5.81142 5.75093C8.05254 6.05907 10.2856 5.13412 11.6524 3.33153L12.25 2.54337ZM6.52345 7.30813C6.56285 9.46237 5.70257 11.5393 4.15143 13.0347C5.70257 14.5301 6.56286 16.607 6.52345 18.7612C8.67769 18.7218 10.7546 19.5821 12.25 21.1332C13.7454 19.5821 15.8223 18.7218 17.9766 18.7612C17.9371 16.607 18.7974 14.5301 20.3486 13.0347C18.7974 11.5393 17.9371 9.46237 17.9766 7.30812C15.8223 7.34753 13.7454 6.48725 12.25 4.93611C10.7546 6.48725 8.67769 7.34753 6.52345 7.30813Z" fill="black"/>
</svg>