<svg width="24" height="25" viewBox="0 0 24 25" fill="none" xmlns="http://www.w3.org/2000/svg">
<path fill-rule="evenodd" clip-rule="evenodd" d="M18.9511 6.09882C18.8228 6.02515 18.6682 6.12124 18.6683 6.26913L18.6748 12.2156C18.6749 12.3333 18.7776 12.4231 18.8932 12.4451C19.085 12.4816 19.2616 12.5909 19.376 12.7687C19.6 13.1177 19.497 13.5817 19.148 13.8047L13.469 17.4407C13.022 17.7257 12.512 17.8687 12 17.8687C11.488 17.8687 10.978 17.7257 10.531 17.4407L4.853 13.8047C4.504 13.5817 4.402 13.1177 4.625 12.7687C4.73866 12.591 4.91496 12.4822 5.10632 12.4455C5.2217 12.4234 5.324 12.3336 5.324 12.2161V6.26582C5.324 6.118 5.1694 6.02208 5.04127 6.0958C3.48396 6.99175 2.5 8.7489 2.5 10.8447V16.8927C2.5 18.4757 3.057 19.9017 4.068 20.9097C4.972 21.8107 6.145 22.2857 7.46 22.2857H16.532C17.851 22.2857 19.025 21.8097 19.931 20.9067C20.942 19.8977 21.5 18.4727 21.5 16.8927V10.8447C21.5 8.75152 20.5132 6.99616 18.9511 6.09882Z" fill="black"/>
<path fill-rule="evenodd" clip-rule="evenodd" d="M10.0391 11.7913C9.84711 11.7913 9.65511 11.7183 9.50911 11.5713C9.21611 11.2783 9.21611 10.8043 9.50911 10.5113L13.4321 6.58834C13.7251 6.29534 14.1991 6.29534 14.4921 6.58834C14.7851 6.88134 14.7851 7.35634 14.4921 7.64934L10.5691 11.5713C10.4231 11.7183 10.2311 11.7913 10.0391 11.7913ZM10.0321 6.36934H10.0391C10.4531 6.36934 10.7891 6.70534 10.7891 7.11934C10.7891 7.53334 10.4531 7.86934 10.0391 7.86934C9.62511 7.86934 9.28611 7.53334 9.28611 7.11934C9.28611 6.70534 9.61811 6.36934 10.0321 6.36934ZM14.4941 11.5633C14.3481 11.7103 14.1561 11.7833 13.9641 11.7833C13.7711 11.7833 13.5801 11.7103 13.4341 11.5633C13.1411 11.2703 13.1381 10.7923 13.4301 10.4993C13.7231 10.2063 14.1941 10.2043 14.4871 10.4963L14.4941 10.5033C14.7871 10.7963 14.7871 11.2703 14.4941 11.5633ZM12.6601 16.1773L17.0478 13.3684C17.1053 13.3316 17.1401 13.268 17.14 13.1997L17.1301 4.69334C17.1251 3.73034 16.3371 2.94434 15.3741 2.94434H8.61511C7.64711 2.94434 6.86011 3.73234 6.86011 4.70134V13.1989C6.86011 13.2671 6.89483 13.3306 6.95223 13.3673L11.3391 16.1773C11.7401 16.4333 12.2591 16.4333 12.6601 16.1773Z" fill="black"/>
</svg>