<svg width="24" height="25" viewBox="0 0 24 25" fill="none" xmlns="http://www.w3.org/2000/svg">
<path d="M18.4737 12.3223L13.0222 15.8123C12.3995 16.2112 11.6016 16.2112 10.9789 15.8123L5.52734 12.3223" stroke="black" stroke-width="1.5" stroke-linecap="round" stroke-linejoin="round"/>
<path d="M17.5412 12.6304L17.5324 6.03231C17.5236 4.7334 16.4728 3.67383 15.1652 3.67383H8.82818C7.52051 3.67383 6.46094 4.7334 6.46094 6.04107V7.6884" stroke="black" stroke-width="1.5" stroke-linecap="round" stroke-linejoin="round"/>
<path d="M6.46094 12.6304V10.1143" stroke="black" stroke-width="1.5" stroke-linecap="round" stroke-linejoin="round"/>
<path d="M17.5177 5.82812C19.6378 6.30099 21 8.26931 21 10.6161V16.6641C21 19.37 19.1932 21.566 16.5146 21.5572H11.9956" stroke="black" stroke-width="1.5" stroke-linecap="round" stroke-linejoin="round"/>
<path d="M14.0398 7.13867L10.1172 11.061" stroke="black" stroke-width="1.5" stroke-linecap="round" stroke-linejoin="round"/>
<path d="M14.0352 11.0469L14.0417 11.0535" stroke="black" stroke-width="1.5" stroke-linecap="round" stroke-linejoin="round"/>
<path d="M10.1113 7.13867H10.1173" stroke="black" stroke-width="1.5" stroke-linecap="round" stroke-linejoin="round"/>
<path d="M6.46378 5.82812C4.35341 6.30099 3 8.26931 3 10.6161V16.6641C3 19.37 4.79805 21.566 7.47665 21.5572H9.17486" stroke="black" stroke-width="1.5" stroke-linecap="round" stroke-linejoin="round"/>
</svg>