<?xml version="1.0" encoding="UTF-8"?>
<svg width="24px" height="24px" viewBox="0 0 24 24" version="1.1" xmlns="http://www.w3.org/2000/svg" xmlns:xlink="http://www.w3.org/1999/xlink">
    <title>Iconly/Light-Outline/Discovery</title>
    <g id="Iconly/Light-Outline/Discovery" stroke="none" stroke-width="1" fill="none" fill-rule="evenodd">
        <g id="Discovery" transform="translate(2.000000, 2.000000)" fill="#000000">
            <path d="M10.3608,-2.13162821e-14 C16.0738,-2.13162821e-14 20.7218,4.648 20.7218,10.361 C20.7218,16.074 16.0738,20.722 10.3608,20.722 C4.6478,20.722 -0.0002,16.074 -0.0002,10.361 C-0.0002,4.648 4.6478,-2.13162821e-14 10.3608,-2.13162821e-14 Z M10.3608,1.5 C5.4748,1.5 1.4998,5.476 1.4998,10.361 C1.4998,15.247 5.4748,19.222 10.3608,19.222 C15.2468,19.222 19.2218,15.247 19.2218,10.361 C19.2218,5.476 15.2468,1.5 10.3608,1.5 Z M14.2324,6.4899 C14.4294,6.6879 14.5014,6.9789 14.4174,7.2439 L12.8254,12.3329 C12.7524,12.5679 12.5674,12.7519 12.3334,12.8249 L7.2444,14.4179 C7.1704,14.4409 7.0944,14.4519 7.0204,14.4519 C6.8244,14.4519 6.6324,14.3749 6.4894,14.2329 C6.2924,14.0349 6.2204,13.7439 6.3044,13.4789 L7.8974,8.3899 C7.9704,8.1539 8.1544,7.9709 8.3884,7.8979 L13.4774,6.3049 C13.7444,6.2199 14.0344,6.2929 14.2324,6.4899 Z M12.5584,8.1639 L9.2114,9.2119 L8.1644,12.5589 L11.5104,11.5109 L12.5584,8.1639 Z" id="Combined-Shape"></path>
        </g>
    </g>
</svg>