<svg width="24" height="24" viewBox="0 0 24 24" fill="none" xmlns="http://www.w3.org/2000/svg">
<path fill-rule="evenodd" clip-rule="evenodd" d="M16.2169 3H7.78216C4.84281 3 3 5.08119 3 8.02638V15.9736C3 18.9188 4.83405 21 7.78216 21H16.2159C19.165 21 21 18.9188 21 15.9736V8.02638C21 5.08119 19.165 3 16.2169 3Z" stroke="black" stroke-width="1.5" stroke-linecap="round" stroke-linejoin="round"/>
<path d="M9.60742 14.4519L14.5047 9.55469" stroke="black" stroke-width="1.5" stroke-linecap="round" stroke-linejoin="round"/>
<path d="M14.3847 14.3732V14.4213M14.5796 14.3836C14.5796 14.4918 14.4918 14.5796 14.3835 14.5796C14.2752 14.5796 14.1875 14.4918 14.1875 14.3836C14.1875 14.2753 14.2752 14.1875 14.3835 14.1875C14.4918 14.1875 14.5796 14.2753 14.5796 14.3836Z" stroke="black" stroke-width="1.5" stroke-linecap="round" stroke-linejoin="round"/>
<path d="M9.62103 9.60759V9.65569M9.81596 9.61793C9.81596 9.7262 9.72811 9.81398 9.61983 9.81398C9.51156 9.81398 9.42383 9.7262 9.42383 9.61793C9.42383 9.50965 9.51156 9.42188 9.61983 9.42188C9.72811 9.42188 9.81596 9.50965 9.81596 9.61793Z" stroke="black" stroke-width="1.5" stroke-linecap="round" stroke-linejoin="round"/>
</svg>