<svg width="24" height="25" viewBox="0 0 24 25" fill="none" xmlns="http://www.w3.org/2000/svg">
<path fill-rule="evenodd" clip-rule="evenodd" d="M4.8957 11.918C5.11903 11.5691 5.58287 11.4674 5.93172 11.6907L11.3833 15.1808C11.7594 15.4217 12.2415 15.4218 12.6176 15.1809L18.0693 11.6907C18.4182 11.4674 18.882 11.5691 19.1054 11.918C19.3287 12.2668 19.2269 12.7307 18.8781 12.954L13.4267 16.4439C12.5575 17.0007 11.4437 17.0008 10.5745 16.4441L5.12297 12.954C4.77412 12.7307 4.67237 12.2668 4.8957 11.918Z" fill="black"/>
<path fill-rule="evenodd" clip-rule="evenodd" d="M8.82818 4.42383C7.93472 4.42383 7.21094 5.14761 7.21094 6.04107V12.6304C7.21094 13.0446 6.87515 13.3804 6.46094 13.3804C6.04672 13.3804 5.71094 13.0446 5.71094 12.6304V6.04107C5.71094 4.31918 7.10629 2.92383 8.82818 2.92383H15.1652C16.8898 2.92383 18.2709 4.32087 18.2824 6.02726L18.2824 6.03132L18.2912 12.6294C18.2917 13.0436 17.9564 13.3798 17.5421 13.3804C17.1279 13.3809 16.7917 13.0456 16.7912 12.6314L16.7824 6.03737C16.7824 6.03677 16.7824 6.03616 16.7824 6.03555C16.7754 5.14494 16.0552 4.42383 15.1652 4.42383H8.82818Z" fill="black"/>
<path fill-rule="evenodd" clip-rule="evenodd" d="M7.19564 5.6643C7.2862 6.06849 7.03196 6.46957 6.62777 6.56014C4.92721 6.94118 3.75 8.54658 3.75 10.6163V16.6643C3.75 19.0462 5.29649 20.8145 7.4742 20.8074L7.47665 20.8074L16.5146 20.8074L16.517 20.8074C18.6966 20.8145 20.25 19.0441 20.25 16.6643V10.6163C20.25 8.5498 19.0669 6.94224 17.3545 6.5603C16.9502 6.47013 16.6955 6.0693 16.7857 5.66502C16.8759 5.26074 17.2767 5.0061 17.681 5.09627C20.2088 5.66006 21.75 7.98915 21.75 10.6163V16.6643C21.75 19.6958 19.6903 22.3171 16.5133 22.3074C16.5129 22.3074 16.5125 22.3074 16.5121 22.3074L16.5146 21.5574V22.3074H16.5133H7.47789C7.4783 22.3074 7.4787 22.3074 7.4791 22.3074L7.47665 21.5574V22.3074H7.47789C4.2991 22.3171 2.25 19.6937 2.25 16.6643V10.6163C2.25 7.99238 3.7796 5.66113 6.2998 5.09643C6.70399 5.00587 7.10507 5.26011 7.19564 5.6643Z" fill="black"/>
<path fill-rule="evenodd" clip-rule="evenodd" d="M14.5702 6.60836C14.863 6.90126 14.863 7.37614 14.5701 7.66902L10.6475 11.5914C10.3546 11.8843 9.87972 11.8843 9.58684 11.5913C9.29396 11.2984 9.29397 10.8236 9.58688 10.5307L13.5095 6.60832C13.8024 6.31544 14.2773 6.31546 14.5702 6.60836Z" fill="black"/>
<path fill-rule="evenodd" clip-rule="evenodd" d="M13.5048 10.5165C13.7977 10.2237 14.2726 10.2237 14.5655 10.5165L14.5721 10.5231C14.865 10.816 14.865 11.2909 14.5721 11.5838C14.2792 11.8767 13.8043 11.8767 13.5114 11.5838L13.5048 11.5772C13.2119 11.2843 13.2119 10.8094 13.5048 10.5165Z" fill="black"/>
<path fill-rule="evenodd" clip-rule="evenodd" d="M9.36133 7.13867C9.36133 6.72446 9.69711 6.38867 10.1113 6.38867H10.1173C10.5315 6.38867 10.8673 6.72446 10.8673 7.13867C10.8673 7.55289 10.5315 7.88867 10.1173 7.88867H10.1113C9.69711 7.88867 9.36133 7.55289 9.36133 7.13867Z" fill="black"/>
</svg>