<svg width="24" height="24" viewBox="0 0 24 24" fill="none" xmlns="http://www.w3.org/2000/svg">
<path fill-rule="evenodd" clip-rule="evenodd" d="M14.384 15.328C13.863 15.328 13.438 14.904 13.438 14.382C13.438 13.86 13.863 13.436 14.384 13.436C14.905 13.436 15.33 13.86 15.33 14.382C15.33 14.904 14.905 15.328 14.384 15.328ZM9.608 15.2C9.415 15.2 9.224 15.127 9.077 14.98C8.784 14.687 8.784 14.213 9.077 13.92L13.975 9.023C14.268 8.73 14.742 8.73 15.035 9.023C15.328 9.316 15.328 9.79 15.035 10.083L10.138 14.98C9.991 15.127 9.8 15.2 9.608 15.2ZM9.62 8.672C10.142 8.672 10.567 9.096 10.567 9.618C10.567 10.14 10.142 10.564 9.62 10.564C9.099 10.564 8.674 10.14 8.674 9.618C8.674 9.096 9.099 8.672 9.62 8.672ZM16.217 2.5H7.782C4.623 2.5 2.5 4.721 2.5 8.026V15.974C2.5 19.279 4.623 21.5 7.782 21.5H16.216C19.376 21.5 21.5 19.279 21.5 15.974V8.026C21.5 4.721 19.377 2.5 16.217 2.5Z" fill="black"/>
</svg>