<svg width="24" height="24" viewBox="0 0 24 24" fill="none" xmlns="http://www.w3.org/2000/svg">
<path opacity="0.4" fill-rule="evenodd" clip-rule="evenodd" d="M16.217 2.5H7.782C4.623 2.5 2.5 4.721 2.5 8.026V15.974C2.5 19.279 4.623 21.5 7.782 21.5H16.216C19.376 21.5 21.5 19.279 21.5 15.974V8.026C21.5 4.721 19.377 2.5 16.217 2.5Z" fill="black"/>
<path d="M13.4378 14.3829C13.4378 14.9049 13.8628 15.3289 14.3838 15.3289C14.9048 15.3289 15.3298 14.9049 15.3298 14.3829C15.3298 13.8609 14.9048 13.4369 14.3838 13.4369C13.8628 13.4369 13.4378 13.8609 13.4378 14.3829Z" fill="black"/>
<path d="M9.07683 14.9809C9.22383 15.1279 9.41483 15.2009 9.60783 15.2009C9.79983 15.2009 9.99083 15.1279 10.1378 14.9809L15.0348 10.0839C15.3278 9.79085 15.3278 9.31685 15.0348 9.02385C14.7418 8.73085 14.2678 8.73085 13.9748 9.02385L9.07683 13.9209C8.78383 14.2139 8.78383 14.6879 9.07683 14.9809Z" fill="black"/>
<path d="M10.5668 9.61885C10.5668 9.09685 10.1418 8.67285 9.61983 8.67285C9.09883 8.67285 8.67383 9.09685 8.67383 9.61885C8.67383 10.1409 9.09883 10.5649 9.61983 10.5649C10.1418 10.5649 10.5668 10.1409 10.5668 9.61885Z" fill="black"/>
</svg>