<svg width="25" height="25" viewBox="0 0 25 25" fill="none" xmlns="http://www.w3.org/2000/svg">
<path opacity="0.4" fill-rule="evenodd" clip-rule="evenodd" d="M12.25 2.78467C5.052 2.78467 2.5 5.33667 2.5 12.5347C2.5 19.7327 5.052 22.2847 12.25 22.2847C19.449 22.2847 22 19.7327 22 12.5347C22 5.33667 19.449 2.78467 12.25 2.78467Z" fill="black"/>
<path d="M10.2094 15.6356L15.3504 10.4946C15.6434 10.2016 15.6434 9.72662 15.3504 9.43362C15.0574 9.14062 14.5824 9.14062 14.2894 9.43362L9.14944 14.5746C8.85644 14.8676 8.85644 15.3426 9.14944 15.6356C9.29544 15.7816 9.48744 15.8546 9.67944 15.8546C9.87144 15.8546 10.0634 15.7816 10.2094 15.6356Z" fill="black"/>
<path d="M13.9984 15.0346C13.9984 15.4486 14.3394 15.7846 14.7534 15.7846C15.1674 15.7846 15.5034 15.4486 15.5034 15.0346C15.5034 14.6206 15.1674 14.2846 14.7534 14.2846H14.7454C14.3304 14.2846 13.9984 14.6206 13.9984 15.0346Z" fill="black"/>
<path d="M9.75344 9.28462H9.74544C9.33044 9.28462 8.99844 9.62062 8.99844 10.0346C8.99844 10.4486 9.33944 10.7846 9.75344 10.7846C10.1674 10.7846 10.5034 10.4486 10.5034 10.0346C10.5034 9.62062 10.1674 9.28462 9.75344 9.28462Z" fill="black"/>
</svg>