<svg width="25" height="25" viewBox="0 0 25 25" fill="none" xmlns="http://www.w3.org/2000/svg">
<path fill-rule="evenodd" clip-rule="evenodd" d="M16.2265 8.49319L14.7933 15.0429L9.43821 16.2147L8.27417 16.5071L9.70746 9.957L15.0627 8.78517L16.2265 8.49319ZM10.2484 14.5019L13.5335 13.783L14.2523 10.498L10.9673 11.2168L10.2484 14.5019Z" fill="black"/>
<path fill-rule="evenodd" clip-rule="evenodd" d="M12.25 4C7.55558 4 3.75 7.80558 3.75 12.5C3.75 17.1944 7.55558 21 12.25 21C16.9444 21 20.75 17.1944 20.75 12.5C20.75 7.80558 16.9444 4 12.25 4ZM2.25 12.5C2.25 6.97715 6.72715 2.5 12.25 2.5C17.7728 2.5 22.25 6.97715 22.25 12.5C22.25 18.0228 17.7728 22.5 12.25 22.5C6.72715 22.5 2.25 18.0228 2.25 12.5Z" fill="black"/>
</svg>