<svg width="24" height="24" viewBox="0 0 24 24" fill="none" xmlns="http://www.w3.org/2000/svg">
<path fill-rule="evenodd" clip-rule="evenodd" d="M15.0814 12.873C14.5434 12.873 14.1064 12.436 14.1064 11.897C14.1044 11.643 14.2044 11.396 14.3884 11.211C14.5724 11.025 14.8184 10.923 15.0804 10.923C15.6184 10.923 16.0564 11.36 16.0564 11.897C16.0564 12.436 15.6194 12.873 15.0814 12.873ZM12.6524 15.166C12.6524 15.58 12.3164 15.916 11.9024 15.916C11.4884 15.916 11.1524 15.58 11.1524 15.166V8.62799C11.1524 8.21399 11.4884 7.87799 11.9024 7.87799C12.3164 7.87799 12.6524 8.21399 12.6524 8.62799V15.166ZM8.71941 12.873C8.18141 12.873 7.74441 12.436 7.74441 11.897C7.74241 11.643 7.84241 11.396 8.02641 11.211C8.21041 11.025 8.45641 10.923 8.71841 10.923C9.25641 10.923 9.69441 11.36 9.69441 11.897C9.69441 12.436 9.25641 12.873 8.71941 12.873ZM20.4424 10.242C18.4014 8.19699 16.3584 6.15399 14.3134 4.11199C13.2514 3.05299 11.9584 2.51499 10.4704 2.51399H10.1524C6.82041 2.49999 5.61841 2.52199 5.39141 2.56199C3.75741 2.84399 2.52241 4.30899 2.51941 5.96999L2.51441 6.62399C2.50341 7.90499 2.48341 10.289 2.55441 11.051C2.66741 12.279 3.17641 13.356 4.06541 14.252C6.12141 16.32 8.18541 18.378 10.2484 20.435C10.9524 21.139 11.8554 21.49 12.7584 21.49C13.6494 21.49 14.5394 21.146 15.2334 20.459C16.9854 18.724 18.7294 16.978 20.4654 15.227C21.8494 13.83 21.8394 11.641 20.4424 10.242Z" fill="black"/>
<path fill-rule="evenodd" clip-rule="evenodd" d="M15.0814 12.873C14.5434 12.873 14.1064 12.436 14.1064 11.897C14.1044 11.643 14.2044 11.396 14.3884 11.211C14.5724 11.025 14.8184 10.923 15.0804 10.923C15.6184 10.923 16.0564 11.36 16.0564 11.897C16.0564 12.436 15.6194 12.873 15.0814 12.873ZM12.6524 15.166C12.6524 15.58 12.3164 15.916 11.9024 15.916C11.4884 15.916 11.1524 15.58 11.1524 15.166V8.62799C11.1524 8.21399 11.4884 7.87799 11.9024 7.87799C12.3164 7.87799 12.6524 8.21399 12.6524 8.62799V15.166ZM8.71941 12.873C8.18141 12.873 7.74441 12.436 7.74441 11.897C7.74241 11.643 7.84241 11.396 8.02641 11.211C8.21041 11.025 8.45641 10.923 8.71841 10.923C9.25641 10.923 9.69441 11.36 9.69441 11.897C9.69441 12.436 9.25641 12.873 8.71941 12.873ZM20.4424 10.242C18.4014 8.19699 16.3584 6.15399 14.3134 4.11199C13.2514 3.05299 11.9584 2.51499 10.4704 2.51399H10.1524C6.82041 2.49999 5.61841 2.52199 5.39141 2.56199C3.75741 2.84399 2.52241 4.30899 2.51941 5.96999L2.51441 6.62399C2.50341 7.90499 2.48341 10.289 2.55441 11.051C2.66741 12.279 3.17641 13.356 4.06541 14.252C6.12141 16.32 8.18541 18.378 10.2484 20.435C10.9524 21.139 11.8554 21.49 12.7584 21.49C13.6494 21.49 14.5394 21.146 15.2334 20.459C16.9854 18.724 18.7294 16.978 20.4654 15.227C21.8494 13.83 21.8394 11.641 20.4424 10.242Z" fill="black"/>
</svg>