<svg width="25" height="25" viewBox="0 0 25 25" fill="none" xmlns="http://www.w3.org/2000/svg">
<path fill-rule="evenodd" clip-rule="evenodd" d="M15.351 10.4947L10.21 15.6357C10.064 15.7817 9.872 15.8547 9.68 15.8547C9.488 15.8547 9.296 15.7817 9.15 15.6357C8.857 15.3427 8.857 14.8677 9.15 14.5747L14.29 9.43367C14.583 9.14067 15.058 9.14067 15.351 9.43367C15.644 9.72667 15.644 10.2017 15.351 10.4947ZM14.754 15.7847C14.34 15.7847 13.999 15.4487 13.999 15.0347C13.999 14.6207 14.331 14.2847 14.746 14.2847H14.754C15.168 14.2847 15.504 14.6207 15.504 15.0347C15.504 15.4487 15.168 15.7847 14.754 15.7847ZM9.746 9.28467H9.754C10.168 9.28467 10.504 9.62067 10.504 10.0347C10.504 10.4487 10.168 10.7847 9.754 10.7847C9.34 10.7847 8.999 10.4487 8.999 10.0347C8.999 9.62067 9.331 9.28467 9.746 9.28467ZM12.25 2.78467C5.052 2.78467 2.5 5.33667 2.5 12.5347C2.5 19.7327 5.052 22.2847 12.25 22.2847C19.449 22.2847 22 19.7327 22 12.5347C22 5.33667 19.449 2.78467 12.25 2.78467Z" fill="black"/>
</svg>