<svg width="24" height="24" viewBox="0 0 24 24" fill="none" xmlns="http://www.w3.org/2000/svg">
<path fill-rule="evenodd" clip-rule="evenodd" d="M3.01582 5.96647C3.01874 4.5547 4.08608 3.28888 5.47158 3.0505C5.75568 3.00088 9.08808 3.00769 10.4668 3.00866C11.8309 3.00964 12.9936 3.50001 13.9568 4.4613C16.002 6.50257 18.0452 8.5458 20.0855 10.591C21.2929 11.8004 21.3095 13.6568 20.1069 14.8701C18.3721 16.6214 16.6285 18.364 14.8782 20.0988C13.6659 21.3004 11.8095 21.2848 10.5991 20.0774C8.53544 18.0195 6.47178 15.9617 4.41688 13.8951C3.62197 13.0954 3.15301 12.1292 3.0489 10.9996C2.96522 10.0967 3.01387 6.73998 3.01582 5.96647Z" stroke="black" stroke-width="1.5" stroke-linecap="round" stroke-linejoin="round"/>
<path d="M11.8986 15.1633V8.625" stroke="black" stroke-width="1.5" stroke-linecap="round" stroke-linejoin="round"/>
<path d="M8.72189 11.8725V11.821M8.71522 11.668C8.59122 11.668 8.49022 11.769 8.49122 11.893C8.49122 12.017 8.59222 12.118 8.71622 12.118C8.84022 12.118 8.94122 12.017 8.94122 11.893C8.94122 11.768 8.84022 11.668 8.71522 11.668Z" stroke="black" stroke-width="1.5" stroke-linecap="round" stroke-linejoin="round"/>
<path d="M15.0842 11.8725V11.821M15.0775 11.668C14.9535 11.668 14.8525 11.769 14.8535 11.893C14.8535 12.017 14.9545 12.118 15.0785 12.118C15.2025 12.118 15.3035 12.017 15.3035 11.893C15.3035 11.768 15.2025 11.668 15.0775 11.668Z" stroke="black" stroke-width="1.5" stroke-linecap="round" stroke-linejoin="round"/>
</svg>