<svg width="25" height="24" viewBox="0 0 25 24" fill="none" xmlns="http://www.w3.org/2000/svg">
<path d="M13.0102 21.7392C12.5103 21.7374 12.0156 21.6369 11.5546 21.4433C11.0937 21.2497 10.6755 20.9669 10.3242 20.6112C8.25757 18.5532 6.19624 16.4915 4.14024 14.4262C3.22926 13.5325 2.66779 12.3426 2.55724 11.0712C2.49024 10.3572 2.50122 8.39921 2.51622 6.62021L2.52123 5.96719C2.52995 5.09547 2.84212 4.25405 3.40404 3.58755C3.96596 2.92106 4.74253 2.47116 5.60024 2.31521C5.81524 2.27621 6.61922 2.2462 10.4002 2.2622H10.7182C11.4666 2.25355 12.2089 2.39724 12.9 2.68451C13.5911 2.97177 14.2165 3.3966 14.7382 3.93319C16.7836 5.97586 18.8266 8.01988 20.8672 10.0652C21.2224 10.4121 21.5051 10.8262 21.6989 11.2834C21.8926 11.7405 21.9935 12.2317 21.9957 12.7282C21.998 13.2247 21.9015 13.7167 21.7119 14.1756C21.5223 14.6345 21.2433 15.0511 20.8912 15.4012C19.1546 17.1532 17.4099 18.8979 15.6572 20.6352C14.9557 21.3389 14.0039 21.7359 13.0102 21.7392ZM9.49825 3.7612C8.11225 3.7612 6.11222 3.7662 5.83522 3.7962C5.33019 3.89759 4.87499 4.16853 4.54506 4.56411C4.21513 4.9597 4.0303 5.45616 4.02123 5.97119L4.01622 6.63321C4.00622 7.80221 3.98525 10.2332 4.05025 10.9332C4.12807 11.8576 4.538 12.7226 5.20424 13.3682C7.25824 15.4349 9.31789 17.4949 11.3832 19.5482C11.5906 19.7661 11.8397 19.94 12.1158 20.0594C12.3919 20.1788 12.6892 20.2413 12.99 20.2432C13.2908 20.245 13.5888 20.1862 13.8664 20.0702C14.1439 19.9543 14.3952 19.7835 14.6052 19.5682C16.3552 17.8349 18.0966 16.0935 19.8292 14.3442C20.0447 14.1343 20.2155 13.8831 20.3316 13.6057C20.4476 13.3282 20.5064 13.0302 20.5046 12.7295C20.5027 12.4287 20.4401 12.1314 20.3207 11.8554C20.2012 11.5794 20.0272 11.3304 19.8092 11.1232C17.7692 9.07786 15.7269 7.03452 13.6822 4.99319C13.2998 4.59539 12.8395 4.28069 12.3301 4.06872C11.8206 3.85675 11.273 3.75206 10.7212 3.7612H9.49825Z" fill="black"/>
<path d="M12.1553 15.9208C11.9564 15.9208 11.7656 15.8418 11.6249 15.7011C11.4843 15.5605 11.4053 15.3697 11.4053 15.1708V8.63281C11.4053 8.4339 11.4843 8.24313 11.6249 8.10248C11.7656 7.96183 11.9564 7.88281 12.1553 7.88281C12.3542 7.88281 12.545 7.96183 12.6856 8.10248C12.8263 8.24313 12.9053 8.4339 12.9053 8.63281V15.1708C12.9053 15.3697 12.8263 15.5605 12.6856 15.7011C12.545 15.8418 12.3542 15.9208 12.1553 15.9208Z" fill="black"/>
<path d="M8.97208 12.8719C8.71357 12.8716 8.46572 12.7688 8.28293 12.586C8.10014 12.4032 7.99734 12.1554 7.99707 11.8969C7.99681 11.7689 8.02181 11.642 8.07065 11.5237C8.11949 11.4053 8.19123 11.2978 8.28171 11.2072C8.37219 11.1166 8.47964 11.0448 8.59793 10.9959C8.71623 10.9469 8.84304 10.9217 8.97107 10.9219C9.22966 10.9219 9.47765 11.0246 9.66049 11.2075C9.84334 11.3903 9.94608 11.6383 9.94608 11.8969C9.94608 12.1555 9.84334 12.4035 9.66049 12.5863C9.47765 12.7692 9.22966 12.8719 8.97107 12.8719H8.97208Z" fill="black"/>
<path d="M15.3334 12.8719C15.0749 12.8716 14.827 12.7688 14.6443 12.586C14.4615 12.4032 14.3587 12.1554 14.3584 11.8969C14.3581 11.7689 14.3831 11.642 14.432 11.5237C14.4808 11.4053 14.5526 11.2978 14.643 11.2072C14.7335 11.1166 14.841 11.0448 14.9593 10.9959C15.0776 10.9469 15.2044 10.9217 15.3324 10.9219C15.591 10.9219 15.839 11.0246 16.0218 11.2075C16.2047 11.3903 16.3074 11.6383 16.3074 11.8969C16.3074 12.1555 16.2047 12.4035 16.0218 12.5863C15.839 12.7692 15.591 12.8719 15.3324 12.8719H15.3334Z" fill="black"/>
</svg>