<svg width="25" height="24" viewBox="0 0 25 24" fill="none" xmlns="http://www.w3.org/2000/svg">
<path opacity="0.4" fill-rule="evenodd" clip-rule="evenodd" d="M12.25 2.25C5.051 2.25 2.5 4.802 2.5 12C2.5 19.198 5.051 21.75 12.25 21.75C19.449 21.75 22 19.198 22 12C22 4.802 19.449 2.25 12.25 2.25Z" fill="black"/>
<path d="M14.4513 13.7558L15.8683 9.22783C15.9433 8.98883 15.8793 8.72683 15.7013 8.54883C15.5243 8.37083 15.2623 8.30483 15.0223 8.38183L10.4923 9.79883C10.2813 9.86483 10.1153 10.0298 10.0493 10.2418L8.63128 14.7718C8.55628 15.0118 8.62128 15.2738 8.79828 15.4508C8.92728 15.5798 9.10028 15.6488 9.27628 15.6488C9.34428 15.6488 9.41128 15.6388 9.47828 15.6178L14.0083 14.1998C14.2193 14.1338 14.3853 13.9678 14.4513 13.7558Z" fill="black"/>
</svg>