<svg width="24" height="24" viewBox="0 0 24 24" fill="none" xmlns="http://www.w3.org/2000/svg">
<path fill-rule="evenodd" clip-rule="evenodd" d="M12 14.08C10.853 14.08 9.91998 13.147 9.91998 12C9.91998 10.853 10.853 9.92003 12 9.92003C13.146 9.92003 14.08 10.853 14.08 12C14.08 13.147 13.146 14.08 12 14.08ZM12.001 7.70703C9.63398 7.70703 7.70898 9.63203 7.70898 11.999C7.70898 14.366 9.63398 16.291 12.001 16.291C14.368 16.291 16.293 14.366 16.293 11.999C16.293 9.63203 14.368 7.70703 12.001 7.70703Z" fill="black"/>
<path fill-rule="evenodd" clip-rule="evenodd" d="M12 11.4199C11.68 11.4199 11.42 11.6799 11.42 11.9999C11.42 12.3199 11.68 12.5799 12 12.5799C12.32 12.5799 12.58 12.3199 12.58 11.9999C12.58 11.6799 12.32 11.4199 12 11.4199Z" fill="black"/>
<path fill-rule="evenodd" clip-rule="evenodd" d="M12.001 17.791C8.807 17.791 6.209 15.193 6.209 11.999C6.209 8.805 8.807 6.207 12.001 6.207C15.195 6.207 17.793 8.805 17.793 11.999C17.793 15.193 15.195 17.791 12.001 17.791ZM16.217 2.25H7.782C4.473 2.25 2.25 4.571 2.25 8.026V15.974C2.25 19.429 4.473 21.75 7.782 21.75H16.216C19.526 21.75 21.75 19.429 21.75 15.974V8.026C21.75 4.571 19.526 2.25 16.217 2.25Z" fill="black"/>
</svg>