<svg width="24" height="24" viewBox="0 0 24 24" fill="none" xmlns="http://www.w3.org/2000/svg">
<path fill-rule="evenodd" clip-rule="evenodd" d="M9.94401 9.54688C8.25701 9.54688 6.88501 10.9189 6.88501 12.6059C6.88501 14.2929 8.25701 15.6649 9.94401 15.6649C11.631 15.6649 13.003 14.2929 13.003 12.6059C13.003 10.9189 11.631 9.54688 9.94401 9.54688Z" fill="black"/>
<path fill-rule="evenodd" clip-rule="evenodd" d="M16.838 8.88932C16.991 8.88932 17.115 8.76432 17.115 8.61132C17.115 8.45832 16.991 8.33432 16.838 8.33432C16.685 8.33432 16.561 8.45832 16.561 8.61132C16.561 8.76432 16.685 8.88932 16.838 8.88932Z" fill="black"/>
<path fill-rule="evenodd" clip-rule="evenodd" d="M17.587 10.218V14.973C17.587 15.172 17.508 15.363 17.367 15.504L15.925 16.947C15.779 17.093 15.587 17.166 15.395 17.166C15.203 17.166 15.011 17.093 14.865 16.947C14.572 16.654 14.572 16.179 14.865 15.886L16.087 14.663V10.217C15.483 9.932 15.061 9.322 15.061 8.611C15.061 7.631 15.858 6.834 16.838 6.834C17.818 6.834 18.615 7.631 18.615 8.611C18.615 9.323 18.192 9.934 17.587 10.218ZM9.944 17.165C7.43 17.165 5.385 15.12 5.385 12.606C5.385 10.093 7.43 8.047 9.944 8.047C12.458 8.047 14.503 10.093 14.503 12.606C14.503 15.12 12.458 17.165 9.944 17.165ZM16.217 2.25H7.782C4.473 2.25 2.25 4.572 2.25 8.026V15.974C2.25 19.429 4.473 21.75 7.782 21.75H16.216C19.526 21.75 21.75 19.429 21.75 15.974V8.026C21.75 4.572 19.526 2.25 16.217 2.25Z" fill="black"/>
</svg>