<svg width="25" height="24" viewBox="0 0 25 24" fill="none" xmlns="http://www.w3.org/2000/svg">
<path opacity="0.4" d="M8.28216 3H16.7169C19.665 3 21.5 5.08119 21.5 8.02638V15.9736C21.5 18.9188 19.665 21 16.7159 21H8.28216C5.33405 21 3.5 18.9188 3.5 15.9736V8.02638C3.5 5.08119 5.34281 3 8.28216 3Z" stroke="black" stroke-width="1.5" stroke-linecap="round" stroke-linejoin="round"/>
<path fill-rule="evenodd" clip-rule="evenodd" d="M18.3655 8.61144C18.3655 8.0442 17.9052 7.58398 17.338 7.58398C16.7708 7.58398 16.3105 8.0442 16.3105 8.61144C16.3105 9.17869 16.7708 9.6389 17.338 9.6389C17.9052 9.6389 18.3655 9.17869 18.3655 8.61144Z" stroke="black" stroke-width="1.5" stroke-linecap="round" stroke-linejoin="round"/>
<path d="M17.3372 9.64062L17.3375 14.9731L15.8945 16.416" stroke="black" stroke-width="1.5" stroke-linecap="round" stroke-linejoin="round"/>
<path fill-rule="evenodd" clip-rule="evenodd" d="M14.2531 12.6061C14.2531 10.5015 12.5475 8.79688 10.444 8.79688C8.34039 8.79688 6.63477 10.5015 6.63477 12.6061C6.63477 14.7096 8.34039 16.4153 10.444 16.4153C12.5475 16.4153 14.2531 14.7096 14.2531 12.6061Z" stroke="black" stroke-width="1.5" stroke-linecap="round" stroke-linejoin="round"/>
</svg>