<svg width="25" height="24" viewBox="0 0 25 24" fill="none" xmlns="http://www.w3.org/2000/svg">
<path opacity="0.4" d="M8.28216 3H16.7169C19.665 3 21.5 5.08119 21.5 8.02638V15.9736C21.5 18.9188 19.665 21 16.7159 21H8.28216C5.33405 21 3.5 18.9188 3.5 15.9736V8.02638C3.5 5.08119 5.34281 3 8.28216 3Z" stroke="black" stroke-width="1.5" stroke-linecap="round" stroke-linejoin="round"/>
<path d="M12.5009 6.95703C15.2856 6.95703 17.5429 9.21433 17.5429 11.999C17.5429 14.7836 15.2856 17.0409 12.5009 17.0409C9.71628 17.0409 7.45898 14.7836 7.45898 11.999C7.45898 9.21433 9.71628 6.95703 12.5009 6.95703Z" stroke="black" stroke-width="1.5" stroke-linecap="round" stroke-linejoin="round"/>
<path fill-rule="evenodd" clip-rule="evenodd" d="M13.83 12C13.83 11.2654 13.2346 10.6699 12.5 10.6699C11.7654 10.6699 11.1699 11.2654 11.1699 12C11.1699 12.7346 11.7654 13.33 12.5 13.33C13.2346 13.33 13.83 12.7346 13.83 12Z" stroke="black" stroke-width="1.5" stroke-linecap="round" stroke-linejoin="round"/>
</svg>