<svg width="25" height="24" viewBox="0 0 25 24" fill="none" xmlns="http://www.w3.org/2000/svg">
<path fill-rule="evenodd" clip-rule="evenodd" d="M3.9902 3.89737C4.97468 2.84117 6.37669 2.25 8.03216 2.25H16.4669C18.1262 2.25 19.5288 2.84084 20.5129 3.89765C21.4913 4.94841 22 6.39889 22 8.02638V15.9736C22 17.6011 21.4913 19.0516 20.5127 20.1024C19.5285 21.1592 18.1256 21.75 16.4659 21.75H8.03216C6.3728 21.75 4.97038 21.1591 3.98657 20.1023C3.00842 19.0515 2.5 17.601 2.5 15.9736V8.02638C2.5 6.39806 3.01117 4.94771 3.9902 3.89737ZM5.08745 4.92012C4.41024 5.64666 4 6.70951 4 8.02638V15.9736C4 17.2914 4.40861 18.3541 5.08451 19.0802C5.75475 19.8003 6.74341 20.25 8.03216 20.25H16.4659C17.7552 20.25 18.7444 19.8002 19.415 19.0801C20.0912 18.354 20.5 17.2913 20.5 15.9736V8.02638C20.5 6.70868 20.0912 5.64597 19.4151 4.91984C18.7446 4.19975 17.7556 3.75 16.4669 3.75H8.03216C6.74828 3.75 5.75921 4.19943 5.08745 4.92012Z" fill="black"/>
<path fill-rule="evenodd" clip-rule="evenodd" d="M5.93555 12.0008C5.93555 8.48569 8.78452 5.63672 12.2996 5.63672C13.4144 5.63672 14.4634 5.92349 15.3766 6.42921C15.7389 6.62989 15.87 7.08631 15.6693 7.44867C15.4687 7.81103 15.0122 7.94209 14.6499 7.74142C13.9537 7.35589 13.1541 7.13672 12.2996 7.13672C9.61295 7.13672 7.43555 9.31412 7.43555 12.0008C7.43555 14.6864 9.61287 16.8639 12.2996 16.8639C13.9724 16.8639 15.4483 16.0205 16.3244 14.7324C16.5574 14.3899 17.0239 14.3011 17.3664 14.534C17.7089 14.767 17.7977 15.2335 17.5647 15.576C16.421 17.2574 14.4895 18.3639 12.2996 18.3639C8.78461 18.3639 5.93555 15.515 5.93555 12.0008Z" fill="black"/>
<path fill-rule="evenodd" clip-rule="evenodd" d="M9.70508 11.6855C10.1193 11.6855 10.4551 12.0213 10.4551 12.4355C10.4551 13.1865 11.0636 13.795 11.8155 13.795C12.2297 13.795 12.5655 14.1307 12.5655 14.545C12.5655 14.9592 12.2297 15.295 11.8155 15.295C10.2361 15.295 8.95508 14.0158 8.95508 12.4355C8.95508 12.0213 9.29086 11.6855 9.70508 11.6855Z" fill="black"/>
<path fill-rule="evenodd" clip-rule="evenodd" d="M12.25 10.9141C12.6642 10.9141 13 11.2498 13 11.6641V11.6741C13 12.0883 12.6642 12.4241 12.25 12.4241C11.8358 12.4241 11.5 12.0883 11.5 11.6741V11.6641C11.5 11.2498 11.8358 10.9141 12.25 10.9141Z" fill="black"/>
<path fill-rule="evenodd" clip-rule="evenodd" d="M17.9164 2.47461C18.3306 2.47461 18.6664 2.8104 18.6664 3.22461V10.4956C18.6664 10.7723 18.514 11.0266 18.27 11.157L15.1565 12.8218C14.7912 13.0171 14.3368 12.8793 14.1415 12.514C13.9462 12.1488 14.084 11.6943 14.4492 11.499L17.1664 10.0462V3.22461C17.1664 2.8104 17.5022 2.47461 17.9164 2.47461Z" fill="black"/>
</svg>