<svg width="25" height="24" viewBox="0 0 25 24" fill="none" xmlns="http://www.w3.org/2000/svg">
<path opacity="0.4" d="M16.9975 3.97358C16.2869 3.81992 15.5474 3.80072 14.8175 3.92556C13.934 4.06961 13.0985 4.67462 12.3783 5.21241C11.6676 4.67462 10.8322 4.06001 9.94865 3.91596C9.06514 3.7623 8.16243 3.82953 7.30773 4.09842C4.01378 5.16439 2.84218 8.76564 3.85053 11.9155C4.24427 13.116 4.9357 14.2203 5.7808 15.1903" stroke="black" stroke-width="1.5" stroke-linecap="round" stroke-linejoin="round"/>
<path d="M19.954 5.80859C21.2697 7.43156 21.5962 9.77477 20.9144 11.9163C19.3586 16.9004 12.377 20.1656 12.377 20.1656C12.377 20.1656 10.3411 19.2149 8.21875 17.5439" stroke="black" stroke-width="1.5" stroke-linecap="round" stroke-linejoin="round"/>
<path d="M6.8418 18.9173L21.5003 4.25879" stroke="black" stroke-width="1.5" stroke-linecap="round" stroke-linejoin="round"/>
</svg>