<svg width="25" height="24" viewBox="0 0 25 24" fill="none" xmlns="http://www.w3.org/2000/svg">
<path fill-rule="evenodd" clip-rule="evenodd" d="M9.82383 3.1764C10.6982 3.32009 11.4989 3.82159 12.1318 4.27947C12.7703 3.82359 13.5709 3.32905 14.4443 3.18582C15.2691 3.04512 16.1043 3.06707 16.9064 3.24052C17.3113 3.32806 17.5685 3.72722 17.481 4.13208C17.3935 4.53694 16.9943 4.79418 16.5894 4.70664C15.9713 4.57298 15.3285 4.55636 14.6944 4.66483L14.6887 4.66581L14.6887 4.66579C14.0171 4.77529 13.3271 5.25366 12.5775 5.81337C12.3099 6.01316 11.9424 6.01198 11.6762 5.81046C10.9349 5.24948 10.2467 4.76514 9.57841 4.65618L9.57059 4.65491L9.57059 4.65487C8.81019 4.52262 8.02971 4.57951 7.28619 4.81293C4.50232 5.71573 3.394 8.8051 4.31445 11.6843C4.6703 12.7678 5.30212 13.7856 6.09672 14.6976C6.36883 15.0099 6.33624 15.4836 6.02394 15.7557C5.71164 16.0279 5.23788 15.9953 4.96578 15.683C4.07081 14.6558 3.32012 13.4657 2.88834 12.1493L2.88667 12.1442L2.88669 12.1442C1.79224 8.72536 3.0262 4.61494 6.82726 3.38486L6.83309 3.38297L6.8331 3.38299C7.79689 3.07978 8.81943 3.00235 9.82383 3.1764Z" fill="black"/>
<path fill-rule="evenodd" clip-rule="evenodd" d="M19.2318 5.22601C19.5535 4.96516 20.0258 5.01456 20.2867 5.33632C21.7854 7.18511 22.1247 9.79973 21.3797 12.1418C20.5282 14.8672 18.2322 17.0484 16.2592 18.5123C15.2585 19.2548 14.3099 19.8353 13.6115 20.2304C13.2618 20.4282 12.9735 20.5802 12.7711 20.6836C12.6699 20.7352 12.59 20.7748 12.5347 20.8018C12.507 20.8153 12.4854 20.8257 12.4703 20.8329L12.4525 20.8413L12.4474 20.8438L12.4457 20.8445C12.4455 20.8446 12.4448 20.845 12.127 20.1656C11.8097 20.8452 11.8096 20.8451 11.8095 20.8451L11.8067 20.8438L11.8008 20.841L11.7803 20.8313C11.7629 20.8229 11.7379 20.8109 11.7058 20.7952C11.6418 20.7639 11.5494 20.7179 11.4327 20.6579C11.1993 20.5378 10.8678 20.361 10.4691 20.1311C9.67297 19.6719 8.60161 18.9967 7.50483 18.1332C7.17938 17.8769 7.12327 17.4054 7.37951 17.0799C7.63574 16.7545 8.10729 16.6984 8.43274 16.9546C9.45829 17.7621 10.4661 18.3977 11.2185 18.8317C11.594 19.0483 11.9042 19.2136 12.1188 19.324C12.1215 19.3254 12.1243 19.3268 12.1269 19.3282C12.3104 19.2339 12.5656 19.0986 12.873 18.9248C13.5322 18.5519 14.4262 18.0045 15.3654 17.3077C17.2716 15.8934 19.2437 13.9507 19.9485 11.6929L19.9497 11.6888C20.5676 9.74835 20.2536 7.67752 19.1214 6.28091C18.8606 5.95915 18.91 5.48685 19.2318 5.22601ZM12.127 20.1656L11.8095 20.8451C12.0108 20.9391 12.2435 20.9391 12.4448 20.845L12.127 20.1656Z" fill="black"/>
<path fill-rule="evenodd" clip-rule="evenodd" d="M21.7807 3.72846C22.0736 4.02135 22.0736 4.49623 21.7807 4.78912L7.12213 19.4477C6.82923 19.7405 6.35436 19.7405 6.06147 19.4477C5.76857 19.1548 5.76857 18.6799 6.06147 18.387L20.72 3.72846C21.0129 3.43557 21.4878 3.43557 21.7807 3.72846Z" fill="black"/>
</svg>