<svg width="24" height="24" viewBox="0 0 24 24" fill="none" xmlns="http://www.w3.org/2000/svg">
<path d="M13.5 7.5C13.5 6.67114 12.828 6 12 6C11.172 6 10.5 6.67114 10.5 7.5C10.5 8.328 11.172 9 12 9C12.828 9 13.5 8.328 13.5 7.5Z" fill="black"/>
<path d="M13.5 16.5C13.5 15.6711 12.828 15 12 15C11.172 15 10.5 15.6711 10.5 16.5C10.5 17.328 11.172 18 12 18C12.828 18 13.5 17.328 13.5 16.5Z" fill="black"/>
<path opacity="0.4" d="M6.75 11C6.19772 11 5.75 11.4477 5.75 12C5.75 12.5523 6.19772 13 6.75 13H17.25C17.8023 13 18.25 12.5523 18.25 12C18.25 11.4477 17.8023 11 17.25 11H6.75Z" fill="black"/>
</svg>