<svg width="24" height="24" viewBox="0 0 24 24" fill="none" xmlns="http://www.w3.org/2000/svg">
<path d="M12.0083 15.3672V15.3772M12.0337 15.2656C12.0584 15.2657 12.0825 15.2731 12.103 15.2869C12.1235 15.3007 12.1394 15.3203 12.1488 15.3431C12.1582 15.366 12.1606 15.3911 12.1557 15.4153C12.1509 15.4395 12.1389 15.4618 12.1214 15.4792C12.1039 15.4966 12.0817 15.5085 12.0574 15.5133C12.0332 15.518 12.0081 15.5155 11.9853 15.5061C11.9624 15.4966 11.943 15.4806 11.9292 15.46C11.9155 15.4395 11.9082 15.4153 11.9082 15.3906C11.9081 15.3742 11.9113 15.3578 11.9176 15.3426C11.9239 15.3273 11.9331 15.3135 11.9448 15.3019C11.9565 15.2902 11.9703 15.281 11.9856 15.2748C12.0009 15.2686 12.0172 15.2655 12.0337 15.2656Z" stroke="black" stroke-width="1.5" stroke-linecap="round" stroke-linejoin="round"/>
<path d="M12.0083 8.58594V8.59594M12.0337 8.48438C12.0584 8.48448 12.0825 8.49189 12.103 8.50568C12.1235 8.51947 12.1394 8.53903 12.1488 8.56188C12.1582 8.58473 12.1606 8.60984 12.1557 8.63406C12.1509 8.65828 12.1389 8.6805 12.1214 8.69794C12.1039 8.71537 12.0817 8.72723 12.0574 8.73201C12.0332 8.7368 12.0081 8.73429 11.9853 8.72482C11.9624 8.71534 11.943 8.69932 11.9292 8.67878C11.9155 8.65823 11.9082 8.63408 11.9082 8.60938C11.9081 8.5929 11.9113 8.57657 11.9176 8.56133C11.9239 8.54609 11.9331 8.53225 11.9448 8.52062C11.9565 8.50899 11.9703 8.4998 11.9856 8.49358C12.0009 8.48736 12.0172 8.48423 12.0337 8.48438Z" stroke="black" stroke-width="1.5" stroke-linecap="round" stroke-linejoin="round"/>
<path d="M8.61523 12H15.3862" stroke="black" stroke-width="1.5" stroke-linecap="round" stroke-linejoin="round"/>
<path d="M11.999 21H7.78216C4.83405 21 3 18.9188 3 15.9736V8.02638C3 5.08119 4.84281 3 7.78216 3H16.2169C19.165 3 21 5.08119 21 8.02638V15.9736C21 18.9188 19.165 21 16.2159 21H15.3553" stroke="black" stroke-width="1.5" stroke-linecap="round" stroke-linejoin="round"/>
</svg>