<svg width="25" height="24" viewBox="0 0 25 24" fill="none" xmlns="http://www.w3.org/2000/svg">
<path opacity="0.4" d="M21.5 12C21.5 7.02908 17.4709 3 12.5 3C7.52908 3 3.5 7.02908 3.5 12C3.5 16.9699 7.52908 21 12.5 21C17.4709 21 21.5 16.9699 21.5 12Z" stroke="black" stroke-width="1.5" stroke-linecap="round" stroke-linejoin="round"/>
<path d="M9.11328 12H15.8852" stroke="black" stroke-width="1.5" stroke-linecap="round" stroke-linejoin="round"/>
<path d="M12.5083 8.59106V8.60107M12.5337 8.48951C12.5584 8.4896 12.5825 8.49701 12.603 8.51081C12.6235 8.5246 12.6394 8.54415 12.6488 8.567C12.6582 8.58985 12.6606 8.61497 12.6557 8.63919C12.6509 8.6634 12.6389 8.68563 12.6214 8.70306C12.6039 8.7205 12.5817 8.73235 12.5574 8.73714C12.5332 8.74192 12.5081 8.73942 12.4853 8.72995C12.4624 8.72047 12.443 8.70445 12.4292 8.6839C12.4155 8.66336 12.4082 8.63921 12.4082 8.61451C12.4081 8.59803 12.4113 8.58169 12.4176 8.56646C12.4239 8.55122 12.4331 8.53738 12.4448 8.52575C12.4565 8.51412 12.4703 8.50493 12.4856 8.4987C12.5009 8.49248 12.5172 8.48936 12.5337 8.48951Z" stroke="black" stroke-width="1.5" stroke-linecap="round" stroke-linejoin="round"/>
<path d="M12.5083 15.3616V15.3716M12.5337 15.26C12.5584 15.2601 12.5825 15.2675 12.603 15.2813C12.6235 15.2951 12.6394 15.3147 12.6488 15.3375C12.6582 15.3604 12.6606 15.3855 12.6557 15.4097C12.6509 15.4339 12.6389 15.4561 12.6214 15.4736C12.6039 15.491 12.5817 15.5029 12.5574 15.5076C12.5332 15.5124 12.5081 15.5099 12.4853 15.5005C12.4624 15.491 12.443 15.475 12.4292 15.4544C12.4155 15.4339 12.4082 15.4097 12.4082 15.385C12.4081 15.3685 12.4113 15.3522 12.4176 15.337C12.4239 15.3217 12.4331 15.3079 12.4448 15.2963C12.4565 15.2846 12.4703 15.2754 12.4856 15.2692C12.5009 15.263 12.5172 15.2599 12.5337 15.26Z" stroke="black" stroke-width="1.5" stroke-linecap="round" stroke-linejoin="round"/>
</svg>