<svg width="24" height="24" viewBox="0 0 24 24" fill="none" xmlns="http://www.w3.org/2000/svg">
<path fill-rule="evenodd" clip-rule="evenodd" d="M3.92361 4.06777C4.8562 3.06753 6.18961 2.5 7.78313 2.5H16.2178C17.8154 2.5 19.1489 3.06734 20.0804 4.06807C21.0082 5.06475 21.5 6.45059 21.5 8.02638V15.9736C21.5 17.5494 21.0082 18.9353 20.0803 19.932C19.1486 20.9327 17.8149 21.5 16.2169 21.5H7.78313C6.18556 21.5 4.85188 20.9327 3.9201 19.932C2.99207 18.9353 2.5 17.5495 2.5 15.9736V8.02638C2.5 6.44989 2.99463 5.06413 3.92361 4.06777ZM11.0009 8.6145C11.0009 8.06222 11.4487 7.6145 12.0009 7.6145H12.0525C12.6048 7.6145 13.0525 8.06222 13.0525 8.6145C13.0525 9.16679 12.6048 9.6145 12.0525 9.6145H12.0009C11.4487 9.6145 11.0009 9.16679 11.0009 8.6145ZM11.0009 15.3854C11.0009 14.8331 11.4487 14.3854 12.0009 14.3854H12.0525C12.6048 14.3854 13.0525 14.8331 13.0525 15.3854C13.0525 15.9377 12.6048 16.3854 12.0525 16.3854H12.0009C11.4487 16.3854 11.0009 15.9377 11.0009 15.3854ZM7.86456 12C7.86456 11.5858 8.20035 11.25 8.61456 11.25H15.3855C15.7997 11.25 16.1355 11.5858 16.1355 12C16.1355 12.4142 15.7997 12.75 15.3855 12.75H8.61456C8.20035 12.75 7.86456 12.4142 7.86456 12Z" fill="black"/>
</svg>