<svg width="24" height="24" viewBox="0 0 24 24" fill="none" xmlns="http://www.w3.org/2000/svg">
<path d="M8.61328 12H15.3852" stroke="black" stroke-width="1.5" stroke-linecap="round" stroke-linejoin="round"/>
<path d="M12.0083 8.58984V8.59984M12.0337 8.48829C12.0584 8.48838 12.0825 8.49579 12.103 8.50959C12.1235 8.52338 12.1394 8.54293 12.1488 8.56578C12.1582 8.58863 12.1606 8.61375 12.1557 8.63797C12.1509 8.66218 12.1389 8.68441 12.1214 8.70184C12.1039 8.71928 12.0817 8.73113 12.0574 8.73592C12.0332 8.7407 12.0081 8.7382 11.9853 8.72873C11.9624 8.71925 11.943 8.70323 11.9292 8.68268C11.9155 8.66214 11.9082 8.63799 11.9082 8.61329C11.9081 8.59681 11.9113 8.58047 11.9176 8.56524C11.9239 8.55 11.9331 8.53616 11.9448 8.52453C11.9565 8.5129 11.9703 8.50371 11.9856 8.49748C12.0009 8.49126 12.0172 8.48814 12.0337 8.48829Z" stroke="black" stroke-width="1.5" stroke-linecap="round" stroke-linejoin="round"/>
<path d="M12.0083 15.3633V15.3733M12.0337 15.2617C12.0584 15.2618 12.0825 15.2692 12.103 15.283C12.1235 15.2968 12.1394 15.3164 12.1488 15.3392C12.1582 15.3621 12.1606 15.3872 12.1557 15.4114C12.1509 15.4356 12.1389 15.4578 12.1214 15.4753C12.1039 15.4927 12.0817 15.5046 12.0574 15.5094C12.0332 15.5141 12.0081 15.5116 11.9853 15.5022C11.9624 15.4927 11.943 15.4767 11.9292 15.4561C11.9155 15.4356 11.9082 15.4114 11.9082 15.3867C11.9081 15.3702 11.9113 15.3539 11.9176 15.3387C11.9239 15.3234 11.9331 15.3096 11.9448 15.298C11.9565 15.2863 11.9703 15.2771 11.9856 15.2709C12.0009 15.2647 12.0172 15.2616 12.0337 15.2617Z" stroke="black" stroke-width="1.5" stroke-linecap="round" stroke-linejoin="round"/>
<path d="M12 21C7.02908 21 3 16.9709 3 12C3 7.03005 7.02908 3 12 3C16.9709 3 21 7.03005 21 12C21 15.3619 19.1571 18.293 16.4263 19.8383" stroke="black" stroke-width="1.5" stroke-linecap="round" stroke-linejoin="round"/>
</svg>