<svg width="24" height="24" viewBox="0 0 24 24" fill="none" xmlns="http://www.w3.org/2000/svg">
<g opacity="0.4">
<path fill-rule="evenodd" clip-rule="evenodd" d="M9.56643 18.2742C9.17543 17.8832 8.54243 17.8832 8.15243 18.2742C7.76143 18.6652 7.76143 19.2972 8.15243 19.6882L9.58243 21.1182C9.77743 21.3132 10.0334 21.4112 10.2894 21.4112C10.5454 21.4112 10.8014 21.3132 10.9964 21.1182C11.3874 20.7272 11.3874 20.0942 10.9964 19.7042L9.56643 18.2742Z" fill="black"/>
<path fill-rule="evenodd" clip-rule="evenodd" d="M4.29343 13.0037C3.90243 12.6127 3.27043 12.6127 2.87943 13.0037C2.48843 13.3947 2.48843 14.0267 2.87943 14.4177L5.76843 17.3077C5.96343 17.5027 6.21943 17.6007 6.47543 17.6007C6.73143 17.6007 6.98743 17.5027 7.18243 17.3077C7.57343 16.9167 7.57343 16.2837 7.18243 15.8937L4.29343 13.0037Z" fill="black"/>
<path fill-rule="evenodd" clip-rule="evenodd" d="M14.434 5.72732C14.629 5.92232 14.885 6.02032 15.141 6.02032C15.397 6.02032 15.653 5.92232 15.848 5.72732C16.239 5.33632 16.239 4.70432 15.848 4.31332L14.418 2.88332C14.028 2.49332 13.395 2.49332 13.004 2.88332C12.614 3.27432 12.614 3.90732 13.004 4.29732L14.434 5.72732Z" fill="black"/>
<path fill-rule="evenodd" clip-rule="evenodd" d="M21.1215 9.58372L18.2325 6.69372C17.8425 6.30372 17.2095 6.30372 16.8185 6.69372C16.4285 7.08472 16.4285 7.71772 16.8185 8.10772L19.7075 10.9977C19.9025 11.1927 20.1585 11.2907 20.4145 11.2907C20.6705 11.2907 20.9265 11.1927 21.1215 10.9977C21.5125 10.6067 21.5125 9.97472 21.1215 9.58372Z" fill="black"/>
<path fill-rule="evenodd" clip-rule="evenodd" d="M12.8593 5.82402C12.4683 5.43302 11.8363 5.43302 11.4453 5.82402C11.0543 6.21502 11.0543 6.84702 11.4453 7.23802L16.7663 12.557C16.9613 12.753 17.2173 12.85 17.4733 12.85C17.7293 12.85 17.9843 12.753 18.1803 12.557C18.5703 12.167 18.5703 11.534 18.1803 11.143L12.8593 5.82402Z" fill="black"/>
<path fill-rule="evenodd" clip-rule="evenodd" d="M7.23483 11.4441C6.84383 11.0531 6.21083 11.0531 5.82083 11.4441C5.42983 11.8341 5.42983 12.4671 5.81983 12.8581L11.1038 18.1471C11.2988 18.3421 11.5558 18.4401 11.8118 18.4401C12.0678 18.4401 12.3228 18.3421 12.5178 18.1471C12.9088 17.7571 12.9088 17.1241 12.5188 16.7331L7.23483 11.4441Z" fill="black"/>
</g>
<path fill-rule="evenodd" clip-rule="evenodd" d="M21.7071 9.04325C21.3161 8.65225 20.6841 8.65225 20.2931 9.04325C18.0411 11.2943 15.6461 11.3032 12.9231 11.0772C12.6961 8.35525 12.7031 5.95925 14.9571 3.70725C15.3481 3.31725 15.3481 2.68425 14.9571 2.29325C14.5661 1.90225 13.9341 1.90225 13.5431 2.29325C10.7921 5.04125 10.6941 8.09325 10.9031 10.9032C8.09413 10.6962 5.04413 10.7933 2.29313 13.5433C1.90213 13.9333 1.90213 14.5662 2.29213 14.9572C2.48813 15.1522 2.74413 15.2502 3.00013 15.2502C3.25613 15.2502 3.51213 15.1522 3.70713 14.9572C5.96013 12.7062 8.35613 12.6973 11.0771 12.9233C11.3041 15.6453 11.2971 18.0412 9.04313 20.2932C8.65213 20.6832 8.65213 21.3162 9.04213 21.7073C9.23813 21.9023 9.49413 22.0002 9.75013 22.0002C10.0061 22.0002 10.2621 21.9023 10.4571 21.7073C13.2081 18.9593 13.3051 15.9072 13.0971 13.0972C15.9071 13.3042 18.9561 13.2062 21.7071 10.4572C22.0981 10.0672 22.0981 9.43425 21.7071 9.04325Z" fill="black"/>
</svg>