<svg width="24" height="24" viewBox="0 0 24 24" fill="none" xmlns="http://www.w3.org/2000/svg">
<path fill-rule="evenodd" clip-rule="evenodd" d="M12.9235 11.0765C12.8535 10.2325 12.8045 9.4185 12.8395 8.6315L15.3685 11.1595C14.5815 11.1945 13.7675 11.1465 12.9235 11.0765ZM8.6305 12.8395C9.4175 12.8045 10.2325 12.8525 11.0775 12.9235C11.1475 13.7695 11.1965 14.5845 11.1605 15.3735L8.6305 12.8395ZM21.7075 10.4565C22.0975 10.0675 22.0975 9.4335 21.7075 9.0425C21.3675 8.7035 20.8535 8.6775 20.4665 8.9275L18.2325 6.6935C17.8425 6.3025 17.2095 6.3025 16.8185 6.6935C16.4285 7.0835 16.4285 7.7165 16.8185 8.1075L18.8785 10.1675C18.5065 10.3945 18.1295 10.5685 17.7475 10.7095L13.2895 6.2525C13.4295 5.8715 13.6045 5.4945 13.8305 5.1225L14.4335 5.7265C14.6295 5.9215 14.8855 6.0195 15.1405 6.0195C15.3965 6.0195 15.6525 5.9215 15.8475 5.7265C16.2385 5.3355 16.2385 4.7025 15.8475 4.3125L15.0715 3.5355C15.3235 3.1485 15.2975 2.6325 14.9575 2.2925C14.5665 1.9025 13.9335 1.9025 13.5435 2.2925C12.3025 3.5325 11.6065 4.8335 11.2305 6.1465C11.2245 6.1605 11.2235 6.1755 11.2185 6.1905C10.7725 7.7745 10.7895 9.3745 10.9035 10.9035C9.3895 10.7915 7.8065 10.7745 6.2375 11.2065C6.2025 11.2175 6.1675 11.2205 6.1335 11.2345C4.8265 11.6125 3.5295 12.3075 2.2935 13.5425C1.9025 13.9325 1.9025 14.5665 2.2925 14.9565C2.4885 15.1525 2.7445 15.2495 3.0005 15.2495C3.1895 15.2495 3.3695 15.1785 3.5345 15.0715L5.7685 17.3065C5.9635 17.5015 6.2195 17.5995 6.4755 17.5995C6.7315 17.5995 6.9875 17.5015 7.1825 17.3065C7.5735 16.9155 7.5735 16.2835 7.1825 15.8925L5.1225 13.8315C5.4935 13.6055 5.8705 13.4315 6.2525 13.2905L10.7095 17.7515C10.5695 18.1315 10.3955 18.5075 10.1705 18.8775L9.5665 18.2735C9.1755 17.8825 8.5415 17.8825 8.1525 18.2735C7.7615 18.6635 7.7615 19.2965 8.1525 19.6875L8.9295 20.4645C8.6775 20.8515 8.7035 21.3665 9.0425 21.7065C9.2385 21.9025 9.4945 21.9995 9.7505 21.9995C10.0065 21.9995 10.2625 21.9025 10.4575 21.7065C13.2085 18.9585 13.3055 15.9065 13.0975 13.0965C14.6105 13.2075 16.1925 13.2255 17.7615 12.7935C17.7965 12.7825 17.8325 12.7795 17.8665 12.7645C19.1745 12.3875 20.4715 11.6925 21.7075 10.4565Z" fill="black"/>
</svg>