<svg width="25" height="24" viewBox="0 0 25 24" fill="none" xmlns="http://www.w3.org/2000/svg">
<path fill-rule="evenodd" clip-rule="evenodd" d="M8.57807 18.454C8.87096 18.1612 9.34584 18.1612 9.63873 18.454L11.069 19.8843C11.3619 20.1772 11.3619 20.6521 11.069 20.945C10.7761 21.2379 10.3012 21.2379 10.0083 20.945L8.57807 19.5147C8.28518 19.2218 8.28518 18.7469 8.57807 18.454Z" fill="black"/>
<path fill-rule="evenodd" clip-rule="evenodd" d="M3.30561 13.1806C3.5985 12.8877 4.07337 12.8877 4.36627 13.1806L7.25502 16.0694C7.54792 16.3623 7.54792 16.8371 7.25502 17.13C6.96213 17.4229 6.48726 17.4229 6.19436 17.13L3.30561 14.2413C3.01271 13.9484 3.01271 13.4735 3.30561 13.1806Z" fill="black"/>
<path fill-rule="evenodd" clip-rule="evenodd" d="M13.4306 3.05561C13.7235 2.76271 14.1984 2.76271 14.4913 3.05561L15.9215 4.48588C16.2144 4.77877 16.2144 5.25364 15.9215 5.54654C15.6286 5.83943 15.1538 5.83943 14.8609 5.54654L13.4306 4.11627C13.1377 3.82337 13.1377 3.3485 13.4306 3.05561Z" fill="black"/>
<path fill-rule="evenodd" clip-rule="evenodd" d="M17.2451 6.86811C17.538 6.57521 18.0128 6.57521 18.3057 6.86811L21.1945 9.75686C21.4874 10.0498 21.4874 10.5246 21.1945 10.8175C20.9016 11.1104 20.4267 11.1104 20.1338 10.8175L17.2451 7.92877C16.9522 7.63587 16.9522 7.161 17.2451 6.86811Z" fill="black"/>
<path fill-rule="evenodd" clip-rule="evenodd" d="M11.872 5.99701C12.1649 5.70412 12.6398 5.70412 12.9327 5.99701L18.2529 11.3172C18.5458 11.6101 18.5458 12.085 18.2529 12.3779C17.96 12.6708 17.4851 12.6708 17.1922 12.3779L11.872 7.05767C11.5791 6.76478 11.5791 6.28991 11.872 5.99701Z" fill="black"/>
<path fill-rule="evenodd" clip-rule="evenodd" d="M6.24701 11.622C6.53991 11.3291 7.01478 11.3291 7.30767 11.622L12.5909 16.9053C12.8838 17.1982 12.8838 17.673 12.5909 17.9659C12.298 18.2588 11.8232 18.2588 11.5303 17.9659L6.24701 12.6827C5.95412 12.3898 5.95412 11.9149 6.24701 11.622Z" fill="black"/>
<path fill-rule="evenodd" clip-rule="evenodd" d="M15.0303 2.46967C15.3232 2.76256 15.3232 3.23744 15.0303 3.53033C12.491 6.06968 12.7137 8.8161 12.9969 11.9321L13.0035 12.0046C13.2812 15.0578 13.5915 18.4692 10.5303 21.5303C10.2374 21.8232 9.76256 21.8232 9.46967 21.5303C9.17678 21.2374 9.17678 20.7626 9.46967 20.4697C12.009 17.9303 11.7863 15.1839 11.5031 12.0679L11.4965 11.9954C11.2188 8.94225 10.9085 5.53084 13.9697 2.46967C14.2626 2.17678 14.7374 2.17678 15.0303 2.46967Z" fill="black"/>
<path fill-rule="evenodd" clip-rule="evenodd" d="M21.7803 9.21967C22.0732 9.51256 22.0732 9.98744 21.7803 10.2803C18.7192 13.3415 15.3078 13.0312 12.2546 12.7535L12.1821 12.7469C9.0661 12.4637 6.31968 12.241 3.78033 14.7803C3.48744 15.0732 3.01256 15.0732 2.71967 14.7803C2.42678 14.4874 2.42678 14.0126 2.71967 13.7197C5.78084 10.6585 9.19225 10.9688 12.2454 11.2465L12.3179 11.2531C15.4339 11.5363 18.1803 11.759 20.7197 9.21967C21.0126 8.92678 21.4874 8.92678 21.7803 9.21967Z" fill="black"/>
</svg>