<svg width="25" height="24" viewBox="0 0 25 24" fill="none" xmlns="http://www.w3.org/2000/svg">
<path d="M18.6683 18.5C19.8899 16.6802 20.4527 13.8731 19.6374 11.6721C18.6864 9.10538 15.2811 9.22671 12.9294 9.00213L12.8626 4.65463C12.8485 3.73672 12.1004 3 11.1824 3C10.2543 3 9.50195 3.75236 9.50195 4.68044V8.5" stroke="black" stroke-width="1.5" stroke-linecap="round" stroke-linejoin="round"/>
<path d="M5 4.08984L20.6706 20.6128" stroke="black" stroke-width="1.5" stroke-linecap="round" stroke-linejoin="round"/>
<path opacity="0.4" d="M9.50137 14.3202L8.29917 12.576C7.81774 11.8775 6.92066 11.5995 6.1286 11.9033C5.23383 12.2465 4.75481 13.2182 5.08125 14.1192C5.68991 15.7992 6.65551 17.6742 7.89785 19.2191C9.50456 21.2171 13.8203 21.4658 16.4991 20.3079" stroke="black" stroke-width="1.5" stroke-linecap="round" stroke-linejoin="round"/>
</svg>