<svg width="24" height="24" viewBox="0 0 24 24" fill="none" xmlns="http://www.w3.org/2000/svg">
<path fill-rule="evenodd" clip-rule="evenodd" d="M16.4002 8.30054C16.6247 7.96622 17.0732 7.86892 17.4161 8.08012C18.0907 8.49559 18.7814 9.11281 19.125 9.96621C19.9305 9.95126 20.6897 10.1676 21.4046 10.6258C21.7246 10.8308 21.8407 11.2427 21.6748 11.5846C21.3448 12.2648 20.9087 12.8328 20.3039 13.2202C19.8283 13.5249 19.2897 13.6914 18.6934 13.7432C17.4622 16.4359 15.1238 19.0429 12.1407 19.7913L12.1386 19.7918C9.8776 20.352 6.77737 20.5441 4.59767 18.8601C3.6511 18.14 3.01108 16.9711 2.64524 15.7933C2.27641 14.6058 2.15113 13.2984 2.3315 12.2098C2.39145 11.8481 2.70421 11.5827 3.07092 11.5824C4.71476 11.5814 6.35752 11.5818 7.99987 11.5823C10.4897 11.583 12.9787 11.5836 15.469 11.579C15.5274 11.5761 15.5853 11.5712 15.6425 11.5642C15.3332 10.3605 15.8333 9.14464 16.4002 8.30054ZM17.2597 9.84317C16.9873 10.4958 16.9668 11.1246 17.2886 11.6306C17.402 11.8089 17.435 12.0268 17.3793 12.2306C17.3237 12.4345 17.1846 12.6054 16.9964 12.7013C16.5268 12.9407 16.0157 13.0571 15.5186 13.0782C15.5084 13.0787 15.4983 13.0789 15.4881 13.0789C12.9915 13.0836 10.4935 13.083 7.99637 13.0823C6.58133 13.0819 5.1666 13.0815 3.75261 13.0821C3.73145 13.7814 3.83989 14.5826 4.07773 15.3483C4.39324 16.3641 4.90151 17.2074 5.50753 17.6676L5.51286 17.6716L5.51285 17.6717C7.12278 18.917 9.6215 18.87 11.7769 18.3361C14.3006 17.7024 16.4383 15.312 17.5 12.7257C17.6172 12.4402 17.8974 12.2556 18.2059 12.2606C18.787 12.27 19.1903 12.1522 19.4948 11.9572C19.6454 11.8607 19.7881 11.7349 19.9236 11.5719C19.5392 11.4539 19.1375 11.4349 18.698 11.5101C18.499 11.5442 18.2947 11.4966 18.1312 11.3781C17.9678 11.2596 17.859 11.0803 17.8295 10.8806C17.7733 10.5004 17.5721 10.1524 17.2597 9.84317Z" fill="black"/>
<path fill-rule="evenodd" clip-rule="evenodd" d="M9.00401 16.4725C9.31693 16.7439 9.35059 17.2176 9.0792 17.5305C8.44099 18.2663 7.63213 18.6696 6.89724 18.8678C6.17373 19.0628 5.46761 19.0739 4.97884 18.9699C4.57369 18.8837 4.31514 18.4854 4.40134 18.0803C4.48754 17.6751 4.88585 17.4166 5.291 17.5028C5.51587 17.5506 5.9794 17.5617 6.50673 17.4195C7.02268 17.2804 7.54584 17.0091 7.94601 16.5477C8.21741 16.2348 8.69109 16.2011 9.00401 16.4725Z" fill="black"/>
<path fill-rule="evenodd" clip-rule="evenodd" d="M6.40717 6.68842C6.54782 6.54777 6.73859 6.46875 6.9375 6.46875L11.9681 6.46875C12.3823 6.46875 12.7181 6.80454 12.7181 7.21875C12.7181 7.63296 12.3823 7.96875 11.9681 7.96875L7.6875 7.96875L7.6875 11.9971C7.6875 12.4113 7.35171 12.7471 6.9375 12.7471C6.52329 12.7471 6.1875 12.4113 6.1875 11.9971L6.1875 7.21875C6.1875 7.01984 6.26652 6.82907 6.40717 6.68842Z" fill="black"/>
<path fill-rule="evenodd" clip-rule="evenodd" d="M3.8769 9.23529C4.01755 9.09464 4.20831 9.01562 4.40723 9.01562H14.5312C14.9455 9.01562 15.2812 9.35141 15.2812 9.76562V11.9961C15.2812 12.4103 14.9455 12.7461 14.5312 12.7461C14.117 12.7461 13.7812 12.4103 13.7812 11.9961V10.5156H5.15723L5.15723 11.9961C5.15723 12.4103 4.82144 12.7461 4.40723 12.7461C3.99301 12.7461 3.65723 12.4103 3.65723 11.9961L3.65723 9.76562C3.65723 9.56671 3.73624 9.37595 3.8769 9.23529Z" fill="black"/>
<path fill-rule="evenodd" clip-rule="evenodd" d="M8.71875 4.55859C8.71875 4.14438 9.05454 3.80859 9.46875 3.80859H11.9995C12.4137 3.80859 12.7495 4.14438 12.7495 4.55859V11.998C12.7495 12.4123 12.4137 12.748 11.9995 12.748C11.5853 12.748 11.2495 12.4123 11.2495 11.998V5.30859H10.2188V11.998C10.2188 12.4123 9.88296 12.748 9.46875 12.748C9.05454 12.748 8.71875 12.4123 8.71875 11.998V4.55859Z" fill="black"/>
<path fill-rule="evenodd" clip-rule="evenodd" d="M9.25098 15.0469C9.25098 14.6327 9.58676 14.2969 10.001 14.2969H10.011C10.4252 14.2969 10.761 14.6327 10.761 15.0469C10.761 15.4611 10.4252 15.7969 10.011 15.7969H10.001C9.58676 15.7969 9.25098 15.4611 9.25098 15.0469Z" fill="black"/>
</svg>