<svg width="24" height="24" viewBox="0 0 24 24" fill="none" xmlns="http://www.w3.org/2000/svg">
<path fill-rule="evenodd" clip-rule="evenodd" d="M12 7.75C8.54822 7.75 5.75 10.5482 5.75 14C5.75 17.4518 8.54822 20.25 12 20.25C15.4518 20.25 18.25 17.4518 18.25 14C18.25 10.5482 15.4518 7.75 12 7.75ZM4.25 14C4.25 9.71979 7.71979 6.25 12 6.25C16.2802 6.25 19.75 9.71979 19.75 14C19.75 18.2802 16.2802 21.75 12 21.75C7.71979 21.75 4.25 18.2802 4.25 14Z" fill="black"/>
<path fill-rule="evenodd" clip-rule="evenodd" d="M8.25 14C8.25 13.5858 8.58579 13.25 9 13.25H15C15.4142 13.25 15.75 13.5858 15.75 14C15.75 14.4142 15.4142 14.75 15 14.75H9C8.58579 14.75 8.25 14.4142 8.25 14Z" fill="black"/>
<path fill-rule="evenodd" clip-rule="evenodd" d="M11.4697 10.4697C11.7626 10.1768 12.2374 10.1768 12.5303 10.4697L15.5303 13.4697C15.8232 13.7626 15.8232 14.2374 15.5303 14.5303L12.5303 17.5303C12.2374 17.8232 11.7626 17.8232 11.4697 17.5303C11.1768 17.2374 11.1768 16.7626 11.4697 16.4697L13.9393 14L11.4697 11.5303C11.1768 11.2374 11.1768 10.7626 11.4697 10.4697Z" fill="black"/>
<path fill-rule="evenodd" clip-rule="evenodd" d="M9.43406 2.50788C9.70586 2.19531 10.1796 2.16226 10.4921 2.43406L17.3921 8.43406C17.7047 8.70586 17.7378 9.17958 17.466 9.49215C17.1942 9.80471 16.7204 9.83776 16.4079 9.56597L9.50788 3.56597C9.19531 3.29417 9.16226 2.82045 9.43406 2.50788Z" fill="black"/>
</svg>