<svg width="24" height="24" viewBox="0 0 24 24" fill="none" xmlns="http://www.w3.org/2000/svg">
<path fill-rule="evenodd" clip-rule="evenodd" d="M20.489 11.4068H19.982V9.18978C19.982 8.95478 19.796 8.76778 19.564 8.76778H16.709C15.008 8.75778 13.604 7.34978 13.604 5.63078V2.60778C13.604 2.37278 13.418 2.17578 13.177 2.17578H8.212C5.897 2.17578 4.019 4.08178 4.019 6.41078V11.4068H3.512C3.113 11.4068 2.789 11.7298 2.789 12.1288C2.789 12.5278 3.113 12.8518 3.512 12.8518H20.489C20.888 12.8518 21.211 12.5278 21.211 12.1288C21.211 11.7298 20.888 11.4068 20.489 11.4068Z" fill="black"/>
<path fill-rule="evenodd" clip-rule="evenodd" d="M16.8331 7.39569C17.4811 7.40269 18.3821 7.40469 19.1461 7.40269C19.5381 7.40169 19.7371 6.92869 19.4651 6.64469C18.9751 6.12969 18.2921 5.41169 17.6051 4.69069C16.9171 3.96769 16.2251 3.24169 15.7221 2.71269C15.4441 2.42069 14.9581 2.62169 14.9581 3.02669V5.50169C14.9581 6.54069 15.8051 7.39569 16.8331 7.39569Z" fill="black"/>
<g opacity="0.4">
<path fill-rule="evenodd" clip-rule="evenodd" d="M10.0081 14.1367C9.59412 14.1367 9.25812 14.4727 9.25812 14.8867V19.2857C9.25812 19.6997 9.59412 20.0357 10.0081 20.0357C10.4221 20.0357 10.7581 19.6997 10.7581 19.2857V14.8867C10.7581 14.4727 10.4221 14.1367 10.0081 14.1367Z" fill="black"/>
<path fill-rule="evenodd" clip-rule="evenodd" d="M17.6507 14.1367C17.2367 14.1367 16.9007 14.4727 16.9007 14.8867V18.3537C16.9007 18.7677 17.2367 19.1037 17.6507 19.1037C18.0647 19.1037 18.4007 18.7677 18.4007 18.3537V14.8867C18.4007 14.4727 18.0647 14.1367 17.6507 14.1367Z" fill="black"/>
<path fill-rule="evenodd" clip-rule="evenodd" d="M13.8304 14.1367C13.4164 14.1367 13.0804 14.4727 13.0804 14.8867V21.0747C13.0804 21.4887 13.4164 21.8247 13.8304 21.8247C14.2444 21.8247 14.5804 21.4887 14.5804 21.0747V14.8867C14.5804 14.4727 14.2444 14.1367 13.8304 14.1367Z" fill="black"/>
<path fill-rule="evenodd" clip-rule="evenodd" d="M6.18781 14.1367C5.77381 14.1367 5.43781 14.4727 5.43781 14.8867V17.1387C5.43781 17.5527 5.77381 17.8887 6.18781 17.8887C6.60181 17.8887 6.93781 17.5527 6.93781 17.1387V14.8867C6.93781 14.4727 6.60181 14.1367 6.18781 14.1367Z" fill="black"/>
<path fill-rule="evenodd" clip-rule="evenodd" d="M6.18781 19.0468C5.77381 19.0468 5.43781 19.3828 5.43781 19.7968V21.0718C5.43781 21.4858 5.77381 21.8218 6.18781 21.8218C6.60181 21.8218 6.93781 21.4858 6.93781 21.0718V19.7968C6.93781 19.3828 6.60181 19.0468 6.18781 19.0468Z" fill="black"/>
</g>
</svg>