<svg width="24" height="24" viewBox="0 0 24 24" fill="none" xmlns="http://www.w3.org/2000/svg">
<path fill-rule="evenodd" clip-rule="evenodd" d="M19.4171 7.67891C18.6241 7.68191 17.6891 7.67891 17.0161 7.67191C15.9491 7.67191 15.0701 6.78391 15.0701 5.70591V3.13691C15.0701 2.71691 15.5751 2.50891 15.8631 2.81191C16.3851 3.35991 17.1031 4.11491 17.8181 4.86491C18.5301 5.61291 19.2391 6.35791 19.7481 6.89291C20.0301 7.18791 19.8231 7.67791 19.4171 7.67891ZM19.8501 9.09591C20.0911 9.09591 20.2841 9.29091 20.2841 9.53391V17.3699C20.2841 19.7869 18.3451 21.7459 15.9421 21.7459H8.27106C5.76206 21.7459 3.71606 19.6899 3.71606 17.1559V6.64991C3.71606 4.23291 5.66606 2.25391 8.06806 2.25391H13.2211C13.4721 2.25391 13.6651 2.45891 13.6651 2.70291V5.84091C13.6651 7.62391 15.1221 9.08591 16.8881 9.09591H19.8501Z" fill="black"/>
</svg>