<svg width="25" height="24" viewBox="0 0 25 24" fill="none" xmlns="http://www.w3.org/2000/svg">
<path fill-rule="evenodd" clip-rule="evenodd" d="M7.22882 6.31253H11.6028C12.2389 6.31253 12.8475 6.57182 13.2884 7.02989L13.2891 7.03062L16.2244 10.0885C16.6426 10.5239 16.8762 11.1041 16.8762 11.7075V18.0276C16.8882 20.0212 15.3185 21.6684 13.3241 21.7489C13.314 21.7493 13.3039 21.7495 13.2938 21.7495L9.95408 21.7494C8.6079 21.7493 7.29643 21.7492 7.14088 21.7481C5.12532 21.7041 3.52584 20.0371 3.56516 18.0223V9.89391L3.56538 9.87589C3.61312 7.88927 5.24073 6.30487 7.22882 6.31253ZM13.2776 20.2495C14.4573 20.1945 15.3842 19.2172 15.3762 18.035L15.3762 18.03L15.3762 11.7075C15.3762 11.4917 15.2926 11.2838 15.1426 11.1276L12.2076 8.07009C12.2075 8.06998 12.2077 8.0702 12.2076 8.07009C12.0492 7.90566 11.8305 7.81253 11.6028 7.81253H7.22407C6.05547 7.80749 5.09765 8.73638 5.06516 9.90358V18.03L5.06498 18.0464C5.039 19.2366 5.98316 20.2228 7.17362 20.2487L7.18847 20.2492C7.18269 20.249 7.78846 20.2491 8.62935 20.2492C9.11082 20.2493 9.66939 20.2494 10.2344 20.2494L13.2776 20.2495Z" fill="black"/>
<path fill-rule="evenodd" clip-rule="evenodd" d="M11.2893 2.25006H15.6656C16.3011 2.25006 16.9151 2.51417 17.3544 2.96768L17.3574 2.97079L20.282 6.02555C20.7218 6.46898 20.9351 7.06318 20.9351 7.64897V13.963C20.958 15.9596 19.3766 17.6109 17.3841 17.6865C17.3746 17.6869 17.3651 17.6871 17.3556 17.6871H16.1258C15.7116 17.6871 15.3758 17.3513 15.3758 16.9371C15.3758 16.5229 15.7116 16.1871 16.1258 16.1871H17.3404C18.5196 16.1353 19.4503 15.1536 19.4351 13.9772L19.435 13.9675L19.4351 7.64897C19.4351 7.41832 19.3508 7.21563 19.215 7.07983L19.2035 7.06816L16.2769 4.01126C16.2765 4.01082 16.2761 4.01038 16.2756 4.00994C16.1156 3.84544 15.8895 3.75006 15.6656 3.75006H11.2825C10.1173 3.74288 9.16198 4.66881 9.12695 5.83893V7.05934C9.12695 7.47356 8.79117 7.80934 8.37695 7.80934C7.96274 7.80934 7.62695 7.47356 7.62695 7.05934V5.82852L7.6272 5.80912C7.67852 3.82598 9.29836 2.2391 11.2893 2.25006Z" fill="black"/>
<path fill-rule="evenodd" clip-rule="evenodd" d="M15.4609 2.29688C15.8752 2.29688 16.2109 2.63266 16.2109 3.04688V5.6029C16.2109 6.43791 16.8853 7.11371 17.7183 7.11606H20.139C20.5533 7.11606 20.889 7.45185 20.889 7.86606C20.889 8.28027 20.5533 8.61606 20.139 8.61606H17.7173L17.7155 8.61606C16.0542 8.61217 14.7109 7.26432 14.7109 5.6029V3.04688C14.7109 2.63266 15.0467 2.29688 15.4609 2.29688Z" fill="black"/>
<path fill-rule="evenodd" clip-rule="evenodd" d="M11.3984 6.35938C11.8127 6.35938 12.1484 6.69516 12.1484 7.10938V9.6654C12.1484 10.4996 12.823 11.1762 13.6558 11.1786H16.0756C16.4898 11.1786 16.8256 11.5143 16.8256 11.9286C16.8256 12.3428 16.4898 12.6786 16.0756 12.6786H13.6548L13.653 12.6786C11.9915 12.6747 10.6484 11.3256 10.6484 9.6654V7.10938C10.6484 6.69516 10.9842 6.35938 11.3984 6.35938Z" fill="black"/>
</svg>