<svg width="24" height="24" viewBox="0 0 24 24" fill="none" xmlns="http://www.w3.org/2000/svg">
<path fill-rule="evenodd" clip-rule="evenodd" d="M14.0055 16.103H8.70952C8.29552 16.103 7.95952 15.767 7.95952 15.353C7.95952 14.939 8.29552 14.603 8.70952 14.603H14.0055C14.4195 14.603 14.7555 14.939 14.7555 15.353C14.7555 15.767 14.4195 16.103 14.0055 16.103ZM8.70852 10.922H11.9995C12.4135 10.922 12.7495 11.258 12.7495 11.672C12.7495 12.086 12.4135 12.422 11.9995 12.422H8.70852C8.29452 12.422 7.95852 12.086 7.95852 11.672C7.95852 11.258 8.29452 10.922 8.70852 10.922ZM19.8525 9.094H16.8895C15.1225 9.085 13.6645 7.622 13.6645 5.838V2.698C13.6645 2.455 13.4715 2.25 13.2205 2.25H8.06552C5.66252 2.25 3.71252 4.229 3.71252 6.647V17.158C3.71252 19.693 5.75852 21.75 8.26852 21.75H15.9435C18.3465 21.75 20.2875 19.79 20.2875 17.372V9.533C20.2875 9.289 20.0945 9.094 19.8525 9.094Z" fill="black"/>
<path fill-rule="evenodd" clip-rule="evenodd" d="M17.0177 7.67019C17.6907 7.67719 18.6257 7.68019 19.4197 7.67719C19.8257 7.67619 20.0327 7.18519 19.7507 6.89019C19.2417 6.35619 18.5327 5.61019 17.8197 4.86219C17.1047 4.11119 16.3867 3.35619 15.8637 2.80819C15.5757 2.50419 15.0707 2.71319 15.0707 3.13319V5.70319C15.0707 6.78219 15.9497 7.67019 17.0177 7.67019Z" fill="black"/>
</svg>