<svg width="24" height="24" viewBox="0 0 24 24" fill="none" xmlns="http://www.w3.org/2000/svg">
<path fill-rule="evenodd" clip-rule="evenodd" d="M9.08242 10.401H14.9154C15.3294 10.401 15.6654 10.737 15.6654 11.151C15.6654 11.565 15.3294 11.901 14.9154 11.901H9.08242C8.66842 11.901 8.33242 11.565 8.33242 11.151C8.33242 10.737 8.66842 10.401 9.08242 10.401ZM9.08242 6.617H12.1834C12.5974 6.617 12.9334 6.953 12.9334 7.367C12.9334 7.781 12.5974 8.117 12.1834 8.117H9.08242C8.66842 8.117 8.33242 7.781 8.33242 7.367C8.33242 6.953 8.66842 6.617 9.08242 6.617ZM19.8484 14.851C19.9589 14.851 20.0484 14.7615 20.0484 14.651V6.524C20.0484 4.305 18.2434 2.5 16.0244 2.5H7.97542C5.75642 2.5 3.95142 4.305 3.95142 6.524V14.651C3.95142 14.7615 4.04096 14.851 4.15142 14.851H19.8484Z" fill="black"/>
<path fill-rule="evenodd" clip-rule="evenodd" d="M4.15166 16.3512C4.0412 16.3512 3.95166 16.4407 3.95166 16.5512V17.4752C3.95166 19.6942 5.75666 21.4992 7.97466 21.4992H16.0247C18.2437 21.4992 20.0487 19.6942 20.0487 17.4752V16.5512C20.0487 16.4407 19.9591 16.3512 19.8487 16.3512H4.15166Z" fill="black"/>
</svg>