<svg width="24" height="24" viewBox="0 0 24 24" fill="none" xmlns="http://www.w3.org/2000/svg">
<path opacity="0.4" fill-rule="evenodd" clip-rule="evenodd" d="M11.6682 14.6304H6.9392C6.5242 14.6304 6.1892 14.2944 6.1892 13.8804C6.1892 13.4664 6.5242 13.1304 6.9392 13.1304H11.6682C12.0822 13.1304 12.4182 13.4664 12.4182 13.8804C12.4182 14.2944 12.0822 14.6304 11.6682 14.6304ZM6.9382 9.00236H9.4072C9.8212 9.00236 10.1572 9.33836 10.1572 9.75236C10.1572 10.1664 9.8212 10.5024 9.4072 10.5024H6.9382C6.5232 10.5024 6.1882 10.1664 6.1882 9.75236C6.1882 9.33836 6.5232 9.00236 6.9382 9.00236ZM14.9952 13.3664C15.8352 11.9074 17.7062 11.4044 19.1692 12.2464L19.9492 12.6974C19.9812 12.7154 20.0062 12.7404 20.0362 12.7604V9.09836C20.0362 8.85536 19.8432 8.66036 19.6022 8.66036H16.6402C14.8742 8.65036 13.4172 7.18836 13.4172 5.40536V2.26636C13.4172 2.02336 13.2242 1.81836 12.9732 1.81836H7.8202C5.4182 1.81836 3.4682 3.79636 3.4682 6.21336V16.7194C3.4682 19.2534 5.5142 21.3104 8.0232 21.3104H12.3572C12.3192 21.1964 12.2742 21.0854 12.2502 20.9664L12.1162 20.2974C11.9322 19.3654 12.0912 18.3984 12.5652 17.5734L14.9952 13.3664Z" fill="black"/>
<path fill-rule="evenodd" clip-rule="evenodd" d="M18.9916 15.7314L16.5636 19.9364C16.4216 20.1824 16.1946 20.3684 15.9276 20.4604L15.2526 20.6664L15.1186 19.9944C15.0636 19.7164 15.1116 19.4264 15.2536 19.1804L17.6816 14.9744C17.7386 14.8764 17.8426 14.8214 17.9476 14.8214C17.9996 14.8214 18.0526 14.8344 18.0996 14.8624L18.8796 15.3124C19.0256 15.3974 19.0756 15.5854 18.9916 15.7314ZM19.6296 14.0134L18.8486 13.5634C17.9896 13.0664 16.8816 13.3624 16.3836 14.2244L13.9536 18.4314C13.6306 18.9934 13.5216 19.6524 13.6476 20.2874L13.7816 20.9584C13.8656 21.3874 14.1326 21.7584 14.5116 21.9784C14.7446 22.1124 15.0076 22.1814 15.2706 22.1814C15.4346 22.1814 15.5986 22.1544 15.7576 22.1014L16.4086 21.8804C17.0216 21.6714 17.5386 21.2484 17.8626 20.6864L20.2916 16.4804C20.7876 15.6174 20.4906 14.5114 19.6296 14.0134Z" fill="black"/>
<path fill-rule="evenodd" clip-rule="evenodd" d="M11.6682 14.63H6.9392C6.5242 14.63 6.1892 14.294 6.1892 13.88C6.1892 13.466 6.5242 13.13 6.9392 13.13H11.6682C12.0822 13.13 12.4182 13.466 12.4182 13.88C12.4182 14.294 12.0822 14.63 11.6682 14.63ZM6.9382 9.00195H9.4072C9.8212 9.00195 10.1572 9.33795 10.1572 9.75195C10.1572 10.166 9.8212 10.502 9.4072 10.502H6.9382C6.5232 10.502 6.1882 10.166 6.1882 9.75195C6.1882 9.33795 6.5232 9.00195 6.9382 9.00195Z" fill="black"/>
<path fill-rule="evenodd" clip-rule="evenodd" d="M16.7683 7.2362C17.4413 7.2432 18.3763 7.2462 19.1693 7.2432C19.5753 7.2422 19.7813 6.7522 19.5003 6.4562C18.9913 5.9222 18.2823 5.1772 17.5703 4.4292C16.8553 3.6782 16.1373 2.9242 15.6153 2.3762C15.3263 2.0732 14.8223 2.2812 14.8223 2.7012V5.2702C14.8223 6.3482 15.7013 7.2362 16.7683 7.2362Z" fill="black"/>
</svg>