<svg width="24" height="24" viewBox="0 0 24 24" fill="none" xmlns="http://www.w3.org/2000/svg">
<path opacity="0.4" fill-rule="evenodd" clip-rule="evenodd" d="M19.8535 9.094H16.8895C15.1235 9.085 13.6655 7.622 13.6655 5.838V2.698C13.6655 2.455 13.4725 2.25 13.2215 2.25H8.06649C5.66249 2.25 3.71249 4.229 3.71249 6.647V17.158C3.71249 19.693 5.75949 21.75 8.26949 21.75H15.9435C18.3475 21.75 20.2875 19.79 20.2875 17.372V9.533C20.2875 9.289 20.0945 9.094 19.8535 9.094Z" fill="black"/>
<path fill-rule="evenodd" clip-rule="evenodd" d="M17.0158 7.67175C17.6888 7.67875 18.6238 7.68175 19.4168 7.67875C19.8228 7.67775 20.0288 7.18775 19.7478 6.89175C19.2388 6.35775 18.5298 5.61275 17.8178 4.86475C17.1028 4.11375 16.3848 3.35975 15.8628 2.81175C15.5738 2.50875 15.0698 2.71675 15.0698 3.13675V5.70575C15.0698 6.78375 15.9488 7.67175 17.0158 7.67175Z" fill="black"/>
<path fill-rule="evenodd" clip-rule="evenodd" d="M13.859 13.358H14.657C15.071 13.358 15.407 13.022 15.407 12.608C15.407 12.194 15.071 11.858 14.657 11.858H14.049L14.133 11.196C14.184 10.785 13.893 10.41 13.483 10.358C13.063 10.304 12.696 10.597 12.644 11.008L12.537 11.858H11.081L11.165 11.196C11.217 10.786 10.926 10.41 10.515 10.358C10.095 10.304 9.728 10.597 9.677 11.008L9.56901 11.858H8.637C8.223 11.858 7.887 12.194 7.887 12.608C7.887 13.022 8.223 13.358 8.637 13.358H9.379L9.198 14.782H8.38C7.966 14.782 7.63 15.118 7.63 15.532C7.63 15.946 7.966 16.282 8.38 16.282H9.008L8.92401 16.945C8.872 17.356 9.163 17.731 9.573 17.783C9.988 17.829 10.36 17.544 10.412 17.133L10.519 16.282H11.976L11.892 16.945C11.841 17.356 12.132 17.731 12.543 17.783C12.574 17.787 12.606 17.789 12.637 17.789C13.01 17.789 13.333 17.512 13.381 17.133L13.488 16.282H14.399C14.813 16.282 15.149 15.946 15.149 15.532C15.149 15.118 14.813 14.782 14.399 14.782H13.678L13.859 13.358ZM12.1669 14.7814H10.7099L10.8909 13.3574H12.3469L12.1669 14.7814Z" fill="black"/>
</svg>