<svg width="24" height="24" viewBox="0 0 24 24" fill="none" xmlns="http://www.w3.org/2000/svg">
<path opacity="0.4" fill-rule="evenodd" clip-rule="evenodd" d="M19.85 9.09591C20.091 9.09591 20.284 9.29091 20.284 9.53391V17.3699C20.284 19.7869 18.345 21.7459 15.942 21.7459H8.271C5.762 21.7459 3.716 19.6899 3.716 17.1559V6.64991C3.716 4.23291 5.666 2.25391 8.068 2.25391H13.221C13.472 2.25391 13.665 2.45891 13.665 2.70291V5.84091C13.665 7.62391 15.122 9.08591 16.888 9.09591H19.85Z" fill="black"/>
<path fill-rule="evenodd" clip-rule="evenodd" d="M13.1335 17.7521C12.9415 17.7521 12.7495 17.6791 12.6035 17.5321C12.3105 17.2391 12.3105 16.7641 12.6035 16.4721L14.2435 14.8331L12.6365 13.2251C12.3435 12.9321 12.3435 12.4581 12.6365 12.1651C12.9295 11.8721 13.4045 11.8721 13.6965 12.1651L15.8345 14.3021C15.9755 14.4431 16.0545 14.6341 16.0545 14.8331C16.0545 15.0321 15.9755 15.2221 15.8345 15.3631L13.6635 17.5321C13.5175 17.6791 13.3255 17.7521 13.1335 17.7521ZM10.3364 15.5203C10.4824 15.6673 10.6744 15.7403 10.8664 15.7403C11.0584 15.7403 11.2504 15.6673 11.3964 15.5203C11.6894 15.2273 11.6894 14.7523 11.3964 14.4603L9.75643 12.8213L11.3634 11.2133C11.6564 10.9203 11.6564 10.4463 11.3634 10.1533C11.0704 9.86034 10.5954 9.86034 10.3034 10.1533L8.16543 12.2903C8.02443 12.4313 7.94543 12.6223 7.94543 12.8213C7.94543 13.0203 8.02443 13.2103 8.16543 13.3513L10.3364 15.5203Z" fill="black"/>
<path d="M19.417 7.67875C18.624 7.68175 17.689 7.67875 17.016 7.67175C15.949 7.67175 15.07 6.78375 15.07 5.70575V3.13675C15.07 2.71675 15.575 2.50875 15.863 2.81175L16.5134 3.49493C16.9164 3.91823 17.3678 4.39248 17.818 4.86475C18.53 5.61275 19.239 6.35775 19.748 6.89275C20.03 7.18775 19.823 7.67775 19.417 7.67875Z" fill="black"/>
</svg>