<svg width="25" height="24" viewBox="0 0 25 24" fill="none" xmlns="http://www.w3.org/2000/svg">
<path opacity="0.4" d="M10.9509 20.723H8.39894C6.15924 20.723 4.34277 18.9065 4.34277 16.6668V7.05617C4.34277 4.81647 6.15924 3 8.39894 3H15.3866C17.6263 3 19.4427 4.81647 19.4427 7.05617V10.369" stroke="black" stroke-width="1.5" stroke-linecap="round" stroke-linejoin="round"/>
<path fill-rule="evenodd" clip-rule="evenodd" d="M16.2634 20.866L15.5385 20.9876C15.0093 21.0762 14.5403 20.6344 14.5987 20.0993L14.6794 19.3521C14.7183 18.9912 14.8692 18.6526 15.1114 18.3821L18.2676 14.936C18.6402 14.5332 19.2697 14.5088 19.6725 14.8815L20.339 15.4983C20.7418 15.8719 20.7661 16.5004 20.3935 16.9032L17.2713 20.3105C17.0086 20.6053 16.6525 20.8008 16.2634 20.866Z" stroke="black" stroke-width="1.5" stroke-linecap="round" stroke-linejoin="round"/>
<path d="M14.3954 9.54297H9.39158M12.003 13.9117H9.39062" stroke="black" stroke-width="1.5" stroke-linecap="round" stroke-linejoin="round"/>
</svg>