<svg width="24" height="24" viewBox="0 0 24 24" fill="none" xmlns="http://www.w3.org/2000/svg">
<path fill-rule="evenodd" clip-rule="evenodd" d="M12.581 15.1074C12.581 16.0768 11.7955 16.8632 10.8251 16.8632C9.85575 16.8632 9.07031 16.0768 9.07031 15.1074C9.07031 14.138 9.85575 13.3516 10.8251 13.3516C11.7955 13.3516 12.581 14.138 12.581 15.1074Z" stroke="black" stroke-width="1.5" stroke-linecap="round" stroke-linejoin="round"/>
<path d="M12.582 15.1086L12.5824 9.83984C12.5824 9.83984 13.0389 11.0263 14.2662 11.2764" stroke="black" stroke-width="1.5" stroke-linecap="round" stroke-linejoin="round"/>
<path d="M13.7857 3.00004C14.3434 3.00004 14.8777 3.22681 15.2641 3.62975L19.055 7.57935C19.422 7.96088 19.6264 8.46991 19.6264 8.99937V17.1633C19.641 19.2199 18.0234 20.9163 15.9697 21L8.04424 20.999C5.97114 20.9533 4.32823 19.2364 4.37398 17.1633V6.65667C4.42264 4.61764 6.09378 2.99128 8.13379 3.00004H13.7857Z" stroke="black" stroke-width="1.5" stroke-linecap="round" stroke-linejoin="round"/>
<path d="M14.2695 3.0625V5.95511C14.2686 7.36637 15.4112 8.51291 16.8234 8.51583H19.5623" stroke="black" stroke-width="1.5" stroke-linecap="round" stroke-linejoin="round"/>
</svg>