<svg width="25" height="24" viewBox="0 0 25 24" fill="none" xmlns="http://www.w3.org/2000/svg">
<path opacity="0.4" d="M9.74805 19.601V20.9982M9.74805 15.4524V16.8496M9.74805 11.3029V12.7001M9.74805 7.15341V8.55064M9.74805 3.00391V4.40113" stroke="black" stroke-width="1.5" stroke-linecap="round" stroke-linejoin="round"/>
<path d="M14.2857 3.00004C14.8434 3.00004 15.3777 3.22681 15.7641 3.62975L19.555 7.57935C19.922 7.96088 20.1264 8.46991 20.1264 8.99937V17.1633C20.141 19.2199 18.5234 20.9163 16.4697 21L8.54424 20.999C6.47114 20.9533 4.82823 19.2364 4.87398 17.1633V6.65667C4.92264 4.61764 6.59378 2.99128 8.63379 3.00004H14.2857Z" stroke="black" stroke-width="1.5" stroke-linecap="round" stroke-linejoin="round"/>
<path opacity="0.4" d="M14.7686 3.0625V5.95511C14.7676 7.36637 15.9102 8.51291 17.3225 8.51583H20.0613" stroke="black" stroke-width="1.5" stroke-linecap="round" stroke-linejoin="round"/>
</svg>