<svg width="25" height="24" viewBox="0 0 25 24" fill="none" xmlns="http://www.w3.org/2000/svg">
<path d="M9.6119 17.7244C9.39605 17.7234 9.18282 17.6771 8.98598 17.5885C8.78914 17.5 8.61305 17.3711 8.46914 17.2102C8.32522 17.0493 8.21666 16.86 8.15047 16.6546C8.08428 16.4491 8.06197 16.2321 8.08492 16.0174L8.1639 15.2884C8.21868 14.7815 8.43096 14.3045 8.77089 13.9244L11.8539 10.5594C12.0069 10.3931 12.1911 10.2585 12.3961 10.1634C12.6011 10.0684 12.8229 10.0146 13.0487 10.0054C13.2745 9.99607 13.4999 10.0314 13.712 10.1093C13.9241 10.1872 14.1188 10.3062 14.2849 10.4594L14.9349 11.0594C15.2692 11.3685 15.4674 11.7974 15.4862 12.2523C15.5049 12.7072 15.3426 13.1509 15.0349 13.4864L11.9919 16.8054C11.6224 17.2153 11.1251 17.488 10.5809 17.5794L9.88088 17.6974C9.79211 17.7138 9.70215 17.7228 9.6119 17.7244ZM13.1179 11.5054H13.1089C13.0805 11.5061 13.0526 11.5126 13.0268 11.5245C13.001 11.5363 12.9779 11.5533 12.9589 11.5744L9.88289 14.9304C9.75474 15.0758 9.67536 15.2576 9.6559 15.4504L9.57692 16.1794L10.3289 16.1044C10.5392 16.0687 10.7313 15.963 10.8739 15.8044L13.9249 12.4774C13.9446 12.4563 13.9599 12.4315 13.9701 12.4044C13.9802 12.3773 13.9849 12.3485 13.9838 12.3196C13.9828 12.2908 13.9761 12.2624 13.9641 12.2361C13.9521 12.2098 13.935 12.1861 13.9139 12.1664L13.2649 11.5664C13.2261 11.5267 13.1734 11.5034 13.1179 11.5014V11.5054Z" fill="black"/>
<path d="M16.2502 21.75H8.29416C7.70146 21.7396 7.11665 21.6122 6.57333 21.3752C6.03002 21.1381 5.53892 20.796 5.1282 20.3685C4.71749 19.9411 4.39523 19.4367 4.18002 18.8844C3.96481 18.3321 3.86091 17.7426 3.87417 17.15V6.657C3.90428 5.48264 4.3901 4.36607 5.22885 3.54356C6.0676 2.72106 7.19341 2.25715 8.36813 2.25H14.0362C14.4134 2.25074 14.7866 2.32735 15.1336 2.47527C15.4807 2.62318 15.7944 2.83937 16.0562 3.11099L19.8462 7.06C20.3483 7.58039 20.628 8.27585 20.6261 8.99899V17.163C20.6381 18.347 20.1875 19.489 19.3702 20.3457C18.5529 21.2024 17.4334 21.7063 16.2502 21.75ZM8.37112 3.75C7.58922 3.75279 6.83905 4.05954 6.2792 4.60539C5.71935 5.15125 5.3937 5.89342 5.37112 6.675V17.163C5.35968 17.5589 5.42681 17.9531 5.56851 18.323C5.71021 18.6928 5.9237 19.0309 6.19674 19.3178C6.46979 19.6047 6.79695 19.8347 7.15933 19.9946C7.52171 20.1544 7.91216 20.2408 8.30813 20.249H16.2171C17.0069 20.2132 17.7518 19.8716 18.2942 19.2964C18.8365 18.7212 19.1338 17.9575 19.1231 17.167V9C19.1237 8.66441 18.9939 8.34171 18.7611 8.10001L14.9701 4.14999C14.8487 4.02398 14.7032 3.92366 14.5422 3.85495C14.3812 3.78624 14.2082 3.75054 14.0332 3.75H8.36813H8.37112Z" fill="black"/>
<path d="M19.8124 9.26651H17.0734C16.1974 9.26281 15.3586 8.91242 14.7402 8.29198C14.1218 7.67153 13.7742 6.83149 13.7734 5.95551V3.0625C13.7734 2.86359 13.8525 2.67283 13.9931 2.53218C14.1338 2.39153 14.3245 2.3125 14.5234 2.3125C14.7223 2.3125 14.9131 2.39153 15.0538 2.53218C15.1944 2.67283 15.2734 2.86359 15.2734 3.0625V5.95551C15.2734 6.43391 15.4627 6.89288 15.8 7.23219C16.1372 7.57151 16.595 7.7636 17.0734 7.76651H19.8104C20.0093 7.76651 20.2001 7.84552 20.3408 7.98618C20.4814 8.12683 20.5604 8.3176 20.5604 8.51651C20.5604 8.71542 20.4814 8.90618 20.3408 9.04683C20.2001 9.18748 20.0093 9.26651 19.8104 9.26651H19.8124Z" fill="black"/>
</svg>