<svg width="24" height="24" viewBox="0 0 24 24" fill="none" xmlns="http://www.w3.org/2000/svg">
<path d="M7.85998 20.5897C5.63683 20.5897 3.83398 18.7878 3.83398 16.5647V7.026C3.83398 4.80285 5.63683 3 7.85998 3H14.7951C17.0182 3 18.8201 4.80285 18.8201 7.026V13.1779" stroke="black" stroke-width="1.5" stroke-linecap="round" stroke-linejoin="round"/>
<path d="M11.4346 12.8755H8.8418H11.4346ZM13.8091 8.53906H8.84228H13.8091Z" stroke="black" stroke-width="1.5" stroke-linecap="round" stroke-linejoin="round"/>
<path d="M14.2839 20.448C13.5484 21.1845 12.3546 21.1845 11.6181 20.448C10.8825 19.7115 10.8825 18.5187 11.6181 17.7822C12.3546 17.0466 13.5484 17.0466 14.2839 17.7822L16.9492 20.448C17.6847 21.1836 18.8785 21.1836 19.615 20.448C20.3505 19.7115 20.3505 18.5187 19.615 17.7822C18.8785 17.0466 17.6847 17.0466 16.9492 17.7822L14.2839 20.448Z" stroke="black" stroke-width="1.5" stroke-linecap="round" stroke-linejoin="round"/>
</svg>