<svg width="24" height="24" viewBox="0 0 24 24" fill="none" xmlns="http://www.w3.org/2000/svg">
<path opacity="0.4" fill-rule="evenodd" clip-rule="evenodd" d="M10.1238 14.4214H7.35681C6.94281 14.4214 6.60681 14.0854 6.60681 13.6714C6.60681 13.2574 6.94281 12.9214 7.35681 12.9214H10.1238C10.5378 12.9214 10.8738 13.2574 10.8738 13.6714C10.8738 14.0854 10.5378 14.4214 10.1238 14.4214ZM7.35581 8.79338H8.84381C9.25781 8.79338 9.59381 9.12937 9.59381 9.54338C9.59381 9.95737 9.25781 10.2934 8.84381 10.2934H7.35581C6.94181 10.2934 6.60581 9.95737 6.60581 9.54338C6.60581 9.12937 6.94181 8.79338 7.35581 8.79338ZM15.5268 11.6154H18.1788C18.6968 11.6154 19.1878 11.7494 19.6228 11.9824V8.88938C19.6228 8.64638 19.4298 8.45138 19.1888 8.45138H16.2268C14.4608 8.44137 13.0038 6.97937 13.0038 5.19637V2.05738C13.0038 1.81438 12.8108 1.60938 12.5598 1.60938H7.40681C5.00381 1.60938 3.05481 3.58737 3.05481 6.00437V16.5104C3.05481 19.0444 5.10081 21.1014 7.60981 21.1014H12.9798C12.3108 20.6134 11.8708 19.8304 11.8708 18.9414C11.8708 17.9634 12.2678 17.0244 12.9508 16.3394C12.4218 15.5214 12.3088 14.4874 12.6778 13.5524C13.1448 12.3744 14.2638 11.6154 15.5268 11.6154Z" fill="black"/>
<path fill-rule="evenodd" clip-rule="evenodd" d="M10.1238 14.421H7.3568C6.9428 14.421 6.6068 14.085 6.6068 13.671C6.6068 13.257 6.9428 12.921 7.3568 12.921H10.1238C10.5378 12.921 10.8738 13.257 10.8738 13.671C10.8738 14.085 10.5378 14.421 10.1238 14.421ZM7.3558 8.79297H8.8438C9.2578 8.79297 9.5938 9.12897 9.5938 9.54297C9.5938 9.95697 9.2578 10.293 8.8438 10.293H7.3558C6.9418 10.293 6.6058 9.95697 6.6058 9.54297C6.6058 9.12897 6.9418 8.79297 7.3558 8.79297Z" fill="black"/>
<path fill-rule="evenodd" clip-rule="evenodd" d="M16.3548 7.02721C17.0278 7.03421 17.9628 7.03721 18.7558 7.03421C19.1618 7.03321 19.3678 6.54321 19.0868 6.24721C18.5778 5.71321 17.8688 4.96821 17.1568 4.22021C16.4418 3.46921 15.7238 2.71521 15.2018 2.16721C14.9128 1.86421 14.4088 2.07221 14.4088 2.49221V5.06121C14.4088 6.13921 15.2878 7.02721 16.3548 7.02721Z" fill="black"/>
<path fill-rule="evenodd" clip-rule="evenodd" d="M14.9852 18.8897C15.0052 18.6407 15.1262 18.4077 15.3182 18.2477C16.1722 17.7707 16.3312 17.4537 16.3822 17.3487C16.6042 16.9077 16.5762 16.1237 16.4042 15.7227C16.3662 15.6307 16.2492 15.3527 15.6702 14.9277C15.5782 14.8377 15.5482 14.7037 15.5962 14.5847C15.6442 14.4647 15.7582 14.3867 15.8882 14.3867H18.5392C18.6692 14.3867 18.7832 14.4647 18.8322 14.5867C18.8792 14.7037 18.8492 14.8377 18.8292 14.8657C18.1802 15.3527 18.0632 15.6287 18.0252 15.7177C17.8522 16.1217 17.8232 16.9047 18.0442 17.3477C18.0962 17.4537 18.2562 17.7707 19.1102 18.2477C19.3012 18.4077 19.4222 18.6407 19.4422 18.8897H14.9852ZM19.9752 17.0207C19.9462 16.9987 19.9172 16.9797 19.8852 16.9627C19.7242 16.8747 19.5052 16.7347 19.3902 16.6447C19.3812 16.5567 19.3852 16.4317 19.3982 16.3477C19.4722 16.2727 19.6232 16.1447 19.8002 16.0047C20.3322 15.4907 20.4992 14.7147 20.2242 14.0297C19.9472 13.3357 19.2862 12.8867 18.5392 12.8867H15.8882C15.1402 12.8867 14.4782 13.3357 14.2022 14.0317C13.9292 14.7167 14.0962 15.4917 14.6982 16.0657C14.8182 16.1557 14.9572 16.2747 15.0292 16.3477C15.0442 16.4357 15.0472 16.5687 15.0452 16.6387C14.9392 16.7237 14.7272 16.8617 14.5432 16.9627C14.5112 16.9797 14.4812 16.9997 14.4532 17.0207C13.8452 17.4767 13.4822 18.2027 13.4822 18.9627C13.4822 19.7497 14.1222 20.3897 14.9092 20.3897H16.4642V21.6417C16.4642 22.0567 16.7992 22.3917 17.2142 22.3917C17.6282 22.3917 17.9642 22.0567 17.9642 21.6417V20.3897H19.5192C20.3052 20.3897 20.9452 19.7497 20.9452 18.9627C20.9452 18.2027 20.5832 17.4757 19.9752 17.0207Z" fill="black"/>
</svg>