<svg width="24" height="24" viewBox="0 0 24 24" fill="none" xmlns="http://www.w3.org/2000/svg">
<path fill-rule="evenodd" clip-rule="evenodd" d="M9.13769 13.7976H7.49069C7.07569 13.7976 6.74069 13.4616 6.74069 13.0476C6.74069 12.6336 7.07569 12.2976 7.49069 12.2976H9.13769C9.55169 12.2976 9.88769 12.6336 9.88769 13.0476C9.88769 13.4616 9.55169 13.7976 9.13769 13.7976ZM7.49069 7.93461H11.5287C11.9427 7.93461 12.2787 8.27061 12.2787 8.68461C12.2787 9.09861 11.9427 9.43461 11.5287 9.43461H7.49069C7.07569 9.43461 6.74069 9.09861 6.74069 8.68461C6.74069 8.27061 7.07569 7.93461 7.49069 7.93461ZM15.3036 16.0035C15.4269 16.104 15.6064 16.1041 15.7297 16.0037C16.6125 15.2847 17.7376 15.0221 18.806 15.1976C19.0005 15.2295 19.1877 15.0862 19.1877 14.8891V6.90061C19.1877 4.39061 17.1457 2.34961 14.6357 2.34961H7.73569C5.22569 2.34961 3.18469 4.39061 3.18469 6.90061V16.4986C3.18469 19.0086 5.22569 21.0496 7.73569 21.0496H9.01727C9.25187 21.0496 9.39935 20.7895 9.30515 20.5746C8.68089 19.1508 8.94322 17.432 10.1037 16.2706C11.5276 14.8515 13.7821 14.763 15.3036 16.0035Z" fill="black"/>
<path fill-rule="evenodd" clip-rule="evenodd" d="M18.9855 19.8191C18.5415 20.2611 17.8205 20.2591 17.3805 19.8191L16.5775 19.0161L17.3805 18.2141C17.8225 17.7721 18.5415 17.7701 18.9855 18.2141C19.4265 18.6561 19.4265 19.3771 18.9855 19.8191ZM13.6545 19.8191C13.2115 20.2601 12.4915 20.2591 12.0495 19.8201C11.6075 19.3771 11.6075 18.6561 12.0485 18.2151C12.2695 17.9931 12.5615 17.8821 12.8525 17.8821C13.1425 17.8821 13.4335 17.9931 13.6545 18.2141L14.4575 19.0161L13.6545 19.8191ZM20.0465 17.1531C19.0165 16.1261 17.3465 16.1261 16.3195 17.1531L15.5165 17.9561L14.7145 17.1531C13.6875 16.1281 12.0155 16.1281 10.9885 17.1531C9.96347 18.1801 9.96347 19.8511 10.9895 20.8811C12.0185 21.9071 13.6895 21.9051 14.7145 20.8801L15.5165 20.0771L16.3195 20.8801C16.8335 21.3931 17.5065 21.6501 18.1815 21.6501C18.8565 21.6501 19.5325 21.3931 20.0475 20.8791C21.0715 19.8511 21.0715 18.1801 20.0465 17.1531Z" fill="black"/>
</svg>