<svg width="24" height="24" viewBox="0 0 24 24" fill="none" xmlns="http://www.w3.org/2000/svg">
<path fill-rule="evenodd" clip-rule="evenodd" d="M20.814 11.835H20.288V9.533C20.288 9.29 20.095 9.095 19.853 9.095H16.89C15.123 9.085 13.665 7.622 13.665 5.838V2.699C13.665 2.455 13.472 2.25 13.221 2.25H8.06597C5.66297 2.25 3.71297 4.229 3.71297 6.647V11.835H3.18597C2.77197 11.835 2.43597 12.171 2.43597 12.585C2.43597 12.999 2.77197 13.335 3.18597 13.335H20.814C21.228 13.335 21.564 12.999 21.564 12.585C21.564 12.171 21.228 11.835 20.814 11.835Z" fill="black"/>
<path fill-rule="evenodd" clip-rule="evenodd" d="M17.018 7.67019C17.691 7.67719 18.626 7.68019 19.42 7.67719C19.826 7.67619 20.033 7.18519 19.751 6.89019C19.242 6.35619 18.533 5.61019 17.82 4.86219C17.105 4.11119 16.387 3.35619 15.864 2.80819C15.576 2.50419 15.071 2.71319 15.071 3.13319V5.70319C15.071 6.78219 15.95 7.67019 17.018 7.67019Z" fill="black"/>
<path fill-rule="evenodd" clip-rule="evenodd" d="M19.9367 14.4997H4.06371C3.86971 14.4997 3.71271 14.6567 3.71271 14.8507V17.1577C3.71271 19.6927 5.75871 21.7497 8.26871 21.7497H15.9437C18.3477 21.7497 20.2877 19.7907 20.2877 17.3727V14.8507C20.2877 14.6567 20.1307 14.4997 19.9367 14.4997Z" fill="black"/>
</svg>