<svg width="24" height="24" viewBox="0 0 24 24" fill="none" xmlns="http://www.w3.org/2000/svg">
<path opacity="0.4" d="M19.85 9.09591H16.887C15.122 9.08591 13.664 7.62391 13.664 5.84091V2.70191C13.664 2.45891 13.471 2.25391 13.221 2.25391H9.991H8.491H8.068C5.665 2.25391 3.716 4.23291 3.716 6.64991V17.1549C3.716 19.6889 5.762 21.7459 8.27 21.7459H8.491H9.991H15.942C18.344 21.7459 20.284 19.7869 20.284 17.3699V9.53391C20.284 9.29091 20.091 9.09591 19.85 9.09591Z" fill="black"/>
<path fill-rule="evenodd" clip-rule="evenodd" d="M9.99099 8.55091C9.99099 8.96491 9.65499 9.30091 9.24099 9.30091C8.82699 9.30091 8.49099 8.96491 8.49099 8.55091V7.15391C8.49099 6.73891 8.82699 6.40391 9.24099 6.40391C9.65499 6.40391 9.99099 6.73891 9.99099 7.15391V8.55091ZM9.99099 12.6999C9.99099 13.1139 9.65499 13.4499 9.24099 13.4499C8.82699 13.4499 8.49099 13.1139 8.49099 12.6999V11.3029C8.49099 10.8889 8.82699 10.5529 9.24099 10.5529C9.65499 10.5529 9.99099 10.8889 9.99099 11.3029V12.6999ZM9.99099 16.8499C9.99099 17.2639 9.65499 17.5999 9.24099 17.5999C8.82699 17.5999 8.49099 17.2639 8.49099 16.8499V15.4529C8.49099 15.0389 8.82699 14.7029 9.24099 14.7029C9.65499 14.7029 9.99099 15.0389 9.99099 15.4529V16.8499Z" fill="black"/>
<path d="M8.49099 21.7459V19.6009C8.49099 19.1869 8.82699 18.8509 9.24099 18.8509C9.65499 18.8509 9.99099 19.1869 9.99099 19.6009V21.7459H8.49099Z" fill="black"/>
<path d="M9.99099 2.25391V4.40091C9.99099 4.81491 9.65499 5.15091 9.24099 5.15091C8.82699 5.15091 8.49099 4.81491 8.49099 4.40091V2.25391H9.99099Z" fill="black"/>
<path fill-rule="evenodd" clip-rule="evenodd" d="M17.0158 7.67175C17.6888 7.67875 18.6238 7.68175 19.4168 7.67875C19.8228 7.67775 20.0288 7.18775 19.7478 6.89175C19.2388 6.35775 18.5298 5.61275 17.8178 4.86475C17.1028 4.11375 16.3848 3.35975 15.8628 2.81175C15.5738 2.50875 15.0698 2.71675 15.0698 3.13675V5.70575C15.0698 6.78375 15.9488 7.67175 17.0158 7.67175Z" fill="black"/>
</svg>