<svg width="25" height="24" viewBox="0 0 25 24" fill="none" xmlns="http://www.w3.org/2000/svg">
<path opacity="0.4" d="M12.4024 17.4354V10.7305M8.81104 14.0828H15.9939M14.0848 10.7305H10.7192C9.54635 10.7305 8.81055 11.5607 8.81055 12.7364V15.4295C8.81055 16.6052 9.54246 17.4354 10.7192 17.4354H14.0848C15.2615 17.4354 15.9934 16.6052 15.9934 15.4295V12.7364C15.9934 11.5607 15.2615 10.7305 14.0848 10.7305Z" stroke="black" stroke-width="1.5" stroke-linecap="round" stroke-linejoin="round"/>
<path d="M14.2857 3.00004C14.8434 3.00004 15.3777 3.22681 15.7641 3.62975L19.555 7.57935C19.922 7.96088 20.1264 8.46991 20.1264 8.99937V17.1633C20.141 19.2199 18.5234 20.9163 16.4697 21L8.54424 20.999C6.47114 20.9533 4.82823 19.2364 4.87398 17.1633V6.65667C4.92264 4.61764 6.59378 2.99128 8.63379 3.00004H14.2857Z" stroke="black" stroke-width="1.5" stroke-linecap="round" stroke-linejoin="round"/>
<path opacity="0.4" d="M14.7686 3.0625V5.95511C14.7676 7.36637 15.9102 8.51291 17.3225 8.51583H20.0613" stroke="black" stroke-width="1.5" stroke-linecap="round" stroke-linejoin="round"/>
</svg>