<svg width="25" height="24" viewBox="0 0 25 24" fill="none" xmlns="http://www.w3.org/2000/svg">
<path d="M12.2513 17.3831C12.1462 17.3828 12.0422 17.3606 11.9462 17.3179C11.8501 17.2752 11.764 17.2129 11.6933 17.1351L8.50928 13.5971C8.40374 13.4812 8.33731 13.335 8.31937 13.1792C8.30142 13.0235 8.33289 12.866 8.40929 12.7291L9.47028 10.8361C9.53538 10.7199 9.63031 10.6231 9.74527 10.5558C9.86023 10.4885 9.99106 10.453 10.1243 10.4531H14.3703C14.5035 10.4531 14.6343 10.4886 14.7492 10.5559C14.8642 10.6233 14.9591 10.72 15.0243 10.8361L16.0863 12.7281C16.1628 12.8652 16.1943 13.0228 16.1763 13.1787C16.1584 13.3347 16.0919 13.481 15.9863 13.5971L12.8013 17.1351C12.7315 17.212 12.6467 17.2736 12.5521 17.3163C12.4574 17.3589 12.3551 17.3817 12.2513 17.3831ZM9.98429 12.9931L12.2513 15.5121L14.5193 12.9931L13.9353 11.9531H10.5673L9.98429 12.9931Z" fill="black"/>
<path d="M16.2509 21.75H8.29392C7.09789 21.7258 5.9604 21.2277 5.13155 20.3651C4.3027 19.5025 3.85035 18.346 3.87392 17.15V6.657C3.90403 5.48264 4.38985 4.36607 5.2286 3.54356C6.06735 2.72106 7.19321 2.25715 8.36793 2.25H14.0359C14.4132 2.25074 14.7864 2.32735 15.1334 2.47527C15.4804 2.62318 15.7941 2.83937 16.0559 3.11099L19.8459 7.06C20.3479 7.58051 20.6276 8.27589 20.6259 8.99899V17.163C20.6379 18.3468 20.1875 19.4886 19.3703 20.3453C18.5532 21.202 17.434 21.706 16.2509 21.75ZM8.37092 3.75C7.58901 3.75279 6.83883 4.05954 6.27898 4.60539C5.71914 5.15125 5.3935 5.89342 5.37092 6.675V17.163C5.35948 17.5589 5.42656 17.9531 5.56826 18.323C5.70996 18.6928 5.9235 19.0309 6.19654 19.3178C6.46959 19.6047 6.79674 19.8347 7.15913 19.9946C7.52151 20.1544 7.91195 20.2408 8.30793 20.249H16.2169C17.0067 20.2132 17.7516 19.8716 18.2939 19.2964C18.8363 18.7212 19.1336 17.9575 19.1229 17.167V9C19.1242 8.66429 18.9943 8.34136 18.7609 8.10001L14.9699 4.14999C14.8484 4.02403 14.7029 3.92373 14.542 3.85503C14.381 3.78632 14.2079 3.7506 14.0329 3.75H8.36793H8.37092Z" fill="black"/>
<path d="M19.8144 9.26651H17.0754C16.1994 9.26281 15.3605 8.91242 14.7421 8.29198C14.1238 7.67153 13.7762 6.83149 13.7754 5.95551V3.0625C13.7754 2.86359 13.8544 2.67283 13.9951 2.53218C14.1357 2.39153 14.3265 2.3125 14.5254 2.3125C14.7243 2.3125 14.9151 2.39153 15.0557 2.53218C15.1964 2.67283 15.2754 2.86359 15.2754 3.0625V5.95551C15.2756 6.43383 15.465 6.89266 15.8022 7.23192C16.1394 7.57118 16.5971 7.76334 17.0754 7.76651H19.8124C20.0113 7.76651 20.2021 7.84552 20.3427 7.98618C20.4834 8.12683 20.5624 8.3176 20.5624 8.51651C20.5624 8.71542 20.4834 8.90618 20.3427 9.04683C20.2021 9.18748 20.0113 9.26651 19.8124 9.26651H19.8144Z" fill="black"/>
</svg>