<svg width="24" height="24" viewBox="0 0 24 24" fill="none" xmlns="http://www.w3.org/2000/svg">
<path fill-rule="evenodd" clip-rule="evenodd" d="M14.8817 13.7198C15.2204 12.6618 14.8243 11.452 13.7138 11.0939C13.1298 10.907 12.4904 11.015 11.9988 11.3829C11.5073 11.0179 10.8718 10.9109 10.2878 11.0939C9.17729 11.452 8.77824 12.6618 9.11694 13.7198C9.64447 15.3958 11.9988 16.6883 11.9988 16.6883C11.9988 16.6883 14.3357 15.4153 14.8817 13.7198Z" stroke="black" stroke-width="1.5" stroke-linecap="round" stroke-linejoin="round"/>
<path d="M13.7857 3.00004C14.3434 3.00004 14.8777 3.22681 15.2641 3.62975L19.055 7.57935C19.422 7.96088 19.6264 8.46991 19.6264 8.99937V17.1633C19.641 19.2199 18.0234 20.9163 15.9697 21L8.04424 20.999C5.97114 20.9533 4.32823 19.2364 4.37398 17.1633V6.65667C4.42264 4.61764 6.09378 2.99128 8.13379 3.00004H13.7857Z" stroke="black" stroke-width="1.5" stroke-linecap="round" stroke-linejoin="round"/>
<path d="M14.2695 3.0625V5.95511C14.2686 7.36637 15.4112 8.51291 16.8234 8.51583H19.5623" stroke="black" stroke-width="1.5" stroke-linecap="round" stroke-linejoin="round"/>
</svg>