<svg width="25" height="24" viewBox="0 0 25 24" fill="none" xmlns="http://www.w3.org/2000/svg">
<path d="M16.2502 21.75H8.29417C7.70148 21.7396 7.11668 21.6122 6.57336 21.3752C6.03005 21.1381 5.53893 20.796 5.12822 20.3685C4.7175 19.9411 4.39528 19.4367 4.18007 18.8844C3.96487 18.3321 3.86091 17.7426 3.87417 17.15V6.657C3.90428 5.48264 4.39011 4.36607 5.22886 3.54356C6.0676 2.72106 7.19345 2.25715 8.36817 2.25H14.0362C14.4134 2.25074 14.7866 2.32735 15.1337 2.47527C15.4807 2.62318 15.7944 2.83937 16.0562 3.11099L19.8502 7.06C20.3506 7.58156 20.6289 8.27717 20.6262 9V17.164C20.6379 18.3478 20.1872 19.4895 19.3699 20.346C18.5526 21.2026 17.4333 21.7063 16.2502 21.75ZM8.37118 3.75C7.58927 3.75279 6.83909 4.05954 6.27924 4.60539C5.71939 5.15125 5.39376 5.89342 5.37118 6.675V17.163C5.35974 17.5589 5.42681 17.9531 5.56851 18.323C5.71021 18.6928 5.92374 19.0309 6.19679 19.3178C6.46984 19.6047 6.79698 19.8347 7.15937 19.9946C7.52175 20.1544 7.9122 20.2408 8.30817 20.249H16.2202C17.01 20.2132 17.7548 19.8716 18.2972 19.2964C18.8396 18.7212 19.1369 17.9575 19.1262 17.167V9C19.1264 8.66467 18.9971 8.34222 18.7652 8.10001L14.9732 4.151C14.8517 4.02504 14.7062 3.92473 14.5452 3.85602C14.3843 3.78731 14.2112 3.75161 14.0362 3.75101H8.37118V3.75Z" fill="black"/>
<path d="M12.25 16.8047C12.1518 16.8052 12.0544 16.7863 11.9635 16.7491C11.8726 16.712 11.79 16.6572 11.7203 16.588C11.6506 16.5187 11.5953 16.4364 11.5575 16.3458C11.5197 16.2551 11.5001 16.1579 11.5 16.0597V16.0497C11.501 15.9016 11.5458 15.7571 11.6288 15.6344C11.7118 15.5117 11.8293 15.4163 11.9664 15.3603C12.1036 15.3043 12.2542 15.2902 12.3994 15.3197C12.5445 15.3492 12.6777 15.421 12.7821 15.5261C12.8865 15.6312 12.9574 15.7649 12.9859 15.9102C13.0145 16.0555 12.9993 16.2061 12.9424 16.3428C12.8855 16.4796 12.7894 16.5964 12.6662 16.6786C12.5429 16.7608 12.3981 16.8047 12.25 16.8047Z" fill="black"/>
<path d="M12.25 13.9332C12.0511 13.9332 11.8603 13.8542 11.7197 13.7136C11.579 13.5729 11.5 13.3822 11.5 13.1832V10.0312C11.5 9.83234 11.579 9.64157 11.7197 9.50092C11.8603 9.36026 12.0511 9.28125 12.25 9.28125C12.4489 9.28125 12.6397 9.36026 12.7803 9.50092C12.921 9.64157 13 9.83234 13 10.0312V13.1832C13 13.3822 12.921 13.5729 12.7803 13.7136C12.6397 13.8542 12.4489 13.9332 12.25 13.9332Z" fill="black"/>
<path d="M19.8115 9.26651H17.0715C16.1954 9.26307 15.3564 8.91277 14.7379 8.29227C14.1195 7.67176 13.772 6.83157 13.7715 5.95551V3.0625C13.7715 2.86359 13.8505 2.67283 13.9911 2.53218C14.1318 2.39153 14.3226 2.3125 14.5215 2.3125C14.7204 2.3125 14.9112 2.39153 15.0518 2.53218C15.1925 2.67283 15.2715 2.86359 15.2715 3.0625V5.95551C15.2715 6.43477 15.4615 6.89451 15.7998 7.23396C16.1381 7.57342 16.5972 7.76492 17.0765 7.76651H19.8145C20.0134 7.76651 20.2042 7.84552 20.3448 7.98618C20.4855 8.12683 20.5645 8.3176 20.5645 8.51651C20.5645 8.71542 20.4855 8.90618 20.3448 9.04683C20.2042 9.18748 20.0134 9.26651 19.8145 9.26651H19.8115Z" fill="black"/>
</svg>