<svg width="25" height="24" viewBox="0 0 25 24" fill="none" xmlns="http://www.w3.org/2000/svg">
<path d="M14.2855 3.00003C14.844 3.00003 15.3782 3.2277 15.7644 3.63051L19.5561 7.5798C19.922 7.96121 20.1273 8.47007 20.1273 8.99937V17.1645C20.1418 19.2195 18.5238 20.9163 16.4699 21C16.4699 21 8.57419 21 8.54403 20.999C6.4716 20.9533 4.82825 19.237 4.87398 17.1645V6.65743C4.92263 4.61808 6.59419 2.99224 8.63451 3.00003H14.2855Z" stroke="black" stroke-width="1.5" stroke-linecap="round" stroke-linejoin="round"/>
<path d="M14.7686 3.0625V5.95514C14.7676 7.36693 15.9108 8.51211 17.3226 8.51601H20.0615" stroke="black" stroke-width="1.5" stroke-linecap="round" stroke-linejoin="round"/>
<path opacity="0.4" d="M13.4628 12.2383L15.6004 14.3759L13.4297 16.5456" stroke="black" stroke-width="1.5" stroke-linecap="round" stroke-linejoin="round"/>
<path opacity="0.4" d="M11.1288 10.2266L8.99121 12.3642L11.1619 14.5339" stroke="black" stroke-width="1.5" stroke-linecap="round" stroke-linejoin="round"/>
</svg>