<svg width="24" height="24" viewBox="0 0 24 24" fill="none" xmlns="http://www.w3.org/2000/svg">
<path fill-rule="evenodd" clip-rule="evenodd" d="M16.7683 7.23627C17.4413 7.24327 18.3763 7.24627 19.1693 7.24327C19.5753 7.24227 19.7813 6.75227 19.5003 6.45627C18.9913 5.92227 18.2823 5.17727 17.5703 4.42927C16.8553 3.67827 16.1373 2.92427 15.6153 2.37627C15.3263 2.07327 14.8223 2.28127 14.8223 2.70127V5.27027C14.8223 6.34827 15.7013 7.23627 16.7683 7.23627Z" fill="black"/>
<path fill-rule="evenodd" clip-rule="evenodd" d="M11.6682 14.6304H6.9392C6.5242 14.6304 6.1892 14.2944 6.1892 13.8804C6.1892 13.4664 6.5242 13.1304 6.9392 13.1304H11.6682C12.0822 13.1304 12.4182 13.4664 12.4182 13.8804C12.4182 14.2944 12.0822 14.6304 11.6682 14.6304ZM6.9382 9.00236H9.4072C9.8212 9.00236 10.1572 9.33836 10.1572 9.75236C10.1572 10.1664 9.8212 10.5024 9.4072 10.5024H6.9382C6.5232 10.5024 6.1882 10.1664 6.1882 9.75236C6.1882 9.33836 6.5232 9.00236 6.9382 9.00236ZM14.9952 13.3664C15.8352 11.9074 17.7062 11.4044 19.1692 12.2464L19.9492 12.6974C19.9812 12.7154 20.0062 12.7404 20.0362 12.7604V9.09836C20.0362 8.85536 19.8432 8.66036 19.6022 8.66036H16.6402C14.8742 8.65036 13.4172 7.18836 13.4172 5.40536V2.26636C13.4172 2.02336 13.2242 1.81836 12.9732 1.81836H7.8202C5.4182 1.81836 3.4682 3.79636 3.4682 6.21336V16.7194C3.4682 19.2534 5.5142 21.3104 8.0232 21.3104H12.3572C12.3192 21.1964 12.2742 21.0854 12.2502 20.9664L12.1162 20.2974C11.9322 19.3654 12.0912 18.3984 12.5652 17.5734L14.9952 13.3664Z" fill="black"/>
<path fill-rule="evenodd" clip-rule="evenodd" d="M18.9916 15.731L16.5636 19.936C16.4216 20.182 16.1946 20.368 15.9276 20.46L15.2526 20.666L15.1186 19.994C15.0636 19.716 15.1116 19.426 15.2536 19.18L17.6816 14.974C17.7386 14.876 17.8426 14.821 17.9476 14.821C17.9996 14.821 18.0526 14.834 18.0996 14.862L18.8796 15.312C19.0256 15.397 19.0756 15.585 18.9916 15.731ZM19.6296 14.013L18.8486 13.563C17.9896 13.066 16.8816 13.362 16.3836 14.224L13.9536 18.431C13.6306 18.993 13.5216 19.652 13.6476 20.287L13.7816 20.958C13.8656 21.387 14.1326 21.758 14.5116 21.978C14.7446 22.112 15.0076 22.181 15.2706 22.181C15.4346 22.181 15.5986 22.154 15.7576 22.101L16.4086 21.88C17.0216 21.671 17.5386 21.248 17.8626 20.686L20.2916 16.48C20.7876 15.617 20.4906 14.511 19.6296 14.013Z" fill="black"/>
</svg>