<svg width="25" height="24" viewBox="0 0 25 24" fill="none" xmlns="http://www.w3.org/2000/svg">
<path d="M16.2502 21.75H8.29417C7.70148 21.7396 7.11668 21.6122 6.57336 21.3752C6.03005 21.1381 5.53893 20.796 5.12821 20.3685C4.7175 19.9411 4.39528 19.4367 4.18007 18.8844C3.96487 18.3321 3.86091 17.7426 3.87417 17.15V6.657C3.90428 5.48264 4.39011 4.36607 5.22886 3.54356C6.0676 2.72106 7.19345 2.25715 8.36817 2.25H14.0362C14.4134 2.25074 14.7866 2.32735 15.1337 2.47527C15.4807 2.62318 15.7944 2.83937 16.0562 3.11099L19.8502 7.06C20.3507 7.58151 20.629 8.27715 20.6262 9V17.165C20.6377 18.3487 20.1868 19.4901 19.3695 20.3464C18.5523 21.2027 17.4331 21.7063 16.2502 21.75ZM8.37117 3.75C7.58927 3.75279 6.83909 4.05954 6.27924 4.60539C5.71939 5.15125 5.39375 5.89342 5.37117 6.675V17.163C5.35974 17.5589 5.4268 17.9531 5.56851 18.323C5.71021 18.6928 5.92374 19.0309 6.19679 19.3178C6.46983 19.6047 6.79699 19.8347 7.15937 19.9946C7.52175 20.1544 7.9122 20.2408 8.30817 20.249H16.2202C17.01 20.2132 17.7548 19.8716 18.2972 19.2964C18.8396 18.7212 19.1369 17.9575 19.1262 17.167V9C19.1264 8.66467 18.9971 8.34222 18.7652 8.10001L14.9732 4.151C14.8517 4.02504 14.7062 3.92473 14.5452 3.85602C14.3843 3.78731 14.2112 3.75161 14.0362 3.75101H8.37117V3.75Z" fill="black"/>
<path d="M19.8134 9.26651H17.0734C16.1975 9.26255 15.3588 8.91208 14.7405 8.29169C14.1222 7.6713 13.7745 6.83141 13.7734 5.95551V3.0625C13.7734 2.86359 13.8525 2.67283 13.9931 2.53218C14.1338 2.39153 14.3245 2.3125 14.5234 2.3125C14.7223 2.3125 14.9131 2.39153 15.0538 2.53218C15.1944 2.67283 15.2734 2.86359 15.2734 3.0625V5.95551C15.274 6.43461 15.4641 6.89404 15.8023 7.23338C16.1405 7.57273 16.5993 7.7644 17.0784 7.76651H19.8164C20.0153 7.76651 20.2061 7.84552 20.3468 7.98618C20.4874 8.12683 20.5664 8.3176 20.5664 8.51651C20.5664 8.71542 20.4874 8.90618 20.3468 9.04683C20.2061 9.18748 20.0153 9.26651 19.8164 9.26651H19.8134Z" fill="black"/>
<path d="M9.86523 18.5586C9.76702 18.5591 9.66966 18.5402 9.57876 18.503C9.48785 18.4659 9.40518 18.4111 9.3355 18.3419C9.26582 18.2727 9.21049 18.1904 9.17269 18.0997C9.13489 18.009 9.11536 17.9118 9.11523 17.8136V17.8036C9.11622 17.6555 9.16105 17.511 9.24406 17.3883C9.32706 17.2656 9.44454 17.1703 9.58167 17.1143C9.7188 17.0583 9.86944 17.0441 10.0146 17.0736C10.1597 17.1031 10.2929 17.1749 10.3973 17.28C10.5017 17.3851 10.5726 17.5188 10.6012 17.6641C10.6297 17.8095 10.6146 17.96 10.5577 18.0968C10.5007 18.2335 10.4046 18.3503 10.2814 18.4325C10.1582 18.5147 10.0134 18.5586 9.86523 18.5586Z" fill="black"/>
<path d="M9.86523 15.6289C9.76702 15.6294 9.66966 15.6106 9.57876 15.5734C9.48785 15.5362 9.40518 15.4814 9.3355 15.4122C9.26582 15.343 9.21049 15.2607 9.17269 15.17C9.13489 15.0794 9.11536 14.9821 9.11523 14.8839V14.8739C9.11622 14.7258 9.16105 14.5813 9.24406 14.4586C9.32706 14.3359 9.44454 14.2406 9.58167 14.1846C9.7188 14.1286 9.86944 14.1144 10.0146 14.1439C10.1597 14.1734 10.2929 14.2453 10.3973 14.3504C10.5017 14.4554 10.5726 14.5891 10.6012 14.7344C10.6297 14.8798 10.6146 15.0303 10.5577 15.1671C10.5007 15.3038 10.4046 15.4207 10.2814 15.5028C10.1582 15.585 10.0134 15.6289 9.86523 15.6289Z" fill="black"/>
<path d="M9.86523 6.84765C9.76702 6.84818 9.66966 6.8293 9.57876 6.79211C9.48785 6.75492 9.40518 6.70015 9.3355 6.63093C9.26582 6.56171 9.21049 6.47942 9.17269 6.38876C9.13489 6.29811 9.11536 6.20088 9.11523 6.10266V6.09265C9.11622 5.94453 9.16105 5.80003 9.24406 5.67735C9.32706 5.55467 9.44454 5.45932 9.58167 5.40332C9.7188 5.34732 9.86944 5.33318 10.0146 5.36268C10.1597 5.39218 10.2929 5.464 10.3973 5.56909C10.5017 5.67418 10.5726 5.80782 10.6012 5.95317C10.6297 6.09852 10.6146 6.24906 10.5577 6.38582C10.5007 6.52257 10.4046 6.63941 10.2814 6.7216C10.1582 6.80379 10.0134 6.84765 9.86523 6.84765Z" fill="black"/>
<path d="M9.86523 9.77344C9.76702 9.77396 9.66966 9.7551 9.57876 9.71791C9.48785 9.68072 9.40518 9.62593 9.3355 9.55671C9.26582 9.4875 9.21049 9.4052 9.17269 9.31454C9.13489 9.22389 9.11536 9.12666 9.11523 9.02844V9.01845C9.11622 8.87033 9.16105 8.72581 9.24406 8.60313C9.32706 8.48045 9.44454 8.3851 9.58167 8.3291C9.7188 8.2731 9.86944 8.25896 10.0146 8.28847C10.1597 8.31797 10.2929 8.38979 10.3973 8.49487C10.5017 8.59996 10.5726 8.7336 10.6012 8.87895C10.6297 9.0243 10.6146 9.17484 10.5577 9.3116C10.5007 9.44835 10.4046 9.56519 10.2814 9.64738C10.1582 9.72957 10.0134 9.77343 9.86523 9.77344Z" fill="black"/>
<path d="M9.86523 12.6992C9.76702 12.6997 9.66966 12.6809 9.57876 12.6437C9.48785 12.6065 9.40518 12.5517 9.3355 12.4825C9.26582 12.4133 9.21049 12.331 9.17269 12.2403C9.13489 12.1497 9.11536 12.0524 9.11523 11.9542V11.9442C9.11622 11.7961 9.16105 11.6516 9.24406 11.5289C9.32706 11.4062 9.44454 11.3109 9.58167 11.2549C9.7188 11.1989 9.86944 11.1847 10.0146 11.2142C10.1597 11.2437 10.2929 11.3156 10.3973 11.4207C10.5017 11.5257 10.5726 11.6594 10.6012 11.8047C10.6297 11.9501 10.6146 12.1006 10.5577 12.2374C10.5007 12.3741 10.4046 12.491 10.2814 12.5732C10.1582 12.6554 10.0134 12.6992 9.86523 12.6992Z" fill="black"/>
</svg>