<svg width="24" height="24" viewBox="0 0 24 24" fill="none" xmlns="http://www.w3.org/2000/svg">
<path opacity="0.4" fill-rule="evenodd" clip-rule="evenodd" d="M19.8535 9.094H16.8895C15.1235 9.085 13.6655 7.622 13.6655 5.838V2.698C13.6655 2.455 13.4725 2.25 13.2215 2.25H8.06649C5.66249 2.25 3.71249 4.229 3.71249 6.647V17.158C3.71249 19.693 5.75949 21.75 8.26949 21.75H15.9435C18.3475 21.75 20.2875 19.79 20.2875 17.372V9.533C20.2875 9.289 20.0945 9.094 19.8535 9.094Z" fill="black"/>
<path fill-rule="evenodd" clip-rule="evenodd" d="M17.0158 7.67175C17.6888 7.67875 18.6238 7.68175 19.4168 7.67875C19.8228 7.67775 20.0288 7.18775 19.7478 6.89175C19.2388 6.35775 18.5298 5.61275 17.8178 4.86475C17.1028 4.11375 16.3848 3.35975 15.8628 2.81175C15.5738 2.50875 15.0698 2.71675 15.0698 3.13675V5.70575C15.0698 6.78375 15.9488 7.67175 17.0158 7.67175Z" fill="black"/>
<path fill-rule="evenodd" clip-rule="evenodd" d="M11.479 16.8574L14.522 13.5394C15.164 12.8424 15.121 11.7534 14.426 11.1124L13.777 10.5094C13.439 10.1974 12.994 10.0344 12.543 10.0544C12.084 10.0724 11.659 10.2684 11.346 10.6074L8.26202 13.9724C7.92102 14.3544 7.71102 14.8264 7.65602 15.3364L7.57702 16.0654C7.52502 16.5484 7.69802 17.0174 8.05102 17.3514C8.34102 17.6244 8.71402 17.7714 9.10402 17.7714C9.19002 17.7714 9.27702 17.7644 9.36402 17.7494L10.068 17.6314C10.612 17.5414 11.116 17.2644 11.479 16.8574ZM12.6103 11.5527C12.6513 11.5527 12.7073 11.5637 12.7573 11.6097L13.4063 12.2137C13.4953 12.2947 13.5003 12.4337 13.4173 12.5247L10.3663 15.8507C10.2243 16.0107 10.0293 16.1177 9.82027 16.1517L9.06927 16.2277L9.14827 15.4987C9.16827 15.3007 9.24927 15.1177 9.37427 14.9777L12.4503 11.6227C12.5003 11.5677 12.5603 11.5547 12.6013 11.5527H12.6103Z" fill="black"/>
</svg>