<svg width="24" height="24" viewBox="0 0 24 24" fill="none" xmlns="http://www.w3.org/2000/svg">
<path fill-rule="evenodd" clip-rule="evenodd" d="M21.0499 19.4628L19.6199 18.0328C19.6599 17.8328 19.6699 17.6328 19.6699 17.4328V9.59281C19.6699 9.35281 19.4799 9.15281 19.2399 9.15281H16.2699C14.5099 9.14281 13.0499 7.68281 13.0499 5.90281V2.76281C13.0499 2.51281 12.8599 2.31281 12.6099 2.31281H7.44992C6.45992 2.31281 5.53992 2.65281 4.80992 3.22281L4.00992 2.41281C3.71992 2.12281 3.23992 2.12281 2.94992 2.41281C2.65992 2.71281 2.65992 3.18281 2.94992 3.47281L19.9899 20.5228C20.1299 20.6728 20.3299 20.7428 20.5199 20.7428C20.7099 20.7428 20.8999 20.6728 21.0499 20.5228C21.3399 20.2328 21.3399 19.7628 21.0499 19.4628Z" fill="black"/>
<path fill-rule="evenodd" clip-rule="evenodd" d="M16.4 7.73283C17.07 7.73283 18.01 7.74283 18.8 7.73283C19.21 7.73283 19.41 7.24283 19.13 6.95283C18.62 6.41283 17.92 5.67283 17.2 4.92283C16.49 4.17283 15.77 3.42283 15.25 2.87283C14.96 2.56283 14.45 2.77283 14.45 3.19283V5.76283C14.45 6.84283 15.33 7.73283 16.4 7.73283Z" fill="black"/>
<path fill-rule="evenodd" clip-rule="evenodd" d="M3.09991 6.71282V17.2128C3.09991 19.7428 5.14991 21.8028 7.65991 21.8028H15.3299C16.3899 21.8028 17.3699 21.4128 18.1199 20.7728L3.18991 5.83282C3.12991 6.11282 3.09991 6.41282 3.09991 6.71282Z" fill="black"/>
</svg>