<svg width="24" height="24" viewBox="0 0 24 24" fill="none" xmlns="http://www.w3.org/2000/svg">
<path fill-rule="evenodd" clip-rule="evenodd" d="M20.155 9.28578H17.075C15.235 9.27578 13.725 7.75578 13.725 5.90578V2.64578C13.725 2.38578 13.515 2.17578 13.265 2.17578H7.91502C5.41502 2.17578 3.39502 4.23578 3.39502 6.74578V13.866C3.39502 14.0113 3.54579 14.1091 3.68459 14.0663C3.91633 13.9949 4.16323 13.9558 4.41502 13.9558H5.80502C6.75636 13.9558 7.6224 14.28 8.31645 14.8259C8.40891 14.8986 8.54414 14.8831 8.62139 14.7944C9.0753 14.2731 9.74425 13.9458 10.495 13.9458H11.655C12.7384 13.9458 14.4234 14.9558 14.9156 15.2662C14.9971 15.3175 15.1032 15.3065 15.1727 15.2398C15.5235 14.9025 16.584 13.9458 17.325 13.9458H19.825C19.9952 13.9458 20.1653 13.9617 20.328 13.9959C20.4646 14.0247 20.605 13.9268 20.605 13.7872V9.73578C20.605 9.48578 20.395 9.28578 20.155 9.28578Z" fill="black"/>
<path fill-rule="evenodd" clip-rule="evenodd" d="M17.2069 7.80451C17.9059 7.81151 18.8769 7.81451 19.7009 7.81151C20.1229 7.81051 20.3369 7.30151 20.0449 6.99451C19.5159 6.43951 18.7799 5.66651 18.0399 4.88851C17.2979 4.10951 16.5519 3.32551 16.0089 2.75651C15.7099 2.44151 15.1849 2.65751 15.1849 3.09451V5.76251C15.1849 6.88251 16.0979 7.80451 17.2069 7.80451Z" fill="black"/>
<path fill-rule="evenodd" clip-rule="evenodd" d="M5.8099 18.7957H5.1629V17.2027H5.8099C6.2489 17.2027 6.6069 17.5597 6.6069 17.9987C6.6069 18.4387 6.2489 18.7957 5.8099 18.7957ZM5.8099 15.7027H4.4129C3.9989 15.7027 3.6629 16.0387 3.6629 16.4527V21.0677C3.6629 21.4817 3.9989 21.8177 4.4129 21.8177C4.8269 21.8177 5.1629 21.4817 5.1629 21.0677V20.2957H5.8099C7.0769 20.2957 8.1069 19.2657 8.1069 17.9987C8.1069 16.7327 7.0769 15.7027 5.8099 15.7027Z" fill="black"/>
<path fill-rule="evenodd" clip-rule="evenodd" d="M19.827 15.699H17.321C16.907 15.699 16.571 16.035 16.571 16.449V21.075C16.571 21.489 16.907 21.825 17.321 21.825C17.735 21.825 18.071 21.489 18.071 21.075V19.898H19.442C19.856 19.898 20.192 19.562 20.192 19.148C20.192 18.734 19.856 18.398 19.442 18.398H18.071V17.199H19.827C20.241 17.199 20.577 16.863 20.577 16.449C20.577 16.035 20.241 15.699 19.827 15.699Z" fill="black"/>
<path fill-rule="evenodd" clip-rule="evenodd" d="M12.7566 19.8665C12.4606 20.1615 12.0686 20.3245 11.6506 20.3245H11.2446V17.1995H11.6506C12.0686 17.1995 12.4616 17.3615 12.7566 17.6575C13.0516 17.9515 13.2146 18.3445 13.2146 18.7625C13.2146 19.1795 13.0516 19.5715 12.7566 19.8665ZM11.6506 15.6995H10.4946C10.0806 15.6995 9.74463 16.0345 9.74463 16.4495V21.0745C9.74463 21.4895 10.0806 21.8245 10.4946 21.8245H11.6506C12.4686 21.8245 13.2376 21.5065 13.8166 20.9275C14.3956 20.3495 14.7146 19.5805 14.7146 18.7625C14.7146 17.9425 14.3956 17.1735 13.8176 16.5965C13.2386 16.0175 12.4686 15.6995 11.6506 15.6995Z" fill="black"/>
</svg>