<svg width="25" height="24" viewBox="0 0 25 24" fill="none" xmlns="http://www.w3.org/2000/svg">
<path opacity="0.4" fill-rule="evenodd" clip-rule="evenodd" d="M15.3817 13.7198C15.7204 12.6618 15.3243 11.452 14.2138 11.0939C13.6298 10.907 12.9904 11.015 12.4988 11.3829C12.0073 11.0179 11.3718 10.9109 10.7878 11.0939C9.67729 11.452 9.27824 12.6618 9.61694 13.7198C10.1445 15.3958 12.4988 16.6883 12.4988 16.6883C12.4988 16.6883 14.8357 15.4153 15.3817 13.7198Z" stroke="black" stroke-width="1.5" stroke-linecap="round" stroke-linejoin="round"/>
<path d="M14.2857 3.00004C14.8434 3.00004 15.3777 3.22681 15.7641 3.62975L19.555 7.57935C19.922 7.96088 20.1264 8.46991 20.1264 8.99937V17.1633C20.141 19.2199 18.5234 20.9163 16.4697 21L8.54424 20.999C6.47114 20.9533 4.82823 19.2364 4.87398 17.1633V6.65667C4.92264 4.61764 6.59378 2.99128 8.63379 3.00004H14.2857Z" stroke="black" stroke-width="1.5" stroke-linecap="round" stroke-linejoin="round"/>
<path opacity="0.4" d="M14.7686 3.0625V5.95511C14.7676 7.36637 15.9102 8.51291 17.3225 8.51583H20.0613" stroke="black" stroke-width="1.5" stroke-linecap="round" stroke-linejoin="round"/>
</svg>