<svg width="24" height="24" viewBox="0 0 24 24" fill="none" xmlns="http://www.w3.org/2000/svg">
<path fill-rule="evenodd" clip-rule="evenodd" d="M21.05 19.4628L19.62 18.0328C19.66 17.8328 19.67 17.6328 19.67 17.4328V9.59281C19.67 9.35281 19.48 9.15281 19.24 9.15281H16.27C14.51 9.14281 13.05 7.68281 13.05 5.90281V2.76281C13.05 2.51281 12.86 2.31281 12.61 2.31281H7.44998C6.45998 2.31281 5.53998 2.65281 4.80998 3.22281L4.00998 2.41281C3.71998 2.12281 3.23998 2.12281 2.94998 2.41281C2.65998 2.71281 2.65998 3.18281 2.94998 3.47281L19.99 20.5228C20.13 20.6728 20.33 20.7428 20.52 20.7428C20.71 20.7428 20.9 20.6728 21.05 20.5228C21.34 20.2328 21.34 19.7628 21.05 19.4628Z" fill="black"/>
<path fill-rule="evenodd" clip-rule="evenodd" d="M16.4 7.73283C17.07 7.73283 18.01 7.74283 18.8 7.73283C19.21 7.73283 19.41 7.24283 19.13 6.95283C18.62 6.41283 17.92 5.67283 17.2 4.92283C16.49 4.17283 15.77 3.42283 15.25 2.87283C14.96 2.56283 14.45 2.77283 14.45 3.19283V5.76283C14.45 6.84283 15.33 7.73283 16.4 7.73283Z" fill="black"/>
<path opacity="0.4" fill-rule="evenodd" clip-rule="evenodd" d="M3.09998 6.71203V17.212C3.09998 19.742 5.14998 21.802 7.65998 21.802H15.33C16.39 21.802 17.37 21.412 18.12 20.772L3.18998 5.83203C3.12998 6.11203 3.09998 6.41203 3.09998 6.71203Z" fill="black"/>
</svg>