<svg width="24" height="24" viewBox="0 0 24 24" fill="none" xmlns="http://www.w3.org/2000/svg">
<path fill-rule="evenodd" clip-rule="evenodd" d="M8.2367 3.75C6.49864 3.75 5.08984 5.1588 5.08984 6.89686V16.1316C5.08984 17.8696 6.49864 19.2784 8.2367 19.2784H10.6887C11.1029 19.2784 11.4387 19.6142 11.4387 20.0284C11.4387 20.4427 11.1029 20.7784 10.6887 20.7784H8.2367C5.67022 20.7784 3.58984 18.6981 3.58984 16.1316V6.89686C3.58984 4.33037 5.67022 2.25 8.2367 2.25H14.9504C17.5169 2.25 19.5972 4.33037 19.5972 6.89686V10.0805C19.5972 10.4947 19.2615 10.8305 18.8472 10.8305C18.433 10.8305 18.0972 10.4947 18.0972 10.0805V6.89686C18.0972 5.1588 16.6884 3.75 14.9504 3.75H8.2367Z" fill="black"/>
<path fill-rule="evenodd" clip-rule="evenodd" d="M7.61033 8.65625C7.61033 8.24204 7.94611 7.90625 8.36033 7.90625H12.2445C12.6587 7.90625 12.9945 8.24204 12.9945 8.65625C12.9945 9.07046 12.6587 9.40625 12.2445 9.40625H8.36033C7.94611 9.40625 7.61033 9.07046 7.61033 8.65625ZM7.60938 12.8533C7.60938 12.439 7.94516 12.1033 8.35938 12.1033H9.94536C10.3596 12.1033 10.6954 12.439 10.6954 12.8533C10.6954 13.2675 10.3596 13.6033 9.94536 13.6033H8.35938C7.94516 13.6033 7.60938 13.2675 7.60938 12.8533Z" fill="black"/>
<path d="M16.4297 21.6004C16.1981 21.601 15.9686 21.556 15.7545 21.4678C15.5403 21.3796 15.3457 21.25 15.1817 21.0864L14.8487 20.7544C14.7976 20.7039 14.7286 20.6755 14.6567 20.6754H14.1917C13.7215 20.6746 13.2708 20.4875 12.9385 20.1549C12.6061 19.8224 12.4192 19.3716 12.4187 18.9014V18.4334C12.4191 18.3963 12.4121 18.3595 12.398 18.3251C12.3839 18.2908 12.3631 18.2596 12.3367 18.2334L12.0147 17.9114C11.683 17.5806 11.4958 17.1318 11.4942 16.6633C11.4925 16.1948 11.6764 15.7447 12.0057 15.4114L12.0357 15.3824L12.3357 15.0824C12.3864 15.0314 12.4148 14.9624 12.4147 14.8904V14.4254C12.4155 13.9555 12.6024 13.5051 12.9345 13.1726C13.2665 12.8402 13.7168 12.6528 14.1867 12.6514H14.6537C14.7259 12.6514 14.7952 12.623 14.8467 12.5724L15.1697 12.2494C15.5014 11.9163 15.9517 11.7283 16.4218 11.7266C16.892 11.7249 17.3436 11.9097 17.6777 12.2404L18.0087 12.5714C18.0338 12.5968 18.0637 12.617 18.0966 12.6307C18.1296 12.6445 18.165 12.6515 18.2007 12.6514H18.6677C19.138 12.652 19.5889 12.839 19.9215 13.1716C20.2541 13.5042 20.4411 13.9551 20.4417 14.4254V14.8914C20.442 14.9631 20.47 15.0318 20.5197 15.0834L20.8457 15.4094C21.1779 15.7415 21.3649 16.1916 21.366 16.6612C21.3672 17.1308 21.1822 17.5818 20.8517 17.9154L20.5187 18.2484C20.4694 18.2989 20.4421 18.3669 20.4427 18.4374V18.9054C20.4422 19.3754 20.2552 19.826 19.9227 20.1582C19.5903 20.4904 19.1397 20.6772 18.6697 20.6774H18.1997C18.1645 20.6773 18.1295 20.6841 18.0969 20.6975C18.0643 20.7109 18.0347 20.7306 18.0097 20.7554L17.6807 21.0824C17.5175 21.2476 17.3232 21.3788 17.109 21.4684C16.8947 21.558 16.6649 21.6043 16.4327 21.6044L16.4297 21.6004ZM13.0577 16.4804C13.0126 16.533 12.989 16.6007 12.9918 16.6699C12.9946 16.7391 13.0235 16.8047 13.0727 16.8534L13.4007 17.1824C13.7322 17.5144 13.9185 17.9643 13.9187 18.4334V18.9014C13.9187 18.9739 13.9474 19.0435 13.9986 19.0948C14.0498 19.1462 14.1192 19.1752 14.1917 19.1754H14.6567C15.1255 19.1763 15.575 19.3621 15.9077 19.6924L16.2327 20.0164C16.2588 20.043 16.2899 20.064 16.3243 20.0782C16.3586 20.0925 16.3955 20.0997 16.4327 20.0994C16.4683 20.0997 16.5036 20.0927 16.5364 20.079C16.5692 20.0652 16.5989 20.045 16.6237 20.0194L16.9547 19.6894C17.1185 19.525 17.3135 19.3948 17.528 19.3062C17.7426 19.2176 17.9725 19.1725 18.2047 19.1734H18.6737C18.7097 19.1736 18.7454 19.1666 18.7787 19.1528C18.812 19.1391 18.8422 19.1189 18.8677 19.0934C18.9188 19.0418 18.9475 18.9721 18.9477 18.8994V18.4334C18.9467 17.9654 19.1315 17.5162 19.4617 17.1844L19.7907 16.8554C19.8163 16.8299 19.8365 16.7996 19.8504 16.7662C19.8642 16.7328 19.8713 16.6971 19.8713 16.6609C19.8713 16.6248 19.8642 16.589 19.8504 16.5557C19.8365 16.5223 19.8163 16.492 19.7907 16.4664L19.4637 16.1384C19.2992 15.9744 19.1688 15.7794 19.08 15.5647C18.9913 15.3499 18.946 15.1198 18.9467 14.8874V14.4214C18.9467 14.3488 18.9179 14.2791 18.8665 14.2277C18.8151 14.1763 18.7453 14.1474 18.6727 14.1474H18.2057C17.9733 14.1481 17.743 14.1027 17.5283 14.0138C17.3135 13.9249 17.1186 13.7942 16.9547 13.6294L16.6297 13.3064L16.6147 13.2924C16.5646 13.2471 16.4993 13.2221 16.4317 13.2224C16.3959 13.2223 16.3603 13.2294 16.3272 13.2431C16.294 13.2568 16.264 13.277 16.2387 13.3024L15.9127 13.6294C15.5793 13.9601 15.1292 14.1462 14.6597 14.1474H14.1937C14.1212 14.1477 14.0517 14.1767 14.0006 14.228C13.9494 14.2794 13.9207 14.3489 13.9207 14.4214V14.8874C13.921 15.1196 13.8756 15.3495 13.7869 15.564C13.6982 15.7785 13.5679 15.9734 13.4037 16.1374L13.0787 16.4634L13.0577 16.4804ZM15.9557 18.3904C15.857 18.3904 15.7593 18.3708 15.6682 18.3329C15.577 18.2949 15.4943 18.2394 15.4247 18.1694L14.5047 17.2474C14.3683 17.1058 14.2929 16.9162 14.2949 16.7196C14.2969 16.5229 14.376 16.3349 14.5153 16.1961C14.6545 16.0572 14.8428 15.9786 15.0394 15.9772C15.2361 15.9757 15.4254 16.0516 15.5667 16.1884L15.9567 16.5784L17.3227 15.2124C17.4641 15.0758 17.6535 15.0001 17.8502 15.0017C18.0468 15.0033 18.2349 15.0821 18.374 15.2211C18.5132 15.3601 18.5921 15.5481 18.5939 15.7448C18.5957 15.9414 18.5202 16.1309 18.3837 16.2724L16.4837 18.1724C16.3433 18.3118 16.1535 18.3902 15.9557 18.3904Z" fill="black"/>
</svg>