<svg width="24" height="24" viewBox="0 0 24 24" fill="none" xmlns="http://www.w3.org/2000/svg">
<path opacity="0.4" fill-rule="evenodd" clip-rule="evenodd" d="M9.00063 13.4887H7.41463C7.00063 13.4887 6.66463 13.1527 6.66463 12.7387C6.66463 12.3247 7.00063 11.9887 7.41463 11.9887H9.00063C9.41463 11.9887 9.75063 12.3247 9.75063 12.7387C9.75063 13.1527 9.41463 13.4887 9.00063 13.4887ZM7.41563 7.79272H11.3006C11.7146 7.79272 12.0506 8.12872 12.0506 8.54272C12.0506 8.95672 11.7146 9.29272 11.3006 9.29272H7.41563C7.00163 9.29272 6.66563 8.95672 6.66563 8.54272C6.66563 8.12872 7.00163 7.79272 7.41563 7.79272ZM11.3776 18.8987L11.1916 18.7117C10.7196 18.2437 10.4546 17.6117 10.4516 16.9387C10.4476 16.2637 10.7076 15.6297 11.1826 15.1507C11.1936 15.1377 11.2056 15.1267 11.2176 15.1147L11.3776 14.9557V14.6887C11.3776 13.2997 12.5086 12.1667 13.8986 12.1647H14.1706L14.3526 11.9827C14.8216 11.5077 15.4546 11.2417 16.1286 11.2387H16.1406C16.8116 11.2387 17.4426 11.4987 17.9186 11.9717C17.9306 11.9827 17.9416 11.9947 17.9526 12.0067L18.1116 12.1647H18.3806C18.6156 12.1647 18.8386 12.2067 19.0546 12.2677V7.15972C19.0546 4.73472 17.0816 2.76172 14.6576 2.76172H7.94363C5.51963 2.76172 3.54663 4.73472 3.54663 7.15972V16.3947C3.54663 18.8187 5.51963 20.7907 7.94363 20.7907H11.9846C11.6116 20.3507 11.3776 19.7887 11.3776 19.1687V18.8987Z" fill="black"/>
<path fill-rule="evenodd" clip-rule="evenodd" d="M17.8937 16.553L16.1677 18.28C16.0457 18.401 15.8807 18.47 15.7077 18.47C15.5357 18.469 15.3697 18.401 15.2477 18.279L14.4107 17.439C14.1567 17.185 14.1577 16.773 14.4117 16.52C14.6657 16.265 15.0777 16.268 15.3307 16.521L15.7087 16.9L16.9747 15.633C17.2277 15.379 17.6397 15.379 17.8937 15.633C18.1477 15.887 18.1477 16.299 17.8937 16.553ZM20.0327 15.914L19.7367 15.618C19.6577 15.538 19.6117 15.428 19.6117 15.314V14.891C19.6117 14.101 18.9697 13.458 18.1797 13.458H17.7547C17.6407 13.458 17.5327 13.414 17.4517 13.333L17.1497 13.032C16.8777 12.762 16.5387 12.589 16.1337 12.616C15.7517 12.618 15.3927 12.769 15.1257 13.039L14.8317 13.333C14.7507 13.414 14.6427 13.458 14.5267 13.458H14.1017C13.3137 13.46 12.6717 14.102 12.6717 14.89L12.6707 15.313C12.6707 15.426 12.6247 15.537 12.5457 15.617L12.2727 15.892C12.2617 15.901 12.2517 15.909 12.2427 15.919C11.9737 16.191 11.8257 16.551 11.8277 16.934C11.8297 17.316 11.9797 17.675 12.2487 17.941L12.5447 18.239C12.6267 18.321 12.6717 18.428 12.6717 18.541V18.968C12.6717 19.757 13.3137 20.4 14.1027 20.4H14.5257C14.6387 20.4 14.7487 20.446 14.8287 20.524L15.1317 20.826C15.4017 21.094 15.7597 21.241 16.1397 21.241H16.1447C16.5277 21.24 16.8867 21.089 17.1527 20.821L17.4517 20.523C17.5317 20.442 17.6397 20.398 17.7537 20.398H18.1817C18.9697 20.398 19.6117 19.757 19.6127 18.968V18.542C19.6127 18.428 19.6577 18.32 19.7357 18.24L20.0377 17.939C20.5937 17.379 20.5917 16.471 20.0327 15.914Z" fill="black"/>
<path fill-rule="evenodd" clip-rule="evenodd" d="M9.00063 13.489H7.41463C7.00063 13.489 6.66463 13.153 6.66463 12.739C6.66463 12.325 7.00063 11.989 7.41463 11.989H9.00063C9.41463 11.989 9.75063 12.325 9.75063 12.739C9.75063 13.153 9.41463 13.489 9.00063 13.489ZM7.41563 7.79297H11.3006C11.7146 7.79297 12.0506 8.12897 12.0506 8.54297C12.0506 8.95697 11.7146 9.29297 11.3006 9.29297H7.41563C7.00163 9.29297 6.66563 8.95697 6.66563 8.54297C6.66563 8.12897 7.00163 7.79297 7.41563 7.79297Z" fill="black"/>
</svg>