<svg width="24" height="24" viewBox="0 0 24 24" fill="none" xmlns="http://www.w3.org/2000/svg">
<path fill-rule="evenodd" clip-rule="evenodd" d="M11.5435 12.3625L11.1555 11.5825L10.7625 12.3725C10.6095 12.6745 10.3245 12.8825 9.99652 12.9335L9.12152 13.0605L9.74652 13.6605C9.99252 13.9065 10.1005 14.2435 10.0455 14.5715L9.89452 15.4345L10.6845 15.0215C10.9785 14.8585 11.3485 14.8595 11.6565 15.0305L12.4185 15.4295L12.2695 14.5795C12.2065 14.2515 12.3165 13.9045 12.5675 13.6625L13.1895 13.0605L12.3235 12.9355C11.9825 12.8865 11.6905 12.6725 11.5435 12.3625Z" fill="black"/>
<path fill-rule="evenodd" clip-rule="evenodd" d="M17.0154 7.67162C17.6884 7.67862 18.6234 7.68162 19.4164 7.67862C19.8224 7.67762 20.0284 7.18762 19.7474 6.89162C19.2384 6.35762 18.5294 5.61262 17.8174 4.86462C17.1024 4.11362 16.3844 3.35962 15.8624 2.81162C15.5734 2.50862 15.0694 2.71662 15.0694 3.13662V5.70562C15.0694 6.78362 15.9484 7.67162 17.0154 7.67162Z" fill="black"/>
<path fill-rule="evenodd" clip-rule="evenodd" d="M14.921 13.4739L13.79 14.5669L14.063 16.1199C14.151 16.6869 13.773 17.2109 13.22 17.3039C12.991 17.3399 12.77 17.3039 12.574 17.2039L11.161 16.4649L9.744 17.2049C9.589 17.2839 9.424 17.3219 9.264 17.3219C8.898 17.3219 8.549 17.1279 8.361 16.7869C8.251 16.5759 8.213 16.3469 8.249 16.1289L8.524 14.5659L7.38 13.4659C7.175 13.2629 7.068 13.0049 7.068 12.7299C7.068 12.4549 7.175 12.1969 7.37 12.0029C7.541 11.8469 7.723 11.7559 7.921 11.7189L9.528 11.4859L10.233 10.0699C10.345 9.83091 10.566 9.63691 10.832 9.54991C11.094 9.46491 11.381 9.48791 11.624 9.61291C11.804 9.69791 11.974 9.86291 12.076 10.0659C12.077 10.0669 12.077 10.0679 12.078 10.0699L12.783 11.4869L14.359 11.7139C14.619 11.7499 14.858 11.8859 15.025 12.0959C15.354 12.5279 15.305 13.1139 14.921 13.4739ZM19.849 9.09491H16.887C15.121 9.08591 13.664 7.62391 13.664 5.83991V2.70191C13.664 2.45791 13.471 2.25391 13.22 2.25391H8.067C5.665 2.25391 3.716 4.23191 3.716 6.64891V17.1549C3.716 19.6889 5.761 21.7449 8.27 21.7449H15.941C18.344 21.7449 20.284 19.7859 20.284 17.3699V9.53391C20.284 9.28991 20.091 9.09491 19.849 9.09491Z" fill="black"/>
</svg>