<svg width="24" height="24" viewBox="0 0 24 24" fill="none" xmlns="http://www.w3.org/2000/svg">
<path fill-rule="evenodd" clip-rule="evenodd" d="M10.7099 14.7828H12.1669L12.3469 13.3588H10.8909L10.7099 14.7828Z" fill="black"/>
<path fill-rule="evenodd" clip-rule="evenodd" d="M17.0155 7.67193C17.6885 7.67893 18.6235 7.68193 19.4165 7.67893C19.8225 7.67793 20.0285 7.18793 19.7475 6.89193C19.2385 6.35793 18.5295 5.61293 17.8175 4.86493C17.1025 4.11393 16.3845 3.35993 15.8625 2.81193C15.5735 2.50893 15.0695 2.71693 15.0695 3.13693V5.70593C15.0695 6.78393 15.9485 7.67193 17.0155 7.67193Z" fill="black"/>
<path fill-rule="evenodd" clip-rule="evenodd" d="M14.657 13.3589H13.859L13.678 14.7829H14.399C14.813 14.7829 15.149 15.1189 15.149 15.5329C15.149 15.9469 14.813 16.2829 14.399 16.2829H13.488L13.381 17.1339C13.333 17.5129 13.01 17.7899 12.637 17.7899C12.606 17.7899 12.574 17.7879 12.543 17.7839C12.132 17.7319 11.841 17.3569 11.892 16.9459L11.976 16.2829H10.519L10.412 17.1339C10.36 17.5449 9.988 17.8299 9.573 17.7839C9.163 17.7319 8.872 17.3569 8.924 16.9459L9.008 16.2829H8.38C7.966 16.2829 7.63 15.9469 7.63 15.5329C7.63 15.1189 7.966 14.7829 8.38 14.7829H9.198L9.379 13.3589H8.637C8.223 13.3589 7.887 13.0229 7.887 12.6089C7.887 12.1949 8.223 11.8589 8.637 11.8589H9.569L9.677 11.0089C9.728 10.5979 10.095 10.3049 10.515 10.3589C10.926 10.4109 11.217 10.7869 11.165 11.1969L11.081 11.8589H12.537L12.644 11.0089C12.696 10.5979 13.063 10.3049 13.483 10.3589C13.893 10.4109 14.184 10.7859 14.133 11.1969L14.049 11.8589H14.657C15.071 11.8589 15.407 12.1949 15.407 12.6089C15.407 13.0229 15.071 13.3589 14.657 13.3589ZM19.849 9.09591H16.887C15.121 9.08591 13.664 7.62391 13.664 5.84091V2.70191C13.664 2.45891 13.471 2.25391 13.22 2.25391H8.067C5.665 2.25391 3.716 4.23191 3.716 6.64891V17.1549C3.716 19.6889 5.761 21.7459 8.27 21.7459H15.941C18.344 21.7459 20.284 19.7869 20.284 17.3699V9.53391C20.284 9.29091 20.091 9.09591 19.849 9.09591Z" fill="black"/>
</svg>