<svg width="24" height="24" viewBox="0 0 24 24" fill="none" xmlns="http://www.w3.org/2000/svg">
<path d="M13.1737 14.7635C12.1498 15.7874 10.4903 15.7874 9.46641 14.7635C8.44349 13.7396 8.44349 12.0802 9.46641 11.0563C10.4903 10.0333 12.1498 10.0333 13.1737 11.0563C14.1976 12.0802 14.1976 13.7396 13.1737 14.7635ZM13.1737 14.7635L14.5941 16.1839" stroke="black" stroke-width="1.5" stroke-linecap="round" stroke-linejoin="round"/>
<path d="M4.37398 12.798V6.65667C4.42264 4.61764 6.09378 2.99128 8.13379 3.00004H13.7857C14.3434 3.00004 14.8777 3.22681 15.2641 3.62975L19.055 7.57935C19.422 7.96088 19.6264 8.46991 19.6264 8.99937V17.1633C19.641 19.2199 18.0234 20.9163 15.9697 21L8.04424 20.999C5.97114 20.9533 4.32823 19.2364 4.37398 17.1633V16.2987" stroke="black" stroke-width="1.5" stroke-linecap="round" stroke-linejoin="round"/>
<path d="M14.2686 5.95312C14.2676 7.36439 15.4102 8.51092 16.8225 8.51384H19.5613" stroke="black" stroke-width="1.5" stroke-linecap="round" stroke-linejoin="round"/>
</svg>