<svg width="24" height="24" viewBox="0 0 24 24" fill="none" xmlns="http://www.w3.org/2000/svg">
<path opacity="0.4" fill-rule="evenodd" clip-rule="evenodd" d="M19.85 9.09591C20.091 9.09591 20.284 9.29091 20.284 9.53391V17.3699C20.284 19.7869 18.345 21.7459 15.942 21.7459H8.271C5.762 21.7459 3.716 19.6899 3.716 17.1559V6.64991C3.716 4.23291 5.666 2.25391 8.068 2.25391H13.221C13.472 2.25391 13.665 2.45891 13.665 2.70291V5.84091C13.665 7.62391 15.122 9.08591 16.888 9.09591H19.85Z" fill="black"/>
<path d="M17.016 7.67175C17.689 7.67875 18.624 7.68175 19.417 7.67875C19.823 7.67775 20.03 7.18775 19.748 6.89275C19.239 6.35775 18.53 5.61275 17.818 4.86475C17.103 4.11475 16.385 3.35975 15.863 2.81175C15.575 2.50875 15.07 2.71675 15.07 3.13675V5.70575C15.07 6.78375 15.949 7.67175 17.016 7.67175Z" fill="black"/>
</svg>