<svg width="25" height="24" viewBox="0 0 25 24" fill="none" xmlns="http://www.w3.org/2000/svg">
<path opacity="0.4" fill-rule="evenodd" clip-rule="evenodd" d="M12.7499 10.4517L13.5636 12.0887C13.6044 12.1715 13.6833 12.2289 13.7738 12.2415L15.5958 12.5053C15.6697 12.515 15.7359 12.554 15.7817 12.6124C15.8664 12.7223 15.8537 12.88 15.7515 12.9754L14.4317 14.2514C14.3646 14.3146 14.3344 14.4071 14.3519 14.4976L14.6682 16.2992C14.6906 16.4491 14.5884 16.5882 14.4385 16.6126C14.3772 16.6223 14.314 16.6126 14.2575 16.5843L12.635 15.7347C12.5543 15.6899 12.456 15.6899 12.3752 15.7347L10.7401 16.5892C10.6038 16.6583 10.4364 16.6077 10.3624 16.4734C10.3342 16.4199 10.3235 16.3576 10.3332 16.2982L10.6495 14.4966C10.6651 14.4061 10.6359 14.3146 10.5707 14.2504L9.24314 12.9744C9.1351 12.8664 9.1351 12.6912 9.24314 12.5832C9.28791 12.5423 9.34241 12.516 9.40178 12.5053L11.2238 12.2406C11.3153 12.2269 11.3931 12.1695 11.435 12.0868L12.2477 10.4517C12.2798 10.3855 12.3382 10.3339 12.4083 10.3105C12.4793 10.2881 12.5562 10.293 12.6224 10.3271C12.6769 10.3534 12.7217 10.3972 12.7499 10.4517Z" stroke="black" stroke-width="1.5" stroke-linecap="round" stroke-linejoin="round"/>
<path d="M14.2857 3.00004C14.8434 3.00004 15.3777 3.22681 15.7641 3.62975L19.555 7.57935C19.922 7.96088 20.1264 8.46991 20.1264 8.99937V17.1633C20.141 19.2199 18.5234 20.9163 16.4697 21L8.54424 20.999C6.47114 20.9533 4.82823 19.2364 4.87398 17.1633V6.65667C4.92264 4.61764 6.59378 2.99128 8.63379 3.00004H14.2857Z" stroke="black" stroke-width="1.5" stroke-linecap="round" stroke-linejoin="round"/>
<path opacity="0.4" d="M14.7686 3.0625V5.95511C14.7676 7.36637 15.9102 8.51291 17.3225 8.51583H20.0613" stroke="black" stroke-width="1.5" stroke-linecap="round" stroke-linejoin="round"/>
</svg>