<svg width="24" height="24" viewBox="0 0 24 24" fill="none" xmlns="http://www.w3.org/2000/svg">
<path opacity="0.4" fill-rule="evenodd" clip-rule="evenodd" d="M19.8484 14.851C19.9588 14.851 20.0484 14.7615 20.0484 14.651V6.524C20.0484 4.305 18.2434 2.5 16.0244 2.5H7.97539C5.75639 2.5 3.95139 4.305 3.95139 6.524V14.651C3.95139 14.7615 4.04093 14.851 4.15139 14.851H19.8484Z" fill="black"/>
<path fill-rule="evenodd" clip-rule="evenodd" d="M4.15163 16.3516C4.04117 16.3516 3.95163 16.4411 3.95163 16.5516V17.4756C3.95163 19.6946 5.75663 21.4996 7.97463 21.4996H16.0246C18.2436 21.4996 20.0486 19.6946 20.0486 17.4756V16.5516C20.0486 16.4411 19.9591 16.3516 19.8486 16.3516H4.15163Z" fill="black"/>
<path fill-rule="evenodd" clip-rule="evenodd" d="M9.0824 10.4012H14.9154C15.3294 10.4012 15.6654 10.7372 15.6654 11.1512C15.6654 11.5652 15.3294 11.9012 14.9154 11.9012H9.0824C8.6684 11.9012 8.3324 11.5652 8.3324 11.1512C8.3324 10.7372 8.6684 10.4012 9.0824 10.4012ZM9.0824 6.61719H12.1834C12.5974 6.61719 12.9334 6.95319 12.9334 7.36719C12.9334 7.78119 12.5974 8.11719 12.1834 8.11719H9.0824C8.6684 8.11719 8.3324 7.78119 8.3324 7.36719C8.3324 6.95319 8.6684 6.61719 9.0824 6.61719Z" fill="black"/>
</svg>