<svg width="24" height="25" viewBox="0 0 24 25" fill="none" xmlns="http://www.w3.org/2000/svg">
<path opacity="0.4" fill-rule="evenodd" clip-rule="evenodd" d="M19.8534 9.41822H16.8894C15.1234 9.40922 13.6654 7.94622 13.6654 6.16222V3.02222C13.6654 2.77922 13.4724 2.57422 13.2214 2.57422H8.0664C5.6624 2.57422 3.7124 4.55322 3.7124 6.97122V17.4822C3.7124 20.0172 5.7594 22.0742 8.2694 22.0742H15.9434C18.3474 22.0742 20.2874 20.1142 20.2874 17.6962V9.85722C20.2874 9.61322 20.0944 9.41822 19.8534 9.41822Z" fill="black"/>
<path fill-rule="evenodd" clip-rule="evenodd" d="M17.0158 7.99596C17.6888 8.00296 18.6238 8.00596 19.4168 8.00296C19.8228 8.00196 20.0288 7.51196 19.7478 7.21596C19.2388 6.68196 18.5298 5.93696 17.8178 5.18896C17.1028 4.43796 16.3848 3.68396 15.8628 3.13596C15.5738 2.83296 15.0698 3.04096 15.0698 3.46096V6.02996C15.0698 7.10796 15.9488 7.99596 17.0158 7.99596Z" fill="black"/>
<path fill-rule="evenodd" clip-rule="evenodd" d="M11.5835 10.3086C11.4544 10.3086 11.3204 10.3354 11.235 10.3541C11.1319 10.3767 11.0156 10.4072 10.8956 10.4415C10.6547 10.5103 10.3713 10.6023 10.0962 10.6992C9.82153 10.796 9.54447 10.9014 9.31765 10.9986C9.20508 11.0468 9.09574 11.0969 9.00167 11.146C8.93507 11.1808 8.78793 11.2585 8.67221 11.3742L8.67088 11.3756L8.66276 11.3837C8.61107 11.435 8.47378 11.5714 8.39568 11.7889C8.32817 11.9769 8.32458 12.1707 8.32344 12.2999C8.32243 12.4136 8.32543 12.5649 8.32919 12.7548L8.33271 12.9371C8.33797 13.2233 8.34353 13.6044 8.34353 14.1186C8.34353 15.4984 9.18005 16.4039 9.90026 16.9225C10.265 17.1851 10.6249 17.3686 10.8913 17.4863C11.0256 17.5457 11.1389 17.5895 11.221 17.6193C11.2621 17.6342 11.2955 17.6456 11.3201 17.6537L11.3502 17.6635L11.36 17.6665L11.3635 17.6676L11.3656 17.6682C11.5073 17.7112 11.6592 17.7113 11.8009 17.6684L11.7496 17.4991C11.8012 17.6683 11.8021 17.668 11.8021 17.668L11.8035 17.6676L11.807 17.6665L11.8168 17.6635L11.8469 17.6537C11.8715 17.6456 11.905 17.6342 11.9461 17.6193C12.0281 17.5895 12.1414 17.5457 12.2757 17.4863C12.5422 17.3686 12.9021 17.1851 13.2668 16.9225C13.987 16.4039 14.8235 15.4984 14.8235 14.1186C14.8235 13.6046 14.8291 13.2238 14.8343 12.9378L14.8379 12.7556C14.8416 12.566 14.8446 12.4146 14.8436 12.3011C14.8425 12.1716 14.8388 11.9783 14.7716 11.7906C14.6942 11.5744 14.5584 11.4381 14.5069 11.3864L14.4988 11.3782L14.4948 11.3742C14.3792 11.2586 14.2323 11.1808 14.1653 11.1458C14.0711 11.0966 13.9617 11.0465 13.849 10.9982C13.6221 10.901 13.345 10.7955 13.0704 10.6988C12.7953 10.6019 12.5119 10.5101 12.2711 10.4413C12.1512 10.4071 12.0349 10.3766 11.9319 10.3541C11.8464 10.3353 11.7125 10.3086 11.5835 10.3086ZM11.419 17.4922L11.3656 17.6682C11.3656 17.6682 11.3656 17.6682 11.419 17.4922ZM11.4976 16.1143C11.528 16.1277 11.5567 16.14 11.5835 16.1511C11.6103 16.14 11.639 16.1277 11.6694 16.1143C11.8699 16.0257 12.1325 15.8908 12.3903 15.7052C12.915 15.3273 13.3235 14.8168 13.3235 14.1186C13.3235 13.593 13.3292 13.2026 13.3346 12.9102L13.3385 12.7056C13.3409 12.5843 13.3428 12.4903 13.3435 12.4144C13.3176 12.4027 13.2892 12.3902 13.2583 12.377C13.071 12.2967 12.8268 12.2033 12.5721 12.1136C12.318 12.0241 12.0642 11.9422 11.8594 11.8837C11.7564 11.8543 11.6727 11.8328 11.6111 11.8194L11.5836 11.8136L11.5561 11.8194C11.4944 11.8329 11.4107 11.8544 11.3077 11.8838C11.1027 11.9424 10.8489 12.0244 10.5946 12.114C10.3399 12.2037 10.0955 12.2972 9.90826 12.3774C9.87753 12.3906 9.84929 12.403 9.82356 12.4146C9.82429 12.4904 9.82614 12.5841 9.82852 12.7048L9.83245 12.9095C9.83784 13.2021 9.84353 13.5928 9.84353 14.1186C9.84353 14.8168 10.252 15.3273 10.7768 15.7052C11.0346 15.8908 11.2972 16.0257 11.4976 16.1143Z" fill="black"/>
</svg>