<svg width="25" height="25" viewBox="0 0 25 25" fill="none" xmlns="http://www.w3.org/2000/svg">
<path fill-rule="evenodd" clip-rule="evenodd" d="M11.8335 16.9506C11.8335 16.9506 14.3235 16.1966 14.3235 14.1186C14.3235 12.0396 14.4135 12.1066 14.2145 11.9046C14.0135 11.7036 12.1605 11.0586 11.8335 11.0586C11.5065 11.0586 9.65255 11.7046 9.45255 11.9046C9.25355 12.1046 9.34354 12.0386 9.34354 14.1186C9.34354 16.1966 11.8335 16.9506 11.8335 16.9506Z" stroke="black" stroke-width="1.5" stroke-linecap="round" stroke-linejoin="round"/>
<path d="M11.9307 21.3241L16.219 21.3242C18.273 21.2412 19.89 19.5443 19.877 17.4893V9.32425C19.877 8.79425 19.671 8.28527 19.305 7.90427L15.514 3.95526C15.127 3.55226 14.593 3.32425 14.035 3.32425H8.38402C6.34402 3.31625 4.67197 4.94224 4.62297 6.98224V17.4893C4.57797 19.5613 6.22102 21.2782 8.29302 21.3232H8.79061" stroke="black" stroke-width="1.5" stroke-linecap="round" stroke-linejoin="round"/>
<path d="M14.5186 6.28125C14.5176 7.69225 15.6606 8.83822 17.0726 8.84222H19.8116" stroke="black" stroke-width="1.5" stroke-linecap="round" stroke-linejoin="round"/>
</svg>