<svg width="25" height="24" viewBox="0 0 25 24" fill="none" xmlns="http://www.w3.org/2000/svg">
<path d="M20.082 13.7021C19.883 13.7021 19.6923 13.6231 19.5516 13.4824C19.411 13.3418 19.332 13.151 19.332 12.9521V9.1611C19.3328 8.81106 19.1976 8.47439 18.955 8.22211L15.061 4.16711C14.9344 4.03561 14.7827 3.93092 14.6149 3.85928C14.447 3.78764 14.2665 3.75049 14.084 3.75009H8.26796C7.45995 3.75313 6.68478 4.07025 6.10629 4.63437C5.5278 5.19849 5.19132 5.96543 5.16797 6.7731V12.9521C5.16797 13.151 5.08894 13.3418 4.94829 13.4824C4.80764 13.6231 4.61688 13.7021 4.41797 13.7021C4.21906 13.7021 4.02829 13.6231 3.88763 13.4824C3.74698 13.3418 3.66797 13.151 3.66797 12.9521V6.75211C3.69863 5.55045 4.19602 4.40796 5.05472 3.5668C5.91342 2.72565 7.06593 2.25194 8.26796 2.24609H14.086C14.4704 2.24709 14.8507 2.32522 15.2044 2.47586C15.558 2.6265 15.8779 2.84661 16.145 3.12311L20.039 7.17911C20.5507 7.7102 20.8359 8.41955 20.834 9.1571V12.9481C20.8345 13.0471 20.8154 13.1452 20.7778 13.2368C20.7403 13.3284 20.6849 13.4116 20.615 13.4817C20.5451 13.5518 20.462 13.6074 20.3705 13.6452C20.279 13.683 20.181 13.7024 20.082 13.7021Z" fill="black"/>
<path d="M20.0141 9.41638H17.2011C16.3062 9.414 15.4488 9.05705 14.8166 8.42371C14.1843 7.79036 13.8289 6.93227 13.8281 6.03738V3.06641C13.8281 2.86749 13.9071 2.67672 14.0478 2.53607C14.1884 2.39542 14.3792 2.31641 14.5781 2.31641C14.777 2.31641 14.9678 2.39542 15.1085 2.53607C15.2491 2.67672 15.3281 2.86749 15.3281 3.06641V6.03738C15.3287 6.53487 15.5262 7.01189 15.8776 7.36404C16.229 7.7162 16.7056 7.9148 17.2031 7.91638H20.0141C20.213 7.91638 20.4038 7.99543 20.5444 8.13608C20.6851 8.27673 20.7641 8.46747 20.7641 8.66638C20.7641 8.86529 20.6851 9.05606 20.5444 9.19672C20.4038 9.33737 20.213 9.41638 20.0141 9.41638Z" fill="black"/>
<path d="M4.66406 21.7474C4.46515 21.7474 4.27438 21.6684 4.13373 21.5277C3.99308 21.3871 3.91406 21.1963 3.91406 20.9974V16.3824C3.91406 16.1835 3.99308 15.9927 4.13373 15.8521C4.27438 15.7114 4.46515 15.6324 4.66406 15.6324H6.06406C6.3763 15.6152 6.68879 15.6618 6.98241 15.7694C7.27603 15.877 7.54462 16.0434 7.77176 16.2583C7.9989 16.4733 8.17983 16.7323 8.30348 17.0195C8.42713 17.3068 8.49091 17.6162 8.49091 17.9289C8.49091 18.2416 8.42713 18.5511 8.30348 18.8383C8.17983 19.1255 7.9989 19.3846 7.77176 19.5995C7.54462 19.8145 7.27603 19.9808 6.98241 20.0884C6.68879 20.196 6.3763 20.2426 6.06406 20.2254H5.41707V20.9974C5.41707 21.0961 5.39756 21.1939 5.35968 21.2851C5.3218 21.3763 5.2663 21.4591 5.19633 21.5288C5.12637 21.5985 5.04334 21.6537 4.952 21.6912C4.86066 21.7287 4.76281 21.7478 4.66406 21.7474ZM5.41406 18.7254H6.06107C6.17194 18.7358 6.28376 18.723 6.38937 18.6877C6.49499 18.6524 6.59208 18.5954 6.67442 18.5204C6.75676 18.4455 6.82254 18.3541 6.86755 18.2522C6.91256 18.1504 6.93581 18.0403 6.93581 17.9289C6.93581 17.8176 6.91256 17.7074 6.86755 17.6056C6.82254 17.5037 6.75676 17.4124 6.67442 17.3374C6.59208 17.2624 6.49499 17.2055 6.38937 17.1702C6.28376 17.1349 6.17194 17.122 6.06107 17.1324H5.41406V18.7254Z" fill="black"/>
<path d="M17.5742 21.7549C17.3753 21.7549 17.1845 21.6759 17.0439 21.5352C16.9032 21.3946 16.8242 21.2038 16.8242 21.0049V16.3789C16.8242 16.18 16.9032 15.9892 17.0439 15.8486C17.1845 15.7079 17.3753 15.6289 17.5742 15.6289H20.0802C20.2791 15.6289 20.4699 15.7079 20.6105 15.8486C20.7512 15.9892 20.8302 16.18 20.8302 16.3789C20.8302 16.5778 20.7512 16.7686 20.6105 16.9092C20.4699 17.0499 20.2791 17.1289 20.0802 17.1289H18.3242V18.3289H19.6952C19.8941 18.3289 20.0849 18.4079 20.2255 18.5486C20.3662 18.6892 20.4452 18.88 20.4452 19.0789C20.4452 19.2778 20.3662 19.4686 20.2255 19.6092C20.0849 19.7499 19.8941 19.8289 19.6952 19.8289H18.3242V21.0039C18.3244 21.1025 18.305 21.2001 18.2674 21.2912C18.2298 21.3823 18.1746 21.4651 18.1049 21.5349C18.0352 21.6046 17.9525 21.66 17.8615 21.6977C17.7704 21.7355 17.6728 21.7549 17.5742 21.7549Z" fill="black"/>
<path d="M11.904 21.7549H10.75C10.5511 21.7549 10.3603 21.6759 10.2197 21.5352C10.079 21.3946 10 21.2038 10 21.0049V16.3789C10 16.18 10.079 15.9892 10.2197 15.8486C10.3603 15.7079 10.5511 15.6289 10.75 15.6289H11.906C12.3082 15.6289 12.7065 15.7081 13.0782 15.8621C13.4498 16.016 13.7874 16.2416 14.0719 16.526C14.3563 16.8105 14.5819 17.1481 14.7358 17.5197C14.8898 17.8914 14.969 18.2897 14.969 18.6919C14.969 19.0941 14.8898 19.4925 14.7358 19.8641C14.5819 20.2357 14.3563 20.5734 14.0719 20.8578C13.7874 21.1422 13.4498 21.3678 13.0782 21.5218C12.7065 21.6757 12.3082 21.7549 11.906 21.7549H11.904ZM11.498 20.2549H11.904C12.3185 20.2549 12.7161 20.0902 13.0092 19.7971C13.3023 19.504 13.467 19.1064 13.467 18.6919C13.467 18.2774 13.3023 17.8798 13.0092 17.5867C12.7161 17.2936 12.3185 17.1289 11.904 17.1289H11.498V20.2549Z" fill="black"/>
</svg>