<svg width="24" height="24" viewBox="0 0 24 24" fill="none" xmlns="http://www.w3.org/2000/svg">
<path opacity="0.4" fill-rule="evenodd" clip-rule="evenodd" d="M11.8953 18.351C11.8953 17.4824 12.2171 16.6441 12.7798 15.9978C12.8389 15.9299 12.8494 15.8319 12.8069 15.7526C12.3955 14.9855 12.3317 14.065 12.6653 13.224C13.1213 12.076 14.2173 11.332 15.4563 11.332H17.9543C18.2756 11.332 18.5863 11.385 18.8795 11.4808C19.0166 11.5257 19.1653 11.4282 19.1653 11.2839V6.772C19.1653 4.347 17.1933 2.375 14.7683 2.375H8.13028C5.70628 2.375 3.73328 4.347 3.73328 6.772V16.006C3.73328 18.43 5.70628 20.403 8.13028 20.403H12.3249C12.5138 20.403 12.6098 20.1496 12.49 20.0034C12.1201 19.5522 11.8953 18.9795 11.8953 18.351Z" fill="black"/>
<path fill-rule="evenodd" clip-rule="evenodd" d="M7.89427 9.23828C7.48027 9.23828 7.14427 8.90228 7.14427 8.48828C7.14427 8.07428 7.48027 7.73828 7.89427 7.73828H11.7793C12.1933 7.73828 12.5293 8.07428 12.5293 8.48828C12.5293 8.90228 12.1933 9.23828 11.7793 9.23828H7.89427ZM9.47927 13.4343H7.89427C7.48027 13.4343 7.14427 13.0983 7.14427 12.6843C7.14427 12.2703 7.48027 11.9343 7.89427 11.9343H9.47927C9.89327 11.9343 10.2293 12.2703 10.2293 12.6843C10.2293 13.0983 9.89327 13.4343 9.47927 13.4343Z" fill="black"/>
<path fill-rule="evenodd" clip-rule="evenodd" d="M16.7098 18.24C16.7078 18.24 16.7068 18.239 16.7048 18.239C16.7028 18.239 16.7018 18.24 16.6998 18.24H14.6528C14.6808 18.036 14.7848 17.846 14.9438 17.714C15.7588 17.258 15.9108 16.95 15.9598 16.852C16.1818 16.412 16.1488 15.668 15.9818 15.281C15.9438 15.192 15.8318 14.924 15.2798 14.516C15.2058 14.445 15.1838 14.337 15.2218 14.24C15.2598 14.144 15.3528 14.082 15.4568 14.082H17.9538C18.0588 14.082 18.1508 14.143 18.1908 14.24C18.2278 14.337 18.2048 14.445 18.2018 14.456C17.5808 14.923 17.4668 15.19 17.4298 15.277C17.2638 15.667 17.2308 16.408 17.4498 16.852C17.5018 16.954 17.6558 17.26 18.4688 17.714C18.6268 17.846 18.7318 18.036 18.7588 18.24H16.7098ZM19.3358 16.487C19.3068 16.466 19.2758 16.446 19.2448 16.428C19.0848 16.342 18.9018 16.223 18.7988 16.144C18.7928 16.069 18.7948 15.972 18.8028 15.91C18.8738 15.84 19.0098 15.723 19.1738 15.594C19.6848 15.1 19.8468 14.353 19.5858 13.689C19.5858 13.689 19.5848 13.687 19.5838 13.685C19.3168 13.015 18.6768 12.582 17.9538 12.582H15.4568C14.7328 12.582 14.0938 13.015 13.8268 13.686C13.5638 14.349 13.7248 15.098 14.3078 15.655C14.4138 15.735 14.5368 15.84 14.6058 15.907C14.6158 15.98 14.6198 16.081 14.6188 16.139C14.5188 16.219 14.3308 16.34 14.1678 16.429C14.1368 16.446 14.1068 16.466 14.0778 16.487C13.4938 16.925 13.1458 17.622 13.1458 18.351C13.1458 19.117 13.7678 19.74 14.5318 19.74H15.9548V20.875C15.9548 21.289 16.2908 21.625 16.7048 21.625C17.1188 21.625 17.4548 21.289 17.4548 20.875V19.74H18.8788C19.6448 19.74 20.2668 19.117 20.2668 18.351C20.2668 17.623 19.9188 16.926 19.3358 16.487Z" fill="black"/>
</svg>