<svg width="25" height="25" viewBox="0 0 25 25" fill="none" xmlns="http://www.w3.org/2000/svg">
<path fill-rule="evenodd" clip-rule="evenodd" d="M8.46332 3.86914C6.60272 3.86914 5.09375 5.37811 5.09375 7.23871V16.9996C5.09375 18.8602 6.60272 20.3691 8.46332 20.3691H16.537C18.3976 20.3691 19.9066 18.8602 19.9066 16.9996V7.23871C19.9066 5.37811 18.3976 3.86914 16.537 3.86914H8.46332ZM3.59375 7.23871C3.59375 4.54968 5.77429 2.36914 8.46332 2.36914H16.537C19.2261 2.36914 21.4066 4.54968 21.4066 7.23871V16.9996C21.4066 19.6886 19.2261 21.8691 16.537 21.8691H8.46332C5.77429 21.8691 3.59375 19.6886 3.59375 16.9996V7.23871Z" fill="black"/>
<path fill-rule="evenodd" clip-rule="evenodd" d="M16.4868 12.0425C16.901 12.0425 17.2368 12.3783 17.2368 12.7925V17.2185C17.2368 17.6327 16.901 17.9685 16.4868 17.9685C16.0726 17.9685 15.7368 17.6327 15.7368 17.2185V12.7925C15.7368 12.3783 16.0726 12.0425 16.4868 12.0425Z" fill="black"/>
<path fill-rule="evenodd" clip-rule="evenodd" d="M11.1377 12.2949C11.5519 12.2949 11.8877 12.6307 11.8877 13.0449V17.2182C11.8877 17.6324 11.5519 17.9682 11.1377 17.9682C10.7235 17.9682 10.3877 17.6324 10.3877 17.2182V13.0449C10.3877 12.6307 10.7235 12.2949 11.1377 12.2949Z" fill="black"/>
<path fill-rule="evenodd" clip-rule="evenodd" d="M13.8123 14.6274C14.2265 14.6274 14.5623 14.9632 14.5623 15.3774V17.2185C14.5623 17.6327 14.2265 17.9685 13.8123 17.9685C13.398 17.9685 13.0623 17.6327 13.0623 17.2185V15.3774C13.0623 14.9632 13.398 14.6274 13.8123 14.6274Z" fill="black"/>
<path fill-rule="evenodd" clip-rule="evenodd" d="M8.38501 14.6274C8.79922 14.6274 9.13501 14.9632 9.13501 15.3774V17.2185C9.13501 17.6327 8.79922 17.9685 8.38501 17.9685C7.9708 17.9685 7.63501 17.6327 7.63501 17.2185V15.3774C7.63501 14.9632 7.9708 14.6274 8.38501 14.6274Z" fill="black"/>
<path fill-rule="evenodd" clip-rule="evenodd" d="M16.9992 6.47204C17.3016 6.75514 17.3172 7.22976 17.0341 7.53213L14.4245 10.3194C14.1761 10.5847 13.7733 10.6338 13.4685 10.4359L10.9541 8.80306L8.71612 11.2088C8.43398 11.512 7.95942 11.5292 7.65615 11.247C7.35288 10.9649 7.33574 10.4903 7.61787 10.1871L10.285 7.32005C10.5332 7.05332 10.9371 7.00348 11.2426 7.20188L13.7588 8.83579L15.9392 6.50694C16.2223 6.20457 16.6969 6.18894 16.9992 6.47204Z" fill="black"/>
</svg>