<svg width="24" height="25" viewBox="0 0 24 25" fill="none" xmlns="http://www.w3.org/2000/svg">
<path d="M10.02 8.36839C9.61002 8.36839 9.27002 8.02839 9.27002 7.61839C9.27002 7.20839 9.61002 6.8584 10.02 6.8584C10.43 6.8584 10.77 7.1884 10.77 7.6084C10.77 8.0284 10.43 8.36839 10.02 8.36839Z" fill="black"/>
<path d="M11.3102 21.6287C9.97021 21.6287 8.99021 21.3787 8.62021 21.2687C8.40022 21.1987 8.22021 21.0387 8.14021 20.8187C8.06021 20.5987 8.08021 20.3587 8.20021 20.1587C9.41021 18.1687 9.74021 15.7287 9.47021 14.1087C8.92021 14.1887 8.03021 14.3087 6.53021 14.4787C5.48021 14.5987 4.55021 14.3187 3.80021 13.6687C2.13021 12.2187 1.98021 9.54868 1.97021 9.01868C1.97021 8.70868 2.14021 8.42868 2.43021 8.30868L6.22021 6.69868C6.23022 5.97868 6.45021 5.08867 7.04022 4.34867C7.50022 3.76867 8.38021 3.05867 9.96021 2.95867L12.0902 2.78867C15.3302 2.50867 17.9002 4.54867 18.9102 8.25867C19.0502 8.77867 19.1702 9.29868 19.2602 9.79868C19.3302 10.2087 19.0602 10.5987 18.6502 10.6687C18.2402 10.7487 17.8502 10.4687 17.7802 10.0587C17.7002 9.60868 17.5902 9.13868 17.4602 8.65868C16.3402 4.55868 13.6902 4.15867 12.2102 4.28867L10.0702 4.45867C9.23022 4.51867 8.61021 4.79867 8.21021 5.28867C7.71021 5.90867 7.68021 6.72867 7.74021 7.06867C7.79022 7.40867 7.61022 7.73868 7.29022 7.87868L3.50021 9.48869C3.61021 10.6187 4.02021 11.8887 4.77021 12.5387C5.20021 12.9087 5.71021 13.0587 6.34021 12.9887C7.07021 12.9087 9.27021 12.6587 9.67021 12.5487C9.84021 12.4587 10.0502 12.4387 10.2402 12.4987C10.4702 12.5687 10.6502 12.7487 10.7302 12.9787C11.2802 14.6787 11.1602 17.5187 9.97021 20.0287C10.4102 20.0987 10.9802 20.1487 11.6302 20.1287C12.0402 20.1087 12.3902 20.4387 12.4002 20.8487C12.4102 21.2587 12.0902 21.6087 11.6802 21.6187C11.5602 21.6187 11.4302 21.6187 11.3202 21.6187L11.3102 21.6287Z" fill="black"/>
<path d="M18.5498 21.8384H16.5698C15.8498 21.8384 15.2598 21.2484 15.2598 20.5284V19.6684H14.3998C13.6798 19.6684 13.0898 19.0784 13.0898 18.3584V16.3784C13.0898 15.6584 13.6798 15.0684 14.3998 15.0684H15.2598V14.2084C15.2598 13.4884 15.8498 12.8984 16.5698 12.8984H18.5498C19.2698 12.8984 19.8598 13.4884 19.8598 14.2084V15.0684H20.7198C21.4398 15.0684 22.0298 15.6584 22.0298 16.3784V18.3584C22.0298 19.0784 21.4398 19.6684 20.7198 19.6684H19.8598V20.5284C19.8598 21.2484 19.2698 21.8384 18.5498 21.8384ZM16.7598 20.3384H18.3698V18.9184C18.3698 18.5084 18.7098 18.1684 19.1198 18.1684H20.5398V16.5584H19.1198C18.7098 16.5584 18.3698 16.2184 18.3698 15.8084V14.3884H16.7598V15.8084C16.7598 16.2184 16.4198 16.5584 16.0098 16.5584H14.5898V18.1684H16.0098C16.4198 18.1684 16.7598 18.5084 16.7598 18.9184V20.3384Z" fill="black"/>
<path d="M13.1702 13.2184C12.7702 13.2184 12.4402 12.9084 12.4202 12.4984C12.3602 10.9884 12.5702 9.54841 12.7102 8.82841C12.7902 8.41841 13.1802 8.1484 13.5902 8.2284C14.0002 8.3084 14.2702 8.69841 14.1902 9.10841C14.0702 9.76841 13.8702 11.0784 13.9202 12.4384C13.9402 12.8484 13.6202 13.1984 13.2002 13.2184C13.1902 13.2184 13.1802 13.2184 13.1702 13.2184Z" fill="black"/>
</svg>