<svg width="24" height="25" viewBox="0 0 24 25" fill="none" xmlns="http://www.w3.org/2000/svg">
<path d="M20.0001 20.5566C19.6401 20.5566 19.3301 20.2966 19.2601 19.9366L18.5101 15.6566C18.4201 15.0166 17.8901 14.5566 17.2701 14.5566H6.74006C6.12006 14.5566 5.59006 15.0166 5.50006 15.6266L4.74006 19.9366C4.67006 20.3466 4.28006 20.6166 3.87006 20.5466C3.46006 20.4766 3.19006 20.0866 3.26006 19.6766L4.01006 15.3966C4.20006 14.0766 5.37006 13.0566 6.73006 13.0566H17.2601C18.6201 13.0566 19.7901 14.0766 19.9801 15.4166L20.7301 19.6766C20.8001 20.0866 20.5301 20.4766 20.1201 20.5466C20.0801 20.5466 20.0301 20.5566 19.9901 20.5566H20.0001Z" fill="black"/>
<path d="M21 20.5566H3C2.59 20.5566 2.25 20.2166 2.25 19.8066C2.25 19.3966 2.59 19.0566 3 19.0566H21C21.41 19.0566 21.75 19.3966 21.75 19.8066C21.75 20.2166 21.41 20.5566 21 20.5566Z" fill="black"/>
<path d="M9.93999 14.5262C9.68999 14.5262 9.44999 14.4062 9.29999 14.1762L7.10999 10.6762C6.72999 10.7762 6.32999 10.7962 5.92999 10.7062C5.27999 10.5662 4.71999 10.1862 4.34999 9.6262C3.98999 9.0662 3.85999 8.3962 3.99999 7.7462C4.13999 7.0962 4.51999 6.5362 5.07999 6.1662C5.56999 5.8462 6.15999 5.7162 6.71999 5.7862C6.88999 5.2462 7.24998 4.7662 7.73998 4.4462C8.89998 3.6962 10.45 4.0262 11.2 5.1762C11.56 5.7362 11.69 6.4062 11.55 7.0562C11.47 7.4562 11.29 7.8262 11.03 8.1262L14.47 13.3662C14.7 13.7162 14.6 14.1762 14.25 14.4062C13.9 14.6362 13.44 14.5362 13.21 14.1862L9.41998 8.4162C9.30998 8.2462 9.26998 8.0462 9.30998 7.8462C9.34998 7.6462 9.46999 7.4762 9.63999 7.3762C9.85999 7.2262 10.02 7.0062 10.07 6.7462C10.13 6.4862 10.07 6.2162 9.92999 5.9962C9.62999 5.5362 9.00999 5.4062 8.53999 5.7062C8.21999 5.9162 8.03999 6.2962 8.09999 6.6862C8.13999 6.9762 8.00999 7.2562 7.76999 7.4162C7.52999 7.5762 7.20999 7.5762 6.95999 7.4162C6.62999 7.2062 6.20999 7.2162 5.87999 7.4162C5.65999 7.5662 5.49999 7.7862 5.44999 8.0462C5.38999 8.3062 5.44999 8.5762 5.58999 8.7962C5.73999 9.0262 5.95999 9.1762 6.21999 9.2362C6.47999 9.2862 6.74999 9.2362 6.96999 9.0962C7.13999 8.9862 7.33999 8.9462 7.53999 8.9962C7.73999 9.0362 7.90999 9.1562 8.00999 9.3262L10.55 13.3762C10.77 13.7262 10.66 14.1862 10.31 14.4062C10.19 14.4862 10.05 14.5162 9.90999 14.5162L9.93999 14.5262Z" fill="black"/>
<path d="M14.6701 7.35665C14.3101 7.35665 13.9901 7.08665 13.9301 6.71665L13.8001 5.87665C13.7401 5.46665 14.0201 5.08665 14.4301 5.02665C14.8401 4.96665 15.2201 5.24665 15.2801 5.65665L15.4101 6.49665C15.4701 6.90665 15.1901 7.28665 14.7801 7.34665C14.7401 7.34665 14.7001 7.34665 14.6701 7.34665V7.35665Z" fill="black"/>
<path d="M17.4201 10.5165C17.0201 10.5165 16.6901 10.2065 16.6701 9.7965C16.6501 9.3865 16.9701 9.0365 17.3901 9.0165L18.2901 8.9765C18.7101 8.9465 19.0501 9.2765 19.0701 9.6965C19.0901 10.1165 18.7701 10.4565 18.3501 10.4765L17.4501 10.5165C17.4501 10.5165 17.4301 10.5165 17.4201 10.5165Z" fill="black"/>
<path d="M14.1099 17.7563H9.8999C9.4899 17.7563 9.1499 17.4163 9.1499 17.0063C9.1499 16.5963 9.4899 16.2563 9.8999 16.2563H14.1099C14.5199 16.2563 14.8599 16.5963 14.8599 17.0063C14.8599 17.4163 14.5199 17.7563 14.1099 17.7563Z" fill="black"/>
</svg>