<svg width="24" height="25" viewBox="0 0 24 25" fill="none" xmlns="http://www.w3.org/2000/svg">
<path d="M12.0574 22.3008C6.54737 22.3008 2.05737 17.8108 2.05737 12.3008C2.05737 6.79078 6.54737 2.30078 12.0574 2.30078C17.5674 2.30078 22.0574 6.79078 22.0574 12.3008C22.0574 17.8108 17.5674 22.3008 12.0574 22.3008ZM12.0574 3.80078C7.36737 3.80078 3.55737 7.61078 3.55737 12.3008C3.55737 16.9908 7.36737 20.8008 12.0574 20.8008C16.7474 20.8008 20.5574 16.9908 20.5574 12.3008C20.5574 7.61078 16.7474 3.80078 12.0574 3.80078Z" fill="black"/>
<path d="M5.88733 19.7714C5.72733 19.7714 5.57733 19.7214 5.44733 19.6214C5.11733 19.3614 5.03736 18.9314 5.28736 18.6014C6.45736 17.1014 7.61735 15.6314 8.15735 14.2814C8.31735 13.9014 8.74733 13.7114 9.13733 13.8714C9.51733 14.0314 9.70737 14.4614 9.54737 14.8514C8.92737 16.3914 7.70735 17.9514 6.52735 19.4614C6.36735 19.6614 6.12733 19.7714 5.88733 19.7714Z" fill="black"/>
<path d="M16.4372 14.5808C16.2772 14.5808 16.1173 14.5709 15.9573 14.5409C15.6273 14.4809 12.7672 13.9809 12.3772 13.6509C12.0572 13.3809 12.0173 12.9108 12.2873 12.5908C12.5173 12.3208 12.8872 12.2509 13.1872 12.4009C13.4372 12.4809 14.6273 12.7908 16.2073 13.0608C16.5273 13.1208 16.7873 13.0608 17.0073 12.8908C17.3973 12.5908 17.6673 11.9609 17.7873 11.3709L15.4173 10.1908C15.1673 10.0608 14.9972 9.80085 14.9972 9.52085C14.9972 9.24085 14.8873 8.24085 13.5073 8.07085L12.4972 7.93085C11.4272 7.77085 10.5773 8.07085 9.97728 8.82085L9.49724 9.48084C9.25724 9.81084 8.78725 9.89085 8.44725 9.65085C8.10725 9.41085 8.03727 8.94085 8.27727 8.60085L8.77727 7.91085C9.73727 6.70085 11.0873 6.21085 12.6973 6.44085L13.6973 6.58085C15.5673 6.82085 16.2673 8.07084 16.4473 9.03084L18.9273 10.2609C19.2073 10.4009 19.3673 10.6908 19.3373 10.9908C19.3073 11.3408 19.0973 13.1409 17.8973 14.0709C17.4673 14.4009 16.9573 14.5808 16.4073 14.5808H16.4372Z" fill="black"/>
<path d="M9.10726 15.061C8.04726 15.061 7.13724 14.661 7.08724 14.631C6.74724 14.481 6.56726 14.091 6.67726 13.731L7.42726 11.221C7.54726 10.821 7.95726 10.591 8.35726 10.721C8.75726 10.841 8.97726 11.261 8.85726 11.651L8.31722 13.461C8.84722 13.581 9.54726 13.641 10.0473 13.321C10.3973 13.091 10.8572 13.191 11.0872 13.541C11.3172 13.891 11.2173 14.351 10.8673 14.581C10.3073 14.941 9.68726 15.061 9.10726 15.061Z" fill="black"/>
<path d="M13.3973 21.9909C13.0073 21.9909 12.6873 21.6909 12.6473 21.3009C12.6073 20.7609 12.5472 20.2509 12.4972 19.7609C12.3772 18.5709 12.2573 17.4609 12.3073 16.2509C12.3273 15.8409 12.7073 15.5209 13.0873 15.5409C13.4973 15.5609 13.8173 15.9109 13.7973 16.3209C13.7473 17.4109 13.8573 18.4809 13.9773 19.6009C14.0273 20.1109 14.0872 20.6309 14.1272 21.1809C14.1572 21.5909 13.8472 21.9509 13.4372 21.9909C13.4172 21.9909 13.3972 21.9909 13.3772 21.9909H13.3973Z" fill="black"/>
<path d="M11.6271 18.9214C9.58712 18.9214 7.63715 17.9814 6.59715 17.2414C6.25715 17.0014 6.17715 16.5314 6.41715 16.1914C6.65715 15.8514 7.12714 15.7714 7.46714 16.0114C8.34714 16.6414 11.1271 18.0514 13.3471 17.0714C13.7271 16.9014 14.1671 17.0714 14.3371 17.4514C14.5071 17.8314 14.3371 18.2714 13.9571 18.4414C13.1971 18.7814 12.4071 18.9214 11.6271 18.9214Z" fill="black"/>
<path d="M13.2773 10.6614C12.8673 10.6614 12.5273 10.3214 12.5273 9.91136C12.5273 9.50136 12.8673 9.15137 13.2773 9.15137C13.6873 9.15137 14.0273 9.48136 14.0273 9.89136C14.0273 10.3114 13.6873 10.6514 13.2773 10.6514V10.6614Z" fill="black"/>
<path d="M18.5773 19.5705C18.3873 19.5705 18.1973 19.5005 18.0473 19.3505L5.0173 6.32047C4.7273 6.03047 4.7273 5.55047 5.0173 5.26047C5.3073 4.97047 5.7873 4.97047 6.0773 5.26047L19.1073 18.2905C19.3973 18.5805 19.3973 19.0605 19.1073 19.3505C18.9573 19.5005 18.7673 19.5705 18.5773 19.5705Z" fill="black"/>
</svg>