<svg width="24" height="25" viewBox="0 0 24 25" fill="none" xmlns="http://www.w3.org/2000/svg">
<path d="M12 22.0508C6.62 22.0508 2.25 17.6808 2.25 12.3008C2.25 6.92078 6.62 2.55078 12 2.55078C17.38 2.55078 21.75 6.92078 21.75 12.3008C21.75 17.6808 17.38 22.0508 12 22.0508ZM12 4.05078C7.45 4.05078 3.75 7.75078 3.75 12.3008C3.75 16.8508 7.45 20.5508 12 20.5508C16.55 20.5508 20.25 16.8508 20.25 12.3008C20.25 7.75078 16.55 4.05078 12 4.05078Z" fill="black"/>
<path d="M17.2299 17.1711C17.1099 17.1711 16.9899 17.1411 16.8799 17.0811C15.7199 16.4611 15.0199 15.2911 14.7799 14.7011C14.6299 14.3211 14.8199 13.8811 15.1999 13.7311C15.5899 13.5811 16.0199 13.7711 16.1699 14.1511C16.2899 14.4511 16.7799 15.3311 17.5799 15.7611C17.9499 15.9611 18.0799 16.4111 17.8899 16.7811C17.7499 17.0311 17.4999 17.1811 17.2299 17.1811V17.1711Z" fill="black"/>
<path d="M10.41 17.8008C10.28 17.8008 10.14 17.7608 10.02 17.6908C9.67002 17.4708 9.55002 17.0108 9.77002 16.6608C10.31 15.7708 10.53 14.6507 10.48 13.8107C10.12 13.8707 9.63004 13.9408 8.95004 14.0208C8.27004 14.1008 7.65003 13.9107 7.16003 13.4807C6.35003 12.7807 6.04002 11.5408 6.02002 10.6208C6.02002 10.3108 6.19004 10.0308 6.48004 9.91075L8.62003 9.00075C8.66003 8.58075 8.81005 8.10075 9.14005 7.69075C9.44005 7.31075 10.01 6.85075 11.03 6.78075L12.23 6.69075C14.25 6.52075 15.81 7.76075 16.42 10.0208C17.54 14.1308 15.37 15.4608 15.28 15.5108C15.19 15.5608 15.09 15.5907 14.99 15.6108C13.94 15.7408 13.29 15.3207 12.93 14.9507C11.79 13.7307 12.09 11.3408 12.27 10.3708C12.35 9.96076 12.74 9.69075 13.15 9.77075C13.56 9.85075 13.82 10.2408 13.75 10.6508C13.52 11.8908 13.51 13.3808 14.03 13.9308C14.12 14.0308 14.3 14.1608 14.62 14.1508C14.9 13.8808 15.64 12.8808 14.97 10.4308C14.55 8.88076 13.63 8.10075 12.35 8.20075L11.14 8.30075C10.75 8.33075 10.49 8.44076 10.32 8.65076C10.13 8.89076 10.09 9.24076 10.12 9.40076C10.17 9.74076 9.99004 10.0708 9.67004 10.2108L7.57004 11.1008C7.65004 11.5908 7.84005 12.1108 8.14005 12.3708C8.32005 12.5208 8.51003 12.5808 8.78003 12.5508C10.2 12.3908 10.66 12.2707 10.75 12.2507C10.92 12.1707 11.12 12.1608 11.3 12.2108C11.53 12.2808 11.71 12.4608 11.78 12.6908C12.15 13.8408 12.02 15.8508 11.04 17.4608C10.9 17.6908 10.65 17.8208 10.4 17.8208L10.41 17.8008Z" fill="black"/>
</svg>