<svg width="24" height="25" viewBox="0 0 24 25" fill="none" xmlns="http://www.w3.org/2000/svg">
<path d="M12.0574 22.3008C6.54737 22.3008 2.05737 17.8108 2.05737 12.3008C2.05737 6.79078 6.54737 2.30078 12.0574 2.30078C17.5674 2.30078 22.0574 6.79078 22.0574 12.3008C22.0574 17.8108 17.5674 22.3008 12.0574 22.3008ZM12.0574 3.80078C7.36737 3.80078 3.55737 7.61078 3.55737 12.3008C3.55737 16.9908 7.36737 20.8008 12.0574 20.8008C16.7474 20.8008 20.5574 16.9908 20.5574 12.3008C20.5574 7.61078 16.7474 3.80078 12.0574 3.80078Z" fill="black"/>
<path d="M5.88732 19.7714C5.72732 19.7714 5.57735 19.7214 5.44735 19.6214C5.11735 19.3614 5.03735 18.9314 5.28735 18.6014C6.45735 17.1014 7.61734 15.6314 8.15734 14.2814C8.31734 13.9014 8.74732 13.7114 9.13732 13.8714C9.51732 14.0314 9.70733 14.4614 9.54733 14.8514C8.92733 16.3914 7.70734 17.9514 6.52734 19.4614C6.36734 19.6614 6.12732 19.7714 5.88732 19.7714Z" fill="black"/>
<path d="M13.3972 21.9908C13.0072 21.9908 12.6872 21.6908 12.6472 21.3008C12.6072 20.7608 12.5472 20.2508 12.4972 19.7608C12.2772 17.6508 12.0672 15.6508 12.8972 13.0108C12.9772 12.7708 13.1572 12.5908 13.3972 12.5208C13.5972 12.4608 13.7972 12.4908 13.9772 12.5908C14.0772 12.6208 14.5772 12.7908 16.2072 13.0708C16.5272 13.1308 16.7872 13.0708 17.0072 12.9008C17.3972 12.6008 17.6672 11.9708 17.7872 11.3808L15.4173 10.2008C15.1673 10.0708 14.9972 9.81077 14.9972 9.53077C14.9972 9.25077 14.8872 8.25077 13.5072 8.08077L12.4972 7.94077C10.9272 7.71077 9.87723 8.43078 9.29723 10.1608L8.30724 13.4908C8.82724 13.6108 9.51724 13.6608 9.99724 13.3708C10.4972 13.0708 10.7772 12.4108 10.8472 11.4108C10.8772 11.0008 11.2072 10.6908 11.6472 10.7108C12.0572 10.7408 12.3772 11.0908 12.3472 11.5108C12.2472 13.0308 11.7172 14.0908 10.7672 14.6608C9.19723 15.6008 7.15725 14.7008 7.06725 14.6608C6.72725 14.5108 6.54724 14.1208 6.65724 13.7608L7.86723 9.71078C8.97723 6.43078 11.3772 6.26078 12.7072 6.46078L13.7072 6.60078C15.5772 6.84078 16.2772 8.09078 16.4572 9.05078L18.9372 10.2808C19.2172 10.4208 19.3772 10.7108 19.3472 11.0108C19.3172 11.3608 19.1072 13.1608 17.9072 14.0908C17.3472 14.5208 16.6672 14.6808 15.9272 14.5508C15.0872 14.4008 14.5072 14.2808 14.1072 14.1908C13.6072 16.1708 13.7672 17.7108 13.9672 19.6108C14.0172 20.1208 14.0772 20.6408 14.1172 21.1908C14.1472 21.6008 13.8372 21.9608 13.4272 22.0008C13.4072 22.0008 13.3872 22.0008 13.3672 22.0008L13.3972 21.9908Z" fill="black"/>
<path d="M11.6274 18.9214C9.58739 18.9214 7.63739 17.9814 6.59739 17.2414C6.25739 17.0014 6.1774 16.5314 6.4174 16.1914C6.6574 15.8514 7.12739 15.7714 7.46739 16.0114C8.34739 16.6414 11.1274 18.0514 13.3474 17.0714C13.7274 16.9014 14.1674 17.0714 14.3374 17.4514C14.5074 17.8314 14.3374 18.2714 13.9574 18.4414C13.1974 18.7814 12.4074 18.9214 11.6274 18.9214Z" fill="black"/>
<path d="M13.2773 10.6614C12.8673 10.6614 12.5273 10.3214 12.5273 9.91136C12.5273 9.50136 12.8673 9.15137 13.2773 9.15137C13.6873 9.15137 14.0273 9.48136 14.0273 9.89136C14.0273 10.3114 13.6873 10.6514 13.2773 10.6514V10.6614Z" fill="black"/>
</svg>