<svg width="24" height="25" viewBox="0 0 24 25" fill="none" xmlns="http://www.w3.org/2000/svg">
<path d="M10.0127 7.74414V7.75414" stroke="black" stroke-width="1.5" stroke-linecap="round" stroke-linejoin="round"/>
<path d="M11.6427 21.0088C10.4892 21.0474 9.47174 20.8772 8.82627 20.6822C10.3218 18.228 10.577 15.0955 10.0071 13.3447C9.89855 13.4261 9.28903 13.5355 6.42252 13.8612C3.55602 14.187 2.75795 10.8481 2.71724 9.13799L6.99444 7.31829C6.83738 6.33132 7.22003 4.02473 10.0071 3.8397L12.1457 3.67109C14.5702 3.46258 17.1189 4.6964 18.1833 8.59423C18.325 9.11301 18.4343 9.60179 18.5156 10.062" stroke="black" stroke-width="1.5" stroke-linecap="round" stroke-linejoin="round"/>
<path fill-rule="evenodd" clip-rule="evenodd" d="M18.546 21.2164H16.5683C16.2572 21.2164 16.0044 20.9635 16.0044 20.6524V19.0453H14.395C14.0839 19.0453 13.8311 18.7935 13.8311 18.4813V16.4981C13.8311 16.187 14.0839 15.9342 14.395 15.9342H16.0044V14.3281C16.0044 14.017 16.2572 13.7642 16.5683 13.7642H18.546C18.8571 13.7642 19.1099 14.017 19.1099 14.3281V15.9342H20.7193C21.0304 15.9342 21.2833 16.187 21.2833 16.4981V18.4813C21.2833 18.7935 21.0304 19.0453 20.7193 19.0453H19.1099V20.6524C19.1099 20.9635 18.8571 21.2164 18.546 21.2164Z" stroke="black" stroke-width="1.5" stroke-linecap="round" stroke-linejoin="round"/>
<path d="M13.4473 9.09717C13.2789 9.99202 13.1148 11.3073 13.1696 12.6015" stroke="black" stroke-width="1.5" stroke-linecap="round" stroke-linejoin="round"/>
</svg>