<svg width="24" height="25" viewBox="0 0 24 25" fill="none" xmlns="http://www.w3.org/2000/svg">
<path d="M13.8455 21.3706L8.74674 21.3706" stroke="black" stroke-width="1.5" stroke-linecap="round" stroke-linejoin="round"/>
<path d="M11.4267 9.80883C11.1799 10.9729 10.0106 11.7245 8.66409 13.1073C6.36992 15.4635 6.3184 19.3562 6.55286 21.5508C3.40383 20.9868 2.91705 17.4171 4.94243 15.2641" stroke="black" stroke-width="1.5" stroke-linecap="round" stroke-linejoin="round"/>
<path d="M10.4521 15.2026C12.5786 15.2026 13.97 18.8355 11.9467 21.1807" stroke="black" stroke-width="1.5" stroke-linecap="round" stroke-linejoin="round"/>
<path d="M18.5708 21.433H16.6141C16.4878 19.8763 15.7651 18.8224 16.6141 15.3114C17.2084 12.8535 16.8632 11.4659 16.4092 9.04486H18.084C19.6992 9.04486 20.194 7.26674 20.2725 6.32949L17.8111 5.10581C17.6647 4.63333 17.5274 3.45093 16.0039 3.25797L14.9277 3.09234C13.6039 2.89838 12.1741 3.33477 11.462 5.43913C10.2965 8.88367 11.3108 9.9141 11.9636 9.99875C14.2712 10.4263 14.2205 7.25386 14.0449 5.87056" stroke="black" stroke-width="1.5" stroke-linecap="round" stroke-linejoin="round"/>
<path d="M16.1602 6.27637V6.28637" stroke="black" stroke-width="1.5" stroke-linecap="round" stroke-linejoin="round"/>
</svg>