<svg width="24" height="24" viewBox="0 0 24 24" fill="none" xmlns="http://www.w3.org/2000/svg">
<path fill-rule="evenodd" clip-rule="evenodd" d="M12.4089 9.42981H10.6069V11.2498H12.1989C12.6129 11.2498 12.9489 11.5858 12.9489 11.9998C12.9489 12.4138 12.6129 12.7498 12.1989 12.7498H10.6069V14.5698H12.4089C13.8249 14.5698 14.9769 13.4168 14.9769 11.9998C14.9769 10.5828 13.8249 9.42981 12.4089 9.42981Z" fill="black"/>
<path fill-rule="evenodd" clip-rule="evenodd" d="M12.409 16.07H9.857C9.443 16.07 9.107 15.734 9.107 15.32V12.75H8.664C8.25 12.75 7.914 12.414 7.914 12C7.914 11.586 8.25 11.25 8.664 11.25H9.107V8.68C9.107 8.266 9.443 7.93 9.857 7.93H12.409C14.652 7.93 16.477 9.756 16.477 12C16.477 14.244 14.652 16.07 12.409 16.07ZM12 2.5C6.762 2.5 2.5 6.762 2.5 12C2.5 17.238 6.762 21.5 12 21.5C17.238 21.5 21.5 17.238 21.5 12C21.5 6.762 17.238 2.5 12 2.5Z" fill="black"/>
</svg>