<svg width="24" height="25" viewBox="0 0 24 25" fill="none" xmlns="http://www.w3.org/2000/svg">
<path fill-rule="evenodd" clip-rule="evenodd" d="M7.137 2.95308C7.137 2.77522 6.98255 2.63578 6.8069 2.66374C4.19963 3.07881 2.5 5.14326 2.5 8.09255V16.0426C2.5 18.988 4.19967 21.0477 6.807 21.4615C6.98262 21.4894 7.137 21.35 7.137 21.1721V2.95308Z" fill="black"/>
<path opacity="0.4" fill-rule="evenodd" clip-rule="evenodd" d="M16.2167 2.5625H8.93672C8.77103 2.5625 8.63672 2.69681 8.63672 2.8625V21.2625C8.63672 21.4282 8.77103 21.5625 8.93672 21.5625H16.2157C19.3767 21.5625 21.4997 19.3445 21.4997 16.0425V8.0925C21.4997 4.7855 19.3767 2.5625 16.2167 2.5625Z" fill="black"/>
<path d="M15.242 15.6427H15.3C16.493 15.6427 17.464 14.6737 17.464 13.4827C17.464 12.2907 16.493 11.3227 15.3 11.3227H13.685C13.319 11.3227 13.021 11.0217 13.021 10.6527C13.021 10.2887 13.319 9.99273 13.685 9.99273H16.31C16.724 9.99273 17.06 9.65673 17.06 9.24273C17.06 8.82873 16.724 8.49273 16.31 8.49273H15.242V8.05273C15.242 7.63873 14.906 7.30273 14.492 7.30273C14.078 7.30273 13.742 7.63873 13.742 8.05273V8.49273H13.685C12.492 8.49273 11.521 9.46073 11.521 10.6527C11.521 11.8487 12.492 12.8227 13.685 12.8227H15.3C15.666 12.8227 15.964 13.1187 15.964 13.4827C15.964 13.8467 15.666 14.1427 15.3 14.1427H12.675C12.261 14.1427 11.925 14.4787 11.925 14.8927C11.925 15.3067 12.261 15.6427 12.675 15.6427H13.742V16.0827C13.742 16.4967 14.078 16.8327 14.492 16.8327C14.906 16.8327 15.242 16.4967 15.242 16.0827V15.6427Z" fill="black"/>
</svg>