<svg width="24" height="25" viewBox="0 0 24 25" fill="none" xmlns="http://www.w3.org/2000/svg">
<path d="M21 12.0625C21 7.09158 16.9709 3.0625 12 3.0625C7.02908 3.0625 3 7.09158 3 12.0625C3 17.0334 7.02908 21.0625 12 21.0625C16.9709 21.0625 21 17.0334 21 12.0625Z" stroke="black" stroke-width="1.5" stroke-linecap="round" stroke-linejoin="round"/>
<path d="M13.8181 9.23828H11.193C10.4117 9.23828 9.7793 9.87169 9.7793 10.652C9.7793 11.4323 10.4117 12.0657 11.193 12.0657H12.8082C13.5895 12.0657 14.2219 12.6991 14.2219 13.4795C14.2219 14.2608 13.5895 14.8932 12.8082 14.8932H10.1831" stroke="black" stroke-width="1.5" stroke-linecap="round" stroke-linejoin="round"/>
<path d="M12 14.8928V16.0798M12 8.04492V9.24265" stroke="black" stroke-width="1.5" stroke-linecap="round" stroke-linejoin="round"/>
</svg>