<svg width="24" height="25" viewBox="0 0 24 25" fill="none" xmlns="http://www.w3.org/2000/svg">
<path opacity="0.4" fill-rule="evenodd" clip-rule="evenodd" d="M16.217 2.5625H7.782C4.623 2.5625 2.5 4.7855 2.5 8.0925V16.0435C2.5 19.3445 4.623 21.5625 7.782 21.5625H16.216C19.376 21.5625 21.5 19.3445 21.5 16.0435V8.0925C21.5 4.7855 19.377 2.5625 16.217 2.5625Z" fill="black"/>
<path d="M12.75 16.3522V16.0872C13.961 16.0082 14.925 15.0062 14.925 13.7722C14.925 12.4932 13.882 11.4532 12.601 11.4532H11.462C10.973 11.4532 10.574 11.0532 10.574 10.5622C10.574 10.0722 10.973 9.6722 11.462 9.6722H12.819C13.152 9.6722 13.424 9.9462 13.424 10.2832V10.3632C13.424 10.7772 13.76 11.0732 14.174 11.0732C14.588 11.0732 14.924 10.6972 14.924 10.2832C14.924 9.1192 13.979 8.1722 12.819 8.1722H12.75V7.7832C12.75 7.3692 12.414 7.0332 12 7.0332C11.586 7.0332 11.25 7.3692 11.25 7.7832V8.1942C10.034 8.3032 9.07397 9.3172 9.07397 10.5622C9.07397 11.8802 10.146 12.9532 11.462 12.9532H12.601C13.055 12.9532 13.425 13.3202 13.425 13.7722C13.425 14.2302 13.055 14.6022 12.601 14.6022H11.181C10.847 14.6022 10.575 14.3292 10.575 13.9922C10.575 13.5782 10.239 13.2422 9.82497 13.2422C9.41097 13.2422 9.07497 13.5782 9.07497 13.9922C9.07497 15.1562 10.02 16.1022 11.181 16.1022H11.25V16.3522C11.25 16.7662 11.586 17.1022 12 17.1022C12.414 17.1022 12.75 16.7662 12.75 16.3522Z" fill="black"/>
</svg>