<svg width="25" height="25" viewBox="0 0 25 25" fill="none" xmlns="http://www.w3.org/2000/svg">
<path fill-rule="evenodd" clip-rule="evenodd" d="M12.25 3.8125C7.69621 3.8125 4 7.50871 4 12.0625C4 16.6163 7.69621 20.3125 12.25 20.3125C16.8038 20.3125 20.5 16.6163 20.5 12.0625C20.5 11.6483 20.8358 11.3125 21.25 11.3125C21.6642 11.3125 22 11.6483 22 12.0625C22 17.4447 17.6322 21.8125 12.25 21.8125C6.86779 21.8125 2.5 17.4447 2.5 12.0625C2.5 6.68029 6.86779 2.3125 12.25 2.3125C12.6642 2.3125 13 2.64829 13 3.0625C13 3.47671 12.6642 3.8125 12.25 3.8125Z" fill="black"/>
<path fill-rule="evenodd" clip-rule="evenodd" d="M9.29297 10.6071C9.29297 9.41613 10.2586 8.45117 11.4499 8.45117H14.0613C14.4756 8.45117 14.8113 8.78696 14.8113 9.20117C14.8113 9.61539 14.4756 9.95117 14.0613 9.95117H11.4499C11.0864 9.95117 10.793 10.2452 10.793 10.6071C10.793 10.9703 11.0867 11.264 11.4499 11.264H13.0572C14.2479 11.264 15.2132 12.2293 15.2132 13.42C15.2132 14.6113 14.2482 15.5769 13.0572 15.5769H10.4448C10.0306 15.5769 9.69481 15.2411 9.69481 14.8269C9.69481 14.4127 10.0306 14.0769 10.4448 14.0769H13.0572C13.4191 14.0769 13.7132 13.7835 13.7132 13.42C13.7132 13.0578 13.4195 12.764 13.0572 12.764H11.4499C10.2583 12.764 9.29297 11.7987 9.29297 10.6071Z" fill="black"/>
<path fill-rule="evenodd" clip-rule="evenodd" d="M12.2539 7.26172C12.6681 7.26172 13.0039 7.59751 13.0039 8.01172V9.20264C13.0039 9.61685 12.6681 9.95264 12.2539 9.95264C11.8397 9.95264 11.5039 9.61685 11.5039 9.20264V8.01172C11.5039 7.59751 11.8397 7.26172 12.2539 7.26172ZM12.2539 14.0744C12.6681 14.0744 13.0039 14.4102 13.0039 14.8244V16.0056C13.0039 16.4198 12.6681 16.7556 12.2539 16.7556C11.8397 16.7556 11.5039 16.4198 11.5039 16.0056V14.8244C11.5039 14.4102 11.8397 14.0744 12.2539 14.0744Z" fill="black"/>
<path fill-rule="evenodd" clip-rule="evenodd" d="M17.165 3.50391C17.165 3.08969 17.5008 2.75391 17.915 2.75391H20.8077C21.2219 2.75391 21.5577 3.08969 21.5577 3.50391V6.39753C21.5577 6.81174 21.2219 7.14753 20.8077 7.14753C20.3935 7.14753 20.0577 6.81174 20.0577 6.39753V4.25391H17.915C17.5008 4.25391 17.165 3.91812 17.165 3.50391Z" fill="black"/>
<path fill-rule="evenodd" clip-rule="evenodd" d="M21.3381 2.97351C21.6311 3.26637 21.6311 3.74124 21.3383 4.03417L17.4327 7.94064C17.1399 8.23356 16.665 8.23362 16.3721 7.94076C16.0791 7.64791 16.0791 7.17303 16.372 6.8801L20.2775 2.97364C20.5703 2.68071 21.0452 2.68065 21.3381 2.97351Z" fill="black"/>
</svg>