<svg width="25" height="25" viewBox="0 0 25 25" fill="none" xmlns="http://www.w3.org/2000/svg">
<path fill-rule="evenodd" clip-rule="evenodd" d="M12.25 3.8125C7.69621 3.8125 4 7.50871 4 12.0625C4 16.6163 7.69621 20.3125 12.25 20.3125C16.8038 20.3125 20.5 16.6163 20.5 12.0625C20.5 11.6483 20.8358 11.3125 21.25 11.3125C21.6642 11.3125 22 11.6483 22 12.0625C22 17.4447 17.6322 21.8125 12.25 21.8125C6.86779 21.8125 2.5 17.4447 2.5 12.0625C2.5 6.68029 6.86779 2.3125 12.25 2.3125C12.6642 2.3125 13 2.64829 13 3.0625C13 3.47671 12.6642 3.8125 12.25 3.8125Z" fill="black"/>
<path fill-rule="evenodd" clip-rule="evenodd" d="M18.8555 2.33984C19.2697 2.33976 19.6056 2.67548 19.6057 3.08969L19.606 4.70654L21.2218 4.7072C21.636 4.70737 21.9716 5.0433 21.9715 5.45751C21.9713 5.87172 21.6354 6.20737 21.2211 6.2072L19.6062 6.20654V7.82106C19.6062 8.23528 19.2704 8.57106 18.8562 8.57106C18.4419 8.57106 18.1062 8.23528 18.1062 7.82106V6.20593L16.4899 6.20528C16.0757 6.20511 15.7401 5.86919 15.7402 5.45498C15.7404 5.04076 16.0763 4.70511 16.4905 4.70528L18.106 4.70593L18.1057 3.09C18.1056 2.67578 18.4413 2.33993 18.8555 2.33984Z" fill="black"/>
<path fill-rule="evenodd" clip-rule="evenodd" d="M9.29492 10.6052C9.29492 9.41418 10.2606 8.44922 11.4518 8.44922H14.0633C14.4775 8.44922 14.8133 8.78501 14.8133 9.19922C14.8133 9.61343 14.4775 9.94922 14.0633 9.94922H11.4518C11.0883 9.94922 10.7949 10.2433 10.7949 10.6052C10.7949 10.9684 11.0886 11.2621 11.4518 11.2621H13.0592C14.2498 11.2621 15.2151 12.2274 15.2151 13.418C15.2151 14.6093 14.2502 15.5749 13.0592 15.5749H10.4468C10.0325 15.5749 9.69676 15.2392 9.69676 14.8249C9.69676 14.4107 10.0325 14.0749 10.4468 14.0749H13.0592C13.4211 14.0749 13.7151 13.7816 13.7151 13.418C13.7151 13.0558 13.4214 12.7621 13.0592 12.7621H11.4518C10.2602 12.7621 9.29492 11.7968 9.29492 10.6052Z" fill="black"/>
<path fill-rule="evenodd" clip-rule="evenodd" d="M12.2539 7.26172C12.6681 7.26172 13.0039 7.59751 13.0039 8.01172V9.20264C13.0039 9.61685 12.6681 9.95264 12.2539 9.95264C11.8397 9.95264 11.5039 9.61685 11.5039 9.20264V8.01172C11.5039 7.59751 11.8397 7.26172 12.2539 7.26172ZM12.2539 14.0744C12.6681 14.0744 13.0039 14.4102 13.0039 14.8244V16.0056C13.0039 16.4198 12.6681 16.7556 12.2539 16.7556C11.8397 16.7556 11.5039 16.4198 11.5039 16.0056V14.8244C11.5039 14.4102 11.8397 14.0744 12.2539 14.0744Z" fill="black"/>
</svg>