<svg width="24" height="25" viewBox="0 0 24 25" fill="none" xmlns="http://www.w3.org/2000/svg">
<path opacity="0.4" fill-rule="evenodd" clip-rule="evenodd" d="M19.8457 10.3678C16.3417 10.3678 13.5007 7.52683 13.5007 4.02283C13.5007 3.72438 13.5239 3.43203 13.5651 3.14495C13.5885 2.98167 13.483 2.82513 13.3202 2.79864C12.8266 2.71833 12.321 2.67383 11.8057 2.67383C6.56666 2.67383 2.30566 6.93583 2.30566 12.1738C2.30566 17.4118 6.56666 21.6738 11.8057 21.6738C17.0437 21.6738 21.3057 17.4118 21.3057 12.1738C21.3057 11.6147 21.2564 11.067 21.1628 10.5344C21.1343 10.372 20.9763 10.2688 20.8134 10.2938C20.4978 10.3423 20.1749 10.3678 19.8457 10.3678Z" fill="black"/>
<path fill-rule="evenodd" clip-rule="evenodd" d="M21.4758 6.10192L20.2918 4.91392L21.4738 3.73192C21.7678 3.43992 21.7678 2.96392 21.4748 2.67092C21.1818 2.37792 20.7058 2.37792 20.4138 2.67092L19.2318 3.85092L18.0518 2.67092C17.7588 2.37792 17.2838 2.37792 16.9908 2.67092C16.6978 2.96392 16.6978 3.43892 16.9908 3.73192L18.1728 4.91392L16.9898 6.10192C16.6978 6.39592 16.6988 6.87092 16.9928 7.16292C17.2848 7.45592 17.7608 7.45492 18.0528 7.16092L19.2318 5.97492L20.4128 7.16092C20.5588 7.30792 20.7518 7.38092 20.9438 7.38092C21.1358 7.38092 21.3268 7.30792 21.4738 7.16292C21.7668 6.87092 21.7678 6.39592 21.4758 6.10192Z" fill="black"/>
<path d="M12.0217 15.9653H11.9637V16.4053C11.9637 16.8193 11.6277 17.1553 11.2137 17.1553C10.7997 17.1553 10.4637 16.8193 10.4637 16.4053V15.9653H9.39668C8.98268 15.9653 8.64668 15.6293 8.64668 15.2153C8.64668 14.8013 8.98268 14.4653 9.39668 14.4653H12.0217C12.3877 14.4653 12.6857 14.1693 12.6857 13.8063C12.6857 13.4423 12.3877 13.1463 12.0217 13.1463H10.4067C9.21368 13.1463 8.24268 12.1723 8.24268 10.9763C8.24268 9.78432 9.21368 8.81632 10.4067 8.81632H10.4637V8.37532C10.4637 7.96132 10.7997 7.62532 11.2137 7.62532C11.6277 7.62532 11.9637 7.96132 11.9637 8.37532V8.81632H13.0317C13.4457 8.81632 13.7817 9.15232 13.7817 9.56632C13.7817 9.98032 13.4457 10.3163 13.0317 10.3163H10.4067C10.0407 10.3163 9.74268 10.6113 9.74268 10.9763C9.74268 11.3453 10.0407 11.6463 10.4067 11.6463H12.0217C13.2147 11.6463 14.1857 12.6143 14.1857 13.8063C14.1857 14.9963 13.2147 15.9653 12.0217 15.9653Z" fill="black"/>
</svg>