<svg width="24" height="25" viewBox="0 0 24 25" fill="none" xmlns="http://www.w3.org/2000/svg">
<path d="M21 12.0625C21 17.0305 16.968 21.0625 12 21.0625C7.032 21.0625 3 17.0305 3 12.0625C3 7.0945 7.032 3.0625 12 3.0625" stroke="black" stroke-width="1.5" stroke-linecap="round" stroke-linejoin="round"/>
<path d="M13.8133 9.20117H11.2018C10.4244 9.20117 9.79492 9.83069 9.79492 10.6071C9.79492 11.3845 10.4244 12.014 11.2018 12.014H12.8092C13.5856 12.014 14.2151 12.6436 14.2151 13.42C14.2151 14.1974 13.5856 14.8269 12.8092 14.8269H10.1968" stroke="black" stroke-width="1.5" stroke-linecap="round" stroke-linejoin="round"/>
<path d="M12.0059 14.8244V16.0056M12.0059 8.01172V9.20264" stroke="black" stroke-width="1.5" stroke-linecap="round" stroke-linejoin="round"/>
<path d="M16.6523 4.51562V7.40925H19.546" stroke="black" stroke-width="1.5" stroke-linecap="round" stroke-linejoin="round"/>
<path d="M16.6523 7.40946L20.5579 3.50391" stroke="black" stroke-width="1.5" stroke-linecap="round" stroke-linejoin="round"/>
</svg>