<svg width="24" height="25" viewBox="0 0 24 25" fill="none" xmlns="http://www.w3.org/2000/svg">
<path opacity="0.4" fill-rule="evenodd" clip-rule="evenodd" d="M12 2.5625C6.762 2.5625 2.5 6.8245 2.5 12.0625C2.5 17.3015 6.762 21.5625 12 21.5625C17.238 21.5625 21.5 17.3015 21.5 12.0625C21.5 6.8245 17.238 2.5625 12 2.5625Z" fill="black"/>
<path d="M12.7539 16.1244V15.9054C13.9009 15.8094 14.8079 14.8554 14.8079 13.6844C14.8079 12.4484 13.8029 11.4434 12.5679 11.4434H11.4919C11.0509 11.4434 10.6929 11.0854 10.6929 10.6444C10.6929 10.2024 11.0509 9.84444 11.4919 9.84444H12.7749C13.0679 9.84444 13.3069 10.0824 13.3069 10.3744V10.4544C13.3069 10.8684 13.6429 11.1644 14.0569 11.1644C14.4709 11.1644 14.8069 10.7884 14.8069 10.3744C14.8069 9.25544 13.8959 8.34444 12.7749 8.34444H12.7539V8.02344C12.7539 7.60944 12.4179 7.27344 12.0039 7.27344C11.5899 7.27344 11.2539 7.60944 11.2539 8.02344V8.36844C10.0989 8.48944 9.19287 9.45744 9.19287 10.6444C9.19287 11.9124 10.2239 12.9434 11.4919 12.9434H12.5679C12.9759 12.9434 13.3079 13.2754 13.3079 13.6844C13.3079 14.0924 12.9759 14.4244 12.5679 14.4244H11.2259C10.9319 14.4244 10.6929 14.1824 10.6929 13.8844C10.6929 13.4704 10.3569 13.1344 9.94287 13.1344C9.52887 13.1344 9.19287 13.4704 9.19287 13.8844C9.19287 15.0094 10.1049 15.9244 11.2259 15.9244H11.2539V16.1244C11.2539 16.5384 11.5899 16.8744 12.0039 16.8744C12.4179 16.8744 12.7539 16.5384 12.7539 16.1244Z" fill="black"/>
</svg>