<svg width="24" height="25" viewBox="0 0 24 25" fill="none" xmlns="http://www.w3.org/2000/svg">
<path d="M21 12.0625C21 17.0305 16.968 21.0625 12 21.0625C7.032 21.0625 3 17.0305 3 12.0625C3 7.0945 7.032 3.0625 12 3.0625" stroke="black" stroke-width="1.5" stroke-linecap="round" stroke-linejoin="round"/>
<path d="M18.6062 5.45623L20.9715 5.4572M18.6062 5.45623L16.2402 5.45528M18.6062 5.45623V7.82106M18.6062 5.45623L18.6057 3.08984" stroke="black" stroke-width="1.5" stroke-linecap="round" stroke-linejoin="round"/>
<path d="M13.8133 9.19922H11.2018C10.4244 9.19922 9.79492 9.82873 9.79492 10.6052C9.79492 11.3826 10.4244 12.0121 11.2018 12.0121H12.8092C13.5856 12.0121 14.2151 12.6416 14.2151 13.418C14.2151 14.1954 13.5856 14.8249 12.8092 14.8249H10.1968" stroke="black" stroke-width="1.5" stroke-linecap="round" stroke-linejoin="round"/>
<path d="M12.0039 14.8244V16.0056M12.0039 8.01172V9.20264" stroke="black" stroke-width="1.5" stroke-linecap="round" stroke-linejoin="round"/>
</svg>