<svg width="25" height="25" viewBox="0 0 25 25" fill="none" xmlns="http://www.w3.org/2000/svg">
<path d="M13.2323 18.1758H10.9113C10.1249 18.1748 9.37091 17.8618 8.81488 17.3056C8.25885 16.7494 7.94614 15.9953 7.94534 15.2088C7.94534 15.0099 8.02436 14.8191 8.16501 14.6785C8.30566 14.5378 8.49643 14.4588 8.69534 14.4588C8.89426 14.4588 9.08503 14.5378 9.22568 14.6785C9.36633 14.8191 9.44534 15.0099 9.44534 15.2088C9.44561 15.5976 9.6001 15.9705 9.87494 16.2455C10.1498 16.5205 10.5225 16.6753 10.9113 16.6758H13.2323C13.7161 16.6758 14.18 16.4836 14.5221 16.1416C14.8642 15.7995 15.0563 15.3356 15.0563 14.8518C15.0563 14.3681 14.8642 13.9041 14.5221 13.562C14.18 13.22 13.7161 13.0278 13.2323 13.0278H11.3713C10.4624 13.0278 9.59078 12.6668 8.94809 12.0241C8.3054 11.3814 7.94434 10.5097 7.94434 9.60083C7.94434 8.69193 8.3054 7.82024 8.94809 7.17755C9.59078 6.53486 10.4624 6.17383 11.3713 6.17383H13.5883C14.3749 6.17436 15.1291 6.48697 15.6854 7.04306C16.2417 7.59915 16.5545 8.35324 16.5553 9.1398V9.26782C16.5553 9.46673 16.4763 9.6575 16.3357 9.79816C16.195 9.93881 16.0042 10.0178 15.8053 10.0178C15.6064 10.0178 15.4156 9.93881 15.275 9.79816C15.1343 9.6575 15.0553 9.46673 15.0553 9.26782V9.1398C15.0548 8.75098 14.9001 8.37827 14.625 8.10342C14.35 7.82858 13.9772 7.67409 13.5883 7.67383H11.3713C10.8603 7.67383 10.3701 7.87684 10.0087 8.23822C9.64735 8.5996 9.44434 9.08976 9.44434 9.60083C9.44434 10.1119 9.64735 10.602 10.0087 10.9634C10.3701 11.3248 10.8603 11.5278 11.3713 11.5278H13.2323C14.1139 11.5278 14.9594 11.878 15.5828 12.5014C16.2061 13.1248 16.5563 13.9702 16.5563 14.8518C16.5563 15.7334 16.2061 16.5789 15.5828 17.2022C14.9594 17.8256 14.1139 18.1758 13.2323 18.1758Z" fill="black"/>
<path d="M12.249 19.8125C12.0501 19.8125 11.8593 19.7335 11.7187 19.5928C11.578 19.4522 11.499 19.2614 11.499 19.0625V5.0625C11.499 4.86359 11.578 4.67282 11.7187 4.53217C11.8593 4.39151 12.0501 4.3125 12.249 4.3125C12.4479 4.3125 12.6387 4.39151 12.7794 4.53217C12.92 4.67282 12.999 4.86359 12.999 5.0625V19.0625C12.999 19.2614 12.92 19.4522 12.7794 19.5928C12.6387 19.7335 12.4479 19.8125 12.249 19.8125Z" fill="black"/>
</svg>