<svg width="24" height="25" viewBox="0 0 24 25" fill="none" xmlns="http://www.w3.org/2000/svg">
<path d="M7.78221 3.0625H16.2168C19.1645 3.0625 21 5.14427 21 8.08905V16.0369C21 18.9817 19.1645 21.0625 16.2158 21.0625H7.78221C4.83352 21.0625 3 18.9817 3 16.0369V8.08905C3 5.14427 4.84232 3.0625 7.78221 3.0625Z" stroke="black" stroke-width="1.5" stroke-linecap="round" stroke-linejoin="round"/>
<path d="M14.6518 10.2765C14.6518 9.52784 14.0448 8.91992 13.2962 8.91992H10.9886C10.0836 8.91992 9.34961 9.65392 9.34961 10.558C9.35059 11.463 10.0836 12.196 10.9886 12.196H13.0782C13.9481 12.196 14.6528 12.9007 14.6528 13.7705C14.6528 14.6404 13.9481 15.3451 13.0782 15.3451H10.7072C9.95753 15.3451 9.35059 14.7372 9.35059 13.9885" stroke="black" stroke-width="1.5" stroke-linecap="round" stroke-linejoin="round"/>
<path d="M12 7.78125V16.3458" stroke="black" stroke-width="1.5" stroke-linecap="round" stroke-linejoin="round"/>
</svg>