<svg width="25" height="25" viewBox="0 0 25 25" fill="none" xmlns="http://www.w3.org/2000/svg">
<path opacity="0.4" d="M6.16476 18.1145C2.86156 14.6965 2.88394 9.24795 6.24844 5.85719C8.3549 3.73419 11.2796 2.91496 14.0175 3.40533" stroke="black" stroke-width="1.5" stroke-linecap="round" stroke-linejoin="round"/>
<path opacity="0.4" d="M18.8352 6.01172C22.1384 9.42973 22.116 14.8783 18.7515 18.2691C16.6451 20.3921 13.7203 21.2113 10.9824 20.7209" stroke="black" stroke-width="1.5" stroke-linecap="round" stroke-linejoin="round"/>
<path d="M14.3064 9.25781H11.697C10.9215 9.25781 10.293 9.88634 10.293 10.6628C10.293 11.4382 10.9215 12.0677 11.697 12.0677H13.3033C14.0788 12.0677 14.7083 12.6963 14.7083 13.4727C14.7083 14.2481 14.0788 14.8776 13.3033 14.8776H10.6938" stroke="black" stroke-width="1.5" stroke-linecap="round" stroke-linejoin="round"/>
<path d="M3.5 17.9042L6.18245 18.4374L6.71271 15.7695" stroke="black" stroke-width="1.5" stroke-linecap="round" stroke-linejoin="round"/>
<path d="M21.4998 6.22068L18.8174 5.6875L18.2871 8.35536" stroke="black" stroke-width="1.5" stroke-linecap="round" stroke-linejoin="round"/>
<path d="M12.5 14.8753V16.0546M12.5 8.07031V9.26024" stroke="black" stroke-width="1.5" stroke-linecap="round" stroke-linejoin="round"/>
</svg>