<svg width="24" height="25" viewBox="0 0 24 25" fill="none" xmlns="http://www.w3.org/2000/svg">
<path d="M17.8408 14.5915L19.9775 13.9766L20.5924 16.1132" stroke="black" stroke-width="1.5" stroke-linecap="round" stroke-linejoin="round"/>
<path d="M9.98047 21.0618L12.2339 17.4268L17.164 18.9028L19.9789 13.9766" stroke="black" stroke-width="1.5" stroke-linecap="round" stroke-linejoin="round"/>
<path d="M12.8943 8.2832H10.6097C9.92962 8.2832 9.37891 8.83391 9.37891 9.51306C9.37891 10.1932 9.92962 10.7439 10.6097 10.7439H12.0157C12.6948 10.7439 13.2455 11.2946 13.2455 11.9737C13.2455 12.6539 12.6948 13.2046 12.0157 13.2046H9.73113" stroke="black" stroke-width="1.5" stroke-linecap="round" stroke-linejoin="round"/>
<path d="M11.3125 13.2037V14.237M11.3125 7.24414V8.28621" stroke="black" stroke-width="1.5" stroke-linecap="round" stroke-linejoin="round"/>
<path d="M19.2153 10.9661C19.2153 6.60125 15.6766 3.0625 11.3118 3.0625C6.94598 3.0625 3.4082 6.60125 3.4082 10.9661C3.4082 13.6943 4.78984 16.0995 6.89246 17.5201" stroke="black" stroke-width="1.5" stroke-linecap="round" stroke-linejoin="round"/>
</svg>