<svg width="24" height="25" viewBox="0 0 24 25" fill="none" xmlns="http://www.w3.org/2000/svg">
<path fill-rule="evenodd" clip-rule="evenodd" d="M12.9978 16.4305V13.2845C13.8588 13.2935 14.5558 13.9925 14.5558 14.8525C14.5558 15.7175 13.8588 16.4215 12.9978 16.4305ZM9.44385 9.6025C9.44385 8.7235 10.1308 8.0095 10.9978 7.9445V11.2705C10.1318 11.2055 9.44385 10.4865 9.44385 9.6025ZM16.5558 14.8525C16.5558 12.8895 14.9608 11.2935 12.9978 11.2845V7.9325H13.3378C14.0088 7.9325 14.5548 8.4755 14.5548 9.1425V9.2715C14.5548 9.8245 15.0028 10.2715 15.5548 10.2715C16.1068 10.2715 16.5548 9.8245 16.5548 9.2715V9.1425C16.5548 7.3725 15.1118 5.9325 13.3378 5.9325H12.9978V5.0625C12.9978 4.5095 12.5498 4.0625 11.9978 4.0625C11.4458 4.0625 10.9978 4.5095 10.9978 5.0625V5.9445C9.02785 6.0115 7.44385 7.6205 7.44385 9.6035C7.44485 11.5895 9.02985 13.2035 10.9978 13.2705V16.4325H10.6618C9.99085 16.4325 9.44585 15.8855 9.44585 15.2125C9.44585 14.6595 8.99785 14.2125 8.44585 14.2125C7.89385 14.2125 7.44585 14.6595 7.44585 15.2125C7.44585 16.9875 8.88885 18.4325 10.6618 18.4325H10.9978V19.0625C10.9978 19.6145 11.4458 20.0625 11.9978 20.0625C12.5498 20.0625 12.9978 19.6145 12.9978 19.0625V18.4305C14.9608 18.4215 16.5558 16.8205 16.5558 14.8525Z" fill="black"/>
</svg>