<svg width="24" height="25" viewBox="0 0 24 25" fill="none" xmlns="http://www.w3.org/2000/svg">
<path d="M11.999 3.0625H7.78216C4.83405 3.0625 3 5.14369 3 8.08888V16.0361C3 18.9813 4.84281 21.0625 7.78216 21.0625H14.1055C14.7642 21.0625 15.3947 20.794 15.851 20.3182L20.3257 15.6576C20.7587 15.2071 21 14.6068 21 13.9822V8.08888C21 5.14369 19.1659 3.0625 16.2159 3.0625H15.4945" stroke="black" stroke-width="1.5" stroke-linecap="round" stroke-linejoin="round"/>
<path d="M14.6758 20.9909V17.5767C14.6748 15.91 16.0234 14.5586 17.6901 14.5547" stroke="black" stroke-width="1.5" stroke-linecap="round" stroke-linejoin="round"/>
<path d="M11.4841 8.48828H9.03028C8.30055 8.48828 7.70898 9.07985 7.70898 9.80958C7.70898 10.5393 8.30055 11.1309 9.03028 11.1309H10.5403C11.2701 11.1309 11.8616 11.7224 11.8616 12.4522C11.8616 13.1819 11.2701 13.7735 10.5403 13.7735H8.0865" stroke="black" stroke-width="1.5" stroke-linecap="round" stroke-linejoin="round"/>
<path d="M9.78516 13.7724V14.8816M9.78516 7.37109V8.49001" stroke="black" stroke-width="1.5" stroke-linecap="round" stroke-linejoin="round"/>
</svg>