<svg width="25" height="25" viewBox="0 0 25 25" fill="none" xmlns="http://www.w3.org/2000/svg">
<path fill-rule="evenodd" clip-rule="evenodd" d="M13.6353 4.14352C11.1297 3.69475 8.45646 4.44463 6.53084 6.38538L6.53082 6.38539C3.45436 9.48588 3.43387 14.4681 6.45407 17.5933C6.74192 17.8911 6.73381 18.3659 6.43596 18.6538C6.1381 18.9416 5.6633 18.9335 5.37545 18.6357C1.78925 14.9248 1.81352 9.00991 5.46605 5.32886L5.99844 5.85713L5.46605 5.32886C7.75334 3.02361 10.9296 2.13504 13.8997 2.66702C14.3075 2.74004 14.5788 3.12977 14.5058 3.53749C14.4327 3.94522 14.043 4.21655 13.6353 4.14352Z" fill="black"/>
<path fill-rule="evenodd" clip-rule="evenodd" d="M18.0641 5.47046C18.362 5.18261 18.8368 5.19072 19.1246 5.48857C22.7108 9.19942 22.6866 15.1143 19.034 18.7954C16.7467 21.1006 13.5705 21.9892 10.6003 21.4572C10.1926 21.3842 9.92127 20.9945 9.9943 20.5868C10.0673 20.179 10.457 19.9077 10.8648 19.9807C13.3704 20.4295 16.0436 19.6796 17.9692 17.7389L17.9692 17.7389C21.0457 14.6384 21.0662 9.65613 18.046 6.53096C17.7582 6.23311 17.7663 5.7583 18.0641 5.47046Z" fill="black"/>
<path fill-rule="evenodd" clip-rule="evenodd" d="M9.29297 10.6628C9.29297 9.47247 10.2569 8.50781 11.447 8.50781H14.0564C14.4706 8.50781 14.8064 8.8436 14.8064 9.25781C14.8064 9.67203 14.4706 10.0078 14.0564 10.0078H11.447C11.0861 10.0078 10.793 10.3002 10.793 10.6628C10.793 11.0247 11.0864 11.3177 11.447 11.3177H13.0533C14.2426 11.3177 15.2083 12.2817 15.2083 13.4727C15.2083 14.6623 14.243 15.6276 13.0533 15.6276H10.4438C10.0296 15.6276 9.69383 15.2918 9.69383 14.8776C9.69383 14.4634 10.0296 14.1276 10.4438 14.1276H13.0533C13.4145 14.1276 13.7083 13.8339 13.7083 13.4727C13.7083 13.1108 13.4149 12.8177 13.0533 12.8177H11.447C10.2566 12.8177 9.29297 11.8518 9.29297 10.6628Z" fill="black"/>
<path fill-rule="evenodd" clip-rule="evenodd" d="M6.60907 15.0341C7.01534 15.1148 7.27922 15.5096 7.19847 15.9159L6.66821 18.5837C6.62943 18.7788 6.51474 18.9505 6.34936 19.0611C6.18399 19.1716 5.98148 19.2119 5.78638 19.1731L3.10393 18.64C2.69766 18.5592 2.43378 18.1644 2.51453 17.7581C2.59529 17.3519 2.99009 17.088 3.39636 17.1687L5.3432 17.5557L5.72725 15.6235C5.808 15.2172 6.2028 14.9533 6.60907 15.0341Z" fill="black"/>
<path fill-rule="evenodd" clip-rule="evenodd" d="M18.1507 5.06201C18.3161 4.95147 18.5186 4.91116 18.7137 4.94994L21.3962 5.48312C21.8024 5.56387 22.0663 5.95868 21.9856 6.36495C21.9048 6.77121 21.51 7.03509 21.1038 6.95434L19.1569 6.56737L18.7729 8.49962C18.6921 8.90588 18.2973 9.16977 17.891 9.08902C17.4848 9.00827 17.2209 8.61346 17.3016 8.2072L17.8319 5.53934C17.8707 5.34424 17.9854 5.17254 18.1507 5.06201Z" fill="black"/>
<path fill-rule="evenodd" clip-rule="evenodd" d="M12.25 7.32031C12.6642 7.32031 13 7.6561 13 8.07031V9.26024C13 9.67446 12.6642 10.0102 12.25 10.0102C11.8358 10.0102 11.5 9.67446 11.5 9.26024V8.07031C11.5 7.6561 11.8358 7.32031 12.25 7.32031ZM12.25 14.1253C12.6642 14.1253 13 14.4611 13 14.8753V16.0546C13 16.4688 12.6642 16.8046 12.25 16.8046C11.8358 16.8046 11.5 16.4688 11.5 16.0546V14.8753C11.5 14.4611 11.8358 14.1253 12.25 14.1253Z" fill="black"/>
</svg>