<svg width="25" height="25" viewBox="0 0 25 25" fill="none" xmlns="http://www.w3.org/2000/svg">
<path fill-rule="evenodd" clip-rule="evenodd" d="M3.98657 3.96023C4.97038 2.90336 6.3728 2.3125 8.03216 2.3125H16.4659C18.1261 2.3125 19.529 2.90326 20.5131 3.96015C21.4916 5.01097 22 6.46149 22 8.08888V13.9822C22 14.8003 21.6839 15.5869 21.1165 16.1773L16.6423 20.8373C16.0444 21.4607 15.2184 21.8125 14.3555 21.8125H8.03216C6.37669 21.8125 4.97468 21.2213 3.9902 20.1651C3.01117 19.1148 2.5 17.6644 2.5 16.0361V8.08888C2.5 6.46149 3.00842 5.01103 3.98657 3.96023ZM5.08451 4.98226C4.40861 5.70835 4 6.77107 4 8.08888V16.0361C4 17.353 4.41024 18.4158 5.08745 19.1424C5.75921 19.8631 6.74828 20.3125 8.03216 20.3125H14.3555C14.8101 20.3125 15.245 20.1272 15.5597 19.799L20.0347 15.1382C20.3332 14.8276 20.5 14.4134 20.5 13.9822V8.08888C20.5 6.77108 20.0914 5.7084 19.4153 4.98234C18.7449 4.26233 17.7558 3.8125 16.4659 3.8125H8.03216C6.74341 3.8125 5.75475 4.26223 5.08451 4.98226Z" fill="black"/>
<path fill-rule="evenodd" clip-rule="evenodd" d="M17.9383 13.8027L17.9401 13.8027L21.1732 13.8027C21.5875 13.8027 21.9232 14.1385 21.9232 14.5527C21.9232 14.9669 21.5875 15.3027 21.1732 15.3027H17.941C16.688 15.3061 15.6751 16.322 15.6758 17.5744L15.6758 20.989C15.6758 21.4032 15.34 21.739 14.9258 21.739C14.5116 21.739 14.1758 21.4032 14.1758 20.989V17.575C14.1758 17.5749 14.1758 17.5751 14.1758 17.575C14.1748 15.4945 15.8584 13.8076 17.9383 13.8027Z" fill="black"/>
<path fill-rule="evenodd" clip-rule="evenodd" d="M7.20898 9.80958C7.20898 8.66564 8.13634 7.73828 9.28028 7.73828H11.7341C12.1483 7.73828 12.4841 8.07407 12.4841 8.48828C12.4841 8.90249 12.1483 9.23828 11.7341 9.23828H9.28028C8.96477 9.23828 8.70898 9.49406 8.70898 9.80958C8.70898 10.1251 8.96477 10.3809 9.28028 10.3809H10.7903C11.9343 10.3809 12.8616 11.3082 12.8616 12.4522C12.8616 13.5961 11.9343 14.5235 10.7903 14.5235H8.3365C7.92228 14.5235 7.5865 14.1877 7.5865 13.7735C7.5865 13.3593 7.92228 13.0235 8.3365 13.0235H10.7903C11.1059 13.0235 11.3616 12.7677 11.3616 12.4522C11.3616 12.1367 11.1059 11.8809 10.7903 11.8809H9.28028C8.13634 11.8809 7.20898 10.9535 7.20898 9.80958Z" fill="black"/>
<path fill-rule="evenodd" clip-rule="evenodd" d="M10.0352 6.62109C10.4494 6.62109 10.7852 6.95688 10.7852 7.37109V8.49001C10.7852 8.90423 10.4494 9.24001 10.0352 9.24001C9.62094 9.24001 9.28516 8.90423 9.28516 8.49001V7.37109C9.28516 6.95688 9.62094 6.62109 10.0352 6.62109ZM10.0352 13.0224C10.4494 13.0224 10.7852 13.3582 10.7852 13.7724V14.8816C10.7852 15.2958 10.4494 15.6316 10.0352 15.6316C9.62094 15.6316 9.28516 15.2958 9.28516 14.8816V13.7724C9.28516 13.3582 9.62094 13.0224 10.0352 13.0224Z" fill="black"/>
</svg>