<svg width="24" height="25" viewBox="0 0 24 25" fill="none" xmlns="http://www.w3.org/2000/svg">
<path opacity="0.4" d="M12.998 16.4305V13.2845V11.2845V7.9325V5.9325V5.0625C12.998 4.5095 12.55 4.0625 11.998 4.0625C11.446 4.0625 10.998 4.5095 10.998 5.0625V5.9445V7.9445V11.2705V13.2705V16.4325V18.4325V19.0625C10.998 19.6145 11.446 20.0625 11.998 20.0625C12.55 20.0625 12.998 19.6145 12.998 19.0625V18.4305V16.4305Z" fill="black"/>
<path d="M14.5561 14.8516C14.5561 13.9916 13.8591 13.2926 12.9981 13.2836L10.9981 13.2696C9.03009 13.2026 7.44509 11.5886 7.44409 9.60264C7.44409 7.61964 9.02809 6.01064 10.9981 5.94364L12.9981 5.93164H13.3381C15.1121 5.93164 16.5551 7.37164 16.5551 9.14164V9.27064C16.5551 9.82364 16.1071 10.2706 15.5551 10.2706C15.0031 10.2706 14.5551 9.82364 14.5551 9.27064V9.14164C14.5551 8.47464 14.0091 7.93164 13.3381 7.93164L10.9981 7.94364C10.1311 8.00864 9.44409 8.72264 9.44409 9.60164C9.44409 10.4856 10.1321 11.2046 10.9981 11.2696L12.9981 11.2836C14.9611 11.2926 16.5561 12.8886 16.5561 14.8516C16.5561 16.8196 14.9611 18.4206 12.9981 18.4296L10.9981 18.4316H10.6621C8.88909 18.4316 7.44609 16.9866 7.44609 15.2116C7.44609 14.6586 7.89409 14.2116 8.44609 14.2116C8.99809 14.2116 9.44609 14.6586 9.44609 15.2116C9.44609 15.8846 9.99109 16.4316 10.6621 16.4316H10.9981L12.9981 16.4296C13.8591 16.4206 14.5561 15.7166 14.5561 14.8516Z" fill="black"/>
</svg>