<svg width="25" height="25" viewBox="0 0 25 25" fill="none" xmlns="http://www.w3.org/2000/svg">
<path opacity="0.4" d="M21.5 12.0625C21.5 7.09158 17.4709 3.0625 12.5 3.0625C7.52908 3.0625 3.5 7.09158 3.5 12.0625C3.5 17.0334 7.52908 21.0625 12.5 21.0625C17.4709 21.0625 21.5 17.0334 21.5 12.0625Z" stroke="black" stroke-width="1.5" stroke-linecap="round" stroke-linejoin="round"/>
<path d="M14.5571 10.4462V10.3722C14.5571 9.6639 13.983 9.08984 13.2747 9.08984H11.9923C11.1371 9.08984 10.4434 9.7826 10.4434 10.6388C10.4434 11.4941 11.1371 12.1878 11.9923 12.1878H13.0684C13.8906 12.1878 14.5581 12.8543 14.5581 13.6764C14.5581 14.4996 13.8906 15.1661 13.0684 15.1661H11.7257C11.0174 15.1661 10.4434 14.591 10.4434 13.8827" stroke="black" stroke-width="1.5" stroke-linecap="round" stroke-linejoin="round"/>
<path d="M12.5039 16.116V15.1712M12.5039 9.08687V8.01562" stroke="black" stroke-width="1.5" stroke-linecap="round" stroke-linejoin="round"/>
</svg>