<svg width="25" height="25" viewBox="0 0 25 25" fill="none" xmlns="http://www.w3.org/2000/svg">
<path fill-rule="evenodd" clip-rule="evenodd" d="M12.25 3.8125C7.69621 3.8125 4 7.50871 4 12.0625C4 16.6163 7.69621 20.3125 12.25 20.3125C16.8038 20.3125 20.5 16.6163 20.5 12.0625C20.5 11.6483 20.8358 11.3125 21.25 11.3125C21.6642 11.3125 22 11.6483 22 12.0625C22 17.4447 17.6322 21.8125 12.25 21.8125C6.86779 21.8125 2.5 17.4447 2.5 12.0625C2.5 6.68029 6.86779 2.3125 12.25 2.3125C12.6642 2.3125 13 2.64829 13 3.0625C13 3.47671 12.6642 3.8125 12.25 3.8125Z" fill="black"/>
<path fill-rule="evenodd" clip-rule="evenodd" d="M9.29492 10.6071C9.29492 9.41613 10.2606 8.45117 11.4518 8.45117H14.0633C14.4775 8.45117 14.8133 8.78696 14.8133 9.20117C14.8133 9.61539 14.4775 9.95117 14.0633 9.95117H11.4518C11.0883 9.95117 10.7949 10.2452 10.7949 10.6071C10.7949 10.9703 11.0886 11.264 11.4518 11.264H13.0592C14.2498 11.264 15.2151 12.2293 15.2151 13.42C15.2151 14.6113 14.2502 15.5769 13.0592 15.5769H10.4468C10.0325 15.5769 9.69676 15.2411 9.69676 14.8269C9.69676 14.4127 10.0325 14.0769 10.4468 14.0769H13.0592C13.4211 14.0769 13.7151 13.7835 13.7151 13.42C13.7151 13.0578 13.4214 12.764 13.0592 12.764H11.4518C10.2602 12.764 9.29492 11.7987 9.29492 10.6071Z" fill="black"/>
<path fill-rule="evenodd" clip-rule="evenodd" d="M12.2559 7.26172C12.6701 7.26172 13.0059 7.59751 13.0059 8.01172V9.20264C13.0059 9.61685 12.6701 9.95264 12.2559 9.95264C11.8416 9.95264 11.5059 9.61685 11.5059 9.20264V8.01172C11.5059 7.59751 11.8416 7.26172 12.2559 7.26172ZM12.2559 14.0744C12.6701 14.0744 13.0059 14.4102 13.0059 14.8244V16.0056C13.0059 16.4198 12.6701 16.7556 12.2559 16.7556C11.8416 16.7556 11.5059 16.4198 11.5059 16.0056V14.8244C11.5059 14.4102 11.8416 14.0744 12.2559 14.0744Z" fill="black"/>
<path fill-rule="evenodd" clip-rule="evenodd" d="M16.9023 3.76562C17.3166 3.76562 17.6523 4.10141 17.6523 4.51562V6.65925H19.796C20.2102 6.65925 20.546 6.99503 20.546 7.40925C20.546 7.82346 20.2102 8.15925 19.796 8.15925H16.9023C16.4881 8.15925 16.1523 7.82346 16.1523 7.40925V4.51562C16.1523 4.10141 16.4881 3.76562 16.9023 3.76562Z" fill="black"/>
<path fill-rule="evenodd" clip-rule="evenodd" d="M21.3382 2.97357C21.6311 3.26647 21.6311 3.74134 21.3382 4.03423L17.4327 7.93979C17.1398 8.23268 16.6649 8.23268 16.372 7.93979C16.0791 7.6469 16.0791 7.17202 16.372 6.87913L20.2775 2.97358C20.5704 2.68068 21.0453 2.68068 21.3382 2.97357Z" fill="black"/>
</svg>