<svg width="25" height="25" viewBox="0 0 25 25" fill="none" xmlns="http://www.w3.org/2000/svg">
<path d="M12.4998 17.38C15.4057 17.38 17.7614 15.0243 17.7614 12.1185C17.7614 10.6564 17.165 9.33355 16.2022 8.38001C15.2515 7.43844 13.9436 6.85693 12.4998 6.85693C9.59395 6.85693 7.23828 9.2126 7.23828 12.1185C7.23828 15.0243 9.59395 17.38 12.4998 17.38Z" stroke="black" stroke-width="1.5" stroke-linecap="round"/>
<path d="M12.5 21.1187C17.4706 21.1187 21.5 17.0892 21.5 12.1187C21.5 9.61768 20.4799 7.35497 18.833 5.72391C17.2069 4.11333 14.9696 3.11865 12.5 3.11865C7.52944 3.11865 3.5 7.14809 3.5 12.1187C3.5 17.0892 7.52944 21.1187 12.5 21.1187Z" stroke="black" stroke-width="1.5" stroke-linecap="round"/>
<path d="M12.5 3.11865V6.85711" stroke="black" stroke-width="1.5" stroke-linecap="round"/>
<path d="M16.2021 8.38L18.7305 5.62402" stroke="black" stroke-width="1.5" stroke-linecap="round"/>
<path d="M3.5 12.1187H7.23846" stroke="black" stroke-width="1.5" stroke-linecap="round"/>
</svg>