<svg width="25" height="25" viewBox="0 0 25 25" fill="none" xmlns="http://www.w3.org/2000/svg">
<path fill-rule="evenodd" clip-rule="evenodd" d="M12.4998 7.60693C10.0082 7.60693 7.98828 9.62682 7.98828 12.1185C7.98828 14.6101 10.0082 16.63 12.4998 16.63C14.9915 16.63 17.0114 14.6101 17.0114 12.1185C17.0114 10.8646 16.5008 9.73135 15.6744 8.91289C14.8585 8.10474 13.738 7.60693 12.4998 7.60693ZM6.48828 12.1185C6.48828 8.79839 9.17974 6.10693 12.4998 6.10693C14.1491 6.10693 15.6446 6.77213 16.73 7.84713C17.8291 8.93574 18.5114 10.4481 18.5114 12.1185C18.5114 15.4386 15.8199 18.13 12.4998 18.13C9.17974 18.13 6.48828 15.4386 6.48828 12.1185Z" fill="black"/>
<path fill-rule="evenodd" clip-rule="evenodd" d="M12.5 3.86865C7.94365 3.86865 4.25 7.5623 4.25 12.1187C4.25 16.675 7.94365 20.3687 12.5 20.3687C17.0563 20.3687 20.75 16.675 20.75 12.1187C20.75 9.82591 19.8157 7.75277 18.3053 6.25679C16.8138 4.77964 14.764 3.86865 12.5 3.86865ZM2.75 12.1187C2.75 6.73388 7.11522 2.36865 12.5 2.36865C15.1752 2.36865 17.5999 3.44702 19.3608 5.19104C21.144 6.95716 22.25 9.40945 22.25 12.1187C22.25 17.5034 17.8848 21.8687 12.5 21.8687C7.11522 21.8687 2.75 17.5034 2.75 12.1187Z" fill="black"/>
<path fill-rule="evenodd" clip-rule="evenodd" d="M12.5 2.36865C12.9142 2.36865 13.25 2.70444 13.25 3.11865V6.85711C13.25 7.27133 12.9142 7.60711 12.5 7.60711C12.0858 7.60711 11.75 7.27133 11.75 6.85711V3.11865C11.75 2.70444 12.0858 2.36865 12.5 2.36865Z" fill="black"/>
<path fill-rule="evenodd" clip-rule="evenodd" d="M19.2376 5.07137C19.5428 5.35139 19.5632 5.82582 19.2832 6.13105L16.7548 8.88702C16.4748 9.19225 16.0004 9.21268 15.6951 8.93266C15.3899 8.65265 15.3695 8.17821 15.6495 7.87299L18.1779 5.11701C18.4579 4.81178 18.9323 4.79135 19.2376 5.07137Z" fill="black"/>
<path fill-rule="evenodd" clip-rule="evenodd" d="M2.75 12.1187C2.75 11.7044 3.08579 11.3687 3.5 11.3687H7.23846C7.65268 11.3687 7.98846 11.7044 7.98846 12.1187C7.98846 12.5329 7.65268 12.8687 7.23846 12.8687H3.5C3.08579 12.8687 2.75 12.5329 2.75 12.1187Z" fill="black"/>
</svg>