<svg width="24" height="25" viewBox="0 0 24 25" fill="none" xmlns="http://www.w3.org/2000/svg">
<path fill-rule="evenodd" clip-rule="evenodd" d="M11.9991 9.53564C10.4765 9.53564 9.24219 10.7699 9.24219 12.2925C9.24219 13.8151 10.4765 15.0494 11.9991 15.0494C13.5217 15.0494 14.756 13.8151 14.756 12.2925C14.756 10.7699 13.5217 9.53564 11.9991 9.53564ZM7.74219 12.2925C7.74219 9.94152 9.64806 8.03564 11.9991 8.03564C14.3501 8.03564 16.256 9.94152 16.256 12.2925C16.256 14.6435 14.3501 16.5494 11.9991 16.5494C9.64806 16.5494 7.74219 14.6435 7.74219 12.2925Z" fill="black"/>
<path fill-rule="evenodd" clip-rule="evenodd" d="M12 3.79248C7.30558 3.79248 3.5 7.59806 3.5 12.2925C3.5 16.9869 7.30558 20.7925 12 20.7925C12.3933 20.7925 12.78 20.7658 13.1585 20.7143C13.0971 20.465 13.0645 20.2045 13.0645 19.9369C13.0645 19.2053 13.3078 18.5292 13.7165 17.9867C13.687 17.8115 13.671 17.6303 13.671 17.4451C13.671 15.655 15.1223 14.2032 16.9119 14.2032C17.036 14.2032 17.1587 14.2103 17.2795 14.224C17.848 13.731 18.591 13.4312 19.4047 13.4312C19.7523 13.4312 20.0876 13.4862 20.402 13.5879C20.4665 13.1658 20.5 12.7333 20.5 12.2925C20.5 7.59806 16.6944 3.79248 12 3.79248ZM2 12.2925C2 6.76963 6.47715 2.29248 12 2.29248C17.5228 2.29248 22 6.76963 22 12.2925C22 13.1935 21.8806 14.0679 21.6564 14.9C21.5911 15.1425 21.4087 15.3363 21.1705 15.416C20.9323 15.4958 20.67 15.4511 20.4718 15.2969C20.1768 15.0674 19.8075 14.9312 19.4047 14.9312C18.8815 14.9312 18.414 15.16 18.093 15.5255C17.9069 15.7374 17.6177 15.827 17.3443 15.7574C17.2058 15.7221 17.0608 15.7032 16.9119 15.7032C15.9511 15.7032 15.171 16.483 15.171 17.4451C15.171 17.5468 15.18 17.6475 15.1972 17.746C15.2111 17.8252 15.2281 17.8967 15.2486 17.962C15.3315 18.2267 15.2616 18.5155 15.0668 18.713C14.7555 19.0286 14.5645 19.4601 14.5645 19.9369C14.5645 20.283 14.6648 20.6035 14.8376 20.8736C14.9681 21.0775 14.9921 21.3319 14.9021 21.5566C14.8122 21.7813 14.6192 21.9488 14.3841 22.0063C13.6193 22.1935 12.8207 22.2925 12 22.2925C6.47715 22.2925 2 17.8153 2 12.2925Z" fill="black"/>
<path fill-rule="evenodd" clip-rule="evenodd" d="M19.662 6.00016C20.0273 6.1955 20.1651 6.64996 19.9697 7.01522C19.5784 7.74696 19.0056 8.08882 18.3896 8.22546C17.9892 8.31429 17.522 8.31713 17.1541 8.31936C17.0446 8.32003 16.9439 8.32064 16.8563 8.32345C16.4076 8.33787 16.0816 8.39443 15.8072 8.56532C15.5453 8.72837 15.23 9.06045 14.9572 9.83282C14.8192 10.2234 14.3908 10.4282 14.0002 10.2902C13.6097 10.1523 13.4049 9.72381 13.5428 9.33325C13.8931 8.34163 14.3836 7.68471 15.0143 7.29196C15.6326 6.90705 16.2861 6.841 16.8082 6.82423C16.992 6.81832 17.1505 6.81724 17.292 6.81628C17.6039 6.81416 17.8325 6.8126 18.0648 6.76106C18.3061 6.70753 18.486 6.60883 18.647 6.30783C18.8423 5.94257 19.2968 5.80482 19.662 6.00016Z" fill="black"/>
<path fill-rule="evenodd" clip-rule="evenodd" d="M10.2258 14.6936C10.6322 14.6138 11.0264 14.8786 11.1062 15.2851C11.1833 15.6776 11.0713 16.0956 10.9277 16.4222C10.7729 16.7742 10.5303 17.1378 10.2104 17.4478C9.55621 18.0815 8.52634 18.5249 7.30184 18.0801C6.7498 17.8796 6.42872 17.8763 6.26259 17.9081C6.1199 17.9354 6.05902 17.9932 6.01817 18.05C5.96385 18.1256 5.92632 18.2332 5.90683 18.3488C5.89779 18.4025 5.8943 18.448 5.89305 18.4777C5.89244 18.4922 5.89241 18.5021 5.89243 18.5062C5.89243 18.5065 5.89243 18.5068 5.89244 18.5071C5.90691 18.9173 5.58837 19.2637 5.1773 19.2826C4.76352 19.3016 4.41269 18.9815 4.39369 18.5678L5.1429 18.5334C4.39369 18.5678 4.39367 18.5673 4.39365 18.5669L4.3936 18.5659L4.39352 18.5639L4.39333 18.5592L4.39296 18.5474C4.39273 18.5385 4.39253 18.5275 4.39245 18.5145C4.39231 18.4887 4.39268 18.455 4.39438 18.4147C4.39774 18.3347 4.40643 18.2257 4.4277 18.0995C4.46883 17.8555 4.56441 17.5026 4.80009 17.1746C5.04924 16.828 5.43523 16.5392 5.98068 16.4348C6.50269 16.3349 7.111 16.4149 7.814 16.6702C8.384 16.8773 8.82896 16.6976 9.16667 16.3704C9.34266 16.1999 9.47532 15.9986 9.55458 15.8184C9.62938 15.6483 9.62924 15.5631 9.63172 15.563C9.63224 15.563 9.63288 15.5667 9.63433 15.5741C9.55452 15.1676 9.81932 14.7734 10.2258 14.6936Z" fill="black"/>
<path fill-rule="evenodd" clip-rule="evenodd" d="M12.6777 6.14746C12.6777 5.73325 13.0135 5.39746 13.4277 5.39746H13.4377C13.8519 5.39746 14.1877 5.73325 14.1877 6.14746C14.1877 6.56167 13.8519 6.89746 13.4377 6.89746H13.4277C13.0135 6.89746 12.6777 6.56167 12.6777 6.14746Z" fill="black"/>
<path fill-rule="evenodd" clip-rule="evenodd" d="M6.70898 8.5542C6.70898 8.13999 7.04477 7.8042 7.45898 7.8042H7.46898C7.8832 7.8042 8.21898 8.13999 8.21898 8.5542C8.21898 8.96841 7.8832 9.3042 7.46898 9.3042H7.45898C7.04477 9.3042 6.70898 8.96841 6.70898 8.5542Z" fill="black"/>
<path fill-rule="evenodd" clip-rule="evenodd" d="M8.62109 5.82715C8.62109 5.41293 8.95688 5.07715 9.37109 5.07715H9.38109C9.79531 5.07715 10.1311 5.41293 10.1311 5.82715C10.1311 6.24136 9.79531 6.57715 9.38109 6.57715H9.37109C8.95688 6.57715 8.62109 6.24136 8.62109 5.82715Z" fill="black"/>
<path fill-rule="evenodd" clip-rule="evenodd" d="M4.39258 12.2925C4.39258 11.8783 4.72836 11.5425 5.14258 11.5425H5.15258C5.56679 11.5425 5.90258 11.8783 5.90258 12.2925C5.90258 12.7067 5.56679 13.0425 5.15258 13.0425H5.14258C4.72836 13.0425 4.39258 12.7067 4.39258 12.2925Z" fill="black"/>
<path fill-rule="evenodd" clip-rule="evenodd" d="M6.12305 14.8613C6.12305 14.4471 6.45883 14.1113 6.87305 14.1113H6.88305C7.29726 14.1113 7.63305 14.4471 7.63305 14.8613C7.63305 15.2755 7.29726 15.6113 6.88305 15.6113H6.87305C6.45883 15.6113 6.12305 15.2755 6.12305 14.8613Z" fill="black"/>
<path fill-rule="evenodd" clip-rule="evenodd" d="M18.6092 17.1784C18.9068 16.8903 19.3816 16.898 19.6697 17.1956L19.6767 17.2028C19.9648 17.5004 19.9571 17.9752 19.6595 18.2633C19.3618 18.5514 18.887 18.5437 18.5989 18.2461L18.592 18.2389C18.3039 17.9413 18.3116 17.4665 18.6092 17.1784Z" fill="black"/>
<path fill-rule="evenodd" clip-rule="evenodd" d="M18.3885 20.3717C18.6861 20.0836 19.1609 20.0914 19.449 20.389L19.456 20.3962C19.7441 20.6938 19.7364 21.1686 19.4388 21.4567C19.1411 21.7448 18.6663 21.7371 18.3782 21.4394L18.3713 21.4323C18.0832 21.1346 18.0909 20.6598 18.3885 20.3717Z" fill="black"/>
</svg>