<svg width="24" height="25" viewBox="0 0 24 25" fill="none" xmlns="http://www.w3.org/2000/svg">
<path fill-rule="evenodd" clip-rule="evenodd" d="M17.0157 7.99596C17.6887 8.00296 18.6237 8.00596 19.4167 8.00296C19.8227 8.00196 20.0287 7.51196 19.7477 7.21596C19.2387 6.68196 18.5297 5.93696 17.8177 5.18896C17.1027 4.43796 16.3847 3.68396 15.8627 3.13596C15.5737 2.83296 15.0697 3.04096 15.0697 3.46096V6.02996C15.0697 7.10796 15.9487 7.99596 17.0157 7.99596Z" fill="black"/>
<path d="M10.0844 11.9782C10.0931 11.4948 10.4865 11.1094 10.9673 11.1094C11.4481 11.1094 11.8415 11.4948 11.8501 11.9782V12.207H10.0844V11.9782Z" fill="black"/>
<path d="M9.50299 13.7145C9.48797 13.7179 9.47277 13.7209 9.45742 13.7235C9.18959 13.787 8.99036 14.0278 8.99036 14.315V15.851C8.99036 16.1868 9.26258 16.459 9.59839 16.459H12.3344C12.6709 16.459 12.9434 16.1861 12.9434 15.851V14.315C12.9434 14.0267 12.7416 13.7844 12.4709 13.7224C12.4592 13.7204 12.4475 13.7181 12.436 13.7155C12.403 13.7099 12.369 13.707 12.3344 13.707H9.59839C9.56593 13.707 9.53407 13.7096 9.50299 13.7145Z" fill="black"/>
<path fill-rule="evenodd" clip-rule="evenodd" d="M16.8894 9.41822H19.8534C20.0944 9.41822 20.2874 9.61322 20.2874 9.85722V17.6962C20.2874 20.1142 18.3474 22.0742 15.9434 22.0742H8.2694C5.7594 22.0742 3.7124 20.0172 3.7124 17.4822V6.97122C3.7124 4.55322 5.6624 2.57422 8.0664 2.57422H13.2214C13.4724 2.57422 13.6654 2.77922 13.6654 3.02222V6.16222C13.6654 7.94622 15.1234 9.40922 16.8894 9.41822ZM13.3501 11.9625C13.3327 10.6574 12.2707 9.60917 10.9673 9.60938C9.66382 9.60917 8.60185 10.6574 8.58449 11.9625L8.58435 11.9725L8.58439 12.4665C7.93231 12.8249 7.49036 13.5184 7.49036 14.315V15.851C7.49036 17.0153 8.4342 17.959 9.59839 17.959H12.3344C13.4978 17.959 14.4434 17.016 14.4434 15.851V14.315C14.4434 13.5187 14.0015 12.826 13.3502 12.4674L13.3502 11.9725L13.3501 11.9625Z" fill="black"/>
</svg>