<svg width="25" height="25" viewBox="0 0 25 25" fill="none" xmlns="http://www.w3.org/2000/svg">
<path fill-rule="evenodd" clip-rule="evenodd" d="M10.0906 8.39355C9.61295 8.39355 9.22656 8.78033 9.22656 9.25758C9.22656 9.48794 9.31626 9.69697 9.46271 9.85172C9.46735 9.85539 9.47196 9.85913 9.47653 9.86293C9.50196 9.88407 9.52563 9.90654 9.54754 9.93014C9.69582 10.0499 9.88468 10.1216 10.0906 10.1216C10.2978 10.1216 10.488 10.0487 10.6369 9.92717C10.6572 9.90518 10.6791 9.88417 10.7025 9.86429C10.7081 9.85956 10.7137 9.85493 10.7193 9.8504C10.8652 9.69574 10.9546 9.48721 10.9546 9.25758C10.9546 8.78063 10.5675 8.39355 10.0906 8.39355ZM12.1533 10.4136C12.3452 10.0719 12.4546 9.67762 12.4546 9.25758C12.4546 7.9522 11.396 6.89355 10.0906 6.89355C8.78393 6.89355 7.72656 7.95249 7.72656 9.25758C7.72656 9.68221 7.83831 10.0806 8.03403 10.4249L6.05182 12.8092C5.76427 12.6848 5.44717 12.6159 5.11402 12.6159C3.80894 12.6159 2.75 13.6733 2.75 14.98C2.75 16.2853 3.80864 17.344 5.11402 17.344C6.4194 17.344 7.47805 16.2853 7.47805 14.98C7.47805 14.5546 7.36586 14.1558 7.16951 13.8111L9.15095 11.4277C9.4389 11.5525 9.75661 11.6216 10.0906 11.6216C10.429 11.6216 10.7509 11.5505 11.0421 11.4224L12.9262 13.6401C12.7345 13.9817 12.6252 14.3758 12.6252 14.7956V14.8083L12.6252 14.8116C12.6309 16.1126 13.6882 17.1644 14.9907 17.1597C14.9902 17.1597 14.9897 17.1597 14.9892 17.1597V16.4097L14.9925 17.1597C14.9919 17.1597 14.9913 17.1597 14.9907 17.1597C16.2951 17.1588 17.3533 16.1018 17.3533 14.7956C17.3533 14.3723 17.2421 13.9751 17.0474 13.6315L18.9081 11.4108C19.2061 11.5462 19.5372 11.6216 19.886 11.6216C21.1911 11.6216 22.25 10.5642 22.25 9.25758C22.25 7.9522 21.1914 6.89355 19.886 6.89355C18.5793 6.89355 17.522 7.95249 17.522 9.25758C17.522 9.66692 17.6258 10.0519 17.8086 10.3875L15.9321 12.6271C15.6432 12.5013 15.3243 12.4316 14.9892 12.4316C14.6506 12.4316 14.3285 12.5028 14.0372 12.6311L12.1533 10.4136ZM14.3572 14.2063C14.364 14.2009 14.3707 14.1954 14.3774 14.1898C14.402 14.1688 14.4249 14.1467 14.4462 14.1234C14.5946 14.0034 14.7835 13.9316 14.9892 13.9316C15.1939 13.9316 15.3819 14.0027 15.5299 14.1215C15.5519 14.1454 15.5757 14.1682 15.6013 14.1896C15.6073 14.1947 15.6134 14.1997 15.6196 14.2045C15.7645 14.359 15.8533 14.5668 15.8533 14.7956C15.8533 15.2733 15.4665 15.6597 14.9892 15.6597L14.9859 15.6597C14.5133 15.6617 14.1281 15.2807 14.1252 14.8065V14.7956C14.1252 14.5677 14.2133 14.3606 14.3572 14.2063ZM19.3084 9.90075C19.2937 9.88515 19.2781 9.87007 19.2618 9.85555C19.1131 9.70043 19.022 9.48985 19.022 9.25758C19.022 8.78033 19.4083 8.39355 19.886 8.39355C20.3629 8.39355 20.75 8.78063 20.75 9.25758C20.75 9.73521 20.3632 10.1216 19.886 10.1216C19.6637 10.1216 19.4614 10.0381 19.3084 9.90075ZM5.6544 14.3056C5.67658 14.3296 5.70058 14.3524 5.72638 14.3738C5.73175 14.3783 5.73715 14.3827 5.7426 14.3869C5.88858 14.5416 5.97805 14.7502 5.97805 14.98C5.97805 15.4569 5.59098 15.844 5.11402 15.844C4.63707 15.844 4.25 15.4569 4.25 14.98C4.25 14.5023 4.63678 14.1159 5.11402 14.1159C5.31853 14.1159 5.50643 14.1869 5.6544 14.3056Z" fill="black"/>
</svg>