<svg width="25" height="25" viewBox="0 0 25 25" fill="none" xmlns="http://www.w3.org/2000/svg">
<path d="M5.18848 20.1161V13.5431M12.5002 20.1161V10.7261M19.8118 20.1161V16.3601" stroke="black" stroke-width="1.5" stroke-linecap="round" stroke-linejoin="round"/>
<path d="M10.8748 6.27686L6.76709 7.86825" stroke="black" stroke-width="1.5" stroke-linecap="round" stroke-linejoin="round"/>
<path d="M13.9224 6.69434L18.4138 10.1363" stroke="black" stroke-width="1.5" stroke-linecap="round" stroke-linejoin="round"/>
<path d="M11.3065 4.61509C10.6472 5.27441 10.6472 6.34338 11.3065 7.00269C11.9658 7.66201 13.0348 7.66201 13.6941 7.00269C14.3534 6.34338 14.3534 5.27441 13.6941 4.61509C13.0348 3.95578 11.9658 3.95578 11.3065 4.61509Z" stroke="black" stroke-width="1.5" stroke-linecap="round" stroke-linejoin="round"/>
<path d="M18.618 9.91148C17.9587 10.5708 17.9587 11.6398 18.618 12.2991C19.2773 12.9584 20.3463 12.9584 21.0056 12.2991C21.6649 11.6398 21.6649 10.5708 21.0056 9.91148C20.3463 9.25216 19.2773 9.25216 18.618 9.91148Z" stroke="black" stroke-width="1.5" stroke-linecap="round" stroke-linejoin="round"/>
<path d="M3.99449 7.24791C3.33517 7.90722 3.33517 8.97619 3.99449 9.63551C4.6538 10.2948 5.72277 10.2948 6.38209 9.63551C7.0414 8.97619 7.0414 7.90722 6.38209 7.24791C5.72277 6.58859 4.6538 6.58859 3.99449 7.24791Z" stroke="black" stroke-width="1.5" stroke-linecap="round" stroke-linejoin="round"/>
</svg>