<svg width="24" height="25" viewBox="0 0 24 25" fill="none" xmlns="http://www.w3.org/2000/svg">
<path opacity="0.4" fill-rule="evenodd" clip-rule="evenodd" d="M12 21.75C6.761 21.75 2.5 17.489 2.5 12.25C2.5 7.012 6.761 2.75 12 2.75C17.238 2.75 21.5 7.012 21.5 12.25C21.5 17.489 17.238 21.75 12 21.75Z" fill="black"/>
<path fill-rule="evenodd" clip-rule="evenodd" d="M17.028 12.781L14.028 15.78C13.882 15.927 13.69 16 13.498 16C13.305 16 13.114 15.927 12.967 15.78C12.674 15.487 12.674 15.012 12.967 14.719L15.437 12.251L12.967 9.78C12.674 9.487 12.674 9.012 12.967 8.719C13.26 8.427 13.735 8.427 14.028 8.719L17.028 11.72C17.169 11.861 17.248 12.052 17.248 12.251C17.248 12.45 17.169 12.64 17.028 12.781ZM11.78 12.781L8.78002 15.78C8.63302 15.927 8.44202 16 8.25002 16C8.05702 16 7.86602 15.927 7.71902 15.78C7.42602 15.487 7.42602 15.012 7.71902 14.719L10.189 12.251L7.71902 9.78C7.42602 9.487 7.42602 9.012 7.71902 8.719C8.01202 8.427 8.48702 8.427 8.78002 8.719L11.78 11.72C11.921 11.861 12 12.052 12 12.251C12 12.45 11.921 12.64 11.78 12.781Z" fill="black"/>
</svg>