<svg width="25" height="24" viewBox="0 0 25 24" fill="none" xmlns="http://www.w3.org/2000/svg">
<path d="M15.6586 17.851C15.4697 17.851 15.2878 17.7796 15.1496 17.651C15.0336 17.544 12.3286 15.009 12.3146 12.251C12.2897 11.7845 12.3578 11.3177 12.5151 10.8778C12.6723 10.4379 12.9154 10.0336 13.2303 9.68857C13.5452 9.34351 13.9256 9.06452 14.3494 8.86784C14.7731 8.67117 15.2317 8.56074 15.6986 8.54297C16.234 8.54435 16.7614 8.67397 17.2366 8.92097C17.5572 9.0991 17.8385 9.34027 18.0636 9.62997C18.4133 9.52642 18.7803 9.49478 19.1426 9.53697C19.6696 9.614 20.1713 9.81331 20.6076 10.119C20.9772 10.4054 21.2862 10.7625 21.5168 11.1693C21.7473 11.5762 21.8948 12.0248 21.9506 12.4891C22.0064 12.9534 21.9695 13.4241 21.8419 13.874C21.7144 14.3239 21.4987 14.7441 21.2076 15.11C19.6436 17.329 15.9076 17.825 15.7536 17.845C15.7221 17.849 15.6903 17.851 15.6586 17.851ZM13.8146 12.251C13.8246 13.932 15.3146 15.664 15.9146 16.3C16.7856 16.135 19.0316 15.591 19.9816 14.244C20.1573 14.038 20.2904 13.7993 20.3731 13.5415C20.4559 13.2837 20.4867 13.0121 20.4637 12.7424C20.4407 12.4726 20.3644 12.2102 20.2393 11.9701C20.1141 11.7301 19.9426 11.5172 19.7346 11.344C19.4933 11.1774 19.2168 11.0689 18.9266 11.027C18.6153 11.0323 18.3078 11.0968 18.0206 11.217C17.8673 11.2709 17.7007 11.2731 17.5461 11.2232C17.3915 11.1734 17.2575 11.0742 17.1646 10.941C17.0038 10.6749 16.7929 10.4426 16.5436 10.257C16.2815 10.1211 15.9908 10.0494 15.6956 10.048C15.427 10.0674 15.1649 10.1399 14.9245 10.2614C14.6841 10.3829 14.4703 10.5508 14.2953 10.7556C14.1204 10.9603 13.9878 11.1977 13.9052 11.4541C13.8227 11.7104 13.7919 11.9806 13.8146 12.249V12.251Z" fill="black"/>
<path d="M11.7931 19.059C11.7465 19.0592 11.6999 19.0548 11.6541 19.046C11.4091 18.999 5.62112 17.874 3.41112 14.318C1.96612 12.028 2.05312 8.64697 4.70612 6.95897C5.37988 6.53833 6.14523 6.28654 6.93712 6.22497C7.5615 6.1998 8.18388 6.31069 8.76113 6.54997C9.15495 6.05248 9.65384 5.64817 10.2221 5.36596C10.9396 5.05112 11.7206 4.908 12.5031 4.94797C13.6482 5.02422 14.7315 5.49497 15.5686 6.28007C16.4056 7.06517 16.9447 8.1161 17.0941 9.25396C17.1297 9.44969 17.086 9.65153 16.9727 9.81506C16.8595 9.97859 16.6858 10.0904 16.4901 10.126C16.2944 10.1615 16.0926 10.1178 15.929 10.0046C15.7655 9.89129 15.6537 9.7177 15.6181 9.52197C15.5661 8.983 15.3864 8.46417 15.094 8.00842C14.8016 7.55267 14.4049 7.17311 13.9367 6.90114C13.4685 6.62916 12.9423 6.4726 12.4015 6.44439C11.8608 6.41619 11.3211 6.51717 10.8271 6.73897C10.3319 7.03968 9.90542 7.441 9.57512 7.91696C9.47447 8.04032 9.33721 8.12851 9.18317 8.16878C9.02913 8.20904 8.86628 8.1993 8.71813 8.14097C8.1994 7.88959 7.63495 7.74634 7.05912 7.71997C6.50756 7.76136 5.9743 7.93603 5.50513 8.22897C3.57713 9.45397 3.64112 11.872 4.68212 13.522C6.26712 16.073 10.3631 17.207 11.5821 17.495C12.3565 16.7917 13.0678 16.0221 13.7081 15.195C13.7667 15.1134 13.8411 15.0444 13.9269 14.9921C14.0127 14.9399 14.1081 14.9053 14.2074 14.8906C14.3068 14.8759 14.4081 14.8813 14.5053 14.9065C14.6026 14.9317 14.6937 14.9762 14.7735 15.0373C14.8532 15.0984 14.9198 15.1748 14.9694 15.2622C15.019 15.3495 15.0506 15.446 15.0622 15.5457C15.0738 15.6455 15.0653 15.7466 15.0371 15.843C15.0089 15.9394 14.9617 16.0292 14.8981 16.107C14.1189 17.1218 13.2377 18.054 12.2681 18.889C12.1341 18.9986 11.9663 19.0587 11.7931 19.059Z" fill="black"/>
</svg>