<svg width="25" height="24" viewBox="0 0 25 24" fill="none" xmlns="http://www.w3.org/2000/svg">
<path opacity="0.4" d="M19.3262 12.119V7.18486C19.3262 6.52936 19.3262 6.20161 19.2316 5.93888C19.0701 5.49021 18.7168 5.13698 18.2682 4.97545C18.0054 4.88086 17.6777 4.88086 17.0222 4.88086H8.05791C7.40241 4.88086 7.07466 4.88086 6.81193 4.97545C6.36326 5.13698 6.01003 5.49021 5.8485 5.93888C5.75391 6.20161 5.75391 6.52936 5.75391 7.18486V12.119" stroke="black" stroke-width="1.5" stroke-linecap="round" stroke-linejoin="round"/>
<path opacity="0.4" d="M11.5391 12.119V11.5211C11.5391 11.1114 11.5391 10.9065 11.4799 10.7423C11.379 10.4619 11.1582 10.2411 10.8778 10.1402C10.7136 10.0811 10.5087 10.0811 10.0991 10.0811H9.47906C9.06938 10.0811 8.86453 10.0811 8.70032 10.1402C8.41991 10.2411 8.19914 10.4619 8.09818 10.7423C8.03906 10.9065 8.03906 11.1114 8.03906 11.5211V12.119" stroke="black" stroke-width="1.5" stroke-linecap="round" stroke-linejoin="round"/>
<path opacity="0.4" d="M17.0391 12.119V11.5211C17.0391 11.1114 17.0391 10.9065 16.9799 10.7423C16.879 10.4619 16.6582 10.2411 16.3778 10.1402C16.2136 10.0811 16.0087 10.0811 15.5991 10.0811H14.9791C14.5694 10.0811 14.3645 10.0811 14.2003 10.1402C13.9199 10.2411 13.6991 10.4619 13.5982 10.7423C13.5391 10.9065 13.5391 11.1114 13.5391 11.5211V12.119" stroke="black" stroke-width="1.5" stroke-linecap="round" stroke-linejoin="round"/>
<path d="M21.5391 19.1191V14.4231C21.5391 13.7676 21.5391 13.4399 21.4445 13.1772C21.2829 12.7285 20.9297 12.3753 20.481 12.2137C20.2183 12.1191 19.8906 12.1191 19.2351 12.1191H5.84306C5.18757 12.1191 4.85982 12.1191 4.59708 12.2137C4.14842 12.3753 3.79518 12.7285 3.63365 13.1772C3.53906 13.4399 3.53906 13.7676 3.53906 14.4231V19.1191" stroke="black" stroke-width="1.5" stroke-linecap="round" stroke-linejoin="round"/>
<path d="M3.53906 17.8809H21.5391" stroke="black" stroke-width="1.5" stroke-linecap="round" stroke-linejoin="round"/>
</svg>