<svg width="24" height="24" viewBox="0 0 24 24" fill="none" xmlns="http://www.w3.org/2000/svg">
<path fill-rule="evenodd" clip-rule="evenodd" d="M21.75 12C21.75 6.61584 17.3842 2.25 12 2.25C6.61584 2.25 2.25 6.61584 2.25 12C2.25 17.3842 6.61584 21.75 12 21.75C17.3842 21.75 21.75 17.3842 21.75 12ZM12 3.75C16.5557 3.75 20.25 7.44427 20.25 12C20.25 16.5557 16.5557 20.25 12 20.25C7.44427 20.25 3.75 16.5557 3.75 12C3.75 7.44427 7.44427 3.75 12 3.75Z" fill="black"/>
<path fill-rule="evenodd" clip-rule="evenodd" d="M7.72008 8.46958C7.42714 8.76243 7.42706 9.2373 7.71991 9.53024L10.1894 12.0006L7.71999 14.47C7.4271 14.7629 7.4271 15.2378 7.71999 15.5307C8.01289 15.8235 8.48776 15.8235 8.78065 15.5307L11.7803 12.531C12.0732 12.2381 12.0732 11.7633 11.7804 11.4704L8.78074 8.46976C8.48789 8.17682 8.01302 8.17674 7.72008 8.46958Z" fill="black"/>
<path fill-rule="evenodd" clip-rule="evenodd" d="M12.9681 8.46958C12.6752 8.76243 12.6751 9.2373 12.968 9.53024L15.4375 12.0006L12.968 14.47C12.6751 14.7629 12.6751 15.2378 12.968 15.5307C13.2609 15.8235 13.7358 15.8235 14.0287 15.5307L17.0284 12.531C17.3212 12.2381 17.3213 11.7633 17.0285 11.4704L14.0288 8.46976C13.7359 8.17682 13.2611 8.17674 12.9681 8.46958Z" fill="black"/>
</svg>