<svg width="24" height="24" viewBox="0 0 24 24" fill="none" xmlns="http://www.w3.org/2000/svg">
<path fill-rule="evenodd" clip-rule="evenodd" d="M8.46958 12.9698C8.76243 12.6768 9.2373 12.6767 9.53024 12.9696L12.0006 15.4391L14.47 12.9697C14.7629 12.6768 15.2378 12.6768 15.5307 12.9697C15.8235 13.2626 15.8235 13.7374 15.5307 14.0303L12.531 17.03C12.2381 17.3229 11.7633 17.3229 11.4704 17.0301L8.46976 14.0304C8.17682 13.7376 8.17674 13.2627 8.46958 12.9698Z" fill="black"/>
<path fill-rule="evenodd" clip-rule="evenodd" d="M8.46958 7.71976C8.76243 7.42682 9.2373 7.42674 9.53024 7.71958L12.0006 10.1891L14.47 7.71967C14.7629 7.42678 15.2378 7.42678 15.5307 7.71967C15.8235 8.01256 15.8235 8.48744 15.5307 8.78033L12.531 11.78C12.2381 12.0729 11.7633 12.0729 11.4704 11.7801L8.46976 8.78042C8.17682 8.48757 8.17674 8.0127 8.46958 7.71976Z" fill="black"/>
<path fill-rule="evenodd" clip-rule="evenodd" d="M3.89773 3.73657C4.94853 2.75842 6.39899 2.25 8.02638 2.25H15.9736C17.6019 2.25 19.0523 2.76117 20.1026 3.7402C21.1588 4.72468 21.75 6.12669 21.75 7.78216V16.2169C21.75 17.8762 21.1592 19.2788 20.1024 20.2629C19.0516 21.2413 17.6011 21.75 15.9736 21.75H8.02638C6.39889 21.75 4.94838 21.2413 3.89761 20.2627C2.8408 19.2785 2.25 17.8756 2.25 16.2159V7.78216C2.25 6.1228 2.84086 4.72038 3.89773 3.73657ZM4.91976 4.83451C4.19973 5.50475 3.75 6.49341 3.75 7.78216V16.2159C3.75 17.5052 4.1998 18.4944 4.91988 19.165C5.64599 19.8412 6.70868 20.25 8.02638 20.25H15.9736C17.2913 20.25 18.354 19.8412 19.0802 19.1651C19.8003 18.4946 20.25 17.5056 20.25 16.2169V7.78216C20.25 6.49828 19.8006 5.50921 19.0799 4.83745C18.3533 4.16024 17.2905 3.75 15.9736 3.75H8.02638C6.70857 3.75 5.64585 4.15861 4.91976 4.83451Z" fill="black"/>
</svg>