<svg width="25" height="24" viewBox="0 0 25 24" fill="none" xmlns="http://www.w3.org/2000/svg">
<path fill-rule="evenodd" clip-rule="evenodd" d="M4.86865 10.4465H6.42874C6.52406 10.4465 6.60537 10.3789 6.62967 10.2868C6.94021 9.10886 8.0136 8.2375 9.28765 8.2375C10.5617 8.2375 11.6351 9.10886 11.9456 10.2868C11.9699 10.3789 12.0512 10.4465 12.1466 10.4465H12.5057C12.6011 10.4465 12.6824 10.3789 12.7067 10.2868C13.0172 9.10886 14.0906 8.2375 15.3647 8.2375C16.6387 8.2375 17.7121 9.10886 18.0226 10.2868C18.0469 10.3789 18.1282 10.4465 18.2236 10.4465H19.7837C20.0597 10.4465 20.2837 10.2225 20.2837 9.9465V6.7155C20.2837 5.9395 20.2837 5.5505 20.1507 5.1835C19.9257 4.5575 19.4327 4.0595 18.7827 3.8135C18.4167 3.6875 18.0267 3.6875 17.2517 3.6875H7.40065C6.62565 3.6875 6.23765 3.6875 5.85365 3.8185C5.21865 4.0595 4.72565 4.5575 4.50265 5.1815C4.36865 5.5505 4.36865 5.9385 4.36865 6.7155V9.9465C4.36865 10.2225 4.59265 10.4465 4.86865 10.4465Z" fill="black"/>
<path fill-rule="evenodd" clip-rule="evenodd" d="M21.7022 12.891C21.4872 12.293 21.0252 11.83 20.4302 11.618C20.0882 11.501 19.7312 11.501 19.0222 11.501H5.63017C4.92017 11.501 4.56417 11.501 4.21517 11.62C3.62517 11.831 3.16417 12.295 2.95117 12.89C2.82617 13.233 2.82617 13.589 2.82617 14.301V15.692C2.82617 16.409 2.82617 16.769 2.95017 17.111C3.16217 17.702 3.62317 18.162 4.20517 18.368C4.38217 18.435 4.56317 18.469 4.79117 18.485V19.561C4.79117 19.975 5.12717 20.311 5.54117 20.311C5.95517 20.311 6.29117 19.975 6.29117 19.561V18.701C6.29117 18.5905 6.38071 18.501 6.49117 18.501H18.1622C18.2726 18.501 18.3622 18.5905 18.3622 18.701V19.561C18.3622 19.975 18.6982 20.311 19.1122 20.311C19.5262 20.311 19.8622 19.975 19.8622 19.561V18.485C20.0872 18.47 20.2642 18.438 20.4352 18.372C21.0272 18.162 21.4892 17.703 21.7022 17.112C21.8262 16.769 21.8262 16.409 21.8262 15.692V14.301C21.8262 13.59 21.8262 13.233 21.7022 12.891Z" fill="black"/>
</svg>