<svg width="25" height="24" viewBox="0 0 25 24" fill="none" xmlns="http://www.w3.org/2000/svg">
<path d="M19.0176 12.119V7.18486C19.0176 6.52936 19.0176 6.20161 18.923 5.93888C18.7615 5.49021 18.4082 5.13698 17.9596 4.97545C17.6968 4.88086 17.3691 4.88086 16.7136 4.88086H12.2314" stroke="black" stroke-width="1.5" stroke-linecap="round" stroke-linejoin="round"/>
<path d="M5.44531 12.119V7.18486C5.44531 6.52936 5.44531 6.20161 5.5399 5.93888C5.70143 5.49021 6.05467 5.13698 6.50333 4.97545C6.76607 4.88086 7.09382 4.88086 7.74931 4.88086H9.32339" stroke="black" stroke-width="1.5" stroke-linecap="round" stroke-linejoin="round"/>
<path d="M14.2324 9.58105H16.2095" stroke="black" stroke-width="1.5" stroke-linecap="round" stroke-linejoin="round"/>
<path d="M8.23047 9.58105H10.2076" stroke="black" stroke-width="1.5" stroke-linecap="round" stroke-linejoin="round"/>
<path d="M21.2305 19.1191V14.4231C21.2305 13.7676 21.2305 13.4399 21.1359 13.1772C20.9743 12.7285 20.6211 12.3753 20.1724 12.2137C19.9097 12.1191 19.582 12.1191 18.9265 12.1191H5.53447C4.87897 12.1191 4.55122 12.1191 4.28849 12.2137C3.83982 12.3753 3.48659 12.7285 3.32506 13.1772C3.23047 13.4399 3.23047 13.7676 3.23047 14.4231V19.1191" stroke="black" stroke-width="1.5" stroke-linecap="round" stroke-linejoin="round"/>
<path d="M3.23047 17.8809H18.493" stroke="black" stroke-width="1.5" stroke-linecap="round" stroke-linejoin="round"/>
</svg>