<svg width="24" height="24" viewBox="0 0 24 24" fill="none" xmlns="http://www.w3.org/2000/svg">
<path fill-rule="evenodd" clip-rule="evenodd" d="M9.27494 18.7179C6.84894 18.0619 5.40394 15.5559 6.05194 13.1319L7.87246 6.29714C7.92319 6.1067 7.77964 5.91992 7.58257 5.91992H6.40294C4.43594 5.91992 2.83594 7.51692 2.83594 9.47992V17.9699C2.83594 19.9389 4.43594 21.5399 6.40294 21.5399H12.4189C13.2499 21.5399 13.979 21.1005 14.3889 20.443C14.4937 20.2749 14.3734 20.0707 14.179 20.033C14.0844 20.0147 13.9901 19.9933 13.8959 19.9679L9.27494 18.7179Z" fill="black"/>
<path fill-rule="evenodd" clip-rule="evenodd" d="M18.5249 3.82446L13.9139 2.58446C12.9929 2.33746 12.0289 2.46346 11.2019 2.93946C10.3759 3.41646 9.78591 4.18646 9.53991 5.10746L7.35591 13.3065C6.84891 15.1985 7.97791 17.1555 9.87391 17.6695L14.4949 18.9195C14.8019 19.0025 15.1149 19.0435 15.4249 19.0435C16.0419 19.0435 16.6499 18.8815 17.1989 18.5645C18.0239 18.0885 18.6129 17.3175 18.8589 16.3955L21.0449 8.18546C21.5489 6.29346 20.4199 4.33746 18.5249 3.82446Z" fill="black"/>
</svg>