<svg width="24" height="24" viewBox="0 0 24 24" fill="none" xmlns="http://www.w3.org/2000/svg">
<path fill-rule="evenodd" clip-rule="evenodd" d="M12.0005 11.9993C12.0005 11.7433 12.0985 11.4873 12.2935 11.2923L17.2925 6.2913C17.6835 5.9003 18.3165 5.9003 18.7075 6.2913C19.0975 6.6823 19.0975 7.3143 18.7075 7.7053L14.4145 11.9993L18.7075 16.2933C19.0975 16.6843 19.0975 17.3163 18.7075 17.7073C18.3165 18.0983 17.6835 18.0983 17.2925 17.7073L12.2935 12.7063C12.0985 12.5113 12.0005 12.2553 12.0005 11.9993Z" fill="black"/>
<path opacity="0.4" fill-rule="evenodd" clip-rule="evenodd" d="M5.0005 11.9993C5.0005 11.7433 5.0985 11.4873 5.2935 11.2923L10.2925 6.2913C10.6835 5.9003 11.3165 5.9003 11.7075 6.2913C12.0975 6.6823 12.0975 7.3143 11.7075 7.7053L7.4145 11.9993L11.7075 16.2933C12.0975 16.6843 12.0975 17.3163 11.7075 17.7073C11.3165 18.0983 10.6835 18.0983 10.2925 17.7073L5.2935 12.7063C5.0985 12.5113 5.0005 12.2553 5.0005 11.9993Z" fill="black"/>
</svg>