<svg width="24" height="24" viewBox="0 0 24 24" fill="none" xmlns="http://www.w3.org/2000/svg">
<path fill-rule="evenodd" clip-rule="evenodd" d="M7.72008 8.46958C7.42714 8.76243 7.42706 9.2373 7.71991 9.53024L10.1894 12.0006L7.71999 14.47C7.4271 14.7629 7.4271 15.2378 7.71999 15.5307C8.01289 15.8235 8.48776 15.8235 8.78065 15.5307L11.7803 12.531C12.0732 12.2381 12.0732 11.7633 11.7804 11.4704L8.78074 8.46976C8.48789 8.17682 8.01302 8.17674 7.72008 8.46958Z" fill="black"/>
<path fill-rule="evenodd" clip-rule="evenodd" d="M12.9681 8.46958C12.6752 8.76243 12.6751 9.2373 12.968 9.53024L15.4375 12.0006L12.968 14.47C12.6751 14.7629 12.6751 15.2378 12.968 15.5307C13.2609 15.8235 13.7358 15.8235 14.0287 15.5307L17.0284 12.531C17.3212 12.2381 17.3213 11.7633 17.0285 11.4704L14.0288 8.46976C13.7359 8.17682 13.2611 8.17674 12.9681 8.46958Z" fill="black"/>
<path fill-rule="evenodd" clip-rule="evenodd" d="M3.89773 3.73657C4.94853 2.75842 6.39899 2.25 8.02638 2.25H15.9736C17.6019 2.25 19.0523 2.76117 20.1026 3.7402C21.1588 4.72468 21.75 6.12669 21.75 7.78216V16.2169C21.75 17.8762 21.1592 19.2788 20.1024 20.2629C19.0516 21.2413 17.6011 21.75 15.9736 21.75H8.02638C6.39889 21.75 4.94838 21.2413 3.89761 20.2627C2.8408 19.2785 2.25 17.8756 2.25 16.2159V7.78216C2.25 6.1228 2.84086 4.72038 3.89773 3.73657ZM4.91976 4.83451C4.19973 5.50475 3.75 6.49341 3.75 7.78216V16.2159C3.75 17.5052 4.1998 18.4944 4.91988 19.165C5.64599 19.8412 6.70868 20.25 8.02638 20.25H15.9736C17.2913 20.25 18.354 19.8412 19.0802 19.1651C19.8003 18.4946 20.25 17.5056 20.25 16.2169V7.78216C20.25 6.49828 19.8006 5.50921 19.0799 4.83745C18.3533 4.16024 17.2905 3.75 15.9736 3.75H8.02638C6.70857 3.75 5.64585 4.15861 4.91976 4.83451Z" fill="black"/>
</svg>