<svg width="25" height="24" viewBox="0 0 25 24" fill="none" xmlns="http://www.w3.org/2000/svg">
<path fill-rule="evenodd" clip-rule="evenodd" d="M21.8415 13.1752C21.6085 12.5232 21.0965 12.0062 20.4145 11.7482C20.0335 11.6182 19.6405 11.6182 18.9265 11.6182H5.53447C4.82047 11.6182 4.42647 11.6182 4.02247 11.7572C3.36447 12.0062 2.85347 12.5232 2.62047 13.1712C2.48047 13.5552 2.48047 13.9502 2.48047 14.6682V19.3682C2.48047 19.7822 2.81647 20.1182 3.23047 20.1182C3.64447 20.1182 3.98047 19.7822 3.98047 19.3682V19.0782C3.98047 18.9677 4.07001 18.8782 4.18047 18.8782H20.2805C20.3909 18.8782 20.4805 18.9677 20.4805 19.0782V19.3682C20.4805 19.7822 20.8165 20.1182 21.2305 20.1182C21.6445 20.1182 21.9805 19.7822 21.9805 19.3682V14.6682C21.9805 13.9502 21.9805 13.5552 21.8415 13.1752Z" fill="black"/>
<path opacity="0.4" fill-rule="evenodd" clip-rule="evenodd" d="M4.81177 10.6109H19.6518C19.9218 10.6109 20.1518 10.3809 20.1518 10.1109V6.89086C20.1518 6.12086 20.1518 5.73086 20.0218 5.37086C19.7918 4.74086 19.2918 4.24086 18.6718 4.02086C18.3018 3.88086 17.9118 3.88086 17.1318 3.88086H7.33177C6.55177 3.88086 6.16177 3.88086 5.80177 4.02086C5.17177 4.24086 4.67177 4.73086 4.44177 5.37086C4.31177 5.73086 4.31177 6.12086 4.31177 6.89086V10.1109C4.31177 10.3809 4.53177 10.6109 4.81177 10.6109Z" fill="black"/>
<path d="M10.1618 7.93164H8.18176C7.77176 7.93164 7.43176 8.26164 7.43176 8.68164C7.43176 9.09164 7.77176 9.43164 8.18176 9.43164H10.1618C10.5718 9.43164 10.9118 9.09164 10.9118 8.68164C10.9118 8.26164 10.5718 7.93164 10.1618 7.93164Z" fill="black"/>
<path d="M16.1618 7.93164H14.1818C13.7718 7.93164 13.4318 8.26164 13.4318 8.68164C13.4318 9.09164 13.7718 9.43164 14.1818 9.43164H16.1618C16.5718 9.43164 16.9118 9.09164 16.9118 8.68164C16.9118 8.26164 16.5718 7.93164 16.1618 7.93164Z" fill="black"/>
</svg>