<svg width="25" height="24" viewBox="0 0 25 24" fill="none" xmlns="http://www.w3.org/2000/svg">
<path fill-rule="evenodd" clip-rule="evenodd" d="M17.5578 13.0319C17.5558 10.5177 15.8648 8.1748 13.23 8.17383C12.5479 8.1748 11.8775 8.34021 11.2733 8.65351C10.6681 8.96778 10.2059 9.60314 9.81189 10.1597C9.1668 9.94173 8.42053 9.69654 7.74723 9.79384C7.07392 9.89114 6.4337 10.1461 5.87716 10.5382C3.73855 12.0823 3.72104 14.9662 5.18537 17.0104C7.47576 20.2631 13.2971 20.9996 13.2971 20.9996C13.2971 20.9996 17.5364 17.0746 17.5578 13.0319Z" stroke="black" stroke-width="1.5" stroke-linecap="round" stroke-linejoin="round"/>
<path d="M10.2611 9.55691C10.0003 8.84761 9.83297 8.0955 9.82227 7.34338C9.82227 5.09774 11.3362 3.00973 13.686 3C14.3019 3.00973 14.8973 3.14595 15.4403 3.42811C15.9832 3.7093 16.3899 4.27363 16.745 4.77472C17.3298 4.57623 17.9875 4.35731 18.583 4.45071C19.1882 4.53439 19.7632 4.75331 20.2643 5.10845C22.1645 6.49689 22.1849 9.06653 20.8802 10.8938C20.0862 12.0312 18.8019 12.8144 17.5497 13.3574" stroke="black" stroke-width="1.5" stroke-linecap="round" stroke-linejoin="round"/>
</svg>