<svg width="24" height="24" viewBox="0 0 24 24" fill="none" xmlns="http://www.w3.org/2000/svg">
<path fill-rule="evenodd" clip-rule="evenodd" d="M15.53 8.78L12.531 11.78C12.39 11.921 12.2 12 12.001 12C11.801 12 11.611 11.921 11.47 11.78L8.469 8.78C8.176 8.488 8.176 8.012 8.469 7.719C8.762 7.426 9.237 7.426 9.53 7.719L12.001 10.189L14.469 7.719C14.762 7.426 15.237 7.426 15.53 7.719C15.823 8.012 15.823 8.487 15.53 8.78ZM15.53 14.03L12.531 17.03C12.39 17.171 12.2 17.25 12.001 17.25C11.801 17.25 11.611 17.171 11.47 17.03L8.469 14.03C8.176 13.738 8.176 13.262 8.469 12.969C8.762 12.676 9.237 12.676 9.53 12.969L12.001 15.439L14.469 12.969C14.762 12.676 15.237 12.676 15.53 12.969C15.823 13.262 15.823 13.737 15.53 14.03ZM12 2.5C6.761 2.5 2.5 6.761 2.5 12C2.5 17.238 6.761 21.5 12 21.5C17.238 21.5 21.5 17.238 21.5 12C21.5 6.761 17.238 2.5 12 2.5Z" fill="black"/>
</svg>