<svg width="25" height="24" viewBox="0 0 25 24" fill="none" xmlns="http://www.w3.org/2000/svg">
<path fill-rule="evenodd" clip-rule="evenodd" d="M17.1905 10.8508C17.9702 10.4418 18.8882 10.3569 19.7403 10.6294L19.7417 10.6298C21.7503 11.2764 22.3503 13.4205 21.8053 15.1228C21.3674 16.4843 20.2484 17.6038 19.338 18.3434C18.8698 18.7238 18.4276 19.027 18.1023 19.2354C17.9392 19.3398 17.8044 19.4211 17.709 19.4771C17.6613 19.5051 17.6234 19.5267 17.5966 19.5419L17.5649 19.5596L17.5557 19.5647L17.5527 19.5663L17.5517 19.5669C17.5515 19.5669 17.551 19.5673 17.1923 18.9086C16.8315 19.5661 16.8314 19.566 16.8312 19.5659L16.8298 19.5651L16.8269 19.5635L16.8176 19.5584L16.7859 19.5405C16.759 19.5252 16.7209 19.5033 16.6729 19.475C16.5771 19.4184 16.4416 19.3362 16.2778 19.2308C15.951 19.0206 15.507 18.7151 15.0376 18.3332C14.1271 17.5925 13.0057 16.4728 12.5798 15.121C12.0351 13.4171 12.6415 11.2757 14.6478 10.6298L14.6529 10.6282C15.5019 10.3616 16.4139 10.4469 17.1905 10.8508ZM17.1923 18.9086L16.8312 19.5659C17.0552 19.6888 17.3273 19.689 17.5517 19.5669L17.1923 18.9086ZM17.1934 18.0355C17.225 18.0157 17.2584 17.9946 17.2933 17.9722C17.5838 17.7862 17.9779 17.5158 18.3922 17.1792C19.2466 16.485 20.0771 15.5966 20.3769 14.6649C20.748 13.5052 20.278 12.3787 19.2827 12.0579C18.7228 11.8791 18.1119 11.9819 17.6422 12.334C17.3766 12.5331 17.0118 12.534 16.7453 12.3361C16.2745 11.9866 15.6653 11.8834 15.1049 12.0585C14.1092 12.3807 13.6384 13.5081 14.0089 14.6654L14.0101 14.669C14.2977 15.5835 15.1246 16.4703 15.9842 17.1697C16.4002 17.5081 16.7968 17.7811 17.0894 17.9694C17.1258 17.9928 17.1605 18.0148 17.1934 18.0355Z" fill="black"/>
<path fill-rule="evenodd" clip-rule="evenodd" d="M6.79336 5.84334C4.43836 6.61175 3.48166 9.23565 4.26427 11.6988C4.91222 13.6658 6.61199 15.3413 8.24954 16.5578C9.05631 17.1571 9.8214 17.6255 10.3846 17.9438C10.6211 18.0775 10.8211 18.1842 10.9726 18.2625C11.1529 18.1694 11.4019 18.0362 11.6993 17.8653C12.3424 17.4959 13.2049 16.9544 14.0863 16.2657C14.4127 16.0107 14.8841 16.0686 15.1391 16.395C15.3941 16.7214 15.3363 17.1927 15.0099 17.4477C14.0582 18.1913 13.1329 18.7716 12.4465 19.166C12.1026 19.3635 11.8169 19.5154 11.6156 19.6186C11.5149 19.6702 11.4352 19.7098 11.3797 19.7368C11.3519 19.7504 11.3303 19.7608 11.315 19.768L11.2971 19.7766L11.2918 19.779L11.2901 19.7798C11.29 19.7799 11.2891 19.7803 10.9725 19.1004C10.6559 19.7803 10.6557 19.7802 10.6554 19.7801L10.6534 19.7792L10.6488 19.777L10.6331 19.7696C10.6199 19.7633 10.6011 19.7543 10.577 19.7426C10.5289 19.7192 10.4598 19.6851 10.3723 19.6405C10.1974 19.5514 9.94855 19.4204 9.64654 19.2497C9.04348 18.9088 8.22349 18.407 7.35506 17.7619C5.64313 16.4902 3.63301 14.5816 2.8382 12.1639L2.83601 12.1572C1.87944 9.15282 2.96451 5.51071 6.33405 4.41538L6.34288 4.41251C7.19143 4.14824 8.09189 4.07781 8.98414 4.22858L8.98585 4.22887C9.73352 4.35699 10.4237 4.7752 10.9734 5.16693C11.525 4.77668 12.213 4.36644 12.9591 4.23861L12.9608 4.23831C13.8467 4.08862 14.7473 4.14636 15.602 4.41256L15.6129 4.41594C18.6891 5.42538 19.8745 8.56163 19.3096 11.3758C19.228 11.7819 18.8327 12.045 18.4266 11.9635C18.0205 11.8819 17.7574 11.4866 17.8389 11.0805C18.2951 8.80796 17.3187 6.55771 15.1506 5.84304C14.5264 5.64957 13.8666 5.60665 13.2116 5.7172C12.6582 5.81232 12.0656 6.21178 11.4257 6.69718C11.1578 6.90049 10.7872 6.90049 10.5192 6.69718C9.87317 6.20711 9.28403 5.80213 8.73333 5.70747C8.08428 5.59794 7.42403 5.64765 6.79336 5.84334ZM10.9725 19.1004L10.6554 19.7801C10.8562 19.8736 11.0883 19.8738 11.2891 19.7803L10.9725 19.1004Z" fill="black"/>
</svg>