<svg width="25" height="24" viewBox="0 0 25 24" fill="none" xmlns="http://www.w3.org/2000/svg">
<path d="M18.8262 12.119V7.18486C18.8262 6.52936 18.8262 6.20161 18.7316 5.93888C18.5701 5.49021 18.2168 5.13698 17.7682 4.97545C17.5054 4.88086 17.1777 4.88086 16.5222 4.88086H12.04" stroke="black" stroke-width="1.5" stroke-linecap="round" stroke-linejoin="round"/>
<path d="M5.25391 12.119V7.18486C5.25391 6.52936 5.25391 6.20161 5.3485 5.93888C5.51003 5.49021 5.86326 5.13698 6.31193 4.97545C6.57466 4.88086 6.90241 4.88086 7.55791 4.88086H9.35733" stroke="black" stroke-width="1.5" stroke-linecap="round" stroke-linejoin="round"/>
<path d="M11.0391 12.119V11.5211C11.0391 11.1114 11.0391 10.9065 10.9799 10.7423C10.879 10.4619 10.6582 10.2411 10.3778 10.1402C10.2136 10.0811 10.0087 10.0811 9.59906 10.0811H8.97906C8.56938 10.0811 8.36453 10.0811 8.20032 10.1402C7.91991 10.2411 7.69914 10.4619 7.59818 10.7423C7.53906 10.9065 7.53906 11.1114 7.53906 11.5211V12.119" stroke="black" stroke-width="1.5" stroke-linecap="round" stroke-linejoin="round"/>
<path d="M16.5391 12.119V11.5211C16.5391 11.1114 16.5391 10.9065 16.4799 10.7423C16.379 10.4619 16.1582 10.2411 15.8778 10.1402C15.7136 10.0811 15.5087 10.0811 15.0991 10.0811H14.4791C14.0694 10.0811 13.8645 10.0811 13.7003 10.1402C13.4199 10.2411 13.1991 10.4619 13.0982 10.7423C13.0391 10.9065 13.0391 11.1114 13.0391 11.5211V12.119" stroke="black" stroke-width="1.5" stroke-linecap="round" stroke-linejoin="round"/>
<path d="M21.0391 19.1191V14.4231C21.0391 13.7676 21.0391 13.4399 20.9445 13.1772C20.7829 12.7285 20.4297 12.3753 19.981 12.2137C19.7183 12.1191 19.3906 12.1191 18.7351 12.1191H5.34306C4.68757 12.1191 4.35982 12.1191 4.09708 12.2137C3.64842 12.3753 3.29518 12.7285 3.13365 13.1772C3.03906 13.4399 3.03906 13.7676 3.03906 14.4231V19.1191" stroke="black" stroke-width="1.5" stroke-linecap="round" stroke-linejoin="round"/>
<path d="M3.03906 17.8809H18.3077" stroke="black" stroke-width="1.5" stroke-linecap="round" stroke-linejoin="round"/>
</svg>