<svg width="24" height="24" viewBox="0 0 24 24" fill="none" xmlns="http://www.w3.org/2000/svg">
<path fill-rule="evenodd" clip-rule="evenodd" d="M7.40415 4.13071C7.44202 4.13076 7.48032 4.1308 7.51903 4.1308H16.4833C16.522 4.1308 16.5603 4.13076 16.5982 4.13071C17.1384 4.13003 17.5937 4.12946 17.9833 4.26973C18.6423 4.50698 19.1611 5.02579 19.3984 5.68477C19.5386 6.07439 19.5381 6.52968 19.5374 7.06992C19.5373 7.10779 19.5373 7.14609 19.5373 7.1848V12.1189C19.5373 12.5331 19.2015 12.8689 18.7873 12.8689C18.3731 12.8689 18.0373 12.5331 18.0373 12.1189V7.1848C18.0373 6.46477 18.0261 6.30141 17.987 6.19288L18.6927 5.93882L17.987 6.19287C17.9012 5.95452 17.7136 5.76687 17.4752 5.68105L17.7267 4.9826L17.4752 5.68105C17.3667 5.64198 17.2033 5.6308 16.4833 5.6308H7.51903C6.799 5.6308 6.63564 5.64198 6.5271 5.68105C6.28875 5.76687 6.1011 5.95452 6.01528 6.19288C5.97621 6.30141 5.96503 6.46477 5.96503 7.1848V12.1189C5.96503 12.5331 5.62925 12.8689 5.21503 12.8689C4.80082 12.8689 4.46503 12.5331 4.46503 12.1189V7.1848C4.46503 7.14609 4.46498 7.10779 4.46494 7.06992C4.46426 6.52968 4.46369 6.07439 4.60396 5.68477C4.84121 5.02579 5.36002 4.50698 6.019 4.26973C6.40862 4.12946 6.86391 4.13003 7.40415 4.13071Z" fill="black"/>
<path fill-rule="evenodd" clip-rule="evenodd" d="M13.252 9.58105C13.252 9.16684 13.5877 8.83105 14.002 8.83105H15.979C16.3933 8.83105 16.729 9.16684 16.729 9.58105C16.729 9.99527 16.3933 10.3311 15.979 10.3311H14.002C13.5877 10.3311 13.252 9.99527 13.252 9.58105Z" fill="black"/>
<path fill-rule="evenodd" clip-rule="evenodd" d="M7.25 9.58105C7.25 9.16684 7.58579 8.83105 8 8.83105H9.97709C10.3913 8.83105 10.7271 9.16684 10.7271 9.58105C10.7271 9.99527 10.3913 10.3311 9.97709 10.3311H8C7.58579 10.3311 7.25 9.99527 7.25 9.58105Z" fill="black"/>
<path fill-rule="evenodd" clip-rule="evenodd" d="M5.1893 11.369C5.22718 11.369 5.26547 11.3691 5.30419 11.3691H18.6962C18.7349 11.3691 18.7732 11.369 18.8111 11.369C19.3513 11.3683 19.8066 11.3677 20.1962 11.508C20.8552 11.7453 21.374 12.2641 21.6113 12.9231C21.7515 13.3127 21.751 13.768 21.7503 14.3082C21.7502 14.3461 21.7502 14.3844 21.7502 14.4231V19.1191C21.7502 19.5333 21.4144 19.8691 21.0002 19.8691C20.586 19.8691 20.2502 19.5333 20.2502 19.1191V14.4231C20.2502 13.703 20.239 13.5397 20.1999 13.4312C20.1141 13.1928 19.9265 13.0051 19.6881 12.9193C19.5796 12.8803 19.4162 12.8691 18.6962 12.8691H5.30419C4.58415 12.8691 4.42079 12.8803 4.31226 12.9193C4.07391 13.0051 3.88625 13.1928 3.80044 13.4312C3.76136 13.5397 3.75019 13.703 3.75019 14.4231V19.1191C3.75019 19.5333 3.4144 19.8691 3.00019 19.8691C2.58597 19.8691 2.25019 19.5333 2.25019 19.1191V14.4231C2.25019 14.3844 2.25014 14.3461 2.25009 14.3082C2.24942 13.768 2.24885 13.3127 2.38912 12.9231C2.62636 12.2641 3.14518 11.7453 3.80415 11.508C4.19378 11.3677 4.64907 11.3683 5.1893 11.369Z" fill="black"/>
<path fill-rule="evenodd" clip-rule="evenodd" d="M2.25 17.8809C2.25 17.4666 2.58579 17.1309 3 17.1309H21C21.4142 17.1309 21.75 17.4666 21.75 17.8809C21.75 18.2951 21.4142 18.6309 21 18.6309H3C2.58579 18.6309 2.25 18.2951 2.25 17.8809Z" fill="black"/>
</svg>