<svg width="24" height="24" viewBox="0 0 24 24" fill="none" xmlns="http://www.w3.org/2000/svg">
<path d="M18.7871 12.119V7.18486C18.7871 6.52936 18.7871 6.20161 18.6925 5.93888C18.531 5.49021 18.1778 5.13698 17.7291 4.97545C17.4664 4.88086 17.1386 4.88086 16.4831 4.88086H7.51884C6.86335 4.88086 6.5356 4.88086 6.27286 4.97545C5.8242 5.13698 5.47096 5.49021 5.30943 5.93888C5.21484 6.20161 5.21484 6.52936 5.21484 7.18486V12.119" stroke="black" stroke-width="1.5" stroke-linecap="round" stroke-linejoin="round"/>
<path d="M14.002 9.58105H15.979" stroke="black" stroke-width="1.5" stroke-linecap="round" stroke-linejoin="round"/>
<path d="M8 9.58105H9.97709" stroke="black" stroke-width="1.5" stroke-linecap="round" stroke-linejoin="round"/>
<path d="M21 19.1191V14.4231C21 13.7676 21 13.4399 20.9054 13.1772C20.7439 12.7285 20.3906 12.3753 19.942 12.2137C19.6792 12.1191 19.3515 12.1191 18.696 12.1191H5.304C4.6485 12.1191 4.32076 12.1191 4.05802 12.2137C3.60935 12.3753 3.25612 12.7285 3.09459 13.1772C3 13.4399 3 13.7676 3 14.4231V19.1191" stroke="black" stroke-width="1.5" stroke-linecap="round" stroke-linejoin="round"/>
<path d="M3 17.8809H21" stroke="black" stroke-width="1.5" stroke-linecap="round" stroke-linejoin="round"/>
</svg>