<svg width="24" height="24" viewBox="0 0 24 24" fill="none" xmlns="http://www.w3.org/2000/svg">
<path fill-rule="evenodd" clip-rule="evenodd" d="M11.9987 17.0873C11.6994 17.0873 11.4126 16.968 11.2022 16.7565L6.32531 11.8582C5.88656 11.4172 5.88768 10.7051 6.32756 10.2675C6.76968 9.82875 7.48068 9.82987 7.91943 10.2697L10.8748 13.2386V4.125C10.8748 3.504 11.3788 3 11.9998 3C12.6208 3 13.1248 3.504 13.1248 4.125V13.2386L16.0836 10.2697C16.5234 9.82875 17.2344 9.82875 17.6754 10.2675C18.1153 10.7062 18.1164 11.4184 17.6777 11.8582L12.8256 16.7261C12.6197 16.9478 12.3249 17.0873 11.9987 17.0873Z" fill="black"/>
<path opacity="0.4" fill-rule="evenodd" clip-rule="evenodd" d="M17.9209 21H6.0791C5.45698 21 4.9541 20.496 4.9541 19.875C4.9541 19.254 5.45698 18.75 6.0791 18.75H17.9209C18.5419 18.75 19.0459 19.254 19.0459 19.875C19.0459 20.496 18.5419 21 17.9209 21Z" fill="black"/>
</svg>