<svg width="24" height="25" viewBox="0 0 24 25" fill="none" xmlns="http://www.w3.org/2000/svg">
<path fill-rule="evenodd" clip-rule="evenodd" d="M13.5256 3.25C10.1386 3.25 7.38263 6.006 7.38263 9.393V17.834L6.03763 16.488C5.64663 16.097 5.01363 16.097 4.62363 16.488C4.23263 16.878 4.23263 17.511 4.62363 17.902L7.67363 20.953C7.76663 21.047 7.87863 21.122 8.00263 21.173C8.08163 21.205 8.16463 21.211 8.24763 21.223C8.29363 21.229 8.33463 21.25 8.38263 21.25C8.43063 21.25 8.47063 21.229 8.51663 21.223C8.59963 21.212 8.68363 21.206 8.76263 21.173C8.88763 21.122 8.99863 21.048 9.09163 20.955L12.1446 17.902C12.5356 17.511 12.5356 16.878 12.1446 16.487C11.7546 16.098 11.1216 16.097 10.7306 16.488L9.38263 17.835V9.393C9.38263 7.108 11.2416 5.25 13.5256 5.25C15.8106 5.25 17.6696 7.108 17.6696 9.393V12.183C17.6696 12.735 18.1166 13.183 18.6696 13.183C19.2216 13.183 19.6696 12.735 19.6696 12.183V9.393C19.6696 6.006 16.9136 3.25 13.5256 3.25Z" fill="black"/>
</svg>