<svg width="24" height="24" viewBox="0 0 24 24" fill="none" xmlns="http://www.w3.org/2000/svg">
<path fill-rule="evenodd" clip-rule="evenodd" d="M3.89773 3.73657C4.94853 2.75842 6.39899 2.25 8.02638 2.25H15.9736C17.6019 2.25 19.0523 2.76117 20.1026 3.7402C21.1588 4.72468 21.75 6.12669 21.75 7.78216V16.2169C21.75 17.8762 21.1592 19.2788 20.1024 20.2629C19.0516 21.2413 17.6011 21.75 15.9736 21.75H8.02638C6.39889 21.75 4.94838 21.2413 3.89761 20.2627C2.8408 19.2785 2.25 17.8756 2.25 16.2159V7.78216C2.25 6.1228 2.84086 4.72038 3.89773 3.73657ZM4.91976 4.83451C4.19973 5.50475 3.75 6.49341 3.75 7.78216V16.2159C3.75 17.5052 4.1998 18.4944 4.91988 19.165C5.64599 19.8412 6.70868 20.25 8.02638 20.25H15.9736C17.2913 20.25 18.354 19.8412 19.0802 19.1651C19.8003 18.4946 20.25 17.5056 20.25 16.2169V7.78216C20.25 6.49828 19.8006 5.50921 19.0799 4.83745C18.3533 4.16024 17.2905 3.75 15.9736 3.75H8.02638C6.70857 3.75 5.64585 4.15861 4.91976 4.83451Z" fill="black"/>
<path fill-rule="evenodd" clip-rule="evenodd" d="M8.09386 10.0662C8.38739 9.77392 8.86226 9.77495 9.15452 10.0685L12.0002 12.9265L14.846 10.0685C15.1382 9.77495 15.6131 9.77392 15.9066 10.0662C16.2001 10.3584 16.2012 10.8333 15.9089 11.1268L12.5317 14.5186C12.391 14.66 12.1997 14.7394 12.0002 14.7394C11.8008 14.7394 11.6095 14.66 11.4688 14.5186L8.09157 11.1268C7.79931 10.8333 7.80034 10.3584 8.09386 10.0662Z" fill="black"/>
</svg>