<svg width="24" height="24" viewBox="0 0 24 24" fill="none" xmlns="http://www.w3.org/2000/svg">
<path fill-rule="evenodd" clip-rule="evenodd" d="M5 19.75C4.58579 19.75 4.25 19.4142 4.25 19L4.25 3C4.25 2.58579 4.58579 2.25 5 2.25C5.41421 2.25 5.75 2.58579 5.75 3L5.75 19C5.75 19.4142 5.41421 19.75 5 19.75ZM8.46971 17.4696C8.76262 17.1768 9.23749 17.1768 9.53037 17.4697L11.2496 19.1892L11.25 2.99998C11.25 2.58577 11.5858 2.24999 12 2.25C12.4142 2.25001 12.75 2.5858 12.75 3.00002L12.7496 19.1895L14.4697 17.4696C14.7626 17.1768 15.2375 17.1768 15.5304 17.4697C15.8232 17.7626 15.8232 18.2375 15.5303 18.5304L12.5299 21.5304C12.3892 21.671 12.1984 21.75 11.9995 21.75C11.8006 21.75 11.6099 21.671 11.4692 21.5303L8.46963 18.5303C8.17676 18.2374 8.17679 17.7625 8.46971 17.4696ZM19 19.75C18.5858 19.75 18.25 19.4142 18.25 19L18.25 3C18.25 2.58579 18.5858 2.25 19 2.25C19.4142 2.25 19.75 2.58579 19.75 3L19.75 19C19.75 19.4142 19.4142 19.75 19 19.75Z" fill="black"/>
</svg>