<svg width="24" height="25" viewBox="0 0 24 25" fill="none" xmlns="http://www.w3.org/2000/svg">
<path d="M9.2555 15.459H11.0515C11.4295 15.459 11.7745 15.672 11.9445 16.009C12.1145 16.347 12.0815 16.749 11.8565 17.053L9.0605 20.844C9.0465 20.861 9.0245 20.868 9.0105 20.885C8.9455 20.963 8.8675 21.025 8.7805 21.08C8.7445 21.102 8.7155 21.132 8.6765 21.15C8.5475 21.21 8.4075 21.25 8.2555 21.25C8.1035 21.25 7.9625 21.21 7.8335 21.15C7.7955 21.132 7.7665 21.102 7.7295 21.08C7.6435 21.025 7.5655 20.963 7.4995 20.885C7.4855 20.868 7.4635 20.861 7.4505 20.844L4.6535 17.053C4.5245 16.878 4.4585 16.669 4.4585 16.459C4.4585 16.306 4.4945 16.151 4.5655 16.009C4.7355 15.672 5.0815 15.459 5.4585 15.459H7.2555H9.2555Z" fill="black"/>
<path opacity="0.4" d="M19.5415 17.83V9.393C19.5415 6.006 16.7855 3.25 13.3975 3.25C10.0105 3.25 7.25549 6.006 7.25549 9.393V15.459H9.25549V9.393C9.25549 7.108 11.1135 5.25 13.3975 5.25C15.6825 5.25 17.5415 7.108 17.5415 9.393V17.83C17.5415 18.382 17.9895 18.83 18.5415 18.83C19.0935 18.83 19.5415 18.382 19.5415 17.83Z" fill="black"/>
</svg>