<svg width="24" height="24" viewBox="0 0 24 24" fill="none" xmlns="http://www.w3.org/2000/svg">
<path fill-rule="evenodd" clip-rule="evenodd" d="M15.2664 8.73335C15.5593 9.02624 15.5593 9.50111 15.2664 9.79401L11.0764 13.9841L13.5372 13.9787C13.9514 13.9778 14.2879 14.3128 14.2888 14.727C14.2897 15.1412 13.9547 15.4778 13.5405 15.4787L9.26336 15.4881C9.06394 15.4885 8.87256 15.4095 8.73151 15.2685C8.59047 15.1275 8.51137 14.9362 8.51172 14.7368L8.51913 10.4577C8.51984 10.0435 8.85621 9.70826 9.27042 9.70897C9.68464 9.70969 10.0198 10.0461 10.0191 10.4603L10.0149 12.9243L14.2058 8.73335C14.4987 8.44045 14.9735 8.44045 15.2664 8.73335Z" fill="black"/>
<path fill-rule="evenodd" clip-rule="evenodd" d="M15.0996 3C15.0996 2.58579 15.4354 2.25 15.8496 2.25H17.1067C19.6712 2.25 21.7495 4.3284 21.7495 6.89286V8.47004C21.7495 8.88425 21.4137 9.22004 20.9995 9.22004C20.5853 9.22004 20.2495 8.88425 20.2495 8.47004V6.89286C20.2495 5.15678 18.8428 3.75 17.1067 3.75H15.8496C15.4354 3.75 15.0996 3.41421 15.0996 3Z" fill="black"/>
<path fill-rule="evenodd" clip-rule="evenodd" d="M6.89286 3.75C5.1568 3.75 3.75 5.1568 3.75 6.89286V8.47004C3.75 8.88425 3.41421 9.22004 3 9.22004C2.58579 9.22004 2.25 8.88425 2.25 8.47004V6.89286C2.25 4.32838 4.32838 2.25 6.89286 2.25H8.18205C8.59626 2.25 8.93205 2.58579 8.93205 3C8.93205 3.41421 8.59626 3.75 8.18205 3.75H6.89286Z" fill="black"/>
<path fill-rule="evenodd" clip-rule="evenodd" d="M3 14.7812C3.41421 14.7812 3.75 15.117 3.75 15.5312V17.1084C3.75 18.8434 5.15668 20.2503 6.89286 20.2503H8.14994C8.56415 20.2503 8.89994 20.5861 8.89994 21.0003C8.89994 21.4146 8.56415 21.7503 8.14994 21.7503H6.89286C4.3285 21.7503 2.25 19.6721 2.25 17.1084V15.5312C2.25 15.117 2.58579 14.7812 3 14.7812Z" fill="black"/>
<path fill-rule="evenodd" clip-rule="evenodd" d="M21.0004 14.7812C21.4146 14.7812 21.7504 15.117 21.7504 15.5312V17.1084C21.7504 19.6721 19.6718 21.7503 17.1075 21.7503H15.8184C15.4041 21.7503 15.0684 21.4146 15.0684 21.0003C15.0684 20.5861 15.4041 20.2503 15.8184 20.2503H17.1075C18.8437 20.2503 20.2504 18.8434 20.2504 17.1084V15.5312C20.2504 15.117 20.5861 14.7812 21.0004 14.7812Z" fill="black"/>
</svg>