<svg width="25" height="25" viewBox="0 0 25 25" fill="none" xmlns="http://www.w3.org/2000/svg">
<path fill-rule="evenodd" clip-rule="evenodd" d="M2.96967 10.4096C3.26256 10.1167 3.73744 10.1167 4.03033 10.4096L10.5204 16.8997L13.6049 13.8161C13.8978 13.5233 14.3726 13.5233 14.6655 13.8162L20.6894 19.8401C20.9823 20.133 20.9823 20.6079 20.6894 20.9008C20.3966 21.1937 19.9217 21.1937 19.6288 20.9008L14.1351 15.4071L11.0506 18.4907C10.7577 18.7835 10.2829 18.7835 9.99003 18.4906L2.96967 11.4703C2.67678 11.1774 2.67678 10.7025 2.96967 10.4096Z" fill="black"/>
<path fill-rule="evenodd" clip-rule="evenodd" d="M14.6776 8.5519C14.9666 8.25517 15.4414 8.24892 15.7381 8.53793L18.3581 11.0898L20.9772 8.538C21.2739 8.24895 21.7487 8.25513 22.0378 8.55182C22.3268 8.8485 22.3206 9.32333 22.0239 9.61239L18.8815 12.674C18.5903 12.9577 18.1261 12.9577 17.8349 12.6741L14.6915 9.61246C14.3948 9.32345 14.3886 8.84862 14.6776 8.5519Z" fill="black"/>
<path fill-rule="evenodd" clip-rule="evenodd" d="M18.3574 3.11426C18.7716 3.11426 19.1074 3.45004 19.1074 3.86426V12.1349C19.1074 12.5492 18.7716 12.8849 18.3574 12.8849C17.9432 12.8849 17.6074 12.5492 17.6074 12.1349V3.86426C17.6074 3.45004 17.9432 3.11426 18.3574 3.11426Z" fill="black"/>
</svg>