<svg width="25" height="25" viewBox="0 0 25 25" fill="none" xmlns="http://www.w3.org/2000/svg">
<path d="M16.8751 14.4567L14.0697 10.8116L10.8697 13.324L8.12451 9.78076" stroke="black" stroke-width="1.5" stroke-linecap="round" stroke-linejoin="round"/>
<path d="M14.5702 3.35791C13.9056 3.20144 13.2125 3.11865 12.5 3.11865C7.52908 3.11865 3.5 7.14871 3.5 12.1187C3.5 17.0896 7.52908 21.1187 12.5 21.1187C17.4709 21.1187 21.5 17.0896 21.5 12.1187C21.5 11.3719 21.409 10.6463 21.2376 9.95244" stroke="black" stroke-width="1.5" stroke-linecap="round" stroke-linejoin="round"/>
<path fill-rule="evenodd" clip-rule="evenodd" d="M19.6982 3.11865C20.6931 3.11865 21.4999 3.92544 21.4999 4.92035C21.4999 5.91527 20.6931 6.72206 19.6982 6.72206C18.7033 6.72206 17.8965 5.91527 17.8965 4.92035C17.8965 3.92544 18.7033 3.11865 19.6982 3.11865Z" stroke="black" stroke-width="1.5" stroke-linecap="round" stroke-linejoin="round"/>
</svg>