<svg width="25" height="25" viewBox="0 0 25 25" fill="none" xmlns="http://www.w3.org/2000/svg">
<path opacity="0.4" fill-rule="evenodd" clip-rule="evenodd" d="M2.5 21.2593L2.5 8.82874L22 8.82874L22 21.2593L2.5 21.2593Z" fill="black"/>
<path fill-rule="evenodd" clip-rule="evenodd" d="M11.5003 17.6836C11.4993 15.6716 9.6673 13.8396 7.6543 13.8396L6.9043 13.8396L6.9043 12.3396L7.6543 12.3396C9.1313 12.3396 10.5113 13.0146 11.5003 14.0586L11.5002 3.0183L13.0002 3.0183L13.0003 14.0586C13.9893 13.0146 15.3683 12.3396 16.8453 12.3396L17.5953 12.3396L17.5953 13.8396L16.8453 13.8396C14.8333 13.8396 13.0003 15.6726 13.0003 17.6846L13.0003 18.4346L11.5003 18.4346L11.5003 17.6836Z" fill="black"/>
</svg>