<svg width="24" height="25" viewBox="0 0 24 25" fill="none" xmlns="http://www.w3.org/2000/svg">
<path fill-rule="evenodd" clip-rule="evenodd" d="M15.3253 13.6205L12.5313 16.4245C12.4873 16.4685 12.4313 16.4955 12.3793 16.5265C12.3483 16.5445 12.3243 16.5705 12.2923 16.5845C12.2003 16.6235 12.1013 16.6455 11.9993 16.6455C11.8003 16.6455 11.6093 16.5655 11.4683 16.4245L8.67634 13.6205C8.38434 13.3265 8.38534 12.8515 8.67934 12.5595C8.97234 12.2675 9.44734 12.2685 9.74034 12.5615L11.2513 14.0795V8.73154C11.2513 8.31754 11.5873 7.98154 12.0013 7.98154C12.4153 7.98154 12.7513 8.31754 12.7513 8.73154V14.0785L14.2633 12.5615C14.5543 12.2685 15.0293 12.2665 15.3233 12.5595C15.6173 12.8525 15.6173 13.3275 15.3253 13.6205ZM19.9803 9.00454L15.3083 4.33254C13.3293 2.35354 10.7273 2.29754 8.83434 4.19054L3.87634 9.14854C1.98334 11.0415 2.04034 13.6435 4.01934 15.6215L8.69134 20.2935C9.70734 21.3095 10.8863 21.8185 12.0493 21.8185C13.1533 21.8185 14.2433 21.3595 15.1653 20.4375L20.1233 15.4785C22.0173 13.5855 21.9593 10.9835 19.9803 9.00454Z" fill="black"/>
</svg>