<svg width="25" height="25" viewBox="0 0 25 25" fill="none" xmlns="http://www.w3.org/2000/svg">
<path fill-rule="evenodd" clip-rule="evenodd" d="M2.75 12.1187C2.75 6.73352 7.11487 2.36865 12.5 2.36865C17.8851 2.36865 22.25 6.73352 22.25 12.1187C22.25 17.5028 17.8852 21.8687 12.5 21.8687C7.11481 21.8687 2.75 17.5028 2.75 12.1187ZM12.5 3.86865C7.94329 3.86865 4.25 7.56195 4.25 12.1187C4.25 16.6744 7.94335 20.3687 12.5 20.3687C17.0567 20.3687 20.75 16.6744 20.75 12.1187C20.75 7.56195 17.0567 3.86865 12.5 3.86865Z" fill="black"/>
<path fill-rule="evenodd" clip-rule="evenodd" d="M16.1963 11.1287C16.6026 11.2092 16.8667 11.6039 16.7862 12.0102L16.1365 15.2892C16.0978 15.4844 15.9832 15.6562 15.8179 15.7668C15.6525 15.8774 15.45 15.9178 15.2549 15.8791L11.9761 15.2291C11.5698 15.1485 11.3057 14.7538 11.3863 14.3475C11.4668 13.9412 11.8615 13.6771 12.2678 13.7577L14.8109 14.2619L15.3148 11.7186C15.3953 11.3123 15.79 11.0482 16.1963 11.1287Z" fill="black"/>
<path fill-rule="evenodd" clip-rule="evenodd" d="M4.58139 6.54014C4.9144 6.29382 5.38405 6.3641 5.63037 6.69711L8.14243 10.0933L10.8212 8.30045C10.9866 8.18982 11.1891 8.14938 11.3842 8.18805C11.5793 8.22671 11.7511 8.34131 11.8617 8.50663L16.0237 14.726C16.2541 15.0702 16.1618 15.5361 15.8175 15.7664C15.4733 15.9968 15.0075 15.9045 14.7771 15.5602L11.0322 9.9642L8.3821 11.7378C8.04927 11.9606 7.60014 11.8825 7.36198 11.5605L4.42442 7.58912C4.17809 7.25611 4.24837 6.78646 4.58139 6.54014Z" fill="black"/>
</svg>