<svg width="25" height="25" viewBox="0 0 25 25" fill="none" xmlns="http://www.w3.org/2000/svg">
<path fill-rule="evenodd" clip-rule="evenodd" d="M2.25 8.44287H8.375V9.94287H3.75V19.8717H20.75V9.94287H16.125V8.44287H22.25V21.3717H2.25V8.44287Z" fill="black"/>
<path fill-rule="evenodd" clip-rule="evenodd" d="M11.5 18.3452L11.5 2.90594L13 2.90594L13 18.3452L11.5 18.3452Z" fill="black"/>
<path fill-rule="evenodd" clip-rule="evenodd" d="M13 17.595C13 14.65 10.4151 12.2495 7.65449 12.2495L6.90449 12.2495L6.90449 13.7495L7.65449 13.7495C9.61881 13.7495 11.5 15.5102 11.5 17.595L11.5 18.345L13 18.345L13 17.595Z" fill="black"/>
<path fill-rule="evenodd" clip-rule="evenodd" d="M11.5 17.595C11.5 14.65 14.0849 12.2495 16.8455 12.2495L17.5955 12.2495L17.5955 13.7495L16.8455 13.7495C14.8812 13.7495 13 15.5102 13 17.595L13 18.345L11.5 18.345L11.5 17.595Z" fill="black"/>
</svg>