<svg width="24" height="24" viewBox="0 0 24 24" fill="none" xmlns="http://www.w3.org/2000/svg">
<path opacity="0.4" fill-rule="evenodd" clip-rule="evenodd" d="M21.5 7.782V16.216C21.5 19.377 19.279 21.5 15.974 21.5H8.026C4.72 21.5 2.5 19.376 2.5 16.215V7.782C2.5 4.623 4.72 2.5 8.026 2.5H15.974C19.279 2.5 21.5 4.623 21.5 7.782Z" fill="black"/>
<path fill-rule="evenodd" clip-rule="evenodd" d="M9.156 10.0684C8.864 9.77541 8.389 9.77341 8.095 10.0664C7.948 10.2134 7.875 10.4054 7.875 10.5974C7.875 10.7894 7.948 10.9804 8.094 11.1274L11.47 14.5184C11.611 14.6604 11.802 14.7394 12.002 14.7394C12.201 14.7394 12.392 14.6604 12.533 14.5184L15.91 11.1274C16.203 10.8344 16.201 10.3594 15.908 10.0664C15.614 9.77341 15.139 9.77541 14.847 10.0684L12.002 12.9264L9.156 10.0684Z" fill="black"/>
</svg>