<svg width="24" height="24" viewBox="0 0 24 24" fill="none" xmlns="http://www.w3.org/2000/svg">
<path fill-rule="evenodd" clip-rule="evenodd" d="M12.458 15.4227C12.1651 15.1299 11.6902 15.1299 11.3973 15.4229L7.96468 18.8564L4.53111 15.4228C4.23821 15.1299 3.76334 15.1299 3.47045 15.4228C3.17755 15.7157 3.17755 16.1906 3.47044 16.4835L7.43441 20.4475C7.57508 20.5882 7.76586 20.6672 7.9648 20.6672C8.16373 20.6672 8.3545 20.5881 8.49515 20.4474L12.4581 16.4834C12.751 16.1905 12.7509 15.7156 12.458 15.4227Z" fill="black"/>
<path fill-rule="evenodd" clip-rule="evenodd" d="M16.416 3.33203C16.0018 3.33204 15.666 3.66784 15.666 4.08206L15.6662 10.4904L13.3623 8.18618C13.0694 7.89327 12.5946 7.89324 12.3017 8.18612C12.0087 8.47899 12.0087 8.95387 12.3016 9.24678L15.8859 12.8316C16.0266 12.9722 16.2174 13.0513 16.4163 13.0513C16.6153 13.0513 16.806 12.9722 16.9467 12.8315L20.5304 9.24673C20.8233 8.95379 20.8232 8.47892 20.5303 8.18607C20.2373 7.89322 19.7624 7.89329 19.4696 8.18623L17.1662 10.4903L17.166 4.08201C17.166 3.66779 16.8302 3.33202 16.416 3.33203Z" fill="black"/>
<path fill-rule="evenodd" clip-rule="evenodd" d="M7.96289 3.33203C7.54868 3.33203 7.21289 3.66782 7.21289 4.08203V19.9171C7.21289 20.3313 7.54868 20.6671 7.96289 20.6671C8.3771 20.6671 8.71289 20.3313 8.71289 19.9171V4.08203C8.71289 3.66782 8.3771 3.33203 7.96289 3.33203Z" fill="black"/>
</svg>