<svg width="24" height="24" viewBox="0 0 24 24" fill="none" xmlns="http://www.w3.org/2000/svg">
<path fill-rule="evenodd" clip-rule="evenodd" d="M4.79975 16.4164C5.09264 16.1235 5.56752 16.1235 5.86041 16.4164C6.45614 17.0121 6.92126 17.477 7.38634 17.9418L7.38733 17.9428C7.70541 18.2608 8.02423 18.5794 8.38416 18.9393L10.907 16.4164C11.1999 16.1235 11.6748 16.1235 11.9677 16.4164C12.2606 16.7093 12.2606 17.1842 11.9677 17.477L8.91453 20.5302C8.62163 20.8231 8.14676 20.8231 7.85387 20.5302C7.25776 19.9341 6.79244 19.469 6.32708 19.0039C5.86166 18.5387 5.39606 18.0734 4.79975 17.477C4.50685 17.1842 4.50685 16.7093 4.79975 16.4164Z" fill="black"/>
<path fill-rule="evenodd" clip-rule="evenodd" d="M13.5274 4.75C11.1011 4.75 9.13477 6.71633 9.13477 9.14259V20C9.13477 20.4142 8.79898 20.75 8.38477 20.75C7.97055 20.75 7.63477 20.4142 7.63477 20V9.14259C7.63477 5.8879 10.2727 3.25 13.5274 3.25C16.7819 3.25 19.4209 5.88773 19.4209 9.14259V17.5802C19.4209 17.9944 19.0851 18.3302 18.6709 18.3302C18.2567 18.3302 17.9209 17.9944 17.9209 17.5802V9.14259C17.9209 6.71651 15.9538 4.75 13.5274 4.75Z" fill="black"/>
</svg>