<svg width="24" height="24" viewBox="0 0 24 24" fill="none" xmlns="http://www.w3.org/2000/svg">
<path fill-rule="evenodd" clip-rule="evenodd" d="M8.886 7.80198C9.19 7.52098 9.665 7.53798 9.947 7.84198L12 10.054L14.054 7.84198C14.335 7.53798 14.811 7.52098 15.115 7.80198C15.417 8.08398 15.435 8.55798 15.154 8.86198L12.55 11.666C12.408 11.819 12.209 11.906 12 11.906C11.791 11.906 11.592 11.819 11.45 11.666L8.847 8.86198C8.566 8.55798 8.583 8.08398 8.886 7.80198ZM21.2 14.709C21.3657 14.709 21.5 14.5747 21.5 14.409V7.78398C21.5 4.62398 19.28 2.49998 15.974 2.49998H8.027C4.721 2.49998 2.5 4.62298 2.5 7.78298V14.409C2.5 14.5747 2.63431 14.709 2.8 14.709H21.2Z" fill="black"/>
<path fill-rule="evenodd" clip-rule="evenodd" d="M2.80024 16.218C2.63456 16.218 2.49948 16.3525 2.50703 16.518C2.64347 19.5107 4.82698 21.5 8.02624 21.5H15.9742C19.1735 21.5 21.357 19.5107 21.4935 16.518C21.501 16.3525 21.3659 16.218 21.2002 16.218H2.80024Z" fill="black"/>
</svg>