<svg width="25" height="24" viewBox="0 0 25 24" fill="none" xmlns="http://www.w3.org/2000/svg">
<path fill-rule="evenodd" clip-rule="evenodd" d="M16.0782 16.9883C15.9423 17.0923 15.7812 17.1433 15.6213 17.1433C15.3962 17.1433 15.1742 17.0433 15.0262 16.8503L12.6833 13.8023L10.0793 15.8523C9.92325 15.9773 9.72225 16.0323 9.52425 16.0083C9.32525 15.9833 9.14525 15.8813 9.02225 15.7223L6.27725 12.1733C6.02425 11.8443 6.08425 11.3743 6.41125 11.1203C6.73925 10.8673 7.21125 10.9273 7.46425 11.2553L9.74625 14.2063L12.3512 12.1553C12.5082 12.0303 12.7083 11.9763 12.9082 12.0003C13.1073 12.0243 13.2882 12.1283 13.4102 12.2873L16.2163 15.9363C16.4683 16.2643 16.4072 16.7353 16.0782 16.9883ZM14.9692 4.78626C14.9692 4.54285 14.9946 4.30659 15.0368 4.07581C15.0844 3.81516 14.8945 3.56226 14.6296 3.56226H7.97925C4.94425 3.56226 2.90625 5.70026 2.90625 8.88326V16.4623C2.90625 19.6383 4.94425 21.7723 7.97925 21.7723H16.0402C19.0753 21.7723 21.1133 19.6383 21.1133 16.4623V9.62168C21.1133 9.34289 20.8346 9.14959 20.5639 9.21644C20.2324 9.29832 19.8877 9.34526 19.5312 9.34526C17.0162 9.34526 14.9692 7.30026 14.9692 4.78626Z" fill="black"/>
<path fill-rule="evenodd" clip-rule="evenodd" d="M19.5314 2.22656C18.1164 2.22656 16.9694 3.37856 16.9694 4.78656C16.9694 6.20756 18.1164 7.34556 19.5314 7.34556C20.9464 7.34556 22.0934 6.20756 22.0934 4.78656C22.0934 3.37856 20.9464 2.22656 19.5314 2.22656Z" fill="black"/>
</svg>