<svg width="24" height="25" viewBox="0 0 24 25" fill="none" xmlns="http://www.w3.org/2000/svg">
<path d="M20.85 15.7301L20.85 17.5311C20.85 19.9291 18.898 21.8801 16.5 21.8801L7.49997 21.8801C5.10097 21.8801 3.14997 19.9291 3.14997 17.5311L3.14997 15.7301C3.14997 15.3161 3.48597 14.9801 3.89997 14.9801C4.31397 14.9801 4.64997 15.3161 4.64997 15.7301L4.64997 17.5311C4.64997 19.1021 5.92797 20.3801 7.49997 20.3801L16.5 20.3801C18.072 20.3801 19.35 19.1021 19.35 17.5311L19.35 15.7301C19.35 15.3161 19.686 14.9801 20.1 14.9801C20.514 14.9801 20.85 15.3161 20.85 15.7301Z" fill="black"/>
<path d="M11.469 18.0601L9.18897 15.7801C9.04297 15.6341 8.96898 15.4421 8.96898 15.2501C8.96898 15.0581 9.04297 14.8661 9.18897 14.7191C9.31449 14.5936 9.47339 14.5218 9.63708 14.5039L9.63708 14.4978L11.25 14.4978L11.25 10.7921L6.39898 10.7921C4.74498 10.7921 3.39898 9.44609 3.39898 7.79209L3.39898 5.62109C3.39898 3.96709 4.74498 2.62109 6.39898 2.62109L17.6 2.62109C19.254 2.62109 20.6 3.96709 20.6 5.62109L20.6 7.79209C20.6 9.44609 19.254 10.7921 17.6 10.7921L12.75 10.7921L12.75 14.4978L14.2445 14.4978L14.2445 14.5002C14.4479 14.4906 14.6544 14.5636 14.81 14.7191C15.103 15.0121 15.103 15.4871 14.81 15.7801L12.53 18.0601C12.237 18.3531 11.762 18.3531 11.469 18.0601Z" fill="black"/>
</svg>