<svg width="24" height="24" viewBox="0 0 24 24" fill="none" xmlns="http://www.w3.org/2000/svg">
<path opacity="0.4" fill-rule="evenodd" clip-rule="evenodd" d="M16.216 2.5H7.783C4.623 2.5 2.5 4.723 2.5 8.031V15.97C2.5 19.278 4.623 21.5 7.783 21.5H16.217C19.377 21.5 21.5 19.278 21.5 15.97V8.031C21.5 4.723 19.376 2.5 16.216 2.5Z" fill="black"/>
<path fill-rule="evenodd" clip-rule="evenodd" d="M15.649 13.4805H8.35095C7.93695 13.4805 7.60095 13.1445 7.60095 12.7305C7.60095 12.3165 7.93695 11.9805 8.35095 11.9805H15.649C16.063 11.9805 16.399 12.3165 16.399 12.7305C16.399 13.1445 16.063 13.4805 15.649 13.4805ZM13.403 17.8605H10.035C9.62095 17.8605 9.28495 17.5245 9.28495 17.1105C9.28495 16.6965 9.62095 16.3605 10.035 16.3605H13.403C13.817 16.3605 14.153 16.6965 14.153 17.1105C14.153 17.5245 13.817 17.8605 13.403 17.8605Z" fill="black"/>
</svg>