<svg width="25" height="25" viewBox="0 0 25 25" fill="none" xmlns="http://www.w3.org/2000/svg">
<path fill-rule="evenodd" clip-rule="evenodd" d="M5.33492 5.038C4.65879 5.76413 4.25 6.82684 4.25 8.14454V16.0918C4.25 17.4085 4.66042 18.4714 5.33786 19.198C6.00988 19.9187 6.99924 20.3682 8.28313 20.3682H16.7178C18.0066 20.3682 18.9952 19.9184 19.6655 19.1984C20.3414 18.4723 20.75 17.4096 20.75 16.0918V8.14454C20.75 6.82674 20.3414 5.76404 19.6654 5.03796C18.9951 4.31795 18.0062 3.86816 16.7169 3.86816H8.28313C6.99437 3.86816 6.00542 4.31791 5.33492 5.038ZM4.23714 4.01581C5.22117 2.95901 6.62379 2.36816 8.28313 2.36816H16.7169C18.3766 2.36816 19.7793 2.95897 20.7633 4.01585C21.7416 5.06667 22.25 6.51716 22.25 8.14454V16.0918C22.25 16.659 22.1882 17.2047 22.0664 17.7195C22.0596 17.8065 22.0377 17.8926 22.0006 17.9734C21.7591 18.8322 21.344 19.5967 20.7634 20.2204C19.7796 21.2773 18.3772 21.8682 16.7178 21.8682H8.28313C6.62768 21.8682 5.22547 21.277 4.24076 20.2209C3.26147 19.1706 2.75 17.7202 2.75 16.0918V8.14454C2.75 6.51705 3.25872 5.06658 4.23714 4.01581Z" fill="black"/>
<path fill-rule="evenodd" clip-rule="evenodd" d="M3.18371 6.09294C3.49536 5.82009 3.96919 5.85155 4.24204 6.1632L10.3111 13.0954L13.9592 9.84334C14.2619 9.57349 14.7243 9.59313 15.003 9.88768L21.8625 17.1363C22.1472 17.4372 22.1341 17.9119 21.8333 18.1966C21.5324 18.4813 21.0577 18.4682 20.773 18.1673L14.4139 11.4475L10.7444 14.7187C10.595 14.8518 10.3987 14.9198 10.199 14.9074C9.99929 14.8951 9.81281 14.8034 9.68102 14.6529L3.11345 7.15127C2.8406 6.83962 2.87206 6.36579 3.18371 6.09294Z" fill="black"/>
</svg>