<svg width="25" height="25" viewBox="0 0 25 25" fill="none" xmlns="http://www.w3.org/2000/svg">
<path d="M14.916 3.9082H8.10484C5.28108 3.9082 3.53174 5.90772 3.53174 8.72955V16.3048C3.53174 19.1276 5.24714 21.1184 8.10484 21.1184H16.166C18.9878 21.1184 20.7391 19.1276 20.7391 16.3048V9.70798" stroke="black" stroke-width="1.5" stroke-linecap="round" stroke-linejoin="round"/>
<path fill-rule="evenodd" clip-rule="evenodd" d="M19.6669 3.11865C20.6618 3.11865 21.4686 3.92544 21.4686 4.92035C21.4686 5.91527 20.6618 6.72206 19.6669 6.72206C18.672 6.72206 17.8652 5.91527 17.8652 4.92035C17.8652 3.92544 18.672 3.11865 19.6669 3.11865Z" stroke="black" stroke-width="1.5" stroke-linecap="round" stroke-linejoin="round"/>
<path d="M16.4674 14.8375L13.662 11.1924L10.462 13.7049L7.7168 10.1616" stroke="black" stroke-width="1.5" stroke-linecap="round" stroke-linejoin="round"/>
</svg>