<svg width="24" height="24" viewBox="0 0 24 24" fill="none" xmlns="http://www.w3.org/2000/svg">
<path fill-rule="evenodd" clip-rule="evenodd" d="M11.9989 9.86947C12.4131 9.86947 12.7489 10.2053 12.7489 10.6195V14.8044L13.8086 13.741C14.1009 13.4476 14.5758 13.4468 14.8692 13.7392C15.1626 14.0316 15.1634 14.5065 14.8711 14.7999L12.5301 17.1489C12.3894 17.2901 12.1981 17.3695 11.9987 17.3695C11.7993 17.3694 11.6081 17.29 11.4674 17.1486L9.12866 14.7996C8.83641 14.5061 8.83746 14.0312 9.13099 13.7389C9.42453 13.4467 9.8994 13.4477 10.1916 13.7413L11.2489 14.8032V10.6195C11.2489 10.2053 11.5847 9.86947 11.9989 9.86947Z" fill="black"/>
<path fill-rule="evenodd" clip-rule="evenodd" d="M9.66838 4.52203C10.7272 2.68656 13.3782 2.6932 14.4277 4.53408L14.4278 4.53423L21.3877 16.7493L21.3878 16.7494C22.4291 18.5781 21.1086 20.8507 19.0041 20.8507H4.99588C2.88468 20.8507 1.56537 18.5658 2.62006 16.7371L2.62013 16.737L9.66838 4.52203ZM13.1245 5.27682C12.6488 4.44268 11.4476 4.43965 10.9677 5.27153L10.9677 5.27162L3.91943 17.4865C3.91941 17.4866 3.91938 17.4866 3.91936 17.4867C3.44136 18.3156 4.03953 19.3507 4.99588 19.3507H19.0041C19.9574 19.3507 20.5564 18.3207 20.0843 17.4917L13.1246 5.27696C13.1245 5.27691 13.1245 5.27687 13.1245 5.27682Z" fill="black"/>
</svg>