<svg width="24" height="24" viewBox="0 0 24 24" fill="none" xmlns="http://www.w3.org/2000/svg">
<g opacity="0.4">
<path fill-rule="evenodd" clip-rule="evenodd" d="M20.849 11.25C21.0147 11.25 21.149 11.1157 21.149 10.95V8.03C21.149 4.722 19.026 2.5 15.866 2.5H8.13301C4.97401 2.5 2.85101 4.722 2.85101 8.03V10.95C2.85101 11.1157 2.98533 11.25 3.15101 11.25H20.849Z" fill="black"/>
<path fill-rule="evenodd" clip-rule="evenodd" d="M3.15101 12.7495C2.98533 12.7495 2.85101 12.8838 2.85101 13.0495V15.9695C2.85101 19.2775 4.97401 21.4995 8.13301 21.4995H15.865C19.025 21.4995 21.149 19.2775 21.149 15.9695V13.0495C21.149 12.8838 21.0147 12.7495 20.849 12.7495H3.15101Z" fill="black"/>
</g>
<path d="M13.958 7.0293H10.045C9.63098 7.0293 9.29498 7.3653 9.29498 7.7793C9.29498 8.1933 9.63098 8.5293 10.045 8.5293H13.958C14.372 8.5293 14.708 8.1933 14.708 7.7793C14.708 7.3653 14.372 7.0293 13.958 7.0293Z" fill="black"/>
<path d="M10.045 16.9688H13.958C14.372 16.9688 14.708 16.6328 14.708 16.2188C14.708 15.8048 14.372 15.4688 13.958 15.4688H10.045C9.63098 15.4688 9.29498 15.8048 9.29498 16.2188C9.29498 16.6328 9.63098 16.9688 10.045 16.9688Z" fill="black"/>
</svg>