<svg width="24" height="24" viewBox="0 0 24 24" fill="none" xmlns="http://www.w3.org/2000/svg">
<g opacity="0.4">
<path fill-rule="evenodd" clip-rule="evenodd" d="M11.2463 2.8C11.2463 2.63431 11.112 2.5 10.9463 2.5H7.9003C5.9893 2.5 4.6543 3.893 4.6543 5.889V18.11C4.6543 20.137 5.9593 21.5 7.9003 21.5H10.9463C11.112 21.5 11.2463 21.3657 11.2463 21.2V2.8Z" fill="black"/>
<path fill-rule="evenodd" clip-rule="evenodd" d="M16.0986 2.5H13.0456C12.8799 2.5 12.7456 2.63431 12.7456 2.8V21.2C12.7456 21.3657 12.8799 21.5 13.0456 21.5H16.0976C18.0396 21.5 19.3456 20.137 19.3456 18.11V5.889C19.3456 3.893 18.0106 2.5 16.0986 2.5Z" fill="black"/>
</g>
<path d="M8.94739 13.0297C8.94739 13.4438 9.28339 13.7797 9.69739 13.7797C10.1114 13.7797 10.4474 13.4438 10.4474 13.0297V10.9688C10.4474 10.5548 10.1114 10.2188 9.69739 10.2188C9.28339 10.2188 8.94739 10.5548 8.94739 10.9688V13.0297Z" fill="black"/>
<path d="M14.3037 13.7797C14.7177 13.7797 15.0537 13.4438 15.0537 13.0297V10.9688C15.0537 10.5548 14.7177 10.2188 14.3037 10.2188C13.8897 10.2188 13.5537 10.5548 13.5537 10.9688V13.0297C13.5537 13.4438 13.8897 13.7797 14.3037 13.7797Z" fill="black"/>
</svg>