<svg width="24" height="24" viewBox="0 0 24 24" fill="none" xmlns="http://www.w3.org/2000/svg">
<g opacity="0.4">
<path d="M10.948 2.375C11.1137 2.375 11.248 2.50931 11.248 2.675V19.495C11.248 19.6607 11.1137 19.795 10.948 19.795H7.08497C6.55289 19.795 5.91092 19.6628 5.33331 19.399V19.4028C4.07305 18.7969 3.29297 17.5189 3.29297 15.835V6.335C3.29297 4.003 4.85297 2.375 7.08497 2.375H10.948Z" fill="black"/>
<path d="M13.048 2.375H16.914C19.183 2.375 20.707 3.967 20.707 6.335V15.835C20.707 17.521 19.925 18.8 18.661 19.405C18.1194 19.6425 17.7866 19.7544 16.913 19.795H13.048C12.8824 19.795 12.748 19.6607 12.748 19.495V2.675C12.748 2.50931 12.8824 2.375 13.048 2.375Z" fill="black"/>
</g>
<path d="M8.70898 12.2251C8.70898 12.6391 9.04498 12.9751 9.45898 12.9751C9.87298 12.9751 10.209 12.6391 10.209 12.2251V9.95508C10.209 9.54108 9.87298 9.20508 9.45898 9.20508C9.04498 9.20508 8.70898 9.54108 8.70898 9.95508V12.2251Z" fill="black"/>
<path d="M14.5411 12.9751C14.9551 12.9751 15.2911 12.6391 15.2911 12.2251V9.95508C15.2911 9.54108 14.9551 9.20508 14.5411 9.20508C14.1271 9.20508 13.7911 9.54108 13.7911 9.95508V12.2251C13.7911 12.6391 14.1271 12.9751 14.5411 12.9751Z" fill="black"/>
<path d="M5.33789 19.4011V21.0001C5.33789 21.4143 5.67368 21.7501 6.08789 21.7501C6.5021 21.7501 6.83789 21.4143 6.83789 21.0001V19.786C6.36262 19.7523 5.82734 19.6239 5.33789 19.4011Z" fill="black"/>
<path d="M17.1609 19.7805V21.0001C17.1609 21.4143 17.4967 21.7501 17.9109 21.7501C18.3252 21.7501 18.6609 21.4143 18.6609 21.0001V19.405C18.1739 19.6186 17.8556 19.7307 17.1609 19.7805Z" fill="black"/>
</svg>