<svg width="24" height="24" viewBox="0 0 24 24" fill="none" xmlns="http://www.w3.org/2000/svg">
<path d="M7.78216 3H16.2169C19.165 3 21 5.08119 21 8.02638V15.9736C21 18.9188 19.165 21 16.2159 21H7.78216C4.83405 21 3 18.9188 3 15.9736V8.02638C3 5.08119 4.84281 3 7.78216 3Z" stroke="black" stroke-width="1.5" stroke-linecap="round" stroke-linejoin="round"/>
<path d="M16.488 21C15.3286 14.2388 12.3631 8.30788 8.40918 3" stroke="black" stroke-width="1.5" stroke-linecap="round" stroke-linejoin="round"/>
<path d="M20.9997 13.2768C19.9072 13.0166 18.7673 12.8789 17.5952 12.8789C12.2035 12.8789 7.49249 15.793 4.95117 20.1321" stroke="black" stroke-width="1.5" stroke-linecap="round" stroke-linejoin="round"/>
<path d="M19.5397 4.29688C16.9302 8.32071 12.3988 10.9827 7.24563 10.9827C5.76848 10.9827 4.34241 10.7639 2.99805 10.3571" stroke="black" stroke-width="1.5" stroke-linecap="round" stroke-linejoin="round"/>
</svg>