<svg width="24" height="24" viewBox="0 0 24 24" fill="none" xmlns="http://www.w3.org/2000/svg">
<path fill-rule="evenodd" clip-rule="evenodd" d="M3.7402 3.89737C4.72468 2.84117 6.12669 2.25 7.78216 2.25H16.2169C17.8762 2.25 19.2788 2.84084 20.2629 3.89765C21.2413 4.94841 21.75 6.39889 21.75 8.02638V15.9736C21.75 17.6011 21.2413 19.0516 20.2627 20.1024C19.2785 21.1592 17.8756 21.75 16.2159 21.75H7.78216C6.1228 21.75 4.72038 21.1591 3.73657 20.1023C2.75842 19.0515 2.25 17.601 2.25 15.9736V8.02638C2.25 6.39806 2.76117 4.94771 3.7402 3.89737ZM4.83745 4.92012C4.16024 5.64666 3.75 6.70951 3.75 8.02638V15.9736C3.75 17.2914 4.15861 18.3541 4.83451 19.0802C5.50475 19.8003 6.49341 20.25 7.78216 20.25H16.2159C17.5052 20.25 18.4944 19.8002 19.165 19.0801C19.8412 18.354 20.25 17.2913 20.25 15.9736V8.02638C20.25 6.70868 19.8412 5.64597 19.1651 4.91984C18.4946 4.19975 17.5056 3.75 16.2169 3.75H7.78216C6.49828 3.75 5.50921 4.19943 4.83745 4.92012Z" fill="black"/>
<path fill-rule="evenodd" clip-rule="evenodd" d="M7.96118 2.39852C8.29336 2.15107 8.76324 2.21976 9.01069 2.55194C13.0174 7.93074 16.0434 13.9694 17.2273 20.8732C17.2973 21.2815 17.0231 21.6692 16.6148 21.7392C16.2066 21.8092 15.8189 21.535 15.7489 21.1268C14.6138 14.5081 11.7089 8.685 7.80776 3.44803C7.56032 3.11585 7.62901 2.64597 7.96118 2.39852Z" fill="black"/>
<path fill-rule="evenodd" clip-rule="evenodd" d="M17.5953 13.6289C12.4807 13.6289 8.01076 16.3923 5.59847 20.5111C5.38913 20.8686 4.92968 20.9886 4.57226 20.7793C4.21483 20.57 4.09478 20.1105 4.30412 19.7531C6.97446 15.1937 11.9266 12.1289 17.5953 12.1289C18.8264 12.1289 20.0246 12.2736 21.1736 12.5472C21.5765 12.6431 21.8254 13.0475 21.7294 13.4505C21.6335 13.8534 21.2291 14.1023 20.8261 14.0064C19.7901 13.7597 18.7085 13.6289 17.5953 13.6289Z" fill="black"/>
<path fill-rule="evenodd" clip-rule="evenodd" d="M19.948 3.66765C20.2956 3.89303 20.3946 4.35747 20.1692 4.705C17.4272 8.93301 12.6637 11.7327 7.24583 11.7327C5.69427 11.7327 4.19504 11.5029 2.781 11.075C2.38455 10.955 2.16042 10.5363 2.2804 10.1399C2.40038 9.74341 2.81903 9.51928 3.21549 9.63926C4.49017 10.025 5.84307 10.2327 7.24583 10.2327C12.1342 10.2327 16.4335 7.70846 18.9107 3.88881C19.1361 3.54128 19.6005 3.44227 19.948 3.66765Z" fill="black"/>
</svg>