<svg width="24" height="24" viewBox="0 0 24 24" fill="none" xmlns="http://www.w3.org/2000/svg">
<path fill-rule="evenodd" clip-rule="evenodd" d="M12 3.75C7.44337 3.75 3.75 7.44337 3.75 12C3.75 16.5566 7.44337 20.25 12 20.25C16.5566 20.25 20.25 16.5566 20.25 12C20.25 7.44337 16.5566 3.75 12 3.75ZM2.25 12C2.25 6.61494 6.61494 2.25 12 2.25C17.3851 2.25 21.75 6.61494 21.75 12C21.75 17.3851 17.3851 21.75 12 21.75C6.61494 21.75 2.25 17.3851 2.25 12Z" fill="black"/>
<path fill-rule="evenodd" clip-rule="evenodd" d="M5.74805 12.0005C5.74805 8.65151 8.46392 5.93359 11.8149 5.93359C15.166 5.93359 17.8818 8.65151 17.8818 12.0005C17.8818 15.3495 15.166 18.0674 11.8149 18.0674C8.46392 18.0674 5.74805 15.3495 5.74805 12.0005ZM11.8149 7.43359C9.29266 7.43359 7.24805 9.47962 7.24805 12.0005C7.24805 14.5214 9.29266 16.5674 11.8149 16.5674C14.3372 16.5674 16.3818 14.5214 16.3818 12.0005C16.3818 9.47962 14.3372 7.43359 11.8149 7.43359Z" fill="black"/>
<path fill-rule="evenodd" clip-rule="evenodd" d="M9.50611 6.41805C9.83829 6.17061 10.3082 6.2393 10.5556 6.57148C12.7352 9.49742 14.3907 12.7953 15.0388 16.5747C15.1089 16.9829 14.8347 17.3706 14.4264 17.4406C14.0181 17.5107 13.6304 17.2365 13.5604 16.8282C12.9612 13.334 11.4266 10.2517 9.35268 7.46756C9.10524 7.13538 9.17393 6.6655 9.50611 6.41805Z" fill="black"/>
<path fill-rule="evenodd" clip-rule="evenodd" d="M16.0426 7.66719C16.3818 7.90501 16.4639 8.37273 16.2261 8.71187C15.0465 10.3939 13.087 11.253 11.2636 11.6916C9.42339 12.1342 7.59278 12.18 6.50371 12.1357C6.08983 12.1189 5.76797 11.7697 5.78481 11.3558C5.80165 10.942 6.15081 10.6201 6.56468 10.6369C7.56672 10.6777 9.24958 10.6332 10.9128 10.2332C12.5928 9.82912 14.1266 9.09321 14.9979 7.85064C15.2358 7.5115 15.7035 7.42937 16.0426 7.66719Z" fill="black"/>
<path fill-rule="evenodd" clip-rule="evenodd" d="M11.5227 12.0132C13.2956 11.3129 15.3913 11.1355 17.3298 11.712C17.7268 11.83 17.953 12.2476 17.8349 12.6446C17.7169 13.0417 17.2993 13.2678 16.9023 13.1498C15.3189 12.6789 13.5684 12.8179 12.0738 13.4083C10.5721 14.0016 9.41203 15.0146 8.90765 16.206C8.74616 16.5874 8.30604 16.7657 7.9246 16.6042C7.54316 16.4427 7.36485 16.0026 7.52633 15.6212C8.22845 13.9627 9.75703 12.7107 11.5227 12.0132Z" fill="black"/>
</svg>