<svg width="24" height="24" viewBox="0 0 24 24" fill="none" xmlns="http://www.w3.org/2000/svg">
<path d="M5.60372 6.97156V4.03619C5.60372 3.4641 6.06781 3 6.6399 3H7.72766C8.29975 3 8.76384 3.4641 8.76384 4.03619V6.97156C8.76384 8.03694 9.11411 8.76081 9.76111 9.60825L10.0773 10.0227C10.7234 10.8702 11.0736 11.9063 11.0736 12.9727V19.3932C11.0736 20.2805 10.3546 20.9995 9.46728 20.9995H4.90028C4.01392 20.9995 3.29395 20.2805 3.29395 19.3932V12.9727C3.29395 11.9063 3.64421 10.8702 4.29121 10.0227L4.60742 9.60825C5.25346 8.76081 5.60372 8.03694 5.60372 6.97156Z" stroke="black" stroke-width="1.5" stroke-linecap="round" stroke-linejoin="round"/>
<path d="M5.60352 5.92358H8.76364" stroke="black" stroke-width="1.5" stroke-linecap="round" stroke-linejoin="round"/>
<path d="M6.93652 17.4536H11.0745" stroke="black" stroke-width="1.5" stroke-linecap="round" stroke-linejoin="round"/>
<path d="M11.0735 14.0084H6.93555" stroke="black" stroke-width="1.5" stroke-linecap="round" stroke-linejoin="round"/>
<path fill-rule="evenodd" clip-rule="evenodd" d="M14.4608 19.9658L13.8926 13.0335C13.8381 12.3778 14.3567 11.8164 15.0144 11.8164H19.5795C20.2372 11.8164 20.7558 12.3778 20.7013 13.0335L20.1331 19.9658C20.0854 20.5495 19.597 21 19.0113 21H15.5836C14.9969 21 14.5085 20.5495 14.4608 19.9658Z" stroke="black" stroke-width="1.5" stroke-linecap="round" stroke-linejoin="round"/>
</svg>