<svg width="24" height="24" viewBox="0 0 24 24" fill="none" xmlns="http://www.w3.org/2000/svg">
<path d="M6.07643 6.97166V4.03621C6.07643 3.46411 6.54054 3 7.11264 3H8.20042C8.77253 3 9.23663 3.46411 9.23663 4.03621V6.97166C9.23663 8.03706 9.5869 8.76095 10.2339 9.6084L10.5501 10.0229C11.1962 10.8703 11.5465 11.9066 11.5465 12.9729V19.3936C11.5465 20.2809 10.8274 20.9999 9.94009 20.9999H5.37297C4.4866 20.9999 3.7666 20.2809 3.7666 19.3936V12.9729C3.7666 11.9066 4.11687 10.8703 4.76389 10.0229L5.08011 9.6084C5.72616 8.76095 6.07643 8.03706 6.07643 6.97166Z" stroke="black" stroke-width="1.5" stroke-linecap="round" stroke-linejoin="round"/>
<path d="M6.07812 5.92365H9.23833" stroke="black" stroke-width="1.5" stroke-linecap="round" stroke-linejoin="round"/>
<path d="M11.5482 13.2513H7.41016V18.2436H11.5482" stroke="black" stroke-width="1.5" stroke-linecap="round" stroke-linejoin="round"/>
<path d="M17.1647 16.4562V21M15.6226 20.9999H18.7079M14.528 7.93515L14.1388 12.8788C13.8246 14.7508 15.2675 16.4564 17.1657 16.4564C19.063 16.4564 20.5059 14.7508 20.1917 12.8788L19.8025 7.93515H14.528Z" stroke="black" stroke-width="1.5" stroke-linecap="round" stroke-linejoin="round"/>
</svg>