<svg width="24" height="24" viewBox="0 0 24 24" fill="none" xmlns="http://www.w3.org/2000/svg">
<path d="M12 21.75C6.62 21.75 2.25 17.38 2.25 12C2.25 6.62 6.62 2.25 12 2.25C17.38 2.25 21.75 6.62 21.75 12C21.75 17.38 17.38 21.75 12 21.75ZM12 3.75C7.45 3.75 3.75 7.45 3.75 12C3.75 16.55 7.45 20.25 12 20.25C16.55 20.25 20.25 16.55 20.25 12C20.25 7.45 16.55 3.75 12 3.75Z" fill="black"/>
<path d="M9.16051 15.1518C8.83051 15.1518 8.49052 15.0617 8.20052 14.8717L6.6105 13.8617C6.2405 13.6317 6.02051 13.2317 6.02051 12.7917C6.02051 12.3517 6.2405 11.9517 6.6105 11.7217L13.8705 7.10172C14.4505 6.73172 15.2105 6.73172 15.7905 7.10172L17.3805 8.11173C17.7505 8.34173 17.9705 8.74174 17.9705 9.18174C17.9705 9.62174 17.7505 10.0217 17.3805 10.2517L10.1205 14.8717C9.83051 15.0617 9.49051 15.1518 9.16051 15.1518ZM7.7205 12.7917L9.0005 13.6117C9.0905 13.6717 9.22052 13.6717 9.31052 13.6117L16.2605 9.18174L14.9805 8.36173C14.8805 8.30173 14.7605 8.30173 14.6705 8.36173L7.7205 12.7917Z" fill="black"/>
<path d="M14.8305 15.1518C14.5005 15.1518 14.1605 15.0617 13.8705 14.8717L6.6105 10.2517C6.2405 10.0217 6.02051 9.61174 6.02051 9.18174C6.02051 8.74174 6.2405 8.34173 6.6105 8.11173L8.20052 7.10172C8.78052 6.73172 9.54051 6.73172 10.1205 7.10172L17.3805 11.7217C17.7505 11.9617 17.9705 12.3617 17.9705 12.7917C17.9705 13.2317 17.7505 13.6317 17.3805 13.8617L15.7905 14.8717C15.5005 15.0617 15.1605 15.1518 14.8305 15.1518ZM7.7205 9.18174L14.6705 13.6017C14.7605 13.6617 14.8905 13.6617 14.9805 13.6017L16.2605 12.7818L9.31052 8.35172C9.21052 8.29172 9.0905 8.29172 9.0005 8.35172L7.7205 9.17173V9.18174Z" fill="black"/>
<path d="M12.0001 18.1306C11.7301 18.1306 11.4601 18.0706 11.2101 17.9406L9.33011 16.9906C8.74011 16.6906 8.37012 16.0706 8.37012 15.4106V14.3906C8.39012 13.9806 8.72011 13.6506 9.13011 13.6506C9.54011 13.6506 9.88012 14.0006 9.87012 14.4106V15.4306C9.86012 15.5206 9.91011 15.6106 9.99011 15.6506L11.8701 16.6006C11.9401 16.6406 12.0201 16.6406 12.0901 16.6006L13.9801 15.6406C14.0601 15.6006 14.1101 15.5206 14.1101 15.4206V14.3806C14.1301 13.9706 14.4801 13.6606 14.8801 13.6406C15.2901 13.6406 15.6301 13.9906 15.6201 14.4006V15.4406C15.6001 16.0906 15.2301 16.6806 14.6501 16.9706L12.7501 17.9306C12.5001 18.0606 12.2301 18.1206 11.9601 18.1206L12.0001 18.1306Z" fill="black"/>
</svg>