<svg width="24" height="24" viewBox="0 0 24 24" fill="none" xmlns="http://www.w3.org/2000/svg">
<path fill-rule="evenodd" clip-rule="evenodd" d="M3.7402 3.89737C4.72468 2.84117 6.12669 2.25 7.78216 2.25H16.2169C17.8762 2.25 19.2788 2.84084 20.2629 3.89765C21.2413 4.94841 21.75 6.39889 21.75 8.02638V15.9736C21.75 17.6011 21.2413 19.0516 20.2627 20.1024C19.2785 21.1592 17.8756 21.75 16.2159 21.75H7.78216C6.1228 21.75 4.72038 21.1591 3.73657 20.1023C2.75842 19.0515 2.25 17.601 2.25 15.9736V8.02638C2.25 6.39806 2.76117 4.94771 3.7402 3.89737ZM4.83745 4.92012C4.16024 5.64666 3.75 6.70951 3.75 8.02638V15.9736C3.75 17.2914 4.15861 18.3541 4.83451 19.0802C5.50475 19.8003 6.49341 20.25 7.78216 20.25H16.2159C17.5052 20.25 18.4944 19.8002 19.165 19.0801C19.8412 18.354 20.25 17.2913 20.25 15.9736V8.02638C20.25 6.70868 19.8412 5.64597 19.1651 4.91984C18.4946 4.19975 17.5056 3.75 16.2169 3.75H7.78216C6.49828 3.75 5.50921 4.19943 4.83745 4.92012Z" fill="black"/>
<path fill-rule="evenodd" clip-rule="evenodd" d="M8.82109 6.20781C9.375 5.87478 10.0392 6.01755 10.4425 6.42767L12.0001 8.01163L13.5576 6.42767C13.9609 6.01755 14.6252 5.87478 15.1791 6.20781C17.5072 7.60751 18.7018 10.3572 18.0924 13.0427C17.4456 15.8928 14.9343 17.9314 12.0122 17.9786C12.0041 17.9787 11.996 17.9787 11.988 17.9786C9.06581 17.9314 6.55453 15.8928 5.90778 13.0427C5.29839 10.3572 6.493 7.60751 8.82109 6.20781ZM9.46544 7.5734C7.77361 8.664 6.91681 10.711 7.37059 12.7107C7.86342 14.8825 9.77448 16.4371 12.0001 16.4786C14.2257 16.4371 16.1367 14.8825 16.6296 12.7107C17.0834 10.711 16.2265 8.664 14.5347 7.5734L12.5348 9.60717C12.3939 9.75056 12.2012 9.83132 12.0001 9.83132C11.799 9.83132 11.6063 9.75056 11.4653 9.60717L9.46544 7.5734Z" fill="black"/>
<path fill-rule="evenodd" clip-rule="evenodd" d="M12.0077 8.32814C12.2084 8.32956 12.4002 8.41138 12.5401 8.55532L13.9636 10.0194C13.964 10.0199 13.9644 10.0203 13.9648 10.0207C15.0498 11.128 15.0736 12.8926 14.0185 14.0288C14.0129 14.0348 14.0072 14.0407 14.0015 14.0465C13.4728 14.5796 12.7531 14.8795 12.0024 14.8795C11.2516 14.8795 10.532 14.5796 10.0033 14.0465L10.0026 14.0458C8.89888 12.9298 8.89888 11.1333 10.0026 10.0173L10.0055 10.0143L10.0055 10.0143L11.4721 8.54779C11.614 8.40585 11.8069 8.32673 12.0077 8.32814ZM11.0678 11.0734C10.5435 11.605 10.5438 12.4595 11.0688 12.9907C11.3157 13.2395 11.6518 13.3795 12.0024 13.3795C12.3491 13.3795 12.6816 13.2426 12.9277 12.999C13.4294 12.4492 13.415 11.6022 12.8928 11.0699L12.8904 11.0675L12.8904 11.0675L11.9949 10.1463L11.0678 11.0734Z" fill="black"/>
</svg>