<svg width="24" height="24" viewBox="0 0 24 24" fill="none" xmlns="http://www.w3.org/2000/svg">
<path d="M7.78216 3H16.2169C19.165 3 21 5.08119 21 8.02638V15.9736C21 18.9188 19.165 21 16.2159 21H7.78216C4.83405 21 3 18.9188 3 15.9736V8.02638C3 5.08119 4.84281 3 7.78216 3Z" stroke="black" stroke-width="1.5" stroke-linecap="round" stroke-linejoin="round"/>
<path fill-rule="evenodd" clip-rule="evenodd" d="M14.7925 6.85058C14.5657 6.71422 14.2779 6.76484 14.0923 6.95352L12 9.08132L9.90767 6.95352C9.72213 6.76484 9.43425 6.71422 9.20746 6.85058C7.15508 8.08452 6.10184 10.5091 6.63911 12.8767C7.20934 15.3896 9.42353 17.1871 12 17.2287C14.5765 17.1871 16.7907 15.3896 17.3609 12.8767C17.8982 10.5091 16.8449 8.08452 14.7925 6.85058Z" stroke="black" stroke-width="1.5" stroke-linecap="round" stroke-linejoin="round"/>
<path fill-rule="evenodd" clip-rule="evenodd" d="M13.4282 10.5446L12.0024 9.07812L10.5359 10.5446C9.72112 11.3685 9.72112 12.6946 10.5359 13.5184C10.9237 13.9095 11.4516 14.1295 12.0024 14.1295C12.5531 14.1295 13.0811 13.9095 13.4689 13.5184C14.2517 12.6754 14.2338 11.3659 13.4282 10.5446V10.5446Z" stroke="black" stroke-width="1.5" stroke-linecap="round" stroke-linejoin="round"/>
</svg>