<svg width="24" height="24" viewBox="0 0 24 24" fill="none" xmlns="http://www.w3.org/2000/svg">
<path opacity="0.4" fill-rule="evenodd" clip-rule="evenodd" d="M21.4968 14.8004C21.4988 14.7284 21.3498 7.45339 18.1918 5.80339C18.1838 5.79839 18.1738 5.79439 18.1648 5.78939L18.0558 5.74039C17.3858 5.43139 15.6058 4.61239 13.5878 5.87139C12.1588 6.76239 11.7688 6.67939 10.4038 5.86639C8.32884 4.63039 6.67284 5.40139 5.96384 5.73039L5.80884 5.80339C2.67184 7.44239 2.50184 14.7264 2.50284 14.7774C2.48484 15.5134 2.43184 17.7554 4.34784 18.5354C4.84884 18.7194 5.34784 18.8104 5.82484 18.8104C6.54484 18.8104 7.21484 18.6034 7.76484 18.1944C8.12384 17.9284 8.32684 17.6524 8.50584 17.4094C8.73684 17.0934 8.95584 16.7954 9.57084 16.4414C10.6048 15.8444 13.5198 15.9304 14.4358 16.4444C14.9538 16.7344 15.1818 17.0294 15.4448 17.3704C15.6558 17.6434 15.8748 17.9264 16.2348 18.1954C17.1508 18.8734 18.3958 18.9984 19.6688 18.5294C21.5718 17.7544 21.5158 15.5134 21.4968 14.8004Z" fill="black"/>
<path fill-rule="evenodd" clip-rule="evenodd" d="M16.6967 11.2419C16.6967 11.6509 17.0287 11.9839 17.4387 11.9839C17.8487 11.9839 18.1807 11.6509 18.1807 11.2419C18.1807 10.8319 17.8487 10.4999 17.4387 10.4999C17.0287 10.4999 16.6967 10.8319 16.6967 11.2419ZM15.2417 12.6959C15.2417 13.1059 15.5737 13.4389 15.9837 13.4389C16.3937 13.4389 16.7267 13.1059 16.7267 12.6959C16.7267 12.2859 16.3937 11.9539 15.9837 11.9539C15.5737 11.9539 15.2417 12.2859 15.2417 12.6959ZM13.7877 11.2419C13.7877 11.6509 14.1197 11.9839 14.5297 11.9839C14.9397 11.9839 15.2717 11.6509 15.2717 11.2419C15.2717 10.8319 14.9397 10.4999 14.5297 10.4999C14.1197 10.4999 13.7877 10.8319 13.7877 11.2419ZM16.7267 9.78692C16.7267 9.37692 16.3937 9.04492 15.9837 9.04492C15.5737 9.04492 15.2417 9.37692 15.2417 9.78692C15.2417 10.1969 15.5737 10.5289 15.9837 10.5289C16.3937 10.5289 16.7267 10.1969 16.7267 9.78692ZM5.81873 11.2419C5.81873 12.4479 6.76373 13.3919 7.96973 13.3919C9.17573 13.3919 10.1197 12.4479 10.1197 11.2419C10.1197 10.0359 9.17573 9.09192 7.96973 9.09192C6.76373 9.09192 5.81873 10.0359 5.81873 11.2419ZM7.31931 11.2433C7.31931 10.8613 7.58631 10.5933 7.96931 10.5933C8.35231 10.5933 8.61931 10.8613 8.61931 11.2433C8.61931 11.6263 8.35231 11.8933 7.96931 11.8933C7.58631 11.8933 7.31931 11.6263 7.31931 11.2433Z" fill="black"/>
</svg>