<svg width="24" height="24" viewBox="0 0 24 24" fill="none" xmlns="http://www.w3.org/2000/svg">
<path d="M18.7918 14.1003C19.1499 14.1412 19.6519 14.2813 19.973 14.7454C20.4021 15.3652 20.3622 17.6818 20.0323 18.1994C19.8222 18.5633 19.4184 18.9515 17.2906 18.9729C15.1617 18.9953 14.7502 18.6158 14.5322 18.2558C14.1927 17.745 14.1051 15.4294 14.5206 14.8018C14.8319 14.3309 15.332 14.1801 15.6891 14.1324C15.9187 14.1013 16.0841 13.898 16.0822 13.6664L16.0277 8.33169C16.0247 8.09915 15.8545 7.8997 15.6249 7.87343C15.2668 7.83256 14.7638 7.69246 14.4427 7.22836C14.0136 6.60956 14.0545 4.29198 14.3843 3.77437C14.5935 3.41048 14.9973 3.02325 17.1261 3.00087C19.255 2.97946 19.6665 3.35794 19.8835 3.71794C20.224 4.22874 20.3116 6.54437 19.8952 7.1729C19.5838 7.64284 19.0847 7.79364 18.7276 7.84229C18.498 7.87245 18.3316 8.0758 18.3345 8.30736L18.3618 10.9752" stroke="black" stroke-width="1.5" stroke-linecap="round" stroke-linejoin="round"/>
<path d="M6.46412 9.65827C6.1158 9.56292 5.641 9.34887 5.39387 8.84196C5.06306 8.16381 5.45322 5.87931 5.85797 5.41813C6.11969 5.09025 6.57795 4.7682 8.68537 5.06884C10.7928 5.36851 11.1421 5.80537 11.3026 6.19455C11.5614 6.75011 11.2978 9.05309 10.7918 9.6106C10.4124 10.029 9.89573 10.1019 9.53574 10.0961C9.30417 10.0922 9.10958 10.2673 9.0765 10.497L8.32343 15.7782C8.29133 16.0078 8.42949 16.2306 8.65229 16.2919C9.00061 16.3863 9.47541 16.6013 9.72352 17.1082C10.0533 17.7854 9.66319 20.0708 9.25942 20.532C8.99672 20.8599 8.53846 21.182 6.43104 20.8813C4.32362 20.5816 3.97432 20.1438 3.81379 19.7556C3.55498 19.2 3.81865 16.8971 4.32459 16.3396C4.70404 15.9212 5.22068 15.8482 5.58067 15.854C5.81224 15.8579 6.00683 15.6828 6.03991 15.4532L6.41644 12.8121" stroke="black" stroke-width="1.5" stroke-linecap="round" stroke-linejoin="round"/>
</svg>