<svg width="24" height="24" viewBox="0 0 24 24" fill="none" xmlns="http://www.w3.org/2000/svg">
<path fill-rule="evenodd" clip-rule="evenodd" d="M10.3346 16.0813C10.103 16.0832 9.89968 15.9178 9.86855 15.6882C9.82087 15.3311 9.67007 14.831 9.19917 14.5197C8.57163 14.1033 6.25508 14.1918 5.74526 14.5314C5.38528 14.7483 5.00681 15.1609 5.02821 17.2887C5.05059 19.4174 5.43782 19.8212 5.80169 20.0314C6.31929 20.3602 8.63584 20.4011 9.2556 19.972C9.71969 19.6509 9.85979 19.1479 9.90065 18.7899C9.92692 18.5603 10.1264 18.39 10.3579 18.3881L15.6935 18.3326C15.925 18.3307 16.1274 18.4961 16.1585 18.7257C16.2072 19.0827 16.358 19.5828 16.8279 19.8942C17.4564 20.3106 19.772 20.222 20.2828 19.8825C20.6428 19.6655 21.0213 19.254 20.9999 17.1252C20.9775 14.9964 20.5902 14.5927 20.2264 14.3825C19.7088 14.0537 17.3922 14.0128 16.7725 14.4419C16.3084 14.7629 16.1683 15.2659 16.1274 15.624C16.1011 15.8536 15.9017 16.0239 15.6701 16.0258L10.3346 16.0813Z" stroke="black" stroke-width="1.5" stroke-linecap="round" stroke-linejoin="round"/>
<path fill-rule="evenodd" clip-rule="evenodd" d="M8.54758 6.04083C8.31797 6.00775 8.14284 5.81316 8.14674 5.5816C8.15257 5.22162 8.0796 4.70499 7.66222 4.32555C7.10375 3.81963 4.8018 3.55596 4.24528 3.81476C3.85708 3.9753 3.42024 4.32458 3.1196 6.43195C2.81896 8.53932 3.141 8.99757 3.46986 9.26026C3.93103 9.66403 6.21547 10.0542 6.89263 9.72337C7.39953 9.47625 7.61454 9.00049 7.70892 8.65315C7.77021 8.43035 7.99301 8.29122 8.22165 8.3243L13.5037 9.07735C13.7333 9.10945 13.9084 9.30404 13.9045 9.53657C13.8987 9.89656 13.9726 10.4132 14.39 10.7926C14.9475 11.2986 17.2505 11.5622 17.806 11.3034C18.1952 11.1429 18.632 10.7936 18.9317 8.68623C19.2323 6.57789 18.9103 6.12061 18.5824 5.85889C18.1212 5.45415 15.8368 5.06401 15.1596 5.39383C14.6527 5.64193 14.4377 6.11672 14.3424 6.46503C14.282 6.6888 14.0592 6.82598 13.8296 6.7929L8.54758 6.04083Z" stroke="black" stroke-width="1.5" stroke-linecap="round" stroke-linejoin="round"/>
</svg>