<svg width="25" height="24" viewBox="0 0 25 24" fill="none" xmlns="http://www.w3.org/2000/svg">
<path d="M7.70839 21.0218C7.00248 21.0609 6.29725 20.9338 5.64939 20.6508C4.86139 20.1968 4.54939 19.2798 4.52839 17.2828C4.50739 15.2858 4.80139 14.3617 5.60839 13.8747C6.97723 13.3409 8.49705 13.3431 9.86439 13.8808C10.3586 14.2143 10.7008 14.7298 10.8164 15.3148L15.6734 15.2647C15.7776 14.678 16.1089 14.1559 16.5954 13.8118C17.962 13.2435 19.4937 13.2167 20.8794 13.7367C21.6674 14.1907 21.9794 15.1078 22.0004 17.1038C22.0214 19.0998 21.7284 20.0228 20.9214 20.5108C19.5529 21.0461 18.0329 21.0461 16.6644 20.5108C16.1703 20.177 15.8281 19.6616 15.7124 19.0768L10.8554 19.1257C10.7521 19.7136 10.4198 20.2366 9.93139 20.5798C9.2411 20.9169 8.47515 21.0692 7.70839 21.0218ZM7.84539 14.9747C7.35588 14.9522 6.86607 15.012 6.39639 15.1517C6.05839 15.3517 6.02139 16.5648 6.02839 17.2678C6.03539 17.9708 6.09739 19.1778 6.42839 19.3678C7.30045 19.5848 8.21339 19.5765 9.08139 19.3438C9.17939 19.2656 9.25922 19.1671 9.31534 19.055C9.37146 18.943 9.40253 18.82 9.40638 18.6947C9.44135 18.4009 9.58277 18.1301 9.80388 17.9335C10.025 17.7369 10.3105 17.6281 10.6064 17.6277L15.9404 17.5738C16.2319 17.5763 16.5132 17.6817 16.7346 17.8714C16.956 18.0612 17.1033 18.323 17.1504 18.6107C17.1568 18.7365 17.1906 18.8593 17.2493 18.9707C17.308 19.0821 17.3903 19.1794 17.4904 19.2558C18.3586 19.4692 19.2665 19.4623 20.1314 19.2357C20.4684 19.0307 20.5054 17.8218 20.4984 17.1188C20.4914 16.4158 20.4294 15.2088 20.0984 15.0188C19.2278 14.8029 18.3167 14.8115 17.4504 15.0437C17.3529 15.1222 17.2736 15.2208 17.2178 15.3329C17.162 15.4449 17.1312 15.5677 17.1274 15.6928C17.0918 15.9862 16.9501 16.2565 16.7291 16.4529C16.5081 16.6492 16.223 16.758 15.9274 16.7588L10.5934 16.8148H10.5824C10.2897 16.8154 10.0067 16.7105 9.78517 16.5193C9.56364 16.328 9.4185 16.0633 9.37639 15.7738C9.37016 15.6478 9.33651 15.5248 9.27778 15.4132C9.21906 15.3016 9.13667 15.2042 9.03639 15.1277C8.65464 15.0007 8.25189 14.9487 7.85039 14.9747H7.84539Z" fill="black"/>
<path d="M17.2789 12.1435C16.1755 12.185 15.0838 11.9046 14.1369 11.3365C13.6997 10.9316 13.4395 10.3708 13.413 9.77545L8.60394 9.08946C8.41303 9.65493 8.00656 10.1221 7.47295 10.3895C6.03621 10.7447 4.51812 10.5398 3.22695 9.81645C2.51495 9.24845 2.34595 8.29445 2.62695 6.31645C2.90795 4.33845 3.33795 3.47145 4.20895 3.11145C5.64299 2.7908 7.14521 3.02254 8.41595 3.76045C8.85383 4.16527 9.11404 4.72668 9.13995 5.32245L13.9489 6.00646C14.14 5.4411 14.5465 4.97395 15.08 4.70645C16.5172 4.35114 18.0359 4.55675 19.3269 5.28146C20.0369 5.84746 20.2059 6.80146 19.927 8.78146C19.648 10.7615 19.2169 11.6265 18.3449 11.9815C18.0038 12.1052 17.6415 12.1603 17.2789 12.1435ZM8.40395 7.55845C8.46319 7.55834 8.52236 7.56269 8.58095 7.57145L13.8609 8.32346C14.1532 8.3639 14.4205 8.5097 14.6128 8.73345C14.8051 8.9572 14.909 9.24348 14.9049 9.53845C14.8927 9.66376 14.9079 9.79023 14.9495 9.90905C14.9911 10.0279 15.0582 10.1362 15.1459 10.2265C15.9709 10.5691 16.8686 10.6994 17.7569 10.6055C18.1229 10.4545 18.341 9.26545 18.44 8.56945C18.539 7.87345 18.6619 6.66945 18.3649 6.43345C17.5349 6.08634 16.6299 5.95725 15.7359 6.05845C15.6276 6.12139 15.5341 6.20694 15.4618 6.30927C15.3895 6.4116 15.3401 6.52831 15.3169 6.65145C15.2383 6.93609 15.0582 7.18208 14.8106 7.34293C14.5629 7.50378 14.265 7.56835 13.9729 7.52445L8.69295 6.77245C8.40102 6.73048 8.13433 6.58377 7.94261 6.35966C7.75088 6.13555 7.64722 5.84936 7.65095 5.55445C7.66366 5.42937 7.64895 5.30302 7.60785 5.1842C7.56675 5.06538 7.50024 4.95695 7.41295 4.86646C6.58741 4.5234 5.68887 4.39341 4.79995 4.48845C4.43595 4.63845 4.21594 5.82845 4.11694 6.52445C4.01794 7.22045 3.89595 8.42446 4.19295 8.66046C5.02374 9.00475 5.9281 9.13341 6.82195 9.03446C6.93025 8.97183 7.02369 8.88648 7.09585 8.78428C7.16801 8.68208 7.21717 8.56547 7.23995 8.44245C7.31049 8.18778 7.46247 7.9632 7.67265 7.80303C7.88284 7.64286 8.13969 7.55591 8.40395 7.55545V7.55845Z" fill="black"/>
</svg>