<svg width="25" height="24" viewBox="0 0 25 24" fill="none" xmlns="http://www.w3.org/2000/svg">
<path d="M17.3405 19.7133C15.4785 19.7133 14.5995 19.4133 14.1275 18.6333C13.5942 17.2643 13.5963 15.7447 14.1335 14.3773C14.4665 13.8825 14.9823 13.5401 15.5675 13.4253L15.5175 8.56728C14.9303 8.46362 14.4077 8.13225 14.0635 7.64528C13.4959 6.27892 13.4687 4.74792 13.9875 3.36228C14.4425 2.57328 15.3605 2.26228 17.3555 2.24128C19.3505 2.22028 20.2785 2.51428 20.7635 3.32228C21.2978 4.69068 21.2957 6.2104 20.7575 7.57728C20.424 8.07105 19.909 8.41317 19.3245 8.52928L19.3745 13.3863C19.9616 13.4898 20.4839 13.8212 20.8275 14.3083C21.3958 15.6749 21.4226 17.2066 20.9025 18.5923C20.4465 19.3813 19.5305 19.6923 17.5365 19.7123L17.3405 19.7133ZM17.5205 3.74028H17.3715C16.6715 3.74728 15.4615 3.80828 15.2715 4.14028C15.0554 5.01337 15.0654 5.92712 15.3005 6.79528C15.3786 6.89297 15.477 6.97254 15.5889 7.02848C15.7008 7.08442 15.8235 7.1154 15.9485 7.11928C16.2411 7.15492 16.5107 7.29568 16.7072 7.51534C16.9036 7.735 17.0136 8.01859 17.0165 8.31328L17.0705 13.6493C17.074 13.9439 16.9702 14.2297 16.7784 14.4535C16.5867 14.6772 16.3202 14.8236 16.0285 14.8653C15.903 14.8713 15.7804 14.9046 15.6691 14.963C15.5579 15.0214 15.4607 15.1034 15.3845 15.2033C15.1706 16.0718 15.1775 16.9801 15.4045 17.8453C15.6095 18.1833 16.8205 18.2263 17.5215 18.2113C18.2225 18.1963 19.4305 18.1433 19.6215 17.8113C19.8376 16.9382 19.8276 16.0244 19.5925 15.1563C19.5146 15.0586 19.4164 14.979 19.3047 14.9231C19.1929 14.8672 19.0704 14.8362 18.9455 14.8323C18.6519 14.7965 18.3815 14.6549 18.1849 14.434C17.9883 14.213 17.879 13.928 17.8775 13.6323L17.8235 8.29928C17.8186 8.0037 17.9223 7.71658 18.1149 7.49229C18.3074 7.26801 18.5756 7.12213 18.8685 7.08228C18.9934 7.07527 19.1153 7.04123 19.2258 6.98253C19.3363 6.92383 19.4328 6.84186 19.5085 6.74228C19.7234 5.87487 19.7166 4.96732 19.4885 4.10328C19.3005 3.79328 18.2405 3.74028 17.5235 3.74028H17.5205Z" fill="black"/>
<path d="M8.10464 21.7414C7.58991 21.7339 7.07632 21.6905 6.56764 21.6114C4.59264 21.3304 3.72364 20.9034 3.36764 20.0304C3.04645 18.5967 3.27823 17.0946 4.01664 15.8244C4.42111 15.3865 4.98211 15.126 5.57765 15.0994L6.26364 10.2894C5.69806 10.0987 5.23078 9.69217 4.96363 9.15842C4.60709 7.72131 4.8124 6.20232 5.53764 4.91142C6.10564 4.20042 7.06064 4.03242 9.03764 4.31142C11.0146 4.59042 11.8826 5.02142 12.2426 5.89342C12.5635 7.32713 12.3318 8.82912 11.5936 10.0994C11.1889 10.537 10.6281 10.7975 10.0326 10.8244L9.34664 15.6324C9.9115 15.8239 10.3784 16.2297 10.6466 16.7624C11.003 18.2002 10.7977 19.7197 10.0726 21.0114C9.82775 21.2827 9.52089 21.4908 9.17822 21.6179C8.83555 21.745 8.46722 21.7874 8.10464 21.7414ZM5.78665 16.5924C5.66558 16.5828 5.54384 16.599 5.42953 16.6401C5.31522 16.6811 5.21094 16.746 5.12364 16.8304C4.77976 17.6568 4.64877 18.5563 4.74264 19.4464C4.89464 19.8114 6.08264 20.0304 6.77864 20.1284C7.47464 20.2264 8.67865 20.3514 8.91365 20.0544C9.26092 19.2237 9.39033 18.3181 9.28964 17.4234C9.22685 17.3153 9.14146 17.2219 9.03929 17.1498C8.93712 17.0776 8.82059 17.0284 8.69764 17.0054C8.41395 16.9257 8.16884 16.7457 8.0079 16.4989C7.84696 16.252 7.78113 15.9552 7.82264 15.6634L8.57563 10.3814C8.60807 10.0857 8.75157 9.81334 8.97711 9.61936C9.20264 9.42538 9.49341 9.32426 9.79065 9.33642C9.91597 9.35035 10.0428 9.33603 10.1619 9.2945C10.2809 9.25296 10.3892 9.18528 10.4786 9.09642C10.8206 8.27093 10.9509 7.37307 10.8576 6.48442C10.7056 6.11942 9.51664 5.90042 8.82164 5.80142C8.12664 5.70242 6.92164 5.57942 6.68464 5.87642C6.33848 6.70705 6.20975 7.61222 6.31063 8.50642C6.37372 8.61464 6.45932 8.70805 6.56163 8.78034C6.66393 8.85262 6.78056 8.9021 6.90364 8.92542C7.18733 9.00434 7.43256 9.18391 7.59343 9.43055C7.75429 9.67719 7.81978 9.97399 7.77764 10.2654L7.02464 15.5484C6.98365 15.8368 6.84044 16.1008 6.6211 16.2924C6.40176 16.4841 6.1209 16.5905 5.82965 16.5924H5.78665Z" fill="black"/>
</svg>