<svg width="25" height="24" viewBox="0 0 25 24" fill="none" xmlns="http://www.w3.org/2000/svg">
<path d="M7.86486 21.7547C7.09886 21.7547 6.16485 21.2867 4.56485 19.6867C2.58885 17.7107 2.33785 16.7487 2.57285 15.8367C2.78885 14.8117 5.04385 12.4497 6.27285 12.2137C6.64276 12.1485 7.02216 12.1608 7.38707 12.2498C7.75198 12.3388 8.09447 12.5025 8.39286 12.7307L12.9789 8.14267C12.7503 7.84458 12.5864 7.50205 12.4977 7.13701C12.409 6.77196 12.3975 6.39243 12.4639 6.02267C12.6999 4.79067 15.0638 2.53567 16.1198 2.31367C16.9978 2.08567 17.9598 2.33667 19.9368 4.31367C21.9138 6.29067 22.1628 7.25167 21.9278 8.16267C21.7128 9.18667 19.4588 11.5487 18.2278 11.7857C17.8579 11.8518 17.4783 11.8402 17.1131 11.7515C16.7479 11.6628 16.4052 11.4991 16.1068 11.2707L11.5208 15.8547C11.7484 16.1532 11.9117 16.4955 12.0005 16.8602C12.0893 17.2249 12.1017 17.604 12.0369 17.9737C11.7989 19.2057 9.43686 21.4587 8.38186 21.6827C8.21326 21.7284 8.03954 21.7526 7.86486 21.7547ZM6.74485 13.6697C6.68145 13.6693 6.61816 13.675 6.55585 13.6867C5.50493 14.2788 4.63223 15.1422 4.02886 16.1867C3.98186 16.3747 3.85584 16.8607 5.62384 18.6297C7.39184 20.3987 7.87685 20.2697 8.04085 20.2297C9.09562 19.6305 9.96744 18.7556 10.5629 17.6987C10.5888 17.5125 10.5737 17.323 10.5186 17.1433C10.4635 16.9636 10.3697 16.7982 10.2439 16.6587C10.0454 16.4005 9.94818 16.0787 9.97046 15.7538C9.99275 15.4289 10.133 15.1234 10.3649 14.8947L15.1438 10.1157C15.3726 9.88515 15.6775 9.74598 16.0016 9.72426C16.3256 9.70253 16.6464 9.79975 16.9039 9.99767C17.0433 10.1234 17.2086 10.217 17.3881 10.2721C17.5675 10.3272 17.7569 10.3424 17.9428 10.3167C18.9936 9.72473 19.8661 8.86129 20.4688 7.81667C20.5168 7.62967 20.6429 7.14168 18.8759 5.37568C17.1089 3.60968 16.6209 3.73367 16.4609 3.77567C15.4048 4.37431 14.5321 5.24975 13.9368 6.30768C13.9103 6.49343 13.9251 6.68274 13.9801 6.86215C14.035 7.04156 14.1288 7.20664 14.2549 7.34567C14.4526 7.60377 14.5496 7.925 14.5279 8.2494C14.5062 8.57381 14.3672 8.87923 14.1368 9.10867L9.35585 13.8897C9.12729 14.1209 8.82207 14.2605 8.4977 14.2822C8.17333 14.3039 7.85222 14.2063 7.59485 14.0077C7.35776 13.8019 7.0584 13.6818 6.74485 13.6667V13.6697Z" fill="black"/>
</svg>