<svg width="24" height="24" viewBox="0 0 24 24" fill="none" xmlns="http://www.w3.org/2000/svg">
<path fill-rule="evenodd" clip-rule="evenodd" d="M20.4946 13.9613C19.8116 13.5273 17.2616 13.4963 16.4876 14.0313C16.0036 14.3653 15.7066 14.8973 15.6646 15.5263L10.3586 15.5803C10.2616 14.9313 9.95664 14.4213 9.47564 14.1033C8.69364 13.5833 6.14464 13.6653 5.48764 14.1033C4.87964 14.4683 4.50664 15.1303 4.52764 17.2943C4.55164 19.4553 4.93664 20.1093 5.53364 20.4533C5.86864 20.6663 6.65164 20.7823 7.45364 20.7823C8.28964 20.7823 9.14564 20.6563 9.53964 20.3833C10.0246 20.0483 10.3206 19.5173 10.3626 18.8883L15.6636 18.7923C15.7526 19.4613 16.0606 19.9863 16.5516 20.3103C17.3346 20.8303 19.8856 20.7473 20.5406 20.3113C21.1486 19.9453 21.5216 19.2843 21.4996 17.1203C21.4766 14.9593 21.0906 14.3053 20.4946 13.9613Z" fill="black"/>
<path fill-rule="evenodd" clip-rule="evenodd" d="M7.11236 10.1722C7.64336 9.91423 8.01636 9.43323 8.15136 8.81923L13.4044 9.52823C13.3944 10.2012 13.6184 10.7662 14.0544 11.1642C14.5554 11.6182 16.0064 11.9022 17.0464 11.9022C17.4524 11.9022 17.7964 11.8592 17.9964 11.7652C18.6544 11.4942 19.1224 10.8972 19.4274 8.75623C19.7314 6.61523 19.4484 5.91123 18.9124 5.48423C18.3054 4.94923 15.7904 4.53223 14.9404 4.94423C14.4134 5.20223 14.0394 5.68223 13.9004 6.29823L8.64736 5.55023C8.64936 4.89323 8.42436 4.34223 7.99836 3.95523C7.30036 3.32323 4.76836 3.02123 4.05436 3.35323C3.39836 3.62323 2.92936 4.22023 2.62536 6.36123C2.31936 8.50323 2.60236 9.20823 3.14036 9.63623C3.75036 10.1702 6.26636 10.5852 7.11236 10.1722Z" fill="black"/>
</svg>