<svg width="25" height="25" viewBox="0 0 25 25" fill="none" xmlns="http://www.w3.org/2000/svg">
<path fill-rule="evenodd" clip-rule="evenodd" d="M2.71967 3.35444C3.01256 3.06154 3.48744 3.06154 3.78033 3.35444L21.7803 21.3544C22.0732 21.6473 22.0732 22.1222 21.7803 22.4151C21.4874 22.708 21.0126 22.708 20.7197 22.4151L2.71967 4.4151C2.42678 4.1222 2.42678 3.64733 2.71967 3.35444Z" fill="black"/>
<path fill-rule="evenodd" clip-rule="evenodd" d="M17.7077 11.4023C16.1654 11.4023 14.915 12.6527 14.915 14.195C14.915 14.3651 14.9302 14.531 14.959 14.6917C15.032 15.0994 14.7607 15.4892 14.353 15.5622C13.9453 15.6353 13.5555 15.364 13.4825 14.9563C13.4381 14.7087 13.415 14.4542 13.415 14.195C13.415 11.8242 15.3369 9.90234 17.7077 9.90234C20.0784 9.90234 22.0003 11.8242 22.0003 14.195C22.0003 16.5627 20.0833 18.4827 17.7167 18.4876C17.5279 18.4913 17.1399 18.4637 16.7551 18.3283C16.3644 18.1908 16.1591 17.7626 16.2965 17.3719C16.434 16.9811 16.8622 16.7758 17.253 16.9133C17.3362 16.9426 17.4312 16.9629 17.5208 16.975C17.5644 16.9809 17.6031 16.9844 17.634 16.9862C17.6494 16.9871 17.662 16.9876 17.6716 16.9878L17.6828 16.9879C17.6852 16.9879 17.6865 16.9879 17.6867 16.9879H17.6867L17.7077 16.9876C19.2499 16.9876 20.5003 15.7373 20.5003 14.195C20.5003 12.6527 19.25 11.4023 17.7077 11.4023Z" fill="black"/>
<path fill-rule="evenodd" clip-rule="evenodd" d="M7.64551 8.90747C7.64551 8.49326 7.98129 8.15747 8.39551 8.15747H16.1216C16.5358 8.15747 16.8716 8.49326 16.8716 8.90747C16.8716 9.32168 16.5358 9.65747 16.1216 9.65747H8.39551C7.98129 9.65747 7.64551 9.32168 7.64551 8.90747Z" fill="black"/>
<path fill-rule="evenodd" clip-rule="evenodd" d="M17.8938 3.67808C18.056 4.05922 17.8785 4.49968 17.4974 4.66187L15.8801 5.35007L18.4261 13.8368C18.5451 14.2335 18.32 14.6517 17.9233 14.7707C17.5265 14.8897 17.1084 14.6646 16.9894 14.2678L14.2505 5.13826C14.1407 4.77227 14.3236 4.38225 14.6752 4.23263L16.9101 3.28163C17.2912 3.11945 17.7317 3.29694 17.8938 3.67808Z" fill="black"/>
<path fill-rule="evenodd" clip-rule="evenodd" d="M5.24512 6.40637C5.24512 5.99216 5.5809 5.65637 5.99512 5.65637H9.00407C9.41828 5.65637 9.75407 5.99216 9.75407 6.40637C9.75407 6.82059 9.41828 7.15637 9.00407 7.15637H5.99512C5.5809 7.15637 5.24512 6.82059 5.24512 6.40637Z" fill="black"/>
<path fill-rule="evenodd" clip-rule="evenodd" d="M6.18336 10.7796C6.3747 11.1469 6.232 11.5999 5.86463 11.7912C4.75501 12.3691 4 13.5283 4 14.8626C4 17.8456 6.39466 19.8572 9.56556 19.8572H9.91643C10.3306 19.8572 10.6664 20.1929 10.6664 20.6072C10.6664 21.0214 10.3306 21.3572 9.91643 21.3572H9.56556C5.7605 21.3572 2.5 18.8558 2.5 14.8626C2.5 12.9474 3.58569 11.2869 5.17172 10.4608C5.5391 10.2695 5.99202 10.4122 6.18336 10.7796Z" fill="black"/>
<path fill-rule="evenodd" clip-rule="evenodd" d="M11.1066 20.1666C10.8633 20.1666 10.666 20.3639 10.666 20.6072C10.666 20.8505 10.8633 21.0478 11.1066 21.0478H11.5472V20.1666H11.1066ZM13.0472 20.1666H13.6841C14.0983 20.1666 14.4341 19.8308 14.4341 19.4166C14.4341 19.0024 14.0983 18.6666 13.6841 18.6666H11.1066C10.0348 18.6666 9.16602 19.5354 9.16602 20.6072C9.16602 21.6789 10.0348 22.5478 11.1066 22.5478H13.6841C14.0983 22.5478 14.4341 22.212 14.4341 21.7978C14.4341 21.3836 14.0983 21.0478 13.6841 21.0478H13.0472V20.1666Z" fill="black"/>
<path fill-rule="evenodd" clip-rule="evenodd" d="M10.8412 15.3617C11.1938 15.5792 11.3033 16.0412 11.0859 16.3938C10.3372 17.6077 8.99324 18.4196 7.45898 18.4196C7.04477 18.4196 6.70898 18.0838 6.70898 17.6696C6.70898 17.2554 7.04477 16.9196 7.45898 16.9196C8.45143 16.9196 9.32223 16.396 9.80919 15.6064C10.0266 15.2539 10.4887 15.1443 10.8412 15.3617Z" fill="black"/>
<path fill-rule="evenodd" clip-rule="evenodd" d="M8.38987 12.6526C8.7138 12.9108 8.76712 13.3827 8.50897 13.7066C8.27687 13.9978 8.01248 14.2898 7.71253 14.586C7.4178 14.877 6.94293 14.874 6.65189 14.5793C6.36085 14.2846 6.36383 13.8097 6.65857 13.5187C6.92161 13.2589 7.14528 13.011 7.33592 12.7717C7.59407 12.4478 8.06594 12.3945 8.38987 12.6526Z" fill="black"/>
</svg>