<svg width="25" height="25" viewBox="0 0 25 25" fill="none" xmlns="http://www.w3.org/2000/svg">
<path d="M14.165 14.195C14.165 16.1515 15.7511 17.7376 17.7076 17.7376C19.6642 17.7376 21.2503 16.1515 21.2503 14.195C21.2503 12.2384 19.6642 10.6523 17.7076 10.6523C15.7511 10.6523 14.165 12.2384 14.165 14.195Z" stroke="black" stroke-width="1.5" stroke-miterlimit="10" stroke-linecap="round" stroke-linejoin="round"/>
<path d="M16.1211 8.90747H9.24672C9.24672 10.8588 8.96456 12.2951 7.18506 14.0524" stroke="black" stroke-width="1.5" stroke-miterlimit="10" stroke-linecap="round" stroke-linejoin="round"/>
<path d="M17.7076 14.0524L14.9688 4.9228L17.2036 3.9718" stroke="black" stroke-width="1.5" stroke-miterlimit="10" stroke-linecap="round" stroke-linejoin="round"/>
<path d="M9.00387 6.40637H6.35059" stroke="black" stroke-width="1.5" stroke-miterlimit="10" stroke-linecap="round" stroke-linejoin="round"/>
<path d="M9.25072 8.90749L7.4248 6.40637" stroke="black" stroke-width="1.5" stroke-miterlimit="10" stroke-linecap="round" stroke-linejoin="round"/>
<path d="M10.969 14.161C10.969 12.2232 9.39815 10.6523 7.46038 10.6523C5.13505 10.6523 3.25 12.5374 3.25 14.8627C3.25 18.3507 6.07758 20.6072 9.56556 20.6072H9.91643M10.9674 14.161C10.9674 16.0987 9.39652 17.6696 7.45875 17.6696" stroke="black" stroke-width="1.5" stroke-miterlimit="10" stroke-linecap="round" stroke-linejoin="round"/>
<path d="M12.2976 21.7978H11.1071C10.4495 21.7978 9.9165 21.2647 9.9165 20.6072C9.9165 19.9497 10.4495 19.4166 11.1071 19.4166H12.2976M12.2976 21.7978V19.4166M12.2976 21.7978H13.6846M12.2976 19.4166H13.6846" stroke="black" stroke-width="1.5" stroke-miterlimit="10" stroke-linecap="round" stroke-linejoin="round"/>
</svg>