<svg width="25" height="25" viewBox="0 0 25 25" fill="none" xmlns="http://www.w3.org/2000/svg">
<path fill-rule="evenodd" clip-rule="evenodd" d="M17.7077 11.4023C16.1654 11.4023 14.915 12.6527 14.915 14.195C14.915 15.7373 16.1654 16.9876 17.7077 16.9876C19.25 16.9876 20.5003 15.7373 20.5003 14.195C20.5003 12.6527 19.25 11.4023 17.7077 11.4023ZM13.415 14.195C13.415 11.8242 15.3369 9.90234 17.7077 9.90234C20.0784 9.90234 22.0003 11.8242 22.0003 14.195C22.0003 16.5657 20.0784 18.4876 17.7077 18.4876C15.3369 18.4876 13.415 16.5657 13.415 14.195Z" fill="black"/>
<path fill-rule="evenodd" clip-rule="evenodd" d="M8.49672 8.90747C8.49672 8.49326 8.8325 8.15747 9.24672 8.15747H16.1211C16.5353 8.15747 16.8711 8.49326 16.8711 8.90747C16.8711 9.32168 16.5353 9.65747 16.1211 9.65747H9.98007C9.94405 10.391 9.84089 11.0991 9.58973 11.8043C9.251 12.7554 8.6635 13.6465 7.71204 14.586C7.41731 14.8771 6.94245 14.8741 6.6514 14.5793C6.36036 14.2846 6.36335 13.8097 6.65808 13.5187C7.48612 12.701 7.92945 11.9952 8.17667 11.3011C8.42696 10.5983 8.49672 9.85206 8.49672 8.90747Z" fill="black"/>
<path fill-rule="evenodd" clip-rule="evenodd" d="M17.8933 3.67808C18.0555 4.05922 17.878 4.49968 17.4969 4.66187L15.8796 5.35007L18.4256 13.8368C18.5447 14.2335 18.3195 14.6517 17.9228 14.7707C17.526 14.8897 17.1079 14.6646 16.9889 14.2678L14.25 5.13826C14.1402 4.77227 14.3231 4.38225 14.6747 4.23263L16.9096 3.28163C17.2907 3.11945 17.7312 3.29694 17.8933 3.67808Z" fill="black"/>
<path fill-rule="evenodd" clip-rule="evenodd" d="M5.60059 6.40637C5.60059 5.99216 5.93637 5.65637 6.35059 5.65637H9.00387C9.41808 5.65637 9.75387 5.99216 9.75387 6.40637C9.75387 6.82059 9.41808 7.15637 9.00387 7.15637H6.35059C5.93637 7.15637 5.60059 6.82059 5.60059 6.40637Z" fill="black"/>
<path fill-rule="evenodd" clip-rule="evenodd" d="M6.98214 5.80055C7.31669 5.55631 7.78589 5.62953 8.03012 5.96408L9.85604 8.4652C10.1003 8.79975 10.0271 9.26894 9.6925 9.51318C9.35796 9.75741 8.88876 9.68419 8.64453 9.34965L6.81861 6.84853C6.57438 6.51398 6.6476 6.04478 6.98214 5.80055Z" fill="black"/>
<path fill-rule="evenodd" clip-rule="evenodd" d="M2.5 14.8627C2.5 12.1232 4.72083 9.90234 7.46038 9.90234C9.81236 9.90234 11.719 11.809 11.719 14.161C11.719 14.1794 11.7184 14.1976 11.7171 14.2156C11.6878 16.5424 9.7925 18.4196 7.45875 18.4196C7.04454 18.4196 6.70875 18.0839 6.70875 17.6696C6.70875 17.2554 7.04454 16.9196 7.45875 16.9196C8.98231 16.9196 10.2174 15.6845 10.2174 14.161C10.2174 14.1462 10.2178 14.1315 10.2187 14.117C10.1952 12.6137 8.96923 11.4023 7.46038 11.4023C5.54926 11.4023 4 12.9516 4 14.8627C4 17.8456 6.39466 19.8572 9.56556 19.8572H9.91643C10.3306 19.8572 10.6664 20.193 10.6664 20.6072C10.6664 21.0214 10.3306 21.3572 9.91643 21.3572H9.56556C5.7605 21.3572 2.5 18.8558 2.5 14.8627Z" fill="black"/>
<path fill-rule="evenodd" clip-rule="evenodd" d="M11.1071 20.1666C10.8638 20.1666 10.6665 20.3639 10.6665 20.6072C10.6665 20.8505 10.8638 21.0478 11.1071 21.0478H11.5476V20.1666H11.1071ZM13.0476 20.1666H13.6846C14.0988 20.1666 14.4346 19.8308 14.4346 19.4166C14.4346 19.0024 14.0988 18.6666 13.6846 18.6666H11.1071C10.0353 18.6666 9.1665 19.5354 9.1665 20.6072C9.1665 21.6789 10.0353 22.5478 11.1071 22.5478H13.6846C14.0988 22.5478 14.4346 22.212 14.4346 21.7978C14.4346 21.3836 14.0988 21.0478 13.6846 21.0478H13.0476V20.1666Z" fill="black"/>
</svg>