<svg width="25" height="25" viewBox="0 0 25 25" fill="none" xmlns="http://www.w3.org/2000/svg">
<path d="M3.25 3.88477L13.7023 14.3371L15.8847 16.5194L21.25 21.8848" stroke="black" stroke-width="1.5" stroke-miterlimit="10" stroke-linecap="round" stroke-linejoin="round"/>
<path d="M14.2207 14.824C14.1841 14.6198 14.165 14.4096 14.165 14.195C14.165 12.2384 15.7511 10.6523 17.7076 10.6523C19.6642 10.6523 21.2503 12.2384 21.2503 14.195C21.2503 16.1515 19.6642 17.7376 17.7076 17.7376C17.5929 17.7408 17.2914 17.7219 17.004 17.6208" stroke="black" stroke-width="1.5" stroke-miterlimit="10" stroke-linecap="round" stroke-linejoin="round"/>
<path d="M16.1215 8.90747H8.39544" stroke="black" stroke-width="1.5" stroke-miterlimit="10" stroke-linecap="round" stroke-linejoin="round"/>
<path d="M17.7076 14.0524L14.9688 4.9228L17.2036 3.9718" stroke="black" stroke-width="1.5" stroke-miterlimit="10" stroke-linecap="round" stroke-linejoin="round"/>
<path d="M9.00409 6.40637H5.99514" stroke="black" stroke-width="1.5" stroke-miterlimit="10" stroke-linecap="round" stroke-linejoin="round"/>
<path d="M9.91643 20.6071H9.56556C6.07758 20.6071 3.25 18.3506 3.25 14.8626C3.25 13.2378 4.17035 11.828 5.51818 11.126" stroke="black" stroke-width="1.5" stroke-miterlimit="10" stroke-linecap="round" stroke-linejoin="round"/>
<path d="M12.2972 21.7978H11.1066C10.4491 21.7978 9.91602 21.2647 9.91602 20.6072C9.91602 19.9497 10.4491 19.4166 11.1066 19.4166H12.2972M12.2972 21.7978V19.4166M12.2972 21.7978H13.6841M12.2972 19.4166H13.6841" stroke="black" stroke-width="1.5" stroke-miterlimit="10" stroke-linecap="round" stroke-linejoin="round"/>
<path d="M7.45898 17.6696C8.72233 17.6696 9.82974 17.0019 10.4475 16.0001" stroke="black" stroke-width="1.5" stroke-miterlimit="10" stroke-linecap="round" stroke-linejoin="round"/>
<path d="M7.18555 14.0523C7.46704 13.7743 7.71107 13.5044 7.92244 13.2391" stroke="black" stroke-width="1.5" stroke-miterlimit="10" stroke-linecap="round" stroke-linejoin="round"/>
</svg>