<svg width="24" height="24" viewBox="0 0 24 24" fill="none" xmlns="http://www.w3.org/2000/svg">
<path fill-rule="evenodd" clip-rule="evenodd" d="M2.25 11.5397C2.25 11.1255 2.58579 10.7897 3 10.7897H9.46154C9.87575 10.7897 10.2115 11.1255 10.2115 11.5397C10.2115 11.9539 9.87575 12.2897 9.46154 12.2897H3C2.58579 12.2897 2.25 11.9539 2.25 11.5397Z" fill="black"/>
<path fill-rule="evenodd" clip-rule="evenodd" d="M5.01953 6.46155C5.01953 6.04733 5.35532 5.71155 5.76953 5.71155H12.2311C12.6453 5.71155 12.9811 6.04733 12.9811 6.46155C12.9811 6.87576 12.6453 7.21155 12.2311 7.21155H5.76953C5.35532 7.21155 5.01953 6.87576 5.01953 6.46155Z" fill="black"/>
<path fill-rule="evenodd" clip-rule="evenodd" d="M6.08371 10.8581C6.45979 11.0317 6.62396 11.4773 6.45038 11.8534L3.68115 17.8534C3.50757 18.2294 3.06198 18.3936 2.68589 18.22C2.3098 18.0465 2.14563 17.6009 2.31921 17.2248L5.08844 11.2248C5.26202 10.8487 5.70762 10.6845 6.08371 10.8581Z" fill="black"/>
<path fill-rule="evenodd" clip-rule="evenodd" d="M2.25 17.5397C2.25 17.1255 2.58579 16.7897 3 16.7897H10.8462C11.2604 16.7897 11.5962 17.1255 11.5962 17.5397C11.5962 17.9539 11.2604 18.2897 10.8462 18.2897H3C2.58579 18.2897 2.25 17.9539 2.25 17.5397Z" fill="black"/>
<path fill-rule="evenodd" clip-rule="evenodd" d="M15.1729 14.7701C15.1729 14.3559 15.5086 14.0201 15.9229 14.0201H19.3844C19.7986 14.0201 20.1344 14.3559 20.1344 14.7701C20.1344 15.1844 19.7986 15.5201 19.3844 15.5201H15.9229C15.5086 15.5201 15.1729 15.1844 15.1729 14.7701Z" fill="black"/>
<path fill-rule="evenodd" clip-rule="evenodd" d="M16.2353 5.77914C16.6118 5.95172 16.7772 6.39688 16.6046 6.77343L11.5277 17.8504C11.3551 18.2269 10.9099 18.3922 10.5334 18.2197C10.1568 18.0471 9.9915 17.6019 10.1641 17.2254L15.241 6.14845C15.4136 5.7719 15.8588 5.60655 16.2353 5.77914Z" fill="black"/>
<path fill-rule="evenodd" clip-rule="evenodd" d="M15.6105 5.77914C15.9871 5.60655 16.4322 5.7719 16.6048 6.14845L21.6818 17.2254C21.8543 17.6019 21.689 18.0471 21.3124 18.2197C20.9359 18.3922 20.4907 18.2269 20.3182 17.8504L15.2412 6.77343C15.0687 6.39688 15.234 5.95172 15.6105 5.77914Z" fill="black"/>
</svg>