<svg width="24" height="24" viewBox="0 0 24 24" fill="none" xmlns="http://www.w3.org/2000/svg">
<path fill-rule="evenodd" clip-rule="evenodd" d="M14.3212 8.20703C14.6144 8.20703 14.8808 8.37795 15.003 8.64454L17.9323 15.0359C18.1049 15.4124 17.9396 15.8576 17.563 16.0302C17.1865 16.2028 16.7413 16.0374 16.5687 15.6609L14.3212 10.7571L12.0736 15.6609C11.901 16.0374 11.4558 16.2028 11.0793 16.0302C10.7027 15.8576 10.5374 15.4124 10.71 15.0359L13.6394 8.64454C13.7615 8.37795 14.0279 8.20703 14.3212 8.20703Z" fill="black"/>
<path fill-rule="evenodd" clip-rule="evenodd" d="M13.8369 13.9805C13.8369 13.5663 14.1727 13.2305 14.5869 13.2305H16.5892C17.0034 13.2305 17.3392 13.5663 17.3392 13.9805C17.3392 14.3947 17.0034 14.7305 16.5892 14.7305H14.5869C14.1727 14.7305 13.8369 14.3947 13.8369 13.9805Z" fill="black"/>
<path fill-rule="evenodd" clip-rule="evenodd" d="M6 11.9253C6 11.5111 6.33579 11.1753 6.75 11.1753H9.94568C10.3599 11.1753 10.6957 11.5111 10.6957 11.9253C10.6957 12.3395 10.3599 12.6753 9.94568 12.6753H6.75C6.33579 12.6753 6 12.3395 6 11.9253Z" fill="black"/>
<path fill-rule="evenodd" clip-rule="evenodd" d="M7.37012 8.95654C7.37012 8.54233 7.7059 8.20654 8.12012 8.20654H11.3158C11.73 8.20654 12.0658 8.54233 12.0658 8.95654C12.0658 9.37076 11.73 9.70654 11.3158 9.70654H8.12012C7.7059 9.70654 7.37012 9.37076 7.37012 8.95654Z" fill="black"/>
<path fill-rule="evenodd" clip-rule="evenodd" d="M8.51282 11.2364C8.89354 11.3996 9.06991 11.8405 8.90674 12.2212L7.8874 14.5997H11.3913C11.8056 14.5997 12.1413 14.9355 12.1413 15.3497C12.1413 15.7639 11.8056 16.0997 11.3913 16.0997H6.75C6.4979 16.0997 6.26266 15.9731 6.12387 15.7626C5.98509 15.5521 5.96133 15.286 6.06064 15.0543L7.52802 11.6304C7.69119 11.2496 8.1321 11.0733 8.51282 11.2364Z" fill="black"/>
<path fill-rule="evenodd" clip-rule="evenodd" d="M3.7402 3.89737C4.72468 2.84117 6.12669 2.25 7.78216 2.25H16.2169C17.8762 2.25 19.2788 2.84084 20.2629 3.89765C21.2413 4.94841 21.75 6.39889 21.75 8.02638V15.9736C21.75 17.6011 21.2413 19.0516 20.2627 20.1024C19.2785 21.1592 17.8756 21.75 16.2159 21.75H7.78216C6.1228 21.75 4.72038 21.1591 3.73657 20.1023C2.75842 19.0515 2.25 17.601 2.25 15.9736V8.02638C2.25 6.39806 2.76117 4.94771 3.7402 3.89737ZM4.83745 4.92012C4.16024 5.64666 3.75 6.70951 3.75 8.02638V15.9736C3.75 17.2914 4.15861 18.3541 4.83451 19.0802C5.50475 19.8003 6.49341 20.25 7.78216 20.25H16.2159C17.5052 20.25 18.4944 19.8002 19.165 19.0801C19.8412 18.354 20.25 17.2913 20.25 15.9736V8.02638C20.25 6.70868 19.8412 5.64597 19.1651 4.91984C18.4946 4.19975 17.5056 3.75 16.2169 3.75H7.78216C6.49828 3.75 5.50921 4.19943 4.83745 4.92012Z" fill="black"/>
</svg>