<svg width="24" height="24" viewBox="0 0 24 24" fill="none" xmlns="http://www.w3.org/2000/svg">
<path fill-rule="evenodd" clip-rule="evenodd" d="M12 3.75C7.44365 3.75 3.75 7.44365 3.75 12C3.75 16.5563 7.44365 20.25 12 20.25C16.5563 20.25 20.25 16.5563 20.25 12C20.25 7.44365 16.5563 3.75 12 3.75ZM2.25 12C2.25 6.61522 6.61522 2.25 12 2.25C17.3848 2.25 21.75 6.61522 21.75 12C21.75 17.3848 17.3848 21.75 12 21.75C6.61522 21.75 2.25 17.3848 2.25 12Z" fill="black"/>
<path fill-rule="evenodd" clip-rule="evenodd" d="M14.3212 7.93359C14.6144 7.93359 14.8808 8.10451 15.003 8.3711L17.9323 14.7625C18.1049 15.139 17.9396 15.5842 17.563 15.7567C17.1865 15.9293 16.7413 15.764 16.5687 15.3874L14.3212 10.4836L12.0736 15.3874C11.901 15.764 11.4558 15.9293 11.0793 15.7567C10.7027 15.5842 10.5374 15.139 10.71 14.7625L13.6394 8.3711C13.7615 8.10451 14.0279 7.93359 14.3212 7.93359Z" fill="black"/>
<path fill-rule="evenodd" clip-rule="evenodd" d="M13.8369 13.707C13.8369 13.2928 14.1727 12.957 14.5869 12.957H16.5892C17.0034 12.957 17.3392 13.2928 17.3392 13.707C17.3392 14.1212 17.0034 14.457 16.5892 14.457H14.5869C14.1727 14.457 13.8369 14.1212 13.8369 13.707Z" fill="black"/>
<path fill-rule="evenodd" clip-rule="evenodd" d="M6 11.6519C6 11.2376 6.33579 10.9019 6.75 10.9019H9.94568C10.3599 10.9019 10.6957 11.2376 10.6957 11.6519C10.6957 12.0661 10.3599 12.4019 9.94568 12.4019H6.75C6.33579 12.4019 6 12.0661 6 11.6519Z" fill="black"/>
<path fill-rule="evenodd" clip-rule="evenodd" d="M7.37012 8.68311C7.37012 8.26889 7.7059 7.93311 8.12012 7.93311H11.3158C11.73 7.93311 12.0658 8.26889 12.0658 8.68311C12.0658 9.09732 11.73 9.43311 11.3158 9.43311H8.12012C7.7059 9.43311 7.37012 9.09732 7.37012 8.68311Z" fill="black"/>
<path fill-rule="evenodd" clip-rule="evenodd" d="M8.51282 10.963C8.89354 11.1262 9.06991 11.5671 8.90674 11.9478L7.8874 14.3263H11.3913C11.8056 14.3263 12.1413 14.6621 12.1413 15.0763C12.1413 15.4905 11.8056 15.8263 11.3913 15.8263H6.75C6.4979 15.8263 6.26266 15.6996 6.12387 15.4892C5.98509 15.2787 5.96133 15.0126 6.06064 14.7809L7.52802 11.3569C7.69119 10.9762 8.1321 10.7998 8.51282 10.963Z" fill="black"/>
</svg>