<svg width="24" height="25" viewBox="0 0 24 25" fill="none" xmlns="http://www.w3.org/2000/svg">
<path fill-rule="evenodd" clip-rule="evenodd" d="M14.9474 3.18331C14.8924 3.16131 14.8354 3.14131 14.7774 3.12231L14.6454 3.07731C12.2944 2.38531 9.8094 2.64831 7.6534 3.82431C5.4944 5.00031 3.9244 6.94731 3.2314 9.30431C2.4944 11.8133 2.9024 14.5533 4.3514 16.8243C5.7914 19.0803 8.0854 20.5943 10.6434 20.9793C10.6814 20.9843 10.7184 20.9873 10.7564 20.9873C11.1214 20.9873 11.4404 20.7203 11.4974 20.3483C11.5574 19.9383 11.2754 19.5563 10.8664 19.4953C8.53397 19.1459 9.93802 16.6677 8.8164 15.0993C7.6254 13.4353 7.7714 13.0123 7.8684 12.7313C7.9644 12.4543 8.1804 12.2463 8.4564 11.9833C9.1204 11.3473 10.0314 10.4753 9.4324 8.22431C9.2344 7.47331 8.9854 6.80531 8.7864 6.26831C8.6364 5.86431 8.5314 5.63731 8.6474 5.38931C9.2024 4.20231 10.8234 4.19331 12.0774 4.19731C12.8114 4.19931 13.3124 4.92731 13.0474 5.61131C12.1974 7.80731 11.7884 10.1253 12.7694 11.2633C13.0534 11.5933 13.5224 11.9143 14.2704 11.9143C14.6114 11.9143 15.0104 11.8473 15.4774 11.6833C18.1084 10.7573 19.5184 11.0003 20.1244 11.2283C20.1384 11.2333 20.1534 11.2313 20.1684 11.2353C20.2184 11.2513 20.2694 11.2553 20.3224 11.2603C20.3704 11.2643 20.4174 11.2693 20.4644 11.2653C20.4794 11.2633 20.4934 11.2693 20.5094 11.2663C20.5404 11.2613 20.5644 11.2423 20.5944 11.2343C20.6454 11.2193 20.6954 11.2033 20.7424 11.1773C20.7824 11.1553 20.8164 11.1283 20.8524 11.0993C20.8914 11.0683 20.9284 11.0363 20.9604 10.9973C20.9924 10.9593 21.0144 10.9173 21.0374 10.8733C21.0534 10.8443 21.0774 10.8223 21.0904 10.7893C21.0954 10.7743 21.0924 10.7583 21.0974 10.7433C21.1114 10.6973 21.1144 10.6513 21.1204 10.6043C21.1254 10.5503 21.1314 10.4983 21.1254 10.4463C21.1244 10.4313 21.1294 10.4183 21.1274 10.4043C20.5624 6.98831 18.1724 4.21331 14.9474 3.18331Z" fill="black"/>
<path fill-rule="evenodd" clip-rule="evenodd" d="M17.423 13.9971C16.956 13.9971 14.627 14.7701 14.256 15.1471C13.947 15.4631 13.95 15.6391 13.967 16.4811C13.975 16.8381 13.985 17.3511 13.985 18.1061C13.985 20.8951 17.144 21.8841 17.278 21.9251C17.325 21.9391 17.374 21.9461 17.423 21.9461C17.472 21.9461 17.521 21.9391 17.568 21.9251C17.702 21.8841 20.863 20.8951 20.863 18.1061C20.863 17.3551 20.873 16.8431 20.88 16.4861C20.898 15.6271 20.901 15.4481 20.59 15.1471C20.223 14.7711 17.893 13.9971 17.423 13.9971Z" fill="black"/>
</svg>