<svg width="25" height="25" viewBox="0 0 25 25" fill="none" xmlns="http://www.w3.org/2000/svg">
<path d="M11.0007 20.1108C6.06571 19.3698 2.78269 14.2028 4.19669 9.39184C5.50969 4.91584 10.2037 2.35188 14.6797 3.67388C14.7527 3.70088 14.8337 3.71988 14.9067 3.74688C17.9967 4.74288 20.1337 7.37988 20.6327 10.3979" stroke="black" stroke-width="1.5" stroke-linecap="round" stroke-linejoin="round"/>
<path d="M8.44592 19.2266C8.44592 19.2266 9.66894 17.1056 8.45194 15.4066C7.23594 13.7096 7.18094 13.0117 7.40494 12.3607C7.86294 11.0337 9.68492 11.0396 8.95392 8.28664C8.81141 7.74972 8.64355 7.26001 8.48368 6.82031" stroke="black" stroke-width="1.5" stroke-linecap="round" stroke-linejoin="round"/>
<path d="M20.6336 10.3944C19.8086 10.0884 18.2007 9.88945 15.4747 10.8465C12.9133 11.747 12.735 9.28812 13.8015 6.25586" stroke="black" stroke-width="1.5" stroke-linecap="round" stroke-linejoin="round"/>
<path d="M20.4789 15.3681C20.4789 15.3681 18.0549 14.3691 17.6689 14.3691C17.2839 14.3691 15.0959 15.1291 14.8589 15.3681C14.6239 15.6051 14.7299 15.5261 14.7299 17.9801C14.7299 20.4331 17.6689 21.3231 17.6689 21.3231C17.6689 21.3231 20.6089 20.4341 20.6089 17.9801" stroke="black" stroke-width="1.5" stroke-linecap="round" stroke-linejoin="round"/>
</svg>