<svg width="24" height="25" viewBox="0 0 24 25" fill="none" xmlns="http://www.w3.org/2000/svg">
<path d="M10.7507 20.0698C5.81571 19.3288 2.53269 14.1618 3.94669 9.35083C5.25969 4.87483 9.9537 2.31087 14.4297 3.63287C14.5027 3.65987 14.5837 3.67887 14.6567 3.70587C17.7467 4.70187 19.8837 7.33887 20.3827 10.3569" stroke="black" stroke-width="1.5" stroke-linecap="round" stroke-linejoin="round"/>
<path d="M8.19592 19.1863C8.19592 19.1863 9.41894 17.0653 8.20194 15.3663C6.98594 13.6693 6.93094 12.9714 7.15494 12.3204C7.61294 10.9934 9.43492 10.9993 8.70392 8.24634C8.22192 6.43034 7.44992 5.15434 7.67792 4.52734" stroke="black" stroke-width="1.5" stroke-linecap="round" stroke-linejoin="round"/>
<path d="M20.3836 10.354C19.5586 10.048 17.9507 9.84903 15.2247 10.806C11.9767 11.948 12.5607 7.68803 14.6557 3.70703" stroke="black" stroke-width="1.5" stroke-linecap="round" stroke-linejoin="round"/>
<path fill-rule="evenodd" clip-rule="evenodd" d="M17.4189 21.2821C17.4189 21.2821 14.4799 20.3921 14.4799 17.9391C14.4799 15.4851 14.3739 15.5641 14.6089 15.3271C14.8459 15.0881 17.0339 14.3281 17.4189 14.3281C17.8049 14.3281 19.9939 15.0901 20.2289 15.3271C20.4659 15.5621 20.3589 15.4851 20.3589 17.9391C20.3589 20.3931 17.4189 21.2821 17.4189 21.2821Z" stroke="black" stroke-width="1.5" stroke-linecap="round" stroke-linejoin="round"/>
</svg>