<svg width="25" height="25" viewBox="0 0 25 25" fill="none" xmlns="http://www.w3.org/2000/svg">
<circle cx="12.1143" cy="12.6128" r="5.5" stroke="black" stroke-width="1.5" stroke-linecap="round"/>
<path d="M6.61426 12.5489C8.10705 12.0626 7.74852 13.3131 8.69065 13.6908C9.70251 14.1265 11.1662 13.5952 10.837 12.5438C10.7918 12.3996 10.7205 12.2536 10.6156 12.1094C10.4981 11.9477 10.3545 11.8029 10.2618 11.6259C10.1736 11.4573 10.118 11.295 10.0844 11.1463C9.96927 10.6382 10.2698 10.1675 10.582 9.75034C10.7772 9.4895 10.9577 9.21219 10.9688 9.06618C11.0021 8.62785 10.6987 8.10705 10.4193 7.45264" stroke="black" stroke-width="1.5" stroke-linecap="round" stroke-linejoin="round"/>
<path d="M17.5597 12.1516C16.3039 12.5607 15.6514 11.4065 14.5753 11.1708C13.1497 10.8584 12.9156 12.2861 13.8678 13.2385C15.493 15.2579 12.2396 16.2053 13.3975 17.9247" stroke="black" stroke-width="1.5" stroke-linecap="round" stroke-linejoin="round"/>
<path opacity="0.4" d="M21.1141 13.8367C20.9495 14.9956 20.5653 16.0839 20.0049 17.0579" stroke="black" stroke-width="1.5" stroke-linecap="round"/>
<path opacity="0.4" d="M17.028 4.92839C16.0488 4.3016 14.9407 3.85829 13.7524 3.64697" stroke="black" stroke-width="1.5" stroke-linecap="round"/>
<path opacity="0.4" d="M19.3562 7.07324C20.1526 8.11774 20.7268 9.34074 21.0084 10.6718" stroke="black" stroke-width="1.5" stroke-linecap="round"/>
<path opacity="0.4" d="M6.09894 5.83548C7.17182 4.86723 8.47779 4.15235 9.92253 3.78516" stroke="black" stroke-width="1.5" stroke-linecap="round"/>
<path opacity="0.4" d="M3.11404 12.329C3.14943 10.8766 3.52713 9.50903 4.16955 8.30396" stroke="black" stroke-width="1.5" stroke-linecap="round"/>
<path opacity="0.4" d="M5.55726 18.74C4.63329 17.7545 3.92745 16.5621 3.51682 15.2397" stroke="black" stroke-width="1.5" stroke-linecap="round"/>
<path opacity="0.4" d="M11.5266 21.5784C10.248 21.4903 9.04249 21.1365 7.96484 20.5718" stroke="black" stroke-width="1.5" stroke-linecap="round"/>
<path opacity="0.4" d="M17.7758 19.6445C16.9608 20.291 16.0319 20.8 15.0239 21.1364" stroke="black" stroke-width="1.5" stroke-linecap="round"/>
</svg>