<svg width="25" height="25" viewBox="0 0 25 25" fill="none" xmlns="http://www.w3.org/2000/svg">
<path opacity="0.4" d="M12.0002 3.14612C5.06324 3.14612 2.75024 5.45912 2.75024 12.3961C2.75024 19.3331 5.06324 21.6461 12.0002 21.6461C18.9372 21.6461 21.2502 19.3331 21.2502 12.3961" stroke="black" stroke-width="1.5" stroke-linecap="round" stroke-linejoin="round"/>
<path fill-rule="evenodd" clip-rule="evenodd" d="M19.5285 4.69988V4.69988C18.5355 3.82088 17.0185 3.91288 16.1395 4.90588C16.1395 4.90588 11.7705 9.84088 10.2555 11.5539C8.73853 13.2659 9.85053 15.6309 9.85053 15.6309C9.85053 15.6309 12.3545 16.4239 13.8485 14.7359C15.3435 13.0479 19.7345 8.08888 19.7345 8.08888C20.6135 7.09588 20.5205 5.57888 19.5285 4.69988Z" stroke="black" stroke-width="1.5" stroke-linecap="round" stroke-linejoin="round"/>
<path d="M15.009 6.19678L18.604 9.37978" stroke="black" stroke-width="1.5" stroke-linecap="round" stroke-linejoin="round"/>
</svg>