<svg width="25" height="25" viewBox="0 0 25 25" fill="none" xmlns="http://www.w3.org/2000/svg">
<path fill-rule="evenodd" clip-rule="evenodd" d="M19.8585 19.3518H13.4815C13.0675 19.3518 12.7315 19.6878 12.7315 20.1018C12.7315 20.5158 13.0675 20.8518 13.4815 20.8518H19.8585C20.2725 20.8518 20.6085 20.5158 20.6085 20.1018C20.6085 19.6878 20.2725 19.3518 19.8585 19.3518Z" fill="black"/>
<path fill-rule="evenodd" clip-rule="evenodd" d="M9.61667 8.34336C9.71611 8.2111 9.90387 8.18434 10.0363 8.28355L15.2163 12.164C15.349 12.2634 15.3759 12.4516 15.2763 12.5842L10.4566 19.004C9.29664 20.554 7.54664 20.864 6.33664 20.864C5.58664 20.864 5.04664 20.744 4.98664 20.734C4.85664 20.704 4.73664 20.614 4.66664 20.494C4.59664 20.364 2.87664 17.304 4.79664 14.754L9.61667 8.34336Z" fill="black"/>
<path fill-rule="evenodd" clip-rule="evenodd" d="M17.2066 10.014L16.5366 10.9047C16.4372 11.0369 16.2494 11.0637 16.117 10.9645L10.9362 7.08345C10.8038 6.98428 10.7767 6.79665 10.8756 6.66403L11.5466 5.76399C12.2366 4.83399 13.3066 4.34399 14.3866 4.34399C15.1266 4.34399 15.8666 4.57399 16.5066 5.05399C17.2566 5.62399 17.7466 6.45399 17.8866 7.38399C18.0166 8.32399 17.7766 9.25399 17.2066 10.014Z" fill="black"/>
</svg>