<?xml version="1.0" encoding="UTF-8"?>
<svg width="24px" height="24px" viewBox="0 0 24 24" version="1.1" xmlns="http://www.w3.org/2000/svg" xmlns:xlink="http://www.w3.org/1999/xlink">
    <title>Iconly/Light-Outline/Edit</title>
    <g id="Iconly/Light-Outline/Edit" stroke="none" stroke-width="1" fill="none" fill-rule="evenodd">
        <g id="Edit" transform="translate(2.000000, 3.000000)" fill="#000000">
            <path d="M18.7504743,17.4395426 C19.1644743,17.4395426 19.5004743,17.7755426 19.5004743,18.1895426 C19.5004743,18.6035426 19.1644743,18.9395426 18.7504743,18.9395426 L11.4974743,18.9395426 C11.0834743,18.9395426 10.7474743,18.6035426 10.7474743,18.1895426 C10.7474743,17.7755426 11.0834743,17.4395426 11.4974743,17.4395426 L18.7504743,17.4395426 Z M14.1162743,0.653642644 C14.1662743,0.692642644 15.8392743,1.99264264 15.8392743,1.99264264 C16.4472743,2.35464264 16.9222743,3.00164264 17.1022743,3.76764264 C17.2812743,4.52564264 17.1512743,5.30764264 16.7342743,5.96864264 C16.7314843,5.97305264 16.7287267,5.97740594 16.7190724,5.99036671 L16.7115384,6.00037748 C16.6438514,6.08958254 16.3496103,6.46163507 14.8645637,8.32222949 C14.8507703,8.34661541 14.8351388,8.36945203 14.8180743,8.39164264 C14.7930299,8.42435375 14.7657794,8.45442349 14.736689,8.48180241 C14.6353903,8.60933705 14.5284065,8.74334814 14.4159195,8.88423852 L14.1879908,9.16970248 C13.7176954,9.7586788 13.1598596,10.4570865 12.4980586,11.2854628 L12.1584183,11.7105768 C10.8807459,13.3097378 9.24443431,15.3572426 7.14827431,17.9796426 C6.68927431,18.5516426 6.00127431,18.8846426 5.26227431,18.8936426 L1.62327431,18.9396426 L1.61327431,18.9396426 C1.26627431,18.9396426 0.964274306,18.7016426 0.883274306,18.3626426 L0.0642743057,14.8916426 C-0.104725694,14.1726426 0.0632743057,13.4306426 0.524274306,12.8546426 L9.94427431,1.07264264 C9.94827431,1.06864264 9.95127431,1.06364264 9.95527431,1.05964264 C10.9882743,-0.175357356 12.8562743,-0.357357356 14.1162743,0.653642644 Z M8.894,4.787 L1.69527431,13.7916426 C1.52427431,14.0056426 1.46127431,14.2816426 1.52427431,14.5466426 L2.20527431,17.4316426 L5.24427431,17.3936426 C5.53327431,17.3906426 5.80027431,17.2616426 5.97727431,17.0416426 C6.88875764,15.901226 8.03433097,14.4678757 9.21212914,12.9940199 L9.62883197,12.4725647 L9.62883197,12.4725647 L10.0462387,11.9502119 C11.1508202,10.5678883 12.2420592,9.20206663 13.1551253,8.05886375 L8.894,4.787 Z M11.1102743,2.01664264 L9.831,3.615 L14.0917742,6.88592888 C14.9118863,5.85869797 15.4513975,5.1821385 15.5012743,5.11764264 C15.6652743,4.85164264 15.7292743,4.47564264 15.6432743,4.11364264 C15.5552743,3.74264264 15.3242743,3.42764264 14.9912743,3.22664264 C14.9202743,3.17764264 13.2352743,1.86964264 13.1832743,1.82864264 C12.5492743,1.32064264 11.6242743,1.40864264 11.1102743,2.01664264 Z" id="Combined-Shape"></path>
        </g>
    </g>
</svg>