<svg width="25" height="25" viewBox="0 0 25 25" fill="none" xmlns="http://www.w3.org/2000/svg">
<path fill-rule="evenodd" clip-rule="evenodd" d="M9.61691 8.34324C9.71636 8.21098 9.90412 8.18421 10.0366 8.28343L15.2165 12.1638C15.3492 12.2632 15.3761 12.4514 15.2766 12.584L10.4569 19.0039C9.29688 20.5539 7.54688 20.8639 6.33688 20.8639C5.58688 20.8639 5.04688 20.7439 4.98688 20.7339C4.85688 20.7039 4.73688 20.6139 4.66688 20.4939C4.59688 20.3639 2.87688 17.3039 4.79688 14.7539L9.61691 8.34324Z" fill="black"/>
<path opacity="0.4" fill-rule="evenodd" clip-rule="evenodd" d="M17.2065 10.0141L16.5365 10.9048C16.437 11.0371 16.2493 11.0638 16.1169 10.9646L10.9361 7.08358C10.8037 6.9844 10.7765 6.79677 10.8754 6.66415L11.5465 5.76412C12.2365 4.83412 13.3065 4.34412 14.3865 4.34412C15.1265 4.34412 15.8665 4.57412 16.5065 5.05412C17.2565 5.62412 17.7465 6.45412 17.8865 7.38412C18.0165 8.32412 17.7765 9.25412 17.2065 10.0141Z" fill="black"/>
<path opacity="0.4" fill-rule="evenodd" clip-rule="evenodd" d="M19.8584 19.3519H13.4814C13.0674 19.3519 12.7314 19.6879 12.7314 20.1019C12.7314 20.5159 13.0674 20.8519 13.4814 20.8519H19.8584C20.2724 20.8519 20.6084 20.5159 20.6084 20.1019C20.6084 19.6879 20.2724 19.3519 19.8584 19.3519Z" fill="black"/>
</svg>