<svg width="25" height="25" viewBox="0 0 25 25" fill="none" xmlns="http://www.w3.org/2000/svg">
<path d="M12 22.396C4.617 22.396 2 19.779 2 12.396C2 5.013 4.617 2.396 12 2.396C12.414 2.396 12.75 2.732 12.75 3.146C12.75 3.56 12.414 3.896 12 3.896C5.486 3.896 3.5 5.882 3.5 12.396C3.5 18.91 5.486 20.896 12 20.896C18.514 20.896 20.5 18.91 20.5 12.396C20.5 11.982 20.836 11.646 21.25 11.646C21.664 11.646 22 11.982 22 12.396C22 19.779 19.383 22.396 12 22.396Z" fill="black"/>
<path fill-rule="evenodd" clip-rule="evenodd" d="M19.2365 9.78194L20.2952 8.58659C21.4472 7.28559 21.3252 5.29059 20.0252 4.13759C19.3952 3.57959 18.5812 3.29959 17.7452 3.35159C16.9052 3.40259 16.1352 3.77859 15.5772 4.40859L9.6932 11.0566C7.8692 13.1146 9.1172 15.8356 9.1712 15.9506C9.2602 16.1396 9.4242 16.2836 9.6232 16.3456C9.6802 16.3646 10.3442 16.5676 11.2192 16.5676C12.2042 16.5676 13.4572 16.3086 14.4092 15.2326L19.0774 9.96158C19.1082 9.93633 19.1374 9.90825 19.1646 9.87738C19.1915 9.84705 19.2155 9.81512 19.2365 9.78194ZM10.4082 14.9916C11.0352 15.1056 12.4192 15.2176 13.2862 14.2386L17.5371 9.43886L15.0656 7.24998L10.8172 12.0516C9.9292 13.0526 10.2122 14.3876 10.4082 14.9916ZM16.0596 6.12663L18.5322 8.31526L19.1722 7.59259C19.7752 6.91059 19.7122 5.86459 19.0312 5.26159C18.7002 4.96959 18.2712 4.82059 17.8362 4.84859C17.3962 4.87659 16.9932 5.07259 16.7002 5.40259L16.0596 6.12663Z" fill="black"/>
</svg>