<svg width="25" height="24" viewBox="0 0 25 24" fill="none" xmlns="http://www.w3.org/2000/svg">
<path d="M6.40332 8.27103C6.40332 10.8672 8.5079 12.9717 11.104 12.9717C13.7002 12.9717 15.8047 10.8672 15.8047 8.27103C15.8047 5.67489 13.7002 3.57031 11.104 3.57031C9.64883 3.57031 8.34806 4.23155 7.48582 5.26996" stroke="black" stroke-width="1.5" stroke-linecap="round" stroke-linejoin="round"/>
<path d="M4.68869 19.5969C4.57784 18.9587 4.62363 18.2973 4.62363 17.6527C4.62363 15.2233 6.59303 13.2539 9.02241 13.2539H13.3058C13.6322 13.2539 13.9504 13.2895 14.2566 13.3569" stroke="black" stroke-width="1.5" stroke-linecap="round" stroke-linejoin="round"/>
<path d="M19.9107 16.4756C20.3 16.0548 20.2745 15.3984 19.8545 15.0091L19.1595 14.366C18.7386 13.9767 18.0822 14.0022 17.693 14.4222L14.717 17.7005C14.4639 17.9825 14.3066 18.3366 14.2662 18.7136L14.1819 19.493C14.1212 20.0509 14.6098 20.5122 15.1633 20.4191L15.919 20.2925C16.3249 20.224 16.6957 20.0202 16.9707 19.7126L18.0737 18.4982" stroke="black" stroke-width="1.5" stroke-linecap="round" stroke-linejoin="round"/>
</svg>