<svg width="25" height="25" viewBox="0 0 25 25" fill="none" xmlns="http://www.w3.org/2000/svg">
<path fill-rule="evenodd" clip-rule="evenodd" d="M12.0489 3.94531C15.2871 3.94531 17.9123 6.5705 17.9123 9.80868C17.9123 13.0469 15.2871 15.672 12.0489 15.672C8.81073 15.672 6.18555 13.0469 6.18555 9.80868C6.18555 6.5705 8.81073 3.94531 12.0489 3.94531Z" stroke="black" stroke-width="1.5" stroke-linecap="round" stroke-linejoin="round"/>
<path fill-rule="evenodd" clip-rule="evenodd" d="M9.04891 9.94531C12.2871 9.94531 14.9123 12.5705 14.9123 15.8087C14.9123 19.0469 12.2871 21.672 9.04891 21.672C5.81073 21.672 3.18555 19.0469 3.18555 15.8087C3.18555 12.5705 5.81073 9.94531 9.04891 9.94531Z" stroke="black" stroke-width="1.5" stroke-linecap="round" stroke-linejoin="round"/>
<path fill-rule="evenodd" clip-rule="evenodd" d="M15.0489 9.94531C18.2871 9.94531 20.9123 12.5705 20.9123 15.8087C20.9123 19.0469 18.2871 21.672 15.0489 21.672C11.8107 21.672 9.18555 19.0469 9.18555 15.8087C9.18555 12.5705 11.8107 9.94531 15.0489 9.94531Z" stroke="black" stroke-width="1.5" stroke-linecap="round" stroke-linejoin="round"/>
</svg>