<svg width="25" height="25" viewBox="0 0 25 25" fill="none" xmlns="http://www.w3.org/2000/svg">
<path fill-rule="evenodd" clip-rule="evenodd" d="M12.2989 4.69531C9.47495 4.69531 7.18555 6.98471 7.18555 9.80868C7.18555 12.6326 9.47495 14.922 12.2989 14.922C15.1229 14.922 17.4123 12.6326 17.4123 9.80868C17.4123 6.98471 15.1229 4.69531 12.2989 4.69531ZM5.68555 9.80868C5.68555 6.15628 8.64652 3.19531 12.2989 3.19531C15.9513 3.19531 18.9123 6.15628 18.9123 9.80868C18.9123 13.4611 15.9513 16.422 12.2989 16.422C8.64652 16.422 5.68555 13.4611 5.68555 9.80868Z" fill="black"/>
<path fill-rule="evenodd" clip-rule="evenodd" d="M9.29891 10.6953C6.47495 10.6953 4.18555 12.9847 4.18555 15.8087C4.18555 18.6326 6.47495 20.922 9.29891 20.922C12.1229 20.922 14.4123 18.6326 14.4123 15.8087C14.4123 12.9847 12.1229 10.6953 9.29891 10.6953ZM2.68555 15.8087C2.68555 12.1563 5.64652 9.19531 9.29891 9.19531C12.9513 9.19531 15.9123 12.1563 15.9123 15.8087C15.9123 19.4611 12.9513 22.422 9.29891 22.422C5.64652 22.422 2.68555 19.4611 2.68555 15.8087Z" fill="black"/>
<path fill-rule="evenodd" clip-rule="evenodd" d="M15.2989 10.6953C12.4749 10.6953 10.1855 12.9847 10.1855 15.8087C10.1855 18.6326 12.4749 20.922 15.2989 20.922C18.1229 20.922 20.4123 18.6326 20.4123 15.8087C20.4123 12.9847 18.1229 10.6953 15.2989 10.6953ZM8.68555 15.8087C8.68555 12.1563 11.6465 9.19531 15.2989 9.19531C18.9513 9.19531 21.9123 12.1563 21.9123 15.8087C21.9123 19.4611 18.9513 22.422 15.2989 22.422C11.6465 22.422 8.68555 19.4611 8.68555 15.8087Z" fill="black"/>
</svg>