<svg width="25" height="24" viewBox="0 0 25 24" fill="none" xmlns="http://www.w3.org/2000/svg">
<path opacity="0.4" d="M13.0597 21.9858C17.4307 21.6883 20.8325 18.0225 20.7979 14.0301C20.7698 12.3146 20.5135 11.0166 20.0786 9.75859C19.2317 7.3032 18.0234 5.06739 15.9791 3.38972C13.7303 1.54331 11.3376 1.53033 9.06939 3.34321C7.27382 4.7775 6.12508 6.6834 5.27597 8.77968C4.49176 10.7159 4.00934 12.7148 4.27435 14.823C4.81085 19.1107 8.71135 22.2822 13.0597 21.9858Z" fill="black"/>
<path fill-rule="evenodd" clip-rule="evenodd" d="M10.9822 7.23435C11.3296 7.45993 11.4284 7.92442 11.2028 8.27182C10.5748 9.23903 10.1017 10.2758 9.80416 11.3961C9.69783 11.7964 9.28711 12.0348 8.88677 11.9285C8.48644 11.8221 8.24809 11.4114 8.35442 11.0111C8.69516 9.7281 9.23594 8.54652 9.94476 7.45492C10.1703 7.10752 10.6348 7.00877 10.9822 7.23435Z" fill="black"/>
</svg>