<svg width="25" height="25" viewBox="0 0 25 25" fill="none" xmlns="http://www.w3.org/2000/svg">
<path fill-rule="evenodd" clip-rule="evenodd" d="M12.2749 5.47803C12.2749 5.06381 12.6107 4.72803 13.0249 4.72803H14.9528C15.7593 4.72803 16.4613 5.27914 16.6528 6.06254L19.1601 16.3214C19.2585 16.7238 19.012 17.1297 18.6097 17.228C18.2073 17.3264 17.8014 17.0799 17.703 16.6775L15.1956 6.41867C15.1683 6.30676 15.068 6.22803 14.9528 6.22803H13.0249C12.6107 6.22803 12.2749 5.89224 12.2749 5.47803Z" fill="black"/>
<path fill-rule="evenodd" clip-rule="evenodd" d="M4.52393 13.7573C4.52393 13.3431 4.85971 13.0073 5.27393 13.0073C7.91981 13.0073 10.1165 14.9434 10.481 17.4932H14.0191C14.2747 15.709 15.4297 14.2342 17.0016 13.4997C17.0123 13.4947 17.023 13.49 17.0339 13.4855L17.5152 13.2876C17.8983 13.1301 18.3365 13.313 18.494 13.6961C18.6515 14.0792 18.4686 14.5175 18.0855 14.675L17.6213 14.8658C16.3416 15.4706 15.4659 16.7464 15.4659 18.2432C15.4659 18.6574 15.1302 18.9932 14.7159 18.9932H9.78408C9.36987 18.9932 9.03408 18.6574 9.03408 18.2432C9.03408 16.1718 7.3559 14.5073 5.27393 14.5073C4.85971 14.5073 4.52393 14.1715 4.52393 13.7573Z" fill="black"/>
<path fill-rule="evenodd" clip-rule="evenodd" d="M5.23087 17.0797C4.55108 17.0797 4 17.6308 4 18.3106C4 18.9904 4.55108 19.5415 5.23087 19.5415C5.91066 19.5415 6.46174 18.9904 6.46174 18.3106C6.46174 17.6308 5.91066 17.0797 5.23087 17.0797ZM2.5 18.3106C2.5 16.8024 3.72265 15.5797 5.23087 15.5797C6.73909 15.5797 7.96174 16.8024 7.96174 18.3106C7.96174 19.8188 6.73909 21.0415 5.23087 21.0415C3.72265 21.0415 2.5 19.8188 2.5 18.3106Z" fill="black"/>
<path fill-rule="evenodd" clip-rule="evenodd" d="M19.269 17.0797C18.5892 17.0797 18.0381 17.6308 18.0381 18.3106C18.0381 18.9904 18.5892 19.5415 19.269 19.5415C19.9487 19.5415 20.4998 18.9904 20.4998 18.3106C20.4998 17.6308 19.9487 17.0797 19.269 17.0797ZM16.5381 18.3106C16.5381 16.8024 17.7607 15.5797 19.269 15.5797C20.7772 15.5797 21.9998 16.8024 21.9998 18.3106C21.9998 19.8188 20.7772 21.0415 19.269 21.0415C17.7607 21.0415 16.5381 19.8188 16.5381 18.3106Z" fill="black"/>
</svg>