<svg width="25" height="24" viewBox="0 0 25 24" fill="none" xmlns="http://www.w3.org/2000/svg">
<path d="M15.407 20.6697H7.39303C6.7336 20.7058 6.0738 20.606 5.45453 20.3765C4.83525 20.147 4.26972 19.7928 3.79303 19.3357C3.36213 18.8862 3.02583 18.3549 2.80407 17.7731C2.58231 17.1913 2.47962 16.5709 2.50204 15.9487V10.6657C2.50203 10.0677 2.65524 9.47964 2.94705 8.95767C3.20734 8.48715 3.57116 8.08194 4.01104 7.77267L9.57803 3.89767C10.1093 3.52386 10.743 3.32324 11.3925 3.32324C12.0421 3.32324 12.6758 3.52386 13.207 3.89767L15.595 5.55368C15.7585 5.66719 15.8703 5.84101 15.9056 6.0369C15.941 6.23278 15.897 6.43467 15.7835 6.59818C15.67 6.76168 15.4962 6.8734 15.3003 6.90875C15.1044 6.9441 14.9025 6.90019 14.739 6.78668L12.347 5.12668C12.068 4.92948 11.7347 4.82361 11.393 4.82361C11.0514 4.82361 10.7181 4.92948 10.439 5.12668L4.86804 9.00468C4.6153 9.18359 4.40641 9.41744 4.25705 9.68867C4.08853 9.98699 4.00064 10.3241 4.00204 10.6667V15.9497C3.98175 16.374 4.0465 16.7981 4.19247 17.197C4.33844 17.5959 4.5627 17.9617 4.85205 18.2727C5.19149 18.5819 5.58892 18.8207 6.02133 18.9752C6.45373 19.1296 6.91249 19.1968 7.37103 19.1727H15.405C15.8645 19.197 16.3242 19.13 16.7576 18.9755C17.191 18.821 17.5895 18.5821 17.93 18.2727C18.219 17.9615 18.443 17.5957 18.5887 17.1968C18.7345 16.7979 18.7992 16.3739 18.779 15.9497V14.4187C18.779 14.2198 18.8581 14.029 18.9987 13.8884C19.1394 13.7477 19.3301 13.6687 19.529 13.6687C19.728 13.6687 19.9187 13.7477 20.0594 13.8884C20.2 14.029 20.279 14.2198 20.279 14.4187V15.9497C20.3015 16.5718 20.1988 17.192 19.977 17.7737C19.7553 18.3553 19.4189 18.8865 18.988 19.3357C18.5099 19.7851 17.9469 20.1346 17.332 20.3637C16.7171 20.5927 16.0627 20.6968 15.407 20.6697V20.6697Z" fill="black"/>
<path d="M11.4182 15.5077C10.5604 15.5066 9.72811 15.2159 9.05617 14.6827L3.13316 9.9087C2.98085 9.78308 2.88422 9.60248 2.86421 9.40607C2.84421 9.20966 2.90246 9.0133 3.02632 8.85956C3.15018 8.70582 3.32967 8.60711 3.52583 8.58486C3.722 8.56261 3.91903 8.61861 4.07417 8.7407L9.99016 13.5097C10.3965 13.8316 10.8998 14.0067 11.4182 14.0067C11.9366 14.0067 12.4398 13.8316 12.8462 13.5097L13.5252 12.9597C13.6798 12.8345 13.8778 12.7759 14.0757 12.7967C14.2735 12.8175 14.455 12.9161 14.5802 13.0707C14.7053 13.2253 14.764 13.4233 14.7432 13.6212C14.7224 13.819 14.6238 14.0005 14.4692 14.1257L13.7842 14.6787C13.1123 15.2154 12.278 15.5077 11.4182 15.5077V15.5077Z" fill="black"/>
<path d="M16.9399 15.4638C15.9387 15.4638 14.96 15.1669 14.1275 14.6107C13.2951 14.0544 12.6463 13.2638 12.2632 12.3388C11.8801 11.4137 11.7799 10.3959 11.9753 9.41392C12.1707 8.43196 12.6529 7.53 13.3609 6.82211C14.069 6.11422 14.971 5.6322 15.953 5.43699C16.935 5.24179 17.9528 5.34216 18.8778 5.72544C19.8027 6.10873 20.5932 6.75769 21.1493 7.59027C21.7054 8.42284 22.0021 9.40163 22.0019 10.4028C22.0004 11.7448 21.4665 13.0313 20.5175 13.9801C19.5685 14.9289 18.2819 15.4625 16.9399 15.4638V15.4638ZM16.9399 6.84085C16.2354 6.84085 15.5468 7.04975 14.961 7.44114C14.3752 7.83254 13.9187 8.38886 13.6491 9.03973C13.3795 9.6906 13.3089 10.4068 13.4464 11.0978C13.5838 11.7887 13.9231 12.4234 14.4212 12.9216C14.9194 13.4197 15.5541 13.759 16.245 13.8964C16.936 14.0338 17.6522 13.9633 18.3031 13.6937C18.9539 13.4241 19.5102 12.9676 19.9016 12.3818C20.293 11.796 20.5019 11.1073 20.5019 10.4028C20.5011 9.45839 20.1256 8.55284 19.4578 7.88501C18.7899 7.21717 17.8844 6.84164 16.9399 6.84085Z" fill="black"/>
<path d="M17.1805 11.8218C17.0819 11.8219 16.9842 11.8025 16.8931 11.7648C16.8019 11.727 16.7192 11.6716 16.6495 11.6018L15.1755 10.1258C15.1038 10.0567 15.0467 9.97391 15.0073 9.88243C14.968 9.79094 14.9472 9.69253 14.9463 9.59295C14.9454 9.49337 14.9643 9.3946 15.002 9.30241C15.0397 9.21022 15.0953 9.12646 15.1657 9.05601C15.2361 8.98556 15.3198 8.92982 15.412 8.89207C15.5041 8.85432 15.6029 8.8353 15.7025 8.83612C15.802 8.83693 15.9005 8.85757 15.992 8.89683C16.0835 8.93609 16.1663 8.9932 16.2355 9.0648L17.1805 10.0098L19.6885 7.5018C19.8299 7.36511 20.0193 7.28943 20.216 7.29104C20.4126 7.29266 20.6008 7.37144 20.7399 7.51043C20.879 7.64942 20.958 7.8375 20.9598 8.03414C20.9616 8.23079 20.8861 8.42028 20.7495 8.56179L17.7105 11.6018C17.641 11.6715 17.5584 11.7268 17.4674 11.7646C17.3765 11.8023 17.279 11.8218 17.1805 11.8218V11.8218Z" fill="black"/>
</svg>