<svg width="24" height="24" viewBox="0 0 24 24" fill="none" xmlns="http://www.w3.org/2000/svg">
<path d="M20.3143 10.3924V8.77526C20.3143 6.11705 18.5396 3.95312 15.9067 3.95312H7.40667C4.77473 3.95312 3 6.11705 3 8.77526V14.7212C3 17.3813 4.77473 19.5433 7.40667 19.5365H11.5779" stroke="black" stroke-width="1.5" stroke-linecap="round" stroke-linejoin="round"/>
<path d="M16.7662 9.01855L12.92 12.1467C12.1951 12.7227 11.1686 12.7227 10.4438 12.1467L6.56445 9.01855" stroke="black" stroke-width="1.5" stroke-linecap="round" stroke-linejoin="round"/>
<path fill-rule="evenodd" clip-rule="evenodd" d="M14.97 17.0038C14.6227 15.9179 15.0284 14.6784 16.1678 14.3115C16.7671 14.1208 17.4219 14.2308 17.925 14.6083C18.429 14.2337 19.0819 14.1237 19.6803 14.3115C20.8186 14.6784 21.2283 15.9179 20.8809 17.0038C20.3399 18.7221 17.925 20.0473 17.925 20.0473C17.925 20.0473 15.5295 18.7425 14.97 17.0038Z" stroke="black" stroke-width="1.5" stroke-linecap="round" stroke-linejoin="round"/>
</svg>