<svg width="25" height="24" viewBox="0 0 25 24" fill="none" xmlns="http://www.w3.org/2000/svg">
<path d="M19.7772 14.4215V15.952C19.7772 18.4506 18.1085 19.9315 15.6342 19.9228H7.64202C5.16868 19.9315 3.5 18.4506 3.5 15.952V10.6696C3.5 10.189 3.62162 9.73363 3.85028 9.32692C4.05363 8.9601 4.33774 8.63512 4.68802 8.3909L10.2555 4.51645C11.0854 3.93071 12.1917 3.93071 13.0217 4.51645L15.4152 6.17735" stroke="black" stroke-width="1.5" stroke-linecap="round" stroke-linejoin="round"/>
<path opacity="0.4" d="M3.85352 9.32812L9.77027 14.0968C10.8853 14.9763 12.4557 14.9763 13.563 14.0968L14.247 13.5441" stroke="black" stroke-width="1.5" stroke-linecap="round" stroke-linejoin="round"/>
<path d="M17.1893 6.09473C19.5702 6.09473 21.5006 8.02514 21.5006 10.406C21.5006 12.787 19.5702 14.7174 17.1893 14.7174C14.8083 14.7174 12.8789 12.787 12.8789 10.406C12.8789 8.02514 14.8083 6.09473 17.1893 6.09473Z" stroke="black" stroke-width="1.5" stroke-linecap="round" stroke-linejoin="round"/>
<path opacity="0.4" d="M15.9551 9.59778L17.4301 11.0748L20.4688 8.03516" stroke="black" stroke-width="1.5" stroke-linecap="round" stroke-linejoin="round"/>
</svg>