<svg width="24" height="24" viewBox="0 0 24 24" fill="none" xmlns="http://www.w3.org/2000/svg">
<path d="M11.5649 19.5643H7.40065C4.77174 19.5721 3 17.4121 3 14.7569V8.82098C3 6.16678 4.77174 4.00586 7.40065 4.00586H8.25958" stroke="black" stroke-width="1.5" stroke-linecap="round" stroke-linejoin="round"/>
<path d="M20.2872 10.4351V8.82098C20.2872 6.16678 18.5155 4.00586 15.8866 4.00586H11.6436" stroke="black" stroke-width="1.5" stroke-linecap="round" stroke-linejoin="round"/>
<path d="M16.3656 14.3267C15.4822 14.8618 14.8926 15.8319 14.8926 16.9401C14.8926 18.6262 16.2596 19.9932 17.9457 19.9932C19.6328 19.9932 20.9998 18.6262 20.9998 16.9401C20.9998 15.7463 20.3148 14.713 19.3175 14.2109" stroke="black" stroke-width="1.5" stroke-linecap="round" stroke-linejoin="round"/>
<path d="M19.3184 15.9009V14.2109H20.9996" stroke="black" stroke-width="1.5" stroke-linecap="round" stroke-linejoin="round"/>
<path d="M16.7444 9.0625L12.9042 12.1857C12.1803 12.7597 11.1558 12.7597 10.4319 12.1857L6.55859 9.0625" stroke="black" stroke-width="1.5" stroke-linecap="round" stroke-linejoin="round"/>
</svg>