<svg width="24" height="24" viewBox="0 0 24 24" fill="none" xmlns="http://www.w3.org/2000/svg">
<path fill-rule="evenodd" clip-rule="evenodd" d="M17.8 9.80039L13.8 13.0004C13.3 13.4004 12.7 13.6004 12 13.6004C11.4 13.6004 10.8 13.4004 10.2 13.0004L6.2 9.70039C5.9 9.40039 5.8 9.00039 6.1 8.60039C6.4 8.20039 6.8 8.20039 7.2 8.50039L11.2 11.7004C11.7 12.1004 12.4 12.1004 12.8 11.7004L16.8 8.50039C17.1 8.20039 17.6 8.30039 17.9 8.60039C18.2 9.00039 18.1 9.50039 17.8 9.80039ZM16.4 3.40039H7.6C4.7 3.40039 2.5 5.80039 2.5 8.90039V15.1004C2.5 16.7004 3.1 18.2004 4.1 19.2004C5 20.1004 6.2 20.6004 7.6 20.6004H16.4C17.7 20.6004 18.9 20.1004 19.9 19.2004C20.9 18.2004 21.5 16.7004 21.5 15.1004V8.90039C21.5 5.80039 19.3 3.40039 16.4 3.40039Z" fill="black"/>
</svg>