<svg width="25" height="24" viewBox="0 0 25 24" fill="none" xmlns="http://www.w3.org/2000/svg">
<path opacity="0.4" d="M21.3831 10.3992V8.72866C21.3831 5.98393 19.55 3.74902 16.8306 3.74902H8.05251C5.33307 3.74902 3.5 5.98393 3.5 8.72866V14.87C3.5 17.6167 5.33307 19.8506 8.05251 19.8438H12.3608" stroke="black" stroke-width="1.5" stroke-linecap="round" stroke-linejoin="round"/>
<path d="M17.7198 8.98047L13.7472 12.2107C12.998 12.8052 11.9385 12.8052 11.1903 12.2107L7.18359 8.98047" stroke="black" stroke-width="1.5" stroke-linecap="round" stroke-linejoin="round"/>
<path fill-rule="evenodd" clip-rule="evenodd" d="M18.7378 20.2514C18.7378 20.2514 21.4767 19.4225 21.4767 17.136C21.4767 14.8495 21.5759 14.9225 21.356 14.7007C21.1362 14.4788 19.0968 13.7695 18.7378 13.7695C18.3788 13.7695 16.3394 14.4808 16.1195 14.7007C15.8997 14.9205 15.9989 14.8495 15.9989 17.136C15.9989 19.4225 18.7378 20.2514 18.7378 20.2514Z" stroke="black" stroke-width="1.5" stroke-linecap="round" stroke-linejoin="round"/>
</svg>