<svg width="24" height="24" viewBox="0 0 24 24" fill="none" xmlns="http://www.w3.org/2000/svg">
<path opacity="0.4" fill-rule="evenodd" clip-rule="evenodd" d="M13.4999 19.2383C13.4999 19.1587 13.4524 19.0873 13.3811 19.0521C13.1227 18.9242 12.8811 18.7522 12.6719 18.5283C11.7309 17.5203 11.7849 15.9383 12.7939 14.9953L14.2939 13.5953C15.2549 12.6983 16.7449 12.6983 17.7059 13.5953L17.8714 13.7494C17.9607 13.8326 18.1027 13.8166 18.1809 13.7229C18.6394 13.1735 19.3281 12.8223 20.0999 12.8223C20.2514 12.8223 20.3978 12.8398 20.5403 12.8689C20.6713 12.8955 20.7999 12.8002 20.7999 12.6665V8.42227C20.8999 5.22227 18.6999 2.82227 15.6999 2.82227H6.79989C3.89989 2.82227 1.69989 5.22227 1.69989 8.42227V14.6223C1.69989 16.2223 2.29989 17.7223 3.29989 18.7223C4.19989 19.6223 5.49989 20.1223 6.79989 20.1223H13.2999C13.4103 20.1223 13.4999 20.0327 13.4999 19.9223V19.2383Z" fill="black"/>
<path fill-rule="evenodd" clip-rule="evenodd" d="M9.49991 12.522L5.39991 9.22196C5.09991 8.92196 4.99991 8.52196 5.29991 8.12196C5.59991 7.82196 5.99991 7.72196 6.39991 8.02196L10.4999 11.322C10.9999 11.722 11.6999 11.722 12.1999 11.322L16.1999 8.02196C16.4999 7.72196 16.9999 7.82196 17.2999 8.12196C17.4999 8.52196 17.3999 9.02196 17.0999 9.22196L13.0999 12.522C12.5999 12.922 11.8999 13.122 11.2999 13.122C10.6999 13.122 10.0999 12.922 9.49991 12.522Z" fill="black"/>
<path fill-rule="evenodd" clip-rule="evenodd" d="M18.0117 16.2744L16.5117 14.8744C16.2237 14.6044 15.7767 14.6044 15.4887 14.8744L13.9887 16.2744C13.6857 16.5564 13.6687 17.0314 13.9517 17.3344C14.2347 17.6374 14.7097 17.6544 15.0117 17.3704L15.2497 17.1474V20.4274C15.2497 20.8414 15.5857 21.1774 15.9997 21.1774C16.4137 21.1774 16.7497 20.8414 16.7497 20.4274V17.1474L16.9887 17.3704C17.1327 17.5054 17.3167 17.5724 17.4997 17.5724C17.6997 17.5724 17.9007 17.4924 18.0487 17.3344C18.3307 17.0314 18.3147 16.5564 18.0117 16.2744Z" fill="black"/>
<path fill-rule="evenodd" clip-rule="evenodd" d="M22.0983 18.3102C21.8163 18.0072 21.3403 17.9912 21.0383 18.2732L20.8003 18.4952V15.1572C20.8003 14.7432 20.4643 14.4072 20.0503 14.4072C19.6363 14.4072 19.3003 14.7432 19.3003 15.1572V18.4952L19.0613 18.2732C18.7593 17.9912 18.2843 18.0072 18.0013 18.3102C17.7193 18.6132 17.7353 19.0872 18.0383 19.3712L19.5383 20.7702C19.6823 20.9042 19.8663 20.9712 20.0503 20.9712C20.2333 20.9712 20.4173 20.9042 20.5613 20.7702L22.0613 19.3712C22.3643 19.0872 22.3813 18.6132 22.0983 18.3102Z" fill="black"/>
</svg>