<svg width="24" height="24" viewBox="0 0 24 24" fill="none" xmlns="http://www.w3.org/2000/svg">
<path fill-rule="evenodd" clip-rule="evenodd" d="M13.2749 12.725C12.7749 13.125 12.1749 13.325 11.4749 13.325C10.8749 13.325 10.2749 13.125 9.67489 12.725L5.67489 9.425C5.37489 9.125 5.27489 8.725 5.57489 8.325C5.87489 7.925 6.27489 7.925 6.67489 8.225L10.6749 11.425C11.1749 11.825 11.8749 11.825 12.2749 11.425L16.2749 8.225C16.5749 7.925 17.0749 8.025 17.3749 8.325C17.6749 8.825 17.5749 9.225 17.2749 9.525L13.2749 12.725ZM19.5749 12.525C19.9599 12.525 20.3355 12.5642 20.7005 12.6332C20.892 12.6694 21.0749 12.5266 21.0749 12.3317V8.625C21.0749 5.525 18.8749 3.125 15.9749 3.125H7.17489C4.27489 3.125 2.07489 5.525 2.07489 8.625V14.825C2.07489 16.425 2.67489 17.925 3.67489 18.925C4.57489 19.825 5.77489 20.325 7.17489 20.325H13.2006C13.3977 20.325 13.5409 20.1382 13.5014 19.9452C13.4205 19.5507 13.3749 19.1433 13.3749 18.725C13.3749 15.301 16.1509 12.525 19.5749 12.525Z" fill="black"/>
<path fill-rule="evenodd" clip-rule="evenodd" d="M21.7054 19.5943L20.2354 18.1243L21.6054 16.7553C21.8984 16.4623 21.8984 15.9883 21.6054 15.6953C21.3124 15.4023 20.8374 15.4023 20.5444 15.6953L19.1754 17.0643L17.8054 15.6953C17.5124 15.4023 17.0374 15.4023 16.7444 15.6953C16.4514 15.9883 16.4514 16.4623 16.7444 16.7553L18.1144 18.1243L16.6444 19.5943C16.3514 19.8873 16.3514 20.3623 16.6444 20.6553C16.7914 20.8013 16.9834 20.8743 17.1754 20.8743C17.3674 20.8743 17.5594 20.8013 17.7054 20.6553L19.1754 19.1853L20.6444 20.6553C20.9374 20.9483 21.4124 20.9483 21.7054 20.6553C21.9984 20.3623 21.9984 19.8873 21.7054 19.5943Z" fill="black"/>
</svg>