<svg width="24" height="24" viewBox="0 0 24 24" fill="none" xmlns="http://www.w3.org/2000/svg">
<path d="M11.9183 20.1004H7.58173C4.84476 20.1072 3 17.8587 3 15.0944V8.91315C3 6.1499 4.84476 3.90039 7.58173 3.90039H8.63534" stroke="black" stroke-width="1.5" stroke-linecap="round" stroke-linejoin="round"/>
<path d="M21 10.5944V8.91315C21 6.1499 19.1552 3.90039 16.4183 3.90039H12" stroke="black" stroke-width="1.5" stroke-linecap="round" stroke-linejoin="round"/>
<path d="M16.5109 16.5254L14.7109 18.3254L16.5109 20.1254" stroke="black" stroke-width="1.5" stroke-linecap="round" stroke-linejoin="round"/>
<path d="M18.3 14.7266H19.2C20.1944 14.7266 21 15.5322 21 16.5266C21 17.5209 20.1944 18.3266 19.2 18.3266H14.7102" stroke="black" stroke-width="1.5" stroke-linecap="round" stroke-linejoin="round"/>
<path d="M17.3105 9.16602L13.3116 12.4177C12.5585 13.0161 11.4911 13.0161 10.7381 12.4177L6.70508 9.16602" stroke="black" stroke-width="1.5" stroke-linecap="round" stroke-linejoin="round"/>
</svg>