<svg width="25" height="24" viewBox="0 0 25 24" fill="none" xmlns="http://www.w3.org/2000/svg">
<path d="M15.4081 20.671H7.39406C6.06544 20.7151 4.77263 20.2357 3.79405 19.336C3.36282 18.8869 3.02622 18.3558 2.80427 17.7741C2.58233 17.1925 2.47956 16.5721 2.50206 15.95V10.667C2.50191 10.0685 2.6555 9.48003 2.94807 8.95796C3.20836 8.48744 3.57219 8.08223 4.01207 7.77296L9.57805 3.89896C10.1094 3.52556 10.7431 3.3252 11.3926 3.3252C12.042 3.3252 12.6757 3.52556 13.207 3.89896L15.595 5.55595C15.7586 5.66947 15.8703 5.84329 15.9056 6.03917C15.941 6.23505 15.8971 6.43696 15.7836 6.60046C15.67 6.76397 15.4962 6.87569 15.3003 6.91104C15.1045 6.94639 14.9026 6.90247 14.7391 6.78896L12.3471 5.12897C12.068 4.93177 11.7347 4.82588 11.393 4.82588C11.0514 4.82588 10.7181 4.93177 10.4391 5.12897L4.86906 9.00696C4.61609 9.1856 4.40715 9.41952 4.25807 9.69096C4.0889 9.98906 4.00064 10.3262 4.00206 10.669V15.952C3.98177 16.3763 4.04652 16.8004 4.19249 17.1993C4.33846 17.5982 4.56272 17.9639 4.85206 18.275C5.19095 18.5913 5.59137 18.8345 6.02836 18.9894C6.46536 19.1442 6.92959 19.2074 7.39207 19.175H15.4051C15.8645 19.1993 16.3243 19.1322 16.7577 18.9778C17.1911 18.8233 17.5896 18.5844 17.9301 18.275C18.219 17.9637 18.443 17.598 18.5888 17.1991C18.7346 16.8002 18.7993 16.3762 18.7791 15.952V14.421C18.7791 14.222 18.8581 14.0313 18.9987 13.8906C19.1394 13.75 19.3302 13.671 19.5291 13.671C19.728 13.671 19.9187 13.75 20.0594 13.8906C20.2001 14.0313 20.2791 14.222 20.2791 14.421V15.952C20.3015 16.574 20.1988 17.1943 19.9771 17.7759C19.7553 18.3576 19.419 18.8888 18.9881 19.338C18.51 19.7871 17.9471 20.1363 17.3324 20.3652C16.7177 20.5941 16.0635 20.6981 15.4081 20.671Z" fill="black"/>
<path d="M16.9393 12.6081C16.7404 12.6081 16.5496 12.5291 16.4089 12.3885C16.2683 12.2478 16.1893 12.057 16.1893 11.8581V11.1581H15.4893C15.2903 11.1581 15.0996 11.0791 14.9589 10.9385C14.8183 10.7978 14.7393 10.607 14.7393 10.4081C14.7393 10.2092 14.8183 10.0184 14.9589 9.87779C15.0996 9.73714 15.2903 9.65813 15.4893 9.65813H16.1893V8.95312C16.1893 8.75421 16.2683 8.56346 16.4089 8.42281C16.5496 8.28215 16.7404 8.20312 16.9393 8.20312C17.1382 8.20312 17.3289 8.28215 17.4696 8.42281C17.6102 8.56346 17.6893 8.75421 17.6893 8.95312V9.65813H18.3963C18.5952 9.65813 18.7859 9.73714 18.9266 9.87779C19.0672 10.0184 19.1463 10.2092 19.1463 10.4081C19.1463 10.607 19.0672 10.7978 18.9266 10.9385C18.7859 11.0791 18.5952 11.1581 18.3963 11.1581H17.6893V11.8581C17.6893 12.057 17.6102 12.2478 17.4696 12.3885C17.3289 12.5291 17.1382 12.6081 16.9393 12.6081Z" fill="black"/>
<path d="M16.939 15.4648C15.9378 15.4646 14.9592 15.1675 14.1268 14.6112C13.2945 14.0548 12.6458 13.2641 12.2629 12.339C11.8799 11.414 11.7799 10.3962 11.9754 9.41429C12.1709 8.43239 12.6532 7.53053 13.3613 6.82273C14.0694 6.11494 14.9714 5.63302 15.9534 5.43789C16.9354 5.24277 17.9531 5.34321 18.878 5.72653C19.8029 6.10984 20.5933 6.7588 21.1494 7.59135C21.7055 8.4239 22.0021 9.40265 22.0019 10.4038C22.0004 11.7459 21.4664 13.0326 20.5171 13.9814C19.5679 14.9303 18.2811 15.4638 16.939 15.4648V15.4648ZM16.939 6.84182C16.2345 6.84202 15.5459 7.05109 14.9603 7.44261C14.3747 7.83413 13.9182 8.39051 13.6488 9.04139C13.3793 9.69228 13.3089 10.4085 13.4465 11.0993C13.584 11.7902 13.9234 12.4248 14.4216 12.9229C14.9198 13.4209 15.5545 13.7601 16.2454 13.8975C16.9363 14.0348 17.6525 13.9642 18.3033 13.6946C18.9541 13.4249 19.5103 12.9684 19.9017 12.3827C20.293 11.7969 20.5019 11.1083 20.5019 10.4038C20.5011 9.45919 20.1255 8.55349 19.4574 7.88563C18.7894 7.21777 17.8836 6.84235 16.939 6.84182V6.84182Z" fill="black"/>
<path d="M11.4197 15.5085C10.5623 15.5072 9.73035 15.2165 9.05871 14.6835L3.13571 9.90947C2.98082 9.78455 2.88191 9.60323 2.86072 9.40538C2.83952 9.20753 2.89779 9.00936 3.0227 8.85447C3.14762 8.69959 3.32897 8.60066 3.52682 8.57946C3.72467 8.55827 3.92284 8.61655 4.07773 8.74147L9.99371 13.5105C10.3994 13.8334 10.9026 14.0093 11.4212 14.0093C11.9398 14.0093 12.443 13.8334 12.8487 13.5105L13.5267 12.9605C13.6033 12.8985 13.6913 12.8522 13.7857 12.8242C13.8802 12.7962 13.9792 12.7872 14.0772 12.7975C14.1752 12.8078 14.2702 12.8373 14.3567 12.8843C14.4433 12.9313 14.5197 12.9949 14.5817 13.0715C14.6437 13.148 14.69 13.236 14.718 13.3305C14.7459 13.425 14.755 13.524 14.7447 13.622C14.7344 13.7199 14.7049 13.8149 14.6579 13.9015C14.6109 13.988 14.5473 14.0645 14.4707 14.1265L13.7867 14.6795C13.1146 15.2163 12.2799 15.5086 11.4197 15.5085Z" fill="black"/>
</svg>