<svg width="25" height="24" viewBox="0 0 25 24" fill="none" xmlns="http://www.w3.org/2000/svg">
<path d="M15.4071 20.6707H7.36908C6.71403 20.6973 6.06023 20.5929 5.44602 20.3636C4.83181 20.1344 4.26951 19.7849 3.79206 19.3357C3.36114 18.8864 3.02484 18.3553 2.80308 17.7736C2.58131 17.192 2.47862 16.5717 2.50107 15.9497V10.6667C2.50093 10.0682 2.65451 9.47973 2.94709 8.95766C3.20701 8.48746 3.57051 8.08257 4.01008 7.77365L9.57706 3.89865C10.1083 3.52484 10.742 3.32422 11.3916 3.32422C12.0411 3.32422 12.6748 3.52484 13.2061 3.89865L15.5941 5.55466C15.7576 5.66817 15.8693 5.84199 15.9046 6.03787C15.94 6.23375 15.8961 6.43565 15.7826 6.59915C15.6691 6.76266 15.4952 6.87438 15.2994 6.90973C15.1035 6.94508 14.9016 6.90117 14.7381 6.78766L12.3451 5.12766C12.0662 4.93054 11.7331 4.82471 11.3916 4.82471C11.0501 4.82471 10.717 4.93054 10.4381 5.12766L4.86808 9.00566C4.61509 9.18428 4.40614 9.41819 4.25709 9.68965C4.08792 9.98775 3.99965 10.3249 4.00107 10.6676V15.9507C3.98079 16.375 4.04553 16.7991 4.1915 17.198C4.33747 17.5969 4.56173 17.9626 4.85108 18.2737C5.19083 18.583 5.58859 18.8219 6.02134 18.9764C6.45409 19.1309 6.91322 19.1979 7.37208 19.1737H15.3851C15.8473 19.1985 16.31 19.1318 16.7464 18.9774C17.1828 18.8229 17.5844 18.5838 17.9281 18.2737C18.2174 17.9626 18.4417 17.5969 18.5877 17.198C18.7336 16.7991 18.7984 16.375 18.7781 15.9507V14.4197C18.7781 14.2208 18.8571 14.03 18.9977 13.8893C19.1384 13.7487 19.3292 13.6697 19.5281 13.6697C19.727 13.6697 19.9178 13.7487 20.0584 13.8893C20.1991 14.03 20.2781 14.2208 20.2781 14.4197V15.9507C20.3005 16.5727 20.1978 17.193 19.9761 17.7746C19.7543 18.3563 19.418 18.8874 18.9871 19.3367C18.5091 19.786 17.9462 20.1354 17.3315 20.3645C16.7168 20.5935 16.0625 20.6976 15.4071 20.6707Z" fill="black"/>
<path d="M16.939 15.4658C15.9377 15.4658 14.959 15.1689 14.1266 14.6126C13.2941 14.0564 12.6453 13.2657 12.2622 12.3407C11.8791 11.4157 11.7789 10.3978 11.9743 9.41587C12.1697 8.43392 12.6519 7.53196 13.3599 6.82406C14.068 6.11617 14.97 5.63415 15.952 5.43895C16.934 5.24374 17.9518 5.34411 18.8768 5.7274C19.8017 6.11068 20.5923 6.75965 21.1484 7.59222C21.7045 8.42479 22.0012 9.40358 22.001 10.4048C21.9994 11.7467 21.4655 13.0333 20.5165 13.9821C19.5675 14.9309 18.2809 15.4645 16.939 15.4658ZM16.939 6.8428C16.2345 6.8428 15.5458 7.0517 14.96 7.4431C14.3742 7.83449 13.9177 8.39081 13.6481 9.04168C13.3785 9.69255 13.308 10.4088 13.4454 11.0997C13.5829 11.7907 13.9221 12.4253 14.4202 12.9235C14.9184 13.4217 15.5531 13.7609 16.2441 13.8984C16.935 14.0358 17.6512 13.9653 18.3021 13.6957C18.9529 13.4261 19.5093 12.9695 19.9007 12.3837C20.292 11.798 20.501 11.1093 20.501 10.4048C20.5002 9.46034 20.1246 8.55479 19.4568 7.88696C18.789 7.21913 17.8834 6.84359 16.939 6.8428V6.8428Z" fill="black"/>
<path d="M18.3963 11.1543H15.4863C15.2874 11.1543 15.0966 11.0753 14.956 10.9346C14.8153 10.794 14.7363 10.6032 14.7363 10.4043C14.7363 10.2054 14.8153 10.0146 14.956 9.87396C15.0966 9.73331 15.2874 9.6543 15.4863 9.6543H18.3963C18.5952 9.6543 18.786 9.73331 18.9266 9.87396C19.0673 10.0146 19.1463 10.2054 19.1463 10.4043C19.1463 10.6032 19.0673 10.794 18.9266 10.9346C18.786 11.0753 18.5952 11.1543 18.3963 11.1543Z" fill="black"/>
<path d="M11.4187 15.5094C10.5613 15.5082 9.72937 15.2175 9.05773 14.6844L3.13473 9.91044C3.05804 9.84859 2.99429 9.77223 2.94711 9.68574C2.89992 9.59925 2.87023 9.50432 2.85973 9.40635C2.84924 9.30838 2.85815 9.20931 2.88595 9.11479C2.91374 9.02026 2.95987 8.93214 3.02172 8.85545C3.08357 8.77875 3.15993 8.71499 3.24642 8.66781C3.33292 8.62063 3.42788 8.59093 3.52584 8.58044C3.62381 8.56994 3.72288 8.57886 3.81741 8.60665C3.91193 8.63445 4.00005 8.68059 4.07675 8.74244L9.99273 13.5114C10.3991 13.8333 10.9023 14.0084 11.4207 14.0084C11.9391 14.0084 12.4423 13.8333 12.8487 13.5114L13.5267 12.9614C13.6813 12.8363 13.8794 12.7776 14.0772 12.7984C14.2751 12.8193 14.4565 12.9178 14.5817 13.0724C14.7069 13.2271 14.7656 13.4251 14.7447 13.6229C14.7239 13.8208 14.6253 14.0023 14.4707 14.1274L13.7867 14.6804C13.114 15.2169 12.2791 15.5092 11.4187 15.5094V15.5094Z" fill="black"/>
</svg>