<svg width="24" height="24" viewBox="0 0 24 24" fill="none" xmlns="http://www.w3.org/2000/svg">
<path fill-rule="evenodd" clip-rule="evenodd" d="M17.77 11.915L13.77 15.115C13.23 15.515 12.61 15.725 12 15.725C11.39 15.725 10.78 15.525 10.25 15.125L6.22995 11.915C5.90995 11.655 5.85995 11.175 6.11995 10.855C6.36995 10.535 6.84995 10.485 7.16995 10.735L11.17 13.935C11.68 14.325 12.32 14.325 12.85 13.925L16.83 10.735C17.16 10.485 17.63 10.535 17.89 10.855C18.15 11.175 18.09 11.655 17.77 11.915ZM20.04 7.56503L13.81 3.24503C13.79 3.23503 13.76 3.22503 13.74 3.20503C13.21 2.88503 12.61 2.71503 12 2.72503C11.39 2.71503 10.79 2.88503 10.26 3.20503C10.24 3.22503 10.21 3.23503 10.19 3.24503L3.95995 7.56503C2.99995 8.28503 2.44995 9.34503 2.44995 10.475V16.375C2.44995 19.395 4.39995 21.275 7.54995 21.275H16.45C19.6 21.275 21.55 19.395 21.55 16.375V10.475C21.55 9.34503 21.01 8.28503 20.04 7.56503Z" fill="black"/>
</svg>