<svg width="25" height="24" viewBox="0 0 25 24" fill="none" xmlns="http://www.w3.org/2000/svg">
<path d="M6.95605 13.2597V5.42584C6.95605 4.11816 8.01562 3.05859 9.3233 3.05859H15.6603C16.9679 3.05859 18.0188 4.11816 18.0275 5.41708L18.0363 13.2597" stroke="black" stroke-width="1.5" stroke-linecap="round" stroke-linejoin="round"/>
<path opacity="0.4" d="M10.2812 6.22754H14.9097M10.2812 9.3745H12.5142" stroke="black" stroke-width="1.5" stroke-linecap="round" stroke-linejoin="round"/>
<path opacity="0.4" d="M18.0177 5.21289C20.1378 5.68576 21.5 7.65408 21.5 10.0009V16.0489C21.5 18.7547 19.6932 20.9507 17.0146 20.942H7.97665C5.29805 20.9507 3.5 18.7547 3.5 16.0489V10.0009C3.5 7.65408 4.85341 5.68576 6.96378 5.21289" stroke="black" stroke-width="1.5" stroke-linecap="round" stroke-linejoin="round"/>
<path d="M18.9698 13.2598C14.6007 13.2598 10.4066 13.2598 6.02344 13.2598" stroke="black" stroke-width="1.5" stroke-linecap="round" stroke-linejoin="round"/>
</svg>