<svg width="25" height="24" viewBox="0 0 25 24" fill="none" xmlns="http://www.w3.org/2000/svg">
<path d="M7.67661 20.5922C7.01953 20.6013 6.3673 20.4784 5.75855 20.2309C5.1498 19.9834 4.59692 19.6162 4.13262 19.1512C3.60023 18.6003 3.18225 17.9494 2.90282 17.2361C2.6234 16.5227 2.48805 15.7611 2.50461 14.9952V9.01321C2.46188 8.30103 2.56367 7.58757 2.80387 6.91576C3.04407 6.24396 3.4177 5.62769 3.90229 5.10406C4.38687 4.58042 4.97239 4.16024 5.6236 3.8688C6.27482 3.57736 6.97826 3.42068 7.69161 3.4082H16.2486C16.962 3.42068 17.6654 3.57736 18.3166 3.8688C18.9678 4.16024 19.5534 4.58042 20.0379 5.10406C20.5225 5.62769 20.8962 6.24396 21.1364 6.91576C21.3766 7.58757 21.4783 8.30103 21.4356 9.01321V10.6412C21.4356 10.8401 21.3566 11.0309 21.2159 11.1715C21.0753 11.3122 20.8845 11.3912 20.6856 11.3912C20.4867 11.3912 20.2959 11.3122 20.1553 11.1715C20.0146 11.0309 19.9356 10.8401 19.9356 10.6412V9.01321C19.9356 6.63521 18.3846 4.9082 16.2486 4.9082H7.69161C5.55561 4.9082 4.00461 6.63521 4.00461 9.01321V14.9992C3.98861 15.5678 4.08535 16.134 4.28925 16.665C4.49315 17.196 4.80018 17.6814 5.19262 18.0932C5.51689 18.4245 5.90672 18.6846 6.33718 18.8568C6.76764 19.029 7.22928 19.1095 7.69262 19.0932H11.7096C11.9085 19.0932 12.0993 19.1722 12.24 19.3129C12.3806 19.4535 12.4596 19.6443 12.4596 19.8432C12.4596 20.0421 12.3806 20.2329 12.24 20.3735C12.0993 20.5142 11.9085 20.5932 11.7096 20.5932H7.67962L7.67661 20.5922Z" fill="black"/>
<path d="M17.1739 17.1103C16.9796 17.1104 16.7928 17.0351 16.6529 16.9003L15.7129 15.9933L14.7739 16.8993C14.7031 16.9677 14.6195 17.0215 14.5278 17.0576C14.4362 17.0937 14.3383 17.1114 14.2399 17.1097C14.1414 17.108 14.0442 17.0869 13.9539 17.0476C13.8636 17.0083 13.7819 16.9516 13.7134 16.8808C13.645 16.8099 13.5912 16.7263 13.5551 16.6347C13.519 16.543 13.5013 16.4452 13.503 16.3467C13.5048 16.2482 13.5259 16.1511 13.5651 16.0607C13.6044 15.9704 13.6611 15.8887 13.7319 15.8203L15.1919 14.4113C15.3319 14.2765 15.5186 14.2012 15.7129 14.2012C15.9072 14.2012 16.094 14.2765 16.2339 14.4113L17.6939 15.8203C17.8016 15.924 17.8757 16.0575 17.9069 16.2037C17.9381 16.3499 17.925 16.5021 17.8691 16.6407C17.8132 16.7793 17.7172 16.8981 17.5933 16.9818C17.4694 17.0654 17.3234 17.1102 17.1739 17.1103V17.1103Z" fill="black"/>
<path d="M19.7955 20.5265C19.6014 20.5267 19.415 20.4514 19.2755 20.3165L17.8145 18.9075C17.6713 18.7695 17.5887 18.5802 17.5851 18.3813C17.5814 18.1824 17.6569 17.9903 17.795 17.847C17.933 17.7038 18.1223 17.6213 18.3212 17.6177C18.5201 17.614 18.7123 17.6895 18.8555 17.8275L19.7955 18.7345L20.7345 17.8275C20.8777 17.6894 21.0699 17.6137 21.2689 17.6173C21.4679 17.6209 21.6573 17.7033 21.7955 17.8465C21.9337 17.9898 22.0093 18.182 22.0057 18.381C22.0021 18.58 21.9197 18.7694 21.7765 18.9075L20.3165 20.3155C20.1768 20.4508 19.9899 20.5265 19.7955 20.5265V20.5265Z" fill="black"/>
<path d="M15.7139 20.5912C15.515 20.5912 15.3242 20.5122 15.1835 20.3715C15.0429 20.2309 14.9639 20.0401 14.9639 19.8412V14.9512C14.9639 14.7523 15.0429 14.5615 15.1835 14.4208C15.3242 14.2802 15.515 14.2012 15.7139 14.2012C15.9128 14.2012 16.1035 14.2802 16.2442 14.4208C16.3849 14.5615 16.4639 14.7523 16.4639 14.9512V19.8452C16.4628 20.0434 16.3833 20.2331 16.2428 20.3729C16.1022 20.5127 15.9121 20.5912 15.7139 20.5912V20.5912Z" fill="black"/>
<path d="M19.7959 20.5268C19.597 20.5268 19.4062 20.4478 19.2656 20.3071C19.1249 20.1665 19.0459 19.9757 19.0459 19.7768V14.8828C19.0459 14.6839 19.1249 14.4931 19.2656 14.3525C19.4062 14.2118 19.597 14.1328 19.7959 14.1328C19.9948 14.1328 20.1856 14.2118 20.3262 14.3525C20.4669 14.4931 20.5459 14.6839 20.5459 14.8828V19.7768C20.5459 19.9757 20.4669 20.1665 20.3262 20.3071C20.1856 20.4478 19.9948 20.5268 19.7959 20.5268Z" fill="black"/>
<path d="M11.993 13.5922C11.3712 13.5916 10.768 13.3801 10.282 12.9922L6.37399 9.84118C6.2191 9.71626 6.12019 9.53494 6.099 9.33708C6.0778 9.13923 6.13607 8.94107 6.26098 8.78618C6.3859 8.6313 6.56724 8.53238 6.76509 8.51119C6.96294 8.49 7.16111 8.54827 7.31599 8.67318L11.216 11.8212C11.4366 11.9978 11.7108 12.0941 11.9935 12.0941C12.2761 12.0941 12.5504 11.9978 12.771 11.8212L16.638 8.67818C16.7143 8.615 16.8024 8.56756 16.8971 8.53861C16.9918 8.50965 17.0914 8.49976 17.19 8.50949C17.2886 8.51922 17.3843 8.54838 17.4715 8.5953C17.5588 8.64222 17.6358 8.70596 17.6983 8.78284C17.7608 8.85972 17.8075 8.94822 17.8355 9.04322C17.8636 9.13823 17.8726 9.23785 17.862 9.33634C17.8513 9.43484 17.8213 9.53025 17.7736 9.61708C17.7259 9.7039 17.6614 9.7804 17.584 9.84218L13.715 12.9922C13.2255 13.3814 12.6184 13.5929 11.993 13.5922V13.5922Z" fill="black"/>
</svg>