<svg width="25" height="24" viewBox="0 0 25 24" fill="none" xmlns="http://www.w3.org/2000/svg">
<path d="M16.682 20.0809H13.231C13.0321 20.0809 12.8414 20.0019 12.7007 19.8613C12.5601 19.7206 12.481 19.5298 12.481 19.3309C12.481 19.132 12.5601 18.9413 12.7007 18.8006C12.8414 18.6599 13.0321 18.5809 13.231 18.5809H16.679C17.1577 18.5891 17.6332 18.5011 18.0772 18.3221C18.5213 18.1431 18.9248 17.8768 19.264 17.5389C19.672 17.1114 19.9913 16.6072 20.2032 16.0555C20.4152 15.5039 20.5158 14.9157 20.499 14.3249V8.14392C20.499 5.67392 18.887 3.88092 16.667 3.88092H7.83103C5.61103 3.88092 3.99903 5.67392 3.99903 8.14392V10.7219C3.99903 10.9208 3.92002 11.1116 3.77936 11.2523C3.63871 11.3929 3.44794 11.4719 3.24903 11.4719C3.05012 11.4719 2.85935 11.3929 2.7187 11.2523C2.57804 11.1116 2.49903 10.9208 2.49903 10.7219V8.14093C2.45508 7.40878 2.5597 6.67529 2.80659 5.98462C3.05347 5.29395 3.43753 4.66036 3.93564 4.12198C4.43376 3.5836 5.03565 3.15155 5.70508 2.85182C6.37452 2.5521 7.09767 2.39091 7.83103 2.37793H16.667C17.4004 2.39091 18.1235 2.5521 18.793 2.85182C19.4624 3.15155 20.0643 3.5836 20.5624 4.12198C21.0605 4.66036 21.4446 5.29395 21.6915 5.98462C21.9384 6.67529 22.043 7.40878 21.999 8.14093V14.3219C22.0164 15.1101 21.8772 15.8939 21.5895 16.6279C21.3018 17.3619 20.8714 18.0315 20.323 18.5979C19.8464 19.0764 19.2785 19.4542 18.6531 19.709C18.0276 19.9638 17.3573 20.0902 16.682 20.0809V20.0809Z" fill="black"/>
<path d="M12.2238 12.8509C11.5865 12.8501 10.9684 12.6329 10.4708 12.2349L6.47079 8.97891C6.39334 8.91713 6.32892 8.84061 6.2812 8.75379C6.23349 8.66697 6.20344 8.57156 6.19281 8.47306C6.18218 8.37457 6.19116 8.27494 6.21925 8.17994C6.24734 8.08494 6.29398 7.99645 6.35646 7.91956C6.41894 7.84268 6.49603 7.77894 6.58328 7.73202C6.67053 7.6851 6.76622 7.65593 6.8648 7.6462C6.96339 7.63647 7.06294 7.64638 7.15768 7.67533C7.25242 7.70429 7.3405 7.75172 7.41681 7.8149L11.4168 11.0659C11.6487 11.2514 11.9368 11.3524 12.2338 11.3524C12.5308 11.3524 12.8189 11.2514 13.0508 11.0659L17.0798 7.8179C17.2347 7.69298 17.4329 7.63472 17.6307 7.65591C17.8286 7.6771 18.0099 7.77602 18.1348 7.9309C18.2597 8.08579 18.318 8.28395 18.2968 8.48181C18.2756 8.67966 18.1767 8.86099 18.0218 8.98591L13.9888 12.2369C13.4872 12.6359 12.8648 12.8525 12.2238 12.8509V12.8509Z" fill="black"/>
<path d="M7.60354 21.6217C7.45639 21.6209 7.31096 21.5901 7.17615 21.5311C7.04134 21.4722 6.91999 21.3863 6.81954 21.2788C6.28854 20.6578 5.47153 19.7658 5.02553 19.2788C4.90677 19.1603 4.80177 19.0288 4.71253 18.8867C4.63569 18.7522 4.57941 18.6069 4.54554 18.4557C4.51558 18.2929 4.50416 18.1272 4.51152 17.9618V15.8707C4.46683 15.4384 4.52615 15.0016 4.68453 14.5967C4.8462 14.2749 5.10751 14.014 5.42952 13.8527C5.83421 13.6925 6.27164 13.6325 6.70453 13.6777H8.88953C9.24711 13.6468 9.60723 13.6897 9.94753 13.8037C10.225 13.9169 10.4668 14.1028 10.6475 14.3417C10.8431 14.637 10.9762 14.9691 11.0385 15.3177L11.2275 16.0178C11.4601 16.5836 11.5334 17.2022 11.4395 17.8068C11.312 18.2565 11.0177 18.6406 10.6165 18.8807C10.0951 19.1205 9.51738 19.2112 8.94753 19.1428C9.12044 19.7402 9.06959 20.3801 8.80452 20.9427C8.71016 21.1068 8.58172 21.2488 8.42785 21.359C8.27397 21.4692 8.09824 21.5452 7.91253 21.5817C7.81119 21.6058 7.70764 21.6192 7.60354 21.6217V21.6217ZM6.70353 15.1807C6.49691 15.1724 6.28997 15.1801 6.08454 15.2037C6.0597 15.2194 6.03963 15.2415 6.02652 15.2678C6.00963 15.4693 6.0043 15.6716 6.01053 15.8737V17.9647C6.01053 18.0537 6.01053 18.1098 6.01053 18.1558C6.05064 18.1844 6.08694 18.218 6.11853 18.2557C6.47653 18.6457 7.05853 19.2807 7.53353 19.8187C7.49567 19.4671 7.41818 19.1209 7.30253 18.7868V18.7868C7.25174 18.6555 7.23463 18.5136 7.25275 18.374C7.27087 18.2344 7.32365 18.1016 7.40627 17.9877C7.48889 17.8737 7.59874 17.7823 7.72577 17.7217C7.85281 17.6611 7.99299 17.6333 8.13353 17.6408H8.83353C9.17301 17.6598 9.51356 17.643 9.84954 17.5908C9.9223 17.5451 9.97515 17.4737 9.99753 17.3908C9.95854 17.0564 9.88617 16.7267 9.78153 16.4067L9.59552 15.7177C9.55795 15.556 9.50952 15.397 9.45054 15.2418C9.26925 15.182 9.07773 15.1595 8.88753 15.1757L6.70353 15.1807Z" fill="black"/>
<path d="M3.25098 18.8001C3.05206 18.8001 2.86129 18.7211 2.72064 18.5804C2.57999 18.4398 2.50098 18.249 2.50098 18.0501V14.5801C2.50098 14.3812 2.57999 14.1904 2.72064 14.0497C2.86129 13.9091 3.05206 13.8301 3.25098 13.8301C3.44989 13.8301 3.64066 13.9091 3.78131 14.0497C3.92196 14.1904 4.00098 14.3812 4.00098 14.5801V18.0501C4.00098 18.249 3.92196 18.4398 3.78131 18.5804C3.64066 18.7211 3.44989 18.8001 3.25098 18.8001V18.8001Z" fill="black"/>
</svg>