<svg width="24" height="24" viewBox="0 0 24 24" fill="none" xmlns="http://www.w3.org/2000/svg">
<path opacity="0.4" fill-rule="evenodd" clip-rule="evenodd" d="M20.1749 11.5302C19.7449 13.0002 18.4049 14.0502 16.7749 14.0502C16.1349 14.0502 15.5449 13.8902 15.0249 13.6002C14.6349 13.3902 14.2949 13.1002 14.0149 12.7602C13.5249 12.1502 13.2249 11.3702 13.2249 10.5002C13.2249 8.5102 14.7849 6.9502 16.7749 6.9502C17.0549 6.9502 17.3349 6.9802 17.5949 7.0402C19.1749 7.4002 20.3249 8.79019 20.3249 10.5002C20.3249 10.8602 20.2749 11.2102 20.1749 11.5302ZM16.7749 5.4502C16.3449 5.4502 15.9349 5.5002 15.5449 5.6002L12.9749 3.8002C11.8749 3.0002 10.4749 3.0002 9.37493 3.8002L3.67493 7.8002C2.77493 8.5002 2.17493 9.5002 2.17493 10.7002V16.1002C2.17493 17.5002 2.57493 18.7002 3.47493 19.5002C4.37493 20.4002 5.57493 20.8002 7.07493 20.8002H15.2749C16.7749 20.8002 17.9749 20.3002 18.8749 19.5002C19.6749 18.7002 20.1749 17.5002 20.1749 16.1002V14.2602C21.1949 13.3502 21.8249 12.0102 21.8249 10.5002C21.8249 7.6702 19.6049 5.4502 16.7749 5.4502Z" fill="black"/>
<path fill-rule="evenodd" clip-rule="evenodd" d="M18.2749 9.75H15.3749C14.9609 9.75 14.6249 10.086 14.6249 10.5C14.6249 10.914 14.9609 11.25 15.3749 11.25H18.2749C18.6889 11.25 19.0249 10.914 19.0249 10.5C19.0249 10.086 18.6889 9.75 18.2749 9.75Z" fill="black"/>
<path fill-rule="evenodd" clip-rule="evenodd" d="M16.7746 5.46875C13.9792 5.46875 11.7142 7.73517 11.7142 10.5301C11.7142 11.7282 12.1304 12.8291 12.8262 13.6961C11.8471 14.3996 10.5321 14.3576 9.57495 13.5998L4.17495 9.2998C3.87495 9.6998 3.67495 10.0998 3.57495 10.4998L8.57495 14.5998C9.37495 15.1998 10.275 15.4998 11.175 15.4998C12.0732 15.4998 12.9714 15.201 13.7702 14.6033C14.6104 15.2243 15.6495 15.5914 16.7746 15.5914C19.5697 15.5914 21.8359 13.3252 21.8359 10.5301C21.8359 7.73495 19.5697 5.46875 16.7746 5.46875ZM13.2142 10.5301C13.2142 8.56316 14.8081 6.96875 16.7746 6.96875C18.7413 6.96875 20.3359 8.56338 20.3359 10.5301C20.3359 12.4968 18.7413 14.0914 16.7746 14.0914C14.8081 14.0914 13.2142 12.497 13.2142 10.5301Z" fill="black"/>
</svg>