<svg width="24" height="24" viewBox="0 0 24 24" fill="none" xmlns="http://www.w3.org/2000/svg">
<path opacity="0.4" fill-rule="evenodd" clip-rule="evenodd" d="M18.5812 5.07322C18.4532 5.01249 18.31 5.10881 18.31 5.25045V9.84631C18.31 9.97705 18.4358 10.072 18.5661 10.0828C18.7933 10.1017 19.009 10.2207 19.14 10.4245C19.36 10.7745 19.26 11.2345 18.91 11.4545L13.41 14.9545C12.99 15.2345 12.5 15.3745 12.01 15.3745C11.51 15.3745 11.01 15.2345 10.59 14.9445L5.1 11.4545C4.75 11.2345 4.65 10.7745 4.87 10.4245C5.00099 10.2207 5.21671 10.1017 5.44394 10.0828C5.57423 10.072 5.7 9.97705 5.7 9.84631V5.25045C5.7 5.10881 5.55676 5.01248 5.42878 5.0732C3.64339 5.92021 2.5 7.79539 2.5 10.0245V16.1245C2.5 19.2045 4.65 21.5245 7.5 21.5245H16.5C19.36 21.5245 21.5 19.2045 21.5 16.1245V10.0245C21.5 7.79542 20.3657 5.92025 18.5812 5.07322Z" fill="black"/>
<path fill-rule="evenodd" clip-rule="evenodd" d="M13.9 9.62461C13.9 10.0346 13.57 10.3746 13.15 10.3746H10.85C10.44 10.3746 10.1 10.0346 10.1 9.62461C10.1 9.21461 10.44 8.87461 10.85 8.87461H13.15C13.57 8.87461 13.9 9.21461 13.9 9.62461ZM9.64995 7.27461C9.23995 7.27461 8.89995 6.93461 8.89995 6.52461C8.89995 6.11461 9.23995 5.77461 9.64995 5.77461H14.35C14.77 5.77461 15.1 6.11461 15.1 6.52461C15.1 6.93461 14.77 7.27461 14.35 7.27461H9.64995ZM11.41 13.6946C11.77 13.9346 12.24 13.9346 12.59 13.7046L16.33 11.3246L16.7185 11.0737C16.7755 11.0369 16.81 10.9736 16.81 10.9057V4.12461C16.81 3.24461 16.03 2.47461 15.15 2.47461H8.84995C7.97995 2.47461 7.19995 3.24461 7.19995 4.12461V10.9045C7.19995 10.973 7.23508 11.0368 7.29302 11.0735L7.68995 11.3246L11.41 13.6946Z" fill="black"/>
<path fill-rule="evenodd" clip-rule="evenodd" d="M13.9 9.62461C13.9 10.0346 13.57 10.3746 13.15 10.3746H10.85C10.44 10.3746 10.1 10.0346 10.1 9.62461C10.1 9.21461 10.44 8.87461 10.85 8.87461H13.15C13.57 8.87461 13.9 9.21461 13.9 9.62461ZM9.64995 7.27461C9.23995 7.27461 8.89995 6.93461 8.89995 6.52461C8.89995 6.11461 9.23995 5.77461 9.64995 5.77461H14.35C14.77 5.77461 15.1 6.11461 15.1 6.52461C15.1 6.93461 14.77 7.27461 14.35 7.27461H9.64995Z" fill="white"/>
</svg>