<svg width="25" height="24" viewBox="0 0 25 24" fill="none" xmlns="http://www.w3.org/2000/svg">
<path d="M17.7871 14.0106C17.5884 14.0106 17.3978 13.9317 17.2572 13.7913C17.1165 13.6509 17.0374 13.4603 17.0371 13.2616L17.0281 5.41859C17.0247 4.99144 16.8531 4.58286 16.5503 4.28146C16.2476 3.98007 15.8383 3.81016 15.4111 3.80859H9.07415C8.86141 3.80833 8.6507 3.84998 8.45405 3.93115C8.2574 4.01232 8.07867 4.13143 7.92805 4.28168C7.77743 4.43192 7.65788 4.61036 7.57623 4.80681C7.49457 5.00326 7.45241 5.21386 7.45215 5.42661V13.2606C7.45215 13.4595 7.37313 13.6503 7.23248 13.7909C7.09183 13.9316 6.90106 14.0106 6.70215 14.0106C6.50324 14.0106 6.31247 13.9316 6.17182 13.7909C6.03117 13.6503 5.95215 13.4595 5.95215 13.2606V5.42661C5.95321 4.60016 6.28191 3.80784 6.8662 3.22336C7.4505 2.63888 8.2427 2.30992 9.06915 2.30859H15.4061C16.2289 2.31171 17.0174 2.63879 17.6008 3.21899C18.1842 3.7992 18.5155 4.58585 18.5231 5.4086L18.5321 13.2556C18.5323 13.3541 18.513 13.4516 18.4754 13.5427C18.4379 13.6337 18.3827 13.7165 18.3132 13.7862C18.2436 13.856 18.161 13.9113 18.0701 13.9491C17.9791 13.9869 17.8816 14.0065 17.7831 14.0066L17.7871 14.0106Z" fill="black"/>
<path d="M12.2672 10.1245H10.0342C9.83527 10.1245 9.6445 10.0455 9.50385 9.90488C9.3632 9.76422 9.28418 9.57345 9.28418 9.37454C9.28418 9.17563 9.3632 8.98486 9.50385 8.84421C9.6445 8.70356 9.83527 8.62454 10.0342 8.62454H12.2672C12.4661 8.62454 12.6569 8.70356 12.7975 8.84421C12.9382 8.98486 13.0172 9.17563 13.0172 9.37454C13.0172 9.57345 12.9382 9.76422 12.7975 9.90488C12.6569 10.0455 12.4661 10.1245 12.2672 10.1245V10.1245ZM14.6672 6.97754H10.0342C9.83527 6.97754 9.6445 6.89853 9.50385 6.75787C9.3632 6.61722 9.28418 6.42645 9.28418 6.22754C9.28418 6.02863 9.3632 5.83786 9.50385 5.6972C9.6445 5.55655 9.83527 5.47754 10.0342 5.47754H14.6632C14.8621 5.47754 15.0529 5.55655 15.1935 5.6972C15.3342 5.83786 15.4132 6.02863 15.4132 6.22754C15.4132 6.42645 15.3342 6.61722 15.1935 6.75787C15.0529 6.89853 14.8621 6.97754 14.6632 6.97754H14.6672Z" fill="black"/>
<path d="M7.71314 21.6905C7.05149 21.6999 6.39469 21.5764 5.78164 21.3273C5.16859 21.0783 4.61176 20.7087 4.14414 20.2405C3.60698 19.6848 3.18536 19.0281 2.90368 18.3084C2.62201 17.5886 2.48587 16.8202 2.50314 16.0475V9.9995C2.43508 8.75287 2.80157 7.52121 3.54012 6.5146C4.27868 5.50798 5.34355 4.78873 6.55314 4.4795C6.6504 4.45459 6.75167 4.44947 6.85094 4.46442C6.95022 4.47938 7.04548 4.51411 7.13108 4.56657C7.21668 4.61902 7.29088 4.68814 7.34928 4.7698C7.40768 4.85146 7.44909 4.94402 7.47105 5.04199C7.49301 5.13995 7.49508 5.24132 7.47714 5.3401C7.4592 5.43888 7.42161 5.53305 7.36659 5.61703C7.31158 5.70101 7.24026 5.77309 7.15688 5.829C7.07349 5.88491 6.97972 5.9235 6.88114 5.9425C6.00702 6.18288 5.24292 6.71816 4.71839 7.45757C4.19385 8.19699 3.94116 9.09505 4.00314 9.9995V16.0475C3.98652 16.6228 4.084 17.1956 4.28996 17.733C4.49593 18.2704 4.80629 18.7617 5.20314 19.1785C5.5328 19.5067 5.925 19.7654 6.3565 19.9393C6.788 20.1131 7.25001 20.1985 7.71514 20.1905H16.7681C17.2383 20.2104 17.7073 20.1302 18.1442 19.9552C18.581 19.7802 18.9757 19.5145 19.3021 19.1755C19.6985 18.759 20.0086 18.2682 20.2146 17.7314C20.4205 17.1945 20.5183 16.6223 20.5021 16.0475V9.9995C20.5623 9.09238 20.3063 8.19243 19.7775 7.45289C19.2487 6.71335 18.48 6.17995 17.6021 5.9435C17.4139 5.8944 17.252 5.77415 17.1507 5.60809C17.0493 5.44202 17.0163 5.2431 17.0587 5.05322C17.1011 4.86333 17.2155 4.69731 17.3779 4.59011C17.5402 4.48291 17.7379 4.4429 17.9291 4.47851C19.1419 4.78507 20.2105 5.50313 20.9527 6.51008C21.6948 7.51702 22.0643 8.75038 21.9981 9.9995V16.0475C22.015 16.8196 21.8786 17.5874 21.5968 18.3065C21.3149 19.0255 20.8932 19.6815 20.3561 20.2365C19.8872 20.706 19.3289 21.0767 18.7141 21.3264C18.0993 21.5762 17.4406 21.7 16.7771 21.6905H7.71314Z" fill="black"/>
<path d="M18.7234 14.0107H5.77637C5.57745 14.0107 5.38669 13.9317 5.24604 13.7911C5.10539 13.6504 5.02637 13.4597 5.02637 13.2607C5.02637 13.0618 5.10539 12.8711 5.24604 12.7304C5.38669 12.5898 5.57745 12.5107 5.77637 12.5107H18.7234C18.9223 12.5107 19.113 12.5898 19.2537 12.7304C19.3943 12.8711 19.4734 13.0618 19.4734 13.2607C19.4734 13.4597 19.3943 13.6504 19.2537 13.7911C19.113 13.9317 18.9223 14.0107 18.7234 14.0107V14.0107Z" fill="black"/>
</svg>