<svg width="24" height="24" viewBox="0 0 24 24" fill="none" xmlns="http://www.w3.org/2000/svg">
<path d="M3.35352 9.32812L9.26996 14.0965C10.3849 14.976 11.9553 14.976 13.0625 14.0965L13.7464 13.5439" stroke="black" stroke-width="1.5" stroke-linecap="round" stroke-linejoin="round"/>
<path d="M15.1682 9.69141L17.3627 9.7306L17.4021 11.9253" stroke="black" stroke-width="1.5" stroke-linecap="round" stroke-linejoin="round"/>
<path d="M17.3627 9.73047L13.8086 13.2846" stroke="black" stroke-width="1.5" stroke-linecap="round" stroke-linejoin="round"/>
<path d="M14.9152 6.17832L12.5217 4.51743C11.6917 3.93169 10.5854 3.93169 9.75547 4.51743L4.18802 8.39188C3.83872 8.6361 3.55363 8.96108 3.35028 9.32789C3.12162 9.7346 3 10.19 3 10.6706V15.953C3 18.4516 4.66868 19.9325 7.14299 19.9238H8.15384" stroke="black" stroke-width="1.5" stroke-linecap="round" stroke-linejoin="round"/>
<path d="M19.2768 14.4219V15.9524C19.2768 18.451 17.6081 19.9319 15.1347 19.9232H11.1387" stroke="black" stroke-width="1.5" stroke-linecap="round" stroke-linejoin="round"/>
<path d="M21.0006 10.4051C21.0006 12.786 19.0702 14.7164 16.6893 14.7164C14.3083 14.7164 12.3789 12.786 12.3789 10.4051C12.3789 8.02416 14.3083 6.09375 16.6893 6.09375C17.98 6.09375 19.1383 6.66109 19.9285 7.55998" stroke="black" stroke-width="1.5" stroke-linecap="round" stroke-linejoin="round"/>
</svg>