<svg width="24" height="24" viewBox="0 0 24 24" fill="none" xmlns="http://www.w3.org/2000/svg">
<path d="M12 20.761H7.58173C4.84476 20.7679 3 19.1352 3 16.37V10.5254C3 9.52321 3.48941 8.58429 4.31157 8.01218L10.4715 3.7204C11.3899 3.08018 12.6101 3.08018 13.5285 3.7204L19.6884 8.01218C20.5096 8.58429 21 9.52321 21 10.5254V16.37C21 19.1352 19.1552 20.7679 16.4183 20.761H15.695" stroke="black" stroke-width="1.5" stroke-linecap="round" stroke-linejoin="round"/>
<path d="M3.38477 9.04102L9.92801 14.3145C11.1608 15.2865 12.8975 15.2865 14.1215 14.3145L20.62 9.04102" stroke="black" stroke-width="1.5" stroke-linecap="round" stroke-linejoin="round"/>
<path d="M7.07617 12.0425C7.07617 10.4556 8.14255 9.53125 9.70417 9.53125H11.482" stroke="black" stroke-width="1.5" stroke-linecap="round" stroke-linejoin="round"/>
<path d="M14.2764 9.53125C15.8555 9.53125 16.9219 10.4556 16.9219 12.0425" stroke="black" stroke-width="1.5" stroke-linecap="round" stroke-linejoin="round"/>
</svg>