<svg width="24" height="24" viewBox="0 0 24 24" fill="none" xmlns="http://www.w3.org/2000/svg">
<path opacity="0.4" fill-rule="evenodd" clip-rule="evenodd" d="M13.076 18.2376C13.132 17.3536 13.508 16.5156 14.149 15.8496L17.119 12.5836C17.147 12.5536 17.175 12.5246 17.203 12.4966C17.925 11.7756 18.912 11.4036 19.895 11.4746C20.1464 11.4929 20.3915 11.5412 20.6271 11.6154C20.8375 11.6817 21.069 11.5348 21.069 11.3143V8.76562C21.069 5.66563 18.869 3.26562 15.969 3.26562H7.16897C4.26897 3.26562 2.06897 5.66563 2.06897 8.76562V14.9656C2.06897 16.5656 2.66897 18.0656 3.66897 19.0656C4.56897 19.9656 5.76897 20.4656 7.16897 20.4656H12.7605C12.9736 20.4656 13.1195 20.2487 13.0651 20.0426C12.9563 19.6306 12.9273 19.1991 13 18.7676L13.076 18.2376Z" fill="black"/>
<path fill-rule="evenodd" clip-rule="evenodd" d="M11.5689 13.4652C10.9689 13.4652 10.3689 13.2652 9.76893 12.8652L5.76893 9.56521C5.46893 9.26521 5.36893 8.86521 5.66893 8.46521C5.96893 8.06521 6.36893 8.06521 6.76893 8.36521L10.7689 11.5652C11.2689 11.9652 11.9689 11.9652 12.3689 11.5652L16.3689 8.36521C16.6689 8.06521 17.1689 8.16521 17.4689 8.46521C17.6689 8.86521 17.6689 9.36521 17.3689 9.66521L13.3689 12.8652C12.8689 13.2652 12.2689 13.4652 11.5689 13.4652Z" fill="black"/>
<path fill-rule="evenodd" clip-rule="evenodd" d="M20.4221 15.6538L17.4221 18.8538C17.3941 18.8828 17.3681 18.9158 17.3461 18.9498C17.2071 19.1558 17.0821 19.1068 16.9631 19.1238L16.2111 19.2718L16.3121 18.5728C16.3171 18.5378 16.3191 18.5028 16.3191 18.4668C16.3191 18.4198 16.3191 18.2758 16.5241 18.0708L19.4981 14.7978C19.5671 14.7298 19.6321 14.7158 19.6581 14.7158C19.6631 14.7158 19.6671 14.7158 19.6691 14.7168C19.6911 14.7448 19.7131 14.7708 19.7381 14.7968L20.3391 15.3968C20.4461 15.5048 20.4381 15.6278 20.4221 15.6538ZM21.4001 14.3368L20.8301 13.7668C20.5691 13.4488 20.1871 13.2508 19.7701 13.2198C19.2891 13.1908 18.8021 13.3738 18.4141 13.7608L15.4391 17.0358C15.0491 17.4248 14.8361 17.8988 14.8201 18.4068L14.7341 19.0188C14.6411 19.4828 14.7821 19.9428 15.1221 20.2828C15.4131 20.5738 15.8211 20.7348 16.2111 20.7348C16.3011 20.7348 16.3901 20.7258 16.4761 20.7088L17.1291 20.6148C17.7051 20.5968 18.2071 20.3238 18.5541 19.8398L21.4991 16.6968C22.1121 16.0848 22.0671 15.0038 21.4001 14.3368Z" fill="black"/>
</svg>