<svg width="24" height="24" viewBox="0 0 24 24" fill="none" xmlns="http://www.w3.org/2000/svg">
<path opacity="0.4" fill-rule="evenodd" clip-rule="evenodd" d="M14.0628 17.1788C14.0628 16.5068 14.0518 16.0528 14.0458 15.7378C14.0268 14.8988 14.0058 13.9488 14.8928 13.0588C15.7518 12.2008 18.4968 11.4248 19.2628 11.4248C19.4183 11.4248 19.7168 11.4749 20.0847 11.5606C20.2764 11.6052 20.4628 11.462 20.4628 11.2652V8.5248C20.4628 5.3248 18.2628 2.9248 15.3628 2.9248H6.36282C3.46282 2.9248 1.26282 5.3248 1.26282 8.5248V14.7248C1.26282 16.3248 1.86282 17.8248 2.86282 18.8248C3.76282 19.7248 5.06282 20.2248 6.36282 20.2248H14.3826C14.6253 20.2248 14.7713 19.9486 14.6552 19.7355C14.265 19.019 14.0305 18.1707 14.0628 17.1788Z" fill="black"/>
<path fill-rule="evenodd" clip-rule="evenodd" d="M10.8628 13.225C10.2628 13.225 9.66284 13.025 9.06284 12.625L4.96284 9.32498C4.66284 9.02498 4.56284 8.62498 4.86284 8.22498C5.16284 7.82498 5.56284 7.82498 5.96284 8.12498L10.0628 11.425C10.5628 11.825 11.2628 11.825 11.7628 11.425L15.7628 8.12498C16.0628 7.82498 16.5628 7.92498 16.8628 8.22498C17.0628 8.62498 17.0628 9.12498 16.6628 9.32498L12.6628 12.625C12.1628 13.025 11.4628 13.225 10.8628 13.225Z" fill="black"/>
<path fill-rule="evenodd" clip-rule="evenodd" d="M17.2866 15.3328C17.2876 15.4168 17.2916 15.5258 17.2946 15.6658C17.3026 16.0028 17.3126 16.4928 17.3126 17.2248C17.2526 18.6278 18.7056 19.3188 19.2596 19.5308C19.8076 19.3158 21.2126 18.6258 21.2126 17.2248C21.2126 16.4498 21.2246 15.9448 21.2316 15.6088C21.2336 15.4978 21.2366 15.4088 21.2386 15.3368C20.7266 15.1168 19.4766 14.7068 19.2146 14.6728C18.9966 14.6998 17.7836 15.1108 17.2866 15.3328ZM19.2626 21.0748C19.1936 21.0748 19.1236 21.0658 19.0566 21.0458C18.9186 21.0068 15.6896 20.0508 15.8136 17.1928C15.8126 16.5088 15.8026 16.0278 15.7946 15.6988C15.7776 14.9408 15.7716 14.6558 16.1316 14.2958C16.5326 13.8948 18.7486 13.1748 19.2626 13.1748C19.6696 13.1748 22.0026 13.9038 22.3926 14.2948C22.7536 14.6548 22.7476 14.9028 22.7316 15.6418C22.7246 15.9718 22.7126 16.4658 22.7126 17.2248C22.7126 20.0528 19.6076 21.0048 19.4756 21.0438C19.4066 21.0648 19.3346 21.0748 19.2626 21.0748Z" fill="black"/>
</svg>