<svg width="24" height="24" viewBox="0 0 24 24" fill="none" xmlns="http://www.w3.org/2000/svg">
<path fill-rule="evenodd" clip-rule="evenodd" d="M11.425 13.302C10.825 13.302 10.225 13.102 9.62499 12.702L5.52499 9.40195C5.22499 9.10195 5.12499 8.70195 5.42499 8.30195C5.72499 8.00195 6.12499 7.90195 6.52499 8.20195L10.625 11.502C11.125 11.902 11.825 11.902 12.325 11.502L16.325 8.20195C16.625 7.90195 17.125 8.00195 17.425 8.30195C17.625 8.60195 17.625 9.10195 17.225 9.40195L13.225 12.702C12.725 13.102 12.025 13.302 11.425 13.302ZM16.2251 19.7001C16.2248 19.5865 16.1304 19.4965 16.0169 19.4919C15.4132 19.4674 14.8171 19.2301 14.357 18.77C13.381 17.793 13.381 16.21 14.357 15.234L16.955 12.637C17.3018 12.2901 17.7542 12.0458 18.236 11.952C18.559 11.887 18.891 11.887 19.214 11.952C19.6877 12.0442 20.1562 12.2981 20.495 12.637L20.6836 12.8255C20.8096 12.9515 21.025 12.8623 21.025 12.6841V8.60195C21.025 5.30195 18.825 3.00195 15.925 3.00195H7.02499C4.12499 3.00195 1.92499 5.40195 1.92499 8.60195V14.802C1.92499 16.402 2.52499 17.902 3.52499 18.902C4.42499 19.802 5.72499 20.302 7.02499 20.302H15.925C15.9642 20.302 16.0021 20.3027 16.0395 20.3034C16.1509 20.3055 16.2356 20.211 16.2317 20.0996C16.227 19.9677 16.2256 19.8324 16.2251 19.7001Z" fill="black"/>
<path fill-rule="evenodd" clip-rule="evenodd" d="M21.8553 16.4721L19.2553 13.8721C18.9623 13.5791 18.4873 13.5791 18.1943 13.8721L15.5943 16.4721C15.3013 16.7651 15.3013 17.2401 15.5943 17.5331C15.8873 17.8261 16.3623 17.8261 16.6553 17.5331L17.9753 16.2131V20.2481C17.9753 20.6621 18.3113 20.9981 18.7253 20.9981C19.1393 20.9981 19.4753 20.6621 19.4753 20.2481V16.2131L20.7943 17.5331C20.9413 17.6791 21.1333 17.7521 21.3253 17.7521C21.5173 17.7521 21.7093 17.6791 21.8553 17.5331C22.1483 17.2401 22.1483 16.7651 21.8553 16.4721Z" fill="black"/>
</svg>