<svg width="24" height="24" viewBox="0 0 24 24" fill="none" xmlns="http://www.w3.org/2000/svg">
<path opacity="0.4" fill-rule="evenodd" clip-rule="evenodd" d="M15.775 2.625H6.975C4.075 2.625 1.875 5.025 1.875 8.125V14.325C1.875 15.925 2.475 17.425 3.475 18.425C4.375 19.325 5.575 19.825 6.975 19.825H12.8319C13.0441 19.825 13.1899 19.6102 13.1271 19.4074C12.9623 18.8752 12.875 18.3094 12.875 17.725C12.875 14.525 15.475 11.925 18.675 11.925C19.2954 11.925 19.8906 12.0199 20.4503 12.2047C20.6546 12.2721 20.875 12.1261 20.875 11.9109V8.125C20.775 5.025 18.575 2.625 15.775 2.625Z" fill="black"/>
<path fill-rule="evenodd" clip-rule="evenodd" d="M17.075 9.02459L13.075 12.2246C12.575 12.6246 11.975 12.8246 11.275 12.8246C10.675 12.8246 10.075 12.6246 9.47499 12.2246L5.47499 8.92459C5.17499 8.62459 5.07499 8.22459 5.37499 7.82459C5.67499 7.42459 6.07499 7.42459 6.47499 7.72459L10.475 10.9246C10.975 11.3246 11.675 11.3246 12.075 10.9246L16.075 7.72459C16.375 7.42459 16.875 7.52459 17.175 7.82459C17.475 8.22459 17.375 8.72459 17.075 9.02459Z" fill="black"/>
<path fill-rule="evenodd" clip-rule="evenodd" d="M19.9448 19.3946C19.5478 19.7916 18.9808 19.8746 18.5748 19.8746C17.3888 19.8746 16.4248 18.9106 16.4248 17.7246C16.4248 17.3106 16.0898 16.9746 15.6748 16.9746C15.2608 16.9746 14.9248 17.3106 14.9248 17.7246C14.9248 19.7376 16.5618 21.3746 18.5748 21.3746C19.5488 21.3746 20.4128 21.0476 21.0058 20.4556C21.2988 20.1626 21.2988 19.6876 21.0058 19.3946C20.7128 19.1016 20.2378 19.1016 19.9448 19.3946Z" fill="black"/>
<path fill-rule="evenodd" clip-rule="evenodd" d="M18.475 14.0752C17.5 14.0752 16.637 14.4022 16.044 14.9952C15.751 15.2882 15.751 15.7622 16.044 16.0552C16.337 16.3482 16.812 16.3482 17.105 16.0552C17.502 15.6582 18.069 15.5752 18.475 15.5752C19.661 15.5752 20.625 16.5392 20.625 17.7242C20.625 18.1382 20.961 18.4742 21.375 18.4742C21.789 18.4742 22.125 18.1382 22.125 17.7242C22.125 15.7122 20.488 14.0752 18.475 14.0752Z" fill="black"/>
</svg>