<svg width="24" height="24" viewBox="0 0 24 24" fill="none" xmlns="http://www.w3.org/2000/svg">
<path opacity="0.4" fill-rule="evenodd" clip-rule="evenodd" d="M17.4725 10.1762C17.365 10.1239 17.2365 10.1353 17.1431 10.2099L12.9 13.6C12.4 14 11.8 14.2 11.1 14.2C10.5 14.2 9.89995 14 9.29995 13.6L5.29995 10.3C4.99995 10 4.89995 9.6 5.19995 9.2C5.49995 8.8 5.89995 8.8 6.29995 9.1L10.3 12.3C10.8 12.7 11.5 12.7 11.9 12.3C11.9 12.3 14.8384 9.95611 15.7032 9.26535C15.8344 9.16062 15.8444 8.97673 15.7359 8.84871C14.9689 7.94381 14.5 6.77915 14.5 5.5C14.5 5.11628 14.5539 4.74752 14.6396 4.3902C14.6865 4.1944 14.5428 4 14.3414 4H6.79995C3.89995 4 1.69995 6.4 1.69995 9.5V15.7C1.69995 17.3 2.29995 18.8 3.29995 19.8C4.19995 20.7 5.39995 21.2 6.79995 21.2H15.6C16.9 21.2 18.1 20.7 19.1 19.8C20.1 18.8 20.7 17.3 20.7 15.7V10.963C20.7 10.7743 20.5279 10.6331 20.3408 10.6574C20.1307 10.6847 19.917 10.7 19.7 10.7C18.8981 10.7 18.1479 10.5047 17.4725 10.1762Z" fill="black"/>
<path d="M17.1432 10.2099L12.9001 13.5999C12.4001 13.9999 11.8001 14.1999 11.1001 14.1999C10.5001 14.1999 9.90006 13.9999 9.30006 13.5999L5.30006 10.2999C5.00006 9.99993 4.90006 9.59993 5.20006 9.19993C5.50006 8.79993 5.90006 8.79993 6.30006 9.09993L10.3001 12.2999C10.8001 12.6999 11.5001 12.6999 11.9001 12.2999C11.9001 12.2999 14.8385 9.95603 15.7034 9.26528C15.8345 9.16054 15.8445 8.97666 15.736 8.84863C16.4493 9.60097 17.1693 10.0366 17.4567 10.169C17.4621 10.1712 17.4674 10.1736 17.4726 10.1762C17.4675 10.1739 17.4622 10.1715 17.4567 10.169C17.3526 10.1251 17.232 10.1389 17.1432 10.2099Z" fill="black"/>
<path fill-rule="evenodd" clip-rule="evenodd" d="M19.5 2.7998C18 2.7998 16.7 4.0998 16.7 5.5998C16.7 7.0998 18 8.3998 19.5 8.3998C21 8.3998 22.3 7.0998 22.3 5.5998C22.3 4.0998 21 2.7998 19.5 2.7998Z" fill="black"/>
</svg>