<svg width="24" height="24" viewBox="0 0 24 24" fill="none" xmlns="http://www.w3.org/2000/svg">
<path d="M20.1506 10.4413V8.8398C20.1506 6.20693 18.3925 4.0625 15.7849 4.0625H7.36574C4.75816 4.0625 3 6.20693 3 8.8398V14.7292C3 17.3631 4.75816 19.5046 7.36574 19.4987H11.497" stroke="black" stroke-width="1.5" stroke-linecap="round" stroke-linejoin="round"/>
<path fill-rule="evenodd" clip-rule="evenodd" d="M16.8123 19.8107L16.1215 19.9264C15.6165 20.0111 15.1699 19.5898 15.2254 19.0809L15.3022 18.3677C15.3392 18.0243 15.4832 17.7012 15.7138 17.4424L18.7222 14.1586C19.0784 13.7743 19.6777 13.751 20.062 14.1071L20.6964 14.6948C21.0807 15.0499 21.1041 15.6502 20.748 16.0345L17.7726 19.2814C17.5226 19.5616 17.183 19.7484 16.8123 19.8107Z" stroke="black" stroke-width="1.5" stroke-linecap="round" stroke-linejoin="round"/>
<path d="M16.6366 9.08008L12.8264 12.179C12.1083 12.7482 11.0926 12.7482 10.3745 12.179L6.53125 9.08008" stroke="black" stroke-width="1.5" stroke-linecap="round" stroke-linejoin="round"/>
</svg>