<svg width="24" height="24" viewBox="0 0 24 24" fill="none" xmlns="http://www.w3.org/2000/svg">
<path opacity="0.4" fill-rule="evenodd" clip-rule="evenodd" d="M20.04 7.56503L13.81 3.24503C13.79 3.23503 13.76 3.22503 13.74 3.20503C13.21 2.88503 12.61 2.71503 12 2.72503C11.39 2.71503 10.79 2.88503 10.26 3.20503C10.24 3.22503 10.21 3.23503 10.19 3.24503L3.96001 7.56503C3.00001 8.28503 2.45001 9.34503 2.45001 10.475V16.375C2.45001 19.395 4.40001 21.275 7.55001 21.275H16.45C19.6 21.275 21.55 19.395 21.55 16.375V10.475C21.55 9.34503 21.01 8.28503 20.04 7.56503Z" fill="black"/>
<path fill-rule="evenodd" clip-rule="evenodd" d="M17.77 11.9147L13.77 15.1147C13.23 15.5147 12.61 15.7247 12 15.7247C11.39 15.7247 10.78 15.5247 10.25 15.1247L6.22999 11.9147C5.90999 11.6547 5.85999 11.1747 6.11999 10.8547C6.36999 10.5347 6.84999 10.4847 7.16999 10.7347L11.17 13.9347C11.68 14.3247 12.32 14.3247 12.85 13.9247L16.83 10.7347C17.16 10.4847 17.63 10.5347 17.89 10.8547C18.15 11.1747 18.09 11.6547 17.77 11.9147Z" fill="black"/>
</svg>