<svg width="25" height="24" viewBox="0 0 25 24" fill="none" xmlns="http://www.w3.org/2000/svg">
<path fill-rule="evenodd" clip-rule="evenodd" d="M20.7461 12.8998C20.7461 14.1458 20.2501 14.2498 19.6961 14.2498H19.4511C19.4681 14.0668 19.4961 13.8918 19.4961 13.6998V10.3998C19.4961 10.2058 19.4691 10.0318 19.4531 9.84883H19.6961C20.2501 9.84883 20.7461 9.95283 20.7461 11.1998V12.8998ZM19.6961 8.34883H19.1261C18.4801 6.72683 17.0031 5.79883 14.8961 5.79883H7.59709C4.75909 5.79883 2.99609 7.52383 2.99609 10.2988V13.6998C2.99609 16.4748 4.75909 18.1998 7.59709 18.1998H14.8961C16.9431 18.1998 18.4181 17.2918 19.0881 15.7498H19.6961C20.4631 15.7498 22.2461 15.4718 22.2461 12.8998V11.1998C22.2461 8.62683 20.4631 8.34883 19.6961 8.34883Z" fill="black"/>
</svg>