<svg width="24" height="25" viewBox="0 0 24 25" fill="none" xmlns="http://www.w3.org/2000/svg">
<g opacity="0.4">
<path fill-rule="evenodd" clip-rule="evenodd" d="M10.2517 12.2236V12.2156C10.2477 12.0946 10.2227 11.9776 10.1787 11.8706L10.1757 11.8636L10.1747 11.8606C10.1737 11.8586 10.1737 11.8576 10.1737 11.8576C10.1717 11.8546 10.1717 11.8546 10.1717 11.8546L10.1707 11.8516L10.1697 11.8496L10.1687 11.8466C10.1687 11.8466 10.1677 11.8466 10.1677 11.8436C10.1677 11.8436 10.1667 11.8416 10.1657 11.8396C10.1657 11.8376 10.1647 11.8366 10.1647 11.8366L10.1637 11.8336L10.1627 11.8326L10.1617 11.8306C10.1617 11.8276 10.1607 11.8276 10.1607 11.8276L10.1597 11.8256L10.1577 11.8226L10.1567 11.8196L10.1547 11.8166C10.1067 11.7156 10.0417 11.6216 9.9577 11.5386L7.07969 8.67261C6.68769 8.28261 6.05469 8.28361 5.66569 8.67561C5.27569 9.06661 5.27669 9.69961 5.66869 10.0896L6.83069 11.2466H2.99969C2.44769 11.2466 1.99969 11.6946 1.99969 12.2466C1.99969 12.7996 2.44769 13.2466 2.99969 13.2466H6.83069L5.66869 14.4046C5.27669 14.7946 5.27569 15.4276 5.66569 15.8186C5.86069 16.0156 6.11669 16.1136 6.37369 16.1136C6.6287 16.1136 6.88369 16.0156 7.07969 15.8216L9.9577 12.9556C10.0417 12.8726 10.1067 12.7786 10.1547 12.6776H10.1557C10.1557 12.6756 10.1567 12.6746 10.1567 12.6746L10.1577 12.6716L10.1587 12.6696C10.1587 12.6696 10.1597 12.6686 10.1607 12.6666L10.1617 12.6626C10.1637 12.6616 10.1637 12.6606 10.1637 12.6606V12.6586C10.1647 12.6566 10.1657 12.6556 10.1657 12.6556C10.1657 12.6536 10.1667 12.6526 10.1667 12.6526L10.1677 12.6506L10.1687 12.6486C10.1697 12.6466 10.1697 12.6456 10.1697 12.6456C10.1697 12.6456 10.1697 12.6446 10.1707 12.6426V12.6416L10.1717 12.6396C10.1717 12.6396 10.1727 12.6386 10.1737 12.6366C10.1737 12.6366 10.1737 12.6356 10.1747 12.6336L10.1757 12.6306L10.1787 12.6236C10.2227 12.5166 10.2477 12.3996 10.2517 12.2786V12.2706V12.2676V12.2266V12.2236Z" fill="black"/>
<path fill-rule="evenodd" clip-rule="evenodd" d="M21.0003 11.2507H17.1693L18.3313 10.0947C18.7223 9.70572 18.7243 9.07172 18.3343 8.68072C17.9453 8.28972 17.3123 8.28872 16.9203 8.67772L14.0443 11.5397C14.0383 11.5467 14.0313 11.5537 14.0243 11.5597C13.9413 11.6467 13.8763 11.7457 13.8313 11.8507L13.8303 11.8537C13.8333 11.8537 13.8283 11.8567 13.8283 11.8567L13.8273 11.8587L13.8263 11.8617L13.8253 11.8637C13.7753 11.9827 13.7483 12.1137 13.7483 12.2507C13.7483 12.3877 13.7753 12.5177 13.8243 12.6357C13.8273 12.6407 13.8293 12.6467 13.8313 12.6517L13.8323 12.6537L13.8333 12.6567C13.8343 12.6597 13.8353 12.6597 13.8353 12.6597L13.8363 12.6627L13.8373 12.6657L13.8383 12.6677C13.8383 12.6677 13.8393 12.6677 13.8403 12.6707L13.8413 12.6737C13.8423 12.6757 13.8413 12.6757 13.8433 12.6767L13.8443 12.6797L13.8453 12.6827C13.8473 12.6837 13.8473 12.6857 13.8473 12.6857L13.8483 12.6877C13.8483 12.6877 13.8483 12.6907 13.8503 12.6907C13.8513 12.6947 13.8513 12.6937 13.8513 12.6937L13.8523 12.6947L13.8533 12.6977C13.8543 12.6997 13.8543 12.7007 13.8543 12.7007L13.8553 12.7027L13.8563 12.7057C13.8563 12.7057 13.8573 12.7067 13.8583 12.7087L13.8593 12.7107L13.8613 12.7137C13.9043 12.7967 13.9593 12.8747 14.0273 12.9447L14.0303 12.9467L14.0323 12.9487L14.0343 12.9517L14.0353 12.9527L14.0373 12.9537L14.0393 12.9567L14.0413 12.9587L14.0423 12.9597L16.9203 15.8257C17.1153 16.0197 17.3703 16.1167 17.6253 16.1167C17.8823 16.1167 18.1393 16.0187 18.3343 15.8227C18.7243 15.4317 18.7233 14.7977 18.3313 14.4087L17.1693 13.2507H21.0003C21.5523 13.2507 22.0003 12.8027 22.0003 12.2507C22.0003 11.6987 21.5523 11.2507 21.0003 11.2507Z" fill="black"/>
</g>
<path fill-rule="evenodd" clip-rule="evenodd" d="M11.9998 4.5918C11.4478 4.5918 10.9998 5.0398 10.9998 5.5918V18.9078C10.9998 19.4608 11.4478 19.9078 11.9998 19.9078C12.5518 19.9078 12.9998 19.4608 12.9998 18.9078V5.5918C12.9998 5.0398 12.5518 4.5918 11.9998 4.5918Z" fill="black"/>
</svg>