<svg width="24" height="25" viewBox="0 0 24 25" fill="none" xmlns="http://www.w3.org/2000/svg">
<path opacity="0.4" fill-rule="evenodd" clip-rule="evenodd" d="M15.974 2.75H8.026C4.72 2.75 2.5 4.873 2.5 8.034V16.468C2.5 19.627 4.72 21.75 8.026 21.75H15.974C19.279 21.75 21.5 19.627 21.5 16.468V8.033C21.5 4.873 19.279 2.75 15.974 2.75Z" fill="black"/>
<path fill-rule="evenodd" clip-rule="evenodd" d="M16.762 12.9997H7.23901C6.82401 12.9997 6.48901 12.6637 6.48901 12.2497C6.48901 11.8357 6.82401 11.4997 7.23901 11.4997H16.762C17.176 11.4997 17.512 11.8357 17.512 12.2497C17.512 12.6637 17.176 12.9997 16.762 12.9997ZM14.674 18.0717C14.528 18.2187 14.335 18.2917 14.144 18.2917C13.951 18.2917 13.76 18.2187 13.614 18.0717L11.998 16.4567L10.383 18.0717C10.09 18.3647 9.61601 18.3647 9.32301 18.0717C9.03001 17.7787 9.03001 17.3047 9.32301 17.0117L11.468 14.8657C11.749 14.5837 12.247 14.5837 12.529 14.8657L14.674 17.0117C14.967 17.3047 14.967 17.7787 14.674 18.0717ZM9.32401 6.43069C9.61601 6.13769 10.091 6.13769 10.384 6.43069L11.999 8.04469L13.614 6.43069C13.907 6.13769 14.381 6.13769 14.674 6.43069C14.967 6.72369 14.967 7.19769 14.674 7.49069L12.53 9.63569C12.389 9.77669 12.199 9.85569 11.999 9.85569C11.8 9.85569 11.61 9.77669 11.469 9.63569L9.32401 7.49069C9.03101 7.19769 9.03101 6.72369 9.32401 6.43069Z" fill="black"/>
</svg>