<svg width="24" height="24" viewBox="0 0 24 24" fill="none" xmlns="http://www.w3.org/2000/svg">
<path fill-rule="evenodd" clip-rule="evenodd" d="M3.75 11.9999C3.75 11.5857 4.08579 11.2499 4.5 11.2499H19.5C19.9142 11.2499 20.25 11.5857 20.25 11.9999C20.25 12.4141 19.9142 12.7499 19.5 12.7499H4.5C4.08579 12.7499 3.75 12.4141 3.75 11.9999Z" fill="black"/>
<path fill-rule="evenodd" clip-rule="evenodd" d="M12.0001 15.7969C12.199 15.7969 12.3898 15.8759 12.5304 16.0165L15.9837 19.4698C16.2766 19.7627 16.2766 20.2375 15.9837 20.5304C15.6908 20.8233 15.2159 20.8233 14.923 20.5304L12.0001 17.6075L9.07721 20.5304C8.78431 20.8233 8.30944 20.8233 8.01654 20.5304C7.72365 20.2375 7.72365 19.7627 8.01654 19.4698L11.4698 16.0165C11.6104 15.8759 11.8012 15.7969 12.0001 15.7969Z" fill="black"/>
<path fill-rule="evenodd" clip-rule="evenodd" d="M8.01654 3.46967C8.30944 3.17678 8.78431 3.17678 9.07721 3.46967L12.0001 6.39257L14.923 3.46967C15.2159 3.17678 15.6908 3.17678 15.9837 3.46967C16.2766 3.76256 16.2766 4.23744 15.9837 4.53033L12.5304 7.98356C12.2375 8.27645 11.7627 8.27645 11.4698 7.98356L8.01654 4.53033C7.72365 4.23744 7.72365 3.76256 8.01654 3.46967Z" fill="black"/>
</svg>