<svg width="24" height="24" viewBox="0 0 24 24" fill="none" xmlns="http://www.w3.org/2000/svg">
<path fill-rule="evenodd" clip-rule="evenodd" d="M3.7402 3.89737C4.72468 2.84117 6.12669 2.25 7.78216 2.25H16.2169C17.8762 2.25 19.2788 2.84084 20.2629 3.89765C21.2413 4.94841 21.75 6.39889 21.75 8.02638V15.9736C21.75 17.6011 21.2413 19.0516 20.2627 20.1024C19.2785 21.1592 17.8756 21.75 16.2159 21.75H7.78216C6.1228 21.75 4.72038 21.1591 3.73657 20.1023C2.75842 19.0515 2.25 17.601 2.25 15.9736V8.02638C2.25 6.39806 2.76117 4.94771 3.7402 3.89737ZM4.83745 4.92012C4.16024 5.64666 3.75 6.70951 3.75 8.02638V15.9736C3.75 17.2914 4.15861 18.3541 4.83451 19.0802C5.50475 19.8003 6.49341 20.25 7.78216 20.25H16.2159C17.5052 20.25 18.4944 19.8002 19.165 19.0801C19.8412 18.354 20.25 17.2913 20.25 15.9736V8.02638C20.25 6.70868 19.8412 5.64597 19.1651 4.91984C18.4946 4.19975 17.5056 3.75 16.2169 3.75H7.78216C6.49828 3.75 5.50921 4.19943 4.83745 4.92012Z" fill="black"/>
<path fill-rule="evenodd" clip-rule="evenodd" d="M14.9587 6.525C15.1042 6.50733 15.2517 6.53268 15.383 6.59792C15.7528 6.78174 15.9235 7.10844 16.0222 7.29729C16.0307 7.31354 16.0386 7.32877 16.0461 7.34281C17.1985 9.49695 17.3557 11.977 16.6376 13.9528C15.9112 15.9511 14.254 17.4813 11.8419 17.4813C7.98695 17.4813 5.59582 13.2951 7.7407 9.40546C7.88669 9.14072 8.17735 8.98952 8.47792 9.02195C8.7785 9.05438 9.03022 9.26411 9.11637 9.5539C9.32133 10.2433 9.57235 10.7604 9.80882 11.1398C10.0146 10.4928 10.3229 9.7906 10.7661 9.13094C11.6044 7.8831 12.9423 6.76994 14.9587 6.525ZM10.2296 12.7105C9.84847 13.3564 9.84809 13.3562 9.84771 13.356L9.84692 13.3555L9.84526 13.3545L9.84161 13.3523L9.83305 13.3471L9.811 13.3332C9.79416 13.3224 9.77312 13.3084 9.7483 13.2911C9.69865 13.2563 9.63388 13.208 9.55742 13.1442C9.4044 13.0166 9.20504 12.8277 8.98674 12.5631C8.81964 12.3605 8.64273 12.1152 8.4676 11.8213C8.1304 14.1361 9.77773 15.9813 11.8419 15.9813C13.4996 15.9813 14.6714 14.971 15.2278 13.4403C15.7893 11.8956 15.6873 9.872 14.7391 8.07978C13.4645 8.34566 12.6001 9.09092 12.0112 9.96744C11.3495 10.9523 11.0539 12.0836 10.975 12.7933C10.9469 13.0462 10.7925 13.2676 10.565 13.3814C10.3374 13.4951 10.0676 13.4857 9.84847 13.3564L10.2296 12.7105Z" fill="black"/>
</svg>