<svg width="24" height="24" viewBox="0 0 24 24" fill="none" xmlns="http://www.w3.org/2000/svg">
<path d="M6.25911 9.94681C6.22003 11.1442 6.36759 12.4698 6.87005 13.5883C7.1229 14.1512 7.24933 14.4326 7.47457 14.3937C7.6998 14.3549 7.72297 14.0025 7.76931 13.2976C8.07329 8.67388 12.0559 3.73879 16.7114 3.0599C17.1812 2.9914 17.4161 2.95713 17.6926 3.09451C17.969 3.23189 18.0886 3.45548 18.3278 3.90266C22.3303 11.3845 19.3249 21 11.6233 21C5.56365 21 1.94713 13.9731 5.01323 9.37518C5.5019 8.64239 5.74623 8.276 6.02712 8.36233C6.30801 8.44868 6.29171 8.94806 6.25911 9.94681Z" stroke="black" stroke-width="1.5" stroke-linejoin="round"/>
</svg>