<svg width="24" height="24" viewBox="0 0 24 24" fill="none" xmlns="http://www.w3.org/2000/svg">
<path opacity="0.4" d="M12 21C16.9709 21 21 16.9709 21 12C21 7.02908 16.9709 3 12 3C7.02908 3 3 7.02908 3 12C3 16.9709 7.02908 21 12 21Z" stroke="black" stroke-width="1.5" stroke-linecap="round" stroke-linejoin="round"/>
<path d="M15.3849 7.69658C15.2585 7.46028 15.1952 7.34212 15.0492 7.26953C11.5358 7.69632 10.4077 11.1082 10.2297 12.7105C10.2297 12.7105 9.06877 12.0255 8.39751 9.76762C6.48763 13.2311 8.6399 16.7313 11.842 16.7313C15.9118 16.7313 17.4999 11.6502 15.3849 7.69658Z" stroke="black" stroke-width="1.5" stroke-linejoin="round"/>
</svg>