<svg width="25" height="24" viewBox="0 0 25 24" fill="none" xmlns="http://www.w3.org/2000/svg">
<path fill-rule="evenodd" clip-rule="evenodd" d="M9.45951 3.75C9.05951 3.75 8.67575 3.90874 8.3938 4.19134L4.44195 8.1432C4.15898 8.42617 4 8.80961 4 9.20854V14.7905C4 15.1898 4.15922 15.5741 4.44195 15.8568L8.3932 19.808C8.67592 20.0908 9.06024 20.25 9.45951 20.25H15.0405C15.4406 20.25 15.824 20.0909 16.1068 19.808L20.059 15.8568C20.3412 15.5747 20.5 15.1906 20.5 14.7905V9.20854C20.5 8.80879 20.3414 8.42558 20.059 8.1432L16.1069 4.19202C15.8248 3.9093 15.4413 3.75 15.0405 3.75H9.45951ZM7.33229 3.13154C7.89679 2.56593 8.66294 2.25 9.45951 2.25H15.0405C15.8381 2.25 16.6031 2.56594 17.1674 3.13123L21.1196 7.08247C21.6837 7.64657 22 8.41154 22 9.20854V14.7905C22 15.5871 21.684 16.3531 21.1197 16.9175L17.1675 20.8687C17.1674 20.8687 17.1675 20.8687 17.1675 20.8687C16.6038 21.4323 15.8391 21.75 15.0405 21.75H9.45951C8.66203 21.75 7.89629 21.4325 7.33253 20.8687L3.38129 16.9175C2.81754 16.3537 2.5 15.588 2.5 14.7905V9.20854C2.5 8.41071 2.81778 7.64605 3.38129 7.08253L7.33229 3.13154C7.33217 3.13166 7.33241 3.13141 7.33229 3.13154Z" fill="black"/>
<path fill-rule="evenodd" clip-rule="evenodd" d="M12.25 7.35742C12.6642 7.35742 13 7.69321 13 8.10742V11.9993C13 12.4135 12.6642 12.7493 12.25 12.7493C11.8358 12.7493 11.5 12.4135 11.5 11.9993V8.10742C11.5 7.69321 11.8358 7.35742 12.25 7.35742ZM12.25 14.9435C12.6642 14.9435 13 15.2793 13 15.6935V15.7412C13 16.1554 12.6642 16.4912 12.25 16.4912C11.8358 16.4912 11.5 16.1554 11.5 15.7412V15.6935C11.5 15.2793 11.8358 14.9435 12.25 14.9435Z" fill="black"/>
</svg>