<svg width="25" height="24" viewBox="0 0 25 24" fill="none" xmlns="http://www.w3.org/2000/svg">
<path d="M12.1878 21.7553C11.5692 21.7438 10.9592 21.6086 10.3937 21.3577C9.82811 21.1068 9.31847 20.7452 8.89481 20.2943L3.93684 15.3373C3.4716 14.8941 3.10381 14.3588 2.85694 13.7656C2.61007 13.1723 2.48951 12.5342 2.50297 11.8918C2.51642 11.2494 2.6636 10.6168 2.9351 10.0344C3.20659 9.45206 3.59643 8.93265 4.07981 8.50932L8.75281 3.83729C9.63591 2.8928 10.8481 2.32361 12.1388 2.24729C12.7818 2.23255 13.4206 2.35385 14.0134 2.60322C14.6063 2.85259 15.1397 3.22441 15.5788 3.69431L20.5368 8.65131C21.0094 9.09024 21.3838 9.62415 21.6354 10.218C21.8871 10.8119 22.0102 11.4523 21.9968 12.0971C21.9834 12.742 21.8337 13.3767 21.5576 13.9596C21.2815 14.5425 20.8852 15.0604 20.3948 15.4793L15.7228 20.1513C15.2696 20.64 14.7236 21.0335 14.1167 21.3089C13.5097 21.5843 12.854 21.736 12.1878 21.7553ZM4.99781 14.2763L9.95481 19.2333C10.2554 19.5651 10.6245 19.8277 11.0364 20.003C11.4484 20.1783 11.8936 20.2621 12.3411 20.2486C12.7886 20.2351 13.2279 20.1247 13.6285 19.9248C14.0292 19.725 14.3818 19.4406 14.6618 19.0913L19.3338 14.4193C19.6834 14.1394 19.968 13.7868 20.1679 13.3861C20.3678 12.9854 20.4783 12.546 20.4917 12.0984C20.5051 11.6507 20.4211 11.2055 20.2456 10.7936C20.07 10.3816 19.807 10.0126 19.4748 9.71229L14.5168 4.75529C14.2207 4.43441 13.8609 4.17892 13.4604 4.00517C13.0598 3.83141 12.6274 3.74326 12.1908 3.74632C11.2801 3.81263 10.4291 4.22436 9.81184 4.89732L5.13984 9.56931C4.79501 9.85237 4.51475 10.2059 4.31797 10.6063C4.12119 11.0067 4.01242 11.4446 3.99897 11.8905C3.98552 12.3364 4.06771 12.7801 4.24 13.1916C4.41229 13.6031 4.67067 13.973 4.99781 14.2763Z" fill="black"/>
<path d="M12.2363 16.1776C12.1395 16.181 12.043 16.165 11.9524 16.1305C11.8619 16.096 11.7792 16.0437 11.7093 15.9766C11.6394 15.9096 11.5836 15.8292 11.5453 15.7402C11.507 15.6512 11.4869 15.5554 11.4863 15.4585V15.3945C11.4863 15.1956 11.5653 15.0048 11.706 14.8642C11.8466 14.7235 12.0374 14.6445 12.2363 14.6445C12.4352 14.6445 12.626 14.7235 12.7667 14.8642C12.9073 15.0048 12.9863 15.1956 12.9863 15.3945C12.988 15.597 12.9106 15.7922 12.7705 15.9385C12.6304 16.0847 12.4387 16.1705 12.2363 16.1776ZM12.2363 12.7445C12.0374 12.7445 11.8466 12.6655 11.706 12.5249C11.5653 12.3842 11.4863 12.1934 11.4863 11.9945V8.39453C11.4863 8.19562 11.5653 8.00485 11.706 7.8642C11.8466 7.72354 12.0374 7.64453 12.2363 7.64453C12.4352 7.64453 12.626 7.72354 12.7667 7.8642C12.9073 8.00485 12.9863 8.19562 12.9863 8.39453V11.9945C12.9863 12.1934 12.9073 12.3842 12.7667 12.5249C12.626 12.6655 12.4352 12.7445 12.2363 12.7445Z" fill="black"/>
</svg>