<svg width="24" height="24" viewBox="0 0 24 24" fill="none" xmlns="http://www.w3.org/2000/svg">
<path fill-rule="evenodd" clip-rule="evenodd" d="M5.07003 10.7856L10.655 3.30365C10.845 3.04865 11.25 3.18265 11.25 3.50065V13.6126C11.25 13.8506 11.007 14.0106 10.789 13.9166L5.27003 11.5356C5.13003 11.4756 5.02003 11.3556 4.98003 11.2056C4.94003 11.0656 4.97003 10.9056 5.07003 10.7856Z" fill="black"/>
<path fill-rule="evenodd" clip-rule="evenodd" d="M19.02 11.2059C18.98 11.3559 18.87 11.4759 18.73 11.5359L13.211 13.9169C12.993 14.0109 12.75 13.8509 12.75 13.6129V3.50089C12.75 3.18289 13.155 3.04889 13.345 3.30389L18.93 10.7859C19.03 10.9059 19.06 11.0659 19.02 11.2059Z" fill="black"/>
<path fill-rule="evenodd" clip-rule="evenodd" d="M18.9491 13.763C18.8141 13.562 18.5561 13.485 18.3341 13.581L12.1311 16.269C12.0471 16.305 11.9521 16.305 11.8681 16.269L5.66513 13.581C5.44413 13.485 5.18513 13.562 5.05113 13.763C4.91613 13.965 4.94613 14.233 5.12013 14.401L11.6531 20.691C11.7501 20.784 11.8751 20.83 12.0001 20.83C12.1251 20.83 12.2501 20.784 12.3461 20.691L18.8801 14.401C19.0541 14.233 19.0831 13.965 18.9491 13.763Z" fill="black"/>
</svg>