<svg width="25" height="24" viewBox="0 0 25 24" fill="none" xmlns="http://www.w3.org/2000/svg">
<g opacity="0.4">
<path fill-rule="evenodd" clip-rule="evenodd" d="M5.57003 10.7856L11.155 3.30365C11.345 3.04865 11.75 3.18265 11.75 3.50065V13.6126C11.75 13.8506 11.507 14.0106 11.289 13.9166L5.77003 11.5356C5.63003 11.4756 5.52003 11.3556 5.48003 11.2056C5.44003 11.0656 5.47003 10.9056 5.57003 10.7856Z" fill="black"/>
<path fill-rule="evenodd" clip-rule="evenodd" d="M19.52 11.2059C19.48 11.3559 19.37 11.4759 19.23 11.5359L13.711 13.9169C13.493 14.0109 13.25 13.8509 13.25 13.6129V3.50089C13.25 3.18289 13.655 3.04889 13.845 3.30389L19.43 10.7859C19.53 10.9059 19.56 11.0659 19.52 11.2059Z" fill="black"/>
</g>
<path fill-rule="evenodd" clip-rule="evenodd" d="M19.4491 13.7621C19.3141 13.5611 19.0561 13.4841 18.8341 13.5801L12.6311 16.2681C12.5471 16.3041 12.4521 16.3041 12.3681 16.2681L6.16513 13.5801C5.94413 13.4841 5.68513 13.5611 5.55113 13.7621C5.41613 13.9641 5.44613 14.2321 5.62013 14.4001L12.1531 20.6901C12.2501 20.7831 12.3751 20.8291 12.5001 20.8291C12.6251 20.8291 12.7501 20.7831 12.8461 20.6901L19.3801 14.4001C19.5541 14.2321 19.5831 13.9641 19.4491 13.7621Z" fill="black"/>
</svg>