<svg width="24" height="25" viewBox="0 0 24 25" fill="none" xmlns="http://www.w3.org/2000/svg">
<g opacity="0.4">
<path d="M10.384 12.8171C10.302 12.3131 10.302 11.8021 10.385 11.2971H8.37403C8.31803 11.8021 8.31803 12.3121 8.37403 12.8171H10.384Z" fill="black"/>
<path d="M11.211 9.29712C12.228 7.84912 13.894 7.01512 15.71 7.06612C16.227 7.10812 16.726 6.65912 16.747 6.10512C16.769 5.55312 16.339 5.08912 15.786 5.06812C13.081 4.96212 10.541 6.36312 9.19403 8.72712C9.09003 8.91212 9.00703 9.10512 8.92103 9.29712H11.211Z" fill="black"/>
<path d="M15.71 17.0581C13.888 17.0981 12.227 16.2671 11.21 14.8171H8.92103L8.93173 14.8413C9.01412 15.0272 9.09639 15.2129 9.19703 15.3921C10.497 17.6741 12.895 19.0621 15.503 19.0621C15.597 19.0621 15.691 19.0601 15.786 19.0561C16.339 19.0351 16.769 18.5711 16.747 18.0191C16.726 17.4661 16.227 17.0071 15.71 17.0581Z" fill="black"/>
</g>
<path d="M15.2482 14.8169H11.2102H8.2522C7.6992 14.8169 7.2522 14.3699 7.2522 13.8169C7.2522 13.2639 7.6992 12.8169 8.2522 12.8169H10.3842H15.2482C15.8012 12.8169 16.2482 13.2639 16.2482 13.8169C16.2482 14.3699 15.8012 14.8169 15.2482 14.8169Z" fill="black"/>
<path d="M15.2482 11.2969H10.3852H8.2522C7.6992 11.2969 7.2522 10.8499 7.2522 10.2969C7.2522 9.74487 7.6992 9.29688 8.2522 9.29688H8.9212H11.2112H15.2482C15.8012 9.29688 16.2482 9.74487 16.2482 10.2969C16.2482 10.8499 15.8012 11.2969 15.2482 11.2969Z" fill="black"/>
</svg>