<svg width="24" height="25" viewBox="0 0 24 25" fill="none" xmlns="http://www.w3.org/2000/svg">
<path fill-rule="evenodd" clip-rule="evenodd" d="M15.71 17.0581C13.888 17.0981 12.227 16.2671 11.21 14.8171H15.248C15.801 14.8171 16.248 14.3701 16.248 13.8171C16.248 13.2641 15.801 12.8171 15.248 12.8171H10.384C10.302 12.3131 10.302 11.8021 10.385 11.2971H15.248C15.801 11.2971 16.248 10.8501 16.248 10.2971C16.248 9.74512 15.801 9.29712 15.248 9.29712H11.211C12.228 7.84912 13.894 7.01512 15.71 7.06612C16.227 7.10812 16.726 6.65912 16.747 6.10512C16.769 5.55312 16.339 5.08912 15.786 5.06812C13.081 4.96212 10.541 6.36312 9.19395 8.72712C9.08995 8.91212 9.00695 9.10512 8.92095 9.29712H8.25195C7.69895 9.29712 7.25195 9.74512 7.25195 10.2971C7.25195 10.8501 7.69895 11.2971 8.25195 11.2971H8.37395C8.31795 11.8021 8.31795 12.3121 8.37395 12.8171H8.25195C7.69895 12.8171 7.25195 13.2641 7.25195 13.8171C7.25195 14.3701 7.69895 14.8171 8.25195 14.8171H8.92095C9.00695 15.0111 9.09195 15.2051 9.19695 15.3921C10.497 17.6741 12.895 19.0621 15.503 19.0621C15.597 19.0621 15.691 19.0601 15.786 19.0561C16.339 19.0351 16.769 18.5711 16.747 18.0191C16.726 17.4661 16.227 17.0071 15.71 17.0581Z" fill="black"/>
</svg>