<svg width="24" height="25" viewBox="0 0 24 25" fill="none" xmlns="http://www.w3.org/2000/svg">
<path fill-rule="evenodd" clip-rule="evenodd" d="M12.841 10.2525C13.255 10.2525 13.591 10.5885 13.591 11.0025C13.591 11.4165 13.255 11.7525 12.841 11.7525H10.045C10.021 11.9635 10.021 12.1715 10.045 12.3825H12.841C13.255 12.3825 13.591 12.7185 13.591 13.1325C13.591 13.5465 13.255 13.8825 12.841 13.8825H10.696C11.293 14.5825 12.173 14.9785 13.112 14.9425C13.492 14.9075 13.876 15.2455 13.894 15.6595C13.911 16.0735 13.591 16.4235 13.177 16.4405C13.112 16.4435 13.046 16.4455 12.981 16.4455C11.358 16.4455 9.866 15.5805 9.055 14.1535C9.005 14.0655 8.967 13.9735 8.924 13.8825H8.606C8.192 13.8825 7.856 13.5465 7.856 13.1325C7.856 12.7455 8.152 12.4385 8.528 12.3985C8.511 12.1775 8.511 11.9575 8.528 11.7365C8.152 11.6955 7.856 11.3885 7.856 11.0025C7.856 10.5885 8.192 10.2525 8.606 10.2525H8.919C8.963 10.1595 9.002 10.0645 9.053 9.9745C9.9 8.4995 11.485 7.6715 13.171 7.6825C13.585 7.6965 13.908 8.0445 13.895 8.4585C13.88 8.8725 13.531 9.1915 13.118 9.1825C12.18 9.1255 11.29 9.5455 10.69 10.2525H12.841ZM12 2.5625C6.762 2.5625 2.5 6.8235 2.5 12.0625C2.5 17.3005 6.762 21.5625 12 21.5625C17.238 21.5625 21.5 17.3005 21.5 12.0625C21.5 6.8235 17.238 2.5625 12 2.5625Z" fill="black"/>
</svg>