<svg width="24" height="25" viewBox="0 0 24 25" fill="none" xmlns="http://www.w3.org/2000/svg">
<path opacity="0.4" fill-rule="evenodd" clip-rule="evenodd" d="M16.217 2.5625H7.782C4.623 2.5625 2.5 4.7855 2.5 8.0925V16.0435C2.5 19.3445 4.623 21.5625 7.782 21.5625H16.216C19.376 21.5625 21.5 19.3445 21.5 16.0435V8.0925C21.5 4.7855 19.377 2.5625 16.217 2.5625Z" fill="black"/>
<path d="M14.501 10.942C14.501 10.528 14.165 10.192 13.751 10.192H11.405C12.049 9.40798 13.039 8.96798 14.041 8.99098C14.458 9.03198 14.805 8.68598 14.82 8.27198C14.837 7.85798 14.516 7.50898 14.102 7.49298C12.343 7.41398 10.682 8.33598 9.79597 9.88498C9.73997 9.98498 9.69697 10.089 9.64997 10.192H9.29297C8.87897 10.192 8.54297 10.528 8.54297 10.942C8.54297 11.342 8.85897 11.662 9.25297 11.684C9.23097 11.939 9.23197 12.195 9.25297 12.45C8.85897 12.472 8.54297 12.792 8.54297 13.192C8.54297 13.606 8.87897 13.942 9.29297 13.942H9.65297C9.69997 14.043 9.74297 14.145 9.79797 14.243C10.643 15.731 12.204 16.635 13.908 16.635C13.973 16.635 14.037 16.634 14.102 16.631C14.516 16.615 14.837 16.266 14.82 15.852C14.805 15.439 14.462 15.091 14.041 15.133C13.019 15.143 12.076 14.705 11.441 13.942H13.751C14.165 13.942 14.501 13.606 14.501 13.192C14.501 12.778 14.165 12.442 13.751 12.442H10.771C10.738 12.192 10.737 11.943 10.77 11.692H13.751C14.165 11.692 14.501 11.356 14.501 10.942Z" fill="black"/>
</svg>