<svg width="24" height="24" viewBox="0 0 24 24" fill="none" xmlns="http://www.w3.org/2000/svg">
<path d="M9.88451 8.12109H6.41988C4.31347 8.12109 3 9.61553 3 11.721V17.4088C3 19.5142 4.30471 20.9999 6.41988 20.9999H12.4492C14.5643 20.9999 15.8778 19.5142 15.8778 17.4088V13.8449" stroke="black" stroke-width="1.5" stroke-linecap="round" stroke-linejoin="round"/>
<path d="M10.9922 15.8797C9.36937 15.832 8.30401 14.7657 8.12109 13.2148" stroke="black" stroke-width="1.5" stroke-linecap="round" stroke-linejoin="round"/>
<path d="M13.0059 8.12109C14.6287 8.16877 15.6941 9.23511 15.877 10.786" stroke="black" stroke-width="1.5" stroke-linecap="round" stroke-linejoin="round"/>
<path d="M13.4849 15.8788H17.5703C19.6854 15.8788 20.9999 14.3941 20.9999 12.2877V6.59987C20.9999 4.49443 19.6854 3 17.5703 3H11.541C9.43553 3 8.12109 4.49443 8.12109 6.59987V10.2445" stroke="black" stroke-width="1.5" stroke-linecap="round" stroke-linejoin="round"/>
</svg>