<svg width="25" height="24" viewBox="0 0 25 24" fill="none" xmlns="http://www.w3.org/2000/svg">
<path d="M10.3845 8.12109H6.91988C4.81347 8.12109 3.5 9.61553 3.5 11.721V17.4088C3.5 19.5142 4.80471 20.9999 6.91988 20.9999H12.9492C15.0643 20.9999 16.3778 19.5142 16.3778 17.4088V13.8449" stroke="black" stroke-width="1.5" stroke-linecap="round" stroke-linejoin="round"/>
<path opacity="0.4" d="M11.4922 15.8797C9.86937 15.832 8.80401 14.7657 8.62109 13.2148" stroke="black" stroke-width="1.5" stroke-linecap="round" stroke-linejoin="round"/>
<path opacity="0.4" d="M13.5059 8.12109C15.1287 8.16877 16.1941 9.23511 16.377 10.786" stroke="black" stroke-width="1.5" stroke-linecap="round" stroke-linejoin="round"/>
<path d="M13.9849 15.8788H18.0703C20.1854 15.8788 21.4999 14.3941 21.4999 12.2877V6.59987C21.4999 4.49443 20.1854 3 18.0703 3H12.041C9.93553 3 8.62109 4.49443 8.62109 6.59987V10.2445" stroke="black" stroke-width="1.5" stroke-linecap="round" stroke-linejoin="round"/>
</svg>