<svg width="24" height="25" viewBox="0 0 24 25" fill="none" xmlns="http://www.w3.org/2000/svg">
<path fill-rule="evenodd" clip-rule="evenodd" d="M17.361 12.3048C17.359 12.6748 17.059 12.9738 16.689 12.9738C16.319 12.9738 16.019 12.6748 16.017 12.3048L16.016 12.1808C16.016 9.93881 14.646 8.48981 12.526 8.48981H11.899C11.897 8.48981 11.895 8.48981 11.892 8.48981H11.885C11.8845 8.48981 11.884 8.48936 11.884 8.4888C11.884 8.48825 11.8836 8.4878 11.883 8.48779C11.5195 8.47928 11.227 8.18448 11.227 7.81881C11.227 7.45365 11.5187 7.15916 11.8815 7.14987C11.8829 7.14984 11.884 7.14871 11.884 7.14734C11.884 7.14594 11.8851 7.14481 11.8865 7.14481H12.571C15.436 7.14481 17.361 9.15781 17.361 12.1528V12.3048ZM11.615 17.8678C11.6144 17.8678 11.614 17.8683 11.614 17.8688C11.614 17.8694 11.6135 17.8698 11.613 17.8698H11.425C8.64527 17.8698 6.76736 15.9642 6.65903 13.1136C6.65901 13.1132 6.65864 13.1128 6.65818 13.1128C6.6576 13.1128 6.65719 13.1122 6.65737 13.1117L6.6579 13.1101C6.6579 13.1103 6.65796 13.1099 6.6579 13.1101C6.65786 13.1059 6.65725 13.1011 6.65705 13.0968C6.657 13.0957 6.65791 13.0948 6.65903 13.0948C6.66013 13.0948 6.66102 13.0939 6.66106 13.0928C6.67207 12.7317 6.96567 12.4408 7.33 12.4408C7.69414 12.4408 7.98762 12.7314 7.99793 13.0923C7.99797 13.0937 7.99912 13.0948 8.00053 13.0948C8.00192 13.0948 8.00306 13.0959 8.00313 13.0973C8.11006 15.1839 9.43881 16.5248 11.471 16.5248H11.613C11.6135 16.5248 11.614 16.5253 11.614 16.5258C11.614 16.5264 11.6144 16.5268 11.615 16.5268C11.9815 16.5324 12.277 16.8291 12.277 17.1978C12.277 17.5645 11.9815 17.8613 11.615 17.8678ZM17.578 3.00781H11.542C9.23737 3.00781 7.72739 4.74804 7.64092 6.94478C7.63658 7.05515 7.72654 7.14481 7.837 7.14481H9.51649C9.51732 7.14481 9.518 7.14549 9.518 7.14632C9.518 7.14715 9.51867 7.14782 9.5195 7.14783C9.88581 7.15362 10.182 7.45031 10.182 7.81781C10.182 8.18581 9.885 8.48381 9.518 8.48881C9.51334 8.48948 9.50864 8.48981 9.50393 8.48981H8.182C8.07154 8.48981 7.982 8.57936 7.982 8.68981V10.3848C7.979 10.7528 7.679 11.0508 7.31 11.0508C6.94133 11.0508 6.64354 10.7534 6.63901 10.3858C6.639 10.3853 6.63856 10.3848 6.63801 10.3848C6.63745 10.3848 6.637 10.3844 6.637 10.3838V8.34481C6.637 8.23436 6.54723 8.1444 6.43686 8.1486C4.14027 8.23609 2.5 9.83146 2.5 12.2248V17.9118C2.5 20.3618 4.076 22.0088 6.421 22.0088H12.456C14.7624 22.0088 16.2707 20.2675 16.3571 18.0699C16.3614 17.9595 16.2715 17.8698 16.161 17.8698H14.007C14.0065 17.8698 14.006 17.8694 14.006 17.8688C14.006 17.8683 14.0056 17.8678 14.005 17.8678C13.6415 17.8593 13.348 17.5635 13.348 17.1978C13.348 16.8325 13.6409 16.5379 14.004 16.5289C14.0051 16.5288 14.006 16.5279 14.006 16.5268C14.006 16.5257 14.0069 16.5248 14.008 16.5248H15.816C15.9265 16.5248 16.016 16.4353 16.016 16.3248V14.9199C16.016 14.9182 16.0174 14.9168 16.0191 14.9168C16.0207 14.9168 16.022 14.9155 16.0221 14.9139C16.0366 14.5552 16.327 14.2678 16.689 14.2678C17.0512 14.2678 17.3417 14.5555 17.3559 14.9143C17.356 14.9157 17.3571 14.9168 17.3585 14.9168C17.3599 14.9168 17.361 14.918 17.361 14.9194V16.6698C17.361 16.7803 17.4508 16.8702 17.5611 16.866C19.8572 16.7786 21.5 15.1848 21.5 12.7908V7.10381C21.5 4.65381 19.924 3.00781 17.578 3.00781Z" fill="black"/>
</svg>