<svg width="24" height="24" viewBox="0 0 24 24" fill="none" xmlns="http://www.w3.org/2000/svg">
<path fill-rule="evenodd" clip-rule="evenodd" d="M7.40862 3.5C6.47635 3.5 5.75 4.23429 5.75 5.10422L5.75 20.3158C5.75 20.73 5.41421 21.0658 5 21.0658C4.58579 21.0658 4.25 20.73 4.25 20.3158L4.25 5.10422C4.25 3.37375 5.68041 2 7.40862 2L16.5914 2C18.3196 2 19.75 3.37375 19.75 5.10422L19.75 17.437C19.75 17.8512 19.4142 18.187 19 18.187C18.5858 18.187 18.25 17.8512 18.25 17.437L18.25 5.10422C18.25 4.23429 17.5237 3.5 16.5914 3.5L7.40862 3.5Z" fill="black"/>
<path fill-rule="evenodd" clip-rule="evenodd" d="M15.698 2.81692C17.767 2.39752 19.7499 3.93772 19.7499 6.05556V18.6921C19.7499 20.8099 17.767 22.3501 15.698 21.9307L10.5666 20.8905L10.7156 20.1555L10.5666 20.8905C9.01342 20.5757 7.87842 19.2327 7.87842 17.6519V7.09577C7.87842 5.51495 9.01342 4.17198 10.5666 3.85713L15.698 2.81692ZM18.2499 6.05556C18.2499 4.93074 17.1802 4.04697 15.996 4.28702L10.8646 5.32723C9.98644 5.50525 9.37842 6.25303 9.37842 7.09577V17.6519C9.37842 18.4946 9.98644 19.2424 10.8646 19.4204L15.996 20.4606C17.1802 20.7007 18.2499 19.8169 18.2499 18.6921V6.05556Z" fill="black"/>
<path fill-rule="evenodd" clip-rule="evenodd" d="M12 10.783C12.4142 10.783 12.75 11.1187 12.75 11.533V13.2149C12.75 13.6291 12.4142 13.9649 12 13.9649C11.5858 13.9649 11.25 13.6291 11.25 13.2149V11.533C11.25 11.1187 11.5858 10.783 12 10.783Z" fill="black"/>
</svg>