<svg width="24" height="24" viewBox="0 0 24 24" fill="none" xmlns="http://www.w3.org/2000/svg">
<path fill-rule="evenodd" clip-rule="evenodd" d="M19 12.25C19.4142 12.25 19.75 12.5858 19.75 13V19C19.75 19.4142 19.4142 19.75 19 19.75H13C12.5858 19.75 12.25 19.4142 12.25 19C12.25 18.5858 12.5858 18.25 13 18.25H18.25V13C18.25 12.5858 18.5858 12.25 19 12.25Z" fill="black"/>
<path fill-rule="evenodd" clip-rule="evenodd" d="M4.25 5C4.25 4.58579 4.58579 4.25 5 4.25H11C11.4142 4.25 11.75 4.58579 11.75 5C11.75 5.41421 11.4142 5.75 11 5.75H5.75V11C5.75 11.4142 5.41421 11.75 5 11.75C4.58579 11.75 4.25 11.4142 4.25 11V5Z" fill="black"/>
</svg>