<svg width="24" height="24" viewBox="0 0 24 24" fill="none" xmlns="http://www.w3.org/2000/svg">
<path fill-rule="evenodd" clip-rule="evenodd" d="M5 12.25C5.41421 12.25 5.75 12.5858 5.75 13V18.25H11C11.4142 18.25 11.75 18.5858 11.75 19C11.75 19.4142 11.4142 19.75 11 19.75H5C4.58579 19.75 4.25 19.4142 4.25 19V13C4.25 12.5858 4.58579 12.25 5 12.25Z" fill="black"/>
<path fill-rule="evenodd" clip-rule="evenodd" d="M12.25 5C12.25 4.58579 12.5858 4.25 13 4.25H19C19.4142 4.25 19.75 4.58579 19.75 5V11C19.75 11.4142 19.4142 11.75 19 11.75C18.5858 11.75 18.25 11.4142 18.25 11V5.75H13C12.5858 5.75 12.25 5.41421 12.25 5Z" fill="black"/>
</svg>