<svg width="24" height="24" viewBox="0 0 24 24" fill="none" xmlns="http://www.w3.org/2000/svg">
<path fill-rule="evenodd" clip-rule="evenodd" d="M5.46967 5.46967C5.17678 5.76256 5.17678 6.23744 5.46967 6.53033L10.9393 12L5.46967 17.4697C5.17678 17.7626 5.17678 18.2374 5.46967 18.5303C5.76256 18.8232 6.23744 18.8232 6.53033 18.5303L12.5303 12.5303C12.8232 12.2374 12.8232 11.7626 12.5303 11.4697L6.53033 5.46967C6.23744 5.17678 5.76256 5.17678 5.46967 5.46967Z" fill="black"/>
<path fill-rule="evenodd" clip-rule="evenodd" d="M17.25 6L17.25 18C17.25 18.4142 17.5858 18.75 18 18.75C18.4142 18.75 18.75 18.4142 18.75 18L18.75 6C18.75 5.58579 18.4142 5.25 18 5.25C17.5858 5.25 17.25 5.58579 17.25 6Z" fill="black"/>
</svg>