<svg width="24" height="25" viewBox="0 0 24 25" fill="none" xmlns="http://www.w3.org/2000/svg">
<path fill-rule="evenodd" clip-rule="evenodd" d="M15.605 9.13814L14.114 13.9081C14.065 14.0651 13.943 14.1871 13.787 14.2361L9.021 15.7261C8.971 15.7421 8.921 15.7491 8.871 15.7491C8.741 15.7491 8.613 15.6981 8.518 15.6031C8.386 15.4711 8.338 15.2781 8.394 15.1001L9.886 10.3301C9.935 10.1741 10.057 10.0511 10.213 10.0021L14.979 8.51214C15.157 8.45414 15.349 8.50314 15.481 8.63614C15.613 8.76714 15.661 8.96114 15.605 9.13814ZM12 2.61914C6.762 2.61914 2.5 6.88114 2.5 12.1191C2.5 17.3581 6.762 21.6191 12 21.6191C17.238 21.6191 21.5 17.3581 21.5 12.1191C21.5 6.88114 17.238 2.61914 12 2.61914Z" fill="black"/>
</svg>