<svg width="25" height="25" viewBox="0 0 25 25" fill="none" xmlns="http://www.w3.org/2000/svg">
<path fill-rule="evenodd" clip-rule="evenodd" d="M12.251 3.99902C7.69488 3.99902 4.00195 7.69281 4.00195 12.2481C4.00195 16.8043 7.69482 20.4971 12.251 20.4971C16.8072 20.4971 20.5001 16.8043 20.5001 12.2481C20.5001 7.69281 16.8071 3.99902 12.251 3.99902ZM2.50195 12.2481C2.50195 6.86449 6.86634 2.49902 12.251 2.49902C17.6357 2.49902 22.0001 6.86449 22.0001 12.2481C22.0001 17.6327 17.6356 21.9971 12.251 21.9971C6.86639 21.9971 2.50195 17.6327 2.50195 12.2481Z" fill="black"/>
<path fill-rule="evenodd" clip-rule="evenodd" d="M12.2509 2.49902C12.6652 2.49902 13.0009 2.83481 13.0009 3.24902V4.95446C13.0009 5.36868 12.6652 5.70446 12.2509 5.70446C11.8367 5.70446 11.5009 5.36868 11.5009 4.95446V3.24902C11.5009 2.83481 11.8367 2.49902 12.2509 2.49902ZM2.5 12.2481C2.5 11.8339 2.83579 11.4981 3.25 11.4981H4.95544C5.36966 11.4981 5.70544 11.8339 5.70544 12.2481C5.70544 12.6623 5.36966 12.9981 4.95544 12.9981H3.25C2.83579 12.9981 2.5 12.6623 2.5 12.2481ZM18.7937 12.2481C18.7937 11.8339 19.1295 11.4981 19.5437 11.4981H21.25C21.6642 11.4981 22 11.8339 22 12.2481C22 12.6623 21.6642 12.9981 21.25 12.9981H19.5437C19.1295 12.9981 18.7937 12.6623 18.7937 12.2481ZM12.2509 18.7927C12.6652 18.7927 13.0009 19.1285 13.0009 19.5427V21.2471C13.0009 21.6613 12.6652 21.9971 12.2509 21.9971C11.8367 21.9971 11.5009 21.6613 11.5009 21.2471V19.5427C11.5009 19.1285 11.8367 18.7927 12.2509 18.7927Z" fill="black"/>
<path fill-rule="evenodd" clip-rule="evenodd" d="M15.908 8.58981C16.1053 8.78717 16.1768 9.07779 16.0934 9.34416L14.602 14.1093C14.5286 14.3439 14.3448 14.5276 14.1103 14.601L9.34514 16.0924C9.07877 16.1758 8.78814 16.1044 8.59078 15.907C8.39342 15.7096 8.32198 15.419 8.40535 15.1526L9.89676 10.3875C9.97019 10.1529 10.1539 9.96921 10.3885 9.89579L15.1536 8.40438C15.42 8.32101 15.7106 8.39245 15.908 8.58981ZM11.2111 11.2101L10.265 14.2328L13.2877 13.2867L14.2337 10.264L11.2111 11.2101Z" fill="black"/>
</svg>