<svg width="25" height="25" viewBox="0 0 25 25" fill="none" xmlns="http://www.w3.org/2000/svg">
<path fill-rule="evenodd" clip-rule="evenodd" d="M12.25 3.99805C7.69335 3.99805 4 7.69226 4 12.248C4 16.8048 7.69329 20.498 12.25 20.498C16.8067 20.498 20.5 16.8048 20.5 12.248C20.5 7.69226 16.8067 3.99805 12.25 3.99805ZM2.5 12.248C2.5 6.86394 6.86481 2.49805 12.25 2.49805C17.6352 2.49805 22 6.86394 22 12.248C22 17.6332 17.6351 21.998 12.25 21.998C6.86487 21.998 2.5 17.6332 2.5 12.248Z" fill="black"/>
<path fill-rule="evenodd" clip-rule="evenodd" d="M15.9086 8.58981C16.106 8.78717 16.1774 9.07779 16.0941 9.34416L14.6025 14.1098C14.5291 14.3444 14.3453 14.5281 14.1108 14.6015L9.34514 16.0931C9.07877 16.1765 8.78814 16.105 8.59078 15.9077C8.39342 15.7103 8.32198 15.4197 8.40535 15.1533L9.89692 10.3877C9.97034 10.1531 10.1541 9.96937 10.3887 9.89594L15.1543 8.40438C15.4206 8.32101 15.7113 8.39245 15.9086 8.58981ZM11.2112 11.2102L10.265 14.2334L13.2882 13.2872L14.2344 10.264L11.2112 11.2102Z" fill="black"/>
</svg>