<svg width="24" height="25" viewBox="0 0 24 25" fill="none" xmlns="http://www.w3.org/2000/svg">
<path fill-rule="evenodd" clip-rule="evenodd" d="M21.5 12.25C21.5 12.5 21.49 12.75 21.47 13C21.11 17.64 17.39 21.36 12.75 21.72C12.5 21.74 12.25 21.75 12 21.75C11.75 21.75 11.5 21.74 11.25 21.72C6.61 21.36 2.89 17.64 2.53 13C2.51 12.75 2.5 12.5 2.5 12.25C2.5 12 2.51 11.75 2.53 11.5C2.89 6.86 6.61 3.14 11.25 2.78C11.5 2.76 11.75 2.75 12 2.75C12.25 2.75 12.5 2.76 12.75 2.78C17.39 3.14 21.11 6.86 21.47 11.5C21.49 11.75 21.5 12 21.5 12.25Z" fill="black" fill-opacity="0.4"/>
<path fill-rule="evenodd" clip-rule="evenodd" d="M12.75 19.5382V21.7182C12.5 21.7382 12.25 21.7482 12 21.7482C11.75 21.7482 11.5 21.7382 11.25 21.7182V19.5382C11.25 19.1282 11.59 18.7882 12 18.7882C12.42 18.7882 12.75 19.1282 12.75 19.5382Z" fill="black"/>
<path fill-rule="evenodd" clip-rule="evenodd" d="M5.46 12.2483C5.46 12.6683 5.12 12.9983 4.71 12.9983H2.53C2.51 12.7483 2.5 12.4983 2.5 12.2483C2.5 11.9983 2.51 11.7483 2.53 11.4983H4.71C5.12 11.4983 5.46 11.8383 5.46 12.2483Z" fill="black"/>
<path fill-rule="evenodd" clip-rule="evenodd" d="M12.75 2.77805V4.94805C12.75 5.35805 12.42 5.69805 12 5.69805C11.59 5.69805 11.25 5.35805 11.25 4.94805V2.77805C11.5 2.75805 11.75 2.74805 12 2.74805C12.25 2.74805 12.5 2.75805 12.75 2.77805Z" fill="black"/>
<path fill-rule="evenodd" clip-rule="evenodd" d="M21.5 12.2483C21.5 12.4983 21.49 12.7483 21.47 12.9983H19.29C18.88 12.9983 18.54 12.6683 18.54 12.2483C18.54 11.8383 18.88 11.4983 19.29 11.4983H21.47C21.49 11.7483 21.5 11.9983 21.5 12.2483Z" fill="black"/>
<path fill-rule="evenodd" clip-rule="evenodd" d="M14.9785 8.64173L10.2135 10.1317C10.0575 10.1807 9.9345 10.3037 9.8855 10.4597L8.3945 15.2297C8.3385 15.4077 8.3865 15.6007 8.5175 15.7327C8.6125 15.8277 8.7405 15.8787 8.8715 15.8787C8.9205 15.8787 8.9715 15.8717 9.0205 15.8557L13.7855 14.3657C13.9415 14.3167 14.0635 14.1947 14.1125 14.0377L15.6045 9.26773C15.6605 9.09073 15.6135 8.89673 15.4815 8.76573C15.3495 8.63273 15.1555 8.58373 14.9785 8.64173Z" fill="black"/>
</svg>