<svg width="24" height="25" viewBox="0 0 24 25" fill="none" xmlns="http://www.w3.org/2000/svg">
<path fill-rule="evenodd" clip-rule="evenodd" d="M12 2.74805C6.762 2.74805 2.5 7.01005 2.5 12.248C2.5 17.486 6.762 21.748 12 21.748C17.238 21.748 21.5 17.486 21.5 12.248C21.5 7.01005 17.238 2.74805 12 2.74805Z" fill="black" fill-opacity="0.4"/>
<path fill-rule="evenodd" clip-rule="evenodd" d="M15.4816 8.76464C15.3496 8.63264 15.1566 8.58364 14.9786 8.64064L10.2136 10.1316C10.0576 10.1806 9.93462 10.3026 9.88562 10.4586L8.39462 15.2286C8.33862 15.4066 8.38662 15.6006 8.51762 15.7316C8.61262 15.8266 8.74062 15.8786 8.87162 15.8786C8.92062 15.8786 8.97162 15.8706 9.02062 15.8556L13.7866 14.3656C13.9426 14.3166 14.0656 14.1936 14.1146 14.0366L15.6056 9.26664C15.6606 9.08964 15.6126 8.89564 15.4816 8.76464Z" fill="black"/>
</svg>