<svg width="24" height="25" viewBox="0 0 24 25" fill="none" xmlns="http://www.w3.org/2000/svg">
<path fill-rule="evenodd" clip-rule="evenodd" d="M6.39403 8.23278H7.51403V7.11278C7.51403 6.69878 7.85003 6.36278 8.26403 6.36278C8.67803 6.36278 9.01403 6.69878 9.01403 7.11278V8.23278H10.133C10.547 8.23278 10.883 8.56878 10.883 8.98278C10.883 9.39678 10.547 9.73278 10.133 9.73278H9.01403V10.8528C9.01403 11.2668 8.67803 11.6028 8.26403 11.6028C7.85003 11.6028 7.51403 11.2668 7.51403 10.8528V9.73278H6.39403C5.98003 9.73278 5.64403 9.39678 5.64403 8.98278C5.64403 8.56878 5.98003 8.23278 6.39403 8.23278ZM19.2376 4.09527C19.3677 3.96726 19.3546 3.7531 19.2022 3.65273C18.3793 3.11082 17.3735 2.80078 16.218 2.80078H7.78303C4.62303 2.80078 2.50003 5.02178 2.50003 8.32678V16.2748C2.50003 17.4463 2.77618 18.4722 3.26302 19.3187C3.35671 19.4816 3.57791 19.5039 3.71186 19.3721L19.2376 4.09527Z" fill="black"/>
<path fill-rule="evenodd" clip-rule="evenodd" d="M17.104 16.7044H13.365C12.951 16.7044 12.615 16.3684 12.615 15.9544C12.615 15.5404 12.951 15.2044 13.365 15.2044H17.104C17.518 15.2044 17.854 15.5404 17.854 15.9544C17.854 16.3684 17.518 16.7044 17.104 16.7044ZM20.7102 5.24225C20.6154 5.08146 20.3959 5.06056 20.2628 5.19148L4.72508 20.4802C4.59581 20.6075 4.60778 20.82 4.75822 20.9213C5.58809 21.4801 6.60742 21.8014 7.78299 21.8014H16.218C19.377 21.8014 21.5 19.5804 21.5 16.2754V8.32743C21.5 7.13571 21.2135 6.09596 20.7102 5.24225Z" fill="black"/>
</svg>