<svg width="25" height="24" viewBox="0 0 25 24" fill="none" xmlns="http://www.w3.org/2000/svg">
<path fill-rule="evenodd" clip-rule="evenodd" d="M12.25 3.75C7.69329 3.75 4 7.44329 4 12C4 16.5558 7.69335 20.25 12.25 20.25C16.8067 20.25 20.5 16.5558 20.5 12C20.5 7.44329 16.8067 3.75 12.25 3.75ZM2.5 12C2.5 6.61487 6.86487 2.25 12.25 2.25C17.6351 2.25 22 6.61487 22 12C22 17.3841 17.6352 21.75 12.25 21.75C6.86481 21.75 2.5 17.3841 2.5 12Z" fill="black"/>
<path fill-rule="evenodd" clip-rule="evenodd" d="M8.62012 14.8633C8.62012 14.4491 8.9559 14.1133 9.37012 14.1133H15.1301C15.5443 14.1133 15.8801 14.4491 15.8801 14.8633C15.8801 15.2775 15.5443 15.6133 15.1301 15.6133H9.37012C8.9559 15.6133 8.62012 15.2775 8.62012 14.8633Z" fill="black"/>
<path fill-rule="evenodd" clip-rule="evenodd" d="M7.95703 9.34375C7.95703 8.92954 8.29282 8.59375 8.70703 8.59375H10.4788C10.893 8.59375 11.2288 8.92954 11.2288 9.34375C11.2288 9.75796 10.893 10.0938 10.4788 10.0938H8.70703C8.29282 10.0938 7.95703 9.75796 7.95703 9.34375ZM13.2723 9.34375C13.2723 8.92954 13.6081 8.59375 14.0223 8.59375H15.7941C16.2083 8.59375 16.5441 8.92954 16.5441 9.34375C16.5441 9.75796 16.2083 10.0938 15.7941 10.0938H14.0223C13.6081 10.0938 13.2723 9.75796 13.2723 9.34375Z" fill="black"/>
</svg>