<svg width="24" height="24" viewBox="0 0 24 24" fill="none" xmlns="http://www.w3.org/2000/svg">
<path fill-rule="evenodd" clip-rule="evenodd" d="M20.9084 12.3172C19.2624 8.74825 15.8484 6.53125 12.0004 6.53125C8.15143 6.53125 4.73743 8.74825 3.09243 12.3172C2.86043 12.8192 3.08043 13.4132 3.58143 13.6442C4.08443 13.8762 4.67743 13.6543 4.90843 13.1553C6.22343 10.3023 8.94043 8.53125 12.0004 8.53125C15.0594 8.53125 17.7764 10.3023 19.0924 13.1553C19.2614 13.5213 19.6224 13.7362 20.0014 13.7362C20.1404 13.7362 20.2834 13.7073 20.4194 13.6442C20.9204 13.4132 21.1394 12.8192 20.9084 12.3172Z" fill="black"/>
<path fill-rule="evenodd" clip-rule="evenodd" d="M12.0032 10.8359C10.1772 10.8359 8.69116 12.3199 8.69116 14.1459C8.69116 15.9769 10.1772 17.4659 12.0032 17.4659C13.8302 17.4659 15.3162 15.9769 15.3162 14.1459C15.3162 12.3199 13.8302 10.8359 12.0032 10.8359Z" fill="black"/>
</svg>