<svg width="24" height="25" viewBox="0 0 24 25" fill="none" xmlns="http://www.w3.org/2000/svg">
<path fill-rule="evenodd" clip-rule="evenodd" d="M13.957 7.73279C14.04 7.65379 14.146 7.60879 14.25 7.60879H16.95C17.227 7.60879 17.45 7.38479 17.45 7.10879V3.50879C17.45 3.23279 17.227 3.00879 16.95 3.00879H14.25C12.944 3.00879 11.656 3.53879 10.714 4.46579C9.77005 5.41579 9.25005 6.67379 9.25005 8.00879V10.2098H7.05005C6.77305 10.2098 6.55005 10.4328 6.55005 10.7098V14.3088C6.55005 14.5858 6.77305 14.8088 7.05005 14.8088H9.25005V21.5088C9.25005 21.7858 9.47405 22.0088 9.75005 22.0088H13.35C13.626 22.0088 13.85 21.7858 13.85 21.5088V14.8088H16.95C17.227 14.8088 17.45 14.5858 17.45 14.3088V10.7098C17.45 10.4328 17.227 10.2098 16.95 10.2098H13.85V8.00879C13.85 7.90079 13.892 7.79879 13.957 7.73279Z" fill="black"/>
</svg>