<svg width="24" height="24" viewBox="0 0 24 24" fill="none" xmlns="http://www.w3.org/2000/svg">
<path fill-rule="evenodd" clip-rule="evenodd" d="M5.77487 13.1992C5.72138 13.2138 5.66424 13.2054 5.61713 13.1761L2.64025 11.3271C2.57681 11.2877 2.54046 11.2158 2.54718 11.1415C2.98397 6.30509 7.05236 2.5 12 2.5C16.9488 2.5 21.0183 6.30731 21.4529 11.1449C21.4595 11.219 21.4234 11.2907 21.3603 11.3302L18.4177 13.1697C18.3695 13.1998 18.3109 13.2081 18.2564 13.1921C17.02 12.8297 15.6159 12.3029 14.058 11.609C12.827 11.065 11.414 11.064 10.18 11.61C8.68841 12.2783 7.24208 12.7973 5.77487 13.1992ZM16.4168 8.45301C15.5818 7.36801 13.8828 7.37001 13.0528 8.45401C12.8008 8.78301 12.8618 9.25401 13.1898 9.50601C13.3268 9.61001 13.4868 9.66101 13.6458 9.66101C13.8718 9.66101 14.0948 9.56001 14.2418 9.36801C14.3188 9.26801 14.4838 9.10101 14.7348 9.10101C14.9848 9.10101 15.1518 9.26901 15.2298 9.36901C15.4798 9.69601 15.9498 9.75901 16.2808 9.50501C16.6088 9.25201 16.6698 8.78101 16.4168 8.45301ZM10.9478 8.45301C10.1138 7.37001 8.41784 7.36901 7.58384 8.45301C7.33084 8.78101 7.39184 9.25201 7.71984 9.50501C8.05084 9.75901 8.51984 9.69601 8.77084 9.36901C8.84884 9.26901 9.01584 9.10101 9.26584 9.10101C9.51684 9.10101 9.68384 9.26901 9.76084 9.36901C9.90784 9.56001 10.1298 9.66101 10.3548 9.66101C10.5148 9.66101 10.6758 9.61001 10.8128 9.50501C11.1408 9.25201 11.2008 8.78101 10.9478 8.45301Z" fill="black"/>
<path fill-rule="evenodd" clip-rule="evenodd" d="M4.89097 14.5775C4.88327 14.5179 4.8492 14.465 4.79817 14.4333L2.90903 13.2594C2.76733 13.1713 2.58814 13.2851 2.61355 13.45C2.90904 15.3678 3.7819 17.0956 5.04639 18.4561C5.1748 18.5943 5.39546 18.4849 5.3713 18.2978L4.89097 14.5775Z" fill="black"/>
<path fill-rule="evenodd" clip-rule="evenodd" d="M16.8905 20.021L17.6018 14.7356C17.6149 14.6384 17.5556 14.5461 17.4619 14.5171C16.2539 14.1423 14.9135 13.6325 13.4495 12.98C12.6045 12.606 11.6345 12.607 10.7895 12.981C9.36552 13.6198 7.97576 14.1254 6.57037 14.5315C6.47515 14.559 6.41394 14.6517 6.42664 14.75L7.10854 20.027C7.11568 20.0877 7.13341 20.1444 7.18603 20.1755C8.59917 21.0117 10.2417 21.5 11.9995 21.5C13.7552 21.5 15.3949 21.0129 16.8078 20.1786C16.8635 20.1457 16.8816 20.0849 16.8905 20.021Z" fill="black"/>
<path fill-rule="evenodd" clip-rule="evenodd" d="M19.229 14.4311C19.1785 14.4627 19.1447 14.515 19.1368 14.574L18.6366 18.2876C18.6113 18.4751 18.8325 18.5855 18.9611 18.4467C20.2194 17.0904 21.088 15.3696 21.384 13.4593C21.4096 13.2941 21.2299 13.1802 21.0882 13.2688L19.229 14.4311Z" fill="black"/>
</svg>