<svg width="24" height="24" viewBox="0 0 24 24" fill="none" xmlns="http://www.w3.org/2000/svg">
<path opacity="0.4" fill-rule="evenodd" clip-rule="evenodd" d="M13.957 7.224C14.04 7.145 14.146 7.1 14.25 7.1H16.95C17.227 7.1 17.45 6.876 17.45 6.6V3C17.45 2.724 17.227 2.5 16.95 2.5H14.25C12.944 2.5 11.656 3.03 10.714 3.957C9.77005 4.907 9.25005 6.165 9.25005 7.5V9.701H7.05005C6.77305 9.701 6.55005 9.924 6.55005 10.201V13.8C6.55005 14.077 6.77305 14.3 7.05005 14.3H9.25005V21C9.25005 21.277 9.47405 21.5 9.75005 21.5H13.35C13.626 21.5 13.85 21.277 13.85 21V14.3H16.95C17.227 14.3 17.45 14.077 17.45 13.8V10.201C17.45 9.924 17.227 9.701 16.95 9.701H13.85V7.5C13.85 7.392 13.892 7.29 13.957 7.224Z" fill="black"/>
</svg>