<svg width="24" height="24" viewBox="0 0 24 24" fill="none" xmlns="http://www.w3.org/2000/svg">
<path fill-rule="evenodd" clip-rule="evenodd" d="M21.0001 14.7812C20.5861 14.7812 20.2501 15.1173 20.2501 15.5312V17.1112C20.2501 18.8433 18.8401 20.2512 17.1071 20.2512H15.8181C15.4041 20.2512 15.0681 20.5872 15.0681 21.0012C15.0681 21.4152 15.4041 21.7512 15.8181 21.7512H17.1071C19.6671 21.7512 21.7501 19.6702 21.7501 17.1112V15.5312C21.7501 15.1173 21.4141 14.7812 21.0001 14.7812Z" fill="black"/>
<path fill-rule="evenodd" clip-rule="evenodd" d="M8.15 20.2503H6.893C5.16 20.2503 3.75 18.8423 3.75 17.1103V15.5303C3.75 15.1163 3.414 14.7803 3 14.7803C2.586 14.7803 2.25 15.1163 2.25 15.5303V17.1103C2.25 19.6693 4.333 21.7503 6.893 21.7503H8.15C8.564 21.7503 8.9 21.4143 8.9 21.0003C8.9 20.5863 8.564 20.2503 8.15 20.2503Z" fill="black"/>
<path fill-rule="evenodd" clip-rule="evenodd" d="M3.00012 9.22C3.41412 9.22 3.75012 8.884 3.75012 8.47V6.89C3.75012 5.158 5.16012 3.75 6.89312 3.75H8.18212C8.59612 3.75 8.93212 3.414 8.93212 3C8.93212 2.586 8.59612 2.25 8.18212 2.25H6.89312C4.33312 2.25 2.25012 4.331 2.25012 6.89V8.47C2.25012 8.884 2.58612 9.22 3.00012 9.22Z" fill="black"/>
<path fill-rule="evenodd" clip-rule="evenodd" d="M17.1071 2.25098H15.8501C15.4361 2.25098 15.1001 2.58698 15.1001 3.00098C15.1001 3.41498 15.4361 3.75098 15.8501 3.75098H17.1071C18.8401 3.75098 20.2501 5.15898 20.2501 6.89098V8.47098C20.2501 8.88498 20.5861 9.22098 21.0001 9.22098C21.4141 9.22098 21.7501 8.88498 21.7501 8.47098V6.89098C21.7501 4.33198 19.6671 2.25098 17.1071 2.25098Z" fill="black"/>
<path fill-rule="evenodd" clip-rule="evenodd" d="M15.4391 9.23009C15.9911 9.23009 16.4391 8.78309 16.4391 8.23009V7.62109C16.4391 7.06809 15.9911 6.62109 15.4391 6.62109C14.8871 6.62109 14.4391 7.06809 14.4391 7.62109V8.23009C14.4391 8.78309 14.8871 9.23009 15.4391 9.23009Z" fill="black"/>
<path fill-rule="evenodd" clip-rule="evenodd" d="M7.56116 7.62109V8.23009C7.56116 8.78309 8.00916 9.23009 8.56116 9.23009C9.11316 9.23009 9.56116 8.78309 9.56116 8.23009V7.62109C9.56116 7.06809 9.11316 6.62109 8.56116 6.62109C8.00916 6.62109 7.56116 7.06809 7.56116 7.62109Z" fill="black"/>
<path fill-rule="evenodd" clip-rule="evenodd" d="M16.1994 17.0298C16.5584 16.6098 16.5084 15.9788 16.0894 15.6208C13.4674 13.3788 10.6444 13.3758 7.92739 15.6078C7.49939 15.9578 7.43739 16.5888 7.78839 17.0148C7.98639 17.2558 8.27239 17.3808 8.56139 17.3808C8.78439 17.3808 9.00939 17.3058 9.19539 17.1528C11.1744 15.5298 12.8994 15.5248 14.7894 17.1398C15.2084 17.4998 15.8404 17.4498 16.1994 17.0298Z" fill="black"/>
<path fill-rule="evenodd" clip-rule="evenodd" d="M11.5562 13.2304C11.7372 13.2304 11.9202 13.1814 12.0842 13.0794L12.3892 12.8884C13.1162 12.4334 13.4692 11.7864 13.4692 10.9104V8.94043C13.4692 8.38743 13.0212 7.94043 12.4692 7.94043C11.9162 7.94043 11.4692 8.38743 11.4692 8.94043V10.9104C11.4692 11.1054 11.4662 11.1074 11.3292 11.1924L11.0262 11.3814C10.5572 11.6744 10.4142 12.2914 10.7062 12.7594C10.8962 13.0634 11.2232 13.2304 11.5562 13.2304Z" fill="black"/>
</svg>