<svg width="24" height="24" viewBox="0 0 24 24" fill="none" xmlns="http://www.w3.org/2000/svg">
<path fill-rule="evenodd" clip-rule="evenodd" d="M16.9498 3.5C16.9498 3.22386 16.7259 3 16.4498 3H14.2498C13.056 3 11.9118 3.47676 11.0682 4.31351C10.2236 5.16 9.7498 6.30324 9.7498 7.5V10.2H7.54981C7.27366 10.2 7.0498 10.4239 7.0498 10.7V13.3C7.0498 13.5761 7.27366 13.8 7.5498 13.8H9.7498V20.5C9.7498 20.7761 9.97366 21 10.2498 21H12.8498C13.1259 21 13.3498 20.7761 13.3498 20.5V13.8H16.4498C16.7259 13.8 16.9498 13.5761 16.9498 13.3V10.7C16.9498 10.4239 16.7259 10.2 16.4498 10.2H13.3498V7.5C13.3498 7.25676 13.4442 7.032 13.6135 6.86076C13.7818 6.69924 14.0114 6.6 14.2498 6.6H16.4498C16.7259 6.6 16.9498 6.37614 16.9498 6.1V3.5Z" stroke="black" stroke-width="1.5" stroke-linecap="round" stroke-linejoin="round"/>
</svg>