<svg width="24" height="24" viewBox="0 0 24 24" fill="none" xmlns="http://www.w3.org/2000/svg">
<path fill-rule="evenodd" clip-rule="evenodd" d="M11.9999 3.75C7.44327 3.75 3.75 7.44327 3.75 11.9999C3.75 16.5566 7.44327 20.2499 11.9999 20.2499C16.5566 20.2499 20.2499 16.5566 20.2499 11.9999C20.2499 7.44327 16.5566 3.75 11.9999 3.75ZM2.25 11.9999C2.25 6.61484 6.61484 2.25 11.9999 2.25C17.385 2.25 21.7499 6.61484 21.7499 11.9999C21.7499 17.385 17.385 21.7499 11.9999 21.7499C6.61484 21.7499 2.25 17.385 2.25 11.9999Z" fill="black"/>
<path fill-rule="evenodd" clip-rule="evenodd" d="M10.3223 11.7243C10.3223 9.80197 11.882 8.24219 13.8044 8.24219H14.7773C15.1915 8.24219 15.5273 8.57797 15.5273 8.99219C15.5273 9.4064 15.1915 9.74219 14.7773 9.74219H13.8044C12.7105 9.74219 11.8223 10.6304 11.8223 11.7243V20.9976C11.8223 21.4118 11.4865 21.7476 11.0723 21.7476C10.6581 21.7476 10.3223 21.4118 10.3223 20.9976V11.7243Z" fill="black"/>
<path fill-rule="evenodd" clip-rule="evenodd" d="M8.4707 13.625C8.4707 13.2108 8.80649 12.875 9.2207 12.875H14.3161C14.7303 12.875 15.0661 13.2108 15.0661 13.625C15.0661 14.0392 14.7303 14.375 14.3161 14.375H9.2207C8.80649 14.375 8.4707 14.0392 8.4707 13.625Z" fill="black"/>
</svg>