<svg width="24" height="24" viewBox="0 0 24 24" fill="none" xmlns="http://www.w3.org/2000/svg">
<path d="M3 9.02466C2.59 9.02466 2.25 8.68466 2.25 8.27466V6.6947C2.25 4.1347 4.33001 2.05469 6.89001 2.05469H8.17999C8.58999 2.05469 8.92999 2.39469 8.92999 2.80469C8.92999 3.21469 8.58999 3.55469 8.17999 3.55469H6.89001C5.16001 3.55469 3.75 4.9647 3.75 6.6947V8.27466C3.75 8.68466 3.41 9.02466 3 9.02466Z" fill="black"/>
<path d="M8.14999 21.554H6.89001C4.33001 21.554 2.25 19.4739 2.25 16.9139V15.334C2.25 14.924 2.59 14.584 3 14.584C3.41 14.584 3.75 14.924 3.75 15.334V16.9139C3.75 18.6439 5.16001 20.054 6.89001 20.054H8.14999C8.55999 20.054 8.89999 20.394 8.89999 20.804C8.89999 21.214 8.55999 21.554 8.14999 21.554Z" fill="black"/>
<path d="M17.11 21.554H15.8201C15.4101 21.554 15.0701 21.214 15.0701 20.804C15.0701 20.394 15.4101 20.054 15.8201 20.054H17.11C18.84 20.054 20.2501 18.6439 20.2501 16.9139V15.334C20.2501 14.924 20.5901 14.584 21.0001 14.584C21.4101 14.584 21.7501 14.924 21.7501 15.334V16.9139C21.7501 19.4739 19.67 21.554 17.11 21.554Z" fill="black"/>
<path d="M21.0001 9.02466C20.5901 9.02466 20.2501 8.68466 20.2501 8.27466V6.6947C20.2501 4.9647 18.8401 3.55469 17.1101 3.55469H15.8501C15.4401 3.55469 15.1001 3.21469 15.1001 2.80469C15.1001 2.39469 15.4401 2.05469 15.8501 2.05469H17.1101C19.6701 2.05469 21.7501 4.1347 21.7501 6.6947V8.27466C21.7501 8.68466 21.4101 9.02466 21.0001 9.02466Z" fill="black"/>
<path d="M12.95 18.375C12.95 18.375 12.86 18.375 12.82 18.365C12.41 18.295 12.14 17.905 12.21 17.495C12.31 16.935 12.62 15.605 13.41 15.185C13.78 14.985 14.23 15.135 14.42 15.495C14.61 15.855 14.48 16.295 14.13 16.495C13.99 16.635 13.77 17.235 13.68 17.755C13.62 18.115 13.3 18.375 12.94 18.375H12.95Z" fill="black"/>
<path d="M8.24 17.6756C8.14 17.6756 8.04001 17.6556 7.94001 17.6156C7.56001 17.4456 7.39 17.0056 7.55 16.6256C8.06 15.4556 7.91 14.1156 7.09 12.6456C6.37 11.3556 6.29 10.0056 6.84 8.72555C7.61 6.94555 9.43 5.85557 11.71 5.80557C13.12 5.78557 14.19 6.10559 15.04 6.82559C16.43 8.00559 16.97 9.38557 16.62 10.9356C16.58 11.1256 16.61 11.5856 17.27 12.4856C17.49 12.7856 17.56 13.1656 17.46 13.5156C17.36 13.8656 17.1 14.1455 16.75 14.2755L16.4 14.4055L16.26 15.6555C16.2 16.0555 16 16.3756 15.71 16.5856C15.4 16.7956 15.01 16.8655 14.62 16.7855L13.07 16.4356C12.2 16.2456 12.04 15.4955 11.95 15.0955C11.93 15.0155 11.92 14.9356 11.89 14.8556C11.78 14.4556 12.01 14.0456 12.41 13.9356C12.82 13.8256 13.22 14.0556 13.33 14.4556C13.36 14.5656 13.38 14.6755 13.41 14.7755C13.42 14.8355 13.44 14.9256 13.46 14.9756L14.78 15.2755L14.93 14.0056C15.01 13.5456 15.3 13.2056 15.69 13.0456L15.81 12.9956C15.21 12.0856 14.99 11.2856 15.14 10.5756C15.36 9.56559 15.03 8.75556 14.05 7.92556C13.49 7.44556 12.75 7.23558 11.72 7.25558C10.05 7.29558 8.73001 8.04554 8.19001 9.27554C7.82001 10.1355 7.88 10.9756 8.37 11.8656C9.41 13.7356 9.60002 15.5756 8.89002 17.1756C8.77002 17.4556 8.49002 17.6256 8.20002 17.6256L8.24 17.6756Z" fill="black"/>
</svg>