<svg width="25" height="24" viewBox="0 0 25 24" fill="none" xmlns="http://www.w3.org/2000/svg">
<path d="M12.25 21.75C10.3216 21.75 8.43657 21.1782 6.83319 20.1068C5.22981 19.0355 3.98013 17.5128 3.24217 15.7312C2.50422 13.9496 2.31114 11.9892 2.68735 10.0979C3.06356 8.20656 3.99215 6.46928 5.35572 5.10572C6.71928 3.74215 8.45656 2.81356 10.3479 2.43735C12.2392 2.06114 14.1996 2.25422 15.9812 2.99217C17.7628 3.73013 19.2855 4.97981 20.3568 6.58319C21.4282 8.18657 22 10.0716 22 12C21.9971 14.585 20.9689 17.0632 19.1411 18.8911C17.3132 20.7189 14.835 21.7471 12.25 21.75ZM12.25 3.75C10.6183 3.75 9.02326 4.23386 7.66655 5.14038C6.30985 6.0469 5.25242 7.33538 4.62799 8.84287C4.00357 10.3504 3.8402 12.0092 4.15853 13.6095C4.47685 15.2098 5.26259 16.6799 6.41637 17.8336C7.57015 18.9874 9.04016 19.7731 10.6405 20.0915C12.2408 20.4098 13.8996 20.2464 15.4071 19.622C16.9146 18.9976 18.2031 17.9402 19.1096 16.5835C20.0161 15.2267 20.5 13.6317 20.5 12C20.4976 9.8127 19.6277 7.71567 18.081 6.16901C16.5343 4.62235 14.4373 3.75238 12.25 3.75Z" fill="black"/>
<path d="M8.97501 10.0008C8.7165 10.0005 8.46865 9.89771 8.28586 9.71492C8.10307 9.53213 8.00027 9.28428 8 9.02577C7.99974 8.89774 8.02475 8.77093 8.0736 8.65259C8.12244 8.53424 8.19416 8.4267 8.28464 8.33612C8.37512 8.24554 8.48258 8.17371 8.60088 8.12474C8.71917 8.07578 8.84597 8.05065 8.974 8.05078C9.10204 8.05078 9.22883 8.076 9.34712 8.125C9.46542 8.174 9.57289 8.24581 9.66342 8.33635C9.75396 8.42689 9.82579 8.53437 9.87479 8.65266C9.92379 8.77096 9.94901 8.89773 9.94901 9.02577C9.94901 9.15381 9.92379 9.2806 9.87479 9.3989C9.82579 9.51719 9.75396 9.62467 9.66342 9.71521C9.57289 9.80575 9.46542 9.87756 9.34712 9.92656C9.22883 9.97556 9.10204 10.0008 8.974 10.0008H8.97501Z" fill="black"/>
<path d="M15.475 10.0008C15.2165 10.0005 14.9687 9.89771 14.7859 9.71492C14.6031 9.53213 14.5003 9.28428 14.5 9.02577C14.4997 8.89774 14.5248 8.77093 14.5736 8.65259C14.6224 8.53424 14.6942 8.4267 14.7846 8.33612C14.8751 8.24554 14.9826 8.17371 15.1009 8.12474C15.2192 8.07578 15.346 8.05065 15.474 8.05078C15.602 8.05078 15.7288 8.076 15.8471 8.125C15.9654 8.174 16.0729 8.24581 16.1634 8.33635C16.254 8.42689 16.3258 8.53437 16.3748 8.65266C16.4238 8.77096 16.449 8.89773 16.449 9.02577C16.449 9.15381 16.4238 9.2806 16.3748 9.3989C16.3258 9.51719 16.254 9.62467 16.1634 9.71521C16.0729 9.80575 15.9654 9.87756 15.8471 9.92656C15.7288 9.97556 15.602 10.0008 15.474 10.0008H15.475Z" fill="black"/>
<path d="M15.9827 14.0586H8.51367C8.31476 14.0586 8.12399 13.9796 7.98334 13.8389C7.84269 13.6983 7.76367 13.5075 7.76367 13.3086C7.76367 13.1097 7.84269 12.9189 7.98334 12.7783C8.12399 12.6376 8.31476 12.5586 8.51367 12.5586H15.9827C16.1816 12.5586 16.3723 12.6376 16.513 12.7783C16.6537 12.9189 16.7327 13.1097 16.7327 13.3086C16.7327 13.5075 16.6537 13.6983 16.513 13.8389C16.3723 13.9796 16.1816 14.0586 15.9827 14.0586Z" fill="black"/>
<path d="M12.2493 17.3706C11.5621 17.3687 10.9037 17.095 10.4178 16.6091C9.93189 16.1232 9.6581 15.4647 9.65625 14.7776V13.3086C9.65625 13.1097 9.73526 12.9189 9.87592 12.7783C10.0166 12.6376 10.2073 12.5586 10.4062 12.5586C10.6052 12.5586 10.7959 12.6376 10.9366 12.7783C11.0772 12.9189 11.1562 13.1097 11.1562 13.3086V14.7776C11.1562 15.0675 11.2714 15.3455 11.4764 15.5505C11.6814 15.7554 11.9594 15.8706 12.2493 15.8706C12.5391 15.8706 12.8171 15.7554 13.0221 15.5505C13.2271 15.3455 13.3423 15.0675 13.3423 14.7776V13.3086C13.3423 13.1097 13.4213 12.9189 13.5619 12.7783C13.7026 12.6376 13.8933 12.5586 14.0923 12.5586C14.2912 12.5586 14.4819 12.6376 14.6226 12.7783C14.7632 12.9189 14.8423 13.1097 14.8423 13.3086V14.7776C14.8404 15.4647 14.5666 16.1232 14.0807 16.6091C13.5949 17.095 12.9364 17.3687 12.2493 17.3706Z" fill="black"/>
</svg>