<svg width="24" height="24" viewBox="0 0 24 24" fill="none" xmlns="http://www.w3.org/2000/svg">
<path fill-rule="evenodd" clip-rule="evenodd" d="M3.7402 3.89737C4.72468 2.84117 6.12669 2.25 7.78216 2.25H16.2169C17.8762 2.25 19.2788 2.84084 20.2629 3.89765C21.2413 4.94841 21.75 6.39889 21.75 8.02638V15.9736C21.75 17.6011 21.2413 19.0516 20.2627 20.1024C19.2785 21.1592 17.8756 21.75 16.2159 21.75H7.78216C6.1228 21.75 4.72038 21.1591 3.73657 20.1023C2.75842 19.0515 2.25 17.601 2.25 15.9736V8.02638C2.25 6.39806 2.76117 4.94771 3.7402 3.89737ZM4.83745 4.92012C4.16024 5.64666 3.75 6.70951 3.75 8.02638V15.9736C3.75 17.2914 4.15861 18.3541 4.83451 19.0802C5.50475 19.8003 6.49341 20.25 7.78216 20.25H16.2159C17.5052 20.25 18.4944 19.8002 19.165 19.0801C19.8412 18.354 20.25 17.2913 20.25 15.9736V8.02638C20.25 6.70868 19.8412 5.64597 19.1651 4.91984C18.4946 4.19975 17.5056 3.75 16.2169 3.75H7.78216C6.49828 3.75 5.50921 4.19943 4.83745 4.92012Z" fill="black"/>
<path fill-rule="evenodd" clip-rule="evenodd" d="M11.9512 11.4232C11.9512 9.45141 13.5497 7.85156 15.5228 7.85156H16.5269C16.9411 7.85156 17.2769 8.18735 17.2769 8.60156C17.2769 9.01578 16.9411 9.35156 16.5269 9.35156H15.5228C14.3785 9.35156 13.4512 10.2795 13.4512 11.4232V20.9992C13.4512 21.4134 13.1154 21.7492 12.7012 21.7492C12.287 21.7492 11.9512 21.4134 11.9512 20.9992V11.4232Z" fill="black"/>
<path fill-rule="evenodd" clip-rule="evenodd" d="M10.0371 13.3828C10.0371 12.9686 10.3729 12.6328 10.7871 12.6328H16.0489C16.4632 12.6328 16.7989 12.9686 16.7989 13.3828C16.7989 13.797 16.4632 14.1328 16.0489 14.1328H10.7871C10.3729 14.1328 10.0371 13.797 10.0371 13.3828Z" fill="black"/>
</svg>