<svg width="24" height="24" viewBox="0 0 24 24" fill="none" xmlns="http://www.w3.org/2000/svg">
<path d="M14.3602 6.82377H16.268C16.5075 6.82377 16.7016 7.01789 16.7016 7.25736V9.51205C16.7016 9.75152 16.5075 9.94564 16.268 9.94564H14.3602C14.1535 9.94564 13.9544 10.0317 13.8084 10.1718C13.6616 10.3203 13.5798 10.5152 13.5798 10.7261V13.0675H16.268C16.5075 13.0675 16.7016 13.2616 16.7016 13.5011V15.7558C16.7016 15.9953 16.5075 16.1894 16.268 16.1894H13.5798V20.5C13.5798 20.7761 13.8036 21 14.0798 21H16.2159C19.165 21 21 18.9188 21 15.9736V8.02638C21 5.08119 19.165 3 16.2169 3H7.78216C4.84281 3 3 5.08119 3 8.02638V15.9736C3 18.9188 4.83405 21 7.78216 21H9.95788C10.234 21 10.4579 20.7761 10.4579 20.5V16.1894H8.55007C8.3106 16.1894 8.11647 15.9953 8.11647 15.7558V13.5011C8.11647 13.2616 8.3106 13.0675 8.55007 13.0675H10.4579V10.7261C10.4579 9.6883 10.8688 8.69689 11.6012 7.96283C12.3327 7.2372 13.3249 6.82377 14.3602 6.82377Z" stroke="black" stroke-width="1.5" stroke-linecap="round" stroke-linejoin="round"/>
</svg>