<svg width="24" height="24" viewBox="0 0 24 24" fill="none" xmlns="http://www.w3.org/2000/svg">
<path d="M12.0144 21.7512C10.5044 21.7512 8.9944 21.3911 7.6244 20.7011C7.5544 20.6711 7.4944 20.6512 7.4444 20.6712C6.6244 20.8612 5.3244 21.1912 4.3744 21.4312C3.8544 21.5612 3.3244 21.4112 2.9544 21.0412C2.5844 20.6712 2.4344 20.1512 2.5544 19.6512L2.6644 19.1612C2.8844 18.2112 3.1344 17.1012 3.2644 16.4912C3.2744 16.4312 3.2644 16.3811 3.2444 16.3211C2.5844 14.9111 2.25439 13.4612 2.25439 12.0012C2.25439 9.10118 3.5444 6.36118 5.7944 4.49118C8.0344 2.63118 10.9744 1.88123 13.8544 2.42123C17.7444 3.15123 20.8444 6.2512 21.5744 10.1412C22.1144 13.0212 21.3644 15.9611 19.4944 18.2111C17.6244 20.4611 14.8944 21.7512 11.9944 21.7512H12.0144ZM8.3044 19.3612C9.4644 19.9412 10.7444 20.2512 12.0144 20.2512C14.4644 20.2512 16.7844 19.1612 18.3644 17.2512C19.9344 15.3512 20.5744 12.8612 20.1244 10.4212C19.5044 7.14123 16.8844 4.51121 13.6044 3.90121C11.1644 3.44121 8.6744 4.08121 6.7744 5.65121C4.8644 7.23121 3.7744 9.55118 3.7744 12.0012C3.7744 13.2412 4.0544 14.4712 4.6244 15.6712C4.7944 16.0212 4.83439 16.4212 4.75439 16.8012C4.62439 17.4112 4.36439 18.5312 4.14439 19.4912L4.03439 19.9812C4.98439 19.7312 6.29439 19.4011 7.1144 19.2111C7.5044 19.1111 7.92439 19.1612 8.32439 19.3612H8.3044Z" fill="black"/>
<path d="M13.3441 15.4007C13.0841 15.4007 12.8541 15.3307 12.6641 15.2007L10.5941 13.8206L8.96405 14.7507C8.49405 15.0207 7.92405 14.9507 7.53405 14.5807C7.15405 14.2107 7.05405 13.6407 7.28405 13.1607L9.24406 9.2507C9.40406 8.9307 9.69405 8.7007 10.0341 8.6207C10.3641 8.5407 10.7041 8.60073 10.9841 8.78073L13.0641 10.1607L15.1241 9.13071C15.6041 8.89071 16.1841 9.00072 16.5441 9.39072C16.8941 9.75072 16.9741 10.3406 16.7041 10.8106L14.3841 14.7907C14.2241 15.0707 13.9441 15.2807 13.6241 15.3607C13.5341 15.3807 13.4341 15.3807 13.3541 15.3807L13.3441 15.4007ZM10.6341 12.1906C10.7841 12.1906 10.9241 12.2306 11.0541 12.3206L13.2541 13.7907L14.9241 10.9308L13.3541 11.7107C13.1141 11.8307 12.8241 11.8107 12.6041 11.6607L10.4541 10.2307L9.07405 12.9807L10.2641 12.3008C10.3841 12.2308 10.5041 12.2007 10.6341 12.2007V12.1906Z" fill="black"/>
</svg>