<svg width="25" height="25" viewBox="0 0 25 25" fill="none" xmlns="http://www.w3.org/2000/svg">
<path fill-rule="evenodd" clip-rule="evenodd" d="M12.25 4.13867C7.55558 4.13867 3.75 7.94425 3.75 12.6387C3.75 17.3331 7.55558 21.1387 12.25 21.1387C16.9444 21.1387 20.75 17.3331 20.75 12.6387C20.75 7.94425 16.9444 4.13867 12.25 4.13867ZM2.25 12.6387C2.25 7.11582 6.72715 2.63867 12.25 2.63867C17.7728 2.63867 22.25 7.11582 22.25 12.6387C22.25 18.1615 17.7728 22.6387 12.25 22.6387C6.72715 22.6387 2.25 18.1615 2.25 12.6387Z" fill="black"/>
<path fill-rule="evenodd" clip-rule="evenodd" d="M12.6179 8.40891L10.6847 14.9612H14.2945V16.4612H9.52719L8.95798 15.5128L11.1792 7.98444L12.6179 8.40891Z" fill="black"/>
<path fill-rule="evenodd" clip-rule="evenodd" d="M15.8857 11.063H17.3957V12.563H15.8857V11.063Z" fill="black"/>
<path fill-rule="evenodd" clip-rule="evenodd" d="M6.43262 11.063H7.94262V12.563H6.43262V11.063Z" fill="black"/>
</svg>