<svg width="24" height="24" viewBox="0 0 24 24" fill="none" xmlns="http://www.w3.org/2000/svg">
<path fill-rule="evenodd" clip-rule="evenodd" d="M10.54 3.78104C11.5227 2.80626 12.8563 2.25 14.2498 2.25H16.4498C17.1402 2.25 17.6998 2.80964 17.6998 3.5V6.1C17.6998 6.79036 17.1402 7.35 16.4498 7.35H14.2498C14.2194 7.35 14.1764 7.36372 14.14 7.39532C14.112 7.42652 14.0998 7.46053 14.0998 7.5V9.45H16.4498C17.1402 9.45 17.6998 10.0096 17.6998 10.7V13.3C17.6998 13.9904 17.1402 14.55 16.4498 14.55H14.0998V20.5C14.0998 21.1904 13.5402 21.75 12.8498 21.75H10.2498C9.55945 21.75 8.9998 21.1904 8.9998 20.5V14.55H7.5498C6.85945 14.55 6.2998 13.9904 6.2998 13.3V10.7C6.2998 10.0096 6.85945 9.45 7.54981 9.45H8.9998V7.5C8.9998 6.10427 9.55268 4.77063 10.5372 3.78379L10.54 3.78103L10.54 3.78104ZM11.5977 4.84462C10.8941 5.55062 10.4998 6.50287 10.4998 7.5V10.2C10.4998 10.6142 10.164 10.95 9.7498 10.95H7.7998V13.05H9.7498C10.164 13.05 10.4998 13.3858 10.4998 13.8V20.25H12.5998V13.8C12.5998 13.3858 12.9356 13.05 13.3498 13.05H16.1998V10.95H13.3498C12.9356 10.95 12.5998 10.6142 12.5998 10.2V7.5C12.5998 7.05607 12.7743 6.64277 13.0801 6.33347L13.0942 6.31959C13.393 6.03286 13.8055 5.85 14.2498 5.85H16.1998V3.75H14.2498C13.2563 3.75 12.302 4.14674 11.5977 4.84462Z" fill="black"/>
</svg>