<svg width="24" height="24" viewBox="0 0 24 24" fill="none" xmlns="http://www.w3.org/2000/svg">
<path d="M7.78216 3H16.2169C19.165 3 21 5.08119 21 8.02638V15.9736C21 18.9188 19.165 21 16.2159 21H7.78216C4.83405 21 3 18.9188 3 15.9736V8.02638C3 5.08119 4.84281 3 7.78216 3Z" stroke="black" stroke-width="1.5" stroke-linecap="round" stroke-linejoin="round"/>
<path fill-rule="evenodd" clip-rule="evenodd" d="M16.6739 10.2088L13.986 14.8166C13.9127 14.9422 13.7908 15.032 13.6492 15.0648C13.5075 15.0976 13.3586 15.0704 13.2376 14.9898L10.3929 13.0933L8.0433 14.436C7.84144 14.5513 7.58786 14.5209 7.41896 14.3612C7.25006 14.2014 7.20565 13.9499 7.30962 13.7419L9.57381 9.21354C9.64149 9.07818 9.76403 8.9784 9.9103 8.93955C10.0566 8.90071 10.2125 8.92654 10.3384 9.01049L13.1519 10.8862L15.9822 9.471C16.1909 9.36663 16.4434 9.41179 16.6031 9.58204C16.7627 9.7523 16.7915 10.0072 16.6739 10.2088Z" stroke="black" stroke-width="1.5" stroke-linecap="round" stroke-linejoin="round"/>
</svg>