<svg width="24" height="24" viewBox="0 0 24 24" fill="none" xmlns="http://www.w3.org/2000/svg">
<path d="M12 21.75C6.62 21.75 2.25 17.38 2.25 12C2.25 6.62 6.62 2.25 12 2.25C17.38 2.25 21.75 6.62 21.75 12C21.75 17.38 17.38 21.75 12 21.75ZM12 3.75C7.45 3.75 3.75 7.45 3.75 12C3.75 16.55 7.45 20.25 12 20.25C16.55 20.25 20.25 16.55 20.25 12C20.25 7.45 16.55 3.75 12 3.75Z" fill="black"/>
<path d="M13.4401 15.6506C13.1901 15.6506 12.9401 15.5707 12.7401 15.4307L10.4501 13.9106L8.63013 14.9506C8.15013 15.2206 7.56013 15.1606 7.15013 14.7806C6.75013 14.4006 6.64014 13.8105 6.89014 13.3105L9.03013 9.03063C9.21013 8.69063 9.51012 8.46061 9.86012 8.38061C10.1601 8.29061 10.5401 8.35065 10.8401 8.55065L13.1301 10.0806L15.4201 8.94054C15.9101 8.69054 16.5101 8.80055 16.8901 9.20055C17.2701 9.60055 17.3301 10.2107 17.0601 10.6807L14.5201 15.0406C14.3501 15.3306 14.0601 15.5506 13.7201 15.6206C13.6301 15.6406 13.5301 15.6506 13.4401 15.6506ZM10.4801 12.2806C10.6301 12.2806 10.7701 12.3206 10.9001 12.4106L13.3701 14.0507L15.3401 10.6606L13.4201 11.6106C13.1801 11.7306 12.8901 11.7105 12.6701 11.5605L10.2501 9.95055L8.61012 13.2406L10.1101 12.3806C10.2301 12.3106 10.3501 12.2806 10.4801 12.2806Z" fill="black"/>
</svg>