<svg width="24" height="24" viewBox="0 0 24 24" fill="none" xmlns="http://www.w3.org/2000/svg">
<path d="M16.21 21.75H7.78001C4.47001 21.75 2.25 19.43 2.25 15.97V8.02002C2.25 4.57002 4.47001 2.25 7.78001 2.25H16.22C19.53 2.25 21.75 4.57002 21.75 8.02002V15.97C21.75 19.43 19.53 21.75 16.22 21.75H16.21ZM7.78001 3.75C5.33001 3.75 3.75 5.43002 3.75 8.02002V15.97C3.75 18.57 5.33001 20.25 7.78001 20.25H16.21C18.66 20.25 20.24 18.57 20.24 15.97V8.02002C20.24 5.43002 18.66 3.75 16.21 3.75H7.77H7.78001Z" fill="black"/>
<path d="M13.5205 15.8208C13.2505 15.8208 13.0005 15.7408 12.7805 15.5808L10.3505 13.9708L8.40046 15.0808C7.93046 15.3608 7.30047 15.2908 6.89047 14.9008C6.48047 14.5108 6.37046 13.8908 6.63046 13.3908L8.89047 8.87082C9.04047 8.55082 9.34046 8.30077 9.70046 8.20077C10.1105 8.11077 10.4705 8.19084 10.7605 8.39084L13.1905 10.0008L15.6305 8.78085C16.1205 8.52085 16.7405 8.63087 17.1305 9.05087C17.5205 9.47087 17.5905 10.0708 17.3005 10.5608L14.6105 15.1709C14.4305 15.4809 14.1305 15.7009 13.7805 15.7809C13.6905 15.8009 13.5905 15.8108 13.5005 15.8108L13.5205 15.8208ZM13.6305 14.3408H13.6405C13.6405 14.3408 13.6405 14.3408 13.6305 14.3408ZM10.3805 12.3308C10.5305 12.3308 10.6705 12.3708 10.8005 12.4608L13.4505 14.2208L15.6405 10.4708L13.4805 11.5509C13.2405 11.6709 12.9505 11.6508 12.7305 11.5008L10.1205 9.77084L8.30046 13.4109L10.0105 12.4309C10.1305 12.3609 10.2505 12.3308 10.3805 12.3308Z" fill="black"/>
</svg>