<svg width="24" height="24" viewBox="0 0 24 24" fill="none" xmlns="http://www.w3.org/2000/svg">
<path fill-rule="evenodd" clip-rule="evenodd" d="M3.7402 3.89737C4.72468 2.84117 6.12669 2.25 7.78216 2.25H16.2169C17.8762 2.25 19.2788 2.84084 20.2629 3.89765C21.2413 4.94841 21.75 6.39889 21.75 8.02638V15.9736C21.75 17.6011 21.2413 19.0516 20.2627 20.1024C19.2785 21.1592 17.8756 21.75 16.2159 21.75H14.0798C13.3894 21.75 12.8298 21.1904 12.8298 20.5V16.1894C12.8298 15.7752 13.1655 15.4394 13.5798 15.4394H15.9516V13.8175H13.5798C13.1655 13.8175 12.8298 13.4817 12.8298 13.0675V10.7261C12.8298 10.3145 12.9918 9.93104 13.2751 9.64448L13.2891 9.6306C13.5656 9.36533 13.9476 9.19564 14.3602 9.19564H15.9516V7.57377H14.3602C13.5253 7.57377 12.7229 7.9072 12.1307 8.49396C11.5392 9.08754 11.2079 9.88794 11.2079 10.7261V13.0675C11.2079 13.4817 10.8721 13.8175 10.4579 13.8175H8.86647V15.4394H10.4579C10.8721 15.4394 11.2079 15.7752 11.2079 16.1894V20.5C11.2079 21.1904 10.6482 21.75 9.95788 21.75H7.78216C6.1228 21.75 4.72038 21.1591 3.73657 20.1023C2.75842 19.0515 2.25 17.601 2.25 15.9736V8.02638C2.25 6.39806 2.76117 4.94771 3.7402 3.89737ZM4.83745 4.92012C4.16024 5.64666 3.75 6.70951 3.75 8.02638V15.9736C3.75 17.2914 4.15861 18.3541 4.83451 19.0802C5.50475 19.8003 6.49341 20.25 7.78216 20.25H9.70788V16.9394H8.55007C7.89639 16.9394 7.36647 16.4095 7.36647 15.7558V13.5011C7.36647 12.8474 7.89639 12.3175 8.55007 12.3175H9.70788V10.7261C9.70788 9.48932 10.1978 8.30752 11.0702 7.43311L11.073 7.43035C11.9437 6.5667 13.1252 6.07377 14.3602 6.07377H16.268C16.9217 6.07377 17.4516 6.60368 17.4516 7.25736V9.51205C17.4516 10.1657 16.9217 10.6956 16.268 10.6956H14.3603C14.3603 10.6957 14.3564 10.6958 14.3494 10.6987C14.3446 10.7007 14.3397 10.7035 14.3353 10.7066C14.3334 10.7094 14.3324 10.7114 14.3319 10.7127C14.3311 10.7147 14.3298 10.7185 14.3298 10.7261V12.3175H16.268C16.9217 12.3175 17.4516 12.8474 17.4516 13.5011V15.7558C17.4516 16.4095 16.9217 16.9394 16.268 16.9394H14.3298V20.25H16.2159C17.5052 20.25 18.4944 19.8002 19.165 19.0801C19.8412 18.354 20.25 17.2913 20.25 15.9736V8.02638C20.25 6.70868 19.8412 5.64597 19.1651 4.91984C18.4946 4.19975 17.5056 3.75 16.2169 3.75H7.78216C6.49828 3.75 5.50921 4.19943 4.83745 4.92012Z" fill="black"/>
</svg>