<svg width="25" height="24" viewBox="0 0 25 24" fill="none" xmlns="http://www.w3.org/2000/svg">
<path opacity="0.4" d="M3.5 8.46907V6.89189C3.5 4.74259 5.24259 3 7.39286 3H8.68205" stroke="black" stroke-width="1.5" stroke-linecap="round" stroke-linejoin="round"/>
<path opacity="0.4" d="M3.5 15.5312V17.1084C3.5 19.2577 5.24259 21.0003 7.39286 21.0003H8.64994" stroke="black" stroke-width="1.5" stroke-linecap="round" stroke-linejoin="round"/>
<path opacity="0.4" d="M21.5004 15.5312V17.1084C21.5004 19.2577 19.7578 21.0003 17.6075 21.0003H16.3184" stroke="black" stroke-width="1.5" stroke-linecap="round" stroke-linejoin="round"/>
<path opacity="0.4" d="M21.4995 8.46907V6.89189C21.4995 4.74259 19.757 3 17.6067 3H16.3496" stroke="black" stroke-width="1.5" stroke-linecap="round" stroke-linejoin="round"/>
<path d="M14.2624 16.043C13.7145 16.331 13.4522 17.8173 13.4522 17.8173" stroke="black" stroke-width="1.5" stroke-linecap="round"/>
<path d="M8.73851 17.1213C9.42547 15.5547 9.05387 13.9168 8.24938 12.4768C7.67441 11.4473 7.5471 10.3433 8.03334 9.22298C8.75616 7.55669 10.5001 6.78841 12.2306 6.74995C13.268 6.72687 14.2527 6.90794 15.0636 7.59185C16.1046 8.46982 16.7135 9.54401 16.3982 10.9724C16.2302 11.7338 16.786 12.5987 17.1799 13.1278C17.3534 13.3607 17.266 13.6728 16.995 13.7773L16.4822 13.9751C16.3343 14.0321 16.2262 14.1614 16.1963 14.3171L16.0248 15.7783C15.9679 16.1576 15.6456 16.3377 15.2853 16.2619L13.746 15.9148C13.2426 15.8038 13.2647 15.3485 13.1332 14.8721" stroke="black" stroke-width="1.5" stroke-linecap="round"/>
</svg>