<svg width="25" height="24" viewBox="0 0 25 24" fill="none" xmlns="http://www.w3.org/2000/svg">
<path fill-rule="evenodd" clip-rule="evenodd" d="M19.5464 9.23251C19.4824 10.1205 17.3834 12.4205 13.6294 14.4215L13.4114 14.5325C12.9194 14.7815 12.7214 15.3825 12.9704 15.8765C13.1464 16.2245 13.4984 16.4245 13.8634 16.4245C14.0154 16.4245 14.1694 16.3905 14.3144 16.3175L14.5514 16.1975C17.9144 14.4045 21.3794 11.6005 21.5414 9.37751C21.5814 8.82651 21.1674 8.34751 20.6164 8.30751C20.0714 8.27251 19.5864 8.68151 19.5464 9.23251Z" fill="black"/>
<path fill-rule="evenodd" clip-rule="evenodd" d="M21.0895 12.4288C20.5835 12.2058 19.9945 12.4378 19.7725 12.9448C19.5425 13.4718 18.6795 14.4908 17.0065 15.6278C16.5485 15.9388 16.4305 16.5608 16.7405 17.0178C16.9345 17.3018 17.2485 17.4548 17.5685 17.4548C17.7625 17.4548 17.9585 17.3998 18.1305 17.2828C19.8745 16.0968 21.1415 14.8078 21.6055 13.7448C21.8265 13.2398 21.5955 12.6498 21.0895 12.4288Z" fill="black"/>
<path fill-rule="evenodd" clip-rule="evenodd" d="M19.9664 16.7364C19.4984 16.4444 18.8804 16.5874 18.5884 17.0554C18.3064 17.5084 17.4254 18.2834 16.0904 18.9954C14.7854 19.6994 13.6994 19.9794 13.1654 20.0064C12.6134 20.0334 12.1884 20.5034 12.2164 21.0544C12.2424 21.5894 12.6844 22.0054 13.2144 22.0054C13.2314 22.0054 13.2474 22.0054 13.2644 22.0044C14.2724 21.9544 15.6834 21.4874 17.0354 20.7574C18.5384 19.9564 19.7534 18.9674 20.2854 18.1144C20.5774 17.6454 20.4344 17.0284 19.9664 16.7364Z" fill="black"/>
<path fill-rule="evenodd" clip-rule="evenodd" d="M6.97603 15.8458C8.78603 15.4958 10.969 14.6688 13.123 13.5168C16.328 11.8028 21.386 8.2108 20.013 5.6258C19.754 5.1378 19.143 4.9378 18.655 5.1968C18.167 5.4548 17.976 6.0448 18.235 6.5328C18.31 7.0568 16.618 9.3788 12.18 11.7528C7.74903 14.1228 4.86403 14.2358 4.48403 13.9128C4.22303 13.4258 3.61903 13.2418 3.13003 13.5028C2.64303 13.7638 2.46003 14.3688 2.72003 14.8568C3.02803 15.4318 3.72603 16.0248 5.29903 16.0248C5.77403 16.0248 6.32903 15.9708 6.97603 15.8458Z" fill="black"/>
<path fill-rule="evenodd" clip-rule="evenodd" d="M4.90635 12.8127C5.41935 12.8127 6.03635 12.7367 6.77835 12.5567C7.31435 12.4267 7.64435 11.8857 7.51335 11.3497C7.38335 10.8127 6.84135 10.4787 6.30635 10.6137C5.61735 10.7807 5.12635 10.8187 4.81235 10.8187C4.53935 10.8187 4.39635 10.7987 4.38035 10.7917C4.11835 10.3047 3.51235 10.1217 3.02635 10.3837C2.53935 10.6457 2.35835 11.2517 2.61935 11.7387C2.90735 12.2747 3.53835 12.8127 4.90635 12.8127Z" fill="black"/>
<g opacity="0.4">
<path fill-rule="evenodd" clip-rule="evenodd" d="M10.3326 16.9754C10.1896 16.4414 9.6406 16.1224 9.1086 16.2674C7.3976 16.7244 6.3836 16.6834 6.0066 16.4914C5.5146 16.2434 4.9126 16.4394 4.6636 16.9324C4.4136 17.4244 4.6106 18.0264 5.1036 18.2764C5.5646 18.5094 6.1506 18.6254 6.8556 18.6254C7.6346 18.6254 8.5596 18.4834 9.6246 18.1994C10.1576 18.0564 10.4746 17.5084 10.3326 16.9754Z" fill="black"/>
<path fill-rule="evenodd" clip-rule="evenodd" d="M10.5914 8.93092C10.2354 9.12992 9.85739 9.30992 9.49739 9.48092C8.99839 9.71692 8.78539 10.3129 9.02239 10.8119C9.19339 11.1729 9.55139 11.3839 9.92639 11.3839C10.0704 11.3839 10.2164 11.3529 10.3544 11.2869C10.7534 11.0989 11.1714 10.8979 11.5514 10.6859C14.2844 9.22192 18.5894 6.13492 17.3864 3.84792C17.1294 3.35892 16.5104 3.13192 16.0234 3.38692C15.5334 3.64392 15.3334 4.20692 15.5904 4.69592C15.5914 5.15392 14.1594 7.02092 10.5914 8.93092Z" fill="black"/>
<path fill-rule="evenodd" clip-rule="evenodd" d="M4.6552 9.1913C4.8982 9.2643 5.1712 9.2973 5.4672 9.2973C6.8142 9.2973 8.6182 8.6013 10.0432 7.8373L10.6802 7.4693C11.1572 7.1923 11.3202 6.5803 11.0432 6.1023C10.7652 5.6253 10.1532 5.4623 9.6762 5.7393L9.0632 6.0933C7.6372 6.8583 6.4612 7.1943 5.7862 7.2813C6.2292 6.7703 7.1542 5.9913 8.5962 5.2173C10.0142 4.4633 11.1852 4.1233 11.8652 4.0283C11.8182 4.0853 11.7622 4.1453 11.7002 4.2103C11.3172 4.6073 11.3282 5.2403 11.7252 5.6243C12.1222 6.0073 12.7562 5.9973 13.1392 5.5983C14.3722 4.3213 14.2902 3.4163 14.0102 2.8963C13.8772 2.6373 13.6002 2.2923 13.0392 2.1163C11.7072 1.7043 9.3842 2.5343 7.6552 3.4533C6.4222 4.1143 5.3342 4.8893 4.5912 5.6373C3.2932 6.9443 3.3702 7.8703 3.6632 8.4153C3.8012 8.6733 4.0852 9.0183 4.6552 9.1913Z" fill="black"/>
<path fill-rule="evenodd" clip-rule="evenodd" d="M15.9071 18.6186C16.3941 18.3586 16.5791 17.7536 16.3201 17.2656C16.0601 16.7786 15.4561 16.5956 14.9671 16.8526L14.6041 17.0466C12.0231 18.3716 9.82012 18.8696 8.97812 18.6716C8.44012 18.5386 7.90312 18.8806 7.77812 19.4186C7.65312 19.9566 7.98812 20.4936 8.52512 20.6186C8.79212 20.6816 9.08612 20.7096 9.40112 20.7096C11.1851 20.7096 13.6361 19.7916 15.5311 18.8186L15.9071 18.6186Z" fill="black"/>
</g>
</svg>