<svg width="25" height="25" viewBox="0 0 25 25" fill="none" xmlns="http://www.w3.org/2000/svg">
<circle cx="12.25" cy="12.8848" r="9" stroke="black" stroke-width="1.5" stroke-linecap="round" stroke-linejoin="round"/>
<path d="M13.0185 14.5982C13.7194 15.5583 12.4092 16.3935 12.3957 17.3754C12.386 18.0829 12.8377 18.57 13.5165 18.7065C16.5806 19.3228 18.1146 15.7192 15.3619 14.0274L14.074 13.3738" stroke="black" stroke-width="1.5" stroke-miterlimit="10"/>
<path d="M11.48 11.1727C10.7791 10.2126 12.0894 9.37739 12.1029 8.3955C12.1126 7.68802 11.6608 7.20088 10.9821 7.06438C7.9179 6.44804 6.38398 10.0517 9.13663 11.7434L10.4245 12.3971" stroke="black" stroke-width="1.5" stroke-miterlimit="10"/>
<path d="M10.5368 13.655C9.57673 14.3559 8.74153 13.0456 7.75964 13.0321C7.05215 13.0224 6.56502 13.4742 6.42851 14.153C5.81217 17.2171 9.41583 18.751 11.1076 15.9984L11.7612 14.7105" stroke="black" stroke-width="1.5" stroke-miterlimit="10"/>
<path d="M13.9622 12.1156C14.9223 11.4147 15.7575 12.725 16.7394 12.7385C17.4469 12.7482 17.934 12.2964 18.0705 11.6177C18.6869 8.55352 15.0832 7.0196 13.3914 9.77225L12.7378 11.0602" stroke="black" stroke-width="1.5" stroke-miterlimit="10"/>
<circle cx="12.2495" cy="12.8848" r="1.8833" stroke="black" stroke-width="1.5" stroke-linecap="round" stroke-linejoin="round"/>
</svg>