<svg width="25" height="25" viewBox="0 0 25 25" fill="none" xmlns="http://www.w3.org/2000/svg">
<path d="M13.0334 14.6291C13.7473 15.6069 12.4128 16.4576 12.3991 17.4576C12.3892 18.1781 12.8493 18.6743 13.5406 18.8133C16.6614 19.441 18.2236 15.7708 15.4201 14.0478L14.1084 13.3821" stroke="black" stroke-width="1.5" stroke-miterlimit="10"/>
<path d="M11.4658 11.1403C10.752 10.1625 12.0864 9.31191 12.1002 8.31189C12.1101 7.59134 11.65 7.0952 10.9587 6.95618C7.8379 6.32845 6.27566 9.99867 9.07915 11.7217L10.3908 12.3874" stroke="black" stroke-width="1.5" stroke-miterlimit="10"/>
<path d="M10.5049 13.6686C9.52711 14.3825 8.67647 13.048 7.67645 13.0342C6.9559 13.0243 6.45977 13.4844 6.32074 14.1757C5.69301 17.2965 9.36323 18.8587 11.0862 16.0552L11.752 14.7436" stroke="black" stroke-width="1.5" stroke-miterlimit="10"/>
<path d="M13.9944 12.1008C14.9722 11.387 15.8229 12.7214 16.8229 12.7352C17.5434 12.7451 18.0396 12.285 18.1786 11.5937C18.8063 8.47291 15.1361 6.91067 13.4131 9.71416L12.7474 11.0259" stroke="black" stroke-width="1.5" stroke-miterlimit="10"/>
<circle cx="12.2501" cy="12.8841" r="1.91808" stroke="black" stroke-width="1.5" stroke-linecap="round" stroke-linejoin="round"/>
<path d="M8.03216 3.88477H16.4669C19.415 3.88477 21.25 5.96595 21.25 8.91114V16.8584C21.25 19.8036 19.415 21.8848 16.4659 21.8848H8.03216C5.08405 21.8848 3.25 19.8036 3.25 16.8584V8.91114C3.25 5.96595 5.09281 3.88477 8.03216 3.88477Z" stroke="black" stroke-width="1.5" stroke-linecap="round" stroke-linejoin="round"/>
</svg>