<svg width="25" height="24" viewBox="0 0 25 24" fill="none" xmlns="http://www.w3.org/2000/svg">
<path fill-rule="evenodd" clip-rule="evenodd" d="M11.2167 4.24699C12.0306 3.58434 13.1984 3.58434 14.0123 4.24699H11.2167ZM11.2167 4.24699L5.64282 8.78761C5.12671 9.20864 4.82715 9.83898 4.82715 10.5045V17.6783C4.82715 19.0983 5.97821 20.25 7.39888 20.25H17.8301C19.2508 20.25 20.4019 19.0983 20.4019 17.6783V10.5045C20.4019 9.83898 20.1026 9.20889 19.5865 8.78786L14.0123 4.24699C14.0123 4.24696 14.0124 4.24703 14.0123 4.24699M10.2694 3.08394C11.6349 1.97202 13.5941 1.97202 14.9596 3.08394L20.5339 7.6249C21.3992 8.33057 21.9019 9.38774 21.9019 10.5045V17.6783C21.9019 19.9264 20.0795 21.75 17.8301 21.75H7.39888C5.14949 21.75 3.32715 19.9264 3.32715 17.6783V10.5045C3.32715 9.38774 3.8295 8.33081 4.69483 7.62514L10.2694 3.08394Z" fill="black"/>
<path fill-rule="evenodd" clip-rule="evenodd" d="M8.54492 9.9271C8.54492 9.40507 8.96802 8.98145 9.49053 8.98145C10.0124 8.98145 10.4363 9.40447 10.4363 9.9271C10.4363 10.4497 10.0124 10.8728 9.49053 10.8728C8.96801 10.8728 8.54492 10.4491 8.54492 9.9271Z" fill="black"/>
<path fill-rule="evenodd" clip-rule="evenodd" d="M11.584 11.2607C11.584 10.5704 12.1436 10.0107 12.834 10.0107H15.934C16.3482 10.0107 16.684 10.3465 16.684 10.7607C16.684 11.175 16.3482 11.5107 15.934 11.5107H13.084V17.6408C13.084 18.055 12.7482 18.3908 12.334 18.3908C11.9198 18.3908 11.584 18.055 11.584 17.6408V11.2607Z" fill="black"/>
<path fill-rule="evenodd" clip-rule="evenodd" d="M11.584 14.4922C11.584 14.078 11.9198 13.7422 12.334 13.7422H15.934C16.3482 13.7422 16.684 14.078 16.684 14.4922C16.684 14.9064 16.3482 15.2422 15.934 15.2422H12.334C11.9198 15.2422 11.584 14.9064 11.584 14.4922Z" fill="black"/>
</svg>