<svg width="25" height="24" viewBox="0 0 25 24" fill="none" xmlns="http://www.w3.org/2000/svg">
<path fill-rule="evenodd" clip-rule="evenodd" d="M8.54492 8.6688C8.54492 8.14677 8.96802 7.72314 9.49053 7.72314C10.0124 7.72314 10.4363 8.14617 10.4363 8.6688C10.4363 9.19142 10.0124 9.61445 9.49053 9.61445C8.96801 9.61445 8.54492 9.19082 8.54492 8.6688Z" fill="black"/>
<path fill-rule="evenodd" clip-rule="evenodd" d="M11.584 10.0029C11.584 9.31257 12.1436 8.75293 12.834 8.75293H15.934C16.3482 8.75293 16.684 9.08872 16.684 9.50293C16.684 9.91714 16.3482 10.2529 15.934 10.2529H13.084V16.383C13.084 16.7972 12.7482 17.133 12.334 17.133C11.9198 17.133 11.584 16.7972 11.584 16.383V10.0029Z" fill="black"/>
<path fill-rule="evenodd" clip-rule="evenodd" d="M11.584 13.2339C11.584 12.8197 11.9198 12.4839 12.334 12.4839H15.934C16.3482 12.4839 16.684 12.8197 16.684 13.2339C16.684 13.6481 16.3482 13.9839 15.934 13.9839H12.334C11.9198 13.9839 11.584 13.6481 11.584 13.2339Z" fill="black"/>
<path fill-rule="evenodd" clip-rule="evenodd" d="M4.35445 3.89737C5.33894 2.84117 6.74095 2.25 8.39642 2.25H16.8311C18.4905 2.25 19.8931 2.84084 20.8771 3.89765C21.8555 4.94841 22.3643 6.39889 22.3643 8.02638V15.9736C22.3643 17.6011 21.8555 19.0516 20.877 20.1024C19.8928 21.1592 18.4899 21.75 16.8301 21.75H8.39642C6.73706 21.75 5.33464 21.1591 4.35083 20.1023C3.37268 19.0515 2.86426 17.601 2.86426 15.9736V8.02638C2.86426 6.39806 3.37542 4.94771 4.35445 3.89737ZM5.45171 4.92012C4.7745 5.64666 4.36426 6.70951 4.36426 8.02638V15.9736C4.36426 17.2914 4.77287 18.3541 5.44876 19.0802C6.11901 19.8003 7.10767 20.25 8.39642 20.25H16.8301C18.1195 20.25 19.1087 19.8002 19.7793 19.0801C20.4555 18.354 20.8643 17.2913 20.8643 15.9736V8.02638C20.8643 6.70868 20.4555 5.64597 19.7793 4.91984C19.1088 4.19975 18.1199 3.75 16.8311 3.75H8.39642C7.11254 3.75 6.12347 4.19943 5.45171 4.92012Z" fill="black"/>
</svg>