<svg width="25" height="24" viewBox="0 0 25 24" fill="none" xmlns="http://www.w3.org/2000/svg">
<path opacity="0.4" d="M6.35688 5.99968V12.0224C5.14942 12.935 4.35645 14.3692 4.35645 15.9999C4.35645 18.7612 6.59526 21 9.35655 21C12.1179 21 14.3567 18.7612 14.3567 15.9999C14.3567 14.3692 13.5647 12.935 12.3572 12.0224V5.99968C12.3572 4.3427 11.0135 3 9.35655 3C7.69958 3 6.35688 4.3427 6.35688 5.99968Z" stroke="black" stroke-width="1.5" stroke-linecap="round" stroke-linejoin="round"/>
<path fill-rule="evenodd" clip-rule="evenodd" d="M10.8309 15.9996C10.8309 16.813 10.1712 17.4727 9.35784 17.4727C8.54346 17.4727 7.88379 16.813 7.88379 15.9996C7.88379 15.1862 8.54312 14.5264 9.3575 14.5264C10.1709 14.5264 10.8309 15.1862 10.8309 15.9996Z" stroke="black" stroke-width="1.5" stroke-linecap="round" stroke-linejoin="round"/>
<path d="M9.35645 6.72754V14.5269" stroke="black" stroke-width="1.5" stroke-linecap="round" stroke-linejoin="round"/>
<path d="M14.3622 4.06944V4.11108M14.5259 4.07839C14.5259 4.17212 14.4499 4.2481 14.3562 4.2481C14.2625 4.2481 14.1865 4.17212 14.1865 4.07839C14.1865 3.98467 14.2625 3.90869 14.3562 3.90869C14.4499 3.90869 14.5259 3.98467 14.5259 4.07839Z" stroke="black" stroke-width="1.5" stroke-linecap="round" stroke-linejoin="round"/>
<path d="M19.8713 4.80176H17.2466C17.0128 4.80176 16.8232 4.99129 16.8232 5.22509V10.6269" stroke="black" stroke-width="1.5" stroke-linecap="round" stroke-linejoin="round"/>
<path d="M19.8713 7.96094H16.8232" stroke="black" stroke-width="1.5" stroke-linecap="round" stroke-linejoin="round"/>
</svg>