<svg width="24" height="24" viewBox="0 0 24 24" fill="none" xmlns="http://www.w3.org/2000/svg">
<path fill-rule="evenodd" clip-rule="evenodd" d="M12 3.75C7.44329 3.75 3.75 7.44329 3.75 12C3.75 16.5567 7.44329 20.25 12 20.25C16.5567 20.25 20.25 16.5567 20.25 12C20.25 7.44329 16.5567 3.75 12 3.75ZM2.25 12C2.25 6.61487 6.61487 2.25 12 2.25C17.3851 2.25 21.75 6.61487 21.75 12C21.75 17.3851 17.3851 21.75 12 21.75C6.61487 21.75 2.25 17.3851 2.25 12Z" fill="black"/>
<path fill-rule="evenodd" clip-rule="evenodd" d="M7.65039 13.3516C7.65039 12.9373 7.98618 12.6016 8.40039 12.6016H15.6004C16.0146 12.6016 16.3504 12.9373 16.3504 13.3516C16.3504 13.7658 16.0146 14.1016 15.6004 14.1016H8.40039C7.98618 14.1016 7.65039 13.7658 7.65039 13.3516Z" fill="black"/>
<path fill-rule="evenodd" clip-rule="evenodd" d="M10.3496 11.5484C10.3496 10.6372 11.0883 9.89844 11.9996 9.89844H15.5996C16.0138 9.89844 16.3496 10.2342 16.3496 10.6484C16.3496 11.0627 16.0138 11.3984 15.5996 11.3984H11.9996C11.9168 11.3984 11.8496 11.4656 11.8496 11.5484V16.0484C11.8496 16.4627 11.5138 16.7984 11.0996 16.7984C10.6854 16.7984 10.3496 16.4627 10.3496 16.0484V11.5484Z" fill="black"/>
<path fill-rule="evenodd" clip-rule="evenodd" d="M10.2004 8.69922C9.62049 8.69922 9.15039 9.16932 9.15039 9.74922V16.0492C9.15039 16.4634 8.8146 16.7992 8.40039 16.7992C7.98618 16.7992 7.65039 16.4634 7.65039 16.0492V9.74922C7.65039 8.34089 8.79206 7.19922 10.2004 7.19922H15.6004C16.0146 7.19922 16.3504 7.53501 16.3504 7.94922C16.3504 8.36343 16.0146 8.69922 15.6004 8.69922H10.2004Z" fill="black"/>
</svg>