<svg width="24" height="24" viewBox="0 0 24 24" fill="none" xmlns="http://www.w3.org/2000/svg">
<path opacity="0.4" fill-rule="evenodd" clip-rule="evenodd" d="M17.24 8.83594H6.76001C4.66001 8.83594 2.95001 10.5559 2.95001 12.6559V17.8059C2.95001 19.9159 4.66001 21.6259 6.76001 21.6259H17.24C19.34 21.6259 21.05 19.9159 21.05 17.8059V12.6559C21.05 10.5559 19.34 8.83594 17.24 8.83594Z" fill="black"/>
<path fill-rule="evenodd" clip-rule="evenodd" d="M8.71881 3.875H15.2808C15.6948 3.875 16.0308 3.539 16.0308 3.125C16.0308 2.711 15.6948 2.375 15.2808 2.375H8.71881C8.30481 2.375 7.96881 2.711 7.96881 3.125C7.96881 3.539 8.30481 3.875 8.71881 3.875Z" fill="black"/>
<path fill-rule="evenodd" clip-rule="evenodd" d="M6.1817 6.9873H17.8187C18.2327 6.9873 18.5687 6.6513 18.5687 6.2373C18.5687 5.8233 18.2327 5.4873 17.8187 5.4873H6.1817C5.7677 5.4873 5.4317 5.8233 5.4317 6.2373C5.4317 6.6513 5.7677 6.9873 6.1817 6.9873Z" fill="black"/>
<path fill-rule="evenodd" clip-rule="evenodd" d="M14.35 16.2546L15.26 15.3746C15.63 15.0246 15.68 14.4646 15.37 14.0546C15.2 13.8446 14.97 13.7146 14.73 13.6846L13.45 13.5046L12.88 12.3546C12.78 12.1646 12.62 12.0046 12.44 11.9146C12.21 11.7946 11.95 11.7746 11.68 11.8546C11.43 11.9446 11.23 12.1246 11.11 12.3546L10.55 13.5046L9.25002 13.6846C9.06002 13.7246 8.89002 13.8046 8.71002 13.9646C8.53002 14.1446 8.43002 14.3946 8.43002 14.6546C8.43002 14.9246 8.53002 15.1646 8.72002 15.3646L9.65002 16.2546L9.43002 17.5146C9.39002 17.7246 9.43002 17.9446 9.54002 18.1446C9.72002 18.4746 10.05 18.6546 10.4 18.6546C10.55 18.6546 10.71 18.6246 10.86 18.5446L12 17.9446L13.16 18.5546C13.35 18.6446 13.56 18.6746 13.76 18.6446C14.29 18.5546 14.65 18.0546 14.57 17.5046L14.35 16.2546ZM13.47 15.0153L12.97 14.9453C12.66 14.9053 12.38 14.7053 12.23 14.4153L12 13.9453L11.77 14.4053C11.62 14.6953 11.35 14.8953 11.04 14.9453L10.53 15.0153L10.89 15.3653C11.12 15.5953 11.23 15.9153 11.17 16.2353L11.09 16.7353L11.55 16.4953C11.83 16.3353 12.18 16.3353 12.48 16.5053L12.91 16.7353L12.83 16.2453C12.77 15.9153 12.88 15.5853 13.12 15.3553L13.47 15.0153Z" fill="black"/>
</svg>