<svg width="25" height="24" viewBox="0 0 25 24" fill="none" xmlns="http://www.w3.org/2000/svg">
<path fill-rule="evenodd" clip-rule="evenodd" d="M17.557 15.0966L18.055 16.0919L18.0558 16.0935C18.239 16.4575 18.5887 16.7064 18.9877 16.7644L20.0864 16.9219L19.3016 17.6759C19.0045 17.9595 18.8685 18.3722 18.9398 18.7773C18.9398 18.7771 18.9399 18.7776 18.9398 18.7773L19.1277 19.854L18.1318 19.3373L18.1271 19.3349C17.7695 19.1525 17.3456 19.1525 16.988 19.3349L15.9863 19.8546L16.1745 18.7764L16.1749 18.7737C16.2437 18.3711 16.1088 17.9602 15.8134 17.6768L15.0276 16.9224L16.122 16.7648C16.5269 16.7078 16.8729 16.4563 17.0556 16.0981L17.557 15.0966ZM14.4768 17.0016L14.4823 17.0009C14.4805 17.0011 14.4786 17.0014 14.4768 17.0016ZM18.1298 13.421C17.5169 13.1022 16.7675 13.3463 16.4523 13.9527L15.7783 15.2988L14.2833 15.5141C14.0034 15.5509 13.7499 15.6827 13.5596 15.8801M18.1298 13.421C18.3617 13.541 18.5449 13.7283 18.6615 13.952L18.6672 13.963L19.3355 15.2989L20.8317 15.5134C21.5028 15.6045 21.9778 16.2223 21.8873 16.898C21.8507 17.1723 21.7235 17.4286 21.5207 17.624L20.4421 18.6603L20.6983 20.1284C20.8085 20.8071 20.3453 21.4416 19.6712 21.5508L19.6669 21.5514C19.4066 21.592 19.1359 21.55 18.8963 21.4238L17.5576 20.7293L16.2165 21.425C15.6135 21.7415 14.8656 21.513 14.5443 20.9094L14.5423 20.9058C14.4166 20.6665 14.3724 20.3946 14.4161 20.1276L14.4174 20.1198L14.672 18.6604L13.5935 17.6249C13.5935 17.6249 13.5935 17.6249 13.5935 17.6249C13.1019 17.153 13.0866 16.3708 13.5596 15.8801M20.3389 18.7595C20.3382 18.7601 20.3375 18.7608 20.3368 18.7615L20.3389 18.7595Z" fill="black"/>
<path fill-rule="evenodd" clip-rule="evenodd" d="M13.5708 11.2316C13.5708 10.8174 13.9066 10.4816 14.3208 10.4816H15.8932C16.3074 10.4816 16.6432 10.8174 16.6432 11.2316C16.6432 11.6458 16.3074 11.9816 15.8932 11.9816H14.3208C13.9066 11.9816 13.5708 11.6458 13.5708 11.2316Z" fill="black"/>
<path fill-rule="evenodd" clip-rule="evenodd" d="M5.80127 11.2316C5.80127 10.8174 6.13706 10.4816 6.55127 10.4816H8.12366C8.53787 10.4816 8.87366 10.8174 8.87366 11.2316C8.87366 11.6458 8.53787 11.9816 8.12366 11.9816H6.55127C6.13706 11.9816 5.80127 11.6458 5.80127 11.2316Z" fill="black"/>
<path fill-rule="evenodd" clip-rule="evenodd" d="M2.61348 7.46286C2.67163 7.05275 3.05123 6.76743 3.46134 6.82558C8.60671 7.55514 13.8293 7.55514 18.9747 6.82558C19.3848 6.76743 19.7644 7.05275 19.8225 7.46286C19.8807 7.87297 19.5953 8.25257 19.1852 8.31072C13.9002 9.06009 8.53582 9.06009 3.25076 8.31072C2.84065 8.25257 2.55533 7.87297 2.61348 7.46286Z" fill="black"/>
<path fill-rule="evenodd" clip-rule="evenodd" d="M7.53959 2.72276C9.98503 2.3372 12.4757 2.3372 14.9211 2.72276L14.924 2.72321C15.88 2.87774 16.7024 3.56567 17.0239 4.47881L17.9405 7.02493C17.9404 7.02473 17.9406 7.02513 17.9405 7.02493C17.9645 7.09119 17.9974 7.15489 18.0384 7.21382L19.0556 8.57893C19.5689 9.27947 19.8459 10.1254 19.8466 10.9938C19.8469 11.408 19.5113 11.7441 19.0971 11.7444C18.6829 11.7447 18.3469 11.4092 18.3466 10.9949C18.3461 10.4459 18.1713 9.91097 17.8473 9.46787L16.8293 8.10168L16.8187 8.08704C16.6985 7.91731 16.6012 7.73207 16.53 7.53515L16.5296 7.5341L15.6094 4.97833C15.4708 4.58271 15.0994 4.27153 14.6859 4.2042C12.3969 3.84349 10.0657 3.84339 7.77679 4.20389C7.3657 4.27346 6.99765 4.58394 6.85997 4.97775L6.85768 4.98429L5.93564 7.54523C5.8633 7.73663 5.76471 7.91689 5.64288 8.0811L4.60894 9.50465C4.60887 9.50474 4.60901 9.50455 4.60894 9.50465C4.292 9.94218 4.12162 10.4692 4.12267 11.0095L4.12268 11.0133L4.1084 15.5674C4.10818 15.6365 4.16415 15.6926 4.23326 15.6926H5.96663C6.03559 15.6926 6.09149 15.6367 6.09149 15.5678V15.2092C6.09149 14.3119 6.81896 13.5844 7.71635 13.5844H12.0237C12.4379 13.5844 12.7737 13.9202 12.7737 14.3344C12.7737 14.7486 12.4379 15.0844 12.0237 15.0844H7.71635C7.64739 15.0844 7.59149 15.1403 7.59149 15.2092V15.5678C7.59149 16.4652 6.86401 17.1926 5.96663 17.1926H4.23326C3.33389 17.1926 2.60559 16.462 2.60841 15.5627L2.62267 11.0124C2.62267 11.0118 2.62267 11.0111 2.62267 11.0104C2.62143 10.1536 2.89153 9.31838 3.39429 8.62452L4.4372 7.18862C4.47595 7.13664 4.50741 7.07978 4.53069 7.01943L5.44526 4.47915C5.76486 3.56928 6.5816 2.88223 7.53322 2.72379L7.53959 2.72276Z" fill="black"/>
</svg>