<svg width="24" height="24" viewBox="0 0 24 24" fill="none" xmlns="http://www.w3.org/2000/svg">
<path fill-rule="evenodd" clip-rule="evenodd" d="M6.76305 9.96484C5.34688 9.96484 4.19922 11.1121 4.19922 12.5277V17.6843C4.19922 19.1002 5.34716 20.2481 6.76305 20.2481H17.2367C18.6515 20.2481 19.7996 19.1003 19.7996 17.6843V12.5277C19.7996 11.112 18.6518 9.96484 17.2367 9.96484H6.76305ZM2.69922 12.5277C2.69922 10.2831 4.51902 8.46484 6.76305 8.46484H17.2367C19.4799 8.46484 21.2996 10.2832 21.2996 12.5277V17.6843C21.2996 19.9284 19.4802 21.7481 17.2367 21.7481H6.76305C4.51874 21.7481 2.69922 19.9286 2.69922 17.6843V12.5277Z" fill="black"/>
<path fill-rule="evenodd" clip-rule="evenodd" d="M7.96945 3C7.96945 2.58579 8.30524 2.25 8.71945 2.25H15.281C15.6952 2.25 16.031 2.58579 16.031 3C16.031 3.41421 15.6952 3.75 15.281 3.75H8.71945C8.30524 3.75 7.96945 3.41421 7.96945 3ZM5.43164 6.11169C5.43164 5.69748 5.76743 5.36169 6.18164 5.36169H17.818C18.2322 5.36169 18.568 5.69748 18.568 6.11169C18.568 6.52591 18.2322 6.86169 17.818 6.86169H6.18164C5.76743 6.86169 5.43164 6.52591 5.43164 6.11169Z" fill="black"/>
<path fill-rule="evenodd" clip-rule="evenodd" d="M11.7758 12.9525C11.7747 12.9519 11.7737 12.9514 11.7726 12.9509L11.7789 12.954C11.7779 12.9535 11.7768 12.953 11.7758 12.9525ZM11.9985 13.6226L11.7074 14.2083C11.5628 14.4942 11.2877 14.7013 10.958 14.7504L10.9553 14.7508L10.3207 14.843L10.7843 15.2886C11.0195 15.5202 11.1236 15.8505 11.0682 16.1724L11.0678 16.1749L10.9577 16.8023L11.5341 16.501C11.8277 16.343 12.1812 16.3431 12.4747 16.5012L13.042 16.7983L12.9335 16.1801C12.8724 15.8487 12.9837 15.5122 13.2245 15.2824L13.6782 14.8438L13.0433 14.7519C12.7135 14.7049 12.4329 14.4972 12.2879 14.2049L12.9597 13.8715L12.2874 14.2037M12.4446 11.6099C12.2004 11.4871 11.9291 11.476 11.6914 11.5509L11.6796 11.5547C11.4249 11.6396 11.2161 11.8238 11.0992 12.0619L10.4819 13.3038L9.09485 13.5053C9.08641 13.5066 9.07799 13.5079 9.06959 13.5094C8.88179 13.5433 8.70215 13.6285 8.55377 13.764C8.54539 13.7716 8.53717 13.7795 8.52914 13.7875C8.13872 14.1779 8.13872 14.8109 8.52914 15.2014L8.53975 15.2118L9.54443 16.1774L9.30485 17.5419L9.30343 17.5503C9.26735 17.7703 9.30734 17.9915 9.40648 18.1795L9.41295 18.1915C9.67653 18.6702 10.2698 18.8468 10.75 18.6032L12.004 17.9479L13.2383 18.5943L13.2508 18.6007C13.4408 18.6957 13.6562 18.7296 13.8672 18.6961L13.8698 18.6957C14.4076 18.6084 14.78 18.1057 14.6988 17.5617L14.6957 17.5428L14.4561 16.1781L15.453 15.2142C15.822 14.8638 15.8672 14.2902 15.5564 13.8866L15.5526 13.8817C15.3958 13.6815 15.1641 13.5415 14.8986 13.5048L13.5155 13.3046L12.8968 12.0598L12.8912 12.0487C12.7939 11.8609 12.6387 11.7058 12.4446 11.6099ZM12.2505 17.8188C12.2468 17.8209 12.2432 17.8228 12.2395 17.8248L12.2505 17.8188ZM11.7686 17.8246C11.765 17.8227 11.7615 17.8208 11.758 17.8188L11.7686 17.8246Z" fill="black"/>
</svg>