<svg width="25" height="24" viewBox="0 0 25 24" fill="none" xmlns="http://www.w3.org/2000/svg">
<path d="M3.25067 21.6552H3.21765C3.11935 21.651 3.02283 21.6276 2.93359 21.5862C2.84435 21.5447 2.76415 21.4861 2.69757 21.4137C2.63099 21.3413 2.57932 21.2564 2.54553 21.164C2.51174 21.0716 2.49651 20.9735 2.50067 20.8752C2.57911 19.892 2.74988 18.9184 3.01068 17.9672C3.01315 17.845 3.04507 17.7253 3.1037 17.6182C4.01313 14.3259 5.71558 11.3067 8.06207 8.82471C10.4086 6.34276 13.3276 4.47373 16.5637 3.38115C18.6587 2.82015 21.0826 2.38115 21.8196 3.78115C22.4366 4.95715 21.4797 6.77415 18.7197 9.67415C16.9007 11.5812 14.9897 13.2171 14.9097 13.2851C14.793 13.3849 14.6485 13.4464 14.4957 13.4612L10.7417 13.8301L11.8857 14.7302C11.9767 14.8027 12.0496 14.8955 12.0986 15.0011C12.1477 15.1067 12.1715 15.2223 12.1682 15.3386C12.1649 15.455 12.1346 15.569 12.0796 15.6717C12.0247 15.7744 11.9467 15.8628 11.8517 15.9302C9.66886 17.565 7.05874 18.5317 4.33764 18.7132C4.1653 19.4414 4.0533 20.1825 4.00268 20.9291C3.99619 21.1241 3.91404 21.3089 3.77368 21.4444C3.63332 21.58 3.44576 21.6555 3.25067 21.6552ZM19.7507 4.34314C18.8242 4.3841 17.9064 4.54065 17.0187 4.80915C9.03767 7.75215 5.94466 13.4162 4.74866 17.1912C6.67118 16.9813 8.51765 16.3234 10.1396 15.2701L8.35065 13.8492C8.23361 13.7564 8.14698 13.6307 8.10181 13.4883C8.05663 13.346 8.05499 13.1933 8.09711 13.05C8.13922 12.9067 8.22318 12.7793 8.33819 12.684C8.45321 12.5887 8.59404 12.5299 8.74267 12.5152L14.1097 11.9881C18.1517 8.50615 20.8097 5.16716 20.4917 4.47416C20.4917 4.47816 20.3507 4.34314 19.7507 4.34314Z" fill="black"/>
<path d="M18.7771 21.6542C17.9038 21.6724 17.0356 21.5167 16.2231 21.1962C14.9037 20.7029 13.4505 20.7029 12.1311 21.1962C11.3188 21.5165 10.4511 21.6722 9.57812 21.6542C9.37921 21.6542 9.18844 21.5752 9.04779 21.4345C8.90714 21.2939 8.82812 21.1031 8.82812 20.9042C8.82812 20.7053 8.90714 20.5145 9.04779 20.3739C9.18844 20.2332 9.37921 20.1542 9.57812 20.1542C10.2779 20.1725 10.9739 20.0469 11.6231 19.7852C13.2704 19.1732 15.0828 19.1732 16.7301 19.7852C17.38 20.0468 18.0767 20.1724 18.7771 20.1542C18.976 20.1542 19.1668 20.2332 19.3074 20.3739C19.4481 20.5145 19.5271 20.7053 19.5271 20.9042C19.5271 21.1031 19.4481 21.2939 19.3074 21.4345C19.1668 21.5752 18.976 21.6542 18.7771 21.6542Z" fill="black"/>
</svg>