<svg width="24" height="24" viewBox="0 0 24 24" fill="none" xmlns="http://www.w3.org/2000/svg">
<path fill-rule="evenodd" clip-rule="evenodd" d="M12.7803 8.37201C13.0732 8.66491 13.0732 9.13978 12.7803 9.43267L8.78033 13.4327C8.48744 13.7256 8.01256 13.7256 7.71967 13.4327C7.42678 13.1398 7.42678 12.6649 7.71967 12.372L11.7197 8.37201C12.0126 8.07912 12.4874 8.07912 12.7803 8.37201Z" fill="black"/>
<path fill-rule="evenodd" clip-rule="evenodd" d="M12.7803 12.372C13.0732 12.6649 13.0732 13.1398 12.7803 13.4327L10.7803 15.4327C10.4874 15.7256 10.0126 15.7256 9.71967 15.4327C9.42678 15.1398 9.42678 14.6649 9.71967 14.372L11.7197 12.372C12.0126 12.0791 12.4874 12.0791 12.7803 12.372Z" fill="black"/>
<path fill-rule="evenodd" clip-rule="evenodd" d="M13.2803 15.872C13.5732 16.1649 13.5732 16.6398 13.2803 16.9327L12.7803 17.4327C12.4874 17.7256 12.0126 17.7256 11.7197 17.4327C11.4268 17.1398 11.4268 16.6649 11.7197 16.372L12.2197 15.872C12.5126 15.5791 12.9874 15.5791 13.2803 15.872Z" fill="black"/>
<path fill-rule="evenodd" clip-rule="evenodd" d="M12.098 2.90507C13.3283 2.94893 14.5091 3.51973 15.4844 4.49496L20.1564 9.16697C21.1316 10.1422 21.7024 11.3231 21.7462 12.5535C21.7903 13.7921 21.2966 14.9972 20.2988 15.995L20.2949 15.9989L20.2949 15.9989L15.9209 20.3096C15.4064 20.8166 14.713 21.1009 13.9906 21.1009H9.88161C9.14499 21.1009 8.43917 20.8054 7.92229 20.2806L3.84189 16.1374C3.84119 16.1367 3.84048 16.136 3.83978 16.1353C2.86525 15.1599 2.29683 13.9785 2.25363 12.749C2.21011 11.5107 2.70296 10.3059 3.69832 9.31054L8.6569 4.35196C9.65448 3.35438 10.8595 2.86091 12.098 2.90507ZM12.0445 4.40411C11.2658 4.37635 10.4531 4.67708 9.71756 5.41262L4.75898 10.3712C4.02637 11.1038 3.72529 11.9164 3.7527 12.6964C3.78039 13.4843 4.14696 14.3212 4.90255 15.0768L4.90659 15.0808L4.90658 15.0808L8.99101 19.228C9.22595 19.4666 9.54678 19.6009 9.88161 19.6009H13.9906C14.3189 19.6009 14.6341 19.4717 14.868 19.2412L19.2381 14.9343C19.2388 14.9337 19.2394 14.9331 19.24 14.9325C19.9745 14.1971 20.2748 13.3849 20.2471 12.6068C20.2191 11.8198 19.8519 10.9838 19.0957 10.2276L14.4237 5.55562C13.6675 4.79944 12.8315 4.43217 12.0445 4.40411Z" fill="black"/>
</svg>