<svg width="24" height="24" viewBox="0 0 24 24" fill="none" xmlns="http://www.w3.org/2000/svg">
<path d="M14.0901 14.4125C13.5701 13.1625 13.3101 12.5425 12.9901 12.2825C12.4201 11.8225 11.6101 11.8225 11.0301 12.2825C10.7101 12.5325 10.4501 13.1625 9.9201 14.4025L8.47009 17.8725C8.12009 18.7025 7.9401 19.1225 7.9501 19.4625C7.9701 20.0725 8.33009 20.6125 8.88009 20.8625C9.19009 21.0025 9.64008 21.0025 10.5501 21.0025H13.4501C14.3501 21.0025 14.8101 21.0025 15.1201 20.8625C15.6701 20.6125 16.0301 20.0725 16.0501 19.4725C16.0501 19.1325 15.8801 18.7125 15.5401 17.8825" stroke="black" stroke-width="1.5" stroke-linecap="round" stroke-linejoin="round"/>
<path d="M9.45996 4.67C9.30996 5.01 9.22998 5.39 9.22998 5.78C9.22998 7.32 10.48 8.56 12.01 8.56C13.54 8.56 14.79 7.32 14.79 5.78C14.79 4.24 13.54 3 12.01 3" stroke="black" stroke-width="1.5" stroke-linecap="round" stroke-linejoin="round"/>
</svg>