<svg width="25" height="24" viewBox="0 0 25 24" fill="none" xmlns="http://www.w3.org/2000/svg">
<path fill-rule="evenodd" clip-rule="evenodd" d="M3.46973 20.2203C3.17676 19.9272 3.17676 19.4523 3.46973 19.1593L4.50928 18.1198L3.57178 17.1823C3.27881 16.8893 3.27881 16.4143 3.57178 16.1213C3.86475 15.8282 4.33984 15.8282 4.63281 16.1213L5.56982 17.0591L7.11182 15.5172C6.05762 14.2046 5.42676 12.5372 5.42676 10.7223C5.42676 6.49231 8.85693 3.06128 13.0879 3.06128C17.3198 3.06128 20.7495 6.49231 20.7495 10.7223C20.7495 14.9543 17.3198 18.3843 13.0879 18.3843C11.2119 18.3843 9.49316 17.7098 8.16113 16.59L6.63037 18.1202L7.56592 19.0563C7.85889 19.3494 7.85889 19.8243 7.56592 20.1173C7.27295 20.4093 6.79785 20.4094 6.50586 20.1163L5.56982 19.1804L4.52979 20.2203C4.23682 20.5133 3.76172 20.5123 3.46973 20.2203ZM8.71826 15.0668C9.83398 16.1894 11.3794 16.8843 13.0879 16.8843C16.4917 16.8843 19.2495 14.1263 19.2495 10.7223C19.2495 7.32031 16.4917 4.56128 13.0879 4.56128C9.68457 4.56128 6.92676 7.32031 6.92676 10.7223C6.92676 12.3762 7.57812 13.8776 8.6377 14.9842C8.6499 14.9948 8.66113 15.0059 8.67285 15.0173C8.68896 15.0333 8.7041 15.0498 8.71826 15.0668Z" fill="black"/>
</svg>