<svg width="24" height="25" viewBox="0 0 24 25" fill="none" xmlns="http://www.w3.org/2000/svg">
<path fill-rule="evenodd" clip-rule="evenodd" d="M12.8276 8.79081H15.3036C16.8986 8.79081 18.1956 7.49381 18.1956 5.89981C18.1956 4.30581 16.8986 3.00781 15.3036 3.00781H12.8276C12.5996 3.00781 12.4146 3.19281 12.4146 3.42081V8.37781C12.4146 8.60581 12.5996 8.79081 12.8276 8.79081Z" fill="black"/>
<path fill-rule="evenodd" clip-rule="evenodd" d="M11.1753 3.0083H8.69632C7.10232 3.0083 5.80432 4.3053 5.80432 5.8993C5.80432 7.4933 7.10232 8.7913 8.69632 8.7913H11.1743C11.4023 8.7913 11.5873 8.6063 11.5873 8.3783L11.5883 3.4213C11.5883 3.3113 11.5453 3.2073 11.4683 3.1283C11.3903 3.0513 11.2853 3.0083 11.1753 3.0083Z" fill="black"/>
<path fill-rule="evenodd" clip-rule="evenodd" d="M11.1753 9.61694H8.69632C7.10232 9.61694 5.80432 10.9139 5.80432 12.5079C5.80432 14.1019 7.10232 15.3999 8.69632 15.3999H11.1753C11.4033 15.3999 11.5883 15.2149 11.5883 14.9869V10.0299C11.5883 9.80194 11.4033 9.61694 11.1753 9.61694Z" fill="black"/>
<path fill-rule="evenodd" clip-rule="evenodd" d="M11.1743 16.2258H8.69632C7.10232 16.2258 5.80432 17.5228 5.80432 19.1168C5.80432 20.7108 7.10232 22.0088 8.69632 22.0088C10.2903 22.0088 11.5873 20.7108 11.5873 19.1168V16.6388C11.5873 16.4108 11.4023 16.2258 11.1743 16.2258Z" fill="black"/>
<path fill-rule="evenodd" clip-rule="evenodd" d="M15.3048 9.61694C13.7178 9.61694 12.4218 10.9089 12.4148 12.5209C12.4218 14.1079 13.7178 15.3999 15.3048 15.3999C16.8988 15.3999 18.1958 14.1019 18.1958 12.5079C18.1958 10.9139 16.8988 9.61694 15.3048 9.61694Z" fill="black"/>
</svg>