<svg width="24" height="24" viewBox="0 0 24 24" fill="none" xmlns="http://www.w3.org/2000/svg">
<path fill-rule="evenodd" clip-rule="evenodd" d="M12 3.75C7.44329 3.75 3.75 7.44329 3.75 12C3.75 16.5567 7.44329 20.25 12 20.25C16.5567 20.25 20.25 16.5567 20.25 12C20.25 7.44329 16.5567 3.75 12 3.75ZM2.25 12C2.25 6.61487 6.61487 2.25 12 2.25C17.3851 2.25 21.75 6.61487 21.75 12C21.75 17.3851 17.3851 21.75 12 21.75C6.61487 21.75 2.25 17.3851 2.25 12Z" fill="black"/>
<path fill-rule="evenodd" clip-rule="evenodd" d="M10.2768 7.58203C9.74019 7.58203 9.30469 8.01712 9.30469 8.55419C9.30469 9.09127 9.74019 9.52636 10.2768 9.52636H13.7212C14.2586 9.52636 14.6934 9.09155 14.6934 8.55419C14.6934 8.01754 14.2583 7.58203 13.7212 7.58203H10.2768ZM7.80469 8.55419C7.80469 7.18814 8.91232 6.08203 10.2768 6.08203H13.7212C15.0873 6.08203 16.1934 7.18966 16.1934 8.55419C16.1934 9.91997 15.087 11.0264 13.7212 11.0264H10.2768C8.91232 11.0264 7.80469 9.92025 7.80469 8.55419Z" fill="black"/>
<path fill-rule="evenodd" clip-rule="evenodd" d="M10.2768 11.0234C9.74075 11.0234 9.30469 11.4589 9.30469 11.9966C9.30469 12.5331 9.73967 12.9678 10.2768 12.9678C10.6911 12.9678 11.0268 13.3036 11.0268 13.7178C11.0268 14.1321 10.6911 14.4678 10.2768 14.4678C8.91284 14.4678 7.80469 13.3632 7.80469 11.9966C7.80469 10.6311 8.91176 9.52344 10.2768 9.52344C10.6911 9.52344 11.0268 9.85922 11.0268 10.2734C11.0268 10.6877 10.6911 11.0234 10.2768 11.0234Z" fill="black"/>
<path fill-rule="evenodd" clip-rule="evenodd" d="M11.998 6.08203C12.4123 6.08203 12.748 6.41782 12.748 6.83203V13.7208C12.748 14.135 12.4123 14.4708 11.998 14.4708C11.5838 14.4708 11.248 14.135 11.248 13.7208V6.83203C11.248 6.41782 11.5838 6.08203 11.998 6.08203Z" fill="black"/>
<path fill-rule="evenodd" clip-rule="evenodd" d="M10.2768 14.4688C9.74019 14.4688 9.30469 14.9038 9.30469 15.4409C9.30469 15.978 9.74019 16.4131 10.2768 16.4131C10.8142 16.4131 11.249 15.9783 11.249 15.4409V14.4688H10.2768ZM7.80469 15.4409C7.80469 14.0749 8.91232 12.9688 10.2768 12.9688H11.999C12.4132 12.9688 12.749 13.3045 12.749 13.7188V15.4409C12.749 16.8067 11.6426 17.9131 10.2768 17.9131C8.91232 17.9131 7.80469 16.807 7.80469 15.4409Z" fill="black"/>
<path fill-rule="evenodd" clip-rule="evenodd" d="M13.7222 11.0234C13.1861 11.0234 12.75 11.459 12.75 11.9966C12.75 12.5337 13.1855 12.9688 13.7222 12.9688C14.2595 12.9688 14.6943 12.5339 14.6943 11.9966C14.6943 11.4594 14.2587 11.0234 13.7222 11.0234ZM11.25 11.9966C11.25 10.6311 12.3571 9.52344 13.7222 9.52344C15.0888 9.52344 16.1943 10.6326 16.1943 11.9966C16.1943 13.3624 15.0879 14.4688 13.7222 14.4688C12.3576 14.4688 11.25 13.3626 11.25 11.9966Z" fill="black"/>
</svg>