<svg width="24" height="24" viewBox="0 0 24 24" fill="none" xmlns="http://www.w3.org/2000/svg">
<path fill-rule="evenodd" clip-rule="evenodd" d="M3.7402 3.89737C4.72468 2.84117 6.12669 2.25 7.78216 2.25H16.2169C17.8762 2.25 19.2788 2.84084 20.2629 3.89765C21.2413 4.94841 21.75 6.39889 21.75 8.02638V15.9736C21.75 17.6011 21.2413 19.0516 20.2627 20.1024C19.2785 21.1592 17.8756 21.75 16.2159 21.75H7.78216C6.1228 21.75 4.72038 21.1591 3.73657 20.1023C2.75842 19.0515 2.25 17.601 2.25 15.9736V8.02638C2.25 6.39806 2.76117 4.94771 3.7402 3.89737ZM4.83745 4.92012C4.16024 5.64666 3.75 6.70951 3.75 8.02638V15.9736C3.75 17.2914 4.15861 18.3541 4.83451 19.0802C5.50475 19.8003 6.49341 20.25 7.78216 20.25H16.2159C17.5052 20.25 18.4944 19.8002 19.165 19.0801C19.8412 18.354 20.25 17.2913 20.25 15.9736V8.02638C20.25 6.70868 19.8412 5.64597 19.1651 4.91984C18.4946 4.19975 17.5056 3.75 16.2169 3.75H7.78216C6.49828 3.75 5.50921 4.19943 4.83745 4.92012Z" fill="black"/>
<path fill-rule="evenodd" clip-rule="evenodd" d="M10.2316 7.44531C9.669 7.44542 9.21289 7.90159 9.21289 8.46418C9.21289 9.02683 9.6691 9.48304 10.2318 9.48304L13.7692 9.48399C14.3318 9.48388 14.7881 9.02771 14.7881 8.46513C14.7881 7.90248 14.3319 7.44626 13.7692 7.44626L10.2316 7.44531ZM7.71289 8.46418C7.71289 7.0731 8.84068 5.94531 10.2318 5.94531L13.7692 5.94626C13.7692 5.94626 13.7693 5.94626 13.7692 5.94626C15.1602 5.94637 16.2881 7.07412 16.2881 8.46513C16.2881 9.85621 15.1603 10.984 13.7692 10.984L10.2318 10.983C10.2317 10.983 10.2318 10.983 10.2318 10.983C8.84077 10.9829 7.71289 9.85519 7.71289 8.46418Z" fill="black"/>
<path fill-rule="evenodd" clip-rule="evenodd" d="M10.2318 10.9805C9.66897 10.9805 9.21289 11.4366 9.21289 11.9991C9.21289 12.5616 9.66897 13.0177 10.2318 13.0177C10.646 13.0177 10.9818 13.3535 10.9818 13.7677C10.9818 14.1819 10.646 14.5177 10.2318 14.5177C8.84081 14.5177 7.71289 13.3903 7.71289 11.9991C7.71289 10.6079 8.84082 9.48047 10.2318 9.48047C10.646 9.48047 10.9818 9.81626 10.9818 10.2305C10.9818 10.6447 10.646 10.9805 10.2318 10.9805Z" fill="black"/>
<path fill-rule="evenodd" clip-rule="evenodd" d="M12 5.94531C12.4142 5.94531 12.75 6.2811 12.75 6.69531V13.7703C12.75 14.1845 12.4142 14.5203 12 14.5203C11.5858 14.5203 11.25 14.1845 11.25 13.7703V6.69531C11.25 6.2811 11.5858 5.94531 12 5.94531Z" fill="black"/>
<path fill-rule="evenodd" clip-rule="evenodd" d="M13.7689 10.9805C13.2062 10.9805 12.75 11.4367 12.75 11.9993C12.75 12.562 13.2062 13.0182 13.7689 13.0182C14.3315 13.0182 14.7877 12.562 14.7877 11.9993C14.7877 11.4367 14.3315 10.9805 13.7689 10.9805ZM11.25 11.9993C11.25 10.6083 12.3778 9.48047 13.7689 9.48047C15.1599 9.48047 16.2877 10.6083 16.2877 11.9993C16.2877 13.3904 15.1599 14.5182 13.7689 14.5182C12.3778 14.5182 11.25 13.3904 11.25 11.9993Z" fill="black"/>
<path fill-rule="evenodd" clip-rule="evenodd" d="M10.2318 14.5156C9.6691 14.5156 9.21289 14.9718 9.21289 15.5345C9.21289 16.0971 9.6691 16.5534 10.2318 16.5534C10.7944 16.5534 11.2506 16.0971 11.2506 15.5345V14.5156H10.2318ZM7.71289 15.5345C7.71289 14.1434 8.84068 13.0156 10.2318 13.0156H12.0006C12.4148 13.0156 12.7506 13.3514 12.7506 13.7656V15.5345C12.7506 16.9256 11.6228 18.0534 10.2318 18.0534C8.84068 18.0534 7.71289 16.9256 7.71289 15.5345Z" fill="black"/>
</svg>