<svg width="25" height="24" viewBox="0 0 25 24" fill="none" xmlns="http://www.w3.org/2000/svg">
<path d="M9.74968 3C8.0927 3 6.75 4.3427 6.75 5.99968C6.75 7.65665 8.0927 8.99936 9.74968 8.99936L15.7491 9.00033C17.406 9.00033 18.7497 7.65665 18.7497 5.99968C18.7497 4.3427 17.406 3 15.7491 3H9.74968Z" stroke="black" stroke-width="1.5" stroke-linecap="round" stroke-linejoin="round"/>
<path d="M12.75 9.00033L12.751 3V15.0006" stroke="black" stroke-width="1.5" stroke-linecap="round" stroke-linejoin="round"/>
<path d="M15.7497 9C14.0937 9 12.75 10.3427 12.75 11.9997C12.75 13.6566 14.0927 14.9993 15.7497 14.9993C17.4067 14.9993 18.7503 13.6566 18.7503 11.9997C18.7503 10.3427 17.4067 9 15.7497 9Z" stroke="black" stroke-width="1.5" stroke-linecap="round" stroke-linejoin="round"/>
<path d="M9.74968 9C8.0927 9 6.75 10.3437 6.75 12.0006C6.75 13.6576 8.0927 15.0013 9.74968 15.0013" stroke="black" stroke-width="1.5" stroke-linecap="round" stroke-linejoin="round"/>
<path d="M9.74968 15C8.0927 15 6.75 16.3427 6.75 17.9997C6.75 19.6567 8.0927 20.9994 9.74968 20.9994C11.4067 20.9994 12.7503 19.6567 12.7503 17.9997V15H9.74968Z" stroke="black" stroke-width="1.5" stroke-linecap="round" stroke-linejoin="round"/>
</svg>