<svg width="24" height="24" viewBox="0 0 24 24" fill="none" xmlns="http://www.w3.org/2000/svg">
<path d="M8.99968 3C7.3427 3 6 4.3427 6 5.99968C6 7.65665 7.3427 8.99936 8.99968 8.99936L14.9991 9.00033C16.656 9.00033 17.9997 7.65665 17.9997 5.99968C17.9997 4.3427 16.656 3 14.9991 3H8.99968Z" stroke="black" stroke-width="1.5" stroke-linecap="round" stroke-linejoin="round"/>
<path d="M12 9.00033L12.001 3V8.99936V15.0006" stroke="black" stroke-width="1.5" stroke-linecap="round" stroke-linejoin="round"/>
<path d="M14.9997 9C13.3437 9 12 10.3427 12 11.9997C12 13.6566 13.3427 14.9993 14.9997 14.9993C16.6567 14.9993 18.0003 13.6566 18.0003 11.9997C18.0003 10.3427 16.6567 9 14.9997 9Z" stroke="black" stroke-width="1.5" stroke-linecap="round" stroke-linejoin="round"/>
<path d="M8.99968 9C7.3427 9 6 10.3437 6 12.0006C6 13.6576 7.3427 15.0013 8.99968 15.0013" stroke="black" stroke-width="1.5" stroke-linecap="round" stroke-linejoin="round"/>
<path d="M8.99968 15C7.3427 15 6 16.3427 6 17.9997C6 19.6567 7.3427 20.9994 8.99968 20.9994C10.6567 20.9994 12.0003 19.6567 12.0003 17.9997V15H8.99968Z" stroke="black" stroke-width="1.5" stroke-linecap="round" stroke-linejoin="round"/>
</svg>