<svg width="24" height="24" viewBox="0 0 24 24" fill="none" xmlns="http://www.w3.org/2000/svg">
<path fill-rule="evenodd" clip-rule="evenodd" d="M8.99968 3.75C7.75692 3.75 6.75 4.75692 6.75 5.99968C6.75 7.24244 7.75692 8.24936 8.99968 8.24936L14.9991 8.25033C14.999 8.25033 14.9991 8.25033 14.9991 8.25033C16.2418 8.25026 17.2497 7.2424 17.2497 5.99968C17.2497 4.75723 16.2421 3.75 14.9991 3.75H8.99968ZM5.25 5.99968C5.25 3.92849 6.92849 2.25 8.99968 2.25H14.9991C17.0699 2.25 18.7497 3.92817 18.7497 5.99968C18.7497 8.07087 17.0702 9.75033 14.9991 9.75033L8.99968 9.74936C8.99964 9.74936 8.99972 9.74936 8.99968 9.74936C6.92855 9.74929 5.25 8.07083 5.25 5.99968Z" fill="black"/>
<path fill-rule="evenodd" clip-rule="evenodd" d="M12.001 2.25C12.4152 2.25003 12.751 2.58581 12.751 3V15.0006C12.751 15.4149 12.4152 15.7506 12.001 15.7506C11.5867 15.7506 11.251 15.4149 11.251 15.0006V9.03856C11.2503 9.02586 11.25 9.01307 11.25 9.00021L11.251 3C11.251 2.58581 11.5868 2.24997 12.001 2.25Z" fill="black"/>
<path fill-rule="evenodd" clip-rule="evenodd" d="M14.9997 9.75C13.7577 9.75 12.75 10.7571 12.75 11.9997C12.75 13.2424 13.7569 14.2493 14.9997 14.2493C16.2428 14.2493 17.2503 13.2421 17.2503 11.9997C17.2503 10.7572 16.2428 9.75 14.9997 9.75ZM11.25 11.9997C11.25 9.92832 12.9296 8.25 14.9997 8.25C17.0705 8.25 18.7503 9.92816 18.7503 11.9997C18.7503 14.0712 17.0705 15.7493 14.9997 15.7493C12.9285 15.7493 11.25 14.0709 11.25 11.9997Z" fill="black"/>
<path fill-rule="evenodd" clip-rule="evenodd" d="M8.99968 9.75C7.75723 9.75 6.75 10.7576 6.75 12.0006C6.75 13.2437 7.75723 14.2513 8.99968 14.2513C9.41389 14.2513 9.74968 14.5871 9.74968 15.0013C9.74968 15.4155 9.41389 15.7513 8.99968 15.7513C6.92818 15.7513 5.25 14.0715 5.25 12.0006C5.25 9.92977 6.92818 8.25 8.99968 8.25C9.41389 8.25 9.74968 8.58579 9.74968 9C9.74968 9.41421 9.41389 9.75 8.99968 9.75Z" fill="black"/>
<path fill-rule="evenodd" clip-rule="evenodd" d="M8.99968 15.75C7.75692 15.75 6.75 16.7569 6.75 17.9997C6.75 19.2424 7.75692 20.2494 8.99968 20.2494C10.2428 20.2494 11.2503 19.2421 11.2503 17.9997V15.75H8.99968ZM5.25 17.9997C5.25 15.9285 6.92849 14.25 8.99968 14.25H12.0003C12.4145 14.25 12.7503 14.5858 12.7503 15V17.9997C12.7503 20.0712 11.0705 21.7494 8.99968 21.7494C6.92849 21.7494 5.25 20.0709 5.25 17.9997Z" fill="black"/>
</svg>