<svg width="24" height="24" viewBox="0 0 24 24" fill="none" xmlns="http://www.w3.org/2000/svg">
<path fill-rule="evenodd" clip-rule="evenodd" d="M12 3.75C7.44329 3.75 3.75 7.44329 3.75 12C3.75 16.5567 7.44329 20.25 12 20.25C16.5567 20.25 20.25 16.5567 20.25 12C20.25 7.44329 16.5567 3.75 12 3.75ZM2.25 12C2.25 6.61487 6.61487 2.25 12 2.25C17.3851 2.25 21.75 6.61487 21.75 12C21.75 17.3851 17.3851 21.75 12 21.75C6.61487 21.75 2.25 17.3851 2.25 12Z" fill="black"/>
<path fill-rule="evenodd" clip-rule="evenodd" d="M8.55859 11.0898C8.55859 10.6756 8.89438 10.3398 9.30859 10.3398H15.2236C15.5148 10.3398 15.7796 10.5083 15.903 10.772C16.0263 11.0357 15.986 11.347 15.7994 11.5705L13.2464 14.6284C13.4229 14.654 13.5983 14.6904 13.7715 14.7376L13.7715 14.7376C14.2995 14.8815 14.8575 14.8734 15.3811 14.7141C15.7774 14.5936 16.1964 14.8171 16.3169 15.2134C16.4374 15.6097 16.2139 16.0287 15.8176 16.1492C15.0237 16.3907 14.1778 16.403 13.3772 16.1849L13.5743 15.4613L13.3772 16.1849C12.8491 16.041 12.2912 16.0492 11.7675 16.2084C11.4503 16.3049 11.1073 16.1815 10.9241 15.9051C10.741 15.6287 10.7611 15.2647 10.9736 15.0102L13.6205 11.8398H9.30859C8.89438 11.8398 8.55859 11.5041 8.55859 11.0898Z" fill="black"/>
<path fill-rule="evenodd" clip-rule="evenodd" d="M9.48087 7.72978C9.57475 7.41059 9.86768 7.19141 10.2004 7.19141H13.7455C14.1597 7.19141 14.4955 7.52719 14.4955 7.94141C14.4955 8.35562 14.1597 8.69141 13.7455 8.69141H10.7616L8.66992 15.803C8.55304 16.2004 8.13615 16.4278 7.73877 16.3109C7.34138 16.1941 7.11399 15.7772 7.23087 15.3798L9.48087 7.72978Z" fill="black"/>
</svg>