<svg width="24" height="24" viewBox="0 0 24 24" fill="none" xmlns="http://www.w3.org/2000/svg">
<path fill-rule="evenodd" clip-rule="evenodd" d="M15.8481 8.30488C15.6441 8.66588 15.1851 8.79288 14.8261 8.58688C14.4231 8.35788 13.9951 8.43988 13.7361 8.79588C13.4591 9.17688 13.3221 9.76288 13.1891 10.3299C13.1871 10.3399 13.1851 10.3489 13.1821 10.3589L14.1301 10.5379C14.5371 10.6139 14.8051 11.0069 14.7281 11.4129C14.6611 11.7739 14.3461 12.0249 13.9921 12.0249C13.9461 12.0249 13.8991 12.0209 13.8521 12.0119L12.8191 11.8169L12.6551 12.4699L14.1301 12.7479C14.5371 12.8239 14.8051 13.2169 14.7281 13.6229C14.6611 13.9839 14.3461 14.2349 13.9921 14.2349C13.9461 14.2349 13.8991 14.2309 13.8521 14.2219L12.2911 13.9269C12.2841 13.9579 12.2761 13.9889 12.2681 14.0199C12.1091 14.6999 11.9291 15.4709 11.4731 16.0959C11.0191 16.7229 10.3451 17.0559 9.63712 17.0559C9.23512 17.0559 8.82212 16.9489 8.43112 16.7269C8.07112 16.5229 7.94412 16.0659 8.14812 15.7049C8.35212 15.3449 8.81212 15.2189 9.17012 15.4229C9.57412 15.6499 10.0031 15.5709 10.2601 15.2149C10.5371 14.8329 10.6751 14.2459 10.8081 13.6779C10.8101 13.6679 10.8131 13.6589 10.8151 13.6489L9.86912 13.4719C9.46212 13.3949 9.19412 13.0029 9.27112 12.5959C9.34712 12.1879 9.74112 11.9179 10.1461 11.9979L11.1781 12.1919L11.3421 11.5389L9.86912 11.2619C9.46212 11.1849 9.19412 10.7929 9.27112 10.3859C9.34712 9.97788 9.74112 9.70788 10.1461 9.78788L11.7061 10.0819C11.7131 10.0509 11.7211 10.0199 11.7281 9.98888C11.8871 9.30888 12.0671 8.53888 12.5241 7.91288C13.2361 6.92988 14.4881 6.67088 15.5661 7.28288C15.9261 7.48688 16.0531 7.94488 15.8481 8.30488ZM16.2171 2.50488H7.78212C4.62212 2.50488 2.50012 4.72688 2.50012 8.03488V15.9749C2.50012 19.2829 4.62212 21.5049 7.78212 21.5049H16.2161C19.3761 21.5049 21.5001 19.2829 21.5001 15.9749V8.03488C21.5001 4.72688 19.3771 2.50488 16.2171 2.50488Z" fill="black"/>
</svg>