<svg width="25" height="24" viewBox="0 0 25 24" fill="none" xmlns="http://www.w3.org/2000/svg">
<path d="M9.30078 16.0678C10.0237 16.4813 10.8741 16.3266 11.3674 15.6484C11.8334 15.0082 11.9599 14.0965 12.1613 13.3425L12.8356 10.6561C13.037 9.90203 13.1635 8.99035 13.6295 8.35013C14.1238 7.67197 14.9732 7.51727 15.6961 7.93176" stroke="black" stroke-width="1.5" stroke-linecap="round" stroke-linejoin="round"/>
<path d="M10.5078 12.7305L14.4912 13.4816" stroke="black" stroke-width="1.5" stroke-linecap="round" stroke-linejoin="round"/>
<path d="M10.5078 10.5156L14.4912 11.2668" stroke="black" stroke-width="1.5" stroke-linecap="round" stroke-linejoin="round"/>
<path d="M12.499 21H8.28216C5.33405 21 3.5 18.9188 3.5 15.9736V8.02638C3.5 5.08119 5.34281 3 8.28216 3H16.7169C19.665 3 21.5 5.08119 21.5 8.02638V15.9736C21.5 18.9188 19.665 21 16.7159 21H16.3409" stroke="black" stroke-width="1.5" stroke-linecap="round" stroke-linejoin="round"/>
</svg>