<svg width="24" height="24" viewBox="0 0 24 24" fill="none" xmlns="http://www.w3.org/2000/svg">
<path fill-rule="evenodd" clip-rule="evenodd" d="M3.7402 3.89737C4.72468 2.84117 6.12669 2.25 7.78216 2.25H16.2169C17.8762 2.25 19.2788 2.84084 20.2629 3.89765C21.2413 4.94841 21.75 6.39889 21.75 8.02638V15.9736C21.75 17.6011 21.2413 19.0516 20.2627 20.1024C19.2785 21.1592 17.8756 21.75 16.2159 21.75H7.78216C6.1228 21.75 4.72038 21.1591 3.73657 20.1023C2.75842 19.0515 2.25 17.601 2.25 15.9736V8.02638C2.25 6.39806 2.76117 4.94771 3.7402 3.89737ZM4.83745 4.92012C4.16024 5.64666 3.75 6.70951 3.75 8.02638V15.9736C3.75 17.2914 4.15861 18.3541 4.83451 19.0802C5.50475 19.8003 6.49341 20.25 7.78216 20.25H16.2159C17.5052 20.25 18.4944 19.8002 19.165 19.0801C19.8412 18.354 20.25 17.2913 20.25 15.9736V8.02638C20.25 6.70868 19.8412 5.64597 19.1651 4.91984C18.4946 4.19975 17.5056 3.75 16.2169 3.75H7.78216C6.49828 3.75 5.50921 4.19943 4.83745 4.92012Z" fill="black"/>
<path fill-rule="evenodd" clip-rule="evenodd" d="M8.52539 11.0195C8.52539 10.6053 8.86118 10.2695 9.27539 10.2695H15.8093C16.1004 10.2695 16.3652 10.438 16.4886 10.7017C16.612 10.9654 16.5716 11.2767 16.385 11.5002L13.4734 14.9877C13.7126 15.0152 13.9504 15.0609 14.1846 15.1247L14.1846 15.1247C14.7821 15.2875 15.4135 15.2782 16.006 15.098C16.4023 14.9775 16.8213 15.201 16.9418 15.5973C17.0623 15.9936 16.8388 16.4126 16.4425 16.5331C15.5797 16.7955 14.6603 16.809 13.7902 16.5719L13.9874 15.8483L13.7902 16.5719C13.1927 16.4091 12.5613 16.4183 11.9688 16.5985C11.6515 16.695 11.3085 16.5717 11.1253 16.2952C10.9422 16.0188 10.9623 15.6549 11.1748 15.4003L14.2061 11.7695H9.27539C8.86118 11.7695 8.52539 11.4337 8.52539 11.0195Z" fill="black"/>
<path fill-rule="evenodd" clip-rule="evenodd" d="M9.54145 7.32744C9.63533 7.00825 9.92827 6.78906 10.261 6.78906H14.177C14.5912 6.78906 14.927 7.12485 14.927 7.53906C14.927 7.95328 14.5912 8.28906 14.177 8.28906H10.8222L8.49511 16.201C8.37823 16.5984 7.96134 16.8258 7.56396 16.7089C7.16658 16.592 6.93919 16.1751 7.05606 15.7778L9.54145 7.32744Z" fill="black"/>
</svg>