<svg width="25" height="24" viewBox="0 0 25 24" fill="none" xmlns="http://www.w3.org/2000/svg">
<path fill-rule="evenodd" clip-rule="evenodd" d="M4.20825 3.82747C5.15107 2.81495 6.49411 2.25 8.07999 2.25H16.0917C17.6776 2.25 19.0202 2.81498 19.9626 3.82764C20.8993 4.8342 21.3846 6.22201 21.3846 7.77583V16.2251C21.3846 17.78 20.8965 19.1674 19.9589 20.1733C19.0158 21.185 17.6736 21.75 16.0917 21.75H8.07902C6.49366 21.75 5.15087 21.1853 4.20816 20.1731C3.27106 19.1668 2.78516 17.7792 2.78516 16.2251V7.77583C2.78516 6.22179 3.27105 4.83396 4.20825 3.82747ZM5.30602 4.84967C4.67109 5.53154 4.28516 6.53162 4.28516 7.77583V16.2251C4.28516 17.4693 4.67109 18.4692 5.30587 19.1508C5.93504 19.8264 6.86418 20.25 8.07902 20.25H16.0917C17.3021 20.25 18.2314 19.8267 18.8617 19.1505C19.4974 18.4685 19.8846 17.4686 19.8846 16.2251V7.77583C19.8846 6.5314 19.499 5.5313 18.8645 4.8495C18.2357 4.17381 17.3069 3.75 16.0917 3.75H8.07999C6.86471 3.75 5.93533 4.17384 5.30602 4.84967Z" fill="black"/>
<path fill-rule="evenodd" clip-rule="evenodd" d="M15.2999 11.6062C15.5929 11.8989 15.5931 12.3738 15.3003 12.6668L11.6843 16.2857C11.5436 16.4266 11.3527 16.5057 11.1536 16.5056C10.9546 16.5056 10.7637 16.4264 10.623 16.2855L8.86767 14.5272C8.57502 14.2341 8.57541 13.7592 8.86855 13.4666C9.16169 13.1739 9.63656 13.1743 9.92921 13.4675L11.154 14.6943L14.2392 11.6066C14.532 11.3136 15.0069 11.3134 15.2999 11.6062Z" fill="black"/>
<path fill-rule="evenodd" clip-rule="evenodd" d="M9.10771 2.25C9.52192 2.25 9.85771 2.58579 9.85771 3V6.72591H14.3108V3C14.3108 2.58579 14.6466 2.25 15.0608 2.25C15.475 2.25 15.8108 2.58579 15.8108 3V6.72591H20.6268C21.041 6.72591 21.3768 7.0617 21.3768 7.47591C21.3768 7.89013 21.041 8.22591 20.6268 8.22591H3.54102C3.1268 8.22591 2.79102 7.89013 2.79102 7.47591C2.79102 7.0617 3.1268 6.72591 3.54102 6.72591H8.35771V3C8.35771 2.58579 8.69349 2.25 9.10771 2.25Z" fill="black"/>
</svg>