<svg width="24" height="24" viewBox="0 0 24 24" fill="none" xmlns="http://www.w3.org/2000/svg">
<path opacity="0.4" fill-rule="evenodd" clip-rule="evenodd" d="M21.3791 7.48V16.52C21.3791 16.84 21.3591 17.14 21.2991 17.43C21.0291 19.23 19.9091 20.56 18.2491 21.16C17.7891 21.32 17.2891 21.43 16.7491 21.48C16.5591 21.49 16.3691 21.5 16.1691 21.5H7.82914C7.62914 21.5 7.43914 21.49 7.24914 21.48C6.70914 21.43 6.20914 21.32 5.74914 21.16C4.08914 20.56 2.96914 19.23 2.69914 17.43C2.63914 17.14 2.61914 16.84 2.61914 16.52V7.48C2.61914 7.07 2.65914 6.69 2.73914 6.32C3.06914 4.65 4.15914 3.41 5.74914 2.84C6.20914 2.68 6.70914 2.57 7.24914 2.52C7.43914 2.51 7.62914 2.5 7.82914 2.5H16.1691C16.3691 2.5 16.5591 2.51 16.7491 2.52C17.2891 2.57 17.7891 2.68 18.2491 2.84C19.8391 3.41 20.9291 4.65 21.2591 6.32C21.3391 6.69 21.3791 7.07 21.3791 7.48Z" fill="black"/>
<path fill-rule="evenodd" clip-rule="evenodd" d="M18.2491 7.82344V11.1234H21.3791V12.6234H18.2491V15.9334H21.3791V16.5234C21.3791 16.8434 21.3591 17.1434 21.2991 17.4334H18.2491V21.1634C17.7891 21.3234 17.2891 21.4334 16.7491 21.4834V12.6234H7.24914V21.4834C6.70914 21.4334 6.20914 21.3234 5.74914 21.1634V17.4334H2.69914C2.63914 17.1434 2.61914 16.8434 2.61914 16.5234V15.9334H5.74914V12.6234H2.61914V11.1234H5.74914V7.82344H2.61914V7.48344C2.61914 7.07344 2.65914 6.69344 2.73914 6.32344H5.74914V2.84344C6.20914 2.68344 6.70914 2.57344 7.24914 2.52344V11.1234H16.7491V2.52344C17.2891 2.57344 17.7891 2.68344 18.2491 2.84344V6.32344H21.2591C21.3391 6.69344 21.3791 7.07344 21.3791 7.48344V7.82344H18.2491Z" fill="black"/>
</svg>