<svg width="24" height="24" viewBox="0 0 24 24" fill="none" xmlns="http://www.w3.org/2000/svg">
<path opacity="0.4" fill-rule="evenodd" clip-rule="evenodd" d="M16.52 21.3772H7.48C7.16 21.3772 6.86 21.3572 6.57 21.2972C4.77 21.0272 3.44 19.9072 2.84 18.2472C2.68 17.7872 2.57 17.2872 2.52 16.7472C2.51 16.5572 2.5 16.3672 2.5 16.1672L2.5 7.82719C2.5 7.62719 2.51 7.43719 2.52 7.24719C2.57 6.70719 2.68 6.20719 2.84 5.74719C3.44 4.08719 4.77 2.96719 6.57 2.69719C6.86 2.63719 7.16 2.61719 7.48 2.61719L16.52 2.61719C16.93 2.61719 17.31 2.65719 17.68 2.73719C19.35 3.06719 20.59 4.15719 21.16 5.74719C21.32 6.20719 21.43 6.70719 21.48 7.24719C21.49 7.43719 21.5 7.62719 21.5 7.82719V16.1672C21.5 16.3672 21.49 16.5572 21.48 16.7472C21.43 17.2872 21.32 17.7872 21.16 18.2472C20.59 19.8372 19.35 20.9272 17.68 21.2572C17.31 21.3372 16.93 21.3772 16.52 21.3772Z" fill="black"/>
<path fill-rule="evenodd" clip-rule="evenodd" d="M16.1795 18.2472H12.8795V21.3772H11.3795V18.2472H8.06953V21.3772H7.47953C7.15953 21.3772 6.85953 21.3572 6.56953 21.2972V18.2472H2.83953C2.67953 17.7872 2.56953 17.2872 2.51953 16.7472H11.3795V7.24719H2.51953C2.56953 6.70719 2.67953 6.20719 2.83953 5.74719L6.56953 5.74719V2.69719C6.85953 2.63719 7.15953 2.61719 7.47953 2.61719L8.06953 2.61719V5.74719L11.3795 5.74719V2.61719L12.8795 2.61719V5.74719L16.1795 5.74719V2.61719L16.5195 2.61719C16.9295 2.61719 17.3095 2.65719 17.6795 2.73719V5.74719L21.1595 5.74719C21.3195 6.20719 21.4295 6.70719 21.4795 7.24719L12.8795 7.24719V16.7472L21.4795 16.7472C21.4295 17.2872 21.3195 17.7872 21.1595 18.2472L17.6795 18.2472V21.2572C17.3095 21.3372 16.9295 21.3772 16.5195 21.3772H16.1795V18.2472Z" fill="black"/>
</svg>