<svg width="25" height="24" viewBox="0 0 25 24" fill="none" xmlns="http://www.w3.org/2000/svg">
<path fill-rule="evenodd" clip-rule="evenodd" d="M3.90945 3.92641C4.84211 2.92578 6.16936 2.36719 7.73304 2.36719H16.7659C18.3332 2.36719 19.661 2.92546 20.5933 3.92667C21.52 4.92185 22 6.2937 22 7.82904V16.1674C22 17.7028 21.52 19.0746 20.5932 20.0698C19.6607 21.0711 18.3326 21.6293 16.7649 21.6293H7.73304C6.16579 21.6293 4.83814 21.071 3.90608 20.0697C2.97967 19.0745 2.5 17.7026 2.5 16.1674V7.82904C2.5 6.2929 2.98224 4.92118 3.90945 3.92641ZM5.00672 4.94915C4.38136 5.62008 4 6.60428 4 7.82904V16.1674C4 17.3931 4.37989 18.3772 5.00401 19.0477C5.62249 19.7121 6.53636 20.1293 7.73304 20.1293H16.7649C17.9622 20.1293 18.8766 19.712 19.4955 19.0475C20.1199 18.377 20.5 17.393 20.5 16.1674V7.82904C20.5 6.60348 20.1199 5.6194 19.4956 4.94888C18.8768 4.28439 17.9626 3.86719 16.7659 3.86719H7.73304C6.54089 3.86719 5.62662 4.28407 5.00672 4.94915Z" fill="black"/>
<path fill-rule="evenodd" clip-rule="evenodd" d="M7.81836 16.3438C8.23257 16.3438 8.56836 16.6795 8.56836 17.0938V20.8802C8.56836 21.2945 8.23257 21.6302 7.81836 21.6302C7.40415 21.6302 7.06836 21.2945 7.06836 20.8802V17.0938C7.06836 16.6795 7.40415 16.3438 7.81836 16.3438ZM16.7241 16.3438C17.1383 16.3438 17.4741 16.6795 17.4741 17.0938V20.8802C17.4741 21.2945 17.1383 21.6302 16.7241 21.6302C16.3099 21.6302 15.9741 21.2945 15.9741 20.8802V17.0938C15.9741 16.6795 16.3099 16.3438 16.7241 16.3438Z" fill="black"/>
<path fill-rule="evenodd" clip-rule="evenodd" d="M2.61719 17.0898C2.61719 16.6756 2.95297 16.3398 3.36719 16.3398H21.1343C21.5485 16.3398 21.8843 16.6756 21.8843 17.0898C21.8843 17.5041 21.5485 17.8398 21.1343 17.8398H3.36719C2.95297 17.8398 2.61719 17.5041 2.61719 17.0898Z" fill="black"/>
<path fill-rule="evenodd" clip-rule="evenodd" d="M2.61523 6.91016C2.61523 6.49594 2.95102 6.16016 3.36523 6.16016H21.1324C21.5466 6.16016 21.8824 6.49594 21.8824 6.91016C21.8824 7.32437 21.5466 7.66016 21.1324 7.66016H3.36523C2.95102 7.66016 2.61523 7.32437 2.61523 6.91016Z" fill="black"/>
<path fill-rule="evenodd" clip-rule="evenodd" d="M7.81836 2.39453C8.23257 2.39453 8.56836 2.73032 8.56836 3.14453V6.90672C8.56836 7.32094 8.23257 7.65672 7.81836 7.65672C7.40415 7.65672 7.06836 7.32094 7.06836 6.90672V3.14453C7.06836 2.73032 7.40415 2.39453 7.81836 2.39453ZM16.7241 2.39453C17.1383 2.39453 17.4741 2.73032 17.4741 3.14453V6.90672C17.4741 7.32094 17.1383 7.65672 16.7241 7.65672C16.3099 7.65672 15.9741 7.32094 15.9741 6.90672V3.14453C15.9741 2.73032 16.3099 2.39453 16.7241 2.39453Z" fill="black"/>
<path fill-rule="evenodd" clip-rule="evenodd" d="M12.2715 2.39453C12.6857 2.39453 13.0215 2.73032 13.0215 3.14453V20.8823C13.0215 21.2965 12.6857 21.6323 12.2715 21.6323C11.8573 21.6323 11.5215 21.2965 11.5215 20.8823V3.14453C11.5215 2.73032 11.8573 2.39453 12.2715 2.39453Z" fill="black"/>
</svg>