<svg width="25" height="25" viewBox="0 0 25 25" fill="none" xmlns="http://www.w3.org/2000/svg">
<path fill-rule="evenodd" clip-rule="evenodd" d="M11.7451 8.60751H19.8871V7.10751H11.7451V8.60751Z" fill="black"/>
<path fill-rule="evenodd" clip-rule="evenodd" d="M6.88 10.9087C8.606 10.9087 10.01 9.51271 10.01 7.79771C10.01 6.08171 8.606 4.68671 6.88 4.68671C5.154 4.68671 3.75 6.08171 3.75 7.79771C3.75 9.51271 5.154 10.9087 6.88 10.9087Z" fill="black"/>
<path fill-rule="evenodd" clip-rule="evenodd" d="M4.6131 18.2205H12.7551V16.7205H4.6131V18.2205Z" fill="black"/>
<path fill-rule="evenodd" clip-rule="evenodd" d="M17.6202 14.2983C15.8942 14.2983 14.4902 15.6943 14.4902 17.4093C14.4902 19.1253 15.8942 20.5213 17.6202 20.5213C19.3462 20.5213 20.7502 19.1253 20.7502 17.4093C20.7502 15.6943 19.3462 14.2983 17.6202 14.2983Z" fill="black"/>
</svg>