<svg width="25" height="24" viewBox="0 0 25 24" fill="none" xmlns="http://www.w3.org/2000/svg">
<path d="M14.3267 17.3094C14.3267 19.5574 16.1557 21.3864 18.4037 21.3864C20.6517 21.3864 22.4807 19.5574 22.4807 17.3094C22.4807 15.0614 20.6517 13.2314 18.4037 13.2314C16.1557 13.2314 14.3267 15.0614 14.3267 17.3094Z" fill="black"/>
<path opacity="0.4" d="M9.61919 10.3433H15.4392C15.9172 10.3433 16.3462 10.0963 16.5862 9.68328C16.8272 9.27028 16.8292 8.77428 16.5922 8.35828L13.7012 3.28228C13.4632 2.86428 13.0322 2.61428 12.5512 2.61328H12.5472C12.0672 2.61328 11.6372 2.86128 11.3972 3.27628L8.46819 8.35228C8.22919 8.76728 8.22919 9.26428 8.46919 9.67928C8.71019 10.0953 9.13919 10.3433 9.61919 10.3433Z" fill="black"/>
<path opacity="0.4" d="M5.75047 21.1395H8.87147C10.2085 21.1395 11.1415 20.1685 11.1415 18.7785V15.8385C11.1415 14.4485 10.2085 13.4785 8.87147 13.4785H5.75047C4.41447 13.4785 3.48047 14.4485 3.48047 15.8385V18.7785C3.48047 20.1685 4.41447 21.1395 5.75047 21.1395Z" fill="black"/>
</svg>