<svg width="25" height="24" viewBox="0 0 25 24" fill="none" xmlns="http://www.w3.org/2000/svg">
<path d="M12.2293 5.97992H10.4193C10.0053 5.97992 9.66931 5.64392 9.66931 5.22992C9.66931 4.81592 10.0053 4.47992 10.4193 4.47992H12.2293V2.66992C12.2293 2.25592 12.5653 1.91992 12.9793 1.91992C13.3933 1.91992 13.7293 2.25592 13.7293 2.66992V4.47992H15.5393C15.9533 4.47992 16.2893 4.81592 16.2893 5.22992C16.2893 5.64392 15.9533 5.97992 15.5393 5.97992H13.7293V7.78992C13.7293 8.20392 13.3933 8.53992 12.9793 8.53992C12.5653 8.53992 12.2293 8.20392 12.2293 7.78992V5.97992Z" fill="black"/>
<path d="M18.203 3.93848H19.0765C20.8325 3.93848 22.2615 5.36748 22.2615 7.12348V8.48648C22.2615 9.69448 21.7465 10.8515 20.8485 11.6595L15.9425 16.5145C15.7065 16.7275 15.5815 17.0075 15.5815 17.3015V19.2915C15.5815 20.1315 15.0765 20.8755 14.2965 21.1855L12.4145 21.9345C12.1705 22.0315 11.9145 22.0795 11.6595 22.0795C11.2575 22.0795 10.8585 21.9605 10.5155 21.7285C9.95546 21.3485 9.62146 20.7175 9.62146 20.0405V16.8155C9.62146 16.5395 9.51346 16.2775 9.31646 16.0795L4.97246 12.2135C4.14346 11.3875 3.69946 10.3145 3.69946 9.17248V7.12348C3.69946 5.36748 5.12846 3.93848 6.88446 3.93848H7.75475C7.98877 3.93848 8.13738 4.19883 8.05933 4.41945C7.96954 4.67321 7.91946 4.94536 7.91946 5.23048C7.91946 6.5371 8.92988 7.56954 10.18 7.71334C10.3446 7.73227 10.4777 7.86536 10.4966 8.02995C10.6404 9.28007 11.6729 10.2905 12.9795 10.2905C14.2861 10.2905 15.3185 9.28007 15.4623 8.02996C15.4813 7.86536 15.6143 7.73227 15.7789 7.71334C17.029 7.56954 18.0395 6.5371 18.0395 5.23048C18.0395 4.94501 17.9889 4.67254 17.8988 4.4185C17.8207 4.19818 17.9692 3.93848 18.203 3.93848Z" fill="black"/>
</svg>