<svg width="25" height="25" viewBox="0 0 25 25" fill="none" xmlns="http://www.w3.org/2000/svg">
<g opacity="0.4">
<path fill-rule="evenodd" clip-rule="evenodd" d="M10.7345 16.8484H4.26147C3.70947 16.8484 3.26147 17.2954 3.26147 17.8484C3.26147 18.4014 3.70947 18.8484 4.26147 18.8484H10.7345C11.2865 18.8484 11.7345 18.4014 11.7345 17.8484C11.7345 17.2954 11.2865 16.8484 10.7345 16.8484Z" fill="black"/>
<path fill-rule="evenodd" clip-rule="evenodd" d="M20.2383 6.35919H13.7673C13.2153 6.35919 12.7673 6.80619 12.7673 7.35919C12.7673 7.91219 13.2153 8.35919 13.7673 8.35919H20.2383C20.7903 8.35919 21.2383 7.91219 21.2383 7.35919C21.2383 6.80619 20.7903 6.35919 20.2383 6.35919Z" fill="black"/>
</g>
<path fill-rule="evenodd" clip-rule="evenodd" d="M17.5172 14.6274C15.1992 14.6274 14.2952 15.5304 14.2952 17.8494C14.2952 20.1684 15.1992 21.0714 17.5172 21.0714C19.8362 21.0714 20.7392 20.1684 20.7392 17.8494C20.7392 15.5304 19.8362 14.6274 17.5172 14.6274Z" fill="black"/>
<path fill-rule="evenodd" clip-rule="evenodd" d="M6.98347 10.5805C9.30247 10.5805 10.2055 9.67754 10.2055 7.35754C10.2055 5.03954 9.30247 4.13654 6.98347 4.13654C4.66447 4.13654 3.76147 5.03954 3.76147 7.35754C3.76147 9.67754 4.66447 10.5805 6.98347 10.5805Z" fill="black"/>
</svg>