<svg width="25" height="24" viewBox="0 0 25 24" fill="none" xmlns="http://www.w3.org/2000/svg">
<path fill-rule="evenodd" clip-rule="evenodd" d="M9.51936 2.46967C9.81225 2.17678 10.2871 2.17678 10.58 2.46967L12.2496 4.13925L13.9192 2.46967C14.2121 2.17678 14.687 2.17678 14.9798 2.46967C15.2727 2.76256 15.2727 3.23744 14.9798 3.53033L13.3103 5.19991L14.9798 6.8695C15.2727 7.16239 15.2727 7.63727 14.9798 7.93016C14.687 8.22305 14.2121 8.22305 13.9192 7.93016L12.2496 6.26057L10.58 7.93016C10.2871 8.22305 9.81225 8.22305 9.51936 7.93016C9.22646 7.63727 9.22646 7.16239 9.51936 6.8695L11.1889 5.19991L9.51936 3.53033C9.22646 3.23744 9.22646 2.76256 9.51936 2.46967ZM6.15321 4.60801C5.0846 4.60801 4.21875 5.47386 4.21875 6.54247V8.59255C4.21875 9.38719 4.53142 10.1494 5.08892 10.7146L9.4385 14.5864C9.44966 14.5963 9.46051 14.6065 9.47106 14.6171C9.89853 15.046 10.1403 15.6273 10.1403 16.2353V19.4598C10.1403 20.0174 10.7027 20.3989 11.2212 20.1924L11.2214 20.1923L13.1031 19.4431L13.1038 19.4428C13.4034 19.3239 13.6006 19.0332 13.6006 18.7106V16.7208C13.6006 16.0793 13.8699 15.4668 14.3436 15.0339L19.2563 10.1746C19.2646 10.1664 19.2731 10.1584 19.2818 10.1505C19.9176 9.5778 20.2801 8.76267 20.2801 7.90659V6.54247C20.2801 5.47386 19.4143 4.60801 18.3457 4.60801C17.9314 4.60801 17.5957 4.27222 17.5957 3.85801C17.5957 3.4438 17.9314 3.10801 18.3457 3.10801C20.2427 3.10801 21.7801 4.64543 21.7801 6.54247V7.90659C21.7801 9.18107 21.2429 10.3959 20.2993 11.2528L15.3869 16.1118C15.3783 16.1203 15.3695 16.1286 15.3605 16.1366C15.1954 16.2849 15.1006 16.4972 15.1006 16.7208V18.7106C15.1006 19.647 14.5291 20.4908 13.6573 20.837L11.7764 21.5858C10.273 22.1849 8.64033 21.0778 8.64033 19.4598V16.2353C8.64033 16.0323 8.56202 15.837 8.42168 15.6894L4.07442 11.8197C4.06358 11.81 4.05302 11.8001 4.04276 11.7898C3.19461 10.9417 2.71875 9.79149 2.71875 8.59255V6.54247C2.71875 4.64543 4.25617 3.10801 6.15321 3.10801C6.56742 3.10801 6.90321 3.4438 6.90321 3.85801C6.90321 4.27222 6.56742 4.60801 6.15321 4.60801Z" fill="black"/>
</svg>