<svg width="25" height="24" viewBox="0 0 25 24" fill="none" xmlns="http://www.w3.org/2000/svg">
<path fill-rule="evenodd" clip-rule="evenodd" d="M3.90891 13.9904C4.37168 13.4941 5.02055 13.2305 5.75036 13.2305H8.87077C9.6016 13.2305 10.2508 13.4938 10.7136 13.9908C11.1708 14.4817 11.3907 15.1404 11.3907 15.8399V18.7803C11.3907 19.4801 11.1709 20.139 10.7137 20.6301C10.2509 21.1273 9.60161 21.3907 8.87077 21.3907H5.75036C5.01952 21.3907 4.37023 21.1273 3.90742 20.6301C3.45024 20.139 3.23047 19.4801 3.23047 18.7803V15.8399C3.23047 15.1395 3.45157 14.481 3.90891 13.9904ZM5.00606 15.0133C4.8504 15.1803 4.73047 15.4514 4.73047 15.8399V18.7803C4.73047 19.1702 4.85027 19.4415 5.00536 19.6081C5.15481 19.7687 5.39046 19.8907 5.75036 19.8907H8.87077C9.23067 19.8907 9.46632 19.7687 9.61577 19.6081C9.77086 19.4415 9.89066 19.1702 9.89066 18.7803V15.8399C9.89066 15.4506 9.77096 15.1795 9.61586 15.013C9.46639 14.8525 9.23068 14.7305 8.87077 14.7305H5.75036C5.39235 14.7305 5.15627 14.8522 5.00606 15.0133Z" fill="black"/>
<path fill-rule="evenodd" clip-rule="evenodd" d="M18.4029 14.4824C16.8421 14.4824 15.5762 15.7481 15.5762 17.3101C15.5762 18.8711 16.8419 20.1369 18.4029 20.1369C19.9639 20.1369 21.2297 18.8711 21.2297 17.3101C21.2297 15.7481 19.9638 14.4824 18.4029 14.4824ZM14.0762 17.3101C14.0762 14.9199 16.0134 12.9824 18.4029 12.9824C20.7925 12.9824 22.7297 14.9199 22.7297 17.3101C22.7297 19.6996 20.7923 21.6369 18.4029 21.6369C16.0135 21.6369 14.0762 19.6996 14.0762 17.3101Z" fill="black"/>
<path fill-rule="evenodd" clip-rule="evenodd" d="M11.1796 3.15188C11.7893 2.09744 13.313 2.10092 13.9173 3.15933L16.8084 8.23513C16.8085 8.23514 16.8084 8.23511 16.8084 8.23513C17.4071 9.28611 16.6493 10.594 15.4377 10.594H9.6182C8.40319 10.594 7.64512 9.27903 8.2514 8.22778L11.1796 3.15188ZM12.4781 3.90271C12.4781 3.90277 12.4782 3.90266 12.4781 3.90271L9.55079 8.97716C9.55078 8.97719 9.55081 8.97714 9.55079 8.97716C9.54048 8.99508 9.53902 9.00723 9.53918 9.0159C9.53937 9.02688 9.54263 9.04088 9.55087 9.05514C9.5591 9.0694 9.56955 9.07916 9.57887 9.08477C9.58623 9.08919 9.59737 9.09402 9.6182 9.09402H15.4377C15.4584 9.09402 15.4696 9.08922 15.4769 9.08482C15.4862 9.07926 15.4966 9.06959 15.5048 9.05546C15.513 9.04133 15.5163 9.02741 15.5165 9.01642C15.5167 9.00769 15.5153 8.99556 15.5051 8.9776L12.6147 3.90305C12.6146 3.90297 12.6147 3.90312 12.6147 3.90305C12.6042 3.8848 12.5942 3.8772 12.5866 3.87296C12.577 3.86757 12.5632 3.86332 12.5466 3.86328C12.53 3.86324 12.5161 3.86742 12.5064 3.87278C12.4987 3.87701 12.4887 3.88452 12.4781 3.90271Z" fill="black"/>
</svg>