<svg width="25" height="24" viewBox="0 0 25 24" fill="none" xmlns="http://www.w3.org/2000/svg">
<path d="M10.7233 9.10548C10.4193 8.81748 10.2703 8.41448 10.3153 7.99848L10.3973 7.23848C10.4493 6.76448 10.6443 6.32648 10.9613 5.97148L14.1763 2.46048C14.7453 1.84748 15.7033 1.81148 16.3153 2.37648L16.9933 3.00448C17.2893 3.27848 17.4613 3.65148 17.4763 4.05548C17.4913 4.45848 17.3493 4.84448 17.0743 5.14148L13.9003 8.60448C13.5633 8.98348 13.0953 9.24048 12.5883 9.32548L11.8523 9.44848C11.7773 9.46148 11.7033 9.46748 11.6283 9.46748C11.2943 9.46748 10.9723 9.34048 10.7233 9.10548Z" fill="black"/>
<path d="M18.5405 6.50159C19.213 5.77647 19.5307 4.81658 19.4553 3.85085C19.4401 3.65708 19.5931 3.48248 19.7847 3.5156C21.3129 3.77988 22.4805 5.10381 22.4805 6.70659V8.10459C22.4805 9.33759 21.9545 10.5206 21.0385 11.3466L16.0065 16.3226C15.7635 16.5426 15.6335 16.8346 15.6335 17.1396V19.1776C15.6335 20.0336 15.1205 20.7916 14.3255 21.1076L12.3955 21.8766C12.1475 21.9756 11.8865 22.0246 11.6275 22.0246C11.2175 22.0246 10.8115 21.9026 10.4615 21.6656C9.89147 21.2786 9.55047 20.6356 9.55047 19.9466V16.6416C9.55047 16.3576 9.43547 16.0796 9.23447 15.8786L4.77947 11.9146C3.93447 11.0696 3.48047 9.97359 3.48047 8.80759V6.70659C3.48047 4.91359 4.93947 3.45459 6.73247 3.45459H9.87306C10.134 3.45459 10.2705 3.76471 10.0943 3.95717L9.47047 4.63859C8.87347 5.30659 8.50647 6.12959 8.40947 7.02459L8.32747 7.78259C8.21347 8.82659 8.58647 9.83859 9.35047 10.5606C9.97647 11.1506 10.7825 11.4676 11.6235 11.4676C11.8083 11.4676 11.9961 11.4525 12.183 11.4216C12.1826 11.4216 12.1833 11.4215 12.183 11.4216C12.1833 11.4216 12.1836 11.4216 12.184 11.4215L12.9165 11.2986C13.8715 11.1396 14.7525 10.6536 15.3755 9.95559L18.5405 6.50159Z" fill="black"/>
</svg>