<svg width="25" height="24" viewBox="0 0 25 24" fill="none" xmlns="http://www.w3.org/2000/svg">
<path d="M18.8974 4.36328C20.3364 4.36328 21.5029 5.52983 21.5029 6.96881V8.29298C21.5029 9.32916 21.0632 10.3167 20.2936 11.0104L15.5135 15.7379C15.1993 16.021 15.0202 16.4238 15.0202 16.8471V18.7774C15.0202 19.3893 14.6476 19.9391 14.0784 20.1648L12.2522 20.8925C11.2715 21.2827 10.2061 20.5608 10.2061 19.5051V16.3752C10.2061 15.9792 10.0485 15.5997 9.76831 15.3195L5.53116 11.5465C4.84524 10.8596 4.45898 9.92946 4.45898 8.95847V6.96881C4.45898 5.52983 5.62554 4.36328 7.06451 4.36328" stroke="black" stroke-width="1.5" stroke-linecap="round" stroke-linejoin="round"/>
<path d="M10.7466 9.48115L11.4841 9.35759C11.88 9.29143 12.242 9.09198 12.5095 8.79231L15.6852 5.32671C16.0656 4.91613 16.0403 4.27593 15.6307 3.89649L14.9526 3.26894C14.543 2.88949 13.9028 2.91479 13.5233 3.3244L10.3117 6.8299C10.0655 7.10524 9.91178 7.45063 9.87189 7.81743L9.79017 8.57827C9.73082 9.12214 10.2076 9.57164 10.7466 9.48115Z" stroke="black" stroke-width="1.5" stroke-linecap="round" stroke-linejoin="round"/>
</svg>