<svg width="25" height="25" viewBox="0 0 25 25" fill="none" xmlns="http://www.w3.org/2000/svg">
<path opacity="0.4" d="M11.1437 18.2788H4.67114" stroke="black" stroke-width="1.5" stroke-linecap="round" stroke-linejoin="round"/>
<path fill-rule="evenodd" clip-rule="evenodd" d="M15.2051 18.2797C15.2051 20.3214 15.886 21.0014 17.9269 21.0014C19.9678 21.0014 20.6487 20.3214 20.6487 18.2797C20.6487 16.2379 19.9678 15.5579 17.9269 15.5579C15.886 15.5579 15.2051 16.2379 15.2051 18.2797Z" stroke="black" stroke-width="1.5" stroke-linecap="round" stroke-linejoin="round"/>
<path opacity="0.4" d="M14.1768 7.79014H20.6484" stroke="black" stroke-width="1.5" stroke-linecap="round" stroke-linejoin="round"/>
<path fill-rule="evenodd" clip-rule="evenodd" d="M10.1154 7.78881C10.1154 5.74791 9.43448 5.06702 7.39358 5.06702C5.35179 5.06702 4.6709 5.74791 4.6709 7.78881C4.6709 9.8306 5.35179 10.5106 7.39358 10.5106C9.43448 10.5106 10.1154 9.8306 10.1154 7.78881Z" stroke="black" stroke-width="1.5" stroke-linecap="round" stroke-linejoin="round"/>
</svg>