<svg width="25" height="24" viewBox="0 0 25 24" fill="none" xmlns="http://www.w3.org/2000/svg">
<path opacity="0.4" d="M18.1303 5.16797C19.4993 5.16797 20.6095 6.27816 20.6095 7.64716V8.90719C20.6095 9.8938 20.1911 10.8337 19.4584 11.4944L14.9097 15.9925C14.611 16.2621 14.4397 16.6464 14.4397 17.0482V18.8852C14.4397 19.4681 14.0855 19.9906 13.5446 20.2066L11.8068 20.8984C10.8727 21.2701 9.85885 20.5821 9.85885 19.578V16.5997C9.85885 16.2222 9.70901 15.8612 9.44241 15.5946L5.41032 12.0033C4.75647 11.3504 4.38965 10.4649 4.38965 9.54158V7.64716C4.38965 6.27816 5.49983 5.16797 6.86884 5.16797" stroke="black" stroke-width="1.5" stroke-linecap="round" stroke-linejoin="round"/>
<path d="M15.1762 3V4.74166H13.4336" stroke="black" stroke-width="1.5" stroke-linecap="round" stroke-linejoin="round"/>
<path d="M11.5688 7.25977H9.82617V8.8798" stroke="black" stroke-width="1.5" stroke-linecap="round" stroke-linejoin="round"/>
<path d="M9.88672 4.60319C10.3742 3.74988 11.2898 3.18359 12.3435 3.18359C14.2341 3.18359 15.1749 4.75109 15.1749 4.75109" stroke="black" stroke-width="1.5" stroke-linecap="round" stroke-linejoin="round"/>
<path d="M14.7923 7.42618C14.3039 8.27172 13.3893 8.83703 12.3443 8.83703C10.7846 8.83703 9.82617 7.26953 9.82617 7.26953" stroke="black" stroke-width="1.5" stroke-linecap="round" stroke-linejoin="round"/>
</svg>