<svg width="25" height="25" viewBox="0 0 25 25" fill="none" xmlns="http://www.w3.org/2000/svg">
<path fill-rule="evenodd" clip-rule="evenodd" d="M12.25 3.10519H11.979C8.932 3.09419 6.72 3.10419 5.226 3.50919C3.537 3.96719 2.75 4.98319 2.75 6.70519C2.75 8.84278 4.67625 10.4806 6.53891 12.0643L6.54 12.0652C8.182 13.4592 9.733 14.7782 9.733 16.2032C9.733 19.6278 9.733 22.1032 12.25 22.1052V3.10519Z" fill="black"/>
<path opacity="0.4" d="M12.2529 22.1052L12.25 3.10522H12.5181C15.574 3.1062 17.7781 3.10425 19.2729 3.50903C20.9619 3.96704 21.75 4.98315 21.75 6.70532C21.75 8.84302 19.823 10.4812 17.96 12.0652C16.3169 13.4592 14.7671 14.7781 14.7671 16.2034C14.7671 19.6292 14.7671 22.1052 12.2529 22.1052Z" fill="black"/>
</svg>