<svg width="24" height="24" viewBox="0 0 24 24" fill="none" xmlns="http://www.w3.org/2000/svg">
<path opacity="0.4" d="M17.9872 4.16602C19.4427 4.16602 20.623 5.34624 20.623 6.80181V8.1416C20.623 9.19047 20.1783 10.1907 19.3999 10.8922L14.5633 15.6754C14.2451 15.9624 14.0632 16.3701 14.0632 16.7982V18.7519C14.0632 19.3707 13.6866 19.9263 13.1116 20.1559L11.2629 20.8915C10.2705 21.2865 9.19243 20.5558 9.19243 19.4875V16.3204C9.19243 15.9205 9.03384 15.5362 8.74973 15.2521L4.46182 11.4342C3.76712 10.7404 3.37695 9.79858 3.37695 8.81587V6.80181C3.37695 5.34624 4.55717 4.16602 6.01372 4.16602" stroke="black" stroke-width="1.5" stroke-linecap="round" stroke-linejoin="round"/>
<path d="M11.9987 8.92446V3M14.3004 6.61541L12.0003 8.92525L9.70117 6.61541" stroke="black" stroke-width="1.5" stroke-linecap="round" stroke-linejoin="round"/>
</svg>