<svg width="24" height="24" viewBox="0 0 24 24" fill="none" xmlns="http://www.w3.org/2000/svg">
<path d="M11.1437 17.8828H4.67114" stroke="black" stroke-width="1.5" stroke-linecap="round" stroke-linejoin="round"/>
<path fill-rule="evenodd" clip-rule="evenodd" d="M15.205 17.8837C15.205 19.9254 15.8859 20.6054 17.9267 20.6054C19.9676 20.6054 20.6485 19.9254 20.6485 17.8837C20.6485 15.8419 19.9676 15.1619 17.9267 15.1619C15.8859 15.1619 15.205 15.8419 15.205 17.8837Z" stroke="black" stroke-width="1.5" stroke-linecap="round" stroke-linejoin="round"/>
<path d="M14.1765 7.39415H20.6481" stroke="black" stroke-width="1.5" stroke-linecap="round" stroke-linejoin="round"/>
<path fill-rule="evenodd" clip-rule="evenodd" d="M10.1153 7.39281C10.1153 5.35192 9.43436 4.67102 7.39346 4.67102C5.35167 4.67102 4.67078 5.35192 4.67078 7.39281C4.67078 9.4346 5.35167 10.1146 7.39346 10.1146C9.43436 10.1146 10.1153 9.4346 10.1153 7.39281Z" stroke="black" stroke-width="1.5" stroke-linecap="round" stroke-linejoin="round"/>
</svg>