<svg width="25" height="24" viewBox="0 0 25 24" fill="none" xmlns="http://www.w3.org/2000/svg">
<path opacity="0.4" d="M3.5 8.46907V6.89189C3.5 4.74259 5.24259 3 7.39286 3H8.68205" stroke="black" stroke-width="1.5" stroke-linecap="round" stroke-linejoin="round"/>
<path opacity="0.4" d="M3.5 15.5312V17.1084C3.5 19.2577 5.24259 21.0003 7.39286 21.0003H8.64994" stroke="black" stroke-width="1.5" stroke-linecap="round" stroke-linejoin="round"/>
<path opacity="0.4" d="M21.5004 15.5312V17.1084C21.5004 19.2577 19.7578 21.0003 17.6075 21.0003H16.3184" stroke="black" stroke-width="1.5" stroke-linecap="round" stroke-linejoin="round"/>
<path opacity="0.4" d="M21.4995 8.46907V6.89189C21.4995 4.74259 19.757 3 17.6067 3H16.3496" stroke="black" stroke-width="1.5" stroke-linecap="round" stroke-linejoin="round"/>
<path d="M14.2642 16.5096V12.2376C14.2642 11.2416 13.4572 10.4336 12.4602 10.4336C11.4652 10.4336 10.6582 11.2416 10.6582 12.2376V12.7206" stroke="black" stroke-width="1.5" stroke-linecap="round" stroke-linejoin="round"/>
<path d="M8.51758 9.81119C9.30458 8.42719 10.7936 7.49219 12.5006 7.49219C13.1256 7.49219 13.7216 7.61818 14.2646 7.84518" stroke="black" stroke-width="1.5" stroke-linecap="round" stroke-linejoin="round"/>
<path d="M16.2441 9.43359C16.7701 10.1786 17.0791 11.0886 17.0791 12.0706V15.4716" stroke="black" stroke-width="1.5" stroke-linecap="round" stroke-linejoin="round"/>
<path d="M10.6582 16.5097V14.8867" stroke="black" stroke-width="1.5" stroke-linecap="round" stroke-linejoin="round"/>
<path d="M7.92188 15.4688V12.6328" stroke="black" stroke-width="1.5" stroke-linecap="round" stroke-linejoin="round"/>
</svg>