<svg width="24" height="24" viewBox="0 0 24 24" fill="none" xmlns="http://www.w3.org/2000/svg">
<path fill-rule="evenodd" clip-rule="evenodd" d="M6.89286 3.75C5.15668 3.75 3.75 5.15693 3.75 6.89189V8.46907C3.75 8.88329 3.41421 9.21907 3 9.21907C2.58579 9.21907 2.25 8.88329 2.25 8.46907V6.89189C2.25 4.32826 4.3285 2.25 6.89286 2.25H8.18205C8.59626 2.25 8.93205 2.58579 8.93205 3C8.93205 3.41421 8.59626 3.75 8.18205 3.75H6.89286Z" fill="black"/>
<path fill-rule="evenodd" clip-rule="evenodd" d="M3 14.7812C3.41421 14.7812 3.75 15.117 3.75 15.5312V17.1084C3.75 18.8434 5.15668 20.2503 6.89286 20.2503H8.14994C8.56415 20.2503 8.89994 20.5861 8.89994 21.0003C8.89994 21.4145 8.56415 21.7503 8.14994 21.7503H6.89286C4.3285 21.7503 2.25 19.6721 2.25 17.1084V15.5312C2.25 15.117 2.58579 14.7812 3 14.7812Z" fill="black"/>
<path fill-rule="evenodd" clip-rule="evenodd" d="M21.0004 14.7812C21.4146 14.7812 21.7504 15.117 21.7504 15.5312V17.1084C21.7504 19.6721 19.6719 21.7503 17.1075 21.7503H15.8184C15.4041 21.7503 15.0684 21.4145 15.0684 21.0003C15.0684 20.5861 15.4041 20.2503 15.8184 20.2503H17.1075C18.8437 20.2503 20.2504 18.8434 20.2504 17.1084V15.5312C20.2504 15.117 20.5862 14.7812 21.0004 14.7812Z" fill="black"/>
<path fill-rule="evenodd" clip-rule="evenodd" d="M15.0996 3C15.0996 2.58579 15.4354 2.25 15.8496 2.25H17.1067C19.671 2.25 21.7495 4.32826 21.7495 6.89189V8.46907C21.7495 8.88329 21.4138 9.21907 20.9995 9.21907C20.5853 9.21907 20.2495 8.88329 20.2495 8.46907V6.89189C20.2495 5.15693 18.8429 3.75 17.1067 3.75H15.8496C15.4354 3.75 15.0996 3.41421 15.0996 3Z" fill="black"/>
<path fill-rule="evenodd" clip-rule="evenodd" d="M9.4082 12.2376C9.4082 10.8282 10.5502 9.68359 11.9602 9.68359C13.3717 9.68359 14.5142 10.8276 14.5142 12.2376V16.5096C14.5142 16.9238 14.1784 17.2596 13.7642 17.2596C13.35 17.2596 13.0142 16.9238 13.0142 16.5096V12.2376C13.0142 11.6555 12.5427 11.1836 11.9602 11.1836C11.3802 11.1836 10.9082 11.655 10.9082 12.2376V12.7206C10.9082 13.1348 10.5724 13.4706 10.1582 13.4706C9.74399 13.4706 9.4082 13.1348 9.4082 12.7206V12.2376Z" fill="black"/>
<path fill-rule="evenodd" clip-rule="evenodd" d="M12.0005 8.24219C10.5742 8.24219 9.32865 9.02263 8.66943 10.1819C8.46468 10.542 8.0068 10.6679 7.64673 10.4632C7.28666 10.2584 7.16075 9.80052 7.3655 9.44045C8.28028 7.83175 10.0127 6.74219 12.0005 6.74219C12.7271 6.74219 13.4213 6.8888 14.0537 7.15322C14.4359 7.31298 14.6162 7.7523 14.4564 8.13446C14.2967 8.51662 13.8574 8.69691 13.4752 8.53715C13.0217 8.34757 12.5239 8.24219 12.0005 8.24219Z" fill="black"/>
<path fill-rule="evenodd" clip-rule="evenodd" d="M15.3116 8.82098C15.65 8.58207 16.118 8.6627 16.3569 9.00108C16.9694 9.86865 17.3292 10.9289 17.3292 12.0706V15.4717C17.3292 15.8859 16.9934 16.2217 16.5792 16.2217C16.165 16.2217 15.8292 15.8859 15.8292 15.4717V12.0706C15.8292 11.2484 15.571 10.4887 15.1315 9.86623C14.8926 9.52786 14.9733 9.05988 15.3116 8.82098Z" fill="black"/>
<path fill-rule="evenodd" clip-rule="evenodd" d="M10.1582 14.1367C10.5724 14.1367 10.9082 14.4725 10.9082 14.8867V16.5097C10.9082 16.9239 10.5724 17.2597 10.1582 17.2597C9.74399 17.2597 9.4082 16.9239 9.4082 16.5097V14.8867C9.4082 14.4725 9.74399 14.1367 10.1582 14.1367Z" fill="black"/>
<path fill-rule="evenodd" clip-rule="evenodd" d="M7.42188 11.8828C7.83609 11.8828 8.17188 12.2186 8.17188 12.6328V15.4688C8.17188 15.883 7.83609 16.2188 7.42188 16.2188C7.00766 16.2188 6.67188 15.883 6.67188 15.4688V12.6328C6.67188 12.2186 7.00766 11.8828 7.42188 11.8828Z" fill="black"/>
</svg>