<svg width="25" height="25" viewBox="0 0 25 25" fill="none" xmlns="http://www.w3.org/2000/svg">
<path d="M2.82422 15.5312V17.1083C2.82422 19.2573 4.56722 21.0002 6.71722 21.0002H7.97418" stroke="black" stroke-width="1.5" stroke-linecap="round" stroke-linejoin="round"/>
<path d="M20.8246 15.5312V17.1083C20.8246 19.2573 19.0816 21.0002 16.9316 21.0002H15.6426" stroke="black" stroke-width="1.5" stroke-linecap="round" stroke-linejoin="round"/>
<path d="M17.21 15.2071V12.8C17.21 9.82505 14.799 7.41406 11.824 7.41406C11.089 7.41406 10.388 7.56204 9.75 7.82904" stroke="black" stroke-width="1.5" stroke-linecap="round" stroke-linejoin="round"/>
<path d="M7.42145 9.69531C6.80245 10.5713 6.43945 11.6413 6.43945 12.7963V15.2043" stroke="black" stroke-width="1.5" stroke-linecap="round" stroke-linejoin="round"/>
<path d="M14.3539 15.2062V12.8151C14.3539 11.4171 13.222 10.2852 11.825 10.2852C10.428 10.2852 9.29492 11.4171 9.29492 12.8151V15.2062" stroke="black" stroke-width="1.5" stroke-linecap="round" stroke-linejoin="round"/>
<path d="M11.8242 15.2075V13.2305" stroke="black" stroke-width="1.5" stroke-linecap="round" stroke-linejoin="round"/>
<path d="M2.82422 8.46906V6.89203C2.82422 4.74203 4.56722 3 6.71722 3H8.00623" stroke="black" stroke-width="1.5" stroke-linecap="round" stroke-linejoin="round"/>
<path d="M20.8257 8.46906V6.89203C20.8257 4.74203 19.0827 3 16.9327 3H15.6758" stroke="black" stroke-width="1.5" stroke-linecap="round" stroke-linejoin="round"/>
</svg>