<svg width="24" height="24" viewBox="0 0 24 24" fill="none" xmlns="http://www.w3.org/2000/svg">
<path d="M5.58401 17.6297L11.2814 20.8238C11.7105 21.0644 12.2337 21.0653 12.6637 20.8263L18.4122 17.6311C18.9341 17.341 19.2184 16.755 19.1231 16.1655L17.6963 7.33627C17.6113 6.81054 17.239 6.37676 16.7322 6.21315C16.2254 6.04953 15.6696 6.18368 15.2933 6.56048L4.95703 16.9095" stroke="black" stroke-width="1.5" stroke-linecap="round" stroke-linejoin="round"/>
<path d="M14.2628 7.59363L13.258 5.6805C13.013 5.21403 12.5296 4.92188 12.0027 4.92188C11.4758 4.92188 10.9923 5.21403 10.7473 5.6805L4.91406 16.7867" stroke="black" stroke-width="1.5" stroke-linecap="round" stroke-linejoin="round"/>
<path d="M5.58398 17.6309C5.06717 17.3412 4.78499 16.7606 4.87642 16.1752L6.74775 4.19527C6.84206 3.59157 7.31248 3.11617 7.91516 3.01553C8.51783 2.91489 9.1172 3.21165 9.40253 3.75195L10.5849 5.99084" stroke="black" stroke-width="1.5" stroke-linecap="round" stroke-linejoin="round"/>
</svg>