<svg width="24" height="24" viewBox="0 0 24 24" fill="none" xmlns="http://www.w3.org/2000/svg">
<path fill-rule="evenodd" clip-rule="evenodd" d="M6.26562 18.3481C6.26562 17.9339 6.60141 17.5981 7.01562 17.5981H14.6285C15.0427 17.5981 15.3785 17.9339 15.3785 18.3481C15.3785 18.7624 15.0427 19.0981 14.6285 19.0981H7.01562C6.60141 19.0981 6.26562 18.7624 6.26562 18.3481Z" fill="black"/>
<path fill-rule="evenodd" clip-rule="evenodd" d="M8.34129 6.27124C6.81524 6.27124 5.57812 7.50835 5.57812 9.03441C5.57812 9.44862 5.24234 9.78441 4.82812 9.78441C4.41391 9.78441 4.07812 9.44862 4.07812 9.03441C4.07812 6.67992 5.98681 4.77124 8.34129 4.77124H9.30036C9.71458 4.77124 10.0504 5.10703 10.0504 5.52124C10.0504 5.93545 9.71458 6.27124 9.30036 6.27124H8.34129Z" fill="black"/>
<path fill-rule="evenodd" clip-rule="evenodd" d="M11.6289 5.52124C11.6289 5.10703 11.9647 4.77124 12.3789 4.77124H14.6966C15.1108 4.77124 15.4466 5.10703 15.4466 5.52124C15.4466 5.93545 15.1108 6.27124 14.6966 6.27124H12.3789C11.9647 6.27124 11.6289 5.93545 11.6289 5.52124Z" fill="black"/>
<path fill-rule="evenodd" clip-rule="evenodd" d="M6.26953 11.3596C6.26953 8.8429 8.3097 6.80273 10.8264 6.80273C13.3431 6.80273 15.3832 8.8429 15.3832 11.3596V20.0101C15.3832 20.9766 14.5997 21.7601 13.6332 21.7601H8.01953C7.05303 21.7601 6.26953 20.9766 6.26953 20.0101V11.3596ZM10.8264 8.30273C9.13813 8.30273 7.76953 9.67133 7.76953 11.3596V20.0101C7.76953 20.1481 7.88146 20.2601 8.01953 20.2601H13.6332C13.7713 20.2601 13.8832 20.1481 13.8832 20.0101V11.3596C13.8832 9.67133 12.5146 8.30273 10.8264 8.30273Z" fill="black"/>
<path fill-rule="evenodd" clip-rule="evenodd" d="M8.56106 3.99977C8.56119 3.03336 9.34465 2.25 10.3111 2.25H11.342C12.3086 2.25 13.0921 3.03364 13.092 4.00023L13.0915 7.86327C13.0914 8.27748 12.7556 8.61322 12.3414 8.61317C11.9272 8.61311 11.5914 8.27728 11.5915 7.86307L11.592 4.00003C11.592 3.86195 11.4801 3.75 11.342 3.75H10.3111C10.173 3.75 10.0611 3.86191 10.0611 3.99997L10.0605 7.86327C10.0605 8.27748 9.72466 8.61322 9.31045 8.61317C8.89623 8.61311 8.56049 8.27728 8.56055 7.86307L8.56106 3.99977Z" fill="black"/>
<path fill-rule="evenodd" clip-rule="evenodd" d="M18.4281 4.42705C18.4281 4.39636 18.4008 4.37292 18.3704 4.37765L15.4876 4.82707C15.4633 4.83087 15.4453 4.85183 15.4453 4.87647V6.17922C15.4453 6.20395 15.4634 6.22496 15.4878 6.22866L18.3707 6.66473C18.4009 6.6693 18.4281 6.64588 18.4281 6.61529V4.42705ZM18.1394 2.89555C19.0793 2.74903 19.9281 3.47582 19.9281 4.42705V6.61529C19.9281 7.56369 19.0841 8.2897 18.1463 8.14786L15.2635 7.71179C14.5056 7.59714 13.9453 6.94574 13.9453 6.17922V4.87647C13.9453 4.11261 14.5018 3.46263 15.2566 3.34497L18.1394 2.89555Z" fill="black"/>
<path fill-rule="evenodd" clip-rule="evenodd" d="M10.2891 13.0791C10.2891 12.1126 11.0726 11.3291 12.0391 11.3291H14.6289C15.0431 11.3291 15.3789 11.6649 15.3789 12.0791C15.3789 12.4933 15.0431 12.8291 14.6289 12.8291H12.0391C11.901 12.8291 11.7891 12.941 11.7891 13.0791V14.7031C11.7891 14.8412 11.901 14.9531 12.0391 14.9531H14.6289C15.0431 14.9531 15.3789 15.2889 15.3789 15.7031C15.3789 16.1173 15.0431 16.4531 14.6289 16.4531H12.0391C11.0726 16.4531 10.2891 15.6696 10.2891 14.7031V13.0791Z" fill="black"/>
</svg>