<svg width="24" height="24" viewBox="0 0 24 24" fill="none" xmlns="http://www.w3.org/2000/svg">
<g opacity="0.4">
<path d="M13.2135 6.3916L13.2137 4.8916H14.3214C14.3186 4.92633 14.3171 4.96141 14.3171 4.99678V6.29953C14.3171 6.33045 14.3182 6.36116 14.3204 6.3916H13.2135Z" fill="black"/>
<path d="M11.7134 7.24062C12.2553 7.3378 12.7621 7.53634 13.2133 7.81593C14.4307 8.5702 15.2443 9.91431 15.2549 11.4492H12.8646C11.8981 11.4492 11.1146 12.2327 11.1146 13.1992V14.8232C11.1146 15.7897 11.8981 16.5732 12.8646 16.5732H15.2551V17.7183H6.64136V11.4797C6.64136 9.10109 8.5696 7.17285 10.9482 7.17285C11.2094 7.17285 11.4651 7.19609 11.7134 7.24062Z" fill="black"/>
<path d="M8.68276 4.8916L8.68256 6.3916H8.46312C6.93706 6.3916 5.69995 7.62871 5.69995 9.15477C5.69995 9.56898 5.36416 9.90477 4.94995 9.90477C4.53574 9.90477 4.19995 9.56898 4.19995 9.15477C4.19995 6.80028 6.10864 4.8916 8.46312 4.8916H8.68276Z" fill="black"/>
<path d="M6.64136 19.2183V20.1302C6.64136 20.9586 7.31293 21.6302 8.14136 21.6302H13.7551C14.5835 21.6302 15.2551 20.9586 15.2551 20.1302V19.2183H6.64136Z" fill="black"/>
<path d="M15.2551 15.0732V12.9492H12.8646C12.7266 12.9492 12.6146 13.0611 12.6146 13.1992V14.8232C12.6146 14.9613 12.7266 15.0732 12.8646 15.0732H15.2551Z" fill="black"/>
<path d="M15.2551 11.4797C15.2551 11.4695 15.255 11.4594 15.2549 11.4492L15.2551 11.4797Z" fill="black"/>
</g>
<path d="M10.4329 2.37012C9.46645 2.37012 8.68299 3.15348 8.68286 4.11989L8.68237 7.81635C9.13366 7.53663 9.64046 7.33798 10.1824 7.24072L10.1829 4.12009C10.1829 3.98203 10.2948 3.87012 10.4329 3.87012H11.4638C11.6019 3.87012 11.7138 3.98207 11.7138 4.12015L11.7134 7.24063C12.2553 7.3378 12.7621 7.53634 13.2133 7.81593L13.2138 4.12035C13.2139 3.15376 12.4304 2.37012 11.4638 2.37012H10.4329Z" fill="black"/>
<path d="M19.8 4.54736C19.8 3.74955 19.088 3.13998 18.2997 3.26287L15.4169 3.7123C14.7839 3.81098 14.3171 4.35612 14.3171 4.99678V6.29953C14.3171 6.94241 14.7871 7.48875 15.4227 7.5849L18.3055 8.02098C19.092 8.13994 19.8 7.53102 19.8 6.7356V4.54736Z" fill="black"/>
<path d="M15.2551 16.5732V15.0732H12.8646C12.7266 15.0732 12.6146 14.9613 12.6146 14.8232V13.1992C12.6146 13.0611 12.7266 12.9492 12.8646 12.9492H15.2551V11.4797L15.2549 11.4492H12.8646C11.8981 11.4492 11.1146 12.2327 11.1146 13.1992V14.8232C11.1146 15.7897 11.8981 16.5732 12.8646 16.5732H15.2551Z" fill="black"/>
<path d="M6.64136 17.7183V19.2183H15.2551V17.7183H6.64136Z" fill="black"/>
</svg>