<svg width="25" height="24" viewBox="0 0 25 24" fill="none" xmlns="http://www.w3.org/2000/svg">
<path d="M10.8203 16.9374C11.5427 16.8322 12.2779 16.9384 13.0072 16.9215C14.699 16.8808 16.0246 15.451 17.3126 14.4806C17.9704 13.9854 18.8922 14.0509 19.4737 14.6354C20.1196 15.2833 20.1196 16.3351 19.4737 16.983C18.0826 18.3791 16.8542 19.675 14.9689 20.4082C12.3533 21.4253 9.92631 20.9311 7.27702 20.4082C6.25203 20.2048 5.30742 20.1929 4.26953 20.1929" stroke="black" stroke-width="1.5" stroke-linecap="round" stroke-linejoin="round"/>
<path d="M10.8183 16.8964H12.2462C13.2662 16.8964 14.0898 16.1631 14.0898 15.1431C14.0898 14.2957 13.5163 13.618 12.6947 13.4116C11.5189 13.1169 10.345 12.8858 9.11763 12.9145C7.17184 12.9622 5.81148 14.0457 4.26953 15.0786" stroke="black" stroke-width="1.5" stroke-linecap="round" stroke-linejoin="round"/>
<path d="M16.0393 11.6809C16.9341 10.2451 17.0473 8.23473 15.7388 6.20096C15.442 7.43309 14.382 8.04565 14.382 8.04565C13.3799 5.86337 13.0654 3 13.0654 3C10.9269 3.94967 10.3565 6.45018 10.586 7.54711C9.73002 6.49458 8.92273 5.93876 8.37241 5.86337C8.37241 7.07723 7.44783 8.8368 7.85937 10.5726" stroke="black" stroke-width="1.5" stroke-linecap="round" stroke-linejoin="round"/>
<path d="M5.12812 8.03906C5.12812 8.97773 4.41316 10.3384 4.73139 11.6806" stroke="black" stroke-width="1.5" stroke-linecap="round" stroke-linejoin="round"/>
<path d="M19.2721 7.83203C20.1911 9.26046 20.1116 10.6725 19.4832 11.6809" stroke="black" stroke-width="1.5" stroke-linecap="round" stroke-linejoin="round"/>
</svg>