<svg width="24" height="24" viewBox="0 0 24 24" fill="none" xmlns="http://www.w3.org/2000/svg">
<path fill-rule="evenodd" clip-rule="evenodd" d="M13.5564 2.60549C14.811 2.79326 16.1368 3.22422 17.2157 3.89687L17.2233 3.90161L17.2233 3.90165C21.6378 6.72778 23.0039 12.5525 20.3061 17.0467C17.6084 21.5408 11.8254 23.0742 7.25541 20.5071C2.68538 17.9399 0.986032 12.2036 3.42039 7.56147C3.61276 7.19464 4.06608 7.05321 4.43291 7.24558C4.79975 7.43795 4.94118 7.89127 4.74881 8.2581C2.69137 12.1814 4.12761 17.0296 7.99003 19.1993C11.8525 21.3689 16.74 20.073 19.0201 16.2747C21.2993 12.4777 20.1463 7.55686 16.4183 5.1674C15.5477 4.6255 14.4276 4.25259 13.3343 4.08897C12.2249 3.92293 11.2445 3.98707 10.634 4.22079C10.2471 4.36888 9.8135 4.17534 9.66542 3.7885C9.51733 3.40166 9.71087 2.96802 10.0977 2.81993C11.0452 2.4572 12.3163 2.4199 13.5564 2.60549Z" fill="black"/>
<path fill-rule="evenodd" clip-rule="evenodd" d="M9.13102 4.96516C8.95693 5.17908 8.77071 5.40792 8.58731 5.61145C8.36022 5.86346 7.99224 5.93166 7.68991 5.77777C7.4991 5.68064 7.371 5.65151 7.22679 5.65195C7.05595 5.65247 6.81646 5.69503 6.39976 5.82524C6.14599 5.90455 5.86919 5.84357 5.67224 5.66496C5.6182 5.61596 5.55923 5.56535 5.49711 5.51203C5.34925 5.38512 5.18352 5.24288 5.02389 5.0705C4.90763 5.43634 4.81616 5.85508 4.7701 6.2888C4.64676 7.45019 4.86674 8.47024 5.46421 9.00409C5.77309 9.28007 5.79975 9.7542 5.52377 10.0631C5.24778 10.372 4.77366 10.3986 4.46478 10.1226C3.3184 9.09833 3.13866 7.44699 3.27849 6.13039C3.35106 5.44703 3.51484 4.78743 3.72799 4.23522C3.93091 3.70949 4.21457 3.18646 4.5823 2.86862C4.79452 2.68519 5.09137 2.63552 5.35175 2.73987C5.61213 2.84422 5.79251 3.08515 5.81931 3.36438C5.86086 3.79732 6.00376 3.95135 6.36703 4.2749C6.665 4.19932 6.94652 4.1528 7.22222 4.15196C7.42794 4.15133 7.6186 4.17596 7.80116 4.22213C7.85293 4.15912 7.90586 4.09411 7.96042 4.0271C7.99629 3.98305 8.03286 3.93814 8.07026 3.89237C8.2808 3.63469 8.51455 3.35388 8.75964 3.10635C9.19154 2.67013 9.9289 2.05343 10.8418 2.30853C11.0691 2.37206 11.2533 2.5389 11.3389 2.75887C11.4245 2.97884 11.4016 3.22627 11.277 3.42675C10.4707 4.724 11.2453 6.15991 12.2205 6.45769C12.5824 6.5682 12.8053 6.93102 12.7403 7.30382C12.6106 8.04803 12.0778 8.66718 11.5414 9.14431C10.9913 9.63364 10.3127 10.0809 9.67717 10.4669C9.43574 10.6455 9.32727 10.7885 9.28098 10.8767C9.23872 10.9573 9.24268 11.0004 9.24688 11.0234C9.26086 11.1 9.36045 11.2627 9.60623 11.3953C9.61233 11.397 9.64631 11.4065 9.72385 11.4091C9.83131 11.4126 9.97621 11.4016 10.1664 11.3732C10.4095 11.337 10.6491 11.2866 10.917 11.2303C11.1027 11.1913 11.3019 11.1494 11.5254 11.1074C12.0174 11.0148 12.5893 10.9314 13.1226 10.9845C13.6733 11.0394 14.2732 11.2514 14.673 11.8288C14.8272 12.0516 14.8493 12.3401 14.7308 12.5837C14.6124 12.8274 14.3717 12.9882 14.1013 13.0044C13.575 13.036 13.3249 13.2552 12.7937 13.8128C12.7782 13.8291 12.7625 13.8456 12.7466 13.8623C12.4694 14.1537 12.1441 14.4956 11.7079 14.8433C13.1174 15.0306 14.1328 14.652 14.7904 14.1817C16.5566 12.8109 17.3469 11.0238 17.348 9.26808C17.3461 9.07571 17.3476 8.89656 17.349 8.72548C17.3533 8.21713 17.3569 7.78006 17.2697 7.27909C17.16 6.6486 16.8986 5.91909 16.2345 4.98049C15.9952 4.64236 16.0754 4.1743 16.4135 3.93505C16.7517 3.69581 17.2197 3.77597 17.459 4.11411C18.2388 5.2163 18.596 6.15119 18.7475 7.02199C18.8603 7.66999 18.8544 8.28842 18.8494 8.82452C18.848 8.97559 18.8466 9.12012 18.848 9.25693L18.8481 9.26444H18.848C18.848 11.5063 17.8259 13.7301 15.6978 15.3762C15.6911 15.3814 15.6843 15.3865 15.6774 15.3915C14.3526 16.3461 12.2757 16.8548 9.55269 15.8219C9.26965 15.7145 9.0789 15.4475 9.06908 15.145C9.05925 14.8424 9.23228 14.5636 9.50776 14.4381C10.602 13.9396 11.1568 13.3568 11.6693 12.8184C11.6821 12.8049 11.6949 12.7915 11.7077 12.7781L11.7086 12.7772C11.7766 12.7057 11.8459 12.6331 11.9172 12.5605C11.8796 12.5672 11.8414 12.5742 11.8027 12.5815C11.6498 12.6103 11.4775 12.6461 11.2994 12.6832C10.9894 12.7477 10.6616 12.8159 10.3877 12.8568C10.1566 12.8913 9.91106 12.916 9.6745 12.9083C9.44286 12.9006 9.16615 12.8606 8.9077 12.7228L9.26057 12.061L8.90839 12.7231C8.44193 12.475 7.89963 11.9963 7.77124 11.2926C7.62845 10.51 8.0477 9.79442 8.82084 9.23485C8.83741 9.22286 8.85447 9.21154 8.87197 9.20094C9.49554 8.82318 10.0912 8.42676 10.5444 8.02356C10.7487 7.84182 10.9029 7.67708 11.0154 7.53051C10.0861 6.92188 9.44772 5.8076 9.43829 4.59197C9.371 4.67184 9.30232 4.75517 9.23181 4.84146C9.19876 4.88192 9.16512 4.92325 9.13102 4.96516Z" fill="black"/>
</svg>