<svg width="25" height="24" viewBox="0 0 25 24" fill="none" xmlns="http://www.w3.org/2000/svg">
<path d="M19.6562 7.80029C19.2662 7.80029 18.9362 7.49034 18.9062 7.10034C18.9062 7.04034 18.7962 6.4103 17.8362 5.6803C17.5062 5.4303 17.4462 4.96025 17.6962 4.63025C17.9462 4.30025 18.4162 4.23023 18.7462 4.49023C20.3162 5.68023 20.4062 6.90027 20.4162 7.03027C20.4362 7.44027 20.1062 7.7903 19.6962 7.8103C19.6962 7.8103 19.6762 7.8103 19.6662 7.8103L19.6562 7.80029Z" fill="black"/>
<path d="M5.40624 6.6706C5.40624 6.6706 5.36622 6.6706 5.35622 6.6706C4.95622 6.6406 4.64624 6.31059 4.65624 5.91059C4.65624 5.77059 4.74621 4.54063 6.34621 3.33063C6.67621 3.08063 7.14623 3.15065 7.39623 3.47065C7.64623 3.80065 7.58622 4.27057 7.25622 4.52057C6.23622 5.29057 6.15624 5.96066 6.15624 5.98066C6.11624 6.36066 5.78624 6.66059 5.40624 6.66059V6.6706Z" fill="black"/>
<path d="M14.8364 18.0806C14.6764 18.0806 14.4963 18.0706 14.3163 18.0406C14.0863 18.0006 13.8864 17.8606 13.7764 17.6606C13.6664 17.4506 13.6563 17.2105 13.7563 16.9905C14.4563 15.4505 14.0263 15.0506 13.1663 14.2606C12.9163 14.0306 12.6464 13.7805 12.3964 13.4905C12.3464 13.9005 12.3963 14.2906 12.4463 14.6806C12.5363 15.4206 12.6364 16.2706 12.0564 17.1406C12.0364 17.1706 12.0164 17.2006 11.9864 17.2306C11.4564 17.8106 10.7364 18.0106 10.0564 17.7706C9.31636 17.5106 8.75635 16.7805 8.70635 16.0005C8.67635 15.5905 8.98635 15.2306 9.39635 15.2006C9.81635 15.1806 10.1663 15.4806 10.1963 15.8906C10.2063 16.0806 10.3663 16.2906 10.5463 16.3506C10.5963 16.3706 10.6863 16.4005 10.8463 16.2505C11.0763 15.8805 11.0364 15.5107 10.9664 14.8607C10.8564 13.9807 10.7164 12.7906 11.6464 11.3306C11.8064 11.0806 12.0963 10.9505 12.3863 10.9905C12.6763 11.0305 12.9164 11.2406 12.9964 11.5206C13.2064 12.2306 13.6864 12.6806 14.1864 13.1506C14.9564 13.8606 15.8763 14.7106 15.5163 16.4306H15.5363C15.8863 16.2206 16.3464 16.3306 16.5564 16.6806C16.7664 17.0306 16.6663 17.4806 16.3163 17.7006C16.2463 17.7406 15.6864 18.0806 14.8364 18.0806Z" fill="black"/>
<path d="M12.1363 21.7507C12.0263 21.7507 11.9063 21.7507 11.7963 21.7507C9.48635 21.6607 7.16636 20.3108 5.74636 18.2308C4.29636 16.1108 3.98636 13.5308 4.86636 10.9708C4.97636 10.6508 5.28635 10.4308 5.60635 10.4608C5.93635 10.4808 6.22635 10.7107 6.29635 11.0307C6.29635 11.0607 6.42635 11.5008 6.79635 11.9208C6.52635 10.0708 6.70634 8.28081 8.19634 6.85081C8.42634 6.63081 8.78634 6.58082 9.06634 6.73082C9.35634 6.88082 9.50634 7.20074 9.44634 7.52074C9.38634 7.88074 9.43636 8.17073 9.52636 8.39073C9.64636 7.95073 9.72636 7.50076 9.80636 7.04076C10.1064 5.32076 10.4464 3.38077 13.1864 2.30077C13.4364 2.20077 13.7363 2.25077 13.9463 2.43077C14.1563 2.61077 14.2464 2.89075 14.1864 3.16075C13.5864 5.85075 14.2963 6.5408 15.1263 7.3408C15.4963 7.7008 15.9264 8.1108 16.2064 8.7108C16.2864 8.5708 16.3664 8.42075 16.4364 8.28075C16.5464 8.04075 16.7763 7.88081 17.0463 7.85081C17.3063 7.83081 17.5663 7.94075 17.7263 8.16075C18.4163 9.12075 18.4363 10.5508 18.2963 11.7108C18.4563 11.4608 18.6064 11.1808 18.7164 10.9108C18.8264 10.6407 19.0863 10.4608 19.3763 10.4508C19.6463 10.4508 19.9363 10.5908 20.0763 10.8508C21.2163 13.0208 21.0964 15.4808 19.7464 17.6108C18.1664 20.1108 15.1363 21.7407 12.1263 21.7407L12.1363 21.7507ZM5.90636 13.1507C5.75636 14.6707 6.12635 16.1307 6.98635 17.3807C8.12635 19.0507 10.0463 20.1707 11.8563 20.2507C14.4963 20.3707 17.1264 18.9808 18.4964 16.8208C19.2764 15.5908 19.5364 14.2608 19.2764 12.9708C18.7564 13.6508 18.0464 14.2608 17.1164 14.1808C16.8964 14.1608 16.6863 14.0408 16.5663 13.8508C16.4363 13.6608 16.4063 13.4308 16.4763 13.2108C16.6963 12.4908 16.9163 11.3708 16.8863 10.4308C16.5463 10.8108 16.2064 11.0108 15.8664 11.0408C15.6564 11.0508 15.4463 10.9808 15.2963 10.8408C15.1463 10.7008 15.0563 10.4907 15.0663 10.2807C15.0863 9.37075 14.6964 9.00078 14.1164 8.44078C13.3164 7.67078 12.3663 6.75078 12.5163 4.44078C11.6863 5.17078 11.5164 6.12078 11.3064 7.32078C11.1664 8.13078 11.0064 9.05078 10.5864 9.94078C10.4864 10.1508 10.2963 10.3008 10.0663 10.3508C9.64634 10.4408 9.17635 10.2707 8.76635 9.89073C8.62635 9.76073 8.48636 9.59073 8.36636 9.39073C8.06636 10.4307 8.22636 11.7008 8.58636 13.1808C8.64636 13.4308 8.57635 13.7007 8.39635 13.8807C8.21635 14.0607 7.94635 14.1408 7.70635 14.0908C6.91635 13.9208 6.33634 13.5608 5.91634 13.1608L5.90636 13.1507Z" fill="black"/>
</svg>