<svg width="24" height="24" viewBox="0 0 24 24" fill="none" xmlns="http://www.w3.org/2000/svg">
<path d="M4.08447 7.90978C1.83857 12.1925 3.40637 17.4848 7.62259 19.8532C11.8388 22.2215 17.1741 20.8069 19.663 16.6607C22.1519 12.5144 20.8915 7.14063 16.8188 4.5333C14.8687 3.31748 11.9238 2.9239 10.3657 3.52035" stroke="black" stroke-width="1.5" stroke-linecap="round" stroke-linejoin="round"/>
<path d="M4.96436 9.56334C3.22051 8.00519 4.16493 4.22055 5.07261 3.43602C5.15801 4.32582 5.65356 4.63566 6.17592 5.10936C7.04983 4.83626 7.47984 4.82931 8.03001 5.10936C8.84433 4.20566 9.71229 2.77164 10.6398 3.03084C9.56531 4.7598 10.5703 6.73802 12.0013 7.17497C11.8325 8.14323 10.5276 9.07474 9.26044 9.84239C7.9734 10.7739 8.54343 11.6796 9.26044 12.0609C10.2029 12.5634 13.1287 10.9161 14.0562 12.2557C12.37 12.357 12.34 13.972 9.81855 15.1206C12.3241 16.071 14.1335 15.5794 15.2388 14.783C17.1902 13.2735 18.0979 11.2655 18.0979 9.26442C18.084 7.87609 18.2905 6.58806 16.8466 4.54728" stroke="black" stroke-width="1.5" stroke-linecap="round" stroke-linejoin="round"/>
</svg>