<svg width="24" height="25" viewBox="0 0 24 25" fill="none" xmlns="http://www.w3.org/2000/svg">
<path d="M15.9373 10.5209H7.97726C7.76726 10.5209 7.56726 10.4309 7.42726 10.2809C7.28726 10.1309 7.21726 9.9209 7.22726 9.7109C7.35726 8.0209 8.59727 4.7509 11.5173 2.6809C11.7773 2.5009 12.1273 2.5009 12.3873 2.6809C15.3073 4.7409 16.5573 8.0109 16.6773 9.7109C16.6973 9.9209 16.6173 10.1209 16.4773 10.2809C16.3373 10.4309 16.1373 10.5209 15.9273 10.5209H15.9373ZM8.87727 9.0209H15.0473C14.7273 7.80089 13.8673 5.7709 11.9673 4.2409C10.0673 5.7709 9.19726 7.80089 8.88726 9.0209H8.87727Z" fill="black"/>
<path d="M15.3773 22.0508C15.3773 22.0508 15.3473 22.0508 15.3273 22.0508C14.3673 21.9908 12.8573 21.2908 11.9573 20.0708C11.0573 21.3008 9.5473 22.0008 8.5873 22.0508C8.1673 22.0808 7.8173 21.7608 7.7973 21.3508C7.7773 20.9408 8.0873 20.5808 8.4973 20.5608C9.2873 20.5108 11.2073 19.5008 11.2073 17.8408C11.2073 17.4308 11.5473 17.0908 11.9573 17.0908C12.3673 17.0908 12.7073 17.4308 12.7073 17.8408C12.7073 19.5008 14.6373 20.5108 15.4173 20.5608C15.8273 20.5808 16.1473 20.9408 16.1173 21.3508C16.0973 21.7508 15.7673 22.0508 15.3673 22.0508H15.3773Z" fill="black"/>
<path d="M11.9573 18.6505C11.5473 18.6505 11.2073 18.3105 11.2073 17.9005V9.77051C11.2073 9.36051 11.5473 9.02051 11.9573 9.02051C12.3673 9.02051 12.7073 9.36051 12.7073 9.77051V17.9005C12.7073 18.3105 12.3673 18.6505 11.9573 18.6505Z" fill="black"/>
<path d="M11.9573 7.54102C11.5473 7.54102 11.2073 7.21101 11.2073 6.80101C11.2073 6.38101 11.5473 6.04102 11.9573 6.04102C12.3673 6.04102 12.7073 6.38102 12.7073 6.79102C12.7073 7.20102 12.3673 7.54102 11.9573 7.54102Z" fill="black"/>
<path d="M8.09725 14.2207C7.77725 14.2207 7.48725 14.0207 7.37725 13.7007C7.25725 13.3007 7.47724 12.8807 7.86724 12.7607C11.0472 11.7607 12.8972 11.7607 16.1272 12.7607C16.5272 12.8807 16.7472 13.3007 16.6172 13.7007C16.4972 14.1007 16.0772 14.3207 15.6772 14.1907C12.7372 13.2807 11.2172 13.2807 8.31724 14.1907C8.23724 14.2107 8.16724 14.2207 8.08724 14.2207H8.09725Z" fill="black"/>
<path d="M14.0773 17.0109C14.0073 17.0109 13.9273 17.0009 13.8573 16.9809C12.3473 16.5109 11.6173 16.5109 10.1473 16.9809C9.74733 17.1009 9.32733 16.8809 9.20733 16.4909C9.08733 16.0909 9.30733 15.6709 9.69733 15.5509C11.4673 14.9909 12.5073 14.9909 14.3073 15.5509C14.7073 15.6709 14.9273 16.0909 14.7973 16.4909C14.6973 16.8109 14.3973 17.0209 14.0773 17.0209V17.0109Z" fill="black"/>
<path d="M19.1572 19.8608C18.9672 19.8608 18.7772 19.7908 18.6272 19.6408L17.9172 18.9308C17.6272 18.6408 17.6272 18.1608 17.9172 17.8708C18.2072 17.5808 18.6872 17.5808 18.9772 17.8708L19.6872 18.5808C19.9772 18.8708 19.9772 19.3508 19.6872 19.6408C19.5372 19.7908 19.3472 19.8608 19.1572 19.8608Z" fill="black"/>
<path d="M19.2273 15.9209C18.8173 15.9209 18.4773 15.5909 18.4773 15.1709C18.4773 14.7609 18.8073 14.4209 19.2273 14.4209H20.2373C20.6273 14.4209 20.9873 14.7509 20.9873 15.1709C20.9873 15.5809 20.6573 15.9209 20.2373 15.9209H19.2273Z" fill="black"/>
<path d="M18.4074 12.7006C18.2174 12.7006 18.0274 12.6306 17.8774 12.4806C17.5874 12.1906 17.5874 11.7106 17.8774 11.4206L18.6274 10.6706C18.9174 10.3806 19.3974 10.3806 19.6874 10.6706C19.9774 10.9606 19.9774 11.4406 19.6874 11.7306L18.9374 12.4806C18.7874 12.6306 18.5974 12.7006 18.4074 12.7006Z" fill="black"/>
<path d="M4.95722 19.8813C4.76722 19.8813 4.57722 19.8113 4.42722 19.6613C4.13722 19.3713 4.13722 18.8913 4.42722 18.6013L5.13722 17.8913C5.42722 17.6013 5.90722 17.6013 6.19722 17.8913C6.48722 18.1813 6.48722 18.6613 6.19722 18.9513L5.48723 19.6613C5.33723 19.8113 5.14722 19.8813 4.95722 19.8813Z" fill="black"/>
<path d="M4.8972 15.9404H3.88721C3.47721 15.9404 3.13721 15.6004 3.13721 15.1904C3.13721 14.7804 3.47721 14.4404 3.88721 14.4404H4.8972C5.3072 14.4404 5.6472 14.7804 5.6472 15.1904C5.6472 15.6004 5.3072 15.9404 4.8972 15.9404Z" fill="black"/>
<path d="M5.70722 12.7211C5.51722 12.7211 5.32722 12.6511 5.17722 12.5011L4.42722 11.7511C4.13722 11.4611 4.13722 10.9811 4.42722 10.6911C4.71722 10.4011 5.19723 10.4011 5.48723 10.6911L6.23723 11.4411C6.52723 11.7311 6.52723 12.2111 6.23723 12.5011C6.08723 12.6511 5.89722 12.7211 5.70722 12.7211Z" fill="black"/>
</svg>