<svg width="24" height="24" viewBox="0 0 24 24" fill="none" xmlns="http://www.w3.org/2000/svg">
<path fill-rule="evenodd" clip-rule="evenodd" d="M6.67961 8.1C6.84631 4.62732 9.08193 2.25 11.8692 2.25H14.7802C15.4429 2.25 15.9802 2.78726 15.9802 3.45V5.7C15.9802 6.36274 15.4429 6.9 14.7802 6.9H12.931C12.5624 6.9 12.3704 7.03196 12.2584 7.16498C12.1273 7.32079 12.0637 7.53271 12.0637 7.70631V8.1H18.537C19.1997 8.1 19.737 8.63726 19.737 9.3V20.55C19.737 21.2127 19.1997 21.75 18.537 21.75H15.8412C15.1785 21.75 14.6412 21.2127 14.6412 20.55V12.75H12.0637V20.55C12.0637 21.2127 11.5264 21.75 10.8637 21.75H8.16367C7.50093 21.75 6.96367 21.2127 6.96367 20.55V12.75H5.46367C4.80093 12.75 4.26367 12.2127 4.26367 11.55V9.3C4.26367 8.63726 4.80093 8.1 5.46367 8.1H6.67961ZM11.8692 3.75C9.96162 3.75 8.04461 5.52845 8.17567 8.82016C8.18379 9.02409 8.10845 9.22252 7.96704 9.36967C7.82563 9.51683 7.63035 9.6 7.42627 9.6H5.76367V11.25H7.71367C8.12789 11.25 8.46367 11.5858 8.46367 12V20.25H10.5637V12C10.5637 11.5858 10.8995 11.25 11.3137 11.25H15.3912C15.8054 11.25 16.1412 11.5858 16.1412 12V20.25H18.237V9.6H11.3137C10.8995 9.6 10.5637 9.26421 10.5637 8.85V7.70631C10.5637 7.22359 10.7251 6.65736 11.1108 6.1991C11.5156 5.71804 12.1322 5.4 12.931 5.4H14.4802V3.75H11.8692Z" fill="black"/>
</svg>