<svg width="24" height="24" viewBox="0 0 24 24" fill="none" xmlns="http://www.w3.org/2000/svg">
<path d="M14.7802 6.15C15.0287 6.15 15.2302 5.94853 15.2302 5.7V3.45C15.2302 3.20147 15.0287 3 14.7802 3H11.8692C9.41974 3 7.28326 5.25831 7.42627 8.85H5.46367C5.21514 8.85 5.01367 9.05147 5.01367 9.3V11.55C5.01367 11.7985 5.21514 12 5.46367 12H7.71367V20.55C7.71367 20.7985 7.91514 21 8.16367 21H10.8637C11.1122 21 11.3137 20.7985 11.3137 20.55V12H15.3912V20.55C15.3912 20.7985 15.5927 21 15.8412 21H18.537C18.7855 21 18.987 20.7985 18.987 20.55V9.3C18.987 9.05147 18.7855 8.85 18.537 8.85H11.3137V7.70631C11.3137 7.05 11.7637 6.15 12.931 6.15H14.7802Z" stroke="black" stroke-width="1.5" stroke-linecap="round" stroke-linejoin="round"/>
</svg>