<svg width="24" height="25" viewBox="0 0 24 25" fill="none" xmlns="http://www.w3.org/2000/svg">
<path fill-rule="evenodd" clip-rule="evenodd" d="M20.5752 10.0632C20.3252 9.58324 19.8352 9.28324 19.2952 9.27324L14.8352 8.88324L14.4452 4.14324C14.4452 3.50324 14.0552 2.95324 13.4352 2.75324C12.8252 2.55324 12.1752 2.76324 11.7852 3.29324L9.86918 5.99924C9.72918 6.19924 9.75918 6.45924 9.91918 6.62924L17.5492 14.6692C17.6492 14.7692 17.7792 14.8192 17.9092 14.8192H17.9492C18.0992 14.8092 18.2392 14.7292 18.3292 14.6092L20.4652 11.6032C20.7852 11.1532 20.8252 10.5632 20.5752 10.0632Z" fill="black"/>
<path fill-rule="evenodd" clip-rule="evenodd" d="M4.55512 4.13315C4.27512 3.83315 3.79512 3.82315 3.49512 4.10315C3.19512 4.39315 3.18512 4.86315 3.46512 5.17315L7.40512 9.32315L5.27512 12.2431C4.95512 12.7031 4.91512 13.2831 5.16512 13.7831C5.41512 14.2731 5.91512 14.5731 6.46512 14.5731H11.2951V19.7031C11.2951 20.3531 11.6851 20.8931 12.3051 21.0931C12.4551 21.1431 12.6151 21.1731 12.7751 21.1731C13.2251 21.1731 13.6551 20.9531 13.9451 20.5631L15.7251 18.1031L19.1351 21.6931C19.2851 21.8531 19.4851 21.9231 19.6851 21.9231C19.8651 21.9231 20.0551 21.8631 20.2051 21.7231C20.5051 21.4331 20.5151 20.9631 20.2251 20.6631L4.55512 4.13315Z" fill="black"/>
</svg>