<svg width="24" height="25" viewBox="0 0 24 25" fill="none" xmlns="http://www.w3.org/2000/svg">
<path d="M2.99902 8.60579V7.0286C2.99902 4.87931 4.74162 3.13672 6.89188 3.13672H8.18107" stroke="black" stroke-width="1.5" stroke-linecap="round" stroke-linejoin="round"/>
<path d="M2.99902 15.668V17.2452C2.99902 19.3944 4.74162 21.137 6.89188 21.137H8.14896" stroke="black" stroke-width="1.5" stroke-linecap="round" stroke-linejoin="round"/>
<path d="M20.9994 15.668V17.2452C20.9994 19.3944 19.2568 21.137 17.1066 21.137H15.8174" stroke="black" stroke-width="1.5" stroke-linecap="round" stroke-linejoin="round"/>
<path d="M20.9986 8.60579V7.0286C20.9986 4.87931 19.256 3.13672 17.1057 3.13672H15.8486" stroke="black" stroke-width="1.5" stroke-linecap="round" stroke-linejoin="round"/>
<path d="M8.36809 12.3604L10.3862 7.43603C10.4315 7.31255 10.5491 7.23047 10.6806 7.23047H13.3861C13.6025 7.23047 13.7538 7.44448 13.6817 7.6485L12.4853 10.4566C12.4132 10.6606 12.5645 10.8746 12.7809 10.8746H15.3356C15.605 10.8746 15.749 11.1921 15.5714 11.3948L10.7208 16.9313C10.5022 17.1808 10.0965 16.9644 10.182 16.6439L11.1067 13.1763C11.1597 12.9772 11.0097 12.7819 10.8037 12.7819H8.66245C8.44449 12.7819 8.29302 12.565 8.36809 12.3604Z" stroke="black" stroke-width="1.5" stroke-linecap="round" stroke-linejoin="round"/>
</svg>