<svg width="24" height="24" viewBox="0 0 24 24" fill="none" xmlns="http://www.w3.org/2000/svg">
<path opacity="0.4" d="M16.7045 7.2878C15.6313 6.21414 14.5264 5.33851 13.5927 4.79601C13.1307 4.5276 12.6728 4.3183 12.2581 4.22307C11.8879 4.13804 11.3012 4.09014 10.8749 4.51563L10.874 4.51656L10.859 4.53186L8.26072 7.13104C7.7733 7.61734 7.45766 8.25054 7.36121 8.93138L7.1337 10.524C7.07238 10.9496 6.8752 11.3438 6.57109 11.6487L3.44625 14.7735C1.85107 16.3677 1.85142 18.9527 3.44625 20.5476C5.04029 22.1416 7.62528 22.1416 9.21931 20.5476L12.3463 17.4215C12.5371 17.2303 12.7637 17.0815 13.0115 16.9824C13.0518 16.9731 13.0917 16.9604 13.1308 16.9443C13.1426 16.9394 13.1541 16.9343 13.1655 16.9289C13.275 16.8972 13.3743 16.8742 13.4704 16.86L13.4719 16.8598L15.0634 16.6356L15.0735 16.634C15.2266 16.6103 15.3773 16.5758 15.5243 16.5311C16.0271 16.3806 16.4876 16.1073 16.8624 15.7325L19.5887 13.0062C19.973 12.6219 19.7165 12.8783 19.4765 13.1182C19.9028 12.6922 19.8549 12.105 19.77 11.735C19.6748 11.3203 19.4654 10.8622 19.1969 10.4003C18.6543 9.46646 17.7782 8.36099 16.7045 7.2878Z" fill="black"/>
<path d="M8.53836 16.5169C8.83125 16.224 8.83125 15.7491 8.53836 15.4562C8.24546 15.1633 7.77059 15.1633 7.4777 15.4562L6.4643 16.4696C6.17141 16.7625 6.17141 17.2374 6.4643 17.5303C6.75719 17.8232 7.23207 17.8232 7.52496 17.5303L8.53836 16.5169Z" fill="black"/>
<path d="M12.6531 5.98949C12.7125 6.0215 12.7744 6.0561 12.8386 6.0934C13.6311 6.55385 14.6346 7.33967 15.6434 8.34889C16.6526 9.35764 17.4389 10.3617 17.8995 11.1543C17.9368 11.2185 17.9714 11.2804 18.0034 11.3399C18.122 11.5601 17.9175 11.7645 17.6973 11.646C17.6378 11.614 17.576 11.5794 17.5117 11.5421C16.7191 11.0815 15.7153 10.2954 14.7066 9.28621C13.6973 8.27746 12.9113 7.27363 12.4508 6.48117C12.4135 6.41697 12.3789 6.35511 12.3469 6.29565C12.2284 6.07544 12.4329 5.87098 12.6531 5.98949Z" fill="black"/>
<path d="M16.1223 2.52859C16.3859 2.8481 16.3406 3.32081 16.0211 3.58441L15.9436 3.64835C15.624 3.91195 15.1513 3.86662 14.8877 3.54711C14.6241 3.2276 14.6695 2.75489 14.989 2.49129L15.0665 2.42735C15.386 2.16375 15.8587 2.20908 16.1223 2.52859Z" fill="black"/>
<path d="M20.0364 4.04334C20.3 4.36286 20.2547 4.83556 19.9352 5.09916L19.8577 5.1631C19.5382 5.4267 19.0655 5.38137 18.8019 5.06186C18.5383 4.74234 18.5836 4.26964 18.9031 4.00604L18.9806 3.9421C19.3001 3.6785 19.7728 3.72383 20.0364 4.04334Z" fill="black"/>
<path d="M21.5786 7.98585C21.8422 8.30537 21.7969 8.77808 21.4774 9.04167L21.3998 9.10561C21.0803 9.36921 20.6076 9.32387 20.344 9.00435C20.0804 8.68484 20.1258 8.21213 20.4453 7.94854L20.5228 7.88459C20.8423 7.621 21.315 7.66634 21.5786 7.98585Z" fill="black"/>
</svg>