<svg width="24" height="25" viewBox="0 0 24 25" fill="none" xmlns="http://www.w3.org/2000/svg">
<path d="M17.6504 13.7004L20.2106 10.7781C20.5365 10.4062 20.2724 9.82363 19.7779 9.82363H15.0901C14.693 9.82363 14.4153 9.43092 14.5476 9.05654L16.7431 3.90381C16.8754 3.52943 16.5977 3.13672 16.2006 3.13672H11.2361C10.9948 3.13672 10.7791 3.28734 10.696 3.51392L9.42969 6.60366" stroke="black" stroke-width="1.5" stroke-linecap="round" stroke-linejoin="round"/>
<path d="M3.64453 5.17188L19.6085 21.1359" stroke="black" stroke-width="1.5" stroke-linecap="round" stroke-linejoin="round"/>
<path d="M8.16348 9.69531L6.99273 12.552C6.85499 12.9275 7.13292 13.3255 7.53289 13.3255H11.462C11.8401 13.3255 12.1154 13.6838 12.018 14.0491L10.3212 20.4121C10.1644 21.0002 10.9088 21.3973 11.3099 20.9395L15.0902 16.6247" stroke="black" stroke-width="1.5" stroke-linecap="round" stroke-linejoin="round"/>
</svg>