<svg width="25" height="25" viewBox="0 0 25 25" fill="none" xmlns="http://www.w3.org/2000/svg">
<path d="M9.13806 15.8109C9.43103 15.5209 9.43103 15.0509 9.13806 14.7509C8.84509 14.4609 8.37097 14.4609 8.078 14.7509L6.94324 15.8909C6.65027 16.1809 6.65027 16.661 6.94324 16.951C7.23621 17.241 7.7113 17.241 8.00427 16.951L9.13806 15.8109Z" fill="black"/>
<path fill-rule="evenodd" clip-rule="evenodd" d="M21.7294 11.323C21.7377 11.5248 21.6649 11.7279 21.5101 11.8809L21.4423 11.9487L21.4242 11.9692C21.412 11.9835 21.3988 11.9974 21.3851 12.0109L19.6 13.796L18.4579 14.941C18.0707 15.3276 17.5995 15.6131 17.0839 15.782C16.8954 15.8447 16.702 15.8914 16.5052 15.9209H16.495L14.7133 16.1705L14.6996 16.1737L14.5677 16.2014C14.4955 16.2174 14.4213 16.2357 14.3427 16.2596C14.285 16.2871 14.225 16.3067 14.1639 16.3186C13.8798 16.4347 13.62 16.6078 13.4003 16.8308L9.90125 20.3308C8.15125 22.0808 5.31384 22.0808 3.56384 20.3308C1.81531 18.5808 1.81433 15.7409 3.56287 13.9909L7.06335 10.4914C7.29138 10.2666 7.46716 9.99604 7.58289 9.69913C7.58826 9.67524 7.59509 9.65162 7.60291 9.62839C7.61218 9.60193 7.62292 9.57596 7.63464 9.55057C7.64783 9.50907 7.65955 9.46714 7.67029 9.42481C7.67761 9.39606 7.68396 9.36716 7.69031 9.33808C7.70105 9.2862 7.71033 9.2338 7.71814 9.18094L7.97205 7.40091C8.07898 6.65116 8.42273 5.9614 8.95447 5.43146L12.0062 2.38089C12.1581 2.23053 12.3588 2.15812 12.558 2.1637C12.8417 2.11481 13.1244 2.15198 13.3461 2.20096C13.7982 2.31098 14.3021 2.54084 14.8153 2.83085C15.8519 3.44086 17.0844 4.41089 18.2811 5.61087C19.4789 6.81089 20.454 8.04084 21.057 9.08085C21.3553 9.59086 21.5848 10.0909 21.6888 10.5409C21.7303 10.7224 21.7621 10.9449 21.7465 11.1747C21.745 11.1979 21.743 11.2212 21.7401 11.2445L21.7333 11.2968L21.7294 11.323ZM8.84021 19.2709C7.67712 20.4309 5.78894 20.4309 4.6239 19.2709C3.45984 18.1009 3.45984 16.2109 4.6239 15.0509L8.1239 11.5509C8.20984 11.4668 8.28992 11.3788 8.3656 11.2874C8.90662 12.0148 9.57507 12.7897 10.3412 13.5509C11.1005 14.3135 11.8749 14.9849 12.6044 15.5284C12.5131 15.6046 12.4247 15.6854 12.3402 15.7709L8.84021 19.2709ZM17.2201 6.67093C16.0873 5.54093 14.9579 4.65088 14.0619 4.13089C13.6302 3.88312 13.2875 3.73526 13.0463 3.66999C13.1058 3.90885 13.2523 4.24921 13.5052 4.69095C14.0262 5.58097 14.911 6.71088 16.0443 7.85086C17.1771 8.98087 18.308 9.87091 19.203 10.3909C19.6337 10.6379 19.9755 10.7856 20.2177 10.8426C20.1556 10.6033 20.0096 10.2575 19.7601 9.83085C19.2401 8.93085 18.3539 7.80094 17.2201 6.67093ZM14.9843 8.91092C13.786 7.71094 12.8109 6.48096 12.2079 5.44095C12.0599 5.18699 11.9281 4.93302 11.8207 4.68644L10.015 6.49088L10.014 6.50089C9.71326 6.80091 9.51794 7.19089 9.45691 7.61087L9.203 9.3909C9.18542 9.51639 9.16101 9.64048 9.13123 9.76273C9.66882 10.5767 10.4452 11.5338 11.4022 12.4909C12.3549 13.4489 13.3094 14.231 14.1244 14.7645C14.2303 14.7384 14.3373 14.7166 14.4452 14.6992L14.496 14.691L16.2811 14.4309C16.4242 14.4106 16.5638 14.3755 16.6971 14.3262C16.9603 14.2247 17.1991 14.0724 17.3939 13.8809L18.7089 12.5662L19.2045 12.0696C18.9589 11.9623 18.7054 11.8303 18.4501 11.6809C17.413 11.0809 16.182 10.1009 14.9843 8.91092Z" fill="black"/>
</svg>