<svg width="24" height="25" viewBox="0 0 24 25" fill="none" xmlns="http://www.w3.org/2000/svg">
<path fill-rule="evenodd" clip-rule="evenodd" d="M17.8327 6.30309C14.6108 3.08126 9.38722 3.08126 6.16539 6.30309C2.94357 9.52491 2.94357 14.7485 6.16539 17.9704C9.38722 21.1922 14.6108 21.1922 17.8327 17.9704C21.0545 14.7485 21.0545 9.52491 17.8327 6.30309ZM5.10473 5.24243C8.91234 1.43482 15.0857 1.43482 18.8933 5.24243C22.7009 9.05004 22.7009 15.2234 18.8933 19.031C15.0857 22.8386 8.91234 22.8386 5.10473 19.031C1.29712 15.2234 1.29712 9.05004 5.10473 5.24243Z" fill="black"/>
<path fill-rule="evenodd" clip-rule="evenodd" d="M11.1321 8.66016L9.70695 12.1377H10.9277C11.6052 12.1377 12.0986 12.7799 11.924 13.4345L11.6122 14.6037L13.9569 11.9275H12.7005C11.9889 11.9275 11.4912 11.2237 11.7283 10.5528C11.7336 10.5379 11.7393 10.5232 11.7455 10.5087L12.5331 8.66016H11.1321ZM9.85578 7.819C10.0092 7.42251 10.391 7.16016 10.8174 7.16016H13.2431C13.9548 7.16016 14.4525 7.86395 14.2153 8.53491C14.2101 8.54977 14.2044 8.56446 14.1982 8.57896L13.4105 10.4275H14.991C15.8773 10.4275 16.3506 11.4716 15.7666 12.1381L11.4175 17.1023C10.6987 17.9227 9.36458 17.211 9.64562 16.1571L10.3174 13.6377H9.00786C8.29106 13.6377 7.79295 12.9244 8.03982 12.2514C8.04303 12.2426 8.04641 12.2339 8.04995 12.2253L9.85578 7.819Z" fill="black"/>
<path fill-rule="evenodd" clip-rule="evenodd" d="M13.0185 13.1572C13.3114 12.8643 13.7863 12.8643 14.0792 13.1572L18.8077 17.8857C19.1006 18.1786 19.1006 18.6535 18.8077 18.9463C18.5148 19.2392 18.0399 19.2392 17.747 18.9463L13.0185 14.2178C12.7256 13.9249 12.7256 13.4501 13.0185 13.1572Z" fill="black"/>
<path fill-rule="evenodd" clip-rule="evenodd" d="M10.295 10.4327C10.0021 10.7256 9.52721 10.7256 9.23432 10.4327L5.17865 6.37701C4.88576 6.08412 4.88576 5.60924 5.17865 5.31635C5.47155 5.02346 5.94642 5.02346 6.23931 5.31635L10.295 9.37201C10.5879 9.66491 10.5879 10.1398 10.295 10.4327Z" fill="black"/>
</svg>