<svg width="25" height="25" viewBox="0 0 25 25" fill="none" xmlns="http://www.w3.org/2000/svg">
<path d="M8.35443 21.1367C5.40632 21.1367 3.57227 19.0555 3.57227 16.1103V8.1631C3.57227 5.21791 5.41508 3.13672 8.35443 3.13672H16.7891C19.7372 3.13672 21.5723 5.21791 21.5723 8.1631V16.1103C21.5723 19.0555 19.7372 21.1367 16.7882 21.1367H12.5713" stroke="black" stroke-width="1.5" stroke-linecap="round" stroke-linejoin="round"/>
<path d="M11.3897 7.91016H13.8155C14.0095 7.91016 14.1452 8.10204 14.0805 8.28497L13.0078 10.8027C12.9431 10.9856 13.0788 11.1775 13.2728 11.1775H15.5634C15.805 11.1775 15.9341 11.4622 15.7748 11.6439L11.4257 16.608C11.2298 16.8317 10.866 16.6377 10.9426 16.3503L11.7717 13.2412C11.8193 13.0628 11.6848 12.8877 11.5001 12.8877H9.5802C9.38477 12.8877 9.24897 12.6932 9.31627 12.5097L10.221 10.3021" stroke="black" stroke-width="1.5" stroke-linecap="round" stroke-linejoin="round"/>
</svg>