<svg width="25" height="25" viewBox="0 0 25 25" fill="none" xmlns="http://www.w3.org/2000/svg">
<path fill-rule="evenodd" clip-rule="evenodd" d="M19.2637 11.2188C19.2637 10.8045 19.5995 10.4688 20.0137 10.4688H21.5725C21.9867 10.4688 22.3225 10.8045 22.3225 11.2188C22.3225 11.633 21.9867 11.9688 21.5725 11.9688H20.0137C19.5995 11.9688 19.2637 11.633 19.2637 11.2188Z" fill="black"/>
<path fill-rule="evenodd" clip-rule="evenodd" d="M18.0518 6.79796C17.8447 6.43924 17.9676 5.98054 18.3263 5.77344L19.6763 4.99403C20.035 4.78692 20.4937 4.90983 20.7008 5.26855C20.9079 5.62727 20.785 6.08596 20.4263 6.29307L19.0763 7.07248C18.7176 7.27958 18.2589 7.15668 18.0518 6.79796Z" fill="black"/>
<path fill-rule="evenodd" clip-rule="evenodd" d="M18.0518 15.6434C17.8447 16.0022 17.9676 16.4609 18.3263 16.668L19.6763 17.4474C20.035 17.6545 20.4937 17.5316 20.7008 17.1729C20.9079 16.8141 20.785 16.3554 20.4263 16.1483L19.0763 15.3689C18.7176 15.1618 18.2589 15.2847 18.0518 15.6434Z" fill="black"/>
<path fill-rule="evenodd" clip-rule="evenodd" d="M5.88086 11.2188C5.88086 10.8045 5.54507 10.4688 5.13086 10.4688H3.57204C3.15783 10.4688 2.82204 10.8045 2.82204 11.2188C2.82204 11.633 3.15783 11.9688 3.57204 11.9688H5.13086C5.54507 11.9688 5.88086 11.633 5.88086 11.2188Z" fill="black"/>
<path fill-rule="evenodd" clip-rule="evenodd" d="M7.0918 6.79796C7.2989 6.43924 7.176 5.98054 6.81728 5.77344L5.4673 4.99403C5.10858 4.78692 4.64989 4.90983 4.44278 5.26855C4.23567 5.62727 4.35858 6.08596 4.7173 6.29307L6.06728 7.07248C6.426 7.27958 6.88469 7.15668 7.0918 6.79796Z" fill="black"/>
<path fill-rule="evenodd" clip-rule="evenodd" d="M7.0918 15.6434C7.2989 16.0022 7.176 16.4609 6.81728 16.668L5.4673 17.4474C5.10858 17.6545 4.64989 17.5316 4.44278 17.1729C4.23567 16.8141 4.35858 16.3554 4.7173 16.1483L6.06728 15.3689C6.426 15.1618 6.88469 15.2847 7.0918 15.6434Z" fill="black"/>
<path fill-rule="evenodd" clip-rule="evenodd" d="M10.9357 6.09375L8.39864 12.2842H10.8941C11.6722 12.2842 12.2389 13.0218 12.0385 13.7737L11.1057 17.2715L16.4759 11.1419H13.6331C12.8157 11.1419 12.244 10.3336 12.5164 9.56291C12.5217 9.54805 12.5274 9.53336 12.5336 9.51886L13.993 6.09375H10.9357ZM10.7575 18.5774L10.7576 18.577L10.7575 18.5774ZM9.61778 5.35391C9.79316 4.8966 10.2326 4.59375 10.7236 4.59375H14.4715C15.2889 4.59375 15.8605 5.40213 15.5881 6.17279C15.5829 6.18765 15.5772 6.20234 15.571 6.21684L14.1116 9.64194H17.1721C18.19 9.64194 18.7337 10.8411 18.0629 11.6068L11.3434 19.2765C10.5178 20.2189 8.98536 19.4014 9.30816 18.1909L10.4832 13.7842H7.92783C7.10451 13.7842 6.53237 12.9649 6.81593 12.1919C6.81914 12.1832 6.82252 12.1745 6.82606 12.1658L9.61778 5.35391Z" fill="black"/>
</svg>