<svg width="24" height="25" viewBox="0 0 24 25" fill="none" xmlns="http://www.w3.org/2000/svg">
<path fill-rule="evenodd" clip-rule="evenodd" d="M11.1921 2.72139C11.3609 2.89877 11.4324 3.14733 11.3838 3.38725L9.50903 12.6381H10.6285C10.8569 12.6381 11.073 12.7423 11.2153 12.9211C11.3576 13.0998 11.4106 13.3337 11.3593 13.5564L9.69644 20.7804C9.64841 20.9891 9.51345 21.1673 9.32559 21.2701C9.13773 21.3729 8.91489 21.3905 8.71323 21.3184C7.39541 20.8476 6.15914 20.0846 5.10571 19.0312C1.2981 15.2235 1.2981 9.05019 5.10571 5.24257C6.63544 3.71284 8.54905 2.79691 10.5367 2.4967C10.7788 2.46014 11.0234 2.54402 11.1921 2.72139ZM9.68523 4.21649C8.39713 4.59157 7.18276 5.28684 6.16637 6.30323C2.94454 9.52506 2.94454 14.7487 6.16637 17.9705C6.84639 18.6505 7.61458 19.1864 8.43377 19.579L9.6862 14.1381H8.5918C8.36677 14.1381 8.15363 14.0371 8.01118 13.8629C7.86874 13.6887 7.81204 13.4597 7.85674 13.2392L9.68523 4.21649Z" fill="black"/>
<path fill-rule="evenodd" clip-rule="evenodd" d="M16.1857 3.60555C16.3936 3.52831 16.625 3.54704 16.8177 3.65669C17.5617 4.07993 18.2613 4.60848 18.8945 5.24166C22.7021 9.04927 22.7021 15.2226 18.8945 19.0302C16.7436 21.1811 13.837 22.1166 11.0313 21.838C10.7817 21.8132 10.5609 21.6652 10.4432 21.4436C10.3254 21.222 10.3263 20.9563 10.4454 20.7355L14.871 12.534H13.7847C13.5409 12.534 13.3123 12.4155 13.1718 12.2163C13.0313 12.0171 12.9964 11.7621 13.0782 11.5324L15.7404 4.05698C15.8148 3.84806 15.9778 3.68279 16.1857 3.60555ZM16.8364 5.45048L14.8479 11.034H16.1279C16.392 11.034 16.6366 11.1729 16.772 11.3997C16.9073 11.6265 16.9134 11.9078 16.7879 12.1402L12.3423 20.3789C14.3391 20.2967 16.31 19.4934 17.8338 17.9696C21.0556 14.7478 21.0556 9.52414 17.8338 6.30232C17.5189 5.98741 17.1852 5.70351 16.8364 5.45048Z" fill="black"/>
</svg>