<svg width="24" height="25" viewBox="0 0 24 25" fill="none" xmlns="http://www.w3.org/2000/svg">
<path fill-rule="evenodd" clip-rule="evenodd" d="M8.82031 3.13672C8.82031 2.72251 9.1561 2.38672 9.57031 2.38672H9.58031C9.99453 2.38672 10.3303 2.72251 10.3303 3.13672C10.3303 3.55093 9.99453 3.88672 9.58031 3.88672H9.57031C9.1561 3.88672 8.82031 3.55093 8.82031 3.13672Z" fill="black"/>
<path fill-rule="evenodd" clip-rule="evenodd" d="M11.2578 3.13672C11.2578 2.72251 11.5936 2.38672 12.0078 2.38672H12.0178C12.432 2.38672 12.7678 2.72251 12.7678 3.13672C12.7678 3.55093 12.432 3.88672 12.0178 3.88672H12.0078C11.5936 3.88672 11.2578 3.55093 11.2578 3.13672Z" fill="black"/>
<path fill-rule="evenodd" clip-rule="evenodd" d="M13.6953 3.13672C13.6953 2.72251 14.0311 2.38672 14.4453 2.38672H14.4553C14.8695 2.38672 15.2053 2.72251 15.2053 3.13672C15.2053 3.55093 14.8695 3.88672 14.4553 3.88672H14.4453C14.0311 3.88672 13.6953 3.55093 13.6953 3.13672Z" fill="black"/>
<path fill-rule="evenodd" clip-rule="evenodd" d="M2.92257 16.308C3.33279 16.2506 3.71185 16.5366 3.76923 16.9469C4.03802 18.8686 5.27267 20.1517 7.15994 20.3719C7.57136 20.4198 7.86599 20.7923 7.81801 21.2037C7.77002 21.6151 7.3976 21.9097 6.98617 21.8618C4.36858 21.5565 2.63955 19.6989 2.28369 17.1546C2.22631 16.7444 2.51235 16.3654 2.92257 16.308Z" fill="black"/>
<path fill-rule="evenodd" clip-rule="evenodd" d="M21.0324 16.308C21.4426 16.3654 21.7287 16.7444 21.6713 17.1546C21.3157 19.6969 19.5981 21.5551 16.9789 21.8617C16.5675 21.9099 16.1949 21.6154 16.1468 21.204C16.0986 20.7926 16.3931 20.4201 16.8045 20.3719C18.6901 20.1512 19.9167 18.8706 20.1858 16.9469C20.2431 16.5366 20.6222 16.2506 21.0324 16.308Z" fill="black"/>
<path fill-rule="evenodd" clip-rule="evenodd" d="M7.81797 3.069C7.86613 3.4804 7.57166 3.85295 7.16026 3.90111C5.27458 4.12186 4.03829 5.41222 3.76923 7.33587C3.71185 7.74609 3.33279 8.03213 2.92257 7.97475C2.51235 7.91738 2.22631 7.53831 2.28369 7.12809C2.63928 4.5858 4.36667 2.7179 6.98585 2.41129C7.39726 2.36313 7.76981 2.65759 7.81797 3.069Z" fill="black"/>
<path fill-rule="evenodd" clip-rule="evenodd" d="M16.1468 3.069C16.1949 2.65759 16.5675 2.36313 16.9789 2.41129C19.6002 2.71815 21.316 4.58807 21.6713 7.12809C21.7287 7.53831 21.4426 7.91738 21.0324 7.97475C20.6222 8.03213 20.2431 7.74609 20.1858 7.33587C19.9164 5.40995 18.688 4.1216 16.8045 3.90111C16.3931 3.85295 16.0986 3.4804 16.1468 3.069Z" fill="black"/>
<path fill-rule="evenodd" clip-rule="evenodd" d="M8.82031 21.1367C8.82031 20.7225 9.1561 20.3867 9.57031 20.3867H9.58031C9.99453 20.3867 10.3303 20.7225 10.3303 21.1367C10.3303 21.5509 9.99453 21.8867 9.58031 21.8867H9.57031C9.1561 21.8867 8.82031 21.5509 8.82031 21.1367Z" fill="black"/>
<path fill-rule="evenodd" clip-rule="evenodd" d="M11.2578 21.1367C11.2578 20.7225 11.5936 20.3867 12.0078 20.3867H12.0178C12.432 20.3867 12.7678 20.7225 12.7678 21.1367C12.7678 21.5509 12.432 21.8867 12.0178 21.8867H12.0078C11.5936 21.8867 11.2578 21.5509 11.2578 21.1367Z" fill="black"/>
<path fill-rule="evenodd" clip-rule="evenodd" d="M13.6953 21.1367C13.6953 20.7225 14.0311 20.3867 14.4453 20.3867H14.4553C14.8695 20.3867 15.2053 20.7225 15.2053 21.1367C15.2053 21.5509 14.8695 21.8867 14.4553 21.8867H14.4453C14.0311 21.8867 13.6953 21.5509 13.6953 21.1367Z" fill="black"/>
<path fill-rule="evenodd" clip-rule="evenodd" d="M21.0127 8.94531C21.4269 8.94531 21.7627 9.2811 21.7627 9.69531L21.7627 9.70531C21.7627 10.1195 21.4269 10.4553 21.0127 10.4553C20.5985 10.4553 20.2627 10.1195 20.2627 9.70531L20.2627 9.69531C20.2627 9.2811 20.5985 8.94531 21.0127 8.94531Z" fill="black"/>
<path fill-rule="evenodd" clip-rule="evenodd" d="M21.0127 11.3828C21.4269 11.3828 21.7627 11.7186 21.7627 12.1328L21.7627 12.1428C21.7627 12.557 21.4269 12.8928 21.0127 12.8928C20.5985 12.8928 20.2627 12.557 20.2627 12.1428L20.2627 12.1328C20.2627 11.7186 20.5985 11.3828 21.0127 11.3828Z" fill="black"/>
<path fill-rule="evenodd" clip-rule="evenodd" d="M21.0127 13.8203C21.4269 13.8203 21.7627 14.1561 21.7627 14.5703L21.7627 14.5803C21.7627 14.9945 21.4269 15.3303 21.0127 15.3303C20.5985 15.3303 20.2627 14.9945 20.2627 14.5803L20.2627 14.5703C20.2627 14.1561 20.5985 13.8203 21.0127 13.8203Z" fill="black"/>
<path fill-rule="evenodd" clip-rule="evenodd" d="M3.0127 8.94531C3.42691 8.94531 3.7627 9.2811 3.7627 9.69531L3.7627 9.70531C3.7627 10.1195 3.42691 10.4553 3.0127 10.4553C2.59848 10.4553 2.2627 10.1195 2.2627 9.70531L2.2627 9.69531C2.2627 9.2811 2.59848 8.94531 3.0127 8.94531Z" fill="black"/>
<path fill-rule="evenodd" clip-rule="evenodd" d="M3.0127 11.3828C3.42691 11.3828 3.7627 11.7186 3.7627 12.1328L3.7627 12.1428C3.7627 12.557 3.42691 12.8928 3.0127 12.8928C2.59848 12.8928 2.2627 12.557 2.2627 12.1428L2.2627 12.1328C2.2627 11.7186 2.59848 11.3828 3.0127 11.3828Z" fill="black"/>
<path fill-rule="evenodd" clip-rule="evenodd" d="M3.0127 13.8203C3.42691 13.8203 3.7627 14.1561 3.7627 14.5703L3.7627 14.5803C3.7627 14.9945 3.42691 15.3303 3.0127 15.3303C2.59848 15.3303 2.2627 14.9945 2.2627 14.5803L2.2627 14.5703C2.2627 14.1561 2.59848 13.8203 3.0127 13.8203Z" fill="black"/>
<path fill-rule="evenodd" clip-rule="evenodd" d="M10.9755 7.98047L9.31513 12.0319H10.8056C11.5044 12.0319 12.0133 12.6943 11.8332 13.3695L11.3901 15.0314L14.3748 11.6246H12.7828C12.0488 11.6246 11.5354 10.8987 11.78 10.2066C11.7853 10.1918 11.791 10.1771 11.7972 10.1626L12.7269 7.98047H10.9755ZM9.69038 7.16079C9.84846 6.75141 10.2424 6.48047 10.6825 6.48047H13.388C14.122 6.48047 14.6353 7.20639 14.3907 7.89844C14.3855 7.9133 14.3798 7.92799 14.3736 7.94249L13.4438 10.1246H15.3374C16.2515 10.1246 16.7397 11.2015 16.1374 11.889L11.2868 17.4255C10.5454 18.2717 9.16932 17.5377 9.45919 16.4506L10.2375 13.5319H8.66433C7.925 13.5319 7.41122 12.7962 7.66585 12.1021C7.66907 12.0933 7.67245 12.0846 7.67599 12.076L9.69038 7.16079Z" fill="black"/>
</svg>