<svg width="24" height="25" viewBox="0 0 24 25" fill="none" xmlns="http://www.w3.org/2000/svg">
<path d="M9.58031 3.13672H9.57031" stroke="black" stroke-width="1.5" stroke-linecap="round" stroke-linejoin="round"/>
<path d="M12.0178 3.13672H12.0078" stroke="black" stroke-width="1.5" stroke-linecap="round" stroke-linejoin="round"/>
<path d="M14.4553 3.13672H14.4453" stroke="black" stroke-width="1.5" stroke-linecap="round" stroke-linejoin="round"/>
<path d="M3.02637 17.0508C3.33869 19.2838 4.82053 20.8541 7.07296 21.1168" stroke="black" stroke-width="1.5" stroke-linecap="round" stroke-linejoin="round"/>
<path d="M16.8916 21.1168C19.144 20.8532 20.6161 19.2838 20.9285 17.0508" stroke="black" stroke-width="1.5" stroke-linecap="round" stroke-linejoin="round"/>
<path d="M3.02637 7.23203C3.33869 4.99906 4.82053 3.41993 7.07296 3.15625" stroke="black" stroke-width="1.5" stroke-linecap="round" stroke-linejoin="round"/>
<path d="M16.8916 3.15625C19.144 3.41993 20.6161 4.99906 20.9285 7.23203" stroke="black" stroke-width="1.5" stroke-linecap="round" stroke-linejoin="round"/>
<path d="M9.58031 21.1367H9.57031" stroke="black" stroke-width="1.5" stroke-linecap="round" stroke-linejoin="round"/>
<path d="M12.0178 21.1367H12.0078" stroke="black" stroke-width="1.5" stroke-linecap="round" stroke-linejoin="round"/>
<path d="M14.4553 21.1367H14.4453" stroke="black" stroke-width="1.5" stroke-linecap="round" stroke-linejoin="round"/>
<path d="M21.0127 9.70531L21.0127 9.69531" stroke="black" stroke-width="1.5" stroke-linecap="round" stroke-linejoin="round"/>
<path d="M21.0127 12.1428L21.0127 12.1328" stroke="black" stroke-width="1.5" stroke-linecap="round" stroke-linejoin="round"/>
<path d="M21.0127 14.5803L21.0127 14.5703" stroke="black" stroke-width="1.5" stroke-linecap="round" stroke-linejoin="round"/>
<path d="M3.0127 9.70531L3.0127 9.69531" stroke="black" stroke-width="1.5" stroke-linecap="round" stroke-linejoin="round"/>
<path d="M3.0127 12.1428L3.0127 12.1328" stroke="black" stroke-width="1.5" stroke-linecap="round" stroke-linejoin="round"/>
<path d="M3.0127 14.5803L3.0127 14.5703" stroke="black" stroke-width="1.5" stroke-linecap="round" stroke-linejoin="round"/>
<path opacity="0.4" d="M8.37004 12.3604L10.3882 7.43603C10.4335 7.31255 10.551 7.23047 10.6826 7.23047H13.388C13.6044 7.23047 13.7558 7.44448 13.6837 7.6485L12.4872 10.4566C12.4151 10.6606 12.5664 10.8746 12.7828 10.8746H15.3375C15.607 10.8746 15.7509 11.1921 15.5733 11.3948L10.7227 16.9313C10.5042 17.1808 10.0985 16.9644 10.1839 16.6439L11.1086 13.1763C11.1617 12.9772 11.0117 12.7819 10.8056 12.7819H8.66441C8.44644 12.7819 8.29498 12.565 8.37004 12.3604Z" stroke="black" stroke-width="1.5" stroke-linecap="round" stroke-linejoin="round"/>
</svg>