<svg width="24" height="25" viewBox="0 0 24 25" fill="none" xmlns="http://www.w3.org/2000/svg">
<path d="M19.9996 7.70254C17.8946 3.99454 13.4056 2.19054 9.22555 3.63354C4.53555 5.25654 2.04055 10.3785 3.66355 15.0685C5.27755 19.7685 10.3986 22.2645 15.0986 20.6405C18.0056 19.6385 20.0696 17.3035 20.8316 14.5475" stroke="black" stroke-width="1.5" stroke-linecap="round" stroke-linejoin="round"/>
<path d="M20.2419 4.40625V7.70525H16.9609" stroke="black" stroke-width="1.5" stroke-linecap="round" stroke-linejoin="round"/>
<path fill-rule="evenodd" clip-rule="evenodd" d="M11.6533 7.84292L8.30582 12.4538C8.06695 12.7826 8.30193 13.2433 8.70814 13.2433H11.4465V16.1384C11.4465 16.62 12.0639 16.8209 12.347 16.4303L15.6945 11.8199C15.9333 11.491 15.6984 11.0299 15.2922 11.0299H12.5533V8.13529C12.5533 7.65319 11.9364 7.45276 11.6533 7.84292Z" stroke="black" stroke-width="1.5" stroke-linecap="round" stroke-linejoin="round"/>
</svg>