<svg width="24" height="24" viewBox="0 0 24 24" fill="none" xmlns="http://www.w3.org/2000/svg">
<path d="M11.7661 20.5552C11.2361 20.5552 10.7061 20.3651 10.2661 19.9851C9.94613 19.7051 9.72613 19.3152 9.26613 18.5552L9.24611 18.5251L6.77611 14.3252C5.37611 11.9452 3.97612 9.56506 2.57612 7.18506C2.12612 6.40506 2.11612 5.47507 2.57612 4.69507C3.02612 3.91507 3.82612 3.45508 4.72612 3.45508H15.4261C15.6961 3.45508 15.9461 3.59496 16.0761 3.83496C16.2061 4.06496 16.2061 4.35496 16.0761 4.58496L14.0461 8.08496C13.9161 8.31496 13.6661 8.45508 13.3961 8.45508H8.65611L9.17613 9.31519H12.0361C12.3061 9.31519 12.5661 9.46508 12.6961 9.70508C12.8261 9.94508 12.8161 10.2351 12.6661 10.4651L11.2261 12.7051L14.2561 17.7551C14.3961 17.9851 14.3961 18.2851 14.2561 18.5151C13.7961 19.3051 13.5661 19.6951 13.2561 19.9751C12.8061 20.3651 12.2761 20.5552 11.7461 20.5552H11.7661ZM10.5461 17.7651L10.5661 17.7952C10.9061 18.3652 11.1261 18.745 11.2661 18.865C11.5761 19.135 11.9661 19.135 12.2861 18.865C12.3861 18.775 12.5361 18.535 12.7561 18.155L9.71611 13.085C9.56611 12.845 9.57612 12.5352 9.72612 12.2952L10.6761 10.8152H8.76613C8.50613 10.8152 8.25611 10.6751 8.12611 10.4551L6.70613 8.09497C6.56613 7.86497 6.56613 7.57496 6.70613 7.33496C6.83613 7.09496 7.08612 6.95508 7.35612 6.95508H12.9861L14.1461 4.95508H4.74611C4.23611 4.95508 3.97613 5.29507 3.89613 5.44507C3.80613 5.59507 3.63613 5.98506 3.89613 6.43506C5.28613 8.81506 6.6861 11.1952 8.0861 13.5752L10.5561 17.7751L10.5461 17.7651Z" fill="black"/>
<path d="M15.0864 16.7834C14.8264 16.7834 14.5864 16.6533 14.4464 16.4333L12.3864 13.1433C12.2364 12.9033 12.2364 12.6033 12.3864 12.3533L17.5464 3.80347C17.6864 3.58347 17.9264 3.44336 18.1864 3.44336H19.2664C20.1864 3.44336 20.9964 3.92339 21.4464 4.72339C21.8964 5.53339 21.8664 6.47342 21.3764 7.25342C19.4664 10.3034 17.6564 13.2733 15.7264 16.4133C15.5864 16.6333 15.3464 16.7734 15.0864 16.7734V16.7834ZM13.9064 12.7334L15.0764 14.6033C16.7764 11.8333 18.4064 9.17338 20.1064 6.46338C20.2964 6.15338 20.3064 5.77337 20.1364 5.45337C19.9564 5.13337 19.6364 4.94336 19.2764 4.94336H18.6164L13.9164 12.7334H13.9064Z" fill="black"/>
</svg>