<svg width="24" height="24" viewBox="0 0 24 24" fill="none" xmlns="http://www.w3.org/2000/svg">
<path opacity="0.4" d="M9.90213 18.1396C10.3244 18.8578 10.5356 19.2169 10.7607 19.4136C11.3596 19.937 12.1755 19.9351 12.7727 19.4092C12.9972 19.2115 13.2073 18.8515 13.6273 18.1315L10.3555 12.6783L12.0481 10.0489H8.76668L7.34899 7.69149H13.4137L15.4389 4.19531C11.871 4.19533 8.30318 4.19534 4.73531 4.19535C3.39778 4.19535 2.56415 5.64503 3.23937 6.79962C5.45258 10.5841 7.68296 14.3586 9.90213 18.1396Z" stroke="black" stroke-width="1.5" stroke-linecap="round" stroke-linejoin="round"/>
<path d="M19.2582 4.19531C20.6253 4.19493 21.4566 5.70344 20.7318 6.86257C18.8237 9.91413 17.0052 12.8831 15.0763 16.0338L13.0186 12.7472L18.1778 4.19562L19.2582 4.19531Z" stroke="black" stroke-width="1.5" stroke-linecap="round" stroke-linejoin="round"/>
</svg>