<svg width="24" height="24" viewBox="0 0 24 24" fill="none" xmlns="http://www.w3.org/2000/svg">
<path opacity="0.4" d="M7.78216 3H16.2169C19.165 3 21 5.08119 21 8.02638V15.9736C21 18.9188 19.165 21 16.2159 21H7.78216C4.83405 21 3 18.9188 3 15.9736V8.02638C3 5.08119 4.84281 3 7.78216 3Z" stroke="black" stroke-width="1.5" stroke-linecap="round" stroke-linejoin="round"/>
<path d="M8.83261 10.2969C7.89272 10.2998 7.13282 11.0626 7.13477 12.0025C7.13574 12.9424 7.89855 13.7033 8.83845 13.7023C9.77834 13.7013 10.5402 12.9395 10.5402 11.9996C10.5402 11.0597 9.77736 10.2969 8.83747 10.2969M15.1569 10.2969C14.217 10.2998 13.4571 11.0626 13.4591 12.0025C13.4601 12.9424 14.2229 13.7033 15.1628 13.7023C16.1027 13.7013 16.8645 12.9395 16.8645 11.9996C16.8645 11.0597 16.1017 10.2969 15.1618 10.2969" stroke="black" stroke-width="1.5" stroke-linecap="round" stroke-linejoin="round"/>
</svg>