<svg width="24" height="24" viewBox="0 0 24 24" fill="none" xmlns="http://www.w3.org/2000/svg">
<path fill-rule="evenodd" clip-rule="evenodd" d="M12 3.75C7.44329 3.75 3.75 7.44329 3.75 12C3.75 16.5567 7.44329 20.25 12 20.25C16.5567 20.25 20.25 16.5567 20.25 12C20.25 7.44329 16.5567 3.75 12 3.75ZM2.25 12C2.25 6.61487 6.61487 2.25 12 2.25C17.3851 2.25 21.75 6.61487 21.75 12C21.75 17.3851 17.3851 21.75 12 21.75C6.61487 21.75 2.25 17.3851 2.25 12Z" fill="black"/>
<path fill-rule="evenodd" clip-rule="evenodd" d="M8.83494 11.0469C8.83497 11.0469 8.83499 11.0469 8.83502 11.0469C8.83584 11.0469 8.83666 11.0469 8.83747 11.0469C9.36315 11.0469 9.79017 11.4739 9.79017 11.9996C9.79017 12.5251 9.3641 12.9517 8.83767 12.9523C8.31178 12.9528 7.88531 12.5272 7.88477 12.0017L7.88477 12.0009C7.88368 11.4755 8.30837 11.0485 8.83494 11.0469ZM8.83507 9.54688C8.83348 9.54687 8.83188 9.54687 8.83028 9.54688C7.47706 9.55108 6.38197 10.6497 6.38477 12.004L7.13477 12.0025L6.38477 12.0033C6.38617 13.3576 7.48533 14.4537 8.83922 14.4523C10.1926 14.4509 11.2902 13.3538 11.2902 11.9996C11.2902 10.6455 10.1916 9.54688 8.83747 9.54688C8.83667 9.54688 8.83587 9.54688 8.83507 9.54688ZM15.1593 11.0469C15.1593 11.0469 15.1593 11.0469 15.1593 11.0469C15.1602 11.0469 15.161 11.0469 15.1618 11.0469C15.6875 11.0469 16.1145 11.4739 16.1145 11.9996C16.1145 12.5251 15.6884 12.9517 15.162 12.9523C14.6361 12.9528 14.2096 12.5272 14.2091 12.0017L14.2091 12.0009C14.208 11.4755 14.6327 11.0485 15.1593 11.0469ZM15.1594 9.54688C15.1602 9.54688 15.161 9.54688 15.1618 9.54688C16.5159 9.54688 17.6145 10.6455 17.6145 11.9996C17.6145 13.3538 16.5169 14.4509 15.1635 14.4523C13.8099 14.4537 12.7109 13.358 12.7091 12.004M15.1594 9.54688C15.1578 9.54687 15.1562 9.54687 15.1546 9.54688C13.8014 9.55108 12.7063 10.6496 12.7091 12.004" fill="black"/>
</svg>