<svg width="24" height="24" viewBox="0 0 24 24" fill="none" xmlns="http://www.w3.org/2000/svg">
<path opacity="0.4" fill-rule="evenodd" clip-rule="evenodd" d="M16.217 2.5H7.782C4.622 2.5 2.5 4.722 2.5 8.03V15.97C2.5 19.277 4.622 21.5 7.782 21.5H16.216C19.376 21.5 21.5 19.277 21.5 15.97V8.03C21.5 4.722 19.377 2.5 16.217 2.5Z" fill="black"/>
<path fill-rule="evenodd" clip-rule="evenodd" d="M15.4069 14.4496C14.0549 14.4496 12.9539 13.3506 12.9529 12.0006C12.9509 11.3456 13.2049 10.7296 13.6669 10.2676C14.1289 9.80358 14.7449 9.54958 15.4009 9.54958C15.4029 9.54858 15.4039 9.54858 15.4059 9.54958C16.7589 9.54958 17.8589 10.6486 17.8589 11.9996C17.8589 13.3496 16.7589 14.4496 15.4069 14.4496ZM14.7289 11.3271C14.9069 11.1481 15.1459 11.0491 15.4009 11.0491H15.4059C15.9309 11.0491 16.3589 11.4751 16.3589 11.9991C16.3589 12.5241 15.9319 12.9491 15.4069 12.9491C14.8819 12.9491 14.4529 12.5231 14.4529 11.9971C14.4519 11.7441 14.5509 11.5061 14.7289 11.3271Z" fill="black"/>
<path fill-rule="evenodd" clip-rule="evenodd" d="M9.08292 14.4496C7.73092 14.4496 6.62992 13.3506 6.62892 12.0006C6.62692 11.3456 6.88092 10.7306 7.34292 10.2676C7.80492 9.80358 8.42092 9.54958 9.07692 9.54958H9.08192C10.4339 9.54958 11.5339 10.6486 11.5339 11.9996C11.5339 13.3496 10.4339 14.4496 9.08292 14.4496ZM8.40483 11.3271C8.58383 11.1481 8.82283 11.0491 9.07683 11.0491H9.08183C9.60683 11.0491 10.0338 11.4751 10.0338 11.9991C10.0338 12.5241 9.60683 12.9491 9.08283 12.9491C8.55783 12.9491 8.12883 12.5231 8.12883 11.9971C8.12783 11.7441 8.22683 11.5061 8.40483 11.3271Z" fill="black"/>
</svg>