<svg width="24" height="24" viewBox="0 0 24 24" fill="none" xmlns="http://www.w3.org/2000/svg">
<path fill-rule="evenodd" clip-rule="evenodd" d="M8.02082 5.49115C8.31371 5.78405 8.31371 6.25892 8.02082 6.55181L5.06068 9.51151L8.02082 12.4719C8.31371 12.7648 8.31371 13.2396 8.02082 13.5325C7.72793 13.8254 7.25305 13.8254 6.96016 13.5325L3.46967 10.0418C3.17678 9.74889 3.17678 9.27401 3.46967 8.98112L6.96016 5.49115C7.25305 5.19826 7.72793 5.19826 8.02082 5.49115Z" fill="black"/>
<path fill-rule="evenodd" clip-rule="evenodd" d="M3.25 9.51099C3.25 9.09677 3.58579 8.76099 4 8.76099H15.7664C18.5188 8.76099 20.7497 10.9919 20.7497 13.7443C20.7497 16.4966 18.519 18.7284 15.7664 18.7284H12.2824C11.8682 18.7284 11.5324 18.3926 11.5324 17.9784C11.5324 17.5642 11.8682 17.2284 12.2824 17.2284H15.7664C17.6902 17.2284 19.2497 15.6685 19.2497 13.7443C19.2497 11.8203 17.6904 10.261 15.7664 10.261H4C3.58579 10.261 3.25 9.9252 3.25 9.51099Z" fill="black"/>
</svg>