<svg width="24" height="24" viewBox="0 0 24 24" fill="none" xmlns="http://www.w3.org/2000/svg">
<path fill-rule="evenodd" clip-rule="evenodd" d="M15.9794 5.49115C16.2723 5.19826 16.7472 5.19826 17.0401 5.49115L20.5306 8.98112C20.8235 9.27401 20.8235 9.74889 20.5306 10.0418L17.0401 13.5325C16.7472 13.8254 16.2723 13.8254 15.9794 13.5325C15.6865 13.2396 15.6865 12.7648 15.9794 12.4719L18.9396 9.51151L15.9794 6.55181C15.6865 6.25892 15.6865 5.78405 15.9794 5.49115Z" fill="black"/>
<path fill-rule="evenodd" clip-rule="evenodd" d="M3.25 13.7443C3.25 10.9919 5.48087 8.76099 8.23333 8.76099H19.9997C20.4139 8.76099 20.7497 9.09677 20.7497 9.51099C20.7497 9.9252 20.4139 10.261 19.9997 10.261H8.23333C6.30929 10.261 4.75 11.8203 4.75 13.7443C4.75 15.6685 6.30947 17.2284 8.23333 17.2284H11.7173C12.1315 17.2284 12.4673 17.5642 12.4673 17.9784C12.4673 18.3926 12.1315 18.7284 11.7173 18.7284H8.23333C5.48069 18.7284 3.25 16.4966 3.25 13.7443Z" fill="black"/>
</svg>