<svg width="24" height="24" viewBox="0 0 24 24" fill="none" xmlns="http://www.w3.org/2000/svg">
<path opacity="0.4" fill-rule="evenodd" clip-rule="evenodd" d="M20.7201 8.05412L16.2451 3.39212C15.6971 2.82312 14.9291 2.49512 14.1391 2.49512H7.81508C4.65608 2.49512 2.53308 4.71612 2.53308 8.02112V15.9691C2.53308 18.5907 3.88168 20.5087 6.01134 21.1977C6.13668 21.2382 6.26208 21.1425 6.26208 21.0107V16.2691C6.26208 14.3201 7.50808 13.2021 9.68108 13.2021H14.3831C16.5571 13.2021 17.8031 14.3201 17.8031 16.2691V21.0108C17.8031 21.1425 17.9285 21.2382 18.0538 21.1977C20.1844 20.5088 21.5331 18.5907 21.5331 15.9691V10.0751C21.5331 9.31712 21.2441 8.59912 20.7201 8.05412Z" fill="black"/>
<path d="M13.9371 8.84521H8.40613C7.99213 8.84521 7.65613 8.50921 7.65613 8.09521C7.65613 7.68121 7.99213 7.34521 8.40613 7.34521H13.9371C14.3511 7.34521 14.6871 7.68121 14.6871 8.09521C14.6871 8.50921 14.3511 8.84521 13.9371 8.84521Z" fill="black"/>
<path d="M14.3832 14.7031C16.0712 14.7031 16.3032 15.4561 16.3032 16.2701C16.3032 17.1404 16.3037 18.0109 16.3042 18.8813C16.3047 19.6847 16.3051 20.488 16.3052 21.2911C16.3052 21.4016 16.2176 21.4911 16.1071 21.491C14.833 21.4903 9.10499 21.4845 7.96128 21.4833C7.8509 21.4832 7.76221 21.3937 7.76221 21.2833V16.2701C7.76221 15.4561 7.99421 14.7031 9.68121 14.7031H14.3832Z" fill="black"/>
</svg>