<svg width="24" height="24" viewBox="0 0 24 24" fill="none" xmlns="http://www.w3.org/2000/svg">
<path d="M3.12746 6.73811C3.59059 4.49252 5.29424 3 7.78307 3H14.1054C14.765 3 15.3945 3.26951 15.8509 3.74431L20.3255 8.40577C20.7585 8.85625 20.9998 9.45656 20.9998 10.0812V15.9735C20.9998 18.9196 19.1657 20.9998 16.2167 20.9998H7.78307C4.835 20.9998 3 18.9196 3 15.9735" stroke="black" stroke-width="1.5" stroke-linecap="round" stroke-linejoin="round"/>
<path d="M8.05469 21.0004V17.6758C8.05469 16.663 8.87489 15.8418 9.88774 15.8418H14.1104C15.1223 15.8418 15.9434 16.663 15.9434 17.6758V21.0004" stroke="black" stroke-width="1.5" stroke-linecap="round" stroke-linejoin="round"/>
<path d="M8.05469 3V5.65715" stroke="black" stroke-width="1.5" stroke-linecap="round" stroke-linejoin="round"/>
<path d="M4.9683 13.2066L3 11.2383L4.9683 9.26953" stroke="black" stroke-width="1.5" stroke-linecap="round" stroke-linejoin="round"/>
<path d="M3 11.2383H10.2194" stroke="black" stroke-width="1.5" stroke-linecap="round" stroke-linejoin="round"/>
</svg>