<svg width="24" height="24" viewBox="0 0 24 24" fill="none" xmlns="http://www.w3.org/2000/svg">
<path d="M15.851 3.74335C15.3947 3.26854 14.7642 3 14.1055 3H7.78216C4.84281 3 3 5.08022 3 8.02638V15.9736C3 18.9188 4.83405 21 7.78216 21H16.2169C19.1659 21 21 18.9188 21 15.9736V10.0803C21 9.45568 20.7587 8.85535 20.3257 8.40486L15.851 3.74335Z" stroke="black" stroke-width="1.5" stroke-linecap="round" stroke-linejoin="round"/>
<path d="M13.9044 8.09961H8.37305" stroke="black" stroke-width="1.5" stroke-linecap="round" stroke-linejoin="round"/>
<path d="M17.0196 20.9401V16.2737C17.0196 14.6303 15.9931 13.957 14.3498 13.957H9.64835C8.00403 13.957 6.97852 14.6303 6.97852 16.2737V20.9401" stroke="black" stroke-width="1.5" stroke-linecap="round" stroke-linejoin="round"/>
</svg>