<svg width="25" height="24" viewBox="0 0 25 24" fill="none" xmlns="http://www.w3.org/2000/svg">
<path d="M3.62746 6.73811C4.09059 4.49252 5.79424 3 8.28307 3H14.6054C15.265 3 15.8945 3.26951 16.3509 3.74431L20.8255 8.40577C21.2585 8.85625 21.4998 9.45656 21.4998 10.0812V15.9735C21.4998 18.9196 19.6657 20.9998 16.7167 20.9998H8.28307C5.335 20.9998 3.5 18.9196 3.5 15.9735" stroke="black" stroke-width="1.5" stroke-linecap="round" stroke-linejoin="round"/>
<path opacity="0.4" d="M8.55469 21.0004V17.6758C8.55469 16.663 9.37489 15.8418 10.3877 15.8418H14.6104C15.6223 15.8418 16.4434 16.663 16.4434 17.6758V21.0004" stroke="black" stroke-width="1.5" stroke-linecap="round" stroke-linejoin="round"/>
<path opacity="0.4" d="M8.55469 3V5.65715" stroke="black" stroke-width="1.5" stroke-linecap="round" stroke-linejoin="round"/>
<path d="M5.4683 13.2066L3.5 11.2383L5.4683 9.26953" stroke="black" stroke-width="1.5" stroke-linecap="round" stroke-linejoin="round"/>
<path d="M3.5 11.2383H10.7194" stroke="black" stroke-width="1.5" stroke-linecap="round" stroke-linejoin="round"/>
</svg>