<svg width="25" height="24" viewBox="0 0 25 24" fill="none" xmlns="http://www.w3.org/2000/svg">
<path d="M16.3509 3.74334C15.8945 3.26854 15.2641 3 14.6054 3H8.2821C5.34279 3 3.5 5.08019 3.5 8.02631V15.9735C3.5 18.9186 5.33403 20.9998 8.2821 20.9998H16.7167C19.6657 20.9998 21.4998 18.9186 21.4998 15.9735V10.0802C21.4998 9.45559 21.2585 8.85527 20.8255 8.40479L16.3509 3.74334Z" stroke="black" stroke-width="1.5" stroke-linecap="round" stroke-linejoin="round"/>
<path opacity="0.4" d="M8.55664 21.0004V17.6758C8.55664 16.663 9.37685 15.8418 10.3897 15.8418H14.6123C15.6242 15.8418 16.4454 16.663 16.4454 17.6758V21.0004" stroke="black" stroke-width="1.5" stroke-linecap="round" stroke-linejoin="round"/>
<path opacity="0.4" d="M8.55664 3V7.64978" stroke="black" stroke-width="1.5" stroke-linecap="round" stroke-linejoin="round"/>
</svg>