<svg width="24" height="24" viewBox="0 0 24 24" fill="none" xmlns="http://www.w3.org/2000/svg">
<path opacity="0.4" fill-rule="evenodd" clip-rule="evenodd" d="M20.686 8.059L16.211 3.397C15.663 2.828 14.895 2.5 14.106 2.5H7.782C4.623 2.5 2.5 4.721 2.5 8.026V15.974C2.5 19.279 4.623 21.5 7.782 21.5H16.216C19.377 21.5 21.5 19.279 21.5 15.974V10.08C21.5 9.322 21.211 8.604 20.686 8.059Z" fill="black"/>
<path d="M13.86 8.229H6.974C6.56 8.229 6.224 7.893 6.224 7.479C6.224 7.065 6.56 6.729 6.974 6.729H13.86C14.274 6.729 14.61 7.065 14.61 7.479C14.61 7.893 14.274 8.229 13.86 8.229Z" fill="black"/>
<path fill-rule="evenodd" clip-rule="evenodd" d="M8.696 17.557C7.333 17.557 6.224 16.449 6.224 15.086C6.224 13.724 7.333 12.615 8.696 12.615C10.058 12.615 11.167 13.724 11.167 15.086C11.167 16.449 10.058 17.557 8.696 17.557ZM7.72388 15.0862C7.72388 14.5512 8.15988 14.1152 8.69588 14.1152C9.23088 14.1152 9.66688 14.5512 9.66688 15.0862C9.66688 15.6212 9.23088 16.0572 8.69588 16.0572C8.15988 16.0572 7.72388 15.6212 7.72388 15.0862Z" fill="black"/>
</svg>