<svg width="24" height="24" viewBox="0 0 24 24" fill="none" xmlns="http://www.w3.org/2000/svg">
<path fill-rule="evenodd" clip-rule="evenodd" d="M14.6264 17.6318H10.4044C9.80741 17.6318 9.32141 18.1178 9.32141 18.7158V21.2998C9.32141 21.4103 9.41095 21.4998 9.52141 21.4998H15.5094C15.6199 21.4998 15.7094 21.4103 15.7094 21.2998V18.7158C15.7094 18.1178 15.2244 17.6318 14.6264 17.6318Z" fill="black"/>
<path fill-rule="evenodd" clip-rule="evenodd" d="M21.2006 8.059L16.7256 3.397C16.1786 2.828 15.4106 2.5 14.6196 2.5H9.52161C9.41115 2.5 9.32161 2.58954 9.32161 2.7V4.722C9.32161 5.136 8.98561 5.472 8.57161 5.472C8.15761 5.472 7.82161 5.136 7.82161 4.722V2.75859C7.82161 2.64223 7.72223 2.55016 7.60656 2.56288C4.83869 2.86742 3.01361 4.97143 3.01361 8.026V9.038C3.01361 9.14846 3.10315 9.238 3.21361 9.238H5.96661C5.97461 8.737 6.16661 8.238 6.54961 7.856C7.33061 7.075 8.59661 7.075 9.37761 7.856L11.3436 9.822C11.4376 9.915 11.5206 10.018 11.5946 10.128C11.6276 10.179 11.6506 10.233 11.6796 10.285C11.7136 10.347 11.7506 10.407 11.7776 10.473C11.8066 10.541 11.8226 10.612 11.8436 10.683C11.8586 10.737 11.8806 10.789 11.8916 10.845C11.9436 11.104 11.9426 11.371 11.8916 11.63C11.8806 11.685 11.8596 11.736 11.8446 11.789C11.8236 11.861 11.8066 11.934 11.7776 12.003C11.7526 12.065 11.7166 12.121 11.6856 12.18C11.6546 12.236 11.6296 12.294 11.5936 12.348C11.5306 12.443 11.4566 12.529 11.3776 12.612C11.3666 12.624 11.3586 12.639 11.3466 12.651L9.37861 14.621C8.98761 15.012 8.47461 15.207 7.96361 15.207C7.45161 15.207 6.93961 15.012 6.54961 14.621C6.16661 14.239 5.97361 13.739 5.96561 13.238H3.21361C3.10315 13.238 3.01361 13.3275 3.01361 13.438V15.973C3.01361 19.0276 4.83869 21.1325 7.60656 21.4371C7.72223 21.4498 7.82161 21.3578 7.82161 21.2414V18.716C7.82161 17.291 8.98061 16.132 10.4046 16.132H14.6266C16.0506 16.132 17.2096 17.291 17.2096 18.716V21.2412C17.2096 21.3577 17.3091 21.4498 17.4248 21.4369C20.1906 21.1304 22.0136 19.0265 22.0136 15.973V10.08C22.0136 9.322 21.7246 8.604 21.2006 8.059Z" fill="black"/>
<path fill-rule="evenodd" clip-rule="evenodd" d="M7.45739 12.6773C7.16439 12.9703 7.16439 13.4453 7.45739 13.7383C7.60339 13.8843 7.79639 13.9573 7.98739 13.9573C8.18039 13.9573 8.37139 13.8843 8.51839 13.7383L10.4854 11.7683C10.5544 11.6993 10.6094 11.6163 10.6474 11.5253C10.7234 11.3413 10.7234 11.1353 10.6474 10.9513C10.6094 10.8603 10.5544 10.7773 10.4854 10.7083L8.51839 8.74026C8.22539 8.44726 7.75039 8.44726 7.45739 8.74026C7.16439 9.03326 7.16439 9.50826 7.45739 9.80126L8.14439 10.4883H2.73639C2.32239 10.4883 1.98639 10.8243 1.98639 11.2383C1.98639 11.6523 2.32239 11.9883 2.73639 11.9883H8.14539L7.45739 12.6773Z" fill="black"/>
</svg>