<svg width="25" height="24" viewBox="0 0 25 24" fill="none" xmlns="http://www.w3.org/2000/svg">
<path opacity="0.4" fill-rule="evenodd" clip-rule="evenodd" d="M12.5 2.50488C7.262 2.50488 3 6.76688 3 12.0049C3 17.2429 7.262 21.5049 12.5 21.5049C17.738 21.5049 22 17.2429 22 12.0049C22 6.76688 17.738 2.50488 12.5 2.50488Z" fill="black"/>
<path fill-rule="evenodd" clip-rule="evenodd" d="M17 8.25391H14.375C13.755 8.25391 13.25 8.76091 13.25 9.38391V11.2539H15.5C15.914 11.2539 16.25 11.5899 16.25 12.0039C16.25 12.4179 15.914 12.7539 15.5 12.7539H13.25V14.2539C13.25 15.0569 12.938 15.8109 12.37 16.3749C11.809 16.9339 11.036 17.2539 10.25 17.2539C9.464 17.2539 8.691 16.9339 8.13 16.3749C7.562 15.8109 7.25 15.0569 7.25 14.2539C7.25 13.4509 7.562 12.6979 8.13 12.1319C8.69 11.5739 9.463 11.2539 10.25 11.2539H11.75V9.38391C11.75 7.93391 12.928 6.75391 14.375 6.75391H17C17.414 6.75391 17.75 7.08991 17.75 7.50391C17.75 7.91791 17.414 8.25391 17 8.25391ZM8.75037 14.2542C8.75037 13.8522 8.90637 13.4761 9.18837 13.1941C9.46937 12.9141 9.85637 12.7542 10.2504 12.7542H11.7504V14.2542C11.7504 14.6552 11.5944 15.0312 11.3114 15.3122C10.7474 15.8732 9.75237 15.8732 9.18837 15.3122C8.90537 15.0312 8.75037 14.6552 8.75037 14.2542Z" fill="black"/>
</svg>