<svg width="25" height="24" viewBox="0 0 25 24" fill="none" xmlns="http://www.w3.org/2000/svg">
<path fill-rule="evenodd" clip-rule="evenodd" d="M12.3885 15.5063C13.9358 15.5063 15.1902 14.252 15.1902 12.7047C15.1902 11.1574 13.9358 9.90308 12.3885 9.90308C10.8413 9.90308 9.58691 11.1574 9.58691 12.7047C9.58691 14.252 10.8413 15.5063 12.3885 15.5063Z" stroke="black" stroke-width="1.5" stroke-linecap="round" stroke-linejoin="round"/>
<path d="M14.8619 14.021C16.2369 14.7158 17.8413 15.6405 18.5371 16.5387C18.9477 17.069 19.1307 17.7414 19.046 18.4061C18.9604 19.0717 18.6149 19.676 18.0855 20.0857C17.5552 20.4963 16.8828 20.6803 16.2181 20.5956C15.5525 20.5109 14.9482 20.1655 14.5375 19.6361C13.8418 18.736 13.3309 16.9406 13.002 15.4351" stroke="black" stroke-width="1.5" stroke-linecap="round" stroke-linejoin="round"/>
<path d="M9.8928 14.0009C8.51778 14.6957 6.90629 15.6406 6.2105 16.5388C5.79985 17.0691 5.61787 17.7415 5.70156 18.4062C5.78719 19.0718 6.13265 19.6761 6.66203 20.0858C7.19238 20.4964 7.86481 20.6804 8.52946 20.5957C9.19507 20.511 9.79938 20.1656 10.21 19.6362C10.9058 18.7361 11.4167 16.9407 11.7456 15.4352" stroke="black" stroke-width="1.5" stroke-linecap="round" stroke-linejoin="round"/>
<path d="M10.3249 10.7961C9.21072 9.73146 7.78315 8.52771 6.70298 8.17252C6.06656 7.96232 5.37175 8.0139 4.77328 8.31557C4.17383 8.61724 3.72036 9.14564 3.51016 9.78206C3.29997 10.4185 3.35155 11.1123 3.65321 11.7118C3.95488 12.3102 4.48231 12.7647 5.11874 12.9749C6.1989 13.331 8.06243 13.2133 9.59121 13.0216" stroke="black" stroke-width="1.5" stroke-linecap="round" stroke-linejoin="round"/>
<path d="M14.4414 10.7961C15.5556 9.73146 16.9832 8.52771 18.0634 8.17252C18.7008 7.96232 19.3946 8.0139 19.9931 8.31557C20.5925 8.61724 21.046 9.14564 21.2562 9.78206C21.4664 10.4185 21.4148 11.1123 21.1131 11.7118C20.8115 12.3102 20.284 12.7647 19.6476 12.9749C18.5674 13.331 16.7039 13.2133 15.1751 13.0216" stroke="black" stroke-width="1.5" stroke-linecap="round" stroke-linejoin="round"/>
<path d="M11.2158 10.1592C10.5541 8.76767 9.875 7.05088 9.875 5.9133C9.875 5.24282 10.1416 4.59959 10.6155 4.1247C11.0904 3.65079 11.7337 3.38416 12.4041 3.38416C13.0746 3.38416 13.7179 3.65079 14.1927 4.1247C14.6667 4.59959 14.9333 5.24282 14.9333 5.9133C14.9333 7.05088 14.2516 8.78181 13.5898 10.1734" stroke="black" stroke-width="1.5" stroke-linecap="round" stroke-linejoin="round"/>
</svg>