<svg width="25" height="24" viewBox="0 0 25 24" fill="none" xmlns="http://www.w3.org/2000/svg">
<path fill-rule="evenodd" clip-rule="evenodd" d="M12.3885 15.5063C13.9358 15.5063 15.1902 14.252 15.1902 12.7047C15.1902 11.1574 13.9358 9.90308 12.3885 9.90308C10.8413 9.90308 9.58691 11.1574 9.58691 12.7047C9.58691 14.252 10.8413 15.5063 12.3885 15.5063Z" stroke="black" stroke-width="1.5" stroke-linecap="round" stroke-linejoin="round"/>
<path d="M13.002 15.4352C13.3309 16.9406 13.8418 18.736 14.5375 19.6362C14.9482 20.1655 15.5525 20.511 16.2181 20.5957C16.8828 20.6803 17.5552 20.4964 18.0855 20.0857C18.6149 19.6761 18.9604 19.0717 19.046 18.4061C19.1307 17.7415 18.9477 17.0691 18.5371 16.5387C18.251 16.1694 17.8113 15.7956 17.2971 15.4352" stroke="black" stroke-width="1.5" stroke-linecap="round" stroke-linejoin="round"/>
<path d="M9.8928 14.0009C8.51778 14.6957 6.90629 15.6406 6.2105 16.5388C5.79985 17.0691 5.61787 17.7415 5.70156 18.4062C5.78719 19.0718 6.13265 19.6761 6.66203 20.0858C7.19238 20.4964 7.86481 20.6804 8.52946 20.5957C9.19507 20.511 9.79938 20.1656 10.21 19.6362C10.52 19.2352 10.7933 18.6565 11.0301 18.0049" stroke="black" stroke-width="1.5" stroke-linecap="round" stroke-linejoin="round"/>
<path d="M10.3249 10.7961C9.21072 9.73146 7.78315 8.52771 6.70298 8.17252C6.06656 7.96232 5.37175 8.0139 4.77328 8.31557C4.17383 8.61724 3.72036 9.14564 3.51016 9.78206C3.29997 10.4185 3.35155 11.1123 3.65321 11.7118C3.95488 12.3102 4.48231 12.7647 5.11874 12.9749C5.62055 13.1403 6.29144 13.2035 7.01929 13.2045" stroke="black" stroke-width="1.5" stroke-linecap="round" stroke-linejoin="round"/>
<path d="M15.1748 13.0216C16.7036 13.2133 18.5671 13.331 19.6473 12.9749C20.2837 12.7647 20.8111 12.3102 21.1128 11.7118C21.4145 11.1123 21.466 10.4185 21.2558 9.78206C21.0457 9.14564 20.5922 8.61724 19.9927 8.31557C19.3943 8.0139 18.7004 7.96232 18.063 8.17252C17.552 8.34054 16.9633 8.69847 16.3668 9.14173" stroke="black" stroke-width="1.5" stroke-linecap="round" stroke-linejoin="round"/>
<path d="M13.5898 10.1734C14.2516 8.78181 14.9333 7.05088 14.9333 5.9133C14.9333 5.24282 14.6667 4.59959 14.1927 4.1247C13.7179 3.65079 13.0746 3.38416 12.4041 3.38416C11.7337 3.38416 11.0904 3.65079 10.6155 4.1247C10.1416 4.59959 9.875 5.24282 9.875 5.9133C9.875 6.48342 10.0456 7.19903 10.299 7.94626" stroke="black" stroke-width="1.5" stroke-linecap="round" stroke-linejoin="round"/>
</svg>