<svg width="25" height="24" viewBox="0 0 25 24" fill="none" xmlns="http://www.w3.org/2000/svg">
<path fill-rule="evenodd" clip-rule="evenodd" d="M9.00577 13.7594C8.57023 13.795 8.12687 13.8193 7.6962 13.8245C6.88126 13.8335 6.04533 13.7755 5.38517 13.5575C4.559 13.2845 3.87638 12.6956 3.48429 11.9196C3.09318 11.1425 3.02628 10.2426 3.29923 9.41748C3.5712 8.59351 4.1591 7.90747 4.93693 7.51648C5.71329 7.12549 6.61417 7.05847 7.43839 7.33057C8.09904 7.54749 8.80607 7.99854 9.45499 8.49048C9.85831 8.79614 10.2602 9.13416 10.641 9.47424C10.5458 9.25415 10.453 9.03015 10.3647 8.80493C10.266 8.5542 10.1728 8.30212 10.0883 8.05249C9.82804 7.28357 9.62638 6.47656 9.62638 5.78357C9.62638 4.91455 9.97208 4.08057 10.5863 3.46545L10.5873 3.46448C11.2021 2.85046 12.036 2.50452 12.9052 2.50452C13.7753 2.50452 14.6093 2.85046 15.224 3.46448L15.225 3.46545C15.8393 4.08057 16.185 4.91455 16.185 5.78357C16.185 6.47656 15.9823 7.28748 15.7221 8.05847C15.5746 8.49426 15.4018 8.9375 15.2192 9.36707C15.2133 9.38049 15.2079 9.39392 15.2021 9.40735C15.5605 9.08984 15.9355 8.77612 16.3119 8.49048C16.9623 7.99854 17.6693 7.54749 18.329 7.33057C19.1552 7.05847 20.0551 7.12451 20.831 7.51648C21.6093 7.90747 22.1962 8.59351 22.4692 9.41748C22.7411 10.2426 22.6742 11.1425 22.2831 11.9196C21.892 12.6956 21.2079 13.2845 20.3832 13.5575C19.7231 13.7755 18.8861 13.8335 18.0712 13.8245C17.6239 13.8191 17.1625 13.7931 16.7099 13.7551C16.7914 13.8004 16.873 13.8462 16.9545 13.8927C17.2646 14.0696 17.5717 14.2546 17.8651 14.4456C18.5443 14.8885 19.204 15.3995 19.6313 15.9495C20.164 16.6375 20.4013 17.5095 20.2909 18.3726C20.1801 19.2345 19.7323 20.0175 19.0453 20.5496C18.3583 21.0815 17.4872 21.3195 16.6239 21.2106C15.7621 21.1005 14.9779 20.6525 14.4462 19.9666L14.4452 19.9655C14.0199 19.4155 13.6869 18.6465 13.4233 17.8755C13.2299 17.3085 13.0639 16.7061 12.9228 16.1263C12.9115 16.1263 12.9003 16.1265 12.8891 16.1265C12.8681 16.1265 12.8471 16.1263 12.8261 16.126C12.6855 16.7058 12.519 17.3082 12.3251 17.8755C12.0619 18.6465 11.7289 19.4155 11.3031 19.9666C10.7699 20.6525 9.98722 21.1005 9.12394 21.2106C8.26212 21.3195 7.39005 21.0815 6.70304 20.5496C6.01603 20.0175 5.56925 19.2345 5.45792 18.3726L5.45695 18.3705C5.34904 17.5095 5.58439 16.6385 6.11808 15.9495C6.54337 15.4005 7.20402 14.8855 7.88517 14.4375C8.24406 14.2009 8.62492 13.9733 9.00577 13.7594ZM9.83292 10.765C9.41837 10.3872 8.98038 10.0134 8.54923 9.68652C7.93595 9.22156 7.38908 8.89355 6.96915 8.75549C6.5214 8.60754 6.03312 8.64355 5.61124 8.85547C5.19132 9.0675 4.87199 9.43848 4.72306 9.88757C4.57609 10.3345 4.61222 10.8225 4.82413 11.2455C5.03605 11.6655 5.40714 11.9855 5.85538 12.1335C6.27531 12.2715 6.91007 12.3325 7.67911 12.3245C8.22062 12.318 8.79581 12.278 9.3549 12.2209C9.40714 11.6931 9.57511 11.1992 9.83292 10.765ZM11.3656 15.7841C10.8954 15.5605 10.4823 15.2368 10.1537 14.8405C9.99161 14.9272 9.82902 15.0166 9.6674 15.108C9.33732 15.2952 9.01261 15.4907 8.70939 15.6906C8.06632 16.1135 7.57413 16.5195 7.30314 16.8685C7.01505 17.2405 6.88712 17.7135 6.9462 18.1825C6.98087 18.454 7.07755 18.7122 7.22599 18.937C7.33244 19.0986 7.46525 19.243 7.62101 19.3635C7.99503 19.6525 8.46818 19.7815 8.93497 19.7225C9.40324 19.6625 9.82804 19.4196 10.1171 19.0465C10.3871 18.6975 10.6571 18.1185 10.9062 17.3905C11.0805 16.8806 11.2333 16.3276 11.3656 15.7841ZM14.3866 15.7965C14.518 16.3361 14.6703 16.8844 14.8432 17.3905C15.0912 18.1185 15.3612 18.6975 15.6313 19.0465C15.9203 19.4196 16.3451 19.6625 16.8144 19.7225C17.2802 19.7815 17.7543 19.6525 18.1274 19.3635C18.4989 19.0756 18.7431 18.6505 18.8031 18.1815C18.8622 17.7145 18.7343 17.2415 18.4452 16.8685C18.1762 16.5205 17.686 16.1205 17.0453 15.7025C16.5961 15.4094 16.0995 15.1256 15.6064 14.8624C15.2743 15.2561 14.8588 15.5767 14.3866 15.7965ZM14.7118 13.5193C14.8588 13.2368 14.9413 12.9159 14.9413 12.5756C14.9413 11.7634 14.4692 11.0612 13.7846 10.7286C13.7792 10.7263 13.7738 10.724 13.769 10.7216C13.7641 10.7191 13.7587 10.7167 13.7538 10.7141C13.4911 10.5919 13.1977 10.5236 12.8891 10.5236C11.7563 10.5236 10.8373 11.4425 10.8373 12.5756C10.8373 13.7085 11.7563 14.6265 12.8891 14.6265C13.0229 14.6265 13.1532 14.6135 13.2802 14.5891C13.3007 14.5828 13.3217 14.5771 13.3432 14.5725C13.3622 14.5684 13.3813 14.5651 13.4003 14.5624C13.9565 14.4199 14.4218 14.0502 14.6908 13.5581L14.6933 13.5535C14.6991 13.5419 14.7055 13.5305 14.7118 13.5193ZM15.9423 10.7588C16.2021 11.1948 16.3715 11.6913 16.4237 12.222C16.9789 12.2784 17.5502 12.3181 18.0883 12.3245C18.8573 12.3325 19.4931 12.2715 19.913 12.1335C20.3603 11.9855 20.7323 11.6655 20.9433 11.2455C21.1562 10.8225 21.1923 10.3345 21.0443 9.88757C20.8964 9.43848 20.5771 9.0675 20.1562 8.85547C19.7353 8.64355 19.247 8.60754 18.7983 8.75549C18.3783 8.89355 17.831 9.22156 17.2182 9.68652C16.7895 10.0116 16.3549 10.3831 15.9423 10.7588ZM13.6928 9.11487C13.9174 8.60901 14.1298 8.0835 14.3012 7.57849C14.5463 6.85254 14.685 6.22852 14.685 5.78357C14.685 5.3125 14.497 4.8595 14.164 4.52551C13.83 4.1925 13.3774 4.00452 12.9052 4.00452C12.434 4.00452 11.9814 4.1925 11.6484 4.52454C11.3144 4.8595 11.1264 5.3125 11.1264 5.78357C11.1264 6.22852 11.2641 6.84851 11.5092 7.57056C11.6801 8.07532 11.893 8.60095 12.1181 9.10754C12.3661 9.05261 12.6244 9.02356 12.8891 9.02356C13.1654 9.02356 13.4345 9.05518 13.6928 9.11487Z" fill="black"/>
</svg>