<svg width="24" height="24" viewBox="0 0 24 24" fill="none" xmlns="http://www.w3.org/2000/svg">
<path fill-rule="evenodd" clip-rule="evenodd" d="M13.0579 12.5284C13.3508 12.2356 13.8256 12.2356 14.1185 12.5284L17.295 15.7049C17.4357 15.8456 17.5147 16.0363 17.5147 16.2353C17.5147 16.4342 17.4357 16.6249 17.295 16.7656L14.1185 19.9421C13.8256 20.235 13.3507 20.235 13.0578 19.9421C12.7649 19.6492 12.7649 19.1744 13.0578 18.8815L14.954 16.9853H9.3529C8.93869 16.9853 8.6029 16.6495 8.6029 16.2353C8.6029 15.821 8.93869 15.4853 9.3529 15.4853H14.954L13.0579 13.5891C12.765 13.2962 12.765 12.8213 13.0579 12.5284ZM2.25 16.2353C2.25 15.8211 2.58579 15.4853 3 15.4853H3.01059C3.4248 15.4853 3.76059 15.8211 3.76059 16.2353C3.76059 16.6495 3.4248 16.9853 3.01059 16.9853H3C2.58579 16.9853 2.25 16.6495 2.25 16.2353ZM5.42648 16.2353C5.42648 15.8211 5.76227 15.4853 6.17648 15.4853H6.18707C6.60128 15.4853 6.93707 15.8211 6.93707 16.2353C6.93707 16.6495 6.60128 16.9853 6.18707 16.9853H6.17648C5.76227 16.9853 5.42648 16.6495 5.42648 16.2353Z" fill="black"/>
<path fill-rule="evenodd" clip-rule="evenodd" d="M17.293 4.0578C17.5859 3.76491 18.0608 3.76491 18.3537 4.0578L21.5301 7.23422C21.6707 7.37487 21.7498 7.56564 21.7498 7.76455C21.7498 7.96346 21.6707 8.15423 21.5301 8.29488L18.3537 11.4713C18.0608 11.7642 17.5859 11.7642 17.293 11.4713C17.0001 11.1784 17.0001 10.7035 17.293 10.4106L19.1891 8.51455H10.4115C9.99728 8.51455 9.66149 8.17877 9.66149 7.76455C9.66149 7.35034 9.99728 7.01455 10.4115 7.01455H19.1891L17.293 5.11846C17.0001 4.82557 17.0001 4.3507 17.293 4.0578ZM3.30859 7.76462C3.30859 7.3504 3.64438 7.01462 4.05859 7.01462H4.06918C4.4834 7.01462 4.81918 7.3504 4.81918 7.76462C4.81918 8.17883 4.4834 8.51462 4.06918 8.51462H4.05859C3.64438 8.51462 3.30859 8.17883 3.30859 7.76462ZM6.48508 7.76462C6.48508 7.3504 6.82086 7.01462 7.23508 7.01462H7.24566C7.65988 7.01462 7.99566 7.3504 7.99566 7.76462C7.99566 8.17883 7.65988 8.51462 7.24566 8.51462H7.23508C6.82086 8.51462 6.48508 8.17883 6.48508 7.76462Z" fill="black"/>
</svg>