<svg width="25" height="25" viewBox="0 0 25 25" fill="none" xmlns="http://www.w3.org/2000/svg">
<path fill-rule="evenodd" clip-rule="evenodd" d="M8.99988 6.63385L8.99988 5.10242C8.99988 4.28318 9.66188 3.61865 10.479 3.61865L14.5218 3.61865C15.3388 3.61865 15.9999 4.28318 15.9999 5.10242V6.63386C15.9999 7.45406 15.3388 8.11859 14.5218 8.11859H10.479C9.66188 8.11859 8.99988 7.45406 8.99988 6.63385Z" stroke="black" stroke-width="1.5" stroke-linecap="round" stroke-linejoin="round"/>
<path fill-rule="evenodd" clip-rule="evenodd" d="M3.49988 19.1339L3.49988 17.6024C3.49988 16.7832 4.16188 16.1187 4.97897 16.1187L9.02176 16.1187C9.83884 16.1187 10.4999 16.7832 10.4999 17.6024V19.1339C10.4999 19.9541 9.83884 20.6186 9.02176 20.6186H4.97897C4.16188 20.6186 3.49988 19.9541 3.49988 19.1339Z" stroke="black" stroke-width="1.5" stroke-linecap="round" stroke-linejoin="round"/>
<path fill-rule="evenodd" clip-rule="evenodd" d="M14.4999 19.1339L14.4999 17.6024C14.4999 16.7832 15.1619 16.1187 15.979 16.1187L20.0218 16.1187C20.8388 16.1187 21.4999 16.7832 21.4999 17.6024V19.1339C21.4999 19.9541 20.8388 20.6186 20.0218 20.6186H15.979C15.1619 20.6186 14.4999 19.9541 14.4999 19.1339Z" stroke="black" stroke-width="1.5" stroke-linecap="round" stroke-linejoin="round"/>
<path opacity="0.4" d="M12.4999 8.11865L12.4999 12.1187" stroke="black" stroke-width="1.5" stroke-linecap="round"/>
<path opacity="0.4" d="M17.9999 16.1187V14.1187C17.9999 13.0141 17.1044 12.1187 15.9999 12.1187H8.99988C7.89531 12.1187 6.99988 13.0141 6.99988 14.1187V16.1187" stroke="black" stroke-width="1.5" stroke-linecap="round"/>
</svg>