<svg width="25" height="24" viewBox="0 0 25 24" fill="none" xmlns="http://www.w3.org/2000/svg">
<path fill-rule="evenodd" clip-rule="evenodd" d="M4.02734 15.3698V8.6288C4.02734 5.7118 5.06834 4.4668 7.50634 4.4668H9.23534C9.61734 4.4668 9.98234 4.6488 10.2123 4.9568L11.0023 6.0068C11.5123 6.6848 12.3263 7.0918 13.1793 7.0948H14.6393C16.5263 7.0948 17.4983 7.6828 17.9023 9.1188H12.1803C10.6693 9.1188 9.33734 10.1898 9.01234 11.6678L7.72134 17.6168C7.59234 18.1758 7.15634 18.7028 6.66234 18.9008C6.28734 19.0518 5.89434 18.9988 5.49534 18.7658C4.54434 18.0738 4.02734 16.9328 4.02734 15.3698ZM21.4353 10.1898C20.9813 9.6408 20.2853 9.2978 19.4473 9.1758C18.9543 6.7788 17.3853 5.5948 14.6393 5.5948H13.1823C12.7973 5.5938 12.4303 5.4098 12.2003 5.1038L11.4113 4.0568C10.9013 3.3738 10.0873 2.9668 9.23534 2.9668H7.50634C4.20234 2.9668 2.52734 4.8718 2.52734 8.6288V15.3698C2.52734 17.3088 3.21634 18.8188 4.41034 19.7978C4.43734 19.8328 4.45634 19.8718 4.49034 19.9018C4.52034 19.9278 4.95434 20.2918 5.75934 20.6008C5.80734 20.6198 5.85534 20.6408 5.90534 20.6588C6.17034 20.7518 6.47634 20.8318 6.81534 20.8978C6.91234 20.9168 7.01034 20.9328 7.10934 20.9468C7.44634 20.9978 7.80334 21.0348 8.20434 21.0348H17.6043C19.1193 21.0348 20.4523 19.9598 20.7763 18.4688L21.9523 12.6808C22.1943 11.4318 21.8043 10.6368 21.4353 10.1898Z" fill="black"/>
</svg>