<svg width="24" height="24" viewBox="0 0 24 24" fill="none" xmlns="http://www.w3.org/2000/svg">
<path opacity="0.4" fill-rule="evenodd" clip-rule="evenodd" d="M16.395 5.3637H13.743C13.229 5.3617 12.738 5.1167 12.43 4.7067L11.574 3.5677C11.077 2.9077 10.288 2.5127 9.463 2.5127H7.588C4.164 2.5127 2.5 4.4197 2.5 8.3417V15.6537C2.5 19.3057 4.685 21.4867 8.345 21.4867H15.641C19.293 21.4867 21.474 19.3057 21.474 15.6567L21.5 10.9987C21.5 7.1537 19.878 5.3637 16.395 5.3637Z" fill="black"/>
<path fill-rule="evenodd" clip-rule="evenodd" d="M15.612 11.6725L11.472 15.8155C11.331 15.9555 11.141 16.0345 10.942 16.0345C10.743 16.0345 10.552 15.9555 10.411 15.8155L8.38699 13.7905C8.09399 13.4975 8.09399 13.0235 8.38699 12.7305C8.67999 12.4375 9.15499 12.4375 9.44799 12.7305L10.942 14.2245L14.551 10.6115C14.844 10.3195 15.318 10.3185 15.612 10.6115C15.905 10.9045 15.905 11.3795 15.612 11.6725Z" fill="black"/>
</svg>