<svg width="25" height="24" viewBox="0 0 25 24" fill="none" xmlns="http://www.w3.org/2000/svg">
<path fill-rule="evenodd" clip-rule="evenodd" d="M5.09665 4.88841C4.52468 5.60638 4.22461 6.73388 4.22461 8.34168V15.6546C4.22461 17.1846 4.6735 18.3078 5.41535 19.0482C6.1574 19.7888 7.28389 20.2374 8.81913 20.2374H16.1155C17.6464 20.2374 18.7698 19.7891 19.51 19.0488C20.2502 18.3084 20.6984 17.185 20.6984 15.6546L20.6984 15.6503L20.7246 10.9989C20.7246 10.9982 20.7246 10.9974 20.7246 10.9967C20.7243 9.34966 20.42 8.28723 19.863 7.63506C19.329 7.00979 18.4323 6.61421 16.8694 6.61421H14.2161L14.214 6.61421C13.3062 6.61159 12.4519 6.18456 11.9054 5.45983L11.9047 5.45893L11.0488 4.32027C10.7858 3.96997 10.3739 3.76367 9.93739 3.76367H8.06229C6.53644 3.76367 5.6402 4.20612 5.09665 4.88841ZM3.92343 3.95377C4.83479 2.80978 6.23239 2.26367 8.06229 2.26367H9.93739C10.8473 2.26367 11.7025 2.69295 12.2478 3.41896C12.2479 3.41906 12.2477 3.41886 12.2478 3.41896L13.1031 4.55672C13.1032 4.55691 13.1029 4.55653 13.1031 4.55672C13.3667 4.90593 13.7791 5.11265 14.2173 5.11421H16.8694C18.6701 5.11421 20.0759 5.57458 21.0037 6.66095C21.9082 7.72012 22.2246 9.22438 22.2246 10.9989L22.2246 11.0031L22.1984 15.6546C22.1984 15.6553 22.1984 15.6561 22.1984 15.6568C22.1979 17.4802 21.6575 19.0224 20.5707 20.1093C19.4834 21.1968 17.9404 21.7374 16.1155 21.7374H8.81913C6.99085 21.7374 5.44509 21.1971 4.35575 20.1099C3.26622 19.0225 2.72461 17.4793 2.72461 15.6546V8.34168C2.72461 6.59858 3.0405 5.06208 3.92343 3.95377Z" fill="black"/>
<path fill-rule="evenodd" clip-rule="evenodd" d="M12.4727 9.46289C12.8869 9.46289 13.2227 9.79868 13.2227 10.2129V13.2257C13.2227 13.6399 12.8869 13.9757 12.4727 13.9757C12.0584 13.9757 11.7227 13.6399 11.7227 13.2257V10.2129C11.7227 9.79868 12.0584 9.46289 12.4727 9.46289ZM12.4774 15.2184C12.8916 15.2184 13.2274 15.5542 13.2274 15.9684V16.0364C13.2274 16.4506 12.8916 16.7864 12.4774 16.7864C12.0632 16.7864 11.7274 16.4506 11.7274 16.0364V15.9684C11.7274 15.5542 12.0632 15.2184 12.4774 15.2184Z" fill="black"/>
</svg>