<svg width="25" height="24" viewBox="0 0 25 24" fill="none" xmlns="http://www.w3.org/2000/svg">
<path d="M16.1409 20.9874C19.4967 20.9874 21.4738 19.0094 21.4738 15.6546L21.5 10.9989C21.5 7.57609 20.2584 5.86421 16.8948 5.86421H14.2415C13.5682 5.86227 12.9348 5.54554 12.5296 5.00827L11.6737 3.86961C11.2695 3.33137 10.6361 3.01367 9.96278 3.01367H8.08768C4.73193 3.01367 3.5 4.99079 3.5 8.34168V15.6546C3.5 19.0094 5.481 20.9874 8.84452 20.9874H16.1409Z" stroke="black" stroke-width="1.5" stroke-linecap="round" stroke-linejoin="round"/>
<path opacity="0.4" d="M7.83594 15.6793L9.19709 14.2443C9.43609 13.9927 9.83928 13.9985 10.0705 14.256L11.1965 15.5102C11.4375 15.7784 11.8591 15.7726 12.0923 15.4976L14.4231 12.7452C14.6504 12.4771 15.0594 12.4635 15.3043 12.717L17.1648 14.6456" stroke="black" stroke-width="1.5" stroke-linecap="round" stroke-linejoin="round"/>
<path opacity="0.4" d="M9.12711 10.6249V10.6709M9.31356 10.6348C9.31356 10.7384 9.22953 10.8223 9.12596 10.8223C9.02239 10.8223 8.93848 10.7384 8.93848 10.6348C8.93848 10.5312 9.02239 10.4473 9.12596 10.4473C9.22953 10.4473 9.31356 10.5312 9.31356 10.6348Z" stroke="black" stroke-width="1.5" stroke-linecap="round" stroke-linejoin="round"/>
</svg>