<svg width="24" height="25" viewBox="0 0 24 25" fill="none" xmlns="http://www.w3.org/2000/svg">
<path opacity="0.4" fill-rule="evenodd" clip-rule="evenodd" d="M16.394 5.68884H13.742C13.229 5.68884 12.739 5.44284 12.429 5.02984L11.574 3.88984C11.082 3.23184 10.293 2.83984 9.463 2.83984H7.588C4.164 2.83984 2.5 4.74284 2.5 8.65884V15.9788C2.5 19.6298 4.684 21.8088 8.344 21.8088H15.64C19.293 21.8088 21.473 19.6298 21.473 15.9818L21.5 11.3188C21.5 7.47784 19.878 5.68884 16.394 5.68884Z" fill="black"/>
<path fill-rule="evenodd" clip-rule="evenodd" d="M13.4141 17.7784C14.6011 17.7784 15.5671 16.8094 15.5671 15.6184V14.0384C15.5671 13.2204 15.1071 12.5164 14.4371 12.1494V11.6084C14.4281 10.9524 14.1641 10.3414 13.6921 9.88638C13.2251 9.43438 12.6031 9.18638 11.9701 9.20838C10.6411 9.22238 9.58406 10.2714 9.56406 11.6084V12.1494C8.89506 12.5164 8.43506 13.2204 8.43506 14.0384V15.6184C8.43506 16.8094 9.40106 17.7784 10.5881 17.7784H13.4141ZM13.4138 13.3784H10.5878C10.2278 13.3784 9.93475 13.6744 9.93475 14.0384V15.6184C9.93475 15.9824 10.2278 16.2784 10.5878 16.2784H13.4138C13.7738 16.2784 14.0668 15.9824 14.0668 15.6184V14.0384C14.0668 13.6744 13.7738 13.3784 13.4138 13.3784ZM12.9371 11.6178V11.8778H11.0641V11.6198C11.0721 11.1138 11.4761 10.7138 11.9951 10.7078C12.2401 10.7018 12.4731 10.7938 12.6511 10.9648C12.8321 11.1398 12.9341 11.3758 12.9371 11.6178Z" fill="black"/>
</svg>