<svg width="25" height="24" viewBox="0 0 25 24" fill="none" xmlns="http://www.w3.org/2000/svg">
<path d="M8.90017 17.781C8.59856 19.0945 7.07397 20.4235 5.43555 19.3416C5.43555 19.3416 6.49639 20.2844 8.6511 20.2844H18.0506C19.224 20.2844 20.2387 19.4662 20.4878 18.3191L21.6631 12.5389C22.0124 10.7282 20.8176 9.86914 19.2269 9.86914H12.6275C11.457 9.86914 10.4432 10.6835 10.1922 11.8267L8.90017 17.781Z" stroke="black" stroke-width="1.5" stroke-linecap="round" stroke-linejoin="round"/>
<path opacity="0.4" d="M8.65155 20.2849C5.55081 20.2849 3.72461 18.4626 3.72461 15.3696V8.62817C3.72461 5.5391 4.861 3.7168 7.95396 3.7168H9.68286C10.3036 3.7168 10.8874 4.00965 11.259 4.50585L12.0481 5.55564C12.4217 6.05087 13.0064 6.34275 13.6271 6.34469H15.0865C17.7592 6.34469 18.9783 7.51708 19.2633 9.86185" stroke="black" stroke-width="1.5" stroke-linecap="round" stroke-linejoin="round"/>
</svg>