<svg width="25" height="24" viewBox="0 0 25 24" fill="none" xmlns="http://www.w3.org/2000/svg">
<path d="M16.1409 20.9874C19.4967 20.9874 21.4738 19.0094 21.4738 15.6546L21.5 10.9989C21.5 7.57609 20.2584 5.86421 16.8948 5.86421H14.2415C13.5682 5.86227 12.9348 5.54554 12.5296 5.00827L11.6737 3.86961C11.2695 3.33137 10.6361 3.01367 9.96278 3.01367H8.08768C4.73193 3.01367 3.5 4.99079 3.5 8.34168V15.6546C3.5 19.0094 5.481 20.9874 8.84452 20.9874H16.1409Z" stroke="black" stroke-width="1.5" stroke-linecap="round" stroke-linejoin="round"/>
<path opacity="0.4" d="M10.3008 12.4173L12.4994 10.209M12.4994 10.209L14.699 12.4173M12.4994 10.209L12.5 16.3725" stroke="black" stroke-width="1.5" stroke-linecap="round" stroke-linejoin="round"/>
</svg>