<svg width="24" height="24" viewBox="0 0 24 24" fill="none" xmlns="http://www.w3.org/2000/svg">
<path fill-rule="evenodd" clip-rule="evenodd" d="M14.32 14.4547C14.613 14.7477 14.613 15.2227 14.32 15.5157C14.027 15.8087 13.552 15.8087 13.259 15.5157L12 14.2557L10.741 15.5157C10.594 15.6617 10.403 15.7347 10.211 15.7347C10.019 15.7347 9.827 15.6617 9.68 15.5157C9.387 15.2227 9.387 14.7477 9.68 14.4547L10.94 13.1947L9.679 11.9337C9.386 11.6417 9.386 11.1667 9.679 10.8737C9.972 10.5807 10.447 10.5807 10.74 10.8737L12.001 12.1347L13.26 10.8747C13.553 10.5817 14.028 10.5817 14.321 10.8747C14.614 11.1677 14.614 11.6417 14.321 11.9347L13.061 13.1947L14.32 14.4547ZM16.395 5.36367H13.744C13.23 5.36167 12.738 5.11667 12.43 4.70667L11.574 3.56867C11.078 2.90767 10.289 2.51367 9.463 2.51367H7.588C4.164 2.51367 2.5 4.41967 2.5 8.34167V15.6537C2.5 19.3067 4.685 21.4867 8.345 21.4867H15.641C19.294 21.4867 21.474 19.3067 21.474 15.6567L21.5 10.9987C21.5 7.15367 19.878 5.36367 16.395 5.36367Z" fill="black"/>
</svg>