<svg width="24" height="24" viewBox="0 0 24 24" fill="none" xmlns="http://www.w3.org/2000/svg">
<path fill-rule="evenodd" clip-rule="evenodd" d="M14.729 12.9487C14.436 13.2407 13.961 13.2407 13.668 12.9467L12.75 12.0247V16.3727C12.75 16.7867 12.415 17.1227 12 17.1227C11.586 17.1227 11.25 16.7867 11.25 16.3727V12.0247L10.333 12.9467C10.041 13.2407 9.566 13.2407 9.272 12.9487C8.979 12.6567 8.977 12.1817 9.27 11.8877L11.468 9.6787C11.469 9.6777 11.469 9.6777 11.47 9.6777C11.533 9.6147 11.604 9.5647 11.68 9.5297C11.681 9.5287 11.681 9.5287 11.682 9.5287C11.683 9.5287 11.683 9.5277 11.684 9.5277C11.685 9.5277 11.686 9.5267 11.686 9.5267H11.687L11.688 9.5257L11.692 9.5237L11.695 9.5227C11.696 9.5217 11.697 9.5217 11.698 9.5217C11.699 9.5207 11.699 9.5207 11.7 9.5207C11.701 9.5197 11.701 9.5197 11.702 9.5197C11.703 9.5197 11.703 9.5187 11.704 9.5187C11.705 9.5187 11.706 9.5177 11.706 9.5177C11.707 9.5177 11.708 9.5167 11.708 9.5167C11.792 9.4817 11.884 9.4617 11.981 9.4587H12.018C12.112 9.4617 12.202 9.4797 12.284 9.5137C12.369 9.5487 12.448 9.5997 12.518 9.6667L12.522 9.6707L12.532 9.6797L14.731 11.8877C15.023 12.1817 15.022 12.6567 14.729 12.9487ZM16.395 5.3637H13.744C13.229 5.3617 12.739 5.1167 12.43 4.7067L11.574 3.5677C11.078 2.9077 10.289 2.5127 9.463 2.5127H7.588C4.165 2.5127 2.5 4.4197 2.5 8.3417V15.6537C2.5 19.3057 4.685 21.4867 8.345 21.4867H15.641C19.293 21.4867 21.474 19.3057 21.474 15.6567L21.5 10.9987C21.5 7.1537 19.878 5.3637 16.395 5.3637Z" fill="black"/>
</svg>