<svg width="25" height="25" viewBox="0 0 25 25" fill="none" xmlns="http://www.w3.org/2000/svg">
<path d="M12.243 21.3119H15.891C19.247 21.3119 21.224 19.3339 21.224 15.9789L21.25 11.3239C21.25 7.90091 20.009 6.18787 16.645 6.18787H13.992C13.319 6.18687 12.685 5.86991 12.28 5.33191L11.424 4.19391C11.02 3.65491 10.386 3.33789 9.71298 3.33789H7.83798C4.48198 3.33789 3.25 5.31492 3.25 8.66492V15.9789C3.25 19.3339 5.23097 21.3119 8.59497 21.3119H9.12424" stroke="black" stroke-width="1.5" stroke-linecap="round" stroke-linejoin="round"/>
<path fill-rule="evenodd" clip-rule="evenodd" d="M13.6635 17.0268H10.8375C10.0635 17.0268 9.43555 16.3988 9.43555 15.6238V14.0378C9.43555 13.2628 10.0635 12.6348 10.8375 12.6348H13.6635C14.4375 12.6348 15.0665 13.2628 15.0665 14.0378V15.6238C15.0665 16.3988 14.4375 17.0268 13.6635 17.0268Z" stroke="black" stroke-width="1.5" stroke-linecap="round" stroke-linejoin="round"/>
<path d="M13.9374 12.6652V11.6212C13.9254 10.6902 13.1614 9.9442 12.2294 9.9552C11.3174 9.9672 10.5785 10.7012 10.5645 11.6142V12.6652" stroke="black" stroke-width="1.5" stroke-linecap="round" stroke-linejoin="round"/>
</svg>