<svg width="24" height="24" viewBox="0 0 24 24" fill="none" xmlns="http://www.w3.org/2000/svg">
<path fill-rule="evenodd" clip-rule="evenodd" d="M14.73 14.6937L12.532 16.8997L12.528 16.9037C12.454 16.9767 12.369 17.0327 12.278 17.0687C12.198 17.1007 12.111 17.1197 12.019 17.1227H11.98C11.884 17.1197 11.793 17.0997 11.709 17.0647C11.644 17.0387 11.583 17.0007 11.526 16.9557L11.52 16.9497C11.518 16.9497 11.518 16.9487 11.518 16.9487L11.516 16.9467C11.501 16.9347 11.487 16.9217 11.473 16.9077L11.469 16.9037L11.468 16.9027C11.467 16.9007 11.466 16.9007 11.466 16.9007L11.465 16.8997L9.269 14.6937C8.976 14.3997 8.978 13.9247 9.271 13.6327C9.565 13.3407 10.04 13.3407 10.332 13.6347L11.249 14.5557L11.25 10.2087C11.25 9.7947 11.585 9.4587 12 9.4587C12.414 9.4587 12.75 9.7947 12.75 10.2087L12.749 14.5567L13.668 13.6347C13.959 13.3407 14.434 13.3407 14.728 13.6327C15.022 13.9247 15.022 14.4007 14.73 14.6937ZM16.394 5.3637H13.743C13.228 5.3617 12.738 5.1167 12.429 4.7067L11.573 3.5677C11.077 2.9077 10.288 2.5127 9.462 2.5127H7.587C4.164 2.5127 2.5 4.4197 2.5 8.3407V15.6537C2.5 19.3057 4.684 21.4867 8.344 21.4867H15.64C19.292 21.4867 21.473 19.3057 21.473 15.6567L21.5 10.9987C21.5 7.1537 19.877 5.3637 16.394 5.3637Z" fill="black"/>
</svg>