<svg width="25" height="24" viewBox="0 0 25 24" fill="none" xmlns="http://www.w3.org/2000/svg">
<path fill-rule="evenodd" clip-rule="evenodd" d="M4.87204 4.88841C4.30008 5.60638 4 6.73388 4 8.34168V15.6546C4 17.1846 4.44889 18.3078 5.19074 19.0482C5.93279 19.7888 7.05928 20.2374 8.59452 20.2374H15.8909C17.4218 20.2374 18.5452 19.7891 19.2854 19.0488C20.0256 18.3084 20.4738 17.185 20.4738 15.6546L20.4738 15.6503L20.5 10.9989C20.5 10.9982 20.5 10.9974 20.5 10.9967C20.4997 9.34966 20.1954 8.28723 19.6384 7.63506C19.1044 7.00979 18.2077 6.61421 16.6448 6.61421H13.9915L13.9893 6.61421C13.0816 6.61159 12.2273 6.18456 11.6808 5.45983L11.6801 5.45893L10.8242 4.32027C10.5611 3.96997 10.1493 3.76367 9.71278 3.76367H7.83768C6.31183 3.76367 5.41559 4.20612 4.87204 4.88841ZM3.69883 3.95377C4.61018 2.80978 6.00778 2.26367 7.83768 2.26367H9.71278C10.6227 2.26367 11.4779 2.69295 12.0232 3.41896C12.0233 3.41906 12.0231 3.41886 12.0232 3.41896L12.8785 4.55672C12.8786 4.55691 12.8783 4.55653 12.8785 4.55672C13.1421 4.90593 13.5545 5.11265 13.9927 5.11421H16.6448C18.4455 5.11421 19.8513 5.57458 20.7791 6.66095C21.6836 7.72012 22 9.22438 22 10.9989L22 11.0031L21.9738 15.6546C21.9738 15.6553 21.9738 15.6561 21.9738 15.6568C21.9733 17.4802 21.4329 19.0224 20.3461 20.1093C19.2588 21.1968 17.7158 21.7374 15.8909 21.7374H8.59452C6.76624 21.7374 5.22048 21.1971 4.13114 20.1099C3.04161 19.0225 2.5 17.4793 2.5 15.6546V8.34168C2.5 6.59858 2.81589 5.06208 3.69883 3.95377Z" fill="black"/>
<path fill-rule="evenodd" clip-rule="evenodd" d="M12.2516 10.1484C12.6658 10.1484 13.0016 10.4842 13.0016 10.8984V12.4454H14.5476C14.9618 12.4454 15.2976 12.7812 15.2976 13.1954C15.2976 13.6097 14.9618 13.9454 14.5476 13.9454H13.0016V15.4929C13.0016 15.9071 12.6658 16.2429 12.2516 16.2429C11.8373 16.2429 11.5016 15.9071 11.5016 15.4929V13.9454H9.95312C9.53891 13.9454 9.20312 13.6097 9.20312 13.1954C9.20312 12.7812 9.53891 12.4454 9.95312 12.4454H11.5016V10.8984C11.5016 10.4842 11.8373 10.1484 12.2516 10.1484Z" fill="black"/>
</svg>