<svg width="24" height="24" viewBox="0 0 24 24" fill="none" xmlns="http://www.w3.org/2000/svg">
<path opacity="0.4" fill-rule="evenodd" clip-rule="evenodd" d="M16.395 5.3637H13.743C13.229 5.3617 12.738 5.1167 12.43 4.7067L11.574 3.5677C11.077 2.9077 10.288 2.5127 9.463 2.5127H7.588C4.164 2.5127 2.5 4.4197 2.5 8.3417V15.6537C2.5 19.3057 4.685 21.4867 8.345 21.4867H15.641C19.293 21.4867 21.474 19.3057 21.474 15.6567L21.5 10.9987C21.5 7.1537 19.878 5.3637 16.395 5.3637Z" fill="black"/>
<path fill-rule="evenodd" clip-rule="evenodd" d="M14.32 14.4546C14.613 14.7476 14.613 15.2226 14.32 15.5156C14.027 15.8086 13.552 15.8086 13.259 15.5156L12 14.2556L10.741 15.5156C10.594 15.6616 10.403 15.7346 10.211 15.7346C10.019 15.7346 9.82698 15.6616 9.67998 15.5156C9.38698 15.2226 9.38698 14.7476 9.67998 14.4546L10.94 13.1946L9.67898 11.9336C9.38598 11.6416 9.38598 11.1666 9.67898 10.8736C9.97198 10.5806 10.447 10.5806 10.74 10.8736L12.001 12.1346L13.26 10.8746C13.553 10.5816 14.028 10.5816 14.321 10.8746C14.614 11.1676 14.614 11.6416 14.321 11.9346L13.061 13.1946L14.32 14.4546Z" fill="black"/>
</svg>