<svg width="25" height="25" viewBox="0 0 25 25" fill="none" xmlns="http://www.w3.org/2000/svg">
<path fill-rule="evenodd" clip-rule="evenodd" d="M3.69893 4.23676C4.61034 3.09294 6.00799 2.54688 7.83798 2.54688H9.71298C10.6219 2.54688 11.478 2.97491 12.0237 3.70249C12.0235 3.70229 12.0238 3.70268 12.0237 3.70249L12.8792 4.83983C12.8791 4.83975 12.8793 4.8399 12.8792 4.83983C13.1427 5.18978 13.5553 5.39606 13.9927 5.39685H16.645C18.446 5.39685 19.8518 5.85758 20.7794 6.94434C21.6838 8.00382 22 9.50836 22 11.2829L22 11.2871L21.974 15.9379C21.974 15.9386 21.974 15.9393 21.974 15.9401C21.9736 17.7635 21.4332 19.3058 20.3464 20.3928C19.259 21.4802 17.716 22.0209 15.891 22.0209H8.59497C6.76648 22.0209 5.2206 21.4806 4.1312 20.3934C3.04159 19.306 2.5 17.7627 2.5 15.9379V8.6239C2.5 6.88121 2.81592 5.34494 3.69893 4.23676ZM4.87205 5.17152C4.30007 5.88935 4 7.01659 4 8.6239V15.9379C4 17.468 4.44889 18.5913 5.19077 19.3316C5.93285 20.0722 7.05946 20.5209 8.59497 20.5209H15.891C17.422 20.5209 18.5454 20.0725 19.2856 19.3322C20.0258 18.5919 20.474 17.4684 20.474 15.9379L20.474 15.9337L20.5 11.2829C20.5 11.2822 20.5 11.2815 20.5 11.2808C20.4997 9.63353 20.1955 8.57067 19.6385 7.91816C19.1046 7.29265 18.208 6.89685 16.645 6.89685L13.9909 6.89685C13.0825 6.8955 12.2272 6.46776 11.6808 5.74196L10.8238 4.60272C10.5615 4.25264 10.1498 4.04688 9.71298 4.04688H7.83798C6.31197 4.04688 5.41564 4.48932 4.87205 5.17152Z" fill="black"/>
<path fill-rule="evenodd" clip-rule="evenodd" d="M10.8375 13.3438C10.4781 13.3438 10.1855 13.6356 10.1855 13.9968V15.5828C10.1855 15.9439 10.4781 16.2358 10.8375 16.2358H13.6635C14.0237 16.2358 14.3165 15.9432 14.3165 15.5828V13.9968C14.3165 13.6363 14.0237 13.3438 13.6635 13.3438H10.8375ZM8.68555 13.9968C8.68555 12.8079 9.64894 11.8438 10.8375 11.8438H13.6635C14.8514 11.8438 15.8165 12.8072 15.8165 13.9968V15.5828C15.8165 16.7723 14.8514 17.7358 13.6635 17.7358H10.8375C9.64894 17.7358 8.68555 16.7716 8.68555 15.5828V13.9968Z" fill="black"/>
<path fill-rule="evenodd" clip-rule="evenodd" d="M12.2206 9.16424C13.5665 9.14835 14.67 10.2257 14.6874 11.5705L14.6875 11.5801L14.6874 12.6241C14.6874 13.0384 14.3517 13.3741 13.9374 13.3741C13.5232 13.3741 13.1874 13.0384 13.1874 12.6241V11.5857C13.1786 11.0706 12.7553 10.6583 12.2388 10.6641C11.7329 10.6711 11.3248 11.0767 11.3145 11.5798V12.6241C11.3145 13.0384 10.9787 13.3741 10.5645 13.3741C10.1502 13.3741 9.81445 13.0384 9.81445 12.6241V11.5617C9.8347 10.2412 10.9034 9.18157 12.2196 9.16425L12.2206 9.16424Z" fill="black"/>
</svg>