<svg width="24" height="24" viewBox="0 0 24 24" fill="none" xmlns="http://www.w3.org/2000/svg">
<path fill-rule="evenodd" clip-rule="evenodd" d="M14.298 13.9447H9.703C9.289 13.9447 8.953 13.6087 8.953 13.1947C8.953 12.7807 9.289 12.4447 9.703 12.4447H14.298C14.712 12.4447 15.048 12.7807 15.048 13.1947C15.048 13.6087 14.712 13.9447 14.298 13.9447ZM16.395 5.3637H13.744C13.23 5.3617 12.738 5.1167 12.43 4.7067L11.574 3.5687C11.078 2.9077 10.289 2.5127 9.463 2.5127H7.588C4.164 2.5127 2.5 4.4197 2.5 8.3407V15.6537C2.5 19.3057 4.685 21.4867 8.345 21.4867H15.641C19.294 21.4867 21.474 19.3057 21.474 15.6567L21.5 10.9987C21.5 7.1537 19.878 5.3637 16.395 5.3637Z" fill="black"/>
</svg>