<svg width="25" height="24" viewBox="0 0 25 24" fill="none" xmlns="http://www.w3.org/2000/svg">
<path fill-rule="evenodd" clip-rule="evenodd" d="M4.87204 4.88841C4.30008 5.60638 4 6.73388 4 8.34168V15.6546C4 17.1846 4.44889 18.3078 5.19074 19.0482C5.93279 19.7888 7.05928 20.2374 8.59452 20.2374H15.8909C17.4218 20.2374 18.5452 19.7891 19.2854 19.0488C20.0256 18.3084 20.4738 17.185 20.4738 15.6546L20.4738 15.6503L20.5 10.9989C20.5 10.9982 20.5 10.9974 20.5 10.9967C20.4997 9.34966 20.1954 8.28723 19.6384 7.63506C19.1044 7.00979 18.2077 6.61421 16.6448 6.61421H13.9915L13.9893 6.61421C13.0816 6.61159 12.2273 6.18456 11.6808 5.45983L11.6801 5.45893L10.8242 4.32027C10.5611 3.96997 10.1493 3.76367 9.71278 3.76367H7.83768C6.31183 3.76367 5.41559 4.20612 4.87204 4.88841ZM3.69883 3.95377C4.61018 2.80978 6.00778 2.26367 7.83768 2.26367H9.71278C10.6227 2.26367 11.4779 2.69295 12.0232 3.41896C12.0233 3.41906 12.0231 3.41886 12.0232 3.41896L12.8785 4.55672C12.8786 4.55691 12.8783 4.55653 12.8785 4.55672C13.1421 4.90593 13.5545 5.11265 13.9927 5.11421H16.6448C18.4455 5.11421 19.8513 5.57458 20.7791 6.66095C21.6836 7.72012 22 9.22438 22 10.9989L22 11.0031L21.9738 15.6546C21.9738 15.6553 21.9738 15.6561 21.9738 15.6568C21.9733 17.4802 21.4329 19.0224 20.3461 20.1093C19.2588 21.1968 17.7158 21.7374 15.8909 21.7374H8.59452C6.76624 21.7374 5.22048 21.1971 4.13114 20.1099C3.04161 19.0225 2.5 17.4793 2.5 15.6546V8.34168C2.5 6.59858 2.81589 5.06208 3.69883 3.95377Z" fill="black"/>
<path fill-rule="evenodd" clip-rule="evenodd" d="M15.5977 5.11719C16.0119 5.11719 16.3477 5.45297 16.3477 5.86719V7.39253C16.3477 7.80674 16.0119 8.14253 15.5977 8.14253C15.1834 8.14253 14.8477 7.80674 14.8477 7.39253V5.86719C14.8477 5.45297 15.1834 5.11719 15.5977 5.11719ZM15.5977 9.64763C16.0119 9.64763 16.3477 9.98342 16.3477 10.3976V11.9239C16.3477 12.3382 16.0119 12.6739 15.5977 12.6739C15.1834 12.6739 14.8477 12.3382 14.8477 11.9239V10.3976C14.8477 9.98342 15.1834 9.64763 15.5977 9.64763ZM15.5977 14.18C16.0119 14.18 16.3477 14.5158 16.3477 14.93V16.4553C16.3477 16.8695 16.0119 17.2053 15.5977 17.2053C15.1834 17.2053 14.8477 16.8695 14.8477 16.4553V14.93C14.8477 14.5158 15.1834 14.18 15.5977 14.18ZM15.5977 18.7114C16.0119 18.7114 16.3477 19.0472 16.3477 19.4614V20.9867C16.3477 21.4009 16.0119 21.7367 15.5977 21.7367C15.1834 21.7367 14.8477 21.4009 14.8477 20.9867V19.4614C14.8477 19.0472 15.1834 18.7114 15.5977 18.7114Z" fill="black"/>
</svg>