<svg width="25" height="24" viewBox="0 0 25 24" fill="none" xmlns="http://www.w3.org/2000/svg">
<path d="M7.44458 15.4756H17.0376C17.4516 15.4756 17.7876 15.1396 17.7876 14.7256C17.7876 14.3116 17.4516 13.9756 17.0376 13.9756H7.44458C7.03058 13.9756 6.69458 14.3116 6.69458 14.7256C6.69458 15.1396 7.03058 15.4756 7.44458 15.4756Z" fill="black"/>
<path fill-rule="evenodd" clip-rule="evenodd" d="M1.88989 14.0154C1.88989 21.5054 6.37989 22.1004 12.2499 22.1004C18.1199 22.1004 22.6099 21.5054 22.6099 13.9884C22.6099 12.1664 22.6099 9.11839 20.7249 7.08439C19.5519 5.81839 18.0299 5.84739 16.8079 5.87139C16.0709 5.88739 15.3729 5.89939 14.9099 5.63639C14.3279 5.30539 14.1299 4.93639 13.8799 4.46939C13.5929 3.93139 13.2339 3.26239 12.2879 2.75239C10.6089 1.84639 8.64489 1.66839 6.11089 2.18939C3.54689 2.71539 1.88989 4.97639 1.88989 7.94939V14.0154ZM6.41289 3.65839C7.24589 3.48739 8.00089 3.40139 8.69189 3.40139C9.79989 3.40139 10.7429 3.62339 11.5759 4.07239C12.1253 4.36907 12.3065 4.70765 12.5571 5.17586L12.5584 5.17839C12.8493 5.72022 13.2115 6.39472 14.1689 6.94039C14.9822 7.40205 15.9094 7.38672 16.8114 7.37181L16.8369 7.37139C17.9479 7.34839 18.9089 7.33239 19.6249 8.10339C21.1099 9.70639 21.1099 12.2824 21.1099 14.0154C21.1099 19.9514 18.2729 20.6004 12.2499 20.6004C6.08889 20.6004 3.38989 19.9774 3.38989 14.0154V7.94939C3.38989 6.17539 4.18389 4.11539 6.41289 3.65839Z" fill="black"/>
</svg>