<svg width="25" height="24" viewBox="0 0 25 24" fill="none" xmlns="http://www.w3.org/2000/svg">
<path fill-rule="evenodd" clip-rule="evenodd" d="M17.0389 15.4756H7.44589C7.03189 15.4756 6.69589 15.1396 6.69589 14.7256C6.69589 14.3116 7.03189 13.9756 7.44589 13.9756H17.0389C17.4529 13.9756 17.7889 14.3116 17.7889 14.7256C17.7889 15.1396 17.4529 15.4756 17.0389 15.4756ZM20.5419 7.25359C19.4449 6.07159 18.0459 6.09959 16.8129 6.12159C16.0399 6.13559 15.3089 6.15059 14.7869 5.85259C14.1419 5.48559 13.9189 5.06959 13.6599 4.58659C13.3739 4.05259 13.0499 3.44759 12.1689 2.97159C10.5429 2.09559 8.63389 1.92459 6.16189 2.43459C3.71889 2.93459 2.13989 5.09959 2.13989 7.94959V14.0156C2.13989 21.2876 6.33089 21.8506 12.2499 21.8506C17.9779 21.8506 22.3599 21.2736 22.3599 13.9886C22.3599 12.2036 22.3599 9.21559 20.5419 7.25359Z" fill="black"/>
</svg>