<svg width="25" height="24" viewBox="0 0 25 24" fill="none" xmlns="http://www.w3.org/2000/svg">
<path opacity="0.4" fill-rule="evenodd" clip-rule="evenodd" d="M16.6196 5.3637H13.9676C13.4536 5.3617 12.9626 5.1167 12.6546 4.7067L11.7986 3.5677C11.3016 2.9077 10.5126 2.5127 9.68761 2.5127H7.81261C4.38861 2.5127 2.72461 4.4197 2.72461 8.3417V15.6537C2.72461 19.3057 4.90961 21.4867 8.56961 21.4867H15.8656C19.5176 21.4867 21.6986 19.3057 21.6986 15.6567L21.7246 10.9987C21.7246 7.1537 20.1026 5.3637 16.6196 5.3637Z" fill="black"/>
<path fill-rule="evenodd" clip-rule="evenodd" d="M15.8367 15.0023L14.1487 16.6983C14.0047 16.8423 13.8127 16.9193 13.6167 16.9193C13.5207 16.9193 13.4237 16.9003 13.3307 16.8623C13.0507 16.7463 12.8667 16.4733 12.8667 16.1693V10.5303C12.8667 10.1163 13.2027 9.78027 13.6167 9.78027C14.0307 9.78027 14.3667 10.1163 14.3667 10.5303V14.3533L14.7747 13.9433C15.0657 13.6493 15.5407 13.6493 15.8347 13.9413C16.1277 14.2333 16.1297 14.7083 15.8367 15.0023ZM11.5827 16.1683C11.5827 16.5823 11.2467 16.9183 10.8327 16.9183C10.4187 16.9183 10.0827 16.5823 10.0827 16.1683V12.3493L9.67665 12.7573C9.38465 13.0513 8.90965 13.0533 8.61565 12.7613C8.32265 12.4693 8.32065 11.9933 8.61265 11.7003L10.3007 10.0023C10.5147 9.78627 10.8367 9.72127 11.1187 9.83727C11.3997 9.95327 11.5827 10.2273 11.5827 10.5303V16.1683Z" fill="black"/>
</svg>