<svg width="25" height="24" viewBox="0 0 25 24" fill="none" xmlns="http://www.w3.org/2000/svg">
<path fill-rule="evenodd" clip-rule="evenodd" d="M4.87204 4.88841C4.30008 5.60638 4 6.73388 4 8.34168V15.6546C4 17.1846 4.44889 18.3078 5.19074 19.0482C5.93279 19.7888 7.05928 20.2374 8.59452 20.2374H15.8909C17.4218 20.2374 18.5452 19.7891 19.2854 19.0488C20.0256 18.3084 20.4738 17.185 20.4738 15.6546L20.4738 15.6503L20.5 10.9989C20.5 10.9982 20.5 10.9974 20.5 10.9967C20.4997 9.34966 20.1954 8.28723 19.6384 7.63506C19.1044 7.00979 18.2077 6.61421 16.6448 6.61421H13.9915L13.9893 6.61421C13.0816 6.61159 12.2273 6.18456 11.6808 5.45983L11.6801 5.45893L10.8242 4.32027C10.5611 3.96997 10.1493 3.76367 9.71278 3.76367H7.83768C6.31183 3.76367 5.41559 4.20612 4.87204 4.88841ZM3.69883 3.95377C4.61018 2.80978 6.00778 2.26367 7.83768 2.26367H9.71278C10.6227 2.26367 11.4779 2.69295 12.0232 3.41896C12.0233 3.41906 12.0231 3.41886 12.0232 3.41896L12.8785 4.55672C12.8786 4.55691 12.8783 4.55653 12.8785 4.55672C13.1421 4.90593 13.5545 5.11265 13.9927 5.11421H16.6448C18.4455 5.11421 19.8513 5.57458 20.7791 6.66095C21.6836 7.72012 22 9.22438 22 10.9989L22 11.0031L21.9738 15.6546C21.9738 15.6553 21.9738 15.6561 21.9738 15.6568C21.9733 17.4802 21.4329 19.0224 20.3461 20.1093C19.2588 21.1968 17.7158 21.7374 15.8909 21.7374H8.59452C6.76624 21.7374 5.22048 21.1971 4.13114 20.1099C3.04161 19.0225 2.5 17.4793 2.5 15.6546V8.34168C2.5 6.59858 2.81589 5.06208 3.69883 3.95377Z" fill="black"/>
<path fill-rule="evenodd" clip-rule="evenodd" d="M9.52162 13.6326C9.81516 13.3403 10.29 13.3414 10.5823 13.6349L12.2495 15.3095L13.9176 13.6348C14.2099 13.3413 14.6848 13.3404 14.9783 13.6327C15.2718 13.925 15.2727 14.3999 14.9804 14.6933L12.7808 16.9017C12.64 17.043 12.4488 17.1224 12.2493 17.1224C12.0499 17.1224 11.8586 17.0429 11.7179 16.9016L9.51928 14.6932C9.22704 14.3997 9.22808 13.9248 9.52162 13.6326Z" fill="black"/>
<path fill-rule="evenodd" clip-rule="evenodd" d="M12.25 9.45898C12.6642 9.45898 13 9.79477 13 10.209V16.3725C13 16.7867 12.6642 17.1225 12.25 17.1225C11.8358 17.1225 11.5 16.7867 11.5 16.3725V10.209C11.5 9.79477 11.8358 9.45898 12.25 9.45898Z" fill="black"/>
</svg>