<svg width="25" height="24" viewBox="0 0 25 24" fill="none" xmlns="http://www.w3.org/2000/svg">
<path d="M8.40017 17.781C8.09856 19.0945 6.57397 20.4235 4.93555 19.3416C4.93555 19.3416 5.99639 20.2844 8.1511 20.2844H17.5506C18.724 20.2844 19.7387 19.4662 19.9878 18.3191L21.1631 12.5389C21.5124 10.7282 20.3176 9.86914 18.7269 9.86914H12.1275C10.957 9.86914 9.94324 10.6835 9.69222 11.8267L8.40017 17.781Z" stroke="black" stroke-width="1.5" stroke-linecap="round" stroke-linejoin="round"/>
<path d="M8.15155 20.2849C5.05081 20.2849 3.22461 18.4626 3.22461 15.3696V8.62817C3.22461 5.5391 4.361 3.7168 7.45396 3.7168H9.18286C9.80359 3.7168 10.3874 4.00965 10.759 4.50585L11.5481 5.55564C11.9217 6.05087 12.5064 6.34275 13.1271 6.34469H14.5865C17.2592 6.34469 18.4783 7.51708 18.7633 9.86185" stroke="black" stroke-width="1.5" stroke-linecap="round" stroke-linejoin="round"/>
</svg>