<svg width="25" height="24" viewBox="0 0 25 24" fill="none" xmlns="http://www.w3.org/2000/svg">
<path fill-rule="evenodd" clip-rule="evenodd" d="M21.4296 2.99484C21.1296 2.70484 20.6596 2.70484 20.3696 2.99484L3.01962 20.3448C2.72962 20.6348 2.72962 21.1048 3.01962 21.4048C3.16962 21.5448 3.35962 21.6248 3.54962 21.6248C3.73962 21.6248 3.93962 21.5448 4.07962 21.4048L5.70962 19.7748C6.51962 20.2048 7.49962 20.4348 8.62962 20.4348H15.5496C19.0396 20.4348 21.1196 18.3548 21.1196 14.8748L21.1396 10.4448C21.1396 8.26484 20.6096 6.82484 19.4996 5.98484L21.4296 4.05484C21.7196 3.76484 21.7196 3.29484 21.4296 2.99484Z" fill="black"/>
<path opacity="0.4" fill-rule="evenodd" clip-rule="evenodd" d="M3.34968 16.674C3.41968 16.694 3.47968 16.714 3.54968 16.714C3.67968 16.714 3.79968 16.664 3.88968 16.584L14.6547 5.945C14.8047 5.805 14.8547 5.585 14.7747 5.395C14.7047 5.205 14.5147 5.075 14.3147 5.075H13.7597C13.2597 5.075 12.8097 4.845 12.5197 4.455L11.7197 3.385C11.2497 2.745 10.4897 2.375 9.68968 2.375H7.90968C4.63968 2.375 3.04968 4.185 3.04968 7.925V16.214C3.04968 16.414 3.16968 16.594 3.34968 16.674Z" fill="black"/>
</svg>