<svg width="24" height="25" viewBox="0 0 24 25" fill="none" xmlns="http://www.w3.org/2000/svg">
<path d="M15.641 21.2709C18.997 21.2709 20.974 19.2929 20.974 15.9379L21 11.2829C21 7.8599 19.759 6.14685 16.395 6.14685H13.742C13.069 6.14585 12.435 5.82889 12.03 5.29089L11.174 4.15289C10.77 3.61389 10.136 3.29688 9.46298 3.29688H7.58798C4.23198 3.29688 3 5.2739 3 8.6239V15.9379C3 19.2929 4.98097 21.2709 8.34497 21.2709H15.641Z" stroke="black" stroke-width="1.5" stroke-linecap="round" stroke-linejoin="round"/>
<path fill-rule="evenodd" clip-rule="evenodd" d="M13.4135 16.9858H10.5875C9.81352 16.9858 9.18555 16.3578 9.18555 15.5828V13.9968C9.18555 13.2218 9.81352 12.5938 10.5875 12.5938H13.4135C14.1875 12.5938 14.8165 13.2218 14.8165 13.9968V15.5828C14.8165 16.3578 14.1875 16.9858 13.4135 16.9858Z" stroke="black" stroke-width="1.5" stroke-linecap="round" stroke-linejoin="round"/>
<path d="M13.6874 12.6241V11.5801C13.6754 10.6491 12.9114 9.90318 11.9794 9.91418C11.0674 9.92618 10.3285 10.6602 10.3145 11.5732V12.6241" stroke="black" stroke-width="1.5" stroke-linecap="round" stroke-linejoin="round"/>
</svg>