<svg width="24" height="24" viewBox="0 0 24 24" fill="none" xmlns="http://www.w3.org/2000/svg">
<path fill-rule="evenodd" clip-rule="evenodd" d="M14.297 13.9457H12.751V15.4927C12.751 15.9067 12.415 16.2427 12.001 16.2427C11.587 16.2427 11.251 15.9067 11.251 15.4927V13.9457H9.702C9.288 13.9457 8.952 13.6097 8.952 13.1957C8.952 12.7817 9.288 12.4457 9.702 12.4457H11.251V10.8977C11.251 10.4837 11.587 10.1477 12.001 10.1477C12.415 10.1477 12.751 10.4837 12.751 10.8977V12.4457H14.297C14.711 12.4457 15.047 12.7817 15.047 13.1957C15.047 13.6097 14.711 13.9457 14.297 13.9457ZM16.395 5.3637H13.743C13.229 5.3617 12.737 5.1167 12.429 4.7067L11.573 3.5687C11.077 2.9077 10.288 2.5127 9.463 2.5127H7.588C4.164 2.5127 2.5 4.4197 2.5 8.3417V15.6537C2.5 19.3057 4.685 21.4867 8.345 21.4867H15.641C19.293 21.4867 21.473 19.3057 21.474 15.6547L21.5 10.9987C21.5 7.1537 19.878 5.3637 16.395 5.3637Z" fill="black"/>
</svg>