<svg width="24" height="24" viewBox="0 0 24 24" fill="none" xmlns="http://www.w3.org/2000/svg">
<g opacity="0.4">
<path fill-rule="evenodd" clip-rule="evenodd" d="M4.87466 12.9607C4.94611 12.9607 5.01213 12.9226 5.04786 12.8607L6.15712 10.9397C6.85312 9.73167 7.80512 8.93667 8.91112 8.63967C10.0171 8.34167 11.2381 8.55167 12.4441 9.24867L17.0141 11.8877C17.5793 12.2135 18.0354 12.5493 18.4105 12.9044C18.4484 12.9402 18.4983 12.9607 18.5504 12.9607H21.2902C21.4003 12.9607 21.4896 12.8718 21.4902 12.7618L21.5001 10.9977C21.5001 7.15367 19.8781 5.36367 16.3941 5.36367H13.7431C13.2291 5.36167 12.7381 5.11667 12.4291 4.70767L11.5731 3.56767C11.0771 2.90767 10.2881 2.51367 9.46312 2.51367H7.58812C4.16412 2.51367 2.50012 4.41967 2.50012 8.34167V12.7607C2.50012 12.8711 2.58967 12.9607 2.70012 12.9607H4.87466Z" fill="black"/>
<path fill-rule="evenodd" clip-rule="evenodd" d="M2.69988 14.4604C2.58942 14.4604 2.49988 14.55 2.49988 14.6604V15.6534C2.49988 19.3064 4.68488 21.4865 8.34488 21.4865H15.6409C19.2929 21.4865 21.4739 19.3064 21.4739 15.6564L21.4789 14.6615C21.4794 14.5506 21.3897 14.4604 21.2789 14.4604H2.69988Z" fill="black"/>
</g>
<path fill-rule="evenodd" clip-rule="evenodd" d="M9.30052 10.0874C8.57652 10.2814 7.95652 10.8204 7.45552 11.6894L6.89478 12.6604C6.81778 12.7937 6.914 12.9604 7.06797 12.9604H15.5003C15.6027 12.9604 15.639 12.825 15.5504 12.7738L11.6945 10.5474C10.8285 10.0474 10.0225 9.8914 9.30052 10.0874Z" fill="black"/>
</svg>