<svg width="25" height="24" viewBox="0 0 25 24" fill="none" xmlns="http://www.w3.org/2000/svg">
<path d="M16.3655 20.9874C19.7213 20.9874 21.6984 19.0094 21.6984 15.6546L21.7246 10.9989C21.7246 7.57609 20.483 5.86421 17.1194 5.86421H14.4661C13.7928 5.86227 13.1594 5.54554 12.7542 5.00827L11.8983 3.86961C11.4941 3.33137 10.8607 3.01367 10.1874 3.01367H8.31229C4.95654 3.01367 3.72461 4.99079 3.72461 8.34168V15.6546C3.72461 19.0094 5.70561 20.9874 9.06913 20.9874H16.3655Z" stroke="black" stroke-width="1.5" stroke-linecap="round" stroke-linejoin="round"/>
<path opacity="0.4" d="M13.8737 14.6803C12.8953 15.6587 11.3078 15.6587 10.3295 14.6803C9.35111 13.702 9.35111 12.1145 10.3295 11.1361C11.3078 10.1578 12.8953 10.1578 13.8737 11.1361C14.8521 12.1145 14.8521 13.702 13.8737 14.6803ZM13.8737 14.6803L15.232 16.0377" stroke="black" stroke-width="1.5" stroke-linecap="round" stroke-linejoin="round"/>
</svg>