<svg width="24" height="25" viewBox="0 0 24 25" fill="none" xmlns="http://www.w3.org/2000/svg">
<path opacity="0.4" fill-rule="evenodd" clip-rule="evenodd" d="M20.7046 10.3866L20.0056 9.6866C19.6866 9.3656 19.5106 8.9406 19.5106 8.4896V7.4896C19.5106 6.0006 18.2996 4.7886 16.8106 4.7886H15.8086C15.3636 4.7886 14.9266 4.6096 14.6136 4.2976L13.9026 3.5876C12.8446 2.5376 11.1316 2.5436 10.0846 3.5986L9.38662 4.2956C9.07162 4.6096 8.63462 4.7886 8.19062 4.7896H7.18962C5.71762 4.7906 4.51662 5.9766 4.49062 7.4406C4.48962 7.4566 4.48862 7.4736 4.48862 7.4906V8.4866C4.48862 8.9386 4.31262 9.3636 3.99362 9.6846L3.28062 10.3986C2.23462 11.4566 2.24362 13.1676 3.29762 14.2116L3.99662 14.9126C4.31462 15.2316 4.49062 15.6566 4.49062 16.1066V17.1126C4.49062 18.6016 5.70162 19.8116 7.18962 19.8116H8.18662C8.64062 19.8126 9.06562 19.9886 9.38362 20.3056L10.0956 21.0176C10.6046 21.5216 11.2796 21.7986 11.9956 21.7986H12.0066C12.7286 21.7956 13.4056 21.5126 13.9096 21.0016L14.6116 20.3036C14.9306 19.9846 15.3546 19.8096 15.8066 19.8096H16.8126C18.2986 19.8096 19.5096 18.6006 19.5116 17.1126V16.1086C19.5116 15.6586 19.6876 15.2336 20.0056 14.9146L20.7166 14.2036C21.7646 13.1456 21.7576 11.4336 20.7046 10.3866Z" fill="black"/>
<path fill-rule="evenodd" clip-rule="evenodd" d="M14.7356 15.4554C14.3576 15.6204 13.9156 15.4484 13.7486 15.0684L13.3046 14.0524H10.6946L10.2506 15.0684C10.1276 15.3504 9.85157 15.5174 9.56257 15.5174C9.46257 15.5174 9.36057 15.4974 9.26157 15.4554C8.88257 15.2894 8.70957 14.8474 8.87557 14.4674L11.3126 8.89043C11.4326 8.61743 11.7026 8.44043 12.0006 8.44043C12.2976 8.44043 12.5686 8.61743 12.6876 8.89043L15.1236 14.4674C15.2896 14.8474 15.1156 15.2894 14.7356 15.4554ZM12.6499 12.5523H11.3499L11.9999 11.0643L12.6499 12.5523Z" fill="black"/>
</svg>