<svg width="24" height="24" viewBox="0 0 24 24" fill="none" xmlns="http://www.w3.org/2000/svg">
<path d="M8.66653 2.51654C8.37363 2.22365 7.89876 2.22365 7.60587 2.51654C7.31297 2.80944 7.31297 3.28431 7.60587 3.57721C7.78033 3.75167 7.77953 4.03337 7.60642 4.20612C6.84678 4.96576 6.84543 6.19862 7.60642 6.95802C7.89962 7.25061 8.37449 7.25011 8.66708 6.95691C8.95967 6.66371 8.95917 6.18884 8.66597 5.89625C8.49286 5.7235 8.49206 5.4418 8.66653 5.26734C9.42696 4.50789 9.42598 3.276 8.66653 2.51654Z" fill="black"/>
<path d="M18.5537 5.88707C18.8466 5.59418 18.8466 5.11931 18.5537 4.82641C18.2608 4.53352 17.786 4.53352 17.4931 4.82641C16.7334 5.58605 16.7326 6.81836 17.4936 7.57776C17.7868 7.87035 18.2617 7.86985 18.5543 7.57665C18.8469 7.28345 18.8464 6.80858 18.5532 6.51599C18.3801 6.34324 18.3793 6.06154 18.5537 5.88707Z" fill="black"/>
<path d="M4.20355 6.51654C3.91066 6.22365 3.43578 6.22365 3.14289 6.51654C2.85 6.80944 2.85 7.28431 3.14289 7.57721C3.31735 7.75167 3.31656 8.03337 3.14344 8.20612C2.85025 8.49871 2.84975 8.97358 3.14234 9.26678C3.43493 9.55998 3.9098 9.56048 4.203 9.26789C4.96398 8.50849 4.96319 7.27618 4.20355 6.51654Z" fill="black"/>
<path fill-rule="evenodd" clip-rule="evenodd" d="M11.9995 6.26202C10.8539 6.26202 9.92726 7.19107 9.92726 8.33526V9.01668C6.14014 9.81962 3.29716 12.7715 3.51106 16.3308C3.52693 16.5948 3.74567 16.8008 4.01016 16.8008H19.9898C20.2543 16.8008 20.4731 16.5948 20.4889 16.3307C20.7019 12.7713 17.8586 9.81934 14.0718 9.01656V8.33526C14.0718 7.19071 13.1438 6.26202 11.9995 6.26202ZM12.5718 8.81695V8.33526C12.5718 8.01842 12.3147 7.76202 11.9995 7.76202C11.6838 7.76202 11.4273 8.01806 11.4273 8.33526V8.81699C11.6167 8.80627 11.8077 8.80083 12 8.80083C12.1919 8.80083 12.3826 8.80626 12.5718 8.81695Z" fill="black"/>
<path d="M2.79803 18.0839C3.00004 17.9217 3.24749 17.8589 3.49994 17.8589H20.4999C20.7524 17.8589 20.9998 17.9217 21.2019 18.0839C21.4042 18.2463 21.5059 18.4642 21.5502 18.6701C21.6328 19.0543 21.5373 19.4906 21.4223 19.8361C21.1002 20.8022 20.1948 21.4548 19.1761 21.4548H4.82381C3.80504 21.4548 2.89973 20.8025 2.57769 19.8363C2.46269 19.4908 2.36705 19.0543 2.44966 18.6701C2.49393 18.4642 2.5957 18.2463 2.79803 18.0839Z" fill="black"/>
</svg>