<svg width="24" height="24" viewBox="0 0 24 24" fill="none" xmlns="http://www.w3.org/2000/svg">
<path d="M20.1307 17.4219L19.8612 18.3054C19.5625 19.2861 18.6576 19.9565 17.6331 19.9565H6.36798C5.34344 19.9565 4.43857 19.2861 4.13987 18.3054L3.87035 17.4219M3 17.4219H21" stroke="black" stroke-width="1.5" stroke-linecap="round" stroke-linejoin="round"/>
<path fill-rule="evenodd" clip-rule="evenodd" d="M13.1633 5.20622C13.1633 4.56406 12.6428 4.04352 12.0006 4.04352C11.3584 4.04352 10.8379 4.56406 10.8379 5.20622C10.8379 5.84838 11.3587 6.36858 12.0008 6.36858C12.643 6.36858 13.1633 5.84838 13.1633 5.20622Z" stroke="black" stroke-width="1.5" stroke-linecap="round" stroke-linejoin="round"/>
<path d="M4.00434 14.7731C3.77569 10.2011 7.42142 6.36859 11.9993 6.36859C16.5771 6.36859 20.2228 10.2011 19.9951 14.7731" stroke="black" stroke-width="1.5" stroke-linecap="round" stroke-linejoin="round"/>
</svg>