<svg width="24" height="24" viewBox="0 0 24 24" fill="none" xmlns="http://www.w3.org/2000/svg">
<path fill-rule="evenodd" clip-rule="evenodd" d="M10.087 5.20567C10.087 4.1493 10.9433 3.29297 11.9997 3.29297C13.0561 3.29297 13.9124 4.1493 13.9124 5.20567C13.9124 5.50556 13.8434 5.78929 13.7204 6.04187C17.7428 6.86734 20.7078 10.5291 20.4952 14.7974C20.482 15.0636 20.2623 15.2726 19.9958 15.2726H4.00502C3.73859 15.2726 3.51895 15.0636 3.50565 14.7975C3.29219 10.5292 6.25692 6.86758 10.2791 6.04195C10.156 5.78938 10.087 5.50564 10.087 5.20567ZM11.9997 4.79297C11.7717 4.79297 11.587 4.97772 11.587 5.20567C11.587 5.43313 11.7715 5.61803 11.9999 5.61803C12.228 5.61803 12.4124 5.43354 12.4124 5.20567C12.4124 4.97772 12.2276 4.79297 11.9997 4.79297Z" fill="black"/>
<path fill-rule="evenodd" clip-rule="evenodd" d="M3 16.6713H3.85342C3.86492 16.6711 3.87638 16.6711 3.88781 16.6713H20.1132C20.1247 16.6711 20.1361 16.6711 20.1476 16.6713H21C21.4142 16.6713 21.75 17.0071 21.75 17.4213C21.75 17.8356 21.4142 18.1713 21 18.1713H20.686L20.5786 18.5233C20.1838 19.8196 18.9878 20.7059 17.6331 20.7059H6.36798C5.01334 20.7059 3.81742 19.8198 3.42251 18.5236L3.31503 18.1713H3C2.58579 18.1713 2.25 17.8356 2.25 17.4213C2.25 17.0071 2.58579 16.6713 3 16.6713Z" fill="black"/>
</svg>