<svg width="24" height="24" viewBox="0 0 24 24" fill="none" xmlns="http://www.w3.org/2000/svg">
<path fill-rule="evenodd" clip-rule="evenodd" d="M3 16.6721H3.85342C3.86492 16.6718 3.87638 16.6718 3.88781 16.6721H20.1132C20.1247 16.6718 20.1361 16.6718 20.1476 16.6721H21C21.4142 16.6721 21.75 17.0079 21.75 17.4221C21.75 17.8363 21.4142 18.1721 21 18.1721H20.686L20.5786 18.524C20.1838 19.8204 18.9878 20.7067 17.6331 20.7067H6.36798C5.01334 20.7067 3.81742 19.8205 3.42251 18.5244L3.31503 18.1721H3C2.58579 18.1721 2.25 17.8363 2.25 17.4221C2.25 17.0079 2.58579 16.6721 3 16.6721Z" fill="black"/>
<path opacity="0.4" fill-rule="evenodd" clip-rule="evenodd" d="M10.0871 5.20567C10.0871 4.1493 10.9434 3.29297 11.9998 3.29297C13.0561 3.29297 13.9125 4.1493 13.9125 5.20567C13.9125 5.50556 13.8435 5.78929 13.7205 6.04187C17.7429 6.86734 20.7078 10.5291 20.4953 14.7974C20.482 15.0636 20.2624 15.2726 19.9959 15.2726H4.00508C3.73865 15.2726 3.51902 15.0636 3.50571 14.7975C3.29225 10.5292 6.25698 6.86758 10.2791 6.04195C10.1561 5.78938 10.0871 5.50564 10.0871 5.20567ZM11.9998 4.79297C11.7718 4.79297 11.5871 4.97772 11.5871 5.20567C11.5871 5.43313 11.7716 5.61803 12 5.61803C12.228 5.61803 12.4125 5.43354 12.4125 5.20567C12.4125 4.97772 12.2277 4.79297 11.9998 4.79297Z" fill="black"/>
</svg>