<svg width="24" height="24" viewBox="0 0 24 24" fill="none" xmlns="http://www.w3.org/2000/svg">
<path opacity="0.4" d="M12 21C16.9709 21 21 16.9709 21 12C21 7.02908 16.9709 3 12 3C7.02908 3 3 7.02908 3 12C3 16.9709 7.02908 21 12 21Z" stroke="black" stroke-width="1.5" stroke-linecap="round" stroke-linejoin="round"/>
<path fill-rule="evenodd" clip-rule="evenodd" d="M14.7005 12.048C13.5438 12.0519 12.5141 11.3163 12.1428 10.2209C11.8564 9.37572 12.0113 8.46227 12.5199 7.76743C12.701 7.52003 12.5999 7.12586 12.2939 7.10701C10.4011 6.99042 8.57598 7.97023 7.64227 9.67298C6.58247 11.6057 6.92539 14.0059 8.48399 15.5645C10.0426 17.1231 12.4428 17.466 14.3755 16.4062C16.078 15.4727 17.0577 13.6481 16.9416 11.7556C16.9228 11.4495 16.5281 11.3482 16.2806 11.5294C15.8272 11.8613 15.2753 12.0467 14.7005 12.048Z" stroke="black" stroke-width="1.5" stroke-linecap="round" stroke-linejoin="round"/>
</svg>