<svg width="24" height="24" viewBox="0 0 24 24" fill="none" xmlns="http://www.w3.org/2000/svg">
<path d="M12.9 5.38615C12.8999 4.8891 12.4969 4.48623 11.9998 4.48633C11.5028 4.48642 11.0999 4.88945 11.1 5.3865L11.1002 6.54736C9.13046 6.70773 7.35206 7.39713 6.02831 8.55488C4.49604 9.895 3.60409 11.8376 3.72304 14.212C3.73637 14.4781 3.956 14.687 4.22241 14.687H19.7782C20.0447 14.687 20.2643 14.478 20.2776 14.2119C20.396 11.8375 19.5038 9.89497 17.9716 8.55488C16.6479 7.39714 14.8697 6.70773 12.9002 6.54736L12.9 5.38615Z" fill="black"/>
<path d="M2.79815 15.7417C3.00016 15.5796 3.24761 15.5168 3.50006 15.5168H20.5001C20.7525 15.5168 21 15.5796 21.202 15.7417C21.4043 15.9041 21.5061 16.1221 21.5503 16.328C21.6329 16.7122 21.5374 17.1485 21.4224 17.494C21.1003 18.4601 20.195 19.1126 19.1762 19.1126H4.82393C3.80516 19.1126 2.89985 18.4603 2.57782 17.4942C2.46281 17.1487 2.36718 16.7122 2.44978 16.328C2.49405 16.1221 2.59582 15.9041 2.79815 15.7417Z" fill="black"/>
</svg>