<svg width="24" height="24" viewBox="0 0 24 24" fill="none" xmlns="http://www.w3.org/2000/svg">
<path d="M3 17.4219H21" stroke="black" stroke-width="1.5" stroke-linecap="round" stroke-linejoin="round"/>
<path d="M3.87012 17.4219L4.13963 18.3053C4.43833 19.2861 5.3432 19.9565 6.36774 19.9565H8.3745" stroke="black" stroke-width="1.5" stroke-linecap="round" stroke-linejoin="round"/>
<path d="M20.1311 17.4219L19.8616 18.3053C19.5629 19.2861 18.6581 19.9565 17.6335 19.9565H12.001" stroke="black" stroke-width="1.5" stroke-linecap="round" stroke-linejoin="round"/>
<path fill-rule="evenodd" clip-rule="evenodd" d="M13.1633 5.20567C13.1633 4.56351 12.6428 4.04297 12.0006 4.04297C11.3584 4.04297 10.8379 4.56351 10.8379 5.20567C10.8379 5.84783 11.3587 6.36803 12.0008 6.36803C12.643 6.36803 13.1633 5.84783 13.1633 5.20567Z" stroke="black" stroke-width="1.5" stroke-linecap="round" stroke-linejoin="round"/>
<path d="M4.00434 14.7717C3.77569 10.1997 7.42142 6.36719 11.9993 6.36719C13.3878 6.36719 14.6906 6.7198 15.8256 7.33872" stroke="black" stroke-width="1.5" stroke-linecap="round" stroke-linejoin="round"/>
<path d="M18.2969 9.42969C19.446 10.8916 20.0958 12.7602 19.9956 14.7719" stroke="black" stroke-width="1.5" stroke-linecap="round" stroke-linejoin="round"/>
</svg>