<svg width="25" height="24" viewBox="0 0 25 24" fill="none" xmlns="http://www.w3.org/2000/svg">
<path fill-rule="evenodd" clip-rule="evenodd" d="M19.6761 20.9539H5.32387C4.5202 20.9539 3.80604 20.4392 3.5521 19.6774C3.3361 19.0284 3.81869 18.3581 4.50269 18.3581H20.4973C21.1813 18.3581 21.6639 19.0284 21.4479 19.6774C21.194 20.4392 20.4798 20.9539 19.6761 20.9539Z" stroke="black" stroke-width="1.5" stroke-linecap="round" stroke-linejoin="round"/>
<path opacity="0.4" d="M13.8223 9.46503V8.33444C13.8223 7.60374 13.2297 7.0112 12.5 7.0112C11.7693 7.0112 11.1777 7.60374 11.1777 8.33444V9.46503" stroke="black" stroke-width="1.5" stroke-linecap="round" stroke-linejoin="round"/>
<path d="M4.76371 18.3582L4.72284 17.5292C4.50003 13.0808 8.0465 9.35336 12.5008 9.35336C16.954 9.35336 20.5005 13.0808 20.2787 17.5292L20.2368 18.3582" stroke="black" stroke-width="1.5" stroke-linecap="round" stroke-linejoin="round"/>
<path opacity="0.4" d="M18.5241 5.35593C18.0571 5.82297 18.0571 6.57998 18.5241 7.04606" stroke="black" stroke-width="1.5" stroke-linecap="round" stroke-linejoin="round"/>
<path opacity="0.4" d="M4.17383 7.04605C4.64088 7.5131 4.64088 8.27011 4.17383 8.73618" stroke="black" stroke-width="1.5" stroke-linecap="round" stroke-linejoin="round"/>
<path opacity="0.4" d="M8.63544 3.04605C9.10249 3.5131 9.10249 4.27011 8.63544 4.73618C8.16839 5.20323 8.16839 5.96024 8.63544 6.42631" stroke="black" stroke-width="1.5" stroke-linecap="round" stroke-linejoin="round"/>
</svg>