<svg width="24" height="24" viewBox="0 0 24 24" fill="none" xmlns="http://www.w3.org/2000/svg">
<path fill-rule="evenodd" clip-rule="evenodd" d="M16.6835 3.6917C17.0502 3.88437 17.1913 4.33781 16.9986 4.70449L15.9168 6.7632C17.842 6.97591 19.3815 8.48726 19.632 10.4006H19.974C20.8821 10.4006 21.5982 11.197 21.4892 12.1044C21.4092 12.7707 21.2626 13.4187 21.0545 14.0421C20.2616 16.4196 18.6015 18.3984 16.4499 19.5942C15.7773 19.9687 15.0197 20.1429 14.2675 20.1429H9.73438C8.97855 20.1429 8.21925 19.9664 7.54539 19.5914C4.82872 18.0804 2.89814 15.3278 2.51076 12.0976C2.4026 11.1899 3.12422 10.4006 4.02591 10.4006H4.84581L4.84566 10.3573C4.84566 7.6975 6.99994 5.54321 9.6598 5.54321C10.4871 5.54321 11.2654 5.75293 11.9451 6.12155L11.6337 4.65715C11.5475 4.25199 11.8061 3.8537 12.2113 3.76754C12.6164 3.68137 13.0147 3.93996 13.1009 4.34511L13.6918 7.12382C13.8315 7.05895 13.9754 7.00156 14.1231 6.95217L15.6708 4.00676C15.8634 3.64008 16.3169 3.49903 16.6835 3.6917ZM12.5208 8.69096C12.5293 8.70686 12.5382 8.72239 12.5477 8.73752C12.8159 9.20916 12.9739 9.77192 12.9739 10.3573L12.9737 10.4006H8.74751C8.89417 10.0228 9.20917 9.72483 9.60091 9.60368C9.99663 9.48129 10.2182 9.06128 10.0958 8.66556C9.97343 8.26984 9.55342 8.04826 9.1577 8.17065C8.15207 8.48167 7.37949 9.34132 7.19849 10.4006H6.34587L6.34566 10.3573C6.34566 8.52593 7.82837 7.04321 9.6598 7.04321C10.8765 7.04321 11.944 7.70343 12.5208 8.69096ZM14.8488 8.30466C14.8259 8.31137 14.8027 8.31699 14.7793 8.32151C14.5505 8.38024 14.334 8.4685 14.1331 8.58219C14.3521 9.13215 14.4739 9.73571 14.4739 10.3573L14.4738 10.4006H18.1116C17.8562 9.16841 16.7597 8.23755 15.4496 8.23755C15.2423 8.23755 15.0414 8.26071 14.8488 8.30466Z" fill="black"/>
</svg>