<svg width="25" height="24" viewBox="0 0 25 24" fill="none" xmlns="http://www.w3.org/2000/svg">
<path fill-rule="evenodd" clip-rule="evenodd" d="M2.5 12C2.5 6.61522 6.86522 2.25 12.25 2.25C17.6348 2.25 22 6.61522 22 12C22 17.3848 17.6348 21.75 12.25 21.75C6.86522 21.75 2.5 17.3848 2.5 12ZM12.25 3.75C7.69365 3.75 4 7.44365 4 12C4 16.5563 7.69365 20.25 12.25 20.25C16.8063 20.25 20.5 16.5563 20.5 12C20.5 7.44365 16.8063 3.75 12.25 3.75Z" fill="black"/>
<path fill-rule="evenodd" clip-rule="evenodd" d="M4.68635 6.02784C5.06912 5.86953 5.50775 6.05148 5.66606 6.43425L7.04412 9.76606C7.16526 10.059 7.0892 10.3964 6.85411 10.609L3.79603 13.3745C3.48881 13.6523 3.01453 13.6285 2.7367 13.3213C2.45888 13.0141 2.4827 12.5398 2.78992 12.262L5.45599 9.85095L4.27995 7.00755C4.12163 6.62479 4.30359 6.18615 4.68635 6.02784Z" fill="black"/>
<path fill-rule="evenodd" clip-rule="evenodd" d="M8.62604 3.08405C8.85581 2.73941 9.32146 2.64628 9.6661 2.87604L12.2501 4.59869L14.8341 2.87604C15.1787 2.64628 15.6444 2.73941 15.8741 3.08405C16.1039 3.4287 16.0108 3.89435 15.6661 4.12412L12.6661 6.12412C12.4142 6.29207 12.086 6.29207 11.8341 6.12412L8.83405 4.12412C8.48941 3.89435 8.39628 3.4287 8.62604 3.08405Z" fill="black"/>
<path fill-rule="evenodd" clip-rule="evenodd" d="M4.09697 16.9226C4.12085 16.5091 4.47544 16.1932 4.88896 16.2171L9.00521 16.4548C9.32164 16.473 9.59243 16.6883 9.68165 16.9924L10.6966 20.4522C10.8132 20.8496 10.5855 21.2664 10.188 21.383C9.79055 21.4996 9.37382 21.2719 9.25722 20.8744L8.39108 17.9218L4.80249 17.7146C4.38897 17.6907 4.07309 17.3361 4.09697 16.9226Z" fill="black"/>
<path fill-rule="evenodd" clip-rule="evenodd" d="M20.5168 16.9226C20.5407 17.3361 20.2248 17.6907 19.8113 17.7146L16.2227 17.9218L15.3566 20.8744C15.24 21.2719 14.8233 21.4996 14.4258 21.383C14.0283 21.2664 13.8006 20.8496 13.9172 20.4522L14.9322 16.9924C15.0214 16.6883 15.2922 16.473 15.6086 16.4548L19.7248 16.2171C20.1384 16.1932 20.493 16.5091 20.5168 16.9226Z" fill="black"/>
<path fill-rule="evenodd" clip-rule="evenodd" d="M19.8366 6.02784C20.2194 6.18615 20.4013 6.62479 20.243 7.00755L19.067 9.85095L21.733 12.262C22.0403 12.5398 22.0641 13.0141 21.7863 13.3213C21.5084 13.6285 21.0342 13.6523 20.7269 13.3745L17.6689 10.609C17.4338 10.3964 17.3577 10.059 17.4788 9.76606L18.8569 6.43425C19.0152 6.05148 19.4538 5.86953 19.8366 6.02784Z" fill="black"/>
<path fill-rule="evenodd" clip-rule="evenodd" d="M11.834 8.37596C12.0859 8.20801 12.4141 8.20801 12.6661 8.37596L15.6661 10.376C15.9298 10.5518 16.0545 10.8744 15.9777 11.1819L14.9777 15.1819C14.8942 15.5158 14.5942 15.75 14.25 15.75H10.25C9.9059 15.75 9.60591 15.5158 9.52244 15.1819L8.52244 11.1819C8.44557 10.8744 8.57029 10.5518 8.83402 10.376L11.834 8.37596ZM10.1058 11.3309L10.8356 14.25H13.6645L14.3942 11.3309L12.25 9.90139L10.1058 11.3309Z" fill="black"/>
</svg>