<svg width="25" height="24" viewBox="0 0 25 24" fill="none" xmlns="http://www.w3.org/2000/svg">
<path fill-rule="evenodd" clip-rule="evenodd" d="M5.10608 4.85603C8.91321 1.04799 15.087 1.04799 18.8942 4.85603C22.7023 8.66304 22.7023 14.837 18.8942 18.644C15.087 22.452 8.91321 22.452 5.10608 18.644C1.29797 14.837 1.29797 8.66304 5.10608 4.85603ZM5.65979 6.46986C2.95471 9.71126 3.12366 14.5407 6.16614 17.584C9.20959 20.6264 14.0387 20.7951 17.2804 18.0902L5.65979 6.46986ZM18.3405 17.0302C21.0455 13.7887 20.8766 8.9593 17.8341 5.91603C14.7906 2.87367 9.96155 2.70491 6.71985 5.40987L18.3405 17.0302Z" fill="black"/>
</svg>