<svg width="25" height="24" viewBox="0 0 25 24" fill="none" xmlns="http://www.w3.org/2000/svg">
<path opacity="0.4" fill-rule="evenodd" clip-rule="evenodd" d="M18.7661 9.42731C18.4811 9.42831 18.2211 9.59131 18.0961 9.84731C17.9701 10.1033 18.0001 10.4073 18.1741 10.6333L19.6641 12.5763C19.6841 12.6033 19.7161 12.6153 19.7391 12.6373C19.7531 12.6533 19.7711 12.6633 19.7871 12.6773C19.8461 12.7273 19.9041 12.7743 19.9751 12.8043C20.0261 12.8273 20.0831 12.8323 20.1391 12.8423C20.1801 12.8493 20.2171 12.8703 20.2591 12.8703C20.2621 12.8703 20.2651 12.8683 20.2681 12.8683C20.2711 12.8683 20.2741 12.8703 20.2781 12.8703C20.5321 12.8703 20.7461 12.7353 20.8811 12.5423L22.3521 10.6213C22.5261 10.3943 22.5551 10.0883 22.4281 9.83231C22.3011 9.57631 22.0411 9.41531 21.7561 9.41531H21.7531L21.0281 9.41831V8.39031C21.0281 5.20731 18.9791 3.07031 15.9291 3.07031H8.26011C5.21011 3.07031 3.16211 5.20731 3.16211 8.39031V15.6113C3.16211 18.7923 5.21111 20.9303 8.26111 20.9303H15.9291C18.9791 20.9303 21.0281 18.7923 21.0281 15.6113C21.0281 15.1973 20.6921 14.8613 20.2781 14.8613C19.8641 14.8613 19.5281 15.1973 19.5281 15.6113C19.5281 17.9313 18.1161 19.4303 15.9291 19.4303H8.26111C6.07511 19.4303 4.66211 17.9313 4.66211 15.6113V8.39031C4.66211 6.07031 6.07411 4.57031 8.26011 4.57031H15.9291C18.1161 4.57031 19.5281 6.07031 19.5281 8.39031V9.42431L18.7661 9.42731Z" fill="black"/>
<path fill-rule="evenodd" clip-rule="evenodd" d="M8.92808 14.0084C8.59908 14.0084 8.33008 13.7384 8.33008 13.4074C8.33008 12.9934 7.99408 12.6574 7.58008 12.6574C7.16608 12.6574 6.83008 12.9934 6.83008 13.4074C6.83008 14.5664 7.77208 15.5084 8.92808 15.5084C10.0851 15.5084 11.0271 14.5664 11.0271 13.4074C11.0271 12.8944 10.8411 12.4234 10.5341 12.0584C10.8411 11.6934 11.0261 11.2224 11.0261 10.7084C11.0261 9.55037 10.0851 8.60938 8.92908 8.60938C7.77208 8.60938 6.83008 9.55037 6.83008 10.7084C6.83008 11.1224 7.16608 11.4584 7.58008 11.4584C7.99408 11.4584 8.33008 11.1224 8.33008 10.7084C8.33008 10.3774 8.59908 10.1094 8.92908 10.1094C9.25808 10.1094 9.52608 10.3774 9.52608 10.7084C9.52608 11.0394 9.25808 11.3084 8.92908 11.3084C8.51508 11.3084 8.17908 11.6444 8.17908 12.0584C8.17908 12.4724 8.51508 12.8084 8.92908 12.8084C9.25808 12.8084 9.52708 13.0764 9.52708 13.4074C9.52708 13.7384 9.25808 14.0084 8.92808 14.0084Z" fill="black"/>
<path fill-rule="evenodd" clip-rule="evenodd" d="M14.6762 13.1382C14.6762 13.5962 14.3082 13.9682 13.8552 13.9682C13.4022 13.9682 13.0332 13.5962 13.0332 13.1382V10.9782C13.0332 10.5262 13.4022 10.1582 13.8552 10.1582C14.3082 10.1582 14.6762 10.5262 14.6762 10.9782V13.1382ZM13.8552 8.6582C12.5742 8.6582 11.5332 9.6992 11.5332 10.9782V13.1382C11.5332 14.4232 12.5742 15.4682 13.8552 15.4682C15.1352 15.4682 16.1762 14.4232 16.1762 13.1382V10.9782C16.1762 9.6992 15.1352 8.6582 13.8552 8.6582Z" fill="black"/>
</svg>