<svg width="25" height="24" viewBox="0 0 25 24" fill="none" xmlns="http://www.w3.org/2000/svg">
<path d="M19.7006 15.6129C19.7006 18.2905 18.0329 20.183 15.3523 20.183H7.6842C5.00265 20.183 3.33398 18.2905 3.33398 15.6129V8.38652C3.33398 5.70886 5.00265 3.81641 7.68323 3.81641H15.3523C18.0251 3.81641 19.7006 5.70886 19.7006 8.38652V12.1169" stroke="black" stroke-width="1.5" stroke-linecap="round" stroke-linejoin="round"/>
<path opacity="0.4" d="M7.00829 10.7109C7.00829 9.96653 7.61154 9.36328 8.35587 9.36328C9.10021 9.36328 9.70346 9.96653 9.70346 10.7109C9.70346 11.4552 9.10021 12.0594 8.35587 12.0594C9.10118 12.0594 9.70395 12.6627 9.70395 13.407C9.70395 14.1523 9.1007 14.7556 8.3554 14.7556C7.61106 14.7556 7.00781 14.1523 7.00781 13.407" stroke="black" stroke-width="1.5" stroke-linecap="round" stroke-linejoin="round"/>
<path opacity="0.4" fill-rule="evenodd" clip-rule="evenodd" d="M13.2833 14.7158C12.4154 14.7158 11.7119 14.0124 11.7119 13.1445V10.9776C11.7119 10.1097 12.4154 9.40625 13.2833 9.40625C14.1512 9.40625 14.8547 10.1097 14.8547 10.9776V13.1445C14.8547 14.0124 14.1512 14.7158 13.2833 14.7158Z" stroke="black" stroke-width="1.5" stroke-linecap="round" stroke-linejoin="round"/>
<path d="M21.3336 10.4648L19.6815 12.117L18.0391 10.4746" stroke="black" stroke-width="1.5" stroke-linecap="round" stroke-linejoin="round"/>
</svg>