<svg width="25" height="24" viewBox="0 0 25 24" fill="none" xmlns="http://www.w3.org/2000/svg">
<path fill-rule="evenodd" clip-rule="evenodd" d="M21.4993 9.76877C19.9363 8.34078 17.9823 7.05377 15.8313 6.17877C14.0023 5.45177 12.4703 6.35977 12.2443 8.17977C11.9713 10.8628 11.9773 13.4318 12.2443 15.8288C12.4903 17.7208 14.1793 18.5228 15.8313 17.8208C17.9493 16.9458 19.8483 15.7578 21.4993 14.2308C22.9103 12.9408 22.9443 11.1088 21.4993 9.76877Z" fill="black"/>
<path opacity="0.4" fill-rule="evenodd" clip-rule="evenodd" d="M12.0276 9.76877C10.4646 8.34078 8.50957 7.05377 6.35957 6.17877C4.53057 5.45177 2.99857 6.35977 2.77257 8.17977C2.49957 10.8628 2.50557 13.4318 2.77257 15.8288C3.01857 17.7208 4.70557 18.5228 6.35957 17.8208C8.47757 16.9458 10.3756 15.7578 12.0276 14.2308C13.4376 12.9408 13.4726 11.1088 12.0276 9.76877Z" fill="black"/>
</svg>