<svg width="25" height="24" viewBox="0 0 25 24" fill="none" xmlns="http://www.w3.org/2000/svg">
<path fill-rule="evenodd" clip-rule="evenodd" d="M2.33398 11.9998C2.33398 7.03021 6.36311 3 11.3338 3C16.2366 3 20.2232 6.91982 20.3315 11.7964C20.3407 12.2105 20.0124 12.5536 19.5983 12.5628C19.1842 12.572 18.8411 12.2438 18.8319 11.8297C18.7417 7.76654 15.4193 4.5 11.3338 4.5C7.19165 4.5 3.83398 7.85853 3.83398 11.9998C3.83398 16.142 7.1916 19.4996 11.3338 19.4996C13.8939 19.4996 16.1545 18.2184 17.509 16.2574C17.7444 15.9166 18.2116 15.8312 18.5524 16.0666C18.8932 16.302 18.9786 16.7691 18.7432 17.11C17.1204 19.4593 14.4072 20.9996 11.3338 20.9996C6.36317 20.9996 2.33398 16.9705 2.33398 11.9998Z" fill="black"/>
<path fill-rule="evenodd" clip-rule="evenodd" d="M21.4586 9.1512C21.8174 9.35813 21.9406 9.81676 21.7336 10.1756L20.4532 12.3959C20.3538 12.5682 20.19 12.694 19.9979 12.7456C19.8058 12.7972 19.601 12.7703 19.4287 12.6709L17.221 11.3973C16.8623 11.1903 16.7392 10.7316 16.9462 10.3728C17.1532 10.014 17.6118 9.89098 17.9706 10.098L19.5285 10.9967L20.4342 9.42623C20.6412 9.06741 21.0998 8.94427 21.4586 9.1512Z" fill="black"/>
<path fill-rule="evenodd" clip-rule="evenodd" d="M6.10938 10.5552C6.10938 9.34186 7.09349 8.35938 8.30521 8.35938C9.51823 8.35938 10.501 9.34219 10.501 10.5552C10.501 11.1089 10.296 11.6147 9.95763 12.0008C10.2954 12.387 10.5001 12.8926 10.5001 13.4456C10.5001 14.657 9.51792 15.6415 8.30521 15.6415C7.09186 15.6415 6.10938 14.6573 6.10938 13.4456C6.10938 13.0314 6.44516 12.6956 6.85938 12.6956C7.27359 12.6956 7.60938 13.0314 7.60938 13.4456C7.60938 13.8296 7.92094 14.1415 8.30521 14.1415C8.68817 14.1415 9.00007 13.8299 9.00007 13.4456C9.00007 13.0615 8.68837 12.7501 8.30521 12.7501C7.891 12.7501 7.55521 12.4143 7.55521 12.0001C7.55521 11.5859 7.891 11.2501 8.30521 11.2501C8.69013 11.2501 9.00104 10.9385 9.00104 10.5552C9.00104 10.1706 8.68981 9.85938 8.30521 9.85938C7.92126 9.85938 7.60938 10.1709 7.60938 10.5552C7.60938 10.9694 7.27359 11.3052 6.85938 11.3052C6.44516 11.3052 6.10938 10.9694 6.10938 10.5552Z" fill="black"/>
<path fill-rule="evenodd" clip-rule="evenodd" d="M13.4742 9.90234C12.9576 9.90234 12.5391 10.3213 12.5391 10.8375V13.161C12.5391 13.6772 12.9576 14.0962 13.4742 14.0962C13.9909 14.0962 14.4094 13.6772 14.4094 13.161V10.8375C14.4094 10.3213 13.9909 9.90234 13.4742 9.90234ZM11.0391 10.8375C11.0391 9.49344 12.1286 8.40234 13.4742 8.40234C14.8199 8.40234 15.9094 9.49344 15.9094 10.8375V13.161C15.9094 14.5051 14.8199 15.5962 13.4742 15.5962C12.1286 15.5962 11.0391 14.5051 11.0391 13.161V10.8375Z" fill="black"/>
</svg>