<svg width="25" height="24" viewBox="0 0 25 24" fill="none" xmlns="http://www.w3.org/2000/svg">
<path fill-rule="evenodd" clip-rule="evenodd" d="M4.80227 5.60845C4.20116 6.25397 3.83398 7.20262 3.83398 8.38652V15.6129C3.83398 16.7968 4.20116 17.7454 4.80235 18.3909C5.39792 19.0304 6.27865 19.433 7.4342 19.433H15.1023C16.2573 19.433 17.1375 19.0304 17.7327 18.391C18.3336 17.7456 18.7006 16.7969 18.7006 15.6129C18.7006 15.1987 19.0364 14.8629 19.4506 14.8629C19.8648 14.8629 20.2006 15.1987 20.2006 15.6129C20.2006 17.1065 19.7337 18.4429 18.8306 19.4131C17.9218 20.3893 16.6279 20.933 15.1023 20.933H7.4342C5.90821 20.933 4.61382 20.3894 3.70468 19.4132C2.80114 18.4431 2.33398 17.1066 2.33398 15.6129V8.38652C2.33398 6.89276 2.80114 5.55635 3.70451 4.58623C4.61351 3.61008 5.90764 3.06641 7.43323 3.06641H15.1023C16.6245 3.06641 17.918 3.61039 18.8274 4.58596C19.7312 5.55568 20.2006 6.89196 20.2006 8.38652V12.1169C20.2006 12.5312 19.8648 12.8669 19.4506 12.8669C19.0364 12.8669 18.7006 12.5312 18.7006 12.1169V8.38652C18.7006 7.20342 18.3322 6.25464 17.7301 5.60872C17.1335 4.96865 16.2529 4.56641 15.1023 4.56641H7.43323C6.27824 4.56641 5.39775 4.96897 4.80227 5.60845Z" fill="black"/>
<path fill-rule="evenodd" clip-rule="evenodd" d="M6.00829 10.7109C6.00829 9.55232 6.94732 8.61328 8.10587 8.61328C9.26442 8.61328 10.2035 9.55232 10.2035 10.7109C10.2035 11.2237 10.0194 11.694 9.7135 12.0588C10.0197 12.4233 10.204 12.8936 10.204 13.407C10.204 14.5665 9.26492 15.5056 8.1054 15.5056C6.9465 15.5056 6.00781 14.5662 6.00781 13.407C6.00781 12.9928 6.3436 12.657 6.75781 12.657C7.17203 12.657 7.50781 12.9928 7.50781 13.407C7.50781 13.7384 7.77563 14.0056 8.1054 14.0056C8.43649 14.0056 8.70395 13.7381 8.70395 13.407C8.70395 13.0769 8.43698 12.8094 8.10587 12.8094C7.69166 12.8094 7.35587 12.4736 7.35587 12.0594C7.35587 11.6452 7.69166 11.3094 8.10587 11.3094C8.43529 11.3094 8.70346 11.0417 8.70346 10.7109C8.70346 10.3807 8.43599 10.1133 8.10587 10.1133C7.77575 10.1133 7.50829 10.3807 7.50829 10.7109C7.50829 11.1251 7.1725 11.4609 6.75829 11.4609C6.34407 11.4609 6.00829 11.1251 6.00829 10.7109Z" fill="black"/>
<path fill-rule="evenodd" clip-rule="evenodd" d="M13.0323 10.1562C12.5786 10.1562 12.2109 10.5239 12.2109 10.9776V13.1445C12.2109 13.5981 12.5786 13.9658 13.0323 13.9658C13.486 13.9658 13.8537 13.5981 13.8537 13.1445V10.9776C13.8537 10.5239 13.486 10.1562 13.0323 10.1562ZM10.7109 10.9776C10.7109 9.6955 11.7502 8.65625 13.0323 8.65625C14.3144 8.65625 15.3537 9.6955 15.3537 10.9776V13.1445C15.3537 14.4266 14.3144 15.4658 13.0323 15.4658C11.7502 15.4658 10.7109 14.4266 10.7109 13.1445V10.9776Z" fill="black"/>
<path fill-rule="evenodd" clip-rule="evenodd" d="M21.6139 9.93451C21.9068 10.2274 21.9068 10.7023 21.6139 10.9952L19.9618 12.6473C19.6689 12.9402 19.194 12.9402 18.9011 12.6473L17.2587 11.0049C16.9658 10.712 16.9658 10.2371 17.2587 9.94424C17.5516 9.65135 18.0265 9.65135 18.3194 9.94424L19.4315 11.0563L20.5533 9.93451C20.8462 9.64162 21.321 9.64162 21.6139 9.93451Z" fill="black"/>
</svg>