<svg width="25" height="24" viewBox="0 0 25 24" fill="none" xmlns="http://www.w3.org/2000/svg">
<path d="M9.29382 3.8554C13.4283 2.2585 18.0326 4.00295 20.1294 7.77435" stroke="black" stroke-width="1.5" stroke-linecap="round" stroke-linejoin="round"/>
<path d="M8.89191 20.1081C6.83487 19.1868 5.12051 17.4928 4.24779 15.229C2.88308 11.6789 3.9671 7.79219 6.67812 5.42969" stroke="black" stroke-width="1.5" stroke-linecap="round" stroke-linejoin="round"/>
<path d="M20.4552 4.83984V7.77348H17.5371" stroke="black" stroke-width="1.5" stroke-linecap="round" stroke-linejoin="round"/>
<path d="M12.4983 7.95312V12.0575H9.11523" stroke="black" stroke-width="1.5" stroke-linecap="round" stroke-linejoin="round"/>
<path d="M20.5821 20.7372V19.4664M20.5821 19.4664H21.6586M20.5821 19.4664H17.4844L20.5821 15.1582V19.4664Z" stroke="black" stroke-width="1.5" stroke-linecap="round" stroke-linejoin="round"/>
<path d="M12.7324 16.663C12.7324 15.8437 13.3974 15.1777 14.2177 15.1777C15.037 15.1777 15.702 15.8437 15.702 16.663C15.702 18.5191 12.7334 18.5191 12.7334 20.7169H15.702" stroke="black" stroke-width="1.5" stroke-linecap="round" stroke-linejoin="round"/>
</svg>