<svg width="25" height="24" viewBox="0 0 25 24" fill="none" xmlns="http://www.w3.org/2000/svg">
<path d="M19.7006 15.6129C19.7006 18.2905 18.0329 20.183 15.3523 20.183H7.6842C5.00265 20.183 3.33398 18.2905 3.33398 15.6129V8.38652C3.33398 5.70886 5.00265 3.81641 7.68323 3.81641H15.3523C18.0251 3.81641 19.7006 5.70886 19.7006 8.38652V12.1169" stroke="black" stroke-width="1.5" stroke-linecap="round" stroke-linejoin="round"/>
<path opacity="0.4" d="M8.50977 14.5564V9.44141" stroke="black" stroke-width="1.5" stroke-linecap="round" stroke-linejoin="round"/>
<path opacity="0.4" fill-rule="evenodd" clip-rule="evenodd" d="M12.6788 14.6533C11.8109 14.6533 11.1074 13.9499 11.1074 13.082V10.9161C11.1074 10.0472 11.8109 9.34375 12.6788 9.34375C13.5467 9.34375 14.2502 10.0472 14.2502 10.9161V13.082C14.2502 13.9499 13.5467 14.6533 12.6788 14.6533Z" stroke="black" stroke-width="1.5" stroke-linecap="round" stroke-linejoin="round"/>
<path d="M21.3336 10.4648L19.6815 12.117L18.0391 10.4746" stroke="black" stroke-width="1.5" stroke-linecap="round" stroke-linejoin="round"/>
</svg>