<svg width="25" height="24" viewBox="0 0 25 24" fill="none" xmlns="http://www.w3.org/2000/svg">
<path fill-rule="evenodd" clip-rule="evenodd" d="M8.92918 14.0103C8.60018 14.0103 8.33118 13.7403 8.33118 13.4093C8.33118 12.9953 7.99518 12.6593 7.58118 12.6593C7.16718 12.6593 6.83118 12.9953 6.83118 13.4093C6.83118 14.5683 7.77318 15.5103 8.92918 15.5103C10.0862 15.5103 11.0282 14.5683 11.0282 13.4093C11.0282 12.8963 10.8422 12.4253 10.5352 12.0603C10.8422 11.6953 11.0272 11.2243 11.0272 10.7103C11.0272 9.55233 10.0862 8.61133 8.93018 8.61133C7.77318 8.61133 6.83118 9.55233 6.83118 10.7103C6.83118 11.1243 7.16718 11.4603 7.58118 11.4603C7.99518 11.4603 8.33118 11.1243 8.33118 10.7103C8.33118 10.3793 8.60018 10.1113 8.93018 10.1113C9.25918 10.1113 9.52718 10.3793 9.52718 10.7103C9.52718 11.0413 9.25918 11.3103 8.93018 11.3103C8.51618 11.3103 8.18018 11.6463 8.18018 12.0603C8.18018 12.4743 8.51618 12.8103 8.93018 12.8103C9.25918 12.8103 9.52818 13.0783 9.52818 13.4093C9.52818 13.7403 9.25918 14.0103 8.92918 14.0103Z" fill="black"/>
<path fill-rule="evenodd" clip-rule="evenodd" d="M14.6773 13.1402C14.6773 13.5982 14.3093 13.9702 13.8563 13.9702C13.4033 13.9702 13.0343 13.5982 13.0343 13.1402V10.9802C13.0343 10.5282 13.4033 10.1602 13.8563 10.1602C14.3093 10.1602 14.6773 10.5282 14.6773 10.9802V13.1402ZM13.8563 8.66016C12.5753 8.66016 11.5343 9.70116 11.5343 10.9802V13.1402C11.5343 14.4252 12.5753 15.4702 13.8563 15.4702C15.1363 15.4702 16.1773 14.4252 16.1773 13.1402V10.9802C16.1773 9.70116 15.1363 8.66016 13.8563 8.66016Z" fill="black"/>
<path fill-rule="evenodd" clip-rule="evenodd" d="M18.7661 9.42731C18.4811 9.42831 18.2211 9.59131 18.0961 9.84731C17.9701 10.1033 18.0001 10.4073 18.1741 10.6333L19.6641 12.5763C19.6841 12.6033 19.7161 12.6153 19.7391 12.6373C19.7531 12.6533 19.7711 12.6633 19.7871 12.6773C19.8461 12.7273 19.9041 12.7743 19.9751 12.8043C20.0261 12.8273 20.0831 12.8323 20.1391 12.8423C20.1801 12.8493 20.2171 12.8703 20.2591 12.8703C20.2621 12.8703 20.2651 12.8683 20.2681 12.8683C20.2711 12.8683 20.2741 12.8703 20.2781 12.8703C20.5321 12.8703 20.7461 12.7353 20.8811 12.5423L22.3521 10.6213C22.5261 10.3943 22.5551 10.0883 22.4281 9.83231C22.3011 9.57631 22.0411 9.41531 21.7561 9.41531H21.7531L21.0281 9.41831V8.39031C21.0281 5.20731 18.9791 3.07031 15.9291 3.07031H8.26011C5.21011 3.07031 3.16211 5.20731 3.16211 8.39031V15.6113C3.16211 18.7923 5.21111 20.9303 8.26111 20.9303H15.9291C18.9791 20.9303 21.0281 18.7923 21.0281 15.6113C21.0281 15.1973 20.6921 14.8613 20.2781 14.8613C19.8641 14.8613 19.5281 15.1973 19.5281 15.6113C19.5281 17.9313 18.1161 19.4303 15.9291 19.4303H8.26111C6.07511 19.4303 4.66211 17.9313 4.66211 15.6113V8.39031C4.66211 6.07031 6.07411 4.57031 8.26011 4.57031H15.9291C18.1161 4.57031 19.5281 6.07031 19.5281 8.39031V9.42431L18.7661 9.42731Z" fill="black"/>
</svg>