<svg width="25" height="24" viewBox="0 0 25 24" fill="none" xmlns="http://www.w3.org/2000/svg">
<path d="M20.2006 15.6129C20.2006 18.2905 18.5329 20.183 15.8523 20.183H8.1842C5.50265 20.183 3.83398 18.2905 3.83398 15.6129V8.38652C3.83398 5.70886 5.50265 3.81641 8.18323 3.81641H15.8523C18.5251 3.81641 20.2006 5.70886 20.2006 8.38652V12.1169" stroke="black" stroke-width="1.5" stroke-linecap="round" stroke-linejoin="round"/>
<path d="M9.00977 14.5564V9.44141" stroke="black" stroke-width="1.5" stroke-linecap="round" stroke-linejoin="round"/>
<path fill-rule="evenodd" clip-rule="evenodd" d="M13.1788 14.6533C12.3109 14.6533 11.6074 13.9499 11.6074 13.082V10.9161C11.6074 10.0472 12.3109 9.34375 13.1788 9.34375C14.0467 9.34375 14.7502 10.0472 14.7502 10.9161V13.082C14.7502 13.9499 14.0467 14.6533 13.1788 14.6533Z" stroke="black" stroke-width="1.5" stroke-linecap="round" stroke-linejoin="round"/>
<path d="M21.8336 10.4648L20.1815 12.117L18.5391 10.4746" stroke="black" stroke-width="1.5" stroke-linecap="round" stroke-linejoin="round"/>
</svg>