<svg width="25" height="24" viewBox="0 0 25 24" fill="none" xmlns="http://www.w3.org/2000/svg">
<path d="M19.8317 11.813C19.7324 7.34318 16.078 3.75 11.5838 3.75C7.02738 3.75 3.33398 7.44437 3.33398 11.9998C3.33398 16.5562 7.02738 20.2496 11.5838 20.2496C14.4006 20.2496 16.8875 18.8388 18.3761 16.6837" stroke="black" stroke-width="1.5" stroke-linecap="round" stroke-linejoin="round"/>
<path opacity="0.4" d="M8.25977 14.6116V9.38672" stroke="black" stroke-width="1.5" stroke-linecap="round" stroke-linejoin="round"/>
<path opacity="0.4" fill-rule="evenodd" clip-rule="evenodd" d="M12.5195 14.7134C11.6331 14.7134 10.9141 13.9944 10.9141 13.108V10.8954C10.9141 10.0081 11.6331 9.28906 12.5195 9.28906C13.4058 9.28906 14.1249 10.0081 14.1249 10.8954V13.108C14.1249 13.9944 13.4058 14.7134 12.5195 14.7134Z" stroke="black" stroke-width="1.5" stroke-linecap="round" stroke-linejoin="round"/>
<path d="M21.3338 9.80078L20.0534 12.0211L17.8457 10.7475" stroke="black" stroke-width="1.5" stroke-linecap="round" stroke-linejoin="round"/>
</svg>