<svg width="25" height="24" viewBox="0 0 25 24" fill="none" xmlns="http://www.w3.org/2000/svg">
<path d="M19.8317 11.813C19.7324 7.34318 16.078 3.75 11.5838 3.75C7.02738 3.75 3.33398 7.44437 3.33398 11.9998C3.33398 16.5562 7.02738 20.2496 11.5838 20.2496C14.4006 20.2496 16.8875 18.8388 18.3761 16.6837" stroke="black" stroke-width="1.5" stroke-linecap="round" stroke-linejoin="round"/>
<path d="M21.3338 9.80078L20.0534 12.0211L17.8457 10.7475" stroke="black" stroke-width="1.5" stroke-linecap="round" stroke-linejoin="round"/>
<path opacity="0.4" d="M7.1084 10.5552C7.1084 9.7564 7.7564 9.10938 8.55423 9.10938C9.35304 9.10938 10.0001 9.7564 10.0001 10.5552C10.0001 11.353 9.35304 12.0001 8.55423 12.0001C9.35207 12.0001 9.99909 12.6478 9.99909 13.4456C9.99909 14.2435 9.35207 14.8915 8.55423 14.8915C7.75542 14.8915 7.1084 14.2435 7.1084 13.4456" stroke="black" stroke-width="1.5" stroke-linecap="round" stroke-linejoin="round"/>
<path opacity="0.4" fill-rule="evenodd" clip-rule="evenodd" d="M13.7242 14.8462C12.7931 14.8462 12.0391 14.0911 12.0391 13.161V10.8375C12.0391 9.90737 12.7931 9.15234 13.7242 9.15234C14.6554 9.15234 15.4094 9.90737 15.4094 10.8375V13.161C15.4094 14.0911 14.6554 14.8462 13.7242 14.8462Z" stroke="black" stroke-width="1.5" stroke-linecap="round" stroke-linejoin="round"/>
</svg>