<svg width="25" height="24" viewBox="0 0 25 24" fill="none" xmlns="http://www.w3.org/2000/svg">
<path opacity="0.4" fill-rule="evenodd" clip-rule="evenodd" d="M12.5701 2.5C7.33207 2.5 3.07007 6.762 3.07007 12C3.07007 17.239 7.33207 21.5 12.5701 21.5C17.8081 21.5 22.0701 17.239 22.0701 12C22.0701 6.762 17.8081 2.5 12.5701 2.5Z" fill="black"/>
<path fill-rule="evenodd" clip-rule="evenodd" d="M8.60199 15.4311C8.07499 15.1281 7.73699 14.6001 7.65099 13.9311C7.51399 12.7081 7.51299 11.4111 7.65199 10.0631C7.73299 9.40809 8.05999 8.87909 8.57299 8.57609C9.10199 8.26309 9.75299 8.23309 10.411 8.49509C11.482 8.93109 12.505 9.57909 13.369 10.3691C13.371 10.3701 13.374 10.3731 13.374 10.3731C13.864 10.8291 14.132 11.4101 14.13 12.0111C14.127 12.6081 13.857 13.1831 13.373 13.6271C12.526 14.4091 11.531 15.0401 10.421 15.4991C10.136 15.6201 9.84299 15.6801 9.55699 15.6801C9.21899 15.6801 8.89199 15.5971 8.60199 15.4311ZM13.919 15.9711C13.675 15.9711 13.435 15.8511 13.291 15.6321C13.064 15.2861 13.16 14.8211 13.506 14.5941C13.965 14.2921 15.271 13.3731 15.802 12.7461C16.181 12.3031 16.18 11.7011 15.803 11.2521C15.302 10.6681 13.97 9.71709 13.499 9.40009C13.156 9.16809 13.065 8.70209 13.296 8.35909C13.527 8.01609 13.994 7.92609 14.337 8.15609C14.527 8.28409 16.218 9.43209 16.946 10.2821C17.804 11.3011 17.803 12.7151 16.944 13.7181C16.1757 14.6269 14.4391 15.7759 14.3327 15.8463L14.33 15.8481C14.203 15.9311 14.06 15.9711 13.919 15.9711ZM9.85149 9.88782C9.64249 9.80482 9.45549 9.79682 9.33749 9.86682C9.19649 9.94982 9.15349 10.1408 9.14249 10.2318C9.01649 11.4588 9.01649 12.6468 9.13949 13.7518C9.15649 13.8788 9.20549 14.0478 9.34749 14.1288C9.47249 14.2008 9.65049 14.1968 9.84149 14.1168C10.7935 13.7218 11.6385 13.1868 12.3575 12.5228C12.4815 12.4098 12.6285 12.2278 12.6295 12.0048C12.6305 11.7798 12.4815 11.5928 12.3555 11.4748C11.6205 10.8038 10.7525 10.2538 9.85149 9.88782Z" fill="black"/>
</svg>