<svg width="25" height="24" viewBox="0 0 25 24" fill="none" xmlns="http://www.w3.org/2000/svg">
<path fill-rule="evenodd" clip-rule="evenodd" d="M2.5 12C2.5 6.61589 6.86481 2.25 12.25 2.25C17.6352 2.25 22 6.61589 22 12C22 17.3851 17.6351 21.75 12.25 21.75C6.86487 21.75 2.5 17.3851 2.5 12ZM12.25 3.75C7.69335 3.75 4 7.44421 4 12C4 16.5567 7.69329 20.25 12.25 20.25C16.8067 20.25 20.5 16.5567 20.5 12C20.5 7.44421 16.8067 3.75 12.25 3.75Z" fill="black"/>
<path fill-rule="evenodd" clip-rule="evenodd" d="M12.9795 8.35865C13.2107 8.01502 13.6768 7.92394 14.0204 8.15522L13.6016 8.77742C14.0204 8.15522 14.0204 8.15519 14.0204 8.15522L14.0268 8.15955L14.0432 8.17064L14.1037 8.21193C14.1556 8.24757 14.2299 8.29896 14.321 8.36296C14.5029 8.49076 14.753 8.66984 15.0255 8.87485C15.5513 9.27044 16.2268 9.81114 16.6252 10.2765L16.6291 10.281C17.4902 11.3031 17.4738 12.7278 16.6268 13.7195C16.2083 14.2137 15.5332 14.754 15.0089 15.1452C14.7377 15.3476 14.4902 15.5222 14.3105 15.6462C14.2205 15.7083 14.1471 15.758 14.0958 15.7924L14.036 15.8324L14.0197 15.8431L14.0152 15.8461L14.0139 15.847C14.0138 15.847 14.0132 15.8474 13.6016 15.2204L14.0139 15.847C13.6676 16.0743 13.202 15.9783 12.9747 15.632C12.7474 15.2858 12.8438 14.8208 13.19 14.5935L13.1936 14.5912L13.2067 14.5825L13.2597 14.5471C13.3063 14.5158 13.3743 14.4697 13.4585 14.4116C13.6271 14.2952 13.859 14.1316 14.1119 13.943C14.6352 13.5526 15.1861 13.1002 15.4828 12.7493L15.4855 12.7461C15.8567 12.3122 15.8695 11.7095 15.4838 11.2497C15.2043 10.9242 14.6543 10.4726 14.1237 10.0735C13.8674 9.88072 13.631 9.71141 13.4587 9.59029C13.3726 9.52982 13.3028 9.48161 13.255 9.44876L13.2003 9.41145L13.1867 9.4022L13.1835 9.40006C13.1835 9.40004 13.1835 9.40007 13.1835 9.40006M12.9795 8.35865C12.7482 8.70226 12.8399 9.16876 13.1835 9.40006Z" fill="black"/>
<path fill-rule="evenodd" clip-rule="evenodd" d="M8.28366 8.55925C8.82845 8.24975 9.47864 8.25054 10.0876 8.49265L10.0933 8.49493L10.0933 8.49495C11.218 8.95284 12.2354 9.62317 13.0514 10.3688L13.056 10.3729L13.0559 10.3729C13.5341 10.817 13.8154 11.392 13.8122 12.012C13.809 12.6303 13.5235 13.197 13.0533 13.6276C12.1879 14.4282 11.1961 15.047 10.1 15.5004C9.52277 15.7443 8.88177 15.7473 8.33898 15.4599C7.78472 15.1665 7.42244 14.6171 7.33488 13.9439L7.33314 13.9305L7.33326 13.9305C7.19748 12.7156 7.19519 11.4224 7.33251 10.0785L7.33434 10.0624C7.41308 9.42817 7.73621 8.87026 8.28366 8.55925ZM8.8238 10.2401C8.69771 11.4801 8.70124 12.6604 8.82313 13.7563C8.85521 13.9916 8.95892 14.0909 9.04081 14.1342C9.13372 14.1834 9.29782 14.2113 9.51751 14.1181L9.52401 14.1154L9.52402 14.1154C10.4693 13.7247 11.309 13.1982 12.0361 12.5252L12.0395 12.5221L12.0395 12.5221C12.2494 12.3302 12.3115 12.1445 12.3122 12.0043C12.3129 11.8656 12.254 11.6761 12.0372 11.4739C11.3443 10.8414 10.4782 10.2717 9.53082 9.88549C9.2579 9.77768 9.09743 9.8221 9.02461 9.86347C8.9549 9.90307 8.85509 10.0018 8.8238 10.2401Z" fill="black"/>
</svg>