<svg width="25" height="24" viewBox="0 0 25 24" fill="none" xmlns="http://www.w3.org/2000/svg">
<path d="M10.6934 14.5564H12.508C13.2338 14.5564 13.8225 13.9687 13.8225 13.2419C13.8225 12.517 13.2338 11.9284 12.508 11.9284H10.6934V9.44141H13.5734" stroke="black" stroke-width="1.5" stroke-linecap="round" stroke-linejoin="round"/>
<path d="M8.08691 14.5564V9.44141" stroke="black" stroke-width="1.5" stroke-linecap="round" stroke-linejoin="round"/>
<path d="M3.08356 8.38653C3.08356 5.70887 4.75223 3.81641 7.43281 3.81641H15.1019C17.7747 3.81641 19.4502 5.70887 19.4502 8.38653V12.117" stroke="black" stroke-width="1.5" stroke-linecap="round" stroke-linejoin="round"/>
<path d="M19.4502 15.6111C19.4502 18.2887 17.7825 20.1812 15.1019 20.1812H7.43379C4.75223 20.1812 3.08356 18.2887 3.08356 15.6111V12.0273" stroke="black" stroke-width="1.5" stroke-linecap="round" stroke-linejoin="round"/>
<path d="M21.084 10.4648L19.4318 12.117L17.7894 10.4746" stroke="black" stroke-width="1.5" stroke-linecap="round" stroke-linejoin="round"/>
</svg>