<svg width="25" height="24" viewBox="0 0 25 24" fill="none" xmlns="http://www.w3.org/2000/svg">
<path d="M8.49028 20.2996C6.39458 19.362 4.64799 17.6352 3.75888 15.3299C1.98262 10.7082 4.2781 5.52782 8.89973 3.74168C13.1119 2.11476 17.8028 3.89102 19.939 7.7333" stroke="black" stroke-width="1.5" stroke-linecap="round" stroke-linejoin="round"/>
<path d="M20.2718 4.74414V7.73292H17.2988" stroke="black" stroke-width="1.5" stroke-linecap="round" stroke-linejoin="round"/>
<path d="M12.1654 7.91602V12.0975H8.71875" stroke="black" stroke-width="1.5" stroke-linecap="round" stroke-linejoin="round"/>
<path d="M14.408 20.7545V15.3477L12.7168 16.7174" stroke="black" stroke-width="1.5" stroke-linecap="round" stroke-linejoin="round"/>
<path fill-rule="evenodd" clip-rule="evenodd" d="M19.43 20.8616C18.4756 20.8616 17.7012 20.0872 17.7012 19.1328V16.7503C17.7012 15.7949 18.4756 15.0215 19.43 15.0215C20.3853 15.0215 21.1587 15.7949 21.1587 16.7503V19.1328C21.1587 20.0872 20.3853 20.8616 19.43 20.8616Z" stroke="black" stroke-width="1.5" stroke-linecap="round" stroke-linejoin="round"/>
</svg>