<svg width="25" height="24" viewBox="0 0 25 24" fill="none" xmlns="http://www.w3.org/2000/svg">
<path fill-rule="evenodd" clip-rule="evenodd" d="M2.33398 11.9998C2.33398 7.03021 6.36311 3 11.3338 3C16.2366 3 20.2232 6.91982 20.3315 11.7964C20.3407 12.2105 20.0124 12.5536 19.5983 12.5628C19.1842 12.572 18.8411 12.2438 18.8319 11.8297C18.7417 7.76654 15.4193 4.5 11.3338 4.5C7.19165 4.5 3.83398 7.85853 3.83398 11.9998C3.83398 16.142 7.1916 19.4996 11.3338 19.4996C13.8939 19.4996 16.1545 18.2184 17.509 16.2574C17.7444 15.9166 18.2116 15.8312 18.5524 16.0666C18.8932 16.302 18.9786 16.7691 18.7432 17.11C17.1204 19.4593 14.4072 20.9996 11.3338 20.9996C6.36317 20.9996 2.33398 16.9705 2.33398 11.9998Z" fill="black"/>
<path fill-rule="evenodd" clip-rule="evenodd" d="M8.00977 8.63672C8.42398 8.63672 8.75977 8.97251 8.75977 9.38672V14.6116C8.75977 15.0258 8.42398 15.3616 8.00977 15.3616C7.59555 15.3616 7.25977 15.0258 7.25977 14.6116V9.38672C7.25977 8.97251 7.59555 8.63672 8.00977 8.63672Z" fill="black"/>
<path fill-rule="evenodd" clip-rule="evenodd" d="M12.2695 10.0391C11.7976 10.0391 11.4141 10.422 11.4141 10.8954V13.108C11.4141 13.5801 11.7973 13.9634 12.2695 13.9634C12.7416 13.9634 13.1249 13.5801 13.1249 13.108V10.8954C13.1249 10.422 12.7413 10.0391 12.2695 10.0391ZM9.91406 10.8954C9.91406 9.59417 10.9686 8.53906 12.2695 8.53906C13.5704 8.53906 14.6249 9.59417 14.6249 10.8954V13.108C14.6249 14.4086 13.5701 15.4634 12.2695 15.4634C10.9689 15.4634 9.91406 14.4086 9.91406 13.108V10.8954Z" fill="black"/>
<path fill-rule="evenodd" clip-rule="evenodd" d="M21.4586 9.1512C21.8174 9.35813 21.9406 9.81676 21.7336 10.1756L20.4532 12.3959C20.3538 12.5682 20.19 12.694 19.9979 12.7456C19.8058 12.7972 19.601 12.7703 19.4287 12.6709L17.221 11.3973C16.8623 11.1903 16.7392 10.7316 16.9462 10.3728C17.1532 10.014 17.6118 9.89098 17.9706 10.098L19.5285 10.9967L20.4342 9.42623C20.6412 9.06741 21.0998 8.94427 21.4586 9.1512Z" fill="black"/>
</svg>