<svg width="25" height="24" viewBox="0 0 25 24" fill="none" xmlns="http://www.w3.org/2000/svg">
<g opacity="0.4">
<path fill-rule="evenodd" clip-rule="evenodd" d="M20.8391 8.72731C21.3911 8.72731 21.8391 8.27931 21.8391 7.72731V4.73731C21.8391 4.18531 21.3911 3.73731 20.8391 3.73731C20.2871 3.73731 19.8391 4.18531 19.8391 4.73731V5.17531C17.1191 2.37331 12.8871 1.34331 9.10614 2.80531C3.98814 4.78731 1.42514 10.5653 3.39314 15.6863C4.34214 18.1543 6.20914 20.1153 8.64814 21.2103C8.78114 21.2693 8.92014 21.2983 9.05714 21.2983C9.43914 21.2983 9.80314 21.0783 9.97014 20.7063C10.1961 20.2033 9.97014 19.6113 9.46614 19.3853C7.51214 18.5083 6.01814 16.9393 5.26014 14.9683C3.68614 10.8753 5.73614 6.25531 9.82814 4.67031C12.9191 3.47331 16.3861 4.36731 18.5511 6.72731H17.8661C17.3141 6.72731 16.8661 7.17531 16.8661 7.72731C16.8661 8.27931 17.3141 8.72731 17.8661 8.72731H20.8391Z" fill="black"/>
<path fill-rule="evenodd" clip-rule="evenodd" d="M13.7323 12.097V7.91699C13.7323 7.36499 13.2843 6.91699 12.7323 6.91699C12.1803 6.91699 11.7323 7.36499 11.7323 7.91699V11.097H9.28625C8.73425 11.097 8.28625 11.545 8.28625 12.097C8.28625 12.649 8.73425 13.097 9.28625 13.097H12.7323C13.2843 13.097 13.7323 12.649 13.7323 12.097Z" fill="black"/>
</g>
<path fill-rule="evenodd" clip-rule="evenodd" d="M20.7264 19.1271C20.7264 19.5301 20.3994 19.8571 19.9974 19.8571C19.5954 19.8571 19.2684 19.5301 19.2684 19.1271V16.7471C19.2684 16.3451 19.5954 16.0171 19.9974 16.0171C20.3994 16.0171 20.7264 16.3451 20.7264 16.7471V19.1271ZM19.9974 14.0171C18.4924 14.0171 17.2684 15.2421 17.2684 16.7471V19.1271C17.2684 20.6321 18.4924 21.8571 19.9974 21.8571C21.5024 21.8571 22.7264 20.6321 22.7264 19.1271V16.7471C22.7264 15.2421 21.5024 14.0171 19.9974 14.0171Z" fill="black"/>
<path fill-rule="evenodd" clip-rule="evenodd" d="M14.4536 19.8573C14.0866 19.8573 13.7886 19.5613 13.7886 19.1973C13.7886 18.8273 14.0866 18.5273 14.4536 18.5273C14.8216 18.5273 15.1206 18.8273 15.1206 19.1973C15.1206 19.5613 14.8216 19.8573 14.4536 19.8573ZM14.4536 16.5273C14.2496 16.5273 14.0526 16.5553 13.8616 16.5983C13.9156 16.3903 14.0046 16.2653 14.1416 16.1693C14.4326 15.9673 14.8356 15.9873 15.1216 16.2163C15.5526 16.5633 16.1826 16.4943 16.5276 16.0633C16.8726 15.6323 16.8046 15.0033 16.3736 14.6573C15.4016 13.8773 14.0166 13.8243 12.9976 14.5283C11.7886 15.3753 11.7886 16.7163 11.7886 17.5173V19.1973C11.7886 20.6643 12.9836 21.8573 14.4536 21.8573C15.9246 21.8573 17.1206 20.6643 17.1206 19.1973C17.1206 17.7253 15.9246 16.5273 14.4536 16.5273Z" fill="black"/>
</svg>