<svg width="25" height="24" viewBox="0 0 25 24" fill="none" xmlns="http://www.w3.org/2000/svg">
<path fill-rule="evenodd" clip-rule="evenodd" d="M8.5625 9.35156C8.5625 8.93735 8.89829 8.60156 9.3125 8.60156H12.2966C12.7108 8.60156 13.0466 8.93735 13.0466 9.35156C13.0466 9.76578 12.7108 10.1016 12.2966 10.1016H10.0625V11.179H11.1933C12.3589 11.179 13.3054 12.1231 13.3054 13.2901C13.3054 14.4565 12.3596 15.4023 11.1933 15.4023H9.3125C8.89829 15.4023 8.5625 15.0665 8.5625 14.6523C8.5625 14.2381 8.89829 13.9023 9.3125 13.9023H11.1933C11.5311 13.9023 11.8054 13.628 11.8054 13.2901C11.8054 12.953 11.5318 12.679 11.1933 12.679H9.3125C8.89829 12.679 8.5625 12.3432 8.5625 11.929V9.35156Z" fill="black"/>
<path fill-rule="evenodd" clip-rule="evenodd" d="M2.33398 11.9998C2.33398 7.03021 6.36311 3 11.3338 3C16.2366 3 20.2232 6.91982 20.3315 11.7964C20.3407 12.2105 20.0124 12.5536 19.5983 12.5628C19.1842 12.572 18.8411 12.2438 18.8319 11.8297C18.7417 7.76654 15.4193 4.5 11.3338 4.5C7.19165 4.5 3.83398 7.85853 3.83398 11.9998C3.83398 16.142 7.1916 19.4996 11.3338 19.4996C13.8939 19.4996 16.1545 18.2184 17.509 16.2574C17.7444 15.9166 18.2116 15.8312 18.5524 16.0666C18.8932 16.302 18.9786 16.7691 18.7432 17.11C17.1204 19.4593 14.4072 20.9996 11.3338 20.9996C6.36317 20.9996 2.33398 16.9705 2.33398 11.9998Z" fill="black"/>
<path fill-rule="evenodd" clip-rule="evenodd" d="M21.4586 9.1512C21.8174 9.35813 21.9406 9.81676 21.7336 10.1756L20.4532 12.3959C20.3538 12.5682 20.19 12.694 19.9979 12.7456C19.8058 12.7972 19.601 12.7703 19.4287 12.6709L17.221 11.3973C16.8623 11.1903 16.7392 10.7316 16.9462 10.3728C17.1532 10.014 17.6118 9.89098 17.9706 10.098L19.5285 10.9967L20.4342 9.42623C20.6412 9.06741 21.0998 8.94427 21.4586 9.1512Z" fill="black"/>
</svg>