<svg width="25" height="24" viewBox="0 0 25 24" fill="none" xmlns="http://www.w3.org/2000/svg">
<path d="M8.73724 21.0435C8.63169 21.0436 8.52733 21.0211 8.43124 20.9775C7.02495 20.3532 5.78711 19.4038 4.81973 18.2073C3.85234 17.0109 3.1831 15.6017 2.86714 14.0959C2.55117 12.5901 2.59751 11.0307 3.00237 9.54633C3.40723 8.06194 4.15901 6.695 5.19576 5.55813C6.23251 4.42127 7.52456 3.54702 8.96545 3.00742C10.4063 2.46782 11.9548 2.27831 13.4833 2.45452C15.0118 2.63073 16.4765 3.1676 17.7568 4.0209C19.0371 4.87421 20.0964 6.01952 20.8472 7.36247C20.9439 7.53645 20.9675 7.74171 20.9128 7.93309C20.8582 8.12447 20.7297 8.2863 20.5557 8.38297C20.3818 8.47964 20.1765 8.50324 19.9851 8.44857C19.7937 8.3939 19.6319 8.26545 19.5352 8.09147C18.8998 6.95624 18.0037 5.98827 16.9208 5.26733C15.8379 4.54639 14.5991 4.09313 13.3066 3.94489C12.0142 3.79665 10.7049 3.95768 9.4869 4.41472C8.26887 4.87175 7.17688 5.6117 6.30094 6.57358C5.425 7.53546 4.79019 8.69173 4.44882 9.9471C4.10744 11.2025 4.06928 12.521 4.33749 13.794C4.60569 15.067 5.1726 16.2581 5.99145 17.269C6.8103 18.2799 7.85767 19.0818 9.04723 19.6085C9.20427 19.6785 9.33248 19.8003 9.41039 19.9536C9.48831 20.1069 9.5112 20.2822 9.47523 20.4504C9.43926 20.6185 9.34661 20.7692 9.21281 20.8771C9.079 20.9851 8.91216 21.0438 8.74023 21.0435H8.73724Z" fill="black"/>
<path d="M20.5189 8.47728H17.5469C17.348 8.47728 17.1572 8.39826 17.0165 8.25761C16.8759 8.11695 16.7969 7.92619 16.7969 7.72728C16.7969 7.52837 16.8759 7.3376 17.0165 7.19695C17.1572 7.05629 17.348 6.97728 17.5469 6.97728H19.7699V4.73828C19.7699 4.53937 19.8489 4.3486 19.9895 4.20795C20.1302 4.06729 20.321 3.98828 20.5199 3.98828C20.7188 3.98828 20.9095 4.06729 21.0502 4.20795C21.1909 4.3486 21.2699 4.53937 21.2699 4.73828V7.72728C21.2699 7.82586 21.2504 7.92346 21.2127 8.01452C21.1749 8.10558 21.1196 8.18831 21.0499 8.25797C20.9801 8.32762 20.8973 8.38284 20.8062 8.42047C20.7151 8.4581 20.6175 8.47741 20.5189 8.47728Z" fill="black"/>
<path d="M12.4108 12.8422H8.96484C8.76593 12.8422 8.57518 12.7631 8.43452 12.6225C8.29387 12.4818 8.21484 12.2911 8.21484 12.0922C8.21484 11.8932 8.29387 11.7025 8.43452 11.5618C8.57518 11.4212 8.76593 11.3422 8.96484 11.3422H11.6649V7.91016C11.6649 7.71124 11.7439 7.52048 11.8845 7.37983C12.0252 7.23918 12.2159 7.16016 12.4149 7.16016C12.6138 7.16016 12.8045 7.23918 12.9452 7.37983C13.0858 7.52048 13.1649 7.71124 13.1649 7.91016V12.0942C13.1646 12.1928 13.1449 12.2905 13.1068 12.3815C13.0688 12.4725 13.0131 12.5551 12.9431 12.6246C12.873 12.6941 12.7899 12.7491 12.6986 12.7864C12.6073 12.8237 12.5095 12.8427 12.4108 12.8422Z" fill="black"/>
<path d="M14.656 21.4959C14.457 21.4959 14.2663 21.4169 14.1256 21.2762C13.985 21.1356 13.906 20.9448 13.906 20.7459V16.9159L13.437 17.2959C13.2823 17.4211 13.0843 17.4797 12.8865 17.4589C12.6886 17.4381 12.5071 17.3395 12.382 17.1849C12.2568 17.0303 12.1981 16.8323 12.219 16.6344C12.2398 16.4366 12.3383 16.2551 12.493 16.1299L14.184 14.7609C14.2941 14.6717 14.4271 14.6156 14.5678 14.5989C14.7085 14.5823 14.851 14.6058 14.9789 14.6668C15.1068 14.7278 15.2147 14.8238 15.2903 14.9436C15.3659 15.0634 15.406 15.2022 15.406 15.3439V20.7499C15.4049 20.9481 15.3254 21.1379 15.1849 21.2776C15.0443 21.4174 14.8542 21.4959 14.656 21.4959Z" fill="black"/>
<path d="M19.6782 21.6066C19.021 21.6058 18.3909 21.3444 17.9262 20.8797C17.4614 20.4149 17.2 19.7849 17.1992 19.1276V16.7446C17.1992 16.4191 17.2633 16.0967 17.3879 15.796C17.5125 15.4952 17.6951 15.2219 17.9253 14.9917C18.1555 14.7615 18.4288 14.5789 18.7295 14.4543C19.0303 14.3297 19.3527 14.2656 19.6782 14.2656C20.0038 14.2656 20.3261 14.3297 20.6269 14.4543C20.9277 14.5789 21.2009 14.7615 21.4311 14.9917C21.6613 15.2219 21.8439 15.4952 21.9685 15.796C22.0931 16.0967 22.1572 16.4191 22.1572 16.7446V19.1276C22.1564 19.7849 21.895 20.4149 21.4303 20.8797C20.9655 21.3444 20.3354 21.6058 19.6782 21.6066ZM19.6782 15.7656C19.4186 15.7659 19.1698 15.8691 18.9863 16.0527C18.8027 16.2362 18.6995 16.4851 18.6992 16.7446V19.1276C18.6992 19.3873 18.8024 19.6363 18.986 19.8199C19.1696 20.0035 19.4186 20.1066 19.6782 20.1066C19.9379 20.1066 20.1869 20.0035 20.3705 19.8199C20.5541 19.6363 20.6572 19.3873 20.6572 19.1276V16.7446C20.6569 16.4851 20.5537 16.2362 20.3702 16.0527C20.1866 15.8691 19.9378 15.7659 19.6782 15.7656Z" fill="black"/>
</svg>