<svg width="25" height="24" viewBox="0 0 25 24" fill="none" xmlns="http://www.w3.org/2000/svg">
<path d="M20.2006 15.6129C20.2006 18.2905 18.5329 20.183 15.8523 20.183H8.1842C5.50265 20.183 3.83398 18.2905 3.83398 15.6129V8.38652C3.83398 5.70886 5.50265 3.81641 8.18323 3.81641H15.8523C18.5251 3.81641 20.2006 5.70886 20.2006 8.38652V12.1169" stroke="black" stroke-width="1.5" stroke-linecap="round" stroke-linejoin="round"/>
<path d="M7.50829 10.7109C7.50829 9.96653 8.11154 9.36328 8.85587 9.36328C9.60021 9.36328 10.2035 9.96653 10.2035 10.7109C10.2035 11.4552 9.60021 12.0594 8.85587 12.0594C9.60118 12.0594 10.204 12.6627 10.204 13.407C10.204 14.1523 9.6007 14.7556 8.8554 14.7556C8.11106 14.7556 7.50781 14.1523 7.50781 13.407" stroke="black" stroke-width="1.5" stroke-linecap="round" stroke-linejoin="round"/>
<path fill-rule="evenodd" clip-rule="evenodd" d="M13.7823 14.7158C12.9144 14.7158 12.2109 14.0124 12.2109 13.1445V10.9776C12.2109 10.1097 12.9144 9.40625 13.7823 9.40625C14.6502 9.40625 15.3537 10.1097 15.3537 10.9776V13.1445C15.3537 14.0124 14.6502 14.7158 13.7823 14.7158Z" stroke="black" stroke-width="1.5" stroke-linecap="round" stroke-linejoin="round"/>
<path d="M21.8336 10.4648L20.1815 12.117L18.5391 10.4746" stroke="black" stroke-width="1.5" stroke-linecap="round" stroke-linejoin="round"/>
</svg>