<svg width="25" height="24" viewBox="0 0 25 24" fill="none" xmlns="http://www.w3.org/2000/svg">
<path opacity="0.4" fill-rule="evenodd" clip-rule="evenodd" d="M18.7661 9.42731C18.4811 9.42831 18.2211 9.59131 18.0961 9.84731C17.9701 10.1033 18.0001 10.4073 18.1741 10.6333L19.6641 12.5763C19.6841 12.6033 19.7161 12.6153 19.7391 12.6373C19.7531 12.6533 19.7711 12.6633 19.7871 12.6773C19.8461 12.7273 19.9041 12.7743 19.9751 12.8043C20.0261 12.8273 20.0831 12.8323 20.1391 12.8423C20.1801 12.8493 20.2171 12.8703 20.2591 12.8703C20.2621 12.8703 20.2651 12.8683 20.2681 12.8683C20.2711 12.8683 20.2741 12.8703 20.2781 12.8703C20.5321 12.8703 20.7461 12.7353 20.8811 12.5423L22.3521 10.6213C22.5261 10.3943 22.5551 10.0883 22.4281 9.83231C22.3001 9.57531 21.9911 9.41631 21.7531 9.41531L21.0281 9.41831V8.39031C21.0281 5.20731 18.9791 3.07031 15.9291 3.07031H8.26011C5.21011 3.07031 3.16211 5.20731 3.16211 8.39031V15.6113C3.16211 18.7923 5.21111 20.9303 8.26111 20.9303H15.9291C18.9791 20.9303 21.0281 18.7923 21.0281 15.6113C21.0281 15.1973 20.6921 14.8613 20.2781 14.8613C19.8641 14.8613 19.5281 15.1973 19.5281 15.6113C19.5281 17.9313 18.1161 19.4303 15.9291 19.4303H8.26111C6.07511 19.4303 4.66211 17.9313 4.66211 15.6113V8.39031C4.66211 6.07031 6.07411 4.57031 8.26011 4.57031H15.9291C18.1161 4.57031 19.5281 6.07031 19.5281 8.39031V9.42431L18.7661 9.42731Z" fill="black"/>
<path fill-rule="evenodd" clip-rule="evenodd" d="M13.3203 13.8075H11.5063C11.0913 13.8075 10.7563 14.1435 10.7563 14.5575C10.7563 14.9715 11.0913 15.3075 11.5063 15.3075H13.3203C14.4593 15.3075 15.3843 14.3785 15.3843 13.2375C15.3843 12.1015 14.4593 11.1775 13.3203 11.1775H12.2563V10.1875H14.3853C14.7993 10.1875 15.1353 9.8515 15.1353 9.4375C15.1353 9.0235 14.7993 8.6875 14.3853 8.6875H11.5063C11.0913 8.6875 10.7563 9.0235 10.7563 9.4375V11.9275C10.7563 12.3415 11.0913 12.6775 11.5063 12.6775H13.3203C13.6323 12.6775 13.8843 12.9285 13.8843 13.2375C13.8843 13.5515 13.6323 13.8075 13.3203 13.8075Z" fill="black"/>
<path fill-rule="evenodd" clip-rule="evenodd" d="M8.14844 9.4375V14.5575C8.14844 14.9715 8.48444 15.3075 8.89844 15.3075C9.31244 15.3075 9.64844 14.9715 9.64844 14.5575V9.4375C9.64844 9.0235 9.31244 8.6875 8.89844 8.6875C8.48444 8.6875 8.14844 9.0235 8.14844 9.4375Z" fill="black"/>
</svg>