<svg width="24" height="24" viewBox="0 0 24 24" fill="none" xmlns="http://www.w3.org/2000/svg">
<path fill-rule="evenodd" clip-rule="evenodd" d="M20.983 9.88079C19.4976 8.524 17.6424 7.30236 15.6002 6.47099C13.8618 5.78017 12.4066 6.64289 12.1926 8.37157C11.9331 10.9197 11.9385 13.3598 12.1926 15.6366C12.4261 17.4334 14.0294 18.1955 15.6002 17.5285C17.6111 16.6971 19.4143 15.5695 20.983 14.1187C22.3225 12.8938 22.3549 11.1532 20.983 9.88079Z" stroke="black" stroke-width="1.5" stroke-linecap="round" stroke-linejoin="round"/>
<path fill-rule="evenodd" clip-rule="evenodd" d="M10.983 9.88079C9.49757 8.524 7.64241 7.30236 5.60021 6.47099C3.8618 5.78017 2.40663 6.64289 2.19258 8.37157C1.93311 10.9197 1.93852 13.3598 2.19258 15.6366C2.42609 17.4334 4.02937 18.1955 5.60021 17.5285C7.61105 16.6971 9.41433 15.5695 10.983 14.1187C12.3225 12.8938 12.3549 11.1532 10.983 9.88079Z" stroke="black" stroke-width="1.5" stroke-linecap="round" stroke-linejoin="round"/>
</svg>