<svg width="24" height="24" viewBox="0 0 24 24" fill="none" xmlns="http://www.w3.org/2000/svg">
<path fill-rule="evenodd" clip-rule="evenodd" d="M12 3.75C7.44329 3.75 3.75 7.44329 3.75 12C3.75 16.5567 7.44329 20.25 12 20.25C16.5567 20.25 20.25 16.5567 20.25 12C20.25 7.44329 16.5567 3.75 12 3.75ZM2.25 12C2.25 6.61487 6.61487 2.25 12 2.25C17.3851 2.25 21.75 6.61487 21.75 12C21.75 17.3851 17.3851 21.75 12 21.75C6.61487 21.75 2.25 17.3851 2.25 12Z" fill="black"/>
<path fill-rule="evenodd" clip-rule="evenodd" d="M7.95898 8.29508C7.95898 7.30562 8.76069 6.50391 9.75015 6.50391H15.4766C16.2689 6.50391 16.8667 7.22082 16.7271 7.9991L15.803 13.1396C15.649 13.9927 14.9068 14.6134 14.0405 14.6143H12.3718L9.95027 17.6099C9.93367 17.6304 9.916 17.6501 9.89733 17.6687C9.18235 18.3837 7.95898 17.8775 7.95898 16.8656V8.29508ZM9.75015 8.00391C9.58912 8.00391 9.45898 8.13404 9.45898 8.29508V15.8316L11.4304 13.3928C11.5728 13.2167 11.7872 13.1143 12.0137 13.1143L14.039 13.1143C14.0389 13.1143 14.0391 13.1143 14.039 13.1143C14.1804 13.114 14.3015 13.0129 14.3267 12.8739C14.3267 12.874 14.3267 12.8738 14.3267 12.8739L15.2021 8.00391H9.75015Z" fill="black"/>
<path fill-rule="evenodd" clip-rule="evenodd" d="M11.6035 10.3775C11.6035 9.96326 11.9393 9.62747 12.3535 9.62747H15.477C15.8912 9.62747 16.227 9.96326 16.227 10.3775C16.227 10.7917 15.8912 11.1275 15.477 11.1275H12.3535C11.9393 11.1275 11.6035 10.7917 11.6035 10.3775Z" fill="black"/>
</svg>