<svg width="24" height="24" viewBox="0 0 24 24" fill="none" xmlns="http://www.w3.org/2000/svg">
<path opacity="0.4" d="M7.78216 3H16.2169C19.165 3 21 5.08119 21 8.02638V15.9736C21 18.9188 19.165 21 16.2159 21H7.78216C4.83405 21 3 18.9188 3 15.9736V8.02638C3 5.08119 4.84281 3 7.78216 3Z" stroke="black" stroke-width="1.5" stroke-linecap="round" stroke-linejoin="round"/>
<path fill-rule="evenodd" clip-rule="evenodd" d="M14.817 13.1457L15.7772 7.80464C15.8367 7.47305 15.5819 7.16797 15.2449 7.16797H9.29474C8.69702 7.16797 8.21289 7.6521 8.21289 8.24982V17.1552C8.21289 17.5122 8.64455 17.6907 8.89662 17.4387L11.6467 14.0366H13.752C14.2756 14.0361 14.724 13.6612 14.817 13.1457Z" stroke="black" stroke-width="1.5" stroke-linecap="round" stroke-linejoin="round"/>
<path d="M12 10.415H15.2455" stroke="black" stroke-width="1.5" stroke-linecap="round" stroke-linejoin="round"/>
</svg>