<svg width="24" height="24" viewBox="0 0 24 24" fill="none" xmlns="http://www.w3.org/2000/svg">
<path fill-rule="evenodd" clip-rule="evenodd" d="M4.68945 4.87447C4.68945 3.42461 5.86407 2.25 7.31393 2.25H17.6235C18.6754 2.25 19.4695 3.20191 19.284 4.23559L17.6203 13.4901C17.3947 14.7402 16.3071 15.6497 15.0375 15.651H11.7472L7.20739 21.2671C7.19079 21.2876 7.17312 21.3072 7.15445 21.3259C6.24531 22.235 4.68945 21.5913 4.68945 20.3045V4.87447ZM7.31393 3.75C6.69249 3.75 6.18945 4.25304 6.18945 4.87447V20.1403L10.8058 14.4295C10.9482 14.2534 11.1625 14.151 11.389 14.151L15.036 14.151C15.5804 14.1501 16.0472 13.7603 16.144 13.2245C16.144 13.2246 16.1441 13.2244 16.144 13.2245L17.8076 3.97066C17.8281 3.85538 17.7394 3.75 17.6235 3.75H7.31393Z" fill="black"/>
<path fill-rule="evenodd" clip-rule="evenodd" d="M11.25 8.62096C11.25 8.20674 11.5858 7.87096 12 7.87096H17.6234C18.0376 7.87096 18.3734 8.20674 18.3734 8.62096C18.3734 9.03517 18.0376 9.37096 17.6234 9.37096H12C11.5858 9.37096 11.25 9.03517 11.25 8.62096Z" fill="black"/>
</svg>