<svg width="24" height="24" viewBox="0 0 24 24" fill="none" xmlns="http://www.w3.org/2000/svg">
<path opacity="0.4" d="M12 21C16.9709 21 21 16.9709 21 12C21 7.02908 16.9709 3 12 3C7.02908 3 3 7.02908 3 12C3 16.9709 7.02908 21 12 21Z" stroke="black" stroke-width="1.5" stroke-linecap="round" stroke-linejoin="round"/>
<path fill-rule="evenodd" clip-rule="evenodd" d="M15.0648 13.0069L15.9888 7.86663C16.0461 7.54752 15.8009 7.25391 15.4766 7.25391H9.75015C9.17491 7.25391 8.70898 7.71983 8.70898 8.29508V16.8656C8.70898 17.2092 9.12441 17.381 9.367 17.1384L12.0137 13.8643H14.0398C14.5437 13.8638 14.9753 13.503 15.0648 13.0069Z" stroke="black" stroke-width="1.5" stroke-linecap="round" stroke-linejoin="round"/>
<path d="M12.3535 10.3775H15.477" stroke="black" stroke-width="1.5" stroke-linecap="round" stroke-linejoin="round"/>
</svg>