<svg width="25" height="24" viewBox="0 0 25 24" fill="none" xmlns="http://www.w3.org/2000/svg">
<path opacity="0.4" d="M11 3H5C4.60218 3 4.22064 3.15804 3.93934 3.43934C3.65804 3.72064 3.5 4.10218 3.5 4.5V10.5L4.25 12V18.75C4.25 19.1478 4.40804 19.5294 4.68934 19.8107C4.97064 20.092 5.35218 20.25 5.75 20.25H12.5L14 21H20C20.3978 21 20.7794 20.842 21.0607 20.5607C21.342 20.2794 21.5 19.8978 21.5 19.5V13.5L20.75 12V5.25C20.75 4.85218 20.592 4.47064 20.3107 4.18934C20.0294 3.90804 19.6478 3.75 19.25 3.75H12.5L11 3Z" stroke="black" stroke-width="1.5" stroke-linecap="round" stroke-linejoin="round"/>
<path d="M8.9375 8.4375H16.0625V15.5625H8.9375V8.4375Z" stroke="black" stroke-width="1.5" stroke-linecap="round" stroke-linejoin="round"/>
</svg>