<svg width="24" height="24" viewBox="0 0 24 24" fill="none" xmlns="http://www.w3.org/2000/svg">
<path fill-rule="evenodd" clip-rule="evenodd" d="M12 3.75C7.44329 3.75 3.75 7.44329 3.75 12C3.75 16.5567 7.44329 20.25 12 20.25C16.5567 20.25 20.25 16.5567 20.25 12C20.25 7.44329 16.5567 3.75 12 3.75ZM2.25 12C2.25 6.61487 6.61487 2.25 12 2.25C17.3851 2.25 21.75 6.61487 21.75 12C21.75 17.3851 17.3851 21.75 12 21.75C6.61487 21.75 2.25 17.3851 2.25 12Z" fill="black"/>
<path fill-rule="evenodd" clip-rule="evenodd" d="M7.8262 6.93955C7.94228 6.65929 8.21576 6.47656 8.51911 6.47656H15.4819C15.8961 6.47656 16.2319 6.81235 16.2319 7.22656V10.7077C16.2319 11.1219 15.8961 11.4577 15.4819 11.4577H13.8109L16.0122 13.659C16.2267 13.8735 16.2909 14.1961 16.1748 14.4763C16.0587 14.7566 15.7852 14.9393 15.4819 14.9393L12.7502 14.9393L12.7502 17.6708C12.7502 17.9742 12.5674 18.2476 12.2872 18.3637C12.0069 18.4798 11.6843 18.4157 11.4698 18.2012L7.98823 14.7197C7.84755 14.579 7.76852 14.3882 7.76855 14.1892L7.76911 10.7075C7.76917 10.2934 8.10494 9.95766 8.51911 9.95766H10.1895L7.98878 7.75689C7.77428 7.54239 7.71011 7.21981 7.8262 6.93955ZM12.3109 9.95766H14.7319V7.97656H10.3298L12.3109 9.95766ZM11.6895 11.4577H9.26899L9.2686 13.8787L11.2502 15.8602L11.2502 14.1893C11.2502 13.7751 11.586 13.4393 12.0002 13.4393L13.6712 13.4393L11.6895 11.4577Z" fill="black"/>
</svg>