<svg width="24" height="24" viewBox="0 0 24 24" fill="none" xmlns="http://www.w3.org/2000/svg">
<path fill-rule="evenodd" clip-rule="evenodd" d="M5.30804 2.71299C5.42413 2.43273 5.6976 2.25 6.00095 2.25H18.0006C18.4148 2.25 18.7506 2.58579 18.7506 3V8.99935C18.7506 9.41356 18.4148 9.74935 18.0006 9.74935H13.811L18.531 14.4693C18.7454 14.6838 18.8096 15.0064 18.6935 15.2867C18.5774 15.5669 18.304 15.7497 18.0006 15.7497L6 15.7497C5.58579 15.7497 5.25 15.4139 5.25 14.9997C5.25 14.9869 5.25032 14.9742 5.25095 14.9616V8.99935C5.25095 8.58513 5.58674 8.24935 6.00095 8.24935H10.1896L5.47062 3.53033C5.25612 3.31583 5.19195 2.99324 5.30804 2.71299ZM12.311 8.24935H17.2506V3.75H7.81161L12.311 8.24935ZM11.6896 9.74935H6.75095V14.2497L16.19 14.2497L11.6896 9.74935Z" fill="black"/>
<path fill-rule="evenodd" clip-rule="evenodd" d="M5.46967 14.4697C5.76256 14.1768 6.23744 14.1768 6.53033 14.4697L11.2503 19.1897V15C11.2503 14.5858 11.5861 14.25 12.0003 14.25C12.4145 14.25 12.7503 14.5858 12.7503 15V21.0003C12.7503 21.3037 12.5676 21.5771 12.2873 21.6932C12.0071 21.8093 11.6845 21.7452 11.47 21.5307L5.46967 15.5303C5.17678 15.2374 5.17678 14.7626 5.46967 14.4697Z" fill="black"/>
</svg>