<svg width="24" height="24" viewBox="0 0 24 24" fill="none" xmlns="http://www.w3.org/2000/svg">
<path fill-rule="evenodd" clip-rule="evenodd" d="M3.7402 3.89737C4.72468 2.84117 6.12669 2.25 7.78216 2.25H16.2169C17.8762 2.25 19.2789 2.84085 20.2629 3.89765C21.2413 4.94842 21.75 6.39889 21.75 8.02638V15.9736C21.75 17.6011 21.2413 19.0516 20.2627 20.1024C19.2785 21.1592 17.8757 21.75 16.2159 21.75H7.78216C6.1228 21.75 4.72038 21.1591 3.73657 20.1023C2.75842 19.0514 2.25 17.601 2.25 15.9736V8.02638C2.25 6.39806 2.76117 4.94771 3.7402 3.89737ZM4.83745 4.92012C4.16024 5.64667 3.75 6.70951 3.75 8.02638V15.9736C3.75 17.2914 4.15861 18.3541 4.83451 19.0802C5.50475 19.8003 6.49341 20.25 7.78216 20.25H16.2159C17.5052 20.25 18.4944 19.8002 19.165 19.0801C19.8412 18.354 20.25 17.2913 20.25 15.9736V8.02638C20.25 6.70868 19.8412 5.64596 19.1651 4.91984C18.4946 4.19975 17.5057 3.75 16.2169 3.75H7.78216C6.49828 3.75 5.50921 4.19943 4.83745 4.92012Z" fill="black"/>
<path fill-rule="evenodd" clip-rule="evenodd" d="M7.61139 6.17002C7.72747 5.88976 8.00095 5.70703 8.3043 5.70703H15.6955C16.1097 5.70703 16.4455 6.04282 16.4455 6.45703V10.1523C16.4455 10.5665 16.1097 10.9023 15.6955 10.9023H13.8102L16.2258 13.3179C16.4403 13.5324 16.5045 13.855 16.3884 14.1352C16.2723 14.4155 15.9988 14.5982 15.6955 14.5982L12.7496 14.5982L12.7496 17.5439C12.7496 17.8473 12.5669 18.1208 12.2866 18.2368C12.0064 18.3529 11.6838 18.2888 11.4693 18.0743L7.77339 14.3786C7.6327 14.2379 7.55368 14.0471 7.55371 13.8481L7.5543 10.1522C7.55436 9.73804 7.89013 9.40232 8.3043 9.40232H10.1889L7.77397 6.98736C7.55947 6.77286 7.4953 6.45027 7.61139 6.17002ZM12.3102 9.40232H14.9455V7.20703H10.115L12.3102 9.40232ZM11.6889 10.9023H9.05418L9.05376 13.5376L11.2496 15.7333L11.2496 13.8482C11.2496 13.6493 11.3286 13.4585 11.4693 13.3179C11.6099 13.1772 11.8007 13.0982 11.9996 13.0982L13.8848 13.0982L11.6889 10.9023Z" fill="black"/>
</svg>