<svg width="24" height="24" viewBox="0 0 24 24" fill="none" xmlns="http://www.w3.org/2000/svg">
<path d="M9.77669 3.53125H11.8473C12.1073 3.53125 12.3179 3.74195 12.3179 4.00185V6.44899C12.3179 6.7089 12.1072 6.91959 11.8473 6.91959H9.77669C9.55232 6.91959 9.3362 7.013 9.17778 7.16502C9.01843 7.3262 8.9296 7.53774 8.9296 7.76668V10.3079H14.2233V7.76668C14.2233 6.64028 14.6693 5.56426 15.4642 4.76754C16.2582 3.97998 17.3351 3.53125 18.4587 3.53125H20.5294C20.7893 3.53125 21 3.74195 21 4.00185V6.44899C21 6.7089 20.7893 6.91959 20.5294 6.91959H18.4587C18.2344 6.91959 18.0183 7.013 17.8598 7.16502C17.7005 7.3262 17.6117 7.53774 17.6117 7.76668V10.3079H20.5294C20.7893 10.3079 21 10.5186 21 10.7785V13.2257C21 13.4856 20.7893 13.6963 20.5294 13.6963H17.6117V20.0024C17.6117 20.2623 17.401 20.473 17.1411 20.473H14.6939C14.434 20.473 14.2233 20.2623 14.2233 20.0024V13.6963H8.9296V20.0024C8.9296 20.2623 8.71891 20.473 8.459 20.473H6.01186C5.75195 20.473 5.54126 20.2623 5.54126 20.0024V13.6963H3.4706C3.2107 13.6963 3 13.4856 3 13.2257V10.7785C3 10.5186 3.2107 10.3079 3.4706 10.3079H5.54126V7.76668C5.54126 6.64028 5.98724 5.56426 6.78212 4.76754C7.5761 3.97998 8.65304 3.53125 9.77669 3.53125Z" stroke="black" stroke-width="1.5" stroke-linecap="round" stroke-linejoin="round"/>
</svg>