<svg width="24" height="24" viewBox="0 0 24 24" fill="none" xmlns="http://www.w3.org/2000/svg">
<path fill-rule="evenodd" clip-rule="evenodd" d="M3.7402 3.89737C4.72468 2.84117 6.12669 2.25 7.78216 2.25H16.2169C17.8762 2.25 19.2788 2.84084 20.2629 3.89765C21.2413 4.94841 21.75 6.39889 21.75 8.02638V15.9736C21.75 17.6011 21.2413 19.0516 20.2627 20.1024C19.2785 21.1592 17.8756 21.75 16.2159 21.75H7.78216C6.1228 21.75 4.72038 21.1591 3.73657 20.1023C2.75842 19.0515 2.25 17.601 2.25 15.9736V8.02638C2.25 6.39806 2.76117 4.94771 3.7402 3.89737ZM4.83745 4.92012C4.16024 5.64666 3.75 6.70951 3.75 8.02638V15.9736C3.75 17.2914 4.15861 18.3541 4.83451 19.0802C5.50475 19.8003 6.49341 20.25 7.78216 20.25H16.2159C17.5052 20.25 18.4944 19.8002 19.165 19.0801C19.8412 18.354 20.25 17.2913 20.25 15.9736V8.02638C20.25 6.70868 19.8412 5.64597 19.1651 4.91984C18.4946 4.19975 17.5056 3.75 16.2169 3.75H7.78216C6.49828 3.75 5.50921 4.19943 4.83745 4.92012Z" fill="black"/>
<path fill-rule="evenodd" clip-rule="evenodd" d="M6.25 11.75C6.25 11.3358 6.58579 11 7 11H17C17.4142 11 17.75 11.3358 17.75 11.75C17.75 12.1642 17.4142 12.5 17 12.5H7C6.58579 12.5 6.25 12.1642 6.25 11.75Z" fill="black"/>
<path fill-rule="evenodd" clip-rule="evenodd" d="M13.25 8.75C13.25 7.50736 14.2574 6.5 15.5 6.5H16.5C16.9142 6.5 17.25 6.83579 17.25 7.25C17.25 7.66421 16.9142 8 16.5 8H15.5C15.0858 8 14.75 8.33579 14.75 8.75V16.75C14.75 17.1642 14.4142 17.5 14 17.5C13.5858 17.5 13.25 17.1642 13.25 16.75V8.75Z" fill="black"/>
<path fill-rule="evenodd" clip-rule="evenodd" d="M8.25 8.75C8.25 7.50736 9.25736 6.5 10.5 6.5H11.5C11.9142 6.5 12.25 6.83579 12.25 7.25C12.25 7.66421 11.9142 8 11.5 8H10.5C10.0858 8 9.75 8.33579 9.75 8.75V16.75C9.75 17.1642 9.41421 17.5 9 17.5C8.58579 17.5 8.25 17.1642 8.25 16.75V8.75Z" fill="black"/>
</svg>