<svg width="25" height="24" viewBox="0 0 25 24" fill="none" xmlns="http://www.w3.org/2000/svg">
<path d="M12.5947 3.29677L14.6505 7.40829C14.7414 7.59017 14.9273 7.70506 15.1307 7.70506H19.6307C20.0731 7.70506 20.3256 8.21013 20.0602 8.56405L17.7248 11.6779C17.5816 11.8688 17.5816 12.1312 17.7248 12.3221L20.0602 15.4359C20.3256 15.7899 20.0731 16.2949 19.6307 16.2949H15.1307C14.9273 16.2949 14.7414 16.4098 14.6505 16.5917L12.5947 20.7032C12.3969 21.0989 11.8322 21.0989 11.6343 20.7032L9.57858 16.5917C9.48764 16.4098 9.30174 16.2949 9.09839 16.2949H4.59839C4.15599 16.2949 3.90345 15.7899 4.16889 15.4359L6.50427 12.3221C6.64743 12.1312 6.64743 11.8688 6.50427 11.6779L4.16889 8.56405C3.90345 8.21013 4.15599 7.70506 4.59839 7.70506H9.09839C9.30174 7.70506 9.48764 7.59017 9.57858 7.40829L11.6343 3.29677C11.8322 2.90108 12.3969 2.90108 12.5947 3.29677Z" stroke="black" stroke-width="1.5" stroke-linecap="round" stroke-linejoin="round"/>
<path d="M12.1148 12L14.7991 7.70508M12.1148 12L9.43043 7.70508M12.1148 12H6.74609M12.1148 12L9.43043 16.2949M12.1148 12L14.7991 16.2949M12.1148 12H17.4834" stroke="black" stroke-width="1.5" stroke-linecap="round" stroke-linejoin="round"/>
</svg>