<svg width="24" height="24" viewBox="0 0 24 24" fill="none" xmlns="http://www.w3.org/2000/svg">
<path d="M17.9354 2.32253C18.3096 2.50003 18.4691 2.94732 18.2916 3.32157L17.0769 5.88281H15.4167L16.9364 2.67878C17.1139 2.30453 17.5611 2.14503 17.9354 2.32253Z" fill="black"/>
<path d="M15.4167 5.88281L13.9036 9.07318C13.7261 9.44743 13.8856 9.89472 14.2598 10.0722C14.6341 10.2497 15.0814 10.0902 15.2589 9.71597L17.0769 5.88281H20.7812C20.9725 5.88281 21.1469 5.9919 21.2307 6.16383C21.3145 6.33575 21.2928 6.5404 21.1749 6.69099L14.3448 15.4171V20.2465H15.6742C16.0884 20.2465 16.4242 20.5823 16.4242 20.9965C16.4242 21.4107 16.0884 21.7465 15.6742 21.7465H13.6702C13.6454 21.749 13.6203 21.7502 13.5948 21.7502C13.5694 21.7502 13.5443 21.749 13.5195 21.7465H11.5244C11.1102 21.7465 10.7744 21.4107 10.7744 20.9965C10.7744 20.5823 11.1102 20.2465 11.5244 20.2465H12.8448V15.4113L6.06807 6.68959C5.95093 6.53883 5.92987 6.33452 6.01379 6.16303C6.09771 5.99154 6.27197 5.88281 6.46289 5.88281H15.4167Z" fill="black"/>
<path d="M6.87183 9.12602C7.0818 9.09648 7.16273 8.85171 7.03264 8.68428L5.35186 6.52112C5.1926 6.31614 5.16396 6.03836 5.27807 5.80521C5.39217 5.57205 5.62909 5.42422 5.88867 5.42422H9.13388C9.3228 5.42422 9.46534 5.25106 9.40645 5.07155C9.29855 4.74273 9.13342 4.43289 8.91604 4.14799C8.50155 3.60473 7.92004 3.21271 7.26097 3.03223C6.60191 2.85176 5.9018 2.89283 5.26836 3.14913C4.63492 3.40543 4.10323 3.86275 3.7551 4.45075C3.40697 5.03875 3.26168 5.72484 3.34158 6.40349C3.42148 7.08213 3.72214 7.71572 4.19732 8.20678C4.67249 8.69785 5.29585 9.01919 5.9715 9.12136C6.27178 9.16677 6.575 9.16777 6.87183 9.12602Z" fill="black"/>
</svg>