<svg width="24" height="24" viewBox="0 0 24 24" fill="none" xmlns="http://www.w3.org/2000/svg">
<path opacity="0.4" d="M6.46289 5.88281C6.27197 5.88281 6.09771 5.99154 6.01379 6.16303C5.92987 6.33452 5.95093 6.53883 6.06807 6.68959L13.201 15.8696C13.2955 15.9913 13.4408 16.0626 13.5949 16.0628C13.749 16.0631 13.8946 15.9923 13.9895 15.871L21.1749 6.69099C21.2928 6.5404 21.3145 6.33575 21.2307 6.16383C21.1469 5.9919 20.9725 5.88281 20.7812 5.88281H6.46289Z" fill="black"/>
<path d="M17.9354 2.32253C18.3096 2.50003 18.4691 2.94732 18.2916 3.32157L15.2589 9.71597C15.0814 10.0902 14.6341 10.2497 14.2598 10.0722C13.8856 9.89472 13.7261 9.44743 13.9036 9.07318L16.9364 2.67878C17.1139 2.30453 17.5611 2.14503 17.9354 2.32253Z" fill="black"/>
<path d="M13.5948 14.6177C14.0091 14.6177 14.3448 14.9535 14.3448 15.3677V20.2465H15.6742C16.0884 20.2465 16.4242 20.5823 16.4242 20.9965C16.4242 21.4107 16.0884 21.7465 15.6742 21.7465H13.6702C13.6454 21.749 13.6203 21.7502 13.5948 21.7502C13.5694 21.7502 13.5443 21.749 13.5195 21.7465H11.5244C11.1102 21.7465 10.7744 21.4107 10.7744 20.9965C10.7744 20.5823 11.1102 20.2465 11.5244 20.2465H12.8448V15.3677C12.8448 14.9535 13.1806 14.6177 13.5948 14.6177Z" fill="black"/>
<path d="M8.59781 4.02332C9.0123 4.56658 9.23682 5.20048 9.23682 5.88381H6.8797C6.29468 5.88381 5.96776 6.55885 6.33051 7.01784L7.61854 8.64761C7.01941 8.97622 6.32891 9.09887 5.65326 8.99669C4.97762 8.89452 4.35426 8.57318 3.87908 8.08212C3.40391 7.59105 3.10324 6.95746 3.02334 6.27882C2.94344 5.60018 3.08873 4.91409 3.43686 4.32609C3.785 3.73809 4.31668 3.28076 4.95012 3.02446C5.58356 2.76817 6.28367 2.72709 6.94273 2.90757C7.6018 3.08804 8.18331 3.48006 8.59781 4.02332Z" fill="black"/>
</svg>