<svg width="24" height="24" viewBox="0 0 24 24" fill="none" xmlns="http://www.w3.org/2000/svg">
<path fill-rule="evenodd" clip-rule="evenodd" d="M21 6.43264L21 17.5142C21 19.0746 20.4441 20.3969 19.447 21.3254C18.4559 22.2482 17.0898 22.7261 15.5612 22.7261L8.44165 22.7261C6.91307 22.7261 5.54697 22.2482 4.55586 21.3252C3.55873 20.3966 3.00288 19.0741 3.00288 17.5133L3.00281 6.43264C3.00281 4.87229 3.55873 3.55016 4.55593 2.62191C5.54707 1.6993 6.91314 1.22168 8.44161 1.22168L15.5612 1.22168C17.0906 1.22168 18.4565 1.7019 19.4472 2.62531C20.4437 3.55417 21 4.87589 21 6.43264ZM19.5 17.5142L19.5 6.43265C19.5 5.24747 19.0855 4.3387 18.4245 3.72257C17.7576 3.10098 16.7791 2.72168 15.5612 2.72168L8.44161 2.72168C7.22272 2.72168 6.24439 3.09949 5.57796 3.71984C4.91761 4.33454 4.50281 5.2429 4.50281 6.43264L4.50288 17.5133C4.50288 18.7036 4.91773 19.6125 5.57814 20.2275C6.24458 20.8481 7.22286 21.2261 8.44165 21.2261L15.5612 21.2261C16.78 21.2261 17.7583 20.8481 18.4248 20.2276C19.0852 19.6126 19.5 18.704 19.5 17.5142Z" fill="black"/>
<path fill-rule="evenodd" clip-rule="evenodd" d="M15.9766 5.22168C16.3908 5.22168 16.7266 5.55747 16.7266 5.97168L16.7266 9.97168C16.7266 10.3859 16.3908 10.7217 15.9766 10.7217C15.5623 10.7217 15.2266 10.3859 15.2266 9.97168L15.2266 7.78234L12.5069 10.502C12.214 10.7949 11.7391 10.7949 11.4462 10.502C11.1533 10.2091 11.1533 9.73424 11.4462 9.44135L14.1659 6.72168L11.9766 6.72168C11.5623 6.72168 11.2266 6.38589 11.2266 5.97168C11.2266 5.55747 11.5623 5.22168 11.9766 5.22168L15.9766 5.22168Z" fill="black"/>
<path fill-rule="evenodd" clip-rule="evenodd" d="M7.97656 18.7217C7.56235 18.7217 7.22656 18.3859 7.22656 17.9717L7.22656 13.9717C7.22656 13.5575 7.56235 13.2217 7.97656 13.2217C8.39078 13.2217 8.72656 13.5575 8.72656 13.9717L8.72656 16.161L11.4462 13.4413C11.7391 13.1485 12.214 13.1485 12.5069 13.4413C12.7998 13.7342 12.7998 14.2091 12.5069 14.502L9.78722 17.2217L11.9766 17.2217C12.3908 17.2217 12.7266 17.5575 12.7266 17.9717C12.7266 18.3859 12.3908 18.7217 11.9766 18.7217L7.97656 18.7217Z" fill="black"/>
</svg>