<svg width="24" height="24" viewBox="0 0 24 24" fill="none" xmlns="http://www.w3.org/2000/svg">
<path fill-rule="evenodd" clip-rule="evenodd" d="M6.46096 2.97502L17.5426 2.97498C19.1029 2.97498 20.4252 3.53087 21.3537 4.528C22.2765 5.51909 22.7544 6.88517 22.7544 8.41375V15.5333C22.7544 17.0619 22.2765 18.428 21.3535 19.4191C20.4249 20.4162 19.1024 20.9721 17.5417 20.9721L6.46096 20.9722C4.90061 20.9722 3.57849 20.4162 2.65023 19.419C1.72762 18.4279 1.25 17.0618 1.25 15.5334V8.41379C1.25 6.88438 1.73022 5.51844 2.65363 4.52776C3.58249 3.53124 4.90421 2.97502 6.46096 2.97502ZM17.5426 4.47498L6.46097 4.47502C5.27579 4.47502 4.36703 4.8895 3.75089 5.55052C3.1293 6.21739 2.75 7.19583 2.75 8.41379V15.5334C2.75 16.7523 3.12781 17.7306 3.74816 18.397C4.36286 19.0574 5.27122 19.4722 6.46096 19.4722L17.5417 19.4721C18.7319 19.4721 19.6408 19.0572 20.2558 18.3968C20.8765 17.7304 21.2544 16.7521 21.2544 15.5333V8.41375C21.2544 7.19496 20.8765 6.21665 20.2559 5.5502C19.641 4.88978 18.7323 4.47498 17.5426 4.47498Z" fill="black"/>
<path fill-rule="evenodd" clip-rule="evenodd" d="M5.25 8C5.25 7.58579 5.58579 7.25 6 7.25H10C10.4142 7.25 10.75 7.58579 10.75 8C10.75 8.41421 10.4142 8.75 10 8.75H7.81066L10.5303 11.4697C10.8232 11.7626 10.8232 12.2374 10.5303 12.5303C10.2374 12.8232 9.76256 12.8232 9.46967 12.5303L6.75 9.81066V12C6.75 12.4142 6.41421 12.75 6 12.75C5.58579 12.75 5.25 12.4142 5.25 12V8Z" fill="black"/>
<path fill-rule="evenodd" clip-rule="evenodd" d="M18.75 16C18.75 16.4142 18.4142 16.75 18 16.75H14C13.5858 16.75 13.25 16.4142 13.25 16C13.25 15.5858 13.5858 15.25 14 15.25H16.1893L13.4697 12.5303C13.1768 12.2374 13.1768 11.7626 13.4697 11.4697C13.7626 11.1768 14.2374 11.1768 14.5303 11.4697L17.25 14.1893V12C17.25 11.5858 17.5858 11.25 18 11.25C18.4142 11.25 18.75 11.5858 18.75 12V16Z" fill="black"/>
</svg>