<svg width="25" height="24" viewBox="0 0 25 24" fill="none" xmlns="http://www.w3.org/2000/svg">
<path d="M20.8079 9.66993C22.0943 14.4711 19.2451 19.4062 14.4439 20.6926C9.64271 21.9791 4.70768 19.1299 3.42121 14.3287C2.13473 9.52748 4.98397 4.59245 9.78517 3.30597C14.5864 2.0195 19.5214 4.86874 20.8079 9.66993Z" stroke="black" stroke-width="1.5" stroke-linecap="round" stroke-linejoin="round"/>
<path d="M16.7325 8.4871C16.9111 9.15377 16.5155 9.83902 15.8488 10.0177C15.1822 10.1963 14.4969 9.80066 14.3183 9.13399C14.1397 8.46732 14.5353 7.78207 15.2019 7.60344C15.8686 7.42481 16.5539 7.82044 16.7325 8.4871Z" stroke="black" stroke-width="1.5" stroke-linecap="round" stroke-linejoin="round"/>
<path d="M5.96443 5.44287C6.59028 5.5564 7.12614 6.01878 7.30169 6.67393C7.54425 7.57917 7.00704 8.50965 6.1018 8.75221C5.3317 8.95856 4.54334 8.60058 4.17578 7.93178" stroke="black" stroke-width="1.5" stroke-linecap="round" stroke-linejoin="round"/>
<path d="M13.7725 15.5042C13.9512 16.1709 13.5555 16.8561 12.8889 17.0347C12.2222 17.2134 11.537 16.8177 11.3583 16.1511C11.1797 15.4844 11.5753 14.7992 12.242 14.6205C12.9087 14.4419 13.5939 14.8375 13.7725 15.5042Z" stroke="black" stroke-width="1.5" stroke-linecap="round" stroke-linejoin="round"/>
<path d="M10.5791 8.81055H10.5891" stroke="black" stroke-width="1.5" stroke-linecap="round" stroke-linejoin="round"/>
<path d="M17.7324 13.7778H17.7424" stroke="black" stroke-width="1.5" stroke-linecap="round" stroke-linejoin="round"/>
<path d="M7.35938 14.5776H7.36937" stroke="black" stroke-width="1.5" stroke-linecap="round" stroke-linejoin="round"/>
</svg>