<svg width="24" height="24" viewBox="0 0 24 24" fill="none" xmlns="http://www.w3.org/2000/svg">
<path fill-rule="evenodd" clip-rule="evenodd" d="M21 6.43264L21 17.5142C21 19.0746 20.4441 20.3969 19.447 21.3254C18.4559 22.2482 17.0898 22.7261 15.5612 22.7261L8.44165 22.7261C6.91307 22.7261 5.54697 22.2482 4.55586 21.3252C3.55873 20.3966 3.00288 19.0741 3.00288 17.5133L3.00281 6.43264C3.00281 4.87229 3.55873 3.55016 4.55593 2.62191C5.54707 1.6993 6.91314 1.22168 8.44161 1.22168L15.5612 1.22168C17.0906 1.22168 18.4565 1.7019 19.4472 2.62531C20.4437 3.55417 21 4.87589 21 6.43264ZM19.5 17.5142L19.5 6.43265C19.5 5.24747 19.0855 4.3387 18.4245 3.72257C17.7576 3.10098 16.7791 2.72168 15.5612 2.72168L8.44161 2.72168C7.22272 2.72168 6.24439 3.09949 5.57796 3.71984C4.91761 4.33454 4.50281 5.2429 4.50281 6.43264L4.50288 17.5133C4.50288 18.7036 4.91773 19.6125 5.57814 20.2275C6.24458 20.8481 7.22286 21.2261 8.44165 21.2261L15.5612 21.2261C16.78 21.2261 17.7583 20.8481 18.4248 20.2276C19.0852 19.6126 19.5 18.704 19.5 17.5142Z" fill="black"/>
<path fill-rule="evenodd" clip-rule="evenodd" d="M11.9766 10.7217C11.5623 10.7217 11.2266 10.3859 11.2266 9.97168L11.2266 5.97168C11.2266 5.55747 11.5623 5.22168 11.9766 5.22168C12.3908 5.22168 12.7266 5.55747 12.7266 5.97168L12.7266 8.16102L15.4462 5.44135C15.7391 5.14846 16.214 5.14846 16.5069 5.44135C16.7998 5.73424 16.7998 6.20912 16.5069 6.50201L13.7872 9.22168L15.9766 9.22168C16.3908 9.22168 16.7266 9.55747 16.7266 9.97168C16.7266 10.3859 16.3908 10.7217 15.9766 10.7217L11.9766 10.7217Z" fill="black"/>
<path fill-rule="evenodd" clip-rule="evenodd" d="M11.9766 13.2217C12.3908 13.2217 12.7266 13.5575 12.7266 13.9717L12.7266 17.9717C12.7266 18.3859 12.3908 18.7217 11.9766 18.7217C11.5623 18.7217 11.2266 18.3859 11.2266 17.9717L11.2266 15.7823L8.50689 18.502C8.214 18.7949 7.73913 18.7949 7.44623 18.502C7.15334 18.2091 7.15334 17.7342 7.44623 17.4413L10.1659 14.7217L7.97656 14.7217C7.56235 14.7217 7.22656 14.3859 7.22656 13.9717C7.22656 13.5575 7.56235 13.2217 7.97656 13.2217L11.9766 13.2217Z" fill="black"/>
</svg>