<svg width="24" height="24" viewBox="0 0 24 24" fill="none" xmlns="http://www.w3.org/2000/svg">
<path opacity="0.4" fill-rule="evenodd" clip-rule="evenodd" d="M20.125 12.8998C20.125 14.1458 19.628 14.2498 19.075 14.2498H18.852C18.862 14.0668 18.882 13.8898 18.875 13.6998V10.3998C18.875 10.2058 18.848 10.0318 18.832 9.84883H19.075C19.628 9.84883 20.125 9.95283 20.125 11.1998V12.8998ZM19.075 8.34883H18.505C17.859 6.72683 16.382 5.79883 14.275 5.79883H6.975C4.138 5.79883 2.375 7.52383 2.375 10.2988V13.6998C2.375 16.4748 4.138 18.1998 6.975 18.1998H14.275C15.775 18.1998 16.994 17.7568 17.799 16.9208C18.117 16.5908 18.351 16.1888 18.53 15.7498H19.075C19.842 15.7498 21.625 15.4718 21.625 12.8998V11.1998C21.625 8.62683 19.842 8.34883 19.075 8.34883Z" fill="black"/>
<path fill-rule="evenodd" clip-rule="evenodd" d="M15.025 13.7992C15.025 14.2132 14.689 14.5492 14.275 14.5492C13.861 14.5492 13.525 14.2132 13.525 13.7992V10.2002C13.525 9.7862 13.861 9.4502 14.275 9.4502C14.689 9.4502 15.025 9.7862 15.025 10.2002V13.7992ZM11.325 13.7992C11.325 14.2132 10.989 14.5492 10.575 14.5492C10.161 14.5492 9.82502 14.2132 9.82502 13.7992V10.2002C9.82502 9.7862 10.161 9.4502 10.575 9.4502C10.989 9.4502 11.325 9.7862 11.325 10.2002V13.7992ZM7.52502 13.7992C7.52502 14.2132 7.18902 14.5492 6.77502 14.5492C6.36102 14.5492 6.02502 14.2132 6.02502 13.7992V10.2002C6.02502 9.7862 6.36102 9.4502 6.77502 9.4502C7.18902 9.4502 7.52502 9.7862 7.52502 10.2002V13.7992Z" fill="black"/>
<path fill-rule="evenodd" clip-rule="evenodd" d="M17.5309 9.06445C17.5309 8.65024 17.8667 8.31445 18.2809 8.31445H19.0807C19.8759 8.31445 20.5769 8.54743 21.0499 9.13486C21.4946 9.68717 21.625 10.4195 21.625 11.1633V12.8719C21.625 13.606 21.4938 14.3313 21.0454 14.8776C20.5707 15.4559 19.8708 15.6818 19.0807 15.6818H18.2887C17.8745 15.6818 17.5387 15.346 17.5387 14.9318C17.5387 14.5176 17.8745 14.1818 18.2887 14.1818H19.0807C19.5916 14.1818 19.7888 14.0443 19.886 13.9259C20.0094 13.7755 20.125 13.4708 20.125 12.8719V11.1633C20.125 10.5506 20.0087 10.2336 19.8815 10.0756C19.7826 9.95268 19.5865 9.81445 19.0807 9.81445H18.2809C17.8667 9.81445 17.5309 9.47867 17.5309 9.06445Z" fill="black"/>
</svg>