<svg width="24" height="24" viewBox="0 0 24 24" fill="none" xmlns="http://www.w3.org/2000/svg">
<path fill-rule="evenodd" clip-rule="evenodd" d="M12 3.75C7.44365 3.75 3.75 7.44365 3.75 12C3.75 16.5563 7.44365 20.25 12 20.25C16.5563 20.25 20.25 16.5563 20.25 12C20.25 7.44365 16.5563 3.75 12 3.75ZM2.25 12C2.25 6.61522 6.61522 2.25 12 2.25C17.3848 2.25 21.75 6.61522 21.75 12C21.75 17.3848 17.3848 21.75 12 21.75C6.61522 21.75 2.25 17.3848 2.25 12Z" fill="black"/>
<path fill-rule="evenodd" clip-rule="evenodd" d="M7.28663 13.5916C7.18908 12.8077 7.83823 12.25 8.50007 12.25H15.5001C16.1619 12.25 16.8111 12.8077 16.7135 13.5916C16.4217 15.9361 14.4233 17.75 12.0001 17.75C9.57682 17.75 7.57838 15.9361 7.28663 13.5916ZM8.83687 13.75C9.17517 15.1831 10.4635 16.25 12.0001 16.25C13.5366 16.25 14.825 15.1831 15.1633 13.75H8.83687Z" fill="black"/>
</svg>