<svg width="24" height="25" viewBox="0 0 24 25" fill="none" xmlns="http://www.w3.org/2000/svg">
<path fill-rule="evenodd" clip-rule="evenodd" d="M17.456 14.5856C17.707 14.9156 17.643 15.3856 17.313 15.6366C17.178 15.7396 17.019 15.7896 16.86 15.7896C16.634 15.7896 16.41 15.6876 16.263 15.4926L14.778 13.5386L13.296 15.4886C13.148 15.6836 12.925 15.7856 12.698 15.7856C12.54 15.7856 12.381 15.7356 12.245 15.6326C11.916 15.3816 11.852 14.9116 12.102 14.5816L13.837 12.2996L12.102 10.0176C11.852 9.68864 11.916 9.21764 12.245 8.96664C12.575 8.71664 13.046 8.78064 13.296 9.11064L14.779 11.0626L16.263 9.11064C16.513 8.78064 16.983 8.71664 17.313 8.96664C17.643 9.21764 17.707 9.68864 17.456 10.0176L15.72 12.3016L17.456 14.5856ZM10.195 10.3146H8.166V11.5536H9.928C10.342 11.5536 10.678 11.8896 10.678 12.3036C10.678 12.7176 10.342 13.0536 9.928 13.0536H8.166V15.0376C8.166 15.4516 7.83 15.7876 7.416 15.7876C7.002 15.7876 6.666 15.4516 6.666 15.0376V9.56464C6.666 9.14964 7.002 8.81464 7.416 8.81464H10.195C10.609 8.81464 10.945 9.14964 10.945 9.56464C10.945 9.97864 10.609 10.3146 10.195 10.3146ZM16.212 2.80664H7.778C4.621 2.80664 2.5 5.02464 2.5 8.32764V16.2736C2.5 19.5766 4.621 21.7956 7.778 21.7956H16.212C19.375 21.7956 21.5 19.5766 21.5 16.2736V8.32764C21.5 5.02464 19.375 2.80664 16.212 2.80664Z" fill="black"/>
</svg>