<svg width="24" height="24" viewBox="0 0 24 24" fill="none" xmlns="http://www.w3.org/2000/svg">
<path d="M11.0183 20.6841H7.61971C4.77472 20.6841 3 18.6846 3 15.8396V8.16865C3 5.32366 4.77472 3.31445 7.61971 3.31445H15.7509C18.6047 3.31445 20.3697 5.32366 20.3697 8.16865V11.145" stroke="black" stroke-width="1.5" stroke-linecap="round" stroke-linejoin="round"/>
<path d="M14.6148 11.181V3.32227M8.78027 3.32702V20.6831" stroke="black" stroke-width="1.5" stroke-linecap="round" stroke-linejoin="round"/>
<path d="M3.0019 9.10547H20.3657M3 14.9377H10.8588" stroke="black" stroke-width="1.5" stroke-linecap="round" stroke-linejoin="round"/>
<path d="M14.7712 19.4352C14.0356 18.8271 13.4635 18.0439 13.1074 17.1575C13.4684 16.2682 14.0454 15.482 14.7858 14.87C15.426 14.3446 16.2258 14.0527 17.0538 14.043C17.8857 14.0537 18.6884 14.3485 19.3306 14.8788" stroke="black" stroke-width="1.5" stroke-linecap="round" stroke-linejoin="round"/>
<path d="M20.9991 17.1602C20.1595 19.1042 18.6766 20.2747 17.0527 20.2747" stroke="black" stroke-width="1.5" stroke-linecap="round" stroke-linejoin="round"/>
<path d="M20.4196 13.7949L13.6895 20.525" stroke="black" stroke-width="1.5" stroke-linecap="round" stroke-linejoin="round"/>
</svg>