<svg width="24" height="24" viewBox="0 0 24 24" fill="none" xmlns="http://www.w3.org/2000/svg">
<path d="M3.75297 7.98011C3.75099 8.04257 3.75 8.10566 3.75 8.16939V9.42969H7.37019C7.53587 9.42969 7.67019 9.564 7.67019 9.72969V14.2867C7.67019 14.4524 7.53587 14.5867 7.37019 14.5867H3.75V15.8404C3.75 15.9065 3.75107 15.9719 3.75319 16.0366H7.36642C7.53345 16.0366 7.66832 16.173 7.6664 16.3401L7.62506 19.9348H9.12097V16.332C9.12097 16.1663 9.25529 16.032 9.42097 16.032H10.3647C10.5695 16.032 10.713 16.2326 10.6649 16.4316C10.5388 16.9536 10.4503 17.9887 10.6649 18.5253C11.0004 19.3826 11.7683 19.7244 11.7683 20.6848C11.7683 21.0991 11.4325 21.4348 11.0183 21.4348H7.61971C6.01302 21.4348 4.65141 20.8652 3.69496 19.8415C2.74389 18.8236 2.25 17.4181 2.25 15.8404V8.16939C2.25 6.59175 2.7438 5.18431 3.69424 4.16416C4.65023 3.13805 6.01189 2.56519 7.61971 2.56519H15.7509C17.3626 2.56519 18.7245 3.13775 19.6796 4.16462C20.6289 5.18527 21.1197 6.59283 21.1197 8.16939V11.1457C21.1197 11.5599 20.7839 11.8957 20.3697 11.8957C20.0304 11.8957 18.9483 11.7971 18.6631 11.7127C18.129 11.5546 17.5633 11.471 16.981 11.4619C16.6879 11.4619 16.3948 11.4862 16.1051 11.5349C15.9133 11.5672 15.731 11.4244 15.731 11.2299V9.73188C15.731 9.5662 15.8653 9.43188 16.031 9.43188H19.6197V8.16939C19.6197 8.1055 19.6187 8.04224 19.6167 7.97962H16.0287C15.8622 7.97962 15.7276 7.8441 15.7287 7.67765L15.7524 4.06519L14.2772 4.06519V7.67986C14.2772 7.84555 14.1429 7.97986 13.9772 7.97986H9.42018C9.25449 7.97986 9.12018 7.84555 9.12018 7.67986V4.06519H7.62551L7.6667 7.67668C7.66861 7.8437 7.53375 7.98011 7.36672 7.98011H3.75297Z" fill="black"/>
<path d="M14.281 11.9465C14.281 12.0601 14.2165 12.1635 14.1163 12.2171C13.7765 12.3992 13.4526 12.612 13.151 12.8619C12.5822 13.3281 12.083 13.8638 11.6615 14.4609C11.6041 14.5423 11.5113 14.5919 11.4118 14.5919H9.42097C9.25529 14.5919 9.12097 14.4576 9.12097 14.2919V9.73188C9.12097 9.5662 9.25529 9.43188 9.42097 9.43188H13.981C14.1467 9.43188 14.281 9.5662 14.281 9.73188V11.9465Z" fill="black"/>
<path fill-rule="evenodd" clip-rule="evenodd" d="M20.9049 13.1809C20.6119 12.8879 20.1369 12.8879 19.8439 13.1809L19.1979 13.8269C18.5389 13.4379 17.7829 13.2189 16.9989 13.2089C16.0039 13.2209 15.0339 13.5749 14.2629 14.2079C13.4269 14.8989 12.7719 15.7909 12.3669 16.7919C12.2939 16.9719 12.2929 17.1729 12.3659 17.3529C12.6659 18.0999 13.1059 18.7859 13.6549 19.3699L13.1139 19.9109C12.8209 20.2039 12.8209 20.6789 13.1139 20.9719C13.2599 21.1179 13.4519 21.1919 13.6439 21.1919C13.8359 21.1919 14.0279 21.1179 14.1739 20.9719L20.9049 14.2409C21.1979 13.9479 21.1979 13.4739 20.9049 13.1809ZM14.7349 18.2899C14.3979 17.9229 14.0959 17.5249 13.8809 17.0739C14.1959 16.4179 14.6539 15.8309 15.2159 15.3649C15.7229 14.9499 16.3629 14.7169 16.9979 14.7089C17.3729 14.7139 17.7389 14.7999 18.0809 14.9439L14.7349 18.2899Z" fill="black"/>
<path d="M20.2652 16.7787C20.4282 16.3977 20.8672 16.2217 21.2512 16.3877C21.6312 16.5517 21.8062 16.9927 21.6422 17.3737C20.6762 19.6077 18.9432 20.9417 17.0072 20.9417C16.5932 20.9417 16.2572 20.6057 16.2572 20.1917C16.2572 19.7777 16.5932 19.4417 17.0072 19.4417C18.3262 19.4417 19.5442 18.4467 20.2652 16.7787Z" fill="black"/>
</svg>