<svg width="25" height="24" viewBox="0 0 25 24" fill="none" xmlns="http://www.w3.org/2000/svg">
<path fill-rule="evenodd" clip-rule="evenodd" d="M3.99043 3.89718C4.97507 2.84107 6.37728 2.25 8.033 2.25H16.467C18.1263 2.25 19.5287 2.8408 20.5125 3.8976C21.4906 4.94833 21.999 6.3987 21.999 8.026V15.973C21.999 17.6003 21.4906 19.0507 20.5123 20.1014C19.5283 21.1582 18.1257 21.749 16.466 21.749H8.033C6.37373 21.749 4.97114 21.1582 3.98712 20.1015C3.00872 19.0508 2.5 17.6004 2.5 15.973V8.026C2.5 6.39774 3.01124 4.94746 3.99043 3.89718ZM5.08757 4.92007C4.41026 5.64654 4 6.70926 4 8.026V15.973C4 17.2906 4.40878 18.3532 5.08488 19.0793C5.75536 19.7993 6.74427 20.249 8.033 20.249H16.466C17.7553 20.249 18.7442 19.7993 19.4145 19.0793C20.0904 18.3533 20.499 17.2907 20.499 15.973V8.026C20.499 6.7083 20.0904 5.64567 19.4145 4.91965C18.7443 4.1997 17.7557 3.75 16.467 3.75H8.033C6.74872 3.75 5.75943 4.19943 5.08757 4.92007Z" fill="black"/>
<path fill-rule="evenodd" clip-rule="evenodd" d="M9.24023 2.26172C9.65445 2.26172 9.99023 2.59751 9.99023 3.01172V20.9997C9.99023 21.4139 9.65445 21.7497 9.24023 21.7497C8.82602 21.7497 8.49023 21.4139 8.49023 20.9997V3.01172C8.49023 2.59751 8.82602 2.26172 9.24023 2.26172Z" fill="black"/>
<path fill-rule="evenodd" clip-rule="evenodd" d="M15.2832 2.26172C15.6974 2.26172 16.0332 2.59751 16.0332 3.01172V20.9997C16.0332 21.4139 15.6974 21.7497 15.2832 21.7497C14.869 21.7497 14.5332 21.4139 14.5332 20.9997V3.01172C14.5332 2.59751 14.869 2.26172 15.2832 2.26172Z" fill="black"/>
<path fill-rule="evenodd" clip-rule="evenodd" d="M2.50195 15.041C2.50195 14.6268 2.83774 14.291 3.25195 14.291H21.249C21.6632 14.291 21.999 14.6268 21.999 15.041C21.999 15.4552 21.6632 15.791 21.249 15.791H3.25195C2.83774 15.791 2.50195 15.4552 2.50195 15.041Z" fill="black"/>
<path fill-rule="evenodd" clip-rule="evenodd" d="M2.50195 8.99805C2.50195 8.58383 2.83774 8.24805 3.25195 8.24805H21.25C21.6642 8.24805 22 8.58383 22 8.99805C22 9.41226 21.6642 9.74805 21.25 9.74805H3.25195C2.83774 9.74805 2.50195 9.41226 2.50195 8.99805Z" fill="black"/>
</svg>