<svg width="24" height="24" viewBox="0 0 24 24" fill="none" xmlns="http://www.w3.org/2000/svg">
<path d="M3.66683 7.83111C3.66095 7.93463 3.65796 8.04012 3.65796 8.14751V9.23901H6.88932C7.11023 9.23901 7.28932 9.4181 7.28932 9.63901V13.847C7.28932 14.0679 7.11023 14.247 6.88932 14.247H3.65796V15.4409C3.65796 15.5129 3.6593 15.584 3.66196 15.6543H6.88503C7.10776 15.6543 7.28759 15.8362 7.285 16.059L7.24731 19.2967C7.2648 19.2969 7.28234 19.2969 7.29995 19.2969H8.69809V16.0582C8.69809 15.8373 8.87718 15.6582 9.09809 15.6582H10.7728C10.9308 15.6582 11.0281 15.8343 10.9558 15.9748C10.3442 17.1626 10.4095 18.552 11.1565 19.6769C11.2989 19.8914 11.3888 20.011 11.4396 20.3155C11.5404 20.9185 10.3647 20.7969 10.1778 20.7969H7.29995C5.7633 20.7969 4.45861 20.2519 3.54158 19.2702C2.62994 18.2944 2.15796 16.9486 2.15796 15.4409V8.14751C2.15796 6.63996 2.62985 5.29236 3.54089 4.31453C4.45749 3.33074 5.76223 2.78271 7.29995 2.78271H15.0302C15.6168 2.78271 16.1692 2.86202 16.6789 3.01451C17.6375 3.28861 18.4335 3.82639 19.0149 4.57163C19.7793 5.52294 20.1722 6.76872 20.1722 8.14751V9.48625C20.1722 9.98889 19.9935 10.344 19.6018 10.3202C18.2964 9.77745 16.9416 9.71451 15.5681 11.088C15.3984 11.2578 15.1081 11.1376 15.1081 10.8975V9.63804C15.1081 9.41712 15.2872 9.23804 15.5081 9.23804H18.6722V8.14751C18.6722 8.04011 18.6692 7.93463 18.6634 7.83111H15.5156C15.2937 7.83111 15.1142 7.65041 15.1157 7.42848L15.1363 4.28384C15.1012 4.28309 15.0658 4.28271 15.0302 4.28271H13.7053V7.43086C13.7053 7.65177 13.5262 7.83086 13.3053 7.83086H9.0973C8.87638 7.83086 8.6973 7.65177 8.6973 7.43086V4.28271H7.29995C7.28289 4.28271 7.26588 4.2828 7.24894 4.28298L7.28461 7.42657C7.28714 7.64924 7.10732 7.83111 6.88464 7.83111H3.66683Z" fill="black"/>
<path d="M9.09809 14.248C8.87718 14.248 8.69809 14.069 8.69809 13.848V9.63804C8.69809 9.41712 8.87718 9.23804 9.09809 9.23804H13.3081C13.529 9.23804 13.7081 9.41712 13.7081 9.63804V12.7815C13.7081 12.8881 13.6655 12.9903 13.5898 13.0654L12.5151 14.132C12.4401 14.2063 12.3389 14.248 12.2333 14.248H9.09809Z" fill="black"/>
<path fill-rule="evenodd" clip-rule="evenodd" d="M21.235 13.8385L19.676 12.2785C18.856 11.4605 17.647 11.4775 16.801 12.3235L14.975 14.1485C14.9735 14.15 14.9717 14.151 14.97 14.152C14.9682 14.153 14.9665 14.154 14.965 14.1555C14.9631 14.1574 14.962 14.1596 14.961 14.1618L14.959 14.1655L12.942 16.1805C12.096 17.0275 12.078 18.2365 12.897 19.0555L14.456 20.6155C14.859 21.0175 15.354 21.2175 15.855 21.2175C16.375 21.2175 16.901 21.0025 17.332 20.5705L19.353 18.5495L19.357 18.5475L19.3578 18.5456L19.359 18.5435L21.191 16.7125C21.592 16.3105 21.823 15.8095 21.841 15.3005C21.859 14.7665 21.645 14.2465 21.235 13.8385ZM20.13 15.6515L18.826 16.9555L16.558 14.6875L17.861 13.3845C18.002 13.2445 18.14 13.1735 18.273 13.1735C18.391 13.1735 18.505 13.2285 18.615 13.3385L20.175 14.8985C20.29 15.0135 20.346 15.1305 20.342 15.2485C20.337 15.3765 20.262 15.5195 20.13 15.6515ZM16.271 19.5095C15.871 19.9115 15.605 19.6435 15.517 19.5545L13.958 17.9955C13.723 17.7595 13.738 17.5055 14.003 17.2415L15.497 15.7475L17.765 18.0165L16.271 19.5095Z" fill="black"/>
</svg>