<?xml version="1.0" encoding="UTF-8"?>
<svg width="24px" height="24px" viewBox="0 0 24 24" version="1.1" xmlns="http://www.w3.org/2000/svg" xmlns:xlink="http://www.w3.org/1999/xlink">
    <title>Iconly/Light-Outline/Game</title>
    <g id="Iconly/Light-Outline/Game" stroke="none" stroke-width="1" fill="none" fill-rule="evenodd">
        <g id="Game" transform="translate(1.000000, 1.000000)" fill="#000000">
            <path d="M6.8218,-0.0001 C7.2368,-0.0001 7.5718,0.3359 7.5718,0.7499 C7.5718,1.0759 7.8488,1.3409 8.1898,1.3409 L9.2468,1.3409 C10.8198,1.3459 12.1048,2.6099 12.1118,4.1589 L12.1118584,4.37691099 C13.1328052,4.38220312 14.1602146,4.3932328 15.1902,4.41 C18.8412,4.41 21.5002,7.019 21.5002,10.612 L21.5002,15.262 C21.5002,18.852 18.8452,21.46 15.1842,21.463 C13.7162,21.487 12.2362,21.5 10.7542,21.5 C9.2712,21.5 7.7862,21.487 6.3102,21.463 C2.6592,21.463 0.0002,18.854 0.0002,15.262 L0.0002,10.612 C0.0002,7.019 2.6592,4.41 6.3232,4.41 C7.72787537,4.38600938 9.16107653,4.37376467 10.6114192,4.37326589 L10.6118,4.1629 C10.6088,3.4389 9.9948,2.8439 9.2438,2.8409 L8.1898,2.8409 C7.0228,2.8409 6.0718,1.9029 6.0718,0.7499 C6.0718,0.3359 6.4078,-0.0001 6.8218,-0.0001 Z M10.7012,5.873 C9.2252,5.873 7.7672,5.886 6.3352,5.91 C3.5282,5.91 1.5002,7.888 1.5002,10.612 L1.5002,15.262 C1.5002,17.985 3.5282,19.963 6.3232,19.963 C9.2702,20.012 12.2412,20.012 15.1652,19.963 L15.1782,19.963 C17.9722,19.963 20.0002,17.985 20.0002,15.262 L20.0002,10.612 C20.0002,7.888 17.9722,5.91 15.1782,5.91 C13.6742,5.886 12.1792,5.873 10.7012,5.873 Z M7.5981,10.3146 C8.0121,10.3146 8.3481,10.6506 8.3481,11.0646 L8.3472,12.1859 L9.5088,12.1865 C9.9228,12.1865 10.2588,12.5225 10.2588,12.9365 C10.2588,13.3505 9.9228,13.6865 9.5088,13.6865 L8.3472,13.6859 L8.3481,14.8096 C8.3481,15.2236 8.0121,15.5596 7.5981,15.5596 C7.1841,15.5596 6.8481,15.2236 6.8481,14.8096 L6.8472,13.6859 L5.6878,13.6865 C5.2738,13.6865 4.9378,13.3505 4.9378,12.9365 C4.9378,12.5225 5.2738,12.1865 5.6878,12.1865 L6.8472,12.1859 L6.8481,11.0646 C6.8481,10.6506 7.1841,10.3146 7.5981,10.3146 Z M15.9297,14.0029 C16.3437,14.0029 16.6797,14.3389 16.6797,14.7529 C16.6797,15.1669 16.3437,15.5029 15.9297,15.5029 L15.8227,15.5029 C15.4087,15.5029 15.0727,15.1669 15.0727,14.7529 C15.0727,14.3389 15.4087,14.0029 15.8227,14.0029 L15.9297,14.0029 Z M14.1162,10.4287 C14.5302,10.4287 14.8662,10.7647 14.8662,11.1787 C14.8662,11.5927 14.5302,11.9287 14.1162,11.9287 L14.0092,11.9287 C13.5952,11.9287 13.2592,11.5927 13.2592,11.1787 C13.2592,10.7647 13.5952,10.4287 14.0092,10.4287 L14.1162,10.4287 Z" id="Combined-Shape"></path>
        </g>
    </g>
</svg>