<svg width="25" height="25" viewBox="0 0 25 25" fill="none" xmlns="http://www.w3.org/2000/svg">
<path opacity="0.4" fill-rule="evenodd" clip-rule="evenodd" d="M11.5322 6.8893C4.66545 7.02395 2.2019 9.14353 2.2019 14.7928C2.2019 20.6348 4.8319 22.7068 12.2509 22.7068C19.6689 22.7068 22.2979 20.6348 22.2979 14.7928C22.2979 9.66871 20.2766 7.44581 14.7773 6.97644C13.661 6.89936 12.3561 6.88476 11.5322 6.8893Z" fill="black"/>
<path d="M13.5843 6.90392V6.36092C13.5643 4.85192 12.3403 3.59692 10.8143 3.64392H9.79328C9.65028 3.64392 9.51528 3.58892 9.41328 3.48892C9.30928 3.38692 9.25228 3.25192 9.25028 3.10692C9.24628 2.69192 8.89028 2.33892 8.49328 2.36392C8.07928 2.36792 7.74628 2.70692 7.75028 3.12092C7.76128 4.24092 8.67528 5.14392 9.78628 5.14392H10.8283C11.5123 5.14392 12.0753 5.69792 12.0843 6.37192V6.88292C11.5631 6.88521 13.5843 6.90392 13.5843 6.90392Z" fill="black"/>
<path d="M11.0652 15.4978H9.99124V16.5358C9.99124 16.9498 9.65524 17.2858 9.24124 17.2858C8.82724 17.2858 8.49124 16.9498 8.49124 16.5358V15.4978H7.41724C7.00324 15.4978 6.66724 15.1618 6.66724 14.7478C6.66724 14.3338 7.00324 13.9978 7.41724 13.9978H8.49124V12.9598C8.49124 12.5458 8.82724 12.2098 9.24124 12.2098C9.65524 12.2098 9.99124 12.5458 9.99124 12.9598V13.9978H11.0652C11.4792 13.9978 11.8152 14.3338 11.8152 14.7478C11.8152 15.1618 11.4792 15.4978 11.0652 15.4978Z" fill="black"/>
<path d="M15.3612 13.8188H15.4632C15.8772 13.8188 16.2132 13.4828 16.2132 13.0688C16.2132 12.6548 15.8772 12.3188 15.4632 12.3188H15.3612C14.9472 12.3188 14.6112 12.6548 14.6112 13.0688C14.6112 13.4828 14.9472 13.8188 15.3612 13.8188Z" fill="black"/>
<path d="M17.0922 17.2308H17.1942C17.6082 17.2308 17.9442 16.8948 17.9442 16.4808C17.9442 16.0668 17.6082 15.7308 17.1942 15.7308H17.0922C16.6782 15.7308 16.3422 16.0668 16.3422 16.4808C16.3422 16.8948 16.6782 17.2308 17.0922 17.2308Z" fill="black"/>
</svg>