<svg width="25" height="25" viewBox="0 0 25 25" fill="none" xmlns="http://www.w3.org/2000/svg">
<path opacity="0.4" d="M13.0005 7.32764H16.0125C20.1025 7.32764 23.4285 10.6546 23.4285 14.7436C23.4285 18.8326 20.1025 22.1596 16.0125 22.1596H8.48753C4.39753 22.1596 1.07153 18.8326 1.07153 14.7436C1.07153 10.6546 4.39753 7.32764 8.48753 7.32764H11.5005H13.0005Z" fill="black"/>
<path d="M13.0006 7.32767V6.97967C12.9936 5.46067 11.7346 4.22067 10.1906 4.21567H9.16161C8.84061 4.21567 8.57861 3.96567 8.57861 3.65967V2.90967H7.07861V3.65967C7.07861 4.79267 8.01361 5.71567 9.16161 5.71567H10.1876C10.9086 5.71767 11.4976 6.28867 11.5006 6.98367V7.32767H13.0006Z" fill="black"/>
<path d="M11.5025 15.4656H9.64252V17.2886H8.14252V15.4656H6.28052V13.9656H8.14252V12.1416H9.64252V13.9656H11.5025V15.4656Z" fill="black"/>
<path d="M15.9905 13.7516H14.3865V12.2516H15.9905V13.7516Z" fill="black"/>
<path d="M17.7565 17.2336H16.1525V15.7336H17.7565V17.2336Z" fill="black"/>
</svg>