<svg width="25" height="25" viewBox="0 0 25 25" fill="none" xmlns="http://www.w3.org/2000/svg">
<path d="M8.89253 12.7666V16.4143" stroke="black" stroke-width="1.5" stroke-linecap="square"/>
<path d="M10.7526 14.5907H7.03076" stroke="black" stroke-width="1.5" stroke-linecap="square"/>
<path d="M15.2406 12.8776H15.1363" stroke="black" stroke-width="1.5" stroke-linecap="square"/>
<path d="M17.0064 16.3593H16.9022" stroke="black" stroke-width="1.5" stroke-linecap="square"/>
<path d="M7.82861 3.53467C7.82861 4.25592 8.42519 4.84061 9.1611 4.84061H10.1901C11.3255 4.84465 12.2451 5.74596 12.2503 6.85869V7.56593" stroke="black" stroke-width="1.5" stroke-linecap="square"/>
<path fill-rule="evenodd" clip-rule="evenodd" d="M16.0123 21.5347C19.8319 21.5347 22.9282 18.4383 22.9282 14.6188V14.6188C22.9282 10.7992 19.8319 7.70287 16.0123 7.70287L8.48767 7.70287C4.66813 7.70287 1.57178 10.7992 1.57178 14.6188V14.6188C1.57178 18.4383 4.66813 21.5347 8.48767 21.5347L16.0123 21.5347Z" stroke="black" stroke-width="1.5" stroke-linecap="round"/>
</svg>