<svg width="24" height="24" viewBox="0 0 24 24" fill="none" xmlns="http://www.w3.org/2000/svg">
<path fill-rule="evenodd" clip-rule="evenodd" d="M5.88039 3.9037L3.13139 8.6657C2.73339 9.3537 3.23039 10.2137 4.02439 10.2137H9.52339C10.3174 10.2137 10.8144 9.3537 10.4174 8.6657L7.66739 3.9037C7.27039 3.2157 6.27739 3.2157 5.88039 3.9037Z" stroke="black" stroke-width="1.5"/>
<path fill-rule="evenodd" clip-rule="evenodd" d="M21.01 6.90638C21.01 4.99338 19.459 3.44238 17.546 3.44238C15.633 3.44238 14.082 4.99338 14.082 6.90638C14.082 8.81938 15.633 10.3704 17.546 10.3704C19.459 10.3704 21.01 8.81938 21.01 6.90638Z" stroke="black" stroke-width="1.5"/>
<path fill-rule="evenodd" clip-rule="evenodd" d="M19.6964 13.9619H15.5044C14.8254 13.9619 14.2754 14.5119 14.2754 15.1909V19.3829C14.2754 20.0619 14.8254 20.6119 15.5044 20.6119H19.6964C20.3754 20.6119 20.9254 20.0619 20.9254 19.3829V15.1909C20.9254 14.5119 20.3754 13.9619 19.6964 13.9619Z" stroke="black" stroke-width="1.5"/>
<path d="M9.74077 14.29L3.61377 20.417M3.61328 14.29L9.74028 20.417" stroke="black" stroke-width="1.5" stroke-linecap="round"/>
</svg>