<svg width="24" height="24" viewBox="0 0 24 24" fill="none" xmlns="http://www.w3.org/2000/svg">
<path fill-rule="evenodd" clip-rule="evenodd" d="M2.98725 13.6093C3.28014 13.3164 3.75501 13.3164 4.04791 13.6093L6.63259 16.194L9.21727 13.6093C9.51016 13.3164 9.98504 13.3164 10.2779 13.6093C10.5708 13.9022 10.5708 14.3771 10.2779 14.67L7.69325 17.2547L10.2789 19.8403C10.5718 20.1332 10.5718 20.6081 10.2789 20.901C9.98601 21.1939 9.51114 21.1939 9.21825 20.901L6.63259 18.3153L4.04693 20.901C3.75404 21.1939 3.27916 21.1939 2.98627 20.901C2.69338 20.6081 2.69338 20.1332 2.98627 19.8403L5.57193 17.2547L2.98725 14.67C2.69435 14.3771 2.69435 13.9022 2.98725 13.6093Z" fill="black"/>
<path fill-rule="evenodd" clip-rule="evenodd" d="M15.4877 14.5869C15.1106 14.5869 14.8047 14.8924 14.8047 15.2709V19.2399C14.8047 19.617 15.1102 19.9229 15.4877 19.9229H19.4567C19.8341 19.9229 20.1397 19.617 20.1397 19.2399V15.2709C20.1397 14.8924 19.8338 14.5869 19.4567 14.5869H15.4877ZM13.3047 15.2709C13.3047 14.0654 14.2808 13.0869 15.4877 13.0869H19.4567C20.6636 13.0869 21.6397 14.0654 21.6397 15.2709V19.2399C21.6397 20.4448 20.6632 21.4229 19.4567 21.4229H15.4877C14.2811 21.4229 13.3047 20.4448 13.3047 19.2399V15.2709Z" fill="black"/>
<path fill-rule="evenodd" clip-rule="evenodd" d="M8.35488 3.7352C8.35491 3.73525 8.35485 3.73514 8.35488 3.7352L10.7638 8.04903C11.4976 9.36345 10.5481 10.9837 9.04197 10.9837H4.22397C2.71784 10.9837 1.76829 9.36352 2.50211 8.0491L4.91105 3.7352C4.91108 3.73514 4.91102 3.73525 4.91105 3.7352C5.6632 2.38775 7.60273 2.38775 8.35488 3.7352ZM7.04505 4.46619C6.86517 4.14386 6.40077 4.14386 6.22088 4.46619L3.81183 8.78029C3.81181 8.78031 3.81184 8.78027 3.81183 8.78029C3.63571 9.09586 3.86412 9.48369 4.22397 9.48369H9.04197C9.40181 9.48369 9.63026 9.09593 9.45415 8.78036C9.45413 8.78033 9.45416 8.78038 9.45415 8.78036L7.04505 4.46619Z" fill="black"/>
<path fill-rule="evenodd" clip-rule="evenodd" d="M13.1953 6.85415C13.1953 4.49166 15.1114 2.57715 17.4733 2.57715C19.8355 2.57715 21.7503 4.49193 21.7503 6.85415C21.7503 9.21636 19.8355 11.1311 17.4733 11.1311C15.1114 11.1311 13.1953 9.21664 13.1953 6.85415ZM17.4733 4.07715C15.9392 4.07715 14.6953 5.32064 14.6953 6.85415C14.6953 8.38766 15.9392 9.63115 17.4733 9.63115C19.0071 9.63115 20.2503 8.38793 20.2503 6.85415C20.2503 5.32036 19.0071 4.07715 17.4733 4.07715Z" fill="black"/>
</svg>