<svg width="25" height="25" viewBox="0 0 25 25" fill="none" xmlns="http://www.w3.org/2000/svg">
<path d="M16.8695 21.8848V7.33396C16.8695 5.31309 15.6104 3.88477 13.5876 3.88477H7.79942C5.78245 3.88477 4.51855 5.31309 4.51855 7.33396V21.8848" stroke="black" stroke-width="1.5" stroke-linecap="round" stroke-linejoin="round"/>
<path d="M3.25781 21.8848H18.1326" stroke="black" stroke-width="1.5" stroke-linecap="round" stroke-linejoin="round"/>
<path d="M19.395 7.52637L21.2436 9.37502V16.9068C21.2436 17.5295 20.7396 18.0335 20.1169 18.0335C19.4952 18.0335 18.9902 17.5295 18.9902 16.9068V15.4746C18.9902 14.8529 18.4853 14.3479 17.8635 14.3479H16.8711" stroke="black" stroke-width="1.5" stroke-linecap="round" stroke-linejoin="round"/>
<path d="M9.46094 18.3818H11.9342" stroke="black" stroke-width="1.5" stroke-linecap="round" stroke-linejoin="round"/>
<path d="M8.64425 7.34863H12.7444C13.6074 7.34863 14.1445 7.95771 14.1445 8.81977V11.1471C14.1445 12.0092 13.6074 12.6183 12.7444 12.6183H8.64425C7.78122 12.6183 7.24414 12.0092 7.24414 11.1471V8.81977C7.24414 7.95771 7.78414 7.34863 8.64425 7.34863Z" stroke="black" stroke-width="1.5" stroke-linecap="round" stroke-linejoin="round"/>
<path d="M11.2937 10.0879L10.4219 12.6186" stroke="black" stroke-width="1.5" stroke-linecap="round" stroke-linejoin="round"/>
</svg>