<svg width="25" height="24" viewBox="0 0 25 24" fill="none" xmlns="http://www.w3.org/2000/svg">
<path opacity="0.4" d="M12.958 6.38733H16.7152" stroke="black" stroke-width="1.5" stroke-linecap="round" stroke-linejoin="round"/>
<path d="M16.7421 21H7.7582C6.1076 21 4.76953 19.6619 4.76953 18.0113V10.0666C4.76953 9.18706 5.15694 8.35219 5.82858 7.78433L10.3815 3.93492C10.921 3.47879 11.6046 3.22852 12.3111 3.22852H16.7421C18.3927 3.22852 19.7307 4.56658 19.7307 6.21718V18.0113C19.7307 19.6619 18.3927 21 16.7421 21Z" stroke="black" stroke-width="1.5" stroke-linecap="round" stroke-linejoin="round"/>
<path opacity="0.4" d="M9.70564 4.47319L8.64095 3.40851C8.12819 2.89574 7.30802 2.86146 6.75426 3.32966L5.39365 4.48004C4.77038 5.007 4.7308 5.95418 5.30793 6.5313L6.19917 7.42255" stroke="black" stroke-width="1.5" stroke-linecap="round" stroke-linejoin="round"/>
<path opacity="0.4" fill-rule="evenodd" clip-rule="evenodd" d="M14.0811 18.1147C12.5335 18.1147 11.8358 16.3957 12.5047 15.3492C13.1268 14.4549 14.0811 13.8375 14.0811 13.8375C14.0811 13.8375 15.0353 14.4549 15.6574 15.3492C16.3263 16.3957 15.6286 18.1147 14.0811 18.1147Z" stroke="black" stroke-width="1.5" stroke-linecap="round" stroke-linejoin="round"/>
<path opacity="0.4" fill-rule="evenodd" clip-rule="evenodd" d="M9.56372 13.57C8.42759 13.57 7.91541 12.3081 8.40647 11.5398C8.86321 10.8833 9.56372 10.4301 9.56372 10.4301C9.56372 10.4301 10.2642 10.8833 10.721 11.5398C11.212 12.3081 10.6998 13.57 9.56372 13.57Z" stroke="black" stroke-width="1.5" stroke-linecap="round" stroke-linejoin="round"/>
</svg>