<svg width="25" height="24" viewBox="0 0 25 24" fill="none" xmlns="http://www.w3.org/2000/svg">
<path d="M12.084 19.8285H6.15101C3.65155 19.8285 2.08398 18.0588 2.08398 15.554V8.45125C2.08398 5.94746 3.64398 4.17773 6.15101 4.17773H18.0159C20.524 4.17773 22.084 5.94746 22.084 8.45125V15.554C22.084 18.0588 20.524 19.8285 18.017 19.8285H16.0505" stroke="black" stroke-width="1.5" stroke-linecap="round" stroke-linejoin="round"/>
<path d="M9.65696 9.54467C9.32939 9.38251 8.96615 9.28305 8.5802 9.26467C7.14777 9.19332 5.96182 10.4268 5.90236 11.8603C5.83642 13.4366 6.8829 14.7382 8.44182 14.7382C9.35533 14.7382 10.0061 14.4117 10.0061 13.4993V11.9998H8.44182" stroke="black" stroke-width="1.5" stroke-linecap="round" stroke-linejoin="round"/>
<path d="M12.5264 11.6725V14.7395M12.5264 8.99219V9.003" stroke="black" stroke-width="1.5" stroke-linecap="round" stroke-linejoin="round"/>
<path d="M17.9622 10.0245C17.6552 9.68608 17.2617 9.48175 16.7741 9.41797C15.9611 9.41797 15.3027 10.0774 15.3027 10.8904V14.738" stroke="black" stroke-width="1.5" stroke-linecap="round" stroke-linejoin="round"/>
<path d="M17.519 12.5195H15.3027" stroke="black" stroke-width="1.5" stroke-linecap="round" stroke-linejoin="round"/>
</svg>