<svg width="25" height="24" viewBox="0 0 25 24" fill="none" xmlns="http://www.w3.org/2000/svg">
<path d="M6.90101 4.17578H18.767C21.274 4.17578 22.834 5.94551 22.834 8.45038V15.5531C22.834 18.0569 21.274 19.8266 18.7659 19.8266H6.90101C4.39398 19.8266 2.83398 18.0569 2.83398 15.5531V8.45038C2.83398 5.94551 4.40155 4.17578 6.90101 4.17578Z" stroke="black" stroke-width="1.5" stroke-linecap="round" stroke-linejoin="round"/>
<path d="M10.406 9.54467C10.0784 9.38251 9.71517 9.28305 9.32922 9.26467C7.89679 9.19332 6.71084 10.4268 6.65139 11.8603C6.58544 13.4366 7.63193 14.7382 9.19084 14.7382C10.1044 14.7382 10.7552 14.4117 10.7552 13.4993V11.9998H9.19084" stroke="black" stroke-width="1.5" stroke-linecap="round" stroke-linejoin="round"/>
<path d="M13.2773 11.6725V14.7395M13.2773 8.99219V9.003" stroke="black" stroke-width="1.5" stroke-linecap="round" stroke-linejoin="round"/>
<path d="M18.7122 10.0245C18.4052 9.68608 18.0117 9.48175 17.5241 9.41797C16.7111 9.41797 16.0527 10.0774 16.0527 10.8904V14.738" stroke="black" stroke-width="1.5" stroke-linecap="round" stroke-linejoin="round"/>
<path d="M18.269 12.5195H16.0527" stroke="black" stroke-width="1.5" stroke-linecap="round" stroke-linejoin="round"/>
</svg>