<svg width="25" height="24" viewBox="0 0 25 24" fill="none" xmlns="http://www.w3.org/2000/svg">
<path fill-rule="evenodd" clip-rule="evenodd" d="M19.474 9.86188H17.109V11.7209H18.995C19.409 11.7209 19.745 12.0569 19.745 12.4709C19.745 12.8849 19.409 13.2209 18.995 13.2209H17.109V14.8719C17.109 15.2859 16.773 15.6219 16.359 15.6219C15.945 15.6219 15.609 15.2859 15.609 14.8719V9.11188C15.609 8.69788 15.945 8.36188 16.359 8.36188H19.474C19.888 8.36188 20.224 8.69788 20.224 9.11188C20.224 9.52588 19.888 9.86188 19.474 9.86188ZM14.107 14.8719C14.107 15.2859 13.771 15.6219 13.357 15.6219C12.943 15.6219 12.607 15.2859 12.607 14.8719V9.11188C12.607 8.69788 12.943 8.36188 13.357 8.36188C13.771 8.36188 14.107 8.69788 14.107 9.11188V14.8719ZM11.383 13.6119C11.383 14.9209 10.47 15.7019 8.94198 15.7019C7.98998 15.7019 7.11298 15.3339 6.47098 14.6659C5.77498 13.9399 5.40198 12.8999 5.44598 11.8099C5.48798 10.8129 5.93498 9.85588 6.67398 9.18288C7.36298 8.55587 8.24298 8.24487 9.13098 8.28288C9.63898 8.30587 10.133 8.43788 10.595 8.67287C10.965 8.85988 11.112 9.31087 10.925 9.68087C10.737 10.0489 10.286 10.1959 9.91598 10.0099C9.64398 9.87188 9.35498 9.79488 9.05698 9.78088C8.55998 9.75787 8.07398 9.93687 7.68398 10.2929C7.23998 10.6979 6.96998 11.2729 6.94498 11.8729C6.91698 12.5549 7.13898 13.1949 7.55398 13.6269C7.91398 14.0029 8.39398 14.2019 8.94198 14.2019C9.88298 14.2019 9.88298 13.8749 9.88298 13.6119V12.7419H8.94198C8.52798 12.7419 8.19198 12.4059 8.19198 11.9919C8.19198 11.5779 8.52798 11.2419 8.94198 11.2419H10.633C11.047 11.2419 11.383 11.5779 11.383 11.9919V13.6119ZM18.767 3.67188H6.90098C4.16898 3.67188 2.33398 5.58888 2.33398 8.44187V15.5419C2.33398 18.4009 4.16898 20.3219 6.90098 20.3219H18.766C21.498 20.3219 23.334 18.4009 23.334 15.5419V8.44187C23.334 5.58888 21.498 3.67188 18.767 3.67188Z" fill="black"/>
</svg>