<svg width="25" height="24" viewBox="0 0 25 24" fill="none" xmlns="http://www.w3.org/2000/svg">
<path d="M12.084 19.8285H6.15101C3.65155 19.8285 2.08398 18.0588 2.08398 15.554V8.45125C2.08398 5.94746 3.64398 4.17773 6.15101 4.17773H18.0159C20.524 4.17773 22.084 5.94746 22.084 8.45125V15.554C22.084 18.0588 20.524 19.8285 18.017 19.8285H16.0505" stroke="black" stroke-width="1.5" stroke-linecap="round" stroke-linejoin="round"/>
<path d="M18.724 9.125H15.6094V14.8764" stroke="black" stroke-width="1.5" stroke-linecap="round" stroke-linejoin="round"/>
<path d="M18.245 12.4805H15.6094" stroke="black" stroke-width="1.5" stroke-linecap="round" stroke-linejoin="round"/>
<path d="M12.6074 9.125V14.8764" stroke="black" stroke-width="1.5" stroke-linecap="round" stroke-linejoin="round"/>
<path d="M9.50592 9.34501C9.15241 9.16987 8.75889 9.06284 8.34268 9.0423C6.79349 8.96447 5.51132 10.2996 5.44646 11.8488C5.37619 13.5526 6.507 14.9601 8.19241 14.9601C9.17943 14.9601 9.88322 14.6077 9.88322 13.6207V11.9991H8.19241" stroke="black" stroke-width="1.5" stroke-linecap="round" stroke-linejoin="round"/>
</svg>