<svg width="25" height="24" viewBox="0 0 25 24" fill="none" xmlns="http://www.w3.org/2000/svg">
<path opacity="0.4" d="M6.40101 4.17578H18.267C20.774 4.17578 22.334 5.94551 22.334 8.45038V15.5531C22.334 18.0569 20.774 19.8266 18.2659 19.8266H6.40101C3.89398 19.8266 2.33398 18.0569 2.33398 15.5531V8.45038C2.33398 5.94551 3.90155 4.17578 6.40101 4.17578Z" stroke="black" stroke-width="1.5" stroke-linecap="round" stroke-linejoin="round"/>
<path d="M18.974 9.125H15.8594V14.8764" stroke="black" stroke-width="1.5" stroke-linecap="round" stroke-linejoin="round"/>
<path d="M18.495 12.4805H15.8594" stroke="black" stroke-width="1.5" stroke-linecap="round" stroke-linejoin="round"/>
<path d="M12.8574 9.125V14.8764" stroke="black" stroke-width="1.5" stroke-linecap="round" stroke-linejoin="round"/>
<path d="M9.75592 9.34501C9.40241 9.16987 9.00889 9.06284 8.59268 9.0423C7.04349 8.96447 5.76132 10.2996 5.69646 11.8488C5.62619 13.5526 6.757 14.9601 8.44241 14.9601C9.42943 14.9601 10.1332 14.6077 10.1332 13.6207V11.9991H8.44241" stroke="black" stroke-width="1.5" stroke-linecap="round" stroke-linejoin="round"/>
</svg>