<svg width="24" height="25" viewBox="0 0 24 25" fill="none" xmlns="http://www.w3.org/2000/svg">
<path fill-rule="evenodd" clip-rule="evenodd" d="M3.06449 8.47332C3.78609 7.6539 4.81986 7.19482 6.03526 7.19482H13.4537C14.4686 7.19482 15.3633 7.51459 16.0569 8.10704C16.747 8.69649 17.1962 9.51967 17.3913 10.4608C17.4753 10.8664 17.2147 11.2633 16.8091 11.3474C16.4035 11.4314 16.0065 11.1708 15.9225 10.7652C15.7851 10.1021 15.4849 9.59119 15.0827 9.24761C14.684 8.90704 14.1433 8.69482 13.4537 8.69482H6.03526C5.21772 8.69482 4.60593 8.99259 4.19021 9.46466C3.76563 9.94679 3.49414 10.6713 3.49414 11.5971V17.3789C3.49414 18.3047 3.76563 19.0292 4.19021 19.5113C4.60593 19.9834 5.21772 20.2812 6.03526 20.2812H11.2864C11.7006 20.2812 12.0364 20.617 12.0364 21.0312C12.0364 21.4454 11.7006 21.7812 11.2864 21.7812H6.03526C4.81986 21.7812 3.78609 21.3221 3.06449 20.5027C2.35174 19.6933 1.99414 18.5917 1.99414 17.3789V11.5971C1.99414 10.3843 2.35174 9.28268 3.06449 8.47332Z" fill="black"/>
<path fill-rule="evenodd" clip-rule="evenodd" d="M9.65234 11.6135C10.0666 11.6135 10.4023 11.9493 10.4023 12.3635V21.0317C10.4023 21.4459 10.0666 21.7817 9.65234 21.7817C9.23813 21.7817 8.90234 21.4459 8.90234 21.0317V12.3635C8.90234 11.9493 9.23813 11.6135 9.65234 11.6135Z" fill="black"/>
<path fill-rule="evenodd" clip-rule="evenodd" d="M6.54064 4.30322C6.19159 4.30322 5.91016 4.58514 5.91016 4.93255C5.91016 5.43036 6.21773 5.97778 6.91508 6.43596C7.44889 6.78669 8.16635 7.04871 8.99136 7.14978C8.928 5.46199 7.7561 4.30322 6.54064 4.30322ZM10.5002 7.14988C11.3252 7.04888 12.0427 6.78683 12.5766 6.43599C13.2738 5.97781 13.5814 5.43038 13.5814 4.93255C13.5814 4.58432 13.3003 4.30322 12.9521 4.30322C11.7353 4.30322 10.5635 5.4622 10.5002 7.14988ZM9.74582 4.66562C10.4467 3.55624 11.589 2.80322 12.9521 2.80322C14.1287 2.80322 15.0814 3.75589 15.0814 4.93255C15.0814 6.09823 14.3626 7.05721 13.4004 7.68954C12.4318 8.32604 11.1378 8.69535 9.74636 8.69535C8.35443 8.69535 7.06013 8.32607 6.0914 7.68958C5.12899 7.05724 4.41016 6.09825 4.41016 4.93255C4.41016 3.75508 5.3648 2.80322 6.54064 2.80322C7.90311 2.80322 9.04505 3.55627 9.74582 4.66562Z" fill="black"/>
<path fill-rule="evenodd" clip-rule="evenodd" d="M9.74774 7.19531C9.95895 7.19533 10.1604 7.2844 10.3025 7.44064L13.7051 11.1812C13.9838 11.4876 13.9614 11.962 13.655 12.2407C13.3486 12.5194 12.8742 12.497 12.5955 12.1906L9.74757 9.05978L6.89846 12.1907C6.61968 12.497 6.14533 12.5194 5.83898 12.2406C5.53262 11.9618 5.51027 11.4875 5.78905 11.1811L9.19297 7.44053C9.33511 7.28433 9.53654 7.19529 9.74774 7.19531Z" fill="black"/>
<path fill-rule="evenodd" clip-rule="evenodd" d="M17.3848 13.8735C17.799 13.8735 18.1348 14.2093 18.1348 14.6235L18.1348 21.0311C18.1348 21.4453 17.799 21.7811 17.3848 21.7811C16.9706 21.7811 16.6348 21.4453 16.6348 21.0311L16.6348 14.6235C16.6348 14.2093 16.9706 13.8735 17.3848 13.8735Z" fill="black"/>
<path fill-rule="evenodd" clip-rule="evenodd" d="M13.3911 14.6298C13.8224 14.14 14.4362 13.874 15.1328 13.874H19.6398C20.3361 13.874 20.9505 14.1397 21.3828 14.6287C21.8067 15.108 22.0057 15.7438 22.0057 16.4122V19.243C22.0057 19.9127 21.805 20.5483 21.3809 21.0271C20.9486 21.5151 20.3348 21.7812 19.6398 21.7812H15.1328C14.4362 21.7812 13.8224 21.5153 13.3911 21.0254C12.9685 20.5457 12.7715 19.9101 12.7715 19.243V16.4122C12.7715 15.7452 12.9685 15.1096 13.3911 14.6298ZM14.5168 15.6211C14.3824 15.7737 14.2715 16.0322 14.2715 16.4122V19.243C14.2715 19.623 14.3824 19.8816 14.5168 20.0341C14.6422 20.1766 14.8341 20.2812 15.1328 20.2812H19.6398C19.9361 20.2812 20.1302 20.1768 20.258 20.0325C20.3941 19.8789 20.5057 19.6204 20.5057 19.243V16.4122C20.5057 16.0336 20.3944 15.7752 20.2591 15.6223C20.1323 15.4789 19.9388 15.374 19.6398 15.374H15.1328C14.8341 15.374 14.6422 15.4786 14.5168 15.6211Z" fill="black"/>
<path fill-rule="evenodd" clip-rule="evenodd" d="M14.7589 11.9935C15.0518 11.7006 15.5267 11.7008 15.8195 11.9937L17.9189 14.0941C18.2118 14.3871 18.2117 14.862 17.9187 15.1548C17.6257 15.4476 17.1509 15.4475 16.858 15.1545L14.7586 13.0541C14.4658 12.7612 14.4659 12.2863 14.7589 11.9935Z" fill="black"/>
<path fill-rule="evenodd" clip-rule="evenodd" d="M20.0165 11.9935C20.3095 12.2863 20.3096 12.7612 20.0168 13.0541L17.9174 15.1545C17.6245 15.4475 17.1497 15.4476 16.8567 15.1548C16.5637 14.862 16.5636 14.3871 16.8564 14.0941L18.9559 11.9937C19.2487 11.7008 19.7236 11.7006 20.0165 11.9935Z" fill="black"/>
</svg>