<svg width="24" height="25" viewBox="0 0 24 25" fill="none" xmlns="http://www.w3.org/2000/svg">
<path fill-rule="evenodd" clip-rule="evenodd" d="M14.7723 9.56824C13.7253 9.56824 12.8623 10.5522 12.7623 11.8082C14.1343 11.5992 15.2153 10.8492 15.2153 10.0112C15.2153 9.76724 15.0163 9.56824 14.7723 9.56824Z" fill="black"/>
<path fill-rule="evenodd" clip-rule="evenodd" d="M8.055 11.8655C7.569 11.3375 7.285 10.7025 7.285 10.0115C7.285 8.93954 8.157 8.06854 9.229 8.06854C9.985 8.06854 10.675 8.35654 11.249 8.81754V3.41554C11.249 3.24985 11.1147 3.11554 10.949 3.11554H7.782C4.623 3.11554 2.5 5.33654 2.5 8.64154V11.5655C2.5 11.7312 2.63431 11.8655 2.8 11.8655H8.055Z" fill="black"/>
<path fill-rule="evenodd" clip-rule="evenodd" d="M12.7493 8.81923C13.3243 8.35723 14.0153 8.06823 14.7723 8.06823C15.8433 8.06823 16.7153 8.93923 16.7153 10.0112C16.7153 10.7022 16.4313 11.3372 15.9453 11.8652H21.2003C21.366 11.8652 21.5003 11.7309 21.5003 11.5652V8.64223C21.5003 5.33623 19.3773 3.11523 16.2173 3.11523H13.0493C12.8836 3.11523 12.7493 3.24955 12.7493 3.41523V8.81923Z" fill="black"/>
<path fill-rule="evenodd" clip-rule="evenodd" d="M12.762 13.4226C12.862 14.6786 13.725 15.6626 14.772 15.6626C15.016 15.6626 15.215 15.4646 15.215 15.2206C15.215 14.3816 14.135 13.6316 12.762 13.4226Z" fill="black"/>
<path fill-rule="evenodd" clip-rule="evenodd" d="M9.22931 9.56824C8.98431 9.56824 8.78531 9.76724 8.78531 10.0112C8.78531 10.8492 9.86631 11.5992 11.2393 11.8082C11.1393 10.5522 10.2763 9.56824 9.22931 9.56824Z" fill="black"/>
<path fill-rule="evenodd" clip-rule="evenodd" d="M15.9456 13.3655C16.4306 13.8945 16.7156 14.5285 16.7156 15.2205C16.7156 16.2915 15.8436 17.1625 14.7726 17.1625C14.0156 17.1625 13.3236 16.8735 12.7496 16.4115V21.8155C12.7496 21.9812 12.8839 22.1155 13.0496 22.1155H16.2166C19.3766 22.1155 21.5006 19.8945 21.5006 16.5895V13.6655C21.5006 13.4999 21.3663 13.3655 21.2006 13.3655H15.9456Z" fill="black"/>
<path fill-rule="evenodd" clip-rule="evenodd" d="M11.2493 16.4142C10.6753 16.8752 9.98531 17.1632 9.22931 17.1632C8.15731 17.1632 7.28531 16.2912 7.28531 15.2202C7.28531 14.5292 7.5693 13.8942 8.05531 13.3652H2.80031C2.63462 13.3652 2.50031 13.4995 2.50031 13.6652V16.5892C2.50031 19.8952 4.62331 22.1152 7.78231 22.1152H10.9493C11.115 22.1152 11.2493 21.9809 11.2493 21.8152V16.4142Z" fill="black"/>
<path fill-rule="evenodd" clip-rule="evenodd" d="M8.7854 15.2206C8.7854 15.4646 8.9844 15.6626 9.2294 15.6626C10.2764 15.6626 11.1394 14.6786 11.2394 13.4236C9.8664 13.6316 8.7854 14.3826 8.7854 15.2206Z" fill="black"/>
</svg>