<svg width="24" height="25" viewBox="0 0 24 25" fill="none" xmlns="http://www.w3.org/2000/svg">
<path fill-rule="evenodd" clip-rule="evenodd" d="M21.75 9.2302V16.0002C21.75 18.8602 20 20.7802 17.38 20.7802H6.6C4 20.7802 2.25 18.8602 2.25 16.0002V9.2302C2.25 6.3702 4 4.4502 6.6 4.4502H17.38C20 4.4502 21.75 6.3702 21.75 9.2302Z" fill="black" fill-opacity="0.4"/>
<path fill-rule="evenodd" clip-rule="evenodd" d="M12.76 11.9202C12.86 10.6602 13.73 9.6802 14.77 9.6802C15.02 9.6802 15.21 9.8802 15.21 10.1202C15.21 10.9602 14.13 11.7102 12.76 11.9202ZM8.79 10.1202C8.79 9.8802 8.98 9.6802 9.23 9.6802C10.28 9.6802 11.14 10.6602 11.24 11.9202C9.87 11.7102 8.79 10.9602 8.79 10.1202ZM21.75 11.9302H15.98C16.44 11.4102 16.71 10.7902 16.71 10.1202C16.71 9.0502 15.84 8.1802 14.77 8.1802C14.02 8.1802 13.33 8.4702 12.75 8.9302V4.4502H11.25V8.9302C10.68 8.4702 9.99 8.1802 9.23 8.1802C8.16 8.1802 7.29 9.0502 7.29 10.1202C7.29 10.7902 7.56 11.4102 8.02 11.9302H2.25V13.4302H10.35L8.5 15.4502C8.23 15.7602 8.25 16.2402 8.55 16.5102C8.7 16.6502 8.88 16.7102 9.06 16.7102C9.26 16.7102 9.47 16.6302 9.61 16.4602L11.25 14.6602V20.7802H12.75V14.6602L14.39 16.4602C14.67 16.7702 15.14 16.7902 15.45 16.5102C15.75 16.2402 15.78 15.7602 15.5 15.4502L13.65 13.4302H21.75V11.9302Z" fill="black"/>
</svg>