<svg width="24" height="25" viewBox="0 0 24 25" fill="none" xmlns="http://www.w3.org/2000/svg">
<path d="M7.78314 3.61523H16.2179C19.166 3.61523 21.001 5.69641 21.001 8.6416V16.5888C21.001 19.534 19.166 21.6152 16.2169 21.6152H7.78314C4.83503 21.6152 3.00098 19.534 3.00098 16.5888V8.6416C3.00098 5.69641 4.84379 3.61523 7.78314 3.61523Z" stroke="black" stroke-width="1.5" stroke-linecap="round" stroke-linejoin="round"/>
<path d="M12.0025 12.0521C12.0025 10.2652 13.2431 8.81787 14.7733 8.81787C15.4326 8.81787 15.9659 9.35125 15.9659 10.0105C15.9659 11.4488 14.191 12.6155 12.0015 12.6155C9.81108 12.6155 8.03613 11.4488 8.03613 10.0105C8.03613 9.35125 8.57051 8.81787 9.22975 8.81787C10.759 8.81787 11.9995 10.2652 11.9995 12.0521" stroke="black" stroke-width="1.5" stroke-linecap="round" stroke-linejoin="round"/>
<path d="M12.0025 13.1786C12.0025 14.9655 13.2431 16.4128 14.7733 16.4128C15.4326 16.4128 15.9659 15.8794 15.9659 15.2202C15.9659 13.7819 14.191 12.6152 12.0015 12.6152C9.81108 12.6152 8.03613 13.7819 8.03613 15.2202C8.03613 15.8794 8.57051 16.4128 9.22975 16.4128C10.759 16.4128 11.9995 14.9655 11.9995 13.1786" stroke="black" stroke-width="1.5" stroke-linecap="round" stroke-linejoin="round"/>
<path opacity="0.4" d="M21 12.6152L3 12.6152" stroke="black" stroke-width="1.5" stroke-linecap="round" stroke-linejoin="round"/>
<path opacity="0.4" d="M12 21.6152L12 3.61523" stroke="black" stroke-width="1.5" stroke-linecap="round" stroke-linejoin="round"/>
</svg>