<svg width="24" height="25" viewBox="0 0 24 25" fill="none" xmlns="http://www.w3.org/2000/svg">
<path fill-rule="evenodd" clip-rule="evenodd" d="M3.14518 10.2858C3.57912 8.56839 5.32324 7.52798 7.04063 7.96209L9.49064 8.58137C9.89222 8.68288 10.1355 9.09072 10.034 9.4923C9.93247 9.89388 9.52463 10.1371 9.12305 10.0356L6.67304 9.41635C5.75886 9.18527 4.83046 9.73908 4.59947 10.6533C4.36852 11.5674 4.92224 12.4956 5.83629 12.7266L7.48208 13.1427C8.66357 13.4413 9.18146 14.8294 8.48433 15.829L6.49559 18.6804C5.95607 19.454 6.14592 20.5185 6.91961 21.0578C7.69319 21.5971 8.75747 21.4071 9.29673 20.6335L10.7063 18.6115C11.3997 17.6167 12.8719 17.6167 13.5653 18.6115L14.9749 20.6335C15.5141 21.4071 16.5784 21.5971 17.352 21.0578C18.1257 20.5185 18.3155 19.454 17.776 18.6804L15.7466 15.7708C15.0494 14.7713 15.5673 13.3831 16.7488 13.0845L18.1639 12.7267C19.078 12.4956 19.6317 11.5674 19.4007 10.6533C19.1697 9.7391 18.2413 9.18528 17.3271 9.41636L17.3196 9.41827L17.3196 9.41823L14.8405 10.0175C14.4379 10.1149 14.0326 9.86739 13.9352 9.46477C13.8379 9.06216 14.0854 8.65687 14.488 8.55954L16.9635 7.96108C18.6797 7.52961 20.4214 8.56974 20.855 10.2859C21.2889 12.003 20.2487 13.7469 18.5316 14.181L17.1164 14.5387C16.9519 14.5803 16.8798 14.7735 16.9769 14.9127L19.0063 17.8223C20.0198 19.2755 19.6632 21.2751 18.2098 22.2883C16.7566 23.3014 14.7573 22.9445 13.7443 21.4913L12.3348 19.4692C12.2383 19.3308 12.0333 19.3308 11.9368 19.4692L10.5273 21.4913C9.51426 22.9445 7.51499 23.3014 6.0618 22.2883C4.60841 21.2751 4.25176 19.2755 5.26527 17.8223L7.25401 14.9709C7.35105 14.8317 7.27896 14.6385 7.11449 14.5969L5.46869 14.1809C3.75153 13.7469 2.71129 12.003 3.14518 10.2858Z" fill="black"/>
<path fill-rule="evenodd" clip-rule="evenodd" d="M11.9987 3.86475C13.5955 3.86475 14.89 5.1592 14.89 6.75598C14.89 8.35276 13.5955 9.64721 11.9987 9.64721C11.5845 9.64721 11.2487 9.983 11.2487 10.3972C11.2487 10.8114 11.5845 11.1472 11.9987 11.1472C14.4239 11.1472 16.39 9.18119 16.39 6.75598C16.39 4.33077 14.4239 2.36475 11.9987 2.36475C9.57352 2.36475 7.6075 4.33077 7.6075 6.75598C7.6075 7.9103 8.02675 9.00426 8.79143 9.80611C9.07729 10.1059 9.55203 10.1171 9.85179 9.83127C10.1515 9.5454 10.1628 9.07066 9.87695 8.77091C9.39532 8.26586 9.1075 7.55014 9.1075 6.75598C9.1075 5.1592 10.402 3.86475 11.9987 3.86475Z" fill="black"/>
<path fill-rule="evenodd" clip-rule="evenodd" d="M11.9663 12.4111C12.3805 12.4111 12.7163 12.7469 12.7163 13.1611V13.1711C12.7163 13.5853 12.3805 13.9211 11.9663 13.9211C11.552 13.9211 11.2163 13.5853 11.2163 13.1711V13.1611C11.2163 12.7469 11.552 12.4111 11.9663 12.4111Z" fill="black"/>
<path fill-rule="evenodd" clip-rule="evenodd" d="M11.9663 14.9861C12.3805 14.9861 12.7163 15.3219 12.7163 15.7361V15.7461C12.7163 16.1603 12.3805 16.4961 11.9663 16.4961C11.552 16.4961 11.2163 16.1603 11.2163 15.7461V15.7361C11.2163 15.3219 11.552 14.9861 11.9663 14.9861Z" fill="black"/>
<path fill-rule="evenodd" clip-rule="evenodd" d="M18.9856 17.9303C19.0439 18.3404 18.7588 18.7201 18.3487 18.7785L17.3994 18.9136L17.2643 19.8629C17.2173 20.1932 16.9578 20.4528 16.6275 20.4998L15.6782 20.6349L15.5431 21.5842C15.4847 21.9943 15.1049 22.2794 14.6949 22.221C14.2848 22.1627 13.9997 21.7829 14.058 21.3728L14.2725 19.866C14.3195 19.5357 14.579 19.2762 14.9093 19.2292L15.8586 19.0941L15.9937 18.1448C16.0408 17.8145 16.3003 17.5549 16.6306 17.5079L18.1374 17.2935C18.5475 17.2351 18.9272 17.5202 18.9856 17.9303Z" fill="black"/>
<path fill-rule="evenodd" clip-rule="evenodd" d="M16.741 12.1582C16.6166 12.4678 16.7116 12.8223 16.9741 13.0282L18.1137 13.9217C18.4396 14.1773 18.9111 14.1203 19.1667 13.7943C19.4223 13.4683 19.3652 12.9969 19.0392 12.7413L18.3428 12.1952L18.6729 11.3741C18.7973 11.0646 18.7023 10.71 18.4398 10.5042L17.87 10.0574C17.5441 9.80181 17.0726 9.85885 16.817 10.1848C16.5615 10.5108 16.6185 10.9822 16.9445 11.2378L17.0711 11.3371L16.741 12.1582Z" fill="black"/>
<path fill-rule="evenodd" clip-rule="evenodd" d="M7.19151 12.1582C7.31595 12.4678 7.22095 12.8223 6.95841 13.0282L5.81886 13.9217C5.4929 14.1773 5.02146 14.1203 4.76588 13.7943C4.51029 13.4683 4.56734 12.9969 4.89329 12.7413L5.58973 12.1952L5.25964 11.3741C5.1352 11.0646 5.2302 10.71 5.49274 10.5042L6.06252 10.0574C6.38847 9.80181 6.85991 9.85885 7.11549 10.1848C7.37108 10.5108 7.31403 10.9822 6.98808 11.2378L6.86142 11.3371L7.19151 12.1582Z" fill="black"/>
<path fill-rule="evenodd" clip-rule="evenodd" d="M5.28572 17.9303C5.34408 17.5202 5.72383 17.2351 6.13391 17.2935L7.64071 17.5079C7.97101 17.5549 8.23054 17.8145 8.27755 18.1448L8.41266 19.0941L9.36198 19.2292C9.69227 19.2762 9.9518 19.5357 9.99881 19.866L10.2133 21.3728C10.2716 21.7829 9.98652 22.1627 9.57644 22.221C9.16636 22.2794 8.78661 21.9943 8.72824 21.5842L8.59312 20.6349L7.64381 20.4998C7.31352 20.4528 7.05399 20.1932 7.00698 19.8629L6.87186 18.9136L5.92255 18.7785C5.51247 18.7201 5.22735 18.3404 5.28572 17.9303Z" fill="black"/>
<path fill-rule="evenodd" clip-rule="evenodd" d="M12.9893 7.40014C13.3024 7.67133 13.3364 8.14498 13.0652 8.45808C12.9556 8.5846 12.8059 8.67901 12.7007 8.73624C12.5721 8.80626 12.4034 8.87832 12.2081 8.9208C11.8015 9.00919 11.2244 8.96987 10.7749 8.46671C10.499 8.1578 10.5257 7.68368 10.8346 7.40773C11.1398 7.13513 11.6061 7.15788 11.8834 7.45625C11.8853 7.4559 11.8873 7.4555 11.8894 7.45504C11.9032 7.45203 11.9193 7.4472 11.9368 7.44041C11.9543 7.43364 11.9704 7.42598 11.9835 7.41882C11.9862 7.41734 11.9886 7.41598 11.9908 7.41474C12.2677 7.15968 12.698 7.14782 12.9893 7.40014Z" fill="black"/>
<path fill-rule="evenodd" clip-rule="evenodd" d="M13.6992 5.95874C13.6992 6.37295 13.3634 6.70874 12.9492 6.70874L12.9414 6.70874C12.5272 6.70874 12.1914 6.37295 12.1914 5.95874C12.1914 5.54453 12.5272 5.20874 12.9414 5.20874L12.9492 5.20874C13.3634 5.20874 13.6992 5.54453 13.6992 5.95874Z" fill="black"/>
<path fill-rule="evenodd" clip-rule="evenodd" d="M11.7411 5.95874C11.7411 6.37295 11.4053 6.70874 10.9911 6.70874L10.9834 6.70874C10.5692 6.70874 10.2334 6.37295 10.2334 5.95874C10.2334 5.54453 10.5692 5.20874 10.9834 5.20874L10.9911 5.20874C11.4053 5.20874 11.7411 5.54453 11.7411 5.95874Z" fill="black"/>
</svg>