<svg width="25" height="24" viewBox="0 0 25 24" fill="none" xmlns="http://www.w3.org/2000/svg">
<path fill-rule="evenodd" clip-rule="evenodd" d="M7.10701 9.18473C5.67564 9.18473 4.51465 8.02374 4.51465 6.59237C4.51465 5.16099 5.67564 4 7.10701 4C8.53839 4 9.69938 5.16099 9.69938 6.59237C9.69938 8.02374 8.53839 9.18473 7.10701 9.18473Z" stroke="black" stroke-width="1.5" stroke-linecap="round" stroke-linejoin="round"/>
<path fill-rule="evenodd" clip-rule="evenodd" d="M17.8931 19.8996C16.4618 19.8996 15.3008 18.7386 15.3008 17.3072C15.3008 15.8758 16.4618 14.7148 17.8931 14.7148C19.3245 14.7148 20.4855 15.8758 20.4855 17.3072C20.4855 18.7386 19.3245 19.8996 17.8931 19.8996Z" stroke="black" stroke-width="1.5" stroke-linecap="round" stroke-linejoin="round"/>
<path opacity="0.4" d="M6.92578 9.18359V19.9992" stroke="black" stroke-width="1.5" stroke-linecap="round" stroke-linejoin="round"/>
<path opacity="0.4" d="M6.92578 9.17188C7.13995 13.6249 10.7987 17.1765 15.3052 17.2033" stroke="black" stroke-width="1.5" stroke-linecap="round" stroke-linejoin="round"/>
</svg>