<svg width="24" height="24" viewBox="0 0 24 24" fill="none" xmlns="http://www.w3.org/2000/svg">
<path fill-rule="evenodd" clip-rule="evenodd" d="M17.3566 10.498C16.6936 10.498 16.0896 10.738 15.6106 11.127L11.8316 8.42604C11.9646 8.10204 12.0406 7.74904 12.0406 7.37804C12.0406 5.84604 10.7936 4.59904 9.26058 4.59904C8.56558 4.59904 7.93658 4.86504 7.44858 5.28904L5.04958 3.57704C4.71358 3.33704 4.24558 3.41404 4.00358 3.75104C3.76358 4.08804 3.84158 4.55704 4.17858 4.79704L6.62358 6.54304C6.53958 6.80804 6.48158 7.08504 6.48158 7.37804C6.48158 8.64904 7.34358 9.71204 8.51058 10.042V15.119C7.34358 15.449 6.48158 16.512 6.48158 17.783C6.48158 19.315 7.72858 20.562 9.26058 20.562C10.7936 20.562 12.0406 19.315 12.0406 17.783C12.0406 16.512 11.1776 15.449 10.0106 15.119V10.042C10.3376 9.95004 10.6386 9.80504 10.9046 9.60804L14.7426 12.351C14.6386 12.641 14.5776 12.951 14.5776 13.277C14.5776 14.81 15.8246 16.056 17.3566 16.056C18.8896 16.056 20.1356 14.81 20.1356 13.277C20.1356 11.745 18.8896 10.498 17.3566 10.498Z" fill="black"/>
</svg>