<svg width="25" height="24" viewBox="0 0 25 24" fill="none" xmlns="http://www.w3.org/2000/svg">
<path d="M21.25 12V8.02638C21.25 5.08119 19.415 3 16.4669 3H8.03216C5.09281 3 3.25 5.08119 3.25 8.02638V15.9736C3.25 18.9188 5.08405 21 8.03216 21H16.4659C19.415 21 21.25 18.9188 21.25 15.9736V15.6207" stroke="black" stroke-width="1.5" stroke-linecap="round" stroke-linejoin="round"/>
<path fill-rule="evenodd" clip-rule="evenodd" d="M10.2498 17.4693C9.34201 17.4693 8.60547 16.7328 8.60547 15.825C8.60547 14.9172 9.34201 14.1816 10.2498 14.1816C11.1576 14.1816 11.8941 14.9172 11.8941 15.825C11.8941 16.7328 11.1576 17.4693 10.2498 17.4693Z" stroke="black" stroke-width="1.5" stroke-linecap="round" stroke-linejoin="round"/>
<path fill-rule="evenodd" clip-rule="evenodd" d="M10.2498 10.356C9.34201 10.356 8.60547 9.61949 8.60547 8.71171C8.60547 7.80393 9.34201 7.06836 10.2498 7.06836C11.1576 7.06836 11.8941 7.80393 11.8941 8.71171C11.8941 9.61949 11.1576 10.356 10.2498 10.356Z" stroke="black" stroke-width="1.5" stroke-linecap="round" stroke-linejoin="round"/>
<path d="M14.4521 11.8107L14.4404 11.7991M15.785 14.3892C14.8772 14.3892 14.1406 13.6537 14.1406 12.7459C14.1406 11.8371 14.8772 11.1016 15.785 11.1016C16.6927 11.1016 17.4293 11.8371 17.4293 12.7459C17.4293 13.6537 16.6927 14.3892 15.785 14.3892Z" stroke="black" stroke-width="1.5" stroke-linecap="round" stroke-linejoin="round"/>
<path d="M8.87227 7.81362L7.07227 6.5293" stroke="black" stroke-width="1.5" stroke-linecap="round" stroke-linejoin="round"/>
<path d="M10.2495 10.3555V14.1827" stroke="black" stroke-width="1.5" stroke-linecap="round" stroke-linejoin="round"/>
<path d="M14.4405 11.799L11.543 9.72852" stroke="black" stroke-width="1.5" stroke-linecap="round" stroke-linejoin="round"/>
</svg>