<svg width="24" height="24" viewBox="0 0 24 24" fill="none" xmlns="http://www.w3.org/2000/svg">
<path fill-rule="evenodd" clip-rule="evenodd" d="M17.392 14.1525C16.06 14.1525 14.943 15.0415 14.569 16.2525C10.717 16.1115 7.57398 13.1355 7.20898 9.3105C8.55698 9.0315 9.57398 7.8345 9.57398 6.4045C9.57398 4.7685 8.24298 3.4375 6.60698 3.4375C4.96998 3.4375 3.63898 4.7685 3.63898 6.4045C3.63898 7.7135 4.49698 8.8145 5.67498 9.2085V19.8115C5.67498 20.2255 6.01098 20.5615 6.42498 20.5615C6.83898 20.5615 7.17498 20.2255 7.17498 19.8115V13.6085C8.75798 16.0195 11.437 17.6305 14.496 17.7495C14.785 19.0835 15.973 20.0875 17.392 20.0875C19.029 20.0875 20.361 18.7565 20.361 17.1195C20.361 15.4835 19.029 14.1525 17.392 14.1525Z" fill="black"/>
</svg>