<svg width="25" height="24" viewBox="0 0 25 24" fill="none" xmlns="http://www.w3.org/2000/svg">
<path d="M6.7229 9.21289V10.2983C6.7229 11.4243 7.63619 12.3376 8.76223 12.3376H15.7511C16.8772 12.3376 17.7905 11.4243 17.7905 10.2983V9.21289" stroke="black" stroke-width="1.5" stroke-linecap="round" stroke-linejoin="round"/>
<path d="M12.2559 12.3496L12.2559 14.653" stroke="black" stroke-width="1.5" stroke-linecap="round" stroke-linejoin="round"/>
<path d="M4.25 6.7452C4.25 8.10994 5.35702 9.21696 6.72176 9.21696C8.0865 9.21696 9.19352 8.10994 9.19352 6.7452C9.19352 5.38045 8.0865 4.27344 6.72176 4.27344C6.37756 4.27344 6.04976 4.34385 5.75198 4.47106" stroke="black" stroke-width="1.5" stroke-linecap="round" stroke-linejoin="round"/>
<path d="M20.2502 6.7452C20.2502 8.10994 19.1431 9.21696 17.7784 9.21696C16.4137 9.21696 15.3066 8.10994 15.3066 6.7452C15.3066 5.38045 16.4137 4.27344 17.7784 4.27344C18.1565 4.27344 18.5149 4.35842 18.8353 4.51031" stroke="black" stroke-width="1.5" stroke-linecap="round" stroke-linejoin="round"/>
<path d="M12.2569 19.7248C10.8922 19.7248 9.78516 18.6178 9.78516 17.253C9.78516 15.8883 10.8922 14.7812 12.2569 14.7812C13.6217 14.7812 14.7287 15.8883 14.7287 17.253C14.7287 17.5981 14.6579 17.9267 14.53 18.2251" stroke="black" stroke-width="1.5" stroke-linecap="round" stroke-linejoin="round"/>
</svg>