<svg width="25" height="24" viewBox="0 0 25 24" fill="none" xmlns="http://www.w3.org/2000/svg">
<path fill-rule="evenodd" clip-rule="evenodd" d="M6.85701 4.75C5.83985 4.75 5.01465 5.5752 5.01465 6.59237C5.01465 7.60953 5.83985 8.43473 6.85701 8.43473C7.87418 8.43473 8.69938 7.60953 8.69938 6.59237C8.69938 5.5752 7.87418 4.75 6.85701 4.75ZM3.51465 6.59237C3.51465 4.74677 5.01142 3.25 6.85701 3.25C8.70261 3.25 10.1994 4.74677 10.1994 6.59237C10.1994 8.43796 8.70261 9.93473 6.85701 9.93473C5.01142 9.93473 3.51465 8.43796 3.51465 6.59237Z" fill="black"/>
<path fill-rule="evenodd" clip-rule="evenodd" d="M17.6431 15.4648C16.626 15.4648 15.8008 16.29 15.8008 17.3072C15.8008 18.3244 16.626 19.1496 17.6431 19.1496C18.6603 19.1496 19.4855 18.3244 19.4855 17.3072C19.4855 16.29 18.6603 15.4648 17.6431 15.4648ZM14.3008 17.3072C14.3008 15.4616 15.7976 13.9648 17.6431 13.9648C19.4887 13.9648 20.9855 15.4616 20.9855 17.3072C20.9855 19.1528 19.4887 20.6496 17.6431 20.6496C15.7976 20.6496 14.3008 19.1528 14.3008 17.3072Z" fill="black"/>
<path fill-rule="evenodd" clip-rule="evenodd" d="M6.67578 8.43359C7.08999 8.43359 7.42578 8.76938 7.42578 9.18359V19.9992C7.42578 20.4135 7.08999 20.7492 6.67578 20.7492C6.26157 20.7492 5.92578 20.4135 5.92578 19.9992V9.18359C5.92578 8.76938 6.26157 8.43359 6.67578 8.43359Z" fill="black"/>
<path fill-rule="evenodd" clip-rule="evenodd" d="M6.63977 8.42276C7.0535 8.40286 7.40503 8.72213 7.42493 9.13586C7.62008 13.1933 10.9541 16.4289 15.0597 16.4533C15.4739 16.4558 15.8077 16.7936 15.8052 17.2078C15.8028 17.622 15.465 17.9558 15.0508 17.9533C10.1433 17.9242 6.15986 14.0565 5.92666 9.20792C5.90676 8.79419 6.22603 8.44266 6.63977 8.42276Z" fill="black"/>
</svg>