<svg width="24" height="24" viewBox="0 0 24 24" fill="none" xmlns="http://www.w3.org/2000/svg">
<g opacity="0.4">
<path d="M5.05019 3.57713C4.71305 3.33647 4.24466 3.41468 4.00401 3.75181C3.76335 4.08894 3.84156 4.55733 4.17869 4.79799L6.81067 6.67679C7.1478 6.91744 7.61619 6.83924 7.85684 6.50211C8.0975 6.16497 8.01929 5.69659 7.68216 5.45593L5.05019 3.57713Z" fill="black"/>
<path d="M10.5429 8.42719C10.7838 8.09021 11.2522 8.01232 11.5892 8.2532L15.8268 11.2825C16.1638 11.5233 16.2417 11.9918 16.0008 12.3287C15.7599 12.6657 15.2915 12.7436 14.9545 12.5027L10.7169 9.47348C10.3799 9.2326 10.302 8.76416 10.5429 8.42719Z" fill="black"/>
<path d="M9.26086 9.0332C9.67508 9.0332 10.0109 9.36899 10.0109 9.7832V15.3793C10.0109 15.7935 9.67508 16.1293 9.26086 16.1293C8.84665 16.1293 8.51086 15.7935 8.51086 15.3793V9.7832C8.51086 9.36899 8.84665 9.0332 9.26086 9.0332Z" fill="black"/>
</g>
<circle cx="9.26336" cy="7.35662" r="2.7824" fill="black"/>
<circle cx="17.3532" cy="13.2668" r="2.7824" fill="black"/>
<circle cx="9.26336" cy="17.7804" r="2.7824" fill="black"/>
</svg>