<svg width="25" height="24" viewBox="0 0 25 24" fill="none" xmlns="http://www.w3.org/2000/svg">
<path d="M4.26465 6.59237C4.26465 8.02374 5.42564 9.18473 6.85701 9.18473C8.28839 9.18473 9.44938 8.02374 9.44938 6.59237C9.44938 5.16099 8.28839 4 6.85701 4C6.47965 4 6.12108 4.08069 5.79762 4.22576" stroke="black" stroke-width="1.5" stroke-linecap="round" stroke-linejoin="round"/>
<path d="M20.2355 17.3072C20.2355 18.7386 19.0745 19.8996 17.6431 19.8996C16.2118 19.8996 15.0508 18.7386 15.0508 17.3072C15.0508 15.8758 16.2118 14.7148 17.6431 14.7148C18.0338 14.7148 18.4044 14.8013 18.7367 14.9562" stroke="black" stroke-width="1.5" stroke-linecap="round" stroke-linejoin="round"/>
<path d="M6.67578 9.18359V19.9992" stroke="black" stroke-width="1.5" stroke-linecap="round" stroke-linejoin="round"/>
<path d="M6.67578 9.17188C6.88995 13.6249 10.5487 17.1765 15.0552 17.2033" stroke="black" stroke-width="1.5" stroke-linecap="round" stroke-linejoin="round"/>
</svg>