<svg width="25" height="24" viewBox="0 0 25 24" fill="none" xmlns="http://www.w3.org/2000/svg">
<path fill-rule="evenodd" clip-rule="evenodd" d="M7.54199 8.19531C7.95621 8.19531 8.29199 8.5311 8.29199 8.94531V15.052C8.29199 15.4662 7.95621 15.802 7.54199 15.802C7.12778 15.802 6.79199 15.4662 6.79199 15.052V8.94531C6.79199 8.5311 7.12778 8.19531 7.54199 8.19531Z" fill="black"/>
<path fill-rule="evenodd" clip-rule="evenodd" d="M7.5417 15.8047C6.59025 15.8047 5.81836 16.5766 5.81836 17.528C5.81836 18.4795 6.59025 19.2514 7.5417 19.2514C8.49314 19.2514 9.26503 18.4795 9.26503 17.528C9.26503 16.5766 8.49314 15.8047 7.5417 15.8047ZM4.31836 17.528C4.31836 15.7482 5.76183 14.3047 7.5417 14.3047C9.32157 14.3047 10.765 15.7482 10.765 17.528C10.765 19.3079 9.32157 20.7514 7.5417 20.7514C5.76183 20.7514 4.31836 19.3079 4.31836 17.528Z" fill="black"/>
<path fill-rule="evenodd" clip-rule="evenodd" d="M7.5417 4.75C6.59025 4.75 5.81836 5.52189 5.81836 6.47334C5.81836 7.42478 6.59025 8.19667 7.5417 8.19667C8.49314 8.19667 9.26503 7.42478 9.26503 6.47334C9.26503 5.52189 8.49314 4.75 7.5417 4.75ZM4.31836 6.47334C4.31836 4.69347 5.76183 3.25 7.5417 3.25C9.32157 3.25 10.765 4.69347 10.765 6.47334C10.765 8.25321 9.32157 9.69667 7.5417 9.69667C5.76183 9.69667 4.31836 8.25321 4.31836 6.47334Z" fill="black"/>
<path fill-rule="evenodd" clip-rule="evenodd" d="M16.9597 4.75C16.0082 4.75 15.2363 5.52189 15.2363 6.47334C15.2363 7.42478 16.0082 8.19667 16.9597 8.19667C17.9111 8.19667 18.683 7.42478 18.683 6.47334C18.683 5.52189 17.9111 4.75 16.9597 4.75ZM13.7363 6.47334C13.7363 4.69347 15.1798 3.25 16.9597 3.25C18.7395 3.25 20.183 4.69347 20.183 6.47334C20.183 8.25321 18.7395 9.69667 16.9597 9.69667C15.1798 9.69667 13.7363 8.25321 13.7363 6.47334Z" fill="black"/>
<path fill-rule="evenodd" clip-rule="evenodd" d="M16.9776 8.19531C17.3918 8.19531 17.7276 8.5311 17.7276 8.94531V10.1151C17.7276 11.6372 16.4934 12.8711 14.9709 12.8711H7.53809C7.12387 12.8711 6.78809 12.5353 6.78809 12.1211C6.78809 11.7068 7.12387 11.3711 7.53809 11.3711H14.9709C15.6654 11.3711 16.2276 10.8084 16.2276 10.1151V8.94531C16.2276 8.5311 16.5634 8.19531 16.9776 8.19531Z" fill="black"/>
</svg>