<svg width="24" height="24" viewBox="0 0 24 24" fill="none" xmlns="http://www.w3.org/2000/svg">
<path d="M15.923 20.1452V19.3648C15.9931 18.4746 15.6769 17.5969 15.0551 16.9557C17.9536 16.6327 21 15.5342 21 10.4942C21 9.20504 20.5038 7.96548 19.6155 7.03239C20.0358 5.90472 20.0066 4.65834 19.5318 3.55207C19.5318 3.55207 18.443 3.22904 15.923 4.91812C13.8078 4.34504 11.5768 4.34504 9.46151 4.91812C6.94151 3.22904 5.85178 3.55207 5.85178 3.55207C5.37795 4.65834 5.34876 5.90472 5.76908 7.03239C4.87395 7.97326 4.37773 9.22353 4.38454 10.5215C4.38454 15.5245 7.43092 16.623 10.3294 16.983C9.71546 17.6183 9.39924 18.4833 9.46151 19.3648V20.1675C4.84573 21.5521 4.84573 17.8596 3 17.3984" stroke="black" stroke-width="1.5" stroke-linecap="round" stroke-linejoin="round"/>
</svg>