<svg width="25" height="24" viewBox="0 0 25 24" fill="none" xmlns="http://www.w3.org/2000/svg">
<path d="M13.4455 17.8743H12.1535C11.9545 17.8743 11.7638 17.7953 11.6231 17.6547C11.4825 17.514 11.4035 17.3232 11.4035 17.1243C11.4035 16.9254 11.4825 16.7346 11.6231 16.594C11.7638 16.4533 11.9545 16.3743 12.1535 16.3743H13.4455C13.661 16.391 13.8748 16.3245 14.0428 16.1883C14.2107 16.0522 14.3201 15.8569 14.3484 15.6425C14.3767 15.4282 14.3218 15.2111 14.195 15.036C14.0681 14.861 13.879 14.7412 13.6665 14.7013C12.6805 14.421 11.6605 14.278 10.6355 14.2763C9.3335 14.4164 8.10399 14.9458 7.10746 15.7953L6.65147 16.1043C6.48611 16.2149 6.28358 16.2553 6.08845 16.2166C5.89332 16.1779 5.72157 16.0632 5.61097 15.8978C5.50038 15.7325 5.46 15.5299 5.49873 15.3348C5.53745 15.1397 5.65209 14.9679 5.81745 14.8573L6.26246 14.5573C7.4929 13.5365 9.00563 12.9155 10.5985 12.7773C11.7587 12.7795 12.9134 12.9375 14.0315 13.2473C14.6003 13.375 15.1011 13.7101 15.4361 14.1873C15.7711 14.6645 15.9161 15.2494 15.8428 15.8278C15.7696 16.4062 15.4834 16.9365 15.04 17.3151C14.5967 17.6937 14.0282 17.8935 13.4455 17.8753V17.8743Z" fill="black"/>
<path d="M12.9633 21.5743C11.5893 21.5286 10.2232 21.3488 8.88425 21.0373C8.01195 20.8818 7.1259 20.8167 6.24023 20.8433C6.04132 20.8433 5.85058 20.7643 5.70993 20.6237C5.56928 20.483 5.49023 20.2922 5.49023 20.0933C5.49023 19.8944 5.56928 19.7036 5.70993 19.563C5.85058 19.4223 6.04132 19.3433 6.24023 19.3433C7.19921 19.3145 8.15862 19.3845 9.10324 19.5523C11.4952 20.0223 13.5032 20.4203 15.6382 19.5883C17.0361 18.9489 18.2769 18.0109 19.2733 16.8403L19.4492 16.6623C19.5898 16.5214 19.6688 16.3304 19.6688 16.1313C19.6688 15.9322 19.5898 15.7413 19.4492 15.6003C19.3229 15.4737 19.1552 15.397 18.9768 15.3842C18.7984 15.3713 18.6214 15.4232 18.4782 15.5303C18.2512 15.7013 18.0233 15.8893 17.7903 16.0793C16.8178 17.076 15.5359 17.7131 14.1542 17.8863C13.8982 17.8923 13.6343 17.8863 13.3733 17.8723C13.0067 17.8459 12.6385 17.8532 12.2733 17.8943C12.0796 17.9166 11.8848 17.8627 11.7302 17.744C11.5755 17.6253 11.4731 17.4512 11.4445 17.2583C11.4159 17.0655 11.4635 16.8691 11.5771 16.7106C11.6907 16.5522 11.8614 16.4442 12.0533 16.4093C12.5122 16.3548 12.9751 16.3428 13.4362 16.3733C13.6642 16.3833 13.8922 16.3913 14.1212 16.3863C15.1607 16.1975 16.1136 15.6843 16.8432 14.9203C17.0922 14.7203 17.3373 14.5203 17.5803 14.3323C18.0355 13.993 18.6023 13.8385 19.1668 13.8999C19.7313 13.9613 20.2516 14.234 20.6232 14.6633C20.9949 15.0926 21.1903 15.6466 21.1703 16.214C21.1503 16.7815 20.9163 17.3203 20.5153 17.7223L20.3412 17.8963C19.2011 19.2206 17.7818 20.2759 16.1852 20.9863C15.1582 21.3845 14.0648 21.5841 12.9633 21.5743Z" fill="black"/>
<path d="M5.04611 21.7496H4.07812C3.87921 21.7496 3.68844 21.6706 3.54779 21.5299C3.40714 21.3892 3.32812 21.1985 3.32812 20.9996C3.32812 20.8007 3.40714 20.6099 3.54779 20.4692C3.68844 20.3286 3.87921 20.2496 4.07812 20.2496H5.04611C5.15711 20.2496 5.49512 20.2496 5.49512 19.7396V15.4166C5.49512 14.9066 5.15711 14.9066 5.04611 14.9066H4.07812C3.87921 14.9066 3.68844 14.8276 3.54779 14.6869C3.40714 14.5463 3.32812 14.3555 3.32812 14.1566C3.32812 13.9577 3.40714 13.7669 3.54779 13.6262C3.68844 13.4856 3.87921 13.4066 4.07812 13.4066H5.04611C5.3086 13.4017 5.56928 13.4509 5.81198 13.551C6.05468 13.6511 6.27422 13.8 6.45697 13.9885C6.63972 14.1769 6.78182 14.401 6.87439 14.6466C6.96696 14.8923 7.00804 15.1543 6.99512 15.4166V19.7396C7.00804 20.0018 6.96696 20.2638 6.87439 20.5095C6.78182 20.7552 6.63972 20.9792 6.45697 21.1677C6.27422 21.3562 6.05468 21.5051 5.81198 21.6052C5.56928 21.7053 5.3086 21.7544 5.04611 21.7496Z" fill="black"/>
<path d="M19.4735 11.709C19.2746 11.709 19.0838 11.63 18.9432 11.4893C18.8025 11.3487 18.7235 11.1579 18.7235 10.959V8.68701C18.7245 8.37869 18.6054 8.08207 18.3915 7.85999L14.7975 4.117C14.6859 4.00127 14.5522 3.90914 14.4043 3.8461C14.2564 3.78305 14.0973 3.75037 13.9365 3.75H8.56952C7.83943 3.75384 7.13938 4.04109 6.617 4.55115C6.09463 5.06121 5.79078 5.75422 5.76953 6.48401V10.959C5.76953 11.1579 5.69052 11.3487 5.54987 11.4893C5.40921 11.63 5.21844 11.709 5.01953 11.709C4.82062 11.709 4.62985 11.63 4.4892 11.4893C4.34854 11.3487 4.26953 11.1579 4.26953 10.959V6.46701C4.29809 5.34325 4.76284 4.2747 5.56543 3.48761C6.36802 2.70052 7.44541 2.25665 8.56952 2.25H13.9395C14.3024 2.2507 14.6614 2.32437 14.9951 2.46661C15.3289 2.60886 15.6307 2.81677 15.8825 3.078L19.4765 6.82101C19.9589 7.32231 20.2278 7.99132 20.2265 8.68701V10.959C20.2265 11.0578 20.207 11.1555 20.1692 11.2467C20.1313 11.3379 20.0758 11.4207 20.0058 11.4904C19.9358 11.5601 19.8528 11.6153 19.7614 11.6528C19.6701 11.6903 19.5723 11.7094 19.4735 11.709Z" fill="black"/>
<path d="M19.4145 8.9776H16.8145C15.9738 8.97364 15.1688 8.63723 14.5752 8.04181C13.9817 7.44639 13.6478 6.64032 13.6465 5.79959V3.05859C13.6465 2.85968 13.7255 2.66891 13.8661 2.52826C14.0068 2.38761 14.1976 2.30859 14.3965 2.30859C14.5954 2.30859 14.7862 2.38761 14.9268 2.52826C15.0675 2.66891 15.1465 2.85968 15.1465 3.05859V5.79959C15.147 6.24343 15.3231 6.66903 15.6364 6.98343C15.9497 7.29783 16.3747 7.47549 16.8185 7.4776H19.4185C19.6174 7.4776 19.8082 7.55661 19.9488 7.69727C20.0895 7.83792 20.1685 8.02869 20.1685 8.2276C20.1685 8.42651 20.0895 8.61728 19.9488 8.75793C19.8082 8.89859 19.6174 8.9776 19.4185 8.9776H19.4145Z" fill="black"/>
</svg>