<svg width="24" height="24" viewBox="0 0 24 24" fill="none" xmlns="http://www.w3.org/2000/svg">
<path fill-rule="evenodd" clip-rule="evenodd" d="M6.38652 12.1705C6.44839 12.2018 6.52186 12.2015 6.5825 12.1679C7.58197 11.6132 8.762 11.1716 10.1952 11.1425C11.6452 11.1025 12.9752 11.3825 14.0952 11.6625C14.9096 11.8661 15.6127 12.2753 16.1331 12.8424C16.2039 12.9196 16.3211 12.935 16.4092 12.8783C17.343 12.2775 18.4688 12.107 19.5107 12.3667C19.6425 12.3995 19.7752 12.3031 19.7752 12.1673V9.2725C19.7752 9.0425 19.5852 8.8525 19.3552 8.8525H16.5252C14.8352 8.8425 13.4452 7.4425 13.4452 5.7425V2.7325C13.4452 2.5025 13.2452 2.3125 13.0152 2.3125H8.08523C5.78523 2.3125 3.92523 4.2025 3.92523 6.5125V11.5725C3.92523 11.683 4.01477 11.7725 4.12523 11.7725H4.67523C5.29467 11.7725 5.87888 11.9134 6.38652 12.1705Z" fill="black"/>
<path fill-rule="evenodd" clip-rule="evenodd" d="M16.6475 7.49096C17.2905 7.49796 18.1855 7.49996 18.9445 7.49796C19.3335 7.49696 19.5305 7.02796 19.2615 6.74496C18.7745 6.23396 18.0955 5.52096 17.4145 4.80496C16.7305 4.08696 16.0445 3.36596 15.5445 2.84096C15.2685 2.55096 14.7855 2.75096 14.7855 3.15196V5.60996C14.7855 6.64196 15.6265 7.49096 16.6475 7.49096Z" fill="black"/>
<path fill-rule="evenodd" clip-rule="evenodd" d="M19.0783 16.7766L18.9033 16.9526C17.7453 18.1206 16.7443 19.1286 15.2673 19.7026C13.1293 20.5336 11.1223 20.1386 8.73331 19.6656C7.92531 19.5056 7.18631 19.4696 6.37031 19.4616V16.1596L6.74531 15.9056C7.91431 15.1086 8.92531 14.4206 10.2693 14.3886C11.3353 14.3626 12.3573 14.5776 13.3013 14.8146C13.7293 14.9216 13.9953 15.2426 13.9953 15.6526C13.9953 16.1996 13.5343 16.4866 13.0793 16.4866H13.0013C12.7373 16.4756 12.4663 16.4756 12.1903 16.4866H11.7883C11.4403 16.4866 11.1603 16.7286 11.0763 17.0496C11.0683 17.0756 11.0653 17.1006 11.0603 17.1276C11.0543 17.1646 11.0383 17.1976 11.0383 17.2366C11.0383 17.2586 11.0493 17.2776 11.0513 17.2996C11.0523 17.3256 11.0433 17.3486 11.0473 17.3746C11.0533 17.4186 11.0773 17.4546 11.0903 17.4966C11.0963 17.5126 11.1003 17.5286 11.1083 17.5446C11.2353 17.8556 11.5473 18.0606 11.8983 18.0076C12.0013 17.9926 12.1113 17.9916 12.2193 17.9866H12.9873C12.9943 17.9866 13.0003 17.9866 13.0063 17.9866C13.2663 17.9976 13.5263 18.0046 13.7843 18.0006C15.2623 17.9656 16.4083 17.0246 17.4203 16.1946C17.6533 16.0036 17.8813 15.8156 18.1083 15.6446C18.4013 15.4226 18.8183 15.4526 19.0783 15.7136C19.3703 16.0066 19.3703 16.4836 19.0783 16.7766ZM20.1413 14.6546C19.3563 13.8676 18.0943 13.7776 17.2063 14.4466C16.9633 14.6296 16.7183 14.8306 16.4693 15.0346C16.1443 15.3016 15.8153 15.5716 15.4793 15.8056C15.4833 15.7536 15.4953 15.7056 15.4953 15.6526C15.4953 14.5556 14.7603 13.6346 13.6663 13.3596C12.6693 13.1096 11.4933 12.8666 10.2333 12.8886C8.54231 12.9286 7.29331 13.7216 6.10231 14.5286C5.81131 14.0566 5.30131 13.7686 4.67131 13.7686H3.70331C3.42731 13.7686 3.20331 13.9926 3.20331 14.2686V21.1116C3.20331 21.3876 3.42731 21.6116 3.70331 21.6116H4.67131C5.25031 21.6116 5.72231 21.3636 6.02231 20.9586C6.89931 20.9606 7.65431 20.9806 8.50831 21.1506C9.89031 21.4236 11.2293 21.6886 12.5913 21.6886C13.6403 21.6886 14.7033 21.5316 15.8103 21.1006C17.5843 20.4116 18.7423 19.2446 19.9683 18.0086L20.1403 17.8356C21.0153 16.9596 21.0153 15.5326 20.1413 14.6546Z" fill="black"/>
</svg>