<svg width="24" height="24" viewBox="0 0 24 24" fill="none" xmlns="http://www.w3.org/2000/svg">
<path d="M4.8208 5.00319L6.0008 18.0162C6.0798 18.9642 6.6798 19.7812 7.5548 20.1522C8.6338 20.6102 10.2248 20.9992 12.0008 20.9992C13.7758 20.9992 15.3678 20.6102 16.4468 20.1522C17.3218 19.7812 17.9218 18.9642 17.9998 18.0162L18.2961 14.7455M18.5924 11.4749L19.1849 4.93359" stroke="black" stroke-width="1.5" stroke-linecap="round" stroke-linejoin="round"/>
<path d="M11.9995 3C15.9675 3 19.1845 3.866 19.1845 4.934C19.1845 6.002 15.9675 6.869 11.9995 6.869C8.03145 6.869 4.81445 6.002 4.81445 4.934C4.81445 4.16776 6.47036 3.5055 8.87147 3.19243" stroke="black" stroke-width="1.5" stroke-linecap="round" stroke-linejoin="round"/>
</svg>