<svg width="25" height="24" viewBox="0 0 25 24" fill="none" xmlns="http://www.w3.org/2000/svg">
<path d="M11.7711 17.59C11.4611 17.59 11.1711 17.39 11.0611 17.08L8.49112 9.55002C8.36112 9.16002 8.57112 8.73 8.96112 8.6C9.35112 8.47 9.78112 8.68 9.91112 9.07L12.4811 16.6C12.6111 16.99 12.4011 17.42 12.0111 17.55C11.9311 17.58 11.8511 17.59 11.7711 17.59Z" fill="black"/>
<path d="M6.81115 16.4502C6.19115 16.4502 5.60115 16.1002 5.30115 15.5102L2.65115 8.20019C2.27115 7.45019 2.59116 6.4302 3.41116 6.0202C8.79116 3.2602 15.7112 3.2602 21.1012 6.0202C21.9111 6.4402 22.2412 7.45017 21.8312 8.28017L19.2512 15.4302C18.8112 16.3302 17.8412 16.6802 17.0112 16.3002C16.5812 16.1002 15.4912 15.9202 14.7612 15.7902C14.4812 15.7402 14.2312 15.7002 14.0512 15.6602C13.6412 15.5802 13.3812 15.1802 13.4612 14.7802C13.5412 14.3702 13.9412 14.1102 14.3412 14.1902C14.5112 14.2302 14.7512 14.2602 15.0112 14.3102C15.9112 14.4602 17.0212 14.6502 17.6312 14.9302C17.7112 14.9702 17.8212 14.9302 17.8712 14.8402L20.4512 7.69018C20.5312 7.52018 20.5012 7.39018 20.4212 7.35018C15.4612 4.80018 9.06115 4.80018 4.10115 7.35018C4.02115 7.39018 3.98115 7.51019 4.03115 7.61019L6.68115 14.9202C6.68115 14.9202 6.80115 14.9802 6.89115 14.9302C7.62115 14.6002 8.95116 14.3102 10.9512 14.0702C11.3612 14.0202 11.7412 14.3102 11.7912 14.7202C11.8412 15.1302 11.5512 15.5102 11.1412 15.5602C8.87115 15.8402 7.92116 16.1202 7.52116 16.3002C7.29116 16.4002 7.06115 16.4502 6.82115 16.4502H6.81115Z" fill="black"/>
<path d="M12.2612 20.0498C11.1612 20.0498 10.2612 19.1498 10.2612 18.0498C10.2612 16.9498 11.1612 16.0498 12.2612 16.0498C13.3612 16.0498 14.2612 16.9498 14.2612 18.0498C14.2612 19.1498 13.3612 20.0498 12.2612 20.0498ZM12.2612 17.5498C11.9812 17.5498 11.7612 17.7698 11.7612 18.0498C11.7612 18.3298 11.9812 18.5498 12.2612 18.5498C12.5412 18.5498 12.7612 18.3298 12.7612 18.0498C12.7612 17.7698 12.5412 17.5498 12.2612 17.5498Z" fill="black"/>
<path d="M15.8909 11.8697C15.5609 11.8697 15.2709 11.6497 15.1709 11.3397C15.0709 10.9997 14.8109 10.7397 14.4709 10.6397C14.1509 10.5397 13.9409 10.2497 13.9409 9.91974C13.9409 9.58974 14.1609 9.29974 14.4709 9.19974C14.8109 9.09974 15.0709 8.83973 15.1709 8.49973C15.2709 8.17973 15.5609 7.96973 15.8909 7.96973C16.2209 7.96973 16.5109 8.18973 16.6109 8.49973C16.7109 8.83973 16.9709 9.09974 17.3109 9.19974C17.6309 9.29974 17.8409 9.58974 17.8409 9.91974C17.8409 10.2497 17.6209 10.5397 17.3109 10.6397C16.9709 10.7397 16.7109 10.9997 16.6109 11.3397C16.5109 11.6597 16.2209 11.8697 15.8909 11.8697Z" fill="black"/>
<path d="M12.8013 8.61035C12.3913 8.61035 12.0513 8.27035 12.0513 7.86035C12.0513 7.45035 12.3813 7.11035 12.8013 7.11035C13.2113 7.11035 13.5513 7.45035 13.5513 7.86035C13.5513 8.27035 13.2113 8.61035 12.8013 8.61035Z" fill="black"/>
</svg>