<svg width="24" height="24" viewBox="0 0 24 24" fill="none" xmlns="http://www.w3.org/2000/svg">
<path fill-rule="evenodd" clip-rule="evenodd" d="M10.7096 3.60547C7.60605 3.60547 5.08984 6.12168 5.08984 9.22526C5.08984 12.3288 7.60605 14.845 10.7096 14.845C13.8132 14.845 16.3294 12.3288 16.3294 9.22526C16.3294 6.12168 13.8132 3.60547 10.7096 3.60547Z" stroke="black" stroke-width="1.5" stroke-linecap="round" stroke-linejoin="round"/>
<path d="M14.0717 4.79297C14.0717 4.79297 11.7402 8.69613 16.3293 9.22476" stroke="black" stroke-width="1.5" stroke-linecap="round" stroke-linejoin="round"/>
<path d="M15.7395 11.7182C15.7395 11.7182 14.1204 11.6066 13.2255 11.1449C12.8718 10.9624 12.5005 10.6578 12.1762 10.3504C11.7375 9.93454 10.9748 10.0621 10.7622 10.628C10.3732 11.6637 10.2867 12.7886 10.5128 13.8716L10.6908 14.7242" stroke="black" stroke-width="1.5" stroke-linecap="round" stroke-linejoin="round"/>
<path d="M6.39941 12.7787L7.45824 11.8115C8.12845 11.1993 8.3994 10.2634 8.15989 9.3878L8.09978 9.16802C7.81672 8.13324 8.33763 7.04779 9.32198 6.62124C10.2243 6.23023 10.7476 5.27811 10.5941 4.30675L10.4833 3.60547" stroke="black" stroke-width="1.5" stroke-linecap="round" stroke-linejoin="round"/>
<path d="M4.47949 15.4607C7.92033 18.9016 13.4994 18.9016 16.9402 15.4607C20.3811 12.0199 20.3811 6.44084 16.9402 3" stroke="black" stroke-width="1.5" stroke-linecap="round" stroke-linejoin="round"/>
<path d="M10.71 18.0586V20.5255" stroke="black" stroke-width="1.5" stroke-linecap="round" stroke-linejoin="round"/>
<path d="M14.52 20.5245H6.89648" stroke="black" stroke-width="1.5" stroke-linecap="round" stroke-linejoin="round"/>
</svg>