<svg width="24" height="24" viewBox="0 0 24 24" fill="none" xmlns="http://www.w3.org/2000/svg">
<path fill-rule="evenodd" clip-rule="evenodd" d="M13.5368 18.6498L19.3211 12.5685C21.4771 10.3016 21.3876 6.71625 19.1207 4.5602C16.8537 2.40415 13.2684 2.49366 11.1123 4.76063L9.33087 6.63452L9.33282 5.2938C9.33573 4.02897 8.29468 3.01127 7.02985 3.0424C5.75918 3.07451 4.76775 4.15351 4.84267 5.42223L5.15498 10.682C5.15575 10.6944 5.15619 10.7067 5.15633 10.7191C5.21753 10.7509 5.27533 10.7917 5.3278 10.8416L13.5368 18.6498Z" fill="black"/>
<path opacity="0.4" fill-rule="evenodd" clip-rule="evenodd" d="M3.47564 12.7904L4.29425 11.9297L12.5027 19.7373L11.6844 20.5983C11.1911 21.1168 10.3709 21.1373 9.85234 20.644L3.52137 14.6214C3.00279 14.1282 2.98236 13.3089 3.47564 12.7904Z" fill="black"/>
</svg>