<svg width="24" height="24" viewBox="0 0 24 24" fill="none" xmlns="http://www.w3.org/2000/svg">
<path d="M4.95306 11.2366L3.47613 12.7894C2.98285 13.308 3.00328 14.1272 3.52186 14.6205L9.85282 20.643C10.3714 21.1363 11.1916 21.1159 11.6849 20.5973L19.3215 12.5685C21.4776 10.3016 21.3881 6.71625 19.1211 4.5602C16.8542 2.40415 13.2688 2.49366 11.1128 4.76063L9.33133 6.63452L9.33327 5.2938C9.33619 4.02897 8.29514 3.01127 7.03031 3.0424C5.75964 3.07451 4.7682 4.15351 4.84312 5.42223L5.15544 10.682C5.16809 10.8873 5.09414 11.0877 4.95306 11.2366Z" stroke="black" stroke-width="1.5" stroke-linecap="round" stroke-linejoin="round"/>
<path d="M4.81055 11.385L13.0193 19.1929" stroke="black" stroke-width="1.5" stroke-linecap="round" stroke-linejoin="round"/>
</svg>