<svg width="24" height="24" viewBox="0 0 24 24" fill="none" xmlns="http://www.w3.org/2000/svg">
<path fill-rule="evenodd" clip-rule="evenodd" d="M12 3.75C7.44329 3.75 3.75 7.44329 3.75 12C3.75 16.5567 7.44329 20.25 12 20.25C16.5567 20.25 20.25 16.5567 20.25 12C20.25 7.44329 16.5567 3.75 12 3.75ZM2.25 12C2.25 6.61487 6.61487 2.25 12 2.25C17.3851 2.25 21.75 6.61487 21.75 12C21.75 17.3851 17.3851 21.75 12 21.75C6.61487 21.75 2.25 17.3851 2.25 12Z" fill="black"/>
<path fill-rule="evenodd" clip-rule="evenodd" d="M8.13338 8.56748C7.98682 8.42686 7.74546 8.42929 7.59871 8.58397C7.52636 8.66024 7.49227 8.75495 7.49318 8.85006L7.49325 8.85728L7.49316 15.1539C7.49316 15.3648 7.66372 15.5354 7.87463 15.5354C7.9706 15.5354 8.17178 15.5322 8.38828 15.5282V11.5199C8.38828 11.2322 8.55279 10.9699 8.81175 10.8447C9.07071 10.7194 9.37848 10.7533 9.60396 10.9319L12.0048 12.8336L14.4343 10.9309C14.6602 10.754 14.9672 10.7215 15.2251 10.8471C15.483 10.9727 15.6467 11.2345 15.6467 11.5214V15.5275C15.8479 15.5313 16.0331 15.5342 16.1253 15.5342C16.3364 15.5342 16.5067 15.3634 16.5067 15.1534V8.84971C16.5076 8.75513 16.4735 8.66042 16.401 8.58397C16.2558 8.43094 16.0174 8.42423 15.8633 8.57041C15.8458 8.58697 15.8276 8.60267 15.8086 8.61748L12.4637 11.2289C12.1926 11.4405 11.8122 11.4407 11.541 11.2292L8.19149 8.61778C8.17127 8.60202 8.15188 8.58523 8.13338 8.56748ZM14.8789 17.0113C14.4718 17.0016 14.1467 16.6688 14.1467 16.2615V13.0614L12.4646 14.3788C12.1917 14.5924 11.8081 14.5914 11.5364 14.3762L9.88828 13.0707V16.2627C9.88828 16.6702 9.56286 17.0031 9.15544 17.0125L8.99529 17.016C8.89767 17.0182 8.76461 17.021 8.623 17.0239C8.34393 17.0295 8.0192 17.0354 7.87463 17.0354C6.8353 17.0354 5.99316 16.1933 5.99316 15.1539L5.99322 8.86043C5.98972 8.39097 6.1622 7.91874 6.5105 7.5516C7.21536 6.80862 8.38746 6.7653 9.14034 7.45553L12.0018 9.68647L14.8606 7.45462C15.6158 6.76775 16.7822 6.80635 17.4892 7.5516C17.8369 7.91806 18.0099 8.3896 18.0067 8.85894V15.1534C18.0067 16.1924 17.1644 17.0342 16.1253 17.0342C15.9805 17.0342 15.6643 17.0283 15.394 17.0227C15.2567 17.0199 15.128 17.017 15.0336 17.0149L14.8789 17.0113Z" fill="black"/>
</svg>