<svg width="24" height="24" viewBox="0 0 24 24" fill="none" xmlns="http://www.w3.org/2000/svg">
<path d="M6.87339 19.2988V11.1786L12.0039 16.1588L17.127 11.1812V19.2968C17.127 19.2968 18.6 19.3357 19.0632 19.3357C20.1334 19.3357 21.0003 18.4688 21.0003 17.3995V6.61806C21.0045 6.13429 20.8272 5.64827 20.4668 5.26831C19.7293 4.49091 18.5082 4.45978 17.7308 5.19729L12.0039 10.7646L6.26921 5.19729C5.50057 4.45978 4.27074 4.49091 3.53322 5.26831C3.17227 5.6488 2.99543 6.13556 3.00009 6.62L3 17.4005C3 18.4708 3.86692 19.3377 4.93718 19.3377C5.40031 19.3377 6.87339 19.2988 6.87339 19.2988Z" stroke="black" stroke-width="1.5" stroke-linecap="round" stroke-linejoin="round"/>
</svg>