<svg width="24" height="24" viewBox="0 0 24 24" fill="none" xmlns="http://www.w3.org/2000/svg">
<path fill-rule="evenodd" clip-rule="evenodd" d="M3.7402 3.89737C4.72468 2.84117 6.12669 2.25 7.78216 2.25H16.2169C17.8762 2.25 19.2788 2.84084 20.2629 3.89765C21.2413 4.94841 21.75 6.39889 21.75 8.02638V15.9736C21.75 17.6011 21.2413 19.0516 20.2627 20.1024C19.2785 21.1592 17.8756 21.75 16.2159 21.75H7.78216C6.1228 21.75 4.72038 21.1591 3.73657 20.1023C2.75842 19.0515 2.25 17.601 2.25 15.9736V8.02638C2.25 6.39806 2.76117 4.94771 3.7402 3.89737ZM4.83745 4.92012C4.16024 5.64666 3.75 6.70951 3.75 8.02638V15.9736C3.75 17.2914 4.15861 18.3541 4.83451 19.0802C5.50475 19.8003 6.49341 20.25 7.78216 20.25H16.2159C17.5052 20.25 18.4944 19.8002 19.165 19.0801C19.8412 18.354 20.25 17.2913 20.25 15.9736V8.02638C20.25 6.70868 19.8412 5.64597 19.1651 4.91984C18.4946 4.19975 17.5056 3.75 16.2169 3.75H7.78216C6.49828 3.75 5.50921 4.19943 4.83745 4.92012Z" fill="black"/>
<path fill-rule="evenodd" clip-rule="evenodd" d="M7.97855 8.38267C7.81122 8.22212 7.53663 8.22539 7.36996 8.40108C7.28785 8.48763 7.24898 8.59549 7.25002 8.70369L7.25009 8.71092L7.25 15.2989C7.25 15.5387 7.44398 15.7327 7.68381 15.7327C7.78957 15.7327 8.01664 15.729 8.25591 15.7244V11.4967C8.25591 11.209 8.42043 10.9467 8.67939 10.8215C8.93835 10.6962 9.24611 10.7301 9.4716 10.9087L12.0049 12.9154L14.5683 10.9078C14.7942 10.7309 15.1012 10.6983 15.3591 10.824C15.6171 10.9496 15.7807 11.2114 15.7807 11.4983V15.7237C16.0043 15.728 16.2141 15.7315 16.3162 15.7315C16.5562 15.7315 16.75 15.5372 16.75 15.2982V8.70329C16.7509 8.59564 16.712 8.48779 16.6298 8.40108C16.4647 8.22704 16.1932 8.21949 16.0181 8.3856C16.0007 8.40216 15.9824 8.41786 15.9635 8.43267L12.4638 11.1649C12.1927 11.3765 11.8124 11.3767 11.5411 11.1652L8.03666 8.43297C8.01645 8.41721 7.99705 8.40042 7.97855 8.38267ZM15.013 17.2075C14.6058 17.1978 14.2807 16.865 14.2807 16.4577V13.0383L12.4647 14.4605C12.1919 14.6742 11.8082 14.6731 11.5366 14.458L9.75591 13.0475V16.4589C9.75591 16.8664 9.43049 17.1994 9.02307 17.2087L8.85555 17.2124C8.75343 17.2146 8.61424 17.2176 8.4661 17.2206C8.17398 17.2265 7.83463 17.2327 7.68381 17.2327C6.61556 17.2327 5.75 16.3671 5.75 15.2988L5.75005 8.71407C5.74643 8.23152 5.92369 7.74613 6.28175 7.36871C7.00657 6.60469 8.21198 6.56056 8.98564 7.27082L12.0019 9.62247L15.0153 7.2699C15.7915 6.563 16.991 6.60241 17.718 7.36871C18.0754 7.74543 18.2532 8.23012 18.25 8.71253V15.2982C18.25 16.3661 17.3842 17.2315 16.3162 17.2315C16.1651 17.2315 15.8347 17.2253 15.5517 17.2194C15.4081 17.2164 15.2735 17.2134 15.1748 17.2112L15.013 17.2075Z" fill="black"/>
</svg>