<svg width="24" height="24" viewBox="0 0 24 24" fill="none" xmlns="http://www.w3.org/2000/svg">
<path fill-rule="evenodd" clip-rule="evenodd" d="M21.4705 18.7353L20.8405 15.5533C20.7005 14.8573 20.0805 14.3523 19.3665 14.3523H14.9635C14.2475 14.3523 13.6285 14.8583 13.4905 15.5543L12.8595 18.7343C12.7705 19.1783 12.8855 19.6333 13.1725 19.9833C13.4585 20.3323 13.8815 20.5323 14.3325 20.5323H19.9985C20.4495 20.5323 20.8715 20.3323 21.1585 19.9823C21.4455 19.6313 21.5595 19.1773 21.4705 18.7353Z" fill="black"/>
<path fill-rule="evenodd" clip-rule="evenodd" d="M10.5115 15.5535C10.3715 14.8575 9.75152 14.3525 9.03752 14.3525H4.63452C3.91852 14.3525 3.29952 14.8585 3.16052 15.5545L2.52852 18.7355C2.44152 19.1795 2.55552 19.6335 2.84352 19.9835C3.13052 20.3315 3.55352 20.5325 4.00352 20.5325H9.66952C10.1195 20.5325 10.5425 20.3315 10.8295 19.9825C11.1165 19.6315 11.2305 19.1775 11.1415 18.7355L10.5115 15.5535Z" fill="black"/>
<path fill-rule="evenodd" clip-rule="evenodd" d="M8.81043 12.9324H14.4754C14.9264 12.9324 15.3494 12.7324 15.6354 12.3834C15.9224 12.0344 16.0374 11.5784 15.9484 11.1344L15.3174 7.95343C15.1784 7.25143 14.5584 6.74243 13.8444 6.74243H9.44043C8.72743 6.74243 8.10743 7.25143 7.96743 7.95343L7.33643 11.1344C7.24843 11.5784 7.36243 12.0344 7.64943 12.3834C7.93543 12.7324 8.35943 12.9324 8.81043 12.9324Z" fill="black"/>
<path fill-rule="evenodd" clip-rule="evenodd" d="M3.02283 6.06925C3.65083 6.26925 4.14983 6.76525 4.35583 7.39725C4.42283 7.60325 4.61483 7.74225 4.83183 7.74225C5.04783 7.74225 5.23983 7.60325 5.30683 7.39725C5.51283 6.76525 6.01183 6.26925 6.63983 6.06925C6.84583 6.00425 6.98683 5.81225 6.98783 5.59525C6.98983 5.37925 6.85183 5.18625 6.64583 5.11825C6.00983 4.90725 5.50983 4.40625 5.30683 3.77925C5.17383 3.36525 4.48883 3.36525 4.35583 3.77925C4.15283 4.40725 3.65183 4.90725 3.01683 5.11825C2.81183 5.18625 2.67283 5.37925 2.67383 5.59525C2.67583 5.81225 2.81583 6.00425 3.02283 6.06925Z" fill="black"/>
</svg>