<svg width="24" height="24" viewBox="0 0 24 24" fill="none" xmlns="http://www.w3.org/2000/svg">
<path fill-rule="evenodd" clip-rule="evenodd" d="M19.9977 20.0501H14.3322C13.6997 20.0501 13.2259 19.4722 13.3485 18.8534L13.98 15.6718C14.0734 15.2028 14.4849 14.8652 14.9626 14.8652H19.3662C19.8449 14.8652 20.2565 15.2028 20.3499 15.6718L20.9804 18.8534C21.1039 19.4722 20.6291 20.0501 19.9977 20.0501Z" stroke="black" stroke-width="1.5" stroke-linecap="round" stroke-linejoin="round"/>
<path fill-rule="evenodd" clip-rule="evenodd" d="M9.66857 20.0501H4.00306C3.37064 20.0501 2.89681 19.4722 3.0194 18.8534L3.65085 15.6718C3.74425 15.2028 4.15581 14.8652 4.63353 14.8652H9.03713C9.51582 14.8652 9.92738 15.2028 10.0208 15.6718L10.6513 18.8534C10.7748 19.4722 10.3 20.0501 9.66857 20.0501Z" stroke="black" stroke-width="1.5" stroke-linecap="round" stroke-linejoin="round"/>
<path fill-rule="evenodd" clip-rule="evenodd" d="M14.4752 12.4466H8.8097C8.17728 12.4466 7.70345 11.8687 7.82604 11.2499L8.45749 8.0683C8.55089 7.59933 8.96245 7.26172 9.44018 7.26172H13.8438C14.3225 7.26172 14.734 7.59933 14.8274 8.0683L15.4579 11.2499C15.5815 11.8687 15.1067 12.4466 14.4752 12.4466Z" stroke="black" stroke-width="1.5" stroke-linecap="round" stroke-linejoin="round"/>
<path fill-rule="evenodd" clip-rule="evenodd" d="M3.17383 5.60616C3.95998 5.86107 4.57586 6.47695 4.83077 7.2631C5.08568 6.47695 5.70156 5.86107 6.48771 5.60616C5.70156 5.35125 5.08568 4.73537 4.83077 3.94922C4.57586 4.73537 3.95998 5.35125 3.17383 5.60616Z" stroke="black" stroke-width="1.5" stroke-linecap="round" stroke-linejoin="round"/>
</svg>