<svg width="24" height="24" viewBox="0 0 24 24" fill="none" xmlns="http://www.w3.org/2000/svg">
<path d="M19.9977 20.0501C20.6291 20.0501 21.1039 19.4722 20.9804 18.8534L20.3499 15.6718C20.2565 15.2028 19.8449 14.8652 19.3662 14.8652H14.9626C14.4849 14.8652 14.0734 15.2028 13.98 15.6718L13.3485 18.8534C13.2259 19.4722 13.6997 20.0501 14.3322 20.0501H17.1649" stroke="black" stroke-width="1.5" stroke-linecap="round" stroke-linejoin="round"/>
<path d="M4.00306 20.0501C3.37064 20.0501 2.89681 19.4722 3.0194 18.8534L3.65085 15.6718C3.74425 15.2028 4.15581 14.8652 4.63353 14.8652H9.03713C9.51582 14.8652 9.92738 15.2028 10.0208 15.6718L10.6513 18.8534C10.7748 19.4722 10.3 20.0501 9.66857 20.0501H6.83582" stroke="black" stroke-width="1.5" stroke-linecap="round" stroke-linejoin="round"/>
<path d="M14.4752 12.4466C15.1067 12.4466 15.5815 11.8687 15.4579 11.2499L14.8274 8.0683C14.734 7.59933 14.3225 7.26172 13.8438 7.26172H9.44018C8.96245 7.26172 8.55089 7.59933 8.45749 8.0683L7.82604 11.2499C7.70345 11.8687 8.17728 12.4466 8.8097 12.4466H11.6425" stroke="black" stroke-width="1.5" stroke-linecap="round" stroke-linejoin="round"/>
<path d="M3.17383 5.60616C3.95998 5.86107 4.57586 6.47695 4.83077 7.2631C5.08568 6.47695 5.70156 5.86107 6.48771 5.60616C5.70156 5.35125 5.08568 4.73537 4.83077 3.94922" stroke="black" stroke-width="1.5" stroke-linecap="round" stroke-linejoin="round"/>
</svg>