<svg width="25" height="24" viewBox="0 0 25 24" fill="none" xmlns="http://www.w3.org/2000/svg">
<path fill-rule="evenodd" clip-rule="evenodd" d="M15.6385 7.13759C15.6385 5.29959 14.1485 3.80859 12.3095 3.80859C10.4715 3.80859 8.98047 5.29959 8.98047 7.13759C8.98047 8.97659 10.4715 10.4666 12.3095 10.4666C14.1485 10.4666 15.6385 8.97659 15.6385 7.13759Z" stroke="black" stroke-width="1.5" stroke-linecap="round" stroke-linejoin="round"/>
<path opacity="0.4" d="M16.0196 3L14.5566 4.688" stroke="black" stroke-width="1.5" stroke-linecap="round" stroke-linejoin="round"/>
<path fill-rule="evenodd" clip-rule="evenodd" d="M15.6385 17.6708C15.6385 15.8318 14.1485 14.3418 12.3095 14.3418C10.4715 14.3418 8.98047 15.8318 8.98047 17.6708C8.98047 19.5088 10.4715 20.9998 12.3095 20.9998C14.1485 20.9998 15.6385 19.5088 15.6385 17.6708Z" stroke="black" stroke-width="1.5" stroke-linecap="round" stroke-linejoin="round"/>
<path opacity="0.4" d="M12.3086 10.4668V14.341" stroke="black" stroke-width="1.5" stroke-linecap="round" stroke-linejoin="round"/>
</svg>