<svg width="24" height="24" viewBox="0 0 24 24" fill="none" xmlns="http://www.w3.org/2000/svg">
<path fill-rule="evenodd" clip-rule="evenodd" d="M15.1385 7.13759C15.1385 5.29959 13.6485 3.80859 11.8095 3.80859C9.97147 3.80859 8.48047 5.29959 8.48047 7.13759C8.48047 8.97659 9.97147 10.4666 11.8095 10.4666C13.6485 10.4666 15.1385 8.97659 15.1385 7.13759Z" stroke="black" stroke-width="1.5" stroke-linecap="round" stroke-linejoin="round"/>
<path d="M15.5196 3L14.0566 4.688" stroke="black" stroke-width="1.5" stroke-linecap="round" stroke-linejoin="round"/>
<path fill-rule="evenodd" clip-rule="evenodd" d="M15.1385 17.6708C15.1385 15.8318 13.6485 14.3418 11.8095 14.3418C9.97147 14.3418 8.48047 15.8318 8.48047 17.6708C8.48047 19.5088 9.97147 20.9998 11.8095 20.9998C13.6485 20.9998 15.1385 19.5088 15.1385 17.6708Z" stroke="black" stroke-width="1.5" stroke-linecap="round" stroke-linejoin="round"/>
<path d="M11.8086 10.4668V14.341" stroke="black" stroke-width="1.5" stroke-linecap="round" stroke-linejoin="round"/>
</svg>