<svg width="24" height="24" viewBox="0 0 24 24" fill="none" xmlns="http://www.w3.org/2000/svg">
<path fill-rule="evenodd" clip-rule="evenodd" d="M9.86746 4.7958C10.2262 5.0029 10.3491 5.4616 10.142 5.82032L4.03694 16.3945C3.44676 17.4168 3.797 18.7239 4.81922 19.3141C5.84144 19.9042 7.14855 19.554 7.73873 18.5318L11.2681 12.4187C11.4753 12.0599 11.9339 11.937 12.2927 12.1441C12.6514 12.3512 12.7743 12.8099 12.5672 13.1687L9.03777 19.2818C8.03338 21.0214 5.80888 21.6175 4.06922 20.6131C2.32956 19.6087 1.73351 17.3842 2.7379 15.6445L8.84294 5.07032C9.05004 4.7116 9.50874 4.58869 9.86746 4.7958Z" fill="black"/>
<path fill-rule="evenodd" clip-rule="evenodd" d="M13.8579 5.8191C13.2677 4.79688 11.9606 4.44664 10.9384 5.03682C9.91614 5.627 9.5659 6.93411 10.1561 7.95633L16.2611 18.5306C16.8513 19.5528 18.1584 19.903 19.1806 19.3128C20.2028 18.7227 20.5531 17.4155 19.9629 16.3933L13.8579 5.8191ZM10.1884 3.73778C11.928 2.73339 14.1525 3.32944 15.1569 5.0691L21.2619 15.6433C22.2663 17.383 21.6703 19.6075 19.9306 20.6119C18.191 21.6163 15.9665 21.0202 14.9621 19.2806L8.85704 8.70633C7.85265 6.96667 8.4487 4.74217 10.1884 3.73778Z" fill="black"/>
<path fill-rule="evenodd" clip-rule="evenodd" d="M2.7379 15.6433C3.7423 13.9036 5.96679 13.3076 7.70645 14.312C9.44611 15.3164 10.0422 17.5409 9.03777 19.2805C8.03338 21.0202 5.80888 21.6162 4.06922 20.6118C2.32956 19.6074 1.73351 17.3829 2.7379 15.6433ZM6.95645 15.611C5.93423 15.0208 4.62712 15.3711 4.03694 16.3933C3.44676 17.4155 3.797 18.7226 4.81922 19.3128C5.84144 19.903 7.14855 19.5527 7.73873 18.5305C8.32891 17.5083 7.97867 16.2012 6.95645 15.611Z" fill="black"/>
</svg>