<svg width="24" height="24" viewBox="0 0 24 24" fill="none" xmlns="http://www.w3.org/2000/svg">
<path d="M14.2383 3.09375V6.55566C14.2383 7.38409 14.9099 8.05566 15.7383 8.05566H19.2002" stroke="black" stroke-width="1.5" stroke-linecap="round" stroke-linejoin="round"/>
<path d="M6.7998 21C5.69524 21 4.7998 20.1046 4.7998 19V5C4.7998 3.89543 5.69417 3 6.79874 3C9.19028 3 12.3657 3 13.8462 3C14.3766 3 14.8821 3.21071 15.2572 3.58579L18.614 6.94259C18.9891 7.31766 19.1998 7.82153 19.1998 8.35197C19.1998 10.348 19.1998 15.5347 19.1998 19.0019C19.1998 20.1065 18.3044 21 17.1998 21H6.7998Z" stroke="black" stroke-width="1.5" stroke-linecap="round" stroke-linejoin="round"/>
<path opacity="0.4" d="M7.97266 14.1406H16.0269M12 11.0312V17.2524M8.97266 17.2524H15.0269C15.5791 17.2524 16.0269 16.8047 16.0269 16.2524V12.0312C16.0269 11.479 15.5791 11.0312 15.0269 11.0312H8.97266C8.42037 11.0312 7.97266 11.479 7.97266 12.0313V16.2524C7.97266 16.8047 8.42037 17.2524 8.97266 17.2524Z" stroke="black" stroke-width="1.5" stroke-linecap="round" stroke-linejoin="round"/>
</svg>