<svg width="25" height="24" viewBox="0 0 25 24" fill="none" xmlns="http://www.w3.org/2000/svg">
<path d="M15.2594 3.47852H12.2942C11.1225 3.47852 10.1727 4.42831 10.1727 5.59994C10.1727 6.77157 11.1225 7.72136 12.2942 7.72136H19.237" stroke="black" stroke-width="1.5" stroke-linecap="round" stroke-linejoin="round"/>
<path d="M13.0662 10.1641H6.12338C4.95175 10.1641 4.00195 11.1139 4.00195 12.2855C4.00195 13.4571 4.95175 14.4069 6.12338 14.4069H9.16911" stroke="black" stroke-width="1.5" stroke-linecap="round" stroke-linejoin="round"/>
<path d="M19.2381 17.2363H12.2953C11.1236 17.2363 10.1738 18.1861 10.1738 19.3578C10.1738 20.5294 11.1236 21.4792 12.2953 21.4792H15.2034" stroke="black" stroke-width="1.5" stroke-linecap="round" stroke-linejoin="round"/>
<path d="M19.2366 21.4792C20.4082 21.4792 21.358 20.5294 21.358 19.3578C21.358 18.1861 20.4082 17.2363 19.2366 17.2363C18.065 17.2363 17.1152 18.1861 17.1152 19.3578C17.1152 20.5294 18.065 21.4792 19.2366 21.4792Z" stroke="black" stroke-width="1.5" stroke-linecap="round" stroke-linejoin="round"/>
<path d="M13.0667 14.4069C14.2383 14.4069 15.1881 13.4571 15.1881 12.2855C15.1881 11.1139 14.2383 10.1641 13.0667 10.1641C11.895 10.1641 10.9453 11.1139 10.9453 12.2855C10.9453 13.4571 11.895 14.4069 13.0667 14.4069Z" stroke="black" stroke-width="1.5" stroke-linecap="round" stroke-linejoin="round"/>
<path d="M19.2366 7.72136C20.4082 7.72136 21.358 6.77157 21.358 5.59994C21.358 4.42831 20.4082 3.47852 19.2366 3.47852C18.065 3.47852 17.1152 4.42831 17.1152 5.59994C17.1152 6.77157 18.065 7.72136 19.2366 7.72136Z" stroke="black" stroke-width="1.5" stroke-linecap="round" stroke-linejoin="round"/>
</svg>