<svg width="24" height="24" viewBox="0 0 24 24" fill="none" xmlns="http://www.w3.org/2000/svg">
<path fill-rule="evenodd" clip-rule="evenodd" d="M3.7402 3.89737C4.72468 2.84117 6.12669 2.25 7.78216 2.25H16.2169C17.8762 2.25 19.2788 2.84084 20.2629 3.89765C21.2413 4.94841 21.75 6.39889 21.75 8.02638V15.9736C21.75 17.6011 21.2413 19.0516 20.2627 20.1024C19.2785 21.1592 17.8756 21.75 16.2159 21.75H7.78216C6.1228 21.75 4.72038 21.1591 3.73657 20.1023C2.75842 19.0515 2.25 17.601 2.25 15.9736V8.02638C2.25 6.39806 2.76117 4.94771 3.7402 3.89737ZM4.83745 4.92012C4.16024 5.64666 3.75 6.70951 3.75 8.02638V15.9736C3.75 17.2914 4.15861 18.3541 4.83451 19.0802C5.50475 19.8003 6.49341 20.25 7.78216 20.25H16.2159C17.5052 20.25 18.4944 19.8002 19.165 19.0801C19.8412 18.354 20.25 17.2913 20.25 15.9736V8.02638C20.25 6.70868 19.8412 5.64597 19.1651 4.91984C18.4946 4.19975 17.5056 3.75 16.2169 3.75H7.78216C6.49828 3.75 5.50921 4.19943 4.83745 4.92012Z" fill="black"/>
<path fill-rule="evenodd" clip-rule="evenodd" d="M10.1729 6.57C10.1729 6.56999 10.1729 6.57 10.1729 6.57L16.8121 10.2907C17.1315 10.4715 17.3947 10.736 17.5732 11.0572C18.105 12.0155 17.7605 13.2246 16.8013 13.757L10.1677 17.4322C10.1671 17.4326 10.1664 17.4329 10.1658 17.4332C9.86929 17.5991 9.5371 17.6835 9.20219 17.6835C8.10677 17.6835 7.21777 16.7945 7.21777 15.6991V8.30105C7.21777 7.96135 7.30456 7.62783 7.471 7.33061C8.00701 6.3743 9.21762 6.03461 10.1729 6.57ZM8.77962 8.06376C8.73883 8.1367 8.71777 8.21773 8.71777 8.30105V15.6991C8.71777 15.9661 8.9352 16.1835 9.20219 16.1835C9.28546 16.1835 9.36512 16.1625 9.43409 16.1238L9.43742 16.122L16.0734 12.4454C16.0733 12.4455 16.0735 12.4454 16.0734 12.4454C16.307 12.3156 16.392 12.0204 16.262 11.7857M8.77962 8.06376C8.91007 7.83134 9.2059 7.74755 9.43948 7.87848L16.0731 11.596C16.0735 11.5962 16.0739 11.5965 16.0743 11.5967C16.1541 11.6422 16.2185 11.7076 16.262 11.7857" fill="black"/>
<path fill-rule="evenodd" clip-rule="evenodd" d="M14.8037 9.18767C15.1143 9.46176 15.1439 9.93572 14.8698 10.2463L8.86799 17.0467C8.5939 17.3572 8.11995 17.3868 7.80939 17.1127C7.49883 16.8386 7.46926 16.3647 7.74335 16.0541L13.7451 9.25371C14.0192 8.94315 14.4932 8.91358 14.8037 9.18767Z" fill="black"/>
<path fill-rule="evenodd" clip-rule="evenodd" d="M7.8245 6.87306C8.13623 6.6003 8.61005 6.63189 8.88281 6.94362L14.8719 13.7885C15.1447 14.1002 15.1131 14.574 14.8013 14.8468C14.4896 15.1195 14.0158 15.0879 13.743 14.7762L7.75393 7.93137C7.48117 7.61964 7.51277 7.14582 7.8245 6.87306Z" fill="black"/>
</svg>