<svg width="24" height="24" viewBox="0 0 24 24" fill="none" xmlns="http://www.w3.org/2000/svg">
<path fill-rule="evenodd" clip-rule="evenodd" d="M14.2383 2.34375C14.6525 2.34375 14.9883 2.67954 14.9883 3.09375V6.55566C14.9883 6.96988 15.3241 7.30566 15.7383 7.30566H19.2002C19.6144 7.30566 19.9502 7.64145 19.9502 8.05566C19.9502 8.46988 19.6144 8.80566 19.2002 8.80566H15.7383C14.4956 8.80566 13.4883 7.7983 13.4883 6.55566V3.09375C13.4883 2.67954 13.8241 2.34375 14.2383 2.34375Z" fill="black"/>
<path fill-rule="evenodd" clip-rule="evenodd" d="M6.79874 3.75C6.10891 3.75 5.5498 4.30912 5.5498 5V19C5.5498 19.6904 6.10945 20.25 6.7998 20.25H17.1998C17.8911 20.25 18.4498 19.6913 18.4498 19.0019V8.35197C18.4498 8.02238 18.3195 7.70871 18.0837 7.47292L14.7269 4.11612C14.4916 3.8808 14.1764 3.75 13.8462 3.75H6.79874ZM4.0498 5C4.0498 3.48174 5.27944 2.25 6.79874 2.25H13.8462C14.5768 2.25 15.2727 2.54062 15.7875 3.05546L19.1443 6.41226C19.6587 6.92662 19.9498 7.62069 19.9498 8.35197V19.0019C19.9498 20.5216 18.7176 21.75 17.1998 21.75H6.7998C5.28102 21.75 4.0498 20.5188 4.0498 19V5Z" fill="black"/>
<path fill-rule="evenodd" clip-rule="evenodd" d="M10.0391 11.3672C10.0391 10.953 10.3748 10.6172 10.7891 10.6172H15.5121C15.9263 10.6172 16.2621 10.953 16.2621 11.3672C16.2621 11.7814 15.9263 12.1172 15.5121 12.1172H10.7891C10.3748 12.1172 10.0391 11.7814 10.0391 11.3672ZM10.0391 14.0672C10.0391 13.653 10.3748 13.3172 10.7891 13.3172H15.5121C15.9263 13.3172 16.2621 13.653 16.2621 14.0672C16.2621 14.4814 15.9263 14.8172 15.5121 14.8172H10.7891C10.3748 14.8172 10.0391 14.4814 10.0391 14.0672ZM10.0391 16.7672C10.0391 16.353 10.3748 16.0172 10.7891 16.0172H15.5121C15.9263 16.0172 16.2621 16.353 16.2621 16.7672C16.2621 17.1814 15.9263 17.5172 15.5121 17.5172H10.7891C10.3748 17.5172 10.0391 17.1814 10.0391 16.7672Z" fill="black"/>
<path fill-rule="evenodd" clip-rule="evenodd" d="M9.24707 11.3672C9.24707 10.953 8.91128 10.6172 8.49707 10.6172H8.48707C8.07286 10.6172 7.73707 10.953 7.73707 11.3672C7.73707 11.7814 8.07286 12.1172 8.48707 12.1172H8.49707C8.91128 12.1172 9.24707 11.7814 9.24707 11.3672ZM9.24707 14.0672C9.24707 13.653 8.91128 13.3172 8.49707 13.3172H8.48707C8.07286 13.3172 7.73707 13.653 7.73707 14.0672C7.73707 14.4814 8.07286 14.8172 8.48707 14.8172H8.49707C8.91128 14.8172 9.24707 14.4814 9.24707 14.0672ZM9.24707 16.7672C9.24707 16.353 8.91128 16.0172 8.49707 16.0172H8.48707C8.07286 16.0172 7.73707 16.353 7.73707 16.7672C7.73707 17.1814 8.07286 17.5172 8.48707 17.5172H8.49707C8.91128 17.5172 9.24707 17.1814 9.24707 16.7672Z" fill="black"/>
</svg>