<svg width="24" height="24" viewBox="0 0 24 24" fill="none" xmlns="http://www.w3.org/2000/svg">
<path fill-rule="evenodd" clip-rule="evenodd" d="M12 3.75C7.44329 3.75 3.75 7.44329 3.75 12C3.75 16.5567 7.44329 20.25 12 20.25C16.5567 20.25 20.25 16.5567 20.25 12C20.25 7.44329 16.5567 3.75 12 3.75ZM2.25 12C2.25 6.61487 6.61487 2.25 12 2.25C17.3851 2.25 21.75 6.61487 21.75 12C21.75 17.3851 17.3851 21.75 12 21.75C6.61487 21.75 2.25 17.3851 2.25 12Z" fill="black"/>
<path fill-rule="evenodd" clip-rule="evenodd" d="M6.70312 11.9998C6.70312 9.07437 9.07437 6.70312 11.9998 6.70312C13.2896 6.70312 14.473 7.16623 15.3905 7.93201C15.7086 8.19742 15.7512 8.67037 15.4858 8.98839C15.2204 9.3064 14.7474 9.34905 14.4294 9.08364C13.7708 8.53397 12.9246 8.20312 11.9998 8.20312C9.9028 8.20312 8.20312 9.9028 8.20312 11.9998C8.20312 14.0969 9.9028 15.7965 11.9998 15.7965C13.8401 15.7965 15.3744 14.4876 15.7225 12.7498H12.568C12.1538 12.7498 11.818 12.414 11.818 11.9998C11.818 11.5856 12.1538 11.2498 12.568 11.2498H16.5465C16.9607 11.2498 17.2965 11.5856 17.2965 11.9998C17.2965 14.9253 14.9253 17.2965 11.9998 17.2965C9.07437 17.2965 6.70312 14.9253 6.70312 11.9998Z" fill="black"/>
</svg>