<svg width="24" height="24" viewBox="0 0 24 24" fill="none" xmlns="http://www.w3.org/2000/svg">
<path fill-rule="evenodd" clip-rule="evenodd" d="M12 3.75C7.44329 3.75 3.75 7.44329 3.75 12C3.75 16.5567 7.44329 20.25 12 20.25C16.5567 20.25 20.25 16.5567 20.25 12C20.25 7.44329 16.5567 3.75 12 3.75ZM2.25 12C2.25 6.61487 6.61487 2.25 12 2.25C17.3851 2.25 21.75 6.61487 21.75 12C21.75 17.3851 17.3851 21.75 12 21.75C6.61487 21.75 2.25 17.3851 2.25 12Z" fill="black"/>
<path fill-rule="evenodd" clip-rule="evenodd" d="M14.1423 8.57422V10.6077C14.1423 11.022 13.8065 11.3577 13.3923 11.3577C13.3921 11.3577 13.3919 11.3577 13.3918 11.3577M14.1423 8.57422H15.4253V15.4243H8.5752V14.1413H10.6082C11.0224 14.1413 11.3582 13.8055 11.3582 13.3913V11.3577H13.3913M12.6423 8.24172C12.6423 7.59693 13.165 7.07422 13.8098 7.07422H15.7578C16.4026 7.07422 16.9253 7.59693 16.9253 8.24172V15.7568C16.9253 16.4016 16.4026 16.9243 15.7578 16.9243H8.2427C7.59791 16.9243 7.0752 16.4016 7.0752 15.7568V13.8088C7.0752 13.164 7.59791 12.6413 8.2427 12.6413H9.85823V11.0253C9.85823 10.3805 10.3809 9.85775 11.0257 9.85775H12.6423V8.24172Z" fill="black"/>
</svg>