<svg width="25" height="24" viewBox="0 0 25 24" fill="none" xmlns="http://www.w3.org/2000/svg">
<path d="M12.7505 3.00005L18.431 3C19.7356 3 20.7933 4.05764 20.7933 5.3623C20.7933 6.66696 19.7356 7.7246 18.431 7.7246L7.07007 7.72471C5.76535 7.72471 4.70776 6.66712 4.70776 5.36241C4.70776 4.05672 5.76535 3.0001 7.07007 3.0001H7.58443" stroke="black" stroke-width="1.5" stroke-linecap="round" stroke-linejoin="round"/>
<path fill-rule="evenodd" clip-rule="evenodd" d="M20.7912 5.3623C20.7912 6.66702 19.7336 7.7246 18.4289 7.7246C17.1242 7.7246 16.0664 6.66702 16.0664 5.3623C16.0664 4.05759 17.1242 3 18.4289 3C19.7336 3 20.7912 4.05661 20.7912 5.3623Z" stroke="black" stroke-width="1.5" stroke-linecap="round" stroke-linejoin="round"/>
<path d="M20.791 18.6384C20.791 19.9431 19.7334 21.0007 18.4287 21.0007C17.124 21.0007 16.0664 19.9431 16.0664 18.6384V12.7978C16.0664 11.4931 17.124 10.4355 18.4287 10.4355C19.7334 10.4355 20.791 11.4931 20.791 12.7978V15.7181" stroke="black" stroke-width="1.5" stroke-linecap="round" stroke-linejoin="round"/>
<path d="M11.1187 10.4355H7.06933C5.76467 10.4355 4.70703 11.4932 4.70703 12.7978C4.70703 14.1026 5.76462 15.1601 7.06933 15.1601H11.1187C12.4244 15.1601 13.481 14.1026 13.481 12.7978C13.481 11.4922 12.4244 10.4355 11.1187 10.4355Z" stroke="black" stroke-width="1.5" stroke-linecap="round" stroke-linejoin="round"/>
<path d="M9.43163 15.0919V12.7978C9.43163 11.4931 8.37502 10.4355 7.06933 10.4355C5.76462 10.4355 4.70703 11.4931 4.70703 12.7978V18.6384C4.70703 19.9431 5.76462 21.0007 7.06933 21.0007C8.37502 21.0007 9.43163 19.9431 9.43163 18.6384V18.1718" stroke="black" stroke-width="1.5" stroke-linecap="round" stroke-linejoin="round"/>
</svg>