<svg width="25" height="24" viewBox="0 0 25 24" fill="none" xmlns="http://www.w3.org/2000/svg">
<path d="M12.749 21H8.53216C5.58405 21 3.75 18.9188 3.75 15.9736V8.02638C3.75 5.08119 5.59281 3 8.53216 3H16.9669C19.915 3 21.75 5.08119 21.75 8.02638V15.9736C21.75 18.9188 19.915 21 16.9659 21H16.3991" stroke="black" stroke-width="1.5" stroke-linecap="round" stroke-linejoin="round"/>
<path d="M8.7793 15.4957V8.50683C8.7793 8.30737 8.83086 8.11083 8.92816 7.93667C9.2434 7.37429 9.95368 7.17386 10.5161 7.4891L16.7859 11.0035C16.9746 11.1095 17.1294 11.2662 17.2344 11.4549C17.5477 12.0183 17.3444 12.7286 16.781 13.0419L10.5112 16.5154C10.338 16.6117 10.1434 16.6613 9.94589 16.6613C9.30178 16.6613 8.7793 16.1398 8.7793 15.4957Z" stroke="black" stroke-width="1.5" stroke-linecap="round" stroke-linejoin="round"/>
<path d="M9.11328 7.68945L14.7711 14.1558" stroke="black" stroke-width="1.5" stroke-linecap="round" stroke-linejoin="round"/>
<path d="M14.7711 9.87305L9.10156 16.2976" stroke="black" stroke-width="1.5" stroke-linecap="round" stroke-linejoin="round"/>
</svg>