<svg width="25" height="24" viewBox="0 0 25 24" fill="none" xmlns="http://www.w3.org/2000/svg">
<path fill-rule="evenodd" clip-rule="evenodd" d="M14.0209 3.65248L8.20918 9.16746C7.25758 10.0704 7.21866 11.5737 8.12063 12.5253C9.02455 13.4769 10.5288 13.5177 11.4804 12.6138L17.2912 7.09982C18.2428 6.19591 18.2817 4.69164 17.3788 3.74005C16.4758 2.78845 14.9725 2.74953 14.0209 3.65248Z" stroke="black" stroke-width="1.5" stroke-linecap="round" stroke-linejoin="round"/>
<path fill-rule="evenodd" clip-rule="evenodd" d="M13.2598 5.39951V18.6246C13.2598 19.9371 14.3233 21.0006 15.6358 21.0006C16.9484 21.0006 18.0109 19.9371 18.0109 18.6246V5.39951C18.0109 4.08693 16.9484 3.02344 15.6358 3.02344C14.3233 3.02344 13.2598 4.08693 13.2598 5.39951Z" stroke="black" stroke-width="1.5" stroke-linecap="round" stroke-linejoin="round"/>
</svg>