<svg width="24" height="24" viewBox="0 0 24 24" fill="none" xmlns="http://www.w3.org/2000/svg">
<path fill-rule="evenodd" clip-rule="evenodd" d="M12 2.25C12.4142 2.25 12.75 2.58579 12.75 3V5C12.75 5.41421 12.4142 5.75 12 5.75C11.5858 5.75 11.25 5.41421 11.25 5V3C11.25 2.58579 11.5858 2.25 12 2.25ZM12 7.25C12.4142 7.25 12.75 7.58579 12.75 8V16C12.75 16.4142 12.4142 16.75 12 16.75C11.5858 16.75 11.25 16.4142 11.25 16V8C11.25 7.58579 11.5858 7.25 12 7.25ZM12 18.25C12.4142 18.25 12.75 18.5858 12.75 19V21C12.75 21.4142 12.4142 21.75 12 21.75C11.5858 21.75 11.25 21.4142 11.25 21V19C11.25 18.5858 11.5858 18.25 12 18.25Z" fill="black"/>
<path fill-rule="evenodd" clip-rule="evenodd" d="M3 13.75C3.41421 13.75 3.75 13.4142 3.75 13V11C3.75 10.5858 3.41421 10.25 3 10.25C2.58579 10.25 2.25 10.5858 2.25 11V13C2.25 13.4142 2.58579 13.75 3 13.75Z" fill="black"/>
<path fill-rule="evenodd" clip-rule="evenodd" d="M21 13.75C21.4142 13.75 21.75 13.4142 21.75 13V11C21.75 10.5858 21.4142 10.25 21 10.25C20.5858 10.25 20.25 10.5858 20.25 11V13C20.25 13.4142 20.5858 13.75 21 13.75Z" fill="black"/>
<path fill-rule="evenodd" clip-rule="evenodd" d="M7.5 4.25C7.91421 4.25 8.25 4.58579 8.25 5V7C8.25 7.41421 7.91421 7.75 7.5 7.75C7.08579 7.75 6.75 7.41421 6.75 7V5C6.75 4.58579 7.08579 4.25 7.5 4.25ZM7.5 10.25C7.91421 10.25 8.25 10.5858 8.25 11V19C8.25 19.4142 7.91421 19.75 7.5 19.75C7.08579 19.75 6.75 19.4142 6.75 19V11C6.75 10.5858 7.08579 10.25 7.5 10.25Z" fill="black"/>
<path fill-rule="evenodd" clip-rule="evenodd" d="M16.5 4.25C16.9142 4.25 17.25 4.58579 17.25 5V13C17.25 13.4142 16.9142 13.75 16.5 13.75C16.0858 13.75 15.75 13.4142 15.75 13V5C15.75 4.58579 16.0858 4.25 16.5 4.25ZM16.5 16.25C16.9142 16.25 17.25 16.5858 17.25 17V19C17.25 19.4142 16.9142 19.75 16.5 19.75C16.0858 19.75 15.75 19.4142 15.75 19V17C15.75 16.5858 16.0858 16.25 16.5 16.25Z" fill="black"/>
</svg>