<svg width="24" height="24" viewBox="0 0 24 24" fill="none" xmlns="http://www.w3.org/2000/svg">
<path d="M16.9864 21.1106H7.0264C6.1464 21.1106 5.32641 20.6406 4.8864 19.8906L2.60641 16.0605C2.13641 15.2705 2.13641 14.3005 2.60641 13.5105L8.1964 4.1106C8.6464 3.3606 9.4664 2.89062 10.3364 2.89062H13.6564C14.5364 2.89062 15.3564 3.3606 15.8064 4.1106L21.3964 13.5105C21.5864 13.8305 21.6964 14.1805 21.7364 14.5405C21.7364 14.5905 21.7464 14.6307 21.7464 14.6807C21.7464 14.7007 21.7464 14.7205 21.7464 14.7305C21.7464 15.1905 21.6364 15.6405 21.3964 16.0505L19.1264 19.8806C18.6764 20.6306 17.8564 21.1006 16.9864 21.1006V21.1106ZM7.39641 19.6106H16.9864C17.3364 19.6106 17.6664 19.4206 17.8364 19.1306L20.0264 15.4407H15.0664C15.0664 15.4407 15.0464 15.4407 15.0364 15.4407H9.53641L7.3864 19.6106H7.39641ZM9.3064 5.19067L3.89641 14.2805C3.70641 14.5905 3.70641 14.9805 3.89641 15.2905L6.0564 18.9207L8.40641 14.3506C8.40641 14.3506 8.4064 14.3306 8.4164 14.3206L11.2164 8.89062L9.29641 5.18066L9.3064 5.19067ZM15.5164 13.9407H19.9164L14.5264 4.88062C14.3464 4.58062 14.0264 4.40063 13.6664 4.40063H10.5864L12.7364 8.55054C12.7364 8.55054 12.7364 8.56056 12.7364 8.57056L15.5064 13.9507L15.5164 13.9407ZM10.3164 13.9407H13.8264L12.0764 10.5405L10.3264 13.9407H10.3164Z" fill="black"/>
</svg>