<svg width="24" height="24" viewBox="0 0 24 24" fill="none" xmlns="http://www.w3.org/2000/svg">
<path fill-rule="evenodd" clip-rule="evenodd" d="M3.7402 3.89737C4.72468 2.84117 6.12669 2.25 7.78216 2.25H16.2169C17.8762 2.25 19.2788 2.84084 20.2629 3.89765C21.2413 4.94841 21.75 6.39889 21.75 8.02638V15.9736C21.75 17.6011 21.2413 19.0516 20.2627 20.1024C19.2785 21.1592 17.8756 21.75 16.2159 21.75H7.78216C6.1228 21.75 4.72038 21.1591 3.73657 20.1023C2.75842 19.0515 2.25 17.601 2.25 15.9736V8.02638C2.25 6.39806 2.76117 4.94771 3.7402 3.89737ZM4.83745 4.92012C4.16024 5.64666 3.75 6.70951 3.75 8.02638V15.9736C3.75 17.2914 4.15861 18.3541 4.83451 19.0802C5.50475 19.8003 6.49341 20.25 7.78216 20.25H16.2159C17.5052 20.25 18.4944 19.8002 19.165 19.0801C19.8412 18.354 20.25 17.2913 20.25 15.9736V8.02638C20.25 6.70868 19.8412 5.64597 19.1651 4.91984C18.4946 4.19975 17.5056 3.75 16.2169 3.75H7.78216C6.49828 3.75 5.50921 4.19943 4.83745 4.92012Z" fill="black"/>
<path fill-rule="evenodd" clip-rule="evenodd" d="M14.4171 7.75V10.3335C14.4171 10.7477 14.0813 11.0835 13.6671 11.0835C13.6669 11.0835 13.6667 11.0835 13.6665 11.0835M14.4171 7.75H16.25V16.25H7.75V14.4171H10.3329C10.7472 14.4171 11.0829 14.0813 11.0829 13.6671V11.0835H13.6659M12.9171 7.5C12.9171 6.80964 13.4767 6.25 14.1671 6.25H16.5C17.1904 6.25 17.75 6.80964 17.75 7.5V16.5C17.75 17.1904 17.1904 17.75 16.5 17.75H7.5C6.80964 17.75 6.25 17.1904 6.25 16.5V14.1671C6.25 13.4767 6.80964 12.9171 7.5 12.9171H9.58294V10.8335C9.58294 10.1432 10.1426 9.58353 10.8329 9.58353H12.9171V7.5Z" fill="black"/>
</svg>