<svg width="24" height="24" viewBox="0 0 24 24" fill="none" xmlns="http://www.w3.org/2000/svg">
<path fill-rule="evenodd" clip-rule="evenodd" d="M7.41624 2.63445C7.41617 2.63441 7.41631 2.63449 7.41624 2.63445L19.524 9.42056C20.0084 9.69384 20.4071 10.0953 20.6775 10.5804L20.6783 10.5818C21.4822 12.0315 20.9598 13.8597 19.5099 14.665L7.40438 21.3726C6.95841 21.6202 6.45757 21.75 5.94769 21.75C4.28886 21.75 2.94531 20.4051 2.94531 18.7476V5.25282C2.94531 4.73883 3.07766 4.23314 3.32908 3.78472M7.41624 2.63445C5.9696 1.82241 4.13951 2.33901 3.32908 3.78472L7.41624 2.63445ZM6.6819 3.94241C5.95892 3.5365 5.04327 3.79432 4.63753 4.51816C4.51147 4.74299 4.44531 4.99625 4.44531 5.25282V18.7476C4.44531 19.577 5.11771 20.25 5.94769 20.25C6.20255 20.25 6.45283 20.1852 6.67624 20.0612L18.7816 13.3537C18.7813 13.3538 18.7818 13.3536 18.7816 13.3537C19.5065 12.9506 19.7687 12.0355 19.3669 11.3099C19.2307 11.066 19.0306 10.8647 18.7879 10.7275C18.7876 10.7274 18.7873 10.7272 18.787 10.727L6.6819 3.94241Z" fill="black"/>
<path fill-rule="evenodd" clip-rule="evenodd" d="M16.9576 8.01614C17.2464 8.31307 17.2398 8.7879 16.9429 9.0767L4.85886 20.8299C4.56193 21.1187 4.0871 21.1121 3.7983 20.8152C3.5095 20.5183 3.51609 20.0435 3.81302 19.7547L15.897 8.00142C16.194 7.71262 16.6688 7.71921 16.9576 8.01614Z" fill="black"/>
<path fill-rule="evenodd" clip-rule="evenodd" d="M3.7986 3.1799C4.08757 2.88313 4.5624 2.87682 4.85917 3.16579L16.9812 14.957C17.2784 15.2454 17.2856 15.7203 16.9972 16.0175C16.7087 16.3148 16.2339 16.322 15.9366 16.0335L12.3357 12.5397L3.81271 4.24046C3.51595 3.95149 3.50963 3.47666 3.7986 3.1799Z" fill="black"/>
</svg>