<svg width="24" height="24" viewBox="0 0 24 24" fill="none" xmlns="http://www.w3.org/2000/svg">
<path d="M9.49233 5.44531L3.3873 16.0195C2.59001 17.4005 3.06316 19.1663 4.4441 19.9636C5.82504 20.7609 7.59084 20.2877 8.38813 18.9068L11.9175 12.7936" stroke="black" stroke-width="1.5" stroke-linecap="round"/>
<path d="M9.50644 8.33133C8.70915 6.95039 9.1823 5.18458 10.5632 4.3873C11.9442 3.59001 13.71 4.06316 14.5073 5.4441L20.6123 16.0183C21.4096 17.3993 20.9364 19.1651 19.5555 19.9624C18.1746 20.7596 16.4088 20.2865 15.6115 18.9056L9.50644 8.33133Z" stroke="black" stroke-width="1.5" stroke-linecap="round"/>
<path d="M8.38813 18.9055C7.59084 20.2865 5.82504 20.7596 4.4441 19.9623C3.06316 19.165 2.59001 17.3992 3.3873 16.0183C4.18458 14.6373 5.95039 14.1642 7.33133 14.9615C8.71227 15.7588 9.18541 17.5246 8.38813 18.9055Z" stroke="black" stroke-width="1.5" stroke-linecap="round"/>
</svg>