<svg width="24" height="24" viewBox="0 0 24 24" fill="none" xmlns="http://www.w3.org/2000/svg">
<path fill-rule="evenodd" clip-rule="evenodd" d="M15.9756 4.79758C16.83 3.31756 18.7225 2.81048 20.2025 3.66496C21.6826 4.51945 22.1897 6.41193 21.3352 7.89195L14.6945 19.394C14.6862 19.4088 14.6778 19.4237 14.6693 19.4385C13.8148 20.9185 11.9223 21.4256 10.4423 20.5711L3.7977 16.7348C2.31769 15.8804 1.8106 13.9879 2.66508 12.5079C3.51957 11.0278 5.41206 10.5208 6.89207 11.3752L10.8565 13.6641L15.9756 4.79758ZM19.4525 4.964C18.69 4.52373 17.7149 4.785 17.2746 5.54758L11.7805 15.0636C11.6811 15.2359 11.5172 15.3616 11.3251 15.4131C11.133 15.4645 10.9283 15.4376 10.756 15.3381L6.14207 12.6743C5.3795 12.234 4.4044 12.4953 3.96412 13.2579C3.52385 14.0204 3.78513 14.9955 4.5477 15.4358L11.1923 19.2721C11.9548 19.7123 12.9299 19.451 13.3702 18.6885L13.3853 18.6618L13.392 18.6496L13.3922 18.6496L20.0361 7.14195C20.4764 6.37937 20.2151 5.40427 19.4525 4.964Z" fill="black"/>
<path fill-rule="evenodd" clip-rule="evenodd" d="M5.86685 11.6484C6.07396 11.2897 6.53265 11.1668 6.89137 11.3739C8.37139 12.2284 8.87848 14.1209 8.02399 15.6009C7.1695 17.0809 5.27702 17.588 3.797 16.7335C3.43828 16.5264 3.31537 16.0677 3.52248 15.709C3.72959 15.3503 4.18828 15.2274 4.547 15.4345C5.30958 15.8748 6.28468 15.6135 6.72495 14.8509C7.16522 14.0883 6.90395 13.1132 6.14137 12.673C5.78265 12.4659 5.65975 12.0072 5.86685 11.6484Z" fill="black"/>
</svg>