<svg width="24" height="24" viewBox="0 0 24 24" fill="none" xmlns="http://www.w3.org/2000/svg">
<path d="M12.031 12.0718C13.4165 12.0718 14.5396 10.9487 14.5396 9.56326C14.5396 8.17781 13.4165 7.05469 12.031 7.05469C10.6456 7.05469 9.52246 8.17781 9.52246 9.56326C9.52246 10.9487 10.6456 12.0718 12.031 12.0718Z" stroke="black" stroke-width="1.5"/>
<path d="M9.20117 16.996L17.7249 6.57812" stroke="black" stroke-width="1.5" stroke-linecap="round" stroke-linejoin="round"/>
<path d="M6.12793 12.6539L13.9878 3.32031" stroke="black" stroke-width="1.5" stroke-linecap="round" stroke-linejoin="round"/>
<path d="M6.94434 5.47266L10.0104 8.0277" stroke="black" stroke-width="1.5" stroke-linecap="round" stroke-linejoin="round"/>
<path d="M12.0094 21C11.6794 21 11.5255 20.8588 11.3551 20.3851C10.907 18.8088 10.0693 18.1077 9.05359 16.8278C8.13366 15.5995 6.77682 14.2004 6.07175 12.6074C4.11211 8.27647 7.14961 2.99289 11.9935 3.00003C16.9714 2.9863 19.9651 8.45952 17.8382 12.839C17.2127 13.9424 16.4818 14.9839 15.6552 15.9493C14.3665 17.4717 13.2083 18.4576 12.6588 20.3875C12.5325 20.7598 12.3694 21 12.0094 21Z" stroke="black" stroke-width="1.5" stroke-linecap="round" stroke-linejoin="round"/>
</svg>