<svg width="24" height="24" viewBox="0 0 24 24" fill="none" xmlns="http://www.w3.org/2000/svg">
<path fill-rule="evenodd" clip-rule="evenodd" d="M8.67285 5.60189C8.67285 4.01605 9.95843 2.73047 11.5443 2.73047H18.4871C18.9013 2.73047 19.2371 3.06626 19.2371 3.48047C19.2371 3.89468 18.9013 4.23047 18.4871 4.23047H11.5443C10.7869 4.23047 10.1729 4.84448 10.1729 5.60189C10.1729 6.35931 10.7869 6.97331 11.5443 6.97331H18.4871C18.9013 6.97331 19.2371 7.3091 19.2371 7.72331C19.2371 8.13753 18.9013 8.47331 18.4871 8.47331H11.5443C9.95844 8.47331 8.67285 7.18774 8.67285 5.60189Z" fill="black"/>
<path fill-rule="evenodd" clip-rule="evenodd" d="M2.50195 12.2855C2.50195 10.6996 3.78753 9.41406 5.37338 9.41406H12.3162C12.7304 9.41406 13.0662 9.74985 13.0662 10.1641C13.0662 10.5783 12.7304 10.9141 12.3162 10.9141H5.37338C4.61596 10.9141 4.00195 11.5281 4.00195 12.2855C4.00195 13.0429 4.61596 13.6569 5.37338 13.6569H12.3162C12.7304 13.6569 13.0662 13.9927 13.0662 14.4069C13.0662 14.8211 12.7304 15.1569 12.3162 15.1569H5.37338C3.78754 15.1569 2.50195 13.8713 2.50195 12.2855Z" fill="black"/>
<path fill-rule="evenodd" clip-rule="evenodd" d="M8.67383 19.3558C8.67383 17.77 9.95941 16.4844 11.5453 16.4844H18.4881C18.9023 16.4844 19.2381 16.8202 19.2381 17.2344C19.2381 17.6486 18.9023 17.9844 18.4881 17.9844H11.5453C10.7878 17.9844 10.1738 18.5984 10.1738 19.3558C10.1738 20.1132 10.7878 20.7272 11.5453 20.7272H18.4881C18.9023 20.7272 19.2381 21.063 19.2381 21.4772C19.2381 21.8914 18.9023 22.2272 18.4881 22.2272H11.5453C9.95941 22.2272 8.67383 20.9416 8.67383 19.3558Z" fill="black"/>
<path fill-rule="evenodd" clip-rule="evenodd" d="M15.6152 19.3558C15.6152 17.77 16.9007 16.4844 18.4866 16.4844C20.0724 16.4844 21.358 17.77 21.358 19.3558C21.358 20.9416 20.0724 22.2272 18.4866 22.2272C16.9007 22.2272 15.6152 20.9416 15.6152 19.3558ZM18.4866 17.9844C17.7292 17.9844 17.1152 18.5984 17.1152 19.3558C17.1152 20.1132 17.7292 20.7272 18.4866 20.7272C19.244 20.7272 19.858 20.1132 19.858 19.3558C19.858 18.5984 19.244 17.9844 18.4866 17.9844Z" fill="black"/>
<path fill-rule="evenodd" clip-rule="evenodd" d="M9.44531 12.2855C9.44531 10.6997 10.7308 9.41406 12.3167 9.41406C13.9025 9.41406 15.1881 10.6996 15.1881 12.2855C15.1881 13.8713 13.9025 15.1569 12.3167 15.1569C10.7308 15.1569 9.44531 13.8713 9.44531 12.2855ZM12.3167 10.9141C11.5593 10.9141 10.9453 11.528 10.9453 12.2855C10.9453 13.0429 11.5593 13.6569 12.3167 13.6569C13.0741 13.6569 13.6881 13.0429 13.6881 12.2855C13.6881 11.5281 13.0741 10.9141 12.3167 10.9141Z" fill="black"/>
<path fill-rule="evenodd" clip-rule="evenodd" d="M15.6152 5.59799C15.6152 4.01217 16.9007 2.72656 18.4866 2.72656C20.0724 2.72656 21.358 4.01214 21.358 5.59799C21.358 7.18383 20.0724 8.46941 18.4866 8.46941C16.9007 8.46941 15.6152 7.1838 15.6152 5.59799ZM18.4866 4.22656C17.7292 4.22656 17.1152 4.84054 17.1152 5.59799C17.1152 6.35543 17.7292 6.96941 18.4866 6.96941C19.244 6.96941 19.858 6.3554 19.858 5.59799C19.858 4.84057 19.244 4.22656 18.4866 4.22656Z" fill="black"/>
</svg>