<svg width="24" height="24" viewBox="0 0 24 24" fill="none" xmlns="http://www.w3.org/2000/svg">
<path fill-rule="evenodd" clip-rule="evenodd" d="M12 3.75C7.44329 3.75 3.75 7.44329 3.75 12C3.75 16.5567 7.44329 20.25 12 20.25C16.5567 20.25 20.25 16.5567 20.25 12C20.25 7.44329 16.5567 3.75 12 3.75ZM2.25 12C2.25 6.61487 6.61487 2.25 12 2.25C17.3851 2.25 21.75 6.61487 21.75 12C21.75 17.3851 17.3851 21.75 12 21.75C6.61487 21.75 2.25 17.3851 2.25 12Z" fill="black"/>
<path fill-rule="evenodd" clip-rule="evenodd" d="M10.5762 6.57C10.5762 6.56999 10.5762 6.57 10.5762 6.57L17.2155 10.2907C17.5348 10.4715 17.7981 10.736 17.9765 11.0572C18.5083 12.0155 18.1638 13.2246 17.2046 13.757L10.571 17.4322C10.5704 17.4326 10.5698 17.4329 10.5691 17.4332C10.2726 17.5991 9.94042 17.6835 9.60551 17.6835C8.51009 17.6835 7.62109 16.7945 7.62109 15.6991V8.30105C7.62109 7.96135 7.70788 7.62783 7.87432 7.33061C8.41033 6.3743 9.62094 6.03461 10.5762 6.57ZM9.18294 8.06376C9.14215 8.1367 9.12109 8.21773 9.12109 8.30105V15.6991C9.12109 15.9661 9.33852 16.1835 9.60551 16.1835C9.68878 16.1835 9.76844 16.1625 9.83741 16.1238L9.84074 16.122L16.4767 12.4454C16.4766 12.4455 16.4768 12.4454 16.4767 12.4454C16.7103 12.3156 16.7953 12.0204 16.6653 11.7857M9.18294 8.06376C9.31339 7.83134 9.60922 7.74755 9.8428 7.87848L16.4765 11.596C16.4768 11.5962 16.4772 11.5965 16.4776 11.5967C16.5575 11.6422 16.6218 11.7076 16.6653 11.7857" fill="black"/>
<path fill-rule="evenodd" clip-rule="evenodd" d="M15.2071 9.18767C15.5176 9.46176 15.5472 9.93572 15.2731 10.2463L9.27131 17.0467C8.99722 17.3572 8.52327 17.3868 8.21271 17.1127C7.90215 16.8386 7.87258 16.3647 8.14667 16.0541L14.1485 9.25371C14.4226 8.94315 14.8965 8.91358 15.2071 9.18767Z" fill="black"/>
<path fill-rule="evenodd" clip-rule="evenodd" d="M8.22782 6.87306C8.53955 6.6003 9.01337 6.63189 9.28613 6.94362L15.2752 13.7885C15.548 14.1002 15.5164 14.574 15.2047 14.8468C14.8929 15.1195 14.4191 15.0879 14.1463 14.7762L8.15725 7.93137C7.88449 7.61964 7.91609 7.14582 8.22782 6.87306Z" fill="black"/>
</svg>