<svg width="24" height="24" viewBox="0 0 24 24" fill="none" xmlns="http://www.w3.org/2000/svg">
<path opacity="0.4" d="M3.31448 12.8829C3.96186 11.7616 5.39565 11.3774 6.51695 12.0248L11.1309 14.6886L16.625 5.17258C17.2723 4.05128 18.7061 3.6671 19.8274 4.31448C20.9487 4.96186 21.3329 6.39565 20.6855 7.51695L14.0416 19.0246C14.0344 19.0376 14.0271 19.0506 14.0196 19.0635C13.3722 20.1848 11.9384 20.5689 10.8171 19.9216L4.17258 16.0853C3.05128 15.4379 2.6671 14.0041 3.31448 12.8829Z" stroke="black" stroke-width="1.5" stroke-linecap="round" stroke-linejoin="round"/>
<path d="M5.33639 16.3995C6.62678 16.3995 7.67284 15.3534 7.67284 14.063C7.67284 12.7726 6.62677 11.7266 5.33638 11.7266C4.046 11.7266 3 12.7726 3 14.063C3 15.3534 4.046 16.3995 5.33639 16.3995Z" stroke="black" stroke-width="1.5" stroke-linecap="round" stroke-linejoin="round"/>
</svg>