<svg width="24" height="24" viewBox="0 0 24 24" fill="none" xmlns="http://www.w3.org/2000/svg">
<path fill-rule="evenodd" clip-rule="evenodd" d="M3.7402 3.89737C4.72468 2.84117 6.12669 2.25 7.78216 2.25H16.2169C17.8762 2.25 19.2788 2.84084 20.2629 3.89765C21.2413 4.94841 21.75 6.39889 21.75 8.02638V15.9736C21.75 17.6011 21.2413 19.0516 20.2627 20.1024C19.2785 21.1592 17.8756 21.75 16.2159 21.75H7.78216C6.1228 21.75 4.72038 21.1591 3.73657 20.1023C2.75842 19.0515 2.25 17.601 2.25 15.9736V8.02638C2.25 6.39806 2.76117 4.94771 3.7402 3.89737ZM4.83745 4.92012C4.16024 5.64666 3.75 6.70951 3.75 8.02638V15.9736C3.75 17.2914 4.15861 18.3541 4.83451 19.0802C5.50475 19.8003 6.49341 20.25 7.78216 20.25H16.2159C17.5052 20.25 18.4944 19.8002 19.165 19.0801C19.8412 18.354 20.25 17.2913 20.25 15.9736V8.02638C20.25 6.70868 19.8412 5.64597 19.1651 4.91984C18.4946 4.19975 17.5056 3.75 16.2169 3.75H7.78216C6.49828 3.75 5.50921 4.19943 4.83745 4.92012Z" fill="black"/>
<path fill-rule="evenodd" clip-rule="evenodd" d="M5.75 11.2344C5.75 9.30157 7.31719 7.73438 9.25 7.73438C11.1828 7.73438 12.75 9.30157 12.75 11.2344V12.0008C12.75 12.415 12.4142 12.7508 12 12.7508H6.5C6.08579 12.7508 5.75 12.415 5.75 12.0008V11.2344ZM9.25 9.23438C8.14562 9.23438 7.25 10.13 7.25 11.2344V11.2508H11.25V11.2344C11.25 10.13 10.3544 9.23438 9.25 9.23438Z" fill="black"/>
<path fill-rule="evenodd" clip-rule="evenodd" d="M11.4697 11.4696C11.6104 11.329 11.8012 11.25 12.0001 11.25L17.5001 11.2506C17.9143 11.2506 18.25 11.5864 18.25 12.0006V12.767C18.25 14.6998 16.6828 16.267 14.75 16.267C12.8172 16.267 11.25 14.6998 11.25 12.767V12C11.25 11.8011 11.329 11.6103 11.4697 11.4696ZM12.75 12.7501V12.767C12.75 13.8714 13.6456 14.767 14.75 14.767C15.8544 14.767 16.75 13.8714 16.75 12.767V12.7505L12.75 12.7501Z" fill="black"/>
<path fill-rule="evenodd" clip-rule="evenodd" d="M7.73242 14.75C7.73242 12.8172 9.29961 11.25 11.2324 11.25H11.9989C12.4131 11.25 12.7489 11.5858 12.7489 12V17.5C12.7489 17.9142 12.4131 18.25 11.9989 18.25H11.2324C9.29961 18.25 7.73242 16.6828 7.73242 14.75ZM11.2324 12.75C10.128 12.75 9.23242 13.6456 9.23242 14.75C9.23242 15.8544 10.128 16.75 11.2324 16.75H11.2489V12.75H11.2324Z" fill="black"/>
<path fill-rule="evenodd" clip-rule="evenodd" d="M11.25 6.5C11.25 6.08579 11.5858 5.75 12 5.75H12.7664C14.6992 5.75 16.2664 7.31719 16.2664 9.25C16.2664 11.1828 14.6992 12.75 12.7664 12.75H12C11.5858 12.75 11.25 12.4142 11.25 12V6.5ZM12.75 7.25V11.25H12.7664C13.8708 11.25 14.7664 10.3544 14.7664 9.25C14.7664 8.14562 13.8708 7.25 12.7664 7.25H12.75Z" fill="black"/>
</svg>