<svg width="24" height="24" viewBox="0 0 24 24" fill="none" xmlns="http://www.w3.org/2000/svg">
<path fill-rule="evenodd" clip-rule="evenodd" d="M14.2383 2.34375C14.6525 2.34375 14.9883 2.67954 14.9883 3.09375V6.55566C14.9883 6.96988 15.3241 7.30566 15.7383 7.30566H19.2002C19.6144 7.30566 19.9502 7.64145 19.9502 8.05566C19.9502 8.46988 19.6144 8.80566 19.2002 8.80566H15.7383C14.4956 8.80566 13.4883 7.7983 13.4883 6.55566V3.09375C13.4883 2.67954 13.8241 2.34375 14.2383 2.34375Z" fill="black"/>
<path fill-rule="evenodd" clip-rule="evenodd" d="M6.79874 3.75C6.10891 3.75 5.5498 4.30912 5.5498 5V19C5.5498 19.6904 6.10945 20.25 6.7998 20.25H17.1998C17.8911 20.25 18.4498 19.6913 18.4498 19.0019V8.35197C18.4498 8.02238 18.3195 7.70871 18.0837 7.47292L14.7269 4.11612C14.4916 3.8808 14.1764 3.75 13.8462 3.75H6.79874ZM4.0498 5C4.0498 3.48174 5.27944 2.25 6.79874 2.25H13.8462C14.5768 2.25 15.2727 2.54062 15.7875 3.05546L19.1443 6.41226C19.6587 6.92662 19.9498 7.62069 19.9498 8.35197V19.0019C19.9498 20.5216 18.7176 21.75 17.1998 21.75H6.7998C5.28102 21.75 4.0498 20.5188 4.0498 19V5Z" fill="black"/>
<path fill-rule="evenodd" clip-rule="evenodd" d="M7.22266 12.0313C7.22266 11.0648 8.00616 10.2812 8.97266 10.2812H15.0269C15.9934 10.2812 16.7769 11.0648 16.7769 12.0312V16.665C16.7769 17.6315 15.9934 18.415 15.0269 18.415H8.97266C8.00616 18.415 7.22266 17.6315 7.22266 16.665V12.0313ZM8.97266 11.7812C8.83459 11.7812 8.72266 11.8932 8.72266 12.0313V16.665C8.72266 16.8031 8.83459 16.915 8.97266 16.915H15.0269C15.1649 16.915 15.2769 16.8031 15.2769 16.665V12.0312C15.2769 11.8932 15.1649 11.7812 15.0269 11.7812H8.97266Z" fill="black"/>
<path fill-rule="evenodd" clip-rule="evenodd" d="M7.22266 15.3359C7.22266 14.9217 7.55844 14.5859 7.97266 14.5859H16.0269C16.4411 14.5859 16.7769 14.9217 16.7769 15.3359C16.7769 15.7502 16.4411 16.0859 16.0269 16.0859H7.97266C7.55844 16.0859 7.22266 15.7502 7.22266 15.3359Z" fill="black"/>
</svg>