<svg width="24" height="24" viewBox="0 0 24 24" fill="none" xmlns="http://www.w3.org/2000/svg">
<path opacity="0.4" d="M7.78216 3H16.2169C19.165 3 21 5.08119 21 8.02638V15.9736C21 18.9188 19.165 21 16.2159 21H7.78216C4.83405 21 3 18.9188 3 15.9736V8.02638C3 5.08119 4.84281 3 7.78216 3Z" stroke="black" stroke-width="1.5" stroke-linecap="round" stroke-linejoin="round"/>
<path d="M7.96777 15.6991V8.30104C7.96777 8.08949 8.02172 7.88217 8.12538 7.69706C8.45858 7.10259 9.21171 6.89104 9.80618 7.22423L16.4426 10.9434C16.6426 11.0565 16.8065 11.2215 16.9176 11.4215C17.2487 12.018 17.0339 12.7701 16.4373 13.1012L9.80089 16.778C9.6179 16.8806 9.41163 16.9335 9.20219 16.9335C8.52099 16.9335 7.96777 16.3803 7.96777 15.6991Z" stroke="black" stroke-width="1.5" stroke-linecap="round" stroke-linejoin="round"/>
<path d="M14.3075 9.75L8.30566 16.5504" stroke="black" stroke-width="1.5" stroke-linecap="round" stroke-linejoin="round"/>
<path d="M8.31836 7.4375L14.3075 14.2823" stroke="black" stroke-width="1.5" stroke-linecap="round" stroke-linejoin="round"/>
</svg>