<svg width="25" height="24" viewBox="0 0 25 24" fill="none" xmlns="http://www.w3.org/2000/svg">
<path d="M14.6694 12.6692C14.6696 12.6561 14.6697 12.643 14.6697 12.6298C14.6697 11.486 13.7425 10.5588 12.5987 10.5588H5.82098C4.67721 10.5588 3.75 11.486 3.75 12.6298C3.75 13.7736 4.67721 14.7008 5.82098 14.7008H10.5274L10.5274 19.4076C10.5274 20.5514 11.4546 21.4786 12.5984 21.4786C13.7421 21.4786 14.6694 20.5514 14.6694 19.4076V16.0384" stroke="black" stroke-width="1.5" stroke-linecap="round" stroke-linejoin="round"/>
<path d="M5.82031 14.7006C6.96408 14.7006 7.89129 13.7733 7.89129 12.6296C7.89129 11.4858 6.96408 10.5586 5.82031 10.5586" stroke="black" stroke-width="1.5" stroke-linecap="round" stroke-linejoin="round"/>
<path d="M21.2006 12.3273C21.2006 13.471 20.2734 14.3982 19.1296 14.3982C17.9859 14.3982 17.0586 13.471 17.0586 12.3273V7.62048H12.3522C11.2085 7.62048 10.2812 6.69327 10.2812 5.5495C10.2812 4.40573 11.2085 3.47852 12.3522 3.47852H19.13C20.2738 3.47852 21.201 4.40573 21.201 5.5495C21.201 5.56266 21.2009 5.57579 21.2006 5.58889V8.95808" stroke="black" stroke-width="1.5" stroke-linecap="round" stroke-linejoin="round"/>
</svg>