<svg width="24" height="24" viewBox="0 0 24 24" fill="none" xmlns="http://www.w3.org/2000/svg">
<path fill-rule="evenodd" clip-rule="evenodd" d="M6.91211 9.37109C7.32632 9.37109 7.66211 9.70688 7.66211 10.1211L7.66211 20.4309C7.66211 20.8451 7.32632 21.1809 6.91211 21.1809C6.4979 21.1809 6.16211 20.8451 6.16211 20.4309L6.16211 10.1211C6.16211 9.70688 6.4979 9.37109 6.91211 9.37109Z" fill="black"/>
<path fill-rule="evenodd" clip-rule="evenodd" d="M17.0879 9.35938C17.5021 9.35938 17.8379 9.69516 17.8379 10.1094V20.4303C17.8379 20.8445 17.5021 21.1803 17.0879 21.1803C16.6737 21.1803 16.3379 20.8445 16.3379 20.4303V10.1094C16.3379 9.69516 16.6737 9.35938 17.0879 9.35938Z" fill="black"/>
<path fill-rule="evenodd" clip-rule="evenodd" d="M19.2765 3.57041C19.4965 3.92137 19.3903 4.38423 19.0394 4.60423L18.6429 4.85276L12.2885 9.14202C12.0349 9.31318 11.7028 9.31318 11.4493 9.14202L5.10556 4.85998L4.8514 4.71259C4.49309 4.50478 4.37107 4.04585 4.57887 3.68754C4.78668 3.32922 5.24561 3.20721 5.60392 3.41501L5.88021 3.57524C5.89497 3.5838 5.90942 3.59285 5.92356 3.60239L11.8689 7.61551L17.8142 3.60239C17.8212 3.59766 17.8283 3.59305 17.8355 3.58856L18.2427 3.33329C18.5936 3.11329 19.0565 3.21945 19.2765 3.57041Z" fill="black"/>
<path fill-rule="evenodd" clip-rule="evenodd" d="M21.5511 6.94C21.7827 7.28339 21.6921 7.74954 21.3487 7.98117L13.3623 13.3681C12.4836 13.9608 11.3332 13.9608 10.4545 13.3681L2.65099 8.10455C2.3076 7.87293 2.21699 7.40678 2.44861 7.06338C2.68024 6.71998 3.14638 6.62937 3.48978 6.86099L11.2933 12.1245C11.665 12.3753 12.1518 12.3753 12.5235 12.1245L20.5099 6.73761C20.8533 6.50599 21.3195 6.5966 21.5511 6.94Z" fill="black"/>
<path fill-rule="evenodd" clip-rule="evenodd" d="M3.67236 4.29588C4.61326 3.28644 5.95235 2.72266 7.53047 2.72266H16.4686C18.0504 2.72266 19.3901 3.28612 20.3305 4.29616C21.2654 5.30016 21.75 6.6845 21.75 8.23449V15.7635C21.75 17.3134 21.2654 18.6978 20.3304 19.7018C19.3898 20.7119 18.0498 21.2753 16.4677 21.2753H7.53047C5.94869 21.2753 4.60919 20.7118 3.66891 19.7017C2.73428 18.6977 2.25 17.3133 2.25 15.7635V8.23449C2.25 6.68367 2.73692 5.29946 3.67236 4.29588ZM4.76962 5.31863C4.13599 5.99842 3.75 6.99513 3.75 8.23449V15.7635C3.75 17.0038 4.13448 18.0003 4.76685 18.6797C5.39357 19.3529 6.3193 19.7753 7.53047 19.7753H16.4677C17.6794 19.7753 18.6056 19.3529 19.2327 18.6796C19.8654 18.0002 20.25 17.0036 20.25 15.7635V8.23449C20.25 6.99429 19.8654 5.99772 19.2328 5.31835C18.6058 4.64502 17.6798 4.22266 16.4686 4.22266H7.53047C6.32394 4.22266 5.39779 4.6447 4.76962 5.31863Z" fill="black"/>
</svg>