<svg width="24" height="24" viewBox="0 0 24 24" fill="none" xmlns="http://www.w3.org/2000/svg">
<path fill-rule="evenodd" clip-rule="evenodd" d="M12.9144 10.7488C13.0308 10.8621 13.2163 10.8622 13.3328 10.7489L15.9902 8.16476C16.1341 8.02488 16.1027 7.78595 15.9277 7.68792L7.29355 2.8534C6.65255 2.4934 5.91155 2.4054 5.20055 2.6034C5.17608 2.6103 5.1518 2.61759 5.12768 2.62523C4.9299 2.68796 4.89 2.93769 5.03868 3.08242L12.9144 10.7488Z" fill="black"/>
<path fill-rule="evenodd" clip-rule="evenodd" d="M13.332 13.2487C13.2156 13.1354 13.0301 13.1354 12.9136 13.2486L5.03541 20.909C4.88713 21.0532 4.92652 21.3007 5.12299 21.3653C5.38247 21.4507 5.65794 21.4992 5.94684 21.4992C6.40184 21.4992 6.86184 21.3822 7.28184 21.1562L15.9597 16.3459C16.1356 16.2484 16.1676 16.0088 16.0235 15.8685L13.332 13.2487Z" fill="black"/>
<g opacity="0.4">
<path fill-rule="evenodd" clip-rule="evenodd" d="M3.88706 4.05481C3.75042 3.92181 3.52493 3.9484 3.44482 4.12143C3.2821 4.47288 3.19482 4.85355 3.19482 5.24865V18.7487C3.19482 19.1483 3.28456 19.5265 3.44072 19.8685C3.52015 20.0424 3.7463 20.0698 3.8834 19.9364L11.8267 12.2126C11.9478 12.0949 11.9479 11.9004 11.8268 11.7826L3.88706 4.05481Z" fill="black"/>
<path fill-rule="evenodd" clip-rule="evenodd" d="M20.4602 10.7089C20.2172 10.2669 19.8532 9.89589 19.3982 9.63189L17.8245 8.75081C17.7082 8.68567 17.5632 8.70478 17.4681 8.79821C16.9664 9.2909 15.4007 10.8281 14.4201 11.7839C14.2991 11.9018 14.299 12.096 14.4199 12.214C15.4121 13.1817 17.003 14.7443 17.5086 15.241C17.6034 15.3342 17.748 15.3537 17.8642 15.2892L19.3852 14.4459C20.0282 14.0919 20.4942 13.5059 20.6972 12.7969C20.9002 12.0889 20.8152 11.3459 20.4602 10.7089Z" fill="black"/>
</g>
</svg>