<svg width="24" height="24" viewBox="0 0 24 24" fill="none" xmlns="http://www.w3.org/2000/svg">
<path fill-rule="evenodd" clip-rule="evenodd" d="M14.2383 2.34375C14.6525 2.34375 14.9883 2.67954 14.9883 3.09375V6.55566C14.9883 6.96988 15.3241 7.30566 15.7383 7.30566H19.2002C19.6144 7.30566 19.9502 7.64145 19.9502 8.05566C19.9502 8.46988 19.6144 8.80566 19.2002 8.80566H15.7383C14.4956 8.80566 13.4883 7.7983 13.4883 6.55566V3.09375C13.4883 2.67954 13.8241 2.34375 14.2383 2.34375Z" fill="black"/>
<path fill-rule="evenodd" clip-rule="evenodd" d="M6.79874 3.75C6.10891 3.75 5.5498 4.30912 5.5498 5V19C5.5498 19.6904 6.10945 20.25 6.7998 20.25H17.1998C17.8911 20.25 18.4498 19.6913 18.4498 19.0019V8.35197C18.4498 8.02238 18.3195 7.70871 18.0837 7.47292L14.7269 4.11612C14.4916 3.8808 14.1764 3.75 13.8462 3.75H6.79874ZM4.0498 5C4.0498 3.48174 5.27944 2.25 6.79874 2.25H13.8462C14.5768 2.25 15.2727 2.54062 15.7875 3.05546L19.1443 6.41226C19.6587 6.92662 19.9498 7.62069 19.9498 8.35197V19.0019C19.9498 20.5216 18.7176 21.75 17.1998 21.75H6.7998C5.28102 21.75 4.0498 20.5188 4.0498 19V5Z" fill="black"/>
<path fill-rule="evenodd" clip-rule="evenodd" d="M7.98535 11.3672C7.98535 10.953 8.32114 10.6172 8.73535 10.6172H15.2646C15.6789 10.6172 16.0146 10.953 16.0146 11.3672C16.0146 11.7814 15.6789 12.1172 15.2646 12.1172H8.73535C8.32114 12.1172 7.98535 11.7814 7.98535 11.3672ZM7.98535 14.0672C7.98535 13.653 8.32114 13.3172 8.73535 13.3172H15.2646C15.6789 13.3172 16.0146 13.653 16.0146 14.0672C16.0146 14.4814 15.6789 14.8172 15.2646 14.8172H8.73535C8.32114 14.8172 7.98535 14.4814 7.98535 14.0672ZM7.98535 16.7672C7.98535 16.353 8.32114 16.0172 8.73535 16.0172H12.1394C12.5536 16.0172 12.8894 16.353 12.8894 16.7672C12.8894 17.1814 12.5536 17.5172 12.1394 17.5172H8.73535C8.32114 17.5172 7.98535 17.1814 7.98535 16.7672Z" fill="black"/>
</svg>