<svg width="24" height="24" viewBox="0 0 24 24" fill="none" xmlns="http://www.w3.org/2000/svg">
<path fill-rule="evenodd" clip-rule="evenodd" d="M2.25 18.7794C2.25 17.1991 3.53109 15.918 5.11139 15.918C6.6917 15.918 7.97279 17.1991 7.97279 18.7794C7.97279 20.3597 6.6917 21.6408 5.11139 21.6408C3.53109 21.6408 2.25 20.3597 2.25 18.7794ZM5.11139 17.418C4.35952 17.418 3.75 18.0275 3.75 18.7794C3.75 19.5312 4.35952 20.1408 5.11139 20.1408C5.86327 20.1408 6.47279 19.5312 6.47279 18.7794C6.47279 18.0275 5.86327 17.418 5.11139 17.418Z" fill="black"/>
<path fill-rule="evenodd" clip-rule="evenodd" d="M16.0273 6.11139C16.0273 4.53109 17.3084 3.25 18.8887 3.25C20.469 3.25 21.7501 4.53109 21.7501 6.11139V18.7798C21.7501 20.3601 20.469 21.6412 18.8887 21.6412C17.3084 21.6412 16.0273 20.3601 16.0273 18.7798V6.11139ZM18.8887 4.75C18.1369 4.75 17.5273 5.35952 17.5273 6.11139V18.7798C17.5273 19.5316 18.1369 20.1412 18.8887 20.1412C19.6406 20.1412 20.2501 19.5316 20.2501 18.7798V6.11139C20.2501 5.35952 19.6406 4.75 18.8887 4.75Z" fill="black"/>
<path fill-rule="evenodd" clip-rule="evenodd" d="M8.94727 12.252C8.94727 10.6717 10.2284 9.39062 11.8087 9.39062C13.389 9.39062 14.6701 10.6717 14.6701 12.252V18.7781C14.6701 20.3584 13.389 21.6395 11.8087 21.6395C10.2284 21.6395 8.94727 20.3585 8.94727 18.7781V12.252ZM11.8087 10.8906C11.0568 10.8906 10.4473 11.5001 10.4473 12.252V18.7781C10.4473 19.53 11.0568 20.1395 11.8087 20.1395C12.5605 20.1395 13.1701 19.53 13.1701 18.7781V12.252C13.1701 11.5001 12.5605 10.8906 11.8087 10.8906Z" fill="black"/>
</svg>