<svg width="24" height="24" viewBox="0 0 24 24" fill="none" xmlns="http://www.w3.org/2000/svg">
<path d="M6.32558 20.0394L9.07909 14.6871M9.07909 14.6871L12.0642 8.90085M9.07909 14.6871L15.0493 14.6874M12.0642 8.90085L15.0493 14.6874M12.0642 8.90085L9.51434 3.96474M15.0493 14.6874H21M10.3379 3.64648L13.6596 3.64453C14.2755 3.64356 14.8457 3.96756 15.1609 4.49686L20.7545 13.8977C21.0814 14.4474 21.0814 15.1324 20.7545 15.6821L18.4797 19.5049C18.1654 20.0342 17.5953 20.3582 16.9804 20.3582H7.02494C6.41002 20.3582 5.84083 20.0342 5.52559 19.5069L3.24592 15.6831C2.91803 15.1324 2.91803 14.4474 3.24592 13.8967L8.83953 4.4988C9.1538 3.97048 9.72298 3.64648 10.3379 3.64648Z" stroke="black" stroke-width="1.5" stroke-linecap="round" stroke-linejoin="round"/>
</svg>