<svg width="24" height="24" viewBox="0 0 24 24" fill="none" xmlns="http://www.w3.org/2000/svg">
<path opacity="0.4" fill-rule="evenodd" clip-rule="evenodd" d="M20.8379 13.7094C20.9459 13.1594 20.9999 12.5794 20.9999 11.9994C20.9999 11.6074 20.9739 11.2254 20.9239 10.8524C20.8869 10.5784 20.6429 10.3794 20.3669 10.3794H12.5619C12.2519 10.3794 11.9999 10.6314 11.9999 10.9414V13.1474C11.9999 13.4574 12.2519 13.7094 12.5619 13.7094H16.8369C17.0129 13.7094 17.1419 13.8894 17.0759 14.0524C16.1409 16.3624 13.6859 17.8784 10.9439 17.3714C8.83793 16.9824 7.11193 15.3124 6.65993 13.2194C5.89293 9.66735 8.57693 6.52935 11.9999 6.52935C13.1219 6.52935 14.1619 6.86635 15.0289 7.44335C15.2609 7.59735 15.5639 7.58235 15.7599 7.38335L17.4619 5.65035C17.6939 5.41335 17.6799 5.01935 17.4159 4.81835C15.9749 3.72235 14.1929 3.05635 12.2549 3.00335C7.38293 2.86835 3.16393 6.82635 3.00493 11.6974C2.83793 16.8054 6.93193 20.9994 11.9999 20.9994C16.3829 20.9994 20.0369 17.8594 20.8379 13.7094Z" fill="black"/>
</svg>