<svg width="24" height="24" viewBox="0 0 24 24" fill="none" xmlns="http://www.w3.org/2000/svg">
<path fill-rule="evenodd" clip-rule="evenodd" d="M17.3652 4.25L6.63699 4.2501C5.81895 4.2501 5.15625 4.91228 5.15625 5.73083C5.15625 6.54866 5.81915 7.21156 6.63698 7.21156L17.3651 7.21146C18.1829 7.21146 18.8459 6.54852 18.8459 5.73073C18.8459 4.91295 18.1829 4.25 17.3652 4.25ZM6.63698 2.7501L17.3651 2.75C19.0114 2.75 20.3459 4.08452 20.3459 5.73073C20.3459 7.37694 19.0114 8.71146 17.3651 8.71146L6.63698 8.71156C4.99072 8.71156 3.65625 7.37709 3.65625 5.73083C3.65625 4.08345 4.99093 2.7501 6.63698 2.7501C6.63698 2.7501 6.63698 2.7501 6.63698 2.7501Z" fill="black"/>
<path fill-rule="evenodd" clip-rule="evenodd" d="M17.3628 4.25C16.5448 4.25 15.8818 4.91299 15.8818 5.73073C15.8818 6.54848 16.5448 7.21146 17.3628 7.21146C18.1806 7.21146 18.8435 6.54856 18.8435 5.73073C18.8435 4.91218 18.1808 4.25 17.3628 4.25ZM14.3818 5.73073C14.3818 4.08438 15.7166 2.75 17.3628 2.75C19.0088 2.75 20.3435 4.08335 20.3435 5.73073C20.3435 7.37699 19.009 8.71146 17.3628 8.71146C15.7166 8.71146 14.3818 7.37708 14.3818 5.73073Z" fill="black"/>
<path fill-rule="evenodd" clip-rule="evenodd" d="M17.3626 11.2734C16.5447 11.2734 15.8818 11.9363 15.8818 12.7542V18.2694C15.8818 19.0873 16.5447 19.7502 17.3626 19.7502C18.1804 19.7502 18.8433 19.0873 18.8433 18.2694V12.7542C18.8433 11.9363 18.1804 11.2734 17.3626 11.2734ZM14.3818 12.7542C14.3818 11.1079 15.7163 9.77344 17.3626 9.77344C19.0088 9.77344 20.3433 11.1079 20.3433 12.7542V18.2694C20.3433 19.9157 19.0088 21.2502 17.3626 21.2502C15.7163 21.2502 14.3818 19.9157 14.3818 18.2694V12.7542Z" fill="black"/>
<path fill-rule="evenodd" clip-rule="evenodd" d="M3.6543 12.7542C3.6543 11.108 4.98882 9.77344 6.63503 9.77344H10.4589C12.1061 9.77344 13.4396 11.107 13.4396 12.7542C13.4396 14.4002 12.1063 15.7349 10.4589 15.7349H6.63503C4.98877 15.7349 3.6543 14.4004 3.6543 12.7542ZM6.63503 11.2734C5.81724 11.2734 5.1543 11.9364 5.1543 12.7542C5.1543 13.572 5.81719 14.2349 6.63503 14.2349H10.4589C11.2774 14.2349 11.9396 13.5722 11.9396 12.7542C11.9396 11.9354 11.2776 11.2734 10.4589 11.2734H6.63503Z" fill="black"/>
<path fill-rule="evenodd" clip-rule="evenodd" d="M6.63503 11.2734C5.81719 11.2734 5.1543 11.9363 5.1543 12.7542V18.2694C5.1543 19.0873 5.8172 19.7502 6.63503 19.7502C7.45358 19.7502 8.11576 19.0875 8.11576 18.2694V12.7542C8.11576 11.9361 7.45358 11.2734 6.63503 11.2734ZM3.6543 12.7542C3.6543 11.1079 4.98877 9.77344 6.63503 9.77344C8.28241 9.77344 9.61576 11.1081 9.61576 12.7542V18.2694C9.61576 19.9155 8.28241 21.2502 6.63503 21.2502C4.98877 21.2502 3.6543 19.9157 3.6543 18.2694V12.7542Z" fill="black"/>
</svg>