<svg width="24" height="24" viewBox="0 0 24 24" fill="none" xmlns="http://www.w3.org/2000/svg">
<path fill-rule="evenodd" clip-rule="evenodd" d="M2.25 10.7461C2.25 7.84691 4.60081 5.49609 7.5 5.49609C10.3992 5.49609 12.75 7.84691 12.75 10.7461V12.0003C12.75 12.4145 12.4142 12.7503 12 12.7503H3C2.58579 12.7503 2.25 12.4145 2.25 12.0003V10.7461ZM7.5 6.99609C5.42924 6.99609 3.75 8.67533 3.75 10.7461V11.2503H11.25V10.7461C11.25 8.67533 9.57076 6.99609 7.5 6.99609Z" fill="black"/>
<path fill-rule="evenodd" clip-rule="evenodd" d="M11.4697 11.4696C11.6104 11.329 11.8012 11.25 12.0001 11.25L21.0001 11.2509C21.4143 11.251 21.75 11.5868 21.75 12.0009V13.2551C21.75 16.1543 19.3992 18.5051 16.5 18.5051C13.6008 18.5051 11.25 16.1543 11.25 13.2551V12C11.25 11.8011 11.329 11.6103 11.4697 11.4696ZM12.75 12.7501V13.2551C12.75 15.3259 14.4292 17.0051 16.5 17.0051C18.5708 17.0051 20.25 15.3259 20.25 13.2551V12.7509L12.75 12.7501Z" fill="black"/>
<path fill-rule="evenodd" clip-rule="evenodd" d="M5.49414 16.5C5.49414 13.6008 7.84495 11.25 10.7441 11.25H11.9983C12.4125 11.25 12.7483 11.5858 12.7483 12V21C12.7483 21.4142 12.4125 21.75 11.9983 21.75H10.7441C7.84495 21.75 5.49414 19.3992 5.49414 16.5ZM10.7441 12.75C8.67338 12.75 6.99414 14.4292 6.99414 16.5C6.99414 18.5708 8.67338 20.25 10.7441 20.25H11.2483V12.75H10.7441Z" fill="black"/>
<path fill-rule="evenodd" clip-rule="evenodd" d="M11.25 3C11.25 2.58579 11.5858 2.25 12 2.25H13.2542C16.1533 2.25 18.5042 4.60081 18.5042 7.5C18.5042 10.3992 16.1533 12.75 13.2542 12.75H12C11.5858 12.75 11.25 12.4142 11.25 12V3ZM12.75 3.75V11.25H13.2542C15.3249 11.25 17.0042 9.57076 17.0042 7.5C17.0042 5.42924 15.3249 3.75 13.2542 3.75H12.75Z" fill="black"/>
</svg>