<svg width="24" height="24" viewBox="0 0 24 24" fill="none" xmlns="http://www.w3.org/2000/svg">
<path d="M12 21C16.9709 21 21 16.9709 21 12C21 7.02908 16.9709 3 12 3C7.02908 3 3 7.02908 3 12C3 16.9709 7.02908 21 12 21Z" stroke="black" stroke-width="1.5" stroke-linecap="round" stroke-linejoin="round"/>
<path d="M8.37109 15.6991V8.30104C8.37109 8.08949 8.42504 7.88217 8.5287 7.69706C8.8619 7.10259 9.61503 6.89104 10.2095 7.22423L16.846 10.9434C17.0459 11.0565 17.2098 11.2215 17.3209 11.4215C17.652 12.018 17.4372 12.7701 16.8407 13.1012L10.2042 16.778C10.0212 16.8806 9.81495 16.9335 9.60551 16.9335C8.92431 16.9335 8.37109 16.3803 8.37109 15.6991Z" stroke="black" stroke-width="1.5" stroke-linecap="round" stroke-linejoin="round"/>
<path d="M14.7108 9.75L8.70898 16.5504" stroke="black" stroke-width="1.5" stroke-linecap="round" stroke-linejoin="round"/>
<path d="M8.72168 7.4375L14.7108 14.2823" stroke="black" stroke-width="1.5" stroke-linecap="round" stroke-linejoin="round"/>
</svg>