<svg width="24" height="25" viewBox="0 0 24 25" fill="none" xmlns="http://www.w3.org/2000/svg">
<path fill-rule="evenodd" clip-rule="evenodd" d="M3.88694 4.56407C3.7503 4.43107 3.52481 4.45765 3.4447 4.63069C3.28198 4.98214 3.1947 5.36281 3.1947 5.75791V19.2579C3.1947 19.6576 3.28444 20.0358 3.44059 20.3777C3.52003 20.5517 3.74618 20.579 3.88328 20.4457L11.8266 12.7219C11.9477 12.6041 11.9478 12.4096 11.8267 12.2918L3.88694 4.56407Z" fill="black"/>
<path fill-rule="evenodd" clip-rule="evenodd" d="M12.9144 11.2576C13.0308 11.3709 13.2163 11.371 13.3328 11.2577L15.9902 8.67355C16.1341 8.53367 16.1027 8.29474 15.9276 8.19671L7.29352 3.36218C6.65252 3.00218 5.91152 2.91418 5.20052 3.11218C5.17605 3.11909 5.15177 3.12638 5.12766 3.13402C4.92987 3.19675 4.88997 3.44648 5.03865 3.59121L12.9144 11.2576Z" fill="black"/>
<path fill-rule="evenodd" clip-rule="evenodd" d="M13.332 13.7575C13.2155 13.6442 13.03 13.6442 12.9136 13.7574L5.03538 21.4178C4.8871 21.562 4.92649 21.8095 5.12296 21.8741C5.38244 21.9595 5.65791 22.008 5.94681 22.008C6.40181 22.008 6.86181 21.891 7.28181 21.665L15.9597 16.8547C16.1356 16.7572 16.1676 16.5176 16.0235 16.3773L13.332 13.7575Z" fill="black"/>
<path fill-rule="evenodd" clip-rule="evenodd" d="M20.4601 11.2181C20.2171 10.7761 19.8531 10.4051 19.3981 10.1411L17.8244 9.26007C17.7081 9.19493 17.5631 9.21403 17.4679 9.30747C16.9663 9.80015 15.4006 11.3373 14.4199 12.2931C14.299 12.411 14.2989 12.6053 14.4198 12.7232C15.4119 13.691 17.0029 15.2535 17.5085 15.7503C17.6033 15.8434 17.7478 15.8629 17.8641 15.7985L19.3851 14.9551C20.0281 14.6011 20.4941 14.0151 20.6971 13.3061C20.9001 12.5981 20.8151 11.8551 20.4601 11.2181Z" fill="black"/>
</svg>