<svg width="24" height="24" viewBox="0 0 24 24" fill="none" xmlns="http://www.w3.org/2000/svg">
<path fill-rule="evenodd" clip-rule="evenodd" d="M3.7402 3.89737C4.72468 2.84117 6.12669 2.25 7.78216 2.25H16.2169C17.8762 2.25 19.2788 2.84084 20.2629 3.89765C21.2413 4.94841 21.75 6.39889 21.75 8.02638V15.9736C21.75 17.6011 21.2413 19.0516 20.2627 20.1024C19.2785 21.1592 17.8756 21.75 16.2159 21.75H7.78216C6.1228 21.75 4.72038 21.1591 3.73657 20.1023C2.75842 19.0515 2.25 17.601 2.25 15.9736V8.02638C2.25 6.39806 2.76117 4.94771 3.7402 3.89737ZM4.83745 4.92012C4.16024 5.64666 3.75 6.70951 3.75 8.02638V15.9736C3.75 17.2914 4.15861 18.3541 4.83451 19.0802C5.50475 19.8003 6.49341 20.25 7.78216 20.25H16.2159C17.5052 20.25 18.4944 19.8002 19.165 19.0801C19.8412 18.354 20.25 17.2913 20.25 15.9736V8.02638C20.25 6.70868 19.8412 5.64597 19.1651 4.91984C18.4946 4.19975 17.5056 3.75 16.2169 3.75H7.78216C6.49828 3.75 5.50921 4.19943 4.83745 4.92012Z" fill="black"/>
<path fill-rule="evenodd" clip-rule="evenodd" d="M6.58008 11.9974C6.58008 9.00483 9.00678 6.57812 11.9994 6.57812C13.3189 6.57812 14.5297 7.05069 15.4692 7.83545C15.7871 8.10099 15.8295 8.57397 15.5639 8.89186C15.2984 9.20976 14.8254 9.25219 14.5075 8.98664C13.828 8.41897 12.9547 8.07812 11.9994 8.07812C9.83521 8.07812 8.08008 9.83326 8.08008 11.9974C8.08008 14.1627 9.83531 15.9177 11.9994 15.9177C13.908 15.9177 15.498 14.5538 15.848 12.7474H12.5832C12.1689 12.7474 11.8332 12.4116 11.8332 11.9974C11.8332 11.5832 12.1689 11.2474 12.5832 11.2474H16.6696C17.0839 11.2474 17.4196 11.5832 17.4196 11.9974C17.4196 14.991 14.9929 17.4177 11.9994 17.4177C9.00668 17.4177 6.58008 14.9909 6.58008 11.9974Z" fill="black"/>
</svg>