<svg width="24" height="24" viewBox="0 0 24 24" fill="none" xmlns="http://www.w3.org/2000/svg">
<path d="M13.6596 3.64453L10.3379 3.64648C9.72298 3.64648 9.1538 3.97048 8.83953 4.4988L3.24592 13.8967C2.91803 14.4474 2.91803 15.1324 3.24592 15.6831L5.52559 19.5069C5.84083 20.0342 6.41002 20.3582 7.02494 20.3582H16.9804C17.5953 20.3582 18.1654 20.0342 18.4797 19.5049L20.7545 15.6821C21.0814 15.1324 21.0814 14.4474 20.7545 13.8977L15.1609 4.49686C14.8457 3.96756 14.2755 3.64356 13.6596 3.64453Z" stroke="black" stroke-width="1.5" stroke-linecap="round" stroke-linejoin="round"/>
<path opacity="0.4" d="M6.3252 20.0395L9.0787 14.6872M9.0787 14.6872L12.0638 8.90096M9.0787 14.6872L15.0489 14.6875M12.0638 8.90096L15.0489 14.6875M12.0638 8.90096L9.51395 3.96484M15.0489 14.6875H20.9996" stroke="black" stroke-width="1.5" stroke-linecap="round" stroke-linejoin="round"/>
</svg>