<svg width="24" height="25" viewBox="0 0 24 25" fill="none" xmlns="http://www.w3.org/2000/svg">
<path fill-rule="evenodd" clip-rule="evenodd" d="M19.1508 2.76074H12.3708C10.8208 2.76074 9.55078 4.03074 9.55078 5.58074C9.55078 7.14074 10.8208 8.40074 12.3708 8.40074H16.3308V12.3607C16.3308 13.9207 17.5908 15.1807 19.1508 15.1807C20.7108 15.1807 21.9708 13.9207 21.9708 12.3607V5.58074C21.9708 4.03074 20.7108 2.76074 19.1508 2.76074Z" fill="black"/>
<path fill-rule="evenodd" clip-rule="evenodd" d="M12.5593 9.8374H7.43933C8.20933 10.5374 8.68933 11.5474 8.68933 12.6674C8.68933 13.7774 8.21933 14.7774 7.45933 15.4774H9.73933V19.4374C9.73933 20.9974 10.9993 22.2574 12.5593 22.2574C14.1193 22.2574 15.3793 20.9974 15.3793 19.4374V12.6574C15.3793 11.1074 14.1193 9.8374 12.5593 9.8374Z" fill="black"/>
<path fill-rule="evenodd" clip-rule="evenodd" d="M5.3193 9.87765C5.1693 9.84765 5.0193 9.83765 4.8593 9.83765C3.2993 9.83765 2.0293 11.1076 2.0293 12.6676C2.0293 14.2276 3.2993 15.4976 4.8593 15.4976C5.0393 15.4976 5.2193 15.4776 5.3793 15.4476C6.6993 15.2076 7.6893 14.0476 7.6893 12.6676C7.6893 11.2676 6.6693 10.0976 5.3193 9.87765Z" fill="black"/>
</svg>