<svg width="24" height="24" viewBox="0 0 24 24" fill="none" xmlns="http://www.w3.org/2000/svg">
<path fill-rule="evenodd" clip-rule="evenodd" d="M13.9185 6.88493C14.8588 5.94461 16.3834 5.94461 17.3237 6.88493C18.264 7.82524 18.264 9.3498 17.3237 10.2901L10.2901 17.3237C9.3498 18.264 7.82524 18.264 6.88493 17.3237C5.94461 16.3834 5.94461 14.8588 6.88493 13.9185L13.9185 6.88493ZM16.2631 7.94559C15.9085 7.59105 15.3337 7.59105 14.9792 7.94559L7.94559 14.9792C7.59105 15.3337 7.59105 15.9085 7.94559 16.2631C8.30012 16.6176 8.87493 16.6176 9.22946 16.2631L16.2631 9.22946C16.6176 8.87493 16.6176 8.30012 16.2631 7.94559Z" fill="black"/>
<path fill-rule="evenodd" clip-rule="evenodd" d="M10.4201 10.3849C11.3604 9.44461 12.885 9.44461 13.8253 10.3849C14.7656 11.3252 14.7656 12.8498 13.8253 13.7901C12.885 14.7304 11.3604 14.7304 10.4201 13.7901C9.47976 12.8498 9.47977 11.3252 10.4201 10.3849ZM12.7646 11.4456C12.4101 11.0911 11.8353 11.0911 11.4807 11.4456C11.1262 11.8001 11.1262 12.3749 11.4807 12.7295C11.8353 13.084 12.4101 13.084 12.7646 12.7295C13.1191 12.3749 13.1191 11.8001 12.7646 11.4456Z" fill="black"/>
<path fill-rule="evenodd" clip-rule="evenodd" d="M9.98884 2.95524C10.9292 2.01492 12.4537 2.01492 13.394 2.95524C14.3343 3.89556 14.3344 5.42011 13.394 6.36043L6.36043 13.394C5.42011 14.3343 3.89556 14.3343 2.95524 13.394C2.01492 12.4537 2.01492 10.9292 2.95524 9.98884L9.98884 2.95524ZM12.3334 4.0159C11.9788 3.66137 11.404 3.66137 11.0495 4.0159L4.0159 11.0495C3.66137 11.404 3.66137 11.9788 4.0159 12.3334C4.37043 12.6879 4.94524 12.6879 5.29977 12.3334L12.3334 5.29977C12.6879 4.94524 12.6879 4.37043 12.3334 4.0159Z" fill="black"/>
<path fill-rule="evenodd" clip-rule="evenodd" d="M9.98844 2.95524C10.9288 2.01492 12.4533 2.01492 13.3936 2.95524C14.334 3.89556 14.334 5.42011 13.3936 6.36043C12.4533 7.30075 10.9288 7.30075 9.98844 6.36043C9.04812 5.42011 9.04812 3.89556 9.98844 2.95524ZM12.333 4.0159C11.9784 3.66137 11.4036 3.66137 11.0491 4.0159C10.6946 4.37043 10.6946 4.94524 11.0491 5.29977C11.4036 5.6543 11.9784 5.6543 12.333 5.29977C12.6875 4.94524 12.6875 4.37043 12.333 4.0159Z" fill="black"/>
<path fill-rule="evenodd" clip-rule="evenodd" d="M17.6392 10.6037C18.5795 9.66336 20.1041 9.66336 21.0444 10.6037C21.9847 11.544 21.9847 13.0685 21.0444 14.0089L14.0108 21.0425C13.0705 21.9828 11.5459 21.9828 10.6056 21.0425C9.66531 20.1022 9.66531 18.5776 10.6056 17.6373L17.6392 10.6037ZM19.9838 11.6643C19.6292 11.3098 19.0544 11.3098 18.6999 11.6643L11.6663 18.6979C11.3118 19.0525 11.3118 19.6273 11.6663 19.9818C12.0208 20.3363 12.5956 20.3363 12.9502 19.9818L19.9838 12.9482C20.3383 12.5937 20.3383 12.0189 19.9838 11.6643Z" fill="black"/>
<path fill-rule="evenodd" clip-rule="evenodd" d="M10.6056 17.6388C11.5459 16.6985 13.0705 16.6985 14.0108 17.6388C14.9511 18.5792 14.9511 20.1037 14.0108 21.044C13.0705 21.9843 11.5459 21.9843 10.6056 21.044C9.66531 20.1037 9.66531 18.5791 10.6056 17.6388ZM12.9502 18.6995C12.5956 18.345 12.0208 18.345 11.6663 18.6995C11.3118 19.054 11.3118 19.6288 11.6663 19.9834C12.0208 20.3379 12.5956 20.3379 12.9502 19.9834C13.3047 19.6288 13.3047 19.054 12.9502 18.6995Z" fill="black"/>
</svg>