<svg width="24" height="24" viewBox="0 0 24 24" fill="none" xmlns="http://www.w3.org/2000/svg">
<path fill-rule="evenodd" clip-rule="evenodd" d="M8.4248 17.9336C8.4248 17.5194 8.76059 17.1836 9.1748 17.1836H14.8253C15.2395 17.1836 15.5753 17.5194 15.5753 17.9336C15.5753 18.3478 15.2395 18.6836 14.8253 18.6836H9.1748C8.76059 18.6836 8.4248 18.3478 8.4248 17.9336Z" fill="black"/>
<path fill-rule="evenodd" clip-rule="evenodd" d="M9.27246 9.16406C9.27246 8.74985 9.60825 8.41406 10.0225 8.41406H13.9795C14.3937 8.41406 14.7295 8.74985 14.7295 9.16406C14.7295 9.57828 14.3937 9.91406 13.9795 9.91406H10.0225C9.60825 9.91406 9.27246 9.57828 9.27246 9.16406Z" fill="black"/>
<path fill-rule="evenodd" clip-rule="evenodd" d="M13.4746 6.36523C13.4746 5.95102 13.8104 5.61523 14.2246 5.61523H15.3371C15.7581 5.61523 16.1484 5.83517 16.3665 6.19522L15.725 6.58379L16.3665 6.19522L16.8583 7.00711L18.9795 7.00752C19.3938 7.0076 19.7295 7.34345 19.7294 7.75767C19.7293 8.17188 19.3935 8.5076 18.9792 8.50752L16.691 8.50708C16.2702 8.507 15.8799 8.28707 15.6619 7.9271L15.1701 7.11523H14.2246C13.8104 7.11523 13.4746 6.77945 13.4746 6.36523Z" fill="black"/>
<path fill-rule="evenodd" clip-rule="evenodd" d="M7.63435 6.19522C7.85245 5.83517 8.24281 5.61523 8.66376 5.61523H9.77627C10.1905 5.61523 10.5263 5.95102 10.5263 6.36523C10.5263 6.77945 10.1905 7.11523 9.77627 7.11523H8.83079L8.33902 7.9271C8.12096 8.28707 7.73071 8.507 7.30984 8.50708L5.02163 8.50752C4.60742 8.5076 4.27156 8.17188 4.27148 7.75767C4.2714 7.34345 4.60713 7.0076 5.02134 7.00752L7.14255 7.00711L7.63435 6.19522Z" fill="black"/>
<path fill-rule="evenodd" clip-rule="evenodd" d="M5.8623 11.0156C5.8623 10.6014 6.19809 10.2656 6.6123 10.2656H8.53814C8.98428 10.2656 9.39382 10.5124 9.60226 10.9069L10.2991 12.2256H13.7023L14.3991 10.9069C14.6075 10.5124 15.017 10.2656 15.4632 10.2656H17.389C17.8032 10.2656 18.139 10.6014 18.139 11.0156C18.139 11.4298 17.8032 11.7656 17.389 11.7656H15.6418L14.945 13.0843C14.7366 13.4788 14.3271 13.7256 13.8809 13.7256H10.1204C9.67426 13.7256 9.26472 13.4788 9.05628 13.0843L8.35949 11.7656H6.6123C6.19809 11.7656 5.8623 11.4298 5.8623 11.0156ZM15.725 11.6082C15.7251 11.608 15.7252 11.6078 15.7253 11.6077L15.4632 11.4692L15.7253 11.6077L15.725 11.6082ZM13.619 12.3832C13.6189 12.3833 13.6189 12.3834 13.6188 12.3835L13.8809 12.522L13.6188 12.3835L13.619 12.3832Z" fill="black"/>
<path fill-rule="evenodd" clip-rule="evenodd" d="M15.1394 4.25L8.86061 4.25C8.1716 4.25 7.51908 4.63303 7.15996 5.28105L4.02058 10.946C3.65981 11.597 3.65981 12.403 4.02058 13.054L7.15997 18.7189C7.51908 19.367 8.1716 19.75 8.86061 19.75H15.1394C15.8284 19.75 16.4809 19.367 16.84 18.7189L19.9794 13.054C20.3402 12.403 20.3402 11.597 19.9794 10.946L16.84 5.28105C16.4809 4.63303 15.8284 4.25 15.1394 4.25ZM8.86061 2.75L15.1394 2.75C16.3948 2.75 17.539 3.44768 18.152 4.55397L21.2914 10.2189C21.9029 11.3223 21.9029 12.6777 21.2914 13.7811L18.152 19.446C17.539 20.5523 16.3948 21.25 15.1394 21.25H8.86061C7.60523 21.25 6.46104 20.5523 5.84796 19.446L2.70857 13.7811C2.09714 12.6777 2.09714 11.3223 2.70857 10.2189L5.84796 4.55397C6.46104 3.44768 7.60523 2.75 8.86061 2.75Z" fill="black"/>
<path fill-rule="evenodd" clip-rule="evenodd" d="M12.001 2.78906C12.4152 2.78906 12.751 3.12485 12.751 3.53906V20.4604C12.751 20.8746 12.4152 21.2104 12.001 21.2104C11.5868 21.2104 11.251 20.8746 11.251 20.4604V3.53906C11.251 3.12485 11.5868 2.78906 12.001 2.78906Z" fill="black"/>
<path fill-rule="evenodd" clip-rule="evenodd" d="M17.6178 15.0801H20.0579C20.4721 15.0801 20.8079 14.7443 20.8079 14.3301C20.8079 13.9159 20.4721 13.5801 20.0579 13.5801H17.4508C17.0298 13.5801 16.6394 13.8 16.4214 14.1601L16.9884 14.5035L16.4214 14.1601L15.9296 14.9719H14.9841C14.5699 14.9719 14.2341 15.3077 14.2341 15.7219C14.2341 16.1361 14.5699 16.4719 14.9841 16.4719H16.0966C16.5176 16.4719 16.908 16.2519 17.126 15.8919L16.4846 15.5033L17.1261 15.8919L17.6178 15.0801Z" fill="black"/>
<path fill-rule="evenodd" clip-rule="evenodd" d="M6.38221 15.0801H3.94209C3.52787 15.0801 3.19209 14.7443 3.19209 14.3301C3.19209 13.9159 3.52787 13.5801 3.94209 13.5801H6.54924C6.97019 13.5801 7.36055 13.8 7.57865 14.1601L7.01165 14.5035L7.57865 14.1601L8.07039 14.9719H9.01587C9.43008 14.9719 9.76587 15.3077 9.76587 15.7219C9.76587 16.1361 9.43008 16.4719 9.01587 16.4719H7.90336C7.48241 16.4719 7.09205 16.2519 6.87395 15.8919L7.51544 15.5033L6.87395 15.8919L6.38221 15.0801Z" fill="black"/>
</svg>