<svg width="24" height="24" viewBox="0 0 24 24" fill="none" xmlns="http://www.w3.org/2000/svg">
<path fill-rule="evenodd" clip-rule="evenodd" d="M12.7546 3.10842C14.0065 1.92057 15.9845 1.97152 17.1728 3.22381C18.3607 4.47581 18.3094 6.45456 17.0577 7.6436L11.2469 13.1576C9.99405 14.3477 8.01511 14.2928 6.82681 13.0418C5.64027 11.79 5.69064 9.81164 6.94287 8.62342C6.94286 8.62342 6.94288 8.62341 6.94287 8.62342L12.7546 3.10842ZM13.7871 4.19653C13.7871 4.19654 13.7871 4.19653 13.7871 4.19653L7.97539 9.71149C7.32455 10.3291 7.29752 11.3576 7.91461 12.009C8.53417 12.661 9.56357 12.6877 10.2138 12.0701L16.0246 6.55605C16.6758 5.93722 16.7025 4.90739 16.0846 4.25629C15.467 3.60539 14.4385 3.57851 13.7871 4.19653Z" fill="black"/>
<path fill-rule="evenodd" clip-rule="evenodd" d="M11.7598 5.39951C11.7598 3.67272 13.159 2.27344 14.8858 2.27344C16.613 2.27344 18.0109 3.67312 18.0109 5.39951V18.6246C18.0109 20.351 16.613 21.7506 14.8858 21.7506C13.159 21.7506 11.7598 20.3514 11.7598 18.6246V5.39951ZM14.8858 3.77344C13.9875 3.77344 13.2598 4.50114 13.2598 5.39951V18.6246C13.2598 19.5229 13.9875 20.2506 14.8858 20.2506C15.7838 20.2506 16.5109 19.5233 16.5109 18.6246V5.39951C16.5109 4.50074 15.7838 3.77344 14.8858 3.77344Z" fill="black"/>
</svg>