<svg width="24" height="24" viewBox="0 0 24 24" fill="none" xmlns="http://www.w3.org/2000/svg">
<path fill-rule="evenodd" clip-rule="evenodd" d="M12 3.75C7.44621 3.75 3.75 7.44621 3.75 12C3.75 16.5538 7.44621 20.25 12 20.25C16.0158 20.25 19.3669 17.3717 20.1016 13.5678L20.1021 13.5651C20.2002 13.0673 20.25 12.539 20.25 12C20.25 11.7047 20.2334 11.4147 20.2019 11.13H12.75V12.96H17.202C17.4426 12.96 17.6686 13.0754 17.8096 13.2703C17.9506 13.4652 17.9896 13.716 17.9144 13.9445C17.0962 16.4303 14.7635 18.222 12 18.222C8.56179 18.222 5.778 15.4382 5.778 12C5.778 8.56179 8.56179 5.778 12 5.778C13.2271 5.778 14.3709 6.1335 15.3343 6.74943L16.7774 5.27547C15.4328 4.31296 13.7855 3.75 12 3.75ZM2.25 12C2.25 6.61779 6.61779 2.25 12 2.25C14.4464 2.25 16.6811 3.14744 18.3891 4.64085C18.5444 4.77661 18.6369 4.97031 18.6449 5.1764C18.6529 5.38249 18.5757 5.58278 18.4314 5.73015L15.9559 8.25868C15.6855 8.53489 15.2495 8.56034 14.9487 8.31746C14.1418 7.66566 13.1189 7.278 12 7.278C9.39021 7.278 7.278 9.39021 7.278 12C7.278 14.6098 9.39021 16.722 12 16.722C13.7104 16.722 15.2043 15.8186 16.0342 14.46H12C11.5858 14.46 11.25 14.1242 11.25 13.71V10.38C11.25 9.96579 11.5858 9.63 12 9.63H20.8475C21.208 9.63 21.5176 9.88658 21.5845 10.2409C21.6913 10.8067 21.75 11.3933 21.75 12C21.75 12.6297 21.6919 13.2549 21.5741 13.8537C20.7053 18.348 16.7488 21.75 12 21.75C6.61779 21.75 2.25 17.3822 2.25 12Z" fill="black"/>
<path fill-rule="evenodd" clip-rule="evenodd" d="M5.15435 5.06821C5.44891 4.777 5.92378 4.77971 6.21499 5.07427L8.68762 7.57532C8.97884 7.86989 8.97612 8.34475 8.68156 8.63597C8.387 8.92718 7.91213 8.92447 7.62092 8.62991L5.14829 6.12885C4.85707 5.83429 4.85979 5.35943 5.15435 5.06821Z" fill="black"/>
<path fill-rule="evenodd" clip-rule="evenodd" d="M8.31214 14.9667C8.6067 15.2579 8.6094 15.7327 8.31818 16.0273L5.83607 18.5378C5.54485 18.8324 5.06999 18.8351 4.77543 18.5439C4.48088 18.2526 4.47817 17.7778 4.76939 17.4832L7.2515 14.9727C7.54272 14.6781 8.01759 14.6754 8.31214 14.9667Z" fill="black"/>
<path fill-rule="evenodd" clip-rule="evenodd" d="M15.3204 15.3573C15.6149 15.0661 16.0898 15.0688 16.381 15.3633L18.8631 17.8738C19.1543 18.1684 19.1516 18.6433 18.8571 18.9345C18.5625 19.2257 18.0876 19.223 17.7964 18.9285L15.3143 16.4179C15.0231 16.1234 15.0258 15.6485 15.3204 15.3573Z" fill="black"/>
</svg>