<svg width="25" height="24" viewBox="0 0 25 24" fill="none" xmlns="http://www.w3.org/2000/svg">
<path fill-rule="evenodd" clip-rule="evenodd" d="M18.183 4.17383H6.31703C3.81757 4.17383 2.25 5.94356 2.25 8.44842V15.5511C2.25 18.0549 3.81 19.8246 6.31703 19.8246H18.1819C20.69 19.8246 22.25 18.0549 22.25 15.5511V8.44842C22.25 5.94356 20.69 4.17383 18.183 4.17383Z" stroke="black" stroke-width="1.5" stroke-linecap="round" stroke-linejoin="round"/>
<path d="M17.0294 14.7386H18.1915C18.9472 14.7386 19.5613 14.1256 19.5613 13.3689C19.5613 12.6132 18.9472 12.0002 18.1915 12.0002H17.9958C17.2402 12.0002 16.6272 11.3861 16.6272 10.6305C16.6272 9.8748 17.2402 9.26074 17.9958 9.26074H19.1591" stroke="black" stroke-width="1.5" stroke-linecap="round" stroke-linejoin="round"/>
<path d="M11.6792 12.5472H13.0295C13.9376 12.5472 14.6727 11.8121 14.6727 10.904C14.6727 9.99696 13.9376 9.26074 13.0295 9.26074H11.6792V14.7386" stroke="black" stroke-width="1.5" stroke-linecap="round" stroke-linejoin="round"/>
<path d="M8.80491 9.54369C8.47734 9.38153 8.1141 9.28315 7.72815 9.26369C6.29572 9.19234 5.10977 10.4269 5.05031 11.8594C4.98437 13.4356 6.03085 14.7372 7.58977 14.7372C8.50328 14.7372 9.1541 14.4118 9.1541 13.4983V11.9988H7.58977" stroke="black" stroke-width="1.5" stroke-linecap="round" stroke-linejoin="round"/>
</svg>