<svg width="25" height="24" viewBox="0 0 25 24" fill="none" xmlns="http://www.w3.org/2000/svg">
<path fill-rule="evenodd" clip-rule="evenodd" d="M2.5763 8.90576C2.39417 8.53271 2.54944 8.0835 2.92151 7.90186L10.8385 4.03467C11.7526 3.5874 12.8214 3.5874 13.7355 4.03467L20.7555 7.46436C22.4152 8.2749 22.4152 10.6401 20.7555 11.4507L18.0895 12.7534V16.6987C18.0895 17.9097 17.3824 19.0718 16.2086 19.5386C13.5626 20.5913 10.8903 20.5757 8.23255 19.5327C7.05139 19.0698 6.33655 17.9038 6.33655 16.6851V13.1069C6.33655 12.1382 7.35022 11.5073 8.21839 11.9312L11.4972 13.5327C11.9952 13.7769 12.5782 13.7769 13.0773 13.5327L20.0973 10.103C20.6344 9.83936 20.6344 9.07373 20.0973 8.81201L13.0773 5.38232C12.5782 5.13818 11.9952 5.13818 11.4962 5.38232L3.57923 9.24951C3.20716 9.43311 2.75842 9.27881 2.5763 8.90576ZM16.5895 13.4858L13.7355 14.8804C12.8214 15.3276 11.7526 15.3276 10.8385 14.8804L7.83655 13.4136V16.6851C7.83655 17.3394 8.22034 17.9175 8.7804 18.1362C11.0924 19.0444 13.3702 19.0522 15.6544 18.144C16.2096 17.9233 16.5895 17.3491 16.5895 16.6987V13.4858Z" fill="black"/>
<path d="M3.70032 17.2593C3.28626 17.2593 2.95032 16.9233 2.95032 16.5093V12.4312C2.95032 11.1851 3.85852 10.1245 5.09046 9.93115L8.84143 9.34326C9.15393 9.29443 9.45081 9.44482 9.60266 9.70068C9.65003 9.78076 9.68323 9.87061 9.69837 9.96826C9.76233 10.3784 9.48352 10.7612 9.07337 10.8257L5.32239 11.4136C4.82044 11.4917 4.45032 11.9233 4.45032 12.4312V16.5093C4.45032 16.7554 4.33264 16.9722 4.15051 17.1089C4.02503 17.2026 3.86926 17.2593 3.70032 17.2593Z" fill="black"/>
</svg>