<svg width="24" height="24" viewBox="0 0 24 24" fill="none" xmlns="http://www.w3.org/2000/svg">
<path d="M21.7449 9.40012C21.7449 10.4401 21.1649 11.3701 20.2349 11.8301L13.6849 15.0201C13.1449 15.2801 12.5749 15.4101 11.9949 15.4101C11.4063 15.4101 10.8296 15.2825 10.3049 15.0201L6.14488 12.9901C6.12384 12.9831 6.10771 12.9712 6.0896 12.9578C6.0819 12.9521 6.07384 12.9461 6.06488 12.9401L4.69489 12.2701C4.63491 12.3901 4.60492 12.5301 4.60492 12.6701V16.7501C4.60492 17.1701 4.26492 17.5001 3.85492 17.5001C3.44492 17.5001 3.10492 17.1701 3.10492 16.7501V12.6701C3.10492 12.2801 3.19492 11.9101 3.35492 11.5701C3.48492 11.6601 3.62492 11.7501 3.77492 11.8201L4.69489 12.2701C4.8249 11.9601 5.1149 11.7201 5.47488 11.6601L9.22488 11.0701C9.63488 11.0001 9.91488 10.6201 9.85488 10.2101C9.78488 9.80012 9.39488 9.52012 8.99488 9.58012L5.24488 10.1701C4.39488 10.3101 3.70492 10.8501 3.35492 11.5701C2.66492 11.0701 2.25488 10.2701 2.25488 9.39012C2.25488 8.35012 2.83488 7.42012 3.77488 6.96012L10.3049 3.76012C11.3849 3.24012 12.6149 3.24012 13.6849 3.76012L20.2249 6.96012C21.1649 7.42012 21.7449 8.36012 21.7449 9.40012Z" fill="black"/>
<path d="M17.4237 14.5896C17.623 14.4928 17.8549 14.6379 17.8549 14.8594V17.31C17.8549 18.37 17.2349 19.32 16.2649 19.73C14.8449 20.33 13.4049 20.63 11.9549 20.63C10.5049 20.63 9.04491 20.33 7.58491 19.73C6.61491 19.32 5.97491 18.36 5.97491 17.29V14.7708C5.97491 14.5489 6.20748 14.4038 6.40679 14.5014L9.75491 16.14C10.4242 16.5416 11.2254 16.67 11.9949 16.67C12.7649 16.67 13.5249 16.49 14.2349 16.14L17.4237 14.5896Z" fill="black"/>
</svg>