<svg width="24" height="24" viewBox="0 0 24 24" fill="none" xmlns="http://www.w3.org/2000/svg">
<path d="M3 8.56515L10.9172 4.69656C11.6236 4.35115 12.4496 4.35115 13.156 4.69656L20.1761 8.12731C21.2746 8.66342 21.2746 10.229 20.1761 10.7651L13.156 14.1958C12.4496 14.5412 11.6236 14.5412 10.9172 14.1958L7.6392 12.5943C7.26849 12.4133 6.83648 12.6828 6.83648 13.0954V16.674C6.83648 17.61 7.38525 18.4818 8.25607 18.8233C10.7411 19.7983 13.2164 19.8109 15.6809 18.8302C16.5459 18.4867 17.0888 17.6178 17.0888 16.6867V12.2839" stroke="black" stroke-width="1.5" stroke-linecap="round" stroke-linejoin="round"/>
<path d="M3.45117 16.4949V12.4172C3.45117 11.5405 4.08945 10.7942 4.95638 10.658L8.70822 10.0703" stroke="black" stroke-width="1.5" stroke-linecap="round" stroke-linejoin="round"/>
</svg>