<svg width="25" height="24" viewBox="0 0 25 24" fill="none" xmlns="http://www.w3.org/2000/svg">
<path fill-rule="evenodd" clip-rule="evenodd" d="M17.391 14.963C17.254 15.068 17.092 15.12 16.932 15.12C16.707 15.12 16.487 15.021 16.338 14.83L13.951 11.755L11.222 13.891C11.066 14.014 10.867 14.069 10.666 14.044C10.468 14.019 10.288 13.916 10.166 13.758L7.254 9.978C7.001 9.65 7.062 9.178 7.39 8.926C7.72 8.671 8.191 8.735 8.442 9.062L10.893 12.243L13.62 10.109C13.775 9.987 13.976 9.931 14.173 9.956C14.371 9.981 14.551 10.083 14.674 10.24L17.524 13.91C17.778 14.237 17.718 14.708 17.391 14.963ZM16.717 2.5H8.284C5.123 2.5 3 4.723 3 8.03V15.97C3 19.277 5.123 21.5 8.284 21.5H16.718C19.877 21.5 22 19.277 22 15.97V8.03C22 4.723 19.877 2.5 16.717 2.5Z" fill="black"/>
</svg>