<svg width="25" height="24" viewBox="0 0 25 24" fill="none" xmlns="http://www.w3.org/2000/svg">
<path d="M18.4765 13.4959C18.4765 15.0295 18.0217 16.5286 17.1697 17.8037C16.3177 19.0788 15.1068 20.0727 13.6899 20.6595C12.2731 21.2464 10.7141 21.4 9.20999 21.1008C7.7059 20.8016 6.3243 20.0631 5.23991 18.9787C4.15552 17.8943 3.41704 16.5127 3.11786 15.0086C2.81868 13.5045 2.97223 11.9455 3.5591 10.5287C4.14596 9.11186 5.13979 7.90088 6.4149 7.04888C7.69001 6.19688 9.18913 5.74213 10.7227 5.74213L10.7227 13.4959H18.4765Z" stroke="black" stroke-width="1.5" stroke-linecap="square"/>
<path d="M13.7774 2.75006C15.8338 2.75006 17.806 3.56698 19.2601 5.0211C20.7143 6.47522 21.5312 8.44744 21.5312 10.5039L13.7774 10.5039L13.7774 2.75006Z" stroke="black" stroke-width="1.5" stroke-linecap="square"/>
</svg>