<svg width="24" height="24" viewBox="0 0 24 24" fill="none" xmlns="http://www.w3.org/2000/svg">
<path fill-rule="evenodd" clip-rule="evenodd" d="M13.6019 10.7746C13.6019 9.54064 12.5989 8.53564 11.3649 8.53564C10.1319 8.53564 9.12891 9.54064 9.12891 10.7746C9.12891 12.0036 10.1319 13.0046 11.3649 13.0046C12.5989 13.0046 13.6019 12.0036 13.6019 10.7746Z" fill="black"/>
<path fill-rule="evenodd" clip-rule="evenodd" d="M16.0711 7.93488L16.0611 7.94488C15.9151 8.09088 15.7231 8.16388 15.5311 8.16388C15.3391 8.16388 15.1471 8.09088 15.0011 7.94488C14.7081 7.65188 14.7081 7.17688 15.0011 6.88388C15.2931 6.59088 15.7731 6.58488 16.0661 6.87888C16.3591 7.17188 16.3641 7.64188 16.0711 7.93488ZM15.0011 15.7439L12.5011 17.8929C12.3591 18.0149 12.1851 18.0749 12.0121 18.0749C11.8011 18.0749 11.5921 17.9859 11.4431 17.8139C11.1731 17.4989 11.2091 17.0259 11.5231 16.7559L14.0231 14.6069C14.3381 14.3359 14.8111 14.3729 15.0811 14.6859C15.3511 14.9999 15.3151 15.4739 15.0011 15.7439ZM7.62912 10.7749C7.62912 8.71288 9.30512 7.03588 11.3651 7.03588C13.4251 7.03588 15.1021 8.71288 15.1021 10.7749C15.1021 12.8309 13.4251 14.5049 11.3651 14.5049C9.30512 14.5049 7.62912 12.8309 7.62912 10.7749ZM12.0011 2.50488C6.76212 2.50488 2.50012 6.76688 2.50012 12.0049C2.50012 17.2439 6.76212 21.5049 12.0011 21.5049C17.2381 21.5049 21.5001 17.2439 21.5001 12.0049C21.5001 6.76688 17.2381 2.50488 12.0011 2.50488Z" fill="black"/>
</svg>