<svg width="25" height="25" viewBox="0 0 25 25" fill="none" xmlns="http://www.w3.org/2000/svg">
<path fill-rule="evenodd" clip-rule="evenodd" d="M4.5 3.36914C4.91421 3.36914 5.25 3.70493 5.25 4.11914V18.1191C5.25 18.8095 5.80964 19.3691 6.5 19.3691H20.5C20.9142 19.3691 21.25 19.7049 21.25 20.1191C21.25 20.5334 20.9142 20.8691 20.5 20.8691H6.5C4.98122 20.8691 3.75 19.6379 3.75 18.1191V4.11914C3.75 3.70493 4.08579 3.36914 4.5 3.36914Z" fill="black"/>
<path fill-rule="evenodd" clip-rule="evenodd" d="M9.24386 12.3887C8.86042 12.3887 8.55078 12.6983 8.55078 13.0818C8.55078 13.4652 8.86042 13.7748 9.24386 13.7748C9.62672 13.7748 9.93694 13.4649 9.93694 13.0818C9.93694 12.6986 9.62672 12.3887 9.24386 12.3887ZM7.05078 13.0818C7.05078 11.8699 8.032 10.8887 9.24386 10.8887C10.4546 10.8887 11.4369 11.8696 11.4369 13.0818C11.4369 14.2939 10.4546 15.2748 9.24386 15.2748C8.032 15.2748 7.05078 14.2936 7.05078 13.0818Z" fill="black"/>
<path fill-rule="evenodd" clip-rule="evenodd" d="M18.0715 12.2256C17.6889 12.2256 17.3784 12.5361 17.3784 12.9187V12.9289C17.3808 13.3077 17.6899 13.6134 18.0682 13.6118L18.0715 13.6117C18.4549 13.6117 18.7646 13.3021 18.7646 12.9187C18.7646 12.5358 18.4546 12.2256 18.0715 12.2256ZM15.8784 12.9187C15.8784 11.7077 16.8605 10.7256 18.0715 10.7256C19.2837 10.7256 20.2646 11.708 20.2646 12.9187C20.2646 14.13 19.2843 15.1108 18.0732 15.1117C16.8661 15.1162 15.8837 14.1408 15.8784 12.9341L15.8784 12.9308H15.8784V12.9187ZM18.0732 15.1117C18.0726 15.1117 18.0721 15.1117 18.0715 15.1117V14.3617L18.0748 15.1117C18.0743 15.1117 18.0737 15.1117 18.0732 15.1117Z" fill="black"/>
<path fill-rule="evenodd" clip-rule="evenodd" d="M13.6916 7.2749C13.3082 7.2749 12.9985 7.58454 12.9985 7.96798C12.9985 8.35085 13.3085 8.66106 13.6916 8.66106C14.0742 8.66106 14.3847 8.35055 14.3847 7.96798C14.3847 7.58484 14.0745 7.2749 13.6916 7.2749ZM11.4985 7.96798C11.4985 6.75612 12.4797 5.7749 13.6916 5.7749C14.9023 5.7749 15.8847 6.75582 15.8847 7.96798C15.8847 9.17898 14.9026 10.1611 13.6916 10.1611C12.4795 10.1611 11.4985 9.17868 11.4985 7.96798Z" fill="black"/>
<path fill-rule="evenodd" clip-rule="evenodd" d="M13.1951 8.44917C13.5136 8.71397 13.5571 9.18684 13.2923 9.50536L10.7967 12.5072C10.5319 12.8257 10.059 12.8693 9.74053 12.6045C9.42201 12.3397 9.37846 11.8668 9.64326 11.5483L12.1389 8.54643C12.4037 8.22792 12.8765 8.18437 13.1951 8.44917Z" fill="black"/>
<path fill-rule="evenodd" clip-rule="evenodd" d="M14.1873 8.45091C14.5029 8.18272 14.9762 8.22121 15.2444 8.53688L17.6617 11.3822C17.9299 11.6978 17.8914 12.1711 17.5758 12.4393C17.2601 12.7075 16.7868 12.669 16.5186 12.3534L14.1013 9.50808C13.8331 9.19241 13.8716 8.71909 14.1873 8.45091Z" fill="black"/>
</svg>