<svg width="24" height="24" viewBox="0 0 24 24" fill="none" xmlns="http://www.w3.org/2000/svg">
<path fill-rule="evenodd" clip-rule="evenodd" d="M8.38086 2.5C8.10472 2.5 7.88086 2.72386 7.88086 3V3.85329C7.88086 4.85503 8.22162 5.71437 8.85243 6.32261C9.48114 6.92882 10.3545 7.24397 11.3455 7.24397H12.1988C12.4749 7.24397 12.6988 7.02011 12.6988 6.74397V5.89068C12.6988 4.88894 12.358 4.0296 11.7272 3.42135C11.0985 2.81515 10.2251 2.5 9.23415 2.5H8.38086Z" fill="black"/>
<path fill-rule="evenodd" clip-rule="evenodd" d="M16.012 4.10542C15.9332 3.69878 15.5396 3.43305 15.133 3.5119C12.5884 4.0053 11.2245 6.27673 11.2245 8.25964C11.2245 8.67385 11.5603 9.00964 11.9745 9.00964C12.3888 9.00964 12.7245 8.67385 12.7245 8.25964C12.7245 6.8781 13.688 5.32002 15.4185 4.98447C15.8251 4.90563 16.0909 4.51206 16.012 4.10542Z" fill="black"/>
<g opacity="0.4">
<path d="M11.9996 12.9268C13.4517 12.9268 14.629 11.7496 14.629 10.2974C14.629 8.84521 13.4517 7.66797 11.9996 7.66797C10.5474 7.66797 9.37012 8.84521 9.37012 10.2974C9.37012 11.7496 10.5474 12.9268 11.9996 12.9268Z" fill="black"/>
<path d="M7.06391 7.70898C5.62608 7.70898 4.45898 8.87517 4.45898 10.3139C4.45898 11.7527 5.62608 12.9188 7.06391 12.9188L7.0655 12.9188L7.11194 12.9187C7.75404 12.9123 8.43111 12.6258 8.89079 12.1803C9.0463 12.0296 9.09227 11.7983 9.00624 11.5996C8.83493 11.2039 8.7385 10.7686 8.7385 10.3139C8.7385 9.85908 8.83501 9.42359 9.00645 9.02773C9.09226 8.82959 9.04687 8.59906 8.89236 8.44824C8.42481 7.99187 7.77681 7.70898 7.06391 7.70898Z" fill="black"/>
<path d="M16.9363 7.70898C16.2216 7.70898 15.5764 7.99366 15.1101 8.45573C14.958 8.6064 14.9137 8.83478 14.9983 9.0314C15.1681 9.42584 15.2597 9.85783 15.2597 10.3139C15.2597 10.7686 15.1633 11.2033 14.9965 11.5981C14.9134 11.7946 14.9586 12.0218 15.1105 12.1715C15.5373 12.5923 16.1112 12.8671 16.7495 12.9085L16.7983 12.912C16.8437 12.9153 16.8892 12.9187 16.9349 12.9188L16.9363 12.9188C18.3742 12.9188 19.5412 11.7527 19.5412 10.3139C19.5412 8.87517 18.3742 7.70898 16.9363 7.70898Z" fill="black"/>
<path d="M14.132 12.7838C14.3274 12.6168 14.6155 12.6174 14.8103 12.7852C15.2394 13.1552 15.7678 13.4159 16.352 13.5195C16.4982 13.5454 16.6264 13.6326 16.7044 13.759C16.9445 14.1488 17.0796 14.6049 17.0796 15.0966C17.0796 16.5254 15.9379 17.6786 14.496 17.7013L14.4783 17.7013C14.4733 17.7012 14.4684 17.7012 14.4635 17.7013L14.4462 17.7015C13.5338 17.6959 12.7373 17.2259 12.2833 16.5174L12.2788 16.5104C12.2744 16.5032 12.2697 16.4962 12.2648 16.4894L12.2583 16.4806C11.9922 16.1009 11.8577 15.5833 11.8577 15.0966C11.8577 14.6249 11.9891 14.1531 12.229 13.7606C12.3069 13.6334 12.4356 13.5456 12.5825 13.5196C13.1684 13.4159 13.6986 13.1543 14.132 12.7838Z" fill="black"/>
<path d="M9.8712 12.7877C9.67648 12.6219 9.39019 12.6221 9.19568 12.7881C8.7645 13.1561 8.23251 13.4152 7.64951 13.519C7.50348 13.545 7.37546 13.632 7.2976 13.7583C7.05711 14.1482 6.9219 14.6045 6.9219 15.0965C6.9219 16.4353 7.94855 17.5428 9.26417 17.6897C9.35545 17.6985 9.44726 17.7015 9.53893 17.7015C10.245 17.7015 10.8838 17.423 11.3488 16.9698C11.5034 16.8191 11.549 16.5886 11.4634 16.3905C11.2832 15.9733 11.2025 15.5146 11.2025 15.0966C11.2025 14.7584 11.2567 14.4135 11.3645 14.0834C11.4078 13.9509 11.3962 13.8065 11.3321 13.6827C11.2681 13.5588 11.1571 13.4658 11.024 13.4245C10.5953 13.2915 10.2049 13.0717 9.8712 12.7877Z" fill="black"/>
<path d="M11.6606 17.572C11.856 17.4037 12.1451 17.4037 12.3405 17.572C12.7889 17.9585 13.3454 18.2237 13.959 18.3183C14.1627 18.3497 14.3287 18.4983 14.3824 18.6973C14.4415 18.9165 14.4731 19.1472 14.4731 19.3858C14.4731 20.8246 13.307 21.9907 11.8682 21.9907C10.4275 21.9907 9.25227 20.8227 9.25227 19.3858C9.25227 19.1638 9.27992 18.9471 9.33084 18.7409C9.38468 18.523 9.5722 18.3641 9.79606 18.3467C10.5072 18.2916 11.1532 18.0094 11.6606 17.572Z" fill="black"/>
</g>
</svg>