<svg width="25" height="24" viewBox="0 0 25 24" fill="none" xmlns="http://www.w3.org/2000/svg">
<path d="M18.4764 13.4961C18.4764 15.0296 18.0216 16.5287 17.1696 17.8039C16.3176 19.079 15.1066 20.0728 13.6898 20.6597C12.273 21.2465 10.714 21.4001 9.20987 21.1009C7.70578 20.8017 6.32418 20.0632 5.23979 18.9788C4.1554 17.8944 3.41692 16.5129 3.11774 15.0088C2.81855 13.5047 2.97211 11.9456 3.55897 10.5288C4.14584 9.11198 5.13967 7.901 6.41478 7.049C7.68988 6.197 9.189 5.74225 10.7226 5.74225L10.7226 13.4961H18.4764Z" stroke="black" stroke-width="1.5" stroke-linecap="square"/>
<path opacity="0.4" d="M13.7773 2.75018C15.8337 2.75018 17.8059 3.5671 19.26 5.02122C20.7141 6.47535 21.5311 8.44756 21.5311 10.504L13.7773 10.504L13.7773 2.75018Z" stroke="black" stroke-width="1.5" stroke-linecap="square"/>
</svg>