<svg width="25" height="24" viewBox="0 0 25 24" fill="none" xmlns="http://www.w3.org/2000/svg">
<path fill-rule="evenodd" clip-rule="evenodd" d="M11.2232 5.24146H10.7232C9.08523 5.24146 7.49923 5.72245 6.13723 6.63245C4.77523 7.54245 3.72423 8.82345 3.09723 10.3365C2.47023 11.8495 2.30823 13.4995 2.62823 15.1055C2.94723 16.7135 3.72823 18.1745 4.88723 19.3315C6.04423 20.4895 7.50523 21.2705 9.11223 21.5905C9.64823 21.6975 10.1882 21.7505 10.7272 21.7505C11.8032 21.7505 12.8722 21.5385 13.8812 21.1205C15.3942 20.4935 16.6762 19.4435 17.5852 18.0815C18.4952 16.7195 18.9762 15.1345 18.9762 13.4955V12.9955H11.2232V5.24146Z" fill="black"/>
<path opacity="0.4" fill-rule="evenodd" clip-rule="evenodd" d="M19.6138 4.66676C18.0558 3.10776 15.9828 2.24976 13.7778 2.24976H13.2778V11.0028H22.0318V10.5028C22.0318 8.29876 21.1728 6.22676 19.6138 4.66676Z" fill="black"/>
</svg>