<svg width="25" height="24" viewBox="0 0 25 24" fill="none" xmlns="http://www.w3.org/2000/svg">
<path fill-rule="evenodd" clip-rule="evenodd" d="M21.7684 7.74274C21.3314 5.65674 18.6694 3.09974 16.2894 2.48074C15.1224 2.17574 14.1384 2.40374 13.5184 3.11774C12.6574 4.10974 12.3724 9.55974 13.3764 10.5637C13.7864 10.9737 14.8214 11.1477 16.0134 11.1477C17.9034 11.1477 20.1854 10.7097 20.9944 10.0737C21.6934 9.52374 21.9684 8.69574 21.7684 7.74274Z" fill="black"/>
<path fill-rule="evenodd" clip-rule="evenodd" d="M15.3817 12.9723C13.9727 13.0183 12.3777 13.0683 11.6877 12.3783C10.9407 11.6303 10.8827 9.98127 10.8357 8.65527C10.7917 7.40327 10.7567 6.41327 10.2487 5.90627C9.65572 5.31327 8.66472 5.24327 7.53072 5.71127C5.17372 6.68827 2.66772 9.73327 2.66772 13.4513C2.66772 17.9723 6.34672 21.6513 10.8687 21.6513C15.2897 21.6513 17.8627 18.2853 18.6867 16.2973C19.2057 15.0453 19.2137 14.0373 18.7087 13.5343C18.0617 12.8863 16.8177 12.9283 15.3817 12.9723Z" fill="black"/>
</svg>