<svg width="25" height="24" viewBox="0 0 25 24" fill="none" xmlns="http://www.w3.org/2000/svg">
<path fill-rule="evenodd" clip-rule="evenodd" d="M9.06356 21.8365C10.7131 22.1646 12.423 21.9962 13.9768 21.3526C15.5307 20.7089 16.8588 19.619 17.7932 18.2205C18.7276 16.8221 19.2264 15.178 19.2264 13.4961V12.7461H11.4726V4.99225L10.7226 4.99224C9.04067 4.99224 7.39655 5.49099 5.9981 6.4254C4.59966 7.35981 3.5097 8.68792 2.86607 10.2418C2.22243 11.7957 2.05403 13.5055 2.38215 15.1551C2.71027 16.8047 3.52018 18.3199 4.70946 19.5092C5.89874 20.6984 7.41398 21.5084 9.06356 21.8365ZM13.4028 19.9667C12.123 20.4968 10.7148 20.6355 9.35619 20.3653C7.99758 20.0951 6.74962 19.428 5.77012 18.4485C4.79062 17.469 4.12357 16.221 3.85333 14.8624C3.58309 13.5038 3.72179 12.0956 4.25189 10.8158C4.78199 9.53604 5.67969 8.44219 6.83146 7.6726C7.77423 7.04266 8.85257 6.65314 9.97257 6.53251V14.2461H17.6861C17.5655 15.3661 17.176 16.4444 16.546 17.3872C15.7764 18.5389 14.6826 19.4366 13.4028 19.9667Z" fill="black"/>
<path fill-rule="evenodd" clip-rule="evenodd" d="M13.0272 11.254L22.281 11.254L22.281 10.504C22.281 8.24865 21.3851 6.08567 19.7903 4.49089C18.1956 2.89612 16.0326 2.00018 13.7772 2.00019H13.0272L13.0272 11.254ZM14.5272 9.754L14.5272 3.54043C16.109 3.71075 17.5942 4.41608 18.7297 5.55155C19.8651 6.68703 20.5705 8.17224 20.7408 9.754L14.5272 9.754Z" fill="black"/>
</svg>