<svg width="25" height="24" viewBox="0 0 25 24" fill="none" xmlns="http://www.w3.org/2000/svg">
<path d="M5.23999 18.9791C4.15499 17.8951 3.41699 16.5131 3.11799 15.0091C2.81899 13.5051 2.97199 11.9461 3.55899 10.5291C4.14599 9.11207 5.13999 7.90107 6.41499 7.04907C7.68999 6.19707 9.18899 5.74207 10.723 5.74207V13.4961H18.476C18.476 15.0301 18.022 16.5291 17.17 17.8041C16.318 19.0791 15.107 20.0731 13.69 20.6601C12.273 21.2471 10.714 21.4001 9.20999 21.1011" stroke="black" stroke-width="1.5" stroke-linecap="square"/>
<path d="M13.7771 10.5039V2.74988C15.8341 2.74988 17.8061 3.56688 19.2601 5.02088C20.7141 6.47488 21.5311 8.44788 21.5311 10.5039H17.5481" stroke="black" stroke-width="1.5" stroke-linecap="square"/>
</svg>