<svg width="25" height="24" viewBox="0 0 25 24" fill="none" xmlns="http://www.w3.org/2000/svg">
<path fill-rule="evenodd" clip-rule="evenodd" d="M11.8654 13.7543C13.5154 13.7543 14.8519 12.4167 14.8519 10.7678C14.8519 9.11781 13.5154 7.78125 11.8654 7.78125C10.2155 7.78125 8.87891 9.11781 8.87891 10.7678C8.87891 12.4167 10.2155 13.7543 11.8654 13.7543Z" stroke="black" stroke-width="1.5"/>
<path d="M15.0117 15.1699L12.5117 17.3187" stroke="black" stroke-width="1.5" stroke-linecap="round" stroke-linejoin="round"/>
<path d="M16.0412 7.4043L16.0312 7.4143" stroke="black" stroke-width="1.5" stroke-linecap="round" stroke-linejoin="round"/>
<path d="M12.5 21C7.52944 21 3.5 16.9706 3.5 12C3.5 7.02944 7.52944 3 12.5 3C17.4706 3 21.5 7.02944 21.5 12C21.5 15.4651 19.5417 18.4729 16.6715 19.9769" stroke="black" stroke-width="1.5" stroke-linecap="round" stroke-linejoin="round"/>
</svg>