<svg width="25" height="25" viewBox="0 0 25 25" fill="none" xmlns="http://www.w3.org/2000/svg">
<path fill-rule="evenodd" clip-rule="evenodd" d="M5.33495 5.03858C4.65882 5.7648 4.25 6.82776 4.25 8.146V16.0923C4.25 17.4096 4.66045 18.4724 5.33783 19.1988C6.00979 19.9194 6.99913 20.3687 8.28313 20.3687H16.7178C18.0067 20.3687 18.9953 19.9191 19.6655 19.1992C20.3414 18.4733 20.75 17.4106 20.75 16.0923V8.146C20.75 6.82765 20.3414 5.76471 19.6654 5.03854C18.995 4.31843 18.0062 3.86865 16.7169 3.86865H8.28313C6.99437 3.86865 6.00545 4.3184 5.33495 5.03858ZM4.2371 4.01646C5.22114 2.9595 6.62379 2.36865 8.28313 2.36865H16.7169C18.3766 2.36865 19.7793 2.95947 20.7633 4.0165C21.7416 5.06746 22.25 6.51819 22.25 8.146V16.0923C22.25 17.7201 21.7416 19.1706 20.7634 20.2213C19.7795 21.2781 18.3771 21.8687 16.7178 21.8687H8.28313C6.62779 21.8687 5.22556 21.2778 4.24079 20.2218C3.26145 19.1715 2.75 17.7211 2.75 16.0923V8.146C2.75 6.51809 3.25869 5.06737 4.2371 4.01646Z" fill="black"/>
<path fill-rule="evenodd" clip-rule="evenodd" d="M7.39027 9.04386C7.71853 8.79123 8.18943 8.85254 8.44205 9.1808L10.8923 12.3646L13.6184 10.2246C13.7755 10.1013 13.9753 10.0457 14.1736 10.0702C14.3718 10.0947 14.552 10.1973 14.6744 10.3552L17.5242 14.033C17.7779 14.3604 17.7182 14.8315 17.3907 15.0852C17.0633 15.3389 16.5922 15.2792 16.3385 14.9518L13.951 11.8705L11.2229 14.0121C11.0655 14.1356 10.8651 14.1912 10.6665 14.1663C10.4679 14.1414 10.2875 14.0382 10.1654 13.8795L7.25333 10.0956C7.00071 9.76739 7.06201 9.29649 7.39027 9.04386Z" fill="black"/>
</svg>