<svg width="25" height="24" viewBox="0 0 25 24" fill="none" xmlns="http://www.w3.org/2000/svg">
<path fill-rule="evenodd" clip-rule="evenodd" d="M11.2235 5.24133H10.7235C9.08547 5.24133 7.49947 5.72233 6.13747 6.63233C4.77547 7.54233 3.72447 8.82333 3.09747 10.3363C2.47047 11.8493 2.30847 13.4993 2.62847 15.1053C2.94747 16.7133 3.72847 18.1743 4.88747 19.3313C6.04447 20.4893 7.50547 21.2703 9.11247 21.5903C9.64847 21.6973 10.1885 21.7503 10.7275 21.7503C11.8035 21.7503 12.8725 21.5383 13.8815 21.1203C15.3945 20.4933 16.6765 19.4433 17.5855 18.0813C18.4955 16.7193 18.9765 15.1343 18.9765 13.4953V12.9953H11.2235V5.24133Z" fill="black"/>
<path fill-rule="evenodd" clip-rule="evenodd" d="M19.6137 4.66663C18.0557 3.10763 15.9827 2.24963 13.7777 2.24963H13.2777V11.0026H22.0317V10.5026C22.0317 8.29863 21.1727 6.22663 19.6137 4.66663Z" fill="black"/>
</svg>