<svg width="24" height="24" viewBox="0 0 24 24" fill="none" xmlns="http://www.w3.org/2000/svg">
<path d="M14.1864 8.99239C13.7321 8.26656 12.9187 7.79272 12.0002 7.79272C11.0807 7.79272 10.2771 8.26656 9.82268 8.98266C9.56095 9.38936 9.40625 9.87292 9.40625 10.3857C9.40625 10.8984 9.56095 11.382 9.82268 11.7887C9.87133 11.8753 9.92873 11.9531 9.98711 12.031C10.4327 12.5632 11.0807 12.9212 11.8163 12.9689C11.9303 12.9882 12.0674 12.9885 12.1831 12.9689C12.9187 12.9212 13.5676 12.5632 14.0123 12.031C14.0706 11.9531 14.128 11.8753 14.1864 11.7887C14.4384 11.382 14.5931 10.8984 14.5931 10.3857C14.5931 9.87292 14.4482 9.39909 14.1864 8.99239ZM14.1864 8.99239L14.1865 8.98266" stroke="black" stroke-width="1.5" stroke-linecap="round" stroke-linejoin="round"/>
<path d="M7.63592 7.79272C6.20469 7.79272 5.04297 8.95347 5.04297 10.3857C5.04297 11.8179 6.20469 12.9786 7.63592 12.9786C7.6943 12.9786 7.76241 12.9786 7.81981 12.9689C8.55537 12.9202 9.2131 12.5622 9.64898 12.031C9.71709 11.9531 9.77484 11.8753 9.82349 11.7887" stroke="black" stroke-width="1.5" stroke-linecap="round" stroke-linejoin="round"/>
<path d="M16.3651 7.79272C17.7963 7.79272 18.958 8.95347 18.958 10.3857C18.958 11.8179 17.7963 12.9786 16.3651 12.9786C16.297 12.9786 16.2386 12.9786 16.1812 12.9689C15.4456 12.9212 14.7976 12.5632 14.3617 12.031C14.2936 11.9531 14.2361 11.8763 14.1875 11.7887" stroke="black" stroke-width="1.5" stroke-linecap="round" stroke-linejoin="round"/>
<path d="M12.1853 12.9692C11.7936 13.4169 11.585 14.0222 11.585 14.6145C11.585 15.095 11.7177 15.6209 12.001 16.0175C12.4554 16.7336 13.2594 17.2075 14.1779 17.2075H14.1876C15.4611 17.1989 16.5085 16.3001 16.7358 15.1036" stroke="black" stroke-width="1.5" stroke-linecap="round" stroke-linejoin="round"/>
<path d="M7.82102 12.9692C7.44351 13.4149 7.2207 13.985 7.2207 14.6145C7.2207 15.9592 8.25691 17.0625 9.57236 17.1977C9.6502 17.2075 9.73679 17.2075 9.82436 17.2075C10.7428 17.2075 11.5465 16.7336 12.0009 16.0175" stroke="black" stroke-width="1.5" stroke-linecap="round" stroke-linejoin="round"/>
<path d="M9.57201 17.1978C9.38812 17.5558 9.28125 17.9723 9.28125 18.4072C9.28125 19.8394 10.4517 21.0002 11.8839 21.0002C12.8809 21.0002 13.7463 20.4377 14.1802 19.6128" stroke="black" stroke-width="1.5" stroke-linecap="round" stroke-linejoin="round"/>
<path d="M12.002 7.78941C12.002 7.78941 12.1343 4.67397 15.1904 4.11938" stroke="black" stroke-width="1.5" stroke-linecap="round" stroke-linejoin="round"/>
<path fill-rule="evenodd" clip-rule="evenodd" d="M12.1988 6.74397H11.3455C9.57566 6.74397 8.38086 5.62409 8.38086 3.85329V3H9.23415C11.004 3 12.1988 4.11988 12.1988 5.89068V6.74397Z" stroke="black" stroke-width="1.5" stroke-linecap="round" stroke-linejoin="round"/>
</svg>