<svg width="25" height="24" viewBox="0 0 25 24" fill="none" xmlns="http://www.w3.org/2000/svg">
<path opacity="0.4" fill-rule="evenodd" clip-rule="evenodd" d="M12.501 2.50488C7.262 2.50488 3 6.76688 3 12.0049C3 17.2439 7.262 21.5049 12.501 21.5049C17.738 21.5049 22 17.2439 22 12.0049C22 6.76688 17.738 2.50488 12.501 2.50488Z" fill="black"/>
<path d="M16.5609 7.9438L16.5709 7.9338C16.8639 7.6408 16.8589 7.1708 16.5659 6.8778C16.2729 6.5838 15.7929 6.5898 15.5009 6.8828C15.2079 7.1758 15.2079 7.6508 15.5009 7.9438C15.6469 8.0898 15.8389 8.1628 16.0309 8.1628C16.2229 8.1628 16.4149 8.0898 16.5609 7.9438Z" fill="black"/>
<path d="M13.0009 17.8918L15.5009 15.7428C15.8149 15.4728 15.8509 14.9988 15.5809 14.6848C15.3109 14.3718 14.8379 14.3348 14.5229 14.6058L12.0229 16.7548C11.7089 17.0248 11.6729 17.4978 11.9429 17.8128C12.0919 17.9848 12.3009 18.0738 12.5119 18.0738C12.6849 18.0738 12.8589 18.0138 13.0009 17.8918Z" fill="black"/>
<path fill-rule="evenodd" clip-rule="evenodd" d="M8.12891 10.7738C8.12891 8.7118 9.80491 7.0348 11.8649 7.0348C13.9249 7.0348 15.6019 8.7118 15.6019 10.7738C15.6019 12.8298 13.9249 14.5038 11.8649 14.5038C9.80491 14.5038 8.12891 12.8298 8.12891 10.7738ZM11.8647 8.53456C13.0987 8.53456 14.1017 9.53956 14.1017 10.7736C14.1017 12.0026 13.0987 13.0036 11.8647 13.0036C10.6317 13.0036 9.62869 12.0026 9.62869 10.7736C9.62869 9.53956 10.6317 8.53456 11.8647 8.53456Z" fill="black"/>
</svg>