<svg width="25" height="24" viewBox="0 0 25 24" fill="none" xmlns="http://www.w3.org/2000/svg">
<path d="M8.76378 6.68759H16.2362C17.4145 6.68759 18.404 7.57299 18.5334 8.74348L19.6105 18.4333C19.7632 19.8023 18.691 21 17.3133 21H7.6867C6.30898 21 5.23676 19.8023 5.38952 18.4333L6.46562 8.74348C6.596 7.57299 7.58551 6.68759 8.76378 6.68759Z" stroke="black" stroke-width="1.5" stroke-linecap="round" stroke-linejoin="round"/>
<path opacity="0.4" d="M15.1299 10.8997L14.226 12.2288M11.0308 10.8997L10.127 12.2288M15.1299 15.4595L14.226 16.7886M11.0308 15.4595L10.127 16.7886" stroke="black" stroke-width="1.5" stroke-linecap="round" stroke-linejoin="round"/>
<path opacity="0.4" d="M8.97852 6.68756L9.23052 4.65794C9.3463 3.6227 10.221 3 11.2631 3H13.7373C14.7794 3 15.6541 3.6227 15.7699 4.65794L16.0219 6.68756" stroke="black" stroke-width="1.5" stroke-linecap="round" stroke-linejoin="round"/>
</svg>