<svg width="25" height="24" viewBox="0 0 25 24" fill="none" xmlns="http://www.w3.org/2000/svg">
<g opacity="0.4">
<path fill-rule="evenodd" clip-rule="evenodd" d="M19.302 13.5H16.698C15.21 13.5 14 14.71 14 16.198V18.802C14 20.29 15.21 21.5 16.698 21.5H19.302C20.79 21.5 22 20.29 22 18.802V16.198C22 14.71 20.79 13.5 19.302 13.5Z" fill="black"/>
<path fill-rule="evenodd" clip-rule="evenodd" d="M8.302 13.5H5.698C4.21 13.5 3 14.71 3 16.198V18.802C3 20.29 4.21 21.5 5.698 21.5H8.302C9.79 21.5 11 20.29 11 18.802V16.198C11 14.71 9.79 13.5 8.302 13.5Z" fill="black"/>
<path fill-rule="evenodd" clip-rule="evenodd" d="M8.302 2.5H5.698C4.21 2.5 3 3.71 3 5.198V7.802C3 9.29 4.21 10.5 5.698 10.5H8.302C9.79 10.5 11 9.29 11 7.802V5.198C11 3.71 9.79 2.5 8.302 2.5Z" fill="black"/>
</g>
<path fill-rule="evenodd" clip-rule="evenodd" d="M16.9377 6.49825L15.1607 8.27525C14.8677 8.56825 14.8677 9.04325 15.1607 9.33625C15.4537 9.62925 15.9277 9.62925 16.2207 9.33625L17.9987 7.55925L19.7787 9.33925C19.9247 9.48525 20.1167 9.55925 20.3087 9.55925C20.5007 9.55925 20.6927 9.48525 20.8387 9.33925C21.1317 9.04625 21.1317 8.57125 20.8387 8.27825L19.0587 6.49825L20.8377 4.71925C21.1307 4.42625 21.1307 3.95125 20.8377 3.65825C20.5447 3.36525 20.0707 3.36525 19.7777 3.65825L17.9987 5.43725L16.2177 3.65725C15.9247 3.36425 15.4507 3.36425 15.1577 3.65725C14.8647 3.95025 14.8647 4.42525 15.1577 4.71825L16.9377 6.49825Z" fill="black"/>
</svg>