<svg width="24" height="24" viewBox="0 0 24 24" fill="none" xmlns="http://www.w3.org/2000/svg">
<path fill-rule="evenodd" clip-rule="evenodd" d="M7.67663 13.6243H5.07263C3.58563 13.6243 2.37463 14.8343 2.37463 16.3223V18.9263C2.37463 20.4143 3.58563 21.6243 5.07263 21.6243H7.67663C9.16463 21.6243 10.3746 20.4143 10.3746 18.9263V16.3223C10.3746 14.8343 9.16463 13.6243 7.67663 13.6243Z" fill="black"/>
<path fill-rule="evenodd" clip-rule="evenodd" d="M18.6766 13.6243H16.0726C14.5856 13.6243 13.3746 14.8343 13.3746 16.3223V18.9263C13.3746 20.4143 14.5856 21.6243 16.0726 21.6243H18.6766C20.1646 21.6243 21.3746 20.4143 21.3746 18.9263V16.3223C21.3746 14.8343 20.1646 13.6243 18.6766 13.6243Z" fill="black"/>
<path fill-rule="evenodd" clip-rule="evenodd" d="M7.67663 2.62427H5.07263C3.58563 2.62427 2.37463 3.83427 2.37463 5.32227V7.92627C2.37463 9.41427 3.58563 10.6243 5.07263 10.6243H7.67663C9.16463 10.6243 10.3746 9.41427 10.3746 7.92627V5.32227C10.3746 3.83427 9.16463 2.62427 7.67663 2.62427Z" fill="black"/>
<path fill-rule="evenodd" clip-rule="evenodd" d="M18.6576 7.90661C17.7656 8.79961 16.2086 8.79961 15.3166 7.90661C14.3966 6.98561 14.3966 5.48661 15.3166 4.56561C15.7776 4.10561 16.3826 3.87561 16.9876 3.87561C17.5926 3.87561 18.1976 4.10561 18.6576 4.56561C19.1046 5.01161 19.3496 5.60561 19.3496 6.23561C19.3496 6.86661 19.1046 7.46061 18.6576 7.90661ZM21.4056 9.59361L20.1976 8.38561C20.6216 7.75561 20.8496 7.01261 20.8496 6.23561C20.8496 5.20461 20.4486 4.23461 19.7186 3.50561C18.2126 1.99861 15.7616 1.99961 14.2556 3.50561C12.7506 5.01061 12.7506 7.46161 14.2556 8.96761C15.5336 10.2456 17.6686 10.4316 19.1366 9.44661L20.3446 10.6546C20.4906 10.8016 20.6826 10.8746 20.8746 10.8746C21.0666 10.8746 21.2586 10.8016 21.4056 10.6546C21.6986 10.3616 21.6986 9.88661 21.4056 9.59361Z" fill="black"/>
</svg>