<svg width="25" height="24" viewBox="0 0 25 24" fill="none" xmlns="http://www.w3.org/2000/svg">
<g opacity="0.4">
<path fill-rule="evenodd" clip-rule="evenodd" d="M13.25 10.85C13.25 11.0709 13.4291 11.25 13.65 11.25H21.6C21.8209 11.25 22 11.0709 22 10.85V8.026C22 4.721 19.877 2.5 16.717 2.5H13.65C13.4291 2.5 13.25 2.67909 13.25 2.9V10.85Z" fill="black"/>
<path fill-rule="evenodd" clip-rule="evenodd" d="M11.75 13.15C11.75 12.9291 11.5709 12.75 11.35 12.75H3.4C3.17909 12.75 3 12.9291 3 13.15V15.974C3 19.279 5.123 21.5 8.283 21.5H11.35C11.5709 21.5 11.75 21.3209 11.75 21.1V13.15Z" fill="black"/>
</g>
<path fill-rule="evenodd" clip-rule="evenodd" d="M11.35 11.25C11.5709 11.25 11.75 11.0709 11.75 10.85V2.9C11.75 2.67909 11.5709 2.5 11.35 2.5H8.283C5.123 2.5 3 4.721 3 8.026V10.85C3 11.0709 3.17909 11.25 3.4 11.25H11.35Z" fill="black"/>
<path fill-rule="evenodd" clip-rule="evenodd" d="M13.65 12.75C13.4291 12.75 13.25 12.9291 13.25 13.15V21.1C13.25 21.3209 13.4291 21.5 13.65 21.5H16.717C19.877 21.5 22 19.279 22 15.974V13.15C22 12.9291 21.8209 12.75 21.6 12.75H13.65Z" fill="black"/>
</svg>