<svg width="24" height="24" viewBox="0 0 24 24" fill="none" xmlns="http://www.w3.org/2000/svg">
<path fill-rule="evenodd" clip-rule="evenodd" d="M12.75 10.85C12.75 11.0709 12.9291 11.25 13.15 11.25H21.1C21.3209 11.25 21.5 11.0709 21.5 10.85V8.026C21.5 4.721 19.377 2.5 16.217 2.5H13.15C12.9291 2.5 12.75 2.67909 12.75 2.9V10.85Z" fill="black"/>
<path fill-rule="evenodd" clip-rule="evenodd" d="M10.85 11.25C11.0709 11.25 11.25 11.0709 11.25 10.85V2.9C11.25 2.67909 11.0709 2.5 10.85 2.5H7.783C4.623 2.5 2.5 4.721 2.5 8.026V10.85C2.5 11.0709 2.67909 11.25 2.9 11.25H10.85Z" fill="black"/>
<path fill-rule="evenodd" clip-rule="evenodd" d="M13.15 12.75C12.9291 12.75 12.75 12.9291 12.75 13.15V21.1C12.75 21.3209 12.9291 21.5 13.15 21.5H16.217C19.377 21.5 21.5 19.279 21.5 15.974V13.15C21.5 12.9291 21.3209 12.75 21.1 12.75H13.15Z" fill="black"/>
<path fill-rule="evenodd" clip-rule="evenodd" d="M11.25 13.15C11.25 12.9291 11.0709 12.75 10.85 12.75H2.9C2.67909 12.75 2.5 12.9291 2.5 13.15V15.974C2.5 19.279 4.623 21.5 7.783 21.5H10.85C11.0709 21.5 11.25 21.3209 11.25 21.1V13.15Z" fill="black"/>
</svg>