<svg width="24" height="24" viewBox="0 0 24 24" fill="none" xmlns="http://www.w3.org/2000/svg">
<path d="M18.1892 13.7502C17.1764 13.6588 16.1567 13.6588 15.1438 13.7502C14.2059 13.7794 13.4333 14.4955 13.3321 15.4286C13.194 16.5475 13.194 17.6791 13.3321 18.798C13.4246 19.736 14.202 20.4579 15.1438 20.4813C16.1567 20.5737 17.1764 20.5737 18.1892 20.4813C19.132 20.4579 19.9085 19.736 20.0009 18.798C20.1391 17.6791 20.1391 16.5475 20.0009 15.4296" stroke="black" stroke-width="1.5" stroke-linecap="round" stroke-linejoin="round"/>
<path d="M15.3652 16.8646L16.779 18.2793L21.0007 14.0586" stroke="black" stroke-width="1.5" stroke-linecap="round" stroke-linejoin="round"/>
<path fill-rule="evenodd" clip-rule="evenodd" d="M4.9153 13.7518C3.97735 13.781 3.20384 14.4971 3.10362 15.4302C2.96546 16.5491 2.96546 17.6807 3.10362 18.7996C3.19605 19.7376 3.97346 20.4595 4.9153 20.4829C5.92816 20.5753 6.94784 20.5753 7.9607 20.4829C8.90254 20.4605 9.67994 19.7376 9.77335 18.7996C9.91054 17.6807 9.91054 16.5491 9.77335 15.4312C9.68384 14.4913 8.90448 13.7674 7.9607 13.7479C6.94784 13.6584 5.92816 13.6594 4.9153 13.7518Z" stroke="black" stroke-width="1.5" stroke-linecap="round" stroke-linejoin="round"/>
<path fill-rule="evenodd" clip-rule="evenodd" d="M4.9153 3.51586C3.97638 3.54505 3.20286 4.2631 3.10362 5.19813C2.96546 6.31705 2.96546 7.44862 3.10362 8.56753C3.198 9.50353 3.97443 10.2226 4.9153 10.2459C5.92816 10.3383 6.94784 10.3383 7.9607 10.2459C8.90157 10.2226 9.678 9.50353 9.77335 8.56753C9.91054 7.44862 9.91054 6.31705 9.77335 5.19813C9.68384 4.25824 8.90448 3.53532 7.9607 3.51586C6.94784 3.4244 5.92816 3.4244 4.9153 3.51586Z" stroke="black" stroke-width="1.5" stroke-linecap="round" stroke-linejoin="round"/>
<path fill-rule="evenodd" clip-rule="evenodd" d="M15.1438 3.51586C14.2049 3.54505 13.4314 4.2631 13.3321 5.19813C13.194 6.31705 13.194 7.44862 13.3321 8.56753C13.4265 9.50353 14.2029 10.2226 15.1438 10.2459C16.1567 10.3383 17.1764 10.3383 18.1892 10.2459C19.1301 10.2226 19.9065 9.50353 20.0009 8.56753C20.1391 7.44862 20.1391 6.31705 20.0009 5.19813C19.9114 4.25824 19.132 3.53532 18.1892 3.51586C17.1764 3.4244 16.1567 3.4244 15.1438 3.51586Z" stroke="black" stroke-width="1.5" stroke-linecap="round" stroke-linejoin="round"/>
</svg>