<svg width="24" height="24" viewBox="0 0 24 24" fill="none" xmlns="http://www.w3.org/2000/svg">
<path fill-rule="evenodd" clip-rule="evenodd" d="M4.63541 8.04492C4.35926 8.04492 4.13541 8.26878 4.13541 8.54492C4.13541 11.7097 6.00513 14.438 8.70014 15.6854L7.01255 20.7635C6.88191 21.1565 7.09467 21.5811 7.48774 21.7117C7.88082 21.8423 8.30537 21.6296 8.436 21.2365L8.87124 19.9268H15.0659L15.5011 21.2365C15.6317 21.6296 16.0563 21.8423 16.4494 21.7117C16.8424 21.5811 17.0552 21.1565 16.9246 20.7635L16.3241 18.9567C16.3207 18.9456 16.3171 18.9346 16.3132 18.9237L15.2452 15.7103C17.9697 14.4745 19.8646 11.7309 19.8646 8.54492C19.8646 8.26878 19.6407 8.04492 19.3646 8.04492H4.63541ZM10.1158 16.1819C10.7193 16.3303 11.3502 16.409 11.9995 16.409C12.6283 16.409 13.2398 16.3353 13.826 16.1959L14.5674 18.4268H9.36974L10.1158 16.1819Z" fill="black"/>
<path opacity="0.4" fill-rule="evenodd" clip-rule="evenodd" d="M11.6319 2.46967C11.9248 2.17678 12.3997 2.17678 12.6926 2.46967C13.4193 3.19636 13.4194 4.37534 12.693 5.10219C12.551 5.24468 12.5519 5.47451 12.6926 5.61515C12.9855 5.90805 12.9855 6.38292 12.6926 6.67581C12.3997 6.96871 11.9248 6.96871 11.6319 6.67581C10.9048 5.94866 10.9056 4.76985 11.6313 4.04252C11.7724 3.90149 11.773 3.67136 11.6319 3.53033C11.339 3.23744 11.339 2.76256 11.6319 2.46967ZM9.19197 4.04249C9.48519 4.33505 9.48573 4.80992 9.19316 5.10315C9.05134 5.24529 9.05134 5.47476 9.19316 5.6169C9.48573 5.91012 9.48519 6.385 9.19197 6.67756C8.89875 6.97013 8.42388 6.96959 8.13131 6.67637C7.40528 5.94872 7.40528 4.77133 8.13131 4.04367C8.42388 3.75045 8.89875 3.74992 9.19197 4.04249ZM15.1318 4.04367C15.4244 3.75045 15.8993 3.74992 16.1925 4.04249C16.4857 4.33505 16.4863 4.80992 16.1937 5.10315C16.0519 5.24529 16.0519 5.47476 16.1937 5.6169C16.4863 5.91012 16.4857 6.385 16.1925 6.67756C15.8993 6.97013 15.4244 6.96959 15.1318 6.67637C14.4058 5.94872 14.4058 4.77133 15.1318 4.04367Z" fill="black"/>
</svg>