<svg width="24" height="24" viewBox="0 0 24 24" fill="none" xmlns="http://www.w3.org/2000/svg">
<path d="M12.6926 2.46967C12.3997 2.17678 11.9248 2.17678 11.6319 2.46967C11.339 2.76256 11.339 3.23744 11.6319 3.53033C11.7729 3.67136 11.7729 3.90089 11.6319 4.04192C10.9062 4.76925 10.9047 5.94866 11.6319 6.67581C11.9248 6.96871 12.3997 6.96871 12.6926 6.67581C12.9854 6.38292 12.9854 5.90805 12.6926 5.61515C12.5519 5.47451 12.551 5.24468 12.6929 5.10219C13.4194 4.37534 13.4192 3.19636 12.6926 2.46967Z" fill="black"/>
<path d="M9.19313 5.10315C9.48569 4.80992 9.48516 4.33505 9.19194 4.04249C8.89872 3.74992 8.42385 3.75045 8.13128 4.04367C7.40525 4.77133 7.40525 5.94872 8.13128 6.67637C8.42385 6.96959 8.89872 6.97013 9.19194 6.67756C9.48516 6.385 9.48569 5.91012 9.19313 5.6169C9.05131 5.47476 9.05131 5.24529 9.19313 5.10315Z" fill="black"/>
<path d="M16.1925 4.04249C15.8993 3.74992 15.4244 3.75045 15.1318 4.04367C14.4058 4.77133 14.4058 5.94872 15.1318 6.67637C15.4244 6.96959 15.8993 6.97013 16.1925 6.67756C16.4857 6.385 16.4862 5.91012 16.1937 5.6169C16.0518 5.47476 16.0518 5.24529 16.1937 5.10315C16.4862 4.80992 16.4857 4.33505 16.1925 4.04249Z" fill="black"/>
<path fill-rule="evenodd" clip-rule="evenodd" d="M15.2452 15.7103C17.9697 14.4745 19.8646 11.7309 19.8646 8.54494C19.8646 8.26879 19.6407 8.04494 19.3646 8.04494H4.63538C4.35923 8.04494 4.13538 8.26879 4.13538 8.54494C4.13538 11.7097 6.0051 14.438 8.70011 15.6854L7.01251 20.7635C6.88188 21.1565 7.09464 21.5811 7.48771 21.7117C7.88079 21.8424 8.30534 21.6296 8.43597 21.2365L8.87121 19.9269H15.0658L15.5011 21.2365C15.6317 21.6296 16.0563 21.8424 16.4493 21.7117C16.8424 21.5811 17.0552 21.1565 16.9245 20.7635L16.3241 18.9567C16.3207 18.9456 16.317 18.9346 16.3131 18.9237L15.2452 15.7103ZM13.8259 16.1959C13.2398 16.3353 12.6283 16.409 11.9995 16.409C11.3502 16.409 10.7193 16.3303 10.1158 16.182L9.36971 18.4269H14.5673L13.8259 16.1959Z" fill="black"/>
</svg>