<svg width="24" height="24" viewBox="0 0 24 24" fill="none" xmlns="http://www.w3.org/2000/svg">
<path fill-rule="evenodd" clip-rule="evenodd" d="M16.431 10.281C16.393 10.287 16.355 10.29 16.317 10.29C15.952 10.29 15.633 10.024 15.577 9.653C15.535 9.377 15.3 9.177 15.02 9.177C14.744 9.177 14.515 9.374 14.476 9.645C14.418 10.055 14.036 10.336 13.628 10.282C13.218 10.224 12.933 9.845 12.992 9.435C13.133 8.433 14.005 7.677 15.02 7.677C16.047 7.677 16.905 8.413 17.059 9.427C17.121 9.836 16.84 10.219 16.431 10.281ZM12.001 17.222C10.144 17.222 8.633 15.614 8.633 13.638C8.633 13.362 8.857 13.138 9.133 13.138H14.869C15.146 13.138 15.369 13.362 15.369 13.638C15.369 15.614 13.859 17.222 12.001 17.222ZM8.426 9.652C8.37 10.023 8.05 10.29 7.686 10.29C7.649 10.29 7.611 10.287 7.573 10.281C7.163 10.219 6.881 9.838 6.944 9.428C7.096 8.414 7.952 7.677 8.977 7.677C9.994 7.677 10.869 8.433 11.01 9.435C11.069 9.845 10.784 10.224 10.373 10.282C9.955 10.335 9.584 10.055 9.526 9.645C9.487 9.374 9.256 9.177 8.977 9.177C8.703 9.177 8.467 9.382 8.426 9.652ZM12 2.5C6.762 2.5 2.5 6.761 2.5 12C2.5 17.238 6.762 21.5 12 21.5C17.239 21.5 21.5 17.238 21.5 12C21.5 6.761 17.239 2.5 12 2.5Z" fill="black"/>
</svg>