<svg width="25" height="24" viewBox="0 0 25 24" fill="none" xmlns="http://www.w3.org/2000/svg">
<path d="M9.01953 9.00533V8.95377M8.97401 8.80078C8.85001 8.80078 8.74901 8.90178 8.75001 9.02578C8.75001 9.14978 8.85101 9.25078 8.97501 9.25078C9.09901 9.25078 9.20001 9.14978 9.20001 9.02578C9.20001 8.90078 9.09901 8.80078 8.97401 8.80078Z" stroke="black" stroke-width="1.5" stroke-linecap="round" stroke-linejoin="round"/>
<path d="M15.4807 9.00533V8.95377M15.474 8.80078C15.35 8.80078 15.249 8.90178 15.25 9.02578C15.25 9.14978 15.351 9.25078 15.475 9.25078C15.599 9.25078 15.7 9.14978 15.7 9.02578C15.7 8.90078 15.599 8.80078 15.474 8.80078Z" stroke="black" stroke-width="1.5" stroke-linecap="round" stroke-linejoin="round"/>
<path d="M12.2507 17.0739C10.3067 17.0739 8.73047 15.379 8.73047 13.2891H15.7699C15.7699 14.3445 15.3679 15.2993 14.7197 15.9858" stroke="black" stroke-width="1.5" stroke-linecap="round" stroke-linejoin="round"/>
<path d="M12.25 3C7.27908 3 3.25 7.02908 3.25 12C3.25 16.9699 7.27908 21 12.25 21C17.2209 21 21.25 16.9699 21.25 12C21.25 8.26027 18.9696 5.05361 15.7233 3.69458" stroke="black" stroke-width="1.5" stroke-linecap="round" stroke-linejoin="round"/>
</svg>