<svg width="25" height="24" viewBox="0 0 25 24" fill="none" xmlns="http://www.w3.org/2000/svg">
<path opacity="0.4" fill-rule="evenodd" clip-rule="evenodd" d="M12.5 2.5C7.262 2.5 3 6.762 3 12C3 17.238 7.262 21.5 12.5 21.5C17.739 21.5 22 17.238 22 12C22 6.762 17.739 2.5 12.5 2.5Z" fill="black"/>
<path fill-rule="evenodd" clip-rule="evenodd" d="M15.725 10.0008C15.188 10.0008 14.75 9.56378 14.75 9.02578C14.748 8.77078 14.849 8.52378 15.033 8.33878C15.217 8.15278 15.462 8.05078 15.724 8.05078C16.262 8.05078 16.701 8.48778 16.701 9.02578C16.701 9.56378 16.263 10.0008 15.725 10.0008Z" fill="black"/>
<path fill-rule="evenodd" clip-rule="evenodd" d="M12.501 17.5738C10.285 17.5738 8.48096 15.6518 8.48096 13.2888C8.48096 13.0128 8.70396 12.7888 8.98096 12.7888H16.021C16.297 12.7888 16.521 13.0128 16.521 13.2888C16.521 15.6518 14.718 17.5738 12.501 17.5738Z" fill="black"/>
<path fill-rule="evenodd" clip-rule="evenodd" d="M8.53303 8.33878C8.71703 8.15278 8.96203 8.05078 9.22403 8.05078C9.76203 8.05078 10.201 8.48778 10.201 9.02578C10.201 9.56378 9.76303 10.0008 9.22503 10.0008C8.68803 10.0008 8.25003 9.56378 8.25003 9.02578C8.24803 8.77078 8.34903 8.52378 8.53303 8.33878Z" fill="black"/>
</svg>