<svg width="24" height="24" viewBox="0 0 24 24" fill="none" xmlns="http://www.w3.org/2000/svg">
<path d="M12 21C16.9709 21 21 16.9699 21 12C21 7.02908 16.9709 3 12 3C7.02908 3 3 7.02908 3 12C3 16.9699 7.02908 21 12 21Z" stroke="black" stroke-width="1.5" stroke-linecap="round" stroke-linejoin="round"/>
<path d="M7.68457 9.5418C7.77992 8.90839 8.32479 8.42969 8.97668 8.42969C9.63441 8.42969 10.1783 8.90839 10.2678 9.5418" stroke="black" stroke-width="1.5" stroke-linecap="round" stroke-linejoin="round"/>
<path d="M13.7334 9.5418C13.8229 8.90839 14.3668 8.42969 15.0187 8.42969C15.6764 8.42969 16.2213 8.90839 16.3166 9.5418" stroke="black" stroke-width="1.5" stroke-linecap="round" stroke-linejoin="round"/>
<path fill-rule="evenodd" clip-rule="evenodd" d="M14.8695 13.6406C14.8695 15.3433 13.5851 16.7249 12.0011 16.7249C10.4171 16.7249 9.13281 15.3433 9.13281 13.6406H14.8695Z" stroke="black" stroke-width="1.5" stroke-linecap="round" stroke-linejoin="round"/>
</svg>