<svg width="25" height="24" viewBox="0 0 25 24" fill="none" xmlns="http://www.w3.org/2000/svg">
<path d="M12.25 21.75C10.3217 21.75 8.43659 21.1782 6.83321 20.1068C5.22983 19.0355 3.98016 17.5128 3.24221 15.7312C2.50425 13.9496 2.31113 11.9892 2.68734 10.0979C3.06354 8.20656 3.99217 6.46928 5.35573 5.10572C6.7193 3.74215 8.45655 2.81356 10.3479 2.43735C12.2392 2.06114 14.1996 2.25422 15.9812 2.99217C17.7627 3.73013 19.2855 4.97981 20.3568 6.58319C21.4282 8.18657 22 10.0716 22 12C21.9971 14.585 20.9689 17.0632 19.1411 18.8911C17.3132 20.7189 14.835 21.7471 12.25 21.75ZM12.25 3.75C10.6183 3.75 9.02329 4.23386 7.66659 5.14038C6.30988 6.0469 5.25243 7.33538 4.62801 8.84287C4.00359 10.3504 3.8402 12.0092 4.15853 13.6095C4.47686 15.2098 5.26262 16.6799 6.4164 17.8336C7.57019 18.9874 9.04018 19.7731 10.6405 20.0915C12.2409 20.4098 13.8997 20.2464 15.4072 19.622C16.9147 18.9976 18.2031 17.9402 19.1096 16.5835C20.0162 15.2267 20.5 13.6317 20.5 12C20.4976 9.8127 19.6277 7.71567 18.081 6.16901C16.5344 4.62235 14.4373 3.75238 12.25 3.75Z" fill="black"/>
<path d="M8.97497 10.0008C8.78214 10.0008 8.59362 9.94359 8.43329 9.83645C8.27295 9.72932 8.14801 9.57705 8.07422 9.39889C8.00042 9.22073 7.98111 9.0247 8.01874 8.83557C8.05636 8.64644 8.14922 8.4727 8.28558 8.33635C8.42194 8.19999 8.59566 8.10714 8.78479 8.06952C8.97392 8.0319 9.16998 8.0512 9.34814 8.125C9.5263 8.19879 9.67857 8.32376 9.7857 8.4841C9.89284 8.64444 9.95001 8.83293 9.95001 9.02577C9.94974 9.28427 9.84691 9.53213 9.66412 9.71492C9.48133 9.89771 9.23348 10.0005 8.97497 10.0008Z" fill="black"/>
<path d="M15.475 10.0008C15.2821 10.0008 15.0936 9.94359 14.9333 9.83645C14.7729 9.72932 14.648 9.57705 14.5742 9.39889C14.5004 9.22073 14.4811 9.0247 14.5187 8.83557C14.5564 8.64644 14.6492 8.4727 14.7856 8.33635C14.9219 8.19999 15.0957 8.10714 15.2848 8.06952C15.4739 8.0319 15.67 8.0512 15.8481 8.125C16.0263 8.19879 16.1786 8.32376 16.2857 8.4841C16.3928 8.64444 16.45 8.83293 16.45 9.02577C16.4497 9.28427 16.3469 9.53213 16.1641 9.71492C15.9813 9.89771 15.7335 10.0005 15.475 10.0008Z" fill="black"/>
<path d="M12.2512 17.8241C11.0843 17.7867 9.97968 17.2885 9.17921 16.4386C8.37875 15.5886 7.94764 14.4562 7.98024 13.2891C7.98024 13.0902 8.05925 12.8994 8.1999 12.7587C8.34056 12.6181 8.53133 12.5391 8.73024 12.5391H15.7702C15.9691 12.5391 16.1599 12.6181 16.3006 12.7587C16.4412 12.8994 16.5202 13.0902 16.5202 13.2891C16.5531 14.4559 16.1224 15.5882 15.3223 16.4382C14.5222 17.2881 13.4179 17.7864 12.2512 17.8241ZM9.56624 14.0391C9.66951 14.6765 9.99628 15.2564 10.4881 15.6749C10.9798 16.0934 11.6045 16.3232 12.2503 16.3232C12.896 16.3232 13.5206 16.0934 14.0124 15.6749C14.5042 15.2564 14.8309 14.6765 14.9342 14.0391H9.56624Z" fill="black"/>
</svg>