<svg width="25" height="24" viewBox="0 0 25 24" fill="none" xmlns="http://www.w3.org/2000/svg">
<path opacity="0.4" fill-rule="evenodd" clip-rule="evenodd" d="M12.5 2.5C7.262 2.5 3 6.761 3 12C3 17.238 7.262 21.5 12.5 21.5C17.739 21.5 22 17.238 22 12C22 6.761 17.739 2.5 12.5 2.5Z" fill="black"/>
<path fill-rule="evenodd" clip-rule="evenodd" d="M16.9314 10.2798C16.8934 10.2858 16.8554 10.2888 16.8174 10.2888C16.4524 10.2888 16.1334 10.0228 16.0774 9.65178C16.0354 9.37578 15.8004 9.17578 15.5204 9.17578C15.2444 9.17578 15.0154 9.37278 14.9764 9.64378C14.9184 10.0538 14.5364 10.3348 14.1284 10.2808C13.7184 10.2228 13.4334 9.84378 13.4924 9.43378C13.6334 8.43178 14.5054 7.67578 15.5204 7.67578C16.5474 7.67578 17.4054 8.41178 17.5594 9.42578C17.6214 9.83478 17.3404 10.2178 16.9314 10.2798Z" fill="black"/>
<path fill-rule="evenodd" clip-rule="evenodd" d="M12.5013 17.2208C10.6443 17.2208 9.1333 15.6128 9.1333 13.6368C9.1333 13.3608 9.3573 13.1368 9.6333 13.1368H15.3693C15.6463 13.1368 15.8693 13.3608 15.8693 13.6368C15.8693 15.6128 14.3593 17.2208 12.5013 17.2208Z" fill="black"/>
<path fill-rule="evenodd" clip-rule="evenodd" d="M8.92635 9.65078C8.87035 10.0218 8.55035 10.2888 8.18635 10.2888C8.14935 10.2888 8.11135 10.2858 8.07335 10.2798C7.66335 10.2178 7.38135 9.83678 7.44435 9.42678C7.59635 8.41278 8.45235 7.67578 9.47735 7.67578C10.4943 7.67578 11.3693 8.43178 11.5103 9.43378C11.5693 9.84378 11.2843 10.2228 10.8733 10.2808C10.4553 10.3338 10.0843 10.0538 10.0263 9.64378C9.98735 9.37278 9.75635 9.17578 9.47735 9.17578C9.20335 9.17578 8.96735 9.38078 8.92635 9.65078Z" fill="black"/>
</svg>