<svg width="24" height="24" viewBox="0 0 24 24" fill="none" xmlns="http://www.w3.org/2000/svg">
<path d="M16.2246 21.75H7.79465C4.48465 21.75 2.26465 19.43 2.26465 15.97V8.02002C2.26465 4.57002 4.48465 2.25 7.79465 2.25H16.2246C19.5346 2.25 21.7546 4.57002 21.7546 8.02002V15.97C21.7546 19.43 19.5346 21.75 16.2246 21.75ZM7.79465 3.75C5.34465 3.75 3.76465 5.43002 3.76465 8.02002V15.97C3.76465 18.57 5.34465 20.25 7.79465 20.25H16.2246C18.6746 20.25 20.2546 18.57 20.2546 15.97V8.02002C20.2546 5.43002 18.6746 3.75 16.2246 3.75H7.79465Z" fill="black"/>
<path d="M18.7851 15.4819C16.3051 15.4819 15.2851 13.2719 14.5351 11.6619C14.4151 11.4019 14.2951 11.1519 14.1751 10.9119C13.3651 9.30187 11.6151 8.36196 9.86512 8.50196C10.0451 10.182 9.66512 12.4219 8.49512 13.9319C7.70512 14.9519 6.64512 15.4919 5.44512 15.4919C3.68512 15.4919 2.24512 14.052 2.24512 12.292V8.74195C2.24512 8.33195 2.58512 7.99195 2.99512 7.99195C3.40512 7.99195 3.74512 8.33195 3.74512 8.74195V12.292C3.74512 13.232 4.50512 13.9919 5.44512 13.9919C6.17512 13.9919 6.80512 13.662 7.31512 13.012C8.34512 11.702 8.61512 9.42202 8.27512 8.07202C8.22512 7.88202 8.25512 7.67196 8.35512 7.50196C8.45512 7.33196 8.62512 7.21187 8.81512 7.16187C11.5151 6.49187 14.2651 7.76195 15.5051 10.2419C15.6351 10.4919 15.7551 10.762 15.8851 11.032C16.7051 12.812 17.3551 13.9819 18.7751 13.9819C19.5851 13.9819 20.2451 13.322 20.2451 12.512V8.73194C20.2451 8.32194 20.5851 7.98194 20.9951 7.98194C21.4051 7.98194 21.7451 8.32194 21.7451 8.73194V12.512C21.7451 14.152 20.4151 15.4819 18.7751 15.4819H18.7851Z" fill="black"/>
</svg>