<svg width="24" height="24" viewBox="0 0 24 24" fill="none" xmlns="http://www.w3.org/2000/svg">
<path d="M12 21.75C6.62 21.75 2.25 17.38 2.25 12C2.25 6.62 6.62 2.25 12 2.25C17.38 2.25 21.75 6.62 21.75 12C21.75 17.38 17.38 21.75 12 21.75ZM12 3.75C7.45 3.75 3.75 7.45 3.75 12C3.75 16.55 7.45 20.25 12 20.25C16.55 20.25 20.25 16.55 20.25 12C20.25 7.45 16.55 3.75 12 3.75Z" fill="black"/>
<path d="M5.07001 14.6498C4.33001 14.6498 3.6 14.43 3.02 13.84C2.53 13.36 2.25 12.6799 2.25 11.9799C2.25 11.5699 2.59 11.2299 3 11.2299C3.41 11.2299 3.75 11.5699 3.75 11.9799C3.75 12.2799 3.87 12.57 4.08 12.78C4.85 13.55 6.48 12.95 7.34 12.3C8.65 11.32 8.98 9.86001 8.41 7.58001C8.36 7.39001 8.39001 7.17994 8.49001 7.00994C8.59001 6.83994 8.76 6.71985 8.95 6.66985C11.52 6.02985 14.14 7.24003 15.32 9.60003L15.38 9.72991C16.44 11.8399 17.21 13.12 19.04 13.12C19.67 13.12 20.18 12.6099 20.18 11.9799C20.18 11.5699 20.52 11.2299 20.93 11.2299C21.34 11.2299 21.68 11.5699 21.68 11.9799C21.68 13.4399 20.5 14.62 19.04 14.62C16.15 14.62 14.98 12.2798 14.03 10.4098L13.97 10.28C13.22 8.76996 11.66 7.89995 10.02 8.01995C10.28 9.43995 10.4 11.8599 8.21001 13.5099C7.43001 14.0999 6.20999 14.6598 5.03999 14.6598L5.07001 14.6498Z" fill="black"/>
</svg>