<svg width="24" height="24" viewBox="0 0 24 24" fill="none" xmlns="http://www.w3.org/2000/svg">
<path d="M7.78216 3H16.2169C19.165 3 21 5.08119 21 8.02638V15.9736C21 18.9188 19.165 21 16.2159 21H7.78216C4.83405 21 3 18.9188 3 15.9736V8.02638C3 5.08119 4.84281 3 7.78216 3Z" stroke="black" stroke-width="1.5" stroke-linecap="round" stroke-linejoin="round"/>
<path opacity="0.4" d="M3 8.73047V12.2846C3 13.6354 4.09507 14.7305 5.44591 14.7305C8.55851 14.7305 9.59989 10.2809 9 7.88452C11.3371 7.30014 13.7665 8.4175 14.8439 10.5723C15.7088 12.3021 16.4454 14.7305 18.7771 14.7305C20.0048 14.7305 21 13.7352 21 12.5075V8.73047" stroke="black" stroke-width="1.5" stroke-linecap="round" stroke-linejoin="round"/>
</svg>