<svg width="24" height="24" viewBox="0 0 24 24" fill="none" xmlns="http://www.w3.org/2000/svg">
<path d="M7.78216 3H16.2169C19.165 3 21 5.08119 21 8.02638V15.9736C21 18.9188 19.165 21 16.2159 21H7.78216C4.83405 21 3 18.9188 3 15.9736V8.02638C3 5.08119 4.84281 3 7.78216 3Z" stroke="black" stroke-width="1.5" stroke-linecap="round" stroke-linejoin="round"/>
<path d="M15.3949 7.44922H8.54515C7.99347 7.44922 7.54688 7.89679 7.54688 8.44846V15.8781C7.54688 16.4298 7.99347 16.8773 8.54515 16.8773H15.4552C16.0069 16.8773 16.4544 16.4298 16.4544 15.8781V11.7449C16.4544 11.1932 16.0069 10.7457 15.4552 10.7457H11.9009C11.3493 10.7457 10.9027 11.1932 10.9027 11.7449V12.8317C10.9027 13.3834 11.3493 13.83 11.9009 13.83H13.0792" stroke="black" stroke-width="1.5" stroke-linecap="round" stroke-linejoin="round"/>
<path d="M15.3945 7.45066C15.3945 7.22785 15.5736 7.04785 15.7964 7.04688C16.0192 7.04688 16.2002 7.22687 16.2002 7.44969C16.2002 7.6725 16.0202 7.8525 15.7973 7.8525C15.5755 7.8525 15.3955 7.6725 15.3945 7.45066Z" stroke="black" stroke-width="1.5" stroke-linecap="round" stroke-linejoin="round"/>
<path d="M13.0781 13.8413C13.0781 13.6185 13.2572 13.4385 13.48 13.4375C13.7028 13.4375 13.8837 13.6175 13.8837 13.8403C13.8837 14.0631 13.7037 14.2431 13.4809 14.2431C13.2591 14.2431 13.0791 14.0631 13.0781 13.8413Z" stroke="black" stroke-width="1.5" stroke-linecap="round" stroke-linejoin="round"/>
</svg>