<svg width="24" height="24" viewBox="0 0 24 24" fill="none" xmlns="http://www.w3.org/2000/svg">
<path fill-rule="evenodd" clip-rule="evenodd" d="M3.7402 3.89737C4.72468 2.84117 6.12669 2.25 7.78216 2.25H16.2169C17.8762 2.25 19.2788 2.84084 20.2629 3.89765C21.2413 4.94841 21.75 6.39889 21.75 8.02638V15.9736C21.75 17.6011 21.2413 19.0516 20.2627 20.1024C19.2785 21.1592 17.8756 21.75 16.2159 21.75H7.78216C6.1228 21.75 4.72038 21.1591 3.73657 20.1023C2.75842 19.0515 2.25 17.601 2.25 15.9736V8.02638C2.25 6.39806 2.76117 4.94771 3.7402 3.89737ZM4.83745 4.92012C4.16024 5.64666 3.75 6.70951 3.75 8.02638V15.9736C3.75 17.2914 4.15861 18.3541 4.83451 19.0802C5.50475 19.8003 6.49341 20.25 7.78216 20.25H16.2159C17.5052 20.25 18.4944 19.8002 19.165 19.0801C19.8412 18.354 20.25 17.2913 20.25 15.9736V8.02638C20.25 6.70868 19.8412 5.64597 19.1651 4.91984C18.4946 4.19975 17.5056 3.75 16.2169 3.75H7.78216C6.49828 3.75 5.50921 4.19943 4.83745 4.92012Z" fill="black"/>
<path fill-rule="evenodd" clip-rule="evenodd" d="M6.79688 8.44846C6.79688 7.48352 7.57831 6.69922 8.54515 6.69922H15.3949C15.8091 6.69922 16.1449 7.03501 16.1449 7.44922C16.1449 7.86343 15.8091 8.19922 15.3949 8.19922H8.54515C8.40863 8.19922 8.29688 8.31005 8.29688 8.44846V15.8781C8.29688 16.0165 8.40863 16.1273 8.54515 16.1273H15.4552C15.5927 16.1273 15.7044 16.0155 15.7044 15.8781V11.7449C15.7044 11.6074 15.5927 11.4957 15.4552 11.4957H11.9009C11.7644 11.4957 11.6527 11.6065 11.6527 11.7449V12.8317C11.6527 12.9692 11.7635 13.08 11.9009 13.08H13.0792C13.4934 13.08 13.8292 13.4158 13.8292 13.83C13.8292 14.2442 13.4934 14.58 13.0792 14.58H11.9009C10.935 14.58 10.1527 13.7976 10.1527 12.8317V11.7449C10.1527 10.78 10.9341 9.99565 11.9009 9.99565H15.4552C16.4211 9.99565 17.2044 10.779 17.2044 11.7449V15.8781C17.2044 16.844 16.4211 17.6273 15.4552 17.6273H8.54515C7.57831 17.6273 6.79688 16.843 6.79688 15.8781V8.44846Z" fill="black"/>
<path fill-rule="evenodd" clip-rule="evenodd" d="M15.7931 6.29689L15.7964 6.29688C16.431 6.29688 16.9502 6.81031 16.9502 7.44969C16.9502 8.08671 16.4344 8.6025 15.7973 8.6025C15.1607 8.6025 14.6473 8.0868 14.6445 7.45395L14.6445 7.45067C14.6445 6.81538 15.1569 6.29967 15.7931 6.29689ZM15.7964 7.10251C15.6054 7.10303 15.4502 7.25862 15.4502 7.44969C15.4502 7.44945 15.4502 7.44994 15.4502 7.44969L15.7964 7.4489V7.10251ZM15.7981 7.4489L15.7964 7.10251C15.7961 7.10251 15.7966 7.1025 15.7964 7.10251C15.9894 7.10251 16.1437 7.25821 16.1445 7.44738L15.7981 7.4489ZM15.7964 7.45067L15.4502 7.44969C15.4507 7.64299 15.6076 7.79688 15.7964 7.79688V7.45067ZM15.7981 7.45067H16.1445C16.1445 7.64033 15.9902 7.79604 15.7996 7.79688L15.7981 7.45067Z" fill="black"/>
<path fill-rule="evenodd" clip-rule="evenodd" d="M13.4767 12.6875L13.48 12.6875C14.1146 12.6875 14.6337 13.2009 14.6337 13.8403C14.6337 14.4773 14.118 14.9931 13.4809 14.9931C12.8443 14.9931 12.3309 14.4774 12.3281 13.8446L12.3281 13.8413C12.3281 13.206 12.8405 12.6903 13.4767 12.6875ZM13.48 13.4931C13.289 13.4937 13.1337 13.6492 13.1337 13.8403C13.1337 13.8401 13.1337 13.8406 13.1337 13.8403L13.48 13.8395V13.4931ZM13.4817 13.8395L13.48 13.4931C13.4797 13.4931 13.4802 13.4931 13.48 13.4931C13.673 13.4931 13.8273 13.6488 13.8281 13.838L13.4817 13.8395ZM13.48 13.8413L13.1337 13.8403C13.1343 14.0336 13.2912 14.1875 13.48 14.1875V13.8413ZM13.4817 13.8413H13.8281C13.8281 14.031 13.6738 14.1867 13.4832 14.1875L13.4817 13.8413Z" fill="black"/>
</svg>