<svg width="24" height="24" viewBox="0 0 24 24" fill="none" xmlns="http://www.w3.org/2000/svg">
<path fill-rule="evenodd" clip-rule="evenodd" d="M12 3.75C7.44329 3.75 3.75 7.44329 3.75 12C3.75 16.5567 7.44329 20.25 12 20.25C16.5567 20.25 20.25 16.5567 20.25 12C20.25 7.44329 16.5567 3.75 12 3.75ZM2.25 12C2.25 6.61487 6.61487 2.25 12 2.25C17.3851 2.25 21.75 6.61487 21.75 12C21.75 17.3851 17.3851 21.75 12 21.75C6.61487 21.75 2.25 17.3851 2.25 12Z" fill="black"/>
<path fill-rule="evenodd" clip-rule="evenodd" d="M13.3231 12.5742L13.3268 12.5742C13.9378 12.5742 14.4387 13.0689 14.4387 13.6852C14.4387 14.2989 13.9414 14.7962 13.3278 14.7962C12.7177 14.7962 12.2168 14.3015 12.2168 13.6862C12.2168 13.0744 12.7104 12.5772 13.3231 12.5742ZM13.3268 13.3242L13.3305 14.0742C13.5443 14.0732 13.7168 13.899 13.7168 13.6862C13.7168 13.6858 13.7168 13.6865 13.7168 13.6862C13.7163 13.4683 13.5405 13.2962 13.3278 13.2962C13.3274 13.2962 13.3281 13.2962 13.3278 13.2962C13.3277 13.2962 13.3267 13.2962 13.3267 13.2962C13.1124 13.2968 12.9387 13.4708 12.9387 13.6852C12.9387 13.6849 12.9387 13.6855 12.9387 13.6852C12.9393 13.9021 13.115 14.0742 13.3268 14.0742V13.3242Z" fill="black"/>
<path fill-rule="evenodd" clip-rule="evenodd" d="M15.3974 6.84377L15.401 6.84375C16.0121 6.84376 16.513 7.33843 16.513 7.95473C16.513 8.56841 16.0157 9.0657 15.402 9.0657C14.7919 9.0657 14.291 8.57104 14.291 7.9557C14.291 7.34396 14.7846 6.84676 15.3974 6.84377ZM15.401 7.59376L15.4047 8.34375C15.6185 8.34271 15.791 8.16853 15.791 7.9557C15.791 7.95538 15.791 7.95603 15.791 7.9557C15.7905 7.73781 15.6148 7.5657 15.402 7.5657C15.4017 7.5657 15.4023 7.5657 15.402 7.5657C15.4019 7.5657 15.4009 7.56571 15.4009 7.56571C15.1866 7.56631 15.013 7.74035 15.013 7.95473C15.013 7.95441 15.013 7.95506 15.013 7.95473C15.0135 8.17165 15.1892 8.34376 15.401 8.34376V7.59376Z" fill="black"/>
<path fill-rule="evenodd" clip-rule="evenodd" d="M7.25977 8.85217C7.25977 7.94368 7.99642 7.20703 8.9049 7.20703H15.0424C15.4566 7.20703 15.7924 7.54282 15.7924 7.95703C15.7924 8.37124 15.4566 8.70703 15.0424 8.70703H8.9049C8.82484 8.70703 8.75977 8.77211 8.75977 8.85217V15.5102C8.75977 15.5892 8.82378 15.6544 8.9049 15.6544H15.0969C15.177 15.6544 15.2411 15.5903 15.2411 15.5102V11.8061C15.2411 11.725 15.1759 11.661 15.0969 11.661H11.9114C11.8324 11.661 11.7672 11.725 11.7672 11.8061V12.7801C11.7672 12.8612 11.8324 12.9252 11.9114 12.9252H12.9671C13.3813 12.9252 13.7171 13.261 13.7171 13.6752C13.7171 14.0894 13.3813 14.4252 12.9671 14.4252H11.9114C11.0018 14.4252 10.2672 13.6875 10.2672 12.7801V11.8061C10.2672 10.8987 11.0018 10.161 11.9114 10.161H15.0969C16.0064 10.161 16.7411 10.8987 16.7411 11.8061V15.5102C16.7411 16.4187 16.0054 17.1544 15.0969 17.1544H8.9049C7.99748 17.1544 7.25977 16.4198 7.25977 15.5102V8.85217Z" fill="black"/>
</svg>