<svg width="24" height="24" viewBox="0 0 24 24" fill="none" xmlns="http://www.w3.org/2000/svg">
<path d="M16.887 15.8934C16.3353 21.0092 10.298 22.0104 7.04347 20.0956C3.40651 17.9561 2.45397 13.1934 3.48532 9.35209C4.32694 6.21232 6.86638 3.95114 10.0207 3.25547C14.3184 2.3078 19.5646 3.97644 20.7623 8.59999C20.8149 8.80528 20.9112 9.5642 20.9053 9.64106C19.406 9.64106 17.9125 9.64106 16.4637 9.64106C15.8975 8.15826 15.2835 6.91091 13.6207 6.45654C11.7497 5.94573 9.72205 6.7027 8.54378 8.24291C6.63774 10.7366 7.02206 14.8445 9.48075 16.8449C10.5063 17.6788 11.9219 17.9765 13.2121 17.6914C15.2174 17.2477 16.8811 15.296 16.886 13.2138" stroke="black" stroke-width="1.5" stroke-linecap="round" stroke-linejoin="round"/>
<path d="M12.9766 12.8906H20.9043V20.7152H16.8937V12.8906" stroke="black" stroke-width="1.5" stroke-linecap="round" stroke-linejoin="round"/>
</svg>