<svg width="24" height="24" viewBox="0 0 24 24" fill="none" xmlns="http://www.w3.org/2000/svg">
<path d="M20.7621 8.59987C20.8147 8.80517 20.911 9.56408 20.9052 9.64095C19.4058 9.64095 17.9123 9.64095 16.4636 9.64095C15.8973 8.15814 15.2833 6.9108 13.6205 6.45642C11.7495 5.94561 9.72185 6.70258 8.54359 8.24279C6.63754 10.7365 7.02186 14.8444 9.48056 16.8448C10.5061 17.6786 11.9217 17.9764 13.2119 17.6913C15.2172 17.2476 16.881 15.2958 16.8858 13.2137" stroke="black" stroke-width="1.5" stroke-linecap="round" stroke-linejoin="round"/>
<path d="M12.9766 12.8906H20.9043V20.7152H16.8937V12.8906" stroke="black" stroke-width="1.5" stroke-linecap="round" stroke-linejoin="round"/>
<path opacity="0.4" d="M16.887 15.8934C16.3353 21.0092 10.298 22.0104 7.04347 20.0956C3.40651 17.9561 2.45397 13.1934 3.48532 9.35209C4.32694 6.21232 6.86638 3.95114 10.0207 3.25547C14.3184 2.3078 19.5646 3.97644 20.7623 8.59999" stroke="black" stroke-width="1.5" stroke-linecap="round" stroke-linejoin="round"/>
</svg>