<svg width="25" height="25" viewBox="0 0 25 25" fill="none" xmlns="http://www.w3.org/2000/svg">
<path fill-rule="evenodd" clip-rule="evenodd" d="M3.5 4.98438C3.91421 4.98438 4.25 5.32016 4.25 5.73438V11.3373H11.2206V5.73438C11.2206 5.32016 11.5563 4.98438 11.9706 4.98438C12.3848 4.98438 12.7206 5.32016 12.7206 5.73438V18.4402C12.7206 18.8544 12.3848 19.1902 11.9706 19.1902C11.5563 19.1902 11.2206 18.8544 11.2206 18.4402V12.8373H4.25V18.4402C4.25 18.8544 3.91421 19.1902 3.5 19.1902C3.08579 19.1902 2.75 18.8544 2.75 18.4402V5.73438C2.75 5.32016 3.08579 4.98438 3.5 4.98438Z" fill="black"/>
<path fill-rule="evenodd" clip-rule="evenodd" d="M16.4326 16.3945C16.0184 16.3945 15.6826 16.0587 15.6826 15.6445V13.2542C15.6826 11.025 17.4898 9.21777 19.719 9.21777H20.4912C20.9054 9.21777 21.2412 9.55355 21.2412 9.96777C21.2412 10.382 20.9054 10.7178 20.4912 10.7178H19.719C18.3182 10.7178 17.1826 11.8534 17.1826 13.2542V15.6445C17.1826 16.0587 16.8468 16.3945 16.4326 16.3945Z" fill="black"/>
<path fill-rule="evenodd" clip-rule="evenodd" d="M18.9665 17.6875C19.9515 17.6875 20.75 16.889 20.75 15.904C20.75 14.919 19.9515 14.1205 18.9665 14.1205C17.9815 14.1205 17.183 14.919 17.183 15.904C17.183 16.889 17.9815 17.6875 18.9665 17.6875ZM22.25 15.904C22.25 17.7174 20.7799 19.1875 18.9665 19.1875C17.1531 19.1875 15.683 17.7174 15.683 15.904C15.683 14.0906 17.1531 12.6205 18.9665 12.6205C20.7799 12.6205 22.25 14.0906 22.25 15.904Z" fill="black"/>
</svg>