<svg width="25" height="24" viewBox="0 0 25 24" fill="none" xmlns="http://www.w3.org/2000/svg">
<path fill-rule="evenodd" clip-rule="evenodd" d="M14.6302 3.94593L14.6273 3.94675C14.6215 3.9484 14.6091 3.95204 14.5911 3.95795C14.555 3.96981 14.4975 3.9905 14.4258 4.02218C14.2808 4.08625 14.0881 4.19088 13.899 4.35034C13.5963 4.60555 13.2727 5.02243 13.1951 5.73207C14.0539 5.90765 14.7962 6.40516 15.2757 7.09924C15.4316 6.89133 15.7019 6.7458 15.9212 6.63041C17.3475 5.91209 19.0658 6.0992 20.2831 7.14082C21.9495 8.57747 22.2926 11.1181 22.0431 13.1795C21.7832 15.3563 20.8767 17.5529 19.4089 19.1984C18.1074 20.6455 16.2373 21.3326 14.3318 20.8014C13.7902 21.1143 13.1623 21.2806 12.496 21.2806C11.8296 21.2806 11.2204 21.1143 10.6788 20.8014C8.77337 21.3326 6.90427 20.6455 5.60277 19.1984C4.13494 17.5529 3.22846 15.3563 2.95818 13.1795C2.70765 11.1181 3.05174 8.57747 4.71812 7.14082C5.93542 6.0992 7.66418 5.91209 9.09043 6.63041C9.30873 6.7458 9.56965 6.89133 9.72559 7.08885C10.1964 6.43789 10.8862 5.95812 11.6873 5.76117C11.7669 4.52795 12.3318 3.70967 12.9321 3.20352C13.2545 2.93171 13.577 2.75733 13.8194 2.65022C13.9631 2.58669 14.1117 2.52959 14.2644 2.49122L14.2663 2.49076C14.2686 2.49018 14.268 2.49034 14.268 2.49034C14.6704 2.39206 15.0762 2.63858 15.1745 3.04096C15.2723 3.44122 15.0289 3.84494 14.6302 3.94593ZM7.82685 10.9862C7.95957 10.5938 8.38524 10.3833 8.77762 10.5161L10.1009 10.9636C10.4932 11.0963 10.7037 11.522 10.571 11.9144C10.4383 12.3068 10.0126 12.5173 9.62026 12.3846L8.29701 11.937C7.90463 11.8043 7.69414 11.3786 7.82685 10.9862ZM16.7044 11.937C17.0968 11.8043 17.3073 11.3786 17.1745 10.9862C17.0418 10.5938 16.6162 10.3833 16.2238 10.5161L14.9005 10.9636C14.5082 11.0963 14.2977 11.522 14.4304 11.9144C14.5631 12.3068 14.9888 12.5173 15.3811 12.3846L16.7044 11.937ZM9.9725 14.5617C9.64735 14.3051 9.17574 14.3606 8.91912 14.6858C8.6625 15.0109 8.71805 15.4825 9.04319 15.7391L10.419 16.825C10.6738 17.0261 11.0291 17.0405 11.2993 16.8605L12.4999 16.0611L13.7013 16.8607C13.9716 17.0405 14.3269 17.0261 14.5817 16.8248L15.9565 15.739C16.2816 15.4823 16.337 15.0106 16.0802 14.6856C15.8235 14.3605 15.3519 14.3051 15.0268 14.5619L14.0792 15.3103L12.9153 14.5358C12.6635 14.3682 12.3358 14.3683 12.0841 14.5359L10.921 15.3103L9.9725 14.5617Z" fill="black"/>
</svg>