<svg width="25" height="24" viewBox="0 0 25 24" fill="none" xmlns="http://www.w3.org/2000/svg">
<path d="M10.5938 16.7005C11.3083 16.5965 12.0356 16.7015 12.757 16.6848C14.4304 16.6446 15.7416 15.2303 17.0155 14.2704C17.6662 13.7807 18.578 13.8455 19.1531 14.4235C19.7921 15.0644 19.7921 16.1048 19.1531 16.7457C17.7771 18.1266 16.5621 19.4084 14.6973 20.1336C12.1102 21.1396 9.70955 20.6509 7.08905 20.1336C6.07521 19.9325 5.14086 19.9207 4.11426 19.9207" stroke="black" stroke-width="1.5" stroke-linecap="round" stroke-linejoin="round"/>
<path d="M10.5919 16.6597H12.0042C13.0131 16.6597 13.8277 15.9344 13.8277 14.9255C13.8277 14.0873 13.2605 13.417 12.4478 13.2129C11.2848 12.9214 10.1237 12.6927 8.90966 12.7211C6.98502 12.7683 5.63944 13.84 4.11426 14.8617" stroke="black" stroke-width="1.5" stroke-linecap="round" stroke-linejoin="round"/>
<path d="M15.4756 3.79028L15.6158 4.16914C16.1444 5.59769 17.2707 6.72402 18.6993 7.25263L19.0781 7.39282L18.6993 7.53301C17.2707 8.06162 16.1444 9.18795 15.6158 10.6165L15.4756 10.9954L15.3354 10.6165C14.8068 9.18795 13.6805 8.06162 12.2519 7.53301L11.873 7.39282L12.2519 7.25263C13.6805 6.72402 14.8068 5.59769 15.3354 4.16914L15.4756 3.79028Z" stroke="black" stroke-width="1.5" stroke-linecap="round" stroke-linejoin="round"/>
<path d="M8.10498 2.34131C8.40856 3.33875 9.18913 4.11936 10.1865 4.42295C9.18913 4.72654 8.40856 5.50715 8.10498 6.50459C7.8014 5.50715 7.02083 4.72654 6.02344 4.42295C7.02083 4.11936 7.8014 3.33875 8.10498 2.34131Z" stroke="black" stroke-width="1.5" stroke-linecap="round" stroke-linejoin="round"/>
</svg>