<svg width="24" height="24" viewBox="0 0 24 24" fill="none" xmlns="http://www.w3.org/2000/svg">
<path opacity="0.4" fill-rule="evenodd" clip-rule="evenodd" d="M4.8 11.1504C4.63432 11.1504 4.5 11.2847 4.5 11.4504V17.1004C4.5 19.7324 6.188 21.5004 8.7 21.5004H15.3C17.812 21.5004 19.5 19.7324 19.5 17.1004V11.4504C19.5 11.2847 19.3657 11.1504 19.2 11.1504H4.8Z" fill="black"/>
<path fill-rule="evenodd" clip-rule="evenodd" d="M19.2 9.65C19.3657 9.65 19.5 9.51569 19.5 9.35V6.9C19.5 4.268 17.812 2.5 15.3 2.5H8.7C6.188 2.5 4.5 4.268 4.5 6.9V9.35C4.5 9.51569 4.63431 9.65 4.8 9.65H19.2Z" fill="black"/>
<path fill-rule="evenodd" clip-rule="evenodd" d="M16.23 17.7312C16.09 17.8712 15.9 17.9512 15.7 17.9512C15.5 17.9512 15.31 17.8712 15.17 17.7312C15.03 17.5912 14.95 17.4012 14.95 17.2012C14.95 17.0012 15.03 16.8112 15.17 16.6712C15.45 16.3912 15.95 16.3912 16.23 16.6712C16.37 16.8112 16.45 17.0012 16.45 17.2012C16.45 17.4012 16.37 17.5912 16.23 17.7312ZM14.2 15.8512C14.1 15.8512 14 15.8312 13.91 15.7912C13.82 15.7512 13.74 15.7012 13.67 15.6312C13.53 15.4912 13.45 15.3012 13.45 15.1012C13.45 14.9012 13.53 14.7112 13.67 14.5712C13.74 14.5012 13.82 14.4512 13.91 14.4112C14.19 14.3012 14.52 14.3612 14.73 14.5712C14.87 14.7112 14.95 14.9012 14.95 15.1012C14.95 15.3012 14.87 15.4912 14.73 15.6312C14.59 15.7712 14.4 15.8512 14.2 15.8512ZM11.1 16.7512H10.55V17.3012C10.55 17.7152 10.214 18.0512 9.80002 18.0512C9.38602 18.0512 9.05002 17.7152 9.05002 17.3012V16.7512H8.40002C7.98602 16.7512 7.65002 16.4152 7.65002 16.0012C7.65002 15.5872 7.98602 15.2512 8.40002 15.2512H9.05002V14.7012C9.05002 14.2872 9.38602 13.9512 9.80002 13.9512C10.214 13.9512 10.55 14.2872 10.55 14.7012V15.2512H11.1C11.514 15.2512 11.85 15.5872 11.85 16.0012C11.85 16.4152 11.514 16.7512 11.1 16.7512Z" fill="black"/>
</svg>