<svg width="25" height="24" viewBox="0 0 25 24" fill="none" xmlns="http://www.w3.org/2000/svg">
<path fill-rule="evenodd" clip-rule="evenodd" d="M12.9103 7.10938H6.79884C4.66894 7.10938 3.33398 8.61753 3.33398 10.7513V15.8644C3.33398 17.9982 4.66213 19.5064 6.79884 19.5064H12.9093C15.046 19.5064 16.3761 17.9982 16.3761 15.8644V10.7513C16.3761 8.61753 15.046 7.10938 12.9103 7.10938Z" stroke="black" stroke-width="1.5" stroke-linecap="round" stroke-linejoin="round"/>
<path d="M7.3252 4.49219H10.2345C11.1257 4.49219 11.9353 5.00982 12.3099 5.81839L12.9063 7.10761" stroke="black" stroke-width="1.5" stroke-linecap="round" stroke-linejoin="round"/>
<path opacity="0.4" d="M16.3691 11.1748L19.4351 8.66544C19.9313 8.25873 20.664 8.3317 21.0707 8.82793C21.241 9.03616 21.3344 9.29692 21.3334 9.56547L21.3227 16.4066C21.3207 17.0488 20.8002 17.5684 20.158 17.5665C19.8904 17.5665 19.6306 17.473 19.4234 17.3028L16.3691 14.7944" stroke="black" stroke-width="1.5" stroke-linecap="round" stroke-linejoin="round"/>
<path d="M12.2004 11.2661V11.218M12.2004 10.9648C12.0622 10.9648 11.9502 11.0768 11.9502 11.2146C11.9502 11.3528 12.0622 11.4648 12.2004 11.4648C12.3387 11.4648 12.4507 11.3528 12.4507 11.2146C12.4507 11.0768 12.3387 10.9648 12.2004 10.9648Z" stroke="black" stroke-width="1.5" stroke-linecap="round" stroke-linejoin="round"/>
</svg>