<svg width="25" height="24" viewBox="0 0 25 24" fill="none" xmlns="http://www.w3.org/2000/svg">
<path fill-rule="evenodd" clip-rule="evenodd" d="M3.46904 7.61883C4.22538 6.8073 5.29808 6.35938 6.54884 6.35938H12.6603C13.9135 6.35938 14.9867 6.80699 15.7429 7.61905C16.4935 8.42509 16.8761 9.52944 16.8761 10.7513V15.8644C16.8761 17.0863 16.4935 18.1907 15.7428 18.9968C14.9864 19.8088 13.9129 20.2564 12.6593 20.2564H6.54884C5.2952 20.2564 4.22206 19.8088 3.46612 18.9965C2.71587 18.1904 2.33398 17.086 2.33398 15.8644V10.7513C2.33398 9.52872 2.71817 8.4245 3.46904 7.61883ZM4.56636 8.64152C4.11728 9.12337 3.83398 9.84012 3.83398 10.7513V15.8644C3.83398 16.7766 4.11618 17.4933 4.56417 17.9746C5.00649 18.4499 5.66577 18.7564 6.54884 18.7564H12.6593C13.5424 18.7564 14.2023 18.4499 14.6451 17.9744C15.0936 17.4929 15.3761 16.7763 15.3761 15.8644V10.7513C15.3761 9.8394 15.0936 9.12278 14.6452 8.6413C14.2024 8.16583 13.5428 7.85938 12.6603 7.85938H6.54884C5.6697 7.85938 5.00998 8.16553 4.56636 8.64152Z" fill="black"/>
<path fill-rule="evenodd" clip-rule="evenodd" d="M10.9512 11.2146C10.9512 10.6617 11.3999 10.2148 11.9514 10.2148C12.5029 10.2148 12.9516 10.6617 12.9516 11.2146C12.9516 11.7671 12.5039 12.2148 11.9514 12.2148C11.399 12.2148 10.9512 11.7671 10.9512 11.2146Z" fill="black"/>
<path d="M12.6582 7.85719C12.5151 7.85731 12.375 7.8164 12.2545 7.7393C12.134 7.66219 12.0381 7.55214 11.9782 7.42219L11.3782 6.13319C11.2543 5.8675 11.0574 5.6426 10.8103 5.4848C10.5633 5.32701 10.2764 5.24285 9.98322 5.24219H7.07422C6.87531 5.24219 6.68454 5.16317 6.54388 5.02252C6.40323 4.88187 6.32422 4.6911 6.32422 4.49219C6.32422 4.29328 6.40323 4.10251 6.54388 3.96186C6.68454 3.82121 6.87531 3.74219 7.07422 3.74219H9.98322C10.5625 3.74327 11.1295 3.90952 11.6176 4.22143C12.1058 4.53334 12.4948 4.97797 12.7392 5.50319L13.3392 6.79219C13.3921 6.9065 13.4154 7.03229 13.4069 7.15795C13.3983 7.28362 13.3583 7.40512 13.2904 7.51123C13.2226 7.61735 13.1291 7.70466 13.0186 7.76512C12.9081 7.82559 12.7842 7.85725 12.6582 7.85719V7.85719Z" fill="black"/>
<path d="M19.9205 18.313H19.9145C19.4737 18.3121 19.0466 18.1591 18.7055 17.88L15.6525 15.371C15.5728 15.3097 15.5062 15.2331 15.4567 15.1456C15.4072 15.0581 15.3757 14.9616 15.3643 14.8617C15.3528 14.7619 15.3615 14.6607 15.3899 14.5643C15.4183 14.4679 15.4658 14.3781 15.5296 14.3004C15.5933 14.2227 15.6721 14.1586 15.7611 14.112C15.8501 14.0653 15.9476 14.037 16.0478 14.0287C16.148 14.0205 16.2488 14.0324 16.3442 14.0639C16.4397 14.0954 16.5279 14.1457 16.6035 14.212L19.6565 16.72C19.7297 16.7802 19.8216 16.8131 19.9165 16.813V16.813C19.9706 16.8135 20.0243 16.8032 20.0744 16.7828C20.1246 16.7624 20.1702 16.7322 20.2085 16.694C20.2472 16.6556 20.2779 16.61 20.2988 16.5597C20.3198 16.5094 20.3305 16.4554 20.3305 16.401L20.3405 9.56096C20.3416 9.46566 20.3086 9.3731 20.2475 9.29996C20.2133 9.25801 20.171 9.22324 20.1233 9.19765C20.0756 9.17207 20.0232 9.15618 19.9693 9.15088C19.9154 9.14558 19.861 9.15099 19.8092 9.16679C19.7574 9.18259 19.7093 9.20848 19.6675 9.24296L16.6015 11.752C16.5256 11.8173 16.4375 11.8668 16.3422 11.8975C16.2469 11.9282 16.1464 11.9395 16.0467 11.9308C15.947 11.922 15.85 11.8934 15.7615 11.8466C15.673 11.7998 15.5948 11.7358 15.5314 11.6583C15.4681 11.5808 15.4209 11.4914 15.3926 11.3953C15.3644 11.2993 15.3556 11.1986 15.3669 11.0991C15.3782 10.9996 15.4093 10.9034 15.4583 10.8161C15.5074 10.7289 15.5734 10.6523 15.6525 10.591L18.7175 8.08195C18.9977 7.85209 19.3375 7.70665 19.6972 7.6626C20.057 7.61856 20.4219 7.67772 20.7492 7.83318C21.0766 7.98865 21.3531 8.23401 21.5463 8.54064C21.7395 8.84727 21.8415 9.20253 21.8405 9.56496L21.8305 16.405C21.83 16.9113 21.6284 17.3968 21.27 17.7546C20.9116 18.1124 20.4259 18.3132 19.9195 18.313H19.9205Z" fill="black"/>
</svg>