<svg width="25" height="24" viewBox="0 0 25 24" fill="none" xmlns="http://www.w3.org/2000/svg">
<path d="M12.499 5.03906C16.3433 5.03906 19.46 8.15472 19.46 11.999C19.46 15.8433 16.3433 18.959 12.499 18.959C8.6558 18.959 5.53906 15.8433 5.53906 11.999C5.53906 8.15472 8.6558 5.03906 12.499 5.03906Z" stroke="black" stroke-width="1.5" stroke-linecap="round" stroke-linejoin="round"/>
<path opacity="0.4" d="M7.69727 17.0391L8.4205 20.4844C8.60537 21.3677 9.38482 22.0001 10.2875 22.0001H14.4518C15.3523 22.0001 16.1296 21.372 16.3177 20.492L16.9988 17.3093" stroke="black" stroke-width="1.5" stroke-linecap="round" stroke-linejoin="round"/>
<path opacity="0.4" d="M17.2996 6.96105L16.5764 3.5135C16.3915 2.63135 15.6131 2 14.7126 2H10.5472C9.6456 2 8.86723 2.63027 8.67912 3.51134L7.99805 6.69078" stroke="black" stroke-width="1.5" stroke-linecap="round" stroke-linejoin="round"/>
<path d="M14.6677 13.602L12.4277 12.2658V9.38477" stroke="black" stroke-width="1.5" stroke-linecap="round" stroke-linejoin="round"/>
</svg>