<svg width="25" height="24" viewBox="0 0 25 24" fill="none" xmlns="http://www.w3.org/2000/svg">
<path fill-rule="evenodd" clip-rule="evenodd" d="M13.4103 7.10938H7.29884C5.16894 7.10938 3.83398 8.61753 3.83398 10.7513V15.8644C3.83398 17.9982 5.16213 19.5064 7.29884 19.5064H13.4093C15.546 19.5064 16.8761 17.9982 16.8761 15.8644V10.7513C16.8761 8.61753 15.546 7.10938 13.4103 7.10938Z" stroke="black" stroke-width="1.5" stroke-linecap="round" stroke-linejoin="round"/>
<path d="M7.82422 4.49219H10.7335C11.6248 4.49219 12.4343 5.00982 12.8089 5.81839L13.4054 7.10761" stroke="black" stroke-width="1.5" stroke-linecap="round" stroke-linejoin="round"/>
<path d="M16.8691 11.1748L19.9351 8.66544C20.4313 8.25873 21.164 8.3317 21.5707 8.82793C21.741 9.03616 21.8344 9.29692 21.8334 9.56547L21.8227 16.4066C21.8207 17.0488 21.3002 17.5684 20.658 17.5665C20.3904 17.5665 20.1306 17.473 19.9234 17.3028L16.8691 14.7944" stroke="black" stroke-width="1.5" stroke-linecap="round" stroke-linejoin="round"/>
<path d="M12.7014 11.2661V11.218M12.7014 10.9648C12.5632 10.9648 12.4512 11.0768 12.4512 11.2146C12.4512 11.3528 12.5632 11.4648 12.7014 11.4648C12.8396 11.4648 12.9516 11.3528 12.9516 11.2146C12.9516 11.0768 12.8396 10.9648 12.7014 10.9648Z" stroke="black" stroke-width="1.5" stroke-linecap="round" stroke-linejoin="round"/>
</svg>