<svg width="24" height="24" viewBox="0 0 24 24" fill="none" xmlns="http://www.w3.org/2000/svg">
<path d="M11.9999 21.75C11.5899 21.75 11.2499 21.41 11.2499 21V19.92C6.71991 19.54 3.1499 15.73 3.1499 11.1C3.1499 6.21998 7.11991 2.25 11.9999 2.25C16.8799 2.25 20.8499 6.21998 20.8499 11.1C20.8499 15.98 16.0499 21.75 11.9999 21.75ZM11.9999 3.75C7.94991 3.75 4.6499 7.04998 4.6499 11.1C4.6499 15.15 7.94991 18.45 11.9999 18.45C12.4099 18.45 12.7499 18.79 12.7499 19.2V20.16C15.8299 19.47 19.3499 14.81 19.3499 11.1C19.3499 7.04998 16.0499 3.75 11.9999 3.75Z" fill="black"/>
<path d="M14.7001 14.5484C14.4401 14.5484 14.2001 14.4184 14.0701 14.1984C13.9401 13.9784 13.9101 13.7084 14.0201 13.4784C14.0801 13.3584 14.1801 13.0584 14.2401 12.7484C13.3401 12.7484 12.6001 12.0084 12.6001 11.0984V9.2984C12.6001 8.3884 13.3401 7.64844 14.2501 7.64844H16.0501C16.9601 7.64844 17.7001 8.3884 17.7001 9.2984V11.5484C17.7001 13.1984 16.3501 14.5484 14.7001 14.5484ZM14.2501 9.14844C14.1701 9.14844 14.1001 9.2184 14.1001 9.2984V11.0984C14.1001 11.1784 14.1701 11.2484 14.2501 11.2484H14.9701C15.3201 11.2484 15.6201 11.4884 15.7001 11.8284C15.7601 12.0884 15.7801 12.3584 15.7601 12.6084C16.0301 12.3384 16.2001 11.9584 16.2001 11.5484V9.2984C16.2001 9.2184 16.1301 9.14844 16.0501 9.14844H14.2501Z" fill="black"/>
<path d="M8.40027 14.5484C8.14027 14.5484 7.91029 14.4184 7.77029 14.1984C7.63029 13.9784 7.61028 13.7084 7.72028 13.4784C7.77028 13.3584 7.88028 13.0584 7.94028 12.7484C7.04028 12.7484 6.30029 12.0084 6.30029 11.0984V9.2984C6.30029 8.3884 7.04029 7.64844 7.95029 7.64844H9.75027C10.6603 7.64844 11.4003 8.3884 11.4003 9.2984V11.5484C11.4003 13.1984 10.0503 14.5484 8.40027 14.5484ZM7.95029 9.14844C7.87029 9.14844 7.80029 9.2184 7.80029 9.2984V11.0984C7.80029 11.1784 7.87029 11.2484 7.95029 11.2484H8.67029C9.02029 11.2484 9.32027 11.4884 9.40027 11.8284C9.46027 12.0884 9.4803 12.3584 9.4603 12.6084C9.7303 12.3384 9.90027 11.9584 9.90027 11.5484V9.2984C9.90027 9.2184 9.83027 9.14844 9.75027 9.14844H7.95029Z" fill="black"/>
</svg>