<svg width="24" height="24" viewBox="0 0 24 24" fill="none" xmlns="http://www.w3.org/2000/svg">
<path d="M21 12.0005C21 16.9709 16.9709 21 12.0005 21C7.0291 21 3 16.9709 3 12.0005C3 7.0291 7.0291 3 12.0005 3" stroke="black" stroke-width="1.5" stroke-linecap="round" stroke-linejoin="round"/>
<path d="M9.06934 10.5046V10M15.5305 10.5046V10" stroke="black" stroke-width="1.5" stroke-linecap="round" stroke-linejoin="round"/>
<path d="M9.12012 14.2891C9.82079 15.2014 10.8539 15.7706 12.0001 15.7706C13.1463 15.7706 14.1794 15.2014 14.8801 14.2891" stroke="black" stroke-width="1.5" stroke-linecap="round" stroke-linejoin="round"/>
<path fill-rule="evenodd" clip-rule="evenodd" d="M21.5017 5.43501C21.7841 4.55302 21.4543 3.54511 20.5286 3.24711C20.0411 3.09122 19.5087 3.18056 19.0991 3.48755C18.6896 3.18355 18.1596 3.09422 17.6727 3.24711C16.747 3.54511 16.4148 4.55302 16.6972 5.43501C17.1367 6.83205 19.0991 7.90892 19.0991 7.90892C19.0991 7.90892 21.0472 6.84824 21.5017 5.43501Z" stroke="black" stroke-width="1.5" stroke-linecap="round" stroke-linejoin="round"/>
</svg>