<svg width="25" height="24" viewBox="0 0 25 24" fill="none" xmlns="http://www.w3.org/2000/svg">
<path d="M12.2505 21.0009C7.2791 21.0009 3.25 16.9718 3.25 12.0005C3.25 8.42982 5.32929 5.34496 8.34348 3.89062" stroke="black" stroke-width="1.5" stroke-linecap="round" stroke-linejoin="round"/>
<path d="M21.2495 11.9995C21.2495 7.0291 17.2204 3 12.25 3" stroke="black" stroke-width="1.5" stroke-linecap="round" stroke-linejoin="round"/>
<path d="M21.4743 18.5382H17.2056M19.3404 16.3984V20.674" stroke="black" stroke-width="1.5" stroke-linecap="round" stroke-linejoin="round"/>
<path d="M9.31934 9.50533V9.45377M9.27381 9.30078C9.14981 9.30078 9.04881 9.40178 9.04981 9.52578C9.04981 9.64978 9.15081 9.75078 9.27481 9.75078C9.39881 9.75078 9.49981 9.64978 9.49981 9.52578C9.49981 9.40078 9.39881 9.30078 9.27381 9.30078Z" stroke="black" stroke-width="1.5" stroke-linecap="round" stroke-linejoin="round"/>
<path d="M15.7805 9.50533V9.45377M15.7738 9.30078C15.6498 9.30078 15.5488 9.40178 15.5498 9.52578C15.5498 9.64978 15.6508 9.75078 15.7748 9.75078C15.8988 9.75078 15.9998 9.64978 15.9998 9.52578C15.9998 9.40078 15.8988 9.30078 15.7738 9.30078Z" stroke="black" stroke-width="1.5" stroke-linecap="round" stroke-linejoin="round"/>
<path fill-rule="evenodd" clip-rule="evenodd" d="M15.3509 13.5C15.3509 14.9357 13.9848 16.1 12.3009 16.1C10.6161 16.1 9.25 14.9357 9.25 13.5H15.3509Z" stroke="black" stroke-width="1.5" stroke-linecap="round" stroke-linejoin="round"/>
</svg>