<svg width="25" height="24" viewBox="0 0 25 24" fill="none" xmlns="http://www.w3.org/2000/svg">
<path d="M12.25 21.75C10.3216 21.75 8.43657 21.1782 6.83319 20.1068C5.22981 19.0355 3.98014 17.5128 3.24219 15.7312C2.50423 13.9496 2.31114 11.9892 2.68735 10.0979C3.06355 8.20656 3.99215 6.46928 5.35571 5.10572C6.71927 3.74215 8.45655 2.81356 10.3479 2.43735C12.2392 2.06114 14.1996 2.25422 15.9812 2.99217C17.7627 3.73013 19.2855 4.97981 20.3568 6.58319C21.4282 8.18657 22 10.0716 22 12C21.9971 14.585 20.9689 17.0632 19.1411 18.8911C17.3132 20.7189 14.835 21.7471 12.25 21.75ZM12.25 3.75C10.6183 3.75 9.02324 4.23386 7.66653 5.14038C6.30983 6.0469 5.25241 7.33538 4.62799 8.84287C4.00357 10.3504 3.84018 12.0092 4.15851 13.6095C4.47683 15.2098 5.2626 16.6799 6.41638 17.8336C7.57016 18.9874 9.04016 19.7731 10.6405 20.0915C12.2408 20.4098 13.8996 20.2464 15.4071 19.622C16.9146 18.9976 18.2031 17.9402 19.1096 16.5835C20.0161 15.2267 20.5 13.6317 20.5 12C20.4976 9.8127 19.6277 7.71567 18.081 6.16901C16.5343 4.62235 14.4373 3.75238 12.25 3.75Z" fill="black"/>
<path d="M9.0258 9.99888C8.83243 9.99907 8.64337 9.94182 8.48259 9.83439C8.32181 9.72695 8.19654 9.57417 8.12273 9.39544C8.04891 9.2167 8.02986 9.02008 8.06798 8.83049C8.1061 8.64091 8.19968 8.46693 8.33684 8.33062C8.474 8.1943 8.64855 8.1018 8.83836 8.06485C9.02818 8.02791 9.22467 8.04818 9.40294 8.1231C9.58121 8.19801 9.73324 8.3242 9.83968 8.48565C9.94612 8.64709 10.0022 8.83651 10.0008 9.02988C9.99896 9.28734 9.89547 9.53364 9.71285 9.71514C9.53023 9.89663 9.28327 9.99862 9.0258 9.99888Z" fill="black"/>
<path d="M15.5258 9.99888C15.3324 9.99907 15.1434 9.94182 14.9826 9.83439C14.8218 9.72695 14.6965 9.57417 14.6227 9.39544C14.5489 9.2167 14.5299 9.02008 14.568 8.83049C14.6061 8.64091 14.6997 8.46693 14.8368 8.33062C14.974 8.1943 15.1486 8.1018 15.3384 8.06485C15.5282 8.02791 15.7247 8.04818 15.9029 8.1231C16.0812 8.19801 16.2332 8.3242 16.3397 8.48565C16.4461 8.64709 16.5022 8.83651 16.5008 9.02988C16.499 9.28734 16.3955 9.53364 16.2128 9.71514C16.0302 9.89663 15.7833 9.99862 15.5258 9.99888Z" fill="black"/>
<path d="M12.2505 16.2511C11.8811 16.2359 11.5184 16.1464 11.1843 15.988C10.8502 15.8296 10.5514 15.6054 10.3058 15.329C10.0602 15.0525 9.87291 14.7294 9.755 14.3789C9.63708 14.0284 9.591 13.6577 9.61953 13.2891C9.61953 13.0902 9.69857 12.8994 9.83922 12.7587C9.97988 12.6181 10.1706 12.5391 10.3695 12.5391C10.5684 12.5391 10.7592 12.6181 10.8999 12.7587C11.0405 12.8994 11.1195 13.0902 11.1195 13.2891C11.1195 13.3041 11.1325 14.7511 12.2505 14.7511C13.3685 14.7511 13.3795 13.3041 13.3795 13.2891C13.3795 13.0902 13.4586 12.8994 13.5992 12.7587C13.7399 12.6181 13.9306 12.5391 14.1295 12.5391C14.3285 12.5391 14.5192 12.6181 14.6599 12.7587C14.8005 12.8994 14.8795 13.0902 14.8795 13.2891C14.9081 13.6576 14.8621 14.0281 14.7443 14.3784C14.6265 14.7288 14.4393 15.0518 14.194 15.3283C13.9486 15.6047 13.6501 15.8289 13.3162 15.9874C12.9823 16.146 12.6198 16.2357 12.2505 16.2511Z" fill="black"/>
</svg>