<svg width="24" height="24" viewBox="0 0 24 24" fill="none" xmlns="http://www.w3.org/2000/svg">
<path d="M21 11.9995C21 7.0291 16.9709 3 12.0005 3C7.0291 3 3 7.0291 3 11.9995C3 16.9709 7.0291 21 12.0005 21" stroke="black" stroke-width="1.5" stroke-linecap="round" stroke-linejoin="round"/>
<path d="M21.2239 18.5382H16.9551M19.0899 16.3984V20.674" stroke="black" stroke-width="1.5" stroke-linecap="round" stroke-linejoin="round"/>
<path d="M9.06934 9.50533V9.45377M9.02381 9.30078C8.89981 9.30078 8.79881 9.40178 8.79981 9.52578C8.79981 9.64978 8.90081 9.75078 9.02481 9.75078C9.14881 9.75078 9.24981 9.64978 9.24981 9.52578C9.24981 9.40078 9.14881 9.30078 9.02381 9.30078Z" stroke="black" stroke-width="1.5" stroke-linecap="round" stroke-linejoin="round"/>
<path d="M15.5305 9.50533V9.45377M15.5238 9.30078C15.3998 9.30078 15.2988 9.40178 15.2998 9.52578C15.2998 9.64978 15.4008 9.75078 15.5248 9.75078C15.6488 9.75078 15.7498 9.64978 15.7498 9.52578C15.7498 9.40078 15.6488 9.30078 15.5238 9.30078Z" stroke="black" stroke-width="1.5" stroke-linecap="round" stroke-linejoin="round"/>
<path fill-rule="evenodd" clip-rule="evenodd" d="M15.1009 13.5C15.1009 14.9357 13.7348 16.1 12.0509 16.1C10.3661 16.1 9 14.9357 9 13.5H15.1009Z" stroke="black" stroke-width="1.5" stroke-linecap="round" stroke-linejoin="round"/>
</svg>