<svg width="24" height="24" viewBox="0 0 24 24" fill="none" xmlns="http://www.w3.org/2000/svg">
<path fill-rule="evenodd" clip-rule="evenodd" d="M15.2235 10.1999C14.6865 10.1999 14.2485 9.76291 14.2485 9.22491C14.2465 8.96991 14.3475 8.72391 14.5315 8.53791C14.7155 8.35191 14.9605 8.24991 15.2225 8.24991C15.7605 8.24991 16.1995 8.68691 16.1995 9.22491C16.1995 9.76291 15.7615 10.1999 15.2235 10.1999ZM15.2885 14.5969C14.4705 15.6649 13.2715 16.2769 11.9985 16.2769C10.7275 16.2769 9.52849 15.6649 8.70949 14.5969C8.45649 14.2689 8.51949 13.7979 8.84749 13.5459C9.17849 13.2929 9.64749 13.3569 9.89949 13.6839C10.4325 14.3789 11.1975 14.7769 11.9985 14.7769C12.8005 14.7769 13.5665 14.3789 14.0995 13.6839C14.3505 13.3569 14.8215 13.2929 15.1515 13.5459C15.4795 13.7979 15.5415 14.2689 15.2885 14.5969ZM7.74849 9.22491C7.74649 8.96991 7.84749 8.72391 8.03149 8.53791C8.21549 8.35191 8.46049 8.24991 8.72249 8.24991C9.26049 8.24991 9.69949 8.68691 9.69949 9.22491C9.69949 9.76291 9.26149 10.1999 8.72349 10.1999C8.18649 10.1999 7.74849 9.76291 7.74849 9.22491ZM18.7165 5.28191C15.0125 1.57691 8.98449 1.57891 5.28249 5.28191C2.47549 8.08791 1.71049 12.3959 3.36949 15.9769C3.55849 16.4519 3.68349 16.7839 3.68349 17.0639C3.68349 17.3959 3.54249 17.8099 3.40649 18.2099C3.14049 18.9879 2.84049 19.8689 3.48549 20.5129C4.13249 21.1599 5.01649 20.8549 5.79449 20.5869C6.19249 20.4499 6.60249 20.3089 6.92649 20.3069C7.21649 20.3079 7.58349 20.4539 8.00849 20.6249C9.27749 21.2099 10.6315 21.4939 11.9785 21.4939C14.4545 21.4939 16.9005 20.5329 18.7165 18.7159C20.5105 16.9229 21.4975 14.5379 21.4985 12.0009C21.4995 9.46291 20.5115 7.07691 18.7165 5.28191Z" fill="black"/>
</svg>