<svg width="25" height="24" viewBox="0 0 25 24" fill="none" xmlns="http://www.w3.org/2000/svg">
<path opacity="0.4" d="M8.7082 20.1644C12.0397 21.7056 16.1145 21.1111 18.8642 18.3605C22.3757 14.849 22.3815 9.1512 18.8642 5.63289C15.3527 2.12237 9.6481 2.12237 6.1366 5.63289C3.38695 8.38351 2.79149 12.4574 4.33366 15.7889C4.53118 16.2822 4.68491 16.6782 4.68491 17.0625C4.68491 18.1367 3.64868 19.4668 4.3395 20.1576C5.03032 20.8484 6.36039 19.8122 7.42872 19.8054C7.81208 19.8063 8.21587 19.9659 8.7082 20.1644Z" stroke="black" stroke-width="1.5" stroke-linecap="round" stroke-linejoin="round"/>
<path d="M9.26953 9.20455V9.15298M9.22401 9C9.10001 9 8.99901 9.101 9.00001 9.225C9.00001 9.349 9.10101 9.45 9.22501 9.45C9.34901 9.45 9.45001 9.349 9.45001 9.225C9.45001 9.1 9.34901 9 9.22401 9Z" stroke="black" stroke-width="1.5" stroke-linecap="round" stroke-linejoin="round"/>
<path d="M15.7307 9.20455V9.15298M15.724 9C15.6 9 15.499 9.101 15.5 9.225C15.5 9.349 15.601 9.45 15.725 9.45C15.849 9.45 15.95 9.349 15.95 9.225C15.95 9.1 15.849 9 15.724 9Z" stroke="black" stroke-width="1.5" stroke-linecap="round" stroke-linejoin="round"/>
<path d="M9.80469 14.1406C10.4605 14.9949 11.4267 15.5271 12.4999 15.5271C13.5731 15.5271 14.5392 14.9949 15.195 14.1406" stroke="black" stroke-width="1.5" stroke-linecap="round" stroke-linejoin="round"/>
</svg>