<svg width="25" height="24" viewBox="0 0 25 24" fill="none" xmlns="http://www.w3.org/2000/svg">
<path d="M17.5295 12.6271L11.8737 6.97139C11.4275 6.52516 10.704 6.52516 10.2578 6.97139L5.00602 12.2232C4.04173 13.1875 3.5 14.4953 3.5 15.859C3.5 17.2227 4.04173 18.5306 5.00602 19.4949C5.9703 20.4591 7.27816 21.0009 8.64186 21.0009C10.0056 21.0009 11.3134 20.4591 12.2777 19.4949L17.5295 14.2431C17.9757 13.7969 17.9757 13.0734 17.5295 12.6271Z" stroke="black" stroke-width="1.5" stroke-linecap="round" stroke-linejoin="round"/>
<path opacity="0.4" d="M17.1247 5.75781L16.7207 6.1618M18.7406 7.37374L18.3366 7.77773" stroke="black" stroke-width="1.5" stroke-linecap="round" stroke-linejoin="round"/>
<path opacity="0.4" d="M12.2773 7.3745L16.3172 3.33467C16.7634 2.88844 17.4869 2.88844 17.9331 3.33467L21.165 6.56653C21.6112 7.01276 21.6112 7.73624 21.165 8.18246L17.1251 12.2223" stroke="black" stroke-width="1.5" stroke-linecap="round" stroke-linejoin="round"/>
<path d="M7.42974 17.0704C8.09908 17.7398 9.1843 17.7398 9.85364 17.0704C10.523 16.4011 10.523 15.3159 9.85364 14.6465C9.1843 13.9772 8.09908 13.9772 7.42974 14.6465C6.7604 15.3159 6.7604 16.4011 7.42974 17.0704Z" stroke="black" stroke-width="1.5" stroke-linecap="round" stroke-linejoin="round"/>
</svg>