<svg width="25" height="24" viewBox="0 0 25 24" fill="none" xmlns="http://www.w3.org/2000/svg">
<path d="M5.00609 12.2184C4.04609 13.1784 3.49609 14.4883 3.49609 15.8583C3.49609 17.2283 4.03609 18.5284 5.00609 19.4984C5.96609 20.4584 7.27609 21.0084 8.64609 21.0084C10.0161 21.0084 11.3161 20.4684 12.2861 19.4984L17.5361 14.2484C17.9861 13.7984 17.9861 13.0784 17.5361 12.6284L11.8761 6.96836C11.4261 6.51836 10.7061 6.51836 10.2561 6.96836L7.83609 9.38837" stroke="black" stroke-width="1.5" stroke-linecap="round" stroke-linejoin="round"/>
<path d="M17.1163 5.75879L16.7163 6.15878M18.7363 7.36877L18.3363 7.76877" stroke="black" stroke-width="1.5" stroke-linecap="round" stroke-linejoin="round"/>
<path d="M12.2764 7.36872L16.3164 3.32871C16.7664 2.87871 17.4864 2.87871 17.9364 3.32871L21.1664 6.55872C21.6164 7.00872 21.6164 7.72872 21.1664 8.17872L17.1264 12.2187" stroke="black" stroke-width="1.5" stroke-linecap="round" stroke-linejoin="round"/>
<path d="M9.84633 14.649C9.17633 13.979 8.09633 13.979 7.42633 14.649C6.75633 15.319 6.75633 16.399 7.42633 17.069C8.09633 17.739 9.17633 17.739 9.84633 17.069" stroke="black" stroke-width="1.5" stroke-linecap="round" stroke-linejoin="round"/>
</svg>