<svg width="24" height="25" viewBox="0 0 24 25" fill="none" xmlns="http://www.w3.org/2000/svg">
<path fill-rule="evenodd" clip-rule="evenodd" d="M11.9997 6.32568C11.4497 6.32568 11.0039 5.87987 11.0039 5.32994C11.0039 4.78 11.4497 4.33419 11.9997 4.33419C12.5496 4.33419 12.9954 4.78 12.9954 5.32994C12.9954 5.87987 12.5496 6.32568 11.9997 6.32568ZM9.50391 5.32994C9.50391 6.7083 10.6213 7.82568 11.9997 7.82568C13.378 7.82568 14.4954 6.7083 14.4954 5.32994C14.4954 3.95157 13.378 2.83419 11.9997 2.83419C10.6213 2.83419 9.50391 3.95157 9.50391 5.32994Z" fill="black"/>
<path fill-rule="evenodd" clip-rule="evenodd" d="M5.17454 14.6772C5.31718 15.0661 5.11757 15.497 4.72869 15.6396C4.18483 15.8391 3.92647 16.0836 3.77343 16.3704C3.60106 16.6934 3.50969 17.1666 3.50048 17.9242C3.49171 18.646 3.60293 19.1102 3.79808 19.4336C3.9841 19.7418 4.30057 20.0112 4.89423 20.2335C5.50305 20.4614 6.35593 20.6214 7.54427 20.7259C8.7239 20.8296 10.1879 20.8753 12 20.896C13.8121 20.8753 15.2761 20.8296 16.4557 20.7259C17.6441 20.6214 18.497 20.4614 19.1058 20.2335C19.6994 20.0112 20.0159 19.7418 20.2019 19.4336C20.3971 19.1102 20.5083 18.646 20.4995 17.9242C20.4903 17.1667 20.3989 16.6934 20.2266 16.3704C20.0736 16.0836 19.8152 15.8392 19.2714 15.6397C18.8826 15.497 18.683 15.0661 18.8256 14.6773C18.9683 14.2884 19.3992 14.0888 19.7881 14.2315C20.5933 14.5269 21.1852 14.9807 21.55 15.6643C21.8954 16.3116 21.9894 17.0807 21.9994 17.906C22.0099 18.7662 21.8844 19.5488 21.4862 20.2086C21.0789 20.8836 20.4453 21.3336 19.6317 21.6383C18.8332 21.9372 17.8214 22.1116 16.5871 22.2201C15.3459 22.3292 13.8319 22.3752 12.0086 22.396H11.9914C10.1681 22.3752 8.65409 22.3292 7.4129 22.2201C6.17856 22.1116 5.16679 21.9372 4.3683 21.6383C3.55465 21.3336 2.92115 20.8836 2.51382 20.2086C2.11564 19.5488 1.99014 18.7662 2.0006 17.906C2.01063 17.0806 2.1046 16.3115 2.45008 15.6642C2.81486 14.9806 3.40682 14.5268 4.21213 14.2314C4.60101 14.0887 5.03189 14.2884 5.17454 14.6772Z" fill="black"/>
<path fill-rule="evenodd" clip-rule="evenodd" d="M5.26852 14.4686C10.4833 15.3846 13.5269 15.376 18.732 14.4677C18.5754 12.9404 17.8575 11.3746 16.7542 10.1392C15.5033 8.73851 13.8163 7.82568 12.0007 7.82568C10.185 7.82568 8.49777 8.73853 7.24667 10.1393C6.1431 11.3749 5.42491 12.941 5.26852 14.4686ZM6.12793 9.14008C7.59655 7.49578 9.66649 6.32568 12.0007 6.32568C14.3349 6.32568 16.4046 7.4958 17.8731 9.14011C19.3386 10.7812 20.2642 12.9577 20.2642 15.09C20.2642 15.4524 20.0052 15.7629 19.6487 15.8279C13.6456 16.9214 10.3698 16.9328 4.35089 15.8277C3.99486 15.7623 3.73633 15.452 3.73633 15.09C3.73633 12.9576 4.66219 10.7812 6.12793 9.14008Z" fill="black"/>
</svg>