<svg width="24" height="24" viewBox="0 0 24 24" fill="none" xmlns="http://www.w3.org/2000/svg">
<path fill-rule="evenodd" clip-rule="evenodd" d="M10.2773 9.45703V11.2503H12.1149C12.6101 11.2503 13.0116 10.8489 13.0116 10.3537C13.0116 9.85847 12.6101 9.45703 12.1149 9.45703H10.2773ZM14.0585 11.7563C14.3435 11.362 14.5116 10.8775 14.5116 10.3537C14.5116 9.03004 13.4386 7.95703 12.1149 7.95703H9.89327C9.27696 7.95703 8.77734 8.45665 8.77734 9.07295V14.9277C8.77734 15.544 9.27696 16.0436 9.89327 16.0436H12.5854C13.909 16.0436 14.982 14.9706 14.982 13.647C14.982 12.8787 14.6206 12.1949 14.0585 11.7563ZM10.2773 12.7503V14.5436H12.5854C13.0806 14.5436 13.482 14.1422 13.482 13.647C13.482 13.1518 13.0806 12.7503 12.5854 12.7503H10.2773Z" fill="black"/>
<path fill-rule="evenodd" clip-rule="evenodd" d="M2 7.95703C2.41421 7.95703 2.75 8.29282 2.75 8.70703V11.2503H5.95469V8.70703C5.95469 8.29282 6.29048 7.95703 6.70469 7.95703C7.11891 7.95703 7.45469 8.29282 7.45469 8.70703V15.2936C7.45469 15.7078 7.11891 16.0436 6.70469 16.0436C6.29048 16.0436 5.95469 15.7078 5.95469 15.2936V12.7503H2.75V15.2936C2.75 15.7078 2.41421 16.0436 2 16.0436C1.58579 16.0436 1.25 15.7078 1.25 15.2936V8.70703C1.25 8.29282 1.58579 7.95703 2 7.95703Z" fill="black"/>
<path fill-rule="evenodd" clip-rule="evenodd" d="M19.2303 9.45703C18.2315 9.45703 17.2109 10.4687 17.2109 12.0002C17.2109 13.5318 18.2315 14.5434 19.2303 14.5434C20.2291 14.5434 21.2497 13.5318 21.2497 12.0002C21.2497 10.4687 20.2291 9.45703 19.2303 9.45703ZM15.7109 12.0002C15.7109 9.8942 17.1701 7.95703 19.2303 7.95703C21.2905 7.95703 22.7497 9.8942 22.7497 12.0002C22.7497 14.1062 21.2905 16.0434 19.2303 16.0434C17.1701 16.0434 15.7109 14.1062 15.7109 12.0002Z" fill="black"/>
</svg>