<svg width="25" height="24" viewBox="0 0 25 24" fill="none" xmlns="http://www.w3.org/2000/svg">
<path d="M12.0835 17.1728H7.11209C4.88788 17.1728 3.08398 15.3689 3.08398 13.1437V7.68728C3.08398 5.4621 4.88788 3.6582 7.11209 3.6582H17.0549C19.2801 3.6582 21.084 5.4621 21.084 7.68728V13.1437C21.084 15.3689 19.2801 17.1728 17.0549 17.1728H15.5692" stroke="black" stroke-width="1.5" stroke-linecap="round" stroke-linejoin="round"/>
<path d="M7.58789 20.3438H16.5791" stroke="black" stroke-width="1.5" stroke-linecap="round" stroke-linejoin="round"/>
<path d="M7.86816 8.03516V13.0255M7.86816 10.5303H11.1948M11.1952 8.03516V13.0255" stroke="black" stroke-width="1.5" stroke-linecap="round" stroke-linejoin="round"/>
<path fill-rule="evenodd" clip-rule="evenodd" d="M14.5213 13.0255H13.6895V8.03516H14.5213C15.8991 8.03516 17.016 9.15213 17.016 10.5299C17.016 11.9086 15.8991 13.0255 14.5213 13.0255Z" stroke="black" stroke-width="1.5" stroke-linecap="round" stroke-linejoin="round"/>
</svg>