<svg width="25" height="24" viewBox="0 0 25 24" fill="none" xmlns="http://www.w3.org/2000/svg">
<path fill-rule="evenodd" clip-rule="evenodd" d="M2.33398 7.68533C2.33398 5.04605 4.47354 2.90625 7.11209 2.90625H17.0549C19.6943 2.90625 21.834 5.04593 21.834 7.68533V13.1418C21.834 15.7812 19.6943 17.9208 17.0549 17.9208H7.11209C4.47354 17.9208 2.33398 15.781 2.33398 13.1418V7.68533ZM7.11209 4.40625C5.30221 4.40625 3.83398 5.87424 3.83398 7.68533V13.1418C3.83398 14.9529 5.30221 16.4208 7.11209 16.4208H17.0549C18.8659 16.4208 20.334 14.9527 20.334 13.1418V7.68533C20.334 5.87436 18.8659 4.40625 17.0549 4.40625H7.11209Z" fill="black"/>
<path fill-rule="evenodd" clip-rule="evenodd" d="M6.83789 20.3438C6.83789 19.9295 7.17368 19.5938 7.58789 19.5938H16.5791C16.9933 19.5938 17.3291 19.9295 17.3291 20.3438C17.3291 20.758 16.9933 21.0938 16.5791 21.0938H7.58789C7.17368 21.0938 6.83789 20.758 6.83789 20.3438Z" fill="black"/>
<path fill-rule="evenodd" clip-rule="evenodd" d="M7.86719 7.28516C8.2814 7.28516 8.61719 7.62094 8.61719 8.03516V9.7803H10.4442V8.03516C10.4442 7.62094 10.78 7.28516 11.1942 7.28516C11.6084 7.28516 11.9442 7.62094 11.9442 8.03516V13.0255C11.9442 13.4397 11.6084 13.7755 11.1942 13.7755C10.78 13.7755 10.4442 13.4397 10.4442 13.0255V11.2803H8.61719V13.0255C8.61719 13.4397 8.2814 13.7755 7.86719 13.7755C7.45297 13.7755 7.11719 13.4397 7.11719 13.0255V8.03516C7.11719 7.62094 7.45297 7.28516 7.86719 7.28516Z" fill="black"/>
<path fill-rule="evenodd" clip-rule="evenodd" d="M12.9395 8.03516C12.9395 7.62094 13.2752 7.28516 13.6895 7.28516H14.5213C16.3133 7.28516 17.766 8.73792 17.766 10.5299C17.766 12.3226 16.3135 13.7755 14.5213 13.7755H13.6895C13.2752 13.7755 12.9395 13.4397 12.9395 13.0255V8.03516ZM14.4395 8.78516V12.2755H14.5213C15.4847 12.2755 16.266 11.4945 16.266 10.5299C16.266 9.56634 15.4849 8.78516 14.5213 8.78516H14.4395Z" fill="black"/>
</svg>