<svg width="24" height="25" viewBox="0 0 24 25" fill="none" xmlns="http://www.w3.org/2000/svg">
<path fill-rule="evenodd" clip-rule="evenodd" d="M6.74506 7.94141C6.19306 7.94141 5.74506 8.38941 5.74506 8.94141V11.3014H3.26306V8.94141C3.26306 8.38941 2.81506 7.94141 2.26306 7.94141C1.71106 7.94141 1.26306 8.38941 1.26306 8.94141V15.6594C1.26306 16.2124 1.71106 16.6594 2.26306 16.6594C2.81506 16.6594 3.26306 16.2124 3.26306 15.6594V13.3014H5.74506V15.6594C5.74506 16.2124 6.19306 16.6594 6.74506 16.6594C7.29706 16.6594 7.74506 16.2124 7.74506 15.6594V8.94141C7.74506 8.38941 7.29706 7.94141 6.74506 7.94141Z" fill="black"/>
<path fill-rule="evenodd" clip-rule="evenodd" d="M18.455 9.98047H19.747C20.293 9.98047 20.737 10.4255 20.737 10.9715C20.737 11.5185 20.293 11.9635 19.747 11.9635H18.455V9.98047ZM21.125 13.6115C22.078 13.1105 22.737 12.1215 22.737 10.9715C22.737 9.32247 21.396 7.98047 19.747 7.98047H17.455C16.903 7.98047 16.455 8.42847 16.455 8.98047V15.6175C16.455 16.1695 16.903 16.6175 17.455 16.6175C18.007 16.6175 18.455 16.1695 18.455 15.6175V13.9635H18.999L20.315 16.1335C20.503 16.4435 20.833 16.6145 21.171 16.6145C21.348 16.6145 21.527 16.5675 21.689 16.4695C22.161 16.1835 22.312 15.5685 22.025 15.0965L21.125 13.6115Z" fill="black"/>
<path opacity="0.4" fill-rule="evenodd" clip-rule="evenodd" d="M11.223 14.6594H11.103V9.94141H11.223C12.524 9.94141 13.582 10.9984 13.582 12.2994C13.582 13.6004 12.524 14.6594 11.223 14.6594ZM11.223 7.94141H10.103C9.55103 7.94141 9.10303 8.38841 9.10303 8.94141V15.6594C9.10303 16.2114 9.55103 16.6594 10.103 16.6594H11.223C13.627 16.6594 15.582 14.7034 15.582 12.2994C15.582 9.89641 13.627 7.94141 11.223 7.94141Z" fill="black"/>
</svg>