<svg width="25" height="25" viewBox="0 0 25 25" fill="none" xmlns="http://www.w3.org/2000/svg">
<path d="M3.25 6.5H7.75" stroke="black" stroke-width="1.5" stroke-linecap="round" stroke-linejoin="round"/>
<path d="M3.25 10.5H7.75" stroke="black" stroke-width="1.5" stroke-linecap="round" stroke-linejoin="round"/>
<path d="M3.25 14.5H7.75" stroke="black" stroke-width="1.5" stroke-linecap="round" stroke-linejoin="round"/>
<path d="M3.25 18.5H7.75" stroke="black" stroke-width="1.5" stroke-linecap="round" stroke-linejoin="round"/>
<path d="M5.5 19.4922C4.10156 17.3712 4.10156 14.621 5.5 12.5C6.89844 10.379 6.89844 7.62878 5.5 5.50781" stroke="black" stroke-width="1.5" stroke-linecap="round" stroke-linejoin="round"/>
<path opacity="0.4" d="M11.1938 12.4168C11.2447 10.8822 11.388 9.3286 11.9291 7.85112C12.1314 7.29908 12.3925 6.78364 12.7716 6.34875C13.2135 5.84064 13.7533 5.61367 14.3935 5.63856C15.5011 5.68249 16.5457 5.98707 17.5502 6.49371C18.7623 7.10579 19.7172 8.03269 20.3922 9.28467C21.5641 11.4621 21.5213 13.6512 20.3494 15.811C19.602 17.189 18.485 18.1056 17.1511 18.7177C16.2886 19.1116 15.3805 19.2858 14.4524 19.3561C13.5631 19.4249 12.9108 18.9944 12.4367 18.2154C11.9773 17.4613 11.7122 16.6135 11.5287 15.7364C11.3023 14.6557 11.2247 13.5575 11.1952 12.4168H11.1938Z" stroke="black" stroke-width="1.5" stroke-linecap="round" stroke-linejoin="round"/>
</svg>