<svg width="25" height="24" viewBox="0 0 25 24" fill="none" xmlns="http://www.w3.org/2000/svg">
<path d="M6.71103 20.5415C6.67903 20.5415 6.64803 20.5415 6.61103 20.5415C6.38226 20.5324 6.15455 20.5053 5.93003 20.4604C5.14634 20.3045 4.42239 19.931 3.84108 19.3828C3.25976 18.8345 2.84457 18.1337 2.64303 17.3605C2.3963 16.4442 2.45955 15.4721 2.82293 14.5956C3.18631 13.7191 3.82942 12.9873 4.65203 12.5144V12.5144C4.94712 12.346 5.27738 12.2485 5.61665 12.2299C5.95592 12.2112 6.29487 12.2718 6.60666 12.4069C6.91844 12.542 7.19448 12.7478 7.4129 13.0081C7.63132 13.2684 7.78612 13.5759 7.86503 13.9064L8.80803 17.8424C8.88822 18.1739 8.88975 18.5196 8.81248 18.8517C8.73521 19.1839 8.58129 19.4934 8.36303 19.7554C8.16321 20.0008 7.9113 20.1986 7.62558 20.3345C7.33985 20.4705 7.02745 20.5412 6.71103 20.5415V20.5415ZM5.41104 13.8134C4.87384 14.1247 4.4545 14.6048 4.21815 15.1789C3.98181 15.753 3.94169 16.3892 4.10403 16.9884C4.23862 17.4856 4.50837 17.9356 4.88331 18.2887C5.25826 18.6417 5.72374 18.884 6.22804 18.9884C6.37687 19.0173 6.52759 19.0354 6.67903 19.0424C6.78109 19.0489 6.88317 19.0303 6.97641 18.9883C7.06964 18.9463 7.15122 18.8821 7.21403 18.8014C7.28308 18.7174 7.3316 18.6184 7.35572 18.5124C7.37985 18.4063 7.37893 18.2961 7.35304 18.1904L6.41003 14.2544C6.38504 14.1495 6.33586 14.0519 6.2664 13.9695C6.19694 13.887 6.10915 13.8219 6.01004 13.7794C5.91442 13.7376 5.81032 13.7188 5.70611 13.7246C5.6019 13.7303 5.50049 13.7604 5.41003 13.8124L5.41104 13.8134Z" fill="black"/>
<path d="M17.79 20.5424C17.4735 20.5421 17.161 20.4713 16.8753 20.3352C16.5896 20.1991 16.3377 20.001 16.138 19.7554C15.9199 19.4935 15.766 19.1842 15.6887 18.8522C15.6115 18.5202 15.6129 18.1748 15.693 17.8435L16.635 13.9064C16.7139 13.5759 16.8687 13.2684 17.0872 13.0081C17.3056 12.7478 17.5816 12.542 17.8934 12.4069C18.2052 12.2718 18.5441 12.2112 18.8834 12.2299C19.2227 12.2485 19.5529 12.346 19.848 12.5144V12.5144C20.6708 12.9874 21.3141 13.7193 21.6775 14.596C22.0409 15.4728 22.104 16.4451 21.857 17.3614C21.6554 18.1346 21.2402 18.8354 20.6589 19.3836C20.0776 19.9319 19.3537 20.3054 18.57 20.4614C18.3434 20.5059 18.1138 20.5326 17.883 20.5415C17.8524 20.5421 17.8214 20.5424 17.79 20.5424ZM18.766 13.7234C18.6109 13.7251 18.4607 13.7783 18.3391 13.8746C18.2175 13.9708 18.1312 14.1048 18.094 14.2554L17.152 18.1904C17.1272 18.2959 17.1271 18.4058 17.152 18.5113C17.1768 18.6168 17.2257 18.7151 17.295 18.7984C17.36 18.8749 17.441 18.9361 17.5322 18.9777C17.6234 19.0194 17.7227 19.0404 17.823 19.0394C17.9762 19.0329 18.1286 19.0148 18.279 18.9855C18.7836 18.8814 19.2494 18.6393 19.6246 18.2862C19.9997 17.9331 20.2696 17.4828 20.404 16.9855C20.5664 16.3862 20.5263 15.75 20.2899 15.1759C20.0536 14.6018 19.6342 14.1217 19.097 13.8104C18.9963 13.7527 18.8821 13.7227 18.766 13.7234V13.7234Z" fill="black"/>
<path d="M19.8779 14.1827C19.679 14.1827 19.4882 14.1036 19.3476 13.963C19.2069 13.8223 19.1279 13.6316 19.1279 13.4327V11.5137C19.1279 9.69031 18.4036 7.94163 17.1143 6.65231C15.825 5.363 14.0763 4.63867 12.2529 4.63867C10.4296 4.63867 8.68088 5.363 7.39157 6.65231C6.10226 7.94163 5.37793 9.69031 5.37793 11.5137V13.4327C5.37793 13.6316 5.29892 13.8223 5.15826 13.963C5.01761 14.1036 4.82684 14.1827 4.62793 14.1827C4.42902 14.1827 4.23825 14.1036 4.0976 13.963C3.95694 13.8223 3.87793 13.6316 3.87793 13.4327V11.5137C3.87793 9.29248 4.7603 7.16226 6.33092 5.59164C7.90153 4.02103 10.0317 3.13867 12.2529 3.13867C14.4741 3.13867 16.6043 4.02103 18.1749 5.59164C19.7456 7.16226 20.6279 9.29248 20.6279 11.5137V13.4327C20.6279 13.6316 20.5489 13.8223 20.4083 13.963C20.2676 14.1036 20.0768 14.1827 19.8779 14.1827V14.1827Z" fill="black"/>
<path d="M12.2426 16.4181C12.1126 16.4181 11.9848 16.3841 11.8718 16.3198C11.7588 16.2554 11.6645 16.1627 11.5981 16.0508C11.5318 15.939 11.4956 15.8118 11.4933 15.6818C11.4909 15.5517 11.5224 15.4233 11.5846 15.3091L12.4476 13.7231H10.7926C10.6625 13.7234 10.5346 13.6898 10.4214 13.6256C10.3083 13.5614 10.2138 13.4688 10.1473 13.357C10.0807 13.2452 10.0445 13.118 10.0421 12.9879C10.0397 12.8578 10.0713 12.7293 10.1336 12.6151L11.5996 9.91515C11.6947 9.74037 11.8553 9.61051 12.0461 9.55416C12.237 9.4978 12.4424 9.51956 12.6171 9.61464C12.7919 9.70972 12.9218 9.87033 12.9781 10.0611C13.0345 10.252 13.0127 10.4574 12.9176 10.6321L12.0536 12.2201H13.7096C13.8398 12.2201 13.9677 12.2538 14.0808 12.3182C14.194 12.3825 14.2884 12.4751 14.3549 12.587C14.4214 12.6989 14.4576 12.8261 14.46 12.9563C14.4624 13.0864 14.4309 13.2149 14.3686 13.3292L12.9016 16.0232C12.8376 16.1423 12.7426 16.2419 12.6266 16.3114C12.5105 16.381 12.3779 16.4178 12.2426 16.4181Z" fill="black"/>
</svg>