<svg width="25" height="24" viewBox="0 0 25 24" fill="none" xmlns="http://www.w3.org/2000/svg">
<path d="M6.7082 20.7011C6.6772 20.7011 6.64523 20.7011 6.61323 20.7011C6.38449 20.6916 6.15684 20.6645 5.93226 20.62C5.14871 20.4638 4.4249 20.0902 3.84364 19.542C3.26238 18.9938 2.84707 18.2931 2.64521 17.5201C2.39824 16.6037 2.46139 15.6314 2.82478 14.7546C3.18817 13.8779 3.83143 13.146 4.65425 12.6731V12.6731C4.94928 12.5044 5.27957 12.4068 5.61891 12.3881C5.95824 12.3694 6.29729 12.43 6.60908 12.5652C6.92087 12.7005 7.19682 12.9065 7.41505 13.167C7.63328 13.4276 7.78776 13.7354 7.86622 14.0661L8.81025 18.0011C8.89036 18.3325 8.89185 18.6782 8.81458 19.0103C8.73732 19.3425 8.58343 19.652 8.36524 19.9141C8.16494 20.1602 7.91226 20.3585 7.62562 20.4947C7.33897 20.6308 7.02553 20.7013 6.7082 20.7011V20.7011ZM5.40821 13.973C4.87084 14.2842 4.45132 14.7642 4.21479 15.3383C3.97826 15.9125 3.93797 16.5487 4.10023 17.1481C4.2351 17.6452 4.50504 18.0953 4.88014 18.4483C5.25524 18.8013 5.72084 19.0435 6.22523 19.1481C6.37363 19.1776 6.52408 19.1956 6.67524 19.202C6.77751 19.2103 6.88016 19.1925 6.9737 19.1504C7.06725 19.1082 7.14862 19.0431 7.21021 18.9611C7.27961 18.8772 7.3285 18.7783 7.35298 18.6722C7.37745 18.5662 7.37683 18.4559 7.35121 18.3501L6.40724 14.4141C6.38254 14.309 6.33348 14.2113 6.26399 14.1288C6.19449 14.0463 6.1065 13.9813 6.00721 13.939C5.91157 13.8973 5.80751 13.8785 5.70332 13.8843C5.59912 13.89 5.49772 13.9201 5.40724 13.9721L5.40821 13.973Z" fill="black"/>
<path d="M17.7871 20.7012C17.4709 20.7008 17.1587 20.63 16.8733 20.4939C16.5879 20.3578 16.3364 20.1597 16.1371 19.9142C15.9186 19.6525 15.7644 19.3432 15.6869 19.0112C15.6095 18.6791 15.6109 18.3336 15.6911 18.0022L16.6341 14.0652C16.7127 13.7346 16.8673 13.4269 17.0856 13.1665C17.3039 12.9061 17.5798 12.7001 17.8916 12.565C18.2034 12.4299 18.5424 12.3693 18.8817 12.3881C19.2209 12.4069 19.5512 12.5045 19.8461 12.6732V12.6732C20.6689 13.1462 21.3122 13.878 21.6756 14.7548C22.039 15.6315 22.1021 16.6038 21.8551 17.5202C21.6535 18.2934 21.2383 18.9942 20.657 19.5424C20.0757 20.0906 19.3518 20.4641 18.5681 20.6202C18.3416 20.665 18.1119 20.6921 17.8811 20.7012C17.8501 20.7002 17.8181 20.7012 17.7871 20.7012ZM18.7641 13.8822C18.6093 13.884 18.4594 13.9371 18.338 14.0332C18.2166 14.1293 18.1305 14.2629 18.0931 14.4132L17.1501 18.3492C17.1253 18.4547 17.1252 18.5645 17.15 18.67C17.1748 18.7755 17.2239 18.8738 17.2932 18.9572C17.3577 19.0341 17.4386 19.0957 17.5299 19.1373C17.6212 19.179 17.7207 19.1998 17.8211 19.1982C17.9743 19.1921 18.1267 19.1741 18.2771 19.1442C18.7816 19.04 19.2474 18.7979 19.6226 18.4448C19.9977 18.0917 20.2675 17.6415 20.4021 17.1442C20.5645 16.5448 20.5244 15.9086 20.2878 15.3344C20.0513 14.7602 19.6316 14.2802 19.0941 13.9692V13.9692C18.9938 13.9115 18.8799 13.8814 18.7641 13.8822V13.8822Z" fill="black"/>
<path d="M19.876 14.3428C19.6771 14.3428 19.4863 14.2638 19.3456 14.1231C19.205 13.9825 19.126 13.7917 19.126 13.5928V11.6738C19.126 9.85046 18.4017 8.10178 17.1124 6.81247C15.8231 5.52316 14.0743 4.79883 12.251 4.79883C10.4276 4.79883 8.6789 5.52316 7.38959 6.81247C6.10027 8.10178 5.37598 9.85046 5.37598 11.6738V13.5928C5.37598 13.7917 5.29696 13.9825 5.15631 14.1231C5.01566 14.2638 4.82489 14.3428 4.62598 14.3428C4.42706 14.3428 4.23629 14.2638 4.09564 14.1231C3.95499 13.9825 3.87598 13.7917 3.87598 13.5928V11.6738C3.87598 9.45264 4.75836 7.32242 6.32898 5.7518C7.8996 4.18118 10.0298 3.29883 12.251 3.29883C14.4722 3.29883 16.6024 4.18118 18.173 5.7518C19.7436 7.32242 20.626 9.45264 20.626 11.6738V13.5928C20.626 13.7917 20.547 13.9825 20.4063 14.1231C20.2657 14.2638 20.0749 14.3428 19.876 14.3428Z" fill="black"/>
</svg>