<svg width="24" height="24" viewBox="0 0 24 24" fill="none" xmlns="http://www.w3.org/2000/svg">
<path d="M18.8758 11.6723V12.4111C18.4699 12.3413 18.0484 12.3901 17.6545 12.5604C17.0095 12.8364 16.5465 13.3854 16.3845 14.0654L15.4425 18.0014C15.2805 18.6794 15.4425 19.3764 15.8865 19.9154C16.3015 20.4184 16.9005 20.7014 17.5435 20.7014C17.5755 20.7014 17.6065 20.7004 17.6385 20.6984C17.8615 20.6894 18.0905 20.6624 18.3185 20.6164C19.9135 20.3024 21.2045 19.0874 21.6055 17.5204C22.0163 15.9271 21.5274 14.3116 20.3758 13.2474V11.6723C20.3758 7.05434 16.6188 3.29834 12.0008 3.29834C7.38276 3.29834 3.62576 7.05434 3.62576 11.6723V13.2459C2.47448 14.3088 1.98435 15.9241 2.39357 17.5195C2.79757 19.0875 4.08757 20.3025 5.68057 20.6165C5.91357 20.6625 6.14357 20.6895 6.36257 20.6975L6.36792 20.6976C6.39893 20.6986 6.4283 20.6995 6.45857 20.6995C7.10057 20.6995 7.69957 20.4165 8.11457 19.9135C8.55857 19.3755 8.72057 18.6785 8.55857 18.0005L7.61557 14.0655C7.45357 13.3845 6.99057 12.8365 6.34657 12.5595C5.95252 12.3906 5.5313 12.3415 5.12576 12.4107V11.6723C5.12576 7.88234 8.20976 4.79834 12.0008 4.79834C15.7918 4.79834 18.8758 7.88234 18.8758 11.6723Z" fill="black"/>
<path d="M11.633 16.4879C11.747 16.5499 11.869 16.5789 11.991 16.5789C12.257 16.5789 12.514 16.4369 12.65 16.1869L14.117 13.4919C14.244 13.2599 14.239 12.9779 14.103 12.7499C13.969 12.5229 13.723 12.3839 13.459 12.3839H11.804L12.666 10.7959C12.865 10.4319 12.73 9.97693 12.366 9.77893C12.003 9.57993 11.546 9.71493 11.349 10.0789L9.88297 12.7749C9.75697 13.0079 9.76197 13.2889 9.89697 13.5169C10.033 13.7449 10.277 13.8839 10.542 13.8839H12.197L11.333 15.4709C11.135 15.8339 11.269 16.2889 11.633 16.4879Z" fill="black"/>
</svg>