<svg width="25" height="25" viewBox="0 0 25 25" fill="none" xmlns="http://www.w3.org/2000/svg">
<path d="M21.25 8.88477L17.044 6.88477" stroke="black" stroke-width="1.5" stroke-linecap="round" stroke-linejoin="round"/>
<path d="M21.25 12.8848L17.044 10.8848" stroke="black" stroke-width="1.5" stroke-linecap="round" stroke-linejoin="round"/>
<path d="M21.25 16.8848L17.044 14.8848" stroke="black" stroke-width="1.5" stroke-linecap="round" stroke-linejoin="round"/>
<path d="M21.25 20.8848L17.044 18.8848" stroke="black" stroke-width="1.5" stroke-linecap="round" stroke-linejoin="round"/>
<path d="M13.3062 12.8016C13.2553 11.267 13.112 9.71336 12.5709 8.23588C12.3686 7.68384 12.1075 7.16841 11.7284 6.73351C11.2865 6.2254 10.7467 5.99843 10.1065 6.02333C8.99894 6.06726 7.95428 6.37183 6.9498 6.87848C5.73772 7.49056 4.7828 8.41746 4.10779 9.66943C2.93589 11.8468 2.97875 14.036 4.15064 16.1958C4.89798 17.5737 6.01496 18.4904 7.34891 19.1024C8.21143 19.4963 9.11948 19.6706 10.0476 19.7409C10.9369 19.8097 11.5892 19.3792 12.0633 18.6002C12.5227 17.8461 12.7878 16.9982 12.9713 16.1211C13.1977 15.0405 13.2753 13.9423 13.3048 12.8016H13.3062Z" stroke="black" stroke-width="1.5" stroke-linecap="round" stroke-linejoin="round"/>
</svg>