<svg width="24" height="24" viewBox="0 0 24 24" fill="none" xmlns="http://www.w3.org/2000/svg">
<path fill-rule="evenodd" clip-rule="evenodd" d="M9.45294 4.5334C9.92288 3.59351 10.8832 3 11.934 3H12.0644C13.1152 3 14.0755 3.59351 14.5455 4.5334C14.6214 4.68421 14.7751 4.77956 14.9434 4.77956H15.1137C15.8512 4.77956 16.4486 5.37697 16.4486 6.11448C16.4486 6.85102 15.8512 7.44939 15.1137 7.44939H8.88472C8.14819 7.44939 7.55078 6.85102 7.55078 6.11448C7.55078 5.37697 8.14819 4.77956 8.88472 4.77956H9.05499C9.22332 4.77956 9.37802 4.68421 9.45294 4.5334Z" stroke="black" stroke-width="1.5" stroke-linecap="round" stroke-linejoin="round"/>
<path d="M16.4485 6.07031C18.1123 6.42642 19.1183 7.82361 19.1183 9.69171V17.2906C19.1183 19.4623 17.7562 21.0015 15.5767 21.0015H8.41371C6.23329 21.0015 4.88086 19.4623 4.88086 17.2906V9.69171C4.88086 7.82361 5.88691 6.42642 7.55069 6.07031" stroke="black" stroke-width="1.5" stroke-linecap="round" stroke-linejoin="round"/>
<path d="M8.88477 17.2109H15.1137" stroke="black" stroke-width="1.5" stroke-linecap="round" stroke-linejoin="round"/>
<path d="M12 10.7305V13.9345M10.3984 12.3301H13.6024" stroke="black" stroke-width="1.5" stroke-linecap="round" stroke-linejoin="round"/>
</svg>