<svg width="25" height="24" viewBox="0 0 25 24" fill="none" xmlns="http://www.w3.org/2000/svg">
<path fill-rule="evenodd" clip-rule="evenodd" d="M12.184 3.75C11.4173 3.75 10.7167 4.18301 10.3738 4.86881L9.70296 4.53341L10.3746 4.86708C10.1723 5.27435 9.75651 5.52956 9.30499 5.52956H9.13472C8.81275 5.52956 8.55078 5.79082 8.55078 6.11448C8.55078 6.43751 8.81311 6.69939 9.13472 6.69939H15.3637C15.6866 6.69939 15.9486 6.43716 15.9486 6.11448C15.9486 5.79118 15.687 5.52956 15.3637 5.52956H15.1934C14.7393 5.52956 14.3277 5.27236 14.1255 4.87054L14.1246 4.86881C13.7817 4.18301 13.0811 3.75 12.3144 3.75H12.184ZM9.12207 4.0296C9.74616 2.93356 10.913 2.25 12.184 2.25H12.3144C13.5854 2.25 14.7522 2.93356 15.3763 4.0296C16.5222 4.03641 17.4486 4.96697 17.4486 6.11448C17.4486 7.26487 16.5158 8.19939 15.3637 8.19939H9.13472C7.98326 8.19939 7.05078 7.26452 7.05078 6.11448C7.05078 4.96733 7.97679 4.03641 9.12207 4.0296Z" fill="black"/>
<path fill-rule="evenodd" clip-rule="evenodd" d="M8.53408 5.90959C8.62077 6.31463 8.3627 6.71326 7.95766 6.79995C6.69807 7.06955 5.88086 8.11032 5.88086 9.68796V17.2869C5.88086 18.2179 6.16909 18.9518 6.62869 19.4458C7.08257 19.9336 7.75886 20.2478 8.66371 20.2478H15.8267C16.7312 20.2478 17.4103 19.9334 17.8667 19.4447C18.3285 18.9503 18.6183 18.2165 18.6183 17.2869V9.68796C18.6183 8.11032 17.8011 7.06955 16.5415 6.79995C16.1365 6.71326 15.8784 6.31463 15.9651 5.90959C16.0518 5.50455 16.4504 5.24648 16.8555 5.33317C18.9234 5.77579 20.1183 7.52939 20.1183 9.68796V17.2869C20.1183 18.5289 19.727 19.6505 18.9629 20.4686C18.1934 21.2925 17.1017 21.7478 15.8267 21.7478H8.66371C7.38814 21.7478 6.298 21.2923 5.53056 20.4676C4.76884 19.649 4.38086 18.5274 4.38086 17.2869V9.68796C4.38086 7.52939 5.57575 5.77579 7.64372 5.33317C8.04876 5.24648 8.44739 5.50455 8.53408 5.90959ZM12.2495 9.97523C12.6637 9.97523 12.9995 10.311 12.9995 10.7252V13.9292C12.9995 14.3434 12.6637 14.6792 12.2495 14.6792C11.8353 14.6792 11.4995 14.3434 11.4995 13.9292V10.7252C11.4995 10.311 11.8353 9.97523 12.2495 9.97523Z" fill="black"/>
<path fill-rule="evenodd" clip-rule="evenodd" d="M8.38477 17.2109C8.38477 16.7967 8.72055 16.4609 9.13477 16.4609H15.3637C15.7779 16.4609 16.1137 16.7967 16.1137 17.2109C16.1137 17.6252 15.7779 17.9609 15.3637 17.9609H9.13477C8.72055 17.9609 8.38477 17.6252 8.38477 17.2109Z" fill="black"/>
<path fill-rule="evenodd" clip-rule="evenodd" d="M9.89844 12.3281C9.89844 11.9139 10.2342 11.5781 10.6484 11.5781H13.8524C14.2666 11.5781 14.6024 11.9139 14.6024 12.3281C14.6024 12.7423 14.2666 13.0781 13.8524 13.0781H10.6484C10.2342 13.0781 9.89844 12.7423 9.89844 12.3281Z" fill="black"/>
</svg>