<svg width="25" height="24" viewBox="0 0 25 24" fill="none" xmlns="http://www.w3.org/2000/svg">
<path fill-rule="evenodd" clip-rule="evenodd" d="M9.86656 5.77569C9.86656 4.96469 10.5256 4.30469 11.3366 4.30469H13.6166C14.4276 4.30469 15.0866 4.96469 15.0866 5.77569V5.91569H9.86656V5.77569ZM17.6806 5.91569H16.5866V5.77569C16.5866 4.13769 15.2546 2.80469 13.6166 2.80469H11.3366C9.69856 2.80469 8.36656 4.13769 8.36656 5.77569V5.91569H7.27056C4.70156 5.91569 2.97656 7.71869 2.97656 10.4047V16.7057C2.97656 19.3907 4.70156 21.1957 7.27056 21.1957H17.6796C20.2496 21.1957 21.9766 19.3907 21.9766 16.7057V10.4047C21.9766 7.71869 20.2496 5.91569 17.6806 5.91569Z" fill="black"/>
<path fill-rule="evenodd" clip-rule="evenodd" d="M11.4553 11.7289C11.3553 11.7289 11.2553 11.7449 11.1613 11.7759C10.9053 11.8579 10.7213 12.0129 10.6043 12.2409C10.4503 12.5389 10.4283 12.9329 10.5443 13.2969C10.8133 14.1589 11.8743 14.9119 12.5223 15.2799C13.1623 14.9159 14.2103 14.1669 14.4973 13.2949C14.6133 12.9309 14.5903 12.5369 14.4373 12.2389C14.3203 12.0119 14.1373 11.8569 13.8933 11.7799C13.7363 11.7269 13.5773 11.7169 13.4203 11.7439C13.3053 11.7639 13.0813 11.9329 12.9743 12.0139C12.7083 12.2149 12.3403 12.2159 12.0733 12.0159C11.9553 11.9279 11.7363 11.7639 11.6223 11.7439C11.5663 11.7339 11.5113 11.7289 11.4553 11.7289ZM12.5223 16.8759C12.4143 16.8759 12.3053 16.8519 12.2053 16.8049C11.9483 16.6849 9.68627 15.5829 9.11427 13.7499C8.87727 13.0099 8.93327 12.2079 9.27127 11.5529C9.56927 10.9739 10.0753 10.5469 10.6963 10.3499C11.0713 10.2249 11.4853 10.1949 11.8873 10.2669C12.1243 10.3099 12.3373 10.4039 12.5223 10.5089C12.7133 10.3999 12.9233 10.3089 13.1563 10.2669C13.5593 10.1959 13.9753 10.2259 14.3583 10.3539C14.9673 10.5469 15.4723 10.9739 15.7703 11.5509C16.1073 12.2059 16.1643 13.0089 15.9243 13.7549C15.9243 13.7559 15.9233 13.7569 15.9233 13.7589C15.3193 15.6049 13.0913 16.6879 12.8393 16.8049C12.7383 16.8519 12.6303 16.8759 12.5223 16.8759Z" fill="white"/>
<path fill-rule="evenodd" clip-rule="evenodd" d="M6.80258 17.6753C6.38858 17.6753 6.05258 17.3393 6.05258 16.9253V10.1963C6.05258 9.78129 6.38858 9.44629 6.80258 9.44629C7.21658 9.44629 7.55258 9.78129 7.55258 10.1963V16.9253C7.55258 17.3393 7.21658 17.6753 6.80258 17.6753Z" fill="white"/>
<path fill-rule="evenodd" clip-rule="evenodd" d="M18.1513 17.6753C17.7373 17.6753 17.4013 17.3393 17.4013 16.9253V10.1963C17.4013 9.78129 17.7373 9.44629 18.1513 9.44629C18.5653 9.44629 18.9013 9.78129 18.9013 10.1963V16.9253C18.9013 17.3393 18.5653 17.6753 18.1513 17.6753Z" fill="white"/>
</svg>