<svg width="25" height="24" viewBox="0 0 25 24" fill="none" xmlns="http://www.w3.org/2000/svg">
<path d="M12.2499 21.1717L11.9499 21.0417C7.23994 18.9517 2.22994 14.8517 2.24994 9.59169C2.25994 6.49169 3.97994 4.00169 6.72994 3.12169C8.83994 2.44169 10.7699 2.95169 12.2499 4.56169C13.7299 2.95169 15.6599 2.44169 17.7699 3.12169C20.5199 4.01169 22.2399 6.49169 22.2499 9.60169C22.2799 14.8517 17.2599 18.9517 12.5499 21.0417L12.2499 21.1717ZM8.49994 4.32169C8.07994 4.32169 7.64994 4.39169 7.18994 4.54169C4.65994 5.35169 3.74994 7.69169 3.74994 9.60169C3.72994 14.0217 8.24994 17.6717 12.2499 19.5217C16.2499 17.6717 20.7699 14.0217 20.7499 9.60169C20.7499 7.69169 19.8299 5.36169 17.3099 4.54169C15.5199 3.96169 14.0299 4.52169 12.8699 6.18169L12.2499 7.06169L11.6299 6.18169C10.7699 4.94169 9.71994 4.31169 8.49994 4.31169V4.32169Z" fill="black"/>
</svg>