<svg width="25" height="24" viewBox="0 0 25 24" fill="none" xmlns="http://www.w3.org/2000/svg">
<path opacity="0.4" d="M17.6421 3.99818C20.9794 5.07334 22.1665 8.72887 21.1448 11.9144C19.4713 17.0256 12.5037 20.2705 12.5037 20.2705C12.5037 20.2705 5.43007 16.9672 3.85383 11.9144C2.83218 8.72887 4.02896 5.08307 7.36632 3.99818C8.23034 3.72769 9.14592 3.66639 10.0382 3.81721C10.9304 3.96802 11.7749 4.58198 12.5037 5.12199C13.2296 4.57711 14.0751 3.96024 14.9683 3.80942C15.8615 3.65764 16.7781 3.72283 17.6421 3.99818Z" stroke="black" stroke-width="1.5" stroke-linecap="round" stroke-linejoin="round"/>
<path d="M9.79492 9.37988V9.38988" stroke="black" stroke-width="1.5" stroke-linecap="round" stroke-linejoin="round"/>
<path d="M15.207 9.37988V9.38988" stroke="black" stroke-width="1.5" stroke-linecap="round" stroke-linejoin="round"/>
<path d="M10.6836 13.1846C11.1263 13.6866 11.7043 14.0476 12.4554 14.0554C13.2406 14.0632 13.8049 13.6915 14.2759 13.1846" stroke="black" stroke-width="1.5" stroke-linecap="round" stroke-linejoin="round"/>
</svg>