<svg width="24" height="24" viewBox="0 0 24 24" fill="none" xmlns="http://www.w3.org/2000/svg">
<path opacity="0.4" fill-rule="evenodd" clip-rule="evenodd" d="M20.9849 6.97649C20.3049 5.29749 18.9919 4.07049 17.2899 3.52449C16.3649 3.22249 15.3579 3.15249 14.3789 3.31749C13.4869 3.46749 12.6779 4.00249 11.9969 4.49949C11.3409 4.02249 10.5109 3.47749 9.61489 3.32749C8.64789 3.16449 7.64289 3.23149 6.70589 3.52449C2.97589 4.73149 1.82789 8.81349 2.86989 12.0585C4.49389 17.2695 11.4899 20.5845 11.7869 20.7225C11.8529 20.7545 11.9259 20.7695 11.9979 20.7695C12.0699 20.7695 12.1419 20.7545 12.2089 20.7225C12.5009 20.5875 19.3929 17.3325 21.1149 12.0635C21.6659 10.3475 21.6189 8.54149 20.9849 6.97649Z" fill="black"/>
<path d="M14.1611 13.5109C14.4541 13.2189 14.4541 12.7429 14.1621 12.4499L13.0531 11.3399L14.1621 10.2299C14.4541 9.93695 14.4541 9.46195 14.1611 9.16995C13.8691 8.87695 13.3931 8.87695 13.1001 9.16995L11.9931 10.2779L10.8861 9.16995C10.5931 8.87695 10.1171 8.87695 9.8251 9.16995C9.5321 9.46195 9.5321 9.93695 9.8241 10.2299L10.9331 11.3399L9.8241 12.4499C9.5321 12.7429 9.5321 13.2189 9.8251 13.5109C9.9711 13.6569 10.1631 13.7299 10.3551 13.7299C10.5471 13.7299 10.7391 13.6569 10.8861 13.5109L11.9931 12.4019L13.1001 13.5109C13.2471 13.6569 13.4391 13.7299 13.6311 13.7299C13.8231 13.7299 14.0151 13.6569 14.1611 13.5109Z" fill="black"/>
</svg>