<svg width="24" height="24" viewBox="0 0 24 24" fill="none" xmlns="http://www.w3.org/2000/svg">
<path d="M11.672 16.4555L13.617 13.5579L11.024 10.7878C11.024 10.7878 13.616 7.83481 13.617 7.83286C13.652 7.78811 13.2706 6.74312 13.113 6.41912C12.6518 5.4724 11.962 4.62201 11.0415 4.09076C9.7922 3.36881 8.21208 3.31043 6.85574 3.74438C3.52326 4.81758 2.33622 8.44584 3.35202 11.6217C4.98858 16.7104 12.0009 20.5284 12.0009 20.5284C12.0009 20.5284 19.0667 16.651 20.6488 11.6217C21.6655 8.44584 20.4688 4.81758 17.1363 3.74438C16.2324 3.46027 15.2876 3.4087 14.3808 3.57508" stroke="black" stroke-width="1.5" stroke-linecap="round" stroke-linejoin="round"/>
</svg>