<svg width="25" height="24" viewBox="0 0 25 24" fill="none" xmlns="http://www.w3.org/2000/svg">
<path d="M12.5 21C7.52908 21 3.5 16.9699 3.5 12C3.5 7.02908 7.52908 3 12.5 3C17.4709 3 21.5 7.02908 21.5 12C21.5 15.8466 19.0865 19.1301 15.6908 20.418" stroke="black" stroke-width="1.5" stroke-linecap="round" stroke-linejoin="round"/>
<path fill-rule="evenodd" clip-rule="evenodd" d="M16.2584 12.4168C16.7011 11.0352 16.1864 9.45019 14.7387 8.98316C14.3641 8.86446 13.9671 8.83625 13.5799 8.90143C13.1916 8.9676 12.8258 9.23419 12.5106 9.47062C12.1943 9.23711 11.8285 8.97052 11.4413 8.90533C11.054 8.84014 10.657 8.86641 10.2824 8.98316C8.83466 9.45408 8.31607 11.0352 8.75877 12.4168C9.44277 14.6079 12.5106 16.0411 12.5106 16.0411C12.5106 16.0411 15.5326 14.6342 16.2584 12.4168Z" stroke="black" stroke-width="1.5" stroke-linecap="round" stroke-linejoin="round"/>
</svg>