<svg width="25" height="24" viewBox="0 0 25 24" fill="none" xmlns="http://www.w3.org/2000/svg">
<path d="M11.699 20.5704H17.68C20.02 20.5704 21.4766 18.9192 21.4766 16.5821V10.2763C21.4766 7.93824 20.02 6.28711 17.681 6.28711H7.27116C4.93894 6.28711 3.47656 7.93824 3.47656 10.2763V16.5821C3.47656 18.9192 4.93213 20.5704 7.27116 20.5704H8.39079" stroke="black" stroke-width="1.5" stroke-linecap="round" stroke-linejoin="round"/>
<path d="M12.4756 16.4922C12.4756 16.4922 10.0393 15.1641 9.47008 13.3962C9.11689 12.2928 9.52943 11.0309 10.6882 10.6582C11.2973 10.4636 11.9638 10.5755 12.4756 10.9599C12.9883 10.5785 13.6519 10.4666 14.261 10.6582C15.4188 11.0309 15.8353 12.2928 15.4821 13.3962C15.3132 13.932 14.9652 14.4303 14.5639 14.8637" stroke="black" stroke-width="1.5" stroke-linecap="round" stroke-linejoin="round"/>
<path d="M15.8365 6.27174V5.64904C15.8365 4.42309 14.8431 3.42969 13.6172 3.42969H11.3365C10.1106 3.42969 9.11719 4.42309 9.11719 5.64904V6.27174" stroke="black" stroke-width="1.5" stroke-linecap="round" stroke-linejoin="round"/>
<path d="M3.47656 13.1006H9.34845" stroke="black" stroke-width="1.5" stroke-linecap="round" stroke-linejoin="round"/>
<path d="M15.6055 13.1006H21.4774" stroke="black" stroke-width="1.5" stroke-linecap="round" stroke-linejoin="round"/>
</svg>