<svg width="25" height="24" viewBox="0 0 25 24" fill="none" xmlns="http://www.w3.org/2000/svg">
<path opacity="0.4" d="M8.28216 3H16.7169C19.665 3 21.5 5.08119 21.5 8.02638V15.9736C21.5 18.9188 19.665 21 16.7159 21H8.28216C5.33405 21 3.5 18.9188 3.5 15.9736V8.02638C3.5 5.08119 5.34281 3 8.28216 3Z" stroke="black" stroke-width="1.5" stroke-linecap="round" stroke-linejoin="round"/>
<path fill-rule="evenodd" clip-rule="evenodd" d="M16.4872 11.9606C16.9581 10.4914 16.4113 8.80619 14.8721 8.31094C14.4741 8.18348 14.0509 8.15332 13.6393 8.22338C13.2277 8.29246 12.8376 8.57754 12.5029 8.82857C12.1672 8.57948 11.778 8.29635 11.3664 8.22727C10.9549 8.15721 10.5326 8.1864 10.1337 8.31094C8.59541 8.81105 8.04373 10.4914 8.51465 11.9606C9.24146 14.2899 12.5029 15.8135 12.5029 15.8135C12.5029 15.8135 15.7156 14.3171 16.4872 11.9606Z" stroke="black" stroke-width="1.5" stroke-linecap="round" stroke-linejoin="round"/>
</svg>