<svg width="25" height="24" viewBox="0 0 25 24" fill="none" xmlns="http://www.w3.org/2000/svg">
<path opacity="0.4" fill-rule="evenodd" clip-rule="evenodd" d="M17.8248 3.28392C16.1048 2.73392 13.7238 2.96192 12.2378 4.64792C10.6768 2.97392 8.37679 2.73092 6.66879 3.28492C2.75379 4.54492 1.53279 9.08092 2.64679 12.5599V12.5609C4.40479 18.0319 10.2498 20.9829 12.2518 20.9829C14.0388 20.9829 20.1158 18.0869 21.8538 12.5599C22.9678 9.08192 21.7438 4.54592 17.8248 3.28392Z" fill="black"/>
<path d="M17.8817 10.698H17.9067C18.3087 10.698 18.6417 10.379 18.6557 9.973C18.7147 8.227 17.6737 6.944 16.0657 6.78C15.6557 6.736 15.2857 7.039 15.2427 7.45C15.2007 7.862 15.5007 8.23 15.9127 8.272C16.7237 8.355 17.1887 8.972 17.1567 9.923C17.1427 10.337 17.4677 10.683 17.8817 10.698Z" fill="black"/>
</svg>