<svg width="25" height="25" viewBox="0 0 25 25" fill="none" xmlns="http://www.w3.org/2000/svg">
<path opacity="0.4" fill-rule="evenodd" clip-rule="evenodd" d="M17.6901 3.50912C15.5931 2.83312 13.6841 3.39612 12.2501 5.09412C10.8151 3.39612 8.90609 2.83312 6.80909 3.50912C4.16309 4.36212 2.51209 6.75411 2.50009 9.75011C2.47509 14.8841 7.41609 18.9061 12.0481 20.9571L12.2511 21.0471L12.4541 20.9571C17.0851 18.9051 22.0251 14.8831 22.0001 9.74911C21.9881 6.75311 20.3371 4.36212 17.6901 3.50912Z" fill="black"/>
<path d="M12.3275 14.5222C14.0065 14.5222 15.6545 13.4782 16.6405 11.7842L17.0175 11.1362L15.7215 10.3812L15.3445 11.0292C14.7745 12.0092 13.6735 13.0652 12.2565 13.0212C10.8495 13.0732 9.76353 12.0082 9.19353 11.0292L8.81653 10.3812L7.51953 11.1362L7.89753 11.7842C8.88353 13.4782 10.5315 14.5222 12.1855 14.5222H12.3275Z" fill="black"/>
</svg>