<svg width="25" height="24" viewBox="0 0 25 24" fill="none" xmlns="http://www.w3.org/2000/svg">
<path d="M7.77116 6.28711H18.181C20.52 6.28711 21.9766 7.93824 21.9766 10.2763V16.5821C21.9766 18.9192 20.52 20.5704 18.18 20.5704H7.77116C5.43213 20.5704 3.97656 18.9192 3.97656 16.5821V10.2763C3.97656 7.93824 5.43894 6.28711 7.77116 6.28711Z" stroke="black" stroke-width="1.5" stroke-linecap="round" stroke-linejoin="round"/>
<path fill-rule="evenodd" clip-rule="evenodd" d="M9.97008 13.3962C9.61689 12.2928 10.0294 11.0309 11.1882 10.6582C11.7973 10.4636 12.4638 10.5755 12.9756 10.9599C13.4883 10.5785 14.1519 10.4666 14.761 10.6582C15.9188 11.0309 16.3353 12.2928 15.9821 13.3962C15.4314 15.1436 12.9756 16.4922 12.9756 16.4922C12.9756 16.4922 10.5393 15.1641 9.97008 13.3962Z" stroke="black" stroke-width="1.5" stroke-linecap="round" stroke-linejoin="round"/>
<path d="M16.3365 6.27174V5.64904C16.3365 4.42309 15.3431 3.42969 14.1172 3.42969H11.8365C10.6106 3.42969 9.61719 4.42309 9.61719 5.64904V6.27174" stroke="black" stroke-width="1.5" stroke-linecap="round" stroke-linejoin="round"/>
<path d="M3.97656 13.1006H9.84845" stroke="black" stroke-width="1.5" stroke-linecap="round" stroke-linejoin="round"/>
<path d="M16.1055 13.1006H21.9774" stroke="black" stroke-width="1.5" stroke-linecap="round" stroke-linejoin="round"/>
</svg>