<svg width="25" height="24" viewBox="0 0 25 24" fill="none" xmlns="http://www.w3.org/2000/svg">
<path d="M13.613 6.41912C13.1518 5.4724 12.462 4.62201 11.5415 4.09076C10.2922 3.36881 8.71208 3.31043 7.35574 3.74438C4.02326 4.81758 2.83622 8.44584 3.85202 11.6217C5.48858 16.7104 12.5009 20.5284 12.5009 20.5284C12.5009 20.5284 19.5667 16.651 21.1488 11.6217C22.1655 8.44584 20.9688 4.81758 17.6363 3.74438C16.7324 3.46027 15.7876 3.4087 14.8808 3.57508" stroke="black" stroke-width="1.5" stroke-linecap="round" stroke-linejoin="round"/>
<path opacity="0.4" d="M12.1724 16.4553L14.1174 13.5577L11.5244 10.7876C11.5244 10.7876 14.1164 7.83464 14.1174 7.83269C14.1524 7.78794 13.771 6.74295 13.6134 6.41895" stroke="black" stroke-width="1.5" stroke-linecap="round" stroke-linejoin="round"/>
</svg>