<svg width="25" height="24" viewBox="0 0 25 24" fill="none" xmlns="http://www.w3.org/2000/svg">
<path d="M15.25 21.75H9.25C7.99071 21.7484 6.78346 21.2475 5.89301 20.357C5.00255 19.4665 4.50159 18.2593 4.5 17V7C4.50159 5.74071 5.00255 4.53345 5.89301 3.643C6.78346 2.75254 7.99071 2.25159 9.25 2.25H15.25C16.5093 2.25159 17.7165 2.75254 18.607 3.643C19.4974 4.53345 19.9984 5.74071 20 7V17C19.9984 18.2593 19.4974 19.4665 18.607 20.357C17.7165 21.2475 16.5093 21.7484 15.25 21.75ZM9.25 3.75C8.38837 3.75106 7.56233 4.09381 6.95306 4.70307C6.3438 5.31234 6.00106 6.13837 6 7V17C6.00106 17.8616 6.3438 18.6877 6.95306 19.2969C7.56233 19.9062 8.38837 20.2489 9.25 20.25H15.25C16.1116 20.2489 16.9377 19.9062 17.5469 19.2969C18.1562 18.6877 18.4989 17.8616 18.5 17V7C18.4989 6.13837 18.1562 5.31234 17.5469 4.70307C16.9377 4.09381 16.1116 3.75106 15.25 3.75H9.25Z" fill="black"/>
<path d="M16.25 6.75986C16.1015 6.76025 15.9562 6.71665 15.8324 6.63456C15.7087 6.55248 15.612 6.43558 15.5545 6.29862C15.4971 6.16165 15.4816 6.01074 15.5098 5.86493C15.538 5.71912 15.6088 5.58494 15.7132 5.47929C15.8176 5.37365 15.9509 5.30129 16.0964 5.27133C16.2418 5.24136 16.3929 5.25514 16.5306 5.31092C16.6682 5.36671 16.7862 5.462 16.8698 5.58479C16.9534 5.70757 16.9987 5.85234 17 6.00086V6.00986C17 6.20877 16.921 6.39953 16.7804 6.54018C16.6397 6.68084 16.449 6.75986 16.25 6.75986Z" fill="black"/>
<path d="M8.25004 18.7599C8.10153 18.7602 7.95621 18.7166 7.83244 18.6346C7.70867 18.5525 7.61197 18.4356 7.55455 18.2986C7.49713 18.1616 7.48158 18.0107 7.50981 17.8649C7.53804 17.7191 7.60879 17.5849 7.71318 17.4793C7.81757 17.3737 7.9509 17.3013 8.09636 17.2713C8.24182 17.2414 8.39292 17.2551 8.53056 17.3109C8.6682 17.3667 8.78624 17.462 8.8698 17.5848C8.95335 17.7076 8.99866 17.8523 9.00004 18.0009V18.0099C9.00004 18.2088 8.92103 18.3995 8.78038 18.5402C8.63973 18.6808 8.44896 18.7599 8.25004 18.7599Z" fill="black"/>
<path d="M12.2536 16.0046C11.947 16.005 11.6497 15.899 11.4126 15.7046C11.2046 15.5346 10.9756 15.3586 10.7366 15.1766C9.33657 14.1056 7.59161 12.7766 7.80261 10.6426C7.84464 10.1947 7.98825 9.76237 8.22253 9.37837C8.45681 8.99437 8.77558 8.66886 9.1546 8.4266C9.51136 8.20029 9.91567 8.05968 10.3359 8.01578C10.7561 7.97189 11.1808 8.0259 11.5766 8.1736C11.8141 8.25704 12.04 8.37064 12.2486 8.5116C12.3582 8.43718 12.4728 8.37035 12.5916 8.3116C12.9897 8.11017 13.4302 8.0068 13.8764 8.01011C14.3226 8.01341 14.7615 8.1233 15.1566 8.3306C15.5615 8.5411 15.9104 8.84515 16.1742 9.21751C16.438 9.58987 16.6092 10.0198 16.6736 10.4716C16.9926 12.6716 15.1336 14.1046 13.7736 15.1536C13.5586 15.3196 13.3506 15.4796 13.1596 15.6376C13.0303 15.754 12.8822 15.8477 12.7216 15.9146C12.5729 15.9747 12.414 16.0052 12.2536 16.0046ZM10.6106 9.5046C10.3781 9.50484 10.1505 9.57145 9.95458 9.6966C9.7694 9.81901 9.61396 9.98136 9.49975 10.1717C9.38554 10.3621 9.31547 10.5756 9.29461 10.7966C9.16661 12.0886 10.4286 13.0526 11.6476 13.9846C11.8556 14.1436 12.0596 14.2996 12.2476 14.4516C12.4616 14.2726 12.6566 14.1216 12.8576 13.9666C14.3356 12.8256 15.3676 11.9226 15.1886 10.6916C15.1583 10.4745 15.0768 10.2678 14.9507 10.0885C14.8246 9.90921 14.6577 9.76252 14.4636 9.6606C14.2768 9.56494 14.07 9.51506 13.8601 9.51506C13.6502 9.51506 13.4434 9.56494 13.2566 9.6606C13.0865 9.7445 12.9344 9.86066 12.8086 10.0026C12.7379 10.0814 12.6514 10.1444 12.5547 10.1877C12.4581 10.2309 12.3535 10.2534 12.2476 10.2536C12.1419 10.2536 12.0372 10.2313 11.9407 10.188C11.8442 10.1447 11.758 10.0816 11.6876 10.0026C11.5215 9.81687 11.3114 9.67589 11.0766 9.5926C10.9275 9.53675 10.7698 9.50698 10.6106 9.5046Z" fill="black"/>
</svg>