<svg width="25" height="24" viewBox="0 0 25 24" fill="none" xmlns="http://www.w3.org/2000/svg">
<path fill-rule="evenodd" clip-rule="evenodd" d="M11.5856 6.48224C10.6589 4.70776 8.77845 4.20366 7.33438 4.66429C4.50909 5.57509 3.38701 8.69409 4.31565 11.5987C5.07429 13.9556 6.79679 15.9477 8.52864 17.3641C9.38966 18.0682 10.235 18.6151 10.9319 18.9821C11.2807 19.1658 11.5834 19.2997 11.8254 19.3859C12.0842 19.4781 12.2182 19.4954 12.2504 19.4954C12.2504 19.4954 12.2533 19.4954 12.2594 19.495C12.2654 19.4945 12.274 19.4937 12.2851 19.4922C12.3077 19.4892 12.338 19.4838 12.3765 19.475C12.4542 19.4573 12.5539 19.428 12.6754 19.3843C12.9188 19.2967 13.2236 19.1607 13.5748 18.9747C14.2764 18.603 15.1272 18.0504 15.9919 17.3423C17.7325 15.917 19.4519 13.926 20.1829 11.6026L20.184 11.5991C21.113 8.69704 19.9845 5.57689 17.1585 4.66481C15.7113 4.21128 13.8655 4.68182 12.9136 6.48517C12.7835 6.73167 12.5275 6.88568 12.2487 6.88507C11.97 6.88445 11.7146 6.72931 11.5856 6.48224ZM12.2508 4.79366C10.8336 3.11472 8.63398 2.67474 6.87726 3.23564L6.87726 3.23563L6.87541 3.23623C3.03679 4.47284 1.78473 8.60916 2.88712 12.0562L2.88753 12.0575C3.76631 14.7884 5.71999 17.0049 7.57904 18.5252C8.51356 19.2895 9.44241 19.893 10.2329 20.3093C10.6278 20.5172 10.997 20.6832 11.3221 20.799C11.6304 20.9087 11.9585 20.9954 12.2504 20.9954C12.544 20.9954 12.8741 20.9069 13.1831 20.7958C13.5094 20.6784 13.8803 20.5103 14.2771 20.3002C15.0713 19.8794 16.0047 19.2706 16.9422 18.5029C18.8055 16.9771 20.7615 14.7599 21.6132 12.0546C22.7163 8.60574 21.4521 4.47208 17.6159 3.23623L17.6159 3.23621L17.6107 3.2346C15.8562 2.68328 13.678 3.09626 12.2508 4.79366Z" fill="black"/>
</svg>