<svg width="25" height="24" viewBox="0 0 25 24" fill="none" xmlns="http://www.w3.org/2000/svg">
<path fill-rule="evenodd" clip-rule="evenodd" d="M17.7901 3.52404C19.4921 4.07004 20.8041 5.29504 21.4851 6.97604C22.1191 8.54004 22.1661 10.347 21.6151 12.063C19.8931 17.33 13.0011 20.586 12.7091 20.722C12.6421 20.753 12.5691 20.769 12.4981 20.769C12.4251 20.769 12.3531 20.753 12.2861 20.722C11.9891 20.583 4.99406 17.27 3.37006 12.058C2.32706 8.81304 3.47606 4.73104 7.20606 3.52404C8.14306 3.23104 9.14806 3.16304 10.1151 3.32704C11.0121 3.47804 11.8411 4.02204 12.4971 4.49804C13.1771 4.00104 13.9861 3.46604 14.8791 3.31704C15.8541 3.15304 16.8611 3.22204 17.7901 3.52404ZM9.78879 10.1398C9.37479 10.1398 9.03879 9.80377 9.03879 9.38977C9.03879 8.97577 9.37479 8.63477 9.78879 8.63477C10.2028 8.63477 10.5388 8.96477 10.5388 9.37877V9.38977C10.5388 9.80377 10.2028 10.1398 9.78879 10.1398ZM15.2009 10.1398C14.7869 10.1398 14.4509 9.80377 14.4509 9.38977C14.4509 8.97577 14.7869 8.63477 15.2009 8.63477C15.6149 8.63477 15.9509 8.96477 15.9509 9.37877V9.38977C15.9509 9.80377 15.6149 10.1398 15.2009 10.1398ZM10.1109 13.6695C10.7459 14.4025 11.5509 14.7965 12.4489 14.8095C13.3479 14.8095 14.1239 14.4425 14.8209 13.6875C15.1019 13.3825 15.0829 12.9085 14.7789 12.6275C14.4749 12.3465 13.9999 12.3665 13.7189 12.6695C13.3049 13.1185 12.9249 13.3095 12.4599 13.3095C11.9989 13.3025 11.6019 13.0995 11.2449 12.6875C10.9729 12.3745 10.4989 12.3405 10.1869 12.6125C9.87395 12.8835 9.83995 13.3575 10.1109 13.6695Z" fill="black"/>
</svg>