<svg width="25" height="24" viewBox="0 0 25 24" fill="none" xmlns="http://www.w3.org/2000/svg">
<path fill-rule="evenodd" clip-rule="evenodd" d="M18.3852 10.3303H18.3252C17.9452 10.3303 17.6152 10.0303 17.5852 9.64025C17.5252 8.88025 17.0052 8.23025 16.2852 7.99025C15.8852 7.86025 15.6752 7.44025 15.7952 7.05025C15.9252 6.65025 16.3552 6.44025 16.7452 6.57025C18.0552 6.99025 18.9652 8.15025 19.0752 9.52025C19.1052 9.93025 18.8052 10.2903 18.3852 10.3303ZM21.4852 6.98025C20.8052 5.30025 19.4952 4.07025 17.7952 3.52025C16.8652 3.22025 15.8552 3.15025 14.8752 3.32025C13.9852 3.47025 13.1752 4.00025 12.4952 4.50025C11.8452 4.02025 11.0152 3.48025 10.1152 3.33025C9.14524 3.17025 8.14524 3.23025 7.20524 3.52025C3.47524 4.73025 2.32524 8.81025 3.37524 12.0603C4.99524 17.2703 11.9952 20.5803 12.2852 20.7203C12.3552 20.7503 12.4252 20.7703 12.4952 20.7703C12.5752 20.7703 12.6452 20.7503 12.7052 20.7203C13.0052 20.5903 19.8952 17.3303 21.6152 12.0603C22.1652 10.3503 22.1152 8.54025 21.4852 6.98025Z" fill="black"/>
</svg>