<svg width="25" height="24" viewBox="0 0 25 24" fill="none" xmlns="http://www.w3.org/2000/svg">
<path fill-rule="evenodd" clip-rule="evenodd" d="M4.02782 8.95406C3.81626 11.1057 4.84458 12.8926 6.4499 14.5384C7.55562 15.672 8.84169 16.6538 10.0944 17.6101C10.6996 18.0721 11.2971 18.5282 11.8627 18.9926L11.867 18.9962C12.0266 19.1292 12.2744 19.1666 12.4619 19.0889C12.4689 19.086 12.4759 19.0832 12.483 19.0805C12.5542 19.0535 12.6163 19.0024 12.8304 18.8265L12.8356 18.8222C13.3486 18.4018 13.889 17.9842 14.4359 17.5617C15.7434 16.5516 17.0925 15.5092 18.2192 14.3096C19.7869 12.6406 20.753 10.8319 20.4417 8.66727C19.9816 5.67472 16.8812 4.03224 14.2221 5.34989C13.6887 5.61412 13.2064 5.9808 12.8123 6.42381C12.6701 6.58359 12.4665 6.67509 12.2527 6.6753C12.0388 6.67552 11.835 6.58442 11.6925 6.42493C11.1722 5.84239 10.5034 5.39278 9.76824 5.13472L9.76606 5.13395C6.98678 4.14876 4.33432 6.0871 4.02782 8.95406ZM10.2661 3.71977C6.44418 2.36572 2.92862 5.10614 2.53594 8.79819L2.53537 8.80376C2.25963 11.5944 3.63288 13.7986 5.37611 15.5858C6.55781 16.7973 8.00276 17.9017 9.29939 18.8928C9.87751 19.3347 10.4262 19.754 10.9088 20.1503C11.4897 20.633 12.3214 20.7663 13.0262 20.4787C13.3405 20.3567 13.596 20.1421 13.7402 20.021C13.7577 20.0063 13.7735 19.993 13.7876 19.9814C14.2326 19.6167 14.7293 19.2329 15.2507 18.8299C16.5928 17.7927 18.0991 16.6285 19.3126 15.3366C21.0272 13.5111 22.332 11.2629 21.9258 8.44976L21.9249 8.44345C21.3185 4.48198 17.1589 2.22066 13.5562 4.00581M10.2661 3.71977C10.9943 3.97553 11.6698 4.37079 12.2512 4.87434C12.6473 4.5308 13.0869 4.23826 13.5562 4.00581" fill="black"/>
</svg>