<svg width="25" height="24" viewBox="0 0 25 24" fill="none" xmlns="http://www.w3.org/2000/svg">
<path d="M12.2533 21.0205C12.1439 21.0202 12.0358 20.9964 11.9363 20.9505C11.6363 20.8095 4.54335 17.4455 2.88735 12.1375C1.80935 8.77853 3.00835 4.54453 6.88735 3.28453C7.86677 2.97869 8.90442 2.90778 9.91634 3.07753C10.7681 3.27148 11.5663 3.65195 12.2533 4.19153C12.9397 3.64609 13.7402 3.26256 14.5953 3.06953C15.607 2.89992 16.6446 2.97327 17.6223 3.28353C21.4953 4.53153 22.6914 8.76753 21.6094 12.1425C19.8533 17.5055 12.8673 20.8115 12.5713 20.9495C12.4717 20.9958 12.3632 21.02 12.2533 21.0205ZM8.83434 4.48753C8.32879 4.48726 7.82611 4.56346 7.34334 4.71353C4.25334 5.71853 3.47834 9.05553 4.32134 11.6855C5.60034 15.7855 10.8993 18.7345 12.2573 19.4325C13.6033 18.7395 18.8304 15.8185 20.1854 11.6805C21.0294 9.04953 20.2583 5.70953 17.1663 4.71253C16.417 4.47419 15.6217 4.41797 14.8463 4.54853C14.0572 4.78105 13.3276 5.18116 12.7073 5.72153C12.5775 5.81889 12.4196 5.87153 12.2573 5.87153C12.0951 5.87153 11.9372 5.81889 11.8073 5.72153C11.1847 5.18246 10.453 4.78407 9.66234 4.55353C9.38862 4.50882 9.11168 4.48675 8.83434 4.48753Z" fill="black"/>
</svg>