<svg width="25" height="24" viewBox="0 0 25 24" fill="none" xmlns="http://www.w3.org/2000/svg">
<path d="M12.2533 21.0205C12.1439 21.0202 12.0358 20.9964 11.9363 20.9505C11.6363 20.8095 4.54335 17.4455 2.88735 12.1375C1.80935 8.77853 3.00835 4.54453 6.88735 3.28453C7.86677 2.97869 8.90442 2.90778 9.91634 3.07753C10.7681 3.27148 11.5663 3.65195 12.2533 4.19153C12.9397 3.64609 13.7402 3.26256 14.5953 3.06953C15.607 2.89992 16.6446 2.97327 17.6223 3.28353C21.4953 4.53153 22.6914 8.76753 21.6094 12.1425C19.8533 17.5055 12.8673 20.8115 12.5713 20.9495C12.4717 20.9958 12.3632 21.02 12.2533 21.0205ZM8.83434 4.48753C8.32879 4.48726 7.82611 4.56346 7.34334 4.71353C4.25334 5.71853 3.47834 9.05553 4.32134 11.6855C5.60034 15.7855 10.8993 18.7345 12.2573 19.4325C13.6033 18.7395 18.8304 15.8185 20.1854 11.6805C21.0294 9.04953 20.2583 5.70953 17.1663 4.71253C16.417 4.47419 15.6217 4.41797 14.8463 4.54853C14.0572 4.78105 13.3276 5.18116 12.7073 5.72153C12.5775 5.81889 12.4196 5.87153 12.2573 5.87153C12.0951 5.87153 11.9372 5.81889 11.8073 5.72153C11.1847 5.18246 10.453 4.78407 9.66234 4.55353C9.38862 4.50882 9.11168 4.48675 8.83434 4.48753Z" fill="black"/>
<path d="M9.54893 10.1388C9.40018 10.1394 9.25459 10.0959 9.13052 10.0138C9.00645 9.93176 8.90947 9.81478 8.85182 9.67764C8.79417 9.54051 8.77842 9.38938 8.80658 9.24331C8.83473 9.09724 8.90552 8.96278 9.01001 8.8569C9.1145 8.75102 9.24799 8.67846 9.39367 8.64837C9.53936 8.61829 9.6907 8.63203 9.82858 8.68786C9.96646 8.74369 10.0847 8.83911 10.1684 8.96208C10.2521 9.08505 10.2975 9.23006 10.2989 9.37881V9.38881C10.2989 9.58772 10.2199 9.77848 10.0793 9.91914C9.93861 10.0598 9.74784 10.1388 9.54893 10.1388Z" fill="black"/>
<path d="M14.961 10.1388C14.8123 10.1394 14.6667 10.0959 14.5426 10.0138C14.4185 9.93176 14.3216 9.81478 14.2639 9.67764C14.2063 9.54051 14.1905 9.38938 14.2187 9.24331C14.2468 9.09724 14.3176 8.96278 14.4221 8.8569C14.5266 8.75102 14.6601 8.67846 14.8058 8.64837C14.9515 8.61829 15.1028 8.63203 15.2407 8.68786C15.3786 8.74369 15.4968 8.83911 15.5805 8.96208C15.6642 9.08505 15.7097 9.23006 15.711 9.37881V9.38881C15.711 9.58772 15.632 9.77848 15.4914 9.91914C15.3507 10.0598 15.16 10.1388 14.961 10.1388Z" fill="black"/>
<path d="M12.2338 14.8049H12.2018C11.7559 14.7955 11.3173 14.6901 10.9157 14.496C10.5142 14.3018 10.1592 14.0235 9.87482 13.6799C9.74327 13.5306 9.67643 13.3351 9.689 13.1365C9.70156 12.9379 9.7925 12.7525 9.94182 12.6209C10.0911 12.4894 10.2866 12.4225 10.4852 12.4351C10.6838 12.4477 10.8693 12.5386 11.0008 12.6879C11.1455 12.874 11.3296 13.0258 11.5398 13.1324C11.75 13.2391 11.9812 13.298 12.2168 13.3049C12.4623 13.3065 12.7047 13.2502 12.9243 13.1406C13.1439 13.031 13.3346 12.8711 13.4808 12.6739C13.6161 12.528 13.8037 12.4419 14.0025 12.4344C14.2013 12.4269 14.395 12.4987 14.5408 12.6339C14.6867 12.7692 14.7729 12.9568 14.7804 13.1556C14.7879 13.3544 14.7161 13.548 14.5808 13.6939C14.2929 14.0375 13.9341 14.3147 13.529 14.5065C13.1239 14.6982 12.682 14.8 12.2338 14.8049Z" fill="black"/>
</svg>