<svg width="24" height="24" viewBox="0 0 24 24" fill="none" xmlns="http://www.w3.org/2000/svg">
<path d="M21 12C21 7.02908 16.9709 3 12 3C7.02908 3 3 7.02908 3 12C3 16.9699 7.02908 21 12 21C16.9709 21 21 16.9699 21 12Z" stroke="black" stroke-width="1.5" stroke-linecap="round" stroke-linejoin="round"/>
<path fill-rule="evenodd" clip-rule="evenodd" d="M15.7584 12.4168C16.2011 11.0352 15.6864 9.45019 14.2387 8.98316C13.8641 8.86446 13.4671 8.83625 13.0799 8.90143C12.6916 8.9676 12.3258 9.23419 12.0106 9.47062C11.6943 9.23711 11.3285 8.97052 10.9413 8.90533C10.554 8.84014 10.157 8.86641 9.78245 8.98316C8.33466 9.45408 7.81607 11.0352 8.25877 12.4168C8.94277 14.6079 12.0106 16.0411 12.0106 16.0411C12.0106 16.0411 15.0326 14.6342 15.7584 12.4168Z" stroke="black" stroke-width="1.5" stroke-linecap="round" stroke-linejoin="round"/>
</svg>