<svg width="24" height="24" viewBox="0 0 24 24" fill="none" xmlns="http://www.w3.org/2000/svg">
<path d="M17.1421 3.99873C20.4794 5.07388 21.6665 8.72941 20.6448 11.915C18.9713 17.0261 12.0037 20.271 12.0037 20.271C12.0037 20.271 4.93007 16.9677 3.35383 11.915C2.33218 8.72941 3.52896 5.08361 6.86632 3.99873C7.73034 3.72921 8.64592 3.66694 9.53816 3.81873C10.4304 3.96954 11.2749 4.5835 12.0037 5.12253C12.7296 4.57766 13.5751 3.96175 14.4683 3.80997C15.3615 3.65915 16.2781 3.72337 17.1421 3.99873Z" stroke="black" stroke-width="1.5" stroke-linecap="round" stroke-linejoin="round"/>
<path d="M10.3613 12.9753L13.6374 9.69922" stroke="black" stroke-width="1.5" stroke-linecap="round" stroke-linejoin="round"/>
<path d="M13.6374 12.9753L10.3613 9.69922" stroke="black" stroke-width="1.5" stroke-linecap="round" stroke-linejoin="round"/>
</svg>