<svg width="25" height="24" viewBox="0 0 25 24" fill="none" xmlns="http://www.w3.org/2000/svg">
<path fill-rule="evenodd" clip-rule="evenodd" d="M12.25 3.75C7.69329 3.75 4 7.44329 4 12C4 16.5567 7.69329 20.25 12.25 20.25C16.8067 20.25 20.5 16.5567 20.5 12C20.5 7.44329 16.8067 3.75 12.25 3.75ZM2.5 12C2.5 6.61487 6.86487 2.25 12.25 2.25C17.6351 2.25 22 6.61487 22 12C22 17.3851 17.6351 21.75 12.25 21.75C6.86487 21.75 2.5 17.3851 2.5 12Z" fill="black"/>
<path fill-rule="evenodd" clip-rule="evenodd" d="M8.83008 7.19922C9.24429 7.19922 9.58008 7.53501 9.58008 7.94922V16.0492C9.58008 16.4634 9.24429 16.7992 8.83008 16.7992C8.41586 16.7992 8.08008 16.4634 8.08008 16.0492V7.94922C8.08008 7.53501 8.41586 7.19922 8.83008 7.19922Z" fill="black"/>
<path fill-rule="evenodd" clip-rule="evenodd" d="M15.6699 7.19922C16.0841 7.19922 16.4199 7.53501 16.4199 7.94922V16.0492C16.4199 16.4634 16.0841 16.7992 15.6699 16.7992C15.2557 16.7992 14.9199 16.4634 14.9199 16.0492V7.94922C14.9199 7.53501 15.2557 7.19922 15.6699 7.19922Z" fill="black"/>
<path fill-rule="evenodd" clip-rule="evenodd" d="M8.08008 13.4492C8.08008 13.035 8.41586 12.6992 8.83008 12.6992H15.6701C16.0843 12.6992 16.4201 13.035 16.4201 13.4492C16.4201 13.8634 16.0843 14.1992 15.6701 14.1992H8.83008C8.41586 14.1992 8.08008 13.8634 8.08008 13.4492Z" fill="black"/>
<path fill-rule="evenodd" clip-rule="evenodd" d="M8.08008 10.5508C8.08008 10.1366 8.41586 9.80078 8.83008 9.80078H15.6701C16.0843 9.80078 16.4201 10.1366 16.4201 10.5508C16.4201 10.965 16.0843 11.3008 15.6701 11.3008H8.83008C8.41586 11.3008 8.08008 10.965 8.08008 10.5508Z" fill="black"/>
</svg>