<svg width="24" height="24" viewBox="0 0 24 24" fill="none" xmlns="http://www.w3.org/2000/svg">
<path d="M7.38764 4.77011C8.86458 3.88921 10.5629 3.45023 12.2817 3.50449C14.6201 3.60219 16.8311 4.59646 18.455 6.28183C20.0789 7.9672 20.9911 10.2139 21.0019 12.5543C20.9946 14.0834 20.5979 15.5853 19.8491 16.9185C19.1002 18.2518 18.0241 19.3725 16.7221 20.1744C16.2659 20.4579 15.7202 20.5614 15.1918 20.4644L6.31196 18.9244C5.78254 18.8305 5.30601 18.5461 4.97212 18.1246C3.89741 16.7821 3.22973 15.1599 3.04829 13.4498C2.86685 11.7397 3.17912 10.0133 3.94819 8.47519C4.22908 7.91341 4.56657 7.38527 4.95382 6.89821" stroke="black" stroke-width="1.5" stroke-linecap="round" stroke-linejoin="round"/>
<path d="M20.3112 9.29453L12.381 9.12461C12.1043 9.11728 11.8304 9.17889 11.5842 9.30527C11.3379 9.43166 11.1272 9.61819 10.9719 9.84726C10.8165 10.0763 10.7214 10.3413 10.695 10.6168C10.6687 10.8923 10.7119 11.17 10.821 11.4244L11.4313 12.8346C11.6123 13.272 11.8938 13.6598 12.2536 13.9674C12.6134 14.275 13.041 14.4933 13.5012 14.6041L16.6213 15.3741" stroke="black" stroke-width="1.5" stroke-linecap="round" stroke-linejoin="round"/>
</svg>