<svg width="25" height="24" viewBox="0 0 25 24" fill="none" xmlns="http://www.w3.org/2000/svg">
<path d="M21.2519 12.5543C21.2446 14.0834 20.8479 15.5853 20.0991 16.9185C19.3502 18.2518 18.2741 19.3725 16.9721 20.1744C16.5159 20.4579 15.9702 20.5614 15.4418 20.4644L6.56196 18.9244C6.03254 18.8305 5.55601 18.5461 5.22212 18.1246C4.14741 16.7821 3.47973 15.1599 3.29829 13.4498C3.11685 11.7397 3.42912 10.0133 4.19819 8.47519C4.96726 6.93705 6.16071 5.65101 7.63764 4.77011C9.11458 3.88921 10.8129 3.45023 12.5317 3.50449C14.8701 3.60219 17.0811 4.59646 18.705 6.28183C20.3289 7.9672 21.2411 10.2139 21.2519 12.5543V12.5543Z" stroke="black" stroke-width="1.5" stroke-linecap="round" stroke-linejoin="round"/>
<path d="M20.5612 9.29453L12.631 9.12461C12.3543 9.11728 12.0804 9.17889 11.8342 9.30527C11.5879 9.43166 11.3772 9.61819 11.2219 9.84726C11.0665 10.0763 10.9714 10.3413 10.945 10.6168C10.9187 10.8923 10.9619 11.17 11.071 11.4244L11.6813 12.8346C11.8623 13.272 12.1438 13.6598 12.5036 13.9674C12.8634 14.275 13.291 14.4933 13.7512 14.6041L19.9914 16.1441" stroke="black" stroke-width="1.5" stroke-linecap="round" stroke-linejoin="round"/>
</svg>