<svg width="24" height="24" viewBox="0 0 24 24" fill="none" xmlns="http://www.w3.org/2000/svg">
<g opacity="0.4">
<path d="M17.4014 5.5381C17.8139 5.12573 17.7894 4.44474 17.3058 4.11858C15.7907 3.09661 13.965 2.5 12 2.5C10.0349 2.5 8.20916 3.09665 6.69405 4.11868C6.21051 4.44485 6.18599 5.12583 6.59849 5.5382L8.49671 7.43582C8.50498 7.44409 8.51303 7.45251 8.52083 7.46107L9.13989 8.08013C9.48 8.42024 10.0101 8.45654 10.4543 8.27217C10.9303 8.07462 11.4523 7.96558 11.9998 7.96558C12.5473 7.96558 13.0693 8.07464 13.5453 8.27222C13.9896 8.45662 14.5197 8.42033 14.8598 8.08021L15.4789 7.46109C15.4867 7.45253 15.4948 7.4441 15.5031 7.43582L17.4014 5.5381Z" fill="black"/>
<path d="M17.6341 19.6498C17.9291 19.4321 17.9448 19.0053 17.6856 18.7461L17.6768 18.7374L14.8594 15.92C14.5193 15.5799 13.9892 15.5436 13.545 15.7279C13.0691 15.9254 12.5471 16.0344 11.9998 16.0344C11.4526 16.0344 10.9309 15.9255 10.4551 15.7282C10.011 15.5439 9.48102 15.5803 9.14098 15.9203L8.50675 16.5546L8.49803 16.5634L6.59909 18.4624C6.18668 18.8748 6.21128 19.5557 6.69483 19.8818C8.20979 20.9036 10.0352 21.5 12 21.5C14.1091 21.5 16.0578 20.8127 17.6341 19.6498Z" fill="black"/>
</g>
<path d="M18.5503 17.3133C18.9627 17.7258 19.6437 17.7013 19.9699 17.2178C20.9918 15.7027 21.5884 13.877 21.5884 11.912C21.5884 9.94686 20.9918 8.12111 19.9698 6.606C19.6436 6.12247 18.9626 6.09795 18.5502 6.51044L16.6526 8.40866C16.6443 8.41694 16.6359 8.42498 16.6274 8.43279L16.0083 9.05185C15.6682 9.39196 15.6319 9.92204 15.8163 10.3663C16.0138 10.8423 16.1229 11.3643 16.1229 11.9117C16.1229 12.4592 16.0138 12.9813 15.8162 13.4573C15.6318 13.9015 15.6681 14.4316 16.0082 14.7718L16.6274 15.3909C16.6359 15.3987 16.6443 15.4067 16.6526 15.415L18.5503 17.3133Z" fill="black"/>
<path d="M4.43866 17.546C4.65631 17.841 5.08314 17.8568 5.34238 17.5976L5.35104 17.5888L8.16847 14.7713C8.50856 14.4312 8.54487 13.9012 8.36053 13.457C8.16303 12.981 8.05402 12.4591 8.05402 11.9117C8.05402 11.3646 8.16293 10.8429 8.36027 10.3671C8.5445 9.92291 8.50814 9.39298 8.1681 9.05294L7.53387 8.41871L7.525 8.40998L5.62606 6.51105C5.21365 6.09863 4.5327 6.12323 4.20659 6.60679C3.18488 8.12174 2.58844 9.9472 2.58844 11.912C2.58844 14.0211 3.27577 15.9697 4.43866 17.546Z" fill="black"/>
</svg>