<svg width="24" height="25" viewBox="0 0 24 25" fill="none" xmlns="http://www.w3.org/2000/svg">
<path opacity="0.4" fill-rule="evenodd" clip-rule="evenodd" d="M16.6352 7.50551C15.0752 5.95551 13.4152 4.67551 11.8352 3.78551C10.2652 2.89551 8.77519 2.39551 7.57519 2.39551C6.69519 2.39551 5.96519 2.66551 5.45519 3.17551C1.18519 7.45551 1.18519 14.4155 5.45519 18.6855C7.52519 20.7655 10.2852 21.9055 13.2152 21.9055C16.0452 21.9055 18.7052 20.8455 20.7552 18.8855C20.7752 18.8655 20.8052 18.8455 20.8252 18.8255C20.8752 18.7855 20.9152 18.7355 20.9652 18.6955V18.6855C21.0052 18.6455 21.0452 18.6055 21.0652 18.5655C23.0852 16.2855 20.3252 11.1955 16.6352 7.50551Z" fill="black"/>
<path d="M19.9052 17.6255C21.0152 16.5155 19.4052 12.4055 15.5752 8.56551C12.3452 5.34551 9.23517 3.89551 7.57517 3.89551C7.11517 3.90551 6.74517 4.01551 6.51517 4.23551C6.29517 4.46551 6.17517 4.81551 6.17517 5.29551C6.17517 6.94551 7.62517 10.0555 10.8552 13.2855C14.6852 17.1155 18.7852 18.7355 19.9052 17.6255Z" fill="black"/>
</svg>