<svg width="25" height="24" viewBox="0 0 25 24" fill="none" xmlns="http://www.w3.org/2000/svg">
<path opacity="0.4" d="M20.9407 18.0075C16.9509 21.9973 10.4822 21.9975 6.49235 18.0077C2.50255 14.0179 2.50255 7.5484 6.49235 3.55859" stroke="black" stroke-width="1.5" stroke-linecap="round" stroke-linejoin="round"/>
<path d="M20.9405 18.0076C22.5365 16.4116 20.5969 11.8834 16.6071 7.89363C12.6163 3.90281 8.08811 1.96271 6.49219 3.55863" stroke="black" stroke-width="1.5" stroke-linecap="round" stroke-linejoin="round"/>
<path d="M9.62455 12.3851C8.49556 11.0875 7.59134 9.7736 6.96094 8.55469" stroke="black" stroke-width="1.5" stroke-linecap="round" stroke-linejoin="round"/>
<path d="M15.8132 17.4688C14.6505 16.8517 13.405 15.9904 12.1738 14.9258" stroke="black" stroke-width="1.5" stroke-linecap="round" stroke-linejoin="round"/>
<path d="M20.9415 18.0078C20.5042 18.4451 19.8462 18.6168 19.0391 18.5534" stroke="black" stroke-width="1.5" stroke-linecap="round" stroke-linejoin="round"/>
<path d="M5.94633 5.46005C5.88298 4.6529 6.05463 3.99491 6.49192 3.55762" stroke="black" stroke-width="1.5" stroke-linecap="round" stroke-linejoin="round"/>
</svg>