<svg width="24" height="25" viewBox="0 0 24 25" fill="none" xmlns="http://www.w3.org/2000/svg">
<path fill-rule="evenodd" clip-rule="evenodd" d="M15.5752 9.28609C19.4052 13.1261 21.0152 17.2361 19.9052 18.3461C18.7852 19.4561 14.6852 17.8361 10.8552 14.0061C7.62519 10.7761 6.17519 7.66609 6.17519 6.01609C6.17519 5.53609 6.29519 5.18609 6.51519 4.95609C6.74519 4.73609 7.11519 4.62609 7.57519 4.61609C9.23519 4.61609 12.3452 6.06609 15.5752 9.28609ZM16.6352 8.22609C15.0752 6.67609 13.4152 5.39609 11.8352 4.50609C10.2652 3.61609 8.77519 3.11609 7.57519 3.11609C6.69519 3.11609 5.96519 3.38609 5.45519 3.89609C1.18519 8.17609 1.18519 15.1361 5.45519 19.4061C7.52519 21.4861 10.2852 22.6261 13.2152 22.6261C16.0452 22.6261 18.7052 21.5661 20.7552 19.6061C20.7752 19.5861 20.8052 19.5661 20.8252 19.5461C20.8752 19.5061 20.9152 19.4561 20.9652 19.4161V19.4061C21.0052 19.3661 21.0452 19.3261 21.0652 19.2861C23.0852 17.0061 20.3252 11.9161 16.6352 8.22609Z" fill="black"/>
</svg>