<svg width="25" height="24" viewBox="0 0 25 24" fill="none" xmlns="http://www.w3.org/2000/svg">
<path d="M11.3892 3.41434C12.0907 3.07673 12.9089 3.07673 13.6104 3.41434M6.22471 5.90122C5.52321 6.2398 5.01339 6.87904 4.8402 7.63794M3.56466 13.2266C3.3905 13.9865 3.57244 14.7833 4.05892 15.3924M7.63258 19.8738C8.11808 20.4829 8.85461 20.838 9.63395 20.838M15.3656 20.838C16.145 20.838 16.8815 20.4829 17.367 19.8738M20.9416 15.3924C21.4271 14.7833 21.6091 13.9865 21.4359 13.2266M20.1603 7.63794C19.9872 6.87904 19.4773 6.2398 18.7749 5.90122" stroke="black" stroke-width="1.5" stroke-linecap="round" stroke-linejoin="round"/>
<path opacity="0.4" d="M11.389 3.41406L6.22451 5.90093M4.84 7.63766L3.56445 13.2263M4.05871 15.3921L7.63238 19.8735M9.63374 20.8377H15.3654M17.3668 19.8735L20.9414 15.3921M21.4357 13.2263L20.1601 7.63766M18.7747 5.90093L13.6102 3.41406" stroke="black" stroke-width="1.5" stroke-linecap="round" stroke-linejoin="round"/>
</svg>