<svg width="24" height="24" viewBox="0 0 24 24" fill="none" xmlns="http://www.w3.org/2000/svg">
<path d="M8.88387 20.6561L5.68532 18.417C5.17709 18.0617 4.875 17.4804 4.875 16.861V7.13901C4.875 6.51963 5.17709 5.93825 5.68532 5.58296L8.88387 3.34389C9.20306 3.1197 9.58399 3 9.97348 3H14.026C14.4155 3 14.7955 3.1197 15.1157 3.34389L18.3142 5.58296C18.8215 5.93825 19.1245 6.51963 19.1245 7.13901V16.861C19.1245 17.4804 18.8215 18.0617 18.3142 18.417L15.1157 20.6561C14.7955 20.8794 14.4155 21 14.026 21H9.97348C9.58399 21 9.20306 20.8794 8.88387 20.6561Z" stroke="black" stroke-width="1.5" stroke-linecap="round" stroke-linejoin="round"/>
<path d="M18.9261 17.704L17.7586 16.8871M10.6363 14.8501H9.14958L8.23666 15.4884M15.5902 15.3683L14.8492 14.8496H13.3901M6.23978 16.8861L5.07227 17.7031" stroke="black" stroke-width="1.5" stroke-linecap="round" stroke-linejoin="round"/>
<path d="M18.9267 6.29688L15.3405 8.80764C15.0213 9.03088 14.6404 9.15058 14.2509 9.15058H9.74901C9.35953 9.15058 8.97859 9.03088 8.6594 8.80764L5.07422 6.29782" stroke="black" stroke-width="1.5" stroke-linecap="round" stroke-linejoin="round"/>
<path d="M9.15039 9.05273V20.8124" stroke="black" stroke-width="1.5" stroke-linecap="round" stroke-linejoin="round"/>
<path d="M14.8496 9.05371V20.8124" stroke="black" stroke-width="1.5" stroke-linecap="round" stroke-linejoin="round"/>
</svg>