<svg width="25" height="24" viewBox="0 0 25 24" fill="none" xmlns="http://www.w3.org/2000/svg">
<path fill-rule="evenodd" clip-rule="evenodd" d="M13.8419 2.67663C13.8419 2.67666 13.8418 2.6766 13.8419 2.67663L19.5279 5.95846C20.5132 6.52751 21.1202 7.57998 21.1202 8.71749V15.2823C21.1202 16.4202 20.5131 17.4714 19.5281 18.0403L13.8419 21.3232C13.8418 21.3232 13.8419 21.3232 13.8419 21.3232C12.8567 21.8921 11.6425 21.8921 10.6573 21.3232C10.6573 21.3232 10.6574 21.3232 10.6573 21.3232L4.97113 18.0403C3.98609 17.4714 3.37891 16.4202 3.37891 15.2823V8.71749C3.37891 7.57998 3.98571 6.52761 4.97105 5.95856L10.6573 2.67663C10.6573 2.6766 10.6572 2.67666 10.6573 2.67663C11.6424 2.10779 12.8568 2.10779 13.8419 2.67663ZM13.0917 3.97557C12.5707 3.67468 11.9284 3.67468 11.4074 3.97557L5.72121 7.2575C5.72115 7.25753 5.72127 7.25747 5.72121 7.2575C5.20044 7.55833 4.87891 8.11535 4.87891 8.71749V15.2823C4.87891 15.8842 5.20002 16.4403 5.72113 16.7413C5.72115 16.7413 5.7211 16.7413 5.72113 16.7413L11.4073 20.0242C11.9283 20.3251 12.5707 20.3251 13.0917 20.0242L18.7779 16.7413C18.7779 16.7413 18.7779 16.7414 18.7779 16.7413C19.299 16.4403 19.6202 15.8842 19.6202 15.2823V8.71749C19.6202 8.11528 19.2988 7.55831 18.7779 7.2575L13.0917 3.97557Z" fill="black"/>
</svg>