<svg width="24" height="25" viewBox="0 0 24 25" fill="none" xmlns="http://www.w3.org/2000/svg">
<path opacity="0.4" d="M12.0184 21.65V2.65137C12.5201 2.65469 13.0213 2.78766 13.469 3.05005L19.153 6.32905C20.058 6.84405 20.621 7.81805 20.621 8.87105V15.4321C20.621 16.4841 20.058 17.4591 19.151 17.9751L13.467 21.2541C13.0202 21.515 12.5196 21.647 12.0184 21.65Z" fill="black"/>
<path d="M12.0185 2.65143C11.5049 2.64803 10.9908 2.78051 10.533 3.04912L4.85003 6.32712C3.94303 6.84512 3.37903 7.81912 3.37903 8.87112V15.4321C3.37903 16.4831 3.94303 17.4581 4.84703 17.9741L10.531 21.2531C10.985 21.5181 11.493 21.6501 12.001 21.6501C12.0069 21.6501 12.0127 21.6501 12.0185 21.6501V2.65143Z" fill="black"/>
</svg>