<svg width="25" height="25" viewBox="0 0 25 25" fill="none" xmlns="http://www.w3.org/2000/svg">
<path d="M7.04481 18.9133C6.87039 18.9129 6.70149 18.8521 6.56681 18.7413C4.79493 17.2715 3.41622 15.3842 2.55479 13.2493C2.48174 13.0691 2.48174 12.8675 2.55479 12.6873C3.42808 10.544 4.81764 8.64985 6.5998 7.17331C8.18599 5.8409 10.192 5.11195 12.2636 5.11525C14.3351 5.11854 16.3389 5.85385 17.9208 7.1913C18.0744 7.31794 18.1713 7.5004 18.1903 7.69853C18.2094 7.89666 18.149 8.09424 18.0223 8.2478C17.8957 8.40136 17.7132 8.49833 17.5151 8.51736C17.317 8.5364 17.1194 8.47594 16.9658 8.3493C15.6528 7.23306 13.9865 6.61866 12.2631 6.61537C10.5397 6.61207 8.87108 7.22009 7.55381 8.33129C6.04281 9.58281 4.84702 11.1719 4.06281 12.9703C4.83614 14.7599 6.02173 16.3413 7.52281 17.5853C7.64185 17.6837 7.72759 17.8165 7.76832 17.9655C7.80905 18.1145 7.80279 18.2725 7.75038 18.4178C7.69796 18.5631 7.60197 18.6887 7.4755 18.7774C7.34904 18.866 7.19827 18.9135 7.0438 18.9133H7.04481Z" fill="black"/>
<path d="M4.57746 21.3941C4.42922 21.394 4.28435 21.3499 4.16114 21.2675C4.03792 21.1851 3.94188 21.068 3.88517 20.931C3.82846 20.7941 3.81362 20.6434 3.8425 20.498C3.87139 20.3526 3.9427 20.219 4.04746 20.1141L19.3975 4.76409C19.4661 4.69041 19.5489 4.6313 19.6409 4.59031C19.7329 4.54932 19.8322 4.52728 19.9329 4.52551C20.0336 4.52373 20.1337 4.54225 20.2271 4.57997C20.3204 4.61769 20.4053 4.67383 20.4765 4.74505C20.5477 4.81627 20.6039 4.90111 20.6416 4.9945C20.6793 5.08789 20.6978 5.18791 20.6961 5.28861C20.6943 5.38932 20.6722 5.48864 20.6312 5.58064C20.5902 5.67264 20.5312 5.75543 20.4575 5.82409L5.10746 21.1741C5.03808 21.244 4.95549 21.2995 4.86451 21.3372C4.77353 21.375 4.67597 21.3943 4.57746 21.3941Z" fill="black"/>
<path d="M10.0711 15.8877C9.87329 15.8882 9.68339 15.8102 9.54312 15.6707C9.00816 15.136 8.64367 14.4547 8.49575 13.7129C8.34783 12.9711 8.42309 12.2022 8.71203 11.5031C9.00097 10.8041 9.49062 10.2064 10.1191 9.78559C10.7476 9.36474 11.4867 9.13962 12.2431 9.13868H12.2491C12.7508 9.13788 13.2477 9.23646 13.7111 9.42869C14.1745 9.62092 14.5953 9.90301 14.9491 10.2587C15.0228 10.3273 15.0819 10.4101 15.1229 10.5021C15.1639 10.5941 15.1859 10.6935 15.1877 10.7942C15.1895 10.8949 15.171 10.9949 15.1332 11.0883C15.0955 11.1817 15.0394 11.2665 14.9681 11.3377C14.8969 11.4089 14.8121 11.4651 14.7187 11.5028C14.6253 11.5405 14.5253 11.559 14.4246 11.5573C14.3239 11.5555 14.2246 11.5335 14.1326 11.4925C14.0406 11.4515 13.9578 11.3924 13.8891 11.3187C13.674 11.1024 13.4181 10.9309 13.1363 10.8141C12.8544 10.6974 12.5522 10.6378 12.2471 10.6387C11.9397 10.6311 11.6342 10.6881 11.3501 10.8059C11.0661 10.9237 10.8099 11.0998 10.5981 11.3227C10.1639 11.7585 9.92016 12.3485 9.92016 12.9637C9.92016 13.5788 10.1639 14.1689 10.5981 14.6047C10.7033 14.7095 10.7751 14.8431 10.8043 14.9887C10.8336 15.1342 10.819 15.2852 10.7625 15.4225C10.706 15.5598 10.6101 15.6773 10.4868 15.7601C10.3636 15.8429 10.2186 15.8873 10.0701 15.8877H10.0711Z" fill="black"/>
<path d="M12.2496 20.8193C11.3318 20.8192 10.4201 20.671 9.54956 20.3803C9.36099 20.3175 9.20514 20.1823 9.11624 20.0045C9.02735 19.8267 9.01271 19.6209 9.07556 19.4323C9.13842 19.2438 9.27363 19.0879 9.45142 18.999C9.6292 18.9101 9.83499 18.8955 10.0236 18.9583C10.7411 19.197 11.4924 19.3189 12.2486 19.3193C15.5746 19.3193 18.6146 16.9503 20.4306 12.9633C20.013 12.0403 19.4984 11.1644 18.8956 10.3503C18.7773 10.1904 18.7274 9.99003 18.7568 9.7933C18.7863 9.59657 18.8927 9.4196 19.0526 9.30131C19.2125 9.18302 19.4129 9.13312 19.6096 9.16256C19.8063 9.19201 19.9833 9.29838 20.1016 9.45831C20.8388 10.4535 21.4557 11.5323 21.9396 12.6723C21.9796 12.7655 22.0003 12.8659 22.0003 12.9673C22.0003 13.0687 21.9796 13.1691 21.9396 13.2623C19.8976 17.9943 16.2756 20.8193 12.2496 20.8193Z" fill="black"/>
<path d="M12.8041 16.7377C12.6167 16.7381 12.4359 16.6682 12.2974 16.542C12.1589 16.4157 12.0727 16.2422 12.0558 16.0555C12.0389 15.8689 12.0924 15.6826 12.206 15.5335C12.3195 15.3844 12.4847 15.2831 12.6691 15.2497C13.1328 15.1631 13.5593 14.938 13.8926 14.6042C14.2258 14.2704 14.4502 13.8435 14.5361 13.3797C14.5537 13.2828 14.5902 13.1903 14.6436 13.1075C14.6969 13.0247 14.766 12.9532 14.847 12.8971C14.928 12.8411 15.0192 12.8015 15.1155 12.7806C15.2118 12.7598 15.3112 12.7581 15.4081 12.7757C15.505 12.7933 15.5975 12.8298 15.6803 12.8832C15.7631 12.9365 15.8346 13.0057 15.8907 13.0867C15.9468 13.1676 15.9864 13.2588 16.0072 13.3551C16.028 13.4514 16.0297 13.5508 16.0121 13.6477C15.8706 14.4108 15.5016 15.1131 14.9534 15.6625C14.4053 16.2119 13.7038 16.5825 12.9411 16.7257C12.8959 16.7337 12.85 16.7377 12.8041 16.7377Z" fill="black"/>
</svg>