<svg width="24" height="24" viewBox="0 0 24 24" fill="none" xmlns="http://www.w3.org/2000/svg">
<path fill-rule="evenodd" clip-rule="evenodd" d="M20.13 8.29965C20.05 8.18965 19.91 8.10965 19.77 8.10965C19.63 8.09965 19.48 8.14965 19.38 8.24965L15.9317 11.7463C15.8618 11.8172 15.8331 11.918 15.8452 12.0168C16.0719 13.8749 13.8749 16.1407 12.0349 15.8435C11.9317 15.8268 11.8245 15.8544 11.75 15.9278L9.19995 18.4397C9.06995 18.5597 9.01995 18.7497 9.05995 18.9197C9.10995 19.0997 9.23995 19.2297 9.41995 19.2797C10.23 19.4897 11.1 19.5997 12.01 19.5997C16.98 19.5997 21.5 15.9797 21.5 11.9997C21.5 10.7497 21.03 9.46965 20.13 8.29965Z" fill="black"/>
<path fill-rule="evenodd" clip-rule="evenodd" d="M8.18 11.9995C8.18 9.88953 9.89 8.16953 12 8.16953C12.6573 8.16953 13.273 8.33567 13.8127 8.62186C13.9808 8.711 14.0037 8.93578 13.8692 9.07031L13.1808 9.75872C13.0905 9.84901 12.9536 9.8705 12.8343 9.82502C12.5755 9.72638 12.2941 9.66953 12 9.66953C10.72 9.66953 9.68 10.7195 9.68 11.9995C9.68 12.2917 9.72989 12.5652 9.82966 12.82C9.87727 12.9415 9.85734 13.0822 9.76503 13.1745L9.08078 13.8588C8.94625 13.9933 8.72143 13.9703 8.63202 13.8024C8.34602 13.2652 8.18 12.6566 8.18 11.9995ZM20.2 4.85953C20.49 4.56953 20.49 4.09953 20.2 3.79953C19.91 3.50953 19.43 3.50953 19.14 3.79953L17.17 5.76953C15.58 4.88953 13.78 4.39953 12 4.39953C7.12 4.39953 2.5 8.09953 2.5 11.9995C2.5 13.9495 3.62 15.9095 5.54 17.3995L3.8 19.1395C3.51 19.4395 3.51 19.9095 3.8 20.1995C3.95 20.3495 4.14 20.4195 4.33 20.4195C4.52 20.4195 4.71 20.3495 4.86 20.1995L20.2 4.85953Z" fill="black"/>
</svg>