<svg width="25" height="25" viewBox="0 0 25 25" fill="none" xmlns="http://www.w3.org/2000/svg">
<path fill-rule="evenodd" clip-rule="evenodd" d="M22.8325 7.58352L21.0255 6.72552L20.5965 7.62852C19.2595 10.4425 17.1855 12.4085 14.7955 13.2305L14.5945 13.2885C13.8375 13.5265 13.0535 13.6615 12.2495 13.6615C8.81748 13.6605 5.69748 11.4055 3.90348 7.62852L3.47448 6.72552L1.66748 7.58352L2.09648 8.48652C2.69748 9.75052 3.43348 10.8655 4.26948 11.8235L2.05648 14.0385L3.47048 15.4515L5.69648 13.2245C6.59548 13.9685 7.57648 14.5515 8.61448 14.9615L7.75348 17.9245L9.67448 18.4825L10.5385 15.5075C11.0985 15.6065 11.6685 15.6615 12.2485 15.6615H12.2515C12.8055 15.6615 13.3505 15.6125 13.8855 15.5225L14.7455 18.4825L16.6655 17.9245L15.8135 14.9885C16.8615 14.5835 17.8535 14.0055 18.7615 13.2615L20.9505 15.4515L22.3655 14.0385L20.1935 11.8655C21.0455 10.8985 21.7935 9.76952 22.4035 8.48652L22.8325 7.58352Z" fill="black"/>
</svg>