<svg width="24" height="24" viewBox="0 0 24 24" fill="none" xmlns="http://www.w3.org/2000/svg">
<path d="M9.76045 14.3668C9.18545 13.7928 8.83545 13.0128 8.83545 12.1378C8.83545 10.3848 10.2474 8.9718 11.9994 8.9718C12.8664 8.9718 13.6644 9.3228 14.2294 9.8968" stroke="black" stroke-width="1.5" stroke-linecap="round" stroke-linejoin="round"/>
<path d="M15.1049 12.6989C14.8729 13.9889 13.8569 15.0069 12.5679 15.2409" stroke="black" stroke-width="1.5" stroke-linecap="round" stroke-linejoin="round"/>
<path d="M6.65451 17.4723C5.06751 16.2263 3.72351 14.4063 2.74951 12.1373C3.73351 9.8583 5.08651 8.0283 6.68351 6.7723C8.27051 5.5163 10.1015 4.8343 11.9995 4.8343C13.9085 4.8343 15.7385 5.5263 17.3355 6.7913" stroke="black" stroke-width="1.5" stroke-linecap="round" stroke-linejoin="round"/>
<path d="M19.4473 8.9908C20.1353 9.9048 20.7403 10.9598 21.2493 12.1368C19.2823 16.6938 15.8063 19.4388 11.9993 19.4388C11.1363 19.4388 10.2853 19.2988 9.46729 19.0258" stroke="black" stroke-width="1.5" stroke-linecap="round" stroke-linejoin="round"/>
<path d="M19.8868 4.2496L4.11279 20.0236" stroke="black" stroke-width="1.5" stroke-linecap="round" stroke-linejoin="round"/>
</svg>