<svg width="24" height="24" viewBox="0 0 24 24" fill="none" xmlns="http://www.w3.org/2000/svg">
<path fill-rule="evenodd" clip-rule="evenodd" d="M8.18 11.9995C8.18 9.88953 9.89 8.16953 12 8.16953C12.6573 8.16953 13.273 8.33567 13.8127 8.62186C13.9808 8.711 14.0037 8.93578 13.8692 9.07031L13.1808 9.75872C13.0905 9.84901 12.9536 9.8705 12.8343 9.82502C12.5755 9.72638 12.2941 9.66953 12 9.66953C10.72 9.66953 9.68 10.7195 9.68 11.9995C9.68 12.2917 9.72989 12.5652 9.82966 12.82C9.87727 12.9415 9.85734 13.0822 9.76503 13.1745L9.08078 13.8588C8.94625 13.9933 8.72143 13.9703 8.63202 13.8024C8.34602 13.2652 8.18 12.6566 8.18 11.9995ZM20.2 4.85953C20.49 4.56953 20.49 4.09953 20.2 3.79953C19.91 3.50953 19.43 3.50953 19.14 3.79953L17.17 5.76953C15.58 4.88953 13.78 4.39953 12 4.39953C7.12 4.39953 2.5 8.09953 2.5 11.9995C2.5 13.9495 3.62 15.9095 5.54 17.3995L3.8 19.1395C3.51 19.4395 3.51 19.9095 3.8 20.1995C3.95 20.3495 4.14 20.4195 4.33 20.4195C4.52 20.4195 4.71 20.3495 4.86 20.1995L20.2 4.85953Z" fill="black"/>
<path opacity="0.4" fill-rule="evenodd" clip-rule="evenodd" d="M20.1301 8.30063C20.0501 8.19063 19.9101 8.11063 19.7701 8.11063C19.6301 8.10063 19.4801 8.15063 19.3801 8.25063L15.9319 11.7473C15.862 11.8182 15.8332 11.919 15.8453 12.0178C16.072 13.8759 13.875 16.1416 12.035 15.8445C11.9318 15.8278 11.8246 15.8554 11.7501 15.9288L9.20008 18.4406C9.07008 18.5606 9.02008 18.7506 9.06008 18.9206C9.11008 19.1006 9.24008 19.2306 9.42008 19.2806C10.2301 19.4906 11.1001 19.6006 12.0101 19.6006C16.9801 19.6006 21.5001 15.9806 21.5001 12.0006C21.5001 10.7506 21.0301 9.47063 20.1301 8.30063Z" fill="black"/>
</svg>