<svg width="25" height="25" viewBox="0 0 25 25" fill="none" xmlns="http://www.w3.org/2000/svg">
<path fill-rule="evenodd" clip-rule="evenodd" d="M8.34 12.5178C8.34 10.3578 10.09 8.60778 12.25 8.60778C13.01 8.60778 13.73 8.82778 14.33 9.21778L13.23 10.3178C12.93 10.1778 12.6 10.1078 12.25 10.1078C10.92 10.1078 9.84 11.1878 9.84 12.5178C9.84 12.8678 9.91 13.1978 10.05 13.4978L8.94 14.6078C8.56 14.0078 8.34 13.2878 8.34 12.5178ZM11.06 14.6178L14.35 11.3378L15.43 10.2478L18.73 6.95778L18.72 6.94778L20.42 5.24778C20.72 4.95778 20.72 4.47778 20.42 4.18778C20.13 3.89778 19.65 3.89778 19.36 4.18778L17.44 6.10778C15.94 5.25778 14.16 4.71778 12.25 4.71778C6.85 4.71778 2.5 8.98778 2.5 12.5178C2.5 14.3678 3.69 16.4178 5.6 17.9478L3.59 19.9578C3.29 20.2578 3.29 20.7278 3.59 21.0178C3.73 21.1678 3.93 21.2378 4.12 21.2378C4.31 21.2378 4.5 21.1678 4.65 21.0178L5.72 19.9578L6.85 18.8178H6.86L11.06 14.6178Z" fill="black"/>
<path opacity="0.4" fill-rule="evenodd" clip-rule="evenodd" d="M19.85 7.95758L16.08 11.7276C16.13 11.9876 16.16 12.2476 16.16 12.5176C16.16 14.6776 14.4 16.4276 12.25 16.4276C11.98 16.4276 11.72 16.3976 11.46 16.3476H11.45L8.27002 19.5276C9.48002 20.0176 10.83 20.3176 12.25 20.3176C17.65 20.3176 22 16.0576 22 12.5176C22 10.9976 21.19 9.34758 19.85 7.95758Z" fill="black"/>
</svg>