<svg width="25" height="24" viewBox="0 0 25 24" fill="none" xmlns="http://www.w3.org/2000/svg">
<path d="M4.552 15.7255C3.568 14.5465 2.995 13.2205 2.995 12.0035C2.995 8.72349 7.13499 4.70349 12.245 4.70349C14.335 4.70349 16.275 5.37349 17.835 6.41349" stroke="black" stroke-width="1.5" stroke-linecap="round" stroke-linejoin="round"/>
<path d="M20.0951 8.47302C20.9861 9.60302 21.5051 10.853 21.5051 12.003C21.5051 15.283 17.3551 19.303 12.2451 19.303C11.3351 19.303 10.4461 19.173 9.61511 18.943" stroke="black" stroke-width="1.5" stroke-linecap="round" stroke-linejoin="round"/>
<path d="M10.0111 14.2301C9.41608 13.6411 9.08308 12.8381 9.08608 12.0011C9.08208 10.2561 10.4941 8.83808 12.2401 8.83508" stroke="black" stroke-width="1.5" stroke-linecap="round" stroke-linejoin="round"/>
<path d="M15.3552 12.5621C15.1212 13.8541 14.1102 14.8671 12.8182 15.1041" stroke="black" stroke-width="1.5" stroke-linecap="round" stroke-linejoin="round"/>
<path d="M20.1372 4.11304L4.36316 19.887" stroke="black" stroke-width="1.5" stroke-linecap="round" stroke-linejoin="round"/>
</svg>