<svg width="24" height="24" viewBox="0 0 24 24" fill="none" xmlns="http://www.w3.org/2000/svg">
<path fill-rule="evenodd" clip-rule="evenodd" d="M21.4601 11.8052C20.9801 10.6752 20.3701 9.60524 19.6501 8.63524C19.5601 8.52524 19.4301 8.45524 19.2801 8.44524C19.1301 8.42524 19.0001 8.48524 18.8901 8.58524L15.9496 11.5643C15.8809 11.6338 15.8517 11.7324 15.8633 11.8295C16.1047 13.8487 13.969 16.1156 11.8886 15.8319C11.7892 15.8183 11.6875 15.8478 11.6165 15.9188L9.19007 18.3452C9.06007 18.4652 9.01007 18.6452 9.05007 18.8152C9.09007 18.9852 9.22007 19.1252 9.38007 19.1752C10.2501 19.4552 11.1301 19.5952 12.0001 19.5952C15.9201 19.5952 19.4601 16.8352 21.4601 12.1952C21.5101 12.0752 21.5101 11.9252 21.4601 11.8052Z" fill="black"/>
<path fill-rule="evenodd" clip-rule="evenodd" d="M8.16994 11.9956C8.16994 10.9756 8.56994 10.0156 9.28994 9.28562C9.64994 8.92562 10.0799 8.65562 10.5399 8.47563C10.6599 8.42562 10.7699 8.38562 10.8899 8.35562C11.2499 8.23562 11.6299 8.17562 12.0299 8.17562C12.6785 8.17562 13.2856 8.33465 13.8225 8.61821C13.9907 8.70706 14.0137 8.93188 13.8792 9.0664L13.1769 9.76862C13.0885 9.85704 12.955 9.87973 12.8373 9.83758C12.5593 9.73804 12.2614 9.68562 11.9699 9.68562H11.8999C11.8599 9.68562 11.8099 9.68562 11.7699 9.69562C11.7199 9.69562 11.6699 9.70562 11.6199 9.71562C11.5299 9.72563 11.4299 9.74563 11.3399 9.77562C11.2799 9.79562 11.2199 9.81562 11.1699 9.83562C11.1099 9.86562 11.0599 9.89562 10.9999 9.91562C10.2399 10.3056 9.70994 11.0856 9.70994 11.9956C9.70994 12.2812 9.76029 12.5542 9.85599 12.8096C9.90079 12.9292 9.87942 13.0661 9.78913 13.1564L9.07676 13.8688C8.94353 14.002 8.72125 13.981 8.63139 13.8154C8.33161 13.263 8.16994 12.6328 8.16994 11.9956ZM9.89493 15.1756C9.89814 15.1756 9.90121 15.1743 9.90347 15.1721L10.9899 14.0756L14.1099 10.9556L15.2064 9.86916C15.2087 9.8669 15.2099 9.86382 15.2099 9.86061C15.2099 9.85742 15.2112 9.85436 15.2135 9.8521L20.2099 4.85563C20.4999 4.56563 20.4999 4.09562 20.2099 3.79563C19.9099 3.50563 19.4399 3.50563 19.1499 3.79563L16.9499 5.99563C15.5099 4.97563 13.7699 4.42562 11.9899 4.39562C9.99994 4.42562 8.04994 5.12563 6.50994 6.39563C4.75994 7.84562 3.38994 9.71563 2.53994 11.8156C2.48994 11.9356 2.48994 12.0656 2.53994 12.1856C3.27994 14.0456 4.42994 15.7156 5.88994 17.0556L3.79994 19.1456C3.49994 19.4456 3.49994 19.9156 3.79994 20.2056C3.93994 20.3556 4.13994 20.4256 4.32994 20.4256C4.51994 20.4256 4.70994 20.3556 4.85994 20.2056L9.88642 15.1791C9.88867 15.1769 9.89173 15.1756 9.89493 15.1756Z" fill="black"/>
</svg>