<svg width="25" height="24" viewBox="0 0 25 24" fill="none" xmlns="http://www.w3.org/2000/svg">
<path d="M19.8531 18.2572C19.0931 18.2572 18.3331 18.0573 17.6631 17.6473C16.8031 17.1273 15.7031 17.1273 14.8431 17.6473C13.5131 18.4573 11.7931 18.4573 10.4631 17.6473C9.60311 17.1273 8.50317 17.1273 7.64317 17.6473C6.31317 18.4573 4.59316 18.4573 3.26316 17.6473C2.91316 17.4373 2.79316 16.9673 3.01316 16.6173C3.22316 16.2673 3.68313 16.1473 4.04313 16.3673C4.90313 16.8873 6.00314 16.8873 6.86314 16.3673C8.19314 15.5573 9.91314 15.5573 11.2431 16.3673C12.1031 16.8873 13.2031 16.8873 14.0631 16.3673C15.3931 15.5573 17.1132 15.5573 18.4432 16.3673C19.2932 16.8873 20.4032 16.8873 21.2632 16.3673C21.6232 16.1573 22.0831 16.2673 22.2931 16.6173C22.5131 16.9673 22.3931 17.4373 22.0431 17.6473C21.3731 18.0473 20.6131 18.2572 19.8531 18.2572Z" fill="black"/>
<path d="M19.8531 21.7475C19.0931 21.7475 18.3331 21.5475 17.6631 21.1375C16.8031 20.6175 15.7031 20.6175 14.8431 21.1375C13.5131 21.9475 11.7931 21.9475 10.4631 21.1375C9.60311 20.6175 8.50317 20.6175 7.64317 21.1375C6.31317 21.9475 4.59316 21.9475 3.26316 21.1375C2.91316 20.9275 2.79316 20.4575 3.01316 20.1075C3.22316 19.7575 3.68313 19.6375 4.04313 19.8575C4.90313 20.3775 6.00314 20.3775 6.86314 19.8575C8.19314 19.0475 9.91314 19.0475 11.2431 19.8575C12.1031 20.3775 13.2031 20.3775 14.0631 19.8575C15.3931 19.0475 17.1132 19.0475 18.4432 19.8575C19.2932 20.3775 20.4032 20.3775 21.2632 19.8575C21.6232 19.6375 22.0831 19.7575 22.2931 20.1075C22.5131 20.4575 22.3931 20.9275 22.0431 21.1375C21.3731 21.5375 20.6131 21.7475 19.8531 21.7475Z" fill="black"/>
<path d="M12.7333 12.2378C9.93334 12.2378 7.65332 9.95778 7.65332 7.15778C7.65332 4.90778 9.16331 2.89781 11.3333 2.27781C11.6233 2.19781 11.9733 2.3078 12.1633 2.5478C12.3533 2.7878 12.3733 3.14779 12.2233 3.41779C11.5933 4.60779 11.8233 6.12778 12.7933 7.09778C13.7633 8.06778 15.2833 8.29778 16.4933 7.65778C16.4933 7.65778 16.5034 7.65778 16.5134 7.65778C16.7834 7.52778 17.1333 7.56779 17.3633 7.75779C17.5933 7.94779 17.6933 8.28779 17.6133 8.56779C16.9933 10.7278 14.9933 12.2478 12.7333 12.2478V12.2378ZM10.3934 4.46781C9.63337 5.13781 9.16333 6.10779 9.16333 7.16779C9.16333 9.13779 10.7633 10.7478 12.7433 10.7478C13.7933 10.7478 14.7734 10.2778 15.4434 9.50779C14.1034 9.61779 12.7333 9.15779 11.7433 8.16779C10.7533 7.17779 10.2933 5.80781 10.4033 4.46781H10.3934Z" fill="black"/>
<path d="M5.01309 14.6675C4.60309 14.6675 4.26309 14.3275 4.26309 13.9175V11.8875L3.98306 12.1574C3.69306 12.4474 3.21307 12.4474 2.92307 12.1574C2.63307 11.8674 2.63307 11.3875 2.92307 11.0975L4.47305 9.54746C4.54305 9.47746 4.63304 9.41746 4.71304 9.38746C4.88304 9.31746 5.10305 9.31746 5.28305 9.38746C5.34305 9.40746 5.4031 9.44747 5.4531 9.48747L7.01309 11.0375C7.30309 11.3275 7.30309 11.8075 7.01309 12.0975C6.72309 12.3875 6.2431 12.3875 5.9531 12.0975L5.67307 11.8175V13.8475C5.67307 14.2575 5.34307 14.5975 4.92307 14.5975L5.01309 14.6675Z" fill="black"/>
<path d="M20.0931 14.6675C19.6831 14.6675 19.3431 14.3275 19.3431 13.9175V11.8875L19.0631 12.1574C18.7731 12.4474 18.2931 12.4474 18.0031 12.1574C17.7131 11.8674 17.7131 11.3875 18.0031 11.0975L19.5531 9.54746C19.6231 9.47746 19.7131 9.41746 19.7931 9.38746C19.9631 9.31746 20.1831 9.31746 20.3631 9.38746C20.4231 9.40746 20.4831 9.44747 20.5331 9.48747L22.0931 11.0375C22.3831 11.3275 22.3831 11.8075 22.0931 12.0975C21.8031 12.3875 21.3231 12.3875 21.0331 12.0975L20.7531 11.8175V13.8475C20.7531 14.2575 20.4231 14.5975 20.0031 14.5975L20.0931 14.6675Z" fill="black"/>
</svg>