<svg width="24" height="24" viewBox="0 0 24 24" fill="none" xmlns="http://www.w3.org/2000/svg">
<path fill-rule="evenodd" clip-rule="evenodd" d="M2.25 11.389C2.25 6.58851 6.72573 2.875 12.002 2.875C17.2766 2.875 21.75 6.58881 21.75 11.389C21.75 13.8557 20.5559 16.053 18.6847 17.5927C18.7555 17.8028 18.8254 18.0056 18.908 18.2146C19.0502 18.5744 19.1981 18.8619 19.3697 19.0723C19.3746 19.0783 19.3793 19.0843 19.384 19.0904C19.6686 19.4622 19.8057 19.9829 19.5528 20.4653C19.3075 20.9333 18.8192 21.1243 18.3745 21.1243C16.6607 21.1243 15.1744 20.5145 13.8892 19.7135C13.0425 19.7606 12.4094 19.785 12 19.785C6.73958 19.785 2.25 16.205 2.25 11.389ZM17.3661 16.7167L17.3676 16.7156L17.3758 16.7097L17.4111 16.6838C17.4423 16.6609 17.4881 16.6268 17.545 16.5833C19.2306 15.2793 20.25 13.4226 20.25 11.389C20.25 7.61719 16.6634 4.375 12.002 4.375C7.33827 4.375 3.75 7.61749 3.75 11.389C3.75 15.149 7.32042 18.285 12 18.285C12.4004 18.285 13.0776 18.2582 14.0447 18.2023C14.2043 18.193 14.3626 18.235 14.4966 18.3221C15.5586 19.0121 16.6832 19.5066 17.9179 19.606C17.7517 19.3299 17.6213 19.04 17.513 18.766C17.4038 18.4897 17.302 18.1875 17.2115 17.9188C17.17 17.7956 17.1309 17.6793 17.0945 17.5759C16.9837 17.261 17.0944 16.9108 17.366 16.7168C17.366 16.7168 17.366 16.7167 17.366 16.7167L17.366 16.7167C17.3661 16.7167 17.3661 16.7167 17.3661 16.7167Z" fill="black"/>
<path fill-rule="evenodd" clip-rule="evenodd" d="M7.96772 12.9697C8.26061 12.6768 8.73548 12.6768 9.02838 12.9697C10.6808 14.6221 13.3184 14.6221 14.9708 12.9697C15.2637 12.6768 15.7386 12.6768 16.0315 12.9697C16.3244 13.2626 16.3244 13.7374 16.0315 14.0303C13.7933 16.2685 10.2059 16.2685 7.96772 14.0303C7.67482 13.7374 7.67482 13.2626 7.96772 12.9697Z" fill="black"/>
</svg>