<svg width="24" height="24" viewBox="0 0 24 24" fill="none" xmlns="http://www.w3.org/2000/svg">
<path fill-rule="evenodd" clip-rule="evenodd" d="M17.802 17.327C17.802 17.327 17.879 17.272 18.002 17.178C19.845 15.753 21 13.688 21 11.389C21 7.103 16.97 3.625 12.002 3.625C7.032 3.625 3 7.103 3 11.389C3 15.677 7.03 19.035 12 19.035C12.424 19.035 13.12 19.007 14.088 18.951C15.35 19.771 16.7625 20.3743 18.3745 20.3743C18.8735 20.3743 19.1085 19.9643 18.7885 19.5463C18.3025 18.9503 18.062 18.066 17.802 17.327Z" stroke="black" stroke-width="1.5" stroke-linecap="round" stroke-linejoin="round"/>
<path d="M8.49805 13.5C10.4434 15.4453 13.5559 15.4453 15.5012 13.5" stroke="black" stroke-width="1.5" stroke-linecap="round" stroke-linejoin="round"/>
</svg>