<svg width="25" height="25" viewBox="0 0 25 25" fill="none" xmlns="http://www.w3.org/2000/svg">
<path fill-rule="evenodd" clip-rule="evenodd" d="M22.25 12.1191C22.25 12.5334 21.9142 12.8691 21.5 12.8691L3.5 12.8691C3.08579 12.8691 2.75 12.5334 2.75 12.1191C2.75 11.7049 3.08579 11.3691 3.5 11.3691L21.5 11.3691C21.9142 11.3691 22.25 11.7049 22.25 12.1191Z" fill="black"/>
<path fill-rule="evenodd" clip-rule="evenodd" d="M4.75 8.4248C4.75 8.01059 5.08579 7.6748 5.5 7.6748H7.83326C8.24747 7.6748 8.58326 8.01059 8.58326 8.4248V12.123C8.58326 12.5373 8.24747 12.873 7.83326 12.873C7.41904 12.873 7.08326 12.5373 7.08326 12.123V9.1748H6.25V12.123C6.25 12.5373 5.91421 12.873 5.5 12.873C5.08579 12.873 4.75 12.5373 4.75 12.123V8.4248Z" fill="black"/>
<path fill-rule="evenodd" clip-rule="evenodd" d="M9.41675 5.77197C9.41675 5.35776 9.75253 5.02197 10.1667 5.02197H12.5C12.9142 5.02197 13.25 5.35776 13.25 5.77197V12.1191C13.25 12.5334 12.9142 12.8691 12.5 12.8691C12.0858 12.8691 11.75 12.5334 11.75 12.1191V6.52197H10.9167V12.1191C10.9167 12.5334 10.581 12.8691 10.1667 12.8691C9.75253 12.8691 9.41675 12.5334 9.41675 12.1191V5.77197Z" fill="black"/>
<path fill-rule="evenodd" clip-rule="evenodd" d="M14.3029 2.58881C14.4436 2.44816 14.6343 2.36914 14.8333 2.36914H17.1665C17.5807 2.36914 17.9165 2.70493 17.9165 3.11914V12.123C17.9165 12.5373 17.5807 12.873 17.1665 12.873C16.7523 12.873 16.4165 12.5373 16.4165 12.123V3.86914H15.5833V12.123C15.5833 12.5373 15.2475 12.873 14.8333 12.873C14.419 12.873 14.0833 12.5373 14.0833 12.123V3.11914C14.0833 2.92023 14.1623 2.72946 14.3029 2.58881Z" fill="black"/>
<path fill-rule="evenodd" clip-rule="evenodd" d="M7.08325 18.4663C7.08325 18.8805 7.41904 19.2163 7.83325 19.2163H10.1665C10.5807 19.2163 10.9165 18.8805 10.9165 18.4663V12.123C10.9165 11.7088 10.5807 11.373 10.1665 11.373C9.7523 11.373 9.41651 11.7088 9.41651 12.123V17.7163H8.58325V12.123C8.58325 11.7088 8.24747 11.373 7.83325 11.373C7.41904 11.373 7.08325 11.7088 7.08325 12.123V18.4663Z" fill="black"/>
<path fill-rule="evenodd" clip-rule="evenodd" d="M11.75 21.1191C11.75 21.5334 12.0858 21.8691 12.5 21.8691H14.8333C15.2475 21.8691 15.5833 21.5334 15.5833 21.1191V12.123C15.5833 11.7088 15.2475 11.373 14.8333 11.373C14.419 11.373 14.0833 11.7088 14.0833 12.123V20.3691H13.25V12.123C13.25 11.7088 12.9142 11.373 12.5 11.373C12.0858 11.373 11.75 11.7088 11.75 12.123V21.1191Z" fill="black"/>
<path fill-rule="evenodd" clip-rule="evenodd" d="M16.6367 18.9966C16.7773 19.1373 16.9681 19.2163 17.167 19.2163H19.5003C19.9145 19.2163 20.2503 18.8805 20.2503 18.4663V12.123C20.2503 11.7088 19.9145 11.373 19.5003 11.373C19.086 11.373 18.7503 11.7088 18.7503 12.123V17.7163H17.917V12.123C17.917 11.7088 17.5812 11.373 17.167 11.373C16.7528 11.373 16.417 11.7088 16.417 12.123V18.4663C16.417 18.6652 16.496 18.856 16.6367 18.9966Z" fill="black"/>
</svg>