<svg width="25" height="24" viewBox="0 0 25 24" fill="none" xmlns="http://www.w3.org/2000/svg">
<path opacity="0.4" d="M3.5 15.5312V17.1084C3.5 19.2577 5.24256 21.0002 7.39278 21.0002H8.64984" stroke="black" stroke-width="1.5" stroke-linecap="round" stroke-linejoin="round"/>
<path opacity="0.4" d="M21.4993 15.5312V17.1084C21.4993 19.2577 19.7568 21.0002 17.6065 21.0002H16.3174" stroke="black" stroke-width="1.5" stroke-linecap="round" stroke-linejoin="round"/>
<path opacity="0.4" d="M3.5 8.46994V6.89278C3.5 4.74256 5.24256 3 7.39278 3H8.68194" stroke="black" stroke-width="1.5" stroke-linecap="round" stroke-linejoin="round"/>
<path opacity="0.4" d="M21.4994 8.46994V6.89278C21.4994 4.74256 19.7569 3 17.6067 3H16.3496" stroke="black" stroke-width="1.5" stroke-linecap="round" stroke-linejoin="round"/>
<path fill-rule="evenodd" clip-rule="evenodd" d="M16.6983 11.9991C16.6983 14.3176 14.8186 16.1983 12.4991 16.1983C10.1805 16.1983 8.30078 14.3176 8.30078 11.9991C8.30078 9.68053 10.1805 7.80078 12.4991 7.80078C14.8186 7.80078 16.6983 9.68053 16.6983 11.9991Z" stroke="black" stroke-width="1.5" stroke-linecap="round" stroke-linejoin="round"/>
<path d="M12.5002 12.0513V12.0031M12.5002 11.75C12.362 11.75 12.25 11.862 12.25 11.9998C12.25 12.138 12.362 12.25 12.5002 12.25C12.6385 12.25 12.7505 12.138 12.7505 11.9998C12.7505 11.862 12.6385 11.75 12.5002 11.75Z" stroke="black" stroke-width="1.5" stroke-linecap="round" stroke-linejoin="round"/>
</svg>