<svg width="24" height="24" viewBox="0 0 24 24" fill="none" xmlns="http://www.w3.org/2000/svg">
<g opacity="0.4">
<path fill-rule="evenodd" clip-rule="evenodd" d="M8.15037 20.2503H6.89237C5.16037 20.2503 3.75037 18.8423 3.75037 17.1103V15.5303C3.75037 15.1163 3.41437 14.7803 3.00037 14.7803C2.58637 14.7803 2.25037 15.1163 2.25037 15.5303V17.1103C2.25037 19.6693 4.33337 21.7503 6.89237 21.7503H8.15037C8.56437 21.7503 8.90037 21.4143 8.90037 21.0003C8.90037 20.5863 8.56437 20.2503 8.15037 20.2503Z" fill="black"/>
<path fill-rule="evenodd" clip-rule="evenodd" d="M20.998 14.7812C20.584 14.7812 20.248 15.1173 20.248 15.5312V17.1112C20.248 18.8433 18.839 20.2512 17.106 20.2512H15.816C15.402 20.2512 15.066 20.5872 15.066 21.0012C15.066 21.4152 15.402 21.7512 15.816 21.7512H17.106C19.666 21.7512 21.748 19.6702 21.748 17.1112V15.5312C21.748 15.1173 21.412 14.7812 20.998 14.7812Z" fill="black"/>
<path fill-rule="evenodd" clip-rule="evenodd" d="M3 9.22C3.414 9.22 3.75 8.884 3.75 8.47V6.89C3.75 5.158 5.16 3.75 6.893 3.75H8.182C8.596 3.75 8.932 3.414 8.932 3C8.932 2.586 8.596 2.25 8.182 2.25H6.893C4.333 2.25 2.25 4.331 2.25 6.89V8.47C2.25 8.884 2.586 9.22 3 9.22Z" fill="black"/>
<path fill-rule="evenodd" clip-rule="evenodd" d="M17.1075 2.25098H15.8495C15.4355 2.25098 15.0995 2.58698 15.0995 3.00098C15.0995 3.41498 15.4355 3.75098 15.8495 3.75098H17.1075C18.8395 3.75098 20.2495 5.15898 20.2495 6.89098V8.47098C20.2495 8.88498 20.5855 9.22098 20.9995 9.22098C21.4135 9.22098 21.7495 8.88498 21.7495 8.47098V6.89098C21.7495 4.33198 19.6675 2.25098 17.1075 2.25098Z" fill="black"/>
</g>
<path fill-rule="evenodd" clip-rule="evenodd" d="M12.0008 12.9969C11.4508 12.9969 11.0008 12.5569 11.0008 11.9969C11.0008 11.4469 11.4508 10.9969 12.0008 10.9969C12.5508 10.9969 13.0008 11.4469 13.0008 11.9969C13.0008 12.5569 12.5508 12.9969 12.0008 12.9969ZM16.7008 11.9969C16.7008 9.40687 14.5908 7.29688 12.0008 7.29688C9.41078 7.29688 7.30078 9.40687 7.30078 11.9969C7.30078 14.5969 9.41078 16.6969 12.0008 16.6969C14.5908 16.6969 16.7008 14.5969 16.7008 11.9969Z" fill="black"/>
</svg>