<svg width="24" height="24" viewBox="0 0 24 24" fill="none" xmlns="http://www.w3.org/2000/svg">
<path d="M4.49512 8.77539V17.4504C4.49512 19.1424 5.86701 20.5143 7.55901 20.5143H16.4384C18.1304 20.5143 19.5023 19.1424 19.5023 17.4504V8.77539" stroke="black" stroke-width="1.5" stroke-linecap="round" stroke-linejoin="round"/>
<path d="M21 9.95611L13.4741 3.9986C12.6101 3.31557 11.3899 3.31557 10.5259 3.9986L3 9.95611" stroke="black" stroke-width="1.5" stroke-linecap="round" stroke-linejoin="round"/>
<path d="M14.9681 16.2582L13.5369 14.827M13.5371 14.8281C12.5057 15.8594 10.8342 15.8594 9.80281 14.8281C8.77146 13.7967 8.77146 12.1252 9.80281 11.0938C10.8342 10.0625 12.5057 10.0625 13.5371 11.0938C14.5684 12.1252 14.5684 13.7967 13.5371 14.8281Z" stroke="black" stroke-width="1.5" stroke-linecap="round" stroke-linejoin="round"/>
</svg>