<svg width="25" height="24" viewBox="0 0 25 24" fill="none" xmlns="http://www.w3.org/2000/svg">
<path fill-rule="evenodd" clip-rule="evenodd" d="M8.57874 16.1354C8.57874 15.7212 8.91452 15.3854 9.32874 15.3854H15.1437C15.5579 15.3854 15.8937 15.7212 15.8937 16.1354C15.8937 16.5496 15.5579 16.8854 15.1437 16.8854H9.32874C8.91452 16.8854 8.57874 16.5496 8.57874 16.1354Z" fill="black"/>
<path fill-rule="evenodd" clip-rule="evenodd" d="M7.05988 5.97765C6.64734 6.35978 6.27692 6.68822 5.94765 6.97845C5.90117 7.01941 5.85566 7.05949 5.81107 7.09875C5.53216 7.34435 5.28927 7.55824 5.0711 7.75963C4.56579 8.22608 4.2466 8.57827 4.02087 8.97216C3.56837 9.76176 3.40002 10.869 3.40002 13.713C3.40002 15.7691 3.52309 17.2451 3.80118 18.3153C4.07418 19.3658 4.48114 19.9679 5.02024 20.3548C5.58328 20.759 6.38707 20.9997 7.59747 21.1245C8.80668 21.2491 10.315 21.25 12.236 21.25C14.157 21.25 15.6654 21.2491 16.8746 21.1245C18.085 20.9997 18.8888 20.759 19.4518 20.3548C19.9909 19.9679 20.3979 19.3658 20.6709 18.3153C20.949 17.2451 21.072 15.7691 21.072 13.713C21.072 10.8689 20.9039 9.76166 20.4516 8.97204C20.226 8.57818 19.9069 8.22601 19.4017 7.75958C19.1834 7.55801 18.9403 7.34391 18.6611 7.09801C18.6168 7.05898 18.5715 7.01914 18.5253 6.97843C18.1961 6.6882 17.8257 6.35976 17.4131 5.97762C17.1689 5.78041 16.9159 5.56703 16.6537 5.34588C16.0826 4.86414 15.4677 4.34554 14.8044 3.87695C13.8195 3.18118 12.9275 2.75 12.208 2.75C11.4909 2.75 10.6111 3.18121 9.63915 3.87803C9.00487 4.33278 8.42464 4.827 7.87945 5.29137C7.59778 5.53128 7.32547 5.76323 7.05988 5.97765ZM8.76515 2.65897C9.76548 1.94179 10.9822 1.25 12.208 1.25C13.4305 1.25 14.6571 1.93632 15.6699 2.6518C16.3859 3.15759 17.0941 3.75449 17.6871 4.25416C17.94 4.46729 18.1719 4.66274 18.3744 4.82587C18.388 4.83681 18.4012 4.84822 18.414 4.86008C18.82 5.23662 19.1854 5.5607 19.5172 5.85318C19.5622 5.89284 19.6067 5.93205 19.6508 5.97083C19.9287 6.21553 20.1869 6.4429 20.4193 6.65748C20.9585 7.15537 21.4124 7.63157 21.7532 8.22646C22.4336 9.41434 22.572 10.9261 22.572 13.713C22.572 15.8004 22.4502 17.432 22.1227 18.6926C21.79 19.9727 21.2305 20.9245 20.3265 21.5734C19.4464 22.2051 18.3304 22.4824 17.0284 22.6166C15.7337 22.75 14.1494 22.75 12.2732 22.75H12.1989C10.3226 22.75 8.73833 22.75 7.44367 22.6166C6.14167 22.4824 5.02565 22.2051 4.14555 21.5734C3.24153 20.9245 2.68206 19.9727 2.3494 18.6926C2.02184 17.432 1.90002 15.8004 1.90002 13.713C1.90002 10.926 2.03868 9.41424 2.71943 8.22634C3.06033 7.63148 3.51432 7.1553 4.05367 6.65743C4.28585 6.4431 4.54378 6.216 4.82133 5.97161C4.86567 5.93257 4.91051 5.89309 4.95582 5.85316C5.28764 5.56069 5.65302 5.23661 6.05904 4.86008C6.07186 4.84818 6.0851 4.83674 6.09873 4.82577C6.31085 4.65502 6.55841 4.44454 6.82995 4.21367C7.40394 3.72566 8.08507 3.14655 8.76515 2.65897Z" fill="black"/>
</svg>