<svg width="24" height="25" viewBox="0 0 24 25" fill="none" xmlns="http://www.w3.org/2000/svg">
<path opacity="0.4" fill-rule="evenodd" clip-rule="evenodd" d="M17.2159 21.4531H6.78462C4.94959 21.4531 3.46289 19.9655 3.46289 18.1314V10.9577C3.46289 10.0664 3.86376 9.22285 4.55457 8.6595L10.1287 4.11864C11.2185 3.23129 12.782 3.23129 13.8718 4.11864L19.4459 8.6595C20.1367 9.22285 20.5376 10.0664 20.5376 10.9577V18.1314C20.5376 19.9655 19.0509 21.4531 17.2159 21.4531Z" stroke="black" stroke-width="1.5" stroke-linecap="round" stroke-linejoin="round"/>
<path fill-rule="evenodd" clip-rule="evenodd" d="M13.0602 13.5461C13.0602 14.5421 13.8668 15.3481 14.8621 15.3481C15.8575 15.3481 16.6641 14.5421 16.6641 13.5461C16.6641 12.5511 15.8575 11.7441 14.8621 11.7441H14.8582C13.8648 11.7461 13.0602 12.5531 13.0602 13.5461Z" stroke="black" stroke-width="1.5" stroke-linecap="round" stroke-linejoin="round"/>
<path d="M13.0117 13.5488H7.33597V15.3508" stroke="black" stroke-width="1.5" stroke-linecap="round" stroke-linejoin="round"/>
<path d="M10.0879 15.3508V13.5488" stroke="black" stroke-width="1.5" stroke-linecap="round" stroke-linejoin="round"/>
</svg>