<svg width="24" height="25" viewBox="0 0 24 25" fill="none" xmlns="http://www.w3.org/2000/svg">
<path d="M11.9989 3.36523C16.3283 3.36523 19.8376 6.87527 19.8376 11.2039C19.8376 14.2176 18.1372 16.8339 15.6434 18.1458H8.35432C5.86053 16.8339 4.16016 14.2176 4.16016 11.2039C4.16016 6.87527 7.66937 3.36523 11.9989 3.36523Z" stroke="black" stroke-width="1.5" stroke-linecap="round" stroke-linejoin="round"/>
<path d="M8.37444 18.1792L7.58105 19.4174C7.07554 20.2063 6.82279 20.6008 6.84291 20.9268C6.86123 21.2236 7.01066 21.4968 7.25066 21.6724C7.51434 21.8652 7.98282 21.8652 8.91979 21.8652H15.0839C16.0209 21.8652 16.4894 21.8652 16.753 21.6724C16.993 21.4968 17.1425 21.2236 17.1608 20.9268C17.1809 20.6008 16.9282 20.2063 16.4227 19.4174L15.6259 18.1738" stroke="black" stroke-width="1.5" stroke-linecap="round" stroke-linejoin="round"/>
<path d="M16.5744 13.8226L12.6651 10.6151C12.2784 10.2976 11.7215 10.2976 11.3348 10.6151L7.42554 13.8226" stroke="black" stroke-width="1.5" stroke-linecap="round" stroke-linejoin="round"/>
<path d="M8.18115 13.2007L8.85311 18.1103" stroke="black" stroke-width="1.5" stroke-linecap="round" stroke-linejoin="round"/>
<path d="M9.11731 12.4209V10.5747" stroke="black" stroke-width="1.5" stroke-linecap="round" stroke-linejoin="round"/>
<path d="M16.1272 8.65039H16.1372" stroke="black" stroke-width="1.5" stroke-linecap="round" stroke-linejoin="round"/>
<path d="M11.5139 6.70117H11.5239" stroke="black" stroke-width="1.5" stroke-linecap="round" stroke-linejoin="round"/>
<path d="M6.83179 9.75098H6.84179" stroke="black" stroke-width="1.5" stroke-linecap="round" stroke-linejoin="round"/>
<path d="M12 15.9209L12 18.1104" stroke="black" stroke-width="1.5" stroke-linecap="round" stroke-linejoin="round"/>
<path d="M15.1689 18.1103L15.8195 13.2007" stroke="black" stroke-width="1.5" stroke-linecap="round" stroke-linejoin="round"/>
</svg>