<svg width="25" height="24" viewBox="0 0 25 24" fill="none" xmlns="http://www.w3.org/2000/svg">
<path opacity="0.4" d="M20.489 7.62505L14.916 3.08605C13.557 1.97505 11.584 1.97605 10.224 3.08505L4.65296 7.62405C3.78196 8.33005 3.28296 9.37705 3.28296 10.4971V17.6771C3.28296 19.9211 5.10896 21.7471 7.35396 21.7471H11.818H13.318H17.785C20.031 21.7471 21.857 19.9211 21.857 17.6771V10.4971C21.857 9.37605 21.358 8.33005 20.489 7.62505Z" fill="black"/>
<path fill-rule="evenodd" clip-rule="evenodd" d="M15.2237 15.676C15.7377 15.158 16.1347 14.525 16.3787 13.825C16.8977 12.193 16.1317 10.54 14.6347 10.063C13.9437 9.84201 13.2027 9.90001 12.5687 10.211C11.9347 9.90101 11.1917 9.84201 10.5017 10.063C9.00466 10.54 8.23966 12.193 8.76666 13.844C9.00566 14.533 9.40466 15.164 9.92066 15.672C10.5717 16.313 11.3037 16.883 12.1817 17.419C12.2817 17.479 12.4047 17.506 12.5327 17.506C12.7127 17.506 12.9017 17.453 13.0417 17.367C13.8207 16.891 14.5517 16.325 15.2237 15.676ZM13.0229 11.6845C13.3479 11.4375 13.7809 11.3665 14.1789 11.4925C14.9859 11.7495 15.1779 12.6515 14.9559 13.3505C14.7919 13.8215 14.5159 14.2595 14.1709 14.6075C13.6769 15.0855 13.1389 15.5155 12.5689 15.8905C11.9919 15.5115 11.4559 15.0785 10.9719 14.6025C10.6199 14.2565 10.3469 13.8235 10.1889 13.3695C9.96095 12.6515 10.1519 11.7485 10.9569 11.4925C11.3539 11.3635 11.7879 11.4365 12.1149 11.6845C12.3819 11.8885 12.7549 11.8885 13.0229 11.6845Z" fill="black"/>
</svg>