<svg width="25" height="24" viewBox="0 0 25 24" fill="none" xmlns="http://www.w3.org/2000/svg">
<path d="M17.9213 21C19.6386 21.0097 21.0397 19.6251 21.0494 17.9078V17.9059V10.0539C21.0377 9.38156 20.7186 8.75106 20.1834 8.34435L14.2619 3.61663C13.2218 2.79446 11.7525 2.79446 10.7124 3.61663L4.81517 8.34825C4.27711 8.75495 3.957 9.38739 3.94922 10.0626V17.9049C3.95798 19.6222 5.35713 21.0087 7.07541 21" stroke="black" stroke-width="1.5" stroke-linecap="round" stroke-linejoin="round"/>
<path opacity="0.4" d="M9.94063 19.8943V17.1301C9.94452 16.4247 10.5166 15.8545 11.222 15.8535H13.8199C14.5282 15.8496 15.1062 16.4218 15.1091 17.1301V19.8992C15.1101 20.4986 15.5898 20.988 16.1891 21.0006H17.921M7.0752 21.0006H8.80905C9.423 21.0035 9.92312 20.5083 9.92604 19.8943" stroke="black" stroke-width="1.5" stroke-linecap="round" stroke-linejoin="round"/>
</svg>