<svg width="24" height="24" viewBox="0 0 24 24" fill="none" xmlns="http://www.w3.org/2000/svg">
<path d="M13.4876 12.1152H17.5507C18.9703 12.1152 19.8547 13.1174 19.8547 14.536V18.3646C19.8547 19.7832 18.9703 20.7854 17.5507 20.7854H13.4876C12.0671 20.7854 11.1846 19.7832 11.1846 18.3646V14.536C11.1846 13.1174 12.0719 12.1152 13.4876 12.1152Z" stroke="black" stroke-width="1.5" stroke-linecap="round" stroke-linejoin="round"/>
<path d="M13.8359 15.2539C13.9829 16.0459 14.6737 16.6433 15.5202 16.6433C16.3579 16.6433 17.0575 16.0459 17.2044 15.2539" stroke="black" stroke-width="1.5" stroke-linecap="round" stroke-linejoin="round"/>
<path d="M21 9.68463L13.4741 3.72711C12.6101 3.04409 11.3899 3.04409 10.5259 3.72711L3 9.68463" stroke="black" stroke-width="1.5" stroke-linecap="round" stroke-linejoin="round"/>
<path d="M19.5039 10.0266V8.50391" stroke="black" stroke-width="1.5" stroke-linecap="round" stroke-linejoin="round"/>
<path d="M4.49805 8.50391V17.1789C4.49805 18.8709 5.86994 20.2428 7.56194 20.2428H9.4388" stroke="black" stroke-width="1.5" stroke-linecap="round" stroke-linejoin="round"/>
</svg>