<svg width="25" height="24" viewBox="0 0 25 24" fill="none" xmlns="http://www.w3.org/2000/svg">
<path opacity="0.4" d="M16.4651 21.5H18.2931C20.1051 21.511 21.5841 20.054 21.5941 18.239V9.943C21.5821 9.236 21.2451 8.572 20.6801 8.139L14.4311 3.157C13.3331 2.281 11.7821 2.281 10.6841 3.157L4.46014 8.15C3.89214 8.572 3.55514 9.247 3.54614 9.954V18.228C3.55614 20.044 5.03214 21.511 6.84614 21.5H8.67614H16.4651Z" fill="black"/>
<path d="M9.86999 20.3289V17.4159C9.87399 16.6659 10.478 16.0649 11.223 16.0649H13.964C14.712 16.0649 15.322 16.6659 15.325 17.4159V20.3389C15.326 20.9729 15.325 21.4999 15.325 21.4999H9.86999C9.86999 21.4999 9.86699 20.9829 9.86999 20.3289Z" fill="black"/>
</svg>