<svg width="25" height="24" viewBox="0 0 25 24" fill="none" xmlns="http://www.w3.org/2000/svg">
<path fill-rule="evenodd" clip-rule="evenodd" d="M11.7976 11.5671C11.4659 11.3176 11.0339 11.2447 10.6388 11.3722C9.95482 11.5927 9.59505 12.3784 9.86609 13.2391C10.0309 13.7094 10.3001 14.1368 10.6527 14.4887C11.1437 14.9662 11.6784 15.3969 12.2492 15.7752C12.8191 15.398 13.3532 14.9676 13.8454 14.4905C14.1982 14.1375 14.4671 13.7101 14.6318 13.2393C14.9023 12.3806 14.5421 11.5938 13.8571 11.3724C13.4616 11.2462 13.03 11.319 12.6987 11.5676C12.4317 11.768 12.0644 11.7678 11.7976 11.5671ZM12.249 10.0924C11.6103 9.78029 10.8686 9.72199 10.1784 9.94456C8.48089 10.4919 7.9904 12.2976 8.44004 13.7044L8.44594 13.7221C8.6857 14.4126 9.07983 15.0395 9.59729 15.5546L9.60333 15.5606C10.2627 16.2024 10.9913 16.7695 11.7746 17.2516L11.8646 17.3057C12.1058 17.4504 12.4077 17.448 12.6465 17.2994L12.7246 17.2509C13.5079 16.7696 14.2347 16.2028 14.8938 15.5633L14.9013 15.556C15.4182 15.0402 15.8124 14.4134 16.0521 13.7217L16.0579 13.7044C16.5081 12.2959 16.0126 10.4914 14.3166 9.94455L14.3149 9.94402C13.6269 9.72394 12.8871 9.78149 12.249 10.0924Z" fill="black"/>
<path d="M17.4659 21.7495H7.03489C5.95533 21.7481 4.92038 21.3187 4.15702 20.5553C3.39366 19.792 2.96422 18.757 2.96289 17.6775V10.4995C2.96206 9.94787 3.08455 9.40308 3.32142 8.90495C3.55828 8.40682 3.90353 7.96795 4.33188 7.62045L9.90488 3.07945C10.5688 2.54277 11.3967 2.25 12.2504 2.25C13.1041 2.25 13.932 2.54277 14.5959 3.07945L20.1689 7.62045C20.5972 7.96795 20.9425 8.40682 21.1794 8.90495C21.4162 9.40308 21.5387 9.94787 21.5379 10.4995V17.6735C21.5376 18.7537 21.1086 19.7897 20.3452 20.5539C19.5817 21.3181 18.5461 21.7481 17.4659 21.7495ZM12.2499 3.74945C11.7394 3.74912 11.2447 3.92583 10.8499 4.24945L5.27588 8.79045C5.02027 8.99731 4.81428 9.25884 4.67307 9.55581C4.53186 9.85277 4.459 10.1776 4.45987 10.5065V17.6805C4.46067 18.3623 4.73191 19.0161 5.21409 19.4983C5.69626 19.9804 6.35 20.2517 7.0319 20.2524H17.4629C18.1448 20.2517 18.7985 19.9804 19.2807 19.4983C19.7628 19.0161 20.0341 18.3623 20.0349 17.6805V10.4995C20.0358 10.1706 19.9629 9.84578 19.8217 9.54881C19.6805 9.25185 19.4745 8.99031 19.2189 8.78345L13.6499 4.24645C13.2543 3.92485 12.7597 3.74996 12.2499 3.75145V3.74945Z" fill="black"/>
</svg>