<svg width="24" height="25" viewBox="0 0 24 25" fill="none" xmlns="http://www.w3.org/2000/svg">
<path fill-rule="evenodd" clip-rule="evenodd" d="M3.41016 11.2039C3.41016 6.46111 7.2551 2.61523 11.9989 2.61523C16.7426 2.61523 20.5876 6.46111 20.5876 11.2039C20.5876 14.507 18.7231 17.3731 15.9926 18.8095C15.8849 18.8662 15.7651 18.8958 15.6434 18.8958H8.35432C8.23266 18.8958 8.11283 18.8662 8.00515 18.8095C5.27461 17.3731 3.41016 14.507 3.41016 11.2039ZM11.9989 4.11523C8.08363 4.11523 4.91016 7.28944 4.91016 11.2039C4.91016 13.8638 6.37462 16.1825 8.54452 17.3958H15.4532C17.6231 16.1825 19.0876 13.8638 19.0876 11.2039C19.0876 7.28944 15.9141 4.11523 11.9989 4.11523Z" fill="black"/>
<path fill-rule="evenodd" clip-rule="evenodd" d="M15.2212 17.5424C15.57 17.319 16.0339 17.4205 16.2573 17.7693L17.0725 19.0414C17.3096 19.4115 17.5145 19.7313 17.6541 19.9995C17.7943 20.2689 17.9324 20.6001 17.9094 20.9731C17.8773 21.4925 17.6158 21.9706 17.1958 22.2778C16.8941 22.4985 16.5408 22.5609 16.2383 22.5882C15.9371 22.6154 15.5573 22.6153 15.1178 22.6153H8.88589C8.44641 22.6153 8.06656 22.6154 7.76536 22.5882C7.46291 22.5609 7.10957 22.4985 6.80791 22.2778C6.38791 21.9706 6.12639 21.4925 6.09434 20.9731C6.07132 20.6001 6.20939 20.2689 6.34959 19.9995C6.48921 19.7313 6.69415 19.4114 6.93127 19.0414C6.93735 19.0319 6.94345 19.0224 6.94957 19.0129L7.74296 17.7747C7.96644 17.4259 8.43032 17.3243 8.77908 17.5478C9.12784 17.7713 9.2294 18.2352 9.00593 18.5839L8.21254 19.8221C7.9519 20.2289 7.78468 20.4912 7.68016 20.692C7.61462 20.818 7.59711 20.8779 7.59278 20.8949C7.6004 20.9589 7.63243 21.0174 7.68216 21.0584C7.69881 21.0639 7.75875 21.0815 7.90014 21.0942C8.12562 21.1146 8.4367 21.1153 8.9198 21.1153H15.0839C15.567 21.1153 15.8781 21.1146 16.1036 21.0942C16.2449 21.0815 16.3049 21.0639 16.3215 21.0584C16.3713 21.0174 16.4033 20.9589 16.4109 20.8949C16.4066 20.8779 16.3891 20.818 16.3235 20.692C16.219 20.4912 16.0518 20.2289 15.7912 19.8221L14.9944 18.5785C14.7709 18.2298 14.8725 17.7659 15.2212 17.5424Z" fill="black"/>
<path fill-rule="evenodd" clip-rule="evenodd" d="M13.141 10.0353C13.1411 10.0353 13.141 10.0352 13.141 10.0353L17.0502 13.2427C17.3704 13.5054 17.417 13.978 17.1542 14.2982C16.8915 14.6184 16.4189 14.665 16.0987 14.4023L12.1894 11.1947C12.0793 11.1044 11.9208 11.1042 11.8107 11.1946L7.90129 14.4023C7.58107 14.665 7.10849 14.6184 6.84575 14.2982C6.58301 13.978 6.62961 13.5054 6.94983 13.2427L10.8589 10.0353C10.859 10.0352 10.8589 10.0353 10.8589 10.0353C11.5222 9.49085 12.4778 9.49085 13.141 10.0353Z" fill="black"/>
<path fill-rule="evenodd" clip-rule="evenodd" d="M8.07947 12.4577C8.48985 12.4015 8.86807 12.6887 8.92424 13.0991L9.5962 18.0087C9.65236 18.4191 9.36521 18.7973 8.95482 18.8535C8.54444 18.9097 8.16622 18.6225 8.11005 18.2121L7.43809 13.3025C7.38193 12.8921 7.66908 12.5139 8.07947 12.4577Z" fill="black"/>
<path fill-rule="evenodd" clip-rule="evenodd" d="M9.11734 9.82471C9.53155 9.82471 9.86734 10.1605 9.86734 10.5747V12.4209C9.86734 12.8351 9.53155 13.1709 9.11734 13.1709C8.70313 13.1709 8.36734 12.8351 8.36734 12.4209V10.5747C8.36734 10.1605 8.70313 9.82471 9.11734 9.82471Z" fill="black"/>
<path fill-rule="evenodd" clip-rule="evenodd" d="M15.3773 8.65039C15.3773 8.23618 15.713 7.90039 16.1273 7.90039H16.1373C16.5515 7.90039 16.8873 8.23618 16.8873 8.65039C16.8873 9.0646 16.5515 9.40039 16.1373 9.40039H16.1273C15.713 9.40039 15.3773 9.0646 15.3773 8.65039Z" fill="black"/>
<path fill-rule="evenodd" clip-rule="evenodd" d="M10.764 6.70117C10.764 6.28696 11.0997 5.95117 11.514 5.95117H11.524C11.9382 5.95117 12.274 6.28696 12.274 6.70117C12.274 7.11539 11.9382 7.45117 11.524 7.45117H11.514C11.0997 7.45117 10.764 7.11539 10.764 6.70117Z" fill="black"/>
<path fill-rule="evenodd" clip-rule="evenodd" d="M6.0818 9.75098C6.0818 9.33676 6.41759 9.00098 6.8318 9.00098H6.8418C7.25602 9.00098 7.5918 9.33676 7.5918 9.75098C7.5918 10.1652 7.25602 10.501 6.8418 10.501H6.8318C6.41759 10.501 6.0818 10.1652 6.0818 9.75098Z" fill="black"/>
<path fill-rule="evenodd" clip-rule="evenodd" d="M12 15.1709C12.4142 15.1709 12.75 15.5067 12.75 15.9209L12.75 18.1104C12.75 18.5246 12.4142 18.8604 12 18.8604C11.5858 18.8604 11.25 18.5246 11.25 18.1104L11.25 15.9209C11.25 15.5067 11.5858 15.1709 12 15.1709Z" fill="black"/>
<path fill-rule="evenodd" clip-rule="evenodd" d="M15.918 12.4573C16.3287 12.5117 16.6174 12.8887 16.563 13.2993L15.9124 18.2089C15.858 18.6196 15.481 18.9083 15.0704 18.8539C14.6598 18.7995 14.371 18.4225 14.4254 18.0119L15.076 13.1022C15.1304 12.6916 15.5074 12.4029 15.918 12.4573Z" fill="black"/>
</svg>