<svg width="24" height="24" viewBox="0 0 24 24" fill="none" xmlns="http://www.w3.org/2000/svg">
<path fill-rule="evenodd" clip-rule="evenodd" d="M15.8085 13.8251C15.5645 14.5251 15.1675 15.1581 14.6535 15.6761C13.9815 16.3251 13.2505 16.8911 12.4715 17.3671C12.3315 17.4531 12.1425 17.5061 11.9625 17.5061C11.8345 17.5061 11.7115 17.4791 11.6115 17.4191C10.7335 16.8831 10.0015 16.3131 9.35052 15.6721C8.83452 15.1641 8.43552 14.5331 8.19652 13.8441C7.66952 12.1931 8.43452 10.5401 9.93152 10.0631C10.6215 9.84205 11.3645 9.90105 11.9985 10.2111C12.6325 9.90005 13.3735 9.84205 14.0645 10.0631C15.5615 10.5401 16.3275 12.1931 15.8085 13.8251ZM19.9195 7.62505L14.3465 3.08605C12.9865 1.97505 11.0125 1.97605 9.65452 3.08505L4.08252 7.62405C3.21152 8.33005 2.71252 9.37705 2.71252 10.4971V17.6771C2.71252 19.9211 4.53852 21.7471 6.78452 21.7471H17.2155C19.4605 21.7471 21.2875 19.9211 21.2875 17.6771V10.4971C21.2875 9.37705 20.7885 8.33005 19.9195 7.62505Z" fill="black"/>
<path fill-rule="evenodd" clip-rule="evenodd" d="M13.6088 11.4925C13.2108 11.3665 12.7778 11.4375 12.4528 11.6845C12.1848 11.8885 11.8118 11.8885 11.5448 11.6845C11.2178 11.4365 10.7838 11.3635 10.3868 11.4925C9.58181 11.7485 9.39081 12.6515 9.61881 13.3695C9.77681 13.8235 10.0498 14.2565 10.4018 14.6025C10.8858 15.0785 11.4218 15.5115 11.9988 15.8905C12.5688 15.5155 13.1068 15.0855 13.6008 14.6075C13.9458 14.2595 14.2218 13.8215 14.3858 13.3505C14.6078 12.6515 14.4158 11.7495 13.6088 11.4925Z" fill="black"/>
</svg>