<svg width="25" height="24" viewBox="0 0 25 24" fill="none" xmlns="http://www.w3.org/2000/svg">
<path d="M6.8052 21.7514C5.78593 21.749 4.80889 21.344 4.08685 20.6246C3.3648 19.9052 2.95626 18.9296 2.9502 17.9104V10.0644C2.95293 9.61532 3.05932 9.17297 3.26104 8.77177C3.46276 8.37058 3.75439 8.02137 4.1132 7.75136L9.99319 3.03336C10.6304 2.52616 11.4208 2.25 12.2352 2.25C13.0496 2.25 13.84 2.52616 14.4772 3.03336L20.4012 7.76336C20.7529 8.03131 21.0391 8.37571 21.2382 8.77053C21.4372 9.16535 21.5439 9.60025 21.5502 10.0424V17.9074C21.5491 18.4153 21.4473 18.9179 21.2506 19.3862C21.0539 19.8545 20.7662 20.2791 20.4042 20.6354C19.6665 21.3405 18.6886 21.7394 17.6682 21.7514H15.9392C15.4535 21.7415 14.9907 21.5428 14.6491 21.1974C14.3074 20.852 14.1138 20.3872 14.1092 19.9014V17.1304C14.1089 17.0611 14.0949 16.9925 14.068 16.9286C14.041 16.8648 14.0017 16.8069 13.9522 16.7584C13.8526 16.6599 13.7183 16.6046 13.5782 16.6044H10.9722C10.8318 16.6052 10.6973 16.6612 10.5979 16.7604C10.4986 16.8596 10.4422 16.994 10.4412 17.1344V19.8954C10.4411 19.9602 10.4327 20.0247 10.4162 20.0874C10.3673 20.5444 10.1511 20.9672 9.80921 21.2744C9.4673 21.5816 9.02385 21.7515 8.5642 21.7514H6.8052ZM13.5822 15.1014C14.1188 15.1024 14.6331 15.3158 15.0129 15.6948C15.3927 16.0739 15.6071 16.5878 15.6092 17.1244V19.9014C15.6102 19.9935 15.6469 20.0817 15.7117 20.1474C15.7764 20.2131 15.864 20.251 15.9562 20.2534H17.6852C18.3103 20.2536 18.91 20.0063 19.3532 19.5656C19.7964 19.1248 20.047 18.5264 20.0502 17.9014V10.0554C20.0458 9.83887 19.9923 9.6262 19.8938 9.4334C19.7952 9.2406 19.6541 9.0727 19.4812 8.94236L13.5442 4.20136C13.1725 3.90541 12.7114 3.74427 12.2362 3.74427C11.761 3.74427 11.2999 3.90541 10.9282 4.20136L5.0352 8.93436C4.85606 9.0657 4.70987 9.23687 4.60818 9.43435C4.50648 9.63184 4.45206 9.85025 4.4492 10.0724V17.9064C4.45394 18.5294 4.70458 19.1254 5.14657 19.5646C5.58856 20.0038 6.18612 20.2506 6.8092 20.2514H8.5612C8.6573 20.2519 8.74969 20.2143 8.81812 20.1468C8.88654 20.0793 8.92541 19.9875 8.9262 19.8914C8.92658 19.8427 8.9316 19.7941 8.9412 19.7464V17.1304C8.94462 16.5934 9.15971 16.0795 9.53979 15.7001C9.91986 15.3208 10.4342 15.1067 10.9712 15.1044H13.5822V15.1014Z" fill="black"/>
</svg>