<svg width="24" height="25" viewBox="0 0 24 25" fill="none" xmlns="http://www.w3.org/2000/svg">
<path fill-rule="evenodd" clip-rule="evenodd" d="M17.6604 20.9551C17.6304 21.4051 17.4104 21.8051 17.0504 22.0751C16.6504 22.3651 16.1304 22.3651 15.0804 22.3651H8.92043C7.88043 22.3651 7.35043 22.3651 6.96043 22.0751C6.59043 21.8051 6.37043 21.4051 6.34043 20.9551C6.31043 20.4651 6.60043 20.0251 7.16043 19.1451C7.23513 19.0269 7.36526 18.9551 7.50516 18.9551H16.4957C16.6356 18.9551 16.7657 19.0269 16.8404 19.1451C17.4104 20.0251 17.6904 20.4651 17.6604 20.9551Z" fill="black"/>
<path fill-rule="evenodd" clip-rule="evenodd" d="M12.1905 11.1951C12.0805 11.1051 11.9205 11.1051 11.8105 11.1951L8.98047 13.5151L9.55486 17.696C9.57527 17.8445 9.70216 17.9551 9.85207 17.9551H10.9505C11.1162 17.9551 11.2505 17.8208 11.2505 17.6551V15.9151C11.2505 15.5051 11.5905 15.1651 12.0005 15.1651C12.4105 15.1651 12.7505 15.5051 12.7505 15.9151V17.6551C12.7505 17.8208 12.8848 17.9551 13.0505 17.9551H14.1771C14.3278 17.9551 14.4551 17.8434 14.4746 17.694L15.0205 13.5151L12.1905 11.1951Z" fill="black"/>
<path fill-rule="evenodd" clip-rule="evenodd" d="M16.1372 9.39623C15.7232 9.39623 15.3822 9.06023 15.3822 8.64623C15.3822 8.23223 15.7132 7.89623 16.1272 7.89623H16.1372C16.5512 7.89623 16.8872 8.23223 16.8872 8.64623C16.8872 9.06023 16.5512 9.39623 16.1372 9.39623ZM11.5252 7.44723C11.1112 7.44723 10.7692 7.11123 10.7692 6.69723C10.7692 6.28323 11.1002 5.94723 11.5142 5.94723H11.5252C11.9392 5.94723 12.2752 6.28323 12.2752 6.69723C12.2752 7.11123 11.9392 7.44723 11.5252 7.44723ZM6.84216 10.4972C6.42816 10.4972 6.08716 10.1612 6.08716 9.74723C6.08716 9.33323 6.41816 8.99723 6.83216 8.99723H6.84216C7.25616 8.99723 7.59216 9.33323 7.59216 9.74723C7.59216 10.1612 7.25616 10.4972 6.84216 10.4972ZM12.0002 2.86523C7.40016 2.86523 3.66016 6.60523 3.66016 11.1952C3.66016 13.85 4.90766 16.2936 6.97965 17.8586C7.06382 17.9222 7.16696 17.9552 7.27244 17.9552H7.91737C8.00196 17.9552 8.06575 17.8784 8.05016 17.7952L7.61016 14.5452C7.34016 14.6052 7.04016 14.5252 6.85016 14.2952C6.58016 13.9752 6.63016 13.5052 6.95016 13.2352L8.37016 12.0752V10.5752C8.37016 10.1552 8.70016 9.81523 9.12016 9.81523C9.53016 9.81523 9.87016 10.1552 9.87016 10.5752V10.8452L10.8602 10.0352C11.5202 9.48523 12.4802 9.48523 13.1402 10.0352L17.0502 13.2352C17.3702 13.5052 17.4202 13.9752 17.1502 14.2952C17.0102 14.4752 16.7902 14.5652 16.5702 14.5652C16.5102 14.5652 16.4602 14.5552 16.4002 14.5352L15.9602 17.8052C15.9496 17.8847 16.0114 17.9552 16.0915 17.9552H16.7279C16.8334 17.9552 16.9365 17.9222 17.0207 17.8586C19.0927 16.2936 20.3402 13.85 20.3402 11.1952C20.3402 6.60523 16.6002 2.86523 12.0002 2.86523Z" fill="black"/>
</svg>