<svg width="25" height="24" viewBox="0 0 25 24" fill="none" xmlns="http://www.w3.org/2000/svg">
<path d="M21.5 7.78216L21.5 16.2169C21.5 19.165 19.4188 21 16.4736 21L8.52638 21C5.58119 21 3.5 19.165 3.5 16.2159L3.5 7.78216C3.5 4.83405 5.58119 3 8.52638 3L16.4736 3C19.4188 3 21.5 4.84281 21.5 7.78216Z" stroke="black" stroke-width="1.5" stroke-linecap="round" stroke-linejoin="round"/>
<path opacity="0.4" fill-rule="evenodd" clip-rule="evenodd" d="M12.8367 8.89181L14.5449 6.7618C14.7714 6.47922 14.5706 6.06055 14.2086 6.06055L10.7915 6.06055C10.4302 6.06055 10.2288 6.47922 10.4552 6.7618L12.1635 8.89181C12.3362 9.10725 12.6639 9.10725 12.8367 8.89181Z" stroke="black" stroke-width="1.5" stroke-linecap="round" stroke-linejoin="round"/>
<path d="M16.1675 12.002L14.167 12.002M10.833 12.002L8.83253 12.002M5.5005 12.002L3.5 12.002M21.5 12.002L19.4995 12.002" stroke="black" stroke-width="1.5" stroke-linecap="round" stroke-linejoin="round"/>
<path opacity="0.4" fill-rule="evenodd" clip-rule="evenodd" d="M12.1635 15.1128L10.4552 17.2428C10.2288 17.5253 10.4296 17.944 10.7915 17.944L14.2086 17.944C14.5706 17.944 14.7714 17.5253 14.5449 17.2428L12.8367 15.1128C12.6639 14.8973 12.3362 14.8973 12.1635 15.1128Z" stroke="black" stroke-width="1.5" stroke-linecap="round" stroke-linejoin="round"/>
</svg>