<svg width="25" height="25" viewBox="0 0 25 25" fill="none" xmlns="http://www.w3.org/2000/svg">
<path fill-rule="evenodd" clip-rule="evenodd" d="M4.49927 21.8682C4.91348 21.8682 5.24927 21.5324 5.24927 21.1182V3.11816C5.24927 2.70395 4.91348 2.36816 4.49927 2.36816C4.08505 2.36816 3.74927 2.70395 3.74927 3.11816V21.1182C3.74927 21.5324 4.08505 21.8682 4.49927 21.8682Z" fill="black"/>
<path fill-rule="evenodd" clip-rule="evenodd" d="M4.50049 13.7676L10.5017 13.7676C10.7006 13.7676 10.8913 13.8466 11.032 13.9872C11.1726 14.1279 11.2517 14.3187 11.2517 14.5176V18.358C11.2517 19.3314 10.4392 20.0683 9.50139 20.0683L4.50049 20.0683C4.08628 20.0683 3.75049 19.7325 3.75049 19.3183C3.75049 18.9041 4.08627 18.5683 4.50049 18.5683L9.50139 18.5683C9.66899 18.5683 9.75166 18.4459 9.75166 18.358V15.2676L4.50049 15.2676C4.08627 15.2676 3.75049 14.9318 3.75049 14.5176C3.75049 14.1034 4.08627 13.7676 4.50049 13.7676Z" fill="black"/>
<path fill-rule="evenodd" clip-rule="evenodd" d="M4.50024 8.96729L15.5005 8.96729C15.6995 8.96729 15.8902 9.0463 16.0309 9.18696C16.1715 9.32761 16.2505 9.51837 16.2505 9.71729V13.5577C16.2505 14.5311 15.438 15.268 14.5003 15.268L4.50024 15.268C4.08603 15.268 3.75024 14.9322 3.75024 14.518C3.75024 14.1038 4.08603 13.768 4.50024 13.768L14.5003 13.768C14.6679 13.768 14.7505 13.6456 14.7505 13.5577V10.4673L4.50024 10.4673C4.08603 10.4673 3.75024 10.1315 3.75024 9.71729C3.75024 9.30307 4.08603 8.96729 4.50024 8.96729Z" fill="black"/>
<path fill-rule="evenodd" clip-rule="evenodd" d="M4.49927 4.16846L19.5004 4.16846C20.4381 4.16846 21.2506 4.9054 21.2506 5.87874V8.75891C21.2506 9.73225 20.4381 10.4692 19.5004 10.4692L4.49927 10.4692C4.08505 10.4692 3.74927 10.1334 3.74927 9.71919C3.74927 9.30498 4.08505 8.96919 4.49927 8.96919L19.5004 8.96919C19.668 8.96919 19.7506 8.84674 19.7506 8.75891V5.87874C19.7506 5.79091 19.668 5.66846 19.5004 5.66846L4.49927 5.66846C4.08505 5.66846 3.74927 5.33267 3.74927 4.91846C3.74927 4.50424 4.08505 4.16846 4.49927 4.16846Z" fill="black"/>
</svg>