<svg width="24" height="25" viewBox="0 0 24 25" fill="none" xmlns="http://www.w3.org/2000/svg">
<path fill-rule="evenodd" clip-rule="evenodd" d="M10.291 18.9528C9.93 18.9528 9.609 18.7508 9.453 18.4248C9.39 18.2948 9.359 18.1568 9.359 18.0198C9.359 17.8128 9.429 17.6088 9.565 17.4398L11.273 15.3088C11.451 15.0868 11.716 14.9598 12 14.9598C12.284 14.9598 12.549 15.0868 12.727 15.3088L14.436 17.4388C14.662 17.7208 14.705 18.0968 14.549 18.4248C14.392 18.7498 14.07 18.9528 13.709 18.9528L10.291 18.9528ZM13.667 13.2608C13.253 13.2608 12.917 12.9248 12.917 12.5108C12.917 12.0968 13.253 11.7608 13.667 11.7608L15.667 11.7608C16.081 11.7608 16.417 12.0968 16.417 12.5108C16.417 12.9248 16.081 13.2608 15.667 13.2608L13.667 13.2608ZM8.333 13.2608C7.919 13.2608 7.583 12.9248 7.583 12.5108C7.583 12.0968 7.919 11.7608 8.333 11.7608L10.333 11.7608C10.747 11.7608 11.083 12.0968 11.083 12.5108C11.083 12.9248 10.747 13.2608 10.333 13.2608L8.333 13.2608ZM11.274 9.71479L9.565 7.58379C9.429 7.41279 9.359 7.20879 9.359 7.00279C9.359 6.86479 9.391 6.72679 9.453 6.59679C9.609 6.27179 9.931 6.06979 10.291 6.06979L13.709 6.06979C14.07 6.06979 14.392 6.27179 14.548 6.59679C14.704 6.92279 14.662 7.30079 14.436 7.58279L12.728 9.71379L12.727 9.71479C12.548 9.93579 12.284 10.0618 12 10.0618C11.717 10.0618 11.452 9.93579 11.274 9.71479ZM21.5 16.7258L21.5 13.5608C21.5 13.3951 21.3657 13.2608 21.2 13.2608L18.999 13.2608C18.585 13.2608 18.249 12.9248 18.249 12.5108C18.249 12.0968 18.585 11.7608 18.999 11.7608L21.2 11.7608C21.3657 11.7608 21.5 11.6265 21.5 11.4608L21.5 8.29079C21.5 5.13179 19.279 3.00879 15.974 3.00879L8.026 3.00879C4.721 3.00879 2.5 5.13179 2.5 8.29079L2.5 11.4608C2.5 11.6265 2.63431 11.7608 2.8 11.7608L5.001 11.7608C5.415 11.7608 5.751 12.0968 5.751 12.5108C5.751 12.9248 5.415 13.2608 5.001 13.2608L2.8 13.2608C2.63431 13.2608 2.5 13.3951 2.5 13.5608L2.5 16.7248C2.5 19.8858 4.721 22.0088 8.026 22.0088L15.974 22.0088C19.279 22.0088 21.5 19.8858 21.5 16.7258Z" fill="black"/>
</svg>