<svg width="24" height="24" viewBox="0 0 24 24" fill="none" xmlns="http://www.w3.org/2000/svg">
<path fill-rule="evenodd" clip-rule="evenodd" d="M16.8806 20.541C16.5818 20.2542 16.5721 19.7794 16.859 19.4806L19.2403 17H3.9C3.48579 17 3.15 16.6642 3.15 16.25C3.15 15.8358 3.48579 15.5 3.9 15.5H19.2403L16.859 13.0194C16.5721 12.7206 16.5818 12.2458 16.8806 11.959C17.1794 11.6721 17.6542 11.6818 17.941 11.9806L21.541 15.7306C21.8197 16.0208 21.8197 16.4792 21.541 16.7694L17.941 20.5194C17.6542 20.8182 17.1794 20.8279 16.8806 20.541Z" fill="black"/>
<path fill-rule="evenodd" clip-rule="evenodd" d="M7.1194 12.041C7.41821 11.7542 7.4279 11.2794 7.14104 10.9806L4.75966 8.5L11.1 8.5C11.5142 8.5 11.85 8.16421 11.85 7.75C11.85 7.33579 11.5142 7 11.1 7L4.75966 7L7.14104 4.5194C7.4279 4.22059 7.41821 3.74581 7.1194 3.45896C6.82059 3.1721 6.34581 3.18179 6.05896 3.4806L2.45896 7.2306C2.18035 7.52082 2.18035 7.97918 2.45896 8.2694L6.05896 12.0194C6.34582 12.3182 6.82059 12.3279 7.1194 12.041Z" fill="black"/>
</svg>