<svg width="24" height="24" viewBox="0 0 24 24" fill="none" xmlns="http://www.w3.org/2000/svg">
<path d="M12 3L8.02638 3C5.08119 3 3 4.83405 3 7.78216L3 16.2159C3 19.165 5.08119 21 8.02638 21H15.9736C18.9188 21 21 19.165 21 16.2169V7.78216C21 4.84281 18.9188 3 15.9736 3L15.8256 3" stroke="black" stroke-width="1.5" stroke-linecap="round" stroke-linejoin="round"/>
<path fill-rule="evenodd" clip-rule="evenodd" d="M12.3364 8.89181L14.0447 6.7618C14.2711 6.47922 14.0703 6.06055 13.7084 6.06055L10.2912 6.06055C9.92994 6.06055 9.72853 6.47922 9.95496 6.7618L11.6632 8.89181C11.836 9.10725 12.1637 9.10725 12.3364 8.89181Z" stroke="black" stroke-width="1.5" stroke-linecap="round" stroke-linejoin="round"/>
<path d="M15.6675 12.002L13.667 12.002M10.333 12.002L8.33253 12.002M5.0005 12.002L3 12.002M21 12.002L18.9995 12.002" stroke="black" stroke-width="1.5" stroke-linecap="round" stroke-linejoin="round"/>
<path fill-rule="evenodd" clip-rule="evenodd" d="M11.6633 15.1128L9.95507 17.2428C9.72864 17.5253 9.92944 17.944 10.2914 17.944L13.7085 17.944C14.0704 17.944 14.2712 17.5253 14.0448 17.2428L12.3365 15.1128C12.1638 14.8973 11.8361 14.8973 11.6633 15.1128Z" stroke="black" stroke-width="1.5" stroke-linecap="round" stroke-linejoin="round"/>
</svg>