<svg width="25" height="25" viewBox="0 0 25 25" fill="none" xmlns="http://www.w3.org/2000/svg">
<path fill-rule="evenodd" clip-rule="evenodd" d="M4.49902 21.8682C4.91324 21.8682 5.24902 21.5324 5.24902 21.1182V3.11816C5.24902 2.70395 4.91324 2.36816 4.49902 2.36816C4.08481 2.36816 3.74902 2.70395 3.74902 3.11816V21.1182C3.74902 21.5324 4.08481 21.8682 4.49902 21.8682Z" fill="black"/>
<path fill-rule="evenodd" clip-rule="evenodd" d="M3.75049 4.91846C3.75049 4.50424 4.08627 4.16846 4.50049 4.16846L9.50139 4.16846C10.4392 4.16846 11.2517 4.9054 11.2517 5.87874V9.71919C11.2517 9.91811 11.1726 10.1089 11.032 10.2495C10.8913 10.3902 10.7006 10.4692 10.5017 10.4692L4.50049 10.4692C4.08627 10.4692 3.75049 10.1334 3.75049 9.71919C3.75049 9.30498 4.08627 8.96919 4.50049 8.96919L9.75166 8.96919V5.87874C9.75166 5.79091 9.66899 5.66846 9.50139 5.66846L4.50049 5.66846C4.08627 5.66846 3.75049 5.33267 3.75049 4.91846Z" fill="black"/>
<path fill-rule="evenodd" clip-rule="evenodd" d="M4.50049 13.7676L15.5008 13.7676C15.6997 13.7676 15.8905 13.8466 16.0311 13.9872C16.1718 14.1279 16.2508 14.3187 16.2508 14.5176V18.358C16.2508 19.3314 15.4383 20.0683 14.5005 20.0683L4.50049 20.0683C4.08627 20.0683 3.75049 19.7325 3.75049 19.3183C3.75049 18.9041 4.08627 18.5683 4.50049 18.5683L14.5005 18.5683C14.6681 18.5683 14.7508 18.4459 14.7508 18.358V15.2676L4.50049 15.2676C4.08627 15.2676 3.75049 14.9318 3.75049 14.5176C3.75049 14.1034 4.08627 13.7676 4.50049 13.7676Z" fill="black"/>
<path fill-rule="evenodd" clip-rule="evenodd" d="M3.74902 9.71729C3.74902 9.30307 4.08481 8.96729 4.49902 8.96729L19.5001 8.96729C20.4379 8.96729 21.2504 9.70423 21.2504 10.6776V13.5577C21.2504 14.5311 20.4379 15.268 19.5001 15.268L4.49902 15.268C4.08481 15.268 3.74902 14.9322 3.74902 14.518C3.74902 14.1038 4.08481 13.768 4.49902 13.768L19.5001 13.768C19.6677 13.768 19.7504 13.6456 19.7504 13.5577V10.6776C19.7504 10.5897 19.6677 10.4673 19.5001 10.4673L4.49902 10.4673C4.08481 10.4673 3.74902 10.1315 3.74902 9.71729Z" fill="black"/>
</svg>