<svg width="24" height="24" viewBox="0 0 24 24" fill="none" xmlns="http://www.w3.org/2000/svg">
<path fill-rule="evenodd" clip-rule="evenodd" d="M7.1194 3.45896C7.41821 3.74582 7.4279 4.22059 7.14104 4.5194L4.75966 7H20.1C20.5142 7 20.85 7.33579 20.85 7.75C20.85 8.16421 20.5142 8.5 20.1 8.5H4.75966L7.14104 10.9806C7.4279 11.2794 7.41821 11.7542 7.1194 12.041C6.82059 12.3279 6.34582 12.3182 6.05896 12.0194L2.45896 8.2694C2.18035 7.97918 2.18035 7.52082 2.45896 7.2306L6.05896 3.4806C6.34582 3.18179 6.82059 3.1721 7.1194 3.45896Z" fill="black"/>
<path fill-rule="evenodd" clip-rule="evenodd" d="M16.8806 11.959C16.5818 12.2458 16.5721 12.7206 16.859 13.0194L19.2403 15.5L12.9 15.5C12.4858 15.5 12.15 15.8358 12.15 16.25C12.15 16.6642 12.4858 17 12.9 17L19.2403 17L16.859 19.4806C16.5721 19.7794 16.5818 20.2542 16.8806 20.541C17.1794 20.8279 17.6542 20.8182 17.941 20.5194L21.541 16.7694C21.8197 16.4792 21.8197 16.0208 21.541 15.7306L17.941 11.9806C17.6542 11.6818 17.1794 11.6721 16.8806 11.959Z" fill="black"/>
</svg>