<svg width="25" height="25" viewBox="0 0 25 25" fill="none" xmlns="http://www.w3.org/2000/svg">
<path fill-rule="evenodd" clip-rule="evenodd" d="M4.49927 2.36816C4.91348 2.36816 5.24927 2.70395 5.24927 3.11816V21.1182C5.24927 21.5324 4.91348 21.8682 4.49927 21.8682C4.08505 21.8682 3.74927 21.5324 3.74927 21.1182V3.11816C3.74927 2.70395 4.08505 2.36816 4.49927 2.36816Z" fill="black"/>
<path fill-rule="evenodd" clip-rule="evenodd" d="M3.75049 4.91797C3.75049 4.50376 4.08627 4.16797 4.50049 4.16797L9.50139 4.16797C10.4392 4.16797 11.2517 4.90491 11.2517 5.87825V9.71871C11.2517 9.91762 11.1726 10.1084 11.032 10.249C10.8913 10.3897 10.7006 10.4687 10.5017 10.4687L4.50049 10.4687C4.08627 10.4687 3.75049 10.1329 3.75049 9.71871C3.75049 9.30449 4.08627 8.96871 4.50049 8.96871L9.75166 8.96871V5.87825C9.75166 5.79042 9.66899 5.66797 9.50139 5.66797L4.50049 5.66797C4.08627 5.66797 3.75049 5.33218 3.75049 4.91797Z" fill="black"/>
<path fill-rule="evenodd" clip-rule="evenodd" d="M3.75024 9.71826C3.75024 9.30405 4.08603 8.96826 4.50024 8.96826L14.5003 8.96826C15.438 8.96826 16.2505 9.7052 16.2505 10.6785V14.519C16.2505 14.7179 16.1715 14.9087 16.0309 15.0493C15.8902 15.19 15.6995 15.269 15.5005 15.269L4.50024 15.269C4.08603 15.269 3.75024 14.9332 3.75024 14.519C3.75024 14.1048 4.08603 13.769 4.50024 13.769L14.7505 13.769V10.6785C14.7505 10.5907 14.6679 10.4683 14.5003 10.4683L4.50024 10.4683C4.08603 10.4683 3.75024 10.1325 3.75024 9.71826Z" fill="black"/>
<path fill-rule="evenodd" clip-rule="evenodd" d="M3.74927 14.5171C3.74927 14.1029 4.08505 13.7671 4.49927 13.7671L19.5004 13.7671C20.4381 13.7671 21.2506 14.504 21.2506 15.4774V18.3575C21.2506 19.3309 20.4381 20.0678 19.5004 20.0678L4.49927 20.0678C4.08505 20.0678 3.74927 19.732 3.74927 19.3178C3.74927 18.9036 4.08505 18.5678 4.49927 18.5678L19.5004 18.5678C19.668 18.5678 19.7506 18.4454 19.7506 18.3575V15.4774C19.7506 15.3895 19.668 15.2671 19.5004 15.2671L4.49927 15.2671C4.08505 15.2671 3.74927 14.9313 3.74927 14.5171Z" fill="black"/>
</svg>