<svg width="25" height="24" viewBox="0 0 25 24" fill="none" xmlns="http://www.w3.org/2000/svg">
<path opacity="0.4" d="M20.2338 12.6684C20.2338 18.7826 12.9103 21 12.9103 21C12.9103 21 5.58669 18.7836 5.58669 12.6684C5.58669 6.55524 5.3201 6.07751 5.90777 5.48984C6.49642 4.90216 11.9499 3 12.9103 3C13.8706 3 19.3231 4.89632 19.9108 5.48984C20.4995 6.08238 20.2338 6.55622 20.2338 12.6684Z" stroke="black" stroke-width="1.5" stroke-linecap="round" stroke-linejoin="round"/>
<path fill-rule="evenodd" clip-rule="evenodd" d="M13.7864 14.7013H12.036C11.7606 14.7013 11.5368 14.4775 11.5368 14.2021V12.7796H10.1124C9.83707 12.7796 9.61328 12.5568 9.61328 12.2805V10.5253C9.61328 10.2499 9.83707 10.0261 10.1124 10.0261H11.5368V8.6046C11.5368 8.32925 11.7606 8.10547 12.036 8.10547H13.7864C14.0617 8.10547 14.2855 8.32925 14.2855 8.6046V10.0261H15.7099C15.9853 10.0261 16.2091 10.2499 16.2091 10.5253V12.2805C16.2091 12.5568 15.9853 12.7796 15.7099 12.7796H14.2855V14.2021C14.2855 14.4775 14.0617 14.7013 13.7864 14.7013Z" stroke="black" stroke-width="1.5" stroke-linecap="round" stroke-linejoin="round"/>
</svg>