<svg width="24" height="24" viewBox="0 0 24 24" fill="none" xmlns="http://www.w3.org/2000/svg">
<path d="M18.5597 12.8044L19.307 16.6039C19.7662 18.9711 17.8037 20.6807 15.419 20.6807H8.5702C6.18447 20.6807 4.38447 18.9711 4.69971 16.6039L5.43723 12.8044" stroke="black" stroke-width="1.5" stroke-linecap="round" stroke-linejoin="round"/>
<path fill-rule="evenodd" clip-rule="evenodd" d="M12.9132 17.2277H11.086C10.8963 17.2277 10.7425 17.074 10.7425 16.8833V15.4696H9.32588C9.13615 15.4696 8.98242 15.3158 8.98242 15.1261V13.295C8.98242 13.1053 9.13615 12.9505 9.32588 12.9505H10.7425V11.5368C10.7425 11.3471 10.8963 11.1934 11.086 11.1934H12.9132C13.103 11.1934 13.2567 11.3471 13.2567 11.5368V12.9505H14.6733C14.8631 12.9505 15.0168 13.1053 15.0168 13.295V15.1261C15.0168 15.3158 14.8631 15.4696 14.6733 15.4696H13.2567V16.8833C13.2567 17.074 13.103 17.2277 12.9132 17.2277Z" stroke="black" stroke-width="1.5" stroke-linecap="round" stroke-linejoin="round"/>
<path d="M11.9981 3.31836C21.6723 3.31739 20.9572 6.78895 21 7.17912C21 10.6468 19.9424 10.1263 17.2122 10.1263C14.3809 10.1263 16.4455 6.73739 11.9981 6.73739C7.55059 6.73739 9.61816 10.1282 6.78778 10.1292C4.05762 10.1292 3 10.641 3 7.18204C3.03539 6.85867 2.55007 4.42984 7.84749 3.59735" stroke="black" stroke-width="1.5" stroke-linecap="round" stroke-linejoin="round"/>
</svg>