<svg width="25" height="24" viewBox="0 0 25 24" fill="none" xmlns="http://www.w3.org/2000/svg">
<path d="M15.6716 21.4309H8.8226C8.14047 21.4468 7.46277 21.3169 6.83475 21.0502C6.20674 20.7834 5.64281 20.3858 5.18058 19.8839C4.78419 19.4243 4.49212 18.8843 4.3245 18.3009C4.15687 17.7176 4.11766 17.1049 4.20957 16.5049L4.95359 12.6619C4.97236 12.5652 5.01 12.4731 5.06436 12.391C5.11873 12.3088 5.18875 12.2382 5.27042 12.183C5.35209 12.1279 5.44384 12.0894 5.54038 12.0698C5.63692 12.0501 5.73638 12.0497 5.8331 12.0684C5.92982 12.0872 6.02187 12.1249 6.10404 12.1792C6.18621 12.2336 6.25687 12.3036 6.31198 12.3853C6.3671 12.4669 6.4056 12.5587 6.42527 12.6552C6.44493 12.7518 6.44539 12.8512 6.42661 12.9479L5.68961 16.7479C5.63114 17.1297 5.65629 17.5196 5.76334 17.8906C5.87039 18.2617 6.05678 18.605 6.3096 18.8969C6.63118 19.2377 7.02155 19.5063 7.45481 19.6847C7.88806 19.8631 8.3543 19.9474 8.8226 19.9319H15.6716C16.1705 19.9477 16.6669 19.8548 17.1264 19.6597C17.5858 19.4646 17.9975 19.1719 18.3326 18.8019C18.5655 18.5196 18.7307 18.1877 18.8156 17.8317C18.9006 17.4757 18.903 17.105 18.8226 16.7479L18.0756 12.9479C18.0448 12.7558 18.0898 12.5591 18.2012 12.3995C18.3126 12.2399 18.4816 12.1297 18.6726 12.0922C18.8636 12.0548 19.0616 12.0929 19.2251 12.1986C19.3885 12.3043 19.5045 12.4694 19.5486 12.6589L20.2956 16.4589C20.4175 17.0342 20.4082 17.6296 20.2687 18.2008C20.1292 18.7721 19.8629 19.3046 19.4896 19.7589C19.0131 20.2986 18.4246 20.7277 17.7652 21.0165C17.1058 21.3053 16.3913 21.4467 15.6716 21.4309Z" fill="black"/>
<path d="M13.1664 17.9764H11.3394C11.0497 17.9746 10.7724 17.8585 10.5678 17.6535C10.3632 17.4485 10.2476 17.1711 10.2463 16.8814V16.2184H9.57935C9.28968 16.2168 9.01232 16.1011 8.8075 15.8962C8.60267 15.6914 8.48693 15.4141 8.48535 15.1244V13.2934C8.48693 13.0037 8.60267 12.7264 8.8075 12.5216C9.01232 12.3167 9.28968 12.201 9.57935 12.1994H10.2463V11.5354C10.2479 11.2459 10.3636 10.9687 10.5682 10.7639C10.7728 10.5591 11.0499 10.4432 11.3394 10.4414H13.1664C13.456 10.443 13.7333 10.5587 13.9382 10.7636C14.143 10.9684 14.2588 11.2457 14.2604 11.5354V12.1984H14.9263C15.216 12.2 15.4934 12.3157 15.6982 12.5206C15.903 12.7254 16.0188 13.0027 16.0204 13.2924V15.1234C16.0188 15.4131 15.903 15.6904 15.6982 15.8952C15.4934 16.1001 15.216 16.2158 14.9263 16.2174H14.2604V16.8804C14.2593 17.1704 14.1438 17.4483 13.9389 17.6535C13.734 17.8588 13.4564 17.9748 13.1664 17.9764ZM11.7463 16.4764H12.7604V15.4684C12.7604 15.2695 12.8394 15.0787 12.98 14.9381C13.1207 14.7974 13.3115 14.7184 13.5104 14.7184H14.5204V13.6984H13.5104C13.3115 13.6984 13.1207 13.6194 12.98 13.4787C12.8394 13.3381 12.7604 13.1473 12.7604 12.9484V11.9414H11.7463V12.9494C11.7463 13.1483 11.6673 13.3391 11.5267 13.4797C11.386 13.6204 11.1953 13.6994 10.9963 13.6994H9.98535V14.7184H10.9963C11.1953 14.7184 11.386 14.7974 11.5267 14.9381C11.6673 15.0787 11.7463 15.2695 11.7463 15.4684V16.4764Z" fill="black"/>
<path d="M5.43958 10.9063C5.06095 10.9514 4.67711 10.9195 4.3111 10.8126C3.94509 10.7057 3.60445 10.526 3.30957 10.2843C2.73557 9.72631 2.50257 8.82731 2.50257 7.18431L3.25458 7.06931L2.50458 7.07832C2.48657 6.6421 2.56138 6.20703 2.72412 5.80191C2.88686 5.39679 3.13378 5.03084 3.44855 4.72831C4.86355 3.29631 7.82454 2.57131 12.2485 2.57031C16.6735 2.57031 19.6336 3.29531 21.0486 4.72631C21.3634 5.02871 21.6104 5.39444 21.7735 5.79935C21.9366 6.20426 22.0119 6.63914 21.9946 7.07531C21.9946 7.10331 21.9946 7.15431 21.9946 7.18131C21.9946 8.82931 21.7616 9.72932 21.1876 10.2873C20.5096 10.9483 19.5726 10.9253 18.3806 10.8943C18.0976 10.8863 17.7895 10.8783 17.4565 10.8783C16.8813 10.9086 16.3132 10.7405 15.847 10.4021C15.3809 10.0637 15.045 9.57559 14.8956 9.01931C14.5216 8.16531 14.2256 7.48931 12.2426 7.48931C10.2596 7.48931 9.96555 8.16531 9.59155 9.02031C9.44289 9.57681 9.10757 10.0653 8.64173 10.4041C8.17588 10.7429 7.60782 10.9114 7.03259 10.8813C6.70359 10.8813 6.39859 10.8893 6.11859 10.8963C5.88759 10.9003 5.65758 10.9063 5.43958 10.9063ZM12.2526 4.06831C7.25757 4.06831 5.28956 5.00031 4.51856 5.78031C4.34429 5.94264 4.20808 6.14146 4.11957 6.36256C4.03106 6.58365 3.99248 6.82157 4.00659 7.05931C4.00858 7.12772 4.00622 7.19619 3.99957 7.26431C3.91736 7.93443 4.04267 8.61364 4.35858 9.21031C4.58458 9.43231 5.24658 9.41531 6.09058 9.39531C6.38358 9.38731 6.69954 9.37931 7.04254 9.37931C7.80754 9.37931 7.92154 9.11831 8.22754 8.41831C8.64954 7.45031 9.28757 5.98731 12.2526 5.98731C15.2176 5.98731 15.8575 7.44931 16.2795 8.41631C16.5865 9.11631 16.7006 9.37631 17.4666 9.37631C17.8136 9.37631 18.1346 9.38531 18.4296 9.39231C19.2636 9.41431 19.9296 9.43131 20.1506 9.21131C20.4741 8.58628 20.5977 7.87692 20.5046 7.17931V7.18932C20.5046 7.18932 20.5046 7.13031 20.5046 7.05731C20.5187 6.81963 20.48 6.58178 20.3913 6.36082C20.3026 6.13986 20.1661 5.94127 19.9916 5.77931C19.2166 5.00031 17.2476 4.06831 12.2526 4.06831Z" fill="black"/>
</svg>