<svg width="24" height="24" viewBox="0 0 24 24" fill="none" xmlns="http://www.w3.org/2000/svg">
<path fill-rule="evenodd" clip-rule="evenodd" d="M14.5273 16.525C14.5273 16.684 14.3983 16.81 14.2393 16.81H13.3533C13.1876 16.81 13.0533 16.9443 13.0533 17.11V17.991C13.0533 18.15 12.9243 18.284 12.7643 18.284H11.2343C11.0753 18.284 10.9463 18.15 10.9463 17.991V17.11C10.9463 16.9443 10.812 16.81 10.6463 16.81H9.75927C9.60027 16.81 9.47127 16.684 9.47127 16.525V14.984C9.47127 14.833 9.60027 14.699 9.75927 14.699H10.6463C10.812 14.699 10.9463 14.5647 10.9463 14.399V13.518C10.9463 13.358 11.0753 13.224 11.2343 13.224H12.7643C12.9243 13.224 13.0533 13.358 13.0533 13.518V14.399C13.0533 14.5647 13.1876 14.699 13.3533 14.699H14.2393C14.3983 14.699 14.5273 14.833 14.5273 14.984V16.525ZM19.5289 12.9278C19.5164 12.7631 19.3731 12.64 19.2081 12.6471C19.0703 12.6529 18.933 12.656 18.7963 12.656C18.5573 12.656 18.3213 12.65 18.0903 12.645C17.8213 12.638 17.5283 12.63 17.2123 12.63C14.3203 12.63 13.4283 10.592 13.0473 9.72199C12.9619 9.52498 12.6147 9.27122 12.4006 9.25467C12.2892 9.24606 12.1557 9.23999 11.9983 9.23999C11.7751 9.23999 11.6009 9.25178 11.4674 9.26781C11.3228 9.28515 11.009 9.58737 10.9513 9.72099C10.5703 10.591 9.67927 12.63 6.78827 12.63C6.47527 12.63 6.18627 12.638 5.92027 12.644C5.55624 12.6535 5.17836 12.6605 4.79663 12.645C4.63114 12.6383 4.48723 12.7618 4.47483 12.927L4.20427 16.533C4.04527 17.732 4.36827 18.864 5.11627 19.718C5.92827 20.647 7.18827 21.18 8.57027 21.18H15.4193C16.8713 21.18 18.2253 20.588 19.0443 19.597C19.7503 18.74 20.0173 17.642 19.8053 16.561L19.5289 12.9278Z" fill="black"/>
<path fill-rule="evenodd" clip-rule="evenodd" d="M21.498 7.07131C21.502 6.72331 21.513 5.80031 20.625 4.90231C19.259 3.52031 16.356 2.82031 11.998 2.82031C7.641 2.82031 4.739 3.52031 3.374 4.90231C2.487 5.79931 2.498 6.72331 2.502 7.07131L2.5 7.17931C2.5 8.75131 2.712 9.59731 3.231 10.1043C3.836 10.6943 4.694 10.6723 5.87 10.6443C6.152 10.6373 6.458 10.6303 6.788 10.6303C8.371 10.6303 8.785 9.68131 9.118 8.92031C9.512 8.01831 9.852 7.24031 11.998 7.24031C14.145 7.24031 14.486 8.01831 14.881 8.92031C15.214 9.68131 15.629 10.6303 17.212 10.6303C17.547 10.6303 17.856 10.6373 18.142 10.6453C18.39 10.6513 18.622 10.6573 18.841 10.6573C19.663 10.6573 20.293 10.5733 20.769 10.1093C21.288 9.60331 21.5 8.75431 21.5 7.17931C21.5 7.16131 21.5 7.09031 21.498 7.07131Z" fill="black"/>
</svg>