<svg width="24" height="24" viewBox="0 0 24 24" fill="none" xmlns="http://www.w3.org/2000/svg">
<path fill-rule="evenodd" clip-rule="evenodd" d="M15.666 15.83C15.666 16.244 15.33 16.58 14.916 16.58C14.502 16.58 14.166 16.244 14.166 15.83V12.75H9.836V15.83C9.836 16.244 9.5 16.58 9.086 16.58C8.672 16.58 8.336 16.244 8.336 15.83V8.18C8.336 7.766 8.672 7.43 9.086 7.43C9.5 7.43 9.836 7.766 9.836 8.18V11.25H14.166V8.18C14.166 7.766 14.502 7.43 14.916 7.43C15.33 7.43 15.666 7.766 15.666 8.18V11.995C15.666 11.997 15.667 11.998 15.667 12C15.667 12.002 15.666 12.003 15.666 12.005V15.83ZM16.218 2.5H7.783C4.623 2.5 2.5 4.723 2.5 8.03V15.97C2.5 19.277 4.623 21.5 7.783 21.5H16.217C19.377 21.5 21.5 19.277 21.5 15.97V8.03C21.5 4.723 19.377 2.5 16.218 2.5Z" fill="black"/>
</svg>