<svg width="25" height="24" viewBox="0 0 25 24" fill="none" xmlns="http://www.w3.org/2000/svg">
<path opacity="0.4" d="M6.35688 5.99968V12.0224C5.14942 12.935 4.35645 14.3692 4.35645 15.9999C4.35645 18.7612 6.59526 21 9.35655 21C12.1179 21 14.3567 18.7612 14.3567 15.9999C14.3567 14.3692 13.5647 12.935 12.3572 12.0224V5.99968C12.3572 4.3427 11.0135 3 9.35655 3C7.69958 3 6.35688 4.3427 6.35688 5.99968Z" stroke="black" stroke-width="1.5" stroke-linecap="round" stroke-linejoin="round"/>
<path fill-rule="evenodd" clip-rule="evenodd" d="M10.8309 15.9996C10.8309 16.813 10.1712 17.4727 9.35784 17.4727C8.54346 17.4727 7.88379 16.813 7.88379 15.9996C7.88379 15.1862 8.54312 14.5264 9.3575 14.5264C10.1709 14.5264 10.8309 15.1862 10.8309 15.9996Z" stroke="black" stroke-width="1.5" stroke-linecap="round" stroke-linejoin="round"/>
<path d="M9.35645 6.72754V14.5269" stroke="black" stroke-width="1.5" stroke-linecap="round" stroke-linejoin="round"/>
<path d="M19.8707 9.70499C19.6012 9.97547 19.2344 10.1273 18.852 10.1273C18.4686 10.1273 18.1018 9.97547 17.8313 9.70499C17.5609 9.4345 17.194 9.28271 16.8117 9.28271C16.4293 9.28271 16.0625 9.4345 15.792 9.70499" stroke="black" stroke-width="1.5" stroke-linecap="round" stroke-linejoin="round"/>
<path d="M19.8707 6.20254C19.6012 6.47303 19.2344 6.62481 18.852 6.62481C18.4686 6.62481 18.1018 6.47303 17.8313 6.20254C17.5609 5.93206 17.194 5.78027 16.8117 5.78027C16.4293 5.78027 16.0625 5.93206 15.792 6.20254" stroke="black" stroke-width="1.5" stroke-linecap="round" stroke-linejoin="round"/>
</svg>