<svg width="25" height="24" viewBox="0 0 25 24" fill="none" xmlns="http://www.w3.org/2000/svg">
<path d="M8.12584 13.8644C6.67419 12.0926 6.76856 9.4812 8.42746 7.83203" stroke="black" stroke-width="1.5" stroke-linecap="round" stroke-linejoin="round"/>
<path fill-rule="evenodd" clip-rule="evenodd" d="M13.3953 11.0096C13.3953 11.7569 12.7901 12.3611 12.0438 12.3611C11.2966 12.3611 10.6914 11.7569 10.6914 11.0096C10.6914 10.2634 11.2966 9.6582 12.0438 9.6582C12.7901 9.6582 13.3953 10.2634 13.3953 11.0096Z" stroke="black" stroke-width="1.5" stroke-linecap="round" stroke-linejoin="round"/>
<path d="M15.6641 7.83203C17.3132 9.4812 17.4076 12.0926 15.9657 13.8644" stroke="black" stroke-width="1.5" stroke-linecap="round" stroke-linejoin="round"/>
<path d="M18.4082 4.64844C20.4751 6.71536 21.3261 9.53761 20.961 12.2265" stroke="black" stroke-width="1.5" stroke-linecap="round" stroke-linejoin="round"/>
<path d="M5.67774 17.3711C3.61082 15.3042 2.75987 12.4819 3.12491 9.79309" stroke="black" stroke-width="1.5" stroke-linecap="round" stroke-linejoin="round"/>
<path d="M20.1921 14.8359C19.7612 15.7537 19.1665 16.6137 18.4082 17.372" stroke="black" stroke-width="1.5" stroke-linecap="round" stroke-linejoin="round"/>
<path d="M3.8938 7.18451C4.32477 6.26675 4.91941 5.40676 5.67773 4.64844" stroke="black" stroke-width="1.5" stroke-linecap="round" stroke-linejoin="round"/>
<path d="M14.7194 19.353L12.0428 12.3594L9.36523 19.353" stroke="black" stroke-width="1.5" stroke-linecap="round" stroke-linejoin="round"/>
</svg>