<svg width="25" height="24" viewBox="0 0 25 24" fill="none" xmlns="http://www.w3.org/2000/svg">
<path d="M5.67799 17.3716C2.16463 13.8582 2.16463 8.16253 5.67799 4.64917" stroke="black" stroke-width="1.5" stroke-linecap="round" stroke-linejoin="round"/>
<path d="M8.12584 13.8637C6.67419 12.0919 6.76856 9.48047 8.42746 7.8313" stroke="black" stroke-width="1.5" stroke-linecap="round" stroke-linejoin="round"/>
<path fill-rule="evenodd" clip-rule="evenodd" d="M13.3953 11.0099C13.3953 11.7571 12.7901 12.3613 12.0438 12.3613C11.2966 12.3613 10.6914 11.7571 10.6914 11.0099C10.6914 10.2636 11.2966 9.65845 12.0438 9.65845C12.7901 9.65845 13.3953 10.2636 13.3953 11.0099Z" stroke="black" stroke-width="1.5" stroke-linecap="round" stroke-linejoin="round"/>
<path d="M15.6641 7.83081C17.3132 9.47998 17.4076 12.0914 15.9657 13.8632" stroke="black" stroke-width="1.5" stroke-linecap="round" stroke-linejoin="round"/>
<path d="M18.4082 4.64819C21.9216 8.16155 21.9216 13.8573 18.4082 17.3706" stroke="black" stroke-width="1.5" stroke-linecap="round" stroke-linejoin="round"/>
<path d="M14.7194 19.3518L12.0428 12.3582L9.36523 19.3518" stroke="black" stroke-width="1.5" stroke-linecap="round" stroke-linejoin="round"/>
</svg>