<svg width="25" height="24" viewBox="0 0 25 24" fill="none" xmlns="http://www.w3.org/2000/svg">
<path fill-rule="evenodd" clip-rule="evenodd" d="M2.86148 2.81342C3.15437 2.52053 3.62925 2.52053 3.92214 2.81342L21.2348 20.126C21.5277 20.4189 21.5277 20.8938 21.2348 21.1867C20.9419 21.4796 20.467 21.4796 20.1741 21.1867L9.16748 10.1801C8.20221 11.6357 8.36095 13.616 9.64319 14.8982C9.93608 15.1911 9.93608 15.666 9.64319 15.9589C9.35029 16.2517 8.87542 16.2517 8.58253 15.9589C6.71276 14.0891 6.54926 11.1599 8.09144 9.10404L5.95608 6.96868C3.24862 10.2084 3.41635 15.0363 6.45926 18.0792C6.75215 18.3721 6.75215 18.847 6.45926 19.1399C6.16637 19.4328 5.69149 19.4328 5.3986 19.1399C1.76958 15.5109 1.60064 9.73343 4.89178 5.90438L2.86148 3.87408C2.56859 3.58119 2.56859 3.10631 2.86148 2.81342ZM18.1273 5.35753C18.4202 5.06458 18.8951 5.06449 19.188 5.35733C22.0561 8.2244 22.8488 12.5672 21.1792 16.2627C21.0086 16.6401 20.5644 16.8079 20.1869 16.6374C19.8094 16.4668 19.6416 16.0226 19.8122 15.6451C21.2249 12.5183 20.5542 8.84395 18.1275 6.41819C17.8346 6.12535 17.8345 5.65048 18.1273 5.35753ZM14.9464 8.53851C15.2393 8.24562 15.7141 8.24562 16.007 8.53851C16.9912 9.52268 17.5441 10.8566 17.5441 12.2494C17.5441 12.6636 17.2083 12.9994 16.7941 12.9994C16.3798 12.9994 16.0441 12.6636 16.0441 12.2494C16.0441 11.2546 15.6493 10.3021 14.9464 9.59917C14.6535 9.30628 14.6535 8.83141 14.9464 8.53851Z" fill="black"/>
</svg>