<svg width="25" height="24" viewBox="0 0 25 24" fill="none" xmlns="http://www.w3.org/2000/svg">
<path fill-rule="evenodd" clip-rule="evenodd" d="M15.5486 12.2502C15.5486 12.8022 15.9956 13.2502 16.5486 13.2502C17.1016 13.2502 17.5486 12.8022 17.5486 12.2502C17.5486 10.7982 16.9606 9.38125 15.9366 8.36125C15.5466 7.97225 14.9116 7.97425 14.5226 8.36425C14.1326 8.75625 14.1346 9.38925 14.5266 9.77925C15.1756 10.4262 15.5486 11.3262 15.5486 12.2502Z" fill="black"/>
<path fill-rule="evenodd" clip-rule="evenodd" d="M19.3376 15.5384C19.1096 16.0414 19.3336 16.6334 19.8366 16.8614C19.9706 16.9214 20.1096 16.9504 20.2476 16.9504C20.6286 16.9504 20.9926 16.7314 21.1596 16.3614C22.8636 12.5924 22.0426 8.09939 19.1166 5.18239C18.7266 4.79139 18.0936 4.79339 17.7026 5.18439C17.3136 5.57539 17.3136 6.20739 17.7046 6.59839C20.0436 8.93039 20.6996 12.5234 19.3376 15.5384Z" fill="black"/>
<path fill-rule="evenodd" clip-rule="evenodd" d="M3.85236 2.63309C3.46136 2.24209 2.82936 2.24209 2.43836 2.63309C2.04736 3.02309 2.04736 3.65609 2.43836 4.04709L4.30836 5.91809C2.84436 7.69909 2.04736 9.91309 2.04736 12.2501C2.04736 14.9211 3.08736 17.4311 4.97536 19.3181C5.17036 19.5121 5.42636 19.6101 5.68236 19.6101C5.93836 19.6101 6.19436 19.5121 6.38936 19.3171C6.78036 18.9261 6.78036 18.2931 6.38936 17.9031C4.87936 16.3941 4.04736 14.3861 4.04736 12.2501C4.04736 10.4481 4.64536 8.74309 5.73636 7.34609L7.52736 9.13909C6.05736 11.2791 6.26136 14.2341 8.15936 16.1361C8.35436 16.3321 8.61136 16.4301 8.86736 16.4301C9.12336 16.4301 9.37736 16.3331 9.57336 16.1381C9.96436 15.7481 9.96436 15.1141 9.57536 14.7231C8.46036 13.6061 8.27436 11.9221 8.98536 10.5971L19.7504 21.3671C19.9464 21.5621 20.2024 21.6601 20.4574 21.6601C20.7134 21.6601 20.9694 21.5621 21.1644 21.3671C21.5554 20.9771 21.5554 20.3431 21.1644 19.9531L3.85236 2.63309Z" fill="black"/>
</svg>