<svg width="25" height="24" viewBox="0 0 25 24" fill="none" xmlns="http://www.w3.org/2000/svg">
<path d="M18.3021 19.0078V18.0602C18.3021 17.5026 18.0686 16.9704 17.658 16.5929L12.6579 11.998L7.65778 16.5929C7.24719 16.9704 7.01367 17.5026 7.01367 18.0602V19.0078C7.01367 20.1083 7.90589 21.0005 9.00632 21.0005H16.3095C17.4099 21.0005 18.3021 20.1083 18.3021 19.0078Z" stroke="black" stroke-width="1.5" stroke-linecap="round" stroke-linejoin="round"/>
<path opacity="0.4" d="M18.3021 5.93546C18.3021 6.49297 18.0686 7.02519 17.658 7.4027L12.6579 11.9976L7.65778 7.4027C7.24719 7.02519 7.01367 6.49297 7.01367 5.93546V4.99265C7.01367 3.89222 7.90589 3 9.00632 3H16.3095C17.4099 3 18.3021 3.89222 18.3021 4.99265V5.93546Z" stroke="black" stroke-width="1.5" stroke-linecap="round" stroke-linejoin="round"/>
</svg>