<svg width="25" height="24" viewBox="0 0 25 24" fill="none" xmlns="http://www.w3.org/2000/svg">
<path fill-rule="evenodd" clip-rule="evenodd" d="M8.07748 16.2987C8.82591 15.3228 10.0179 14.5474 11.7196 14.5474C13.4363 14.5474 14.6338 15.3364 15.3809 16.3233C15.876 16.9774 16.1765 17.7202 16.3169 18.3851C16.3287 18.385 16.3406 18.3849 16.3524 18.3849C17.8277 18.3849 19.0851 19.3095 19.5804 20.6083C19.728 20.9953 19.5339 21.4287 19.1469 21.5763C18.7599 21.7239 18.3265 21.5298 18.1789 21.1428C17.898 20.4062 17.1851 19.8849 16.3524 19.8849C16.2247 19.8849 16.1 19.8971 15.9793 19.9204C15.9008 19.957 15.8149 19.9804 15.7244 19.9878C15.4384 20.0848 15.1821 20.2463 14.9724 20.4556C14.6791 20.7482 14.2043 20.7476 13.9117 20.4544C13.6191 20.1611 13.6197 19.6863 13.9129 19.3937C14.1856 19.1216 14.5041 18.8947 14.8557 18.7254C14.7629 18.266 14.5514 17.7128 14.1849 17.2286C13.6883 16.5726 12.9143 16.0474 11.7196 16.0474C10.9063 16.0474 10.2883 16.2908 9.82014 16.6528C10.3893 16.8677 10.8294 17.2348 11.1474 17.6549C11.6305 18.2931 11.8384 19.0572 11.8384 19.6175C11.8384 20.0317 11.5026 20.3675 11.0884 20.3675C10.6742 20.3675 10.3384 20.0317 10.3384 19.6175C10.3384 19.3724 10.2303 18.9287 9.95141 18.5603C9.69566 18.2224 9.30347 17.9517 8.67261 17.9517C8.04177 17.9517 7.64973 18.2224 7.39412 18.5602C7.11535 18.9285 7.00732 19.3723 7.00732 19.6175C7.00732 20.0137 6.69913 20.3415 6.30368 20.366L6.20013 20.3724C6.1847 20.3734 6.16924 20.3739 6.15377 20.3739C5.48104 20.3739 4.89765 20.7624 4.61832 21.3307C4.43561 21.7024 3.98614 21.8556 3.6144 21.6729C3.24266 21.4902 3.08943 21.0407 3.27215 20.669C3.71585 19.7663 4.57277 19.1009 5.59772 18.9219C5.70082 18.5043 5.89538 18.0549 6.19799 17.655C6.58456 17.1442 7.15172 16.7117 7.91185 16.5359L8.05652 16.3274C8.06328 16.3177 8.07027 16.3081 8.07748 16.2987Z" fill="black"/>
<path fill-rule="evenodd" clip-rule="evenodd" d="M7.97144 13.1836C6.90598 13.1836 6.02952 13.9966 5.92998 15.0356C5.89048 15.4479 5.5242 15.7502 5.11188 15.7107C4.69955 15.6712 4.39732 15.3049 4.43682 14.8926C4.60937 13.0915 6.12554 11.6836 7.97144 11.6836C9.93257 11.6836 11.5224 13.2734 11.5224 15.2345C11.5224 15.6487 11.1866 15.9845 10.7724 15.9845C10.3582 15.9845 10.0224 15.6487 10.0224 15.2345C10.0224 14.1018 9.10414 13.1836 7.97144 13.1836Z" fill="black"/>
<path fill-rule="evenodd" clip-rule="evenodd" d="M5.2713 15.7292C4.87478 15.6641 4.5006 15.9328 4.43553 16.3293C4.36845 16.7381 3.98272 17.015 3.57397 16.948C3.16523 16.8809 2.88825 16.4952 2.95533 16.0864C3.15455 14.8724 4.3002 14.0498 5.5142 14.249C6.24665 14.3692 6.83641 14.8346 7.14468 15.4483C7.33059 15.8185 7.18125 16.2693 6.8111 16.4552C6.44096 16.6411 5.99018 16.4918 5.80426 16.1216C5.70228 15.9186 5.5098 15.7683 5.2713 15.7292Z" fill="black"/>
<path fill-rule="evenodd" clip-rule="evenodd" d="M11.7634 2.62383C12.5718 2.38637 13.6442 2.25 14.7972 2.25C15.9503 2.25 17.0227 2.38637 17.831 2.62383C18.2303 2.74112 18.608 2.89533 18.9029 3.10012C19.1755 3.28946 19.5388 3.63974 19.5388 4.17253C19.5388 4.70532 19.1755 5.0556 18.9029 5.24494C18.608 5.44973 18.2303 5.60394 17.831 5.72123C17.0227 5.9587 15.9503 6.09506 14.7972 6.09506C13.6442 6.09506 12.5718 5.9587 11.7634 5.72123C11.3641 5.60394 10.9864 5.44973 10.6915 5.24494C10.4189 5.0556 10.0557 4.70532 10.0557 4.17253C10.0557 3.63974 10.4189 3.28946 10.6915 3.10012C10.9864 2.89533 11.3641 2.74112 11.7634 2.62383ZM11.4909 4.37775C11.4906 4.37773 11.4927 4.37517 11.4981 4.37016C11.494 4.37527 11.4913 4.37778 11.4909 4.37775ZM11.8641 4.17253C11.955 4.1365 12.062 4.0995 12.1861 4.06302C12.8224 3.87611 13.7458 3.75 14.7972 3.75C15.8486 3.75 16.772 3.87611 17.4083 4.06302C17.5325 4.0995 17.6395 4.1365 17.7303 4.17253C17.6395 4.20857 17.5325 4.24556 17.4083 4.28204C16.772 4.46895 15.8486 4.59506 14.7972 4.59506C13.7458 4.59506 12.8224 4.46895 12.1861 4.28204C12.062 4.24556 11.955 4.20857 11.8641 4.17253ZM18.1035 4.37775C18.1032 4.37778 18.1005 4.37527 18.0963 4.37016C18.1017 4.37517 18.1038 4.37773 18.1035 4.37775ZM18.0963 3.9749C18.1005 3.96979 18.1032 3.96728 18.1035 3.96731C18.1038 3.96734 18.1017 3.96989 18.0963 3.9749ZM11.4981 3.9749C11.4927 3.96989 11.4906 3.96734 11.4909 3.96731C11.4913 3.96728 11.494 3.96979 11.4981 3.9749Z" fill="black"/>
<path fill-rule="evenodd" clip-rule="evenodd" d="M19.4824 10.6599C19.6399 11.043 19.457 11.4812 19.0738 11.6387C18.2522 11.9764 16.8693 12.205 15.4349 11.9341C15.0279 11.8572 14.7603 11.4649 14.8371 11.0579C14.914 10.6509 15.3063 10.3832 15.7133 10.4601C16.8577 10.6763 17.9461 10.4805 18.5036 10.2513C18.8867 10.0939 19.325 10.2768 19.4824 10.6599Z" fill="black"/>
<path fill-rule="evenodd" clip-rule="evenodd" d="M20.191 5.95648C20.3713 5.58355 20.8198 5.42737 21.1927 5.60764C21.4528 5.73337 21.7076 5.89706 21.9067 6.1118C22.1097 6.33069 22.2836 6.63731 22.2836 7.01672C22.2836 7.70633 21.7382 8.13287 21.3327 8.35394C20.8766 8.60259 20.2844 8.77291 19.6473 8.86696C19.2667 8.92315 17.8971 9.11123 16.209 8.86729C15.799 8.80805 15.5147 8.4277 15.574 8.01774C15.6332 7.60778 16.0136 7.32347 16.4235 7.38271C17.9022 7.59638 19.1063 7.43058 19.4283 7.38304C19.9591 7.30467 20.3649 7.17316 20.6147 7.03695C20.6275 7.03 20.6394 7.02327 20.6507 7.01677C20.6191 6.99833 20.5823 6.97865 20.5399 6.95813C20.167 6.77786 20.0108 6.32941 20.191 5.95648ZM20.8123 6.89504C20.8125 6.89509 20.8112 6.89739 20.8075 6.90178C20.8102 6.89719 20.812 6.895 20.8123 6.89504Z" fill="black"/>
<path fill-rule="evenodd" clip-rule="evenodd" d="M9.62343 6.0489C9.85994 6.38896 9.77598 6.85635 9.43592 7.09285C9.13584 7.30155 8.95348 7.48166 8.85982 7.61498C8.84181 7.64062 8.82888 7.66176 8.81963 7.67868C8.87026 7.72405 8.95362 7.78455 9.07969 7.85412C9.36859 8.01355 9.79128 8.17141 10.3049 8.30144C11.335 8.5622 12.5815 8.67425 13.5451 8.54698C13.9558 8.49274 14.3326 8.78167 14.3869 9.19232C14.4411 9.60296 14.1522 9.97983 13.7415 10.0341C12.5489 10.1916 11.1071 10.0518 9.93683 9.75557C9.35032 9.6071 8.7948 9.41015 8.35494 9.16741C8.13503 9.04605 7.9214 8.90094 7.745 8.72657C7.57116 8.55472 7.39639 8.31731 7.32942 8.01121C7.22264 7.52314 7.40006 7.08349 7.63242 6.75273C7.86487 6.42183 8.20114 6.12451 8.57948 5.86138C8.91954 5.62488 9.38693 5.70884 9.62343 6.0489ZM8.77173 7.62852C8.77175 7.62852 8.77211 7.62902 8.77273 7.63003L8.77173 7.62852ZM8.79802 7.72794C8.79773 7.73082 8.79735 7.73231 8.79722 7.73234C8.7971 7.73237 8.79725 7.73093 8.79802 7.72794Z" fill="black"/>
<path fill-rule="evenodd" clip-rule="evenodd" d="M10.9408 3.4171C11.348 3.49293 11.6166 3.88451 11.5408 4.29172C11.2519 5.84322 11.9131 7.28739 12.7068 9.02106C12.7603 9.13804 12.8145 9.25635 12.869 9.37609C13.688 11.1751 14.5571 13.2746 13.6932 15.6413C13.5512 16.0304 13.1207 16.2307 12.7316 16.0887C12.3425 15.9466 12.1421 15.5161 12.2842 15.127C12.9174 13.3921 12.3324 11.8176 11.5038 9.9976C11.4393 9.85595 11.373 9.71224 11.3056 9.56653C10.5534 7.93809 9.68576 6.05993 10.0661 4.01714C10.142 3.60992 10.5335 3.34128 10.9408 3.4171ZM18.873 3.56272C19.2845 3.60982 19.5799 3.98162 19.5328 4.39314C19.4539 5.08224 19.5131 5.85388 19.6003 6.73156C19.6098 6.82763 19.6197 6.92499 19.6297 7.02347C19.7082 7.79719 19.7939 8.64056 19.7769 9.4721C19.7576 10.4207 19.6058 11.4059 19.1367 12.345C18.6637 13.2919 17.8935 14.1412 16.718 14.8545C16.3638 15.0694 15.9026 14.9565 15.6877 14.6024C15.4728 14.2483 15.5857 13.787 15.9398 13.5721C16.901 12.9888 17.4619 12.3411 17.7948 11.6747C18.1317 11.0003 18.2606 10.2555 18.2772 9.44154C18.2922 8.70754 18.2166 7.95958 18.1372 7.17445C18.1274 7.07684 18.1174 6.97865 18.1076 6.87984C18.0215 6.01327 17.9431 5.09174 18.0425 4.22256C18.0896 3.81103 18.4614 3.51561 18.873 3.56272Z" fill="black"/>
</svg>