<svg width="25" height="24" viewBox="0 0 25 24" fill="none" xmlns="http://www.w3.org/2000/svg">
<path d="M15.1627 19.2403C15.1627 17.926 14.1311 15.2974 11.2197 15.2974C9.77632 15.2974 8.79518 15.9434 8.1727 16.7551L7.86344 17.2006M10.5885 19.6175C10.5885 18.8122 9.95644 17.2017 8.17268 17.2017C6.38893 17.2017 5.75739 18.8122 5.75739 19.6175L5.65385 19.6239C4.68437 19.6239 3.84591 20.1848 3.44531 20.9998M13.9427 19.9247C14.4318 19.4366 15.1069 19.1349 15.8525 19.1349C17.0065 19.1349 17.9916 19.8578 18.3797 20.8755" stroke="black" stroke-width="1.5" stroke-linecap="round" stroke-linejoin="round"/>
<path d="M10.2726 15.2345C10.2726 13.6876 9.01855 12.4336 7.47163 12.4336C6.01595 12.4336 4.81964 13.5441 4.68359 14.9641" stroke="black" stroke-width="1.5" stroke-linecap="round" stroke-linejoin="round"/>
<path d="M3.19531 16.2082C3.32746 15.403 4.08738 14.8573 4.89263 14.9895C5.37811 15.0691 5.76923 15.377 5.97435 15.7853" stroke="black" stroke-width="1.5" stroke-linecap="round" stroke-linejoin="round"/>
<path d="M10.3057 4.17253C10.3057 4.8201 12.0927 5.34506 14.2972 5.34506C16.5017 5.34506 18.2888 4.8201 18.2888 4.17253C18.2888 3.52496 16.5017 3 14.2972 3C12.0927 3 10.3057 3.52496 10.3057 4.17253Z" stroke="black" stroke-width="1.5" stroke-linecap="round" stroke-linejoin="round"/>
<path d="M15.0742 11.1969C16.3636 11.4405 17.5993 11.2282 18.2888 10.9448" stroke="black" stroke-width="1.5" stroke-linecap="round" stroke-linejoin="round"/>
<path d="M15.8164 8.12483C17.3998 8.35363 18.6866 8.17669 19.0379 8.12483C20.2059 7.9524 21.0338 7.5212 21.0338 7.01655C21.0338 6.73961 20.7845 6.48479 20.3664 6.28271" stroke="black" stroke-width="1.5" stroke-linecap="round" stroke-linejoin="round"/>
<path d="M8.50767 6.47705C7.82925 6.94887 7.47041 7.43194 7.56206 7.85085C7.76683 8.78682 10.987 9.57525 13.1433 9.29045" stroke="black" stroke-width="1.5" stroke-linecap="round" stroke-linejoin="round"/>
<path d="M12.4887 15.384C13.9857 11.2824 9.58065 8.03606 10.3034 4.1543M18.2877 4.30772C17.9309 7.42428 20.1024 11.6199 15.8289 14.2132" stroke="black" stroke-width="1.5" stroke-linecap="round" stroke-linejoin="round"/>
</svg>