<svg width="25" height="24" viewBox="0 0 25 24" fill="none" xmlns="http://www.w3.org/2000/svg">
<path d="M8.43164 15.9531V15.9631" stroke="black" stroke-width="1.5" stroke-linecap="round" stroke-linejoin="round"/>
<path d="M16.4824 7.90234V7.91234" stroke="black" stroke-width="1.5" stroke-linecap="round" stroke-linejoin="round"/>
<path d="M9.29281 13.4703C9.09141 13.0432 8.98633 12.5586 8.98633 12.0498C8.98633 10.1456 10.5353 8.5957 12.4482 8.5957C12.9483 8.5957 13.4328 8.70078 13.8609 8.90219" stroke="black" stroke-width="1.5" stroke-linecap="round" stroke-linejoin="round"/>
<path d="M15.562 10.541C15.7878 11.0012 15.9094 11.5091 15.9094 12.0501C15.9094 13.963 14.3594 15.5119 12.4466 15.5119C11.9056 15.5119 11.3899 15.3913 10.9375 15.1656" stroke="black" stroke-width="1.5" stroke-linecap="round" stroke-linejoin="round"/>
<path d="M12.5 21C7.52944 21 3.5 16.9706 3.5 12C3.5 7.02944 7.52944 3 12.5 3C17.4706 3 21.5 7.02944 21.5 12C21.5 15.4651 19.5417 18.4729 16.6715 19.9769" stroke="black" stroke-width="1.5" stroke-linecap="round" stroke-linejoin="round"/>
</svg>