<svg width="24" height="24" viewBox="0 0 24 24" fill="none" xmlns="http://www.w3.org/2000/svg">
<path fill-rule="evenodd" clip-rule="evenodd" d="M4.65406 6.379C5.54046 5.42808 6.80084 4.89844 8.28215 4.89844H15.7173C17.202 4.89844 18.463 5.42775 19.3491 6.37928C20.2295 7.32477 20.6841 8.62633 20.6841 10.0792V16.5687C20.6841 18.0216 20.2295 19.3232 19.3489 20.2687C18.4627 21.2202 17.2015 21.7495 15.7164 21.7495H8.28215C6.79744 21.7495 5.53664 21.2201 4.6508 20.2685C3.7706 19.323 3.31641 18.0214 3.31641 16.5687V10.0792C3.31641 8.6255 3.77311 7.32408 4.65406 6.379ZM5.75129 7.40178C5.17211 8.02313 4.81641 8.93709 4.81641 10.0792V16.5687C4.81641 17.7118 5.17072 18.6256 5.74872 19.2465C6.32106 19.8613 7.16814 20.2495 8.28215 20.2495H15.7164C16.831 20.2495 17.6786 19.8612 18.2513 19.2463C18.8296 18.6254 19.1841 17.7116 19.1841 16.5687V10.0792C19.1841 8.93627 18.8296 8.02245 18.2514 7.40151C17.6787 6.7866 16.8314 6.39844 15.7173 6.39844H8.28215C7.17252 6.39844 6.32504 6.78627 5.75129 7.40178Z" fill="black"/>
<path fill-rule="evenodd" clip-rule="evenodd" d="M12.5033 11.4237C12.686 11.5657 12.7928 11.7842 12.7928 12.0156V13.6351L15.7827 12.7884C16.1813 12.6756 16.5958 12.9072 16.7087 13.3057C16.8216 13.7043 16.59 14.1188 16.1914 14.2317L12.2471 15.3486C12.021 15.4127 11.7779 15.367 11.5904 15.2252C11.403 15.0835 11.2928 14.862 11.2928 14.627V12.9798L8.19835 13.7651C7.79687 13.867 7.3888 13.6242 7.2869 13.2227C7.185 12.8212 7.42786 12.4131 7.82935 12.3112L11.8583 11.2887C12.0826 11.2317 12.3206 11.2816 12.5033 11.4237Z" fill="black"/>
<path fill-rule="evenodd" clip-rule="evenodd" d="M14.9351 2.44722C15.2404 2.72717 15.2609 3.2016 14.981 3.50689L12.5525 6.15523C12.4105 6.31013 12.21 6.39832 11.9998 6.39834C11.7897 6.39836 11.5891 6.31021 11.4471 6.15534L9.01764 3.507C8.73763 3.20176 8.75808 2.72733 9.06332 2.44732C9.36856 2.16732 9.84299 2.18777 10.123 2.49301L11.9996 4.53875L13.8754 2.49312C14.1554 2.18783 14.6298 2.16728 14.9351 2.44722Z" fill="black"/>
</svg>