<svg width="24" height="25" viewBox="0 0 24 25" fill="none" xmlns="http://www.w3.org/2000/svg">
<path opacity="0.4" fill-rule="evenodd" clip-rule="evenodd" d="M18.831 11.8628C17.45 11.8628 16.331 10.7438 16.331 9.3628V8.46712C16.331 8.30566 16.2027 8.17505 16.043 8.15118C15.5367 8.07551 15.0492 7.8475 14.658 7.4588C13.681 6.4838 13.677 4.9008 14.651 3.9228L14.9688 3.60342C15.1571 3.41422 15.0231 3.0918 14.7562 3.0918H7.29796C4.13596 3.0918 2.01196 5.3108 2.01196 8.6128V14.7554C2.01196 15.0004 2.28986 15.1421 2.48818 14.9982L5.72096 12.6518C7.61596 11.2738 10.172 11.3938 11.934 12.9408L14.7798 15.4941C14.8803 15.5843 15.0285 15.5961 15.1426 15.5239C15.5956 15.2373 16.2002 14.8701 16.898 14.4908C18.3469 13.7109 19.5692 14.0016 20.5218 14.5468C20.7337 14.6681 21.012 14.5235 21.012 14.2794V11.7264C21.012 11.4164 20.4945 11.2432 20.2402 11.4204C19.8406 11.6989 19.3564 11.8628 18.831 11.8628Z" fill="black"/>
<path fill-rule="evenodd" clip-rule="evenodd" d="M21.7694 5.15853L19.3624 2.74053C19.2214 2.59953 19.0304 2.51953 18.8314 2.51953C18.6314 2.51953 18.4404 2.59953 18.2994 2.74053L15.8914 5.15853C15.5994 5.45153 15.6003 5.92753 15.8934 6.21953C16.0404 6.36553 16.2314 6.43753 16.4224 6.43753C16.6154 6.43753 16.8074 6.36453 16.9544 6.21753L18.0814 5.08553V9.36353C18.0814 9.77753 18.4164 10.1135 18.8314 10.1135C19.2454 10.1135 19.5814 9.77753 19.5814 9.36353V5.08553L20.7074 6.21753C20.9994 6.51053 21.4743 6.51153 21.7673 6.21953C22.0603 5.92753 22.0624 5.45153 21.7694 5.15853Z" fill="black"/>
<path fill-rule="evenodd" clip-rule="evenodd" d="M6.60152 13.866L2.27552 17.006L2.27225 17.0083C2.15855 17.0888 2.06329 17.2046 2.07851 17.3431C2.39264 20.2024 4.39696 22.083 7.29752 22.083H15.7335C16.7979 22.083 17.742 21.8262 18.5285 21.3633C18.6951 21.2653 18.7089 21.0356 18.5651 20.9065L10.9375 14.063C9.71052 12.986 7.92552 12.904 6.60152 13.866Z" fill="black"/>
<path fill-rule="evenodd" clip-rule="evenodd" d="M17.6112 15.8113C17.1867 16.0421 16.7917 16.2723 16.4496 16.4793C16.2787 16.5828 16.2578 16.8217 16.4066 16.9551L19.6669 19.8811C19.7982 19.9988 20.0029 19.9789 20.0988 19.831C20.6159 19.0341 20.9284 18.0575 20.9864 16.938C20.991 16.8507 20.9553 16.7662 20.8905 16.7074C19.8378 15.753 18.9067 15.1156 17.6112 15.8113Z" fill="black"/>
</svg>