<svg width="24" height="24" viewBox="0 0 24 24" fill="none" xmlns="http://www.w3.org/2000/svg">
<path d="M13.1776 3.04102H7.75853C7.57353 3.04102 7.39919 3.0507 7.22389 3.06039C4.61168 3.3035 3 5.29485 3 8.04265V15.9577C3 18.7065 4.602 20.6969 7.22389 20.94C7.39919 20.9497 7.57353 20.9594 7.75853 20.9594H16.1588C16.3148 20.9594 16.4794 20.9497 16.6257 20.94C19.2863 20.7269 20.928 18.7355 20.928 15.9577V10.8883" stroke="black" stroke-width="1.5" stroke-linecap="round" stroke-linejoin="round"/>
<path d="M5.45923 16.332L6.94306 14.7659C7.45737 14.2187 8.31841 14.1925 8.86468 14.7068C8.86565 14.7068 8.86565 14.7068 8.86662 14.7078L9.77609 15.6318C10.3146 16.181 11.196 16.1897 11.7452 15.6511C11.781 15.6163 14.0116 12.9111 14.0116 12.9111C14.5869 12.2128 15.6194 12.113 16.3177 12.6883C16.3642 12.7271 18.4718 14.8899 18.4718 14.8899" stroke="black" stroke-width="1.5" stroke-linecap="round" stroke-linejoin="round"/>
<path fill-rule="evenodd" clip-rule="evenodd" d="M10.346 9.24666C10.346 10.1871 9.58373 10.9504 8.64229 10.9504C7.70182 10.9504 6.9386 10.1871 6.9386 9.24666C6.9386 8.30522 7.70182 7.54297 8.64229 7.54297C9.58373 7.54297 10.346 8.30522 10.346 9.24666Z" stroke="black" stroke-width="1.5" stroke-linecap="round" stroke-linejoin="round"/>
<path d="M18.5707 3.11621V7.9716" stroke="black" stroke-width="1.5" stroke-linecap="round" stroke-linejoin="round"/>
<path d="M21 5.5459H16.1437" stroke="black" stroke-width="1.5" stroke-linecap="round" stroke-linejoin="round"/>
</svg>