<svg width="24" height="24" viewBox="0 0 24 24" fill="none" xmlns="http://www.w3.org/2000/svg">
<path d="M3.00391 15.5725L6.95308 12.7055C8.41578 11.6428 10.4147 11.7401 11.7694 12.9303L19.4634 19.8331" stroke="black" stroke-width="1.5" stroke-linecap="round" stroke-linejoin="round"/>
<path d="M20.9984 15.4742C20.1595 14.7035 18.8535 13.4753 17.0784 14.431C16.1616 14.9273 15.3529 15.4451 14.9043 15.7467" stroke="black" stroke-width="1.5" stroke-linecap="round" stroke-linejoin="round"/>
<path d="M21 10.9499V15.9725C21 18.9174 19.1568 20.9942 16.2119 20.9942H7.77833C4.83348 20.9942 3 18.9174 3 15.9725V8.02553C3 5.08068 4.84321 3.00391 7.77833 3.00391H11.0521" stroke="black" stroke-width="1.5" stroke-linecap="round" stroke-linejoin="round"/>
<path fill-rule="evenodd" clip-rule="evenodd" d="M20.521 5.72668C20.8558 4.67856 20.4646 3.48154 19.3649 3.12828C18.7868 2.94337 18.1542 3.04945 17.6676 3.41342C17.181 3.05237 16.5514 2.94629 15.9733 3.12828C14.8746 3.48154 14.4795 4.67856 14.8152 5.72668C15.3369 7.38595 17.6676 8.66472 17.6676 8.66472C17.6676 8.66472 19.9809 7.40542 20.521 5.72668Z" stroke="black" stroke-width="1.5" stroke-linecap="round" stroke-linejoin="round"/>
</svg>