<svg width="24" height="24" viewBox="0 0 24 24" fill="none" xmlns="http://www.w3.org/2000/svg">
<path d="M21 8.46809V6.89091C21 4.74064 19.2574 2.99805 17.1072 2.99805H15.8501" stroke="black" stroke-width="1.5" stroke-linecap="round" stroke-linejoin="round"/>
<path d="M3 8.46809V6.89091C3 4.74064 4.74259 2.99805 6.89286 2.99805H8.18205" stroke="black" stroke-width="1.5" stroke-linecap="round" stroke-linejoin="round"/>
<path d="M3 15.5332V17.1104C3 19.2597 4.74259 21.0023 6.89286 21.0023H8.14994" stroke="black" stroke-width="1.5" stroke-linecap="round" stroke-linejoin="round"/>
<path d="M20.9999 15.5332V17.1104C20.9999 19.2597 19.2573 21.0023 17.1071 21.0023H15.8179" stroke="black" stroke-width="1.5" stroke-linecap="round" stroke-linejoin="round"/>
<path fill-rule="evenodd" clip-rule="evenodd" d="M14.4358 6.80273H9.56132C7.86551 6.80273 6.80127 8.0052 6.80127 9.70607V14.2945C6.80127 15.996 7.86101 17.1979 9.56132 17.1979H14.4324C16.1367 17.1979 17.1925 15.996 17.1925 14.2945V9.70607C17.1981 8.0052 16.1389 6.80273 14.4358 6.80273Z" stroke="black" stroke-width="1.5" stroke-linecap="round" stroke-linejoin="round"/>
<path d="M17.1992 13.6748C17.1992 13.6748 15.7898 12.0402 14.592 12.0587C13.1678 12.0808 13.1711 14.4434 11.832 14.4434C10.7115 14.4434 10.3542 13.8829 9.30799 13.8829C8.13943 13.8829 7.12556 15.7397 7.12556 15.7397" stroke="black" stroke-width="1.5" stroke-linecap="round" stroke-linejoin="round"/>
<path d="M10.2362 10.1966L10.247 10.2074M10.4949 10.202C10.4949 10.3417 10.3817 10.4549 10.2421 10.4549C10.1025 10.4549 9.98926 10.3417 9.98926 10.202C9.98926 10.0624 10.1025 9.94922 10.2421 9.94922C10.3817 9.94922 10.4949 10.0624 10.4949 10.202Z" stroke="black" stroke-width="1.5" stroke-linecap="round" stroke-linejoin="round"/>
</svg>