<svg width="25" height="25" viewBox="0 0 25 25" fill="none" xmlns="http://www.w3.org/2000/svg">
<path fill-rule="evenodd" clip-rule="evenodd" d="M9.088 7.12731C10.334 7.12731 11.349 8.14231 11.349 9.38831C11.349 10.6343 10.334 11.6483 9.088 11.6483C7.842 11.6483 6.827 10.6343 6.827 9.38831C6.827 8.14231 7.842 7.12731 9.088 7.12731ZM6.726 15.2303C7.911 14.6743 8.869 15.0183 9.796 15.3523C10.495 15.6043 11.219 15.8643 12.22 15.8643C12.998 15.8643 13.457 15.1773 14.12 14.0433C14.78 12.9163 15.601 11.5133 17.259 11.5133C19.563 11.5133 20.991 12.9663 21.959 14.0373C21.984 13.5793 22 13.1053 22 12.6043C22 5.40531 19.448 2.85431 12.25 2.85431C5.052 2.85431 2.5 5.40531 2.5 12.6043C2.5 15.2893 2.856 17.3273 3.676 18.8283C4.192 17.8113 5.314 15.8933 6.726 15.2303Z" fill="black"/>
<path fill-rule="evenodd" clip-rule="evenodd" d="M21.4815 15.7357C21.3345 15.5847 21.1785 15.4117 21.0115 15.2247C20.1275 14.2397 19.0265 13.0127 17.2585 13.0127C16.5145 13.0127 16.0655 13.6887 15.4155 14.8007C14.7465 15.9437 13.9155 17.3647 12.2195 17.3647C10.9565 17.3647 10.0315 17.0317 9.2875 16.7627C8.4115 16.4467 7.9595 16.3067 7.3645 16.5877C6.2325 17.1197 5.0965 19.2657 4.7545 20.0477C4.7345 20.0957 4.7035 20.1347 4.6745 20.1767C6.2115 21.7157 8.6495 22.3537 12.2505 22.3537C18.2095 22.3537 20.9775 20.5957 21.7565 15.9097C21.6555 15.8717 21.5615 15.8177 21.4815 15.7357Z" fill="black"/>
</svg>