<?xml version="1.0" encoding="UTF-8"?>
<svg width="24px" height="24px" viewBox="0 0 24 24" version="1.1" xmlns="http://www.w3.org/2000/svg" xmlns:xlink="http://www.w3.org/1999/xlink">
    <title>Iconly/Light-Outline/Image 2</title>
    <g id="Iconly/Light-Outline/Image-2" stroke="none" stroke-width="1" fill="none" fill-rule="evenodd">
        <g id="Image-2" transform="translate(2.000000, 2.000000)" fill="#000000">
            <path d="M14.3024,-4.97379915e-14 C15.9104,-4.97379915e-14 17.2974,0.537 18.3124,1.554 C19.3734,2.616 19.9554,4.161 19.9534051,5.905 L19.9548652,12.9013999 C19.9566163,12.9283145 19.9569248,12.9553035 19.9557924,12.9822409 L19.9534051,14.05 C19.9534051,17.581 17.6804,19.954 14.2974,19.954 L5.6514,19.954 C2.2714,19.954 0.0004,17.581 0.0004,14.05 L0.0004,5.904 C0.0004,2.373 2.2714,-4.97379915e-14 5.6514,-4.97379915e-14 L14.3024,-4.97379915e-14 Z M14.579,10.8323 C13.991,10.8323 13.301,11.8053 12.69,12.6643 C11.852,13.8443 10.985,15.0653 9.679,15.0653 C8.796,15.0653 7.987,14.7253 7.274,14.4243 C6.14,13.9463 5.626,13.7933 5.123,14.2073 C4.11609675,15.0370355 3.12118213,16.547943 2.66402601,17.2914399 C3.38557607,18.0353708 4.4105602,18.454 5.6514,18.454 L14.2974,18.454 C16.8224,18.454 18.4534072,16.726 18.4534072,14.05 L18.4534,13.251 L18.4303424,13.2266964 C17.5549256,12.3247752 16.0432727,10.8323 14.579,10.8323 Z M14.3024,1.5 L5.6514,1.5 C3.1304,1.5 1.5004,3.229 1.5004,5.904 L1.5004,14.05 C1.5004,14.7185858 1.60214888,15.3279949 1.7941212,15.8660625 C2.37280951,14.992334 3.24679158,13.8093829 4.17,13.0493 C5.422,12.0193 6.77,12.5853 7.856,13.0423 C8.495,13.3113 9.099,13.5653 9.679,13.5653 C10.211,13.5653 10.878,12.6253 11.468,11.7963 C12.287,10.6403 13.217,9.3323 14.579,9.3323 C16.0737254,9.3323 17.427535,10.2508625 18.4544697,11.162441 L18.4534072,5.904 C18.4554,4.541 18.0394,3.403 17.2514,2.614 C16.5234,1.885 15.5044,1.5 14.3024,1.5 Z M6.8574,4.1895 C8.2884,4.1905 9.4524,5.3545 9.4534,6.7845 L9.4534,6.7855 C9.4534,8.2165 8.2894,9.3805 6.8574,9.3805 C5.4254,9.3805 4.2614,8.2165 4.2614,6.7855 C4.2614,5.3535 5.4254,4.1895 6.8574,4.1895 Z M6.8564,5.6895 C6.2524,5.6895 5.7614,6.1805 5.7614,6.7855 C5.7614,7.3895 6.2524,7.8805 6.8574,7.8805 C7.4614,7.8805 7.9534,7.3895 7.9534,6.7865 C7.9524,6.1815 7.4604,5.6905 6.8564,5.6895 Z" id="Combined-Shape"></path>
        </g>
    </g>
</svg>