<svg width="25" height="25" viewBox="0 0 25 25" fill="none" xmlns="http://www.w3.org/2000/svg">
<path opacity="0.4" d="M6.07056 16.855C6.07056 16.855 6.88256 15.218 8.06456 15.218C9.24656 15.218 9.85056 16.593 11.1606 16.593C12.4696 16.593 13.9386 13.145 15.4226 13.145C16.9046 13.145 17.9706 15.536 17.9706 15.536" stroke="black" stroke-width="1.5" stroke-linecap="round" stroke-linejoin="round"/>
<path opacity="0.4" fill-rule="evenodd" clip-rule="evenodd" d="M10.1392 9.50087C10.1392 10.3609 9.44217 11.0589 8.58117 11.0589C7.72117 11.0589 7.02417 10.3609 7.02417 9.50087C7.02417 8.64087 7.72117 7.94287 8.58117 7.94287C9.44217 7.94387 10.1392 8.64087 10.1392 9.50087Z" stroke="black" stroke-width="1.5" stroke-linecap="round" stroke-linejoin="round"/>
<path fill-rule="evenodd" clip-rule="evenodd" d="M2.75024 12.3961C2.75024 19.3331 5.06324 21.6461 12.0002 21.6461C18.9372 21.6461 21.2502 19.3331 21.2502 12.3961C21.2502 5.45912 18.9372 3.14612 12.0002 3.14612C5.06324 3.14612 2.75024 5.45912 2.75024 12.3961Z" stroke="black" stroke-width="1.5" stroke-linecap="round" stroke-linejoin="round"/>
</svg>