<svg width="25" height="24" viewBox="0 0 25 24" fill="none" xmlns="http://www.w3.org/2000/svg">
<path d="M3.50391 15.5725L7.45308 12.7055C8.91578 11.6428 10.9147 11.7401 12.2694 12.9303L19.9634 19.8331" stroke="black" stroke-width="1.5" stroke-linecap="round" stroke-linejoin="round"/>
<path opacity="0.4" d="M21.4984 15.4742C20.6595 14.7035 19.3535 13.4753 17.5784 14.431C16.6616 14.9273 15.8529 15.4451 15.4043 15.7467" stroke="black" stroke-width="1.5" stroke-linecap="round" stroke-linejoin="round"/>
<path d="M21.5 10.9499V15.9725C21.5 18.9174 19.6568 20.9942 16.7119 20.9942H8.27833C5.33348 20.9942 3.5 18.9174 3.5 15.9725V8.02553C3.5 5.08068 5.34321 3.00391 8.27833 3.00391H11.5521" stroke="black" stroke-width="1.5" stroke-linecap="round" stroke-linejoin="round"/>
<path opacity="0.4" fill-rule="evenodd" clip-rule="evenodd" d="M21.021 5.72668C21.3558 4.67856 20.9646 3.48154 19.8649 3.12828C19.2868 2.94337 18.6542 3.04945 18.1676 3.41342C17.681 3.05237 17.0514 2.94629 16.4733 3.12828C15.3746 3.48154 14.9795 4.67856 15.3152 5.72668C15.8369 7.38595 18.1676 8.66472 18.1676 8.66472C18.1676 8.66472 20.4809 7.40542 21.021 5.72668Z" stroke="black" stroke-width="1.5" stroke-linecap="round" stroke-linejoin="round"/>
</svg>