<svg width="25" height="24" viewBox="0 0 25 24" fill="none" xmlns="http://www.w3.org/2000/svg">
<path fill-rule="evenodd" clip-rule="evenodd" d="M17.7373 12.0987C17.7373 12.0987 17.7372 12.0986 17.7373 12.0987L21.6862 14.9655C22.0214 15.2089 22.0959 15.6779 21.8525 16.0131C21.6092 16.3482 21.1402 16.4227 20.805 16.1794L16.8558 13.3124C15.6788 12.4572 14.07 12.534 12.9779 13.4913L5.28699 20.3913C4.97867 20.6679 4.50449 20.6422 4.22788 20.3339C3.95127 20.0256 3.97697 19.5514 4.28529 19.2748L11.9851 12.3668C13.6022 10.946 15.9899 10.8293 17.7373 12.0987Z" fill="black"/>
<path fill-rule="evenodd" clip-rule="evenodd" d="M5.15788 14.993C4.63997 15.2181 4.19438 15.625 3.75744 16.0265C3.45242 16.3067 2.97797 16.2867 2.69772 15.9817C2.41748 15.6766 2.43756 15.2022 2.74257 14.9219C2.7583 14.9075 2.77438 14.8927 2.7908 14.8776C3.19383 14.5066 3.80223 13.9467 4.55996 13.6173C5.39981 13.2523 6.41336 13.1718 7.52552 13.7706L7.52706 13.7714C8.4706 14.2823 9.30036 14.8135 9.76259 15.1243C10.1063 15.3555 10.1976 15.8215 9.96645 16.1652C9.73531 16.509 9.26929 16.6002 8.92556 16.3691C8.49065 16.0766 7.7033 15.5726 6.81368 15.0909C6.15111 14.7345 5.62435 14.7903 5.15788 14.993Z" fill="black"/>
<path fill-rule="evenodd" clip-rule="evenodd" d="M12.3982 3.00781C12.3982 2.5936 12.734 2.25781 13.1482 2.25781H16.4717C18.1247 2.25781 19.5257 2.84742 20.5099 3.90216C21.4887 4.95115 22 6.4002 22 8.02847V15.9755C22 17.6027 21.4917 19.0521 20.514 20.1018C19.5306 21.1575 18.1292 21.7471 16.4717 21.7471H8.03806C6.38074 21.7471 4.97729 21.1577 3.99165 20.1026C3.01136 19.0533 2.5 17.6038 2.5 15.9755V12.9031C2.5 12.4889 2.83579 12.1531 3.25 12.1531C3.66421 12.1531 4 12.4889 4 12.9031V15.9755C4 17.2921 4.41025 18.3534 5.08777 19.0786C5.75995 19.7982 6.75053 20.2471 8.03806 20.2471H16.4717C17.759 20.2471 18.7468 19.7983 19.4163 19.0794C20.0915 18.3545 20.5 17.2931 20.5 15.9755V8.02847C20.5 6.71188 20.0897 5.6506 19.4131 4.92548C18.7419 4.20611 17.7537 3.75781 16.4717 3.75781H13.1482C12.734 3.75781 12.3982 3.42203 12.3982 3.00781Z" fill="black"/>
<path fill-rule="evenodd" clip-rule="evenodd" d="M6.31261 3.75781C5.03543 3.75781 4 4.79324 4 6.07042C4 7.3476 5.03543 8.38303 6.31261 8.38303C7.58979 8.38303 8.62522 7.3476 8.62522 6.07042C8.62522 4.79324 7.58979 3.75781 6.31261 3.75781ZM2.5 6.07042C2.5 3.96481 4.207 2.25781 6.31261 2.25781C8.41821 2.25781 10.1252 3.96481 10.1252 6.07042C10.1252 8.17603 8.41821 9.88303 6.31261 9.88303C4.207 9.88303 2.5 8.17603 2.5 6.07042Z" fill="black"/>
<path fill-rule="evenodd" clip-rule="evenodd" d="M7.86663 7.78267C8.15924 7.4895 8.63412 7.48905 8.92729 7.78167L10.4688 9.32027C10.762 9.61289 10.7624 10.0878 10.4698 10.3809C10.1772 10.6741 9.70233 10.6746 9.40916 10.3819L7.86763 8.84333C7.57446 8.55072 7.57401 8.07584 7.86663 7.78267Z" fill="black"/>
</svg>