<svg width="24" height="24" viewBox="0 0 24 24" fill="none" xmlns="http://www.w3.org/2000/svg">
<path fill-rule="evenodd" clip-rule="evenodd" d="M21 8.02465V15.9725C21 18.917 19.1572 20.9942 16.2126 20.9942H7.77763C4.83306 20.9942 3 18.917 3 15.9725V8.02465C3 5.08008 4.84279 3.00391 7.77763 3.00391H16.2126C19.1572 3.00391 21 5.08008 21 8.02465Z" stroke="black" stroke-width="1.5" stroke-linecap="round" stroke-linejoin="round"/>
<path d="M5.46875 16.3424L6.95854 14.7699C7.47491 14.2205 8.33941 14.1943 8.88787 14.7097C8.88885 14.7106 8.88885 14.7106 8.88982 14.7106L9.80295 15.6393C10.3436 16.1897 11.2286 16.1994 11.7799 15.6588C11.8159 15.6238 14.0555 12.9067 14.0555 12.9067C14.6331 12.2066 15.6697 12.1064 16.3709 12.684V12.684C16.4175 12.7229 18.5336 14.8944 18.5336 14.8944" stroke="black" stroke-width="1.5" stroke-linecap="round" stroke-linejoin="round"/>
<path fill-rule="evenodd" clip-rule="evenodd" d="M10.3752 9.23007C10.3752 10.1743 9.60986 10.9406 8.66464 10.9406C7.72039 10.9406 6.9541 10.1743 6.9541 9.23007C6.9541 8.28582 7.72039 7.51953 8.66464 7.51953C9.60986 7.51953 10.3752 8.28582 10.3752 9.23007Z" stroke="black" stroke-width="1.5" stroke-linecap="round" stroke-linejoin="round"/>
</svg>