<svg width="24" height="25" viewBox="0 0 24 25" fill="none" xmlns="http://www.w3.org/2000/svg">
<path fill-rule="evenodd" clip-rule="evenodd" d="M6.47058 15.6796C5.10084 14.9434 4.07247 15.8622 3.07029 16.7114C2.9993 16.7716 2.95952 16.8612 2.96538 16.9541C3.03446 18.0485 3.34603 19.0035 3.85674 19.7842C3.95299 19.9313 4.15702 19.9508 4.28789 19.8334L7.65652 16.8112C7.80518 16.6778 7.78449 16.4391 7.6136 16.3357C7.27653 16.1318 6.89043 15.9076 6.47058 15.6796Z" fill="black"/>
<path fill-rule="evenodd" clip-rule="evenodd" d="M16.6453 3.02734H10.3048C10.0451 3.02734 9.90105 3.34163 10.0488 3.55522C10.6089 4.36503 10.9443 5.33959 10.9443 6.39634C10.9443 7.10034 10.7983 7.77034 10.5373 8.38034L10.9203 8.76334C11.7033 9.54334 11.7053 10.8093 10.9243 11.5913C10.5343 11.9833 10.0213 12.1793 9.50834 12.1793C8.99834 12.1793 8.48634 11.9843 8.09634 11.5953L7.62934 11.1293C7.08234 11.3323 6.49834 11.4593 5.88134 11.4593C4.98782 11.4593 4.15272 11.2198 3.42492 10.8094C3.21181 10.6892 2.93134 10.8351 2.93134 11.0797V14.2462C2.93134 14.4949 3.21917 14.6386 3.43035 14.5072C4.39501 13.9073 5.66271 13.5404 7.18334 14.3603C7.87163 14.7323 8.47004 15.0952 8.91951 15.3801C9.0337 15.4525 9.18211 15.4407 9.28274 15.3504L12.0913 12.8303C13.8453 11.2903 16.3803 11.1723 18.2623 12.5383L21.4551 14.8565C21.6534 15.0005 21.9313 14.8589 21.9313 14.6138V8.54834C21.9313 5.24634 19.8073 3.02734 16.6453 3.02734Z" fill="black"/>
<path fill-rule="evenodd" clip-rule="evenodd" d="M13.0877 13.9521L5.39586 20.854C5.25149 20.9836 5.26617 21.2143 5.43396 21.3116C6.21706 21.7657 7.15421 22.0171 8.20973 22.0171H16.6457C19.579 22.0171 21.5954 20.0948 21.8747 17.1821C21.8846 17.0788 21.8375 16.978 21.7534 16.9171L17.3817 13.7521C16.0687 12.8001 14.3047 12.8841 13.0877 13.9521Z" fill="black"/>
<path fill-rule="evenodd" clip-rule="evenodd" d="M5.88166 4.08496C7.15666 4.08496 8.19466 5.12196 8.19466 6.39696C8.19466 7.67196 7.15666 8.70996 5.88166 8.70996C4.60666 8.70996 3.56866 7.67196 3.56866 6.39696C3.56866 5.12196 4.60666 4.08496 5.88166 4.08496ZM5.88166 10.21C6.62066 10.21 7.30566 9.98996 7.88966 9.62396L8.97966 10.71C9.12566 10.857 9.31766 10.93 9.50866 10.93C9.70066 10.93 9.89366 10.856 10.0397 10.71C10.3317 10.416 10.3317 9.94096 10.0377 9.64896L8.98366 8.59796C9.42766 7.97496 9.69466 7.21796 9.69466 6.39696C9.69466 4.29496 7.98466 2.58496 5.88166 2.58496C3.77866 2.58496 2.06866 4.29496 2.06866 6.39696C2.06866 8.49996 3.77866 10.21 5.88166 10.21Z" fill="black"/>
</svg>