<svg width="24" height="24" viewBox="0 0 24 24" fill="none" xmlns="http://www.w3.org/2000/svg">
<path d="M21.0001 9.21997C20.5901 9.21997 20.2501 8.87997 20.2501 8.46997V6.89001C20.2501 5.16001 18.8401 3.75 17.1101 3.75H15.8501C15.4401 3.75 15.1001 3.41 15.1001 3C15.1001 2.59 15.4401 2.25 15.8501 2.25H17.1101C19.6701 2.25 21.7501 4.33001 21.7501 6.89001V8.46997C21.7501 8.87997 21.4101 9.21997 21.0001 9.21997Z" fill="black"/>
<path d="M3 9.21997C2.59 9.21997 2.25 8.87997 2.25 8.46997V6.89001C2.25 4.33001 4.33001 2.25 6.89001 2.25H8.17999C8.58999 2.25 8.92999 2.59 8.92999 3C8.92999 3.41 8.58999 3.75 8.17999 3.75H6.89001C5.16001 3.75 3.75 5.16001 3.75 6.89001V8.46997C3.75 8.87997 3.41 9.21997 3 9.21997Z" fill="black"/>
<path d="M8.15002 21.7493H6.89001C4.33001 21.7493 2.25 19.6693 2.25 17.1093V15.5293C2.25 15.1193 2.59 14.7793 3 14.7793C3.41 14.7793 3.75 15.1193 3.75 15.5293V17.1093C3.75 18.8393 5.16001 20.2493 6.89001 20.2493H8.15002C8.56002 20.2493 8.90002 20.5893 8.90002 20.9993C8.90002 21.4093 8.56002 21.7493 8.15002 21.7493Z" fill="black"/>
<path d="M17.11 21.7493H15.8201C15.4101 21.7493 15.0701 21.4093 15.0701 20.9993C15.0701 20.5893 15.4101 20.2493 15.8201 20.2493H17.11C18.84 20.2493 20.2501 18.8393 20.2501 17.1093V15.5293C20.2501 15.1193 20.5901 14.7793 21.0001 14.7793C21.4101 14.7793 21.7501 15.1193 21.7501 15.5293V17.1093C21.7501 19.6693 19.67 21.7493 17.11 21.7493Z" fill="black"/>
<path d="M14.4301 17.9506H9.56006C7.49006 17.9506 6.05005 16.4505 6.05005 14.3005V9.71057C6.05005 7.56057 7.49006 6.06055 9.56006 6.06055H14.4401C15.4401 6.06055 16.3001 6.40058 16.9301 7.03058C17.5901 7.69058 17.9501 8.64057 17.9401 9.71057V14.3005C17.9401 16.4505 16.5001 17.9506 14.4301 17.9506ZM9.56006 7.55054C8.32006 7.55054 7.55005 8.38056 7.55005 9.70056V14.2905C7.55005 15.6205 8.32006 16.4406 9.56006 16.4406H14.4301C15.6701 16.4406 16.4401 15.6105 16.4401 14.2905V9.70056C16.4401 9.02056 16.24 8.46057 15.86 8.08057C15.51 7.73057 15.0201 7.55054 14.4301 7.55054H9.55005H9.56006Z" fill="black"/>
<path d="M7.11994 16.4908C6.99994 16.4908 6.87995 16.4608 6.75995 16.4008C6.39995 16.2008 6.25997 15.7508 6.45997 15.3808C6.57997 15.1508 7.72993 13.1308 9.29993 13.1308C9.94993 13.1308 10.3999 13.3008 10.7899 13.4508C11.1299 13.5808 11.4 13.6908 11.83 13.6908C12.03 13.6908 12.19 13.4608 12.52 12.9008C12.91 12.2308 13.44 11.3208 14.58 11.3008H14.6099C16.1099 11.3008 17.6 12.9808 17.77 13.1808C18.04 13.4908 17.9999 13.9708 17.6899 14.2408C17.3799 14.5108 16.8999 14.4808 16.6299 14.1608C16.1399 13.5908 15.1899 12.8008 14.6099 12.8008C14.3399 12.8008 14.16 13.0808 13.82 13.6508C13.44 14.3008 12.93 15.1808 11.84 15.1808C11.13 15.1808 10.65 14.9908 10.26 14.8408C9.93995 14.7208 9.68995 14.6208 9.31995 14.6208C8.84995 14.6208 8.12993 15.4708 7.79993 16.0908C7.65993 16.3408 7.40996 16.4808 7.13996 16.4808L7.11994 16.4908Z" fill="black"/>
<path d="M10.24 11.1992C10.7923 11.1992 11.24 10.7515 11.24 10.1992C11.24 9.64693 10.7923 9.19922 10.24 9.19922C9.68771 9.19922 9.23999 9.64693 9.23999 10.1992C9.23999 10.7515 9.68771 11.1992 10.24 11.1992Z" fill="black"/>
</svg>