<svg width="24" height="25" viewBox="0 0 24 25" fill="none" xmlns="http://www.w3.org/2000/svg">
<path opacity="0.4" fill-rule="evenodd" clip-rule="evenodd" d="M19.56 11.3475C15.58 11.3475 12.354 8.1215 12.354 4.1415C12.354 3.97207 12.3616 3.80475 12.375 3.63907C12.3997 3.33435 12.168 3.0625 11.8623 3.0625H7.787C4.624 3.0625 2.5 5.2815 2.5 8.5835V14.8443C2.5 15.0076 2.68524 15.1021 2.81746 15.0061L6.17 12.5735C8.052 11.2065 10.585 11.3255 12.334 12.8605L15.2056 15.4367C15.2726 15.4969 15.3714 15.5048 15.4473 15.4565C15.9032 15.1668 16.5252 14.7874 17.246 14.3965C18.8557 13.5271 20.1859 13.9928 21.1717 14.6539C21.3092 14.7461 21.5 14.6508 21.5 14.4852V11.7347C21.5 11.4036 21.1837 11.1644 20.8583 11.2255C20.4373 11.3044 20.0039 11.3475 19.56 11.3475Z" fill="black"/>
<path fill-rule="evenodd" clip-rule="evenodd" d="M16.3499 7.5146C16.4959 7.6606 16.6879 7.7346 16.8799 7.7346C17.0719 7.7346 17.2639 7.6606 17.4109 7.5146L18.7249 6.2006L20.0389 7.5146C20.1849 7.6606 20.3769 7.7346 20.5689 7.7346C20.7609 7.7346 20.9529 7.6606 21.0999 7.5146C21.3919 7.2216 21.3919 6.7466 21.0999 6.4536L19.7849 5.1406L21.0979 3.8286C21.3909 3.5356 21.3909 3.0606 21.0979 2.7676C20.8049 2.4746 20.3299 2.4746 20.0369 2.7676L18.7249 4.0796L17.4119 2.7676C17.1199 2.4746 16.6449 2.4746 16.3519 2.7676C16.0589 3.0606 16.0589 3.5356 16.3519 3.8286L17.6639 5.1406L16.3499 6.4536C16.0569 6.7466 16.0569 7.2216 16.3499 7.5146Z" fill="black"/>
<path fill-rule="evenodd" clip-rule="evenodd" d="M7.02034 13.7996L2.69434 16.9396L2.69108 16.9419C2.57737 17.0224 2.48212 17.1382 2.49733 17.2767C2.81146 20.136 4.81578 22.0166 7.71634 22.0166H16.1523C17.2168 22.0166 18.1608 21.7597 18.9474 21.2969C19.1139 21.1989 19.1278 20.9692 18.984 20.8401L11.3563 13.9966C10.1293 12.9196 8.34434 12.8376 7.02034 13.7996Z" fill="black"/>
<path fill-rule="evenodd" clip-rule="evenodd" d="M18.0301 15.7449C17.6055 15.9757 17.2105 16.2059 16.8685 16.4129C16.6975 16.5164 16.6767 16.7552 16.8254 16.8887L20.0858 19.8147C20.217 19.9324 20.4217 19.9125 20.5177 19.7646C21.0348 18.9677 21.3472 17.9911 21.4052 16.8716C21.4098 16.7843 21.3741 16.6998 21.3093 16.641C20.2567 15.6866 19.3255 15.0492 18.0301 15.7449Z" fill="black"/>
</svg>