<svg width="25" height="24" viewBox="0 0 25 24" fill="none" xmlns="http://www.w3.org/2000/svg">
<path fill-rule="evenodd" clip-rule="evenodd" d="M21.5 8.02465V15.9725C21.5 18.917 19.6572 20.9942 16.7126 20.9942H8.27763C5.33306 20.9942 3.5 18.917 3.5 15.9725V8.02465C3.5 5.08008 5.34279 3.00391 8.27763 3.00391H16.7126C19.6572 3.00391 21.5 5.08008 21.5 8.02465Z" stroke="black" stroke-width="1.5" stroke-linecap="round" stroke-linejoin="round"/>
<path opacity="0.4" d="M5.96875 16.3424L7.45854 14.7699C7.97491 14.2205 8.83941 14.1943 9.38787 14.7097C9.38885 14.7106 9.38885 14.7106 9.38982 14.7106L10.3029 15.6393C10.8436 16.1897 11.7286 16.1994 12.2799 15.6588C12.3159 15.6238 14.5555 12.9067 14.5555 12.9067C15.1331 12.2066 16.1697 12.1064 16.8709 12.684V12.684C16.9175 12.7229 19.0336 14.8944 19.0336 14.8944" stroke="black" stroke-width="1.5" stroke-linecap="round" stroke-linejoin="round"/>
<path opacity="0.4" fill-rule="evenodd" clip-rule="evenodd" d="M10.8752 9.23007C10.8752 10.1743 10.1099 10.9406 9.16464 10.9406C8.22039 10.9406 7.4541 10.1743 7.4541 9.23007C7.4541 8.28582 8.22039 7.51953 9.16464 7.51953C10.1099 7.51953 10.8752 8.28582 10.8752 9.23007Z" stroke="black" stroke-width="1.5" stroke-linecap="round" stroke-linejoin="round"/>
</svg>