<svg width="25" height="25" viewBox="0 0 25 25" fill="none" xmlns="http://www.w3.org/2000/svg">
<path fill-rule="evenodd" clip-rule="evenodd" d="M18.527 16.427C18.152 16.598 17.706 16.428 17.536 16.05C17.251 15.414 16.419 14.103 15.673 14.103C15.259 14.103 14.493 15.027 13.985 15.637C13.169 16.621 12.397 17.551 11.411 17.551C10.49 17.551 9.848 17.073 9.332 16.689C8.904 16.371 8.626 16.176 8.315 16.176C7.78 16.176 7.192 16.999 6.991 17.398C6.86 17.66 6.594 17.812 6.319 17.812C6.207 17.812 6.093 17.786 5.985 17.733C5.616 17.548 5.465 17.1 5.649 16.73C5.753 16.519 6.714 14.676 8.315 14.676C9.139 14.676 9.742 15.124 10.227 15.486C10.698 15.836 11.008 16.051 11.411 16.051C11.695 16.047 12.434 15.157 12.831 14.679C13.679 13.658 14.555 12.603 15.673 12.603C17.587 12.603 18.777 15.148 18.906 15.438C19.074 15.816 18.905 16.258 18.527 16.427ZM8.831 7.651C9.966 7.652 10.889 8.575 10.889 9.709C10.889 10.844 9.965 11.767 8.831 11.767C7.696 11.767 6.774 10.844 6.774 9.709C6.774 8.574 7.696 7.651 8.831 7.651ZM12.25 2.854C5.051 2.854 2.5 5.406 2.5 12.604C2.5 19.802 5.051 22.354 12.25 22.354C19.448 22.354 22 19.802 22 12.604C22 5.406 19.448 2.854 12.25 2.854Z" fill="black"/>
</svg>