<svg width="24" height="25" viewBox="0 0 24 25" fill="none" xmlns="http://www.w3.org/2000/svg">
<path fill-rule="evenodd" clip-rule="evenodd" d="M16.503 12.4778L15.513 12.5808C15.405 12.5918 15.297 12.5978 15.19 12.5978C14.411 12.5978 13.654 12.3048 13.075 11.7698C12.415 11.1598 12.051 10.2948 12.074 9.39681L12.103 8.40081C12.13 7.35781 12.539 6.35681 13.253 5.58681L14.9464 3.76186C15.1245 3.56988 14.9883 3.25781 14.7264 3.25781H7.29805C4.13605 3.25781 2.01105 5.47681 2.01105 8.77881V14.9014C2.01105 15.1465 2.28892 15.2882 2.48724 15.1443L5.70005 12.8128C7.58805 11.4408 10.132 11.5588 11.889 13.1008L14.7187 15.64C14.8193 15.7302 14.9677 15.742 15.0818 15.6697C15.5334 15.3836 16.1347 15.0186 16.826 14.6438C18.3124 13.8435 19.5576 14.1718 20.5162 14.7448C20.7278 14.8713 21.011 14.7271 21.011 14.4806V9.95311C21.011 9.68041 20.6766 9.54915 20.4911 9.74904L19.219 11.1198C18.51 11.8858 17.545 12.3688 16.503 12.4778Z" fill="black"/>
<path fill-rule="evenodd" clip-rule="evenodd" d="M6.58202 14.0265C5.44018 14.855 2.82168 16.7093 2.19203 17.1548C2.10618 17.2156 2.05827 17.3173 2.06846 17.4219C2.35148 20.3302 4.36756 22.2475 7.29802 22.2475H15.732C16.7864 22.2475 17.7217 21.9978 18.5037 21.5449C18.6715 21.4477 18.6862 21.2169 18.5419 21.0874L10.893 14.2225C9.67402 13.1525 7.89602 13.0685 6.58202 14.0265Z" fill="black"/>
<path fill-rule="evenodd" clip-rule="evenodd" d="M20.7969 16.8335C19.6979 15.8235 18.8789 15.2415 17.5389 15.9635C17.1162 16.1926 16.7273 16.419 16.388 16.6245C16.2171 16.728 16.1964 16.9667 16.3451 17.1002L19.6517 20.0673C19.7825 20.1847 19.9843 20.1643 20.077 20.015C20.58 19.2047 21.4188 17.411 20.7969 16.8335Z" fill="black"/>
<path fill-rule="evenodd" clip-rule="evenodd" d="M20.4444 5.0203L16.8354 8.9103C16.6604 9.0993 16.4224 9.2183 16.1654 9.2453L15.3274 9.3323L15.3514 8.4923C15.3584 8.2343 15.4594 7.9873 15.6354 7.7973L19.2454 3.9063C19.3074 3.8383 19.4134 3.8343 19.4814 3.8973L20.4354 4.7813C20.5044 4.8453 20.5074 4.9523 20.4444 5.0203ZM21.4554 3.6813L20.5014 2.7973C19.8304 2.1733 18.7714 2.2113 18.1454 2.8863L14.5364 6.7763C14.1114 7.2343 13.8684 7.8303 13.8514 8.4513L13.8234 9.4433C13.8134 9.8373 13.9734 10.2163 14.2624 10.4843C14.5164 10.7193 14.8484 10.8473 15.1904 10.8473C15.2374 10.8473 15.2854 10.8453 15.3324 10.8403L16.3204 10.7373C16.9404 10.6723 17.5134 10.3853 17.9354 9.9303L21.5444 6.0403C22.1704 5.3653 22.1304 4.3073 21.4554 3.6813Z" fill="black"/>
</svg>