<svg width="25" height="25" viewBox="0 0 25 25" fill="none" xmlns="http://www.w3.org/2000/svg">
<path opacity="0.4" fill-rule="evenodd" clip-rule="evenodd" d="M6.726 15.2301C7.911 14.6741 8.869 15.0181 9.796 15.3521C10.495 15.6041 11.219 15.8641 12.22 15.8641C12.998 15.8641 13.457 15.1771 14.12 14.0431C14.78 12.9161 15.601 11.5131 17.259 11.5131C19.563 11.5131 20.991 12.9661 21.959 14.0371C21.984 13.5791 22 13.1051 22 12.6041C22 5.40513 19.448 2.85413 12.25 2.85413C5.052 2.85413 2.5 5.40513 2.5 12.6041C2.5 15.2891 2.856 17.3271 3.676 18.8281C4.192 17.8111 5.314 15.8931 6.726 15.2301Z" fill="black"/>
<path fill-rule="evenodd" clip-rule="evenodd" d="M21.4818 15.7358C21.3348 15.5848 21.1788 15.4118 21.0118 15.2248C20.1278 14.2398 19.0268 13.0128 17.2588 13.0128C16.5148 13.0128 16.0658 13.6888 15.4158 14.8008C14.7468 15.9438 13.9158 17.3648 12.2198 17.3648C10.9568 17.3648 10.0318 17.0318 9.2878 16.7628C8.4118 16.4468 7.9598 16.3068 7.3648 16.5878C6.2328 17.1198 5.0968 19.2658 4.7548 20.0478C4.7348 20.0958 4.7038 20.1348 4.6748 20.1768C6.2118 21.7158 8.6498 22.3538 12.2508 22.3538C18.2098 22.3538 20.9778 20.5958 21.7568 15.9098C21.6558 15.8718 21.5618 15.8178 21.4818 15.7358Z" fill="black"/>
<path d="M11.3491 9.38807C11.3491 8.14207 10.3341 7.12708 9.08815 7.12708C7.84215 7.12708 6.82715 8.14207 6.82715 9.38807C6.82715 10.6341 7.84215 11.6481 9.08815 11.6481C10.3341 11.6481 11.3491 10.6341 11.3491 9.38807Z" fill="black"/>
</svg>