<svg width="24" height="25" viewBox="0 0 24 25" fill="none" xmlns="http://www.w3.org/2000/svg">
<path opacity="0.4" fill-rule="evenodd" clip-rule="evenodd" d="M10.5104 16.3719C10.6527 16.511 10.8897 16.4825 10.995 16.3136C13.2174 12.7474 16.9916 10.4431 21.2138 10.1306C21.3729 10.1188 21.4981 9.98752 21.4981 9.82795V8.32759C21.4981 5.02659 19.3731 2.80859 16.2121 2.80859H7.77908C4.62208 2.80859 2.50208 5.02659 2.50208 8.32759V12.386C2.50208 12.541 2.6202 12.6701 2.7742 12.6876C5.68813 13.0192 8.42189 14.3312 10.5104 16.3719Z" fill="black"/>
<path d="M11.3381 9.21071C11.3381 7.90942 10.2783 6.84961 8.97605 6.84961C7.67385 6.84961 6.61404 7.90942 6.61404 9.21071C6.61404 10.5138 7.67385 11.5736 8.97605 11.5736C10.2783 11.5736 11.3381 10.5138 11.3381 9.21071Z" fill="black"/>
<path d="M11.6234 18.272C11.1457 19.2819 10.8214 20.3528 10.6528 21.4579C10.6256 21.6361 10.7655 21.794 10.9457 21.794H16.2114C19.3734 21.794 21.4984 19.576 21.4984 16.274V11.9413C21.4984 11.7686 21.3528 11.6313 21.1808 11.6461C17.0554 12.0027 13.4253 14.4956 11.6234 18.272Z" fill="black"/>
<path d="M9.94595 17.954C10.0234 18.0395 10.0426 18.1623 9.99813 18.2688C9.58457 19.2576 9.18069 20.4132 9.1149 21.4943C9.10484 21.6596 8.97127 21.794 8.80559 21.794H7.77959C4.62259 21.794 2.50159 19.576 2.50159 16.274V14.504C2.50159 14.3259 2.65582 14.1868 2.83226 14.2104C5.56293 14.5759 8.09619 15.9119 9.94595 17.954Z" fill="black"/>
</svg>