<svg width="25" height="25" viewBox="0 0 25 25" fill="none" xmlns="http://www.w3.org/2000/svg">
<path fill-rule="evenodd" clip-rule="evenodd" d="M2.75 12.3961C2.75 19.3331 5.063 21.6461 12 21.6461C18.937 21.6461 21.25 19.3331 21.25 12.3961C21.25 5.45912 18.937 3.14612 12 3.14612C5.063 3.14612 2.75 5.45912 2.75 12.3961Z" stroke="black" stroke-width="1.5" stroke-linecap="round" stroke-linejoin="round"/>
<path opacity="0.4" fill-rule="evenodd" clip-rule="evenodd" d="M10.5987 9.18019C10.5987 10.1532 9.81066 10.9412 8.83766 10.9412C7.86566 10.9412 7.07666 10.1532 7.07666 9.18019C7.07666 8.20719 7.86566 7.41919 8.83766 7.41919C9.81066 7.41919 10.5987 8.20719 10.5987 9.18019Z" stroke="black" stroke-width="1.5" stroke-linecap="round" stroke-linejoin="round"/>
<path opacity="0.4" d="M21.1201 15.0626C20.2391 14.1566 18.9931 12.3256 16.7041 12.3256C14.4151 12.3256 14.3651 16.3636 12.0291 16.3636C9.69206 16.3636 8.75106 14.9926 7.22806 15.7086C5.70606 16.4236 4.46606 19.2696 4.46606 19.2696" stroke="black" stroke-width="1.5" stroke-linecap="round" stroke-linejoin="round"/>
</svg>