<svg width="24" height="24" viewBox="0 0 24 24" fill="none" xmlns="http://www.w3.org/2000/svg">
<path d="M12.0244 21.7511C10.5044 21.7511 8.9944 21.391 7.6344 20.711C7.5644 20.671 7.50441 20.6713 7.45441 20.6813C6.63441 20.8713 5.3344 21.1913 4.3844 21.4313C3.8844 21.5613 3.35443 21.4311 2.97443 21.0611C2.59443 20.6911 2.44444 20.1712 2.55444 19.6512C2.79444 18.6312 3.11441 17.2011 3.27441 16.4911C3.29441 16.4211 3.27445 16.3511 3.24445 16.3111C2.59445 14.9111 2.25439 13.4611 2.25439 12.0011C2.25439 9.10108 3.54443 6.36107 5.79443 4.49107C8.03443 2.63107 10.9744 1.88124 13.8544 2.42124C17.7444 3.15124 20.8444 6.25121 21.5744 10.1412C22.1144 13.0312 21.3644 15.971 19.4944 18.211C17.6244 20.461 14.8944 21.7511 11.9944 21.7511H12.0244ZM7.50439 19.1712C7.77439 19.1712 8.05439 19.2412 8.31439 19.3712C9.45439 19.9512 10.7444 20.2511 12.0244 20.2511C14.4744 20.2511 16.7945 19.1611 18.3745 17.2511C19.9445 15.3511 20.5844 12.8612 20.1245 10.4112C19.5044 7.13123 16.8844 4.50121 13.6044 3.89121C11.1644 3.43121 8.67441 4.07121 6.77441 5.64121C4.86441 7.22121 3.77441 9.54107 3.77441 11.9911C3.77441 13.2311 4.05445 14.4612 4.62445 15.6612C4.79445 16.0312 4.83439 16.4211 4.75439 16.8011C4.59439 17.5111 4.27442 18.941 4.03442 19.971C4.98442 19.721 6.29444 19.401 7.11444 19.211C7.24444 19.181 7.3744 19.1612 7.5144 19.1612L7.50439 19.1712Z" fill="black"/>
<path d="M16.6038 15.54C15.5338 15.54 14.6537 14.64 14.6537 13.54V12.4202C14.6537 11.3202 15.5238 10.4202 16.6038 10.4202C17.6838 10.4202 18.5538 11.3202 18.5538 12.4202V13.54C18.5538 14.64 17.6838 15.54 16.6038 15.54ZM16.6038 11.9202C16.3538 11.9202 16.1537 12.1402 16.1537 12.4202V13.54C16.1537 13.82 16.3538 14.04 16.6038 14.04C16.8538 14.04 17.0538 13.82 17.0538 13.54V12.4202C17.0538 12.1402 16.8538 11.9202 16.6038 11.9202ZM13.4938 15.54C13.0838 15.54 12.7438 15.2 12.7438 14.79V12.4202C12.7438 12.1402 12.5438 11.9202 12.2938 11.9202C12.0438 11.9202 11.8438 12.1402 11.8438 12.4202V14.79C11.8438 15.2 11.5037 15.54 11.0938 15.54C10.6838 15.54 10.3438 15.2 10.3438 14.79V12.4202C10.3438 12.1402 10.1437 11.9202 9.89374 11.9202C9.64374 11.9202 9.44373 12.1402 9.44373 12.4202V14.79C9.44373 15.2 9.10373 15.54 8.69373 15.54C8.28373 15.54 7.94373 15.2 7.94373 14.79V12.4202C7.94373 11.3202 8.81374 10.4202 9.89374 10.4202C10.3437 10.4202 10.7638 10.5801 11.0938 10.8401C11.4237 10.5801 11.8438 10.4202 12.2938 10.4202C13.3638 10.4202 14.2438 11.3202 14.2438 12.4202V14.79C14.2438 15.2 13.9038 15.54 13.4938 15.54ZM6.61377 15.54C6.20377 15.54 5.86377 15.2 5.86377 14.79V11.5C5.86377 11.09 6.20377 10.75 6.61377 10.75C7.02377 10.75 7.36377 11.09 7.36377 11.5V14.79C7.36377 15.2 7.02377 15.54 6.61377 15.54ZM6.61377 10.25C6.20377 10.25 5.86377 9.91 5.86377 9.5C5.86377 9.09 6.20377 8.75 6.61377 8.75C7.02377 8.75 7.36377 9.09 7.36377 9.5C7.36377 9.91 7.03377 10.25 6.61377 10.25Z" fill="black"/>
</svg>