<svg width="24" height="24" viewBox="0 0 24 24" fill="none" xmlns="http://www.w3.org/2000/svg">
<path d="M11.7446 18.3226C16.3796 17.9176 21.5471 14.1188 20.9546 6.07884C20.9546 6.07884 20.9272 5.94045 20.8555 5.87891C20.7959 5.82784 20.6883 5.79759 20.6883 5.79759C17.3358 5.10384 13.7958 7.29384 12.8133 8.22009C12.5444 8.47621 12.2479 8.79674 12.2546 9.19134C12.1346 11.6513 10.5671 13.4026 8.31707 13.6013C6.23207 13.7813 4.63832 12.4576 4.49582 10.8113C4.35332 9.16509 5.38082 8.50509 5.94332 8.45634C6.41207 8.41509 7.26707 8.53134 7.35332 9.51009C7.40207 10.0463 7.20332 10.1138 7.24832 10.6351C7.28286 10.8914 7.41741 11.1235 7.62258 11.2809C7.82774 11.4383 8.08686 11.5081 8.34332 11.4751C8.92832 11.4263 9.77582 10.8676 9.65207 9.46509C9.52832 8.06259 8.07332 6.91134 6.44207 7.05384C4.81082 7.19634 2.73332 8.61009 3.02582 11.9851C3.38207 16.0726 7.43957 18.6976 11.7446 18.3226Z" stroke="black" stroke-width="1.5" stroke-linecap="round" stroke-linejoin="round"/>
</svg>