<svg width="25" height="25" viewBox="0 0 25 25" fill="none" xmlns="http://www.w3.org/2000/svg">
<path fill-rule="evenodd" clip-rule="evenodd" d="M7.5889 12.4978C8.7699 12.4978 9.8279 13.1558 10.3529 14.2158C10.7219 14.9648 11.4669 15.4298 12.2989 15.4298C13.1299 15.4298 13.8759 14.9648 14.2459 14.2158C14.7699 13.1558 15.8289 12.4978 17.0089 12.4978H21.6009C21.7114 12.4978 21.8009 12.4082 21.8009 12.2978V8.40677C21.8009 5.09177 19.6779 2.86377 16.5189 2.86377H13.0509V8.56277L14.5259 7.13477C14.8229 6.84677 15.2969 6.85277 15.5869 7.15277C15.8749 7.44977 15.8669 7.92477 15.5689 8.21277L12.8219 10.8718C12.7629 10.9288 12.6939 10.9658 12.6239 10.9998C12.6119 11.0058 12.6029 11.0158 12.5909 11.0218C12.4979 11.0608 12.3999 11.0828 12.2999 11.0828C12.2009 11.0828 12.1029 11.0608 12.0099 11.0208C12.0059 11.0198 12.0029 11.0158 11.9989 11.0148C11.9199 10.9798 11.8439 10.9348 11.7779 10.8718L9.0319 8.21277C8.7349 7.92477 8.7269 7.44977 9.0159 7.15177C9.3039 6.85477 9.7779 6.84677 10.0759 7.13477L11.5509 8.56277V2.86377H8.0839C4.9239 2.86377 2.8009 5.09177 2.8009 8.40677V12.2978C2.8009 12.4082 2.89045 12.4978 3.0009 12.4978H7.5889Z" fill="black"/>
<path fill-rule="evenodd" clip-rule="evenodd" d="M17.0088 13.9978C16.4038 13.9978 15.8598 14.3358 15.5908 14.8808C14.9658 16.1448 13.7048 16.9298 12.2988 16.9298C10.8918 16.9298 9.63078 16.1438 9.00778 14.8798C8.73778 14.3358 8.19478 13.9978 7.58878 13.9978H3.00078C2.89032 13.9978 2.80078 14.0873 2.80078 14.1978V16.3808C2.80078 19.6968 4.92378 21.9248 8.08378 21.9248H16.5178C19.6778 21.9248 21.8008 19.6968 21.8008 16.3808V14.1978C21.8008 14.0873 21.7112 13.9978 21.6008 13.9978H17.0088Z" fill="black"/>
</svg>