<svg width="25" height="25" viewBox="0 0 25 25" fill="none" xmlns="http://www.w3.org/2000/svg">
<path d="M8.08294 3.14648H16.5176C19.4658 3.14648 21.3008 5.23471 21.3008 8.18986V16.164C21.3008 19.1191 19.4658 21.2074 16.5167 21.2074H8.08294C5.13484 21.2074 3.30078 19.1191 3.30078 16.164V8.18986C3.30078 5.23471 5.14359 3.14648 8.08294 3.14648Z" stroke="black" stroke-width="1.5" stroke-linecap="round" stroke-linejoin="round"/>
<path d="M21.293 13.3262H17.009C16.1217 13.3262 15.3122 13.8299 14.9181 14.6275C14.4404 15.5931 13.447 16.2579 12.2989 16.2579C11.1508 16.2579 10.1574 15.5931 9.67962 14.6275C9.28557 13.8299 8.47605 13.3262 7.5887 13.3262H3.30859" stroke="black" stroke-width="1.5" stroke-linecap="round" stroke-linejoin="round"/>
<path d="M10.123 8.84225L11.7197 10.4472L15.0093 7.14453" stroke="black" stroke-width="1.5" stroke-linecap="round" stroke-linejoin="round"/>
</svg>