<svg width="25" height="25" viewBox="0 0 25 25" fill="none" xmlns="http://www.w3.org/2000/svg">
<path d="M17.0186 3.14697C19.9667 3.14697 21.8008 5.2352 21.8008 8.19035V16.1645C21.8008 19.1196 19.9667 21.2079 17.0176 21.2079H8.58392C5.63581 21.2079 3.80078 19.1196 3.80078 16.1645V8.19035C3.80078 5.2352 5.64456 3.14697 8.58392 3.14697H13.5353" stroke="black" stroke-width="1.5" stroke-linecap="round" stroke-linejoin="round"/>
<path d="M21.795 12.625H17.511C16.6237 12.625 15.8141 13.1288 15.4201 13.9264C14.9424 14.8929 13.9489 15.5567 12.8008 15.5567C11.6527 15.5567 10.6593 14.8929 10.1816 13.9264C9.78754 13.1288 8.97803 12.625 8.09068 12.625H6.60889" stroke="black" stroke-width="1.5" stroke-linecap="round" stroke-linejoin="round"/>
</svg>