<svg width="25" height="25" viewBox="0 0 25 25" fill="none" xmlns="http://www.w3.org/2000/svg">
<path d="M8.58392 3.14648H17.0186C19.9667 3.14648 21.8008 5.23471 21.8008 8.18986V16.164C21.8008 19.1191 19.9667 21.2074 17.0176 21.2074H8.58392C5.63581 21.2074 3.80078 19.1191 3.80078 16.164V8.18986C3.80078 5.23471 5.64456 3.14648 8.58392 3.14648Z" stroke="black" stroke-width="1.5" stroke-linecap="round" stroke-linejoin="round"/>
<path opacity="0.4" d="M21.795 12.625H17.511C16.6236 12.625 15.8141 13.1288 15.4201 13.9264C14.9423 14.8929 13.9489 15.5567 12.8008 15.5567C11.6527 15.5567 10.6593 14.8929 10.1816 13.9264C9.78752 13.1288 8.97801 12.625 8.09066 12.625H3.81055" stroke="black" stroke-width="1.5" stroke-linecap="round" stroke-linejoin="round"/>
</svg>