<svg width="25" height="25" viewBox="0 0 25 25" fill="none" xmlns="http://www.w3.org/2000/svg">
<path d="M17.2911 3.81445C19.6624 4.18711 21.1099 6.09817 21.1099 8.67811V16.4848C21.1099 19.3801 19.31 21.4249 16.4245 21.4249H8.16802C5.28253 21.4249 3.49219 19.3801 3.49219 16.4848V8.67811C3.49219 6.08862 4.9397 4.17755 7.31095 3.81445" stroke="black" stroke-width="1.5" stroke-linecap="round" stroke-linejoin="round"/>
<path d="M9.55664 6.02157L12.3031 3.36328L15.0486 6.02157" stroke="black" stroke-width="1.5" stroke-linecap="round" stroke-linejoin="round"/>
<path d="M12.3008 3.36719V10.6034" stroke="black" stroke-width="1.5" stroke-linecap="round" stroke-linejoin="round"/>
<path d="M21.1025 13.707H16.9095C16.041 13.707 15.2486 14.2001 14.8629 14.9808C14.3954 15.9258 13.4231 16.5765 12.2993 16.5765C11.1756 16.5765 10.2033 15.9258 9.73572 14.9808C9.35003 14.2001 8.55771 13.707 7.68921 13.707H3.5" stroke="black" stroke-width="1.5" stroke-linecap="round" stroke-linejoin="round"/>
</svg>