<svg width="24" height="25" viewBox="0 0 24 25" fill="none" xmlns="http://www.w3.org/2000/svg">
<path fill-rule="evenodd" clip-rule="evenodd" d="M21.119 10.2765C20.612 10.1951 20.105 10.127 19.598 10.0612C19.4781 10.0456 19.3791 9.95964 19.3471 9.84304L18.133 5.42353C17.977 4.86153 17.588 4.39053 17.064 4.13253C16.539 3.87553 15.929 3.85353 15.39 4.07353L12.471 5.24353C12.219 5.34753 11.94 5.34453 11.686 5.24353L8.77199 4.07453C8.22899 3.85153 7.61799 3.87453 7.09499 4.13253C6.57099 4.39053 6.18099 4.86153 6.02499 5.42453L4.82079 9.81312C4.7888 9.92968 4.68999 10.0156 4.57016 10.0314C4.00531 10.1057 3.44135 10.1843 2.87899 10.2765C2.46999 10.3435 2.19299 10.7295 2.25999 11.1385C2.32099 11.5055 2.63899 11.7665 2.99899 11.7665C3.03999 11.7665 3.08099 11.7635 3.12199 11.7565C8.94199 10.7995 14.916 10.8005 20.882 11.7565C21.289 11.8225 21.675 11.5445 21.741 11.1355C21.806 10.7265 21.528 10.3415 21.119 10.2765Z" fill="black"/>
<path opacity="0.4" fill-rule="evenodd" clip-rule="evenodd" d="M16.7121 13.7188C15.1978 13.7188 13.9176 14.6888 13.431 16.0357C13.3757 16.1888 13.2171 16.2832 13.0571 16.2532C12.3695 16.124 11.6646 16.1273 10.9474 16.263C10.7878 16.2931 10.63 16.1983 10.5753 16.0454C10.0912 14.693 8.80783 13.7188 7.29011 13.7188C5.35811 13.7188 3.78711 15.2888 3.78711 17.2188C3.78711 19.1547 5.35811 20.7288 7.29011 20.7288C8.94226 20.7288 10.3256 19.5747 10.6922 18.0296C10.7184 17.9194 10.7985 17.8278 10.9082 17.7995C11.6713 17.6026 12.3944 17.5994 13.0994 17.7924C13.2063 17.8217 13.2834 17.9123 13.3087 18.0202C13.6718 19.5705 15.0564 20.7288 16.7121 20.7288C18.6441 20.7288 20.2151 19.1547 20.2151 17.2188C20.2151 15.2888 18.6441 13.7188 16.7121 13.7188Z" fill="black"/>
</svg>