<svg width="25" height="25" viewBox="0 0 25 25" fill="none" xmlns="http://www.w3.org/2000/svg">
<path d="M5.35129 15.1657C5.89889 14.5828 6.67662 14.2188 7.53968 14.2188C9.1986 14.2188 10.5432 15.5637 10.5432 17.2227C10.5432 18.8817 9.1986 20.2257 7.53968 20.2257C5.98081 20.2257 4.70031 19.039 4.55151 17.5192" stroke="black" stroke-width="1.5" stroke-linecap="round" stroke-linejoin="round"/>
<path d="M16.9616 20.2257C15.3037 20.2257 13.959 18.8817 13.959 17.2227C13.959 15.5637 15.3037 14.2188 16.9616 14.2188C18.6205 14.2188 19.9652 15.5637 19.9652 17.2227C19.9652 17.992 19.676 18.6936 19.2005 19.2248" stroke="black" stroke-width="1.5" stroke-linecap="round" stroke-linejoin="round"/>
<path d="M10.543 17.1854C11.733 16.7904 12.8713 16.7944 13.9581 17.1854" stroke="black" stroke-width="1.5" stroke-linecap="round" stroke-linejoin="round"/>
<path d="M3.25 11.0196C9.20557 10.0386 15.2059 10.0526 21.25 11.0196" stroke="black" stroke-width="1.5" stroke-linecap="round" stroke-linejoin="round"/>
<path d="M19.2246 10.3761L17.9013 5.56311C17.6552 4.66911 16.6861 4.18809 15.825 4.53509L12.908 5.70709" stroke="black" stroke-width="1.5" stroke-linecap="round" stroke-linejoin="round"/>
<path d="M5.43359 10.3761L6.75683 5.56311C7.00299 4.66911 7.97207 4.18809 8.83316 4.53509L10.2917 5.12109" stroke="black" stroke-width="1.5" stroke-linecap="round" stroke-linejoin="round"/>
</svg>