<svg width="25" height="24" viewBox="0 0 25 24" fill="none" xmlns="http://www.w3.org/2000/svg">
<path d="M16.681 20.8504H7.83198C7.15493 20.8565 6.48335 20.7287 5.85578 20.4746C5.22821 20.2204 4.65703 19.8449 4.17499 19.3694C3.62653 18.8025 3.19604 18.1323 2.90851 17.3978C2.62099 16.6633 2.48215 15.879 2.50001 15.0904V8.91338C2.45606 8.18123 2.56067 7.44776 2.80756 6.75709C3.05445 6.06642 3.43853 5.43283 3.93665 4.89445C4.43477 4.35606 5.03662 3.92401 5.70606 3.62429C6.3755 3.32457 7.09862 3.16337 7.83198 3.15039H16.668C17.4014 3.16337 18.1245 3.32457 18.794 3.62429C19.4634 3.92401 20.0652 4.35606 20.5634 4.89445C21.0615 5.43283 21.4456 6.06642 21.6924 6.75709C21.9393 7.44776 22.044 8.18123 22 8.91338V15.0904C22.0173 15.8783 21.8782 16.6619 21.5907 17.3957C21.3032 18.1295 20.873 18.799 20.325 19.3654C19.8481 19.8444 19.2797 20.2226 18.6538 20.4777C18.0278 20.7328 17.3569 20.8596 16.681 20.8504V20.8504ZM7.83002 19.3504H16.679C17.1582 19.3585 17.6342 19.2704 18.0787 19.0912C18.5233 18.9121 18.9274 18.6455 19.267 18.3074C19.6748 17.8791 19.9936 17.3744 20.2053 16.8222C20.4169 16.2701 20.5171 15.6815 20.5 15.0904V8.91338C20.5 6.44338 18.889 4.65039 16.668 4.65039H7.83198C5.61098 4.65039 4.00001 6.44338 4.00001 8.91338V15.0904C3.98348 15.6808 4.08393 16.2686 4.29554 16.8201C4.50715 17.3715 4.82572 17.8756 5.23298 18.3034C5.93275 18.9719 6.86226 19.3466 7.83002 19.3504Z" fill="black"/>
<path d="M13.2415 16.6318H6.94141C6.74249 16.6318 6.55172 16.5528 6.41107 16.4121C6.27042 16.2715 6.19141 16.0807 6.19141 15.8818C6.19141 15.6829 6.27042 15.4921 6.41107 15.3515C6.55172 15.2108 6.74249 15.1318 6.94141 15.1318H13.2415C13.4404 15.1318 13.6311 15.2108 13.7717 15.3515C13.9124 15.4921 13.9915 15.6829 13.9915 15.8818C13.9915 16.0807 13.9124 16.2715 13.7717 16.4121C13.6311 16.5528 13.4404 16.6318 13.2415 16.6318ZM9.64142 13.7578H6.94141C6.74249 13.7578 6.55172 13.6788 6.41107 13.5381C6.27042 13.3975 6.19141 13.2067 6.19141 13.0078C6.19141 12.8089 6.27042 12.6181 6.41107 12.4775C6.55172 12.3368 6.74249 12.2578 6.94141 12.2578H9.64142C9.84033 12.2578 10.0311 12.3368 10.1718 12.4775C10.3124 12.6181 10.3914 12.8089 10.3914 13.0078C10.3914 13.2067 10.3124 13.3975 10.1718 13.5381C10.0311 13.6788 9.84033 13.7578 9.64142 13.7578Z" fill="black"/>
<path d="M17.001 11.5669H14.516C14.1694 11.5667 13.8372 11.4289 13.5921 11.1838C13.347 10.9388 13.2092 10.6065 13.209 10.2599V8.22692C13.2092 7.88036 13.347 7.54808 13.5921 7.30302C13.8372 7.05797 14.1694 6.92019 14.516 6.91992H17.001C17.3476 6.92019 17.68 7.05794 17.9252 7.30296C18.1704 7.54799 18.3085 7.88027 18.309 8.22692V10.2599C18.3085 10.6066 18.1704 10.9389 17.9252 11.1839C17.68 11.4289 17.3476 11.5667 17.001 11.5669ZM14.709 10.0669H16.809V8.41992H14.709V10.0669Z" fill="black"/>
</svg>