<svg width="25" height="24" viewBox="0 0 25 24" fill="none" xmlns="http://www.w3.org/2000/svg">
<path fill-rule="evenodd" clip-rule="evenodd" d="M3.9902 3.89737C4.97468 2.84117 6.37669 2.25 8.03216 2.25H16.4669C18.1262 2.25 19.5288 2.84084 20.5129 3.89765C21.4913 4.94841 22 6.39889 22 8.02638V15.9736C22 17.6011 21.4913 19.0516 20.5127 20.1024C19.5285 21.1592 18.1256 21.75 16.4659 21.75H8.03216C6.3728 21.75 4.97038 21.1591 3.98657 20.1023C3.00842 19.0515 2.5 17.601 2.5 15.9736V8.02638C2.5 6.39806 3.01117 4.94771 3.9902 3.89737ZM5.08745 4.92012C4.41024 5.64666 4 6.70951 4 8.02638V15.9736C4 17.2914 4.40861 18.3541 5.08451 19.0802C5.75475 19.8003 6.74341 20.25 8.03216 20.25H16.4659C17.7552 20.25 18.7444 19.8002 19.415 19.0801C20.0912 18.354 20.5 17.2913 20.5 15.9736V8.02638C20.5 6.70868 20.0912 5.64597 19.4151 4.91984C18.7446 4.19975 17.7556 3.75 16.4669 3.75H8.03216C6.74828 3.75 5.75921 4.19943 5.08745 4.92012Z" fill="black"/>
<path fill-rule="evenodd" clip-rule="evenodd" d="M12.2441 7.54102C12.6584 7.54102 12.9941 7.8768 12.9941 8.29102V8.35426C12.9941 8.76847 12.6584 9.10426 12.2441 9.10426C11.8299 9.10426 11.4941 8.76847 11.4941 8.35426V8.29102C11.4941 7.8768 11.8299 7.54102 12.2441 7.54102ZM12.2441 11.2498C12.6584 11.2498 12.9941 11.5856 12.9941 11.9998V15.8917C12.9941 16.3059 12.6584 16.6417 12.2441 16.6417C11.8299 16.6417 11.4941 16.3059 11.4941 15.8917V11.9998C11.4941 11.5856 11.8299 11.2498 12.2441 11.2498Z" fill="black"/>
</svg>