<svg width="24" height="24" viewBox="0 0 24 24" fill="none" xmlns="http://www.w3.org/2000/svg">
<path d="M12 20.1004H16.4183C19.1552 20.1004 21 17.8499 21 15.0876V8.90635C21 6.14116 19.1552 3.89359 16.4183 3.90041H7.58173C4.84476 3.89359 3 6.14116 3 8.90635V15.0876C3 17.8499 4.84476 20.1004 7.58173 20.1004H8.72305" stroke="black" stroke-width="1.5" stroke-linecap="round" stroke-linejoin="round"/>
<path d="M6.69141 13.0078H9.39141M6.69141 15.8825H12.9914" stroke="black" stroke-width="1.5" stroke-linecap="round" stroke-linejoin="round"/>
<path d="M14.2665 10.8155C13.9581 10.8155 13.709 10.5655 13.709 10.258V8.22548C13.709 7.91705 13.9581 7.66797 14.2665 7.66797H16.7515C17.0589 7.66797 17.309 7.91705 17.309 8.22548V10.258C17.309 10.5655 17.0589 10.8155 16.7515 10.8155" stroke="black" stroke-width="1.5" stroke-linecap="round" stroke-linejoin="round"/>
</svg>