<svg width="25" height="25" viewBox="0 0 25 25" fill="none" xmlns="http://www.w3.org/2000/svg">
<path fill-rule="evenodd" clip-rule="evenodd" d="M6.24445 11.0195C5.28098 11.0195 4.5 11.8005 4.5 12.764C4.5 13.7283 5.28098 14.5093 6.24445 14.5093C7.20792 14.5093 7.9889 13.7283 7.9889 12.764C7.9889 11.8005 7.20792 11.0195 6.24445 11.0195Z" stroke="black" stroke-width="1.5"/>
<path fill-rule="evenodd" clip-rule="evenodd" d="M12.5003 11.0195C11.5368 11.0195 10.7559 11.8005 10.7559 12.764C10.7559 13.7283 11.5368 14.5093 12.5003 14.5093C13.4638 14.5093 14.2448 13.7283 14.2448 12.764C14.2448 11.8005 13.4638 11.0195 12.5003 11.0195Z" stroke="black" stroke-width="1.5"/>
<path fill-rule="evenodd" clip-rule="evenodd" d="M18.7562 11.0195C17.7927 11.0195 17.0117 11.8005 17.0117 12.764C17.0117 13.7283 17.7927 14.5093 18.7562 14.5093C19.7196 14.5093 20.5006 13.7283 20.5006 12.764C20.5006 11.8005 19.7196 11.0195 18.7562 11.0195Z" stroke="black" stroke-width="1.5"/>
</svg>