<svg width="25" height="25" viewBox="0 0 25 25" fill="none" xmlns="http://www.w3.org/2000/svg">
<path fill-rule="evenodd" clip-rule="evenodd" d="M4.2402 4.66299C5.22468 3.60679 6.62669 3.01562 8.28216 3.01562H16.7169C18.3762 3.01562 19.7788 3.60647 20.7629 4.66327C21.7413 5.71404 22.25 7.16451 22.25 8.792V16.7392C22.25 18.3667 21.7413 19.8172 20.7627 20.868C19.7785 21.9248 18.3757 22.5156 16.7159 22.5156H8.28216C6.62237 22.5156 5.2199 21.9248 4.23617 20.8679C3.25811 19.817 2.75 18.3665 2.75 16.7392V8.792C2.75 7.16368 3.26117 5.71334 4.2402 4.66299ZM5.33745 5.68575C4.66024 6.41229 4.25 7.47514 4.25 8.792V16.7392C4.25 18.0572 4.65843 19.1199 5.33418 19.8459C6.00426 20.5659 6.99287 21.0156 8.28216 21.0156H16.7159C18.0052 21.0156 18.9944 20.5658 19.665 19.8457C20.3412 19.1196 20.75 18.0569 20.75 16.7392V8.792C20.75 7.4743 20.3412 6.41159 19.6651 5.68546C18.9946 4.96537 18.0056 4.51562 16.7169 4.51562H8.28216C6.99828 4.51562 6.00921 4.96505 5.33745 5.68575Z" fill="black"/>
<path fill-rule="evenodd" clip-rule="evenodd" d="M15.3262 12.8076C15.3262 12.2496 15.7784 11.7969 16.3369 11.7969C16.8947 11.7969 17.3477 12.2491 17.3477 12.8076C17.3477 13.3662 16.8947 13.8184 16.3369 13.8184C15.7784 13.8184 15.3262 13.3656 15.3262 12.8076Z" fill="black"/>
<path fill-rule="evenodd" clip-rule="evenodd" d="M11.4258 12.8076C11.4258 12.2496 11.878 11.7969 12.4365 11.7969C12.9944 11.7969 13.4473 12.2491 13.4473 12.8076C13.4473 13.3662 12.9944 13.8184 12.4365 13.8184C11.878 13.8184 11.4258 13.3656 11.4258 12.8076Z" fill="black"/>
<path fill-rule="evenodd" clip-rule="evenodd" d="M7.52539 12.8076C7.52539 12.2496 7.97762 11.7969 8.53609 11.7969C9.09396 11.7969 9.54695 12.2491 9.54695 12.8076C9.54695 13.3662 9.09397 13.8184 8.53609 13.8184C7.97762 13.8184 7.52539 13.3656 7.52539 12.8076Z" fill="black"/>
</svg>