<svg width="25" height="25" viewBox="0 0 25 25" fill="none" xmlns="http://www.w3.org/2000/svg">
<path opacity="0.4" fill-rule="evenodd" clip-rule="evenodd" d="M12.25 2.78467C5.052 2.78467 2.5 5.33667 2.5 12.5347C2.5 19.7327 5.052 22.2847 12.25 22.2847C19.448 22.2847 22 19.7327 22 12.5347C22 5.33667 19.448 2.78467 12.25 2.78467Z" fill="black"/>
<path d="M12.2461 9.78467H12.2551C12.6691 9.78467 13.0011 9.44867 13.0011 9.03467C13.0011 8.62067 12.6601 8.28467 12.2461 8.28467C11.8321 8.28467 11.4961 8.62067 11.4961 9.03467C11.4961 9.44867 11.8321 9.78467 12.2461 9.78467Z" fill="black"/>
<path d="M12.2501 17.1797C12.6641 17.1797 13.0001 16.8437 13.0001 16.4297V12.5347C13.0001 12.1207 12.6641 11.7847 12.2501 11.7847C11.8361 11.7847 11.5001 12.1207 11.5001 12.5347V16.4297C11.5001 16.8437 11.8361 17.1797 12.2501 17.1797Z" fill="black"/>
</svg>