<svg width="25" height="25" viewBox="0 0 25 25" fill="none" xmlns="http://www.w3.org/2000/svg">
<path opacity="0.4" fill-rule="evenodd" clip-rule="evenodd" d="M16.7169 3.76562H8.28216C5.34281 3.76562 3.5 5.84681 3.5 8.792V16.7392C3.5 19.6844 5.33308 21.7656 8.28216 21.7656H16.7159C19.665 21.7656 21.5 19.6844 21.5 16.7392V8.792C21.5 5.84681 19.665 3.76562 16.7169 3.76562Z" stroke="black" stroke-width="1.5" stroke-linecap="round" stroke-linejoin="round"/>
<path d="M16.3385 12.7939V12.8579M16.5977 12.8076C16.5977 12.9517 16.4809 13.0684 16.3369 13.0684C16.1929 13.0684 16.0762 12.9517 16.0762 12.8076C16.0762 12.6636 16.1929 12.5469 16.3369 12.5469C16.4809 12.5469 16.5977 12.6636 16.5977 12.8076Z" stroke="black" stroke-width="1.5" stroke-linecap="round" stroke-linejoin="round"/>
<path d="M12.4381 12.7939V12.8579M12.6973 12.8076C12.6973 12.9517 12.5805 13.0684 12.4365 13.0684C12.2925 13.0684 12.1758 12.9517 12.1758 12.8076C12.1758 12.6636 12.2925 12.5469 12.4365 12.5469C12.5805 12.5469 12.6973 12.6636 12.6973 12.8076Z" stroke="black" stroke-width="1.5" stroke-linecap="round" stroke-linejoin="round"/>
<path d="M8.53768 12.7939V12.8579M8.79695 12.8076C8.79695 12.9517 8.68011 13.0684 8.53609 13.0684C8.39208 13.0684 8.27539 12.9517 8.27539 12.8076C8.27539 12.6636 8.39208 12.5469 8.53609 12.5469C8.68011 12.5469 8.79695 12.6636 8.79695 12.8076Z" stroke="black" stroke-width="1.5" stroke-linecap="round" stroke-linejoin="round"/>
</svg>