<svg width="25" height="24" viewBox="0 0 25 24" fill="none" xmlns="http://www.w3.org/2000/svg">
<path fill-rule="evenodd" clip-rule="evenodd" d="M12.25 3.75C7.69329 3.75 4 7.44329 4 12C4 16.5558 7.69335 20.25 12.25 20.25C16.8067 20.25 20.5 16.5558 20.5 12C20.5 7.44329 16.8067 3.75 12.25 3.75ZM2.5 12C2.5 6.61487 6.86487 2.25 12.25 2.25C17.6351 2.25 22 6.61487 22 12C22 17.3841 17.6352 21.75 12.25 21.75C6.86481 21.75 2.5 17.3841 2.5 12Z" fill="black"/>
<path fill-rule="evenodd" clip-rule="evenodd" d="M12.25 7.54102C12.6642 7.54102 13 7.8768 13 8.29102V8.35426C13 8.76847 12.6642 9.10426 12.25 9.10426C11.8358 9.10426 11.5 8.76847 11.5 8.35426V8.29102C11.5 7.8768 11.8358 7.54102 12.25 7.54102ZM12.2557 10.6436C12.6699 10.6436 13.0057 10.9794 13.0057 11.3936V15.6932C13.0057 16.1074 12.6699 16.4432 12.2557 16.4432C11.8415 16.4432 11.5057 16.1074 11.5057 15.6932V11.3936C11.5057 10.9794 11.8415 10.6436 12.2557 10.6436Z" fill="black"/>
</svg>