<svg width="25" height="24" viewBox="0 0 25 24" fill="none" xmlns="http://www.w3.org/2000/svg">
<path fill-rule="evenodd" clip-rule="evenodd" d="M9.51953 3C9.51953 2.58579 9.85532 2.25 10.2695 2.25H14.2325C14.6467 2.25 14.9825 2.58579 14.9825 3C14.9825 3.41421 14.6467 3.75 14.2325 3.75H10.2695C9.85532 3.75 9.51953 3.41421 9.51953 3ZM9.51953 21C9.51953 20.5858 9.85532 20.25 10.2695 20.25H14.2325C14.6467 20.25 14.9825 20.5858 14.9825 21C14.9825 21.4142 14.6467 21.75 14.2325 21.75H10.2695C9.85532 21.75 9.51953 21.4142 9.51953 21Z" fill="black"/>
<path fill-rule="evenodd" clip-rule="evenodd" d="M3.25 9.26758C3.66421 9.26758 4 9.60336 4 10.0176V13.9805C4 14.3947 3.66421 14.7305 3.25 14.7305C2.83579 14.7305 2.5 14.3947 2.5 13.9805V10.0176C2.5 9.60336 2.83579 9.26758 3.25 9.26758Z" fill="black"/>
<path fill-rule="evenodd" clip-rule="evenodd" d="M8.06894 2.9324C8.11711 3.34381 7.82264 3.71636 7.41123 3.76452C5.52555 3.98526 4.28927 5.27563 4.02021 7.19928C3.96283 7.6095 3.58377 7.89553 3.17355 7.83816C2.76333 7.78078 2.47729 7.40172 2.53467 6.9915C2.89026 4.4492 4.61764 2.5813 7.23683 2.27469C7.64823 2.22653 8.02078 2.521 8.06894 2.9324Z" fill="black"/>
<path fill-rule="evenodd" clip-rule="evenodd" d="M3.17355 16.1714C3.58377 16.114 3.96283 16.4 4.02021 16.8103C4.28896 18.7317 5.52345 20.0143 7.41123 20.2353C7.82264 20.2835 8.11711 20.656 8.06894 21.0674C8.02078 21.4788 7.64823 21.7733 7.23683 21.7251C4.61974 21.4188 2.89057 19.5626 2.53467 17.018C2.47729 16.6078 2.76333 16.2288 3.17355 16.1714Z" fill="black"/>
<path fill-rule="evenodd" clip-rule="evenodd" d="M21.249 9.26758C21.6632 9.26758 21.999 9.60336 21.999 10.0176V13.9805C21.999 14.3947 21.6632 14.7305 21.249 14.7305C20.8348 14.7305 20.499 14.3947 20.499 13.9805V10.0176C20.499 9.60336 20.8348 9.26758 21.249 9.26758Z" fill="black"/>
<path fill-rule="evenodd" clip-rule="evenodd" d="M21.2834 16.1724C21.6936 16.2297 21.9797 16.6088 21.9223 17.019C21.5667 19.5613 19.8491 21.4195 17.2299 21.7261C16.8184 21.7743 16.4459 21.4798 16.3977 21.0684C16.3496 20.657 16.644 20.2844 17.0554 20.2363C18.9411 20.0155 20.1677 18.7349 20.4367 16.8112C20.4941 16.401 20.8732 16.115 21.2834 16.1724Z" fill="black"/>
<path fill-rule="evenodd" clip-rule="evenodd" d="M16.3977 2.9324C16.4459 2.521 16.8184 2.22653 17.2299 2.27469C19.8512 2.58155 21.567 4.45147 21.9223 6.9915C21.9797 7.40172 21.6936 7.78078 21.2834 7.83816C20.8732 7.89553 20.4941 7.6095 20.4367 7.19928C20.1674 5.27336 18.939 3.98501 17.0554 3.76452C16.644 3.71636 16.3496 3.34381 16.3977 2.9324Z" fill="black"/>
<path fill-rule="evenodd" clip-rule="evenodd" d="M12.25 7.54883C12.6642 7.54883 13 7.88461 13 8.29883V8.3465C13 8.76072 12.6642 9.0965 12.25 9.0965C11.8358 9.0965 11.5 8.76072 11.5 8.3465V8.29883C11.5 7.88461 11.8358 7.54883 12.25 7.54883ZM12.25 10.6417C12.6642 10.6417 13 10.9775 13 11.3917V15.701C13 16.1152 12.6642 16.451 12.25 16.451C11.8358 16.451 11.5 16.1152 11.5 15.701V11.3917C11.5 10.9775 11.8358 10.6417 12.25 10.6417Z" fill="black"/>
</svg>