<svg width="24" height="24" viewBox="0 0 24 24" fill="none" xmlns="http://www.w3.org/2000/svg">
<path fill-rule="evenodd" clip-rule="evenodd" d="M3.7402 3.89737C4.72468 2.84117 6.12669 2.25 7.78216 2.25H16.2169C17.8762 2.25 19.2788 2.84084 20.2629 3.89765C21.2413 4.94841 21.75 6.39889 21.75 8.02638V15.9736C21.75 17.6011 21.2413 19.0516 20.2627 20.1024C19.2785 21.1592 17.8756 21.75 16.2159 21.75H7.78216C6.1228 21.75 4.72038 21.1591 3.73657 20.1023C2.75842 19.0515 2.25 17.601 2.25 15.9736V8.02638C2.25 6.39806 2.76117 4.94771 3.7402 3.89737ZM4.83745 4.92012C4.16024 5.64666 3.75 6.70951 3.75 8.02638V15.9736C3.75 17.2914 4.15861 18.3541 4.83451 19.0802C5.50475 19.8003 6.49341 20.25 7.78216 20.25H16.2159C17.5052 20.25 18.4944 19.8002 19.165 19.0801C19.8412 18.354 20.25 17.2913 20.25 15.9736V8.02638C20.25 6.70868 19.8412 5.64597 19.1651 4.91984C18.4946 4.19975 17.5056 3.75 16.2169 3.75H7.78216C6.49828 3.75 5.50921 4.19943 4.83745 4.92012Z" fill="black"/>
<path fill-rule="evenodd" clip-rule="evenodd" d="M11.8445 9.57812C10.3244 9.57812 9.0918 10.8108 9.0918 12.3308C9.0918 13.8509 10.3244 15.0835 11.8445 15.0835C13.3646 15.0835 14.5972 13.8509 14.5972 12.3308C14.5972 10.8108 13.3646 9.57812 11.8445 9.57812ZM7.5918 12.3308C7.5918 9.98234 9.49602 8.07812 11.8445 8.07812C14.193 8.07812 16.0972 9.98234 16.0972 12.3308C16.0972 14.6793 14.193 16.5835 11.8445 16.5835C9.49602 16.5835 7.5918 14.6793 7.5918 12.3308Z" fill="black"/>
<path fill-rule="evenodd" clip-rule="evenodd" d="M15.8291 7.37875C15.8291 6.80764 16.2928 6.34375 16.8641 6.34375C17.4387 6.34375 17.8981 6.811 17.8981 7.37875C17.8981 7.94997 17.4353 8.41275 16.8641 8.41275C16.2962 8.41275 15.8291 7.95332 15.8291 7.37875Z" fill="black"/>
</svg>