<svg width="24" height="24" viewBox="0 0 24 24" fill="none" xmlns="http://www.w3.org/2000/svg">
<path fill-rule="evenodd" clip-rule="evenodd" d="M3.7402 3.89737C4.72468 2.84117 6.12669 2.25 7.78216 2.25H16.2169C17.8762 2.25 19.2788 2.84084 20.2629 3.89765C21.2413 4.94841 21.75 6.39889 21.75 8.02638V15.9736C21.75 17.6011 21.2413 19.0516 20.2627 20.1024C19.2785 21.1592 17.8756 21.75 16.2159 21.75H7.78216C6.1228 21.75 4.72038 21.1591 3.73657 20.1023C2.75842 19.0515 2.25 17.601 2.25 15.9736V8.02638C2.25 6.39806 2.76117 4.94771 3.7402 3.89737ZM4.83745 4.92012C4.16024 5.64666 3.75 6.70951 3.75 8.02638V15.9736C3.75 17.2914 4.15861 18.3541 4.83451 19.0802C5.50475 19.8003 6.49341 20.25 7.78216 20.25H16.2159C17.5052 20.25 18.4944 19.8002 19.165 19.0801C19.8412 18.354 20.25 17.2913 20.25 15.9736V8.02638C20.25 6.70868 19.8412 5.64597 19.1651 4.91984C18.4946 4.19975 17.5056 3.75 16.2169 3.75H7.78216C6.49828 3.75 5.50921 4.19943 4.83745 4.92012Z" fill="black"/>
<path fill-rule="evenodd" clip-rule="evenodd" d="M12.0004 9.14844C10.4264 9.14844 9.15039 10.4244 9.15039 11.9984C9.15039 13.5724 10.4264 14.8484 12.0004 14.8484C13.5744 14.8484 14.8504 13.5724 14.8504 11.9984C14.8504 10.4244 13.5744 9.14844 12.0004 9.14844ZM7.65039 11.9984C7.65039 9.596 9.59795 7.64844 12.0004 7.64844C14.4028 7.64844 16.3504 9.596 16.3504 11.9984C16.3504 14.4009 14.4028 16.3484 12.0004 16.3484C9.59795 16.3484 7.65039 14.4009 7.65039 11.9984Z" fill="black"/>
<path fill-rule="evenodd" clip-rule="evenodd" d="M7.39892 2.25001C7.81313 2.24888 8.15216 2.58372 8.15616 2.99792L8.19278 6.79089C8.19678 7.20508 7.86424 7.54178 7.45003 7.54291C7.03581 7.54405 6.69679 7.2092 6.69279 6.79501L6.65617 3.00204C6.65217 2.58785 6.98471 2.25115 7.39892 2.25001Z" fill="black"/>
<path fill-rule="evenodd" clip-rule="evenodd" d="M11 2.25C11.4142 2.25 11.75 2.58579 11.75 3V5.8808C11.75 6.29502 11.4142 6.6308 11 6.6308C10.5858 6.6308 10.25 6.29502 10.25 5.8808V3C10.25 2.58579 10.5858 2.25 11 2.25Z" fill="black"/>
<path fill-rule="evenodd" clip-rule="evenodd" d="M14.3721 10.1094C14.3721 9.69516 14.7079 9.35938 15.1221 9.35938L21 9.35938C21.4142 9.35938 21.75 9.69516 21.75 10.1094C21.75 10.5236 21.4142 10.8594 21 10.8594L15.1221 10.8594C14.7079 10.8594 14.3721 10.5236 14.3721 10.1094Z" fill="black"/>
<path fill-rule="evenodd" clip-rule="evenodd" d="M2.25 10.1094C2.25 9.69516 2.58579 9.35938 3 9.35938H8.79932C9.21353 9.35938 9.54932 9.69516 9.54932 10.1094C9.54932 10.5236 9.21353 10.8594 8.79932 10.8594H3C2.58579 10.8594 2.25 10.5236 2.25 10.1094Z" fill="black"/>
<path fill-rule="evenodd" clip-rule="evenodd" d="M16.043 6.58606C16.043 6.05767 16.4712 5.62891 17.0001 5.62891C17.5283 5.62891 17.9573 6.05707 17.9573 6.58606C17.9573 7.11503 17.5283 7.54321 17.0001 7.54321C16.4712 7.54321 16.043 7.11443 16.043 6.58606Z" fill="black"/>
</svg>