<svg width="24" height="24" viewBox="0 0 24 24" fill="none" xmlns="http://www.w3.org/2000/svg">
<path opacity="0.4" d="M7.78216 3H16.2169C19.165 3 21 5.08119 21 8.02638V15.9736C21 18.9188 19.165 21 16.2159 21H7.78216C4.83405 21 3 18.9188 3 15.9736V8.02638C3 5.08119 4.84281 3 7.78216 3Z" stroke="black" stroke-width="1.5" stroke-linecap="round" stroke-linejoin="round"/>
<path d="M11.8445 8.82812C9.91023 8.82812 8.3418 10.3966 8.3418 12.3308C8.3418 14.2651 9.91023 15.8335 11.8445 15.8335C13.7788 15.8335 15.3472 14.2651 15.3472 12.3308C15.3472 10.3966 13.7788 8.82812 11.8445 8.82812Z" stroke="black" stroke-width="1.5" stroke-linecap="round" stroke-linejoin="round"/>
<path d="M16.8661 7.36374V7.43274V7.36374ZM17.1481 7.37875C17.1481 7.53575 17.0211 7.66275 16.8641 7.66275C16.7071 7.66275 16.5791 7.53575 16.5791 7.37875C16.5791 7.22175 16.7071 7.09375 16.8641 7.09375C17.0211 7.09375 17.1481 7.22175 17.1481 7.37875Z" stroke="black" stroke-width="1.5" stroke-linecap="round" stroke-linejoin="round"/>
</svg>