<svg width="24" height="24" viewBox="0 0 24 24" fill="none" xmlns="http://www.w3.org/2000/svg">
<path d="M10.7351 17.0016H12.1303C13.1266 17.0016 13.9312 16.2855 13.9312 15.2892C13.9312 14.4612 13.3708 13.7987 12.5681 13.5973C11.419 13.3093 10.2729 13.0835 9.07325 13.1118C7.17307 13.1585 5.84304 14.218 4.33691 15.226" stroke="black" stroke-width="1.5" stroke-linecap="round" stroke-linejoin="round"/>
<path d="M10.735 17.0286C11.4404 16.9254 12.1585 17.0295 12.8717 17.013C14.5247 16.9731 15.8197 15.5769 17.0777 14.6293C17.7208 14.1447 18.6199 14.2089 19.189 14.7801C19.8195 15.4135 19.8195 16.4399 19.189 17.0733C17.8298 18.4374 16.6292 19.7032 14.7884 20.4193C12.2324 21.4127 9.86134 20.9311 7.27328 20.4183C6.27211 20.2208 5.34975 20.2091 4.33594 20.2091" stroke="black" stroke-width="1.5" stroke-linecap="round" stroke-linejoin="round"/>
<path fill-rule="evenodd" clip-rule="evenodd" d="M14.8192 9.69781H13.0417C12.7624 9.69781 12.5347 9.47111 12.5347 9.1909V7.74704H11.0889C10.8087 7.74704 10.582 7.52034 10.582 7.24013V5.45768C10.582 5.17747 10.8087 4.95077 11.0889 4.95077H12.5347V3.50691C12.5347 3.22767 12.7624 3 13.0417 3H14.8192C15.0994 3 15.3261 3.22767 15.3261 3.50691V4.95077H16.772C17.0522 4.95077 17.2798 5.17747 17.2798 5.45768V7.24013C17.2798 7.52034 17.0522 7.74704 16.772 7.74704H15.3261V9.1909C15.3261 9.47111 15.0994 9.69781 14.8192 9.69781Z" stroke="black" stroke-width="1.5" stroke-linecap="round" stroke-linejoin="round"/>
</svg>