<svg width="24" height="24" viewBox="0 0 24 24" fill="none" xmlns="http://www.w3.org/2000/svg">
<path d="M7.78216 3H16.2169C19.165 3 21 5.08119 21 8.02638V15.9736C21 18.9188 19.165 21 16.2159 21H7.78216C4.83405 21 3 18.9188 3 15.9736V8.02638C3 5.08119 4.84281 3 7.78216 3Z" stroke="black" stroke-width="1.5" stroke-linecap="round" stroke-linejoin="round"/>
<path d="M8.43945 11.496C8.66226 9.57148 10.5343 8.10423 12.4588 8.33677C14.5439 8.58975 15.7134 10.5483 15.5441 12.5322H10.2959" stroke="black" stroke-width="1.5" stroke-linecap="round" stroke-linejoin="round"/>
<path d="M15.1343 15.1075C14.1818 15.6815 12.9636 15.8722 11.9546 15.486C10.8941 15.0812 10.1936 14.0936 10.2257 13.0068C10.249 12.1749 10.6937 11.3868 11.3932 10.8867" stroke="black" stroke-width="1.5" stroke-linecap="round" stroke-linejoin="round"/>
</svg>