<svg width="25" height="24" viewBox="0 0 25 24" fill="none" xmlns="http://www.w3.org/2000/svg">
<path fill-rule="evenodd" clip-rule="evenodd" d="M3.62339 8.6175C4.37219 7.81412 5.43393 7.37109 6.67103 7.37109H12.7065C13.9464 7.37109 15.0088 7.81377 15.7574 8.61778C16.5004 9.41574 16.8785 10.5087 16.8785 11.7173V17.4044C16.8785 18.613 16.5004 19.7059 15.7572 20.5039C15.0085 21.3079 13.9458 21.7505 12.7055 21.7505H6.67103C5.43106 21.7505 4.36887 21.3079 3.62047 20.5038C2.87773 19.7057 2.5 18.6128 2.5 17.4044V11.7173C2.5 10.5078 2.88004 9.41502 3.62339 8.6175ZM4.72067 9.64024C4.27916 10.1139 4 10.8192 4 11.7173V17.4044C4 18.3035 4.27806 19.0086 4.71848 19.4818C5.15323 19.9489 5.80156 20.2505 6.67103 20.2505H12.7055C13.5756 20.2505 14.2245 19.9488 14.6596 19.4816C15.1003 19.0084 15.3785 18.3033 15.3785 17.4044V11.7173C15.3785 10.8183 15.1003 10.1132 14.6596 9.63995C14.2246 9.17275 13.576 8.87109 12.7065 8.87109H6.67103C5.80549 8.87109 5.15672 9.1724 4.72067 9.64024Z" fill="black"/>
<path fill-rule="evenodd" clip-rule="evenodd" d="M13.488 7.64517C13.7509 7.9653 13.7045 8.43789 13.3843 8.70075L8.91347 12.3718C8.59334 12.6347 8.12074 12.5883 7.85789 12.2681C7.59503 11.948 7.64145 11.4754 7.96158 11.2126L12.4325 7.54148C12.7526 7.27862 13.2252 7.32505 13.488 7.64517ZM15.6055 9.51717C15.8683 9.83736 15.8218 10.3099 15.5016 10.5727L9.67823 15.352C9.35804 15.6148 8.88546 15.5683 8.62267 15.2481C8.35989 14.9279 8.40643 14.4553 8.72661 14.1926L14.55 9.41323C14.8701 9.15045 15.3427 9.19699 15.6055 9.51717ZM16.7131 12.2171C16.9756 12.5375 16.9287 13.0101 16.6083 13.2726L12.7202 16.4582C12.3998 16.7207 11.9273 16.6737 11.6648 16.3533C11.4023 16.0329 11.4492 15.5604 11.7696 15.2979L15.6577 12.1123C15.9781 11.8498 16.4506 11.8967 16.7131 12.2171Z" fill="black"/>
<path fill-rule="evenodd" clip-rule="evenodd" d="M8.74449 3.49641C9.49329 2.69303 10.555 2.25 11.7921 2.25H17.8276C19.0675 2.25 20.1299 2.69268 20.8785 3.49669C21.6215 4.29465 21.9996 5.3876 21.9996 6.59617V12.2833C21.9996 13.4919 21.6215 14.5848 20.8783 15.3828C20.1295 16.1868 19.0669 16.6295 17.8266 16.6295H11.7921C10.5522 16.6295 9.48997 16.1868 8.74156 15.3827C7.99883 14.5846 7.62109 13.4917 7.62109 12.2833V6.59617C7.62109 5.38673 8.00114 4.29393 8.74449 3.49641ZM9.84176 4.51914C9.40025 4.99283 9.12109 5.69811 9.12109 6.59617V12.2833C9.12109 13.1824 9.39916 13.8875 9.83957 14.3607C10.2743 14.8278 10.9227 15.1295 11.7921 15.1295H17.8266C18.6967 15.1295 19.3456 14.8277 19.7806 14.3605C20.2214 13.8873 20.4996 13.1822 20.4996 12.2833V6.59617C20.4996 5.69724 20.2214 4.99211 19.7807 4.51886C19.3457 4.05166 18.6971 3.75 17.8276 3.75H11.7921C10.9266 3.75 10.2778 4.05131 9.84176 4.51914Z" fill="black"/>
</svg>