<svg width="24" height="24" viewBox="0 0 24 24" fill="none" xmlns="http://www.w3.org/2000/svg">
<path d="M6.42103 8.12109H12.4565C14.5659 8.12109 15.8785 9.60977 15.8785 11.7173V17.4044C15.8785 19.5119 14.5659 21.0005 12.4555 21.0005H6.42103C4.31159 21.0005 3 19.5119 3 17.4044V11.7173C3 9.60977 4.3184 8.12109 6.42103 8.12109Z" stroke="black" stroke-width="1.5" stroke-linecap="round" stroke-linejoin="round"/>
<path d="M15.883 12.6924L11.9949 15.878M14.7757 9.99296L8.9524 14.7723M12.6584 8.12109L8.1875 11.7922" stroke="black" stroke-width="1.5" stroke-linecap="round" stroke-linejoin="round"/>
<path fill-rule="evenodd" clip-rule="evenodd" d="M17.5776 3H11.5421C9.43949 3 8.12109 4.48867 8.12109 6.59617V12.2833C8.12109 14.3908 9.43268 15.8795 11.5421 15.8795H17.5766C19.687 15.8795 20.9996 14.3908 20.9996 12.2833V6.59617C20.9996 4.48867 19.687 3 17.5776 3Z" stroke="black" stroke-width="1.5" stroke-linecap="round" stroke-linejoin="round"/>
</svg>