<svg width="24" height="24" viewBox="0 0 24 24" fill="none" xmlns="http://www.w3.org/2000/svg">
<path fill-rule="evenodd" clip-rule="evenodd" d="M3.7402 3.89737C4.72468 2.84117 6.12669 2.25 7.78216 2.25H16.2169C17.8762 2.25 19.2788 2.84084 20.2629 3.89765C21.2413 4.94841 21.75 6.39889 21.75 8.02638V15.9736C21.75 17.6011 21.2413 19.0516 20.2627 20.1024C19.2785 21.1592 17.8756 21.75 16.2159 21.75H7.78216C6.1228 21.75 4.72038 21.1591 3.73657 20.1023C2.75842 19.0515 2.25 17.601 2.25 15.9736V8.02638C2.25 6.39806 2.76117 4.94771 3.7402 3.89737ZM4.83745 4.92012C4.16024 5.64666 3.75 6.70951 3.75 8.02638V15.9736C3.75 17.2914 4.15861 18.3541 4.83451 19.0802C5.50475 19.8003 6.49341 20.25 7.78216 20.25H16.2159C17.5052 20.25 18.4944 19.8002 19.165 19.0801C19.8412 18.354 20.25 17.2913 20.25 15.9736V8.02638C20.25 6.70868 19.8412 5.64597 19.1651 4.91984C18.4946 4.19975 17.5056 3.75 16.2169 3.75H7.78216C6.49828 3.75 5.50921 4.19943 4.83745 4.92012Z" fill="black"/>
<path fill-rule="evenodd" clip-rule="evenodd" d="M12.3685 9.08129C10.8541 8.89852 9.35922 10.0735 9.18455 11.5823C9.13691 11.9937 8.76473 12.2887 8.35327 12.241C7.9418 12.1934 7.64686 11.8212 7.6945 11.4097C7.96543 9.06957 10.2143 7.31009 12.5488 7.59217L12.5492 7.59221C15.1377 7.90627 16.4856 10.3213 16.2915 12.596C16.2583 12.9841 15.9337 13.2822 15.5442 13.2822H10.296C9.88174 13.2822 9.54596 12.9464 9.54596 12.5322C9.54596 12.118 9.88174 11.7822 10.296 11.7822H14.7933C14.6569 10.3863 13.7323 9.24694 12.3689 9.08134" fill="black"/>
<path fill-rule="evenodd" clip-rule="evenodd" d="M12.0034 10.4505C12.2443 10.7875 12.1664 11.256 11.8294 11.4968C11.305 11.8717 10.9916 12.4493 10.9754 13.0279L10.9754 13.029C10.9535 13.7691 11.433 14.4841 12.2221 14.7853L12.2228 14.7855C12.9759 15.0738 13.9525 14.9441 14.7472 14.4651C15.102 14.2513 15.5629 14.3656 15.7767 14.7203C15.9905 15.0751 15.8762 15.536 15.5215 15.7498C14.4112 16.4189 12.9517 16.6706 11.6869 16.1865C10.3553 15.6782 9.43391 14.4184 9.47599 12.9853C9.476 12.9851 9.47601 12.9849 9.47601 12.9847L10.2257 13.0068L9.47598 12.9858C9.47598 12.9856 9.47599 12.9854 9.47599 12.9853C9.50663 11.9002 10.0825 10.9018 10.9571 10.2766C11.294 10.0357 11.7625 10.1136 12.0034 10.4505Z" fill="black"/>
</svg>