<svg width="25" height="24" viewBox="0 0 25 24" fill="none" xmlns="http://www.w3.org/2000/svg">
<path fill-rule="evenodd" clip-rule="evenodd" d="M12.2502 3.75C9.22217 3.75 6.76758 6.20459 6.76758 9.23261C6.76758 12.2606 9.22237 14.7152 12.2504 14.7152C15.2784 14.7152 17.7328 12.2607 17.7328 9.23261C17.7328 6.20459 15.2782 3.75 12.2502 3.75ZM5.26758 9.23261C5.26758 5.37616 8.39374 2.25 12.2502 2.25C16.1066 2.25 19.2328 5.37616 19.2328 9.23261C19.2328 13.089 16.1069 16.2152 12.2504 16.2152C8.39402 16.2152 5.26758 13.0891 5.26758 9.23261Z" fill="black"/>
<path fill-rule="evenodd" clip-rule="evenodd" d="M11.3121 5.0871C10.9307 6.11158 10.6797 7.57708 10.6797 9.23261C10.6797 10.8881 10.9308 12.3536 11.3122 13.3781C11.5039 13.8932 11.7142 14.2577 11.9098 14.4799C12.1064 14.7033 12.2233 14.7152 12.2499 14.7152C12.2766 14.7152 12.3934 14.7033 12.5901 14.4799C12.7857 14.2577 12.9961 13.8931 13.1879 13.378C13.5694 12.3536 13.8206 10.8881 13.8206 9.23261C13.8206 7.57715 13.5693 6.11169 13.1878 5.08723C12.996 4.57215 12.7856 4.20757 12.5899 3.98537C12.3932 3.76192 12.2763 3.75 12.2497 3.75C12.223 3.75 12.1062 3.76188 11.9096 3.98528C11.7141 4.20746 11.5038 4.57201 11.3121 5.0871ZM10.7836 2.99429C11.1421 2.58692 11.6356 2.25 12.2497 2.25C12.8637 2.25 13.3572 2.58688 13.7158 2.9942C14.0755 3.40275 14.3652 3.9509 14.5935 4.5637C15.052 5.79499 15.3206 7.44584 15.3206 9.23261C15.3206 11.0194 15.0521 12.6702 14.5936 13.9015C14.3654 14.5143 14.0757 15.0624 13.716 15.471C13.3575 15.8783 12.8639 16.2152 12.2499 16.2152C11.6359 16.2152 11.1423 15.8783 10.7838 15.471C10.4242 15.0624 10.1345 14.5142 9.90642 13.9014C9.44804 12.6702 9.17969 11.0193 9.17969 9.23261C9.17969 7.44591 9.44797 5.7951 9.90628 4.56383C10.1344 3.95105 10.424 3.40287 10.7836 2.99429Z" fill="black"/>
<path fill-rule="evenodd" clip-rule="evenodd" d="M5.26758 9.23242C5.26758 8.81821 5.60336 8.48242 6.01758 8.48242H18.4828C18.897 8.48242 19.2328 8.81821 19.2328 9.23242C19.2328 9.64664 18.897 9.98242 18.4828 9.98242H6.01758C5.60336 9.98242 5.26758 9.64664 5.26758 9.23242Z" fill="black"/>
<path fill-rule="evenodd" clip-rule="evenodd" d="M12.2489 18.5566C11.7817 18.5566 11.4023 18.936 11.4023 19.4032C11.4023 19.8705 11.7817 20.2498 12.2489 20.2498C12.7162 20.2498 13.0955 19.8705 13.0955 19.4032C13.0955 18.936 12.7162 18.5566 12.2489 18.5566ZM9.90234 19.4032C9.90234 18.1075 10.9532 17.0566 12.2489 17.0566C13.5446 17.0566 14.5955 18.1075 14.5955 19.4032C14.5955 20.6989 13.5446 21.7498 12.2489 21.7498C10.9532 21.7498 9.90234 20.6989 9.90234 19.4032Z" fill="black"/>
<path fill-rule="evenodd" clip-rule="evenodd" d="M5.30078 19.4033C5.30078 18.9891 5.63657 18.6533 6.05078 18.6533H10.6693C11.0835 18.6533 11.4193 18.9891 11.4193 19.4033C11.4193 19.8175 11.0835 20.1533 10.6693 20.1533H6.05078C5.63657 20.1533 5.30078 19.8175 5.30078 19.4033ZM13.0738 19.4033C13.0738 18.9891 13.4096 18.6533 13.8238 18.6533H18.452C18.8663 18.6533 19.202 18.9891 19.202 19.4033C19.202 19.8175 18.8663 20.1533 18.452 20.1533H13.8238C13.4096 20.1533 13.0738 19.8175 13.0738 19.4033Z" fill="black"/>
<path fill-rule="evenodd" clip-rule="evenodd" d="M12.25 14.7148C12.6642 14.7148 13 15.0506 13 15.4648V17.8018C13 18.216 12.6642 18.5518 12.25 18.5518C11.8358 18.5518 11.5 18.216 11.5 17.8018V15.4648C11.5 15.0506 11.8358 14.7148 12.25 14.7148Z" fill="black"/>
</svg>