<svg width="24" height="24" viewBox="0 0 24 24" fill="none" xmlns="http://www.w3.org/2000/svg">
<path fill-rule="evenodd" clip-rule="evenodd" d="M12 3.75C7.44337 3.75 3.75 7.44337 3.75 12C3.75 16.5566 7.44337 20.25 12 20.25C16.5566 20.25 20.25 16.5566 20.25 12C20.25 7.44337 16.5566 3.75 12 3.75ZM2.25 12C2.25 6.61494 6.61494 2.25 12 2.25C17.3851 2.25 21.75 6.61494 21.75 12C21.75 17.3851 17.3851 21.75 12 21.75C6.61494 21.75 2.25 17.3851 2.25 12Z" fill="black"/>
<path fill-rule="evenodd" clip-rule="evenodd" d="M11.806 9.08111C10.2916 8.89834 8.79672 10.0733 8.62205 11.5821C8.57441 11.9935 8.20223 12.2885 7.79077 12.2408C7.3793 12.1932 7.08436 11.821 7.132 11.4096C7.40293 9.06939 9.65185 7.30991 11.9863 7.59199L11.9867 7.59203C14.5752 7.90609 15.9231 10.3211 15.729 12.5958C15.6958 12.9839 15.3712 13.282 14.9817 13.282H9.73346C9.31924 13.282 8.98346 12.9462 8.98346 12.532C8.98346 12.1178 9.31924 11.782 9.73346 11.782H14.2308C14.0944 10.3861 13.1698 9.24676 11.8064 9.08116" fill="black"/>
<path fill-rule="evenodd" clip-rule="evenodd" d="M11.4409 10.4504C11.6818 10.7873 11.6039 11.2558 11.2669 11.4967C10.7425 11.8716 10.4291 12.4491 10.4129 13.0277L10.4129 13.0288C10.391 13.7689 10.8705 14.4839 11.6596 14.7851L11.6603 14.7853C12.4134 15.0737 13.39 14.9439 14.1847 14.4649C14.5395 14.2511 15.0004 14.3654 15.2142 14.7202C15.428 15.0749 15.3137 15.5359 14.959 15.7497C13.8487 16.4187 12.3892 16.6704 11.1244 16.1863C9.79275 15.678 8.87141 14.4182 8.91349 12.9851C8.9135 12.9849 8.91351 12.9847 8.91351 12.9845L9.66318 13.0066L8.91348 12.9856C8.91348 12.9854 8.91349 12.9852 8.91349 12.9851C8.94413 11.9 9.52001 10.9016 10.3946 10.2764C10.7315 10.0355 11.2 10.1134 11.4409 10.4504Z" fill="black"/>
</svg>