<svg width="25" height="24" viewBox="0 0 25 24" fill="none" xmlns="http://www.w3.org/2000/svg">
<path fill-rule="evenodd" clip-rule="evenodd" d="M3.25 12.7969C3.66421 12.7969 4 13.1327 4 13.5469V15.6339C4 16.0481 3.66421 16.3839 3.25 16.3839C2.83579 16.3839 2.5 16.0481 2.5 15.6339V13.5469C2.5 13.1327 2.83579 12.7969 3.25 12.7969Z" fill="black"/>
<path fill-rule="evenodd" clip-rule="evenodd" d="M6.87099 8.08541C6.88315 8.49944 6.55737 8.84494 6.14334 8.8571C5.49719 8.87609 5.00675 9.09342 4.66164 9.42053C4.31377 9.75026 4.06871 10.2345 3.99491 10.8602C3.94639 11.2716 3.57359 11.5658 3.16222 11.5172C2.75086 11.4687 2.45672 11.0959 2.50524 10.6846C2.61435 9.7594 2.99346 8.93497 3.62975 8.33187C4.2688 7.72614 5.12252 7.38645 6.09929 7.35775C6.51333 7.34559 6.85883 7.67137 6.87099 8.08541Z" fill="black"/>
<path fill-rule="evenodd" clip-rule="evenodd" d="M7.89648 21.002C7.89648 20.5877 8.23227 20.252 8.64648 20.252H10.7325C11.1468 20.252 11.4825 20.5877 11.4825 21.002C11.4825 21.4162 11.1468 21.752 10.7325 21.752H8.64648C8.23227 21.752 7.89648 21.4162 7.89648 21.002Z" fill="black"/>
<path fill-rule="evenodd" clip-rule="evenodd" d="M16.2169 17.5912C16.6283 17.6397 16.9224 18.0125 16.8739 18.4239C16.7648 19.349 16.3857 20.1734 15.7494 20.7765C15.1103 21.3823 14.2566 21.722 13.2798 21.7507C12.8658 21.7628 12.5203 21.437 12.5081 21.023C12.496 20.609 12.8218 20.2635 13.2358 20.2513C13.8819 20.2323 14.3724 20.015 14.7175 19.6879C15.0654 19.3581 15.3104 18.8739 15.3842 18.2482C15.4327 17.8368 15.8055 17.5427 16.2169 17.5912Z" fill="black"/>
<path fill-rule="evenodd" clip-rule="evenodd" d="M3.16222 17.5912C3.57359 17.5427 3.94639 17.8368 3.99491 18.2482C4.06871 18.8739 4.31377 19.3581 4.66164 19.6879C5.00675 20.015 5.49719 20.2323 6.14334 20.2513C6.55737 20.2635 6.88315 20.609 6.87099 21.023C6.85883 21.437 6.51333 21.7628 6.09929 21.7507C5.12252 21.722 4.2688 21.3823 3.62975 20.7765C2.99346 20.1734 2.61435 19.349 2.50524 18.4239C2.45672 18.0125 2.75086 17.6397 3.16222 17.5912Z" fill="black"/>
<path fill-rule="evenodd" clip-rule="evenodd" d="M21.25 7.61719C21.6642 7.61719 22 7.95297 22 8.36719V10.4532C22 10.8675 21.6642 11.2032 21.25 11.2032C20.8358 11.2032 20.5 10.8675 20.5 10.4532V8.36719C20.5 7.95297 20.8358 7.61719 21.25 7.61719Z" fill="black"/>
<path fill-rule="evenodd" clip-rule="evenodd" d="M21.338 12.4838C21.7494 12.5323 22.0435 12.9051 21.995 13.3164C21.8859 14.2416 21.5068 15.066 20.8705 15.6691C20.2314 16.2748 19.3777 16.6145 18.4009 16.6432C17.9869 16.6554 17.6414 16.3296 17.6292 15.9156C17.6171 15.5015 17.9429 15.156 18.3569 15.1439C19.003 15.1249 19.4935 14.9076 19.8386 14.5805C20.1865 14.2507 20.4315 13.7665 20.5053 13.1407C20.5538 12.7294 20.9266 12.4352 21.338 12.4838Z" fill="black"/>
<path fill-rule="evenodd" clip-rule="evenodd" d="M13.0176 3C13.0176 2.58579 13.3534 2.25 13.7676 2.25H15.8536C16.2678 2.25 16.6036 2.58579 16.6036 3C16.6036 3.41421 16.2678 3.75 15.8536 3.75H13.7676C13.3534 3.75 13.0176 3.41421 13.0176 3Z" fill="black"/>
<path fill-rule="evenodd" clip-rule="evenodd" d="M11.9921 2.97798C12.0042 3.39202 11.6785 3.73752 11.2644 3.74968C10.6183 3.76866 10.1278 3.986 9.78273 4.31311C9.43486 4.64284 9.18981 5.12706 9.116 5.75283C9.06749 6.16419 8.69468 6.45833 8.28332 6.40982C7.87196 6.3613 7.57781 5.98849 7.62633 5.57713C7.73544 4.65198 8.11455 3.82755 8.75084 3.22444C9.38989 2.61872 10.2436 2.27902 11.2204 2.25033C11.6344 2.23817 11.9799 2.56395 11.9921 2.97798Z" fill="black"/>
<path fill-rule="evenodd" clip-rule="evenodd" d="M17.6292 2.97798C17.6414 2.56395 17.9869 2.23817 18.4009 2.25033C19.3777 2.27902 20.2314 2.61872 20.8705 3.22444C21.5068 3.82755 21.8859 4.65198 21.995 5.57713C22.0435 5.98849 21.7494 6.3613 21.338 6.40982C20.9266 6.45833 20.5538 6.16419 20.5053 5.75283C20.4315 5.12706 20.1865 4.64284 19.8386 4.31311C19.4935 3.986 19.003 3.76866 18.3569 3.74968C17.9429 3.73752 17.6171 3.39202 17.6292 2.97798Z" fill="black"/>
<path fill-rule="evenodd" clip-rule="evenodd" d="M8.51022 8.34692C9.00932 7.81152 9.71054 7.52539 10.5044 7.52539H13.9954C14.7907 7.52539 15.4925 7.81115 15.9918 8.34712C16.4854 8.87708 16.7254 9.59106 16.7254 10.3556V13.6452C16.7254 14.4094 16.4854 15.1233 15.9919 15.6533C15.4927 16.1893 14.791 16.4754 13.9954 16.4754H10.5044C9.70886 16.4754 9.00724 16.1892 8.50831 15.6531C8.01506 15.123 7.77539 14.4092 7.77539 13.6452V10.3556C7.77539 9.5903 8.01656 8.87649 8.51022 8.34692ZM9.60743 9.36973C9.41563 9.57548 9.27539 9.90177 9.27539 10.3556V13.6452C9.27539 14.0995 9.41519 14.4257 9.60642 14.6312C9.79197 14.8306 10.0799 14.9754 10.5044 14.9754H13.9954C14.42 14.9754 14.7083 14.8306 14.8941 14.631C15.0856 14.4254 15.2254 14.0992 15.2254 13.6452V10.3556C15.2254 9.90102 15.0855 9.57489 14.8942 9.36953C14.7085 9.17017 14.4203 9.02539 13.9954 9.02539H10.5044C10.0821 9.02539 9.79379 9.16981 9.60743 9.36973Z" fill="black"/>
</svg>