<svg width="24" height="25" viewBox="0 0 24 25" fill="none" xmlns="http://www.w3.org/2000/svg">
<path fill-rule="evenodd" clip-rule="evenodd" d="M15.544 13.7888H11.011C11.093 14.4448 11.542 15.0348 12.225 15.2978C12.973 15.5798 13.942 15.4568 14.749 14.9758C15.103 14.7638 15.564 14.8778 15.777 15.2338C15.99 15.5898 15.875 16.0498 15.519 16.2628C14.769 16.7108 13.91 16.9428 13.084 16.9428C12.598 16.9428 12.124 16.8628 11.69 16.6988C10.323 16.1718 9.435 14.8858 9.477 13.4958C9.505 12.4428 10.059 11.4308 10.957 10.7878C11.293 10.5468 11.763 10.6258 12.003 10.9618C12.244 11.2988 12.166 11.7678 11.829 12.0088C11.713 12.0918 11.611 12.1878 11.516 12.2888H14.789C14.655 11.0118 13.848 9.76779 12.366 9.58279C11.644 9.49779 10.88 9.72279 10.269 10.2058C9.663 10.6848 9.267 11.3688 9.184 12.0848C9.136 12.4948 8.761 12.7898 8.353 12.7428C7.941 12.6948 7.646 12.3228 7.694 11.9108C7.823 10.8028 8.423 9.75179 9.34 9.02779C10.263 8.30179 11.435 7.96979 12.548 8.09379C14.902 8.38779 16.51 10.5398 16.291 13.1018C16.258 13.4908 15.934 13.7888 15.544 13.7888ZM16.217 3.00879H7.782C4.623 3.00879 2.5 5.23079 2.5 8.53879V16.4778C2.5 19.7858 4.623 22.0088 7.782 22.0088H16.216C19.377 22.0088 21.5 19.7858 21.5 16.4778V8.53879C21.5 5.23079 19.377 3.00879 16.217 3.00879Z" fill="black"/>
</svg>