<svg width="24" height="24" viewBox="0 0 24 24" fill="none" xmlns="http://www.w3.org/2000/svg">
<path d="M6.25878 4.10042C7.20032 3.7238 8.37372 4.41231 8.44081 5.43624C8.5738 6.4025 7.65933 7.29697 6.7013 7.19458C5.88098 7.14044 5.17835 6.40015 5.20071 5.57276C5.21366 4.92545 5.6456 4.31345 6.25878 4.10042Z" stroke="black" stroke-width="1.5" stroke-linecap="round" stroke-linejoin="round"/>
<path d="M18.4531 10.0453C17.7199 9.2003 16.4217 8.97197 15.4131 9.42039C14.335 9.87821 13.4971 10.7762 12.9274 11.7825C13.1087 10.9881 13.4594 9.39567 13.4594 9.39567H11.2905C11.2905 9.39567 10.4912 12.2039 9.90838 14.5336C9.54117 15.6517 8.81209 16.6027 7.61397 16.7168C7.30208 16.7557 6.63062 16.6568 6.5141 16.3296C6.41995 15.7706 6.59178 15.2162 6.7236 14.6784C7.29559 12.414 8.102 9.39567 8.102 9.39567H3.57552L3 11.5047H4.88427C4.88427 11.5047 4.07219 14.8213 3.66967 16.4808C3.39629 17.7267 3.46514 19.3651 4.8878 19.848C6.6329 20.4084 8.20805 19.3868 9.1224 17.932C8.95645 18.564 8.63751 19.8303 8.63751 19.8303L11.3127 19.8386C11.3127 19.8386 11.9435 17.345 12.472 15.2689C12.6779 14.4627 13.0687 13.5965 13.8596 13.2175C14.4527 12.9633 15.2472 12.961 15.7238 13.4506C16.1699 13.9261 16.1357 14.6499 15.9992 15.243C15.5758 16.8458 15.1045 18.1613 16.2694 19.3374C16.9967 20.0718 17.9176 20.1446 18.8556 19.815C20.0596 19.3502 20.6528 18.0838 21 16.9245C20.4954 18.6094 18.9416 18.6305 18.4467 17.4332C18.068 15.9293 19.0182 14.3382 19.1863 12.8511C19.2829 11.8766 19.1299 10.7986 18.4531 10.0453Z" stroke="black" stroke-width="1.5" stroke-linecap="round" stroke-linejoin="round"/>
</svg>