<svg width="24" height="24" viewBox="0 0 24 24" fill="none" xmlns="http://www.w3.org/2000/svg">
<path d="M18.3748 6.61751L18.3758 17.3815C18.3758 19.38 16.7558 21 14.7573 21H9.24251C7.245 21 5.625 19.38 5.625 17.3825L5.62402 6.61849C5.62402 4.62 7.24402 3 9.24154 3H14.7573C16.7548 3 18.3748 4.62 18.3748 6.61751Z" stroke="black" stroke-width="1.5" stroke-linecap="round" stroke-linejoin="round"/>
<path d="M5.63477 14.8623H18.3671" stroke="black" stroke-width="1.5" stroke-linecap="round" stroke-linejoin="round"/>
<path d="M12.0002 17.981V17.9328M12.0002 17.6797C11.862 17.6797 11.75 17.7917 11.75 17.9295C11.75 18.0677 11.862 18.1797 12.0002 18.1797C12.1385 18.1797 12.2505 18.0677 12.2505 17.9295C12.2505 17.7917 12.1385 17.6797 12.0002 17.6797Z" stroke="black" stroke-width="1.5" stroke-linecap="round" stroke-linejoin="round"/>
</svg>