<svg width="25" height="24" viewBox="0 0 25 24" fill="none" xmlns="http://www.w3.org/2000/svg">
<path d="M6.12451 12.0005L6.125 17.3825C6.125 19.38 7.745 21 9.74251 21H15.2573C17.2558 21 18.8758 19.38 18.8758 17.3815L18.8748 6.61751C18.8748 4.62 17.2548 3 15.2573 3H9.74154C7.74402 3 6.12402 4.62 6.12402 6.61849V8.66262" stroke="black" stroke-width="1.5" stroke-linecap="round" stroke-linejoin="round"/>
<path d="M6.13477 14.8623L16.3074 14.8623" stroke="black" stroke-width="1.5" stroke-linecap="round" stroke-linejoin="round"/>
<path d="M12.5002 17.981V17.9328M12.5002 17.6797C12.362 17.6797 12.25 17.7917 12.25 17.9295C12.25 18.0677 12.362 18.1797 12.5002 18.1797C12.6385 18.1797 12.7505 18.0677 12.7505 17.9295C12.7505 17.7917 12.6385 17.6797 12.5002 17.6797Z" stroke="black" stroke-width="1.5" stroke-linecap="round" stroke-linejoin="round"/>
</svg>