<svg width="25" height="25" viewBox="0 0 25 25" fill="none" xmlns="http://www.w3.org/2000/svg">
<path fill-rule="evenodd" clip-rule="evenodd" d="M10.7507 5.76562C10.7507 5.35141 11.0865 5.01562 11.5007 5.01562H17.5004C17.9146 5.01562 18.2504 5.35141 18.2504 5.76562C18.2504 6.17984 17.9146 6.51562 17.5004 6.51562H11.5007C11.0865 6.51562 10.7507 6.17984 10.7507 5.76562ZM6.75 19.7656C6.75 19.3514 7.08579 19.0156 7.5 19.0156H13.5005C13.9147 19.0156 14.2505 19.3514 14.2505 19.7656C14.2505 20.1798 13.9147 20.5156 13.5005 20.5156H7.5C7.08579 20.5156 6.75 20.1798 6.75 19.7656Z" fill="black"/>
<path fill-rule="evenodd" clip-rule="evenodd" d="M14.7056 5.04467C15.1039 5.15845 15.3345 5.57356 15.2207 5.97184L11.2211 19.9718C11.1073 20.3701 10.6922 20.6007 10.2939 20.487C9.89565 20.3732 9.66502 19.9581 9.7788 19.5598L13.7784 5.5598C13.8922 5.16152 14.3073 4.93089 14.7056 5.04467Z" fill="black"/>
</svg>