<svg width="24" height="24" viewBox="0 0 24 24" fill="none" xmlns="http://www.w3.org/2000/svg">
<path fill-rule="evenodd" clip-rule="evenodd" d="M20.4828 6.91302C20.5654 7.31892 20.3032 7.7149 19.8973 7.79745C18.3357 8.11508 16.7783 8.42853 15.2218 8.74179C13.3757 9.11337 11.5308 9.48468 9.68149 9.86241C9.27566 9.94531 8.87947 9.68351 8.79657 9.27768C8.71368 8.87184 8.97547 8.47565 9.3813 8.39276C11.2273 8.0157 13.0798 7.64284 14.9312 7.27021C16.4893 6.95661 18.0465 6.64317 19.5984 6.32755C20.0043 6.24499 20.4002 6.50712 20.4828 6.91302Z" fill="black"/>
<path fill-rule="evenodd" clip-rule="evenodd" d="M18.3856 2.28548C19.4669 2.06612 20.4862 2.88608 20.4873 3.99789C20.4898 6.52065 20.4952 12.3458 20.4952 15.6479C20.5152 16.3027 20.4556 17.0933 20.0633 17.805L20.0573 17.8159L20.0572 17.8158C19.64 18.544 18.9141 19.0485 18.1629 19.3214C17.412 19.5941 16.5426 19.6701 15.7675 19.4368C14.6433 19.1128 13.7986 18.0623 13.7239 16.8951L13.7238 16.8938C13.6599 15.8678 14.1738 14.8337 15.0489 14.2754C15.7095 13.8474 16.4542 13.7208 17.0905 13.655C17.3239 13.6309 17.5356 13.6146 17.7331 13.5994C18.1255 13.5693 18.4614 13.5435 18.7988 13.4688C18.8717 13.4509 18.9299 13.4338 18.9768 13.416C18.9832 13.4136 18.9891 13.4112 18.9946 13.409C18.9932 10.1473 18.9893 6.01732 18.9873 3.99938C18.9871 3.84369 18.8447 3.7229 18.6838 3.75554L10.4767 5.42048C10.3582 5.44451 10.2738 5.54824 10.2739 5.66832C10.2752 7.92511 10.2787 14.2931 10.2787 17.814C10.2987 18.4688 10.2391 19.2594 9.84677 19.9711L9.8408 19.9819L9.84071 19.9819C9.41483 20.7252 8.70245 21.2366 7.94572 21.509C7.19106 21.7806 6.33045 21.8377 5.55095 21.6029C4.42675 21.2789 3.58214 20.2284 3.50737 19.0612L3.50729 19.0599C3.44341 18.0339 3.95721 16.9999 4.8323 16.4415C5.49292 16.0135 6.23767 15.8868 6.87396 15.821C7.10741 15.7969 7.31914 15.7806 7.51655 15.7655C7.90903 15.7353 8.2449 15.7095 8.5823 15.6349C8.65524 15.617 8.71335 15.5998 8.76028 15.582C8.76679 15.5796 8.77282 15.5772 8.77839 15.5749C8.77747 12.0465 8.77493 7.50216 8.77385 5.6692C8.77336 4.83449 9.36126 4.11621 10.1785 3.95042L18.3856 2.28548ZM8.77869 17.1258C8.3654 17.2052 7.9093 17.2408 7.50696 17.2721C7.33504 17.2855 7.17294 17.2981 7.02819 17.3131C6.4431 17.3736 5.99624 17.4741 5.64637 17.7013L5.64055 17.7051L5.64053 17.7051C5.23216 17.9649 4.97406 18.4752 5.00435 18.966C5.03898 19.502 5.45197 20.0146 5.96894 20.1623L5.98051 20.1656L5.98048 20.1657C6.41381 20.2971 6.94429 20.2752 7.43771 20.0976C7.92852 19.921 8.3211 19.6132 8.53612 19.2415C8.73555 18.8762 8.79695 18.4046 8.77912 17.8498C8.77886 17.8418 8.77873 17.8337 8.77873 17.8257C8.77873 17.6033 8.77872 17.3694 8.77869 17.1258ZM18.9952 14.9597C18.5819 15.0392 18.1258 15.0747 17.7235 15.1061C17.5515 15.1194 17.3894 15.1321 17.2447 15.147C16.6596 15.2075 16.2127 15.3081 15.8629 15.5353L15.857 15.5391L15.857 15.539C15.4486 15.7989 15.1905 16.3093 15.2209 16.8001C15.2556 17.336 15.6685 17.8485 16.1854 17.9962L16.197 17.9995L16.197 17.9996C16.6045 18.1231 17.1394 18.0972 17.6507 17.9115C18.1609 17.7262 18.5552 17.4162 18.7527 17.0754C18.9521 16.7101 19.0135 16.2385 18.9956 15.6838C18.9954 15.6783 18.9953 15.6728 18.9953 15.6672C18.9952 15.6647 18.9952 15.6622 18.9952 15.6597C18.9952 15.4373 18.9952 15.2034 18.9952 14.9597Z" fill="black"/>
</svg>