<svg width="24" height="24" viewBox="0 0 24 24" fill="none" xmlns="http://www.w3.org/2000/svg">
<path fill-rule="evenodd" clip-rule="evenodd" d="M12 3.75C7.44329 3.75 3.75 7.44329 3.75 12C3.75 16.5567 7.44329 20.25 12 20.25C16.5567 20.25 20.25 16.5567 20.25 12C20.25 7.44329 16.5567 3.75 12 3.75ZM2.25 12C2.25 6.61487 6.61487 2.25 12 2.25C17.3851 2.25 21.75 6.61487 21.75 12C21.75 17.3851 17.3851 21.75 12 21.75C6.61487 21.75 2.25 17.3851 2.25 12Z" fill="black"/>
<path fill-rule="evenodd" clip-rule="evenodd" d="M16.4698 9.41693C16.5524 9.82283 16.2903 10.2188 15.8844 10.3014C15.0351 10.4741 14.1903 10.6441 13.3465 10.8139C12.3463 11.0152 11.3474 11.2163 10.3436 11.4213C9.93777 11.5042 9.54157 11.2424 9.45868 10.8366C9.37578 10.4308 9.63758 10.0346 10.0434 9.95167C11.0439 9.74731 12.0505 9.54472 13.0558 9.34237C13.9013 9.1722 14.7459 9.00219 15.5854 8.83146C15.9913 8.7489 16.3873 9.01102 16.4698 9.41693Z" fill="black"/>
<path fill-rule="evenodd" clip-rule="evenodd" d="M14.9279 6.39328C15.725 6.23158 16.4784 6.8363 16.4793 7.6581C16.4806 9.02509 16.4836 12.1801 16.4836 13.9722C16.4947 14.3501 16.4621 14.8497 16.2066 15.3131L16.2007 15.3239L16.2006 15.3239C15.9238 15.807 15.4545 16.1246 14.9925 16.2924C14.5307 16.4601 13.9832 16.5129 13.4791 16.3617C12.7311 16.1452 12.1749 15.4528 12.1251 14.6758L12.125 14.6745C12.0828 13.9959 12.4197 13.3155 13.0006 12.9442C13.4298 12.6666 13.9016 12.5919 14.2584 12.555C14.4096 12.5394 14.5348 12.5299 14.6447 12.5216C14.7724 12.5119 14.8795 12.5038 14.9831 12.4894C14.9823 10.8995 14.9806 9.01071 14.9795 7.91336L10.9396 8.73292C10.9404 10.0791 10.9422 13.3179 10.9422 15.1471C10.9533 15.5249 10.9207 16.0245 10.6652 16.4879L10.6593 16.4988L10.6592 16.4987C10.3798 16.9864 9.92054 17.3099 9.4498 17.4793C8.98106 17.648 8.43925 17.6871 7.93768 17.5366C7.18973 17.3201 6.63349 16.6277 6.58372 15.8507L6.58363 15.8493C6.54138 15.1708 6.87829 14.4904 7.45924 14.1191C7.88844 13.8414 8.3602 13.7668 8.71695 13.7299C8.86823 13.7143 8.99338 13.7048 9.10329 13.6964C9.23105 13.6868 9.33823 13.6786 9.44192 13.6642C9.44137 11.7954 9.44009 9.51258 9.43954 8.56515C9.43917 7.9489 9.87324 7.4187 10.4764 7.29634L14.9279 6.39328ZM9.44232 15.1729C9.3191 15.1855 9.19956 15.1948 9.09389 15.203C9.00893 15.2096 8.93294 15.2156 8.87119 15.2219C8.56576 15.2535 8.39183 15.302 8.27332 15.379L8.26749 15.3828L8.26748 15.3827C8.15322 15.4554 8.07205 15.612 8.08069 15.7554C8.09036 15.9013 8.2149 16.0558 8.35565 16.096L8.36721 16.0993L8.36718 16.0994C8.52268 16.1465 8.73434 16.1426 8.94179 16.068C9.14588 15.9945 9.2856 15.8751 9.35459 15.7583C9.41796 15.6397 9.45142 15.458 9.44257 15.1827C9.44246 15.1794 9.44239 15.1762 9.44232 15.1729ZM7.33192 15.8027H7.33192H7.33192ZM14.9837 13.998C14.8605 14.0106 14.741 14.0199 14.6353 14.0282C14.5503 14.0348 14.4743 14.0407 14.4126 14.0471C14.1072 14.0787 13.9332 14.1272 13.8147 14.2041L13.8089 14.2079L13.8089 14.2079C13.6946 14.2806 13.6134 14.4371 13.6221 14.5806C13.6318 14.7264 13.7563 14.8809 13.897 14.9211L13.9086 14.9244L13.9086 14.9245C14.0451 14.9659 14.2582 14.9632 14.4804 14.8825C14.7001 14.8027 14.8383 14.6802 14.8961 14.5832C14.9594 14.4646 14.9928 14.2829 14.984 14.0078C14.9839 14.0046 14.9838 14.0013 14.9837 13.998Z" fill="black"/>
</svg>