<svg width="24" height="24" viewBox="0 0 24 24" fill="none" xmlns="http://www.w3.org/2000/svg">
<path fill-rule="evenodd" clip-rule="evenodd" d="M3.7402 3.89737C4.72468 2.84117 6.12669 2.25 7.78216 2.25H16.2169C17.8762 2.25 19.2788 2.84084 20.2629 3.89765C21.2413 4.94841 21.75 6.39889 21.75 8.02638V15.9736C21.75 17.6011 21.2413 19.0516 20.2627 20.1024C19.2785 21.1592 17.8756 21.75 16.2159 21.75H7.78216C6.1228 21.75 4.72038 21.1591 3.73657 20.1023C2.75842 19.0515 2.25 17.601 2.25 15.9736V8.02638C2.25 6.39806 2.76117 4.94771 3.7402 3.89737ZM4.83745 4.92012C4.16024 5.64666 3.75 6.70951 3.75 8.02638V15.9736C3.75 17.2914 4.15861 18.3541 4.83451 19.0802C5.50475 19.8003 6.49341 20.25 7.78216 20.25H16.2159C17.5052 20.25 18.4944 19.8002 19.165 19.0801C19.8412 18.354 20.25 17.2913 20.25 15.9736V8.02638C20.25 6.70868 19.8412 5.64597 19.1651 4.91984C18.4946 4.19975 17.5056 3.75 16.2169 3.75H7.78216C6.49828 3.75 5.50921 4.19943 4.83745 4.92012Z" fill="black"/>
<path fill-rule="evenodd" clip-rule="evenodd" d="M16.6799 9.26849C16.7625 9.67439 16.5004 10.0704 16.0945 10.1529C15.203 10.3342 14.3162 10.5127 13.4302 10.691C12.38 10.9024 11.331 11.1135 10.2772 11.3288C9.87136 11.4117 9.47517 11.1499 9.39227 10.7441C9.30938 10.3382 9.57117 9.94203 9.97701 9.85913C11.0275 9.64456 12.0841 9.43189 13.1395 9.21947C14.0271 9.04081 14.9139 8.86232 15.7955 8.68302C16.2014 8.60046 16.5974 8.86259 16.6799 9.26849Z" fill="black"/>
<path fill-rule="evenodd" clip-rule="evenodd" d="M15.1045 6.15165C15.9184 5.98654 16.6876 6.60399 16.6884 7.44294C16.6899 8.87829 16.693 12.1912 16.693 14.0727C16.7046 14.4669 16.6704 14.9837 16.4069 15.4618L16.4009 15.4726L16.4008 15.4726C16.1157 15.9702 15.6312 16.2989 15.1521 16.4729C14.6732 16.6469 14.1066 16.701 13.5865 16.5449C12.8163 16.3221 12.243 15.6085 12.1918 14.8084L12.1917 14.8071C12.1482 14.1079 12.4955 13.4066 13.0939 13.0243C13.5368 12.7377 14.0247 12.66 14.398 12.6214C14.554 12.6053 14.6843 12.5954 14.7995 12.5867C14.9481 12.5754 15.0716 12.566 15.1925 12.5476C15.1916 10.8495 15.1898 8.81723 15.1887 7.66513L10.8724 8.54076C10.8732 9.93521 10.875 13.3718 10.875 15.3062C10.8867 15.7003 10.8525 16.2172 10.5889 16.6953L10.583 16.7061L10.5829 16.7061C10.2948 17.2088 9.8206 17.5435 9.33294 17.719C8.84727 17.8938 8.28656 17.9339 7.76853 17.7784C6.99836 17.5555 6.42511 16.8419 6.37386 16.0419L6.37378 16.0406C6.33024 15.3414 6.67764 14.6401 7.27602 14.2578C7.7189 13.9712 8.20678 13.8935 8.58005 13.8549C8.73603 13.8388 8.86635 13.8289 8.98155 13.8202C9.13027 13.8089 9.25379 13.7995 9.37478 13.7811C9.37421 11.8131 9.37285 9.39538 9.37227 8.3952C9.3719 7.76602 9.81506 7.2247 10.4309 7.09977L15.1045 6.15165ZM9.37504 15.2911C9.23316 15.3064 9.09431 15.3172 8.97212 15.3267C8.88195 15.3338 8.80085 15.3401 8.73428 15.347C8.41232 15.3802 8.22224 15.4318 8.09004 15.5177L8.08422 15.5215L8.0842 15.5214C7.95255 15.6052 7.86091 15.7826 7.87084 15.9467C7.88198 16.1156 8.02358 16.2912 8.18659 16.3378L8.19815 16.3411L8.19812 16.3412C8.37005 16.3933 8.60057 16.3884 8.82493 16.3076C9.04605 16.228 9.2007 16.0974 9.27828 15.9657C9.34965 15.8326 9.38482 15.6338 9.37543 15.3418C9.37517 15.3338 9.37504 15.3257 9.37504 15.3177C9.37504 15.3089 9.37504 15.3 9.37504 15.2911ZM15.193 14.0577C15.0511 14.0729 14.9122 14.0837 14.79 14.0933C14.6999 14.1003 14.6188 14.1066 14.5522 14.1135C14.2302 14.1468 14.0402 14.1983 13.908 14.2842L13.9021 14.288L13.9021 14.2879C13.7705 14.3717 13.6788 14.5492 13.6888 14.7132C13.6999 14.8821 13.8415 15.0577 14.0045 15.1043L14.0161 15.1076L14.016 15.1077C14.1686 15.154 14.4007 15.1499 14.64 15.063C14.8771 14.9769 15.0303 14.8433 15.0963 14.7319C15.1676 14.5989 15.2027 14.4001 15.1934 14.1083C15.1931 14.1003 15.193 14.0922 15.193 14.0842C15.193 14.0754 15.193 14.0665 15.193 14.0577Z" fill="black"/>
</svg>