<svg width="24" height="24" viewBox="0 0 24 24" fill="none" xmlns="http://www.w3.org/2000/svg">
<path fill-rule="evenodd" clip-rule="evenodd" d="M12 15.9883C12.4142 15.9883 12.75 16.3241 12.75 16.7383V17.6856C12.75 18.0999 12.4142 18.4356 12 18.4356C11.5858 18.4356 11.25 18.0999 11.25 17.6856V16.7383C11.25 16.3241 11.5858 15.9883 12 15.9883Z" fill="black"/>
<path fill-rule="evenodd" clip-rule="evenodd" d="M12 5.56641C12.4142 5.56641 12.75 5.90219 12.75 6.31641V9.6322C12.75 10.0464 12.4142 10.3822 12 10.3822C11.5858 10.3822 11.25 10.0464 11.25 9.6322V6.31641C11.25 5.90219 11.5858 5.56641 12 5.56641Z" fill="black"/>
<path fill-rule="evenodd" clip-rule="evenodd" d="M8.21839 6.79624C8.5535 6.55278 9.02253 6.62706 9.266 6.96217L9.82284 7.7286C10.0663 8.0637 9.99202 8.53273 9.65692 8.7762C9.32181 9.01967 8.85278 8.94538 8.60931 8.61028L8.05247 7.84385C7.809 7.50874 7.88329 7.03971 8.21839 6.79624Z" fill="black"/>
<path fill-rule="evenodd" clip-rule="evenodd" d="M12.9518 13.3074C13.2869 13.0639 13.7559 13.1382 13.9994 13.4733L15.9484 16.1558C16.1918 16.4909 16.1175 16.9599 15.7824 17.2034C15.4473 17.4469 14.9783 17.3726 14.7348 17.0375L12.7859 14.355C12.5424 14.0198 12.6167 13.5508 12.9518 13.3074Z" fill="black"/>
<path fill-rule="evenodd" clip-rule="evenodd" d="M8.20873 13.2323C8.33673 13.6262 8.12114 14.0494 7.7272 14.1774L6.82621 14.4701C6.43227 14.5981 6.00915 14.3825 5.88115 13.9886C5.75315 13.5947 5.96873 13.1715 6.36267 13.0435L7.26367 12.7508C7.65761 12.6228 8.08073 12.8384 8.20873 13.2323Z" fill="black"/>
<path fill-rule="evenodd" clip-rule="evenodd" d="M18.1199 10.0104C18.2479 10.4043 18.0323 10.8274 17.6384 10.9554L14.4849 11.9801C14.091 12.1081 13.6678 11.8925 13.5398 11.4985C13.4118 11.1046 13.6274 10.6815 14.0214 10.5535L17.1749 9.52885C17.5688 9.40085 17.9919 9.61644 18.1199 10.0104Z" fill="black"/>
<path fill-rule="evenodd" clip-rule="evenodd" d="M15.7913 13.2323C15.9193 12.8384 16.3424 12.6228 16.7364 12.7508L17.6374 13.0435C18.0313 13.1715 18.2469 13.5946 18.1189 13.9886C17.9909 14.3825 17.5678 14.5981 17.1738 14.4701L16.2728 14.1774C15.8789 14.0494 15.6633 13.6263 15.7913 13.2323Z" fill="black"/>
<path fill-rule="evenodd" clip-rule="evenodd" d="M5.88066 10.0104C6.00866 9.61644 6.43177 9.40085 6.82572 9.52885L9.97922 10.5535C10.3732 10.6815 10.5887 11.1046 10.4608 11.4985C10.3328 11.8925 9.90964 12.1081 9.5157 11.9801L6.36219 10.9554C5.96825 10.8274 5.75266 10.4043 5.88066 10.0104Z" fill="black"/>
<path fill-rule="evenodd" clip-rule="evenodd" d="M15.7819 6.79625C16.117 7.03971 16.1913 7.50874 15.9478 7.84385L15.391 8.61029C15.1475 8.94539 14.6785 9.01968 14.3434 8.77621C14.0083 8.53274 13.934 8.06371 14.1775 7.72861L14.7343 6.96217C14.9778 6.62706 15.4468 6.55278 15.7819 6.79625Z" fill="black"/>
<path fill-rule="evenodd" clip-rule="evenodd" d="M11.049 13.3074C11.3841 13.5508 11.4584 14.0198 11.215 14.355L9.266 17.0375C9.02253 17.3726 8.5535 17.4469 8.2184 17.2034C7.88329 16.9599 7.809 16.4909 8.05247 16.1558L10.0014 13.4733C10.2449 13.1382 10.7139 13.0639 11.049 13.3074Z" fill="black"/>
<path fill-rule="evenodd" clip-rule="evenodd" d="M3.7402 3.89737C4.72468 2.84117 6.12669 2.25 7.78216 2.25H16.2169C17.8762 2.25 19.2788 2.84084 20.2629 3.89765C21.2413 4.94841 21.75 6.39889 21.75 8.02638V15.9736C21.75 17.6011 21.2413 19.0516 20.2627 20.1024C19.2785 21.1592 17.8756 21.75 16.2159 21.75H7.78216C6.1228 21.75 4.72038 21.1591 3.73657 20.1023C2.75842 19.0515 2.25 17.601 2.25 15.9736V8.02638C2.25 6.39806 2.76117 4.94771 3.7402 3.89737ZM4.83745 4.92012C4.16024 5.64666 3.75 6.70951 3.75 8.02638V15.9736C3.75 17.2914 4.15861 18.3541 4.83451 19.0802C5.50475 19.8003 6.49341 20.25 7.78216 20.25H16.2159C17.5052 20.25 18.4944 19.8002 19.165 19.0801C19.8412 18.354 20.25 17.2913 20.25 15.9736V8.02638C20.25 6.70868 19.8412 5.64597 19.1651 4.91984C18.4946 4.19975 17.5056 3.75 16.2169 3.75H7.78216C6.49828 3.75 5.50921 4.19943 4.83745 4.92012Z" fill="black"/>
</svg>