<svg width="24" height="24" viewBox="0 0 24 24" fill="none" xmlns="http://www.w3.org/2000/svg">
<path opacity="0.4" fill-rule="evenodd" clip-rule="evenodd" d="M18.8545 5.87945L13.8765 3.01145C12.7175 2.33145 11.2785 2.33345 10.1255 3.00945L5.14451 5.88045C3.98851 6.54745 3.27051 7.78945 3.27051 9.12345V14.8735C3.27051 16.2135 3.98751 17.4595 5.14151 18.1255L10.1285 21.0075C10.7045 21.3345 11.3515 21.4985 11.9985 21.4985C12.6465 21.4985 13.2945 21.3345 13.8745 21.0055L18.8545 18.1255C20.0105 17.4585 20.7295 16.2165 20.7295 14.8835V9.12345C20.7295 7.79045 20.0105 6.54745 18.8545 5.87945Z" fill="black"/>
<path d="M14.1146 15.9201H15.1876C16.4966 15.9201 17.5226 14.8931 17.5226 13.5801C17.5226 12.2951 16.4756 11.2501 15.1876 11.2501H14.1146C13.7096 11.2501 13.2796 10.9591 13.2796 10.4201C13.2796 10.0071 13.5916 9.58008 14.1146 9.58008H15.1876C15.5386 9.58008 15.8736 9.85808 15.9846 10.2391C16.1006 10.6381 16.5166 10.8611 16.9136 10.7511C17.3116 10.6351 17.5406 10.2191 17.4246 9.82108C17.1276 8.79608 16.2076 8.08008 15.1876 8.08008H14.1146C12.8056 8.08008 11.7796 9.10808 11.7796 10.4201C11.7796 11.7271 12.8056 12.7501 14.1146 12.7501H15.1876C15.7096 12.7501 16.0226 13.1721 16.0226 13.5801C16.0226 14.1261 15.5926 14.4201 15.1876 14.4201H14.1146C13.6396 14.4201 13.3826 14.0861 13.3086 13.8001C13.2036 13.3991 12.7906 13.1571 12.3926 13.2651C11.9916 13.3691 11.7516 13.7791 11.8566 14.1811C12.1296 15.2211 13.0366 15.9201 14.1146 15.9201Z" fill="black"/>
<path d="M8.22456 15.9121C9.53656 15.9121 10.6046 14.8451 10.6046 13.5321V8.88208C10.6046 8.46808 10.2686 8.13208 9.85456 8.13208C9.43956 8.13208 9.10456 8.46808 9.10456 8.88208V13.5321C9.10456 14.0181 8.70956 14.4121 8.22456 14.4121H7.22656C6.81256 14.4121 6.47656 14.7481 6.47656 15.1621C6.47656 15.5761 6.81256 15.9121 7.22656 15.9121H8.22456Z" fill="black"/>
</svg>