<svg width="24" height="24" viewBox="0 0 24 24" fill="none" xmlns="http://www.w3.org/2000/svg">
<path d="M12.7403 21.4399C12.5503 21.4399 12.3603 21.37 12.2103 21.22C11.9203 20.93 11.9203 20.4499 12.2103 20.1599L20.1602 12.21C20.2202 12.15 20.2502 12.08 20.2502 12C20.2502 11.92 20.2203 11.85 20.1703 11.8L12.2103 3.83984C12.1303 3.75984 12.0402 3.75 12.0002 3.75C12.0002 3.75 11.8703 3.75984 11.7903 3.83984C11.2903 4.33984 11.0103 4.99996 11.0103 5.70996C11.0103 6.41996 11.2802 7.08008 11.7802 7.58008L15.6703 11.47C15.8103 11.61 15.8903 11.8 15.8903 12C15.8903 12.2 15.8103 12.39 15.6703 12.53L12.5203 15.6699C12.2303 15.9599 11.7503 15.9599 11.4603 15.6699C11.1703 15.3799 11.1703 14.8999 11.4603 14.6099L14.0803 12L10.7202 8.63989C9.94025 7.85989 9.51025 6.81996 9.51025 5.70996C9.51025 4.59996 9.94026 3.56003 10.7303 2.78003C11.0703 2.44003 11.5202 2.25 12.0002 2.25C12.4802 2.25 12.9303 2.44003 13.2703 2.78003L21.2202 10.73C21.5502 11.05 21.7502 11.52 21.7502 12C21.7502 12.48 21.5603 12.92 21.2303 13.27L13.2703 21.22C13.1203 21.37 12.9303 21.4399 12.7403 21.4399Z" fill="black"/>
<path d="M11.9995 21.7517C11.5395 21.7517 11.0795 21.5817 10.7295 21.2317L2.77951 13.2817C2.43951 12.9417 2.24951 12.4917 2.24951 12.0117C2.24951 11.5317 2.43951 11.0817 2.77951 10.7417L10.7295 2.79172C11.0195 2.50172 11.4995 2.50172 11.7895 2.79172C12.0795 3.08172 12.0795 3.56153 11.7895 3.85153L3.83951 11.8017C3.75951 11.8817 3.74951 11.9617 3.74951 12.0117C3.74951 12.0617 3.75951 12.1417 3.83951 12.2217L11.7895 20.1716C11.9095 20.2916 12.0995 20.2916 12.2095 20.1716C12.7095 19.6716 12.9795 19.0117 12.9795 18.3017C12.9795 17.5917 12.7095 16.9316 12.2095 16.4316L8.31952 12.5417C8.17952 12.4017 8.09952 12.2117 8.09952 12.0117C8.09952 11.8117 8.17952 11.6217 8.31952 11.4817L11.4595 8.34152C11.7495 8.05152 12.2295 8.05152 12.5195 8.34152C12.8095 8.63152 12.8095 9.11158 12.5195 9.40158L9.90952 12.0117L13.2695 15.3716C14.0495 16.1516 14.4795 17.1917 14.4795 18.3017C14.4795 19.4117 14.0495 20.4517 13.2595 21.2317C12.9095 21.5817 12.4495 21.7517 11.9895 21.7517H11.9995Z" fill="black"/>
</svg>