<svg width="24" height="24" viewBox="0 0 24 24" fill="none" xmlns="http://www.w3.org/2000/svg">
<path fill-rule="evenodd" clip-rule="evenodd" d="M12.7314 3.00404C12.7356 3.41823 12.4033 3.75744 11.9891 3.76168C7.45229 3.80814 3.78861 7.47892 3.75012 12.015C3.7956 16.5451 7.45782 20.2066 11.9887 20.2503C12.4029 20.2543 12.7354 20.5933 12.7314 21.0075C12.7274 21.4217 12.3884 21.7543 11.9742 21.7503C6.62389 21.6986 2.29982 17.3729 2.25012 12.0226L2.25 12.0098L2.25011 12.0098C2.29154 6.65287 6.61693 2.31662 11.9738 2.26176C12.388 2.25752 12.7272 2.58985 12.7314 3.00404Z" fill="black"/>
<path fill-rule="evenodd" clip-rule="evenodd" d="M11.294 7.34552C11.4678 6.96953 11.9135 6.80563 12.2895 6.97943C14.2508 7.88607 15.4675 9.88856 15.3708 12.0448C15.4515 14.1848 14.2441 16.1673 12.3027 17.0766C11.9275 17.2523 11.481 17.0907 11.3053 16.7156C11.1297 16.3405 11.2913 15.8939 11.6664 15.7183C13.0698 15.0609 13.9396 13.6235 13.8708 12.0754C13.8697 12.0514 13.8698 12.0274 13.8711 12.0034C13.9514 10.4456 13.076 8.99553 11.6601 8.341C11.2841 8.1672 11.1202 7.72151 11.294 7.34552Z" fill="black"/>
<path fill-rule="evenodd" clip-rule="evenodd" d="M12.7083 2.29124C12.408 2.24607 12.1364 2.23766 11.9153 2.26828C11.5262 2.32217 11.2446 2.66714 11.2697 3.05914C11.2948 3.45115 11.6181 3.75736 12.0109 3.76116C12.187 3.76286 12.3617 3.77002 12.535 3.78248C12.7041 3.81088 12.916 3.86105 13.1618 3.94507C13.6873 4.12468 14.3075 4.43936 14.8994 4.94186C16.0612 5.92822 17.1789 7.69327 17.1789 10.7777C17.1789 12.705 16.3757 14.1495 15.3583 15C14.3223 15.866 13.1393 16.0733 12.3005 15.7208C10.8907 15.0639 10.0198 13.6172 10.1 12.0632C10.1012 12.0393 10.1013 12.0154 10.1003 11.9915C10.032 10.441 10.8991 9.00049 12.3013 8.33514C12.5766 8.20448 12.7455 7.9202 12.7286 7.6159C12.7117 7.3116 12.5123 7.04781 12.2241 6.94849C8.96603 5.82552 5.375 8.5617 5.375 13.2632C5.375 17.0232 6.78282 19.1888 8.382 20.3908C9.93456 21.5578 11.5774 21.7498 12.0181 21.7498V21.7498L12.0258 21.7497C17.3826 21.6949 21.708 17.3586 21.7495 12.0017L21.7496 12.0017L21.7495 11.9889C21.7019 6.86819 17.739 2.68608 12.7083 2.29124ZM17.632 6.02161C18.2659 7.23821 18.6789 8.79959 18.6789 10.7777C18.6789 13.1412 17.6848 15.0101 16.3204 16.1508C14.9786 17.2725 13.2004 17.7359 11.7018 17.0962C11.6987 17.0948 11.6956 17.0935 11.6925 17.0921C11.6889 17.0905 11.6852 17.0889 11.6816 17.0872C9.72017 16.1805 8.50347 14.1779 8.60025 12.0217C8.54905 10.6518 9.02325 9.34594 9.8793 8.34251C8.3222 8.79645 6.875 10.4255 6.875 13.2632C6.875 16.596 8.09517 18.2987 9.28327 19.1918C10.5119 20.1153 11.8089 20.2485 12.0151 20.2498C16.5498 20.2008 20.211 16.531 20.2495 11.9965C20.2258 9.6413 19.2246 7.52091 17.632 6.02161Z" fill="black"/>
</svg>