<svg width="24" height="24" viewBox="0 0 24 24" fill="none" xmlns="http://www.w3.org/2000/svg">
<path fill-rule="evenodd" clip-rule="evenodd" d="M6.60078 14.5508C6.02088 14.5508 5.55078 15.0209 5.55078 15.6008V19.2008C5.55078 19.7807 6.02088 20.2508 6.60078 20.2508C7.18068 20.2508 7.65078 19.7807 7.65078 19.2008V15.6008C7.65078 15.0209 7.18068 14.5508 6.60078 14.5508ZM4.05078 15.6008C4.05078 14.1925 5.19246 13.0508 6.60078 13.0508C8.00911 13.0508 9.15078 14.1925 9.15078 15.6008V19.2008C9.15078 20.6091 8.00911 21.7508 6.60078 21.7508C5.19246 21.7508 4.05078 20.6091 4.05078 19.2008V15.6008Z" fill="black"/>
<path fill-rule="evenodd" clip-rule="evenodd" d="M17.3996 3.75C16.8197 3.75 16.3496 4.2201 16.3496 4.8V8.4C16.3496 8.9799 16.8197 9.45 17.3996 9.45C17.9795 9.45 18.4496 8.9799 18.4496 8.4V4.8C18.4496 4.2201 17.9795 3.75 17.3996 3.75ZM14.8496 4.8C14.8496 3.39167 15.9913 2.25 17.3996 2.25C18.8079 2.25 19.9496 3.39167 19.9496 4.8V8.4C19.9496 9.80833 18.8079 10.95 17.3996 10.95C15.9913 10.95 14.8496 9.80833 14.8496 8.4V4.8Z" fill="black"/>
<path fill-rule="evenodd" clip-rule="evenodd" d="M9.29961 6.44922C8.78244 6.44922 8.28645 6.65466 7.92075 7.02036C7.55506 7.38606 7.34961 7.88205 7.34961 8.39922V13.7992C7.34961 14.2134 7.01382 14.5492 6.59961 14.5492C6.1854 14.5492 5.84961 14.2134 5.84961 13.7992V8.39922C5.84961 7.48422 6.21309 6.6067 6.86009 5.9597C7.50709 5.3127 8.38461 4.94922 9.29961 4.94922C10.2146 4.94922 11.0921 5.3127 11.7391 5.9597C12.3861 6.6067 12.7496 7.48422 12.7496 8.39922V15.5992C12.7496 16.1164 12.9551 16.6124 13.3208 16.9781C13.6864 17.3438 14.1824 17.5492 14.6996 17.5492C15.2168 17.5492 15.7128 17.3438 16.0785 16.9781C16.4442 16.6124 16.6496 16.1164 16.6496 15.5992V10.1992C16.6496 9.78501 16.9854 9.44922 17.3996 9.44922C17.8138 9.44922 18.1496 9.78501 18.1496 10.1992V15.5992C18.1496 16.5142 17.7861 17.3917 17.1391 18.0387C16.4921 18.6857 15.6146 19.0492 14.6996 19.0492C13.7846 19.0492 12.9071 18.6857 12.2601 18.0387C11.6131 17.3917 11.2496 16.5142 11.2496 15.5992V8.39922C11.2496 7.88205 11.0442 7.38606 10.6785 7.02036C10.3128 6.65466 9.81678 6.44922 9.29961 6.44922Z" fill="black"/>
</svg>