<svg width="24" height="24" viewBox="0 0 24 24" fill="none" xmlns="http://www.w3.org/2000/svg">
<g opacity="0.4">
<path fill-rule="evenodd" clip-rule="evenodd" d="M20 6H4C3.448 6 3 5.553 3 5C3 4.447 3.448 4 4 4H20C20.552 4 21 4.447 21 5C21 5.553 20.552 6 20 6Z" fill="black"/>
<path fill-rule="evenodd" clip-rule="evenodd" d="M20 19.9999H4C3.448 19.9999 3 19.5529 3 18.9999C3 18.4469 3.448 17.9999 4 17.9999H20C20.552 17.9999 21 18.4469 21 18.9999C21 19.5529 20.552 19.9999 20 19.9999Z" fill="black"/>
</g>
<path d="M4 15.33H20C20.552 15.33 21 14.883 21 14.33C21 13.777 20.552 13.33 20 13.33H4C3.448 13.33 3 13.777 3 14.33C3 14.883 3.448 15.33 4 15.33Z" fill="black"/>
<path d="M4 10.6699H20C20.552 10.6699 21 10.2229 21 9.66992C21 9.11692 20.552 8.66992 20 8.66992H4C3.448 8.66992 3 9.11692 3 9.66992C3 10.2229 3.448 10.6699 4 10.6699Z" fill="black"/>
</svg>