<svg width="24" height="24" viewBox="0 0 24 24" fill="none" xmlns="http://www.w3.org/2000/svg">
<path fill-rule="evenodd" clip-rule="evenodd" d="M20 6H4C3.448 6 3 5.553 3 5C3 4.447 3.448 4 4 4H20C20.552 4 21 4.447 21 5C21 5.553 20.552 6 20 6ZM20 15.33H4C3.448 15.33 3 14.883 3 14.33C3 13.777 3.448 13.33 4 13.33H20C20.552 13.33 21 13.777 21 14.33C21 14.883 20.552 15.33 20 15.33Z" fill="black"/>
<path fill-rule="evenodd" clip-rule="evenodd" d="M20 10.6699H4C3.448 10.6699 3 10.2229 3 9.66992C3 9.11692 3.448 8.66992 4 8.66992H20C20.552 8.66992 21 9.11692 21 9.66992C21 10.2229 20.552 10.6699 20 10.6699ZM20 19.9999H4C3.448 19.9999 3 19.5529 3 18.9999C3 18.4469 3.448 17.9999 4 17.9999H20C20.552 17.9999 21 18.4469 21 18.9999C21 19.5529 20.552 19.9999 20 19.9999Z" fill="black"/>
</svg>