<svg width="25" height="25" viewBox="0 0 25 25" fill="none" xmlns="http://www.w3.org/2000/svg">
<path fill-rule="evenodd" clip-rule="evenodd" d="M3.75 5.76562C3.75 5.35141 4.08579 5.01562 4.5 5.01562H20.5C20.9142 5.01562 21.25 5.35141 21.25 5.76562C21.25 6.17984 20.9142 6.51562 20.5 6.51562H4.5C4.08579 6.51562 3.75 6.17984 3.75 5.76562ZM3.75 15.0986C3.75 14.6844 4.08579 14.3486 4.5 14.3486H20.5C20.9142 14.3486 21.25 14.6844 21.25 15.0986C21.25 15.5128 20.9142 15.8486 20.5 15.8486H4.5C4.08579 15.8486 3.75 15.5128 3.75 15.0986Z" fill="black"/>
<path fill-rule="evenodd" clip-rule="evenodd" d="M3.75 10.4297C3.75 10.0155 4.08579 9.67969 4.5 9.67969H20.5C20.9142 9.67969 21.25 10.0155 21.25 10.4297C21.25 10.8439 20.9142 11.1797 20.5 11.1797H4.5C4.08579 11.1797 3.75 10.8439 3.75 10.4297ZM3.75 19.7637C3.75 19.3495 4.08579 19.0137 4.5 19.0137H20.5C20.9142 19.0137 21.25 19.3495 21.25 19.7637C21.25 20.1779 20.9142 20.5137 20.5 20.5137H4.5C4.08579 20.5137 3.75 20.1779 3.75 19.7637Z" fill="black"/>
</svg>