<svg width="25" height="24" viewBox="0 0 25 24" fill="none" xmlns="http://www.w3.org/2000/svg">
<path fill-rule="evenodd" clip-rule="evenodd" d="M7.96094 8.50669C7.96094 7.98466 8.38403 7.56104 8.90654 7.56104C9.42845 7.56104 9.85227 7.98406 9.85227 8.50669C9.85227 9.02931 9.42846 9.45234 8.90654 9.45234C8.38403 9.45234 7.96094 9.02872 7.96094 8.50669Z" fill="black"/>
<path fill-rule="evenodd" clip-rule="evenodd" d="M4.29488 3.89737C5.27937 2.84117 6.68138 2.25 8.33685 2.25H16.7716C18.4309 2.25 19.8335 2.84084 20.8176 3.89765C21.796 4.94841 22.3047 6.39889 22.3047 8.02638V15.9736C22.3047 17.6011 21.796 19.0516 20.8174 20.1024C19.8332 21.1592 18.4303 21.75 16.7706 21.75H8.33685C6.67749 21.75 5.27507 21.1591 4.29126 20.1023C3.3131 19.0515 2.80469 17.601 2.80469 15.9736V8.02638C2.80469 6.39806 3.31585 4.94771 4.29488 3.89737ZM5.39214 4.92012C4.71493 5.64666 4.30469 6.70951 4.30469 8.02638V15.9736C4.30469 17.2914 4.7133 18.3541 5.38919 19.0802C6.05944 19.8003 7.0481 20.25 8.33685 20.25H16.7706C18.0599 20.25 19.0491 19.8002 19.7197 19.0801C20.3959 18.354 20.8047 17.2913 20.8047 15.9736V8.02638C20.8047 6.70868 20.3959 5.64597 19.7198 4.91984C19.0493 4.19975 18.0603 3.75 16.7716 3.75H8.33685C7.05297 3.75 6.0639 4.19943 5.39214 4.92012Z" fill="black"/>
<path fill-rule="evenodd" clip-rule="evenodd" d="M11.6543 9.06543C12.0685 9.06543 12.4043 9.40122 12.4043 9.81543V16.1177C12.4043 16.5319 12.0685 16.8677 11.6543 16.8677C11.2401 16.8677 10.9043 16.5319 10.9043 16.1177V9.81543C10.9043 9.40122 11.2401 9.06543 11.6543 9.06543Z" fill="black"/>
<path fill-rule="evenodd" clip-rule="evenodd" d="M16.7773 9.33568C17.0423 9.65406 16.999 10.127 16.6806 10.3919L12.1409 14.1701C11.8225 14.435 11.3496 14.3917 11.0847 14.0734C10.8197 13.755 10.863 13.2821 11.1814 13.0171L15.7211 9.23897C16.0395 8.97401 16.5124 9.0173 16.7773 9.33568Z" fill="black"/>
<path fill-rule="evenodd" clip-rule="evenodd" d="M16.6972 16.6814C17.0085 16.4082 17.0394 15.9343 16.7662 15.623L13.6018 12.0172C13.3286 11.7059 12.8547 11.675 12.5434 11.9482C12.2321 12.2214 12.2012 12.6953 12.4744 13.0066L15.6388 16.6124C15.912 16.9237 16.3859 16.9546 16.6972 16.6814Z" fill="black"/>
</svg>