<svg width="24" height="24" viewBox="0 0 24 24" fill="none" xmlns="http://www.w3.org/2000/svg">
<path d="M7.00247 18.0245L3.48438 12.4827L5.09456 11.7316L7.66892 14.341M14.9831 9.10376C14.9831 8.42758 14.4353 7.87982 13.7591 7.87982C13.0839 7.87982 12.5362 8.42758 12.5362 9.10376C12.5362 9.77994 13.0839 10.3277 13.7591 10.3277C14.4353 10.3277 14.9831 9.77994 14.9831 9.10376ZM20.3915 17.8895C20.5822 15.2763 19.6627 12.8391 17.3958 11.3885C14.4703 9.51655 10.6564 10.2579 8.5325 12.951C7.58681 14.1496 7.02544 15.6499 7.02738 17.1822C7.02836 17.9975 7.1957 18.808 7.30369 19.6136C7.40974 20.4114 8.09371 21.0048 8.89831 21L18.6198 20.9328C19.5713 20.926 20.0772 20.209 20.2144 19.3518C20.2913 18.8741 20.3555 18.3838 20.3915 17.8895Z" stroke="black" stroke-width="1.5" stroke-linecap="round" stroke-linejoin="round"/>
<path d="M8.21484 13.3668H19.3398" stroke="black" stroke-width="1.5" stroke-linecap="round" stroke-linejoin="round"/>
<path d="M19.3307 13.2605L19.5107 12.9773C20.1558 11.982 20.5157 10.7805 20.5157 9.51275C20.5157 5.9178 17.5979 3 14.003 3C10.408 3 7.49023 5.9178 7.49023 9.51275C7.49023 10.6384 7.77433 11.6872 8.26663 12.6164L8.49723 12.9714" stroke="black" stroke-width="1.5" stroke-linecap="round" stroke-linejoin="round"/>
</svg>