<svg width="24" height="24" viewBox="0 0 24 24" fill="none" xmlns="http://www.w3.org/2000/svg">
<path fill-rule="evenodd" clip-rule="evenodd" d="M17.2599 8.68965C14.3599 5.78965 9.64189 5.78965 6.74189 8.68965C3.84189 11.5896 3.84189 16.3076 6.74189 19.2076C8.19189 20.6566 10.0959 21.3816 12.0009 21.3816C13.9049 21.3816 15.8099 20.6566 17.2599 19.2076C20.1579 16.3076 20.1579 11.5896 17.2599 8.68965Z" fill="black" fill-opacity="0.4"/>
<path fill-rule="evenodd" clip-rule="evenodd" d="M11.3347 14.9385C11.6517 15.2055 11.6937 15.6775 11.4277 15.9955C11.2787 16.1715 11.0667 16.2635 10.8527 16.2635C10.6827 16.2635 10.5117 16.2055 10.3707 16.0875L9.1167 15.0355V15.6455C9.1167 16.0595 8.7807 16.3955 8.3667 16.3955C7.9527 16.3955 7.6167 16.0595 7.6167 15.6455V11.9675C7.6167 11.5535 7.9527 11.2175 8.3667 11.2175C8.7807 11.2175 9.1167 11.5535 9.1167 11.9675V12.5765L10.3707 11.5255C10.6887 11.2595 11.1617 11.3015 11.4277 11.6185C11.6937 11.9355 11.6517 12.4085 11.3347 12.6745L9.9847 13.8065L11.3347 14.9385Z" fill="black"/>
<path fill-rule="evenodd" clip-rule="evenodd" d="M16.3337 14.8814C16.3337 15.6724 15.8427 16.5184 14.4647 16.5184C13.7647 16.5184 13.1187 16.2474 12.6457 15.7544C12.1377 15.2254 11.8637 14.4674 11.8967 13.6764C11.9257 12.9524 12.2507 12.2554 12.7877 11.7654C13.2937 11.3024 13.9447 11.0674 14.5997 11.0994C14.9787 11.1194 15.3367 11.2134 15.6667 11.3774C16.0387 11.5624 16.1897 12.0124 16.0057 12.3824C15.8207 12.7544 15.3697 12.9054 15.0007 12.7214C14.8537 12.6484 14.6917 12.6064 14.5217 12.5974C14.2667 12.5754 14.0077 12.6824 13.7987 12.8734C13.5557 13.0954 13.4087 13.4104 13.3957 13.7374C13.3797 14.1224 13.5007 14.4794 13.7277 14.7154C13.9177 14.9134 14.1727 15.0184 14.4647 15.0184C14.7497 15.0184 14.8367 14.9574 14.8367 14.9574L14.8357 14.5574H14.4647C14.0507 14.5574 13.7147 14.2214 13.7147 13.8074C13.7147 13.3934 14.0507 13.0574 14.4647 13.0574H15.5837C15.9977 13.0574 16.3337 13.3934 16.3337 13.8074V14.8814Z" fill="black"/>
<path fill-rule="evenodd" clip-rule="evenodd" d="M17.4919 8.95314C17.3929 8.83314 17.2939 8.70814 17.1949 8.58014C17.1709 8.54914 17.1459 8.52014 17.1219 8.48714C17.0009 8.32814 16.8809 8.16014 16.7629 7.97414C16.5259 7.60014 16.5829 7.16214 16.7029 6.48614C16.7449 6.24614 16.7919 5.97614 16.8109 5.69414C16.8119 5.68514 16.8139 5.67614 16.8139 5.66614C16.8689 4.79014 16.6409 3.80214 15.1289 3.22114C15.1229 3.21714 15.0989 3.20614 15.0569 3.18714C14.9909 3.15014 13.8899 2.61914 12.0619 2.61914C12.0359 2.61914 12.0129 2.62114 11.9869 2.62114C11.9599 2.62114 11.9379 2.61914 11.9109 2.61914C10.0839 2.61914 8.9819 3.15014 8.9169 3.18714C8.8749 3.20614 8.8499 3.21714 8.8439 3.22114C7.3329 3.80214 7.1049 4.79014 7.1589 5.66614C7.1599 5.67614 7.1619 5.68514 7.1619 5.69414C7.1809 5.97614 7.2279 6.24614 7.2709 6.48614C7.3909 7.16214 7.4469 7.60014 7.2099 7.97414C7.0929 8.15914 6.9729 8.32814 6.8519 8.48714C6.8259 8.52214 6.7989 8.55414 6.7719 8.58814C6.6749 8.71314 6.5779 8.83614 6.4819 8.95314C6.4069 9.03514 6.3449 9.12214 6.2749 9.20614C6.4219 9.02914 6.5749 8.85614 6.7409 8.69014C7.3719 8.05914 8.0889 7.57114 8.8539 7.21514C8.9239 7.18314 8.9339 7.17014 8.8699 7.19914C8.8669 7.10914 8.8549 7.02514 8.8459 6.93814C8.8229 6.68914 8.7879 6.44614 8.7489 6.22414C8.7099 6.00814 8.6799 5.82814 8.6629 5.66914C8.6169 5.21614 8.7069 4.95614 9.1869 4.70814C9.2639 4.66914 9.3469 4.63114 9.4459 4.59314C9.5109 4.56414 10.4359 4.13514 11.9869 4.12114C13.5369 4.13514 14.4629 4.56414 14.5279 4.59314C14.6269 4.63114 14.7089 4.66914 14.7869 4.70814C15.2669 4.95614 15.3559 5.21614 15.3109 5.66914C15.2939 5.82814 15.2629 6.00814 15.2249 6.22414C15.1869 6.43914 15.1529 6.67314 15.1289 6.91414C15.1199 7.00814 15.1069 7.10114 15.1029 7.19914C15.0399 7.17014 15.0489 7.18314 15.1189 7.21514C15.8839 7.57114 16.6019 8.05914 17.2319 8.69014C17.3979 8.85614 17.5519 9.02914 17.6989 9.20614C17.6289 9.12214 17.5659 9.03514 17.4919 8.95314Z" fill="black"/>
</svg>