<svg width="25" height="25" viewBox="0 0 25 25" fill="none" xmlns="http://www.w3.org/2000/svg">
<circle cx="12.25" cy="12.5" r="9" stroke="black" stroke-width="1.5" stroke-linecap="round" stroke-linejoin="round"/>
<path d="M14.0321 21.2097L14.0317 16.3642C15.6493 15.6704 16.7831 14.0656 16.7831 12.1942C16.7831 10.3164 15.6429 8.70515 14.0193 8.02368L14.0193 11.2188C14.0189 11.5068 13.8756 11.7761 13.6364 11.9367L12.7331 12.5415C12.4428 12.736 12.0635 12.7364 11.7727 12.5424L10.8653 11.9363C10.6248 11.7761 10.481 11.5063 10.481 11.2178V8.02368C8.85747 8.71154 7.71729 10.3164 7.71729 12.1942C7.71729 14.0656 8.85108 15.6704 10.4746 16.3647L10.4746 21.2097" stroke="black" stroke-width="1.5" stroke-linecap="round" stroke-linejoin="round"/>
</svg>