<svg width="25" height="25" viewBox="0 0 25 25" fill="none" xmlns="http://www.w3.org/2000/svg">
<path fill-rule="evenodd" clip-rule="evenodd" d="M12.25 4.25C7.69365 4.25 4 7.94365 4 12.5C4 17.0563 7.69365 20.75 12.25 20.75C16.8063 20.75 20.5 17.0563 20.5 12.5C20.5 7.94365 16.8063 4.25 12.25 4.25ZM2.5 12.5C2.5 7.11522 6.86522 2.75 12.25 2.75C17.6348 2.75 22 7.11522 22 12.5C22 17.8848 17.6348 22.25 12.25 22.25C6.86522 22.25 2.5 17.8848 2.5 12.5Z" fill="black"/>
<path fill-rule="evenodd" clip-rule="evenodd" d="M10.8949 7.39841C11.1047 7.53733 11.2308 7.77213 11.2308 8.02368V11.2178C11.2308 11.2564 11.2499 11.2914 11.2809 11.3121L11.2817 11.3126L12.1888 11.9185C12.1887 11.9185 12.1888 11.9186 12.1888 11.9185C12.2269 11.944 12.2772 11.944 12.3155 11.9184L13.2179 11.3142C13.2179 11.3142 13.218 11.3141 13.2179 11.3142C13.2492 11.293 13.2689 11.2571 13.2691 11.2179L13.2691 8.02368C13.2691 7.77257 13.3948 7.53812 13.6039 7.3991C13.813 7.26009 14.0778 7.23495 14.3094 7.33213C16.2034 8.12714 17.5328 10.0057 17.5328 12.1942C17.5328 14.1965 16.4193 15.9352 14.7815 16.8322L14.7819 21.2096C14.7819 21.6238 14.4462 21.9597 14.032 21.9597C13.6177 21.9597 13.2819 21.624 13.2819 21.2098L13.2814 16.3643C13.2814 16.0643 13.4601 15.7932 13.7358 15.6749C15.0882 15.0949 16.0328 13.7544 16.0328 12.1942C16.0328 11.0708 15.5442 10.0622 14.7691 9.37183L14.7691 11.2199C14.7682 11.7566 14.5012 12.2591 14.0544 12.5593L13.1502 13.1647C13.1502 13.1647 13.1503 13.1646 13.1502 13.1647C12.6079 13.5278 11.8995 13.5288 11.3563 13.1663L10.4494 12.5605C10.4492 12.5604 10.4495 12.5606 10.4494 12.5605C9.99952 12.2607 9.73078 11.7561 9.73078 11.2178V9.37457C8.95487 10.0661 8.46704 11.0721 8.46704 12.1942C8.46704 13.754 9.4112 15.0943 10.7693 15.6751C11.0453 15.7931 11.2244 16.0644 11.2244 16.3647L11.2244 21.2097C11.2244 21.6239 10.8886 21.9597 10.4744 21.9597C10.0602 21.9597 9.72439 21.6239 9.72439 21.2097L9.72439 16.8333C8.08131 15.9362 6.96704 14.1972 6.96704 12.1942C6.96704 10.004 8.2978 8.13402 10.1882 7.33311C10.4198 7.23497 10.6852 7.2595 10.8949 7.39841Z" fill="black"/>
</svg>