<svg width="25" height="24" viewBox="0 0 25 24" fill="none" xmlns="http://www.w3.org/2000/svg">
<path opacity="0.4" d="M16.7285 19.1048H8.26176C5.3156 19.1048 3.49031 17.4624 3.50004 14.4423V9.56674C3.50004 6.54664 5.32436 4.89453 8.27051 4.89453H16.7285C19.6659 4.89453 21.5 6.57582 21.5 9.64263V14.4423C21.5 17.4624 19.6659 19.1048 16.7285 19.1048Z" stroke="black" stroke-width="1.5" stroke-linecap="round" stroke-linejoin="round"/>
<path d="M15.3229 15.3945H9.67773" stroke="black" stroke-width="1.5" stroke-linecap="round" stroke-linejoin="round"/>
<path d="M7.37004 8.8625V8.84015M7.37005 8.72266C7.30589 8.72266 7.25391 8.77464 7.25391 8.83859C7.25391 8.90275 7.30589 8.95473 7.37005 8.95473C7.43422 8.95473 7.4862 8.90275 7.4862 8.83859C7.4862 8.77464 7.43422 8.72266 7.37005 8.72266Z" stroke="black" stroke-width="1.5" stroke-linecap="round" stroke-linejoin="round"/>
<path d="M14.2031 8.8625V8.84015M14.2031 8.72266C14.1389 8.72266 14.0869 8.77464 14.0869 8.83859C14.0869 8.90275 14.1389 8.95473 14.2031 8.95473C14.2672 8.95473 14.3192 8.90275 14.3192 8.83859C14.3192 8.77464 14.2672 8.72266 14.2031 8.72266Z" stroke="black" stroke-width="1.5" stroke-linecap="round" stroke-linejoin="round"/>
<path d="M10.787 8.8625V8.84015M10.787 8.72266C10.7229 8.72266 10.6709 8.77464 10.6709 8.83859C10.6709 8.90275 10.7229 8.95473 10.787 8.95473C10.8512 8.95473 10.9032 8.90275 10.9032 8.83859C10.9032 8.77464 10.8512 8.72266 10.787 8.72266Z" stroke="black" stroke-width="1.5" stroke-linecap="round" stroke-linejoin="round"/>
<path d="M17.6191 8.8625V8.84015M17.6191 8.72266C17.5549 8.72266 17.5029 8.77464 17.5029 8.83859C17.5029 8.90275 17.5549 8.95473 17.6191 8.95473C17.6832 8.95473 17.7352 8.90275 17.7352 8.83859C17.7352 8.77464 17.6832 8.72266 17.6191 8.72266Z" stroke="black" stroke-width="1.5" stroke-linecap="round" stroke-linejoin="round"/>
<path d="M12.495 11.7414V11.7191M12.4951 11.6016C12.4309 11.6016 12.3789 11.6535 12.3789 11.7175C12.3789 11.7817 12.4309 11.8336 12.4951 11.8336C12.5592 11.8336 12.6112 11.7817 12.6112 11.7175C12.6112 11.6535 12.5592 11.6016 12.4951 11.6016Z" stroke="black" stroke-width="1.5" stroke-linecap="round" stroke-linejoin="round"/>
<path d="M9.07903 11.7414V11.7191M9.07904 11.6016C9.01487 11.6016 8.96289 11.6535 8.96289 11.7175C8.96289 11.7817 9.01487 11.8336 9.07904 11.8336C9.1432 11.8336 9.19518 11.7817 9.19518 11.7175C9.19518 11.6535 9.1432 11.6016 9.07904 11.6016Z" stroke="black" stroke-width="1.5" stroke-linecap="round" stroke-linejoin="round"/>
<path d="M15.9111 11.7414V11.7191M15.9111 11.6016C15.8469 11.6016 15.7949 11.6535 15.7949 11.7175C15.7949 11.7817 15.8469 11.8336 15.9111 11.8336C15.9752 11.8336 16.0272 11.7817 16.0272 11.7175C16.0272 11.6535 15.9752 11.6016 15.9111 11.6016Z" stroke="black" stroke-width="1.5" stroke-linecap="round" stroke-linejoin="round"/>
</svg>