<svg width="24" height="24" viewBox="0 0 24 24" fill="none" xmlns="http://www.w3.org/2000/svg">
<path opacity="0.4" fill-rule="evenodd" clip-rule="evenodd" d="M16.229 3.25H7.77104C4.47004 3.25 2.50004 5.184 2.50004 8.422V15.585C2.49504 17.148 2.96404 18.448 3.85704 19.343C4.77404 20.264 6.12504 20.75 7.76204 20.75H16.229C19.529 20.75 21.5 18.82 21.5 15.587V8.498C21.5 5.212 19.529 3.25 16.229 3.25Z" fill="black"/>
<path d="M16.117 8.592C16.117 9.068 16.504 9.455 16.98 9.455C17.456 9.455 17.843 9.068 17.843 8.592C17.843 8.116 17.456 7.729 16.98 7.729C16.504 7.729 16.117 8.116 16.117 8.592Z" fill="black"/>
<path d="M14.455 11.982C14.455 12.458 14.842 12.845 15.318 12.845C15.794 12.845 16.181 12.458 16.181 11.982C16.181 11.507 15.794 11.12 15.318 11.12C14.842 11.12 14.455 11.507 14.455 11.982Z" fill="black"/>
<path d="M9.32805 16.893H14.673C15.087 16.893 15.423 16.557 15.423 16.143C15.423 15.729 15.087 15.393 14.673 15.393H9.32805C8.91405 15.393 8.57805 15.729 8.57805 16.143C8.57805 16.557 8.91405 16.893 9.32805 16.893Z" fill="black"/>
<path d="M8.67105 11.12C8.19605 11.12 7.80905 11.507 7.80905 11.982C7.80905 12.458 8.19605 12.845 8.67105 12.845C9.14705 12.845 9.53505 12.458 9.53505 11.982C9.53505 11.507 9.14705 11.12 8.67105 11.12Z" fill="black"/>
<path d="M6.14905 8.592C6.14905 9.068 6.53605 9.455 7.01205 9.455C7.48805 9.455 7.87505 9.068 7.87505 8.592C7.87505 8.116 7.48805 7.729 7.01205 7.729C6.53605 7.729 6.14905 8.116 6.14905 8.592Z" fill="black"/>
<path d="M11.197 8.592C11.197 8.116 10.81 7.729 10.334 7.729C9.85805 7.729 9.47105 8.116 9.47105 8.592C9.47105 9.068 9.85805 9.455 10.334 9.455C10.81 9.455 11.197 9.068 11.197 8.592Z" fill="black"/>
<path d="M12.859 11.982C12.859 11.507 12.472 11.12 11.996 11.12C11.52 11.12 11.133 11.507 11.133 11.982C11.133 12.458 11.52 12.845 11.996 12.845C12.472 12.845 12.859 12.458 12.859 11.982Z" fill="black"/>
<path d="M14.519 8.592C14.519 8.116 14.132 7.729 13.656 7.729C13.18 7.729 12.793 8.116 12.793 8.592C12.793 9.068 13.18 9.455 13.656 9.455C14.132 9.455 14.519 9.068 14.519 8.592Z" fill="black"/>
</svg>