<svg width="24" height="24" viewBox="0 0 24 24" fill="none" xmlns="http://www.w3.org/2000/svg">
<path d="M5.33301 6.4V17.6C5.33301 18.9255 6.45234 20 7.83311 20C9.21388 20 10.3333 18.9255 10.3333 17.6L10.3337 13.7881L14.1181 18.9764C14.9101 20.0621 16.469 20.326 17.6001 19.5657C18.7311 18.8055 19.0059 17.3089 18.2139 16.2232L15.1335 12L18.2139 7.77679C19.0059 6.69101 18.7311 5.19451 17.6001 4.43424C16.469 3.67397 14.9101 3.93785 14.1181 5.02363L10.3337 10.2119L10.3333 6.4C10.3333 5.07452 9.21388 4 7.83311 4C6.45234 4 5.33301 5.07452 5.33301 6.4Z" stroke="black" stroke-width="1.5" stroke-linecap="round" stroke-linejoin="round"/>
</svg>