<svg width="24" height="24" viewBox="0 0 24 24" fill="none" xmlns="http://www.w3.org/2000/svg">
<path d="M12 21C16.9709 21 21 16.9709 21 12C21 7.02908 16.9709 3 12 3C7.02908 3 3 7.02908 3 12C3 16.9709 7.02908 21 12 21Z" stroke="black" stroke-width="1.5" stroke-linecap="round" stroke-linejoin="round"/>
<path d="M7.83398 8.5V15.5C7.83398 16.3284 8.53357 17 9.39655 17C10.2595 17 10.9592 16.3284 10.9592 15.5L10.9594 13.1176L13.3247 16.3602C13.8197 17.0388 14.794 17.2037 15.5009 16.7286C16.2078 16.2534 16.3796 15.3181 15.8846 14.6395L13.9593 12L15.8846 9.36049C16.3796 8.68188 16.2078 7.74657 15.5009 7.2714C14.794 6.79623 13.8197 6.96116 13.3247 7.63977L10.9594 10.8824L10.9592 8.5C10.9592 7.67158 10.2595 7 9.39655 7C8.53357 7 7.83398 7.67158 7.83398 8.5Z" stroke="black" stroke-width="1.5" stroke-linecap="round" stroke-linejoin="round"/>
</svg>