<svg width="24" height="24" viewBox="0 0 24 24" fill="none" xmlns="http://www.w3.org/2000/svg">
<path opacity="0.4" fill-rule="evenodd" clip-rule="evenodd" d="M12 2.5C6.762 2.5 2.5 6.761 2.5 12C2.5 17.238 6.762 21.5 12 21.5C17.238 21.5 21.5 17.238 21.5 12C21.5 6.761 17.238 2.5 12 2.5Z" fill="black"/>
<path fill-rule="evenodd" clip-rule="evenodd" d="M16.9218 10.1527L16.2038 14.2407C16.0848 14.9237 15.4928 15.4217 14.7968 15.4217H9.20485C8.50685 15.4217 7.91585 14.9237 7.79685 14.2387L7.07585 10.1527C7.00585 9.75066 7.18785 9.35766 7.53885 9.15166C7.89085 8.94566 8.32285 8.97966 8.63885 9.23666L10.0028 10.3407L11.2778 8.90666C11.6448 8.49466 12.3538 8.49466 12.7208 8.90666L13.9958 10.3407L15.3598 9.23666C15.6768 8.97766 16.1098 8.94566 16.4618 9.15266C16.8128 9.35866 16.9928 9.75166 16.9218 10.1527ZM11.9992 10.3535L13.2172 11.7225C13.5622 12.1065 14.1462 12.1525 14.5442 11.8275L15.1972 11.2985L14.8802 13.1085L14.7962 13.9215L9.27524 13.9805L8.80124 11.2985L9.45424 11.8275C9.85624 12.1525 10.4392 12.1045 10.7842 11.7195L11.9992 10.3535Z" fill="black"/>
</svg>