<svg width="25" height="24" viewBox="0 0 25 24" fill="none" xmlns="http://www.w3.org/2000/svg">
<path d="M16.7159 21C19.665 21 21.5 18.9188 21.5 15.9736V8.02638C21.5 5.08119 19.665 3 16.7169 3H8.28216C5.34281 3 3.5 5.08119 3.5 8.02638V15.9736C3.5 18.9188 5.33405 21 8.28216 21H13.2995" stroke="black" stroke-width="1.5" stroke-linecap="round" stroke-linejoin="round"/>
<path d="M8.7559 14.884C8.56519 13.804 8.16822 10.9483 7.97655 9.85955C7.9386 9.6455 8.18671 9.5015 8.35503 9.63771C9.04195 10.1943 9.8933 10.8831 10.2591 11.1789C10.3564 11.2587 10.4965 11.249 10.5802 11.1546C10.9568 10.7313 11.9288 9.63869 12.3257 9.19209C12.4191 9.08701 12.5807 9.08701 12.6741 9.19209C13.072 9.63869 14.043 10.7313 14.4196 11.1546C14.5032 11.249 14.6434 11.2587 14.7416 11.1789C15.1065 10.8831 15.9578 10.1943 16.6448 9.63771C16.8131 9.50052 17.0612 9.64452 17.0232 9.85858C16.8325 10.9473 16.4365 13.1988 16.2468 14.2798C16.1845 14.63 15.88 14.884 15.5239 14.884H12.5009" stroke="black" stroke-width="1.5" stroke-linecap="round" stroke-linejoin="round"/>
</svg>