<svg width="25" height="24" viewBox="0 0 25 24" fill="none" xmlns="http://www.w3.org/2000/svg">
<path d="M12.25 21.75C10.3216 21.75 8.43658 21.1782 6.8332 20.1068C5.22982 19.0355 3.98013 17.5128 3.24218 15.7312C2.50423 13.9496 2.31114 11.9892 2.68735 10.0979C3.06355 8.20656 3.99215 6.46927 5.35571 5.10571C6.71927 3.74215 8.45656 2.81355 10.3479 2.43735C12.2392 2.06114 14.1996 2.25423 15.9812 2.99218C17.7628 3.73013 19.2855 4.97982 20.3568 6.5832C21.4282 8.18658 22 10.0716 22 12C21.9971 14.585 20.9689 17.0632 19.1411 18.8911C17.3132 20.7189 14.835 21.7471 12.25 21.75ZM12.25 3.75001C10.6183 3.75001 9.02326 4.23386 7.66655 5.14038C6.30984 6.0469 5.25242 7.33538 4.628 8.84287C4.00358 10.3504 3.8402 12.0092 4.15853 13.6095C4.47686 15.2098 5.26259 16.6799 6.41637 17.8336C7.57016 18.9874 9.04017 19.7732 10.6405 20.0915C12.2409 20.4098 13.8997 20.2464 15.4071 19.622C16.9146 18.9976 18.2031 17.9402 19.1096 16.5835C20.0162 15.2268 20.5 13.6317 20.5 12C20.4976 9.8127 19.6277 7.71567 18.081 6.16901C16.5343 4.62235 14.4373 3.75239 12.25 3.75001Z" fill="black"/>
<path d="M15.0491 15.4208H9.45412C9.11837 15.4209 8.79337 15.3024 8.53636 15.0864C8.27935 14.8704 8.10681 14.5706 8.04912 14.2398L7.32912 10.1518C7.29492 9.95782 7.32085 9.758 7.40344 9.57915C7.48602 9.40031 7.62131 9.25099 7.79116 9.15121C7.96102 9.05143 8.15731 9.00596 8.35373 9.0209C8.55016 9.03585 8.73732 9.11049 8.89012 9.23482L10.2491 10.3398L11.5271 8.90082C11.6204 8.80373 11.7324 8.72648 11.8563 8.67371C11.9802 8.62095 12.1135 8.59375 12.2481 8.59375C12.3828 8.59375 12.5161 8.62095 12.6399 8.67371C12.7638 8.72648 12.8758 8.80373 12.9691 8.90082L14.2491 10.3398L15.6131 9.23981C15.7659 9.11549 15.9531 9.04085 16.1495 9.02591C16.3459 9.01097 16.5422 9.05643 16.7121 9.15621C16.8819 9.25599 17.0172 9.40531 17.0998 9.58415C17.1824 9.763 17.2083 9.96281 17.1741 10.1568L16.4561 14.2468C16.3969 14.5766 16.2234 14.8751 15.9662 15.0897C15.7089 15.3044 15.3842 15.4216 15.0491 15.4208ZM9.04912 11.3008L9.52212 13.9838L15.0431 13.9238L15.4691 11.2808L14.7911 11.8298C14.5985 11.9871 14.3525 12.0637 14.1046 12.0433C13.8568 12.023 13.6265 11.9074 13.4621 11.7208L12.2491 10.3518L11.0321 11.7198C10.8663 11.9057 10.6347 12.02 10.3863 12.0387C10.1379 12.0573 9.89187 11.9789 9.70012 11.8198L9.04912 11.3008Z" fill="black"/>
</svg>