<svg width="24" height="24" viewBox="0 0 24 24" fill="none" xmlns="http://www.w3.org/2000/svg">
<path d="M6.30714 14.7806L6.56108 18.5441C6.636 19.6513 7.55643 20.5114 8.66659 20.5114H15.3354C16.4455 20.5114 17.3659 19.6513 17.4399 18.5441L17.6948 14.7806H17.6929C19.6057 14.2124 21 12.4416 21 10.337C21 7.78104 18.9285 5.70082 16.3648 5.70082C16.1721 5.70082 15.9892 5.71834 15.7965 5.74266C15.0532 4.39801 13.6414 3.48828 11.9961 3.48828C10.3586 3.48828 8.94778 4.39801 8.19568 5.74266C8.01178 5.71834 7.82789 5.70082 7.63622 5.70082C5.07146 5.70082 3 7.78104 3 10.337C3 11.4226 3.37094 12.4193 3.99266 13.208" stroke="black" stroke-width="1.5" stroke-linecap="round" stroke-linejoin="round"/>
<path d="M6.47852 17.3203H14.7223" stroke="black" stroke-width="1.5" stroke-linecap="round" stroke-linejoin="round"/>
</svg>