<svg width="25" height="24" viewBox="0 0 25 24" fill="none" xmlns="http://www.w3.org/2000/svg">
<path fill-rule="evenodd" clip-rule="evenodd" d="M6.80714 14.7808L7.06108 18.5442C7.136 19.6515 8.05643 20.5116 9.16659 20.5116H15.8354C16.9455 20.5116 17.8659 19.6515 17.9399 18.5442L18.1948 14.7808H18.1929C20.1057 14.2125 21.5 12.4417 21.5 10.3372C21.5 7.78119 19.4285 5.70097 16.8648 5.70097C16.6721 5.70097 16.4892 5.71849 16.2965 5.74281C15.5532 4.39816 14.1414 3.48843 12.4961 3.48843C10.8586 3.48843 9.44778 4.39816 8.69568 5.74281C8.51178 5.71849 8.32789 5.70097 8.13622 5.70097C5.57146 5.70097 3.5 7.78119 3.5 10.3372C3.5 12.4417 4.89427 14.2125 6.80714 14.7808Z" stroke="black" stroke-width="1.5" stroke-linecap="round" stroke-linejoin="round"/>
<path opacity="0.4" d="M6.97852 17.322H18.0227" stroke="black" stroke-width="1.5" stroke-linecap="round" stroke-linejoin="round"/>
</svg>