<svg width="24" height="24" viewBox="0 0 24 24" fill="none" xmlns="http://www.w3.org/2000/svg">
<path fill-rule="evenodd" clip-rule="evenodd" d="M7.9323 5.21218C8.80057 3.87759 10.2855 2.98828 11.9961 2.98828C13.7125 2.98828 15.1997 3.87637 16.0618 5.2126C16.16 5.20527 16.2606 5.20082 16.3648 5.20082C19.2054 5.20082 21.5 7.50558 21.5 10.337C21.5 12.5434 20.1162 14.4188 18.1711 15.1473L17.9388 18.5774C17.8473 19.9476 16.7084 21.0114 15.3354 21.0114H8.66659C7.2935 21.0114 6.15491 19.9476 6.06222 18.5778L5.83079 15.148C3.88472 14.42 2.5 12.5441 2.5 10.337C2.5 7.50551 4.7947 5.20082 7.63622 5.20082C7.73783 5.20082 7.83646 5.20508 7.9323 5.21218ZM9.47852 16.5718C9.0643 16.5718 8.72852 16.9076 8.72852 17.3218C8.72852 17.736 9.0643 18.0718 9.47852 18.0718H14.5227C14.9369 18.0718 15.2727 17.736 15.2727 17.3218C15.2727 16.9076 14.9369 16.5718 14.5227 16.5718H9.47852Z" fill="black"/>
</svg>