<svg width="25" height="24" viewBox="0 0 25 24" fill="none" xmlns="http://www.w3.org/2000/svg">
<path opacity="0.4" fill-rule="evenodd" clip-rule="evenodd" d="M18.7411 20.2493C18.7401 20.7718 18.422 21.1026 18.0017 20.9693C17.737 20.8856 14.6217 18.7977 14.9856 11.3052C15.0449 10.5278 15.3825 10.0034 15.9614 9.60448C16.5296 9.21142 16.6795 8.71716 16.624 8.05752C16.4936 6.49888 16.4041 5.88398 16.3165 4.32145C16.2728 3.53337 16.8546 2.96031 17.6144 3.00215C18.2721 3.03815 18.7401 3.57521 18.7411 4.3234C18.745 7.17604 18.745 18.5526 18.7411 20.2493Z" stroke="black" stroke-width="1.5" stroke-linecap="round" stroke-linejoin="round"/>
<path d="M12.2745 3.37531C12.3397 4.83568 12.4107 6.29508 12.4691 7.75545C12.507 8.70115 12.183 9.51452 11.4747 10.1421C10.5057 10.9992 10.2673 12.0548 10.3987 13.307C10.64 15.6168 10.817 16.9867 10.9815 19.3032C11.0476 20.2333 10.2119 21 9.36444 21C8.51605 21 7.6803 20.2333 7.74646 19.3032C7.91185 16.9867 8.08796 15.6168 8.32924 13.307C8.46059 12.0548 8.22222 10.9992 7.25318 10.1421C6.54488 9.51452 6.2209 8.70115 6.25884 7.75545C6.31722 6.29508 6.38824 4.83568 6.45343 3.37531" stroke="black" stroke-width="1.5" stroke-linecap="round" stroke-linejoin="round"/>
<path d="M8.38477 6.48977L8.3945 3.45227" stroke="black" stroke-width="1.5" stroke-linecap="round" stroke-linejoin="round"/>
<path d="M10.334 6.48977L10.3437 3.45227" stroke="black" stroke-width="1.5" stroke-linecap="round" stroke-linejoin="round"/>
</svg>