<svg width="25" height="24" viewBox="0 0 25 24" fill="none" xmlns="http://www.w3.org/2000/svg">
<path d="M11.7413 2.38272C12.1553 2.36274 12.5054 2.68268 12.5245 3.09269L12.5855 4.44272C12.6319 5.45346 12.6783 6.4657 12.7183 7.4827C12.7652 8.63269 12.3595 9.67267 11.4722 10.4527C10.7384 11.1027 10.5303 11.8927 10.6456 12.9827C10.7047 13.55 10.7603 14.0626 10.8131 14.5483C10.9727 16.0234 11.1055 17.2499 11.2305 19.0027C11.3306 20.4127 10.0972 21.5027 8.86433 21.5027C7.63142 21.5027 6.39851 20.4127 6.49861 19.0027C6.62508 17.2376 6.75789 16.012 6.91902 14.5215C6.97078 14.0445 7.02547 13.5403 7.08357 12.9827C7.19832 11.8927 6.98933 11.1027 6.25642 10.4527C5.36922 9.67267 4.96346 8.63269 5.00935 7.4827C5.06844 6.0127 5.13924 4.55268 5.20467 3.09269C5.22322 2.68268 5.57332 2.36274 5.98738 2.38272C6.40144 2.39273 6.72127 2.74277 6.7032 3.16275L6.64949 4.33054C6.60066 5.40128 6.55183 6.47202 6.50838 7.54276C6.47957 8.27277 6.72127 8.86267 7.25056 9.33268C8.45564 10.4027 8.72322 11.7228 8.57527 13.1427C8.51619 13.7121 8.45955 14.2228 8.40779 14.7035C8.24812 16.1846 8.11873 17.3787 7.99519 19.1127C7.96346 19.5527 8.40144 20.0027 8.86433 20.0027C9.32625 20.0027 9.76521 19.5527 9.73347 19.1127C9.6114 17.3926 9.48299 16.2038 9.3243 14.7391C9.27156 14.2481 9.21394 13.7262 9.1534 13.1427C9.00545 11.7228 9.27351 10.4027 10.4776 9.33268C11.0074 8.86267 11.2496 8.27277 11.2203 7.54276C11.1612 6.08277 11.0914 4.62275 11.0255 3.16275C11.0074 2.74277 11.3272 2.39273 11.7413 2.38272Z" fill="black"/>
<path d="M9.83162 6.99271C9.41756 6.99271 9.0826 6.65271 9.08455 6.24271L9.09334 3.20267C9.09529 2.79267 9.43221 2.45267 9.84627 2.45267C10.2603 2.45267 10.5953 2.79267 10.5933 3.20267L10.5845 6.24271C10.5826 6.66272 10.2467 6.99271 9.83162 6.99271Z" fill="black"/>
<path d="M7.88338 6.99271C7.46834 6.99271 7.13435 6.65271 7.13533 6.24271L7.14558 3.20267C7.14656 2.79267 7.48347 2.45267 7.89754 2.45267C8.3116 2.45267 8.64656 2.79267 8.64558 3.20267L8.63533 6.24271C8.63435 6.66272 8.29744 6.99271 7.88338 6.99271Z" fill="black"/>
<path fill-rule="evenodd" clip-rule="evenodd" d="M13.7379 11.0078L13.7384 11.0027C13.8155 9.98273 14.2813 9.2627 15.0362 8.74271C15.2174 8.6127 15.2916 8.50275 15.3306 8.40274C15.3736 8.29276 15.3995 8.13272 15.3775 7.87271C15.3336 7.34946 15.294 6.92914 15.2574 6.53934C15.1866 5.78937 15.1261 5.15238 15.0684 4.1127C15.0006 2.88269 15.9454 1.94272 17.1563 2.00272C18.2774 2.06272 18.9903 3.00266 18.9913 4.07267C18.9957 6.93268 18.9957 18.3027 18.9913 20.0027C18.9913 20.4027 18.8692 20.8327 18.5572 21.1427C18.2174 21.4827 17.7384 21.5828 17.2755 21.4328C17.1182 21.3828 16.9576 21.2827 16.8414 21.1927C16.6973 21.0927 16.5255 20.9527 16.3375 20.7627C15.9595 20.3827 15.5113 19.8127 15.0933 19.0127C14.2554 17.4127 13.5494 14.8727 13.7374 11.0227L13.7379 11.0078ZM17.4918 19.7902C17.4957 17.5194 17.4957 6.83286 17.4913 4.07267C17.4913 3.65268 17.2686 3.51273 17.0733 3.50272C16.7642 3.48273 16.5465 3.68274 16.5665 4.03275C16.6231 5.05155 16.6798 5.65125 16.7501 6.3913C16.7867 6.77716 16.8267 7.20121 16.8726 7.74271C16.9053 8.1427 16.8834 8.56269 16.7242 8.96268C16.5596 9.37268 16.2755 9.7027 15.8873 9.97269C15.4845 10.2527 15.2755 10.5727 15.2345 11.1127C15.0611 14.7412 15.731 16.9951 16.4234 18.3227C16.7716 18.9927 17.1295 19.4327 17.3995 19.7027C17.4317 19.7336 17.4625 19.7629 17.4918 19.7902Z" fill="black"/>
</svg>