<svg width="25" height="24" viewBox="0 0 25 24" fill="none" xmlns="http://www.w3.org/2000/svg">
<path d="M7.08789 14.3635C9.4719 18.134 12.5565 14.1079 15.2353 14.2483C17.2817 14.2247 19.9512 15.9187 21.055 13.4792C18.7415 13.6133 18.7177 12.137 17.3843 11.4941" stroke="black" stroke-width="1.5" stroke-linecap="round" stroke-linejoin="round"/>
<path d="M16.1505 8.14319C15.5293 8.14319 14.9864 8.47876 14.6932 8.97854C14.3922 9.49167 14.4557 10.1598 14.7653 10.6678C15.3912 11.6945 16.7102 11.7257 17.7192 11.3525C18.8862 10.9209 19.6736 9.89772 19.6736 8.38429C19.6736 6.50956 18.0251 4.73078 16.1502 4.73078C14.8793 4.73078 13.4846 5.19559 12.3571 6.46256C12.3571 4.58783 10.8376 3.01172 8.96258 3.01172C7.08761 3.01172 5.56804 4.53153 5.56804 6.40626C5.56804 6.65128 5.59448 6.89043 5.64343 7.12076C5.74232 7.58412 5.93618 8.01248 6.20348 8.38429H6.19075C4.45872 8.38429 3.05469 9.78808 3.05469 11.5199C3.05469 13.2516 4.37629 14.6036 6.10832 14.6036C6.94161 14.6036 7.95968 13.9476 7.95968 12.9516C7.95968 11.9556 7.42731 11.3373 6.4141 11.1484" stroke="black" stroke-width="1.5" stroke-linecap="round" stroke-linejoin="round"/>
<path d="M6.7373 20.528C9.73453 20.763 12.4073 17.2409 15.246 17.683C16.1082 17.8173 16.9946 18.3878 17.0873 19.3695C17.1587 20.125 16.7648 20.693 16.1796 20.9094C15.4066 21.1953 14.5529 20.6723 14.4746 19.8504" stroke="black" stroke-width="1.5" stroke-linecap="round" stroke-linejoin="round"/>
<path d="M6.87891 17.7497C5.66161 17.6543 4.49409 18.1352 3.34793 18.7451" stroke="black" stroke-width="1.5" stroke-linecap="round" stroke-linejoin="round"/>
</svg>