<svg width="25" height="24" viewBox="0 0 25 24" fill="none" xmlns="http://www.w3.org/2000/svg">
<path opacity="0.4" fill-rule="evenodd" clip-rule="evenodd" d="M12.5005 2.50488C7.26149 2.50488 3.00049 6.76688 3.00049 12.0049C3.00049 17.2429 7.26149 21.5049 12.5005 21.5049C17.7385 21.5049 22.0005 17.2429 22.0005 12.0049C22.0005 6.76688 17.7385 2.50488 12.5005 2.50488Z" fill="black"/>
<path d="M13.4445 12.7532C13.8585 12.7532 14.1945 12.4172 14.1945 12.0032C14.1945 11.5892 13.8585 11.2532 13.4445 11.2532H13.4355C13.0215 11.2532 12.6905 11.5892 12.6905 12.0032C12.6905 12.4172 13.0305 12.7532 13.4445 12.7532Z" fill="black"/>
<path d="M14.0625 16.2932L16.4475 13.9032C16.7405 13.6092 16.7405 13.1352 16.4475 12.8422C16.1545 12.5512 15.6775 12.5502 15.3865 12.8432L13.5315 14.7012L10.8345 12.0032L13.5315 9.30419L15.2555 11.0322C15.5475 11.3262 16.0215 11.3262 16.3155 11.0342C16.6095 10.7412 16.6095 10.2672 16.3175 9.97419L14.0625 7.71319C13.9225 7.57119 13.7305 7.49219 13.5315 7.49219C13.3325 7.49219 13.1415 7.57119 13.0015 7.71219L9.83447 10.8812V8.94219C9.83447 8.52819 9.49847 8.19219 9.08447 8.19219C8.67047 8.19219 8.33447 8.52819 8.33447 8.94219V15.0722C8.33447 15.4862 8.67047 15.8222 9.08447 15.8222C9.49847 15.8222 9.83447 15.4862 9.83447 15.0722V13.1242L13.0015 16.2932C13.1415 16.4342 13.3325 16.5132 13.5315 16.5132C13.7305 16.5132 13.9215 16.4342 14.0625 16.2932Z" fill="black"/>
</svg>