<svg width="24" height="24" viewBox="0 0 24 24" fill="none" xmlns="http://www.w3.org/2000/svg">
<path fill-rule="evenodd" clip-rule="evenodd" d="M13.6945 12.0049C13.6945 12.4189 13.3585 12.7549 12.9445 12.7549C12.5305 12.7549 12.1905 12.4189 12.1905 12.0049C12.1905 11.5909 12.5215 11.2549 12.9355 11.2549H12.9445C13.3585 11.2549 13.6945 11.5909 13.6945 12.0049ZM15.9475 13.9049L13.5625 16.2949C13.4215 16.4359 13.2305 16.5149 13.0315 16.5149C12.8325 16.5149 12.6415 16.4359 12.5015 16.2949L9.33449 13.1259V15.0739C9.33449 15.4879 8.99849 15.8239 8.58449 15.8239C8.17049 15.8239 7.83449 15.4879 7.83449 15.0739V8.94388C7.83449 8.52988 8.17049 8.19388 8.58449 8.19388C8.99849 8.19388 9.33449 8.52988 9.33449 8.94388V10.8829L12.5015 7.71388C12.6415 7.57288 12.8325 7.49388 13.0315 7.49388C13.2305 7.49388 13.4225 7.57288 13.5625 7.71488L15.8175 9.97588C16.1095 10.2689 16.1095 10.7429 15.8155 11.0359C15.5215 11.3279 15.0475 11.3279 14.7555 11.0339L13.0315 9.30588L10.3345 12.0049L13.0315 14.7029L14.8865 12.8449C15.1775 12.5519 15.6545 12.5529 15.9475 12.8439C16.2405 13.1369 16.2405 13.6109 15.9475 13.9049ZM12.0005 2.50488C6.76149 2.50488 2.50049 6.76688 2.50049 12.0049C2.50049 17.2429 6.76149 21.5049 12.0005 21.5049C17.2385 21.5049 21.5005 17.2429 21.5005 12.0049C21.5005 6.76688 17.2385 2.50488 12.0005 2.50488Z" fill="black"/>
</svg>