<svg width="25" height="24" viewBox="0 0 25 24" fill="none" xmlns="http://www.w3.org/2000/svg">
<path d="M12.25 21.75C10.3217 21.75 8.43659 21.1782 6.83321 20.1068C5.22983 19.0355 3.98016 17.5128 3.24221 15.7312C2.50425 13.9496 2.31113 11.9892 2.68734 10.0979C3.06354 8.20656 3.99217 6.46931 5.35573 5.10575C6.7193 3.74219 8.45655 2.81356 10.3479 2.43735C12.2392 2.06115 14.1996 2.25421 15.9812 2.99216C17.7627 3.73012 19.2855 4.97985 20.3568 6.58323C21.4282 8.18661 22 10.0717 22 12C21.9971 14.585 20.9689 17.0632 19.1411 18.8911C17.3132 20.7189 14.835 21.7471 12.25 21.75ZM12.25 3.75004C10.6183 3.75004 9.02329 4.23383 7.66659 5.14036C6.30988 6.04688 5.25243 7.33538 4.62801 8.84287C4.00359 10.3504 3.8402 12.0092 4.15853 13.6095C4.47686 15.2099 5.26262 16.6799 6.4164 17.8337C7.57019 18.9874 9.04018 19.7731 10.6405 20.0915C12.2409 20.4098 13.8997 20.2465 15.4072 19.622C16.9147 18.9976 18.2031 17.9402 19.1096 16.5835C20.0162 15.2268 20.5 13.6317 20.5 12C20.4974 9.81281 19.6273 7.71589 18.0807 6.16929C16.5341 4.62268 14.4372 3.75268 12.25 3.75004Z" fill="black"/>
<path d="M13.2813 16.5072C13.0827 16.5071 12.8921 16.4283 12.7513 16.2882L8.99329 12.5302C8.92359 12.4605 8.86835 12.3778 8.83063 12.2868C8.79291 12.1958 8.77344 12.0982 8.77344 11.9997C8.77344 11.9012 8.79291 11.8036 8.83063 11.7126C8.86835 11.6216 8.92359 11.5388 8.99329 11.4692L12.7503 7.71118C12.8911 7.57104 13.0817 7.49232 13.2803 7.49219C13.4793 7.49227 13.6701 7.57098 13.8113 7.71118L16.0653 9.96716C16.137 10.0363 16.1942 10.1191 16.2335 10.2106C16.2729 10.3021 16.2936 10.4004 16.2945 10.5C16.2954 10.5996 16.2765 10.6984 16.2388 10.7906C16.2012 10.8828 16.1455 10.9665 16.0751 11.037C16.0047 11.1074 15.921 11.1632 15.8289 11.2009C15.7367 11.2387 15.638 11.2577 15.5384 11.2568C15.4388 11.256 15.3404 11.2354 15.2488 11.1962C15.1573 11.1569 15.0745 11.0998 15.0053 11.0282L13.2803 9.30219L10.5803 12.0022L13.2803 14.7022L15.1363 12.8442C15.2778 12.7076 15.4673 12.6321 15.6639 12.6339C15.8606 12.6357 16.0487 12.7147 16.1877 12.8538C16.3267 12.9929 16.4054 13.1811 16.407 13.3777C16.4087 13.5744 16.333 13.7638 16.1963 13.9052L13.8113 16.2932C13.6695 16.4313 13.4792 16.5082 13.2813 16.5072Z" fill="black"/>
<path d="M13.1934 12.75C12.9945 12.7511 12.8033 12.673 12.6619 12.5331C12.5205 12.3932 12.4405 12.2029 12.4395 12.004C12.4384 11.8051 12.5164 11.6139 12.6563 11.4725C12.7962 11.3311 12.9865 11.2511 13.1854 11.25H13.1934C13.3923 11.25 13.5831 11.329 13.7238 11.4697C13.8644 11.6103 13.9434 11.8011 13.9434 12C13.9434 12.1989 13.8644 12.3897 13.7238 12.5303C13.5831 12.671 13.3923 12.75 13.1934 12.75Z" fill="black"/>
<path d="M8.83203 15.8136C8.63312 15.8136 8.44235 15.7346 8.3017 15.5939C8.16104 15.4533 8.08203 15.2625 8.08203 15.0636V8.93359C8.08203 8.73468 8.16104 8.54391 8.3017 8.40326C8.44235 8.26261 8.63312 8.18359 8.83203 8.18359C9.03094 8.18359 9.22171 8.26261 9.36237 8.40326C9.50302 8.54391 9.58203 8.73468 9.58203 8.93359V15.0636C9.58203 15.2625 9.50302 15.4533 9.36237 15.5939C9.22171 15.7346 9.03094 15.8136 8.83203 15.8136Z" fill="black"/>
</svg>