<svg width="24" height="24" viewBox="0 0 24 24" fill="none" xmlns="http://www.w3.org/2000/svg">
<path opacity="0.4" fill-rule="evenodd" clip-rule="evenodd" d="M4.75879 9.76154C4.75879 12.427 6.19138 14.7542 8.32692 16.0145C8.47061 16.0993 8.63554 16.1399 8.8024 16.1399H15.3191C15.4878 16.1399 15.6544 16.0985 15.7992 16.0119C18.3239 14.5008 19.8507 11.4678 19.1755 8.21353C18.5954 5.43169 16.3495 3.20175 13.5698 2.63284C8.89296 1.68455 4.75879 5.2349 4.75879 9.76154Z" fill="black"/>
<path d="M14.7722 17.3008C15.0484 17.3008 15.2722 17.5246 15.2722 17.8008V18.1436C15.2722 19.9163 13.8243 21.3627 12.0531 21.3627C10.2819 21.3627 8.83398 19.9163 8.83398 18.1436V17.8008C8.83398 17.5246 9.05784 17.3008 9.33398 17.3008H14.7722Z" fill="black"/>
</svg>