<svg width="25" height="24" viewBox="0 0 25 24" fill="none" xmlns="http://www.w3.org/2000/svg">
<path d="M12.7657 13.991V20.2495H16.1967C16.6109 20.2495 16.9467 20.5853 16.9467 20.9995C16.9467 21.4137 16.6109 21.7495 16.1967 21.7495H7.83301C7.41879 21.7495 7.08301 21.4137 7.08301 20.9995C7.08301 20.5853 7.41879 20.2495 7.83301 20.2495H11.2657V13.9844L12.7657 13.991Z" fill="black"/>
<path opacity="0.4" d="M7.59296 4.30885C7.8928 3.23992 8.86779 2.5 9.97849 2.5H14.0105C15.1193 2.5 16.0935 3.23599 16.3948 4.30302L18.4828 11.6898C18.8125 12.8562 17.9331 14.0144 16.7199 14.0091L16.63 14.0087V15.9799C16.63 16.3942 16.2942 16.7299 15.88 16.7299C15.4658 16.7299 15.13 16.3942 15.13 15.9799V14.002L12.7657 13.9915L11.2657 13.9849L7.28503 13.9672C6.08182 13.9605 5.21253 12.8109 5.53698 11.6512L7.59296 4.30885Z" fill="black"/>
</svg>