<svg width="24" height="24" viewBox="0 0 24 24" fill="none" xmlns="http://www.w3.org/2000/svg">
<path d="M17.3132 12.9478V8.84392M17.3132 12.9478L13.772 10.8972L6.68786 15.0027M17.3132 12.9478L10.2301 17.0538M17.3132 8.84392L20.6958 6.88369M17.3132 8.84392L13.9265 6.88369M6.68786 15.0027L10.2301 17.0538M6.68786 15.0027L6.68797 6.94255M10.2301 17.0538V20.987M6.68797 6.94255L10.0743 4.9818M6.68797 6.94255L3.29785 4.98047" stroke="black" stroke-width="1.5" stroke-linecap="round" stroke-linejoin="round"/>
<path d="M13.7718 10.898V7.38135C13.7718 7.01845 13.9651 6.68301 14.279 6.501L16.8039 5.0373C17.1193 4.85441 17.5086 4.85431 17.8241 5.03704L20.3474 6.49813C20.6616 6.68007 20.8551 7.01565 20.8551 7.37874V10.3096C20.8551 10.6726 20.6617 11.0081 20.3477 11.1901L17.8204 12.6545C17.5063 12.8365 17.313 13.172 17.313 13.535L17.313 16.4658C17.313 16.8288 17.1197 17.1642 16.8057 17.3462L10.7388 20.8628C10.4233 21.0456 10.0342 21.0457 9.71863 20.8631L3.65227 17.3509C3.33802 17.169 3.14453 16.8334 3.14453 16.4703V5.4793C3.14453 5.11619 3.33801 4.7806 3.65225 4.59866L6.17689 3.13695C6.49222 2.95438 6.88111 2.95435 7.19647 3.13686L9.72195 4.59847C10.0363 4.78038 10.2298 5.11602 10.2298 5.47919V12.9505" stroke="black" stroke-width="1.5" stroke-linecap="round" stroke-linejoin="round"/>
</svg>