<svg width="24" height="24" viewBox="0 0 24 24" fill="none" xmlns="http://www.w3.org/2000/svg">
<circle cx="12" cy="12" r="9" stroke="black" stroke-width="1.5" stroke-linecap="round" stroke-linejoin="round"/>
<path d="M17 10.426C16.764 8.97642 14.6007 8.80384 13.954 9.88445C13.5388 10.5783 13.8218 11.453 14.5637 11.7319C15.5193 12.0913 17 11.8666 17 13.3017C17 14.6871 15.6883 14.9283 14.7201 14.7743C12.6231 14.441 12.3933 11.5102 11.1324 10.102C10.6943 9.61272 9.98392 9.29082 9.31561 9.29082C7.97857 9.29082 7 10.5212 7 12.0152C7 13.5091 7.87331 14.6592 9.21035 14.6592C9.57807 14.6592 10.1043 14.5946 10.5929 14.355" stroke="black" stroke-width="1.5" stroke-linecap="round" stroke-linejoin="round"/>
</svg>