<svg width="24" height="24" viewBox="0 0 24 24" fill="none" xmlns="http://www.w3.org/2000/svg">
<path fill-rule="evenodd" clip-rule="evenodd" d="M18.751 6.24163C20.104 6.46334 21.4671 7.3646 21.7403 9.04234C21.8068 9.45117 21.5294 9.83655 21.1205 9.90311C20.7117 9.96967 20.3263 9.69221 20.2597 9.28338C20.1195 8.42179 19.4262 7.87227 18.5084 7.72189C17.5637 7.56708 16.648 7.88418 16.2263 8.47324C15.6625 9.26104 15.9355 10.3863 16.7048 10.7395C17.0396 10.8932 17.4595 10.9912 17.9728 11.0909C18.0509 11.1061 18.1317 11.1214 18.2145 11.1371C18.6416 11.2179 19.1215 11.3087 19.5585 11.4458C20.0885 11.612 20.6534 11.8733 21.0817 12.3587C21.5251 12.8613 21.75 13.5208 21.75 14.3391C21.75 15.0847 21.572 15.7247 21.2349 16.2496C20.8988 16.7731 20.4326 17.1381 19.9246 17.3805C18.9307 17.8547 17.7358 17.8828 16.7784 17.7306C14.4998 17.3684 13.3038 15.582 12.4326 13.8468C12.2106 13.4047 12.0022 12.9499 11.8009 12.5066C11.7785 12.4573 11.7562 12.4082 11.734 12.3593C11.5546 11.9638 11.3801 11.5793 11.1991 11.2058C10.7899 10.3615 10.3751 9.63344 9.87952 9.07996C9.23238 8.3572 8.15645 7.86958 7.1681 7.86958C5.29815 7.86958 3.75 9.61434 3.75 12.0234C3.75 14.4511 5.124 16.0327 6.97863 16.0327C7.81458 16.0327 9.05869 15.8227 9.93319 15.026C10.2394 14.7471 10.7137 14.7691 10.9927 15.0753C11.2716 15.3815 11.2496 15.8559 10.9434 16.1349C9.66947 17.2954 7.97911 17.5327 6.97863 17.5327C4.01993 17.5327 2.25 14.974 2.25 12.0234C2.25 9.05428 4.22471 6.36958 7.1681 6.36958C8.58568 6.36958 10.0671 7.04081 10.997 8.07937C11.6362 8.79328 12.1242 9.67524 12.5489 10.5517C12.7388 10.9434 12.9215 11.346 13.0999 11.7393C13.1222 11.7884 13.1444 11.8374 13.1666 11.8862C13.368 12.3297 13.5656 12.7606 13.7731 13.1738C14.6198 14.8601 15.518 16.0114 17.0139 16.2492C17.7993 16.3741 18.6563 16.3237 19.2786 16.0267C19.5787 15.8835 19.8118 15.6897 19.9728 15.439C20.1328 15.1898 20.25 14.8404 20.25 14.3391C20.25 13.8085 20.1116 13.5265 19.9569 13.3511C19.787 13.1586 19.5188 13.0054 19.1095 12.877C18.7641 12.7686 18.3878 12.6971 17.9611 12.616C17.8719 12.599 17.7805 12.5816 17.6867 12.5634C17.1764 12.4643 16.595 12.3395 16.079 12.1027C14.3075 11.2895 13.9914 9.01851 15.0066 7.6002C15.8557 6.41385 17.4251 6.02435 18.751 6.24163Z" fill="black"/>
</svg>