<svg width="24" height="24" viewBox="0 0 24 24" fill="none" xmlns="http://www.w3.org/2000/svg">
<path fill-rule="evenodd" clip-rule="evenodd" d="M12 3.75C7.44365 3.75 3.75 7.44365 3.75 12C3.75 16.5563 7.44365 20.25 12 20.25C16.5563 20.25 20.25 16.5563 20.25 12C20.25 7.44365 16.5563 3.75 12 3.75ZM2.25 12C2.25 6.61522 6.61522 2.25 12 2.25C17.3848 2.25 21.75 6.61522 21.75 12C21.75 17.3848 17.3848 21.75 12 21.75C6.61522 21.75 2.25 17.3848 2.25 12Z" fill="black"/>
<path fill-rule="evenodd" clip-rule="evenodd" d="M15.7329 8.46336C16.6029 8.58262 17.5537 9.15967 17.7403 10.3055C17.8068 10.7143 17.5294 11.0997 17.1205 11.1662C16.7117 11.2328 16.3263 10.9553 16.2597 10.5465C16.2103 10.2427 15.9614 10.0087 15.5291 9.94946C15.0695 9.88645 14.7181 10.0681 14.5976 10.2696C14.4072 10.5877 14.5513 10.926 14.8277 11.0299C14.9962 11.0933 15.2042 11.1364 15.4875 11.1902C15.5033 11.1932 15.5194 11.1962 15.5358 11.1993C15.7851 11.2465 16.0963 11.3053 16.3838 11.4041C16.697 11.5116 17.0561 11.6895 17.3322 12.0242C17.6188 12.3716 17.75 12.8068 17.75 13.3017C17.75 13.7702 17.6376 14.1903 17.411 14.5432C17.1853 14.8946 16.8746 15.1354 16.5461 15.2922C15.9114 15.595 15.1724 15.6057 14.6023 15.515C13.1625 15.2861 12.4319 14.1526 11.9424 13.1778C11.8159 12.9257 11.6977 12.6677 11.5859 12.4215C11.5734 12.394 11.561 12.3667 11.5487 12.3396C11.4488 12.1193 11.3537 11.9097 11.2551 11.7063C11.0312 11.2444 10.817 10.8741 10.5736 10.6023C10.2769 10.2709 9.76931 10.0408 9.31561 10.0408C8.51529 10.0408 7.75 10.8013 7.75 12.0152C7.75 13.2477 8.42535 13.9092 9.21035 13.9092C9.50473 13.9092 9.90828 13.8554 10.2627 13.6816C10.6345 13.4992 11.0839 13.6528 11.2663 14.0247C11.4487 14.3966 11.2951 14.8459 10.9232 15.0283C10.3003 15.3339 9.6514 15.4092 9.21035 15.4092C7.32128 15.4092 6.25 13.7706 6.25 12.0152C6.25 10.2412 7.44185 8.54082 9.31561 8.54082C10.1985 8.54082 11.1117 8.95453 11.6911 9.60168C12.0782 10.034 12.3655 10.5581 12.6049 11.0522C12.7124 11.2739 12.8157 11.5016 12.9146 11.7196C12.927 11.7469 12.9393 11.7741 12.9516 11.8011C13.0635 12.0475 13.1709 12.2815 13.283 12.5047C13.7479 13.4307 14.1807 13.9292 14.8378 14.0336C15.236 14.0969 15.637 14.064 15.9001 13.9384C16.0206 13.8809 16.0983 13.8113 16.1489 13.7326C16.1984 13.6554 16.25 13.5259 16.25 13.3017C16.25 13.079 16.1961 13.0041 16.1752 12.9788C16.1438 12.9408 16.0731 12.8833 15.8966 12.8227C15.7139 12.76 15.4986 12.7191 15.2101 12.6643L15.2061 12.6635C14.9431 12.6136 14.6084 12.55 14.2997 12.4339C13.0924 11.9799 12.6704 10.5689 13.3104 9.49933C13.8365 8.62017 14.8902 8.34784 15.7329 8.46336Z" fill="black"/>
</svg>