<svg width="25" height="25" viewBox="0 0 25 25" fill="none" xmlns="http://www.w3.org/2000/svg">
<path fill-rule="evenodd" clip-rule="evenodd" d="M11.5362 18.3138C11.5362 16.7083 10.2353 15.4075 8.62992 15.4075C7.0245 15.4075 5.72266 16.7083 5.72266 18.3138C5.72266 19.9192 7.0245 21.22 8.62992 21.22C10.2353 21.22 11.5362 19.9192 11.5362 18.3138Z" stroke="black" stroke-width="1.5" stroke-linecap="round" stroke-linejoin="round"/>
<path d="M3.25 3.91602H5.11228L7.97673 15.4828" stroke="black" stroke-width="1.5" stroke-linecap="round" stroke-linejoin="round"/>
<path d="M6.03543 7.64062L4.02817 8.70701C3.49887 8.9882 3.27606 9.62939 3.51639 10.1782L6.23002 16.376" stroke="black" stroke-width="1.5" stroke-linecap="round" stroke-linejoin="round"/>
<path fill-rule="evenodd" clip-rule="evenodd" d="M21.25 19.2366C21.25 18.141 20.3617 17.2527 19.2661 17.2527C18.1696 17.2527 17.2812 18.141 17.2812 19.2366C17.2812 20.3322 18.1696 21.2205 19.2661 21.2205C20.3617 21.2205 21.25 20.3322 21.25 19.2366Z" stroke="black" stroke-width="1.5" stroke-linecap="round" stroke-linejoin="round"/>
<path d="M14.6738 15.6658H15.9475" stroke="black" stroke-width="1.5" stroke-linecap="round" stroke-linejoin="round"/>
<path d="M11.5352 18.8499H17.2806" stroke="black" stroke-width="1.5" stroke-linecap="round" stroke-linejoin="round"/>
<path d="M6.78906 10.6907L19.0865 13.4578C19.9466 13.6534 20.5285 14.4551 20.4477 15.3328L20.2454 17.5181" stroke="black" stroke-width="1.5" stroke-linecap="round" stroke-linejoin="round"/>
<path d="M11.0605 8.44556L17.7566 9.96535" stroke="black" stroke-width="1.5" stroke-linecap="round" stroke-linejoin="round"/>
</svg>