<svg width="25" height="24" viewBox="0 0 25 24" fill="none" xmlns="http://www.w3.org/2000/svg">
<path fill-rule="evenodd" clip-rule="evenodd" d="M11.5362 17.7461C11.5362 16.1407 10.2353 14.8398 8.62992 14.8398C7.0245 14.8398 5.72266 16.1407 5.72266 17.7461C5.72266 19.3515 7.0245 20.6524 8.62992 20.6524C10.2353 20.6524 11.5362 19.3515 11.5362 17.7461Z" stroke="black" stroke-width="1.5" stroke-linecap="round" stroke-linejoin="round"/>
<path d="M3.25 3.34766H5.11228L7.97673 14.9144" stroke="black" stroke-width="1.5" stroke-linecap="round" stroke-linejoin="round"/>
<path opacity="0.4" d="M6.03543 7.07227L4.02817 8.13865C3.49887 8.41984 3.27606 9.06103 3.51639 9.60979L6.23002 15.8077" stroke="black" stroke-width="1.5" stroke-linecap="round" stroke-linejoin="round"/>
<path fill-rule="evenodd" clip-rule="evenodd" d="M21.25 18.6675C21.25 17.5719 20.3617 16.6836 19.2661 16.6836C18.1696 16.6836 17.2812 17.5719 17.2812 18.6675C17.2812 19.7631 18.1696 20.6514 19.2661 20.6514C20.3617 20.6514 21.25 19.7631 21.25 18.6675Z" stroke="black" stroke-width="1.5" stroke-linecap="round" stroke-linejoin="round"/>
<path opacity="0.4" d="M14.6738 15.0977H15.9475" stroke="black" stroke-width="1.5" stroke-linecap="round" stroke-linejoin="round"/>
<path d="M11.5352 18.2812H17.2806" stroke="black" stroke-width="1.5" stroke-linecap="round" stroke-linejoin="round"/>
<path d="M6.78906 10.123L19.0865 12.8902C19.9466 13.0858 20.5285 13.8875 20.4477 14.7651L20.2454 16.9504" stroke="black" stroke-width="1.5" stroke-linecap="round" stroke-linejoin="round"/>
<path opacity="0.4" d="M11.0605 7.87695L17.7566 9.39675" stroke="black" stroke-width="1.5" stroke-linecap="round" stroke-linejoin="round"/>
</svg>