<svg width="25" height="25" viewBox="0 0 25 25" fill="none" xmlns="http://www.w3.org/2000/svg">
<path d="M17.6037 10.0894L19.2437 10.9766L19.6442 11.2016C20.4973 11.6809 20.4973 12.9166 19.6442 13.3959L14.2112 16.4483C12.9512 17.1562 11.4168 17.1562 10.1568 16.4483L4.72382 13.3959C3.87071 12.9166 3.87071 11.6809 4.72382 11.2016L5.12425 10.9766L6.72042 10.0625" stroke="black" stroke-width="1.5"/>
<path d="M17.6734 14.502L19.485 15.4232C20.3817 15.8746 20.4104 17.1523 19.535 17.6442L14.2106 20.6356C12.9506 21.3435 11.4162 21.3435 10.1562 20.6356L4.90939 17.6878C4.01892 17.1875 4.06799 15.8815 4.99344 15.4504L6.81839 14.5722" stroke="black" stroke-width="1.5"/>
<path d="M10.1568 3.6989L4.72382 6.75131C3.87071 7.23061 3.87071 8.46631 4.72382 8.94562L10.1568 11.998C11.4168 12.7059 12.9512 12.7059 14.2112 11.998L19.6442 8.94562C20.4973 8.46631 20.4973 7.23061 19.6442 6.75131L14.2112 3.69891C12.9512 2.99099 11.4168 2.99099 10.1568 3.6989Z" stroke="black" stroke-width="1.5"/>
</svg>