<svg width="25" height="25" viewBox="0 0 25 25" fill="none" xmlns="http://www.w3.org/2000/svg">
<path fill-rule="evenodd" clip-rule="evenodd" d="M7.34314 10.7138L5.74162 11.6309L5.34118 11.8559C4.99825 12.0486 4.99825 12.5498 5.34118 12.7425L10.7741 15.7949C11.806 16.3746 13.062 16.3746 14.0938 15.7949L19.5268 12.7425C19.8697 12.5498 19.8697 12.0486 19.5268 11.8559L19.1316 11.6339L17.4968 10.7495L18.2105 9.4302L19.8611 10.3231L20.2615 10.5482C21.6248 11.3141 21.6248 13.2843 20.2615 14.0502L14.8286 17.1026C13.3404 17.9387 11.5276 17.9387 10.0394 17.1026L4.60645 14.0502C3.24316 13.2843 3.24316 11.3141 4.60645 10.5482L5.0042 10.3247L6.59769 9.41211L7.34314 10.7138Z" fill="black"/>
<path fill-rule="evenodd" clip-rule="evenodd" d="M19.395 16.0923L17.5834 15.171L18.2634 13.834L20.0722 14.7539C20.0727 14.7541 20.0732 14.7544 20.0738 14.7546C21.5058 15.4769 21.5505 17.5131 20.1524 18.2986L14.8279 21.29C13.3398 22.1261 11.5269 22.1261 10.0388 21.29L4.79203 18.3422C3.3712 17.5439 3.44651 15.465 4.92202 14.7733L6.74319 13.8969L7.3936 15.2486L5.56019 16.1308C5.18934 16.3036 5.16817 16.833 5.52675 17.0345L10.7735 19.9823C11.8054 20.562 13.0613 20.562 14.0932 19.9823L19.4177 16.9908C19.7699 16.7929 19.7575 16.2748 19.3978 16.0937L19.395 16.0923Z" fill="black"/>
<path fill-rule="evenodd" clip-rule="evenodd" d="M14.0938 4.35277C13.062 3.77303 11.806 3.77303 10.7741 4.35277L5.34118 7.40518C4.99825 7.59785 4.99825 8.09908 5.34118 8.29175L10.7741 11.3442C11.806 11.9239 13.062 11.9239 14.0938 11.3442L19.5268 8.29175C19.8697 8.09908 19.8697 7.59785 19.5268 7.40518L14.0938 4.35277ZM10.0394 3.04504C11.5276 2.20895 13.3404 2.20895 14.8286 3.04504L20.2615 6.09744C21.6248 6.86338 21.6248 8.83355 20.2615 9.59948L14.8286 12.6519C13.3404 13.488 11.5276 13.488 10.0394 12.6519L4.60645 9.59948L4.97382 8.94562L4.60645 9.59948C3.24316 8.83354 3.24317 6.86338 4.60645 6.09744L10.0394 3.04504Z" fill="black"/>
</svg>