<svg width="25" height="24" viewBox="0 0 25 24" fill="none" xmlns="http://www.w3.org/2000/svg">
<path fill-rule="evenodd" clip-rule="evenodd" d="M6.25 3.75C5.00736 3.75 4 4.75736 4 6V18C4 19.2426 5.00736 20.25 6.25 20.25H18.25C19.4926 20.25 20.5 19.2426 20.5 18V6C20.5 4.75736 19.4926 3.75 18.25 3.75H6.25ZM2.5 6C2.5 3.92893 4.17893 2.25 6.25 2.25H18.25C20.3211 2.25 22 3.92893 22 6V18C22 20.0711 20.3211 21.75 18.25 21.75H6.25C4.17893 21.75 2.5 20.0711 2.5 18V6Z" fill="black"/>
<path fill-rule="evenodd" clip-rule="evenodd" d="M2.5 9C2.5 8.58579 2.83579 8.25 3.25 8.25H9.25C9.66421 8.25 10 8.58579 10 9C10 9.41421 9.66421 9.75 9.25 9.75H3.25C2.83579 9.75 2.5 9.41421 2.5 9Z" fill="black"/>
<path fill-rule="evenodd" clip-rule="evenodd" d="M15.25 14.25C15.6642 14.25 16 14.5858 16 15V21C16 21.4142 15.6642 21.75 15.25 21.75C14.8358 21.75 14.5 21.4142 14.5 21V15C14.5 14.5858 14.8358 14.25 15.25 14.25Z" fill="black"/>
<path fill-rule="evenodd" clip-rule="evenodd" d="M2.5 15C2.5 14.5858 2.83579 14.25 3.25 14.25H21.25C21.6642 14.25 22 14.5858 22 15C22 15.4142 21.6642 15.75 21.25 15.75H3.25C2.83579 15.75 2.5 15.4142 2.5 15Z" fill="black"/>
<path fill-rule="evenodd" clip-rule="evenodd" d="M9.25 2.25C9.66421 2.25 10 2.58579 10 3V21C10 21.4142 9.66421 21.75 9.25 21.75C8.83579 21.75 8.5 21.4142 8.5 21V3C8.5 2.58579 8.83579 2.25 9.25 2.25Z" fill="black"/>
</svg>