<svg width="24" height="24" viewBox="0 0 24 24" fill="none" xmlns="http://www.w3.org/2000/svg">
<path fill-rule="evenodd" clip-rule="evenodd" d="M2.25 12C2.25 6.61487 6.61487 2.25 12 2.25C17.3851 2.25 21.75 6.61487 21.75 12C21.75 17.3841 17.3852 21.75 12 21.75C6.61481 21.75 2.25 17.3841 2.25 12ZM12 3.75C7.44329 3.75 3.75 7.44329 3.75 12C3.75 16.5558 7.44335 20.25 12 20.25C16.5567 20.25 20.25 16.5558 20.25 12C20.25 7.44329 16.5567 3.75 12 3.75Z" fill="black"/>
<path fill-rule="evenodd" clip-rule="evenodd" d="M15.2679 8.73383C15.5608 9.02672 15.5608 9.5016 15.2679 9.79449L11.078 13.9844L13.5393 13.9794C13.9535 13.9785 14.29 14.3136 14.2908 14.7278C14.2917 15.142 13.9566 15.4785 13.5424 15.4794L9.26521 15.4881C9.06579 15.4885 8.87443 15.4095 8.7334 15.2685C8.59238 15.1275 8.51331 14.9362 8.51367 14.7367L8.52143 10.4586C8.52219 10.0444 8.85858 9.7092 9.27279 9.70995C9.68701 9.7107 10.0222 10.0471 10.0214 10.4613L10.017 12.9242L14.2073 8.73383C14.5002 8.44094 14.9751 8.44094 15.2679 8.73383Z" fill="black"/>
</svg>