<svg width="24" height="24" viewBox="0 0 24 24" fill="none" xmlns="http://www.w3.org/2000/svg">
<path fill-rule="evenodd" clip-rule="evenodd" d="M16.7104 10.1083C17.0033 10.4012 17.0033 10.8761 16.7104 11.169L9.63328 18.2461L14.725 18.2353C15.1392 18.2344 15.4757 18.5695 15.4766 18.9837C15.4775 19.3979 15.1424 19.7344 14.7282 19.7353L7.82396 19.7499C7.67267 19.7503 7.52601 19.7049 7.40245 19.6214C7.36277 19.5947 7.32507 19.5638 7.28998 19.5287C7.12907 19.3678 7.05656 19.152 7.07246 18.9415L7.0839 12.0913C7.08459 11.6771 7.42094 11.3419 7.83515 11.3426C8.24936 11.3433 8.58459 11.6796 8.58389 12.0938L8.5754 17.1827L15.6497 10.1083C15.9426 9.81545 16.4175 9.81545 16.7104 10.1083Z" fill="black"/>
<path fill-rule="evenodd" clip-rule="evenodd" d="M5.33789 5C5.33789 4.58579 5.67368 4.25 6.08789 4.25H17.9134C18.3276 4.25 18.6634 4.58579 18.6634 5C18.6634 5.41421 18.3276 5.75 17.9134 5.75H6.08789C5.67368 5.75 5.33789 5.41421 5.33789 5Z" fill="black"/>
</svg>