<svg width="24" height="24" viewBox="0 0 24 24" fill="none" xmlns="http://www.w3.org/2000/svg">
<path fill-rule="evenodd" clip-rule="evenodd" d="M18.954 9.88025C18.787 9.70125 18.54 9.59725 18.274 9.59725C17.168 9.59725 16.268 10.4983 16.268 11.6042C16.268 11.6213 16.268 11.6573 16.264 11.6702L16.256 13.7022C16.256 13.9402 16.069 14.1263 15.832 14.1263C15.595 14.1263 15.408 13.9402 15.408 13.7022V5.44325C15.408 5.04725 15.249 4.66125 14.972 4.38225C14.406 3.81825 13.442 3.81525 12.858 4.38525C12.579 4.67825 12.424 5.05425 12.424 5.44325V10.8973C12.424 11.1313 12.234 11.3212 12 11.3212C11.774 11.3212 11.576 11.1233 11.576 10.8973V3.73625C11.576 3.54325 11.537 3.34325 11.465 3.17525C11.392 2.99525 11.283 2.83025 11.139 2.68725C10.995 2.54325 10.83 2.43325 10.652 2.36225C10.289 2.21225 9.87497 2.21325 9.51597 2.36125C9.33697 2.43325 9.17397 2.54325 9.02897 2.68725C8.88497 2.83025 8.77597 2.99525 8.70597 3.17125C8.63197 3.34025 8.59197 3.54125 8.59197 3.73625V10.8973C8.59197 11.1313 8.40197 11.3212 8.16797 11.3212C7.94197 11.3212 7.74397 11.1233 7.74397 10.8973V6.72025C7.74397 5.92225 7.04997 5.22225 6.25697 5.22225C5.45897 5.22225 4.75897 5.91725 4.75897 6.70925V14.5913C4.78297 16.5063 5.54397 18.3033 6.90397 19.6513C8.27997 21.0053 10.09 21.7502 12 21.7502C13.91 21.7502 15.721 21.0053 17.096 19.6513C18.456 18.3033 19.218 16.5022 19.241 14.5772V10.5642C19.241 10.3033 19.141 10.0652 18.954 9.88025Z" fill="black"/>
</svg>