<svg width="24" height="25" viewBox="0 0 24 25" fill="none" xmlns="http://www.w3.org/2000/svg">
<path opacity="0.4" fill-rule="evenodd" clip-rule="evenodd" d="M19.9781 9.00506L15.3061 4.33306C13.3261 2.35406 10.7261 2.29706 8.83312 4.19006L3.87512 9.14806C2.93312 10.0891 2.45812 11.2151 2.50012 12.4041C2.54112 13.5591 3.06612 14.6711 4.01712 15.6221L8.68912 20.2941C9.70512 21.3101 10.8841 21.8191 12.0471 21.8191C13.1511 21.8191 14.2421 21.3591 15.1631 20.4381L20.1211 15.4791C22.0141 13.5861 21.9571 10.9841 19.9781 9.00506Z" fill="black"/>
<path fill-rule="evenodd" clip-rule="evenodd" d="M7.66615 12.3152C7.66615 12.5152 7.74615 12.7062 7.88715 12.8472L10.6901 15.6382C10.8371 15.7832 11.0281 15.8562 11.2201 15.8562C11.4121 15.8562 11.6041 15.7822 11.7511 15.6352C12.0431 15.3412 12.0421 14.8672 11.7491 14.5742L10.2311 13.0632H15.5771C15.9911 13.0632 16.3271 12.7272 16.3271 12.3132C16.3271 11.8992 15.9911 11.5632 15.5771 11.5632H10.2331L11.7491 10.0522C12.0421 9.76024 12.0431 9.28524 11.7511 8.99224C11.4591 8.69924 10.9841 8.69724 10.6901 8.99024L7.89215 11.7792C7.82015 11.8492 7.76315 11.9322 7.72415 12.0262C7.70415 12.0752 7.70215 12.1292 7.69315 12.1812C7.68415 12.2252 7.66615 12.2662 7.66615 12.3132V12.3152Z" fill="black"/>
</svg>