<svg width="24" height="24" viewBox="0 0 24 24" fill="none" xmlns="http://www.w3.org/2000/svg">
<path opacity="0.4" fill-rule="evenodd" clip-rule="evenodd" d="M12 2.5C6.762 2.5 2.5 6.762 2.5 12C2.5 17.238 6.762 21.5 12 21.5C17.238 21.5 21.5 17.238 21.5 12C21.5 6.762 17.238 2.5 12 2.5Z" fill="black"/>
<path fill-rule="evenodd" clip-rule="evenodd" d="M8.52135 10.4565L8.51427 14.7359L8.51357 14.738C8.51357 14.738 8.51427 14.7373 8.51357 14.7408L8.51357 14.7422V14.7451L8.51357 14.7465L8.51357 14.7507L8.51427 14.7529L8.51427 14.7557C8.5164 14.8497 8.53619 14.9402 8.57013 15.0223C8.60408 15.1057 8.65428 15.1842 8.71933 15.2521L8.72146 15.2556L8.73348 15.2676C8.73843 15.2712 8.74762 15.2775 8.7455 15.2796L8.74833 15.2811C8.81479 15.3447 8.88975 15.3928 8.96965 15.4274C9.05592 15.4642 9.15208 15.4854 9.25179 15.4875L9.25532 15.4868L9.25603 15.4875L9.26664 15.4868L13.5425 15.4776C13.9569 15.4762 14.292 15.1396 14.2913 14.726C14.2899 14.3116 13.954 13.9772 13.5397 13.9772L11.0782 13.9835L15.2686 9.79321C15.5613 9.50046 15.5613 9.02529 15.2686 8.73255C14.9758 8.4398 14.5006 8.4398 14.2079 8.73255L10.0169 12.9236L10.0211 10.4586C10.0218 10.0449 9.68736 9.70765 9.273 9.70765C8.85793 9.70694 8.52205 10.0428 8.52135 10.4565Z" fill="black"/>
</svg>