<svg width="24" height="24" viewBox="0 0 24 24" fill="none" xmlns="http://www.w3.org/2000/svg">
<path fill-rule="evenodd" clip-rule="evenodd" d="M15.2724 9.794L11.0824 13.983L13.5434 13.979C13.9574 13.979 14.2934 14.314 14.2944 14.727C14.2954 15.141 13.9604 15.478 13.5464 15.479L9.27238 15.487H9.26738C9.22738 15.487 9.18738 15.484 9.14838 15.478C9.14838 15.478 9.14738 15.478 9.14638 15.478C9.14538 15.478 9.14538 15.478 9.14438 15.477H9.13938C9.13938 15.477 9.13738 15.478 9.13738 15.476H9.13538C9.13438 15.476 9.13338 15.476 9.13238 15.475H9.12838C9.12738 15.474 9.12738 15.474 9.12638 15.474H9.12538C9.12438 15.474 9.12338 15.473 9.12238 15.473C9.12138 15.473 9.12138 15.473 9.12038 15.473C9.12038 15.473 9.11838 15.473 9.11738 15.472C9.11638 15.472 9.11638 15.472 9.11538 15.472C9.11438 15.472 9.11338 15.472 9.11338 15.471C9.11338 15.471 9.11138 15.471 9.11038 15.471C9.06238 15.461 9.01538 15.446 8.97138 15.426C8.90038 15.396 8.83338 15.354 8.77138 15.3C8.74838 15.279 8.72538 15.256 8.70438 15.232C8.65138 15.171 8.60838 15.105 8.57838 15.034C8.56138 14.994 8.54738 14.953 8.53738 14.91V14.908C8.53738 14.908 8.53738 14.906 8.53638 14.905V14.902C8.53438 14.902 8.53538 14.9 8.53538 14.899C8.53538 14.898 8.53538 14.898 8.53438 14.897V14.895C8.52438 14.851 8.51938 14.806 8.51738 14.76V14.733L8.52538 10.457C8.52638 10.044 8.86138 9.709 9.27538 9.709C9.69038 9.71 10.0264 10.045 10.0254 10.46L10.0204 12.923L14.2114 8.733C14.5044 8.44 14.9794 8.44 15.2724 8.733C15.5654 9.026 15.5654 9.501 15.2724 9.794ZM18.7204 5.282C16.9264 3.488 14.5414 2.5 12.0034 2.5C9.46538 2.5 7.08038 3.488 5.28638 5.282C3.49138 7.077 2.50238 9.462 2.50238 12C2.50238 14.538 3.49138 16.923 5.28638 18.717C7.08038 20.511 9.46538 21.5 12.0034 21.5C14.5414 21.5 16.9264 20.511 18.7204 18.717C22.4234 15.013 22.4234 8.986 18.7204 5.282Z" fill="black"/>
</svg>