<svg width="24" height="24" viewBox="0 0 24 24" fill="none" xmlns="http://www.w3.org/2000/svg">
<path fill-rule="evenodd" clip-rule="evenodd" d="M6.53037 8.46971C6.23749 8.17679 5.76262 8.17676 5.46971 8.46963L2.46971 11.4692C2.17679 11.7621 2.17676 12.237 2.46963 12.5299L5.46963 15.5303C5.76251 15.8232 6.23738 15.8232 6.53029 15.5304C6.82321 15.2375 6.82324 14.7626 6.53037 14.4697L4.06066 11.9997L6.53029 9.53037C6.82321 9.23749 6.82324 8.76262 6.53037 8.46971Z" fill="black"/>
<path fill-rule="evenodd" clip-rule="evenodd" d="M21.75 5C21.75 4.58579 21.4142 4.25 21 4.25H5C4.58578 4.25 4.25 4.58579 4.25 5C4.25 5.41421 4.58578 5.75 5 5.75H21C21.4142 5.75 21.75 5.41421 21.75 5Z" fill="black"/>
<path fill-rule="evenodd" clip-rule="evenodd" d="M21.75 19C21.75 18.5858 21.4142 18.25 21 18.25H5C4.58578 18.25 4.25 18.5858 4.25 19C4.25 19.4142 4.58578 19.75 5 19.75H21C21.4142 19.75 21.75 19.4142 21.75 19Z" fill="black"/>
<path fill-rule="evenodd" clip-rule="evenodd" d="M21.75 12C21.75 11.5858 21.4142 11.25 21 11.25H3C2.58578 11.25 2.25 11.5858 2.25 12C2.25 12.4142 2.58578 12.75 3 12.75H21C21.4142 12.75 21.75 12.4142 21.75 12Z" fill="black"/>
</svg>