<svg width="24" height="24" viewBox="0 0 24 24" fill="none" xmlns="http://www.w3.org/2000/svg">
<path fill-rule="evenodd" clip-rule="evenodd" d="M11.8805 10.7506C12.1728 11.0442 12.1717 11.519 11.8782 11.8113L10.8163 12.8685L15 12.8685C15.4142 12.8685 15.75 13.2043 15.75 13.6185C15.75 14.0327 15.4142 14.3685 15 14.3685L10.8151 14.3685L11.8784 15.4282C12.1718 15.7206 12.1727 16.1954 11.8803 16.4888C11.5879 16.7822 11.113 16.7831 10.8196 16.4907L8.47059 14.1498C8.32933 14.009 8.24995 13.8178 8.25 13.6184C8.25005 13.4189 8.32951 13.2277 8.47083 13.087L10.8199 10.7483C11.1134 10.456 11.5883 10.4571 11.8805 10.7506Z" fill="black"/>
<path fill-rule="evenodd" clip-rule="evenodd" d="M13.0324 5.27153C12.5526 4.4396 11.3512 4.44268 10.8756 5.27696L3.91586 17.4917C3.91582 17.4917 3.91589 17.4916 3.91586 17.4917C3.44393 18.3207 4.0428 19.3507 4.99608 19.3507H19.0043C19.9606 19.3507 20.5588 18.3156 20.0808 17.4867C20.0808 17.4866 20.0808 17.4867 20.0808 17.4867L13.0324 5.27153ZM14.3318 4.52203C13.273 2.68656 10.6219 2.6932 9.57246 4.53408L2.61247 16.7493C1.57117 18.5779 2.89153 20.8507 4.99608 20.8507H19.0043C21.1155 20.8507 22.4348 18.5658 21.3801 16.7371L14.3318 4.52203Z" fill="black"/>
</svg>