<svg width="24" height="24" viewBox="0 0 24 24" fill="none" xmlns="http://www.w3.org/2000/svg">
<path d="M15.643 10.1558L18.4901 7.77138C19.0771 7.18436 19.0725 6.22784 18.4797 5.63511C17.887 5.04237 16.9305 5.03773 16.3435 5.62475L13.959 8.47183C13.4985 8.93234 13.5022 9.68268 13.9672 10.1477C14.4329 10.6135 15.1825 10.6163 15.643 10.1558Z" fill="black"/>
<path d="M6.81661 18.8982C6.89878 18.8986 7.22598 18.9203 7.51433 18.9217C9.25869 18.9922 12.9278 18.2906 14.5251 17.6015C14.7711 17.5004 15.3642 17.2157 15.6104 16.9914C15.8349 16.7669 15.9971 16.5003 16.0987 16.193C16.21 15.7936 16.1862 15.3625 16.0308 14.982C15.9172 14.7248 15.4729 14.0553 15.4628 14.0452C14.9663 13.325 14.0381 12.2749 12.9445 11.1813C11.9039 10.1407 10.8943 9.25296 10.184 8.72631C10.1631 8.72543 9.35959 8.14718 9.00016 8.03304C8.34262 7.82445 7.63577 7.99542 7.166 8.46519L7.12512 8.50608C6.829 8.82244 6.45439 9.73449 6.46374 9.74384C5.83559 11.2802 5.11409 14.826 5.19488 16.6223C5.19488 16.6223 5.19413 17.106 5.23954 17.3612C5.29254 17.7413 5.47872 18.091 5.74666 18.3589C6.04575 18.658 6.41561 18.8443 6.81661 18.8982Z" fill="black"/>
</svg>