<svg width="24" height="24" viewBox="0 0 24 24" fill="none" xmlns="http://www.w3.org/2000/svg">
<path fill-rule="evenodd" clip-rule="evenodd" d="M11.6913 8.45222C11.9835 8.74579 11.9824 9.22066 11.6888 9.51287L9.94552 11.2481H15.8699C16.2841 11.2481 16.6199 11.5839 16.6199 11.9981C16.6199 12.4123 16.2841 12.7481 15.8699 12.7481H9.94352L11.6892 14.4884C11.9826 14.7809 11.9833 15.2558 11.6909 15.5491C11.3984 15.8424 10.9235 15.8432 10.6302 15.5507L7.59939 12.5292C7.45817 12.3885 7.37883 12.1972 7.37891 11.9978C7.37898 11.7984 7.45847 11.6072 7.59981 11.4665L10.6306 8.44976C10.9242 8.15754 11.3991 8.15865 11.6913 8.45222Z" fill="black"/>
<path fill-rule="evenodd" clip-rule="evenodd" d="M15.0996 3C15.0996 2.58579 15.4354 2.25 15.8496 2.25H17.1067C19.6712 2.25 21.7495 4.3284 21.7495 6.89286V8.47004C21.7495 8.88425 21.4137 9.22004 20.9995 9.22004C20.5853 9.22004 20.2495 8.88425 20.2495 8.47004V6.89286C20.2495 5.15678 18.8428 3.75 17.1067 3.75H15.8496C15.4354 3.75 15.0996 3.41421 15.0996 3Z" fill="black"/>
<path fill-rule="evenodd" clip-rule="evenodd" d="M6.89286 3.75C5.1568 3.75 3.75 5.1568 3.75 6.89286V8.47004C3.75 8.88425 3.41421 9.22004 3 9.22004C2.58579 9.22004 2.25 8.88425 2.25 8.47004V6.89286C2.25 4.32838 4.32838 2.25 6.89286 2.25H8.18205C8.59626 2.25 8.93205 2.58579 8.93205 3C8.93205 3.41421 8.59626 3.75 8.18205 3.75H6.89286Z" fill="black"/>
<path fill-rule="evenodd" clip-rule="evenodd" d="M3 14.7812C3.41421 14.7812 3.75 15.117 3.75 15.5312V17.1084C3.75 18.8434 5.15668 20.2503 6.89286 20.2503H8.14994C8.56415 20.2503 8.89994 20.5861 8.89994 21.0003C8.89994 21.4146 8.56415 21.7503 8.14994 21.7503H6.89286C4.3285 21.7503 2.25 19.6721 2.25 17.1084V15.5312C2.25 15.117 2.58579 14.7812 3 14.7812Z" fill="black"/>
<path fill-rule="evenodd" clip-rule="evenodd" d="M21.0004 14.7812C21.4146 14.7812 21.7504 15.117 21.7504 15.5312V17.1084C21.7504 19.6721 19.6718 21.7503 17.1075 21.7503H15.8184C15.4041 21.7503 15.0684 21.4146 15.0684 21.0003C15.0684 20.5861 15.4041 20.2503 15.8184 20.2503H17.1075C18.8437 20.2503 20.2504 18.8434 20.2504 17.1084V15.5312C20.2504 15.117 20.5861 14.7812 21.0004 14.7812Z" fill="black"/>
</svg>