<svg width="24" height="24" viewBox="0 0 24 24" fill="none" xmlns="http://www.w3.org/2000/svg">
<path fill-rule="evenodd" clip-rule="evenodd" d="M4 7.05859C4.41421 7.05859 4.75 7.39438 4.75 7.80859V11.8997H8.84114C9.25535 11.8997 9.59114 12.2355 9.59114 12.6497C9.59114 13.0639 9.25535 13.3997 8.84114 13.3997H4C3.58579 13.3997 3.25 13.0639 3.25 12.6497V7.80859C3.25 7.39438 3.58579 7.05859 4 7.05859Z" fill="black"/>
<path fill-rule="evenodd" clip-rule="evenodd" d="M11.6201 8.55859C8.56 8.55859 5.91788 10.36 4.70349 12.9674C4.52861 13.3429 4.08245 13.5055 3.70696 13.3306C3.33148 13.1557 3.16886 12.7095 3.34374 12.3341C4.79546 9.21713 7.95604 7.05859 11.6201 7.05859C16.6607 7.05859 20.7506 11.1485 20.7506 16.1892C20.7506 16.6034 20.4149 16.9392 20.0006 16.9392C19.5864 16.9392 19.2506 16.6034 19.2506 16.1892C19.2506 11.9769 15.8323 8.55859 11.6201 8.55859Z" fill="black"/>
</svg>