<svg width="25" height="24" viewBox="0 0 25 24" fill="none" xmlns="http://www.w3.org/2000/svg">
<path opacity="0.4" d="M16.2289 6.44051V7.80655M13.3809 8.22991C13.3809 8.67844 13.5128 9.12406 13.7838 9.48211C14.5748 10.528 15.8649 11.2013 17.2689 11.2013H18.3899V17.4555C18.3899 18.3175 19.0859 19.0161 19.9449 19.0161C20.8029 19.0161 21.4998 18.3175 21.4998 17.4555V7.32116C21.4998 4.95006 19.2078 2.89518 16.8438 3.00415C15.5998 3.06739 14.4959 3.69106 13.7849 4.63288C13.5149 4.99093 13.3809 5.43654 13.3809 5.88702V8.22991Z" stroke="black" stroke-width="1.5" stroke-linecap="round" stroke-linejoin="round"/>
<path d="M10.2425 4.79314C8.86546 4.57422 7.57247 5.51799 7.35547 6.89959" stroke="black" stroke-width="1.5" stroke-linecap="round" stroke-linejoin="round"/>
<path d="M8.798 10.2991C5.872 10.2991 3.5 12.6789 3.5 15.6153C3.5 18.5517 5.872 20.9325 8.798 20.9325C11.723 20.9325 14.096 18.5517 14.096 15.6153C14.096 12.6789 11.723 10.2991 8.798 10.2991Z" stroke="black" stroke-width="1.5" stroke-linecap="round" stroke-linejoin="round"/>
<path d="M7.88281 13.3567V17.1989H10.1988" stroke="black" stroke-width="1.5" stroke-linecap="round" stroke-linejoin="round"/>
</svg>