<svg width="24" height="24" viewBox="0 0 24 24" fill="none" xmlns="http://www.w3.org/2000/svg">
<path fill-rule="evenodd" clip-rule="evenodd" d="M11.6913 8.45221C11.9835 8.74578 11.9824 9.22065 11.6888 9.51287L9.94552 11.2481H15.8699C16.2841 11.2481 16.6199 11.5839 16.6199 11.9981C16.6199 12.4123 16.2841 12.7481 15.8699 12.7481H9.94352L11.6892 14.4884C11.9826 14.7809 11.9833 15.2557 11.6909 15.5491C11.3984 15.8424 10.9235 15.8432 10.6302 15.5507L7.59939 12.5292C7.45817 12.3885 7.37883 12.1972 7.37891 11.9978C7.37898 11.7984 7.45847 11.6072 7.59981 11.4665L10.6306 8.44975C10.9242 8.15754 11.3991 8.15864 11.6913 8.45221Z" fill="black"/>
<path fill-rule="evenodd" clip-rule="evenodd" d="M6.80118 4.59489C7.06874 4.91109 7.0293 5.38433 6.7131 5.65189C6.21321 6.07487 5.76554 6.55121 5.38191 7.07483C5.13711 7.40896 4.66779 7.48138 4.33366 7.23658C3.99952 6.99178 3.9271 6.52246 4.1719 6.18833C4.62807 5.56569 5.15751 5.00322 5.74418 4.50681C6.06039 4.23925 6.53362 4.27868 6.80118 4.59489Z" fill="black"/>
<path fill-rule="evenodd" clip-rule="evenodd" d="M3.52415 8.82232C3.92377 8.9313 4.15937 9.34361 4.05039 9.74323C3.80863 10.6297 3.70441 11.5629 3.77622 12.5238C3.80709 12.9369 3.49727 13.2967 3.08421 13.3276C2.67115 13.3585 2.31127 13.0487 2.28039 12.6356C2.195 11.493 2.31963 10.3885 2.60324 9.34855C2.71223 8.94893 3.12453 8.71333 3.52415 8.82232Z" fill="black"/>
<path fill-rule="evenodd" clip-rule="evenodd" d="M3.43027 14.8927C3.80934 14.7258 4.252 14.8977 4.41897 15.2768C5.04063 16.688 6.03617 17.8856 7.27841 18.7442C7.61917 18.9797 7.70449 19.4468 7.46899 19.7876C7.23349 20.1283 6.76634 20.2137 6.42559 19.9782C4.95541 18.9621 3.77981 17.5467 3.04625 15.8814C2.87927 15.5024 3.05121 15.0597 3.43027 14.8927Z" fill="black"/>
<path fill-rule="evenodd" clip-rule="evenodd" d="M11.6118 2.25732C16.9988 2.05038 21.5323 6.24853 21.7393 11.6345C21.817 13.6479 21.2657 15.5307 20.2822 17.119C20.0642 17.4711 19.6019 17.5798 19.2497 17.3618C18.8976 17.1437 18.7889 16.6814 19.0069 16.3293C19.8423 14.9802 20.306 13.3904 20.2404 11.6924L20.2404 11.6922C20.0653 7.13406 16.2287 3.58107 11.6694 3.75621C11.2555 3.77211 10.9071 3.44946 10.8912 3.03556C10.8753 2.62165 11.1979 2.27322 11.6118 2.25732Z" fill="black"/>
<path fill-rule="evenodd" clip-rule="evenodd" d="M18.1622 18.6332C18.4119 18.9637 18.3465 19.434 18.0161 19.6838C15.5949 21.5138 12.7358 22.1299 9.86806 21.518C9.46296 21.4316 9.20464 21.0331 9.29108 20.628C9.37752 20.2229 9.77599 19.9646 10.1811 20.0511C12.6218 20.5718 15.0368 20.0553 17.1116 18.4871C17.4421 18.2374 17.9124 18.3028 18.1622 18.6332Z" fill="black"/>
</svg>