<svg width="24" height="24" viewBox="0 0 24 24" fill="none" xmlns="http://www.w3.org/2000/svg">
<path opacity="0.4" d="M15.7975 13.1904L19.4967 13.5176C20.3269 13.5176 21 12.8379 21 11.9997C21 11.1614 20.3269 10.4818 19.4967 10.4818L15.7975 10.8089C15.1463 10.8089 14.6183 11.3421 14.6183 11.9997C14.6183 12.6584 15.1463 13.1904 15.7975 13.1904Z" fill="black"/>
<path d="M3.37522 13.1302C3.43303 13.1885 3.64903 13.4353 3.85194 13.6402C5.03556 14.9234 8.12607 17.0218 9.74278 17.664C9.98823 17.7665 10.6089 17.9846 10.9417 18C11.2591 18 11.5624 17.9262 11.8515 17.7808C12.2126 17.577 12.5006 17.2554 12.6598 16.8764C12.7613 16.6143 12.9206 15.8267 12.9206 15.8124C13.0787 14.9521 13.1649 13.5531 13.1649 12.0066C13.1649 10.535 13.0787 9.19332 12.9489 8.31871C12.9347 8.30329 12.7755 7.32623 12.602 6.99137C12.2846 6.37892 11.6638 6 10.9995 6H10.9417C10.5086 6.01432 9.59878 6.39435 9.59878 6.40756C8.06825 7.04975 5.05083 9.04681 3.83776 10.3742C3.83776 10.3742 3.49522 10.7156 3.34685 10.9282C3.11558 11.2344 2.99995 11.6134 2.99995 11.9923C2.99995 12.4153 3.12977 12.8085 3.37522 13.1302Z" fill="black"/>
</svg>