<svg width="24" height="25" viewBox="0 0 24 25" fill="none" xmlns="http://www.w3.org/2000/svg">
<path fill-rule="evenodd" clip-rule="evenodd" d="M16.701 13.0625H11.893L13.658 14.8215C13.951 15.1135 13.951 15.5885 13.659 15.8825C13.513 16.0285 13.32 16.1025 13.128 16.1025C12.936 16.1025 12.744 16.0295 12.598 15.8835L9.549 12.8435C9.48 12.7745 9.424 12.6925 9.386 12.6005C9.357 12.5305 9.348 12.4535 9.341 12.3765C9.339 12.3545 9.328 12.3355 9.328 12.3125C9.328 12.2115 9.349 12.1125 9.387 12.0215C9.411 11.9655 9.451 11.9195 9.488 11.8715C9.51 11.8415 9.522 11.8065 9.549 11.7805L12.598 8.7425C12.892 8.4495 13.367 8.4515 13.659 8.7445C13.951 9.0375 13.951 9.5125 13.657 9.8045L11.893 11.5625H16.701C17.115 11.5625 17.451 11.8985 17.451 12.3125C17.451 12.7265 17.115 13.0625 16.701 13.0625ZM8.051 15.0385C8.051 15.4525 7.715 15.7885 7.301 15.7885C6.887 15.7885 6.551 15.4525 6.551 15.0385V9.5885C6.551 9.1745 6.887 8.8385 7.301 8.8385C7.715 8.8385 8.051 9.1745 8.051 9.5885V15.0385ZM15.974 2.8125H8.026C4.721 2.8125 2.5 4.9365 2.5 8.0965V16.5305C2.5 19.6895 4.721 21.8125 8.026 21.8125H15.974C19.279 21.8125 21.5 19.6895 21.5 16.5305V8.0965C21.5 4.9365 19.279 2.8125 15.974 2.8125Z" fill="black"/>
</svg>