<svg width="24" height="24" viewBox="0 0 24 24" fill="none" xmlns="http://www.w3.org/2000/svg">
<path d="M8.80786 12.0074C9.20315 11.6177 9.36631 11.1312 9.37134 10.5906C9.37625 10.0146 9.37506 9.42998 9.37388 8.85439C9.37336 8.60353 9.37285 8.35443 9.37285 8.10846C9.37285 7.88737 9.37308 7.66629 9.3733 7.4452C9.3739 6.8558 9.3745 6.2664 9.37084 5.677C9.36983 5.50705 9.35321 5.33445 9.32048 5.16744C9.17042 4.3976 8.64118 3.861 7.91656 3.7747C6.70499 3.63081 5.61277 3.93721 4.65903 4.69852C4.16151 5.09622 3.92181 5.61882 3.92635 6.26131C3.93491 7.47704 3.93843 8.69277 3.92483 9.90849C3.91728 10.6131 4.19273 11.1567 4.75369 11.574C5.65607 12.2451 6.66823 12.5335 7.78765 12.4397C8.17085 12.4081 8.52637 12.2847 8.80786 12.0074Z" fill="black"/>
<path opacity="0.4" fill-rule="evenodd" clip-rule="evenodd" d="M16.4534 3.12437C18.2617 3.95944 19.4657 5.31505 19.9325 7.27309C20.0991 7.97171 20.0981 8.68042 20.0387 9.39158C19.789 12.3927 18.9752 15.263 18.0018 18.0956L17.9872 18.1382C17.7846 18.7274 17.5814 19.3186 17.3321 19.8886C16.7253 21.2789 14.9794 21.8983 13.6153 21.2318C12.5805 20.7257 11.9631 19.6494 12.0321 18.5019C12.0554 18.114 12.1678 17.75 12.2802 17.3857C12.309 17.2927 12.3377 17.1996 12.365 17.1062C12.5887 16.3418 12.8163 15.5785 13.044 14.8151C13.1442 14.479 13.2445 14.1428 13.3444 13.8065C13.354 13.775 13.358 13.7419 13.3635 13.7152C13.254 13.703 13.1446 13.6919 13.0354 13.681C12.8014 13.6574 12.5684 13.6339 12.3373 13.5984C11.5779 13.4821 10.8563 13.2453 10.176 12.8877C9.9509 12.7689 9.89752 12.5718 10.036 12.3566C10.2379 12.0427 10.3709 11.7036 10.4182 11.3335C10.4248 11.2813 10.4287 11.2287 10.4308 11.176C10.4327 11.1285 10.4333 11.0809 10.4333 11.0336C10.4336 10.4346 10.4333 9.83561 10.433 9.23661C10.4323 7.90069 10.4316 6.56477 10.4378 5.22885C10.4404 4.73378 10.3019 4.29298 10.041 3.88117C10.0184 3.84562 9.99622 3.80996 9.98061 3.77137C9.91061 3.60337 9.96348 3.44086 10.1231 3.35408C10.745 3.01407 11.4067 2.78035 12.1016 2.64693C13.6007 2.35904 15.0625 2.48198 16.4534 3.12437Z" fill="black"/>
<path d="M13.1249 8.4542C13.8757 8.4637 14.6265 8.46419 15.3778 8.4542C15.9383 8.44714 16.3723 7.99273 16.3668 7.44506C16.3613 6.89337 15.9111 6.45708 15.3436 6.45551C15.1005 6.45482 14.8573 6.45512 14.614 6.45531L14.2488 6.45551L13.8838 6.45531C13.6404 6.45512 13.397 6.45482 13.1536 6.45551C12.5836 6.45708 12.1434 6.88739 12.1369 7.4476C12.1309 7.99772 12.5609 8.44714 13.1249 8.4542Z" fill="black"/>
</svg>