<svg width="24" height="24" viewBox="0 0 24 24" fill="none" xmlns="http://www.w3.org/2000/svg">
<path fill-rule="evenodd" clip-rule="evenodd" d="M11.6913 8.45221C11.9835 8.74578 11.9824 9.22065 11.6888 9.51287L9.94552 11.2481H15.8699C16.2841 11.2481 16.6199 11.5839 16.6199 11.9981C16.6199 12.4123 16.2841 12.7481 15.8699 12.7481H9.94352L11.6892 14.4884C11.9826 14.7809 11.9833 15.2557 11.6909 15.5491C11.3984 15.8424 10.9235 15.8432 10.6302 15.5507L7.59939 12.5292C7.45817 12.3885 7.37883 12.1972 7.37891 11.9978C7.37898 11.7984 7.45847 11.6072 7.59981 11.4665L10.6306 8.44975C10.9242 8.15754 11.3991 8.15864 11.6913 8.45221Z" fill="black"/>
<path fill-rule="evenodd" clip-rule="evenodd" d="M9.20951 3.75C8.80951 3.75 8.42575 3.90874 8.1438 4.19134L4.19195 8.1432C3.9091 8.42605 3.75 8.80944 3.75 9.20951V14.7905C3.75 15.1906 3.9091 15.574 4.19195 15.8568L8.1432 19.808C8.42515 20.0906 8.80951 20.25 9.20951 20.25H14.7915C15.191 20.25 15.5742 20.0916 15.8578 19.808L19.809 15.8568C20.0913 15.5745 20.25 15.1914 20.25 14.7905V9.20951C20.25 8.80862 20.0913 8.42546 19.809 8.1432L15.8578 4.19195C15.5742 3.90842 15.191 3.75 14.7915 3.75H9.20951ZM7.08229 3.13154C7.64679 2.56593 8.41294 2.25 9.20951 2.25H14.7915C15.5887 2.25 16.3535 2.56639 16.9184 3.13129L20.8697 7.08254C21.4339 7.64676 21.75 8.41171 21.75 9.20951V14.7905C21.75 15.5883 21.4339 16.3532 20.8697 16.9175L16.9184 20.8687C16.3535 21.4336 15.5887 21.75 14.7915 21.75H9.20951C8.41276 21.75 7.64646 21.4339 7.08193 20.8681L3.13129 16.9175C2.56766 16.3538 2.25 15.5891 2.25 14.7905V9.20951C2.25 8.41088 2.56766 7.64617 3.13129 7.08253L7.08229 3.13154C7.08241 3.13141 7.08217 3.13166 7.08229 3.13154Z" fill="black"/>
</svg>