<svg width="25" height="24" viewBox="0 0 25 24" fill="none" xmlns="http://www.w3.org/2000/svg">
<path fill-rule="evenodd" clip-rule="evenodd" d="M4.72433 7.32301C4.72476 5.99867 5.83155 4.87848 7.17 4.87891C8.49433 4.87933 9.61453 5.98612 9.6141 7.32457C9.61397 7.73879 9.27807 8.07447 8.86386 8.07433C8.44965 8.0742 8.11397 7.73831 8.1141 7.32409C8.11426 6.8192 7.67057 6.37907 7.16952 6.37891C6.66468 6.37874 6.22458 6.82236 6.22433 7.32335C6.22433 7.32339 6.22433 7.3233 6.22433 7.32335L6.22367 14.2847C6.23987 15.8715 6.88134 17.3878 8.00887 18.5046C9.13725 19.6221 10.6612 20.249 12.2493 20.249C13.8374 20.2489 15.3613 19.6219 16.4896 18.5043C17.6171 17.3875 18.2585 15.871 18.2746 14.2841L18.2765 10.7244C18.2767 10.4595 18.062 10.2447 17.7971 10.2447C17.023 10.2447 16.3956 10.8722 16.3956 11.6462V11.7203C16.3956 12.1345 16.0598 12.4703 15.6456 12.4703C15.2314 12.4703 14.8956 12.1345 14.8956 11.7203V11.6462C14.8956 10.0438 16.1946 8.74471 17.7971 8.74471C18.8907 8.74471 19.7771 9.63159 19.7765 10.7252L19.7746 14.2952C19.7556 16.2786 18.9544 18.1742 17.5452 19.57C16.136 20.9658 14.2328 21.7489 12.2493 21.749C10.2659 21.749 8.3626 20.966 6.95334 19.5703C5.54408 18.1746 4.74279 16.279 4.7237 14.2956L4.72363 14.2883L4.72433 7.32301Z" fill="black"/>
<path fill-rule="evenodd" clip-rule="evenodd" d="M12.2206 4.46944C12.6792 4.01108 13.3012 3.7537 13.9496 3.75391C14.598 3.75411 15.2198 4.0119 15.6781 4.47055C16.1365 4.9292 16.3939 5.55115 16.3937 6.19957L16.3911 14.109C16.391 14.5232 16.0551 14.8589 15.6409 14.8588C15.2267 14.8587 14.891 14.5228 14.8911 14.1086L14.8937 6.19909C14.8938 5.94849 14.7943 5.70813 14.6171 5.53087C14.44 5.35361 14.1997 5.25399 13.9491 5.25391C13.6985 5.25383 13.4581 5.3533 13.2809 5.53044C13.1036 5.70759 13.004 5.94789 13.0039 6.19849C13.0038 6.6127 12.6679 6.94838 12.2537 6.94825C11.8395 6.94811 11.5038 6.61222 11.5039 6.19801C11.5041 5.54958 11.7619 4.9278 12.2206 4.46944Z" fill="black"/>
<path fill-rule="evenodd" clip-rule="evenodd" d="M9.62132 2.43581C9.91799 2.31303 10.2359 2.2499 10.557 2.25C10.8781 2.2501 11.196 2.31344 11.4926 2.43641C11.7891 2.55937 12.0586 2.73954 12.2856 2.96664C12.5125 3.19375 12.6925 3.46333 12.8153 3.75999C12.938 4.05656 13.0012 4.37438 13.0011 4.69534L13.0019 11.8461C13.002 12.2603 12.6662 12.5961 12.252 12.5962C11.8378 12.5962 11.502 12.2605 11.5019 11.8463L11.5011 4.69552C11.5011 4.57143 11.4767 4.44823 11.4293 4.33357C11.3818 4.21892 11.3123 4.11473 11.2246 4.02696C11.1368 3.9392 11.0327 3.86956 10.9181 3.82204C10.8035 3.77452 10.6806 3.75004 10.5565 3.75C10.4324 3.74996 10.3096 3.77436 10.1949 3.82181C10.0802 3.86926 9.97606 3.93882 9.88829 4.02654C9.80052 4.11425 9.73089 4.21839 9.68337 4.33301C9.63589 4.44754 9.61141 4.57028 9.61133 4.69425L9.61217 11.845C9.61222 12.2592 9.27647 12.595 8.86226 12.5951C8.44805 12.5951 8.11222 12.2594 8.11217 11.8452L8.11133 4.69443C8.11143 4.37336 8.17477 4.05513 8.29773 3.75854C8.4207 3.46196 8.60087 3.19249 8.82797 2.96554C9.05507 2.73858 9.32465 2.55858 9.62132 2.43581Z" fill="black"/>
</svg>