<svg width="24" height="25" viewBox="0 0 24 25" fill="none" xmlns="http://www.w3.org/2000/svg">
<path fill-rule="evenodd" clip-rule="evenodd" d="M15.5848 13.0628H10.2388L11.7568 14.5738C12.0508 14.8668 12.0518 15.3408 11.7598 15.6348C11.6128 15.7818 11.4198 15.8558 11.2278 15.8558C11.0368 15.8558 10.8448 15.7828 10.6988 15.6378L7.89478 12.8468C7.75278 12.7058 7.67378 12.5148 7.67378 12.3148C7.67378 12.3138 7.67378 12.3138 7.67378 12.3138C7.67378 12.2668 7.69178 12.2248 7.70078 12.1808C7.70978 12.1288 7.71178 12.0748 7.73178 12.0258C7.77078 11.9318 7.82778 11.8488 7.89978 11.7788L10.6988 8.98983C10.9918 8.69683 11.4668 8.69883 11.7588 8.99183C12.0518 9.28483 12.0508 9.75983 11.7568 10.0518L10.2408 11.5628H15.5848C15.9988 11.5628 16.3348 11.8988 16.3348 12.3128C16.3348 12.7268 15.9988 13.0628 15.5848 13.0628ZM20.1258 9.14783L15.1678 4.18883C13.2748 2.29683 10.6738 2.35483 8.69378 4.33283L4.02178 9.00483C2.04378 10.9838 1.98578 13.5848 3.87878 15.4788L8.83678 20.4378C9.75878 21.3588 10.8488 21.8188 11.9538 21.8188C13.1168 21.8188 14.2958 21.3088 15.3118 20.2938L19.9828 15.6218C20.9348 14.6708 21.4588 13.5588 21.4998 12.4038C21.5418 11.2148 21.0668 10.0888 20.1258 9.14783Z" fill="black"/>
</svg>