<svg width="24" height="25" viewBox="0 0 24 25" fill="none" xmlns="http://www.w3.org/2000/svg">
<path fill-rule="evenodd" clip-rule="evenodd" d="M13.2797 4.01653C9.37091 3.22511 5.9375 6.18158 5.9375 9.94433C5.9375 12.4461 7.4536 14.5885 9.6168 15.5005C9.89474 15.6177 10.0754 15.89 10.0754 16.1916V18.4566C10.0754 19.5166 10.9463 20.3871 12.0049 20.3871C13.0647 20.3871 13.9354 19.5164 13.9354 18.4566V16.2033C13.9354 15.9019 14.1158 15.6299 14.3933 15.5125C16.9104 14.4483 18.5554 11.6702 17.9276 8.64471C17.4468 6.34442 15.5792 4.48708 13.2797 4.01653ZM4.4375 9.94433C4.4375 5.24656 8.72694 1.56377 13.5782 2.54653L13.5796 2.5468C16.4654 3.13697 18.7928 5.45129 19.396 8.33834L19.3962 8.33929C20.1366 11.9062 18.3252 15.2183 15.4354 16.6816V18.4566C15.4354 20.3449 13.8932 21.8871 12.0049 21.8871C10.1175 21.8871 8.57544 20.3447 8.57544 18.4566V16.6708C6.1205 15.434 4.4375 12.8882 4.4375 9.94433Z" fill="black"/>
<path fill-rule="evenodd" clip-rule="evenodd" d="M11.5039 16.207C11.5039 15.7928 11.8397 15.457 12.2539 15.457H14.6921C15.1063 15.457 15.4421 15.7928 15.4421 16.207C15.4421 16.6212 15.1063 16.957 14.6921 16.957H12.2539C11.8397 16.957 11.5039 16.6212 11.5039 16.207Z" fill="black"/>
<path fill-rule="evenodd" clip-rule="evenodd" d="M10.118 7.40086C10.4446 7.65563 10.5029 8.12692 10.2481 8.45352C9.56939 9.32359 9.63077 10.5845 10.4312 11.385C11.2979 12.2516 12.703 12.2516 13.5697 11.385C14.3701 10.5845 14.4315 9.32359 13.7528 8.45352C13.498 8.12692 13.5563 7.65563 13.8829 7.40086C14.2095 7.1461 14.6808 7.20433 14.9355 7.53092C16.0743 8.99072 15.9729 11.1031 14.6304 12.4456C13.1779 13.8981 10.823 13.8981 9.37056 12.4456C8.02803 11.1031 7.92665 8.99072 9.06538 7.53092C9.32015 7.20433 9.79144 7.1461 10.118 7.40086Z" fill="black"/>
<path fill-rule="evenodd" clip-rule="evenodd" d="M12 5.74219C12.4142 5.74219 12.75 6.07797 12.75 6.49219V7.99219C12.75 8.4064 12.4142 8.74219 12 8.74219C11.5858 8.74219 11.25 8.4064 11.25 7.99219V6.49219C11.25 6.07797 11.5858 5.74219 12 5.74219Z" fill="black"/>
</svg>