<svg width="25" height="25" viewBox="0 0 25 25" fill="none" xmlns="http://www.w3.org/2000/svg">
<path d="M7.30566 21.1367H19.0111M14.6694 8.17479C14.6694 8.17479 16.0161 6.82715 16.0384 6.79017C16.417 6.38248 16.6028 5.8551 16.6106 5.32772C16.6028 4.77115 16.3946 4.20777 15.9645 3.77672C15.2911 3.10336 14.2797 2.96134 13.4637 3.35067M9.95276 19.1146H10.8217" stroke="black" stroke-width="1.5" stroke-linecap="round" stroke-linejoin="round"/>
<path d="M18.2603 10.2422C19.5938 14.1622 18.706 18.822 15.1016 21.1358" stroke="black" stroke-width="1.5" stroke-linecap="round" stroke-linejoin="round"/>
<path d="M11.8643 12.6849L13.4301 14.2508C15.6233 12.0576 15.6233 8.50215 13.4301 6.30896C11.2369 4.11576 7.68147 4.11576 5.48828 6.30896L9.45919 10.2799" stroke="black" stroke-width="1.5" stroke-linecap="round" stroke-linejoin="round"/>
<path d="M6.30273 10.3945C6.59367 12.2219 7.51901 13.3233 9.32591 13.4177" stroke="black" stroke-width="1.5" stroke-linecap="round" stroke-linejoin="round"/>
</svg>