<svg width="24" height="25" viewBox="0 0 24 25" fill="none" xmlns="http://www.w3.org/2000/svg">
<path d="M7.05568 21.1367H18.7611M11.3165 5.07182L12.6115 3.77672C13.4649 2.92338 14.8612 2.92338 15.7145 3.77672C16.1446 4.20777 16.3528 4.77115 16.3606 5.32772C16.3528 5.8551 16.167 6.38248 15.7885 6.79017C15.7661 6.82715 14.4194 8.17479 14.4194 8.17479M9.70278 19.1146H10.5717" stroke="black" stroke-width="1.5" stroke-linecap="round" stroke-linejoin="round"/>
<path opacity="0.4" d="M15.9705 6.70312C19.634 10.818 19.6505 18.0573 14.8516 21.1379" stroke="black" stroke-width="1.5" stroke-linecap="round" stroke-linejoin="round"/>
<path d="M13.1801 6.30896C10.9869 4.11576 7.43147 4.11576 5.23828 6.30896L13.1801 14.2508C15.3733 12.0576 15.3733 8.50215 13.1801 6.30896Z" stroke="black" stroke-width="1.5" stroke-linecap="round" stroke-linejoin="round"/>
<path opacity="0.4" d="M6.05273 10.3945C6.34367 12.2219 7.26901 13.3233 9.07591 13.4177" stroke="black" stroke-width="1.5" stroke-linecap="round" stroke-linejoin="round"/>
</svg>