<svg width="24" height="25" viewBox="0 0 24 25" fill="none" xmlns="http://www.w3.org/2000/svg">
<path d="M14.3442 7.99219C15.2529 9.15712 15.1715 10.8438 14.1001 11.9153C12.9405 13.0748 11.0605 13.0748 9.90092 11.9153C8.82943 10.8438 8.74805 9.15712 9.65677 7.99219" stroke="black" stroke-width="1.5" stroke-linecap="round" stroke-linejoin="round"/>
<path d="M12 6.49219V7.99219" stroke="black" stroke-width="1.5" stroke-linecap="round" stroke-linejoin="round"/>
<path d="M18.6628 8.49134C19.3662 11.8801 17.5215 15.0042 14.6864 16.2029V18.4563C14.6864 19.9303 13.4799 21.1367 12.0059 21.1367C10.5329 21.1367 9.32642 19.9303 9.32642 18.4563V16.1912C6.89405 15.1657 5.18848 12.7567 5.18848 9.94394C5.18848 5.71357 9.0501 2.39388 13.4303 3.28121C14.5922 3.51881 15.6546 4.06878 16.5221 4.83684" stroke="black" stroke-width="1.5" stroke-linecap="round" stroke-linejoin="round"/>
<path d="M12.2549 16.2109H14.6931" stroke="black" stroke-width="1.5" stroke-linecap="round" stroke-linejoin="round"/>
</svg>