<svg width="25" height="24" viewBox="0 0 25 24" fill="none" xmlns="http://www.w3.org/2000/svg">
<path fill-rule="evenodd" clip-rule="evenodd" d="M22.186 10.7423C22.174 10.3763 22.163 10.0163 22.156 9.66629C22.131 8.51129 21.175 7.57129 20.023 7.57129C18.86 7.57129 17.903 8.51829 17.889 9.68429C17.882 10.4603 17.869 11.1343 17.852 11.7183C17.072 11.6723 16.327 11.8493 15.661 12.2633C14.376 13.0603 13.712 14.4933 13.534 15.4753C13.328 16.5933 13.313 19.8633 13.32 20.6783C13.324 21.0903 13.659 21.4213 14.07 21.4213H14.077C14.491 21.4173 14.824 21.0783 14.82 20.6643C14.806 19.1463 14.866 16.5223 15.009 15.7453C15.143 15.0103 15.641 14.0413 16.453 13.5383C16.859 13.2853 17.307 13.1803 17.788 13.2133C17.763 13.6073 17.736 13.8673 17.711 13.9613C17.5 14.6463 17.263 15.1723 16.789 15.5113C16.452 15.7513 16.373 16.2203 16.614 16.5563C16.854 16.8933 17.322 16.9733 17.66 16.7313C18.528 16.1123 18.898 15.2063 19.145 14.4013C19.317 13.8393 19.373 11.5333 19.389 9.70029C19.393 9.35329 19.677 9.07129 20.023 9.07129C20.365 9.07129 20.649 9.35229 20.656 9.69629C20.663 10.0523 20.674 10.4183 20.687 10.7913C20.748 12.6173 20.81 14.5053 20.294 16.0783C19.763 17.7043 18.698 19.0733 17.295 19.9313C16.942 20.1473 16.832 20.6093 17.047 20.9633C17.189 21.1943 17.435 21.3213 17.688 21.3213C17.821 21.3213 17.957 21.2863 18.079 21.2113C19.785 20.1663 21.079 18.5093 21.72 16.5443C22.318 14.7203 22.248 12.6063 22.186 10.7423Z" fill="black"/>
<path fill-rule="evenodd" clip-rule="evenodd" d="M9.2886 12.2633C8.6216 11.8513 7.8776 11.6743 7.1006 11.7193C7.0846 11.1453 7.0706 10.4763 7.0616 9.68427C7.0506 8.51927 6.0936 7.57227 4.9296 7.57227C3.7756 7.57227 2.8196 8.51227 2.7976 9.66727C2.7906 10.0153 2.7786 10.3723 2.7676 10.7373C2.7046 12.6033 2.6346 14.7183 3.2316 16.5443C3.8756 18.5113 5.1686 20.1683 6.8736 21.2113C6.9956 21.2863 7.1316 21.3223 7.2646 21.3223C7.5176 21.3223 7.7636 21.1953 7.9046 20.9633C8.1206 20.6103 8.0106 20.1483 7.6566 19.9323C6.2556 19.0753 5.1906 17.7053 4.6576 16.0773C4.1426 14.5033 4.2046 12.6143 4.2666 10.7863C4.2776 10.4153 4.2906 10.0513 4.2976 9.69727C4.3046 9.35227 4.5876 9.07227 4.9296 9.07227C5.2746 9.07227 5.5586 9.35327 5.5616 9.70027C5.6046 13.7423 5.7576 14.2393 5.8076 14.4033C6.0676 15.2483 6.4296 16.1173 7.2926 16.7323C7.6306 16.9743 8.0986 16.8943 8.3386 16.5573C8.5796 16.2203 8.5006 15.7513 8.1636 15.5113C7.6896 15.1733 7.4526 14.6473 7.2426 13.9663C7.2176 13.8713 7.1896 13.6183 7.1646 13.2153C7.6436 13.1833 8.0916 13.2863 8.4976 13.5373C9.3096 14.0413 9.8076 15.0103 9.9416 15.7483C10.0976 16.5903 10.1426 19.3673 10.1326 20.6653C10.1296 21.0793 10.4626 21.4183 10.8766 21.4213H10.8826C11.2936 21.4213 11.6296 21.0893 11.6326 20.6773C11.6396 19.8603 11.6216 16.5813 11.4176 15.4783C11.2376 14.4933 10.5736 13.0613 9.2886 12.2633Z" fill="black"/>
<path fill-rule="evenodd" clip-rule="evenodd" d="M16.2671 6.418V6.415C16.7201 5.006 16.2131 3.233 14.5831 2.706C14.1781 2.575 13.7351 2.544 13.3161 2.616C12.9841 2.664 12.6901 2.826 12.4261 3.006C12.1761 2.838 11.8801 2.675 11.5541 2.619C11.1211 2.544 10.6791 2.574 10.2741 2.706C8.6411 3.233 8.1331 5.006 8.5841 6.41C9.2551 8.565 12.0951 9.909 12.2161 9.965C12.2831 9.996 12.3551 10.012 12.4271 10.012C12.4991 10.012 12.5711 9.996 12.6381 9.965C12.7561 9.91 15.5551 8.588 16.2671 6.418Z" fill="black"/>
</svg>