<svg width="25" height="25" viewBox="0 0 25 25" fill="none" xmlns="http://www.w3.org/2000/svg">
<path fill-rule="evenodd" clip-rule="evenodd" d="M4.5 3.36865C4.91421 3.36865 5.25 3.70444 5.25 4.11865V18.1187C5.25 18.809 5.80964 19.3687 6.5 19.3687H20.5C20.9142 19.3687 21.25 19.7044 21.25 20.1187C21.25 20.5329 20.9142 20.8687 20.5 20.8687H6.5C4.98122 20.8687 3.75 19.6374 3.75 18.1187V4.11865C3.75 3.70444 4.08579 3.36865 4.5 3.36865Z" fill="black"/>
<path fill-rule="evenodd" clip-rule="evenodd" d="M8.00791 13.5538C8.29568 13.8517 8.77048 13.8599 9.06841 13.5722L11.8019 10.9319L14.3716 13.1955C14.6669 13.4556 15.1131 13.4433 15.3936 13.1672L19.9429 8.68804C20.238 8.39744 20.2417 7.92258 19.9511 7.62741C19.6605 7.33225 19.1857 7.32856 18.8905 7.61916L14.8389 11.6082L12.2742 9.34903C11.981 9.09072 11.5385 9.10088 11.2574 9.37237L8.02631 12.4933C7.72838 12.781 7.72015 13.2558 8.00791 13.5538Z" fill="black"/>
<path fill-rule="evenodd" clip-rule="evenodd" d="M19.4162 11.4922C19.8304 11.4922 20.1662 11.1564 20.1662 10.7422V8.15463C20.1662 7.74042 19.8304 7.40463 19.4162 7.40463H16.8286C16.4144 7.40463 16.0786 7.74042 16.0786 8.15463C16.0786 8.56885 16.4144 8.90463 16.8286 8.90463H18.6662V10.7422C18.6662 11.1564 19.002 11.4922 19.4162 11.4922Z" fill="black"/>
</svg>