<svg width="24" height="24" viewBox="0 0 24 24" fill="none" xmlns="http://www.w3.org/2000/svg">
<path d="M3 11.1397C3 15.5619 7.02955 18.9424 12.0001 18.9424C12.6165 18.9424 13.2185 18.8873 13.8001 18.7822V20.9815C13.8001 21.3987 14.2237 21.2091 14.5611 20.9815C15.6232 20.265 21 15.8515 21 11.1397C21 6.71759 16.9706 2.76953 12.0001 2.76953C7.02955 2.76953 3 6.71759 3 11.1397Z" stroke="black" stroke-width="1.5" stroke-linejoin="round"/>
<path d="M6.39551 9.37109V12.9711H7.5651M9.42906 9.37109V12.9711M11.3862 12.9711V9.37109L13.8767 12.9711V9.37109M17.6046 9.37109H15.8338V11.1711M15.8338 11.1711V12.9711H17.6046M15.8338 11.1711H17.1759" stroke="black" stroke-width="1.5" stroke-linecap="round" stroke-linejoin="round"/>
</svg>