<svg width="25" height="25" viewBox="0 0 25 25" fill="none" xmlns="http://www.w3.org/2000/svg">
<path fill-rule="evenodd" clip-rule="evenodd" d="M7.93418 7.63276C8.22195 7.33483 8.69675 7.32659 8.99468 7.61436L11.7282 10.2546L14.2979 7.99101C14.5932 7.73088 15.0394 7.74326 15.3198 8.01937L19.8692 12.4985C20.1643 12.7891 20.168 13.2639 19.8774 13.5591C19.5868 13.8543 19.1119 13.858 18.8168 13.5674L14.7652 9.57833L12.2005 11.8375C11.9072 12.0958 11.4648 12.0856 11.1837 11.8141L7.95258 8.69326C7.65465 8.40549 7.64641 7.93069 7.93418 7.63276Z" fill="black"/>
<path fill-rule="evenodd" clip-rule="evenodd" d="M19.3424 9.69434C19.7567 9.69434 20.0924 10.0301 20.0924 10.4443V13.0319C20.0924 13.4461 19.7567 13.7819 19.3424 13.7819H16.7549C16.3407 13.7819 16.0049 13.4461 16.0049 13.0319C16.0049 12.6177 16.3407 12.2819 16.7549 12.2819H18.5924V10.4443C18.5924 10.0301 18.9282 9.69434 19.3424 9.69434Z" fill="black"/>
<path fill-rule="evenodd" clip-rule="evenodd" d="M4.5 3.36865C4.91421 3.36865 5.25 3.70444 5.25 4.11865V18.1187C5.25 18.809 5.80964 19.3687 6.5 19.3687H20.5C20.9142 19.3687 21.25 19.7044 21.25 20.1187C21.25 20.5329 20.9142 20.8687 20.5 20.8687H6.5C4.98122 20.8687 3.75 19.6374 3.75 18.1187V4.11865C3.75 3.70444 4.08579 3.36865 4.5 3.36865Z" fill="black"/>
</svg>