<svg width="25" height="25" viewBox="0 0 25 25" fill="none" xmlns="http://www.w3.org/2000/svg">
<path fill-rule="evenodd" clip-rule="evenodd" d="M4.5 3.36914C4.91421 3.36914 5.25 3.70493 5.25 4.11914V18.1191C5.25 18.8095 5.80964 19.3691 6.5 19.3691H20.5C20.9142 19.3691 21.25 19.7049 21.25 20.1191C21.25 20.5334 20.9142 20.8691 20.5 20.8691H6.5C4.98122 20.8691 3.75 19.6379 3.75 18.1191V4.11914C3.75 3.70493 4.08579 3.36914 4.5 3.36914Z" fill="black"/>
<path fill-rule="evenodd" clip-rule="evenodd" d="M10.9676 8.1716C11.6203 7.37018 12.584 6.78906 13.8528 6.78906C15.1216 6.78906 16.0853 7.37018 16.738 8.1716C17.3754 8.95429 17.7183 9.94313 17.8258 10.8364C17.9806 12.1227 18.2959 13.0554 18.6969 13.6458C19.0798 14.2097 19.5164 14.437 20.0093 14.437C20.4235 14.437 20.7593 14.7728 20.7593 15.187C20.7593 15.6013 20.4235 15.937 20.0093 15.937C18.9278 15.937 18.0624 15.3814 17.456 14.4885C16.8676 13.6221 16.506 12.4243 16.3365 11.0156C16.2555 10.3427 15.9978 9.63806 15.5749 9.11882C15.1673 8.61831 14.6111 8.28906 13.8528 8.28906C13.0945 8.28906 12.5383 8.61831 12.1307 9.11882C11.7078 9.63806 11.45 10.3427 11.369 11.0156C11.1995 12.4243 10.838 13.6221 10.2496 14.4885C9.64314 15.3814 8.77778 15.937 7.69629 15.937C7.28208 15.937 6.94629 15.6013 6.94629 15.187C6.94629 14.7728 7.28208 14.437 7.69629 14.437C8.18918 14.437 8.62572 14.2097 9.00869 13.6458C9.40965 13.0554 9.725 12.1227 9.87979 10.8364C9.98729 9.94313 10.3302 8.95429 10.9676 8.1716Z" fill="black"/>
</svg>