<svg width="25" height="25" viewBox="0 0 25 25" fill="none" xmlns="http://www.w3.org/2000/svg">
<path fill-rule="evenodd" clip-rule="evenodd" d="M19.4195 8.81349C19.7858 9.0069 19.9259 9.46062 19.7325 9.82691L16.9156 15.1616C16.7663 15.4444 16.4542 15.6014 16.1382 15.5527L12.646 15.0144L10.2048 17.6792C10 17.9027 9.68094 17.981 9.39604 17.8777L4.51259 16.1068C4.12319 15.9656 3.92199 15.5354 4.0632 15.146C4.20441 14.7566 4.63456 14.5554 5.02396 14.6966L9.43682 16.2969L11.8108 13.7054C11.9801 13.5206 12.2304 13.4326 12.4781 13.4708L15.8386 13.9888L18.4061 9.12652C18.5995 8.76023 19.0532 8.62008 19.4195 8.81349Z" fill="black"/>
<path fill-rule="evenodd" clip-rule="evenodd" d="M19.5651 4.36011C19.8759 4.63394 19.9059 5.10786 19.6321 5.41866L15.461 10.1529C15.2286 10.4167 14.8441 10.4837 14.5362 10.3139L10.8962 8.30686L8.66398 10.9005C8.5215 11.0661 8.31394 11.1613 8.09553 11.1613H4.5C4.08579 11.1613 3.75 10.8255 3.75 10.4113C3.75 9.99709 4.08579 9.6613 4.5 9.6613H7.75149L10.1566 6.86677C10.3881 6.59779 10.7764 6.52788 11.0872 6.69924L14.7334 8.70974L18.5066 4.42706C18.7804 4.11627 19.2543 4.08629 19.5651 4.36011Z" fill="black"/>
<path fill-rule="evenodd" clip-rule="evenodd" d="M4.5 3.36914C4.91421 3.36914 5.25 3.70493 5.25 4.11914V18.1191C5.25 18.8095 5.80964 19.3691 6.5 19.3691H20.5C20.9142 19.3691 21.25 19.7049 21.25 20.1191C21.25 20.5334 20.9142 20.8691 20.5 20.8691H6.5C4.98122 20.8691 3.75 19.6379 3.75 18.1191V4.11914C3.75 3.70493 4.08579 3.36914 4.5 3.36914Z" fill="black"/>
<path fill-rule="evenodd" clip-rule="evenodd" d="M9.50808 7.50183C9.50428 6.8268 10.0528 6.28369 10.7211 6.28369C11.3894 6.28369 11.9383 6.82186 11.9383 7.4988C11.9383 8.16934 11.3937 8.71392 10.7232 8.71392C10.0537 8.71392 9.50971 8.17098 9.50808 7.50183ZM9.97112 7.50112L9.5081 7.50485C9.50809 7.50384 9.50808 7.50284 9.50808 7.50183C9.50807 7.50082 9.50807 7.49981 9.50807 7.4988H9.97112V7.50112ZM9.97112 7.50112L10.2581 7.4988H9.97112V7.4334C9.97112 7.01918 10.3069 6.6834 10.7211 6.6834C11.1353 6.6834 11.4711 7.01918 11.4711 7.4334V7.54C11.4711 7.95352 11.1364 8.28888 10.7232 8.28999C10.7225 8.29 10.7218 8.29 10.7211 8.29C10.3069 8.29 9.97112 7.95421 9.97112 7.54V7.50112Z" fill="black"/>
<path fill-rule="evenodd" clip-rule="evenodd" d="M13.7842 9.47937C13.7804 8.80434 14.3289 8.26123 14.9972 8.26123C15.6655 8.26123 16.2144 8.7994 16.2144 9.47634C16.2144 10.1469 15.6699 10.6915 14.9993 10.6915C14.3298 10.6915 13.7858 10.1485 13.7842 9.47937ZM14.2472 9.47866L13.7842 9.48239C13.7842 9.48138 13.7842 9.48038 13.7842 9.47937C13.7842 9.47836 13.7842 9.47735 13.7842 9.47634H14.2472V9.47866ZM14.2472 9.47866L14.5342 9.47634H14.2472V9.41094C14.2472 8.99672 14.583 8.66094 14.9972 8.66094C15.4115 8.66094 15.7472 8.99672 15.7472 9.41094V9.51754C15.7472 9.93106 15.4126 10.2664 14.9993 10.2675C14.9986 10.2675 14.9979 10.2675 14.9972 10.2675C14.583 10.2675 14.2472 9.93175 14.2472 9.51754V9.47866Z" fill="black"/>
<path fill-rule="evenodd" clip-rule="evenodd" d="M6.9258 10.2015C6.922 9.5265 7.47048 8.9834 8.13884 8.9834C8.80711 8.9834 9.35602 9.52157 9.35602 10.1985C9.35602 10.869 8.81146 11.4136 8.14091 11.4136C7.47138 11.4136 6.92744 10.8707 6.9258 10.2015ZM7.38884 10.2008L6.92582 10.2046C6.92581 10.2036 6.92581 10.2025 6.9258 10.2015C6.9258 10.2005 6.9258 10.1995 6.9258 10.1985H7.38884V10.2008ZM7.38884 10.2008L7.6758 10.1985H7.38884V10.1331C7.38884 9.71889 7.72463 9.3831 8.13884 9.3831C8.55306 9.3831 8.88884 9.71889 8.88884 10.1331V10.2397C8.88884 10.6532 8.55417 10.9886 8.14091 10.9897C8.14022 10.9897 8.13953 10.9897 8.13884 10.9897C7.72463 10.9897 7.38884 10.6539 7.38884 10.2397V10.2008Z" fill="black"/>
<path fill-rule="evenodd" clip-rule="evenodd" d="M8.36965 17.1752C8.36585 16.5001 8.91433 15.957 9.58269 15.957C10.251 15.957 10.7999 16.4952 10.7999 17.1721C10.7999 17.8427 10.2553 18.3873 9.58476 18.3873C8.91522 18.3873 8.37128 17.8443 8.36965 17.1752ZM8.83269 17.1745L8.36967 17.1782C8.36966 17.1772 8.36965 17.1762 8.36965 17.1752C8.36965 17.1742 8.36964 17.1732 8.36964 17.1721H8.83269V17.1745ZM8.83269 17.1745L9.11964 17.1721H8.83269V17.1067C8.83269 16.6925 9.16848 16.3567 9.58269 16.3567C9.9969 16.3567 10.3327 16.6925 10.3327 17.1067V17.2133C10.3327 17.6269 9.99802 17.9622 9.58476 17.9633C9.58407 17.9633 9.58338 17.9633 9.58269 17.9633C9.16848 17.9633 8.83269 17.6275 8.83269 17.2133V17.1745Z" fill="black"/>
<path fill-rule="evenodd" clip-rule="evenodd" d="M11.1687 14.204C11.1649 13.5289 11.7134 12.9858 12.3818 12.9858C13.05 12.9858 13.5989 13.524 13.5989 14.201C13.5989 14.8715 13.0544 15.4161 12.3838 15.4161C11.7143 15.4161 11.1704 14.8731 11.1687 14.204ZM11.6318 14.2033L11.1687 14.207C11.1687 14.206 11.1687 14.205 11.1687 14.204C11.1687 14.203 11.1687 14.202 11.1687 14.201H11.6318V14.2033ZM11.6318 14.2033L11.9187 14.201H11.6318V14.1355C11.6318 13.7213 11.9675 13.3855 12.3818 13.3855C12.796 13.3855 13.1318 13.7213 13.1318 14.1355V14.2421C13.1318 14.6557 12.7971 14.991 12.3838 14.9921C12.3831 14.9921 12.3825 14.9921 12.3818 14.9921C11.9675 14.9921 11.6318 14.6564 11.6318 14.2421V14.2033Z" fill="black"/>
<path fill-rule="evenodd" clip-rule="evenodd" d="M15.0005 14.6688C14.9967 13.9938 15.5452 13.4507 16.2135 13.4507C16.8818 13.4507 17.4307 13.9889 17.4307 14.6658C17.4307 15.3363 16.8862 15.8809 16.2156 15.8809C15.5461 15.8809 15.0021 15.338 15.0005 14.6688ZM15.4635 14.6681L15.0005 14.6718C15.0005 14.6708 15.0005 14.6698 15.0005 14.6688C15.0005 14.6678 15.0005 14.6668 15.0005 14.6658H15.4635V14.6681ZM15.4635 14.6681L15.7505 14.6658H15.4635V14.6004C15.4635 14.1862 15.7993 13.8504 16.2135 13.8504C16.6278 13.8504 16.9635 14.1862 16.9635 14.6004V14.707C16.9635 15.1205 16.6289 15.4559 16.2156 15.457C16.2149 15.457 16.2142 15.457 16.2135 15.457C15.7993 15.457 15.4635 15.1212 15.4635 14.707V14.6681Z" fill="black"/>
</svg>