<svg width="25" height="25" viewBox="0 0 25 25" fill="none" xmlns="http://www.w3.org/2000/svg">
<path fill-rule="evenodd" clip-rule="evenodd" d="M4.5 3.36914C4.91421 3.36914 5.25 3.70493 5.25 4.11914V18.1191C5.25 18.8095 5.80964 19.3691 6.5 19.3691H20.5C20.9142 19.3691 21.25 19.7049 21.25 20.1191C21.25 20.5334 20.9142 20.8691 20.5 20.8691H6.5C4.98122 20.8691 3.75 19.6379 3.75 18.1191V4.11914C3.75 3.70493 4.08579 3.36914 4.5 3.36914Z" fill="black"/>
<path fill-rule="evenodd" clip-rule="evenodd" d="M10.9676 14.5545C11.6203 15.3559 12.584 15.937 13.8528 15.937C15.1216 15.937 16.0853 15.3559 16.738 14.5545C17.3754 13.7718 17.7183 12.7829 17.8258 11.8897C17.9806 10.6033 18.2959 9.67065 18.6969 9.08029C19.0798 8.51641 19.5164 8.28903 20.0093 8.28903C20.4235 8.28903 20.7593 7.95324 20.7593 7.53903C20.7593 7.12481 20.4235 6.78903 20.0093 6.78903C18.9278 6.78903 18.0624 7.34465 17.456 8.23753C16.8676 9.10394 16.506 10.3017 16.3365 11.7104C16.2555 12.3834 15.9978 13.088 15.5749 13.6073C15.1673 14.1078 14.6111 14.437 13.8528 14.437C13.0945 14.437 12.5383 14.1078 12.1307 13.6073C11.7078 13.088 11.45 12.3834 11.369 11.7104C11.1995 10.3017 10.838 9.10394 10.2496 8.23753C9.64314 7.34465 8.77778 6.78903 7.69629 6.78903C7.28208 6.78903 6.94629 7.12481 6.94629 7.53903C6.94629 7.95324 7.28208 8.28903 7.69629 8.28903C8.18918 8.28903 8.62572 8.51641 9.00869 9.08029C9.40965 9.67065 9.725 10.6033 9.87979 11.8897C9.98729 12.7829 10.3302 13.7718 10.9676 14.5545Z" fill="black"/>
</svg>