<svg width="25" height="25" viewBox="0 0 25 25" fill="none" xmlns="http://www.w3.org/2000/svg">
<path fill-rule="evenodd" clip-rule="evenodd" d="M4.5 3.36865C4.91421 3.36865 5.25 3.70444 5.25 4.11865V18.1187C5.25 18.809 5.80964 19.3687 6.5 19.3687H20.5C20.9142 19.3687 21.25 19.7044 21.25 20.1187C21.25 20.5329 20.9142 20.8687 20.5 20.8687H6.5C4.98122 20.8687 3.75 19.6374 3.75 18.1187V4.11865C3.75 3.70444 4.08579 3.36865 4.5 3.36865Z" fill="black"/>
<path fill-rule="evenodd" clip-rule="evenodd" d="M20.6355 6.67125C20.9629 6.92489 21.0228 7.39598 20.7692 7.72345L17.4225 12.0443C17.3002 12.2023 17.1199 12.3049 16.9217 12.3294C16.7234 12.3539 16.5236 12.2984 16.3664 12.175L13.0599 9.57948L10.1012 13.4238C9.84861 13.7521 9.37771 13.8134 9.04945 13.5608C8.7212 13.3082 8.65988 12.8373 8.91251 12.509L12.333 8.06455C12.455 7.90593 12.6354 7.80269 12.834 7.7778C13.0327 7.7529 13.233 7.80843 13.3904 7.93202L16.6988 10.529L19.5833 6.80494C19.8369 6.47747 20.308 6.41761 20.6355 6.67125Z" fill="black"/>
</svg>