<svg width="25" height="25" viewBox="0 0 25 25" fill="none" xmlns="http://www.w3.org/2000/svg">
<path d="M4.76854 15.4016L9.65199 17.1725L12.3641 14.2119L16.2527 14.8113L19.0695 9.47656" stroke="black" stroke-width="1.5" stroke-linecap="round" stroke-linejoin="round"/>
<path d="M4.5 10.4113H8.09553L10.7251 7.35601L14.8983 9.65711L19.0693 4.92285" stroke="black" stroke-width="1.5" stroke-linecap="round" stroke-linejoin="round"/>
<path d="M20.5 20.1191H6.5C5.39543 20.1191 4.5 19.2237 4.5 18.1191V4.11914" stroke="black" stroke-width="1.5" stroke-linecap="round" stroke-linejoin="round"/>
<path d="M10.7209 7.54V7.4334M10.7209 7.03369C10.4645 7.03369 10.2558 7.24248 10.2578 7.4988C10.2578 7.75513 10.4666 7.96392 10.7229 7.96392C10.9793 7.96392 11.1881 7.75513 11.1881 7.4988C11.1881 7.24041 10.9793 7.03369 10.7209 7.03369Z" stroke="black" stroke-width="1.5" stroke-linecap="round" stroke-linejoin="round"/>
<path d="M14.9972 9.51754V9.41094M14.9972 9.01123C14.7409 9.01123 14.5321 9.22001 14.5342 9.47634C14.5342 9.73267 14.743 9.94146 14.9993 9.94146C15.2556 9.94146 15.4644 9.73267 15.4644 9.47634C15.4644 9.21795 15.2556 9.01123 14.9972 9.01123Z" stroke="black" stroke-width="1.5" stroke-linecap="round" stroke-linejoin="round"/>
<path d="M8.13884 10.2397V10.1331M8.13884 9.7334C7.88251 9.7334 7.67373 9.94218 7.6758 10.1985C7.6758 10.4548 7.88458 10.6636 8.14091 10.6636C8.39724 10.6636 8.60602 10.4548 8.60602 10.1985C8.60602 9.94012 8.39724 9.7334 8.13884 9.7334Z" stroke="black" stroke-width="1.5" stroke-linecap="round" stroke-linejoin="round"/>
<path d="M9.58269 17.2133V17.1067M9.58269 16.707C9.32636 16.707 9.11758 16.9158 9.11964 17.1721C9.11964 17.4285 9.32843 17.6373 9.58476 17.6373C9.84109 17.6373 10.0499 17.4285 10.0499 17.1721C10.0499 16.9137 9.84109 16.707 9.58269 16.707Z" stroke="black" stroke-width="1.5" stroke-linecap="round" stroke-linejoin="round"/>
<path d="M12.382 14.2421V14.1355M12.382 13.7358C12.1257 13.7358 11.9169 13.9446 11.919 14.201C11.919 14.4573 12.1277 14.6661 12.3841 14.6661C12.6404 14.6661 12.8492 14.4573 12.8492 14.201C12.8492 13.9426 12.6404 13.7358 12.382 13.7358Z" stroke="black" stroke-width="1.5" stroke-linecap="round" stroke-linejoin="round"/>
<path d="M16.2135 14.707V14.6004M16.2135 14.2007C15.9572 14.2007 15.7484 14.4095 15.7505 14.6658C15.7505 14.9221 15.9593 15.1309 16.2156 15.1309C16.4719 15.1309 16.6807 14.9221 16.6807 14.6658C16.6807 14.4074 16.4719 14.2007 16.2135 14.2007Z" stroke="black" stroke-width="1.5" stroke-linecap="round" stroke-linejoin="round"/>
</svg>