<svg width="24" height="24" viewBox="0 0 24 24" fill="none" xmlns="http://www.w3.org/2000/svg">
<path d="M15.8179 9.38098C17.5228 9.1599 19.1158 9.82852 19.9196 11.4219C20.4819 12.5344 20.4921 13.7365 20.5002 14.9503C20.5 16.6418 20.5009 18.3332 20.5 20.0247C20.4998 20.2864 20.288 20.4988 20.0262 20.4994C19.1636 20.5011 18.3573 20.4993 17.4947 20.4997C17.2321 20.4998 17.0189 20.2873 17.0185 20.0248C17.0162 18.1752 17.0189 16.7324 17.0178 14.8828C17.0193 14.7258 16.9926 14.5705 16.9822 14.4144C16.6483 12.145 13.4748 12.1366 13.231 14.3214C13.1955 14.5661 13.2082 14.8135 13.2064 15.0596C13.2054 16.8505 13.208 18.2345 13.2057 20.0254C13.2054 20.2877 12.9925 20.5 12.7302 20.5C11.8596 20.4998 11.0298 20.4997 10.1592 20.5001C9.89608 20.5002 9.68275 20.2866 9.6836 20.0234C9.69432 16.7025 9.73443 13.3932 9.69021 10.0735C9.68667 9.80772 9.90111 9.59012 10.1669 9.59029C11.0349 9.59086 11.8626 9.59023 12.7307 9.59049C12.9934 9.59057 13.2062 9.80373 13.2064 10.0664C13.2066 10.4238 13.207 10.5916 13.2056 10.949C13.8068 10.0064 14.6962 9.53843 15.8179 9.38098Z" stroke="black" stroke-width="1.5" stroke-linecap="round" stroke-linejoin="round"/>
<path d="M3.63422 10.0656C3.63415 9.80304 3.84691 9.59008 4.1095 9.58999C4.97087 9.58972 5.83227 9.58986 6.69381 9.59007C6.95645 9.59013 7.16929 9.80313 7.16921 10.0658C7.16808 13.3854 7.17145 16.705 7.16768 20.0246C7.16738 20.2871 6.95438 20.4997 6.69189 20.4995C5.83174 20.4991 4.97147 20.4991 4.11132 20.4995C3.84881 20.4997 3.63581 20.2871 3.63553 20.0246C3.63197 16.7049 3.63513 13.3853 3.63422 10.0656Z" stroke="black" stroke-width="1.5" stroke-linecap="round" stroke-linejoin="round"/>
<ellipse cx="5.40195" cy="5.40195" rx="1.90195" ry="1.90195" stroke="black" stroke-width="1.5" stroke-linecap="round" stroke-linejoin="round"/>
</svg>