<svg width="24" height="24" viewBox="0 0 24 24" fill="none" xmlns="http://www.w3.org/2000/svg">
<path d="M7.88281 10.9922V15.8005" stroke="black" stroke-width="1.5" stroke-linecap="round" stroke-linejoin="round"/>
<path d="M11.1611 15.801V12.4308C11.1611 11.0328 12.2955 9.89844 13.6935 9.89844C15.0927 9.89844 16.2259 11.0328 16.2259 12.4308V15.801" stroke="black" stroke-width="1.5" stroke-linecap="round" stroke-linejoin="round"/>
<path d="M7.88391 8.30233V8.32904M7.99214 8.30807C7.99214 8.36819 7.94336 8.41693 7.88324 8.41693C7.82312 8.41693 7.77441 8.36819 7.77441 8.30807C7.77441 8.24795 7.82312 8.19922 7.88324 8.19922C7.94336 8.19922 7.99214 8.24795 7.99214 8.30807Z" stroke="black" stroke-width="1.5" stroke-linecap="round" stroke-linejoin="round"/>
<path d="M3.5 5.38889C3.5 4.34568 4.34568 3.5 5.38889 3.5H18.6111C19.6543 3.5 20.5 4.34568 20.5 5.38889V18.6111C20.5 19.6543 19.6543 20.5 18.6111 20.5H5.38889C4.34568 20.5 3.5 19.6543 3.5 18.6111V5.38889Z" stroke="black" stroke-width="1.5" stroke-linecap="round" stroke-linejoin="round"/>
</svg>