<svg width="25" height="25" viewBox="0 0 25 25" fill="none" xmlns="http://www.w3.org/2000/svg">
<path fill-rule="evenodd" clip-rule="evenodd" d="M12.6634 5.47405C14.8561 3.35768 18.3309 3.35749 20.5228 5.47418L20.5228 5.47427C22.7694 7.64455 22.8324 11.225 20.6618 13.4719L20.6528 13.4812L20.6527 13.4811L18.4023 15.7316C18.211 15.9229 18.0061 16.0996 17.7912 16.2611L17.79 16.262C15.2885 18.133 11.744 17.6215 9.8731 15.1202C9.625 14.7885 9.69276 14.3185 10.0245 14.0704C10.3561 13.8223 10.8262 13.89 11.0743 14.2217C12.449 16.0596 15.0531 16.4355 16.8909 15.0613C17.0514 14.9407 17.2024 14.8102 17.3416 14.6709L19.5873 12.4252C21.1776 10.7742 21.1302 8.14668 19.4807 6.55309C17.8702 4.99797 15.3167 4.99781 13.7052 6.55331C13.4071 6.84098 12.9323 6.83257 12.6447 6.53454C12.357 6.23651 12.3654 5.76171 12.6634 5.47405Z" fill="black"/>
<path fill-rule="evenodd" clip-rule="evenodd" d="M7.20966 9.27153C9.71111 7.40049 13.2556 7.91207 15.1265 10.4133C15.3746 10.745 15.3069 11.2151 14.9752 11.4632C14.6435 11.7113 14.1735 11.6435 13.9254 11.3118C12.5507 9.47396 9.94666 9.09808 8.10881 10.4722C7.94832 10.5928 7.79729 10.7233 7.65799 10.8626L5.41233 13.1083C3.82203 14.7593 3.86938 17.3869 5.51897 18.9804L5.51902 18.9805C7.12941 20.5365 9.68276 20.5367 11.2943 18.9804C11.5923 18.6926 12.0671 18.7009 12.3548 18.9989C12.6426 19.2968 12.6343 19.7716 12.3363 20.0593C10.1436 22.1769 6.66861 22.1771 4.47673 20.0592C2.23023 17.8889 2.16722 14.3085 4.33782 12.0616L4.34682 12.0523L4.3469 12.0524L6.59733 9.80198C6.78866 9.61065 6.99354 9.4339 7.20839 9.27248L7.20966 9.27153Z" fill="black"/>
</svg>