<svg width="24" height="24" viewBox="0 0 24 24" fill="none" xmlns="http://www.w3.org/2000/svg">
<path fill-rule="evenodd" clip-rule="evenodd" d="M12 3.75C7.44329 3.75 3.75 7.44329 3.75 12C3.75 16.5567 7.44329 20.25 12 20.25C16.5567 20.25 20.25 16.5567 20.25 12C20.25 7.44329 16.5567 3.75 12 3.75ZM2.25 12C2.25 6.61487 6.61487 2.25 12 2.25C17.3851 2.25 21.75 6.61487 21.75 12C21.75 17.3851 17.3851 21.75 12 21.75C6.61487 21.75 2.25 17.3851 2.25 12Z" fill="black"/>
<path fill-rule="evenodd" clip-rule="evenodd" d="M8.21777 10.3242C8.63199 10.3242 8.96777 10.66 8.96777 11.0742V15.4913C8.96777 15.9055 8.63199 16.2413 8.21777 16.2413C7.80356 16.2413 7.46777 15.9055 7.46777 15.4913V11.0742C7.46777 10.66 7.80356 10.3242 8.21777 10.3242Z" fill="black"/>
<path fill-rule="evenodd" clip-rule="evenodd" d="M13.5559 10.8203C12.6858 10.8203 11.9795 11.5266 11.9795 12.3967V15.4927C11.9795 15.9069 11.6437 16.2427 11.2295 16.2427C10.8153 16.2427 10.4795 15.9069 10.4795 15.4927V12.3967C10.4795 10.6982 11.8573 9.32031 13.5559 9.32031C15.2556 9.32031 16.6322 10.6984 16.6322 12.3967V15.4927C16.6322 15.9069 16.2965 16.2427 15.8822 16.2427C15.468 16.2427 15.1322 15.9069 15.1322 15.4927V12.3967C15.1322 11.5264 14.4267 10.8203 13.5559 10.8203Z" fill="black"/>
<path fill-rule="evenodd" clip-rule="evenodd" d="M7.36719 8.60781C7.36719 8.1386 7.74749 7.75781 8.21716 7.75781C8.68624 7.75781 9.0672 8.138 9.0672 8.60781C9.0672 9.07761 8.68625 9.45781 8.21716 9.45781C7.74747 9.45781 7.36719 9.07701 7.36719 8.60781Z" fill="black"/>
</svg>