<svg width="24" height="24" viewBox="0 0 24 24" fill="none" xmlns="http://www.w3.org/2000/svg">
<path d="M18 9C17.04 9 15.9262 9.615 15.0525 10.2525C14.167 10.9012 13.0977 11.2506 12 11.25V11.25C10.9023 11.2506 9.833 10.9012 8.9475 10.2525C8.07375 9.615 6.96 9 6 9C5.20435 9 4.44129 9.31607 3.87868 9.87868C3.31607 10.4413 3 11.2044 3 12C3 12.7956 3.31607 13.5587 3.87868 14.1213C4.44129 14.6839 5.20435 15 6 15C6.96 15 8.07375 14.385 8.9475 13.7475C9.833 13.0988 10.9023 12.7494 12 12.75C13.0977 12.7494 14.167 13.0988 15.0525 13.7475C15.9262 14.385 17.04 15 18 15C18.7956 15 19.5587 14.6839 20.1213 14.1213C20.6839 13.5587 21 12.7956 21 12C21 11.2044 20.6839 10.4413 20.1213 9.87868C19.5587 9.31607 18.7956 9 18 9V9Z" stroke="black" stroke-width="1.5" stroke-linecap="round" stroke-linejoin="round"/>
</svg>