<svg width="25" height="25" viewBox="0 0 25 25" fill="none" xmlns="http://www.w3.org/2000/svg">
<path fill-rule="evenodd" clip-rule="evenodd" d="M10.3428 5.3125C10.757 5.3125 11.0928 5.64829 11.0928 6.0625V13.3061C11.0928 15.519 12.8863 17.3125 15.0991 17.3125H17.3473C17.7615 17.3125 18.0973 17.6483 18.0973 18.0625C18.0973 18.4767 17.7615 18.8125 17.3473 18.8125H15.0991C12.0579 18.8125 9.59277 16.3474 9.59277 13.3061V6.0625C9.59277 5.64829 9.92856 5.3125 10.3428 5.3125Z" fill="black"/>
<path fill-rule="evenodd" clip-rule="evenodd" d="M6.40234 12.4414C6.40234 12.0272 6.73813 11.6914 7.15234 11.6914H13.8444C14.2586 11.6914 14.5944 12.0272 14.5944 12.4414C14.5944 12.8556 14.2586 13.1914 13.8444 13.1914H7.15234C6.73813 13.1914 6.40234 12.8556 6.40234 12.4414Z" fill="black"/>
<path fill-rule="evenodd" clip-rule="evenodd" d="M6.40234 9.25195C6.40234 8.83774 6.73813 8.50195 7.15234 8.50195H13.8444C14.2586 8.50195 14.5944 8.83774 14.5944 9.25195C14.5944 9.66617 14.2586 10.002 13.8444 10.002H7.15234C6.73813 10.002 6.40234 9.66617 6.40234 9.25195Z" fill="black"/>
</svg>