<svg width="24" height="25" viewBox="0 0 24 25" fill="none" xmlns="http://www.w3.org/2000/svg">
<path fill-rule="evenodd" clip-rule="evenodd" d="M15.132 16.3925H13.729C11.75 16.3925 10.142 14.8345 10.031 12.8825H8.768C8.354 12.8825 8.018 12.5465 8.018 12.1325C8.018 11.7185 8.354 11.3825 8.768 11.3825H10.01V10.5025H8.768C8.354 10.5025 8.018 10.1665 8.018 9.7525C8.018 9.3385 8.354 9.0025 8.768 9.0025H10.01V8.1525C10.01 7.7385 10.346 7.4025 10.76 7.4025C11.174 7.4025 11.51 7.7385 11.51 8.1525V9.0025H13.414C13.828 9.0025 14.164 9.3385 14.164 9.7525C14.164 10.1665 13.828 10.5025 13.414 10.5025H11.51V11.3825H13.414C13.828 11.3825 14.164 11.7185 14.164 12.1325C14.164 12.5465 13.828 12.8825 13.414 12.8825H11.531C11.639 14.0065 12.577 14.8925 13.729 14.8925H15.132C15.546 14.8925 15.882 15.2285 15.882 15.6425C15.882 16.0565 15.546 16.3925 15.132 16.3925ZM12 2.5625C6.762 2.5625 2.5 6.8245 2.5 12.0625C2.5 17.3005 6.762 21.5625 12 21.5625C17.238 21.5625 21.5 17.3005 21.5 12.0625C21.5 6.8245 17.238 2.5625 12 2.5625Z" fill="black"/>
</svg>