<svg width="25" height="24" viewBox="0 0 25 24" fill="none" xmlns="http://www.w3.org/2000/svg">
<path opacity="0.4" fill-rule="evenodd" clip-rule="evenodd" d="M12.5 2.5C7.262 2.5 3 6.762 3 12C3 17.239 7.262 21.5 12.5 21.5C17.738 21.5 22 17.239 22 12C22 6.762 17.738 2.5 12.5 2.5Z" fill="black"/>
<path d="M11.2288 16.1599H14.8808C15.2948 16.1599 15.6308 15.8239 15.6308 15.4099C15.6308 14.9959 15.2948 14.6599 14.8808 14.6599H12.2018L12.6838 12.8269L14.1308 12.4799C14.5338 12.3829 14.7818 11.9779 14.6858 11.5759C14.5888 11.1729 14.1848 10.9229 13.7808 11.0209L13.1168 11.1799L13.7478 8.78091C13.8528 8.37991 13.6128 7.96991 13.2128 7.86491C12.8108 7.75891 12.4018 7.99891 12.2968 8.39891L11.4608 11.5769L9.94378 11.9409C9.54178 12.0369 9.29378 12.4419 9.38978 12.8449C9.47178 13.1889 9.77978 13.4199 10.1188 13.4199C10.1758 13.4199 10.2348 13.4139 10.2938 13.3999L11.0278 13.2239L10.5038 15.2189C10.4438 15.4439 10.4928 15.6839 10.6348 15.8679C10.7768 16.0519 10.9968 16.1599 11.2288 16.1599Z" fill="black"/>
</svg>