<svg width="25" height="24" viewBox="0 0 25 24" fill="none" xmlns="http://www.w3.org/2000/svg">
<path fill-rule="evenodd" clip-rule="evenodd" d="M12.25 3.75C7.69329 3.75 4 7.44329 4 12C4 16.5567 7.69329 20.25 12.25 20.25C16.8067 20.25 20.5 16.5567 20.5 12C20.5 7.44329 16.8067 3.75 12.25 3.75ZM2.5 12C2.5 6.61487 6.86487 2.25 12.25 2.25C17.6351 2.25 22 6.61487 22 12C22 17.3851 17.6351 21.75 12.25 21.75C6.86487 21.75 2.5 17.3851 2.5 12Z" fill="black"/>
<path fill-rule="evenodd" clip-rule="evenodd" d="M12.9623 7.86268C13.3629 7.96792 13.6023 8.378 13.4971 8.77862L11.951 14.6645H14.6311C15.0453 14.6645 15.3811 15.0002 15.3811 15.4145C15.3811 15.8287 15.0453 16.1645 14.6311 16.1645H10.9785C10.746 16.1645 10.5266 16.0566 10.3846 15.8725C10.2426 15.6884 10.1941 15.4488 10.2531 15.2239L12.0463 8.39753C12.1516 7.9969 12.5616 7.75745 12.9623 7.86268Z" fill="black"/>
<path fill-rule="evenodd" clip-rule="evenodd" d="M14.435 11.5768C14.5318 11.9795 14.2838 12.3845 13.8811 12.4813L10.0446 13.4037C9.6419 13.5006 9.23692 13.2526 9.14009 12.8498C9.04326 12.4471 9.29125 12.0421 9.69399 11.9453L13.5304 11.0229C13.9332 10.9261 14.3381 11.1741 14.435 11.5768Z" fill="black"/>
</svg>