<svg width="24" height="24" viewBox="0 0 24 24" fill="none" xmlns="http://www.w3.org/2000/svg">
<path fill-rule="evenodd" clip-rule="evenodd" d="M17.9876 7.18978C15.0002 4.20237 10.1567 4.20236 7.16927 7.18978L7.16927 7.18978C4.18186 10.1772 4.18186 15.0207 7.16927 18.0081L6.63894 18.5385L7.16927 18.0081C10.1567 20.9956 15.0002 20.9956 17.9876 18.0081C20.975 15.0207 20.975 10.1772 17.9876 7.18978ZM19.0483 6.12912C22.6215 9.70232 22.6215 15.4956 19.0483 19.0688C15.4751 22.642 9.68179 22.642 6.10861 19.0688C2.53541 15.4956 2.53541 9.7023 6.10861 6.12912C9.68181 2.55592 15.4751 2.55592 19.0483 6.12912Z" fill="black"/>
<path fill-rule="evenodd" clip-rule="evenodd" d="M4.95779 2.60652C6.30958 1.85972 7.8639 2.36833 8.81641 3.3218L15.2888 9.80076C15.2888 9.80067 15.2889 9.80084 15.2888 9.80076C15.5124 10.0244 15.6726 10.3072 15.7479 10.6165C15.748 10.6168 15.7481 10.6171 15.7482 10.6175L16.737 14.6555C16.7369 14.6553 16.737 14.6556 16.737 14.6555C17.0478 15.9227 15.9027 17.0684 14.6355 16.7576C14.6353 16.7575 14.6356 16.7576 14.6355 16.7576L10.5957 15.7684L10.5941 15.768C10.287 15.6921 10.0054 15.5344 9.78028 15.3093L3.34933 8.88581C2.35384 7.89147 1.87988 6.27989 2.65903 4.90813C3.24404 3.87816 3.95163 3.16239 4.95779 2.60652ZM7.75522 4.38192C7.12907 3.75515 6.28651 3.58615 5.68315 3.91948C4.93284 4.334 4.4198 4.84529 3.96332 5.64895C3.59818 6.29181 3.76561 7.18152 4.40937 7.82454L10.8406 14.2484C10.8704 14.2781 10.909 14.3006 10.9535 14.3117C10.9533 14.3116 10.9537 14.3117 10.9535 14.3117L14.9922 15.3006C15.1655 15.3431 15.3228 15.1864 15.2802 15.0132L14.2906 10.9716C14.2809 10.9316 14.2592 10.8924 14.2282 10.8614L7.75522 4.38192Z" fill="black"/>
<path fill-rule="evenodd" clip-rule="evenodd" d="M15.3279 9.97974C15.4491 10.3758 15.2262 10.7952 14.8301 10.9164C12.9639 11.4874 11.4915 12.9597 10.9205 14.826C10.7993 15.2221 10.38 15.4449 9.98389 15.3237C9.5878 15.2025 9.36495 14.7832 9.48614 14.3871C10.203 12.0443 12.0484 10.1988 14.3912 9.48199C14.7873 9.3608 15.2067 9.58365 15.3279 9.97974Z" fill="black"/>
<path fill-rule="evenodd" clip-rule="evenodd" d="M16.0703 12.3492C16.2831 12.7046 16.1674 13.1652 15.812 13.3779C14.8622 13.9463 14.0927 14.7846 13.6092 15.7863C13.4292 16.1593 12.9808 16.3158 12.6078 16.1357C12.2347 15.9557 12.0783 15.5073 12.2583 15.1343C12.8698 13.8674 13.8418 12.8089 15.0416 12.0908C15.3971 11.8781 15.8576 11.9938 16.0703 12.3492Z" fill="black"/>
</svg>