<svg width="25" height="24" viewBox="0 0 25 24" fill="none" xmlns="http://www.w3.org/2000/svg">
<path d="M17.8059 20.7958H7.86307C5.63788 20.7958 3.83398 18.992 3.83398 16.7668V11.3103C3.83398 9.08514 5.63788 7.28125 7.86307 7.28125H17.8059C20.0301 7.28125 21.834 9.08514 21.834 11.3103V16.7668C21.834 18.992 20.0301 20.7958 17.8059 20.7958Z" stroke="black" stroke-width="1.5" stroke-linecap="round" stroke-linejoin="round"/>
<path fill-rule="evenodd" clip-rule="evenodd" d="M15.0361 15.1806C14.3288 15.8209 13.4453 16.3969 12.4733 16.789C11.6463 17.1149 10.9535 16.7082 10.8513 15.8929C10.7278 14.6903 10.7307 13.5402 10.8513 12.466C10.9623 11.6186 11.7261 11.2586 12.4733 11.5738C13.4307 11.9659 14.2898 12.4982 15.0361 13.1812C15.6734 13.7601 15.689 14.5803 15.0361 15.1806Z" stroke="black" stroke-width="1.5" stroke-linecap="round" stroke-linejoin="round"/>
<path d="M17.3868 3.20703L12.8342 7.28184L8.39648 3.20703" stroke="black" stroke-width="1.5" stroke-linecap="round" stroke-linejoin="round"/>
</svg>