<svg width="25" height="24" viewBox="0 0 25 24" fill="none" xmlns="http://www.w3.org/2000/svg">
<path fill-rule="evenodd" clip-rule="evenodd" d="M2.33398 11.3103C2.33398 8.67093 4.47366 6.53125 7.11307 6.53125H17.0559C19.6944 6.53125 21.834 8.67105 21.834 11.3103V16.7668C21.834 19.406 19.6944 21.5458 17.0559 21.5458H7.11307C4.47366 21.5458 2.33398 19.4062 2.33398 16.7668V11.3103ZM7.11307 8.03125C5.30209 8.03125 3.83398 9.49936 3.83398 11.3103V16.7668C3.83398 18.5777 5.30209 20.0458 7.11307 20.0458H17.0559C18.8658 20.0458 20.334 18.5779 20.334 16.7668V11.3103C20.334 9.49924 18.8658 8.03125 17.0559 8.03125H7.11307Z" fill="black"/>
<path fill-rule="evenodd" clip-rule="evenodd" d="M10.8458 12.5576C10.7327 13.5694 10.7292 14.6597 10.8464 15.8067C10.8738 16.0112 10.958 16.087 11.0084 16.1153C11.0629 16.146 11.1997 16.1885 11.4458 16.0922C12.3286 15.7356 13.1356 15.2099 13.7804 14.6267C13.9747 14.4473 14.0205 14.2861 14.0199 14.177C14.0193 14.0661 13.9701 13.9073 13.7818 13.7363L13.7797 13.7344L13.7797 13.7344C13.1032 13.1152 12.3206 12.6289 11.439 12.2679L11.4318 12.2649L11.4318 12.2648C11.2363 12.1824 11.0961 12.2093 11.0223 12.248C10.9601 12.2806 10.8734 12.3575 10.8458 12.5576ZM12.0109 10.8811C11.4601 10.65 10.8465 10.6461 10.3251 10.9198C9.7915 11.1999 9.44187 11.7256 9.35769 12.3687L9.35757 12.3687L9.35604 12.3823C9.22895 13.5138 9.22666 14.7177 9.35528 15.9695L9.35717 15.9861C9.43304 16.5916 9.74486 17.1254 10.2726 17.4225C10.7966 17.7174 11.4189 17.715 11.9983 17.4867L11.9983 17.4867L12.0039 17.4845C13.0627 17.0573 14.0207 16.4324 14.7894 15.7367L14.7894 15.7367L14.7938 15.7327C15.2507 15.3125 15.5232 14.7641 15.5199 14.1687C15.5166 13.5752 15.2399 13.0348 14.7915 12.6271C13.9767 11.8814 13.0424 11.304 12.0109 10.8811Z" fill="black"/>
<path fill-rule="evenodd" clip-rule="evenodd" d="M17.1956 2.70684C17.4719 3.01548 17.4456 3.48963 17.137 3.76588L12.5844 7.84069C12.2969 8.098 11.8611 8.09523 11.577 7.83429L7.13923 3.75948C6.83413 3.47932 6.8139 3.00488 7.09405 2.69978C7.3742 2.39468 7.84865 2.37445 8.15375 2.6546L12.0907 6.26954L16.1366 2.6482C16.4452 2.37195 16.9193 2.3982 17.1956 2.70684Z" fill="black"/>
</svg>