<svg width="25" height="24" viewBox="0 0 25 24" fill="none" xmlns="http://www.w3.org/2000/svg">
<path d="M3.65969 9.54688C3.39699 10.5101 3.28315 11.5288 3.36099 12.5806" stroke="black" stroke-width="1.5" stroke-linecap="round" stroke-linejoin="round"/>
<path d="M5.11133 6.63001C5.53165 6.05693 6.01911 5.53737 6.563 5.07812" stroke="black" stroke-width="1.5" stroke-linecap="round" stroke-linejoin="round"/>
<path d="M7.1838 19.3601C5.82748 18.4231 4.74261 17.1164 4.06445 15.5781" stroke="black" stroke-width="1.5" stroke-linecap="round" stroke-linejoin="round"/>
<path opacity="0.4" fill-rule="evenodd" clip-rule="evenodd" d="M14.9459 13.1414C14.1441 13.873 13.1439 14.5327 12.0415 14.9803C11.1046 15.3529 10.3184 14.8879 10.2036 13.9557C10.0635 12.5809 10.0664 11.2645 10.2036 10.0366C10.3291 9.06755 11.1941 8.65598 12.0415 9.01501C13.1264 9.46355 14.0994 10.0726 14.9459 10.8549C15.6688 11.5155 15.6863 12.4545 14.9459 13.1414Z" stroke="black" stroke-width="1.5" stroke-linecap="round" stroke-linejoin="round"/>
<path d="M17.8951 19.0859C16.5388 20.1484 14.8643 20.8363 13.0166 20.9745C12.1069 21.0426 11.2186 20.9706 10.3721 20.7799" stroke="black" stroke-width="1.5" stroke-linecap="round" stroke-linejoin="round"/>
<path d="M19.9783 16.7238C20.888 15.2555 21.3949 13.5188 21.3239 11.6633C21.1322 6.69048 16.9475 2.81514 11.9746 3.00681" stroke="black" stroke-width="1.5" stroke-linecap="round" stroke-linejoin="round"/>
</svg>