<svg width="25" height="24" viewBox="0 0 25 24" fill="none" xmlns="http://www.w3.org/2000/svg">
<path d="M3.11031 13.3301C2.92109 13.3299 2.73895 13.2581 2.60041 13.1293C2.46188 13.0004 2.37718 12.8239 2.36331 12.6352C2.2833 11.5294 2.39253 10.4182 2.6863 9.34916C2.71053 9.25236 2.75384 9.16135 2.81368 9.08149C2.87353 9.00163 2.9487 8.93452 3.03481 8.88409C3.12092 8.83365 3.21623 8.80091 3.31515 8.78778C3.41407 8.77464 3.51462 8.78138 3.61091 8.8076C3.7072 8.83381 3.79728 8.87898 3.87589 8.94045C3.9545 9.00193 4.02005 9.07847 4.0687 9.1656C4.11735 9.25273 4.14813 9.3487 4.15922 9.44787C4.17031 9.54704 4.16151 9.64743 4.13331 9.74316C3.88477 10.6482 3.79211 11.589 3.85931 12.5252C3.8728 12.723 3.80752 12.9181 3.67769 13.068C3.54786 13.2179 3.36403 13.3103 3.16631 13.3252C3.14774 13.3278 3.12905 13.3295 3.11031 13.3301V13.3301Z" fill="black"/>
<path d="M4.86469 7.38019C4.72642 7.37938 4.59107 7.34034 4.47359 7.26742C4.35611 7.19449 4.26108 7.09051 4.19899 6.96696C4.13691 6.84341 4.11019 6.7051 4.12178 6.56731C4.13338 6.42953 4.18284 6.29763 4.2647 6.18619C4.72064 5.56588 5.2483 5.00164 5.8367 4.50519C5.98866 4.37683 6.18541 4.31408 6.38363 4.33077C6.58186 4.34746 6.76533 4.44221 6.89369 4.59418C7.02206 4.74615 7.0848 4.94289 7.06811 5.14112C7.05142 5.33935 6.95667 5.52283 6.8047 5.65119C6.30644 6.07134 5.85966 6.54901 5.4737 7.07419C5.40357 7.16967 5.31181 7.24717 5.20596 7.30036C5.1001 7.35355 4.98316 7.38091 4.86469 7.38019Z" fill="black"/>
<path d="M6.93342 20.113C6.78119 20.1131 6.63256 20.0667 6.50743 19.98C5.0237 18.952 3.85404 17.5328 3.12842 15.88C3.05109 15.6986 3.04833 15.494 3.12075 15.3105C3.19316 15.1271 3.33493 14.9796 3.51534 14.8999C3.69575 14.8202 3.90029 14.8148 4.08466 14.8848C4.26903 14.9548 4.4184 15.0947 4.50042 15.274C5.11509 16.672 6.10503 17.8724 7.36042 18.742C7.49201 18.833 7.59107 18.9636 7.64315 19.1148C7.69524 19.266 7.69761 19.43 7.64992 19.5826C7.60223 19.7353 7.50698 19.8687 7.37808 19.9634C7.24918 20.0581 7.09337 20.1092 6.93342 20.109V20.113Z" fill="black"/>
<path d="M11.1634 15.8643C10.8119 15.8675 10.4662 15.7748 10.1634 15.5963C9.89484 15.4312 9.6686 15.2057 9.50278 14.9376C9.33696 14.6695 9.23615 14.3663 9.20841 14.0523C9.06334 12.6915 9.06334 11.3191 9.20841 9.95828C9.23807 9.63906 9.34298 9.33142 9.51455 9.06059C9.68612 8.78977 9.91945 8.56347 10.1954 8.40028C10.4832 8.24282 10.8037 8.15444 11.1315 8.14212C11.4594 8.1298 11.7856 8.19387 12.0844 8.32928C13.2336 8.79913 14.2903 9.46919 15.2054 10.3083C15.4527 10.5158 15.6515 10.775 15.7879 11.0675C15.9243 11.3601 15.9949 11.679 15.9949 12.0018C15.9949 12.3246 15.9243 12.6435 15.7879 12.936C15.6515 13.2286 15.4527 13.4877 15.2054 13.6953V13.6953C14.2867 14.5339 13.2276 15.2041 12.0764 15.6753C11.7868 15.7955 11.477 15.8597 11.1634 15.8643V15.8643ZM11.1894 9.64128C11.1039 9.63951 11.0194 9.66021 10.9444 9.70129C10.8733 9.75067 10.8144 9.81558 10.7721 9.89113C10.7298 9.96667 10.7053 10.0508 10.7004 10.1373C10.5678 11.3828 10.5678 12.6388 10.7004 13.8843C10.706 13.967 10.7293 14.0475 10.7688 14.1203C10.8084 14.1931 10.8631 14.2566 10.9294 14.3063C11.0221 14.3472 11.1228 14.3667 11.2241 14.3634C11.3253 14.3601 11.4246 14.3341 11.5144 14.2873C12.4981 13.8836 13.4032 13.3102 14.1884 12.5933C14.2778 12.5195 14.3512 12.4282 14.404 12.3251C14.4568 12.2219 14.4879 12.109 14.4954 11.9933C14.4872 11.8801 14.4559 11.7698 14.4034 11.6692C14.351 11.5686 14.2785 11.4798 14.1904 11.4083C13.4032 10.687 12.4941 10.1114 11.5054 9.70828C11.4054 9.66564 11.2981 9.64288 11.1894 9.64128V9.64128Z" fill="black"/>
<path d="M12.0917 21.7493C11.3737 21.7492 10.658 21.6691 9.95772 21.5103C9.8612 21.489 9.76982 21.4489 9.68886 21.3922C9.6079 21.3355 9.53895 21.2633 9.48597 21.1799C9.43299 21.0964 9.39703 21.0033 9.38015 20.906C9.36328 20.8086 9.36582 20.7088 9.38763 20.6124C9.40944 20.516 9.45009 20.4248 9.50725 20.3442C9.56441 20.2635 9.63694 20.195 9.72068 20.1425C9.80442 20.09 9.89771 20.0545 9.9952 20.0382C10.0927 20.0219 10.1924 20.025 10.2887 20.0473C11.0826 20.2273 11.899 20.2873 12.7107 20.2253C14.3404 20.1054 15.8975 19.5032 17.1837 18.4953C17.3402 18.3728 17.5389 18.3174 17.7362 18.3414C17.9335 18.3654 18.1132 18.4668 18.2357 18.6233C18.3583 18.7798 18.4136 18.9785 18.3896 19.1758C18.3656 19.3731 18.2642 19.5528 18.1077 19.6753C16.5889 20.8674 14.7493 21.5797 12.8237 21.7213C12.5797 21.7403 12.3347 21.7493 12.0917 21.7493Z" fill="black"/>
<path d="M19.7317 17.4761C19.5979 17.4764 19.4666 17.4408 19.3513 17.3731C19.236 17.3054 19.1409 17.2081 19.0759 17.0913C19.0109 16.9744 18.9783 16.8423 18.9816 16.7086C18.9849 16.575 19.024 16.4446 19.0947 16.3311C19.8811 15.0585 20.3065 13.5959 20.3253 12.1C20.3441 10.6041 19.9555 9.13129 19.2011 7.83937C18.4468 6.54744 17.3552 5.48509 16.0433 4.76614C14.7313 4.04719 13.2485 3.69874 11.7537 3.75813C11.6552 3.76187 11.5569 3.74619 11.4645 3.71196C11.372 3.67772 11.2873 3.62562 11.215 3.55862C11.1427 3.49162 11.0843 3.41103 11.0432 3.32147C11.002 3.23191 10.9789 3.13512 10.9752 3.03663C10.9714 2.93814 10.9871 2.83987 11.0213 2.74745C11.0556 2.65502 11.1077 2.57024 11.1747 2.49795C11.2417 2.42566 11.3222 2.36727 11.4118 2.32612C11.5014 2.28497 11.5982 2.26187 11.6967 2.25813C13.4643 2.18586 15.2182 2.59658 16.7699 3.44615C18.3216 4.29572 19.6126 5.55203 20.504 7.0801C21.3954 8.60818 21.8537 10.3503 21.8295 12.1192C21.8053 13.8881 21.2996 15.617 20.3667 17.1201C20.2998 17.2286 20.2064 17.3182 20.0953 17.3805C19.9842 17.4428 19.859 17.4757 19.7317 17.4761Z" fill="black"/>
</svg>