<svg width="25" height="24" viewBox="0 0 25 24" fill="none" xmlns="http://www.w3.org/2000/svg">
<path fill-rule="evenodd" clip-rule="evenodd" d="M6.44555 17.9449C6.80073 18.158 6.91589 18.6187 6.70277 18.9739L6.69694 18.9836C6.48382 19.3388 6.02312 19.454 5.66794 19.2408C5.31276 19.0277 5.19759 18.567 5.41071 18.2118L5.41655 18.2021C5.62967 17.8469 6.09037 17.7318 6.44555 17.9449Z" fill="black"/>
<path fill-rule="evenodd" clip-rule="evenodd" d="M3.95824 14.1529C4.31342 14.366 4.42859 14.8267 4.21547 15.1819L4.20963 15.1916C3.99652 15.5468 3.53582 15.662 3.18064 15.4489C2.82546 15.2357 2.71029 14.775 2.92341 14.4199L2.92924 14.4101C3.14236 14.0549 3.60306 13.9398 3.95824 14.1529Z" fill="black"/>
<path fill-rule="evenodd" clip-rule="evenodd" d="M3.71604 9.58258C4.07122 9.79569 4.1864 10.2564 3.97329 10.6116L3.96745 10.6213C3.75434 10.9765 3.29365 11.0917 2.93846 10.8786C2.58328 10.6654 2.4681 10.2047 2.68121 9.84956L2.68705 9.83983C2.90016 9.48464 3.36085 9.36947 3.71604 9.58258Z" fill="black"/>
<path fill-rule="evenodd" clip-rule="evenodd" d="M5.76095 5.43706C6.11614 5.65017 6.23132 6.11086 6.01822 6.46605L6.01238 6.47578C5.79928 6.83097 5.33858 6.94615 4.98339 6.73305C4.6282 6.51994 4.51302 6.05925 4.72613 5.70406L4.73197 5.69433C4.94507 5.33914 5.40576 5.22396 5.76095 5.43706Z" fill="black"/>
<path fill-rule="evenodd" clip-rule="evenodd" d="M9.57735 2.8355C9.93254 3.0486 10.0477 3.50929 9.83463 3.86448L9.82879 3.87421C9.61569 4.2294 9.155 4.34459 8.79981 4.13149C8.44462 3.91839 8.32943 3.4577 8.54253 3.10251L8.54837 3.09278C8.76147 2.73758 9.22216 2.6224 9.57735 2.8355Z" fill="black"/>
<path fill-rule="evenodd" clip-rule="evenodd" d="M11.4414 2.99897C11.4419 2.58476 11.7782 2.24943 12.1924 2.25C17.5776 2.25738 21.9361 6.62861 21.9287 12.0137C21.9213 17.3989 17.5501 21.7574 12.165 21.75L12.1648 21.75C10.9365 21.7479 9.75972 21.5194 8.67569 21.1014C8.28921 20.9524 8.09671 20.5183 8.24573 20.1318C8.39476 19.7453 8.82886 19.5528 9.21534 19.7018C10.1297 20.0544 11.1245 20.2482 12.1671 20.25C16.7239 20.2562 20.4225 16.5683 20.4287 12.0116C20.4349 7.45484 16.747 3.75624 12.1903 3.75C11.7761 3.74943 11.4408 3.41319 11.4414 2.99897Z" fill="black"/>
</svg>