<svg width="24" height="24" viewBox="0 0 24 24" fill="none" xmlns="http://www.w3.org/2000/svg">
<path fill-rule="evenodd" clip-rule="evenodd" d="M6.37107 15.0765L4.64907 16.7985C4.25907 17.1895 4.25907 17.8225 4.64907 18.2125C4.84507 18.4085 5.10007 18.5055 5.35607 18.5055C5.61207 18.5055 5.86807 18.4085 6.06307 18.2125L7.78507 16.4905C8.17607 16.0995 8.17607 15.4665 7.78507 15.0765C7.39407 14.6855 6.76207 14.6855 6.37107 15.0765Z" fill="black"/>
<path fill-rule="evenodd" clip-rule="evenodd" d="M6.83585 4.84133C6.44485 4.45133 5.81285 4.45133 5.42185 4.84133C5.03085 5.23233 5.03085 5.86533 5.42185 6.25633L6.37085 7.20533C6.56585 7.40033 6.82185 7.49733 7.07785 7.49733C7.33385 7.49733 7.58985 7.40033 7.78485 7.20433C8.17585 6.81433 8.17585 6.18033 7.78485 5.79033L6.83585 4.84133Z" fill="black"/>
<path fill-rule="evenodd" clip-rule="evenodd" d="M17.0703 15.0765C16.6793 14.6855 16.0473 14.6855 15.6563 15.0765C15.2653 15.4665 15.2653 16.0995 15.6563 16.4905L17.3783 18.2125C17.5733 18.4085 17.8293 18.5055 18.0853 18.5055C18.3413 18.5055 18.5963 18.4085 18.7923 18.2125C19.1823 17.8225 19.1823 17.1895 18.7923 16.7985L17.0703 15.0765Z" fill="black"/>
<path fill-rule="evenodd" clip-rule="evenodd" d="M11.7207 16.707C11.1677 16.707 10.7207 17.155 10.7207 17.707V20.141C10.7207 20.693 11.1677 21.141 11.7207 21.141C12.2737 21.141 12.7207 20.693 12.7207 20.141V17.707C12.7207 17.155 12.2737 16.707 11.7207 16.707Z" fill="black"/>
<path fill-rule="evenodd" clip-rule="evenodd" d="M20.7207 10.1406H18.2867C17.7347 10.1406 17.2867 10.5886 17.2867 11.1406C17.2867 11.6926 17.7347 12.1406 18.2867 12.1406H20.7207C21.2737 12.1406 21.7207 11.6926 21.7207 11.1406C21.7207 10.5886 21.2737 10.1406 20.7207 10.1406Z" fill="black"/>
<path fill-rule="evenodd" clip-rule="evenodd" d="M6.1543 11.1406C6.1543 10.5886 5.7073 10.1406 5.1543 10.1406H3.2793C2.7263 10.1406 2.2793 10.5886 2.2793 11.1406C2.2793 11.6926 2.7263 12.1406 3.2793 12.1406H5.1543C5.7073 12.1406 6.1543 11.6926 6.1543 11.1406Z" fill="black"/>
<path fill-rule="evenodd" clip-rule="evenodd" d="M11.7207 2.85742C11.1677 2.85742 10.7207 3.30542 10.7207 3.85742V4.57542C10.7207 5.12842 11.1677 5.57542 11.7207 5.57542C12.2737 5.57542 12.7207 5.12842 12.7207 4.57542V3.85742C12.7207 3.30542 12.2737 2.85742 11.7207 2.85742Z" fill="black"/>
</svg>