<svg width="25" height="24" viewBox="0 0 25 24" fill="none" xmlns="http://www.w3.org/2000/svg">
<path d="M11.3214 16.3101H7.94141" stroke="black" stroke-width="1.5" stroke-linecap="round" stroke-linejoin="round"/>
<path d="M14.2579 11.0801H8.91797" stroke="black" stroke-width="1.5" stroke-linecap="round" stroke-linejoin="round"/>
<path d="M6.53125 14.4304V6.43042C6.53123 6.25975 6.59803 6.09598 6.71777 5.97436C6.83752 5.85275 7.00024 5.78266 7.17089 5.78003H10.0713C10.3356 5.78007 10.5955 5.84475 10.8291 5.9685C11.0626 6.09226 11.2626 6.2713 11.4111 6.48999L14.0112 10.57C14.2094 10.8463 14.3114 11.1803 14.3012 11.5202V14.6501" stroke="black" stroke-width="1.5" stroke-linecap="round" stroke-linejoin="round"/>
<path d="M4.11034 16.3298H2.25V12.6599C2.25 12.2037 2.43134 11.7666 2.7539 11.4441C3.07646 11.1215 3.51404 10.9402 3.9702 10.9402H6.53025" stroke="black" stroke-width="1.5" stroke-linecap="round" stroke-linejoin="round"/>
<path d="M22.2501 16.3005H18.7701C18.4981 16.3035 18.2282 16.2501 17.9772 16.1452C17.7261 16.0404 17.4992 15.8858 17.3102 15.6902V15.6902C16.9395 15.3111 16.7346 14.8004 16.7404 14.2702V11.5105H18.7403L21.6602 16.3005" stroke="black" stroke-width="1.5" stroke-linecap="round" stroke-linejoin="round"/>
<path d="M14.4004 11.99L16.7403 13.72" stroke="black" stroke-width="1.5" stroke-linecap="round" stroke-linejoin="round"/>
<path d="M6.03112 18.2199C7.08597 18.2199 7.94114 17.3647 7.94114 16.3099C7.94114 15.255 7.08597 14.3999 6.03112 14.3999C4.97626 14.3999 4.12109 15.255 4.12109 16.3099C4.12109 17.3647 4.97626 18.2199 6.03112 18.2199Z" stroke="black" stroke-width="1.5" stroke-linecap="round" stroke-linejoin="round"/>
<path d="M13.2889 18.2199C14.3438 18.2199 15.199 17.3647 15.199 16.3099C15.199 15.255 14.3438 14.3999 13.2889 14.3999C12.2341 14.3999 11.3789 15.255 11.3789 16.3099C11.3789 17.3647 12.2341 18.2199 13.2889 18.2199Z" stroke="black" stroke-width="1.5" stroke-linecap="round" stroke-linejoin="round"/>
</svg>