<svg width="25" height="24" viewBox="0 0 25 24" fill="none" xmlns="http://www.w3.org/2000/svg">
<path fill-rule="evenodd" clip-rule="evenodd" d="M7.44141 16.3105C7.44141 15.8963 7.77719 15.5605 8.19141 15.5605H11.5714C11.9856 15.5605 12.3214 15.8963 12.3214 16.3105C12.3214 16.7248 11.9856 17.0605 11.5714 17.0605H8.19141C7.77719 17.0605 7.44141 16.7248 7.44141 16.3105Z" fill="black"/>
<path fill-rule="evenodd" clip-rule="evenodd" d="M8.41797 11.0801C8.41797 10.6659 8.75376 10.3301 9.16797 10.3301H14.5079C14.9221 10.3301 15.2579 10.6659 15.2579 11.0801C15.2579 11.4943 14.9221 11.8301 14.5079 11.8301H9.16797C8.75376 11.8301 8.41797 11.4943 8.41797 11.0801Z" fill="black"/>
<path fill-rule="evenodd" clip-rule="evenodd" d="M7.42089 5.0293H10.3213C10.7081 5.02936 11.0886 5.12405 11.4302 5.30505C11.7717 5.48596 12.0642 5.74778 12.2816 6.06796C12.2857 6.07398 12.2897 6.08005 12.2936 6.08619L14.8837 10.1505C15.1669 10.5535 15.3133 11.0371 15.3012 11.5296V14.6494C15.3012 15.0636 14.9654 15.3994 14.5512 15.3994C14.137 15.3994 13.8012 15.0636 13.8012 14.6494V11.5195C13.8012 11.5149 13.8013 11.5102 13.8014 11.5056C13.8014 11.5028 13.8015 11.4999 13.8016 11.4971C13.8068 11.3216 13.7542 11.1491 13.6518 11.0066C13.6438 10.9954 13.6361 10.984 13.6287 10.9724L11.0354 6.90295C10.9564 6.78919 10.8509 6.69565 10.7279 6.63049C10.6024 6.564 10.4631 6.52934 10.3213 6.5293C10.3212 6.5293 10.3213 6.5293 10.3213 6.5293H7.53125V14.4296C7.53125 14.8439 7.19546 15.1796 6.78125 15.1796C6.36704 15.1796 6.03125 14.8439 6.03125 14.4296V6.42977C6.03125 6.42974 6.03125 6.4298 6.03125 6.42977C6.03123 6.06305 6.17487 5.70995 6.43335 5.44743C6.69027 5.18649 7.0404 5.03506 7.40936 5.02939L7.42089 5.0293Z" fill="black"/>
<path fill-rule="evenodd" clip-rule="evenodd" d="M4.2202 11.6895C3.96305 11.6895 3.71622 11.7917 3.53423 11.9737C3.35209 12.1558 3.25 12.4022 3.25 12.6592V15.5791H4.36034C4.77455 15.5791 5.11034 15.9149 5.11034 16.3291C5.11034 16.7433 4.77455 17.0791 4.36034 17.0791H2.5C2.08579 17.0791 1.75 16.7433 1.75 16.3291V12.6592C1.75 12.0038 2.0106 11.376 2.47357 10.913C2.93671 10.4499 3.56502 10.1895 4.2202 10.1895H6.78025C7.19446 10.1895 7.53025 10.5252 7.53025 10.9395C7.53025 11.3537 7.19446 11.6895 6.78025 11.6895H4.2202Z" fill="black"/>
<path fill-rule="evenodd" clip-rule="evenodd" d="M16.2404 11.5098C16.2404 11.0956 16.5761 10.7598 16.9904 10.7598H18.9903C19.2519 10.7598 19.4946 10.896 19.6307 11.1194L22.3314 15.5498H22.5001C22.9143 15.5498 23.2501 15.8856 23.2501 16.2998C23.2501 16.714 22.9143 17.0498 22.5001 17.0498H21.9237C21.9152 17.0499 21.9067 17.0499 21.8982 17.0498H19.0239C18.6499 17.0533 18.2805 16.9796 17.938 16.8365C17.5941 16.6928 17.2825 16.4809 17.0224 16.2122C16.5146 15.6921 16.2336 14.9923 16.2404 14.2658V11.5098ZM17.5602 15.6894L18.0995 15.1682C18.2172 15.2901 18.3589 15.3867 18.5163 15.4525C18.6745 15.5186 18.8433 15.5517 19.0119 15.5498L19.0201 15.5497L20.5747 15.5498L18.5692 12.2598H17.7404V14.2776C17.7368 14.6091 17.8648 14.9282 18.0964 15.165L17.5602 15.6894Z" fill="black"/>
<path fill-rule="evenodd" clip-rule="evenodd" d="M14.0474 11.5444C14.2936 11.2113 14.7632 11.141 15.0963 11.3872L17.4363 13.1172C17.7693 13.3634 17.8397 13.8331 17.5935 14.1661C17.3472 14.4992 16.8776 14.5696 16.5445 14.3234L14.2046 12.5934C13.8715 12.3471 13.8011 11.8775 14.0474 11.5444Z" fill="black"/>
<path fill-rule="evenodd" clip-rule="evenodd" d="M6.28112 15.1504C5.64045 15.1504 5.12109 15.6698 5.12109 16.3104C5.12109 16.951 5.64046 17.4704 6.28112 17.4704C6.92178 17.4704 7.44114 16.951 7.44114 16.3104C7.44114 15.6698 6.92178 15.1504 6.28112 15.1504ZM3.62109 16.3104C3.62109 14.8413 4.81206 13.6504 6.28112 13.6504C7.75017 13.6504 8.94114 14.8413 8.94114 16.3104C8.94114 17.7795 7.75017 18.9704 6.28112 18.9704C4.81206 18.9704 3.62109 17.7795 3.62109 16.3104Z" fill="black"/>
<path fill-rule="evenodd" clip-rule="evenodd" d="M13.5389 15.1504C12.8983 15.1504 12.3789 15.6698 12.3789 16.3104C12.3789 16.951 12.8983 17.4704 13.5389 17.4704C14.1796 17.4704 14.699 16.951 14.699 16.3104C14.699 15.6698 14.1796 15.1504 13.5389 15.1504ZM10.8789 16.3104C10.8789 14.8413 12.0699 13.6504 13.5389 13.6504C15.008 13.6504 16.199 14.8413 16.199 16.3104C16.199 17.7795 15.008 18.9704 13.5389 18.9704C12.0699 18.9704 10.8789 17.7795 10.8789 16.3104Z" fill="black"/>
</svg>