<svg width="25" height="25" viewBox="0 0 25 25" fill="none" xmlns="http://www.w3.org/2000/svg">
<path fill-rule="evenodd" clip-rule="evenodd" d="M9.10046 10.2392C9.10046 8.49902 10.5107 7.08881 12.2509 7.08881C13.9903 7.08881 15.4003 8.49922 15.4003 10.2392C15.4003 11.9784 13.9901 13.3886 12.2509 13.3886C10.5109 13.3886 9.10046 11.9786 9.10046 10.2392ZM12.2509 8.58881C11.3391 8.58881 10.6005 9.32745 10.6005 10.2392C10.6005 11.1498 11.3389 11.8886 12.2509 11.8886C13.1617 11.8886 13.9003 11.15 13.9003 10.2392C13.9003 9.32725 13.1615 8.58881 12.2509 8.58881Z" fill="black"/>
<path fill-rule="evenodd" clip-rule="evenodd" d="M12.2495 3.38867C8.71322 3.38867 5.6882 6.58767 5.79986 10.1892C5.87884 12.7368 7.48388 14.757 9.26953 16.7085C9.44886 16.9045 9.63097 17.1008 9.81318 17.2973C10.5078 18.0462 11.2036 18.7965 11.7511 19.5318C11.9255 19.7661 12.0913 20.0069 12.2417 20.2544C12.3964 19.9975 12.5679 19.7482 12.7491 19.5061C13.2994 18.7708 13.9995 18.0265 14.6964 17.2855C14.8764 17.0942 15.0562 16.9031 15.2331 16.7124C17.0152 14.7917 18.6205 12.7948 18.7001 10.1896C18.8101 6.58751 15.7856 3.38867 12.2495 3.38867ZM12.9995 22.6387C12.9995 21.9554 13.3239 21.2414 13.95 20.4049C14.4447 19.7439 15.0676 19.0813 15.7559 18.349C15.9437 18.1492 16.1364 17.9442 16.3327 17.7327C18.1062 15.8212 20.101 13.4547 20.1994 10.2354C20.3342 5.82228 16.6666 1.88867 12.2495 1.88867C7.83264 1.88867 4.16375 5.82223 4.30058 10.2357C4.39855 13.3956 6.39315 15.787 8.16291 17.7211C8.36125 17.9378 8.55603 18.148 8.7459 18.3528C9.43178 19.0928 10.0536 19.7637 10.5479 20.4276C11.1778 21.2737 11.4995 21.9821 11.4995 22.6387H12.9995Z" fill="black"/>
</svg>