<svg width="25" height="24" viewBox="0 0 25 24" fill="none" xmlns="http://www.w3.org/2000/svg">
<path fill-rule="evenodd" clip-rule="evenodd" d="M12.25 13.495C10.741 13.495 9.51302 12.268 9.51302 10.759C9.51302 9.25 10.741 8.022 12.25 8.022C13.759 8.022 14.986 9.25 14.986 10.759C14.986 12.268 13.759 13.495 12.25 13.495ZM17.864 4.652C16.333 3.073 14.339 2.203 12.25 2.203C10.159 2.203 8.16502 3.073 6.63302 4.653C5.07802 6.257 4.22402 8.412 4.29102 10.566C4.48002 16.67 11.67 21.423 11.977 21.622L12.246 21.797L12.518 21.625C12.824 21.431 20.019 16.793 20.209 10.565C20.275 8.412 19.42 6.256 17.864 4.652Z" fill="black"/>
</svg>