<svg width="25" height="25" viewBox="0 0 25 25" fill="none" xmlns="http://www.w3.org/2000/svg">
<path fill-rule="evenodd" clip-rule="evenodd" d="M9.01367 11.3064C9.01367 9.51834 10.4627 8.06934 12.2507 8.06934C14.038 8.06934 15.4868 9.51854 15.4868 11.3064C15.4868 13.0934 14.0378 14.5424 12.2507 14.5424C10.4629 14.5424 9.01367 13.0936 9.01367 11.3064ZM12.2507 9.56934C11.2911 9.56934 10.5137 10.3468 10.5137 11.3064C10.5137 12.2648 11.2909 13.0424 12.2507 13.0424C13.2093 13.0424 13.9868 12.265 13.9868 11.3064C13.9868 10.3466 13.2092 9.56934 12.2507 9.56934Z" fill="black"/>
<path fill-rule="evenodd" clip-rule="evenodd" d="M12.2498 4.00009C8.56991 4.00009 5.42408 7.32783 5.54022 11.0741C5.62304 13.7456 7.32463 16.236 9.13068 18.1226C10.0208 19.0524 10.9077 19.8058 11.5726 20.3267C11.8424 20.5381 12.0747 20.7105 12.2546 20.8401C12.4336 20.7138 12.6643 20.5459 12.932 20.3398C13.596 19.8287 14.4819 19.0873 15.371 18.1659C17.1728 16.2987 18.8767 13.8079 18.9602 11.0744C19.0747 7.32767 15.9294 4.00009 12.2498 4.00009ZM12.2498 21.75C11.8404 22.3785 11.8402 22.3783 11.84 22.3782L11.8394 22.3778L11.8377 22.3767L11.8324 22.3732L11.8139 22.361C11.7982 22.3506 11.7758 22.3356 11.7472 22.3161C11.6898 22.2773 11.6074 22.2206 11.5033 22.1469C11.2953 21.9996 11.0006 21.7841 10.6475 21.5075C9.94242 20.955 8.99889 20.154 8.04715 19.1599C6.16945 17.1984 4.14145 14.3625 4.04094 11.1205C3.89962 6.56239 7.68933 2.50009 12.2498 2.50009C16.8103 2.50009 20.5988 6.56243 20.4595 11.1202C20.3587 14.4214 18.3325 17.257 16.4504 19.2075C15.4975 20.1949 14.5529 20.9851 13.8469 21.5285C13.4934 21.8006 13.1982 22.012 12.9898 22.1563C12.8856 22.2285 12.8029 22.2841 12.7454 22.3221C12.7167 22.3411 12.6942 22.3558 12.6784 22.366L12.6598 22.378L12.6544 22.3815L12.6527 22.3826L12.6521 22.383C12.6519 22.3831 12.6517 22.3832 12.2498 21.75ZM12.2498 21.75L12.6517 22.3832L12.2445 22.6417L11.8404 22.3785L12.2498 21.75Z" fill="black"/>
</svg>