<svg width="25" height="24" viewBox="0 0 25 24" fill="none" xmlns="http://www.w3.org/2000/svg">
<path fill-rule="evenodd" clip-rule="evenodd" d="M8.76025 10.7105C8.76025 8.91521 10.2151 7.45999 12.0097 7.45999C13.8052 7.45999 15.2603 8.91501 15.2603 10.7105C15.2603 12.5052 13.805 13.96 12.0097 13.96C10.2153 13.96 8.76025 12.505 8.76025 10.7105ZM12.0097 8.95999C11.0439 8.95999 10.2603 9.74324 10.2603 10.7105C10.2603 11.6765 11.0437 12.46 12.0097 12.46C12.977 12.46 13.7603 11.6763 13.7603 10.7105C13.7603 9.74344 12.9768 8.95999 12.0097 8.95999Z" fill="black"/>
<path fill-rule="evenodd" clip-rule="evenodd" d="M11.9995 3.75C8.28063 3.75 5.25 6.8073 5.25 10.5986C5.25 13.0726 6.31773 15.5147 7.75334 17.3467C8.46835 18.2592 9.25791 18.9983 10.0196 19.5035C10.7928 20.0162 11.4786 20.25 11.9995 20.25C12.5207 20.25 13.2068 20.0162 13.98 19.5035C14.7419 18.9983 15.5315 18.2592 16.2466 17.3467C17.6823 15.5147 18.75 13.0726 18.75 10.5986C18.75 6.80743 15.7185 3.75 11.9995 3.75ZM3.75 10.5986C3.75 5.99763 7.43357 2.25 11.9995 2.25C16.5653 2.25 20.25 5.9975 20.25 10.5986C20.25 13.4847 19.017 16.2433 17.4272 18.2719C16.6295 19.2898 15.7252 20.146 14.809 20.7536C13.9041 21.3536 12.9278 21.75 11.9995 21.75C11.0714 21.75 10.0953 21.3536 9.19058 20.7536C8.27446 20.146 7.37027 19.2898 6.57265 18.2719C4.98301 16.2433 3.75 13.4847 3.75 10.5986Z" fill="black"/>
</svg>