<svg width="24" height="25" viewBox="0 0 24 25" fill="none" xmlns="http://www.w3.org/2000/svg">
<path d="M12 15.1543V17.316" stroke="black" stroke-width="1.5" stroke-linecap="round" stroke-linejoin="round"/>
<path d="M16.1954 6.91954C15.3894 4.60414 12.8585 3.38124 10.5435 4.18774C8.77046 4.80454 7.57645 6.47104 7.56445 8.34874V10.4588" stroke="black" stroke-width="1.5" stroke-linecap="round" stroke-linejoin="round"/>
<path d="M9.30371 21.9796H14.6957C16.2907 21.9796 17.0887 21.9796 17.7047 21.6839C18.3187 21.3888 18.8147 20.8929 19.1097 20.2782C19.4057 19.6625 19.4058 18.8649 19.4058 17.2696V15.1377C19.4058 13.5424 19.4057 12.7447 19.1097 12.1291C18.8147 11.5143 18.3187 11.0185 17.7047 10.7233C17.0887 10.4277 16.2907 10.4277 14.6957 10.4277H9.30371C7.70871 10.4277 6.91074 10.4277 6.29474 10.7233C5.68074 11.0185 5.18477 11.5143 4.88977 12.1291C4.59377 12.7447 4.59375 13.5424 4.59375 15.1377V17.2696C4.59375 18.8649 4.59377 19.6625 4.88977 20.2782C5.18477 20.8929 5.68074 21.3888 6.29474 21.6839C6.91074 21.9796 7.70871 21.9796 9.30371 21.9796Z" stroke="black" stroke-width="1.5" stroke-linecap="round" stroke-linejoin="round"/>
</svg>