<svg width="24" height="24" viewBox="0 0 24 24" fill="none" xmlns="http://www.w3.org/2000/svg">
<path fill-rule="evenodd" clip-rule="evenodd" d="M12.7498 16.487C12.7498 16.901 12.4137 17.237 11.9998 17.237C11.5858 17.237 11.2498 16.901 11.2498 16.487V14.327C11.2498 13.913 11.5858 13.577 11.9998 13.577C12.4137 13.577 12.7498 13.913 12.7498 14.327V16.487ZM19.5608 11.079C19.2168 10.367 18.6358 9.78401 17.9178 9.43401C17.1997 9.09601 16.3628 9.09601 14.6958 9.09601H9.30375C8.93375 9.09601 8.60975 9.09701 8.31375 9.10101V7.52101C8.32375 5.96701 9.31875 4.57901 10.7898 4.06401C11.7207 3.74001 12.7197 3.79801 13.6077 4.22601C14.4948 4.65601 15.1627 5.40401 15.4867 6.33401C15.6227 6.72401 16.0507 6.93001 16.4417 6.79501C16.8337 6.65801 17.0398 6.23001 16.9028 5.84001C16.4467 4.53201 15.5087 3.48001 14.2618 2.87701C13.0107 2.27101 11.6018 2.19101 10.2958 2.64801C8.22675 3.37201 6.82775 5.32601 6.81375 7.51601V9.21001C6.54375 9.26001 6.30175 9.33101 6.07475 9.43701C5.36375 9.78401 4.78275 10.367 4.43775 11.082C4.09375 11.803 4.09375 12.64 4.09375 14.306V16.436C4.09375 18.103 4.09375 18.94 4.43875 19.664C4.78575 20.382 5.36975 20.963 6.07575 21.296C6.79575 21.646 7.63375 21.646 9.30375 21.646H14.6958C16.3658 21.646 17.2037 21.646 17.9187 21.299C18.6298 20.963 19.2138 20.382 19.5618 19.662C19.9058 18.94 19.9058 18.103 19.9058 16.436V14.306C19.9058 12.64 19.9058 11.803 19.5608 11.079Z" fill="black"/>
</svg>