<svg width="25" height="25" viewBox="0 0 25 25" fill="none" xmlns="http://www.w3.org/2000/svg">
<path opacity="0.4" d="M9.18664 9.20312C9.2273 9.19717 9.26805 9.19162 9.30888 9.18649C9.45426 9.16821 9.64701 9.14235 9.87923 9.11013C10.5921 9.03177 11.3806 8.99463 12.2501 8.99463C18.2741 8.99463 20.4101 10.7666 20.4101 15.7656C20.4101 20.7656 18.2741 22.5376 12.2501 22.5376C6.22609 22.5376 4.09009 20.7656 4.09009 15.7656C4.09009 13.0651 4.7166 11.3089 6.23942 10.2636C6.63855 10.0183 7.65058 9.5105 8.79749 9.27221C8.92429 9.24745 9.05399 9.22443 9.18664 9.20312Z" fill="black"/>
<path d="M8.43872 9.34841V7.91641C8.47172 5.84241 10.1227 4.19741 12.1987 4.17041C13.2297 4.14241 14.1807 4.54241 14.9097 5.25341C15.6377 5.96441 16.0467 6.91541 16.0587 7.92441V9.3479C16.6189 9.47807 17.1175 9.64634 17.5587 9.85617V7.91541C17.5407 6.49641 16.9727 5.16941 15.9557 4.17941C14.9407 3.18941 13.5867 2.69841 12.1787 2.67041C9.28772 2.70741 6.98572 5.00141 6.93872 7.90541V9.86241L8.43872 9.34841Z" fill="black"/>
<path d="M12.9998 17.0477C12.9998 17.4617 12.6638 17.7977 12.2498 17.7977C11.8358 17.7977 11.4998 17.4617 11.4998 17.0477V14.8267C11.4998 14.4127 11.8358 14.0767 12.2498 14.0767C12.6638 14.0767 12.9998 14.4127 12.9998 14.8267V17.0477Z" fill="black"/>
</svg>