<svg width="25" height="24" viewBox="0 0 25 24" fill="none" xmlns="http://www.w3.org/2000/svg">
<path opacity="0.4" d="M17.6186 3.99775C20.956 5.07291 22.1431 8.72844 21.1214 11.914C19.4479 17.0251 12.4803 20.2701 12.4803 20.2701C12.4803 20.2701 5.40663 16.9668 3.83039 11.914C2.80875 8.72844 4.00553 5.08264 7.34289 3.99775C8.2069 3.72823 9.12249 3.66596 10.0147 3.81775C10.907 3.96856 11.7515 4.58252 12.4803 5.12253C13.2061 4.57765 14.0517 3.96078 14.9449 3.80899C15.8381 3.65818 16.7546 3.7224 17.6186 3.99775Z" stroke="black" stroke-width="1.5" stroke-linecap="round" stroke-linejoin="round"/>
<path fill-rule="evenodd" clip-rule="evenodd" d="M13.8823 10.8571C13.8823 10.0817 13.2537 9.45215 12.4773 9.45215C11.7018 9.45215 11.0723 10.0817 11.0723 10.8571C11.0723 11.6326 11.7018 12.2621 12.4773 12.2621C13.2537 12.2621 13.8823 11.6326 13.8823 10.8571Z" stroke="black" stroke-width="1.5" stroke-linecap="round" stroke-linejoin="round"/>
<path d="M12.4766 14.5465V12.3145" stroke="black" stroke-width="1.5" stroke-linecap="round" stroke-linejoin="round"/>
</svg>