<svg width="24" height="24" viewBox="0 0 24 24" fill="none" xmlns="http://www.w3.org/2000/svg">
<path fill-rule="evenodd" clip-rule="evenodd" d="M15.4447 16.3055C14.8878 16.3055 14.4338 15.8525 14.4338 15.2945C14.4338 14.7385 14.8878 14.2845 15.4447 14.2845C16.0017 14.2845 16.4548 14.7385 16.4548 15.2945C16.4548 15.8525 16.0017 16.3055 15.4447 16.3055ZM12.0017 16.3055C11.4447 16.3055 10.9917 15.8525 10.9917 15.2945C10.9917 14.7385 11.4447 14.2845 12.0017 14.2845C12.5597 14.2845 13.0127 14.7385 13.0127 15.2945C13.0127 15.8525 12.5597 16.3055 12.0017 16.3055ZM8.55775 16.3055C8.00075 16.3055 7.54675 15.8525 7.54675 15.2945C7.54675 14.7385 8.00075 14.2845 8.55775 14.2845C9.11475 14.2845 9.56875 14.7385 9.56875 15.2945C9.56875 15.8525 9.11475 16.3055 8.55775 16.3055ZM8.30475 7.48848C8.33975 5.47648 9.94375 3.88048 11.9578 3.85548H12.0037C14.0227 3.85548 15.6768 5.48348 15.7017 7.49548V9.10048C15.4017 9.09648 15.0728 9.09548 14.6957 9.09548H9.30375C8.93075 9.09548 8.60375 9.09648 8.30475 9.09948V7.48848ZM19.5597 11.0765C19.2127 10.3595 18.6298 9.77948 17.9237 9.44648C17.7028 9.33848 17.4668 9.26648 17.2017 9.21448V7.48748C17.1667 4.62148 14.8088 2.34948 11.9387 2.35548C9.10875 2.39148 6.85375 4.63448 6.80475 7.47548V9.21248C6.53975 9.26448 6.30275 9.33548 6.08175 9.44348C5.36975 9.77948 4.78675 10.3595 4.43875 11.0785C4.09375 11.8025 4.09375 12.6395 4.09375 14.3055V16.4355C4.09375 18.1105 4.09375 18.9515 4.43875 19.6595C4.77675 20.3695 5.35775 20.9535 6.08175 21.3075C6.79875 21.6455 7.63575 21.6455 9.30375 21.6455H14.6958C16.3638 21.6455 17.2008 21.6455 17.9237 21.3045C18.6427 20.9535 19.2237 20.3695 19.5597 19.6635C19.9057 18.9515 19.9058 18.1105 19.9058 16.4355V14.3055C19.9058 12.6395 19.9057 11.8025 19.5597 11.0765Z" fill="black"/>
</svg>