<svg width="25" height="24" viewBox="0 0 25 24" fill="none" xmlns="http://www.w3.org/2000/svg">
<path d="M18.1186 3.99775C21.456 5.07291 22.6431 8.72844 21.6214 11.914C19.9479 17.0251 12.9803 20.2701 12.9803 20.2701C12.9803 20.2701 5.90663 16.9668 4.33039 11.914C3.30875 8.72844 4.50553 5.08264 7.84289 3.99775C8.7069 3.72823 9.62249 3.66596 10.5147 3.81775C11.407 3.96856 12.2515 4.58252 12.9803 5.12253C13.7061 4.57765 14.5517 3.96078 15.4449 3.80899C16.3381 3.65818 17.2546 3.7224 18.1186 3.99775Z" stroke="black" stroke-width="1.5" stroke-linecap="round" stroke-linejoin="round"/>
<path fill-rule="evenodd" clip-rule="evenodd" d="M14.3823 10.8571C14.3823 10.0817 13.7537 9.45215 12.9773 9.45215C12.2018 9.45215 11.5723 10.0817 11.5723 10.8571C11.5723 11.6326 12.2018 12.2621 12.9773 12.2621C13.7537 12.2621 14.3823 11.6326 14.3823 10.8571Z" stroke="black" stroke-width="1.5" stroke-linecap="round" stroke-linejoin="round"/>
<path d="M12.9766 14.5465V12.3145" stroke="black" stroke-width="1.5" stroke-linecap="round" stroke-linejoin="round"/>
</svg>