<svg width="25" height="24" viewBox="0 0 25 24" fill="none" xmlns="http://www.w3.org/2000/svg">
<path d="M12.25 14.1953V16.357" stroke="black" stroke-width="1.5" stroke-linecap="round" stroke-linejoin="round"/>
<path d="M16.4454 5.96056C15.6394 3.64516 13.1085 2.42226 10.7935 3.22876C9.02046 3.84556 7.82645 5.51206 7.81445 7.38976V9.49986" stroke="black" stroke-width="1.5" stroke-linecap="round" stroke-linejoin="round"/>
<path d="M15.75 21.0206C17.345 21.0206 17.3387 21.0206 17.9547 20.7249C18.5687 20.4298 19.0647 19.934 19.3597 19.3193C19.6557 18.7036 19.6558 17.9059 19.6558 16.3106V14.1787C19.6558 12.5834 19.6557 11.7858 19.3597 11.1702C19.0647 10.5554 18.5687 10.0596 17.9547 9.76435C17.3387 9.46875 16.5407 9.46875 14.9457 9.46875H9.55371C7.95871 9.46875 7.16074 9.46875 6.54474 9.76435C5.93074 10.0596 5.43477 10.5554 5.13977 11.1702C4.84377 11.7858 4.84375 12.5834 4.84375 14.1787V16.3106C4.84375 17.9059 4.84377 18.7036 5.13977 19.3193C5.43477 19.934 5.93074 20.4298 6.54474 20.7249C7.16074 21.0206 7.95871 21.0206 9.55371 21.0206H12.2497" stroke="black" stroke-width="1.5" stroke-linecap="round" stroke-linejoin="round"/>
</svg>