<svg width="25" height="25" viewBox="0 0 25 25" fill="none" xmlns="http://www.w3.org/2000/svg">
<path fill-rule="evenodd" clip-rule="evenodd" d="M7.00831 7.74407C7.02112 4.81648 9.40341 2.45443 12.3299 2.46635C15.2564 2.46724 17.6293 4.84068 17.6293 7.76735V10.4487H16.1293V7.76735C16.1293 5.66857 14.4271 3.96635 12.3283 3.96635H12.325C10.2268 3.95717 8.51833 5.64993 8.5083 7.74907V10.4487H7.0083L7.00831 7.74407Z" fill="black"/>
<path fill-rule="evenodd" clip-rule="evenodd" d="M12.9312 13.9189V17.6399H11.4312V13.9189H12.9312Z" fill="black"/>
<path fill-rule="evenodd" clip-rule="evenodd" d="M3.95557 22.4663L3.95557 9.09277L20.6806 9.09277L20.6806 22.4663L3.95557 22.4663ZM5.45557 20.9663L19.1806 20.9663L19.1806 10.5928L5.45557 10.5928L5.45557 20.9663Z" fill="black"/>
</svg>