<svg width="24" height="24" viewBox="0 0 24 24" fill="none" xmlns="http://www.w3.org/2000/svg">
<path d="M16.501 5.20905C16.501 4.58769 15.9973 4.08398 15.3759 4.08398H8.6255C8.00414 4.08398 7.50043 4.58769 7.50043 5.20905V6.33412C7.50043 6.95548 8.00414 7.45919 8.6255 7.45919H15.3759C15.9973 7.45919 16.501 6.95548 16.501 6.33412V5.20905Z" stroke="black" stroke-width="1.5" stroke-linecap="round" stroke-linejoin="round"/>
<path d="M12.7959 11.6303C12.3566 11.1909 11.6442 11.1909 11.2048 11.6303L8.02266 14.8125C7.58329 15.2518 7.58329 15.9642 8.02266 16.4036L11.2048 19.5857C11.6442 20.0251 12.3566 20.0251 12.7959 19.5857L15.9781 16.4036C16.4175 15.9642 16.4175 15.2518 15.9781 14.8125L12.7959 11.6303Z" stroke="black" stroke-width="1.5" stroke-linecap="round" stroke-linejoin="round"/>
<path d="M12.001 7.45898L12.001 11.3002" stroke="black" stroke-width="1.5" stroke-linecap="round" stroke-linejoin="round"/>
<path d="M7.69238 15.5371H4.1249C3.50355 15.5371 2.99984 16.0408 2.99984 16.6622V19.0565" stroke="black" stroke-width="1.5" stroke-linecap="round" stroke-linejoin="round"/>
<path d="M16.3076 15.5371H19.8751C20.4965 15.5371 21.0002 16.0408 21.0002 16.6622V19.0565" stroke="black" stroke-width="1.5" stroke-linecap="round" stroke-linejoin="round"/>
</svg>