<svg width="25" height="24" viewBox="0 0 25 24" fill="none" xmlns="http://www.w3.org/2000/svg">
<path d="M16.5977 10.0346H21.2639M16.5977 10.0346L18.48 8.16016M16.5977 10.0346L18.48 11.908" stroke="black" stroke-width="1.5" stroke-linecap="round" stroke-linejoin="round"/>
<path d="M5.55429 19.8768C4.14695 19.8768 3.29653 18.9636 3.23633 17.6917C3.23633 15.1029 6.03845 14.2098 10.2604 14.1797C14.49 14.2198 17.2996 15.1129 17.2846 17.6917C17.2168 18.9636 16.3714 19.8768 14.9666 19.8768H5.55429Z" stroke="black" stroke-width="1.5" stroke-miterlimit="10"/>
<path d="M10.2665 11.2244C12.2269 11.2244 13.8162 9.63513 13.8162 7.67469C13.8162 5.71425 12.2269 4.125 10.2665 4.125C8.30605 4.125 6.7168 5.71425 6.7168 7.67469C6.7168 9.63513 8.30605 11.2244 10.2665 11.2244Z" stroke="black" stroke-width="1.5" stroke-miterlimit="10"/>
</svg>