<svg width="25" height="24" viewBox="0 0 25 24" fill="none" xmlns="http://www.w3.org/2000/svg">
<path d="M17.001 5.20905C17.001 4.58769 16.4973 4.08398 15.8759 4.08398H9.1255C8.50414 4.08398 8.00043 4.58769 8.00043 5.20905V6.33412C8.00043 6.95548 8.50414 7.45919 9.1255 7.45919H15.8759C16.4973 7.45919 17.001 6.95548 17.001 6.33412V5.20905Z" stroke="black" stroke-width="1.5" stroke-linecap="round" stroke-linejoin="round"/>
<path d="M13.296 11.6303C12.8566 11.1909 12.1443 11.1909 11.7049 11.6303L8.52272 14.8125C8.08335 15.2518 8.08335 15.9642 8.52272 16.4036L11.7049 19.5857C12.1443 20.0251 12.8566 20.0251 13.296 19.5857L16.4782 16.4036C16.9175 15.9642 16.9175 15.2518 16.4782 14.8125L13.296 11.6303Z" stroke="black" stroke-width="1.5" stroke-linecap="round" stroke-linejoin="round"/>
<path opacity="0.4" d="M12.501 7.45898L12.501 11.3002" stroke="black" stroke-width="1.5" stroke-linecap="round" stroke-linejoin="round"/>
<path opacity="0.4" d="M8.19238 15.5371H4.6249C4.00355 15.5371 3.49984 16.0408 3.49984 16.6622V19.0565" stroke="black" stroke-width="1.5" stroke-linecap="round" stroke-linejoin="round"/>
<path opacity="0.4" d="M16.8076 15.5371H20.3751C20.9965 15.5371 21.5002 16.0408 21.5002 16.6622V19.0565" stroke="black" stroke-width="1.5" stroke-linecap="round" stroke-linejoin="round"/>
</svg>