<svg width="25" height="24" viewBox="0 0 25 24" fill="none" xmlns="http://www.w3.org/2000/svg">
<path fill-rule="evenodd" clip-rule="evenodd" d="M9 12.1207C9 11.7065 9.33579 11.3707 9.75 11.3707H21.791C22.2052 11.3707 22.541 11.7065 22.541 12.1207C22.541 12.5349 22.2052 12.8707 21.791 12.8707H9.75C9.33579 12.8707 9 12.5349 9 12.1207Z" fill="black"/>
<path fill-rule="evenodd" clip-rule="evenodd" d="M18.3328 8.67547C18.6251 8.38198 19.1 8.381 19.3935 8.67329L22.3215 11.5893C22.4628 11.73 22.5423 11.9213 22.5423 12.1207C22.5423 12.3202 22.4628 12.5114 22.3215 12.6521L19.3935 15.5681C19.1 15.8604 18.6251 15.8594 18.3328 15.566C18.0405 15.2725 18.0415 14.7976 18.335 14.5053L20.7294 12.1207L18.335 9.73613C18.0415 9.44384 18.0405 8.96897 18.3328 8.67547Z" fill="black"/>
<path fill-rule="evenodd" clip-rule="evenodd" d="M14.2883 4.45C15.065 5.02555 15.4533 5.96646 15.613 7.69875C15.651 8.11122 16.0162 8.41476 16.4287 8.37674C16.8411 8.33872 17.1447 7.97353 17.1066 7.56107C16.9363 5.71336 16.4896 4.21427 15.1813 3.24482C13.927 2.31536 12.0372 1.99991 9.35981 1.99991C5.80999 1.99991 3.62744 2.55645 2.50738 4.37985C1.97354 5.24891 1.73763 6.32521 1.62299 7.5573C1.50881 8.78456 1.50881 10.2589 1.50881 11.9683V12.0315C1.50881 13.7409 1.50881 15.2153 1.62299 16.4425C1.73763 17.6746 1.97354 18.7509 2.50738 19.62C3.62744 21.4434 5.80999 21.9999 9.35981 21.9999C12.0372 21.9999 13.927 21.6845 15.1813 20.755C16.4896 19.7856 16.9363 18.2865 17.1066 16.4388C17.1447 16.0263 16.8411 15.6611 16.4287 15.6231C16.0162 15.5851 15.651 15.8886 15.613 16.3011C15.4533 18.0334 15.065 18.9743 14.2883 19.5498C13.4576 20.1654 12.0124 20.4999 9.35981 20.4999C5.80864 20.4999 4.44068 19.9015 3.7855 18.8349C3.43171 18.2589 3.22381 17.4565 3.11654 16.3036C3.00953 15.1534 3.00881 13.7471 3.00881 11.9999C3.00881 10.2527 3.00953 8.84645 3.11654 7.69627C3.22381 6.54336 3.43171 5.74091 3.7855 5.16497C4.44068 4.09837 5.80864 3.49991 9.35981 3.49991C12.0124 3.49991 13.4576 3.83445 14.2883 4.45Z" fill="black"/>
</svg>