<svg width="25" height="25" viewBox="0 0 25 25" fill="none" xmlns="http://www.w3.org/2000/svg">
<path fill-rule="evenodd" clip-rule="evenodd" d="M18.252 9.99902C18.252 9.58481 17.9162 9.24902 17.502 9.24902H15.5011C15.0869 9.24902 14.7511 9.58481 14.7511 9.99902C14.7511 10.4132 15.0869 10.749 15.5011 10.749H17.502C17.9162 10.749 18.252 10.4132 18.252 9.99902Z" fill="black"/>
<path fill-rule="evenodd" clip-rule="evenodd" d="M18.252 12.5C18.252 12.0858 17.9162 11.75 17.502 11.75H15.5011C15.0869 11.75 14.7511 12.0858 14.7511 12.5C14.7511 12.9142 15.0869 13.25 15.5011 13.25H17.502C17.9162 13.25 18.252 12.9142 18.252 12.5Z" fill="black"/>
<path fill-rule="evenodd" clip-rule="evenodd" d="M18.252 15.0011C18.252 14.5869 17.9162 14.2511 17.502 14.2511H15.5011C15.0869 14.2511 14.7511 14.5869 14.7511 15.0011C14.7511 15.4153 15.0869 15.7511 15.5011 15.7511H17.502C17.9162 15.7511 18.252 15.4153 18.252 15.0011Z" fill="black"/>
<path fill-rule="evenodd" clip-rule="evenodd" d="M3.9902 4.39737C4.97468 3.34117 6.37669 2.75 8.03216 2.75H16.4669C18.1262 2.75 19.5288 3.34084 20.5129 4.39765C21.4913 5.44841 22 6.89889 22 8.52638V16.4736C22 18.1011 21.4913 19.5516 20.5127 20.6024C19.5285 21.6592 18.1256 22.25 16.4659 22.25H8.03216C6.3728 22.25 4.97038 21.6591 3.98657 20.6023C3.00842 19.5515 2.5 18.101 2.5 16.4736V8.52638C2.5 6.89806 3.01117 5.44771 3.9902 4.39737ZM5.08745 5.42012C4.41024 6.14666 4 7.20951 4 8.52638V16.4736C4 17.7914 4.40861 18.8541 5.08451 19.5802C5.75475 20.3003 6.74341 20.75 8.03216 20.75H16.4659C17.7552 20.75 18.7444 20.3002 19.415 19.5801C20.0912 18.854 20.5 17.7913 20.5 16.4736V8.52638C20.5 7.20868 20.0912 6.14597 19.4151 5.41984C18.7446 4.69975 17.7556 4.25 16.4669 4.25H8.03216C6.74828 4.25 5.75921 4.69943 5.08745 5.42012Z" fill="black"/>
<path d="M11.1699 17.3471C11.1199 17.3471 11.06 17.3471 11 17.3471C10.29 17.2971 9.67991 17.1471 9.13991 16.8971C8.12991 16.4371 7.3699 15.7471 6.8799 14.8371C6.0599 13.3171 6.04993 11.7271 6.84993 10.2271C7.31993 9.34706 7.99995 8.68708 8.86995 8.24708C9.59995 7.87708 10.32 7.68712 11.06 7.65712C11.67 7.61712 12.21 7.86711 12.62 8.33711C12.88 8.63711 13.0899 9.00711 13.2599 9.46711C13.6399 10.4871 13.72 11.5371 13.75 12.4271V12.4671C13.73 13.3171 13.6599 13.9771 13.5299 14.5871C13.3899 15.2871 13.1799 15.8271 12.8899 16.3071C12.4799 16.9871 11.8699 17.3471 11.1499 17.3471H11.1699ZM11.1599 9.15712H11.1299C10.5999 9.17712 10.0899 9.31711 9.54994 9.58711C8.94994 9.88711 8.50995 10.3271 8.17995 10.9371C7.60995 11.9971 7.61991 13.0371 8.19991 14.1171C8.53991 14.7371 9.04991 15.1971 9.75991 15.5271C10.1399 15.6971 10.5699 15.7971 11.1099 15.8371C11.2599 15.8471 11.42 15.8371 11.62 15.5171C11.82 15.1971 11.9599 14.7971 12.0699 14.2771C12.1799 13.7571 12.24 13.1871 12.25 12.4371C12.22 11.6771 12.1499 10.7971 11.8599 9.97706C11.7499 9.68706 11.64 9.47709 11.5 9.31709C11.39 9.19709 11.2999 9.14711 11.1599 9.14711V9.15712Z" fill="black"/>
</svg>