<svg width="25" height="25" viewBox="0 0 25 25" fill="none" xmlns="http://www.w3.org/2000/svg">
<path d="M17.502 10.3838H15.5011" stroke="black" stroke-width="1.5" stroke-linecap="round" stroke-linejoin="round"/>
<path d="M17.502 12.8847H15.5011" stroke="black" stroke-width="1.5" stroke-linecap="round" stroke-linejoin="round"/>
<path d="M17.502 15.3858H15.5011" stroke="black" stroke-width="1.5" stroke-linecap="round" stroke-linejoin="round"/>
<path d="M13 12.8351C12.9696 11.9192 12.8841 10.9918 12.5611 10.1099C12.4404 9.78041 12.2845 9.47275 12.0583 9.21317C11.7945 8.90988 11.4723 8.7744 11.0902 8.78926C10.4291 8.81548 9.80551 8.99728 9.20594 9.2997C8.48246 9.66504 7.91247 10.2183 7.50956 10.9656C6.81007 12.2653 6.83565 13.572 7.53515 14.8611C7.98122 15.6836 8.64794 16.2307 9.44417 16.5961C9.959 16.8312 10.501 16.9352 11.055 16.9772C11.5858 17.0182 11.9751 16.7613 12.2581 16.2963C12.5323 15.8462 12.6906 15.3401 12.8001 14.8166C12.9352 14.1715 12.9816 13.516 12.9992 12.8351H13Z" stroke="black" stroke-width="1.5" stroke-linecap="round" stroke-linejoin="round"/>
<path d="M8.03216 3.88477H16.4669C19.415 3.88477 21.25 5.96595 21.25 8.91114V16.8584C21.25 19.8036 19.415 21.8848 16.4659 21.8848H8.03216C5.08405 21.8848 3.25 19.8036 3.25 16.8584V8.91114C3.25 5.96595 5.09281 3.88477 8.03216 3.88477Z" stroke="black" stroke-width="1.5" stroke-linecap="round" stroke-linejoin="round"/>
</svg>