<svg width="24" height="24" viewBox="0 0 24 24" fill="none" xmlns="http://www.w3.org/2000/svg">
<path fill-rule="evenodd" clip-rule="evenodd" d="M13.7695 11.3513C14.0624 11.0584 14.5372 11.0584 14.8301 11.3513L17.3155 13.8366L19.8004 11.3513C20.0932 11.0584 20.5681 11.0583 20.861 11.3512C21.1539 11.6441 21.154 12.119 20.8611 12.4119L17.8459 15.4276C17.7053 15.5683 17.5145 15.6473 17.3156 15.6473C17.1166 15.6473 16.9259 15.5683 16.7852 15.4277L13.7695 12.4119C13.4766 12.119 13.4766 11.6442 13.7695 11.3513Z" fill="black"/>
<path fill-rule="evenodd" clip-rule="evenodd" d="M6.68471 8.21838C6.88363 8.21839 7.07441 8.29743 7.21505 8.4381L10.2303 11.4538C10.5231 11.7468 10.5231 12.2216 10.2302 12.5145C9.93724 12.8074 9.46237 12.8073 9.1695 12.5144L6.68463 10.0291L4.19928 12.5144C3.90638 12.8073 3.43151 12.8073 3.13862 12.5144C2.84572 12.2216 2.84572 11.7467 3.13862 11.4538L6.15435 8.43805C6.29501 8.29739 6.48579 8.21837 6.68471 8.21838Z" fill="black"/>
<path fill-rule="evenodd" clip-rule="evenodd" d="M5.94141 6.05525C5.94141 3.95354 7.64519 2.24976 9.74691 2.24976L14.2597 2.24976C16.3614 2.24976 18.0652 3.95354 18.0652 6.05526V14.8362C18.0652 15.2504 17.7294 15.5862 17.3152 15.5862C16.901 15.5862 16.5652 15.2504 16.5652 14.8362V6.05526C16.5652 4.78196 15.533 3.74976 14.2597 3.74976L9.74691 3.74976C8.47361 3.74976 7.44141 4.78196 7.44141 6.05525C7.44141 6.46947 7.10562 6.80525 6.69141 6.80525C6.27719 6.80525 5.94141 6.46947 5.94141 6.05525Z" fill="black"/>
<path fill-rule="evenodd" clip-rule="evenodd" d="M6.69141 8.30884C7.10562 8.30884 7.44141 8.64462 7.44141 9.05884L7.44141 17.9441C7.44141 19.2174 8.47361 20.2496 9.74691 20.2496H14.2597C15.533 20.2496 16.5652 19.2174 16.5652 17.9441C16.5652 17.5298 16.901 17.1941 17.3152 17.1941C17.7294 17.1941 18.0652 17.5298 18.0652 17.9441C18.0652 20.0458 16.3614 21.7496 14.2597 21.7496H9.74691C7.64519 21.7496 5.94141 20.0458 5.94141 17.9441L5.94141 9.05884C5.94141 8.64462 6.27719 8.30884 6.69141 8.30884Z" fill="black"/>
</svg>