<svg width="24" height="24" viewBox="0 0 24 24" fill="none" xmlns="http://www.w3.org/2000/svg">
<path fill-rule="evenodd" clip-rule="evenodd" d="M13.7695 11.3498C14.0624 11.0569 14.5372 11.0569 14.8301 11.3498L17.3148 13.8345L19.7991 11.3498C20.0919 11.0569 20.5668 11.0569 20.8597 11.3498C21.1526 11.6426 21.1527 12.1175 20.8598 12.4104L17.8453 15.4255C17.7046 15.5662 17.5138 15.6452 17.3149 15.6452C17.116 15.6452 16.9252 15.5662 16.7846 15.4255L13.7695 12.4105C13.4766 12.1176 13.4766 11.6427 13.7695 11.3498Z" fill="black"/>
<path fill-rule="evenodd" clip-rule="evenodd" d="M6.68601 8.21753C6.88494 8.21754 7.07571 8.29657 7.21636 8.43725L10.2309 11.4523C10.5238 11.7452 10.5237 12.2201 10.2308 12.513C9.93789 12.8059 9.46302 12.8058 9.17015 12.5129L6.68593 10.0282L4.20123 12.5129C3.90834 12.8058 3.43346 12.8058 3.14057 12.5129C2.84768 12.22 2.84768 11.7452 3.14057 11.4523L6.15565 8.4372C6.29631 8.29654 6.48709 8.21752 6.68601 8.21753Z" fill="black"/>
<path fill-rule="evenodd" clip-rule="evenodd" d="M6.74532 5.29558C7.7899 3.47743 9.75305 2.25024 12.0037 2.25024C15.351 2.25024 18.0645 4.96373 18.0645 8.31098V14.8756C18.0645 15.2898 17.7287 15.6256 17.3145 15.6256C16.9002 15.6256 16.5645 15.2898 16.5645 14.8756V8.31098C16.5645 5.79215 14.5225 3.75024 12.0037 3.75024C10.3117 3.75024 8.83397 4.67123 8.04595 6.04283C7.8396 6.40198 7.38117 6.52586 7.02201 6.31952C6.66285 6.11317 6.53898 5.65474 6.74532 5.29558Z" fill="black"/>
<path fill-rule="evenodd" clip-rule="evenodd" d="M6.69287 8.30457C7.10708 8.30457 7.44287 8.64035 7.44287 9.05457L7.44287 15.6897C7.44287 18.2085 9.48478 20.2504 12.0036 20.2504C13.6475 20.2504 15.089 19.3812 15.8925 18.0737C16.1094 17.7208 16.5713 17.6105 16.9242 17.8274C17.2771 18.0442 17.3874 18.5061 17.1705 18.859C16.1055 20.592 14.1902 21.7504 12.0036 21.7504C8.65635 21.7504 5.94287 19.0369 5.94287 15.6897L5.94287 9.05457C5.94287 8.64035 6.27866 8.30457 6.69287 8.30457Z" fill="black"/>
</svg>