<svg width="24" height="24" viewBox="0 0 24 24" fill="none" xmlns="http://www.w3.org/2000/svg">
<path fill-rule="evenodd" clip-rule="evenodd" d="M8.46967 3.96967C8.76256 3.67678 9.23744 3.67678 9.53033 3.96967L12.5303 6.96967C12.8232 7.26256 12.8232 7.73744 12.5303 8.03033L9.53033 11.0303C9.23744 11.3232 8.76256 11.3232 8.46967 11.0303C8.17678 10.7374 8.17678 10.2626 8.46967 9.96967L10.1893 8.25H7C5.75736 8.25 4.75 9.25736 4.75 10.5V16.5C4.75 17.7426 5.75736 18.75 7 18.75H17C18.2426 18.75 19.25 17.7426 19.25 16.5V10.5C19.25 9.25736 18.2426 8.25 17 8.25H16C15.5858 8.25 15.25 7.91421 15.25 7.5C15.25 7.08579 15.5858 6.75 16 6.75H17C19.0711 6.75 20.75 8.42893 20.75 10.5V16.5C20.75 18.5711 19.0711 20.25 17 20.25H7C4.92893 20.25 3.25 18.5711 3.25 16.5V10.5C3.25 8.42893 4.92893 6.75 7 6.75H10.1893L8.46967 5.03033C8.17678 4.73744 8.17678 4.26256 8.46967 3.96967Z" fill="black"/>
</svg>