<svg width="24" height="24" viewBox="0 0 24 24" fill="none" xmlns="http://www.w3.org/2000/svg">
<path fill-rule="evenodd" clip-rule="evenodd" d="M7 5.25C5.75736 5.25 4.75 6.25736 4.75 7.5V13.5C4.75 14.7426 5.75736 15.75 7 15.75H8C8.41421 15.75 8.75 16.0858 8.75 16.5C8.75 16.9142 8.41421 17.25 8 17.25H7C4.92893 17.25 3.25 15.5711 3.25 13.5V7.5C3.25 5.42893 4.92893 3.75 7 3.75H17C19.0711 3.75 20.75 5.42893 20.75 7.5V13.5C20.75 15.5711 19.0711 17.25 17 17.25H13.8107L15.5303 18.9697C15.8232 19.2626 15.8232 19.7374 15.5303 20.0303C15.2374 20.3232 14.7626 20.3232 14.4697 20.0303L11.4697 17.0303C11.1768 16.7374 11.1768 16.2626 11.4697 15.9697L14.4697 12.9697C14.7626 12.6768 15.2374 12.6768 15.5303 12.9697C15.8232 13.2626 15.8232 13.7374 15.5303 14.0303L13.8107 15.75H17C18.2426 15.75 19.25 14.7426 19.25 13.5V7.5C19.25 6.25736 18.2426 5.25 17 5.25H7Z" fill="black"/>
</svg>