<svg width="25" height="24" viewBox="0 0 25 24" fill="none" xmlns="http://www.w3.org/2000/svg">
<path d="M21.9766 15.0944C21.9766 17.8596 20.1318 20.1072 17.3948 20.1004H8.55829C5.82132 20.1072 3.97656 17.8596 3.97656 15.0944V8.91315C3.97656 6.15088 5.82132 3.90039 8.55829 3.90039H17.3948C20.1318 3.90039 21.9766 6.15088 21.9766 8.91315V15.0944Z" stroke="black" stroke-width="1.5" stroke-linecap="round" stroke-linejoin="round"/>
<path d="M8.40217 15.1533L4.64941 17.7278" stroke="black" stroke-width="1.5" stroke-linecap="round" stroke-linejoin="round"/>
<path d="M21.3074 17.7268L17.5547 15.1523" stroke="black" stroke-width="1.5" stroke-linecap="round" stroke-linejoin="round"/>
<path d="M7.65492 8.34005L4.64844 6.2793" stroke="black" stroke-width="1.5" stroke-linecap="round" stroke-linejoin="round"/>
<path d="M21.3093 6.2793L18.3125 8.34005" stroke="black" stroke-width="1.5" stroke-linecap="round" stroke-linejoin="round"/>
<path fill-rule="evenodd" clip-rule="evenodd" d="M15.8753 11.4818C16.0738 10.3648 15.5095 9.19528 14.337 8.98414C13.7211 8.8742 13.0887 9.06977 12.6421 9.50955C12.0953 9.20695 11.4376 9.18458 10.8713 9.44922C9.79616 9.96198 9.55681 11.2395 10.0433 12.264C10.8051 13.8889 13.3621 14.8755 13.3621 14.8755C13.3621 14.8755 15.5532 13.2711 15.8753 11.4818Z" stroke="black" stroke-width="1.5" stroke-linecap="round" stroke-linejoin="round"/>
</svg>