<svg width="25" height="24" viewBox="0 0 25 24" fill="none" xmlns="http://www.w3.org/2000/svg">
<path d="M19.8478 18.2572C19.0878 18.2572 18.3278 18.0573 17.6578 17.6473C16.7978 17.1273 15.6977 17.1273 14.8377 17.6473C13.5077 18.4573 11.7877 18.4573 10.4577 17.6473C9.59774 17.1273 8.49779 17.1273 7.63779 17.6473C6.30779 18.4573 4.58779 18.4573 3.25779 17.6473C2.90779 17.4373 2.78779 16.9673 3.00779 16.6173C3.21779 16.2673 3.67776 16.1473 4.03776 16.3673C4.89776 16.8873 5.99777 16.8873 6.85777 16.3673C8.18777 15.5573 9.90777 15.5573 11.2378 16.3673C12.0978 16.8873 13.1978 16.8873 14.0578 16.3673C15.3878 15.5573 17.1078 15.5573 18.4378 16.3673C19.2878 16.8873 20.3978 16.8873 21.2578 16.3673C21.6078 16.1573 22.0778 16.2673 22.2878 16.6173C22.5078 16.9673 22.3878 17.4373 22.0378 17.6473C21.3678 18.0473 20.6078 18.2572 19.8478 18.2572Z" fill="black"/>
<path d="M19.8478 21.7475C19.0878 21.7475 18.3278 21.5475 17.6578 21.1375C16.7978 20.6175 15.6977 20.6175 14.8377 21.1375C13.5077 21.9475 11.7877 21.9475 10.4577 21.1375C9.59774 20.6175 8.49779 20.6175 7.63779 21.1375C6.30779 21.9475 4.58779 21.9475 3.25779 21.1375C2.90779 20.9275 2.78779 20.4575 3.00779 20.1075C3.21779 19.7575 3.67776 19.6375 4.03776 19.8575C4.89776 20.3775 5.99777 20.3775 6.85777 19.8575C8.18777 19.0475 9.90777 19.0475 11.2378 19.8575C12.0978 20.3775 13.1978 20.3775 14.0578 19.8575C15.3878 19.0475 17.1078 19.0475 18.4378 19.8575C19.2878 20.3775 20.3978 20.3775 21.2578 19.8575C21.6078 19.6375 22.0778 19.7575 22.2878 20.1075C22.5078 20.4575 22.3878 20.9275 22.0378 21.1375C21.3678 21.5375 20.6078 21.7475 19.8478 21.7475Z" fill="black"/>
<path d="M12.728 12.2378C9.92797 12.2378 7.64795 9.95778 7.64795 7.15778C7.64795 4.90778 9.15794 2.89781 11.3279 2.27781C11.6179 2.19781 11.968 2.3078 12.158 2.5478C12.348 2.7878 12.368 3.14779 12.218 3.41779C11.588 4.60779 11.818 6.12778 12.788 7.09778C13.758 8.06778 15.278 8.29778 16.488 7.65778C16.488 7.65778 16.498 7.65778 16.508 7.65778C16.778 7.52778 17.128 7.56779 17.358 7.75779C17.588 7.94779 17.688 8.28779 17.608 8.56779C16.988 10.7278 14.988 12.2478 12.728 12.2478V12.2378ZM10.388 4.46781C9.628 5.13781 9.15796 6.10779 9.15796 7.16779C9.15796 9.13779 10.758 10.7478 12.738 10.7478C13.788 10.7478 14.768 10.2778 15.438 9.50779C14.098 9.61779 12.728 9.15779 11.738 8.16779C10.748 7.17779 10.2879 5.80781 10.3979 4.46781H10.388Z" fill="black"/>
<path d="M5.00797 14.6671C4.90797 14.6671 4.80793 14.6471 4.71793 14.6071C4.62793 14.5671 4.54794 14.5171 4.47794 14.4471L2.92795 12.8972C2.63795 12.6072 2.63795 12.1272 2.92795 11.8372C3.21795 11.5472 3.69795 11.5472 3.98795 11.8372L4.25797 12.1071V10.0771C4.25797 9.66715 4.59797 9.32715 5.00797 9.32715C5.41797 9.32715 5.75797 9.66715 5.75797 10.0771V12.1071L6.03793 11.8271C6.32793 11.5371 6.80793 11.5371 7.09793 11.8271C7.38793 12.1171 7.38793 12.5971 7.09793 12.8871L5.53793 14.4372C5.46793 14.4972 5.39795 14.5471 5.30795 14.5771C5.21795 14.6171 5.12792 14.6271 5.02792 14.6271L5.00797 14.6671Z" fill="black"/>
<path d="M20.088 14.6671C19.988 14.6671 19.888 14.6471 19.798 14.6071C19.708 14.5671 19.628 14.5171 19.558 14.4471L18.008 12.8972C17.718 12.6072 17.718 12.1272 18.008 11.8372C18.298 11.5472 18.778 11.5472 19.068 11.8372L19.338 12.1071V10.0771C19.338 9.66715 19.678 9.32715 20.088 9.32715C20.498 9.32715 20.838 9.66715 20.838 10.0771V12.1071L21.118 11.8271C21.408 11.5371 21.888 11.5371 22.178 11.8271C22.468 12.1171 22.468 12.5971 22.178 12.8871L20.618 14.4372C20.548 14.4972 20.478 14.5471 20.388 14.5771C20.298 14.6171 20.208 14.6271 20.108 14.6271L20.088 14.6671Z" fill="black"/>
</svg>