<svg width="25" height="24" viewBox="0 0 25 24" fill="none" xmlns="http://www.w3.org/2000/svg">
<path opacity="0.4" d="M6.35773 5.99968V12.0224C5.15027 12.935 4.3573 14.3692 4.3573 15.9999C4.3573 18.7612 6.59611 21 9.35741 21C12.1187 21 14.3575 18.7612 14.3575 15.9999C14.3575 14.3692 13.5655 12.935 12.3581 12.0224V5.99968C12.3581 4.3427 11.0144 3 9.35741 3C7.70044 3 6.35773 4.3427 6.35773 5.99968Z" stroke="black" stroke-width="1.5" stroke-linecap="round" stroke-linejoin="round"/>
<path fill-rule="evenodd" clip-rule="evenodd" d="M10.8319 15.9996C10.8319 16.813 10.1722 17.4727 9.35882 17.4727C8.54444 17.4727 7.88477 16.813 7.88477 15.9996C7.88477 15.1862 8.5441 14.5264 9.35848 14.5264C10.1719 14.5264 10.8319 15.1862 10.8319 15.9996Z" stroke="black" stroke-width="1.5" stroke-linecap="round" stroke-linejoin="round"/>
<path d="M9.35742 6.72754V14.5269" stroke="black" stroke-width="1.5" stroke-linecap="round" stroke-linejoin="round"/>
<path d="M17.8713 10.319V4.95557M17.8713 10.319L19.8712 8.31818M17.8713 10.319L15.8712 8.31818" stroke="black" stroke-width="1.5" stroke-linecap="round" stroke-linejoin="round"/>
</svg>