<svg width="24" height="24" viewBox="0 0 24 24" fill="none" xmlns="http://www.w3.org/2000/svg">
<path fill-rule="evenodd" clip-rule="evenodd" d="M16.917 11.14C17.331 11.14 17.667 11.476 17.667 11.89C17.667 12.304 17.331 12.64 16.917 12.64H15.941V13.361H17.349C17.763 13.361 18.099 13.697 18.099 14.111C18.099 14.525 17.763 14.861 17.349 14.861H15.191C14.777 14.861 14.441 14.525 14.441 14.111V9.68C14.441 9.266 14.777 8.93 15.191 8.93H17.349C17.763 8.93 18.099 9.266 18.099 9.68C18.099 10.094 17.763 10.43 17.349 10.43H15.941V11.14H16.917ZM12.978 10.43H12.252V14.111C12.252 14.525 11.916 14.861 11.502 14.861C11.088 14.861 10.752 14.525 10.752 14.111V10.43H10.025C9.611 10.43 9.275 10.094 9.275 9.68C9.275 9.266 9.611 8.93 10.025 8.93H12.978C13.392 8.93 13.728 9.266 13.728 9.68C13.728 10.094 13.392 10.43 12.978 10.43ZM8.825 14.861H7.039C6.625 14.861 6.289 14.525 6.289 14.111V9.68C6.289 9.266 6.625 8.93 7.039 8.93C7.453 8.93 7.789 9.266 7.789 9.68V13.361H8.825C9.239 13.361 9.575 13.697 9.575 14.111C9.575 14.525 9.239 14.861 8.825 14.861ZM12 2.5C6.762 2.5 2.5 6.762 2.5 12C2.5 17.239 6.762 21.5 12 21.5C17.238 21.5 21.5 17.239 21.5 12C21.5 6.762 17.238 2.5 12 2.5Z" fill="black"/>
</svg>