<svg width="25" height="24" viewBox="0 0 25 24" fill="none" xmlns="http://www.w3.org/2000/svg">
<path fill-rule="evenodd" clip-rule="evenodd" d="M2.86916 11.7695C3.00713 8.18815 6.02227 5.39671 9.60366 5.53469C10.9121 5.58509 12.1171 6.02039 13.1113 6.72752C13.4488 6.9676 13.5278 7.43586 13.2877 7.7734C13.0476 8.11094 12.5794 8.18994 12.2418 7.94985C11.4783 7.40675 10.5538 7.07241 9.54591 7.03358C6.79234 6.92749 4.47413 9.07371 4.36805 11.8273C4.26197 14.5809 6.40818 16.8991 9.16176 17.0051C10.3072 17.0493 11.3754 16.7045 12.2419 16.0883C12.5795 15.8483 13.0478 15.9274 13.2878 16.265C13.5278 16.6026 13.4487 17.0708 13.1112 17.3108C11.9841 18.1122 10.592 18.5614 9.10401 18.504C5.52263 18.3661 2.73119 15.3509 2.86916 11.7695Z" fill="black"/>
<path fill-rule="evenodd" clip-rule="evenodd" d="M3.30942 13.5565C3.86526 12.6573 4.87785 12.0723 6.01292 12.1161C7.69013 12.1807 8.9974 13.5927 8.93279 15.2699C8.88866 16.4154 8.21574 17.3872 7.26265 17.8679C6.8928 18.0544 6.44179 17.9057 6.25529 17.5359C6.06878 17.166 6.21741 16.715 6.58727 16.5285C7.07292 16.2836 7.41161 15.7908 7.4339 15.2122C7.46662 14.3628 6.80457 13.6477 5.95517 13.615C5.3818 13.5929 4.86859 13.887 4.58531 14.3452C4.36751 14.6975 3.90533 14.8066 3.553 14.5888C3.20067 14.371 3.09162 13.9088 3.30942 13.5565Z" fill="black"/>
<path fill-rule="evenodd" clip-rule="evenodd" d="M9.0772 5.62712C9.46649 5.76863 9.66735 6.19893 9.52583 6.58822C9.45513 6.78272 9.41264 6.99206 9.40416 7.21221C9.36756 8.16223 9.98237 8.98823 10.8511 9.25583C11.2469 9.37777 11.469 9.79753 11.347 10.1934C11.2251 10.5892 10.8053 10.8113 10.4095 10.6894C8.9075 10.2267 7.84186 8.80064 7.90528 7.15446L8.65472 7.18334L7.90528 7.15446C7.91981 6.77719 7.99293 6.41455 8.11609 6.07576C8.2576 5.68647 8.68791 5.48561 9.0772 5.62712Z" fill="black"/>
<path fill-rule="evenodd" clip-rule="evenodd" d="M7.47009 9.92417C7.56181 10.3281 7.30872 10.7299 6.90479 10.8216L6.89842 10.8231C6.49449 10.9148 6.09269 10.6617 6.00096 10.2578C5.90924 9.85385 6.16233 9.45204 6.56626 9.36032L6.57263 9.35887C6.97656 9.26715 7.37837 9.52024 7.47009 9.92417Z" fill="black"/>
<path fill-rule="evenodd" clip-rule="evenodd" d="M16.0182 2.60522C16.4325 2.60522 16.7682 2.94101 16.7682 3.35522V4.28414C16.7682 4.69835 16.4325 5.03414 16.0182 5.03414C15.604 5.03414 15.2682 4.69835 15.2682 4.28414V3.35522C15.2682 2.94101 15.604 2.60522 16.0182 2.60522ZM12.1766 3.35844C12.5361 3.15278 12.9943 3.27753 13.2 3.63708L13.6815 4.47896C13.8872 4.83852 13.7624 5.29671 13.4029 5.50237C13.0433 5.70803 12.5851 5.58327 12.3795 5.22372L11.8979 4.38184C11.6923 4.02229 11.817 3.56409 12.1766 3.35844ZM19.8607 3.35844C20.2202 3.5641 20.345 4.02229 20.1393 4.38184L19.6578 5.22372C19.4521 5.58327 18.9939 5.70803 18.6344 5.50237C18.2748 5.29671 18.1501 4.83851 18.3557 4.47896L18.8373 3.63708C19.043 3.27753 19.5011 3.15278 19.8607 3.35844Z" fill="black"/>
<path fill-rule="evenodd" clip-rule="evenodd" d="M16.0182 21.3948C16.4325 21.3948 16.7682 21.059 16.7682 20.6448V19.7159C16.7682 19.3016 16.4325 18.9659 16.0182 18.9659C15.604 18.9659 15.2682 19.3016 15.2682 19.7159V20.6448C15.2682 21.059 15.604 21.3948 16.0182 21.3948ZM12.1766 20.6416C12.5361 20.8472 12.9943 20.7225 13.2 20.3629L13.6815 19.521C13.8872 19.1615 13.7624 18.7033 13.4029 18.4976C13.0433 18.292 12.5851 18.4167 12.3795 18.7763L11.8979 19.6182C11.6923 19.9777 11.817 20.4359 12.1766 20.6416ZM19.8607 20.6416C20.2202 20.4359 20.345 19.9777 20.1393 19.6182L19.6578 18.7763C19.4521 18.4167 18.9939 18.292 18.6344 18.4976C18.2748 18.7033 18.1501 19.1615 18.3557 19.521L18.8373 20.3629C19.043 20.7225 19.5011 20.8472 19.8607 20.6416Z" fill="black"/>
<path fill-rule="evenodd" clip-rule="evenodd" d="M15.9299 7.08447C13.204 7.08447 10.9954 9.2942 10.9954 12.019C10.9954 14.7452 13.2041 16.9548 15.9299 16.9548C18.6556 16.9548 20.8643 14.7452 20.8643 12.019C20.8643 9.2942 18.6557 7.08447 15.9299 7.08447ZM9.49536 12.019C9.49536 8.466 12.3753 5.58447 15.9299 5.58447C19.4844 5.58447 22.3643 8.466 22.3643 12.019C22.3643 15.5731 19.4845 18.4548 15.9299 18.4548C12.3752 18.4548 9.49536 15.5731 9.49536 12.019Z" fill="black"/>
</svg>