<svg width="25" height="24" viewBox="0 0 25 24" fill="none" xmlns="http://www.w3.org/2000/svg">
<path opacity="0.4" fill-rule="evenodd" clip-rule="evenodd" d="M16.7861 2.5H8.35107C5.19207 2.5 3.07007 4.721 3.07007 8.026V15.974C3.07007 19.279 5.19207 21.5 8.35107 21.5H16.7851C19.9461 21.5 22.0701 19.279 22.0701 15.974V8.026C22.0701 4.721 19.9471 2.5 16.7861 2.5Z" fill="black"/>
<path d="M11.9292 17.1268H17.2182C17.6322 17.1268 17.9682 16.7908 17.9682 16.3768C17.9682 15.9628 17.6322 15.6268 17.2182 15.6268H11.9292C11.5152 15.6268 11.1792 15.9628 11.1792 16.3768C11.1792 16.7908 11.5152 17.1268 11.9292 17.1268Z" fill="black"/>
<path d="M7.91919 17.1278H9.22919C9.64319 17.1278 9.97919 16.7918 9.97919 16.3778C9.97919 15.9638 9.64319 15.6278 9.22919 15.6278H7.91919C7.50519 15.6278 7.16919 15.9638 7.16919 16.3778C7.16919 16.7918 7.50519 17.1278 7.91919 17.1278Z" fill="black"/>
<path d="M12.1622 11.9038H7.97819C7.56419 11.9038 7.22819 12.2398 7.22819 12.6538C7.22819 13.0678 7.56419 13.4038 7.97819 13.4038H12.1622C12.5762 13.4038 12.9122 13.0678 12.9122 12.6538C12.9122 12.2398 12.5762 11.9038 12.1622 11.9038Z" fill="black"/>
<path d="M17.2172 11.9038H14.8712C14.4572 11.9038 14.1212 12.2398 14.1212 12.6538C14.1212 13.0678 14.4572 13.4038 14.8712 13.4038H17.2172C17.6312 13.4038 17.9672 13.0678 17.9672 12.6538C17.9672 12.2398 17.6312 11.9038 17.2172 11.9038Z" fill="black"/>
</svg>