<svg width="24" height="24" viewBox="0 0 24 24" fill="none" xmlns="http://www.w3.org/2000/svg">
<path fill-rule="evenodd" clip-rule="evenodd" d="M13.311 18.0021H10.695C10.281 18.0021 9.94504 17.6661 9.94504 17.2521C9.94504 16.8381 10.281 16.5021 10.695 16.5021H13.311C13.725 16.5021 14.061 16.8381 14.061 17.2521C14.061 17.6661 13.725 18.0021 13.311 18.0021ZM21.342 17.3201L20.112 14.6431H3.89304L2.64604 17.3581C2.38304 18.0781 2.48804 18.8821 2.92704 19.5101C3.36604 20.1381 4.08504 20.5131 4.85104 20.5131H19.153C19.919 20.5131 20.638 20.1381 21.077 19.5101C21.516 18.8821 21.621 18.0771 21.342 17.3201Z" fill="black"/>
<path fill-rule="evenodd" clip-rule="evenodd" d="M12.003 11.4533C11.982 11.4533 11.962 11.4523 11.941 11.4513C11.529 11.4163 11.221 11.0653 11.255 10.6523L11.257 10.6293C11.292 10.2163 11.651 9.92033 12.067 9.94433C12.48 9.97833 12.787 10.3413 12.753 10.7543C12.72 11.1463 12.39 11.4533 12.003 11.4533ZM11.248 6.21333C11.248 5.79933 11.584 5.46333 11.998 5.46333C12.412 5.46333 12.748 5.79933 12.748 6.21333V8.43633C12.748 8.85033 12.412 9.18633 11.998 9.18633C11.584 9.18633 11.248 8.85033 11.248 8.43633V6.21333ZM19.962 6.42133C19.962 4.80333 18.645 3.48633 17.026 3.48633H6.97897C5.35997 3.48633 4.04297 4.80333 4.04297 6.42133V13.1423H19.962V6.42133Z" fill="black"/>
</svg>