<svg width="25" height="24" viewBox="0 0 25 24" fill="none" xmlns="http://www.w3.org/2000/svg">
<path fill-rule="evenodd" clip-rule="evenodd" d="M2.5 16.4169C2.5 15.6983 3.08281 15.1172 3.8007 15.1172H20.6993C21.4172 15.1172 22 15.6983 22 16.4169V16.9238C22 18.6788 20.5764 20.1024 18.8215 20.1024H5.67854C3.92357 20.1024 2.5 18.6788 2.5 16.9238V16.4169ZM4 16.6172V16.9238C4 17.8504 4.752 18.6024 5.67854 18.6024H18.8215C19.748 18.6024 20.5 17.8504 20.5 16.9238V16.6172H4Z" fill="black"/>
<path fill-rule="evenodd" clip-rule="evenodd" d="M3.83008 7.66076C3.83008 5.58308 5.51312 3.89844 7.59143 3.89844H16.9076C18.9848 3.89844 20.669 5.58292 20.669 7.66076V15.8668C20.669 16.281 20.3332 16.6168 19.919 16.6168C19.5048 16.6168 19.169 16.281 19.169 15.8668V7.66076C19.169 6.41103 18.1561 5.39844 16.9076 5.39844H7.59143C6.34218 5.39844 5.33008 6.41088 5.33008 7.66076V15.8668C5.33008 16.281 4.99429 16.6168 4.58008 16.6168C4.16586 16.6168 3.83008 16.281 3.83008 15.8668V7.66076Z" fill="black"/>
<path fill-rule="evenodd" clip-rule="evenodd" d="M10.1122 8.26264C10.4051 7.96975 10.88 7.96975 11.1729 8.26264L12.2514 9.34112L13.3299 8.26264C13.6228 7.96975 14.0976 7.96975 14.3905 8.26264C14.6834 8.55553 14.6834 9.03041 14.3905 9.3233L13.312 10.4018L14.3905 11.4803C14.6834 11.7732 14.6834 12.248 14.3905 12.5409C14.0976 12.8338 13.6228 12.8338 13.3299 12.5409L12.2514 11.4624L11.1729 12.5409C10.88 12.8338 10.4051 12.8338 10.1122 12.5409C9.81935 12.248 9.81935 11.7732 10.1122 11.4803L11.1907 10.4018L10.1122 9.3233C9.81935 9.03041 9.81935 8.55553 10.1122 8.26264Z" fill="black"/>
</svg>