<svg width="24" height="24" viewBox="0 0 24 24" fill="none" xmlns="http://www.w3.org/2000/svg">
<path opacity="0.4" fill-rule="evenodd" clip-rule="evenodd" d="M19.962 6.42133C19.962 4.80333 18.645 3.48633 17.026 3.48633H6.97897C5.35997 3.48633 4.04297 4.80333 4.04297 6.42133V13.1423H19.962V6.42133Z" fill="black"/>
<path fill-rule="evenodd" clip-rule="evenodd" d="M14.1339 8.84603L12.9059 11.057C12.7689 11.304 12.5129 11.443 12.2499 11.443C12.1259 11.443 12.0019 11.413 11.8859 11.349C11.5239 11.148 11.3929 10.691 11.5939 10.329L12.2039 9.23203H10.5289C10.2629 9.23203 10.0169 9.09103 9.88288 8.86203C9.74788 8.63303 9.74388 8.35003 9.87288 8.11703L11.1019 5.90603C11.3029 5.54403 11.7609 5.41403 12.1219 5.61503C12.4849 5.81603 12.6149 6.27303 12.4139 6.63503L11.8039 7.73203H13.4779C13.7439 7.73203 13.9899 7.87203 14.1249 8.10103C14.2589 8.33003 14.2629 8.61403 14.1339 8.84603Z" fill="black"/>
<path fill-rule="evenodd" clip-rule="evenodd" d="M13.311 18.0016H10.695C10.281 18.0016 9.94498 17.6656 9.94498 17.2516C9.94498 16.8376 10.281 16.5016 10.695 16.5016H13.311C13.725 16.5016 14.061 16.8376 14.061 17.2516C14.061 17.6656 13.725 18.0016 13.311 18.0016ZM21.342 17.3196L20.112 14.6426H3.89298L2.64598 17.3566C2.38298 18.0766 2.48798 18.8816 2.92698 19.5096C3.36598 20.1376 4.08498 20.5126 4.85098 20.5126H19.153C19.919 20.5126 20.638 20.1376 21.077 19.5096C21.516 18.8816 21.621 18.0766 21.342 17.3196Z" fill="black"/>
</svg>