<svg width="24" height="24" viewBox="0 0 24 24" fill="none" xmlns="http://www.w3.org/2000/svg">
<path fill-rule="evenodd" clip-rule="evenodd" d="M20.949 16.2461H3.052C2.609 16.2461 2.25 16.6051 2.25 17.0461V17.5531C2.25 19.0301 3.452 20.2311 4.929 20.2311H19.071C20.549 20.2311 21.75 19.0301 21.75 17.5531V17.0461C21.75 16.6051 21.39 16.2461 20.949 16.2461Z" fill="black"/>
<path fill-rule="evenodd" clip-rule="evenodd" d="M11.4455 6.06855H12.7955C13.2155 6.06855 13.5455 6.39855 13.5455 6.81855C13.5455 7.22855 13.2155 7.56855 12.7955 7.56855H11.4455C11.0355 7.56855 10.6955 7.22855 10.6955 6.81855C10.6955 6.39855 11.0355 6.06855 11.4455 6.06855ZM4.33548 14.8186H19.6655C19.9455 14.8186 20.1655 14.5986 20.1655 14.3186V6.67855C20.1655 4.88855 18.8255 3.76855 16.6555 3.76855H7.34548C5.17548 3.76855 3.83548 4.88855 3.83548 6.67855V14.3186C3.83548 14.5986 4.05548 14.8186 4.33548 14.8186Z" fill="black"/>
</svg>