<svg width="25" height="24" viewBox="0 0 25 24" fill="none" xmlns="http://www.w3.org/2000/svg">
<path fill-rule="evenodd" clip-rule="evenodd" d="M2.5 16.4169C2.5 15.6991 3.08195 15.1172 3.79973 15.1172H20.6993C21.4172 15.1172 22 15.6983 22 16.4169V16.9238C22 18.6788 20.5764 20.1024 18.8215 20.1024H5.67854C3.92357 20.1024 2.5 18.6788 2.5 16.9238V16.4169ZM4 16.6172V16.9238C4 17.8504 4.752 18.6024 5.67854 18.6024H18.8215C19.748 18.6024 20.5 17.8504 20.5 16.9238V16.6172H4Z" fill="black"/>
<path fill-rule="evenodd" clip-rule="evenodd" d="M3.82812 7.66076C3.82812 5.58276 5.51245 3.89844 7.59045 3.89844H16.9067C18.9838 3.89844 20.668 5.58292 20.668 7.66076V15.8668C20.668 16.281 20.3322 16.6168 19.918 16.6168C19.5038 16.6168 19.168 16.281 19.168 15.8668V7.66076C19.168 6.41103 18.1551 5.39844 16.9067 5.39844H7.59045C6.34088 5.39844 5.32812 6.41119 5.32812 7.66076V15.8668C5.32812 16.281 4.99234 16.6168 4.57812 16.6168C4.16391 16.6168 3.82812 16.281 3.82812 15.8668V7.66076Z" fill="black"/>
<path fill-rule="evenodd" clip-rule="evenodd" d="M10.8242 7.67578C10.8242 7.26157 11.16 6.92578 11.5742 6.92578H12.9237C13.3379 6.92578 13.6737 7.26157 13.6737 7.67578C13.6737 8.08999 13.3379 8.42578 12.9237 8.42578H11.5742C11.16 8.42578 10.8242 8.08999 10.8242 7.67578Z" fill="black"/>
</svg>