<svg width="24" height="24" viewBox="0 0 24 24" fill="none" xmlns="http://www.w3.org/2000/svg">
<path opacity="0.4" d="M12 21C16.9709 21 21 16.9709 21 12C21 7.02908 16.9709 3 12 3C7.02908 3 3 7.02908 3 12C3 16.9709 7.02908 21 12 21Z" stroke="black" stroke-width="1.5" stroke-linecap="round" stroke-linejoin="round"/>
<path d="M11.6453 3C11.2039 5.14689 10.2208 10.7439 10.281 12.028C10.3211 12.6801 10.4615 12.8807 11.1036 12.961C11.6152 13.0312 12.1269 13.0814 12.6385 13.0814C13.1 13.0814 13.0799 13.3302 13.0599 13.7716C13.0398 14.3033 13.0398 15.3767 13.1602 16.8314C13.2505 17.965 13.421 19.3194 13.722 20.8242" stroke="black" stroke-width="1.5" stroke-linecap="round" stroke-linejoin="round"/>
<path d="M7.2168 15.3319C8.44469 16.4372 10.0676 17.1037 11.8481 17.1037C13.7776 17.1037 15.5231 16.3146 16.787 15.043" stroke="black" stroke-width="1.5" stroke-linecap="round" stroke-linejoin="round"/>
<path d="M7.57031 8.28125V9.40893M16.4316 8.28125V9.40893" stroke="black" stroke-width="1.5" stroke-linecap="round" stroke-linejoin="round"/>
</svg>