<svg width="24" height="24" viewBox="0 0 24 24" fill="none" xmlns="http://www.w3.org/2000/svg">
<path d="M7.53697 3.35547H16.4621C19.2594 3.35547 21 5.32963 21 8.12401V15.8747C21 18.6691 19.2594 20.6442 16.4611 20.6442H7.53697C4.73968 20.6442 3 18.6691 3 15.8747V8.12401C3 5.32963 4.74843 3.35547 7.53697 3.35547Z" stroke="black" stroke-width="1.5" stroke-linecap="round" stroke-linejoin="round"/>
<path d="M11.6559 3.35938C11.2278 5.44154 10.2743 10.8698 10.3326 12.1152C10.3716 12.7476 10.5078 12.9422 11.1305 13.02C11.6267 13.0881 12.1229 13.1368 12.6191 13.1368C13.0667 13.1368 13.0472 13.3781 13.0278 13.8062C13.0083 14.3219 13.0083 15.3629 13.1251 16.7738C13.2126 17.8732 13.378 19.1867 13.6699 20.6462" stroke="black" stroke-width="1.5" stroke-linecap="round" stroke-linejoin="round"/>
<path d="M7.2168 15.3319C8.44469 16.4372 10.0676 17.1037 11.8481 17.1037C13.7776 17.1037 15.5231 16.3146 16.787 15.043" stroke="black" stroke-width="1.5" stroke-linecap="round" stroke-linejoin="round"/>
<path d="M7.57031 8.28125V9.40893M16.4316 8.28125V9.40893" stroke="black" stroke-width="1.5" stroke-linecap="round" stroke-linejoin="round"/>
</svg>