<svg width="24" height="25" viewBox="0 0 24 25" fill="none" xmlns="http://www.w3.org/2000/svg">
<path fill-rule="evenodd" clip-rule="evenodd" d="M6.26591 16.5398L4.82791 17.9798C4.63191 18.1748 4.53491 18.4308 4.53491 18.6868C4.53491 18.9428 4.63191 19.1988 4.82791 19.3938C5.02291 19.5888 5.27891 19.6858 5.53491 19.6858C5.78991 19.6858 6.04591 19.5888 6.24191 19.3928L7.67991 17.9528C7.87491 17.7578 7.97291 17.5018 7.97291 17.2458C7.97291 16.9898 7.87491 16.7338 7.67991 16.5388C7.28891 16.1488 6.65691 16.1478 6.26591 16.5398Z" fill="black"/>
<path fill-rule="evenodd" clip-rule="evenodd" d="M16.3313 8.88566C16.5873 8.88566 16.8433 8.78766 17.0383 8.59366L18.4783 7.15366C18.6743 6.95866 18.7713 6.70266 18.7713 6.44666C18.7713 6.19066 18.6743 5.93466 18.4783 5.73966C18.0883 5.34866 17.4553 5.34866 17.0643 5.73866L15.6243 7.17766C15.4293 7.37366 15.3313 7.62966 15.3313 7.88566C15.3313 8.14066 15.4293 8.39766 15.6243 8.59266C15.8193 8.78766 16.0753 8.88566 16.3313 8.88566Z" fill="black"/>
<path fill-rule="evenodd" clip-rule="evenodd" d="M17.2688 12.5664C17.2688 13.1184 17.7158 13.5664 18.2688 13.5664H20.3038C20.8568 13.5664 21.3038 13.1184 21.3038 12.5664C21.3038 12.0144 20.8568 11.5664 20.3038 11.5664H18.2688C17.7158 11.5664 17.2688 12.0144 17.2688 12.5664Z" fill="black"/>
<path fill-rule="evenodd" clip-rule="evenodd" d="M6.03543 12.5664C6.03543 12.0144 5.58843 11.5664 5.03543 11.5664H3.00043C2.44743 11.5664 2.00043 12.0144 2.00043 12.5664C2.00043 13.1184 2.44743 13.5664 3.00043 13.5664H5.03543C5.58843 13.5664 6.03543 13.1184 6.03543 12.5664Z" fill="black"/>
<path fill-rule="evenodd" clip-rule="evenodd" d="M11.6526 2.91602C11.0996 2.91602 10.6526 3.36402 10.6526 3.91602V5.94602C10.6526 6.49902 11.0996 6.94602 11.6526 6.94602C12.2056 6.94602 12.6526 6.49902 12.6526 5.94602V3.91602C12.6526 3.36402 12.2056 2.91602 11.6526 2.91602Z" fill="black"/>
<path fill-rule="evenodd" clip-rule="evenodd" d="M11.6526 18.1855C11.0996 18.1855 10.6526 18.6335 10.6526 19.1855V21.2155C10.6526 21.7675 11.0996 22.2155 11.6526 22.2155C12.2056 22.2155 12.6526 21.7675 12.6526 21.2155V19.1855C12.6526 18.6335 12.2056 18.1855 11.6526 18.1855Z" fill="black"/>
<path fill-rule="evenodd" clip-rule="evenodd" d="M6.24149 5.73916C5.85049 5.34816 5.21849 5.34916 4.82749 5.73916C4.43649 6.12916 4.43649 6.76216 4.82749 7.15316L6.26549 8.59316C6.46149 8.78816 6.71749 8.88516 6.97249 8.88516C7.22849 8.88516 7.48449 8.78816 7.67949 8.59316C8.07049 8.20216 8.07049 7.56916 7.67949 7.17816L6.24149 5.73916Z" fill="black"/>
<path fill-rule="evenodd" clip-rule="evenodd" d="M21.7063 21.2093L17.0373 16.5393C16.6463 16.1483 16.0143 16.1483 15.6233 16.5393C15.2323 16.9293 15.2323 17.5633 15.6233 17.9533L20.2923 22.6233C20.4873 22.8183 20.7433 22.9163 20.9993 22.9163C21.2553 22.9163 21.5113 22.8183 21.7063 22.6233C22.0973 22.2333 22.0973 21.6003 21.7063 21.2093Z" fill="black"/>
</svg>