<svg width="25" height="24" viewBox="0 0 25 24" fill="none" xmlns="http://www.w3.org/2000/svg">
<path fill-rule="evenodd" clip-rule="evenodd" d="M12.8717 3.75C9.28994 3.75 6.38672 6.65322 6.38672 10.235C6.38672 13.8157 9.28988 16.719 12.8717 16.719C16.4535 16.719 19.3567 13.8157 19.3567 10.235C19.3567 6.65322 16.4535 3.75 12.8717 3.75ZM4.88672 10.235C4.88672 5.8248 8.46152 2.25 12.8717 2.25C17.2819 2.25 20.8567 5.8248 20.8567 10.235C20.8567 14.6443 17.2818 18.219 12.8717 18.219C8.46158 18.219 4.88672 14.6443 4.88672 10.235Z" fill="black"/>
<path fill-rule="evenodd" clip-rule="evenodd" d="M12.8681 16.7188C13.2823 16.7182 13.6186 17.0535 13.6191 17.4677L13.624 20.9986C13.6246 21.4128 13.2893 21.7491 12.875 21.7497C12.4608 21.7502 12.1246 21.4149 12.124 21.0007L12.1191 17.4698C12.1186 17.0556 12.4539 16.7193 12.8681 16.7188Z" fill="black"/>
</svg>