<svg width="25" height="24" viewBox="0 0 25 24" fill="none" xmlns="http://www.w3.org/2000/svg">
<path opacity="0.4" fill-rule="evenodd" clip-rule="evenodd" d="M12.5 2.5C7.261 2.5 3 6.762 3 12C3 17.238 7.261 21.5 12.5 21.5C17.738 21.5 22 17.238 22 12C22 6.762 17.738 2.5 12.5 2.5Z" fill="black"/>
<path d="M17.3599 15.0005C17.7739 15.0005 18.1099 14.6645 18.1099 14.2505V9.75053C18.1099 9.48053 17.9649 9.23153 17.7309 9.09853C17.4959 8.96453 17.2079 8.96753 16.9759 9.10553L13.1959 11.3555C12.9689 11.4915 12.8299 11.7365 12.8299 12.0005V14.2505C12.8299 14.6645 13.1659 15.0005 13.5799 15.0005C13.9939 15.0005 14.3299 14.6645 14.3299 14.2505V12.4265L16.6099 11.0695V14.2505C16.6099 14.6645 16.9459 15.0005 17.3599 15.0005Z" fill="black"/>
<path d="M11.4209 15.0005C11.8349 15.0005 12.1709 14.6645 12.1709 14.2505V12.0005C12.1709 11.7365 12.0309 11.4915 11.8039 11.3555L8.02389 9.10553C7.79289 8.96753 7.50489 8.96453 7.26889 9.09853C7.03489 9.23153 6.88989 9.48053 6.88989 9.75053V14.2505C6.88989 14.6645 7.22589 15.0005 7.63989 15.0005C8.05389 15.0005 8.38989 14.6645 8.38989 14.2505V11.0695L10.6709 12.4265V14.2505C10.6709 14.6645 11.0059 15.0005 11.4209 15.0005Z" fill="black"/>
</svg>