<svg width="25" height="24" viewBox="0 0 25 24" fill="none" xmlns="http://www.w3.org/2000/svg">
<path fill-rule="evenodd" clip-rule="evenodd" d="M18.187 4.56215L15.8188 4.56727C15.4038 4.56727 15.0679 4.23225 15.0669 3.81825C15.0659 3.40425 15.4009 3.06727 15.8159 3.06727L19.9951 3.05824C20.0312 3.058 20.0703 3.06147 20.1064 3.06648C20.1392 3.071 20.1685 3.07783 20.2002 3.08662C20.3208 3.12001 20.4346 3.18422 20.5298 3.27925C20.6934 3.44276 20.7661 3.66291 20.7471 3.87648L20.7378 7.98927C20.7368 8.40327 20.4009 8.73823 19.9868 8.73823C19.5718 8.73726 19.2368 8.40028 19.2378 7.98628L19.2432 5.62709L16.3496 8.52076C17.3486 9.77565 17.9458 11.3649 17.9458 13.0933C17.9458 17.1523 14.6562 20.4423 10.5981 20.4423C6.54004 20.4423 3.25 17.1523 3.25 13.0933C3.25 9.03627 6.54004 5.74623 10.5981 5.74623C12.3872 5.74623 14.0264 6.38563 15.3008 7.44825L18.187 4.56215ZM10.5981 18.9423C13.8281 18.9423 16.4458 16.3243 16.4458 13.0933C16.4458 9.86427 13.8281 7.24623 10.5981 7.24623C7.36816 7.24623 4.75 9.86427 4.75 13.0933C4.75 16.3243 7.36914 18.9423 10.5981 18.9423Z" fill="black"/>
</svg>