<svg width="25" height="24" viewBox="0 0 25 24" fill="none" xmlns="http://www.w3.org/2000/svg">
<path fill-rule="evenodd" clip-rule="evenodd" d="M18.1249 17.6845C18.4178 17.3916 18.8927 17.3916 19.1856 17.6845L21.2489 19.7479C21.5418 20.0407 21.5418 20.5156 21.2489 20.8085C20.9561 21.1014 20.4812 21.1014 20.1883 20.8085L18.1249 18.7452C17.8321 18.4523 17.8321 17.9774 18.1249 17.6845Z" fill="black"/>
<path fill-rule="evenodd" clip-rule="evenodd" d="M16.0615 15.622C16.3544 15.3291 16.8292 15.3291 17.1221 15.622L19.1864 17.6863C19.4793 17.9792 19.4793 18.4541 19.1864 18.747C18.8935 19.0399 18.4187 19.0399 18.1258 18.747L16.0615 16.6827C15.7686 16.3898 15.7686 15.9149 16.0615 15.622Z" fill="black"/>
<path fill-rule="evenodd" clip-rule="evenodd" d="M21.2488 15.6219C21.5418 15.9147 21.5419 16.3896 21.2491 16.6825L19.1857 18.7469C18.8929 19.0398 18.418 19.0399 18.1251 18.7471C17.8321 18.4543 17.832 17.9794 18.1248 17.6865L20.1882 15.6221C20.481 15.3292 20.9559 15.3291 21.2488 15.6219Z" fill="black"/>
<path fill-rule="evenodd" clip-rule="evenodd" d="M19.1866 17.6846C19.4794 17.9776 19.4793 18.4525 19.1863 18.7453L17.122 20.8086C16.829 21.1015 16.3542 21.1014 16.0613 20.8084C15.7685 20.5154 15.7686 20.0406 16.0616 19.7477L18.1259 17.6844C18.4189 17.3916 18.8937 17.3917 19.1866 17.6846Z" fill="black"/>
<path fill-rule="evenodd" clip-rule="evenodd" d="M8.58486 4.15896C8.58484 4.15897 8.58488 4.15895 8.58486 4.15896L4.69366 5.88762C4.2723 6.07463 4 6.49269 4 6.95523V19.6174C4 19.8301 4.21817 19.9713 4.41152 19.8854L7.97621 18.3034C8.50854 18.0678 9.11445 18.0454 9.66408 18.2451L11.8281 19.0333C12.2173 19.1751 12.4179 19.6055 12.2762 19.9947C12.1344 20.3839 11.704 20.5845 11.3148 20.4427L9.15176 19.6549C8.96812 19.5882 8.76425 19.5952 8.58465 19.6745M8.58465 19.6745L5.02055 21.2561C5.02045 21.2562 5.02064 21.2561 5.02055 21.2561C3.83452 21.7828 2.5 20.9144 2.5 19.6174V6.95523C2.5 5.90026 3.12088 4.94467 4.08467 4.51681C4.08476 4.51677 4.08459 4.51684 4.08467 4.51681L7.97593 2.78811C8.51067 2.55061 9.11539 2.53032 9.66407 2.72971C9.66407 2.72971 9.66407 2.72971 9.66407 2.72971L15.3502 4.79597C15.5337 4.86266 15.7374 4.85573 15.9179 4.77564L19.4729 3.19543C19.4736 3.19511 19.4743 3.1948 19.4749 3.19449C20.6652 2.65974 22 3.5342 22 4.83255V11.8874C22 12.3016 21.6642 12.6374 21.25 12.6374C20.8358 12.6374 20.5 12.3016 20.5 11.8874V4.83255C20.5 4.61405 20.2798 4.47705 20.0892 4.56295L20.0857 4.56453L16.5271 6.14633C15.9936 6.38329 15.3878 6.40561 14.8379 6.20577L9.15177 4.13951C8.96697 4.07235 8.76415 4.07935 8.58486 4.15896" fill="black"/>
<path fill-rule="evenodd" clip-rule="evenodd" d="M15.665 4.83594C16.0793 4.83594 16.415 5.17172 16.415 5.58594V11.8849C16.415 12.2991 16.0793 12.6349 15.665 12.6349C15.2508 12.6349 14.915 12.2991 14.915 11.8849V5.58594C14.915 5.17172 15.2508 4.83594 15.665 4.83594Z" fill="black"/>
<path fill-rule="evenodd" clip-rule="evenodd" d="M8.83594 2.60547C9.25015 2.60547 9.58594 2.94126 9.58594 3.35547V18.8553C9.58594 19.2695 9.25015 19.6053 8.83594 19.6053C8.42172 19.6053 8.08594 19.2695 8.08594 18.8553V3.35547C8.08594 2.94126 8.42172 2.60547 8.83594 2.60547Z" fill="black"/>
</svg>