<svg width="25" height="24" viewBox="0 0 25 24" fill="none" xmlns="http://www.w3.org/2000/svg">
<path fill-rule="evenodd" clip-rule="evenodd" d="M15.8887 4.83594C16.3029 4.83594 16.6387 5.17172 16.6387 5.58594V9.04794C16.6387 9.46215 16.3029 9.79794 15.8887 9.79794C15.4745 9.79794 15.1387 9.46215 15.1387 9.04794V5.58594C15.1387 5.17172 15.4745 4.83594 15.8887 4.83594Z" fill="black"/>
<path fill-rule="evenodd" clip-rule="evenodd" d="M17.6459 12.832C16.0697 12.832 14.792 14.1102 14.792 15.6869C14.792 16.6952 15.4036 17.7749 16.1884 18.6586C16.5696 19.0879 16.9639 19.4389 17.2853 19.6766C17.4322 19.7852 17.5545 19.8633 17.6459 19.9133C17.7373 19.8633 17.8597 19.7852 18.0065 19.6766C18.328 19.4389 18.7222 19.0879 19.1035 18.6586C19.8882 17.7749 20.4999 16.6952 20.4999 15.6869C20.4999 14.1102 19.2222 12.832 17.6459 12.832ZM17.7561 19.9659C17.7561 19.9659 17.7558 19.9658 17.7552 19.9656L17.7561 19.9659ZM13.292 15.6869C13.292 13.2823 15.2407 11.332 17.6459 11.332C20.0511 11.332 21.9999 13.2823 21.9999 15.6869C21.9999 17.2435 21.098 18.6716 20.225 19.6546C19.7774 20.1586 19.3067 20.5807 18.8984 20.8827C18.695 21.033 18.4958 21.162 18.3135 21.2572C18.1674 21.3335 17.9155 21.4527 17.6459 21.4527C17.3764 21.4527 17.1244 21.3335 16.9784 21.2572C16.796 21.162 16.5968 21.033 16.3935 20.8827C15.9851 20.5807 15.5144 20.1586 15.0668 19.6546C14.1939 18.6716 13.292 17.2435 13.292 15.6869Z" fill="black"/>
<path fill-rule="evenodd" clip-rule="evenodd" d="M17.6455 14.6562C18.1978 14.6562 18.6455 15.104 18.6455 15.6562V15.773C18.6455 16.3253 18.1978 16.773 17.6455 16.773C17.0932 16.773 16.6455 16.3253 16.6455 15.773V15.6562C16.6455 15.104 17.0932 14.6562 17.6455 14.6562Z" fill="black"/>
<path fill-rule="evenodd" clip-rule="evenodd" d="M8.53673 4.11449C8.53667 4.11451 8.53679 4.11446 8.53673 4.11449L4.6832 5.82673C4.26803 6.01106 4 6.42273 4 6.87715V19.4179C4 19.6238 4.21135 19.7603 4.39806 19.6773L7.92843 18.1107C8.45923 17.8752 9.05946 17.8552 9.60427 18.0518L9.6063 18.0526L11.7488 18.8329C12.138 18.9746 12.3386 19.4051 12.1969 19.7943C12.0551 20.1835 11.6247 20.3841 11.2355 20.2423L9.09499 19.4627C9.09468 19.4626 9.09436 19.4625 9.09405 19.4624C8.91138 19.3967 8.71212 19.404 8.53687 19.4817M8.53687 19.4817L5.00727 21.0481C5.00714 21.0481 5.0074 21.048 5.00727 21.0481C3.82801 21.5719 2.5 20.7084 2.5 19.4179V6.87715C2.5 5.82936 3.1175 4.88077 4.07412 4.45596C4.07419 4.45593 4.07405 4.45599 4.07412 4.45596L7.92811 2.74351C8.45856 2.50824 9.05984 2.48747 9.60516 2.68617C9.6053 2.68622 9.60502 2.68612 9.60516 2.68617L15.2365 4.7319C15.2366 4.73195 15.2364 4.73185 15.2365 4.7319C15.4178 4.79739 15.6184 4.79053 15.794 4.7127C15.7941 4.71267 15.7939 4.71273 15.794 4.7127L19.3159 3.14667C19.3164 3.14644 19.3169 3.14621 19.3174 3.14598C20.5002 2.61558 21.828 3.483 21.828 4.7755V9.3709C21.828 9.78512 21.4922 10.1209 21.078 10.1209C20.6638 10.1209 20.328 9.78512 20.328 9.3709V4.7755C20.328 4.56433 20.1157 4.43172 19.9309 4.51481L19.9281 4.51604L16.403 6.08352C15.8724 6.31885 15.2704 6.3394 14.726 6.14236L9.09258 4.09587C8.91222 4.03011 8.71248 4.03659 8.53673 4.11449" fill="black"/>
<path fill-rule="evenodd" clip-rule="evenodd" d="M8.78418 2.56641C9.19839 2.56641 9.53418 2.90219 9.53418 3.31641V18.6681C9.53418 19.0824 9.19839 19.4181 8.78418 19.4181C8.36997 19.4181 8.03418 19.0824 8.03418 18.6681V3.31641C8.03418 2.90219 8.36997 2.56641 8.78418 2.56641Z" fill="black"/>
</svg>