<svg width="25" height="24" viewBox="0 0 25 24" fill="none" xmlns="http://www.w3.org/2000/svg">
<path d="M5.20685 10.4161C5.10834 10.4163 5.01077 10.397 4.91979 10.3592C4.82881 10.3215 4.74623 10.266 4.67685 10.1961L4.23485 9.75509L3.79285 10.1961C3.72419 10.2698 3.64139 10.3289 3.54939 10.3699C3.45739 10.4109 3.35808 10.4329 3.25737 10.4347C3.15667 10.4365 3.05664 10.4179 2.96325 10.3802C2.86986 10.3425 2.78503 10.2863 2.71381 10.2151C2.64259 10.1439 2.58645 10.0591 2.54873 9.96569C2.51101 9.8723 2.49248 9.77227 2.49426 9.67156C2.49603 9.57086 2.51808 9.47154 2.55907 9.37954C2.60006 9.28754 2.65916 9.20473 2.73285 9.13607L3.17385 8.69409L2.73285 8.25207C2.60037 8.10989 2.52824 7.92187 2.53167 7.72756C2.5351 7.53326 2.61382 7.34789 2.75123 7.21047C2.88864 7.07306 3.07403 6.99433 3.26833 6.9909C3.46263 6.98747 3.65067 7.05959 3.79285 7.19207L4.23485 7.63308L4.67685 7.19207C4.81903 7.05959 5.00707 6.98747 5.20137 6.9909C5.39567 6.99433 5.58106 7.07306 5.71847 7.21047C5.85588 7.34789 5.9346 7.53326 5.93803 7.72756C5.94146 7.92187 5.86933 8.10989 5.73685 8.25207L5.29585 8.69409L5.73685 9.13607C5.84161 9.24096 5.91293 9.37455 5.94181 9.51995C5.9707 9.66535 5.95585 9.81603 5.89913 9.953C5.84242 10.09 5.74639 10.2071 5.62318 10.2895C5.49996 10.3719 5.35509 10.4159 5.20685 10.4161ZM19.0629 6.50509C18.9644 6.50522 18.8668 6.48584 18.7759 6.44808C18.6849 6.41032 18.6023 6.35493 18.5328 6.28509L18.0919 5.84408L17.6499 6.28509C17.5092 6.42579 17.3183 6.50482 17.1193 6.50482C16.9204 6.50482 16.7295 6.42579 16.5888 6.28509C16.4481 6.14439 16.3691 5.95355 16.3691 5.75457C16.3691 5.5556 16.4481 5.36478 16.5888 5.22409L17.0308 4.78308L16.5888 4.34109C16.4523 4.19957 16.3768 4.01009 16.3786 3.81344C16.3804 3.61679 16.4594 3.42872 16.5985 3.28973C16.7376 3.15074 16.9258 3.07195 17.1224 3.07034C17.319 3.06872 17.5085 3.14441 17.6499 3.28109L18.0919 3.72207L18.5328 3.28109C18.6742 3.14441 18.8637 3.06872 19.0603 3.07034C19.257 3.07195 19.4451 3.15074 19.5842 3.28973C19.7233 3.42872 19.8023 3.61679 19.8041 3.81344C19.8059 4.01009 19.7304 4.19957 19.5939 4.34109L19.1518 4.78308L19.5939 5.22409C19.6985 5.32917 19.7697 5.46289 19.7985 5.60839C19.8273 5.75389 19.8123 5.90464 19.7555 6.04165C19.6987 6.17866 19.6026 6.29579 19.4794 6.37826C19.3561 6.46073 19.2112 6.50488 19.0629 6.50509Z" fill="black"/>
<path d="M8.13269 20.9311C7.73349 20.9306 7.34005 20.8358 6.98455 20.6542C6.62904 20.4726 6.32156 20.2094 6.08723 19.8862C5.8529 19.563 5.69836 19.189 5.63627 18.7946C5.57417 18.4003 5.60627 17.9969 5.72994 17.6173C5.85361 17.2377 6.06535 16.8928 6.34784 16.6108C6.63033 16.3287 6.97556 16.1175 7.35531 15.9944C7.73505 15.8713 8.13854 15.8398 8.53279 15.9025C8.92704 15.9652 9.30085 16.1203 9.62368 16.3551C10.1655 16.7503 10.5286 17.3441 10.6336 18.0064C10.7386 18.6688 10.5768 19.3458 10.1837 19.8891C9.98927 20.1584 9.74331 20.3865 9.46007 20.5601C9.17683 20.7336 8.86194 20.8492 8.53368 20.9001C8.40108 20.9213 8.26697 20.9317 8.13269 20.9311ZM8.13868 17.3731C7.92109 17.3723 7.70887 17.4406 7.53257 17.5682C7.35626 17.6957 7.22498 17.8759 7.15761 18.0828C7.09023 18.2897 7.09025 18.5126 7.15765 18.7195C7.22505 18.9264 7.35636 19.1066 7.53268 19.2341C7.64117 19.3152 7.76502 19.3734 7.89669 19.4052C8.02837 19.437 8.16513 19.4417 8.29869 19.4191C8.55526 19.3796 8.78741 19.2445 8.94861 19.041C9.1098 18.8376 9.18814 18.5807 9.1679 18.3219C9.14766 18.0631 9.03035 17.8215 8.83947 17.6455C8.6486 17.4695 8.39828 17.3723 8.13868 17.3731Z" fill="black"/>
<path d="M14.5056 14.8549C14.3942 14.8553 14.2842 14.8308 14.1835 14.7832C14.0828 14.7357 13.994 14.6662 13.9236 14.5799L13.0116 13.4619C12.4964 13.7121 11.9301 13.8393 11.3574 13.8334C10.7847 13.8275 10.2212 13.6888 9.71118 13.4281C9.20121 13.1674 8.75873 12.7919 8.41856 12.3311C8.0784 11.8703 7.84986 11.3368 7.75093 10.7727C7.652 10.2086 7.68538 9.6292 7.84844 9.08017C8.01151 8.53113 8.29981 8.02743 8.69064 7.60876C9.08147 7.19009 9.56416 6.86788 10.1007 6.66748C10.6372 6.46708 11.213 6.39397 11.7826 6.45392C12.4555 6.52344 13.0966 6.77615 13.6359 7.18457C14.1753 7.59299 14.5924 8.14147 14.8418 8.77038C15.0912 9.39929 15.1634 10.0846 15.0505 10.7516C14.9376 11.4187 14.644 12.0421 14.2016 12.5539L15.0846 13.6359C15.1742 13.7458 15.2308 13.8788 15.2479 14.0195C15.265 14.1603 15.2418 14.303 15.1811 14.4311C15.1204 14.5592 15.0246 14.6675 14.9049 14.7434C14.7851 14.8193 14.6463 14.8597 14.5046 14.8599L14.5056 14.8549ZM11.4056 7.9349C11.0566 7.93306 10.7121 8.0143 10.4007 8.17187C10.0893 8.32944 9.81982 8.55884 9.61457 8.84112C9.40932 9.12341 9.27418 9.45046 9.22031 9.79529C9.16643 10.1401 9.19537 10.4928 9.30473 10.8242C9.4141 11.1557 9.60075 11.4564 9.84927 11.7014C10.0978 11.9465 10.401 12.1288 10.734 12.2335C11.0669 12.3382 11.42 12.3622 11.764 12.3035C12.1081 12.2448 12.4332 12.1051 12.7126 11.8959L12.7456 11.8709L12.7926 11.8339C13.1277 11.5588 13.374 11.1909 13.5007 10.7763C13.6274 10.3617 13.6287 9.91886 13.5046 9.50348C13.3804 9.08809 13.1363 8.71864 12.8029 8.44153C12.4695 8.16441 12.0616 7.992 11.6306 7.94592C11.5558 7.93829 11.4807 7.9346 11.4056 7.9349Z" fill="black"/>
<path d="M12.3501 20.6747C11.3158 20.6746 10.2914 20.4732 9.33407 20.0817C9.15686 20.0016 9.01765 19.8558 8.94576 19.6751C8.87387 19.4943 8.8749 19.2928 8.94863 19.1128C9.02236 18.9328 9.16304 18.7885 9.34106 18.7101C9.51907 18.6318 9.72055 18.6255 9.90307 18.6927C10.9455 19.1228 12.083 19.2698 13.2005 19.1188C14.318 18.9678 15.3758 18.5243 16.2668 17.8331C17.1577 17.1419 17.8502 16.2275 18.2742 15.1826C18.6982 14.1377 18.8385 12.9993 18.6811 11.8827C18.6673 11.7852 18.6728 11.6858 18.6974 11.5904C18.722 11.495 18.7652 11.4053 18.8244 11.3266C18.8837 11.2478 18.9579 11.1815 19.0427 11.1315C19.1276 11.0814 19.2215 11.0485 19.3191 11.0347C19.4166 11.0209 19.516 11.0265 19.6114 11.0511C19.7068 11.0757 19.7965 11.1189 19.8752 11.1781C19.9539 11.2373 20.0202 11.3115 20.0703 11.3964C20.1204 11.4813 20.1533 11.5752 20.1671 11.6727C20.4425 13.7175 19.912 15.7892 18.6879 17.4501C17.4637 19.1109 15.6417 20.2307 13.6071 20.5727C13.1914 20.6395 12.7711 20.6736 12.3501 20.6747Z" fill="black"/>
<path d="M21.2634 14.3263C21.1559 14.3264 21.0497 14.3034 20.9519 14.2588C20.8541 14.2143 20.7669 14.1494 20.6964 14.0683L19.4764 12.6683L18.0854 13.8783C18.0118 13.9469 17.9251 13.9999 17.8305 14.0343C17.7359 14.0687 17.6354 14.0837 17.5349 14.0784C17.4344 14.0732 17.336 14.0477 17.2456 14.0036C17.1551 13.9595 17.0744 13.8977 17.0084 13.8217C16.9423 13.7458 16.8922 13.6574 16.8611 13.5617C16.8299 13.466 16.8183 13.3651 16.827 13.2648C16.8357 13.1645 16.8645 13.0671 16.9116 12.9781C16.9587 12.8892 17.0233 12.8107 17.1014 12.7473L19.0584 11.0473C19.2087 10.9167 19.4046 10.8512 19.6032 10.8651C19.8018 10.879 19.9867 10.9711 20.1174 11.1213L21.8284 13.0913C21.9205 13.2 21.9798 13.3327 21.9993 13.4738C22.0188 13.615 21.9976 13.7588 21.9384 13.8883C21.8791 14.0179 21.7841 14.1279 21.6646 14.2055C21.545 14.283 21.4059 14.325 21.2634 14.3263Z" fill="black"/>
</svg>