<svg width="25" height="24" viewBox="0 0 25 24" fill="none" xmlns="http://www.w3.org/2000/svg">
<path d="M15.6507 20.9999V15.1942V9.00612C18.8712 8.55661 21.1557 7.44354 21.1557 6.11641C21.1557 4.80096 18.8712 3.6694 15.6507 3.21989C14.6816 3.08076 13.6075 3 12.5002 3C11.392 3 10.3188 3.08076 9.34879 3.21989C6.12827 3.6694 3.84375 4.80096 3.84375 6.11641C3.84375 7.44354 6.12827 8.55661 9.34879 9.00612V15.1942V20.9999" stroke="black" stroke-width="1.5" stroke-linecap="round" stroke-linejoin="round"/>
<path d="M9.34863 15.1936C10.3177 15.0554 11.3919 14.9747 12.5001 14.9747C13.6073 14.9747 14.6805 15.0554 15.6505 15.1936" stroke="black" stroke-width="1.5" stroke-linecap="round" stroke-linejoin="round"/>
<path d="M15.6504 21.0007C18.8709 20.5502 21.1554 19.4196 21.1554 18.0925V6.11719" stroke="black" stroke-width="1.5" stroke-linecap="round" stroke-linejoin="round"/>
<path d="M3.84375 6.11719V18.0925C3.84375 19.4196 6.12925 20.5502 9.34879 21.0007" stroke="black" stroke-width="1.5" stroke-linecap="round" stroke-linejoin="round"/>
</svg>