<svg width="24" height="24" viewBox="0 0 24 24" fill="none" xmlns="http://www.w3.org/2000/svg">
<path d="M16.8544 3.81641L18.7984 5.76041M18.7984 3.81641L16.8544 5.76041M3 7.7273L4.944 9.6713M4.944 7.7273L3 9.6713" stroke="black" stroke-width="1.5" stroke-linecap="round" stroke-linejoin="round"/>
<path fill-rule="evenodd" clip-rule="evenodd" d="M8.91913 16.9688C9.71405 17.5468 9.89113 18.6589 9.31319 19.4548C8.73621 20.2497 7.62313 20.4258 6.82822 19.8488C6.03232 19.2709 5.85622 18.1588 6.43319 17.3629C7.01113 16.568 8.12421 16.3909 8.91913 16.9688Z" stroke="black" stroke-width="1.5" stroke-linecap="round" stroke-linejoin="round"/>
<path d="M12.9158 12.4886L14.24 14.1115M11.4421 7.20691C13.0611 7.37328 14.2384 8.81912 14.072 10.4381C13.9066 12.0572 12.4598 13.2345 10.8408 13.0681C9.2227 12.9027 8.04541 11.4559 8.21081 9.83685C8.37719 8.2188 9.824 7.0415 11.4421 7.20691Z" stroke="black" stroke-width="1.5" stroke-linecap="round" stroke-linejoin="round"/>
<path d="M19.1611 11.7852C19.703 15.6245 17.076 19.2148 13.223 19.8433C11.8677 20.0583 10.5386 19.8803 9.35547 19.3948" stroke="black" stroke-width="1.5" stroke-linecap="round" stroke-linejoin="round"/>
<path d="M20.9992 13.5826L19.2877 11.6133L17.3301 13.315" stroke="black" stroke-width="1.5" stroke-linecap="round" stroke-linejoin="round"/>
</svg>