<svg width="24" height="24" viewBox="0 0 24 24" fill="none" xmlns="http://www.w3.org/2000/svg">
<g opacity="0.4">
<path fill-rule="evenodd" clip-rule="evenodd" d="M20.9299 3.24097C20.4199 2.91097 19.7899 2.86097 19.2299 3.11097L16.2299 4.44097C16.2069 4.47597 16.1829 4.51297 16.1599 4.54897V9.68097C16.4099 9.65097 16.6599 9.64097 16.9099 9.64097C18.5769 9.64097 20.0969 10.284 21.2269 11.334C21.4269 11.52 21.7499 11.374 21.7499 11.102V4.75097C21.7499 4.14097 21.4399 3.58097 20.9299 3.24097Z" fill="black"/>
<path fill-rule="evenodd" clip-rule="evenodd" d="M7.683 2.73398C6.952 3.05698 3.834 4.43498 3.834 4.43498C2.872 4.86398 2.25 5.82098 2.25 6.87498V19.538C2.25 20.148 2.556 20.712 3.067 21.044C3.578 21.376 4.214 21.426 4.772 21.178L7.77 19.845C7.81 19.827 7.835 19.788 7.835 19.745V2.83498C7.835 2.75598 7.755 2.70198 7.683 2.73398Z" fill="black"/>
</g>
<path fill-rule="evenodd" clip-rule="evenodd" d="M14.6601 10.0504V4.62343C14.6361 4.58843 14.6181 4.56343 14.5931 4.52743C14.0191 4.31943 10.2571 2.95943 9.48008 2.67043C9.41008 2.65043 9.33008 2.70043 9.33008 2.78043V19.6504C9.33008 19.7004 9.36008 19.7404 9.40008 19.7504C9.62408 19.8314 10.3981 20.1124 11.2861 20.4334C11.6571 20.5674 11.9981 20.1394 11.7621 19.8224C10.9761 18.7644 10.5101 17.4514 10.5101 16.0304C10.5101 13.3004 12.2401 10.9604 14.6601 10.0504Z" fill="black"/>
<path fill-rule="evenodd" clip-rule="evenodd" d="M14.1982 15.9941C14.1982 14.5011 15.4132 13.2861 16.9062 13.2861C18.3992 13.2861 19.6142 14.5011 19.6142 15.9941C19.6142 17.4881 18.3992 18.7031 16.9062 18.7031C15.4132 18.7031 14.1982 17.4881 14.1982 15.9941ZM20.2792 18.4851C20.7972 17.7861 21.1142 16.9291 21.1142 15.9941C21.1142 13.6741 19.2262 11.7861 16.9062 11.7861C14.5862 11.7861 12.6982 13.6741 12.6982 15.9941C12.6982 18.3151 14.5862 20.2031 16.9062 20.2031C17.7502 20.2031 18.5322 19.9481 19.1922 19.5191L20.4702 20.7951C20.6162 20.9401 20.8082 21.0141 21.0002 21.0141C21.1922 21.0141 21.3852 20.9401 21.5312 20.7931C21.8232 20.5001 21.8232 20.0251 21.5292 19.7321L20.2792 18.4851Z" fill="black"/>
</svg>