<svg width="24" height="24" viewBox="0 0 24 24" fill="none" xmlns="http://www.w3.org/2000/svg">
<path d="M18.7913 11.9982C18.7913 8.24749 15.7509 5.20703 12.0002 5.20703C8.24945 5.20703 5.20898 8.24749 5.20898 11.9982C5.20898 15.7489 8.24945 18.7894 12.0002 18.7894C15.7509 18.7894 18.7913 15.7489 18.7913 11.9982Z" stroke="black" stroke-width="1.5" stroke-linecap="round" stroke-linejoin="round"/>
<path fill-rule="evenodd" clip-rule="evenodd" d="M12.0001 9.92188C13.1462 9.92188 14.0754 10.851 14.0754 11.9972C14.0754 13.1433 13.1462 14.0715 12.0001 14.0715C10.854 14.0715 9.9248 13.1433 9.9248 11.9972C9.9248 10.851 10.854 9.92188 12.0001 9.92188Z" stroke="black" stroke-width="1.5" stroke-linecap="round" stroke-linejoin="round"/>
<path d="M12 18.7891L12 20.9986" stroke="black" stroke-width="1.5" stroke-linecap="round" stroke-linejoin="round"/>
<path d="M5.20861 12L3 12.0005" stroke="black" stroke-width="1.5" stroke-linecap="round" stroke-linejoin="round"/>
<path d="M18.791 12L20.9996 12.0005" stroke="black" stroke-width="1.5" stroke-linecap="round" stroke-linejoin="round"/>
<path d="M12 5.20814L12 3" stroke="black" stroke-width="1.5" stroke-linecap="round" stroke-linejoin="round"/>
</svg>