<svg width="24" height="24" viewBox="0 0 24 24" fill="none" xmlns="http://www.w3.org/2000/svg">
<path d="M7.24147 7.14453C5.98637 8.38115 5.20801 10.1033 5.20801 11.9995C5.20801 15.7464 8.24944 18.7868 11.9953 18.7868C13.8916 18.7868 15.6137 18.0085 16.8503 16.7534" stroke="black" stroke-width="1.5" stroke-linecap="round" stroke-linejoin="round"/>
<path d="M18.791 11.9961H20.9996" stroke="black" stroke-width="1.5" stroke-linecap="round" stroke-linejoin="round"/>
<path d="M12 3V5.20859" stroke="black" stroke-width="1.5" stroke-linecap="round" stroke-linejoin="round"/>
<path d="M12 18.793V21.0016" stroke="black" stroke-width="1.5" stroke-linecap="round" stroke-linejoin="round"/>
<path d="M3 12H5.20859" stroke="black" stroke-width="1.5" stroke-linecap="round" stroke-linejoin="round"/>
<path d="M18.5541 13.7495C18.7098 13.191 18.7925 12.6043 18.7925 12.0001C18.7925 8.24456 15.751 5.20312 11.9955 5.20312C11.3913 5.20312 10.8046 5.28583 10.2461 5.4415" stroke="black" stroke-width="1.5" stroke-linecap="round" stroke-linejoin="round"/>
<path d="M10.5854 10.4883C10.1826 10.8551 9.92578 11.4048 9.92578 11.9993C9.92578 13.1444 10.8511 14.0697 11.9962 14.0697C12.5917 14.0697 13.1316 13.8226 13.5169 13.4198" stroke="black" stroke-width="1.5" stroke-linecap="round" stroke-linejoin="round"/>
<path d="M19.93 19.8323L4.75781 4.66016" stroke="black" stroke-width="1.5" stroke-linecap="round" stroke-linejoin="round"/>
</svg>