<svg width="25" height="24" viewBox="0 0 25 24" fill="none" xmlns="http://www.w3.org/2000/svg">
<path d="M19.4785 9.33631C19.4172 7.98381 18.7283 5.61744 12.9184 5.69041C7.10855 5.59311 6.41187 7.95754 6.34571 9.30906C6.27954 10.6596 6.79329 12.8791 6.88768 13.243C7.11536 14.1158 8.27715 18.3085 12.897 18.3124C17.5169 18.327 18.6923 14.1401 18.9229 13.2683C19.0193 12.9044 19.5398 10.6878 19.4785 9.33631Z" stroke="black" stroke-width="1.5" stroke-linecap="round" stroke-linejoin="round"/>
<path d="M11.5957 13.5471C12.4763 13.4332 13.351 13.4313 14.2199 13.5471" stroke="black" stroke-width="1.5" stroke-linecap="round" stroke-linejoin="round"/>
<path d="M10.2988 10.3079C12.0493 10.0238 13.789 10.0209 15.5171 10.3079" stroke="black" stroke-width="1.5" stroke-linecap="round" stroke-linejoin="round"/>
<path opacity="0.4" d="M6.45751 8.55469L6.1043 8.66756C4.66424 9.23191 3.86539 10.0016 3.9121 12.2998C3.94907 14.6088 5.77932 15.5322 7.15419 15.5526L7.88882 15.5838" stroke="black" stroke-width="1.5" stroke-linecap="round" stroke-linejoin="round"/>
<path opacity="0.4" d="M19.3629 8.55469L19.7162 8.66756C21.1562 9.23191 21.9551 10.0016 21.9084 12.2998C21.8714 14.6088 20.0411 15.5322 18.6663 15.5526L17.9316 15.5838" stroke="black" stroke-width="1.5" stroke-linecap="round" stroke-linejoin="round"/>
</svg>