<svg width="25" height="24" viewBox="0 0 25 24" fill="none" xmlns="http://www.w3.org/2000/svg">
<path d="M12.2625 19.0631H12.2345C7.4825 19.0631 5.9435 15.1241 5.5025 13.4331C5.15664 12.0721 4.96708 10.676 4.9375 9.27207C5.0375 7.24207 6.3735 4.84807 12.2715 4.94007C18.1045 4.88907 19.4715 7.27207 19.5715 9.30307C19.5385 10.7064 19.3442 12.1012 18.9925 13.4601C18.5425 15.1461 16.9955 19.0621 12.2625 19.0631ZM11.9255 6.43807C6.5775 6.43807 6.4705 8.61907 6.4355 9.34607C6.46531 10.598 6.6381 11.8424 6.9505 13.0551C7.3885 14.7361 8.6585 17.5551 12.2335 17.5631H12.2555C15.8165 17.5631 17.0905 14.7531 17.5345 13.0771C17.8499 11.8656 18.0281 10.6224 18.0655 9.37107C18.0325 8.62907 17.8995 6.36207 12.2655 6.44107C12.1505 6.43807 12.0375 6.43807 11.9255 6.43807Z" fill="black"/>
<path d="M13.5603 14.3007C13.5269 14.3007 13.4935 14.2987 13.4603 14.2947C12.6544 14.1887 11.8381 14.1887 11.0323 14.2947C10.835 14.3203 10.6356 14.2665 10.4779 14.145C10.3203 14.0236 10.2174 13.8445 10.1918 13.6472C10.1662 13.4499 10.22 13.2505 10.3415 13.0929C10.4629 12.9352 10.642 12.8323 10.8393 12.8067C11.7753 12.6842 12.7233 12.6842 13.6593 12.8067C13.8489 12.8308 14.0222 12.9264 14.1438 13.074C14.2653 13.2216 14.3259 13.4101 14.3131 13.6008C14.3003 13.7916 14.2152 13.9703 14.0751 14.1004C13.935 14.2305 13.7505 14.3021 13.5593 14.3007H13.5603Z" fill="black"/>
<path d="M14.8583 11.0569C14.8167 11.057 14.7752 11.0537 14.7343 11.0469C13.087 10.7755 11.4065 10.7755 9.75926 11.0469C9.6607 11.0659 9.55933 11.0649 9.46116 11.0441C9.36298 11.0232 9.26999 10.9828 9.18771 10.9253C9.10542 10.8678 9.03551 10.7944 8.98211 10.7094C8.92872 10.6244 8.89293 10.5296 8.87686 10.4305C8.86079 10.3314 8.86478 10.2301 8.88858 10.1326C8.91238 10.0351 8.95551 9.94338 9.01541 9.86284C9.07532 9.78231 9.15078 9.71461 9.23733 9.66378C9.32387 9.61294 9.41975 9.57999 9.51926 9.56689C11.3274 9.26937 13.1721 9.26937 14.9803 9.56689C15.1661 9.59753 15.3335 9.69695 15.4494 9.84539C15.5653 9.99382 15.6211 10.1804 15.6057 10.3681C15.5903 10.5558 15.5049 10.7308 15.3664 10.8584C15.228 10.986 15.0466 11.0569 14.8583 11.0569Z" fill="black"/>
<path d="M7.2288 16.3349H7.1968L6.4618 16.3009C5.93836 16.304 5.41956 16.2027 4.93575 16.0029C4.45193 15.8031 4.01281 15.5089 3.64408 15.1373C3.27534 14.7658 2.9844 14.3245 2.78827 13.8392C2.59213 13.3539 2.49474 12.8343 2.5018 12.3109C2.4498 9.60092 3.5288 8.61392 5.1708 7.96992L5.5708 7.84092C5.66473 7.81061 5.76371 7.79915 5.86208 7.80717C5.96044 7.8152 6.05626 7.84256 6.14403 7.88769C6.2318 7.93282 6.3098 7.99482 6.37356 8.07016C6.43732 8.14549 6.48559 8.23266 6.51559 8.32669C6.54559 8.42071 6.55674 8.51973 6.5484 8.61807C6.54006 8.71641 6.51239 8.81213 6.46698 8.89976C6.42158 8.98739 6.35932 9.06519 6.28378 9.12871C6.20825 9.19223 6.12092 9.24021 6.0268 9.26992L5.6738 9.38292C4.5018 9.84392 3.9648 10.3829 4.0038 12.2829C3.99748 12.6138 4.0577 12.9426 4.18087 13.2498C4.30404 13.5569 4.48766 13.8362 4.72083 14.0711C4.95401 14.3059 5.23198 14.4915 5.53826 14.6169C5.84454 14.7423 6.17288 14.8049 6.5038 14.8009L7.2588 14.8319C7.45771 14.836 7.64684 14.919 7.78459 15.0625C7.92234 15.2061 7.99741 15.3985 7.9933 15.5974C7.98919 15.7963 7.90623 15.9855 7.76267 16.1232C7.61911 16.261 7.42671 16.336 7.2278 16.3319L7.2288 16.3349Z" fill="black"/>
<path d="M17.2715 16.334C17.173 16.336 17.0751 16.3187 16.9833 16.2829C16.8916 16.247 16.8077 16.1935 16.7366 16.1253C16.5931 15.9876 16.5101 15.7984 16.506 15.5995C16.5019 15.4006 16.577 15.2082 16.7147 15.0646C16.8525 14.9211 17.0416 14.8381 17.2405 14.834L17.9745 14.803C18.3071 14.8098 18.6376 14.7494 18.9463 14.6255C19.255 14.5017 19.5355 14.3168 19.7711 14.082C20.0067 13.8472 20.1926 13.5674 20.3176 13.2591C20.4426 12.9509 20.5041 12.6206 20.4985 12.288C20.5375 10.378 19.9985 9.84301 18.7825 9.36601L18.4755 9.26601C18.3814 9.23631 18.2941 9.18832 18.2185 9.1248C18.143 9.06128 18.0807 8.98348 18.0353 8.89586C17.9899 8.80823 17.9623 8.7125 17.9539 8.61416C17.9456 8.51582 17.9567 8.4168 17.9867 8.32278C18.0167 8.22876 18.065 8.14158 18.1288 8.06625C18.1925 7.99092 18.2705 7.92891 18.3583 7.88378C18.4461 7.83865 18.5419 7.81129 18.6402 7.80327C18.7386 7.79524 18.8376 7.80671 18.9315 7.83701L19.2845 7.95001C20.9715 8.61001 22.0535 9.59501 21.9985 12.312C22.0047 12.8368 21.906 13.3576 21.7082 13.8438C21.5104 14.3299 21.2175 14.7717 20.8467 15.1432C20.4758 15.5146 20.0346 15.8083 19.5488 16.007C19.063 16.2056 18.5424 16.3052 18.0175 16.3L17.3035 16.33L17.2715 16.334Z" fill="black"/>
</svg>