<svg width="24" height="24" viewBox="0 0 24 24" fill="none" xmlns="http://www.w3.org/2000/svg">
<path fill-rule="evenodd" clip-rule="evenodd" d="M3.07905 4.84617C3.95998 3.9011 5.21247 3.375 6.6841 3.375H17.3149C18.7901 3.375 20.0432 3.90075 20.9238 4.84647C21.7987 5.78614 22.25 7.07946 22.25 8.52273V15.4767C22.25 16.9204 21.7988 18.2138 20.9236 19.1534C20.0428 20.0991 18.7893 20.6244 17.3138 20.6244H6.6841C5.20901 20.6244 3.95606 20.099 3.07565 19.1533C2.20089 18.2137 1.75 16.9203 1.75 15.4767V8.52273C1.75 7.07858 2.20358 5.7854 3.07905 4.84617ZM4.1763 5.86894C3.60264 6.48438 3.25 7.39006 3.25 8.52273V15.4767C3.25 16.6109 3.60122 17.5164 4.17354 18.1312C4.74021 18.7399 5.57931 19.1244 6.6841 19.1244H17.3138C18.4193 19.1244 19.2589 18.7398 19.826 18.1311C20.3986 17.5163 20.75 16.6108 20.75 15.4767V8.52273C20.75 7.38918 20.3986 6.48364 19.826 5.86865C19.259 5.2597 18.4196 4.875 17.3149 4.875H6.6841C5.58407 4.875 4.74451 5.25935 4.1763 5.86894Z" fill="black"/>
<path fill-rule="evenodd" clip-rule="evenodd" d="M14.001 9.75C12.7583 9.75 11.751 10.7574 11.751 12C11.751 13.2426 12.7583 14.25 14.001 14.25C15.2436 14.25 16.251 13.2426 16.251 12C16.251 10.7574 15.2436 9.75 14.001 9.75ZM10.251 12C10.251 9.92893 11.9299 8.25 14.001 8.25C16.072 8.25 17.751 9.92893 17.751 12C17.751 14.0711 16.072 15.75 14.001 15.75C11.9299 15.75 10.251 14.0711 10.251 12Z" fill="black"/>
<path fill-rule="evenodd" clip-rule="evenodd" d="M7.29909 9.39754C8.69918 7.94502 10.9975 7.8605 12.5005 9.20626C12.8091 9.48257 12.8353 9.95672 12.559 10.2653C12.2827 10.5739 11.8085 10.6001 11.4999 10.3238C10.5981 9.51631 9.21912 9.56702 8.37906 10.4385C7.53901 11.31 7.53901 12.69 8.37906 13.5615C9.21912 14.433 10.5981 14.4837 11.4999 13.6763C11.8085 13.4 12.2827 13.4261 12.559 13.7347C12.8353 14.0433 12.8091 14.5175 12.5005 14.7938C10.9975 16.1395 8.69918 16.055 7.29909 14.6025C5.899 13.15 5.899 10.8501 7.29909 9.39754Z" fill="black"/>
</svg>