<svg width="24" height="24" viewBox="0 0 24 24" fill="none" xmlns="http://www.w3.org/2000/svg">
<path fill-rule="evenodd" clip-rule="evenodd" d="M17.0351 4.53906H6.96389C4.52757 4.53906 3 6.26414 3 8.70533V15.2933C3 17.7355 4.51978 19.4596 6.96389 19.4596H17.0342C19.4792 19.4596 21 17.7355 21 15.2933V8.70533C21 6.26414 19.4792 4.53906 17.0351 4.53906Z" stroke="black" stroke-width="1.5" stroke-linecap="round" stroke-linejoin="round"/>
<path d="M3 9.83414H21" stroke="black" stroke-width="1.5" stroke-linecap="round" stroke-linejoin="round"/>
<path d="M9.24543 16.1604C8.93992 16.4591 8.53127 16.6342 8.07981 16.6342C7.1623 16.6342 6.41895 15.8909 6.41895 14.9734C6.41895 14.0549 7.1623 13.3125 8.07981 13.3125C8.53127 13.3125 8.93992 13.4876 9.24543 13.7854" stroke="black" stroke-width="1.5" stroke-linecap="round" stroke-linejoin="round"/>
<path fill-rule="evenodd" clip-rule="evenodd" d="M12.0639 14.9753C12.0639 15.8938 11.3196 16.6381 10.4011 16.6381C9.48358 16.6381 8.73926 15.8938 8.73926 14.9753C8.73926 14.0568 9.48358 13.3125 10.4011 13.3125C11.3196 13.3125 12.0639 14.0568 12.0639 14.9753Z" stroke="black" stroke-width="1.5" stroke-linecap="round" stroke-linejoin="round"/>
</svg>