<svg width="24" height="24" viewBox="0 0 24 24" fill="none" xmlns="http://www.w3.org/2000/svg">
<path opacity="0.4" fill-rule="evenodd" clip-rule="evenodd" d="M13.3949 20.59C13.4081 20.5792 13.4209 20.5677 13.4332 20.5554C15.3716 18.617 16.5975 16.3025 16.9946 14.109C17.3913 11.9178 16.9644 9.79592 15.5155 8.34649C14.0679 6.89946 11.9494 6.47159 9.76121 6.86566C7.5718 7.25994 5.26128 8.48041 3.32405 10.4111L3.30721 10.4278L3.3 10.4352L3.29714 10.4382L3.29589 10.4395L3.29503 10.4404C3.29031 10.4455 3.28572 10.4506 3.28124 10.4558C3.25613 10.4788 3.23141 10.5024 3.2071 10.5267C2.34886 11.3849 2.35049 12.7513 2.79406 14.0885C3.24797 15.4569 4.20942 16.9634 5.55294 18.3074C6.89696 19.651 8.40365 20.6125 9.772 21.0664C11.1092 21.51 12.4756 21.5116 13.3338 20.6534C13.3547 20.6326 13.375 20.6114 13.3949 20.59ZM12.7178 19.8438C12.6891 19.8801 12.6587 19.9143 12.6267 19.9463C12.1792 20.3938 11.3096 20.5229 10.0869 20.1173C8.89528 19.722 7.51792 18.8577 6.26018 17.6005C5.00287 16.3427 4.13848 14.9653 3.74321 13.7737C3.3376 12.5509 3.46669 11.6813 3.91421 11.2338C4.36174 10.7863 5.23131 10.6572 6.45407 11.0628C7.3413 11.3571 8.33154 11.9115 9.29871 12.6945C9.58152 12.9385 9.87681 13.2111 10.1847 13.5152C10.6451 13.97 11.0337 14.4015 11.3612 14.8091C12.0416 15.6965 12.5285 16.5943 12.7977 17.4061C12.897 17.7053 12.9642 17.9834 13.0026 18.2393C13.0078 18.2923 13.0118 18.3438 13.0146 18.394C13.0439 18.9168 12.949 19.3061 12.8543 19.5565C12.8067 19.6824 12.7587 19.7742 12.7255 19.8308C12.7228 19.8354 12.7202 19.8397 12.7178 19.8438Z" fill="black"/>
<path d="M17.5246 2.64062C16.3056 2.64062 15.313 3.63476 15.313 4.8531C15.313 5.35766 15.4848 5.82117 15.7682 6.18773L15.2082 6.74668C15.074 6.88086 15.1036 7.10573 15.2607 7.21221C15.5323 7.39633 15.7886 7.607 16.0267 7.84509C16.3521 8.1706 16.6263 8.52982 16.8515 8.916C16.9514 9.08743 17.1885 9.12714 17.3288 8.98677L17.9463 8.37005C18.3149 8.65381 18.7777 8.82712 19.2788 8.82712C20.5064 8.82712 21.4995 7.83436 21.4995 6.60738C21.4995 5.55731 20.5993 4.63955 19.5302 4.60676C19.4918 3.53508 18.5759 2.64062 17.5246 2.64062Z" fill="black"/>
<path d="M7.69088 14.0014C7.32254 13.812 6.87035 13.957 6.68088 14.3253C6.49141 14.6936 6.63641 15.1458 7.00475 15.3353C7.67703 15.6811 8.1789 16.1828 8.52584 16.8565C8.71548 17.2248 9.16774 17.3696 9.53599 17.18C9.90425 16.9903 10.049 16.5381 9.8594 16.1698C9.36957 15.2186 8.64156 14.4905 7.69088 14.0014Z" fill="black"/>
</svg>