<svg width="25" height="24" viewBox="0 0 25 24" fill="none" xmlns="http://www.w3.org/2000/svg">
<path fill-rule="evenodd" clip-rule="evenodd" d="M17.4886 3.88965C16.873 3.88965 16.3676 4.395 16.3676 5.0117C16.3676 5.35923 16.5301 5.6664 16.7746 5.86112C16.9417 5.9942 17.0442 6.19222 17.0562 6.40552C17.0683 6.61881 16.9888 6.82712 16.8378 6.97818L15.7916 8.0243C15.8424 8.07132 15.8924 8.11949 15.9418 8.16879L15.942 8.16899C16.0845 8.31163 16.2176 8.46032 16.3412 8.61451L17.4028 7.55231C17.5528 7.40225 17.7593 7.32273 17.9712 7.33344C18.1831 7.34416 18.3805 7.4441 18.5146 7.60852C18.7217 7.86257 19.0342 8.02234 19.3695 8.02234C19.9956 8.02234 20.5003 7.51721 20.5003 6.89251C20.5003 6.33619 19.8797 5.84758 19.2974 6.0436C19.0288 6.13401 18.7321 6.0653 18.5307 5.86599C18.3292 5.66669 18.2572 5.37084 18.3447 5.10127C18.5389 4.50298 18.0443 3.88965 17.4886 3.88965ZM15.5362 10.0964C15.5525 10.1334 15.572 10.1694 15.5946 10.204C16.1196 11.2066 16.2693 12.4772 16.0143 13.8856C15.7901 15.1244 15.2549 16.4377 14.4219 17.6932C14.3726 17.4646 14.3094 17.2365 14.2349 17.0118C13.7663 15.5991 12.7806 14.0602 11.4154 12.6951L11.4153 12.695C10.0498 11.3299 8.51091 10.3442 7.09838 9.87563C6.8739 9.80116 6.64605 9.73801 6.41774 9.68873C7.67315 8.85584 8.98639 8.32069 10.2251 8.09643C11.7878 7.81354 13.1809 8.02887 14.2265 8.70221C14.2438 8.7146 14.2615 8.72617 14.2795 8.73692C14.4959 8.88117 14.697 9.04547 14.8811 9.22945C14.8811 9.22949 14.8812 9.22952 14.8812 9.22955C14.8812 9.22959 14.8813 9.22962 14.8813 9.22965M14.5407 7.15396L15.28 6.41465C15.0205 6.01215 14.8676 5.53013 14.8676 5.0117C14.8676 3.56759 16.0435 2.38965 17.4886 2.38965C18.6752 2.38965 19.7148 3.33468 19.8706 4.51471C21.0497 4.66545 22.0003 5.70769 22.0003 6.89251C22.0003 8.34614 20.8236 9.52234 19.3695 9.52234C18.8532 9.52234 18.3722 9.36773 17.9689 9.1078L17.131 9.94618C17.6623 11.2093 17.758 12.6741 17.4903 14.1528C17.0831 16.4024 15.8295 18.7615 13.8596 20.7314C13.8476 20.7434 13.8352 20.755 13.8226 20.766C13.8026 20.7874 13.7822 20.8086 13.7613 20.8294C12.8004 21.7904 11.3098 21.7561 9.94403 21.303C8.5315 20.8344 6.99266 19.8487 5.62707 18.4836L5.62687 18.4834C4.2618 17.1179 3.27609 15.579 2.80752 14.1665C2.35446 12.8007 2.32015 11.3101 3.28107 10.3492C3.30276 10.3275 3.32472 10.3063 3.34695 10.2856C3.35732 10.2739 3.36813 10.2624 3.37937 10.2511C5.34923 8.28125 7.70838 7.02767 9.95793 6.62043C11.5859 6.3257 13.197 6.47147 14.5407 7.15396ZM6.6261 11.2993C5.43196 10.9032 4.68658 11.065 4.34173 11.4098C3.99688 11.7547 3.83511 12.5001 4.23124 13.6942C4.61184 14.8416 5.45189 16.1866 6.68753 17.4228C6.68757 17.4228 6.6876 17.4229 6.68763 17.4229C6.68767 17.4229 6.6877 17.4229 6.68773 17.423C7.92389 18.6586 9.26894 19.4987 10.4163 19.8793C11.6105 20.2754 12.3558 20.1136 12.7007 19.7688C13.0455 19.4239 13.2073 18.6783 12.8112 17.484C12.4306 16.3365 11.5905 14.9915 10.3549 13.7558C10.3548 13.7558 10.3548 13.7558 10.3548 13.7557M6.6261 11.2993C7.7735 11.68 9.11859 12.52 10.3548 13.7557L6.6261 11.2993ZM6.93142 14.3243C7.12089 13.956 7.57308 13.811 7.94142 14.0005C8.8921 14.4895 9.62011 15.2177 10.1099 16.1688C10.2996 16.5371 10.1548 16.9894 9.78654 17.179C9.41829 17.3686 8.96603 17.2238 8.77639 16.8556C8.42944 16.1819 7.92758 15.6802 7.25529 15.3344C6.88695 15.1449 6.74195 14.6927 6.93142 14.3243Z" fill="black"/>
</svg>