<svg width="25" height="24" viewBox="0 0 25 24" fill="none" xmlns="http://www.w3.org/2000/svg">
<path opacity="0.4" fill-rule="evenodd" clip-rule="evenodd" d="M12.5647 8.45312C8.96775 8.45312 6.04175 11.3791 6.04175 14.9751C6.04175 18.5721 8.96775 21.4991 12.5647 21.4991C16.1627 21.4991 19.0887 18.5721 19.0887 14.9751C19.0887 11.3791 16.1627 8.45312 12.5647 8.45312Z" fill="black"/>
<path fill-rule="evenodd" clip-rule="evenodd" d="M12.0552 6.96965C12.2834 6.95506 12.4282 6.70766 12.3171 6.5077L10.3978 3.05341C10.2128 2.71941 9.85977 2.51141 9.47777 2.51141H6.89277C6.51377 2.51141 6.17377 2.70641 5.98277 3.03441C5.79277 3.36041 5.78977 3.75241 5.97677 4.08241L8.1448 7.91915C8.22914 8.06841 8.42093 8.11628 8.5693 8.03041C9.60824 7.4291 10.7913 7.05042 12.0552 6.96965Z" fill="black"/>
<path fill-rule="evenodd" clip-rule="evenodd" d="M19.0491 4.032C19.2141 3.703 19.1971 3.321 19.0051 3.008C18.8121 2.695 18.4781 2.508 18.1111 2.507L15.6831 2.5H15.6801C15.2801 2.5 14.9201 2.722 14.7391 3.081L13.0016 6.54355C12.9031 6.73983 13.0421 6.97286 13.2609 6.99162C14.4894 7.09696 15.6385 7.47854 16.647 8.07667C16.8009 8.168 17.0024 8.11384 17.0826 7.9538L19.0491 4.032Z" fill="black"/>
</svg>