<svg width="24" height="24" viewBox="0 0 24 24" fill="none" xmlns="http://www.w3.org/2000/svg">
<path opacity="0.4" fill-rule="evenodd" clip-rule="evenodd" d="M20.1626 3.83016C18.3826 2.06016 15.4926 2.06016 13.7126 3.84016C12.3826 5.16016 12.0026 7.20016 12.7626 8.92016C12.7626 9.02016 12.7326 9.17016 12.7126 9.33016C12.6026 10.1502 12.5526 10.7602 12.9026 11.1002C13.2426 11.4502 13.8526 11.4002 14.6726 11.2902C14.8426 11.2602 14.9926 11.2402 15.0826 11.2402C15.6726 11.5002 16.3026 11.6302 16.9326 11.6302C18.1226 11.6302 19.2926 11.1702 20.1626 10.2902C21.9426 8.51016 21.9426 5.62016 20.1626 3.83016Z" fill="black"/>
<path fill-rule="evenodd" clip-rule="evenodd" d="M17.1083 15.6344C16.9013 15.4374 16.6773 15.2234 16.4393 14.9854C15.3123 13.8634 14.3443 14.2434 13.5653 14.5504C12.6403 14.9154 11.8403 15.2274 10.3093 13.6964C8.77625 12.1634 9.08925 11.3634 9.45125 10.4374C9.75625 9.65739 10.1353 8.68839 9.00925 7.56639C8.77225 7.32739 8.55725 7.10239 8.36025 6.89439C7.54425 6.03339 6.95425 5.41239 6.10725 5.40239C5.35825 5.35839 4.62225 5.84539 3.50225 6.96639C3.48825 6.97939 3.43725 7.03039 3.42525 7.04539C3.17425 7.29039 2.50925 7.94139 2.50225 9.21039C2.49125 11.1654 4.06025 13.7314 7.16625 16.8334C10.2583 19.9284 12.8163 21.4964 14.7703 21.4964H14.7943C16.0663 21.4884 16.7163 20.8204 16.9613 20.5684L16.6033 20.2194L17.0383 20.4924C18.1563 19.3784 18.6083 18.6254 18.6003 17.8974C18.5903 17.0474 17.9693 16.4544 17.1083 15.6344Z" fill="black"/>
<path d="M17.6927 7.80969H18.3127C18.7327 7.80969 19.0627 7.46969 19.0627 7.05969C19.0627 6.64969 18.7327 6.30969 18.3127 6.30969H17.6927V5.67969C17.6927 5.26969 17.3527 4.92969 16.9427 4.92969C16.5227 4.92969 16.1927 5.26969 16.1927 5.67969V6.30969H15.5627C15.1427 6.30969 14.8127 6.64969 14.8127 7.05969C14.8127 7.46969 15.1427 7.80969 15.5627 7.80969H16.1927V8.44969C16.1927 8.85969 16.5227 9.19969 16.9427 9.19969C17.3527 9.19969 17.6927 8.85969 17.6927 8.44969V7.80969Z" fill="black"/>
</svg>