<svg width="25" height="24" viewBox="0 0 25 24" fill="none" xmlns="http://www.w3.org/2000/svg">
<path d="M7.75003 8C9.95876 8 11.7501 9.79033 11.7501 12C11.7501 14.2097 9.95876 16.0001 7.75003 16.0001C5.54033 16.0001 3.75 14.2097 3.75 12C3.75 11.1476 4.01642 10.3576 4.47056 9.70871" stroke="black" stroke-width="1.5" stroke-linecap="round" stroke-linejoin="round"/>
<path fill-rule="evenodd" clip-rule="evenodd" d="M15.7485 16.0001C16.8529 16.0001 17.7491 14.2097 17.7491 12C17.7491 9.79033 16.8529 8 15.7485 8C14.6442 8 13.748 9.79033 13.748 12C13.748 14.2097 14.6442 16.0001 15.7485 16.0001Z" stroke="black" stroke-width="1.5" stroke-linecap="round" stroke-linejoin="round"/>
<path fill-rule="evenodd" clip-rule="evenodd" d="M20.7502 16.0001C21.3029 16.0001 21.7505 14.2097 21.7505 12C21.7505 9.79033 21.3029 8 20.7502 8C20.1976 8 19.75 9.79033 19.75 12C19.75 14.2097 20.1976 16.0001 20.7502 16.0001Z" stroke="black" stroke-width="1.5" stroke-linecap="round" stroke-linejoin="round"/>
</svg>