<svg width="24" height="24" viewBox="0 0 24 24" fill="none" xmlns="http://www.w3.org/2000/svg">
<path d="M5.25311 15.8974V8.07812" stroke="black" stroke-width="1.5" stroke-linecap="round" stroke-linejoin="round"/>
<path d="M15.3754 6.45413V16.3255C15.3754 16.636 15.3031 16.9422 15.1642 17.2199L14.2742 18.9999C14.2585 19.0315 14.2502 19.0663 14.2502 19.1015C14.2502 19.227 14.352 19.3287 14.4774 19.3287H20.7887C20.9054 19.3287 21 19.2341 21 19.1174C21 19.0716 20.9852 19.0271 20.9577 18.9906L19.7126 17.3311C19.4528 16.9848 19.3123 16.5636 19.3123 16.1307V8.22046C19.3123 7.66253 19.5454 7.12997 19.9552 6.75138L20.74 6.02436C20.8994 5.87672 20.9899 5.71935 20.9899 5.5021C20.9899 5.07122 20.6407 4.67188 20.2098 4.67188H17.3977C16.5145 4.67188 15.7358 5.25121 15.4821 6.09717L11.6537 18.858C11.5699 19.1374 11.3128 19.3287 11.0211 19.3287C10.7612 19.3287 10.5255 19.1763 10.4188 18.9393L5.93078 8.96664C5.81865 8.71802 5.66266 8.49183 5.46961 8.29878L3.23302 6.06219C3.08382 5.91299 3 5.71063 3 5.49963C3 5.06024 3.35619 4.70405 3.79558 4.70405H7.31636C8.10612 4.70405 8.82192 5.16879 9.14329 5.8902L12.9682 14.4762" stroke="black" stroke-width="1.5" stroke-linecap="round" stroke-linejoin="round"/>
<path fill-rule="evenodd" clip-rule="evenodd" d="M3.0398 18.99C3.01391 19.0262 3 19.0696 3 19.1141C3 19.2319 3.09552 19.3274 3.21334 19.3274H7.28714C7.40497 19.3274 7.50049 19.2319 7.50049 19.1141C7.50049 19.0696 7.48657 19.0262 7.46069 18.99L5.25024 15.8984L3.0398 18.99Z" stroke="black" stroke-width="1.5" stroke-linecap="round" stroke-linejoin="round"/>
</svg>