<svg width="25" height="24" viewBox="0 0 25 24" fill="none" xmlns="http://www.w3.org/2000/svg">
<path fill-rule="evenodd" clip-rule="evenodd" d="M11.9024 2.60882C12.2956 2.46373 12.7278 2.46373 13.1211 2.60882C13.3302 2.68597 13.5045 2.80943 13.6726 2.95412C13.8337 3.09269 14.0163 3.27536 14.2338 3.49288L15.082 4.34101C15.2971 4.55619 15.3539 4.60917 15.4128 4.64683C15.4884 4.69526 15.5721 4.7299 15.6598 4.74915C15.728 4.76412 15.8057 4.76682 16.11 4.76682L17.3091 4.76682C17.6168 4.76682 17.875 4.76681 18.0869 4.7827C18.3081 4.79928 18.5187 4.83522 18.7211 4.92854C19.1018 5.10404 19.4073 5.40961 19.5828 5.79029C19.6762 5.99271 19.7121 6.20326 19.7287 6.42447C19.7446 6.63629 19.7446 6.89459 19.7446 7.20215V8.40139C19.7446 8.7057 19.7473 8.78333 19.7622 8.85155C19.7815 8.93929 19.8161 9.02293 19.8646 9.09859C19.9022 9.15741 19.9552 9.21421 20.1704 9.42939L21.0189 10.278C21.2364 10.4954 21.419 10.6781 21.5576 10.8391C21.7023 11.0072 21.8258 11.1815 21.9029 11.3906C22.048 11.7839 22.048 12.2161 21.9029 12.6093C21.8258 12.8185 21.7023 12.9928 21.5576 13.1609C21.419 13.3219 21.2364 13.5046 21.0189 13.7221L20.1704 14.5706C19.9552 14.7858 19.9022 14.8426 19.8646 14.9014C19.8161 14.977 19.7815 15.0607 19.7622 15.1484C19.7473 15.2166 19.7446 15.2943 19.7446 15.5986V16.7978C19.7446 17.1054 19.7446 17.3637 19.7287 17.5755C19.7121 17.7967 19.6762 18.0073 19.5828 18.2097C19.4073 18.5904 19.1018 18.8959 18.7211 19.0714C18.5187 19.1648 18.3081 19.2007 18.0869 19.2173C17.8751 19.2332 17.6168 19.2332 17.3092 19.2331H16.11C15.8057 19.2331 15.7281 19.2359 15.6598 19.2508C15.5721 19.2701 15.4884 19.3047 15.4128 19.3531C15.354 19.3908 15.2972 19.4438 15.082 19.659L14.2338 20.5071C14.0163 20.7247 13.8337 20.9073 13.6726 21.0459C13.5045 21.1906 13.3302 21.314 13.1211 21.3912C12.7278 21.5363 12.2956 21.5363 11.9024 21.3912C11.6932 21.314 11.519 21.1906 11.3508 21.0459C11.1898 20.9073 11.0071 20.7246 10.7896 20.5072L9.94145 19.659C9.72627 19.4438 9.66947 19.3908 9.61065 19.3531C9.53499 19.3047 9.45135 19.2701 9.36361 19.2508C9.29538 19.2359 9.21776 19.2331 8.91345 19.2331H7.71357C7.406 19.2332 7.14771 19.2332 6.93588 19.2173C6.71468 19.2007 6.50413 19.1648 6.3017 19.0714C5.92102 18.8959 5.61545 18.5904 5.43995 18.2097C5.34663 18.0073 5.31069 17.7967 5.29411 17.5755C5.27822 17.3636 5.27823 17.1054 5.27823 16.7977L5.27824 15.5979C5.27824 15.2936 5.27553 15.216 5.26056 15.1478C5.24131 15.06 5.20667 14.9764 5.15824 14.9007C5.12058 14.8419 5.0676 14.7851 4.85242 14.5699L4.00458 13.7221C3.78705 13.5046 3.60441 13.3219 3.46584 13.1609C3.32115 12.9928 3.19768 12.8185 3.12053 12.6093C2.97545 12.2161 2.97545 11.7839 3.12054 11.3906C3.19769 11.1815 3.32116 11.0072 3.46584 10.8391C3.60442 10.678 3.78708 10.4954 4.00461 10.2779L4.85242 9.43007C5.0676 9.21488 5.12058 9.15808 5.15824 9.09926C5.20667 9.0236 5.24131 8.93996 5.26056 8.85222C5.27553 8.784 5.27824 8.70637 5.27824 8.40206L5.27823 7.20225C5.27823 6.89462 5.27822 6.63633 5.29411 6.42447C5.31069 6.20326 5.34663 5.99272 5.43995 5.79029C5.61545 5.40961 5.92102 5.10404 6.3017 4.92854C6.50413 4.83522 6.71468 4.79928 6.93588 4.7827C7.14774 4.76681 7.40603 4.76682 7.71366 4.76682L8.91347 4.76682C9.21778 4.76682 9.2954 4.76412 9.36362 4.74915C9.45137 4.7299 9.53501 4.69526 9.61066 4.64683C9.66949 4.60917 9.72629 4.55619 9.94147 4.34101L10.7896 3.49286C11.0071 3.27533 11.1898 3.09269 11.3508 2.95412C11.519 2.80943 11.6932 2.68597 11.9024 2.60882ZM12.0098 8.49951C12.0098 8.22337 12.2336 7.99951 12.5098 7.99951C13.0352 7.99951 13.5555 8.10301 14.041 8.30408C14.5264 8.50516 14.9675 8.79989 15.339 9.17144C15.7106 9.54298 16.0053 9.98407 16.2064 10.4695C16.4075 10.955 16.511 11.4753 16.511 12.0007C16.511 12.5262 16.4075 13.0465 16.2064 13.5319C16.0053 14.0174 15.7106 14.4584 15.339 14.83C14.9675 15.2015 14.5264 15.4963 14.041 15.6973C13.5555 15.8984 13.0352 16.0019 12.5098 16.0019C12.2336 16.0019 12.0098 15.7781 12.0098 15.5019V8.49951Z" fill="black"/>
</svg>