<svg width="24" height="24" viewBox="0 0 24 24" fill="none" xmlns="http://www.w3.org/2000/svg">
<path fill-rule="evenodd" clip-rule="evenodd" d="M5.25293 7.32812C5.66714 7.32812 6.00293 7.66391 6.00293 8.07812V15.8974C6.00293 16.3116 5.66714 16.6474 5.25293 16.6474C4.83872 16.6474 4.50293 16.3116 4.50293 15.8974V8.07812C4.50293 7.66391 4.83872 7.32812 5.25293 7.32812Z" fill="black"/>
<path fill-rule="evenodd" clip-rule="evenodd" d="M14.7637 5.88165C15.1127 4.71845 16.1833 3.92188 17.3977 3.92188H20.2098C21.1136 3.92188 21.7399 4.71824 21.7399 5.5021C21.7399 5.98226 21.5175 6.32642 21.2497 6.57456L20.4649 7.30157L20.4641 7.30228C20.208 7.5389 20.0623 7.87176 20.0623 8.22046V16.1307C20.0623 16.4013 20.1501 16.6645 20.3125 16.881L21.5576 18.5404C21.6825 18.7069 21.75 18.9093 21.75 19.1174C21.75 19.6483 21.3196 20.0787 20.7887 20.0787H14.4774C13.9377 20.0787 13.5002 19.6412 13.5002 19.1015C13.5002 18.9498 13.5356 18.8002 13.6034 18.6645L14.4934 16.8845C14.5802 16.711 14.6254 16.5196 14.6254 16.3255V11.5628L12.3721 19.0735C12.1931 19.6701 11.644 20.0787 11.0211 20.0787C10.4661 20.0787 9.96268 19.7532 9.7349 19.2471L5.24709 9.27497C5.24704 9.27488 5.24713 9.27507 5.24709 9.27497C5.17211 9.10881 5.06788 8.95771 4.93928 8.82911L2.70269 6.59252C2.41284 6.30267 2.25 5.90954 2.25 5.49963C2.25 4.64603 2.94198 3.95405 3.79558 3.95405H7.31636C8.40227 3.95405 9.3865 4.59307 9.82838 5.58501L12.8307 12.3247L14.7637 5.88165ZM12.1699 14.5274L8.45819 6.19539C8.25733 5.74451 7.80996 5.45405 7.31636 5.45405H3.79558C3.77041 5.45405 3.75 5.47446 3.75 5.49963C3.75 5.51172 3.7548 5.52331 3.76335 5.53186L5.99994 7.76845C6.25736 8.02587 6.46521 8.32736 6.61447 8.65831L11.0043 18.4127L12.1699 14.5274ZM16.1254 6.56287V16.3255C16.1254 16.7524 16.026 17.1735 15.835 17.5553L15.3234 18.5787H19.711L19.1127 17.7812C18.7554 17.3051 18.5623 16.726 18.5623 16.1307V8.22046C18.5623 7.45366 18.8825 6.7217 19.4455 6.20118C19.4455 6.20121 19.4455 6.20116 19.4455 6.20118C19.4457 6.20097 19.446 6.20068 19.4463 6.20047L20.2303 5.47417C20.2313 5.47324 20.2323 5.47232 20.2332 5.47144C20.2331 5.47122 20.2333 5.47166 20.2332 5.47144C20.2274 5.45714 20.2186 5.44313 20.2091 5.43278C20.2046 5.42784 20.2005 5.42434 20.1974 5.42203L17.3977 5.42188C16.8457 5.42188 16.359 5.78396 16.2004 6.31268L16.1254 6.56287Z" fill="black"/>
<path fill-rule="evenodd" clip-rule="evenodd" d="M5.25024 15.1484C5.49233 15.1484 5.71954 15.2653 5.86034 15.4622L8.07079 18.5538C8.18766 18.7172 8.25049 18.9131 8.25049 19.1141C8.25049 19.6461 7.81918 20.0774 7.28714 20.0774H3.21334C2.6813 20.0774 2.25 19.6461 2.25 19.1141C2.25 18.9131 2.31283 18.7172 2.4297 18.5538L4.64015 15.4622C4.78095 15.2653 5.00815 15.1484 5.25024 15.1484ZM5.25024 17.1879L4.25677 18.5774H6.24372L5.25024 17.1879Z" fill="black"/>
</svg>