<svg width="25" height="24" viewBox="0 0 25 24" fill="none" xmlns="http://www.w3.org/2000/svg">
<path fill-rule="evenodd" clip-rule="evenodd" d="M8.65358 3.95254C8.65358 3.01342 9.41503 2.25 10.3561 2.25H14.1449C15.086 2.25 15.8474 3.01342 15.8474 3.95254V5.77073L17.4214 4.86177C18.2346 4.39258 19.2766 4.66977 19.7469 5.48463C19.7469 5.48468 19.7468 5.48458 19.7469 5.48463L21.6412 8.76646C22.1104 9.57967 21.8332 10.6215 21.0184 11.0917C21.0183 11.0918 21.0185 11.0917 21.0184 11.0917L19.4444 12.0008L21.0182 12.9091C21.0182 12.9091 21.0181 12.909 21.0182 12.9091C21.833 13.3793 22.1105 14.4211 21.6413 15.2344L19.747 18.5162C19.7469 18.5162 19.747 18.5161 19.747 18.5162C19.2767 19.3311 18.2349 19.6086 17.4217 19.1394L15.8474 18.2302V20.0475C15.8474 20.9881 15.0855 21.75 14.1449 21.75H10.3561C9.41553 21.75 8.65358 20.9881 8.65358 20.0475V18.2302L7.07963 19.1392C6.26633 19.6084 5.22423 19.3312 4.75405 18.5162L2.85887 15.2347C2.389 14.4202 2.66903 13.3787 3.48273 12.9091C3.48277 12.9091 3.4827 12.9091 3.48273 12.9091L5.05661 12.0008L3.48284 11.0919C3.48275 11.0919 3.48294 11.092 3.48284 11.0919C2.66927 10.6223 2.38886 9.581 2.8587 8.76661L4.75405 5.48478C5.22431 4.67003 6.26614 4.39245 7.07935 4.8616L8.65358 5.77073V3.95254ZM10.3561 3.75C10.2445 3.75 10.1536 3.84085 10.1536 3.95254V7.06995C10.1536 7.33791 10.0106 7.58552 9.77854 7.71949C9.54647 7.85346 9.26055 7.85343 9.02851 7.71942L6.32976 6.16088C6.2324 6.10492 6.1085 6.13872 6.05333 6.23436L4.15798 9.5162C4.10246 9.61242 4.13552 9.73672 4.23243 9.79263L6.93174 11.3515C7.16378 11.4855 7.3067 11.7331 7.30666 12.0011C7.30663 12.269 7.16364 12.5166 6.93156 12.6505L4.23253 14.2083C4.13562 14.2642 4.10247 14.3886 4.15798 14.4848L6.05316 17.7663C6.10839 17.8621 6.23236 17.8963 6.32976 17.8401L9.02851 16.2816C9.26055 16.1475 9.54647 16.1475 9.77854 16.2815C10.0106 16.4155 10.1536 16.6631 10.1536 16.931V20.0475C10.1536 20.1596 10.244 20.25 10.3561 20.25H14.1449C14.257 20.25 14.3474 20.1596 14.3474 20.0475V16.931C14.3474 16.6631 14.4904 16.4155 14.7225 16.2815C14.9545 16.1475 15.2404 16.1475 15.4725 16.2816L18.1712 17.8401C18.1713 17.8401 18.1712 17.8401 18.1712 17.8401C18.2686 17.8962 18.3925 17.8623 18.4477 17.7666L20.3421 14.4848C20.3982 14.3874 20.3643 14.2636 20.2686 14.2083L17.5694 12.6506C17.3374 12.5166 17.1944 12.269 17.1943 12.0011C17.1943 11.7331 17.3372 11.4855 17.5693 11.3515L20.2683 9.7928C20.364 9.73757 20.3982 9.6136 20.3421 9.5162L18.4478 6.23451C18.3926 6.13887 18.2689 6.10476 18.1715 6.16072M18.1715 6.16072L15.4725 7.71942C15.2404 7.85343 14.9545 7.85346 14.7225 7.71949C14.4904 7.58552 14.3474 7.33791 14.3474 7.06995V3.95254C14.3474 3.84085 14.2565 3.75 14.1449 3.75H10.3561" fill="black"/>
</svg>