<svg width="24" height="24" viewBox="0 0 24 24" fill="none" xmlns="http://www.w3.org/2000/svg">
<path fill-rule="evenodd" clip-rule="evenodd" d="M2 12C2 17.514 6.486 22 12 22C13.937 22 15.945 21.372 17.655 20.232C18.114 19.926 18.238 19.306 17.932 18.846C17.625 18.387 17.005 18.262 16.545 18.568C15.161 19.491 13.546 20 12 20C7.589 20 4 16.411 4 12C4 7.589 7.589 4 12 4C16.486 4 20 7.514 20 12C20 12.781 19.834 14.6 18.3 14.6C17.347 14.6 16.6 13.854 16.6 12.9V12.0153C16.6 12.0103 16.6 12.0054 16.6 12.0004C16.6 11.9954 16.6 11.9904 16.6 11.9855V8.6C16.6 8.047 16.152 7.6 15.6 7.6C15.1706 7.6 14.8042 7.87046 14.6626 8.25089C13.9107 7.71551 12.9916 7.40039 12 7.40039C9.46302 7.40039 7.40002 9.46339 7.40002 12.0004C7.40002 14.5364 9.46302 16.5994 12 16.5994C13.3234 16.5994 14.5179 16.038 15.3578 15.141C16.0344 16.0272 17.1016 16.6 18.3 16.6C20.547 16.6 22 14.794 22 12C22 6.393 17.607 2 12 2C6.486 2 2 6.486 2 12ZM14.6 11.9889V12.0119C14.594 13.4644 13.4542 14.5994 12 14.5994C10.542 14.5994 9.40002 13.4584 9.40002 12.0004C9.40002 10.5424 10.542 9.40039 12 9.40039C13.4542 9.40039 14.594 10.5364 14.6 11.9889Z" fill="black"/>
</svg>