<svg width="25" height="24" viewBox="0 0 25 24" fill="none" xmlns="http://www.w3.org/2000/svg">
<path d="M12.249 21.7506C9.66316 21.7506 7.18321 20.7233 5.35473 18.8949C3.52625 17.0664 2.49902 14.5864 2.49902 12.0006C2.49902 9.41472 3.52625 6.93477 5.35473 5.10629C7.18321 3.27781 9.66316 2.25058 12.249 2.25058C13.5334 2.23652 14.8076 2.47911 15.9969 2.9641C17.1862 3.44909 18.2667 4.16673 19.175 5.0749C20.0833 5.98307 20.801 7.06349 21.2861 8.25277C21.7712 9.44205 22.0139 10.7162 22 12.0006C22 14.6426 20.646 16.3496 18.55 16.3496C17.6354 16.3485 16.7584 15.9847 16.1117 15.3379C15.4649 14.6912 15.1011 13.8143 15.1 12.8996V8.64158C15.1 8.44267 15.179 8.2519 15.3197 8.11125C15.4603 7.9706 15.6511 7.89158 15.85 7.89158C16.0489 7.89158 16.2397 7.9706 16.3804 8.11125C16.521 8.2519 16.6 8.44267 16.6 8.64158V12.8996C16.6008 13.4165 16.8065 13.912 17.172 14.2776C17.5376 14.6431 18.0331 14.8488 18.55 14.8496C20.359 14.8496 20.5 12.6686 20.5 12.0006C20.5117 10.9139 20.3062 9.83574 19.8957 8.82948C19.4851 7.82322 18.8778 6.90906 18.1093 6.14064C17.3407 5.37221 16.4265 4.76498 15.4202 4.35456C14.4139 3.94414 13.3357 3.7388 12.249 3.75058C10.9574 3.75073 9.6838 4.05417 8.53085 4.63645C7.37789 5.21874 6.37777 6.06361 5.61099 7.10304C4.84421 8.14247 4.33221 9.34742 4.1162 10.6209C3.90019 11.8943 3.98621 13.2007 4.36733 14.4349C4.74845 15.669 5.41403 16.7964 6.31048 17.7263C7.20692 18.6563 8.3092 19.3627 9.52855 19.7888C10.7479 20.2149 12.0503 20.3487 13.3308 20.1795C14.6113 20.0103 15.8342 19.5428 16.901 18.8146C17.0653 18.7021 17.2676 18.6595 17.4633 18.6962C17.659 18.7329 17.8321 18.8458 17.9445 19.0101C18.057 19.1744 18.0996 19.3766 18.0629 19.5723C18.0262 19.768 17.9133 19.9411 17.749 20.0536C16.1294 21.1622 14.2118 21.7539 12.249 21.7506V21.7506Z" fill="black"/>
<path d="M12.2484 16.3484C11.3881 16.3482 10.5472 16.093 9.83196 15.6148C9.11674 15.1367 8.55934 14.4573 8.23025 13.6624C7.90117 12.8675 7.81516 11.9929 7.98312 11.1492C8.15108 10.3054 8.56546 9.53043 9.17385 8.92217C9.78225 8.31391 10.5574 7.89972 11.4011 7.73195C12.2449 7.56419 13.1195 7.65039 13.9143 7.97966C14.7091 8.30893 15.3884 8.86648 15.8664 9.58181C16.3443 10.2971 16.5994 11.1381 16.5994 11.9984C16.5981 13.1519 16.1392 14.2577 15.3235 15.0732C14.5078 15.8888 13.4019 16.3474 12.2484 16.3484V16.3484ZM12.2484 9.14844C11.6848 9.14864 11.1339 9.31595 10.6653 9.62924C10.1968 9.94252 9.83163 10.3877 9.61607 10.9085C9.40052 11.4293 9.34422 12.0023 9.4543 12.5551C9.56438 13.1078 9.8359 13.6156 10.2345 14.014C10.6331 14.4125 11.141 14.6839 11.6938 14.7938C12.2466 14.9036 12.8196 14.8471 13.3403 14.6314C13.861 14.4157 14.3061 14.0504 14.6192 13.5817C14.9323 13.1131 15.0994 12.5621 15.0994 11.9984C15.0984 11.2427 14.7976 10.5183 14.2631 9.984C13.7287 9.44972 13.0041 9.14923 12.2484 9.14844V9.14844Z" fill="black"/>
</svg>