<svg width="25" height="25" viewBox="0 0 25 25" fill="none" xmlns="http://www.w3.org/2000/svg">
<path fill-rule="evenodd" clip-rule="evenodd" d="M12.4365 17.7891C12.9945 17.7891 13.4473 18.2413 13.4473 18.7998C13.4473 19.3576 12.9951 19.8106 12.4365 19.8106C11.8779 19.8106 11.4257 19.3576 11.4257 18.7998C11.4257 18.2413 11.8785 17.7891 12.4365 17.7891Z" fill="black"/>
<path fill-rule="evenodd" clip-rule="evenodd" d="M12.4365 11.7656C12.9945 11.7656 13.4473 12.2179 13.4473 12.7763C13.4473 13.3342 12.9951 13.7872 12.4365 13.7872C11.8779 13.7872 11.4257 13.3342 11.4257 12.7763C11.4257 12.2179 11.8785 11.7656 12.4365 11.7656Z" fill="black"/>
<path fill-rule="evenodd" clip-rule="evenodd" d="M12.4365 5.74609C12.9945 5.74609 13.4473 6.19833 13.4473 6.75679C13.4473 7.31467 12.9951 7.76765 12.4365 7.76765C11.8779 7.76765 11.4257 7.31467 11.4257 6.75679C11.4257 6.19832 11.8785 5.74609 12.4365 5.74609Z" fill="black"/>
</svg>