<svg width="24" height="24" viewBox="0 0 24 24" fill="none" xmlns="http://www.w3.org/2000/svg">
<path fill-rule="evenodd" clip-rule="evenodd" d="M11.25 5C11.25 4.58579 11.5858 4.25 12 4.25H21C21.4142 4.25 21.75 4.58579 21.75 5C21.75 5.41421 21.4142 5.75 21 5.75H12C11.5858 5.75 11.25 5.41421 11.25 5ZM7.53037 7.46971C7.82324 7.76262 7.82321 8.23749 7.53029 8.53037L4.81078 11.2495L21 11.25C21.4142 11.25 21.75 11.5858 21.75 12C21.75 12.4142 21.4142 12.75 21 12.75L4.81054 12.7495L7.53037 15.4697C7.82324 15.7626 7.82321 16.2375 7.53029 16.5304C7.23738 16.8232 6.76251 16.8232 6.46963 16.5303L2.46963 12.5297C2.32899 12.3891 2.24999 12.1983 2.25 11.9994C2.25001 11.8005 2.32904 11.6097 2.46971 11.4691L6.46971 7.46963C6.76262 7.17676 7.23749 7.17679 7.53037 7.46971ZM11.25 19C11.25 18.5858 11.5858 18.25 12 18.25H21C21.4142 18.25 21.75 18.5858 21.75 19C21.75 19.4142 21.4142 19.75 21 19.75H12C11.5858 19.75 11.25 19.4142 11.25 19Z" fill="black"/>
</svg>