<svg width="24" height="24" viewBox="0 0 24 24" fill="none" xmlns="http://www.w3.org/2000/svg">
<path fill-rule="evenodd" clip-rule="evenodd" d="M12.0005 16.7617C11.3055 16.7617 10.7385 17.3267 10.7385 18.0227C10.7385 18.7177 11.3055 19.2827 12.0005 19.2827C12.6955 19.2827 13.2615 18.7177 13.2615 18.0227C13.2615 17.3267 12.6955 16.7617 12.0005 16.7617Z" fill="black"/>
<path fill-rule="evenodd" clip-rule="evenodd" d="M12.0005 10.7402C11.3055 10.7402 10.7385 11.3052 10.7385 12.0012C10.7385 12.6962 11.3055 13.2612 12.0005 13.2612C12.6955 13.2612 13.2615 12.6962 13.2615 12.0012C13.2615 11.3052 12.6955 10.7402 12.0005 10.7402Z" fill="black"/>
<path fill-rule="evenodd" clip-rule="evenodd" d="M12.0005 7.23975C12.6955 7.23975 13.2615 6.67475 13.2615 5.97875C13.2615 5.28375 12.6955 4.71875 12.0005 4.71875C11.3055 4.71875 10.7385 5.28375 10.7385 5.97875C10.7385 6.67475 11.3055 7.23975 12.0005 7.23975Z" fill="black"/>
</svg>