<svg width="25" height="24" viewBox="0 0 25 24" fill="none" xmlns="http://www.w3.org/2000/svg">
<path d="M12.2008 18.0338H12.1368M12.187 18.293C12.043 18.293 11.9263 18.1762 11.9263 18.0322C11.9263 17.8882 12.043 17.7715 12.187 17.7715C12.3311 17.7715 12.4478 17.8882 12.4478 18.0322C12.4478 18.1762 12.3311 18.293 12.187 18.293Z" stroke="black" stroke-width="1.5" stroke-linecap="round" stroke-linejoin="round"/>
<path d="M12.2008 12.0123H12.1368M12.187 12.2716C12.043 12.2716 11.9263 12.1547 11.9263 12.0107C11.9263 11.8667 12.043 11.75 12.187 11.75C12.3311 11.75 12.4478 11.8667 12.4478 12.0107C12.4478 12.1547 12.3311 12.2716 12.187 12.2716Z" stroke="black" stroke-width="1.5" stroke-linecap="round" stroke-linejoin="round"/>
<path d="M12.2008 5.99081H12.1368M12.187 6.25008C12.043 6.25008 11.9263 6.13323 11.9263 5.98922C11.9263 5.8452 12.043 5.72852 12.187 5.72852C12.3311 5.72852 12.4478 5.8452 12.4478 5.98922C12.4478 6.13323 12.3311 6.25008 12.187 6.25008Z" stroke="black" stroke-width="1.5" stroke-linecap="round" stroke-linejoin="round"/>
</svg>