<svg width="24" height="24" viewBox="0 0 24 24" fill="none" xmlns="http://www.w3.org/2000/svg">
<path fill-rule="evenodd" clip-rule="evenodd" d="M20.6208 3.42183C20.9401 3.68566 20.9851 4.1584 20.7213 4.47772L15.9664 10.2328C15.7026 10.5521 15.2298 10.5971 14.9105 10.3332C14.5912 10.0694 14.5462 9.59668 14.81 9.27736L19.5649 3.52232C19.8287 3.20299 20.3014 3.15801 20.6208 3.42183ZM7.92329 7.93416C8.21618 8.22705 8.21618 8.70192 7.92329 8.99482L5.66808 11.25H13.1436C13.3599 11.25 13.5656 11.3434 13.708 11.5062L20.7075 19.5062C20.9803 19.8179 20.9487 20.2917 20.6369 20.5645C20.3252 20.8372 19.8514 20.8056 19.5786 20.4939L12.8032 12.75H5.66808L7.92329 15.0052C8.21618 15.2981 8.21618 15.773 7.92329 16.0659C7.63039 16.3588 7.15552 16.3588 6.86263 16.0659L3.32709 12.5304C3.0342 12.2375 3.0342 11.7626 3.32709 11.4697L6.86263 7.93416C7.15552 7.64126 7.63039 7.64126 7.92329 7.93416Z" fill="black"/>
</svg>