<svg width="25" height="24" viewBox="0 0 25 24" fill="none" xmlns="http://www.w3.org/2000/svg">
<path opacity="0.4" fill-rule="evenodd" clip-rule="evenodd" d="M17.5376 2.86133H7.41556C4.96856 2.86133 2.97656 4.85433 2.97656 7.30233V14.2123C2.97656 16.6603 4.96856 18.6523 7.41556 18.6523H8.48356C8.91756 18.6523 9.34656 18.8293 9.65556 19.1343L11.0776 20.5653L11.0806 20.5683C11.4656 20.9473 11.9706 21.1373 12.4756 21.1373C12.9826 21.1373 13.4896 20.9463 13.8766 20.5653L15.2946 19.1383C15.6076 18.8293 16.0366 18.6523 16.4706 18.6523H17.5376C19.9856 18.6523 21.9766 16.6603 21.9766 14.2123V7.30233C21.9766 4.85433 19.9856 2.86133 17.5376 2.86133Z" fill="black"/>
<path fill-rule="evenodd" clip-rule="evenodd" d="M16.2371 9.2366C15.9538 8.53743 15.4077 8.02791 14.7002 7.80082C14.3138 7.67521 13.895 7.64651 13.4894 7.71472C13.118 7.77669 12.7815 7.99922 12.4987 8.20593C12.2258 8.00795 11.881 7.78168 11.5079 7.71888C11.1057 7.65067 10.6877 7.67895 10.298 7.80082C8.74659 8.30284 8.26869 10.0007 8.70251 11.3504C9.37797 13.5182 12.2874 14.8961 12.4109 14.954C12.4388 14.9669 12.4687 14.9735 12.4991 14.9735C12.5286 14.9735 12.559 14.9669 12.5869 14.954C12.7083 14.8974 15.5749 13.5431 16.2907 11.3533C16.2907 11.3528 16.2907 11.3524 16.2911 11.3524C16.5203 10.6387 16.5008 9.88711 16.2371 9.2366Z" fill="black"/>
</svg>