<?xml version="1.0" encoding="UTF-8"?>
<svg width="24px" height="24px" viewBox="0 0 24 24" version="1.1" xmlns="http://www.w3.org/2000/svg" xmlns:xlink="http://www.w3.org/1999/xlink">
    <title>Iconly/Light-Outline/Message</title>
    <g id="Iconly/Light-Outline/Message" stroke="none" stroke-width="1" fill="none" fill-rule="evenodd">
        <g id="Message" transform="translate(1.000000, 1.000000)" fill="#000000">
            <path d="M15.6589,1 C18.9889,1 21.4999,3.717 21.4999,7.32 L21.4999,14.188 C21.4999,16.032 20.8479,17.698 19.6629,18.88 C18.5999,19.939 17.2209,20.5 15.6749,20.5 L5.8219,20.5 C4.2789,20.5 2.9009,19.94 1.8369,18.88 C0.6519,17.698 -0.0001,16.032 -0.0001,14.188 L-0.0001,7.32 C-0.0001,3.717 2.5109,1 5.8409,1 L15.6589,1 Z M15.6589,2.5 L5.8409,2.5 C3.3259,2.5 1.4999,4.527 1.4999,7.32 L1.4999,14.188 C1.4999,15.631 1.9959,16.92 2.8959,17.817 C3.6719,18.592 4.6849,19 5.8249,19 L15.6589,19 C15.6609,18.998 15.6689,19 15.6749,19 C16.8159,19 17.8279,18.592 18.6039,17.817 C19.5049,16.92 19.9999,15.631 19.9999,14.188 L19.9999,7.32 C19.9999,4.527 18.1739,2.5 15.6589,2.5 Z M17.2349,7.1288 C17.4959,7.4498 17.4469,7.9218 17.1259,8.1838 L12.6819,11.7958 C12.1199,12.2418 11.4479,12.4648 10.7769,12.4648 C10.1079,12.4648 9.4409,12.2438 8.8829,11.8018 L4.3979,8.1858 C4.0749,7.9258 4.0249,7.4528 4.2839,7.1308 C4.5449,6.8098 5.0169,6.7588 5.3389,7.0178 L9.8199,10.6298 C10.3829,11.0758 11.1759,11.0758 11.7429,10.6258 L16.1789,7.0198 C16.5009,6.7568 16.9729,6.8068 17.2349,7.1288 Z" id="Combined-Shape"></path>
        </g>
    </g>
</svg>