<svg width="25" height="25" viewBox="0 0 25 25" fill="none" xmlns="http://www.w3.org/2000/svg">
<path fill-rule="evenodd" clip-rule="evenodd" d="M11.2925 10.7865C12.6125 9.47652 14.3625 8.74652 16.2225 8.74652C17.2207 8.74652 18.1825 8.95763 19.0645 9.35499C19.2291 9.42915 19.4097 9.27413 19.3437 9.10611C18.9302 8.05353 18.2964 7.07049 17.4425 6.21652C15.8225 4.58652 13.6625 3.68652 11.3625 3.68652C9.06246 3.68652 6.90246 4.58652 5.28246 6.21652C2.74246 8.76652 2.04246 12.6765 3.55246 15.9465C3.72246 16.3565 3.86246 16.7165 3.86246 17.0365C3.86246 17.3765 3.72246 17.7865 3.59246 18.1765C3.35246 18.8665 3.11246 19.5865 3.61246 20.0965C4.12246 20.6065 4.84246 20.3565 5.53246 20.1165C5.92246 19.9765 6.32246 19.8465 6.65246 19.8465C6.97246 19.8465 7.33246 19.9865 7.74246 20.1465C8.7406 20.6152 9.9545 20.9731 11.0975 20.9659C11.2801 20.9648 11.3465 20.7341 11.21 20.6128C8.4432 18.1556 8.81681 13.2805 11.2925 10.7865Z" fill="black"/>
<path fill-rule="evenodd" clip-rule="evenodd" d="M21.1877 18.6772C21.1877 18.5172 21.2537 18.3392 21.3587 18.0772C22.2737 16.0942 21.8547 13.7242 20.3147 12.1792C19.3317 11.1922 18.0227 10.6492 16.6297 10.6492C15.2377 10.6492 13.9287 11.1922 12.9457 12.1792C10.9137 14.2172 10.9137 17.5332 12.9457 19.5712C13.9427 20.5732 15.2867 21.1022 16.6437 21.1022C17.3807 21.1022 18.1217 20.9462 18.8137 20.6252C19.0517 20.5282 19.2577 20.4452 19.4237 20.4452C19.6097 20.4462 19.8377 20.5252 20.0587 20.6012C20.4827 20.7462 20.9617 20.9122 21.3057 20.5662C21.6497 20.2212 21.4867 19.7422 21.3427 19.3202C21.2667 19.0962 21.1877 18.8652 21.1877 18.6772Z" fill="black"/>
</svg>