<svg width="25" height="24" viewBox="0 0 25 24" fill="none" xmlns="http://www.w3.org/2000/svg">
<path d="M12.2266 21.3904C11.9339 21.3914 11.6439 21.3342 11.3735 21.222C11.1031 21.1099 10.8577 20.9452 10.6516 20.7374L9.22858 19.3154C9.09813 19.1844 8.94305 19.0806 8.77228 19.0099C8.6015 18.9392 8.41842 18.903 8.23358 18.9034H7.16556C5.92268 18.9005 4.73157 18.4054 3.85281 17.5264C2.97406 16.6475 2.4792 15.4563 2.47656 14.2134V7.29839C2.47789 6.05519 2.97234 4.86329 3.85141 3.98422C4.73048 3.10515 5.92236 2.6107 7.16556 2.60938H17.2876C18.5308 2.6107 19.7227 3.10515 20.6017 3.98422C21.4808 4.86329 21.9752 6.05519 21.9766 7.29839V14.2134C21.9739 15.4563 21.4791 16.6475 20.6003 17.5264C19.7216 18.4054 18.5304 18.9005 17.2876 18.9034H16.2196C16.0339 18.9023 15.8499 18.9382 15.6782 19.0089C15.5065 19.0796 15.3506 19.1838 15.2196 19.3154L13.7976 20.7374C13.5915 20.945 13.3463 21.1097 13.0761 21.2218C12.8059 21.3339 12.5161 21.3912 12.2236 21.3904H12.2266ZM7.16556 4.10938C6.32011 4.11043 5.5096 4.44676 4.91177 5.04459C4.31395 5.64241 3.97762 6.45294 3.97656 7.29839V14.2134C3.97736 15.059 4.31359 15.8698 4.91144 16.4678C5.50929 17.0659 6.31993 17.4023 7.16556 17.4034H8.23358C8.61568 17.4022 8.99421 17.4768 9.34729 17.6229C9.70037 17.769 10.021 17.9836 10.2906 18.2544L11.7116 19.6764C11.8499 19.8089 12.034 19.8829 12.2256 19.8829C12.4171 19.8829 12.6012 19.8089 12.7396 19.6764L14.1626 18.2544C14.4319 17.9835 14.7523 17.7688 15.1053 17.6228C15.4582 17.4767 15.8366 17.4021 16.2186 17.4034H17.2866C18.1322 17.4023 18.9429 17.0659 19.5407 16.4678C20.1386 15.8698 20.4748 15.059 20.4756 14.2134V7.29839C20.4745 6.45294 20.1382 5.64241 19.5404 5.04459C18.9426 4.44676 18.132 4.11043 17.2866 4.10938H7.16556Z" fill="black"/>
<path d="M12.2257 15.0621C12.1006 15.0624 11.9775 15.0311 11.8677 14.9711C11.7557 14.9101 9.11967 13.4561 8.45767 11.3971C8.32331 11.0399 8.26135 10.6594 8.27538 10.278C8.28942 9.8965 8.37916 9.52165 8.53941 9.1752C8.69965 8.82875 8.92719 8.51763 9.20878 8.25993C9.49037 8.00223 9.8204 7.80311 10.1797 7.67413C10.8562 7.45787 11.59 7.51052 12.2287 7.82113C12.864 7.51536 13.5916 7.4621 14.2647 7.67213C14.6248 7.8005 14.9558 7.99929 15.2383 8.25693C15.5209 8.51456 15.7493 8.82588 15.9102 9.17271C16.0711 9.51954 16.1614 9.89494 16.1757 10.277C16.1901 10.6591 16.1282 11.0402 15.9937 11.3981C15.3537 13.4341 12.6997 14.9091 12.5877 14.9701C12.4767 15.031 12.3522 15.0626 12.2257 15.0621ZM9.88566 10.9381C10.3948 11.9884 11.2098 12.8599 12.2237 13.4381C13.2358 12.8597 14.0507 11.9904 14.5627 10.9431C14.6351 10.7728 14.6731 10.5898 14.6743 10.4047C14.6756 10.2196 14.6401 10.0361 14.57 9.8648C14.4999 9.6935 14.3965 9.5378 14.2658 9.40672C14.1351 9.27564 13.9798 9.17177 13.8087 9.10113C13.6174 9.04192 13.4149 9.02864 13.2175 9.06235C13.0201 9.09605 12.8334 9.1758 12.6727 9.29513C12.5428 9.3925 12.3849 9.44513 12.2227 9.44513C12.0604 9.44513 11.9025 9.3925 11.7727 9.29513C11.6123 9.17425 11.4252 9.09363 11.2272 9.06004C11.0291 9.02646 10.826 9.04088 10.6347 9.10213C10.4644 9.17298 10.3098 9.2768 10.1797 9.40761C10.0496 9.53841 9.94672 9.69361 9.87684 9.86432C9.80696 10.035 9.7715 10.2179 9.7725 10.4023C9.7735 10.5868 9.81094 10.7692 9.88267 10.9391L9.88566 10.9381Z" fill="black"/>
</svg>