<svg width="25" height="25" viewBox="0 0 25 25" fill="none" xmlns="http://www.w3.org/2000/svg">
<path d="M8.50831 20.8049C11.8403 22.3511 15.9147 21.7547 18.6649 18.9952C22.176 15.4722 22.1828 9.75397 18.6649 6.22422C15.1539 2.7013 9.44906 2.7013 5.93704 6.22422C3.18775 8.98379 2.59236 13.0719 4.13434 16.4152C4.33183 16.9091 4.48554 17.3074 4.48554 17.693C4.48554 18.7706 3.44945 20.105 4.14018 20.7981C4.83091 21.4912 6.16177 20.4516 7.229 20.4457C7.61328 20.4457 8.01604 20.6058 8.50831 20.8049Z" stroke="black" stroke-width="1.5" stroke-linecap="round" stroke-linejoin="round"/>
<path d="M14.3399 10.5622L10.2597 14.6562M14.3448 14.6613L10.2578 10.5605" stroke="black" stroke-width="1.5" stroke-linecap="round" stroke-linejoin="round"/>
</svg>