<svg width="25" height="25" viewBox="0 0 25 25" fill="none" xmlns="http://www.w3.org/2000/svg">
<path d="M8.50849 21.0196C11.8405 22.5658 15.9148 21.9694 18.665 19.2098C22.176 15.687 22.1828 9.96875 18.665 6.43903C15.154 2.91616 9.44923 2.91616 5.93726 6.43903C3.188 9.19857 2.59262 13.2866 4.13361 16.6299C4.33207 17.1238 4.48578 17.5221 4.48578 17.9077C4.48578 18.9853 3.4497 20.3197 4.14042 21.0128C4.83114 21.7058 6.16102 20.6662 7.2292 20.6604C7.61347 20.6604 8.01623 20.8205 8.50849 21.0196Z" stroke="black" stroke-width="1.5" stroke-linecap="round" stroke-linejoin="round"/>
<path fill-rule="evenodd" clip-rule="evenodd" d="M12.3021 16.4002C12.3021 16.4002 15.3121 15.4856 15.3121 12.9642C15.3121 10.4438 15.421 10.5248 15.1788 10.2798C14.9375 10.0358 12.6971 9.25391 12.3021 9.25391C11.9071 9.25391 9.66569 10.0377 9.42442 10.2798C9.18316 10.5229 9.29212 10.4438 9.29212 12.9642C9.29212 15.4856 12.3021 16.4002 12.3021 16.4002Z" stroke="black" stroke-width="1.5" stroke-linecap="round" stroke-linejoin="round"/>
</svg>