<svg width="25" height="25" viewBox="0 0 25 25" fill="none" xmlns="http://www.w3.org/2000/svg">
<path d="M8.50898 21.0194C11.8405 22.5658 15.9153 21.9693 18.665 19.2093C22.1765 15.686 22.1823 9.96889 18.665 6.43868C15.1535 2.91627 9.44888 2.91627 5.93738 6.43868C3.18773 9.19861 2.59227 13.2863 4.13445 16.629C4.33196 17.124 4.48569 17.5214 4.48569 17.907C4.48569 18.9848 3.44947 20.3194 4.14028 21.0125C4.8311 21.7057 6.16117 20.666 7.2295 20.6601C7.61286 20.6601 8.01665 20.8202 8.50898 21.0194Z" stroke="black" stroke-width="1.5" stroke-linecap="round" stroke-linejoin="round"/>
<path d="M8.31836 11.5415L9.95837 9.95508L11.5973 11.5415" stroke="black" stroke-width="1.5" stroke-linecap="round" stroke-linejoin="round"/>
<path d="M16.2848 14.1113L14.6453 15.6978L13.0059 14.1113" stroke="black" stroke-width="1.5" stroke-linecap="round" stroke-linejoin="round"/>
<path d="M9.95703 9.95508V15.226" stroke="black" stroke-width="1.5" stroke-linecap="round" stroke-linejoin="round"/>
<path d="M14.6445 15.6977V10.4258" stroke="black" stroke-width="1.5" stroke-linecap="round" stroke-linejoin="round"/>
</svg>