<svg width="25" height="25" viewBox="0 0 25 25" fill="none" xmlns="http://www.w3.org/2000/svg">
<path fill-rule="evenodd" clip-rule="evenodd" d="M13.729 13.1792L13.599 13.2522C13.028 13.5742 12.825 13.7352 12.829 13.9992C12.833 14.4132 12.502 14.7532 12.088 14.7592H12.079C11.668 14.7592 11.334 14.4292 11.329 14.0182C11.313 12.8172 12.284 12.2712 12.864 11.9452L12.993 11.8722C13.503 11.5892 13.748 11.2182 13.748 10.7322C13.748 9.93119 13.099 9.28019 12.302 9.28019C11.506 9.28019 10.859 9.93119 10.859 10.7322C10.859 11.1462 10.523 11.4822 10.109 11.4822C9.69498 11.4822 9.35898 11.1462 9.35898 10.7322C9.35898 9.10419 10.679 7.78019 12.302 7.78019C13.926 7.78019 15.248 9.10419 15.248 10.7322C15.248 11.7682 14.708 12.6372 13.729 13.1792ZM12.207 17.0322C12.166 17.0382 12.124 17.0422 12.083 17.0422C11.722 17.0422 11.405 16.7822 11.343 16.4152C11.276 16.0072 11.548 15.6022 11.958 15.5342C12.37 15.4662 12.75 15.7252 12.818 16.1332L12.824 16.1682C12.891 16.5772 12.616 16.9642 12.207 17.0322ZM19.021 5.65719C17.228 3.85819 14.842 2.86719 12.302 2.86719C9.76298 2.86719 7.37698 3.85819 5.58398 5.65719C2.77898 8.47319 2.01398 12.7942 3.67098 16.3862C3.86798 16.8782 3.98798 17.1972 3.98798 17.4782C3.98798 17.8112 3.84598 18.2272 3.70898 18.6292C3.44498 19.4082 3.14398 20.2912 3.78798 20.9372C4.43498 21.5862 5.31898 21.2802 6.09698 21.0122C6.49498 20.8742 6.90598 20.7332 7.23198 20.7312C7.52198 20.7312 7.88798 20.8782 8.31098 21.0492C9.58098 21.6362 10.936 21.9212 12.282 21.9212C14.758 21.9212 17.205 20.9562 19.021 19.1332C22.722 15.4182 22.722 9.37319 19.021 5.65719Z" fill="black"/>
</svg>