<svg width="25" height="25" viewBox="0 0 25 25" fill="none" xmlns="http://www.w3.org/2000/svg">
<g opacity="0.4">
<path fill-rule="evenodd" clip-rule="evenodd" d="M16.0036 15.0743C16.0036 16.3023 15.0076 17.3003 13.7836 17.3003H10.8206C9.59656 17.3003 8.60056 16.3023 8.60056 15.0743V13.4053C8.60056 12.5553 9.08356 11.8243 9.78356 11.4493V10.8523C9.80756 9.46432 10.9006 8.37432 12.2716 8.35832C12.9376 8.34332 13.5786 8.60432 14.0626 9.07532C14.5436 9.54632 14.8136 10.1773 14.8216 10.8503V11.4493C15.5216 11.8253 16.0036 12.5563 16.0036 13.4053V15.0743ZM19.0206 6.08832C17.2276 4.29032 14.8426 3.29932 12.3036 3.29932C9.76356 3.29932 7.37656 4.29032 5.58356 6.08832C2.77756 8.90532 2.01256 13.2263 3.67056 16.8183C3.86156 17.2943 3.98656 17.6273 3.98656 17.9093C3.98656 18.2433 3.84556 18.6583 3.70856 19.0593C3.44356 19.8393 3.14356 20.7223 3.78656 21.3683C4.43256 22.0173 5.31656 21.7113 6.09756 21.4433C6.49456 21.3063 6.90456 21.1643 7.22956 21.1623C7.52256 21.1623 7.90456 21.3163 8.30956 21.4803C9.57856 22.0673 10.9336 22.3523 12.2806 22.3523C14.7576 22.3523 17.2036 21.3873 19.0206 19.5653C22.7236 15.8493 22.7236 9.80332 19.0206 6.08832Z" fill="black"/>
<path fill-rule="evenodd" clip-rule="evenodd" d="M13.7839 12.6792H10.8209C10.4239 12.6792 10.1009 13.0052 10.1009 13.4052V15.0742C10.1009 15.4742 10.4239 15.8002 10.8209 15.8002H13.7839C14.1799 15.8002 14.5039 15.4742 14.5039 15.0742V13.4052C14.5039 13.0052 14.1799 12.6792 13.7839 12.6792Z" fill="black"/>
<path fill-rule="evenodd" clip-rule="evenodd" d="M13.322 11.1792V10.8602C13.318 10.5962 13.209 10.3392 13.013 10.1482C12.819 9.95823 12.553 9.85123 12.291 9.85823C11.735 9.86523 11.294 10.3072 11.284 10.8662V11.1792H13.322Z" fill="black"/>
</g>
<path fill-rule="evenodd" clip-rule="evenodd" d="M16.0036 15.0743C16.0036 16.3023 15.0076 17.3003 13.7836 17.3003H10.8206C9.59659 17.3003 8.60059 16.3023 8.60059 15.0743V13.4053C8.60059 12.5553 9.08359 11.8243 9.78359 11.4493V10.8523C9.80759 9.46428 10.9006 8.37428 12.2716 8.35828C12.9376 8.34328 13.5786 8.60428 14.0626 9.07528C14.5436 9.54628 14.8136 10.1773 14.8216 10.8503V11.4493C15.5216 11.8253 16.0036 12.5563 16.0036 13.4053V15.0743ZM13.322 10.8602V11.1792H11.284V10.8662C11.294 10.3072 11.735 9.86523 12.291 9.85823C12.553 9.85123 12.819 9.95823 13.013 10.1482C13.209 10.3392 13.318 10.5962 13.322 10.8602ZM10.8209 12.6792H13.7839C14.1799 12.6792 14.5039 13.0052 14.5039 13.4052V15.0742C14.5039 15.4742 14.1799 15.8002 13.7839 15.8002H10.8209C10.4239 15.8002 10.1009 15.4742 10.1009 15.0742V13.4052C10.1009 13.0052 10.4239 12.6792 10.8209 12.6792Z" fill="black"/>
</svg>