<svg width="25" height="24" viewBox="0 0 25 24" fill="none" xmlns="http://www.w3.org/2000/svg">
<path d="M21.589 10.2849C20.9177 6.70834 18.0417 3.8323 14.4651 3.16097C8.77139 2.09267 3.75 6.48846 3.75 12.0002C3.75 13.4198 4.0954 14.7712 4.66652 15.9922C4.76284 16.1975 4.793 16.4262 4.74435 16.648C4.58868 17.3612 4.2608 18.7875 4.02437 19.813C3.89886 20.3559 4.39117 20.8375 4.93213 20.7013C5.88368 20.462 7.19132 20.136 8.00179 19.9453C8.24016 19.8889 8.48048 19.9268 8.69939 20.0368C9.93115 20.6595 11.34 21 12.7498 21C17.1214 21 20.7909 17.8412 21.589 13.6936" stroke="black" stroke-width="1.5" stroke-linecap="round" stroke-linejoin="round"/>
<path d="M11.1067 9.58398L13.8466 11.525L16.7119 10.0695L14.1638 14.4127L11.4239 12.4727L8.55859 13.9272L9.83267 11.7556" stroke="black" stroke-width="1.5" stroke-linecap="round" stroke-linejoin="round"/>
</svg>