<svg width="25" height="25" viewBox="0 0 25 25" fill="none" xmlns="http://www.w3.org/2000/svg">
<path opacity="0.4" d="M12.7763 21.2073C15.3261 21.2161 17.8787 20.1447 19.6972 17.9874C22.418 14.7607 22.5036 9.91623 19.8907 6.60072C16.4891 2.28412 10.2062 2.01287 6.44288 5.78892C3.69186 8.54924 3.0977 12.6375 4.63901 15.9813C4.76737 16.3014 5.26429 17.1844 5.59783 17.764C5.78746 18.0938 5.76801 18.5016 5.54921 18.8119C5.32944 19.1212 5.05132 19.5183 4.83447 19.8452C4.44647 20.4267 4.85878 21.2073 5.55699 21.2073L6.09831 21.2071C8.47253 21.2061 11.9491 21.2046 12.7763 21.2073Z" stroke="black" stroke-width="1.5" stroke-linecap="round" stroke-linejoin="round"/>
<path d="M14.4132 13.8695L15.9749 15.4345M12.4752 8.91797C14.0486 8.91797 15.3235 10.1981 15.3235 11.7759C15.3235 13.3546 14.0486 14.6338 12.4752 14.6338C10.9018 14.6338 9.62695 13.3546 9.62695 11.7759C9.62695 10.1981 10.9018 8.91797 12.4752 8.91797Z" stroke="black" stroke-width="1.5" stroke-linecap="round" stroke-linejoin="round"/>
</svg>