<svg width="25" height="24" viewBox="0 0 25 24" fill="none" xmlns="http://www.w3.org/2000/svg">
<path opacity="0.4" d="M12.4521 20.9999C15.0019 21.0087 17.5545 19.941 19.3729 17.7909C22.0938 14.5751 22.1794 9.74693 19.5665 6.44259C16.1649 2.14054 9.88198 1.8702 6.11866 5.63353C3.36764 8.38455 2.77348 12.459 4.31479 15.7916C4.44315 16.1105 4.94007 16.9906 5.27361 17.5682C5.46324 17.8969 5.44379 18.3034 5.22499 18.6126C5.00522 18.9209 4.7271 19.3167 4.51025 19.6424C4.12225 20.222 4.53456 20.9999 5.23277 20.9999L5.77486 20.9997C8.14841 20.9987 11.625 20.9972 12.4521 20.9999Z" stroke="black" stroke-width="1.5" stroke-linecap="round" stroke-linejoin="round"/>
<path fill-rule="evenodd" clip-rule="evenodd" d="M9.42517 12.1777C9.06634 11.0565 9.48546 9.7748 10.6621 9.39652C11.2815 9.19815 11.9584 9.31192 12.4786 9.70187C12.9998 9.31581 13.6737 9.20203 14.2922 9.39652C15.4688 9.7748 15.8919 11.0565 15.5321 12.1777C14.9739 13.9534 12.4786 15.3225 12.4786 15.3225C12.4786 15.3225 10.0028 13.9747 9.42517 12.1777Z" stroke="black" stroke-width="1.5" stroke-linecap="round" stroke-linejoin="round"/>
</svg>