<svg width="25" height="25" viewBox="0 0 25 25" fill="none" xmlns="http://www.w3.org/2000/svg">
<path fill-rule="evenodd" clip-rule="evenodd" d="M6.71856 6.53637C9.93699 3.30813 15.1653 3.30819 18.3837 6.53654L6.71856 6.53637ZM18.3837 6.53654C21.609 9.77382 21.6036 15.0173 18.3836 18.2483L18.3835 18.2483C15.864 20.7773 12.1299 21.3256 9.07461 19.9074C9.06323 19.9021 9.05172 19.8971 9.04009 19.8924C9.02413 19.886 9.00804 19.8795 8.99185 19.8729C8.54842 19.6932 8.01833 19.4784 7.47937 19.4784L7.47525 19.4784C7.09758 19.4805 6.73065 19.5723 6.42358 19.6663C6.26667 19.7143 6.11181 19.7674 5.9702 19.8162L5.94103 19.8263C5.807 19.8725 5.68574 19.9143 5.56784 19.9514C5.30498 20.0342 5.13183 20.069 5.01375 20.069C4.96196 20.0691 4.93877 20.062 4.93294 20.0598C4.93273 20.0598 4.93252 20.0597 4.93232 20.0596C4.93027 20.0589 4.92812 20.0582 4.92137 20.0514C4.91438 20.0444 4.91353 20.042 4.91251 20.0391L4.91231 20.0386C4.90988 20.0318 4.90268 20.0076 4.90268 19.9548C4.90268 19.8347 4.9376 19.6598 5.01992 19.3952C5.05622 19.2785 5.09691 19.1588 5.1418 19.0267L5.15427 18.99C5.20272 18.8474 5.25527 18.6916 5.30274 18.5335C5.3957 18.224 5.48556 17.8551 5.48556 17.4753C5.48556 16.9326 5.27602 16.408 5.09548 15.956C5.0906 15.9437 5.08573 15.9315 5.0809 15.9194C5.07602 15.9072 5.07083 15.8951 5.06533 15.8832C3.64985 12.8151 4.19814 9.06636 6.7184 6.53654M5.65609 5.47753C9.46067 1.66114 15.6414 1.66114 19.446 5.47753L19.4461 5.47767C23.2553 9.3008 23.249 15.4912 19.4462 19.307C16.4712 22.2931 12.065 22.9405 8.46059 21.2761C7.94201 21.0666 7.68683 20.979 7.48134 20.9784C7.32517 20.9796 7.12583 21.02 6.86266 21.1006C6.73385 21.14 6.60184 21.1851 6.45896 21.2344L6.426 21.2457C6.29633 21.2904 6.15657 21.3386 6.01854 21.3821C5.72899 21.4733 5.37332 21.5689 5.01433 21.569C4.62851 21.5692 4.2054 21.458 3.85892 21.1103C3.51276 20.763 3.40268 20.3398 3.40268 19.9548C3.40268 19.596 3.49729 19.2399 3.58766 18.9495C3.63009 18.8132 3.67709 18.6749 3.72079 18.5464C3.72522 18.5334 3.72961 18.5204 3.73396 18.5076C3.78266 18.3642 3.82726 18.2315 3.86614 18.1021C3.94588 17.8366 3.98556 17.6345 3.98556 17.4753C3.98556 17.2639 3.90106 17.0109 3.69484 16.4932C2.03663 12.8793 2.68207 8.46267 5.65593 5.47769L5.65609 5.47753Z" fill="black"/>
</svg>