<svg width="25" height="25" viewBox="0 0 25 25" fill="none" xmlns="http://www.w3.org/2000/svg">
<path fill-rule="evenodd" clip-rule="evenodd" d="M18.665 18.9738C15.9153 21.7244 11.8405 22.3189 8.50898 20.7777C8.01665 20.5792 7.61286 20.4196 7.2295 20.4196C6.16117 20.4255 4.8311 21.4617 4.14028 20.7709C3.44947 20.08 4.48569 18.75 4.48569 17.6758C4.48569 17.2915 4.33196 16.8955 4.13445 16.4022C2.59227 13.0707 3.18773 8.99679 5.93738 6.24617C9.44888 2.73565 15.1535 2.73565 18.665 6.24617C22.1823 9.76448 22.1765 15.4623 18.665 18.9738Z" stroke="black" stroke-width="1.5" stroke-linecap="round" stroke-linejoin="round"/>
<path d="M16.3018 12.8828V12.9526M16.5846 12.8978C16.5846 13.0549 16.4572 13.1823 16.3 13.1823C16.1429 13.1823 16.0156 13.0549 16.0156 12.8978C16.0156 12.7407 16.1429 12.6133 16.3 12.6133C16.4572 12.6133 16.5846 12.7407 16.5846 12.8978Z" stroke="black" stroke-width="1.5" stroke-linecap="round" stroke-linejoin="round"/>
<path d="M12.2959 12.8828V12.9526M12.5788 12.8978C12.5788 13.0549 12.4513 13.1823 12.2942 13.1823C12.1371 13.1823 12.0098 13.0549 12.0098 12.8978C12.0098 12.7407 12.1371 12.6133 12.2942 12.6133C12.4513 12.6133 12.5788 12.7407 12.5788 12.8978Z" stroke="black" stroke-width="1.5" stroke-linecap="round" stroke-linejoin="round"/>
<path d="M8.29007 12.8828V12.9526M8.57293 12.8978C8.57293 13.0549 8.44545 13.1823 8.28833 13.1823C8.13121 13.1823 8.00391 13.0549 8.00391 12.8978C8.00391 12.7407 8.13121 12.6133 8.28833 12.6133C8.44545 12.6133 8.57293 12.7407 8.57293 12.8978Z" stroke="black" stroke-width="1.5" stroke-linecap="round" stroke-linejoin="round"/>
</svg>