<svg width="25" height="24" viewBox="0 0 25 24" fill="none" xmlns="http://www.w3.org/2000/svg">
<path fill-rule="evenodd" clip-rule="evenodd" d="M14.055 9.64696C13.673 9.52296 13.249 9.59496 12.922 9.83596C12.654 10.035 12.291 10.032 12.026 9.83196C11.811 9.66896 11.55 9.58496 11.284 9.58496C11.156 9.58496 11.026 9.60496 10.9 9.64596C10.595 9.74296 10.369 9.93196 10.224 10.211C10.041 10.567 10.014 11.034 10.152 11.462C10.486 12.502 11.727 13.47 12.475 13.949C13.23 13.464 14.479 12.488 14.798 11.467C14.938 11.035 14.91 10.568 14.728 10.213C14.583 9.93296 14.357 9.74296 14.055 9.64696Z" fill="black"/>
<path fill-rule="evenodd" clip-rule="evenodd" d="M16.2278 11.9223C15.5918 13.9513 12.9498 15.4193 12.8378 15.4803C12.7258 15.5413 12.6018 15.5723 12.4778 15.5723C12.3538 15.5723 12.2308 15.5423 12.1188 15.4823C12.0078 15.4213 9.38379 13.9753 8.72479 11.9213C8.46279 11.1103 8.52379 10.2353 8.89179 9.52434C9.21579 8.89534 9.76779 8.43134 10.4428 8.21734C11.1198 7.99834 11.8508 8.05434 12.4808 8.35934C13.1118 8.05734 13.8408 8.00034 14.5118 8.21834C15.1838 8.43134 15.7358 8.89634 16.0608 9.52634C16.4278 10.2373 16.4898 11.1103 16.2278 11.9223ZM21.0918 10.3133C20.6918 6.27634 17.4958 3.01334 13.4888 2.55534C11.0968 2.28934 8.79179 2.98834 6.99779 4.52134C5.10579 6.13634 3.95179 8.54434 3.82979 11.1293C3.58779 16.3053 7.79179 20.2463 12.0718 21.4643C12.1618 21.4893 12.2518 21.5013 12.3408 21.5013C12.5558 21.5013 12.7658 21.4313 12.9438 21.2973C13.1998 21.1033 13.3458 20.8063 13.3458 20.4833L13.3448 19.0053C13.3448 19.0063 13.3548 19.0013 13.3648 18.9983C18.3578 18.3893 21.5358 14.8183 21.0918 10.3133Z" fill="black"/>
</svg>