<svg width="25" height="25" viewBox="0 0 25 25" fill="none" xmlns="http://www.w3.org/2000/svg">
<path fill-rule="evenodd" clip-rule="evenodd" d="M6.71856 6.75316C9.93694 3.52498 15.1652 3.52499 18.3835 6.75319L6.71856 6.75316ZM18.3835 6.75319C21.609 9.99044 21.6037 15.2341 18.3836 18.465L18.3835 18.4651C15.864 20.9941 12.1299 21.5424 9.07461 20.1242C9.06323 20.1189 9.05172 20.1139 9.04009 20.1092C9.02413 20.1027 9.00804 20.0962 8.99184 20.0896C8.54842 19.91 8.01833 19.6952 7.47937 19.6952L7.47525 19.6952C7.09758 19.6973 6.73065 19.789 6.42358 19.8831C6.26667 19.9311 6.11182 19.9842 5.9702 20.033L5.94103 20.043C5.80701 20.0892 5.68574 20.131 5.56784 20.1682C5.30498 20.251 5.13183 20.2858 5.01375 20.2858C4.96196 20.2858 4.93877 20.2787 4.93294 20.2766C4.93273 20.2765 4.93252 20.2765 4.93232 20.2764C4.93027 20.2757 4.92812 20.275 4.92137 20.2682C4.91438 20.2612 4.91353 20.2588 4.91251 20.2559L4.91231 20.2553C4.90988 20.2486 4.90268 20.2244 4.90268 20.1715C4.90268 20.0515 4.9376 19.8765 5.01992 19.6119C5.05622 19.4953 5.09692 19.3755 5.14181 19.2435L5.15427 19.2068C5.20272 19.0642 5.25527 18.9084 5.30274 18.7503C5.3957 18.4408 5.48556 18.0719 5.48556 17.6921C5.48556 17.1494 5.27602 16.6247 5.09548 16.1727C5.0906 16.1605 5.08573 16.1483 5.08089 16.1362C5.07602 16.124 5.07083 16.1119 5.06533 16.1C3.64985 13.0318 4.19814 9.28314 6.7184 6.75333M5.65609 5.69432C9.46067 1.87794 15.6414 1.87794 19.446 5.69432L19.4461 5.69446C23.2553 9.51758 23.249 15.708 19.4462 19.5238C16.4712 22.5098 12.065 23.1573 8.46056 21.4928C7.942 21.2834 7.68683 21.1957 7.48134 21.1952C7.32517 21.1964 7.12583 21.2368 6.86266 21.3173C6.73385 21.3568 6.60184 21.4019 6.45896 21.4511L6.42603 21.4625C6.29635 21.5072 6.15658 21.5554 6.01854 21.5989C5.72899 21.6901 5.37332 21.7857 5.01433 21.7858C4.62851 21.7859 4.2054 21.6747 3.85892 21.3271C3.51276 20.9797 3.40268 20.5566 3.40268 20.1715C3.40268 19.8127 3.49729 19.4567 3.58766 19.1663C3.63009 19.0299 3.6771 18.8917 3.7208 18.7631C3.72522 18.7501 3.72961 18.7372 3.73396 18.7244C3.78266 18.581 3.82726 18.4483 3.86614 18.3188C3.94588 18.0533 3.98556 17.8512 3.98556 17.6921C3.98556 17.4807 3.90106 17.2277 3.69484 16.71C2.03663 13.0961 2.68207 8.67945 5.65593 5.69448L5.65609 5.69432Z" fill="black"/>
<path fill-rule="evenodd" clip-rule="evenodd" d="M12.398 9.22972C12.6908 9.52277 12.6905 9.99764 12.3975 10.2904L10.0748 12.6106L12.3976 14.9317C12.6906 15.2244 12.6907 15.6993 12.398 15.9923C12.1052 16.2853 11.6303 16.2855 11.3373 15.9927L8.48353 13.141C8.34275 13.0003 8.26365 12.8094 8.26367 12.6104C8.26369 12.4114 8.34282 12.2205 8.48362 12.0799L11.3374 9.22915C11.6304 8.93642 12.1053 8.93667 12.398 9.22972Z" fill="black"/>
<path fill-rule="evenodd" clip-rule="evenodd" d="M8.26367 12.6113C8.26367 12.1971 8.59946 11.8613 9.01367 11.8613H16.0892C16.5034 11.8613 16.8392 12.1971 16.8392 12.6113C16.8392 13.0255 16.5034 13.3613 16.0892 13.3613H9.01367C8.59946 13.3613 8.26367 13.0255 8.26367 12.6113Z" fill="black"/>
</svg>