<svg width="25" height="25" viewBox="0 0 25 25" fill="none" xmlns="http://www.w3.org/2000/svg">
<path d="M12.5248 22.1729C11.1198 22.1741 9.73135 21.8697 8.45573 21.2809C8.14675 21.1294 7.81557 21.0281 7.47471 20.9809C7.11321 21.0198 6.75903 21.1097 6.42271 21.2479C5.65671 21.5109 4.6107 21.8719 3.8527 21.1139C3.0947 20.3559 3.44172 19.3549 3.71672 18.5489C3.85542 18.2063 3.94436 17.8457 3.98075 17.4779C3.93711 17.1302 3.83567 16.7922 3.6807 16.4779C2.85362 14.6612 2.59901 12.6358 2.95072 10.671C3.30243 8.70613 4.24386 6.89486 5.64976 5.47789C6.55415 4.57052 7.62874 3.85056 8.81193 3.35933C9.99512 2.86809 11.2636 2.61523 12.5447 2.61523C13.8258 2.61523 15.0944 2.86809 16.2776 3.35933C17.4608 3.85056 18.5353 4.57052 19.4397 5.47789C20.8079 6.84517 21.7398 8.58759 22.1173 10.4846C22.4949 12.3817 22.3012 14.3481 21.5608 16.1351C20.8203 17.922 19.5665 19.4492 17.9578 20.5232C16.3491 21.5973 14.458 22.17 12.5237 22.1689L12.5248 22.1729ZM7.47172 19.4829C8.01466 19.5188 8.54547 19.6597 9.03471 19.8979C9.04648 19.9018 9.05786 19.9068 9.06871 19.9129C10.8333 20.7264 12.8279 20.8931 14.703 20.3836C16.5782 19.8741 18.2142 18.721 19.3244 17.1263C20.4347 15.5316 20.9484 13.5971 20.7755 11.6617C20.6026 9.7263 19.7541 7.91348 18.3787 6.54088C17.6137 5.77334 16.7047 5.16437 15.7038 4.74884C14.703 4.33331 13.6299 4.11942 12.5462 4.11942C11.4626 4.11942 10.3895 4.33331 9.38865 4.74884C8.38779 5.16437 7.47876 5.77334 6.71372 6.54088C5.52063 7.74564 4.72309 9.28543 4.42741 10.955C4.13173 12.6246 4.35197 14.3447 5.05876 15.8859C5.29996 16.385 5.44321 16.9258 5.48075 17.4789C5.45052 18.012 5.33436 18.5368 5.13676 19.0329C5.03676 19.3109 4.82075 19.9609 4.91575 20.0559C5.01075 20.1509 5.65472 19.9259 5.93272 19.8309C6.42371 19.633 6.94336 19.5155 7.47172 19.4829Z" fill="black"/>
<path d="M15.1227 13.1484H9.9707C9.77179 13.1484 9.58102 13.0694 9.44037 12.9288C9.29972 12.7881 9.2207 12.5973 9.2207 12.3984C9.2207 12.1995 9.29972 12.0088 9.44037 11.8681C9.58102 11.7275 9.77179 11.6484 9.9707 11.6484H15.1227C15.3217 11.6484 15.5124 11.7275 15.6531 11.8681C15.7937 12.0088 15.8727 12.1995 15.8727 12.3984C15.8727 12.5973 15.7937 12.7881 15.6531 12.9288C15.5124 13.0694 15.3217 13.1484 15.1227 13.1484Z" fill="black"/>
</svg>