<svg width="25" height="25" viewBox="0 0 25 25" fill="none" xmlns="http://www.w3.org/2000/svg">
<path fill-rule="evenodd" clip-rule="evenodd" d="M15.8405 13.3635H10.5775L12.1485 14.9345C12.4415 15.2265 12.4415 15.7015 12.1485 15.9945C12.0025 16.1415 11.8105 16.2145 11.6185 16.2145C11.4265 16.2145 11.2345 16.1415 11.0885 15.9945L8.23754 13.1455C8.16754 13.0765 8.11154 12.9935 8.07254 12.9005C8.04454 12.8315 8.03554 12.7555 8.02854 12.6805C8.02654 12.6575 8.01454 12.6375 8.01454 12.6135V12.6125C8.01454 12.5115 8.03554 12.4135 8.07354 12.3225C8.09454 12.2735 8.13154 12.2345 8.16254 12.1905C8.18754 12.1545 8.20354 12.1135 8.23554 12.0815L11.0885 9.23147C11.3805 8.93947 11.8565 8.93847 12.1495 9.23247C12.4415 9.52547 12.4415 10.0005 12.1485 10.2935L10.5755 11.8635H15.8405C16.2545 11.8635 16.5905 12.1995 16.5905 12.6135C16.5905 13.0275 16.2545 13.3635 15.8405 13.3635ZM19.0205 5.87347C17.2275 4.07447 14.8415 3.08447 12.3015 3.08447C9.76254 3.08447 7.37754 4.07547 5.58454 5.87347C2.77854 8.68947 2.01354 13.0105 3.67154 16.6025C3.86754 17.0945 3.98654 17.4135 3.98654 17.6945C3.98654 18.0285 3.84554 18.4435 3.70954 18.8455C3.44454 19.6245 3.14454 20.5075 3.78654 21.1525C4.43554 21.8035 5.31854 21.4965 6.09854 21.2275C6.49554 21.0915 6.90554 20.9495 7.23054 20.9475C7.52254 20.9475 7.88754 21.0945 8.31154 21.2655C9.57954 21.8525 10.9355 22.1375 12.2815 22.1375C14.7585 22.1375 17.2045 21.1725 19.0205 19.3495C22.7225 15.6345 22.7225 9.58947 19.0205 5.87347Z" fill="black"/>
</svg>