<svg width="25" height="25" viewBox="0 0 25 25" fill="none" xmlns="http://www.w3.org/2000/svg">
<path d="M12.2232 22.1733C10.8183 22.1741 9.4299 21.8698 8.15417 21.2813C7.84524 21.1296 7.51411 21.0284 7.17321 20.9813C6.81161 21.0197 6.45736 21.1096 6.12121 21.2483C5.35721 21.5113 4.30921 21.8753 3.55321 21.1133C2.79721 20.3513 3.14017 19.3553 3.41417 18.5493C3.55314 18.2068 3.64239 17.8461 3.67919 17.4783C3.63443 17.1308 3.5331 16.793 3.3792 16.4783C2.55145 14.6619 2.29627 12.6365 2.64763 10.6716C2.999 8.70666 3.94024 6.89525 5.34618 5.47829C6.24908 4.56748 7.32409 3.84532 8.50866 3.35381C9.69323 2.8623 10.9637 2.61125 12.2462 2.61528C13.5277 2.6121 14.797 2.86356 15.9805 3.35504C17.1639 3.84653 18.238 4.56825 19.1402 5.47829C20.5086 6.84549 21.4406 8.58794 21.8182 10.4851C22.1958 12.3822 22.0021 14.3488 21.2615 16.1358C20.5209 17.9227 19.2667 19.4498 17.6578 20.5237C16.0489 21.5975 14.1576 22.1699 12.2232 22.1683V22.1733ZM7.16918 19.4833C7.71246 19.5191 8.24366 19.66 8.73321 19.8983C8.74497 19.9023 8.75634 19.9073 8.7672 19.9133C10.5318 20.7268 12.5264 20.8934 14.4015 20.384C16.2767 19.8745 17.9127 18.7214 19.0229 17.1267C20.1332 15.532 20.6468 13.5975 20.4739 11.6621C20.301 9.7267 19.4526 7.91388 18.0772 6.54128C17.3138 5.77145 16.405 5.16101 15.4037 4.74539C14.4023 4.32978 13.3284 4.1173 12.2442 4.12029C11.1599 4.11726 10.0859 4.32983 9.08452 4.74562C8.08315 5.16142 7.17441 5.77214 6.41118 6.54228C5.21829 7.74719 4.42105 9.28711 4.12572 10.9567C3.83039 12.6263 4.05099 14.3463 4.75817 15.8873C4.99785 16.3869 5.14043 16.9275 5.17821 17.4803C5.14791 18.0131 5.03175 18.5375 4.83422 19.0333C4.73422 19.3113 4.51819 19.9613 4.61419 20.0573C4.71019 20.1533 5.35422 19.9263 5.63122 19.8323C6.12177 19.634 6.64108 19.5161 7.16918 19.4833Z" fill="black"/>
<path d="M9.22974 16.9475C9.05019 16.9472 8.87665 16.8826 8.74072 16.7653C8.60479 16.648 8.51546 16.4858 8.48895 16.3082C8.46244 16.1306 8.50051 15.9494 8.59625 15.7975C8.692 15.6456 8.83909 15.5331 9.01074 15.4805C9.85282 15.2307 10.6342 14.8096 11.3057 14.2435C10.8761 13.7704 10.5035 13.2485 10.1957 12.6885C10.1483 12.6021 10.1184 12.5073 10.1076 12.4094C10.0968 12.3114 10.1055 12.2124 10.133 12.1178C10.1605 12.0232 10.2064 11.935 10.2681 11.8582C10.3297 11.7813 10.4058 11.7174 10.4922 11.67C10.5785 11.6226 10.6734 11.5926 10.7713 11.5819C10.8692 11.5711 10.9683 11.5797 11.0629 11.6073C11.1574 11.6348 11.2457 11.6807 11.3225 11.7423C11.3994 11.804 11.4633 11.8801 11.5107 11.9665C11.7381 12.3824 12.0082 12.7735 12.3167 13.1335C12.8687 12.3412 13.252 11.444 13.4427 10.4975H8.92773C8.72882 10.4975 8.53805 10.4184 8.3974 10.2778C8.25675 10.1371 8.17773 9.94638 8.17773 9.74747C8.17773 9.54855 8.25675 9.35778 8.3974 9.21713C8.53805 9.07648 8.72882 8.99747 8.92773 8.99747H11.4947V8.60547C11.4947 8.40656 11.5737 8.21579 11.7144 8.07513C11.855 7.93448 12.0458 7.85547 12.2447 7.85547C12.4436 7.85547 12.6344 7.93448 12.775 8.07513C12.9157 8.21579 12.9947 8.40656 12.9947 8.60547V8.99947H15.5607C15.7596 8.99947 15.9504 9.07848 16.0911 9.21913C16.2317 9.35978 16.3107 9.55055 16.3107 9.74947C16.3107 9.94838 16.2317 10.1391 16.0911 10.2798C15.9504 10.4204 15.7596 10.4995 15.5607 10.4995H14.9767C14.8577 11.2027 14.6564 11.8894 14.3767 12.5455C14.131 13.1122 13.8213 13.649 13.4537 14.1455C14.0006 14.5118 14.6111 14.773 15.2537 14.9155C15.4479 14.959 15.6167 15.0778 15.7233 15.2458C15.8298 15.4139 15.8652 15.6173 15.8217 15.8115C15.7782 16.0056 15.6594 16.1745 15.4913 16.281C15.3233 16.3876 15.1199 16.423 14.9257 16.3795C14.0273 16.1802 13.1792 15.7991 12.4337 15.2595C11.5723 16.0243 10.5533 16.5903 9.44873 16.9175C9.37758 16.9381 9.30381 16.9482 9.22974 16.9475Z" fill="black"/>
</svg>