<svg width="25" height="25" viewBox="0 0 25 25" fill="none" xmlns="http://www.w3.org/2000/svg">
<path d="M9.18359 9.74173H15.8174M12.5007 8.59766V9.74185M11.1087 12.3216C11.7207 13.4346 13.004 15.1138 15.347 15.639M14.5414 9.74173C14.6007 9.86474 14.3001 14.7149 9.48575 16.192" stroke="black" stroke-width="1.5" stroke-linecap="round" stroke-linejoin="round"/>
<path d="M6.1366 6.00703C9.6481 2.48463 15.3527 2.48463 18.8642 6.00703C22.3815 9.53724 22.3757 15.2543 18.8642 18.7777C16.1145 21.5376 12.0397 22.1341 8.7082 20.5877C8.21587 20.3885 7.81208 20.2284 7.42872 20.2284C6.36039 20.2343 5.03032 21.274 4.3395 20.5809C3.64868 19.8877 4.68491 18.5531 4.68491 17.4753C4.68491 17.0897 4.53118 16.6924 4.33366 16.1974C3.23924 13.8252 3.22138 11.0778 4.28597 8.69604" stroke="black" stroke-width="1.5" stroke-linecap="round" stroke-linejoin="round"/>
</svg>