<svg width="25" height="25" viewBox="0 0 25 25" fill="none" xmlns="http://www.w3.org/2000/svg">
<path d="M8.50898 20.5877C11.8405 22.1341 15.9153 21.5376 18.665 18.7777C22.1765 15.2543 22.1823 9.53724 18.665 6.00703C15.1535 2.48463 9.44888 2.48463 5.93738 6.00703C3.18773 8.76696 2.59227 12.8546 4.13445 16.1974C4.33196 16.6924 4.48569 17.0897 4.48569 17.4753C4.48569 18.5531 3.44947 19.8877 4.14028 20.5809C4.8311 21.274 6.16117 20.2343 7.2295 20.2284C7.61286 20.2284 8.01665 20.3885 8.50898 20.5877Z" stroke="black" stroke-width="1.5" stroke-linecap="round" stroke-linejoin="round"/>
<path d="M12.0762 16.2539L12.082 16.2891" stroke="black" stroke-width="1.5" stroke-linecap="round" stroke-linejoin="round"/>
<path d="M12.0767 14.0062C12.066 13.1852 12.8104 12.8376 13.364 12.5203C14.0383 12.1474 14.4956 11.5528 14.4956 10.7288C14.4956 9.50752 13.5109 8.52734 12.3015 8.52734C11.0843 8.52734 10.1074 9.50752 10.1074 10.7288" stroke="black" stroke-width="1.5" stroke-linecap="round" stroke-linejoin="round"/>
</svg>