<svg width="25" height="25" viewBox="0 0 25 25" fill="none" xmlns="http://www.w3.org/2000/svg">
<path fill-rule="evenodd" clip-rule="evenodd" d="M16.219 14.8649C15.52 16.4609 13.941 17.4919 12.195 17.4919C10.448 17.4919 8.86698 16.4609 8.16798 14.8649C8.00198 14.4859 8.17498 14.0429 8.55498 13.8769C8.93098 13.7099 9.37598 13.8829 9.54298 14.2629C10.002 15.3129 11.043 15.9919 12.195 15.9919C13.345 15.9919 14.385 15.3129 14.844 14.2629C15.011 13.8829 15.453 13.7099 15.832 13.8769C16.212 14.0429 16.385 14.4859 16.219 14.8649ZM19.774 7.07491C18.082 4.92691 15.56 3.60391 12.854 3.44591C10.144 3.28991 7.49298 4.29991 5.57898 6.21991C2.77398 9.03491 2.00798 13.3559 3.66398 16.9489C3.77398 17.2229 4.10698 17.8449 4.65598 18.7979C4.74798 18.9589 4.73898 19.1539 4.63098 19.3059C4.40798 19.6199 4.12698 20.0219 3.90898 20.3509C3.62598 20.7759 3.59998 21.3189 3.83998 21.7689C4.07898 22.2149 4.54098 22.4909 5.04498 22.4909H5.04698L5.65798 22.4899C8.02998 22.4899 11.446 22.4879 12.266 22.4909H12.299C15.1 22.4909 17.749 21.2539 19.571 19.0939C22.468 15.6569 22.554 10.6019 19.774 7.07491Z" fill="black"/>
</svg>