<svg width="25" height="24" viewBox="0 0 25 24" fill="none" xmlns="http://www.w3.org/2000/svg">
<path d="M9.18476 20.1654C12.5163 21.7066 16.5911 21.1121 19.3408 18.3615C22.8522 14.85 22.8581 9.1512 19.3408 5.63387C15.8293 2.12335 10.1247 2.12335 6.61316 5.63387C3.86352 8.38449 3.26805 12.4584 4.81023 15.7899C5.00774 16.2832 5.16147 16.6792 5.16147 17.0635C5.16147 18.1377 4.12525 19.4677 4.81607 20.1586C5.50688 20.8494 6.83695 19.8131 7.90529 19.8063C8.28864 19.8073 8.69243 19.9669 9.18476 20.1654Z" stroke="black" stroke-width="1.5" stroke-linecap="round" stroke-linejoin="round"/>
<path fill-rule="evenodd" clip-rule="evenodd" d="M9.92329 11.8658C9.56426 10.745 9.98362 9.46354 11.16 9.08505C11.7797 8.88656 12.4569 9.0004 12.9765 9.39057C13.4971 9.00429 14.1713 8.89046 14.7902 9.08505C15.9665 9.46354 16.3888 10.745 16.0297 11.8658C15.4712 13.6415 12.9765 15.0095 12.9765 15.0095C12.9765 15.0095 10.5012 13.662 9.92329 11.8658Z" stroke="black" stroke-width="1.5" stroke-linecap="round" stroke-linejoin="round"/>
</svg>