<svg width="25" height="24" viewBox="0 0 25 24" fill="none" xmlns="http://www.w3.org/2000/svg">
<path d="M19.5665 6.44259C16.1649 2.14054 9.88198 1.8702 6.11866 5.63353C3.36764 8.38455 2.77348 12.459 4.31479 15.7916C4.44315 16.1105 4.94007 16.9906 5.27361 17.5682C5.46324 17.8969 5.44379 18.3034 5.22499 18.6126C5.00522 18.9209 4.7271 19.3167 4.51025 19.6424C4.12225 20.222 4.53456 20.9999 5.23277 20.9999L5.77486 20.9997C8.14841 20.9987 11.625 20.9972 12.4521 20.9999C15.0019 21.0087 17.5545 19.941 19.3729 17.7909C21.3766 15.4228 21.9512 12.1804 21.0714 9.31594" stroke="black" stroke-width="1.5" stroke-linecap="round" stroke-linejoin="round"/>
<path d="M12.4786 15.3225C12.4786 15.3225 14.9739 13.9534 15.5321 12.1777C15.8919 11.0565 15.4688 9.7748 14.2922 9.39652C13.6737 9.20203 12.9998 9.31581 12.4786 9.70187C11.9584 9.31192 11.2815 9.19815 10.6621 9.39652C9.48546 9.7748 9.06634 11.0565 9.42517 12.1777C9.59928 12.7194 9.94586 13.2202 10.3451 13.6557" stroke="black" stroke-width="1.5" stroke-linecap="round" stroke-linejoin="round"/>
</svg>