<svg width="25" height="24" viewBox="0 0 25 24" fill="none" xmlns="http://www.w3.org/2000/svg">
<path d="M12.9521 20.9999C15.5019 21.0087 18.0545 19.941 19.8729 17.7909C22.5938 14.5751 22.6794 9.74693 20.0665 6.44259C16.6649 2.14054 10.382 1.8702 6.61866 5.63353C3.86764 8.38455 3.27348 12.459 4.81479 15.7916C4.94315 16.1105 5.44007 16.9906 5.77361 17.5682C5.96324 17.8969 5.94379 18.3034 5.72499 18.6126C5.50522 18.9209 5.2271 19.3167 5.01025 19.6424C4.62225 20.222 5.03456 20.9999 5.73277 20.9999L6.27486 20.9997C8.64841 20.9987 12.125 20.9972 12.9521 20.9999Z" stroke="black" stroke-width="1.5" stroke-linecap="round" stroke-linejoin="round"/>
<path fill-rule="evenodd" clip-rule="evenodd" d="M9.92517 12.1777C9.56634 11.0565 9.98546 9.7748 11.1621 9.39652C11.7815 9.19815 12.4584 9.31192 12.9786 9.70187C13.4998 9.31581 14.1737 9.20203 14.7922 9.39652C15.9688 9.7748 16.3919 11.0565 16.0321 12.1777C15.4739 13.9534 12.9786 15.3225 12.9786 15.3225C12.9786 15.3225 10.5028 13.9747 9.92517 12.1777Z" stroke="black" stroke-width="1.5" stroke-linecap="round" stroke-linejoin="round"/>
</svg>