<svg width="25" height="25" viewBox="0 0 25 25" fill="none" xmlns="http://www.w3.org/2000/svg">
<path fill-rule="evenodd" clip-rule="evenodd" d="M12.2949 14.668C12.7091 14.668 13.0449 15.0038 13.0449 15.418V15.4912C13.0449 15.9054 12.7091 16.2412 12.2949 16.2412C11.8807 16.2412 11.5449 15.9054 11.5449 15.4912V15.418C11.5449 15.0038 11.8807 14.668 12.2949 14.668Z" fill="black"/>
<path fill-rule="evenodd" clip-rule="evenodd" d="M12.2969 9.05469C12.7111 9.05469 13.0469 9.39047 13.0469 9.80469V12.6179C13.0469 13.0322 12.7111 13.3679 12.2969 13.3679C11.8827 13.3679 11.5469 13.0322 11.5469 12.6179V9.80469C11.5469 9.39047 11.8827 9.05469 12.2969 9.05469Z" fill="black"/>
<path d="M12.525 22.3911C11.12 22.3918 9.73161 22.0871 8.45602 21.4981C8.14644 21.3472 7.81506 21.246 7.47402 21.1981C7.11294 21.2376 6.75918 21.3275 6.42302 21.4651C5.65802 21.7291 4.61002 22.0901 3.85402 21.3301C3.09802 20.5701 3.44202 19.5701 3.71702 18.7651C3.85571 18.4229 3.94461 18.0625 3.98102 17.6951C3.93493 17.3479 3.83365 17.0103 3.68102 16.6951C2.85381 14.8785 2.59904 12.8532 2.95057 10.8884C3.3021 8.92352 4.24328 7.11218 5.64902 5.6951C6.55335 4.78761 7.62792 4.06757 8.81112 3.57626C9.99432 3.08495 11.2629 2.83203 12.544 2.83203C13.8252 2.83203 15.0937 3.08495 16.2769 3.57626C17.4601 4.06757 18.5347 4.78761 19.439 5.6951C20.8069 7.06243 21.7384 8.80477 22.1158 10.7017C22.4931 12.5986 22.2994 14.5648 21.559 16.3515C20.8186 18.1382 19.5649 19.6652 17.9564 20.7392C16.348 21.8132 14.4571 22.386 12.523 22.3851L12.525 22.3911ZM7.47102 19.7011C8.01373 19.737 8.54442 19.8772 9.03402 20.1141L9.07002 20.1291C10.1932 20.6464 11.4181 20.9055 12.6546 20.8872C13.891 20.8689 15.1077 20.5737 16.2151 20.0233C17.3225 19.4729 18.2924 18.6813 19.0536 17.7067C19.8148 16.7321 20.3478 15.5993 20.6136 14.3915C20.8794 13.1838 20.8711 11.9319 20.5894 10.7278C20.3076 9.52372 19.7596 8.39805 18.9856 7.43362C18.2116 6.4692 17.2312 5.69051 16.1167 5.15482C15.0021 4.61912 13.7816 4.34005 12.545 4.3381C11.461 4.33503 10.3872 4.54748 9.38596 4.9631C8.38476 5.37872 7.47618 5.9892 6.71302 6.75909C5.52029 7.96451 4.72309 9.5047 4.42761 11.1745C4.13212 12.8444 4.35237 14.5646 5.05902 16.1061C5.30096 16.6046 5.44393 17.1452 5.48002 17.6981C5.44982 18.2306 5.33365 18.7547 5.13602 19.2501C5.03602 19.5281 4.82002 20.1791 4.91602 20.2751C5.01202 20.3711 5.65602 20.1451 5.93302 20.0501C6.42386 19.8535 6.94319 19.7373 7.47102 19.7061V19.7011Z" fill="black"/>
</svg>