<svg width="25" height="26" viewBox="0 0 25 26" fill="none" xmlns="http://www.w3.org/2000/svg">
<path d="M12.2767 21.9905C14.8265 21.9993 17.3792 20.9289 19.1977 18.7715C21.9187 15.5437 22.0043 10.7 19.3913 7.38439C15.9896 3.06665 9.70643 2.79637 5.94297 6.57255C3.19186 9.332 2.59768 13.4204 4.13904 16.7644C4.26741 17.0854 4.76434 17.9675 5.0979 18.548C5.28753 18.8778 5.26808 19.2847 5.04927 19.595C4.82949 19.9053 4.55137 20.3025 4.33451 20.6284C3.94649 21.2109 4.35882 21.9915 5.05705 21.9905L5.59644 21.9903C7.97013 21.9893 11.4492 21.9878 12.2767 21.9905Z" stroke="black" stroke-width="1.5" stroke-linecap="round" stroke-linejoin="round"/>
<path d="M8.86523 14.5645C9.42635 15.8446 10.711 16.7423 12.2037 16.7423C13.6955 16.7423 14.9801 15.8446 15.5412 14.5645" stroke="black" stroke-width="1.5" stroke-linecap="round" stroke-linejoin="round"/>
</svg>