<svg width="24" height="24" viewBox="0 0 24 24" fill="none" xmlns="http://www.w3.org/2000/svg">
<path opacity="0.4" d="M7.94939 20.0368C7.73048 19.9268 7.49016 19.8889 7.25179 19.9453C6.44132 20.136 5.13368 20.462 4.18213 20.7013C3.64117 20.8375 3.14886 20.3559 3.27437 19.813C3.5108 18.7875 3.83868 17.3612 3.99435 16.648C4.043 16.4262 4.01284 16.1975 3.91652 15.9922C3.3454 14.7712 3 13.4198 3 12.0002C3 6.48846 8.02139 2.09267 13.7151 3.16097C17.2926 3.8323 20.1677 6.70834 20.839 10.2849C21.9073 15.9786 17.5115 21 11.9998 21C10.59 21 9.18115 20.6595 7.94939 20.0368Z" stroke="black" stroke-width="1.5" stroke-linecap="round" stroke-linejoin="round"/>
<path d="M16.2233 10.4648L13.408 13.5371L10.5927 10.4648L7.77734 13.5371" stroke="black" stroke-width="1.5" stroke-linecap="round" stroke-linejoin="round"/>
</svg>