<svg width="24" height="24" viewBox="0 0 24 24" fill="none" xmlns="http://www.w3.org/2000/svg">
<path fill-rule="evenodd" clip-rule="evenodd" d="M11.2398 8.64956C12.7255 10.7249 13.6323 13.1632 15.1025 15.2483C15.7729 16.1979 16.6534 17.2341 17.8015 17.5931C19.1403 18.0115 20.2661 17.1251 20.6874 15.8885C21.2137 14.3405 20.9987 12.5561 20.6056 11.0051C20.0831 8.94826 18.794 6.51874 16.4617 6.3115C15.048 6.18696 13.894 7.16772 13.0865 8.22534L12.7605 8.64956C11.2748 10.7249 10.368 13.1632 8.89684 15.2483C8.22744 16.1979 7.34689 17.2341 6.19878 17.5931C4.85997 18.0115 3.73326 17.1251 3.31294 15.8885C2.78656 14.3405 3.00061 12.5561 3.39467 11.0051C3.91716 8.94826 5.20635 6.51874 7.53857 6.3115C8.95133 6.18696 10.1063 7.16772 10.9129 8.22534L11.2398 8.64956Z" stroke="black" stroke-width="1.5" stroke-linecap="round" stroke-linejoin="round"/>
</svg>