<svg width="24" height="24" viewBox="0 0 24 24" fill="none" xmlns="http://www.w3.org/2000/svg">
<path d="M16.21 21.75H7.78C4.47 21.75 2.25 19.43 2.25 15.97V8.03003C2.25 4.57003 4.47 2.25 7.78 2.25H16.22C19.53 2.25 21.75 4.57003 21.75 8.03003V15.97C21.75 19.43 19.53 21.75 16.22 21.75H16.21ZM7.78 3.75C5.33 3.75 3.75 5.43003 3.75 8.03003V15.97C3.75 18.57 5.33 20.25 7.78 20.25H16.21C18.66 20.25 20.24 18.57 20.24 15.97V8.03003C20.24 5.43003 18.66 3.75 16.21 3.75H7.77002H7.78Z" fill="black"/>
<path d="M15.5899 15.9218C15.3999 15.9218 15.1999 15.8918 14.9999 15.8318C14.1399 15.5618 13.5399 14.8418 13.1099 14.2518C12.6799 13.6418 12.3399 12.9918 12.0099 12.3618V12.3418C12.0099 12.3418 11.9999 12.3418 11.9899 12.3518C11.6599 12.9818 11.3199 13.6318 10.8899 14.2418C10.4599 14.8418 9.85991 15.5517 8.99991 15.8217C7.91991 16.1517 6.84993 15.5518 6.45993 14.3918C6.15993 13.5218 6.16993 12.4918 6.48993 11.2618C6.95993 9.40181 8.06992 8.22176 9.44992 8.09176C10.3799 8.01176 11.2499 8.48175 11.9899 9.45175L11.9999 9.44174C12.9299 8.22174 13.8899 8.03176 14.5299 8.09176C15.9099 8.22176 17.0199 9.40181 17.4899 11.2618C17.7999 12.5018 17.8099 13.5318 17.5199 14.4018C17.1999 15.3418 16.4299 15.9218 15.5799 15.9218H15.5899ZM12.8699 10.8018C13.0299 11.0918 13.1799 11.3718 13.3299 11.6518C13.6499 12.2618 13.9599 12.8418 14.3299 13.3718C14.5899 13.7418 14.9999 14.2518 15.4399 14.3918C15.8899 14.5318 16.0899 13.9818 16.1099 13.9218C16.3099 13.3418 16.2899 12.5718 16.0499 11.6318C15.8099 10.6918 15.2499 9.66175 14.3999 9.58175C13.9099 9.55175 13.4799 9.98178 13.1899 10.3618L12.9999 10.6018C12.9499 10.6618 12.9099 10.7318 12.8599 10.8018H12.8699ZM9.6499 9.58175C9.6499 9.58175 9.60993 9.58175 9.57993 9.58175C8.72993 9.66175 8.17991 10.6918 7.93991 11.6318C7.69991 12.5718 7.67991 13.3318 7.87991 13.9118C7.89991 13.9718 8.09993 14.5218 8.54993 14.3818C8.98993 14.2418 9.38991 13.7318 9.65991 13.3618C10.0299 12.8318 10.3399 12.2518 10.6599 11.6418C10.8099 11.3618 10.9599 11.0718 11.1199 10.7918C11.0699 10.7218 11.0199 10.6518 10.9699 10.5818L10.7999 10.3618C10.5199 9.99178 10.0999 9.57174 9.6499 9.57174V9.58175Z" fill="black"/>
</svg>