<svg width="24" height="24" viewBox="0 0 24 24" fill="none" xmlns="http://www.w3.org/2000/svg">
<path d="M19.983 11.5872L20.5603 11.01C20.8308 10.7394 20.8308 10.3007 20.5603 10.0302C20.3965 9.8664 20.3254 9.63158 20.3708 9.40444L21.0059 6.22881C21.035 6.08322 21.0315 5.93299 20.9955 5.78895L20.6191 4.28361C20.458 3.63897 19.7257 3.32651 19.1488 3.65618L15.2642 5.87595C15.1131 5.96229 14.9421 6.0077 14.7681 6.0077H9.28271C9.10868 6.0077 8.93766 5.96229 8.78657 5.87595L4.90198 3.65618C4.32505 3.32651 3.59283 3.63897 3.43167 4.28361L3.05533 5.78895C3.01932 5.93299 3.01575 6.08322 3.04486 6.22881L3.67999 9.40444C3.72542 9.63158 3.65432 9.8664 3.49053 10.0302C3.21997 10.3007 3.21997 10.7394 3.49053 11.01L4.06775 11.5872C4.33558 11.855 4.42911 12.2512 4.30933 12.6105L3.08485 16.2839C3.02967 16.4495 3.01864 16.6266 3.05287 16.7977L3.52994 19.183C3.64822 19.7745 4.25811 20.1284 4.83031 19.9377L7.80109 18.9474C8.09385 18.8498 8.41526 18.8929 8.67202 19.0641L10.2686 20.1285C10.4334 20.2383 10.6269 20.2969 10.8249 20.2969H13.2259C13.4239 20.2969 13.6174 20.2383 13.7821 20.1285L15.3788 19.0641C15.6355 18.8929 15.9569 18.8498 16.2497 18.9474L19.2205 19.9377C19.7927 20.1284 20.4026 19.7745 20.5208 19.183L20.9979 16.7977C21.0321 16.6266 21.0211 16.4495 20.9659 16.2839L19.7415 12.6105C19.6217 12.2512 19.7152 11.855 19.983 11.5872Z" stroke="black" stroke-width="1.5" stroke-linecap="round" stroke-linejoin="round"/>
<path d="M12.0254 18.041V20.2972" stroke="black" stroke-width="1.5" stroke-linecap="round" stroke-linejoin="round"/>
<path d="M15.7862 18.7935L13.8214 15.5187C13.6406 15.2175 13.3151 15.0332 12.9639 15.0332H11.088C10.7367 15.0332 10.4112 15.2175 10.2305 15.5187L8.26562 18.7935" stroke="black" stroke-width="1.5" stroke-linecap="round" stroke-linejoin="round"/>
<path d="M9.01758 6.00781L9.76964 9.01606L10.5217 15.0326" stroke="black" stroke-width="1.5" stroke-linecap="round" stroke-linejoin="round"/>
<path d="M15.0334 6.00781L14.2814 9.01606L13.5293 15.0326" stroke="black" stroke-width="1.5" stroke-linecap="round" stroke-linejoin="round"/>
<path d="M4.50391 12.0239L9.76834 9.01562" stroke="black" stroke-width="1.5" stroke-linecap="round" stroke-linejoin="round"/>
<path d="M19.5457 12.0239L14.2812 9.01562" stroke="black" stroke-width="1.5" stroke-linecap="round" stroke-linejoin="round"/>
<path d="M7.70051 13.9048L7.23047 13.7168" stroke="black" stroke-width="1.5" stroke-linecap="round" stroke-linejoin="round"/>
<path d="M16.3496 13.9048L16.8196 13.7168" stroke="black" stroke-width="1.5" stroke-linecap="round" stroke-linejoin="round"/>
</svg>