<svg width="24" height="25" viewBox="0 0 24 25" fill="none" xmlns="http://www.w3.org/2000/svg">
<path fill-rule="evenodd" clip-rule="evenodd" d="M13.1667 10.3417C13.4887 10.9067 13.7907 11.4777 14.0857 12.0377C14.6757 13.1547 15.2317 14.2077 15.9197 15.1867C16.4167 15.8897 17.1837 16.8597 18.1007 17.1477C19.0087 17.4297 19.5597 16.6117 19.7397 16.0797C20.1167 14.9727 20.0817 13.5217 19.6367 11.7677C19.4137 10.8897 18.5197 8.01075 16.3717 7.81775C15.3447 7.74075 14.4497 8.60074 13.8807 9.34774L13.5517 9.77275C13.4197 9.95775 13.2917 10.1487 13.1667 10.3417ZM7.76775 7.81174C7.71975 7.81174 7.67175 7.81375 7.62375 7.81774C5.47975 8.01075 4.58675 10.8897 4.36375 11.7677C3.91775 13.5207 3.88375 14.9707 4.25975 16.0797C4.43975 16.6117 4.98975 17.4297 5.89975 17.1477C6.81675 16.8597 7.58275 15.8897 8.07975 15.1857C8.76775 14.2067 9.32475 13.1537 9.91475 12.0367C10.2097 11.4767 10.5107 10.9067 10.8337 10.3427C10.7057 10.1457 10.5747 9.94975 10.4377 9.75874L10.1237 9.35574C9.57575 8.63674 8.73775 7.81174 7.76775 7.81174ZM5.52775 19.2067C4.13775 19.2067 2.88975 18.2697 2.36575 16.7217C1.85575 15.2207 1.87575 13.4387 2.42575 11.2757C3.23675 8.07274 5.11475 6.03475 7.44875 5.82475C8.99175 5.70275 10.4577 6.49275 11.7087 8.13475L12.0007 8.51075L12.2947 8.12975C13.5427 6.49275 15.0207 5.68675 16.5457 5.82475C18.8837 6.03475 20.7617 8.07174 21.5747 11.2757C22.1247 13.4417 22.1437 15.2237 21.6337 16.7237C20.9887 18.6237 19.2497 19.6067 17.5017 19.0557C16.0067 18.5867 14.9497 17.2797 14.2847 16.3387C13.5227 15.2537 12.9097 14.0937 12.3177 12.9717C12.2107 12.7707 12.1057 12.5707 11.9997 12.3717C11.8947 12.5707 11.7897 12.7697 11.6827 12.9717C11.0897 14.0937 10.4767 15.2537 9.71475 16.3367C9.04975 17.2787 7.99475 18.5857 6.49875 19.0557C6.17175 19.1577 5.84675 19.2067 5.52775 19.2067Z" fill="black"/>
</svg>