<svg width="25" height="24" viewBox="0 0 25 24" fill="none" xmlns="http://www.w3.org/2000/svg">
<path d="M12.249 18.7448C10.1378 18.7369 8.11548 17.8934 6.62427 16.3988C5.13305 14.9042 4.29417 12.8801 4.29102 10.7688C4.29074 10.569 4.3694 10.3771 4.50986 10.235C4.65031 10.0928 4.8412 10.0119 5.04102 10.0098C5.13901 10.0089 5.23623 10.0274 5.32706 10.0642C5.41788 10.101 5.50051 10.1553 5.57022 10.2242C5.63993 10.2931 5.69532 10.3751 5.73322 10.4655C5.77111 10.5558 5.79076 10.6528 5.79102 10.7508V10.7688C5.78627 11.9893 6.12785 13.186 6.77606 14.2201C7.42427 15.2542 8.35252 16.0832 9.45303 16.6108C10.5535 17.1385 11.7812 17.3431 12.9933 17.201C14.2055 17.0588 15.3524 16.5757 16.301 15.8078C16.4562 15.6881 16.6519 15.6339 16.8465 15.6568C17.0411 15.6796 17.219 15.7777 17.3422 15.93C17.4654 16.0824 17.5242 16.2769 17.5058 16.4719C17.4874 16.667 17.3935 16.8471 17.244 16.9738C15.8301 18.1172 14.0674 18.7422 12.249 18.7448Z" fill="black"/>
<path d="M15.8907 11.8626C15.871 11.8636 15.8513 11.8636 15.8317 11.8626C15.6343 11.8475 15.4509 11.7549 15.3216 11.605C15.1923 11.455 15.1276 11.2601 15.1417 11.0626C15.1497 10.9546 15.1577 10.8476 15.1577 10.7336V6.5066C15.1577 5.88439 14.9582 5.27855 14.5884 4.77815C14.2186 4.27774 13.6981 3.90915 13.1033 3.72651C12.5085 3.54387 11.8708 3.55681 11.2839 3.76347C10.697 3.97012 10.1918 4.35956 9.84267 4.87458C9.78885 4.95959 9.71849 5.0329 9.63576 5.09016C9.55302 5.14741 9.45962 5.18743 9.3611 5.20783C9.26258 5.22824 9.16094 5.22861 9.06227 5.20893C8.9636 5.18925 8.86991 5.14991 8.78676 5.09327C8.7036 5.03663 8.63267 4.96383 8.57823 4.87922C8.52379 4.7946 8.48694 4.6999 8.46986 4.60075C8.45278 4.50159 8.45585 4.40002 8.47884 4.30207C8.50182 4.20412 8.54428 4.11179 8.60368 4.03059C9.13307 3.25023 9.8988 2.66026 10.7883 2.34736C11.6779 2.03446 12.6444 2.01512 13.5457 2.29221C14.447 2.56931 15.2357 3.12821 15.7959 3.88679C16.356 4.64536 16.6581 5.56362 16.6577 6.5066V10.7336C16.6577 10.8876 16.6477 11.0336 16.6377 11.1776C16.6212 11.3644 16.5354 11.5383 16.3971 11.6651C16.2589 11.7919 16.0782 11.8623 15.8907 11.8626V11.8626Z" fill="black"/>
<path d="M12.2498 15.149C11.0781 15.145 9.95592 14.6763 9.12949 13.8458C8.30306 13.0152 7.83994 11.8907 7.8418 10.719V8.20898C7.8418 8.01007 7.92082 7.81933 8.06147 7.67868C8.20212 7.53803 8.39289 7.45898 8.5918 7.45898C8.79071 7.45898 8.98148 7.53803 9.12214 7.67868C9.26279 7.81933 9.3418 8.01007 9.3418 8.20898V10.722C9.33891 11.1049 9.41232 11.4845 9.55774 11.8387C9.70317 12.1929 9.91768 12.5146 10.1888 12.785C10.653 13.258 11.2663 13.5561 11.925 13.629C12.5837 13.7019 13.2474 13.545 13.8038 13.185C13.887 13.1288 13.9807 13.0899 14.0793 13.0706C14.1779 13.0512 14.2794 13.0519 14.3777 13.0726C14.476 13.0932 14.5691 13.1334 14.6516 13.1907C14.7341 13.2481 14.8042 13.3214 14.8578 13.4063C14.9114 13.4913 14.9474 13.5862 14.9637 13.6853C14.9799 13.7844 14.9761 13.8858 14.9524 13.9835C14.9287 14.0811 14.8856 14.1729 14.8257 14.2536C14.7658 14.3343 14.6904 14.4021 14.6038 14.453C13.901 14.9036 13.0846 15.145 12.2498 15.149V15.149Z" fill="black"/>
<path d="M19.4556 19.8243C19.3571 19.8245 19.2595 19.8052 19.1685 19.7674C19.0776 19.7297 18.995 19.6742 18.9256 19.6043L4.50961 5.18927C4.37292 5.04788 4.29724 4.85845 4.29885 4.66181C4.30047 4.46516 4.37925 4.27703 4.51824 4.13791C4.65724 3.99879 4.84531 3.9198 5.04196 3.918C5.2386 3.9162 5.42809 3.99171 5.56961 4.12827L19.9856 18.5443C20.0902 18.6493 20.1614 18.7829 20.1902 18.9283C20.219 19.0737 20.2042 19.2244 20.1475 19.3614C20.0908 19.4984 19.9949 19.6155 19.8718 19.6981C19.7486 19.7806 19.6039 19.8248 19.4556 19.8253V19.8243Z" fill="black"/>
<path d="M12.248 21.5902C12.0491 21.5902 11.8584 21.5112 11.7177 21.3706C11.5771 21.2299 11.498 21.0392 11.498 20.8402V17.9902C11.498 17.7913 11.5771 17.6006 11.7177 17.4599C11.8584 17.3193 12.0491 17.2402 12.248 17.2402C12.447 17.2402 12.6377 17.3193 12.7784 17.4599C12.919 17.6006 12.998 17.7913 12.998 17.9902V20.8383C12.9983 20.9369 12.9791 21.0347 12.9415 21.1259C12.904 21.2171 12.8488 21.3 12.7791 21.3699C12.7094 21.4397 12.6266 21.4951 12.5355 21.533C12.4444 21.5708 12.3467 21.5902 12.248 21.5902V21.5902Z" fill="black"/>
<path d="M18.7197 14.6899C18.6044 14.6901 18.4908 14.6634 18.3877 14.6119C18.2094 14.5236 18.0736 14.3681 18.01 14.1797C17.9465 13.9912 17.9604 13.7852 18.0487 13.6069C18.4875 12.7195 18.7135 11.742 18.7087 10.752C18.7087 10.553 18.7877 10.3623 18.9283 10.2216C19.069 10.081 19.2598 10.002 19.4587 10.002C19.6576 10.002 19.8483 10.081 19.989 10.2216C20.1296 10.3623 20.2087 10.553 20.2087 10.752C20.2143 11.9731 19.9349 13.1787 19.3927 14.2729C19.3306 14.3984 19.2347 14.5039 19.1158 14.5776C18.9968 14.6513 18.8596 14.6902 18.7197 14.6899V14.6899Z" fill="black"/>
</svg>