<svg width="24" height="24" viewBox="0 0 24 24" fill="none" xmlns="http://www.w3.org/2000/svg">
<path fill-rule="evenodd" clip-rule="evenodd" d="M16.4863 4.54832C16.7883 4.22119 17.2701 4.13308 17.6683 4.33217L20.4433 5.71966C20.7821 5.88906 20.9961 6.23532 20.9961 6.61409V17.378C20.9961 17.7568 20.7821 18.1031 20.4433 18.2725L17.6683 19.6599C17.2701 19.859 16.7883 19.7709 16.4863 19.4438L5.50588 7.54832C5.20391 7.22119 4.72205 7.13308 4.32386 7.33217L3.54888 7.71966C3.2101 7.88906 2.99609 8.23532 2.99609 8.61409V15.419C2.99609 15.8061 3.2195 16.1584 3.56962 16.3235L4.33247 16.6832C4.72743 16.8694 5.19756 16.7778 5.49374 16.4569L16.4863 4.54832Z" stroke="black" stroke-width="1.5" stroke-linecap="round" stroke-linejoin="round"/>
</svg>