<svg width="24" height="24" viewBox="0 0 24 24" fill="none" xmlns="http://www.w3.org/2000/svg">
<path fill-rule="evenodd" clip-rule="evenodd" d="M15.9352 4.03964C16.4637 3.46716 17.3069 3.31296 18.0037 3.66138L20.7787 5.04887C21.3716 5.34531 21.7461 5.95127 21.7461 6.61412V17.3781C21.7461 18.0409 21.3716 18.6469 20.7787 18.9433L18.0037 20.3308C17.3069 20.6792 16.4636 20.525 15.9352 19.9525L9.61148 13.1018L6.04485 16.9657C5.52653 17.5272 4.7038 17.6875 4.01261 17.3616L3.24977 17.0019C2.63705 16.713 2.24609 16.0964 2.24609 15.419V8.61412C2.24609 7.95127 2.6206 7.34531 3.21347 7.04887L3.98845 6.66138L4.32386 7.3322L3.98845 6.66138C4.68529 6.31296 5.52854 6.46716 6.05698 7.03964L9.61148 10.8903L15.9352 4.03964ZM10.6322 11.9961L17.0374 18.9351C17.1129 19.0169 17.2334 19.0389 17.3329 18.9891L20.1079 17.6017C20.1926 17.5593 20.2461 17.4727 20.2461 17.3781V6.61412C20.2461 6.51943 20.1926 6.43286 20.1079 6.39051L17.3329 5.00302C17.2334 4.95325 17.1129 4.97528 17.0374 5.05706L10.6322 11.9961ZM8.5908 11.9961L4.95477 8.05706C4.87928 7.97528 4.75882 7.95325 4.65927 8.00302L3.88429 8.39051C3.79959 8.43286 3.74609 8.51943 3.74609 8.61412V15.419C3.74609 15.5158 3.80194 15.6039 3.88948 15.6451L4.65232 16.0048C4.75106 16.0514 4.86859 16.0285 4.94264 15.9483L8.5908 11.9961Z" fill="black"/>
</svg>