<svg width="24" height="24" viewBox="0 0 24 24" fill="none" xmlns="http://www.w3.org/2000/svg">
<path d="M3 12C3 16.9706 7.02944 21 12 21C15.0849 21 17.8073 19.4479 19.4289 17.082L19.3823 17.0962C15.1249 18.1144 9.38265 17.3072 8.99617 12.0002C8.99617 10.3413 10.341 8.99642 12 8.99642C13.659 8.99642 15.0038 10.3413 15.0038 12.0002C15.0038 12.5089 14.8774 12.9879 14.6543 13.4078C16.534 14.3351 21.2039 14.4611 20.9939 11.467L20.9697 11.2557C20.5913 6.63332 16.7199 3 12 3C7.02944 3 3 7.02944 3 12Z" stroke="black" stroke-width="1.5" stroke-linecap="round" stroke-linejoin="round"/>
<path d="M3.03027 12.7229C3.23876 6.97023 12.5312 5.81166 14.5904 10.419" stroke="black" stroke-width="1.5" stroke-linecap="round" stroke-linejoin="round"/>
<path d="M12.5172 20.9356C9.52312 21.1457 6.88247 15.8244 9.21999 10.8516" stroke="black" stroke-width="1.5" stroke-linecap="round" stroke-linejoin="round"/>
</svg>