<svg width="24" height="25" viewBox="0 0 24 25" fill="none" xmlns="http://www.w3.org/2000/svg">
<path fill-rule="evenodd" clip-rule="evenodd" d="M12.8649 10.3588V11.4588C12.8649 11.6245 12.9992 11.7588 13.1649 11.7588H20.5749C20.7405 11.7588 20.8749 11.6245 20.8749 11.4588V9.57881C20.8749 9.41312 20.7405 9.27881 20.5749 9.27881H13.1146C12.9177 9.27881 12.7745 9.46547 12.807 9.65964C12.8447 9.88465 12.8649 10.1177 12.8649 10.3588Z" fill="black"/>
<path fill-rule="evenodd" clip-rule="evenodd" d="M12.8649 14.659C12.8649 14.8965 12.8453 15.1261 12.8087 15.3455C12.7762 15.5406 12.9198 15.729 13.1176 15.729H20.5749C20.7405 15.729 20.8749 15.5947 20.8749 15.429V13.559C20.8749 13.3933 20.7405 13.259 20.5749 13.259H13.1649C12.9992 13.259 12.8649 13.3933 12.8649 13.559V14.659Z" fill="black"/>
<path fill-rule="evenodd" clip-rule="evenodd" d="M9.52499 18.129H7.045C6.87931 18.129 6.74377 18.2637 6.75615 18.4289C6.88152 20.101 8.05441 21.429 9.835 21.429H17.785C19.605 21.429 20.875 20.109 20.875 18.219V17.529C20.875 17.3633 20.7407 17.229 20.575 17.229H11.9893C11.9097 17.229 11.8339 17.2612 11.7753 17.315C11.2027 17.8405 10.427 18.129 9.52499 18.129Z" fill="black"/>
<path fill-rule="evenodd" clip-rule="evenodd" d="M17.7849 3.58887H9.83487C8.05429 3.58887 6.88139 4.91683 6.75603 6.58897C6.74365 6.7542 6.87919 6.88887 7.04487 6.88887H9.52487C10.4273 6.88887 11.1943 7.18663 11.766 7.69644C11.8241 7.74818 11.8983 7.77887 11.9761 7.77887H20.5749C20.7406 7.77887 20.8749 7.64455 20.8749 7.47887V6.79887C20.8749 4.90887 19.6049 3.58887 17.7849 3.58887Z" fill="black"/>
<path fill-rule="evenodd" clip-rule="evenodd" d="M8.685 14.9289H8.645C8.345 14.9289 8.065 14.7489 7.955 14.4689L7.245 12.7889L6.535 14.4689C6.415 14.7689 6.135 14.9489 5.795 14.9289C5.485 14.9089 5.215 14.6989 5.125 14.3889L4.185 11.0489C4.065 10.6489 4.295 10.2389 4.695 10.1189C5.095 10.0089 5.515 10.2389 5.625 10.6389L5.985 11.9089L6.555 10.5489C6.675 10.2789 6.955 10.1389 7.245 10.1389C7.535 10.1389 7.815 10.2789 7.935 10.5489L8.505 11.9089L8.865 10.6389C8.975 10.2389 9.385 10.0089 9.795 10.1189C10.185 10.2389 10.415 10.6489 10.305 11.0489L9.365 14.3889C9.275 14.6989 9.005 14.9089 8.685 14.9289ZM11.365 14.6589V10.3589C11.365 9.12892 10.675 8.38892 9.525 8.38892H4.965C3.825 8.38892 3.125 9.14892 3.125 10.3589V14.6589C3.125 15.8789 3.825 16.6289 4.965 16.6289H9.525C10.665 16.6289 11.365 15.8789 11.365 14.6589Z" fill="black"/>
</svg>