<svg width="25" height="24" viewBox="0 0 25 24" fill="none" xmlns="http://www.w3.org/2000/svg">
<path fill-rule="evenodd" clip-rule="evenodd" d="M12.25 3.75C7.69335 3.75 4 7.44421 4 12C4 16.5567 7.69329 20.25 12.25 20.25C16.8067 20.25 20.5 16.5567 20.5 12C20.5 7.44421 16.8067 3.75 12.25 3.75ZM2.5 12C2.5 6.61589 6.86481 2.25 12.25 2.25C17.6352 2.25 22 6.61589 22 12C22 17.3851 17.6351 21.75 12.25 21.75C6.86487 21.75 2.5 17.3851 2.5 12Z" fill="black"/>
<path fill-rule="evenodd" clip-rule="evenodd" d="M10.3254 12.5691C10.6195 12.2774 11.0943 12.2793 11.386 12.5734L12.0924 13.2856C12.3841 13.5797 12.3821 14.0546 12.088 14.3463C11.7939 14.638 11.3191 14.636 11.0274 14.3419L10.321 13.6297C10.0293 13.3356 10.0313 12.8607 10.3254 12.5691Z" fill="black"/>
<path fill-rule="evenodd" clip-rule="evenodd" d="M14.0449 15.9646C14.4075 16.1648 14.5392 16.621 14.339 16.9837C13.602 18.319 11.9209 18.8053 10.585 18.0679C10.2223 17.8677 10.0906 17.4115 10.2908 17.0488C10.491 16.6862 10.9472 16.5545 11.3099 16.7547C11.9199 17.0914 12.6887 16.8694 13.0258 16.2588C13.226 15.8962 13.6822 15.7645 14.0449 15.9646Z" fill="black"/>
<path fill-rule="evenodd" clip-rule="evenodd" d="M17.8094 14.0589C18.1566 14.2847 18.255 14.7493 18.0291 15.0965L17.4823 15.9372C17.2564 16.2844 16.7919 16.3828 16.4447 16.1569C16.0974 15.9311 15.999 15.4665 16.2249 15.1193L16.7717 14.2786C16.9976 13.9314 17.4621 13.833 17.8094 14.0589Z" fill="black"/>
<path fill-rule="evenodd" clip-rule="evenodd" d="M13.2731 5.17586C13.6205 4.95019 14.085 5.04882 14.3106 5.39616L14.8575 6.23778C15.0831 6.58512 14.9845 7.04964 14.6372 7.27531C14.2898 7.50098 13.8253 7.40235 13.5996 7.05501L13.0528 6.21339C12.8271 5.86605 12.9258 5.40153 13.2731 5.17586Z" fill="black"/>
<path fill-rule="evenodd" clip-rule="evenodd" d="M15.6072 9.67578C15.1088 9.67578 14.7051 10.0795 14.7051 10.5779C14.7051 11.0763 15.1088 11.48 15.6072 11.48C16.1056 11.48 16.5093 11.0763 16.5093 10.5779C16.5093 10.0795 16.1056 9.67578 15.6072 9.67578ZM13.2051 10.5779C13.2051 9.25103 14.2803 8.17578 15.6072 8.17578C16.934 8.17578 18.0093 9.25103 18.0093 10.5779C18.0093 11.9048 16.934 12.98 15.6072 12.98C14.2803 12.98 13.2051 11.9048 13.2051 10.5779Z" fill="black"/>
<path fill-rule="evenodd" clip-rule="evenodd" d="M11.2593 6.6318C11.3894 7.02504 11.1761 7.44931 10.7828 7.57943C10.1205 7.79856 9.76154 8.51258 9.98077 9.17515C10.1109 9.56839 9.89757 9.99266 9.50432 10.1228C9.11108 10.2529 8.68681 10.0396 8.55669 9.64634C8.07733 8.19755 8.86256 6.63481 10.3116 6.15536C10.7049 6.02524 11.1291 6.23855 11.2593 6.6318Z" fill="black"/>
<path fill-rule="evenodd" clip-rule="evenodd" d="M6.65717 11.3095C6.95006 11.0166 7.42494 11.0166 7.71783 11.3095C8.79689 12.3886 8.79689 14.138 7.71783 15.2171C7.42494 15.51 6.95006 15.51 6.65717 15.2171C6.36428 14.9242 6.36428 14.4493 6.65717 14.1564C7.15044 13.6632 7.15044 12.8634 6.65717 12.3702C6.36428 12.0773 6.36428 11.6024 6.65717 11.3095Z" fill="black"/>
</svg>