<svg width="25" height="24" viewBox="0 0 25 24" fill="none" xmlns="http://www.w3.org/2000/svg">
<path d="M12.2539 18.743C11.2064 18.7411 10.1696 18.5329 9.20263 18.1301C8.23567 17.7273 7.35756 17.1379 6.6185 16.3956C5.87944 15.6533 5.2939 14.7726 4.89538 13.8039C4.49686 12.8352 4.29317 11.7974 4.29593 10.7499C4.29646 10.5514 4.37573 10.3611 4.51632 10.2209C4.65692 10.0807 4.84736 10.002 5.04593 10.002V10.002C5.14442 10.0022 5.2419 10.0219 5.33279 10.0598C5.42369 10.0977 5.50622 10.1532 5.57568 10.223C5.64514 10.2929 5.70016 10.3757 5.73761 10.4668C5.77506 10.5579 5.79421 10.6554 5.79394 10.7539C5.78331 11.6086 5.94245 12.4568 6.26214 13.2495C6.58184 14.0421 7.05574 14.7635 7.65634 15.3716C8.25694 15.9797 8.97227 16.4625 9.76089 16.7921C10.5495 17.1216 11.3957 17.2913 12.2504 17.2913C13.1051 17.2913 13.9513 17.1216 14.74 16.7921C15.5286 16.4625 16.2439 15.9797 16.8445 15.3716C17.4451 14.7635 17.919 14.0421 18.2387 13.2495C18.5584 12.4568 18.7176 11.6086 18.7069 10.7539C18.7067 10.6554 18.7258 10.5579 18.7633 10.4668C18.8007 10.3757 18.8557 10.2929 18.9252 10.223C18.9947 10.1532 19.0772 10.0977 19.1681 10.0598C19.259 10.0219 19.3564 10.0022 19.4549 10.002C19.6535 10.002 19.844 10.0807 19.9846 10.2209C20.1252 10.3611 20.2044 10.5514 20.2049 10.7499C20.2073 12.8633 19.3718 14.8914 17.8813 16.3896C16.3909 17.8879 14.3673 18.7342 12.2539 18.743V18.743Z" fill="black"/>
<path d="M12.2519 15.1469C11.6714 15.1465 11.0966 15.0316 10.5606 14.8089C10.0245 14.5862 9.53757 14.2599 9.1277 13.8488C8.71782 13.4378 8.393 12.9499 8.17186 12.4131C7.95071 11.8764 7.83756 11.3014 7.83888 10.7209V6.49985C7.83994 5.33074 8.30477 4.2098 9.13136 3.38303C9.95795 2.55625 11.0788 2.09117 12.2479 2.08984C12.4468 2.08984 12.6376 2.16886 12.7782 2.30951C12.9189 2.45016 12.9979 2.64093 12.9979 2.83984C12.9979 3.03876 12.9189 3.22953 12.7782 3.37018C12.6376 3.51083 12.4468 3.58984 12.2479 3.58984C11.4765 3.5909 10.7371 3.89786 10.1917 4.44339C9.64638 4.98892 9.33967 5.72848 9.33888 6.49985V10.7219C9.33888 11.4934 9.64536 12.2333 10.1909 12.7788C10.7364 13.3244 11.4764 13.6309 12.2479 13.6309C13.0194 13.6309 13.7593 13.3244 14.3049 12.7788C14.8504 12.2333 15.1569 11.4934 15.1569 10.7219C15.1566 10.6234 15.1758 10.5258 15.2132 10.4347C15.2507 10.3436 15.3057 10.2607 15.3751 10.1909C15.4446 10.1211 15.5271 10.0656 15.618 10.0277C15.7089 9.98978 15.8064 9.97011 15.9049 9.96985V9.96985C16.1035 9.96985 16.2939 10.0486 16.4345 10.1888C16.5751 10.329 16.6544 10.5193 16.6549 10.7179C16.6581 11.8883 16.1964 13.0121 15.3713 13.8422C14.5462 14.6723 13.4253 15.1409 12.2549 15.1448L12.2519 15.1469Z" fill="black"/>
<path d="M15.969 8.42822C15.7701 8.42822 15.5793 8.34918 15.4387 8.20853C15.298 8.06787 15.219 7.87714 15.219 7.67822V6.50021H14.042C13.8431 6.50021 13.6523 6.4212 13.5117 6.28055C13.371 6.1399 13.292 5.94913 13.292 5.75021C13.292 5.5513 13.371 5.36053 13.5117 5.21988C13.6523 5.07923 13.8431 5.00021 14.042 5.00021H15.219V3.82422C15.219 3.62531 15.298 3.43454 15.4387 3.29388C15.5793 3.15323 15.7701 3.07422 15.969 3.07422C16.1679 3.07422 16.3587 3.15323 16.4993 3.29388C16.64 3.43454 16.719 3.62531 16.719 3.82422V5.00021H17.896C18.0949 5.00021 18.2857 5.07923 18.4263 5.21988C18.567 5.36053 18.646 5.5513 18.646 5.75021C18.646 5.94913 18.567 6.1399 18.4263 6.28055C18.2857 6.4212 18.0949 6.50021 17.896 6.50021H16.719V7.67822C16.719 7.87714 16.64 8.06787 16.4993 8.20853C16.3587 8.34918 16.1679 8.42822 15.969 8.42822Z" fill="black"/>
<path d="M12.2529 21.5902C12.054 21.5902 11.8632 21.5112 11.7226 21.3706C11.5819 21.2299 11.5029 21.0392 11.5029 20.8402V17.9902C11.5029 17.7913 11.5819 17.6006 11.7226 17.4599C11.8632 17.3193 12.054 17.2402 12.2529 17.2402C12.4518 17.2402 12.6426 17.3193 12.7833 17.4599C12.9239 17.6006 13.0029 17.7913 13.0029 17.9902V20.8383C13.0032 20.9369 12.984 21.0347 12.9464 21.1259C12.9088 21.2171 12.8536 21.3 12.784 21.3699C12.7143 21.4397 12.6315 21.4951 12.5404 21.533C12.4493 21.5708 12.3516 21.5902 12.2529 21.5902Z" fill="black"/>
</svg>