<svg width="24" height="24" viewBox="0 0 24 24" fill="none" xmlns="http://www.w3.org/2000/svg">
<path d="M15.1548 6.62223C15.1548 7.03623 15.4898 7.37223 15.9048 7.37223C16.3188 7.37223 16.6548 7.03623 16.6548 6.62223V5.45223L17.8248 5.45123C18.2398 5.45123 18.5748 5.11523 18.5748 4.70123C18.5748 4.28723 18.2388 3.95123 17.8248 3.95123L16.6548 3.95223V2.78223C16.6548 2.36823 16.3198 2.03223 15.9048 2.03223C15.4908 2.03223 15.1548 2.36823 15.1548 2.78223V3.95223H13.9838C13.5688 3.95223 13.2338 4.28823 13.2338 4.70223C13.2338 5.11723 13.5698 5.45223 13.9838 5.45223H15.1548V6.62223Z" fill="black"/>
<path d="M11.9538 4.45029C11.9538 3.95023 12.0381 3.47142 12.1892 3.02238C12.2353 2.8853 12.1435 2.71729 11.9988 2.71729C9.70584 2.71729 7.84084 4.58329 7.84084 6.87629V11.0973C7.83784 12.2113 8.26784 13.2583 9.05384 14.0473C9.83884 14.8363 10.8848 15.2723 11.9978 15.2743H12.0028C14.2988 15.2683 16.1638 13.3953 16.1588 11.0993V9.31683C16.1588 9.10694 15.996 8.93463 15.7885 8.90278C13.6193 8.56983 11.9538 6.71309 11.9538 4.45029Z" fill="black"/>
<path d="M12.75 19.0837V21.2176C12.75 21.6316 12.414 21.9676 12 21.9676C11.586 21.9676 11.25 21.6316 11.25 21.2176V19.084C9.40121 18.9084 7.68998 18.1026 6.36499 16.7714C4.86199 15.2614 4.03799 13.2574 4.04299 11.1274C4.04399 10.7144 4.37899 10.3794 4.79299 10.3794H4.79499C5.20899 10.3804 5.54399 10.7174 5.54299 11.1314C5.53899 12.8604 6.20899 14.4874 7.42799 15.7134C8.64034 16.9307 10.2526 17.6079 11.9695 17.6202C11.9796 17.6198 11.9898 17.6196 12 17.6196C12.0104 17.6196 12.0207 17.6198 12.031 17.6203C15.5837 17.5956 18.465 14.6907 18.457 11.1314C18.456 10.7174 18.791 10.3804 19.205 10.3794H19.207C19.621 10.3794 19.956 10.7144 19.957 11.1274C19.9664 15.2721 16.7958 18.6953 12.75 19.0837Z" fill="black"/>
</svg>