<svg width="24" height="24" viewBox="0 0 24 24" fill="none" xmlns="http://www.w3.org/2000/svg">
<path fill-rule="evenodd" clip-rule="evenodd" d="M8.01571 3.82584C8.62129 3.17736 9.47655 2.82422 10.4612 2.82422H18.4119C19.3969 2.82422 20.2504 3.17765 20.8538 3.8274C21.4512 4.47078 21.7477 5.34392 21.7477 6.29234V17.7044C21.7477 18.6528 21.4512 19.5259 20.8538 20.1693C20.2504 20.819 19.3969 21.1725 18.4119 21.1725H10.4612C9.47655 21.1725 8.62129 20.8193 8.01571 20.1709C7.41553 19.5282 7.11523 18.6548 7.11523 17.7044V16.8696C7.11523 16.4554 7.45102 16.1196 7.86523 16.1196C8.27945 16.1196 8.61523 16.4554 8.61523 16.8696V17.7044C8.61523 18.342 8.81377 18.8277 9.112 19.1471C9.40481 19.4606 9.84753 19.6725 10.4612 19.6725H18.4119C19.0253 19.6725 19.4646 19.4609 19.7546 19.1486C20.0505 18.83 20.2477 18.3441 20.2477 17.7044V6.29234C20.2477 5.65264 20.0505 5.16672 19.7546 4.84807C19.4646 4.53579 19.0253 4.32422 18.4119 4.32422H10.4612C9.84753 4.32422 9.40481 4.53608 9.112 4.84963C8.81377 5.16898 8.61523 5.6547 8.61523 6.29234V7.12711C8.61523 7.54133 8.27945 7.87711 7.86523 7.87711C7.45102 7.87711 7.11523 7.54133 7.11523 7.12711V6.29234C7.11523 5.34186 7.41553 4.46852 8.01571 3.82584Z" fill="black"/>
<path fill-rule="evenodd" clip-rule="evenodd" d="M3.14855 7.37981C3.75306 6.73119 4.60655 6.37891 5.58781 6.37891H10.1516C11.1345 6.37891 11.9883 6.73092 12.5927 7.38012C13.1914 8.02326 13.4894 8.89719 13.4894 9.84906V14.1492C13.4894 15.1011 13.1914 15.975 12.5927 16.6181C11.9883 17.2673 11.1345 17.6193 10.1516 17.6193H5.58781C4.60493 17.6193 3.75109 17.2673 3.14674 16.6181C2.54803 15.975 2.25 15.1011 2.25 14.1492V9.84906C2.25 8.89638 2.54953 8.02256 3.14855 7.37981ZM4.24588 8.40249C3.94879 8.72126 3.75 9.20752 3.75 9.84906V14.1492C3.75 14.7915 3.94826 15.2777 4.24464 15.5961C4.53539 15.9084 4.97545 16.1193 5.58781 16.1193H10.1516C10.764 16.1193 11.204 15.9084 11.4948 15.5961C11.7912 15.2777 11.9894 14.7915 11.9894 14.1492V9.84906C11.9894 9.20671 11.7912 8.72056 11.4948 8.40218C11.204 8.08986 10.764 7.87891 10.1516 7.87891H5.58781C4.97791 7.87891 4.53749 8.08959 4.24588 8.40249Z" fill="black"/>
<path fill-rule="evenodd" clip-rule="evenodd" d="M16.2188 2.82812C16.633 2.82812 16.9688 3.16391 16.9688 3.57812V15.0665C16.9688 15.1542 17.0392 15.2246 17.1268 15.2246H20.9994C21.4136 15.2246 21.7494 15.5604 21.7494 15.9746C21.7494 16.3888 21.4136 16.7246 20.9994 16.7246H17.1268C16.2107 16.7246 15.4688 15.9826 15.4688 15.0665V3.57812C15.4688 3.16391 15.8045 2.82812 16.2188 2.82812Z" fill="black"/>
<path fill-rule="evenodd" clip-rule="evenodd" d="M11.9912 11.9961C11.9912 11.5819 12.327 11.2461 12.7412 11.2461H20.9974C21.4116 11.2461 21.7474 11.5819 21.7474 11.9961C21.7474 12.4103 21.4116 12.7461 20.9974 12.7461H12.7412C12.327 12.7461 11.9912 12.4103 11.9912 11.9961Z" fill="black"/>
<path fill-rule="evenodd" clip-rule="evenodd" d="M11.4199 8.02344C11.4199 7.60922 11.7557 7.27344 12.1699 7.27344H20.9992C21.4134 7.27344 21.7492 7.60922 21.7492 8.02344C21.7492 8.43765 21.4134 8.77344 20.9992 8.77344H12.1699C11.7557 8.77344 11.4199 8.43765 11.4199 8.02344Z" fill="black"/>
<path fill-rule="evenodd" clip-rule="evenodd" d="M5.94276 9.5313C6.27499 9.28392 6.74485 9.35271 6.99223 9.68494L7.77568 10.7371L8.55913 9.68494C8.8065 9.35271 9.27637 9.28392 9.6086 9.5313C9.94083 9.77868 10.0096 10.2485 9.76224 10.5808L8.71075 11.9929L9.76125 13.4038C10.0086 13.736 9.93984 14.2059 9.60761 14.4532C9.27538 14.7006 8.80551 14.6318 8.55813 14.2996L7.77568 13.2488L6.99322 14.2996C6.74585 14.6318 6.27598 14.7006 5.94375 14.4532C5.61152 14.2059 5.54273 13.736 5.79011 13.4038L6.84061 11.9929L5.78911 10.5808C5.54174 10.2485 5.61052 9.77868 5.94276 9.5313Z" fill="black"/>
</svg>