<svg width="24" height="24" viewBox="0 0 24 24" fill="none" xmlns="http://www.w3.org/2000/svg">
<g opacity="0.4">
<path fill-rule="evenodd" clip-rule="evenodd" d="M9.52488 17.6202H7.04488C6.87919 17.6202 6.74365 17.7549 6.75604 17.9201C6.8814 19.5923 8.05429 20.9202 9.83488 20.9202H17.7849C19.6049 20.9202 20.8749 19.6002 20.8749 17.7102V17.0202C20.8749 16.8545 20.7406 16.7202 20.5749 16.7202H11.9891C11.9096 16.7202 11.8338 16.7524 11.7751 16.8062C11.2026 17.3318 10.4268 17.6202 9.52488 17.6202Z" fill="black"/>
<path fill-rule="evenodd" clip-rule="evenodd" d="M17.7848 3.08008H9.83475C8.05417 3.08008 6.88128 4.40804 6.75591 6.08019C6.74353 6.24541 6.87907 6.38008 7.04475 6.38008H9.52475C10.4272 6.38008 11.1942 6.67784 11.7659 7.18765C11.8239 7.23939 11.8982 7.27008 11.9759 7.27008H20.5748C20.7404 7.27008 20.8748 7.13576 20.8748 6.97008V6.29008C20.8748 4.40008 19.6048 3.08008 17.7848 3.08008Z" fill="black"/>
</g>
<path opacity="0.4" fill-rule="evenodd" clip-rule="evenodd" d="M11.365 14.1489V9.84891C11.365 8.61891 10.675 7.87891 9.525 7.87891H4.965C3.825 7.87891 3.125 8.63891 3.125 9.84891V14.1489C3.125 15.3689 3.825 16.1189 4.965 16.1189H9.525C10.665 16.1189 11.365 15.3689 11.365 14.1489Z" fill="black"/>
<path fill-rule="evenodd" clip-rule="evenodd" d="M12.8647 9.84953V10.9495C12.8647 11.1152 12.999 11.2495 13.1647 11.2495H20.5747C20.7404 11.2495 20.8747 11.1152 20.8747 10.9495V9.06953C20.8747 8.90385 20.7404 8.76953 20.5747 8.76953H13.1144C12.9176 8.76953 12.7743 8.95619 12.8069 9.15037C12.8446 9.37537 12.8647 9.60842 12.8647 9.84953Z" fill="black"/>
<path fill-rule="evenodd" clip-rule="evenodd" d="M12.8647 14.1498C12.8647 14.3872 12.8452 14.6168 12.8086 14.8362C12.776 15.0313 12.9197 15.2198 13.1175 15.2198H20.5747C20.7404 15.2198 20.8747 15.0854 20.8747 14.9198V13.0498C20.8747 12.8841 20.7404 12.7498 20.5747 12.7498H13.1647C12.999 12.7498 12.8647 12.8841 12.8647 13.0498V14.1498Z" fill="black"/>
<path d="M8.64491 14.4195H8.68491C9.00491 14.3995 9.27491 14.1895 9.36491 13.8795L10.3049 10.5395C10.4149 10.1395 10.1849 9.72949 9.79491 9.60949C9.38491 9.49949 8.97491 9.72949 8.86491 10.1295L8.50491 11.3995L7.93491 10.0395C7.81491 9.76949 7.53491 9.62949 7.24491 9.62949C6.95491 9.62949 6.67491 9.76949 6.55491 10.0395L5.98491 11.3995L5.62491 10.1295C5.51491 9.72949 5.09491 9.49949 4.69491 9.60949C4.29491 9.72949 4.06491 10.1395 4.18491 10.5395L5.12491 13.8795C5.21491 14.1895 5.48491 14.3995 5.79491 14.4195C6.13491 14.4395 6.41491 14.2595 6.53491 13.9595L7.24491 12.2795L7.95491 13.9595C8.06491 14.2395 8.34491 14.4195 8.64491 14.4195Z" fill="black"/>
</svg>