<svg width="24" height="24" viewBox="0 0 24 24" fill="none" xmlns="http://www.w3.org/2000/svg">
<path fill-rule="evenodd" clip-rule="evenodd" d="M13.7012 11.462C15.1496 12.3605 16.9117 12.959 19.9992 11.6674L21.5002 6.48236C19.4517 7.2758 17.1545 7.1014 15.2492 6.00781L13.7012 11.462Z" stroke="black" stroke-width="1.5" stroke-linecap="round" stroke-linejoin="round"/>
<path fill-rule="evenodd" clip-rule="evenodd" d="M11.0874 9.7995L12.6562 4.38984C11.1754 3.46707 9.53277 2.93789 6.34657 4.17484L4.86328 9.33863C6.94146 8.62947 9.14812 8.71225 11.0874 9.7995Z" stroke="black" stroke-width="1.5" stroke-linecap="round" stroke-linejoin="round"/>
<path fill-rule="evenodd" clip-rule="evenodd" d="M11.3457 19.6103C12.827 20.5326 14.4677 21.0623 17.6437 19.8248L19.1371 14.6762C17.0962 15.4489 14.8167 15.2697 12.9216 14.1875L11.3457 19.6103Z" stroke="black" stroke-width="1.5" stroke-linecap="round" stroke-linejoin="round"/>
<path fill-rule="evenodd" clip-rule="evenodd" d="M3.98838 12.4067L2.5 17.6085C4.55842 16.9564 6.8095 17.0034 8.69735 18.1336L10.2975 12.6339C8.81523 11.7086 7.17205 11.1759 3.98838 12.4067Z" stroke="black" stroke-width="1.5" stroke-linecap="round" stroke-linejoin="round"/>
</svg>