<svg width="24" height="24" viewBox="0 0 24 24" fill="none" xmlns="http://www.w3.org/2000/svg">
<path fill-rule="evenodd" clip-rule="evenodd" d="M8.01573 3.82586C8.62133 3.17737 9.47661 2.82422 10.4613 2.82422H18.4123C19.3972 2.82422 20.2508 3.17766 20.8542 3.82742C21.4516 4.47082 21.7481 5.34398 21.7481 6.29242V17.7048C21.7481 18.6532 21.4516 19.5264 20.8542 20.1698C20.2508 20.8196 19.3972 21.173 18.4123 21.173H10.4613C9.47661 21.173 8.62133 20.8198 8.01573 20.1713C7.41554 19.5287 7.11523 18.6553 7.11523 17.7048V16.87C7.11523 16.4558 7.45102 16.12 7.86523 16.12C8.27945 16.12 8.61523 16.4558 8.61523 16.87V17.7048C8.61523 18.3425 8.81377 18.8282 9.11202 19.1476C9.40485 19.4611 9.84759 19.673 10.4613 19.673H18.4123C19.0256 19.673 19.465 19.4614 19.755 19.1491C20.0509 18.8305 20.2481 18.3445 20.2481 17.7048V6.29242C20.2481 5.6527 20.0509 5.16676 19.755 4.8481C19.465 4.5358 19.0256 4.32422 18.4123 4.32422H10.4613C9.84759 4.32422 9.40485 4.53608 9.11202 4.84965C8.81377 5.16902 8.61523 5.65475 8.61523 6.29242V7.12722C8.61523 7.54144 8.27945 7.87722 7.86523 7.87722C7.45102 7.87722 7.11523 7.54144 7.11523 7.12722V6.29242C7.11523 5.34192 7.41554 4.46856 8.01573 3.82586Z" fill="black"/>
<path fill-rule="evenodd" clip-rule="evenodd" d="M3.14858 7.37983C3.75309 6.73119 4.6066 6.37891 5.58789 6.37891H10.1518C11.1347 6.37891 11.9886 6.73093 12.593 7.38014C13.1917 8.0233 13.4897 8.89725 13.4897 9.84914V14.1494C13.4897 15.1013 13.1917 15.9752 12.593 16.6184C11.9886 17.2676 11.1347 17.6196 10.1518 17.6196H5.58789C4.60499 17.6196 3.75112 17.2676 3.14676 16.6184C2.54804 15.9752 2.25 15.1013 2.25 14.1494V9.84914C2.25 8.89644 2.54954 8.0226 3.14858 7.37983ZM4.2459 8.40251C3.9488 8.7213 3.75 9.20757 3.75 9.84914V14.1494C3.75 14.7918 3.94826 15.2779 4.24466 15.5963C4.53542 15.9087 4.9755 16.1196 5.58789 16.1196H10.1518C10.7642 16.1196 11.2043 15.9087 11.495 15.5963C11.7914 15.2779 11.9897 14.7918 11.9897 14.1494V9.84914C11.9897 9.20677 11.7914 8.7206 11.495 8.4022C11.2043 8.08987 10.7642 7.87891 10.1518 7.87891H5.58789C4.97796 7.87891 4.53753 8.0896 4.2459 8.40251Z" fill="black"/>
<path fill-rule="evenodd" clip-rule="evenodd" d="M5.32362 9.60633C5.72223 9.49371 6.13666 9.72554 6.24928 10.1242L6.60883 11.3967L7.17719 10.0385C7.2939 9.75966 7.56664 9.57811 7.86896 9.57807C8.17128 9.57803 8.44407 9.75951 8.56085 10.0384L9.13006 11.3976L9.48985 10.1242C9.60247 9.72554 10.0169 9.49371 10.4155 9.60633C10.8141 9.71895 11.046 10.1334 10.9333 10.532L9.98961 13.8722C9.9029 14.1791 9.63161 14.3976 9.31329 14.4169C8.99498 14.4362 8.69925 14.2522 8.57607 13.958L7.86931 12.2703L7.16313 13.9578C7.04001 14.252 6.74429 14.4362 6.42594 14.4169C6.10758 14.3977 5.83624 14.1791 5.74952 13.8722L4.80579 10.532C4.69317 10.1334 4.92501 9.71895 5.32362 9.60633Z" fill="black"/>
<path fill-rule="evenodd" clip-rule="evenodd" d="M11.4287 15.9727C11.4287 15.5584 11.7645 15.2227 12.1787 15.2227H20.9991C21.4133 15.2227 21.7491 15.5584 21.7491 15.9727C21.7491 16.3869 21.4133 16.7227 20.9991 16.7227H12.1787C11.7645 16.7227 11.4287 16.3869 11.4287 15.9727Z" fill="black"/>
<path fill-rule="evenodd" clip-rule="evenodd" d="M11.9922 11.9961C11.9922 11.5819 12.328 11.2461 12.7422 11.2461H20.9986C21.4128 11.2461 21.7486 11.5819 21.7486 11.9961C21.7486 12.4103 21.4128 12.7461 20.9986 12.7461H12.7422C12.328 12.7461 11.9922 12.4103 11.9922 11.9961Z" fill="black"/>
<path fill-rule="evenodd" clip-rule="evenodd" d="M11.4199 8.02344C11.4199 7.60922 11.7557 7.27344 12.1699 7.27344H20.9995C21.4137 7.27344 21.7495 7.60922 21.7495 8.02344C21.7495 8.43765 21.4137 8.77344 20.9995 8.77344H12.1699C11.7557 8.77344 11.4199 8.43765 11.4199 8.02344Z" fill="black"/>
</svg>