<svg width="24" height="24" viewBox="0 0 24 24" fill="none" xmlns="http://www.w3.org/2000/svg">
<path fill-rule="evenodd" clip-rule="evenodd" d="M12.7511 8.62783C12.7511 8.79351 12.8854 8.92783 13.0511 8.92783H18.8951C19.0608 8.92783 19.1951 8.79351 19.1951 8.62783V7.77683C19.1951 4.96383 16.9051 2.67383 14.0921 2.67383H13.0511C12.8854 2.67383 12.7511 2.80814 12.7511 2.97383V8.62783Z" fill="black"/>
<path fill-rule="evenodd" clip-rule="evenodd" d="M12.006 10.4277C12.004 10.4277 12.003 10.4287 12.001 10.4287C11.999 10.4287 11.998 10.4277 11.996 10.4277H5.10496C4.93928 10.4277 4.80496 10.562 4.80496 10.7277V16.2217C4.80496 19.0357 7.09496 21.3257 9.90896 21.3257H14.092C16.906 21.3257 19.196 19.0357 19.196 16.2207V10.7277C19.196 10.562 19.0616 10.4277 18.896 10.4277H12.006Z" fill="black"/>
<path fill-rule="evenodd" clip-rule="evenodd" d="M10.9511 8.92783C11.1168 8.92783 11.2511 8.79351 11.2511 8.62783V2.97383C11.2511 2.80814 11.1168 2.67383 10.9511 2.67383H9.90808C7.09408 2.67383 4.80408 4.96383 4.80408 7.77783V8.62783C4.80408 8.79351 4.93839 8.92783 5.10408 8.92783H10.9511Z" fill="black"/>
</svg>