<svg width="24" height="24" viewBox="0 0 24 24" fill="none" xmlns="http://www.w3.org/2000/svg">
<path fill-rule="evenodd" clip-rule="evenodd" d="M12.7692 13.9725C12.7692 16.0025 11.4092 17.4125 9.46919 17.4125H5.74437C5.57684 17.4125 5.48512 17.6051 5.59565 17.731C7.24277 19.607 9.62915 20.7025 12.1592 20.7025C16.5846 20.7025 20.2751 17.3755 20.8241 13.0328C20.839 12.9153 20.7464 12.8125 20.6279 12.8125H12.9692C12.8587 12.8125 12.7692 12.902 12.7692 13.0125V13.9725Z" fill="black"/>
<path opacity="0.4" fill-rule="evenodd" clip-rule="evenodd" d="M9.46917 15.9113C10.5792 15.9113 11.2692 15.1713 11.2692 13.9713V9.72125C11.2692 8.53125 10.5792 7.78125 9.46917 7.78125H4.95917C3.83917 7.78125 3.14917 8.53125 3.14917 9.72125V13.9713C3.14917 15.1713 3.83917 15.9113 4.95917 15.9113H9.46917Z" fill="black"/>
<path fill-rule="evenodd" clip-rule="evenodd" d="M5.24927 14.151V9.79102C5.24927 9.56102 5.35927 9.35102 5.52927 9.21102C5.65927 9.10102 5.81927 9.04102 5.99927 9.04102H7.52927C8.67927 9.04102 9.61927 9.98102 9.61927 11.131C9.61927 12.291 8.67927 13.221 7.52927 13.221H6.74927V14.151C6.74927 14.571 6.41927 14.901 5.99927 14.901C5.76927 14.901 5.56927 14.801 5.42927 14.631C5.31927 14.501 5.24927 14.341 5.24927 14.151ZM7.52924 10.541C7.84924 10.541 8.11924 10.811 8.11924 11.131C8.11924 11.461 7.84924 11.721 7.52924 11.721H6.74924V10.541H7.52924Z" fill="black"/>
<g opacity="0.4">
<path fill-rule="evenodd" clip-rule="evenodd" d="M12.769 11.1121C12.769 11.2226 12.8586 11.3121 12.969 11.3121H20.6531C20.7696 11.3121 20.8616 11.2125 20.8498 11.0966C20.43 6.96912 17.1218 3.68986 12.9932 3.29971C12.8778 3.2888 12.779 3.38063 12.779 3.49656V9.46212C12.779 9.51212 12.779 9.55212 12.759 9.59212C12.759 9.59212 12.769 9.60212 12.759 9.61212C12.769 9.65212 12.769 9.68212 12.769 9.72212V11.1121Z" fill="black"/>
<path fill-rule="evenodd" clip-rule="evenodd" d="M10.9592 6.61143C11.1016 6.68101 11.2791 6.58306 11.2791 6.42456V3.51377C11.2791 3.39524 11.1765 3.30252 11.0589 3.31751C9.0499 3.5736 7.22161 4.49345 5.83876 5.9594C5.72164 6.08356 5.81211 6.28218 5.9828 6.28218H9.46906C10.0202 6.28218 10.5203 6.39703 10.9592 6.61143Z" fill="black"/>
</g>
</svg>