<svg width="25" height="24" viewBox="0 0 25 24" fill="none" xmlns="http://www.w3.org/2000/svg">
<path opacity="0.4" d="M9.11458 5.99968V12.0224C7.90712 12.935 7.11415 14.3692 7.11415 15.9999C7.11415 18.7612 9.35296 21 12.1143 21C14.8756 21 17.1144 18.7612 17.1144 15.9999C17.1144 14.3692 16.3224 12.935 15.1149 12.0224V5.99968C15.1149 4.3427 13.7712 3 12.1143 3C10.4573 3 9.11458 4.3427 9.11458 5.99968Z" stroke="black" stroke-width="1.5" stroke-linecap="round" stroke-linejoin="round"/>
<path fill-rule="evenodd" clip-rule="evenodd" d="M13.5868 15.9999C13.5868 16.8133 12.9271 17.473 12.1137 17.473C11.2993 17.473 10.6396 16.8133 10.6396 15.9999C10.6396 15.1865 11.2993 14.5259 12.1137 14.5259C12.9271 14.5259 13.5868 15.1865 13.5868 15.9999Z" stroke="black" stroke-width="1.5" stroke-linecap="round" stroke-linejoin="round"/>
<path d="M12.1143 9.07516V14.5268" stroke="black" stroke-width="1.5" stroke-linecap="round" stroke-linejoin="round"/>
</svg>