<svg width="25" height="25" viewBox="0 0 25 25" fill="none" xmlns="http://www.w3.org/2000/svg">
<path d="M8.79394 12.648C8.79394 10.3089 10.6901 8.41271 13.0292 8.41271C15.3683 8.41271 17.2645 10.3089 17.2645 12.648C17.2645 14.9871 15.3683 16.8833 13.0292 16.8833C10.6901 16.8833 8.79394 14.9871 8.79394 12.648Z" stroke="black" stroke-width="1.5" stroke-linecap="round"/>
<path opacity="0.4" d="M8.32805 17.3491L10.0045 15.6727" stroke="black" stroke-width="1.5" stroke-linecap="round"/>
<path d="M17.2646 6.82485C17.2646 5.94769 17.9756 5.23662 18.8528 5.23662C19.73 5.23662 20.441 5.94769 20.441 6.82485C20.441 7.70201 19.73 8.41309 18.8528 8.41309C17.9756 8.41309 17.2646 7.70201 17.2646 6.82485Z" stroke="black" stroke-width="1.5" stroke-linecap="round"/>
<path d="M5.08819 18.7364C5.08819 17.7131 5.91777 16.8835 6.94113 16.8835C7.96448 16.8835 8.79407 17.7131 8.79407 18.7364C8.79407 19.7598 7.96448 20.5894 6.94113 20.5894C5.91777 20.5894 5.08819 19.7598 5.08819 18.7364Z" stroke="black" stroke-width="1.5" stroke-linecap="round"/>
<path d="M3.49995 5.76603C3.49995 4.3041 4.68508 3.11897 6.14701 3.11897C7.60894 3.11897 8.79407 4.3041 8.79407 5.76603C8.79407 7.22796 7.60894 8.41309 6.14701 8.41309C4.68508 8.41309 3.49995 7.22796 3.49995 5.76603Z" stroke="black" stroke-width="1.5" stroke-linecap="round"/>
<path d="M17.2646 19.001C17.2646 17.8315 18.2127 16.8834 19.3822 16.8834C20.5518 16.8834 21.4999 17.8315 21.4999 19.001C21.4999 20.1705 20.5518 21.1187 19.3822 21.1187C18.2127 21.1187 17.2646 20.1705 17.2646 19.001Z" stroke="black" stroke-width="1.5" stroke-linecap="round"/>
<path opacity="0.4" d="M9.97205 9.59082L8.05821 7.67698" stroke="black" stroke-width="1.5" stroke-linecap="round"/>
<path opacity="0.4" d="M16.087 9.59082L17.6888 7.98893" stroke="black" stroke-width="1.5" stroke-linecap="round"/>
<path opacity="0.4" d="M17.7941 17.4131L16.1177 15.7368" stroke="black" stroke-width="1.5" stroke-linecap="round"/>
</svg>