<svg width="25" height="25" viewBox="0 0 25 25" fill="none" xmlns="http://www.w3.org/2000/svg">
<path d="M8.79406 12.648C8.79406 10.3089 10.6903 8.41271 13.0294 8.41271C15.3684 8.41271 17.2646 10.3089 17.2646 12.648C17.2646 14.9871 15.3684 16.8833 13.0294 16.8833C10.6903 16.8833 8.79406 14.9871 8.79406 12.648Z" stroke="black" stroke-width="1.5" stroke-linecap="round"/>
<path d="M8.32842 17.3491L10.0049 15.6727" stroke="black" stroke-width="1.5" stroke-linecap="round"/>
<path d="M17.2649 6.82485C17.2649 5.94769 17.976 5.23662 18.8532 5.23662C19.7303 5.23662 20.4414 5.94769 20.4414 6.82485C20.4414 7.70201 19.7303 8.41309 18.8532 8.41309C17.976 8.41309 17.2649 7.70201 17.2649 6.82485Z" stroke="black" stroke-width="1.5" stroke-linecap="round"/>
<path d="M5.08806 18.7364C5.08806 17.7131 5.91765 16.8835 6.941 16.8835C7.96436 16.8835 8.79395 17.7131 8.79395 18.7364C8.79395 19.7598 7.96436 20.5894 6.941 20.5894C5.91765 20.5894 5.08806 19.7598 5.08806 18.7364Z" stroke="black" stroke-width="1.5" stroke-linecap="round"/>
<path d="M3.49983 5.76603C3.49983 4.3041 4.68496 3.11897 6.14689 3.11897C7.60882 3.11897 8.79395 4.3041 8.79395 5.76603C8.79395 7.22796 7.60882 8.41309 6.14689 8.41309C4.68496 8.41309 3.49983 7.22796 3.49983 5.76603Z" stroke="black" stroke-width="1.5" stroke-linecap="round"/>
<path d="M17.2647 19.001C17.2647 17.8315 18.2128 16.8834 19.3824 16.8834C20.5519 16.8834 21.5 17.8315 21.5 19.001C21.5 20.1705 20.5519 21.1187 19.3824 21.1187C18.2128 21.1187 17.2647 20.1705 17.2647 19.001Z" stroke="black" stroke-width="1.5" stroke-linecap="round"/>
<path d="M9.97217 9.59082L8.05833 7.67698" stroke="black" stroke-width="1.5" stroke-linecap="round"/>
<path d="M16.0871 9.59082L17.689 7.98893" stroke="black" stroke-width="1.5" stroke-linecap="round"/>
<path d="M17.7939 17.4131L16.1176 15.7368" stroke="black" stroke-width="1.5" stroke-linecap="round"/>
</svg>