<svg width="24" height="24" viewBox="0 0 24 24" fill="none" xmlns="http://www.w3.org/2000/svg">
<path opacity="0.4" d="M10.5331 2.89224C11.4407 2.36925 12.5592 2.36925 13.4668 2.89224L19.1533 6.1753C20.0611 6.69959 20.6205 7.66839 20.6205 8.71775V15.2825C20.6205 16.331 20.061 17.2997 19.1533 17.8239L13.4672 21.1068C12.5594 21.6311 11.4405 21.6311 10.5327 21.1068L4.8466 17.824C3.93888 17.2997 3.37939 16.331 3.37939 15.2825V8.71775C3.37939 7.66839 3.93873 6.69962 4.84655 6.17534L10.5331 2.89224Z" fill="black"/>
<path d="M8.94104 11.252C8.52683 11.252 8.19104 11.5877 8.19104 12.002C8.19104 12.4162 8.52683 12.752 8.94104 12.752H15.0592C15.4734 12.752 15.8092 12.4162 15.8092 12.002C15.8092 11.5877 15.4734 11.252 15.0592 11.252H8.94104Z" fill="black"/>
</svg>