<svg width="24" height="24" viewBox="0 0 24 24" fill="none" xmlns="http://www.w3.org/2000/svg">
<path fill-rule="evenodd" clip-rule="evenodd" d="M10.5332 2.89224C11.4408 2.36925 12.5592 2.36925 13.4668 2.89224L19.1533 6.1753C20.0611 6.69959 20.6205 7.66839 20.6205 8.71775V15.2825C20.6205 16.331 20.0611 17.2997 19.1534 17.8239L13.4673 21.1068C12.5594 21.6311 11.4406 21.6311 10.5327 21.1068L4.84666 17.824C3.93894 17.2997 3.37946 16.331 3.37946 15.2825V8.71775C3.37946 7.66839 3.93879 6.69962 4.84661 6.17534L10.5332 2.89224ZM8.94107 11.2521C8.52686 11.2521 8.19107 11.5879 8.19107 12.0021C8.19107 12.4163 8.52686 12.7521 8.94107 12.7521H15.0592C15.4734 12.7521 15.8092 12.4163 15.8092 12.0021C15.8092 11.5879 15.4734 11.2521 15.0592 11.2521H8.94107Z" fill="black"/>
</svg>