<svg width="24" height="24" viewBox="0 0 24 24" fill="none" xmlns="http://www.w3.org/2000/svg">
<path fill-rule="evenodd" clip-rule="evenodd" d="M3.7402 3.89737C4.72468 2.84117 6.12669 2.25 7.78216 2.25H16.2169C17.8762 2.25 19.2788 2.84084 20.2629 3.89765C21.2413 4.94841 21.75 6.39889 21.75 8.02638V15.9736C21.75 17.6011 21.2413 19.0516 20.2627 20.1024C19.2785 21.1592 17.8756 21.75 16.2159 21.75H7.78216C6.1228 21.75 4.72038 21.1591 3.73657 20.1023C2.75842 19.0515 2.25 17.601 2.25 15.9736V8.02638C2.25 6.39806 2.76117 4.94771 3.7402 3.89737ZM4.83745 4.92012C4.16024 5.64666 3.75 6.70951 3.75 8.02638V15.9736C3.75 17.2914 4.15861 18.3541 4.83451 19.0802C5.50475 19.8003 6.49341 20.25 7.78216 20.25H16.2159C17.5052 20.25 18.4944 19.8002 19.165 19.0801C19.8412 18.354 20.25 17.2913 20.25 15.9736V8.02638C20.25 6.70868 19.8412 5.64597 19.1651 4.91984C18.4946 4.19975 17.5056 3.75 16.2169 3.75H7.78216C6.49828 3.75 5.50921 4.19943 4.83745 4.92012Z" fill="black"/>
<path fill-rule="evenodd" clip-rule="evenodd" d="M13.5467 6.5315C13.6823 6.30593 13.9263 6.16797 14.1895 6.16797H15.7493C15.9128 6.16797 16.0718 6.2214 16.2021 6.32014L18.607 8.14192C18.8543 8.32923 18.9607 8.64944 18.8748 8.94751L16.4699 17.2891C16.3773 17.6102 16.0835 17.8313 15.7493 17.8313H14.1895C13.97 17.8313 13.7615 17.7352 13.619 17.5683C13.4765 17.4013 13.4143 17.1803 13.4488 16.9636L14.6527 9.38985L13.527 7.26967C13.4036 7.03721 13.4111 6.75706 13.5467 6.5315ZM15.4368 7.66797L16.0952 8.90808C16.1716 9.05191 16.1991 9.2167 16.1735 9.37753L15.0681 16.3313H15.1849L17.2909 9.02669L15.4973 7.66797H15.4368Z" fill="black"/>
<path fill-rule="evenodd" clip-rule="evenodd" d="M5.67634 6.51151C5.81444 6.29735 6.05183 6.16797 6.30665 6.16797H7.80279C8.00863 6.16797 8.20542 6.25257 8.34704 6.40193L11.0477 9.25026C11.2441 9.45744 11.3059 9.7582 11.207 10.026L8.50637 17.3411C8.39761 17.6357 8.11683 17.8313 7.80279 17.8313H6.30665C6.07967 17.8313 5.86491 17.7285 5.72254 17.5518C5.58017 17.375 5.52551 17.1433 5.57387 16.9215L7.01706 10.3043L5.62346 7.2274C5.51832 6.99528 5.53824 6.72566 5.67634 6.51151ZM7.46968 7.66797L8.48598 9.91182C8.55257 10.0588 8.56996 10.2234 8.53557 10.3811L7.23785 16.3313H7.28021L9.63837 9.94396L7.48038 7.66797H7.46968Z" fill="black"/>
<path fill-rule="evenodd" clip-rule="evenodd" d="M9.58668 6.52997C9.72251 6.30527 9.96596 6.16797 10.2285 6.16797H11.7139C11.9077 6.16797 12.0941 6.24303 12.2338 6.37741L14.6168 8.6693C14.8199 8.86467 14.8964 9.15743 14.8147 9.42717L12.4317 17.2986C12.3359 17.615 12.0444 17.8313 11.7139 17.8313H10.2285C10.0035 17.8313 9.79038 17.7303 9.64793 17.5561C9.50549 17.3819 9.44878 17.153 9.49345 16.9324L10.9259 9.86039L9.56444 7.26652C9.44241 7.03404 9.45085 6.75467 9.58668 6.52997ZM11.5278 7.77956L12.378 9.39938C12.4581 9.5521 12.4832 9.72778 12.449 9.89683L11.1457 16.3313H11.1573L13.246 9.43208L11.5278 7.77956Z" fill="black"/>
</svg>