<svg width="25" height="24" viewBox="0 0 25 24" fill="none" xmlns="http://www.w3.org/2000/svg">
<path opacity="0.4" fill-rule="evenodd" clip-rule="evenodd" d="M13.755 15.66C12.205 15.66 11.115 14.54 11.115 12.92V9.76C11.115 8.15 12.205 7.02 13.755 7.02H16.445V6.62C16.445 4.35 14.595 2.5 12.325 2.5H7.71497C5.44497 2.5 3.59497 4.35 3.59497 6.62V17.38C3.59497 19.66 5.44497 21.5 7.71497 21.5H12.325C14.595 21.5 16.445 19.66 16.445 17.38V15.66H13.755Z" fill="black"/>
<path fill-rule="evenodd" clip-rule="evenodd" d="M9.95575 16.4766C9.43975 16.4766 9.02075 16.8986 9.02075 17.4156C9.02075 17.9336 9.43975 18.3556 9.95575 18.3556C10.4718 18.3556 10.8918 17.9336 10.8918 17.4156C10.8918 16.8986 10.4718 16.4766 9.95575 16.4766Z" fill="black"/>
<path fill-rule="evenodd" clip-rule="evenodd" d="M13.755 7.01953H18.755C20.315 7.01953 21.405 8.14953 21.405 9.75953V12.9195C21.405 14.5395 20.315 15.6595 18.755 15.6595H13.755C12.205 15.6595 11.115 14.5395 11.115 12.9195V9.75953C11.115 8.14953 12.205 7.01953 13.755 7.01953ZM13.755 8.51953H18.755C19.635 8.51953 19.845 9.13953 19.885 9.54953H12.635C12.675 9.13953 12.885 8.51953 13.755 8.51953ZM19.905 12.9195C19.905 13.2995 19.795 14.1595 18.755 14.1595H13.755C12.725 14.1595 12.615 13.2995 12.615 12.9195V11.0495H19.905V12.9195Z" fill="black"/>
</svg>