<svg width="25" height="25" viewBox="0 0 25 25" fill="none" xmlns="http://www.w3.org/2000/svg">
<path d="M4.95203 17.7072C4.95203 19.7042 6.57203 21.3242 8.56963 21.3242H14.0853C16.0838 21.3242 17.7029 19.7042 17.7029 17.7062L17.7019 13.2422" stroke="black" stroke-width="1.5" stroke-linecap="round" stroke-linejoin="round"/>
<path d="M9.37917 3.32422H8.56967C6.57117 3.32422 4.95117 4.94421 4.95117 6.94321L4.95162 13.6539" stroke="black" stroke-width="1.5" stroke-linecap="round" stroke-linejoin="round"/>
<path d="M12.4863 5.23621C13.1353 4.09421 14.3632 3.32422 15.7711 3.32422C16.2867 3.32422 16.7781 3.42723 17.2257 3.61423" stroke="black" stroke-width="1.5" stroke-linecap="round" stroke-linejoin="round"/>
<path d="M18.8594 4.92188C19.2933 5.53688 19.5483 6.28686 19.5483 7.09686V9.90189" stroke="black" stroke-width="1.5" stroke-linecap="round" stroke-linejoin="round"/>
<path d="M17.2264 9.86099V7.23801C17.2264 6.41601 16.5609 5.75 15.7388 5.75C14.9176 5.75 14.252 6.41601 14.252 7.23801V7.63602" stroke="black" stroke-width="1.5" stroke-linecap="round" stroke-linejoin="round"/>
<path d="M11.9961 9.03241V7.56641M14.2518 10.7604V9.42239" stroke="black" stroke-width="1.5" stroke-linecap="round" stroke-linejoin="round"/>
<path d="M11.3257 17.5904V17.5274M11.0664 17.5774C11.0664 17.4334 11.1833 17.3164 11.3273 17.3164C11.4713 17.3164 11.588 17.4334 11.588 17.5774C11.588 17.7214 11.4713 17.8384 11.3273 17.8384C11.1833 17.8384 11.0664 17.7214 11.0664 17.5774Z" stroke="black" stroke-width="1.5" stroke-linecap="round" stroke-linejoin="round"/>
</svg>