<svg width="24" height="24" viewBox="0 0 24 24" fill="none" xmlns="http://www.w3.org/2000/svg">
<path fill-rule="evenodd" clip-rule="evenodd" d="M10.3952 17.41C10.3952 17.93 9.97521 18.35 9.45521 18.35C8.94521 18.35 8.52521 17.93 8.52521 17.41C8.52521 16.89 8.94521 16.47 9.45521 16.47C9.97521 16.47 10.3952 16.89 10.3952 17.41ZM19.3852 9.55H12.1352C12.1752 9.14 12.3852 8.52 13.2552 8.52H18.2552C19.1352 8.52 19.3452 9.14 19.3852 9.55ZM19.4052 12.92C19.4052 13.29 19.2952 14.16 18.2552 14.16H13.2552C12.2252 14.16 12.1152 13.29 12.1152 12.92V11.05H19.4052V12.92ZM18.2552 7.02H15.9462V6.62C15.9462 4.349 14.0992 2.5 11.8282 2.5H7.21221C4.94122 2.5 3.09521 4.349 3.09521 6.62L3.09621 17.38C3.09621 19.651 4.94221 21.5 7.21321 21.5H11.8282C14.1002 21.5 15.9472 19.651 15.9472 17.38V15.66H18.2552C19.8152 15.66 20.9052 14.53 20.9052 12.92V9.76C20.9052 8.15 19.8152 7.02 18.2552 7.02Z" fill="black"/>
</svg>