<svg width="24" height="24" viewBox="0 0 24 24" fill="none" xmlns="http://www.w3.org/2000/svg">
<path fill-rule="evenodd" clip-rule="evenodd" d="M12 17.6059C8.554 17.6059 5.854 15.6199 5.854 13.0849C5.882 12.4559 6.045 11.8669 6.326 11.3509C6.563 10.9069 6.885 10.5109 7.266 10.1939L7.982 6.96988C8.046 6.68288 8.276 6.46288 8.565 6.41288C8.856 6.36788 9.144 6.49188 9.3 6.74088L10.54 8.71188L10.739 8.67288C11.585 8.50888 12.441 8.50888 13.284 8.67288L13.462 8.70988L14.7 6.74088C14.856 6.49188 15.147 6.36788 15.435 6.41288C15.724 6.46288 15.954 6.68188 16.018 6.96888L16.734 10.1869C17.127 10.5139 17.444 10.9029 17.681 11.3459C17.963 11.8729 18.123 12.4649 18.146 13.0569C18.146 15.6199 15.446 17.6059 12 17.6059ZM12 2.50488C6.762 2.50488 2.5 6.76688 2.5 12.0049C2.5 17.2429 6.762 21.5049 12 21.5049C17.238 21.5049 21.5 17.2429 21.5 12.0049C21.5 6.76688 17.238 2.50488 12 2.50488Z" fill="black"/>
<path fill-rule="evenodd" clip-rule="evenodd" d="M10.3676 10.6678C10.1046 10.3488 9.63163 10.3008 9.31163 10.5648L8.66663 11.0958C8.34663 11.3578 8.30063 11.8308 8.56363 12.1508C8.71163 12.3308 8.92663 12.4248 9.14363 12.4248C9.31063 12.4248 9.47963 12.3688 9.61863 12.2538L10.2636 11.7238C10.5846 11.4608 10.6306 10.9878 10.3676 10.6678Z" fill="black"/>
<path fill-rule="evenodd" clip-rule="evenodd" d="M14.6889 10.5653C14.3699 10.3003 13.8969 10.3483 13.6329 10.6683C13.3709 10.9883 13.4169 11.4613 13.7369 11.7233L14.3819 12.2533C14.5209 12.3693 14.6899 12.4243 14.8569 12.4243C15.0739 12.4243 15.2889 12.3313 15.4379 12.1513C15.6999 11.8313 15.6539 11.3583 15.3339 11.0953L14.6889 10.5653Z" fill="black"/>
<path fill-rule="evenodd" clip-rule="evenodd" d="M12.6054 12.5154L11.9874 13.2334L11.3984 12.5254C11.1334 12.2064 10.6614 12.1634 10.3424 12.4274C10.0234 12.6934 9.98042 13.1654 10.2454 13.4844L11.4004 14.8734C11.5414 15.0434 11.7504 15.1424 11.9704 15.1444H11.9774C12.1954 15.1444 12.4024 15.0494 12.5454 14.8834L13.7424 13.4944C14.0124 13.1804 13.9774 12.7064 13.6634 12.4364C13.3504 12.1654 12.8764 12.2014 12.6054 12.5154Z" fill="black"/>
</svg>