<svg width="25" height="24" viewBox="0 0 25 24" fill="none" xmlns="http://www.w3.org/2000/svg">
<path opacity="0.4" d="M12.5 21C17.4706 21 21.5 16.9706 21.5 12C21.5 7.02944 17.4706 3 12.5 3C7.52944 3 3.5 7.02944 3.5 12C3.5 16.9706 7.52944 21 12.5 21Z" stroke="black" stroke-width="1.5" stroke-linecap="round" stroke-linejoin="round"/>
<path d="M17.7306 11.6724C17.9711 12.1202 18.106 12.6171 18.125 13.125C18.125 15.3 15.605 17.0625 12.5 17.0625C9.395 17.0625 6.875 15.3 6.875 13.125C6.89756 12.6183 7.03402 12.1233 7.27424 11.6766C7.51445 11.2299 7.85224 10.8432 8.2625 10.545L9.065 6.9375L10.625 9.42L11.3375 9.28125C12.1137 9.12746 12.9125 9.12746 13.6887 9.28125L14.375 9.42L15.935 6.9375L16.7375 10.5413C17.1504 10.8376 17.4901 11.2245 17.7306 11.6724Z" stroke="black" stroke-width="1.5" stroke-linecap="round" stroke-linejoin="round"/>
<path d="M10.2876 11.1406L9.64258 11.6675" stroke="black" stroke-width="1.5" stroke-linecap="round" stroke-linejoin="round"/>
<path d="M14.7129 11.1406L15.3579 11.6675" stroke="black" stroke-width="1.5" stroke-linecap="round" stroke-linejoin="round"/>
<path d="M11.3223 13L12.4773 14.3925L13.6735 13.0038" stroke="black" stroke-width="1.5" stroke-linecap="round" stroke-linejoin="round"/>
</svg>