<svg width="24" height="24" viewBox="0 0 24 24" fill="none" xmlns="http://www.w3.org/2000/svg">
<ellipse cx="19.141" cy="15.5229" rx="1.8588" ry="1.8588" stroke="black" stroke-width="1.5" stroke-linecap="round" stroke-linejoin="round"/>
<path d="M14.4545 7.43616C14.9513 6.53779 16.0823 6.21226 16.9807 6.70907C17.879 7.20587 18.2046 8.33689 17.7078 9.23526L13.6557 16.5625C13.1589 17.4609 12.0279 17.7864 11.1295 17.2896C10.2312 16.7928 9.90562 15.6618 10.4024 14.7634L14.4545 7.43616Z" stroke="black" stroke-width="1.5" stroke-linecap="round" stroke-linejoin="round"/>
<path d="M7.28456 7.43616C7.78136 6.53779 8.91238 6.21226 9.81075 6.70907C10.7091 7.20587 11.0346 8.33689 10.5378 9.23526L6.48579 16.5625C5.98898 17.4609 4.85797 17.7864 3.9596 17.2896C3.06123 16.7928 2.7357 15.6618 3.2325 14.7634L7.28456 7.43616Z" stroke="black" stroke-width="1.5" stroke-linecap="round" stroke-linejoin="round"/>
</svg>