<svg width="24" height="24" viewBox="0 0 24 24" fill="none" xmlns="http://www.w3.org/2000/svg">
<path fill-rule="evenodd" clip-rule="evenodd" d="M19.141 14.4141C18.5287 14.4141 18.0322 14.9105 18.0322 15.5229C18.0322 16.1352 18.5287 16.6317 19.141 16.6317C19.7534 16.6317 20.2498 16.1352 20.2498 15.5229C20.2498 14.9105 19.7534 14.4141 19.141 14.4141ZM16.5322 15.5229C16.5322 14.0821 17.7002 12.9141 19.141 12.9141C20.5818 12.9141 21.7498 14.0821 21.7498 15.5229C21.7498 16.9637 20.5818 18.1317 19.141 18.1317C17.7002 18.1317 16.5322 16.9637 16.5322 15.5229Z" fill="black"/>
<path fill-rule="evenodd" clip-rule="evenodd" d="M13.7983 7.07322C14.4956 5.81237 16.0829 5.35549 17.3438 6.05276C18.6046 6.75002 19.0615 8.33738 18.3642 9.59823L14.3122 16.9255C13.6149 18.1864 12.0276 18.6432 10.7667 17.946C9.50585 17.2487 9.04898 15.6614 9.74624 14.4005L13.7983 7.07322ZM16.6179 7.36541C16.082 7.06906 15.4073 7.26324 15.1109 7.79913L11.0589 15.1264C10.7625 15.6623 10.9567 16.337 11.4926 16.6333C12.0285 16.9297 12.7032 16.7355 12.9995 16.1996L17.0516 8.87232C17.3479 8.33643 17.1537 7.66176 16.6179 7.36541Z" fill="black"/>
<path fill-rule="evenodd" clip-rule="evenodd" d="M6.62837 7.07322C7.32563 5.81237 8.91299 5.35549 10.1738 6.05276C11.4347 6.75002 11.8916 8.33738 11.1943 9.59823L7.14225 16.9255C6.44499 18.1864 4.85763 18.6432 3.59678 17.946C2.33593 17.2487 1.87905 15.6614 2.57631 14.4005L6.62837 7.07322ZM9.44793 7.36541C8.91204 7.06906 8.23737 7.26324 7.94102 7.79913L3.88897 15.1264C3.59262 15.6623 3.7868 16.337 4.32269 16.6333C4.85858 16.9297 5.53325 16.7355 5.8296 16.1996L9.88165 8.87232C10.178 8.33643 9.98382 7.66176 9.44793 7.36541Z" fill="black"/>
</svg>