<svg width="25" height="25" viewBox="0 0 25 25" fill="none" xmlns="http://www.w3.org/2000/svg">
<path opacity="0.4" d="M13.7968 19.103H6.68447C4.72106 19.103 3.5 17.7176 3.5 15.7571V8.36942C3.5 6.40892 4.72106 5.02344 6.6835 5.02344H18.2908C20.2474 5.02344 21.4743 6.40892 21.4743 8.36942V10.3649" stroke="black" stroke-width="1.5" stroke-linecap="round" stroke-linejoin="round"/>
<path d="M6.70898 8.51953H8.11004" stroke="black" stroke-width="1.5" stroke-linecap="round" stroke-linejoin="round"/>
<path fill-rule="evenodd" clip-rule="evenodd" d="M10.2012 12.0618C10.2012 10.7999 11.2237 9.77734 12.4857 9.77734C13.7476 9.77734 14.7702 10.7999 14.7702 12.0618C14.7702 13.3238 13.7476 14.3463 12.4857 14.3463C11.2237 14.3463 10.2012 13.3238 10.2012 12.0618Z" stroke="black" stroke-width="1.5" stroke-linecap="round" stroke-linejoin="round"/>
<path d="M18.5907 14.4492L16.457 16.5819L18.5907 18.7156" stroke="black" stroke-width="1.5" stroke-linecap="round" stroke-linejoin="round"/>
<path d="M16.457 16.582L21.4998 16.5824" stroke="black" stroke-width="1.5" stroke-linecap="round" stroke-linejoin="round"/>
</svg>