<svg width="25" height="24" viewBox="0 0 25 24" fill="none" xmlns="http://www.w3.org/2000/svg">
<path opacity="0.4" d="M13.8116 19.0495H6.68941C4.72303 19.0495 3.5 17.6621 3.5 15.6986V8.30014C3.5 6.33668 4.72303 4.94922 6.68843 4.94922H18.3116C20.2711 4.94922 21.5 6.33668 21.5 8.30014V10.2986" stroke="black" stroke-width="1.5" stroke-linecap="round" stroke-linejoin="round"/>
<path d="M19.3086 14.3906L21.4452 16.5273L19.3086 18.6629" stroke="black" stroke-width="1.5" stroke-linecap="round" stroke-linejoin="round"/>
<path d="M21.4444 16.5254L16.3945 16.5257" stroke="black" stroke-width="1.5" stroke-linecap="round" stroke-linejoin="round"/>
<path d="M6.71289 8.45117H8.11592" stroke="black" stroke-width="1.5" stroke-linecap="round" stroke-linejoin="round"/>
<path fill-rule="evenodd" clip-rule="evenodd" d="M10.2129 12.0023C10.2129 10.7384 11.2374 9.71484 12.5003 9.71484C13.7642 9.71484 14.7888 10.7384 14.7888 12.0023C14.7888 13.2662 13.7642 14.2898 12.5003 14.2898C11.2374 14.2898 10.2129 13.2662 10.2129 12.0023Z" stroke="black" stroke-width="1.5" stroke-linecap="round" stroke-linejoin="round"/>
</svg>