<svg width="24" height="25" viewBox="0 0 24 25" fill="none" xmlns="http://www.w3.org/2000/svg">
<path fill-rule="evenodd" clip-rule="evenodd" d="M11.0439 14.1867C9.36892 14.1867 8.00592 12.8237 8.00592 11.1467C8.00592 9.4697 9.36892 8.1067 11.0439 8.1067C12.7189 8.1067 14.0819 9.4697 14.0819 11.1467C14.0819 12.8237 12.7189 14.1867 11.0439 14.1867ZM6.66192 8.3457H5.25892C4.84492 8.3457 4.50892 8.0097 4.50892 7.5957C4.50892 7.1817 4.84492 6.8457 5.25892 6.8457H6.66192C7.07592 6.8457 7.41192 7.1817 7.41192 7.5957C7.41192 8.0097 7.07592 8.3457 6.66192 8.3457ZM18.9589 11.5707C19.3695 11.5707 19.7695 11.6168 20.1548 11.7027C20.351 11.7465 20.5449 11.6024 20.5449 11.4014V7.4467C20.5449 5.1437 19.0629 3.5957 16.8569 3.5957H5.23292C3.02692 3.5957 1.54492 5.1437 1.54492 7.4467V14.8457C1.54492 17.1487 3.02692 18.6967 5.23392 18.6967H13.2343C13.4345 18.6967 13.5784 18.5043 13.5355 18.3087C13.4519 17.928 13.4059 17.5329 13.4059 17.1267C13.4059 14.0637 15.8969 11.5707 18.9589 11.5707Z" fill="black"/>
<path fill-rule="evenodd" clip-rule="evenodd" d="M11.0439 9.60669C10.1959 9.60669 9.50592 10.2967 9.50592 11.1467C9.50592 11.9967 10.1959 12.6867 11.0439 12.6867C11.8919 12.6867 12.5819 11.9967 12.5819 11.1467C12.5819 10.2967 11.8919 9.60669 11.0439 9.60669Z" fill="black"/>
<path fill-rule="evenodd" clip-rule="evenodd" d="M16.8815 16.9892C16.8815 16.7012 16.9435 16.4272 17.0515 16.1782L19.7325 18.8572C19.4825 18.9662 19.2085 19.0292 18.9185 19.0292C17.7955 19.0292 16.8815 18.1142 16.8815 16.9892ZM20.9555 16.9892C20.9555 17.2752 20.8955 17.5462 20.7895 17.7932L18.1115 15.1172C18.3595 15.0102 18.6315 14.9492 18.9185 14.9492C20.0415 14.9492 20.9555 15.8642 20.9555 16.9892ZM18.9185 13.4492C16.9685 13.4492 15.3815 15.0372 15.3815 16.9892C15.3815 18.9412 16.9685 20.5292 18.9185 20.5292C20.8685 20.5292 22.4555 18.9412 22.4555 16.9892C22.4555 15.0372 20.8685 13.4492 18.9185 13.4492Z" fill="black"/>
</svg>