<svg width="25" height="24" viewBox="0 0 25 24" fill="none" xmlns="http://www.w3.org/2000/svg">
<path d="M7.1899 11.3764C7.87973 10.2283 8.62404 9.09873 9.34598 7.96815L7.37281 4.27576C7.37281 4.27576 7.52362 4.14635 7.90016 3.85446C9.02588 2.98269 10.2576 2.75696 11.5896 3.27458C12.8584 3.76787 14.1456 4.14149 15.5233 4.06365C15.9242 4.0403 17.4624 3.83598 17.4624 3.83598L15.6556 7.96134C16.3776 9.09095 17.1199 10.2283 17.8098 11.3764C18.9442 13.264 20.0291 15.3695 19.1505 17.5606C18.1279 20.1117 15.1448 20.9582 12.4993 21C9.85484 20.9582 6.87174 20.1117 5.84916 17.5606C4.97057 15.3695 6.05542 13.264 7.1899 11.3764Z" stroke="black" stroke-width="1.5" stroke-linecap="round" stroke-linejoin="round"/>
<path d="M13.8706 12.332H11.8916C11.3029 12.332 10.8262 12.8088 10.8262 13.3974C10.8262 13.9861 11.3029 14.4638 11.8916 14.4638H13.1097C13.6984 14.4638 14.1751 14.9405 14.1751 15.5292C14.1751 16.1178 13.6984 16.5946 13.1097 16.5946H11.1307" stroke="black" stroke-width="1.5" stroke-linecap="round" stroke-linejoin="round"/>
<path d="M12.5 16.5959V17.491M12.5 11.4336V12.3365" stroke="black" stroke-width="1.5" stroke-linecap="round" stroke-linejoin="round"/>
<path opacity="0.4" d="M9.3457 7.97656C11.4492 8.46012 13.5518 8.46012 15.6554 7.97656" stroke="black" stroke-width="1.5" stroke-linecap="round" stroke-linejoin="round"/>
</svg>