<svg width="24" height="25" viewBox="0 0 24 25" fill="none" xmlns="http://www.w3.org/2000/svg">
<path opacity="0.4" fill-rule="evenodd" clip-rule="evenodd" d="M13.5192 15.257C13.8012 14.43 14.5102 13.841 15.3702 13.72L16.0404 13.6154C16.1385 13.6001 16.2227 13.5373 16.2653 13.4476L16.5942 12.754C16.9572 11.96 17.7762 11.431 18.6692 11.431C19.104 11.431 19.5159 11.5612 19.868 11.789C20.1211 11.9527 20.5942 11.7856 20.5942 11.4842V7.51897C20.5942 5.21597 19.1122 3.66797 16.9052 3.66797H5.28124C3.07524 3.66797 1.59424 5.21597 1.59424 7.51897V14.918C1.59424 17.221 3.07624 18.769 5.28224 18.769H14.3938C14.541 18.769 14.6665 18.6621 14.69 18.5168L14.699 18.4608C14.7143 18.3666 14.6838 18.2708 14.6169 18.2027L14.0602 17.636C13.4412 17.003 13.2352 16.093 13.5192 15.257Z" fill="black"/>
<path fill-rule="evenodd" clip-rule="evenodd" d="M19.8306 17.1153C19.6626 17.2863 19.5866 17.5263 19.6246 17.7623L19.7496 18.5323L19.1336 18.1943C18.9086 18.0713 18.6376 18.0713 18.4126 18.1943L17.7946 18.5333L17.9206 17.7623C17.9586 17.5263 17.8826 17.2863 17.7146 17.1153L17.1486 16.5403L17.9046 16.4233C18.1496 16.3853 18.3606 16.2273 18.4676 16.0033L18.7726 15.3583L19.0786 16.0033C19.1846 16.2273 19.3956 16.3853 19.6416 16.4233L20.3956 16.5403L19.8306 17.1153ZM22.3486 15.8753C22.2226 15.5103 21.9106 15.2513 21.5466 15.2013L20.2646 15.0023L19.6906 13.7933C19.5266 13.4283 19.1666 13.1943 18.7726 13.1943C18.3806 13.1943 18.0196 13.4283 17.8606 13.7813L17.2816 15.0023L16.0126 15.1993C15.6346 15.2513 15.3226 15.5103 15.1966 15.8753C15.0686 16.2483 15.1596 16.6553 15.4356 16.9383L16.3786 17.8963L16.1556 19.2673C16.0906 19.6563 16.2566 20.0533 16.5786 20.2763C16.7536 20.3973 16.9536 20.4583 17.1526 20.4583C17.3206 20.4583 17.4876 20.4153 17.6366 20.3303L18.7726 19.7073L19.8966 20.3223C20.2376 20.5173 20.6476 20.5003 20.9686 20.2763C21.2896 20.0533 21.4546 19.6563 21.3906 19.2703L21.1666 17.8963L22.1116 16.9353C22.3856 16.6553 22.4766 16.2483 22.3486 15.8753Z" fill="black"/>
<path fill-rule="evenodd" clip-rule="evenodd" d="M11.0934 14.259C9.41835 14.259 8.05535 12.896 8.05535 11.219C8.05535 9.54197 9.41835 8.17897 11.0934 8.17897C12.7683 8.17897 14.1314 9.54197 14.1314 11.219C14.1314 12.896 12.7683 14.259 11.0934 14.259ZM9.55529 11.219C9.55529 10.369 10.2453 9.67896 11.0933 9.67896C11.9413 9.67896 12.6313 10.369 12.6313 11.219C12.6313 12.069 11.9413 12.759 11.0933 12.759C10.2453 12.759 9.55529 12.069 9.55529 11.219Z" fill="black"/>
<path d="M6.71135 8.41797H5.30835C4.89435 8.41797 4.55835 8.08197 4.55835 7.66797C4.55835 7.25397 4.89435 6.91797 5.30835 6.91797H6.71135C7.12535 6.91797 7.46135 7.25397 7.46135 7.66797C7.46135 8.08197 7.12535 8.41797 6.71135 8.41797Z" fill="black"/>
</svg>