<svg width="24" height="25" viewBox="0 0 24 25" fill="none" xmlns="http://www.w3.org/2000/svg">
<path opacity="0.4" fill-rule="evenodd" clip-rule="evenodd" d="M17.603 8.79102H6.39602C4.25902 8.79102 2.82202 10.29 2.82202 12.521V17.881C2.82202 20.112 4.26002 21.611 6.39802 21.611H17.603C19.741 21.611 21.178 20.112 21.178 17.881V12.521C21.178 10.29 19.741 8.79102 17.603 8.79102Z" fill="black"/>
<path fill-rule="evenodd" clip-rule="evenodd" d="M10.4781 5.85367L11.2511 5.07767V7.36067C11.2511 7.77467 11.5871 8.11067 12.0011 8.11067C12.4151 8.11067 12.7511 7.77467 12.7511 7.36067V5.07967L13.5231 5.85367C13.6691 6.00067 13.8621 6.07467 14.0541 6.07467C14.2461 6.07467 14.4371 6.00067 14.5831 5.85567C14.8771 5.56367 14.8771 5.08767 14.5851 4.79467L12.5341 2.73667C12.3981 2.59967 12.2101 2.51367 12.0011 2.51367C11.8001 2.51367 11.6181 2.59567 11.4831 2.72567C11.4791 2.72967 11.4731 2.73067 11.4691 2.73467L9.41614 4.79467C9.12414 5.08767 9.12414 5.56367 9.41714 5.85567C9.71114 6.14767 10.1861 6.14767 10.4781 5.85367Z" fill="black"/>
<path fill-rule="evenodd" clip-rule="evenodd" d="M11.9991 18.1612C10.3691 18.1612 9.04312 16.8332 9.04312 15.2012C9.04312 13.5742 10.3691 12.2512 11.9991 12.2512C13.6291 12.2512 14.9551 13.5742 14.9551 15.2012C14.9551 16.8332 13.6291 18.1612 11.9991 18.1612ZM10.5428 15.2011C10.5428 14.4011 11.1958 13.7511 11.9988 13.7511C12.8018 13.7511 13.4548 14.4011 13.4548 15.2011C13.4548 16.0061 12.8018 16.6611 11.9988 16.6611C11.1958 16.6611 10.5428 16.0061 10.5428 15.2011Z" fill="black"/>
<path d="M17.5771 19.2012H16.2241C15.8101 19.2012 15.4741 18.8652 15.4741 18.4512C15.4741 18.0372 15.8101 17.7012 16.2241 17.7012H17.5771C17.9911 17.7012 18.3271 18.0372 18.3271 18.4512C18.3271 18.8652 17.9911 19.2012 17.5771 19.2012Z" fill="black"/>
<path d="M7.77412 12.7012H6.42212C6.00812 12.7012 5.67212 12.3652 5.67212 11.9512C5.67212 11.5372 6.00812 11.2012 6.42212 11.2012H7.77412C8.18812 11.2012 8.52412 11.5372 8.52412 11.9512C8.52412 12.3652 8.18812 12.7012 7.77412 12.7012Z" fill="black"/>
</svg>