<svg width="24" height="24" viewBox="0 0 24 24" fill="none" xmlns="http://www.w3.org/2000/svg">
<path opacity="0.4" fill-rule="evenodd" clip-rule="evenodd" d="M17.462 9.10352H6.53804C4.44504 9.10352 3.04004 10.5705 3.04004 12.7545V17.9735C3.04004 20.1575 4.44604 21.6245 6.53904 21.6245H17.462C19.554 21.6245 20.96 20.1575 20.96 17.9735V12.7545C20.96 10.5705 19.554 9.10352 17.462 9.10352Z" fill="black"/>
<path fill-rule="evenodd" clip-rule="evenodd" d="M10.3813 5.665L11.1093 4.937V7.274C11.1093 7.688 11.4443 8.024 11.8593 8.024C12.2733 8.024 12.6093 7.688 12.6093 7.274V4.937L13.3373 5.665C13.4843 5.811 13.6753 5.885 13.8673 5.885C14.0593 5.885 14.2513 5.811 14.3983 5.665C14.6913 5.373 14.6913 4.897 14.3983 4.604L12.3903 2.595C12.3213 2.526 12.2393 2.471 12.1493 2.433C12.0583 2.395 11.9603 2.375 11.8603 2.375C11.7593 2.375 11.6613 2.395 11.5713 2.433C11.4803 2.471 11.3983 2.526 11.3293 2.595L9.32034 4.604C9.02734 4.897 9.02734 5.372 9.32034 5.665C9.61334 5.958 10.0883 5.958 10.3813 5.665Z" fill="black"/>
<path fill-rule="evenodd" clip-rule="evenodd" d="M12.002 18.2634C10.402 18.2634 9.10101 16.9634 9.10101 15.3634C9.10101 13.7644 10.402 12.4644 12.002 12.4644C13.601 12.4644 14.903 13.7644 14.903 15.3634C14.903 16.9634 13.601 18.2634 12.002 18.2634ZM10.6015 15.3632C10.6015 14.5922 11.2295 13.9642 12.0015 13.9642C12.7735 13.9642 13.4025 14.5922 13.4025 15.3632C13.4025 16.1362 12.7735 16.7642 12.0015 16.7642C11.2295 16.7642 10.6015 16.1362 10.6015 15.3632Z" fill="black"/>
<path d="M7.88001 12.9434H6.56201C6.14801 12.9434 5.81201 12.6074 5.81201 12.1934C5.81201 11.7794 6.14801 11.4434 6.56201 11.4434H7.88001C8.29401 11.4434 8.63001 11.7794 8.63001 12.1934C8.63001 12.6074 8.29401 12.9434 7.88001 12.9434Z" fill="black"/>
<path d="M17.439 19.2834H16.121C15.707 19.2834 15.371 18.9474 15.371 18.5334C15.371 18.1194 15.707 17.7834 16.121 17.7834H17.439C17.853 17.7834 18.189 18.1194 18.189 18.5334C18.189 18.9474 17.853 19.2834 17.439 19.2834Z" fill="black"/>
</svg>