<svg width="24" height="24" viewBox="0 0 24 24" fill="none" xmlns="http://www.w3.org/2000/svg">
<path opacity="0.4" fill-rule="evenodd" clip-rule="evenodd" d="M17.812 4.44922H6.188C3.982 4.44922 2.5 5.99622 2.5 8.29922V15.6992C2.5 18.0022 3.982 19.5492 6.188 19.5492H17.811C20.018 19.5492 21.5 18.0022 21.5 15.6992V8.29922C21.5 5.99622 20.018 4.44922 17.812 4.44922Z" fill="black"/>
<path fill-rule="evenodd" clip-rule="evenodd" d="M16.3828 9.19922H17.7858C18.1998 9.19922 18.5358 8.86322 18.5358 8.44922C18.5358 8.03522 18.1998 7.69922 17.7858 7.69922H16.3828C15.9688 7.69922 15.6328 8.03522 15.6328 8.44922C15.6328 8.86322 15.9688 9.19922 16.3828 9.19922ZM8.96284 11.9992C8.96284 13.6762 10.3258 15.0392 12.0008 15.0392C13.6758 15.0392 15.0388 13.6762 15.0388 11.9992C15.0388 10.3222 13.6758 8.95922 12.0008 8.95922C10.3258 8.95922 8.96284 10.3222 8.96284 11.9992ZM6.21484 16.2992H7.61784C8.03184 16.2992 8.36784 15.9632 8.36784 15.5492C8.36784 15.1352 8.03184 14.7992 7.61784 14.7992H6.21484C5.80084 14.7992 5.46484 15.1352 5.46484 15.5492C5.46484 15.9632 5.80084 16.2992 6.21484 16.2992ZM10.4627 11.999C10.4627 11.149 11.1527 10.459 12.0007 10.459C12.8487 10.459 13.5387 11.149 13.5387 11.999C13.5387 12.849 12.8487 13.539 12.0007 13.539C11.1527 13.539 10.4627 12.849 10.4627 11.999Z" fill="black"/>
</svg>