<svg width="24" height="24" viewBox="0 0 24 24" fill="none" xmlns="http://www.w3.org/2000/svg">
<path d="M6.6899 11.3764C7.37973 10.2283 8.12404 9.09873 8.84598 7.96815L6.87281 4.27576C6.87281 4.27576 7.02362 4.14635 7.40016 3.85446C8.52588 2.98269 9.75765 2.75696 11.0896 3.27458C12.3584 3.76787 13.6456 4.14149 15.0233 4.06365C15.4242 4.0403 16.9624 3.83598 16.9624 3.83598L15.1556 7.96134C15.8776 9.09095 16.6199 10.2283 17.3098 11.3764C18.4442 13.264 19.5291 15.3695 18.6505 17.5606C17.6279 20.1117 14.6448 20.9582 11.9993 21C9.35484 20.9582 6.37174 20.1117 5.34916 17.5606C4.47057 15.3695 5.55542 13.264 6.6899 11.3764Z" stroke="black" stroke-width="1.5" stroke-linecap="round" stroke-linejoin="round"/>
<path d="M8.84766 7.97656C10.9512 8.46012 13.0538 8.46012 15.1573 7.97656" stroke="black" stroke-width="1.5" stroke-linecap="round" stroke-linejoin="round"/>
</svg>