<svg width="24" height="25" viewBox="0 0 24 25" fill="none" xmlns="http://www.w3.org/2000/svg">
<path d="M16.423 9.27734H17.5885C19.4721 9.27734 20.6533 10.6112 20.6533 12.4997V17.8421C20.6533 19.7296 19.478 21.0635 17.5885 21.0635H12.001" stroke="black" stroke-width="1.5" stroke-linecap="round" stroke-linejoin="round"/>
<path d="M8.07904 9.27734H6.4124C4.52296 9.27734 3.34668 10.6112 3.34668 12.4997V17.8421C3.34668 19.7296 4.52296 21.0635 6.41337 21.0635H8.4601" stroke="black" stroke-width="1.5" stroke-linecap="round" stroke-linejoin="round"/>
<path d="M14.055 5.11637L12.0011 3.0625L9.94727 5.11637" stroke="black" stroke-width="1.5" stroke-linecap="round" stroke-linejoin="round"/>
<path d="M12.002 8.8865V3.06445" stroke="black" stroke-width="1.5" stroke-linecap="round" stroke-linejoin="round"/>
<path d="M6.4375 11.9297H7.78599" stroke="black" stroke-width="1.5" stroke-linecap="round" stroke-linejoin="round"/>
<path d="M17.5633 18.4102H16.2148" stroke="black" stroke-width="1.5" stroke-linecap="round" stroke-linejoin="round"/>
<path d="M12.0006 12.9688C13.2158 12.9688 14.2004 13.9534 14.2004 15.1686C14.2004 16.3838 13.2158 17.3684 12.0006 17.3684C10.7854 17.3684 9.80078 16.3838 9.80078 15.1686" stroke="black" stroke-width="1.5" stroke-linecap="round" stroke-linejoin="round"/>
</svg>