<svg width="24" height="25" viewBox="0 0 24 25" fill="none" xmlns="http://www.w3.org/2000/svg">
<path opacity="0.4" fill-rule="evenodd" clip-rule="evenodd" d="M17.603 8.79102H6.39602C4.25902 8.79102 2.82202 10.29 2.82202 12.521V17.881C2.82202 20.112 4.26002 21.611 6.39802 21.611H17.603C19.741 21.611 21.178 20.112 21.178 17.881V12.521C21.178 10.29 19.741 8.79102 17.603 8.79102Z" fill="black"/>
<path fill-rule="evenodd" clip-rule="evenodd" d="M11.4697 7.88967C11.4977 7.91767 11.5347 7.93167 11.5667 7.95467C11.6137 7.98967 11.6567 8.02867 11.7107 8.05167C11.8017 8.08967 11.9007 8.11067 12.0007 8.11067C12.0247 8.11067 12.0447 8.09867 12.0677 8.09667C12.1437 8.08967 12.2207 8.08167 12.2897 8.05267C12.3827 8.01367 12.4647 7.95767 12.5347 7.88767L14.5867 5.82867C14.8787 5.53567 14.8787 5.06167 14.5847 4.76867C14.2907 4.47767 13.8167 4.47567 13.5247 4.77067L12.7517 5.54467V3.26367C12.7517 2.84967 12.4157 2.51367 12.0017 2.51367C11.5877 2.51367 11.2517 2.84967 11.2517 3.26367V5.54667L10.4787 4.77067C10.1857 4.47567 9.71075 4.47767 9.41775 4.76867C9.12375 5.06067 9.12375 5.53567 9.41575 5.82867L11.4697 7.88967Z" fill="black"/>
<path fill-rule="evenodd" clip-rule="evenodd" d="M16.2251 19.202H17.5771C17.9911 19.202 18.3271 18.866 18.3271 18.452C18.3271 18.038 17.9911 17.702 17.5771 17.702H16.2251C15.8111 17.702 15.4751 18.038 15.4751 18.452C15.4751 18.866 15.8111 19.202 16.2251 19.202ZM9.04312 15.202C9.04312 16.834 10.3691 18.162 11.9991 18.162C13.6291 18.162 14.9551 16.834 14.9551 15.202C14.9551 13.575 13.6291 12.252 11.9991 12.252C10.3691 12.252 9.04312 13.575 9.04312 15.202ZM6.42212 12.702H7.77412C8.18812 12.702 8.52412 12.366 8.52412 11.952C8.52412 11.538 8.18812 11.202 7.77412 11.202H6.42212C6.00812 11.202 5.67212 11.538 5.67212 11.952C5.67212 12.366 6.00812 12.702 6.42212 12.702ZM10.5431 15.202C10.5431 14.402 11.1961 13.752 11.9991 13.752C12.8021 13.752 13.4551 14.402 13.4551 15.202C13.4551 16.007 12.8021 16.662 11.9991 16.662C11.1961 16.662 10.5431 16.007 10.5431 15.202Z" fill="black"/>
</svg>