<svg width="24" height="24" viewBox="0 0 24 24" fill="none" xmlns="http://www.w3.org/2000/svg">
<path d="M17.4641 9.47656H6.53871C4.69106 9.47656 3.54102 10.7803 3.54102 12.626V17.8499C3.54102 19.6946 4.69106 20.9993 6.53968 20.9993H17.4641C19.3117 20.9993 20.4608 19.6946 20.4608 17.8499V12.626C20.4608 10.7803 19.3059 9.47656 17.4641 9.47656Z" stroke="black" stroke-width="1.5" stroke-linecap="round" stroke-linejoin="round"/>
<path d="M9.85156 5.14648L11.8598 7.15468L13.8679 5.14648" stroke="black" stroke-width="1.5" stroke-linecap="round" stroke-linejoin="round"/>
<path d="M11.8599 7.1546L11.8594 3" stroke="black" stroke-width="1.5" stroke-linecap="round" stroke-linejoin="round"/>
<path d="M6.5625 12.0703H7.88086" stroke="black" stroke-width="1.5" stroke-linecap="round" stroke-linejoin="round"/>
<path d="M17.4395 18.4062H16.1211" stroke="black" stroke-width="1.5" stroke-linecap="round" stroke-linejoin="round"/>
<path fill-rule="evenodd" clip-rule="evenodd" d="M9.85156 15.2401C9.85156 14.0521 10.8148 13.0898 12.0018 13.0898C13.1898 13.0898 14.153 14.0521 14.153 15.2401C14.153 16.4281 13.1898 17.3903 12.0018 17.3903C10.8148 17.3903 9.85156 16.4281 9.85156 15.2401Z" stroke="black" stroke-width="1.5" stroke-linecap="round" stroke-linejoin="round"/>
</svg>