<svg width="24" height="25" viewBox="0 0 24 25" fill="none" xmlns="http://www.w3.org/2000/svg">
<path d="M13.3116 19.1136H6.18941C4.22303 19.1136 3 17.7261 3 15.7627V8.36419C3 6.40073 4.22303 5.01327 6.18843 5.01327L8.13001 5.01172" stroke="black" stroke-width="1.5" stroke-linecap="round" stroke-linejoin="round"/>
<path d="M21.0003 10.3627V8.36419C21.0003 6.40073 19.7715 5.01327 17.8119 5.01327L11.0361 5.01172" stroke="black" stroke-width="1.5" stroke-linecap="round" stroke-linejoin="round"/>
<path d="M16.7266 16.2011L18.8632 14.0645L20.9989 16.2011" stroke="black" stroke-width="1.5" stroke-linecap="round" stroke-linejoin="round"/>
<path d="M18.8633 14.0645L18.8636 19.1142" stroke="black" stroke-width="1.5" stroke-linecap="round" stroke-linejoin="round"/>
<path d="M6.21289 8.51562H7.61592" stroke="black" stroke-width="1.5" stroke-linecap="round" stroke-linejoin="round"/>
<path d="M11.9984 9.77734C10.7355 9.77734 9.71094 10.8009 9.71094 12.0648C9.71094 13.3287 10.7355 14.3523 11.9984 14.3523C13.2623 14.3523 14.2868 13.3287 14.2868 12.0648" stroke="black" stroke-width="1.5" stroke-linecap="round" stroke-linejoin="round"/>
</svg>