<svg width="24" height="24" viewBox="0 0 24 24" fill="none" xmlns="http://www.w3.org/2000/svg">
<path fill-rule="evenodd" clip-rule="evenodd" d="M17.739 11.1248C17.2837 10.3643 16.8016 9.61071 16.3208 8.85998C16.2531 8.75415 16.1265 8.70198 16.0035 8.72773C14.6749 9.00579 13.3394 9.14784 12.003 9.14784C10.6655 9.14784 9.3289 9.00576 8.00007 8.72762C7.8773 8.70193 7.75099 8.75382 7.68314 8.85931C7.20078 9.60914 6.71936 10.3613 6.26204 11.1228C5.09004 13.0658 3.92004 15.3408 4.88504 17.7478C6.21304 21.0588 10.298 21.4768 12.007 21.5018C13.702 21.4768 17.787 21.0598 19.115 17.7478C20.08 15.3418 18.91 13.0658 17.739 11.1248Z" fill="black"/>
<path fill-rule="evenodd" clip-rule="evenodd" d="M7.80395 7.08267C7.83918 7.14855 7.90814 7.17415 7.98072 7.19186C10.6009 7.78971 13.2566 7.80065 15.8781 7.2247C15.9704 7.20441 16.0467 7.14236 16.0851 7.05596C16.3269 6.5117 17.2217 4.49684 17.4207 4.04286C17.4937 3.87786 17.4717 3.68686 17.3627 3.54186C17.2547 3.39786 17.0767 3.32186 16.8987 3.34586C16.4767 3.40186 15.3117 3.54686 14.9947 3.56286C13.6027 3.64486 12.3357 3.22486 11.2687 2.80486C9.78872 2.23786 8.38572 2.45686 7.08872 3.46086C6.70072 3.76986 6.54572 3.90386 6.54572 3.90386C6.36972 4.05786 6.32272 4.31286 6.43272 4.51786L7.80395 7.08267Z" fill="black"/>
</svg>