<svg width="24" height="25" viewBox="0 0 24 25" fill="none" xmlns="http://www.w3.org/2000/svg">
<path fill-rule="evenodd" clip-rule="evenodd" d="M17.1633 19.1123H19.7271C20.4295 19.1123 20.9987 18.5431 20.9987 17.8396V16.4006C20.9987 15.6981 20.4295 15.1289 19.7271 15.1289H17.1633C16.4608 15.1289 15.8906 15.6981 15.8906 16.4006V17.8396C15.8906 18.5431 16.4608 19.1123 17.1633 19.1123Z" stroke="black" stroke-width="1.5" stroke-linecap="round" stroke-linejoin="round"/>
<path d="M16.9141 15.1532V14.2065C16.9248 13.361 17.6185 12.6847 18.463 12.6954C19.291 12.7052 19.9604 13.3717 19.9741 14.1997V15.1532" stroke="black" stroke-width="1.5" stroke-linecap="round" stroke-linejoin="round"/>
<path d="M6.21289 8.51367H7.61592" stroke="black" stroke-width="1.5" stroke-linecap="round" stroke-linejoin="round"/>
<path d="M12.4116 19.112H6.18941C4.22303 19.112 3 17.7246 3 15.7611V8.36264C3 6.39918 4.22303 5.01172 6.18843 5.01172H7.48577" stroke="black" stroke-width="1.5" stroke-linecap="round" stroke-linejoin="round"/>
<path d="M20.9997 10.3611V8.36264C20.9997 6.39918 19.7708 5.01172 17.8112 5.01172H10.5898" stroke="black" stroke-width="1.5" stroke-linecap="round" stroke-linejoin="round"/>
<path d="M11.9984 9.77734C10.7355 9.77734 9.71094 10.8009 9.71094 12.0648C9.71094 13.3287 10.7355 14.3523 11.9984 14.3523C13.2623 14.3523 14.2868 13.3287 14.2868 12.0648" stroke="black" stroke-width="1.5" stroke-linecap="round" stroke-linejoin="round"/>
</svg>