<svg width="25" height="24" viewBox="0 0 25 24" fill="none" xmlns="http://www.w3.org/2000/svg">
<path opacity="0.4" d="M6.68843 4.94922H18.3116C20.277 4.94922 21.5 6.33668 21.5 8.30014V15.6986C21.5 17.6621 20.277 19.0495 18.3106 19.0495H6.68843C4.72303 19.0495 3.5 17.6621 3.5 15.6986V8.30014C3.5 6.33668 4.72886 4.94922 6.68843 4.94922Z" stroke="black" stroke-width="1.5" stroke-linecap="round" stroke-linejoin="round"/>
<path d="M6.71484 15.5488H8.11787" stroke="black" stroke-width="1.5" stroke-linecap="round" stroke-linejoin="round"/>
<path d="M18.2858 8.44922H16.8828" stroke="black" stroke-width="1.5" stroke-linecap="round" stroke-linejoin="round"/>
<path fill-rule="evenodd" clip-rule="evenodd" d="M14.7888 11.9984C14.7888 10.7345 13.7642 9.71094 12.5013 9.71094C11.2374 9.71094 10.2129 10.7345 10.2129 11.9984C10.2129 13.2623 11.2374 14.2859 12.5013 14.2859C13.7642 14.2859 14.7888 13.2623 14.7888 11.9984Z" stroke="black" stroke-width="1.5" stroke-linecap="round" stroke-linejoin="round"/>
</svg>