<svg width="24" height="25" viewBox="0 0 24 25" fill="none" xmlns="http://www.w3.org/2000/svg">
<path opacity="0.4" fill-rule="evenodd" clip-rule="evenodd" d="M15.0478 14.1229C15.1548 13.1849 15.5508 12.3339 16.2198 11.6829C16.9898 10.9349 18.0058 10.5309 19.0818 10.5429C19.4842 10.5479 19.8704 10.6122 20.2341 10.7254C20.4408 10.7897 20.6638 10.6434 20.6638 10.427V7.76992C20.6638 5.46692 19.1818 3.91992 16.9758 3.91992H5.35182C3.14582 3.91992 1.66382 5.46692 1.66382 7.76992V15.1699C1.66382 17.4729 3.14582 19.0199 5.35282 19.0199H13.7035C13.8958 19.0199 14.0373 18.8414 14.0111 18.6509C13.99 18.4976 13.9778 18.3416 13.9778 18.1829V16.7419C13.9778 15.7239 14.3888 14.8019 15.0478 14.1229Z" fill="black"/>
<path fill-rule="evenodd" clip-rule="evenodd" d="M20.8363 18.1828C20.8363 18.4698 20.6023 18.7038 20.3143 18.7038H17.7503C17.4623 18.7038 17.2283 18.4698 17.2283 18.1828V16.7428C17.2283 16.4558 17.4623 16.2228 17.7503 16.2228H20.3143C20.6023 16.2228 20.8363 16.4558 20.8363 16.7428V18.1828ZM18.4853 14.0128C18.6343 13.8698 18.8163 13.8068 19.0413 13.7928C19.4663 13.7978 19.8043 14.1328 19.8113 14.5428V14.7228H18.2513V14.5628C18.2533 14.3528 18.3373 14.1578 18.4853 14.0128ZM21.3113 14.9968V14.5308C21.2903 13.2898 20.3003 12.3078 19.0603 12.2928C18.4353 12.2658 17.8763 12.5138 17.4403 12.9378C17.0033 13.3628 16.7593 13.9328 16.7513 14.5528V14.9978C16.1433 15.3458 15.7283 15.9938 15.7283 16.7428V18.1828C15.7283 19.2968 16.6353 20.2038 17.7503 20.2038H20.3143C21.4293 20.2038 22.3363 19.2968 22.3363 18.1828V16.7428C22.3363 15.9928 21.9203 15.3448 21.3113 14.9968Z" fill="black"/>
<path fill-rule="evenodd" clip-rule="evenodd" d="M11.1629 14.5099C9.48793 14.5099 8.12493 13.1469 8.12493 11.4699C8.12493 9.79292 9.48793 8.42992 11.1629 8.42992C12.8379 8.42992 14.2009 9.79292 14.2009 11.4699C14.2009 13.1469 12.8379 14.5099 11.1629 14.5099ZM9.62499 11.4699C9.62499 10.6199 10.315 9.92993 11.163 9.92993C12.011 9.92993 12.701 10.6199 12.701 11.4699C12.701 12.3199 12.011 13.0099 11.163 13.0099C10.315 13.0099 9.62499 12.3199 9.62499 11.4699Z" fill="black"/>
<path d="M6.78093 8.66992H5.37793C4.96393 8.66992 4.62793 8.33392 4.62793 7.91992C4.62793 7.50592 4.96393 7.16992 5.37793 7.16992H6.78093C7.19493 7.16992 7.53093 7.50592 7.53093 7.91992C7.53093 8.33392 7.19493 8.66992 6.78093 8.66992Z" fill="black"/>
</svg>