<svg width="24" height="25" viewBox="0 0 24 25" fill="none" xmlns="http://www.w3.org/2000/svg">
<path fill-rule="evenodd" clip-rule="evenodd" d="M11.291 9.75806C10.443 9.75806 9.75299 10.4481 9.75299 11.2981C9.75299 12.1481 10.443 12.8381 11.291 12.8381C12.139 12.8381 12.829 12.1481 12.829 11.2981C12.829 10.4481 12.139 9.75806 11.291 9.75806Z" fill="black"/>
<path fill-rule="evenodd" clip-rule="evenodd" d="M11.291 14.338C9.61599 14.338 8.25299 12.975 8.25299 11.298C8.25299 9.62105 9.61599 8.25805 11.291 8.25805C12.966 8.25805 14.329 9.62105 14.329 11.298C14.329 12.975 12.966 14.338 11.291 14.338ZM6.90899 8.49805H5.50599C5.09199 8.49805 4.75599 8.16205 4.75599 7.74805C4.75599 7.33405 5.09199 6.99805 5.50599 6.99805H6.90899C7.32299 6.99805 7.65899 7.33405 7.65899 7.74805C7.65899 8.16205 7.32299 8.49805 6.90899 8.49805ZM19.038 12.026C19.5076 12.026 19.9576 12.0988 20.3888 12.2184C20.5879 12.2737 20.792 12.129 20.792 11.9223V7.59905C20.792 5.29605 19.31 3.74805 17.104 3.74805H5.47999C3.27399 3.74805 1.79199 5.29605 1.79199 7.59905V14.998C1.79199 17.301 3.27399 18.849 5.48099 18.849H13.5453C13.7455 18.849 13.889 18.6567 13.8436 18.4617C13.7605 18.1053 13.708 17.7382 13.708 17.356C13.708 14.412 16.094 12.026 19.038 12.026Z" fill="black"/>
<path fill-rule="evenodd" clip-rule="evenodd" d="M20.0757 18.4161C19.7447 18.7121 19.3087 18.8751 18.8497 18.8751C17.8257 18.8751 16.9927 18.0451 16.9927 17.0251C16.9927 16.6111 16.6567 16.2751 16.2427 16.2751C15.8277 16.2751 15.4927 16.6111 15.4927 17.0251C15.4927 18.8721 16.9987 20.3751 18.8497 20.3751C19.6787 20.3751 20.4687 20.0761 21.0747 19.5351C21.3837 19.2591 21.4107 18.7851 21.1347 18.4761C20.8597 18.1661 20.3857 18.1391 20.0757 18.4161Z" fill="black"/>
<path fill-rule="evenodd" clip-rule="evenodd" d="M18.8501 13.6653C18.0221 13.6653 17.2331 13.9643 16.6261 14.5063C16.3171 14.7823 16.2901 15.2563 16.5661 15.5653C16.8421 15.8743 17.3151 15.9023 17.6251 15.6253C17.9571 15.3283 18.3921 15.1653 18.8501 15.1653C19.8751 15.1653 20.7081 16.0003 20.7081 17.0253C20.7081 17.4393 21.0441 17.7753 21.4581 17.7753C21.8721 17.7753 22.2081 17.4393 22.2081 17.0253C22.2081 15.1733 20.7021 13.6653 18.8501 13.6653Z" fill="black"/>
</svg>