<svg width="24" height="25" viewBox="0 0 24 25" fill="none" xmlns="http://www.w3.org/2000/svg">
<path d="M12.4116 19.114H6.18941C4.22303 19.114 3 17.7265 3 15.7631V8.36459C3 6.40113 4.22303 5.01367 6.18843 5.01367H8.62004" stroke="black" stroke-width="1.5" stroke-linecap="round" stroke-linejoin="round"/>
<path d="M21 10.3611V8.36264C21 6.39918 19.7711 5.01172 17.8116 5.01172H12" stroke="black" stroke-width="1.5" stroke-linecap="round" stroke-linejoin="round"/>
<path d="M6.21289 8.51562C6.76081 8.51562 7.068 8.51562 7.61592 8.51562" stroke="black" stroke-width="1.5" stroke-linecap="round" stroke-linejoin="round"/>
<path d="M20.1178 18.3229C19.6586 18.7286 19.0543 18.9748 18.3927 18.9748C16.9527 18.9748 15.7852 17.8072 15.7852 16.3672" stroke="black" stroke-width="1.5" stroke-linecap="round" stroke-linejoin="round"/>
<path d="M16.668 14.4097C17.1272 14.004 17.7314 13.7578 18.3931 13.7578C19.8331 13.7578 21.0006 14.9254 21.0006 16.3654" stroke="black" stroke-width="1.5" stroke-linecap="round" stroke-linejoin="round"/>
<path d="M11.9984 9.77734C10.7355 9.77734 9.71094 10.8009 9.71094 12.0648C9.71094 13.3287 10.7355 14.3523 11.9984 14.3523C13.2623 14.3523 14.2868 13.3287 14.2868 12.0648" stroke="black" stroke-width="1.5" stroke-linecap="round" stroke-linejoin="round"/>
</svg>