<svg width="24" height="25" viewBox="0 0 24 25" fill="none" xmlns="http://www.w3.org/2000/svg">
<path opacity="0.4" d="M19.0567 11.2981C19.3929 11.2981 19.7233 11.3256 20.0459 11.3772C20.1704 11.397 20.2857 11.3026 20.2857 11.1765V8.439L20.2858 6.5956C20.2858 4.43072 18.9683 2.947 16.9766 2.77675L15.0199 2.74609H6.54948L4.59272 2.7774C2.6041 2.94953 1.28857 4.4313 1.28857 6.59609L1.2887 8.44085V12.1648V13.9965C1.2887 16.1624 2.60702 17.6467 4.59825 17.8153L6.54914 17.8461H12.5349C12.6476 17.8461 12.7302 17.7533 12.7297 17.6406L12.7297 17.6371C12.7297 14.1421 15.5677 11.2981 19.0567 11.2981Z" fill="black"/>
<path fill-rule="evenodd" clip-rule="evenodd" d="M19.4615 17.8966C19.4615 18.3106 19.1255 18.6466 18.7115 18.6466C18.2975 18.6466 17.9615 18.3106 17.9615 17.8966V16.7266C17.9615 16.3126 18.2975 15.9766 18.7115 15.9766C19.1255 15.9766 19.4615 16.3126 19.4615 16.7266V17.8966ZM18.7115 13.2966C16.5055 13.2966 14.7115 15.0956 14.7115 17.3066C14.7115 19.5186 16.5055 21.3176 18.7115 21.3176C20.9175 21.3176 22.7115 19.5186 22.7115 17.3066C22.7115 15.0956 20.9175 13.2966 18.7115 13.2966Z" fill="black"/>
<path fill-rule="evenodd" clip-rule="evenodd" d="M10.7877 13.3361C9.1127 13.3361 7.7507 11.9731 7.7507 10.2961C7.7507 8.61909 9.1127 7.25609 10.7877 7.25609C12.4627 7.25609 13.8257 8.61909 13.8257 10.2961C13.8257 11.9731 12.4627 13.3361 10.7877 13.3361ZM9.25073 10.2961C9.25073 9.4461 9.93973 8.7561 10.7877 8.7561C11.6357 8.7561 12.3257 9.4461 12.3257 10.2961C12.3257 11.1461 11.6357 11.8361 10.7877 11.8361C9.93973 11.8361 9.25073 11.1461 9.25073 10.2961Z" fill="black"/>
<path d="M19.6407 8.25909C19.7788 8.25909 19.9176 8.25077 20.0566 8.23654C20.1777 8.22412 20.2857 8.31718 20.2857 8.439L20.2858 6.5956C20.2858 6.6458 20.2509 6.68943 20.2015 6.69874C19.2367 6.88093 18.2442 6.58893 17.5368 5.8796C16.7466 5.09036 16.4625 3.94329 16.7817 2.90678C16.8049 2.83138 16.873 2.78052 16.9501 2.77634L15.0263 2.7462C15.1521 2.75014 15.2437 2.86875 15.2216 2.99371C14.9715 4.40874 15.4232 5.88862 16.4747 6.94009C17.3327 7.79909 18.4707 8.25909 19.6407 8.25909Z" fill="black"/>
<path d="M5.1047 6.93909C6.1504 5.88489 6.59735 4.40595 6.34778 2.99367C6.32571 2.86877 6.4172 2.75023 6.54287 2.7462L4.61956 2.77697C4.69652 2.78118 4.76455 2.83198 4.78779 2.9073C5.107 3.94207 4.825 5.09001 4.04157 5.88109C3.33347 6.59016 2.3376 6.8841 1.37381 6.70059C1.3239 6.69108 1.28857 6.6469 1.28857 6.59609L1.2887 8.44085C1.2887 8.31908 1.39656 8.22604 1.51769 8.23844C1.65726 8.25273 1.79669 8.26109 1.9357 8.26109C3.1057 8.26109 4.2457 7.80009 5.1047 6.93909Z" fill="black"/>
<path d="M5.1027 13.6631C4.1435 12.7001 2.83422 12.2444 1.51835 12.3685C1.39694 12.38 1.2887 12.2868 1.2887 12.1648V13.9965C1.2887 13.9515 1.31998 13.9124 1.36413 13.9038C2.33097 13.7165 3.33122 14.01 4.0427 14.7235C4.82625 15.5051 5.10364 16.6218 4.79429 17.682C4.7718 17.759 4.70282 17.8115 4.62445 17.8157L6.54262 17.846C6.41764 17.842 6.32627 17.7248 6.34734 17.6004C6.58892 16.1752 6.13994 14.6966 5.1027 13.6631Z" fill="black"/>
</svg>