<svg width="24" height="25" viewBox="0 0 24 25" fill="none" xmlns="http://www.w3.org/2000/svg">
<path d="M13.2968 19.103H6.18447C4.22106 19.103 3 17.7176 3 15.7571V8.36942C3 6.40892 4.22106 5.02344 6.1835 5.02344H7.30246" stroke="black" stroke-width="1.5" stroke-linecap="round" stroke-linejoin="round"/>
<path d="M20.9741 10.3649V8.36942C20.9741 6.40892 19.7472 5.02344 17.7906 5.02344H10.2041" stroke="black" stroke-width="1.5" stroke-linecap="round" stroke-linejoin="round"/>
<path d="M6.20898 8.51953H7.61004" stroke="black" stroke-width="1.5" stroke-linecap="round" stroke-linejoin="round"/>
<path d="M11.9857 9.77734C10.7237 9.77734 9.70117 10.7999 9.70117 12.0618C9.70117 13.3238 10.7237 14.3463 11.9857 14.3463C13.2476 14.3463 14.2702 13.3238 14.2702 12.0618" stroke="black" stroke-width="1.5" stroke-linecap="round" stroke-linejoin="round"/>
<path d="M18.0907 14.4492L15.957 16.5819L18.0907 18.7156" stroke="black" stroke-width="1.5" stroke-linecap="round" stroke-linejoin="round"/>
<path d="M15.957 16.582L20.9998 16.5824" stroke="black" stroke-width="1.5" stroke-linecap="round" stroke-linejoin="round"/>
</svg>