<svg width="24" height="24" viewBox="0 0 24 24" fill="none" xmlns="http://www.w3.org/2000/svg">
<path opacity="0.4" fill-rule="evenodd" clip-rule="evenodd" d="M17.739 11.1241C17.2922 10.3796 16.8212 9.64116 16.3509 8.90631C16.2841 8.80193 16.16 8.74958 16.0383 8.77317C14.6969 9.03329 13.3494 9.17112 12 9.17112C10.6524 9.17112 9.30575 9.03326 7.96514 8.77394C7.84378 8.75047 7.72 8.80255 7.65312 8.90651C7.18097 9.64038 6.70904 10.3766 6.26204 11.1231C5.09004 13.0651 3.92004 15.3401 4.88504 17.7471C6.21304 21.0571 10.297 21.4751 12.006 21.5011C13.702 21.4751 17.787 21.0581 19.115 17.7471C20.08 15.3401 18.91 13.0651 17.739 11.1241Z" fill="black"/>
<path fill-rule="evenodd" clip-rule="evenodd" d="M7.81635 7.10613C7.85805 7.18411 7.93207 7.23987 8.01869 7.25767C10.6236 7.7928 13.2564 7.80058 15.8623 7.28099C15.9576 7.26199 16.0373 7.19728 16.0763 7.10833L17.4211 4.04312C17.4931 3.87712 17.4711 3.68612 17.3631 3.54212C17.2541 3.39712 17.0761 3.32212 16.8981 3.34512C16.4761 3.40112 15.3111 3.54712 14.9941 3.56212C13.6001 3.64412 12.3361 3.22412 11.2681 2.80412C9.78811 2.23812 8.38511 2.45712 7.08811 3.46112C6.70011 3.76912 6.54511 3.90412 6.54511 3.90412C6.36911 4.05712 6.32211 4.31212 6.43211 4.51712L7.81635 7.10613Z" fill="black"/>
<path d="M12.7502 17.4916V17.3376C13.6852 17.2646 14.4252 16.4876 14.4252 15.5326C14.4252 14.5286 13.6112 13.7126 12.6102 13.7126H11.3922C11.2152 13.7126 11.0762 13.5756 11.0762 13.4016C11.0762 13.2256 11.2182 13.0826 11.3922 13.0826H11.9522C11.9692 13.0836 11.9832 13.0916 12.0002 13.0916C12.0172 13.0916 12.0312 13.0836 12.0482 13.0826H13.3712C13.7852 13.0826 14.1212 12.7466 14.1212 12.3326C14.1212 11.9186 13.7852 11.5826 13.3712 11.5826H12.7502V11.4316C12.7502 11.0176 12.4142 10.6816 12.0002 10.6816C11.5862 10.6816 11.2502 11.0176 11.2502 11.4316V11.5966C10.3162 11.6706 9.57617 12.4476 9.57617 13.4016C9.57617 14.3996 10.3912 15.2126 11.3922 15.2126H12.6102C12.7842 15.2126 12.9252 15.3556 12.9252 15.5326C12.9252 15.7086 12.7842 15.8516 12.6102 15.8516H12.0482C12.0312 15.8506 12.0172 15.8416 12.0002 15.8416C11.9832 15.8416 11.9692 15.8506 11.9522 15.8516H10.6312C10.2172 15.8516 9.88117 16.1876 9.88117 16.6016C9.88117 17.0156 10.2172 17.3516 10.6312 17.3516H11.2502V17.4916C11.2502 17.9056 11.5862 18.2416 12.0002 18.2416C12.4142 18.2416 12.7502 17.9056 12.7502 17.4916Z" fill="black"/>
</svg>