<svg width="24" height="25" viewBox="0 0 24 25" fill="none" xmlns="http://www.w3.org/2000/svg">
<path opacity="0.4" fill-rule="evenodd" clip-rule="evenodd" d="M20.1833 11.8588C20.3215 11.8588 20.4588 11.863 20.5951 11.871C20.7725 11.8814 20.9263 11.7433 20.9263 11.5655V7.8178C20.9263 5.5148 19.4453 3.9668 17.2383 3.9668H5.61427C3.40827 3.9668 1.92627 5.5148 1.92627 7.8178V15.2168C1.92627 17.5198 3.40827 19.0678 5.61527 19.0678H12.8163C12.982 19.0678 13.1151 18.9335 13.1164 18.7678C13.1173 18.653 13.1201 18.5396 13.1282 18.4258C13.3881 14.7554 16.4477 11.8588 20.1833 11.8588Z" fill="black"/>
<path fill-rule="evenodd" clip-rule="evenodd" d="M21.3238 16.5284H18.0818L18.9398 15.6694C19.2328 15.3764 19.2328 14.9004 18.9398 14.6084C18.6458 14.3144 18.1718 14.3164 17.8798 14.6084L15.7428 16.7484C15.6018 16.8894 15.5228 17.0804 15.5228 17.2794C15.5228 17.4784 15.6018 17.6694 15.7438 17.8094L17.8808 19.9394C18.0268 20.0854 18.2188 20.1584 18.4098 20.1584C18.6018 20.1584 18.7948 20.0854 18.9408 19.9374C19.2328 19.6444 19.2328 19.1704 18.9388 18.8774L18.0878 18.0284H21.3238C21.7378 18.0284 22.0738 17.6924 22.0738 17.2784C22.0738 16.8644 21.7378 16.5284 21.3238 16.5284Z" fill="black"/>
<path fill-rule="evenodd" clip-rule="evenodd" d="M11.4254 14.5568C9.75036 14.5568 8.38836 13.1938 8.38836 11.5168C8.38836 9.8398 9.75036 8.4768 11.4254 8.4768C13.1004 8.4768 14.4634 9.8398 14.4634 11.5168C14.4634 13.1938 13.1004 14.5568 11.4254 14.5568ZM9.88827 11.5168C9.88827 10.6668 10.5773 9.97681 11.4253 9.97681C12.2733 9.97681 12.9633 10.6668 12.9633 11.5168C12.9633 12.3668 12.2733 13.0568 11.4253 13.0568C10.5773 13.0568 9.88827 12.3668 9.88827 11.5168Z" fill="black"/>
<path d="M7.04336 8.7168H5.64136C5.22736 8.7168 4.89136 8.3808 4.89136 7.9668C4.89136 7.5528 5.22736 7.2168 5.64136 7.2168H7.04336C7.45736 7.2168 7.79336 7.5528 7.79336 7.9668C7.79336 8.3808 7.45736 8.7168 7.04336 8.7168Z" fill="black"/>
</svg>