<svg width="25" height="24" viewBox="0 0 25 24" fill="none" xmlns="http://www.w3.org/2000/svg">
<path fill-rule="evenodd" clip-rule="evenodd" d="M3.56079 5.37696C4.2693 4.61695 5.27286 4.19922 6.43843 4.19922H18.0616C19.2296 4.19922 20.2335 4.61664 20.9417 5.37733C21.6443 6.13196 22 7.16357 22 8.30014V15.6986C22 16.8352 21.6443 17.8668 20.9416 18.6215C20.2332 19.3822 19.229 19.7995 18.0606 19.7995H6.43843C5.27043 19.7995 4.26646 19.3821 3.55826 18.6214C2.85569 17.8668 2.5 16.8352 2.5 15.6986V8.30014C2.5 7.16263 2.85771 6.13114 3.56079 5.37696ZM4.65797 6.3998C4.25672 6.83021 4 7.47419 4 8.30014V15.6986C4 16.5255 4.25582 17.1694 4.65612 17.5993C5.05078 18.0232 5.64103 18.2995 6.43843 18.2995H18.0606C18.8586 18.2995 19.4491 18.0232 19.8438 17.5993C20.2442 17.1693 20.5 16.5255 20.5 15.6986V8.30014C20.5 7.47325 20.2442 6.8294 19.8439 6.39944C19.4492 5.97553 18.859 5.69922 18.0616 5.69922H6.43843C5.64443 5.69922 5.05378 5.97522 4.65797 6.3998Z" fill="black"/>
<path fill-rule="evenodd" clip-rule="evenodd" d="M6.91406 10.5488C7.32828 10.5488 7.66406 10.8846 7.66406 11.2988V12.7019C7.66406 13.1161 7.32828 13.4519 6.91406 13.4519C6.49985 13.4519 6.16406 13.1161 6.16406 12.7019V11.2988C6.16406 10.8846 6.49985 10.5488 6.91406 10.5488Z" fill="black"/>
<path fill-rule="evenodd" clip-rule="evenodd" d="M17.5859 10.5488C18.0002 10.5488 18.3359 10.8846 18.3359 11.2988V12.7019C18.3359 13.1161 18.0002 13.4519 17.5859 13.4519C17.1717 13.4519 16.8359 13.1161 16.8359 12.7019V11.2988C16.8359 10.8846 17.1717 10.5488 17.5859 10.5488Z" fill="black"/>
<path fill-rule="evenodd" clip-rule="evenodd" d="M9.21094 12.0003C9.21094 10.3218 10.5717 8.96289 12.2494 8.96289C13.9263 8.96289 15.2868 10.322 15.2868 12.0003C15.2868 13.6787 13.9263 15.0378 12.2494 15.0378C10.5717 15.0378 9.21094 13.6789 9.21094 12.0003ZM12.2494 10.4629C11.3993 10.4629 10.7109 11.1511 10.7109 12.0003C10.7109 12.8496 11.3993 13.5378 12.2494 13.5378C13.0983 13.5378 13.7868 12.8498 13.7868 12.0003C13.7868 11.1509 13.0983 10.4629 12.2494 10.4629Z" fill="black"/>
</svg>