<svg width="24" height="24" viewBox="0 0 24 24" fill="none" xmlns="http://www.w3.org/2000/svg">
<path fill-rule="evenodd" clip-rule="evenodd" d="M12.0005 15.0392C10.3255 15.0392 8.96346 13.6762 8.96346 11.9992C8.96346 10.3222 10.3255 8.95922 12.0005 8.95922C13.6755 8.95922 15.0385 10.3222 15.0385 11.9992C15.0385 13.6762 13.6755 15.0392 12.0005 15.0392ZM21.1535 14.0651C21.336 14.0777 21.4985 13.9381 21.4985 13.7552V10.2576C21.4985 10.0749 21.3365 9.93589 21.1544 9.95004C21.0538 9.95785 20.9534 9.96222 20.8535 9.96222C19.6835 9.96222 18.5445 9.50222 17.6875 8.64322C16.6669 7.62268 16.2114 6.19774 16.4141 4.82168C16.4423 4.63013 16.2998 4.44922 16.1062 4.44922H7.8887C7.6951 4.44922 7.55257 4.63009 7.58081 4.82162C7.78326 6.19504 7.33243 7.61909 6.31846 8.64222C5.45846 9.50322 4.31946 9.96422 3.14846 9.96422C3.04762 9.96422 2.94655 9.95982 2.84536 9.95195C2.66327 9.93778 2.50146 10.0767 2.50146 10.2593V13.7522C2.50146 13.9351 2.66396 14.0747 2.84648 14.0622C4.12112 13.9746 5.38446 14.4306 6.31546 15.3662C7.3218 16.3698 7.77508 17.7932 7.57932 19.1798C7.55241 19.3704 7.69467 19.5492 7.88713 19.5492H16.106C16.2984 19.5492 16.4406 19.3705 16.4138 19.18C16.2183 17.7898 16.6757 16.3651 17.6915 15.3622C18.6179 14.4312 19.8791 13.9773 21.1535 14.0651Z" fill="black"/>
<path fill-rule="evenodd" clip-rule="evenodd" d="M18.7495 7.58321C19.4185 8.25409 20.3433 8.55148 21.2604 8.4263C21.4003 8.40722 21.4999 8.28354 21.4961 8.14248C21.4954 8.11901 21.4946 8.09554 21.4936 8.07207C21.4056 6.0571 20.1434 4.68015 18.2636 4.48726C18.1326 4.47382 18.01 4.55421 17.9744 4.68096C17.6884 5.69791 17.9772 6.81189 18.7495 7.58321Z" fill="black"/>
<path fill-rule="evenodd" clip-rule="evenodd" d="M12.0005 10.4592C11.1525 10.4592 10.4635 11.1492 10.4635 11.9992C10.4635 12.8492 11.1525 13.5392 12.0005 13.5392C12.8485 13.5392 13.5385 12.8492 13.5385 11.9992C13.5385 11.1492 12.8485 10.4592 12.0005 10.4592Z" fill="black"/>
<path fill-rule="evenodd" clip-rule="evenodd" d="M5.25495 16.427C4.57515 15.7444 3.63345 15.4451 2.70685 15.584C2.58647 15.6021 2.50055 15.7087 2.50358 15.8304C2.55519 17.8987 3.82732 19.3158 5.73634 19.5117C5.86946 19.5254 5.99335 19.4421 6.02766 19.3127C6.30307 18.2744 6.02154 17.1908 5.25495 16.427Z" fill="black"/>
<path fill-rule="evenodd" clip-rule="evenodd" d="M18.7495 16.425C17.9744 17.1909 17.6897 18.2741 17.9667 19.3134C18.0011 19.4424 18.1248 19.5255 18.2576 19.5121C20.1401 19.3213 21.4042 17.9452 21.4935 15.9296C21.4944 15.9085 21.4952 15.8875 21.4958 15.8664C21.5 15.7255 21.4005 15.6019 21.2609 15.5827C20.3449 15.4568 19.4177 15.7542 18.7495 16.425Z" fill="black"/>
<path fill-rule="evenodd" clip-rule="evenodd" d="M5.25495 7.58421C6.02049 6.8112 6.30637 5.69831 6.02192 4.68165C5.98636 4.55457 5.86353 4.47393 5.73228 4.48755C3.85936 4.68193 2.60091 6.05167 2.50753 8.05734C2.50617 8.08656 2.50514 8.11578 2.50436 8.145C2.50059 8.28583 2.59986 8.40938 2.73941 8.42867C3.65631 8.55541 4.58398 8.25703 5.25495 7.58421Z" fill="black"/>
</svg>