<svg width="25" height="24" viewBox="0 0 25 24" fill="none" xmlns="http://www.w3.org/2000/svg">
<path fill-rule="evenodd" clip-rule="evenodd" d="M5.14484 10.8703C4.77757 11.2647 4.54004 11.8581 4.54004 12.626V17.8499C4.54004 18.6172 4.77752 19.2107 5.14495 19.6052C5.50678 19.9937 6.04963 20.2493 6.78871 20.2493H17.7131C18.4516 20.2493 18.9939 19.9938 19.3553 19.6054C19.7225 19.2109 19.9598 18.6174 19.9598 17.8499V12.626C19.9598 11.8589 19.7216 11.2653 19.3536 10.8706C18.991 10.4817 18.4483 10.2266 17.7131 10.2266H6.78773C6.04909 10.2266 5.5065 10.482 5.14484 10.8703ZM4.04719 9.84799C4.72246 9.12298 5.67872 8.72656 6.78773 8.72656H17.7131C18.8198 8.72656 19.7754 9.12333 20.4507 9.84773C21.1206 10.5663 21.4598 11.5474 21.4598 12.626V17.8499C21.4598 18.9271 21.1226 19.9083 20.4533 20.6274C19.7784 21.3525 18.8223 21.7493 17.7131 21.7493H6.78871C5.67915 21.7493 4.72268 21.3526 4.04732 20.6276C3.37758 19.9085 3.04004 18.9272 3.04004 17.8499V12.626C3.04004 11.5483 3.37753 10.567 4.04719 9.84799Z" fill="black"/>
<path fill-rule="evenodd" clip-rule="evenodd" d="M6.0625 12.0703C6.0625 11.6561 6.39829 11.3203 6.8125 11.3203H8.13086C8.54508 11.3203 8.88086 11.6561 8.88086 12.0703C8.88086 12.4845 8.54508 12.8203 8.13086 12.8203H6.8125C6.39829 12.8203 6.0625 12.4845 6.0625 12.0703Z" fill="black"/>
<path fill-rule="evenodd" clip-rule="evenodd" d="M15.6211 18.4062C15.6211 17.992 15.9569 17.6562 16.3711 17.6562H17.6895C18.1037 17.6562 18.4395 17.992 18.4395 18.4062C18.4395 18.8205 18.1037 19.1562 17.6895 19.1562H16.3711C15.9569 19.1562 15.6211 18.8205 15.6211 18.4062Z" fill="black"/>
<path fill-rule="evenodd" clip-rule="evenodd" d="M12.2518 13.8398C11.4788 13.8398 10.8516 14.4665 10.8516 15.2401C10.8516 16.0136 11.4788 16.6403 12.2518 16.6403C13.026 16.6403 13.653 16.0134 13.653 15.2401C13.653 14.4668 13.026 13.8398 12.2518 13.8398ZM9.35156 15.2401C9.35156 13.6377 10.6508 12.3398 12.2518 12.3398C13.8536 12.3398 15.153 13.6374 15.153 15.2401C15.153 16.8427 13.8536 18.1403 12.2518 18.1403C10.6508 18.1403 9.35156 16.8425 9.35156 15.2401Z" fill="black"/>
<path fill-rule="evenodd" clip-rule="evenodd" d="M11.5794 2.46967C11.8723 2.17678 12.3472 2.17678 12.6401 2.46967L14.6483 4.47786C14.9412 4.77075 14.9412 5.24563 14.6483 5.53852C14.3554 5.83141 13.8805 5.83141 13.5876 5.53852L12.1098 4.06066L10.6319 5.53852C10.339 5.83141 9.86413 5.83141 9.57123 5.53852C9.27834 5.24563 9.27834 4.77075 9.57123 4.47786L11.5794 2.46967Z" fill="black"/>
<path fill-rule="evenodd" clip-rule="evenodd" d="M12.11 2.25C12.5242 2.25005 12.8599 2.58588 12.8599 3.00009L12.8594 7.15464C12.8593 7.56885 12.5235 7.90459 12.1093 7.90454C11.6951 7.90449 11.3593 7.56867 11.3594 7.15445L11.3599 2.99991C11.3599 2.58569 11.6958 2.24995 12.11 2.25Z" fill="black"/>
</svg>