<svg width="24" height="24" viewBox="0 0 24 24" fill="none" xmlns="http://www.w3.org/2000/svg">
<path d="M13.3116 19.0502H6.18941C4.22303 19.0502 3 17.6627 3 15.6992V12" stroke="black" stroke-width="1.5" stroke-linecap="round" stroke-linejoin="round"/>
<path d="M21 10.2986V8.30014C21 6.33668 19.7711 4.94922 17.8116 4.94922H6.18843C4.22303 4.94922 3 6.33668 3 8.30014V9.33002" stroke="black" stroke-width="1.5" stroke-linecap="round" stroke-linejoin="round"/>
<path d="M18.8086 14.3906L20.9452 16.5273L18.8086 18.6629" stroke="black" stroke-width="1.5" stroke-linecap="round" stroke-linejoin="round"/>
<path d="M20.9444 16.5254L15.8945 16.5257" stroke="black" stroke-width="1.5" stroke-linecap="round" stroke-linejoin="round"/>
<path d="M6.21289 8.45117H7.61592" stroke="black" stroke-width="1.5" stroke-linecap="round" stroke-linejoin="round"/>
<path d="M12.0003 9.71484C10.7374 9.71484 9.71289 10.7384 9.71289 12.0023C9.71289 13.2662 10.7374 14.2898 12.0003 14.2898C13.2642 14.2898 14.2888 13.2662 14.2888 12.0023" stroke="black" stroke-width="1.5" stroke-linecap="round" stroke-linejoin="round"/>
</svg>