<svg width="24" height="24" viewBox="0 0 24 24" fill="none" xmlns="http://www.w3.org/2000/svg">
<path fill-rule="evenodd" clip-rule="evenodd" d="M11.3301 7.806C11.3371 7.813 11.3471 7.816 11.3551 7.822C11.4191 7.882 11.4911 7.933 11.5731 7.967C11.6651 8.005 11.7621 8.025 11.8591 8.025C11.9571 8.025 12.0541 8.005 12.1451 7.967C12.2271 7.933 12.2991 7.882 12.3641 7.822C12.3711 7.816 12.3811 7.813 12.3891 7.806L14.3961 5.806C14.6901 5.514 14.6901 5.039 14.3981 4.745C14.1061 4.452 13.6321 4.452 13.3381 4.743L12.6091 5.47L12.6081 3.125C12.6081 2.711 12.2721 2.375 11.8581 2.375C11.4441 2.375 11.1081 2.711 11.1081 3.125L11.1091 5.469L10.3801 4.743C10.0861 4.452 9.61109 4.452 9.31909 4.745C9.02609 5.039 9.02809 5.514 9.32109 5.806L11.3301 7.806Z" fill="black"/>
<path fill-rule="evenodd" clip-rule="evenodd" d="M12.0011 13.9653C11.2291 13.9653 10.6011 14.5933 10.6011 15.3643C10.6011 16.1373 11.2291 16.7653 12.0011 16.7653C12.7731 16.7653 13.4021 16.1373 13.4021 15.3643C13.4021 14.5933 12.7731 13.9653 12.0011 13.9653Z" fill="black"/>
<path fill-rule="evenodd" clip-rule="evenodd" d="M17.4385 19.2845H16.1205C15.7065 19.2845 15.3705 18.9485 15.3705 18.5345C15.3705 18.1205 15.7065 17.7845 16.1205 17.7845H17.4385C17.8525 17.7845 18.1885 18.1205 18.1885 18.5345C18.1885 18.9485 17.8525 19.2845 17.4385 19.2845ZM12.0015 18.2645C10.4015 18.2645 9.10053 16.9645 9.10053 15.3645C9.10053 13.7655 10.4015 12.4655 12.0015 12.4655C13.6005 12.4655 14.9025 13.7655 14.9025 15.3645C14.9025 16.9645 13.6005 18.2645 12.0015 18.2645ZM7.87953 12.9445H6.56153C6.14753 12.9445 5.81153 12.6085 5.81153 12.1945C5.81153 11.7805 6.14753 11.4445 6.56153 11.4445H7.87953C8.29353 11.4445 8.62953 11.7805 8.62953 12.1945C8.62953 12.6085 8.29353 12.9445 7.87953 12.9445ZM17.4625 9.10449H6.53853C4.44553 9.10449 3.04053 10.5715 3.04053 12.7555V17.9745C3.04053 20.1585 4.44653 21.6255 6.53953 21.6255H17.4625C19.5545 21.6255 20.9595 20.1585 20.9595 17.9745V12.7555C20.9595 10.5715 19.5545 9.10449 17.4625 9.10449Z" fill="black"/>
</svg>