<svg width="25" height="24" viewBox="0 0 25 24" fill="none" xmlns="http://www.w3.org/2000/svg">
<path fill-rule="evenodd" clip-rule="evenodd" d="M3.56079 5.37696C4.2693 4.61695 5.27286 4.19922 6.43843 4.19922H18.0616C19.2296 4.19922 20.2335 4.61664 20.9417 5.37733C21.6443 6.13196 22 7.16357 22 8.30014V15.6986C22 16.8352 21.6443 17.8668 20.9416 18.6215C20.2332 19.3822 19.229 19.7995 18.0606 19.7995H6.43843C5.27043 19.7995 4.26646 19.3821 3.55826 18.6214C2.85569 17.8668 2.5 16.8352 2.5 15.6986V8.30014C2.5 7.16263 2.85771 6.13114 3.56079 5.37696ZM4.65797 6.3998C4.25672 6.83021 4 7.47419 4 8.30014V15.6986C4 16.5255 4.25582 17.1694 4.65612 17.5993C5.05078 18.0232 5.64103 18.2995 6.43843 18.2995H18.0606C18.8586 18.2995 19.4491 18.0232 19.8438 17.5993C20.2442 17.1693 20.5 16.5255 20.5 15.6986V8.30014C20.5 7.47325 20.2442 6.8294 19.8439 6.39944C19.4492 5.97553 18.859 5.69922 18.0616 5.69922H6.43843C5.64443 5.69922 5.05378 5.97522 4.65797 6.3998Z" fill="black"/>
<path fill-rule="evenodd" clip-rule="evenodd" d="M5.71484 15.5488C5.71484 15.1346 6.05063 14.7988 6.46484 14.7988H7.86787C8.28208 14.7988 8.61787 15.1346 8.61787 15.5488C8.61787 15.963 8.28208 16.2988 7.86787 16.2988H6.46484C6.05063 16.2988 5.71484 15.963 5.71484 15.5488Z" fill="black"/>
<path fill-rule="evenodd" clip-rule="evenodd" d="M15.8828 8.44922C15.8828 8.03501 16.2186 7.69922 16.6328 7.69922H18.0358C18.4501 7.69922 18.7858 8.03501 18.7858 8.44922C18.7858 8.86343 18.4501 9.19922 18.0358 9.19922H16.6328C16.2186 9.19922 15.8828 8.86343 15.8828 8.44922Z" fill="black"/>
<path fill-rule="evenodd" clip-rule="evenodd" d="M9.21289 11.9984C9.21289 10.3199 10.5736 8.96094 12.2513 8.96094C13.9282 8.96094 15.2888 10.3201 15.2888 11.9984C15.2888 13.6767 13.9282 15.0359 12.2513 15.0359C10.5736 15.0359 9.21289 13.6769 9.21289 11.9984ZM12.2513 10.4609C11.4012 10.4609 10.7129 11.1491 10.7129 11.9984C10.7129 12.8477 11.4012 13.5359 12.2513 13.5359C13.1002 13.5359 13.7888 12.8479 13.7888 11.9984C13.7888 11.1489 13.1002 10.4609 12.2513 10.4609Z" fill="black"/>
</svg>