<svg width="24" height="25" viewBox="0 0 24 25" fill="none" xmlns="http://www.w3.org/2000/svg">
<path d="M12.4116 19.114H6.18941C4.22303 19.114 3 17.7265 3 15.7631V8.36459C3 6.40113 4.22303 5.01367 6.18843 5.01367H7.15836" stroke="black" stroke-width="1.5" stroke-linecap="round" stroke-linejoin="round"/>
<path d="M21.0003 10.3611V8.36264C21.0003 6.39918 19.7714 5.01172 17.8119 5.01172H10.3535" stroke="black" stroke-width="1.5" stroke-linecap="round" stroke-linejoin="round"/>
<path d="M6.21484 8.51562H7.61787" stroke="black" stroke-width="1.5" stroke-linecap="round" stroke-linejoin="round"/>
<path d="M12.0003 9.77734C10.7374 9.77734 9.71289 10.8009 9.71289 12.0648C9.71289 13.3287 10.7374 14.3523 12.0003 14.3523C13.2642 14.3523 14.2888 13.3287 14.2888 12.0648" stroke="black" stroke-width="1.5" stroke-linecap="round" stroke-linejoin="round"/>
<path d="M20.5796 14.6758L18.6716 16.5857M18.6716 16.5857L16.7637 18.4946M18.6716 16.5857L16.7637 14.6758M18.6716 16.5857L20.5796 18.4946" stroke="black" stroke-width="1.5" stroke-linecap="round" stroke-linejoin="round"/>
</svg>