<svg width="25" height="25" viewBox="0 0 25 25" fill="none" xmlns="http://www.w3.org/2000/svg">
<path fill-rule="evenodd" clip-rule="evenodd" d="M4.65612 6.08303C4.25582 6.51299 4 7.15684 4 7.98373V15.3822C4 16.2091 4.25582 16.8529 4.65618 17.2829C5.05092 17.7068 5.64141 17.9831 6.43941 17.9831H12.6616C13.0758 17.9831 13.4116 18.3189 13.4116 18.7331C13.4116 19.1473 13.0758 19.4831 12.6616 19.4831H6.43941C5.27103 19.4831 4.26681 19.0658 3.55844 18.3051C2.8557 17.5504 2.5 16.5188 2.5 15.3822V7.98373C2.5 6.84716 2.85569 5.81555 3.55826 5.06092C4.26646 4.30023 5.27043 3.88281 6.43843 3.88281H18.0616C19.2271 3.88281 20.2307 4.30054 20.9392 5.06056C21.6423 5.81474 22 6.84622 22 7.98373V9.98222C22 10.3964 21.6642 10.7322 21.25 10.7322C20.8358 10.7322 20.5 10.3964 20.5 9.98222V7.98373C20.5 7.15778 20.2433 6.51381 19.842 6.08339C19.4462 5.65881 18.8556 5.38281 18.0616 5.38281H6.43843C5.64103 5.38281 5.05078 5.65912 4.65612 6.08303Z" fill="black"/>
<path fill-rule="evenodd" clip-rule="evenodd" d="M5.71289 8.13281C5.71289 7.7186 6.04868 7.38281 6.46289 7.38281H7.86592C8.28013 7.38281 8.61592 7.7186 8.61592 8.13281C8.61592 8.54703 8.28013 8.88281 7.86592 8.88281H6.46289C6.04868 8.88281 5.71289 8.54703 5.71289 8.13281Z" fill="black"/>
<path fill-rule="evenodd" clip-rule="evenodd" d="M12.2484 10.1445C11.3995 10.1445 10.7109 10.8325 10.7109 11.682C10.7109 12.5315 11.3995 13.2194 12.2484 13.2194C13.0985 13.2194 13.7868 12.5313 13.7868 11.682C13.7868 10.8327 13.0985 10.1445 12.2484 10.1445ZM9.21094 11.682C9.21094 10.0037 10.5715 8.64453 12.2484 8.64453C13.9261 8.64453 15.2868 10.0035 15.2868 11.682C15.2868 13.3605 13.9261 14.7194 12.2484 14.7194C10.5715 14.7194 9.21094 13.3603 9.21094 11.682Z" fill="black"/>
<path fill-rule="evenodd" clip-rule="evenodd" d="M15.2168 17.8926C15.2168 17.4784 15.5526 17.1426 15.9668 17.1426H17.688C18.1022 17.1426 18.438 17.4784 18.438 17.8926C18.438 18.3068 18.1022 18.6426 17.688 18.6426H16.7168V19.4931C16.7168 19.9073 16.381 20.2431 15.9668 20.2431C15.5526 20.2431 15.2168 19.9073 15.2168 19.4931V17.8926Z" fill="black"/>
<path fill-rule="evenodd" clip-rule="evenodd" d="M21.2505 12.9336C21.6647 12.9336 22.0005 13.2694 22.0005 13.6836V15.4038C22.0005 15.818 21.6647 16.1538 21.2505 16.1538H19.5293C19.1151 16.1538 18.7793 15.818 18.7793 15.4038C18.7793 14.9896 19.1151 14.6538 19.5293 14.6538H20.5005V13.6836C20.5005 13.2694 20.8363 12.9336 21.2505 12.9336Z" fill="black"/>
<path fill-rule="evenodd" clip-rule="evenodd" d="M15.5757 17.2606C15.9282 17.0451 16.3883 17.1554 16.605 17.5066L16.6052 17.5068L16.6083 17.5117C16.6122 17.5178 16.6195 17.5289 16.6301 17.5444C16.6512 17.5754 16.6851 17.6233 16.7311 17.6824C16.8237 17.8017 16.9607 17.9607 17.1351 18.1181C17.4937 18.4417 17.9433 18.6995 18.4537 18.6995C19.2089 18.6995 19.8696 18.291 20.2219 17.6804C20.4289 17.3216 20.8876 17.1986 21.2464 17.4056C21.6051 17.6126 21.7282 18.0712 21.5212 18.43C20.9102 19.489 19.7632 20.1995 18.4537 20.1995C17.4239 20.1995 16.6301 19.6828 16.1303 19.2318C15.8755 19.002 15.6795 18.7738 15.5465 18.6027C15.4796 18.5166 15.4276 18.4434 15.3909 18.3897C15.3726 18.3628 15.358 18.3407 15.3474 18.3241L15.3342 18.3035L15.3298 18.2964L15.3282 18.2937L15.3275 18.2926L15.3272 18.2921C15.327 18.2919 15.3269 18.2916 15.9668 17.9005" fill="black"/>
<path fill-rule="evenodd" clip-rule="evenodd" d="M18.4541 14.6172C17.6896 14.6172 17.0313 15.0249 16.6785 15.6417C16.4728 16.0012 16.0146 16.1259 15.655 15.9202C15.2955 15.7146 15.1708 15.2563 15.3765 14.8968C15.9888 13.8264 17.1364 13.1172 18.4541 13.1172C19.6092 13.1172 20.472 13.5992 21.0318 14.0644C21.3111 14.2965 21.5203 14.5284 21.6613 14.7043C21.7321 14.7927 21.7867 14.8682 21.8252 14.9242C21.8444 14.9523 21.8597 14.9756 21.8711 14.9933L21.8852 15.0157L21.89 15.0236L21.8919 15.0267L21.8927 15.028L21.8931 15.0286C21.8933 15.0289 21.8934 15.0292 21.2504 15.4152L21.8934 15.0292C22.1066 15.3843 21.9915 15.8451 21.6364 16.0582C21.2816 16.2712 20.8216 16.1566 20.6081 15.8024C20.608 15.8022 20.6078 15.802 20.6077 15.8018C20.6077 15.8017 20.6077 15.8017 20.6077 15.8017C20.6077 15.8017 20.6077 15.8017 20.6077 15.8017L20.6077 15.8018L20.608 15.8022L20.6081 15.8024L20.6085 15.8031L20.6094 15.8046L20.6102 15.8058C20.6103 15.806 20.6095 15.8048 20.6079 15.8023C20.6048 15.7974 20.5983 15.7874 20.5885 15.7731C20.5688 15.7445 20.5362 15.699 20.4907 15.6423C20.3992 15.528 20.2594 15.3729 20.0731 15.218C19.7014 14.9091 19.1661 14.6172 18.4541 14.6172Z" fill="black"/>
</svg>