<svg width="24" height="24" viewBox="0 0 24 24" fill="none" xmlns="http://www.w3.org/2000/svg">
<path d="M6.18843 4.94922H17.8116C19.777 4.94922 21 6.33668 21 8.30014V15.6986C21 17.6621 19.777 19.0495 17.8106 19.0495H6.18843C4.22303 19.0495 3 17.6621 3 15.6986V8.30014C3 6.33668 4.22886 4.94922 6.18843 4.94922Z" stroke="black" stroke-width="1.5" stroke-linecap="round" stroke-linejoin="round"/>
<path d="M6.67871 15.303V15.293" stroke="black" stroke-width="1.5" stroke-linecap="round" stroke-linejoin="round"/>
<path d="M17.3213 8.70922V8.69922" stroke="black" stroke-width="1.5" stroke-linecap="round" stroke-linejoin="round"/>
<path fill-rule="evenodd" clip-rule="evenodd" d="M14.2888 12.0003C14.2888 10.7365 13.2642 9.71289 12.0013 9.71289C10.7374 9.71289 9.71289 10.7365 9.71289 12.0003C9.71289 13.2642 10.7374 14.2878 12.0013 14.2878C13.2642 14.2878 14.2888 13.2642 14.2888 12.0003Z" stroke="black" stroke-width="1.5" stroke-linecap="round" stroke-linejoin="round"/>
</svg>