<svg width="24" height="24" viewBox="0 0 24 24" fill="none" xmlns="http://www.w3.org/2000/svg">
<path d="M5.68348 4.64258H15.4687C17.1238 4.64258 18.1532 5.81016 18.1532 7.46325V13.6913C18.1532 15.3444 17.1238 16.5129 15.4678 16.5129H5.68348C4.02941 16.5129 3 15.3444 3 13.6913V7.46325C3 5.81016 4.03428 4.64258 5.68348 4.64258Z" stroke="black" stroke-width="1.5" stroke-linecap="round" stroke-linejoin="round"/>
<path d="M18.15 7.48438H18.3203C19.9714 7.48438 20.9999 8.65487 20.9999 10.306V16.5341C20.9999 18.1862 19.9714 19.3557 18.3106 19.3557H8.53404C6.87316 19.3557 5.84375 18.1862 5.84375 16.5341" stroke="black" stroke-width="1.5" stroke-linecap="round" stroke-linejoin="round"/>
<path d="M5.70703 13.5664H6.88823" stroke="black" stroke-width="1.5" stroke-linecap="round" stroke-linejoin="round"/>
<path fill-rule="evenodd" clip-rule="evenodd" d="M12.5044 10.5779C12.5044 9.5144 11.6423 8.65234 10.5788 8.65234C9.5144 8.65234 8.65234 9.5144 8.65234 10.5779C8.65234 11.6413 9.5144 12.5034 10.5788 12.5034C11.6423 12.5034 12.5044 11.6413 12.5044 10.5779Z" stroke="black" stroke-width="1.5" stroke-linecap="round" stroke-linejoin="round"/>
<path d="M15.4488 7.58984H14.2676" stroke="black" stroke-width="1.5" stroke-linecap="round" stroke-linejoin="round"/>
</svg>