<svg width="25" height="24" viewBox="0 0 25 24" fill="none" xmlns="http://www.w3.org/2000/svg">
<path d="M6.6904 4.95312H18.3116C20.277 4.95312 21.5001 6.34059 21.5001 8.30308V15.7006C21.5001 17.6641 20.277 19.0506 18.3107 19.0506H6.6904C4.72499 19.0506 3.50293 17.6641 3.50293 15.7006V8.30308C3.50293 6.34059 4.73083 4.95312 6.6904 4.95312Z" stroke="black" stroke-width="1.5" stroke-linecap="round" stroke-linejoin="round"/>
<path opacity="0.4" d="M17.3032 19.0502C16.8624 17.8534 17.1144 16.4582 18.0864 15.4959C19.0127 14.5687 20.3272 14.2991 21.4967 14.6767" stroke="black" stroke-width="1.5" stroke-linecap="round" stroke-linejoin="round"/>
<path opacity="0.4" d="M3.5 14.6767C4.66076 14.2991 5.99277 14.5687 6.91904 15.4959C7.88229 16.4582 8.13429 17.8534 7.69353 19.0502" stroke="black" stroke-width="1.5" stroke-linecap="round" stroke-linejoin="round"/>
<path opacity="0.4" d="M7.68477 4.94922C8.14402 6.13722 7.88229 7.54123 6.92001 8.51226C5.99277 9.43951 4.66173 9.70902 3.5 9.33151" stroke="black" stroke-width="1.5" stroke-linecap="round" stroke-linejoin="round"/>
<path opacity="0.4" d="M17.3135 4.94922C16.8543 6.13722 17.116 7.54123 18.087 8.51226C19.0143 9.43951 20.3278 9.70902 21.4983 9.33151" stroke="black" stroke-width="1.5" stroke-linecap="round" stroke-linejoin="round"/>
<path fill-rule="evenodd" clip-rule="evenodd" d="M14.7898 12.0023C14.7898 10.7394 13.7652 9.71484 12.5023 9.71484C11.2394 9.71484 10.2148 10.7394 10.2148 12.0023C10.2148 13.2652 11.2394 14.2898 12.5023 14.2898C13.7652 14.2898 14.7898 13.2652 14.7898 12.0023Z" stroke="black" stroke-width="1.5" stroke-linecap="round" stroke-linejoin="round"/>
</svg>