<svg width="24" height="24" viewBox="0 0 24 24" fill="none" xmlns="http://www.w3.org/2000/svg">
<path d="M12 19.0495H6.18843C4.22886 19.0495 3 17.6621 3 15.6986V8.30014C3 6.33668 4.22303 4.94922 6.18843 4.94922H17.8106C19.777 4.94922 21 6.33668 21 8.30014V15.6986C21 17.6621 19.777 19.0495 17.8116 19.0495H14.9058" stroke="black" stroke-width="1.5" stroke-linecap="round" stroke-linejoin="round"/>
<path d="M6.21484 15.5488H7.61787" stroke="black" stroke-width="1.5" stroke-linecap="round" stroke-linejoin="round"/>
<path d="M17.7858 8.44922H16.3828" stroke="black" stroke-width="1.5" stroke-linecap="round" stroke-linejoin="round"/>
<path d="M12.0013 9.71094C10.7374 9.71094 9.71289 10.7345 9.71289 11.9984C9.71289 13.2623 10.7374 14.2859 12.0013 14.2859C13.2642 14.2859 14.2888 13.2623 14.2888 11.9984C14.2888 11.6311 14.2023 11.2841 14.0485 10.9766" stroke="black" stroke-width="1.5" stroke-linecap="round" stroke-linejoin="round"/>
</svg>