<svg width="24" height="25" viewBox="0 0 24 25" fill="none" xmlns="http://www.w3.org/2000/svg">
<path opacity="0.4" fill-rule="evenodd" clip-rule="evenodd" d="M18.797 11.5811C19.2864 11.5811 19.7587 11.6564 20.2036 11.795C20.4082 11.8587 20.627 11.7127 20.627 11.4984V8.05312C20.627 5.75012 19.145 4.20312 16.938 4.20312H5.31395C3.10795 4.20312 1.62695 5.75012 1.62695 8.05312V15.4531C1.62695 17.7561 3.10895 19.3031 5.31495 19.3031H14.4582C14.7093 19.3031 14.8547 19.0083 14.7237 18.794C14.2873 18.0798 14.028 17.2487 14.028 16.3521C14.028 13.7211 16.168 11.5811 18.797 11.5811Z" fill="black"/>
<path fill-rule="evenodd" clip-rule="evenodd" d="M19.8741 17.4301C19.5801 17.7141 19.1971 17.8701 18.7971 17.8701C17.9601 17.8701 17.2781 17.1891 17.2781 16.3511C17.2781 15.5121 17.9601 14.8301 18.7971 14.8301C19.6351 14.8301 20.3161 15.5121 20.3161 16.3511C20.3161 16.8631 20.0771 17.2191 19.8741 17.4301ZM22.1511 18.6391L21.3961 17.8891C21.6711 17.4251 21.8161 16.8981 21.8161 16.3511C21.8161 14.6861 20.4621 13.3301 18.7971 13.3301C17.1331 13.3301 15.7781 14.6861 15.7781 16.3511C15.7781 18.0161 17.1331 19.3701 18.7971 19.3701C19.3451 19.3701 19.8731 19.2241 20.3371 18.9511L21.0951 19.7031C21.2411 19.8491 21.4321 19.9211 21.6231 19.9211C21.8151 19.9211 22.0091 19.8471 22.1551 19.7001C22.4471 19.4061 22.4451 18.9311 22.1511 18.6391Z" fill="black"/>
<path fill-rule="evenodd" clip-rule="evenodd" d="M11.1261 14.7931C9.45107 14.7931 8.08806 13.4301 8.08806 11.7531C8.08806 10.0761 9.45107 8.71313 11.1261 8.71313C12.8011 8.71313 14.1641 10.0761 14.1641 11.7531C14.1641 13.4301 12.8011 14.7931 11.1261 14.7931ZM9.58812 11.7531C9.58812 10.9031 10.2781 10.2131 11.1261 10.2131C11.9741 10.2131 12.6641 10.9031 12.6641 11.7531C12.6641 12.6031 11.9741 13.2931 11.1261 13.2931C10.2781 13.2931 9.58812 12.6031 9.58812 11.7531Z" fill="black"/>
<path d="M6.74406 8.95312H5.34106C4.92706 8.95312 4.59106 8.61713 4.59106 8.20312C4.59106 7.78912 4.92706 7.45312 5.34106 7.45312H6.74406C7.15806 7.45312 7.49406 7.78912 7.49406 8.20312C7.49406 8.61713 7.15806 8.95312 6.74406 8.95312Z" fill="black"/>
</svg>