<svg width="25" height="24" viewBox="0 0 25 24" fill="none" xmlns="http://www.w3.org/2000/svg">
<path fill-rule="evenodd" clip-rule="evenodd" d="M6.487 14.6C6.65269 14.6 6.787 14.4657 6.787 14.3V8.4C6.787 8.097 6.97 7.824 7.25 7.707C7.531 7.592 7.853 7.656 8.067 7.87L12.2851 12.0881C12.4021 12.2051 12.5919 12.2052 12.7091 12.0883L16.935 7.87C17.149 7.656 17.472 7.591 17.752 7.707C18.032 7.824 18.215 8.097 18.215 8.4V14.3C18.215 14.4657 18.3493 14.6 18.515 14.6H21.4026C21.5366 14.6 21.6548 14.5113 21.6887 14.3817C21.8876 13.6202 22 12.823 22 12C22 6.762 17.738 2.5 12.5 2.5C7.262 2.5 3 6.762 3 12C3 12.823 3.11155 13.6202 3.31035 14.3816C3.34419 14.5113 3.46239 14.6 3.59637 14.6H6.487Z" fill="black"/>
<path opacity="0.4" fill-rule="evenodd" clip-rule="evenodd" d="M17.4646 16.099C17.0506 16.099 16.7146 15.763 16.7146 15.349V10.9315C16.7146 10.6643 16.3917 10.5304 16.2027 10.7192L13.0266 13.89C12.7336 14.182 12.2596 14.182 11.9666 13.89L8.79875 10.7222C8.60976 10.5332 8.28662 10.667 8.28662 10.9343V15.349C8.28662 15.763 7.95062 16.099 7.53662 16.099H4.41997C4.19892 16.099 4.05466 16.3297 4.16038 16.5239C5.77171 19.4827 8.90038 21.499 12.4996 21.499C16.0989 21.499 19.2285 19.4827 20.839 16.5238C20.9447 16.3297 20.8004 16.099 20.5794 16.099H17.4646Z" fill="black"/>
</svg>