<svg width="25" height="25" viewBox="0 0 25 25" fill="none" xmlns="http://www.w3.org/2000/svg">
<path fill-rule="evenodd" clip-rule="evenodd" d="M4.65612 6.46194C4.25582 6.8919 4 7.53575 4 8.36264V15.7611C4 16.588 4.25582 17.2318 4.65618 17.6618C5.05092 18.0857 5.64141 18.362 6.43941 18.362H13.5616C13.9758 18.362 14.3116 18.6978 14.3116 19.112C14.3116 19.5263 13.9758 19.862 13.5616 19.862H6.43941C5.27103 19.862 4.26681 19.4447 3.55844 18.684C2.8557 17.9293 2.5 16.8977 2.5 15.7611V8.36264C2.5 7.22607 2.85569 6.19446 3.55826 5.43983C4.26646 4.67914 5.27043 4.26172 6.43843 4.26172H18.0616C19.2271 4.26172 20.2307 4.67945 20.9392 5.43946C21.6423 6.19364 22 7.22513 22 8.36264V10.3611C22 10.7753 21.6642 11.1111 21.25 11.1111C20.8358 11.1111 20.5 10.7753 20.5 10.3611V8.36264C20.5 7.53669 20.2433 6.89271 19.842 6.4623C19.4462 6.03772 18.8556 5.76172 18.0616 5.76172H6.43843C5.64103 5.76172 5.05078 6.03803 4.65612 6.46194Z" fill="black"/>
<path fill-rule="evenodd" clip-rule="evenodd" d="M19.1133 13.3125C19.3122 13.3125 19.503 13.3916 19.6437 13.5323L21.7793 15.6689C22.0722 15.9619 22.0721 16.4368 21.7791 16.7296C21.4861 17.0224 21.0113 17.0223 20.7184 16.7294L19.1131 15.1233L17.5069 16.7295C17.214 17.0224 16.7391 17.0224 16.4462 16.7295C16.1533 16.4366 16.1533 15.9617 16.4462 15.6688L18.5829 13.5322C18.7236 13.3915 18.9144 13.3125 19.1133 13.3125Z" fill="black"/>
<path fill-rule="evenodd" clip-rule="evenodd" d="M19.1132 13.3125C19.5275 13.3125 19.8633 13.6482 19.8633 14.0625L19.8636 19.1122C19.8636 19.5264 19.5278 19.8622 19.1136 19.8622C18.6994 19.8623 18.3636 19.5265 18.3636 19.1123L18.3633 14.0625C18.3633 13.6483 18.699 13.3125 19.1132 13.3125Z" fill="black"/>
<path fill-rule="evenodd" clip-rule="evenodd" d="M5.71289 8.51367C5.71289 8.09946 6.04868 7.76367 6.46289 7.76367H7.86592C8.28013 7.76367 8.61592 8.09946 8.61592 8.51367C8.61592 8.92789 8.28013 9.26367 7.86592 9.26367H6.46289C6.04868 9.26367 5.71289 8.92789 5.71289 8.51367Z" fill="black"/>
<path fill-rule="evenodd" clip-rule="evenodd" d="M12.2484 10.5254C11.3995 10.5254 10.7109 11.2134 10.7109 12.0628C10.7109 12.9123 11.3995 13.6003 12.2484 13.6003C13.0985 13.6003 13.7868 12.9121 13.7868 12.0628C13.7868 11.2136 13.0985 10.5254 12.2484 10.5254ZM9.21094 12.0628C9.21094 10.3845 10.5715 9.02539 12.2484 9.02539C13.9261 9.02539 15.2868 10.3843 15.2868 12.0628C15.2868 13.7414 13.9261 15.1003 12.2484 15.1003C10.5715 15.1003 9.21094 13.7412 9.21094 12.0628Z" fill="black"/>
</svg>