<svg width="24" height="24" viewBox="0 0 24 24" fill="none" xmlns="http://www.w3.org/2000/svg">
<path fill-rule="evenodd" clip-rule="evenodd" d="M12 3.75C7.44365 3.75 3.75 7.44365 3.75 12C3.75 16.5563 7.44365 20.25 12 20.25C16.5563 20.25 20.25 16.5563 20.25 12C20.25 7.44365 16.5563 3.75 12 3.75ZM2.25 12C2.25 6.61522 6.61522 2.25 12 2.25C17.3848 2.25 21.75 6.61522 21.75 12C21.75 17.3848 17.3848 21.75 12 21.75C6.61522 21.75 2.25 17.3848 2.25 12Z" fill="black"/>
<path fill-rule="evenodd" clip-rule="evenodd" d="M11.7112 6.05776C11.8959 5.98075 12.1038 5.98075 12.2885 6.05776C12.91 6.31688 13.8046 6.85779 14.5585 7.66951C15.3181 8.4875 15.9728 9.62438 15.9933 11.0528C16.0138 12.485 15.3677 13.6841 14.618 14.5712C13.8698 15.4566 12.9701 16.0911 12.3456 16.4155C12.1289 16.5282 11.8708 16.5282 11.6541 16.4155C11.0296 16.0911 10.1299 15.4567 9.38163 14.5712C8.63195 13.6841 7.98582 12.485 8.00634 11.0528C8.0268 9.62437 8.68149 8.48748 9.44121 7.6695C10.1951 6.85778 11.0897 6.31687 11.7112 6.05776ZM10.5403 8.6903C9.95348 9.3221 9.51986 10.1196 9.50618 11.0743C9.49256 12.0254 9.9205 12.885 10.5273 13.603C11.0016 14.1642 11.5555 14.6023 11.9998 14.884C12.4441 14.6023 12.9981 14.1642 13.4723 13.603C14.0791 12.885 14.507 12.0254 14.4934 11.0743C14.4797 10.1196 14.0461 9.32208 13.4594 8.69029C12.9826 8.17692 12.4297 7.80195 11.9999 7.57827C11.57 7.80195 11.0171 8.17693 10.5403 8.6903Z" fill="black"/>
<path fill-rule="evenodd" clip-rule="evenodd" d="M12 11.2109C12.4142 11.2109 12.75 11.5467 12.75 11.9609L12.75 17.25C12.75 17.6642 12.4142 18 12 18C11.5858 18 11.25 17.6642 11.25 17.25L11.25 11.9609C11.25 11.5467 11.5858 11.2109 12 11.2109Z" fill="black"/>
</svg>