<svg width="25" height="24" viewBox="0 0 25 24" fill="none" xmlns="http://www.w3.org/2000/svg">
<path fill-rule="evenodd" clip-rule="evenodd" d="M13.0449 7.44595C13.0449 5.66373 14.4899 4.21875 16.2721 4.21875H18.7727C20.5551 4.21875 21.9989 5.66388 21.9989 7.4449C21.9989 7.44493 21.9989 7.44487 21.9989 7.4449L21.9999 16.553C21.9999 18.3353 20.5549 19.7791 18.7739 19.7793C18.7738 19.7793 18.774 19.7793 18.7739 19.7793L16.2724 19.7802C14.491 19.7802 13.0459 18.3351 13.0459 16.5531C13.0459 16.5531 13.0459 16.5531 13.0459 16.5531L13.0449 7.44595ZM14.5449 7.44595C14.5449 7.44598 14.5449 7.44593 14.5449 7.44595L14.5459 16.553C14.5459 17.5068 15.3193 18.2801 16.2718 18.2802L18.7734 18.2793C19.7263 18.2793 20.4998 17.5067 20.4999 16.5531C20.4999 16.5531 20.4999 16.5531 20.4999 16.5531L20.4989 7.44506C20.4989 6.49205 19.7263 5.71875 18.7727 5.71875H16.2721C15.3184 5.71875 14.545 6.4922 14.5449 7.44595Z" fill="black"/>
<path fill-rule="evenodd" clip-rule="evenodd" d="M5.35455 6.39844C4.6068 6.39844 4 7.00472 4 7.75299V13.9295C4 14.6777 4.6068 15.284 5.35455 15.284H10.9326C11.3469 15.284 11.6826 15.6198 11.6826 16.034C11.6826 16.4482 11.3469 16.784 10.9326 16.784H5.35455C3.77883 16.784 2.5 15.5066 2.5 13.9295V7.75299C2.5 6.17584 3.77883 4.89844 5.35455 4.89844H10.9326C11.3469 4.89844 11.6826 5.23422 11.6826 5.64844C11.6826 6.06265 11.3469 6.39844 10.9326 6.39844H5.35455Z" fill="black"/>
<path fill-rule="evenodd" clip-rule="evenodd" d="M5.66406 18.793C5.66406 18.3788 5.99985 18.043 6.41406 18.043H10.9326C11.3468 18.043 11.6826 18.3788 11.6826 18.793C11.6826 19.2072 11.3468 19.543 10.9326 19.543H6.41406C5.99985 19.543 5.66406 19.2072 5.66406 18.793Z" fill="black"/>
<path fill-rule="evenodd" clip-rule="evenodd" d="M17.5234 15.5059C17.9377 15.5059 18.2734 15.8416 18.2734 16.2559V16.3269C18.2734 16.7411 17.9377 17.0769 17.5234 17.0769C17.1092 17.0769 16.7734 16.7411 16.7734 16.3269V16.2559C16.7734 15.8416 17.1092 15.5059 17.5234 15.5059Z" fill="black"/>
<path fill-rule="evenodd" clip-rule="evenodd" d="M15.5 9.375C15.5 8.96079 15.8358 8.625 16.25 8.625H18.7953C19.2095 8.625 19.5453 8.96079 19.5453 9.375C19.5453 9.78921 19.2095 10.125 18.7953 10.125H16.25C15.8358 10.125 15.5 9.78921 15.5 9.375Z" fill="black"/>
<path fill-rule="evenodd" clip-rule="evenodd" d="M15.5 11.875C15.5 11.4608 15.8358 11.125 16.25 11.125H18.7953C19.2095 11.125 19.5453 11.4608 19.5453 11.875C19.5453 12.2892 19.2095 12.625 18.7953 12.625H16.25C15.8358 12.625 15.5 12.2892 15.5 11.875Z" fill="black"/>
</svg>