<svg width="25" height="24" viewBox="0 0 25 24" fill="none" xmlns="http://www.w3.org/2000/svg">
<path d="M21.4994 11.999L21.4989 7.44498C21.4989 6.07795 20.3907 4.96875 19.0227 4.96875H16.5221C15.1541 4.96875 14.0449 6.07795 14.0449 7.44595L14.0459 16.553C14.0459 17.921 15.1551 19.0302 16.5221 19.0302L19.0237 19.0293C20.3907 19.0293 21.4999 17.921 21.4999 16.553V15.5625" stroke="black" stroke-width="1.5" stroke-linecap="round" stroke-linejoin="round"/>
<path d="M11.1826 16.0346H5.60455C4.44282 16.0346 3.5 15.0927 3.5 13.93V10.8418" stroke="black" stroke-width="1.5" stroke-linecap="round" stroke-linejoin="round"/>
<path d="M3.5 7.75299C3.5 6.59028 4.44282 5.64844 5.60455 5.64844H11.1826" stroke="black" stroke-width="1.5" stroke-linecap="round" stroke-linejoin="round"/>
<path d="M6.66406 18.793H11.1826" stroke="black" stroke-width="1.5" stroke-linecap="round" stroke-linejoin="round"/>
<path d="M17.7734 16.2559V16.3269" stroke="black" stroke-width="1.5" stroke-linecap="round" stroke-linejoin="round"/>
<path d="M16.5 9.375H19.0453" stroke="black" stroke-width="1.5" stroke-linecap="round" stroke-linejoin="round"/>
<path d="M16.5 11.875H19.0453" stroke="black" stroke-width="1.5" stroke-linecap="round" stroke-linejoin="round"/>
</svg>