<svg width="25" height="24" viewBox="0 0 25 24" fill="none" xmlns="http://www.w3.org/2000/svg">
<path fill-rule="evenodd" clip-rule="evenodd" d="M2.5 7.80119C2.5 5.22687 4.58625 3.14062 7.16057 3.14062H14.1974C14.6117 3.14062 14.9474 3.47641 14.9474 3.89062C14.9474 4.30484 14.6117 4.64062 14.1974 4.64062H7.16057C5.41468 4.64062 4 6.0553 4 7.80119V13.0973C4 14.8432 5.41468 16.2579 7.16057 16.2579H16.811C18.556 16.2579 19.9715 14.8431 19.9715 13.0973V10.4147C19.9715 10.0005 20.3073 9.66472 20.7215 9.66472C21.1358 9.66472 21.4715 10.0005 21.4715 10.4147V13.0973C21.4715 15.6718 19.3842 17.7579 16.811 17.7579H7.16057C4.58625 17.7579 2.5 15.6717 2.5 13.0973V7.80119Z" fill="black"/>
<path fill-rule="evenodd" clip-rule="evenodd" d="M16.8642 2.65912C17.1571 2.36623 17.632 2.36623 17.9249 2.65912L19.3221 4.05635L20.7193 2.65912C21.0122 2.36623 21.4871 2.36623 21.78 2.65912C22.0729 2.95202 22.0729 3.42689 21.78 3.71978L20.3827 5.11701L21.78 6.51423C22.0729 6.80712 22.0729 7.28199 21.78 7.57489C21.4871 7.86778 21.0122 7.86778 20.7193 7.57489L19.3221 6.17767L17.9249 7.57489C17.632 7.86778 17.1571 7.86778 16.8642 7.57489C16.5713 7.28199 16.5713 6.80712 16.8642 6.51423L18.2614 5.11701L16.8642 3.71978C16.5713 3.42689 16.5713 2.95202 16.8642 2.65912Z" fill="black"/>
<path fill-rule="evenodd" clip-rule="evenodd" d="M6.43555 20.8105C6.43555 20.3963 6.77133 20.0605 7.18555 20.0605H16.7834C17.1976 20.0605 17.5334 20.3963 17.5334 20.8105C17.5334 21.2248 17.1976 21.5605 16.7834 21.5605H7.18555C6.77133 21.5605 6.43555 21.2248 6.43555 20.8105Z" fill="black"/>
<path fill-rule="evenodd" clip-rule="evenodd" d="M10.052 16.2677C10.4608 16.3342 10.7383 16.7196 10.6717 17.1284L10.0529 20.93C9.98632 21.3388 9.60094 21.6163 9.19211 21.5498C8.78328 21.4832 8.50581 21.0978 8.57236 20.689L9.1912 16.8874C9.25775 16.4786 9.64312 16.2011 10.052 16.2677Z" fill="black"/>
<path fill-rule="evenodd" clip-rule="evenodd" d="M13.9187 16.2677C14.3275 16.2011 14.7129 16.4786 14.7794 16.8874L15.3983 20.689C15.4648 21.0978 15.1874 21.4832 14.7785 21.5498C14.3697 21.6163 13.9843 21.3388 13.9178 20.93L13.2989 17.1284C13.2324 16.7196 13.5098 16.3342 13.9187 16.2677Z" fill="black"/>
</svg>