<svg width="25" height="25" viewBox="0 0 25 25" fill="none" xmlns="http://www.w3.org/2000/svg">
<path d="M7.52802 3.56641H17.471C19.696 3.56641 21.5 5.3704 21.5 7.5954V13.0524C21.5 15.2774 19.696 17.0814 17.471 17.0814H7.52802C5.30402 17.0814 3.5 15.2774 3.5 13.0524V7.5954C3.5 5.3704 5.30402 3.56641 7.52802 3.56641Z" stroke="black" stroke-width="1.5" stroke-linecap="round" stroke-linejoin="round"/>
<path fill-rule="evenodd" clip-rule="evenodd" d="M13.7729 13.5117H11.2269C10.5299 13.5117 9.96289 12.9447 9.96289 12.2477V10.8177C9.96289 10.1207 10.5299 9.55469 11.2269 9.55469H13.7729C14.4709 9.55469 15.0369 10.1207 15.0369 10.8177V12.2477C15.0369 12.9447 14.4709 13.5117 13.7729 13.5117Z" stroke="black" stroke-width="1.5" stroke-linecap="round" stroke-linejoin="round"/>
<path d="M14.0195 9.58275V8.64177C14.0095 7.80277 13.3204 7.13074 12.4814 7.14074C11.6594 7.15074 10.9935 7.81373 10.9805 8.63573V9.58275" stroke="black" stroke-width="1.5" stroke-linecap="round" stroke-linejoin="round"/>
<path d="M7.55664 21H17.4446" stroke="black" stroke-width="1.5" stroke-linecap="round" stroke-linejoin="round"/>
<path opacity="0.4" d="M10.386 17.082L9.74805 20.999" stroke="black" stroke-width="1.5" stroke-linecap="round" stroke-linejoin="round"/>
<path opacity="0.4" d="M14.6172 17.082L15.2542 20.999" stroke="black" stroke-width="1.5" stroke-linecap="round" stroke-linejoin="round"/>
</svg>