<svg width="24" height="24" viewBox="0 0 24 24" fill="none" xmlns="http://www.w3.org/2000/svg">
<path d="M7.02811 3.28516H16.9709C19.1961 3.28516 21 5.08905 21 7.31424V12.7707C21 14.9959 19.1961 16.7998 16.9709 16.7998H7.02811C4.80389 16.7998 3 14.9959 3 12.7707V7.31424C3 5.08905 4.80389 3.28516 7.02811 3.28516Z" stroke="black" stroke-width="1.5" stroke-linecap="round" stroke-linejoin="round"/>
<path d="M7.05469 20.7148H16.943" stroke="black" stroke-width="1.5" stroke-linecap="round" stroke-linejoin="round"/>
<path d="M9.88339 16.7988L9.24609 20.716" stroke="black" stroke-width="1.5" stroke-linecap="round" stroke-linejoin="round"/>
<path d="M14.1152 16.7988L14.7525 20.716" stroke="black" stroke-width="1.5" stroke-linecap="round" stroke-linejoin="round"/>
<path d="M14.36 11.4428C13.857 12.3136 12.9152 12.8974 11.8381 12.8974C10.2317 12.8974 9.24414 11.2812 9.24414 11.2812" stroke="black" stroke-width="1.5" stroke-linecap="round" stroke-linejoin="round"/>
<path d="M9.30859 8.53757C9.81065 7.658 10.7535 7.07422 11.8393 7.07422C13.7872 7.07422 14.7563 8.69033 14.7563 8.69033" stroke="black" stroke-width="1.5" stroke-linecap="round" stroke-linejoin="round"/>
<path d="M14.7561 6.88477V8.67893H12.9609" stroke="black" stroke-width="1.5" stroke-linecap="round" stroke-linejoin="round"/>
<path d="M11.0393 11.2734H9.24414V12.9431" stroke="black" stroke-width="1.5" stroke-linecap="round" stroke-linejoin="round"/>
</svg>