<svg width="25" height="24" viewBox="0 0 25 24" fill="none" xmlns="http://www.w3.org/2000/svg">
<path fill-rule="evenodd" clip-rule="evenodd" d="M11.9043 3.96484C11.9043 3.55063 12.2401 3.21484 12.6543 3.21484H17.1085C19.6963 3.21484 21.7951 5.31362 21.7951 7.90141V13.2342C21.7951 15.823 19.6962 17.9207 17.1085 17.9207H7.39261C4.80409 17.9207 2.70508 15.8232 2.70508 13.2342V11.4099C2.70508 10.9957 3.04086 10.6599 3.45508 10.6599C3.86929 10.6599 4.20508 10.9957 4.20508 11.4099V13.2342C4.20508 14.9942 5.63204 16.4207 7.39261 16.4207H17.1085C18.868 16.4207 20.2951 14.9944 20.2951 13.2342V7.90141C20.2951 6.14205 18.8679 4.71484 17.1085 4.71484H12.6543C12.2401 4.71484 11.9043 4.37906 11.9043 3.96484Z" fill="black"/>
<path fill-rule="evenodd" clip-rule="evenodd" d="M6.66992 21C6.66992 20.5858 7.00571 20.25 7.41992 20.25H17.0823C17.4965 20.25 17.8323 20.5858 17.8323 21C17.8323 21.4142 17.4965 21.75 17.0823 21.75H7.41992C7.00571 21.75 6.66992 21.4142 6.66992 21Z" fill="black"/>
<path fill-rule="evenodd" clip-rule="evenodd" d="M10.3038 16.4317C10.7126 16.4982 10.9901 16.8836 10.9236 17.2924L10.3009 21.12C10.2344 21.5288 9.84907 21.8064 9.44023 21.7398C9.03139 21.6733 8.75388 21.288 8.82039 20.8791L9.44308 17.0516C9.50959 16.6427 9.89494 16.3652 10.3038 16.4317Z" fill="black"/>
<path fill-rule="evenodd" clip-rule="evenodd" d="M14.198 16.4317C14.6069 16.3652 14.9922 16.6427 15.0587 17.0516L15.6814 20.8791C15.7479 21.288 15.4704 21.6733 15.0616 21.7398C14.6528 21.8064 14.2674 21.5288 14.2009 21.12L13.5782 17.2924C13.5117 16.8836 13.7892 16.4982 14.198 16.4317Z" fill="black"/>
<path fill-rule="evenodd" clip-rule="evenodd" d="M6.47259 3.75C5.4233 3.75 4.57227 4.60042 4.57227 5.65032C4.57227 6.69907 5.42312 7.54967 6.47259 7.54967C6.97058 7.54967 7.42385 7.35814 7.76271 7.04479C7.76511 7.04254 7.76751 7.0403 7.76993 7.03808C8.14097 6.69141 8.37291 6.19787 8.37291 5.65032C8.37291 4.60042 7.52187 3.75 6.47259 3.75ZM9.29453 7.54736C9.65971 7.00558 9.87291 6.35289 9.87291 5.65032C9.87291 3.77164 8.34994 2.25 6.47259 2.25C4.59523 2.25 3.07227 3.77164 3.07227 5.65032C3.07227 7.52821 4.59541 9.04967 6.47259 9.04967C7.10431 9.04967 7.69595 8.87736 8.20292 8.57714L9.08073 9.45302C9.37394 9.7456 9.84881 9.74508 10.1414 9.45186C10.434 9.15865 10.4334 8.68377 10.1402 8.3912L9.29453 7.54736Z" fill="black"/>
</svg>