<svg width="24" height="24" viewBox="0 0 24 24" fill="none" xmlns="http://www.w3.org/2000/svg">
<path opacity="0.4" d="M10.6764 3.04492H16.97C19.47 3.04492 21.5 5.07492 21.5 7.57492V13.0249C21.5 15.5249 19.47 17.5549 16.97 17.5549H7.03C4.53 17.5549 2.5 15.5249 2.5 13.0249V9.9707C2.5 9.79806 2.70694 9.7034 2.84521 9.80675C3.70196 10.4472 4.75858 10.8249 5.9 10.8249C6.36 10.8249 6.79 10.7649 7.21 10.6549L7.27 10.7149C7.76 11.2049 8.4 11.4449 9.04 11.4449C9.68 11.4449 10.32 11.2049 10.81 10.7149C11.78 9.74492 11.78 8.17492 10.82 7.19492C10.97 6.71492 11.05 6.20492 11.05 5.67492C11.05 4.84127 10.8539 4.05287 10.4946 3.35555C10.423 3.21676 10.5203 3.04492 10.6764 3.04492Z" fill="black"/>
<path fill-rule="evenodd" clip-rule="evenodd" d="M5.9032 3.77539C4.8552 3.77539 4.0022 4.62839 4.0022 5.67539C4.0022 6.72339 4.8552 7.57539 5.9032 7.57539C6.9502 7.57539 7.8032 6.72339 7.8032 5.67539C7.8032 4.62839 6.9502 3.77539 5.9032 3.77539ZM9.0402 9.69739C8.8482 9.69739 8.6562 9.62439 8.5102 9.47839L7.6322 8.60239C7.1252 8.90239 6.5342 9.07539 5.9032 9.07539C4.0282 9.07539 2.5022 7.55039 2.5022 5.67539C2.5022 3.80039 4.0282 2.27539 5.9032 2.27539C7.7782 2.27539 9.3032 3.80039 9.3032 5.67539C9.3032 6.37739 9.0892 7.02939 8.7242 7.57139L9.5702 8.41639C9.8632 8.70939 9.8632 9.18439 9.5702 9.47739C9.4242 9.62439 9.2322 9.69739 9.0402 9.69739Z" fill="black"/>
<path d="M9.04303 17.5566L8.60903 20.2246H7.05603C6.64203 20.2246 6.30603 20.5606 6.30603 20.9746C6.30603 21.3886 6.64203 21.7246 7.05603 21.7246H16.944C17.358 21.7246 17.694 21.3886 17.694 20.9746C17.694 20.5606 17.358 20.2246 16.944 20.2246H15.392L14.957 17.5566H13.438L13.872 20.2246H10.129L10.562 17.5566H9.04303Z" fill="black"/>
</svg>