<svg width="25" height="24" viewBox="0 0 25 24" fill="none" xmlns="http://www.w3.org/2000/svg">
<path d="M3.5 12.7706C3.5 14.9958 5.30384 16.7996 7.52897 16.7996H17.4705C19.6957 16.7996 21.4995 14.9958 21.4995 12.7706V11.4941" stroke="black" stroke-width="1.5" stroke-linecap="round" stroke-linejoin="round"/>
<path d="M9.19563 3.28516H7.52897C5.30384 3.28516 3.5 5.089 3.5 7.31413V10.0423" stroke="black" stroke-width="1.5" stroke-linecap="round" stroke-linejoin="round"/>
<path d="M13.9491 3.28516C12.7932 3.28516 12.0684 4.10438 12.0684 5.26218V7.49218C12.0684 8.65096 12.7893 9.46921 13.9491 9.46921H16.9263C18.086 9.46921 18.808 8.65096 18.808 7.49218V5.26218C18.808 4.10438 18.086 3.28516 16.9263 3.28516" stroke="black" stroke-width="1.5" stroke-linecap="round" stroke-linejoin="round"/>
<path d="M18.8047 5.84122L20.4694 4.47909C20.7389 4.25823 21.1368 4.29715 21.3577 4.56666C21.4501 4.67952 21.5007 4.82157 21.5007 4.96751L21.4939 7.78517C21.4939 8.13348 21.2108 8.41564 20.8625 8.41466C20.7165 8.41466 20.5755 8.36407 20.4626 8.27164L18.8047 6.90951" stroke="black" stroke-width="1.5" stroke-linecap="round" stroke-linejoin="round"/>
<path d="M7.55469 20.7148H17.4427" stroke="black" stroke-width="1.5" stroke-linecap="round" stroke-linejoin="round"/>
<path d="M10.3834 16.7969L9.74609 20.714" stroke="black" stroke-width="1.5" stroke-linecap="round" stroke-linejoin="round"/>
<path d="M14.6152 16.7969L15.2525 20.714" stroke="black" stroke-width="1.5" stroke-linecap="round" stroke-linejoin="round"/>
</svg>