<svg width="25" height="24" viewBox="0 0 25 24" fill="none" xmlns="http://www.w3.org/2000/svg">
<path d="M21.2951 13.2344C21.2951 15.409 19.5321 17.171 17.3585 17.171H7.64261C5.46807 17.171 3.70508 15.409 3.70508 13.2344V11.4102" stroke="black" stroke-width="1.5" stroke-linecap="round" stroke-linejoin="round"/>
<path d="M12.9043 3.96484H17.3585C19.532 3.96484 21.295 5.72783 21.295 7.90141V10.5678" stroke="black" stroke-width="1.5" stroke-linecap="round" stroke-linejoin="round"/>
<path d="M17.3323 21H7.66992" stroke="black" stroke-width="1.5" stroke-linecap="round" stroke-linejoin="round"/>
<path d="M10.4332 17.1719L9.81055 20.9995" stroke="black" stroke-width="1.5" stroke-linecap="round" stroke-linejoin="round"/>
<path d="M14.5684 17.1719L15.191 20.9995" stroke="black" stroke-width="1.5" stroke-linecap="round" stroke-linejoin="round"/>
<path d="M4.07227 5.65032C4.07227 7.11364 5.25927 8.29967 6.72259 8.29967C8.1859 8.29967 9.37291 7.11364 9.37291 5.65032C9.37291 4.18603 8.1859 3 6.72259 3C6.25673 3 5.81887 3.12021 5.43841 3.33133" stroke="black" stroke-width="1.5" stroke-linecap="round" stroke-linejoin="round"/>
<path d="M8.52637 7.5918L9.86028 8.92279" stroke="black" stroke-width="1.5" stroke-linecap="round" stroke-linejoin="round"/>
</svg>