<svg width="24" height="24" viewBox="0 0 24 24" fill="none" xmlns="http://www.w3.org/2000/svg">
<path opacity="0.4" fill-rule="evenodd" clip-rule="evenodd" d="M17.981 2.3125H6.02004C4.08904 2.3125 2.51904 3.8825 2.51904 5.8125V13.2975C2.51904 15.2285 4.08904 16.7995 6.02004 16.7995H17.981C19.911 16.7995 21.481 15.2285 21.481 13.2975V5.8125C21.481 3.8825 19.911 2.3125 17.981 2.3125Z" fill="black"/>
<path fill-rule="evenodd" clip-rule="evenodd" d="M18.5698 19.9851C14.9468 18.7381 9.0528 18.7381 5.4338 19.9851C5.2128 20.0611 5.0338 20.2181 4.9318 20.4291C4.8298 20.6391 4.8148 20.8761 4.8908 21.0971C4.9678 21.3191 5.1268 21.4981 5.3388 21.6011C5.4588 21.6591 5.5878 21.6881 5.7168 21.6881C5.8138 21.6881 5.9098 21.6721 6.0028 21.6391C9.3108 20.5011 14.6928 20.5011 17.9998 21.6391C18.4528 21.7961 18.9598 21.5411 19.1118 21.0971C19.1878 20.8761 19.1738 20.6391 19.0708 20.4291C18.9678 20.2181 18.7908 20.0611 18.5698 19.9851Z" fill="black"/>
</svg>