<svg width="25" height="24" viewBox="0 0 25 24" fill="none" xmlns="http://www.w3.org/2000/svg">
<path fill-rule="evenodd" clip-rule="evenodd" d="M2.51855 6.00026C2.51855 3.92943 4.1983 2.25 6.26978 2.25H18.231C20.3028 2.25 21.9813 3.92975 21.9813 6.00026V13.4854C21.9813 15.5567 20.303 17.2366 18.231 17.2366H6.26978C4.19815 17.2366 2.51855 15.557 2.51855 13.4854V6.00026ZM6.26978 3.75C5.02642 3.75 4.01855 4.75818 4.01855 6.00026V13.4854C4.01855 14.7286 5.02657 15.7366 6.26978 15.7366H18.231C19.4739 15.7366 20.4813 14.7289 20.4813 13.4854V6.00026C20.4813 4.75786 19.4741 3.75 18.231 3.75H6.26978Z" fill="black"/>
<path fill-rule="evenodd" clip-rule="evenodd" d="M12.252 20.8555C10.0314 20.8555 7.84575 21.1484 6.21302 21.7104C5.82135 21.8451 5.39457 21.6369 5.25978 21.2452C5.12498 20.8536 5.33322 20.4268 5.72489 20.292C7.56236 19.6596 9.92463 19.3555 12.252 19.3555C14.5794 19.3555 16.9417 19.6596 18.7792 20.292C19.1708 20.4268 19.3791 20.8536 19.2443 21.2452C19.1095 21.6369 18.6827 21.8451 18.291 21.7104C16.6583 21.1484 14.4726 20.8555 12.252 20.8555Z" fill="black"/>
</svg>