<svg width="25" height="24" viewBox="0 0 25 24" fill="none" xmlns="http://www.w3.org/2000/svg">
<path fill-rule="evenodd" clip-rule="evenodd" d="M2.5 7.31424C2.5 4.67495 4.63956 2.53516 7.27811 2.53516H17.2209C19.8603 2.53516 22 4.67483 22 7.31424V12.7707C22 15.4101 19.8603 17.5498 17.2209 17.5498H7.27811C4.63956 17.5498 2.5 15.41 2.5 12.7707V7.31424ZM7.27811 4.03516C5.46822 4.03516 4 5.50314 4 7.31424V12.7707C4 14.5818 5.46822 16.0498 7.27811 16.0498H17.2209C19.0319 16.0498 20.5 14.5816 20.5 12.7707V7.31424C20.5 5.50326 19.0319 4.03516 17.2209 4.03516H7.27811Z" fill="black"/>
<path fill-rule="evenodd" clip-rule="evenodd" d="M6.55469 20.7148C6.55469 20.3006 6.89047 19.9648 7.30469 19.9648H17.193C17.6072 19.9648 17.943 20.3006 17.943 20.7148C17.943 21.1291 17.6072 21.4648 17.193 21.4648H7.30469C6.89047 21.4648 6.55469 21.1291 6.55469 20.7148Z" fill="black"/>
<path fill-rule="evenodd" clip-rule="evenodd" d="M10.2539 16.0587C10.6628 16.1252 10.9403 16.5105 10.8738 16.9194L10.2365 20.8366C10.17 21.2454 9.78461 21.5229 9.37577 21.4564C8.96693 21.3899 8.68943 21.0045 8.75594 20.5957L9.39324 16.6785C9.45975 16.2697 9.8451 15.9922 10.2539 16.0587Z" fill="black"/>
<path fill-rule="evenodd" clip-rule="evenodd" d="M14.2449 16.0587C14.6538 15.9922 15.0391 16.2697 15.1056 16.6785L15.7429 20.5957C15.8094 21.0045 15.5319 21.3899 15.1231 21.4564C14.7142 21.5229 14.3289 21.2454 14.2624 20.8366L13.6251 16.9194C13.5586 16.5105 13.8361 16.1252 14.2449 16.0587Z" fill="black"/>
<path fill-rule="evenodd" clip-rule="evenodd" d="M10.1339 10.8898L10.1337 10.8895L10.1333 10.8888L10.1327 10.8878C10.1324 10.8873 10.1324 10.8873 10.1325 10.8875L10.1326 10.8876M9.49425 11.2814L8.85428 11.6724C8.63829 11.319 8.74973 10.8574 9.10318 10.6414C9.45573 10.4259 9.91592 10.5363 10.1326 10.8876L10.1362 10.8933C10.1405 10.8999 10.1482 10.9118 10.1594 10.9282C10.1818 10.961 10.2176 11.0115 10.266 11.0738C10.3635 11.1994 10.5076 11.3668 10.6913 11.5326C11.0685 11.873 11.5448 12.1475 12.0882 12.1475C12.8877 12.1475 13.5868 11.715 13.9607 11.0677C14.1679 10.7091 14.6266 10.5862 14.9853 10.7934C15.344 11.0006 15.4668 11.4593 15.2596 11.818C14.6274 12.9123 13.4428 13.6475 12.0882 13.6475C11.0253 13.6475 10.2046 13.1139 9.68635 12.6462C9.42235 12.408 9.21916 12.1714 9.08134 11.9939C9.01202 11.9047 8.9581 11.8289 8.92022 11.7734C8.90126 11.7456 8.88624 11.7228 8.87524 11.7057L8.86173 11.6845L8.85725 11.6773L8.85557 11.6745L8.85488 11.6734L8.85457 11.6729C8.85442 11.6727 8.85428 11.6724 9.49425 11.2814Z" fill="black"/>
<path fill-rule="evenodd" clip-rule="evenodd" d="M12.0894 7.82422C11.2803 7.82422 10.5824 8.2571 10.2101 8.90936C10.0047 9.2691 9.54666 9.39427 9.18693 9.18893C8.82719 8.98359 8.70203 8.52551 8.90736 8.16578C9.53916 7.05891 10.7269 6.32422 12.0894 6.32422C13.2851 6.32422 14.1782 6.82344 14.758 7.30566C15.0473 7.54632 15.264 7.78672 15.41 7.9691C15.4834 8.06069 15.5398 8.13884 15.5795 8.19673C15.5994 8.22572 15.6151 8.24974 15.6268 8.26797L15.6412 8.29091L15.6462 8.29896L15.6481 8.30209L15.6489 8.30344L15.6493 8.30405C15.6494 8.30434 15.6496 8.30463 15.0064 8.69033L15.6496 8.30463C15.8626 8.65987 15.7473 9.12053 15.3921 9.33355C15.0382 9.54578 14.5796 9.43212 14.3656 9.07996C14.3655 9.07996 14.3655 9.07995 14.3655 9.07995C14.3651 9.07932 14.3644 9.07812 14.3633 9.07639C14.3598 9.07094 14.3528 9.06024 14.3424 9.04504C14.3215 9.01455 14.287 8.96644 14.239 8.90652C14.1425 8.78588 13.9952 8.62225 13.7988 8.45889C13.407 8.13305 12.8417 7.82422 12.0894 7.82422Z" fill="black"/>
<path fill-rule="evenodd" clip-rule="evenodd" d="M15.0061 6.13477C15.4203 6.13477 15.7561 6.47055 15.7561 6.88477V8.67893C15.7561 9.09314 15.4203 9.42893 15.0061 9.42893H13.2109C12.7967 9.42893 12.4609 9.09314 12.4609 8.67893C12.4609 8.26471 12.7967 7.92893 13.2109 7.92893H14.2561V6.88477C14.2561 6.47055 14.5919 6.13477 15.0061 6.13477Z" fill="black"/>
<path fill-rule="evenodd" clip-rule="evenodd" d="M8.74414 11.2734C8.74414 10.8592 9.07993 10.5234 9.49414 10.5234H11.2893C11.7035 10.5234 12.0393 10.8592 12.0393 11.2734C12.0393 11.6877 11.7035 12.0234 11.2893 12.0234H10.2441V12.9431C10.2441 13.3573 9.90835 13.6931 9.49414 13.6931C9.07993 13.6931 8.74414 13.3573 8.74414 12.9431V11.2734Z" fill="black"/>
</svg>