<svg width="24" height="25" viewBox="0 0 24 25" fill="none" xmlns="http://www.w3.org/2000/svg">
<path d="M7.02802 3.56641H16.971C19.196 3.56641 21 5.3704 21 7.5954V13.0524C21 15.2774 19.196 17.0814 16.971 17.0814H7.02802C4.80402 17.0814 3 15.2774 3 13.0524V7.5954C3 5.3704 4.80402 3.56641 7.02802 3.56641Z" stroke="black" stroke-width="1.5" stroke-linecap="round" stroke-linejoin="round"/>
<path fill-rule="evenodd" clip-rule="evenodd" d="M13.2729 13.5117H10.7269C10.0299 13.5117 9.46289 12.9447 9.46289 12.2477V10.8177C9.46289 10.1207 10.0299 9.55469 10.7269 9.55469H13.2729C13.9709 9.55469 14.5369 10.1207 14.5369 10.8177V12.2477C14.5369 12.9447 13.9709 13.5117 13.2729 13.5117Z" stroke="black" stroke-width="1.5" stroke-linecap="round" stroke-linejoin="round"/>
<path d="M13.5195 9.58275V8.64177C13.5095 7.80277 12.8204 7.13074 11.9814 7.14074C11.1594 7.15074 10.4935 7.81373 10.4805 8.63573V9.58275" stroke="black" stroke-width="1.5" stroke-linecap="round" stroke-linejoin="round"/>
<path d="M7.05664 21H16.9446" stroke="black" stroke-width="1.5" stroke-linecap="round" stroke-linejoin="round"/>
<path d="M9.88605 17.082L9.24805 20.999" stroke="black" stroke-width="1.5" stroke-linecap="round" stroke-linejoin="round"/>
<path d="M14.1172 17.082L14.7542 20.999" stroke="black" stroke-width="1.5" stroke-linecap="round" stroke-linejoin="round"/>
</svg>