<svg width="25" height="24" viewBox="0 0 25 24" fill="none" xmlns="http://www.w3.org/2000/svg">
<path fill-rule="evenodd" clip-rule="evenodd" d="M17.6236 2.88996C17.7785 3.09414 17.8185 3.36327 17.7295 3.60362C17.177 5.09614 17.4948 6.23981 18.1293 6.87154C18.7618 7.50133 19.889 7.80141 21.3398 7.22988C21.5806 7.13503 21.8532 7.171 22.0611 7.32504C22.2691 7.47908 22.3829 7.72943 22.3623 7.98739C22.1734 10.3525 20.3371 12.256 17.9987 12.5472C17.5877 12.5984 17.213 12.3067 17.1618 11.8956C17.1106 11.4846 17.4023 11.1099 17.8134 11.0587C19.0614 10.9033 20.1061 10.0893 20.5896 8.97808C19.2056 9.1819 17.9471 8.80688 17.071 7.93453C16.1878 7.05528 15.8006 5.77794 15.9966 4.3613C14.8478 4.85388 14.015 5.94236 13.8891 7.2387C13.8491 7.65098 13.4824 7.95275 13.0702 7.91274C12.6579 7.87272 12.3561 7.50606 12.3961 7.09379C12.6293 4.69169 14.5563 2.79316 16.9649 2.59577C17.2203 2.57484 17.4687 2.68578 17.6236 2.88996Z" fill="black"/>
<path fill-rule="evenodd" clip-rule="evenodd" d="M5.59984 4.92897C5.70929 4.52948 6.12187 4.29435 6.52136 4.4038L6.54846 4.41122C6.94795 4.52067 7.18308 4.93325 7.07363 5.33274C6.96418 5.73223 6.5516 5.96736 6.15211 5.85791L6.12501 5.85049C5.72552 5.74104 5.49039 5.32846 5.59984 4.92897Z" fill="black"/>
<path fill-rule="evenodd" clip-rule="evenodd" d="M7.63238 8.14426C8.44372 7.0721 9.74329 6.21484 11.611 6.21484C13.4788 6.21484 14.7783 7.0721 15.5897 8.14426C16.1857 8.93186 16.5221 9.8376 16.6508 10.6142C17.5668 10.7414 18.4073 11.1243 19.0611 11.7506C19.8812 12.5363 20.3578 13.6579 20.3578 14.9962C20.3578 16.7937 19.2866 18.3396 17.7519 19.0331C17.3744 19.2037 16.9302 19.036 16.7596 18.6585C16.589 18.281 16.7567 17.8368 17.1342 17.6662C18.1515 17.2065 18.8578 16.183 18.8578 14.9962C18.8578 14.028 18.5213 13.3107 18.0234 12.8338C17.5201 12.3515 16.8017 12.0675 15.9615 12.0668C15.5475 12.0665 15.2121 11.7308 15.2121 11.3168C15.2121 10.749 14.9776 9.82116 14.3935 9.04941C13.8327 8.30824 12.9567 7.71484 11.611 7.71484C10.2654 7.71484 9.38937 8.30824 8.82851 9.04941C8.2445 9.82116 8.00992 10.749 8.00992 11.3168C8.00992 11.7284 7.67823 12.0631 7.26667 12.0668C6.4235 12.0744 5.70281 12.3596 5.19857 12.8409C4.70072 13.3161 4.36426 14.029 4.36426 14.9962C4.36426 16.1832 5.06986 17.2065 6.08768 17.6661C6.46519 17.8366 6.63302 18.2808 6.46254 18.6583C6.29206 19.0358 5.84783 19.2037 5.47033 19.0332C3.93437 18.3396 2.86426 16.7935 2.86426 14.9962C2.86426 13.6569 3.34217 12.5392 4.16292 11.7558C4.81712 11.1314 5.65704 10.7497 6.57059 10.6183C6.69873 9.84081 7.03532 8.93326 7.63238 8.14426Z" fill="black"/>
<path fill-rule="evenodd" clip-rule="evenodd" d="M9.02491 17.2715C9.02491 16.8573 9.3607 16.5215 9.77491 16.5215H14.0361C14.4503 16.5215 14.7861 16.8573 14.7861 17.2715C14.7861 17.6857 14.4503 18.0215 14.0361 18.0215H9.77491C9.3607 18.0215 9.02491 17.6857 9.02491 17.2715ZM6.59009 20.6569C6.59009 20.2427 6.92587 19.9069 7.34009 19.9069H10.9927C11.4069 19.9069 11.7427 20.2427 11.7427 20.6569C11.7427 21.0712 11.4069 21.4069 10.9927 21.4069H7.34009C6.92587 21.4069 6.59009 21.0712 6.59009 20.6569ZM13.2867 20.6569C13.2867 20.2427 13.6225 19.9069 14.0367 19.9069H15.8626C16.2768 19.9069 16.6126 20.2427 16.6126 20.6569C16.6126 21.0712 16.2768 21.4069 15.8626 21.4069H14.0367C13.6225 21.4069 13.2867 21.0712 13.2867 20.6569Z" fill="black"/>
</svg>