<svg width="25" height="24" viewBox="0 0 25 24" fill="none" xmlns="http://www.w3.org/2000/svg">
<path d="M7.89642 3H16.3311C19.2792 3 21.1143 5.08119 21.1143 8.02638V15.9736C21.1143 18.9188 19.2792 21 16.3301 21H7.89642C4.94831 21 3.11426 18.9188 3.11426 15.9736V8.02638C3.11426 5.08119 4.95707 3 7.89642 3Z" stroke="black" stroke-width="1.5" stroke-linecap="round" stroke-linejoin="round"/>
<path fill-rule="evenodd" clip-rule="evenodd" d="M7.16316 13.2644C7.13776 13.2509 7.10749 13.2742 7.1156 13.3023C7.72585 15.4373 9.69283 17 12.016 17C14.8338 17 17.1143 14.7141 17.1143 11.9018C17.1143 9.57317 15.557 7.61105 13.4214 7.00134C13.3938 6.99323 13.3706 7.0235 13.3841 7.04891C14.3057 8.78292 14.0306 10.9926 12.569 12.4547C11.1068 13.9163 8.89717 14.1914 7.16316 13.2644Z" stroke="black" stroke-width="1.5" stroke-linecap="round" stroke-linejoin="round"/>
<path d="M9.99023 7.81982L10.0002 7.82982" stroke="black" stroke-width="1.5" stroke-linecap="round" stroke-linejoin="round"/>
<path d="M9.06543 10.71L9.07543 10.72" stroke="black" stroke-width="1.5" stroke-linecap="round" stroke-linejoin="round"/>
</svg>