<svg width="25" height="24" viewBox="0 0 25 24" fill="none" xmlns="http://www.w3.org/2000/svg">
<path d="M18.4138 14.7781C18.4138 12.6078 16.8812 11.3338 14.9841 11.3168C14.9841 9.95173 13.9128 7.22168 10.8891 7.22168C9.39 7.22168 8.371 7.89268 7.72451 8.73569L7.40332 9.19838" stroke="black" stroke-width="1.5" stroke-linecap="round" stroke-linejoin="round"/>
<path d="M4.36226 15.7622C3.62662 15.4298 3.11426 14.6891 3.11426 13.8289C3.11426 12.4991 4.05375 11.7186 5.21603 11.7082C5.21603 10.8719 5.87193 9.19922 7.72449 9.19922C9.57706 9.19922 10.2335 10.8719 10.2335 11.7082" stroke="black" stroke-width="1.5" stroke-linecap="round" stroke-linejoin="round"/>
<path d="M9.32713 7.33624C9.32713 6.08966 8.31658 5.0791 7.06999 5.0791C5.89693 5.0791 4.93287 5.97398 4.82324 7.11831" stroke="black" stroke-width="1.5" stroke-linecap="round" stroke-linejoin="round"/>
<path d="M3.11426 8.24012C3.11426 7.58623 3.64434 7.05615 4.29823 7.05615C4.80765 7.05615 5.24192 7.37788 5.40895 7.82922" stroke="black" stroke-width="1.5" stroke-linecap="round" stroke-linejoin="round"/>
<path d="M12.2012 7.24378C12.4044 5.15048 14.0848 3.49436 16.1848 3.32227C14.8929 6.81242 17.4778 9.36968 20.8916 8.02485C20.7271 10.0854 19.1255 11.7462 17.0874 12" stroke="black" stroke-width="1.5" stroke-linecap="round" stroke-linejoin="round"/>
<path d="M7.4043 15.6468L7.41222 15.6089M7.4043 18.5273L7.41222 18.4883M10.7557 17.0493L10.7637 17.0873M10.7557 19.9677L10.7637 19.9288M14.1072 15.6084L14.1151 15.6463M14.1072 18.5273L14.1151 18.4883" stroke="black" stroke-width="1.5" stroke-linecap="round" stroke-linejoin="round"/>
</svg>