<svg width="25" height="24" viewBox="0 0 25 24" fill="none" xmlns="http://www.w3.org/2000/svg">
<path d="M12.5742 21.2648C8.41424 21.2648 4.71423 18.4648 3.56423 14.4648C3.48423 14.1748 3.60423 13.7949 3.84423 13.6149C4.09423 13.4149 4.44424 13.3849 4.72424 13.5449C7.41424 14.9849 10.8042 14.4749 12.9742 12.3049C15.1442 10.1349 15.6542 6.74485 14.2242 4.04485C14.0842 3.77485 14.1242 3.39484 14.3142 3.15484C14.5242 2.90484 14.8642 2.80483 15.1742 2.89483C19.1542 4.03483 21.9442 7.73483 21.9442 11.8948C21.9442 13.8148 21.3643 15.6649 20.2743 17.2349C20.0343 17.5749 19.5642 17.6549 19.2342 17.4249C18.8942 17.1849 18.8142 16.7249 19.0442 16.3849C19.9642 15.0649 20.4442 13.5148 20.4442 11.8948C20.4442 8.92483 18.7543 6.23484 16.1843 4.90484C17.0443 7.85484 16.2642 11.1349 14.0342 13.3649C11.8142 15.5949 8.51424 16.3749 5.57424 15.5049C6.90424 18.0749 9.59423 19.7648 12.5642 19.7648C14.0942 19.7648 15.5842 19.3249 16.8542 18.4949C17.2042 18.2749 17.6643 18.3648 17.8942 18.7148C18.1242 19.0648 18.0242 19.5249 17.6742 19.7549C16.1542 20.7449 14.3842 21.2748 12.5642 21.2748L12.5742 21.2648ZM15.5442 3.32488C15.5442 3.32488 15.5442 3.33484 15.5442 3.34484C15.5442 3.34484 15.5442 3.33488 15.5442 3.32488Z" fill="black"/>
<path d="M6.68411 9.71484C6.35411 9.71484 6.07409 9.50489 5.97409 9.19489C5.59409 8.01489 4.65409 7.07489 3.47409 6.69489C3.16409 6.59489 2.9541 6.30486 2.9541 5.98486C2.9541 5.66486 3.16409 5.37484 3.47409 5.27484C4.65409 4.89484 5.59409 3.95484 5.97409 2.77484C6.07409 2.46484 6.36411 2.25488 6.68411 2.25488C7.00411 2.25488 7.2941 2.46484 7.3941 2.77484C7.7741 3.95484 8.7141 4.89484 9.8941 5.27484C10.2041 5.37484 10.4141 5.66486 10.4141 5.98486C10.4141 6.30486 10.2041 6.59489 9.8941 6.69489C8.7141 7.07489 7.7741 8.01489 7.3941 9.19489C7.2941 9.50489 7.00411 9.71484 6.68411 9.71484ZM5.3541 5.97485C5.8741 6.33485 6.31411 6.78487 6.68411 7.30487C7.04411 6.78487 7.49409 6.34485 8.00409 5.97485C7.49409 5.61485 7.04411 5.16484 6.68411 4.64484C6.32411 5.16484 5.8741 5.60485 5.3541 5.97485Z" fill="black"/>
<path d="M10.6943 11.7651C10.3643 11.7651 10.0843 11.5551 9.98431 11.2451C9.90431 10.9851 9.69431 10.7851 9.44431 10.7051C9.13431 10.6051 8.92432 10.3151 8.92432 9.99512C8.92432 9.67512 9.13431 9.3851 9.44431 9.2851C9.70431 9.2051 9.90431 8.99512 9.98431 8.74512C10.0843 8.43512 10.3743 8.2251 10.6943 8.2251C11.0243 8.2251 11.3043 8.43512 11.4043 8.74512C11.4843 9.00512 11.6943 9.2051 11.9443 9.2851C12.2543 9.3851 12.4643 9.67512 12.4643 9.99512C12.4643 10.3151 12.2543 10.6051 11.9443 10.7051C11.6843 10.7851 11.4843 10.9851 11.4043 11.2451C11.3043 11.5551 11.0143 11.7651 10.6943 11.7651Z" fill="black"/>
<path d="M18.7243 21.7451C18.3943 21.7451 18.1143 21.535 18.0143 21.225C17.6543 20.125 16.7943 19.255 15.6943 18.905C15.3843 18.805 15.1743 18.5151 15.1743 18.1951C15.1743 17.8751 15.3843 17.585 15.6943 17.485C16.7943 17.125 17.6543 16.265 18.0143 15.165C18.1143 14.855 18.4043 14.645 18.7243 14.645C19.0543 14.645 19.3343 14.855 19.4343 15.165C19.7943 16.265 20.6543 17.125 21.7543 17.485C22.0643 17.585 22.2743 17.8751 22.2743 18.1951C22.2743 18.5151 22.0643 18.805 21.7543 18.905C20.6543 19.265 19.7843 20.125 19.4343 21.225C19.3343 21.535 19.0443 21.7451 18.7243 21.7451ZM17.5543 18.1951C18.0043 18.5151 18.3943 18.9151 18.7243 19.3651C19.0443 18.9151 19.4443 18.5251 19.8843 18.1951C19.4343 17.8751 19.0443 17.475 18.7243 17.035C18.4043 17.485 18.0043 17.8751 17.5543 18.1951Z" fill="black"/>
</svg>