<svg width="25" height="24" viewBox="0 0 25 24" fill="none" xmlns="http://www.w3.org/2000/svg">
<path d="M12.6091 21.7449C10.1091 21.7449 7.61914 20.7949 5.71914 18.8949C1.91914 15.0949 1.91914 8.90488 5.71914 5.10488C9.51914 1.30488 15.7091 1.30488 19.5091 5.10488C23.3091 8.90488 23.3091 15.0949 19.5091 18.8949C17.6091 20.7949 15.1091 21.7449 12.6191 21.7449H12.6091ZM12.6091 3.75491C10.4991 3.75491 8.37914 4.55488 6.77914 6.16488C3.55914 9.38488 3.55914 14.6149 6.77914 17.8349C9.99914 21.0549 15.2291 21.0549 18.4491 17.8349C21.6691 14.6149 21.6691 9.38488 18.4491 6.16488C16.8391 4.55488 14.7291 3.75491 12.6191 3.75491H12.6091Z" fill="black"/>
<path d="M12.5091 17.7449C9.90906 17.7449 7.59906 16.0049 6.88906 13.5049C6.80906 13.2149 6.90906 12.8749 7.13906 12.6849C7.36906 12.4949 7.72906 12.4549 7.99906 12.5949C9.47906 13.3849 11.3291 13.1049 12.5191 11.9149C13.7091 10.7249 13.9891 8.86487 13.1991 7.39487C13.0591 7.13487 13.0891 6.77489 13.2791 6.54489C13.4691 6.30489 13.8091 6.19487 14.0991 6.27487C16.5991 6.98487 18.3391 9.30487 18.3391 11.8949C18.3391 15.1149 15.7191 17.7449 12.4891 17.7449H12.5091ZM9.01906 14.4849C9.82906 15.5649 11.1091 16.2449 12.5091 16.2449C14.9091 16.2449 16.8591 14.2949 16.8591 11.8949C16.8591 10.4949 16.1791 9.20488 15.0991 8.40488C15.3391 10.0549 14.8091 11.7649 13.5991 12.9849C12.3891 14.1949 10.6691 14.7249 9.02906 14.4849H9.01906Z" fill="black"/>
<path d="M10.4892 8.57499C10.2892 8.57499 10.0892 8.49495 9.94919 8.34495C9.65919 8.04495 9.66918 7.56494 9.96918 7.27494C10.2692 6.99494 10.7392 6.99496 11.0292 7.29496C11.3192 7.60496 11.2992 8.07496 10.9992 8.36496C10.8492 8.50496 10.6692 8.57499 10.4792 8.57499H10.4892Z" fill="black"/>
<path d="M9.56914 11.4649C9.37914 11.4649 9.18914 11.3949 9.03914 11.2449C8.74914 10.9549 8.73914 10.4749 9.03914 10.1749C9.32914 9.88488 9.79913 9.87488 10.0991 10.1749C10.3891 10.4749 10.3891 10.9549 10.0991 11.2449C9.94913 11.3949 9.75914 11.4649 9.56914 11.4649Z" fill="black"/>
</svg>