<svg width="25" height="24" viewBox="0 0 25 24" fill="none" xmlns="http://www.w3.org/2000/svg">
<path opacity="0.4" d="M12.6426 7.16624C12.8407 5.12554 14.4789 3.51103 16.5261 3.34326C15.2666 6.74572 17.7866 9.23872 21.1146 7.92768C20.9542 9.93649 19.393 11.5555 17.406 11.8029" stroke="black" stroke-width="1.5" stroke-linecap="round" stroke-linejoin="round"/>
<path d="M5.85034 5.13438L5.82324 5.12695" stroke="black" stroke-width="1.5" stroke-linecap="round" stroke-linejoin="round"/>
<path d="M16.943 18.3496C18.2191 17.773 19.1078 16.4883 19.1078 14.9962C19.1078 12.6897 17.4816 11.3185 15.4621 11.3168C15.4621 9.86616 14.3244 6.96484 11.111 6.96484C7.89762 6.96484 6.75992 9.86616 6.75992 11.3168C4.743 11.335 3.11426 12.6897 3.11426 14.9962C3.11426 16.4883 4.00212 17.773 5.279 18.3496" stroke="black" stroke-width="1.5" stroke-linecap="round" stroke-linejoin="round"/>
<path opacity="0.4" d="M10.4926 20.6569H6.84003M15.3625 20.6569H13.5366M13.536 17.2715H9.27485" stroke="black" stroke-width="1.5" stroke-linecap="round" stroke-linejoin="round"/>
</svg>