<svg width="25" height="25" viewBox="0 0 25 25" fill="none" xmlns="http://www.w3.org/2000/svg">
<path d="M16.5382 21.9838C16.2482 21.9838 15.9782 21.8238 15.8582 21.5438C15.6882 21.1638 15.8582 20.7238 16.2382 20.5538C18.0282 19.7438 19.4682 18.3538 20.3282 16.6238C17.1882 17.5938 13.6482 16.7738 11.2682 14.3838C8.88819 12.0038 8.05817 8.46382 9.02817 5.32382C6.21817 6.73382 4.36816 9.64379 4.36816 12.8638C4.36816 13.2738 4.02816 13.6138 3.61816 13.6138C3.20816 13.6138 2.86816 13.2738 2.86816 12.8638C2.86816 8.45379 5.82817 4.53382 10.0582 3.32382C10.3482 3.24382 10.7182 3.35376 10.9082 3.58376C11.1182 3.83376 11.1482 4.18378 10.9982 4.47378C9.45817 7.36378 10.0082 11.0038 12.3282 13.3238C14.6482 15.6438 18.2882 16.1938 21.1782 14.6538C21.4382 14.5138 21.8282 14.5438 22.0682 14.7338C22.3182 14.9338 22.4282 15.2638 22.3482 15.5738C21.5382 18.4038 19.5482 20.7038 16.8682 21.9138C16.7682 21.9638 16.6582 21.9838 16.5582 21.9838H16.5382Z" fill="black"/>
<path d="M19.7882 10.6439H15.4382C15.1082 10.6439 14.7382 10.574 14.4182 10.444C13.4582 10.014 12.8682 9.08396 12.8682 8.06396C12.8682 6.80396 13.6382 5.83396 14.7782 5.55396C15.0582 4.47396 15.9782 3.29395 17.6182 3.29395C19.2582 3.29395 20.1782 4.47396 20.4582 5.55396C21.5982 5.83396 22.3682 6.80396 22.3682 8.06396C22.3682 9.08396 21.7682 10.004 20.8482 10.424C20.4982 10.564 20.1282 10.6439 19.7982 10.6439H19.7882ZM17.6082 4.79395C16.4382 4.79395 16.1782 5.94394 16.1782 6.22394C16.1782 6.63394 15.8482 6.97394 15.4382 6.97394C14.9182 6.97394 14.3582 7.26396 14.3582 8.06396C14.3582 8.49396 14.6082 8.88397 14.9982 9.06396C15.1182 9.11397 15.2882 9.14392 15.4282 9.14392H19.7782C19.8282 9.14392 20.0182 9.14395 20.2382 9.04395C20.5982 8.88395 20.8582 8.49396 20.8582 8.06396C20.8582 7.26396 20.2982 6.97394 19.7782 6.97394C19.3682 6.97394 19.0382 6.63394 19.0382 6.22394C19.0382 5.94394 18.7882 4.79395 17.6082 4.79395Z" fill="black"/>
<path d="M5.8584 22.5239C5.4484 22.5239 5.1084 22.1839 5.1084 21.7739V20.5439L3.96838 21.1739C3.60838 21.3739 3.14839 21.2439 2.94839 20.8839C2.74839 20.5239 2.8784 20.0639 3.2384 19.8639L4.30838 19.2639L3.2384 18.6639C2.8784 18.4639 2.74839 18.0039 2.94839 17.6439C3.14839 17.2839 3.60838 17.1539 3.96838 17.3539L5.1084 17.9839V16.7539C5.1084 16.3439 5.4484 16.0039 5.8584 16.0039C6.2684 16.0039 6.6084 16.3439 6.6084 16.7539V17.9839L7.74838 17.3539C8.10838 17.1539 8.5684 17.2839 8.7684 17.6439C8.9684 18.0039 8.83839 18.4639 8.47839 18.6639L7.40838 19.2639L8.47839 19.8639C8.83839 20.0639 8.9684 20.5239 8.7684 20.8839C8.5684 21.2439 8.10838 21.3739 7.74838 21.1739L6.6084 20.5439V21.7739C6.6084 22.1839 6.2684 22.5239 5.8584 22.5239Z" fill="black"/>
<path d="M14.1282 19.6438C13.9182 19.6438 13.7082 19.5538 13.5582 19.3838C13.2882 19.0738 13.3182 18.5938 13.6382 18.3238C13.9582 18.0538 14.4182 18.0838 14.6882 18.4038C14.9582 18.7238 14.9182 19.2038 14.6082 19.4738C14.4682 19.5938 14.2882 19.6538 14.1182 19.6538L14.1282 19.6438Z" fill="black"/>
<path d="M10.9284 22.5334C10.7184 22.5334 10.5184 22.4534 10.3684 22.2834C10.0884 21.9734 10.1084 21.4934 10.4184 21.2234C10.7284 20.9534 11.1984 20.9633 11.4684 21.2733C11.7484 21.5933 11.7184 22.0634 11.4084 22.3434C11.2684 22.4734 11.0884 22.5334 10.9084 22.5334H10.9284Z" fill="black"/>
<path d="M7.62817 14.9533C7.41817 14.9533 7.20816 14.8634 7.05816 14.6934C6.78816 14.3834 6.81818 13.9034 7.13818 13.6334C7.45818 13.3634 7.91817 13.3933 8.18817 13.7133C8.45817 14.0333 8.41818 14.5133 8.10818 14.7833C7.96818 14.9033 7.78816 14.9633 7.61816 14.9633L7.62817 14.9533Z" fill="black"/>
</svg>