<svg width="25" height="24" viewBox="0 0 25 24" fill="none" xmlns="http://www.w3.org/2000/svg">
<path d="M12.7891 21.7348C11.9691 21.7348 11.1491 21.6348 10.3491 21.4348C9.94914 21.3348 9.69913 20.9248 9.80913 20.5248C9.90913 20.1248 10.3191 19.8748 10.7191 19.9848C11.3891 20.1548 12.0891 20.2448 12.7891 20.2448C15.9991 20.2448 18.9191 18.3848 20.3291 15.5848C17.1891 16.5548 13.6591 15.7348 11.2691 13.3448C8.88913 10.9648 8.05913 7.42478 9.02913 4.28478C6.22913 5.69478 4.36914 8.60476 4.36914 11.8248C4.36914 13.5548 4.88914 15.2148 5.87914 16.6348C6.11914 16.9748 6.02913 17.4448 5.68913 17.6748C5.34913 17.9148 4.87914 17.8248 4.64914 17.4848C3.48914 15.8148 2.86914 13.8548 2.86914 11.8148C2.86914 7.40481 5.82913 3.48477 10.0591 2.27477C10.3491 2.19477 10.7191 2.31479 10.9091 2.54479C11.1191 2.79479 11.1491 3.14481 10.9991 3.43481C9.45913 6.32481 10.0091 9.96478 12.3291 12.2848C14.6491 14.6048 18.2891 15.1548 21.1791 13.6148C21.4491 13.4748 21.8391 13.5148 22.0691 13.7048C22.3191 13.9048 22.4291 14.2448 22.3391 14.5548C21.1291 18.7948 17.1991 21.7548 12.7991 21.7548L12.7891 21.7348Z" fill="black"/>
<path d="M20.0184 8.8551H16.2084C15.9084 8.8551 15.5784 8.7851 15.2784 8.6651C14.4084 8.2751 13.8584 7.42507 13.8584 6.50507C13.8584 5.37507 14.5384 4.50511 15.5484 4.23511C15.8184 3.27511 16.6484 2.24512 18.1084 2.24512C19.5684 2.24512 20.3984 3.27511 20.6684 4.23511C21.6784 4.50511 22.3584 5.38507 22.3584 6.50507C22.3584 7.43507 21.8184 8.27509 20.9684 8.65509C20.6384 8.78509 20.3084 8.8551 20.0084 8.8551H20.0184ZM18.1184 3.73511C17.0484 3.73511 16.9584 4.87508 16.9584 4.89508C16.9584 5.30508 16.6284 5.64508 16.2184 5.64508C16.0184 5.64508 15.3684 5.71507 15.3684 6.50507C15.3684 6.84507 15.5684 7.1551 15.8784 7.2851C15.9884 7.3351 16.1284 7.3551 16.2184 7.3551H20.0284C20.0284 7.3551 20.2184 7.35509 20.3984 7.27509C20.6784 7.14509 20.8684 6.84507 20.8684 6.50507C20.8684 5.71507 20.2184 5.64508 20.0184 5.64508C19.6084 5.64508 19.2784 5.30508 19.2784 4.89508C19.2784 4.88508 19.1884 3.73511 18.1284 3.73511H18.1184Z" fill="black"/>
<path d="M9.14841 21.7347H5.5784C4.0784 21.7347 2.8584 20.5146 2.8584 19.0146C2.8584 17.4246 4.2884 16.1447 5.8484 16.3047C6.4784 15.1047 7.7484 14.3047 9.1384 14.3047C11.1884 14.3047 12.8484 15.9646 12.8484 18.0146C12.8484 20.0646 11.1884 21.7247 9.1384 21.7247L9.14841 21.7347ZM5.5784 17.7947C4.9084 17.7947 4.3584 18.3446 4.3584 19.0146C4.3584 19.6846 4.9084 20.2347 5.5784 20.2347H9.14841C10.3684 20.2347 11.3584 19.2447 11.3584 18.0247C11.3584 16.8047 10.3684 15.8147 9.14841 15.8147C8.17841 15.8147 7.2984 16.4647 7.0284 17.3947C6.9684 17.5947 6.8284 17.7647 6.6384 17.8547C6.4484 17.9447 6.2284 17.9547 6.0284 17.8747C5.8884 17.8147 5.7384 17.7847 5.5784 17.7847V17.7947Z" fill="black"/>
<path d="M18.7393 12.2646C18.3293 12.2646 17.9893 11.9246 17.9893 11.5146C17.9893 11.1046 18.3293 10.7646 18.7393 10.7646C19.1493 10.7646 19.4893 11.0946 19.4893 11.5146C19.4893 11.9346 19.1493 12.2747 18.7393 12.2747V12.2646Z" fill="black"/>
<path d="M7.03906 12.2754C6.62906 12.2754 6.28906 11.9354 6.28906 11.5254C6.28906 11.1154 6.62906 10.7754 7.03906 10.7754C7.44906 10.7754 7.78906 11.1054 7.78906 11.5254C7.78906 11.9454 7.44906 12.2854 7.03906 12.2854V12.2754Z" fill="black"/>
</svg>