<svg width="25" height="24" viewBox="0 0 25 24" fill="none" xmlns="http://www.w3.org/2000/svg">
<path fill-rule="evenodd" clip-rule="evenodd" d="M12.5702 14.8772C9.3519 14.8847 6.26831 15.9474 4.57132 17.8949C4.29919 18.2072 3.82544 18.2398 3.51315 17.9676C3.20086 17.6955 3.1683 17.2218 3.44043 16.9095C5.52148 14.5213 9.09592 13.3853 12.5667 13.3772C16.0393 13.3692 19.6422 14.4895 21.785 16.9044C22.0599 17.2142 22.0316 17.6883 21.7218 17.9632C21.4119 18.2381 20.9379 18.2098 20.663 17.9C18.9037 15.9173 15.7866 14.8698 12.5702 14.8772Z" fill="black"/>
<path fill-rule="evenodd" clip-rule="evenodd" d="M9.65897 3.87601C10.0704 3.82785 10.4429 4.12232 10.4911 4.53373L11.8307 15.9783C11.8789 16.3897 11.5844 16.7623 11.173 16.8104C10.7616 16.8586 10.389 16.5641 10.3409 16.1527L9.00125 4.70812C8.95309 4.29671 9.24757 3.92416 9.65897 3.87601Z" fill="black"/>
<path fill-rule="evenodd" clip-rule="evenodd" d="M14.0844 4.83468C14.2838 4.95431 14.4164 5.15965 14.4434 5.39059L14.9187 9.45062C14.9578 9.78507 14.7693 10.1046 14.4576 10.232C13.7064 10.5392 13.0735 10.7404 12.4027 10.8204C11.7308 10.9005 11.0655 10.8539 10.2544 10.7231C9.84545 10.6571 9.5674 10.2722 9.63334 9.86322C9.69928 9.45429 10.0842 9.17624 10.4932 9.24218C11.2343 9.36169 11.7463 9.38805 12.225 9.33095C12.5733 9.2894 12.9276 9.20087 13.3612 9.0469L13.0625 6.49572C12.6746 6.61258 12.3035 6.69459 11.9214 6.73991C11.2528 6.81919 10.5908 6.78141 9.79037 6.66475C9.38049 6.60501 9.09664 6.22431 9.15638 5.81442C9.21611 5.40454 9.59682 5.12069 10.0067 5.18043C10.7367 5.28681 11.2555 5.30836 11.7447 5.25034C12.2348 5.19223 12.7356 5.04951 13.425 4.77945C13.6414 4.69465 13.885 4.71504 14.0844 4.83468Z" fill="black"/>
<path fill-rule="evenodd" clip-rule="evenodd" d="M18.1528 5.82853C18.3636 6.014 18.4532 6.30168 18.3849 6.57402L17.9199 8.42841L18.7971 10.1038C18.895 10.2909 18.9096 10.5106 18.8371 10.709C18.7647 10.9073 18.6119 11.066 18.4165 11.1459C17.6652 11.453 17.0324 11.6542 16.3616 11.7342C15.6897 11.8144 15.0244 11.7677 14.2133 11.6369C13.8822 11.5835 13.6267 11.3168 13.5878 10.9836L13.1125 6.92361C13.0854 6.6921 13.1675 6.46114 13.3346 6.29866C13.5018 6.13618 13.7349 6.06064 13.9656 6.09426C14.6955 6.20064 15.2144 6.22219 15.7036 6.16417C16.1937 6.10606 16.6945 5.96334 17.3838 5.69328C17.6453 5.59087 17.942 5.64306 18.1528 5.82853ZM14.7115 7.68198L15.0101 10.2331C15.4694 10.2837 15.8355 10.2863 16.1839 10.2448C16.4637 10.2114 16.7473 10.1477 17.0727 10.0442L16.4585 8.87104C16.3731 8.708 16.3507 8.51926 16.3955 8.34075L16.6003 7.52391C16.36 7.5816 16.1223 7.62503 15.8803 7.65374C15.4976 7.69912 15.1171 7.70615 14.7115 7.68198Z" fill="black"/>
<path fill-rule="evenodd" clip-rule="evenodd" d="M7.52859 20.6279C7.11437 20.6279 6.77859 20.2921 6.77859 19.8779C6.77859 19.3183 7.10869 18.8933 7.47613 18.6403C7.84681 18.385 8.31778 18.2512 8.80176 18.2512C9.21597 18.2512 9.55176 18.587 9.55176 19.0012C9.55176 19.4154 9.21597 19.7512 8.80176 19.7512C8.58258 19.7512 8.41697 19.8137 8.32685 19.8757C8.30138 19.8933 8.28621 19.907 8.27763 19.9162C8.25771 20.3126 7.92997 20.6279 7.52859 20.6279ZM8.26774 19.9294C8.26751 19.9293 8.26829 19.9276 8.27076 19.9243C8.2692 19.9278 8.26796 19.9294 8.26774 19.9294Z" fill="black"/>
<path fill-rule="evenodd" clip-rule="evenodd" d="M14.6804 18.0994C14.68 18.0993 14.6816 18.0967 14.6864 18.0917C14.6832 18.097 14.6808 18.0995 14.6804 18.0994ZM14.8474 17.9934C14.9831 17.9342 15.1807 17.8865 15.4214 17.8865C15.6621 17.8865 15.8597 17.9342 15.9954 17.9934C15.8597 18.0527 15.6621 18.1004 15.4214 18.1004C15.1807 18.1004 14.9831 18.0527 14.8474 17.9934ZM16.1624 18.0994C16.162 18.0995 16.1597 18.097 16.1564 18.0917C16.1612 18.0967 16.1628 18.0993 16.1624 18.0994ZM16.1564 17.8952C16.1597 17.8899 16.162 17.8874 16.1624 17.8875C16.1628 17.8876 16.1612 17.8902 16.1564 17.8952ZM14.6864 17.8952C14.6816 17.8902 14.68 17.8876 14.6804 17.8875C14.6808 17.8874 14.6832 17.8899 14.6864 17.8952ZM14.0076 16.7403C14.4064 16.5068 14.9079 16.3865 15.4214 16.3865C15.9349 16.3865 16.4365 16.5068 16.8352 16.7403C17.216 16.9633 17.6348 17.3808 17.6348 17.9934C17.6348 18.6061 17.216 19.0236 16.8352 19.2466C16.4365 19.4801 15.9349 19.6004 15.4214 19.6004C14.9079 19.6004 14.4064 19.4801 14.0076 19.2466C13.6268 19.0236 13.208 18.6061 13.208 17.9934C13.208 17.3808 13.6268 16.9633 14.0076 16.7403Z" fill="black"/>
<path fill-rule="evenodd" clip-rule="evenodd" d="M12.6143 20.2405C13.0285 20.2405 13.3643 20.5763 13.3643 20.9905V21.0005C13.3643 21.4147 13.0285 21.7505 12.6143 21.7505C12.2 21.7505 11.8643 21.4147 11.8643 21.0005V20.9905C11.8643 20.5763 12.2 20.2405 12.6143 20.2405Z" fill="black"/>
<path fill-rule="evenodd" clip-rule="evenodd" d="M5.9834 8.94434C6.39761 8.94434 6.7334 9.28012 6.7334 9.69434V9.70434C6.7334 10.1185 6.39761 10.4543 5.9834 10.4543C5.56918 10.4543 5.2334 10.1185 5.2334 9.70434V9.69434C5.2334 9.28012 5.56918 8.94434 5.9834 8.94434Z" fill="black"/>
<path fill-rule="evenodd" clip-rule="evenodd" d="M19.1582 2.25049C19.5724 2.25049 19.9082 2.58627 19.9082 3.00049V3.01049C19.9082 3.4247 19.5724 3.76049 19.1582 3.76049C18.744 3.76049 18.4082 3.4247 18.4082 3.01049V3.00049C18.4082 2.58627 18.744 2.25049 19.1582 2.25049Z" fill="black"/>
</svg>