<svg width="25" height="25" viewBox="0 0 25 25" fill="none" xmlns="http://www.w3.org/2000/svg">
<path d="M3.11426 12.7577C3.11426 8.56627 5.91732 5.03447 9.76144 3.93698C9.81106 3.92239 9.85289 3.97687 9.82857 4.0226C8.16969 7.14382 8.66493 11.1212 11.2958 13.7531C13.9276 16.3839 17.905 16.8791 21.0262 15.2105C21.072 15.1862 21.1264 15.228 21.1118 15.2786C20.3649 17.892 18.4886 20.029 16.0494 21.129" stroke="black" stroke-width="1.5" stroke-linecap="round" stroke-linejoin="round"/>
<path d="M14.7292 7.72867L16.2219 4.0866C16.2554 3.99528 16.3423 3.93457 16.4396 3.93457H18.4406C18.6006 3.93457 18.7125 4.09285 18.6592 4.24375L17.7743 6.32059C17.721 6.47148 17.8329 6.62977 17.9929 6.62977H19.8824C20.0817 6.62977 20.1881 6.86457 20.0568 7.01448L16.4693 11.1093C16.3076 11.2938 16.0076 11.1338 16.0708 10.8967L16.7547 8.33208C16.7939 8.18486 16.683 8.04044 16.5306 8.04044H14.9469C14.7857 8.04044 14.6737 7.88002 14.7292 7.72867Z" stroke="black" stroke-width="1.5" stroke-linecap="round" stroke-linejoin="round"/>
<path d="M7.10107 21.4059L7.78279 19.2126H5.77874L6.4542 16.917M3.11426 21.893L3.43145 20.6778M11.2439 21.893L11.5611 20.6778M10.3056 18.5389L10.7891 16.917" stroke="black" stroke-width="1.5" stroke-linecap="round" stroke-linejoin="round"/>
</svg>