<svg width="25" height="25" viewBox="0 0 25 25" fill="none" xmlns="http://www.w3.org/2000/svg">
<path d="M16.5338 21.9886C16.2438 21.9886 15.9738 21.8286 15.8538 21.5486C15.6838 21.1686 15.8538 20.7286 16.2338 20.5586C18.0238 19.7486 19.4638 18.3586 20.3238 16.6286C17.1838 17.5986 13.6438 16.7786 11.2638 14.3886C8.88379 12.0086 8.05377 8.46859 9.02377 5.32859C6.21377 6.73859 4.36377 9.64857 4.36377 12.8686C4.36377 13.2786 4.02377 13.6186 3.61377 13.6186C3.20377 13.6186 2.86377 13.2786 2.86377 12.8686C2.86377 8.45857 5.82377 4.53859 10.0538 3.32859C10.3438 3.24859 10.7138 3.35855 10.9038 3.59855C11.1138 3.84855 11.1438 4.19857 10.9938 4.48857C9.46377 7.37857 10.0038 11.0185 12.3238 13.3385C14.6538 15.6585 18.2838 16.2086 21.1738 14.6686C21.4338 14.5286 21.8338 14.5686 22.0638 14.7486C22.3138 14.9486 22.4238 15.2886 22.3338 15.5986C21.5238 18.4186 19.5338 20.7286 16.8538 21.9286C16.7538 21.9786 16.6538 21.9986 16.5438 21.9986L16.5338 21.9886Z" fill="black"/>
<path d="M19.7838 10.6488H15.4338C15.1038 10.6488 14.7338 10.5789 14.4138 10.4489C13.4538 10.0189 12.8638 9.08885 12.8638 8.06885C12.8638 6.80885 13.6338 5.83884 14.7738 5.55884C15.0538 4.47884 15.9738 3.29883 17.6138 3.29883C19.2538 3.29883 20.1738 4.47884 20.4538 5.55884C21.5938 5.83884 22.3638 6.80885 22.3638 8.06885C22.3638 9.08885 21.7638 10.0088 20.8438 10.4288C20.4938 10.5688 20.1238 10.6488 19.7938 10.6488H19.7838ZM17.6038 4.79883C16.4338 4.79883 16.1738 5.94882 16.1738 6.22882C16.1738 6.63882 15.8438 6.97882 15.4338 6.97882C14.9138 6.97882 14.3538 7.26885 14.3538 8.06885C14.3538 8.49885 14.6038 8.88885 14.9938 9.06885C15.1138 9.11885 15.2838 9.1488 15.4238 9.1488H19.7738C19.8238 9.1488 20.0138 9.14883 20.2338 9.04883C20.5938 8.88883 20.8538 8.49885 20.8538 8.06885C20.8538 7.26885 20.2938 6.97882 19.7738 6.97882C19.3638 6.97882 19.0338 6.63882 19.0338 6.22882C19.0338 5.94882 18.7838 4.79883 17.6038 4.79883Z" fill="black"/>
<path d="M3.61405 22.5286C3.26405 22.5286 2.95407 22.2786 2.88407 21.9286C2.80407 21.5186 3.06407 21.1086 3.47407 21.0286C3.88407 20.9486 4.27407 21.1886 4.35407 21.5986V21.6386C4.44407 22.0486 4.17406 22.4385 3.77406 22.5185C3.72406 22.5185 3.67406 22.5286 3.62406 22.5286H3.61405ZM11.0241 22.5086C11.0241 22.5086 10.9341 22.5086 10.8841 22.4986C10.4741 22.4186 10.2141 22.0386 10.2941 21.6386V21.5986C10.3841 21.1886 10.7841 20.9386 11.1841 21.0086C11.5941 21.0886 11.8541 21.4886 11.7741 21.8886C11.7041 22.2486 11.3841 22.5086 11.0241 22.5086ZM7.31406 20.8586C7.31406 20.8586 7.21408 20.8586 7.17408 20.8486C6.76408 20.7686 6.50405 20.3886 6.58405 19.9886V19.9486C6.67405 19.5386 7.07407 19.2786 7.47407 19.3686C7.88407 19.4486 8.14406 19.8486 8.05406 20.2586C7.98406 20.6186 7.66406 20.8786 7.30406 20.8786L7.31406 20.8586ZM11.0341 19.2386C10.6841 19.2386 10.3641 18.9886 10.3041 18.6286C10.2241 18.2186 10.4841 17.8086 10.8941 17.7286C11.3041 17.6486 11.6941 17.8886 11.7741 18.2986V18.3385C11.8641 18.7485 11.5941 19.1386 11.1941 19.2186C11.1441 19.2186 11.0941 19.2286 11.0441 19.2286L11.0341 19.2386ZM3.61405 19.2386C3.26405 19.2386 2.94407 18.9886 2.88407 18.6286C2.80407 18.2186 3.06407 17.8086 3.47407 17.7286C3.88407 17.6486 4.27407 17.8886 4.35407 18.2986V18.3385C4.44407 18.7485 4.17406 19.1386 3.77406 19.2186C3.72406 19.2186 3.67406 19.2286 3.62406 19.2286L3.61405 19.2386ZM7.32407 17.5885C6.97407 17.5885 6.66406 17.3386 6.59406 16.9886C6.51406 16.5786 6.77408 16.1685 7.17408 16.0885C7.58408 16.0085 7.97406 16.2486 8.05406 16.6586V16.6986C8.14406 17.1086 7.88407 17.4986 7.47407 17.5786C7.42407 17.5886 7.37407 17.5885 7.32407 17.5885Z" fill="black"/>
</svg>