<svg width="25" height="24" viewBox="0 0 25 24" fill="none" xmlns="http://www.w3.org/2000/svg">
<path d="M12.7972 21.7423C7.32719 21.7423 2.86719 17.2923 2.86719 11.8123C2.86719 7.40231 5.82719 3.48233 10.0572 2.27233C10.3472 2.19233 10.7172 2.31232 10.9072 2.54232C11.1072 2.79232 11.1472 3.14234 10.9872 3.43234C9.45719 6.32234 9.99719 9.96231 12.3272 12.2823C14.6472 14.6023 18.2872 15.1523 21.1772 13.6123C21.4472 13.4723 21.8372 13.5123 22.0672 13.7023C22.2972 13.8923 22.4172 14.2623 22.3372 14.5523C21.1272 18.7923 17.1972 21.7523 12.7972 21.7523V21.7423ZM9.02719 4.28231C6.22719 5.69231 4.36719 8.60232 4.36719 11.8223C4.36719 16.4723 8.14719 20.2523 12.7972 20.2523C16.0172 20.2523 18.9272 18.3923 20.3372 15.5823C17.1972 16.5523 13.6572 15.7323 11.2772 13.3423C8.89719 10.9623 8.06719 7.42231 9.03719 4.28231H9.02719Z" fill="black"/>
</svg>