<svg width="25" height="24" viewBox="0 0 25 24" fill="none" xmlns="http://www.w3.org/2000/svg">
<path fill-rule="evenodd" clip-rule="evenodd" d="M7.63041 8.27928C8.40285 7.27204 9.63272 6.47168 11.3901 6.47168C13.163 6.47168 14.3985 7.2861 15.1695 8.30467C15.7278 9.04222 16.0464 9.88898 16.1721 10.6204C17.0272 10.7495 17.814 11.1104 18.4292 11.6974C19.2109 12.4434 19.6648 13.5069 19.6648 14.7781C19.6648 15.1923 19.329 15.5281 18.9148 15.5281C18.5006 15.5281 18.1648 15.1923 18.1648 14.7781C18.1648 13.879 17.8524 13.2204 17.3936 12.7826C16.9284 12.3386 16.2617 12.0738 15.4784 12.0667C15.0669 12.063 14.7352 11.7283 14.7352 11.3168C14.7352 10.7918 14.5173 9.92828 13.9735 9.21C13.453 8.52229 12.6409 7.97168 11.3901 7.97168C10.1575 7.97168 9.35191 8.5062 8.83103 9.17869L8.52047 9.62607C8.28426 9.96633 7.81694 10.0507 7.47668 9.81448C7.13641 9.57827 7.05206 9.11095 7.28826 8.77069L7.60945 8.308C7.61621 8.29826 7.6232 8.28869 7.63041 8.27928Z" fill="black"/>
<path fill-rule="evenodd" clip-rule="evenodd" d="M5.67846 9.68751C6.19925 8.99931 7.03815 8.44922 8.22547 8.44922C9.41277 8.44922 10.2518 8.99928 10.7727 9.68742C11.2704 10.345 11.4844 11.1324 11.4844 11.7082C11.4844 12.1224 11.1486 12.4582 10.7344 12.4582C10.3202 12.4582 9.98443 12.1224 9.98443 11.7082C9.98443 11.4476 9.87026 10.9806 9.57667 10.5927C9.30623 10.2355 8.89074 9.94922 8.22547 9.94922C7.56022 9.94922 7.14489 10.2355 6.87459 10.5927C6.58113 10.9804 6.467 11.4475 6.467 11.7082C6.467 12.1198 6.13532 12.4544 5.72376 12.4582C5.30783 12.4619 4.97306 12.6017 4.74795 12.8165C4.52929 13.0251 4.36523 13.3502 4.36523 13.8289C4.36523 14.3838 4.69513 14.8632 5.17209 15.0787C5.54955 15.2493 5.71727 15.6936 5.54669 16.0711C5.37612 16.4485 4.93185 16.6162 4.55439 16.4457C3.56005 15.9963 2.86523 14.9945 2.86523 13.8289C2.86523 12.9779 3.17093 12.2478 3.71258 11.7311C4.0872 11.3738 4.55045 11.1413 5.05067 11.0317C5.15418 10.5908 5.35717 10.1121 5.67846 9.68751Z" fill="black"/>
<path fill-rule="evenodd" clip-rule="evenodd" d="M7.57102 5.8291C6.78818 5.8291 6.14398 6.42654 6.07085 7.18983C6.03135 7.60216 5.66507 7.90439 5.25275 7.86489C4.84042 7.82539 4.53819 7.45911 4.57769 7.04678C4.72382 5.52141 6.00774 4.3291 7.57102 4.3291C9.23182 4.3291 10.5782 5.67544 10.5782 7.33624C10.5782 7.75045 10.2424 8.08624 9.82816 8.08624C9.41395 8.08624 9.07816 7.75045 9.07816 7.33624C9.07816 6.50387 8.40339 5.8291 7.57102 5.8291Z" fill="black"/>
<path fill-rule="evenodd" clip-rule="evenodd" d="M4.7992 7.80615C4.55953 7.80615 4.36523 8.00045 4.36523 8.24012C4.36523 8.65434 4.02945 8.99012 3.61523 8.99012C3.20102 8.99012 2.86523 8.65434 2.86523 8.24012C2.86523 7.17202 3.7311 6.30615 4.7992 6.30615C5.6325 6.30615 6.34089 6.8328 6.61331 7.56892C6.75707 7.95739 6.5587 8.38884 6.17023 8.5326C5.78176 8.67636 5.35031 8.47799 5.20655 8.08952C5.1449 7.92295 4.98475 7.80615 4.7992 7.80615Z" fill="black"/>
<path fill-rule="evenodd" clip-rule="evenodd" d="M13.5917 13.4927C13.975 13.6498 14.1583 14.0879 14.0013 14.4711L13.0124 16.884H13.5765C14.1919 16.884 14.6428 17.4579 14.5039 18.052L15.2906 17.1541H14.8515C14.1943 17.1541 13.7347 16.5041 13.9537 15.8846C13.959 15.8697 13.9647 15.855 13.9709 15.8405L14.7424 14.0297C14.9047 13.6487 15.3453 13.4714 15.7263 13.6338C16.1074 13.7961 16.2847 14.2367 16.1223 14.6177L15.6808 15.6541H16.4988C17.3172 15.6541 17.7543 16.6182 17.215 17.2337L16.6509 16.7395L17.215 17.2337L14.0871 20.8039C13.4234 21.5616 12.1914 20.9044 12.4509 19.9311L12.8634 18.384H12.1957C11.5338 18.384 11.0738 17.7253 11.3018 17.1039C11.305 17.0951 11.3084 17.0864 11.3119 17.0778L12.6133 13.9023C12.7704 13.519 13.2084 13.3357 13.5917 13.4927Z" fill="black"/>
<path fill-rule="evenodd" clip-rule="evenodd" d="M8.41395 14.6521C8.79634 14.8113 8.97724 15.2504 8.81801 15.6327L8.51635 16.3572H9.66694C9.92116 16.3572 10.1581 16.4859 10.2963 16.6993C10.4346 16.9126 10.4554 17.1815 10.3515 17.4135L9.44895 19.4302C9.27973 19.8082 8.83607 19.9776 8.458 19.8083C8.07992 19.6391 7.9106 19.1955 8.07982 18.8174L8.50958 17.8572H7.3916C7.14087 17.8572 6.90672 17.7319 6.76761 17.5233C6.6285 17.3146 6.60285 17.0503 6.69924 16.8188L7.43327 15.0561C7.5925 14.6737 8.03157 14.4928 8.41395 14.6521Z" fill="black"/>
<path fill-rule="evenodd" clip-rule="evenodd" d="M17.2833 2.86896C17.4382 3.07314 17.4781 3.34228 17.3892 3.58262C16.8205 5.119 17.1463 6.30065 17.8038 6.95519C18.4592 7.60778 19.624 7.91548 21.1177 7.32705C21.3585 7.2322 21.6312 7.26817 21.8391 7.42221C22.047 7.57626 22.1609 7.82661 22.1403 8.08456C21.9473 10.5014 20.0707 12.4467 17.6811 12.7443C17.2701 12.7954 16.8953 12.5037 16.8441 12.0927C16.793 11.6817 17.0847 11.3069 17.4957 11.2558C18.7948 11.094 19.8802 10.2404 20.3726 9.07807C18.9445 9.29772 17.6463 8.91516 16.7454 8.01818C15.8376 7.11435 15.4424 5.79701 15.6537 4.33543C14.4526 4.83693 13.5796 5.96747 13.4487 7.31625C13.4087 7.72853 13.042 8.0303 12.6297 7.99028C12.2175 7.95026 11.9157 7.58361 11.9557 7.17133C12.194 4.71664 14.1632 2.77649 16.6245 2.57478C16.88 2.55384 17.1284 2.66479 17.2833 2.86896Z" fill="black"/>
</svg>