<svg width="25" height="24" viewBox="0 0 25 24" fill="none" xmlns="http://www.w3.org/2000/svg">
<path d="M16.8242 21.7551H8.39426C5.08426 21.7551 2.86426 19.4351 2.86426 15.9751V8.02509C2.86426 4.57509 5.08426 2.24512 8.39426 2.24512H16.8343C20.1443 2.24512 22.3643 4.56509 22.3643 8.02509V15.9751C22.3643 19.4251 20.1443 21.7551 16.8343 21.7551H16.8242ZM8.39426 3.75513C5.94426 3.75513 4.36426 5.4351 4.36426 8.0351V15.9851C4.36426 18.5851 5.94426 20.2651 8.39426 20.2651H16.8242C19.2743 20.2651 20.8542 18.5851 20.8542 15.9851V8.0351C20.8542 5.4351 19.2743 3.75513 16.8242 3.75513H8.38425H8.39426Z" fill="black"/>
<path d="M12.5139 17.755C9.91394 17.755 7.60394 16.0151 6.89394 13.5151C6.81394 13.2351 6.91394 12.8951 7.14394 12.7051C7.37394 12.5051 7.74394 12.465 8.01394 12.615C9.48394 13.405 11.3439 13.125 12.5339 11.935C13.7239 10.745 14.0039 8.88502 13.2139 7.41502C13.0739 7.14502 13.1139 6.78503 13.3039 6.54503C13.4939 6.31503 13.8339 6.20503 14.1239 6.29503C16.6139 7.00503 18.3539 9.31502 18.3539 11.915C18.3539 15.135 15.7339 17.7651 12.5039 17.7651L12.5139 17.755ZM9.03394 14.495C9.84394 15.575 11.1239 16.255 12.5139 16.255C14.9139 16.255 16.8639 14.305 16.8639 11.905C16.8639 10.505 16.1839 9.22502 15.1039 8.41502C15.3439 10.055 14.8139 11.775 13.5939 12.985C12.3839 14.195 10.6639 14.725 9.02393 14.485L9.03394 14.495Z" fill="black"/>
<path d="M10.4941 8.58475C10.2941 8.58475 10.0941 8.50471 9.95407 8.35471C9.66407 8.05471 9.67407 7.5747 9.97407 7.2847C10.2741 7.0047 10.7441 7.00472 11.0341 7.30472C11.3241 7.61472 11.3041 8.08473 11.0041 8.37473C10.8541 8.51473 10.6741 8.58475 10.4841 8.58475H10.4941Z" fill="black"/>
<path d="M9.57403 11.4754C9.38403 11.4754 9.20403 11.4054 9.05403 11.2654C8.75403 10.9754 8.73403 10.4954 9.02403 10.2054C9.31403 9.90541 9.78404 9.88538 10.084 10.1754H10.094C10.394 10.4754 10.404 10.9454 10.124 11.2454C9.97404 11.3954 9.77404 11.4754 9.58404 11.4754H9.57403Z" fill="black"/>
</svg>