<svg width="25" height="25" viewBox="0 0 25 25" fill="none" xmlns="http://www.w3.org/2000/svg">
<path d="M14.3482 19.2725H14.9667C16.056 19.2725 16.939 18.3894 16.939 17.3002V12.5894C16.939 10.4109 15.173 8.6449 12.9945 8.6449H11.5021C9.32364 8.6449 7.55762 10.4109 7.55762 12.5894V17.3002C7.55762 18.3894 8.44063 19.2725 9.52988 19.2725H10.1495" stroke="black" stroke-width="1.5" stroke-linecap="round" stroke-linejoin="round"/>
<path d="M10.1948 15.9862C10.1948 14.8519 11.1144 13.9324 12.2487 13.9324C13.383 13.9324 14.3025 14.8519 14.3025 15.9862V19.8309C14.3025 20.9652 13.383 21.8847 12.2487 21.8847C11.1144 21.8847 10.1948 20.9652 10.1948 19.8309V15.9862Z" stroke="black" stroke-width="1.5" stroke-linecap="round" stroke-linejoin="round"/>
<path d="M19.494 4.53223H17.7156C17.2904 4.53223 16.8766 4.66964 16.5358 4.92398L14.9902 6.07768" stroke="black" stroke-width="1.5" stroke-linecap="round" stroke-linejoin="round"/>
<path d="M5.00586 4.53223H6.78432C7.20952 4.53223 7.62334 4.66964 7.96408 4.92398L9.50966 6.07768" stroke="black" stroke-width="1.5" stroke-linecap="round" stroke-linejoin="round"/>
<path d="M15.1779 7.0725C15.1376 5.96656 14.593 4.85383 13.6226 4.28357C12.6938 3.73873 11.76 3.75866 10.8387 4.30349C9.86914 4.8766 9.4018 5.96068 9.32645 7.0451C9.17672 9.15387 15.2535 9.19294 15.1779 7.0725Z" stroke="black" stroke-width="1.5" stroke-linecap="round" stroke-linejoin="round"/>
</svg>