<svg width="25" height="26" viewBox="0 0 25 26" fill="none" xmlns="http://www.w3.org/2000/svg">
<path fill-rule="evenodd" clip-rule="evenodd" d="M6.46875 16.0972C4.96746 16.0972 3.75 17.3146 3.75 18.8159C3.75 20.3173 4.96714 21.5347 6.46875 21.5347C7.97004 21.5347 9.1875 20.3172 9.1875 18.8159C9.1875 17.3143 7.97009 16.0972 6.46875 16.0972ZM2.25 18.8159C2.25 16.4862 4.13904 14.5972 6.46875 14.5972C8.79841 14.5972 10.6875 16.4858 10.6875 18.8159C10.6875 21.1456 8.79846 23.0347 6.46875 23.0347C4.13861 23.0347 2.25 21.1456 2.25 18.8159Z" fill="black"/>
<path fill-rule="evenodd" clip-rule="evenodd" d="M18.0312 16.0972C16.53 16.0972 15.3125 17.3146 15.3125 18.8159C15.3125 20.3173 16.5296 21.5347 18.0312 21.5347C19.5325 21.5347 20.75 20.3172 20.75 18.8159C20.75 17.3143 19.5326 16.0972 18.0312 16.0972ZM13.8125 18.8159C13.8125 16.4862 15.7015 14.5972 18.0312 14.5972C20.3609 14.5972 22.25 16.4858 22.25 18.8159C22.25 21.1456 20.361 23.0347 18.0312 23.0347C15.7011 23.0347 13.8125 21.1456 13.8125 18.8159Z" fill="black"/>
<path fill-rule="evenodd" clip-rule="evenodd" d="M12.25 4.53467C10.7487 4.53467 9.53125 5.75213 9.53125 7.25342C9.53125 8.75476 10.7484 9.97217 12.25 9.97217C13.7513 9.97217 14.9688 8.7547 14.9688 7.25342C14.9688 5.75181 13.7513 4.53467 12.25 4.53467ZM8.03125 7.25342C8.03125 4.9237 9.92029 3.03467 12.25 3.03467C14.5797 3.03467 16.4688 4.92328 16.4688 7.25342C16.4688 9.58313 14.5797 11.4722 12.25 11.4722C9.91986 11.4722 8.03125 9.58308 8.03125 7.25342Z" fill="black"/>
</svg>