<svg width="24" height="24" viewBox="0 0 24 24" fill="none" xmlns="http://www.w3.org/2000/svg">
<path d="M5.49379 18.055C6.87107 18.055 7.98757 16.9384 7.98757 15.5612C7.98757 14.1839 6.87107 13.0674 5.49379 13.0674C4.11651 13.0674 3 14.1839 3 15.5612C3 16.9384 4.11651 18.055 5.49379 18.055Z" stroke="black" stroke-width="1.5" stroke-miterlimit="10" stroke-linecap="round" stroke-linejoin="round"/>
<path d="M18.5065 18.055C19.8838 18.055 21.0003 16.9384 21.0003 15.5612C21.0003 14.1839 19.8838 13.0674 18.5065 13.0674C17.1292 13.0674 16.0127 14.1839 16.0127 15.5612C16.0127 16.9384 17.1292 18.055 18.5065 18.055Z" stroke="black" stroke-width="1.5" stroke-miterlimit="10" stroke-linecap="round" stroke-linejoin="round"/>
<path d="M18.5065 15.5611L13.7029 5.94482H11.7061" stroke="black" stroke-width="1.5" stroke-miterlimit="10" stroke-linecap="round" stroke-linejoin="round"/>
<path d="M5.49512 15.5612L10.8048 14.0889" stroke="black" stroke-width="1.5" stroke-miterlimit="10" stroke-linecap="round" stroke-linejoin="round"/>
<path d="M7.00293 11.2822L8.47528 12.1748H10.2697L11.2267 15.5612L12.9567 14.8251L13.5301 13.4982" stroke="black" stroke-width="1.5" stroke-miterlimit="10" stroke-linecap="round" stroke-linejoin="round"/>
<path d="M14.6211 11.2011L16.1866 7.896" stroke="black" stroke-width="1.5" stroke-miterlimit="10" stroke-linecap="round" stroke-linejoin="round"/>
<path d="M4.0498 7.896C4.0498 7.896 9.40546 11.2732 13.1231 8.88983L14.6231 11.2732C14.6231 11.2732 18.0095 7.896 21.0002 11.0799" stroke="black" stroke-width="1.5" stroke-miterlimit="10" stroke-linecap="round" stroke-linejoin="round"/>
</svg>