<svg width="25" height="25" viewBox="0 0 25 25" fill="none" xmlns="http://www.w3.org/2000/svg">
<path fill-rule="evenodd" clip-rule="evenodd" d="M5.28076 3.88477C5.28076 3.47055 5.61655 3.13477 6.03076 3.13477H7.75173C8.75899 3.13477 9.3881 3.94897 9.61483 4.63323C9.70659 4.91017 9.84422 5.11503 10.0072 5.24794C10.1618 5.37402 10.3767 5.46702 10.6953 5.46702C11.1095 5.46702 11.4453 5.80281 11.4453 6.21702C11.4453 6.63124 11.1095 6.96702 10.6953 6.96702C10.052 6.96702 9.49712 6.76753 9.05919 6.41039C8.62962 6.06008 8.35198 5.59099 8.19096 5.10503C8.13877 4.94753 8.05302 4.81618 7.96258 4.7333C7.87701 4.65489 7.8068 4.63477 7.75173 4.63477H6.03076C5.61655 4.63477 5.28076 4.29898 5.28076 3.88477Z" fill="black"/>
<path fill-rule="evenodd" clip-rule="evenodd" d="M14.8851 4.63323C15.1119 3.94897 15.741 3.13477 16.7482 3.13477H18.4692C18.8834 3.13477 19.2192 3.47055 19.2192 3.88477C19.2192 4.29898 18.8834 4.63477 18.4692 4.63477H16.7482C16.6932 4.63477 16.623 4.65489 16.5374 4.7333C16.447 4.81618 16.3612 4.94753 16.309 5.10503C16.148 5.59099 15.8703 6.06008 15.4408 6.41039C15.0028 6.76753 14.448 6.96702 13.8047 6.96702C13.3905 6.96702 13.0547 6.63124 13.0547 6.21702C13.0547 5.80281 13.3905 5.46702 13.8047 5.46702C14.1232 5.46702 14.3382 5.37402 14.4928 5.24794C14.6557 5.11503 14.7934 4.91017 14.8851 4.63323Z" fill="black"/>
<path fill-rule="evenodd" clip-rule="evenodd" d="M5.80281 11.1677C5.40516 9.44448 6.71391 7.79932 8.48239 7.79932H10.6618C11.076 7.79932 11.4118 8.1351 11.4118 8.54932C11.4118 8.96353 11.076 9.29932 10.6618 9.29932H8.48239C7.67853 9.29932 7.08365 10.0471 7.2644 10.8304L8.67356 16.9368C8.80444 17.504 9.30948 17.9058 9.89155 17.9058H10.6488C11.0631 17.9058 11.3988 18.2416 11.3988 18.6558C11.3988 19.07 11.0631 19.4058 10.6488 19.4058H9.89155C8.61099 19.4058 7.49991 18.5219 7.21197 17.2741L5.80281 11.1677Z" fill="black"/>
<path fill-rule="evenodd" clip-rule="evenodd" d="M13.1115 8.54932C13.1115 8.1351 13.4472 7.79932 13.8615 7.79932H16.1152C17.8837 7.79932 19.1924 9.4445 18.7947 11.1677L17.3855 17.2742C17.0976 18.5219 15.9865 19.4058 14.7059 19.4058H13.855C13.4408 19.4058 13.105 19.07 13.105 18.6558C13.105 18.2416 13.4408 17.9058 13.855 17.9058H14.7059C15.288 17.9058 15.793 17.504 15.9239 16.9369L17.3332 10.8304C17.5139 10.0471 16.919 9.29932 16.1152 9.29932H13.8615C13.4472 9.29932 13.1115 8.96353 13.1115 8.54932Z" fill="black"/>
<path fill-rule="evenodd" clip-rule="evenodd" d="M12.2502 6.18958C11.591 6.18958 11.0566 6.72395 11.0566 7.38312C11.0566 8.0423 11.591 8.57667 12.2502 8.57667C12.9094 8.57667 13.4437 8.0423 13.4437 7.38312C13.4437 6.72395 12.9094 6.18958 12.2502 6.18958ZM9.55664 7.38312C9.55664 5.89552 10.7626 4.68958 12.2502 4.68958C13.7378 4.68958 14.9437 5.89552 14.9437 7.38312C14.9437 8.87073 13.7378 10.0767 12.2502 10.0767C10.7626 10.0767 9.55664 8.87073 9.55664 7.38312Z" fill="black"/>
<path fill-rule="evenodd" clip-rule="evenodd" d="M9.92725 16.3414C9.92725 15.0585 10.9672 14.0186 12.2501 14.0186C13.533 14.0186 14.573 15.0585 14.573 16.3414V20.3118C14.573 21.5947 13.533 22.6347 12.2501 22.6347C10.9672 22.6347 9.92725 21.5947 9.92725 20.3118V16.3414ZM12.2501 15.5186C11.7957 15.5186 11.4272 15.887 11.4272 16.3414V20.3118C11.4272 20.7663 11.7956 21.1347 12.2501 21.1347C12.7045 21.1347 13.073 20.7663 13.073 20.3118V16.3414C13.073 15.887 12.7045 15.5186 12.2501 15.5186Z" fill="black"/>
</svg>