<svg width="25" height="24" viewBox="0 0 25 24" fill="none" xmlns="http://www.w3.org/2000/svg">
<path opacity="0.4" d="M9.27998 17.2529L7.61426 20.9998" stroke="black" stroke-width="1.5" stroke-linecap="round" stroke-linejoin="round"/>
<path opacity="0.4" fill-rule="evenodd" clip-rule="evenodd" d="M11.5231 6.90841C12.5982 6.90841 13.4777 6.03469 13.4777 4.95469C13.4777 3.8747 12.5982 3 11.5231 3C10.4479 3 9.56836 3.8747 9.56836 4.95469C9.56836 6.03469 10.4479 6.90841 11.5231 6.90841Z" stroke="black" stroke-width="1.5" stroke-linecap="round" stroke-linejoin="round"/>
<path d="M17.3852 9.7627C16.5436 10.183 15.7312 10.831 14.7358 10.7726C13.6354 10.7074 12.5904 9.92615 11.4589 10.2326C10.4509 10.506 9.84859 11.3516 9.79313 12.3625C9.68222 14.3726 11.8675 15.0634 12.7296 16.5871C13.47 17.8948 13.4554 19.5585 13.4846 20.9976" stroke="black" stroke-width="1.5" stroke-linecap="round" stroke-linejoin="round"/>
<path d="M17.3848 8.29688L17.3853 9.76274L17.3848 20.9999" stroke="black" stroke-width="1.5" stroke-linecap="round" stroke-linejoin="round"/>
</svg>