<svg width="25" height="24" viewBox="0 0 25 24" fill="none" xmlns="http://www.w3.org/2000/svg">
<path fill-rule="evenodd" clip-rule="evenodd" d="M4.80469 9.29729C4.80359 5.36259 8.18229 2.25 12.2515 2.25C16.318 2.25 19.6946 5.36078 19.6957 9.29493L19.6967 14.7027C19.6967 14.7027 19.6967 14.7027 19.6967 14.7027C19.6977 18.6372 16.32 21.75 12.2517 21.75C8.18458 21.75 4.80679 18.6396 4.80663 14.7061C4.80663 14.706 4.80663 14.7062 4.80663 14.7061L4.80469 9.29729ZM6.30469 9.29687C6.30469 9.29689 6.30469 9.29685 6.30469 9.29687L6.30663 14.7056C6.30663 17.7248 8.92424 20.25 12.2517 20.25C15.5798 20.25 18.1975 17.7234 18.1967 14.7031L18.1957 9.29534C18.1957 9.29532 18.1957 9.29537 18.1957 9.29534C18.1948 6.27471 15.5776 3.75 12.2515 3.75C8.9222 3.75 6.30388 6.27679 6.30469 9.29687Z" fill="black"/>
<path fill-rule="evenodd" clip-rule="evenodd" d="M12.252 2.25C12.6662 2.25 13.002 2.58579 13.002 3V9.73784C13.002 10.1521 12.6662 10.4878 12.252 10.4878C11.8377 10.4878 11.502 10.1521 11.502 9.73784V3C11.502 2.58579 11.8377 2.25 12.252 2.25Z" fill="black"/>
</svg>