<svg width="25" height="24" viewBox="0 0 25 24" fill="none" xmlns="http://www.w3.org/2000/svg">
<path fill-rule="evenodd" clip-rule="evenodd" d="M3.99079 3.89688C4.97556 2.84084 6.37779 2.25 8.03313 2.25H16.4678C18.1271 2.25 19.5295 2.84054 20.5134 3.89733C21.4916 4.94805 22 6.39856 22 8.02638V15.9736C22 17.601 21.4916 19.0515 20.5133 20.1023C19.5293 21.1592 18.1266 21.75 16.4669 21.75H8.03313C6.37379 21.75 4.97117 21.1592 3.98714 20.1024C3.00872 19.0516 2.5 17.6011 2.5 15.9736V8.02638C2.5 6.39751 3.01145 4.94712 3.99079 3.89688ZM5.08783 4.91987C4.41045 5.64629 4 6.70908 4 8.02638V15.9736C4 17.2913 4.40879 18.354 5.08492 19.0802C5.75542 19.8003 6.74437 20.25 8.03313 20.25H16.4669C17.7562 20.25 18.7451 19.8002 19.4154 19.0802C20.0914 18.3541 20.5 17.2914 20.5 15.9736V8.02638C20.5 6.70804 20.0914 5.64536 19.4155 4.91943C18.7453 4.19956 17.7567 3.75 16.4678 3.75H8.03313C6.74913 3.75 5.75979 4.19927 5.08783 4.91987Z" fill="black"/>
<path fill-rule="evenodd" clip-rule="evenodd" d="M7.87811 7.73326C8.07859 7.52691 8.37944 7.45343 8.65247 7.54413L16.3234 10.0923C16.6244 10.1923 16.8299 10.4708 16.8368 10.7879C16.8436 11.1049 16.6503 11.392 16.354 11.5049L13.0905 12.7484L11.847 16.0119C11.7355 16.3045 11.4539 16.4971 11.1408 16.4948C10.8276 16.4926 10.5488 16.296 10.4416 16.0017L7.7114 8.51276C7.61286 8.24246 7.67763 7.93961 7.87811 7.73326ZM9.65212 9.4568L11.1617 13.5977L11.8085 11.9002C11.8846 11.7004 12.0425 11.5425 12.2423 11.4664L13.8535 10.8525L9.65212 9.4568Z" fill="black"/>
<path fill-rule="evenodd" clip-rule="evenodd" d="M11.9774 11.6357C12.2703 11.3428 12.7452 11.3428 13.0381 11.6356L16.2849 14.882C16.5779 15.1749 16.5779 15.6497 16.285 15.9427C15.9922 16.2356 15.5173 16.2356 15.2244 15.9427L11.9775 12.6964C11.6846 12.4035 11.6846 11.9286 11.9774 11.6357Z" fill="black"/>
</svg>