<svg width="24" height="24" viewBox="0 0 24 24" fill="none" xmlns="http://www.w3.org/2000/svg">
<path opacity="0.4" fill-rule="evenodd" clip-rule="evenodd" d="M19.1946 9.295C19.1936 5.549 15.9656 2.5 11.9996 2.5C10.0826 2.5 8.27859 3.203 6.92059 4.481C5.55459 5.765 4.80259 7.476 4.80359 9.297L4.80559 14.706C4.80559 18.452 8.03259 21.5 12.0006 21.5C15.9686 21.5 19.1966 18.451 19.1966 14.703L19.1946 9.295Z" fill="black"/>
<path d="M12.0016 10.4449C12.4156 10.4449 12.7516 10.1089 12.7516 9.69487V7.67188C12.7516 7.25787 12.4156 6.92188 12.0016 6.92188C11.5876 6.92188 11.2516 7.25787 11.2516 7.67188V9.69487C11.2516 10.1089 11.5876 10.4449 12.0016 10.4449Z" fill="black"/>
</svg>