<svg width="24" height="24" viewBox="0 0 24 24" fill="none" xmlns="http://www.w3.org/2000/svg">
<path fill-rule="evenodd" clip-rule="evenodd" d="M11.5601 11.898C11.5971 11.803 11.6511 11.713 11.7271 11.636C11.8041 11.56 11.8941 11.505 11.9891 11.469C11.9901 11.468 11.9911 11.467 11.9921 11.467L13.6031 10.853L9.4021 9.45703L10.9121 13.598L11.5591 11.9C11.5591 11.899 11.5601 11.899 11.5601 11.898Z" fill="black"/>
<path fill-rule="evenodd" clip-rule="evenodd" d="M16.104 11.505L13.608 12.456L16.035 14.882C16.328 15.174 16.328 15.65 16.035 15.942C15.889 16.089 15.697 16.162 15.505 16.162C15.313 16.162 15.121 16.089 14.975 15.942L12.548 13.516L11.597 16.012C11.486 16.303 11.207 16.495 10.896 16.495H10.891C10.578 16.493 10.299 16.297 10.191 16.002L7.461 8.513C7.363 8.242 7.428 7.94 7.628 7.734C7.829 7.527 8.131 7.455 8.402 7.544L16.073 10.092C16.375 10.193 16.58 10.471 16.587 10.788C16.594 11.105 16.4 11.392 16.104 11.505ZM16.218 2.5H7.783C4.623 2.5 2.5 4.721 2.5 8.026V15.974C2.5 19.279 4.623 21.5 7.783 21.5H16.217C19.377 21.5 21.5 19.279 21.5 15.974V8.026C21.5 4.721 19.377 2.5 16.218 2.5Z" fill="black"/>
</svg>