<svg width="24" height="24" viewBox="0 0 24 24" fill="none" xmlns="http://www.w3.org/2000/svg">
<path fill-rule="evenodd" clip-rule="evenodd" d="M19.1951 9.25806C19.1941 5.8581 16.5361 3.03429 13.0807 2.5407C12.9052 2.51562 12.7521 2.65476 12.7521 2.83207V9.70106C12.7521 10.1151 12.4161 10.4511 12.0021 10.4511C11.5881 10.4511 11.2521 10.1151 11.2521 9.70106V2.83147C11.2521 2.65438 11.0993 2.51531 10.924 2.53995C9.41562 2.75185 8.02276 3.40874 6.92308 4.44406C5.55608 5.72806 4.80408 7.43906 4.80408 9.26006L4.80608 14.6691C4.80608 18.4151 8.03408 21.4631 12.0011 21.4631C13.9181 21.4631 15.7211 20.7601 17.0781 19.4831C18.4451 18.1981 19.1961 16.4871 19.1961 14.6661L19.1951 9.25806Z" fill="black"/>
</svg>