<svg width="24" height="24" viewBox="0 0 24 24" fill="none" xmlns="http://www.w3.org/2000/svg">
<path d="M6.52515 4.19076C5.8468 3.92451 5.10427 4.07922 4.59073 4.59501C4.07852 5.10845 3.92483 5.85082 4.19125 6.52622L8.48732 17.4254C8.76109 18.1179 9.41937 18.5645 10.1628 18.5645H10.1728L10.1744 18.5645C10.9224 18.5598 11.5787 18.1048 11.8445 17.4052L12.532 15.5999L12.5302 15.5945L13.3867 13.3516L15.3438 12.625L15.3479 12.6287L17.4057 11.8451C18.1043 11.5794 18.5602 10.9221 18.5648 10.174C18.5694 9.42566 18.1204 8.76263 17.4243 8.48883L6.52515 4.19076Z" fill="black"/>
<path opacity="0.4" d="M14.3945 12.9766L19.6446 18.2304C20.0352 18.6209 20.0352 19.2541 19.6446 19.6446C19.2541 20.0351 18.6209 20.0351 18.2304 19.6446L18.1339 19.5481C18.1243 19.5393 18.1149 19.5303 18.1056 19.5211L12.988 14.4025L13.3867 13.3518L14.3945 12.9766Z" fill="black"/>
</svg>