<svg width="24" height="24" viewBox="0 0 24 24" fill="none" xmlns="http://www.w3.org/2000/svg">
<path opacity="0.4" fill-rule="evenodd" clip-rule="evenodd" d="M19.195 7.866C19.195 4.907 16.788 2.5 13.829 2.5H10.171C7.21096 2.5 4.80396 4.908 4.80396 7.867L4.80496 16.134C4.80496 19.093 7.21196 21.5 10.171 21.5H13.83C16.789 21.5 19.196 19.092 19.196 16.133L19.195 7.866Z" fill="black"/>
<path d="M11.999 10.4449C12.413 10.4449 12.749 10.1089 12.749 9.69487V7.67188C12.749 7.25787 12.413 6.92188 11.999 6.92188C11.585 6.92188 11.249 7.25787 11.249 7.67188V9.69487C11.249 10.1089 11.585 10.4449 11.999 10.4449Z" fill="black"/>
</svg>