<svg width="25" height="25" viewBox="0 0 25 25" fill="none" xmlns="http://www.w3.org/2000/svg">
<path d="M14.5 6.46562C14.5 5.52674 15.2611 4.76562 16.2 4.76562H18.8C19.7389 4.76562 20.5 5.52674 20.5 6.46563V9.06563C20.5 10.0045 19.7389 10.7656 18.8 10.7656H16.2C15.2611 10.7656 14.5 10.0045 14.5 9.06563V6.46562Z" stroke="black" stroke-width="1.5" stroke-linecap="round" stroke-linejoin="round"/>
<path d="M14.5 16.4656C14.5 15.5267 15.2611 14.7656 16.2 14.7656H18.8C19.7389 14.7656 20.5 15.5267 20.5 16.4656V19.0656C20.5 20.0045 19.7389 20.7656 18.8 20.7656H16.2C15.2611 20.7656 14.5 20.0045 14.5 19.0656V16.4656Z" stroke="black" stroke-width="1.5" stroke-linecap="round" stroke-linejoin="round"/>
<path d="M10.5 20.1401C8.9087 20.1401 7.38258 19.5079 6.25736 18.3827C5.13214 17.2575 4.5 15.7314 4.5 14.1401C4.5 12.5488 5.13214 11.0226 6.25736 9.89741C7.57755 8.57722 9.17979 7.88723 11.3885 7.75389" stroke="black" stroke-width="1.5" stroke-linecap="round" stroke-linejoin="round"/>
<path d="M8.89648 6.30859L11.4261 7.74873L9.986 10.2784" stroke="black" stroke-width="1.5" stroke-linecap="round" stroke-linejoin="round"/>
</svg>