<svg width="25" height="25" viewBox="0 0 25 25" fill="none" xmlns="http://www.w3.org/2000/svg">
<path fill-rule="evenodd" clip-rule="evenodd" d="M13.75 6.46562C13.75 5.11253 14.8469 4.01562 16.2 4.01562H18.8C20.1531 4.01562 21.25 5.11253 21.25 6.46563V9.06563C21.25 10.4187 20.1531 11.5156 18.8 11.5156H16.2C14.8469 11.5156 13.75 10.4187 13.75 9.06563V6.46562ZM16.2 5.51562C15.6753 5.51562 15.25 5.94095 15.25 6.46562V9.06563C15.25 9.5903 15.6753 10.0156 16.2 10.0156H18.8C19.3247 10.0156 19.75 9.5903 19.75 9.06563V6.46563C19.75 5.94095 19.3247 5.51562 18.8 5.51562H16.2Z" fill="black"/>
<path fill-rule="evenodd" clip-rule="evenodd" d="M13.75 16.4656C13.75 15.1125 14.8469 14.0156 16.2 14.0156H18.8C20.1531 14.0156 21.25 15.1125 21.25 16.4656V19.0656C21.25 20.4187 20.1531 21.5156 18.8 21.5156H16.2C14.8469 21.5156 13.75 20.4187 13.75 19.0656V16.4656ZM16.2 15.5156C15.6753 15.5156 15.25 15.941 15.25 16.4656V19.0656C15.25 19.5903 15.6753 20.0156 16.2 20.0156H18.8C19.3247 20.0156 19.75 19.5903 19.75 19.0656V16.4656C19.75 15.941 19.3247 15.5156 18.8 15.5156H16.2Z" fill="black"/>
<path fill-rule="evenodd" clip-rule="evenodd" d="M5.72703 16.5391C4.46116 15.2733 3.75 13.5564 3.75 11.7662C3.75 9.97594 4.46116 8.25906 5.72703 6.99319C6.9929 5.72732 8.70979 5.01616 10.5 5.01616C10.9142 5.01616 11.25 5.35194 11.25 5.76616C11.25 6.18037 10.9142 6.51616 10.5 6.51616C9.10761 6.51616 7.77226 7.06928 6.78769 8.05385C5.80312 9.03841 5.25 10.3738 5.25 11.7662C5.25 13.1585 5.80312 14.4939 6.78769 15.4785C7.96033 16.6511 9.38091 17.2798 11.4337 17.4037C11.8472 17.4286 12.1621 17.7841 12.1372 18.1975C12.1122 18.611 11.7568 18.9259 11.3433 18.901C8.97867 18.7582 7.19477 18.0069 5.72703 16.5391Z" fill="black"/>
<path fill-rule="evenodd" clip-rule="evenodd" d="M8.24458 19.9635C8.03965 19.6035 8.16534 19.1456 8.5253 18.9407L10.4032 17.8716L9.3341 15.9937C9.12917 15.6337 9.25485 15.1758 9.61482 14.9709C9.97479 14.7659 10.4327 14.8916 10.6377 15.2516L12.0778 17.7812C12.2827 18.1412 12.157 18.5991 11.7971 18.8041L9.26742 20.2442C8.90746 20.4491 8.44952 20.3235 8.24458 19.9635Z" fill="black"/>
</svg>