<svg width="24" height="24" viewBox="0 0 24 24" fill="none" xmlns="http://www.w3.org/2000/svg">
<path fill-rule="evenodd" clip-rule="evenodd" d="M18.4251 3.5H15.8251C14.6121 3.5 13.6251 4.487 13.6251 5.7V8.3C13.6251 9.513 14.6121 10.5 15.8251 10.5H18.4251C19.6381 10.5 20.6251 9.513 20.6251 8.3V5.7C20.6251 4.487 19.6381 3.5 18.4251 3.5Z" fill="black"/>
<path fill-rule="evenodd" clip-rule="evenodd" d="M18.4251 13.5H15.8251C14.6121 13.5 13.6251 14.487 13.6251 15.7V18.3C13.6251 19.513 14.6121 20.5 15.8251 20.5H18.4251C19.6381 20.5 20.6251 19.513 20.6251 18.3V15.7C20.6251 14.487 19.6381 13.5 18.4251 13.5Z" fill="black"/>
<path fill-rule="evenodd" clip-rule="evenodd" d="M10.2629 14.489C10.0589 14.129 9.60194 14.001 9.24094 14.209C8.87994 14.413 8.75494 14.871 8.95994 15.231L9.65694 16.455C8.35194 16.177 7.31894 15.616 6.41094 14.709C5.43494 13.737 4.87494 12.385 4.87494 11C4.87494 9.615 5.43494 8.262 6.41294 7.289C7.40294 6.297 8.72094 5.75 10.1249 5.75C10.5389 5.75 10.8749 5.414 10.8749 5C10.8749 4.586 10.5389 4.25 10.1249 4.25C8.31894 4.25 6.62294 4.953 5.35294 6.228C4.09594 7.479 3.37494 9.218 3.37494 11C3.37494 12.781 4.09594 14.52 5.35194 15.77C6.33994 16.758 7.47894 17.415 8.83594 17.788L8.15094 18.178C7.78994 18.384 7.66494 18.841 7.86994 19.201C8.00794 19.444 8.26194 19.58 8.52294 19.58C8.64894 19.58 8.77594 19.549 8.89294 19.481L11.4219 18.041C11.7829 17.837 11.9079 17.379 11.7019 17.018L10.2629 14.489Z" fill="black"/>
</svg>