<svg width="25" height="24" viewBox="0 0 25 24" fill="none" xmlns="http://www.w3.org/2000/svg">
<path fill-rule="evenodd" clip-rule="evenodd" d="M3.74333 4.37142C4.67592 3.3709 6.00303 2.8125 7.56644 2.8125H16.5996C18.1664 2.8125 19.4941 3.37059 20.4263 4.37167C21.353 5.36673 21.833 6.73851 21.833 8.274V15.7243C21.833 17.2594 21.3529 18.6311 20.4262 19.6263C19.4939 20.6274 18.166 21.1858 16.5986 21.1858H7.56644C5.99906 21.1858 4.67153 20.6274 3.73964 19.6261C2.81343 18.6309 2.33398 17.2591 2.33398 15.7243V8.274C2.33398 6.73773 2.81619 5.36608 3.74333 4.37142ZM4.84058 5.39418C4.21533 6.06496 3.83398 7.04906 3.83398 8.274V15.7243C3.83398 16.9497 4.21371 17.9337 4.83769 18.6042C5.45599 19.2686 6.36969 19.6858 7.56644 19.6858H16.5986C17.7954 19.6858 18.7097 19.2685 19.3285 18.604C19.9529 17.9335 20.333 16.9495 20.333 15.7243V8.274C20.333 7.04829 19.9529 6.06431 19.3286 5.39392C18.7099 4.72956 17.7959 4.3125 16.5996 4.3125H7.56644C6.37449 4.3125 5.46037 4.72925 4.84058 5.39418Z" fill="black"/>
<path fill-rule="evenodd" clip-rule="evenodd" d="M2.33398 8.5C2.33398 8.08579 2.66977 7.75 3.08398 7.75H21.084C21.4982 7.75 21.834 8.08579 21.834 8.5C21.834 8.91421 21.4982 9.25 21.084 9.25H3.08398C2.66977 9.25 2.33398 8.91421 2.33398 8.5Z" fill="black"/>
<path fill-rule="evenodd" clip-rule="evenodd" d="M10.0232 2.89317C10.3951 2.71081 10.8444 2.86448 11.0267 3.23639L13.4439 8.16622C13.6263 8.53813 13.4726 8.98746 13.1007 9.16981C12.7288 9.35216 12.2794 9.19849 12.0971 8.82658L9.67993 3.89676C9.49757 3.52484 9.65124 3.07552 10.0232 2.89317ZM14.4738 2.89317C14.8458 2.71081 15.2951 2.86448 15.4774 3.23639L17.8946 8.16622C18.0769 8.53813 17.9233 8.98746 17.5514 9.16981C17.1794 9.35216 16.7301 9.19849 16.5478 8.82658L14.1306 3.89676C13.9483 3.52484 14.1019 3.07552 14.4738 2.89317ZM5.71089 3.12023C6.08329 2.93889 6.5322 3.09378 6.71354 3.46619L9.00301 8.16794C9.18435 8.54035 9.02946 8.98925 8.65705 9.1706C8.28464 9.35194 7.83574 9.19704 7.6544 8.82464L5.36493 4.12288C5.18359 3.75047 5.33848 3.30157 5.71089 3.12023Z" fill="black"/>
</svg>