<svg width="24" height="24" viewBox="0 0 24 24" fill="none" xmlns="http://www.w3.org/2000/svg">
<path fill-rule="evenodd" clip-rule="evenodd" d="M9.40051 6.429C9.40051 6.59469 9.53483 6.729 9.70051 6.729H14.2945C14.4602 6.729 14.5945 6.59469 14.5945 6.429V2.8C14.5945 2.63431 14.4602 2.5 14.2945 2.5H9.70051C9.53483 2.5 9.40051 2.63431 9.40051 2.8V6.429Z" fill="black"/>
<path fill-rule="evenodd" clip-rule="evenodd" d="M7.6004 6.72881C7.76609 6.72881 7.9004 6.5945 7.9004 6.42881V2.81243C7.9004 2.64496 7.76278 2.50912 7.59565 2.51992C5.25906 2.67083 3.58497 4.14079 3.0997 6.38358C3.06073 6.56365 3.20192 6.72881 3.38615 6.72881H7.6004Z" fill="black"/>
<path fill-rule="evenodd" clip-rule="evenodd" d="M12.334 12.9689L11.998 12.2969L11.67 12.9549C11.49 13.3049 11.161 13.5389 10.787 13.5919L10.078 13.6949L10.584 14.1789C10.868 14.4629 10.991 14.8499 10.924 15.2229L10.802 15.9259L11.456 15.5849C11.631 15.4989 11.818 15.4559 12.003 15.4559C12.185 15.4559 12.364 15.4969 12.527 15.5779L13.196 15.9269L13.073 15.2189C13.007 14.8509 13.129 14.4659 13.399 14.1929L13.919 13.6949L13.208 13.5919C12.838 13.5389 12.511 13.3059 12.334 12.9689Z" fill="black"/>
<path fill-rule="evenodd" clip-rule="evenodd" d="M15.4482 14.3045L14.5822 15.1355L14.7902 16.3305C14.8922 16.9665 14.4632 17.5675 13.8342 17.6775C13.5532 17.7145 13.3162 17.6735 13.1092 17.5725L11.9982 16.9925L10.9022 17.5645C10.7232 17.6525 10.5372 17.6945 10.3552 17.6945C9.92922 17.6945 9.53022 17.4645 9.32322 17.0635C9.20522 16.8385 9.16422 16.5835 9.20822 16.3305L9.41622 15.1365L8.53422 14.2905C8.32022 14.0945 8.18522 13.7965 8.17722 13.4855C8.17022 13.1705 8.29122 12.8645 8.51022 12.6425C8.67922 12.4585 8.93322 12.3325 9.20922 12.3035L10.4042 12.1315L10.9522 11.0345C11.2702 10.4475 11.9752 10.2265 12.5442 10.5265C12.7342 10.6235 12.9092 10.7935 13.0252 10.9985C13.0322 11.0105 13.0392 11.0225 13.0452 11.0345L13.5932 12.1315L14.8162 12.3075C15.4412 12.3915 15.8892 12.9735 15.8092 13.6045C15.7702 13.8825 15.6422 14.1265 15.4482 14.3045ZM3.24922 8.22949C3.08353 8.22949 2.94922 8.36381 2.94922 8.52949V16.2295C2.94922 19.3815 4.97622 21.4995 7.99322 21.4995H16.0062C19.0222 21.4995 21.0492 19.3815 21.0492 16.2295V8.52949C21.0492 8.36381 20.9149 8.22949 20.7492 8.22949H3.24922Z" fill="black"/>
<path fill-rule="evenodd" clip-rule="evenodd" d="M16.0947 6.42881C16.0947 6.5945 16.229 6.72881 16.3947 6.72881H20.612C20.7962 6.72881 20.9374 6.56366 20.8985 6.3836C20.4131 4.13955 18.7378 2.66787 16.3991 2.51955C16.2321 2.50896 16.0947 2.64474 16.0947 2.81208V6.42881Z" fill="black"/>
</svg>