<svg width="25" height="24" viewBox="0 0 25 24" fill="none" xmlns="http://www.w3.org/2000/svg">
<path fill-rule="evenodd" clip-rule="evenodd" d="M19.0063 7.58557C19.0567 7.68834 19.1612 7.75348 19.2757 7.75348H21.9678C22.1425 7.75348 22.2809 7.60421 22.259 7.43087C21.9262 4.79175 20.0502 3.06348 17.3516 3.06348H17.2699C17.0479 3.06348 16.9028 3.29624 17.0005 3.49557L19.0063 7.58557Z" fill="black"/>
<path fill-rule="evenodd" clip-rule="evenodd" d="M15.2252 3.2805C15.1684 3.16355 15.072 3.0625 14.9419 3.0625H12.2564C12.0344 3.0625 11.8893 3.29524 11.9871 3.49457L13.9929 7.58557C14.0433 7.68835 14.1478 7.7535 14.2622 7.7535H16.937C17.159 7.7535 17.3041 7.52076 17.2064 7.32144L15.2252 3.2805Z" fill="black"/>
<path fill-rule="evenodd" clip-rule="evenodd" d="M8.99271 7.58463C9.04292 7.68792 9.14769 7.75348 9.26253 7.75348H11.9236C12.1456 7.75348 12.2907 7.52074 12.193 7.32141L10.2118 3.28048C10.1552 3.16398 10.059 3.06348 9.9295 3.06348H8.31679C7.94031 3.06348 7.58673 3.10816 7.24758 3.17862C7.06234 3.21711 6.9689 3.42112 7.05161 3.59128L8.99271 7.58463Z" fill="black"/>
<path fill-rule="evenodd" clip-rule="evenodd" d="M6.92774 7.75363C7.14929 7.75363 7.29441 7.52175 7.19756 7.32249L5.65735 4.15361C5.57858 3.99155 5.37506 3.93443 5.23187 4.0438C4.23371 4.80616 3.5918 5.98141 3.41044 7.43153C3.38877 7.60485 3.52718 7.75363 3.70185 7.75363H6.92774Z" fill="black"/>
<path opacity="0.4" fill-rule="evenodd" clip-rule="evenodd" d="M3.63398 9.25C3.4683 9.25 3.33398 9.38431 3.33398 9.55V15.72C3.33398 18.842 5.33598 20.939 8.31598 20.939H17.349C20.33 20.939 22.333 18.842 22.333 15.72V9.55C22.333 9.38431 22.1987 9.25 22.033 9.25H3.63398Z" fill="black"/>
</svg>