<svg width="25" height="24" viewBox="0 0 25 24" fill="none" xmlns="http://www.w3.org/2000/svg">
<path fill-rule="evenodd" clip-rule="evenodd" d="M3.97919 3.82503C4.92056 2.81405 6.26165 2.25 7.84553 2.25H15.8433C17.4263 2.25 18.7669 2.81415 19.708 3.82511C20.6434 4.83 21.1283 6.21548 21.1283 7.76655V10.3537C21.1283 10.7679 20.7925 11.1037 20.3783 11.1037C19.9641 11.1037 19.6283 10.7679 19.6283 10.3537V7.76655C19.6283 6.52521 19.2433 5.52742 18.6101 4.84714C17.9825 4.17292 17.0556 3.75 15.8433 3.75H7.84553C6.63213 3.75 5.70475 4.17302 5.07697 4.84722C4.44356 5.52747 4.05859 6.52522 4.05859 7.76655V15.38C4.05859 16.6213 4.44356 17.6191 5.07689 18.2994C5.70458 18.9736 6.63172 19.3965 7.84455 19.3965H10.4531C10.8673 19.3965 11.2031 19.7323 11.2031 20.1465C11.2031 20.5608 10.8673 20.8965 10.4531 20.8965H7.84455C6.26109 20.8965 4.92025 20.3324 3.97903 19.3215C3.04346 18.3166 2.55859 16.9311 2.55859 15.38V7.76655C2.55859 6.21548 3.04346 4.82995 3.97919 3.82503Z" fill="black"/>
<path fill-rule="evenodd" clip-rule="evenodd" d="M2.56641 7.46875C2.56641 7.05454 2.90219 6.71875 3.31641 6.71875H20.3734C20.7877 6.71875 21.1234 7.05454 21.1234 7.46875C21.1234 7.88296 20.7877 8.21875 20.3734 8.21875H3.31641C2.90219 8.21875 2.56641 7.88296 2.56641 7.46875Z" fill="black"/>
<path fill-rule="evenodd" clip-rule="evenodd" d="M8.87305 2.25C9.28726 2.25 9.62305 2.58579 9.62305 3V7.46785C9.62305 7.88207 9.28726 8.21785 8.87305 8.21785C8.45883 8.21785 8.12305 7.88207 8.12305 7.46785V3C8.12305 2.58579 8.45883 2.25 8.87305 2.25ZM14.8154 2.25C15.2296 2.25 15.5654 2.58579 15.5654 3V7.46785C15.5654 7.88207 15.2296 8.21785 14.8154 8.21785C14.4011 8.21785 14.0654 7.88207 14.0654 7.46785V3C14.0654 2.58579 14.4011 2.25 14.8154 2.25Z" fill="black"/>
<path fill-rule="evenodd" clip-rule="evenodd" d="M17.1383 13.6445C15.3147 13.6445 13.8359 15.1233 13.8359 16.9469C13.8359 18.7705 15.3147 20.2493 17.1383 20.2493C18.9619 20.2493 20.4407 18.7705 20.4407 16.9469C20.4407 15.1233 18.9619 13.6445 17.1383 13.6445ZM12.3359 16.9469C12.3359 14.2949 14.4863 12.1445 17.1383 12.1445C19.7904 12.1445 21.9407 14.2949 21.9407 16.9469C21.9407 19.599 19.7904 21.7493 17.1383 21.7493C14.4863 21.7493 12.3359 19.599 12.3359 16.9469Z" fill="black"/>
<path fill-rule="evenodd" clip-rule="evenodd" d="M17.1172 14.8398C17.5314 14.8398 17.8672 15.1756 17.8672 15.5898V16.8106L18.7833 17.358C19.1389 17.5705 19.2549 18.031 19.0424 18.3865C18.8299 18.7421 18.3694 18.8581 18.0139 18.6456L16.7325 17.8799C16.5059 17.7445 16.3672 17.5 16.3672 17.2361V15.5898C16.3672 15.1756 16.703 14.8398 17.1172 14.8398Z" fill="black"/>
</svg>