<svg width="24" height="24" viewBox="0 0 24 24" fill="none" xmlns="http://www.w3.org/2000/svg">
<path opacity="0.4" fill-rule="evenodd" clip-rule="evenodd" d="M21.0492 7.78V16.23C21.0492 19.38 19.0192 21.5 16.0092 21.5H7.99922C4.97922 21.5 2.94922 19.38 2.94922 16.23V7.78C2.94922 7.42 2.97922 7.07 3.02922 6.73C3.42922 4.19 5.28922 2.53 7.91922 2.5H16.0792C18.7092 2.53 20.5692 4.18 20.9692 6.73C21.0192 7.07 21.0492 7.42 21.0492 7.78Z" fill="black"/>
<path fill-rule="evenodd" clip-rule="evenodd" d="M7.91922 2.5V6.73H3.02922C2.97922 7.07 2.94922 7.42 2.94922 7.78V8.23H21.0492V7.78C21.0492 7.42 21.0192 7.07 20.9692 6.73H16.0792V2.5H14.5792V6.73H9.41922V2.5H7.91922Z" fill="black"/>
<path fill-rule="evenodd" clip-rule="evenodd" d="M14.4766 15.0571H12.7476V16.7871C12.7476 17.2021 12.4116 17.5371 11.9976 17.5371C11.5826 17.5371 11.2476 17.2021 11.2476 16.7871V15.0571H9.51758C9.10358 15.0571 8.76758 14.7211 8.76758 14.3071C8.76758 13.8931 9.10358 13.5571 9.51758 13.5571H11.2476V11.8281C11.2476 11.4131 11.5826 11.0781 11.9976 11.0781C12.4116 11.0781 12.7476 11.4131 12.7476 11.8281V13.5571H14.4766C14.8906 13.5571 15.2266 13.8931 15.2266 14.3071C15.2266 14.7211 14.8906 15.0571 14.4766 15.0571Z" fill="black"/>
</svg>