<svg width="25" height="24" viewBox="0 0 25 24" fill="none" xmlns="http://www.w3.org/2000/svg">
<path fill-rule="evenodd" clip-rule="evenodd" d="M4.37426 3.82747C5.31708 2.81495 6.66012 2.25 8.24601 2.25H16.2577C17.8436 2.25 19.1863 2.81498 20.1286 3.82764C21.0653 4.8342 21.5506 6.22201 21.5506 7.77583V16.2251C21.5506 17.78 21.0625 19.1674 20.1249 20.1733C19.1818 21.185 17.8396 21.75 16.2577 21.75H8.24503C6.65967 21.75 5.31689 21.1853 4.37418 20.1731C3.43707 19.1668 2.95117 17.7792 2.95117 16.2251V7.77583C2.95117 6.22179 3.43707 4.83396 4.37426 3.82747ZM5.47204 4.84967C4.83711 5.53154 4.45117 6.53162 4.45117 7.77583V16.2251C4.45117 17.4693 4.8371 18.4692 5.47188 19.1508C6.10105 19.8264 7.03019 20.25 8.24503 20.25H16.2577C17.4682 20.25 18.3974 19.8267 19.0277 19.1505C19.6634 18.4685 20.0506 17.4686 20.0506 16.2251V7.77583C20.0506 6.5314 19.665 5.5313 19.0305 4.8495C18.4017 4.17381 17.473 3.75 16.2577 3.75H8.24601C7.03072 3.75 6.10134 4.17384 5.47204 4.84967Z" fill="black"/>
<path fill-rule="evenodd" clip-rule="evenodd" d="M13.5128 13.8711C13.1366 13.8711 12.832 14.1757 12.832 14.5519V15.8677C12.832 16.2439 13.1366 16.5485 13.5128 16.5485H15.6892C16.0655 16.5485 16.37 16.2439 16.37 15.8677V14.5519C16.37 14.1757 16.0655 13.8711 15.6892 13.8711H13.5128ZM11.332 14.5519C11.332 13.3472 12.3082 12.3711 13.5128 12.3711H15.6892C16.8939 12.3711 17.87 13.3472 17.87 14.5519V15.8677C17.87 17.0723 16.8939 18.0485 15.6892 18.0485H13.5128C12.3082 18.0485 11.332 17.0723 11.332 15.8677V14.5519Z" fill="black"/>
<path fill-rule="evenodd" clip-rule="evenodd" d="M9.27344 2.25C9.68765 2.25 10.0234 2.58579 10.0234 3V7.47563C10.0234 7.88985 9.68765 8.22563 9.27344 8.22563C8.85922 8.22563 8.52344 7.88985 8.52344 7.47563V3C8.52344 2.58579 8.85922 2.25 9.27344 2.25ZM15.2266 2.25C15.6408 2.25 15.9766 2.58579 15.9766 3V7.47563C15.9766 7.88985 15.6408 8.22563 15.2266 8.22563C14.8124 8.22563 14.4766 7.88985 14.4766 7.47563V3C14.4766 2.58579 14.8124 2.25 15.2266 2.25Z" fill="black"/>
<path fill-rule="evenodd" clip-rule="evenodd" d="M2.95703 7.47656C2.95703 7.06235 3.29282 6.72656 3.70703 6.72656H20.7928C21.207 6.72656 21.5428 7.06235 21.5428 7.47656C21.5428 7.89078 21.207 8.22656 20.7928 8.22656H3.70703C3.29282 8.22656 2.95703 7.89078 2.95703 7.47656Z" fill="black"/>
</svg>