<svg width="24" height="24" viewBox="0 0 24 24" fill="none" xmlns="http://www.w3.org/2000/svg">
<path fill-rule="evenodd" clip-rule="evenodd" d="M8.74243 6.13213C8.74243 6.29781 8.87675 6.43213 9.04243 6.43213H13.5994C13.7651 6.43213 13.8994 6.29781 13.8994 6.13213V2.50312C13.8994 2.33744 13.7651 2.20312 13.5994 2.20312H9.04243C8.87675 2.20312 8.74243 2.33744 8.74243 2.50313V6.13213Z" fill="black"/>
<path fill-rule="evenodd" clip-rule="evenodd" d="M15.7029 2.22092C15.5361 2.21078 15.3992 2.34645 15.3992 2.51352V6.13296C15.3992 6.29865 15.5335 6.43296 15.6992 6.43296H19.9344C20.1187 6.43296 20.2598 6.2678 20.2209 6.08774C19.7342 3.83751 18.0518 2.36368 15.7029 2.22092Z" fill="black"/>
<path fill-rule="evenodd" clip-rule="evenodd" d="M16.9225 10.9366C17.9981 10.9366 19.0082 11.2208 19.884 11.7163C20.0951 11.8357 20.3705 11.69 20.3705 11.4475V8.23262C20.3705 8.06693 20.2362 7.93262 20.0705 7.93262H2.57148C2.4058 7.93262 2.27148 8.06693 2.27148 8.23262V15.9326C2.27148 19.0846 4.29848 21.2036 7.31548 21.2036H11.8727C12.1377 21.2036 12.2798 20.8777 12.1185 20.6674C11.3369 19.6489 10.8705 18.3775 10.8705 16.9976C10.8705 13.6556 13.5855 10.9366 16.9225 10.9366Z" fill="black"/>
<path fill-rule="evenodd" clip-rule="evenodd" d="M7.24193 2.51364C7.24193 2.34652 7.1049 2.21083 6.93809 2.22104C4.59024 2.36473 2.90793 3.83848 2.42124 6.08772C2.38227 6.26779 2.52346 6.43296 2.7077 6.43296H6.94193C7.10762 6.43296 7.24193 6.29865 7.24193 6.13296V2.51364Z" fill="black"/>
<path fill-rule="evenodd" clip-rule="evenodd" d="M16.9226 20.2975C15.1026 20.2975 13.6206 18.8175 13.6206 16.9975C13.6206 15.1725 15.1026 13.6875 16.9226 13.6875C18.7436 13.6875 20.2266 15.1725 20.2266 16.9975C20.2266 18.8175 18.7436 20.2975 16.9226 20.2975ZM16.9226 12.1875C14.2756 12.1875 12.1206 14.3455 12.1206 16.9975C12.1206 19.6445 14.2756 21.7975 16.9226 21.7975C19.5706 21.7975 21.7266 19.6445 21.7266 16.9975C21.7266 14.3455 19.5706 12.1875 16.9226 12.1875Z" fill="black"/>
<path fill-rule="evenodd" clip-rule="evenodd" d="M18.5671 17.4027L17.799 16.9469C17.7079 16.8928 17.6521 16.7948 17.6521 16.6889V15.6367C17.6521 15.2227 17.3161 14.8867 16.9021 14.8867C16.4881 14.8867 16.1521 15.2227 16.1521 15.6367V17.2867C16.1521 17.5507 16.2921 17.7967 16.5191 17.9317L17.8011 18.6927C17.9211 18.7627 18.0531 18.7977 18.1831 18.7977C18.4391 18.7977 18.6891 18.6667 18.8291 18.4297C19.0411 18.0737 18.9231 17.6137 18.5671 17.4027Z" fill="black"/>
</svg>