<svg width="24" height="24" viewBox="0 0 24 24" fill="none" xmlns="http://www.w3.org/2000/svg">
<path fill-rule="evenodd" clip-rule="evenodd" d="M12 3.75C7.44365 3.75 3.75 7.44365 3.75 12C3.75 16.5563 7.44365 20.25 12 20.25C16.5563 20.25 20.25 16.5563 20.25 12C20.25 7.44365 16.5563 3.75 12 3.75ZM2.25 12C2.25 6.61522 6.61522 2.25 12 2.25C17.3848 2.25 21.75 6.61522 21.75 12C21.75 17.3848 17.3848 21.75 12 21.75C6.61522 21.75 2.25 17.3848 2.25 12Z" fill="black"/>
<path fill-rule="evenodd" clip-rule="evenodd" d="M6.25 14.9336C6.25 14.5194 6.58579 14.1836 7 14.1836H9C9.41421 14.1836 9.75 14.5194 9.75 14.9336C9.75 15.3478 9.41421 15.6836 9 15.6836H7C6.58579 15.6836 6.25 15.3478 6.25 14.9336Z" fill="black"/>
<path fill-rule="evenodd" clip-rule="evenodd" d="M6.25 8.93359C6.25 8.51938 6.58579 8.18359 7 8.18359H8C8.41421 8.18359 8.75 8.51938 8.75 8.93359V14.9336C8.75 15.3478 8.41421 15.6836 8 15.6836C7.58579 15.6836 7.25 15.3478 7.25 14.9336V9.68359H7C6.58579 9.68359 6.25 9.34781 6.25 8.93359Z" fill="black"/>
<path fill-rule="evenodd" clip-rule="evenodd" d="M14 9.68359C13.3096 9.68359 12.75 10.2432 12.75 10.9336C12.75 11.3478 12.4142 11.6836 12 11.6836C11.5858 11.6836 11.25 11.3478 11.25 10.9336C11.25 9.41481 12.4812 8.18359 14 8.18359C15.5188 8.18359 16.75 9.41481 16.75 10.9336V14.1836H17C17.4142 14.1836 17.75 14.5194 17.75 14.9336C17.75 15.3478 17.4142 15.6836 17 15.6836H16C15.5858 15.6836 15.25 15.3478 15.25 14.9336V10.9336C15.25 10.2432 14.6904 9.68359 14 9.68359Z" fill="black"/>
<path fill-rule="evenodd" clip-rule="evenodd" d="M7.25 10.9336C7.25 9.41481 8.48122 8.18359 10 8.18359C11.5188 8.18359 12.75 9.41481 12.75 10.9336V14.1836H13C13.4142 14.1836 13.75 14.5194 13.75 14.9336C13.75 15.3478 13.4142 15.6836 13 15.6836H12C11.5858 15.6836 11.25 15.3478 11.25 14.9336V10.9336C11.25 10.2432 10.6904 9.68359 10 9.68359C9.30964 9.68359 8.75 10.2432 8.75 10.9336V14.9336C8.75 15.3478 8.41421 15.6836 8 15.6836C7.58579 15.6836 7.25 15.3478 7.25 14.9336V10.9336Z" fill="black"/>
</svg>