<svg width="25" height="25" viewBox="0 0 25 25" fill="none" xmlns="http://www.w3.org/2000/svg">
<path d="M6.23658 5.95813C6.23658 5.09795 6.93389 4.40064 7.79407 4.40064C8.65425 4.40064 9.35156 5.09795 9.35156 5.95813C9.35156 6.81831 8.65425 7.51562 7.79407 7.51562C6.93389 7.51562 6.23658 6.81831 6.23658 5.95813Z" stroke="black" stroke-width="1.5" stroke-linecap="round"/>
<path d="M12.0049 16.7044C12.0049 14.4867 10.2071 12.6885 7.98905 12.6885C5.77097 12.6885 3.97314 14.4867 3.97314 16.7044C3.97314 18.9225 5.77097 20.7203 7.98905 20.7203C10.2071 20.7203 12.0049 18.9225 12.0049 16.7044Z" stroke="black" stroke-width="1.5" stroke-linecap="round" stroke-linejoin="round"/>
<path d="M7.85059 12.6899V16.3955C7.85059 16.642 8.05036 16.8417 8.2968 16.8417H12.0024" stroke="black" stroke-width="1.5" stroke-linecap="round" stroke-linejoin="round"/>
<path d="M13.4814 3.23584V10.3927C13.4814 10.8687 13.8673 11.2545 14.3432 11.2545H21.5001" stroke="black" stroke-width="1.5" stroke-linecap="round" stroke-linejoin="round"/>
<path d="M15.7207 8.01965L17.7487 5.51449L19.2833 7.41022L21.3332 4.93213" stroke="black" stroke-width="1.5" stroke-linecap="round" stroke-linejoin="round"/>
<path d="M15.2349 21.0017V19.0811" stroke="black" stroke-width="1.5" stroke-linecap="round"/>
<path d="M18.3677 21.0015L18.3677 14.7656" stroke="black" stroke-width="1.5" stroke-linecap="round"/>
<path d="M21.5 21.0017L21.5 17.335" stroke="black" stroke-width="1.5" stroke-linecap="round"/>
<path d="M3.5 7.70264V7.71159" stroke="black" stroke-width="1.5" stroke-linecap="round"/>
<path d="M5.92236 9.74512V9.75407" stroke="black" stroke-width="1.5" stroke-linecap="round"/>
</svg>