<svg width="25" height="24" viewBox="0 0 25 24" fill="none" xmlns="http://www.w3.org/2000/svg">
<path fill-rule="evenodd" clip-rule="evenodd" d="M15.0237 20.5313H9.9498C8.22185 20.5313 6.8208 19.1313 6.8208 17.4033V6.5958C6.8208 4.86784 8.22185 3.46777 9.9498 3.46777H15.0237C16.7517 3.46777 18.1517 4.86784 18.1517 6.5958V17.4033C18.1517 19.1313 16.7517 20.5313 15.0237 20.5313Z" stroke="black" stroke-width="1.5" stroke-linecap="round" stroke-linejoin="round"/>
<path d="M6.82376 17.5439H5.50233C4.12755 17.5439 3.5 16.423 3.5 15.0482V12.001" stroke="black" stroke-width="1.5" stroke-linecap="round" stroke-linejoin="round"/>
<path d="M3.5 8.95264C3.5 7.56814 4.12755 6.45703 5.50233 6.45703H6.82382" stroke="black" stroke-width="1.5" stroke-linecap="round" stroke-linejoin="round"/>
<path d="M18.1484 6.45801H19.4975C20.8722 6.45801 21.4998 7.56911 21.4998 8.95362V12.0009" stroke="black" stroke-width="1.5" stroke-linecap="round" stroke-linejoin="round"/>
<path d="M18.1484 17.5425H19.4974C20.8722 17.5425 21.4997 16.4217 21.4997 15.0469" stroke="black" stroke-width="1.5" stroke-linecap="round" stroke-linejoin="round"/>
</svg>