<svg width="25" height="24" viewBox="0 0 25 24" fill="none" xmlns="http://www.w3.org/2000/svg">
<path d="M18.852 18.4855H19.8383C21.3225 18.4855 22 17.2755 22 15.7913V8.21178C22 6.7171 21.3225 5.51758 19.8383 5.51758H18.8519C18.7326 5.51758 18.636 5.61425 18.636 5.73349L18.636 18.2696C18.636 18.3888 18.7327 18.4855 18.852 18.4855Z" fill="black"/>
<path d="M6.14805 18.4855H5.16166C3.67749 18.4855 3 17.2755 3 15.7913V8.21181C3 6.71713 3.67749 5.51761 5.16166 5.51761H6.14811C6.26736 5.51761 6.36403 5.61428 6.36403 5.73353L6.36396 18.2696C6.36396 18.3889 6.26729 18.4855 6.14805 18.4855Z" fill="black"/>
<path opacity="0.4" d="M9.78499 3.36914C8.51532 3.36914 7.48657 4.39772 7.48657 5.6665V18.334C7.48657 19.6028 8.51533 20.6314 9.78499 20.6314H15.2627C16.5319 20.6314 17.56 19.6032 17.56 18.334V5.6665C17.56 4.39728 16.5319 3.36914 15.2627 3.36914H9.78499Z" fill="black"/>
</svg>