<svg width="24" height="24" viewBox="0 0 24 24" fill="none" xmlns="http://www.w3.org/2000/svg">
<path fill-rule="evenodd" clip-rule="evenodd" d="M20.0399 16.1703C19.7599 16.6503 19.2499 16.9403 18.6899 16.9403C18.1499 16.9403 17.6599 16.6703 17.3799 16.2103H17.3699L13.0999 9.39031L14.2199 7.59031C14.4199 7.28031 14.7499 7.11031 15.1099 7.11031C15.4799 7.12031 15.7999 7.30031 15.9799 7.62031L20.0399 14.6203C20.3199 15.1003 20.3199 15.6803 20.0399 16.1703ZM21.3399 13.8703L17.2799 6.87031C16.8299 6.10031 16.0299 5.63031 15.1399 5.61031H15.0899C14.2199 5.61031 13.4199 6.05031 12.9499 6.80031L12.2099 7.98031L11.4499 6.76031C10.9799 6.00031 10.1499 5.57031 9.26987 5.57031C8.37987 5.58031 7.56987 6.05031 7.12987 6.83031L2.58987 14.6503C2.12987 15.4403 2.12987 16.3803 2.58987 17.1803C3.04987 17.9703 3.85987 18.4403 4.77987 18.4403H18.6899C18.7399 18.4403 18.7899 18.4403 18.8399 18.4303C19.8899 18.3903 20.8099 17.8303 21.3399 16.9203C21.8899 15.9603 21.8899 14.8203 21.3399 13.8703Z" fill="black"/>
</svg>