<svg width="24" height="24" viewBox="0 0 24 24" fill="none" xmlns="http://www.w3.org/2000/svg">
<path opacity="0.4" fill-rule="evenodd" clip-rule="evenodd" d="M17.0996 12.988C17.3318 12.8985 17.4495 12.6303 17.3385 12.4076L13.5893 4.88363C13.1683 4.03863 12.3223 3.51562 11.3793 3.51562H11.3683C10.4213 3.51963 9.57531 4.05062 9.16031 4.90262L3.29331 16.9286C2.83731 17.8636 3.00531 18.9546 3.72131 19.7096C4.43631 20.4646 5.51731 20.6916 6.47531 20.2836L10.7943 18.4546C11.1553 18.3026 11.5693 18.2996 11.9313 18.4496L12.8498 18.8311C13.0719 18.9234 13.3103 18.7471 13.3103 18.5066C13.3103 15.9895 14.8835 13.8424 17.0996 12.988Z" fill="black"/>
<path fill-rule="evenodd" clip-rule="evenodd" d="M19.4757 17.9129L20.7407 16.6479C21.0337 16.3549 21.0337 15.8799 20.7407 15.5869C20.4477 15.2939 19.9727 15.2939 19.6797 15.5869L18.4157 16.8519L17.1507 15.5869C16.8577 15.2939 16.3827 15.2939 16.0897 15.5869C15.7967 15.8799 15.7967 16.3549 16.0897 16.6479L17.3547 17.9129L16.0897 19.1779C15.7967 19.4709 15.7967 19.9459 16.0897 20.2389C16.2367 20.3849 16.4277 20.4579 16.6207 20.4579C16.8127 20.4579 17.0037 20.3849 17.1507 20.2389L18.4157 18.9739L19.6797 20.2389C19.8267 20.3849 20.0177 20.4579 20.2097 20.4579C20.4017 20.4579 20.5937 20.3849 20.7407 20.2389C21.0337 19.9459 21.0337 19.4709 20.7407 19.1779L19.4757 17.9129Z" fill="black"/>
</svg>