<svg width="24" height="24" viewBox="0 0 24 24" fill="none" xmlns="http://www.w3.org/2000/svg">
<path opacity="0.4" fill-rule="evenodd" clip-rule="evenodd" d="M12.8302 13.6794C12.8302 10.3844 15.6299 7.70098 18.8771 7.77037C19.0602 7.77428 19.2289 7.66378 19.287 7.49013L19.5702 6.64441C19.8602 5.77741 19.6362 4.83841 18.9872 4.19341C18.3372 3.54941 17.3952 3.33341 16.5322 3.63241L4.42118 7.80241C3.47018 8.12941 2.83918 8.98941 2.81218 9.99341C2.78518 10.9984 3.37018 11.8904 4.30118 12.2674L8.46618 13.9544C8.80718 14.0914 9.08418 14.3654 9.22418 14.7074L11.0102 19.0264C11.3842 19.9284 12.2412 20.4994 13.2112 20.4994C13.2402 20.4994 13.2682 20.4994 13.2982 20.4984C14.3254 20.4626 15.0543 19.8222 15.4386 18.9436C15.5119 18.776 15.4416 18.5852 15.2932 18.4782C13.8025 17.4041 12.8302 15.6569 12.8302 13.6794Z" fill="black"/>
<path fill-rule="evenodd" clip-rule="evenodd" d="M20.4389 12.4922H18.6849V10.7422C18.6849 10.3282 18.3489 9.99219 17.9349 9.99219C17.5209 9.99219 17.1849 10.3282 17.1849 10.7422V12.4922H15.4329C15.0189 12.4922 14.6829 12.8282 14.6829 13.2422C14.6829 13.6562 15.0189 13.9922 15.4329 13.9922H17.1849V15.7482C17.1849 16.1622 17.5209 16.4982 17.9349 16.4982C18.3489 16.4982 18.6849 16.1622 18.6849 15.7482V13.9922H20.4389C20.8529 13.9922 21.1889 13.6562 21.1889 13.2422C21.1889 12.8282 20.8529 12.4922 20.4389 12.4922Z" fill="black"/>
</svg>