<svg width="24" height="24" viewBox="0 0 24 24" fill="none" xmlns="http://www.w3.org/2000/svg">
<path fill-rule="evenodd" clip-rule="evenodd" d="M12.8842 14.0818C11.8292 13.1458 10.2382 13.1468 9.18318 14.0818L4.95118 17.8438C4.20218 18.5098 4.00618 19.5198 4.45018 20.4188C4.89418 21.3158 5.81918 21.7708 6.80018 21.5828L10.7172 20.8108L11.2552 20.8018L15.2682 21.5828C15.4162 21.6108 15.5632 21.6258 15.7082 21.6258C16.5192 21.6248 17.2412 21.1808 17.6182 20.4188C18.0622 19.5198 17.8652 18.5098 17.1162 17.8438L12.8842 14.0818Z" fill="black"/>
<path fill-rule="evenodd" clip-rule="evenodd" d="M19.7846 5.67942C19.7846 5.47042 19.6986 5.28242 19.5616 5.14642C19.5596 5.14542 19.5596 5.14242 19.5576 5.14142L16.9436 2.58842C16.6466 2.29942 16.1726 2.30442 15.8826 2.60042C15.5936 2.89742 15.5986 3.37142 15.8956 3.66042L17.1946 4.92942H15.6056C13.7646 4.92942 10.2846 6.04142 10.2846 10.2504C10.2846 10.6644 10.6206 11.0004 11.0346 11.0004C11.4486 11.0004 11.7846 10.6644 11.7846 10.2504C11.7846 6.56342 15.2166 6.43242 15.6056 6.42942H17.1906L15.8956 7.69542C15.5986 7.98442 15.5936 8.45842 15.8826 8.75542C16.0296 8.90642 16.2246 8.98142 16.4196 8.98142C16.6086 8.98142 16.7976 8.90942 16.9436 8.76742L19.5546 6.21742C19.6956 6.08042 19.7846 5.89142 19.7846 5.67942Z" fill="black"/>
</svg>