<svg width="25" height="24" viewBox="0 0 25 24" fill="none" xmlns="http://www.w3.org/2000/svg">
<path d="M16.0647 21.7561C15.9056 21.7561 15.7469 21.7407 15.5907 21.7101L11.6487 20.9431H11.1597L7.21871 21.7101C6.69984 21.8105 6.16239 21.7377 5.6889 21.5029C5.2154 21.2682 4.83204 20.8845 4.59774 20.4108C4.36344 19.9371 4.29116 19.3996 4.39196 18.8808C4.49276 18.362 4.76109 17.8907 5.15573 17.5392L9.38772 13.7781C9.9434 13.2844 10.6609 13.0117 11.4042 13.0117C12.1476 13.0117 12.865 13.2844 13.4207 13.7781L17.6527 17.5392C18.0172 17.8636 18.2747 18.2908 18.3915 18.7646C18.5082 19.2383 18.4787 19.7363 18.3068 20.1929C18.1348 20.6495 17.8285 21.0433 17.4283 21.3224C17.028 21.6014 16.5526 21.7527 16.0647 21.7561ZM11.0877 19.4431H11.7207C11.769 19.443 11.8172 19.4474 11.8647 19.4561L15.8767 20.2372C16.073 20.2754 16.2764 20.248 16.4556 20.1593C16.6348 20.0706 16.7798 19.9255 16.8685 19.7463C16.9571 19.5671 16.9844 19.3637 16.9462 19.1674C16.9079 18.9712 16.8062 18.793 16.6567 18.6602L12.4247 14.8991C12.1433 14.6496 11.7803 14.5118 11.4042 14.5118C11.0281 14.5118 10.6651 14.6496 10.3837 14.8991L6.15273 18.6602C6.00342 18.7929 5.90183 18.971 5.86358 19.1671C5.82534 19.3633 5.85254 19.5665 5.94103 19.7456C6.02952 19.9247 6.17437 20.0699 6.35336 20.1587C6.53234 20.2475 6.73555 20.2751 6.93173 20.2372L10.9437 19.4561C10.9912 19.4473 11.0394 19.443 11.0877 19.4431Z" fill="black"/>
<path d="M16.7875 8.8657C16.6383 8.86607 16.4924 8.8219 16.3685 8.73881C16.2445 8.65572 16.1483 8.5375 16.092 8.39933C16.0357 8.26117 16.0219 8.10936 16.0525 7.96333C16.083 7.8173 16.1565 7.68373 16.2635 7.57972L18.3285 5.56272L16.2635 3.54573C16.1892 3.47784 16.1294 3.39572 16.0875 3.30424C16.0457 3.21276 16.0226 3.11379 16.0198 3.01323C16.017 2.91266 16.0345 2.81257 16.0711 2.71888C16.1078 2.6252 16.1629 2.53984 16.2332 2.46791C16.3036 2.39597 16.3877 2.33892 16.4805 2.30015C16.5733 2.26138 16.673 2.24166 16.7736 2.2422C16.8742 2.24274 16.9737 2.26352 17.0661 2.30329C17.1585 2.34307 17.2419 2.40101 17.3115 2.4737L19.9255 5.02671C19.9969 5.09648 20.0538 5.17984 20.0925 5.27189C20.1313 5.36394 20.1513 5.46284 20.1513 5.56272C20.1513 5.66261 20.1313 5.76148 20.0925 5.85353C20.0538 5.94558 19.9969 6.02893 19.9255 6.0987L17.3115 8.65272C17.1713 8.78948 16.9833 8.86592 16.7875 8.8657Z" fill="black"/>
<path d="M11.4021 10.8833C11.2032 10.8833 11.0124 10.8043 10.8718 10.6636C10.7311 10.5229 10.6521 10.3322 10.6521 10.1333C10.6254 9.42734 10.7448 8.72352 11.0028 8.06588C11.2608 7.40824 11.6518 6.81094 12.1513 6.31143C12.6508 5.81191 13.2481 5.42093 13.9057 5.16296C14.5634 4.90499 15.2672 4.78559 15.9731 4.81225H19.4021C19.601 4.81225 19.7918 4.89126 19.9324 5.03192C20.0731 5.17257 20.1521 5.36334 20.1521 5.56225C20.1521 5.76116 20.0731 5.95193 19.9324 6.09258C19.7918 6.23324 19.601 6.31225 19.4021 6.31225H15.9731C15.4657 6.29105 14.9593 6.37541 14.4862 6.55993C14.013 6.74445 13.5832 7.02514 13.2241 7.38427C12.865 7.7434 12.5843 8.17315 12.3998 8.64633C12.2153 9.1195 12.1309 9.62582 12.1521 10.1333C12.1521 10.3322 12.0731 10.5229 11.9324 10.6636C11.7918 10.8043 11.601 10.8833 11.4021 10.8833Z" fill="black"/>
</svg>