<svg width="25" height="24" viewBox="0 0 25 24" fill="none" xmlns="http://www.w3.org/2000/svg">
<path d="M12.25 21.75C10.3217 21.75 8.43659 21.1782 6.83321 20.1068C5.22983 19.0355 3.98016 17.5127 3.24221 15.7312C2.50425 13.9496 2.31113 11.9892 2.68734 10.0979C3.06354 8.20655 3.99217 6.46927 5.35573 5.10571C6.7193 3.74215 8.45655 2.81355 10.3479 2.43735C12.2392 2.06114 14.1996 2.25423 15.9812 2.99219C17.7627 3.73014 19.2855 4.97981 20.3568 6.58319C21.4282 8.18657 22 10.0716 22 12C21.9971 14.585 20.9689 17.0632 19.1411 18.8911C17.3132 20.7189 14.835 21.7471 12.25 21.75ZM12.25 3.75C10.6183 3.75 9.02329 4.23386 7.66659 5.14038C6.30988 6.0469 5.25243 7.33537 4.62801 8.84286C4.00359 10.3504 3.8402 12.0092 4.15853 13.6095C4.47686 15.2098 5.26262 16.6798 6.4164 17.8336C7.57019 18.9874 9.04018 19.7732 10.6405 20.0915C12.2409 20.4098 13.8997 20.2464 15.4072 19.622C16.9147 18.9976 18.2031 17.9402 19.1096 16.5835C20.0162 15.2268 20.5 13.6317 20.5 12C20.4976 9.81269 19.6277 7.71566 18.081 6.169C16.5344 4.62235 14.4373 3.75238 12.25 3.75Z" fill="black"/>
<path d="M14.9733 15.872C14.788 15.8715 14.6045 15.8348 14.4333 15.764L12.1733 14.825L10.0733 15.749C9.811 15.8602 9.52102 15.8887 9.24207 15.8307C8.96313 15.7727 8.7085 15.631 8.51222 15.4245C8.31593 15.218 8.18732 14.9566 8.14356 14.675C8.0998 14.3935 8.143 14.1053 8.26734 13.849L10.9593 8.32997C11.0731 8.09433 11.2511 7.89555 11.4727 7.75636C11.6943 7.61717 11.9506 7.54322 12.2123 7.54298H12.2183C12.4794 7.54202 12.7355 7.61443 12.9574 7.75199C13.1793 7.88955 13.3581 8.08671 13.4733 8.32096L16.2283 13.848C16.3354 14.0613 16.3861 14.2985 16.3757 14.537C16.3653 14.7755 16.2941 15.0073 16.1689 15.2106C16.0436 15.4138 15.8685 15.5816 15.6601 15.698C15.4517 15.8145 15.2171 15.8757 14.9783 15.876L14.9733 15.872ZM12.2123 13.334C12.3963 13.3335 12.5786 13.3699 12.7483 13.441L14.7633 14.276L12.2143 9.16297L9.72529 14.263L11.6633 13.441C11.8375 13.3694 12.024 13.3331 12.2123 13.334Z" fill="black"/>
</svg>