<svg width="25" height="24" viewBox="0 0 25 24" fill="none" xmlns="http://www.w3.org/2000/svg">
<path d="M19.3201 18.4677C18.7681 18.4677 18.3201 18.0197 18.3201 17.4677V6.53271C18.3201 5.98071 18.7681 5.53271 19.3201 5.53271C19.8721 5.53271 20.3201 5.98071 20.3201 6.53271V17.4677C20.3201 18.0197 19.8721 18.4677 19.3201 18.4677Z" fill="black"/>
<path opacity="0.4" d="M6.48269 18.2258C6.92269 18.4778 7.42269 18.6038 7.94169 18.6038C8.39569 18.6038 8.8647 18.5068 9.32069 18.3138C11.5327 17.3978 13.4997 16.1518 15.1647 14.6118C15.9597 13.8848 16.3997 12.9628 16.4027 12.0168C16.4067 11.0658 15.9677 10.1338 15.1667 9.39078L15.1647 9.38778C13.4547 7.82678 11.4327 6.54578 9.31469 5.68478C8.2667 5.26778 7.24469 5.30378 6.43269 5.78378C5.65369 6.24478 5.15469 7.06678 5.02569 8.10878C4.75069 10.8118 4.75169 13.4348 5.02769 15.9138C5.16169 16.9438 5.67869 17.7658 6.48269 18.2258Z" fill="black"/>
</svg>