<svg width="25" height="24" viewBox="0 0 25 24" fill="none" xmlns="http://www.w3.org/2000/svg">
<path fill-rule="evenodd" clip-rule="evenodd" d="M5.25911 4.84053C8.0846 3.67978 13.7872 2.08411 19.7651 4.73642C20.9521 5.26377 21.6711 6.50333 21.4649 7.7857C20.99 10.7357 19.4099 16.2398 14.1433 20.1696C13.1684 20.8974 11.8189 20.877 10.8362 20.1599C8.42125 18.3998 4.21803 14.4213 3.51458 7.69521C3.38614 6.46733 4.11782 5.3095 5.25911 4.84053Z" stroke="black" stroke-width="1.5"/>
<path opacity="0.4" d="M3.70312 9.02539C5.43695 16.2224 12.5396 11.0209 12.5396 11.0209" stroke="black" stroke-width="1.5" stroke-linecap="round" stroke-linejoin="round"/>
<path opacity="0.4" d="M12.5394 11.0205C12.2018 2.97021 16.7533 3.7301 16.7533 3.7301" stroke="black" stroke-width="1.5" stroke-linecap="round" stroke-linejoin="round"/>
<path opacity="0.4" d="M15.7002 18.8675C15.7002 18.8675 19.8334 14.817 12.54 11.0195" stroke="black" stroke-width="1.5" stroke-linecap="round" stroke-linejoin="round"/>
</svg>