<svg width="25" height="24" viewBox="0 0 25 24" fill="none" xmlns="http://www.w3.org/2000/svg">
<path opacity="0.4" fill-rule="evenodd" clip-rule="evenodd" d="M18.5247 5.15713L13.3877 2.82713C13.2977 2.78613 13.1947 2.78713 13.1057 2.82813L5.25266 6.49513C5.13366 6.55013 5.05766 6.67013 5.05666 6.80113L5.05566 17.6941C5.05566 17.8221 5.12766 17.9391 5.24166 17.9961L10.7707 20.7611C10.9957 20.8731 11.2607 20.7091 11.2607 20.4591L11.2617 13.5171C11.2617 13.5151 11.2617 13.5141 11.2617 13.5141L11.2627 9.54713C11.2627 9.50813 11.2767 9.47313 11.2847 9.43713C11.2897 9.41313 11.2907 9.38913 11.2987 9.36613C11.3547 9.20813 11.4787 9.08713 11.6387 9.03313L18.5297 5.77013C18.7897 5.64713 18.7867 5.27613 18.5247 5.15713Z" fill="black"/>
<path fill-rule="evenodd" clip-rule="evenodd" d="M19.4619 6.54266L12.5519 9.81466C12.4339 9.87066 12.3589 9.98966 12.3579 10.1207V13.0017C12.3579 13.1297 12.4309 13.2477 12.5449 13.3047L19.4559 16.7507C19.6809 16.8627 19.9449 16.6987 19.9449 16.4487V6.84866C19.9449 6.59966 19.6859 6.43666 19.4619 6.54266Z" fill="black"/>
</svg>