<svg width="25" height="24" viewBox="0 0 25 24" fill="none" xmlns="http://www.w3.org/2000/svg">
<path fill-rule="evenodd" clip-rule="evenodd" d="M4.96101 5.97266C5.37523 5.97273 5.71096 6.30857 5.71088 6.72279L5.70906 17.2055L10.8688 19.7858L10.8705 9.74442C10.8706 9.3302 11.2064 8.99447 11.6206 8.99454C12.0349 8.99461 12.3706 9.33046 12.3705 9.74467L12.3686 20.9994C12.3686 21.2593 12.234 21.5007 12.0128 21.6373C11.7917 21.774 11.5156 21.7863 11.2832 21.6701L4.62354 18.3398C4.36943 18.2127 4.20894 17.953 4.20898 17.6689L4.21088 6.72253C4.21096 6.30831 4.5468 5.97258 4.96101 5.97266Z" fill="black"/>
<path fill-rule="evenodd" clip-rule="evenodd" d="M12.6108 2.32054C12.8095 2.22769 13.0389 2.22645 13.2385 2.31715L19.8505 5.32055C20.1165 5.44137 20.2881 5.70564 20.2903 5.99777C20.2925 6.2899 20.1248 6.55672 19.8607 6.68152L11.9411 10.4234C11.5666 10.6003 11.1196 10.4402 10.9426 10.0656C10.7657 9.69113 10.9258 9.24408 11.3003 9.06713L17.7563 6.0168L12.9328 3.82577L5.27865 7.40282C4.9034 7.57819 4.45702 7.41615 4.28165 7.0409C4.10628 6.66564 4.26832 6.21927 4.64358 6.0439L12.6108 2.32054Z" fill="black"/>
<path fill-rule="evenodd" clip-rule="evenodd" d="M19.5408 5.33594C19.955 5.33594 20.2908 5.67172 20.2908 6.08594V17.3446C20.2908 17.6044 20.1563 17.8458 19.9352 17.9825C19.7142 18.1191 19.4382 18.1316 19.2057 18.0155L11.2842 14.0586C10.9136 13.8735 10.7633 13.4231 10.9484 13.0525C11.1334 12.682 11.5839 12.5316 11.9545 12.7167L18.7908 16.1316V6.08594C18.7908 5.67172 19.1266 5.33594 19.5408 5.33594Z" fill="black"/>
</svg>