<svg width="25" height="24" viewBox="0 0 25 24" fill="none" xmlns="http://www.w3.org/2000/svg">
<path d="M3.11426 12C3.11426 16.9706 7.14369 21 12.1143 21C17.0848 21 21.1143 16.9706 21.1143 12C21.1143 7.02944 17.0848 3 12.1143 3C7.14369 3 3.11426 7.02944 3.11426 12Z" stroke="black" stroke-width="1.5" stroke-linecap="round"/>
<path d="M12.9111 14.2183C15.8949 14.062 18.7102 12.873 20.8941 10.9185" stroke="black" stroke-width="1.5" stroke-linecap="round"/>
<path d="M8.38184 17.3157C12.7097 18.4754 17.1039 17.5837 20.5322 15.2368" stroke="black" stroke-width="1.5" stroke-linecap="round"/>
<path d="M19.4407 6.89244C17.0195 9.14837 13.5254 10.1441 10.0932 9.22451C8.18087 8.7121 6.5492 7.6751 5.31152 6.30981" stroke="black" stroke-width="1.5" stroke-linecap="round"/>
<path d="M10.2651 5.93181C12.7309 6.59252 15.2389 5.94959 17.0573 4.4255" stroke="black" stroke-width="1.5" stroke-linecap="round"/>
<path d="M3.29297 10.6692C4.81197 12.1136 6.70337 13.2099 8.87056 13.7906" stroke="black" stroke-width="1.5" stroke-linecap="round"/>
</svg>