<svg width="24" height="24" viewBox="0 0 24 24" fill="none" xmlns="http://www.w3.org/2000/svg">
<path opacity="0.4" d="M9.6294 13.1296L9.62939 19.1094C9.62939 19.6003 9.23143 19.9983 8.74051 19.9983L5.77753 19.9983C5.28661 19.9983 4.88864 19.6003 4.88864 19.1094L4.88864 7.1445" stroke="black" stroke-width="1.5" stroke-linecap="round" stroke-linejoin="round"/>
<path d="M14.4001 19.6368L4.88867 6.66667V4.88889C4.88867 4.39797 5.28664 4 5.77756 4H8.88267C9.16582 4 9.43203 4.1349 9.59947 4.36324L19.1109 17.3333V19.1111C19.1109 19.602 18.7129 20 18.222 20H15.1169C14.8337 20 14.5675 19.8651 14.4001 19.6368Z" stroke="black" stroke-width="1.5" stroke-linecap="round" stroke-linejoin="round"/>
<path opacity="0.4" d="M14.3701 10.8687V4.88889C14.3701 4.39797 14.7681 4 15.259 4H18.222C18.7129 4 19.1109 4.39797 19.1109 4.88889V16.8538" stroke="black" stroke-width="1.5" stroke-linecap="round" stroke-linejoin="round"/>
</svg>