<svg width="24" height="24" viewBox="0 0 24 24" fill="none" xmlns="http://www.w3.org/2000/svg">
<path fill-rule="evenodd" clip-rule="evenodd" d="M12 3.75C7.44337 3.75 3.75 7.44337 3.75 12C3.75 16.5566 7.44337 20.25 12 20.25C16.5566 20.25 20.25 16.5566 20.25 12C20.25 7.44337 16.5566 3.75 12 3.75ZM2.25 12C2.25 6.61494 6.61494 2.25 12 2.25C17.3851 2.25 21.75 6.61494 21.75 12C21.75 17.3851 17.3851 21.75 12 21.75C6.61494 21.75 2.25 17.3851 2.25 12Z" fill="black"/>
<path fill-rule="evenodd" clip-rule="evenodd" d="M6.75 8.4C6.75 7.48873 7.48873 6.75 8.4 6.75H9.88824C9.88823 6.75 9.88824 6.75 9.88824 6.75C10.3808 6.75 10.8476 6.97004 11.161 7.34997C11.161 7.34997 11.161 7.34997 11.161 7.34997L17.0785 14.5227C17.3421 14.8422 17.2968 15.3149 16.9773 15.5785C16.6578 15.8421 16.1851 15.7968 15.9215 15.4773L10.004 8.30454C9.97547 8.27 9.93304 8.25 9.88826 8.25H8.4C8.31716 8.25 8.25 8.31716 8.25 8.4V15.6C8.25 15.6828 8.31716 15.75 8.4 15.75H9.6C9.68284 15.75 9.75 15.6828 9.75 15.6V12.6364C9.75 12.2222 10.0858 11.8864 10.5 11.8864C10.9142 11.8864 11.25 12.2222 11.25 12.6364V15.6C11.25 16.5113 10.5113 17.25 9.6 17.25H8.4C7.48873 17.25 6.75 16.5113 6.75 15.6V8.4Z" fill="black"/>
<path fill-rule="evenodd" clip-rule="evenodd" d="M12.75 8.4C12.75 7.48873 13.4887 6.75 14.4 6.75H15.6C16.5113 6.75 17.25 7.48873 17.25 8.4V15.6C17.25 16.5113 16.5113 17.25 15.6 17.25H14.1118C14.1118 17.25 14.1118 17.25 14.1118 17.25C13.6192 17.25 13.1524 17.03 12.839 16.65L6.92149 9.47729C6.65789 9.15778 6.70322 8.68507 7.02273 8.42147C7.34225 8.15787 7.81495 8.2032 8.07855 8.52272L13.9961 15.6955C14.0245 15.73 14.067 15.75 14.1118 15.75H15.6C15.6829 15.75 15.75 15.6828 15.75 15.6V8.4C15.75 8.31716 15.6829 8.25 15.6 8.25H14.4C14.3172 8.25 14.25 8.31716 14.25 8.4V11.3618C14.25 11.776 13.9142 12.1118 13.5 12.1118C13.0858 12.1118 12.75 11.776 12.75 11.3618V8.4Z" fill="black"/>
</svg>