<svg width="25" height="24" viewBox="0 0 25 24" fill="none" xmlns="http://www.w3.org/2000/svg">
<path opacity="0.4" fill-rule="evenodd" clip-rule="evenodd" d="M12.5 2.5C7.262 2.5 3 6.762 3 12C3 17.239 7.262 21.5 12.5 21.5C17.739 21.5 22 17.239 22 12C22 6.762 17.739 2.5 12.5 2.5Z" fill="black"/>
<path fill-rule="evenodd" clip-rule="evenodd" d="M15.725 10.2C15.188 10.2 14.75 9.763 14.75 9.225C14.748 8.97 14.849 8.724 15.033 8.538C15.217 8.352 15.462 8.25 15.724 8.25C16.262 8.25 16.701 8.687 16.701 9.225C16.701 9.763 16.263 10.2 15.725 10.2Z" fill="black"/>
<path fill-rule="evenodd" clip-rule="evenodd" d="M15.3801 15.612H9.62109C9.20609 15.612 8.87109 15.276 8.87109 14.862C8.87109 14.448 9.20609 14.112 9.62109 14.112H15.3801C15.7941 14.112 16.1301 14.448 16.1301 14.862C16.1301 15.276 15.7941 15.612 15.3801 15.612Z" fill="black"/>
<path fill-rule="evenodd" clip-rule="evenodd" d="M8.25003 9.225C8.24803 8.97 8.34903 8.724 8.53303 8.538C8.71703 8.352 8.96203 8.25 9.22403 8.25C9.76203 8.25 10.201 8.687 10.201 9.225C10.201 9.763 9.76303 10.2 9.22503 10.2C8.68803 10.2 8.25003 9.763 8.25003 9.225Z" fill="black"/>
</svg>