<svg width="25" height="24" viewBox="0 0 25 24" fill="none" xmlns="http://www.w3.org/2000/svg">
<path d="M12.25 21.75C10.3216 21.75 8.43658 21.1782 6.8332 20.1068C5.22982 19.0355 3.98013 17.5128 3.24218 15.7312C2.50423 13.9496 2.31114 11.9892 2.68735 10.0979C3.06355 8.20656 3.99215 6.46927 5.35571 5.10571C6.71927 3.74215 8.45656 2.81355 10.3479 2.43735C12.2392 2.06114 14.1996 2.25423 15.9812 2.99218C17.7628 3.73013 19.2855 4.97982 20.3568 6.5832C21.4282 8.18658 22 10.0716 22 12C21.9971 14.585 20.9689 17.0632 19.1411 18.8911C17.3132 20.7189 14.835 21.7471 12.25 21.75ZM12.25 3.75001C10.6183 3.75001 9.02326 4.23386 7.66655 5.14038C6.30984 6.0469 5.25242 7.33538 4.628 8.84287C4.00358 10.3504 3.8402 12.0092 4.15853 13.6095C4.47686 15.2098 5.26259 16.6799 6.41637 17.8336C7.57016 18.9874 9.04017 19.7732 10.6405 20.0915C12.2409 20.4098 13.8997 20.2464 15.4071 19.622C16.9146 18.9976 18.2031 17.9402 19.1096 16.5835C20.0162 15.2268 20.5 13.6317 20.5 12C20.4976 9.8127 19.6277 7.71567 18.081 6.16901C16.5343 4.62235 14.4373 3.75239 12.25 3.75001Z" fill="black"/>
<path d="M8.975 13.0008C8.71658 13.0003 8.46889 12.8974 8.28616 12.7146C8.10342 12.5319 8.00053 12.2842 8 12.0258C7.99974 11.8978 8.02475 11.7709 8.07359 11.6526C8.12243 11.5342 8.19415 11.4267 8.28463 11.3361C8.37512 11.2455 8.48258 11.1737 8.60088 11.1247C8.71917 11.0758 8.84597 11.0506 8.974 11.0508C9.23259 11.0508 9.48058 11.1535 9.66343 11.3363C9.84628 11.5192 9.949 11.7672 9.949 12.0258C9.949 12.2844 9.84628 12.5324 9.66343 12.7152C9.48058 12.8981 9.23259 13.0008 8.974 13.0008H8.975Z" fill="black"/>
<path d="M15.475 13.0008C15.2166 13.0003 14.9689 12.8974 14.7862 12.7146C14.6034 12.5319 14.5005 12.2842 14.5 12.0258C14.4997 11.8978 14.5247 11.7709 14.5736 11.6526C14.6224 11.5342 14.6941 11.4267 14.7846 11.3361C14.8751 11.2455 14.9826 11.1737 15.1009 11.1247C15.2192 11.0758 15.346 11.0506 15.474 11.0508C15.7326 11.0508 15.9806 11.1535 16.1634 11.3363C16.3463 11.5192 16.449 11.7672 16.449 12.0258C16.449 12.2844 16.3463 12.5324 16.1634 12.7152C15.9806 12.8981 15.7326 13.0008 15.474 13.0008H15.475Z" fill="black"/>
<path d="M14.0215 17.7383H10.4785C10.2796 17.7383 10.0888 17.6593 9.94819 17.5186C9.80754 17.378 9.72852 17.1872 9.72852 16.9883C9.72852 16.7894 9.80754 16.5986 9.94819 16.458C10.0888 16.3173 10.2796 16.2383 10.4785 16.2383H14.0215C14.2204 16.2383 14.4112 16.3173 14.5518 16.458C14.6925 16.5986 14.7715 16.7894 14.7715 16.9883C14.7715 17.1872 14.6925 17.378 14.5518 17.5186C14.4112 17.6593 14.2204 17.7383 14.0215 17.7383Z" fill="black"/>
</svg>