<svg width="25" height="24" viewBox="0 0 25 24" fill="none" xmlns="http://www.w3.org/2000/svg">
<path opacity="0.4" d="M12.5 21C17.4709 21 21.5 16.9699 21.5 12C21.5 7.02908 17.4709 3 12.5 3C7.52908 3 3.5 7.02908 3.5 12C3.5 16.9699 7.52908 21 12.5 21Z" stroke="black" stroke-width="1.5" stroke-linecap="round" stroke-linejoin="round"/>
<path d="M9.26953 12.0053V11.9538M9.22401 11.8008C9.10001 11.8008 8.99901 11.9018 9.00001 12.0258C9.00001 12.1498 9.10101 12.2508 9.22501 12.2508C9.34901 12.2508 9.45001 12.1498 9.45001 12.0258C9.45001 11.9008 9.34901 11.8008 9.22401 11.8008Z" stroke="black" stroke-width="1.5" stroke-linecap="round" stroke-linejoin="round"/>
<path d="M15.7307 12.0053V11.9538M15.724 11.8008C15.6 11.8008 15.499 11.9018 15.5 12.0258C15.5 12.1498 15.601 12.2508 15.725 12.2508C15.849 12.2508 15.95 12.1498 15.95 12.0258C15.95 11.9008 15.849 11.8008 15.724 11.8008Z" stroke="black" stroke-width="1.5" stroke-linecap="round" stroke-linejoin="round"/>
<path d="M10.7285 16.9883H14.2721" stroke="black" stroke-width="1.5" stroke-linecap="round" stroke-linejoin="round"/>
</svg>