<svg width="24" height="24" viewBox="0 0 24 24" fill="none" xmlns="http://www.w3.org/2000/svg">
<path d="M12 21C16.9709 21 21 16.9699 21 12C21 7.02908 16.9709 3 12 3C7.02908 3 3 7.02908 3 12C3 16.9699 7.02908 21 12 21Z" stroke="black" stroke-width="1.5" stroke-linecap="round" stroke-linejoin="round"/>
<path d="M8.76953 9.20455V9.15298M8.72401 9C8.60001 9 8.49901 9.101 8.50001 9.225C8.50001 9.349 8.60101 9.45 8.72501 9.45C8.84901 9.45 8.95001 9.349 8.95001 9.225C8.95001 9.1 8.84901 9 8.72401 9Z" stroke="black" stroke-width="1.5" stroke-linecap="round" stroke-linejoin="round"/>
<path d="M15.2307 9.20455V9.15298M15.224 9C15.1 9 14.999 9.101 15 9.225C15 9.349 15.101 9.45 15.225 9.45C15.349 9.45 15.45 9.349 15.45 9.225C15.45 9.1 15.349 9 15.224 9Z" stroke="black" stroke-width="1.5" stroke-linecap="round" stroke-linejoin="round"/>
<path d="M14.8801 14.8633H9.12012" stroke="black" stroke-width="1.5" stroke-linecap="round" stroke-linejoin="round"/>
</svg>