<svg width="25" height="24" viewBox="0 0 25 24" fill="none" xmlns="http://www.w3.org/2000/svg">
<path fill-rule="evenodd" clip-rule="evenodd" d="M12.25 3.75C7.69329 3.75 4 7.44329 4 12C4 16.5558 7.69335 20.25 12.25 20.25C16.8067 20.25 20.5 16.5558 20.5 12C20.5 7.44329 16.8067 3.75 12.25 3.75ZM2.5 12C2.5 6.61487 6.86487 2.25 12.25 2.25C17.6351 2.25 22 6.61487 22 12C22 17.3841 17.6352 21.75 12.25 21.75C6.86481 21.75 2.5 17.3841 2.5 12Z" fill="black"/>
<path fill-rule="evenodd" clip-rule="evenodd" d="M8.62012 14.8633C8.62012 14.4491 8.9559 14.1133 9.37012 14.1133H15.1301C15.5443 14.1133 15.8801 14.4491 15.8801 14.8633C15.8801 15.2775 15.5443 15.6133 15.1301 15.6133H9.37012C8.9559 15.6133 8.62012 15.2775 8.62012 14.8633Z" fill="black"/>
<path d="M9.16251 11.0008C8.904 11.0005 8.65617 10.8977 8.47338 10.7149C8.29058 10.5321 8.18777 10.2843 8.1875 10.0258C8.18724 9.89775 8.21225 9.77093 8.2611 9.65259C8.30994 9.53424 8.38166 9.4267 8.47214 9.33612C8.56262 9.24554 8.6701 9.17371 8.78839 9.12475C8.90669 9.07579 9.03347 9.05065 9.1615 9.05078C9.28954 9.05078 9.41633 9.076 9.53462 9.125C9.65292 9.174 9.7604 9.24582 9.85094 9.33635C9.94148 9.42689 10.0133 9.53437 10.0623 9.65267C10.1113 9.77096 10.1365 9.89774 10.1365 10.0258C10.1365 10.1538 10.1113 10.2806 10.0623 10.3989C10.0133 10.5172 9.94148 10.6247 9.85094 10.7152C9.7604 10.8057 9.65292 10.8776 9.53462 10.9266C9.41633 10.9756 9.28954 11.0008 9.1615 11.0008H9.16251Z" fill="black"/>
<path d="M15.6625 11.0008C15.404 11.0005 15.1562 10.8977 14.9734 10.7149C14.7906 10.5321 14.6878 10.2843 14.6875 10.0258C14.6872 9.89775 14.7123 9.77093 14.7611 9.65259C14.8099 9.53424 14.8817 9.4267 14.9721 9.33612C15.0626 9.24554 15.1701 9.17371 15.2884 9.12475C15.4067 9.07579 15.5335 9.05065 15.6615 9.05078C15.7895 9.05078 15.9163 9.076 16.0346 9.125C16.1529 9.174 16.2604 9.24582 16.3509 9.33635C16.4415 9.42689 16.5133 9.53437 16.5623 9.65267C16.6113 9.77096 16.6365 9.89774 16.6365 10.0258C16.6365 10.1538 16.6113 10.2806 16.5623 10.3989C16.5133 10.5172 16.4415 10.6247 16.3509 10.7152C16.2604 10.8057 16.1529 10.8776 16.0346 10.9266C15.9163 10.9756 15.7895 11.0008 15.6615 11.0008H15.6625Z" fill="black"/>
</svg>