<svg width="25" height="24" viewBox="0 0 25 24" fill="none" xmlns="http://www.w3.org/2000/svg">
<path d="M18.3386 9.1179C18.5858 11.4938 19.8759 11.5843 19.8759 13.9583C19.657 16.596 17.3929 17.2411 12.5 17.2411C7.60699 17.2411 5.34294 16.5863 5.125 13.9583C5.125 11.3343 6.70312 11.5016 6.70312 8.28019C6.70312 6.04144 8.51184 3.52928 11.3801 3" stroke="black" stroke-width="1.5" stroke-linecap="round" stroke-linejoin="round"/>
<path opacity="0.4" d="M10.4219 19.9678C10.9288 20.6012 11.6887 21.0001 12.5303 21.0001C13.3806 21.0001 14.1415 20.6012 14.6484 19.9678" stroke="black" stroke-width="1.5" stroke-linecap="round" stroke-linejoin="round"/>
<path opacity="0.4" fill-rule="evenodd" clip-rule="evenodd" d="M16.1596 3.0957C17.1199 3.0957 17.8992 3.87406 17.8992 4.83534C17.8992 5.79564 17.1199 6.57497 16.1596 6.57497C15.1993 6.57497 14.4199 5.79564 14.4199 4.83534C14.4199 3.87406 15.1993 3.0957 16.1596 3.0957Z" stroke="black" stroke-width="1.5" stroke-linecap="round" stroke-linejoin="round"/>
</svg>