<svg width="24" height="24" viewBox="0 0 24 24" fill="none" xmlns="http://www.w3.org/2000/svg">
<path fill-rule="evenodd" clip-rule="evenodd" d="M13.0945 5.28825C13.0945 4.38325 13.3115 3.52925 13.6875 2.76825H7.58653C4.46853 2.76825 2.37354 4.96025 2.37354 8.22225V16.0672C2.37354 19.3293 4.46853 21.5212 7.58653 21.5212H15.9105C19.0305 21.5212 21.1265 19.3293 21.1265 16.0672V10.5192C20.4195 10.8332 19.6385 11.0102 18.8165 11.0102C15.6615 11.0102 13.0945 8.44325 13.0945 5.28825Z" fill="black"/>
<path fill-rule="evenodd" clip-rule="evenodd" d="M18.7704 8.19052C20.3454 8.19052 21.6264 6.90952 21.6264 5.33452C21.6264 3.75952 20.3454 2.47852 18.7704 2.47852C17.1954 2.47852 15.9144 3.75952 15.9144 5.33452C15.9144 6.90952 17.1954 8.19052 18.7704 8.19052Z" fill="black"/>
</svg>