<svg width="24" height="24" viewBox="0 0 24 24" fill="none" xmlns="http://www.w3.org/2000/svg">
<path opacity="0.4" fill-rule="evenodd" clip-rule="evenodd" d="M18.4691 11.0892C18.1401 11.0892 17.8121 11.0082 17.5131 10.8462C17.1451 10.6452 13.8831 8.8052 12.9871 6.0182L12.9861 6.0152C12.6251 4.8882 12.6941 3.7592 13.0751 2.7832H7.49806C4.38006 2.7832 2.28406 4.9752 2.28406 8.2372V16.0822C2.28406 19.3442 4.38006 21.5362 7.49806 21.5362H15.8221C18.9411 21.5362 21.0371 19.3442 21.0371 16.0822V9.7672C20.2531 10.3782 19.5861 10.7572 19.4311 10.8432C19.1311 11.0072 18.8001 11.0892 18.4691 11.0892Z" fill="black"/>
<path fill-rule="evenodd" clip-rule="evenodd" d="M20.1848 2.56647C19.6138 2.38747 18.9948 2.44647 18.4688 2.71947C17.9428 2.44247 17.3198 2.38647 16.7448 2.56747C15.5438 2.95447 14.9318 4.28647 15.3508 5.60047L15.3518 5.60147C15.9068 7.32547 18.1348 8.55447 18.2298 8.60647C18.3048 8.64647 18.3868 8.66647 18.4688 8.66647C18.5518 8.66647 18.6348 8.64647 18.7088 8.60547C18.8048 8.55247 21.0478 7.30547 21.5838 5.60047C22.0038 4.28747 21.3918 2.95547 20.1848 2.56647Z" fill="black"/>
<path fill-rule="evenodd" clip-rule="evenodd" d="M11.6013 15.6582H7.85034C7.43634 15.6582 7.10034 15.3222 7.10034 14.9082C7.10034 14.4942 7.43634 14.1582 7.85034 14.1582H11.6013C12.0153 14.1582 12.3513 14.4942 12.3513 14.9082C12.3513 15.3222 12.0153 15.6582 11.6013 15.6582Z" fill="black"/>
</svg>