<svg width="24" height="24" viewBox="0 0 24 24" fill="none" xmlns="http://www.w3.org/2000/svg">
<path fill-rule="evenodd" clip-rule="evenodd" d="M11.6014 15.6572H7.85042C7.43642 15.6572 7.10042 15.3212 7.10042 14.9072C7.10042 14.4932 7.43642 14.1572 7.85042 14.1572H11.6014C12.0154 14.1572 12.3514 14.4932 12.3514 14.9072C12.3514 15.3212 12.0154 15.6572 11.6014 15.6572ZM18.4684 11.0892C18.1394 11.0892 17.8104 11.0082 17.5124 10.8452C17.1444 10.6452 13.8834 8.8042 12.9874 6.0192C12.9864 6.0182 12.9864 6.0162 12.9854 6.0152C12.6254 4.8882 12.6934 3.7592 13.0744 2.7832H7.49742C4.37942 2.7832 2.28442 4.9752 2.28442 8.2372V16.0822C2.28442 19.3442 4.37942 21.5362 7.49742 21.5362H15.8214C18.9404 21.5362 21.0374 19.3442 21.0374 16.0822V9.7672C20.2524 10.3782 19.5854 10.7572 19.4304 10.8432C19.1304 11.0072 18.7994 11.0892 18.4684 11.0892Z" fill="black"/>
<path fill-rule="evenodd" clip-rule="evenodd" d="M20.1855 2.56539C19.6125 2.38539 18.9945 2.44439 18.4695 2.71839C17.9425 2.44139 17.3195 2.38339 16.7445 2.56639C15.5425 2.95439 14.9315 4.28639 15.3515 5.59939C15.3515 5.60039 15.3525 5.60039 15.3525 5.60039C15.9075 7.32439 18.1345 8.55339 18.2295 8.60439C18.3045 8.64539 18.3865 8.66539 18.4685 8.66539C18.5515 8.66539 18.6345 8.64539 18.7085 8.60439C18.8045 8.55139 21.0485 7.30439 21.5825 5.60039C22.0045 4.28739 21.3925 2.95539 20.1855 2.56539Z" fill="black"/>
</svg>