<svg width="25" height="24" viewBox="0 0 25 24" fill="none" xmlns="http://www.w3.org/2000/svg">
<path d="M12.9961 3.69336H8.06611C5.24744 3.69336 3.5 5.68988 3.5 8.50758V16.0724C3.5 18.891 5.21339 20.8788 8.06611 20.8788" stroke="black" stroke-width="1.5" stroke-linecap="round" stroke-linejoin="round"/>
<path d="M20.6826 11.3574V16.0724C20.6826 18.8911 18.9342 20.8788 16.1155 20.8788H11.75" stroke="black" stroke-width="1.5" stroke-linecap="round" stroke-linejoin="round"/>
<path d="M21.5001 5.47664C21.5001 6.77749 20.4455 7.83218 19.1446 7.83218C17.8438 7.83218 16.7891 6.77749 16.7891 5.47664C16.7891 4.17578 17.8438 3.12109 19.1446 3.12109" stroke="black" stroke-width="1.5" stroke-linecap="round" stroke-linejoin="round"/>
<path d="M8.86076 11.7558C7.8586 12.0788 7.50153 13.1705 7.80704 14.126C8.29936 15.6564 10.4087 16.8055 10.4087 16.8055C10.4087 16.8055 12.5347 15.6389 13.0104 14.126C13.316 13.1705 12.956 12.0788 11.9538 11.7558C11.4265 11.5914 10.8524 11.6877 10.4087 12.0166C9.96507 11.6848 9.38907 11.5875 8.86076 11.7558Z" stroke="black" stroke-width="1.5" stroke-linecap="round" stroke-linejoin="round"/>
</svg>