<svg width="24" height="24" viewBox="0 0 24 24" fill="none" xmlns="http://www.w3.org/2000/svg">
<path d="M17.8386 9.1179C18.0858 11.4938 19.3759 11.5843 19.3759 13.9583C19.157 16.596 16.8929 17.2411 12 17.2411C7.10699 17.2411 4.84294 16.5863 4.625 13.9583C4.625 11.3343 6.20312 11.5016 6.20312 8.28019C6.20312 6.04144 8.01184 3.52928 10.8801 3" stroke="black" stroke-width="1.5" stroke-linecap="round" stroke-linejoin="round"/>
<path d="M9.92188 19.9678C10.4288 20.6012 11.1887 21.0001 12.0303 21.0001C12.8806 21.0001 13.6415 20.6012 14.1484 19.9678" stroke="black" stroke-width="1.5" stroke-linecap="round" stroke-linejoin="round"/>
<path fill-rule="evenodd" clip-rule="evenodd" d="M15.6596 3.0957C16.6199 3.0957 17.3992 3.87406 17.3992 4.83534C17.3992 5.79564 16.6199 6.57497 15.6596 6.57497C14.6993 6.57497 13.9199 5.79564 13.9199 4.83534C13.9199 3.87406 14.6993 3.0957 15.6596 3.0957Z" stroke="black" stroke-width="1.5" stroke-linecap="round" stroke-linejoin="round"/>
</svg>