<svg width="24" height="24" viewBox="0 0 24 24" fill="none" xmlns="http://www.w3.org/2000/svg">
<path fill-rule="evenodd" clip-rule="evenodd" d="M12.7591 16.3721H7.92306C7.50906 16.3721 7.17306 16.0361 7.17306 15.6221C7.17306 15.2081 7.50906 14.8721 7.92306 14.8721H12.7591C13.1731 14.8721 13.5091 15.2081 13.5091 15.6221C13.5091 16.0361 13.1731 16.3721 12.7591 16.3721ZM7.92306 10.6191H9.89706C10.3111 10.6191 10.6471 10.9551 10.6471 11.3691C10.6471 11.7831 10.3111 12.1191 9.89706 12.1191H7.92306C7.50906 12.1191 7.17306 11.7831 7.17306 11.3691C7.17306 10.9551 7.50906 10.6191 7.92306 10.6191ZM18.4691 11.0901C18.1401 11.0901 17.8121 11.0091 17.5131 10.8471C17.1451 10.6461 13.8831 8.80606 12.9871 6.01906C12.9871 6.01806 12.9871 6.01706 12.9861 6.01606C12.6251 4.88906 12.6941 3.76006 13.0751 2.78406H7.49806C4.38006 2.78406 2.28406 4.97606 2.28406 8.23806V16.0831C2.28406 19.3451 4.38006 21.5371 7.49806 21.5371H15.8221C18.9411 21.5371 21.0371 19.3451 21.0371 16.0831V9.76806C20.2531 10.3791 19.5861 10.7581 19.4311 10.8441C19.1311 11.0081 18.8001 11.0901 18.4691 11.0901Z" fill="black"/>
<path fill-rule="evenodd" clip-rule="evenodd" d="M20.1848 2.56647C19.6138 2.38747 18.9948 2.44647 18.4688 2.71947C17.9428 2.44247 17.3198 2.38647 16.7448 2.56747C15.5438 2.95447 14.9318 4.28647 15.3508 5.60047C15.3508 5.60047 15.3508 5.60147 15.3518 5.60147C15.9068 7.32547 18.1348 8.55447 18.2298 8.60647C18.3048 8.64647 18.3868 8.66647 18.4688 8.66647C18.5518 8.66647 18.6348 8.64647 18.7088 8.60547C18.8048 8.55247 21.0478 7.30547 21.5838 5.60047C22.0038 4.28747 21.3918 2.95547 20.1848 2.56647Z" fill="black"/>
</svg>