<svg width="24" height="24" viewBox="0 0 24 24" fill="none" xmlns="http://www.w3.org/2000/svg">
<path opacity="0.4" fill-rule="evenodd" clip-rule="evenodd" d="M19.045 11.3965C18.645 10.7065 18.265 10.0465 18.265 8.49648C18.265 8.25648 18.245 8.02648 18.205 7.78648C17.645 8.10648 17.005 8.27648 16.325 8.27648C14.155 8.27648 12.385 6.50648 12.385 4.33648C12.385 3.74648 12.515 3.18648 12.755 2.68648C12.515 2.65648 12.265 2.64648 12.005 2.64648C8.25504 2.64648 5.73504 5.67648 5.73504 8.49648C5.73504 10.0465 5.35504 10.7065 4.95504 11.4065C4.56504 12.0765 4.16504 12.7765 4.16504 14.1465V14.1865C4.42504 17.3065 7.23504 17.9165 12.005 17.9165C16.765 17.9165 19.575 17.3065 19.835 14.1465C19.835 12.7765 19.435 12.0765 19.045 11.3965Z" fill="black"/>
<path fill-rule="evenodd" clip-rule="evenodd" d="M14.1372 19.3755H9.93522C9.64622 19.3755 9.38422 19.5415 9.25922 19.8005C9.13422 20.0615 9.16922 20.3695 9.34922 20.5945C10.0152 21.4245 10.9922 21.9005 12.0322 21.9005C13.0772 21.9005 14.0572 21.4245 14.7222 20.5945C14.9032 20.3695 14.9382 20.0605 14.8132 19.8005C14.6882 19.5415 14.4262 19.3755 14.1372 19.3755Z" fill="black"/>
<path fill-rule="evenodd" clip-rule="evenodd" d="M16.3249 6.57861C17.5589 6.57861 18.5639 5.57361 18.5639 4.33861C18.5639 3.10361 17.5589 2.09961 16.3249 2.09961C15.0909 2.09961 14.0859 3.10361 14.0859 4.33861C14.0859 5.57361 15.0909 6.57861 16.3249 6.57861Z" fill="black"/>
</svg>