<svg width="24" height="24" viewBox="0 0 24 24" fill="none" xmlns="http://www.w3.org/2000/svg">
<path d="M10.3682 12.1701H12.5174M12.9981 9.76807H10.3682V14.5716H12.9981" stroke="black" stroke-width="1.5" stroke-linecap="round" stroke-linejoin="round"/>
<path d="M15.4219 9.76807L16.3219 14.5716L18.0343 11.0894L19.7477 14.5716L20.6477 9.76807" stroke="black" stroke-width="1.5" stroke-linecap="round" stroke-linejoin="round"/>
<path d="M3.35352 14.757V9.72384L7.05955 14.6111V9.58179" stroke="black" stroke-width="1.5" stroke-linecap="round" stroke-linejoin="round"/>
<path d="M4.44922 17.4995C4.67884 17.7982 4.92305 18.0891 5.19743 18.3635C8.71179 21.8788 14.4095 21.8788 17.9248 18.3635C18.1992 18.0891 18.4415 17.7982 18.673 17.4995" stroke="black" stroke-width="1.5" stroke-linecap="round" stroke-linejoin="round"/>
<path d="M18.6711 6.49977C18.4415 6.20106 18.1973 5.91015 17.9229 5.63577C14.4085 2.12141 8.71081 2.12141 5.19548 5.63577C4.9211 5.91015 4.67883 6.20106 4.44727 6.49977" stroke="black" stroke-width="1.5" stroke-linecap="round" stroke-linejoin="round"/>
</svg>