<svg width="25" height="24" viewBox="0 0 25 24" fill="none" xmlns="http://www.w3.org/2000/svg">
<path d="M18.0886 9.11826C18.3358 11.4942 19.6259 11.5847 19.6259 13.9587C19.407 16.5963 17.1429 17.2414 12.25 17.2414C7.35699 17.2414 5.09294 16.5866 4.875 13.9587C4.875 11.4327 6.33734 11.4934 6.44667 8.62793" stroke="black" stroke-width="1.5" stroke-linecap="round" stroke-linejoin="round"/>
<path d="M7.0459 6C7.79916 4.56776 9.23281 3.3501 11.13 3" stroke="black" stroke-width="1.5" stroke-linecap="round" stroke-linejoin="round"/>
<path d="M10.1719 19.9678C10.6788 20.6012 11.4387 21.0001 12.2803 21.0001C13.1306 21.0001 13.8915 20.6012 14.3984 19.9678" stroke="black" stroke-width="1.5" stroke-linecap="round" stroke-linejoin="round"/>
<path d="M17.6492 4.83534C17.6492 5.79564 16.8699 6.57497 15.9096 6.57497C14.9493 6.57497 14.1699 5.79564 14.1699 4.83534C14.1699 3.87406 14.9493 3.0957 15.9096 3.0957" stroke="black" stroke-width="1.5" stroke-linecap="round" stroke-linejoin="round"/>
</svg>