<svg width="24" height="24" viewBox="0 0 24 24" fill="none" xmlns="http://www.w3.org/2000/svg">
<path d="M12.4961 3.69336H7.56611C4.74744 3.69336 3 5.68988 3 8.50758V16.0724C3 18.891 4.71339 20.8788 7.56611 20.8788H15.6154C18.4341 20.8788 20.1825 18.891 20.1825 16.0724V11.3574" stroke="black" stroke-width="1.5" stroke-linecap="round" stroke-linejoin="round"/>
<path fill-rule="evenodd" clip-rule="evenodd" d="M18.6446 3.12109C19.9455 3.12109 21.0001 4.17578 21.0001 5.47664C21.0001 6.77749 19.9455 7.83218 18.6446 7.83218C17.3438 7.83218 16.2891 6.77749 16.2891 5.47664C16.2891 4.17578 17.3438 3.12109 18.6446 3.12109Z" stroke="black" stroke-width="1.5" stroke-linecap="round" stroke-linejoin="round"/>
<path d="M8.36076 11.7558C7.3586 12.0788 7.00153 13.1705 7.30704 14.126C7.79936 15.6564 9.90874 16.8055 9.90874 16.8055C9.90874 16.8055 12.0347 15.6389 12.5104 14.126C12.816 13.1705 12.456 12.0788 11.4538 11.7558C10.9265 11.5914 10.3524 11.6877 9.90874 12.0166C9.46507 11.6848 8.88907 11.5875 8.36076 11.7558Z" stroke="black" stroke-width="1.5" stroke-linecap="round" stroke-linejoin="round"/>
</svg>