<svg width="24" height="24" viewBox="0 0 24 24" fill="none" xmlns="http://www.w3.org/2000/svg">
<path fill-rule="evenodd" clip-rule="evenodd" d="M12 3.75C7.44365 3.75 3.75 7.44365 3.75 12C3.75 16.5563 7.44365 20.25 12 20.25C16.5563 20.25 20.25 16.5563 20.25 12C20.25 7.44365 16.5563 3.75 12 3.75ZM2.25 12C2.25 6.61522 6.61522 2.25 12 2.25C17.3848 2.25 21.75 6.61522 21.75 12C21.75 17.3848 17.3848 21.75 12 21.75C6.61522 21.75 2.25 17.3848 2.25 12Z" fill="black"/>
<path fill-rule="evenodd" clip-rule="evenodd" d="M6.75 8.44922C6.75 7.75886 7.30964 7.19922 8 7.19922H10.15C10.8404 7.19922 11.4 7.75886 11.4 8.44922V15.5492C11.4 16.2396 10.8404 16.7992 10.15 16.7992H8C7.30964 16.7992 6.75 16.2396 6.75 15.5492V8.44922ZM8.25 8.69922V15.2992H9.9V8.69922H8.25Z" fill="black"/>
<path fill-rule="evenodd" clip-rule="evenodd" d="M13.7996 7.19922C13.1369 7.19922 12.5996 7.73648 12.5996 8.39922V15.5992C12.5996 16.262 13.1369 16.7992 13.7996 16.7992H16.0496C16.7124 16.7992 17.2496 16.262 17.2496 15.5992V10.6492C17.2496 8.74384 15.705 7.19922 13.7996 7.19922ZM14.0996 8.72215V15.2992H15.7496V10.6492C15.7496 9.67428 15.0341 8.86645 14.0996 8.72215Z" fill="black"/>
</svg>