<svg width="24" height="24" viewBox="0 0 24 24" fill="none" xmlns="http://www.w3.org/2000/svg">
<path fill-rule="evenodd" clip-rule="evenodd" d="M9.99252 9.88436C9.88252 9.84036 9.77752 9.81836 9.68552 9.81836C9.60752 9.81836 9.53852 9.83436 9.48452 9.86636C9.34452 9.94936 9.30052 10.1404 9.28752 10.2474C9.16352 11.4584 9.16352 12.6464 9.28852 13.7634C9.30352 13.8784 9.35352 14.0474 9.49552 14.1284C9.61952 14.1994 9.79752 14.1964 9.98252 14.1184C10.9415 13.7214 11.7865 13.1864 12.5005 12.5254C12.6285 12.4084 12.7755 12.2274 12.7765 12.0044C12.7775 11.7794 12.6285 11.5924 12.5015 11.4744C11.7665 10.8024 10.8995 10.2534 9.99252 9.88436Z" fill="black"/>
<path fill-rule="evenodd" clip-rule="evenodd" d="M16.305 14.99C16.305 15.404 15.969 15.74 15.555 15.74C15.141 15.74 14.805 15.404 14.805 14.99V9.01C14.805 8.596 15.141 8.26 15.555 8.26C15.969 8.26 16.305 8.596 16.305 9.01V14.99ZM13.516 13.63C12.675 14.409 11.68 15.04 10.562 15.502C10.281 15.621 9.99 15.68 9.706 15.68C9.368 15.68 9.041 15.597 8.75 15.43C8.222 15.128 7.885 14.6 7.8 13.944C7.661 12.708 7.661 11.412 7.797 10.079C7.88 9.407 8.208 8.879 8.721 8.575C9.249 8.263 9.901 8.234 10.552 8.493C11.628 8.93 12.651 9.578 13.516 10.369C13.517 10.37 13.519 10.372 13.52 10.373C14.011 10.828 14.279 11.409 14.277 12.01C14.274 12.608 14.004 13.183 13.516 13.63ZM12 2.5C6.762 2.5 2.5 6.762 2.5 12C2.5 17.239 6.762 21.5 12 21.5C17.239 21.5 21.5 17.239 21.5 12C21.5 6.762 17.239 2.5 12 2.5Z" fill="black"/>
</svg>