<svg width="24" height="24" viewBox="0 0 24 24" fill="none" xmlns="http://www.w3.org/2000/svg">
<path fill-rule="evenodd" clip-rule="evenodd" d="M12 3.75C7.44337 3.75 3.75 7.44337 3.75 12C3.75 16.5566 7.44337 20.25 12 20.25C16.5566 20.25 20.25 16.5566 20.25 12C20.25 7.44337 16.5566 3.75 12 3.75ZM2.25 12C2.25 6.61494 6.61494 2.25 12 2.25C17.3851 2.25 21.75 6.61494 21.75 12C21.75 17.3851 17.3851 21.75 12 21.75C6.61494 21.75 2.25 17.3851 2.25 12Z" fill="black"/>
<path fill-rule="evenodd" clip-rule="evenodd" d="M9.18722 8.29234C9.48775 8.18689 9.8221 8.28275 10.0211 8.53141L18.155 18.6948C18.4139 19.0182 18.3615 19.4902 18.0381 19.749C17.7147 20.0079 17.2427 19.9555 16.9839 19.6321L10.1855 11.1375V15C10.1855 15.4143 9.84976 15.75 9.43555 15.75C9.02133 15.75 8.68555 15.4143 8.68555 15V9.00004C8.68555 8.68155 8.8867 8.3978 9.18722 8.29234Z" fill="black"/>
<path fill-rule="evenodd" clip-rule="evenodd" d="M14.8359 8.25C15.2502 8.25 15.5859 8.58579 15.5859 9V11.5C15.5859 11.9142 15.2502 12.25 14.8359 12.25C14.4217 12.25 14.0859 11.9142 14.0859 11.5V9C14.0859 8.58579 14.4217 8.25 14.8359 8.25Z" fill="black"/>
</svg>