<svg width="25" height="24" viewBox="0 0 25 24" fill="none" xmlns="http://www.w3.org/2000/svg">
<path fill-rule="evenodd" clip-rule="evenodd" d="M2.5 12C2.5 6.61589 6.86481 2.25 12.25 2.25C17.6352 2.25 22 6.61589 22 12C22 17.3851 17.6351 21.75 12.25 21.75C6.86487 21.75 2.5 17.3851 2.5 12ZM12.25 3.75C7.69335 3.75 4 7.44421 4 12C4 16.5567 7.69329 20.25 12.25 20.25C16.8067 20.25 20.5 16.5567 20.5 12C20.5 7.44421 16.8067 3.75 12.25 3.75Z" fill="black"/>
<path fill-rule="evenodd" clip-rule="evenodd" d="M8.99851 8.55925C9.54329 8.24975 10.1935 8.25054 10.8024 8.49265L10.8082 8.49493L10.8082 8.49495C11.9328 8.95284 12.9502 9.62317 13.7663 10.3688L13.7708 10.3729L13.7708 10.3729C14.2489 10.817 14.5302 11.392 14.527 12.012C14.5239 12.6303 14.2383 13.197 13.7681 13.6276C12.9027 14.4282 11.9109 15.047 10.8149 15.5004C10.2376 15.7443 9.59662 15.7473 9.05382 15.4599C8.49956 15.1665 8.13729 14.6171 8.04973 13.9439L8.04798 13.9305L8.0481 13.9305C7.91232 12.7156 7.91004 11.4224 8.04735 10.0785L8.04918 10.0624C8.12793 9.42817 8.45106 8.87026 8.99851 8.55925ZM9.53865 10.2401C9.41255 11.4801 9.41608 12.6604 9.53798 13.7563C9.57005 13.9916 9.67377 14.0909 9.75565 14.1342C9.84857 14.1834 10.0127 14.2113 10.2324 14.1181L10.2389 14.1154L10.2389 14.1154C11.1841 13.7247 12.0238 13.1982 12.7509 12.5252L12.7543 12.5221L12.7543 12.5221C12.9642 12.3302 13.0263 12.1445 13.027 12.0043C13.0278 11.8656 12.9689 11.6761 12.752 11.4739C12.0592 10.8414 11.193 10.2717 10.2457 9.88549C9.97275 9.77768 9.81227 9.8221 9.73945 9.86347C9.66974 9.90307 9.56993 10.0018 9.53865 10.2401Z" fill="black"/>
<path fill-rule="evenodd" clip-rule="evenodd" d="M15.8047 8.25977C16.2189 8.25977 16.5547 8.59555 16.5547 9.00977V14.9897C16.5547 15.4039 16.2189 15.7397 15.8047 15.7397C15.3905 15.7397 15.0547 15.4039 15.0547 14.9897V9.00977C15.0547 8.59555 15.3905 8.25977 15.8047 8.25977Z" fill="black"/>
</svg>