<svg width="25" height="24" viewBox="0 0 25 24" fill="none" xmlns="http://www.w3.org/2000/svg">
<path opacity="0.4" d="M13.1211 2.60882C12.7278 2.46373 12.2956 2.46373 11.9024 2.60882C11.6932 2.68597 11.519 2.80943 11.3508 2.95412C11.1898 3.09269 11.0071 3.27533 10.7896 3.49286L9.94147 4.34101C9.72629 4.55619 9.66949 4.60917 9.61066 4.64683C9.53501 4.69526 9.45137 4.7299 9.36362 4.74915C9.2954 4.76412 9.21778 4.76682 8.91347 4.76682L7.71366 4.76682C7.40603 4.76682 7.14774 4.76681 6.93588 4.7827C6.71468 4.79928 6.50413 4.83522 6.3017 4.92854C5.92102 5.10404 5.61545 5.40961 5.43995 5.79029C5.34663 5.99272 5.31069 6.20326 5.29411 6.42447C5.27822 6.63633 5.27823 6.89462 5.27823 7.20225L5.27824 8.40206C5.27824 8.70637 5.27553 8.784 5.26056 8.85222C5.24131 8.93996 5.20667 9.0236 5.15824 9.09926C5.12058 9.15808 5.0676 9.21488 4.85242 9.43007L4.00461 10.2779C3.78708 10.4954 3.60442 10.678 3.46584 10.8391C3.32116 11.0072 3.19769 11.1815 3.12054 11.3906C2.97545 11.7839 2.97545 12.2161 3.12053 12.6093C3.19768 12.8185 3.32115 12.9928 3.46584 13.1609C3.60441 13.3219 3.78705 13.5046 4.00458 13.7221L4.85242 14.5699C5.0676 14.7851 5.12058 14.8419 5.15824 14.9007C5.20667 14.9764 5.24131 15.06 5.26056 15.1478C5.27553 15.216 5.27824 15.2936 5.27824 15.5979L5.27823 16.7977C5.27823 17.1054 5.27822 17.3636 5.29411 17.5755C5.31069 17.7967 5.34663 18.0073 5.43995 18.2097C5.61545 18.5904 5.92102 18.8959 6.3017 19.0714C6.50413 19.1648 6.71468 19.2007 6.93588 19.2173C7.14772 19.2332 7.40598 19.2332 7.71357 19.2331H8.91345C9.21776 19.2331 9.29538 19.2359 9.36361 19.2508C9.45135 19.2701 9.53499 19.3047 9.61065 19.3531C9.66947 19.3908 9.72627 19.4438 9.94145 19.659L10.7896 20.5071C11.0071 20.7246 11.1898 20.9073 11.3508 21.0459C11.519 21.1906 11.6932 21.314 11.9024 21.3912C12.2956 21.5363 12.7278 21.5363 13.1211 21.3912C13.3302 21.314 13.5045 21.1906 13.6726 21.0459C13.8337 20.9073 14.0163 20.7247 14.2338 20.5071L15.082 19.659C15.2972 19.4438 15.354 19.3908 15.4128 19.3531C15.4884 19.3047 15.5721 19.2701 15.6598 19.2508C15.7281 19.2359 15.8057 19.2331 16.11 19.2331H17.3092C17.6168 19.2332 17.8751 19.2332 18.0869 19.2173C18.3081 19.2007 18.5187 19.1648 18.7211 19.0714C19.1018 18.8959 19.4073 18.5904 19.5828 18.2097C19.6762 18.0073 19.7121 17.7967 19.7287 17.5755C19.7446 17.3637 19.7446 17.1054 19.7446 16.7978V15.5986C19.7446 15.2943 19.7473 15.2166 19.7622 15.1484C19.7815 15.0607 19.8161 14.977 19.8646 14.9014C19.9022 14.8426 19.9552 14.7858 20.1704 14.5706L21.0189 13.7221C21.2364 13.5046 21.419 13.3219 21.5576 13.1609C21.7023 12.9928 21.8258 12.8185 21.9029 12.6093C22.048 12.2161 22.048 11.7839 21.9029 11.3906C21.8258 11.1815 21.7023 11.0072 21.5576 10.8391C21.419 10.6781 21.2364 10.4954 21.0189 10.278L20.1704 9.42939C19.9552 9.21421 19.9022 9.15741 19.8646 9.09859C19.8161 9.02293 19.7815 8.93929 19.7622 8.85155C19.7473 8.78333 19.7446 8.7057 19.7446 8.40139V7.20221C19.7446 6.89462 19.7446 6.63631 19.7287 6.42447C19.7121 6.20326 19.6762 5.99271 19.5828 5.79029C19.4073 5.40961 19.1018 5.10404 18.7211 4.92854C18.5187 4.83522 18.3081 4.79928 18.0869 4.7827C17.875 4.76681 17.6168 4.76682 17.3091 4.76682L16.11 4.76682C15.8057 4.76682 15.728 4.76412 15.6598 4.74915C15.5721 4.7299 15.4884 4.69526 15.4128 4.64683C15.3539 4.60917 15.2971 4.55619 15.082 4.34101L14.2338 3.49288C14.0163 3.27536 13.8337 3.09269 13.6726 2.95412C13.5045 2.80943 13.3302 2.68597 13.1211 2.60882Z" fill="black"/>
<path d="M12.2246 7.71484C11.3655 7.71484 10.5641 7.96811 9.89269 8.40419C9.75071 8.49641 9.66504 8.65421 9.66504 8.82351C9.66504 8.99281 9.75071 9.15061 9.89269 9.24282C10.796 9.82951 11.3916 10.8458 11.3916 12.001C11.3916 13.1562 10.796 14.1725 9.89269 14.7592C9.75071 14.8514 9.66504 15.0092 9.66504 15.1785C9.66504 15.3478 9.75071 15.5056 9.89269 15.5978C10.5641 16.0339 11.3655 16.2872 12.2246 16.2872C14.5918 16.2872 16.5108 14.3682 16.5108 12.001C16.5108 9.63383 14.5918 7.71484 12.2246 7.71484Z" fill="black"/>
</svg>