<svg width="25" height="24" viewBox="0 0 25 24" fill="none" xmlns="http://www.w3.org/2000/svg">
<path d="M4.83301 14.3268H10.0668C10.8611 14.3268 11.6553 14.6298 12.2603 15.2358C13.4723 16.4478 13.4723 18.4117 12.2603 19.6237C11.0482 20.8357 9.0844 20.8357 7.87237 19.6237" stroke="black" stroke-width="1.5" stroke-linecap="round" stroke-linejoin="round"/>
<path opacity="0.4" d="M3.11426 9.18701H10.7112C11.4166 9.18701 12.1219 8.91811 12.6597 8.3803C13.7353 7.30469 13.7353 5.56012 12.6597 4.4834C11.5841 3.40669 9.83952 3.40779 8.7628 4.4834" stroke="black" stroke-width="1.5" stroke-linecap="round" stroke-linejoin="round"/>
<path opacity="0.4" d="M14.8281 12.0396H18.3981C18.9838 12.0396 19.5685 12.2631 20.0156 12.7092C20.9088 13.6025 20.9088 15.0511 20.0156 15.9443C19.1224 16.8376 17.6737 16.8376 16.7805 15.9443" stroke="black" stroke-width="1.5" stroke-linecap="round" stroke-linejoin="round"/>
<path fill-rule="evenodd" clip-rule="evenodd" d="M16.251 5.73173C17.4044 6.10564 18.3084 7.00973 18.6824 8.16362C19.0563 7.00973 19.9604 6.10564 21.1138 5.73173C19.9604 5.35777 19.0563 4.45367 18.6824 3.30029C18.3084 4.45367 17.4044 5.35777 16.251 5.73173Z" stroke="black" stroke-width="1.5" stroke-linecap="round" stroke-linejoin="round"/>
<path d="M17.0044 20.2116C17.0071 20.2116 17.0089 20.2096 17.0089 20.2066C17.0089 20.2037 17.0071 20.2017 17.0044 20.2017C17.0017 20.2017 16.9999 20.2037 16.9999 20.2066C16.9999 20.2096 17.0017 20.2116 17.0044 20.2116" stroke="black" stroke-width="1.5" stroke-linecap="round" stroke-linejoin="round"/>
<path d="M4.57887 5.24381C4.58156 5.24381 4.58336 5.24183 4.58336 5.23887C4.58336 5.23592 4.58156 5.23394 4.57887 5.23394C4.57618 5.23394 4.57439 5.23592 4.57439 5.23887C4.57439 5.24183 4.57618 5.24381 4.57887 5.24381" stroke="black" stroke-width="1.5" stroke-linecap="round" stroke-linejoin="round"/>
</svg>