<svg width="24" height="25" viewBox="0 0 24 25" fill="none" xmlns="http://www.w3.org/2000/svg">
<path fill-rule="evenodd" clip-rule="evenodd" d="M6.66 9.62879C6.09 9.62879 5.62 9.16879 5.62 8.58879C5.62 8.02879 6.09 7.55879 6.66 7.55879C7.23 7.55879 7.69 8.02879 7.69 8.58879C7.69 9.16879 7.23 9.62879 6.66 9.62879ZM10.48 3.00879H7.78C4.62 3.00879 2.5 5.23879 2.5 8.53879V16.4888C2.5 19.7988 4.62 22.0088 7.78 22.0088H10.48C10.76 22.0088 10.98 21.7888 10.98 21.5088V3.50879C10.98 3.23879 10.76 3.00879 10.48 3.00879Z" fill="black"/>
<path fill-rule="evenodd" clip-rule="evenodd" d="M17.34 17.4888C16.77 17.4888 16.31 17.0288 16.31 16.4588C16.31 15.8888 16.77 15.4188 17.34 15.4188C17.91 15.4188 18.38 15.8888 18.38 16.4588C18.38 17.0288 17.91 17.4888 17.34 17.4888ZM16.22 3.00879H13.52C13.24 3.00879 13.02 3.23879 13.02 3.50879V21.5088C13.02 21.7888 13.24 22.0088 13.52 22.0088H16.22C19.38 22.0088 21.5 19.7888 21.5 16.4788V8.52879C21.5 5.22879 19.38 3.00879 16.22 3.00879Z" fill="black"/>
</svg>