<svg width="25" height="25" viewBox="0 0 25 25" fill="none" xmlns="http://www.w3.org/2000/svg">
<path d="M13.0249 5.47803H14.9528C15.4136 5.47803 15.8148 5.79295 15.9242 6.2406L18.4316 16.4995" stroke="black" stroke-width="1.5" stroke-miterlimit="10" stroke-linecap="round" stroke-linejoin="round"/>
<path d="M5.27393 13.7573C7.76483 13.7573 9.78408 15.7523 9.78408 18.2432H13.3569" stroke="black" stroke-width="1.5" stroke-miterlimit="10" stroke-linecap="round" stroke-linejoin="round"/>
<path d="M17.8003 13.9813L17.3191 14.1792C16.4963 14.5636 15.8087 15.1822 15.3472 15.9515" stroke="black" stroke-width="1.5" stroke-miterlimit="10" stroke-linecap="round" stroke-linejoin="round"/>
<path d="M5.23087 20.2915C6.32488 20.2915 7.21174 19.4046 7.21174 18.3106C7.21174 17.2166 6.32488 16.3297 5.23087 16.3297C4.13687 16.3297 3.25 17.2166 3.25 18.3106C3.25 19.4046 4.13687 20.2915 5.23087 20.2915Z" stroke="black" stroke-width="1.5" stroke-miterlimit="10" stroke-linecap="round" stroke-linejoin="round"/>
<path d="M17.3218 17.9454C17.4932 17.0258 18.2998 16.3297 19.2691 16.3297C20.3631 16.3297 21.2499 17.2166 21.2499 18.3106C21.2499 19.2765 20.5586 20.081 19.6437 20.2561" stroke="black" stroke-width="1.5" stroke-miterlimit="10" stroke-linecap="round" stroke-linejoin="round"/>
<path d="M3.56201 4.19678L15.9966 16.6314L17.4432 18.078L19.6735 20.3082L21.25 21.8848" stroke="black" stroke-width="1.5" stroke-miterlimit="10" stroke-linecap="round" stroke-linejoin="round"/>
</svg>