<svg width="25" height="24" viewBox="0 0 25 24" fill="none" xmlns="http://www.w3.org/2000/svg">
<path d="M5.56728 4.16211C4.52725 4.51845 3.79492 5.49863 3.79492 6.66773V8.69729C3.79492 9.68776 4.19055 10.638 4.88359 11.3413L9.22143 15.1938C9.50856 15.4809 9.66662 15.8672 9.66662 16.2731V19.4717C9.66662 20.5511 10.7562 21.2937 11.756 20.8878L13.6182 20.1451C14.2027 19.9169 14.589 19.353 14.589 18.7291V16.7585C14.589 16.3226 14.7667 15.9167 15.0838 15.6296L16.064 14.6588" stroke="black" stroke-width="1.5" stroke-linecap="round" stroke-linejoin="round"/>
<path d="M4.41016 3L17.7108 16.3006" stroke="black" stroke-width="1.5" stroke-linecap="round" stroke-linejoin="round"/>
<path opacity="0.4" d="M11.0625 4.00195H18.5485C20.0141 4.00195 21.2028 5.1907 21.2028 6.66564V8.01244C21.2028 9.07212 20.7567 10.0822 19.9748 10.7949L18.9058 11.8443" stroke="black" stroke-width="1.5" stroke-linecap="round" stroke-linejoin="round"/>
</svg>