<svg width="25" height="25" viewBox="0 0 25 25" fill="none" xmlns="http://www.w3.org/2000/svg">
<path d="M21.1857 17.2827V6.95459C21.2003 4.89871 19.5823 3.20184 17.5293 3.11914C17.5293 3.11914 9.06638 3.11914 9.03621 3.12011C6.96379 3.16487 5.32044 4.88216 5.36617 6.95459V17.4617C5.41481 19.5011 7.08638 21.1269 9.1267 21.1191L17.5157 21.1181C19.5881 21.0724 21.2305 19.3551 21.1857 17.2827Z" stroke="black" stroke-width="1.5" stroke-linecap="round" stroke-linejoin="round"/>
<path d="M3.81445 16.8161H6.87427M3.81445 12.1175H6.87427M3.81445 7.41992H6.87427" stroke="black" stroke-width="1.5" stroke-linecap="round" stroke-linejoin="round"/>
<path d="M17.897 17.2278V12.8018" stroke="black" stroke-width="1.5" stroke-linecap="round" stroke-linejoin="round"/>
<path d="M12.5479 17.2275V13.0542" stroke="black" stroke-width="1.5" stroke-linecap="round" stroke-linejoin="round"/>
<path d="M15.2225 17.2277V15.3867" stroke="black" stroke-width="1.5" stroke-linecap="round" stroke-linejoin="round"/>
<path d="M9.7953 17.2277V15.3867" stroke="black" stroke-width="1.5" stroke-linecap="round" stroke-linejoin="round"/>
<path d="M9.57715 10.7072L12.2443 7.84017L15.2872 9.81612L17.8968 7.02881" stroke="black" stroke-width="1.5" stroke-linecap="round" stroke-linejoin="round"/>
</svg>