<svg width="25" height="24" viewBox="0 0 25 24" fill="none" xmlns="http://www.w3.org/2000/svg">
<path d="M17.0009 7.11266V4.65277C17.0009 3.57275 15.9821 2.78365 14.9362 3.05317L6.20162 5.30759C5.5682 5.47105 5.12549 6.0422 5.12549 6.69605V9.73592" stroke="black" stroke-width="1.5" stroke-linecap="round" stroke-linejoin="round"/>
<path d="M11.0135 21.0016H7.26947C6.08534 21.0016 5.125 20.0412 5.125 18.8571V12.7773" stroke="black" stroke-width="1.5" stroke-linecap="round" stroke-linejoin="round"/>
<path d="M19.1079 11.5936V9.43354C19.1079 8.24941 18.1475 7.28906 16.9634 7.28906H5.125" stroke="black" stroke-width="1.5" stroke-linecap="round" stroke-linejoin="round"/>
<path d="M9.91211 14.1853C9.91211 12.9612 10.9026 11.9805 12.1169 11.9805" stroke="black" stroke-width="1.5" stroke-linecap="round" stroke-linejoin="round"/>
<path d="M16.3691 14.3477C17.9872 14.3477 19.2988 15.6592 19.2988 17.2773C19.2988 18.8954 17.9872 20.207 16.3691 20.207C14.751 20.207 13.4395 18.8954 13.4395 17.2773C13.4395 16.6231 13.6539 16.019 14.0162 15.5315" stroke="black" stroke-width="1.5" stroke-linecap="round" stroke-linejoin="round"/>
<path d="M18.3633 19.4219L19.9415 20.9971" stroke="black" stroke-width="1.5" stroke-linecap="round" stroke-linejoin="round"/>
</svg>