<svg width="25" height="24" viewBox="0 0 25 24" fill="none" xmlns="http://www.w3.org/2000/svg">
<path fill-rule="evenodd" clip-rule="evenodd" d="M14.749 2.32727C16.2693 1.93552 17.7508 3.08266 17.7508 4.65315V6.64702C18.9666 6.99006 19.8579 8.10765 19.8579 9.43305V11.5931C19.8579 12.0073 19.5221 12.3431 19.1079 12.3431C18.6937 12.3431 18.3579 12.0073 18.3579 11.5931V9.43305C18.3579 8.66313 17.7333 8.03857 16.9634 8.03857H5.87548V18.8559C5.87548 19.6258 6.50003 20.2504 7.26995 20.2504H11.014C11.4282 20.2504 11.764 20.5862 11.764 21.0004C11.764 21.4146 11.4282 21.7504 11.014 21.7504H7.26995C5.67161 21.7504 4.37548 20.4543 4.37548 18.8559V7.31552C4.37516 7.30658 4.375 7.29759 4.375 7.28857C4.375 7.27955 4.37516 7.27057 4.37548 7.26163V6.69643C4.37548 5.70026 5.04987 4.83063 6.01417 4.58177C6.01418 4.58177 6.01416 4.58177 6.01417 4.58177L14.749 2.32727ZM5.89391 6.53857H16.2508V4.65315C16.2508 4.06369 15.6951 3.63268 15.1236 3.77975L6.38904 6.03417C6.13902 6.09869 5.95147 6.29614 5.89391 6.53857ZM12.1164 12.7306C11.3141 12.7306 10.6616 13.3777 10.6616 14.1854C10.6616 14.5996 10.3258 14.9354 9.91157 14.9354C9.49735 14.9354 9.16157 14.5996 9.16157 14.1854C9.16157 12.545 10.49 11.2306 12.1164 11.2306C12.5306 11.2306 12.8664 11.5664 12.8664 11.9806C12.8664 12.3948 12.5306 12.7306 12.1164 12.7306ZM16.3693 15.0985C15.1654 15.0985 14.1896 16.0743 14.1896 17.2781C14.1896 18.482 15.1654 19.4578 16.3693 19.4578C16.9351 19.4578 17.4506 19.2423 17.838 18.8888C17.8477 18.8792 17.8577 18.87 17.8678 18.861C18.2873 18.4638 18.549 17.9015 18.549 17.2781C18.549 16.0743 17.5732 15.0985 16.3693 15.0985ZM19.386 19.3858C19.8038 18.7888 20.049 18.0621 20.049 17.2781C20.049 15.2458 18.4016 13.5985 16.3693 13.5985C14.337 13.5985 12.6896 15.2458 12.6896 17.2781C12.6896 19.3104 14.337 20.9578 16.3693 20.9578C17.0748 20.9578 17.7339 20.7593 18.2939 20.415L19.4114 21.5305C19.7045 21.8231 20.1794 21.8226 20.472 21.5295C20.7646 21.2363 20.7642 20.7614 20.471 20.4688L19.386 19.3858Z" fill="black"/>
</svg>