<svg width="24" height="24" viewBox="0 0 24 24" fill="none" xmlns="http://www.w3.org/2000/svg">
<path opacity="0.4" d="M16.8458 21.5019H7.15379C5.69579 21.5019 4.50879 20.3169 4.50879 18.8619V6.70194C4.50879 5.81294 5.10679 5.04294 5.96279 4.82694L14.6948 2.56694C15.3448 2.39994 16.0208 2.53994 16.5498 2.94994C17.0798 3.36094 17.3838 3.98094 17.3838 4.65194V5.54863C17.3838 5.71432 17.2495 5.84863 17.0838 5.84863H8.07123C7.79523 5.84863 7.57123 6.07263 7.57123 6.34863C7.57123 6.62463 7.79523 6.84863 8.07123 6.84863H17.3606C17.3814 6.84863 17.4022 6.85075 17.4225 6.85527C18.6042 7.11888 19.4908 8.17364 19.4908 9.43194V18.8619C19.4908 20.3169 18.3048 21.5019 16.8458 21.5019Z" fill="black"/>
<path fill-rule="evenodd" clip-rule="evenodd" d="M11.9995 10.832C10.2632 10.832 8.85254 12.2452 8.85254 13.982C8.85254 15.7147 10.264 17.122 11.9995 17.122C13.735 17.122 15.1465 15.7147 15.1465 13.982C15.1465 12.2452 13.7359 10.832 11.9995 10.832ZM10.3525 13.982C10.3525 13.0727 11.092 12.332 11.9995 12.332C12.907 12.332 13.6465 13.0727 13.6465 13.982C13.6465 14.8851 12.9083 15.622 11.9995 15.622C11.0908 15.622 10.3525 14.8851 10.3525 13.982Z" fill="black"/>
</svg>