<svg width="24" height="24" viewBox="0 0 24 24" fill="none" xmlns="http://www.w3.org/2000/svg">
<path fill-rule="evenodd" clip-rule="evenodd" d="M17.137 12.98H15.976C15.562 12.98 15.226 12.644 15.226 12.23C15.226 11.816 15.562 11.48 15.976 11.48H17.137C17.551 11.48 17.887 11.816 17.887 12.23C17.887 12.644 17.551 12.98 17.137 12.98ZM17.137 16.685H10.279C9.86496 16.685 9.52896 16.349 9.52896 15.935C9.52896 15.521 9.86496 15.185 10.279 15.185H17.137C17.551 15.185 17.887 15.521 17.887 15.935C17.887 16.349 17.551 16.685 17.137 16.685ZM9.49597 9.806C9.78897 9.513 10.264 9.513 10.557 9.806L11.745 10.994L15.531 7.208C15.824 6.915 16.298 6.915 16.591 7.208C16.884 7.501 16.884 7.975 16.591 8.268L12.275 12.584C12.129 12.731 11.937 12.804 11.745 12.804C11.553 12.804 11.361 12.731 11.215 12.584L9.49597 10.867C9.20296 10.574 9.20296 10.099 9.49597 9.806ZM17.154 2.5C8.68196 2.5 8.65496 2.501 8.64996 2.501C7.51396 2.525 6.45496 2.991 5.66996 3.811C5.02796 4.482 4.64696 5.327 4.53696 6.227H3.43896C3.02496 6.227 2.68896 6.563 2.68896 6.977C2.68896 7.391 3.02496 7.727 3.43896 7.727H6.76396C7.06096 7.727 7.31096 7.551 7.43296 7.301C7.48196 7.4 7.51396 7.508 7.51396 7.626C7.51396 8.04 7.17896 8.376 6.76396 8.376H4.69096C4.58051 8.376 4.49096 8.46554 4.49096 8.576V10.924H3.43896C3.02496 10.924 2.68896 11.26 2.68896 11.674C2.68896 12.088 3.02496 12.424 3.43896 12.424H6.76396C7.06096 12.424 7.31096 12.248 7.43296 11.999C7.48196 12.098 7.51396 12.205 7.51396 12.323C7.51396 12.737 7.17896 13.073 6.76396 13.073H4.69096C4.58051 13.073 4.49096 13.1625 4.49096 13.273V15.623H3.43896C3.02496 15.623 2.68896 15.959 2.68896 16.373C2.68896 16.787 3.02496 17.123 3.43896 17.123H6.76396C7.06096 17.123 7.31096 16.947 7.43296 16.698C7.48196 16.797 7.51396 16.905 7.51396 17.022C7.51396 17.437 7.17896 17.772 6.76396 17.772H4.76971C4.64934 17.772 4.5559 17.8778 4.57729 17.9962C4.9352 19.978 6.66922 21.5 8.73496 21.5L17.151 21.499C19.493 21.447 21.358 19.501 21.31 17.159V6.838C21.326 4.5 19.51 2.594 17.154 2.5Z" fill="black"/>
</svg>