<svg width="25" height="25" viewBox="0 0 25 25" fill="none" xmlns="http://www.w3.org/2000/svg">
<path opacity="0.4" d="M18.94 9.03863V13.4086L20.55 15.0486V18.4561H3.94995V15.0486L5.55995 13.4086V9.03863C5.55995 5.34863 8.55995 2.34863 12.25 2.34863C12.94 2.34863 13.6 2.44863 14.22 2.64863C13.85 3.24863 13.65 3.94863 13.65 4.69863C13.65 6.92863 15.46 8.72863 17.68 8.72863C18.11 8.72863 18.53 8.65863 18.92 8.53863C18.93 8.69863 18.94 8.86863 18.94 9.03863Z" fill="black"/>
<path d="M18.6396 7.03857C18.3396 7.15869 18.0198 7.22852 17.6797 7.22852C16.2896 7.22852 15.1497 6.09863 15.1497 4.69873C15.1497 4.15869 15.3196 3.66895 15.5996 3.25879C16.0596 2.60889 16.8196 2.17871 17.6797 2.17871C19.0796 2.17871 20.2097 3.30859 20.2097 4.69873C20.2097 5.75879 19.5596 6.65869 18.6396 7.03857Z" fill="black"/>
<path d="M16.1396 18.4585H14.6396C14.4998 19.6587 13.4897 20.5986 12.2498 20.5986C11.0098 20.5986 9.99976 19.6587 9.85962 18.4585H8.35962C8.50977 20.4888 10.1797 22.0986 12.2498 22.0986C14.3198 22.0986 15.9998 20.4888 16.1396 18.4585Z" fill="black"/>
</svg>