<?xml version="1.0" encoding="UTF-8"?>
<svg width="24px" height="24px" viewBox="0 0 24 24" version="1.1" xmlns="http://www.w3.org/2000/svg" xmlns:xlink="http://www.w3.org/1999/xlink">
    <title>Iconly/Light-Outline/Notification</title>
    <g id="Iconly/Light-Outline/Notification" stroke="none" stroke-width="1" fill="none" fill-rule="evenodd">
        <g id="Notification" transform="translate(3.000000, 1.000000)" fill="#000000">
            <path d="M7.3243,19.106 C7.8423,19.683 8.5073,20 9.1973,20 L9.1983,20 C9.8913,20 10.5593,19.683 11.0783,19.105 C11.3563,18.798 11.8303,18.773 12.1373,19.05 C12.4453,19.327 12.4703,19.802 12.1933,20.109 C11.3853,21.006 10.3223,21.5 9.1983,21.5 L9.1963,21.5 C8.0753,21.499 7.0143,21.005 6.2093,20.108 C5.9323,19.801 5.9573,19.326 6.2653,19.05 C6.5733,18.772 7.0473,18.797 7.3243,19.106 Z M9.2471,0 C13.6921,0 16.6781,3.462 16.6781,6.695 C16.6781,8.358 17.1011,9.063 17.5501,9.811 C17.9941,10.549 18.4971,11.387 18.4971,12.971 C18.1481,17.018 13.9231,17.348 9.2471,17.348 C4.5711,17.348 0.3451,17.018 8.66453236e-05,13.035 C-0.0029,11.387 0.5001,10.549 0.9441,9.811 L1.10084456,9.54715551 C1.48677474,8.88385813 1.8161,8.16235294 1.8161,6.695 C1.8161,3.462 4.8021,0 9.2471,0 Z M9.2471,1.5 C5.7521,1.5 3.3161,4.238 3.3161,6.695 C3.3161,8.774 2.7391,9.735 2.2291,10.583 C1.8201,11.264 1.4971,11.802 1.4971,12.971 C1.6641,14.857 2.9091,15.848 9.2471,15.848 C15.5501,15.848 16.8341,14.813 17.0001,12.906 C16.9971,11.802 16.6741,11.264 16.2651,10.583 C15.7551,9.735 15.1781,8.774 15.1781,6.695 C15.1781,4.238 12.7421,1.5 9.2471,1.5 Z" id="Combined-Shape"></path>
        </g>
    </g>
</svg>