<svg width="25" height="25" viewBox="0 0 25 25" fill="none" xmlns="http://www.w3.org/2000/svg">
<path d="M9.80259 18.8298C9.95057 20.057 10.9852 21.0142 12.2507 21.0142C13.5163 21.0142 14.5519 20.057 14.6999 18.8298H16.201C16.0471 20.8842 14.3434 22.5142 12.2507 22.5142C10.1581 22.5142 8.45535 20.8842 8.30151 18.8298H9.80259Z" fill="black"/>
<path d="M13.0007 3.40381V1.76318H11.5007V3.40381H13.0007Z" fill="black"/>
<path opacity="0.4" d="M9.80249 18.8301C9.80151 18.8218 9.80054 18.8135 9.79956 18.8052H14.7024C14.7014 18.8135 14.7004 18.8218 14.6995 18.8301H16.2007C16.2014 18.8218 16.2019 18.8135 16.2024 18.8052H21.1545L20.6145 18.021C19.5964 16.5439 19.0583 14.8164 19.0583 13.0244V10.231C19.0583 6.72998 16.4023 3.84033 13.0005 3.46533V3.40381H11.5005V3.46533C8.09839 3.84033 5.44141 6.72998 5.44141 10.231V13.0244C5.44141 14.8184 4.90356 16.5464 3.8855 18.021L3.34546 18.8052H8.29956C8.30005 18.8135 8.30054 18.8218 8.30127 18.8301H9.80249Z" fill="black"/>
</svg>