<svg width="25" height="24" viewBox="0 0 25 24" fill="none" xmlns="http://www.w3.org/2000/svg">
<path opacity="0.4" fill-rule="evenodd" clip-rule="evenodd" d="M19.8774 13.9622C19.0304 12.0992 19.0524 11.3982 19.0914 10.1242C19.1014 9.82317 19.1114 9.49617 19.1114 9.12117C19.1114 6.14417 16.9824 1.95117 12.2504 1.95117C7.51836 1.95117 5.38936 6.14417 5.38936 9.12117C5.38936 9.49517 5.39936 9.82317 5.40936 10.1242C5.44836 11.3982 5.46936 12.0992 4.61336 13.9872C4.24736 14.9312 4.29136 15.7462 4.74636 16.4102C5.83836 18.0082 8.99836 18.2282 12.2504 18.2282C15.5024 18.2282 18.6624 18.0082 19.7544 16.4102C20.2104 15.7462 20.2544 14.9312 19.8774 13.9622Z" fill="black"/>
<path fill-rule="evenodd" clip-rule="evenodd" d="M14.9474 19.2407C13.3164 19.4217 11.5484 19.4207 9.53838 19.2387C9.23738 19.2147 8.93938 19.3737 8.80138 19.6487C8.66238 19.9247 8.70638 20.2557 8.91138 20.4857C9.81138 21.4927 10.9954 22.0487 12.2454 22.0487H12.2474C13.5004 22.0487 14.6874 21.4937 15.5894 20.4857C15.7964 20.2547 15.8394 19.9187 15.6974 19.6417C15.5544 19.3667 15.2604 19.2127 14.9474 19.2407Z" fill="black"/>
</svg>