<svg width="25" height="25" viewBox="0 0 25 25" fill="none" xmlns="http://www.w3.org/2000/svg">
<path fill-rule="evenodd" clip-rule="evenodd" d="M12.2505 21.0142C10.9765 21.0142 9.93646 20.0442 9.79946 18.8052H14.7025C14.5655 20.0442 13.5245 21.0142 12.2505 21.0142ZM21.1545 18.8052L20.6145 18.0212C19.5965 16.5442 19.0585 14.8162 19.0585 13.0242V10.2312C19.0585 6.73018 16.4025 3.84018 13.0005 3.46518V1.76318H11.5005V3.46518C8.09846 3.84018 5.44146 6.73018 5.44146 10.2312V13.0242C5.44146 14.8182 4.90346 16.5462 3.88546 18.0212L3.34546 18.8052H8.29946C8.44146 20.8712 10.1495 22.5142 12.2505 22.5142C14.3515 22.5142 16.0605 20.8712 16.2025 18.8052H21.1545Z" fill="black"/>
</svg>