<svg width="24" height="24" viewBox="0 0 24 24" fill="none" xmlns="http://www.w3.org/2000/svg">
<path fill-rule="evenodd" clip-rule="evenodd" d="M8.285 7.36328C7.65645 7.36328 7.14551 7.87372 7.14551 8.50374V18.6829C7.14551 19.3117 7.6562 19.8223 8.285 19.8223H19.1102C19.7397 19.8223 20.2496 19.3119 20.2496 18.6829V8.50374C20.2496 7.87347 19.7394 7.36328 19.1102 7.36328H8.285ZM5.64551 8.50374C5.64551 7.04579 6.82752 5.86328 8.285 5.86328H19.1102C20.5689 5.86328 21.7496 7.04605 21.7496 8.50374V18.6829C21.7496 20.1398 20.5686 21.3223 19.1102 21.3223H8.285C6.82777 21.3223 5.64551 20.1401 5.64551 18.6829V8.50374Z" fill="black"/>
<path fill-rule="evenodd" clip-rule="evenodd" d="M3.2161 3.65895C3.5037 3.36086 3.9785 3.35234 4.27659 3.63993L7.42412 6.67654C7.72222 6.96414 7.73074 7.43893 7.44314 7.73703C7.15555 8.03513 6.68075 8.04365 6.38265 7.75605L3.23513 4.71944C2.93703 4.43185 2.92851 3.95705 3.2161 3.65895Z" fill="black"/>
<path fill-rule="evenodd" clip-rule="evenodd" d="M2.25 6.0051C2.25 4.16666 3.74051 2.67578 5.57835 2.67578H16.0892C17.2171 2.67578 18.3012 3.11445 19.1124 3.89978L20.736 5.47083C20.736 5.47088 20.7361 5.47093 20.7361 5.47099C21.3844 6.09797 21.7498 6.96097 21.7498 7.86248V17.9939C21.7498 18.4081 21.414 18.7439 20.9998 18.7439C20.5856 18.7439 20.2498 18.4081 20.2498 17.9939V7.86248C20.2498 7.3669 20.049 6.89312 19.6932 6.5491L19.6931 6.54894L18.0692 4.97761L18.0691 4.97748C17.5376 4.46294 16.8276 4.17578 16.0892 4.17578H5.57835C4.5693 4.17578 3.75 4.99471 3.75 6.0051V15.7045C3.75 16.4755 4.06273 17.2139 4.61682 17.7495L4.61719 17.7498L6.22733 19.3084C6.5678 19.6379 7.02379 19.8223 7.49897 19.8223H18.4214C18.8356 19.8223 19.1714 20.1581 19.1714 20.5723C19.1714 20.9865 18.8356 21.3223 18.4214 21.3223H7.49897C6.63535 21.3223 5.80509 20.9871 5.18427 20.3864L5.18417 20.3863L3.57429 18.828C3.57419 18.8279 3.57409 18.8278 3.574 18.8277C3.57397 18.8277 3.57395 18.8276 3.57392 18.8276C2.72718 18.0089 2.25 16.8813 2.25 15.7045V6.0051Z" fill="black"/>
<path fill-rule="evenodd" clip-rule="evenodd" d="M10.7939 9.76193C11.0901 9.65681 11.4205 9.7476 11.6214 9.98935L15.2764 14.3867L15.321 10.5185C15.3258 10.1043 15.6654 9.77241 16.0796 9.77719C16.4938 9.78196 16.8257 10.1216 16.8209 10.5358L16.7528 16.4426C16.7492 16.757 16.5499 17.0357 16.2537 17.1408C15.9574 17.2459 15.627 17.1551 15.4261 16.9134L11.7711 12.5161L11.7265 16.3852C11.7217 16.7994 11.3821 17.1313 10.9679 17.1265C10.5537 17.1218 10.2218 16.7821 10.2266 16.3679L10.2947 10.4601C10.2983 10.1458 10.4976 9.86706 10.7939 9.76193Z" fill="black"/>
</svg>