<svg width="24" height="24" viewBox="0 0 24 24" fill="none" xmlns="http://www.w3.org/2000/svg">
<path fill-rule="evenodd" clip-rule="evenodd" d="M12 3.75C7.44329 3.75 3.75 7.44329 3.75 12C3.75 16.5567 7.44329 20.25 12 20.25C16.5567 20.25 20.25 16.5567 20.25 12C20.25 7.44329 16.5567 3.75 12 3.75ZM2.25 12C2.25 6.61487 6.61487 2.25 12 2.25C17.3851 2.25 21.75 6.61487 21.75 12C21.75 17.3851 17.3851 21.75 12 21.75C6.61487 21.75 2.25 17.3851 2.25 12Z" fill="black"/>
<path fill-rule="evenodd" clip-rule="evenodd" d="M7.10254 16.2773C7.10254 15.8631 7.43833 15.5273 7.85254 15.5273H9.537C9.95121 15.5273 10.287 15.8631 10.287 16.2773C10.287 16.6916 9.95121 17.0273 9.537 17.0273H7.85254C7.43833 17.0273 7.10254 16.6916 7.10254 16.2773Z" fill="black"/>
<path fill-rule="evenodd" clip-rule="evenodd" d="M8.69434 6.97266C9.10855 6.97266 9.44434 7.30844 9.44434 7.72266V16.2793C9.44434 16.6935 9.10855 17.0293 8.69434 17.0293C8.28012 17.0293 7.94434 16.6935 7.94434 16.2793V7.72266C7.94434 7.30844 8.28012 6.97266 8.69434 6.97266Z" fill="black"/>
<path fill-rule="evenodd" clip-rule="evenodd" d="M15.2934 6.97266C15.7076 6.97266 16.0434 7.30844 16.0434 7.72266V16.2802C16.0434 16.6944 15.7076 17.0302 15.2934 17.0302H13.8349C13.601 17.0302 13.3804 16.921 13.2386 16.7351L8.09807 9.99632C7.84684 9.66699 7.91016 9.19635 8.23949 8.94513C8.56883 8.69391 9.03946 8.75722 9.29068 9.08656L14.2061 15.5302H14.5434V7.72266C14.5434 7.30844 14.8791 6.97266 15.2934 6.97266Z" fill="black"/>
<path fill-rule="evenodd" clip-rule="evenodd" d="M7.10254 7.72266C7.10254 7.30844 7.43833 6.97266 7.85254 6.97266H10.293C10.5173 6.97266 10.7298 7.07302 10.8722 7.24623L15.873 13.3261C16.1361 13.646 16.0901 14.1186 15.7702 14.3817C15.4503 14.6449 14.9776 14.5988 14.7145 14.2789L9.93879 8.47266H7.85254C7.43833 8.47266 7.10254 8.13687 7.10254 7.72266Z" fill="black"/>
<path fill-rule="evenodd" clip-rule="evenodd" d="M13.7129 7.72266C13.7129 7.30844 14.0487 6.97266 14.4629 6.97266H16.1474C16.5616 6.97266 16.8974 7.30844 16.8974 7.72266C16.8974 8.13687 16.5616 8.47266 16.1474 8.47266H14.4629C14.0487 8.47266 13.7129 8.13687 13.7129 7.72266Z" fill="black"/>
</svg>