<svg width="24" height="24" viewBox="0 0 24 24" fill="none" xmlns="http://www.w3.org/2000/svg">
<path fill-rule="evenodd" clip-rule="evenodd" d="M3.7402 3.89737C4.72468 2.84117 6.12669 2.25 7.78216 2.25H16.2169C17.8762 2.25 19.2788 2.84084 20.2629 3.89765C21.2413 4.94841 21.75 6.39889 21.75 8.02638V15.9736C21.75 17.6011 21.2413 19.0516 20.2627 20.1024C19.2785 21.1592 17.8756 21.75 16.2159 21.75H7.78216C6.1228 21.75 4.72038 21.1591 3.73657 20.1023C2.75842 19.0515 2.25 17.601 2.25 15.9736V8.02638C2.25 6.39806 2.76117 4.94771 3.7402 3.89737ZM4.83745 4.92012C4.16024 5.64666 3.75 6.70951 3.75 8.02638V15.9736C3.75 17.2914 4.15861 18.3541 4.83451 19.0802C5.50475 19.8003 6.49341 20.25 7.78216 20.25H16.2159C17.5052 20.25 18.4944 19.8002 19.165 19.0801C19.8412 18.354 20.25 17.2913 20.25 15.9736V8.02638C20.25 6.70868 19.8412 5.64597 19.1651 4.91984C18.4946 4.19975 17.5056 3.75 16.2169 3.75H7.78216C6.49828 3.75 5.50921 4.19943 4.83745 4.92012Z" fill="black"/>
<path fill-rule="evenodd" clip-rule="evenodd" d="M8.73979 7.79659C9.03415 7.6877 9.36519 7.77361 9.56944 8.01191L14.25 13.4726V8.56851C14.25 8.1543 14.5858 7.81851 15 7.81851C15.4142 7.81851 15.75 8.1543 15.75 8.56851V15.5C15.75 15.8139 15.5546 16.0945 15.2602 16.2034C14.9658 16.3123 14.6348 16.2264 14.4306 15.9881L9.75 10.5274V15.4326C9.75 15.8469 9.41421 16.1826 9 16.1826C8.58579 16.1826 8.25 15.8469 8.25 15.4326V8.50001C8.25 8.18615 8.44543 7.90548 8.73979 7.79659Z" fill="black"/>
</svg>