<svg width="24" height="24" viewBox="0 0 24 24" fill="none" xmlns="http://www.w3.org/2000/svg">
<path fill-rule="evenodd" clip-rule="evenodd" d="M17.8375 20.5C17.2852 20.5 16.8375 20.0523 16.8375 19.5V8.72178C16.8375 8.16949 16.3898 7.72178 15.8375 7.72178H13.2448C12.6925 7.72178 12.2448 8.16949 12.2448 8.72178V19.5C12.2448 20.0523 11.7971 20.5 11.2448 20.5H5.5C4.39543 20.5 3.5 19.6046 3.5 18.5V5.5C3.5 4.39543 4.39543 3.5 5.5 3.5H18.5C19.6046 3.5 20.5 4.39543 20.5 5.5V19.5C20.5 20.0523 20.0523 20.5 19.5 20.5H17.8375Z" stroke="black" stroke-width="1.5" stroke-linecap="round" stroke-linejoin="round"/>
</svg>