<svg width="24" height="24" viewBox="0 0 24 24" fill="none" xmlns="http://www.w3.org/2000/svg">
<path fill-rule="evenodd" clip-rule="evenodd" d="M12 2.75C6.89137 2.75 2.75 6.89137 2.75 12C2.75 17.1086 6.89137 21.25 12 21.25C17.1086 21.25 21.25 17.1086 21.25 12C21.25 6.89137 17.1086 2.75 12 2.75ZM1.25 12C1.25 6.06294 6.06294 1.25 12 1.25C17.9371 1.25 22.75 6.06294 22.75 12C22.75 17.9371 17.9371 22.75 12 22.75C6.06294 22.75 1.25 17.9371 1.25 12Z" fill="black"/>
<path fill-rule="evenodd" clip-rule="evenodd" d="M8.47452 8.39862C8.28957 8.39862 8.13965 8.54855 8.13965 8.73349V15.2655C8.13965 15.4505 8.28957 15.6004 8.47452 15.6004H10.9575V10.4811C10.9575 9.7673 11.5361 9.18866 12.2499 9.18866H13.6563C14.3701 9.18866 14.9488 9.7673 14.9488 10.4811V15.6004H15.861V8.73349C15.861 8.54855 15.7111 8.39862 15.5262 8.39862H8.47452ZM6.63965 8.73349C6.63965 7.72012 7.46115 6.89862 8.47452 6.89862H15.5262C16.5395 6.89862 17.361 7.72012 17.361 8.73349V15.808C17.361 16.5218 16.7824 17.1004 16.0686 17.1004H14.7412C14.0274 17.1004 13.4488 16.5218 13.4488 15.808V10.6887H12.4575V15.808C12.4575 16.5218 11.8789 17.1004 11.1651 17.1004H8.47452C7.46115 17.1004 6.63965 16.2789 6.63965 15.2655V8.73349Z" fill="black"/>
</svg>