<svg width="25" height="25" viewBox="0 0 25 25" fill="none" xmlns="http://www.w3.org/2000/svg">
<path fill-rule="evenodd" clip-rule="evenodd" d="M13.0077 7.6899C13.288 7.80599 13.4707 8.07947 13.4707 8.38281V16.3828C13.4707 16.797 13.1349 17.1328 12.7207 17.1328C12.3065 17.1328 11.9707 16.797 11.9707 16.3828V10.1935L11.251 10.9131C10.9581 11.206 10.4833 11.206 10.1904 10.9131C9.89748 10.6202 9.89748 10.1454 10.1904 9.85248L12.1904 7.85248C12.4049 7.63798 12.7275 7.57382 13.0077 7.6899Z" fill="black"/>
<path fill-rule="evenodd" clip-rule="evenodd" d="M12.5 4.13281C7.94337 4.13281 4.25 7.82618 4.25 12.3828C4.25 16.9394 7.94337 20.6328 12.5 20.6328C17.0566 20.6328 20.75 16.9394 20.75 12.3828C20.75 7.82618 17.0566 4.13281 12.5 4.13281ZM2.75 12.3828C2.75 6.99776 7.11494 2.63281 12.5 2.63281C17.8851 2.63281 22.25 6.99776 22.25 12.3828C22.25 17.7679 17.8851 22.1328 12.5 22.1328C7.11494 22.1328 2.75 17.7679 2.75 12.3828Z" fill="black"/>
</svg>