<svg width="25" height="25" viewBox="0 0 25 25" fill="none" xmlns="http://www.w3.org/2000/svg">
<path fill-rule="evenodd" clip-rule="evenodd" d="M9.25 8.38281C9.25 7.9686 9.58579 7.63281 10 7.63281H15C15.238 7.63281 15.4619 7.74579 15.6033 7.93725C15.7447 8.1287 15.7868 8.37591 15.7168 8.6034L13.255 16.6034C13.1332 16.9993 12.7135 17.2215 12.3176 17.0996C11.9217 16.9778 11.6995 16.5581 11.8213 16.1622L13.9845 9.13281H10C9.58579 9.13281 9.25 8.79703 9.25 8.38281Z" fill="black"/>
<path fill-rule="evenodd" clip-rule="evenodd" d="M12.5 4.13281C7.94337 4.13281 4.25 7.82618 4.25 12.3828C4.25 16.9394 7.94337 20.6328 12.5 20.6328C17.0566 20.6328 20.75 16.9394 20.75 12.3828C20.75 7.82618 17.0566 4.13281 12.5 4.13281ZM2.75 12.3828C2.75 6.99776 7.11494 2.63281 12.5 2.63281C17.8851 2.63281 22.25 6.99776 22.25 12.3828C22.25 17.7679 17.8851 22.1328 12.5 22.1328C7.11494 22.1328 2.75 17.7679 2.75 12.3828Z" fill="black"/>
</svg>