<svg width="25" height="25" viewBox="0 0 25 25" fill="none" xmlns="http://www.w3.org/2000/svg">
<path fill-rule="evenodd" clip-rule="evenodd" d="M10.75 4.38281C10.75 3.9686 11.0858 3.63281 11.5 3.63281H14.5C14.6989 3.63281 14.8897 3.71183 15.0303 3.85248C15.171 3.99313 15.25 4.1839 15.25 4.38281V20.3828C15.25 20.797 14.9142 21.1328 14.5 21.1328C14.0858 21.1328 13.75 20.797 13.75 20.3828V5.13281H11.5C11.0858 5.13281 10.75 4.79703 10.75 4.38281Z" fill="black"/>
<path fill-rule="evenodd" clip-rule="evenodd" d="M11.25 20.3828C11.25 19.9686 11.5858 19.6328 12 19.6328H17C17.4142 19.6328 17.75 19.9686 17.75 20.3828C17.75 20.797 17.4142 21.1328 17 21.1328H12C11.5858 21.1328 11.25 20.797 11.25 20.3828Z" fill="black"/>
</svg>