<svg width="25" height="25" viewBox="0 0 25 25" fill="none" xmlns="http://www.w3.org/2000/svg">
<path fill-rule="evenodd" clip-rule="evenodd" d="M12.5003 9.13281C11.8891 9.13281 11.3936 9.62832 11.3936 10.2396C11.3936 10.8508 11.8891 11.3463 12.5003 11.3463C13.1116 11.3463 13.6071 10.8508 13.6071 10.2396C13.6071 9.62832 13.1116 9.13281 12.5003 9.13281ZM9.89355 10.2396C9.89355 8.7999 11.0606 7.63281 12.5003 7.63281C13.94 7.63281 15.1071 8.7999 15.1071 10.2396C15.1071 11.6792 13.94 12.8463 12.5003 12.8463C11.0606 12.8463 9.89355 11.6792 9.89355 10.2396Z" fill="black"/>
<path fill-rule="evenodd" clip-rule="evenodd" d="M12.4997 12.8477C11.7302 12.8477 11.1064 13.4714 11.1064 14.2409C11.1064 15.0104 11.7302 15.6341 12.4997 15.6341C13.2692 15.6341 13.8929 15.0104 13.8929 14.2409C13.8929 13.4714 13.2692 12.8477 12.4997 12.8477ZM9.60645 14.2409C9.60645 12.643 10.9018 11.3477 12.4997 11.3477C14.0976 11.3477 15.3929 12.643 15.3929 14.2409C15.3929 15.8388 14.0976 17.1341 12.4997 17.1341C10.9018 17.1341 9.60645 15.8388 9.60645 14.2409Z" fill="black"/>
<path fill-rule="evenodd" clip-rule="evenodd" d="M12.5 4.13281C7.94337 4.13281 4.25 7.82618 4.25 12.3828C4.25 16.9394 7.94337 20.6328 12.5 20.6328C17.0566 20.6328 20.75 16.9394 20.75 12.3828C20.75 7.82618 17.0566 4.13281 12.5 4.13281ZM2.75 12.3828C2.75 6.99776 7.11494 2.63281 12.5 2.63281C17.8851 2.63281 22.25 6.99776 22.25 12.3828C22.25 17.7679 17.8851 22.1328 12.5 22.1328C7.11494 22.1328 2.75 17.7679 2.75 12.3828Z" fill="black"/>
</svg>