<svg width="25" height="25" viewBox="0 0 25 25" fill="none" xmlns="http://www.w3.org/2000/svg">
<path fill-rule="evenodd" clip-rule="evenodd" d="M9.31584 4.24601C9.38173 3.89057 9.69179 3.63271 10.0533 3.63271H16.321C16.7352 3.63271 17.071 3.96849 17.071 4.38271C17.071 4.79692 16.7352 5.13271 16.321 5.13271H10.677L9.75725 10.0947C10.5567 9.80543 11.4356 9.64808 12.2006 9.64808C15.3954 9.64808 17.9999 12.211 17.9999 15.3904C17.9999 18.5699 15.3954 21.1328 12.2006 21.1328C9.9926 21.1328 8.07013 19.91 7.09093 18.1083C6.89314 17.7444 7.02782 17.289 7.39176 17.0912C7.7557 16.8934 8.21107 17.0281 8.40887 17.392C9.1331 18.7246 10.558 19.6328 12.2006 19.6328C14.5831 19.6328 16.4999 17.7254 16.4999 15.3904C16.4999 13.0554 14.5831 11.1481 12.2006 11.1481C11.1657 11.1481 9.89237 11.528 9.1962 12.0606C8.94973 12.2491 8.61261 12.2664 8.34814 12.1041C8.08367 11.9418 7.94649 11.6333 8.00305 11.3282L9.31584 4.24601Z" fill="black"/>
</svg>