<svg width="25" height="25" viewBox="0 0 25 25" fill="none" xmlns="http://www.w3.org/2000/svg">
<path fill-rule="evenodd" clip-rule="evenodd" d="M12.5001 5.13281C10.5463 5.13281 8.95996 6.71915 8.95996 8.6729C8.95996 9.08712 8.62417 9.4229 8.20996 9.4229C7.79575 9.4229 7.45996 9.08712 7.45996 8.6729C7.45996 5.89072 9.71787 3.63281 12.5001 3.63281C15.2822 3.63281 17.5401 5.89072 17.5401 8.6729C17.5401 10.2472 16.8985 11.4284 15.9957 12.3863C15.1998 13.2308 14.1697 13.9309 13.2041 14.5871C13.1102 14.6509 13.0168 14.7144 12.9244 14.7775C10.9669 16.1137 9.30964 17.3751 9.01087 19.6328H16.7901C17.2044 19.6328 17.5401 19.9686 17.5401 20.3828C17.5401 20.797 17.2044 21.1328 16.7901 21.1328H8.21291C7.7987 21.1328 7.46291 20.797 7.46291 20.3828C7.46291 16.7769 9.95428 14.9888 12.0787 13.5386C12.1654 13.4794 12.2515 13.4208 12.3368 13.3627C13.3345 12.6835 14.2272 12.0758 14.9042 11.3575C15.6096 10.609 16.0401 9.7795 16.0401 8.6729C16.0401 6.71915 14.4538 5.13281 12.5001 5.13281Z" fill="black"/>
</svg>