<svg width="25" height="25" viewBox="0 0 25 25" fill="none" xmlns="http://www.w3.org/2000/svg">
<path fill-rule="evenodd" clip-rule="evenodd" d="M6.65039 5.18281C6.65039 4.1887 7.45628 3.38281 8.45039 3.38281H16.5504C17.2507 3.38281 17.8875 3.78903 18.1827 4.42412C18.4779 5.05921 18.3779 5.80787 17.9264 6.34324L15.0804 9.71792C17.0074 10.7804 18.3375 12.7822 18.3375 15.1431C18.3375 18.6646 15.3791 21.3828 11.8968 21.3828C10.1401 21.3828 8.53585 20.6996 7.36602 19.5804C6.64769 18.8932 6.62246 17.7538 7.30967 17.0355C7.99689 16.3171 9.1363 16.2919 9.85463 16.9791C10.3667 17.469 11.0841 17.7828 11.8968 17.7828C13.5427 17.7828 14.7375 16.5278 14.7375 15.1431C14.7375 13.7572 13.5414 12.501 11.8968 12.501C11.1964 12.501 10.5597 12.0947 10.2645 11.4597C9.96927 10.8246 10.0693 10.0759 10.5208 9.54053L12.6778 6.98281H8.45039C7.45628 6.98281 6.65039 6.17693 6.65039 5.18281Z" stroke="black" stroke-width="1.5" stroke-linecap="round" stroke-linejoin="round"/>
</svg>