<svg width="25" height="25" viewBox="0 0 25 25" fill="none" xmlns="http://www.w3.org/2000/svg">
<path fill-rule="evenodd" clip-rule="evenodd" d="M4.24079 4.2797C5.22556 3.22365 6.62779 2.63281 8.28313 2.63281H16.7178C18.3771 2.63281 19.7795 3.22336 20.7634 4.28014C21.7416 5.33086 22.25 6.78137 22.25 8.40919V16.3564C22.25 17.9838 21.7416 19.4343 20.7633 20.4851C19.7793 21.542 18.3766 22.1328 16.7169 22.1328H8.28313C6.62379 22.1328 5.22117 21.542 4.23714 20.4852C3.25872 19.4344 2.75 17.9839 2.75 16.3564V8.40919C2.75 6.78033 3.26145 5.32993 4.24079 4.2797ZM5.33783 5.30269C4.66045 6.0291 4.25 7.09189 4.25 8.40919V16.3564C4.25 17.6741 4.65879 18.7368 5.33492 19.463C6.00542 20.1831 6.99437 20.6328 8.28313 20.6328H16.7169C18.0062 20.6328 18.9951 20.183 19.6654 19.463C20.3414 18.7369 20.75 17.6742 20.75 16.3564V8.40919C20.75 7.09085 20.3414 6.02817 19.6655 5.30224C18.9953 4.58238 18.0067 4.13281 16.7178 4.13281H8.28313C6.99913 4.13281 6.00979 4.58208 5.33783 5.30269Z" fill="black"/>
<path fill-rule="evenodd" clip-rule="evenodd" d="M9.25 8.38281C9.25 7.9686 9.58579 7.63281 10 7.63281H15C15.238 7.63281 15.4619 7.74579 15.6033 7.93725C15.7447 8.1287 15.7868 8.37591 15.7168 8.6034L13.255 16.6034C13.1332 16.9993 12.7135 17.2215 12.3176 17.0996C11.9217 16.9778 11.6995 16.5581 11.8213 16.1622L13.9845 9.13281H10C9.58579 9.13281 9.25 8.79703 9.25 8.38281Z" fill="black"/>
</svg>