<svg width="25" height="25" viewBox="0 0 25 25" fill="none" xmlns="http://www.w3.org/2000/svg">
<path fill-rule="evenodd" clip-rule="evenodd" d="M5.83594 9.2971C5.83594 5.61854 8.8179 2.63281 12.5002 2.63281H15.4193C16.8276 2.63281 17.9693 3.77449 17.9693 5.18281C17.9693 6.59114 16.8276 7.73281 15.4193 7.73281H12.5002C11.8085 7.73281 11.2217 8.18198 11.0152 8.80424H12.5002C16.1796 8.80424 19.1645 11.7891 19.1645 15.4685C19.1645 19.1508 16.1788 22.1328 12.5002 22.1328C8.81875 22.1328 5.83594 19.15 5.83594 15.4685V9.2971ZM12.5002 4.13281C9.64686 4.13281 7.33594 6.44643 7.33594 9.2971V15.4685C7.33594 18.3216 9.64718 20.6328 12.5002 20.6328C15.3509 20.6328 17.6645 18.3219 17.6645 15.4685C17.6645 12.6175 15.3512 10.3042 12.5002 10.3042H10.1859C9.77172 10.3042 9.43594 9.96845 9.43594 9.55424V9.2971C9.43594 7.60551 10.8074 6.23281 12.5002 6.23281H15.4193C15.9992 6.23281 16.4693 5.76271 16.4693 5.18281C16.4693 4.60291 15.9992 4.13281 15.4193 4.13281H12.5002Z" fill="black"/>
<path fill-rule="evenodd" clip-rule="evenodd" d="M9.43555 13.1562C9.43555 12.742 9.77133 12.4062 10.1855 12.4062H12.4998C14.191 12.4062 15.5641 13.7793 15.5641 15.4705C15.5641 17.1634 14.1914 18.5348 12.4998 18.5348C10.8066 18.5348 9.43555 17.1638 9.43555 15.4705V13.1562ZM10.9355 13.9062V15.4705C10.9355 16.3354 11.635 17.0348 12.4998 17.0348C13.3634 17.0348 14.0641 16.3346 14.0641 15.4705C14.0641 14.6078 13.3626 13.9062 12.4998 13.9062H10.9355Z" fill="black"/>
</svg>