<svg width="25" height="25" viewBox="0 0 25 25" fill="none" xmlns="http://www.w3.org/2000/svg">
<path d="M10.5007 10.3821C10.5007 9.2778 11.3957 8.38281 12.5 8.38281C13.6043 8.38281 14.4993 9.2778 14.4993 10.3821C14.4993 11.4864 13.6043 12.3828 12.5 12.3828C13.6057 12.3828 14.5 13.2778 14.5 14.3821C14.5 15.4878 13.605 16.3828 12.4993 16.3828C11.395 16.3828 10.5 15.4878 10.5 14.3821" stroke="black" stroke-width="1.5" stroke-linecap="round" stroke-linejoin="round"/>
<path opacity="0.4" d="M21.5 12.3828C21.5 7.41197 17.4708 3.38281 12.5 3.38281C7.52916 3.38281 3.5 7.41197 3.5 12.3828C3.5 17.3537 7.52916 21.3828 12.5 21.3828C17.4708 21.3828 21.5 17.3537 21.5 12.3828Z" stroke="black" stroke-width="1.5" stroke-linecap="round" stroke-linejoin="round"/>
</svg>