<svg width="25" height="25" viewBox="0 0 25 25" fill="none" xmlns="http://www.w3.org/2000/svg">
<path fill-rule="evenodd" clip-rule="evenodd" d="M4.24079 4.2797C5.22556 3.22365 6.62779 2.63281 8.28313 2.63281H16.7178C18.3771 2.63281 19.7795 3.22336 20.7634 4.28014C21.7416 5.33086 22.25 6.78137 22.25 8.40919V16.3564C22.25 17.9838 21.7416 19.4343 20.7633 20.4851C19.7793 21.542 18.3766 22.1328 16.7169 22.1328H8.28313C6.62379 22.1328 5.22117 21.542 4.23714 20.4852C3.25872 19.4344 2.75 17.9839 2.75 16.3564V8.40919C2.75 6.78033 3.26145 5.32993 4.24079 4.2797ZM5.33783 5.30269C4.66045 6.0291 4.25 7.09189 4.25 8.40919V16.3564C4.25 17.6741 4.65879 18.7368 5.33492 19.463C6.00542 20.1831 6.99437 20.6328 8.28313 20.6328H16.7169C18.0062 20.6328 18.9951 20.183 19.6654 19.463C20.3414 18.7369 20.75 17.6742 20.75 16.3564V8.40919C20.75 7.09085 20.3414 6.02817 19.6655 5.30224C18.9953 4.58238 18.0067 4.13281 16.7178 4.13281H8.28313C6.99913 4.13281 6.00979 4.58208 5.33783 5.30269Z" fill="black"/>
<path fill-rule="evenodd" clip-rule="evenodd" d="M12.4995 9.13281C11.7298 9.13281 11.1045 9.75809 11.1045 10.5279C11.1045 10.9421 10.7687 11.2779 10.3545 11.2779C9.94028 11.2779 9.60449 10.9421 9.60449 10.5279C9.60449 8.92966 10.9013 7.63281 12.4995 7.63281C14.0977 7.63281 15.3946 8.92966 15.3946 10.5279C15.3946 11.432 15.021 12.1105 14.5203 12.6418C14.0923 13.0958 13.5424 13.4692 13.0656 13.793C13.0173 13.8258 12.9697 13.8581 12.9231 13.8899C12.0954 14.4549 11.4785 14.932 11.2283 15.6328H14.6446C15.0588 15.6328 15.3946 15.9686 15.3946 16.3828C15.3946 16.797 15.0588 17.1328 14.6446 17.1328H10.356C9.94175 17.1328 9.60597 16.797 9.60597 16.3828C9.60597 14.3639 11.0252 13.3693 12.0774 12.651C12.1178 12.6234 12.1576 12.5963 12.1968 12.5696C12.707 12.222 13.1196 11.9409 13.4287 11.613C13.7321 11.291 13.8946 10.9642 13.8946 10.5279C13.8946 9.75809 13.2693 9.13281 12.4995 9.13281Z" fill="black"/>
</svg>