<svg width="25" height="25" viewBox="0 0 25 25" fill="none" xmlns="http://www.w3.org/2000/svg">
<path fill-rule="evenodd" clip-rule="evenodd" d="M12.4995 9.13281C11.7298 9.13281 11.1045 9.75809 11.1045 10.5279C11.1045 10.9421 10.7687 11.2779 10.3545 11.2779C9.94028 11.2779 9.60449 10.9421 9.60449 10.5279C9.60449 8.92966 10.9013 7.63281 12.4995 7.63281C14.0977 7.63281 15.3946 8.92966 15.3946 10.5279C15.3946 11.432 15.021 12.1105 14.5203 12.6418C14.0923 13.0958 13.5424 13.4692 13.0656 13.793C13.0173 13.8258 12.9697 13.8581 12.9231 13.8899C12.0954 14.4549 11.4785 14.932 11.2283 15.6328H14.6446C15.0588 15.6328 15.3946 15.9686 15.3946 16.3828C15.3946 16.797 15.0588 17.1328 14.6446 17.1328H10.356C9.94175 17.1328 9.60597 16.797 9.60597 16.3828C9.60597 14.3639 11.0252 13.3693 12.0774 12.651C12.1178 12.6234 12.1576 12.5963 12.1968 12.5696C12.707 12.222 13.1196 11.9409 13.4287 11.613C13.7321 11.291 13.8946 10.9642 13.8946 10.5279C13.8946 9.75809 13.2693 9.13281 12.4995 9.13281Z" fill="black"/>
<path fill-rule="evenodd" clip-rule="evenodd" d="M12.5 4.13281C7.94337 4.13281 4.25 7.82618 4.25 12.3828C4.25 16.9394 7.94337 20.6328 12.5 20.6328C17.0566 20.6328 20.75 16.9394 20.75 12.3828C20.75 7.82618 17.0566 4.13281 12.5 4.13281ZM2.75 12.3828C2.75 6.99776 7.11494 2.63281 12.5 2.63281C17.8851 2.63281 22.25 6.99776 22.25 12.3828C22.25 17.7679 17.8851 22.1328 12.5 22.1328C7.11494 22.1328 2.75 17.7679 2.75 12.3828Z" fill="black"/>
</svg>