<svg width="25" height="25" viewBox="0 0 25 25" fill="none" xmlns="http://www.w3.org/2000/svg">
<path fill-rule="evenodd" clip-rule="evenodd" d="M6.75 4.38281C6.75 3.9686 7.08579 3.63281 7.5 3.63281H17.5C17.758 3.63281 17.9979 3.76543 18.1351 3.98393C18.2724 4.20242 18.2876 4.47611 18.1756 4.70852C15.2774 10.7201 13.946 14.0753 13.3228 20.4557C13.2825 20.868 12.9157 21.1695 12.5034 21.1293C12.0912 21.089 11.7896 20.7222 11.8299 20.3099C12.4382 14.0824 13.7211 10.5846 16.3094 5.13281H8.25V8.27854C8.25 8.69276 7.91421 9.02854 7.5 9.02854C7.08579 9.02854 6.75 8.69276 6.75 8.27854V4.38281Z" fill="black"/>
</svg>