<svg width="25" height="25" viewBox="0 0 25 25" fill="none" xmlns="http://www.w3.org/2000/svg">
<path fill-rule="evenodd" clip-rule="evenodd" d="M7.75141 8.38137C7.75141 5.75857 9.87717 3.63281 12.5 3.63281C15.1228 3.63281 17.2485 5.75857 17.2485 8.38137C17.2485 10.0599 16.3777 11.5365 15.0628 12.3819C16.3789 13.2261 17.25 14.7018 17.25 16.3814C17.25 19.0071 15.1243 21.1328 12.4986 21.1328C9.8754 21.1328 7.75 19.0067 7.75 16.3814C7.75 15.9672 8.08579 15.6314 8.5 15.6314C8.91421 15.6314 9.25 15.9672 9.25 16.3814C9.25 18.179 10.7045 19.6328 12.4986 19.6328C14.2958 19.6328 15.75 18.1786 15.75 16.3814C15.75 14.587 14.2972 13.1328 12.5 13.1328C12.0858 13.1328 11.75 12.797 11.75 12.3828C11.75 11.9686 12.0858 11.6328 12.5 11.6328C14.2936 11.6328 15.7485 10.1765 15.7485 8.38137C15.7485 6.587 14.2943 5.13281 12.5 5.13281C10.7056 5.13281 9.25141 6.587 9.25141 8.38137C9.25141 8.79559 8.91562 9.13137 8.50141 9.13137C8.0872 9.13137 7.75141 8.79559 7.75141 8.38137Z" fill="black"/>
</svg>