<svg width="25" height="25" viewBox="0 0 25 25" fill="none" xmlns="http://www.w3.org/2000/svg">
<path fill-rule="evenodd" clip-rule="evenodd" d="M4.24079 4.2797C5.22556 3.22365 6.62779 2.63281 8.28313 2.63281H16.7178C18.3771 2.63281 19.7795 3.22336 20.7634 4.28014C21.7416 5.33086 22.25 6.78137 22.25 8.40919V16.3564C22.25 17.9838 21.7416 19.4343 20.7633 20.4851C19.7793 21.542 18.3766 22.1328 16.7169 22.1328H8.28313C6.62379 22.1328 5.22117 21.542 4.23714 20.4852C3.25872 19.4344 2.75 17.9839 2.75 16.3564V8.40919C2.75 6.78033 3.26145 5.32993 4.24079 4.2797ZM5.33783 5.30269C4.66045 6.0291 4.25 7.09189 4.25 8.40919V16.3564C4.25 17.6741 4.65879 18.7368 5.33492 19.463C6.00542 20.1831 6.99437 20.6328 8.28313 20.6328H16.7169C18.0062 20.6328 18.9951 20.183 19.6654 19.463C20.3414 18.7369 20.75 17.6742 20.75 16.3564V8.40919C20.75 7.09085 20.3414 6.02817 19.6655 5.30224C18.9953 4.58238 18.0067 4.13281 16.7178 4.13281H8.28313C6.99913 4.13281 6.00979 4.58208 5.33783 5.30269Z" fill="black"/>
<path fill-rule="evenodd" clip-rule="evenodd" d="M9.75071 10.3821C9.75071 8.86358 10.9815 7.63281 12.5 7.63281C14.0185 7.63281 15.2493 8.86358 15.2493 10.3821C15.2493 11.1696 14.9182 11.8803 14.3874 12.382C14.9186 12.8833 15.25 13.5939 15.25 14.3821C15.25 15.902 14.0192 17.1328 12.4993 17.1328C10.9804 17.1328 9.75 15.9017 9.75 14.3821C9.75 13.9679 10.0858 13.6321 10.5 13.6321C10.9142 13.6321 11.25 13.9679 11.25 14.3821C11.25 15.074 11.8096 15.6328 12.4993 15.6328C13.1908 15.6328 13.75 15.0736 13.75 14.3821C13.75 13.692 13.1915 13.1328 12.5 13.1328C12.0858 13.1328 11.75 12.797 11.75 12.3828C11.75 11.9686 12.0858 11.6328 12.5 11.6328C13.1894 11.6328 13.7493 11.0729 13.7493 10.3821C13.7493 9.69201 13.1901 9.13281 12.5 9.13281C11.8099 9.13281 11.2507 9.69201 11.2507 10.3821C11.2507 10.7963 10.9149 11.1321 10.5007 11.1321C10.0865 11.1321 9.75071 10.7963 9.75071 10.3821Z" fill="black"/>
</svg>