<svg width="24" height="24" viewBox="0 0 24 24" fill="none" xmlns="http://www.w3.org/2000/svg">
<path d="M11.2975 5.08203C7.30212 5.56736 4.29201 8.94957 4.27352 12.9742C4.25504 16.9989 7.23397 20.4086 11.2247 20.9306C15.2154 21.4526 18.9711 18.9238 19.9884 15.0298" stroke="black" stroke-width="1.5" stroke-linecap="round" stroke-linejoin="round"/>
<path d="M12.2602 20.9966V10.0156L4.41602 14.3527" stroke="black" stroke-width="1.5" stroke-linecap="round" stroke-linejoin="round"/>
<path d="M17.4929 3.17609C18.8712 3.17609 19.9886 4.29344 19.9886 5.67177C19.9886 6.49401 19.5909 7.22339 18.9774 7.67808C15.1902 10.4851 9.55147 0.428374 5.05635 3.64066C4.51355 4.02855 4.12991 4.63039 4.03386 5.33434C3.86486 6.57279 4.6381 7.74525 5.84304 8.0776" stroke="black" stroke-width="1.5" stroke-linecap="round" stroke-linejoin="round"/>
<path d="M9.26562 11.793L9.26563 20.2666" stroke="black" stroke-width="1.5" stroke-linecap="round" stroke-linejoin="round"/>
<path d="M16.2494 12.8251V12.876M16.4553 12.8361C16.4553 12.9505 16.3625 13.0432 16.2481 13.0432C16.1337 13.0432 16.041 12.9505 16.041 12.8361C16.041 12.7216 16.1337 12.6289 16.2481 12.6289C16.3625 12.6289 16.4553 12.7216 16.4553 12.8361Z" stroke="black" stroke-width="1.5" stroke-linecap="round" stroke-linejoin="round"/>
</svg>