<svg width="24" height="24" viewBox="0 0 24 24" fill="none" xmlns="http://www.w3.org/2000/svg">
<path fill-rule="evenodd" clip-rule="evenodd" d="M12.042 4.99167C12.0919 5.40286 11.7991 5.77669 11.3879 5.82663C7.76773 6.26639 5.04026 9.33101 5.02352 12.9778C5.00677 16.6245 7.70597 19.7141 11.322 20.1871C14.938 20.66 18.341 18.3687 19.2628 14.8403C19.3675 14.4396 19.7772 14.1995 20.178 14.3042C20.5788 14.4089 20.8188 14.8187 20.7141 15.2195C19.6012 19.4791 15.4929 22.2454 11.1274 21.6744C6.76196 21.1034 3.50331 17.3735 3.52353 12.9709C3.54375 8.56828 6.83652 4.86848 11.207 4.33758C11.6182 4.28763 11.992 4.58048 12.042 4.99167Z" fill="black"/>
<path fill-rule="evenodd" clip-rule="evenodd" d="M12.6413 9.36961C12.87 9.50447 13.0103 9.75016 13.0103 10.0156V20.9966C13.0103 21.4108 12.6745 21.7466 12.2603 21.7466C11.8461 21.7466 11.5103 21.4108 11.5103 20.9966V11.2873L4.77905 15.009C4.41656 15.2095 3.96022 15.0781 3.7598 14.7156C3.55937 14.3531 3.69076 13.8967 4.05325 13.6963L11.8974 9.35927C12.1297 9.23082 12.4126 9.23475 12.6413 9.36961Z" fill="black"/>
<path fill-rule="evenodd" clip-rule="evenodd" d="M16.1388 7.09322C17.1532 7.53959 17.8941 7.54748 18.5309 7.07552C18.9617 6.7562 19.2386 6.24639 19.2386 5.67175C19.2386 4.70764 18.4571 3.92607 17.4929 3.92607C17.0787 3.92607 16.7429 3.59029 16.7429 3.17607C16.7429 2.76186 17.0787 2.42607 17.4929 2.42607C19.2855 2.42607 20.7386 3.87921 20.7386 5.67175C20.7386 6.74162 20.2202 7.69055 19.4241 8.28061C18.1672 9.21215 16.7832 9.01557 15.5346 8.46617C14.4126 7.97243 13.2441 7.12774 12.1378 6.32801C12.0393 6.25684 11.9413 6.18603 11.844 6.11586C10.6074 5.22481 9.44448 4.42113 8.33723 4.01522C7.27016 3.62403 6.35407 3.63514 5.49247 4.25085C5.1118 4.52288 4.84419 4.94352 4.77703 5.43573C4.65882 6.302 5.19969 7.12212 6.04252 7.35459C6.44182 7.46473 6.67623 7.87771 6.5661 8.27701C6.45596 8.67631 6.04298 8.91073 5.64368 8.80059C4.07663 8.36837 3.07102 6.84355 3.2908 5.23292C3.41575 4.31724 3.91542 3.53419 4.62035 3.03044C6.00632 2.04001 7.48073 2.1036 8.85353 2.60687C10.1862 3.09541 11.5125 4.02817 12.7209 4.89888C12.8084 4.96198 12.8954 5.02474 12.9817 5.08706C14.1307 5.91649 15.1705 6.66711 16.1388 7.09322Z" fill="black"/>
<path fill-rule="evenodd" clip-rule="evenodd" d="M9.26562 11.043C9.67984 11.043 10.0156 11.3788 10.0156 11.793L10.0156 20.2666C10.0156 20.6808 9.67984 21.0166 9.26562 21.0166C8.85141 21.0166 8.51563 20.6808 8.51563 20.2666L8.51562 11.793C8.51562 11.3788 8.85141 11.043 9.26562 11.043Z" fill="black"/>
<path fill-rule="evenodd" clip-rule="evenodd" d="M15.291 12.8361C15.291 12.3077 15.7193 11.8789 16.2481 11.8789C16.7764 11.8789 17.2053 12.3071 17.2053 12.8361C17.2053 13.365 16.7764 13.7932 16.2481 13.7932C15.7192 13.7932 15.291 13.3644 15.291 12.8361Z" fill="black"/>
</svg>