<svg width="25" height="24" viewBox="0 0 25 24" fill="none" xmlns="http://www.w3.org/2000/svg">
<path d="M11.668 15.0533C11.2539 15.0533 10.918 14.7173 10.918 14.3033V9.2583C10.918 8.8443 11.2539 8.5083 11.668 8.5083H14.1909C14.605 8.5083 14.9409 8.8443 14.9409 9.2583C14.9409 9.67328 14.605 10.0083 14.1909 10.0083H12.418V11.0313H13.8301C14.2441 11.0313 14.5801 11.3663 14.5801 11.7813C14.5801 12.1953 14.2441 12.5313 13.8301 12.5313H12.418V14.3033C12.418 14.7173 12.083 15.0533 11.668 15.0533Z" fill="black"/>
<path d="M16.2681 15.0533C15.854 15.0533 15.5181 14.7173 15.5181 14.3033V9.2583C15.5181 8.8443 15.854 8.5083 16.2681 8.5083H18.791C19.2051 8.5083 19.541 8.8443 19.541 9.2583C19.541 9.67328 19.2051 10.0083 18.791 10.0083H17.0181V11.0313H18.4277C18.8428 11.0313 19.1777 11.3663 19.1777 11.7813C19.1777 12.1953 18.8428 12.5313 18.4277 12.5313H17.0181V14.3033C17.0181 14.7173 16.6831 15.0533 16.2681 15.0533Z" fill="black"/>
<path fill-rule="evenodd" clip-rule="evenodd" d="M7.33496 8.59729C9.01025 8.59729 10.21 10.0973 10.21 11.7523C10.21 13.4083 9.01025 14.9083 7.33496 14.9083C5.66016 14.9083 4.45898 13.4083 4.45898 11.7523C4.45898 10.0973 5.66016 8.59729 7.33496 8.59729ZM8.70996 11.7523C8.70996 10.7463 8.01221 10.0973 7.33496 10.0973C6.65723 10.0973 5.95898 10.7463 5.95898 11.7523C5.95898 12.7593 6.65723 13.4083 7.33496 13.4083C8.01221 13.4083 8.70996 12.7593 8.70996 11.7523Z" fill="black"/>
<path fill-rule="evenodd" clip-rule="evenodd" d="M2.62891 4.30432C3.54102 3.32434 4.83984 2.77832 6.36914 2.77832H17.6299C19.1621 2.77832 20.4609 3.32434 21.374 4.30432C22.2812 5.27832 22.75 6.6203 22.75 8.1203V15.3803C22.75 16.8803 22.2812 18.2223 21.374 19.1963C20.4609 20.1763 19.1611 20.7223 17.6289 20.7223H6.36914C4.83691 20.7223 3.53809 20.1763 2.625 19.1963C1.71924 18.2223 1.25 16.8803 1.25 15.3803V8.1203C1.25 6.61932 1.72119 5.27734 2.62891 4.30432ZM3.72607 5.32629C3.12012 5.97632 2.75 6.93127 2.75 8.1203V15.3803C2.75 16.5703 3.11914 17.5253 3.72314 18.1743C4.32227 18.8173 5.20801 19.2223 6.36914 19.2223H17.6289C18.791 19.2223 19.6768 18.8173 20.2759 18.1743C20.8809 17.5243 21.25 16.5703 21.25 15.3803V8.1203C21.25 6.9303 20.8809 5.97632 20.2759 5.32629C19.6768 4.68329 18.791 4.27832 17.6299 4.27832H6.36914C5.21191 4.27832 4.32617 4.68231 3.72607 5.32629Z" fill="black"/>
</svg>