<svg width="24" height="24" viewBox="0 0 24 24" fill="none" xmlns="http://www.w3.org/2000/svg">
<path fill-rule="evenodd" clip-rule="evenodd" d="M14.0336 2.29599C14.1887 2.23903 14.3582 2.23486 14.5159 2.28414L19.6688 3.89441C19.9819 3.99226 20.1951 4.28223 20.1951 4.61027V19.38C20.1951 19.7076 19.9825 19.9972 19.67 20.0955L14.5171 21.7155C14.3603 21.7648 14.1917 21.7612 14.0371 21.7053L4.46698 18.2444C4.1249 18.1207 3.92091 17.7694 3.98307 17.411C4.04522 17.0526 4.35561 16.7904 4.71936 16.7891L13.5072 16.7578V7.6398L8.65074 8.98159V14.1512C8.65074 14.4465 8.47754 14.7142 8.20826 14.8353L4.8622 16.3395C4.63013 16.4438 4.36099 16.4234 4.14734 16.2852C3.9337 16.147 3.80469 15.9099 3.80469 15.6555V6.57665C3.80469 6.26216 4.00089 5.98107 4.2961 5.87264L14.0336 2.29599ZM14.3117 3.79185L5.30469 7.10016V14.496L7.15074 13.6661V8.4107C7.15074 8.07341 7.3759 7.77761 7.70101 7.68779L14.0574 5.93157C14.2832 5.8692 14.5251 5.91586 14.7114 6.0577C14.8978 6.19955 15.0072 6.4203 15.0072 6.65449V17.5051C15.0072 17.9182 14.673 18.2536 14.2599 18.2551L8.95953 18.274L14.309 20.2085L18.6951 18.8296V5.16166L14.3117 3.79185Z" fill="black"/>
</svg>