<svg width="24" height="24" viewBox="0 0 24 24" fill="none" xmlns="http://www.w3.org/2000/svg">
<path d="M9 10C9 9.44772 9.44772 9 10 9H14C14.5523 9 15 9.44772 15 10V14C15 14.5523 14.5523 15 14 15H10C9.44772 15 9 14.5523 9 14V10Z" stroke="black" stroke-width="1.5" stroke-linecap="round" stroke-linejoin="round"/>
<path d="M15 16C15 15.4477 15.4477 15 16 15H20C20.5523 15 21 15.4477 21 16V20C21 20.5523 20.5523 21 20 21H16C15.4477 21 15 20.5523 15 20V16Z" stroke="black" stroke-width="1.5" stroke-linecap="round" stroke-linejoin="round"/>
<path d="M9 16C9 15.4477 8.55228 15 8 15H4C3.44772 15 3 15.4477 3 16V20C3 20.5523 3.44772 21 4 21H8C8.55228 21 9 20.5523 9 20V16Z" stroke="black" stroke-width="1.5" stroke-linecap="round" stroke-linejoin="round"/>
<path d="M3 4C3 3.44772 3.44772 3 4 3H8C8.55228 3 9 3.44772 9 4V8C9 8.55228 8.55228 9 8 9H4C3.44772 9 3 8.55228 3 8V4Z" stroke="black" stroke-width="1.5" stroke-linecap="round" stroke-linejoin="round"/>
<path d="M21 4C21 3.44772 20.5523 3 20 3H16C15.4477 3 15 3.44772 15 4V8C15 8.55228 15.4477 9 16 9H20C20.5523 9 21 8.55228 21 8V4Z" stroke="black" stroke-width="1.5" stroke-linecap="round" stroke-linejoin="round"/>
</svg>