<svg width="24" height="24" viewBox="0 0 24 24" fill="none" xmlns="http://www.w3.org/2000/svg">
<path opacity="0.4" d="M13.63 6.90869H16.97C19.47 6.90869 21.5 8.93869 21.5 11.4387V16.8987C21.5 19.3887 19.47 21.4187 16.97 21.4187H7.03C4.53 21.4187 2.5 19.3887 2.5 16.8987V11.4387C2.5 8.93869 4.53 6.90869 7.03 6.90869H10.29H13.63Z" fill="black"/>
<path d="M12 15.1885C12.41 15.1885 12.75 14.8585 12.75 14.4385V11.2285C12.75 10.8185 12.41 10.4785 12 10.4785C11.59 10.4785 11.25 10.8185 11.25 11.2285V14.4385C11.25 14.8585 11.59 15.1885 12 15.1885Z" fill="black"/>
<path d="M12 17.8085C12.41 17.8085 12.75 17.4685 12.75 17.0585V17.0485C12.75 16.6285 12.41 16.2985 12 16.2985C11.59 16.2985 11.25 16.6385 11.25 17.0585C11.25 17.4685 11.59 17.8085 12 17.8085Z" fill="black"/>
<path d="M17.051 3.88965L13.681 6.90565H10.345L7.05397 3.88365C6.74797 3.60365 6.72797 3.12865 7.00897 2.82365C7.28997 2.51765 7.76297 2.49865 8.06797 2.77865L12.004 6.39365L16.051 2.77165C16.359 2.49465 16.833 2.52265 17.11 2.83065C17.386 3.13965 17.359 3.61365 17.051 3.88965Z" fill="black"/>
</svg>