<svg width="25" height="24" viewBox="0 0 25 24" fill="none" xmlns="http://www.w3.org/2000/svg">
<path d="M13.7607 14.8463C13.3472 14.8463 13.0107 14.5113 13.0107 14.0963V9.47229C13.0107 9.14929 13.2168 8.86328 13.522 8.76129C13.8271 8.65826 14.1641 8.76233 14.3589 9.01831L16.416 11.7313V9.34229C16.416 8.92828 16.752 8.59229 17.166 8.59229C17.5811 8.59229 17.916 8.92828 17.916 9.34229V13.9623C17.916 14.2843 17.7109 14.5713 17.4048 14.6733C17.1001 14.7763 16.7632 14.6723 16.5688 14.4163L14.5107 11.7024V14.0963C14.5107 14.5113 14.1748 14.8463 13.7607 14.8463Z" fill="black"/>
<path fill-rule="evenodd" clip-rule="evenodd" d="M8.95898 8.59729C10.6338 8.59729 11.834 10.0973 11.834 11.7523C11.834 13.4083 10.6338 14.9083 8.95898 14.9083C7.28418 14.9083 6.08301 13.4083 6.08301 11.7523C6.08301 10.0973 7.28418 8.59729 8.95898 8.59729ZM10.334 11.7523C10.334 10.7463 9.63623 10.0973 8.95898 10.0973C8.28125 10.0973 7.58301 10.7463 7.58301 11.7523C7.58301 12.7593 8.28125 13.4083 8.95898 13.4083C9.63623 13.4083 10.334 12.7593 10.334 11.7523Z" fill="black"/>
<path fill-rule="evenodd" clip-rule="evenodd" d="M2.62891 4.30432C3.54102 3.32434 4.83984 2.77832 6.36914 2.77832H17.6299C19.1621 2.77832 20.4609 3.32434 21.374 4.30432C22.2808 5.27832 22.75 6.6203 22.75 8.1203V15.3803C22.75 16.8803 22.2808 18.2223 21.374 19.1963C20.4609 20.1763 19.1611 20.7223 17.6289 20.7223H6.36914C4.83691 20.7223 3.53809 20.1763 2.625 19.1963C1.71924 18.2223 1.25 16.8803 1.25 15.3803V8.1203C1.25 6.61932 1.72119 5.27734 2.62891 4.30432ZM3.72607 5.32629C3.12012 5.97632 2.75 6.93127 2.75 8.1203V15.3803C2.75 16.5703 3.11914 17.5253 3.72314 18.1743C4.32178 18.8173 5.20801 19.2223 6.36914 19.2223H17.6289C18.791 19.2223 19.6768 18.8173 20.2759 18.1743C20.8809 17.5243 21.25 16.5703 21.25 15.3803V8.1203C21.25 6.9303 20.8809 5.97632 20.2759 5.32629C19.6768 4.68329 18.791 4.27832 17.6299 4.27832H6.36914C5.21191 4.27832 4.32617 4.68231 3.72607 5.32629Z" fill="black"/>
</svg>