<svg width="24" height="24" viewBox="0 0 24 24" fill="none" xmlns="http://www.w3.org/2000/svg">
<path d="M8.52986 13.9855C9.57765 13.9855 10.4269 13.1362 10.4269 12.0885C10.4269 11.0407 9.57765 10.1914 8.52986 10.1914C7.48208 10.1914 6.63281 11.0407 6.63281 12.0885C6.63281 13.1362 7.48208 13.9855 8.52986 13.9855Z" stroke="black" stroke-width="1.5" stroke-linecap="round" stroke-linejoin="round"/>
<path d="M12.6949 7.05746C11.5646 6.12074 10.1133 5.55772 8.53047 5.55772C4.92353 5.55772 2 8.48126 2 12.0882C2 15.6951 4.92353 18.6187 8.53047 18.6187C11.2299 18.6187 13.6044 16.9471 14.5993 14.6112C18.4132 14.6112 19.3504 11.7833 19.7901 10.3693C18.4254 10.7074 17.4403 10.6719 16.2305 10.3012C17.2326 10.2114 21.1147 8.81632 22 5.37891H16.8024C14.4433 5.37891 12.3567 6.90878 11.6472 9.15862L8.66871 18.6034" stroke="black" stroke-width="1.5" stroke-linecap="round" stroke-linejoin="round"/>
</svg>