<svg width="24" height="24" viewBox="0 0 24 24" fill="none" xmlns="http://www.w3.org/2000/svg">
<path fill-rule="evenodd" clip-rule="evenodd" d="M8.52986 10.9414C7.89629 10.9414 7.38281 11.4549 7.38281 12.0885C7.38281 12.722 7.89629 13.2355 8.52986 13.2355C9.16343 13.2355 9.67691 12.722 9.67691 12.0885C9.67691 11.4549 9.16343 10.9414 8.52986 10.9414ZM5.88281 12.0885C5.88281 10.6265 7.06786 9.44141 8.52986 9.44141C9.99186 9.44141 11.1769 10.6265 11.1769 12.0885C11.1769 13.5505 9.99186 14.7355 8.52986 14.7355C7.06786 14.7355 5.88281 13.5505 5.88281 12.0885Z" fill="black"/>
<path fill-rule="evenodd" clip-rule="evenodd" d="M12.7478 6.15284C13.844 5.19362 15.2729 4.62891 16.8024 4.62891H22C22.2319 4.62891 22.4507 4.73617 22.5928 4.91945C22.7348 5.10272 22.7841 5.34141 22.7263 5.56596C22.2406 7.45165 20.9727 8.76758 19.72 9.62257C19.9479 9.60115 20.1758 9.68518 20.3357 9.85474C20.5214 10.0517 20.5866 10.3335 20.5062 10.592C20.2863 11.2995 19.9055 12.498 19.0268 13.5117C18.1884 14.479 16.9371 15.2348 15.0829 15.3469C13.8754 17.7165 11.3669 19.3687 8.53047 19.3687C4.50932 19.3687 1.25 16.1093 1.25 12.0882C1.25 8.06704 4.50932 4.80772 8.53047 4.80772C10.1017 4.80772 11.5579 5.30608 12.7478 6.15284ZM11.741 7.28034C10.8228 6.66576 9.71919 6.30772 8.53047 6.30772C5.33775 6.30772 2.75 8.89547 2.75 12.0882C2.75 15.1424 5.11811 17.643 8.11857 17.8542L10.9319 8.93306C11.1211 8.33327 11.3962 7.77842 11.741 7.28034ZM9.72642 17.7431C11.6047 17.3445 13.179 16.032 13.9093 14.3173C14.0271 14.0407 14.2986 13.8612 14.5993 13.8612C16.2901 13.8612 17.2706 13.2476 17.8933 12.5293C18.2181 12.1546 18.4574 11.7382 18.643 11.3274C17.7434 11.4058 16.9285 11.2995 16.0108 11.0183C15.6679 10.9132 15.4473 10.5801 15.4846 10.2233C15.5218 9.86663 15.8064 9.58619 16.1636 9.55419C16.5142 9.52278 17.6187 9.20725 18.7483 8.46789C19.6103 7.90369 20.4241 7.13361 20.9238 6.12891H16.8024C14.7706 6.12891 12.9735 7.44651 12.3625 9.38419L9.72642 17.7431Z" fill="black"/>
</svg>