<svg width="24" height="24" viewBox="0 0 24 24" fill="none" xmlns="http://www.w3.org/2000/svg">
<path fill-rule="evenodd" clip-rule="evenodd" d="M12.2915 2.375C11.1712 2.375 10.262 3.28255 10.262 4.40451C10.262 4.65335 10.3068 4.89174 10.3888 5.11206L7.13065 8.5601C7.12564 8.5654 7.12072 8.57076 7.11589 8.57617H7.08049C5.92078 8.57617 4.94071 8.9903 4.25304 9.72843C3.56904 10.4626 3.21094 11.4774 3.21094 12.6189V17.5823C3.21094 18.7236 3.5672 19.7385 4.25068 20.4729C4.93793 21.2114 5.91827 21.625 7.08049 21.625H16.9157C18.0783 21.625 19.0593 21.2115 19.7472 20.4731C20.4313 19.7388 20.7882 18.7238 20.7882 17.5823V12.6189C20.7882 11.4778 20.4313 10.4629 19.7474 9.7285C19.1764 9.11543 18.4035 8.72605 17.4924 8.61152C17.4787 8.59412 17.4641 8.57718 17.4486 8.56076L14.1959 5.11015C14.2774 4.89038 14.322 4.65265 14.322 4.40451C14.322 3.28218 13.4123 2.375 12.2915 2.375ZM15.4017 8.57617L13.1869 6.22654C12.9168 6.3594 12.6128 6.43403 12.2915 6.43403C11.9711 6.43403 11.668 6.35974 11.3986 6.22745L9.17919 8.57617H15.4017ZM11.8538 4.7024C11.8789 4.7283 11.9018 4.75559 11.9224 4.78402C12.0178 4.87683 12.148 4.93403 12.2915 4.93403C12.4429 4.93403 12.5792 4.87081 12.6757 4.76955C12.6894 4.75162 12.704 4.73417 12.7196 4.71728C12.784 4.62957 12.822 4.52138 12.822 4.40451C12.822 4.11209 12.5854 3.875 12.2915 3.875C11.9989 3.875 11.762 4.11172 11.762 4.40451C11.762 4.51493 11.7959 4.6175 11.8538 4.7024ZM9.42969 12.2932C9.8439 12.2932 10.1797 12.6289 10.1797 13.0432V13.0532C10.1797 13.4674 9.8439 13.8032 9.42969 13.8032C9.01547 13.8032 8.67969 13.4674 8.67969 13.0532V13.0432C8.67969 12.6289 9.01547 12.2932 9.42969 12.2932ZM14.5703 12.2932C14.9845 12.2932 15.3203 12.6289 15.3203 13.0432V13.0532C15.3203 13.4674 14.9845 13.8032 14.5703 13.8032C14.1561 13.8032 13.8203 13.4674 13.8203 13.0532V13.0432C13.8203 12.6289 14.1561 12.2932 14.5703 12.2932ZM10.8737 15.8698C10.6103 15.5501 10.1376 15.5046 9.81795 15.768C9.4983 16.0314 9.45273 16.5041 9.71617 16.8238C10.2575 17.4806 11.0797 17.9014 11.9996 17.9014C12.9195 17.9014 13.7417 17.4806 14.283 16.8238C14.5465 16.5041 14.5009 16.0314 14.1813 15.768C13.8616 15.5046 13.3889 15.5501 13.1255 15.8698C12.8569 16.1957 12.4526 16.4014 11.9996 16.4014C11.5466 16.4014 11.1423 16.1957 10.8737 15.8698Z" fill="black"/>
</svg>