<svg width="24" height="24" viewBox="0 0 24 24" fill="none" xmlns="http://www.w3.org/2000/svg">
<path d="M12 21C16.9709 21 21 16.9699 21 12C21 7.02908 16.9709 3 12 3C7.02908 3 3 7.02908 3 12C3 16.9699 7.02908 21 12 21Z" stroke="black" stroke-width="1.5" stroke-linecap="round" stroke-linejoin="round"/>
<path d="M15.2305 9.00533V8.95377M15.276 8.80078C15.4 8.80078 15.501 8.90178 15.5 9.02578C15.5 9.14978 15.399 9.25078 15.275 9.25078C15.151 9.25078 15.05 9.14978 15.05 9.02578C15.05 8.90078 15.151 8.80078 15.276 8.80078Z" stroke="black" stroke-width="1.5" stroke-linecap="round" stroke-linejoin="round"/>
<path d="M8.76932 9.00533V8.95377M8.77599 8.80078C8.89999 8.80078 9.00099 8.90178 8.99999 9.02578C8.99999 9.14978 8.89899 9.25078 8.77499 9.25078C8.65099 9.25078 8.54999 9.14978 8.54999 9.02578C8.54999 8.90078 8.65099 8.80078 8.77599 8.80078Z" stroke="black" stroke-width="1.5" stroke-linecap="round" stroke-linejoin="round"/>
<path fill-rule="evenodd" clip-rule="evenodd" d="M9.00947 16.8014C8.03066 16.8014 7.23768 16.0045 7.23768 15.0296C7.23768 14.0547 8.03066 13.2578 9.00947 13.2578C9.98828 13.2578 10.7812 14.0547 10.7812 15.0296C10.7812 16.0045 9.98828 16.8014 9.00947 16.8014Z" stroke="black" stroke-width="1.5" stroke-linecap="round" stroke-linejoin="round"/>
</svg>