<svg width="24" height="24" viewBox="0 0 24 24" fill="none" xmlns="http://www.w3.org/2000/svg">
<path d="M16.9032 8.95115L13.2729 5.09996M11.3152 5.09901L7.67616 8.9502M11.9991 21H16.9167C18.995 21 20.2892 19.5337 20.2892 17.4573V12.4939C20.2892 10.4185 18.995 8.95116 16.9177 8.95116H7.08146C5.00991 8.95116 3.71094 10.4185 3.71094 12.4939V17.4573C3.71094 19.5337 5.00407 21 7.08146 21H8.54027M11.0133 4.27951C11.0133 4.9869 11.5864 5.55903 12.2928 5.55903C13.0002 5.55903 13.5733 4.9869 13.5733 4.27951C13.5733 3.57311 13.0002 3 12.2928 3C11.5864 3 11.0133 3.57311 11.0133 4.27951Z" stroke="black" stroke-width="1.5" stroke-linecap="round" stroke-linejoin="round"/>
<path d="M9.42969 13.043V13.053" stroke="black" stroke-width="1.5" stroke-linecap="round" stroke-linejoin="round"/>
<path d="M14.5703 13.043V13.053" stroke="black" stroke-width="1.5" stroke-linecap="round" stroke-linejoin="round"/>
<path d="M13.7042 16.6562C13.2993 17.1476 12.686 17.4609 11.9996 17.4609C11.3131 17.4609 10.6999 17.1476 10.2949 16.6562" stroke="black" stroke-width="1.5" stroke-linecap="round" stroke-linejoin="round"/>
</svg>