<svg width="24" height="24" viewBox="0 0 24 24" fill="none" xmlns="http://www.w3.org/2000/svg">
<path d="M7.78216 3H16.2169C19.165 3 21 5.08119 21 8.02638V15.9736C21 18.9188 19.165 21 16.2159 21H7.78216C4.83405 21 3 18.9188 3 15.9736V8.02638C3 5.08119 4.84281 3 7.78216 3Z" stroke="black" stroke-width="1.5" stroke-linecap="round" stroke-linejoin="round"/>
<path d="M13.4284 16.6283C15.5193 16.6283 17.2133 14.5783 17.2133 12.0485C17.2133 9.5188 15.5193 7.46875 13.4284 7.46875C11.3385 7.46875 9.64453 9.5188 9.64453 12.0485C9.64453 14.5783 11.3385 16.6283 13.4284 16.6283Z" stroke="black" stroke-width="1.5" stroke-linecap="round" stroke-linejoin="round"/>
<path d="M12.0003 17.2154C14.8793 17.2154 17.2135 14.8813 17.2135 12.0023C17.2135 9.12322 14.8793 6.78906 12.0003 6.78906C9.12127 6.78906 6.78711 9.12322 6.78711 12.0023C6.78711 14.8813 9.12127 17.2154 12.0003 17.2154Z" stroke="black" stroke-width="1.5" stroke-linecap="round" stroke-linejoin="round"/>
<path d="M13.5293 9.50391C14.0489 10.2278 14.3554 11.1122 14.3554 12.0502C14.3554 12.9881 14.0489 13.8716 13.5293 14.5964" stroke="black" stroke-width="1.5" stroke-linecap="round" stroke-linejoin="round"/>
</svg>