<svg width="24" height="24" viewBox="0 0 24 24" fill="none" xmlns="http://www.w3.org/2000/svg">
<path fill-rule="evenodd" clip-rule="evenodd" d="M3.89773 3.73657C4.94853 2.75842 6.39899 2.25 8.02638 2.25H15.9736C17.6019 2.25 19.0523 2.76117 20.1026 3.7402C21.1588 4.72468 21.75 6.12669 21.75 7.78216V16.2169C21.75 17.8762 21.1592 19.2788 20.1024 20.2629C19.0516 21.2413 17.6011 21.75 15.9736 21.75H8.02638C6.39889 21.75 4.94838 21.2413 3.89761 20.2627C2.8408 19.2785 2.25 17.8756 2.25 16.2159V7.78216C2.25 6.1228 2.84086 4.72038 3.89773 3.73657ZM4.91976 4.83451C4.19973 5.50475 3.75 6.49341 3.75 7.78216V16.2159C3.75 17.5052 4.1998 18.4944 4.91988 19.165C5.64599 19.8412 6.70868 20.25 8.02638 20.25H15.9736C17.2913 20.25 18.354 19.8412 19.0802 19.1651C19.8003 18.4946 20.25 17.5056 20.25 16.2169V7.78216C20.25 6.49828 19.8006 5.50921 19.0799 4.83745C18.3533 4.16024 17.2905 3.75 15.9736 3.75H8.02638C6.70857 3.75 5.64585 4.15861 4.91976 4.83451Z" fill="black"/>
<path fill-rule="evenodd" clip-rule="evenodd" d="M11.5232 15.1587C12.4238 15.1907 13.2907 14.8302 13.9979 14.123L18.0012 10.1197C18.2941 9.8268 18.2941 9.35193 18.0012 9.05903C17.7083 8.76614 17.2334 8.76614 16.9405 9.05903L12.9373 13.0623C12.4919 13.5076 12.0173 13.6753 11.5766 13.6596C11.1277 13.6437 10.6297 13.4336 10.1637 12.9676L7.05767 9.86159C6.76478 9.56869 6.28991 9.56869 5.99701 9.86159C5.70412 10.1545 5.70412 10.6294 5.99701 10.9222L9.10304 14.0283C9.7881 14.7133 10.631 15.1269 11.5232 15.1587Z" fill="black"/>
<path fill-rule="evenodd" clip-rule="evenodd" d="M17.4726 13.5269C17.8868 13.5269 18.2226 13.1911 18.2226 12.7769V9.58944C18.2226 9.17523 17.8868 8.83944 17.4726 8.83944H14.2852C13.8709 8.83944 13.5352 9.17523 13.5352 9.58944C13.5352 10.0037 13.8709 10.3394 14.2852 10.3394H16.7226V12.7769C16.7226 13.1911 17.0584 13.5269 17.4726 13.5269Z" fill="black"/>
</svg>