<svg width="24" height="24" viewBox="0 0 24 24" fill="none" xmlns="http://www.w3.org/2000/svg">
<path opacity="0.4" fill-rule="evenodd" clip-rule="evenodd" d="M7.91004 2.25H16.09C18.71 2.25 20.83 4.38 20.83 6.99V17.01C20.83 19.63 18.71 21.75 16.09 21.75H7.91004C5.29004 21.75 3.17004 19.63 3.17004 17.01V6.99C3.17004 4.38 5.29004 2.25 7.91004 2.25ZM19.03 7.73H4.97004C4.80436 7.73 4.67004 7.59569 4.67004 7.43V6.99C4.67004 5.21 6.12004 3.75 7.91004 3.75H16.09C17.88 3.75 19.33 5.21 19.33 6.99V7.43C19.33 7.59569 19.1957 7.73 19.03 7.73Z" fill="black"/>
<path d="M15.7246 18.769C17.5929 18.769 18.2875 17.7391 18.2755 15.8229V13.6193C18.2755 11.7031 17.5929 10.6611 15.7246 10.6611H8.27542C6.41911 10.6611 5.72449 11.727 5.72449 13.6672V15.8229C5.72449 17.7391 6.41911 18.769 8.27542 18.769H15.7246Z" fill="black"/>
<path fill-rule="evenodd" clip-rule="evenodd" d="M8.23485 6.78516H8.22485C7.81085 6.78516 7.47485 6.44916 7.47485 6.03516C7.47485 5.62116 7.81085 5.28516 8.22485 5.28516C8.63885 5.28516 8.97985 5.62116 8.97985 6.03516C8.97985 6.44916 8.64885 6.78516 8.23485 6.78516Z" fill="black"/>
<path fill-rule="evenodd" clip-rule="evenodd" d="M15.7851 6.78516H15.7751C15.3611 6.78516 15.0251 6.44916 15.0251 6.03516C15.0251 5.62116 15.3611 5.28516 15.7751 5.28516C16.1891 5.28516 16.5301 5.62116 16.5301 6.03516C16.5301 6.44916 16.1991 6.78516 15.7851 6.78516Z" fill="black"/>
<path fill-rule="evenodd" clip-rule="evenodd" d="M12.0098 6.78516H11.9998C11.5858 6.78516 11.2498 6.44916 11.2498 6.03516C11.2498 5.62116 11.5858 5.28516 11.9998 5.28516C12.4138 5.28516 12.7548 5.62116 12.7548 6.03516C12.7548 6.44916 12.4238 6.78516 12.0098 6.78516Z" fill="black"/>
</svg>