<svg width="24" height="24" viewBox="0 0 24 24" fill="none" xmlns="http://www.w3.org/2000/svg">
<path fill-rule="evenodd" clip-rule="evenodd" d="M19.33 7.51C19.33 7.6315 19.2315 7.73 19.11 7.73H4.89004C4.76854 7.73 4.67004 7.6315 4.67004 7.51C4.67004 5.23 6.06004 3.75 8.21004 3.75H15.79C17.94 3.75 19.33 5.23 19.33 7.51ZM15.08 13.43H8.93004C8.52004 13.43 8.18004 13.1 8.18004 12.68C8.18004 12.27 8.52004 11.93 8.93004 11.93H15.08C15.49 11.93 15.83 12.27 15.83 12.68C15.83 13.1 15.49 13.43 15.08 13.43ZM15.08 16.93H8.93004C8.51004 16.93 8.18004 16.6 8.18004 16.18C8.18004 15.77 8.51004 15.43 8.93004 15.43H15.08C15.49 15.43 15.83 15.77 15.83 16.18C15.83 16.6 15.49 16.93 15.08 16.93ZM15.79 2.25H8.21004C5.24004 2.25 3.17004 4.42 3.17004 7.51V16.49C3.17004 19.64 5.20004 21.75 8.21004 21.75H15.79C18.8 21.75 20.83 19.64 20.83 16.49V7.51C20.83 4.37 18.81 2.25 15.79 2.25Z" fill="black"/>
<path fill-rule="evenodd" clip-rule="evenodd" d="M8.23485 6.78491H8.22485C7.81085 6.78491 7.47485 6.44891 7.47485 6.03491C7.47485 5.62091 7.81085 5.28491 8.22485 5.28491C8.63885 5.28491 8.97985 5.62091 8.97985 6.03491C8.97985 6.44891 8.64885 6.78491 8.23485 6.78491Z" fill="black"/>
<path fill-rule="evenodd" clip-rule="evenodd" d="M15.7851 6.78491H15.7751C15.3611 6.78491 15.0251 6.44891 15.0251 6.03491C15.0251 5.62091 15.3611 5.28491 15.7751 5.28491C16.1891 5.28491 16.5301 5.62091 16.5301 6.03491C16.5301 6.44891 16.1991 6.78491 15.7851 6.78491Z" fill="black"/>
<path fill-rule="evenodd" clip-rule="evenodd" d="M12.0098 6.78491H11.9998C11.5858 6.78491 11.2498 6.44891 11.2498 6.03491C11.2498 5.62091 11.5858 5.28491 11.9998 5.28491C12.4138 5.28491 12.7548 5.62091 12.7548 6.03491C12.7548 6.44891 12.4238 6.78491 12.0098 6.78491Z" fill="black"/>
</svg>