<svg width="25" height="24" viewBox="0 0 25 24" fill="none" xmlns="http://www.w3.org/2000/svg">
<path d="M16.5928 3H8.40716C6.20435 3 4.41797 4.78638 4.41797 6.98919V17.0108C4.41797 19.2136 6.20435 21 8.40716 21H16.5928C18.7966 21 20.5829 19.2136 20.5829 17.0108V6.98919C20.5829 4.78638 18.7966 3 16.5928 3Z" stroke="black" stroke-width="1.5" stroke-linecap="round" stroke-linejoin="round"/>
<path opacity="0.4" d="M8.73461 6.03027H8.72461" stroke="black" stroke-width="1.5" stroke-linecap="round" stroke-linejoin="round"/>
<path opacity="0.4" d="M16.2854 6.03027H16.2754" stroke="black" stroke-width="1.5" stroke-linecap="round" stroke-linejoin="round"/>
<path opacity="0.4" d="M12.51 6.03027H12.5" stroke="black" stroke-width="1.5" stroke-linecap="round" stroke-linejoin="round"/>
<path d="M20.5829 8.48145H4.41797" stroke="black" stroke-width="1.5" stroke-linecap="round" stroke-linejoin="round"/>
<path opacity="0.4" fill-rule="evenodd" clip-rule="evenodd" d="M15.6098 18.1049H9.39252C7.83868 18.1049 7.25977 17.236 7.25977 15.6384V13.8423C7.25977 12.2194 7.83868 11.3301 9.39252 11.3301H15.6098C17.1685 11.3301 17.7426 12.2038 17.7426 13.8014V15.6384C17.7474 17.236 17.1685 18.1049 15.6098 18.1049Z" stroke="black" stroke-width="1.5" stroke-linecap="round" stroke-linejoin="round"/>
</svg>