<svg width="24" height="24" viewBox="0 0 24 24" fill="none" xmlns="http://www.w3.org/2000/svg">
<path fill-rule="evenodd" clip-rule="evenodd" d="M12 3.75C7.44365 3.75 3.75 7.44365 3.75 12C3.75 16.5563 7.44365 20.25 12 20.25C16.5563 20.25 20.25 16.5563 20.25 12C20.25 7.44365 16.5563 3.75 12 3.75ZM2.25 12C2.25 6.61522 6.61522 2.25 12 2.25C17.3848 2.25 21.75 6.61522 21.75 12C21.75 17.3848 17.3848 21.75 12 21.75C6.61522 21.75 2.25 17.3848 2.25 12Z" fill="black"/>
<path fill-rule="evenodd" clip-rule="evenodd" d="M8.43262 7.6875C8.43262 7.27329 8.76841 6.9375 9.18262 6.9375H14.8181C15.2323 6.9375 15.5681 7.27329 15.5681 7.6875V14.86C15.5681 15.2742 15.2323 15.61 14.8181 15.61H12.2171C11.8029 15.61 11.4671 15.2742 11.4671 14.86C11.4671 14.4457 11.8029 14.11 12.2171 14.11H14.0681V8.4375H9.93262L9.93262 15.5608H11.7837C12.1979 15.5608 12.5337 15.8966 12.5337 16.3108C12.5337 16.7251 12.1979 17.0608 11.7837 17.0608H9.18262C8.9837 17.0608 8.79294 16.9818 8.65229 16.8412C8.51163 16.7005 8.43262 16.5098 8.43262 16.3108L8.43262 7.6875Z" fill="black"/>
</svg>