<svg width="24" height="24" viewBox="0 0 24 24" fill="none" xmlns="http://www.w3.org/2000/svg">
<path fill-rule="evenodd" clip-rule="evenodd" d="M2.75 5.5C2.75 3.98122 3.98122 2.75 5.5 2.75H18.5C20.0188 2.75 21.25 3.98122 21.25 5.5V14.7222C21.25 16.241 20.0188 17.4722 18.5 17.4722H11.8056V18.5C11.8056 20.0188 10.5743 21.25 9.05556 21.25H5.5C3.98122 21.25 2.75 20.0188 2.75 18.5V5.5ZM11.8056 15.9722V13.9444C11.8056 13.8064 11.9175 13.6944 12.0556 13.6944H14.7222C16.241 13.6944 17.4722 12.4632 17.4722 10.9444V9.27778C17.4722 7.75899 16.241 6.52778 14.7222 6.52778H9.27778C7.75899 6.52778 6.52778 7.75899 6.52778 9.27778V15.7222C6.52778 16.6887 7.31128 17.4722 8.27778 17.4722H10.3056V18.5C10.3056 19.1904 9.74591 19.75 9.05556 19.75H5.5C4.80964 19.75 4.25 19.1904 4.25 18.5V5.5C4.25 4.80964 4.80964 4.25 5.5 4.25H18.5C19.1904 4.25 19.75 4.80964 19.75 5.5V14.7222C19.75 15.4126 19.1904 15.9722 18.5 15.9722H11.8056ZM10.3056 15.9722H8.27778C8.13971 15.9722 8.02778 15.8603 8.02778 15.7222V9.27778C8.02778 8.58742 8.58742 8.02778 9.27778 8.02778H14.7222C15.4126 8.02778 15.9722 8.58742 15.9722 9.27778V10.9444C15.9722 11.6348 15.4126 12.1944 14.7222 12.1944H12.0556C11.0891 12.1944 10.3056 12.9779 10.3056 13.9444V15.9722Z" fill="black"/>
</svg>