<svg width="25" height="25" viewBox="0 0 25 25" fill="none" xmlns="http://www.w3.org/2000/svg">
<path fill-rule="evenodd" clip-rule="evenodd" d="M12.5124 3.94339C15.0508 3.94923 17.6301 4.77527 19.2968 6.77469C20.942 8.74784 21.7924 11.9839 20.2289 14.2392C19.2345 15.6733 17.5532 16.3846 15.8642 16.5733C14.1946 16.7611 13.5943 17.8693 14.3298 19.5126C14.8708 20.723 14.3405 21.8049 12.8237 21.9197C7.30025 22.3371 2.6038 17.1649 3.3987 11.6725C4.08172 6.95177 7.70695 3.93172 12.5124 3.94339Z" stroke="black" stroke-width="1.5" stroke-linecap="round" stroke-linejoin="round"/>
<path d="M9.38691 8.38392V8.43733M9.60333 8.3954C9.60333 8.51561 9.50579 8.61307 9.38558 8.61307C9.26537 8.61307 9.16797 8.51561 9.16797 8.3954C9.16797 8.27519 9.26537 8.17773 9.38558 8.17773C9.50579 8.17773 9.60333 8.27519 9.60333 8.3954Z" stroke="black" stroke-width="1.5" stroke-linecap="round" stroke-linejoin="round"/>
<path d="M14.0041 7.29212V7.34553M14.2205 7.3036C14.2205 7.42382 14.123 7.52127 14.0028 7.52127C13.8826 7.52127 13.7852 7.42382 13.7852 7.3036C13.7852 7.18339 13.8826 7.08594 14.0028 7.08594C14.123 7.08594 14.2205 7.18339 14.2205 7.3036Z" stroke="black" stroke-width="1.5" stroke-linecap="round" stroke-linejoin="round"/>
<path d="M17.5256 10.9191V10.9725M17.742 10.9306C17.742 11.0508 17.6445 11.1482 17.5243 11.1482C17.404 11.1482 17.3066 11.0508 17.3066 10.9306C17.3066 10.8103 17.404 10.7129 17.5243 10.7129C17.6445 10.7129 17.742 10.8103 17.742 10.9306Z" stroke="black" stroke-width="1.5" stroke-linecap="round" stroke-linejoin="round"/>
<path d="M6.84199 12.4874V12.5408M7.0584 12.4989C7.0584 12.6191 6.96087 12.7166 6.84066 12.7166C6.72045 12.7166 6.62305 12.6191 6.62305 12.4989C6.62305 12.3787 6.72045 12.2812 6.84066 12.2812C6.96087 12.2812 7.0584 12.3787 7.0584 12.4989Z" stroke="black" stroke-width="1.5" stroke-linecap="round" stroke-linejoin="round"/>
</svg>