<svg width="25" height="24" viewBox="0 0 25 24" fill="none" xmlns="http://www.w3.org/2000/svg">
<path d="M5.80078 14.3054L5.80304 7.27535C5.80371 6.36323 6.56782 5.60089 7.47929 5.60156C8.39059 5.60223 9.15201 6.36385 9.15305 7.27482L9.15329 10.9578" stroke="black" stroke-width="1.5" stroke-linecap="round" stroke-linejoin="round"/>
<path d="M15.8368 11.7963V12.0012M15.8368 11.7963L15.8359 12.6337M15.8368 11.7963L15.8373 11.2973C15.8384 10.1835 16.7416 9.28125 17.8553 9.28125C18.5939 9.28125 19.1943 9.87588 19.197 10.6144C19.2014 11.7716 19.2009 13.3517 19.1708 13.9451" stroke="black" stroke-width="1.5" stroke-linecap="round" stroke-linejoin="round"/>
<path opacity="0.4" d="M5.80078 14.3063C5.80058 16.0813 6.50553 17.7837 7.76053 19.039C9.01554 20.2943 10.7178 20.9996 12.4929 20.9998C14.2679 21 15.9703 20.2951 17.2256 19.0401C18.6879 17.5781 19.0761 15.8066 19.1704 13.9453" stroke="black" stroke-width="1.5" stroke-linecap="round" stroke-linejoin="round"/>
<path d="M15.8366 11.7967V5.94139C15.7989 5.05776 15.0488 4.33939 14.1644 4.33984C13.2905 4.34029 12.5486 5.04235 12.4954 5.91149L12.4951 10.2901" stroke="black" stroke-width="1.5" stroke-linecap="round" stroke-linejoin="round"/>
<path d="M12.495 5.91144L12.4951 4.60155C12.4574 3.71792 11.7074 2.99955 10.8229 3C9.93849 3.00045 9.18915 3.71959 9.15234 4.60326L9.15288 7.27588" stroke="black" stroke-width="1.5" stroke-linecap="round" stroke-linejoin="round"/>
<path d="M15.8352 12.6328C14.0341 12.6308 12.4903 14.1583 12.4941 15.9773" stroke="black" stroke-width="1.5" stroke-linecap="round" stroke-linejoin="round"/>
</svg>