<svg width="24" height="24" viewBox="0 0 24 24" fill="none" xmlns="http://www.w3.org/2000/svg">
<path fill-rule="evenodd" clip-rule="evenodd" d="M19.1424 10.44C19.1424 9.838 18.6534 9.349 18.0514 9.349C17.0264 9.349 16.1924 10.183 16.1924 11.208V12.712C16.1924 12.949 16.0064 13.136 15.7684 13.136C14.9044 13.136 14.0434 13.501 13.4064 14.138C12.7684 14.79 12.4164 15.627 12.4164 16.498C12.4164 16.732 12.2264 16.922 11.9924 16.922C11.7594 16.922 11.5684 16.732 11.5684 16.498C11.5684 15.392 12.0114 14.339 12.8154 13.535C13.4714 12.88 14.3264 12.452 15.2214 12.332L15.3444 12.316V5.144C15.3184 4.384 14.6624 3.764 13.8804 3.764C13.1344 3.764 12.4914 4.352 12.4164 5.116V9.231C12.4164 9.469 12.2304 9.655 11.9924 9.655C11.7594 9.655 11.5684 9.465 11.5684 9.231V3.63C11.5434 2.869 10.8864 2.25 10.1044 2.25C9.32239 2.25 8.66539 2.879 8.64039 3.657V9.988C8.64039 10.226 8.45439 10.412 8.21639 10.412C7.97839 10.412 7.79239 10.226 7.79239 9.988V6.665C7.79239 5.864 7.12239 5.189 6.32939 5.189C5.94639 5.189 5.56839 5.349 5.29039 5.626C5.00439 5.912 4.85339 6.27 4.85339 6.665V14.611C4.85339 16.522 5.59439 18.316 6.94139 19.661C8.28639 21.008 10.0804 21.75 11.9924 21.75C13.8764 21.75 15.7174 20.989 17.0444 19.661C18.7104 17.985 19.0284 15.949 19.1194 14.178V14.177C19.1444 13.612 19.1524 12.249 19.1424 10.44Z" fill="black"/>
</svg>