<svg width="24" height="24" viewBox="0 0 24 24" fill="none" xmlns="http://www.w3.org/2000/svg">
<path d="M15.3364 11.7956V12.0006M15.3364 11.7956L15.3355 12.633M15.3364 11.7956L15.3369 11.2966C15.338 10.1829 16.2412 9.28057 17.3549 9.28057C18.0935 9.28057 18.6939 9.8752 18.6966 10.6138C18.701 11.7709 18.7005 13.351 18.6704 13.9444C18.5761 15.8057 18.1879 17.5772 16.7256 19.0392C15.4703 20.2942 13.7679 20.9991 11.9929 20.9989C10.2178 20.9987 8.51554 20.2934 7.26053 19.0381C6.00553 17.7828 5.30058 16.0804 5.30078 14.3054L5.30304 7.27535C5.30371 6.36323 6.06782 5.60089 6.97929 5.60156C7.89059 5.60223 8.65201 6.36385 8.65305 7.27482L8.65329 10.9578" stroke="black" stroke-width="1.5" stroke-linecap="round" stroke-linejoin="round"/>
<path d="M15.3366 11.7967V5.94139C15.2989 5.05776 14.5488 4.33939 13.6644 4.33984C12.7905 4.34029 12.0486 5.04235 11.9954 5.91149L11.9951 10.2901" stroke="black" stroke-width="1.5" stroke-linecap="round" stroke-linejoin="round"/>
<path d="M11.995 5.91144L11.9951 4.60155C11.9574 3.71792 11.2074 2.99955 10.3229 3C9.43849 3.00045 8.68915 3.71959 8.65234 4.60326L8.65288 7.27588" stroke="black" stroke-width="1.5" stroke-linecap="round" stroke-linejoin="round"/>
<path d="M15.3352 12.6328C13.5341 12.6308 11.9903 14.1583 11.9941 15.9773" stroke="black" stroke-width="1.5" stroke-linecap="round" stroke-linejoin="round"/>
</svg>