<svg width="25" height="24" viewBox="0 0 25 24" fill="none" xmlns="http://www.w3.org/2000/svg">
<path d="M15.8149 20.5556C18.872 19.6974 21.0165 17.4741 21.0165 15.1322C21.0165 12.3514 19.5443 10.9513 17.9204 9.92185C17.9204 9.92185 18.7076 6.83262 18.871 5.48309L18.872 5.47823C18.9927 4.23573 18.0829 3.13139 16.8404 3.01074C15.5979 2.89009 14.4926 3.79983 14.3729 5.04233L13.9789 9.10551C13.4972 8.80681 11.5026 8.80681 11.021 9.10551L10.6269 5.04233C10.5063 3.79983 9.40195 2.89009 8.15847 3.01074C6.91597 3.13139 6.00721 4.23573 6.12688 5.47823L6.12786 5.48309C6.1084 5.90634 7.07846 9.92185 7.07846 9.92185C5.45552 10.9513 3.9834 12.3514 3.9834 15.1322C3.9834 17.4741 6.12786 19.6974 9.18497 20.5556C9.95346 20.7617 10.7221 20.8961 11.4907 20.9588" stroke="black" stroke-width="1.5" stroke-linecap="round" stroke-linejoin="round"/>
<path d="M15.5633 14.8713V14.1406M9.4375 14.8713V14.1406" stroke="black" stroke-width="1.5" stroke-linecap="round" stroke-linejoin="round"/>
</svg>