<svg width="24" height="24" viewBox="0 0 24 24" fill="none" xmlns="http://www.w3.org/2000/svg">
<path d="M7.08146 8.95117H16.9177C18.995 8.95117 20.2892 10.4185 20.2892 12.4939V17.4573C20.2892 19.5337 18.995 21 16.9167 21H7.08146C5.00407 21 3.71094 19.5337 3.71094 17.4573V12.4939C3.71094 10.4185 5.00991 8.95117 7.08146 8.95117Z" stroke="black" stroke-width="1.5" stroke-linecap="round" stroke-linejoin="round"/>
<path fill-rule="evenodd" clip-rule="evenodd" d="M11.0137 4.27951C11.0137 4.9869 11.5868 5.55903 12.2932 5.55903C13.0006 5.55903 13.5737 4.9869 13.5737 4.27951C13.5737 3.57311 13.0006 3 12.2932 3C11.5868 3 11.0137 3.57311 11.0137 4.27951Z" stroke="black" stroke-width="1.5" stroke-linecap="round" stroke-linejoin="round"/>
<path d="M16.9048 8.95031L13.2754 5.09912M11.3168 5.09912L7.67773 8.95031" stroke="black" stroke-width="1.5" stroke-linecap="round" stroke-linejoin="round"/>
<path d="M8.77734 13.1436H12.0009M8.77734 16.7448H15.2236" stroke="black" stroke-width="1.5" stroke-linecap="round" stroke-linejoin="round"/>
</svg>