<svg width="24" height="24" viewBox="0 0 24 24" fill="none" xmlns="http://www.w3.org/2000/svg">
<path d="M4.80095 4.86841C3.74138 4.86841 2.91046 5.77911 3.00775 6.83382L3.98754 17.5006C4.07219 18.4278 4.8496 19.1371 5.78074 19.1371H8.0468C8.8388 19.1371 9.5374 18.6205 9.76897 17.8625L11.5203 12.1434C11.6653 11.6695 12.3347 11.6695 12.4797 12.1434L14.231 17.8635C14.4626 18.6205 15.1612 19.1371 15.9522 19.1371H18.2193C19.1504 19.1371 19.9278 18.4278 20.0125 17.5006L20.9922 6.83382C21.0895 5.77911 20.2586 4.86841 19.1991 4.86841H4.80095Z" stroke="black" stroke-width="1.5" stroke-linecap="round" stroke-linejoin="round"/>
<path d="M8.56494 4.86279V4.96982C8.56494 8.0347 6.3271 10.5644 3.39844 11.0217" stroke="black" stroke-width="1.5" stroke-linecap="round" stroke-linejoin="round"/>
<path d="M15.4336 4.86279V4.96982C15.4336 8.0347 17.6714 10.5644 20.6098 11.0217" stroke="black" stroke-width="1.5" stroke-linecap="round" stroke-linejoin="round"/>
</svg>