<?xml version="1.0" encoding="UTF-8"?>
<svg width="24px" height="24px" viewBox="0 0 24 24" version="1.1" xmlns="http://www.w3.org/2000/svg" xmlns:xlink="http://www.w3.org/1999/xlink">
    <title>Iconly/Light-Outline/Paper Download</title>
    <g id="Iconly/Light-Outline/Paper-Download" stroke="none" stroke-width="1" fill="none" fill-rule="evenodd">
        <g id="Paper-Download" transform="translate(3.000000, 2.000000)" fill="#000000">
            <path d="M10.9759,0.0003 C11.0189361,0.0003 11.0611293,0.00393081447 11.1021898,0.0109026311 L11.2373,0.0117 C11.4413,0.0117 11.6363,0.0947 11.7783,0.2417 L16.8443,5.5187 C16.9773,5.6577 17.0523975,5.8447 17.0523975,6.0377 L17.0523975,15.2277 C17.0683,17.7367 15.1123,19.7757 12.5993,19.8657 L4.4593,19.8657 C2.01907143,19.8132429 0.0620036735,17.8413539 0.00166566764,15.4259384 L0.0013,4.4907 C0.0603,2.0097 2.1083,0.0117 4.5703,0.0117 L10.8496102,0.0109026311 C10.8906707,0.00393081447 10.9328639,0.0003 10.9759,0.0003 Z M10.2253,1.5113 L4.5733,1.5117 C2.9163,1.5117 1.5403,2.8537 1.5013,4.5087 L1.5013,15.2277 C1.4653,16.9287 2.8053,18.3287 4.4903,18.3657 L12.5733,18.3657 C14.2423,18.3057 15.5633,16.9287 15.5523682,15.2327 L15.5523,6.9833 L13.5439,6.9843 C11.7129,6.9793 10.2259,5.4873 10.2259,3.6593 L10.2253,1.5113 Z M8.1427,7.1592 C8.5567,7.1592 8.8927,7.4952 8.8927,7.9092 L8.8923,12.1313 L9.9547,11.0652 C10.2467,10.7712 10.7217,10.7712 11.0157,11.0632 C11.3087,11.3552 11.3097,11.8302 11.0177,12.1242 L8.69868485,14.4534107 C8.63986655,14.5183509 8.56983878,14.572952 8.49166525,14.6141503 C8.48469429,14.6163108 8.47837822,14.6195223 8.47201882,14.6226425 C8.44292729,14.63842 8.41217241,14.6510784 8.38047683,14.6616767 C8.37737971,14.6612876 8.3743521,14.6622811 8.37131793,14.6632554 C8.29932117,14.6877294 8.22245806,14.7002 8.1427,14.7002 C8.06516774,14.7002 7.99037112,14.6884157 7.92000474,14.6665417 C7.90894836,14.66235 7.89716364,14.6584007 7.88548731,14.6541617 C7.86364857,14.6468807 7.84271825,14.6381034 7.82229373,14.6284305 C7.81008812,14.6221419 7.79806643,14.6160807 7.78621136,14.6096938 C7.7625033,14.5973032 7.73927243,14.583035 7.71692024,14.5675846 C7.70928341,14.5620458 7.70171439,14.556612 7.69424304,14.5510303 C7.662043,14.5272038 7.63189764,14.5006625 7.6040333,14.4718985 L5.2657,12.1242 C4.9737,11.8302 4.9747,11.3552 5.2677,11.0632 C5.5617,10.7712 6.0367,10.7712 6.3287,11.0652 L7.3923,12.1333 L7.3927,7.9092 C7.3927,7.4952 7.7287,7.1592 8.1427,7.1592 Z M11.7253,2.3523 L11.7259,3.6593 C11.7259,4.6633 12.5419,5.4813 13.5459,5.4843 L14.7303,5.4833 L11.7253,2.3523 Z" id="Combined-Shape"></path>
        </g>
    </g>
</svg>