<svg width="25" height="24" viewBox="0 0 25 24" fill="none" xmlns="http://www.w3.org/2000/svg">
<path opacity="0.4" fill-rule="evenodd" clip-rule="evenodd" d="M17.26 8.674C15.614 8.674 14.27 7.34 14.27 5.694V3.652L19.552 8.674H17.26ZM20.955 8.85C20.955 8.81 20.955 8.78 20.945 8.74C20.915 8.56 20.885 8.38 20.855 8.21C20.835 8.1 20.785 8.01 20.705 7.93L15.035 2.53C14.965 2.46 14.865 2.41 14.765 2.4C14.595 2.38 14.415 2.36 14.235 2.34C14.205 2.33 14.165 2.33 14.135 2.33C13.555 2.28 12.915 2.25 12.245 2.25C5.68498 2.25 3.35498 4.8 3.35498 12C3.35498 19.19 5.68498 21.75 12.245 21.75C18.815 21.75 21.145 19.19 21.145 12C21.145 10.8 21.085 9.76 20.955 8.85Z" fill="black"/>
<path d="M8.68901 16.2918H14.088C14.503 16.2918 14.838 15.9558 14.838 15.5418C14.838 15.1278 14.503 14.7918 14.088 14.7918H8.68901C8.27501 14.7918 7.93901 15.1278 7.93901 15.5418C7.93901 15.9558 8.27501 16.2918 8.68901 16.2918Z" fill="black"/>
<path d="M12.043 10.7808H8.68701C8.27301 10.7808 7.93701 11.1168 7.93701 11.5308C7.93701 11.9458 8.27301 12.2808 8.68701 12.2808H12.043C12.457 12.2808 12.793 11.9458 12.793 11.5308C12.793 11.1168 12.457 10.7808 12.043 10.7808Z" fill="black"/>
</svg>