<?xml version="1.0" encoding="UTF-8"?>
<svg width="24px" height="24px" viewBox="0 0 24 24" version="1.1" xmlns="http://www.w3.org/2000/svg" xmlns:xlink="http://www.w3.org/1999/xlink">
    <title>Iconly/Light-Outline/Paper Upload</title>
    <g id="Iconly/Light-Outline/Paper-Upload" stroke="none" stroke-width="1" fill="none" fill-rule="evenodd">
        <g id="Paper-Upload" transform="translate(3.000000, 2.000000)" fill="#000000">
            <path d="M10.9759,0.0003 C11.0189361,0.0003 11.0611293,0.00393081447 11.1021898,0.0109026311 L11.2373,0.0117 C11.4413,0.0117 11.6363,0.0947 11.7783,0.2417 L16.8443,5.5187 C16.9773,5.6577 17.0523975,5.8447 17.0523975,6.0377 L17.0523975,15.2277 C17.0683,17.7367 15.1123,19.7757 12.5993,19.8657 L4.4593,19.8657 C2.01907143,19.8132429 0.0620036735,17.8413539 0.00166566764,15.4259384 L0.0013,4.4907 C0.0603,2.0097 2.1083,0.0117 4.5703,0.0117 L10.8496102,0.0109026311 C10.8906707,0.00393081447 10.9328639,0.0003 10.9759,0.0003 Z M10.2253,1.5113 L4.5733,1.5117 C2.9163,1.5117 1.5403,2.8537 1.5013,4.5087 L1.5013,15.2277 C1.4653,16.9287 2.8053,18.3287 4.4903,18.3657 L12.5733,18.3657 C14.2423,18.3057 15.5633,16.9287 15.5523682,15.2327 L15.5523,6.9833 L13.5439,6.9843 C11.7129,6.9793 10.2259,5.4873 10.2259,3.6593 L10.2253,1.5113 Z M8.1417,7.1592 C8.3487,7.1592 8.5362,7.2432 8.67195,7.37895 L8.673,7.3796 L11.019,9.7356 C11.311,10.0296 11.31,10.5036 11.017,10.7956 C10.723,11.0876 10.248,11.0876 9.956,10.7936 L8.8913,9.7243 L8.8917,13.9502 C8.8917,14.3642 8.5557,14.7002 8.1417,14.7002 C7.7277,14.7002 7.3917,14.3642 7.3917,13.9502 L7.3913,9.7243 L6.328,10.7936 C6.182,10.9416 5.989,11.0146 5.797,11.0146 C5.606,11.0146 5.414,10.9416 5.268,10.7956 C4.975,10.5036 4.973,10.0296 5.266,9.7356 L7.61,7.3796 L7.64345092,7.34876092 C7.65791628,7.33588989 7.67288268,7.32356998 7.68831706,7.31183426 L7.61,7.3796 C7.63789011,7.35161099 7.66791257,7.32639012 7.69964463,7.3039374 C7.82314152,7.21290331 7.97618734,7.1592 8.1417,7.1592 Z M11.7253,2.3523 L11.7259,3.6593 C11.7259,4.6633 12.5419,5.4813 13.5459,5.4843 L14.7303,5.4833 L11.7253,2.3523 Z" id="Combined-Shape"></path>
        </g>
    </g>
</svg>