<svg width="25" height="24" viewBox="0 0 25 24" fill="none" xmlns="http://www.w3.org/2000/svg">
<path fill-rule="evenodd" clip-rule="evenodd" d="M8.40527 15.4498C8.40527 15.0356 8.74106 14.6998 9.15527 14.6998H14.5553C14.9695 14.6998 15.3053 15.0356 15.3053 15.4498C15.3053 15.864 14.9695 16.1998 14.5553 16.1998H9.15527C8.74106 16.1998 8.40527 15.864 8.40527 15.4498Z" fill="black"/>
<path fill-rule="evenodd" clip-rule="evenodd" d="M8.40442 11.4385C8.40442 11.0243 8.74021 10.6885 9.15442 10.6885H12.5104C12.9246 10.6885 13.2604 11.0243 13.2604 11.4385C13.2604 11.8527 12.9246 12.1885 12.5104 12.1885H9.15442C8.74021 12.1885 8.40442 11.8527 8.40442 11.4385Z" fill="black"/>
<path fill-rule="evenodd" clip-rule="evenodd" d="M5.1804 4.2724C6.71225 2.58284 9.08812 1.99991 12.2898 1.99991C13.2165 1.99991 14.0713 2.05133 14.8416 2.15685C14.9976 2.17822 15.143 2.24818 15.257 2.3568L20.927 7.75681C21.0422 7.86647 21.1195 8.00989 21.1478 8.16636C21.3482 9.27368 21.4398 10.551 21.4398 11.9999C21.4398 15.4997 20.9211 18.0652 19.4075 19.7317C17.874 21.4199 15.4954 21.9999 12.2898 21.9999C9.08885 21.9999 6.71271 21.4198 5.18062 19.7314C3.6685 18.0651 3.14978 15.4998 3.14978 11.9999C3.14978 8.50471 3.66862 5.93983 5.1804 4.2724ZM6.29166 5.27992C5.18094 6.50499 4.64978 8.5651 4.64978 11.9999C4.64978 15.44 5.18106 17.4998 6.29144 18.7234C7.38185 19.925 9.20071 20.4999 12.2898 20.4999C15.3841 20.4999 17.2055 19.9249 18.2971 18.7231C19.4085 17.4996 19.9398 15.4401 19.9398 11.9999C19.9398 10.7184 19.8648 9.61374 19.7125 8.67156L14.4007 3.61273C13.7699 3.53814 13.0645 3.49991 12.2898 3.49991C9.20144 3.49991 7.38232 4.07698 6.29166 5.27992Z" fill="black"/>
<path fill-rule="evenodd" clip-rule="evenodd" d="M14.1842 2.08261C14.5984 2.08261 14.9342 2.4184 14.9342 2.83261V5.49361C14.9342 6.93711 16.1041 8.10661 17.5482 8.10661H20.4992C20.9134 8.10661 21.2492 8.4424 21.2492 8.85661C21.2492 9.27082 20.9134 9.60661 20.4992 9.60661H17.5482C15.2763 9.60661 13.4342 7.76612 13.4342 5.49361V2.83261C13.4342 2.4184 13.77 2.08261 14.1842 2.08261Z" fill="black"/>
</svg>