<svg width="25" height="24" viewBox="0 0 25 24" fill="none" xmlns="http://www.w3.org/2000/svg">
<path opacity="0.4" fill-rule="evenodd" clip-rule="evenodd" d="M17.26 8.674C15.614 8.674 14.27 7.34 14.27 5.694V3.652L19.552 8.674H17.26ZM20.955 8.85C20.955 8.81 20.955 8.78 20.945 8.74C20.915 8.56 20.885 8.38 20.855 8.21C20.835 8.1 20.785 8.01 20.705 7.93L15.035 2.53C14.965 2.46 14.865 2.41 14.765 2.4C14.595 2.38 14.415 2.36 14.235 2.34C14.205 2.33 14.165 2.33 14.135 2.33C13.555 2.28 12.915 2.25 12.245 2.25C5.68498 2.25 3.35498 4.8 3.35498 12C3.35498 19.19 5.68498 21.75 12.245 21.75C18.815 21.75 21.145 19.19 21.145 12C21.145 10.8 21.085 9.76 20.955 8.85Z" fill="black"/>
<path d="M13.2397 13.584C13.4307 13.584 13.6227 13.511 13.7687 13.365C14.0617 13.073 14.0637 12.599 13.7707 12.305L11.4267 9.95003C11.2907 9.81303 11.1027 9.72803 10.8947 9.72803C10.6867 9.72803 10.4987 9.81303 10.3627 9.95003L8.01769 12.305C7.72569 12.599 7.72669 13.073 8.01969 13.365C8.31369 13.657 8.78869 13.657 9.08069 13.364L10.1447 12.294V16.519C10.1447 16.933 10.4807 17.269 10.8947 17.269C11.3087 17.269 11.6447 16.933 11.6447 16.519V12.295L12.7087 13.364C12.8547 13.511 13.0467 13.584 13.2397 13.584Z" fill="black"/>
</svg>