<svg width="25" height="24" viewBox="0 0 25 24" fill="none" xmlns="http://www.w3.org/2000/svg">
<path opacity="0.4" fill-rule="evenodd" clip-rule="evenodd" d="M17.26 8.674C15.614 8.674 14.27 7.34 14.27 5.694V3.652L19.552 8.674H17.26ZM20.955 8.85C20.955 8.81 20.955 8.78 20.945 8.74C20.915 8.56 20.885 8.38 20.855 8.21C20.835 8.1 20.785 8.01 20.705 7.93L15.035 2.53C14.965 2.46 14.865 2.41 14.765 2.4C14.595 2.38 14.415 2.36 14.235 2.34C14.205 2.33 14.165 2.33 14.135 2.33C13.555 2.28 12.915 2.25 12.245 2.25C5.68498 2.25 3.35498 4.8 3.35498 12C3.35498 19.19 5.68498 21.75 12.245 21.75C18.815 21.75 21.145 19.19 21.145 12C21.145 10.8 21.085 9.76 20.955 8.85Z" fill="black"/>
<path d="M11.4247 17.046L13.7697 14.693C14.0617 14.4 14.0617 13.924 13.7677 13.632C13.4737 13.34 12.9997 13.34 12.7077 13.634L11.6427 14.703V10.478C11.6427 10.064 11.3067 9.72803 10.8927 9.72803C10.4787 9.72803 10.1427 10.064 10.1427 10.478V14.702L9.07972 13.634C8.78772 13.34 8.31272 13.34 8.01872 13.632C7.72572 13.924 7.72472 14.399 8.01672 14.693L10.3607 17.046C10.4967 17.183 10.6847 17.269 10.8927 17.269C11.1007 17.269 11.2887 17.183 11.4247 17.046Z" fill="black"/>
</svg>