<svg width="25" height="24" viewBox="0 0 25 24" fill="none" xmlns="http://www.w3.org/2000/svg">
<path fill-rule="evenodd" clip-rule="evenodd" d="M5.18052 4.2724C6.71237 2.58284 9.08824 1.99991 12.2899 1.99991C13.2166 1.99991 14.0714 2.05133 14.8417 2.15685C14.9977 2.17822 15.1431 2.24818 15.2571 2.3568L20.9271 7.75681C21.0423 7.86647 21.1196 8.00989 21.1479 8.16636C21.3483 9.27368 21.4399 10.551 21.4399 11.9999C21.4399 15.4997 20.9212 18.0652 19.4076 19.7317C17.8742 21.4199 15.4955 21.9999 12.2899 21.9999C9.08897 21.9999 6.71283 21.4198 5.18074 19.7314C3.66862 18.0651 3.1499 15.4998 3.1499 11.9999C3.1499 8.50471 3.66874 5.93983 5.18052 4.2724ZM6.29178 5.27992C5.18107 6.50499 4.6499 8.5651 4.6499 11.9999C4.6499 15.44 5.18118 17.4998 6.29156 18.7234C7.38197 19.925 9.20083 20.4999 12.2899 20.4999C15.3843 20.4999 17.2057 19.9249 18.2972 18.7231C19.4086 17.4996 19.9399 15.4401 19.9399 11.9999C19.9399 10.7184 19.8649 9.61374 19.7126 8.67156L14.4009 3.61273C13.77 3.53814 13.0646 3.49991 12.2899 3.49991C9.20156 3.49991 7.38244 4.07698 6.29178 5.27992Z" fill="black"/>
<path fill-rule="evenodd" clip-rule="evenodd" d="M14.1843 2.08261C14.5985 2.08261 14.9343 2.4184 14.9343 2.83261V5.49361C14.9343 6.93711 16.1042 8.10661 17.5483 8.10661H20.4993C20.9135 8.10661 21.2493 8.4424 21.2493 8.85661C21.2493 9.27082 20.9135 9.60661 20.4993 9.60661H17.5483C15.2764 9.60661 13.4343 7.76612 13.4343 5.49361V2.83261C13.4343 2.4184 13.7701 2.08261 14.1843 2.08261Z" fill="black"/>
<path fill-rule="evenodd" clip-rule="evenodd" d="M11.9104 9.2262C12.3246 9.2262 12.6604 9.56198 12.6604 9.9762V16.0172C12.6604 16.4314 12.3246 16.7672 11.9104 16.7672C11.4962 16.7672 11.1604 16.4314 11.1604 16.0172V9.9762C11.1604 9.56198 11.4962 9.2262 11.9104 9.2262Z" fill="black"/>
<path fill-rule="evenodd" clip-rule="evenodd" d="M9.0355 13.1307C9.32901 12.8385 9.80389 12.8395 10.0962 13.133L11.9097 14.9543L13.7232 13.133C14.0155 12.8395 14.4904 12.8385 14.7839 13.1307C15.0774 13.423 15.0784 13.8979 14.7862 14.1914L12.4412 16.5464C12.3004 16.6877 12.1092 16.7672 11.9097 16.7672C11.7102 16.7672 11.519 16.6877 11.3782 16.5464L9.03324 14.1914C8.74097 13.8979 8.74198 13.423 9.0355 13.1307Z" fill="black"/>
</svg>