<svg width="25" height="24" viewBox="0 0 25 24" fill="none" xmlns="http://www.w3.org/2000/svg">
<path fill-rule="evenodd" clip-rule="evenodd" d="M17.26 8.674C15.614 8.674 14.27 7.34 14.27 5.694V3.652L19.552 8.674H17.26ZM13.981 13.823H12.282V15.523C12.282 15.937 11.946 16.273 11.532 16.273C11.118 16.273 10.782 15.937 10.782 15.523V13.823H9.08198C8.66698 13.823 8.33198 13.488 8.33198 13.073C8.33198 12.659 8.66698 12.323 9.08198 12.323H10.782V10.623C10.782 10.209 11.118 9.873 11.532 9.873C11.946 9.873 12.282 10.209 12.282 10.623V12.323H13.981C14.395 12.323 14.731 12.659 14.731 13.073C14.731 13.488 14.395 13.823 13.981 13.823ZM20.955 8.85C20.955 8.81 20.955 8.78 20.945 8.74C20.915 8.56 20.885 8.38 20.855 8.21C20.835 8.1 20.785 8.01 20.705 7.93L15.035 2.53C14.965 2.46 14.865 2.41 14.765 2.4C14.595 2.38 14.415 2.36 14.235 2.34C14.205 2.33 14.165 2.33 14.135 2.33C13.555 2.28 12.915 2.25 12.245 2.25C5.68498 2.25 3.35498 4.8 3.35498 12C3.35498 19.19 5.68498 21.75 12.245 21.75C18.815 21.75 21.145 19.19 21.145 12C21.145 10.8 21.085 9.76 20.955 8.85Z" fill="black"/>
</svg>