<svg width="25" height="24" viewBox="0 0 25 24" fill="none" xmlns="http://www.w3.org/2000/svg">
<path fill-rule="evenodd" clip-rule="evenodd" d="M17.26 8.674C15.614 8.674 14.27 7.34 14.27 5.694V3.652L19.552 8.674H17.26ZM13.77 14.693L11.425 17.046C11.289 17.183 11.101 17.269 10.893 17.269C10.685 17.269 10.497 17.183 10.361 17.046L8.01698 14.693C7.72498 14.399 7.72598 13.924 8.01898 13.632C8.31298 13.34 8.78798 13.34 9.07998 13.634L10.143 14.702V10.478C10.143 10.064 10.479 9.728 10.893 9.728C11.307 9.728 11.643 10.064 11.643 10.478V14.703L12.708 13.634C13 13.34 13.474 13.34 13.768 13.632C14.062 13.924 14.062 14.4 13.77 14.693ZM20.955 8.85C20.955 8.81 20.955 8.78 20.945 8.74C20.915 8.56 20.885 8.38 20.855 8.21C20.835 8.1 20.785 8.01 20.705 7.93L15.035 2.53C14.965 2.46 14.865 2.41 14.765 2.4C14.595 2.38 14.415 2.36 14.235 2.34C14.205 2.33 14.165 2.33 14.135 2.33C13.555 2.28 12.915 2.25 12.245 2.25C5.68498 2.25 3.35498 4.8 3.35498 12C3.35498 19.19 5.68498 21.75 12.245 21.75C18.815 21.75 21.145 19.19 21.145 12C21.145 10.8 21.085 9.76 20.955 8.85Z" fill="black"/>
</svg>