<svg width="25" height="24" viewBox="0 0 25 24" fill="none" xmlns="http://www.w3.org/2000/svg">
<path fill-rule="evenodd" clip-rule="evenodd" d="M5.18077 4.2724C6.71261 2.58284 9.08849 1.99991 12.2901 1.99991C13.2168 1.99991 14.0716 2.05133 14.8419 2.15685C14.998 2.17822 15.1433 2.24818 15.2574 2.3568L20.9274 7.75681C21.0425 7.86647 21.1198 8.00989 21.1482 8.16636C21.3485 9.27368 21.4401 10.551 21.4401 11.9999C21.4401 15.4997 20.9214 18.0652 19.4078 19.7317C17.8744 21.4199 15.4958 21.9999 12.2901 21.9999C9.08922 21.9999 6.71308 21.4198 5.18099 19.7314C3.66887 18.0651 3.15015 15.4998 3.15015 11.9999C3.15015 8.50471 3.66898 5.93983 5.18077 4.2724ZM6.29202 5.27992C5.18131 6.50499 4.65015 8.5651 4.65015 11.9999C4.65015 15.44 5.18143 17.4998 6.29181 18.7234C7.38222 19.925 9.20107 20.4999 12.2901 20.4999C15.3845 20.4999 17.2059 19.9249 18.2975 18.7231C19.4088 17.4996 19.9401 15.4401 19.9401 11.9999C19.9401 10.7184 19.8651 9.61374 19.7129 8.67156L14.4011 3.61273C13.7702 3.53814 13.0649 3.49991 12.2901 3.49991C9.20181 3.49991 7.38268 4.07698 6.29202 5.27992Z" fill="black"/>
<path fill-rule="evenodd" clip-rule="evenodd" d="M14.1841 2.08261C14.5983 2.08261 14.9341 2.4184 14.9341 2.83261V5.49361C14.9341 6.93711 16.104 8.10661 17.5481 8.10661H20.4991C20.9133 8.10661 21.2491 8.4424 21.2491 8.85661C21.2491 9.27082 20.9133 9.60661 20.4991 9.60661H17.5481C15.2762 9.60661 13.4341 7.76612 13.4341 5.49361V2.83261C13.4341 2.4184 13.7699 2.08261 14.1841 2.08261Z" fill="black"/>
<path fill-rule="evenodd" clip-rule="evenodd" d="M9.84882 10.7181C10.1417 10.4252 10.6166 10.4252 10.9095 10.7181L14.3755 14.1841C14.6684 14.477 14.6684 14.9518 14.3755 15.2447C14.0826 15.5376 13.6077 15.5376 13.3148 15.2447L9.84882 11.7787C9.55593 11.4858 9.55593 11.011 9.84882 10.7181Z" fill="black"/>
<path fill-rule="evenodd" clip-rule="evenodd" d="M14.3762 10.7181C14.6691 11.011 14.6691 11.4858 14.3762 11.7787L10.9102 15.2447C10.6173 15.5376 10.1424 15.5376 9.84955 15.2447C9.55666 14.9518 9.55666 14.477 9.84955 14.1841L13.3156 10.7181C13.6084 10.4252 14.0833 10.4252 14.3762 10.7181Z" fill="black"/>
</svg>