<?xml version="1.0" encoding="UTF-8"?>
<svg width="24px" height="24px" viewBox="0 0 24 24" version="1.1" xmlns="http://www.w3.org/2000/svg" xmlns:xlink="http://www.w3.org/1999/xlink">
    <title>Iconly/Light-Outline/Paper Fail</title>
    <g id="Iconly/Light-Outline/Paper-Fail" stroke="none" stroke-width="1" fill="none" fill-rule="evenodd">
        <g id="Paper-Fail" transform="translate(3.000000, 2.000000)" fill="#000000">
            <path d="M10.9739,0.0004 C11.0169361,0.0004 11.0591293,0.00403081447 11.1001898,0.0110026311 L11.2365,0.0117 C11.4405,0.0117 11.6355,0.0947 11.7775,0.2417 L16.8425,5.5207 C16.9765,5.6597 17.0515093,5.8467 17.0515093,6.0397 L17.0515093,15.3397 C17.0565,17.8087 15.0505,19.8397 12.5805,19.8657 L4.5715,19.8667 L4.5425,19.8667 C3.3425,19.8667 2.2075,19.4017 1.3505,18.5537 C0.4865,17.6997 0.0065,16.5597 -0.0005,15.3437 L-0.0005,4.4907 C-0.0005,2.0217 2.0085,0.0117 4.4785,0.0117 L10.8476102,0.0110026311 C10.8886707,0.00403081447 10.9308639,0.0004 10.9739,0.0004 Z M10.2235,1.5114 L4.4785,1.5117 C2.8355,1.5117 1.4995,2.8487 1.4995,4.4907 L1.4995,15.3397 C1.5045,16.1507 1.8265,16.9147 2.4055,17.4877 C2.9835,18.0587 3.7805,18.3867 4.5665,18.3667 C4.57,18.3667 4.59925,18.36645 4.628375,18.3662 L12.5725,18.3657 C14.2145,18.3477 15.5545,16.9907 15.551505,15.3407 L15.5515,6.9834 L13.5409,6.9844 C11.7109,6.9794 10.2239,5.4874 10.2239,3.6594 L10.2235,1.5114 Z M7.1392,8.6525 L8.3425,9.8564 L9.5464,8.6525 C9.8394,8.3595 10.3134,8.3595 10.6064,8.6525 C10.8994,8.9455 10.8994,9.4195 10.6064,9.7125 L9.4025,10.9164 L10.6052,12.1185 C10.8982,12.4115 10.8982,12.8855 10.6052,13.1785 C10.4592,13.3255 10.2672,13.3985 10.0752,13.3985 C9.8832,13.3985 9.6912,13.3255 9.5452,13.1785 L8.3425,11.9764 L7.1404,13.1785 C6.9944,13.3255 6.8024,13.3985 6.6104,13.3985 C6.4184,13.3985 6.2264,13.3255 6.0804,13.1785 C5.7874,12.8855 5.7874,12.4115 6.0804,12.1185 L7.2825,10.9164 L6.0792,9.7125 C5.7862,9.4195 5.7862,8.9455 6.0792,8.6525 C6.3722,8.3595 6.8462,8.3595 7.1392,8.6525 Z M11.7235,2.3524 L11.7239,3.6594 C11.7239,4.6634 12.5399,5.4814 13.5429,5.4844 L14.7285,5.4834 L11.7235,2.3524 Z" id="Combined-Shape"></path>
        </g>
    </g>
</svg>