<svg width="25" height="25" viewBox="0 0 25 25" fill="none" xmlns="http://www.w3.org/2000/svg">
<path fill-rule="evenodd" clip-rule="evenodd" d="M12.2496 7.40063C9.43232 7.40063 7.14844 9.68452 7.14844 12.5018C7.14844 15.3191 9.43232 17.603 12.2496 17.603C15.0669 17.603 17.3508 15.3191 17.3508 12.5018C17.3508 9.68452 15.0669 7.40063 12.2496 7.40063ZM5.64844 12.5018C5.64844 8.85609 8.60389 5.90063 12.2496 5.90063C15.8954 5.90063 18.8508 8.85609 18.8508 12.5018C18.8508 16.1476 15.8954 19.103 12.2496 19.103C8.60389 19.103 5.64844 16.1476 5.64844 12.5018Z" fill="black"/>
<path fill-rule="evenodd" clip-rule="evenodd" d="M6.35072 5.66343C6.64635 5.95356 6.65082 6.42841 6.3607 6.72405C3.2131 9.93146 3.2131 15.0686 6.3607 18.276C6.65082 18.5716 6.64635 19.0465 6.35072 19.3366C6.05508 19.6267 5.58023 19.6223 5.2901 19.3266C1.56996 15.5358 1.56996 9.46425 5.2901 5.67342C5.58023 5.37778 6.05508 5.37331 6.35072 5.66343Z" fill="black"/>
<path fill-rule="evenodd" clip-rule="evenodd" d="M18.1495 5.66343C18.4451 5.37331 18.92 5.37778 19.2101 5.67342C22.9302 9.46425 22.9302 15.5358 19.2101 19.3266C18.92 19.6223 18.4451 19.6267 18.1495 19.3366C17.8539 19.0465 17.8494 18.5716 18.1395 18.276C21.2871 15.0686 21.2871 9.93146 18.1395 6.72405C17.8494 6.42841 17.8539 5.95356 18.1495 5.66343Z" fill="black"/>
<path fill-rule="evenodd" clip-rule="evenodd" d="M10.5464 10.1388C10.5464 9.72458 10.8822 9.38879 11.2964 9.38879H12.6998C13.8597 9.38879 14.8 10.3291 14.8 11.4891C14.8 12.649 13.8597 13.5893 12.6998 13.5893H12.0464V14.8648C12.0464 15.279 11.7106 15.6148 11.2964 15.6148C10.8822 15.6148 10.5464 15.279 10.5464 14.8648V10.1388ZM12.0464 12.0893H12.6998C13.0313 12.0893 13.3 11.8206 13.3 11.4891C13.3 11.1575 13.0313 10.8888 12.6998 10.8888H12.0464V12.0893Z" fill="black"/>
</svg>