<svg width="25" height="24" viewBox="0 0 25 24" fill="none" xmlns="http://www.w3.org/2000/svg">
<path opacity="0.4" d="M13.1003 22.1372C18.3594 22.1372 22.6221 17.8735 22.6221 12.6155C22.6221 7.3564 18.3594 3.09375 13.1003 3.09375C7.84126 3.09375 3.57861 7.3564 3.57861 12.6155C3.57861 17.8735 7.84126 22.1372 13.1003 22.1372Z" fill="black"/>
<path fill-rule="evenodd" clip-rule="evenodd" d="M17.341 10.986C17.204 11.09 17.044 11.141 16.885 11.141C16.659 11.141 16.437 11.04 16.289 10.848C16.213 10.749 16.047 10.582 15.796 10.582C15.545 10.582 15.379 10.749 15.303 10.848C15.052 11.176 14.581 11.239 14.251 10.986C13.923 10.734 13.862 10.263 14.113 9.93501C14.945 8.85101 16.647 8.85101 17.479 9.93501C17.731 10.263 17.669 10.734 17.341 10.986Z" fill="black"/>
<path fill-rule="evenodd" clip-rule="evenodd" d="M16.597 15.329C15.732 16.458 14.465 17.105 13.122 17.105C11.782 17.105 10.516 16.458 9.64798 15.33C9.39598 15.002 9.45698 14.531 9.78498 14.278C10.113 14.024 10.583 14.088 10.837 14.415C11.418 15.171 12.251 15.605 13.122 15.605C13.994 15.605 14.827 15.172 15.407 14.416C15.658 14.088 16.129 14.026 16.459 14.278C16.787 14.53 16.85 15.001 16.597 15.329Z" fill="black"/>
<path fill-rule="evenodd" clip-rule="evenodd" d="M8.78404 10.987C8.45604 10.736 8.39304 10.265 8.64504 9.93604C9.47504 8.84804 11.181 8.85004 12.011 9.93604C12.263 10.265 12.199 10.736 11.871 10.987C11.735 11.091 11.574 11.141 11.416 11.141C11.191 11.141 10.967 11.04 10.82 10.847C10.743 10.748 10.579 10.582 10.327 10.582C10.076 10.582 9.91204 10.748 9.83604 10.847C9.58504 11.175 9.11604 11.239 8.78404 10.987Z" fill="black"/>
<path fill-rule="evenodd" clip-rule="evenodd" d="M2.5981 2.08296C2.77799 1.90307 3.03682 1.82664 3.28558 1.87994L10.2856 3.37994C10.3579 3.39544 10.4255 3.42087 10.4873 3.45451C9.66622 3.68828 8.89041 4.02948 8.17602 4.46195L7.07611 4.22625L4.74139 6.56097L4.97423 7.64754C4.53915 8.35804 4.19465 9.13002 3.95677 9.94743C3.92947 9.89245 3.90853 9.83321 3.89508 9.77044L2.39508 2.77044C2.34177 2.52168 2.41821 2.26286 2.5981 2.08296ZM4.10465 3.58951L5.32914 3.8519L4.36704 4.814L4.10465 3.58951Z" fill="black"/>
</svg>