<svg width="24" height="24" viewBox="0 0 24 24" fill="none" xmlns="http://www.w3.org/2000/svg">
<path fill-rule="evenodd" clip-rule="evenodd" d="M16.8439 11.0279C16.7069 11.1319 16.5469 11.1829 16.3879 11.1829C16.1619 11.1829 15.9399 11.0819 15.7919 10.8899C15.7159 10.7909 15.5499 10.6239 15.2989 10.6239C15.0479 10.6239 14.8819 10.7909 14.8059 10.8899C14.5549 11.2179 14.0839 11.2809 13.7539 11.0279C13.4259 10.7759 13.3649 10.3049 13.6159 9.97695C14.4479 8.89295 16.1499 8.89295 16.9819 9.97695C17.2339 10.3049 17.1719 10.7759 16.8439 11.0279ZM16.0999 15.3709C15.2349 16.4999 13.9679 17.1469 12.6249 17.1469C11.2849 17.1469 10.0189 16.4999 9.15095 15.3719C8.89895 15.0439 8.95995 14.5729 9.28795 14.3199C9.61595 14.0659 10.0859 14.1299 10.3399 14.4569C10.9209 15.2129 11.7539 15.6469 12.6249 15.6469C13.4969 15.6469 14.3299 15.2139 14.9099 14.4579C15.1609 14.1299 15.6319 14.0679 15.9619 14.3199C16.2899 14.5719 16.3529 15.0429 16.0999 15.3709ZM8.28695 11.0289C7.95895 10.7779 7.89595 10.3069 8.14795 9.97795C8.97795 8.88995 10.6839 8.89195 11.5139 9.97795C11.7659 10.3069 11.7019 10.7779 11.3739 11.0289C11.2379 11.1329 11.0769 11.1829 10.9189 11.1829C10.6939 11.1829 10.4699 11.0819 10.3229 10.8889C10.2459 10.7899 10.0819 10.6239 9.82995 10.6239C9.57895 10.6239 9.41495 10.7899 9.33895 10.8889C9.08795 11.2169 8.61895 11.2809 8.28695 11.0289ZM4.48995 7.74595L4.23795 6.57295L6.57295 4.23795L7.74595 4.48995C6.41195 5.29295 5.29295 6.41195 4.48995 7.74595ZM3.60195 3.60195L4.82595 3.86395L3.86395 4.82595L3.60195 3.60195ZM12.6249 3.12595C11.7219 3.12595 10.8509 3.25995 10.0229 3.49695C9.94995 3.45095 9.87195 3.41095 9.78195 3.39195L2.78195 1.89195C2.53295 1.83795 2.27495 1.91495 2.09495 2.09495C1.91495 2.27495 1.83795 2.53395 1.89195 2.78295L3.39195 9.78295C3.41095 9.87395 3.44695 9.95595 3.49495 10.0299C3.25895 10.8559 3.12495 11.7249 3.12495 12.6259C3.12495 17.8639 7.38695 22.1259 12.6249 22.1259C17.8639 22.1259 22.1249 17.8639 22.1249 12.6259C22.1249 7.38695 17.8639 3.12595 12.6249 3.12595Z" fill="black"/>
</svg>