<svg width="25" height="24" viewBox="0 0 25 24" fill="none" xmlns="http://www.w3.org/2000/svg">
<path fill-rule="evenodd" clip-rule="evenodd" d="M12.25 3.75C7.69329 3.75 4 7.44329 4 12C4 16.5558 7.69335 20.25 12.25 20.25C16.8067 20.25 20.5 16.5558 20.5 12C20.5 7.44329 16.8067 3.75 12.25 3.75ZM2.5 12C2.5 6.61487 6.86487 2.25 12.25 2.25C17.6351 2.25 22 6.61487 22 12C22 17.3841 17.6352 21.75 12.25 21.75C6.86481 21.75 2.5 17.3841 2.5 12Z" fill="black"/>
<path fill-rule="evenodd" clip-rule="evenodd" d="M9.45501 10C9.28205 10 9.10194 10.0842 8.96194 10.2664C8.70957 10.5949 8.23872 10.6565 7.91027 10.4042C7.58181 10.1518 7.52014 9.68095 7.77251 9.3525C8.1618 8.84584 8.76203 8.5 9.45501 8.5C10.148 8.5 10.7482 8.84584 11.1375 9.3525C11.3899 9.68095 11.3282 10.1518 10.9998 10.4042C10.6713 10.6565 10.2004 10.5949 9.94808 10.2664C9.80807 10.0842 9.62797 10 9.45501 10Z" fill="black"/>
<path fill-rule="evenodd" clip-rule="evenodd" d="M14.9238 10C14.7508 10 14.5707 10.0842 14.4307 10.2664C14.1783 10.5949 13.7075 10.6565 13.379 10.4042C13.0506 10.1518 12.9889 9.68095 13.2413 9.3525C13.6306 8.84584 14.2308 8.5 14.9238 8.5C15.6167 8.5 16.217 8.84584 16.6063 9.3525C16.8586 9.68095 16.797 10.1518 16.4685 10.4042C16.14 10.6565 15.6692 10.5949 15.4168 10.2664C15.2768 10.0842 15.0967 10 14.9238 10Z" fill="black"/>
<path fill-rule="evenodd" clip-rule="evenodd" d="M15.5868 13.6942C15.9154 13.9464 15.9773 14.4172 15.7251 14.7458C14.8998 15.821 13.6563 16.5209 12.2502 16.5209C10.8438 16.5209 9.6015 15.8207 8.77552 14.7462C8.52309 14.4178 8.58468 13.9469 8.91309 13.6945C9.24149 13.442 9.71236 13.5036 9.96479 13.832C10.5418 14.5828 11.3642 15.0209 12.2502 15.0209C13.1364 15.0209 13.9594 14.5825 14.5352 13.8324C14.7874 13.5039 15.2582 13.4419 15.5868 13.6942Z" fill="black"/>
<path fill-rule="evenodd" clip-rule="evenodd" d="M1.71968 1.46968C1.89958 1.28979 2.1584 1.21336 2.40716 1.26666L9.40716 2.76666C9.81218 2.85345 10.0702 3.25214 9.98337 3.65716C9.89658 4.06218 9.49789 4.32015 9.09287 4.23337L3.22623 2.97623L4.48337 8.84287C4.57015 9.24789 4.31218 9.64658 3.90716 9.73337C3.50214 9.82016 3.10345 9.56218 3.01666 9.15716L1.51666 2.15716C1.46336 1.9084 1.53979 1.64958 1.71968 1.46968Z" fill="black"/>
<path fill-rule="evenodd" clip-rule="evenodd" d="M6.28033 2.46967C6.57322 2.76256 6.57322 3.23744 6.28033 3.53033L3.78033 6.03033C3.48744 6.32322 3.01256 6.32322 2.71967 6.03033C2.42678 5.73744 2.42678 5.26256 2.71967 4.96967L5.21967 2.46967C5.51256 2.17678 5.98744 2.17678 6.28033 2.46967Z" fill="black"/>
</svg>