<svg width="25" height="24" viewBox="0 0 25 24" fill="none" xmlns="http://www.w3.org/2000/svg">
<path fill-rule="evenodd" clip-rule="evenodd" d="M9.37353 17.401C10.255 18.2241 12.8558 16.8697 15.1832 14.377C17.5095 11.8842 18.682 9.19686 17.8005 8.37372C16.919 7.55058 14.3172 8.90497 11.9908 11.3977C9.66347 13.8905 8.49201 16.5779 9.37353 17.401Z" stroke="black" stroke-width="1.5" stroke-linecap="round" stroke-linejoin="round"/>
<path d="M3.70898 6.875H3.73234M6.41032 17.1323H6.43367" stroke="black" stroke-width="1.5" stroke-linecap="round" stroke-linejoin="round"/>
<path d="M17.953 8.57031L21.4664 19.6039C21.6299 20.1195 21.1609 20.6138 20.6364 20.4766L9.70312 17.5995" stroke="black" stroke-width="1.5" stroke-linecap="round" stroke-linejoin="round"/>
<path opacity="0.4" d="M15.8633 19.2191C16.5872 18.6976 17.3403 18.0223 18.0642 17.2508C18.826 16.4296 19.4633 15.5899 19.9459 14.8086" stroke="black" stroke-width="1.5" stroke-linecap="round" stroke-linejoin="round"/>
<path opacity="0.4" d="M6.94725 14.081C6.94725 14.081 5.09568 13.938 3.5 15.6621" stroke="black" stroke-width="1.5" stroke-linecap="round" stroke-linejoin="round"/>
<path opacity="0.4" fill-rule="evenodd" clip-rule="evenodd" d="M10.0723 5.97024C10.0723 6.62505 9.54107 7.1563 8.88626 7.1563C8.23144 7.1563 7.70117 6.62505 7.70117 5.97024C7.70117 5.31543 8.23144 4.78516 8.88626 4.78516C9.54107 4.78516 10.0723 5.31543 10.0723 5.97024Z" stroke="black" stroke-width="1.5" stroke-linecap="round" stroke-linejoin="round"/>
<path d="M13.2314 12.6807C13.2314 12.6807 9.98558 9.33172 5.01367 10.7474" stroke="black" stroke-width="1.5" stroke-linecap="round" stroke-linejoin="round"/>
<path opacity="0.4" d="M14.3508 3.5C14.3508 3.5 12.4711 6.07352 14.5532 9.16758" stroke="black" stroke-width="1.5" stroke-linecap="round" stroke-linejoin="round"/>
</svg>