<svg width="25" height="25" viewBox="0 0 25 25" fill="none" xmlns="http://www.w3.org/2000/svg">
<path d="M9.94897 17.2986H7.922C5.041 17.2986 3.25 15.2656 3.25 12.3886V8.42664C3.25 5.54964 5.05 3.51562 7.922 3.51562H8.76507" stroke="black" stroke-width="1.5" stroke-linecap="round" stroke-linejoin="round"/>
<path d="M20.835 10.6136V8.42664C20.835 5.54964 19.042 3.51562 16.162 3.51562H12.042" stroke="black" stroke-width="1.5" stroke-linecap="round" stroke-linejoin="round"/>
<path d="M17.421 13.4746C19.536 13.4746 21.251 15.1886 21.251 17.3036C21.251 19.4186 19.536 21.1336 17.421 21.1336C15.306 21.1336 13.592 19.4186 13.592 17.3036C13.592 16.3706 13.9255 15.5156 14.4799 14.8514" stroke="black" stroke-width="1.5" stroke-linecap="round" stroke-linejoin="round"/>
<path d="M18.4999 16.2198L16.3398 18.3798M18.4999 18.3788L16.3398 16.2188" stroke="black" stroke-width="1.5" stroke-linecap="round" stroke-linejoin="round"/>
<path d="M12.0432 10.3599V10.2959M11.7832 10.3469C11.7832 10.2029 11.9002 10.0859 12.0442 10.0859C12.1882 10.0859 12.3052 10.2029 12.3052 10.3469C12.3052 10.4909 12.1882 10.6069 12.0442 10.6069C11.9002 10.6069 11.7832 10.4909 11.7832 10.3469Z" stroke="black" stroke-width="1.5" stroke-linecap="round" stroke-linejoin="round"/>
<path d="M15.9465 10.3599V10.2959M15.6875 10.3469C15.6875 10.2029 15.8045 10.0859 15.9485 10.0859C16.0925 10.0859 16.2085 10.2029 16.2085 10.3469C16.2085 10.4909 16.0925 10.6069 15.9485 10.6069C15.8045 10.6069 15.6875 10.4909 15.6875 10.3469Z" stroke="black" stroke-width="1.5" stroke-linecap="round" stroke-linejoin="round"/>
<path d="M8.13599 10.3599V10.2959M7.87695 10.3469C7.87695 10.2029 7.99394 10.0859 8.13794 10.0859C8.28194 10.0859 8.39899 10.2029 8.39899 10.3469C8.39899 10.4909 8.28194 10.6069 8.13794 10.6069C7.99394 10.6069 7.87695 10.4909 7.87695 10.3469Z" stroke="black" stroke-width="1.5" stroke-linecap="round" stroke-linejoin="round"/>
</svg>