<svg width="25" height="25" viewBox="0 0 25 25" fill="none" xmlns="http://www.w3.org/2000/svg">
<path fill-rule="evenodd" clip-rule="evenodd" d="M3.99026 4.5066C4.97473 3.4505 6.37669 2.85938 8.03198 2.85938H16.467C18.1263 2.85938 19.5288 3.45016 20.5129 4.50689C21.4913 5.55758 22 7.00797 22 8.63538V10.8744C22 11.2886 21.6642 11.6244 21.25 11.6244C20.8358 11.6244 20.5 11.2886 20.5 10.8744V8.63538C20.5 7.31778 20.0912 6.25517 19.4151 5.52911C18.7446 4.80909 17.7557 4.35938 16.467 4.35938H8.03198C6.74828 4.35938 5.75924 4.80876 5.08747 5.5294C4.41026 6.25589 4 7.31864 4 8.63538V12.6904C4 14.0081 4.4086 15.071 5.08452 15.7973C5.75478 16.5175 6.74339 16.9674 8.03198 16.9674H11.016C11.4302 16.9674 11.766 17.3032 11.766 17.7174C11.766 18.1316 11.4302 18.4674 11.016 18.4674H8.03198C6.37258 18.4674 4.9702 17.8762 3.98646 16.8192C3.00839 15.7682 2.5 14.3177 2.5 12.6904V8.63538C2.5 7.00712 3.01123 5.55687 3.99026 4.5066Z" fill="black"/>
<path fill-rule="evenodd" clip-rule="evenodd" d="M16.9959 17.2891C16.6318 17.2891 16.3359 17.5846 16.3359 17.9491V19.5451C16.3359 19.9102 16.6325 20.2061 16.9959 20.2061H19.8389C20.2037 20.2061 20.4999 19.9099 20.4999 19.5451V17.9491C20.4999 17.585 20.2044 17.2891 19.8389 17.2891H16.9959ZM14.8359 17.9491C14.8359 16.7555 15.804 15.7891 16.9959 15.7891H19.8389C21.0314 15.7891 21.9999 16.7552 21.9999 17.9491V19.5451C21.9999 20.7383 21.0321 21.7061 19.8389 21.7061H16.9959C15.8033 21.7061 14.8359 20.7379 14.8359 19.5451V17.9491Z" fill="black"/>
<path fill-rule="evenodd" clip-rule="evenodd" d="M19.1626 14.9543C18.9854 14.7305 18.7124 14.5899 18.4062 14.5938C17.8973 14.5999 17.4838 15.0088 17.4727 15.5189V16.5689C17.4727 16.9831 17.1369 17.3189 16.7227 17.3189C16.3084 17.3189 15.9727 16.9831 15.9727 16.5689V15.4996C15.9943 14.1762 17.0643 13.1098 18.3877 13.0939C18.3875 13.0939 18.3879 13.0939 18.3877 13.0939C19.1793 13.084 19.8861 13.4514 20.3388 14.0234C20.5958 14.3482 20.5409 14.8199 20.2161 15.077C19.8913 15.334 19.4196 15.2791 19.1626 14.9543Z" fill="black"/>
<path fill-rule="evenodd" clip-rule="evenodd" d="M11.2402 10.6048C11.2402 10.0503 11.6883 9.59375 12.2502 9.59375C12.8086 9.59375 13.2612 10.0467 13.2612 10.6048C13.2612 11.1666 12.8048 11.6148 12.2502 11.6148C11.692 11.6148 11.2402 11.163 11.2402 10.6048Z" fill="black"/>
<path fill-rule="evenodd" clip-rule="evenodd" d="M15.1465 10.6048C15.1465 10.0467 15.5991 9.59375 16.1575 9.59375C16.7195 9.59375 17.1675 10.0503 17.1675 10.6048C17.1675 11.163 16.7157 11.6148 16.1575 11.6148C15.6029 11.6148 15.1465 11.1666 15.1465 10.6048Z" fill="black"/>
<path fill-rule="evenodd" clip-rule="evenodd" d="M7.33398 10.6048C7.33398 10.0467 7.78664 9.59375 8.34497 9.59375C8.90318 9.59375 9.35599 10.0466 9.35599 10.6048C9.35599 11.1668 8.8994 11.6148 8.34497 11.6148C7.79043 11.6148 7.33398 11.1666 7.33398 10.6048Z" fill="black"/>
</svg>