<svg width="25" height="25" viewBox="0 0 25 25" fill="none" xmlns="http://www.w3.org/2000/svg">
<path opacity="0.4" d="M21.5001 10.2396V8.05359C21.5001 5.17559 19.707 3.14258 16.827 3.14258H8.58704C5.71504 3.14258 3.91406 5.17559 3.91406 8.05359V12.0146C3.91406 14.8926 5.70604 16.9256 8.58704 16.9256H10.6141" stroke="black" stroke-width="1.5" stroke-linecap="round" stroke-linejoin="round"/>
<path fill-rule="evenodd" clip-rule="evenodd" d="M18.0858 20.7742C15.9708 20.7742 14.2559 19.0602 14.2559 16.9452C14.2559 14.8302 15.9708 13.1152 18.0858 13.1152C20.2008 13.1152 21.9149 14.8302 21.9149 16.9452C21.9149 19.0602 20.2008 20.7742 18.0858 20.7742Z" stroke="black" stroke-width="1.5" stroke-linecap="round" stroke-linejoin="round"/>
<path d="M19.7878 16.0918L17.6608 18.2188L16.3848 16.9428" stroke="black" stroke-width="1.5" stroke-linecap="round" stroke-linejoin="round"/>
<path d="M12.7073 9.99469V9.93069V9.99469ZM12.4473 9.98169C12.4473 9.83769 12.5643 9.7207 12.7083 9.7207C12.8523 9.7207 12.9692 9.83769 12.9692 9.98169C12.9692 10.1257 12.8523 10.2417 12.7083 10.2417C12.5643 10.2417 12.4473 10.1257 12.4473 9.98169Z" stroke="black" stroke-width="1.5" stroke-linecap="round" stroke-linejoin="round"/>
<path d="M16.6105 9.99469V9.93069V9.99469ZM16.3516 9.98169C16.3516 9.83769 16.4685 9.7207 16.6125 9.7207C16.7565 9.7207 16.8726 9.83769 16.8726 9.98169C16.8726 10.1257 16.7565 10.2417 16.6125 10.2417C16.4685 10.2417 16.3516 10.1257 16.3516 9.98169Z" stroke="black" stroke-width="1.5" stroke-linecap="round" stroke-linejoin="round"/>
<path d="M8.80005 9.99469V9.93069V9.99469ZM8.54102 9.98169C8.54102 9.83769 8.658 9.7207 8.802 9.7207C8.946 9.7207 9.06305 9.83769 9.06305 9.98169C9.06305 10.1257 8.946 10.2417 8.802 10.2417C8.658 10.2417 8.54102 10.1257 8.54102 9.98169Z" stroke="black" stroke-width="1.5" stroke-linecap="round" stroke-linejoin="round"/>
</svg>