<svg width="24" height="25" viewBox="0 0 24 25" fill="none" xmlns="http://www.w3.org/2000/svg">
<path opacity="0.4" fill-rule="evenodd" clip-rule="evenodd" d="M17.8901 6.21703V10.967C17.8901 12.687 16.9801 13.957 15.5501 14.347C15.2401 14.437 14.8901 14.487 14.5301 14.487H9.47011C9.11011 14.487 8.76011 14.437 8.45011 14.347C7.02011 13.957 6.11011 12.687 6.11011 10.967V6.21703C6.11011 4.11703 7.46011 2.70703 9.47011 2.70703H14.5301C16.5401 2.70703 17.8901 4.11703 17.8901 6.21703Z" fill="black"/>
<path fill-rule="evenodd" clip-rule="evenodd" d="M15.5498 14.0556V14.3456C15.2398 14.4356 14.8898 14.4856 14.5298 14.4856H14.0498V14.0556C14.0498 13.4356 13.5098 12.7656 11.9998 12.7656C10.4798 12.7656 9.94983 13.4656 9.94983 14.0656V14.4856H9.46983C9.10983 14.4856 8.75983 14.4356 8.44983 14.3456V14.0656C8.44983 12.7156 9.55983 11.2656 11.9998 11.2656C14.4498 11.2656 15.5498 12.6756 15.5498 14.0556Z" fill="black"/>
<path fill-rule="evenodd" clip-rule="evenodd" d="M11.9998 9.22625C11.4298 9.22625 10.9598 8.76625 10.9598 8.19625C10.9598 7.62625 11.4298 7.15625 11.9998 7.15625C12.5698 7.15625 13.0398 7.62625 13.0398 8.19625C13.0398 8.76625 12.5698 9.22625 11.9998 9.22625ZM11.9998 5.65625C10.5998 5.65625 9.45984 6.79625 9.45984 8.19625C9.45984 9.59625 10.5998 10.7263 11.9998 10.7263C13.3998 10.7263 14.5398 9.59625 14.5398 8.19625C14.5398 6.79625 13.3998 5.65625 11.9998 5.65625Z" fill="black"/>
<path fill-rule="evenodd" clip-rule="evenodd" d="M6.33974 21.9411C6.14774 21.9411 5.95574 21.8681 5.80974 21.7211L4.92474 20.8371L4.04074 21.7211C3.74774 22.0141 3.27374 22.0141 2.98074 21.7211C2.68774 21.4281 2.68774 20.9541 2.98074 20.6611L3.86474 19.7761L2.98074 18.8911C2.83374 18.7451 2.76074 18.5521 2.76074 18.3611C2.76074 18.1691 2.83374 17.9771 2.98074 17.8311C3.27374 17.5381 3.74774 17.5381 4.04074 17.8311L4.92474 18.7151L5.80974 17.8311C6.10274 17.5381 6.57674 17.5381 6.86974 17.8311C7.16274 18.1241 7.16274 18.5981 6.86974 18.8911L5.98574 19.7761L6.86974 20.6611C7.01674 20.8071 7.08974 21.0001 7.08974 21.1911C7.08974 21.3831 7.01674 21.5751 6.86974 21.7211C6.72374 21.8681 6.53174 21.9411 6.33974 21.9411Z" fill="black"/>
<path fill-rule="evenodd" clip-rule="evenodd" d="M20.4892 21.9411C20.2972 21.9411 20.1052 21.8681 19.9592 21.7211L19.0742 20.8371L18.1892 21.7211C17.8962 22.0141 17.4222 22.0141 17.1292 21.7211C16.8362 21.4281 16.8362 20.9541 17.1292 20.6611L18.0132 19.7761L17.1292 18.8911C16.9822 18.7451 16.9092 18.5531 16.9092 18.3611C16.9092 18.1691 16.9822 17.9771 17.1292 17.8311C17.4222 17.5381 17.8962 17.5381 18.1892 17.8311L19.0742 18.7151L19.9592 17.8311C20.2522 17.5381 20.7262 17.5381 21.0192 17.8311C21.3122 18.1241 21.3122 18.5981 21.0192 18.8911L20.1352 19.7761L21.0192 20.6611C21.1662 20.8071 21.2392 20.9991 21.2392 21.1911C21.2392 21.3831 21.1662 21.5751 21.0192 21.7211C20.8732 21.8681 20.6812 21.9411 20.4892 21.9411Z" fill="black"/>
<path fill-rule="evenodd" clip-rule="evenodd" d="M13.415 21.9411C13.223 21.9411 13.031 21.8681 12.885 21.7211L12 20.8371L11.115 21.7211C10.822 22.0141 10.348 22.0141 10.055 21.7211C9.76196 21.4281 9.76196 20.9541 10.055 20.6611L10.939 19.7761L10.055 18.8911C9.90796 18.7451 9.83496 18.5531 9.83496 18.3611C9.83496 18.1691 9.90796 17.9771 10.055 17.8311C10.348 17.5381 10.822 17.5381 11.115 17.8311L12 18.7151L12.885 17.8311C13.178 17.5381 13.652 17.5381 13.945 17.8311C14.238 18.1241 14.238 18.5981 13.945 18.8911L13.061 19.7761L13.945 20.6611C14.092 20.8071 14.165 20.9991 14.165 21.1911C14.165 21.3831 14.092 21.5751 13.945 21.7211C13.799 21.8681 13.607 21.9411 13.415 21.9411Z" fill="black"/>
</svg>