<svg width="25" height="25" viewBox="0 0 25 25" fill="none" xmlns="http://www.w3.org/2000/svg">
<path d="M10.4847 13.2856H14.5187C15.624 13.2856 16.5211 12.3896 16.5211 11.2836V9.01959C16.5211 7.91359 15.624 7.01758 14.5187 7.01758H10.4847C9.37942 7.01758 8.48242 7.91359 8.48242 9.01959V11.2836C8.48242 12.3896 9.37942 13.2856 10.4847 13.2856Z" stroke="black" stroke-width="1.5" stroke-linecap="round" stroke-linejoin="round"/>
<path d="M12.502 9.70898V10.592" stroke="black" stroke-width="1.5" stroke-linecap="round" stroke-linejoin="round"/>
<path d="M14.909 7.05324V5.91921C14.8925 4.58921 13.8007 3.52422 12.4716 3.54122C11.1688 3.55722 10.1152 4.60622 10.0938 5.90822V7.05324" stroke="black" stroke-width="1.5" stroke-linecap="round" stroke-linejoin="round"/>
<path opacity="0.4" d="M16.5194 10.9707H16.7169C19.665 10.9707 21.5 13.0517 21.5 15.9977C21.5 18.9427 19.665 21.0237 16.7159 21.0237H8.2822C5.3341 21.0237 3.5 18.9427 3.5 15.9977C3.5 13.0517 5.3428 10.9707 8.2822 10.9707H8.48161" stroke="black" stroke-width="1.5" stroke-linecap="round" stroke-linejoin="round"/>
<path d="M16.6246 16.9043H16.5458M8.53779 16.9043H8.45898H8.53779ZM12.5551 16.9043H12.4763H12.5551Z" stroke="black" stroke-width="1.5" stroke-linecap="round" stroke-linejoin="round"/>
</svg>