<svg width="25" height="24" viewBox="0 0 25 24" fill="none" xmlns="http://www.w3.org/2000/svg">
<path fill-rule="evenodd" clip-rule="evenodd" d="M9.08735 10.8984C8.47857 10.8984 7.98535 11.3917 7.98535 12.0004C7.98535 12.6092 8.47857 13.1024 9.08735 13.1024C9.69614 13.1024 10.1894 12.6092 10.1894 12.0004C10.1894 11.3921 9.6965 10.8992 9.08994 10.8984H9.08735ZM6.48535 12.0004C6.48535 10.5632 7.65014 9.39844 9.08735 9.39844H9.09035C10.5256 9.39984 11.6894 10.5649 11.6894 12.0004C11.6894 13.4377 10.5246 14.6024 9.08735 14.6024C7.65014 14.6024 6.48535 13.4377 6.48535 12.0004Z" fill="black"/>
<path fill-rule="evenodd" clip-rule="evenodd" d="M10.1919 11.25H18.0099V14.602H16.5099V12.75H10.1919V11.25Z" fill="black"/>
<path fill-rule="evenodd" clip-rule="evenodd" d="M15.1816 11.25V14.602H13.6816V11.25H15.1816Z" fill="black"/>
<path fill-rule="evenodd" clip-rule="evenodd" d="M2.25 22L2.25 2L22.25 2L22.25 22L2.25 22ZM3.75 20.5L20.75 20.5L20.75 3.5L3.75 3.5L3.75 20.5Z" fill="black"/>
</svg>