<svg width="25" height="24" viewBox="0 0 25 24" fill="none" xmlns="http://www.w3.org/2000/svg">
<path fill-rule="evenodd" clip-rule="evenodd" d="M10.9389 12.0001C10.9389 13.0231 10.1099 13.8521 9.08686 13.8521C8.06386 13.8521 7.23486 13.0231 7.23486 12.0001C7.23486 10.9771 8.06386 10.1481 9.08686 10.1481H9.08986C10.1119 10.1491 10.9389 10.9781 10.9389 12.0001Z" stroke="black" stroke-width="1.5" stroke-linecap="round" stroke-linejoin="round"/>
<path d="M10.9419 12.0001H17.2599V13.8521" stroke="black" stroke-width="1.5" stroke-linecap="round" stroke-linejoin="round"/>
<path d="M14.4321 13.8521V12.0001" stroke="black" stroke-width="1.5" stroke-linecap="round" stroke-linejoin="round"/>
<path opacity="0.4" fill-rule="evenodd" clip-rule="evenodd" d="M3 12.0001C3 5.06312 5.313 2.75012 12.25 2.75012C19.187 2.75012 21.5 5.06312 21.5 12.0001C21.5 18.9371 19.187 21.2501 12.25 21.2501C5.313 21.2501 3 18.9371 3 12.0001Z" stroke="black" stroke-width="1.5" stroke-linecap="round" stroke-linejoin="round"/>
</svg>