<svg width="24" height="24" viewBox="0 0 24 24" fill="none" xmlns="http://www.w3.org/2000/svg">
<path fill-rule="evenodd" clip-rule="evenodd" d="M10.6889 12.0001C10.6889 13.0231 9.85986 13.8521 8.83686 13.8521C7.81386 13.8521 6.98486 13.0231 6.98486 12.0001C6.98486 10.9771 7.81386 10.1481 8.83686 10.1481H8.83986C9.86186 10.1491 10.6889 10.9781 10.6889 12.0001Z" stroke="black" stroke-width="1.5" stroke-linecap="round" stroke-linejoin="round"/>
<path d="M10.6919 12.0001H17.0099V13.8521" stroke="black" stroke-width="1.5" stroke-linecap="round" stroke-linejoin="round"/>
<path d="M14.1821 13.8521V12.0001" stroke="black" stroke-width="1.5" stroke-linecap="round" stroke-linejoin="round"/>
<path fill-rule="evenodd" clip-rule="evenodd" d="M2.75 12.0001C2.75 5.06312 5.063 2.75012 12 2.75012C18.937 2.75012 21.25 5.06312 21.25 12.0001C21.25 18.9371 18.937 21.2501 12 21.2501C5.063 21.2501 2.75 18.9371 2.75 12.0001Z" stroke="black" stroke-width="1.5" stroke-linecap="round" stroke-linejoin="round"/>
</svg>