<svg width="25" height="25" viewBox="0 0 25 25" fill="none" xmlns="http://www.w3.org/2000/svg">
<path opacity="0.4" d="M21.085 10.5726V8.38562C21.085 5.50862 19.292 3.47461 16.412 3.47461H8.172C5.3 3.47461 3.5 5.50862 3.5 8.38562V12.3476C3.5 15.2246 5.291 17.2576 8.172 17.2576H10.199" stroke="black" stroke-width="1.5" stroke-linecap="round" stroke-linejoin="round"/>
<path d="M13.8418 17.2616C13.8418 19.3766 15.5568 21.0906 17.6718 21.0906C19.7868 21.0906 21.5008 19.3766 21.5008 17.2616C21.5008 15.1466 19.7868 13.4316 17.6718 13.4316C15.5568 13.4316 13.8418 15.1466 13.8418 17.2616Z" stroke="black" stroke-width="1.5" stroke-linecap="round" stroke-linejoin="round"/>
<path d="M18.7499 18.3377L16.5898 16.1777M18.7499 16.1787L16.5898 18.3387L18.7499 16.1787Z" stroke="black" stroke-width="1.5" stroke-linecap="round" stroke-linejoin="round"/>
<path d="M12.2932 10.3189V10.2549V10.3189ZM12.0332 10.3059C12.0332 10.1619 12.1502 10.0449 12.2942 10.0449C12.4382 10.0449 12.5552 10.1619 12.5552 10.3059C12.5552 10.4499 12.4382 10.5659 12.2942 10.5659C12.1502 10.5659 12.0332 10.4499 12.0332 10.3059Z" stroke="black" stroke-width="1.5" stroke-linecap="round" stroke-linejoin="round"/>
<path d="M16.1965 10.3189V10.2549V10.3189ZM15.9375 10.3059C15.9375 10.1619 16.0545 10.0449 16.1985 10.0449C16.3425 10.0449 16.4585 10.1619 16.4585 10.3059C16.4585 10.4499 16.3425 10.5659 16.1985 10.5659C16.0545 10.5659 15.9375 10.4499 15.9375 10.3059Z" stroke="black" stroke-width="1.5" stroke-linecap="round" stroke-linejoin="round"/>
<path d="M8.38599 10.3189V10.2549V10.3189ZM8.12695 10.3059C8.12695 10.1619 8.24394 10.0449 8.38794 10.0449C8.53194 10.0449 8.64899 10.1619 8.64899 10.3059C8.64899 10.4499 8.53194 10.5659 8.38794 10.5659C8.24394 10.5659 8.12695 10.4499 8.12695 10.3059Z" stroke="black" stroke-width="1.5" stroke-linecap="round" stroke-linejoin="round"/>
</svg>