<svg width="25" height="25" viewBox="0 0 25 25" fill="none" xmlns="http://www.w3.org/2000/svg">
<path fill-rule="evenodd" clip-rule="evenodd" d="M8.18073 4.6404C7.83573 5.0107 7.61035 5.56973 7.61035 6.29614V11.0562C7.61035 11.7841 7.83507 12.3432 8.17924 12.7132C8.51771 13.077 9.02675 13.3182 9.72437 13.3182H14.7763C15.4746 13.3182 15.9842 13.0769 16.323 12.713C16.6675 12.343 16.8924 11.7839 16.8924 11.0562V6.29614C16.8924 5.56902 16.6676 5.01013 16.3232 4.64019C15.9844 4.27631 15.475 4.03516 14.7773 4.03516H9.72437C9.02971 4.03516 8.52024 4.27599 8.18073 4.6404ZM7.08324 3.6179C7.73549 2.91781 8.65802 2.53516 9.72437 2.53516H14.7773C15.8457 2.53516 16.7688 2.91749 17.421 3.6181C18.0677 4.31266 18.3924 5.25926 18.3924 6.29614V11.0562C18.3924 12.0934 18.0677 13.0403 17.4209 13.7351C16.7685 14.4359 15.8451 14.8182 14.7763 14.8182H9.72437C8.65598 14.8182 7.73301 14.4358 7.08098 13.7349C6.43464 13.0401 6.11035 12.0932 6.11035 11.0562V6.29614C6.11035 5.25855 6.43648 4.31209 7.08324 3.6179Z" fill="black"/>
<path fill-rule="evenodd" clip-rule="evenodd" d="M10.5733 12.7053C10.3012 12.9523 10.1982 13.2588 10.1982 13.5198V14.0118C10.1982 14.4261 9.86246 14.7618 9.44824 14.7618C9.03403 14.7618 8.69824 14.4261 8.69824 14.0118V13.5198C8.69824 12.8679 8.95679 12.1469 9.56516 11.5946C10.1758 11.0403 11.0718 10.7148 12.2473 10.7148C13.4229 10.7148 14.3198 11.0363 14.9318 11.5871C15.5427 12.1368 15.8022 12.8564 15.8022 13.5098V14.0118C15.8022 14.4261 15.4665 14.7618 15.0522 14.7618C14.638 14.7618 14.3022 14.4261 14.3022 14.0118V13.5098C14.3022 13.2492 14.1998 12.9463 13.9284 12.7021C13.6582 12.4589 13.1526 12.2148 12.2473 12.2148C11.3467 12.2148 10.8432 12.4603 10.5733 12.7053Z" fill="black"/>
<path fill-rule="evenodd" clip-rule="evenodd" d="M12.25 6.60547C11.6754 6.60547 11.21 7.07051 11.21 7.64447C11.21 8.21698 11.6759 8.68347 12.25 8.68347C12.8235 8.68347 13.2889 8.21755 13.2889 7.64447C13.2889 7.06994 12.824 6.60547 12.25 6.60547ZM9.70996 7.64447C9.70996 6.24043 10.8486 5.10547 12.25 5.10547C13.6519 5.10547 14.7889 6.241 14.7889 7.64447C14.7889 9.04539 13.6525 10.1835 12.25 10.1835C10.848 10.1835 9.70996 9.04596 9.70996 7.64447Z" fill="black"/>
<path fill-rule="evenodd" clip-rule="evenodd" d="M3.23041 17.9228C3.52331 17.6299 3.99818 17.6299 4.29107 17.9228L5.17523 18.807L6.05939 17.9228C6.35228 17.6299 6.82716 17.6299 7.12005 17.9228C7.41294 18.2157 7.41294 18.6906 7.12005 18.9835L6.23589 19.8676L7.12005 20.7518C7.41294 21.0447 7.41294 21.5195 7.12005 21.8124C6.82716 22.1053 6.35228 22.1053 6.05939 21.8124L5.17523 20.9283L4.29107 21.8124C3.99818 22.1053 3.52331 22.1053 3.23041 21.8124C2.93752 21.5195 2.93752 21.0447 3.23041 20.7518L4.11457 19.8676L3.23041 18.9835C2.93752 18.6906 2.93752 18.2157 3.23041 17.9228Z" fill="black"/>
<path fill-rule="evenodd" clip-rule="evenodd" d="M17.3788 17.9229C17.6716 17.6299 18.1465 17.6299 18.4394 17.9227L19.3242 18.8071L20.2089 17.9227C20.5019 17.6299 20.9767 17.6299 21.2696 17.9229C21.5624 18.2158 21.5623 18.6907 21.2694 18.9835L20.385 19.8676L21.2694 20.7517C21.5623 21.0445 21.5624 21.5194 21.2696 21.8123C20.9767 22.1053 20.5019 22.1054 20.2089 21.8125L19.3242 20.9281L18.4394 21.8125C18.1465 22.1054 17.6716 22.1053 17.3788 21.8123C17.0859 21.5194 17.086 21.0445 17.3789 20.7517L18.2633 19.8676L17.3789 18.9835C17.086 18.6907 17.0859 18.2158 17.3788 17.9229Z" fill="black"/>
<path fill-rule="evenodd" clip-rule="evenodd" d="M10.3045 17.9229C10.5974 17.6299 11.0723 17.6299 11.3652 17.9227L12.25 18.8071L13.1347 17.9227C13.4277 17.6299 13.9025 17.6299 14.1954 17.9229C14.4882 18.2158 14.4881 18.6907 14.1952 18.9835L13.3108 19.8676L14.1952 20.7517C14.4881 21.0445 14.4882 21.5194 14.1954 21.8123C13.9025 22.1053 13.4277 22.1054 13.1347 21.8125L12.25 20.9281L11.3652 21.8125C11.0723 22.1054 10.5974 22.1053 10.3045 21.8123C10.0117 21.5194 10.0118 21.0445 10.3047 20.7517L11.1891 19.8676L10.3047 18.9835C10.0118 18.6907 10.0117 18.2158 10.3045 17.9229Z" fill="black"/>
</svg>