<svg width="24" height="25" viewBox="0 0 24 25" fill="none" xmlns="http://www.w3.org/2000/svg">
<path fill-rule="evenodd" clip-rule="evenodd" d="M10.6941 10.7339C10.6941 10.1839 11.1441 9.72391 11.7041 9.72391C12.2541 9.72391 12.7141 10.1839 12.7141 10.7339C12.7141 11.2939 12.2541 11.7439 11.7041 11.7439C11.1441 11.7439 10.6941 11.2939 10.6941 10.7339ZM7.7941 11.7439C7.2341 11.7439 6.7841 11.2939 6.7841 10.7339C6.7841 10.1839 7.2341 9.72391 7.7941 9.72391C8.3541 9.72391 8.8041 10.1839 8.8041 10.7339C8.8041 11.2939 8.3541 11.7439 7.7941 11.7439ZM15.6041 9.72391C16.1641 9.72391 16.6141 10.1839 16.6141 10.7339C16.6141 11.2939 16.1641 11.7439 15.6041 11.7439C15.0441 11.7439 14.5941 11.2939 14.5941 10.7339C14.5941 10.1839 15.0441 9.72391 15.6041 9.72391ZM17.3341 12.7939C18.5308 12.7939 19.6656 13.2275 20.6362 13.9789C20.8164 14.1184 21.0874 14.0328 21.1239 13.8078C21.1747 13.4958 21.2041 13.1712 21.2041 12.8339V8.78391C21.2041 5.48391 19.0741 3.25391 15.9141 3.25391H7.4841C4.3241 3.25391 2.2041 5.48391 2.2041 8.78391V12.8339C2.2041 16.1439 4.3241 18.3639 7.4841 18.3639H11.3351C11.5406 18.3639 11.6853 18.1605 11.6575 17.9568C11.6102 17.6089 11.6508 17.2536 11.7941 16.9239C12.8941 14.3839 15.0241 12.7939 17.3341 12.7939Z" fill="black"/>
<path fill-rule="evenodd" clip-rule="evenodd" d="M17.3391 19.8979C16.1951 19.8979 15.1361 19.0889 14.4591 17.7189C15.1381 16.3529 16.1961 15.5479 17.3381 15.5479C18.4811 15.5479 19.5401 16.3529 20.2191 17.7189C19.5421 19.0889 18.4831 19.8979 17.3391 19.8979ZM21.7341 17.4209C20.8211 15.3089 19.1791 14.0479 17.3381 14.0479C15.4991 14.0479 13.8571 15.3089 12.9441 17.4209C12.8621 17.6099 12.8621 17.8249 12.9431 18.0139C13.8541 20.1329 15.4961 21.3979 17.3381 21.3979C19.1811 21.3979 20.8241 20.1329 21.7351 18.0139C21.8161 17.8249 21.8161 17.6099 21.7341 17.4209Z" fill="black"/>
<path fill-rule="evenodd" clip-rule="evenodd" d="M17.3439 16.9238C16.9299 16.9238 16.5939 17.2648 16.5939 17.6788C16.5939 18.0928 16.9299 18.4288 17.3439 18.4288C17.7579 18.4288 18.0939 18.0928 18.0939 17.6788V17.6688C18.0939 17.2548 17.7579 16.9238 17.3439 16.9238Z" fill="black"/>
</svg>