<svg width="24" height="25" viewBox="0 0 24 25" fill="none" xmlns="http://www.w3.org/2000/svg">
<path fill-rule="evenodd" clip-rule="evenodd" d="M15.906 13.2595C15.348 13.2595 14.895 12.8065 14.895 12.2495C14.895 11.6925 15.348 11.2385 15.906 11.2385C16.463 11.2385 16.916 11.6925 16.916 12.2495C16.916 12.8065 16.463 13.2595 15.906 13.2595ZM12 13.2595C11.443 13.2595 10.99 12.8065 10.99 12.2495C10.99 11.6925 11.443 11.2385 12 11.2385C12.557 11.2385 13.011 11.6925 13.011 12.2495C13.011 12.8065 12.557 13.2595 12 13.2595ZM8.095 13.2595C7.537 13.2595 7.084 12.8065 7.084 12.2495C7.084 11.6925 7.537 11.2385 8.095 11.2385C8.652 11.2385 9.106 11.6925 9.106 12.2495C9.106 12.8065 8.652 13.2595 8.095 13.2595ZM16.217 4.76953H7.782C4.622 4.76953 2.5 6.99153 2.5 10.2995V14.3495C2.5 17.6565 4.622 19.8795 7.782 19.8795H16.216C19.376 19.8795 21.5 17.6565 21.5 14.3495V10.2995C21.5 6.99153 19.377 4.76953 16.217 4.76953Z" fill="black"/>
</svg>