<svg width="25" height="25" viewBox="0 0 25 25" fill="none" xmlns="http://www.w3.org/2000/svg">
<path opacity="0.4" d="M20.899 10.9136V8.74963C20.899 5.90263 19.126 3.89062 16.276 3.89062H8.12302C5.28102 3.89062 3.49902 5.90263 3.49902 8.74963V12.6696C3.49902 15.5166 5.27202 17.5286 8.12302 17.5286H10.533" stroke="black" stroke-width="1.5" stroke-linecap="round" stroke-linejoin="round"/>
<path d="M15.6742 19.6563C14.9862 19.0873 14.4512 18.3543 14.1182 17.5263C14.4562 16.6933 14.9952 15.9593 15.6882 15.3873C16.2862 14.8943 17.0342 14.6223 17.8092 14.6133C18.5872 14.6233 19.3382 14.8983 19.9382 15.3933" stroke="black" stroke-width="1.5" stroke-linecap="round" stroke-linejoin="round"/>
<path d="M20.9571 14.3828L14.6631 20.6768" stroke="black" stroke-width="1.5" stroke-linecap="round" stroke-linejoin="round"/>
<path d="M21.5006 17.5273C20.7156 19.3463 19.3296 20.4403 17.8096 20.4403" stroke="black" stroke-width="1.5" stroke-linecap="round" stroke-linejoin="round"/>
<path d="M12.1994 10.6617V10.5977V10.6617ZM11.9404 10.6477C11.9404 10.5037 12.0574 10.3867 12.2014 10.3867C12.3454 10.3867 12.4614 10.5037 12.4614 10.6477C12.4614 10.7917 12.3454 10.9087 12.2014 10.9087C12.0574 10.9087 11.9404 10.7917 11.9404 10.6477Z" stroke="black" stroke-width="1.5" stroke-linecap="round" stroke-linejoin="round"/>
<path d="M16.1037 10.6617V10.5977V10.6617ZM15.8447 10.6477C15.8447 10.5037 15.9617 10.3867 16.1057 10.3867C16.2497 10.3867 16.3667 10.5037 16.3667 10.6477C16.3667 10.7917 16.2497 10.9087 16.1057 10.9087C15.9617 10.9087 15.8447 10.7917 15.8447 10.6477Z" stroke="black" stroke-width="1.5" stroke-linecap="round" stroke-linejoin="round"/>
<path d="M8.29416 10.6617V10.5977V10.6617ZM8.03418 10.6477C8.03418 10.5037 8.15117 10.3867 8.29517 10.3867C8.43917 10.3867 8.55618 10.5037 8.55618 10.6477C8.55618 10.7917 8.43917 10.9087 8.29517 10.9087C8.15117 10.9087 8.03418 10.7917 8.03418 10.6477Z" stroke="black" stroke-width="1.5" stroke-linecap="round" stroke-linejoin="round"/>
</svg>