<svg width="25" height="24" viewBox="0 0 25 24" fill="none" xmlns="http://www.w3.org/2000/svg">
<path fill-rule="evenodd" clip-rule="evenodd" d="M3.27634 2.77225C3.66074 2.41439 4.16869 2.25 4.69159 2.25H6.67636C7.19898 2.25 7.70676 2.4145 8.0911 2.77211C8.48154 3.13539 8.68241 3.64094 8.68241 4.19475V6.30211C8.68241 6.85592 8.48154 7.36147 8.0911 7.72475C7.70676 8.08236 7.19898 8.24686 6.67636 8.24686H4.69159C4.16744 8.24686 3.65965 8.081 3.27586 7.72307C2.88629 7.35976 2.68555 6.85469 2.68555 6.30211V4.19475C2.68555 3.64136 2.88588 3.13574 3.27634 2.77225ZM4.29842 3.87013C4.24498 3.91988 4.18555 4.01164 4.18555 4.19475V6.30211C4.18555 6.48311 4.24457 6.57542 4.29891 6.62609C4.35901 6.68214 4.47924 6.74686 4.69159 6.74686H6.67636C6.88928 6.74686 7.00952 6.68223 7.06932 6.62659C7.12302 6.57663 7.18241 6.4848 7.18241 6.30211V4.19475C7.18241 4.01206 7.12302 3.92023 7.06932 3.87027C7.00952 3.81463 6.88928 3.75 6.67636 3.75H4.69159C4.47799 3.75 4.35792 3.81474 4.29842 3.87013ZM16.7795 2.77225C17.1639 2.41439 17.6718 2.25 18.1947 2.25H20.1795C20.7021 2.25 21.2099 2.4145 21.5942 2.77211C21.9847 3.13539 22.1855 3.64094 22.1855 4.19475V6.30211C22.1855 6.85592 21.9847 7.36147 21.5942 7.72476C21.2099 8.08236 20.7021 8.24686 20.1795 8.24686H18.1947C17.6706 8.24686 17.1628 8.081 16.779 7.72307C16.3894 7.35976 16.1887 6.85469 16.1887 6.30211V4.19475C16.1887 3.64136 16.389 3.13574 16.7795 2.77225ZM17.8016 3.87013C17.7481 3.91988 17.6887 4.01164 17.6887 4.19475V6.30211C17.6887 6.48311 17.7477 6.57542 17.802 6.62609C17.8621 6.68214 17.9824 6.74686 18.1947 6.74686H20.1795C20.3924 6.74686 20.5127 6.68223 20.5725 6.62659C20.6262 6.57663 20.6855 6.4848 20.6855 6.30211V4.19475C20.6855 4.01206 20.6262 3.92023 20.5725 3.87027C20.5127 3.81463 20.3924 3.75 20.1795 3.75H18.1947C17.9811 3.75 17.8611 3.81474 17.8016 3.87013ZM3.27634 16.2744C3.66074 15.9166 4.16869 15.7522 4.69159 15.7522H6.67636C7.19898 15.7522 7.70676 15.9167 8.0911 16.2743C8.48154 16.6376 8.68241 17.1431 8.68241 17.6969V19.8043C8.68241 20.3581 8.48154 20.8637 8.0911 21.2269C7.70676 21.5846 7.19898 21.7491 6.67636 21.7491H4.69159C4.16744 21.7491 3.65965 21.5832 3.27586 21.2253C2.88629 20.862 2.68555 20.3569 2.68555 19.8043V17.6969C2.68555 17.1436 2.88588 16.6379 3.27634 16.2744ZM4.29842 17.3723C4.24498 17.4221 4.18555 17.5138 4.18555 17.6969V19.8043C4.18555 19.9853 4.24457 20.0776 4.2989 20.1283C4.35901 20.1843 4.47924 20.2491 4.69159 20.2491H6.67636C6.88928 20.2491 7.00952 20.1844 7.06932 20.1288C7.12302 20.0788 7.18241 19.987 7.18241 19.8043V17.6969C7.18241 17.5142 7.12302 17.4224 7.06932 17.3725C7.00952 17.3168 6.88928 17.2522 6.67636 17.2522H4.69159C4.47799 17.2522 4.35792 17.3169 4.29842 17.3723ZM16.7795 16.2744C17.1639 15.9166 17.6718 15.7522 18.1947 15.7522H20.1795C20.7021 15.7522 21.2099 15.9167 21.5942 16.2743C21.9847 16.6376 22.1855 17.1431 22.1855 17.6969V19.8043C22.1855 20.3581 21.9847 20.8637 21.5942 21.2269C21.2099 21.5846 20.7021 21.7491 20.1795 21.7491H18.1947C17.6706 21.7491 17.1628 21.5832 16.779 21.2253C16.3894 20.862 16.1887 20.3569 16.1887 19.8043V17.6969C16.1887 17.1436 16.389 16.6379 16.7795 16.2744ZM17.8016 17.3723C17.7481 17.4221 17.6887 17.5138 17.6887 17.6969V19.8043C17.6887 19.9853 17.7477 20.0776 17.802 20.1283C17.8621 20.1843 17.9824 20.2491 18.1947 20.2491H20.1795C20.3924 20.2491 20.5127 20.1844 20.5725 20.1288C20.6262 20.0788 20.6855 19.987 20.6855 19.8043V17.6969C20.6855 17.5142 20.6262 17.4224 20.5725 17.3725C20.5127 17.3168 20.3924 17.2522 20.1795 17.2522H18.1947C17.9811 17.2522 17.8611 17.3169 17.8016 17.3723Z" fill="black"/>
<path fill-rule="evenodd" clip-rule="evenodd" d="M12.4506 8.19336C12.7336 8.19338 12.9925 8.35266 13.1201 8.60523L15.9289 14.1665C16.1156 14.5362 15.9673 14.9873 15.5976 15.1741C15.2278 15.3608 14.7767 15.2125 14.59 14.8427L12.4505 10.6067L10.3102 14.8428C10.1234 15.2125 9.67227 15.3608 9.30257 15.174C8.93286 14.9872 8.78459 14.5361 8.97138 14.1664L11.7812 8.60514C11.9088 8.35258 12.1677 8.19334 12.4506 8.19336Z" fill="black"/>
<path fill-rule="evenodd" clip-rule="evenodd" d="M9.5918 13.1289C9.5918 12.7147 9.92758 12.3789 10.3418 12.3789H14.5633C14.9775 12.3789 15.3133 12.7147 15.3133 13.1289C15.3133 13.5431 14.9775 13.8789 14.5633 13.8789H10.3418C9.92758 13.8789 9.5918 13.5431 9.5918 13.1289Z" fill="black"/>
<path fill-rule="evenodd" clip-rule="evenodd" d="M7.20249 5.23047C7.20249 4.81626 7.53827 4.48047 7.95249 4.48047H16.9452C17.3594 4.48047 17.6952 4.81626 17.6952 5.23047C17.6952 5.64468 17.3594 5.98047 16.9452 5.98047H7.95249C7.53827 5.98047 7.20249 5.64468 7.20249 5.23047ZM5.71875 6.74651C6.13296 6.74651 6.46875 7.0823 6.46875 7.49651V16.5029C6.46875 16.9171 6.13296 17.2529 5.71875 17.2529C5.30454 17.2529 4.96875 16.9171 4.96875 16.5029V7.49651C4.96875 7.0823 5.30454 6.74651 5.71875 6.74651ZM19.1858 6.74651C19.6 6.74651 19.9358 7.0823 19.9358 7.49651V16.5029C19.9358 16.9171 19.6 17.2529 19.1858 17.2529C18.7716 17.2529 18.4358 16.9171 18.4358 16.5029V7.49651C18.4358 7.0823 18.7716 6.74651 19.1858 6.74651ZM7.20249 18.7507C7.20249 18.3365 7.53827 18.0007 7.95249 18.0007H16.9452C17.3594 18.0007 17.6952 18.3365 17.6952 18.7507C17.6952 19.1649 17.3594 19.5007 16.9452 19.5007H7.95249C7.53827 19.5007 7.20249 19.1649 7.20249 18.7507Z" fill="black"/>
</svg>