<svg width="25" height="24" viewBox="0 0 25 24" fill="none" xmlns="http://www.w3.org/2000/svg">
<path fill-rule="evenodd" clip-rule="evenodd" d="M17.1887 4.19475V6.30211C17.1887 7.03569 17.7082 7.49686 18.4447 7.49686H20.4295C21.165 7.49686 21.6855 7.03861 21.6855 6.30211V4.19475C21.6855 3.45825 21.165 3 20.4295 3H18.4447C17.7082 3 17.1887 3.45825 17.1887 4.19475Z" stroke="black" stroke-width="1.5" stroke-linecap="round" stroke-linejoin="round"/>
<path fill-rule="evenodd" clip-rule="evenodd" d="M3.68555 4.19475V6.30211C3.68555 7.03569 4.20509 7.49686 4.94159 7.49686H6.92636C7.66189 7.49686 8.18241 7.03861 8.18241 6.30211V4.19475C8.18241 3.45825 7.66189 3 6.92636 3H4.94159C4.20509 3 3.68555 3.45825 3.68555 4.19475Z" stroke="black" stroke-width="1.5" stroke-linecap="round" stroke-linejoin="round"/>
<path fill-rule="evenodd" clip-rule="evenodd" d="M17.1887 17.6969V19.8043C17.1887 20.5379 17.7082 20.9991 18.4447 20.9991H20.4295C21.165 20.9991 21.6855 20.5408 21.6855 19.8043V17.6969C21.6855 16.9604 21.165 16.5022 20.4295 16.5022H18.4447C17.7082 16.5022 17.1887 16.9604 17.1887 17.6969Z" stroke="black" stroke-width="1.5" stroke-linecap="round" stroke-linejoin="round"/>
<path fill-rule="evenodd" clip-rule="evenodd" d="M3.68555 17.6969V19.8043C3.68555 20.5379 4.20509 20.9991 4.94159 20.9991H6.92636C7.66189 20.9991 8.18241 20.5408 8.18241 19.8043V17.6969C8.18241 16.9604 7.66189 16.5022 6.92636 16.5022H4.94159C4.20509 16.5022 3.68555 16.9604 3.68555 17.6969Z" stroke="black" stroke-width="1.5" stroke-linecap="round" stroke-linejoin="round"/>
<path d="M9.89062 14.5046L12.7004 8.94336L15.5093 14.5046" stroke="black" stroke-width="1.5" stroke-linecap="round" stroke-linejoin="round"/>
<path d="M10.5918 13.1289H14.8133" stroke="black" stroke-width="1.5" stroke-linecap="round" stroke-linejoin="round"/>
<path opacity="0.4" d="M8.20249 5.23047H17.1952M8.20249 18.7507H17.1952M5.96875 7.49651V16.5029M19.4358 7.49651V16.5029" stroke="black" stroke-width="1.5" stroke-linecap="round" stroke-linejoin="round"/>
</svg>