<svg width="25" height="25" viewBox="0 0 25 25" fill="none" xmlns="http://www.w3.org/2000/svg">
<path fill-rule="evenodd" clip-rule="evenodd" d="M3.2744 3.71562C3.65881 3.35775 4.16678 3.19336 4.6897 3.19336H6.67455C7.19719 3.19336 7.70498 3.35786 8.08933 3.71548C8.47978 4.07877 8.68066 4.58434 8.68066 5.13817V7.24562C8.68066 7.79944 8.47978 8.30501 8.08933 8.6683C7.70498 9.02592 7.19719 9.19042 6.67455 9.19042H4.6897C4.16553 9.19042 3.65772 9.02456 3.27392 8.66662C2.88435 8.3033 2.68359 7.79822 2.68359 7.24562V5.13817C2.68359 4.58476 2.88394 4.07913 3.2744 3.71562ZM4.29649 4.8135C4.24303 4.86326 4.18359 4.95504 4.18359 5.13817V7.24562C4.18359 7.42664 4.24262 7.51895 4.29697 7.56964C4.35708 7.6257 4.47733 7.69042 4.6897 7.69042H6.67455C6.88749 7.69042 7.00774 7.62579 7.06755 7.57014C7.12126 7.52017 7.18066 7.42833 7.18066 7.24562V5.13817C7.18066 4.95546 7.12126 4.86362 7.06755 4.81364C7.00774 4.75799 6.88749 4.69336 6.67455 4.69336H4.6897C4.47608 4.69336 4.35599 4.7581 4.29649 4.8135ZM16.7772 3.71562C17.1616 3.35775 17.6696 3.19336 18.1925 3.19336H20.1773C20.7 3.19336 21.2078 3.3579 21.5919 3.71576C21.9822 4.07923 22.1825 4.58477 22.1825 5.13817V7.24562C22.1825 7.79901 21.9822 8.30455 21.5919 8.66802C21.2078 9.02589 20.7 9.19042 20.1773 9.19042H18.1925C17.6683 9.19042 17.1605 9.02456 16.7767 8.66662C16.3871 8.3033 16.1864 7.79822 16.1864 7.24562V5.13817C16.1864 4.58476 16.3867 4.07913 16.7772 3.71562ZM17.7993 4.8135C17.7458 4.86326 17.6864 4.95504 17.6864 5.13817V7.24562C17.6864 7.42664 17.7454 7.51895 17.7998 7.56964C17.8599 7.6257 17.9801 7.69042 18.1925 7.69042H20.1773C20.3902 7.69042 20.5101 7.62582 20.5696 7.57042C20.623 7.52062 20.6825 7.42876 20.6825 7.24562V5.13817C20.6825 4.95502 20.623 4.86316 20.5696 4.81336C20.5101 4.75796 20.3902 4.69336 20.1773 4.69336H18.1925C17.9789 4.69336 17.8588 4.7581 17.7993 4.8135ZM3.2744 17.2184C3.65881 16.8605 4.16678 16.6962 4.6897 16.6962H6.67455C7.19719 16.6962 7.70498 16.8607 8.08933 17.2183C8.47978 17.5816 8.68066 18.0871 8.68066 18.641V20.7484C8.68066 21.3022 8.47978 21.8078 8.08933 22.1711C7.70498 22.5287 7.19719 22.6932 6.67455 22.6932H4.6897C4.16553 22.6932 3.65773 22.5274 3.27392 22.1694C2.88435 21.8061 2.68359 21.301 2.68359 20.7484V18.641C2.68359 18.0876 2.88394 17.5819 3.2744 17.2184ZM4.29649 18.3163C4.24303 18.3661 4.18359 18.4578 4.18359 18.641V20.7484C4.18359 20.9294 4.24262 21.0217 4.29697 21.0724C4.35708 21.1285 4.47733 21.1932 4.6897 21.1932H6.67455C6.88749 21.1932 7.00774 21.1286 7.06755 21.0729C7.12126 21.023 7.18066 20.9311 7.18066 20.7484V18.641C7.18066 18.4583 7.12126 18.3664 7.06755 18.3164C7.00774 18.2608 6.88749 18.1962 6.67455 18.1962H4.6897C4.47608 18.1962 4.35599 18.2609 4.29649 18.3163Z" fill="black"/>
<path fill-rule="evenodd" clip-rule="evenodd" d="M7.20259 6.17383C7.20259 5.75961 7.53837 5.42383 7.95259 5.42383H16.9457C17.36 5.42383 17.6957 5.75961 17.6957 6.17383C17.6957 6.58804 17.36 6.92383 16.9457 6.92383H7.95259C7.53837 6.92383 7.20259 6.58804 7.20259 6.17383ZM5.71875 7.68997C6.13296 7.68997 6.46875 8.02576 6.46875 8.43997V17.4467C6.46875 17.861 6.13296 18.1967 5.71875 18.1967C5.30454 18.1967 4.96875 17.861 4.96875 17.4467V8.43997C4.96875 8.02576 5.30454 7.68997 5.71875 7.68997ZM19.1864 7.68997C19.6006 7.68997 19.9364 8.02576 19.9364 8.43997V10.636C19.9364 11.0502 19.6006 11.386 19.1864 11.386C18.7722 11.386 18.4364 11.0502 18.4364 10.636V8.43997C18.4364 8.02576 18.7722 7.68997 19.1864 7.68997ZM7.20259 19.6947C7.20259 19.2805 7.53837 18.9447 7.95259 18.9447H11.1079C11.5221 18.9447 11.8579 19.2805 11.8579 19.6947C11.8579 20.1089 11.5221 20.4447 11.1079 20.4447H7.95259C7.53837 20.4447 7.20259 20.1089 7.20259 19.6947Z" fill="black"/>
<path fill-rule="evenodd" clip-rule="evenodd" d="M18.7645 14.8331L15.1599 18.8264C14.939 19.0743 14.8012 19.3845 14.7656 19.7146L14.6566 20.7216C14.6566 20.7217 14.6566 20.7216 14.6566 20.7216C14.6322 20.949 14.831 21.1357 15.0547 21.0982L16.0318 20.9347C16.3875 20.8753 16.7136 20.6956 16.9542 20.4259L16.9571 20.4226L20.5266 16.4691C20.7476 16.2306 20.7337 15.8568 20.4943 15.6348C20.4942 15.6347 20.4943 15.6348 20.4943 15.6348L19.5965 14.8041C19.3582 14.5833 18.9862 14.5964 18.7645 14.8331ZM20.6152 13.7031C19.7685 12.919 18.4454 12.969 17.6608 13.8173L14.045 17.8229L14.0424 17.8258C13.6121 18.3074 13.3436 18.9112 13.2742 19.5534C13.2742 19.5534 13.2742 19.5535 13.2742 19.5534L13.1653 20.5604C13.0341 21.7749 14.0981 22.7794 15.3026 22.5776L16.2791 22.4142C16.279 22.4142 16.2792 22.4142 16.2791 22.4142C16.9713 22.2985 17.6043 21.9496 18.0719 21.4263L21.6306 17.4847C22.4119 16.6372 22.3585 15.3172 21.5136 14.5343L20.6152 13.7031Z" fill="black"/>
</svg>