<svg width="25" height="25" viewBox="0 0 25 25" fill="none" xmlns="http://www.w3.org/2000/svg">
<path fill-rule="evenodd" clip-rule="evenodd" d="M17.1884 5.13817V7.24564C17.1884 7.97927 17.708 8.44046 18.4446 8.44046H20.4294C21.165 8.44046 21.6855 7.98219 21.6855 7.24564V5.13817C21.6855 4.40163 21.165 3.94336 20.4294 3.94336H18.4446C17.708 3.94336 17.1884 4.40163 17.1884 5.13817Z" stroke="black" stroke-width="1.5" stroke-linecap="round" stroke-linejoin="round"/>
<path fill-rule="evenodd" clip-rule="evenodd" d="M3.68555 5.13817V7.24564C3.68555 7.97927 4.20512 8.44046 4.94166 8.44046H6.92653C7.6621 8.44046 8.18265 7.98219 8.18265 7.24564V5.13817C8.18265 4.40163 7.6621 3.94336 6.92653 3.94336H4.94166C4.20512 3.94336 3.68555 4.40163 3.68555 5.13817Z" stroke="black" stroke-width="1.5" stroke-linecap="round" stroke-linejoin="round"/>
<path fill-rule="evenodd" clip-rule="evenodd" d="M17.1884 18.6411V20.7485C17.1884 21.4822 17.708 21.9434 18.4446 21.9434H20.4294C21.165 21.9434 21.6855 21.4851 21.6855 20.7485V18.6411C21.6855 17.9045 21.165 17.4463 20.4294 17.4463H18.4446C17.708 17.4463 17.1884 17.9045 17.1884 18.6411Z" stroke="black" stroke-width="1.5" stroke-linecap="round" stroke-linejoin="round"/>
<path fill-rule="evenodd" clip-rule="evenodd" d="M3.68555 18.6411V20.7485C3.68555 21.4822 4.20512 21.9434 4.94166 21.9434H6.92653C7.6621 21.9434 8.18265 21.4851 8.18265 20.7485V18.6411C8.18265 17.9045 7.6621 17.4463 6.92653 17.4463H4.94166C4.20512 17.4463 3.68555 17.9045 3.68555 18.6411Z" stroke="black" stroke-width="1.5" stroke-linecap="round" stroke-linejoin="round"/>
<path d="M12.6858 10.7695V15.1139M14.858 12.9416H10.5137" stroke="black" stroke-width="1.5" stroke-linecap="round" stroke-linejoin="round"/>
<path opacity="0.4" d="M8.20456 6.17383H17.1978M8.20456 19.6948H17.1978M5.9707 8.43999V17.4468M19.4384 8.43999V17.4468" stroke="black" stroke-width="1.5" stroke-linecap="round" stroke-linejoin="round"/>
</svg>