<svg width="25" height="25" viewBox="0 0 25 25" fill="none" xmlns="http://www.w3.org/2000/svg">
<path fill-rule="evenodd" clip-rule="evenodd" d="M3.27636 3.71562C3.66077 3.35775 4.16874 3.19336 4.69166 3.19336H6.67653C7.19917 3.19336 7.70697 3.35786 8.09132 3.71548C8.48177 4.07878 8.68265 4.58434 8.68265 5.13817V7.24564C8.68265 7.79947 8.48177 8.30504 8.09132 8.66833C7.70697 9.02595 7.19917 9.19046 6.67653 9.19046H4.69166C4.16749 9.19046 3.65968 9.02459 3.27588 8.66665C2.8863 8.30333 2.68555 7.79824 2.68555 7.24564V5.13817C2.68555 4.58476 2.88589 4.07913 3.27636 3.71562ZM4.29844 4.8135C4.24499 4.86327 4.18555 4.95504 4.18555 5.13817V7.24564C4.18555 7.42666 4.24458 7.51898 4.29892 7.56967C4.35904 7.62573 4.47929 7.69046 4.69166 7.69046H6.67653C6.88947 7.69046 7.00972 7.62582 7.06954 7.57017C7.12325 7.5202 7.18265 7.42835 7.18265 7.24564V5.13817C7.18265 4.95546 7.12325 4.86362 7.06954 4.81364C7.00972 4.75799 6.88947 4.69336 6.67653 4.69336H4.69166C4.47804 4.69336 4.35795 4.7581 4.29844 4.8135ZM16.7793 3.71562C17.1637 3.35775 17.6716 3.19336 18.1946 3.19336H20.1794C20.7021 3.19336 21.2099 3.35786 21.5942 3.71548C21.9847 4.07878 22.1855 4.58434 22.1855 5.13817V7.24564C22.1855 7.79947 21.9847 8.30504 21.5942 8.66833C21.2099 9.02595 20.7021 9.19046 20.1794 9.19046H18.1946C17.6704 9.19046 17.1626 9.02459 16.7788 8.66665C16.3892 8.30333 16.1884 7.79824 16.1884 7.24564V5.13817C16.1884 4.58476 16.3888 4.07913 16.7793 3.71562ZM17.8013 4.8135C17.7479 4.86327 17.6884 4.95504 17.6884 5.13817V7.24564C17.6884 7.42666 17.7475 7.51898 17.8018 7.56967C17.8619 7.62573 17.9822 7.69046 18.1946 7.69046H20.1794C20.3924 7.69046 20.5126 7.62582 20.5724 7.57017C20.6262 7.5202 20.6855 7.42835 20.6855 7.24564V5.13817C20.6855 4.95546 20.6262 4.86362 20.5724 4.81364C20.5126 4.75799 20.3924 4.69336 20.1794 4.69336H18.1946C17.9809 4.69336 17.8609 4.7581 17.8013 4.8135ZM3.27636 17.2185C3.66077 16.8607 4.16874 16.6963 4.69166 16.6963H6.67653C7.19917 16.6963 7.70697 16.8608 8.09132 17.2184C8.48177 17.5817 8.68265 18.0872 8.68265 18.6411V20.7485C8.68265 21.3024 8.48177 21.8079 8.09132 22.1712C7.70697 22.5289 7.19917 22.6934 6.67653 22.6934H4.69166C4.16749 22.6934 3.65968 22.5275 3.27588 22.1696C2.8863 21.8062 2.68555 21.3011 2.68555 20.7485V18.6411C2.68555 18.0877 2.88589 17.582 3.27636 17.2185ZM4.29844 18.3164C4.24499 18.3662 4.18555 18.4579 4.18555 18.6411V20.7485C4.18555 20.9296 4.24458 21.0219 4.29892 21.0726C4.35904 21.1286 4.47929 21.1934 4.69166 21.1934H6.67653C6.88947 21.1934 7.00972 21.1287 7.06954 21.0731C7.12325 21.0231 7.18265 20.9313 7.18265 20.7485V18.6411C7.18265 18.4584 7.12325 18.3665 7.06954 18.3165C7.00972 18.2609 6.88947 18.1963 6.67653 18.1963H4.69166C4.47804 18.1963 4.35795 18.261 4.29844 18.3164ZM16.7793 17.2185C17.1637 16.8607 17.6716 16.6963 18.1946 16.6963H20.1794C20.7021 16.6963 21.2099 16.8608 21.5942 17.2184C21.9847 17.5817 22.1855 18.0872 22.1855 18.6411V20.7485C22.1855 21.3024 21.9847 21.8079 21.5942 22.1712C21.2099 22.5289 20.7021 22.6934 20.1794 22.6934H18.1946C17.6704 22.6934 17.1626 22.5275 16.7788 22.1696C16.3892 21.8062 16.1884 21.3011 16.1884 20.7485V18.6411C16.1884 18.0877 16.3888 17.582 16.7793 17.2185ZM17.8013 18.3164C17.7479 18.3662 17.6884 18.4579 17.6884 18.6411V20.7485C17.6884 20.9296 17.7475 21.0219 17.8018 21.0726C17.8619 21.1286 17.9822 21.1934 18.1946 21.1934H20.1794C20.3924 21.1934 20.5126 21.1287 20.5724 21.0731C20.6262 21.0231 20.6855 20.9313 20.6855 20.7485V18.6411C20.6855 18.4584 20.6262 18.3665 20.5724 18.3165C20.5126 18.2609 20.3924 18.1963 20.1794 18.1963H18.1946C17.9809 18.1963 17.8609 18.261 17.8013 18.3164Z" fill="black"/>
<path fill-rule="evenodd" clip-rule="evenodd" d="M12.4358 10.0195C12.85 10.0195 13.1858 10.3553 13.1858 10.7695V12.1916H14.608C15.0222 12.1916 15.358 12.5274 15.358 12.9416C15.358 13.3558 15.0222 13.6916 14.608 13.6916H13.1858V15.1139C13.1858 15.5281 12.85 15.8639 12.4358 15.8639C12.0216 15.8639 11.6858 15.5281 11.6858 15.1139V13.6916H10.2637C9.84946 13.6916 9.51367 13.3558 9.51367 12.9416C9.51367 12.5274 9.84946 12.1916 10.2637 12.1916H11.6858V10.7695C11.6858 10.3553 12.0216 10.0195 12.4358 10.0195Z" fill="black"/>
<path fill-rule="evenodd" clip-rule="evenodd" d="M7.20456 6.17383C7.20456 5.75961 7.54035 5.42383 7.95456 5.42383H16.9478C17.362 5.42383 17.6978 5.75961 17.6978 6.17383C17.6978 6.58804 17.362 6.92383 16.9478 6.92383H7.95456C7.54035 6.92383 7.20456 6.58804 7.20456 6.17383ZM5.7207 7.68999C6.13492 7.68999 6.4707 8.02578 6.4707 8.43999V17.4468C6.4707 17.861 6.13492 18.1968 5.7207 18.1968C5.30649 18.1968 4.9707 17.861 4.9707 17.4468V8.43999C4.9707 8.02578 5.30649 7.68999 5.7207 7.68999ZM19.1884 7.68999C19.6027 7.68999 19.9384 8.02578 19.9384 8.43999V17.4468C19.9384 17.861 19.6027 18.1968 19.1884 18.1968C18.7742 18.1968 18.4384 17.861 18.4384 17.4468V8.43999C18.4384 8.02578 18.7742 7.68999 19.1884 7.68999ZM7.20456 19.6948C7.20456 19.2806 7.54035 18.9448 7.95456 18.9448H16.9478C17.362 18.9448 17.6978 19.2806 17.6978 19.6948C17.6978 20.109 17.362 20.4448 16.9478 20.4448H7.95456C7.54035 20.4448 7.20456 20.109 7.20456 19.6948Z" fill="black"/>
</svg>