<svg width="25" height="24" viewBox="0 0 25 24" fill="none" xmlns="http://www.w3.org/2000/svg">
<path d="M7.39844 11.9996V8.10774C7.39844 7.57066 7.83433 7.13477 8.37141 7.13477H9.8513C10.3884 7.13477 10.8243 7.57066 10.8243 8.10774V15.8915C10.8243 16.4286 10.3884 16.8645 9.8513 16.8645H8.37141C7.83433 16.8645 7.39844 16.4286 7.39844 15.8915V14.9456" stroke="black" stroke-width="1.5" stroke-linecap="round" stroke-linejoin="round"/>
<path d="M15.8983 7.13477C14.4126 7.13477 13.209 8.33833 13.209 9.82406C13.209 11.3098 14.4126 12.5134 15.8983 12.5134C17.383 12.5134 18.5876 11.3098 18.5876 9.82406C18.5876 9.28104 18.4267 8.7757 18.15 8.35305" stroke="black" stroke-width="1.5" stroke-linecap="round" stroke-linejoin="round"/>
<path d="M12.749 21H8.53216C5.58405 21 3.75 18.9188 3.75 15.9736V8.02638C3.75 5.08119 5.59281 3 8.53216 3H16.9669C19.915 3 21.75 5.08119 21.75 8.02638V15.9736C21.75 18.9188 19.915 21 16.9659 21H16.3991" stroke="black" stroke-width="1.5" stroke-linecap="round" stroke-linejoin="round"/>
</svg>