<svg width="24" height="24" viewBox="0 0 24 24" fill="none" xmlns="http://www.w3.org/2000/svg">
<path fill-rule="evenodd" clip-rule="evenodd" d="M3.25 5.56229C3.25 4.70378 3.94596 4.00781 4.80447 4.00781H7.2179C8.07641 4.00781 8.77237 4.70377 8.77237 5.56229V18.4339C8.77237 19.2924 8.07641 19.9884 7.2179 19.9884H4.80447C3.94596 19.9884 3.25 19.2924 3.25 18.4339V5.56229ZM4.80447 5.50781C4.77439 5.50781 4.75 5.5322 4.75 5.56229V18.4339C4.75 18.464 4.77439 18.4884 4.80447 18.4884H7.2179C7.24799 18.4884 7.27237 18.464 7.27237 18.4339V5.56229C7.27237 5.5322 7.24799 5.50781 7.2179 5.50781H4.80447Z" fill="black"/>
<path fill-rule="evenodd" clip-rule="evenodd" d="M15.4189 5.50781C13.3031 5.50781 11.5879 7.22303 11.5879 9.33885C11.5879 11.4547 13.3031 13.1699 15.4189 13.1699C17.5348 13.1699 19.25 11.4547 19.25 9.33885C19.25 7.22303 17.5348 5.50781 15.4189 5.50781ZM10.0879 9.33885C10.0879 6.3946 12.4747 4.00781 15.4189 4.00781C18.3632 4.00781 20.75 6.3946 20.75 9.33885C20.75 12.2831 18.3632 14.6699 15.4189 14.6699C12.4747 14.6699 10.0879 12.2831 10.0879 9.33885Z" fill="black"/>
</svg>