<svg width="24" height="24" viewBox="0 0 24 24" fill="none" xmlns="http://www.w3.org/2000/svg">
<path d="M12 21C16.9706 21 21 16.9706 21 12C21 7.02944 16.9706 3 12 3C7.02944 3 3 7.02944 3 12C3 16.9706 7.02944 21 12 21Z" stroke="black" stroke-width="1.5" stroke-linecap="round" stroke-linejoin="round"/>
<path d="M13.3813 8.40861C14.6495 9.16391 15.6649 10.1844 17.1996 9.04431C16.9558 10.8986 14.5676 11.9369 12.7614 10.767C11.4339 9.96341 10.8386 9.22122 8.95898 10.1173C9.23052 8.07541 11.6562 7.29112 13.3813 8.40861Z" stroke="black" stroke-width="1.5" stroke-linecap="round" stroke-linejoin="round"/>
<path d="M11.2221 13.2485C12.4903 14.0038 13.5057 15.0242 15.0404 13.8841C14.7966 15.7385 12.4084 16.7767 10.6023 15.6068C9.27473 14.8033 8.67946 14.0611 6.7998 14.9571C7.07134 12.9153 9.49698 12.131 11.2221 13.2485Z" stroke="black" stroke-width="1.5" stroke-linecap="round" stroke-linejoin="round"/>
</svg>