<svg width="25" height="24" viewBox="0 0 25 24" fill="none" xmlns="http://www.w3.org/2000/svg">
<path fill-rule="evenodd" clip-rule="evenodd" d="M10.813 12.9977H13.2883C15.7491 12.9977 17.843 11.2073 18.2264 8.77773C18.7051 5.74388 16.3601 3 13.2883 3H9.17056C7.98057 3 6.9667 3.86598 6.78085 5.04235L4.76186 17.8452C4.66651 18.4524 5.1355 19.0011 5.74946 19.0011H7.749C8.39799 19.0011 8.94969 18.5292 9.05088 17.888L9.66777 13.9765C9.75631 13.4131 10.2428 12.9977 10.813 12.9977Z" stroke="black" stroke-width="1.5" stroke-linecap="round" stroke-linejoin="round"/>
<path d="M9.04693 17.8976L8.61897 20.4203C8.57129 20.7229 8.80578 20.9973 9.11326 20.9973L11.826 20.9993C12.3183 20.9993 12.7377 20.6412 12.8146 20.1547L13.3896 16.5049H15.9983C18.458 16.5049 20.5529 14.7146 20.9363 12.284C21.2739 10.1434 20.2026 8.15166 18.4648 7.16211L18.1987 7.01562" stroke="black" stroke-width="1.5" stroke-linecap="round" stroke-linejoin="round"/>
</svg>