<svg width="24" height="24" viewBox="0 0 24 24" fill="none" xmlns="http://www.w3.org/2000/svg">
<path d="M6.8688 19.7458H4.8688C4.3588 19.7458 3.86878 19.5259 3.53878 19.1359C3.20878 18.7459 3.05882 18.2358 3.13882 17.7358L5.15878 4.9259C5.40878 3.3759 6.71878 2.25586 8.28878 2.25586H12.4088C14.0888 2.25586 15.6888 2.98587 16.7788 4.26587C17.8688 5.54587 18.3488 7.23587 18.0888 8.89587C17.6388 11.7059 15.2588 13.7458 12.4088 13.7458H9.9288C9.7288 13.7458 9.55883 13.8958 9.52883 14.0958L8.90878 18.0059C8.74878 19.0159 7.8888 19.7458 6.8688 19.7458ZM8.28878 3.74585C7.47878 3.74585 6.76882 4.34588 6.63882 5.15588L4.6188 17.9658C4.5988 18.0658 4.6488 18.1259 4.6788 18.1559C4.7088 18.1859 4.7688 18.2458 4.8688 18.2458H6.8688C7.1488 18.2458 7.3888 18.0459 7.4288 17.7659L8.04879 13.8558C8.19879 12.9258 8.98881 12.2458 9.93881 12.2458H12.4188C14.5188 12.2458 16.2888 10.7359 16.6188 8.65588C16.8088 7.42588 16.4588 6.17583 15.6488 5.22583C14.8388 4.28583 13.6588 3.73584 12.4188 3.73584H8.29879L8.28878 3.74585Z" fill="black"/>
<path d="M10.9386 21.7452H8.22861C7.86861 21.7452 7.51866 21.5852 7.27866 21.3052C7.03866 21.0252 6.93862 20.6552 6.98862 20.2952L7.41861 17.7652C7.48861 17.3552 7.86861 17.0852 8.28861 17.1552C8.69861 17.2252 8.96865 17.6152 8.89865 18.0152L8.51865 20.2352H10.9386C11.0586 20.2352 11.1686 20.1452 11.1886 20.0152L11.7686 16.3652C11.8286 16.0052 12.1386 15.7352 12.5086 15.7352H15.1186C17.2186 15.7352 18.9886 14.2252 19.3186 12.1452C19.5986 10.3852 18.7687 8.67522 17.2187 7.79522L16.9786 7.66521C16.6086 7.47521 16.4686 7.0152 16.6686 6.6552C16.8586 6.2952 17.3186 6.14514 17.6786 6.34514L17.9486 6.48516C20.0686 7.69516 21.1886 10.0052 20.8086 12.3852C20.3686 15.1952 17.9786 17.2352 15.1286 17.2352H13.1586L12.6886 20.2552C12.5486 21.1152 11.8286 21.7352 10.9586 21.7352L10.9386 21.7452Z" fill="black"/>
</svg>