<svg width="24" height="24" viewBox="0 0 24 24" fill="none" xmlns="http://www.w3.org/2000/svg">
<path fill-rule="evenodd" clip-rule="evenodd" d="M10.0625 12.9977H12.5378C14.9986 12.9977 17.0925 11.2073 17.4759 8.77773C17.9546 5.74388 15.6096 3 12.5378 3H8.42007C7.23009 3 6.21621 3.86598 6.03037 5.04235L4.01137 17.8452C3.91602 18.4524 4.38501 19.0011 4.99898 19.0011H6.99851C7.64751 19.0011 8.1992 18.5292 8.3004 17.888L8.91728 13.9765C9.00583 13.4131 9.49233 12.9977 10.0625 12.9977Z" stroke="black" stroke-width="1.5" stroke-linecap="round" stroke-linejoin="round"/>
<path d="M8.29742 17.8976L7.86946 20.4203C7.82178 20.7229 8.05627 20.9973 8.36374 20.9973L11.0765 20.9993C11.5688 20.9993 11.9882 20.6412 12.0651 20.1547L12.6401 16.5049H15.2488C17.7085 16.5049 19.8034 14.7146 20.1868 12.284C20.5244 10.1434 19.4531 8.15166 17.7153 7.16211L17.4492 7.01562" stroke="black" stroke-width="1.5" stroke-linecap="round" stroke-linejoin="round"/>
</svg>