<svg width="25" height="24" viewBox="0 0 25 24" fill="none" xmlns="http://www.w3.org/2000/svg">
<path d="M19.556 6.70275C19.2087 4.98351 17.6899 3.68848 15.8684 3.68848H7.26249C5.18422 3.68848 3.5 5.3727 3.5 7.45097V12.5455C3.5 14.6237 5.18422 16.308 7.26249 16.308H11.1048" stroke="black" stroke-width="1.5" stroke-linecap="round" stroke-linejoin="round"/>
<path d="M6.91602 19.9609H11.7692" stroke="black" stroke-width="1.5" stroke-linecap="round" stroke-linejoin="round"/>
<path d="M9.55835 16.3037L8.96289 19.9611" stroke="black" stroke-width="1.5" stroke-linecap="round" stroke-linejoin="round"/>
<path opacity="0.4" d="M19.3255 9.49902C20.5251 9.49902 21.4981 10.472 21.4991 11.6726V14.9058V18.139C21.4991 19.3397 20.5261 20.3127 19.3255 20.3127H16.0125C14.8118 20.3127 13.8389 19.3397 13.8389 18.139L13.8379 11.6726C13.8379 10.473 14.8118 9.49902 16.0115 9.49902H19.3255Z" stroke="black" stroke-width="1.5" stroke-linecap="round" stroke-linejoin="round"/>
<path d="M17.6699 17.6729V17.6829" stroke="black" stroke-width="1.5" stroke-linecap="round" stroke-linejoin="round"/>
</svg>