<svg width="24" height="24" viewBox="0 0 24 24" fill="none" xmlns="http://www.w3.org/2000/svg">
<path opacity="0.4" fill-rule="evenodd" clip-rule="evenodd" d="M10.9998 16.8992C11.1654 16.8992 11.2998 16.7649 11.2998 16.5992V11.5982C11.2998 9.28322 13.1838 7.39922 15.4998 7.39922H18.7998C18.9237 7.39922 19.0445 7.41106 19.1616 7.43327C19.3745 7.47368 19.5998 7.32682 19.5998 7.11012V6.69922C19.5998 6.67022 19.5968 6.64022 19.5918 6.61222C19.2488 4.66722 17.4468 3.19922 15.4008 3.19922H6.79976C4.42876 3.19922 2.49976 5.12822 2.49976 7.49922V12.5982C2.49976 14.9692 4.42876 16.8992 6.79976 16.8992H8.24276L7.86176 19.2492H5.85976C5.44576 19.2492 5.10976 19.5852 5.10976 19.9992C5.10976 20.4132 5.44576 20.7492 5.85976 20.7492H10.7598C11.1738 20.7492 11.5098 20.4132 11.5098 19.9992C11.5098 19.5852 11.1738 19.2492 10.7598 19.2492H9.38076L9.76176 16.8992H10.9998Z" fill="black"/>
<path fill-rule="evenodd" clip-rule="evenodd" d="M17.1913 18.4564C16.7713 18.4564 16.4303 18.1154 16.4303 17.6954C16.4303 17.2754 16.7713 16.9344 17.1913 16.9344C17.6113 16.9344 17.9523 17.2754 17.9523 17.6954C17.9523 18.1154 17.6113 18.4564 17.1913 18.4564ZM18.8003 8.90039H15.5003C14.0363 8.90039 12.8003 10.1364 12.8003 11.5994V18.0994C12.8003 19.5884 14.0113 20.7994 15.5003 20.7994H18.8003C20.2893 20.7994 21.5003 19.5884 21.5003 18.0994V11.5994C21.5003 10.1364 20.2643 8.90039 18.8003 8.90039Z" fill="black"/>
</svg>