<svg width="24" height="24" viewBox="0 0 24 24" fill="none" xmlns="http://www.w3.org/2000/svg">
<path d="M20.9997 11.334L19.258 12.1599C18.2701 12.629 17.0948 12.4257 16.3218 11.6527L12.347 7.6779C11.574 6.90495 11.3708 5.72966 11.8398 4.74071L12.6657 3" stroke="black" stroke-width="1.5" stroke-linecap="round" stroke-linejoin="round"/>
<path d="M16.2032 11.5342L14.9295 19.2192C14.8447 19.7306 14.4022 20.1012 13.8833 20.0874C12.0187 20.0398 7.6172 20.044 4.3126 20.962C3.54706 21.1748 2.82494 20.4527 3.03777 19.6872C3.95577 16.3826 3.96001 11.981 3.91236 10.1164C3.89965 9.59761 4.26919 9.15502 4.7806 9.07031" stroke="black" stroke-width="1.5" stroke-linecap="round" stroke-linejoin="round"/>
<path d="M8.62305 8.43376L12.4655 7.79688" stroke="black" stroke-width="1.5" stroke-linecap="round" stroke-linejoin="round"/>
<path d="M8.46999 15.5293L3.30469 20.6942" stroke="black" stroke-width="1.5" stroke-linecap="round" stroke-linejoin="round"/>
<path d="M10.7915 13.2078C10.1499 12.5662 9.11011 12.5662 8.46952 13.2078C7.82787 13.8484 7.82787 14.8882 8.46952 15.5298C9.11011 16.1704 10.1499 16.1704 10.7915 15.5298" stroke="black" stroke-width="1.5" stroke-linecap="round" stroke-linejoin="round"/>
</svg>