<svg width="24" height="24" viewBox="0 0 24 24" fill="none" xmlns="http://www.w3.org/2000/svg">
<path d="M20.9997 11.334L19.258 12.1599C18.2701 12.629 17.0948 12.4257 16.3218 11.6527L12.347 7.6779C11.574 6.90495 11.3708 5.72966 11.8398 4.74071L12.6657 3" stroke="black" stroke-width="1.5" stroke-linecap="round" stroke-linejoin="round"/>
<path d="M16.2032 11.5345L14.9295 19.2195C14.8447 19.7309 14.4022 20.1015 13.8833 20.0877C12.0187 20.0401 7.6172 20.0443 4.3126 20.9623C3.54706 21.1752 2.82494 20.453 3.03777 19.6875C3.95577 16.3829 3.96001 11.9814 3.91236 10.1168C3.89965 9.59794 4.26919 9.15535 4.7806 9.07064L12.4656 7.79688" stroke="black" stroke-width="1.5" stroke-linecap="round" stroke-linejoin="round"/>
<path d="M8.46999 15.5293L3.30469 20.6942" stroke="black" stroke-width="1.5" stroke-linecap="round" stroke-linejoin="round"/>
<path fill-rule="evenodd" clip-rule="evenodd" d="M10.7915 15.5298C11.4332 14.8882 11.4332 13.8484 10.7915 13.2078C10.1499 12.5662 9.11011 12.5662 8.46952 13.2078C7.82787 13.8484 7.82787 14.8882 8.46952 15.5298C9.11011 16.1704 10.1499 16.1704 10.7915 15.5298Z" stroke="black" stroke-width="1.5" stroke-linecap="round" stroke-linejoin="round"/>
</svg>