<svg width="25" height="25" viewBox="0 0 25 25" fill="none" xmlns="http://www.w3.org/2000/svg">
<path fill-rule="evenodd" clip-rule="evenodd" d="M11.5699 10.0486L15.5209 14.0076C15.6859 14.1736 15.6859 14.4416 15.5209 14.6076L10.1189 20.0276C9.03893 21.1276 7.58893 21.7376 6.06893 21.7376C5.88893 21.7376 5.70893 21.7276 5.53893 21.7076C4.70893 21.6376 4.03893 20.9776 3.93893 20.1576C3.73893 18.4476 4.30893 16.7676 5.50893 15.5276L10.9689 10.0486C11.1349 9.88263 11.4039 9.88263 11.5699 10.0486Z" fill="black"/>
<path fill-rule="evenodd" clip-rule="evenodd" d="M21.8794 6.84748C21.8894 7.70748 21.5694 8.51748 20.9694 9.13748L17.1704 12.9455C17.0044 13.1125 16.7344 13.1125 16.5694 12.9455L12.6274 8.98648C12.4624 8.82148 12.4624 8.55348 12.6274 8.38748L16.3594 4.63748C16.9594 4.02748 17.7594 3.67748 18.6194 3.66748H18.6594C19.5094 3.66748 20.2994 3.99748 20.9094 4.58748C21.5194 5.18748 21.8694 5.98748 21.8794 6.84748Z" fill="black"/>
<g opacity="0.4">
<path fill-rule="evenodd" clip-rule="evenodd" d="M5.33137 12.0387C5.42937 12.1367 5.55737 12.1847 5.68537 12.1847C5.81237 12.1847 5.94037 12.1367 6.03837 12.0387L11.8244 6.25267C11.9184 6.15967 11.9714 6.03267 11.9714 5.89967C11.9714 5.76667 11.9184 5.63967 11.8244 5.54567L10.7634 4.48467C10.0614 3.78267 9.10937 3.38867 8.11637 3.38867C7.12437 3.38867 6.17237 3.78267 5.47037 4.48467L4.33537 5.61967C3.90237 6.05367 3.53637 6.56667 3.35837 7.15367C2.92837 8.57367 3.29837 10.0067 4.27837 10.9867L5.33137 12.0387Z" fill="black"/>
<path fill-rule="evenodd" clip-rule="evenodd" d="M21.0764 14.796L20.0374 13.757C19.8424 13.562 19.5254 13.562 19.3304 13.757L13.5444 19.543C13.3494 19.738 13.3494 20.054 13.5444 20.249L14.5844 21.291C15.3194 22.02 16.2814 22.384 17.2424 22.384C18.2044 22.384 19.1644 22.019 19.8934 21.29L21.0294 20.155C21.4614 19.722 21.8274 19.21 22.0054 18.625C22.4354 17.205 22.0624 15.774 21.0764 14.796Z" fill="black"/>
</g>
</svg>