<svg width="25" height="24" viewBox="0 0 25 24" fill="none" xmlns="http://www.w3.org/2000/svg">
<path d="M18.2973 13.4052C17.8589 13.4057 17.4247 13.3197 17.0196 13.1522C16.6145 12.9847 16.2464 12.7391 15.9362 12.4292L11.9612 8.45424C11.4758 7.96682 11.1525 7.3416 11.0352 6.66374C10.918 5.98588 11.0127 5.28837 11.3062 4.66624L12.1323 2.92525C12.2174 2.74543 12.3705 2.60679 12.5578 2.53984C12.7452 2.47289 12.9514 2.48312 13.1313 2.56825C13.3111 2.65339 13.4497 2.80645 13.5167 2.9938C13.5836 3.18115 13.5734 3.38743 13.4882 3.56724L12.6623 5.30925C12.5005 5.65152 12.4481 6.03536 12.5123 6.40846C12.5766 6.78157 12.7543 7.12579 13.0213 7.39424L16.9962 11.3692C17.2645 11.6363 17.6085 11.814 17.9815 11.8782C18.3545 11.9425 18.7382 11.8901 19.0803 11.7282L20.8232 10.9023C20.9123 10.8601 21.0088 10.8359 21.1071 10.831C21.2055 10.8261 21.3039 10.8407 21.3967 10.8738C21.4895 10.907 21.5748 10.9581 21.6478 11.0242C21.7208 11.0903 21.7801 11.1702 21.8223 11.2592C21.8644 11.3483 21.8886 11.4447 21.8935 11.5431C21.8984 11.6415 21.8838 11.7399 21.8506 11.8327C21.8175 11.9255 21.7664 12.0108 21.7003 12.0838C21.6342 12.1568 21.5543 12.2161 21.4653 12.2582L19.7233 13.0842C19.2777 13.2959 18.7906 13.4056 18.2973 13.4052Z" fill="black"/>
<path d="M4.17803 21.996C3.90391 21.9929 3.63414 21.9273 3.38927 21.804C3.1444 21.6808 2.93088 21.5032 2.76506 21.2849C2.59924 21.0666 2.48549 20.8134 2.43245 20.5444C2.37941 20.2755 2.3885 19.9979 2.45903 19.733C3.14672 16.6661 3.43178 13.5226 3.30702 10.382C3.29366 9.94994 3.4388 9.52787 3.7151 9.19539C3.9914 8.86291 4.37978 8.64297 4.80702 8.57703L12.49 7.30304C12.5872 7.28695 12.6866 7.29016 12.7825 7.31249C12.8785 7.33481 12.9691 7.37581 13.0492 7.43315C13.1293 7.49049 13.1973 7.56304 13.2493 7.64667C13.3014 7.73029 13.3364 7.82336 13.3525 7.92053C13.3686 8.01771 13.3654 8.11711 13.3431 8.21305C13.3207 8.30898 13.2797 8.39959 13.2224 8.47968C13.1651 8.55977 13.0925 8.62778 13.0089 8.67983C12.9253 8.73188 12.8322 8.76695 12.735 8.78304L5.05104 10.057C4.98234 10.0673 4.91976 10.1023 4.87517 10.1556C4.83058 10.2089 4.80706 10.2766 4.80904 10.346C4.93806 13.6343 4.63548 16.9254 3.90904 20.135C3.8976 20.1834 3.89871 20.2339 3.91231 20.2817C3.92591 20.3295 3.95155 20.373 3.98674 20.4081C4.02193 20.4432 4.06552 20.4687 4.11336 20.4822C4.1612 20.4956 4.21169 20.4966 4.26003 20.485C7.47 19.7584 10.7614 19.4559 14.05 19.585C14.1187 19.5855 14.1853 19.5615 14.2379 19.5174C14.2905 19.4732 14.3256 19.4118 14.337 19.344L15.611 11.66C15.6271 11.5629 15.6622 11.4698 15.7142 11.3862C15.7663 11.3025 15.8343 11.23 15.9144 11.1727C15.9945 11.1153 16.0851 11.0743 16.181 11.052C16.277 11.0297 16.3763 11.0264 16.4735 11.0425C16.5707 11.0586 16.6638 11.0937 16.7474 11.1457C16.831 11.1978 16.9036 11.2658 16.9609 11.3459C17.0183 11.426 17.0593 11.5166 17.0816 11.6125C17.1039 11.7085 17.1071 11.8079 17.091 11.905L15.817 19.588C15.7439 20.0123 15.5217 20.3966 15.1904 20.6716C14.8591 20.9466 14.4405 21.0943 14.01 21.088C10.8704 20.9623 7.72779 21.2473 4.66203 21.936C4.50415 21.9778 4.34133 21.998 4.17803 21.996Z" fill="black"/>
<path d="M3.44464 21.6905C3.2964 21.6904 3.15153 21.6463 3.02832 21.5639C2.9051 21.4815 2.80909 21.3644 2.75238 21.2274C2.69567 21.0905 2.6808 20.9398 2.70968 20.7944C2.73857 20.649 2.80988 20.5154 2.91464 20.4105L8.08465 15.2465C8.15332 15.1728 8.23612 15.1137 8.32812 15.0727C8.42012 15.0317 8.51941 15.0097 8.62011 15.0079C8.72082 15.0062 8.82086 15.0247 8.91424 15.0624C9.00763 15.1001 9.09247 15.1563 9.16369 15.2275C9.23491 15.2987 9.29104 15.3835 9.32876 15.4769C9.36648 15.5703 9.38501 15.6703 9.38324 15.771C9.38146 15.8717 9.35941 15.9711 9.31842 16.0631C9.27743 16.1551 9.21834 16.2379 9.14465 16.3065L3.97964 21.4715C3.90959 21.5419 3.82616 21.5975 3.73428 21.6351C3.6424 21.6727 3.54392 21.6916 3.44464 21.6905Z" fill="black"/>
<path d="M9.7738 17.0066C9.13967 17.0066 8.5315 16.7547 8.0831 16.3063C7.6347 15.8579 7.38281 15.2497 7.38281 14.6156C7.38281 13.9815 7.6347 13.3733 8.0831 12.9249C8.5315 12.4765 9.13967 12.2246 9.7738 12.2246C10.247 12.2244 10.7095 12.3645 11.1031 12.6272C11.4966 12.8898 11.8034 13.2633 11.9846 13.7004C12.1658 14.1375 12.2134 14.6185 12.1212 15.0826C12.029 15.5466 11.8013 15.973 11.4668 16.3076C11.2445 16.5298 10.9805 16.7059 10.69 16.8259C10.3994 16.9458 10.0881 17.0072 9.7738 17.0066ZM9.7738 13.7246C9.59739 13.7247 9.42495 13.7771 9.27832 13.8752C9.13169 13.9733 9.01744 14.1126 8.95001 14.2756C8.88258 14.4387 8.86501 14.618 8.89951 14.791C8.934 14.964 9.01901 15.1229 9.1438 15.2476C9.26855 15.3725 9.42755 15.4575 9.60065 15.492C9.77375 15.5264 9.95316 15.5087 10.1162 15.4412C10.2793 15.3736 10.4186 15.2592 10.5166 15.1124C10.6146 14.9657 10.6669 14.7931 10.6668 14.6166C10.6663 14.3801 10.572 14.1535 10.4045 13.9865C10.2371 13.8194 10.0103 13.7256 9.7738 13.7256V13.7246Z" fill="black"/>
</svg>