<svg width="25" height="24" viewBox="0 0 25 24" fill="none" xmlns="http://www.w3.org/2000/svg">
<path d="M7.83705 20.0579C7.5957 20.0556 7.35806 19.998 7.14235 19.8898C6.92664 19.7815 6.73858 19.6253 6.59248 19.4332C6.44639 19.2411 6.34615 19.0181 6.29945 18.7813C6.25276 18.5445 6.26079 18.3001 6.32301 18.0669C6.86603 15.6567 7.08996 13.1855 6.98903 10.7169C6.97865 10.3382 7.10539 9.96853 7.3459 9.67584C7.58641 9.38315 7.92454 9.18717 8.29805 9.12393L14.3291 8.12393C14.4265 8.10734 14.5262 8.11016 14.6225 8.13223C14.7188 8.15431 14.8099 8.19521 14.8903 8.25258C14.9708 8.30995 15.0392 8.38266 15.0914 8.46652C15.1437 8.55039 15.1789 8.64376 15.195 8.74127C15.211 8.83879 15.2077 8.93852 15.1851 9.03473C15.1625 9.13094 15.1212 9.22173 15.0634 9.3019C15.0056 9.38206 14.9325 9.45002 14.8483 9.50185C14.7642 9.55368 14.6706 9.58837 14.573 9.60393L8.55006 10.6039C8.53214 10.6069 8.51593 10.6164 8.50465 10.6306C8.49337 10.6449 8.48779 10.6628 8.48903 10.6809C8.59368 13.2967 8.35161 15.9147 7.76906 18.4669L8.05904 19.2789L7.85902 18.5559C10.4152 17.9797 13.0356 17.739 15.654 17.8399C15.661 17.8509 15.714 17.8029 15.721 17.7649L16.716 11.7509C16.7539 11.5595 16.8649 11.3902 17.0253 11.2792C17.1858 11.1681 17.3833 11.1238 17.5758 11.1558C17.7684 11.1878 17.9409 11.2935 18.0568 11.4505C18.1728 11.6075 18.2231 11.8035 18.197 11.9969L17.197 18.0189C17.1313 18.3899 16.9369 18.7258 16.6478 18.9674C16.3588 19.2091 15.9938 19.341 15.617 19.3399C13.1444 19.2416 10.6695 19.4641 8.25404 20.0019C8.11812 20.0389 7.97791 20.0577 7.83705 20.0579Z" fill="black"/>
<path d="M18.731 13.2848C18.1386 13.2858 17.57 13.0517 17.15 12.6338L13.6941 9.17981C13.3532 8.83629 13.1325 8.39178 13.065 7.91258C12.9974 7.43339 13.0865 6.94519 13.3191 6.5208L13.8971 5.47681C14.0483 5.2034 14.261 4.96883 14.5183 4.7916C14.7756 4.61437 15.0705 4.49931 15.3799 4.45549C15.6893 4.41167 16.0046 4.44029 16.301 4.53908C16.5974 4.63787 16.8668 4.80414 17.088 5.0248L21.3021 9.23981C21.523 9.46079 21.6896 9.73007 21.7887 10.0264C21.8877 10.3228 21.9165 10.6381 21.8729 10.9475C21.8293 11.257 21.7144 11.552 21.5372 11.8094C21.36 12.0668 21.1255 12.2795 20.8521 12.4308L19.8081 13.0088C19.4782 13.1905 19.1076 13.2854 18.731 13.2848ZM14.6311 7.2478C14.5548 7.38699 14.5256 7.54708 14.5478 7.70423C14.5699 7.86137 14.6423 8.00714 14.7541 8.1198L18.21 11.5738C18.3228 11.6854 18.4687 11.7576 18.6258 11.7796C18.783 11.8016 18.943 11.7722 19.0821 11.6958L20.1251 11.1188C20.1952 11.08 20.2554 11.0254 20.3009 10.9594C20.3464 10.8933 20.3759 10.8176 20.3872 10.7382C20.3984 10.6588 20.391 10.5779 20.3657 10.5018C20.3403 10.4257 20.2977 10.3566 20.2411 10.2998L16.0291 6.0858C15.973 6.02808 15.9038 5.98476 15.8274 5.95952C15.7509 5.93428 15.6695 5.92785 15.5901 5.9408C15.5105 5.95182 15.4347 5.98125 15.3686 6.02674C15.3024 6.07222 15.2478 6.13251 15.2091 6.20281L14.6311 7.2478Z" fill="black"/>
<path d="M6.82953 6.82617H3.14453C2.94562 6.82617 2.75485 6.74716 2.6142 6.60651C2.47354 6.46585 2.39453 6.27508 2.39453 6.07617C2.39453 5.87726 2.47354 5.68649 2.6142 5.54584C2.75485 5.40519 2.94562 5.32617 3.14453 5.32617H6.82953C7.02844 5.32617 7.21921 5.40519 7.35986 5.54584C7.50052 5.68649 7.57953 5.87726 7.57953 6.07617C7.57953 6.27508 7.50052 6.46585 7.35986 6.60651C7.21921 6.74716 7.02844 6.82617 6.82953 6.82617Z" fill="black"/>
<path d="M7.2566 19.8206C7.10815 19.8209 6.96296 19.7772 6.83943 19.6948C6.7159 19.6125 6.61961 19.4953 6.56282 19.3581C6.50602 19.221 6.4913 19.07 6.52046 18.9245C6.54962 18.7789 6.62139 18.6453 6.72664 18.5406L10.8156 14.4516C10.8843 14.3779 10.9671 14.3188 11.0591 14.2778C11.1511 14.2368 11.2504 14.2148 11.3511 14.213C11.4518 14.2112 11.5518 14.2298 11.6452 14.2675C11.7386 14.3052 11.8234 14.3613 11.8947 14.4326C11.9659 14.5038 12.022 14.5886 12.0598 14.682C12.0975 14.7754 12.116 14.8754 12.1142 14.9761C12.1124 15.0768 12.0904 15.1761 12.0494 15.2681C12.0084 15.3601 11.9493 15.4429 11.8756 15.5116L7.78761 19.6016C7.71786 19.6713 7.63508 19.7264 7.54396 19.764C7.45284 19.8016 7.35517 19.8208 7.2566 19.8206Z" fill="black"/>
<path d="M12.2651 16.1122C11.8595 16.1125 11.4629 15.9923 11.1256 15.767C10.7884 15.5417 10.5255 15.2213 10.3705 14.8465C10.2154 14.4717 10.1751 14.0593 10.2546 13.6616C10.3341 13.2638 10.5299 12.8986 10.8171 12.6122C11.2078 12.2393 11.7271 12.0312 12.2671 12.0312C12.8072 12.0312 13.3265 12.2393 13.7171 12.6122C14.0044 12.8987 14.2002 13.264 14.2797 13.6618C14.3592 14.0596 14.3187 14.4721 14.1635 14.847C14.0084 15.2218 13.7454 15.5422 13.408 15.7674C13.0706 15.9927 12.6738 16.1127 12.2681 16.1122H12.2651ZM12.2651 13.5122C12.1563 13.5119 12.0498 13.5439 11.9593 13.6042C11.8687 13.6645 11.7981 13.7504 11.7564 13.8509C11.7147 13.9514 11.7038 14.062 11.7251 14.1687C11.7464 14.2755 11.799 14.3734 11.8761 14.4502C11.9809 14.5503 12.1202 14.6062 12.2651 14.6062C12.41 14.6062 12.5493 14.5503 12.6541 14.4502C12.7569 14.3473 12.8147 14.2077 12.8147 14.0622C12.8147 13.9167 12.7569 13.7772 12.6541 13.6742C12.6031 13.623 12.5425 13.5823 12.4757 13.5547C12.409 13.5271 12.3374 13.513 12.2651 13.5132V13.5122Z" fill="black"/>
</svg>