<svg width="25" height="24" viewBox="0 0 25 24" fill="none" xmlns="http://www.w3.org/2000/svg">
<path d="M10.9824 3.80774C11.8872 3.15002 13.1122 3.15002 14.017 3.80774M4.56477 8.47015C3.65992 9.12787 3.28046 10.2935 3.62684 11.3569M6.07772 18.9022C6.42312 19.9656 7.41456 20.6856 8.53346 20.6856M16.466 20.6856C17.5849 20.6856 18.5763 19.9656 18.9217 18.9022M21.3736 11.3569C21.719 10.2935 21.3405 9.12787 20.4356 8.47015" stroke="black" stroke-width="1.5" stroke-linecap="round" stroke-linejoin="round"/>
<path opacity="0.4" d="M10.9825 3.80762L4.56488 8.47003M3.62695 11.3568L6.07783 18.9021M8.53358 20.6855H16.4661M18.9218 18.9021L21.3737 11.3568M20.4358 8.47003L14.0172 3.80762" stroke="black" stroke-width="1.5" stroke-linecap="round" stroke-linejoin="round"/>
</svg>