<svg width="24" height="24" viewBox="0 0 24 24" fill="none" xmlns="http://www.w3.org/2000/svg">
<path fill-rule="evenodd" clip-rule="evenodd" d="M17.277 15.43C17.277 15.844 16.941 16.18 16.527 16.18C16.113 16.18 15.777 15.844 15.777 15.43V12.07C15.777 11.286 15.539 10.534 15.088 9.891C14.85 9.552 14.931 9.084 15.27 8.847C15.609 8.607 16.076 8.69 16.315 9.03C16.944 9.925 17.277 10.976 17.277 12.07V15.43ZM14.44 8.174C14.282 8.556 13.847 8.743 13.461 8.584C11.676 7.853 9.63 8.595 8.716 10.201C8.578 10.444 8.324 10.58 8.064 10.58C7.938 10.58 7.811 10.549 7.694 10.483C7.334 10.278 7.207 9.821 7.412 9.46C8.687 7.215 11.563 6.189 14.029 7.196C14.413 7.353 14.596 7.79 14.44 8.174ZM14.495 16.46C14.495 16.874 14.159 17.21 13.745 17.21C13.331 17.21 12.995 16.874 12.995 16.46V12.23C12.995 11.662 12.532 11.201 11.963 11.201C11.394 11.201 10.93 11.662 10.93 12.23V12.71C10.93 13.124 10.594 13.46 10.18 13.46C9.766 13.46 9.43 13.124 9.43 12.71V12.23C9.43 10.835 10.567 9.701 11.963 9.701C13.36 9.701 14.495 10.835 14.495 12.23V16.46ZM10.93 16.46C10.93 16.874 10.594 17.21 10.18 17.21C9.766 17.21 9.43 16.874 9.43 16.46V14.85C9.43 14.436 9.766 14.1 10.18 14.1C10.594 14.1 10.93 14.436 10.93 14.85V16.46ZM8.227 15.43C8.227 15.844 7.891 16.18 7.477 16.18C7.063 16.18 6.727 15.844 6.727 15.43V12.63C6.727 12.216 7.063 11.88 7.477 11.88C7.891 11.88 8.227 12.216 8.227 12.63V15.43ZM20.694 7.257L16.739 3.305C16.224 2.793 15.514 2.5 14.792 2.5H9.21C8.486 2.5 7.776 2.793 7.259 3.306L3.306 7.26C2.786 7.788 2.5 8.481 2.5 9.21V14.79C2.5 15.52 2.786 16.212 3.309 16.743L7.261 20.696C7.777 21.206 8.487 21.5 9.21 21.5H14.792C15.514 21.5 16.224 21.206 16.741 20.694L20.696 16.741C21.215 16.214 21.5 15.522 21.5 14.79V9.21C21.5 8.479 21.215 7.786 20.694 7.257Z" fill="black"/>
</svg>