<svg width="24" height="24" viewBox="0 0 24 24" fill="none" xmlns="http://www.w3.org/2000/svg">
<path fill-rule="evenodd" clip-rule="evenodd" d="M4.09375 10.4283C4.09375 5.97415 7.61153 2.25 12.1006 2.25C16.4023 2.25 19.9066 5.98913 19.9066 10.4283C19.9066 11.6415 19.508 12.9457 18.9348 14.1851C18.3573 15.4336 17.5785 16.6677 16.7616 17.7557C15.945 18.8432 15.0759 19.8038 14.3065 20.5007C13.923 20.8481 13.5501 21.1429 13.2095 21.3558C12.902 21.548 12.5037 21.75 12.1006 21.75C11.6913 21.75 11.282 21.5652 10.9436 21.3668C10.5807 21.1541 10.1888 20.8587 9.78915 20.5102C8.98788 19.8114 8.09763 18.8488 7.26728 17.7602C6.43641 16.671 5.65051 15.4359 5.06939 14.1866C4.49241 12.9462 4.09375 11.6417 4.09375 10.4283ZM12.1006 3.75C8.48397 3.75 5.59375 6.75785 5.59375 10.4283C5.59375 11.3365 5.89934 12.4143 6.42945 13.5539C6.95542 14.6847 7.67945 15.8273 8.45993 16.8505C9.24093 17.8744 10.0635 18.7592 10.775 19.3796C11.1317 19.6907 11.4463 19.9228 11.7021 20.0727C11.9338 20.2085 12.0571 20.2409 12.0909 20.2481C12.1078 20.2415 12.2089 20.2123 12.4146 20.0838C12.6543 19.934 12.9548 19.7012 13.2995 19.389C13.9864 18.7668 14.7924 17.88 15.5621 16.855C16.3314 15.8305 17.05 14.687 17.5733 13.5554C18.1009 12.4148 18.4066 11.3368 18.4066 10.4283C18.4066 6.74476 15.5029 3.75 12.1006 3.75Z" fill="black"/>
<path fill-rule="evenodd" clip-rule="evenodd" d="M12.6999 7.40625C12.7306 7.57909 12.7466 7.7569 12.7466 7.93828C12.7466 9.61168 11.39 10.9682 9.7166 10.9682C9.53522 10.9682 9.35741 10.9522 9.18457 10.9216C9.49886 12.1822 10.6386 13.1162 11.9966 13.1162C13.597 13.1162 14.8945 11.8187 14.8945 10.2182C14.8945 8.86031 13.9605 7.72054 12.6999 7.40625ZM11.471 5.85146C11.6436 5.83087 11.819 5.82031 11.9966 5.82031C14.4255 5.82031 16.3945 7.78933 16.3945 10.2182C16.3945 12.6471 14.4255 14.6162 11.9966 14.6162C9.56765 14.6162 7.59863 12.6471 7.59863 10.2182C7.59863 10.0407 7.60919 9.86531 7.62978 9.69272C7.66133 9.42828 7.83074 9.20039 8.07489 9.094C8.31903 8.98761 8.60129 9.01867 8.81645 9.17561C9.06896 9.35977 9.37901 9.46824 9.7166 9.46824C10.5616 9.46824 11.2466 8.78325 11.2466 7.93828C11.2466 7.60069 11.1381 7.29064 10.9539 7.03813C10.797 6.82297 10.7659 6.54071 10.8723 6.29657C10.9787 6.05242 11.2066 5.88301 11.471 5.85146Z" fill="black"/>
</svg>