<svg width="24" height="24" viewBox="0 0 24 24" fill="none" xmlns="http://www.w3.org/2000/svg">
<path fill-rule="evenodd" clip-rule="evenodd" d="M12.1006 21C13.5226 21 19.1566 14.6716 19.1566 10.4283C19.1566 6.36695 15.9526 3 12.1006 3C8.04775 3 4.84375 6.366 4.84375 10.4283C4.84375 14.6716 10.4777 21 12.1006 21Z" stroke="black" stroke-width="1.5" stroke-linecap="round" stroke-linejoin="round"/>
<path d="M11.9966 13.8662C14.0112 13.8662 15.6445 12.2329 15.6445 10.2182C15.6445 8.20354 14.0112 6.57031 11.9966 6.57031C11.8488 6.57031 11.7031 6.5791 11.5599 6.59618C11.8345 6.9727 11.9966 7.43657 11.9966 7.93828C11.9966 9.19747 10.9758 10.2182 9.7166 10.2182C9.21489 10.2182 8.75103 10.0562 8.3745 9.78156C8.35742 9.92474 8.34863 10.0705 8.34863 10.2182C8.34863 12.2329 9.98186 13.8662 11.9966 13.8662Z" stroke="black" stroke-width="1.5" stroke-linejoin="round"/>
</svg>