<svg width="25" height="24" viewBox="0 0 25 24" fill="none" xmlns="http://www.w3.org/2000/svg">
<path d="M8.69531 9.00977V14.9897" stroke="black" stroke-width="1.5" stroke-linecap="round" stroke-linejoin="round"/>
<path fill-rule="evenodd" clip-rule="evenodd" d="M11.2393 10.9225C11.9943 10.2327 12.9372 9.61192 13.9743 9.18965C14.8578 8.83841 15.5973 9.27722 15.7062 10.1548C15.8386 11.4499 15.8356 12.6894 15.7062 13.8473C15.5875 14.7599 14.7722 15.1472 13.9743 14.8086C12.9527 14.3863 12.0362 13.8132 11.2393 13.0757C10.5582 12.453 10.5427 11.5695 11.2393 10.9225Z" stroke="black" stroke-width="1.5" stroke-linecap="round" stroke-linejoin="round"/>
<path d="M12.25 21C7.27908 21 3.25 16.9709 3.25 12C3.25 7.03005 7.27908 3 12.25 3C17.2209 3 21.25 7.03005 21.25 12C21.25 15.7683 18.9346 18.9953 15.6488 20.3362" stroke="black" stroke-width="1.5" stroke-linecap="round" stroke-linejoin="round"/>
</svg>