<svg width="24" height="25" viewBox="0 0 24 25" fill="none" xmlns="http://www.w3.org/2000/svg">
<path d="M19.3237 12.9692C19.3237 19.0834 12.0001 21.3008 12.0001 21.3008C12.0001 21.3008 4.67654 19.0843 4.67654 12.9692C4.67654 6.85603 4.40994 6.37829 4.99762 5.79062C5.58627 5.20294 11.0398 3.30078 12.0001 3.30078C12.9604 3.30078 18.413 5.19711 19.0006 5.79062C19.5893 6.38316 19.3237 6.857 19.3237 12.9692Z" stroke="black" stroke-width="1.5" stroke-linecap="round" stroke-linejoin="round"/>
<path d="M11.9983 8.40011V8.34854M11.9916 8.19556C11.8676 8.19556 11.7666 8.29656 11.7676 8.42056C11.7676 8.54456 11.8686 8.64556 11.9926 8.64556C12.1166 8.64556 12.2176 8.54456 12.2176 8.42056C12.2176 8.29556 12.1166 8.19556 11.9916 8.19556Z" stroke="black" stroke-width="1.5" stroke-linecap="round" stroke-linejoin="round"/>
<path d="M15.2629 10.0583V10.0067M15.2562 9.85376C15.1322 9.85376 15.0312 9.95476 15.0322 10.0788C15.0322 10.2028 15.1332 10.3038 15.2572 10.3038C15.3812 10.3038 15.4822 10.2028 15.4822 10.0788C15.4822 9.95376 15.3812 9.85376 15.2562 9.85376Z" stroke="black" stroke-width="1.5" stroke-linecap="round" stroke-linejoin="round"/>
<path d="M8.74826 10.0583V10.0067M8.74159 9.85376C8.61759 9.85376 8.51659 9.95476 8.51759 10.0788C8.51759 10.2028 8.61859 10.3038 8.74259 10.3038C8.86659 10.3038 8.96759 10.2028 8.96759 10.0788C8.96759 9.95376 8.86659 9.85376 8.74159 9.85376Z" stroke="black" stroke-width="1.5" stroke-linecap="round" stroke-linejoin="round"/>
<path d="M12.0301 15.1962C13.3976 15.1962 15.1323 16.3814 15.1073 14.5572C15.0972 13.1893 13.6725 11.9054 12.0301 11.9038C10.3779 11.9038 8.73698 13.2989 8.96459 14.7214C9.21656 16.3707 10.818 15.1962 12.0301 15.1962Z" stroke="black" stroke-width="1.5"/>
</svg>