<svg width="24" height="25" viewBox="0 0 24 25" fill="none" xmlns="http://www.w3.org/2000/svg">
<path d="M10.0584 21.1622H8.50636C6.26666 21.1622 4.4502 19.3457 4.4502 17.106V7.49537C4.4502 5.25568 6.26666 3.43921 8.50636 3.43921H15.494C17.7337 3.43921 19.5501 5.25568 19.5501 7.49537V11.4536" stroke="black" stroke-width="1.5" stroke-linecap="round" stroke-linejoin="round"/>
<path d="M13.621 8.07056H8.61716M11.2285 12.4393H8.61621" stroke="black" stroke-width="1.5" stroke-linecap="round" stroke-linejoin="round"/>
<path d="M16.0656 14.1335V14.0819M16.059 13.929C15.935 13.929 15.834 14.03 15.835 14.154C15.835 14.278 15.936 14.379 16.06 14.379C16.184 14.379 16.285 14.278 16.285 14.154C16.285 14.029 16.184 13.929 16.059 13.929Z" stroke="black" stroke-width="1.5" stroke-linecap="round" stroke-linejoin="round"/>
<path d="M19.3303 15.7917V15.7401M19.3236 15.5872C19.1996 15.5872 19.0986 15.6882 19.0996 15.8122C19.0996 15.9362 19.2006 16.0372 19.3246 16.0372C19.4486 16.0372 19.5496 15.9362 19.5496 15.8122C19.5496 15.6872 19.4486 15.5872 19.3236 15.5872Z" stroke="black" stroke-width="1.5" stroke-linecap="round" stroke-linejoin="round"/>
<path d="M12.8156 15.7917V15.7401M12.809 15.5872C12.685 15.5872 12.584 15.6882 12.585 15.8122C12.585 15.9362 12.686 16.0372 12.81 16.0372C12.934 16.0372 13.035 15.9362 13.035 15.8122C13.035 15.6872 12.934 15.5872 12.809 15.5872Z" stroke="black" stroke-width="1.5" stroke-linecap="round" stroke-linejoin="round"/>
<path d="M16.0974 20.757C17.4649 20.757 19.1996 21.9422 19.1747 20.118C19.1646 18.75 17.7399 17.4661 16.0974 17.4646C14.4453 17.4646 12.8044 18.8597 13.032 20.2822C13.2839 21.9315 14.8854 20.757 16.0974 20.757Z" stroke="black" stroke-width="1.5"/>
</svg>