<svg width="24" height="25" viewBox="0 0 24 25" fill="none" xmlns="http://www.w3.org/2000/svg">
<path d="M20.0001 21.0786C19.6401 21.0786 19.3301 20.8186 19.2601 20.4586L18.5101 16.1786C18.4201 15.5386 17.8901 15.0786 17.2701 15.0786H6.74007C6.12007 15.0786 5.59007 15.5386 5.50007 16.1486L4.74007 20.4586C4.67007 20.8686 4.28006 21.1386 3.87006 21.0686C3.46006 20.9986 3.19006 20.6086 3.26006 20.1986L4.01006 15.9186C4.20006 14.5986 5.37006 13.5786 6.73006 13.5786H17.2601C18.6201 13.5786 19.7901 14.5986 19.9801 15.9386L20.7301 20.1986C20.8001 20.6086 20.5301 20.9986 20.1201 21.0686C20.0801 21.0686 20.0301 21.0786 19.9901 21.0786H20.0001Z" fill="black"/>
<path d="M21 21.0786H3C2.59 21.0786 2.25 20.7386 2.25 20.3286C2.25 19.9186 2.59 19.5786 3 19.5786H21C21.41 19.5786 21.75 19.9186 21.75 20.3286C21.75 20.7386 21.41 21.0786 21 21.0786Z" fill="black"/>
<path d="M7.52015 11.2084C7.28015 11.2084 7.05014 11.0984 6.90014 10.8884L6.38015 10.1384C6.14015 9.79841 6.23015 9.32841 6.57015 9.09841C6.91015 8.85841 7.38015 8.94841 7.61015 9.28841L8.13015 10.0384C8.37015 10.3784 8.28015 10.8484 7.94015 11.0784C7.81015 11.1684 7.66014 11.2084 7.51014 11.2084H7.52015Z" fill="black"/>
<path d="M11.1101 11.908C10.8301 11.908 10.5601 11.748 10.4301 11.478C10.2501 11.098 10.4101 10.658 10.7901 10.478L12.2901 9.76802C12.6701 9.58802 13.1101 9.75802 13.2901 10.128C13.4701 10.508 13.3101 10.948 12.9301 11.128L11.4301 11.838C11.3301 11.888 11.2201 11.908 11.1101 11.908Z" fill="black"/>
<path d="M10.5201 8.78853C10.4001 8.78853 10.2701 8.75853 10.1501 8.68853L8.74011 7.89853C8.38011 7.69853 8.2501 7.23853 8.4501 6.87853C8.6501 6.51853 9.11011 6.38853 9.47011 6.58853L10.8801 7.37853C11.2401 7.57853 11.3701 8.03853 11.1701 8.39853C11.0301 8.64853 10.7801 8.77853 10.5201 8.77853V8.78853Z" fill="black"/>
<path d="M14.0001 8.45819C13.7901 8.45819 13.5801 8.36819 13.4301 8.19819C13.1601 7.88819 13.2001 7.40819 13.5101 7.13819L14.1601 6.57819C14.4701 6.30819 14.9501 6.33819 15.2201 6.65819C15.4901 6.96819 15.4501 7.44819 15.1401 7.71819L14.4901 8.27819C14.3501 8.39819 14.1701 8.45819 14.0001 8.45819Z" fill="black"/>
<path d="M17.0001 11.4587C16.8601 11.4587 16.7101 11.4187 16.5901 11.3387L15.8401 10.8387C15.4901 10.6087 15.4001 10.1487 15.6301 9.79869C15.8601 9.45869 16.3301 9.35869 16.6701 9.58869L17.4201 10.0887C17.7701 10.3187 17.8601 10.7787 17.6301 11.1287C17.4901 11.3487 17.2501 11.4687 17.0001 11.4687V11.4587Z" fill="black"/>
<path d="M12.11 6.1186C11.89 6.1186 11.67 6.0186 11.53 5.8386L10.64 4.7386C10.38 4.4186 10.43 3.9486 10.75 3.6886C11.07 3.4286 11.54 3.4786 11.8 3.7986L12.69 4.8986C12.95 5.2186 12.9 5.6886 12.58 5.9486C12.44 6.0586 12.28 6.1186 12.11 6.1186Z" fill="black"/>
</svg>