<svg width="24" height="25" viewBox="0 0 24 25" fill="none" xmlns="http://www.w3.org/2000/svg">
<path d="M14.1049 22.0559H7.78488C4.47488 22.0559 2.25488 19.7359 2.25488 16.2759V8.3259C2.25488 4.8759 4.47488 2.5459 7.78488 2.5459H16.2149C19.5249 2.5459 21.7449 4.8659 21.7449 8.3259V14.2159C21.7449 15.0359 21.4349 15.8159 20.8649 16.4159L16.3849 21.0759C15.7949 21.6959 14.9549 22.0559 14.0949 22.0559H14.1049ZM7.78488 4.05591C5.33488 4.05591 3.75488 5.73591 3.75488 8.33591V16.2859C3.75488 18.8859 5.33488 20.5659 7.78488 20.5659H14.1049C14.5549 20.5659 14.9949 20.3759 15.3049 20.0559L19.7849 15.3959C20.0849 15.0859 20.2449 14.6759 20.2449 14.2359V8.34592C20.2449 5.74592 18.6649 4.06592 16.2149 4.06592H7.78488V4.05591Z" fill="black"/>
<path d="M14.675 21.9857C14.265 21.9857 13.925 21.6457 13.925 21.2357V17.8257C13.925 15.7457 15.6151 14.0557 17.6851 14.0557H20.9151C21.3251 14.0557 21.6651 14.3957 21.6651 14.8057C21.6651 15.2157 21.3251 15.5557 20.9151 15.5557H17.6851C16.4351 15.5557 15.415 16.5757 15.425 17.8257V21.2357C15.425 21.6457 15.085 21.9857 14.675 21.9857Z" fill="black"/>
<path d="M10.1949 7.88577C9.65485 7.88577 9.21484 7.44579 9.21484 6.90579C9.21484 6.65579 9.31484 6.40579 9.49484 6.21579C9.67484 6.02579 9.92484 5.92578 10.1848 5.92578C10.7248 5.92578 11.1649 6.36578 11.1649 6.89578C11.1649 7.42578 10.7248 7.87579 10.1848 7.87579L10.1949 7.88577Z" fill="black"/>
<path d="M13.4551 9.54568C12.9151 9.54568 12.4751 9.10568 12.4751 8.57568C12.4751 8.31568 12.5751 8.07568 12.7551 7.88568C12.9351 7.69568 13.1851 7.5957 13.4451 7.5957C13.9851 7.5957 14.4251 8.03568 14.4251 8.57568C14.4251 9.11568 13.9851 9.54568 13.4451 9.54568H13.4551Z" fill="black"/>
<path d="M6.94485 9.54568C6.40485 9.54568 5.96484 9.10568 5.96484 8.57568C5.96484 8.31568 6.06484 8.07568 6.24484 7.88568C6.42484 7.69568 6.67484 7.5957 6.93484 7.5957C7.47484 7.5957 7.91486 8.03568 7.91486 8.57568C7.91486 9.11568 7.47484 9.54568 6.93484 9.54568H6.94485Z" fill="black"/>
<path d="M8.03488 14.6355C7.72488 14.6355 7.42487 14.5755 7.14487 14.3855C6.75487 14.1355 6.51487 13.7055 6.42487 13.1155C6.30487 12.3455 6.55489 11.5455 7.13489 10.8655C7.88489 9.98554 9.07487 9.43555 10.2349 9.43555C12.2549 9.43555 14.0449 11.0255 14.0649 12.8355C14.0649 13.4955 13.8849 13.9955 13.5049 14.2955C12.8949 14.7855 12.0949 14.5955 11.3249 14.4155C10.9449 14.3255 10.5549 14.2355 10.2349 14.2355C9.96487 14.2355 9.61486 14.3255 9.26486 14.4255C8.87486 14.5255 8.45488 14.6455 8.03488 14.6455V14.6355ZM10.2249 10.9355C9.50489 10.9355 8.74487 11.2956 8.27487 11.8456C8.10487 12.0456 7.83488 12.4455 7.90488 12.8855C7.93488 13.0855 7.98487 13.1455 7.98487 13.1455C8.10487 13.1755 8.58488 13.0455 8.87488 12.9655C9.29488 12.8555 9.76489 12.7256 10.2249 12.7256C10.7249 12.7256 11.2249 12.8456 11.6649 12.9456C11.9449 13.0156 12.3649 13.1055 12.5349 13.1055C12.5449 13.0555 12.5549 12.9756 12.5549 12.8456C12.5549 11.9556 11.5249 10.9355 10.2249 10.9355Z" fill="black"/>
</svg>