<svg width="24" height="25" viewBox="0 0 24 25" fill="none" xmlns="http://www.w3.org/2000/svg">
<path d="M12.008 22.0508C11.938 22.0508 11.8579 22.0408 11.7879 22.0208C11.4679 21.9208 3.92793 19.5608 3.92793 12.9708C3.92793 11.1408 3.9079 9.81079 3.8879 8.84079C3.8479 6.41079 3.83791 5.90077 4.46791 5.26077C5.22791 4.51077 10.9179 2.55078 11.9979 2.55078C13.0779 2.55078 18.7879 4.51077 19.5279 5.26077C20.1579 5.90077 20.1579 6.41077 20.1079 8.85077C20.0879 9.82077 20.0679 11.1408 20.0679 12.9708C20.0679 19.5608 12.5279 21.9208 12.2079 22.0208C12.1379 22.0408 12.0679 22.0508 11.9879 22.0508H12.008ZM12.008 4.05078C11.208 4.05078 6.1179 5.84078 5.5179 6.33078C5.3579 6.49078 5.3479 6.82079 5.3879 8.81079C5.4079 9.79079 5.42793 11.1208 5.42793 12.9708C5.42793 17.8808 10.8379 20.0908 11.9979 20.5108C13.1579 20.0908 18.5679 17.8808 18.5679 12.9708C18.5679 11.1308 18.5879 9.80078 18.6079 8.83078C18.6479 6.83078 18.6379 6.50077 18.4579 6.32077C17.8879 5.85077 12.7979 4.06078 11.9879 4.05078H12.008Z" fill="black"/>
<path d="M12.0081 9.39066C11.4681 9.39066 11.0281 8.95064 11.0281 8.41064C11.0281 8.16064 11.1281 7.91067 11.3081 7.72067C11.4881 7.53067 11.7381 7.43066 11.9981 7.43066C12.5381 7.43066 12.9781 7.87067 12.9781 8.40067C12.9781 8.93067 12.5381 9.38065 12.0081 9.38065V9.39066Z" fill="black"/>
<path d="M15.2681 11.0508C14.7281 11.0508 14.2981 10.6108 14.2981 10.0708C14.2981 9.8208 14.3981 9.5708 14.5781 9.3808C14.7581 9.1908 15.0081 9.09082 15.2681 9.09082C15.8081 9.09082 16.2481 9.53082 16.2481 10.0608C16.2481 10.5908 15.8081 11.0408 15.2681 11.0408V11.0508Z" fill="black"/>
<path d="M8.75812 11.0508C8.21812 11.0508 7.77808 10.6108 7.77808 10.0708C7.77808 9.8208 7.87811 9.5708 8.05811 9.3808C8.23811 9.1908 8.48811 9.09082 8.74811 9.09082C9.28811 9.09082 9.72809 9.53082 9.72809 10.0608C9.72809 10.5908 9.28812 11.0408 8.75812 11.0408V11.0508Z" fill="black"/>
<path d="M9.84809 16.3504C9.53809 16.3504 9.23808 16.2904 8.95808 16.1004C8.56808 15.8504 8.32811 15.4204 8.23811 14.8304C8.11811 14.0604 8.36807 13.2604 8.94807 12.5804C9.69807 11.7004 10.8881 11.1504 12.0381 11.1504C14.0581 11.1504 15.8481 12.7404 15.8681 14.5504C15.8681 15.2104 15.6881 15.7104 15.3081 16.0104C14.6881 16.5004 13.8981 16.3104 13.1281 16.1304C12.7481 16.0404 12.3581 15.9504 12.0381 15.9504C11.7681 15.9504 11.4181 16.0404 11.0681 16.1404C10.6781 16.2504 10.2481 16.3604 9.83808 16.3604L9.84809 16.3504ZM12.0381 12.6504C11.3181 12.6504 10.5581 13.0104 10.0881 13.5604C9.91808 13.7604 9.64809 14.1604 9.71809 14.6004C9.74809 14.8004 9.7981 14.8604 9.7981 14.8604C9.9081 14.8904 10.3981 14.7604 10.6981 14.6804C11.1181 14.5704 11.5881 14.4404 12.0481 14.4404C12.5481 14.4404 13.0481 14.5604 13.4881 14.6604C13.7681 14.7304 14.1581 14.8204 14.3581 14.8204C14.3581 14.7704 14.3781 14.6904 14.3781 14.5604C14.3781 13.6704 13.3481 12.6504 12.0481 12.6504H12.0381Z" fill="black"/>
</svg>