<svg width="24" height="25" viewBox="0 0 24 25" fill="none" xmlns="http://www.w3.org/2000/svg">
<path d="M14.1168 20.932V20.8951C14.1256 17.2467 13.0418 14.545 10.7623 16.484C8.82332 18.1194 7.35329 18.6808 6.38818 18.818" stroke="black" stroke-width="1.5" stroke-linecap="round" stroke-linejoin="round"/>
<path d="M5.00098 16.8684C6.26768 19.5108 9.08029 21.1121 12.1887 21.1121C17.055 21.1121 21.0001 17.168 21.0001 12.3017C21.0001 7.43529 17.055 3.49023 12.1887 3.49023" stroke="black" stroke-width="1.5" stroke-linecap="round" stroke-linejoin="round"/>
<path d="M14.5761 3.82471C14.4107 4.30239 13.8046 6.35227 15.1647 7.78533C16.7087 9.412 18.0318 9.50442 17.9861 11.2683C17.9491 13.0428 15.7621 13.0146 16.947 15.8272C17.4345 16.9849 18.0133 17.9043 18.3441 18.6019" stroke="black" stroke-width="1.5" stroke-linecap="round" stroke-linejoin="round"/>
<path d="M7.0637 5.11641V5.06047M7.05646 4.89453C6.92195 4.89453 6.8124 5.00409 6.81348 5.13859C6.81348 5.27309 6.92304 5.38265 7.05754 5.38265C7.19205 5.38265 7.3016 5.27309 7.3016 5.13859C7.3016 5.003 7.19205 4.89453 7.05646 4.89453Z" stroke="black" stroke-width="1.5" stroke-linecap="round" stroke-linejoin="round"/>
<path d="M10.6037 6.91499V6.85906M10.5965 6.69312C10.462 6.69312 10.3524 6.80267 10.3535 6.93717C10.3535 7.07168 10.4631 7.18123 10.5976 7.18123C10.7321 7.18123 10.8416 7.07168 10.8416 6.93717C10.8416 6.80159 10.7321 6.69312 10.5965 6.69312Z" stroke="black" stroke-width="1.5" stroke-linecap="round" stroke-linejoin="round"/>
<path d="M3.5383 6.91499V6.85906M3.53107 6.69312C3.39656 6.69312 3.28701 6.80267 3.28809 6.93717C3.28809 7.07168 3.39765 7.18123 3.53215 7.18123C3.66665 7.18123 3.77621 7.07168 3.77621 6.93717C3.77621 6.80159 3.66665 6.69312 3.53107 6.69312Z" stroke="black" stroke-width="1.5" stroke-linecap="round" stroke-linejoin="round"/>
<path d="M7.09814 12.4885C8.58146 12.4885 10.4631 13.7741 10.4361 11.7954C10.4251 10.3116 8.8797 8.91891 7.09814 8.91724C5.30609 8.9172 3.52615 10.4305 3.77303 11.9735C4.04634 13.7624 5.78347 12.4885 7.09814 12.4885Z" stroke="black" stroke-width="1.5"/>
</svg>