<svg width="24" height="25" viewBox="0 0 24 25" fill="none" xmlns="http://www.w3.org/2000/svg">
<path d="M12.0044 21.3208C11.8944 21.3208 11.7844 21.3008 11.6844 21.2508C11.3844 21.1108 4.29439 17.7508 2.63439 12.4408C1.55439 9.08083 2.75439 4.85083 6.63439 3.59083C7.61439 3.28083 8.66439 3.21083 9.66439 3.38083C10.5444 3.53083 11.3444 4.03083 12.0044 4.49083C12.6544 4.02083 13.4644 3.52083 14.3444 3.37083C15.3544 3.20083 16.4044 3.27083 17.3744 3.58083C21.2544 4.83083 22.4444 9.07083 21.3644 12.4408C19.6144 17.8008 12.6244 21.1008 12.3244 21.2408C12.2244 21.2908 12.1144 21.3108 12.0044 21.3108V21.3208ZM8.58437 4.79083C8.08437 4.79083 7.57438 4.87083 7.09438 5.02083C4.00438 6.02083 3.22436 9.36083 4.07436 11.9908C5.35436 16.0808 10.6544 19.0408 12.0144 19.7408C13.3644 19.0508 18.5844 16.1308 19.9444 11.9908C20.7844 9.35083 20.0144 6.01083 16.9244 5.02083C16.1844 4.78083 15.3744 4.73083 14.6044 4.86083C13.8644 4.99083 13.0544 5.59083 12.4644 6.03083C12.1944 6.23083 11.8344 6.23083 11.5644 6.03083C10.9344 5.57083 10.1544 4.99083 9.42437 4.86083C9.14437 4.81083 8.87438 4.79083 8.59438 4.79083H8.58437Z" fill="black"/>
<path d="M11.9942 9.48079C11.4642 9.48079 11.0342 9.05079 11.0342 8.52079C11.0342 8.27079 11.1342 8.02079 11.3142 7.84079C11.4942 7.66079 11.7342 7.56079 11.9942 7.56079C12.5242 7.56079 12.9542 7.99079 12.9542 8.52079C12.9542 9.05079 12.5242 9.48079 11.9942 9.48079Z" fill="black"/>
<path d="M15.1043 11.0611C14.5743 11.0611 14.1443 10.6311 14.1443 10.1011C14.1443 9.8511 14.2443 9.6011 14.4243 9.4211C14.6043 9.2411 14.8543 9.1311 15.1043 9.1311C15.6343 9.1311 16.0743 9.5611 16.0743 10.0911C16.0743 10.6211 15.6443 11.0511 15.1143 11.0511L15.1043 11.0611Z" fill="black"/>
<path d="M8.89432 11.0611C8.36432 11.0611 7.93433 10.6311 7.93433 10.1011C7.93433 9.8511 8.03432 9.6011 8.21432 9.4211C8.39432 9.2411 8.63432 9.1311 8.89432 9.1311C9.42432 9.1311 9.86432 9.5611 9.86432 10.0911C9.86432 10.6211 9.43432 11.0511 8.89432 11.0511V11.0611Z" fill="black"/>
<path d="M9.93418 15.9812C9.63418 15.9812 9.33419 15.9212 9.06418 15.7412C8.68418 15.4912 8.44417 15.0812 8.36417 14.5112C8.24417 13.7712 8.48417 13.0012 9.04417 12.3412C9.76417 11.4912 10.9142 10.9612 12.0242 10.9612C13.9742 10.9612 15.6942 12.4912 15.7042 14.2312C15.7042 14.8712 15.5342 15.3512 15.1542 15.6512C14.5542 16.1312 13.7942 15.9512 13.0442 15.7712C12.6842 15.6812 12.3142 15.6012 12.0142 15.6012C11.7642 15.6012 11.4242 15.6912 11.1042 15.7812C10.7242 15.8812 10.3242 15.9912 9.92417 15.9912L9.93418 15.9812ZM12.0242 12.4612C11.3542 12.4612 10.6242 12.7912 10.1842 13.3112C10.0242 13.4912 9.77418 13.8612 9.84418 14.2712C9.87418 14.4512 9.91419 14.5012 9.91419 14.5012C10.0142 14.5112 10.4542 14.3912 10.7342 14.3212C11.1342 14.2112 11.5842 14.0912 12.0342 14.0912C12.5142 14.0912 12.9942 14.2012 13.4142 14.3112C13.6642 14.3712 14.0242 14.4612 14.2042 14.4612C14.2042 14.4212 14.2142 14.3512 14.2142 14.2512C14.2142 13.4212 13.2542 12.4612 12.0342 12.4612H12.0242Z" fill="black"/>
</svg>