<svg width="24" height="25" viewBox="0 0 24 25" fill="none" xmlns="http://www.w3.org/2000/svg">
<path d="M8.45264 6.59204C8.04264 6.59204 7.70264 6.25204 7.70264 5.84204C7.70264 5.43204 8.04264 5.09204 8.45264 5.09204C8.86264 5.09204 9.20264 5.42204 9.20264 5.84204C9.20264 6.26204 8.86264 6.60205 8.45264 6.60205V6.59204Z" fill="black"/>
<path d="M16.0625 13.7517C15.6525 13.7517 15.3125 13.4117 15.3125 13.0017C15.3125 12.5917 15.6525 12.2517 16.0625 12.2517C16.4725 12.2517 16.8125 12.5817 16.8125 13.0017C16.8125 13.4217 16.4725 13.7617 16.0625 13.7617V13.7517Z" fill="black"/>
<path d="M8.67268 12.6916C8.26268 12.6916 7.93268 12.3616 7.92268 11.9516C7.92268 11.5816 7.89268 11.2316 7.86268 10.9416C7.38268 11.0316 6.67268 11.1316 5.60268 11.2516C4.76268 11.3516 4.01268 11.1217 3.41268 10.6017C2.11268 9.47166 2.00268 7.39162 1.99268 6.99162C1.99268 6.68162 2.16268 6.40166 2.45268 6.28166L5.42268 5.02165C5.45268 4.59165 5.58268 4.01167 6.00268 3.48167C6.36268 3.02167 7.07268 2.46162 8.39268 2.37162L9.98268 2.24162C11.5127 2.11162 14.2427 2.46164 15.2827 6.26164C15.3927 6.66164 15.1527 7.07162 14.7527 7.18162C14.3527 7.29162 13.9427 7.05165 13.8327 6.65165C13.2627 4.55165 11.9927 3.57167 10.1027 3.73167L8.49268 3.86167C7.86268 3.90167 7.42268 4.08165 7.17268 4.40165C6.92268 4.71165 6.88268 5.12163 6.92268 5.38163C6.97268 5.72163 6.79268 6.05163 6.47268 6.19163L3.52268 7.44163C3.62268 8.20163 3.90268 9.04165 4.39268 9.46165C4.67268 9.71165 5.00268 9.80163 5.42268 9.75163C7.40268 9.52163 7.99268 9.37165 8.09268 9.34165C8.26268 9.25165 8.47268 9.24167 8.65268 9.29167C8.88268 9.36167 9.06268 9.54165 9.14268 9.77165C9.34268 10.3816 9.39268 11.2717 9.40268 11.9117C9.40268 12.3217 9.08268 12.6717 8.66268 12.6717H8.65268L8.67268 12.6916Z" fill="black"/>
<path d="M20.9826 19.7316C20.9326 19.7316 20.8726 19.7316 20.8226 19.7116C20.4126 19.6216 20.1626 19.2216 20.2426 18.8216C20.6526 16.9116 20.5026 15.3216 20.5026 15.3016C20.5026 12.8016 19.1726 10.1216 17.2926 9.53162V10.5316C17.2926 10.9416 16.9526 11.2816 16.5426 11.2816C15.3926 11.2816 14.6726 11.7116 14.2926 12.6416C13.9126 13.5716 13.3226 13.9916 12.7526 14.1716C12.7926 14.3616 12.8826 14.5816 13.0126 14.7716C13.1726 15.0116 13.4726 15.3216 13.9526 15.3916C15.5926 15.6416 16.4126 16.5916 16.4726 18.2916C16.4826 18.7016 16.1626 19.0516 15.7526 19.0716C15.3526 19.1016 14.9926 18.7616 14.9726 18.3516C14.9426 17.3716 14.6326 17.0116 13.7326 16.8816C12.9326 16.7616 12.2326 16.3116 11.7626 15.6116C11.3026 14.9216 11.1126 14.0316 11.2726 13.3516C11.3526 13.0216 11.6526 12.7816 12.0026 12.7816C12.3126 12.7816 12.6426 12.6916 12.8926 12.0716C13.4126 10.8016 14.4026 10.0316 15.7726 9.8316V8.67163C15.7726 8.26163 16.1126 7.92163 16.5226 7.92163C19.7326 7.92163 21.9726 11.7716 21.9726 15.2216C21.9726 15.2216 22.1526 16.9716 21.6926 19.1316C21.6126 19.4816 21.3026 19.7216 20.9626 19.7216L20.9826 19.7316Z" fill="black"/>
<path d="M7.75248 22.3817H5.77248C5.05248 22.3817 4.46248 21.7917 4.46248 21.0717V20.2117H3.60248C2.88248 20.2117 2.29248 19.6217 2.29248 18.9017V16.9217C2.29248 16.2017 2.88248 15.6117 3.60248 15.6117H4.46248V14.7516C4.46248 14.0316 5.05248 13.4417 5.77248 13.4417H7.75248C8.47248 13.4417 9.06248 14.0316 9.06248 14.7516V15.6117H9.92248C10.6425 15.6117 11.2325 16.2017 11.2325 16.9217V18.9017C11.2325 19.6217 10.6425 20.2117 9.92248 20.2117H9.06248V21.0717C9.06248 21.7917 8.47248 22.3817 7.75248 22.3817ZM5.96248 20.8817H7.57248V19.4617C7.57248 19.0517 7.91248 18.7117 8.32248 18.7117H9.74248V17.1017H8.32248C7.91248 17.1017 7.57248 16.7617 7.57248 16.3517V14.9316H5.96248V16.3517C5.96248 16.7617 5.62248 17.1017 5.21248 17.1017H3.79248V18.7117H5.21248C5.62248 18.7117 5.96248 19.0517 5.96248 19.4617V20.8817Z" fill="black"/>
<path d="M11.3929 11.2617C11.0429 11.2617 10.7329 11.0117 10.6629 10.6617C10.3529 9.13169 10.6229 7.39168 10.7529 6.71168C10.8329 6.30168 11.2229 6.0417 11.6329 6.1117C12.0429 6.1917 12.3029 6.58165 12.2329 6.99165C12.1429 7.45165 11.8829 9.07165 12.1429 10.3717C12.2229 10.7817 11.9629 11.1717 11.5529 11.2517C11.5029 11.2517 11.4529 11.2617 11.4029 11.2617H11.3929Z" fill="black"/>
</svg>