<svg width="24" height="25" viewBox="0 0 24 25" fill="none" xmlns="http://www.w3.org/2000/svg">
<g clip-path="url(#clip0_4878_21290)">
<path d="M21 11.3008V10.1295C21 9.86429 20.8946 9.60994 20.7071 9.4224C20.5196 9.23487 20.2652 9.12951 20 9.12951H15.1713V4.30078C15.1713 4.03556 15.0659 3.78121 14.8784 3.59367C14.6908 3.40614 14.4365 3.30078 14.1713 3.30078H9.82873C9.56351 3.30078 9.30916 3.40614 9.12162 3.59367C8.93409 3.78121 8.82873 4.03556 8.82873 4.30078V9.12951H4C3.73478 9.12951 3.48043 9.23487 3.29289 9.4224C3.10536 9.60994 3 9.86429 3 10.1295V14.4721C3 14.7373 3.10536 14.9916 3.29289 15.1792C3.48043 15.3667 3.73478 15.4721 4 15.4721H8.82873V20.3008C8.82873 20.566 8.93409 20.8204 9.12162 21.0079C9.30916 21.1954 9.56351 21.3008 9.82873 21.3008H11.5702" stroke="black" stroke-width="1.5" stroke-linecap="round" stroke-linejoin="round"/>
<path d="M17.3326 13.9359V13.8817M17.3256 13.7207C17.1951 13.7207 17.0888 13.827 17.0899 13.9575C17.0899 14.0879 17.1961 14.1942 17.3266 14.1942C17.4571 14.1942 17.5634 14.0879 17.5634 13.9575C17.5634 13.8259 17.4571 13.7207 17.3256 13.7207Z" stroke="black" stroke-width="1.5" stroke-linecap="round" stroke-linejoin="round"/>
<path d="M20.7691 15.6811V15.6268M20.7621 15.4658C20.6316 15.4658 20.5253 15.5721 20.5264 15.7026C20.5264 15.833 20.6327 15.9393 20.7631 15.9393C20.8936 15.9393 20.9999 15.833 20.9999 15.7026C20.9999 15.571 20.8936 15.4658 20.7621 15.4658Z" stroke="black" stroke-width="1.5" stroke-linecap="round" stroke-linejoin="round"/>
<path d="M13.9127 15.6811V15.6268M13.9056 15.4658C13.7752 15.4658 13.6689 15.5721 13.6699 15.7026C13.6699 15.833 13.7762 15.9393 13.9067 15.9393C14.0372 15.9393 14.1434 15.833 14.1434 15.7026C14.1434 15.571 14.0372 15.4658 13.9056 15.4658Z" stroke="black" stroke-width="1.5" stroke-linecap="round" stroke-linejoin="round"/>
<path d="M17.3661 20.874C18.805 20.874 20.6303 22.1211 20.6041 20.2017C20.5935 18.7622 19.0943 17.4113 17.3661 17.4097C15.6277 17.4096 13.901 18.8776 14.1405 20.3744C14.4056 22.1098 16.0908 20.874 17.3661 20.874Z" stroke="black" stroke-width="1.5"/>
</g>
<defs>
<clipPath id="clip0_4878_21290">
<rect width="24" height="24" fill="white" transform="translate(0 0.300781)"/>
</clipPath>
</defs>
</svg>