<svg width="24" height="25" viewBox="0 0 24 25" fill="none" xmlns="http://www.w3.org/2000/svg">
<path d="M15.8048 22.0507H8.19479C5.08479 22.0507 3.15479 20.1307 3.15479 17.0407V8.9007C3.15479 5.8607 5.08479 3.9707 8.19479 3.9707H15.8148C17.3748 3.9707 18.6648 4.44068 19.5448 5.32068C20.4048 6.18068 20.8548 7.4207 20.8448 8.9007V17.1107C20.8448 20.1607 18.9148 22.0507 15.8048 22.0507ZM8.19479 5.4707C5.90479 5.4707 4.65479 6.6907 4.65479 8.9007V17.0407C4.65479 19.3007 5.91479 20.5507 8.19479 20.5507H15.8048C18.0948 20.5507 19.3448 19.3307 19.3448 17.1107V8.9007C19.3448 7.8107 19.0548 6.96068 18.4748 6.38068C17.8748 5.78068 16.9548 5.4707 15.8048 5.4707H8.18478H8.19479Z" fill="black"/>
<path d="M15.635 6.63077C15.225 6.63077 14.885 6.29077 14.885 5.88077V3.30078C14.885 2.89078 15.225 2.55078 15.635 2.55078C16.045 2.55078 16.385 2.89078 16.385 3.30078V5.88077C16.385 6.29077 16.045 6.63077 15.635 6.63077ZM8.36499 6.63077C7.95499 6.63077 7.61499 6.29077 7.61499 5.88077V3.30078C7.61499 2.89078 7.95499 2.55078 8.36499 2.55078C8.77499 2.55078 9.11499 2.89078 9.11499 3.30078V5.88077C9.11499 6.29077 8.77499 6.63077 8.36499 6.63077Z" fill="black"/>
<path d="M11.9949 10.5105C11.4549 10.5105 11.0149 10.0705 11.0149 9.54053C11.0149 9.29053 11.1149 9.04052 11.2949 8.85052C11.4749 8.66052 11.7249 8.56055 11.9849 8.56055C12.5249 8.56055 12.9649 9.00055 12.9649 9.53055C12.9649 10.0605 12.5249 10.5005 11.9949 10.5005V10.5105Z" fill="black"/>
<path d="M15.2549 12.1707C14.7149 12.1707 14.2849 11.7307 14.2849 11.2007C14.2849 10.9507 14.3849 10.7007 14.5649 10.5107C14.7449 10.3207 14.9949 10.2207 15.2549 10.2207C15.7949 10.2207 16.2349 10.6607 16.2349 11.1907C16.2349 11.7207 15.7949 12.1607 15.2549 12.1607V12.1707Z" fill="black"/>
<path d="M8.7449 12.1707C8.2049 12.1707 7.76489 11.7307 7.76489 11.2007C7.76489 10.9507 7.86489 10.7007 8.04489 10.5107C8.22489 10.3207 8.47489 10.2207 8.73489 10.2207C9.27489 10.2207 9.7149 10.6607 9.7149 11.1907C9.7149 11.7207 9.2749 12.1607 8.7449 12.1607V12.1707Z" fill="black"/>
<path d="M9.8349 17.4608C9.5249 17.4608 9.22492 17.4008 8.94492 17.2108C8.55492 16.9608 8.31492 16.5308 8.22492 15.9408C8.10492 15.1708 8.35491 14.3708 8.93491 13.6908C9.68491 12.8108 10.8749 12.2607 12.0349 12.2607C14.0549 12.2607 15.8449 13.8507 15.8649 15.6607C15.8649 16.3207 15.6849 16.8208 15.3049 17.1208C14.6949 17.6108 13.8949 17.4208 13.1249 17.2408C12.7449 17.1508 12.3549 17.0608 12.0349 17.0608C11.7649 17.0608 11.4149 17.1508 11.0649 17.2508C10.6749 17.3508 10.2549 17.4708 9.8349 17.4708V17.4608ZM12.0249 13.7607C11.3049 13.7607 10.5449 14.1207 10.0749 14.6707C9.90489 14.8707 9.6349 15.2708 9.7049 15.7108C9.7349 15.9108 9.78492 15.9708 9.78492 15.9708C9.90492 16.0008 10.3849 15.8707 10.6749 15.7907C11.0949 15.6807 11.5649 15.5508 12.0249 15.5508C12.5249 15.5508 13.0249 15.6708 13.4649 15.7708C13.7449 15.8408 14.1349 15.9208 14.3349 15.9308C14.3349 15.8808 14.3549 15.8007 14.3549 15.6707C14.3549 14.7807 13.3249 13.7607 12.0249 13.7607Z" fill="black"/>
</svg>