<svg width="25" height="24" viewBox="0 0 25 24" fill="none" xmlns="http://www.w3.org/2000/svg">
<path d="M16.9997 21.5657C14.6717 21.5657 11.6427 19.7177 7.99965 16.0717C4.33865 12.4127 2.48965 9.37172 2.49965 7.04172C2.49026 6.54605 2.58594 6.054 2.78035 5.59794C2.97477 5.14189 3.26352 4.73217 3.62764 4.39572C3.65544 4.36394 3.68482 4.33356 3.71566 4.30472C5.05866 2.96072 5.97467 2.42472 6.87667 2.42972C7.93667 2.44272 8.68266 3.22972 9.62566 4.22072C9.85566 4.46372 10.1057 4.72672 10.3837 5.00472C10.8669 5.44205 11.1855 6.03187 11.2863 6.67575C11.3871 7.31964 11.2641 7.97862 10.9376 8.54272C10.5376 9.56872 10.1897 10.4557 11.9027 12.1677C13.6157 13.8797 14.5027 13.5317 15.5277 13.1297C16.0913 12.8032 16.7499 12.6798 17.3935 12.7801C18.0372 12.8803 18.627 13.1982 19.0647 13.6807C19.3407 13.9557 19.6007 14.2037 19.8407 14.4327C20.8407 15.3797 21.6246 16.1327 21.6406 17.1907C21.6516 18.0907 21.1087 19.0077 19.7687 20.3497L19.6777 20.4367C19.3413 20.8019 18.9312 21.0916 18.4745 21.2865C18.0179 21.4815 17.5251 21.5774 17.0286 21.5677L16.9997 21.5657ZM4.78167 5.35872C4.78167 5.35872 4.73666 5.40772 4.67666 5.46572C4.45406 5.66376 4.27794 5.90852 4.16091 6.18252C4.04388 6.45651 3.98882 6.75298 3.99965 7.05072C3.99265 8.36772 4.86366 10.8187 9.05666 15.0117C13.2497 19.2047 15.7407 20.0927 17.0177 20.0657C17.3154 20.076 17.6117 20.0205 17.8855 19.9031C18.1593 19.7858 18.4038 19.6094 18.6016 19.3867C18.6706 19.3167 18.7266 19.2637 18.7656 19.2317C19.6746 18.3167 20.1437 17.6367 20.1387 17.2077C20.1337 16.7787 19.5767 16.2487 18.8077 15.5167C18.5587 15.2807 18.2886 15.0247 18.0076 14.7397C17.3076 14.0397 16.9227 14.1917 16.0777 14.5247C14.8867 14.9927 13.2527 15.6327 10.8457 13.2247C8.43866 10.8167 9.07764 9.18572 9.54564 7.99372C9.87664 7.14772 10.0267 6.76172 9.32766 6.06172C9.03966 5.77472 8.78065 5.50172 8.54265 5.25072C7.81465 4.48472 7.28865 3.93172 6.86165 3.92672H6.84966C6.41966 3.92672 5.74165 4.39572 4.77465 5.36272L4.78167 5.35872Z" fill="black"/>
<path d="M16.8398 9.22545C16.7412 9.22555 16.6435 9.20616 16.5524 9.16841C16.4613 9.13066 16.3785 9.07528 16.3088 9.00545L14.1678 6.86045C14.0314 6.71881 13.9561 6.52924 13.958 6.33259C13.96 6.13594 14.0392 5.94793 14.1784 5.80907C14.3177 5.6702 14.5059 5.59159 14.7026 5.59017C14.8992 5.58874 15.0886 5.66462 15.2298 5.80145L16.8398 7.41345L20.7198 3.53145C20.7897 3.46185 20.8726 3.40669 20.9638 3.36912C21.0549 3.33156 21.1526 3.31232 21.2512 3.3125C21.3498 3.31269 21.4475 3.33229 21.5385 3.37021C21.6296 3.40812 21.7122 3.46359 21.7818 3.53345C21.8514 3.60331 21.9066 3.6862 21.9442 3.77738C21.9817 3.86856 22.001 3.96625 22.0008 4.06486C22.0006 4.16348 21.981 4.26109 21.9431 4.35213C21.9052 4.44317 21.8497 4.52585 21.7798 4.59545L17.3698 9.00545C17.3003 9.07516 17.2177 9.13047 17.1267 9.16822C17.0358 9.20597 16.9383 9.22542 16.8398 9.22545Z" fill="black"/>
</svg>