<svg width="24" height="24" viewBox="0 0 24 24" fill="none" xmlns="http://www.w3.org/2000/svg">
<path fill-rule="evenodd" clip-rule="evenodd" d="M11.1512 12.8209C14.8669 16.5357 15.9716 11.9759 18.3376 14.3399C20.6189 16.6203 21.9298 17.0773 19.0406 19.9664C18.6779 20.2572 16.3781 23.758 8.29514 15.677C0.212182 7.59598 3.70909 5.29323 3.99985 4.93148C6.89676 2.03457 7.34603 3.35223 9.62738 5.63262C11.9924 7.99857 7.4355 9.10619 11.1512 12.8209Z" stroke="black" stroke-width="1.5" stroke-linecap="round" stroke-linejoin="round"/>
<path d="M17.3674 10.2954C19.3736 10.2954 20.9995 8.66948 20.9995 6.66333C20.9995 4.65718 19.3736 3.03125 17.3674 3.03125C15.3613 3.03125 13.7344 4.65718 13.7344 6.66333C13.7344 8.66948 15.3613 10.2954 17.3674 10.2954Z" stroke="black" stroke-width="1.5" stroke-linecap="round" stroke-linejoin="round"/>
<path d="M18.4961 7.60803L17.3477 6.92148V5.44531" stroke="black" stroke-width="1.5" stroke-linecap="round" stroke-linejoin="round"/>
</svg>