<svg width="25" height="24" viewBox="0 0 25 24" fill="none" xmlns="http://www.w3.org/2000/svg">
<path fill-rule="evenodd" clip-rule="evenodd" d="M12.6309 17.7C12.1409 17.7 11.7209 17.26 11.7209 16.75C11.7209 16.24 12.1409 15.8 12.6309 15.8C13.1909 15.8 13.6209 16.22 13.6209 16.75C13.6209 17.29 13.1009 17.7 12.6309 17.7ZM14.7209 3.25H10.6209C8.56092 3.25 6.82092 4.99 6.82092 7.05V16.95C6.82092 19.01 8.56092 20.75 10.6209 20.75H14.7209C16.7809 20.75 18.5209 19.01 18.5209 16.95V7.05C18.5209 4.99 16.7809 3.25 14.7209 3.25Z" fill="black"/>
<path fill-rule="evenodd" clip-rule="evenodd" d="M4.59079 14.7198L3.79079 15.5197C3.49779 15.8127 3.49779 16.2867 3.79079 16.5798C3.93679 16.7268 4.12879 16.7998 4.32079 16.7998C4.51279 16.7998 4.70479 16.7268 4.85079 16.5798L5.65179 15.7808C5.94479 15.4878 5.94479 15.0128 5.65179 14.7198C5.35879 14.4268 4.88379 14.4268 4.59079 14.7198Z" fill="black"/>
<path fill-rule="evenodd" clip-rule="evenodd" d="M4.851 7.32034C4.558 7.02734 4.082 7.02734 3.79 7.32034C3.497 7.61334 3.497 8.08834 3.79 8.38134L4.591 9.18034C4.737 9.32734 4.929 9.40034 5.121 9.40034C5.313 9.40034 5.505 9.32734 5.651 9.18034C5.944 8.88734 5.944 8.41334 5.651 8.12034L4.851 7.32034Z" fill="black"/>
<path fill-rule="evenodd" clip-rule="evenodd" d="M20.6513 14.7198C20.3583 14.4268 19.8833 14.4268 19.5903 14.7198C19.2973 15.0128 19.2973 15.4878 19.5903 15.7808L20.3903 16.5798C20.5373 16.7268 20.7293 16.7998 20.9213 16.7998C21.1123 16.7998 21.3043 16.7268 21.4513 16.5798C21.7443 16.2867 21.7443 15.8127 21.4513 15.5197L20.6513 14.7198Z" fill="black"/>
<path fill-rule="evenodd" clip-rule="evenodd" d="M20.121 9.40034C20.313 9.40034 20.505 9.32734 20.651 9.18034L21.451 8.38034C21.744 8.08834 21.744 7.61334 21.451 7.32034C21.158 7.02734 20.683 7.02734 20.391 7.32034L19.591 8.12034C19.298 8.41334 19.298 8.88734 19.591 9.18034C19.737 9.32734 19.929 9.40034 20.121 9.40034Z" fill="black"/>
<path fill-rule="evenodd" clip-rule="evenodd" d="M4.72109 12.7002C5.13509 12.7002 5.47109 12.3642 5.47109 11.9502C5.47109 11.5362 5.13509 11.2002 4.72109 11.2002H3.62109C3.20709 11.2002 2.87109 11.5362 2.87109 11.9502C2.87109 12.3642 3.20709 12.7002 3.62109 12.7002H4.72109Z" fill="black"/>
<path fill-rule="evenodd" clip-rule="evenodd" d="M21.621 11.2002H20.521C20.107 11.2002 19.771 11.5362 19.771 11.9502C19.771 12.3642 20.107 12.7002 20.521 12.7002H21.621C22.035 12.7002 22.371 12.3642 22.371 11.9502C22.371 11.5362 22.035 11.2002 21.621 11.2002Z" fill="black"/>
</svg>