<svg width="24" height="24" viewBox="0 0 24 24" fill="none" xmlns="http://www.w3.org/2000/svg">
<path fill-rule="evenodd" clip-rule="evenodd" d="M11.324 13.1086C14.923 16.7067 15.993 12.2901 18.2846 14.5799C20.4944 16.7886 21.7641 17.2313 18.9656 20.0297C18.6143 20.3114 16.3867 23.7022 8.55757 15.875C0.728435 8.04773 4.11553 5.8173 4.39716 5.46691C7.20311 2.66096 7.63827 3.93819 9.84798 6.14602C12.1387 8.43768 7.72492 9.51052 11.324 13.1086Z" stroke="black" stroke-width="1.5" stroke-linecap="round" stroke-linejoin="round"/>
<path d="M16.0801 9.5332V9.57653" stroke="black" stroke-width="1.5" stroke-linecap="round" stroke-linejoin="round"/>
<path d="M16.0788 7.43638C16.0703 6.7714 16.675 6.48977 17.1243 6.23357C17.6725 5.93122 18.0446 5.4499 18.0446 4.78209C18.0446 3.79309 17.244 3 16.2615 3C15.2725 3 14.4785 3.79309 14.4785 4.78209" stroke="black" stroke-width="1.5" stroke-linecap="round" stroke-linejoin="round"/>
</svg>