<svg width="25" height="24" viewBox="0 0 25 24" fill="none" xmlns="http://www.w3.org/2000/svg">
<path d="M15.0559 21.0871H10.6879C9.601 21.0855 8.55907 20.653 7.79051 19.8845C7.02196 19.1159 6.58948 18.074 6.58789 16.9871V7.01308C6.58948 5.92618 7.02196 4.88426 7.79051 4.1157C8.55907 3.34714 9.601 2.91467 10.6879 2.91309H15.0549C16.1418 2.91467 17.1837 3.34714 17.9523 4.1157C18.7208 4.88426 19.1533 5.92618 19.1549 7.01308V16.9841C19.1538 18.0713 18.7218 19.1136 17.9534 19.8828C17.185 20.6519 16.1431 21.085 15.0559 21.0871ZM10.6879 4.41109C9.99833 4.41109 9.33701 4.68501 8.84942 5.17261C8.36182 5.6602 8.08789 6.32152 8.08789 7.01109V16.9831C8.08789 17.6726 8.36182 18.334 8.84942 18.8216C9.33701 19.3092 9.99833 19.5831 10.6879 19.5831H15.0559C15.745 19.5818 16.4056 19.3074 16.8929 18.8201C17.3802 18.3328 17.6546 17.6722 17.6559 16.9831V7.01308C17.6559 6.32352 17.382 5.6622 16.8944 5.17461C16.4068 4.68701 15.7455 4.41309 15.0559 4.41309L10.6879 4.41109Z" fill="black"/>
<path d="M21.3041 15.2963C21.174 15.296 21.0462 15.2619 20.9333 15.1974C20.8203 15.1329 20.726 15.0401 20.6597 14.9282C20.5934 14.8163 20.5572 14.6891 20.5548 14.559C20.5525 14.429 20.5839 14.3005 20.6461 14.1863C20.9591 13.4997 21.1211 12.7538 21.1211 11.9993C21.1211 11.2447 20.9591 10.4989 20.6461 9.81226C20.5987 9.72591 20.5687 9.63107 20.558 9.53316C20.5472 9.43524 20.5559 9.33618 20.5834 9.2416C20.6109 9.14702 20.6568 9.0588 20.7184 8.98196C20.7801 8.90512 20.8562 8.84116 20.9426 8.79375C21.0289 8.74635 21.1238 8.71641 21.2217 8.70566C21.3196 8.6949 21.4187 8.70353 21.5132 8.73106C21.6078 8.7586 21.696 8.80449 21.7729 8.86612C21.8497 8.92775 21.9137 9.00391 21.9611 9.09026C22.3955 9.99847 22.6211 10.9925 22.6211 11.9993C22.6211 13.006 22.3955 14 21.9611 14.9083C21.8964 15.0259 21.8013 15.1239 21.6857 15.1922C21.5701 15.2604 21.4383 15.2964 21.3041 15.2963ZM4.43607 15.2963C4.30224 15.2963 4.17084 15.2605 4.05562 15.1924C3.94039 15.1243 3.84557 15.0265 3.78107 14.9093C3.34661 14.001 3.12109 13.007 3.12109 12.0003C3.12109 10.9935 3.34661 9.99947 3.78107 9.09126C3.87735 8.91714 4.03885 8.7884 4.23004 8.73336C4.42123 8.67832 4.62646 8.70148 4.80058 8.79775C4.97469 8.89403 5.10343 9.05553 5.15847 9.24672C5.21351 9.43791 5.19035 9.64314 5.09408 9.81725C4.78168 10.5035 4.62003 11.2487 4.62003 12.0028C4.62003 12.7568 4.78168 13.502 5.09408 14.1883C5.15586 14.3026 5.18691 14.431 5.18419 14.561C5.18147 14.6909 5.14507 14.8179 5.07856 14.9296C5.01205 15.0412 4.91769 15.1337 4.80473 15.198C4.69176 15.2623 4.56405 15.2961 4.43407 15.2963H4.43607Z" fill="black"/>
<path d="M12.8711 17.8477C12.6733 17.8477 12.48 17.789 12.3155 17.6791C12.1511 17.5692 12.0229 17.4131 11.9472 17.2303C11.8715 17.0476 11.8517 16.8465 11.8903 16.6526C11.9289 16.4586 12.0241 16.2804 12.164 16.1406C12.3038 16.0007 12.482 15.9055 12.676 15.8669C12.87 15.8283 13.0711 15.8481 13.2538 15.9238C13.4365 15.9995 13.5927 16.1276 13.7026 16.2921C13.8124 16.4565 13.8711 16.6499 13.8711 16.8477C13.8711 17.1129 13.7657 17.3672 13.5782 17.5548C13.3907 17.7423 13.1363 17.8477 12.8711 17.8477Z" fill="black"/>
</svg>