<svg width="25" height="24" viewBox="0 0 25 24" fill="none" xmlns="http://www.w3.org/2000/svg">
<path fill-rule="evenodd" clip-rule="evenodd" d="M3.62109 8.69531C3.20709 8.69531 2.87109 9.03131 2.87109 9.44531V14.7453C2.87109 15.1593 3.20709 15.4953 3.62109 15.4953C4.03509 15.4953 4.37109 15.1593 4.37109 14.7453V9.44531C4.37109 9.03131 4.03509 8.69531 3.62109 8.69531Z" fill="black"/>
<path fill-rule="evenodd" clip-rule="evenodd" d="M21.6211 8.59473C21.2071 8.59473 20.8711 8.93073 20.8711 9.34473V14.6447C20.8711 15.0587 21.2071 15.3947 21.6211 15.3947C22.0351 15.3947 22.3711 15.0587 22.3711 14.6447V9.34473C22.3711 8.93073 22.0351 8.59473 21.6211 8.59473Z" fill="black"/>
<path fill-rule="evenodd" clip-rule="evenodd" d="M13.511 17.4151C13.401 17.8051 13.031 18.0951 12.621 18.0951C12.121 18.0951 11.691 17.6551 11.691 17.1451C11.691 16.6251 12.121 16.1951 12.621 16.1951C13.031 16.1951 13.371 16.4051 13.521 16.7351C13.621 16.9551 13.611 17.2051 13.511 17.4151ZM15.121 2.74512H10.321C8.13096 2.74512 6.42096 4.45512 6.42096 6.64512V17.3451C6.42096 19.5351 8.13096 21.2451 10.321 21.2451H15.091C15.161 21.2451 15.221 21.2551 15.281 21.2551C16.191 21.2551 17.071 20.8851 17.771 20.2251C18.561 19.4751 19.021 18.4251 19.021 17.3451V6.64512C19.021 4.45512 17.311 2.74512 15.121 2.74512Z" fill="black"/>
</svg>