<svg width="25" height="25" viewBox="0 0 25 25" fill="none" xmlns="http://www.w3.org/2000/svg">
<path d="M10.0537 3.32422H9.24428C7.2459 3.32422 5.62598 4.94421 5.62598 6.94321L5.62666 14.4647" stroke="black" stroke-width="1.5" stroke-linecap="round" stroke-linejoin="round"/>
<path d="M5.62695 17.7072C5.62695 19.7042 7.24686 21.3242 9.24427 21.3242H14.7598C16.7581 21.3242 18.3771 19.7042 18.3771 17.7062L18.3761 13.2422" stroke="black" stroke-width="1.5" stroke-linecap="round" stroke-linejoin="round"/>
<path d="M18.8491 7.29922C18.8491 9.81222 15.8388 10.7232 15.8388 10.7232C15.8388 10.7232 12.8286 9.81322 12.8286 7.29922C12.8286 4.78622 12.7187 4.59021 12.9609 4.34821C13.2022 4.10621 15.4438 3.32422 15.8388 3.32422C16.2338 3.32422 18.7167 4.34821 18.7167 4.34821" stroke="black" stroke-width="1.5" stroke-linecap="round" stroke-linejoin="round"/>
<path d="M12.0005 17.5904V17.5274M11.7412 17.5774C11.7412 17.4334 11.8581 17.3164 12.0021 17.3164C12.1461 17.3164 12.2628 17.4334 12.2628 17.5774C12.2628 17.7214 12.1461 17.8384 12.0021 17.8384C11.8581 17.8384 11.7412 17.7214 11.7412 17.5774Z" stroke="black" stroke-width="1.5" stroke-linecap="round" stroke-linejoin="round"/>
</svg>