<svg width="25" height="24" viewBox="0 0 25 24" fill="none" xmlns="http://www.w3.org/2000/svg">
<path fill-rule="evenodd" clip-rule="evenodd" d="M20.1133 14.8457C19.8693 14.6137 19.6033 14.3617 19.3243 14.0817C18.0313 12.7867 16.9603 13.2087 16.0183 13.5817C14.9433 14.0047 13.9263 14.4077 12.0713 12.5517C10.2173 10.6977 10.6143 9.6787 11.0363 8.5997C11.4053 7.6547 11.8233 6.5827 10.5333 5.2907C10.2503 5.0077 9.99634 4.7407 9.76034 4.4937C8.81134 3.4947 8.12634 2.7747 7.16234 2.7627C6.31634 2.7857 5.45334 3.2827 4.14634 4.5917C4.13434 4.6047 4.07034 4.6677 4.05934 4.6807C3.77034 4.9607 3.00334 5.7047 2.99134 7.1677C2.97334 9.4577 4.82034 12.4767 8.48134 16.1387C12.1223 19.7807 15.1273 21.6257 17.4143 21.6257H17.4343C18.9003 21.6187 19.6533 20.8507 19.9363 20.5617L20.0333 20.4687C21.3373 19.1627 21.8643 18.2897 21.8533 17.4537C21.8413 16.4877 21.1163 15.7987 20.1133 14.8457Z" fill="black"/>
<path fill-rule="evenodd" clip-rule="evenodd" d="M19.7783 5.66475L21.7893 3.65475C22.0823 3.36175 22.0823 2.88775 21.7893 2.59475C21.4973 2.30275 21.0223 2.30075 20.7283 2.59475L18.7163 4.60375L16.7053 2.59475C16.4113 2.30075 15.9363 2.30275 15.6443 2.59475C15.3513 2.88775 15.3513 3.36175 15.6443 3.65475L17.6553 5.66475L15.6443 7.67475C15.3513 7.96775 15.3513 8.44175 15.6443 8.73475C15.9363 9.02675 16.4113 9.02875 16.7053 8.73475L18.7163 6.72575L20.7283 8.73475C20.8753 8.88175 21.0673 8.95475 21.2583 8.95475C21.4513 8.95475 21.6423 8.88175 21.7893 8.73475C22.0823 8.44175 22.0823 7.96775 21.7893 7.67475L19.7783 5.66475Z" fill="black"/>
</svg>