<svg width="25" height="24" viewBox="0 0 25 24" fill="none" xmlns="http://www.w3.org/2000/svg">
<path d="M3.89008 15.4372C3.69168 15.4372 3.50136 15.3586 3.3608 15.2186C3.22023 15.0786 3.14087 14.8886 3.14008 14.6902L3.12207 9.36821C3.12181 9.26972 3.14094 9.17214 3.17839 9.08105C3.21584 8.98995 3.27086 8.90713 3.34032 8.8373C3.40978 8.76747 3.49232 8.712 3.58321 8.67406C3.6741 8.63613 3.77158 8.61647 3.87007 8.61621C4.06864 8.61621 4.2591 8.69495 4.39969 8.83517C4.54029 8.97539 4.61954 9.16565 4.62007 9.36421L4.63806 14.6842C4.63859 14.7827 4.61968 14.8804 4.5824 14.9716C4.54512 15.0628 4.49022 15.1458 4.42082 15.2157C4.35143 15.2857 4.26892 15.3412 4.17801 15.3792C4.08711 15.4173 3.9896 15.4369 3.89107 15.4372H3.89008Z" fill="black"/>
<path d="M21.8715 15.3796C21.6729 15.3796 21.4825 15.3009 21.3419 15.1607C21.2013 15.0204 21.122 14.8302 21.1215 14.6316L21.1045 9.31062C21.104 9.11161 21.1824 8.92053 21.3227 8.77934C21.4629 8.63816 21.6535 8.55841 21.8525 8.55762C22.0511 8.55762 22.2415 8.63635 22.3821 8.77657C22.5227 8.91679 22.602 9.10705 22.6025 9.30561L22.6195 14.6276C22.6199 14.7261 22.6009 14.8236 22.5635 14.9147C22.5262 15.0058 22.4713 15.0886 22.4019 15.1585C22.3325 15.2283 22.25 15.2838 22.1592 15.3217C22.0684 15.3597 21.9709 15.3794 21.8725 15.3796H21.8715Z" fill="black"/>
<path d="M10.4793 21.5297C9.37769 21.5297 8.32104 21.093 7.54088 20.3153C6.76073 19.5376 6.32071 18.4823 6.31727 17.3807L6.28028 6.6637C6.27841 5.5599 6.71415 4.50037 7.49203 3.71724C8.2699 2.93411 9.32648 2.49126 10.4303 2.4857L15.2513 2.4707H15.2663C16.3672 2.47228 17.4228 2.90936 18.2026 3.68652C18.9823 4.46368 19.423 5.51779 19.4283 6.61871L19.4653 17.3357C19.469 18.44 19.034 19.5006 18.256 20.2842C17.478 21.0679 16.4206 21.5105 15.3163 21.5147L10.4953 21.5297H10.4793ZM15.2663 3.9707H15.2563L10.4363 3.9857C9.7298 3.98914 9.05351 4.27255 8.55564 4.77379C8.05777 5.27503 7.77895 5.95322 7.78028 6.65971L7.81727 17.3757C7.81912 18.0806 8.10058 18.7559 8.59984 19.2535C9.09911 19.7511 9.7754 20.0302 10.4803 20.0297H10.4893L15.3113 20.0147C16.0174 20.0113 16.6933 19.7279 17.1908 19.2269C17.6884 18.7258 17.9669 18.0478 17.9653 17.3417L17.9283 6.6237C17.9248 5.91958 17.643 5.24542 17.1443 4.74837C16.6455 4.25132 15.9704 3.97175 15.2663 3.9707Z" fill="black"/>
<path d="M12.8896 18.123C13.4419 18.123 13.8896 17.6753 13.8896 17.123C13.8896 16.5708 13.4419 16.123 12.8896 16.123C12.3374 16.123 11.8896 16.5708 11.8896 17.123C11.8896 17.6753 12.3374 18.123 12.8896 18.123Z" fill="black"/>
</svg>