<svg width="25" height="24" viewBox="0 0 25 24" fill="none" xmlns="http://www.w3.org/2000/svg">
<path opacity="0.4" fill-rule="evenodd" clip-rule="evenodd" d="M19.6046 15.1219C19.3716 14.8989 19.1176 14.6579 18.8496 14.3889C17.6076 13.1509 16.5366 13.5709 15.6746 13.9079C14.6566 14.3099 13.6916 14.6849 11.9356 12.9299C10.1786 11.1749 10.5546 10.2109 10.9536 9.18993C11.2916 8.32693 11.7106 7.25293 10.4686 6.00993C10.1986 5.73893 9.95456 5.48293 9.73056 5.24793C8.82256 4.29293 8.16656 3.60293 7.23756 3.59293C6.48156 3.56393 5.59756 4.08793 4.34756 5.33993C4.33356 5.35293 4.27156 5.41593 4.25956 5.42993C3.98256 5.70093 3.24656 6.42193 3.23956 7.82693C3.22756 10.0159 4.99056 12.8949 8.47956 16.3869C11.9586 19.8619 14.8316 21.6239 17.0176 21.6239H17.0416C18.4466 21.6149 19.1666 20.8799 19.4376 20.6019L19.5256 20.5169C20.7726 19.2689 21.2776 18.4339 21.2686 17.6289C21.2566 16.6979 20.5636 16.0369 19.6046 15.1219Z" fill="black"/>
<path fill-rule="evenodd" clip-rule="evenodd" d="M20.1681 5.81582C19.8391 6.85982 18.5541 7.86282 17.7841 8.35782C17.0181 7.86682 15.7401 6.87082 15.3991 5.81282C15.2711 5.41182 15.2791 4.98082 15.4221 4.62982C15.5201 4.38982 15.7291 4.07582 16.1661 3.93582C16.5681 3.80982 17.0031 3.88182 17.3321 4.12882C17.5981 4.33082 17.9631 4.33382 18.2311 4.13382C18.5671 3.88582 19.0011 3.81082 19.3971 3.93582C19.8371 4.07582 20.0461 4.39082 20.1451 4.63082C20.2881 4.98182 20.2971 5.41282 20.1681 5.81582ZM21.5331 4.06282C21.2231 3.30582 20.6261 2.75282 19.8521 2.50582C19.1681 2.28982 18.4281 2.34782 17.7881 2.65782C17.1501 2.34482 16.4071 2.28782 15.7111 2.50582C14.9381 2.75282 14.3421 3.30582 14.0331 4.06382C13.7551 4.74482 13.7331 5.52782 13.9701 6.26982L13.9711 6.27082C14.6411 8.35282 17.3131 9.82882 17.4261 9.88982C17.5381 9.95182 17.6611 9.98182 17.7851 9.98182C17.9091 9.98182 18.0331 9.95082 18.1461 9.88882C18.2601 9.82682 20.9491 8.32982 21.5981 6.26982C21.8351 5.52782 21.8121 4.74482 21.5331 4.06282Z" fill="black"/>
</svg>