<svg width="25" height="24" viewBox="0 0 25 24" fill="none" xmlns="http://www.w3.org/2000/svg">
<path d="M17.2441 21.7589C14.8891 21.7589 11.823 19.8879 8.13305 16.1989C4.43305 12.4989 2.55705 9.42094 2.56905 7.06094C2.55915 6.55966 2.65563 6.06198 2.85213 5.60071C3.04864 5.13945 3.34071 4.72508 3.70907 4.38494C3.72707 4.36394 3.77806 4.31294 3.79806 4.29394C5.15506 2.93594 6.08706 2.39394 6.99206 2.39394C8.06206 2.40794 8.81507 3.20094 9.77007 4.20394C10.0031 4.44994 10.257 4.71594 10.538 4.99794C11.0255 5.43995 11.3469 6.0356 11.4486 6.68572C11.5503 7.33583 11.4262 8.00117 11.0971 8.57094C10.6891 9.61394 10.3371 10.5139 12.0761 12.2529C13.8151 13.9919 14.7141 13.6379 15.7571 13.2299C16.3262 12.9 16.9911 12.7751 17.6412 12.8761C18.2912 12.9771 18.8869 13.2979 19.3291 13.7849C19.6071 14.0639 19.8711 14.3149 20.1141 14.5459C21.1221 15.5049 21.9141 16.2619 21.9321 17.3339C21.9421 18.2449 21.395 19.1699 20.038 20.5249L19.9461 20.6139C19.6062 20.9828 19.1919 21.2754 18.7306 21.4722C18.2693 21.6691 17.7715 21.7658 17.2701 21.7559L17.2441 21.7589ZM4.86406 5.34994C4.86406 5.34994 4.81805 5.39894 4.75805 5.45794C4.53173 5.65923 4.35264 5.90798 4.23354 6.18646C4.11444 6.46493 4.05828 6.76626 4.06905 7.06894C4.06205 8.40594 4.94504 10.8899 9.19304 15.1379C13.422 19.3659 15.9031 20.2589 17.2431 20.2589H17.2611C17.564 20.2696 17.8655 20.2133 18.1441 20.094C18.4228 19.9748 18.6717 19.7955 18.8731 19.5689C18.9257 19.5138 18.9811 19.4614 19.0391 19.4119C19.9611 18.4839 20.4391 17.7929 20.4321 17.3559C20.4251 16.9189 19.8611 16.3789 19.0801 15.6359C18.8291 15.3969 18.5571 15.1359 18.2691 14.8489C17.5581 14.1379 17.164 14.2909 16.305 14.6289C15.098 15.1019 13.4481 15.7479 11.0161 13.3169C8.58407 10.8859 9.22906 9.23394 9.70006 8.02794C10.0361 7.16794 10.19 6.77494 9.47805 6.06194C9.18705 5.77094 8.92407 5.49494 8.68307 5.23994C7.94407 4.46394 7.41005 3.90294 6.97405 3.89694H6.96605C6.52805 3.89694 5.83905 4.37394 4.85805 5.35394L4.86406 5.34994ZM21.0861 8.84294C20.9875 8.84318 20.89 8.82386 20.799 8.7861C20.708 8.74833 20.6254 8.69287 20.5561 8.62294L18.5441 6.60894L16.5321 8.61994C16.3899 8.75242 16.2018 8.82455 16.0075 8.82112C15.8132 8.81769 15.6279 8.73898 15.4904 8.60156C15.353 8.46415 15.2743 8.27877 15.2709 8.08447C15.2675 7.89016 15.3396 7.70212 15.4721 7.55994L17.4831 5.54794L15.473 3.53594C15.3406 3.39377 15.2684 3.20572 15.2719 3.01142C15.2753 2.81712 15.354 2.63173 15.4914 2.49432C15.6289 2.35691 15.8142 2.2782 16.0085 2.27477C16.2028 2.27134 16.3909 2.34346 16.5331 2.47594L18.5441 4.48694L20.551 2.47894C20.6197 2.40526 20.7025 2.34615 20.7945 2.30516C20.8865 2.26417 20.9858 2.24213 21.0865 2.24035C21.1872 2.23857 21.2873 2.2571 21.3807 2.29482C21.4741 2.33254 21.5589 2.38869 21.6301 2.4599C21.7013 2.53112 21.7575 2.61596 21.7952 2.70935C21.8329 2.80273 21.8514 2.90276 21.8497 3.00347C21.8479 3.10417 21.8258 3.20348 21.7848 3.29548C21.7438 3.38748 21.6847 3.47028 21.611 3.53894L19.6001 5.55094L21.611 7.56294C21.7158 7.66783 21.7871 7.80141 21.816 7.94681C21.8449 8.09221 21.83 8.2429 21.7733 8.37987C21.7166 8.51683 21.6206 8.63392 21.4974 8.71634C21.3742 8.79876 21.2293 8.84281 21.081 8.84294H21.0861Z" fill="black"/>
</svg>