<svg width="24" height="24" viewBox="0 0 24 24" fill="none" xmlns="http://www.w3.org/2000/svg">
<path d="M11.7438 3H8.92903C6.93055 3 5.31055 4.62097 5.31055 6.61849L5.31152 17.3825C5.31152 19.38 6.93152 21 8.93001 21H14.4448C16.4433 21 18.0633 19.38 18.0623 17.3815V12.0185" stroke="black" stroke-width="1.5" stroke-linecap="round" stroke-linejoin="round"/>
<path d="M14.2715 5.47461V7.0732" stroke="black" stroke-width="1.5" stroke-linecap="round" stroke-linejoin="round"/>
<path d="M18.6895 5.47461V7.0732" stroke="black" stroke-width="1.5" stroke-linecap="round" stroke-linejoin="round"/>
<path d="M16.4805 3.99414V8.55252" stroke="black" stroke-width="1.5" stroke-linecap="round" stroke-linejoin="round"/>
<path d="M11.6273 17.2646V17.2878M11.6862 17.0293C11.7434 17.0295 11.7993 17.0467 11.8468 17.0787C11.8943 17.1106 11.9312 17.1559 11.953 17.2088C11.9747 17.2618 11.9803 17.32 11.969 17.3761C11.9577 17.4322 11.93 17.4837 11.8895 17.5241C11.8489 17.5645 11.7973 17.5919 11.7412 17.603C11.6851 17.6141 11.6269 17.6083 11.574 17.5863C11.5212 17.5644 11.476 17.5273 11.4442 17.4797C11.4125 17.4321 11.3955 17.3761 11.3955 17.3189C11.3953 17.2807 11.4027 17.2429 11.4172 17.2076C11.4318 17.1723 11.4532 17.1402 11.4803 17.1133C11.5073 17.0863 11.5395 17.065 11.5748 17.0506C11.6102 17.0362 11.648 17.029 11.6862 17.0293Z" stroke="black" stroke-width="1.5" stroke-linecap="round" stroke-linejoin="round"/>
</svg>