<svg width="25" height="24" viewBox="0 0 25 24" fill="none" xmlns="http://www.w3.org/2000/svg">
<path fill-rule="evenodd" clip-rule="evenodd" d="M3.14453 6.41612C3.14453 4.1153 5.00984 2.25 7.31065 2.25H16.0227C18.3232 2.25 20.1888 4.11405 20.1888 6.41514C20.1888 6.82936 19.853 7.16514 19.4388 7.16514C19.0246 7.16514 18.6888 6.82936 18.6888 6.41514C18.6888 4.94304 17.4953 3.75 16.0227 3.75H7.31065C5.83829 3.75 4.64457 4.94369 4.64453 6.41604C4.64453 6.41607 4.64453 6.41602 4.64453 6.41604L4.6455 16.5778C4.6455 18.0491 5.8391 19.243 7.31162 19.243H9.54557C9.95979 19.243 10.2956 19.5788 10.2956 19.993C10.2956 20.4072 9.95979 20.743 9.54557 20.743H7.31162C5.01097 20.743 3.14554 18.8779 3.1455 16.5779C3.1455 16.5779 3.1455 16.578 3.1455 16.5779L3.14453 6.41612Z" fill="black"/>
<path fill-rule="evenodd" clip-rule="evenodd" d="M9.70898 6.10156C9.70898 5.68735 10.0448 5.35156 10.459 5.35156H12.1364C12.5506 5.35156 12.8864 5.68735 12.8864 6.10156C12.8864 6.51578 12.5506 6.85156 12.1364 6.85156H10.459C10.0448 6.85156 9.70898 6.51578 9.70898 6.10156Z" fill="black"/>
<path fill-rule="evenodd" clip-rule="evenodd" d="M11.3262 11.3807C11.3262 9.62965 12.7449 8.21094 14.496 8.21094H18.1845C19.9356 8.21094 21.3542 9.62959 21.3543 11.3806C21.3543 11.3807 21.3543 11.3806 21.3543 11.3806L21.3553 18.5797C21.3553 20.3308 19.9366 21.7496 18.1855 21.7496H14.4969C12.7462 21.7496 11.3262 20.3312 11.3262 18.5798V11.3807ZM14.496 9.71094C13.5733 9.71094 12.8262 10.4581 12.8262 11.3807V18.5798C12.8262 19.502 13.5739 20.2496 14.4969 20.2496H18.1855C19.1081 20.2496 19.8552 19.5025 19.8553 18.5799C19.8553 18.5798 19.8553 18.5799 19.8553 18.5799L19.8543 11.3808C19.8543 10.4582 19.1072 9.71094 18.1845 9.71094H14.496Z" fill="black"/>
<path fill-rule="evenodd" clip-rule="evenodd" d="M15.5898 18.1437C15.5898 17.7253 15.9293 17.3877 16.3459 17.3877C16.7625 17.3877 17.102 17.7253 17.102 18.1437C17.102 18.5613 16.7635 18.8998 16.3459 18.8998C15.9283 18.8998 15.5898 18.5613 15.5898 18.1437Z" fill="black"/>
</svg>