<svg width="25" height="24" viewBox="0 0 25 24" fill="none" xmlns="http://www.w3.org/2000/svg">
<path fill-rule="evenodd" clip-rule="evenodd" d="M15.8979 18.5926L19.0055 8.78503C19.5523 7.05995 18.5969 5.21812 16.8718 4.67131L12.4604 3.27315C10.7343 2.72635 8.89247 3.6818 8.34566 5.40688L5.238 15.2144C4.69119 16.9395 5.64665 18.7813 7.37172 19.3281L11.7832 20.7263C13.5092 21.2741 15.351 20.3176 15.8979 18.5926Z" stroke="black" stroke-width="1.5" stroke-linecap="round" stroke-linejoin="round"/>
<path opacity="0.4" d="M4.66422 6.95801L3.12109 11.8277" stroke="black" stroke-width="1.5" stroke-linecap="round" stroke-linejoin="round"/>
<path opacity="0.4" d="M21.1213 12.1738L19.5781 17.0435" stroke="black" stroke-width="1.5" stroke-linecap="round" stroke-linejoin="round"/>
<path d="M10.6447 16.7827V16.7346M10.6448 16.4814C10.5065 16.4814 10.3945 16.5934 10.3945 16.7312C10.3945 16.8694 10.5065 16.9814 10.6448 16.9814C10.783 16.9814 10.895 16.8694 10.895 16.7312C10.895 16.5934 10.783 16.4814 10.6448 16.4814Z" stroke="black" stroke-width="1.5" stroke-linecap="round" stroke-linejoin="round"/>
</svg>