<svg width="25" height="24" viewBox="0 0 25 24" fill="none" xmlns="http://www.w3.org/2000/svg">
<path opacity="0.4" fill-rule="evenodd" clip-rule="evenodd" d="M20.0316 14.7653C19.7866 14.5333 19.5216 14.2813 19.2416 14.0023C17.9486 12.7103 16.8776 13.1293 15.9316 13.5003C14.8526 13.9243 13.8316 14.3223 11.9726 12.4623C10.1136 10.6023 10.5126 9.5813 10.9346 8.5013C11.3046 7.5553 11.7246 6.4843 10.4316 5.1923C10.1496 4.9093 9.89455 4.6413 9.65955 4.3943C8.70755 3.3913 8.02055 2.6663 7.05355 2.6553C7.04555 2.6543 7.03755 2.6543 7.02955 2.6543C6.19955 2.6543 5.32855 3.1863 4.03255 4.4833C4.01955 4.4963 3.95155 4.5643 3.93955 4.5783C3.65055 4.8633 2.88155 5.6183 2.87455 7.0863C2.86455 9.3813 4.71555 12.4003 8.37755 16.0593C12.0276 19.7063 15.0396 21.5563 17.3306 21.5553H17.3506C18.8186 21.5483 19.5726 20.7813 19.8556 20.4923L19.9526 20.3993C21.2596 19.0883 21.7876 18.2123 21.7756 17.3743C21.7616 16.4073 21.0366 15.7183 20.0316 14.7653Z" fill="black"/>
<path fill-rule="evenodd" clip-rule="evenodd" d="M18.8516 6.57636H17.6066L17.8116 5.34736H19.0566L18.8516 6.57636ZM21.3756 3.84736H20.8266L20.9146 3.31936C20.9826 2.91136 20.7066 2.52436 20.2976 2.45636C19.8886 2.38536 19.5026 2.66436 19.4346 3.07336L19.3066 3.84736H18.0616L18.1496 3.31936C18.2186 2.91136 17.9416 2.52436 17.5336 2.45636C17.1216 2.38536 16.7386 2.66436 16.6706 3.07336L16.5416 3.84736H15.7696C15.3556 3.84736 15.0196 4.18236 15.0196 4.59736C15.0196 5.01136 15.3556 5.34736 15.7696 5.34736H16.2916L16.0856 6.57636H15.2886C14.8746 6.57636 14.5386 6.91236 14.5386 7.32636C14.5386 7.74036 14.8746 8.07636 15.2886 8.07636H15.8356L15.7476 8.60336C15.6796 9.01236 15.9556 9.39836 16.3646 9.46736C16.4066 9.47336 16.4476 9.47636 16.4886 9.47636C16.8486 9.47636 17.1666 9.21736 17.2276 8.84936L17.3566 8.07636H18.6016L18.5136 8.60336C18.4466 9.01236 18.7216 9.39836 19.1306 9.46736C19.1726 9.47336 19.2136 9.47636 19.2546 9.47636C19.6146 9.47636 19.9326 9.21736 19.9936 8.84936L20.1226 8.07636H20.8946C21.3086 8.07636 21.6446 7.74036 21.6446 7.32636C21.6446 6.91236 21.3086 6.57636 20.8946 6.57636H20.3726L20.5766 5.34736H21.3756C21.7896 5.34736 22.1256 5.01136 22.1256 4.59736C22.1256 4.18236 21.7896 3.84736 21.3756 3.84736Z" fill="black"/>
</svg>