<svg width="24" height="24" viewBox="0 0 24 24" fill="none" xmlns="http://www.w3.org/2000/svg">
<path d="M15.695 7.07853C15.695 7.49253 16.031 7.82853 16.445 7.82853C16.859 7.82853 17.195 7.49253 17.195 7.07853V2.51953C17.195 2.10553 16.859 1.76953 16.445 1.76953C16.031 1.76953 15.695 2.10553 15.695 2.51953V7.07853Z" fill="black"/>
<path fill-rule="evenodd" clip-rule="evenodd" d="M10.9761 3.71096C10.9761 7.29096 13.8761 10.191 17.4561 10.191C17.9284 10.191 18.3461 10.5421 18.3461 11.0144V18.121C18.3461 19.221 17.9161 20.251 17.1361 21.031C16.3661 21.811 15.3261 22.231 14.2261 22.231H8.71607C6.44607 22.231 4.59607 20.391 4.59607 18.121V7.35096C4.59607 5.08096 6.43607 3.23096 8.71607 3.23096H10.5156C10.776 3.23096 10.9761 3.45058 10.9761 3.71096ZM10.3961 18.131C10.3961 18.761 10.9061 19.271 11.5361 19.271C12.1661 19.271 12.6861 18.761 12.6861 18.131C12.6861 17.491 12.1661 16.981 11.5361 16.981C10.9061 16.981 10.3961 17.491 10.3961 18.131Z" fill="black"/>
<path d="M13.486 5.59851C13.486 6.01251 13.822 6.34851 14.236 6.34851C14.65 6.34851 14.986 6.01251 14.986 5.59851V3.99951C14.986 3.58551 14.65 3.24951 14.236 3.24951C13.822 3.24951 13.486 3.58551 13.486 3.99951V5.59851Z" fill="black"/>
<path d="M18.654 6.34849C18.24 6.34849 17.904 6.01249 17.904 5.59849V4.00049C17.904 3.58649 18.24 3.25049 18.654 3.25049C19.068 3.25049 19.404 3.58649 19.404 4.00049V5.59849C19.404 6.01249 19.068 6.34849 18.654 6.34849Z" fill="black"/>
</svg>