<svg width="25" height="24" viewBox="0 0 25 24" fill="none" xmlns="http://www.w3.org/2000/svg">
<path opacity="0.4" fill-rule="evenodd" clip-rule="evenodd" d="M19.9496 14.7453C19.7056 14.5123 19.4406 14.2603 19.1596 13.9783C17.8726 12.6963 16.8066 13.1153 15.8646 13.4843C14.7916 13.9033 13.7786 14.3033 11.9296 12.4593C10.0816 10.6093 10.4776 9.59329 10.8976 8.51729C11.2656 7.57429 11.6826 6.50629 10.3956 5.21929C10.1116 4.93529 9.85662 4.66729 9.62261 4.42029C8.67761 3.42729 7.99362 2.70929 7.03262 2.69729C6.17562 2.69329 5.32862 3.21529 4.02662 4.51829C4.01362 4.53129 3.94962 4.59529 3.93862 4.60829C3.65062 4.88929 2.88462 5.63429 2.87462 7.09629C2.85862 9.38129 4.70062 12.3893 8.34862 16.0363C11.9806 19.6673 14.9776 21.5083 17.2596 21.5073H17.2796C18.7406 21.5003 19.4896 20.7363 19.7716 20.4483L19.8676 20.3563C21.1666 19.0563 21.6926 18.1853 21.6816 17.3503C21.6706 16.3863 20.9486 15.6973 19.9496 14.7453Z" fill="black"/>
<path fill-rule="evenodd" clip-rule="evenodd" d="M18.7251 9.64219C19.1391 9.64219 19.4751 9.30619 19.4751 8.89219V3.24219C19.4751 2.82819 19.1391 2.49219 18.7251 2.49219C18.3111 2.49219 17.9751 2.82819 17.9751 3.24219V8.89219C17.9751 9.30619 18.3111 9.64219 18.7251 9.64219Z" fill="black"/>
<path fill-rule="evenodd" clip-rule="evenodd" d="M21.3755 4.39209C20.9615 4.39209 20.6255 4.72809 20.6255 5.14209V7.10209C20.6255 7.51609 20.9615 7.85209 21.3755 7.85209C21.7895 7.85209 22.1255 7.51609 22.1255 7.10209V5.14209C22.1255 4.72809 21.7895 4.39209 21.3755 4.39209Z" fill="black"/>
<path fill-rule="evenodd" clip-rule="evenodd" d="M16.0757 7.85209C16.4897 7.85209 16.8257 7.51609 16.8257 7.10209V5.14209C16.8257 4.72809 16.4897 4.39209 16.0757 4.39209C15.6617 4.39209 15.3257 4.72809 15.3257 5.14209V7.10209C15.3257 7.51609 15.6617 7.85209 16.0757 7.85209Z" fill="black"/>
</svg>