<svg width="25" height="24" viewBox="0 0 25 24" fill="none" xmlns="http://www.w3.org/2000/svg">
<path fill-rule="evenodd" clip-rule="evenodd" d="M10.2941 18.28C9.73406 18.28 9.29406 17.84 9.29406 17.28C9.29406 16.73 9.73406 16.28 10.2941 16.28C10.8441 16.28 11.2941 16.73 11.2941 17.28C11.2941 17.84 10.8441 18.28 10.2941 18.28ZM16.0841 17.12C15.6141 17.12 15.1541 16.96 14.7941 16.65C14.4641 16.37 11.5841 13.86 11.4641 10.82C11.4141 9.65 11.7641 8.5 12.4441 7.6C13.2441 6.56 14.3841 5.96 15.6841 5.9C16.0636 5.87628 16.4493 5.90882 16.8265 5.99268C16.9677 6.02407 17.1026 5.90827 17.0734 5.76657C16.6887 3.89684 15.0376 2.5 13.0441 2.5H7.53406C6.44406 2.5 5.41406 2.93 4.61406 3.71C3.84406 4.48 3.41406 5.51 3.41406 6.61V17.38C3.41406 19.65 5.26406 21.5 7.53406 21.5H13.0441C15.3241 21.5 17.1641 19.65 17.1641 17.38V17.1912C17.1641 17.0595 17.039 16.964 16.911 16.995C16.6755 17.0522 16.5094 17.0825 16.4341 17.09C16.3141 17.11 16.2041 17.12 16.0841 17.12Z" fill="black"/>
<path fill-rule="evenodd" clip-rule="evenodd" d="M20.2602 8.60567C19.8792 8.35767 19.4442 8.20767 18.9662 8.15767C18.5982 8.11667 18.2382 8.20867 17.9172 8.32067C17.6822 8.04867 17.4272 7.80967 17.1022 7.66067C16.6722 7.46367 16.2032 7.36667 15.7552 7.39567C14.9102 7.43467 14.1592 7.83067 13.6422 8.50967C13.1672 9.13367 12.9272 9.93567 12.9662 10.7637C13.0612 13.1967 15.6532 15.4137 15.7632 15.5057C15.8542 15.5837 15.9682 15.6247 16.0862 15.6247C16.1142 15.6247 16.1432 15.6217 16.1722 15.6167C16.3112 15.5917 19.6132 14.9967 20.9672 12.9277L20.9682 12.9257C21.8332 11.5887 21.8052 9.60767 20.2602 8.60567Z" fill="black"/>
</svg>