<svg width="25" height="24" viewBox="0 0 25 24" fill="none" xmlns="http://www.w3.org/2000/svg">
<path d="M10.5899 21.1199C9.53072 21.1199 8.51483 20.6999 7.76497 19.9519C7.01511 19.2039 6.59251 18.189 6.58986 17.1299L6.54985 6.9129C6.54735 6.38678 6.64867 5.86532 6.84801 5.37841C7.04734 4.8915 7.3408 4.4487 7.71153 4.07537C8.08226 3.70204 8.52299 3.40552 9.0085 3.20278C9.494 3.00005 10.0147 2.89508 10.5408 2.89391L15.1409 2.87891H15.1539C16.2134 2.87969 17.2295 3.29997 17.98 4.04786C18.7305 4.79575 19.1544 5.81038 19.1589 6.8699L19.1939 17.0859C19.1965 18.1477 18.7778 19.1671 18.0295 19.9205C17.2812 20.6738 16.2646 21.0994 15.2029 21.1039L10.6029 21.1199H10.5899ZM15.1499 4.37891H15.1429L10.5429 4.39391C10.2138 4.39456 9.88811 4.46017 9.58446 4.58698C9.2808 4.71378 9.00516 4.89929 8.77336 5.13285C8.54156 5.36642 8.35816 5.64345 8.23366 5.94805C8.10916 6.25266 8.04602 6.57885 8.04787 6.90791L8.08287 17.1239C8.08287 17.7869 8.34627 18.4228 8.81511 18.8917C9.28395 19.3605 9.91983 19.6239 10.5829 19.6239H10.5919L15.1859 19.6079C15.8504 19.606 16.487 19.3404 16.9558 18.8694C17.4246 18.3983 17.6872 17.7605 17.6859 17.0959L17.6499 6.8749C17.6467 6.2132 17.3822 5.57957 16.9139 5.11205C16.4456 4.64452 15.8116 4.38101 15.1499 4.37891Z" fill="black"/>
<path d="M4.1799 16.9452C4.04321 16.945 3.90918 16.9075 3.79224 16.8367C3.67529 16.766 3.57988 16.6646 3.5163 16.5436C3.45271 16.4226 3.42336 16.2865 3.4314 16.1501C3.43944 16.0136 3.48456 15.8819 3.56192 15.7692L4.0209 15.1032L3.25092 13.9732C3.1657 13.8484 3.12012 13.7008 3.12012 13.5497C3.12012 13.3986 3.1657 13.251 3.25092 13.1262L4.0249 11.9982L3.25491 10.8692C3.16948 10.7443 3.12378 10.5966 3.12378 10.4452C3.12378 10.2939 3.16948 10.1461 3.25491 10.0212L4.02792 8.89924L3.52792 8.16924C3.41574 8.00494 3.3734 7.8028 3.41025 7.60729C3.4471 7.41178 3.56009 7.23892 3.7244 7.12674C3.8887 7.01455 4.09084 6.97223 4.28635 7.00908C4.48185 7.04593 4.65472 7.15894 4.76691 7.32324L5.55591 8.47824C5.64121 8.60318 5.68683 8.75095 5.68683 8.90224C5.68683 9.05352 5.64121 9.20129 5.55591 9.32624L4.7829 10.4482L5.55292 11.5772C5.63813 11.702 5.68372 11.8496 5.68372 12.0007C5.68372 12.1518 5.63813 12.2994 5.55292 12.4242L4.7789 13.5532L5.54892 14.6842C5.63448 14.8091 5.68027 14.9569 5.68027 15.1082C5.68027 15.2596 5.63448 15.4074 5.54892 15.5322L4.79892 16.6212C4.72978 16.7214 4.63729 16.8033 4.52945 16.8597C4.4216 16.9162 4.30163 16.9455 4.1799 16.9452Z" fill="black"/>
<path d="M21.5642 16.9451C21.4426 16.9454 21.3228 16.916 21.2151 16.8596C21.1074 16.8031 21.0151 16.7213 20.9462 16.6211L20.1962 15.5371C20.1112 15.412 20.0657 15.2643 20.0657 15.1131C20.0657 14.9619 20.1112 14.8141 20.1962 14.6891L20.9672 13.5581L20.1922 12.4291C20.1071 12.3042 20.0616 12.1567 20.0616 12.0056C20.0616 11.8545 20.1071 11.7069 20.1922 11.5821L20.9612 10.4541L20.1892 9.33109C20.1035 9.2063 20.0576 9.05848 20.0576 8.90709C20.0576 8.75571 20.1035 8.60788 20.1892 8.48309L20.9772 7.32809C21.0315 7.24387 21.1021 7.17138 21.1848 7.1149C21.2676 7.05841 21.3608 7.01909 21.459 6.99924C21.5573 6.97939 21.6584 6.97942 21.7566 6.99933C21.8548 7.01923 21.948 7.05862 22.0308 7.11515C22.1135 7.17168 22.1841 7.24421 22.2383 7.32847C22.2925 7.41272 22.3293 7.50699 22.3465 7.6057C22.3637 7.7044 22.3609 7.80556 22.3384 7.90318C22.3158 8.00081 22.2739 8.09292 22.2152 8.17409L21.7152 8.90409L22.4872 10.0261C22.5727 10.1509 22.6185 10.2987 22.6185 10.4501C22.6185 10.6014 22.5727 10.7492 22.4872 10.8741L21.7172 12.0031L22.4912 13.1311C22.5764 13.2559 22.622 13.4035 22.622 13.5546C22.622 13.7057 22.5764 13.8533 22.4912 13.9781L21.7222 15.1081L22.1802 15.7741C22.2575 15.8867 22.3026 16.0183 22.3107 16.1547C22.3188 16.291 22.2895 16.427 22.226 16.548C22.1626 16.669 22.0673 16.7703 21.9505 16.8412C21.8337 16.912 21.6998 16.9497 21.5632 16.9501L21.5642 16.9451Z" fill="black"/>
<path d="M12.8877 17.8809C12.6899 17.8809 12.4966 17.8222 12.3321 17.7123C12.1677 17.6024 12.0395 17.4463 11.9638 17.2635C11.8881 17.0808 11.8683 16.8798 11.9069 16.6858C11.9455 16.4918 12.0407 16.3136 12.1806 16.1738C12.3204 16.0339 12.4986 15.9387 12.6926 15.9001C12.8866 15.8615 13.0876 15.8813 13.2704 15.957C13.4531 16.0327 13.6093 16.1608 13.7192 16.3253C13.829 16.4897 13.8877 16.6831 13.8877 16.8809C13.8877 17.1461 13.7823 17.4004 13.5948 17.588C13.4073 17.7755 13.1529 17.8809 12.8877 17.8809Z" fill="black"/>
</svg>