<svg width="25" height="24" viewBox="0 0 25 24" fill="none" xmlns="http://www.w3.org/2000/svg">
<path opacity="0.4" fill-rule="evenodd" clip-rule="evenodd" d="M21.967 17.4465C21.956 16.4775 21.231 15.7855 20.227 14.8275C19.98 14.5925 19.712 14.3365 19.428 14.0505C18.135 12.7615 17.061 13.1805 16.114 13.5525C15.031 13.9755 14.012 14.3805 12.147 12.5115C10.284 10.6515 10.684 9.63145 11.107 8.55045C11.477 7.60245 11.897 6.52845 10.603 5.23145C10.318 4.94645 10.061 4.67545 9.823 4.42645C8.872 3.42545 8.185 2.70145 7.218 2.68945C6.392 2.72145 5.503 3.21145 4.193 4.52145C4.179 4.53545 4.111 4.60345 4.099 4.61845C3.81 4.90345 3.04 5.65845 3.033 7.12845C3.023 9.42545 4.878 12.4515 8.546 16.1185C12.2 19.7735 15.216 21.6265 17.511 21.6265H17.542C19.014 21.6155 19.766 20.8405 20.049 20.5495L20.141 20.4595C21.447 19.1565 21.976 18.2835 21.967 17.4465Z" fill="black"/>
<path fill-rule="evenodd" clip-rule="evenodd" d="M16.8616 8.38525C16.4476 8.38525 16.1116 8.72125 16.1116 9.13525V9.19625C16.1116 9.61025 16.4476 9.91525 16.8616 9.91525C17.2756 9.91525 17.6116 9.54925 17.6116 9.13525C17.6116 8.72125 17.2756 8.38525 16.8616 8.38525Z" fill="black"/>
<path fill-rule="evenodd" clip-rule="evenodd" d="M16.8557 7.265C17.2697 7.265 17.6057 6.929 17.6057 6.515V3.125C17.6057 2.711 17.2697 2.375 16.8557 2.375C16.4417 2.375 16.1057 2.711 16.1057 3.125V6.515C16.1057 6.929 16.4417 7.265 16.8557 7.265Z" fill="black"/>
</svg>