<svg width="24" height="24" viewBox="0 0 24 24" fill="none" xmlns="http://www.w3.org/2000/svg">
<path fill-rule="evenodd" clip-rule="evenodd" d="M11.2073 13.1604C14.7825 16.7347 15.8454 12.3473 18.1219 14.6219C20.317 16.817 21.5783 17.2559 18.7984 20.0367C18.4494 20.3155 16.2365 23.6849 8.45918 15.9094C0.681848 8.13303 4.04654 5.91735 4.3263 5.57022C7.11368 2.78191 7.54596 4.05068 9.74106 6.24484C12.0166 8.5204 7.63205 9.58614 11.2073 13.1604Z" stroke="black" stroke-width="1.5" stroke-linecap="round" stroke-linejoin="round"/>
<path fill-rule="evenodd" clip-rule="evenodd" d="M14.3097 5.92037C13.9457 4.78165 14.3714 3.482 15.5654 3.0965C16.1941 2.89627 16.8809 3.01136 17.4096 3.40715C17.9382 3.0151 18.6222 2.89907 19.25 3.0965C20.4449 3.482 20.8734 4.78165 20.5095 5.92037C19.9415 7.72248 17.4096 9.11289 17.4096 9.11289C17.4096 9.11289 14.8963 7.744 14.3097 5.92037Z" stroke="black" stroke-width="1.5" stroke-linecap="round" stroke-linejoin="round"/>
</svg>