<svg width="25" height="24" viewBox="0 0 25 24" fill="none" xmlns="http://www.w3.org/2000/svg">
<path fill-rule="evenodd" clip-rule="evenodd" d="M18.4048 2.33008C18.819 2.33008 19.1548 2.66586 19.1548 3.08008V5.17484H21.25C21.6642 5.17484 22 5.51063 22 5.92484C22 6.33905 21.6642 6.67484 21.25 6.67484H19.1548V8.77003C19.1548 9.18424 18.819 9.52003 18.4048 9.52003C17.9906 9.52003 17.6548 9.18424 17.6548 8.77003V6.67484H15.5601C15.1458 6.67484 14.8101 6.33905 14.8101 5.92484C14.8101 5.51063 15.1458 5.17484 15.5601 5.17484H17.6548V3.08008C17.6548 2.66586 17.9906 2.33008 18.4048 2.33008ZM4.79879 5.39555C4.7581 5.44116 4.71544 5.48265 4.69264 5.50483C4.68995 5.50744 4.68754 5.50978 4.68545 5.51183L4.68243 5.51477C4.64278 5.55353 4.60485 5.59059 4.56315 5.6345C4.47968 5.72239 4.38642 5.83258 4.29994 5.97279C4.13323 6.24305 3.96613 6.66496 4.00595 7.31582C4.08836 8.66264 5.06679 11.0906 9.07467 15.0976C13.0826 19.1045 15.5102 20.0814 16.8564 20.1628C17.507 20.2022 17.9287 20.0348 18.199 19.8679C18.3393 19.7812 18.4496 19.6878 18.5377 19.6042C18.5812 19.5629 18.6179 19.5253 18.6564 19.486L18.6608 19.4815C18.6628 19.4795 18.6651 19.4771 18.6677 19.4745C18.6898 19.4517 18.7313 19.4091 18.7772 19.3683C19.4722 18.671 19.8589 18.1734 20.0502 17.799C20.2269 17.4532 20.2136 17.263 20.1636 17.1118C20.0953 16.9057 19.9157 16.6485 19.5268 16.2498C19.3392 16.0574 19.1229 15.8512 18.8721 15.6126L18.8582 15.5994C18.6142 15.3672 18.3425 15.1088 18.0553 14.8216C17.5892 14.3559 17.2818 14.3089 17.0431 14.3268C16.8914 14.3381 16.7203 14.3813 16.501 14.4585C16.392 14.4969 16.2796 14.5405 16.1541 14.5897C16.1417 14.5946 16.129 14.5995 16.1163 14.6045C16.0043 14.6484 15.882 14.6964 15.7571 14.7422C15.1923 14.9494 14.4754 15.1516 13.6112 14.9797C12.7542 14.8093 11.8619 14.2945 10.8698 13.3027C9.87771 12.3108 9.3626 11.4187 9.19168 10.5617C9.01933 9.69753 9.22082 8.98045 9.42742 8.41537C9.47308 8.29046 9.52094 8.1681 9.56475 8.0561C9.56976 8.04329 9.57471 8.03062 9.57961 8.01809C9.62867 7.89253 9.67215 7.78006 9.7104 7.67103C9.7874 7.45156 9.83048 7.28028 9.84171 7.12837C9.8594 6.88917 9.81198 6.58134 9.34602 6.11519C9.05511 5.82452 8.7939 5.54974 8.55953 5.3032L8.55501 5.29844C8.31636 5.0474 8.11039 4.83093 7.91811 4.64303C7.51953 4.25353 7.26299 4.07368 7.05734 4.00532C6.90716 3.95541 6.71766 3.94175 6.37162 4.11874C5.99679 4.31046 5.49807 4.69822 4.79879 5.39555ZM9.64216 4.26496C9.87902 4.51412 10.1292 4.77731 10.4066 5.05442L10.4069 5.05475C11.1233 5.77142 11.3931 6.48913 11.3376 7.23898C11.3123 7.5816 11.2212 7.89572 11.1258 8.16763C11.0779 8.30429 11.0256 8.43899 10.9767 8.564C10.9718 8.5766 10.9669 8.5891 10.9621 8.60152C10.9174 8.71565 10.8758 8.82219 10.8362 8.93044C10.6637 9.40221 10.5706 9.80625 10.6627 10.2683C10.7563 10.7375 11.0648 11.3766 11.9303 12.2419C12.7958 13.1072 13.4348 13.4153 13.9037 13.5085C14.3654 13.6003 14.7691 13.5069 15.2406 13.334C15.3488 13.2943 15.4553 13.2525 15.5694 13.2077C15.5818 13.2029 15.5942 13.198 15.6068 13.1931C15.7317 13.1441 15.8663 13.0917 16.0029 13.0436C16.2746 12.948 16.5886 12.8566 16.9312 12.8309C17.681 12.7748 18.3988 13.0443 19.1155 13.7605L19.1158 13.7607C19.3898 14.0347 19.65 14.2823 19.8965 14.5168L19.906 14.5258C20.1521 14.76 20.3899 14.9862 20.6008 15.2025C21.009 15.6212 21.4041 16.0863 21.5876 16.6404C21.7893 17.2496 21.7046 17.8578 21.3859 18.4815C21.0835 19.0732 20.5561 19.7105 19.8188 20.448C19.8039 20.4629 19.7884 20.4772 19.7724 20.4907C19.7698 20.4934 19.7583 20.5046 19.7328 20.5307L19.7258 20.5379C19.6885 20.576 19.6346 20.631 19.5706 20.6919C19.4319 20.8236 19.2399 20.988 18.9873 21.1441C18.4719 21.4624 17.7457 21.7194 16.7658 21.6601C14.8511 21.5442 12.0881 20.2313 8.01413 16.1583C3.94019 12.0854 2.62591 9.32221 2.50875 7.40743C2.44879 6.42748 2.70519 5.70097 3.02327 5.1853C3.17918 4.93255 3.34364 4.7404 3.47545 4.60159C3.5369 4.53688 3.59238 4.48268 3.63075 4.4452C3.6329 4.4431 3.635 4.44104 3.63705 4.43904C3.66405 4.41266 3.67529 4.40116 3.67767 4.3989C3.69094 4.38324 3.70486 4.36813 3.71939 4.35361C4.45851 3.61448 5.09658 3.08608 5.68856 2.78329C6.31266 2.46407 6.92113 2.37937 7.53045 2.58189C8.08429 2.76597 8.54877 3.16203 8.96648 3.57022C9.18111 3.77996 9.40574 4.01626 9.63816 4.26074L9.64216 4.26496Z" fill="black"/>
</svg>