<svg width="25" height="24" viewBox="0 0 25 24" fill="none" xmlns="http://www.w3.org/2000/svg">
<path d="M17.2629 21.7445C14.8979 21.7445 11.8219 19.8665 8.11794 16.1625C4.39794 12.4455 2.51794 9.36245 2.53194 6.99145C2.52203 6.48848 2.61887 5.98911 2.81606 5.52629C3.01325 5.06348 3.3063 4.64772 3.67592 4.30645C3.70403 4.27432 3.73372 4.24361 3.76491 4.21445C5.12891 2.85045 6.06491 2.31445 6.97091 2.31445C8.04291 2.32845 8.79894 3.12345 9.75594 4.13045C9.98994 4.37745 10.2449 4.64545 10.5279 4.93045C11.0169 5.3738 11.3393 5.97127 11.4414 6.62338C11.5434 7.27549 11.4191 7.94289 11.0889 8.51445C10.6789 9.56245 10.3249 10.4675 12.0719 12.2145C13.8189 13.9615 14.7269 13.6065 15.7719 13.1955C16.3431 12.8646 17.0104 12.7395 17.6626 12.8411C18.3147 12.9426 18.9124 13.2646 19.3559 13.7535C19.6369 14.0335 19.9009 14.2865 20.1459 14.5185C21.1559 15.4795 21.9539 16.2395 21.9679 17.3185C21.9799 18.2325 21.4289 19.1595 20.0679 20.5185L19.9759 20.6085C19.6342 20.9781 19.2181 21.2712 18.755 21.4686C18.2919 21.6659 17.7922 21.763 17.2889 21.7535L17.2629 21.7445ZM4.82991 5.27045C4.82991 5.27045 4.78494 5.31945 4.72994 5.37845C4.50347 5.58198 4.32412 5.83246 4.20443 6.11243C4.08474 6.3924 4.0276 6.69512 4.03695 6.99945C4.02995 8.34145 4.91692 10.8375 9.18392 15.0995C13.4299 19.3455 15.9209 20.2415 17.2679 20.2415H17.2839C17.5885 20.2526 17.8918 20.1962 18.172 20.0764C18.4523 19.9566 18.7025 19.7763 18.9049 19.5485C18.9576 19.4927 19.0133 19.4399 19.0719 19.3905C19.9989 18.4575 20.4769 17.7635 20.4719 17.3245C20.4669 16.8855 19.8999 16.3425 19.1149 15.5955C18.8629 15.3555 18.5889 15.0955 18.2999 14.8055C17.5829 14.0895 17.1899 14.2435 16.3229 14.5835C15.1139 15.0585 13.4599 15.7075 11.0229 13.2665C8.58191 10.8255 9.22992 9.16645 9.70192 7.95945C10.0399 7.09445 10.1959 6.69945 9.4789 5.98245C9.1859 5.68945 8.92191 5.41245 8.67891 5.15745C7.93691 4.37745 7.4019 3.81345 6.9609 3.80745H6.9529C6.5139 3.80745 5.82092 4.28645 4.83492 5.27145L4.82991 5.27045Z" fill="black"/>
<path d="M16.6094 9.78486C16.5125 9.7882 16.4159 9.77209 16.3254 9.73747C16.2348 9.70285 16.1522 9.65042 16.0823 9.5833C16.0124 9.51617 15.9566 9.4357 15.9183 9.34666C15.88 9.25761 15.86 9.16179 15.8594 9.06486V9.00586C15.8594 8.80695 15.9384 8.61618 16.079 8.47553C16.2197 8.33488 16.4105 8.25586 16.6094 8.25586C16.8083 8.25586 16.9991 8.33488 17.1397 8.47553C17.2804 8.61618 17.3594 8.80695 17.3594 9.00586C17.3603 9.20776 17.2824 9.40206 17.1424 9.54751C17.0024 9.69295 16.8112 9.7781 16.6094 9.78486Z" fill="black"/>
<path d="M16.6035 7.13209C16.4046 7.13209 16.2138 7.05308 16.0732 6.91242C15.9325 6.77177 15.8535 6.58101 15.8535 6.38209V2.99609C15.8535 2.79718 15.9325 2.60642 16.0732 2.46576C16.2138 2.32511 16.4046 2.24609 16.6035 2.24609C16.8024 2.24609 16.9932 2.32511 17.1339 2.46576C17.2745 2.60642 17.3535 2.79718 17.3535 2.99609V6.38209C17.3535 6.58101 17.2745 6.77177 17.1339 6.91242C16.9932 7.05308 16.8024 7.13209 16.6035 7.13209Z" fill="black"/>
</svg>