<svg width="25" height="24" viewBox="0 0 25 24" fill="none" xmlns="http://www.w3.org/2000/svg">
<path opacity="0.4" d="M12.2438 3H9.42903C7.43055 3 5.81055 4.62097 5.81055 6.61849L5.81152 17.3825C5.81152 19.38 7.43152 21 9.43001 21H14.9448C16.9433 21 18.5633 19.38 18.5623 17.3815V12.0185" stroke="black" stroke-width="1.5" stroke-linecap="round" stroke-linejoin="round"/>
<path d="M14.7715 5.47461V7.0732" stroke="black" stroke-width="1.5" stroke-linecap="round" stroke-linejoin="round"/>
<path d="M19.1895 5.47461V7.0732" stroke="black" stroke-width="1.5" stroke-linecap="round" stroke-linejoin="round"/>
<path d="M16.9805 3.99414V8.55252" stroke="black" stroke-width="1.5" stroke-linecap="round" stroke-linejoin="round"/>
<path d="M12.1273 17.2646V17.2878M12.1862 17.0293C12.2434 17.0295 12.2993 17.0467 12.3468 17.0787C12.3943 17.1106 12.4312 17.1559 12.453 17.2088C12.4747 17.2618 12.4803 17.32 12.469 17.3761C12.4577 17.4322 12.43 17.4837 12.3895 17.5241C12.3489 17.5645 12.2973 17.5919 12.2412 17.603C12.1851 17.6141 12.1269 17.6083 12.074 17.5863C12.0212 17.5644 11.976 17.5273 11.9442 17.4797C11.9125 17.4321 11.8955 17.3761 11.8955 17.3189C11.8953 17.2807 11.9027 17.2429 11.9172 17.2076C11.9318 17.1723 11.9532 17.1402 11.9803 17.1133C12.0073 17.0863 12.0395 17.065 12.0748 17.0506C12.1102 17.0362 12.148 17.029 12.1862 17.0293Z" stroke="black" stroke-width="1.5" stroke-linecap="round" stroke-linejoin="round"/>
</svg>