<svg width="24" height="25" viewBox="0 0 24 25" fill="none" xmlns="http://www.w3.org/2000/svg">
<path opacity="0.4" fill-rule="evenodd" clip-rule="evenodd" d="M16.21 13.2944C15.975 13.3654 15.73 13.4014 15.487 13.4014C15.243 13.4014 14.999 13.3654 14.763 13.2944C12.985 12.7574 9.977 10.9284 9.977 7.48144C9.977 6.74544 9.967 6.21344 9.96 5.82244C9.94407 4.95234 9.93639 4.17176 10.3341 3.44478C10.4586 3.21706 10.311 2.89844 10.0515 2.89844H8.846C6.576 2.89844 4.729 4.74744 4.729 7.01844L4.73 17.7784C4.73 20.0504 6.577 21.8984 8.847 21.8984H14.362C16.633 21.8984 18.48 20.0504 18.48 17.7784L18.4791 12.7373C18.4791 12.4918 18.1978 12.3472 17.9892 12.4767C17.362 12.8664 16.7332 13.1367 16.21 13.2944Z" fill="black"/>
<path fill-rule="evenodd" clip-rule="evenodd" d="M15.4875 2.75C15.9925 2.75 18.4635 3.575 18.8915 3.997C19.2895 4.393 19.2835 4.747 19.2645 5.795L19.2637 5.83606C19.2568 6.22999 19.2475 6.75938 19.2475 7.481C19.2475 10.512 15.8485 11.575 15.7045 11.619C15.6335 11.64 15.5605 11.651 15.4875 11.651C15.4135 11.651 15.3405 11.64 15.2695 11.619C15.1255 11.575 11.7275 10.512 11.7275 7.481C11.7275 6.75453 11.7181 6.22364 11.7112 5.82947L11.7104 5.78549C11.6914 4.74398 11.685 4.39143 12.0805 3.998C12.5075 3.576 14.9795 2.75 15.4875 2.75ZM17.7638 5.80839L17.7645 5.768C17.7705 5.458 17.7755 5.181 17.7695 5.028C17.3685 4.837 15.7975 4.286 15.4575 4.249C15.1825 4.285 13.7075 4.801 13.2045 5.044C13.1998 5.19175 13.2039 5.43604 13.2086 5.71102C13.2089 5.72823 13.2092 5.74556 13.2095 5.763C13.2175 6.167 13.2275 6.718 13.2275 7.481C13.2275 9.052 14.8805 9.86 15.4875 10.103C16.0935 9.86 17.7475 9.052 17.7475 7.481C17.7475 6.74699 17.7568 6.20845 17.7638 5.80839Z" fill="black"/>
<path d="M11.6043 18.6587C11.0473 18.6587 10.5933 18.2057 10.5933 17.6487C10.5933 17.0927 11.0473 16.6387 11.6043 16.6387C12.1613 16.6387 12.6143 17.0927 12.6143 17.6487C12.6143 18.2057 12.1613 18.6587 11.6043 18.6587Z" fill="black"/>
</svg>