<svg width="25" height="24" viewBox="0 0 25 24" fill="none" xmlns="http://www.w3.org/2000/svg">
<g opacity="0.4">
<path fill-rule="evenodd" clip-rule="evenodd" d="M5.31006 16.3516C5.31006 16.5173 5.44437 16.6516 5.61006 16.6516H19.3431C19.5087 16.6516 19.6431 16.5173 19.6431 16.3516V7.65059C19.6431 7.4849 19.5087 7.35059 19.3431 7.35059H5.61006C5.44437 7.35059 5.31006 7.4849 5.31006 7.65059V16.3516Z" fill="black"/>
<path fill-rule="evenodd" clip-rule="evenodd" d="M5.73509 18.1504C5.55007 18.1504 5.40847 18.3167 5.45162 18.4967C5.89201 20.3333 7.34822 21.5004 9.35201 21.5004H15.599C17.6047 21.5004 19.0619 20.3333 19.5024 18.4967C19.5455 18.3167 19.404 18.1504 19.2189 18.1504H5.73509Z" fill="black"/>
<path fill-rule="evenodd" clip-rule="evenodd" d="M19.2186 5.85C19.4037 5.85 19.5453 5.68365 19.5021 5.50373C19.0616 3.66707 17.6045 2.5 15.6007 2.5H9.35271C7.34798 2.5 5.89172 3.66707 5.45132 5.50373C5.40818 5.68365 5.54977 5.85 5.73479 5.85H19.2186Z" fill="black"/>
</g>
<path fill-rule="evenodd" clip-rule="evenodd" d="M15.7063 10.3376C15.4615 9.73334 14.9895 9.293 14.3781 9.09674C14.0442 8.98818 13.6822 8.96338 13.3317 9.02233C13.0107 9.07589 12.7199 9.2682 12.4755 9.44685C12.2397 9.27575 11.9417 9.0802 11.6193 9.02593C11.2717 8.96697 10.9104 8.99142 10.5736 9.09674C9.23281 9.5306 8.8198 10.9979 9.19471 12.1643C9.77847 14.0378 12.2929 15.2287 12.3996 15.2787C12.4237 15.2898 12.4496 15.2956 12.4758 15.2956C12.5014 15.2956 12.5276 15.2898 12.5517 15.2787C12.6566 15.2298 15.134 14.0594 15.7527 12.1669C15.7527 12.1665 15.7527 12.1661 15.753 12.1661C15.9511 11.5493 15.9342 10.8998 15.7063 10.3376Z" fill="black"/>
</svg>