<svg width="24" height="25" viewBox="0 0 24 25" fill="none" xmlns="http://www.w3.org/2000/svg">
<path fill-rule="evenodd" clip-rule="evenodd" d="M20.1281 12.4091C20.0011 13.0121 19.5401 13.5311 19.0061 13.6741C18.7821 13.7311 18.0801 13.7161 17.5181 13.6921L17.9531 11.0591H18.7561C19.2901 11.0591 19.5671 11.1221 19.7751 11.2891C20.1921 11.6241 20.1971 12.0831 20.1281 12.4091ZM21.0261 9.72808C20.2881 9.13808 19.4641 9.05908 18.7561 9.05908H17.1051C16.6151 9.05908 16.1981 9.41408 16.1181 9.89608L15.3671 14.4471C15.3631 14.4661 15.3601 14.4851 15.3571 14.5041L14.9851 16.7561C14.8961 17.3011 15.2641 17.8151 15.8091 17.9051C15.8641 17.9151 15.9201 17.9191 15.9731 17.9191C16.4541 17.9191 16.8781 17.5711 16.9591 17.0821L17.1901 15.6801C18.1811 15.7281 19.0241 15.7411 19.5241 15.6051C20.7941 15.2661 21.7991 14.1751 22.0851 12.8231C22.3381 11.6231 21.9441 10.4671 21.0261 9.72808Z" fill="black"/>
<path fill-rule="evenodd" clip-rule="evenodd" d="M14.8005 10.241C14.3685 9.73095 13.7385 9.43895 13.0705 9.43895H11.8325L12.0265 8.26195C12.1165 7.71795 11.7475 7.20295 11.2025 7.11295C10.6545 7.01595 10.1435 7.39095 10.0525 7.93595L8.92053 14.797C8.83053 15.342 9.19853 15.856 9.74353 15.946C9.79953 15.956 9.85453 15.96 9.90753 15.96C10.3885 15.96 10.8125 15.612 10.8935 15.123L11.5025 11.439H13.0705C13.1785 11.439 13.2445 11.499 13.2755 11.534C13.3105 11.576 13.3495 11.647 13.3335 11.746L12.8295 14.797C12.7395 15.342 13.1095 15.856 13.6545 15.946C13.7085 15.956 13.7635 15.96 13.8175 15.96C14.2985 15.96 14.7225 15.612 14.8035 15.123L15.3065 12.073C15.4155 11.417 15.2315 10.749 14.8005 10.241Z" fill="black"/>
<path fill-rule="evenodd" clip-rule="evenodd" d="M6.99484 12.4168C6.86584 13.0188 6.40784 13.5338 5.87284 13.6738C5.64984 13.7298 4.94684 13.7158 4.38584 13.6918L4.82084 11.0598H5.62584C6.15884 11.0598 6.43484 11.1228 6.64384 11.2878C7.06184 11.6248 7.06584 12.0878 6.99484 12.4168ZM7.89384 9.72781C7.15484 9.13881 6.33284 9.05981 5.62584 9.05981H3.97184C3.48284 9.05981 3.06484 9.41381 2.98484 9.89581L1.85284 16.7558C1.76384 17.3008 2.13284 17.8148 2.67784 17.9048C2.73284 17.9148 2.78684 17.9188 2.84084 17.9188C3.32184 17.9188 3.74584 17.5708 3.82684 17.0818L4.05784 15.6808C5.04784 15.7278 5.89284 15.7398 6.38684 15.6068C7.65484 15.2748 8.66084 14.1878 8.95084 12.8368C9.20884 11.6308 8.81584 10.4698 7.89384 9.72781Z" fill="black"/>
</svg>