<svg width="24" height="24" viewBox="0 0 24 24" fill="none" xmlns="http://www.w3.org/2000/svg">
<path fill-rule="evenodd" clip-rule="evenodd" d="M14.8008 9.73314C14.3688 9.22314 13.7388 8.93114 13.0708 8.93114H11.8328L12.0268 7.75414C12.1168 7.21014 11.7478 6.69514 11.2028 6.60514C10.6548 6.50814 10.1438 6.88314 10.0528 7.42814L8.92077 14.2891C8.83077 14.8341 9.19877 15.3481 9.74377 15.4381C9.79977 15.4481 9.85477 15.4521 9.90777 15.4521C10.3888 15.4521 10.8128 15.1041 10.8938 14.6151L11.5028 10.9311H13.0708C13.1788 10.9311 13.2448 10.9911 13.2758 11.0261C13.3108 11.0681 13.3498 11.1391 13.3338 11.2381L12.8298 14.2891C12.7398 14.8341 13.1098 15.3481 13.6548 15.4381C13.7088 15.4481 13.7638 15.4521 13.8178 15.4521C14.2988 15.4521 14.7228 15.1041 14.8038 14.6151L15.3068 11.5651C15.4158 10.9091 15.2318 10.2411 14.8008 9.73314Z" fill="black"/>
<g opacity="0.4">
<path fill-rule="evenodd" clip-rule="evenodd" d="M6.99509 11.9084C6.86609 12.5104 6.40809 13.0254 5.87309 13.1654C5.65009 13.2214 4.94709 13.2074 4.38609 13.1834L4.82109 10.5514H5.62609C6.15909 10.5514 6.43509 10.6144 6.64409 10.7794C7.06209 11.1164 7.06609 11.5794 6.99509 11.9084ZM7.89409 9.21944C7.15509 8.63045 6.33309 8.55145 5.62609 8.55145H3.97209C3.48309 8.55145 3.06509 8.90544 2.98509 9.38744L1.85309 16.2474C1.76409 16.7924 2.13309 17.3064 2.67809 17.3964C2.73309 17.4064 2.78709 17.4104 2.84109 17.4104C3.32209 17.4104 3.74609 17.0624 3.82709 16.5734L4.05809 15.1724C5.04809 15.2194 5.89309 15.2314 6.38709 15.0984C7.65509 14.7664 8.66109 13.6794 8.95109 12.3284C9.20909 11.1224 8.81609 9.96144 7.89409 9.21944Z" fill="black"/>
<path fill-rule="evenodd" clip-rule="evenodd" d="M20.1284 11.9008C20.0014 12.5038 19.5404 13.0228 19.0064 13.1658C18.7824 13.2228 18.0804 13.2078 17.5184 13.1838L17.9534 10.5508H18.7564C19.2904 10.5508 19.5674 10.6138 19.7754 10.7808C20.1924 11.1158 20.1974 11.5748 20.1284 11.9008ZM21.0264 9.21978C20.2884 8.62978 19.4644 8.55078 18.7564 8.55078H17.1054C16.6154 8.55078 16.1984 8.90578 16.1184 9.38778L15.3674 13.9388C15.3634 13.9578 15.3604 13.9768 15.3574 13.9958L14.9854 16.2478C14.8964 16.7928 15.2644 17.3068 15.8094 17.3968C15.8644 17.4068 15.9204 17.4108 15.9734 17.4108C16.4544 17.4108 16.8784 17.0628 16.9594 16.5738L17.1904 15.1718C18.1814 15.2198 19.0244 15.2328 19.5244 15.0968C20.7944 14.7578 21.7994 13.6668 22.0854 12.3148C22.3384 11.1148 21.9444 9.95878 21.0264 9.21978Z" fill="black"/>
</g>
</svg>