<svg width="24" height="24" viewBox="0 0 24 24" fill="none" xmlns="http://www.w3.org/2000/svg">
<path d="M15.8115 16.4051L16.944 9.55077C17.4402 9.55077 18.4015 9.54688 18.5961 9.54688C19.1818 9.54979 19.7539 9.60428 20.2423 9.99735C21.7445 11.2057 20.828 13.6731 19.1059 14.1323C18.5143 14.2899 16.6726 14.1391 16.1881 14.1265" stroke="black" stroke-width="1.5" stroke-linecap="round" stroke-linejoin="round"/>
<path d="M9.87109 14.4471L11.0036 7.59375" stroke="black" stroke-width="1.5" stroke-linecap="round" stroke-linejoin="round"/>
<path d="M13.7812 14.447L14.2842 11.4037C14.4116 10.6312 13.8162 9.92969 13.034 9.92969H10.6172" stroke="black" stroke-width="1.5" stroke-linecap="round" stroke-linejoin="round"/>
<path d="M3 16.4051L4.1325 9.55077C4.6287 9.55077 5.58996 9.54688 5.78552 9.54688C6.37026 9.54979 6.94234 9.60428 7.43076 9.99735C8.93297 11.2057 8.01647 13.6731 6.29437 14.1323C5.70282 14.2899 3.86105 14.1391 3.37653 14.1265" stroke="black" stroke-width="1.5" stroke-linecap="round" stroke-linejoin="round"/>
</svg>