<svg width="24" height="24" viewBox="0 0 24 24" fill="none" xmlns="http://www.w3.org/2000/svg">
<path fill-rule="evenodd" clip-rule="evenodd" d="M7.96836 10.2477C8.36225 10.1195 8.78545 10.335 8.9136 10.7289L12.1736 20.7489C12.3018 21.1427 12.0863 21.5659 11.6924 21.6941C11.2985 21.8223 10.8753 21.6068 10.7472 21.2129L7.4872 11.1929C7.35904 10.799 7.57447 10.3758 7.96836 10.2477Z" fill="black"/>
<path fill-rule="evenodd" clip-rule="evenodd" d="M17.9514 4.33739C18.3454 4.4653 18.5611 4.88837 18.4332 5.28234L15.0632 15.6623C14.9353 16.0563 14.5122 16.272 14.1182 16.1441C13.7242 16.0162 13.5086 15.5931 13.6365 15.1991L17.0065 4.81914C17.1344 4.42517 17.5574 4.20949 17.9514 4.33739Z" fill="black"/>
<path fill-rule="evenodd" clip-rule="evenodd" d="M17.8336 6.16637C14.6118 2.94454 9.3882 2.94454 6.16637 6.16637L6.16637 6.16637C2.94454 9.38818 2.94454 14.6118 6.16637 17.8336C9.38818 21.0554 14.6118 21.0554 17.8336 17.8336C21.0553 14.6119 21.0554 9.38857 17.834 6.16671C17.8338 6.1666 17.8337 6.16648 17.8336 6.16637ZM18.8943 5.10571C22.7019 8.91332 22.7019 15.0867 18.8943 18.8943C15.0867 22.7019 8.9133 22.7019 5.10571 18.8943C1.2981 15.0867 1.2981 8.9133 5.10571 5.10571C8.91332 1.2981 15.0867 1.2981 18.8943 5.10571Z" fill="black"/>
<path fill-rule="evenodd" clip-rule="evenodd" d="M8.90039 15.4297C8.90039 15.0155 9.23618 14.6797 9.65039 14.6797H20.3204C20.7346 14.6797 21.0704 15.0155 21.0704 15.4297C21.0704 15.8439 20.7346 16.1797 20.3204 16.1797H9.65039C9.23618 16.1797 8.90039 15.8439 8.90039 15.4297Z" fill="black"/>
<path fill-rule="evenodd" clip-rule="evenodd" d="M12.6066 7.75864C12.8499 8.09383 12.7755 8.56284 12.4403 8.80619L3.79029 15.0862C3.4551 15.3295 2.9861 15.2551 2.74275 14.9199C2.49939 14.5847 2.57384 14.1157 2.90903 13.8724L11.559 7.59236C11.8942 7.349 12.3632 7.42345 12.6066 7.75864Z" fill="black"/>
<path fill-rule="evenodd" clip-rule="evenodd" d="M6.36317 4.09807C6.60675 3.76305 7.0758 3.68892 7.41083 3.9325L16.2408 10.3525C16.5758 10.5961 16.65 11.0651 16.4064 11.4002C16.1628 11.7352 15.6938 11.8093 15.3587 11.5657L6.52873 5.14573C6.19371 4.90214 6.11958 4.43309 6.36317 4.09807Z" fill="black"/>
</svg>