<svg width="25" height="24" viewBox="0 0 25 24" fill="none" xmlns="http://www.w3.org/2000/svg">
<path d="M9.39982 16.9762C9.28976 17.4172 9.03375 17.8088 8.67211 18.0888C8.31048 18.3689 7.86407 18.5214 7.40471 18.5214C6.94536 18.5214 6.49944 18.3689 6.1378 18.0888C5.77617 17.8088 5.51967 17.4172 5.40961 16.9762C5.36131 16.7961 5.33799 16.6097 5.33996 16.4233C5.33996 15.887 5.55557 15.373 5.93907 14.9938C6.32258 14.6146 6.84238 14.4014 7.38474 14.4014C7.92711 14.4014 8.44739 14.6146 8.8309 14.9938C9.33947 15.4967 9.58138 16.299 9.39982 16.9762Z" stroke="black" stroke-width="1.5" stroke-linecap="round" stroke-linejoin="round"/>
<path d="M19.6029 16.3769C19.6017 16.56 19.5752 16.7425 19.5234 16.9186C19.4033 17.3356 19.1452 17.7033 18.7885 17.9651C18.4319 18.227 17.9963 18.368 17.5484 18.368C17.1004 18.368 16.6648 18.227 16.3082 17.9651C15.9515 17.7033 15.6934 17.3356 15.5734 16.9186C15.5216 16.7425 15.4946 16.56 15.4933 16.3769C15.4736 16.1045 15.5122 15.8313 15.6066 15.5739C15.7009 15.3165 15.8488 15.0809 16.0416 14.8812C16.2343 14.6815 16.4679 14.5221 16.7271 14.4132C16.9863 14.3043 17.2658 14.248 17.5484 14.248C17.8309 14.248 18.1104 14.3043 18.3696 14.4132C18.6288 14.5221 18.8619 14.6815 19.0546 14.8812C19.2474 15.0809 19.3958 15.3165 19.4902 15.5739C19.5845 15.8313 19.6226 16.1045 19.6029 16.3769Z" stroke="black" stroke-width="1.5" stroke-linecap="round" stroke-linejoin="round"/>
<path d="M18.7209 10.382L16.4011 6.08139C16.2929 5.88148 16.1327 5.71518 15.9373 5.59899C15.7419 5.4828 15.5187 5.42188 15.2913 5.42224H12.7114C12.4992 5.42224 12.2955 5.50658 12.1455 5.65661C11.9955 5.80663 11.9111 6.00985 11.9111 6.22201V16.3514" stroke="black" stroke-width="1.5" stroke-linecap="round" stroke-linejoin="round"/>
<path d="M19.6475 16.7918H19.9596C20.5661 16.7892 21.1468 16.5469 21.5757 16.118C22.0046 15.6891 22.2469 15.1084 22.2495 14.5019V12.7315C22.2469 12.1249 22.0046 11.5442 21.5757 11.1153C21.1468 10.6865 20.5661 10.4442 19.9596 10.4415H2.25098V14.5214C2.25098 14.8221 2.31021 15.1195 2.42528 15.3973C2.54036 15.6751 2.70872 15.9278 2.92135 16.1405C3.13399 16.3531 3.38666 16.5224 3.66448 16.6375C3.9423 16.7526 4.24019 16.8113 4.5409 16.8113H5.32065" stroke="black" stroke-width="1.5" stroke-linecap="round" stroke-linejoin="round"/>
<path d="M9.60498 16.3712H15.4908" stroke="black" stroke-width="1.5" stroke-linecap="round" stroke-linejoin="round"/>
</svg>