<svg width="25" height="24" viewBox="0 0 25 24" fill="none" xmlns="http://www.w3.org/2000/svg">
<path fill-rule="evenodd" clip-rule="evenodd" d="M16.21 11.9697H12.906C11.893 11.9697 11.783 12.8227 11.783 13.1897V15.3297C11.783 16.0937 12.203 16.5497 12.906 16.5497H16.21C16.914 16.5497 17.334 16.0937 17.334 15.3297V13.1897C17.334 12.8227 17.225 11.9697 16.21 11.9697Z" fill="black"/>
<path fill-rule="evenodd" clip-rule="evenodd" d="M18.834 15.33C18.834 16.932 17.755 18.05 16.21 18.05H12.906C11.362 18.05 10.283 16.932 10.283 15.33V13.189C10.283 11.588 11.362 10.47 12.906 10.47H16.21C17.755 10.47 18.834 11.588 18.834 13.189V15.33ZM17.051 2.5H8.61598C5.45698 2.5 3.33398 4.723 3.33398 8.03V15.97C3.33398 19.277 5.45698 21.5 8.61598 21.5H17.05C20.21 21.5 22.334 19.277 22.334 15.97V8.03C22.334 4.723 20.211 2.5 17.051 2.5Z" fill="black"/>
</svg>