<svg width="25" height="25" viewBox="0 0 25 25" fill="none" xmlns="http://www.w3.org/2000/svg">
<path fill-rule="evenodd" clip-rule="evenodd" d="M11.4587 4.78027C9.62971 4.78027 7.96139 5.46046 6.69008 6.58278C5.19262 7.90477 4.25 9.83633 4.25 11.989C4.25 14.4139 5.44663 16.5594 7.28495 17.8673C8.46263 18.7052 9.90204 19.1977 11.4587 19.1977C12.0732 19.1977 12.6688 19.121 13.2368 18.9769L11.0035 12.9222C10.7024 12.1058 11.3065 11.239 12.1768 11.239H18.629C18.2542 7.6105 15.1867 4.78027 11.4587 4.78027ZM5.69736 5.45828C7.2322 4.10331 9.25026 3.28027 11.4587 3.28027C16.0847 3.28027 19.8678 6.88675 20.1505 11.442C20.1963 12.1796 19.5951 12.739 18.917 12.739H12.5348L14.7442 18.729C14.9784 19.3641 14.6635 20.123 13.9536 20.3349C13.1623 20.5711 12.3246 20.6977 11.4587 20.6977C9.58025 20.6977 7.83865 20.1021 6.41539 19.0895C4.19853 17.5124 2.75 14.9199 2.75 11.989C2.75 9.38817 3.89104 7.05292 5.69736 5.45828Z" fill="black"/>
<path fill-rule="evenodd" clip-rule="evenodd" d="M14.4136 15.0504C14.1124 14.234 14.7166 13.3672 15.5868 13.3672H21.0168C21.6915 13.3672 22.3023 13.9255 22.2467 14.673C22.0421 17.4243 20.3344 19.754 17.9449 20.8477C17.2621 21.1602 16.5266 20.7792 16.2933 20.1466L14.4136 15.0504ZM15.9448 14.8672L17.5976 19.3481C19.2721 18.4726 20.4728 16.8174 20.7202 14.8672H15.9448Z" fill="black"/>
<path fill-rule="evenodd" clip-rule="evenodd" d="M5.69641 5.45922C6.0064 5.18449 6.48042 5.21308 6.75515 5.52307L12.2045 11.6718C12.4792 11.9818 12.4506 12.4558 12.1406 12.7305C11.8306 13.0053 11.3566 12.9767 11.0819 12.6667L5.63256 6.51796C5.35783 6.20797 5.38642 5.73396 5.69641 5.45922Z" fill="black"/>
</svg>