<svg width="25" height="25" viewBox="0 0 25 25" fill="none" xmlns="http://www.w3.org/2000/svg">
<path d="M19.4018 11.4884C19.1435 7.32614 15.686 4.03027 11.4586 4.03027C9.43986 4.03027 7.59667 4.78188 6.1936 6.02053C4.54171 7.47884 3.49988 9.61225 3.49988 11.989C3.49988 14.6669 4.82246 17.0359 6.85005 18.4784C8.15052 19.4036 9.74102 19.9477 11.4586 19.9477C12.2511 19.9477 13.0165 19.8319 13.7389 19.6162C14.0037 19.5372 14.136 19.2478 14.0404 18.9885L11.7071 12.6627C11.5866 12.3359 11.8284 11.989 12.1766 11.989H18.9168C19.1933 11.989 19.419 11.7643 19.4018 11.4884Z" stroke="black" stroke-width="1.5" stroke-linecap="round" stroke-linejoin="round"/>
<path opacity="0.4" d="M21.4986 14.6174C21.5191 14.3417 21.2931 14.1172 21.0167 14.1172H15.5866C15.2383 14.1172 14.9965 14.4641 15.1171 14.7909L16.9968 19.887C17.0924 20.1464 17.3813 20.2808 17.6326 20.1657C19.7811 19.1823 21.3149 17.0878 21.4986 14.6174Z" stroke="black" stroke-width="1.5" stroke-linecap="round" stroke-linejoin="round"/>
<path opacity="0.4" d="M11.6429 12.1692L6.1936 6.02051" stroke="black" stroke-width="1.5" stroke-linecap="round" stroke-linejoin="round"/>
</svg>