<svg width="25" height="25" viewBox="0 0 25 25" fill="none" xmlns="http://www.w3.org/2000/svg">
<path d="M19.402 11.4884C19.1436 7.32614 15.6861 4.03027 11.4587 4.03027C9.43998 4.03027 7.59679 4.78188 6.19372 6.02053C4.54183 7.47884 3.5 9.61225 3.5 11.989C3.5 14.6669 4.82258 17.0359 6.85017 18.4784C8.15064 19.4036 9.74114 19.9477 11.4587 19.9477C12.2512 19.9477 13.0166 19.8319 13.739 19.6162C14.0039 19.5372 14.1361 19.2478 14.0405 18.9885L11.7072 12.6627C11.5867 12.3359 11.8285 11.989 12.1768 11.989H18.917C19.1934 11.989 19.4191 11.7643 19.402 11.4884Z" stroke="black" stroke-width="1.5" stroke-linecap="round" stroke-linejoin="round"/>
<path d="M21.4989 14.6174C21.5194 14.3417 21.2933 14.1172 21.0169 14.1172H15.5869C15.2386 14.1172 14.9968 14.4641 15.1173 14.7909L16.997 19.887C17.0927 20.1464 17.3815 20.2808 17.6329 20.1657C19.7814 19.1823 21.3151 17.0878 21.4989 14.6174Z" stroke="black" stroke-width="1.5" stroke-linecap="round" stroke-linejoin="round"/>
<path d="M11.6432 12.1692L6.19385 6.02051" stroke="black" stroke-width="1.5" stroke-linecap="round" stroke-linejoin="round"/>
</svg>