<svg width="25" height="24" viewBox="0 0 25 24" fill="none" xmlns="http://www.w3.org/2000/svg">
<path d="M17.656 19.2385C17.656 19.2385 14.062 16.7941 14.062 14.2366C14.062 12.2524 15.6708 10.6426 17.656 10.6426C19.6412 10.6426 21.25 12.2524 21.25 14.2366C21.25 15.5125 20.4986 16.7603 19.6742 17.6904" stroke="black" stroke-width="1.5" stroke-linecap="round" stroke-linejoin="round"/>
<path d="M14.7457 16.4781C13.0101 18.7401 10.8163 20.2904 10.1825 20.2904C9.07096 20.2904 3.25 15.581 3.25 10.6473C3.25 6.81546 6.35061 3.71484 10.1825 3.71484C12.7507 3.71484 14.9976 5.11474 16.1954 7.19575" stroke="black" stroke-width="1.5" stroke-linecap="round" stroke-linejoin="round"/>
<path d="M10.178 8.27734C11.4543 8.27734 12.4889 9.31186 12.4889 10.5882C12.4889 11.8645 11.4543 12.899 10.178 12.899C8.9017 12.899 7.86719 11.8645 7.86719 10.5882" stroke="black" stroke-width="1.5" stroke-linecap="round" stroke-linejoin="round"/>
<path d="M17.6244 14.0778V14.1245M17.8137 14.0878C17.8137 14.1929 17.7284 14.2781 17.6233 14.2781C17.5182 14.2781 17.433 14.1929 17.433 14.0878C17.433 13.9827 17.5182 13.8975 17.6233 13.8975C17.7284 13.8975 17.8137 13.9827 17.8137 14.0878Z" stroke="black" stroke-width="1.5" stroke-linecap="round" stroke-linejoin="round"/>
</svg>