<svg width="25" height="24" viewBox="0 0 25 24" fill="none" xmlns="http://www.w3.org/2000/svg">
<path opacity="0.4" d="M4.97363 10.5269C4.97363 15.8822 11.295 21 12.4996 21C13.7041 21 20.0255 15.8822 20.0255 10.5269C20.0255 6.36941 16.6561 3 12.4996 3C8.34304 3 4.97363 6.36941 4.97363 10.5269Z" stroke="black" stroke-width="1.5" stroke-linecap="round" stroke-linejoin="round"/>
<path fill-rule="evenodd" clip-rule="evenodd" d="M12.9173 7.09081L13.613 8.48022C13.6821 8.61741 13.8134 8.71178 13.9652 8.73319L15.521 8.95697C15.7739 8.99006 15.951 9.22162 15.9179 9.47362C15.9043 9.57773 15.8557 9.67308 15.7808 9.74508L14.655 10.8261C14.5451 10.9321 14.4945 11.0849 14.5208 11.2357L14.7874 12.7623C14.8282 13.0172 14.655 13.2565 14.4001 13.2974C14.2989 13.3139 14.1968 13.2964 14.1072 13.2488L12.7169 12.5288C12.5797 12.4577 12.4172 12.4577 12.281 12.5288L10.8896 13.2497C10.6619 13.3704 10.3788 13.2838 10.2582 13.0561C10.2105 12.9656 10.1939 12.8625 10.2095 12.7623L10.4761 11.2357C10.5024 11.0858 10.4518 10.9321 10.3418 10.827L9.21514 9.74606C9.03222 9.56897 9.02638 9.27806 9.20346 9.09416C9.27546 9.01924 9.37081 8.97157 9.47492 8.95697L11.0307 8.73319C11.1825 8.71276 11.3138 8.61741 11.3829 8.48119L12.0796 7.09081C12.2002 6.85924 12.4843 6.76876 12.7159 6.88941C12.8025 6.93416 12.8725 7.00422 12.9173 7.09081Z" stroke="black" stroke-width="1.5" stroke-linecap="round" stroke-linejoin="round"/>
</svg>