<svg width="24" height="24" viewBox="0 0 24 24" fill="none" xmlns="http://www.w3.org/2000/svg">
<path opacity="0.4" fill-rule="evenodd" clip-rule="evenodd" d="M16.22 2.5H7.78C4.62 2.5 2.5 4.72 2.5 8.03V15.97C2.5 19.28 4.62 21.5 7.78 21.5H16.22C19.38 21.5 21.5 19.28 21.5 15.97V8.03C21.5 4.72 19.38 2.5 16.22 2.5Z" fill="black"/>
<path fill-rule="evenodd" clip-rule="evenodd" d="M12 16.9303C12.91 16.9303 16.2 14.1203 16.2 11.2703C16.2 8.95031 14.32 7.07031 12 7.07031C9.68004 7.07031 7.79004 8.95031 7.79004 11.2703C7.79004 14.1203 11.08 16.9303 12 16.9303ZM12.0001 12.4601C11.3401 12.4601 10.8101 11.9201 10.8101 11.2701C10.8101 10.6101 11.3401 10.0801 12.0001 10.0801C12.6601 10.0801 13.1901 10.6101 13.1901 11.2701C13.1901 11.9201 12.6601 12.4601 12.0001 12.4601Z" fill="black"/>
</svg>