<svg width="25" height="24" viewBox="0 0 25 24" fill="none" xmlns="http://www.w3.org/2000/svg">
<path fill-rule="evenodd" clip-rule="evenodd" d="M12.2496 3.75C8.50731 3.75 5.47363 6.78356 5.47363 10.5269C5.47363 12.9304 6.90881 15.3744 8.59566 17.2736C9.42795 18.2107 10.2928 18.9823 11.0114 19.5136C11.3715 19.7799 11.6836 19.9775 11.9274 20.1048C12.115 20.2027 12.2168 20.2346 12.2496 20.245C12.2823 20.2346 12.3842 20.2027 12.5717 20.1048C12.8155 19.9775 13.1276 19.7799 13.4878 19.5136C14.2063 18.9823 15.0712 18.2107 15.9035 17.2736C17.5903 15.3744 19.0255 12.9304 19.0255 10.5269C19.0255 6.78356 15.9918 3.75 12.2496 3.75ZM3.97363 10.5269C3.97363 5.95525 7.67876 2.25 12.2496 2.25C16.8204 2.25 20.5255 5.95525 20.5255 10.5269C20.5255 13.4787 18.8 16.2712 17.025 18.2697C16.1264 19.2815 15.1851 20.1241 14.3796 20.7197C13.9777 21.0169 13.5983 21.261 13.2658 21.4345C12.9697 21.5891 12.5976 21.75 12.2496 21.75C11.9016 21.75 11.5295 21.5891 11.2333 21.4345C10.9008 21.261 10.5215 21.0169 10.1196 20.7197C9.31411 20.1241 8.37277 19.2815 7.47415 18.2697C5.69916 16.2712 3.97363 13.4787 3.97363 10.5269Z" fill="black"/>
<path fill-rule="evenodd" clip-rule="evenodd" d="M15.9632 7.91485C16.2561 8.20768 16.2563 8.68255 15.9634 8.97551L11.9305 13.0104C11.7897 13.1512 11.5988 13.2303 11.3997 13.2302C11.2007 13.2302 11.0098 13.1509 10.8692 13.01L8.9125 11.0495C8.6199 10.7563 8.62037 10.2814 8.91356 9.98883C9.20674 9.69623 9.68161 9.6967 9.97422 9.98989L11.4004 11.4189L14.9025 7.91511C15.1953 7.62215 15.6702 7.62203 15.9632 7.91485Z" fill="black"/>
</svg>