<svg width="25" height="24" viewBox="0 0 25 24" fill="none" xmlns="http://www.w3.org/2000/svg">
<path fill-rule="evenodd" clip-rule="evenodd" d="M12.2496 3.75C8.50731 3.75 5.47363 6.78356 5.47363 10.5269C5.47363 12.9304 6.90881 15.3744 8.59566 17.2736C9.42795 18.2107 10.2928 18.9823 11.0114 19.5136C11.3715 19.7799 11.6836 19.9775 11.9274 20.1048C12.115 20.2027 12.2168 20.2346 12.2496 20.245C12.2823 20.2346 12.3842 20.2027 12.5717 20.1048C12.8155 19.9775 13.1276 19.7799 13.4878 19.5136C14.2063 18.9823 15.0712 18.2107 15.9035 17.2736C17.5903 15.3744 19.0255 12.9304 19.0255 10.5269C19.0255 6.78356 15.9918 3.75 12.2496 3.75ZM3.97363 10.5269C3.97363 5.95525 7.67876 2.25 12.2496 2.25C16.8204 2.25 20.5255 5.95525 20.5255 10.5269C20.5255 13.4787 18.8 16.2712 17.025 18.2697C16.1264 19.2815 15.1851 20.1241 14.3796 20.7197C13.9777 21.0169 13.5983 21.261 13.2658 21.4345C12.9697 21.5891 12.5976 21.75 12.2496 21.75C11.9016 21.75 11.5295 21.5891 11.2333 21.4345C10.9008 21.261 10.5215 21.0169 10.1196 20.7197C9.31411 20.1241 8.37277 19.2815 7.47415 18.2697C5.69916 16.2712 3.97363 13.4787 3.97363 10.5269ZM8.99052 10.4635C8.99052 8.66354 10.4493 7.20513 12.2498 7.20513C14.0495 7.20513 15.5081 8.66373 15.5081 10.4635C15.5081 12.2628 14.0499 13.7228 12.2498 13.7228C10.4489 13.7228 8.99052 12.263 8.99052 10.4635ZM12.2498 8.70513C11.2774 8.70513 10.4905 9.49234 10.4905 10.4635C10.4905 11.4349 11.2777 12.2228 12.2498 12.2228C13.2207 12.2228 14.0081 11.4351 14.0081 10.4635C14.0081 9.49216 13.2211 8.70513 12.2498 8.70513Z" fill="black"/>
</svg>