<svg width="24" height="24" viewBox="0 0 24 24" fill="none" xmlns="http://www.w3.org/2000/svg">
<path fill-rule="evenodd" clip-rule="evenodd" d="M11.4998 13.6307C9.93978 13.6307 8.66979 12.3607 8.66979 10.8007C8.66979 9.25073 9.93978 7.98073 11.4998 7.98073C13.0498 7.98073 14.3198 9.25073 14.3198 10.8007C14.3198 12.3607 13.0498 13.6307 11.4998 13.6307ZM18.6998 9.52073C15.4898 9.52073 12.8898 6.92073 12.8898 3.71073C12.8898 3.39073 12.9198 3.08073 12.9698 2.78073C12.4898 2.70073 11.9998 2.65073 11.4998 2.65073C6.96979 2.65073 3.27979 6.34073 3.27979 10.8707C3.27979 16.6407 10.0298 22.1007 11.4998 22.1007C12.9698 22.1007 19.7198 16.6407 19.7198 10.8707C19.7198 10.3807 19.6798 9.90073 19.5998 9.44073C19.3098 9.50073 19.0098 9.52073 18.6998 9.52073Z" fill="black"/>
<path fill-rule="evenodd" clip-rule="evenodd" d="M19.9702 4.18441H18.4362V2.64941C18.4362 2.23541 18.1002 1.89941 17.6862 1.89941C17.2722 1.89941 16.9362 2.23541 16.9362 2.64941V4.18441H15.4022C14.9882 4.18441 14.6522 4.52041 14.6522 4.93441C14.6522 5.34841 14.9882 5.68441 15.4022 5.68441H16.9362V7.21741C16.9362 7.63141 17.2722 7.96741 17.6862 7.96741C18.1002 7.96741 18.4362 7.63141 18.4362 7.21741V5.68441H19.9702C20.3842 5.68441 20.7202 5.34841 20.7202 4.93441C20.7202 4.52041 20.3842 4.18441 19.9702 4.18441Z" fill="black"/>
</svg>