<svg width="24" height="24" viewBox="0 0 24 24" fill="none" xmlns="http://www.w3.org/2000/svg">
<path fill-rule="evenodd" clip-rule="evenodd" d="M9.50495 13.1469C8.09495 13.1469 6.94495 11.9969 6.94495 10.5869C6.94495 9.17691 8.09495 8.02691 9.50495 8.02691C10.915 8.02691 12.065 9.17691 12.065 10.5869C12.065 11.9969 10.915 13.1469 9.50495 13.1469ZM17.275 19.1669C16.655 18.8769 14.985 17.3969 14.375 15.7369C14.225 15.3369 14.135 14.9369 14.135 14.5369C14.135 13.2469 14.915 12.1369 16.025 11.6469C16.405 11.4769 16.835 11.3869 17.275 11.3869C19.015 11.3869 20.425 12.7969 20.425 14.5369C20.425 16.6469 18.045 18.8069 17.275 19.1669ZM17.275 9.88691C17.145 9.88691 17.025 9.89691 16.905 9.90691C16.904 9.90691 16.904 9.90691 16.903 9.90691C16.531 6.15391 13.357 3.21191 9.50795 3.21191C5.40895 3.21191 2.07495 6.54591 2.07495 10.6439C2.07495 15.8539 8.17895 20.7879 9.50795 20.7879C10.348 20.7879 12.186 19.3969 13.707 17.6899C14.817 19.4079 16.515 20.6969 17.275 20.6969C18.475 20.6969 21.925 17.5669 21.925 14.5369C21.925 11.9769 19.835 9.88691 17.275 9.88691Z" fill="black"/>
<path fill-rule="evenodd" clip-rule="evenodd" d="M17.245 13.4169C16.715 13.4169 16.285 13.8469 16.285 14.3669C16.285 14.8969 16.715 15.3269 17.245 15.3269C17.775 15.3269 18.205 14.8969 18.205 14.3669C18.205 13.8469 17.775 13.4169 17.245 13.4169Z" fill="black"/>
</svg>