<svg width="24" height="24" viewBox="0 0 24 24" fill="none" xmlns="http://www.w3.org/2000/svg">
<path fill-rule="evenodd" clip-rule="evenodd" d="M12.1605 16.0459C11.6188 16.0459 8.77637 13.7452 8.77637 11.3372C8.77637 9.46813 10.2914 7.95312 12.1605 7.95312C14.0296 7.95312 15.5446 9.46813 15.5446 11.3372C15.5446 13.7452 12.7022 16.0459 12.1605 16.0459Z" stroke="black" stroke-width="1.5" stroke-linecap="round" stroke-linejoin="round"/>
<path d="M5.06152 6.72865C5.47401 6.16495 5.95349 5.65485 6.48848 5.20312" stroke="black" stroke-width="1.5" stroke-linecap="round" stroke-linejoin="round"/>
<path d="M17.6246 18.9609C16.2924 20.0051 14.6473 20.6807 12.8318 20.8166C11.9369 20.8836 11.0651 20.8119 10.2324 20.6262" stroke="black" stroke-width="1.5" stroke-linecap="round" stroke-linejoin="round"/>
<path d="M7.09862 19.2357C5.76641 18.3141 4.69931 17.0307 4.0332 15.5195" stroke="black" stroke-width="1.5" stroke-linecap="round" stroke-linejoin="round"/>
<path d="M3.63698 9.58984C3.37954 10.5364 3.26661 11.5374 3.34413 12.571" stroke="black" stroke-width="1.5" stroke-linecap="round" stroke-linejoin="round"/>
<path d="M19.6716 16.641C20.5655 15.1978 21.0632 13.4914 20.9933 11.6682C20.8057 6.7825 16.6933 2.97442 11.8076 3.16296" stroke="black" stroke-width="1.5" stroke-linecap="round" stroke-linejoin="round"/>
<path d="M12.163 11.3141V11.36M12.3491 11.324C12.3491 11.4274 12.2652 11.5112 12.1618 11.5112C12.0584 11.5112 11.9746 11.4274 11.9746 11.324C11.9746 11.2206 12.0584 11.1367 12.1618 11.1367C12.2652 11.1367 12.3491 11.2206 12.3491 11.324Z" stroke="black" stroke-width="1.5" stroke-linecap="round" stroke-linejoin="round"/>
</svg>