<svg width="24" height="24" viewBox="0 0 24 24" fill="none" xmlns="http://www.w3.org/2000/svg">
<path fill-rule="evenodd" clip-rule="evenodd" d="M12.0004 10.1402C12.6604 10.1402 13.1904 10.6702 13.1904 11.3302C13.1904 11.9802 12.6604 12.5102 12.0004 12.5102C11.3504 12.5102 10.8104 11.9802 10.8104 11.3302C10.8104 10.6702 11.3504 10.1402 12.0004 10.1402ZM12.0004 16.5502C12.8404 16.5502 15.8804 13.9602 15.8804 11.3402C15.8804 9.2002 14.1404 7.4502 12.0004 7.4502C9.86036 7.4502 8.12036 9.2002 8.12036 11.3402C8.12036 13.9602 11.1604 16.5502 12.0004 16.5502Z" fill="black"/>
<g opacity="0.4">
<path fill-rule="evenodd" clip-rule="evenodd" d="M18.5121 4.96286C16.6301 3.21986 14.1701 2.31286 11.6181 2.41386C11.2041 2.42986 10.8821 2.77886 10.8991 3.19186C10.9151 3.60686 11.2851 3.94086 11.6771 3.91286C13.8271 3.81786 15.9061 4.59286 17.4931 6.06386C19.0811 7.53386 20.0011 9.53486 20.0851 11.6969C20.1451 13.2989 19.7271 14.8729 18.8741 16.2469C18.6571 16.5989 18.7651 17.0609 19.1161 17.2789C19.2401 17.3559 19.3761 17.3919 19.5111 17.3919C19.7621 17.3919 20.0071 17.2659 20.1501 17.0369C21.1591 15.4079 21.6551 13.5419 21.5831 11.6399C21.4851 9.07686 20.3941 6.70586 18.5121 4.96286Z" fill="black"/>
<path fill-rule="evenodd" clip-rule="evenodd" d="M4.90177 7.47753C5.13277 7.47753 5.36177 7.37053 5.50877 7.16953C5.87877 6.66353 6.31677 6.19353 6.81277 5.77453C7.12977 5.50753 7.16977 5.03453 6.90277 4.71753C6.63477 4.40153 6.16277 4.36253 5.84577 4.62853C5.25677 5.12453 4.73677 5.68253 4.29677 6.28553C4.05277 6.62053 4.12677 7.08953 4.46177 7.33353C4.59377 7.43053 4.74877 7.47753 4.90177 7.47753Z" fill="black"/>
<path fill-rule="evenodd" clip-rule="evenodd" d="M17.0013 18.3731C15.7363 19.3641 14.2203 19.9511 12.6153 20.0711C11.8193 20.1321 11.0223 20.0721 10.2353 19.8961C9.83934 19.8081 9.43134 20.0601 9.34034 20.4651C9.25034 20.8691 9.50534 21.2701 9.90934 21.3601C10.6053 21.5161 11.3113 21.5941 12.0163 21.5941C12.2533 21.5941 12.4903 21.5851 12.7273 21.5671C14.6293 21.4251 16.4273 20.7281 17.9273 19.5541C18.2533 19.2981 18.3103 18.8271 18.0543 18.5011C17.7993 18.1751 17.3293 18.1161 17.0013 18.3731Z" fill="black"/>
<path fill-rule="evenodd" clip-rule="evenodd" d="M4.56098 15.2184C4.39298 14.8384 3.95098 14.6704 3.57198 14.8344C3.19298 15.0014 3.02098 15.4444 3.18798 15.8224C3.90598 17.4514 5.05498 18.8444 6.51198 19.8534C6.64198 19.9434 6.79098 19.9864 6.93798 19.9864C7.17598 19.9864 7.40998 19.8734 7.55598 19.6634C7.79098 19.3224 7.70698 18.8554 7.36598 18.6194C6.13598 17.7694 5.16598 16.5934 4.56098 15.2184Z" fill="black"/>
<path fill-rule="evenodd" clip-rule="evenodd" d="M3.23961 13.3193C3.65261 13.2883 3.96261 12.9283 3.93161 12.5153C3.86461 11.6113 3.95461 10.6933 4.20061 9.78633C4.30861 9.38733 4.07361 8.97533 3.67361 8.86633C3.27261 8.75633 2.86161 8.99533 2.75361 9.39433C2.46261 10.4643 2.35561 11.5523 2.43561 12.6273C2.46561 13.0213 2.79461 13.3213 3.18261 13.3213C3.20161 13.3213 3.22061 13.3203 3.23961 13.3193Z" fill="black"/>
</g>
</svg>