<svg width="24" height="24" viewBox="0 0 24 24" fill="none" xmlns="http://www.w3.org/2000/svg">
<path d="M4.47363 10.5269C4.47363 15.8822 10.795 21 11.9996 21C13.2041 21 19.5255 15.8822 19.5255 10.5269C19.5255 6.36941 16.1561 3 11.9996 3C7.84304 3 4.47363 6.36941 4.47363 10.5269Z" stroke="black" stroke-width="1.5" stroke-linecap="round" stroke-linejoin="round"/>
<path fill-rule="evenodd" clip-rule="evenodd" d="M8.90347 10.6671C8.53957 9.52974 8.96476 8.23082 10.1576 7.84649C10.7862 7.64606 11.4721 7.76184 12.0004 8.15687C12.5278 7.76476 13.2118 7.64995 13.8394 7.84649C15.0322 8.23082 15.4603 9.52974 15.0964 10.6671C14.5302 12.4681 12.0004 13.8565 12.0004 13.8565C12.0004 13.8565 9.4892 12.4885 8.90347 10.6671Z" stroke="black" stroke-width="1.5" stroke-linecap="round" stroke-linejoin="round"/>
</svg>