<svg width="24" height="24" viewBox="0 0 24 24" fill="none" xmlns="http://www.w3.org/2000/svg">
<path d="M21.0001 6.67713L18.0375 5.99219L17.3564 8.93821" stroke="black" stroke-width="1.5" stroke-linecap="round" stroke-linejoin="round"/>
<path d="M18.0307 6.24219C21.1752 9.49566 21.1538 14.6823 17.9509 17.9095C15.9457 19.9313 13.1612 20.7106 10.5557 20.2446" stroke="black" stroke-width="1.5" stroke-linecap="round" stroke-linejoin="round"/>
<path d="M3 17.3236L5.96257 18.0085L6.64361 15.0625" stroke="black" stroke-width="1.5" stroke-linecap="round" stroke-linejoin="round"/>
<path d="M5.96944 17.7582C2.82493 14.5047 2.84634 9.31805 6.04922 6.09084C8.05442 4.0691 10.8389 3.28979 13.4444 3.75582" stroke="black" stroke-width="1.5" stroke-linecap="round" stroke-linejoin="round"/>
<path fill-rule="evenodd" clip-rule="evenodd" d="M11.9994 15.6936C11.5149 15.6936 8.9707 13.634 8.9707 11.4779C8.9707 9.80548 10.327 8.44922 11.9994 8.44922C13.6719 8.44922 15.0282 9.80548 15.0282 11.4779C15.0282 13.634 12.4839 15.6936 11.9994 15.6936Z" stroke="black" stroke-width="1.5" stroke-linecap="round" stroke-linejoin="round"/>
<path d="M12.001 11.4498V11.4966M12.1903 11.4599C12.1903 11.565 12.105 11.6502 11.9999 11.6502C11.8947 11.6502 11.8096 11.565 11.8096 11.4599C11.8096 11.3548 11.8947 11.2695 11.9999 11.2695C12.105 11.2695 12.1903 11.3548 12.1903 11.4599Z" stroke="black" stroke-width="1.5" stroke-linecap="round" stroke-linejoin="round"/>
</svg>