<svg width="25" height="24" viewBox="0 0 25 24" fill="none" xmlns="http://www.w3.org/2000/svg">
<path d="M17.6053 9.68934C17.5483 9.68949 17.4916 9.68277 17.4363 9.66933C17.3402 9.6473 17.2494 9.60651 17.1692 9.54929C17.089 9.49208 17.0208 9.41958 16.9687 9.33594C16.9166 9.25231 16.8815 9.15919 16.8654 9.06196C16.8494 8.96472 16.8527 8.86528 16.8753 8.76934L17.5573 5.82334C17.6023 5.62957 17.7223 5.46156 17.891 5.35619C18.0598 5.25083 18.2634 5.2167 18.4573 5.26133L21.4193 5.94634C21.6131 5.99116 21.7813 6.11116 21.8867 6.27994C21.9921 6.44873 22.0261 6.65246 21.9813 6.84633C21.9364 7.04021 21.8164 7.20833 21.6477 7.31373C21.4789 7.41912 21.2751 7.45315 21.0813 7.40833L18.8503 6.89234L18.3363 9.10734C18.2984 9.27283 18.2055 9.42055 18.0726 9.5263C17.9398 9.63204 17.775 9.68953 17.6053 9.68934Z" fill="black"/>
<path d="M12.2776 21.1262C11.7411 21.1259 11.2057 21.0781 10.6776 20.9832C10.4864 20.9435 10.3182 20.8308 10.2088 20.669C10.0994 20.5072 10.0574 20.3091 10.0918 20.1168C10.1262 19.9245 10.2342 19.7533 10.3929 19.6394C10.5516 19.5256 10.7485 19.4781 10.9416 19.5072C12.5211 19.7901 14.1497 19.5652 15.5934 18.8647C17.0371 18.1643 18.2217 17.0244 18.9772 15.6086C19.7326 14.1929 20.0199 12.5742 19.7979 10.985C19.5759 9.39575 18.856 7.91774 17.7416 6.76319C17.6034 6.62011 17.5278 6.42799 17.5312 6.2291C17.5347 6.03022 17.617 5.84087 17.7601 5.70269C17.9032 5.56451 18.0953 5.48883 18.2942 5.4923C18.4931 5.49577 18.6825 5.5781 18.8206 5.72118C20.06 7.00506 20.8942 8.62532 21.2191 10.38C21.544 12.1347 21.3453 13.9462 20.6477 15.5887C19.9502 17.2312 18.7847 18.6321 17.2965 19.6168C15.8083 20.6015 14.0631 21.1265 12.2786 21.1262H12.2776Z" fill="black"/>
<path d="M6.21328 18.7598C6.15645 18.7593 6.09982 18.7529 6.04429 18.7408L3.08128 18.0558C2.98528 18.0336 2.8946 17.9927 2.8144 17.9355C2.73421 17.8782 2.66607 17.8057 2.61389 17.7222C2.5617 17.6386 2.52648 17.5456 2.51025 17.4484C2.49402 17.3512 2.49709 17.2518 2.51928 17.1558C2.54148 17.0598 2.58236 16.9691 2.6396 16.8889C2.69684 16.8087 2.76931 16.7406 2.85289 16.6884C2.93646 16.6362 3.02949 16.601 3.12667 16.5847C3.22386 16.5685 3.3233 16.5716 3.41929 16.5938L5.65129 17.1098L6.16328 14.8938C6.18547 14.7978 6.22636 14.7071 6.2836 14.6269C6.34084 14.5467 6.41333 14.4786 6.4969 14.4264C6.58047 14.3742 6.67351 14.339 6.77069 14.3228C6.86787 14.3065 6.96729 14.3096 7.06329 14.3318C7.15929 14.354 7.24997 14.3949 7.33017 14.4521C7.41036 14.5093 7.4785 14.5818 7.53068 14.6654C7.58287 14.749 7.61809 14.842 7.63432 14.9392C7.65055 15.0364 7.64748 15.1358 7.62529 15.2318L6.94429 18.1788C6.90575 18.3438 6.81257 18.491 6.67988 18.5965C6.5472 18.7019 6.38278 18.7595 6.21328 18.7598Z" fill="black"/>
<path d="M6.21818 18.5078C6.11741 18.5079 6.01768 18.4876 5.92491 18.4482C5.83214 18.4089 5.74823 18.3513 5.67819 18.2789C4.34363 16.8959 3.48168 15.1256 3.21612 13.2222C2.95056 11.3187 3.29506 9.38011 4.20015 7.6847C5.10523 5.98929 6.52433 4.62433 8.25364 3.78585C9.98296 2.94737 11.9335 2.6785 13.8252 3.01786C13.9243 3.03277 14.0194 3.0674 14.105 3.1197C14.1905 3.172 14.2646 3.2409 14.3231 3.32235C14.3815 3.4038 14.423 3.49614 14.4451 3.59391C14.4673 3.69168 14.4696 3.79289 14.4519 3.89156C14.4343 3.99024 14.397 4.08437 14.3424 4.1684C14.2877 4.25244 14.2168 4.32467 14.1338 4.38082C14.0507 4.43697 13.9573 4.47589 13.8589 4.49531C13.7606 4.51472 13.6593 4.51423 13.5612 4.49386C11.9819 4.21125 10.3536 4.4363 8.91015 5.13673C7.4667 5.83715 6.28228 6.97691 5.52694 8.3924C4.7716 9.80789 4.48418 11.4263 4.70593 13.0153C4.92768 14.6043 5.64718 16.0822 6.76118 17.2369C6.86342 17.3427 6.93226 17.4763 6.9591 17.6211C6.98595 17.7658 6.96963 17.9152 6.91217 18.0507C6.8547 18.1862 6.75864 18.3018 6.63595 18.3831C6.51326 18.4644 6.36937 18.5078 6.22219 18.5078H6.21818Z" fill="black"/>
<path d="M12.2492 16.4471C11.2492 16.4471 8.4712 13.9771 8.4712 11.4811C8.46305 10.9797 8.55475 10.4817 8.74098 10.0162C8.9272 9.5506 9.20423 9.12673 9.5559 8.76929C9.90758 8.41184 10.3269 8.12796 10.7893 7.93419C11.2518 7.74041 11.7483 7.64062 12.2497 7.64062C12.7511 7.64062 13.2476 7.74041 13.71 7.93419C14.1725 8.12796 14.5918 8.41184 14.9435 8.76929C15.2952 9.12673 15.5722 9.5506 15.7584 10.0162C15.9447 10.4817 16.0364 10.9797 16.0282 11.4811C16.0272 13.9771 13.2492 16.4471 12.2492 16.4471ZM12.2492 9.20309C11.6452 9.20415 11.0662 9.44463 10.6392 9.87183C10.2122 10.299 9.972 10.8781 9.9712 11.4821C9.9712 12.9671 11.6212 14.5381 12.2492 14.9011C12.8782 14.5381 14.5282 12.9671 14.5282 11.4821C14.5274 10.8779 14.2871 10.2987 13.8598 9.87148C13.4326 9.44425 12.8534 9.20389 12.2492 9.20309Z" fill="black"/>
<path d="M12.2486 12.3995C12.7677 12.3995 13.1886 11.9787 13.1886 11.4595C13.1886 10.9404 12.7677 10.5195 12.2486 10.5195C11.7294 10.5195 11.3086 10.9404 11.3086 11.4595C11.3086 11.9787 11.7294 12.3995 12.2486 12.3995Z" fill="black"/>
</svg>