<svg width="25" height="24" viewBox="0 0 25 24" fill="none" xmlns="http://www.w3.org/2000/svg">
<path fill-rule="evenodd" clip-rule="evenodd" d="M3.9902 3.89737C4.97468 2.84117 6.37669 2.25 8.03216 2.25H16.4669C18.1262 2.25 19.5288 2.84084 20.5129 3.89765C21.4913 4.94841 22 6.39889 22 8.02638V15.9736C22 17.6011 21.4913 19.0516 20.5127 20.1024C19.5285 21.1592 18.1257 21.75 16.4659 21.75H8.03216C6.3728 21.75 4.97038 21.1591 3.98657 20.1023C3.00842 19.0515 2.5 17.601 2.5 15.9736V8.02638C2.5 6.39806 3.01117 4.94771 3.9902 3.89737ZM5.08745 4.92012C4.41024 5.64667 4 6.70951 4 8.02638V15.9736C4 17.2914 4.40861 18.3541 5.08451 19.0802C5.75475 19.8003 6.74341 20.25 8.03216 20.25H16.4659C17.7552 20.25 18.7444 19.8002 19.415 19.0801C20.0912 18.354 20.5 17.2913 20.5 15.9736V8.02638C20.5 6.70868 20.0912 5.64597 19.4151 4.91984C18.7446 4.19975 17.7556 3.75 16.4669 3.75H8.03216C6.74828 3.75 5.75921 4.19943 5.08745 4.92012Z" fill="black"/>
<path fill-rule="evenodd" clip-rule="evenodd" d="M12.249 8.32031C10.6173 8.32031 9.29395 9.64416 9.29395 11.2764C9.29395 12.3206 9.92691 13.4355 10.7351 14.3455C11.128 14.788 11.5344 15.1498 11.8661 15.3952C12.0229 15.5111 12.153 15.5936 12.249 15.6454C12.3451 15.5936 12.4752 15.5111 12.6319 15.3952C12.9636 15.1498 13.37 14.788 13.763 14.3455C14.5711 13.4355 15.2041 12.3206 15.2041 11.2764C15.2041 9.64416 13.8807 8.32031 12.249 8.32031ZM7.79395 11.2764C7.79395 8.81625 9.78839 6.82031 12.249 6.82031C14.7097 6.82031 16.7041 8.81625 16.7041 11.2764C16.7041 12.8689 15.7808 14.3324 14.8846 15.3416C14.4253 15.8587 13.9425 16.2916 13.5239 16.6012C13.3155 16.7553 13.1117 16.8873 12.9255 16.9845C12.7757 17.0627 12.5206 17.1831 12.249 17.1831C11.9774 17.1831 11.7223 17.0627 11.5725 16.9845C11.3864 16.8873 11.1826 16.7553 10.9741 16.6012C10.5556 16.2916 10.0728 15.8587 9.6135 15.3416C8.71725 14.3324 7.79395 12.8689 7.79395 11.2764Z" fill="black"/>
<path fill-rule="evenodd" clip-rule="evenodd" d="M11.3096 11.2685C11.3096 10.7494 11.7303 10.3281 12.2499 10.3281C12.7689 10.3281 13.1903 10.7488 13.1903 11.2685C13.1903 11.7882 12.7689 12.2089 12.2499 12.2089C11.7303 12.2089 11.3096 11.7876 11.3096 11.2685Z" fill="black"/>
</svg>