<svg width="24" height="24" viewBox="0 0 24 24" fill="none" xmlns="http://www.w3.org/2000/svg">
<path fill-rule="evenodd" clip-rule="evenodd" d="M19.8412 18.6551L5.21122 4.02512C4.92122 3.73512 4.45122 3.73512 4.15122 4.02512C3.86122 4.32512 3.86122 4.79512 4.15122 5.08512L8.05122 8.98512L8.04122 10.1851C8.03122 10.6951 7.86122 11.1851 7.55122 11.5651L6.72122 12.6051C6.18122 13.2851 6.08122 14.1851 6.45122 14.9651C6.83122 15.7351 7.59122 16.2251 8.45122 16.2251H11.2512V19.8751C11.2512 20.2951 11.5812 20.6251 12.0012 20.6251C12.4112 20.6251 12.7512 20.2951 12.7512 19.8751V16.2251H15.2912L18.7812 19.7151C18.9312 19.8651 19.1212 19.9351 19.3112 19.9351C19.5112 19.9351 19.7012 19.8651 19.8412 19.7151C20.1412 19.4251 20.1412 18.9551 19.8412 18.6551Z" fill="black"/>
<path opacity="0.4" fill-rule="evenodd" clip-rule="evenodd" d="M15.1412 10.955C15.2312 11.045 15.3612 11.095 15.4912 11.095C15.5612 11.095 15.6412 11.075 15.7112 11.045C15.9012 10.945 16.0112 10.745 15.9812 10.525C15.9712 10.415 15.9512 10.305 15.9512 10.185L15.9412 7.865C15.9412 7.545 16.1012 7.225 16.3912 6.955C16.8712 6.515 17.1112 5.895 17.0612 5.245C16.9512 4.195 16.0112 3.375 14.9112 3.375H9.08121C8.96121 3.375 8.83121 3.385 8.79121 3.405C8.58121 3.405 8.40121 3.525 8.32121 3.705C8.25121 3.895 8.29121 4.115 8.43121 4.255L15.1412 10.955Z" fill="black"/>
</svg>