<svg width="25" height="24" viewBox="0 0 25 24" fill="none" xmlns="http://www.w3.org/2000/svg">
<path d="M21.2501 6.67615L18.2875 5.99121L17.6064 8.93724" stroke="black" stroke-width="1.5" stroke-linecap="round" stroke-linejoin="round"/>
<path d="M18.2804 6.24121C20.4653 8.50181 21.1217 11.6957 20.2445 14.5172" stroke="black" stroke-width="1.5" stroke-linecap="round" stroke-linejoin="round"/>
<path d="M18.2009 17.9102C16.1957 19.9319 13.4112 20.7112 10.8057 20.2452" stroke="black" stroke-width="1.5" stroke-linecap="round" stroke-linejoin="round"/>
<path d="M3.25 17.3236L6.21257 18.0085L6.89361 15.0625" stroke="black" stroke-width="1.5" stroke-linecap="round" stroke-linejoin="round"/>
<path d="M6.21956 17.7606C3.89957 15.3602 3.3029 11.9075 4.4358 8.96582" stroke="black" stroke-width="1.5" stroke-linecap="round" stroke-linejoin="round"/>
<path d="M6.29883 6.09084C8.30403 4.0691 11.0886 3.28979 13.6941 3.75582" stroke="black" stroke-width="1.5" stroke-linecap="round" stroke-linejoin="round"/>
<path fill-rule="evenodd" clip-rule="evenodd" d="M12.2493 15.6946C11.7648 15.6946 9.22058 13.6349 9.22058 11.4789C9.22058 9.80646 10.5768 8.4502 12.2493 8.4502C13.9218 8.4502 15.278 9.80646 15.278 11.4789C15.278 13.6349 12.7338 15.6946 12.2493 15.6946Z" stroke="black" stroke-width="1.5" stroke-linecap="round" stroke-linejoin="round"/>
<path d="M12.251 11.4498V11.4966M12.4403 11.4599C12.4403 11.565 12.355 11.6502 12.2499 11.6502C12.1447 11.6502 12.0596 11.565 12.0596 11.4599C12.0596 11.3548 12.1447 11.2695 12.2499 11.2695C12.355 11.2695 12.4403 11.3548 12.4403 11.4599Z" stroke="black" stroke-width="1.5" stroke-linecap="round" stroke-linejoin="round"/>
</svg>