<svg width="25" height="24" viewBox="0 0 25 24" fill="none" xmlns="http://www.w3.org/2000/svg">
<path d="M12.41 16.0459C12.41 16.0459 9.02594 13.7452 9.02594 11.3372C9.02594 9.46813 10.5409 7.95312 12.41 7.95312C14.2792 7.95312 15.7942 9.46813 15.7942 11.3372C15.7942 12.5704 15.0487 13.7754 14.2486 14.6577" stroke="black" stroke-width="1.5" stroke-linecap="round" stroke-linejoin="round"/>
<path d="M5.31177 6.7267C5.72425 6.163 6.20373 5.6529 6.73872 5.20117" stroke="black" stroke-width="1.5" stroke-linecap="round" stroke-linejoin="round"/>
<path d="M17.8743 18.9629C16.5421 20.007 14.8969 20.6827 13.0814 20.8186C12.1866 20.8856 11.3147 20.8138 10.4821 20.6281" stroke="black" stroke-width="1.5" stroke-linecap="round" stroke-linejoin="round"/>
<path d="M7.3491 19.2357C6.0169 18.3141 4.94979 17.0307 4.28369 15.5195" stroke="black" stroke-width="1.5" stroke-linecap="round" stroke-linejoin="round"/>
<path d="M3.88699 9.58984C3.62955 10.5364 3.51662 11.5374 3.59414 12.571" stroke="black" stroke-width="1.5" stroke-linecap="round" stroke-linejoin="round"/>
<path d="M19.9218 16.641C20.8157 15.1978 21.3134 13.4914 21.2435 11.6682C21.0559 6.7825 16.9435 2.97442 12.0578 3.16296" stroke="black" stroke-width="1.5" stroke-linecap="round" stroke-linejoin="round"/>
<path d="M12.4125 11.3151V11.361M12.5987 11.3249C12.5987 11.4284 12.5148 11.5122 12.4114 11.5122C12.308 11.5122 12.2242 11.4284 12.2242 11.3249C12.2242 11.2215 12.308 11.1377 12.4114 11.1377C12.5148 11.1377 12.5987 11.2215 12.5987 11.3249Z" stroke="black" stroke-width="1.5" stroke-linecap="round" stroke-linejoin="round"/>
</svg>