<svg width="24" height="24" viewBox="0 0 24 24" fill="none" xmlns="http://www.w3.org/2000/svg">
<path opacity="0.4" fill-rule="evenodd" clip-rule="evenodd" d="M21.2698 17.255L20.3398 12.605C20.0198 11.005 18.5998 9.83496 16.9598 9.83496H16.0398H14.5398H7.03981C6.58981 9.83496 6.14981 9.92496 5.75981 10.085L5.75781 10.086L20.9218 19.561C21.2998 18.861 21.4298 18.043 21.2698 17.255Z" fill="black"/>
<path d="M16.0663 7.98355C17.2002 7.64997 18.0279 6.60149 18.0279 5.35969C18.0279 3.84936 16.8035 2.625 15.2932 2.625C13.7828 2.625 12.5585 3.84936 12.5585 5.35969C12.5585 6.59315 13.3751 7.63587 14.4972 7.97672C14.4823 8.03801 14.4744 8.10203 14.4744 8.1679V12.5181C14.4744 12.9635 14.8355 13.3246 15.2809 13.3246C15.7264 13.3246 16.0875 12.9635 16.0875 12.5181V8.1679C16.0875 8.10447 16.0802 8.04276 16.0663 7.98355Z" fill="black"/>
<path opacity="0.4" fill-rule="evenodd" clip-rule="evenodd" d="M4.43983 11.0322V11.0352C4.04983 11.4752 3.77983 12.0052 3.65983 12.6052L2.72983 17.2552C2.55983 18.0952 2.71983 18.9652 3.14983 19.6952L3.15083 19.6972L11.1748 15.2402L4.43983 11.0322Z" fill="black"/>
<path fill-rule="evenodd" clip-rule="evenodd" d="M4.23462 20.8114C4.23662 20.8124 4.23762 20.8144 4.23962 20.8154C4.78962 21.1854 5.43962 21.3754 6.10962 21.3754H17.8896C18.6196 21.3754 19.3296 21.1454 19.9096 20.7054C19.9116 20.7044 19.9146 20.7014 19.9146 20.7014L12.6286 16.1484L4.23462 20.8114Z" fill="black"/>
</svg>