<svg width="25" height="24" viewBox="0 0 25 24" fill="none" xmlns="http://www.w3.org/2000/svg">
<path d="M12.2496 21.749C10.4496 21.749 3.97363 16.179 3.97363 10.526C3.97363 8.33107 4.84556 6.22604 6.39761 4.67399C7.94966 3.12194 10.0547 2.25 12.2496 2.25C14.4446 2.25 16.5496 3.12194 18.1017 4.67399C19.6537 6.22604 20.5256 8.33107 20.5256 10.526C20.5246 16.179 14.0496 21.749 12.2496 21.749ZM12.2496 3.749C10.453 3.75112 8.73058 4.46583 7.46027 5.73634C6.18995 7.00684 5.47549 8.72937 5.47363 10.526C5.47363 15.372 11.2226 20.083 12.2786 20.25C13.2786 20.082 19.0256 15.371 19.0256 10.526C19.0238 8.72937 18.3093 7.00684 17.039 5.73634C15.7687 4.46583 14.0463 3.75112 12.2496 3.749Z" fill="black"/>
<path d="M10.4231 14.0506C10.2017 14.0508 9.9844 13.9908 9.7945 13.877C9.60459 13.7632 9.44926 13.5999 9.34509 13.4045C9.22222 13.1704 9.17769 12.9029 9.21808 12.6416L9.45908 11.2556L8.44409 10.2826C8.28042 10.1248 8.16442 9.92415 8.10935 9.70358C8.05427 9.48302 8.06234 9.25141 8.13263 9.03522C8.20292 8.81902 8.33261 8.62696 8.50687 8.48096C8.68112 8.33496 8.89291 8.2409 9.11807 8.20955L10.5281 8.00955L11.1581 6.75256C11.2605 6.55192 11.4163 6.38347 11.6084 6.26583C11.8005 6.14819 12.0213 6.08594 12.2466 6.08594C12.4718 6.08594 12.6927 6.14819 12.8848 6.26583C13.0769 6.38347 13.2327 6.55192 13.3351 6.75256L13.9651 8.00955L15.3751 8.20955C15.6917 8.25328 15.9781 8.42059 16.1716 8.67488C16.3652 8.92917 16.4502 9.24976 16.4081 9.56655C16.3726 9.83951 16.2449 10.0921 16.0461 10.2826L15.0341 11.2536L15.2731 12.6286C15.3109 12.8524 15.2853 13.0823 15.1993 13.2924C15.1133 13.5024 14.9703 13.6842 14.7864 13.8173C14.6025 13.9503 14.3851 14.0293 14.1586 14.0452C13.9322 14.0612 13.7058 14.0135 13.5051 13.9076L12.2491 13.2566L10.9841 13.9116C10.8113 14.0032 10.6187 14.0509 10.4231 14.0506ZM10.2941 12.5816H10.2881H10.2941ZM9.91309 9.61555L10.6131 10.2856C10.7566 10.4224 10.8639 10.5927 10.9255 10.7811C10.9871 10.9696 11.0011 11.1704 10.9661 11.3656L10.8001 12.3226L11.6891 11.8625C11.8628 11.7716 12.056 11.7241 12.2521 11.7241C12.4482 11.7241 12.6414 11.7716 12.8151 11.8625L13.7011 12.3215L13.5341 11.3625C13.4994 11.1675 13.5136 10.9668 13.5754 10.7785C13.6372 10.5902 13.7446 10.4202 13.8881 10.2836L14.5881 9.61456L13.6131 9.47455C13.4182 9.44676 13.2329 9.37197 13.0734 9.25665C12.9138 9.14132 12.7846 8.98891 12.6971 8.81255L12.2491 7.92555L11.8051 8.81255C11.7164 8.98885 11.5863 9.141 11.4258 9.25596C11.2654 9.37091 11.0795 9.44523 10.8841 9.47255L9.91309 9.61555Z" fill="black"/>
</svg>