<svg width="24" height="24" viewBox="0 0 24 24" fill="none" xmlns="http://www.w3.org/2000/svg">
<path d="M12 21C16.9709 21 21 16.9709 21 12C21 7.02908 16.9709 3 12 3C7.02908 3 3 7.02908 3 12C3 16.9709 7.02908 21 12 21Z" stroke="black" stroke-width="1.5" stroke-linecap="round" stroke-linejoin="round"/>
<path d="M8.5796 12.4407C8.46868 12.2413 8.38014 12.0311 8.31398 11.8131C8.2303 11.531 8.18555 11.2362 8.18555 10.9316C8.18555 9.02947 9.93495 7.48828 12.093 7.48828C14.252 7.48828 15.7504 9.06936 15.7504 10.9715C15.7504 12.5643 14.7531 14.2621 12.9473 14.3575C11.6211 14.4275 10.6472 13.476 10.8729 12.106" stroke="black" stroke-width="1.5" stroke-linecap="round" stroke-linejoin="round"/>
<path d="M9.83984 16.5116L11.2117 10.6602" stroke="black" stroke-width="1.5" stroke-linecap="round" stroke-linejoin="round"/>
</svg>