<svg width="24" height="24" viewBox="0 0 24 24" fill="none" xmlns="http://www.w3.org/2000/svg">
<path opacity="0.4" fill-rule="evenodd" clip-rule="evenodd" d="M16.217 2.375H7.783C4.623 2.375 2.5 4.597 2.5 7.905V15.844C2.5 19.152 4.623 21.375 7.783 21.375H16.216C19.376 21.375 21.5 19.152 21.5 15.844V7.905C21.5 4.597 19.377 2.375 16.217 2.375Z" fill="black"/>
<path d="M13.1349 17.8581C12.6469 17.869 12.1621 17.7767 11.7123 17.5871C11.2624 17.3975 10.8578 17.115 10.5248 16.7581C10.1948 16.3768 9.95602 15.9252 9.82675 15.4378C9.69748 14.9503 9.6811 14.4398 9.77884 13.9451C9.8112 13.7487 9.92025 13.5732 10.082 13.4572C10.2438 13.3412 10.445 13.2942 10.6414 13.3266C10.8378 13.3589 11.0133 13.468 11.1292 13.6297C11.2452 13.7915 11.2922 13.9927 11.2599 14.1891C11.1987 14.4623 11.2015 14.7459 11.2679 15.0179C11.3343 15.2898 11.4627 15.5428 11.6429 15.7571C11.8517 15.9738 12.1073 16.14 12.3901 16.243C12.6729 16.3459 12.9755 16.3829 13.2748 16.3511C15.2668 16.2511 16.3419 14.3081 16.3419 12.5371C16.3381 12.0003 16.2257 11.4698 16.0114 10.9776C15.797 10.4854 15.4853 10.0418 15.0949 9.67332C14.7045 9.30488 14.2436 9.01931 13.7398 8.83382C13.2361 8.64834 12.7 8.56678 12.1638 8.59406C9.67385 8.59406 7.64786 10.3391 7.64786 12.4841C7.64777 12.813 7.69596 13.1401 7.79086 13.4551C7.86395 13.6982 7.96283 13.9329 8.08585 14.1551C8.13352 14.2413 8.16376 14.336 8.17481 14.4339C8.18585 14.5318 8.17749 14.6309 8.15024 14.7256C8.12299 14.8203 8.07737 14.9086 8.01596 14.9857C7.95455 15.0627 7.87857 15.1269 7.79236 15.1746C7.70615 15.2222 7.61138 15.2524 7.51349 15.2635C7.4156 15.2745 7.31647 15.2662 7.2218 15.239C7.12713 15.2117 7.03877 15.1661 6.96173 15.1047C6.8847 15.0433 6.82053 14.9673 6.77286 14.8811C6.59715 14.5639 6.45631 14.2286 6.35285 13.8811C6.21851 13.4266 6.15116 12.955 6.15286 12.4811C6.15286 9.50906 8.85285 7.09106 12.1689 7.09106C12.9032 7.05918 13.6364 7.17641 14.3242 7.43565C15.012 7.69489 15.6402 8.09078 16.1708 8.59943C16.7014 9.10809 17.1235 9.71896 17.4115 10.3952C17.6996 11.0714 17.8477 11.799 17.8469 12.5341C17.8469 14.9951 16.2739 17.6931 13.3589 17.8461C13.2829 17.8541 13.2082 17.8581 13.1349 17.8581Z" fill="black"/>
<path d="M8.92595 21.6263C8.86802 21.6266 8.81027 21.6199 8.75395 21.6063C8.65805 21.5841 8.56747 21.5431 8.48741 21.4858C8.40735 21.4285 8.33938 21.356 8.28737 21.2724C8.23536 21.1888 8.20034 21.0958 8.18431 20.9987C8.16828 20.9015 8.17156 20.8022 8.19396 20.7063L10.354 11.4933C10.3993 11.2996 10.5198 11.1318 10.6888 11.0269C10.8579 10.9219 11.0617 10.8885 11.2554 10.9338C11.4492 10.9792 11.617 11.0996 11.7219 11.2687C11.8268 11.4378 11.8603 11.6416 11.815 11.8353L9.65495 21.0483C9.61623 21.2126 9.52318 21.3591 9.39089 21.464C9.25859 21.5689 9.09478 21.6261 8.92595 21.6263V21.6263Z" fill="black"/>
</svg>