<svg width="24" height="24" viewBox="0 0 24 24" fill="none" xmlns="http://www.w3.org/2000/svg">
<path d="M7.78216 3H16.2169C19.165 3 21 5.08119 21 8.02638V15.9736C21 18.9188 19.165 21 16.2159 21H7.78216C4.83405 21 3 18.9188 3 15.9736V8.02638C3 5.08119 4.84281 3 7.78216 3Z" stroke="black" stroke-width="1.5" stroke-linecap="round" stroke-linejoin="round"/>
<path d="M8.51999 12.4539C8.40615 12.2496 8.31469 12.0336 8.24756 11.8088C8.16096 11.5198 8.11523 11.2172 8.11523 10.9039C8.11523 8.95119 9.91231 7.36719 12.1287 7.36719C14.3452 7.36719 15.8844 8.99205 15.8844 10.9448C15.8844 12.5804 14.8599 14.3249 13.0054 14.4232C11.6442 14.4952 10.643 13.5164 10.8746 12.1104" stroke="black" stroke-width="1.5" stroke-linecap="round" stroke-linejoin="round"/>
<path d="M9.81445 16.6341L11.2233 10.625" stroke="black" stroke-width="1.5" stroke-linecap="round" stroke-linejoin="round"/>
</svg>