<svg width="24" height="24" viewBox="0 0 24 24" fill="none" xmlns="http://www.w3.org/2000/svg">
<path d="M12 21.75C6.62 21.75 2.25 17.38 2.25 12C2.25 6.62 6.62 2.25 12 2.25C17.38 2.25 21.75 6.62 21.75 12C21.75 17.38 17.38 21.75 12 21.75ZM12 3.75C7.45 3.75 3.75 7.45 3.75 12C3.75 16.55 7.45 20.25 12 20.25C16.55 20.25 20.25 16.55 20.25 12C20.25 7.45 16.55 3.75 12 3.75Z" fill="black"/>
<path d="M13.0001 16.9401C12.0001 16.9401 11.1001 16.5601 10.4901 15.8901C9.86007 15.1801 9.60007 14.2201 9.77007 13.1901C9.84007 12.7801 10.2201 12.5001 10.6301 12.5701C11.0401 12.6401 11.3201 13.0202 11.2501 13.4302C11.1501 14.0202 11.2801 14.5201 11.6101 14.8901C11.9601 15.2801 12.5101 15.4801 13.1301 15.4401C15.0001 15.3401 16.0101 13.5101 16.0101 11.8501C16.0101 9.7301 14.3201 8.14014 12.0801 8.14014C9.84008 8.14014 7.83008 9.78017 7.83008 11.8002C7.83008 12.1102 7.87008 12.4201 7.96008 12.7201C8.03008 12.9501 8.12008 13.1601 8.23008 13.3701C8.43008 13.7301 8.31007 14.1901 7.95007 14.3901C7.59007 14.5901 7.13008 14.4701 6.93008 14.1101C6.76008 13.8101 6.62008 13.4902 6.53008 13.1602C6.40008 12.7202 6.33008 12.2701 6.33008 11.8201C6.33008 8.97007 8.91008 6.66016 12.0801 6.66016C15.2501 6.66016 17.5101 8.90012 17.5101 11.8701C17.5101 14.2201 16.0001 16.8001 13.2101 16.9601C13.1401 16.9601 13.0701 16.9601 13.0001 16.9601V16.9401Z" fill="black"/>
<path d="M8.86064 21.131C8.80064 21.131 8.75064 21.1309 8.69064 21.1109C8.29064 21.0209 8.04064 20.6109 8.13064 20.2109L10.3306 10.8509C10.4206 10.4509 10.8306 10.191 11.2306 10.291C11.6306 10.381 11.8806 10.7909 11.7906 11.1909L9.59064 20.551C9.51064 20.901 9.20064 21.131 8.86064 21.131Z" fill="black"/>
</svg>