<svg width="24" height="24" viewBox="0 0 24 24" fill="none" xmlns="http://www.w3.org/2000/svg">
<path opacity="0.4" d="M21 12C21 7.02908 16.9709 3 12 3C7.02908 3 3 7.02908 3 12C3 16.9709 7.02908 21 12 21C16.9709 21 21 16.9709 21 12Z" stroke="black" stroke-width="1.5" stroke-linecap="round" stroke-linejoin="round"/>
<path d="M7.5831 13.7334C7.44202 13.4785 7.32721 13.209 7.24353 12.9298C7.13553 12.5698 7.07812 12.1913 7.07812 11.8021C7.07812 9.36772 9.31791 7.39453 12.0802 7.39453C14.8434 7.39453 16.7621 9.41831 16.7621 11.8527C16.7621 13.8911 15.4846 16.0647 13.1738 16.1873C11.4769 16.2768 10.2296 15.0586 10.5176 13.3053" stroke="black" stroke-width="1.5" stroke-linecap="round" stroke-linejoin="round"/>
<path d="M8.85938 20.3834L11.0554 11.0156" stroke="black" stroke-width="1.5" stroke-linecap="round" stroke-linejoin="round"/>
</svg>