<svg width="24" height="24" viewBox="0 0 24 24" fill="none" xmlns="http://www.w3.org/2000/svg">
<path opacity="0.4" fill-rule="evenodd" clip-rule="evenodd" d="M2.29106 7.14641L10.1084 20.7677C10.9317 22.2023 13.0006 22.2056 13.8282 20.7742L21.7042 7.15075C22.5296 5.72477 21.7911 3.92627 20.2185 3.43538C14.7394 1.72376 9.26024 1.72485 3.78112 3.43755C2.21178 3.92844 1.47326 5.72043 2.29106 7.14641Z" fill="black"/>
<path fill-rule="evenodd" clip-rule="evenodd" d="M4.13125 7.58867C4.05318 7.61887 3.98261 7.64893 3.90017 7.68413C3.51922 7.84678 3.07855 7.66982 2.9159 7.28888C2.75325 6.90793 2.93021 6.46726 3.31116 6.30461L3.31508 6.30294C3.39978 6.26677 3.49751 6.22504 3.61025 6.18194C3.62042 6.17805 3.63067 6.17438 3.64101 6.17094C9.21723 4.31287 14.7946 4.3127 20.3598 6.17109C20.3707 6.17475 20.3816 6.17867 20.3924 6.18283C20.493 6.22168 20.5831 6.25977 20.6614 6.29288C20.6699 6.29646 20.6782 6.29998 20.6864 6.30344C21.068 6.46455 21.2467 6.90451 21.0856 7.2861C20.9245 7.6677 20.4845 7.84643 20.1029 7.68531L20.079 7.67519C20.0038 7.64344 19.9389 7.61602 19.8677 7.5882C14.6222 5.84034 9.38893 5.84029 4.13125 7.58867Z" fill="black"/>
<path fill-rule="evenodd" clip-rule="evenodd" d="M12.3292 8.71875C12.0273 8.71875 11.7822 8.96384 11.7822 9.26575C11.7822 9.56766 12.0273 9.81275 12.3292 9.81275C12.6311 9.81275 12.8762 9.56766 12.8762 9.26575C12.8762 8.96384 12.6311 8.71875 12.3292 8.71875ZM10.2822 9.26575C10.2822 8.13541 11.1989 7.21875 12.3292 7.21875C13.4596 7.21875 14.3762 8.13541 14.3762 9.26575C14.3762 10.3961 13.4596 11.3127 12.3292 11.3127C11.1989 11.3127 10.2822 10.3961 10.2822 9.26575Z" fill="black"/>
<path fill-rule="evenodd" clip-rule="evenodd" d="M15.0515 13.3223C13.9591 13.3223 13.0781 14.2002 13.0781 15.2869C13.0781 16.1397 13.6278 16.8738 14.3953 17.1471C14.7855 17.2861 14.9892 17.715 14.8503 18.1053C14.7113 18.4955 14.2823 18.6992 13.8921 18.5602C12.5502 18.0824 11.5781 16.7985 11.5781 15.2869C11.5781 13.3651 13.1374 11.8223 15.0515 11.8223C15.9135 11.8223 16.7098 12.1376 17.3107 12.6548C17.6246 12.925 17.6601 13.3985 17.3898 13.7125C17.1196 14.0264 16.6461 14.0618 16.3321 13.7916C15.997 13.5032 15.5459 13.3223 15.0515 13.3223Z" fill="black"/>
<path fill-rule="evenodd" clip-rule="evenodd" d="M5.84396 10.9204C6.28278 10.6893 6.77214 10.5723 7.27353 10.5723C9.02172 10.5723 10.4463 11.9968 10.4463 13.745C10.4463 14.8591 9.8765 15.835 9.01063 16.4021C8.66412 16.629 8.19924 16.5321 7.9723 16.1856C7.74536 15.8391 7.8423 15.3742 8.18881 15.1473C8.64815 14.8464 8.94628 14.3336 8.94628 13.745C8.94628 12.8253 8.19329 12.0723 7.27353 12.0723C7.00626 12.0723 6.7581 12.1343 6.54306 12.2476C6.17659 12.4406 5.723 12.3 5.52995 11.9336C5.3369 11.5671 5.47748 11.1135 5.84396 10.9204Z" fill="black"/>
<path fill-rule="evenodd" clip-rule="evenodd" d="M16.0104 7.78276C16.4238 7.75669 16.7801 8.07068 16.8062 8.48407L16.9142 10.1965C16.9402 10.6099 16.6262 10.9662 16.2129 10.9923C15.7995 11.0183 15.4432 10.7043 15.4171 10.2909L15.3091 8.57848C15.2831 8.16509 15.597 7.80883 16.0104 7.78276Z" fill="black"/>
<path fill-rule="evenodd" clip-rule="evenodd" d="M6.44528 8.34621C6.54758 7.94483 6.95589 7.70237 7.35727 7.80466L8.8119 8.17537C9.21328 8.27766 9.45574 8.68597 9.35345 9.08736C9.25116 9.48874 8.84284 9.7312 8.44146 9.62891L6.98684 9.2582C6.58545 9.15591 6.34299 8.7476 6.44528 8.34621Z" fill="black"/>
</svg>