<svg width="24" height="24" viewBox="0 0 24 24" fill="none" xmlns="http://www.w3.org/2000/svg">
<path fill-rule="evenodd" clip-rule="evenodd" d="M3.30177 7.65241L10.3054 19.8557C11.0429 21.141 12.8964 21.1439 13.6379 19.8615L20.694 7.6563C21.4335 6.37876 20.7718 4.76748 19.363 4.32769C14.4542 2.79426 9.54546 2.79523 4.63672 4.32964C3.23074 4.76943 2.56911 6.37487 3.30177 7.65241Z" stroke="black" stroke-width="1.5" stroke-linecap="round" stroke-linejoin="round"/>
<path d="M20.3934 8.12792C20.3058 8.09094 20.2192 8.05397 20.1209 8.01602C16.9639 6.96178 13.8068 6.52266 10.6475 6.69866" stroke="black" stroke-width="1.5" stroke-linecap="round" stroke-linejoin="round"/>
<path d="M3.60449 8.12786C3.69109 8.09089 3.77768 8.05392 3.87693 8.01597C5.18524 7.58003 6.49286 7.24926 7.79997 7.02368" stroke="black" stroke-width="1.5" stroke-linecap="round" stroke-linejoin="round"/>
<path fill-rule="evenodd" clip-rule="evenodd" d="M13.6252 10.3998C13.6252 11.1159 13.0444 11.6968 12.3282 11.6968C11.6121 11.6968 11.0312 11.1159 11.0312 10.3998C11.0312 9.68366 11.6121 9.10278 12.3282 9.10278C13.0444 9.10278 13.6252 9.68366 13.6252 10.3998Z" stroke="black" stroke-width="1.5" stroke-linecap="round" stroke-linejoin="round"/>
<path d="M14.1428 18.9878C13.088 18.6122 12.3271 17.6032 12.3271 16.421C12.3271 15.1642 13.1789 14.1125 14.3358 13.8005" stroke="black" stroke-width="1.5" stroke-linecap="round" stroke-linejoin="round"/>
<path d="M9.69515 14.8778C9.69515 13.5439 8.60638 12.4551 7.2724 12.4551C6.88807 12.4551 6.51931 12.5446 6.19238 12.7168" stroke="black" stroke-width="1.5" stroke-linecap="round" stroke-linejoin="round"/>
<path d="M16.0566 9.66431L16.1646 11.3768" stroke="black" stroke-width="1.5" stroke-linecap="round" stroke-linejoin="round"/>
<path d="M7.1709 9.66431L8.62552 10.035" stroke="black" stroke-width="1.5" stroke-linecap="round" stroke-linejoin="round"/>
</svg>