<svg width="25" height="24" viewBox="0 0 25 24" fill="none" xmlns="http://www.w3.org/2000/svg">
<path fill-rule="evenodd" clip-rule="evenodd" d="M3.80177 7.65241L10.8054 19.8557C11.5429 21.141 13.3964 21.1439 14.1379 19.8615L21.194 7.6563C21.9335 6.37876 21.2718 4.76748 19.863 4.32769C14.9542 2.79426 10.0455 2.79523 5.13672 4.32964C3.73074 4.76943 3.06911 6.37487 3.80177 7.65241Z" stroke="black" stroke-width="1.5" stroke-linecap="round" stroke-linejoin="round"/>
<path d="M4.10449 8.12792C4.19109 8.09094 4.27768 8.05397 4.37693 8.01602C9.79942 6.20918 15.2102 6.20918 20.621 8.01602C20.7193 8.05397 20.8059 8.09094 20.8935 8.12792" stroke="black" stroke-width="1.5" stroke-linecap="round" stroke-linejoin="round"/>
<path opacity="0.4" fill-rule="evenodd" clip-rule="evenodd" d="M14.1252 10.3998C14.1252 11.1159 13.5444 11.6968 12.8282 11.6968C12.1121 11.6968 11.5312 11.1159 11.5312 10.3998C11.5312 9.68366 12.1121 9.10278 12.8282 9.10278C13.5444 9.10278 14.1252 9.68366 14.1252 10.3998Z" stroke="black" stroke-width="1.5" stroke-linecap="round" stroke-linejoin="round"/>
<path opacity="0.4" d="M14.6428 18.9879C13.588 18.6124 12.8271 17.6034 12.8271 16.4212C12.8271 14.9169 14.0473 13.7065 15.5506 13.7065C16.2287 13.7065 16.8524 13.9547 17.3204 14.3575" stroke="black" stroke-width="1.5" stroke-linecap="round" stroke-linejoin="round"/>
<path opacity="0.4" d="M9.09859 16.9075C9.7612 16.4735 10.1952 15.7292 10.1952 14.8778C10.1952 13.5439 9.10638 12.4551 7.7724 12.4551C7.38807 12.4551 7.01931 12.5446 6.69238 12.7168" stroke="black" stroke-width="1.5" stroke-linecap="round" stroke-linejoin="round"/>
<path opacity="0.4" d="M16.5565 9.66431L16.6645 11.3768" stroke="black" stroke-width="1.5" stroke-linecap="round" stroke-linejoin="round"/>
<path opacity="0.4" d="M7.6709 9.66418L9.12552 10.0349" stroke="black" stroke-width="1.5" stroke-linecap="round" stroke-linejoin="round"/>
</svg>