<svg width="25" height="24" viewBox="0 0 25 24" fill="none" xmlns="http://www.w3.org/2000/svg">
<path d="M9.5507 16.7695C8.68203 17.6241 7.73676 18.5543 7.05985 19.2208C6.57331 18.6755 6.07336 18.1993 5.67856 17.6478C5.21881 17.0046 5.292 16.2593 5.5394 15.547C6.10532 13.9142 6.67433 12.2834 7.28148 10.6661C7.43507 10.2568 7.36498 10.0105 7.06398 9.71977C6.19706 8.87862 5.33117 8.03438 4.52404 7.13757C3.6932 6.21396 2.97472 4.56671 4.021 3.52146C5.06728 2.47415 6.71453 3.19366 7.63814 4.0245C8.53495 4.8306 9.37919 5.69649 10.2193 6.5634C10.511 6.86543 10.7574 6.9345 11.1656 6.78091C12.783 6.17478 14.4147 5.60474 16.0465 5.03882C16.7588 4.79246 17.5041 4.71824 18.1473 5.17798C18.6998 5.57279 19.175 6.07376 19.7204 6.55928C18.9351 7.35776 18.1651 8.14056 17.3987 8.91959" stroke="black" stroke-width="1.5" stroke-linecap="round" stroke-linejoin="round"/>
<path d="M15.055 11.3018L17.2836 13.9829L20.0421 13.7097L21.4996 15.1673L17.8557 17.3547L15.6683 20.9997L14.2107 19.5411L14.4973 16.7692L11.8027 14.554" stroke="black" stroke-width="1.5" stroke-linecap="round" stroke-linejoin="round"/>
</svg>