<svg width="24" height="24" viewBox="0 0 24 24" fill="none" xmlns="http://www.w3.org/2000/svg">
<path fill-rule="evenodd" clip-rule="evenodd" d="M16.7835 13.9832L14.5549 11.3021C16.1114 9.71977 17.635 8.17148 19.2204 6.55928C18.675 6.07376 18.1998 5.57279 17.6473 5.17798C17.0041 4.71824 16.2588 4.79246 15.5465 5.03882C13.9147 5.60474 12.283 6.17478 10.6656 6.78091C10.2574 6.9345 10.011 6.86543 9.71931 6.5634C8.87919 5.69649 8.03495 4.8306 7.13814 4.0245C6.21453 3.19366 4.56728 2.47415 3.521 3.52146C2.47472 4.56671 3.1932 6.21396 4.02404 7.13757C4.83117 8.03438 5.69706 8.87862 6.56398 9.71977C6.86498 10.0105 6.93507 10.2568 6.78148 10.6661C6.17433 12.2834 5.60532 13.9142 5.0394 15.547C4.792 16.2593 4.71881 17.0046 5.17856 17.6478C5.57336 18.1993 6.07331 18.6755 6.55985 19.2208C8.17102 17.6344 11.3026 14.5543 11.3026 14.5543L13.9972 16.7695L13.7106 19.5414L15.1682 21L17.3556 17.355L20.9995 15.1676L19.542 13.7101L16.7835 13.9832Z" stroke="black" stroke-width="1.5" stroke-linecap="round" stroke-linejoin="round"/>
</svg>