<svg width="25" height="25" viewBox="0 0 25 25" fill="none" xmlns="http://www.w3.org/2000/svg">
<path d="M7.13756 16.0159C6.22822 15.9931 5.34829 15.689 4.61889 15.1455C3.88948 14.602 3.34647 13.8458 3.06456 12.9809C3.00456 12.8389 2.82755 12.4089 2.69255 12.0809L2.54857 11.7319C2.50664 11.6403 2.48358 11.5413 2.48076 11.4406C2.47794 11.34 2.49541 11.2397 2.53215 11.146C2.5689 11.0522 2.62417 10.9668 2.69463 10.8949C2.76509 10.8229 2.84931 10.7659 2.94228 10.7272C3.03526 10.6885 3.13506 10.6689 3.23577 10.6697C3.33647 10.6704 3.43601 10.6913 3.52843 10.7314C3.62085 10.7714 3.70427 10.8296 3.7737 10.9025C3.84314 10.9755 3.89717 11.0616 3.93258 11.1559L4.07958 11.5089C4.12158 11.6089 4.16856 11.7259 4.21456 11.8369C4.73156 11.6189 5.33857 11.3619 5.94457 11.1039C6.55057 10.8459 7.13658 10.5979 7.64458 10.3829L5.68157 5.62691C5.64261 5.53297 5.62319 5.43208 5.6245 5.33039C5.62581 5.2287 5.64781 5.12833 5.68917 5.03542C5.73052 4.94251 5.79036 4.859 5.86504 4.78997C5.93972 4.72094 6.02768 4.66784 6.12355 4.63392C6.30555 4.56892 6.48356 4.49992 6.65856 4.43392C7.07942 4.26145 7.51139 4.11746 7.95156 4.00292C8.38823 3.91386 8.84029 3.93584 9.26625 4.06688C9.69222 4.19792 10.0785 4.43382 10.3896 4.75292C11.5456 5.76492 12.6986 6.78091 13.8276 7.82091L13.8366 7.83091C14.9466 7.34591 15.8866 6.93891 16.8776 6.58091C17.8443 6.18916 18.9262 6.19239 19.8906 6.58991C20.1838 6.74163 20.4415 6.95375 20.6468 7.2123C20.8521 7.47085 21.0003 7.76994 21.0816 8.08991C21.5236 9.66791 20.3116 10.9829 18.9986 11.5369C16.1106 12.7559 12.6886 14.1899 9.19857 15.5889C8.54494 15.8609 7.84545 16.0058 7.13756 16.0159ZM4.86458 13.1919C5.72458 14.5189 6.99258 14.8579 8.64458 14.1919C12.1216 12.7919 15.5356 11.3659 18.4166 10.1499C19.0236 9.89391 19.8486 9.24092 19.6386 8.48992C19.6125 8.36954 19.5603 8.25635 19.4856 8.15837C19.411 8.0604 19.3157 7.98002 19.2066 7.92292C18.6135 7.71646 17.9645 7.74073 17.3886 7.99091C16.4286 8.33791 15.5006 8.74091 14.4726 9.19091C14.2036 9.33014 13.897 9.37898 13.5982 9.33016C13.2993 9.28134 13.0242 9.13747 12.8136 8.91991C11.6926 7.88691 10.5496 6.87992 9.40355 5.87592C8.85855 5.40092 8.52858 5.40191 8.30358 5.45691C7.98488 5.53911 7.67187 5.64199 7.36657 5.76491L9.31856 10.4959C9.3947 10.6787 9.39538 10.8842 9.32042 11.0675C9.24547 11.2507 9.10098 11.3969 8.91857 11.4739C8.31257 11.7259 7.42558 12.1029 6.53658 12.4809C5.94658 12.7329 5.36456 12.9799 4.86156 13.1919H4.86458Z" fill="black"/>
<path d="M12.3785 20.7324H5.10352C4.9046 20.7324 4.71383 20.6534 4.57318 20.5128C4.43253 20.3721 4.35352 20.1813 4.35352 19.9824C4.35352 19.7835 4.43253 19.5928 4.57318 19.4521C4.71383 19.3115 4.9046 19.2324 5.10352 19.2324H12.3785C12.5775 19.2324 12.7682 19.3115 12.9088 19.4521C13.0495 19.5928 13.1285 19.7835 13.1285 19.9824C13.1285 20.1813 13.0495 20.3721 12.9088 20.5128C12.7682 20.6534 12.5775 20.7324 12.3785 20.7324V20.7324Z" fill="black"/>
<path d="M20.0381 21.2992H17.6141C17.0965 21.2984 16.6003 21.0924 16.2343 20.7262C15.8684 20.3601 15.6626 19.8638 15.6621 19.3462V17.9862C15.6626 17.4686 15.8684 16.9723 16.2343 16.6062C16.6003 16.2401 17.0965 16.034 17.6141 16.0332H20.0381C20.5559 16.0337 21.0523 16.2397 21.4185 16.6058C21.7846 16.9719 21.9906 17.4684 21.9911 17.9862V19.3462C21.9906 19.864 21.7846 20.3605 21.4185 20.7266C21.0523 21.0928 20.5559 21.2987 20.0381 21.2992ZM17.6141 17.5332C17.4941 17.5335 17.3792 17.5813 17.2944 17.6662C17.2097 17.7512 17.1621 17.8662 17.1621 17.9862V19.3462C17.1621 19.4662 17.2097 19.5812 17.2944 19.6662C17.3792 19.7511 17.4941 19.7989 17.6141 19.7992H20.0381C20.1582 19.7992 20.2735 19.7515 20.3584 19.6665C20.4434 19.5816 20.4911 19.4663 20.4911 19.3462V17.9862C20.4911 17.8661 20.4434 17.7508 20.3584 17.6659C20.2735 17.5809 20.1582 17.5332 20.0381 17.5332H17.6141Z" fill="black"/>
<path d="M20.271 17.5554C20.0721 17.5554 19.8813 17.4764 19.7407 17.3358C19.6 17.1951 19.521 17.0043 19.521 16.8054V15.9054C19.5194 15.8156 19.5001 15.727 19.4642 15.6446C19.4284 15.5623 19.3767 15.4878 19.312 15.4254C19.1749 15.3007 18.9973 15.2297 18.812 15.2254C18.6308 15.2265 18.4573 15.2986 18.3288 15.4264C18.2003 15.5541 18.1271 15.7272 18.125 15.9084V16.8044C18.125 17.0033 18.046 17.1941 17.9053 17.3348C17.7647 17.4754 17.5739 17.5544 17.375 17.5544C17.1761 17.5544 16.9853 17.4754 16.8447 17.3348C16.704 17.1941 16.625 17.0033 16.625 16.8044V15.9044C16.6292 15.3304 16.8588 14.7809 17.2644 14.3746C17.6699 13.9683 18.2189 13.7377 18.793 13.7324C19.3751 13.7331 19.9348 13.9568 20.357 14.3574C20.5636 14.5588 20.7283 14.7991 20.8416 15.0644C20.9549 15.3298 21.0145 15.6149 21.017 15.9034V16.8034C21.0175 17.002 20.9393 17.1927 20.7995 17.3336C20.6596 17.4746 20.4696 17.5544 20.271 17.5554V17.5554Z" fill="black"/>
</svg>