<svg width="25" height="25" viewBox="0 0 25 25" fill="none" xmlns="http://www.w3.org/2000/svg">
<path d="M5.39453 20.3809H12.7745" stroke="black" stroke-width="1.5" stroke-linecap="round" stroke-linejoin="round"/>
<path d="M15.8574 18.4127L17.7012 20.2594L21.4996 16.459" stroke="black" stroke-width="1.5" stroke-linecap="round" stroke-linejoin="round"/>
<path d="M4.08887 13.1209C5.32646 12.6072 7.76953 11.5583 9.02755 11.0349C8.25795 9.17071 7.50392 7.34546 6.71972 5.44626C7.34533 5.22346 7.91645 4.96465 8.51578 4.82066C9.21533 4.65331 9.81759 4.97146 10.3332 5.42194C11.5144 6.45618 12.6926 7.49432 13.8475 8.55775C14.1394 8.82628 14.37 8.85158 14.7193 8.69883C15.7224 8.25614 16.7294 7.81442 17.7607 7.44275C18.9526 7.01174 20.6504 6.96698 21.0727 8.47116C21.4054 9.65718 20.3828 10.6681 19.3768 11.0923C17.873 11.7265 16.3683 12.3584 14.8614 12.9847" stroke="black" stroke-width="1.5" stroke-linecap="round" stroke-linejoin="round"/>
<path d="M3.5 11.7109C3.58951 11.925 3.93783 12.7715 4.02831 12.9845C5.04407 15.3673 6.93937 16.206 9.3338 15.2457C10.067 14.9514 10.7992 14.6549 11.5306 14.3566" stroke="black" stroke-width="1.5" stroke-linecap="round" stroke-linejoin="round"/>
</svg>