<svg width="24" height="24" viewBox="0 0 24 24" fill="none" xmlns="http://www.w3.org/2000/svg">
<path fill-rule="evenodd" clip-rule="evenodd" d="M19.0431 19.2598H4.9541C4.5401 19.2598 4.2041 19.5958 4.2041 20.0098C4.2041 20.4238 4.5401 20.7598 4.9541 20.7598H19.0431C19.4571 20.7598 19.7931 20.4238 19.7931 20.0098C19.7931 19.5958 19.4571 19.2598 19.0431 19.2598Z" fill="black"/>
<path opacity="0.4" fill-rule="evenodd" clip-rule="evenodd" d="M21.6553 7.55675C21.4603 6.85975 21.0343 6.32675 20.4253 6.01375C19.2493 5.40875 17.8483 5.80675 17.2993 6.00475C16.2133 6.39675 15.1633 6.85775 14.0693 7.29975C12.8463 6.16775 11.6143 5.08575 10.4673 4.08575C9.64628 3.36775 8.80128 3.10575 7.95128 3.30875C7.49128 3.41375 7.05828 3.57875 6.63928 3.73975C6.44328 3.81475 6.24528 3.88975 6.04028 3.96075C5.84428 4.02875 5.68628 4.17375 5.60128 4.36175C5.51628 4.55075 5.51228 4.76475 5.59228 4.95575L7.66128 9.97475C6.94428 10.2757 6.06328 10.6507 5.23428 11.0027L3.99928 11.5257C3.87628 11.2287 3.74328 10.9087 3.69328 10.7867C3.53728 10.4027 3.09828 10.2187 2.71628 10.3757C2.33228 10.5317 2.14828 10.9697 2.30428 11.3527C2.39528 11.5747 2.75428 12.4407 2.84828 12.6637C2.86528 12.7037 2.88228 12.7427 2.89928 12.7817C2.90228 12.7877 2.90428 12.7937 2.90728 12.7997C2.91528 12.8197 2.92428 12.8377 2.93328 12.8567C3.82428 14.7947 5.30128 15.8237 7.08828 15.8237C7.76328 15.8237 8.48328 15.6757 9.23328 15.3757C12.7863 13.9467 16.3493 12.4507 19.4993 11.1287C20.8573 10.5477 22.1123 9.18175 21.6553 7.55675Z" fill="black"/>
</svg>