<svg width="25" height="24" viewBox="0 0 25 24" fill="none" xmlns="http://www.w3.org/2000/svg">
<path fill-rule="evenodd" clip-rule="evenodd" d="M20.3531 11.2444C19.5956 11.4446 19.0381 12.1355 19.0381 12.9547C19.0381 13.9317 19.8301 14.7237 20.807 14.7237C20.997 14.7237 21.1786 14.694 21.3482 14.6396L21.8064 16.0679C21.4905 16.1692 21.1544 16.2237 20.807 16.2237C19.0016 16.2237 17.5381 14.7601 17.5381 12.9547C17.5381 11.4379 18.5705 10.1641 19.9697 9.79419L20.3531 11.2444Z" fill="black"/>
<path fill-rule="evenodd" clip-rule="evenodd" d="M12.5548 12.1924C14.1224 11.6853 14.982 10.0035 14.4749 8.43597L15.9021 7.97428C16.6642 10.33 15.3723 12.8575 13.0165 13.6196C11.6184 14.0719 10.1595 13.8 9.0472 13.0141L9.91278 11.789C10.6558 12.314 11.6253 12.4932 12.5548 12.1924Z" fill="black"/>
<path fill-rule="evenodd" clip-rule="evenodd" d="M11.5835 17.6326C11.0418 17.6326 10.5575 17.8751 10.2319 18.2603L9.08643 17.2918C9.6849 16.584 10.5819 16.1326 11.5835 16.1326C13.3889 16.1326 14.8524 17.5961 14.8524 19.4015C14.8524 20.0801 14.6449 20.7125 14.2896 21.2358L13.0486 20.3933C13.2404 20.1107 13.3524 19.7703 13.3524 19.4015C13.3524 18.4246 12.5605 17.6326 11.5835 17.6326Z" fill="black"/>
<path fill-rule="evenodd" clip-rule="evenodd" d="M15.219 8.94043C12.0959 8.94043 9.56421 11.4722 9.56421 14.5952C9.56421 17.7182 12.0959 20.25 15.219 20.25C18.342 20.25 20.8737 17.7182 20.8737 14.5952C20.8737 11.4722 18.342 8.94043 15.219 8.94043ZM8.06421 14.5952C8.06421 10.6437 11.2675 7.44043 15.219 7.44043C19.1704 7.44043 22.3737 10.6437 22.3737 14.5952C22.3737 18.5467 19.1704 21.75 15.219 21.75C11.2675 21.75 8.06421 18.5467 8.06421 14.5952Z" fill="black"/>
<path fill-rule="evenodd" clip-rule="evenodd" d="M16.8635 16.1958C17.2777 16.1958 17.6135 16.5316 17.6135 16.9458V16.9582C17.6135 17.3724 17.2777 17.7082 16.8635 17.7082C16.4493 17.7082 16.1135 17.3724 16.1135 16.9582V16.9458C16.1135 16.5316 16.4493 16.1958 16.8635 16.1958Z" fill="black"/>
<path fill-rule="evenodd" clip-rule="evenodd" d="M7.06423 3.75C6.04513 3.75 5.21899 4.57614 5.21899 5.59524C5.21899 6.61433 6.04513 7.44047 7.06423 7.44047C8.08333 7.44047 8.90947 6.61433 8.90947 5.59524C8.90947 4.57614 8.08333 3.75 7.06423 3.75ZM3.71899 5.59524C3.71899 3.74771 5.21671 2.25 7.06423 2.25C8.91175 2.25 10.4095 3.74771 10.4095 5.59524C10.4095 7.44276 8.91175 8.94047 7.06423 8.94047C5.21671 8.94047 3.71899 7.44276 3.71899 5.59524Z" fill="black"/>
<path fill-rule="evenodd" clip-rule="evenodd" d="M4.99048 18.978C4.63923 18.978 4.35449 19.2628 4.35449 19.614C4.35449 19.9653 4.63923 20.25 4.99048 20.25C5.34172 20.25 5.62646 19.9653 5.62646 19.614C5.62646 19.2628 5.34172 18.978 4.99048 18.978ZM2.85449 19.614C2.85449 18.4343 3.81081 17.478 4.99048 17.478C6.17015 17.478 7.12646 18.4343 7.12646 19.614C7.12646 20.7937 6.17015 21.75 4.99048 21.75C3.81081 21.75 2.85449 20.7937 2.85449 19.614Z" fill="black"/>
</svg>