<svg width="24" height="25" viewBox="0 0 24 25" fill="none" xmlns="http://www.w3.org/2000/svg">
<path d="M3.58183 13.1151C4.80485 12.6072 7.21974 11.57 8.46319 11.0534C7.70233 9.21058 6.95704 7.40671 6.18256 5.52986C6.8004 5.30997 7.36472 5.05408 7.95725 4.91203C8.64903 4.74663 9.24448 5.05992 9.75334 5.50554C10.9209 6.52812 12.0855 7.55363 13.2268 8.6054C13.5158 8.87102 13.7435 8.89632 14.0879 8.74356C15.0803 8.3067 16.0757 7.87081 17.0944 7.50206C18.2726 7.07687 19.951 7.03309 20.3674 8.51881C20.6963 9.69123 19.6863 10.6905 18.692 11.1098C15.3926 12.5011 12.0885 13.8818 8.76578 15.2147C6.39954 16.1644 4.52658 15.3354 3.52248 12.9808C3.432 12.7697 3.08757 11.9339 3 11.7208" stroke="black" stroke-width="1.5" stroke-linecap="round" stroke-linejoin="round"/>
<path d="M4.89453 20.3809H12.2745" stroke="black" stroke-width="1.5" stroke-linecap="round" stroke-linejoin="round"/>
<path d="M15.3574 18.4127L17.2012 20.2594L20.9996 16.459" stroke="black" stroke-width="1.5" stroke-linecap="round" stroke-linejoin="round"/>
</svg>