<svg width="24" height="25" viewBox="0 0 24 25" fill="none" xmlns="http://www.w3.org/2000/svg">
<path d="M3.6008 12.9541C4.86378 12.4298 7.35754 11.359 8.64066 10.8246C7.85569 8.9226 7.08683 7.05982 6.28678 5.12057C6.9238 4.89414 7.50749 4.62946 8.11936 4.48253C8.83287 4.31246 9.44776 4.6355 9.97408 5.09641C11.1797 6.15209 12.3823 7.21078 13.5608 8.29664C13.8586 8.57138 14.0941 8.59654 14.4504 8.43955C15.4749 7.98769 16.5023 7.53785 17.555 7.15845C18.7717 6.71867 20.5046 6.67338 20.9344 8.20808C21.2745 9.41874 20.2319 10.4503 19.2044 10.883C15.7979 12.3201 12.3853 13.7461 8.95464 15.1228C6.51019 16.103 4.57596 15.2466 3.53941 12.8152C3.44682 12.5978 3.09057 11.7344 3 11.515" stroke="black" stroke-width="1.5" stroke-linecap="round" stroke-linejoin="round"/>
<path d="M4.95312 20.457H12.5743" stroke="black" stroke-width="1.5" stroke-linecap="round" stroke-linejoin="round"/>
<path fill-rule="evenodd" clip-rule="evenodd" d="M18.5547 20.8121C18.5547 20.8121 20.978 20.0785 20.978 18.0557C20.978 16.0319 21.0666 15.8759 20.8713 15.6797C20.6771 15.4834 18.8727 14.8555 18.5547 14.8555C18.2367 14.8555 16.4323 15.4855 16.238 15.6797C16.0428 15.8739 16.1314 16.0319 16.1314 18.0557C16.1314 20.0785 18.5547 20.8121 18.5547 20.8121Z" stroke="black" stroke-width="1.5" stroke-linecap="round" stroke-linejoin="round"/>
</svg>