<svg width="24" height="25" viewBox="0 0 24 25" fill="none" xmlns="http://www.w3.org/2000/svg">
<path fill-rule="evenodd" clip-rule="evenodd" d="M20.3465 8.34836C21.4345 7.13236 22.0505 5.26536 20.8315 4.04236C19.6095 2.81536 17.7435 3.43136 16.5245 4.52436C15.6605 5.30536 14.8385 6.14636 14.0435 6.96036L13.9135 7.09336C13.7625 7.25436 13.7305 7.26836 13.5095 7.18736C11.8015 6.54336 10.0765 5.94436 8.61746 5.44436C7.60846 5.09036 6.74646 5.15836 6.06246 5.64736C5.64446 5.94236 5.28346 6.28036 4.90246 6.63936C4.75246 6.77936 4.60146 6.92136 4.44346 7.06336C4.34246 7.15436 4.28246 7.28336 4.27746 7.42036C4.27346 7.55636 4.32546 7.68836 4.42146 7.78636L8.76946 12.2034L6.99946 14.3314L4.50546 14.0884C4.35646 14.0774 4.20846 14.1264 4.10246 14.2324L2.64446 15.6924C2.53646 15.8014 2.48346 15.9534 2.50246 16.1064C2.52146 16.2594 2.60946 16.3944 2.74146 16.4744L6.27846 18.5994L8.40146 22.1334C8.48046 22.2654 8.61646 22.3534 8.76946 22.3714C8.78946 22.3744 8.80946 22.3754 8.82946 22.3754C8.96146 22.3754 9.08946 22.3234 9.18346 22.2294L10.6415 20.7694C10.7475 20.6624 10.8005 20.5144 10.7855 20.3644L10.5255 17.8604L12.6655 16.0984C13.5055 16.9234 15.7895 19.1704 17.0875 20.4514C17.1845 20.5474 17.3225 20.5954 17.4535 20.5954C17.5905 20.5914 17.7195 20.5314 17.8105 20.4304C17.9505 20.2744 18.0915 20.1244 18.2305 19.9754C18.5735 19.6104 18.9275 19.2324 19.2275 18.8144C19.7215 18.1184 19.7875 17.2824 19.4315 16.2624C18.9175 14.7744 18.3175 13.0454 17.6845 11.3694C17.6055 11.1584 17.6155 11.1164 17.7835 10.9544C18.6275 10.1344 19.5215 9.25836 20.3465 8.34836Z" fill="black"/>
</svg>