<svg width="25" height="24" viewBox="0 0 25 24" fill="none" xmlns="http://www.w3.org/2000/svg">
<path d="M18.576 15.2094H18.57C15.232 15.2094 11.2891 15.1964 7.36206 15.1254C4.32706 15.0714 2.50805 13.1954 2.49805 10.1064C2.49805 9.87544 2.50505 9.00644 2.50705 8.71544C2.51308 8.52267 2.59303 8.33962 2.73035 8.2042C2.86767 8.06878 3.05183 7.99138 3.24466 7.98804C3.43749 7.9847 3.62421 8.05567 3.76614 8.18625C3.90807 8.31682 3.99434 8.497 4.00705 8.68944C4.00705 8.86644 4.00206 9.20244 4.00006 9.50944H5.96005C6.68505 9.50944 7.41405 9.50944 8.02805 9.50944L8.07306 4.02744C8.07398 3.92577 8.0955 3.82534 8.13638 3.73224C8.17727 3.63915 8.23664 3.55532 8.31088 3.48585C8.38512 3.41637 8.4727 3.36271 8.5683 3.32808C8.6639 3.29346 8.76552 3.27861 8.86703 3.28444C9.07603 3.29644 9.28104 3.30344 9.48404 3.31044C9.95824 3.31602 10.4316 3.35243 10.9011 3.41944C11.356 3.51238 11.7805 3.7176 12.1359 4.01642C12.4913 4.31525 12.7664 4.6982 12.936 5.13044C13.645 6.59244 14.3501 8.05444 15.0211 9.53044C14.9971 9.56844 15.021 9.57744 15.097 9.57344C16.37 9.55244 17.431 9.54344 18.54 9.60244C19.6306 9.61793 20.6717 10.0602 21.44 10.8344C21.6589 11.0978 21.8197 11.4045 21.9119 11.7343C22.0041 12.0641 22.0256 12.4097 21.975 12.7484C21.758 14.4404 20.062 15.2094 18.576 15.2094ZM4.07605 11.0094C4.36505 12.6914 5.49804 13.5914 7.39304 13.6254C11.309 13.6964 15.243 13.7074 18.576 13.7094C19.287 13.7094 20.376 13.4034 20.488 12.5574C20.5122 12.4234 20.5069 12.2856 20.4724 12.1538C20.4378 12.0221 20.3749 11.8994 20.2881 11.7944C19.7887 11.3391 19.1358 11.089 18.4601 11.0944C17.3991 11.0374 16.36 11.0464 15.122 11.0674C14.8117 11.0892 14.5025 11.0117 14.2392 10.8462C13.9758 10.6806 13.7719 10.4355 13.657 10.1464C12.99 8.67844 12.2911 7.22744 11.5861 5.77844C11.2441 5.07244 10.909 4.93344 10.656 4.89144C10.2954 4.8416 9.93207 4.81422 9.56805 4.80944L9.52304 10.2634C9.52146 10.4613 9.44175 10.6505 9.30127 10.7899C9.16079 10.9292 8.97092 11.0074 8.77304 11.0074V11.0074C8.06304 11.0074 7.01105 11.0074 5.97305 11.0074C5.30105 11.0094 4.64805 11.0094 4.07205 11.0094H4.07605Z" fill="black"/>
<path d="M19.0042 20.7168H5.49414C5.29523 20.7168 5.10446 20.6378 4.96381 20.4971C4.82315 20.3565 4.74414 20.1657 4.74414 19.9668C4.74414 19.7679 4.82315 19.5771 4.96381 19.4365C5.10446 19.2958 5.29523 19.2168 5.49414 19.2168H19.0042C19.2031 19.2168 19.3938 19.2958 19.5345 19.4365C19.6751 19.5771 19.7542 19.7679 19.7542 19.9668C19.7542 20.1657 19.6751 20.3565 19.5345 20.4971C19.3938 20.6378 19.2031 20.7168 19.0042 20.7168Z" fill="black"/>
</svg>