<svg width="25" height="24" viewBox="0 0 25 24" fill="none" xmlns="http://www.w3.org/2000/svg">
<path d="M9.48799 9.81934C8.39826 10.3243 7.31729 10.8371 6.24508 11.3693C5.65059 11.6573 5.14562 12.0718 5.02886 12.747C4.92962 13.3327 4.94811 13.936 4.91113 14.5762C6.88432 14.5947 8.7855 14.6034 10.7227 14.6209L11.0019 17.6576L9.13675 19.1978V20.9997L12.7406 20.0988L16.3435 20.9997V19.1978L14.4521 17.6576L14.7041 15.0354" stroke="black" stroke-width="1.5" stroke-linecap="round" stroke-linejoin="round"/>
<path d="M4.43945 4.76562L19.97 20.2962" stroke="black" stroke-width="1.5" stroke-linecap="round" stroke-linejoin="round"/>
<path opacity="0.4" d="M10.7676 7.06313C10.7763 6.5494 10.7861 6.0454 10.8123 5.54043C10.8668 4.45946 11.4428 3 12.7408 3C14.029 3 14.605 4.45946 14.6595 5.54043C14.7139 6.59416 14.7042 7.64886 14.6867 8.70258C14.6779 9.07134 14.7859 9.26983 15.1372 9.42356C16.5149 10.054 17.8761 10.703 19.2266 11.3695C19.822 11.6575 20.326 12.072 20.4428 12.7472C20.542 13.333 20.5245 13.9362 20.5605 14.5764C19.9388 14.5852 19.1186 14.5852 18.2993 14.5949" stroke="black" stroke-width="1.5" stroke-linecap="round" stroke-linejoin="round"/>
</svg>