<svg width="25" height="24" viewBox="0 0 25 24" fill="none" xmlns="http://www.w3.org/2000/svg">
<path d="M4.02148 3.52146C5.06776 2.47415 6.71501 3.19366 7.63862 4.0245C8.53543 4.8306 9.37967 5.69649 10.2198 6.5634C10.5115 6.86543 10.7579 6.9345 11.1661 6.78091C12.7834 6.17478 14.4152 5.60474 16.047 5.03882C16.7593 4.79246 17.5046 4.71824 18.1478 5.17798C18.7003 5.57279 19.1755 6.07376 19.7208 6.55928C18.1354 8.17148 16.6119 9.71977 15.0554 11.3021L17.284 13.9832L20.0424 13.7101L21.5 15.1676L17.8561 17.355" stroke="black" stroke-width="1.5" stroke-linecap="round" stroke-linejoin="round"/>
<path opacity="0.4" d="M4.021 3.52148C2.97472 4.56673 3.6932 6.21398 4.52404 7.13759C5.33117 8.0344 6.19706 8.87864 7.06398 9.71979C7.36498 10.0105 7.43507 10.2568 7.28148 10.6661C6.67433 12.2834 6.10532 13.9142 5.5394 15.547C5.292 16.2593 5.21881 17.0046 5.67856 17.6478C6.07336 18.1993 6.57331 18.6755 7.05985 19.2208C8.67102 17.6344 11.8026 14.5543 11.8026 14.5543L14.4972 16.7695L14.2106 19.5414L15.6682 21L17.8556 17.3551" stroke="black" stroke-width="1.5" stroke-linecap="round" stroke-linejoin="round"/>
</svg>