<svg width="24" height="25" viewBox="0 0 24 25" fill="none" xmlns="http://www.w3.org/2000/svg">
<path d="M3.57209 12.9291C4.77466 12.43 7.14768 11.4103 8.36971 10.9024C7.62248 9.09176 6.88985 7.31808 6.12803 5.47239C6.73515 5.2564 7.2907 5.00538 7.8735 4.86527C8.55262 4.70279 9.13833 5.01121 9.63843 5.45001C10.7865 6.4541 11.9307 7.46207 13.0525 8.49535C13.3366 8.75707 13.5604 8.78139 13.899 8.63253C14.8748 8.20249 15.8527 7.77439 16.8548 7.41245C18.0126 6.99408 19.6618 6.9503 20.0723 8.4107C20.3954 9.56364 19.4029 10.5453 18.4251 10.9579C15.1823 12.3258 11.9346 13.6831 8.6684 14.9937C6.34111 15.9267 4.50029 15.1124 3.51372 12.7968C3.42518 12.5895 3.08659 11.7674 3 11.5592" stroke="black" stroke-width="1.5" stroke-linecap="round" stroke-linejoin="round"/>
<path fill-rule="evenodd" clip-rule="evenodd" d="M18.2497 14.9336L18.9746 16.3911C19.0106 16.465 19.0806 16.5156 19.1624 16.5282L20.7843 16.7618C20.8495 16.7715 20.9088 16.8055 20.9497 16.8581C21.0246 16.9563 21.0139 17.0964 20.9224 17.1811L19.7471 18.3185C19.6877 18.3739 19.6605 18.4566 19.6761 18.5374L19.9582 20.1418C19.9777 20.2741 19.8862 20.3986 19.7539 20.42C19.6985 20.4288 19.642 20.42 19.5924 20.3947L18.1476 19.6378C18.0756 19.5989 17.988 19.5989 17.916 19.6378L16.4605 20.3996C16.3389 20.4609 16.19 20.4152 16.1229 20.2965C16.0985 20.2478 16.0888 20.1933 16.0976 20.1398L16.3797 18.5354C16.3933 18.4557 16.3671 18.3739 16.3087 18.3165L15.1266 17.1801C15.0312 17.0838 15.0302 16.9281 15.1266 16.8318C15.1665 16.7958 15.2151 16.7725 15.2686 16.7627L16.8905 16.5273C16.9713 16.5146 17.0413 16.4631 17.0783 16.3901L17.8022 14.9336C17.8314 14.8742 17.8829 14.8295 17.9452 14.809C18.0084 14.7876 18.0775 14.7925 18.1369 14.8227C18.1855 14.847 18.2244 14.8859 18.2497 14.9336Z" stroke="black" stroke-width="1.5" stroke-linecap="round" stroke-linejoin="round"/>
<path d="M4.86133 20.0713H12.1156" stroke="black" stroke-width="1.5" stroke-linecap="round" stroke-linejoin="round"/>
</svg>