<svg width="25" height="24" viewBox="0 0 25 24" fill="none" xmlns="http://www.w3.org/2000/svg">
<path d="M5.73633 21H19.8619" stroke="black" stroke-width="1.5" stroke-linecap="round" stroke-linejoin="round"/>
<path d="M4.91895 6.67585C6.15731 7.18771 8.62646 8.17358 9.88615 8.69301C10.6601 6.83065 11.4176 5.00682 12.206 3.10938C12.8059 3.3942 13.3928 3.61504 13.9184 3.93701C14.5314 4.31334 14.7323 4.96416 14.7784 5.64733C14.8822 7.21385 14.9813 8.78107 15.046 10.3497C15.0625 10.7459 15.2077 10.9269 15.5627 11.0658C16.585 11.4621 17.6094 11.8618 18.6015 12.3283C19.749 12.8663 20.9812 14.0352 20.2161 15.3974C19.6128 16.4713 18.1749 16.463 17.1636 16.0516C15.6517 15.4367 14.141 14.8196 12.6326 14.1969" stroke="black" stroke-width="1.5" stroke-linecap="round" stroke-linejoin="round"/>
<path d="M5.49845 5.26172C5.41039 5.47637 5.05814 6.32121 4.97146 6.53585C4.00485 8.93896 4.75199 10.8722 7.12414 11.8863C7.85065 12.1966 8.57804 12.5048 9.30618 12.811" stroke="black" stroke-width="1.5" stroke-linecap="round" stroke-linejoin="round"/>
</svg>