<svg width="24" height="25" viewBox="0 0 24 25" fill="none" xmlns="http://www.w3.org/2000/svg">
<path fill-rule="evenodd" clip-rule="evenodd" d="M8.95008 15.5578C11.8661 14.3888 14.9701 13.1068 18.7181 11.5228C20.0721 10.9548 21.2211 9.58984 20.7971 8.07884C20.6071 7.40484 20.1961 6.88784 19.6061 6.58484C18.4771 6.00584 17.1291 6.38584 16.6041 6.57584C15.5851 6.94184 14.6011 7.37384 13.5681 7.82384L13.5661 7.82184C12.3361 6.68184 11.0861 5.58484 10.1371 4.75884C9.34008 4.05784 8.52108 3.80684 7.70108 4.01284C7.26508 4.11684 6.85208 4.27284 6.45308 4.42384C6.26708 4.49484 6.07908 4.56584 5.88608 4.63284C5.69008 4.70084 5.53208 4.84484 5.44708 5.03384C5.36208 5.22184 5.35908 5.43584 5.43708 5.62684L7.39508 10.3698C6.90808 10.5748 6.34408 10.8148 5.77708 11.0558C5.14708 11.3238 4.51308 11.5938 3.97508 11.8208C3.90908 11.6618 3.84208 11.4988 3.78808 11.3678L3.69608 11.1448C3.53708 10.7628 3.10008 10.5788 2.71608 10.7388C2.33308 10.8968 2.15108 11.3358 2.31008 11.7178L2.40208 11.9398C2.53808 12.2708 2.75708 12.8018 2.82708 12.9658C3.67108 14.9428 5.12008 15.9918 6.88408 15.9918C7.53508 15.9918 8.22808 15.8488 8.95008 15.5578Z" fill="black"/>
<path fill-rule="evenodd" clip-rule="evenodd" d="M19.2665 17.6183C19.0015 17.8413 18.8765 18.1973 18.9395 18.5423L19.0435 19.1303L18.5165 18.8563C18.2185 18.6893 17.8495 18.6903 17.5715 18.8463L17.0165 19.1363L17.1225 18.5343C17.1795 18.1903 17.0555 17.8413 16.8325 17.6513L16.3925 17.2273L17.0765 17.1293C17.3655 17.0563 17.6085 16.8683 17.7525 16.5943L18.0295 16.0363L18.2925 16.5663C18.4345 16.8853 18.7255 17.1013 19.0595 17.1443L19.6655 17.2303L19.2665 17.6183ZM21.5345 16.2573C21.3705 16.0573 21.1455 15.9273 20.8925 15.8893L19.5345 15.6963L18.9245 14.4683C18.9125 14.4423 18.8975 14.4183 18.8825 14.3943C18.7935 14.2563 18.6715 14.1373 18.4775 14.0213C18.2485 13.9063 17.9795 13.8863 17.7175 13.9673C17.4565 14.0523 17.2485 14.2313 17.1325 14.4683L16.5245 15.6963L15.1395 15.8933C14.9765 15.9223 14.8205 15.9933 14.6755 16.1053C14.6455 16.1273 14.6175 16.1523 14.5915 16.1793C14.2145 16.5673 14.2135 17.1783 14.6095 17.5913L15.5985 18.5433L15.3635 19.8743C15.3255 20.0793 15.3555 20.3013 15.4705 20.5363C15.6515 20.8613 15.9885 21.0473 16.3435 21.0473C16.4995 21.0473 16.6585 21.0113 16.8095 20.9363L18.0355 20.2963L19.2075 20.9043C19.4115 21.0263 19.6525 21.0713 19.8695 21.0333C20.1305 20.9933 20.3615 20.8533 20.5185 20.6383C20.6755 20.4263 20.7425 20.1553 20.6995 19.8813L20.4635 18.5443L21.4165 17.6183C21.8025 17.2833 21.8625 16.6963 21.5345 16.2573Z" fill="black"/>
<path fill-rule="evenodd" clip-rule="evenodd" d="M12.119 19.1917H4.86401C4.45001 19.1917 4.11401 19.5277 4.11401 19.9417C4.11401 20.3557 4.45001 20.6917 4.86401 20.6917H12.119C12.533 20.6917 12.869 20.3557 12.869 19.9417C12.869 19.5277 12.533 19.1917 12.119 19.1917Z" fill="black"/>
</svg>