<svg width="24" height="24" viewBox="0 0 24 24" fill="none" xmlns="http://www.w3.org/2000/svg">
<path fill-rule="evenodd" clip-rule="evenodd" d="M4.59471 4.23928C4.30171 3.94628 3.82671 3.94628 3.53371 4.23928C3.24071 4.53228 3.24071 5.00728 3.53371 5.30028L8.02171 9.78728C7.22771 10.1603 6.43371 10.5333 5.65171 10.9203C4.77771 11.3463 4.29071 11.9173 4.16171 12.6663C4.08771 13.0963 4.07371 13.5393 4.06071 13.9673C4.05471 14.1583 4.04871 14.3533 4.03771 14.5513C4.02971 14.6873 4.11371 14.8223 4.20771 14.9223C4.30171 15.0223 4.46871 15.0793 4.60571 15.0803C6.39871 15.0893 8.13472 15.0983 9.89172 15.1153L10.1057 17.4423L8.44472 18.8143C8.32871 18.9093 8.26271 19.0513 8.26271 19.1993V21.0003C8.26271 21.1543 8.33371 21.2993 8.45471 21.3943C8.54372 21.4633 8.65271 21.5003 8.76271 21.5003C8.80271 21.5003 8.84371 21.4953 8.88371 21.4853L12.3667 20.6143L15.8477 21.4853C15.9977 21.5253 16.1557 21.4893 16.2767 21.3943C16.3987 21.2993 16.4697 21.1543 16.4697 21.0003V19.1993C16.4697 19.0493 16.4017 18.9063 16.2847 18.8123L14.6007 17.4413L14.6957 16.4603L19.0657 20.8303C19.2117 20.9763 19.4037 21.0503 19.5957 21.0503C19.7877 21.0503 19.9797 20.9763 20.1257 20.8303C20.4187 20.5373 20.4187 20.0623 20.1257 19.7693L4.59471 4.23928Z" fill="black"/>
<path opacity="0.4" fill-rule="evenodd" clip-rule="evenodd" d="M20.6631 13.98C20.6491 13.548 20.6361 13.101 20.5611 12.666C20.4331 11.917 19.9461 11.346 19.0751 10.922C17.6961 10.238 16.3161 9.58 14.9591 8.96C14.8131 8.898 14.8081 8.896 14.8121 8.708C14.8291 7.687 14.8401 6.6 14.7841 5.515C14.7091 4.017 13.8541 2.5 12.3671 2.5C10.8731 2.5 10.0151 4.017 9.93808 5.515C9.91208 6.03 9.90108 6.536 9.89308 7.052C9.89208 7.19 9.94708 7.324 10.0471 7.42L17.8791 14.95C17.9721 15.04 18.0961 15.09 18.2251 15.09C19.0491 15.09 19.5701 15.09 20.1951 15.08C20.3311 15.077 20.4601 15.02 20.5531 14.92C20.6451 14.82 20.6931 14.688 20.6851 14.551C20.6751 14.358 20.6691 14.167 20.6631 13.98Z" fill="black"/>
</svg>