<svg width="24" height="25" viewBox="0 0 24 25" fill="none" xmlns="http://www.w3.org/2000/svg">
<path fill-rule="evenodd" clip-rule="evenodd" d="M12.2739 19.6309H4.8949C4.4809 19.6309 4.1449 19.9669 4.1449 20.3809C4.1449 20.7949 4.4809 21.1309 4.8949 21.1309H12.2739C12.6879 21.1309 13.0239 20.7949 13.0239 20.3809C13.0239 19.9669 12.6879 19.6309 12.2739 19.6309Z" fill="black"/>
<path fill-rule="evenodd" clip-rule="evenodd" d="M21.5303 15.9307C21.2373 15.6377 20.7623 15.6377 20.4693 15.9307L17.2023 19.1997L15.8883 17.8817C15.5953 17.5877 15.1203 17.5867 14.8273 17.8797C14.5343 18.1717 14.5333 18.6467 14.8253 18.9397L16.6703 20.7897C16.8103 20.9307 17.0013 21.0107 17.2003 21.0107C17.3993 21.0107 17.5913 20.9317 17.7313 20.7907L21.5303 16.9917C21.8233 16.6987 21.8233 16.2237 21.5303 15.9307Z" fill="black"/>
<path opacity="0.4" fill-rule="evenodd" clip-rule="evenodd" d="M9.04498 15.9076C12.521 14.5156 16.019 13.0516 18.984 11.8026C20.312 11.2406 21.537 9.91063 21.089 8.31963C20.899 7.63863 20.486 7.11663 19.894 6.80963C18.756 6.22063 17.381 6.60263 16.838 6.79663C15.892 7.13963 14.962 7.54363 14.063 7.93463L13.79 8.05363C13.787 8.05363 13.767 8.06163 13.746 8.07063C13.744 8.06763 13.741 8.06463 13.737 8.06163C12.542 6.95063 11.269 5.83963 10.25 4.94963C9.45498 4.24663 8.62998 3.98863 7.78398 4.18063C7.32798 4.28963 6.89698 4.45563 6.48098 4.61763C6.29998 4.68763 6.11798 4.75863 5.93098 4.82463C5.73798 4.89363 5.58098 5.03863 5.49798 5.22663C5.41498 5.41363 5.41198 5.62663 5.48998 5.81663L7.48498 10.6496C6.99198 10.8586 6.42098 11.1016 5.84498 11.3466C5.19398 11.6246 4.53798 11.9046 3.98398 12.1386C3.94998 12.0556 3.91498 11.9706 3.88198 11.8906L3.69198 11.4316C3.53198 11.0496 3.09398 10.8696 2.71098 11.0296C2.32798 11.1896 2.14898 11.6286 2.30798 12.0106L2.49498 12.4626C2.62498 12.7776 2.77698 13.1456 2.83198 13.2746C2.84798 13.3116 2.86398 13.3496 2.87998 13.3866C2.88298 13.3936 2.88698 13.4016 2.88998 13.4096C2.89898 13.4316 2.90898 13.4526 2.91998 13.4736C3.78498 15.3506 5.21798 16.3446 6.95198 16.3446C7.61098 16.3446 8.31398 16.2006 9.04498 15.9076Z" fill="black"/>
</svg>