<svg width="24" height="25" viewBox="0 0 24 25" fill="none" xmlns="http://www.w3.org/2000/svg">
<path fill-rule="evenodd" clip-rule="evenodd" d="M20.7624 14.8444C20.4824 13.9694 19.6564 13.1384 18.5484 12.6204C17.5184 12.1434 16.4494 11.7244 15.3444 11.2504C15.2794 9.63436 15.1764 8.02836 15.0704 6.42036C14.9964 5.32136 14.5794 4.53336 13.8344 4.08136C13.4164 3.82536 12.9744 3.62836 12.5454 3.43636C12.3694 3.35836 12.1914 3.27836 12.0114 3.19336C11.8264 3.10536 11.6134 3.09736 11.4204 3.17136C11.2294 3.24436 11.0764 3.39336 10.9974 3.58336L8.90941 8.60536C8.32141 8.36536 7.61941 8.08236 6.92741 7.80336C6.32141 7.55936 5.72241 7.31736 5.20941 7.10936L5.52141 6.35436C5.67741 5.97036 5.49341 5.53236 5.11041 5.37636C4.72841 5.21936 4.28841 5.40336 4.13241 5.78736L3.59041 7.10136C2.44941 9.94536 3.42241 12.3524 6.19641 13.5404C9.15341 14.8064 12.4204 16.1624 16.4804 17.8054C16.9764 18.0074 17.5334 18.1254 18.0844 18.1254C19.0584 18.1254 20.0084 17.7544 20.5384 16.8084C20.8944 16.1774 20.9724 15.4974 20.7624 14.8444Z" fill="black"/>
<path fill-rule="evenodd" clip-rule="evenodd" d="M19.36 21.1212H5.23401C4.82001 21.1212 4.48401 21.4572 4.48401 21.8712C4.48401 22.2852 4.82001 22.6212 5.23401 22.6212H19.36C19.774 22.6212 20.11 22.2852 20.11 21.8712C20.11 21.4572 19.774 21.1212 19.36 21.1212Z" fill="black"/>
</svg>