<svg width="25" height="25" viewBox="0 0 25 25" fill="none" xmlns="http://www.w3.org/2000/svg">
<path d="M7.33612 16.2599C6.39012 16.2359 5.47474 15.9196 4.71585 15.3543C3.95696 14.7889 3.39183 14.0024 3.09811 13.1029C3.02011 12.9199 2.7601 12.2889 2.6221 11.9539L2.55612 11.7949C2.51843 11.7039 2.49902 11.6063 2.49902 11.5078C2.49903 11.4093 2.51845 11.3118 2.55615 11.2208C2.63229 11.037 2.77833 10.891 2.96213 10.8149C3.14592 10.7388 3.35241 10.7388 3.53619 10.8149C3.71998 10.891 3.86599 11.0371 3.94211 11.2209L4.00812 11.3819C4.07312 11.5379 4.16412 11.7589 4.25012 11.9669C4.79612 11.7369 5.44112 11.4669 6.08612 11.1889L7.91211 10.4149L5.84311 5.39987C5.80431 5.30598 5.78502 5.20518 5.78641 5.1036C5.7878 5.00202 5.80985 4.90179 5.8512 4.809C5.89254 4.71621 5.95232 4.6328 6.02692 4.56384C6.10151 4.49488 6.18937 4.44182 6.28513 4.40788C6.48013 4.33788 6.66911 4.26488 6.85611 4.19288C7.29168 4.01523 7.73828 3.86591 8.19312 3.74587C8.64549 3.65468 9.11351 3.67828 9.55441 3.81454C9.99532 3.95079 10.395 4.19535 10.7171 4.52587C11.9281 5.58587 13.1341 6.64788 14.3171 7.73788C15.3021 7.34588 16.4311 6.84888 17.5491 6.44688C18.5522 6.04002 19.6748 6.04252 20.6761 6.45387C20.9782 6.61051 21.2437 6.82922 21.4553 7.09565C21.6669 7.36208 21.8199 7.67021 21.9041 7.99987C22.3651 9.63387 21.1041 10.9939 19.7431 11.5669C16.7111 12.8469 13.1201 14.3529 9.48212 15.8119C8.80194 16.0968 8.07349 16.2489 7.33612 16.2599V16.2599ZM4.89713 13.3219C5.80813 14.7579 7.16111 15.1279 8.92511 14.4219C12.5511 12.9679 16.1351 11.4659 19.1621 10.1879C19.8101 9.91488 20.6891 9.21788 20.4621 8.40788C20.4336 8.2768 20.3767 8.15357 20.2953 8.04695C20.2139 7.94032 20.1101 7.8529 19.9911 7.79087C19.3617 7.57013 18.6722 7.59476 18.0601 7.85987C17.0691 8.21687 16.1291 8.62487 15.0031 9.12187C14.7275 9.26431 14.4133 9.31419 14.1071 9.26412C13.8009 9.21405 13.519 9.06669 13.3031 8.84387C12.1291 7.76287 10.9331 6.70888 9.73111 5.65788C9.14911 5.14788 8.79113 5.14988 8.54413 5.20788C8.19819 5.29849 7.85848 5.41139 7.52713 5.54588L9.58511 10.5349C9.661 10.7184 9.66098 10.9246 9.58505 11.1081C9.50913 11.2917 9.3635 11.4376 9.18011 11.5139C8.54411 11.7779 7.60911 12.1759 6.68011 12.5729C6.04911 12.8329 5.43113 13.0969 4.89713 13.3219V13.3219Z" fill="black"/>
<path d="M12.8232 21.2041H5.20215C5.00324 21.2041 4.81247 21.1251 4.67181 20.9844C4.53116 20.8438 4.45215 20.653 4.45215 20.4541C4.45215 20.2552 4.53116 20.0644 4.67181 19.9238C4.81247 19.7831 5.00324 19.7041 5.20215 19.7041H12.8232C13.0221 19.7041 13.2128 19.7831 13.3535 19.9238C13.4941 20.0644 13.5732 20.2552 13.5732 20.4541C13.5732 20.653 13.4941 20.8438 13.3535 20.9844C13.2128 21.1251 13.0221 21.2041 12.8232 21.2041Z" fill="black"/>
<path d="M18.8035 21.5565C18.73 21.5563 18.6569 21.5455 18.5865 21.5245C18.4655 21.4885 15.6295 20.5995 15.6295 18.0495C15.6295 17.4495 15.6215 17.0125 15.6155 16.6935C15.6005 15.8275 15.5945 15.5035 15.9565 15.1425C16.7521 14.4661 17.7623 14.0947 18.8065 14.0947C19.8507 14.0947 20.8609 14.4661 21.6565 15.1425C22.0165 15.5025 22.0105 15.8245 21.9945 16.6865C21.9885 17.0055 21.9805 17.4415 21.9805 18.0455C21.9805 20.5955 19.1465 21.4845 19.0255 21.5205C18.9536 21.5433 18.8788 21.5554 18.8035 21.5565V21.5565ZM17.1095 16.1815C17.1095 16.3045 17.1095 16.4815 17.1155 16.6665C17.1215 16.9925 17.1295 17.4365 17.1295 18.0495C17.1295 19.1845 18.3045 19.7965 18.8035 20.0055C19.3035 19.7965 20.4765 19.1845 20.4765 18.0495C20.4765 17.4335 20.4845 16.9895 20.4905 16.6625C20.4905 16.4625 20.4975 16.2835 20.4965 16.1625C19.9325 15.9357 19.3538 15.7473 18.7645 15.5985C18.2011 15.7578 17.6483 15.9525 17.1095 16.1815V16.1815Z" fill="black"/>
</svg>