<svg width="25" height="24" viewBox="0 0 25 24" fill="none" xmlns="http://www.w3.org/2000/svg">
<path d="M5.44531 19.9697H14.0298" stroke="black" stroke-width="1.5" stroke-linecap="round" stroke-linejoin="round"/>
<path d="M21.464 16.4234L18.0421 19.8453M21.4998 19.8807L18.0098 16.3906" stroke="black" stroke-width="1.5" stroke-linecap="round" stroke-linejoin="round"/>
<path d="M4.08887 12.5437C5.32646 12.03 7.76953 10.9812 9.02755 10.4577C8.25795 8.59356 7.50392 6.76831 6.71972 4.86911C7.34533 4.64631 7.91645 4.3875 8.51578 4.24351C9.21533 4.07616 9.81759 4.39431 10.3332 4.84479C11.5144 5.87903 12.6926 6.91717 13.8475 7.9806C14.1394 8.24914 14.37 8.27443 14.7193 8.12168C15.7224 7.67899 16.7294 7.23727 17.7607 6.8656C18.9526 6.43459 20.6504 6.38983 21.0727 7.89401C21.4054 9.08003 20.3828 10.0909 19.3768 10.5151C17.873 11.1494 16.3683 11.7812 14.8614 12.4075" stroke="black" stroke-width="1.5" stroke-linecap="round" stroke-linejoin="round"/>
<path d="M3.5 11.1338C3.58951 11.3478 3.93783 12.1943 4.02831 12.4074C5.04407 14.7901 6.93937 15.6288 9.3338 14.6685C10.067 14.3743 10.7992 14.0778 11.5306 13.7795" stroke="black" stroke-width="1.5" stroke-linecap="round" stroke-linejoin="round"/>
</svg>