<svg width="24" height="24" viewBox="0 0 24 24" fill="none" xmlns="http://www.w3.org/2000/svg">
<path d="M3.00292 10.259C4.38352 10.2668 7.12137 10.2513 8.52532 10.259C8.54186 8.18181 8.55938 6.14739 8.57592 4.03125C9.25892 4.07114 9.90495 4.0546 10.5315 4.15773C11.2622 4.27935 11.7059 4.82225 12.0143 5.45661C12.7206 6.91212 13.4231 8.36861 14.0925 9.84067C14.2618 10.2133 14.47 10.3301 14.8631 10.3233C15.9926 10.3057 17.1251 10.2911 18.2528 10.3515C19.5565 10.4205 21.1852 11.0588 20.9828 12.6544C20.8223 13.9134 19.4485 14.4631 18.3228 14.4621C14.5916 14.4602 10.8594 14.4456 7.12818 14.3775C4.47108 14.3298 3.00876 12.7741 3 10.1063C3 9.86694 3.00778 8.92416 3.00973 8.68482" stroke="black" stroke-width="1.5" stroke-linecap="round" stroke-linejoin="round"/>
<path d="M5.24609 19.9697H18.7563" stroke="black" stroke-width="1.5" stroke-linecap="round" stroke-linejoin="round"/>
</svg>