<svg width="24" height="25" viewBox="0 0 24 25" fill="none" xmlns="http://www.w3.org/2000/svg">
<path fill-rule="evenodd" clip-rule="evenodd" d="M9.04491 15.7775C12.5209 14.3855 16.0189 12.9215 18.9839 11.6725C20.3119 11.1105 21.5369 9.7805 21.0889 8.1895C20.8989 7.5085 20.4859 6.9865 19.8939 6.6795C18.7559 6.0905 17.3809 6.4725 16.8379 6.6665C15.8919 7.0095 14.9619 7.4135 14.0629 7.8045L13.7899 7.9235C13.7869 7.9235 13.7669 7.9315 13.7459 7.9405C13.7439 7.9375 13.7409 7.9345 13.7369 7.9315C12.5419 6.8205 11.2689 5.7095 10.2499 4.8195C9.45491 4.1165 8.62991 3.8585 7.78391 4.0505C7.32791 4.1595 6.89691 4.3255 6.48091 4.4875C6.29991 4.5575 6.11791 4.6285 5.93091 4.6945C5.73791 4.7635 5.58091 4.9085 5.49791 5.0965C5.41491 5.2835 5.41191 5.4965 5.48991 5.6865L7.48491 10.5195C6.99191 10.7285 6.42091 10.9715 5.84491 11.2165C5.19391 11.4945 4.53791 11.7745 3.98391 12.0085C3.94991 11.9255 3.91491 11.8405 3.88191 11.7605L3.69191 11.3015C3.53191 10.9195 3.09391 10.7395 2.71091 10.8995C2.32791 11.0595 2.14891 11.4985 2.30791 11.8805L2.49491 12.3325C2.62491 12.6475 2.77691 13.0155 2.83191 13.1445C2.84791 13.1815 2.86391 13.2195 2.87991 13.2565C2.88291 13.2635 2.88691 13.2715 2.88991 13.2795C2.89891 13.3015 2.90891 13.3225 2.91991 13.3435C3.78491 15.2205 5.21791 16.2145 6.95191 16.2145C7.61091 16.2145 8.31391 16.0705 9.04491 15.7775Z" fill="black"/>
<path fill-rule="evenodd" clip-rule="evenodd" d="M12.2739 19.5011H4.8949C4.4809 19.5011 4.1449 19.8371 4.1449 20.2511C4.1449 20.6651 4.4809 21.0011 4.8949 21.0011H12.2739C12.6879 21.0011 13.0239 20.6651 13.0239 20.2511C13.0239 19.8371 12.6879 19.5011 12.2739 19.5011Z" fill="black"/>
<path fill-rule="evenodd" clip-rule="evenodd" d="M21.5303 15.8009C21.2373 15.5079 20.7623 15.5079 20.4693 15.8009L17.2023 19.0699L15.8883 17.7519C15.5953 17.4579 15.1203 17.4569 14.8273 17.7499C14.5343 18.0419 14.5333 18.5169 14.8253 18.8099L16.6703 20.6599C16.8103 20.8009 17.0013 20.8809 17.2003 20.8809C17.3993 20.8809 17.5913 20.8019 17.7313 20.6609L21.5303 16.8619C21.8233 16.5689 21.8233 16.0939 21.5303 15.8009Z" fill="black"/>
</svg>