<svg width="24" height="24" viewBox="0 0 24 24" fill="none" xmlns="http://www.w3.org/2000/svg">
<path fill-rule="evenodd" clip-rule="evenodd" d="M6.75 12C6.75 9.10051 9.10051 6.75 12 6.75C14.8995 6.75 17.25 9.10051 17.25 12C17.25 14.8995 14.8995 17.25 12 17.25C11.2548 17.25 10.5439 17.0943 9.89973 16.8129C9.52016 16.647 9.3469 16.2049 9.51273 15.8253C9.67856 15.4458 10.1207 15.2725 10.5003 15.4383C10.9586 15.6386 11.4653 15.75 12 15.75C14.071 15.75 15.75 14.071 15.75 12C15.75 9.92894 14.071 8.25 12 8.25C9.92894 8.25 8.25 9.92894 8.25 12V19.796C8.25 20.2102 7.91421 20.546 7.5 20.546C7.08579 20.546 6.75 20.2102 6.75 19.796V12Z" fill="black"/>
<path fill-rule="evenodd" clip-rule="evenodd" d="M12 3.75C7.44365 3.75 3.75 7.44365 3.75 12C3.75 16.5563 7.44365 20.25 12 20.25C16.5563 20.25 20.25 16.5563 20.25 12C20.25 7.44365 16.5563 3.75 12 3.75ZM2.25 12C2.25 6.61522 6.61522 2.25 12 2.25C17.3848 2.25 21.75 6.61522 21.75 12C21.75 17.3848 17.3848 21.75 12 21.75C6.61522 21.75 2.25 17.3848 2.25 12Z" fill="black"/>
</svg>