<svg width="25" height="24" viewBox="0 0 25 24" fill="none" xmlns="http://www.w3.org/2000/svg">
<path opacity="0.4" d="M8.28216 3H16.7169C19.665 3 21.5 5.08119 21.5 8.02638V15.9736C21.5 18.9188 19.665 21 16.7159 21H8.28216C5.33405 21 3.5 18.9188 3.5 15.9736V8.02638C3.5 5.08119 5.34281 3 8.28216 3Z" stroke="black" stroke-width="1.5" stroke-linecap="round" stroke-linejoin="round"/>
<path fill-rule="evenodd" clip-rule="evenodd" d="M15.0694 13.1744C14.2463 13.9265 13.2188 14.6027 12.0872 15.0629C11.124 15.4463 10.3174 14.9685 10.1987 14.0111C10.0547 12.5984 10.0576 11.2469 10.1987 9.98496C10.3281 8.98961 11.2164 8.56734 12.0872 8.93707C13.2003 9.39728 14.2005 10.0229 15.0694 10.8256C15.8118 11.5047 15.8293 12.469 15.0694 13.1744Z" stroke="black" stroke-width="1.5" stroke-linecap="round" stroke-linejoin="round"/>
</svg>