<svg width="25" height="24" viewBox="0 0 25 24" fill="none" xmlns="http://www.w3.org/2000/svg">
<path d="M3.25 15.9619C3.25 18.7904 5.01115 20.79 7.84261 20.79H15.942C18.7744 20.79 20.5365 18.7904 20.5365 15.9619V11.1328" stroke="black" stroke-width="1.5" stroke-linecap="round" stroke-linejoin="round"/>
<path d="M13.1397 3.50195H7.84261C5.01991 3.50195 3.25 5.50052 3.25 8.32906V12.1452" stroke="black" stroke-width="1.5" stroke-linecap="round" stroke-linejoin="round"/>
<path d="M11.5797 15.0871C10.6553 15.4549 9.87983 14.9956 9.76696 14.0761C9.62782 12.7198 9.63172 11.4218 9.76696 10.2104C9.89054 9.2539 10.7439 8.84816 11.5797 9.20331C12.65 9.64505 13.6094 10.2454 14.4442 11.017C15.1574 11.6699 15.174 12.5952 14.4442 13.2724C14.2557 13.4449 14.0559 13.6132 13.8463 13.7755" stroke="black" stroke-width="1.5" stroke-linecap="round" stroke-linejoin="round"/>
<path d="M18.9137 3.21094V7.88334M21.2505 5.54655H16.5781" stroke="black" stroke-width="1.5" stroke-linecap="round" stroke-linejoin="round"/>
</svg>