<svg width="25" height="24" viewBox="0 0 25 24" fill="none" xmlns="http://www.w3.org/2000/svg">
<path d="M20.2824 14.8507V13.5476M20.2824 13.5476H21.7501M20.2824 13.5476L16.0586 13.5485L20.2824 9.13086V13.5476Z" stroke="black" stroke-width="1.5" stroke-linecap="round" stroke-linejoin="round"/>
<path d="M6.95785 9.15039C7.80141 9.15136 8.4854 9.83535 8.4854 10.6789C8.4854 11.5225 7.80919 12.2055 6.96563 12.2074C6.65429 12.2074 5.84673 12.2084 5.11798 12.2084C4.36297 12.2094 3.75098 12.8214 3.75098 13.5774V14.8519" stroke="black" stroke-width="1.5" stroke-linecap="round" stroke-linejoin="round"/>
<path d="M3.75 9.14844H4.64539" stroke="black" stroke-width="1.5" stroke-linecap="round" stroke-linejoin="round"/>
<path d="M9.05664 14.8289C9.05664 14.8289 9.47599 14.8308 10.1035 14.8269C11.311 14.8211 12.0105 14.1274 12.0261 12.9238" stroke="black" stroke-width="1.5" stroke-linecap="round" stroke-linejoin="round"/>
<path d="M12.0449 11.073C12.0605 9.86947 12.761 9.17673 13.9685 9.16991C14.2068 9.16991 15.0154 9.16797 15.0154 9.16797" stroke="black" stroke-width="1.5" stroke-linecap="round" stroke-linejoin="round"/>
</svg>