<svg width="24" height="24" viewBox="0 0 24 24" fill="none" xmlns="http://www.w3.org/2000/svg">
<path fill-rule="evenodd" clip-rule="evenodd" d="M20.2129 6.05667C20.8733 6.98806 20.8809 8.15992 20.4735 9.41562C20.4682 9.4321 20.4622 9.44839 20.4558 9.46446C19.2973 12.3394 16.8924 16.0854 14.9985 18.1789C14.1169 19.1808 13.1163 19.8188 11.9975 19.8188C10.8788 19.8188 9.87842 19.1808 8.99727 18.1789C7.10238 16.0853 4.69746 12.3394 3.53906 9.46446C3.53198 9.44691 3.52558 9.4291 3.51986 9.41106C3.12266 8.15972 3.12838 6.98722 3.78285 6.05509C4.42115 5.14597 5.54273 4.66268 6.90921 4.45061C6.91964 4.44899 6.93011 4.44759 6.9406 4.44642C8.5719 4.26339 10.2627 4.17714 11.9979 4.18397C13.7331 4.17714 15.4229 4.26339 17.0542 4.44642C17.0661 4.44775 17.078 4.44938 17.0899 4.45128C18.4487 4.67014 19.5719 5.15248 20.2129 6.05667ZM16.8688 5.93503C15.3041 5.76024 13.6774 5.67727 12.0009 5.68397L11.9949 5.68399L11.9949 5.68397C10.3176 5.67726 8.68924 5.76032 7.12386 5.93527C5.9334 6.1224 5.30409 6.49884 5.01048 6.91702C4.7342 7.31051 4.62805 7.92762 4.94119 8.93066C6.036 11.6337 8.33715 15.2156 10.1128 17.1762L10.1205 17.1847L10.1205 17.1847C10.865 18.0325 11.4906 18.3188 11.9975 18.3188C12.5046 18.3188 13.1304 18.0325 13.8755 17.1846L13.8828 17.1762L13.8828 17.1763C15.6582 15.2151 17.9601 11.6317 19.0545 8.92842C19.3747 7.92649 19.2662 7.31488 18.9893 6.92422C18.6922 6.50527 18.0569 6.12904 16.8688 5.93503Z" fill="black"/>
</svg>