<svg width="24" height="24" viewBox="0 0 24 24" fill="none" xmlns="http://www.w3.org/2000/svg">
<path d="M6.10768 20.0199H12.0613C13.7776 20.0199 15.169 18.6286 15.169 16.9123V7.08814C15.169 5.37182 13.7776 3.98047 12.0613 3.98047H6.10768C4.39135 3.98047 3 5.37182 3 7.08814V16.9123C3 18.6286 4.39135 20.0199 6.10768 20.0199Z" stroke="black" stroke-width="1.5" stroke-linecap="round" stroke-linejoin="round"/>
<path d="M21 8.92188V15.0769" stroke="black" stroke-width="1.5" stroke-linecap="round" stroke-linejoin="round"/>
<path d="M18.082 6.54297V17.4578" stroke="black" stroke-width="1.5" stroke-linecap="round" stroke-linejoin="round"/>
<path fill-rule="evenodd" clip-rule="evenodd" d="M10.2138 13.7319C10.2138 14.6874 9.43931 15.4618 8.48385 15.4618C7.52839 15.4618 6.75391 14.6874 6.75391 13.7319C6.75391 12.7764 7.52839 12.002 8.48385 12.002C9.43931 12.002 10.2138 12.7764 10.2138 13.7319Z" stroke="black" stroke-width="1.5" stroke-linecap="round" stroke-linejoin="round"/>
<path d="M10.2148 13.7309L10.215 8.53711C10.215 8.53711 10.6645 9.7076 11.8739 9.95279" stroke="black" stroke-width="1.5" stroke-linecap="round" stroke-linejoin="round"/>
</svg>