<svg width="25" height="25" viewBox="0 0 25 25" fill="none" xmlns="http://www.w3.org/2000/svg">
<path opacity="0.4" fill-rule="evenodd" clip-rule="evenodd" d="M12.25 2.854C5.052 2.854 2.5 5.406 2.5 12.604C2.5 19.802 5.052 22.354 12.25 22.354C19.449 22.354 22 19.802 22 12.604C22 5.406 19.449 2.854 12.25 2.854Z" fill="black"/>
<path d="M11.0397 16.08C11.3597 16.08 11.7027 15.963 12.0027 15.839C12.7097 15.546 16.0057 13.734 16.0057 12.46C16.0057 11.206 12.7797 9.42902 11.9557 9.08802C11.6217 8.94902 10.8407 8.62802 10.3687 9.09902L10.3681 9.09961C10.2335 9.23521 9.82569 9.64607 9.8147 12.441C9.80271 15.254 10.2294 15.6807 10.3686 15.8199L10.3687 15.82C10.5587 16.01 10.7917 16.08 11.0397 16.08Z" fill="black"/>
</svg>