<svg width="24" height="24" viewBox="0 0 24 24" fill="none" xmlns="http://www.w3.org/2000/svg">
<path fill-rule="evenodd" clip-rule="evenodd" d="M3.78707 17.9433C3.12675 17.0119 3.11907 15.8401 3.52649 14.5844C3.53183 14.5679 3.53775 14.5516 3.54423 14.5355C4.70266 11.6606 7.10763 7.91456 9.00146 5.82109C9.88308 4.81922 10.8837 4.18122 12.0025 4.18122C13.1212 4.18122 14.1216 4.81921 15.0027 5.82107C16.8976 7.91467 19.3025 11.6606 20.4609 14.5355C20.468 14.5531 20.4744 14.5709 20.4801 14.5889C20.8773 15.8403 20.8716 17.0128 20.2171 17.9449C19.5788 18.854 18.4573 19.3373 17.0908 19.5494C17.0804 19.551 17.0699 19.5524 17.0594 19.5536C15.4281 19.7366 13.7373 19.8229 12.0021 19.816C10.2669 19.8229 8.57706 19.7366 6.94577 19.5536C6.93385 19.5522 6.92197 19.5506 6.91013 19.5487C5.55132 19.3299 4.42812 18.8475 3.78707 17.9433ZM7.1312 18.065C8.69593 18.2398 10.3226 18.3227 11.9991 18.316L12.0051 18.316L12.0051 18.316C13.6824 18.3227 15.3108 18.2397 16.8761 18.0647C18.0666 17.8776 18.6959 17.5012 18.9895 17.083C19.2658 16.6895 19.372 16.0724 19.0588 15.0693C17.964 12.3663 15.6628 8.78436 13.8872 6.82384L13.8794 6.81533L13.8795 6.81527C13.1349 5.96747 12.5094 5.68122 12.0025 5.68122C11.4954 5.68122 10.8696 5.96754 10.1245 6.81544L10.1172 6.82375L10.1172 6.8237C8.34185 8.78485 6.03989 12.3683 4.94545 15.0716C4.62525 16.0735 4.73377 16.6851 5.01074 17.0758C5.30776 17.4947 5.94313 17.871 7.1312 18.065Z" fill="black"/>
</svg>