<svg width="25" height="24" viewBox="0 0 25 24" fill="none" xmlns="http://www.w3.org/2000/svg">
<path fill-rule="evenodd" clip-rule="evenodd" d="M6.35768 4.73047C5.05556 4.73047 4 5.78603 4 7.08814V16.9123C4 18.2144 5.05556 19.2699 6.35768 19.2699H12.3113C13.6134 19.2699 14.669 18.2144 14.669 16.9123V7.08814C14.669 5.78603 13.6134 4.73047 12.3113 4.73047H6.35768ZM2.5 7.08814C2.5 4.95761 4.22714 3.23047 6.35768 3.23047H12.3113C14.4418 3.23047 16.169 4.95761 16.169 7.08814V16.9123C16.169 19.0428 14.4418 20.7699 12.3113 20.7699H6.35768C4.22714 20.7699 2.5 19.0428 2.5 16.9123V7.08814Z" fill="black"/>
<path fill-rule="evenodd" clip-rule="evenodd" d="M21.25 8.17188C21.6642 8.17188 22 8.50766 22 8.92188V15.0769C22 15.4911 21.6642 15.8269 21.25 15.8269C20.8358 15.8269 20.5 15.4911 20.5 15.0769V8.92188C20.5 8.50766 20.8358 8.17188 21.25 8.17188Z" fill="black"/>
<path fill-rule="evenodd" clip-rule="evenodd" d="M18.332 5.79297C18.7462 5.79297 19.082 6.12876 19.082 6.54297V17.4578C19.082 17.872 18.7462 18.2078 18.332 18.2078C17.9178 18.2078 17.582 17.872 17.582 17.4578V6.54297C17.582 6.12876 17.9178 5.79297 18.332 5.79297Z" fill="black"/>
<path fill-rule="evenodd" clip-rule="evenodd" d="M8.73385 12.752C8.19261 12.752 7.75391 13.1907 7.75391 13.7319C7.75391 14.2731 8.19261 14.7118 8.73385 14.7118C9.2751 14.7118 9.7138 14.2731 9.7138 13.7319C9.7138 13.1907 9.2751 12.752 8.73385 12.752ZM6.25391 13.7319C6.25391 12.3622 7.36418 11.252 8.73385 11.252C10.1035 11.252 11.2138 12.3622 11.2138 13.7319C11.2138 15.1016 10.1035 16.2118 8.73385 16.2118C7.36418 16.2118 6.25391 15.1016 6.25391 13.7319Z" fill="black"/>
<path fill-rule="evenodd" clip-rule="evenodd" d="M11.1649 8.26774L11.1643 8.26623L11.1629 8.26256C11.1638 8.26463 11.1662 8.27045 11.1703 8.27956C11.1786 8.29785 11.1933 8.32883 11.2147 8.36882C11.2583 8.44977 11.3267 8.56198 11.4222 8.67915C11.6147 8.9153 11.8896 9.1401 12.2729 9.21781C12.6789 9.30011 12.9413 9.69592 12.859 10.1019C12.7767 10.5078 12.3808 10.7702 11.9749 10.6879C11.69 10.6301 11.4374 10.5348 11.2149 10.4179L11.2148 13.731C11.2148 14.1452 10.879 14.481 10.4648 14.481C10.0506 14.481 9.71483 14.1452 9.71484 13.7309L9.71499 8.53716C9.715 8.17568 9.97285 7.86564 10.3283 7.79975C10.6816 7.73423 11.0315 7.92867 11.1629 8.26256C11.1636 8.26429 11.1643 8.26601 11.1649 8.26774Z" fill="black"/>
</svg>