<svg width="25" height="24" viewBox="0 0 25 24" fill="none" xmlns="http://www.w3.org/2000/svg">
<path fill-rule="evenodd" clip-rule="evenodd" d="M3.9902 3.89737C4.97468 2.84117 6.37669 2.25 8.03216 2.25H16.4669C18.1262 2.25 19.5288 2.84084 20.5129 3.89765C21.4913 4.94841 22 6.39889 22 8.02638V15.9736C22 17.6011 21.4913 19.0516 20.5127 20.1024C19.5285 21.1592 18.1256 21.75 16.4659 21.75H8.03216C6.3728 21.75 4.97038 21.1591 3.98657 20.1023C3.00842 19.0515 2.5 17.601 2.5 15.9736V8.02638C2.5 6.39806 3.01117 4.94771 3.9902 3.89737ZM5.08745 4.92012C4.41024 5.64666 4 6.70951 4 8.02638V15.9736C4 17.2914 4.40861 18.3541 5.08451 19.0802C5.75475 19.8003 6.74341 20.25 8.03216 20.25H16.4659C17.7552 20.25 18.7444 19.8002 19.415 19.0801C20.0912 18.354 20.5 17.2913 20.5 15.9736V8.02638C20.5 6.70868 20.0912 5.64597 19.4151 4.91984C18.7446 4.19975 17.7556 3.75 16.4669 3.75H8.03216C6.74828 3.75 5.75921 4.19943 5.08745 4.92012Z" fill="black"/>
<path fill-rule="evenodd" clip-rule="evenodd" d="M10.6932 10.0757C10.5597 11.2757 10.5561 12.5679 10.6939 13.926C10.7302 14.2042 10.8492 14.3323 10.9464 14.3875C11.0471 14.4446 11.2443 14.491 11.5575 14.367C12.5993 13.9428 13.5502 13.3176 14.3112 12.6228C14.5594 12.3915 14.6337 12.1674 14.6328 11.9941C14.6318 11.8191 14.5537 11.599 14.3132 11.379L14.3105 11.3765L14.3105 11.3765C13.511 10.6379 12.5874 10.0588 11.5507 9.63014L11.5441 9.62743L11.5441 9.6274C11.2877 9.51852 11.0872 9.54768 10.9659 9.61192C10.8556 9.67028 10.7308 9.79871 10.6932 10.0757ZM12.1269 8.24521C11.5134 7.98583 10.8358 7.98352 10.264 8.28625C9.68081 8.59502 9.29782 9.17399 9.20496 9.88824L9.20484 9.88823L9.20335 9.90161C9.05587 11.2207 9.05362 12.6258 9.20257 14.0871L9.2044 14.1034C9.28799 14.7776 9.6304 15.3653 10.2061 15.6921C10.779 16.0172 11.4659 16.0179 12.1146 15.7597L12.1146 15.7597L12.1198 15.7576C13.3389 15.2618 14.441 14.536 15.3253 13.728L15.3253 13.728L15.3297 13.724C15.8397 13.2505 16.1362 12.6406 16.1327 11.9861C16.1293 11.3335 15.828 10.7324 15.3271 10.2735C14.3899 9.408 13.3146 8.73668 12.1269 8.24521Z" fill="black"/>
</svg>