<svg width="24" height="24" viewBox="0 0 24 24" fill="none" xmlns="http://www.w3.org/2000/svg">
<path fill-rule="evenodd" clip-rule="evenodd" d="M19.7647 11.3499H17.7327V10.1699H20.9997C21.5527 10.1699 21.9997 9.72292 21.9997 9.16992C21.9997 8.61792 21.5527 8.16992 20.9997 8.16992H16.7327C16.1797 8.16992 15.7327 8.61792 15.7327 9.16992V11.6299C15.7327 12.5789 16.5027 13.3499 17.4497 13.3499H19.7647C19.8947 13.3499 19.9997 13.4569 19.9997 13.5899C19.9997 13.7249 19.8957 13.8299 19.7617 13.8299H16.7577C16.2047 13.8299 15.7577 14.2779 15.7577 14.8299C15.7577 15.3829 16.2047 15.8299 16.7577 15.8299H19.7617C20.9957 15.8299 21.9997 14.8259 21.9997 13.5899C21.9997 12.3549 20.9967 11.3499 19.7647 11.3499Z" fill="black"/>
<g opacity="0.4">
<path fill-rule="evenodd" clip-rule="evenodd" d="M8.73549 10.6804C8.73549 9.28439 7.60149 8.15039 6.20849 8.15039H3.00049C2.44749 8.15039 2.00049 8.59739 2.00049 9.15039C2.00049 9.70239 2.44749 10.1504 3.00049 10.1504H6.20849C6.49949 10.1504 6.73549 10.3884 6.73549 10.6804C6.73549 10.9744 6.50249 11.2074 6.21549 11.2104H4.36849C3.06249 11.2104 2.00149 12.2744 2.00149 13.5804V14.8504C2.00149 15.4034 2.44849 15.8504 3.00149 15.8504C3.55349 15.8504 4.00149 15.4034 4.00149 14.8504V13.5804C4.00149 13.3724 4.16249 13.2104 4.36849 13.2104H6.22749C7.61049 13.1954 8.73549 12.0594 8.73549 10.6804Z" fill="black"/>
<path fill-rule="evenodd" clip-rule="evenodd" d="M14.2646 8.17065H13.2096C11.4596 8.18565 10.3166 9.31765 10.2946 11.0607L10.2766 12.9077C10.2676 13.5747 10.0156 13.8247 9.35364 13.8307H8.30664C7.75364 13.8307 7.30664 14.2777 7.30664 14.8307C7.30664 15.3837 7.75364 15.8307 8.30664 15.8307H9.36264C11.1106 15.8157 12.2536 14.6787 12.2766 12.9307L12.2946 11.0827C12.3026 10.4317 12.5636 10.1757 13.2176 10.1707H14.2646C14.8176 10.1707 15.2646 9.72365 15.2646 9.17065C15.2646 8.61765 14.8176 8.17065 14.2646 8.17065Z" fill="black"/>
</g>
</svg>