<svg width="25" height="24" viewBox="0 0 25 24" fill="none" xmlns="http://www.w3.org/2000/svg">
<path d="M6.95785 9.14966C7.80141 9.15063 8.4854 9.83462 8.4854 10.6782C8.4854 11.5217 7.80919 12.2048 6.96563 12.2067C6.65429 12.2067 5.84673 12.2077 5.11798 12.2077C4.36297 12.2086 3.75098 12.8206 3.75098 13.5766V14.8512" stroke="black" stroke-width="1.5" stroke-linecap="round" stroke-linejoin="round"/>
<path d="M3.75 9.14844H4.64539" stroke="black" stroke-width="1.5" stroke-linecap="round" stroke-linejoin="round"/>
<path d="M9.05664 14.8286C9.05664 14.8286 9.47599 14.8306 10.1035 14.8267C11.311 14.8209 12.0105 14.1271 12.0261 12.9236" stroke="black" stroke-width="1.5" stroke-linecap="round" stroke-linejoin="round"/>
<path d="M12.0449 11.073C12.0605 9.86947 12.761 9.17673 13.9685 9.16991C14.2068 9.16991 15.0154 9.16797 15.0154 9.16797" stroke="black" stroke-width="1.5" stroke-linecap="round" stroke-linejoin="round"/>
<path d="M17.5077 14.8325L20.5122 14.8306C21.1962 14.8296 21.7498 14.276 21.7498 13.592C21.7498 12.909 21.1991 12.3544 20.5151 12.3525C19.7134 12.3505 18.7229 12.3486 18.1995 12.3476C17.8025 12.3466 17.4824 12.0256 17.4824 11.6286V9.16797H21.7498" stroke="black" stroke-width="1.5" stroke-linecap="round" stroke-linejoin="round"/>
</svg>