<svg width="25" height="24" viewBox="0 0 25 24" fill="none" xmlns="http://www.w3.org/2000/svg">
<path opacity="0.4" d="M6.60768 20.0199H12.5613C14.2776 20.0199 15.669 18.6286 15.669 16.9123V7.08814C15.669 5.37182 14.2776 3.98047 12.5613 3.98047H6.60768C4.89135 3.98047 3.5 5.37182 3.5 7.08814V16.9123C3.5 18.6286 4.89135 20.0199 6.60768 20.0199Z" stroke="black" stroke-width="1.5" stroke-linecap="round" stroke-linejoin="round"/>
<path d="M21.5 8.92188V15.0769" stroke="black" stroke-width="1.5" stroke-linecap="round" stroke-linejoin="round"/>
<path d="M18.582 6.54297V17.4578" stroke="black" stroke-width="1.5" stroke-linecap="round" stroke-linejoin="round"/>
<path fill-rule="evenodd" clip-rule="evenodd" d="M10.7138 13.7319C10.7138 14.6874 9.93931 15.4618 8.98385 15.4618C8.02839 15.4618 7.25391 14.6874 7.25391 13.7319C7.25391 12.7764 8.02839 12.002 8.98385 12.002C9.93931 12.002 10.7138 12.7764 10.7138 13.7319Z" stroke="black" stroke-width="1.5" stroke-linecap="round" stroke-linejoin="round"/>
<path d="M10.7148 13.7309L10.715 8.53711C10.715 8.53711 11.1645 9.7076 12.3739 9.95279" stroke="black" stroke-width="1.5" stroke-linecap="round" stroke-linejoin="round"/>
</svg>