<svg width="24" height="25" viewBox="0 0 24 25" fill="none" xmlns="http://www.w3.org/2000/svg">
<path fill-rule="evenodd" clip-rule="evenodd" d="M19.3029 7.199C19.0599 5.692 18.5049 4.664 17.6529 4.143C16.8729 3.667 15.8669 3.623 14.6299 4.025C11.8949 5.127 8.17888 7.455 5.99088 9.434C4.95588 10.344 4.43188 11.292 4.43188 12.252C4.43288 13.212 4.95688 14.159 5.98488 15.062C8.17588 17.047 11.8929 19.376 14.6299 20.479C14.6419 20.483 14.6539 20.488 14.6659 20.491C15.2049 20.662 15.7049 20.748 16.1619 20.748C16.7369 20.748 17.2439 20.613 17.6789 20.343C18.5249 19.819 19.0719 18.795 19.3059 17.281C19.4869 15.678 19.5739 13.985 19.5679 12.253C19.5739 10.518 19.4869 8.826 19.3029 7.199Z" fill="black"/>
</svg>