<svg width="25" height="24" viewBox="0 0 25 24" fill="none" xmlns="http://www.w3.org/2000/svg">
<path fill-rule="evenodd" clip-rule="evenodd" d="M14.4865 13.045C13.7458 13.7154 12.8201 14.3192 11.8022 14.7297C10.9357 15.0708 10.2097 14.6448 10.103 13.7911C9.97343 12.5315 9.97617 11.3257 10.103 10.2011C10.2188 9.31365 11.0187 8.93695 11.8022 9.26622C12.8046 9.67757 13.7048 10.234 14.4865 10.9509C15.155 11.5565 15.1705 12.4166 14.4865 13.045Z" stroke="black" stroke-width="1.5" stroke-linecap="round" stroke-linejoin="round"/>
<path opacity="0.4" d="M19.539 11.9975C19.539 11.2559 19.951 10.6349 20.558 10.317C20.97 10.1008 21.177 9.99272 21.232 9.94832C21.424 9.79362 21.438 9.76962 21.486 9.52782C21.5 9.45842 21.5 9.34202 21.5 9.10922C21.5 8.02452 21.5 7.48212 21.372 7.03942C21.062 5.97412 20.229 5.14112 19.164 4.83172C18.721 4.70312 18.179 4.70313 17.094 4.70313H7.907C6.825 4.70313 6.283 4.70313 5.842 4.83113C4.774 5.14063 3.939 5.97612 3.63 7.04442C3.503 7.48632 3.503 8.02763 3.504 9.11023C3.505 9.34163 3.505 9.45743 3.518 9.52633C3.566 9.76803 3.58 9.79132 3.772 9.94622C3.827 9.99042 4.032 10.0989 4.443 10.3157C5.049 10.6354 5.46 11.2586 5.459 11.9992V12.057C5.435 12.7501 5.041 13.3436 4.474 13.6542C4.034 13.8954 3.81399 14.016 3.75999 14.0602C3.56599 14.2218 3.561 14.2288 3.513 14.4772C3.5 14.5451 3.5 14.6625 3.5 14.8975C3.5 15.977 3.5 16.5168 3.627 16.9575C3.936 18.0262 4.772 18.8618 5.841 19.1706C6.281 19.298 6.821 19.298 7.901 19.298H17.094C18.178 19.298 18.72 19.298 19.163 19.1695C20.229 18.8601 21.062 18.0267 21.371 16.9608C21.5 16.5183 21.5 15.9761 21.499 14.8918C21.499 14.6592 21.499 14.543 21.486 14.4738C21.438 14.2319 21.424 14.2089 21.232 14.0538C21.177 14.0095 20.971 13.9006 20.558 13.683C19.95 13.3631 19.539 12.7387 19.539 11.9975Z" stroke="black" stroke-width="1.5" stroke-linecap="round" stroke-linejoin="round"/>
</svg>