<svg width="24" height="25" viewBox="0 0 24 25" fill="none" xmlns="http://www.w3.org/2000/svg">
<path opacity="0.4" fill-rule="evenodd" clip-rule="evenodd" d="M20.2419 14.9156C20.2379 14.9036 20.2339 14.8916 20.2289 14.8796C19.1259 12.1426 16.7979 8.42564 14.8189 6.24064C13.9109 5.20664 12.9639 4.68264 12.0039 4.68164C11.0439 4.68164 10.0949 5.20664 9.18888 6.23564C7.20588 8.42764 4.87888 12.1446 3.76388 14.9126C3.37388 16.1166 3.41788 17.1226 3.89388 17.9026C4.41488 18.7546 5.44288 19.3106 6.97388 19.5566C8.51988 19.7296 10.1429 19.8176 11.7989 19.8176C11.8649 19.8176 11.9319 19.8176 11.9999 19.8166C13.7539 19.8336 15.4239 19.7366 17.0519 19.5536C18.5469 19.3216 19.5699 18.7746 20.0949 17.9286C20.5789 17.1466 20.6289 16.1336 20.2419 14.9156Z" fill="black"/>
</svg>