<svg width="25" height="24" viewBox="0 0 25 24" fill="none" xmlns="http://www.w3.org/2000/svg">
<path d="M12 7.70386C12.4141 7.70386 12.75 8.03967 12.75 8.45386V11.002H15.2998C15.7139 11.002 16.0498 11.3376 16.0498 11.752C16.0498 12.1661 15.7139 12.502 15.2998 12.502H12.75V15.0468C12.75 15.4609 12.4141 15.7968 12 15.7968C11.5859 15.7968 11.25 15.4609 11.25 15.0468V12.502H8.7002C8.28564 12.502 7.9502 12.1661 7.9502 11.752C7.9502 11.3376 8.28564 11.002 8.7002 11.002H11.25V8.45386C11.25 8.03967 11.5859 7.70386 12 7.70386Z" fill="black"/>
<path fill-rule="evenodd" clip-rule="evenodd" d="M12 2C17.3853 2 21.75 6.36487 21.75 11.75C21.75 17.1342 17.3853 21.5 12 21.5C6.61475 21.5 2.25 17.1342 2.25 11.75C2.25 6.36487 6.61475 2 12 2ZM20.25 11.75C20.25 7.19324 16.5566 3.5 12 3.5C7.44336 3.5 3.75 7.19324 3.75 11.75C3.75 16.3058 7.44336 20 12 20C16.5566 20 20.25 16.3058 20.25 11.75Z" fill="black"/>
</svg>