<svg width="24" height="24" viewBox="0 0 24 24" fill="none" xmlns="http://www.w3.org/2000/svg">
<path opacity="0.4" d="M2.5 12C2.5 6.75294 6.75294 2.5 12 2.5C17.2471 2.5 21.5 6.75294 21.5 12C21.5 17.2461 17.2471 21.5 12 21.5C6.7529 21.5 2.5 17.2461 2.5 12Z" fill="black"/>
<path d="M12.75 8.70312C12.75 8.28891 12.4142 7.95312 12 7.95312C11.5858 7.95312 11.25 8.28891 11.25 8.70312V11.2512H8.70007C8.28586 11.2512 7.95007 11.5869 7.95007 12.0012C7.95007 12.4154 8.28586 12.7512 8.70007 12.7512H11.25V15.296C11.25 15.7102 11.5858 16.046 12 16.046C12.4142 16.046 12.75 15.7102 12.75 15.296V12.7512H15.2997C15.714 12.7512 16.0497 12.4154 16.0497 12.0012C16.0497 11.5869 15.714 11.2512 15.2997 11.2512H12.75V8.70312Z" fill="black"/>
</svg>