<svg width="25" height="24" viewBox="0 0 25 24" fill="none" xmlns="http://www.w3.org/2000/svg">
<path d="M17.3607 7.04924V4.65277C17.3607 3.57275 16.342 2.78365 15.296 3.05317L6.56148 5.30662C5.92806 5.47105 5.48535 6.0422 5.48535 6.69605V18.8555C5.48535 20.0406 6.44569 21 7.62983 21H17.3228C18.5079 21 19.4672 20.0406 19.4672 18.8555V9.43307C19.4672 8.24797 18.5079 7.2886 17.3228 7.2886H5.48535" stroke="black" stroke-width="1.5" stroke-linecap="round" stroke-linejoin="round"/>
<path opacity="0.4" fill-rule="evenodd" clip-rule="evenodd" d="M9.7158 14.0692C9.39179 13.0554 9.77029 11.8975 10.8347 11.5541C11.3942 11.375 12.0062 11.4782 12.4771 11.8304C12.9481 11.4811 13.5572 11.3789 14.1166 11.5541C15.1801 11.8975 15.5625 13.0554 15.2375 14.0692C14.7325 15.6747 12.4771 16.9123 12.4771 16.9123C12.4771 16.9123 10.2383 15.6932 9.7158 14.0692Z" stroke="black" stroke-width="1.5" stroke-linecap="round" stroke-linejoin="round"/>
</svg>