<svg width="25" height="24" viewBox="0 0 25 24" fill="none" xmlns="http://www.w3.org/2000/svg">
<path d="M17.8607 7.04924V4.65277C17.8607 3.57275 16.842 2.78365 15.796 3.05317L7.06148 5.30662C6.42806 5.47105 5.98535 6.0422 5.98535 6.69605V18.8555C5.98535 20.0406 6.94569 21 8.12983 21H17.8228C19.0079 21 19.9672 20.0406 19.9672 18.8555V9.43307C19.9672 8.24797 19.0079 7.2886 17.8228 7.2886H5.98535" stroke="black" stroke-width="1.5" stroke-linecap="round" stroke-linejoin="round"/>
<path fill-rule="evenodd" clip-rule="evenodd" d="M10.2158 14.0692C9.89179 13.0554 10.2703 11.8975 11.3347 11.5541C11.8942 11.375 12.5062 11.4782 12.9771 11.8304C13.4481 11.4811 14.0572 11.3789 14.6166 11.5541C15.6801 11.8975 16.0625 13.0554 15.7375 14.0692C15.2325 15.6747 12.9771 16.9123 12.9771 16.9123C12.9771 16.9123 10.7383 15.6932 10.2158 14.0692Z" stroke="black" stroke-width="1.5" stroke-linecap="round" stroke-linejoin="round"/>
</svg>