<svg width="25" height="24" viewBox="0 0 25 24" fill="none" xmlns="http://www.w3.org/2000/svg">
<path opacity="0.4" fill-rule="evenodd" clip-rule="evenodd" d="M12.5701 2.5C7.33107 2.5 3.07007 6.761 3.07007 12C3.07007 17.238 7.33107 21.5 12.5701 21.5C17.8081 21.5 22.0701 17.238 22.0701 12C22.0701 6.761 17.8081 2.5 12.5701 2.5Z" fill="black"/>
<path fill-rule="evenodd" clip-rule="evenodd" d="M12.568 14.885C10.977 14.885 9.68197 13.59 9.68197 11.999C9.68197 10.407 10.977 9.11204 12.568 9.11204C14.159 9.11204 15.454 10.407 15.454 11.999C15.454 13.59 14.159 14.885 12.568 14.885ZM11.1821 11.9983C11.1821 11.2343 11.8041 10.6123 12.5681 10.6123C13.3321 10.6123 13.9541 11.2343 13.9541 11.9983C13.9541 12.7633 13.3321 13.3853 12.5681 13.3853C11.8041 13.3853 11.1821 12.7633 11.1821 11.9983Z" fill="black"/>
<path d="M8.82497 15.231C9.09597 15.543 9.06297 16.017 8.74997 16.288C8.60797 16.411 8.43297 16.472 8.25897 16.472C8.04897 16.472 7.83997 16.384 7.69197 16.213C6.67597 15.042 6.11597 13.548 6.11597 12.007C6.11597 10.453 6.67597 8.95304 7.69197 7.78304C7.96397 7.46904 8.43697 7.43604 8.74997 7.70804C9.06297 7.98004 9.09597 8.45404 8.82497 8.76604C8.03397 9.67604 7.61597 10.797 7.61597 12.007C7.61597 13.187 8.04597 14.332 8.82497 15.231Z" fill="black"/>
<path d="M17.447 16.215C17.299 16.386 17.09 16.474 16.88 16.474C16.706 16.474 16.531 16.414 16.389 16.291C16.076 16.019 16.042 15.546 16.313 15.233C17.093 14.333 17.522 13.188 17.522 12.009C17.522 10.8 17.104 9.67904 16.314 8.76804C16.042 8.45504 16.076 7.98204 16.388 7.71004C16.702 7.43804 17.175 7.47204 17.447 7.78504C18.463 8.95604 19.022 10.456 19.022 12.009C19.022 13.549 18.463 15.043 17.447 16.215Z" fill="black"/>
</svg>