<svg width="24" height="24" viewBox="0 0 24 24" fill="none" xmlns="http://www.w3.org/2000/svg">
<path d="M21 12C21 7.03005 16.9709 3 12 3C7.02908 3 3 7.03005 3 12C3 16.9709 7.02908 21 12 21C16.9709 21 21 16.9709 21 12Z" stroke="black" stroke-width="1.5" stroke-linecap="round" stroke-linejoin="round"/>
<path d="M7.6892 15.7216C6.81742 14.7174 6.29688 13.4195 6.29688 12.0077C6.29688 10.5774 6.81742 9.2795 7.6892 8.27539" stroke="black" stroke-width="1.5" stroke-linecap="round" stroke-linejoin="round"/>
<path d="M16.3105 8.27734C17.1823 9.28145 17.7029 10.5794 17.7029 12.0097C17.7029 13.4215 17.1823 14.7194 16.3105 15.7235" stroke="black" stroke-width="1.5" stroke-linecap="round" stroke-linejoin="round"/>
<path fill-rule="evenodd" clip-rule="evenodd" d="M11.999 9.86328C13.1792 9.86328 14.1346 10.8197 14.1346 11.999C14.1346 13.1792 13.1792 14.1356 11.999 14.1356C10.8187 14.1356 9.86328 13.1792 9.86328 11.999C9.86328 10.8197 10.8187 9.86328 11.999 9.86328Z" stroke="black" stroke-width="1.5" stroke-linecap="round" stroke-linejoin="round"/>
</svg>