<svg width="25" height="24" viewBox="0 0 25 24" fill="none" xmlns="http://www.w3.org/2000/svg">
<path fill-rule="evenodd" clip-rule="evenodd" d="M20.5 10.6808C20.5 10.167 20.0834 9.7504 19.5696 9.7504L9.93031 9.7504C9.60196 9.7504 9.31178 9.53681 9.2142 9.22329C9.11662 8.90976 9.23433 8.56922 9.50468 8.38287L11.2489 7.18067C11.6622 6.89578 11.8268 6.36493 11.647 5.89622C11.441 5.35919 10.8799 5.10678 10.3868 5.28542C8.76893 5.87157 6.97025 6.80018 5.50144 7.98134C4.55218 8.7447 3.99635 10.4369 4.00002 12.3658C4.00366 14.2843 4.56219 16.0764 5.42967 16.9439C6.14863 17.6628 7.28709 18.2616 8.57004 18.5626C9.85005 18.8629 11.1952 18.8482 12.3173 18.4325C13.2675 18.0805 13.7733 17.277 14.0639 16.1239C14.2833 15.2534 14.3513 14.3162 14.4191 13.3824C14.444 13.0388 14.4689 12.6957 14.5013 12.3566C14.5376 11.9761 14.8542 11.6838 15.2364 11.6779L19.5839 11.6112C20.0921 11.6034 20.5 11.1891 20.5 10.6808ZM19.5696 8.2504C20.9119 8.2504 22 9.33855 22 10.6808C22 12.0086 20.9345 13.0906 19.6069 13.111L15.9401 13.1673C15.935 13.236 15.93 13.3057 15.9249 13.3763C15.8551 14.3427 15.7729 15.4807 15.5185 16.4904C15.1719 17.8656 14.455 19.2402 12.8384 19.8391L12.8384 19.8391C11.3773 20.3804 9.72164 20.3735 8.22745 20.0229C6.73621 19.6731 5.32705 18.9626 4.36901 18.0045C3.09668 16.7322 2.504 14.4645 2.50002 12.3687C2.49606 10.2833 3.07619 8.00679 4.56143 6.81242C6.18241 5.50889 8.13367 4.50631 9.87584 3.87513C11.1848 3.40089 12.5671 4.10652 13.0475 5.35904C13.4426 6.38923 13.1388 7.54557 12.3152 8.2504L19.5696 8.2504Z" fill="black"/>
</svg>