<svg width="24" height="25" viewBox="0 0 24 25" fill="none" xmlns="http://www.w3.org/2000/svg">
<g opacity="0.4">
<path fill-rule="evenodd" clip-rule="evenodd" d="M19.1836 16.2825L16.1296 19.3325C15.7386 19.7225 15.7386 20.3555 16.1276 20.7465C16.3236 20.9425 16.5796 21.0405 16.8356 21.0405C17.0916 21.0405 17.3476 20.9425 17.5426 20.7485L20.5966 17.6985C20.9886 17.3075 20.9886 16.6755 20.5986 16.2835C20.2076 15.8925 19.5746 15.8935 19.1836 16.2825Z" fill="black"/>
<path fill-rule="evenodd" clip-rule="evenodd" d="M4.81343 16.2825C4.42243 15.8935 3.79043 15.8915 3.39943 16.2845C3.00943 16.6755 3.00943 17.3075 3.40143 17.6985L6.45743 20.7485C6.65243 20.9425 6.90743 21.0405 7.16343 21.0405C7.41843 21.0405 7.67543 20.9425 7.87143 20.7465C8.26043 20.3555 8.26043 19.7225 7.86943 19.3325L4.81343 16.2825Z" fill="black"/>
<path fill-rule="evenodd" clip-rule="evenodd" d="M6.45692 3.55299L3.40092 6.60199C3.00992 6.99199 3.00992 7.62499 3.39892 8.01599C3.59492 8.21199 3.85192 8.30999 4.10692 8.30999C4.36292 8.30999 4.61792 8.21199 4.81292 8.01799L7.86892 4.96899C8.26092 4.57799 8.26092 3.94599 7.87092 3.55499C7.47992 3.16199 6.84792 3.16399 6.45692 3.55299Z" fill="black"/>
<path fill-rule="evenodd" clip-rule="evenodd" d="M19.1846 8.01786C19.3796 8.21186 19.6346 8.30986 19.8906 8.30986C20.1466 8.30986 20.4036 8.21186 20.5986 8.01586C20.9886 7.62486 20.9886 6.99286 20.5966 6.60186L17.5416 3.55286C17.1516 3.16386 16.5186 3.16286 16.1276 3.55486C15.7386 3.94586 15.7386 4.57886 16.1296 4.96886L19.1846 8.01786Z" fill="black"/>
</g>
<path fill-rule="evenodd" clip-rule="evenodd" d="M14.1592 20.1504H9.83923C9.28623 20.1504 8.83923 20.5974 8.83923 21.1504C8.83923 21.7034 9.28623 22.1504 9.83923 22.1504H14.1592C14.7122 22.1504 15.1592 21.7034 15.1592 21.1504C15.1592 20.5974 14.7122 20.1504 14.1592 20.1504Z" fill="black"/>
<path fill-rule="evenodd" clip-rule="evenodd" d="M4 14.3095V9.99048C4 9.43748 3.553 8.99048 3 8.99048C2.447 8.99048 2 9.43748 2 9.99048V14.3095C2 14.8625 2.447 15.3095 3 15.3095C3.553 15.3095 4 14.8625 4 14.3095Z" fill="black"/>
<path fill-rule="evenodd" clip-rule="evenodd" d="M14.1602 2.15039H9.84021C9.28721 2.15039 8.84021 2.59739 8.84021 3.15039C8.84021 3.70339 9.28721 4.15039 9.84021 4.15039H14.1602C14.7132 4.15039 15.1602 3.70339 15.1602 3.15039C15.1602 2.59739 14.7132 2.15039 14.1602 2.15039Z" fill="black"/>
<path fill-rule="evenodd" clip-rule="evenodd" d="M21 8.99023C20.447 8.99023 20 9.43723 20 9.99023V14.3092C20 14.8622 20.447 15.3092 21 15.3092C21.553 15.3092 22 14.8622 22 14.3092V9.99023C22 9.43723 21.553 8.99023 21 8.99023Z" fill="black"/>
</svg>