<svg width="25" height="24" viewBox="0 0 25 24" fill="none" xmlns="http://www.w3.org/2000/svg">
<path d="M15.7854 10.2998C16.1182 9.7734 16.3458 9.17502 16.4169 8.5494C16.6397 6.56453 15.1851 5.25005 13.6235 4.49113C13.1915 4.28097 12.6826 4.01826 12.2117 3.93945C12.2302 4.0134 13.0572 5.38043 10.7512 7.30205C10.4379 7.67178 9.64108 8.46378 9.67513 9.38129C9.69167 9.81524 9.82886 10.2492 10.0682 10.6033" stroke="black" stroke-width="1.5" stroke-linecap="round" stroke-linejoin="round"/>
<path d="M9.70936 9.04297C7.9979 9.14708 6.62796 10.6396 6.62796 12.463C6.62796 12.5953 6.64644 12.7189 6.66396 12.8512C6.66396 12.8697 6.67369 12.8979 6.67369 12.9164C5.15098 13.2092 3.98828 14.5986 3.98828 16.2799C3.98828 18.1704 5.46623 19.3419 7.25844 19.7106C7.9958 19.8215 8.84565 19.9027 9.74583 19.9589M16.3217 9.0527C18.0069 9.18502 19.3311 10.6591 19.3311 12.463C19.3311 12.6148 19.3126 12.7656 19.2951 12.9164C20.8266 13.2005 21.9883 14.5889 21.9883 16.2799C21.9883 18.1704 20.5473 19.3224 19.0071 19.7106C18.1946 19.9092 15.915 20.0555 13.4065 20.0607" stroke="black" stroke-width="1.5" stroke-linecap="round" stroke-linejoin="round"/>
<path d="M7.97453 14.924C7.50167 14.5903 6.7914 13.9208 6.66394 12.8477" stroke="black" stroke-width="1.5" stroke-linecap="round" stroke-linejoin="round"/>
<path d="M17.9862 14.924C18.4591 14.5903 19.1693 13.9208 19.2968 12.8477" stroke="black" stroke-width="1.5" stroke-linecap="round" stroke-linejoin="round"/>
</svg>