<svg width="25" height="24" viewBox="0 0 25 24" fill="none" xmlns="http://www.w3.org/2000/svg">
<path fill-rule="evenodd" clip-rule="evenodd" d="M16.1993 12.298C16.1993 12.712 15.8633 13.048 15.4493 13.048C15.0353 13.048 14.6993 12.712 14.6993 12.298C14.6993 11.884 15.0353 11.543 15.4493 11.543C15.8633 11.543 16.1993 11.874 16.1993 12.288V12.298ZM15.1443 17.04C14.8423 17.321 14.3683 17.303 14.0853 16.996C13.7313 16.612 13.4063 16.448 12.9983 16.448C12.6213 16.454 12.2793 16.63 11.9643 16.985C11.8153 17.152 11.6093 17.238 11.4023 17.238C11.2253 17.238 11.0483 17.176 10.9053 17.05C10.5953 16.776 10.5663 16.302 10.8413 15.991C11.4343 15.32 12.1773 14.96 12.9873 14.948C13.8323 14.948 14.5493 15.286 15.1883 15.981C15.4693 16.284 15.4493 16.759 15.1443 17.04ZM9.82628 12.298C9.82628 11.884 10.1623 11.543 10.5763 11.543C10.9903 11.543 11.3263 11.874 11.3263 12.288V12.298C11.3263 12.712 10.9903 13.048 10.5763 13.048C10.1623 13.048 9.82628 12.712 9.82628 12.298ZM19.8293 12.537C19.8303 12.514 19.8303 12.491 19.8303 12.468C19.8303 10.622 18.5853 9.04097 16.9083 8.64497C16.9103 8.63197 16.9113 8.61797 16.9133 8.60597C17.1313 6.73097 16.0403 5.10997 13.8333 4.03497L13.6153 3.93197C13.2143 3.73997 12.7603 3.52397 12.3013 3.44397C12.1333 3.42097 11.9603 3.48697 11.8453 3.61697C11.7303 3.74597 11.6943 3.93697 11.7443 4.10297C11.8783 4.54997 12.0423 5.68997 10.6563 6.62697C9.98628 7.12697 9.51228 7.81497 9.29828 8.59097C7.49228 8.88997 6.12828 10.522 6.12828 12.468C6.12828 12.493 6.12828 12.518 6.12928 12.542C4.57428 13.048 3.48828 14.55 3.48828 16.277C3.48828 18.229 4.89328 19.731 7.18328 20.202C8.85428 20.455 11.1503 20.559 13.3073 20.559C15.8703 20.559 18.2363 20.412 19.1263 20.194C20.6773 19.811 22.4883 18.556 22.4883 16.277C22.4883 14.536 21.3943 13.031 19.8293 12.537Z" fill="black"/>
</svg>