<svg width="25" height="24" viewBox="0 0 25 24" fill="none" xmlns="http://www.w3.org/2000/svg">
<path d="M14.0158 12.3428C15.5044 11.3747 15.8615 10.1643 15.9316 9.53866C16.1544 7.55379 14.7008 6.23931 13.1382 5.48039C12.7071 5.27022 12.1973 5.00849 11.7264 4.92871C11.7449 5.00266 12.5719 6.37066 10.266 8.29131C9.60531 8.84298 9.12855 9.75758 9.21904 10.6225C9.28714 11.2637 9.65298 11.866 10.1609 12.3009" stroke="black" stroke-width="1.5" stroke-linecap="round" stroke-linejoin="round"/>
<path d="M9.22108 10.0332C7.50962 10.1373 6.13968 11.6299 6.13968 13.4532C6.13968 13.5855 6.15816 13.7091 6.17568 13.8414C6.17568 13.8599 6.18541 13.8881 6.18541 13.9066C4.6627 14.1995 3.5 15.5889 3.5 17.2702C3.5 19.1607 4.97795 20.3321 6.77016 20.7009C10.4733 21.2574 17.0136 21.0687 18.5188 20.7009C20.059 20.3127 21.5 19.1607 21.5 17.2702C21.5 15.5791 20.3383 14.1907 18.8068 13.9066C18.8243 13.7558 18.8428 13.605 18.8428 13.4532C18.8428 11.6493 17.5186 10.1753 15.8334 10.0429" stroke="black" stroke-width="1.5" stroke-linecap="round" stroke-linejoin="round"/>
<path opacity="0.4" d="M6.17969 13.8369C6.50077 16.5389 10.2156 17.6247 13.0489 16.9164" stroke="black" stroke-width="1.5" stroke-linecap="round" stroke-linejoin="round"/>
<path opacity="0.4" d="M17.501 15.9132C17.9738 15.5795 18.6841 14.9101 18.8116 13.8369" stroke="black" stroke-width="1.5" stroke-linecap="round" stroke-linejoin="round"/>
<path opacity="0.4" d="M20.04 6.04346C19.7179 6.60194 19.7014 7.28497 19.9952 7.85902C20.2735 8.40097 20.2744 9.04411 19.9971 9.588" stroke="black" stroke-width="1.5" stroke-linecap="round" stroke-linejoin="round"/>
<path opacity="0.4" d="M6.22355 2.94873C5.90149 3.50722 5.88495 4.19024 6.17879 4.76333C6.45706 5.30624 6.45803 5.94938 6.18074 6.49327" stroke="black" stroke-width="1.5" stroke-linecap="round" stroke-linejoin="round"/>
</svg>