<svg width="25" height="24" viewBox="0 0 25 24" fill="none" xmlns="http://www.w3.org/2000/svg">
<path d="M19.3301 12.4656C19.3301 10.6607 18.0078 9.18669 16.3227 9.05436C16.3684 8.88896 16.3976 8.72355 16.4161 8.54841C16.6457 6.56452 15.1843 5.25004 13.6227 4.48723C13.1907 4.28582 12.6857 4.01923 12.2167 3.93652C12.2352 4.01923 12.8618 5.73555 10.9548 7.03058C10.2581 7.54723 9.83682 8.27306 9.70839 9.04463C7.99693 9.14874 6.62796 10.6423 6.62796 12.4656C6.62796 12.5953 6.64477 12.7156 6.66284 12.8449L6.66396 12.8528C6.66396 12.8713 6.67271 12.8996 6.67271 12.919C5.15001 13.2119 3.98828 14.6003 3.98828 16.2826C3.98828 18.1721 5.46525 19.3436 7.25844 19.7123C10.9606 20.2698 17.5019 20.0811 19.0061 19.7123C20.5463 19.3251 21.9883 18.1721 21.9883 16.2826C21.9883 14.5916 20.8256 13.2021 19.2941 12.919C19.3126 12.7672 19.3301 12.6164 19.3301 12.4656Z" stroke="black" stroke-width="1.5" stroke-linecap="round" stroke-linejoin="round"/>
<path d="M10.5762 12.2778V12.2878" stroke="black" stroke-width="1.5" stroke-linecap="round" stroke-linejoin="round"/>
<path d="M15.4492 12.2778V12.2878" stroke="black" stroke-width="1.5" stroke-linecap="round" stroke-linejoin="round"/>
<path d="M11.377 15.7041C11.7759 16.1556 12.2964 16.4805 12.9726 16.4873C13.679 16.4951 14.1869 16.1604 14.6111 15.7041" stroke="black" stroke-width="1.5" stroke-linecap="round" stroke-linejoin="round"/>
</svg>