<svg width="24" height="24" viewBox="0 0 24 24" fill="none" xmlns="http://www.w3.org/2000/svg">
<path d="M13.5158 12.3428C15.0044 11.3747 15.3615 10.1643 15.4316 9.53866C15.6544 7.55379 14.2008 6.23931 12.6382 5.48039C12.2071 5.27022 11.6973 5.00849 11.2264 4.92871C11.2449 5.00266 12.0719 6.37066 9.76596 8.29131C9.10531 8.84298 8.62855 9.75758 8.71904 10.6225C8.78714 11.2637 9.15298 11.866 9.66087 12.3009" stroke="black" stroke-width="1.5" stroke-linecap="round" stroke-linejoin="round"/>
<path d="M8.72108 10.0332C7.00962 10.1373 5.63968 11.6299 5.63968 13.4532C5.63968 13.5855 5.65816 13.7091 5.67568 13.8414C5.67568 13.8599 5.68541 13.8881 5.68541 13.9066C4.1627 14.1995 3 15.5889 3 17.2702C3 19.1607 4.47795 20.3321 6.27016 20.7009C9.9733 21.2574 16.5136 21.0687 18.0188 20.7009C19.559 20.3127 21 19.1607 21 17.2702C21 15.5791 19.8383 14.1907 18.3068 13.9066C18.3243 13.7558 18.3428 13.605 18.3428 13.4532C18.3428 11.6493 17.0186 10.1753 15.3334 10.0429" stroke="black" stroke-width="1.5" stroke-linecap="round" stroke-linejoin="round"/>
<path d="M5.67969 13.8369C6.00077 16.5389 9.71558 17.6247 12.5489 16.9164" stroke="black" stroke-width="1.5" stroke-linecap="round" stroke-linejoin="round"/>
<path d="M17.001 15.9132C17.4738 15.5795 18.1841 14.9101 18.3116 13.8369" stroke="black" stroke-width="1.5" stroke-linecap="round" stroke-linejoin="round"/>
<path d="M19.54 6.04346C19.2179 6.60194 19.2014 7.28497 19.4952 7.85902C19.7735 8.40097 19.7744 9.04411 19.4971 9.588" stroke="black" stroke-width="1.5" stroke-linecap="round" stroke-linejoin="round"/>
<path d="M5.72355 2.94873C5.40149 3.50722 5.38495 4.19024 5.67879 4.76333C5.95706 5.30624 5.95803 5.94938 5.68074 6.49327" stroke="black" stroke-width="1.5" stroke-linecap="round" stroke-linejoin="round"/>
</svg>