<svg width="25" height="25" viewBox="0 0 25 25" fill="none" xmlns="http://www.w3.org/2000/svg">
<path opacity="0.4" fill-rule="evenodd" clip-rule="evenodd" d="M19.8293 13.3876C19.8303 13.3646 19.8303 13.3416 19.8303 13.3186C19.8303 11.4726 18.5853 9.89155 16.9083 9.49555C16.9103 9.48255 16.9113 9.46855 16.9133 9.45655C17.1313 7.58155 16.0403 5.96055 13.8333 4.88555L13.6153 4.78255C13.2143 4.59055 12.7603 4.37455 12.3013 4.29455C12.1333 4.27155 11.9603 4.33755 11.8453 4.46755C11.7303 4.59655 11.6943 4.78755 11.7443 4.95355C11.8783 5.40055 12.0423 6.54055 10.6563 7.47755C9.98628 7.97755 9.51228 8.66555 9.29828 9.44155C7.49228 9.74055 6.12828 11.3726 6.12828 13.3186C6.12828 13.3436 6.12828 13.3686 6.12928 13.3926C4.57428 13.8986 3.48828 15.4006 3.48828 17.1276C3.48828 19.0796 4.89328 20.5816 7.18328 21.0526C8.85428 21.3056 11.1503 21.4096 13.3073 21.4096C15.8703 21.4096 18.2363 21.2626 19.1263 21.0446C20.6773 20.6616 22.4883 19.4066 22.4883 17.1276C22.4883 15.3866 21.3943 13.8816 19.8293 13.3876Z" fill="black"/>
<path d="M15.4493 13.8976C15.8633 13.8976 16.1993 13.5616 16.1993 13.1476V13.1376C16.1993 12.7236 15.8633 12.3926 15.4493 12.3926C15.0353 12.3926 14.6993 12.7336 14.6993 13.1476C14.6993 13.5616 15.0353 13.8976 15.4493 13.8976Z" fill="black"/>
<path d="M14.0853 17.8456C14.3683 18.1526 14.8423 18.1706 15.1443 17.8896C15.4493 17.6086 15.4693 17.1336 15.1883 16.8306C14.5493 16.1356 13.8323 15.7976 12.9873 15.7976C12.1773 15.8096 11.4343 16.1696 10.8413 16.8406C10.5663 17.1516 10.5953 17.6256 10.9053 17.8996C11.0483 18.0256 11.2253 18.0876 11.4023 18.0876C11.6093 18.0876 11.8153 18.0016 11.9643 17.8346C12.2793 17.4796 12.6213 17.3036 12.9983 17.2976C13.4063 17.2976 13.7313 17.4616 14.0853 17.8456Z" fill="black"/>
<path d="M10.5763 12.3926C10.1623 12.3926 9.82629 12.7336 9.82629 13.1476C9.82629 13.5616 10.1623 13.8976 10.5763 13.8976C10.9903 13.8976 11.3263 13.5616 11.3263 13.1476V13.1376C11.3263 12.7236 10.9903 12.3926 10.5763 12.3926Z" fill="black"/>
</svg>