<svg width="25" height="24" viewBox="0 0 25 24" fill="none" xmlns="http://www.w3.org/2000/svg">
<path d="M12.5375 20.8083C10.4841 20.8305 8.43161 20.7115 6.39452 20.4523C3.96952 19.9523 2.4865 18.3593 2.4865 16.2813C2.47887 15.438 2.72725 14.6123 3.19878 13.9131C3.67031 13.2139 4.34286 12.6742 5.12755 12.3653C5.13616 11.433 5.45914 10.5308 6.04424 9.80492C6.62934 9.07899 7.44232 8.57175 8.35155 8.36532C8.60523 7.58643 9.09696 6.90681 9.75749 6.42233C10.1593 6.22018 10.4787 5.88495 10.661 5.47375C10.8433 5.06256 10.8774 4.60085 10.7575 4.16733C10.7204 4.04334 10.7152 3.91201 10.7423 3.78547C10.7694 3.65893 10.8279 3.54126 10.9125 3.44333C10.9967 3.34708 11.1038 3.27362 11.2239 3.22975C11.344 3.18587 11.4732 3.173 11.5995 3.19233C12.0873 3.30144 12.5582 3.47567 12.9995 3.71033L13.1935 3.80233C15.4365 4.89733 16.5745 6.54033 16.4315 8.44933C17.262 8.71456 17.9884 9.23346 18.5086 9.93304C19.0288 10.6326 19.3166 11.4777 19.3315 12.3493C20.1219 12.6541 20.8001 13.1933 21.2754 13.8944C21.7506 14.5956 22.0002 15.4253 21.9905 16.2723C21.9642 17.267 21.5973 18.2224 20.9512 18.9791C20.305 19.7357 19.4188 20.2476 18.4405 20.4293C16.4876 20.7263 14.5125 20.8531 12.5375 20.8083ZM6.65752 12.7703C6.66524 12.819 6.6699 12.8681 6.6715 12.9173C6.67135 13.0917 6.61052 13.2605 6.49938 13.3948C6.38824 13.5291 6.23378 13.6205 6.06255 13.6533C5.46561 13.783 4.93217 14.1159 4.55352 14.5953C4.17486 15.0746 3.97443 15.6706 3.9865 16.2813C3.9865 18.2723 6.03052 18.8473 6.65752 18.9763C10.4501 19.4268 14.2825 19.4289 18.0755 18.9823C18.7252 18.875 19.3186 18.5486 19.7571 18.0575C20.1957 17.5663 20.4531 16.9399 20.4865 16.2823C20.5008 15.6704 20.3006 15.0727 19.9205 14.593C19.5404 14.1132 19.0045 13.7815 18.4055 13.6553C18.2178 13.6208 18.0504 13.5158 17.9375 13.3619C17.8247 13.208 17.775 13.0167 17.7985 12.8273C17.8154 12.7073 17.8255 12.5865 17.8285 12.4653C17.8456 11.8119 17.6174 11.1758 17.189 10.6822C16.7605 10.1886 16.1628 9.87331 15.5135 9.79833C15.4035 9.7897 15.2967 9.7569 15.2008 9.70227C15.1049 9.64763 15.0222 9.5725 14.9587 9.48224C14.8952 9.39198 14.8524 9.28881 14.8334 9.1801C14.8143 9.07139 14.8195 8.95981 14.8485 8.85332C14.8821 8.72775 14.9055 8.59967 14.9185 8.47033C15.1185 6.78533 13.7335 5.74033 12.5425 5.15733L12.3495 5.06533L12.3105 5.04733C12.2448 5.57998 12.059 6.09076 11.7671 6.54115C11.4752 6.99154 11.0849 7.36977 10.6255 7.64733C10.1326 8.01515 9.79972 8.55818 9.69554 9.16433C9.66831 9.33178 9.58477 9.48494 9.45879 9.59857C9.33281 9.71219 9.17192 9.77947 9.00255 9.78933C8.34119 9.85003 7.72766 10.16 7.28643 10.6564C6.84519 11.1528 6.60926 11.7984 6.62651 12.4623C6.62955 12.5535 6.63861 12.6443 6.65355 12.7343C6.65555 12.7473 6.65652 12.7583 6.65752 12.7703Z" fill="black"/>
<path d="M9.82433 13.0363C9.67557 13.0369 9.53 12.9934 9.40593 12.9113C9.28186 12.8292 9.1849 12.7122 9.12724 12.5751C9.06959 12.438 9.0538 12.2868 9.08196 12.1408C9.11011 11.9947 9.1809 11.8602 9.28539 11.7544C9.38987 11.6485 9.52343 11.5759 9.66911 11.5458C9.8148 11.5157 9.96611 11.5295 10.104 11.5853C10.2419 11.6412 10.3601 11.7366 10.4438 11.8595C10.5275 11.9825 10.5729 12.1275 10.5743 12.2763V12.2863C10.5743 12.4852 10.4953 12.6759 10.3547 12.8166C10.214 12.9572 10.0232 13.0363 9.82433 13.0363Z" fill="black"/>
<path d="M14.6954 13.0363C14.5466 13.0369 14.401 12.9934 14.277 12.9113C14.1529 12.8292 14.0559 12.7122 13.9983 12.5751C13.9406 12.438 13.9249 12.2868 13.9531 12.1408C13.9812 11.9947 14.052 11.8602 14.1565 11.7544C14.261 11.6485 14.3945 11.5759 14.5402 11.5458C14.6858 11.5157 14.8372 11.5295 14.975 11.5853C15.1129 11.6412 15.2312 11.7366 15.3149 11.8595C15.3986 11.9825 15.444 12.1275 15.4454 12.2763V12.2863C15.4454 12.4852 15.3664 12.6759 15.2257 12.8166C15.0851 12.9572 14.8943 13.0363 14.6954 13.0363Z" fill="black"/>
<path d="M12.2492 17.2352H12.2172C11.8055 17.2271 11.4003 17.1303 11.0293 16.9516C10.6583 16.7728 10.3301 16.5162 10.0672 16.1992C9.9997 16.1259 9.94748 16.0398 9.91364 15.946C9.8798 15.8522 9.86502 15.7526 9.87013 15.653C9.87523 15.5534 9.90011 15.4559 9.94337 15.366C9.98662 15.2762 10.0474 15.1959 10.122 15.1298C10.1967 15.0637 10.2838 15.0132 10.3782 14.9812C10.4727 14.9491 10.5725 14.9362 10.6719 14.9433C10.7714 14.9503 10.8685 14.9771 10.9575 15.0221C11.0465 15.067 11.1256 15.1293 11.1902 15.2052C11.3139 15.3708 11.4748 15.5051 11.6599 15.5971C11.8449 15.6891 12.049 15.7364 12.2557 15.735C12.4624 15.7336 12.6659 15.6837 12.8498 15.5893C13.0337 15.4948 13.1927 15.3585 13.3142 15.1912C13.4497 15.0454 13.6376 14.9593 13.8366 14.952C14.0356 14.9447 14.2293 15.0167 14.3752 15.1522C14.5211 15.2878 14.6071 15.4757 14.6144 15.6746C14.6218 15.8736 14.5497 16.0674 14.4142 16.2132C14.1484 16.5297 13.8173 16.7849 13.4436 16.9613C13.0699 17.1377 12.6625 17.2312 12.2492 17.2352Z" fill="black"/>
</svg>