<svg width="25" height="24" viewBox="0 0 25 24" fill="none" xmlns="http://www.w3.org/2000/svg">
<path opacity="0.4" d="M13.5 6.73011V8.3347L14.7287 8.86085L16.3947 11.7499L13.5 10.5104V13.3757L16.4745 11.8884L16.838 12.5188C17.0515 12.8912 17.2151 13.2878 17.3263 13.6986L13.536 15.5938C13.6165 16.2618 13.8312 16.9088 14.1696 17.4951C14.5096 18.0841 14.965 18.5957 15.5064 19.0004C15.3441 19.1225 15.174 19.235 14.9968 19.3371C14.532 19.605 14.0291 19.7953 13.5078 19.9025C13.1233 19.5113 12.7847 19.0748 12.5 18.6011C12.2154 19.0748 11.8767 19.5113 11.4922 19.9025C10.971 19.7953 10.4681 19.605 10.0033 19.3371C9.82614 19.235 9.656 19.1225 9.49366 19.0004C10.035 18.5957 10.4904 18.0841 10.8304 17.4951C11.1687 16.909 11.3834 16.2623 11.464 15.5945L7.67358 13.6993C7.78478 13.2883 7.94848 12.8915 8.16199 12.5189L8.16255 12.518L8.52521 11.8891L11.5 13.3764V10.5103L8.60554 11.7498L10.2715 8.86069L11.5 8.33464V6.73038L12.5001 4.99609L13.5 6.73011Z" fill="black"/>
<path fill-rule="evenodd" clip-rule="evenodd" d="M12.5 1.99414C12.8575 1.99414 13.1877 2.18494 13.3663 2.49459L18.5725 11.523C19.1829 12.5874 19.5027 13.7935 19.5 15.0205C19.4973 16.2475 19.1721 17.4523 18.557 18.514C17.9419 19.5757 17.0586 20.4571 15.9955 21.0698C14.9324 21.6825 13.727 22.005 12.5 22.005C11.273 22.005 10.0675 21.6825 9.00448 21.0698C7.94141 20.4571 7.05807 19.5757 6.443 18.514C5.82793 17.4523 5.50274 16.2475 5.50002 15.0205C5.4973 13.7935 5.81714 12.5874 6.4275 11.523L6.42871 11.5208L11.6337 2.49459C11.8123 2.18494 12.1425 1.99414 12.5 1.99414ZM12.5 4.99596L8.1625 12.5178C8.16231 12.5182 8.16213 12.5185 8.16194 12.5188C7.72633 13.2789 7.49807 14.14 7.50001 15.0161C7.50196 15.8925 7.73424 16.7531 8.17357 17.5114C8.61291 18.2698 9.24387 18.8993 10.0032 19.337C10.7625 19.7746 11.6236 20.005 12.5 20.005C13.3764 20.005 14.2375 19.7746 14.9968 19.337C15.7561 18.8993 16.3871 18.2698 16.8264 17.5114C17.2658 16.7531 17.498 15.8925 17.5 15.0161C17.5019 14.14 17.2736 13.2788 16.838 12.5187C16.8378 12.5184 16.8381 12.519 16.838 12.5187L12.5 4.99596Z" fill="black"/>
</svg>