<svg width="24" height="25" viewBox="0 0 24 25" fill="none" xmlns="http://www.w3.org/2000/svg">
<path fill-rule="evenodd" clip-rule="evenodd" d="M14.1764 17.0729H13.0004V14.7109C13.0004 14.1579 12.5524 13.7109 12.0004 13.7109C11.4484 13.7109 11.0004 14.1579 11.0004 14.7109V17.0729H9.82543C9.42143 17.0729 9.05643 17.3169 8.90243 17.6899C8.74743 18.0639 8.83243 18.4939 9.11843 18.7799L11.2914 20.9539C11.4724 21.1359 11.7234 21.2489 12.0004 21.2489C12.2684 21.2489 12.5124 21.1429 12.6924 20.9709C12.6914 20.9709 12.6934 20.9709 12.6944 20.9689C12.6954 20.9689 12.6964 20.9679 12.6964 20.9669C12.6974 20.9669 12.6974 20.9659 12.6984 20.9649C12.7014 20.9619 12.7044 20.9589 12.7074 20.9559L14.8834 18.7799C15.1694 18.4939 15.2554 18.0639 15.1004 17.6899C14.9454 17.3169 14.5804 17.0729 14.1764 17.0729Z" fill="black"/>
<path fill-rule="evenodd" clip-rule="evenodd" d="M9.82484 7.426H11.0008V9.788C11.0008 10.341 11.4488 10.788 12.0008 10.788C12.5528 10.788 13.0008 10.341 13.0008 9.788V7.426H14.1758C14.5798 7.426 14.9448 7.182 15.0988 6.809C15.2538 6.435 15.1688 6.005 14.8828 5.719L12.7098 3.545C12.5288 3.363 12.2778 3.25 12.0008 3.25C11.7328 3.25 11.4888 3.356 11.3088 3.528C11.3088 3.529 11.3078 3.529 11.3068 3.53C11.3058 3.53 11.3048 3.531 11.3048 3.532C11.3038 3.532 11.3038 3.533 11.3028 3.534C11.2998 3.537 11.2968 3.54 11.2938 3.543L9.11784 5.719C8.83183 6.005 8.74583 6.435 8.90084 6.809C9.05584 7.182 9.42084 7.426 9.82484 7.426Z" fill="black"/>
<path fill-rule="evenodd" clip-rule="evenodd" d="M10.5387 12.25C10.5387 11.698 10.0907 11.25 9.53873 11.25H7.17673V10.074C7.17673 9.66996 6.93273 9.30496 6.55973 9.14996C6.18473 8.99596 5.75573 9.08096 5.46973 9.36696L3.29373 11.543C3.28973 11.546 3.28773 11.549 3.28473 11.552L3.28173 11.555C3.28173 11.556 3.28073 11.556 3.27973 11.557C3.27873 11.558 3.27973 11.559 3.27773 11.559C3.10673 11.737 3.00173 11.98 3.00073 12.247V12.25C3.00073 12.527 3.11373 12.778 3.29473 12.959L5.46973 15.132C5.66073 15.323 5.91673 15.425 6.17673 15.425C6.30573 15.425 6.43573 15.4 6.55973 15.349C6.93273 15.194 7.17673 14.829 7.17673 14.425V13.25H9.53873C10.0907 13.25 10.5387 12.802 10.5387 12.25Z" fill="black"/>
<path fill-rule="evenodd" clip-rule="evenodd" d="M20.7223 11.5586C20.7223 11.5576 20.7193 11.5566 20.7193 11.5556C20.7203 11.5546 20.7183 11.5536 20.7163 11.5526C20.7133 11.5496 20.7093 11.5456 20.7063 11.5426L18.5313 9.36763C18.2443 9.08063 17.8143 8.99563 17.4413 9.15063C17.0673 9.30563 16.8243 9.66963 16.8243 10.0746V11.2496H14.4613C13.9093 11.2496 13.4613 11.6976 13.4613 12.2496C13.4613 12.8026 13.9093 13.2496 14.4613 13.2496H16.8243V14.4246C16.8243 14.8296 17.0673 15.1936 17.4413 15.3486C17.5643 15.3996 17.6953 15.4246 17.8243 15.4246C18.0833 15.4246 18.3393 15.3236 18.5313 15.1316L20.7043 12.9586C20.8873 12.7776 20.9993 12.5276 20.9993 12.2496V12.2466C20.9983 11.9796 20.8933 11.7376 20.7223 11.5586Z" fill="black"/>
</svg>