<svg width="25" height="24" viewBox="0 0 25 24" fill="none" xmlns="http://www.w3.org/2000/svg">
<path fill-rule="evenodd" clip-rule="evenodd" d="M7.82251 4.68213C7.11757 4.68096 6.54539 5.25101 6.54403 5.9552L6.52928 13.521H17.6563L17.6711 5.98041C17.6724 5.27639 17.1023 4.70403 16.3991 4.70267L14.8366 4.69893L14.8468 9.30012C14.8473 9.54063 14.7324 9.76681 14.538 9.90829C14.3435 10.0498 14.0929 10.0894 13.8642 10.0148L12.1088 9.4424L10.3412 10.0249C10.1128 10.1002 9.86216 10.0614 9.66723 9.9205C9.4723 9.77964 9.35674 9.55385 9.35649 9.31335L9.35183 4.68579L7.82251 4.68213ZM10.8518 4.68939L10.8554 8.2761L11.8728 7.94082C12.0245 7.89082 12.1882 7.89057 12.3401 7.94009L13.3445 8.2676L13.3366 4.69534L10.8518 4.68939ZM13.9532 3.19681L7.8261 3.18213C6.29337 3.17917 5.04701 4.41877 5.04404 5.95229C5.04404 5.95229 5.04404 5.9523 5.04404 5.95229L5.02928 13.521H4.99799C2.98251 13.521 1.34961 15.1554 1.34961 17.1694C1.34961 19.1847 2.98269 20.8178 4.99799 20.8178H19.2012C21.2165 20.8178 22.8496 19.1847 22.8496 17.1694C22.8496 15.1554 21.2167 13.521 19.2012 13.521H19.1563L19.1711 5.98333C19.174 4.45179 17.9346 3.20583 16.4023 3.20267L14.2201 3.19745C14.1757 3.18937 14.1299 3.18519 14.0832 3.1853C14.0389 3.1854 13.9955 3.18934 13.9532 3.19681ZM18.3753 15.021C18.3846 15.0214 18.394 15.0216 18.4034 15.0216C18.4138 15.0216 18.4241 15.0214 18.4344 15.021H19.2012C20.3879 15.021 21.3496 15.9834 21.3496 17.1694C21.3496 18.3563 20.3881 19.3178 19.2012 19.3178H4.99799C3.81112 19.3178 2.84961 18.3563 2.84961 17.1694C2.84961 15.9834 3.8113 15.021 4.99799 15.021H5.74831C5.75762 15.0214 5.76697 15.0216 5.77636 15.0216C5.78675 15.0216 5.79709 15.0214 5.80738 15.021H18.3753ZM5.37199 17.169C5.37199 16.7548 5.70778 16.419 6.12199 16.419H7.27659C7.6908 16.419 8.02659 16.7548 8.02659 17.169C8.02659 17.5833 7.6908 17.919 7.27659 17.919H6.12199C5.70778 17.919 5.37199 17.5833 5.37199 17.169ZM10.788 17.169C10.788 16.7548 11.1237 16.419 11.538 16.419H12.6925C13.1068 16.419 13.4425 16.7548 13.4425 17.169C13.4425 17.5833 13.1068 17.919 12.6925 17.919H11.538C11.1237 17.919 10.788 17.5833 10.788 17.169ZM16.2029 17.169C16.2029 16.7548 16.5386 16.419 16.9529 16.419H18.1075C18.5217 16.419 18.8575 16.7548 18.8575 17.169C18.8575 17.5833 18.5217 17.919 18.1075 17.919H16.9529C16.5386 17.919 16.2029 17.5833 16.2029 17.169Z" fill="black"/>
</svg>