<svg width="25" height="24" viewBox="0 0 25 24" fill="none" xmlns="http://www.w3.org/2000/svg">
<path d="M19.3665 11.1919C19.4169 11.519 19.4429 11.8586 19.4429 12.2101L19.4527 16.6916C19.4527 18.9684 18.035 20.5758 15.7563 20.5758H9.23834C6.9606 20.5758 5.54297 18.9684 5.54297 16.6916V12.2101C5.54297 11.8586 5.56906 11.519 5.61941 11.1919" stroke="black" stroke-width="1.5" stroke-linecap="round" stroke-linejoin="round"/>
<path d="M19.4389 14.0164H20.3574C20.841 14.0164 21.2486 13.6564 21.3148 13.1825L21.4948 11.8184C21.5415 11.4681 21.2671 11.1558 20.9169 11.1558H4.08335C3.7321 11.1558 3.45772 11.4681 3.5054 11.8184L3.6854 13.1825C3.75156 13.6564 4.15924 14.0164 4.64184 14.0164H5.54184" stroke="black" stroke-width="1.5" stroke-linecap="round" stroke-linejoin="round"/>
<path opacity="0.4" fill-rule="evenodd" clip-rule="evenodd" d="M13.7573 4.68326C13.7573 3.98758 13.194 3.42422 12.4983 3.42422C11.8026 3.42422 11.2383 3.98758 11.2383 4.68326C11.2383 5.37894 11.8026 5.94229 12.4983 5.94229C13.194 5.94229 13.7573 5.37894 13.7573 4.68326Z" stroke="black" stroke-width="1.5" stroke-linecap="round" stroke-linejoin="round"/>
</svg>