<svg width="24" height="24" viewBox="0 0 24 24" fill="none" xmlns="http://www.w3.org/2000/svg">
<path d="M8.73834 20.5758C6.4606 20.5758 5.04297 18.9684 5.04297 16.6916V12.2101C5.04297 8.3717 8.15456 5.94315 11.993 5.94315C15.8314 5.94315 18.9429 8.3717 18.9429 12.2101L18.9527 16.6916C18.9527 18.9684 17.535 20.5758 15.2563 20.5758H8.73834Z" stroke="black" stroke-width="1.5" stroke-linecap="round" stroke-linejoin="round"/>
<path d="M18.9389 14.0164H19.8574C20.341 14.0164 20.7486 13.6564 20.8148 13.1825L20.9948 11.8184C21.0415 11.4681 20.7671 11.1558 20.4169 11.1558H3.58335C3.2321 11.1558 2.95772 11.4681 3.0054 11.8184L3.1854 13.1825C3.25156 13.6564 3.65924 14.0164 4.14184 14.0164H5.04184" stroke="black" stroke-width="1.5" stroke-linecap="round" stroke-linejoin="round"/>
<path fill-rule="evenodd" clip-rule="evenodd" d="M13.2573 4.68326C13.2573 3.98758 12.694 3.42422 11.9983 3.42422C11.3026 3.42422 10.7383 3.98758 10.7383 4.68326C10.7383 5.37894 11.3026 5.94229 11.9983 5.94229C12.694 5.94229 13.2573 5.37894 13.2573 4.68326Z" stroke="black" stroke-width="1.5" stroke-linecap="round" stroke-linejoin="round"/>
</svg>