<svg width="25" height="24" viewBox="0 0 25 24" fill="none" xmlns="http://www.w3.org/2000/svg">
<path fill-rule="evenodd" clip-rule="evenodd" d="M11.3438 3.93994H10.8188C10.4048 3.93994 10.0688 3.59995 10.0688 3.18994C10.0688 2.76993 10.4048 2.43994 10.8188 2.43994H13.1899C13.604 2.43994 13.9399 2.76993 13.9399 3.18994C13.9399 3.59995 13.604 3.93994 13.1899 3.93994H12.8438V4.76135C14.6387 4.89642 16.292 5.46832 17.5601 6.48999C18.6045 7.32089 19.3633 8.43938 19.7207 9.80005H21C21.4141 9.80005 21.75 10.14 21.75 10.55C21.75 10.9601 21.4141 11.3 21 11.3H19.9429C19.9478 11.4122 19.9502 11.5255 19.9502 11.64L19.959 16.29C19.959 17.62 19.542 18.8199 18.729 19.7C17.9102 20.5699 16.7461 21.0601 15.3809 21.0601H8.62793C7.26318 21.0601 6.09912 20.5699 5.28027 19.7C4.4668 18.8199 4.0498 17.62 4.0498 16.29V11.64C4.0498 11.5255 4.05225 11.4122 4.05713 11.3H3C2.58594 11.3 2.25 10.9601 2.25 10.55C2.25 10.14 2.58594 9.80005 3 9.80005H4.2793C4.63672 8.43938 5.39453 7.32089 6.43896 6.48999C7.75146 5.43277 9.47559 4.85718 11.3438 4.74884V3.93994ZM5.55859 11.3C5.55273 11.4115 5.5498 11.5248 5.5498 11.64V16.29C5.5498 17.31 5.86719 18.12 6.37793 18.67C6.88281 19.22 7.63281 19.5601 8.62793 19.5601H15.3809C16.376 19.5601 17.126 19.22 17.6309 18.67C18.1421 18.12 18.459 17.31 18.459 16.29L18.4502 11.65V11.64C18.4502 11.5248 18.4473 11.4115 18.4414 11.3H5.55859ZM18.1523 9.80005C17.8447 8.92496 17.3125 8.21318 16.6221 7.66003C15.481 6.74002 13.8589 6.22998 12 6.22998C10.1411 6.22998 8.51807 6.74002 7.37695 7.66003C6.6875 8.21318 6.15527 8.92496 5.84766 9.80005H18.1523Z" fill="black"/>
</svg>