<svg width="25" height="25" viewBox="0 0 25 25" fill="none" xmlns="http://www.w3.org/2000/svg">
<path opacity="0.4" d="M8.28313 3.0625H16.7178C19.6659 3.0625 21.5 5.14369 21.5 8.08888V16.0361C21.5 18.9813 19.6659 21.0625 16.7169 21.0625H8.28313C5.33503 21.0625 3.5 18.9813 3.5 16.0361V8.08888C3.5 5.14369 5.34378 3.0625 8.28313 3.0625Z" stroke="black" stroke-width="1.5" stroke-linecap="round" stroke-linejoin="round"/>
<path d="M11.2262 11.8164C11.8654 12.6035 11.919 13.7147 11.3585 14.5602C10.9557 15.0817 10.5257 15.5828 10.0684 16.0586H14.6968" stroke="black" stroke-width="1.5" stroke-linecap="round" stroke-linejoin="round"/>
<path d="M14.8138 8.89662C13.9945 7.91586 12.5351 7.78548 11.5543 8.60473C10.593 9.4084 10.4461 10.8319 11.2235 11.8155" stroke="black" stroke-width="1.5" stroke-linecap="round" stroke-linejoin="round"/>
<path d="M9.29688 12.2031H13.9253" stroke="black" stroke-width="1.5" stroke-linecap="round" stroke-linejoin="round"/>
</svg>