<svg width="24" height="25" viewBox="0 0 24 25" fill="none" xmlns="http://www.w3.org/2000/svg">
<path fill-rule="evenodd" clip-rule="evenodd" d="M15.9639 17.0596H11.2359C11.4209 16.8326 11.6049 16.6006 11.7869 16.3616C12.4079 15.4246 12.6259 14.3266 12.4779 13.2696H14.8059C15.3589 13.2696 15.8059 12.8226 15.8059 12.2696C15.8059 11.7166 15.3589 11.2696 14.8059 11.2696H11.6729C11.6269 11.2046 11.5889 11.1356 11.5389 11.0726C11.5379 11.0706 11.5359 11.0676 11.5359 11.0676C10.7129 10.0306 10.8719 8.49163 11.8919 7.63763C12.9369 6.76163 14.4989 6.90463 15.3759 7.95163C15.7299 8.37363 16.3599 8.43263 16.7839 8.07663C17.2079 7.72263 17.2639 7.09163 16.9089 6.66763C15.3259 4.77563 12.4989 4.52063 10.6079 6.10363C9.05291 7.40663 8.61391 9.50063 9.36991 11.2696H7.85791C7.30491 11.2696 6.85791 11.7166 6.85791 12.2696C6.85791 12.8226 7.30491 13.2696 7.85791 13.2696H10.4499C10.6239 13.9306 10.5309 14.6376 10.1599 15.2006C9.57791 15.9586 8.95091 16.6866 8.29591 17.3656C8.01791 17.6536 7.93891 18.0806 8.09491 18.4506C8.25191 18.8196 8.61391 19.0596 9.01591 19.0596H15.9639C16.5169 19.0596 16.9639 18.6126 16.9639 18.0596C16.9639 17.5066 16.5169 17.0596 15.9639 17.0596Z" fill="black"/>
</svg>