<svg width="24" height="25" viewBox="0 0 24 25" fill="none" xmlns="http://www.w3.org/2000/svg">
<path opacity="0.4" fill-rule="evenodd" clip-rule="evenodd" d="M12 2.5625C6.762 2.5625 2.5 6.8245 2.5 12.0625C2.5 17.3005 6.762 21.5625 12 21.5625C17.238 21.5625 21.5 17.3005 21.5 12.0625C21.5 6.8245 17.238 2.5625 12 2.5625Z" fill="black"/>
<path d="M11.3981 11.1911C11.3891 11.1781 11.3861 11.1611 11.3761 11.1481C10.8871 10.5321 10.9801 9.64809 11.5851 9.13809C12.1941 8.62809 13.1081 8.71009 13.6241 9.32509C13.8901 9.64109 14.3621 9.68309 14.6811 9.41909C14.9981 9.15309 15.0401 8.67909 14.7741 8.36209C13.7301 7.11409 11.8661 6.94609 10.6201 7.99009C9.64508 8.81109 9.33908 10.1061 9.74208 11.2331H8.95508C8.54108 11.2331 8.20508 11.5691 8.20508 11.9831C8.20508 12.3971 8.54108 12.7331 8.95508 12.7331H10.4881C10.5611 13.0941 10.5151 13.4711 10.3181 13.7671C9.97608 14.2141 9.59208 14.6641 9.14408 15.1381C8.93808 15.3561 8.88208 15.6751 9.00108 15.9501C9.11908 16.2251 9.39008 16.4031 9.68908 16.4031H14.0851C14.4991 16.4031 14.8351 16.0671 14.8351 15.6531C14.8351 15.2391 14.4991 14.9031 14.0851 14.9031H11.3331C11.4021 14.8161 11.4711 14.7281 11.5381 14.6391C11.9191 14.0681 12.0691 13.3911 12.0071 12.7331H13.3521C13.7661 12.7331 14.1021 12.3971 14.1021 11.9831C14.1021 11.5691 13.7661 11.2331 13.3521 11.2331H11.4271C11.4161 11.2191 11.4091 11.2051 11.3981 11.1911Z" fill="black"/>
</svg>