<svg width="25" height="25" viewBox="0 0 25 25" fill="none" xmlns="http://www.w3.org/2000/svg">
<path fill-rule="evenodd" clip-rule="evenodd" d="M10.5305 11.1111C10.8521 10.85 11.3244 10.8991 11.5855 11.2207C12.7514 12.6568 12.8498 14.6845 11.8277 16.2269C11.8177 16.2419 11.8072 16.2566 11.7962 16.2709C11.5231 16.6246 11.2419 16.9718 10.9526 17.3123H16.2143C16.6285 17.3123 16.9643 17.6481 16.9643 18.0623C16.9643 18.4765 16.6285 18.8123 16.2143 18.8123H9.26564C8.96516 18.8123 8.69368 18.633 8.57578 18.3566C8.45789 18.0802 8.51633 17.7601 8.7243 17.5432C9.38441 16.8548 10.0075 16.1314 10.5914 15.3768C11.2363 14.3838 11.1683 13.0867 10.4209 12.1661C10.1599 11.8445 10.2089 11.3722 10.5305 11.1111Z" fill="black"/>
<path fill-rule="evenodd" clip-rule="evenodd" d="M11.0189 6.2958C12.809 4.79932 15.4731 5.03782 16.9688 6.82804C17.2344 7.14591 17.192 7.61889 16.8741 7.88446C16.5562 8.15004 16.0832 8.10765 15.8177 7.78978C14.8532 6.63542 13.1353 6.48156 11.9808 7.44674L11.9807 7.44689C10.849 8.39244 10.6761 10.0681 11.5911 11.2259C11.8479 11.5509 11.7926 12.0226 11.4676 12.2794C11.1427 12.5362 10.671 12.4809 10.4142 12.1559C8.99604 10.3613 9.26308 7.76299 11.0187 6.29594" fill="black"/>
<path fill-rule="evenodd" clip-rule="evenodd" d="M7.35742 12.2734C7.35742 11.8592 7.69321 11.5234 8.10742 11.5234H15.0561C15.4703 11.5234 15.8061 11.8592 15.8061 12.2734C15.8061 12.6877 15.4703 13.0234 15.0561 13.0234H8.10742C7.69321 13.0234 7.35742 12.6877 7.35742 12.2734Z" fill="black"/>
</svg>