<svg width="24" height="25" viewBox="0 0 24 25" fill="none" xmlns="http://www.w3.org/2000/svg">
<path fill-rule="evenodd" clip-rule="evenodd" d="M7.18359 7.56715C7.18359 6.53358 8.02101 5.69531 9.05446 5.69531H16.919C17.9538 5.69531 18.7898 6.534 18.7898 7.56715V9.09374C18.7898 12.0766 16.6083 14.7959 13.5545 15.0866C10.0958 15.4169 7.18359 12.7037 7.18359 9.31071V7.56715ZM9.05446 7.19531C8.85028 7.19531 8.68359 7.36116 8.68359 7.56715V9.31071C8.68359 11.8275 10.8424 13.8389 13.4121 13.5934L13.4124 13.5934C15.6126 13.3839 17.2898 11.3903 17.2898 9.09374V7.56715C17.2898 7.36073 17.1237 7.19531 16.919 7.19531H9.05446Z" fill="black"/>
<path fill-rule="evenodd" clip-rule="evenodd" d="M12.9854 13.7773C13.3996 13.7773 13.7354 14.1131 13.7354 14.5273V17.7214C13.74 18.4373 14.3356 19.042 15.1033 19.046H16.1582C17.313 19.046 18.2762 19.9678 18.2762 21.1367C18.2762 21.551 17.9404 21.8867 17.5262 21.8867C17.112 21.8867 16.7762 21.551 16.7762 21.1367C16.7762 20.8248 16.5135 20.546 16.1582 20.546H15.0984C13.5342 20.5395 12.2434 19.2949 12.2354 17.7274L12.2354 17.7236L12.2354 14.5273C12.2354 14.1131 12.5711 13.7773 12.9854 13.7773Z" fill="black"/>
<path fill-rule="evenodd" clip-rule="evenodd" d="M7.83912 15.0202C8.2012 15.2214 8.33165 15.678 8.13048 16.04L7.23269 17.656H9.59789C9.86364 17.656 10.1095 17.7966 10.2443 18.0256C10.3791 18.2547 10.3826 18.5379 10.2535 18.7702L8.73664 21.5004C8.53547 21.8624 8.07886 21.9929 7.71678 21.7917C7.3547 21.5905 7.22425 21.1339 7.42542 20.7719L8.32321 19.156H5.95801C5.69226 19.156 5.44636 19.0153 5.3116 18.7863C5.17684 18.5572 5.17334 18.274 5.3024 18.0417L6.81926 15.3115C7.02043 14.9495 7.47704 14.819 7.83912 15.0202Z" fill="black"/>
<path fill-rule="evenodd" clip-rule="evenodd" d="M10.4443 2.38672C10.8585 2.38672 11.1943 2.72251 11.1943 3.13672V6.44579C11.1943 6.86001 10.8585 7.19579 10.4443 7.19579C10.0301 7.19579 9.69434 6.86001 9.69434 6.44579V3.13672C9.69434 2.72251 10.0301 2.38672 10.4443 2.38672ZM15.5277 2.38672C15.9419 2.38672 16.2777 2.72251 16.2777 3.13672V6.44579C16.2777 6.86001 15.9419 7.19579 15.5277 7.19579C15.1135 7.19579 14.7777 6.86001 14.7777 6.44579V3.13672C14.7777 2.72251 15.1135 2.38672 15.5277 2.38672Z" fill="black"/>
</svg>