<svg width="24" height="24" viewBox="0 0 24 24" fill="none" xmlns="http://www.w3.org/2000/svg">
<path fill-rule="evenodd" clip-rule="evenodd" d="M17.0109 14.4336H19.0824C19.7907 14.4336 20.3647 15.0076 20.3647 15.716V17.4255H15.7285V15.716C15.7285 15.0076 16.3026 14.4336 17.0109 14.4336Z" stroke="black" stroke-width="1.5" stroke-linecap="round" stroke-linejoin="round"/>
<path d="M19.6675 17.4258V19.5128H16.375V17.4258" stroke="black" stroke-width="1.5" stroke-linecap="round" stroke-linejoin="round"/>
<path d="M17.932 14.4091V7.85709C17.932 5.1746 15.7574 3 13.0749 3H13.0153C10.3328 3 8.1582 5.17459 8.1582 7.85709" stroke="black" stroke-width="1.5" stroke-linecap="round" stroke-linejoin="round"/>
<path d="M12.6562 18.5028V10.3619C12.6562 8.98318 11.5382 7.86523 10.1595 7.86523H6.13044C4.75174 7.86523 3.63477 8.98318 3.63477 10.3619V18.5028C3.63477 19.8815 4.75174 20.9994 6.13044 20.9994H10.1595C11.5382 20.9994 12.6562 19.8815 12.6562 18.5028Z" stroke="black" stroke-width="1.5" stroke-linecap="round" stroke-linejoin="round"/>
<path d="M8.13796 16.7641L9.40574 14.4357H6.88477L8.15158 12.1055" stroke="black" stroke-width="1.5" stroke-linecap="round" stroke-linejoin="round"/>
</svg>