<svg width="24" height="24" viewBox="0 0 24 24" fill="none" xmlns="http://www.w3.org/2000/svg">
<path fill-rule="evenodd" clip-rule="evenodd" d="M18.6997 8.957V7.43C18.6997 6.536 17.9717 5.809 17.0777 5.809H16.4387V3C16.4387 2.586 16.1027 2.25 15.6887 2.25C15.2747 2.25 14.9387 2.586 14.9387 3V5.809H11.3547V3C11.3547 2.586 11.0187 2.25 10.6047 2.25C10.1907 2.25 9.85465 2.586 9.85465 3V5.809H9.21365C8.31965 5.809 7.59265 6.536 7.59265 7.43V9.174C7.59265 10.735 8.25565 12.234 9.41065 13.284C10.2577 14.054 11.2907 14.512 12.3957 14.66V17.591C12.4037 19.138 13.6877 20.402 15.2627 20.409H16.3187C16.6587 20.409 16.9367 20.674 16.9367 21C16.9367 21.414 17.2727 21.75 17.6867 21.75C18.1007 21.75 18.4367 21.414 18.4367 21C18.4367 19.847 17.4867 18.909 16.3187 18.909H15.2657C14.5137 18.906 13.8997 18.311 13.8957 17.587V14.66C16.6037 14.29 18.6997 11.836 18.6997 8.957Z" fill="black"/>
<path fill-rule="evenodd" clip-rule="evenodd" d="M10.1142 16.9411C9.82117 16.6481 9.34617 16.6491 9.05317 16.9411L7.81717 18.1761L6.58017 16.9411C6.28717 16.6491 5.81217 16.6481 5.51917 16.9411C5.22717 17.2341 5.22717 17.7091 5.52017 18.0021L6.75617 19.2361L5.52017 20.4691C5.22717 20.7621 5.22717 21.2371 5.51917 21.5301C5.66617 21.6771 5.85817 21.7501 6.05017 21.7501C6.24217 21.7501 6.43317 21.6771 6.58017 21.5311L7.81717 20.2961L9.05317 21.5311C9.34617 21.8231 9.82117 21.8231 10.1142 21.5301C10.4062 21.2371 10.4062 20.7621 10.1142 20.4691L8.87817 19.2361L10.1142 18.0021C10.4062 17.7091 10.4062 17.2341 10.1142 16.9411Z" fill="black"/>
</svg>