<svg width="24" height="25" viewBox="0 0 24 25" fill="none" xmlns="http://www.w3.org/2000/svg">
<path fill-rule="evenodd" clip-rule="evenodd" d="M12.179 4.43033L19.7069 11.9583C20.5925 12.8439 20.5919 14.2794 19.7073 15.1653L18.2451 16.6267C18.245 16.6268 18.2451 16.6266 18.2451 16.6267C15.4761 19.3964 10.9378 19.8833 7.85269 17.3358C4.34778 14.4412 4.16283 9.23822 7.30162 6.09944L8.97072 4.43033C9.85607 3.54406 11.2936 3.54406 12.179 4.43033ZM11.1175 5.49017C10.818 5.19023 10.3317 5.19023 10.0322 5.49017L8.36228 7.1601C5.84336 9.67901 5.99126 13.8531 8.80782 16.1792C11.2322 18.1811 14.9008 17.8505 17.1842 15.5662L18.6459 14.1055C18.6457 14.1056 18.646 14.1053 18.6459 14.1055C18.9458 13.8046 18.9455 13.3181 18.6463 13.0189L11.1175 5.49017Z" fill="black"/>
<path fill-rule="evenodd" clip-rule="evenodd" d="M15.6639 3.60639C15.9568 3.89928 15.9568 4.37416 15.6639 4.66705L13.5098 6.82114C13.2169 7.11404 12.7421 7.11404 12.4492 6.82114C12.1563 6.52825 12.1563 6.05338 12.4492 5.76048L14.6033 3.60639C14.8961 3.3135 15.371 3.3135 15.6639 3.60639Z" fill="black"/>
<path fill-rule="evenodd" clip-rule="evenodd" d="M20.5301 8.46967C20.823 8.76256 20.823 9.23744 20.5301 9.53033L18.376 11.6844C18.0831 11.9773 17.6083 11.9773 17.3154 11.6844C17.0225 11.3915 17.0225 10.9167 17.3154 10.6238L19.4695 8.46967C19.7624 8.17678 20.2372 8.17678 20.5301 8.46967Z" fill="black"/>
<path fill-rule="evenodd" clip-rule="evenodd" d="M10.3622 9.69623C10.6551 9.40334 11.13 9.40334 11.4229 9.69623L14.4419 12.7153C14.7348 13.0081 14.7348 13.483 14.4419 13.7759C14.149 14.0688 13.6742 14.0688 13.3813 13.7759L10.3622 10.7569C10.0694 10.464 10.0694 9.98913 10.3622 9.69623Z" fill="black"/>
<path fill-rule="evenodd" clip-rule="evenodd" d="M8.36308 15.7744C8.65598 16.0673 8.65598 16.5421 8.36308 16.835L4.53033 20.6678C4.23744 20.9607 3.76256 20.9607 3.46967 20.6678C3.17678 20.3749 3.17678 19.9 3.46967 19.6071L7.30242 15.7744C7.59532 15.4815 8.07019 15.4815 8.36308 15.7744Z" fill="black"/>
</svg>