<svg width="24" height="25" viewBox="0 0 24 25" fill="none" xmlns="http://www.w3.org/2000/svg">
<path d="M11.9995 16.3828C10.2167 16.3828 8.77148 14.9376 8.77148 13.1548L8.77148 11.1401C8.77148 10.7867 9.05795 10.5003 9.41131 10.5003L14.5877 10.5003C14.9411 10.5003 15.2275 10.7867 15.2275 11.1401L15.2275 13.1548C15.2275 14.9376 13.7823 16.3828 11.9995 16.3828Z" stroke="black" stroke-width="1.5" stroke-linecap="round" stroke-linejoin="round"/>
<path d="M12 16.3883L12 21.1367" stroke="black" stroke-width="1.5" stroke-linecap="round" stroke-linejoin="round"/>
<path d="M10.3164 10.5L10.3164 8.65881M13.6839 10.5L13.6839 8.65881" stroke="black" stroke-width="1.5" stroke-linecap="round" stroke-linejoin="round"/>
<path d="M7.78216 3.13672H16.2169C19.165 3.13672 21 5.21791 21 8.1631V16.1103C21 19.0555 19.165 21.1367 16.2159 21.1367H7.78216C4.83405 21.1367 3 19.0555 3 16.1103V8.1631C3 5.21791 4.84281 3.13672 7.78216 3.13672Z" stroke="black" stroke-width="1.5" stroke-linecap="round" stroke-linejoin="round"/>
</svg>