<svg width="24" height="25" viewBox="0 0 24 25" fill="none" xmlns="http://www.w3.org/2000/svg">
<path fill-rule="evenodd" clip-rule="evenodd" d="M7.93359 9.31071C7.93359 12.2656 10.4692 14.628 13.4834 14.34C16.1104 14.0899 18.0398 11.7334 18.0398 9.09374V7.56715C18.0398 6.94737 17.5388 6.44531 16.919 6.44531H9.05446C8.43565 6.44531 7.93359 6.94737 7.93359 7.56715V9.31071Z" stroke="black" stroke-width="1.5" stroke-linecap="round" stroke-linejoin="round"/>
<path d="M17.5262 21.1367C17.5262 20.3963 16.9132 19.796 16.1582 19.796H15.1016C13.935 19.7911 12.9912 18.8658 12.9854 17.7236V14.5273" stroke="black" stroke-width="1.5" stroke-linecap="round" stroke-linejoin="round"/>
<path d="M7.47487 15.6758L5.95801 18.4059H9.59789L8.08103 21.1361" stroke="black" stroke-width="1.5" stroke-linecap="round" stroke-linejoin="round"/>
<path d="M10.4443 3.13672V6.44579M15.5277 3.13672V6.44579" stroke="black" stroke-width="1.5" stroke-linecap="round" stroke-linejoin="round"/>
</svg>