<svg width="24" height="24" viewBox="0 0 24 24" fill="none" xmlns="http://www.w3.org/2000/svg">
<path fill-rule="evenodd" clip-rule="evenodd" d="M12.794 17.525C12.534 17.525 12.284 17.385 12.154 17.155C12.014 16.935 12.014 16.645 12.134 16.415L13.084 14.685C13.274 14.325 13.734 14.185 14.094 14.385C14.464 14.585 14.594 15.045 14.394 15.405L14.054 16.025H14.934C15.194 16.025 15.444 16.165 15.574 16.395C15.714 16.625 15.714 16.905 15.594 17.135L14.654 18.865C14.514 19.115 14.254 19.255 13.994 19.255C13.874 19.255 13.744 19.225 13.634 19.165C13.274 18.965 13.134 18.515 13.334 18.155L13.674 17.525H12.794ZM14.874 5.675V4.935H17.604V5.675C17.604 5.935 17.384 6.155 17.114 6.155H15.354C15.094 6.155 14.874 5.935 14.874 5.675ZM17.914 11.945H10.084C8.48397 11.945 7.18397 13.245 7.18397 14.855V15.795C5.78497 15.651 4.68597 14.48 4.68597 13.044C4.68597 11.397 6.02597 10.057 7.67297 10.057H13.975C15.453 10.057 16.687 9.03 17.025 7.655H17.114C18.214 7.655 19.104 6.765 19.104 5.675V4.185C19.104 3.815 18.844 3.515 18.504 3.445V3.125C18.504 2.715 18.174 2.375 17.754 2.375C17.344 2.375 17.004 2.715 17.004 3.125V3.435H15.504V3.125C15.504 2.715 15.174 2.375 14.754 2.375C14.344 2.375 14.004 2.715 14.004 3.125V3.445C13.654 3.505 13.374 3.805 13.374 4.185V5.675C13.374 6.765 14.264 7.655 15.354 7.655H15.437C15.163 8.188 14.614 8.557 13.975 8.557H7.67297C5.19897 8.557 3.18597 10.57 3.18597 13.044C3.18597 15.307 4.95797 17.147 7.18397 17.295V18.725C7.18397 20.325 8.48397 21.625 10.084 21.625H17.914C19.514 21.625 20.814 20.325 20.814 18.725V14.855C20.814 13.245 19.514 11.945 17.914 11.945Z" fill="black"/>
</svg>