<svg width="24" height="24" viewBox="0 0 24 24" fill="none" xmlns="http://www.w3.org/2000/svg">
<path d="M15.291 5.80859V3C15.291 2.586 14.955 2.25 14.541 2.25C14.127 2.25 13.791 2.586 13.791 3V5.80859H15.291Z" fill="black"/>
<path d="M10.209 5.80859V3C10.209 2.586 9.87304 2.25 9.45905 2.25C9.04505 2.25 8.70905 2.586 8.70905 3V5.80859H10.209Z" fill="black"/>
<path d="M12.7596 14.6587C12.7564 14.6591 12.7532 14.6596 12.75 14.66V17.587C12.754 18.311 13.368 18.906 14.119 18.909H15.173C16.341 18.909 17.291 19.847 17.291 21C17.291 21.414 16.955 21.75 16.541 21.75C16.127 21.75 15.791 21.414 15.791 21C15.791 20.674 15.513 20.409 15.173 20.409H14.116C12.542 20.402 11.258 19.138 11.25 17.591V14.66C11.2468 14.6596 11.2436 14.6591 11.2403 14.6587H12.7596Z" fill="black"/>
<path opacity="0.4" d="M15.932 5.80908C16.826 5.80908 17.553 6.53608 17.553 7.43008V8.95708C17.553 11.8327 15.4619 14.2843 12.7595 14.6588H11.2403C10.139 14.5094 9.11054 14.0518 8.26502 13.2841C7.11002 12.2331 6.44702 10.7351 6.44702 9.17408V7.43008C6.44702 6.53608 7.17402 5.80908 8.06802 5.80908H15.932Z" fill="black"/>
</svg>