<svg width="25" height="25" viewBox="0 0 25 25" fill="none" xmlns="http://www.w3.org/2000/svg">
<path d="M18.25 11.1314C18.5064 10.4966 18.6468 9.80546 18.6468 9.09374V7.56715C18.6468 6.94737 18.1447 6.44531 17.5249 6.44531H9.66041C9.0416 6.44531 8.53955 6.94737 8.53955 7.56715V9.31071C8.53955 12.2656 11.0751 14.628 14.0894 14.34C14.8688 14.2658 15.5869 14.0062 16.2114 13.6088" stroke="black" stroke-width="1.5" stroke-linecap="round" stroke-linejoin="round"/>
<path d="M8.26487 19.3748L10.0308 21.1388M8.26487 19.3748L6.49756 17.6094M8.26487 19.3748L10.0308 17.6094M8.26487 19.3748L6.49756 21.1388" stroke="black" stroke-width="1.5" stroke-linecap="round" stroke-linejoin="round"/>
<path d="M18.1341 21.1367C18.1341 20.3963 17.5211 19.796 16.7661 19.796H15.7095C14.5429 19.7911 13.5991 18.8658 13.5933 17.7236V14.5273" stroke="black" stroke-width="1.5" stroke-linecap="round" stroke-linejoin="round"/>
<path d="M11.0522 3.13672V6.44579M16.1356 3.13672V6.44579" stroke="black" stroke-width="1.5" stroke-linecap="round" stroke-linejoin="round"/>
</svg>