<svg width="25" height="24" viewBox="0 0 25 24" fill="none" xmlns="http://www.w3.org/2000/svg">
<path fill-rule="evenodd" clip-rule="evenodd" d="M17.5109 14.4336H19.5824C20.2907 14.4336 20.8647 15.0076 20.8647 15.716V17.4255H16.2285V15.716C16.2285 15.0076 16.8026 14.4336 17.5109 14.4336Z" stroke="black" stroke-width="1.5" stroke-linecap="round" stroke-linejoin="round"/>
<path opacity="0.4" d="M20.1675 17.4258V19.5128H16.875V17.4258" stroke="black" stroke-width="1.5" stroke-linecap="round" stroke-linejoin="round"/>
<path opacity="0.4" d="M18.432 14.4091V7.85709C18.432 5.1746 16.2574 3 13.5749 3H13.5153C10.8328 3 8.6582 5.17459 8.6582 7.85709" stroke="black" stroke-width="1.5" stroke-linecap="round" stroke-linejoin="round"/>
<path d="M13.1562 18.5028V10.3619C13.1562 8.98318 12.0382 7.86523 10.6595 7.86523H6.63044C5.25174 7.86523 4.13477 8.98318 4.13477 10.3619V18.5028C4.13477 19.8815 5.25174 20.9994 6.63044 20.9994H10.6595C12.0382 20.9994 13.1562 19.8815 13.1562 18.5028Z" stroke="black" stroke-width="1.5" stroke-linecap="round" stroke-linejoin="round"/>
<path d="M8.63796 16.7641L9.90574 14.4357H7.38477L8.65158 12.1055" stroke="black" stroke-width="1.5" stroke-linecap="round" stroke-linejoin="round"/>
</svg>