<svg width="24" height="25" viewBox="0 0 24 25" fill="none" xmlns="http://www.w3.org/2000/svg">
<path d="M12.1558 21.8902C10.6958 21.8902 9.24576 21.5602 7.89576 20.9002C5.55576 19.7602 3.80576 17.7802 2.95576 15.3102C2.10576 12.8502 2.26576 10.2102 3.40576 7.87018C4.54576 5.53018 6.52576 3.77019 8.98576 2.92019C13.4258 1.39019 18.3358 3.24019 20.6558 7.33019C20.8558 7.69019 20.7358 8.15019 20.3758 8.35019C20.0158 8.55019 19.5558 8.43018 19.3558 8.07018C17.3958 4.61018 13.2358 3.04018 9.47576 4.34018C7.39576 5.06018 5.72576 6.55019 4.75576 8.53019C3.78576 10.5102 3.65576 12.7502 4.37576 14.8202C5.09576 16.9002 6.57576 18.5802 8.55576 19.5502C10.5358 20.5202 12.7758 20.6502 14.8558 19.9302C17.4258 19.0402 19.3858 16.9602 20.1158 14.3502C20.2258 13.9502 20.6358 13.7202 21.0358 13.8302C21.4358 13.9402 21.6658 14.3502 21.5558 14.7502C20.7058 17.8402 18.3758 20.3002 15.3458 21.3502C14.3058 21.7102 13.2258 21.8902 12.1558 21.8902Z" fill="black"/>
<path d="M20.2458 8.46016H16.9658C16.5558 8.46016 16.2158 8.12016 16.2158 7.71016C16.2158 7.30016 16.5558 6.96016 16.9658 6.96016H19.4958V4.41016C19.4958 4.00016 19.8358 3.66016 20.2458 3.66016C20.6558 3.66016 20.9958 4.00016 20.9958 4.41016V7.71016C20.9958 8.12016 20.6558 8.46016 20.2458 8.46016Z" fill="black"/>
<path d="M12.0162 17.5778C10.9862 17.5778 9.98621 17.1978 9.22621 16.4978C8.36621 15.7178 7.86621 14.5978 7.86621 13.4278V12.2578C7.86621 11.4278 8.53621 10.7578 9.36621 10.7578H14.6462C15.4762 10.7578 16.1462 11.4278 16.1462 12.2578V13.2878C16.1462 15.4778 14.5062 17.3578 12.4062 17.5578C12.2762 17.5678 12.1462 17.5778 12.0062 17.5778H12.0162ZM9.36621 12.2578V13.4278C9.36621 14.1678 9.67621 14.8878 10.2262 15.3878C10.7862 15.8978 11.5062 16.1378 12.2662 16.0578C13.6062 15.9278 14.6462 14.7078 14.6462 13.2778V12.2478H9.36621V12.2578Z" fill="black"/>
<path d="M12.0059 21.8875C11.5959 21.8875 11.2559 21.5475 11.2559 21.1375V16.9375C11.2559 16.5275 11.5959 16.1875 12.0059 16.1875C12.4159 16.1875 12.7559 16.5275 12.7559 16.9375V21.1375C12.7559 21.5475 12.4159 21.8875 12.0059 21.8875Z" fill="black"/>
<path d="M13.7157 12.2591C13.3057 12.2591 12.9657 11.9191 12.9657 11.5091V9.28906C12.9657 8.87906 13.3057 8.53906 13.7157 8.53906C14.1257 8.53906 14.4657 8.87906 14.4657 9.28906V11.5091C14.4657 11.9191 14.1257 12.2591 13.7157 12.2591ZM10.3057 12.2591C9.89566 12.2591 9.55566 11.9191 9.55566 11.5091V9.28906C9.55566 8.87906 9.89566 8.53906 10.3057 8.53906C10.7157 8.53906 11.0557 8.87906 11.0557 9.28906V11.5091C11.0557 11.9191 10.7157 12.2591 10.3057 12.2591Z" fill="black"/>
</svg>