<svg width="25" height="25" viewBox="0 0 25 25" fill="none" xmlns="http://www.w3.org/2000/svg">
<path fill-rule="evenodd" clip-rule="evenodd" d="M8.54004 9.31059C8.54004 12.2655 11.0756 14.6279 14.0899 14.3399C16.7169 14.0898 18.6473 11.7333 18.6473 9.09362V7.56703C18.6473 6.94724 18.1452 6.44519 17.5254 6.44519H9.6609C9.04209 6.44519 8.54004 6.94724 8.54004 7.56703V9.31059Z" stroke="black" stroke-width="1.5" stroke-linecap="round" stroke-linejoin="round"/>
<path d="M8.26536 19.3748L10.0313 21.1388M8.26536 19.3748L6.49805 17.6094M8.26536 19.3748L10.0313 17.6094M8.26536 19.3748L6.49805 21.1388" stroke="black" stroke-width="1.5" stroke-linecap="round" stroke-linejoin="round"/>
<path d="M18.1346 21.1367C18.1346 20.3963 17.5216 19.796 16.7666 19.796H15.71C14.5434 19.7911 13.5996 18.8658 13.5938 17.7236V14.5273" stroke="black" stroke-width="1.5" stroke-linecap="round" stroke-linejoin="round"/>
<path d="M11.0527 3.13672V6.44579M16.1361 3.13672V6.44579" stroke="black" stroke-width="1.5" stroke-linecap="round" stroke-linejoin="round"/>
</svg>