<svg width="24" height="24" viewBox="0 0 24 24" fill="none" xmlns="http://www.w3.org/2000/svg">
<path d="M13.8722 20.9992H9.95696C8.6308 20.9992 7.55566 19.9241 7.55566 18.5979V14.7236C7.55566 13.3974 8.6308 12.3223 9.95696 12.3223H17.7874C19.1126 12.3223 20.1878 13.3974 20.1878 14.7236V18.5979C20.1878 19.9241 19.1126 20.9992 17.7874 20.9992H16.8678" stroke="black" stroke-width="1.5" stroke-linecap="round" stroke-linejoin="round"/>
<path d="M13.6147 14.9199L12.6719 16.6508H14.8085L13.8667 18.3837" stroke="black" stroke-width="1.5" stroke-linecap="round" stroke-linejoin="round"/>
<path fill-rule="evenodd" clip-rule="evenodd" d="M16.9929 6.78193H15.2328C14.5517 6.78193 14 6.22928 14 5.5482V4.05469H18.2266V5.5482C18.2266 6.22928 17.6739 6.78193 16.9929 6.78193Z" stroke="black" stroke-width="1.5" stroke-linecap="round" stroke-linejoin="round"/>
<path d="M16.2505 6.78125C16.2505 8.10741 15.1754 9.18157 13.8502 9.18157H10.6992" stroke="black" stroke-width="1.5" stroke-linecap="round" stroke-linejoin="round"/>
<path d="M7.54871 9.18164C5.48504 9.18164 3.8125 10.8552 3.8125 12.9188C3.8125 14.8681 5.39273 16.4484 7.34204 16.4484H7.54871" stroke="black" stroke-width="1.5" stroke-linecap="round" stroke-linejoin="round"/>
<path d="M17.6354 3V4.05373M14.6348 4.05373V3" stroke="black" stroke-width="1.5" stroke-linecap="round" stroke-linejoin="round"/>
</svg>