<svg width="24" height="24" viewBox="0 0 24 24" fill="none" xmlns="http://www.w3.org/2000/svg">
<path fill-rule="evenodd" clip-rule="evenodd" d="M18.6661 8.957V7.43C18.6661 6.536 17.9391 5.809 17.0451 5.809H16.4041V3C16.4041 2.586 16.0681 2.25 15.6541 2.25C15.2401 2.25 14.9041 2.586 14.9041 3V5.809H11.3201V3C11.3201 2.586 10.9841 2.25 10.5701 2.25C10.1561 2.25 9.82006 2.586 9.82006 3V5.809H9.18106C8.28706 5.809 7.56006 6.536 7.56006 7.43V9.174C7.56006 10.735 8.22306 12.233 9.37906 13.284C10.2251 14.054 11.2571 14.512 12.3611 14.66V17.591C12.3701 19.138 13.6541 20.402 15.2281 20.409H16.2841C16.6251 20.409 16.9021 20.674 16.9021 21C16.9021 21.414 17.2381 21.75 17.6521 21.75C18.0661 21.75 18.4021 21.414 18.4021 21C18.4021 19.847 17.4521 18.909 16.2841 18.909H15.2311C14.4801 18.906 13.8651 18.311 13.8611 17.587V14.66C16.5691 14.291 18.6661 11.837 18.6661 8.957Z" fill="black"/>
<path fill-rule="evenodd" clip-rule="evenodd" d="M9.72417 17.5191H7.35917L8.25717 15.9031C8.45817 15.5411 8.32817 15.0841 7.96517 14.8831C7.60417 14.6821 7.14617 14.8121 6.94517 15.1751L5.42817 17.9051C5.29917 18.1371 5.30317 18.4201 5.43717 18.6491C5.57217 18.8781 5.81817 19.0191 6.08417 19.0191H8.44917L7.55117 20.6351C7.35017 20.9971 7.48017 21.4541 7.84317 21.6551C7.95817 21.7191 8.08317 21.7491 8.20617 21.7491C8.47017 21.7491 8.72517 21.6101 8.86317 21.3631L10.3802 18.6331C10.5092 18.4011 10.5052 18.1181 10.3702 17.8891C10.2362 17.6601 9.99017 17.5191 9.72417 17.5191Z" fill="black"/>
</svg>