<svg width="24" height="25" viewBox="0 0 24 25" fill="none" xmlns="http://www.w3.org/2000/svg">
<path d="M19.9996 7.70254C17.8946 3.99454 13.4056 2.19054 9.22555 3.63354C4.53555 5.25654 2.04055 10.3785 3.66355 15.0685C5.27755 19.7685 10.3986 22.2645 15.0986 20.6405C18.0056 19.6385 20.0696 17.3035 20.8316 14.5475" stroke="black" stroke-width="1.5" stroke-linecap="round" stroke-linejoin="round"/>
<path d="M20.2419 4.40625V7.70525H16.9609" stroke="black" stroke-width="1.5" stroke-linecap="round" stroke-linejoin="round"/>
<path fill-rule="evenodd" clip-rule="evenodd" d="M8.60547 13.432C8.60547 15.4165 10.3083 17.003 12.3326 16.8096C14.0968 16.6416 15.3932 15.059 15.3932 13.2863V12.2611C15.3932 11.8449 15.0561 11.5077 14.6398 11.5077H9.35821C8.94263 11.5077 8.60547 11.8449 8.60547 12.2611V13.432Z" stroke="black" stroke-width="1.5" stroke-linecap="round" stroke-linejoin="round"/>
<path d="M12 21.1343V16.9336" stroke="black" stroke-width="1.5" stroke-linecap="round" stroke-linejoin="round"/>
<path d="M10.293 9.28516V11.5074M13.7068 9.28516V11.5074" stroke="black" stroke-width="1.5" stroke-linecap="round" stroke-linejoin="round"/>
</svg>