<svg width="24" height="25" viewBox="0 0 24 25" fill="none" xmlns="http://www.w3.org/2000/svg">
<path fill-rule="evenodd" clip-rule="evenodd" d="M6.69922 7.12713C6.69922 6.15538 7.48656 5.36719 8.45828 5.36719H15.5384C16.5106 5.36719 17.2983 6.15495 17.2983 7.12713V10.3438C17.2983 13.0636 15.3082 15.5477 12.5166 15.8134C9.35848 16.115 6.69922 13.6374 6.69922 10.5392V7.12713ZM8.45828 6.86719C8.31583 6.86719 8.19922 6.98295 8.19922 7.12713V10.5392C8.19922 12.7612 10.1051 14.537 12.3742 14.3202L12.3744 14.3202C14.3128 14.1357 15.7983 12.3769 15.7983 10.3438V7.12713C15.7983 6.98338 15.6821 6.86719 15.5384 6.86719H8.45828Z" fill="black"/>
<path fill-rule="evenodd" clip-rule="evenodd" d="M11.999 14.4844C12.4132 14.4844 12.749 14.8202 12.749 15.2344V21.1377C12.749 21.5519 12.4132 21.8877 11.999 21.8877C11.5848 21.8877 11.249 21.5519 11.249 21.1377V15.2344C11.249 14.8202 11.5848 14.4844 11.999 14.4844Z" fill="black"/>
<path fill-rule="evenodd" clip-rule="evenodd" d="M9.71069 2.38672C10.1249 2.38672 10.4607 2.72251 10.4607 3.13672V6.11574C10.4607 6.52995 10.1249 6.86574 9.71069 6.86574C9.29648 6.86574 8.96069 6.52995 8.96069 6.11574V3.13672C8.96069 2.72251 9.29648 2.38672 9.71069 2.38672ZM14.2871 2.38672C14.7013 2.38672 15.0371 2.72251 15.0371 3.13672V6.11574C15.0371 6.52995 14.7013 6.86574 14.2871 6.86574C13.8728 6.86574 13.5371 6.52995 13.5371 6.11574V3.13672C13.5371 2.72251 13.8728 2.38672 14.2871 2.38672Z" fill="black"/>
<path fill-rule="evenodd" clip-rule="evenodd" d="M12.3842 5.46958C12.7419 5.67839 12.8626 6.13767 12.6538 6.4954L11.8013 7.95582H13.502C13.7707 7.95582 14.0188 8.09955 14.1526 8.3326C14.2863 8.56565 14.2851 8.85242 14.1495 9.08436L12.6369 11.6714C12.4279 12.029 11.9685 12.1494 11.6109 11.9403C11.2533 11.7313 11.133 11.2719 11.342 10.9143L12.1947 9.45582H10.4951C10.2265 9.45582 9.97845 9.3122 9.84471 9.07927C9.71097 8.84635 9.71199 8.55969 9.84739 8.32773L11.3583 5.73922C11.5672 5.38149 12.0264 5.26077 12.3842 5.46958Z" fill="black"/>
<path fill-rule="evenodd" clip-rule="evenodd" d="M18.9609 9.45703C18.9609 9.04282 19.2967 8.70703 19.7109 8.70703H21.1273C21.5415 8.70703 21.8773 9.04282 21.8773 9.45703C21.8773 9.87124 21.5415 10.207 21.1273 10.207H19.7109C19.2967 10.207 18.9609 9.87124 18.9609 9.45703Z" fill="black"/>
<path fill-rule="evenodd" clip-rule="evenodd" d="M5.29297 9.45703C5.29297 9.04282 4.95718 8.70703 4.54297 8.70703H3.1266C2.71239 8.70703 2.3766 9.04282 2.3766 9.45703C2.3766 9.87124 2.71239 10.207 3.1266 10.207H4.54297C4.95718 10.207 5.29297 9.87124 5.29297 9.45703Z" fill="black"/>
<path fill-rule="evenodd" clip-rule="evenodd" d="M18.4473 5.09483C18.2402 4.73611 18.3631 4.27742 18.7218 4.07031L19.9484 3.36213C20.3071 3.15502 20.7658 3.27793 20.9729 3.63665C21.18 3.99537 21.0571 4.45406 20.6984 4.66117L19.4718 5.36935C19.1131 5.57646 18.6544 5.45355 18.4473 5.09483Z" fill="black"/>
<path fill-rule="evenodd" clip-rule="evenodd" d="M5.80664 5.09483C6.01375 4.73611 5.89084 4.27742 5.53212 4.07031L4.30551 3.36213C3.94679 3.15502 3.4881 3.27793 3.28099 3.63665C3.07389 3.99537 3.19679 4.45406 3.55551 4.66117L4.78212 5.36935C5.14084 5.57646 5.59953 5.45355 5.80664 5.09483Z" fill="black"/>
<path fill-rule="evenodd" clip-rule="evenodd" d="M18.4473 13.8192C18.2402 14.178 18.3631 14.6366 18.7218 14.8438L19.9484 15.5519C20.3071 15.759 20.7658 15.6361 20.9729 15.2774C21.18 14.9187 21.0571 14.46 20.6984 14.2529L19.4718 13.5447C19.1131 13.3376 18.6544 13.4605 18.4473 13.8192Z" fill="black"/>
<path fill-rule="evenodd" clip-rule="evenodd" d="M5.80664 13.8192C6.01375 14.178 5.89084 14.6366 5.53212 14.8438L4.30551 15.5519C3.94679 15.759 3.4881 15.6361 3.28099 15.2774C3.07389 14.9187 3.19679 14.46 3.55551 14.2529L4.78212 13.5447C5.14084 13.3376 5.59953 13.4605 5.80664 13.8192Z" fill="black"/>
</svg>