<svg width="25" height="24" viewBox="0 0 25 24" fill="none" xmlns="http://www.w3.org/2000/svg">
<path fill-rule="evenodd" clip-rule="evenodd" d="M8.76247 21.5H17.1965C20.3565 21.5 22.4805 19.279 22.4805 15.974V8.026C22.4805 4.721 20.3575 2.5 17.1975 2.5H8.76247C5.60247 2.5 3.48047 4.721 3.48047 8.026V15.974C3.48047 19.279 5.60247 21.5 8.76247 21.5ZM11.1248 10.939C10.7108 10.939 10.3748 10.603 10.3748 10.189V9.67194H8.80676C8.39276 9.67194 8.05676 9.33594 8.05676 8.92194C8.05676 8.50794 8.39276 8.17194 8.80676 8.17194H10.3748V7.65601C10.3748 7.24201 10.7108 6.90601 11.1248 6.90601C11.5388 6.90601 11.8748 7.24201 11.8748 7.65601V8.91874L11.8748 8.92194L11.8748 8.92513V10.189C11.8748 10.603 11.5388 10.939 11.1248 10.939ZM13.2946 16.3428C13.2946 16.7568 13.6306 17.0928 14.0446 17.0928C14.4586 17.0928 14.7946 16.7568 14.7946 16.3428V13.8108C14.7946 13.3968 14.4586 13.0608 14.0446 13.0608C13.6306 13.0608 13.2946 13.3968 13.2946 13.8108V14.3262H8.80615C8.39215 14.3262 8.05615 14.6622 8.05615 15.0762C8.05615 15.4902 8.39215 15.8262 8.80615 15.8262H13.2946V16.3428ZM17.1496 15.8262H16.5016C16.0876 15.8262 15.7516 15.4902 15.7516 15.0762C15.7516 14.6622 16.0876 14.3262 16.5016 14.3262H17.1496C17.5636 14.3262 17.8996 14.6622 17.8996 15.0762C17.8996 15.4902 17.5636 15.8262 17.1496 15.8262ZM17.1506 9.67194H13.5836C13.1696 9.67194 12.8336 9.33594 12.8336 8.92194C12.8336 8.50794 13.1696 8.17194 13.5836 8.17194H17.1506C17.5646 8.17194 17.9006 8.50794 17.9006 8.92194C17.9006 9.33594 17.5646 9.67194 17.1506 9.67194Z" fill="black"/>
</svg>