<svg width="25" height="25" viewBox="0 0 25 25" fill="none" xmlns="http://www.w3.org/2000/svg">
<path fill-rule="evenodd" clip-rule="evenodd" d="M12.5001 6.39453C12.9143 6.39453 13.2501 6.73032 13.2501 7.14453V12.4552C13.2501 12.8694 12.9143 13.2052 12.5001 13.2052C12.0859 13.2052 11.7501 12.8694 11.7501 12.4552V7.14453C11.7501 6.73032 12.0859 6.39453 12.5001 6.39453ZM8.35596 8.1642C8.77017 8.1642 9.10596 8.49999 9.10596 8.9142V12.4554C9.10596 12.8696 8.77017 13.2054 8.35596 13.2054C7.94174 13.2054 7.60596 12.8696 7.60596 12.4554V8.9142C7.60596 8.49999 7.94174 8.1642 8.35596 8.1642ZM16.6442 8.95568C17.0584 8.95568 17.3942 9.29147 17.3942 9.70568V12.4551C17.3942 12.8693 17.0584 13.2051 16.6442 13.2051C16.23 13.2051 15.8942 12.8693 15.8942 12.4551V9.70568C15.8942 9.29147 16.23 8.95568 16.6442 8.95568Z" fill="black"/>
<path fill-rule="evenodd" clip-rule="evenodd" d="M2.75732 6.99531C2.75732 4.43993 4.82811 2.36914 7.38349 2.36914H17.6164C20.1718 2.36914 22.2426 4.43992 22.2426 6.99531V12.6046C22.2426 15.1588 20.1719 17.2308 17.6164 17.2308H7.38349C4.82798 17.2308 2.75732 15.1588 2.75732 12.6046V6.99531ZM7.38349 3.86914C5.65654 3.86914 4.25732 5.26835 4.25732 6.99531V12.6046C4.25732 14.3307 5.65666 15.7308 7.38349 15.7308H17.6164C19.3432 15.7308 20.7426 14.3307 20.7426 12.6046V6.99531C20.7426 5.26835 19.3434 3.86914 17.6164 3.86914H7.38349Z" fill="black"/>
<path fill-rule="evenodd" clip-rule="evenodd" d="M12.0198 15.9048C12.2979 15.673 12.7019 15.673 12.9801 15.9048L18.5462 20.5432C18.8644 20.8084 18.9074 21.2813 18.6422 21.5995C18.377 21.9177 17.9041 21.9607 17.5859 21.6955L13.2499 18.0822V21.1194C13.2499 21.5336 12.9142 21.8694 12.4999 21.8694C12.0857 21.8694 11.7499 21.5336 11.7499 21.1194V18.0822L7.414 21.6955C7.09579 21.9607 6.62286 21.9177 6.35769 21.5995C6.09252 21.2813 6.13551 20.8084 6.45372 20.5432L12.0198 15.9048Z" fill="black"/>
</svg>