<svg width="25" height="24" viewBox="0 0 25 24" fill="none" xmlns="http://www.w3.org/2000/svg">
<path d="M7.91049 17.6306H6.83049C4.99449 17.6306 3.5 16.1459 3.5 14.3099V10.2954C3.5 8.46812 4.99449 6.97461 6.83049 6.97461H18.1792C20.0152 6.97461 21.5 8.46812 21.5 10.2954V14.3099C21.5 16.1459 20.0152 17.6306 18.1792 17.6306H17.1265" stroke="black" stroke-width="1.5" stroke-linecap="round" stroke-linejoin="round"/>
<path d="M7.91211 14.8086V18.5789C7.91211 19.7279 8.84324 20.6591 9.99233 20.6591H15.007C16.1551 20.6591 17.0863 19.7279 17.0863 18.5789V14.8086" stroke="black" stroke-width="1.5" stroke-linecap="round" stroke-linejoin="round"/>
<path opacity="0.4" d="M11.6582 17.5742H13.3434" stroke="black" stroke-width="1.5" stroke-linecap="round" stroke-linejoin="round"/>
<path opacity="0.4" d="M15.875 10.5508H15.885" stroke="black" stroke-width="1.5" stroke-linecap="round" stroke-linejoin="round"/>
<path opacity="0.4" d="M18.1074 10.5508H18.1174" stroke="black" stroke-width="1.5" stroke-linecap="round" stroke-linejoin="round"/>
<path opacity="0.4" d="M7.91211 6.98849V5.42006C7.91211 4.27195 8.84324 3.33984 9.99233 3.33984H15.007C16.1551 3.33984 17.0863 4.27195 17.0863 5.42006V6.98849" stroke="black" stroke-width="1.5" stroke-linecap="round" stroke-linejoin="round"/>
<path d="M17.9626 14.8086H7.03516" stroke="black" stroke-width="1.5" stroke-linecap="round" stroke-linejoin="round"/>
</svg>