<svg width="25" height="24" viewBox="0 0 25 24" fill="none" xmlns="http://www.w3.org/2000/svg">
<path fill-rule="evenodd" clip-rule="evenodd" d="M6.58049 7.72461C5.15713 7.72461 4 8.88391 4 10.2954V14.3099C4 15.7288 5.15584 16.8806 6.58049 16.8806H7.66049C8.0747 16.8806 8.41049 17.2164 8.41049 17.6306C8.41049 18.0448 8.0747 18.3806 7.66049 18.3806H6.58049C4.33313 18.3806 2.5 16.5629 2.5 14.3099V10.2954C2.5 8.05234 4.33184 6.22461 6.58049 6.22461H17.9292C20.1807 6.22461 22 8.0552 22 10.2954V14.3099C22 16.5601 20.1795 18.3806 17.9292 18.3806H16.8765C16.4623 18.3806 16.1265 18.0448 16.1265 17.6306C16.1265 17.2164 16.4623 16.8806 16.8765 16.8806H17.9292C19.351 16.8806 20.5 15.7316 20.5 14.3099V10.2954C20.5 8.88105 19.3497 7.72461 17.9292 7.72461H6.58049Z" fill="black"/>
<path fill-rule="evenodd" clip-rule="evenodd" d="M7.66211 14.0586C8.07632 14.0586 8.41211 14.3944 8.41211 14.8086V18.5789C8.41211 19.3137 9.00746 19.9091 9.74233 19.9091H14.757C15.4907 19.9091 16.0863 19.314 16.0863 18.5789V14.8086C16.0863 14.3944 16.4221 14.0586 16.8363 14.0586C17.2505 14.0586 17.5863 14.3944 17.5863 14.8086V18.5789C17.5863 20.1419 16.3196 21.4091 14.757 21.4091H9.74233C8.17903 21.4091 6.91211 20.1422 6.91211 18.5789V14.8086C6.91211 14.3944 7.2479 14.0586 7.66211 14.0586Z" fill="black"/>
<path fill-rule="evenodd" clip-rule="evenodd" d="M10.6582 17.5742C10.6582 17.16 10.994 16.8242 11.4082 16.8242H13.0934C13.5076 16.8242 13.8434 17.16 13.8434 17.5742C13.8434 17.9884 13.5076 18.3242 13.0934 18.3242H11.4082C10.994 18.3242 10.6582 17.9884 10.6582 17.5742Z" fill="black"/>
<path fill-rule="evenodd" clip-rule="evenodd" d="M14.875 10.5508C14.875 10.1366 15.2108 9.80078 15.625 9.80078H15.635C16.0492 9.80078 16.385 10.1366 16.385 10.5508C16.385 10.965 16.0492 11.3008 15.635 11.3008H15.625C15.2108 11.3008 14.875 10.965 14.875 10.5508Z" fill="black"/>
<path fill-rule="evenodd" clip-rule="evenodd" d="M17.1074 10.5508C17.1074 10.1366 17.4432 9.80078 17.8574 9.80078H17.8674C18.2816 9.80078 18.6174 10.1366 18.6174 10.5508C18.6174 10.965 18.2816 11.3008 17.8674 11.3008H17.8574C17.4432 11.3008 17.1074 10.965 17.1074 10.5508Z" fill="black"/>
<path fill-rule="evenodd" clip-rule="evenodd" d="M9.74233 4.08984C9.00769 4.08984 8.41211 4.68594 8.41211 5.42006V6.98849C8.41211 7.40271 8.07632 7.73849 7.66211 7.73849C7.2479 7.73849 6.91211 7.40271 6.91211 6.98849V5.42006C6.91211 3.85797 8.1788 2.58984 9.74233 2.58984H14.757C16.3198 2.58984 17.5863 3.8582 17.5863 5.42006V6.98849C17.5863 7.40271 17.2505 7.73849 16.8363 7.73849C16.4221 7.73849 16.0863 7.40271 16.0863 6.98849V5.42006C16.0863 4.68571 15.4905 4.08984 14.757 4.08984H9.74233Z" fill="black"/>
<path fill-rule="evenodd" clip-rule="evenodd" d="M6.03516 14.8086C6.03516 14.3944 6.37094 14.0586 6.78516 14.0586H17.7126C18.1268 14.0586 18.4626 14.3944 18.4626 14.8086C18.4626 15.2228 18.1268 15.5586 17.7126 15.5586H6.78516C6.37094 15.5586 6.03516 15.2228 6.03516 14.8086Z" fill="black"/>
</svg>