<svg width="24" height="24" viewBox="0 0 24 24" fill="none" xmlns="http://www.w3.org/2000/svg">
<path d="M7.49414 14.5645V18.3124C7.49414 19.4577 8.42433 20.3781 9.56955 20.3781H14.5513C15.6333 20.3781 16.5284 19.5472 16.6082 18.4827" stroke="black" stroke-width="1.5" stroke-linecap="round" stroke-linejoin="round"/>
<path d="M5.15949 7.02344C3.96076 7.52453 3.11133 8.70478 3.11133 10.0825V14.0718C3.11133 15.8962 4.58737 17.3723 6.41174 17.3723H7.45869" stroke="black" stroke-width="1.5" stroke-linecap="round" stroke-linejoin="round"/>
<path d="M12.6917 14.5645H7.49448H6.62695" stroke="black" stroke-width="1.5" stroke-linecap="round" stroke-linejoin="round"/>
<path d="M3 4.86719L18.964 20.8312" stroke="black" stroke-width="1.5" stroke-linecap="round" stroke-linejoin="round"/>
<path d="M16.6169 10.334H14.9258" stroke="black" stroke-width="1.5" stroke-linecap="round" stroke-linejoin="round"/>
<path d="M10.7373 6.7832H17.6912C19.5155 6.7832 21.0003 8.26897 21.0003 10.0846V14.0739C21.0003 15.0576 20.5625 15.943 19.8736 16.5424" stroke="black" stroke-width="1.5" stroke-linecap="round" stroke-linejoin="round"/>
<path d="M7.69141 4.3599C8.02223 3.6535 8.73835 3.16992 9.56929 3.16992H14.552C15.6875 3.16992 16.6177 4.09135 16.6177 5.23657V6.78364" stroke="black" stroke-width="1.5" stroke-linecap="round" stroke-linejoin="round"/>
</svg>