<svg width="25" height="24" viewBox="0 0 25 24" fill="none" xmlns="http://www.w3.org/2000/svg">
<path d="M7.91049 17.6306H6.83049C4.99449 17.6306 3.5 16.1459 3.5 14.3099V10.2954C3.5 8.46812 4.99449 6.97461 6.83049 6.97461H18.1792C20.0152 6.97461 21.5 8.46812 21.5 10.2954V14.3099C21.5 16.1459 20.0152 17.6306 18.1792 17.6306H17.1265" stroke="black" stroke-width="1.5" stroke-linecap="round" stroke-linejoin="round"/>
<path d="M7.91309 14.8086V18.5789C7.91309 19.7279 8.84422 20.6591 9.9933 20.6591H15.008C16.1561 20.6591 17.0872 19.7279 17.0872 18.5789V14.8086" stroke="black" stroke-width="1.5" stroke-linecap="round" stroke-linejoin="round"/>
<path d="M17.9646 14.8086H7.03711" stroke="black" stroke-width="1.5" stroke-linecap="round" stroke-linejoin="round"/>
<path opacity="0.4" d="M18.1611 10.5508H16.041" stroke="black" stroke-width="1.5" stroke-linecap="round" stroke-linejoin="round"/>
<path opacity="0.4" d="M7.91406 6.98849V5.42006C7.91406 4.27195 8.8452 3.33984 9.99428 3.33984H15.009C16.1571 3.33984 17.0882 4.27195 17.0882 5.42006V6.98849" stroke="black" stroke-width="1.5" stroke-linecap="round" stroke-linejoin="round"/>
</svg>