<svg width="24" height="24" viewBox="0 0 24 24" fill="none" xmlns="http://www.w3.org/2000/svg">
<path opacity="0.4" fill-rule="evenodd" clip-rule="evenodd" d="M8.16 5.37004C8.16 4.64004 8.76 4.04004 9.49 4.04004H14.51C15.24 4.04004 15.84 4.64004 15.84 5.37004V6.43004H8.16V5.37004ZM17.68 6.43004H17.34V5.37004C17.34 3.81004 16.07 2.54004 14.51 2.54004H9.49C7.93 2.54004 6.66 3.81004 6.66 5.37004V6.43004H6.33C4.22 6.43004 2.5 8.14004 2.5 10.25V14.26C2.5 16.2497 4.02052 17.8755 5.96239 18.0563C6.07543 18.0668 6.17 17.9756 6.17 17.862V15.71C6.17 15.5996 6.08046 15.51 5.97 15.51H5.96C5.54 15.51 5.21 15.18 5.21 14.76C5.21 14.35 5.54 14.01 5.96 14.01H18.04C18.46 14.01 18.79 14.35 18.79 14.76C18.79 15.18 18.46 15.51 18.04 15.51H18.02C17.9095 15.51 17.82 15.5996 17.82 15.71V17.8631C17.82 17.9762 17.9139 18.0674 18.0266 18.0574C19.9785 17.8859 21.5 16.2503 21.5 14.26V10.25C21.5 8.14004 19.79 6.43004 17.68 6.43004Z" fill="black"/>
<path d="M15.3699 11.25H17.6099C18.0299 11.25 18.3599 10.92 18.3599 10.5C18.3599 10.09 18.0299 9.75 17.6099 9.75H15.3699C14.9599 9.75 14.6199 10.09 14.6199 10.5C14.6199 10.92 14.9599 11.25 15.3699 11.25Z" fill="black"/>
<path fill-rule="evenodd" clip-rule="evenodd" d="M10.4099 17.5303C10.4099 17.1103 10.7399 16.7803 11.1599 16.7803H12.8399C13.2599 16.7803 13.5899 17.1103 13.5899 17.5303V17.5803C13.5599 17.9703 13.2399 18.2803 12.8399 18.2803H11.1599C10.7599 18.2803 10.4399 17.9703 10.4099 17.5803V17.5303ZM7.66992 19.9103C7.66992 20.7603 8.36992 21.4603 9.22992 21.4603H14.7699C15.6299 21.4603 16.3199 20.7603 16.3199 19.9103V15.7103C16.3199 15.5998 16.2304 15.5103 16.1199 15.5103H7.86992C7.75946 15.5103 7.66992 15.5998 7.66992 15.7103V19.9103Z" fill="black"/>
</svg>