<svg width="24" height="24" viewBox="0 0 24 24" fill="none" xmlns="http://www.w3.org/2000/svg">
<path d="M10.1014 6.85547C10.1014 5.61711 9.10437 4.61323 7.87451 4.61323" stroke="black" stroke-width="1.5" stroke-linecap="round" stroke-linejoin="round"/>
<path d="M5.64697 12.9844C5.64697 11.746 6.64397 10.7421 7.87383 10.7421C8.26454 10.7421 8.63175 10.8435 8.95096 11.0214" stroke="black" stroke-width="1.5" stroke-linecap="round" stroke-linejoin="round"/>
<path d="M12.0005 15.0062C12.0005 15.9682 11.2258 16.748 10.2705 16.748C9.35406 16.748 8.60427 16.0307 8.54447 15.1234C8.33284 15.1904 8.10777 15.2266 7.87464 15.2266C6.64448 15.2266 5.64745 14.2227 5.64745 12.9844C5.64745 12.4225 5.85236 11.9091 6.19165 11.5156C5.52786 11.2972 5.04883 10.6688 5.04883 9.92763C5.04883 9.1823 5.53391 8.55105 6.20307 8.33609C5.85707 7.94102 5.64745 7.42232 5.64745 6.8544C5.64745 5.61608 6.64448 4.61216 7.87464 4.61216C8.10643 4.61216 8.33015 4.64793 8.54044 4.71422C8.55455 3.76459 9.32382 2.99923 10.2705 2.99923C11.2258 2.99923 12.0005 3.77905 12.0005 4.74111V15.0062Z" stroke="black" stroke-width="1.5" stroke-linecap="round" stroke-linejoin="round"/>
<path d="M16.126 4.61294C15.3473 4.61294 14.6619 5.01539 14.2639 5.625" stroke="black" stroke-width="1.5" stroke-linecap="round" stroke-linejoin="round"/>
<path d="M18.353 12.9844C18.353 11.746 17.356 10.7421 16.1262 10.7421C15.7355 10.7421 15.3682 10.8435 15.049 11.0214" stroke="black" stroke-width="1.5" stroke-linecap="round" stroke-linejoin="round"/>
<path d="M13.73 16.748C14.6464 16.748 15.3962 16.0307 15.456 15.1234C15.6676 15.1904 15.8927 15.2266 16.1259 15.2266C17.356 15.2266 18.353 14.2227 18.353 12.9844C18.353 12.4225 18.1481 11.9091 17.8088 11.5156C18.4726 11.2972 18.9517 10.6688 18.9517 9.92763C18.9517 9.1823 18.4666 8.55105 17.7974 8.33609C18.1434 7.94102 18.353 7.42231 18.353 6.8544C18.353 5.61607 17.356 4.61216 16.1259 4.61216C15.8941 4.61216 15.6703 4.64793 15.46 4.71422C15.4459 3.76459 14.6767 2.99922 13.73 2.99922C12.7747 2.99922 12 3.77905 12 4.74111" stroke="black" stroke-width="1.5" stroke-linecap="round" stroke-linejoin="round"/>
<path d="M9 19.0195H15" stroke="black" stroke-width="1.5" stroke-linecap="round" stroke-linejoin="round"/>
<path d="M10.5 21H13.5" stroke="black" stroke-width="1.5" stroke-linecap="round" stroke-linejoin="round"/>
</svg>