<svg width="24" height="24" viewBox="0 0 24 24" fill="none" xmlns="http://www.w3.org/2000/svg">
<path fill-rule="evenodd" clip-rule="evenodd" d="M3.7402 3.89737C4.72468 2.84117 6.12669 2.25 7.78216 2.25H16.2169C17.8762 2.25 19.2788 2.84084 20.2629 3.89765C21.2413 4.94841 21.75 6.39889 21.75 8.02638V15.9736C21.75 17.6011 21.2413 19.0516 20.2627 20.1024C19.2785 21.1592 17.8756 21.75 16.2159 21.75H7.78216C6.1228 21.75 4.72038 21.1591 3.73657 20.1023C2.75842 19.0515 2.25 17.601 2.25 15.9736V8.02638C2.25 6.39806 2.76117 4.94771 3.7402 3.89737ZM4.83745 4.92012C4.16024 5.64666 3.75 6.70951 3.75 8.02638V15.9736C3.75 17.2914 4.15861 18.3541 4.83451 19.0802C5.50475 19.8003 6.49341 20.25 7.78216 20.25H16.2159C17.5052 20.25 18.4944 19.8002 19.165 19.0801C19.8412 18.354 20.25 17.2913 20.25 15.9736V8.02638C20.25 6.70868 19.8412 5.64597 19.1651 4.91984C18.4946 4.19975 17.5056 3.75 16.2169 3.75H7.78216C6.49828 3.75 5.50921 4.19943 4.83745 4.92012Z" fill="black"/>
<path fill-rule="evenodd" clip-rule="evenodd" d="M17.3954 7.51275L16.6564 7.64065C17.3954 7.51275 17.3955 7.51313 17.3955 7.51353L17.3957 7.51444L17.3961 7.51663L17.397 7.52249L17.3999 7.54003C17.4021 7.55427 17.405 7.57358 17.4083 7.59763C17.415 7.6457 17.4235 7.7129 17.4319 7.79666C17.4486 7.9639 17.4652 8.19886 17.4665 8.48083C17.469 9.04048 17.4112 9.80795 17.1582 10.6057C16.904 11.4076 16.4469 12.2567 15.6433 12.9423C14.836 13.6311 13.7286 14.1123 12.2479 14.2552C12.2372 14.2562 12.2265 14.257 12.2157 14.2576C10.5512 14.3462 9.49441 14.9797 8.8551 15.5645C8.5311 15.8608 8.30894 16.15 8.17015 16.3601C8.10091 16.4649 8.05302 16.5491 8.02409 16.6034C8.00964 16.6305 7.99999 16.65 7.99484 16.6607L7.99072 16.6694L7.99147 16.6677L7.99199 16.6666L7.99229 16.6659C7.99171 16.6672 7.99113 16.6685 7.99054 16.6698C7.854 16.9772 7.52929 17.1563 7.19612 17.1073C6.86126 17.0581 6.60084 16.7907 6.5605 16.4547L7.30515 16.3653C6.5605 16.4547 6.56045 16.4543 6.5604 16.4539L6.56029 16.4529L6.56002 16.4507L6.55935 16.4447L6.55746 16.427C6.55599 16.4128 6.55413 16.3935 6.5521 16.3696C6.54805 16.3217 6.54329 16.2551 6.53957 16.1721C6.53213 16.0063 6.52872 15.7738 6.54352 15.4942C6.57295 14.9383 6.67526 14.1784 6.9736 13.3828C7.27328 12.5835 7.77464 11.7389 8.60356 11.039C9.43535 10.3366 10.5597 9.81169 12.0537 9.5991L12.0677 9.59724C13.7351 9.39204 14.7128 8.784 15.2651 8.27262C15.5452 8.01326 15.7247 7.77048 15.8309 7.60106C15.8841 7.51634 15.9188 7.45018 15.9384 7.4099C15.9482 7.38978 15.9542 7.3762 15.9568 7.37008C15.9573 7.3689 15.9577 7.368 15.9579 7.36738C16.0798 7.05572 16.3939 6.86217 16.7277 6.89404C17.0643 6.92618 17.3377 7.17957 17.3954 7.51275ZM8.32423 14.0606C9.19014 13.4179 10.4251 12.8541 12.1191 12.7606C13.3328 12.641 14.1324 12.2596 14.6697 11.8012C15.2131 11.3377 15.5382 10.7524 15.7284 10.1524C15.7716 10.0161 15.8076 9.87982 15.8373 9.74529C15.0446 10.3389 13.8933 10.8827 12.2583 11.0851C11.014 11.2632 10.1627 11.6857 9.57129 12.1851C8.97596 12.6877 8.60651 13.3003 8.37811 13.9094C8.35917 13.9599 8.34123 14.0103 8.32423 14.0606ZM15.917 7.76662C15.917 7.76629 15.917 7.76627 15.917 7.76656L15.917 7.76662ZM7.99042 16.6701C7.99033 16.6703 7.99034 16.6703 7.99045 16.67L7.99042 16.6701Z" fill="black"/>
</svg>