<svg width="24" height="24" viewBox="0 0 24 24" fill="none" xmlns="http://www.w3.org/2000/svg">
<path fill-rule="evenodd" clip-rule="evenodd" d="M12 3.75C7.44337 3.75 3.75 7.44337 3.75 12C3.75 16.5566 7.44337 20.25 12 20.25C16.5566 20.25 20.25 16.5566 20.25 12C20.25 7.44337 16.5566 3.75 12 3.75ZM2.25 12C2.25 6.61494 6.61494 2.25 12 2.25C17.3851 2.25 21.75 6.61494 21.75 12C21.75 17.3851 17.3851 21.75 12 21.75C6.61494 21.75 2.25 17.3851 2.25 12Z" fill="black"/>
<path fill-rule="evenodd" clip-rule="evenodd" d="M16.9828 7.89557L16.2438 8.02346C16.9828 7.89557 16.9829 7.89595 16.9829 7.89635L16.9831 7.89724L16.9835 7.89937L16.9844 7.90497L16.987 7.92149C16.9891 7.93483 16.9918 7.9528 16.9949 7.97511C17.0011 8.0197 17.0089 8.08178 17.0167 8.15902C17.0321 8.3132 17.0474 8.52945 17.0486 8.78883C17.0509 9.3033 16.9977 10.01 16.7645 10.7456C16.53 11.4853 16.1075 12.2708 15.3637 12.9053C14.616 13.5431 13.5934 13.9858 12.2326 14.117C12.2219 14.118 12.2112 14.1188 12.2005 14.1193C10.7009 14.1992 9.75236 14.7692 9.18015 15.2925C8.8897 15.5582 8.69079 15.8172 8.56686 16.0049C8.50505 16.0984 8.46249 16.1734 8.43703 16.2211C8.42433 16.245 8.41595 16.2619 8.41163 16.2709L8.40834 16.2778C8.27169 16.5849 7.94718 16.7638 7.61421 16.7149C7.27935 16.6657 7.01891 16.3984 6.97852 16.0623L7.72317 15.9728C6.97852 16.0623 6.97848 16.0619 6.97843 16.0615L6.97832 16.0606L6.97806 16.0584L6.97741 16.0527L6.97562 16.036C6.97424 16.0226 6.97251 16.0047 6.97063 15.9825C6.96686 15.9381 6.96246 15.8765 6.95902 15.7999C6.95214 15.647 6.949 15.4329 6.96259 15.1758C6.98961 14.6647 7.08365 13.9653 7.35853 13.2322C7.63476 12.4956 8.09748 11.7158 8.86321 11.0693C9.6318 10.4204 10.6684 9.93759 12.0407 9.74221L12.0549 9.74033C13.5601 9.55524 14.4378 9.00717 14.9307 8.55071C15.1811 8.31881 15.341 8.10221 15.4352 7.95212C15.4822 7.87705 15.5127 7.81884 15.5296 7.78408C15.5381 7.76673 15.5431 7.7553 15.5451 7.75065C15.5453 7.75016 15.5455 7.74974 15.5457 7.7494C15.6678 7.43821 15.9816 7.24501 16.3151 7.27686C16.6517 7.309 16.9252 7.5624 16.9828 7.89557ZM8.46789 15.884L8.46807 15.8855L8.46796 15.8846L8.46789 15.884ZM8.78798 13.694C8.99447 13.1692 9.3198 12.6469 9.83085 12.2155C10.3591 11.7695 11.1227 11.3891 12.2454 11.2282C13.6484 11.0545 14.6659 10.6064 15.3901 10.1012C15.3733 10.1647 15.3549 10.2285 15.3347 10.2923C15.1642 10.83 14.8737 11.3516 14.3902 11.7641C13.9126 12.1715 13.1976 12.5145 12.1039 12.6224C10.6581 12.7024 9.5745 13.1553 8.78798 13.694ZM15.5047 8.15068L15.5044 8.14933L15.5046 8.15012L15.5047 8.15068Z" fill="black"/>
</svg>