<svg width="24" height="25" viewBox="0 0 24 25" fill="none" xmlns="http://www.w3.org/2000/svg">
<path fill-rule="evenodd" clip-rule="evenodd" d="M8.31055 14.5712C9.17055 13.9282 10.4095 13.3582 12.1375 13.2692C13.4775 13.1392 14.4985 12.6502 15.1385 11.8172C15.5115 11.3322 15.7225 10.7762 15.8375 10.2512C15.0565 10.8372 13.9095 11.3862 12.2575 11.5922C9.77655 11.9472 8.73655 13.3242 8.31055 14.5712Z" fill="black"/>
<path fill-rule="evenodd" clip-rule="evenodd" d="M16.337 12.7198C15.435 13.9028 14.059 14.5908 12.248 14.7648C9.045 14.9308 8.032 17.0818 7.99 17.1738C7.867 17.4458 7.597 17.6158 7.306 17.6158C7.268 17.6158 7.23 17.6138 7.192 17.6078C6.859 17.5568 6.601 17.2928 6.561 16.9588C6.313 14.8948 7.142 10.8048 12.054 10.1068C12.058 10.1058 12.063 10.1048 12.067 10.1048C15.17 9.72079 15.928 7.94879 15.959 7.87379C16.085 7.56579 16.4 7.37479 16.735 7.40779C17.068 7.44379 17.338 7.69179 17.396 8.02079C17.415 8.13079 17.845 10.7428 16.337 12.7198ZM16.217 3.00879H7.782C4.623 3.00879 2.5 5.23179 2.5 8.53879V16.4788C2.5 19.7858 4.623 22.0088 7.782 22.0088H16.216C19.377 22.0088 21.5 19.7858 21.5 16.4788V8.53879C21.5 5.23179 19.377 3.00879 16.217 3.00879Z" fill="black"/>
</svg>