<svg width="24" height="24" viewBox="0 0 24 24" fill="none" xmlns="http://www.w3.org/2000/svg">
<path fill-rule="evenodd" clip-rule="evenodd" d="M3.7402 3.89737C4.72468 2.84117 6.12669 2.25 7.78216 2.25H16.2169C17.8762 2.25 19.2788 2.84084 20.2629 3.89765C21.2413 4.94841 21.75 6.39889 21.75 8.02638V15.9736C21.75 17.6011 21.2413 19.0516 20.2627 20.1024C19.2785 21.1592 17.8756 21.75 16.2159 21.75H7.78216C6.1228 21.75 4.72038 21.1591 3.73657 20.1023C2.75842 19.0515 2.25 17.601 2.25 15.9736V8.02638C2.25 6.39806 2.76117 4.94771 3.7402 3.89737ZM4.83745 4.92012C4.16024 5.64666 3.75 6.70951 3.75 8.02638V15.9736C3.75 17.2914 4.15861 18.3541 4.83451 19.0802C5.50475 19.8003 6.49341 20.25 7.78216 20.25H16.2159C17.5052 20.25 18.4944 19.8002 19.165 19.0801C19.8412 18.354 20.25 17.2913 20.25 15.9736V8.02638C20.25 6.70868 19.8412 5.64597 19.1651 4.91984C18.4946 4.19975 17.5056 3.75 16.2169 3.75H7.78216C6.49828 3.75 5.50921 4.19943 4.83745 4.92012Z" fill="black"/>
<path fill-rule="evenodd" clip-rule="evenodd" d="M8.75684 7.94922C8.75684 7.53501 9.09262 7.19922 9.50684 7.19922H12.9748C14.632 7.19922 15.9748 8.54201 15.9748 10.1992C15.9748 11.8564 14.632 13.1992 12.9748 13.1992H10.2568V16.0492C10.2568 16.4634 9.92105 16.7992 9.50684 16.7992C9.09262 16.7992 8.75684 16.4634 8.75684 16.0492V7.94922ZM10.2568 11.6992H12.9748C13.8036 11.6992 14.4748 11.028 14.4748 10.1992C14.4748 9.37043 13.8036 8.69922 12.9748 8.69922H10.2568V11.6992Z" fill="black"/>
</svg>