<svg width="25" height="24" viewBox="0 0 25 24" fill="none" xmlns="http://www.w3.org/2000/svg">
<path fill-rule="evenodd" clip-rule="evenodd" d="M19.7695 19.3911C18.7535 16.1781 16.0235 14.3371 12.2765 14.3371H12.2495C8.49255 14.3161 5.74855 16.1701 4.73055 19.3911L4.61255 19.7651L4.94655 19.9691C6.90455 21.1631 9.34655 21.7681 12.2025 21.7681C12.2345 21.7681 12.2665 21.7681 12.2975 21.7681C15.1935 21.7681 17.5675 21.1791 19.5535 19.9691L19.8875 19.7651L19.7695 19.3911Z" fill="black"/>
<path fill-rule="evenodd" clip-rule="evenodd" d="M12.2501 12.1089C14.9731 12.1089 17.1891 9.89393 17.1891 7.17093C17.1891 4.44693 14.9731 2.23193 12.2501 2.23193C9.52707 2.23193 7.31207 4.44693 7.31207 7.17093C7.31207 9.89393 9.52707 12.1089 12.2501 12.1089Z" fill="black"/>
</svg>