<svg width="25" height="24" viewBox="0 0 25 24" fill="none" xmlns="http://www.w3.org/2000/svg">
<path d="M18.6318 17.8588L5.87676 17.8508C5.41936 17.8633 4.96438 17.7803 4.54083 17.6071C4.11729 17.434 3.73445 17.1745 3.41674 16.8452C3.09903 16.5159 2.85341 16.1241 2.69553 15.6946C2.53765 15.2651 2.47097 14.8075 2.49976 14.3508V10.8948C2.47081 10.438 2.5374 9.98024 2.69528 9.55063C2.85317 9.12103 3.09888 8.72904 3.41673 8.39971C3.73459 8.07038 4.1176 7.81092 4.54134 7.6379C4.96508 7.46488 5.42023 7.3821 5.87776 7.39483H10.3498C10.5487 7.39483 10.7394 7.47384 10.8801 7.61449C11.0207 7.75514 11.0998 7.94591 11.0998 8.14483C11.0998 8.34374 11.0207 8.53451 10.8801 8.67516C10.7394 8.81581 10.5487 8.89483 10.3498 8.89483H5.87776C5.6171 8.88186 5.35674 8.92574 5.11472 9.02341C4.87271 9.12108 4.65482 9.2702 4.47618 9.46045C4.29753 9.65071 4.16239 9.87754 4.08013 10.1252C3.99786 10.3729 3.97044 10.6355 3.99976 10.8948V14.3508C3.97044 14.6101 3.99786 14.8728 4.08013 15.1204C4.16239 15.3681 4.29753 15.5949 4.47618 15.7852C4.65482 15.9754 4.87271 16.1246 5.11472 16.2222C5.35674 16.3199 5.6171 16.3638 5.87776 16.3508L18.6318 16.3588C18.8928 16.3706 19.1533 16.3253 19.3951 16.2262C19.6369 16.1271 19.8543 15.9766 20.032 15.785C20.2098 15.5935 20.3437 15.3655 20.4245 15.117C20.5053 14.8684 20.5309 14.6053 20.4998 14.3458V10.8898C20.5289 10.6314 20.5017 10.3697 20.42 10.1227C20.3383 9.8758 20.2041 9.64951 20.0266 9.45943C19.849 9.26935 19.6324 9.12 19.3916 9.02167C19.1508 8.92334 18.8916 8.87836 18.6318 8.88982H18.0008C17.8018 8.88982 17.6111 8.81081 17.4704 8.67016C17.3298 8.5295 17.2508 8.33873 17.2508 8.13982C17.2508 7.94091 17.3298 7.75014 17.4704 7.60949C17.6111 7.46883 17.8018 7.38982 18.0008 7.38982H18.6318C19.0887 7.37774 19.5431 7.46105 19.966 7.63443C20.3889 7.80782 20.771 8.06747 21.0879 8.39681C21.4048 8.72615 21.6496 9.11795 21.8066 9.5472C21.9636 9.97645 22.0294 10.4337 21.9998 10.8898V14.3458C22.0303 14.8028 21.9653 15.261 21.8088 15.6914C21.6523 16.1218 21.4078 16.5149 21.0909 16.8454C20.7739 17.176 20.3916 17.4369 19.9681 17.6114C19.5447 17.7858 19.0896 17.8701 18.6318 17.8588Z" fill="black"/>
<path d="M5.74956 19.238C5.61451 19.2383 5.48191 19.2021 5.36578 19.1331C5.24965 19.0642 5.15431 18.9652 5.08985 18.8465C5.02539 18.7279 4.99422 18.594 4.99962 18.4591C5.00503 18.3241 5.04682 18.1932 5.12056 18.08L6.02056 16.695C6.0742 16.6124 6.14359 16.5412 6.22476 16.4854C6.30593 16.4296 6.39729 16.3904 6.49363 16.3699C6.58998 16.3494 6.68941 16.3481 6.78625 16.3661C6.8831 16.384 6.97546 16.4209 7.05806 16.4745C7.14066 16.5282 7.21188 16.5976 7.26767 16.6787C7.32345 16.7599 7.3627 16.8513 7.38318 16.9476C7.40365 17.044 7.40495 17.1434 7.387 17.2402C7.36905 17.3371 7.3322 17.4294 7.27855 17.512L6.37855 18.896C6.31066 19.0011 6.21752 19.0874 6.10763 19.1472C5.99775 19.2069 5.87463 19.2382 5.74956 19.238V19.238Z" fill="black"/>
<path d="M18.692 19.238C18.5669 19.2382 18.4438 19.2069 18.3339 19.1472C18.224 19.0874 18.1309 19.0011 18.063 18.896L17.163 17.512C17.0547 17.3452 17.017 17.1422 17.0584 16.9476C17.0997 16.753 17.2167 16.5829 17.3835 16.4745C17.5503 16.3662 17.7533 16.3286 17.9479 16.3699C18.1425 16.4113 18.3127 16.5282 18.421 16.695L19.321 18.08C19.3947 18.1932 19.4365 18.3241 19.4419 18.4591C19.4473 18.594 19.4162 18.7279 19.3517 18.8465C19.2872 18.9652 19.1919 19.0642 19.0758 19.1331C18.9596 19.2021 18.827 19.2383 18.692 19.238V19.238Z" fill="black"/>
<path d="M9.8342 14.8145H6.4502C6.25128 14.8145 6.06052 14.7354 5.91987 14.5948C5.77922 14.4541 5.7002 14.2634 5.7002 14.0645C5.7002 13.8655 5.77922 13.6748 5.91987 13.5341C6.06052 13.3935 6.25128 13.3145 6.4502 13.3145H9.8352C10.0341 13.3145 10.2249 13.3935 10.3655 13.5341C10.5062 13.6748 10.5852 13.8655 10.5852 14.0645C10.5852 14.2634 10.5062 14.4541 10.3655 14.5948C10.2249 14.7354 10.0341 14.8145 9.8352 14.8145H9.8342Z" fill="black"/>
<path d="M7.8652 12.209H6.4502C6.25128 12.209 6.06052 12.13 5.91987 11.9893C5.77922 11.8487 5.7002 11.6579 5.7002 11.459C5.7002 11.2601 5.77922 11.0693 5.91987 10.9286C6.06052 10.788 6.25128 10.709 6.4502 10.709H7.8662C8.06511 10.709 8.25588 10.788 8.39653 10.9286C8.53718 11.0693 8.6162 11.2601 8.6162 11.459C8.6162 11.6579 8.53718 11.8487 8.39653 11.9893C8.25588 12.13 8.06511 12.209 7.8662 12.209H7.8652Z" fill="black"/>
<path d="M14.2498 14.2437C13.3121 14.2437 12.3955 13.9657 11.6158 13.4447C10.8362 12.9238 10.2285 12.1833 9.86968 11.317C9.51084 10.4507 9.41696 9.49746 9.59989 8.57779C9.78282 7.65813 10.2344 6.81336 10.8974 6.15032C11.5604 5.48728 12.4052 5.03575 13.3249 4.85282C14.2445 4.66989 15.1978 4.76377 16.0641 5.12261C16.9304 5.48144 17.6708 6.08911 18.1918 6.86876C18.7127 7.64842 18.9908 8.56504 18.9908 9.50272C18.9892 10.7596 18.4892 11.9646 17.6004 12.8534C16.7117 13.7421 15.5067 14.2421 14.2498 14.2437ZM14.2498 6.26172C13.6088 6.26172 12.9822 6.4518 12.4492 6.80793C11.9162 7.16405 11.5008 7.67022 11.2555 8.26244C11.0102 8.85466 10.946 9.50631 11.0711 10.135C11.1961 10.7637 11.5048 11.3412 11.9581 11.7945C12.4113 12.2477 12.9888 12.5564 13.6175 12.6814C14.2462 12.8065 14.8979 12.7423 15.4901 12.497C16.0823 12.2517 16.5885 11.8363 16.9446 11.3033C17.3007 10.7703 17.4908 10.1437 17.4908 9.50272C17.4897 8.64348 17.1479 7.81972 16.5404 7.21215C15.9328 6.60457 15.109 6.26278 14.2498 6.26172Z" fill="black"/>
<path d="M14.2498 11.6227C13.8309 11.6227 13.4214 11.4985 13.0731 11.2658C12.7248 11.033 12.4534 10.7023 12.2931 10.3152C12.1328 9.92822 12.0908 9.50236 12.1725 9.09151C12.2543 8.68066 12.456 8.30328 12.7522 8.00707C13.0484 7.71086 13.4258 7.50914 13.8366 7.42742C14.2475 7.3457 14.6733 7.38763 15.0604 7.54793C15.4474 7.70824 15.7782 7.97972 16.0109 8.32802C16.2436 8.67633 16.3678 9.08582 16.3678 9.50472C16.3673 10.0663 16.144 10.6047 15.7469 11.0018C15.3498 11.3989 14.8114 11.6222 14.2498 11.6227V11.6227ZM14.2498 8.88672C14.1276 8.88672 14.0081 8.92296 13.9065 8.99087C13.8049 9.05877 13.7256 9.1553 13.6789 9.26822C13.6321 9.38115 13.6199 9.5054 13.6437 9.62528C13.6676 9.74516 13.7264 9.85527 13.8128 9.9417C13.8993 10.0281 14.0094 10.087 14.1293 10.1108C14.2491 10.1347 14.3734 10.1224 14.4863 10.0757C14.5993 10.0289 14.6958 9.94969 14.7637 9.84806C14.8316 9.74643 14.8678 9.62695 14.8678 9.50472C14.8681 9.4234 14.8523 9.34281 14.8214 9.2676C14.7904 9.19239 14.7449 9.12403 14.6875 9.06643C14.6301 9.00883 14.5619 8.96313 14.4868 8.93195C14.4117 8.90077 14.3312 8.88471 14.2498 8.88471V8.88672Z" fill="black"/>
</svg>