<svg width="25" height="24" viewBox="0 0 25 24" fill="none" xmlns="http://www.w3.org/2000/svg">
<path d="M17.5478 7.18555H18.8808C20.492 7.18555 21.5 8.32003 21.5 9.94003V14.296C21.5 15.9063 20.492 17.0495 18.8808 17.0495H6.11827C4.508 17.0495 3.5 15.9063 3.5 14.296V9.94003C3.5 8.32879 4.508 7.18555 6.11827 7.18555H10.9199" stroke="black" stroke-width="1.5" stroke-linecap="round" stroke-linejoin="round"/>
<path opacity="0.4" d="M7.12453 17.0527L6.73242 18.4382" stroke="black" stroke-width="1.5" stroke-linecap="round" stroke-linejoin="round"/>
<path opacity="0.4" d="M17.877 17.0527L18.2691 18.4382" stroke="black" stroke-width="1.5" stroke-linecap="round" stroke-linejoin="round"/>
<path opacity="0.4" d="M6.89648 10.6699V12.1177" stroke="black" stroke-width="1.5" stroke-linecap="round" stroke-linejoin="round"/>
<path d="M14.2345 5.5625C16.5541 5.5625 18.4348 7.44326 18.4348 9.76282C18.4348 12.0824 16.5541 13.9631 14.2345 13.9631C11.9149 13.9631 10.0352 12.0824 10.0352 9.76282C10.0352 7.44326 11.9149 5.5625 14.2345 5.5625Z" stroke="black" stroke-width="1.5" stroke-linecap="round" stroke-linejoin="round"/>
<path opacity="0.4" d="M12.6055 9.76254C12.6055 10.6625 13.3352 11.3923 14.2352 11.3923C15.1352 11.3923 15.8649 10.6625 15.8649 9.76254C15.8649 8.86254 15.1352 8.13281 14.2352 8.13281" stroke="black" stroke-width="1.5" stroke-linecap="round" stroke-linejoin="round"/>
</svg>