<svg width="25" height="24" viewBox="0 0 25 24" fill="none" xmlns="http://www.w3.org/2000/svg">
<path d="M14.5048 5.43555C16.7086 5.43555 18.4959 7.2229 18.4959 9.42668C18.4959 11.6305 16.7086 13.4178 14.5048 13.4178C12.301 13.4178 10.5137 11.6305 10.5137 9.42668C10.5137 7.2229 12.301 5.43555 14.5048 5.43555Z" stroke="black" stroke-width="1.5" stroke-linecap="round" stroke-linejoin="round"/>
<path d="M18.2512 8.05859H18.8808C20.492 8.05859 21.5 9.19308 21.5 10.8121V14.2681C21.5 15.8794 20.492 17.0314 18.8808 17.0314L6.128 17.0226C4.508 17.0226 3.5 15.8881 3.5 14.2681V10.8121C3.5 9.20184 4.51773 8.05859 6.128 8.05859H10.6008" stroke="black" stroke-width="1.5" stroke-linecap="round" stroke-linejoin="round"/>
<path opacity="0.4" d="M16.1907 8.79504C16.0175 8.3319 15.6585 7.95925 15.2051 7.76758" stroke="black" stroke-width="1.5" stroke-linecap="round" stroke-linejoin="round"/>
<path opacity="0.4" d="M6.70117 11.834H7.64009" stroke="black" stroke-width="1.5" stroke-linecap="round" stroke-linejoin="round"/>
<path opacity="0.4" d="M6.9 17.0273L6 18.5656" stroke="black" stroke-width="1.5" stroke-linecap="round" stroke-linejoin="round"/>
<path opacity="0.4" d="M18.0449 17.0273L18.9449 18.5656" stroke="black" stroke-width="1.5" stroke-linecap="round" stroke-linejoin="round"/>
</svg>