<svg width="24" height="24" viewBox="0 0 24 24" fill="none" xmlns="http://www.w3.org/2000/svg">
<path d="M17.0478 7.18555H18.3808C19.992 7.18555 21 8.32003 21 9.94003V14.296C21 15.9063 19.992 17.0495 18.3808 17.0495H5.61827C4.008 17.0495 3 15.9063 3 14.296V9.94003C3 8.32879 4.008 7.18555 5.61827 7.18555H10.4199" stroke="black" stroke-width="1.5" stroke-linecap="round" stroke-linejoin="round"/>
<path d="M6.62453 17.0527L6.23242 18.4382" stroke="black" stroke-width="1.5" stroke-linecap="round" stroke-linejoin="round"/>
<path d="M17.377 17.0527L17.7691 18.4382" stroke="black" stroke-width="1.5" stroke-linecap="round" stroke-linejoin="round"/>
<path d="M6.39648 10.6699V12.1177" stroke="black" stroke-width="1.5" stroke-linecap="round" stroke-linejoin="round"/>
<path d="M13.7345 5.5625C16.0541 5.5625 17.9348 7.44326 17.9348 9.76282C17.9348 12.0824 16.0541 13.9631 13.7345 13.9631C11.4149 13.9631 9.53516 12.0824 9.53516 9.76282C9.53516 7.44326 11.4149 5.5625 13.7345 5.5625Z" stroke="black" stroke-width="1.5" stroke-linecap="round" stroke-linejoin="round"/>
<path d="M12.1055 9.76254C12.1055 10.6625 12.8352 11.3923 13.7352 11.3923C14.6352 11.3923 15.3649 10.6625 15.3649 9.76254C15.3649 8.86254 14.6352 8.13281 13.7352 8.13281" stroke="black" stroke-width="1.5" stroke-linecap="round" stroke-linejoin="round"/>
</svg>