<svg width="24" height="24" viewBox="0 0 24 24" fill="none" xmlns="http://www.w3.org/2000/svg">
<path fill-rule="evenodd" clip-rule="evenodd" d="M19.7041 6.46753C18.7141 6.46753 17.9081 7.27553 17.9081 8.26753C17.9081 8.59953 18.0051 8.90653 18.1641 9.17253L16.7541 10.6985C16.4731 11.0035 16.4921 11.4775 16.7961 11.7585C16.9401 11.8925 17.1231 11.9575 17.3051 11.9575C17.5071 11.9575 17.7081 11.8765 17.8561 11.7165L19.4151 10.0285C19.5101 10.0435 19.6051 10.0575 19.7041 10.0575C20.6941 10.0575 21.5001 9.25453 21.5001 8.26753C21.5001 7.27553 20.6941 6.46753 19.7041 6.46753Z" fill="black"/>
<path fill-rule="evenodd" clip-rule="evenodd" d="M13.4819 6.25764V9.74764C13.4819 10.1616 13.8179 10.4976 14.2319 10.4976C14.6459 10.4976 14.9819 10.1616 14.9819 9.74764V6.25764C15.5969 5.97164 16.0279 5.35064 16.0279 4.62764C16.0279 3.63564 15.2219 2.82764 14.2319 2.82764C13.2419 2.82764 12.4359 3.63564 12.4359 4.62764C12.4359 5.35064 12.8669 5.97164 13.4819 6.25764Z" fill="black"/>
<path fill-rule="evenodd" clip-rule="evenodd" d="M8.13816 7.66764C8.23716 7.66764 8.33216 7.65364 8.42716 7.63864L9.45116 8.76764V10.3166C9.45116 10.7306 9.78716 11.0666 10.2012 11.0666C10.6152 11.0666 10.9512 10.7306 10.9512 10.3166V8.47764C10.9512 8.29064 10.8822 8.11064 10.7562 7.97364L9.67716 6.78564C9.83616 6.51864 9.93416 6.21064 9.93416 5.87764C9.93416 4.88564 9.12816 4.07764 8.13816 4.07764C7.14716 4.07764 6.34216 4.88564 6.34216 5.87764C6.34216 6.86464 7.14716 7.66764 8.13816 7.66764Z" fill="black"/>
<path fill-rule="evenodd" clip-rule="evenodd" d="M6.09176 9.5378C6.09176 8.5508 5.28576 7.7478 4.29576 7.7478C3.30576 7.7478 2.49976 8.5508 2.49976 9.5378C2.49976 10.5298 3.30576 11.3378 4.29576 11.3378C5.28576 11.3378 6.09176 10.5298 6.09176 9.5378Z" fill="black"/>
<path fill-rule="evenodd" clip-rule="evenodd" d="M16.8521 13.7292C16.6051 13.9162 16.3561 14.1202 16.1031 14.3272C15.7481 14.6182 15.3881 14.9122 15.0201 15.1642C15.0261 15.0952 15.0411 15.0292 15.0411 14.9582C15.0411 13.8312 14.2881 12.8872 13.1721 12.6112C12.1641 12.3542 10.9631 12.1042 9.62105 12.1182C7.58205 12.1732 5.25705 13.2692 3.76205 14.2752C3.41805 14.5052 3.32705 14.9722 3.55805 15.3162C3.78905 15.6592 4.25505 15.7512 4.59905 15.5192C5.85905 14.6712 7.94205 13.6652 9.65405 13.6182C10.8071 13.5822 11.8901 13.8322 12.8061 14.0652C13.2591 14.1772 13.5411 14.5202 13.5411 14.9582C13.5411 15.4732 13.1321 15.8472 12.5681 15.8472H12.5381C12.2491 15.8362 11.9491 15.8352 11.6441 15.8472H11.2321C10.8831 15.8472 10.6031 16.0912 10.5191 16.4132C10.5121 16.4382 10.5091 16.4622 10.5041 16.4882C10.4981 16.5252 10.4821 16.5582 10.4821 16.5972C10.4821 16.6202 10.4931 16.6392 10.4951 16.6612C10.4961 16.6872 10.4871 16.7112 10.4911 16.7372C10.4971 16.7812 10.5211 16.8172 10.5351 16.8582C10.5401 16.8742 10.5451 16.8902 10.5521 16.9052C10.6801 17.2152 10.9951 17.4142 11.3421 17.3702C11.4501 17.3542 11.5651 17.3532 11.6771 17.3472H12.5511C12.8011 17.3552 13.0511 17.3652 13.2971 17.3582C14.8221 17.3182 16.0081 16.3452 17.0551 15.4872C17.2911 15.2922 17.5251 15.1012 17.7531 14.9282C18.0701 14.6932 18.5191 14.7222 18.7921 14.9952C19.1041 15.3102 19.1041 15.8252 18.7951 16.1372L18.5621 16.3712C17.3751 17.5592 16.3511 18.5862 14.8411 19.1682C12.6141 20.0332 10.5281 19.6192 8.06505 19.1322C7.10705 18.9422 5.48605 18.9172 4.18005 18.9172C3.76605 18.9172 3.43005 19.2532 3.43005 19.6672C3.43005 20.0822 3.76605 20.4172 4.18005 20.4172C4.90705 20.4172 6.83705 20.4172 7.82305 20.6132C9.25705 20.8972 10.6461 21.1722 12.0601 21.1722C13.1431 21.1722 14.2411 21.0102 15.3831 20.5682C17.1881 19.8722 18.3711 18.6852 19.6241 17.4292L19.8581 17.1952C20.7471 16.2972 20.7471 14.8372 19.8531 13.9352C19.0511 13.1372 17.7601 13.0502 16.8521 13.7292Z" fill="black"/>
</svg>