<svg width="25" height="24" viewBox="0 0 25 24" fill="none" xmlns="http://www.w3.org/2000/svg">
<path fill-rule="evenodd" clip-rule="evenodd" d="M12.756 15.9659C12.6823 15.9631 12.6061 15.9603 12.5265 15.9578C12.2799 15.9502 12.0122 15.9467 11.7345 15.9659H11.4823C11.068 15.9659 10.7323 16.3017 10.7323 16.7159C10.7323 16.7284 10.7326 16.7408 10.7332 16.7532C10.7335 16.7869 10.7361 16.821 10.7412 16.8553C10.8014 17.2651 11.1825 17.5485 11.5923 17.4883C11.657 17.4788 11.7228 17.4714 11.7898 17.4659H12.7222L12.7232 17.4659C12.9813 17.476 13.2689 17.4872 13.5464 17.4804C14.5488 17.4563 15.3989 17.021 16.1078 16.5338C16.4643 16.2889 16.8019 16.0187 17.1142 15.7637C17.1767 15.7127 17.2378 15.6625 17.2979 15.6133C17.5459 15.4099 17.7758 15.2213 18.0057 15.0482C18.3213 14.8105 18.7643 14.8415 19.0442 15.1224C19.3566 15.4359 19.3567 15.9451 19.0443 16.2586C18.9933 16.3099 18.9422 16.3611 18.892 16.4116C17.6368 17.6741 16.618 18.6987 15.0917 19.2921C12.8785 20.1527 10.8238 19.752 8.3149 19.2554C7.26767 19.0481 5.37087 19.0407 4.43011 19.0407C4.0159 19.0407 3.68011 19.3765 3.68011 19.7907C3.68011 20.2049 4.0159 20.5407 4.43011 20.5407C5.42948 20.5407 7.15409 20.5547 8.02361 20.7268C8.0681 20.7356 8.1126 20.7444 8.15711 20.7532C10.5595 21.2294 13.0031 21.7136 15.6352 20.6901C17.4655 19.9786 18.6912 18.7436 19.8969 17.5287C19.9669 17.4581 20.0369 17.3876 20.107 17.3172C21.0026 16.4184 21.0025 14.9624 20.1067 14.0637C19.2989 13.2529 18.0176 13.1614 17.1034 13.8499C16.8461 14.0436 16.5859 14.2571 16.3362 14.462C16.2786 14.5092 16.2217 14.556 16.1654 14.6019C15.8656 14.8468 15.5764 15.0772 15.2832 15.2804C15.2885 15.2135 15.2913 15.1455 15.2913 15.0764C15.2913 13.9121 14.493 13.0006 13.4209 12.7302L13.4195 12.7298C12.3007 12.4499 11.1245 12.2128 9.87364 12.2425C7.84772 12.2924 5.50501 13.3941 4.01292 14.3928C3.66871 14.6233 3.57645 15.0891 3.80685 15.4333C4.03726 15.7775 4.50309 15.8698 4.8473 15.6394C6.23912 14.7077 8.29686 13.7818 9.90987 13.7421C10.955 13.7174 11.9736 13.9143 13.0554 14.185C13.5179 14.3022 13.7913 14.6572 13.7913 15.0764C13.7913 15.5675 13.4074 15.9659 12.8181 15.9659H12.756Z" fill="black"/>
<path fill-rule="evenodd" clip-rule="evenodd" d="M14.482 10.619C14.0678 10.619 13.732 10.2832 13.732 9.869V6.65341C12.9729 6.35437 12.436 5.61468 12.436 4.74913C12.436 3.62015 13.3513 2.70312 14.482 2.70312C15.6113 2.70312 16.528 3.61978 16.528 4.74913C16.528 5.61473 15.9905 6.3541 15.232 6.65321V9.86899C15.232 10.2832 14.8962 10.619 14.482 10.619ZM13.936 4.74913C13.936 5.05103 14.1801 5.29513 14.482 5.29513C14.7832 5.29513 15.028 5.05066 15.028 4.74913C15.028 4.44821 14.7829 4.20312 14.482 4.20312C14.1804 4.20312 13.936 4.44784 13.936 4.74913Z" fill="black"/>
<path fill-rule="evenodd" clip-rule="evenodd" d="M17.0453 11.8824C16.7409 11.6015 16.7218 11.127 17.0027 10.8225L18.2319 9.49045C18.0269 9.17164 17.908 8.79231 17.908 8.38544C17.908 7.25645 18.8233 6.33943 19.954 6.33943C21.0833 6.33943 22 7.25609 22 8.38544C22 9.51479 21.0833 10.4314 19.954 10.4314C19.7837 10.4314 19.6182 10.4106 19.46 10.3714L18.1051 11.8398C17.8242 12.1442 17.3497 12.1633 17.0453 11.8824ZM19.6911 8.86401C19.7691 8.90698 19.8587 8.93144 19.954 8.93144C20.2549 8.93144 20.5 8.68636 20.5 8.38544C20.5 8.08451 20.2549 7.83943 19.954 7.83943C19.6525 7.83943 19.408 8.08415 19.408 8.38544C19.408 8.56759 19.4974 8.72906 19.6347 8.82828C19.6539 8.83927 19.6727 8.85117 19.6911 8.86401Z" fill="black"/>
<path fill-rule="evenodd" clip-rule="evenodd" d="M10.4502 11.1894C10.036 11.1894 9.70023 10.8536 9.70023 10.4394V8.89249L8.87642 7.98274C8.72008 8.02099 8.55667 8.04128 8.3885 8.04128C7.25915 8.04128 6.3425 7.12463 6.3425 5.99528C6.3425 4.86593 7.25915 3.94928 8.3885 3.94928C9.51919 3.94928 10.4345 4.8663 10.4345 5.99528C10.4345 6.40481 10.3141 6.78644 10.1066 7.10654L11.0062 8.09997C11.1311 8.23789 11.2002 8.41732 11.2002 8.60338V10.4394C11.2002 10.8536 10.8644 11.1894 10.4502 11.1894ZM8.71052 6.43618C8.8463 6.3368 8.9345 6.17625 8.9345 5.99528C8.9345 5.69399 8.69003 5.44928 8.3885 5.44928C8.08758 5.44928 7.8425 5.69436 7.8425 5.99528C7.8425 6.2962 8.08758 6.54128 8.3885 6.54128C8.4825 6.54128 8.57096 6.51749 8.64819 6.47563C8.66847 6.46135 8.68927 6.4482 8.71052 6.43618Z" fill="black"/>
<path fill-rule="evenodd" clip-rule="evenodd" d="M6.59201 9.66342C6.59201 10.7924 5.6767 11.7094 4.546 11.7094C3.41665 11.7094 2.5 10.7928 2.5 9.66342C2.5 8.53273 3.41702 7.61742 4.546 7.61742C5.67633 7.61742 6.59201 8.5331 6.59201 9.66342ZM4.546 10.2094C4.84753 10.2094 5.09201 9.96471 5.09201 9.66342C5.09201 9.36152 4.8479 9.11742 4.546 9.11742C4.24471 9.11742 4 9.36189 4 9.66342C4 9.96434 4.24508 10.2094 4.546 10.2094Z" fill="black"/>
</svg>