<svg width="25" height="24" viewBox="0 0 25 24" fill="none" xmlns="http://www.w3.org/2000/svg">
<path d="M21.4316 13.1985C21.6652 11.269 21.3441 8.89108 19.7844 7.54642C18.645 6.57149 17.0367 6.39636 15.7018 7.06869C15.4965 7.17669 15.2435 7.3129 15.0976 7.5075C14.5322 6.68922 13.5768 6.16284 12.5046 6.16284C11.4333 6.16284 10.4876 6.68922 9.90281 7.49777C9.75687 7.3129 9.51265 7.17669 9.30832 7.06869C7.97339 6.39636 6.35533 6.57149 5.21597 7.54642C3.65628 8.89108 3.33423 11.269 3.56872 13.1985C3.82169 15.2359 4.67013 17.2918 6.04398 18.832C7.26215 20.1864 9.01156 20.8295 10.795 20.3323C11.302 20.6252 11.8721 20.7809 12.4958 20.7809C13.1195 20.7809 13.7072 20.6252 14.2141 20.3323C15.9976 20.8295 17.7479 20.1864 18.9661 18.832C19.641 18.0754 20.1891 17.1943 20.6009 16.2522" stroke="black" stroke-width="1.5" stroke-linecap="round" stroke-linejoin="round"/>
<path d="M12.4289 6.1625C12.3706 3.72616 14.4459 3.21924 14.4459 3.21924" stroke="black" stroke-width="1.5" stroke-linecap="round" stroke-linejoin="round"/>
</svg>