<svg width="25" height="24" viewBox="0 0 25 24" fill="none" xmlns="http://www.w3.org/2000/svg">
<path fill-rule="evenodd" clip-rule="evenodd" d="M12.505 6.91284C11.6865 6.91284 10.9619 7.31374 10.511 7.93729C10.3732 8.12778 10.1541 8.24265 9.91906 8.2476C9.68402 8.25256 9.46026 8.14702 9.31459 7.9625C9.30815 7.95434 9.27989 7.9243 9.20872 7.87632C9.14107 7.83073 9.06148 7.7864 8.96505 7.73534C7.89449 7.19929 6.60674 7.34458 5.70507 8.11538C4.43275 9.21327 4.08987 11.2648 4.31356 13.107C4.55023 15.0116 5.34363 16.9191 6.60307 18.3316C7.65921 19.5051 9.12437 20.0196 10.5941 19.6099C10.7883 19.5558 10.9961 19.5821 11.1707 19.6829C11.5618 19.9089 12.0023 20.0309 12.4962 20.0309C12.9941 20.0309 13.4515 19.907 13.8393 19.6829C14.0139 19.5821 14.2217 19.5558 14.4159 19.6099C15.8857 20.0196 17.3518 19.5051 18.4078 18.3317C19.6676 16.9188 20.4603 15.0118 20.6874 13.1095L20.6875 13.1083C20.9106 11.2653 20.5686 9.21336 19.2962 8.11538C18.394 7.34412 17.1155 7.19944 16.0453 7.73567C15.9439 7.78902 15.8642 7.83251 15.7957 7.87846C15.7625 7.90071 15.7382 7.91949 15.721 7.93466C15.7046 7.94917 15.6983 7.95706 15.698 7.95749C15.698 7.95751 15.698 7.95751 15.698 7.9575C15.5533 8.15047 15.3246 8.26205 15.0834 8.25736C14.8422 8.25266 14.618 8.13226 14.4809 7.9338C14.0543 7.31626 13.3285 6.91284 12.505 6.91284ZM15.2042 6.48417C14.5011 5.81547 13.5452 5.41284 12.505 5.41284C11.4578 5.41284 10.5089 5.82061 9.8024 6.48268C9.75257 6.45491 9.70782 6.43127 9.6706 6.41161C9.66673 6.40957 9.66294 6.40757 9.65924 6.40561L9.64612 6.39884C8.04849 5.59421 6.10401 5.79982 4.7288 6.97656L4.72879 6.97656L4.72668 6.97838C2.88073 8.56984 2.57964 11.2731 2.82463 13.2889L2.82487 13.2909C3.09424 15.4603 3.99728 17.6637 5.48472 19.3312L5.48679 19.3336C6.80144 20.7952 8.70868 21.5644 10.699 21.1289C11.2493 21.3929 11.8532 21.5309 12.4962 21.5309C13.1365 21.5309 13.7537 21.3941 14.3103 21.1287C16.3009 21.5646 18.2093 20.7955 19.5242 19.3336L19.5263 19.3312C21.0135 17.6638 21.9173 15.4598 22.1767 13.2878C22.4205 11.2727 22.1204 8.56974 20.2746 6.97838L20.2724 6.97656C18.8976 5.80012 16.9629 5.594 15.3648 6.39884L15.3648 6.39874L15.353 6.40493C15.3452 6.40904 15.3369 6.41339 15.3281 6.41798C15.2933 6.43619 15.2513 6.4582 15.2042 6.48417Z" fill="black"/>
<path fill-rule="evenodd" clip-rule="evenodd" d="M14.6303 3.94617C14.6302 3.94617 14.6302 3.94617 14.6302 3.94617C14.6296 3.94634 14.6286 3.94661 14.6273 3.94699C14.6215 3.94865 14.6091 3.95228 14.5911 3.95819C14.555 3.97006 14.4975 3.99074 14.4258 4.02243C14.2808 4.08649 14.0881 4.19112 13.899 4.35058C13.5418 4.65171 13.1556 5.1779 13.1787 6.14447C13.1887 6.55856 12.861 6.90229 12.4469 6.91222C12.0328 6.92214 11.6891 6.59449 11.6792 6.1804C11.6439 4.71063 12.2662 3.76518 12.9321 3.20376C13.2545 2.93195 13.577 2.75758 13.8194 2.65046C13.9413 2.59655 14.0455 2.5586 14.1226 2.53323C14.1613 2.52051 14.1934 2.51088 14.218 2.50392C14.2302 2.50044 14.2406 2.49762 14.249 2.49542L14.26 2.49256L14.2644 2.49147L14.2663 2.491L14.2672 2.49079C14.2676 2.49069 14.268 2.49059 14.4459 3.21917L14.268 2.49059C14.6704 2.3923 15.0762 2.63882 15.1745 3.04121C15.2723 3.44147 15.0289 3.84518 14.6303 3.94617Z" fill="black"/>
</svg>