<svg width="25" height="25" viewBox="0 0 25 25" fill="none" xmlns="http://www.w3.org/2000/svg">
<path d="M4.9344 16.2813L20.0328 16.2812" stroke="black" stroke-width="1.5"/>
<path d="M17.8502 12.4434L7.09766 12.4434" stroke="black" stroke-width="1.5"/>
<path d="M15.8292 8.60596L9.34131 8.60596" stroke="black" stroke-width="1.5"/>
<path fill-rule="evenodd" clip-rule="evenodd" d="M19.4584 20.1187C20.163 20.1187 20.5152 20.1187 20.7441 20.0227C21.2534 19.8092 21.5585 19.2833 21.4906 18.7357C21.4601 18.4896 21.285 18.1843 20.9346 17.5737L13.9762 5.44626C13.6225 4.82989 13.4457 4.5217 13.2473 4.37071C12.8059 4.03463 12.1941 4.03463 11.7527 4.37071C11.5543 4.5217 11.3775 4.82989 11.0238 5.44626L4.0654 17.5737C3.71505 18.1843 3.53987 18.4896 3.50939 18.7357C3.44155 19.2833 3.74657 19.8092 4.25589 20.0227C4.48477 20.1187 4.83703 20.1187 5.54156 20.1187H19.4584Z" stroke="black" stroke-width="1.5" stroke-linecap="round" stroke-linejoin="round"/>
</svg>