<svg width="25" height="24" viewBox="0 0 25 24" fill="none" xmlns="http://www.w3.org/2000/svg">
<path fill-rule="evenodd" clip-rule="evenodd" d="M14.0583 3.24787C13.1983 1.95731 11.3026 1.95829 10.4421 3.24753L14.0583 3.24787ZM14.0583 3.24787L21.6346 14.6128C21.6346 14.6128 21.6346 14.6128 21.6346 14.6128C22.36 15.7009 21.9675 17.1768 20.7989 17.7618L13.6538 21.3343C12.7705 21.776 11.7305 21.7758 10.8467 21.3345L3.70163 17.762C2.53304 17.1769 2.14019 15.7009 2.86555 14.6128C2.86555 14.6128 2.86555 14.6128 2.86555 14.6128L10.4421 3.24753M11.6897 4.08024C11.6896 4.08035 11.6898 4.08013 11.6897 4.08024L4.11364 15.4448C3.88896 15.7819 4.01009 16.2389 4.37279 16.4205L11.5168 19.9925C11.979 20.2233 12.5223 20.223 12.983 19.9927L20.1274 16.4205C20.4901 16.2389 20.6112 15.7819 20.3866 15.4449L12.8102 4.0799C12.5445 3.6811 11.957 3.68024 11.6897 4.08024Z" fill="black"/>
<path fill-rule="evenodd" clip-rule="evenodd" d="M12.25 2.36816C12.6642 2.36816 13 2.70395 13 3.11816V20.9694C13 21.3836 12.6642 21.7194 12.25 21.7194C11.8358 21.7194 11.5 21.3836 11.5 20.9694V3.11816C11.5 2.70395 11.8358 2.36816 12.25 2.36816Z" fill="black"/>
</svg>