<svg width="25" height="25" viewBox="0 0 25 25" fill="none" xmlns="http://www.w3.org/2000/svg">
<path fill-rule="evenodd" clip-rule="evenodd" d="M6.14976 18.2791H7.64976V16.6891H6.14976V18.2791ZM2.74976 21.6391H11.0598V13.3291H2.74976V21.6391Z" fill="black"/>
<path fill-rule="evenodd" clip-rule="evenodd" d="M16.8498 18.2791H18.3498V16.6891H16.8498V18.2791ZM13.4398 21.6391H21.7498V13.3291H13.4398V21.6391Z" fill="black"/>
<path fill-rule="evenodd" clip-rule="evenodd" d="M14.9441 4.13824H17.3751V2.63824H13.4441V8.25724H14.9441V4.13824Z" fill="black"/>
<path fill-rule="evenodd" clip-rule="evenodd" d="M13.4448 10.943H17.1648V9.44304H13.4448V10.943Z" fill="black"/>
<path fill-rule="evenodd" clip-rule="evenodd" d="M18.5481 2.63824V4.13824H20.2501V5.83924H21.7501V2.63824H18.5481Z" fill="black"/>
<path fill-rule="evenodd" clip-rule="evenodd" d="M20.2498 9.44283H18.5478V10.9428H21.7498V7.01283H20.2498V9.44283Z" fill="black"/>
<path fill-rule="evenodd" clip-rule="evenodd" d="M15.7674 5.00294V8.72194H19.0964V7.22194H17.2674V5.00294H15.7674Z" fill="black"/>
<path fill-rule="evenodd" clip-rule="evenodd" d="M19.6932 4.99313L18.1932 5.00313V6.50313H19.6932V4.99313Z" fill="black"/>
<path fill-rule="evenodd" clip-rule="evenodd" d="M6.14976 7.58904H7.64976V5.98904H6.14976V7.58904ZM2.74976 10.939H11.0598V2.63904H2.74976V10.939Z" fill="black"/>
</svg>