<svg width="25" height="25" viewBox="0 0 25 25" fill="none" xmlns="http://www.w3.org/2000/svg">
<path fill-rule="evenodd" clip-rule="evenodd" d="M6.14976 18.279H7.64976V16.689H6.14976V18.279ZM2.74976 21.639H11.0598V13.329H2.74976V21.639Z" fill="black"/>
<path fill-rule="evenodd" clip-rule="evenodd" d="M14.9441 4.13818H17.3751V2.63818H13.4441V8.25718H14.9441V4.13818Z" fill="black"/>
<path fill-rule="evenodd" clip-rule="evenodd" d="M13.4448 10.943H17.1648V9.44298H13.4448V10.943Z" fill="black"/>
<path fill-rule="evenodd" clip-rule="evenodd" d="M18.5481 2.63818V4.13818H20.2501V5.83918H21.7501V2.63818H18.5481Z" fill="black"/>
<path fill-rule="evenodd" clip-rule="evenodd" d="M20.2498 9.44277H18.5478V10.9428H21.7498V7.01277H20.2498V9.44277Z" fill="black"/>
<path fill-rule="evenodd" clip-rule="evenodd" d="M15.7674 5.00288V8.72188H19.0964V7.22188H17.2674V5.00288H15.7674Z" fill="black"/>
<path fill-rule="evenodd" clip-rule="evenodd" d="M19.6932 4.99307L18.1932 5.00307V6.50307H19.6932V4.99307Z" fill="black"/>
<g opacity="0.4">
<path fill-rule="evenodd" clip-rule="evenodd" d="M16.8498 18.2792H18.3498V16.6892H16.8498V18.2792ZM13.4398 21.6392H21.7498V13.3292H13.4398V21.6392Z" fill="black"/>
<path fill-rule="evenodd" clip-rule="evenodd" d="M6.14976 7.58916H7.64976V5.98916H6.14976V7.58916ZM2.74976 10.9392H11.0598V2.63916H2.74976V10.9392Z" fill="black"/>
</g>
</svg>