<svg width="25" height="25" viewBox="0 0 25 25" fill="none" xmlns="http://www.w3.org/2000/svg">
<path fill-rule="evenodd" clip-rule="evenodd" d="M2.75 3.13867H11.0556V11.4442H2.75V3.13867ZM4.25 4.63867V9.94423H9.55556V4.63867H4.25Z" fill="black"/>
<path fill-rule="evenodd" clip-rule="evenodd" d="M2.75 13.8331H11.0556V22.1387H2.75V13.8331ZM4.25 15.3331V20.6387H9.55556V15.3331H4.25Z" fill="black"/>
<path fill-rule="evenodd" clip-rule="evenodd" d="M13.4445 13.8331H21.75V22.1387H13.4445V13.8331ZM14.9445 15.3331V20.6387H20.25V15.3331H14.9445Z" fill="black"/>
<path fill-rule="evenodd" clip-rule="evenodd" d="M13.4445 3.13867H17.375V4.63867H14.9445V8.7584H13.4445V3.13867ZM18.5486 3.13867H21.75V6.34006H20.25V4.63867H18.5486V3.13867ZM21.75 7.51367V11.4442H18.5486V9.94423H20.25V7.51367H21.75ZM13.4445 9.94423H17.1646V11.4442H13.4445V9.94423Z" fill="black"/>
<path fill-rule="evenodd" clip-rule="evenodd" d="M19.0967 9.22266H15.7676V5.50427H17.2676V7.72266H19.0967V9.22266Z" fill="black"/>
<path fill-rule="evenodd" clip-rule="evenodd" d="M18.1935 7.00421L18.1935 5.49421L19.6935 5.49421L19.6935 7.00421L18.1935 7.00421Z" fill="black"/>
<path fill-rule="evenodd" clip-rule="evenodd" d="M6.15234 8.08984L6.15234 6.49262L7.65234 6.49262L7.65234 8.08984L6.15234 8.08984Z" fill="black"/>
<path fill-rule="evenodd" clip-rule="evenodd" d="M6.15234 18.7842L6.15234 17.187L7.65234 17.187L7.65234 18.7842L6.15234 18.7842Z" fill="black"/>
<path fill-rule="evenodd" clip-rule="evenodd" d="M16.8477 18.7842L16.8477 17.187L18.3477 17.187L18.3477 18.7842L16.8477 18.7842Z" fill="black"/>
</svg>