<svg width="24" height="24" viewBox="0 0 24 24" fill="none" xmlns="http://www.w3.org/2000/svg">
<path fill-rule="evenodd" clip-rule="evenodd" d="M4.7456 20.0296H7.62089C8.58418 20.0296 9.36649 19.2482 9.36649 18.284V15.4097C9.36649 14.4454 8.58418 13.6641 7.62089 13.6641H4.7456C3.78134 13.6641 3 14.4454 3 15.4097V18.284C3 19.2482 3.78134 20.0296 4.7456 20.0296Z" stroke="black" stroke-width="1.5" stroke-linecap="round" stroke-linejoin="round"/>
<path d="M6.18182 16.8434V16.8327" stroke="black" stroke-width="1.5" stroke-linecap="round" stroke-linejoin="round"/>
<path d="M6.18182 6.23405V6.22335" stroke="black" stroke-width="1.5" stroke-linecap="round" stroke-linejoin="round"/>
<path fill-rule="evenodd" clip-rule="evenodd" d="M4.7456 9.4202H7.62089C8.58418 9.4202 9.36649 8.63887 9.36649 7.6746V4.80029C9.36649 3.83603 8.58418 3.05469 7.62089 3.05469H4.7456C3.78134 3.05469 3 3.83603 3 4.80029V7.6746C3 8.63887 3.78134 9.4202 4.7456 9.4202Z" stroke="black" stroke-width="1.5" stroke-linecap="round" stroke-linejoin="round"/>
<path fill-rule="evenodd" clip-rule="evenodd" d="M15.353 3.05469H18.2283C19.1916 3.05469 19.9729 3.83603 19.9729 4.80029V7.6746C19.9729 8.63887 19.1916 9.4202 18.2283 9.4202H15.353C14.3888 9.4202 13.6074 8.63887 13.6074 7.6746V4.80029C13.6074 3.83603 14.3888 3.05469 15.353 3.05469Z" stroke="black" stroke-width="1.5" stroke-linecap="round" stroke-linejoin="round"/>
<path d="M16.7912 6.23897V6.24968" stroke="black" stroke-width="1.5" stroke-linecap="round" stroke-linejoin="round"/>
<path fill-rule="evenodd" clip-rule="evenodd" d="M16.9926 13.3828C18.8617 13.3828 20.3777 14.8978 20.3777 16.768C20.3777 18.6371 18.8617 20.1521 16.9926 20.1521C15.1234 20.1521 13.6074 18.6371 13.6074 16.768C13.6074 14.8978 15.1234 13.3828 16.9926 13.3828Z" stroke="black" stroke-width="1.5" stroke-linecap="round" stroke-linejoin="round"/>
<path d="M19.2969 19.25L21.0006 20.9499" stroke="black" stroke-width="1.5" stroke-linecap="round" stroke-linejoin="round"/>
</svg>