<svg width="24" height="24" viewBox="0 0 24 24" fill="none" xmlns="http://www.w3.org/2000/svg">
<path fill-rule="evenodd" clip-rule="evenodd" d="M8.36663 18.2821C8.36663 18.6931 8.03263 19.0281 7.62063 19.0281H4.74563C4.33463 19.0281 3.99963 18.6931 3.99963 18.2821V15.4081C3.99963 14.9961 4.33463 14.6621 4.74563 14.6621H7.62063C8.03263 14.6621 8.36663 14.9961 8.36663 15.4081V18.2821ZM7.62063 12.6621H4.74563C3.23163 12.6621 1.99963 13.8941 1.99963 15.4081V18.2821C1.99963 19.7961 3.23163 21.0281 4.74563 21.0281H7.62063C9.13563 21.0281 10.3666 19.7961 10.3666 18.2821V15.4081C10.3666 13.8941 9.13563 12.6621 7.62063 12.6621Z" fill="black"/>
<path fill-rule="evenodd" clip-rule="evenodd" d="M6.18151 15.8348C5.62951 15.8348 5.18151 16.2828 5.18151 16.8348V16.8448C5.18151 17.3968 5.62951 17.8398 6.18151 17.8398C6.73351 17.8398 7.18151 17.3868 7.18151 16.8348C7.18151 16.2828 6.73351 15.8348 6.18151 15.8348Z" fill="black"/>
<path fill-rule="evenodd" clip-rule="evenodd" d="M6.18151 5.22498C5.62951 5.22498 5.18151 5.67298 5.18151 6.22498V6.23598C5.18151 6.78798 5.62951 7.22998 6.18151 7.22998C6.73351 7.22998 7.18151 6.77698 7.18151 6.22498C7.18151 5.67298 6.73351 5.22498 6.18151 5.22498Z" fill="black"/>
<path fill-rule="evenodd" clip-rule="evenodd" d="M8.36663 7.67273C8.36663 8.08373 8.03263 8.41773 7.62063 8.41773H4.74563C4.33463 8.41773 3.99963 8.08373 3.99963 7.67273V4.79773C3.99963 4.38673 4.33463 4.05273 4.74563 4.05273H7.62063C8.03263 4.05273 8.36663 4.38673 8.36663 4.79773V7.67273ZM7.62063 2.05273H4.74563C3.23163 2.05273 1.99963 3.28473 1.99963 4.79773V7.67273C1.99963 9.18673 3.23163 10.4177 4.74563 10.4177H7.62063C9.13563 10.4177 10.3666 9.18673 10.3666 7.67273V4.79773C10.3666 3.28473 9.13563 2.05273 7.62063 2.05273Z" fill="black"/>
<path fill-rule="evenodd" clip-rule="evenodd" d="M14.6074 4.79773C14.6074 4.38673 14.9414 4.05273 15.3534 4.05273H18.2284C18.6384 4.05273 18.9724 4.38673 18.9724 4.79773V7.67273C18.9724 8.08373 18.6384 8.41773 18.2284 8.41773H15.3534C14.9414 8.41773 14.6074 8.08373 14.6074 7.67273V4.79773ZM15.3534 10.4177H18.2284C19.7414 10.4177 20.9724 9.18673 20.9724 7.67273V4.79773C20.9724 3.28473 19.7414 2.05273 18.2284 2.05273H15.3534C13.8384 2.05273 12.6074 3.28473 12.6074 4.79773V7.67273C12.6074 9.18673 13.8384 10.4177 15.3534 10.4177Z" fill="black"/>
<path fill-rule="evenodd" clip-rule="evenodd" d="M16.7909 7.24788C17.3429 7.24788 17.7909 6.79988 17.7909 6.24788V6.23688C17.7909 5.68488 17.3429 5.24188 16.7909 5.24188C16.2389 5.24188 15.7909 5.69588 15.7909 6.24788C15.7909 6.79988 16.2389 7.24788 16.7909 7.24788Z" fill="black"/>
<path fill-rule="evenodd" clip-rule="evenodd" d="M14.6074 16.7679C14.6074 15.4529 15.6774 14.3829 16.9924 14.3829C18.3084 14.3829 19.3784 15.4529 19.3784 16.7679C19.3784 18.0819 18.3084 19.1519 16.9924 19.1519C15.6774 19.1519 14.6074 18.0819 14.6074 16.7679ZM21.7074 20.2399L20.6474 19.1819C21.1064 18.4889 21.3784 17.6599 21.3784 16.7679C21.3784 14.3499 19.4104 12.3829 16.9924 12.3829C14.5744 12.3829 12.6074 14.3499 12.6074 16.7679C12.6074 19.1849 14.5744 21.1519 16.9924 21.1519C17.7924 21.1519 18.5334 20.9209 19.1804 20.5449L20.2944 21.6559C20.4894 21.8509 20.7444 21.9479 21.0004 21.9479C21.2564 21.9479 21.5134 21.8499 21.7084 21.6549C22.0984 21.2639 22.0974 20.6299 21.7074 20.2399Z" fill="black"/>
</svg>