<svg width="24" height="24" viewBox="0 0 24 24" fill="none" xmlns="http://www.w3.org/2000/svg">
<path opacity="0.4" fill-rule="evenodd" clip-rule="evenodd" d="M11.5918 17.9492C11.0398 17.9492 10.5918 18.3962 10.5918 18.9492V19.0192C10.5918 19.5722 11.0398 19.9842 11.5918 19.9842C12.1438 19.9842 12.5918 19.5022 12.5918 18.9492C12.5918 18.3962 12.1438 17.9492 11.5918 17.9492Z" fill="black"/>
<path fill-rule="evenodd" clip-rule="evenodd" d="M12.0005 4.01758C9.24947 4.01758 7.01147 6.25458 7.01147 9.00558C7.01147 9.55858 7.45947 10.0056 8.01147 10.0056C8.56347 10.0056 9.01147 9.55858 9.01147 9.00558C9.01147 7.35858 10.3525 6.01758 12.0005 6.01758C13.6485 6.01758 14.9885 7.35858 14.9885 9.00558C14.9885 10.0156 14.4705 10.8136 13.4375 11.3846L13.2095 11.5126C12.1575 12.1006 10.5665 12.9886 10.5915 14.9576C10.5995 15.5056 11.0455 15.9456 11.5915 15.9456H11.6045C12.1565 15.9386 12.5985 15.4846 12.5915 14.9326C12.5825 14.2056 13.1875 13.8156 14.1845 13.2586L14.4155 13.1286C16.0745 12.2126 16.9885 10.7476 16.9885 9.00558C16.9885 6.25458 14.7505 4.01758 12.0005 4.01758Z" fill="black"/>
</svg>