<svg width="24" height="24" viewBox="0 0 24 24" fill="none" xmlns="http://www.w3.org/2000/svg">
<path fill-rule="evenodd" clip-rule="evenodd" d="M13.981 22H10.018C9.46601 22 9.01801 21.553 9.01801 21C9.01801 20.447 9.46601 20 10.018 20H13.981C14.533 20 14.981 20.447 14.981 21C14.981 21.553 14.533 22 13.981 22Z" fill="black"/>
<path fill-rule="evenodd" clip-rule="evenodd" d="M13.9805 4H10.0175C9.46552 4 9.01752 3.553 9.01752 3C9.01752 2.447 9.46552 2 10.0175 2H13.9805C14.5325 2 14.9805 2.447 14.9805 3C14.9805 3.553 14.5325 4 13.9805 4Z" fill="black"/>
<path fill-rule="evenodd" clip-rule="evenodd" d="M3 14.9814C2.448 14.9814 2 14.5344 2 13.9814V10.0204C2 9.46739 2.448 9.02039 3 9.02039C3.552 9.02039 4 9.46739 4 10.0204V13.9814C4 14.5344 3.552 14.9814 3 14.9814Z" fill="black"/>
<path fill-rule="evenodd" clip-rule="evenodd" d="M21 14.9814C20.448 14.9814 20 14.5344 20 13.9814V10.0204C20 9.46739 20.448 9.02039 21 9.02039C21.552 9.02039 22 9.46739 22 10.0204V13.9814C22 14.5344 21.552 14.9814 21 14.9814Z" fill="black"/>
<path fill-rule="evenodd" clip-rule="evenodd" d="M11.7364 17.5811C11.1844 17.5811 10.7364 17.1341 10.7364 16.5811C10.7364 16.0281 11.1844 15.5591 11.7364 15.5591C12.2884 15.5591 12.7364 15.9841 12.7364 16.5371V16.5811C12.7364 17.1341 12.2884 17.5811 11.7364 17.5811Z" fill="black"/>
<path fill-rule="evenodd" clip-rule="evenodd" d="M11.7344 14.8945C11.1884 14.8945 10.7424 14.4555 10.7344 13.9075C10.7154 12.4195 11.9034 11.7565 12.6124 11.3605L12.7584 11.2795C13.5874 10.8215 13.5874 10.2345 13.5874 10.0405C13.5874 9.16549 12.8754 8.45349 12.0004 8.45349C11.1094 8.45349 10.4124 9.15049 10.4124 10.0405C10.4124 10.5935 9.96441 11.0405 9.41241 11.0405C8.85941 11.0405 8.41241 10.5935 8.41241 10.0405C8.41241 8.06249 10.0224 6.45349 12.0004 6.45349C13.9784 6.45349 15.5874 8.06249 15.5874 10.0405C15.5874 11.3055 14.9294 12.3645 13.7354 13.0235L13.5884 13.1065C12.9554 13.4595 12.7314 13.6295 12.7344 13.8815C12.7424 14.4335 12.3004 14.8865 11.7484 14.8945H11.7344Z" fill="black"/>
<path fill-rule="evenodd" clip-rule="evenodd" d="M7.07569 21.9805C7.03669 21.9805 6.99769 21.9785 6.95869 21.9735C4.30469 21.6645 2.41869 19.7785 2.03669 17.0525C1.96069 16.5055 2.34169 16.0005 2.88869 15.9235C3.42769 15.8405 3.94069 16.2285 4.01769 16.7755C4.27469 18.6115 5.43069 19.7825 7.18969 19.9875C7.73869 20.0505 8.13169 20.5475 8.06769 21.0965C8.00869 21.6055 7.57569 21.9805 7.07569 21.9805Z" fill="black"/>
<path fill-rule="evenodd" clip-rule="evenodd" d="M16.8892 21.9805C16.3892 21.9805 15.9572 21.6055 15.8972 21.0965C15.8332 20.5475 16.2252 20.0515 16.7742 19.9875C18.5282 19.7825 19.6812 18.6115 19.9372 16.7755C20.0142 16.2285 20.5192 15.8405 21.0662 15.9235C21.6132 16.0005 21.9942 16.5055 21.9182 17.0525C21.5362 19.7785 19.6552 21.6645 17.0072 21.9735C16.9672 21.9785 16.9282 21.9805 16.8892 21.9805Z" fill="black"/>
<path fill-rule="evenodd" clip-rule="evenodd" d="M3.02894 8.09574C2.98294 8.09574 2.93594 8.09274 2.88894 8.08574C2.34194 8.00974 1.96094 7.50374 2.03694 6.95674C2.41894 4.22574 4.30494 2.33674 6.95894 2.02774C7.49994 1.95974 8.00394 2.35574 8.06794 2.90474C8.13194 3.45274 7.73894 3.94974 7.18994 4.01374C5.43194 4.21874 4.27594 5.39274 4.01794 7.23474C3.94794 7.73474 3.51994 8.09574 3.02894 8.09574Z" fill="black"/>
<path fill-rule="evenodd" clip-rule="evenodd" d="M20.9263 8.09573C20.4353 8.09573 20.0073 7.73473 19.9373 7.23473C19.6793 5.39173 18.5273 4.21773 16.7753 4.01373C16.2263 3.94973 15.8333 3.45273 15.8973 2.90473C15.9613 2.35573 16.4643 1.96173 17.0063 2.02773C19.6543 2.33573 21.5353 4.22473 21.9183 6.95673C21.9943 7.50373 21.6133 8.00973 21.0663 8.08573C21.0193 8.09273 20.9723 8.09573 20.9263 8.09573Z" fill="black"/>
</svg>