<svg width="25" height="24" viewBox="0 0 25 24" fill="none" xmlns="http://www.w3.org/2000/svg">
<path d="M14.4805 21H10.5176" stroke="black" stroke-width="1.5" stroke-linecap="round" stroke-linejoin="round"/>
<path d="M14.4805 3H10.5176" stroke="black" stroke-width="1.5" stroke-linecap="round" stroke-linejoin="round"/>
<path d="M3.5 13.9815V10.0195" stroke="black" stroke-width="1.5" stroke-linecap="round" stroke-linejoin="round"/>
<path d="M21.5 13.9815V10.0195" stroke="black" stroke-width="1.5" stroke-linecap="round" stroke-linejoin="round"/>
<path d="M12.2363 16.5371V16.5809" stroke="black" stroke-width="1.5" stroke-linecap="round" stroke-linejoin="round"/>
<path d="M12.2346 13.8952C12.2219 12.93 13.0996 12.5204 13.7524 12.1487C14.5483 11.7099 15.0874 11.0113 15.0874 10.0422C15.0874 8.6061 13.9266 7.4541 12.5002 7.4541C11.0641 7.4541 9.91211 8.6061 9.91211 10.0422" stroke="black" stroke-width="1.5" stroke-linecap="round" stroke-linejoin="round"/>
<path d="M3.52734 16.9141C3.83967 19.147 5.32151 20.7174 7.57394 20.9801" stroke="black" stroke-width="1.5" stroke-linecap="round" stroke-linejoin="round"/>
<path d="M17.3906 20.9801C19.6431 20.7164 21.1152 19.147 21.4275 16.9141" stroke="black" stroke-width="1.5" stroke-linecap="round" stroke-linejoin="round"/>
<path d="M3.52734 7.09532C3.83967 4.86234 5.32151 3.28321 7.57394 3.01953" stroke="black" stroke-width="1.5" stroke-linecap="round" stroke-linejoin="round"/>
<path d="M17.3906 3.01953C19.6431 3.28321 21.1152 4.86234 21.4275 7.09532" stroke="black" stroke-width="1.5" stroke-linecap="round" stroke-linejoin="round"/>
</svg>