<svg width="25" height="24" viewBox="0 0 25 24" fill="none" xmlns="http://www.w3.org/2000/svg">
<path opacity="0.4" fill-rule="evenodd" clip-rule="evenodd" d="M6.51602 4.25H13.306C15.909 4.25 17.658 6.078 17.658 8.8V15.2C17.658 17.922 15.909 19.75 13.305 19.75H6.51602C3.91402 19.75 2.16602 17.922 2.16602 15.2V8.8C2.16602 6.078 3.91402 4.25 6.51602 4.25Z" fill="black"/>
<path d="M20.576 6.81024C21.339 6.18624 22.47 6.29724 23.096 7.05924C23.36 7.37824 23.503 7.78424 23.502 8.19924L23.49 15.7972C23.487 16.7842 22.682 17.5862 21.696 17.5862C21.281 17.5862 20.878 17.4432 20.562 17.1822L19.3476 16.184C19.0915 15.9734 18.9731 15.6508 18.9898 15.3196C18.9919 15.2793 18.993 15.2386 18.993 15.1972V8.79624C18.993 8.75725 18.992 8.71876 18.9901 8.68067C18.9739 8.34843 19.0924 8.02491 19.3497 7.81419L20.576 6.81024Z" fill="black"/>
<path fill-rule="evenodd" clip-rule="evenodd" d="M11.4659 12.6416L11.3059 12.7316C10.9559 12.9316 10.8159 13.0116 10.6659 13.2716C10.5259 13.5216 10.2759 13.6516 10.0159 13.6516C9.88594 13.6516 9.76594 13.6216 9.64594 13.5616C9.28594 13.3616 9.15594 12.9016 9.35594 12.5416C9.71594 11.9016 10.1559 11.6616 10.5759 11.4216L10.7359 11.3316C11.3259 11.0216 11.3259 10.6016 11.3259 10.4616C11.3259 9.85156 10.8159 9.35156 10.2059 9.35156C9.58594 9.35156 9.08594 9.85156 9.08594 10.4616C9.08594 10.8816 8.75594 11.2116 8.33594 11.2116C7.92594 11.2116 7.58594 10.8816 7.58594 10.4616C7.58594 9.03156 8.76594 7.85156 10.2059 7.85156C11.6459 7.85156 12.8259 9.03156 12.8259 10.4616C12.8259 11.3816 12.3259 12.1816 11.4659 12.6416ZM10.6759 15.1516C10.6759 15.5716 10.3459 15.9016 9.92594 15.9016C9.51594 15.9016 9.17594 15.5716 9.17594 15.1516C9.17594 14.7416 9.51594 14.3816 9.92594 14.3816C10.3459 14.3816 10.6759 14.6916 10.6759 15.1016V15.1516Z" fill="black"/>
</svg>