<svg width="24" height="24" viewBox="0 0 24 24" fill="none" xmlns="http://www.w3.org/2000/svg">
<path fill-rule="evenodd" clip-rule="evenodd" d="M13.615 12.806L13.464 12.891C12.771 13.279 12.483 13.502 12.488 13.882C12.494 14.296 12.162 14.636 11.748 14.642H11.738C11.328 14.642 10.994 14.313 10.988 13.902C10.97 12.569 12.072 11.952 12.73 11.582L12.88 11.498C13.515 11.147 13.834 10.66 13.834 10.048C13.834 9.038 13.011 8.216 12.002 8.216C10.992 8.216 10.17 9.038 10.17 10.048C10.17 10.462 9.834 10.798 9.42 10.798C9.006 10.798 8.67 10.462 8.67 10.048C8.67 8.211 10.165 6.716 12.002 6.716C13.839 6.716 15.334 8.211 15.334 10.048C15.334 11.213 14.723 12.193 13.615 12.806ZM12.488 16.572C12.488 16.986 12.152 17.322 11.738 17.322C11.324 17.322 10.988 16.986 10.988 16.572C10.988 16.158 11.324 15.799 11.738 15.799C12.152 15.799 12.488 16.114 12.488 16.528V16.572ZM16.217 2.5H7.782C4.623 2.5 2.5 4.721 2.5 8.027V15.975C2.5 19.28 4.623 21.5 7.782 21.5H16.216C19.376 21.5 21.5 19.28 21.5 15.975V8.027C21.5 4.721 19.377 2.5 16.217 2.5Z" fill="black"/>
</svg>