<svg width="24" height="24" viewBox="0 0 24 24" fill="none" xmlns="http://www.w3.org/2000/svg">
<path d="M11.9866 21.2637C9.30662 21.2637 6.66664 20.0936 4.84664 17.8736C1.81664 14.1836 2.07662 8.84367 5.45662 5.46367C8.83662 2.07367 14.1666 1.81356 17.8666 4.85356C21.4066 7.75356 22.2766 12.7136 20.0166 16.6136L20.7566 17.3536C21.0766 17.6836 21.2566 18.1038 21.2566 18.5538V19.5538C21.2566 20.4938 20.4966 21.2537 19.5566 21.2537H18.5566C18.0966 21.2537 17.6766 21.0737 17.3566 20.7437L16.6266 20.0137C15.1766 20.8537 13.5866 21.2537 12.0066 21.2537L11.9866 21.2637ZM11.9866 4.2437C9.99662 4.2437 8.02662 5.01373 6.51662 6.52373C3.68662 9.35372 3.46664 13.8236 6.00664 16.9136C8.54664 20.0036 12.9766 20.6636 16.3066 18.4336C16.6066 18.2336 16.9966 18.2737 17.2566 18.5237L18.4166 19.6836C18.4166 19.6836 18.5066 19.7437 18.5566 19.7437H19.5566C19.6666 19.7437 19.7566 19.6537 19.7566 19.5437V18.5437C19.7566 18.4937 19.7366 18.4436 19.6966 18.4036L18.5366 17.2437C18.2866 16.9937 18.2466 16.5937 18.4466 16.2937C20.6766 12.9637 20.0266 8.54371 16.9266 6.00371C15.4866 4.81371 13.7366 4.22368 12.0066 4.22368L11.9866 4.2437Z" fill="black"/>
<path d="M11.9667 17.956C10.1067 17.956 8.3067 17.076 7.1467 15.476C5.4367 13.096 5.69669 9.85604 7.76669 7.77604C9.84669 5.70604 13.0767 5.44592 15.4567 7.15592C17.8367 8.86592 18.6167 12.0159 17.3067 14.6459C17.1967 14.8659 16.9967 15.0161 16.7567 15.0561C16.5167 15.0961 16.2767 15.0159 16.1067 14.8459L12.8667 11.6059C12.6967 11.4359 12.4667 11.3359 12.2267 11.3359C11.9867 11.3359 11.7567 11.4259 11.5867 11.6059C11.4167 11.7759 11.3167 12.006 11.3167 12.246C11.3167 12.486 11.4067 12.7059 11.5767 12.8759L14.8167 16.1159C14.9867 16.2859 15.0667 16.526 15.0267 16.766C14.9867 17.006 14.8367 17.2061 14.6167 17.3161C13.7567 17.7461 12.8467 17.946 11.9467 17.946L11.9667 17.956ZM11.9767 7.53605C10.8367 7.53605 9.69669 7.97586 8.82669 8.84586C7.27669 10.4059 7.07669 12.8259 8.35669 14.6059C9.41669 16.0859 11.2267 16.7359 12.9367 16.3459L10.5267 13.936C10.0767 13.486 9.82669 12.886 9.82669 12.236C9.82669 11.586 10.0767 10.9861 10.5367 10.5361C10.9867 10.0861 11.5867 9.82609 12.2367 9.82609C12.8767 9.82609 13.4867 10.0761 13.9367 10.5361L16.3367 12.936C16.7167 11.226 16.0667 9.42588 14.5867 8.36588C13.7967 7.79588 12.8867 7.51603 11.9767 7.51603V7.53605Z" fill="black"/>
</svg>