<svg width="24" height="24" viewBox="0 0 24 24" fill="none" xmlns="http://www.w3.org/2000/svg">
<path fill-rule="evenodd" clip-rule="evenodd" d="M19.0639 16.7269L20.223 17.886C20.4001 18.063 20.4996 18.3032 20.4996 18.5537V19.5552C20.4996 20.0767 20.0769 20.4995 19.5554 20.4995H18.5538C18.3034 20.4995 18.0632 20.4 17.8862 20.2229L16.7271 19.0638C13.093 21.4957 8.20663 20.7736 5.43135 17.3944C2.65608 14.0152 2.89753 9.0817 5.9895 5.98965C9.08148 2.8976 14.015 2.65603 17.3942 5.43122C20.7735 8.20641 21.4958 13.0927 19.0639 16.7269Z" stroke="black" stroke-width="1.5" stroke-linecap="round" stroke-linejoin="round"/>
<path opacity="0.4" fill-rule="evenodd" clip-rule="evenodd" d="M16.6481 14.3112L13.4062 11.0693C12.7609 10.424 11.7146 10.424 11.0693 11.0693C10.424 11.7146 10.424 12.7609 11.0693 13.4062L14.3112 16.6481C12.0268 17.7869 9.25363 17.1018 7.76235 15.0302C6.27106 12.9586 6.50143 10.1113 8.30637 8.30637C10.1113 6.50143 12.9586 6.27106 15.0302 7.76235C17.1018 9.25363 17.7869 12.0268 16.6481 14.3112Z" stroke="black" stroke-width="1.5" stroke-linecap="round" stroke-linejoin="round"/>
</svg>