<svg width="25" height="25" viewBox="0 0 25 25" fill="none" xmlns="http://www.w3.org/2000/svg">
<path fill-rule="evenodd" clip-rule="evenodd" d="M7.06444 18.8384C8.98794 17.4587 10.4162 15.4029 11.0369 13.1185C11.4728 11.517 11.4806 9.68497 10.5242 8.3287C9.6077 7.02983 7.84182 6.39839 6.31042 6.82259C3.5142 7.59607 2.60548 11.1502 4.49589 13.2751C5.21489 14.0846 6.26858 14.5866 7.34951 14.6353C6.93018 15.7804 6.32404 16.8565 5.5632 17.809C6.06232 18.1524 6.56241 18.4969 7.06444 18.8384Z" stroke="black" stroke-width="1.5" stroke-linecap="round" stroke-linejoin="round"/>
<path fill-rule="evenodd" clip-rule="evenodd" d="M17.2441 18.8384C19.1676 17.4587 20.5959 15.4029 21.2166 13.1185C21.6525 11.517 21.6603 9.68497 20.7039 8.3287C19.7874 7.02983 18.0215 6.39839 16.4901 6.82259C13.6939 7.59607 12.7852 11.1502 14.6756 13.2751C15.3946 14.0846 16.4483 14.5866 17.5292 14.6353C17.1099 15.7804 16.5037 16.8565 15.7429 17.809C16.242 18.1524 16.7421 18.4969 17.2441 18.8384Z" stroke="black" stroke-width="1.5" stroke-linecap="round" stroke-linejoin="round"/>
</svg>