<svg width="25" height="25" viewBox="0 0 25 25" fill="none" xmlns="http://www.w3.org/2000/svg">
<path fill-rule="evenodd" clip-rule="evenodd" d="M7.75583 6.69141C5.83233 8.07103 4.40406 10.1268 3.78332 12.4113C3.34745 14.0128 3.33967 15.8448 4.29606 17.2011C5.21257 18.4999 6.97845 19.1314 8.50985 18.7072C11.3061 17.9337 12.2148 14.3796 10.3244 12.2547C9.60538 11.4452 8.55169 10.9431 7.47075 10.8945C7.89009 9.74935 8.49623 8.67328 9.25707 7.72077C8.75795 7.37733 8.25786 7.03291 7.75583 6.69141Z" stroke="black" stroke-width="1.5" stroke-linecap="round" stroke-linejoin="round"/>
<path fill-rule="evenodd" clip-rule="evenodd" d="M17.9355 6.69141C16.012 8.07103 14.5837 10.1268 13.963 12.4113C13.5271 14.0128 13.5194 15.8448 14.4758 17.2011C15.3923 18.4999 17.1581 19.1314 18.6895 18.7072C21.4858 17.9337 22.3945 14.3796 20.5041 12.2547C19.7851 11.4452 18.7314 10.9431 17.6504 10.8945C18.0698 9.74935 18.6759 8.67328 19.4368 7.72077C18.9376 7.37733 18.4375 7.03291 17.9355 6.69141Z" stroke="black" stroke-width="1.5" stroke-linecap="round" stroke-linejoin="round"/>
</svg>