<svg width="25" height="25" viewBox="0 0 25 25" fill="none" xmlns="http://www.w3.org/2000/svg">
<path d="M11.2898 3.85172C12.0114 3.32742 12.9886 3.32742 13.7102 3.85172L20.6511 8.89459C21.3728 9.41889 21.6747 10.3482 21.3991 11.1966L18.7479 19.3561C18.4723 20.2044 17.6817 20.7788 16.7897 20.7788H8.21028C7.31829 20.7788 6.52774 20.2044 6.2521 19.3561L3.60091 11.1966C3.32527 10.3482 3.62723 9.41889 4.34887 8.89459L11.2898 3.85172Z" stroke="black" stroke-width="1.5" stroke-linecap="round" stroke-linejoin="round"/>
<path d="M16.0378 10.2641L12.8604 7.97221C12.4326 7.66366 11.8388 7.74039 11.5035 8.14754L9.2335 10.9039C9.10885 11.0553 9.03145 11.24 9.01093 11.435L8.57396 15.5863C8.51266 16.1685 8.96249 16.6787 9.54785 16.6907L14.6546 16.796C15.1518 16.8063 15.581 16.4495 15.6619 15.9588L16.4395 11.2376C16.5012 10.8632 16.3456 10.4861 16.0378 10.2641Z" stroke="black" stroke-width="1.5"/>
<path d="M12.5001 3.79346V12.9974M21.2536 10.1533L12.5001 12.9974M17.9101 20.4436L12.5001 12.9974M7.09013 20.4436L12.5001 12.9974M3.74658 10.1533L12.5001 12.9974" stroke="black" stroke-width="1.5" stroke-linecap="round" stroke-linejoin="round"/>
</svg>