<svg width="25" height="25" viewBox="0 0 25 25" fill="none" xmlns="http://www.w3.org/2000/svg">
<path fill-rule="evenodd" clip-rule="evenodd" d="M10.849 3.24496C11.8335 2.52968 13.1666 2.52968 14.1511 3.24496L21.092 8.28782C22.0765 9.00311 22.4885 10.271 22.1124 11.4283L19.4612 19.5879C19.0852 20.7452 18.0067 21.5288 16.7898 21.5288H8.21033C6.99342 21.5288 5.91491 20.7452 5.53886 19.5879L2.88767 11.4283C2.51162 10.271 2.92358 9.00311 3.90808 8.28782L10.849 3.24496ZM13.2694 4.45848C12.8107 4.12517 12.1894 4.12517 11.7307 4.45848L4.78976 9.50135C4.33099 9.83467 4.13902 10.4255 4.31426 10.9648L6.96545 19.1243C7.14068 19.6636 7.64326 20.0288 8.21033 20.0288H16.7898C17.3568 20.0288 17.8594 19.6636 18.0347 19.1243L20.6858 10.9648C20.8611 10.4255 20.6691 9.83467 20.2103 9.50135L13.2694 4.45848Z" fill="black"/>
<path fill-rule="evenodd" clip-rule="evenodd" d="M10.9244 7.67079C11.5111 6.95828 12.5504 6.824 13.299 7.36397L16.4764 9.65583C17.015 10.0443 17.2873 10.7043 17.1793 11.3595L16.4017 16.0807C16.2603 16.9395 15.5092 17.5638 14.6389 17.5459L9.53222 17.4406C8.50784 17.4195 7.72065 16.5267 7.82791 15.5078L8.26488 11.3565C8.3008 11.0152 8.43625 10.6921 8.65439 10.4272L10.9244 7.67079L11.5033 8.14757L10.9244 7.67079ZM12.4215 8.58052C12.3146 8.50338 12.1661 8.52256 12.0823 8.62435L9.81228 11.3807C9.78112 11.4186 9.76177 11.4648 9.75664 11.5135L9.31967 15.6648C9.30434 15.8104 9.4168 15.9379 9.56314 15.9409L14.6699 16.0462C14.7942 16.0488 14.9015 15.9596 14.9217 15.8369L15.6993 11.1158C15.7147 11.0222 15.6758 10.9279 15.5989 10.8724L12.4215 8.58052Z" fill="black"/>
<path fill-rule="evenodd" clip-rule="evenodd" d="M12.5001 3.04346C12.9143 3.04346 13.2501 3.37924 13.2501 3.79346V11.9652L21.0218 9.43996C21.4157 9.31196 21.8389 9.52755 21.9669 9.92149C22.0949 10.3154 21.8793 10.7386 21.4853 10.8665L13.7136 13.3917L18.5168 20.0028C18.7603 20.3379 18.686 20.8069 18.3509 21.0504C18.0158 21.2939 17.5467 21.2196 17.3033 20.8845L12.5001 14.2734L7.69685 20.8845C7.45338 21.2196 6.98435 21.2939 6.64925 21.0504C6.31414 20.8069 6.23985 20.3379 6.48332 20.0028L11.2865 13.3917L3.51478 10.8665C3.12084 10.7386 2.90525 10.3154 3.03325 9.92149C3.16125 9.52755 3.58436 9.31196 3.9783 9.43996L11.7501 11.9652V3.79346C11.7501 3.37924 12.0858 3.04346 12.5001 3.04346Z" fill="black"/>
</svg>