<svg width="25" height="24" viewBox="0 0 25 24" fill="none" xmlns="http://www.w3.org/2000/svg">
<path d="M17.8892 18.7969H7.1117C4.886 18.7969 3.5 17.2246 3.5 15.0016V9.00038C3.5 6.77648 4.886 5.20508 7.1126 5.20508H17.8892C20.1149 5.20508 21.5 6.77648 21.5 9.00038V15.0016C21.5 17.2246 20.1086 18.7969 17.8892 18.7969Z" stroke="black" stroke-width="1.5" stroke-linecap="round" stroke-linejoin="round"/>
<path d="M17.2895 5.20312L16.3049 7.92113C16.0403 8.66363 15.3428 9.14783 14.5562 9.14783H10.4423C9.65568 9.14783 8.95818 8.66363 8.69358 7.92113L7.70898 5.20312" stroke="black" stroke-width="1.5" stroke-linecap="round" stroke-linejoin="round"/>
<path opacity="0.4" fill-rule="evenodd" clip-rule="evenodd" d="M6.54297 13.4362C6.54297 14.446 7.36197 15.265 8.37177 15.265C9.38157 15.265 10.2006 14.446 10.2006 13.4362C10.2006 12.4264 9.38157 11.6074 8.37177 11.6074C7.36197 11.6074 6.54297 12.4264 6.54297 13.4362Z" stroke="black" stroke-width="1.5" stroke-linecap="round" stroke-linejoin="round"/>
<path opacity="0.4" fill-rule="evenodd" clip-rule="evenodd" d="M14.7988 13.4362C14.7988 14.446 15.6178 15.265 16.6276 15.265C17.6374 15.265 18.4564 14.446 18.4564 13.4362C18.4564 12.4264 17.6374 11.6074 16.6276 11.6074C15.6178 11.6074 14.7988 12.4264 14.7988 13.4362Z" stroke="black" stroke-width="1.5" stroke-linecap="round" stroke-linejoin="round"/>
</svg>