<svg width="25" height="24" viewBox="0 0 25 24" fill="none" xmlns="http://www.w3.org/2000/svg">
<path fill-rule="evenodd" clip-rule="evenodd" d="M13.022 3.3705L12.6143 4L12.2066 3.3705C12.4547 3.20983 12.774 3.20983 13.022 3.3705ZM12.6143 4.91019C12.5666 4.94411 12.5153 4.98096 12.4605 5.02068C12.1016 5.28095 11.5972 5.66335 11.0217 6.14791C9.86853 7.11869 8.45217 8.48048 7.34104 10.074C6.26335 11.7711 6.26718 14.0634 7.22739 15.9563C8.17763 17.8295 10.0345 19.25 12.6143 19.25C15.1941 19.25 17.051 17.8295 18.0012 15.9563C18.9614 14.0634 18.9653 11.7711 17.8876 10.074C16.7765 8.48048 15.3601 7.11869 14.207 6.14791C13.6314 5.66335 13.1271 5.28095 12.7681 5.02068C12.7134 4.98096 12.662 4.94411 12.6143 4.91019ZM12.2066 3.3705C12.2067 3.37041 12.2066 3.3705 12.6143 4C13.022 3.3705 13.0219 3.37041 13.022 3.3705L13.0236 3.37151L13.0264 3.37336L13.036 3.3796L13.0701 3.40211C13.0993 3.42154 13.1414 3.44977 13.1952 3.48649C13.3027 3.55991 13.457 3.66736 13.6487 3.80632C14.0317 4.08408 14.5652 4.48876 15.173 5.00041C16.3836 6.01956 17.9117 7.48222 19.1275 9.22959C19.1331 9.23764 19.1385 9.2458 19.1438 9.25406C20.5578 11.4666 20.5036 14.339 19.339 16.6349C18.1621 18.9549 15.8204 20.75 12.6143 20.75C9.4082 20.75 7.06657 18.9549 5.88967 16.6349C4.72504 14.339 4.67081 11.4666 6.08484 9.25406C6.09012 9.2458 6.09556 9.23764 6.10116 9.22959C7.31696 7.48222 8.84502 6.01956 10.0556 5.00041C10.6634 4.48876 11.1969 4.08408 11.58 3.80632C11.7716 3.66736 11.9259 3.55991 12.0335 3.48649C12.0872 3.44977 12.1293 3.42154 12.1586 3.40211L12.1927 3.3796L12.2022 3.37336L12.2051 3.37151L12.2066 3.3705Z" fill="black"/>
</svg>