<svg width="25" height="24" viewBox="0 0 25 24" fill="none" xmlns="http://www.w3.org/2000/svg">
<path fill-rule="evenodd" clip-rule="evenodd" d="M3.61456 17.0181C4.13635 17.0181 4.65302 17.1208 5.13509 17.3205C5.61716 17.5202 6.05517 17.8129 6.42413 18.1818C6.79309 18.5508 7.08576 18.9888 7.28544 19.4709C7.48512 19.9529 7.58789 20.4696 7.58789 20.9914C7.58789 21.4056 7.92368 21.7414 8.33789 21.7414C8.7521 21.7414 9.08789 21.4056 9.08789 20.9914C9.08789 20.2726 8.94632 19.5609 8.67126 18.8968C8.3962 18.2328 7.99304 17.6294 7.48479 17.1212C6.97654 16.6129 6.37317 16.2098 5.70912 15.9347C5.04506 15.6596 4.33333 15.5181 3.61456 15.5181C3.20035 15.5181 2.86456 15.8539 2.86456 16.2681C2.86456 16.6823 3.20035 17.0181 3.61456 17.0181Z" fill="black"/>
<path fill-rule="evenodd" clip-rule="evenodd" d="M3.6139 12.9634C4.66811 12.9634 5.712 13.171 6.68597 13.5745C7.65993 13.9779 8.5449 14.5692 9.29034 15.3146C10.0358 16.0601 10.6271 16.945 11.0305 17.919C11.434 18.893 11.6416 19.9369 11.6416 20.9911C11.6416 21.4053 11.9774 21.7411 12.3916 21.7411C12.8058 21.7411 13.1416 21.4053 13.1416 20.9911C13.1416 19.7399 12.8952 18.5009 12.4163 17.345C11.9375 16.189 11.2357 15.1387 10.351 14.254C9.46627 13.3692 8.41595 12.6674 7.25999 12.1886C6.10404 11.7098 4.8651 11.4634 3.6139 11.4634C3.19969 11.4634 2.8639 11.7992 2.8639 12.2134C2.8639 12.6276 3.19969 12.9634 3.6139 12.9634Z" fill="black"/>
<path fill-rule="evenodd" clip-rule="evenodd" d="M3.6139 8.91016C5.20046 8.91016 6.77147 9.22265 8.23726 9.8298C9.70304 10.4369 11.0349 11.3269 12.1568 12.4487C13.2786 13.5706 14.1685 14.9024 14.7757 16.3682C15.3828 17.834 15.6953 19.405 15.6953 20.9916C15.6953 21.4058 16.0311 21.7416 16.4453 21.7416C16.8595 21.7416 17.1953 21.4058 17.1953 20.9916C17.1953 19.208 16.844 17.442 16.1615 15.7942C15.479 14.1464 14.4786 12.6492 13.2174 11.3881C11.9563 10.1269 10.4591 9.12651 8.81128 8.44398C7.16351 7.76145 5.39744 7.41016 3.6139 7.41016C3.19969 7.41016 2.8639 7.74594 2.8639 8.16016C2.8639 8.57437 3.19969 8.91016 3.6139 8.91016Z" fill="black"/>
<path fill-rule="evenodd" clip-rule="evenodd" d="M14.0729 3.7583C17.8237 3.7583 20.8643 6.7989 20.8643 10.5497C20.8643 13.6641 18.7673 16.2906 15.9068 17.0907C15.5079 17.2023 15.275 17.6161 15.3865 18.015C15.4981 18.4139 15.9119 18.6469 16.3109 18.5353C19.8023 17.5587 22.3643 14.3543 22.3643 10.5497C22.3643 5.97047 18.6521 2.2583 14.0729 2.2583C10.2505 2.2583 7.03394 4.84424 6.07371 8.3608C5.9646 8.76038 6.20007 9.17276 6.59966 9.28187C6.99924 9.39098 7.41162 9.15551 7.52073 8.75592C8.30739 5.875 10.9439 3.7583 14.0729 3.7583Z" fill="black"/>
</svg>