<svg width="25" height="24" viewBox="0 0 25 24" fill="none" xmlns="http://www.w3.org/2000/svg">
<path d="M12.2481 12.2725C11.295 12.2725 10.381 12.6504 9.70724 13.3241C9.03351 13.9989 8.65454 14.9129 8.65454 15.866V17.9026" stroke="black" stroke-width="1.5" stroke-linecap="round" stroke-linejoin="round"/>
<path d="M15.8427 17.9027V15.8661C15.8427 14.913 15.4638 13.999 14.79 13.3242" stroke="black" stroke-width="1.5" stroke-linecap="round" stroke-linejoin="round"/>
<path d="M18.7702 17.9044V15.687C18.7702 13.9586 18.0831 12.2989 16.8609 11.0767C15.6378 9.85456 13.9791 9.16748 12.2496 9.16748C11.5712 9.16748 10.9038 9.2732 10.2694 9.47546" stroke="black" stroke-width="1.5" stroke-linecap="round" stroke-linejoin="round"/>
<path d="M7.63976 11.0781C6.41657 12.3003 5.72949 13.96 5.72949 15.6884V17.9058" stroke="black" stroke-width="1.5" stroke-linecap="round" stroke-linejoin="round"/>
<path d="M2.75 17.9034V15.5957C2.75 13.0764 3.75032 10.6598 5.53222 8.87895C7.31411 7.09705 9.7307 6.0957 12.25 6.0957C13.5232 6.0957 14.7703 6.35147 15.9224 6.83451" stroke="black" stroke-width="1.5" stroke-linecap="round" stroke-linejoin="round"/>
<path d="M21.75 17.9034V15.5957C21.75 13.0764 20.7486 10.6598 18.9678 8.87891" stroke="black" stroke-width="1.5" stroke-linecap="round" stroke-linejoin="round"/>
</svg>