<svg width="25" height="24" viewBox="0 0 25 24" fill="none" xmlns="http://www.w3.org/2000/svg">
<path d="M14.127 17.6161C13.7191 18.6746 12.7674 19.3731 11.7174 19.5908C9.94022 19.9592 7.92199 18.6391 7.73754 16.408C7.32523 11.3135 13.1971 8.23291 13.1971 8.23291C13.1971 8.23291 12.9577 10.6934 13.4776 13.1648C13.7852 14.6276 14.7107 16.1012 14.127 17.6161Z" stroke="black" stroke-width="1.5" stroke-linecap="round" stroke-linejoin="round"/>
<path d="M5.58275 9.64948C4.73289 9.67532 3.97367 9.22077 3.5181 8.55855C2.74699 7.43768 3.07253 5.65953 4.56053 4.88362C7.9607 3.11808 11.7958 6.27991 11.7958 6.27991C11.7958 6.27991 10.0261 6.82959 8.4696 7.90706C7.54835 8.54479 6.79917 9.61249 5.58275 9.64948Z" stroke="black" stroke-width="1.5" stroke-linecap="round" stroke-linejoin="round"/>
<path d="M20.7353 10.3953C21.1421 10.9159 21.2062 11.6004 21.0007 12.1902C20.6528 13.1884 19.3891 13.8016 18.2192 13.2259C15.5505 11.907 15.769 8.05127 15.769 8.05127C15.769 8.05127 16.9266 8.90739 18.317 9.38739C19.1399 9.6715 20.1531 9.65019 20.7353 10.3953Z" stroke="black" stroke-width="1.5" stroke-linecap="round" stroke-linejoin="round"/>
</svg>