<svg width="24" height="24" viewBox="0 0 24 24" fill="none" xmlns="http://www.w3.org/2000/svg">
<path d="M9.17637 14.6445H4.94301C4.16172 14.6445 3.52832 15.2779 3.52832 16.0592V19.5852C3.52832 20.3636 4.16464 20.9999 4.94301 20.9999H19.0578C19.8361 20.9999 20.4725 20.3636 20.4725 19.5852V17.9419C20.4725 17.1606 19.8391 16.5272 19.0578 16.5272H14.8244" stroke="black" stroke-width="1.5" stroke-linecap="round" stroke-linejoin="round"/>
<path fill-rule="evenodd" clip-rule="evenodd" d="M12.3887 3.2372L13.0357 4.53124C13.0999 4.6587 13.2225 4.74627 13.3646 4.7667L14.8133 4.97492C15.0478 5.00605 15.2132 5.22108 15.1821 5.45653C15.1694 5.55188 15.1247 5.6414 15.0546 5.70853L14.0067 6.71555C13.9036 6.81284 13.8569 6.95587 13.8812 7.09597L14.1293 8.51747C14.1673 8.75488 14.0057 8.97768 13.7683 9.01563C13.6759 9.0312 13.5796 9.01466 13.4959 8.97087L12.2019 8.3005C12.0744 8.23434 11.9236 8.23434 11.7961 8.3005L10.5011 8.97185C10.289 9.08374 10.0254 9.00298 9.91347 8.79087C9.86871 8.7072 9.85314 8.61088 9.86774 8.51747L10.1158 7.09695C10.1402 6.95684 10.0935 6.81381 9.99033 6.71555L8.94148 5.7095C8.77121 5.54507 8.76635 5.27362 8.93078 5.10237C8.99791 5.03329 9.08742 4.98756 9.18277 4.97492L10.6315 4.7667C10.7736 4.74724 10.8962 4.6587 10.9604 4.53124L11.6093 3.2372C11.7203 3.02218 11.9859 2.93753 12.2009 3.04942C12.2817 3.09126 12.3468 3.15645 12.3887 3.2372Z" stroke="black" stroke-width="1.5" stroke-linecap="round" stroke-linejoin="round"/>
<path d="M14.8238 20.9994V13.0006C14.8238 12.2193 14.1904 11.5859 13.4091 11.5859H10.5905C9.8121 11.5859 9.17578 12.2223 9.17578 13.0006V20.9994" stroke="black" stroke-width="1.5" stroke-linecap="round" stroke-linejoin="round"/>
</svg>