<svg width="24" height="24" viewBox="0 0 24 24" fill="none" xmlns="http://www.w3.org/2000/svg">
<path d="M6.97726 9.09766C4.57821 9.72632 3 10.7925 3 12.0021C3 13.9351 7.02944 15.5021 12 15.5021C12.6778 15.5021 13.3357 15.4706 13.9707 15.4153" stroke="black" stroke-width="1.5" stroke-linecap="round" stroke-linejoin="round"/>
<path d="M10.0288 15.4111C9.6635 14.8888 9.30723 14.3348 8.96836 13.7479C6.48306 9.44321 5.8254 5.17007 7.49942 4.20356C8.54618 3.5992 10.2568 4.43105 11.9994 6.19162" stroke="black" stroke-width="1.5" stroke-linecap="round" stroke-linejoin="round"/>
<path d="M6.972 14.9031C6.3186 17.2925 6.45354 19.1898 7.50032 19.7942C9.17434 20.7608 12.5462 18.0547 15.0314 13.75C15.3704 13.163 15.6719 12.5775 15.9416 12" stroke="black" stroke-width="1.5" stroke-linecap="round" stroke-linejoin="round"/>
<path d="M12 17.8054C13.7426 19.566 15.4533 20.3977 16.5 19.7934C18.174 18.8269 17.5164 14.5538 15.0311 10.2492C14.6922 9.66217 14.3359 9.10821 13.9707 8.58594" stroke="black" stroke-width="1.5" stroke-linecap="round" stroke-linejoin="round"/>
<path d="M17.0283 14.9031C19.4243 14.2743 21 13.2087 21 12C21 10.067 16.9705 8.5 11.9999 8.5C11.3222 8.5 10.6642 8.53156 10.0293 8.5868" stroke="black" stroke-width="1.5" stroke-linecap="round" stroke-linejoin="round"/>
<path d="M8.05859 11.9979C8.32825 11.4204 8.62983 10.8349 8.96876 10.2479C11.454 5.94322 14.8258 3.23706 16.4999 4.20359C17.5466 4.80797 17.6816 6.70536 17.0282 9.09479" stroke="black" stroke-width="1.5" stroke-linecap="round" stroke-linejoin="round"/>
<path d="M12.0009 11.9899V12.04M12.2036 12.0007C12.2036 12.1133 12.1122 12.2045 11.9997 12.2045C11.8871 12.2045 11.7959 12.1133 11.7959 12.0007C11.7959 11.8881 11.8871 11.7969 11.9997 11.7969C12.1122 11.7969 12.2036 11.8881 12.2036 12.0007Z" stroke="black" stroke-width="1.5" stroke-linecap="round" stroke-linejoin="round"/>
</svg>