<svg width="25" height="24" viewBox="0 0 25 24" fill="none" xmlns="http://www.w3.org/2000/svg">
<path d="M19.7702 11.2742V6.98335C19.7702 4.52368 18.4324 3 15.9708 3H8.56255C6.10774 3 4.73974 4.52368 4.73974 6.98335L4.7373 10.0927" stroke="black" stroke-width="1.5" stroke-linecap="round" stroke-linejoin="round"/>
<path d="M10.8884 20.9991L8.71382 20.1107C8.24095 19.9181 7.70874 19.9337 7.24852 20.1536L6.47695 20.5223C5.66647 20.9105 4.72852 20.319 4.72949 19.4199L4.73436 13.2012" stroke="black" stroke-width="1.5" stroke-linecap="round" stroke-linejoin="round"/>
<path d="M18.7511 19.4999L20.1431 20.8899M16.5828 14.9844C18.0695 14.9844 19.2741 16.1899 19.2741 17.6766C19.2741 19.1623 18.0695 20.3678 16.5828 20.3678C15.0961 20.3678 13.8906 19.1623 13.8906 17.6766C13.8906 16.1899 15.0961 14.9844 16.5828 14.9844Z" stroke="black" stroke-width="1.5" stroke-linecap="round" stroke-linejoin="round"/>
<path d="M14.3557 9.00781H9.38672M11.8726 12.8679H9.38862" stroke="black" stroke-width="1.5" stroke-linecap="round" stroke-linejoin="round"/>
</svg>