<svg width="25" height="24" viewBox="0 0 25 24" fill="none" xmlns="http://www.w3.org/2000/svg">
<path d="M6.11328 20.424C7.55134 20.424 8.71696 19.2583 8.71696 17.8203V9.58309M8.71837 9.5833V5.27595C8.71837 4.45476 9.51232 3.90698 10.2012 4.26016L10.854 4.6046C11.2423 4.80795 11.6927 4.81671 12.0985 4.63962L13.9442 3.81941C14.6944 3.49249 15.5243 3.49249 16.2745 3.81941L18.1192 4.63962C18.5259 4.81671 18.9755 4.80795 19.3646 4.6046L20.0175 4.26016C20.7064 3.90698 21.5003 4.446 21.5003 5.27595L21.4916 10.4512" stroke="black" stroke-width="1.5" stroke-linecap="round" stroke-linejoin="round"/>
<path opacity="0.4" d="M6.11296 20.424C5.38907 20.424 4.73665 20.1333 4.26865 19.6653C3.79189 19.1885 3.5 18.5356 3.5 17.8205V10.5728C3.5 9.74192 4.29492 9.20386 4.98378 9.55705L5.63665 9.90148C6.02487 10.1048 6.47535 10.1136 6.88108 9.93651L8.12649 9.38094C8.22281 9.33619 8.46995 9.451 8.71805 9.58332" stroke="black" stroke-width="1.5" stroke-linecap="round" stroke-linejoin="round"/>
<path d="M11.9511 20.4238H6.11328" stroke="black" stroke-width="1.5" stroke-linecap="round" stroke-linejoin="round"/>
<path opacity="0.4" d="M12.6836 13.2876H15.0752M12.6836 9.1582H17.3675" stroke="black" stroke-width="1.5" stroke-linecap="round" stroke-linejoin="round"/>
<path fill-rule="evenodd" clip-rule="evenodd" d="M17.0669 20.2772L16.2642 20.4115C15.6766 20.5097 15.158 20.0203 15.2222 19.4278L15.3117 18.5998C15.3545 18.1999 15.5219 17.8243 15.7904 17.5247L18.8504 14.1446C19.2639 13.698 19.9606 13.6707 20.4072 14.0842L21.1457 14.7673C21.5922 15.1808 21.6185 15.8784 21.205 16.325L18.1839 19.6613C17.892 19.9882 17.498 20.2052 17.0669 20.2772Z" stroke="black" stroke-width="1.5" stroke-linecap="round" stroke-linejoin="round"/>
</svg>