<svg width="25" height="24" viewBox="0 0 25 24" fill="none" xmlns="http://www.w3.org/2000/svg">
<path d="M11.1538 21.2832C10.9971 21.668 10.5596 21.8516 10.1758 21.6934L8.00146 20.8066C7.72461 20.6934 7.4126 20.7012 7.1416 20.8301L6.37207 21.1992C5.06299 21.8262 3.5498 20.8711 3.5498 19.4199L3.56055 6.98242C3.56055 5.61914 3.94141 4.41992 4.75537 3.55469C5.09814 3.19141 5.50244 2.9043 5.9585 2.69336C6.59277 2.39844 7.32666 2.25 8.1333 2.25H15.5415C16.9307 2.25 18.0981 2.68555 18.9126 3.55859C19.7197 4.42383 20.0908 5.62305 20.0908 6.98242V11.2734C20.0908 11.6875 19.7549 12.0234 19.3408 12.0234C18.9263 12.0234 18.5908 11.6875 18.5908 11.2734V6.98242C18.5908 5.88477 18.293 5.0918 17.8159 4.58008C17.3457 4.07617 16.6133 3.75 15.5415 3.75H8.1333C7.06494 3.75 6.32471 4.07617 5.84717 4.58398C5.65674 4.78711 5.49414 5.0332 5.36719 5.32422C5.17188 5.76953 5.06055 6.32031 5.06055 6.98438L5.0498 19.4219C5.0498 19.7695 5.4126 19.9961 5.72461 19.8457L6.49512 19.4785L6.49609 19.4766C7.14746 19.166 7.89941 19.1445 8.56885 19.418L10.7432 20.3047C11.1265 20.4629 11.3105 20.9004 11.1538 21.2832Z" fill="black"/>
<path d="M14.6763 9.00781C14.6763 9.42188 14.3408 9.75781 13.9263 9.75781H8.95752C8.54297 9.75781 8.20752 9.42188 8.20752 9.00781C8.20752 8.59375 8.54297 8.25781 8.95752 8.25781H13.9263C14.3408 8.25781 14.6763 8.59375 14.6763 9.00781Z" fill="black"/>
<path d="M11.7129 12.8672C11.7129 13.2812 11.377 13.6172 10.9629 13.6172H8.95752C8.54297 13.6172 8.20752 13.2812 8.20752 12.8672C8.20752 12.6699 8.28418 12.4902 8.41016 12.3555C8.54688 12.209 8.74121 12.1172 8.95752 12.1172H10.9629C11.377 12.1172 11.7129 12.4531 11.7129 12.8672Z" fill="black"/>
<path d="M18.2583 18.6328C18.0459 18.9883 17.5854 19.1055 17.23 18.8926L16.0547 18.1914C15.8276 18.0566 15.689 17.8125 15.689 17.5488V16.0371C15.689 15.8105 15.7891 15.6074 15.9473 15.4707C16.0791 15.3555 16.251 15.2871 16.439 15.2871C16.853 15.2871 17.189 15.6211 17.189 16.0371V17.123L17.9985 17.6055C18.3545 17.8164 18.4707 18.2773 18.2583 18.6328Z" fill="black"/>
<path fill-rule="evenodd" clip-rule="evenodd" d="M20.9272 17.2832C20.9272 19.748 18.9277 21.75 16.4604 21.75C13.9941 21.75 11.9946 19.748 11.9946 17.2832C11.9946 14.8164 13.9941 12.8164 16.4604 12.8164C18.9277 12.8164 20.9272 14.8164 20.9272 17.2832ZM16.4604 20.25C18.0991 20.25 19.4272 18.9219 19.4272 17.2832C19.4272 15.6445 18.0991 14.3164 16.4604 14.3164C14.8232 14.3164 13.4946 15.6445 13.4946 17.2832C13.4946 18.9219 14.8232 20.25 16.4604 20.25Z" fill="black"/>
</svg>