<svg width="24" height="24" viewBox="0 0 24 24" fill="none" xmlns="http://www.w3.org/2000/svg">
<path fill-rule="evenodd" clip-rule="evenodd" d="M12.9707 8.8291H8.11475C7.70075 8.8291 7.36475 8.4931 7.36475 8.0791C7.36475 7.6651 7.70075 7.3291 8.11475 7.3291H12.9707C13.3847 7.3291 13.7207 7.6651 13.7207 8.0791C13.7207 8.4931 13.3847 8.8291 12.9707 8.8291ZM11.3517 12.6011H8.11475C7.70075 12.6011 7.36475 12.2661 7.36475 11.8511C7.36475 11.4371 7.70075 11.1011 8.11475 11.1011H11.3517C11.7657 11.1011 12.1017 11.4371 12.1017 11.8511C12.1017 12.2661 11.7657 12.6011 11.3517 12.6011Z" fill="black"/>
<path opacity="0.4" d="M11.3604 20.9971C10.8384 20.9971 10.3174 20.8961 9.82039 20.6931L7.67839 19.8181C7.34339 19.6811 6.96439 19.6931 6.63839 19.8481L5.88039 20.2121C5.34939 20.4661 4.73439 20.4331 4.23639 20.1171C3.73839 19.8031 3.44139 19.2631 3.44239 18.6731L3.45239 6.42012C3.45239 3.69112 5.08639 1.99512 7.71739 1.99512H15.0174C17.6734 1.99512 19.2594 3.65012 19.2594 6.42012L19.2691 13.0369C19.2696 13.3632 18.8939 13.5602 18.6035 13.4114C17.896 13.0489 17.095 12.8442 16.2471 12.8442C13.3841 12.8442 11.0551 15.1772 11.0551 18.0442C11.0551 18.9109 11.2685 19.7285 11.6455 20.4474C11.7725 20.6895 11.6338 20.9971 11.3604 20.9971Z" fill="black"/>
<path fill-rule="evenodd" clip-rule="evenodd" d="M16.2467 16.0947C15.1757 16.0947 14.3047 16.9697 14.3047 18.0447C14.3047 19.1157 15.1757 19.9857 16.2467 19.9857C17.3167 19.9857 18.1877 19.1157 18.1877 18.0447C18.1877 16.9697 17.3167 16.0947 16.2467 16.0947ZM19.8077 22.0047C19.6157 22.0047 19.4237 21.9317 19.2777 21.7857L18.2967 20.8067C17.7237 21.2327 17.0147 21.4857 16.2467 21.4857C14.3487 21.4857 12.8047 19.9427 12.8047 18.0447C12.8047 16.1427 14.3487 14.5947 16.2467 14.5947C18.1437 14.5947 19.6877 16.1427 19.6877 18.0447C19.6877 18.6317 19.5397 19.1847 19.2797 19.6687L20.3367 20.7237C20.6307 21.0167 20.6307 21.4907 20.3377 21.7847C20.1917 21.9317 19.9997 22.0047 19.8077 22.0047Z" fill="black"/>
</svg>