<svg width="25" height="24" viewBox="0 0 25 24" fill="none" xmlns="http://www.w3.org/2000/svg">
<path fill-rule="evenodd" clip-rule="evenodd" d="M12.1482 5.32703L13.9958 4.50596C14.5535 4.26366 15.1645 4.26365 15.7221 4.50593L17.5642 5.32497L17.5695 5.32728C18.1743 5.59062 18.8621 5.5826 19.4616 5.26934L19.4643 5.26795L20.1121 4.92618C20.1927 4.88588 20.2697 4.89306 20.344 4.94375C20.423 4.99772 20.5 5.10777 20.5 5.27596L20.4912 10.4499C20.4905 10.8641 20.8258 11.2005 21.24 11.2012C21.6542 11.2019 21.9905 10.8667 21.9912 10.4525L22 5.27723V5.27596C22 3.98375 20.698 2.94005 19.425 3.59274L18.767 3.93987L18.7659 3.94044C18.5879 4.03303 18.378 4.04256 18.1705 3.95295L16.3289 3.13408L16.3238 3.13187C15.3826 2.72168 14.3355 2.72166 13.3943 3.13185L11.5462 3.9531C11.3398 4.04254 11.1285 4.0325 10.9517 3.94023L10.3009 3.59678L10.293 3.59278C9.01572 2.93788 7.71805 3.99768 7.71805 5.27596V8.64583C7.66972 8.65749 7.61939 8.67407 7.56832 8.69716L6.32874 9.25013C6.12245 9.3394 5.9113 9.32934 5.73465 9.2371L5.08377 8.89365L5.07596 8.88965C3.8041 8.23755 2.5 9.27828 2.5 10.5728V17.8205C2.5 18.744 2.87776 19.585 3.48832 20.1956C4.09297 20.8002 4.93457 21.174 5.86296 21.174H11.7008C12.115 21.174 12.4508 20.8382 12.4508 20.424C12.4508 20.0097 12.115 19.674 11.7008 19.674H8.65827C9.01109 19.143 9.21664 18.5056 9.21664 17.8203V9.62941C9.21758 9.61412 9.21805 9.59875 9.21805 9.58331V5.27596C9.21805 5.11404 9.29352 5.00237 9.37572 4.94592C9.45233 4.89331 9.5286 4.88755 9.60598 4.9262L10.2538 5.26795L10.2557 5.26898C10.8547 5.58273 11.544 5.59071 12.1482 5.32703ZM6.9311 10.6239L7.71664 10.2735V17.8203C7.71664 18.8441 6.88681 19.674 5.86296 19.674C5.34357 19.674 4.88033 19.4663 4.54898 19.1349C4.20603 18.792 4 18.3272 4 17.8205V10.5728C4 10.4042 4.07707 10.2944 4.1561 10.2405C4.23048 10.1898 4.30794 10.1826 4.38887 10.223L5.03669 10.5648L5.03864 10.5658C5.63762 10.8796 6.32696 10.8876 6.9311 10.6239Z" fill="black"/>
<path d="M12.4343 8.40837C12.0201 8.40837 11.6843 8.74416 11.6843 9.15837C11.6843 9.57258 12.0201 9.90837 12.4343 9.90837H17.1182C17.5324 9.90837 17.8682 9.57258 17.8682 9.15837C17.8682 8.74416 17.5324 8.40837 17.1182 8.40837H12.4343Z" fill="black"/>
<path d="M12.4343 12.5378C12.0201 12.5378 11.6843 12.8736 11.6843 13.2878C11.6843 13.702 12.0201 14.0378 12.4343 14.0378H14.8259C15.2401 14.0378 15.5759 13.702 15.5759 13.2878C15.5759 12.8736 15.2401 12.5378 14.8259 12.5378H12.4343Z" fill="black"/>
<path fill-rule="evenodd" clip-rule="evenodd" d="M18.0508 13.6354C18.7453 12.8853 19.9165 12.839 20.6674 13.5343L21.4059 14.2173C22.1558 14.9117 22.2003 16.0814 21.5091 16.8315L18.4941 20.1612L18.4921 20.1633C18.0867 20.6164 17.5397 20.9174 16.9412 21.0173L16.1386 21.1516C15.061 21.3318 14.1096 20.4337 14.2272 19.3474L14.3167 18.5196C14.3765 17.9632 14.6094 17.4409 14.9825 17.0245L14.9851 17.0217L18.0508 13.6354ZM18.9331 14.8957L19.1535 14.6523C19.2162 14.5857 19.2986 14.549 19.383 14.5426C19.4772 14.5354 19.574 14.5661 19.6486 14.6352L20.3871 15.3182C20.5289 15.4499 20.5378 15.6727 20.4053 15.8158L17.3787 19.1583L17.3752 19.1622C17.197 19.3618 16.9565 19.494 16.6939 19.5379L15.8912 19.6721C15.7936 19.6884 15.7078 19.6074 15.7185 19.5088L15.8081 18.68C15.8341 18.4374 15.9354 18.2094 16.0985 18.0268L16.0996 18.0256L18.9331 14.8957Z" fill="black"/>
</svg>