<svg width="24" height="24" viewBox="0 0 24 24" fill="none" xmlns="http://www.w3.org/2000/svg">
<path fill-rule="evenodd" clip-rule="evenodd" d="M13.0052 8.81055H8.03516C7.62116 8.81055 7.28516 8.47455 7.28516 8.06055C7.28516 7.64655 7.62116 7.31055 8.03516 7.31055H13.0052C13.4192 7.31055 13.7552 7.64655 13.7552 8.06055C13.7552 8.47455 13.4192 8.81055 13.0052 8.81055ZM11.3482 12.6705H8.03516C7.62116 12.6705 7.28516 12.3345 7.28516 11.9205C7.28516 11.5065 7.62116 11.1705 8.03516 11.1705H11.3482C11.7622 11.1705 12.0982 11.5065 12.0982 11.9205C12.0982 12.3345 11.7622 12.6705 11.3482 12.6705Z" fill="black"/>
<path opacity="0.4" d="M11.7871 21.2134C11.2661 21.2134 10.7451 21.1114 10.2481 20.9094L8.10514 20.0344C7.77114 19.8984 7.39314 19.9084 7.06614 20.0644L6.30714 20.4274C5.77714 20.6814 5.16414 20.6474 4.66414 20.3334C4.16514 20.0194 3.86814 19.4794 3.86914 18.8884L3.87914 6.63543C3.87914 3.90643 5.51414 2.21143 8.14514 2.21143H15.4441C18.1011 2.21143 19.6871 3.86543 19.6871 6.63543L19.697 13.3706C19.6974 13.6384 19.3735 13.7725 19.1845 13.5828L18.8104 13.2072C18.3534 12.7092 17.6974 12.3972 16.9684 12.3972H16.9654C16.3004 12.3972 15.6624 12.6622 15.1944 13.1342L12.7794 15.5592C11.8044 16.5382 11.8084 18.1212 12.7864 19.0952C13.1794 19.4857 13.6701 19.7197 14.1794 19.7959C14.3395 19.8199 14.4684 19.9507 14.4684 20.1125V20.242C14.4684 20.364 14.3945 20.4738 14.2816 20.5198L13.3261 20.9094C12.8291 21.1114 12.3081 21.2134 11.7871 21.2134Z" fill="black"/>
<path fill-rule="evenodd" clip-rule="evenodd" d="M16.9685 21.7885C16.5545 21.7885 16.2185 21.4525 16.2185 21.0385V16.7115L15.0815 17.8525C14.7895 18.1475 14.3155 18.1455 14.0215 17.8545C13.7285 17.5625 13.7265 17.0885 14.0195 16.7945L16.4345 14.3685C16.5745 14.2265 16.7665 14.1475 16.9655 14.1475H16.9675H16.9685C17.1965 14.1475 17.4005 14.2495 17.5375 14.4095L19.9125 16.7945C20.2045 17.0885 20.2035 17.5625 19.9105 17.8545C19.6165 18.1455 19.1425 18.1475 18.8505 17.8525L17.7185 16.7165V21.0385C17.7185 21.4525 17.3825 21.7885 16.9685 21.7885" fill="black"/>
</svg>