<svg width="24" height="24" viewBox="0 0 24 24" fill="none" xmlns="http://www.w3.org/2000/svg">
<path d="M10.2213 20.9997L8.04675 20.1114C7.57389 19.9187 7.04168 19.9343 6.5805 20.1542L5.80992 20.5229C4.99945 20.9111 4.06152 20.3196 4.06152 19.4206L4.07223 6.98328C4.07223 4.52365 5.4402 3 7.89496 3H15.303C17.7646 3 19.1024 4.52365 19.1024 6.98328V11.274" stroke="black" stroke-width="1.5" stroke-linecap="round" stroke-linejoin="round"/>
<path d="M13.6896 9.00781H8.7207M10.726 12.8673H8.7207" stroke="black" stroke-width="1.5" stroke-linecap="round" stroke-linejoin="round"/>
<path d="M16.2235 20.9998C18.2765 20.9998 19.9402 19.3351 19.9402 17.2831C19.9402 15.2311 18.2765 13.5664 16.2235 13.5664C14.1716 13.5664 12.5078 15.2311 12.5078 17.2831C12.5078 19.3351 14.1716 20.9998 16.2235 20.9998Z" stroke="black" stroke-width="1.5" stroke-linecap="round" stroke-linejoin="round"/>
<path d="M17.3765 18.2496L16.2012 17.5481V16.0371" stroke="black" stroke-width="1.5" stroke-linecap="round" stroke-linejoin="round"/>
</svg>