<svg width="24" height="24" viewBox="0 0 24 24" fill="none" xmlns="http://www.w3.org/2000/svg">
<path fill-rule="evenodd" clip-rule="evenodd" d="M12.001 10.0483C10.926 10.0483 10.051 10.9233 10.051 11.9983C10.051 13.0733 10.926 13.9483 12.001 13.9483C13.076 13.9483 13.951 13.0733 13.951 11.9983C13.951 10.9233 13.076 10.0483 12.001 10.0483Z" fill="black"/>
<path fill-rule="evenodd" clip-rule="evenodd" d="M12.001 15.4485C10.099 15.4485 8.551 13.9005 8.551 11.9985C8.551 10.0955 10.099 8.54849 12.001 8.54849C13.903 8.54849 15.451 10.0955 15.451 11.9985C15.451 13.9005 13.903 15.4485 12.001 15.4485ZM12 2.50049C6.762 2.50049 2.5 6.76149 2.5 11.9995C2.5 17.2375 6.762 21.4995 12 21.4995C17.238 21.4995 21.5 17.2375 21.5 11.9995C21.5 6.76149 17.238 2.50049 12 2.50049Z" fill="black"/>
</svg>