<svg width="25" height="24" viewBox="0 0 25 24" fill="none" xmlns="http://www.w3.org/2000/svg">
<path opacity="0.4" fill-rule="evenodd" clip-rule="evenodd" d="M12.5701 2.50049C7.33207 2.50049 3.07007 6.76149 3.07007 11.9995C3.07007 17.2375 7.33207 21.4995 12.5701 21.4995C17.8081 21.4995 22.0701 17.2375 22.0701 11.9995C22.0701 6.76149 17.8081 2.50049 12.5701 2.50049Z" fill="black"/>
<path fill-rule="evenodd" clip-rule="evenodd" d="M12.5711 15.4483C10.6691 15.4483 9.12109 13.9003 9.12109 11.9983C9.12109 10.0953 10.6691 8.54834 12.5711 8.54834C14.4731 8.54834 16.0211 10.0953 16.0211 11.9983C16.0211 13.9003 14.4731 15.4483 12.5711 15.4483ZM10.6211 11.9982C10.6211 10.9232 11.4961 10.0482 12.5711 10.0482C13.6461 10.0482 14.5211 10.9232 14.5211 11.9982C14.5211 13.0732 13.6461 13.9482 12.5711 13.9482C11.4961 13.9482 10.6211 13.0732 10.6211 11.9982Z" fill="black"/>
</svg>