<svg width="25" height="24" viewBox="0 0 25 24" fill="none" xmlns="http://www.w3.org/2000/svg">
<path fill-rule="evenodd" clip-rule="evenodd" d="M23.0972 7.06413C22.4712 6.30213 21.3402 6.19113 20.5772 6.81513L19.3509 7.81907C19.0935 8.02979 18.9751 8.35331 18.9913 8.68555C18.9931 8.72365 18.9942 8.76213 18.9942 8.80113V15.2021C18.9942 15.2435 18.993 15.2842 18.991 15.3245C18.9743 15.6557 19.0926 15.9782 19.3488 16.1888L20.5632 17.1871C20.8792 17.4481 21.2822 17.5911 21.6972 17.5911C22.6832 17.5911 23.4882 16.7891 23.4912 15.8021L23.5032 8.20413C23.5042 7.78913 23.3612 7.38313 23.0972 7.06413Z" fill="black"/>
<path fill-rule="evenodd" clip-rule="evenodd" d="M11.6061 11.9995C11.6061 12.9595 10.8261 13.7395 9.87611 13.7395C8.91611 13.7395 8.13611 12.9595 8.13611 11.9995C8.13611 11.0395 8.91611 10.2695 9.87611 10.2695C10.8261 10.2695 11.6061 11.0395 11.6061 11.9995Z" fill="black"/>
<path fill-rule="evenodd" clip-rule="evenodd" d="M9.87602 15.24C8.08602 15.24 6.63602 13.78 6.63602 12C6.63602 10.22 8.08602 8.77 9.87602 8.77C11.656 8.77 13.106 10.22 13.106 12C13.106 13.78 11.656 15.24 9.87602 15.24ZM13.306 4.25H6.51602C3.91602 4.25 2.16602 6.08 2.16602 8.8V15.2C2.16602 17.92 3.91602 19.75 6.51602 19.75H13.306C15.906 19.75 17.656 17.92 17.656 15.2V8.8C17.656 6.08 15.906 4.25 13.306 4.25Z" fill="black"/>
</svg>