<svg width="24" height="24" viewBox="0 0 24 24" fill="none" xmlns="http://www.w3.org/2000/svg">
<path fill-rule="evenodd" clip-rule="evenodd" d="M2.25195 11.6317C2.25195 9.95105 3.63331 8.60938 5.31158 8.60938C6.16449 8.60938 6.93828 8.95484 7.49421 9.51376C8.82009 8.93613 10.3624 8.60938 11.9996 8.60938C13.6368 8.60938 15.179 8.93613 16.5049 9.51375C17.0608 8.95484 17.8346 8.60938 18.6875 8.60938C20.3658 8.60938 21.7471 9.95105 21.7471 11.6317C21.7471 12.5434 21.3389 13.3566 20.6996 13.9085C20.8072 14.3192 20.864 14.7447 20.864 15.1805C20.864 17.0916 19.7828 18.7523 18.1745 19.9061C16.5649 21.0608 14.3793 21.7517 11.9996 21.7517C9.61984 21.7517 7.43428 21.0608 5.82467 19.9061C4.21631 18.7523 3.1352 17.0916 3.1352 15.1805C3.1352 14.7447 3.19197 14.3193 3.29958 13.9085C2.66021 13.3567 2.25195 12.5434 2.25195 11.6317ZM5.31158 10.1094C4.43863 10.1094 3.75195 10.8024 3.75195 11.6317C3.75195 12.195 4.06599 12.6932 4.54501 12.9579C4.87359 13.1395 5.01731 13.536 4.88137 13.8859C4.71995 14.3015 4.6352 14.7348 4.6352 15.1805C4.6352 16.4844 5.37056 17.7343 6.69903 18.6873C8.02624 19.6394 9.89787 20.2517 11.9996 20.2517C14.1013 20.2517 15.9729 19.6394 17.3001 18.6873C18.6286 17.7343 19.364 16.4844 19.364 15.1805C19.364 14.7348 19.2792 14.3014 19.1178 13.8859C18.9818 13.536 19.1256 13.1395 19.4541 12.9579C19.9331 12.6932 20.2471 12.195 20.2471 11.6317C20.2471 10.8024 19.5605 10.1094 18.6875 10.1094C18.1201 10.1094 17.6272 10.4041 17.3543 10.8413C17.1478 11.1721 16.7223 11.2895 16.3754 11.1113C15.1583 10.4862 13.6478 10.1094 11.9996 10.1094C10.3514 10.1094 8.8408 10.4862 7.62371 11.1114C7.27683 11.2895 6.85128 11.1721 6.64481 10.8413C6.37192 10.4041 5.87901 10.1094 5.31158 10.1094Z" fill="black"/>
<path fill-rule="evenodd" clip-rule="evenodd" d="M18.1763 3.75C17.7639 3.75 17.4297 4.08426 17.4297 4.49659C17.4297 4.90892 17.7639 5.24318 18.1763 5.24318C18.5886 5.24318 18.9229 4.90892 18.9229 4.49659C18.9229 4.08426 18.5886 3.75 18.1763 3.75ZM15.9297 4.49659C15.9297 3.25583 16.9355 2.25 18.1763 2.25C19.417 2.25 20.4229 3.25583 20.4229 4.49659C20.4229 5.73735 19.417 6.74318 18.1763 6.74318C16.9355 6.74318 15.9297 5.73735 15.9297 4.49659Z" fill="black"/>
<path fill-rule="evenodd" clip-rule="evenodd" d="M13.662 3.94916L16.4987 4.74628C16.8975 4.85833 17.3116 4.6259 17.4237 4.22714C17.5357 3.82837 17.3033 3.41426 16.9045 3.30221L13.7993 2.42963C13.083 2.22836 12.3506 2.69354 12.2283 3.42742L11.2603 9.23524C11.1922 9.64382 11.4682 10.0302 11.8768 10.0983C12.2854 10.1664 12.6718 9.89041 12.7399 9.48184L13.662 3.94916Z" fill="black"/>
<path fill-rule="evenodd" clip-rule="evenodd" d="M8.44849 15.8007C8.70311 15.474 9.17437 15.4155 9.50109 15.6701C10.2109 16.2233 11.0726 16.5431 11.9992 16.5431C12.9259 16.5431 13.7876 16.2233 14.4974 15.6701C14.8241 15.4155 15.2954 15.474 15.55 15.8007C15.8046 16.1274 15.7462 16.5987 15.4194 16.8533C14.4635 17.5983 13.2813 18.0431 11.9992 18.0431C10.7172 18.0431 9.53504 17.5983 8.57906 16.8533C8.25234 16.5987 8.19388 16.1274 8.44849 15.8007Z" fill="black"/>
<path fill-rule="evenodd" clip-rule="evenodd" d="M8.46191 13.0664C8.46191 12.5141 8.90963 12.0664 9.46191 12.0664H9.46976C10.022 12.0664 10.4698 12.5141 10.4698 13.0664C10.4698 13.6187 10.022 14.0664 9.46976 14.0664H9.46191C8.90963 14.0664 8.46191 13.6187 8.46191 13.0664Z" fill="black"/>
<path fill-rule="evenodd" clip-rule="evenodd" d="M13.5352 13.0664C13.5352 12.5141 13.9829 12.0664 14.5352 12.0664H14.543C15.0953 12.0664 15.543 12.5141 15.543 13.0664C15.543 13.6187 15.0953 14.0664 14.543 14.0664H14.5352C13.9829 14.0664 13.5352 13.6187 13.5352 13.0664Z" fill="black"/>
</svg>