<svg width="24" height="24" viewBox="0 0 24 24" fill="none" xmlns="http://www.w3.org/2000/svg">
<path fill-rule="evenodd" clip-rule="evenodd" d="M11.6912 8.83203C11.2701 8.83203 10.9287 9.17341 10.9287 9.59452C10.9287 10.0156 11.2701 10.357 11.6912 10.357C12.1123 10.357 12.4537 10.0156 12.4537 9.59452C12.4537 9.17341 12.1123 8.83203 11.6912 8.83203ZM9.42871 9.59452C9.42871 8.34498 10.4417 7.33203 11.6912 7.33203C12.9407 7.33203 13.9537 8.34498 13.9537 9.59452C13.9537 10.8441 12.9407 11.857 11.6912 11.857C10.4417 11.857 9.42871 10.8441 9.42871 9.59452Z" fill="black"/>
<path fill-rule="evenodd" clip-rule="evenodd" d="M8.4705 14.9023C8.04939 14.9023 7.70801 15.2437 7.70801 15.6648C7.70801 16.0859 8.04939 16.4273 8.4705 16.4273C8.89161 16.4273 9.23299 16.0859 9.23299 15.6648C9.23299 15.2437 8.89161 14.9023 8.4705 14.9023ZM6.20801 15.6648C6.20801 14.4153 7.22096 13.4023 8.4705 13.4023C9.72004 13.4023 10.733 14.4153 10.733 15.6648C10.733 16.9144 9.72004 17.9273 8.4705 17.9273C7.22096 17.9273 6.20801 16.9144 6.20801 15.6648Z" fill="black"/>
<path fill-rule="evenodd" clip-rule="evenodd" d="M15.3885 14.5273C14.9674 14.5273 14.626 14.8687 14.626 15.2898C14.626 15.7109 14.9674 16.0523 15.3885 16.0523C15.8096 16.0523 16.151 15.7109 16.151 15.2898C16.151 14.8687 15.8096 14.5273 15.3885 14.5273ZM13.126 15.2898C13.126 14.0403 14.1389 13.0273 15.3885 13.0273C16.638 13.0273 17.651 14.0403 17.651 15.2898C17.651 16.5394 16.638 17.5523 15.3885 17.5523C14.1389 17.5523 13.126 16.5394 13.126 15.2898Z" fill="black"/>
<path fill-rule="evenodd" clip-rule="evenodd" d="M5.57611 11.924C5.86835 12.2175 5.86728 12.6924 5.57373 12.9846C3.80157 14.7489 3.34161 16.8004 4.11415 18.1384C4.61625 19.0081 5.61271 19.5715 6.94481 19.6871C8.27395 19.8024 9.86513 19.4572 11.3793 18.583L11.3845 18.58L11.3845 18.58C12.431 17.987 13.3344 17.1713 14.0308 16.1906C14.2707 15.8529 14.7388 15.7735 15.0766 16.0133C15.4143 16.2531 15.4937 16.7213 15.2538 17.0591C14.4308 18.2181 13.3632 19.1823 12.1266 19.8836C10.3798 20.8915 8.48545 21.3264 6.81518 21.1815C5.14703 21.0368 3.62955 20.2991 2.81511 18.8884C1.55062 16.6983 2.51703 13.9111 4.51545 11.9216C4.809 11.6294 5.28387 11.6304 5.57611 11.924Z" fill="black"/>
<path fill-rule="evenodd" clip-rule="evenodd" d="M7.81508 5.10669C8.77448 3.73439 10.1721 2.78906 11.8009 2.78906C14.4506 2.78906 16.4399 5.22977 17.0819 8.14816C17.1709 8.5527 16.9151 8.95279 16.5106 9.04178C16.106 9.13077 15.7059 8.87496 15.617 8.47042C15.0424 5.85879 13.4189 4.28906 11.8009 4.28906C10.7968 4.28906 9.81057 4.87031 9.04444 5.96615C8.28001 7.05957 7.78337 8.61015 7.78337 10.3585V10.3631H7.78336C7.77578 11.5988 8.05151 12.8198 8.58937 13.9323C8.76966 14.3053 8.6135 14.7537 8.24059 14.934C7.86767 15.1143 7.4192 14.9581 7.23891 14.5852C6.60162 13.267 6.27475 11.8203 6.28337 10.3562C6.2838 8.33912 6.85435 6.48089 7.81508 5.10669Z" fill="black"/>
<path fill-rule="evenodd" clip-rule="evenodd" d="M12.4703 9.71237C12.5041 9.29954 12.8661 8.99222 13.2789 9.02597C14.7303 9.14461 16.136 9.58982 17.391 10.3283C19.1372 11.3372 20.461 12.7602 21.1706 14.2791C21.8793 15.7961 21.9992 17.4791 21.1848 18.8898C19.8865 21.1387 16.8714 21.6657 14.0777 20.8373C13.6806 20.7195 13.4541 20.3021 13.5718 19.905C13.6896 19.5079 14.107 19.2814 14.5041 19.3992C16.9946 20.1377 19.0928 19.5133 19.8858 18.1398C20.3879 17.2701 20.3776 16.1254 19.8116 14.914C19.2469 13.7053 18.1523 12.4999 16.6382 11.6257L16.6327 11.6225L16.6327 11.6225C15.5719 10.9978 14.3836 10.6213 13.1567 10.521C12.7439 10.4872 12.4366 10.1252 12.4703 9.71237Z" fill="black"/>
</svg>