<svg width="25" height="24" viewBox="0 0 25 24" fill="none" xmlns="http://www.w3.org/2000/svg">
<path d="M16.8486 21H8.1527C5.49188 21 3.83594 19.1218 3.83594 16.4639V7.53606C3.83594 4.87817 5.49188 3 8.15368 3H16.8486C19.5094 3 21.1644 4.87817 21.1644 7.53606V16.4639C21.1644 19.1218 19.5016 21 16.8486 21Z" stroke="black" stroke-width="1.5" stroke-linecap="round" stroke-linejoin="round"/>
<path opacity="0.4" d="M8.19287 20.9768V17.355M12.4794 20.9768V17.355M16.7663 20.9768V17.355M3.94922 17.3516H21.0535" stroke="black" stroke-width="1.5" stroke-linecap="round" stroke-linejoin="round"/>
<path opacity="0.4" d="M21.0516 6.64917H3.94727M8.19189 3V6.6462M12.4784 3V6.6462M16.7654 3V6.6462" stroke="black" stroke-width="1.5" stroke-linecap="round" stroke-linejoin="round"/>
<path fill-rule="evenodd" clip-rule="evenodd" d="M14.7269 13.0266C14.0008 13.6835 13.0943 14.2752 12.0963 14.6777C11.2464 15.012 10.5349 14.5949 10.4306 13.7576C10.3029 12.5227 10.3058 11.3414 10.4306 10.2391C10.5446 9.36873 11.3283 8.99934 12.0963 9.32293C13.0788 9.72546 13.9608 10.2713 14.7269 10.974C15.3819 11.5666 15.3975 12.4097 14.7269 13.0266Z" stroke="black" stroke-width="1.5" stroke-linecap="round" stroke-linejoin="round"/>
</svg>