<svg width="24" height="24" viewBox="0 0 24 24" fill="none" xmlns="http://www.w3.org/2000/svg">
<path opacity="0.4" fill-rule="evenodd" clip-rule="evenodd" d="M21.0492 7.78V16.23C21.0492 19.38 19.0192 21.5 16.0092 21.5H7.99922C4.97922 21.5 2.94922 19.38 2.94922 16.23V7.78C2.94922 7.42 2.97922 7.07 3.02922 6.73C3.42922 4.19 5.28922 2.53 7.91922 2.5H16.0792C18.7092 2.53 20.5692 4.18 20.9692 6.73C21.0192 7.07 21.0492 7.42 21.0492 7.78Z" fill="black"/>
<path fill-rule="evenodd" clip-rule="evenodd" d="M7.91922 2.5V6.73H3.02922C2.97922 7.07 2.94922 7.42 2.94922 7.78V8.23H21.0492V7.78C21.0492 7.42 21.0192 7.07 20.9692 6.73H16.0792V2.5H14.5792V6.73H9.41922V2.5H7.91922Z" fill="black"/>
<path fill-rule="evenodd" clip-rule="evenodd" d="M13.6252 14.5864C12.9252 15.2264 12.0952 15.7464 11.2252 16.0964C11.0252 16.1764 10.8552 16.1764 10.7552 16.1164C10.6352 16.0464 10.5952 15.8764 10.5852 15.7964C10.4652 14.6364 10.4652 13.5064 10.5752 12.4464C10.6052 12.2864 10.6652 12.1764 10.7552 12.1264C10.8152 12.0964 10.8752 12.0764 10.9452 12.0764C11.0352 12.0764 11.1252 12.0964 11.2152 12.1364C12.1252 12.5064 12.9352 13.0164 13.6352 13.6464C13.7452 13.7564 13.8752 13.9164 13.8752 14.1164C13.8852 14.3164 13.7452 14.4864 13.6252 14.5864ZM14.6352 12.5364C13.8152 11.7864 12.8552 11.1864 11.7952 10.7464C11.1852 10.4964 10.5352 10.5264 10.0052 10.8264C9.50523 11.1164 9.17523 11.6264 9.09523 12.2664C8.95523 13.4464 8.95523 14.6864 9.09523 15.9664C9.17523 16.6064 9.49523 17.1164 9.99523 17.4164C10.2752 17.5764 10.5952 17.6664 10.9252 17.6664C11.2052 17.6664 11.4952 17.6064 11.7852 17.4864C12.8152 17.0764 13.8052 16.4564 14.6352 15.6964C15.1052 15.2664 15.3752 14.7164 15.3752 14.1464V14.1164C15.3752 13.5264 15.1152 12.9664 14.6352 12.5364Z" fill="black"/>
</svg>