<svg width="25" height="24" viewBox="0 0 25 24" fill="none" xmlns="http://www.w3.org/2000/svg">
<path d="M12.2505 21H16.2568C19.0492 21 20.7997 19.0234 20.7997 16.2251V7.77583C20.7997 4.97758 19.058 3 16.2568 3H8.24515C5.44398 3 3.70032 4.97758 3.70032 7.77583V16.2251C3.70032 19.0234 5.44398 21 8.24418 21H9.18683" stroke="black" stroke-width="1.5" stroke-linecap="round" stroke-linejoin="round"/>
<path d="M11.7613 11.4675C10.9114 11.1322 10.1999 11.5503 10.0956 12.3875C9.96796 13.6224 9.97089 14.8037 10.0956 15.9061C10.2097 16.7764 10.9933 17.1458 11.7613 16.8222C12.7438 16.4197 13.6259 15.8739 14.3919 15.1712C15.0469 14.5776 15.0625 13.7345 14.3919 13.1185" stroke="black" stroke-width="1.5" stroke-linecap="round" stroke-linejoin="round"/>
<path d="M3.70703 7.47656H20.7928" stroke="black" stroke-width="1.5" stroke-linecap="round" stroke-linejoin="round"/>
<path d="M9.27344 7.47563V3M15.2266 7.47563V3" stroke="black" stroke-width="1.5" stroke-linecap="round" stroke-linejoin="round"/>
</svg>