<svg width="24" height="24" viewBox="0 0 24 24" fill="none" xmlns="http://www.w3.org/2000/svg">
<path fill-rule="evenodd" clip-rule="evenodd" d="M7.70264 6.729C7.86833 6.729 8.00264 6.59516 8.00289 6.42947C8.00466 5.28401 8.01528 3.50418 8.01971 2.80072C8.02076 2.63426 7.88571 2.49916 7.71947 2.50791C5.41788 2.62906 3.60041 4.13289 3.10087 6.38398C3.06096 6.56385 3.20218 6.729 3.38642 6.729H7.70264Z" fill="black"/>
<path fill-rule="evenodd" clip-rule="evenodd" d="M14.5113 2.80072C14.5124 2.63426 14.3777 2.5 14.2113 2.5H9.78529C9.61882 2.5 9.48416 2.63426 9.48521 2.80072C9.48964 3.50398 9.50027 5.28309 9.50203 6.42947C9.50228 6.59515 9.63659 6.729 9.80228 6.729H14.1943C14.36 6.729 14.4943 6.59515 14.4945 6.42946C14.4963 5.28309 14.5069 3.50398 14.5113 2.80072Z" fill="black"/>
<path fill-rule="evenodd" clip-rule="evenodd" d="M15.9936 6.42949C15.9939 6.59517 16.1282 6.72902 16.2939 6.72902H20.6121C20.7963 6.72902 20.9375 6.56387 20.8976 6.384C20.3979 4.13107 18.5801 2.62793 16.277 2.50692C16.1108 2.49818 15.9757 2.63328 15.9768 2.79975C15.9812 3.50314 15.9918 5.2828 15.9936 6.42949Z" fill="black"/>
<path fill-rule="evenodd" clip-rule="evenodd" d="M14.6442 15.7245C13.8112 16.4815 12.8242 17.1005 11.7872 17.5155C11.4982 17.6305 11.2102 17.6885 10.9332 17.6885C10.5982 17.6885 10.2802 17.6045 9.99722 17.4375C9.49722 17.1415 9.17822 16.6285 9.09922 15.9915C8.96522 14.7115 8.96522 13.4725 9.09822 12.2955C9.18222 11.6555 9.51922 11.1285 10.0272 10.8405C10.5512 10.5415 11.1982 10.5215 11.8042 10.7805C12.8612 11.2105 13.8212 11.8135 14.6452 12.5665C15.1202 12.9945 15.3852 13.5545 15.3862 14.1395C15.3882 14.7245 15.1242 15.2875 14.6442 15.7245ZM3.24922 8.22949C3.08353 8.22949 2.94922 8.36381 2.94922 8.52949V16.2295C2.94922 19.3815 4.97622 21.4995 7.99322 21.4995H16.0062C19.0222 21.4995 21.0492 19.3815 21.0492 16.2295V8.52949C21.0492 8.36381 20.9149 8.22949 20.7492 8.22949H3.24922Z" fill="black"/>
<path fill-rule="evenodd" clip-rule="evenodd" d="M11.2253 12.1636C11.1253 12.1216 11.0323 12.1006 10.9503 12.1006C10.8813 12.1006 10.8203 12.1146 10.7693 12.1436C10.6453 12.2146 10.6013 12.3636 10.5873 12.4766C10.4683 13.5326 10.4683 14.6626 10.5893 15.8206C10.6003 15.9016 10.6383 16.0726 10.7603 16.1456C10.8663 16.2076 11.0363 16.1996 11.2293 16.1226C12.1023 15.7726 12.9333 15.2516 13.6353 14.6146C13.7493 14.5096 13.8873 14.3436 13.8863 14.1426C13.8863 13.9426 13.7503 13.7786 13.6373 13.6776C12.9413 13.0406 12.1303 12.5326 11.2253 12.1636Z" fill="black"/>
</svg>