<svg width="24" height="24" viewBox="0 0 24 24" fill="none" xmlns="http://www.w3.org/2000/svg">
<path fill-rule="evenodd" clip-rule="evenodd" d="M8.23769 7.23844C8.27311 7.3692 8.39177 7.46 8.52725 7.46H11.0927C11.2912 7.46 11.4353 7.27161 11.3823 7.08031C10.991 5.66608 10.3825 3.42727 10.1907 2.721C10.1552 2.59029 10.0367 2.5 9.90123 2.5H7.6517C7.53626 2.5 7.42484 2.50807 7.31503 2.51946C7.13312 2.53834 7.01357 2.71925 7.06138 2.89577L8.23769 7.23844Z" fill="black"/>
<path fill-rule="evenodd" clip-rule="evenodd" d="M14.9526 2.72095C14.9171 2.59027 14.7986 2.5 14.6631 2.5H12.0586C11.8601 2.5 11.7163 2.68931 11.7696 2.88052L12.9844 7.24052C13.0206 7.37025 13.1387 7.46 13.2734 7.46H15.8555C16.054 7.46 16.1981 7.27156 16.1451 7.08025C15.7532 5.66499 15.1444 3.427 14.9526 2.72095Z" fill="black"/>
<path fill-rule="evenodd" clip-rule="evenodd" d="M17.7465 7.24035C17.7826 7.37009 17.9008 7.45984 18.0355 7.45984H20.854C21.0211 7.45984 21.1567 7.32298 21.1473 7.15616C20.9979 4.52343 19.3191 2.73029 16.8283 2.52582C16.6288 2.50944 16.4814 2.69991 16.5351 2.89275L17.7465 7.24035Z" fill="black"/>
<path fill-rule="evenodd" clip-rule="evenodd" d="M6.35104 7.45922C6.54864 7.45922 6.69227 7.27149 6.6406 7.08076L5.61332 3.28941C5.56498 3.11103 5.36786 3.0178 5.20598 3.10696C3.82884 3.86546 2.95877 5.29903 2.85346 7.15554C2.844 7.32232 2.9796 7.45922 3.14666 7.45922H6.35104Z" fill="black"/>
<path fill-rule="evenodd" clip-rule="evenodd" d="M11.365 12.2836C11.269 12.2446 11.177 12.2236 11.094 12.2236C11.021 12.2236 10.955 12.2396 10.903 12.2696C10.806 12.3256 10.746 12.4356 10.725 12.5966C10.607 13.6516 10.607 14.7816 10.727 15.9416C10.738 16.0216 10.776 16.1936 10.899 16.2656C11.005 16.3276 11.175 16.3196 11.368 16.2426C12.241 15.8936 13.073 15.3726 13.774 14.7346C13.889 14.6296 14.026 14.4626 14.025 14.2626C14.025 14.0616 13.889 13.8976 13.776 13.7956C13.078 13.1586 12.268 12.6506 11.365 12.2836Z" fill="black"/>
<path fill-rule="evenodd" clip-rule="evenodd" d="M14.7829 15.844C13.9499 16.601 12.9629 17.22 11.9259 17.635C11.6369 17.751 11.3489 17.809 11.0719 17.809C10.7379 17.809 10.4199 17.725 10.1369 17.558C9.63694 17.263 9.31694 16.749 9.23694 16.112C9.10394 14.829 9.10494 13.591 9.23594 12.416C9.32094 11.771 9.64594 11.263 10.1539 10.97C10.6769 10.669 11.3259 10.644 11.9359 10.897C12.9979 11.328 13.9579 11.931 14.7839 12.685C15.2589 13.114 15.5239 13.673 15.5249 14.258C15.5269 14.844 15.2629 15.407 14.7829 15.844ZM3.13594 8.95898C2.97025 8.95898 2.83594 9.0933 2.83594 9.25898V16.459C2.83594 19.474 4.77194 21.499 7.65194 21.499H16.3469C19.2289 21.499 21.1639 19.474 21.1639 16.459V9.25898C21.1639 9.0933 21.0296 8.95898 20.8639 8.95898H3.13594Z" fill="black"/>
</svg>