<svg width="25" height="24" viewBox="0 0 25 24" fill="none" xmlns="http://www.w3.org/2000/svg">
<path d="M12.2492 21H16.5967C19.2585 21 20.9144 19.1218 20.9144 16.4639V7.53606C20.9144 4.87817 19.2585 3 16.5976 3H7.90173C5.24871 3 3.58594 4.87817 3.58594 7.53606V16.4639C3.58594 19.1218 5.24091 21 7.90173 21H9.07546" stroke="black" stroke-width="1.5" stroke-linecap="round" stroke-linejoin="round"/>
<path d="M11.8981 11.588C11.13 11.2654 10.3464 11.6348 10.2324 12.5042C10.1076 13.6065 10.1047 14.7888 10.2324 16.0227C10.3367 16.8599 11.0482 17.2781 11.8981 16.9428C12.8961 16.5403 13.8025 15.9496 14.5287 15.2917C15.1992 14.6757 15.1836 13.8327 14.5287 13.2391" stroke="black" stroke-width="1.5" stroke-linecap="round" stroke-linejoin="round"/>
<path d="M20.8016 8.20703H3.69727" stroke="black" stroke-width="1.5" stroke-linecap="round" stroke-linejoin="round"/>
<path d="M8.39866 8.20171L7.01172 3.07696M12.6747 8.20176L11.2264 3.00391M16.9598 8.20176L15.5114 3.00391" stroke="black" stroke-width="1.5" stroke-linecap="round" stroke-linejoin="round"/>
</svg>