<svg width="25" height="24" viewBox="0 0 25 24" fill="none" xmlns="http://www.w3.org/2000/svg">
<path d="M20.4623 11.0664V7.76655C20.4623 4.97414 18.7226 3 15.9273 3H7.92951C5.13224 3 3.39258 4.97414 3.39258 7.76655V15.38C3.39258 18.1724 5.13224 20.1465 7.92854 20.1465H11.5371" stroke="black" stroke-width="1.5" stroke-linecap="round" stroke-linejoin="round"/>
<path opacity="0.4" d="M3.39941 7.46813H20.4564M8.95654 7.46785V3M14.8988 7.46785V3" stroke="black" stroke-width="1.5" stroke-linecap="round" stroke-linejoin="round"/>
<path fill-rule="evenodd" clip-rule="evenodd" d="M13.6504 17.1932C13.2162 15.8352 13.7241 14.2859 15.148 13.8271C15.8975 13.5868 16.7167 13.7238 17.3473 14.1967C17.9766 13.7289 18.7933 13.5907 19.5414 13.8271C20.9654 14.2859 21.4771 15.8352 21.0429 17.1932C20.3671 19.3434 17.3473 21 17.3473 21C17.3473 21 14.3508 19.368 13.6504 17.1932Z" stroke="black" stroke-width="1.5" stroke-linecap="round" stroke-linejoin="round"/>
</svg>