<svg width="25" height="24" viewBox="0 0 25 24" fill="none" xmlns="http://www.w3.org/2000/svg">
<path fill-rule="evenodd" clip-rule="evenodd" d="M11.3326 15.0066C11.5766 15.1516 11.8526 15.2246 12.1446 15.2246C12.3866 15.2246 12.6396 15.1746 12.8936 15.0736C13.8746 14.6866 14.8256 14.0896 15.6436 13.3496C16.0666 12.9646 16.2996 12.4726 16.2986 11.9626C16.2966 11.4536 16.0626 10.9646 15.6456 10.5916C14.8576 9.86258 13.9326 9.28158 12.9036 8.86858C12.3726 8.64458 11.8096 8.66458 11.3596 8.92358C10.9216 9.17458 10.6416 9.61458 10.5676 10.1736C10.4386 11.3166 10.4386 12.5236 10.5686 13.7716C10.6376 14.3166 10.9086 14.7546 11.3326 15.0066Z" fill="black"/>
<path fill-rule="evenodd" clip-rule="evenodd" d="M22.3012 7.12502C22.5462 6.97302 22.6822 6.69302 22.6502 6.40602C22.6182 6.11902 22.4252 5.87602 22.1532 5.78002L19.4382 4.82802C19.2142 4.75002 18.9662 4.78202 18.7692 4.91502C18.5722 5.04902 18.4502 5.26802 18.4412 5.50502L18.3282 8.21502C18.3172 8.49302 18.4592 8.75402 18.6992 8.89402C18.8172 8.96202 18.9472 8.99602 19.0772 8.99602C19.2152 8.99602 19.3532 8.95802 19.4742 8.88302L20.1732 8.44802C21.6502 11.479 21.1422 15.267 18.6552 17.771C16.7712 19.668 14.0752 20.521 11.4372 20.043C11.0292 19.972 10.6392 20.242 10.5662 20.648C10.4922 21.056 10.7642 21.446 11.1712 21.52C11.7402 21.622 12.3132 21.672 12.8812 21.672C15.4252 21.672 17.8942 20.665 19.7202 18.829C22.7022 15.824 23.2862 11.263 21.4562 7.65002L22.3012 7.12502Z" fill="black"/>
<path fill-rule="evenodd" clip-rule="evenodd" d="M6.96734 15.1078C6.72834 14.9678 6.43134 14.9718 6.19434 15.1188L5.49334 15.5538C4.01634 12.5218 4.52334 8.73278 7.01034 6.22878C8.89534 4.33278 11.5903 3.47978 14.2293 3.95778C14.6363 4.03078 15.0273 3.75878 15.1003 3.35178C15.1733 2.94478 14.9033 2.55378 14.4943 2.48078C11.3773 1.91978 8.18034 2.92478 5.94634 5.17078C2.96434 8.17478 2.38034 12.7368 4.21034 16.3508L3.36534 16.8758C3.12034 17.0278 2.98434 17.3068 3.01634 17.5938C3.04734 17.8808 3.24034 18.1248 3.51334 18.2198L6.22834 19.1718C6.30934 19.2008 6.39234 19.2138 6.47634 19.2138C6.62434 19.2138 6.77134 19.1698 6.89734 19.0858C7.09334 18.9518 7.21534 18.7328 7.22534 18.4958L7.33834 15.7868C7.35034 15.5088 7.20734 15.2478 6.96734 15.1078Z" fill="black"/>
</svg>