<svg width="24" height="24" viewBox="0 0 24 24" fill="none" xmlns="http://www.w3.org/2000/svg">
<path fill-rule="evenodd" clip-rule="evenodd" d="M4.83492 4.91984C4.15879 5.64597 3.75 6.70868 3.75 8.02638V15.9736C3.75 17.2913 4.15879 18.354 4.835 19.0801C5.5056 19.8002 6.49479 20.25 7.78411 20.25H16.2178C17.5066 20.25 18.4952 19.8003 19.1655 19.0802C19.8414 18.3541 20.25 17.2914 20.25 15.9736V8.02638C20.25 6.70951 19.8398 5.64666 19.1625 4.92012C18.4908 4.19943 17.5017 3.75 16.2178 3.75H7.78313C6.49437 3.75 5.50542 4.19975 4.83492 4.91984ZM3.73714 3.89765C4.72117 2.84084 6.12379 2.25 7.78313 2.25H16.2178C17.8733 2.25 19.2753 2.84117 20.2598 3.89737C21.2388 4.94771 21.75 6.39806 21.75 8.02638V15.9736C21.75 17.601 21.2416 19.0515 20.2634 20.1023C19.2796 21.1591 17.8772 21.75 16.2178 21.75H7.78411C6.12435 21.75 4.72148 21.1592 3.7373 20.1024C2.75873 19.0516 2.25 17.6011 2.25 15.9736V8.02638C2.25 6.39889 2.75872 4.94841 3.73714 3.89765Z" fill="black"/>
<path fill-rule="evenodd" clip-rule="evenodd" d="M6.76677 8.97326C7.1483 8.81198 7.58833 8.99053 7.7496 9.37206L8.42077 10.9598L9.99594 10.2936C10.3774 10.1323 10.8175 10.3108 10.9788 10.6923C11.1402 11.0738 10.9617 11.5138 10.5802 11.6752L8.31417 12.6335C8.13095 12.711 7.92445 12.7126 7.7401 12.6378C7.55576 12.563 7.40867 12.418 7.33122 12.2348L6.36797 9.95609C6.2067 9.57457 6.38524 9.13454 6.76677 8.97326Z" fill="black"/>
<path fill-rule="evenodd" clip-rule="evenodd" d="M12.3994 8.50781C10.4983 8.50781 8.95402 10.0224 8.90601 11.9043C8.89545 12.3184 8.55121 12.6455 8.13713 12.6349C7.72305 12.6244 7.39594 12.2801 7.4065 11.866C7.47525 9.17102 9.68469 7.00781 12.3994 7.00781C15.1556 7.00781 17.3925 9.24479 17.3925 12.0009C17.3925 14.7625 15.155 16.9941 12.3994 16.9941C10.9391 16.9941 9.62724 16.3692 8.71374 15.3733C8.43373 15.0681 8.45418 14.5937 8.75942 14.3137C9.06466 14.0337 9.53909 14.0541 9.8191 14.3594C10.4604 15.0585 11.3767 15.4941 12.3994 15.4941C14.3277 15.4941 15.8925 13.933 15.8925 12.0009C15.8925 10.0732 14.3271 8.50781 12.3994 8.50781Z" fill="black"/>
</svg>