<svg width="24" height="25" viewBox="0 0 24 25" fill="none" xmlns="http://www.w3.org/2000/svg">
<path fill-rule="evenodd" clip-rule="evenodd" d="M16.7714 3.29297H9.3144C6.2364 3.29297 4.0854 5.53197 4.0854 8.73697V9.26097L3.0024 9.25797H3.0004C2.5954 9.25797 2.2314 9.50097 2.0764 9.87397C1.9204 10.248 2.0064 10.679 2.2924 10.965L4.3344 13.006C4.5184 13.221 4.7814 13.364 5.0854 13.364C5.0904 13.364 5.0944 13.362 5.0994 13.362C5.1014 13.362 5.1034 13.363 5.1054 13.363C5.3614 13.363 5.6174 13.265 5.8124 13.07L7.9054 10.977C8.1914 10.691 8.2764 10.262 8.1234 9.88897C7.9684 9.51497 7.6054 9.27097 7.2014 9.26997L6.0854 9.26697V8.73697C6.0854 6.61297 7.3234 5.29297 9.3144 5.29297H16.7714C18.7624 5.29297 20.0004 6.61297 20.0004 8.73697V15.764C20.0004 17.888 18.7614 19.207 16.7694 19.207H9.3144C7.3234 19.207 6.0854 17.888 6.0854 15.764C6.0854 15.212 5.6384 14.764 5.0854 14.764C4.5334 14.764 4.0854 15.212 4.0854 15.764C4.0854 18.969 6.2364 21.207 9.3144 21.207H16.7694C19.8494 21.207 22.0004 18.969 22.0004 15.764V8.73697C22.0004 5.53197 19.8494 3.29297 16.7714 3.29297Z" fill="black"/>
</svg>