<svg width="24" height="24" viewBox="0 0 24 24" fill="none" xmlns="http://www.w3.org/2000/svg">
<path fill-rule="evenodd" clip-rule="evenodd" d="M12.8977 3.26063C13.3061 3.19113 13.6934 3.46582 13.7629 3.87416L13.7702 3.91712C13.8397 4.32546 13.5651 4.71283 13.1567 4.78233C12.7484 4.85183 12.361 4.57715 12.2915 4.1688L12.2842 4.12584C12.2147 3.7175 12.4894 3.33013 12.8977 3.26063ZM16.341 5.02923C16.6339 4.73635 17.1087 4.73637 17.4016 5.02927L17.4089 5.03659C17.7018 5.32949 17.7018 5.80437 17.4089 6.09725C17.116 6.39013 16.6411 6.39011 16.3482 6.0972L16.3409 6.08989C16.048 5.79699 16.048 5.32211 16.341 5.02923ZM18.8458 8.33981C19.1186 8.02809 19.5924 7.99652 19.9041 8.2693L19.9114 8.2757C20.2231 8.54847 20.2547 9.02229 19.9819 9.33401C19.7092 9.64573 19.2353 9.6773 18.9236 9.40452L18.9163 9.39813C18.6046 9.12535 18.573 8.65153 18.8458 8.33981ZM19.4513 12.4006C19.7442 12.1077 20.219 12.1077 20.5119 12.4006L20.5192 12.4079C20.8121 12.7009 20.8121 13.1757 20.5192 13.4686C20.2263 13.7615 19.7514 13.7614 19.4585 13.4685L19.4512 13.4612C19.1583 13.1683 19.1583 12.6934 19.4513 12.4006ZM17.8584 16.2852C18.1312 15.9735 18.605 15.9419 18.9167 16.2147L18.924 16.2211C19.2358 16.4938 19.2673 16.9677 18.9946 17.2794C18.7218 17.5911 18.248 17.6227 17.9363 17.3499L17.9289 17.3435C17.6172 17.0707 17.5856 16.5969 17.8584 16.2852Z" fill="black"/>
<path fill-rule="evenodd" clip-rule="evenodd" d="M9.49552 4.33985C9.66164 4.7193 9.4887 5.16156 9.10925 5.32768C5.51412 6.90159 3.81485 11.0607 5.29808 14.7156C6.81537 18.4375 11.0585 20.2256 14.7686 18.7101C15.1521 18.5534 15.5899 18.7373 15.7465 19.1208C15.9032 19.5042 15.7193 19.9421 15.3358 20.0987C10.8552 21.9289 5.73753 19.7681 3.90879 15.2812L3.90838 15.2802C2.11922 10.8722 4.16803 5.85344 8.50769 3.95359C8.88714 3.78747 9.3294 3.96041 9.49552 4.33985Z" fill="black"/>
<path fill-rule="evenodd" clip-rule="evenodd" d="M3.3907 4.29051C3.39637 3.87634 3.73672 3.54518 4.1509 3.55085L8.8241 3.61484C9.23824 3.62052 9.56938 3.96081 9.56376 4.37495L9.50069 9.02256C9.49506 9.43674 9.15475 9.76794 8.74058 9.76231C8.3264 9.75669 7.9952 9.41638 8.00082 9.0022L8.05372 5.10444L4.13036 5.05071C3.71618 5.04504 3.38503 4.70469 3.3907 4.29051Z" fill="black"/>
</svg>