<svg width="24" height="24" viewBox="0 0 24 24" fill="none" xmlns="http://www.w3.org/2000/svg">
<path fill-rule="evenodd" clip-rule="evenodd" d="M3.7402 3.89737C4.72468 2.84117 6.12669 2.25 7.78216 2.25H16.2169C17.8762 2.25 19.2788 2.84084 20.2629 3.89765C21.2413 4.94841 21.75 6.39889 21.75 8.02638V15.9736C21.75 17.6011 21.2413 19.0516 20.2627 20.1024C19.2785 21.1592 17.8756 21.75 16.2159 21.75H7.78216C6.1228 21.75 4.72038 21.1591 3.73657 20.1023C2.75842 19.0515 2.25 17.601 2.25 15.9736V8.02638C2.25 6.39806 2.76117 4.94771 3.7402 3.89737ZM4.83745 4.92012C4.16024 5.64666 3.75 6.70951 3.75 8.02638V15.9736C3.75 17.2914 4.15861 18.3541 4.83451 19.0802C5.50475 19.8003 6.49341 20.25 7.78216 20.25H16.2159C17.5052 20.25 18.4944 19.8002 19.165 19.0801C19.8412 18.354 20.25 17.2913 20.25 15.9736V8.02638C20.25 6.70868 19.8412 5.64597 19.1651 4.91984C18.4946 4.19975 17.5056 3.75 16.2169 3.75H7.78216C6.49828 3.75 5.50921 4.19943 4.83745 4.92012Z" fill="black"/>
<path fill-rule="evenodd" clip-rule="evenodd" d="M6.60938 12.0009C6.60938 9.24479 8.84635 7.00781 11.6025 7.00781C14.3172 7.00781 16.5267 9.17102 16.5954 11.866C16.606 12.2801 16.2789 12.6244 15.8648 12.6349C15.4507 12.6455 15.1065 12.3184 15.0959 11.9043C15.0479 10.0224 13.5036 8.50781 11.6025 8.50781C9.67478 8.50781 8.10938 10.0732 8.10938 12.0009C8.10938 13.933 9.67422 15.4941 11.6025 15.4941C12.6252 15.4941 13.5415 15.0585 14.1828 14.3594C14.4628 14.0541 14.9372 14.0337 15.2425 14.3137C15.5477 14.5937 15.5682 15.0681 15.2882 15.3733C14.3747 16.3692 13.0628 16.9941 11.6025 16.9941C8.84691 16.9941 6.60938 14.7625 6.60938 12.0009Z" fill="black"/>
<path fill-rule="evenodd" clip-rule="evenodd" d="M17.2344 8.97326C17.6159 9.13454 17.7945 9.57457 17.6332 9.95609L16.67 12.2348C16.5925 12.418 16.4454 12.563 16.2611 12.6378C16.0767 12.7126 15.8702 12.711 15.687 12.6335L13.4209 11.6752C13.0394 11.5138 12.861 11.0738 13.0223 10.6923C13.1837 10.3108 13.6237 10.1323 14.0052 10.2936L15.5804 10.9598L16.2516 9.37206C16.4128 8.99053 16.8529 8.81198 17.2344 8.97326Z" fill="black"/>
</svg>