<svg width="24" height="24" viewBox="0 0 24 24" fill="none" xmlns="http://www.w3.org/2000/svg">
<path d="M7.78216 3H16.2169C19.165 3 21 5.08119 21 8.02638V15.9736C21 18.9188 19.165 21 16.2159 21H7.78216C4.83405 21 3 18.9188 3 15.9736V8.02638C3 5.08119 4.84281 3 7.78216 3Z" stroke="black" stroke-width="1.5" stroke-linecap="round" stroke-linejoin="round"/>
<path d="M15.8456 11.8852C15.7873 9.59673 13.9104 7.75781 11.6025 7.75781C9.26056 7.75781 7.35938 9.659 7.35938 12.0009C7.35938 14.3478 9.26056 16.2441 11.6025 16.2441C12.844 16.2441 13.9581 15.7138 14.7355 14.8664" stroke="black" stroke-width="1.5" stroke-linecap="round" stroke-linejoin="round"/>
<path d="M16.9422 9.66406L15.9789 11.9428L13.7129 10.9844" stroke="black" stroke-width="1.5" stroke-linecap="round" stroke-linejoin="round"/>
</svg>