<svg width="24" height="24" viewBox="0 0 24 24" fill="none" xmlns="http://www.w3.org/2000/svg">
<path fill-rule="evenodd" clip-rule="evenodd" d="M18.3595 13.3157C18.7194 13.1106 19.1774 13.2361 19.3825 13.596L20.3198 15.2408C20.32 15.2411 20.3201 15.2413 20.3202 15.2416C21.2733 16.9049 20.062 18.9731 18.1506 18.9731H11.0547C10.6405 18.9731 10.3047 18.6373 10.3047 18.2231C10.3047 17.8089 10.6405 17.4731 11.0547 17.4731H18.1506C18.918 17.4731 19.3948 16.6431 19.0186 15.987L19.0176 15.9852L18.0792 14.3386C17.8741 13.9787 17.9996 13.5207 18.3595 13.3157Z" fill="black"/>
<path fill-rule="evenodd" clip-rule="evenodd" d="M13.3678 15.9072C13.6607 16.2001 13.6607 16.6749 13.3678 16.9678L12.1113 18.2244L13.3585 19.4721C13.6513 19.7651 13.6512 20.2399 13.3582 20.5328C13.0652 20.8256 12.5904 20.8255 12.2975 20.5325L10.5203 18.7544C10.2276 18.4615 10.2276 17.9867 10.5205 17.6939L12.3072 15.9072C12.6001 15.6143 13.0749 15.6143 13.3678 15.9072Z" fill="black"/>
<path fill-rule="evenodd" clip-rule="evenodd" d="M5.65551 13.307C6.01453 13.5136 6.13811 13.9721 5.93152 14.3311L4.98454 15.9768L4.98299 15.9795C4.60282 16.634 5.07784 17.4715 5.85311 17.4715H7.7462C8.16042 17.4715 8.4962 17.8073 8.4962 18.2215C8.4962 18.6357 8.16042 18.9715 7.7462 18.9715H5.85311C3.93415 18.9715 2.71945 16.8923 3.68512 15.2275L4.63139 13.583C4.83798 13.224 5.29649 13.1004 5.65551 13.307Z" fill="black"/>
<path fill-rule="evenodd" clip-rule="evenodd" d="M12.9125 5.25571C12.5259 4.58128 11.5614 4.58348 11.1772 5.24982L10.2475 6.8619C10.0405 7.22072 9.58191 7.34384 9.22309 7.1369C8.86427 6.92997 8.74115 6.47133 8.94808 6.11252L9.87774 4.50054C9.87773 4.50056 9.87775 4.50052 9.87774 4.50054C10.8408 2.8304 13.2538 2.83235 14.2148 4.51126L14.2157 4.51289L15.1281 6.11628C15.333 6.47628 15.2072 6.9342 14.8472 7.13906C14.4872 7.34392 14.0293 7.21814 13.8244 6.85814L12.9125 5.25571C12.9127 5.25594 12.9124 5.25548 12.9125 5.25571Z" fill="black"/>
<path fill-rule="evenodd" clip-rule="evenodd" d="M8.74546 7.97227C9.1038 8.18005 9.22585 8.63897 9.01808 8.9973L7.15871 12.2041C6.95094 12.5624 6.49202 12.6845 6.13368 12.4767C5.77535 12.2689 5.6533 11.81 5.86107 11.4517L7.72044 8.24489C7.92821 7.88656 8.38713 7.7645 8.74546 7.97227Z" fill="black"/>
<path fill-rule="evenodd" clip-rule="evenodd" d="M15.3139 7.96976C15.6736 7.76441 16.1317 7.88955 16.337 8.24928L18.1627 11.4474C18.368 11.8071 18.2429 12.2652 17.8831 12.4706C17.5234 12.6759 17.0653 12.5508 16.86 12.191L15.0343 8.99292C14.829 8.63319 14.9541 8.17511 15.3139 7.96976Z" fill="black"/>
</svg>