<svg width="25" height="24" viewBox="0 0 25 24" fill="none" xmlns="http://www.w3.org/2000/svg">
<path d="M6.05703 18.761C6.00019 18.7607 5.94356 18.7543 5.88806 18.742L2.92505 18.057C2.73117 18.0122 2.56303 17.8922 2.45764 17.7234C2.35224 17.5546 2.31821 17.3509 2.36303 17.157C2.40786 16.9631 2.52787 16.795 2.69665 16.6896C2.86543 16.5842 3.06918 16.5502 3.26306 16.595L5.49505 17.111L6.00705 14.895C6.02729 14.7971 6.06691 14.7042 6.12356 14.6219C6.18021 14.5395 6.25276 14.4693 6.33694 14.4154C6.42112 14.3614 6.51523 14.3249 6.61374 14.3078C6.71224 14.2908 6.81315 14.2936 6.91055 14.3162C7.00795 14.3387 7.09986 14.3805 7.18087 14.4391C7.26189 14.4976 7.33038 14.5718 7.38232 14.6572C7.43426 14.7426 7.46861 14.8376 7.48333 14.9364C7.49805 15.0353 7.49285 15.1362 7.46804 15.233L6.78705 18.18C6.74887 18.345 6.65593 18.4923 6.52337 18.5978C6.39082 18.7033 6.22645 18.7608 6.05703 18.761V18.761Z" fill="black"/>
<path d="M17.4458 9.68853C17.3329 9.68876 17.2214 9.66344 17.1196 9.61447C17.0178 9.56551 16.9284 9.49417 16.8581 9.40578C16.7878 9.31739 16.7384 9.21425 16.7136 9.10407C16.6888 8.99388 16.6892 8.87951 16.7149 8.76952L17.3968 5.82352C17.419 5.7275 17.4599 5.6368 17.5171 5.55658C17.5743 5.47637 17.6468 5.40821 17.7304 5.35602C17.814 5.30383 17.907 5.26863 18.0042 5.25241C18.1014 5.2362 18.2008 5.23929 18.2968 5.26152L21.2588 5.94652C21.4486 5.99513 21.6118 6.11603 21.7135 6.28339C21.8153 6.45075 21.8476 6.65128 21.8034 6.8421C21.7593 7.03293 21.6422 7.19892 21.4773 7.30458C21.3124 7.41024 21.1127 7.44718 20.9209 7.40752L18.6898 6.89252L18.1768 9.10752C18.1386 9.27274 18.0456 9.42014 17.9128 9.52565C17.78 9.63117 17.6154 9.68859 17.4458 9.68853Z" fill="black"/>
<path d="M6.05797 18.5089C5.95732 18.5091 5.85767 18.4889 5.76503 18.4495C5.67239 18.4102 5.58868 18.3524 5.51897 18.2798C4.18412 16.897 3.3219 15.1267 3.05611 13.2232C2.79032 11.3197 3.13465 9.3809 4.03966 7.68532C4.94466 5.98974 6.36377 4.62462 8.09316 3.78601C9.82254 2.94741 11.7732 2.67848 13.665 3.01785C13.7641 3.03276 13.8592 3.06739 13.9447 3.11969C14.0303 3.17199 14.1044 3.24089 14.1629 3.32234C14.2213 3.40379 14.2628 3.49614 14.2849 3.5939C14.3071 3.69167 14.3094 3.79288 14.2917 3.89156C14.2741 3.99023 14.2368 4.08436 14.1822 4.1684C14.1275 4.25243 14.0566 4.32466 13.9736 4.38081C13.8905 4.43696 13.7971 4.47588 13.6987 4.4953C13.6004 4.51472 13.4991 4.51423 13.401 4.49385C11.8215 4.21095 10.1929 4.43587 8.74919 5.13631C7.30548 5.83675 6.12088 6.97668 5.36547 8.39241C4.61005 9.80814 4.32271 11.4268 4.54469 13.0161C4.76668 14.6053 5.48654 16.0833 6.60097 17.2379C6.70321 17.3437 6.77206 17.4773 6.79891 17.622C6.82575 17.7668 6.80943 17.9162 6.75197 18.0517C6.69451 18.1872 6.59845 18.3028 6.47576 18.384C6.35307 18.4653 6.20915 18.5088 6.06197 18.5089H6.05797Z" fill="black"/>
<path d="M12.1208 21.1194C11.5843 21.1192 11.0488 21.0713 10.5208 20.9764C10.4213 20.962 10.3258 20.9276 10.2399 20.8755C10.154 20.8234 10.0794 20.7545 10.0206 20.673C9.96184 20.5915 9.92005 20.499 9.8977 20.4011C9.87535 20.3031 9.8729 20.2016 9.89053 20.1027C9.90816 20.0038 9.94549 19.9094 10.0003 19.8252C10.0551 19.7409 10.1263 19.6686 10.2096 19.6124C10.2929 19.5562 10.3867 19.5174 10.4853 19.4981C10.5839 19.4789 10.6855 19.4797 10.7838 19.5004C12.3631 19.7826 13.9912 19.5573 15.4345 18.8567C16.8778 18.1561 18.0621 17.0163 18.8173 15.6008C19.5726 14.1854 19.86 12.567 19.6384 10.9781C19.4168 9.38912 18.6975 7.91121 17.5838 6.75644C17.5118 6.68641 17.4546 6.60263 17.4156 6.51007C17.3765 6.41751 17.3565 6.31806 17.3567 6.21762C17.3568 6.11718 17.3771 6.01779 17.4164 5.92535C17.4557 5.83291 17.5132 5.74931 17.5854 5.6795C17.6576 5.60969 17.7431 5.5551 17.8368 5.51896C17.9306 5.48283 18.0306 5.46589 18.131 5.46914C18.2314 5.4724 18.3301 5.4958 18.4213 5.53793C18.5124 5.58007 18.5942 5.64009 18.6618 5.71443C19.9 6.99836 20.7331 8.61821 21.0573 10.3722C21.3815 12.1262 21.1825 13.9368 20.4851 15.5785C19.7877 17.2202 18.6227 18.6205 17.1352 19.6049C15.6477 20.5892 13.9035 21.1142 12.1198 21.1144L12.1208 21.1194Z" fill="black"/>
<path d="M11.5672 15.5104C11.2381 15.5129 10.9145 15.4258 10.6312 15.2584C10.3821 15.1055 10.1722 14.8967 10.018 14.6484C9.86384 14.4002 9.76974 14.1194 9.74318 13.8284C9.61165 12.6152 9.61165 11.3915 9.74318 10.1784C9.77168 9.88302 9.86951 9.59858 10.0287 9.34819C10.1878 9.09779 10.4039 8.8885 10.6592 8.73735C10.9276 8.58949 11.2267 8.50611 11.5328 8.49379C11.839 8.48146 12.1438 8.54053 12.4232 8.66635C13.4585 9.08471 14.4114 9.6837 15.2372 10.4354C15.467 10.6264 15.6519 10.8657 15.7788 11.1363C15.9057 11.4068 15.9715 11.702 15.9715 12.0009C15.9715 12.2997 15.9057 12.5949 15.7788 12.8654C15.6519 13.136 15.467 13.3753 15.2372 13.5664C14.4072 14.3166 13.4525 14.9159 12.4162 15.3374C12.1466 15.4481 11.8586 15.5068 11.5672 15.5104V15.5104ZM11.5892 9.99336C11.5253 9.99194 11.4621 10.0075 11.4062 10.0384C11.3547 10.0752 11.3123 10.1232 11.2822 10.1788C11.252 10.2344 11.235 10.2962 11.2322 10.3594C11.1126 11.4561 11.1126 12.5626 11.2322 13.6594C11.2358 13.7198 11.2521 13.7788 11.2802 13.8324C11.3083 13.886 11.3475 13.933 11.3952 13.9703C11.4689 14.0003 11.5482 14.0139 11.6276 14.0101C11.7071 14.0063 11.7847 13.9853 11.8552 13.9484C12.7249 13.5947 13.526 13.0914 14.2222 12.4614C14.2923 12.4047 14.3503 12.3345 14.3927 12.255C14.4352 12.1754 14.4612 12.0881 14.4692 11.9983C14.4613 11.9103 14.4356 11.8247 14.3937 11.7468C14.3518 11.6689 14.2944 11.6004 14.2252 11.5454C13.5263 10.911 12.7205 10.4055 11.8452 10.0523C11.7647 10.0158 11.6776 9.99575 11.5892 9.99336V9.99336Z" fill="black"/>
</svg>