<svg width="24" height="24" viewBox="0 0 24 24" fill="none" xmlns="http://www.w3.org/2000/svg">
<path fill-rule="evenodd" clip-rule="evenodd" d="M11.0837 5.66797C7.58857 5.66797 4.75 8.50654 4.75 12.0017C4.75 15.5044 7.58801 18.3354 11.0837 18.3354C13.2512 18.3354 15.1648 17.2527 16.3062 15.5982C16.5415 15.2573 17.0086 15.1716 17.3495 15.4068C17.6904 15.6421 17.7761 16.1092 17.5409 16.4501C16.13 18.495 13.7626 19.8354 11.0837 19.8354C6.7607 19.8354 3.25 16.3339 3.25 12.0017C3.25 7.67811 6.76014 4.16797 11.0837 4.16797C15.344 4.16797 18.8092 7.56197 18.9253 11.7954C18.9366 12.2094 18.6102 12.5543 18.1961 12.5656C17.782 12.577 17.4372 12.2505 17.4258 11.8365C17.3319 8.41266 14.5291 5.66797 11.0837 5.66797Z" fill="black"/>
<path fill-rule="evenodd" clip-rule="evenodd" d="M20.2924 7.40687C20.6739 7.56818 20.8524 8.00823 20.6911 8.38974L19.0829 12.1933C18.9216 12.5748 18.4816 12.7533 18.1001 12.592L14.3175 10.9927C13.936 10.8314 13.7575 10.3914 13.9188 10.0099C14.0801 9.62836 14.5201 9.44984 14.9016 9.61115L17.9934 10.9184L19.3095 7.8056C19.4708 7.42408 19.9109 7.24557 20.2924 7.40687Z" fill="black"/>
</svg>