<svg width="24" height="25" viewBox="0 0 24 25" fill="none" xmlns="http://www.w3.org/2000/svg">
<path d="M4.0854 9.26081L3.0024 9.25781H3.0004C2.5954 9.25781 2.2314 9.50081 2.0764 9.87381C1.9204 10.2478 2.0064 10.6788 2.2924 10.9648L4.3344 13.0058C4.5184 13.2208 4.7814 13.3638 5.0854 13.3638C5.0904 13.3638 5.0944 13.3618 5.0994 13.3618C5.1014 13.3618 5.1034 13.3628 5.1054 13.3628C5.3614 13.3628 5.6174 13.2648 5.8124 13.0698L7.9054 10.9768C8.1914 10.6908 8.2764 10.2618 8.1234 9.88881C7.9684 9.51481 7.6054 9.27081 7.2014 9.26981L6.0854 9.26681L4.0854 9.26081Z" fill="black"/>
<path opacity="0.4" d="M9.31445 3.29297H16.7715C19.8495 3.29297 22.0005 5.53197 22.0005 8.73697V15.764C22.0005 18.969 19.8494 21.207 16.7694 21.207H9.31445C6.23645 21.207 4.08545 18.969 4.08545 15.764C4.08545 15.212 4.53345 14.764 5.08545 14.764C5.63845 14.764 6.08545 15.212 6.08545 15.764C6.08545 17.888 7.32345 19.207 9.31445 19.207H16.7694C18.7614 19.207 20.0005 17.888 20.0005 15.764V8.73697C20.0005 6.61297 18.7625 5.29297 16.7715 5.29297H9.31445C7.32345 5.29297 6.08545 6.61297 6.08545 8.73697V9.26697L4.08545 9.26097V8.73697C4.08545 5.53197 6.23645 3.29297 9.31445 3.29297Z" fill="black"/>
</svg>