<svg width="24" height="25" viewBox="0 0 24 25" fill="none" xmlns="http://www.w3.org/2000/svg">
<path d="M15.8456 12.1977C15.7873 9.90923 13.9104 8.07031 11.6025 8.07031C9.26056 8.07031 7.35938 9.9715 7.35938 12.3134C7.35938 14.6603 9.26056 16.5566 11.6025 16.5566C12.844 16.5566 13.9581 16.0263 14.7355 15.1789" stroke="black" stroke-width="1.5" stroke-linecap="round" stroke-linejoin="round"/>
<path d="M16.9422 9.97656L15.9789 12.2553L13.7129 11.2969" stroke="black" stroke-width="1.5" stroke-linecap="round" stroke-linejoin="round"/>
<path d="M15.1982 21.25H15.9736C18.9188 21.25 21 19.415 21 16.4669V8.03216C21 5.09281 18.9188 3.25 15.9736 3.25H8.02638C5.08119 3.25 3 5.08405 3 8.03216V16.4659C3 19.415 5.08119 21.25 8.02638 21.25H11.762" stroke="black" stroke-width="1.5" stroke-linecap="round" stroke-linejoin="round"/>
</svg>