<svg width="24" height="24" viewBox="0 0 24 24" fill="none" xmlns="http://www.w3.org/2000/svg">
<path fill-rule="evenodd" clip-rule="evenodd" d="M18.6996 6.89732C16.9463 6.02064 14.5767 5.5 12 5.5C9.4233 5.5 7.05366 6.02064 5.30045 6.89732C3.59209 7.75156 2.25 9.0704 2.25 10.75C2.25 12.4296 3.59209 13.7484 5.30045 14.6027C7.05366 15.4794 9.4233 16 12 16H13C13.4142 16 13.75 15.6642 13.75 15.25C13.75 14.8358 13.4142 14.5 13 14.5H12C9.60569 14.5 7.47534 14.0131 5.97131 13.2611C4.42241 12.4866 3.75 11.5554 3.75 10.75C3.75 9.9446 4.42241 9.01344 5.97131 8.23893C7.47534 7.48686 9.60569 7 12 7C14.3943 7 16.5247 7.48686 18.0287 8.23893C19.5776 9.01344 20.25 9.9446 20.25 10.75C20.25 11.2561 19.9951 11.8029 19.3978 12.3496C18.7988 12.8977 17.9013 13.3984 16.7619 13.7798C16.3692 13.9113 16.1573 14.3363 16.2888 14.7291C16.4203 15.1219 16.8453 15.3337 17.2381 15.2022C18.5097 14.7766 19.6122 14.1868 20.4105 13.4561C21.2104 12.7241 21.75 11.8039 21.75 10.75C21.75 9.0704 20.4079 7.75156 18.6996 6.89732Z" fill="black"/>
<path fill-rule="evenodd" clip-rule="evenodd" d="M9.96967 12.2197C9.67678 12.5126 9.67678 12.9874 9.96967 13.2803L11.9393 15.25L9.96967 17.2197C9.67678 17.5126 9.67678 17.9874 9.96967 18.2803C10.2626 18.5732 10.7374 18.5732 11.0303 18.2803L13.5303 15.7803C13.8232 15.4874 13.8232 15.0126 13.5303 14.7197L11.0303 12.2197C10.7374 11.9268 10.2626 11.9268 9.96967 12.2197Z" fill="black"/>
</svg>