<svg width="24" height="24" viewBox="0 0 24 24" fill="none" xmlns="http://www.w3.org/2000/svg">
<path fill-rule="evenodd" clip-rule="evenodd" d="M13.0309 16.4552C13.3245 16.7474 13.3256 17.2223 13.0334 17.5159L12.0948 18.4589L13.03 19.3897C13.3236 19.6819 13.3247 20.1567 13.0325 20.4503C12.7403 20.7439 12.2655 20.745 11.9719 20.4528L10.5051 18.9929C10.3641 18.8526 10.2846 18.662 10.2842 18.4631C10.2837 18.2642 10.3623 18.0733 10.5026 17.9323L11.9702 16.4577C12.2625 16.1642 12.7373 16.163 13.0309 16.4552Z" fill="black"/>
<path fill-rule="evenodd" clip-rule="evenodd" d="M17.8577 8.50025C18.2571 8.61023 18.4917 9.02312 18.3817 9.42247L17.8324 11.417C17.7796 11.6088 17.6527 11.7717 17.4798 11.87C17.3068 11.9682 17.1019 11.9937 16.9101 11.9409L14.9036 11.3882C14.5042 11.2782 14.2697 10.8653 14.3797 10.4659C14.4897 10.0666 14.9026 9.83203 15.3019 9.94204L16.5854 10.2956L16.9355 9.0242C17.0455 8.62485 17.4584 8.39027 17.8577 8.50025Z" fill="black"/>
<path fill-rule="evenodd" clip-rule="evenodd" d="M12.9134 5.34341C12.5275 4.66381 11.5507 4.6587 11.1589 5.32249L11.1578 5.32434L10.179 6.97133C9.96745 7.32742 9.50724 7.44455 9.15116 7.23295C8.79507 7.02135 8.67794 6.56115 8.88954 6.20506L9.86716 4.55991C9.86736 4.55958 9.86755 4.55925 9.86775 4.55891C10.8507 2.89554 13.2671 2.92864 14.2177 4.60268C14.2177 4.60264 14.2177 4.60272 14.2177 4.60268L17.7609 10.8406C17.9655 11.2007 17.8394 11.6586 17.4792 11.8631C17.119 12.0677 16.6612 11.9416 16.4566 11.5814L12.9134 5.34341Z" fill="black"/>
<path fill-rule="evenodd" clip-rule="evenodd" d="M18.4173 13.4906C18.7767 13.2846 19.235 13.4088 19.441 13.7682L20.393 15.4283C20.3931 15.4285 20.3933 15.4288 20.3935 15.4291C21.3574 17.1023 20.1425 19.1909 18.2172 19.1959H18.2171L11.0418 19.2131C10.6276 19.2141 10.291 18.8791 10.29 18.4649C10.289 18.0507 10.624 17.7141 11.0382 17.7131L18.2133 17.6959C18.2134 17.6959 18.2134 17.6959 18.2135 17.6959C18.9936 17.6938 19.479 16.8461 19.0935 16.1775L19.0926 16.176L18.1398 14.5143C17.9337 14.155 18.058 13.6967 18.4173 13.4906Z" fill="black"/>
<path fill-rule="evenodd" clip-rule="evenodd" d="M8.57181 12.339C8.17196 12.4471 7.76015 12.2106 7.65201 11.8108L7.30465 10.5265L6.03097 10.871C5.63112 10.9792 5.21931 10.7427 5.11116 10.3428C5.00301 9.94299 5.23948 9.53118 5.63933 9.42303L7.63701 8.88271C7.82902 8.83077 8.0338 8.85724 8.2063 8.95629C8.3788 9.05534 8.50488 9.21886 8.55681 9.41088L9.09998 11.4192C9.20813 11.819 8.97165 12.2308 8.57181 12.339Z" fill="black"/>
<path fill-rule="evenodd" clip-rule="evenodd" d="M8.44585 18.4859C8.44463 18.9001 8.10786 19.2349 7.69364 19.2337L5.77996 19.228C5.77965 19.228 5.78028 19.228 5.77996 19.228C3.84889 19.2262 2.64663 17.1298 3.60505 15.4599L7.17778 9.23728C7.38403 8.87807 7.84242 8.75406 8.20164 8.9603C8.56085 9.16655 8.68486 9.62494 8.47862 9.98416L4.906 16.2066C4.90598 16.2066 4.90602 16.2066 4.906 16.2066C4.5177 16.8833 5.00905 17.7276 5.78083 17.728L5.7826 17.728L7.69806 17.7337C8.11227 17.7349 8.44707 18.0717 8.44585 18.4859Z" fill="black"/>
</svg>