<svg width="24" height="24" viewBox="0 0 24 24" fill="none" xmlns="http://www.w3.org/2000/svg">
<path fill-rule="evenodd" clip-rule="evenodd" d="M16.218 10.074C16.082 10.178 15.921 10.229 15.762 10.229C15.536 10.229 15.314 10.129 15.166 9.936C15.09 9.837 14.924 9.67 14.673 9.67C14.422 9.67 14.256 9.837 14.18 9.936C13.929 10.265 13.456 10.326 13.128 10.074C12.8 9.822 12.739 9.35 12.99 9.022C13.822 7.939 15.524 7.939 16.356 9.022C16.608 9.35 16.546 9.822 16.218 10.074ZM15.474 14.746C14.608 15.874 13.341 16.521 11.999 16.521C10.658 16.521 9.393 15.874 8.525 14.747C8.273 14.418 8.334 13.948 8.662 13.695C8.989 13.441 9.461 13.505 9.714 13.832C10.295 14.588 11.128 15.021 11.999 15.021C12.871 15.021 13.704 14.588 14.284 13.832C14.535 13.505 15.006 13.442 15.336 13.695C15.664 13.947 15.726 14.418 15.474 14.746ZM7.662 10.074C7.333 9.823 7.271 9.352 7.523 9.023C8.353 7.939 10.059 7.939 10.889 9.023C11.141 9.352 11.078 9.823 10.749 10.074C10.614 10.179 10.452 10.229 10.294 10.229C10.069 10.229 9.846 10.128 9.697 9.935C9.622 9.836 9.457 9.67 9.205 9.67C8.954 9.67 8.789 9.836 8.714 9.935C8.463 10.263 7.991 10.327 7.662 10.074ZM12 2.5C6.762 2.5 2.5 6.762 2.5 12C2.5 17.239 6.762 21.5 12 21.5C17.239 21.5 21.5 17.239 21.5 12C21.5 6.762 17.239 2.5 12 2.5Z" fill="black"/>
</svg>