<svg width="25" height="24" viewBox="0 0 25 24" fill="none" xmlns="http://www.w3.org/2000/svg">
<path opacity="0.4" d="M12.5 21C17.4709 21 21.5 16.9699 21.5 12C21.5 7.02908 17.4709 3 12.5 3C7.52908 3 3.5 7.02908 3.5 12C3.5 16.9699 7.52908 21 12.5 21Z" stroke="black" stroke-width="1.5" stroke-linecap="round" stroke-linejoin="round"/>
<path d="M9.61914 14.2891C10.3207 15.2017 11.353 15.7709 12.4991 15.7709C13.6453 15.7709 14.6776 15.2017 15.3791 14.2891" stroke="black" stroke-width="1.5" stroke-linecap="round" stroke-linejoin="round"/>
<path d="M8.61719 9.47743C8.88184 9.133 9.272 8.91797 9.70497 8.91797C10.1379 8.91797 10.5281 9.133 10.7928 9.47743" stroke="black" stroke-width="1.5" stroke-linecap="round" stroke-linejoin="round"/>
<path d="M14.085 9.47743C14.3496 9.133 14.7398 8.91797 15.1727 8.91797C15.6057 8.91797 15.9959 9.133 16.2605 9.47743" stroke="black" stroke-width="1.5" stroke-linecap="round" stroke-linejoin="round"/>
</svg>