<svg width="25" height="24" viewBox="0 0 25 24" fill="none" xmlns="http://www.w3.org/2000/svg">
<path fill-rule="evenodd" clip-rule="evenodd" d="M12.25 3.75C7.69329 3.75 4 7.44329 4 12C4 16.5558 7.69335 20.25 12.25 20.25C16.8067 20.25 20.5 16.5558 20.5 12C20.5 7.44329 16.8067 3.75 12.25 3.75ZM2.5 12C2.5 6.61487 6.86487 2.25 12.25 2.25C17.6351 2.25 22 6.61487 22 12C22 17.3841 17.6352 21.75 12.25 21.75C6.86481 21.75 2.5 17.3841 2.5 12Z" fill="black"/>
<path fill-rule="evenodd" clip-rule="evenodd" d="M8.91211 13.6945C9.24052 13.442 9.71138 13.5036 9.96381 13.832C10.5409 14.5828 11.3633 15.0209 12.2492 15.0209C13.1351 15.0209 13.9575 14.5828 14.5345 13.832C14.787 13.5036 15.2578 13.442 15.5862 13.6945C15.9147 13.9469 15.9762 14.4178 15.7238 14.7462C14.8978 15.8207 13.6556 16.5209 12.2492 16.5209C10.8428 16.5209 9.60052 15.8207 8.77455 14.7462C8.52211 14.4178 8.5837 13.9469 8.91211 13.6945Z" fill="black"/>
<path fill-rule="evenodd" clip-rule="evenodd" d="M9.45501 9.66797C9.28205 9.66797 9.10194 9.75218 8.96194 9.93439C8.70957 10.2628 8.23872 10.3245 7.91027 10.0721C7.58181 9.81978 7.52014 9.34892 7.77251 9.02047C8.1618 8.51381 8.76203 8.16797 9.45501 8.16797C10.148 8.16797 10.7482 8.51381 11.1375 9.02047C11.3899 9.34892 11.3282 9.81978 10.9998 10.0721C10.6713 10.3245 10.2004 10.2628 9.94808 9.93439C9.80807 9.75218 9.62797 9.66797 9.45501 9.66797Z" fill="black"/>
<path fill-rule="evenodd" clip-rule="evenodd" d="M14.9228 9.66797C14.7498 9.66797 14.5697 9.75218 14.4297 9.93439C14.1773 10.2628 13.7065 10.3245 13.378 10.0721C13.0496 9.81978 12.9879 9.34892 13.2403 9.02047C13.6296 8.51381 14.2298 8.16797 14.9228 8.16797C15.6158 8.16797 16.216 8.51381 16.6053 9.02047C16.8577 9.34892 16.796 9.81978 16.4675 10.0721C16.1391 10.3245 15.6682 10.2628 15.4158 9.93439C15.2758 9.75218 15.0957 9.66797 14.9228 9.66797Z" fill="black"/>
</svg>