<svg width="25" height="24" viewBox="0 0 25 24" fill="none" xmlns="http://www.w3.org/2000/svg">
<path opacity="0.4" fill-rule="evenodd" clip-rule="evenodd" d="M16.717 2.5H8.283C5.124 2.5 3 4.72 3 8.026V15.973C3 19.279 5.124 21.5 8.283 21.5H16.716C19.876 21.5 22 19.279 22 15.973V8.026C22 4.72 19.877 2.5 16.717 2.5Z" fill="black"/>
<path fill-rule="evenodd" clip-rule="evenodd" d="M17.0199 9.62862C16.5969 10.1806 15.9729 10.4976 15.3079 10.4976C14.6419 10.4976 14.0179 10.1806 13.5959 9.62762C13.3439 9.29862 13.4079 8.82762 13.7369 8.57662C14.0669 8.32262 14.5379 8.38962 14.7879 8.71662C14.8679 8.82162 15.0409 8.99762 15.3079 8.99762C15.5749 8.99762 15.7489 8.82062 15.8309 8.71562C16.0819 8.38762 16.5529 8.32462 16.8809 8.57662C17.2099 8.82862 17.2729 9.29962 17.0199 9.62862Z" fill="black"/>
<path fill-rule="evenodd" clip-rule="evenodd" d="M12.5629 16.6186C11.1909 16.6186 9.89592 15.9576 9.00992 14.8046C8.75792 14.4766 8.81992 14.0056 9.14792 13.7536C9.47892 13.5006 9.94792 13.5636 10.1999 13.8906C10.7989 14.6706 11.6609 15.1186 12.5629 15.1186C12.9769 15.1186 13.3129 15.4546 13.3129 15.8686C13.3129 16.2826 12.9769 16.6186 12.5629 16.6186Z" fill="black"/>
<path fill-rule="evenodd" clip-rule="evenodd" d="M7.97883 9.62762C7.72683 9.29862 7.79083 8.82762 8.11983 8.57662C8.44983 8.32262 8.91883 8.38962 9.16983 8.71662C9.24983 8.82162 9.42483 8.99762 9.69183 8.99762C9.95783 8.99762 10.1318 8.82062 10.2128 8.71562C10.4648 8.38762 10.9358 8.32462 11.2638 8.57662C11.5928 8.82862 11.6558 9.29962 11.4028 9.62862C10.9798 10.1806 10.3558 10.4976 9.69183 10.4976C9.02583 10.4976 8.40083 10.1806 7.97883 9.62762Z" fill="black"/>
</svg>