<svg width="24" height="24" viewBox="0 0 24 24" fill="none" xmlns="http://www.w3.org/2000/svg">
<path d="M12 21C16.9709 21 21 16.9699 21 12C21 7.02908 16.9709 3 12 3C7.02908 3 3 7.02908 3 12C3 16.9699 7.02908 21 12 21Z" stroke="black" stroke-width="1.5" stroke-linecap="round" stroke-linejoin="round"/>
<path d="M9.11914 14.2891C9.82065 15.2017 10.853 15.7709 11.9991 15.7709C13.1453 15.7709 14.1776 15.2017 14.8791 14.2891" stroke="black" stroke-width="1.5" stroke-linecap="round" stroke-linejoin="round"/>
<path d="M8.11719 9.47743C8.38184 9.133 8.772 8.91797 9.20497 8.91797C9.63794 8.91797 10.0281 9.133 10.2928 9.47743" stroke="black" stroke-width="1.5" stroke-linecap="round" stroke-linejoin="round"/>
<path d="M13.585 9.47743C13.8496 9.133 14.2398 8.91797 14.6727 8.91797C15.1057 8.91797 15.4959 9.133 15.7605 9.47743" stroke="black" stroke-width="1.5" stroke-linecap="round" stroke-linejoin="round"/>
</svg>