<svg width="24" height="24" viewBox="0 0 24 24" fill="none" xmlns="http://www.w3.org/2000/svg">
<path d="M4.58327 17.0991C1.76947 13.0088 2.80664 7.40359 6.89696 4.58979C10.9279 1.81686 16.4154 2.7723 19.2808 6.70306" stroke="black" stroke-width="1.5" stroke-linecap="round" stroke-linejoin="round"/>
<path d="M20.9999 12.0068C20.996 14.8605 19.628 17.6685 17.0935 19.413C14.1465 21.4402 10.4158 21.4731 7.50586 19.8001" stroke="black" stroke-width="1.5" stroke-linecap="round" stroke-linejoin="round"/>
<path d="M19.2655 3.27539L19.466 6.68269L16.0781 6.88215" stroke="black" stroke-width="1.5" stroke-linecap="round" stroke-linejoin="round"/>
<path d="M11.7283 8.68652C13.3658 8.68652 14.6929 10.0136 14.6929 11.6511C14.6929 13.2886 13.3658 14.6167 11.7283 14.6167C10.0908 14.6167 8.76367 13.2886 8.76367 11.6511C8.76367 10.9641 8.99728 10.3317 9.3894 9.82907" stroke="black" stroke-width="1.5" stroke-linecap="round" stroke-linejoin="round"/>
<path d="M13.7461 13.8232L15.2386 15.3128" stroke="black" stroke-width="1.5" stroke-linecap="round" stroke-linejoin="round"/>
</svg>