<svg width="25" height="25" viewBox="0 0 25 25" fill="none" xmlns="http://www.w3.org/2000/svg">
<path fill-rule="evenodd" clip-rule="evenodd" d="M4.25684 19.2453C4.25684 20.3313 5.13734 21.2113 6.22314 21.2113C7.30894 21.2113 8.18954 20.3313 8.18954 19.2453C8.18954 18.1593 7.30894 17.2793 6.22314 17.2793C5.13734 17.2793 4.25684 18.1593 4.25684 19.2453Z" stroke="black" stroke-width="1.5" stroke-linecap="round" stroke-linejoin="round"/>
<path fill-rule="evenodd" clip-rule="evenodd" d="M16.8975 6.61249C16.8975 7.69849 17.778 8.57849 18.8638 8.57849C19.9496 8.57849 20.8301 7.69849 20.8301 6.61249C20.8301 5.52649 19.9496 4.64648 18.8638 4.64648C17.778 4.64648 16.8975 5.52649 16.8975 6.61249Z" stroke="black" stroke-width="1.5" stroke-linecap="round" stroke-linejoin="round"/>
<path opacity="0.4" d="M3.49902 12.9538C3.50782 7.9808 7.53102 3.9668 12.5028 3.9668C14.2813 3.9668 15.9392 4.4858 17.3286 5.3748" stroke="black" stroke-width="1.5" stroke-linecap="round" stroke-linejoin="round"/>
<path opacity="0.4" d="M21.5005 12.9668C21.5005 17.9398 17.4773 21.9708 12.5045 21.9708C10.7269 21.9708 9.06901 21.4528 7.67871 20.5638" stroke="black" stroke-width="1.5" stroke-linecap="round" stroke-linejoin="round"/>
<path fill-rule="evenodd" clip-rule="evenodd" d="M13.7435 13.2969C14.2621 12.9139 14.6026 12.3039 14.6026 11.6099C14.6026 10.4479 13.6618 9.50586 12.5 9.50586C11.3383 9.50586 10.3975 10.4479 10.3975 11.6099C10.3975 12.3039 10.737 12.9139 11.2556 13.2969L10.6047 15.2559C10.413 15.8329 10.8431 16.4289 11.4502 16.4289H13.5489C14.157 16.4289 14.5861 15.8329 14.3944 15.2559L13.7435 13.2969Z" stroke="black" stroke-width="1.5" stroke-linecap="round" stroke-linejoin="round"/>
</svg>