<svg width="25" height="24" viewBox="0 0 25 24" fill="none" xmlns="http://www.w3.org/2000/svg">
<path fill-rule="evenodd" clip-rule="evenodd" d="M21.8367 11.2638C21.4227 11.2638 21.0867 11.5988 21.0857 12.0128C21.0817 14.7298 19.7427 17.2688 17.5037 18.8048C13.7547 21.3798 8.60966 20.4318 6.03666 16.6888C4.78966 14.8748 4.32366 12.6828 4.72466 10.5148C5.12566 8.34681 6.34466 6.46681 8.15866 5.22081C11.1347 3.16881 14.9297 3.31481 17.6867 5.33081L17.1457 5.94181C16.9607 6.15081 16.9067 6.44581 17.0067 6.70681C17.1077 6.96781 17.3437 7.15181 17.6217 7.18381L20.2147 7.48081C20.2437 7.48381 20.2727 7.48581 20.3007 7.48581C20.5067 7.48581 20.7067 7.39981 20.8487 7.24681C21.0107 7.07381 21.0817 6.83181 21.0377 6.59881L20.5437 3.93281C20.4907 3.65081 20.2827 3.42281 20.0067 3.34681C19.7317 3.27081 19.4347 3.35781 19.2447 3.57281L18.6897 4.19881C15.4217 1.72981 10.8677 1.52981 7.30766 3.98581C5.16466 5.45681 3.72266 7.67981 3.24966 10.2428C2.77566 12.8038 3.32666 15.3958 4.80066 17.5378C6.68666 20.2808 9.73767 21.7538 12.8407 21.7538C14.7447 21.7538 16.6687 21.1998 18.3527 20.0408C20.9987 18.2258 22.5817 15.2258 22.5857 12.0148C22.5867 11.6008 22.2507 11.2648 21.8367 11.2638Z" fill="black"/>
<path fill-rule="evenodd" clip-rule="evenodd" d="M11.1341 8.52356C10.6461 8.80456 10.3341 9.29956 10.2531 9.92756C10.1061 11.2436 10.1051 12.6456 10.2541 14.1056C10.3301 14.7246 10.6361 15.2196 11.1141 15.5026C11.3811 15.6596 11.6821 15.7386 12.0011 15.7386C12.2731 15.7386 12.5571 15.6806 12.8441 15.5656C13.9931 15.0926 15.0841 14.4006 15.9991 13.5626C16.0001 13.5616 16.0011 13.5606 16.0021 13.5596C16.4741 13.1226 16.7331 12.5676 16.7301 12.0006C16.7271 11.4346 16.4671 10.8896 16.0011 10.4656C15.1051 9.63756 14.0441 8.96356 12.8471 8.46156C12.2561 8.21356 11.6321 8.23756 11.1341 8.52356Z" fill="black"/>
</svg>