<svg width="25" height="24" viewBox="0 0 25 24" fill="none" xmlns="http://www.w3.org/2000/svg">
<path d="M3.87851 5.28225C4.17151 4.98925 4.64651 4.98925 4.93951 5.28225L19.0055 19.3483C19.2985 19.6413 19.2985 20.1163 19.0055 20.4093C18.8595 20.5553 18.6675 20.6292 18.4755 20.6292C18.2835 20.6292 18.0915 20.5553 17.9455 20.4093L15.5525 18.0162H7.60351C7.23451 18.0162 6.49251 17.9663 5.65651 17.6263C3.87951 16.8203 2.74951 15.0693 2.74951 13.1543C2.74951 10.8583 4.05751 9.12725 6.05551 8.51925L3.87851 6.34325C3.58551 6.05025 3.58551 5.57525 3.87851 5.28225Z" fill="black"/>
<path opacity="0.4" d="M16.9024 5.50609C17.6054 6.43109 17.9614 7.47109 18.0894 8.31409C20.5714 8.63409 22.2504 10.5411 22.2504 13.1531C22.2504 14.5531 21.6554 15.8821 20.6184 16.8001C20.4754 16.9251 20.2984 16.9881 20.1214 16.9881C19.9284 16.9881 19.7364 16.9141 19.5904 16.7681L8.70539 5.88309C8.56239 5.74009 8.48339 5.54509 8.48539 5.34309C8.48839 5.14109 8.57239 4.94809 8.71939 4.80909C9.71239 3.86809 11.0194 3.37109 12.4994 3.37109C14.8124 3.37109 16.1704 4.53209 16.9024 5.50609Z" fill="black"/>
</svg>