<svg width="25" height="24" viewBox="0 0 25 24" fill="none" xmlns="http://www.w3.org/2000/svg">
<path opacity="0.4" d="M15.2915 3H9.70951C9.11114 3 8.53611 3.23741 8.11286 3.66162L4.16162 7.61286C3.73838 8.03611 3.5 8.61016 3.5 9.20854V14.7905C3.5 15.3889 3.73838 15.9639 4.16162 16.3871L8.11286 20.3384C8.53611 20.7616 9.11114 21 9.70951 21H15.2915C15.8898 21 16.4639 20.7616 16.8871 20.3384L20.8394 16.3871C21.2626 15.9639 21.5 15.3889 21.5 14.7905V9.20854C21.5 8.61016 21.2626 8.03611 20.8394 7.61286L16.8871 3.66162C16.4639 3.23741 15.8898 3 15.2915 3Z" stroke="black" stroke-width="1.5" stroke-linecap="round" stroke-linejoin="round"/>
<path d="M14.8304 9.66646L10.1679 14.329M14.8363 14.3353L10.166 9.66504" stroke="black" stroke-width="1.5" stroke-linecap="round" stroke-linejoin="round"/>
</svg>