<svg width="25" height="24" viewBox="0 0 25 24" fill="none" xmlns="http://www.w3.org/2000/svg">
<path d="M6.60449 17.613C6.81174 17.6403 7.01898 17.649 7.23498 17.649H14.5517C16.6582 17.649 18.1157 16.6683 18.5477 14.841C18.6382 14.4713 18.683 14.0578 18.683 13.617V10.269C18.683 9.80103 18.6295 9.3593 18.5302 8.97303C18.323 8.0993 17.8822 7.42503 17.2615 6.95605" stroke="black" stroke-width="1.5" stroke-linecap="round" stroke-linejoin="round"/>
<path d="M18.5254 8.9707H19.3252C20.627 8.9707 21.1193 9.71308 21.1193 11.0704V12.7779C21.1193 14.1109 20.627 14.8377 19.3252 14.8377H18.5332" stroke="black" stroke-width="1.5" stroke-linecap="round" stroke-linejoin="round"/>
<path opacity="0.4" d="M3.60758 15.7955C3.28358 15.202 3.12109 14.4723 3.12109 13.617V10.2068C3.12109 7.58753 4.69634 6.16504 7.24358 6.16504H13.2293" stroke="black" stroke-width="1.5" stroke-linecap="round" stroke-linejoin="round"/>
<path d="M4.76172 19.4538L19.6686 4.5459" stroke="black" stroke-width="1.5" stroke-linecap="round" stroke-linejoin="round"/>
</svg>