<svg width="24" height="24" viewBox="0 0 24 24" fill="none" xmlns="http://www.w3.org/2000/svg">
<path opacity="0.4" fill-rule="evenodd" clip-rule="evenodd" d="M12 2.5C6.762 2.5 2.5 6.761 2.5 12C2.5 17.238 6.762 21.5 12 21.5C17.238 21.5 21.5 17.238 21.5 12C21.5 6.761 17.238 2.5 12 2.5Z" fill="black"/>
<path fill-rule="evenodd" clip-rule="evenodd" d="M14.866 14.8638C14.72 15.0098 14.528 15.0838 14.336 15.0838C14.143 15.0838 13.952 15.0098 13.805 14.8638L11.999 13.0568L10.198 14.8578C9.90501 15.1508 9.43001 15.1508 9.13701 14.8578C8.84501 14.5648 8.84501 14.0908 9.13701 13.7978L10.938 11.9968L9.13601 10.1938C8.84301 9.90081 8.84301 9.42681 9.13601 9.13381C9.42901 8.84081 9.90301 8.84081 10.196 9.13381L11.998 10.9358L13.8 9.13481C14.093 8.84181 14.567 8.84181 14.86 9.13481C15.153 9.42681 15.153 9.90181 14.86 10.1948L13.059 11.9968L14.866 13.8028C15.159 14.0958 15.159 14.5708 14.866 14.8638Z" fill="black"/>
</svg>