<svg width="24" height="24" viewBox="0 0 24 24" fill="none" xmlns="http://www.w3.org/2000/svg">
<path fill-rule="evenodd" clip-rule="evenodd" d="M2.70812 7.89741C3.08964 7.73611 3.52968 7.91462 3.69099 8.29613L4.84155 11.0174L7.54396 9.87479C7.92547 9.71348 8.36552 9.892 8.52682 10.2735C8.68813 10.655 8.50961 11.0951 8.1281 11.2564L4.7349 12.691C4.35339 12.8523 3.91334 12.6738 3.75204 12.2923L2.3094 8.88028C2.14809 8.49876 2.32661 8.05872 2.70812 7.89741Z" fill="black"/>
<path fill-rule="evenodd" clip-rule="evenodd" d="M12.9737 4.72363C9.01475 4.72363 5.79653 7.87731 5.69703 11.7994C5.68652 12.2135 5.34233 12.5407 4.92825 12.5302C4.51417 12.5197 4.18701 12.1755 4.19751 11.7614C4.31766 7.02557 8.2015 3.22363 12.9737 3.22363C17.8175 3.22363 21.7501 7.15621 21.7501 12C21.7501 16.8536 17.817 20.7765 12.9737 20.7765C9.97106 20.7765 7.32944 19.2738 5.74064 16.9856C5.5044 16.6453 5.58871 16.178 5.92895 15.9417C6.26919 15.7055 6.73652 15.7898 6.97276 16.1301C8.29433 18.0335 10.485 19.2765 12.9737 19.2765C16.9897 19.2765 20.2501 16.0241 20.2501 12C20.2501 7.98463 16.9891 4.72363 12.9737 4.72363Z" fill="black"/>
<path fill-rule="evenodd" clip-rule="evenodd" d="M13.7971 8.15378C14.033 8.28667 14.179 8.53645 14.179 8.80725V15.1949C14.179 15.6091 13.8432 15.9449 13.429 15.9449C13.0148 15.9449 12.679 15.6091 12.679 15.1949V10.1388L11.9284 10.5938C11.5742 10.8085 11.113 10.6953 10.8983 10.3411C10.6836 9.98689 10.7967 9.52568 11.1509 9.31098L13.0403 8.16586C13.2719 8.0255 13.5611 8.02088 13.7971 8.15378Z" fill="black"/>
</svg>