<svg width="24" height="24" viewBox="0 0 24 24" fill="none" xmlns="http://www.w3.org/2000/svg">
<path fill-rule="evenodd" clip-rule="evenodd" d="M2.25 10.6892C2.25 7.17418 5.09861 4.32422 8.614 4.32422H15.385C18.9002 4.32422 21.75 7.174 21.75 10.6892C21.75 12.2439 21.1917 13.669 20.2659 14.7739C19.9998 15.0914 19.5268 15.1331 19.2093 14.8671C18.8918 14.601 18.8501 14.128 19.1161 13.8105C19.8243 12.9654 20.25 11.8785 20.25 10.6892C20.25 8.00243 18.0718 5.82422 15.385 5.82422H8.614C5.92739 5.82422 3.75 8.00226 3.75 10.6892C3.75 13.376 5.92721 15.5532 8.614 15.5532H15.385C15.7992 15.5532 16.135 15.889 16.135 16.3032C16.135 16.7174 15.7992 17.0532 15.385 17.0532H8.614C5.09879 17.0532 2.25 14.2044 2.25 10.6892Z" fill="black"/>
<path fill-rule="evenodd" clip-rule="evenodd" d="M12.2353 13.1494C12.5282 12.8565 13.0031 12.8565 13.296 13.1494L15.919 15.7724C16.2118 16.0652 16.2119 16.54 15.9191 16.8329L13.2961 19.4569C13.0032 19.7499 12.5283 19.75 12.2354 19.4571C11.9424 19.1643 11.9424 18.6894 12.2352 18.3965L14.3281 16.3028L12.2353 14.21C11.9424 13.9171 11.9424 13.4423 12.2353 13.1494Z" fill="black"/>
</svg>