<svg width="24" height="24" viewBox="0 0 24 24" fill="none" xmlns="http://www.w3.org/2000/svg">
<path fill-rule="evenodd" clip-rule="evenodd" d="M9.51758 6.3877C9.51758 5.97348 9.85336 5.6377 10.2676 5.6377H15.3866C17.1356 5.6377 18.7283 6.35148 19.8806 7.50302C21.0346 8.64633 21.7486 10.2419 21.7486 11.9997C21.7486 13.5579 21.1883 14.9747 20.2624 16.0795C19.9963 16.3969 19.5233 16.4386 19.2058 16.1725C18.8884 15.9064 18.8467 15.4334 19.1128 15.1159C19.8228 14.2687 20.2486 13.1895 20.2486 11.9997C20.2486 10.6541 19.7031 9.43824 18.8239 8.56764L18.8212 8.56503L18.8212 8.56503C17.9376 7.68135 16.7209 7.1377 15.3866 7.1377H10.2676C9.85336 7.1377 9.51758 6.80191 9.51758 6.3877Z" fill="black"/>
<path fill-rule="evenodd" clip-rule="evenodd" d="M12.2372 14.458C12.5301 14.1651 13.005 14.1651 13.2979 14.458L15.9199 17.08C16.2128 17.3728 16.2128 17.8476 15.92 18.1405L13.298 20.7635C13.0052 21.0565 12.5303 21.0565 12.2373 20.7637C11.9444 20.4709 11.9443 19.996 12.2371 19.7031L14.329 17.6104L12.2372 15.5186C11.9444 15.2257 11.9444 14.7508 12.2372 14.458Z" fill="black"/>
<path fill-rule="evenodd" clip-rule="evenodd" d="M3 11.25C3.41421 11.25 3.75 11.5858 3.75 12C3.75 13.3446 4.29311 14.5515 5.17633 15.4357C6.06032 16.3187 7.27711 16.863 8.611 16.863L15.3886 16.8632C15.8028 16.8632 16.1386 17.199 16.1386 17.6132C16.1386 18.0274 15.8028 18.3632 15.3886 18.3632L8.611 18.363C8.61099 18.363 8.61101 18.363 8.611 18.363C6.86102 18.363 5.26791 17.6474 4.11593 16.4966C2.9653 15.3448 2.25 13.7613 2.25 12C2.25 11.5858 2.58579 11.25 3 11.25Z" fill="black"/>
<path fill-rule="evenodd" clip-rule="evenodd" d="M6.41043 3.12764C6.63154 3.26429 6.76613 3.50569 6.76613 3.76563V9.01063C6.76613 9.42484 6.43035 9.76063 6.01613 9.76063C5.60192 9.76063 5.26613 9.42484 5.26613 9.01063V4.97915L4.25354 5.48545C3.88306 5.67069 3.43255 5.52052 3.24731 5.15004C3.06207 4.77955 3.21224 4.32905 3.58272 4.14381L5.68072 3.09481C5.91321 2.97856 6.18932 2.99098 6.41043 3.12764Z" fill="black"/>
</svg>