<svg width="24" height="25" viewBox="0 0 24 25" fill="none" xmlns="http://www.w3.org/2000/svg">
<path fill-rule="evenodd" clip-rule="evenodd" d="M20.0578 7.57062C18.8038 6.32562 17.1448 5.64062 15.3888 5.64062H10.2688C9.71675 5.64062 9.26875 6.08862 9.26875 6.64062C9.26875 7.19263 9.71675 7.64062 10.2688 7.64062H15.3888C16.6138 7.64062 17.7718 8.11963 18.6488 8.98962C19.5198 9.85563 19.9998 11.0136 19.9998 12.2506C19.9998 13.3406 19.6268 14.3636 18.9218 15.2096C18.5678 15.6336 18.6238 16.2646 19.0488 16.6176C19.2358 16.7746 19.4628 16.8506 19.6888 16.8506C19.9748 16.8506 20.2588 16.7286 20.4568 16.4906C21.4528 15.2986 21.9998 13.7926 21.9998 12.2506C21.9998 10.4766 21.3098 8.81462 20.0578 7.57062Z" fill="black"/>
<path fill-rule="evenodd" clip-rule="evenodd" d="M16.3902 17.86C16.3902 17.725 16.3622 17.594 16.3112 17.472C16.2842 17.41 16.2372 17.361 16.1992 17.306C16.1642 17.255 16.1412 17.197 16.0972 17.152L13.4742 14.533C13.0852 14.143 12.4512 14.142 12.0602 14.534C11.6702 14.924 11.6702 15.557 12.0612 15.948L12.9742 16.86H8.61124C7.38624 16.86 6.22724 16.381 5.35424 15.514C4.48124 14.638 4.00024 13.48 4.00024 12.25C4.00024 11.698 3.55224 11.25 3.00024 11.25C2.44824 11.25 2.00024 11.698 2.00024 12.25C2.00024 14.013 2.68824 15.673 3.94124 16.93C5.19624 18.174 6.85424 18.86 8.61124 18.86H12.9742L12.0612 19.773C11.6702 20.163 11.6702 20.797 12.0602 21.187C12.2562 21.382 12.5122 21.48 12.7682 21.48C13.0242 21.48 13.2802 21.382 13.4752 21.188L16.0972 18.568C16.1522 18.513 16.1832 18.443 16.2232 18.378C16.2512 18.334 16.2902 18.297 16.3112 18.247C16.3622 18.126 16.3902 17.995 16.3902 17.86Z" fill="black"/>
<path fill-rule="evenodd" clip-rule="evenodd" d="M4.36244 5.95527L5.01644 5.63127V9.25927C5.01644 9.81127 5.46444 10.2593 6.01644 10.2593C6.56844 10.2593 7.01644 9.81127 7.01644 9.25927V4.01927C7.01644 3.67327 6.83744 3.35127 6.54344 3.16927C6.24944 2.98727 5.88244 2.97027 5.57144 3.12327L3.47344 4.16327C2.97944 4.40827 2.77744 5.00827 3.02244 5.50327C3.26844 5.99727 3.86544 6.20127 4.36244 5.95527Z" fill="black"/>
</svg>