<svg width="24" height="25" viewBox="0 0 24 25" fill="none" xmlns="http://www.w3.org/2000/svg">
<path opacity="0.4" d="M15.385 6.38086C17.9337 6.38086 20 8.44714 20 10.9959C20 12.1242 19.5964 13.1548 18.9245 13.9566C18.5698 14.3799 18.6254 15.0106 19.0487 15.3653C19.472 15.7201 20.1028 15.6644 20.4575 15.2411C21.4196 14.0929 22 12.6115 22 10.9959C22 7.34257 19.0383 4.38086 15.385 4.38086H8.614C4.96048 4.38086 2 7.34281 2 10.9959C2 14.6491 4.96072 17.6099 8.614 17.6099H11V15.6099H8.614C6.06528 15.6099 4 13.5446 4 10.9959C4 8.44691 6.06552 6.38086 8.614 6.38086H15.385Z" fill="black"/>
<path fill-rule="evenodd" clip-rule="evenodd" d="M11.5518 13.2077C11.2136 13.3773 11 13.7232 11 14.1016V19.1186C11 19.497 11.2136 19.8429 11.5519 20.0125C11.8901 20.1821 12.2951 20.1462 12.5983 19.9199L15.9586 17.4109C16.2115 17.2221 16.3604 16.925 16.3604 16.6095C16.3603 16.294 16.2114 15.9969 15.9585 15.8082L12.5982 13.3002C12.295 13.0739 11.89 13.0381 11.5518 13.2077Z" fill="black"/>
</svg>