<svg width="24" height="24" viewBox="0 0 24 24" fill="none" xmlns="http://www.w3.org/2000/svg">
<path d="M16.2177 3H7.78328C4.83557 3 3 5.08138 3 8.02609V15.9729C3 18.9176 4.83557 20.999 7.78428 20.999H16.2177C19.1654 20.999 21 18.9176 21 15.9729V8.02609C21 5.08138 19.1564 3 16.2177 3Z" stroke="black" stroke-width="1.5" stroke-linecap="round" stroke-linejoin="round"/>
<path fill-rule="evenodd" clip-rule="evenodd" d="M12.1601 10.8812C9.78299 10.8812 7.94268 10.0588 6.9248 7.81123C6.9248 7.81123 6.04492 13.98 12.1601 13.98C12.1601 13.98 12.1607 14.8891 12.1613 15.6715C12.1618 16.1104 12.6761 16.3481 13.0113 16.0642L16.9352 12.7401C17.1729 12.5385 17.1814 12.1751 16.9493 11.9656C16.0875 11.186 14.1491 9.43411 13.0203 8.41397C12.6885 8.11429 12.1601 8.35144 12.1601 8.7987L12.1601 10.8812Z" stroke="black" stroke-width="1.5" stroke-linecap="round" stroke-linejoin="round"/>
</svg>