<svg width="24" height="25" viewBox="0 0 24 25" fill="none" xmlns="http://www.w3.org/2000/svg">
<path opacity="0.4" fill-rule="evenodd" clip-rule="evenodd" d="M15.977 2.75H8.033C4.778 2.75 2.505 4.922 2.505 8.03V16.47C2.505 19.628 4.726 21.75 8.033 21.75H15.977C19.278 21.75 21.495 19.628 21.495 16.47V8.03C21.495 4.883 19.279 2.761 15.977 2.75Z" fill="black"/>
<path fill-rule="evenodd" clip-rule="evenodd" d="M17.745 15.0715L16.085 16.7285C16.015 16.7985 15.932 16.8545 15.838 16.8935C15.755 16.9275 15.667 16.9425 15.579 16.9455C15.57 16.9465 15.562 16.9505 15.553 16.9505H15.552C15.454 16.9505 15.357 16.9305 15.265 16.8925C15.201 16.8665 15.149 16.8225 15.095 16.7795C15.072 16.7615 15.044 16.7535 15.022 16.7315L13.36 15.0715C13.066 14.7795 13.066 14.3035 13.359 14.0105C13.652 13.7175 14.126 13.7175 14.419 14.0095L14.803 14.3935V10.5805C14.803 10.1805 14.64 9.78655 14.354 9.49855C14.074 9.22255 13.679 9.06055 13.278 9.06055H12.247C11.833 9.06055 11.497 8.72455 11.497 8.31055C11.497 7.89655 11.833 7.56055 12.247 7.56055H13.278C14.069 7.56055 14.848 7.87955 15.412 8.43555C15.981 9.00855 16.303 9.78755 16.303 10.5805V14.3915L16.685 14.0095C16.979 13.7175 17.453 13.7175 17.746 14.0105C18.038 14.3035 18.038 14.7795 17.745 15.0715ZM11.774 16.9505H10.744C9.92803 16.9505 9.16703 16.6375 8.60203 16.0695C8.04003 15.5025 7.71803 14.7235 7.71803 13.9305V10.1195L7.33603 10.5015C7.18903 10.6475 6.99803 10.7205 6.80603 10.7205C6.61403 10.7205 6.42203 10.6475 6.27503 10.5005C5.98303 10.2075 5.98303 9.73255 6.27603 9.43955L7.93603 7.78355C8.00603 7.71255 8.09003 7.65655 8.18403 7.61855C8.25703 7.58855 8.33403 7.57855 8.41203 7.57155C8.43203 7.57055 8.44803 7.56055 8.46803 7.56055C8.47103 7.56055 8.47303 7.56255 8.47503 7.56255C8.57103 7.56255 8.66603 7.58155 8.75603 7.61855C8.82103 7.64655 8.87503 7.69055 8.93003 7.73455C8.95203 7.75155 8.97903 7.75955 8.99903 7.77955L10.662 9.43955C10.955 9.73255 10.955 10.2075 10.662 10.5005C10.37 10.7935 9.89503 10.7935 9.60203 10.5015L9.21803 10.1185V13.9305C9.21803 14.3305 9.38203 14.7245 9.66703 15.0125C9.94803 15.2955 10.33 15.4505 10.744 15.4505H11.774C12.188 15.4505 12.524 15.7865 12.524 16.2005C12.524 16.6145 12.188 16.9505 11.774 16.9505Z" fill="black"/>
</svg>