<svg width="24" height="25" viewBox="0 0 24 25" fill="none" xmlns="http://www.w3.org/2000/svg">
<path fill-rule="evenodd" clip-rule="evenodd" d="M3.99988 12.2653C3.99988 9.50834 6.24288 7.26534 8.99988 7.26534H10.9289V8.65734C10.9289 9.03934 11.1459 9.38834 11.4889 9.55634C11.6289 9.62434 11.7789 9.65734 11.9289 9.65734C12.1469 9.65734 12.3639 9.58534 12.5429 9.44634L15.6149 7.05434C15.6299 7.04234 15.6359 7.02334 15.6499 7.01134C15.7239 6.94634 15.7799 6.86934 15.8329 6.78634C15.8559 6.74934 15.8869 6.71834 15.9049 6.67834C15.9579 6.56234 15.9879 6.43534 15.9929 6.30134C15.9929 6.28934 16.0009 6.27834 16.0009 6.26534C16.0009 6.25534 15.9939 6.24534 15.9939 6.23534C15.9899 6.09834 15.9599 5.97034 15.9059 5.85234C15.8869 5.81134 15.8549 5.78034 15.8309 5.74134C15.7789 5.66034 15.7249 5.58534 15.6529 5.52134C15.6389 5.50934 15.6329 5.48934 15.6169 5.47734L12.5449 3.07534C12.2429 2.83934 11.8349 2.79734 11.4899 2.96434C11.1459 3.13134 10.9289 3.48034 10.9289 3.86334V5.26534H8.99988C5.14088 5.26534 1.99988 8.40534 1.99988 12.2653C1.99988 14.4173 2.97388 16.4203 4.67088 17.7603C4.85388 17.9053 5.07188 17.9753 5.28888 17.9753C5.58488 17.9753 5.87788 17.8453 6.07488 17.5953C6.41688 17.1613 6.34288 16.5323 5.90888 16.1903C4.69588 15.2323 3.99988 13.8023 3.99988 12.2653Z" fill="black"/>
<path opacity="0.4" fill-rule="evenodd" clip-rule="evenodd" d="M19.329 6.77165C18.897 6.42965 18.267 6.50365 17.925 6.93665C17.583 7.37065 17.657 7.99965 18.091 8.34065C19.304 9.29965 20 10.7296 20 12.2666C20 15.0226 17.757 17.2666 15 17.2666H12.956V15.8436C12.956 15.4616 12.738 15.1126 12.394 14.9446C12.051 14.7786 11.642 14.8196 11.34 15.0566L8.26703 17.4586C8.02503 17.6476 7.88403 17.9387 7.88403 18.2466C7.88403 18.5546 8.02603 18.8456 8.26903 19.0346L11.342 21.4276C11.52 21.5666 11.737 21.6386 11.956 21.6386C12.105 21.6386 12.256 21.6046 12.395 21.5366C12.738 21.3686 12.956 21.0206 12.956 20.6386V19.2666H15C18.859 19.2666 22 16.1256 22 12.2666C22 10.1136 21.026 8.11065 19.329 6.77165Z" fill="black"/>
</svg>