<svg width="24" height="24" viewBox="0 0 24 24" fill="none" xmlns="http://www.w3.org/2000/svg">
<path fill-rule="evenodd" clip-rule="evenodd" d="M19.2073 10.9417C17.6103 9.10075 15.2603 8.12075 12.2163 8.02475L12.2143 5.54275C12.2133 4.98875 11.9003 4.50075 11.3973 4.26775C10.8923 4.03375 10.3173 4.11275 9.89526 4.47175L2.99926 10.3157C2.68726 10.5787 2.50526 10.9627 2.49826 11.3687C2.49126 11.7727 2.66026 12.1587 2.96026 12.4287L9.86826 18.6737C10.2863 19.0507 10.8633 19.1437 11.3783 18.9167C11.8953 18.6877 12.2163 18.1927 12.2163 17.6267V14.4727C16.3203 14.5927 18.9493 16.2217 20.4663 19.5707C20.5473 19.7517 20.7273 19.8647 20.9213 19.8647C20.9443 19.8647 20.9683 19.8627 20.9913 19.8597C21.2123 19.8277 21.3853 19.6547 21.4163 19.4357C21.4453 19.2267 22.1113 14.2897 19.2073 10.9417Z" fill="black"/>
</svg>