<svg width="24" height="25" viewBox="0 0 24 25" fill="none" xmlns="http://www.w3.org/2000/svg">
<path fill-rule="evenodd" clip-rule="evenodd" d="M16.705 13.5039C16.705 14.3029 16.38 15.0819 15.814 15.6389C15.25 16.2079 14.49 16.5249 13.679 16.5249H9.864L10.253 16.9149C10.545 17.2089 10.544 17.6839 10.251 17.9759C10.104 18.1219 9.913 18.1939 9.722 18.1939C9.529 18.1939 9.337 18.1209 9.19 17.9739L7.527 16.3039C7.52 16.2969 7.518 16.2869 7.512 16.2799C7.452 16.2149 7.4 16.1429 7.366 16.0599C7.334 15.9809 7.321 15.8969 7.316 15.8129C7.316 15.7989 7.309 15.7879 7.309 15.7749C7.309 15.6769 7.329 15.5789 7.366 15.4879C7.405 15.3959 7.459 15.3129 7.529 15.2439L9.192 13.5839C9.485 13.2919 9.959 13.2909 10.252 13.5849C10.545 13.8779 10.545 14.3529 10.251 14.6449L9.871 15.0249H13.679C14.087 15.0249 14.469 14.8649 14.755 14.5759C15.043 14.2929 15.205 13.9039 15.205 13.5039V12.4639C15.205 12.0499 15.541 11.7139 15.955 11.7139C16.369 11.7139 16.705 12.0499 16.705 12.4639V13.5039ZM7.307 10.9639C7.307 10.1649 7.631 9.38691 8.198 8.82991C8.762 8.26091 9.522 7.94391 10.332 7.94391H14.14L13.76 7.56491C13.467 7.27291 13.467 6.79691 13.759 6.50391C14.052 6.21091 14.526 6.21091 14.82 6.50391L16.483 8.16391C16.552 8.23291 16.607 8.31491 16.645 8.40491C16.683 8.49591 16.703 8.59391 16.703 8.69391C16.703 8.79491 16.683 8.89291 16.645 8.98291C16.607 9.07391 16.552 9.15591 16.483 9.22491L14.82 10.8849C14.673 11.0309 14.482 11.1039 14.29 11.1039C14.098 11.1039 13.906 11.0309 13.759 10.8839C13.467 10.5909 13.467 10.1159 13.76 9.82291L14.14 9.44391H10.332C9.925 9.44391 9.543 9.60391 9.256 9.89291C8.968 10.1759 8.807 10.5639 8.807 10.9639V12.0039C8.807 12.4179 8.471 12.7539 8.057 12.7539C7.642 12.7539 7.307 12.4179 7.307 12.0039V10.9639ZM16.216 2.75391H7.785C4.635 2.75391 2.511 4.96791 2.5 8.26391V16.2139C2.5 19.5219 4.623 21.7439 7.785 21.7439H16.216C19.376 21.7439 21.5 19.5219 21.5 16.2139V8.26391C21.5 4.96791 19.376 2.75391 16.216 2.75391Z" fill="black"/>
</svg>