<svg width="24" height="24" viewBox="0 0 24 24" fill="none" xmlns="http://www.w3.org/2000/svg">
<path fill-rule="evenodd" clip-rule="evenodd" d="M12.1664 14.832C12.4592 15.1249 12.4592 15.5998 12.1663 15.8927L10.0608 17.998L12.1663 20.1029C12.4592 20.3957 12.4593 20.8706 12.1664 21.1636C11.8736 21.4565 11.3987 21.4566 11.1057 21.1637L8.46975 18.5285C8.32906 18.3878 8.25001 18.1971 8.25 17.9981C8.24999 17.7992 8.32902 17.6084 8.46969 17.4677L11.1057 14.832C11.3986 14.5391 11.8735 14.5391 12.1664 14.832Z" fill="black"/>
<path fill-rule="evenodd" clip-rule="evenodd" d="M11.8348 2.83305C12.1276 2.5401 12.6025 2.54001 12.8955 2.83285L15.5315 5.46785C15.6722 5.60849 15.7512 5.79927 15.7512 5.99821C15.7513 6.19715 15.6722 6.38794 15.5316 6.52861L12.8956 9.16461C12.6027 9.4575 12.1278 9.4575 11.8349 9.16461C11.542 8.87172 11.542 8.39684 11.8349 8.10395L13.9405 5.99838L11.835 3.89371C11.5421 3.60087 11.542 3.126 11.8348 2.83305Z" fill="black"/>
<path fill-rule="evenodd" clip-rule="evenodd" d="M2.25 12C2.25 8.27287 5.27171 5.25 9 5.25H15C15.4142 5.25 15.75 5.58579 15.75 6C15.75 6.41421 15.4142 6.75 15 6.75H9C6.1003 6.75 3.75 9.10113 3.75 12C3.75 13.6713 4.53296 15.1574 5.75454 16.1212C6.07973 16.3777 6.13537 16.8493 5.87881 17.1745C5.62225 17.4997 5.15065 17.5554 4.82546 17.2988C3.26104 16.0646 2.25 14.1527 2.25 12Z" fill="black"/>
<path fill-rule="evenodd" clip-rule="evenodd" d="M18.1212 6.82455C18.3777 6.49936 18.8493 6.44372 19.1745 6.70028C20.739 7.93452 21.75 9.84643 21.75 11.9991C21.75 15.7273 18.7282 18.7491 15 18.7491H9C8.58579 18.7491 8.25 18.4133 8.25 17.9991C8.25 17.5849 8.58579 17.2491 9 17.2491H15C17.8998 17.2491 20.25 14.8989 20.25 11.9991C20.25 10.3278 19.467 8.84167 18.2455 7.87791C17.9203 7.62135 17.8646 7.14974 18.1212 6.82455Z" fill="black"/>
</svg>