<svg width="24" height="24" viewBox="0 0 24 24" fill="none" xmlns="http://www.w3.org/2000/svg">
<path fill-rule="evenodd" clip-rule="evenodd" d="M4.83511 4.91991C4.15887 5.64607 3.75 6.70872 3.75 8.02609V15.9729C3.75 17.2903 4.15887 18.3529 4.8352 19.0791C5.50592 19.7992 6.49518 20.249 7.78428 20.249H16.2177C17.5062 20.249 18.4949 19.7992 19.1653 19.0792C19.8413 18.3531 20.25 17.2904 20.25 15.9729V8.02609C20.25 6.70957 19.8396 5.64678 19.1623 4.9202C18.4904 4.19944 17.5012 3.75 16.2177 3.75H7.78328C6.49475 3.75 5.50574 4.19977 4.83511 4.91991ZM3.73739 3.89765C4.72147 2.84092 6.1241 2.25 7.78328 2.25H16.2177C17.8729 2.25 19.2749 2.84125 20.2595 3.89736C21.2386 4.94764 21.75 6.3979 21.75 8.02609V15.9729C21.75 17.6001 21.2414 19.0505 20.2632 20.1013C19.2793 21.1581 17.8769 21.749 16.2177 21.749H7.78428C6.12467 21.749 4.72179 21.1581 3.73755 20.1014C2.75892 19.0507 2.25 17.6002 2.25 15.9729V8.02609C2.25 6.39875 2.75891 4.94836 3.73739 3.89765Z" fill="black"/>
<path fill-rule="evenodd" clip-rule="evenodd" d="M17.8158 16.29C17.8158 16.2904 17.8157 16.2908 17.0733 16.1849L17.8158 16.29C17.7688 16.6201 17.5093 16.8802 17.1792 16.9273C16.8492 16.9745 16.5276 16.798 16.39 16.4943C15.9412 15.5032 15.3326 14.865 14.6038 14.4642C14.0376 14.1527 13.367 13.9671 12.5879 13.897L12.5879 15.1974C12.5879 16.2873 11.2946 16.879 10.475 16.1387C9.34622 15.1186 7.40761 13.3665 6.5456 12.5867C5.97242 12.0686 5.99917 11.1748 6.57763 10.684L10.502 7.35965C11.3232 6.66408 12.5854 7.24517 12.5868 8.32358L12.5875 9.29646C13.8826 9.40441 14.8994 9.79507 15.6834 10.3782C16.6087 11.0665 17.1473 11.9765 17.456 12.8508C17.7631 13.7207 17.8508 14.5766 17.865 15.2041C17.8721 15.5203 17.8607 15.7852 17.8472 15.9735C17.8404 16.0679 17.8331 16.1435 17.8272 16.1973C17.8242 16.2242 17.8216 16.2457 17.8196 16.2614L17.8171 16.2806L17.8163 16.2868L17.8158 16.29ZM11.0879 10.0166L11.0871 8.82983L7.75186 11.6552C8.57689 12.4013 10.0361 13.7202 11.0879 14.6708L11.0879 13.1149C11.0879 12.7006 11.4237 12.3649 11.8379 12.3649C13.1084 12.3649 14.2982 12.5841 15.3268 13.1499C15.6204 13.3114 15.8964 13.4987 16.1543 13.7127C16.1216 13.5921 16.0842 13.4709 16.0416 13.3502C15.8058 12.6823 15.4178 12.0501 14.7882 11.5818C14.1626 11.1164 13.236 10.7661 11.8379 10.7661C11.4239 10.7661 11.0882 10.4306 11.0879 10.0166Z" fill="black"/>
</svg>