<svg width="24" height="24" viewBox="0 0 24 24" fill="none" xmlns="http://www.w3.org/2000/svg">
<path fill-rule="evenodd" clip-rule="evenodd" d="M8.2496 15.9967C8.24993 15.8582 8.13757 15.7458 7.99906 15.7461L5.32585 15.7519C4.91164 15.7528 4.57512 15.4178 4.57422 15.0035C4.57332 14.5893 4.90837 14.2528 5.32259 14.2519L7.9958 14.2461C8.96542 14.244 9.75192 15.0307 9.7496 16.0003L9.7432 18.6727C9.74221 19.0869 9.40562 19.4219 8.9914 19.4209C8.57719 19.4199 8.24221 19.0833 8.2432 18.6691L8.2496 15.9967Z" fill="black"/>
<path fill-rule="evenodd" clip-rule="evenodd" d="M15.0055 4.57422C15.4197 4.57512 15.7548 4.91164 15.7539 5.32585L15.748 7.99835C15.7477 8.13684 15.8601 8.24919 15.9986 8.24889L18.6712 8.2432C19.0855 8.24232 19.422 8.57739 19.4228 8.9916C19.4237 9.40582 19.0887 9.74232 18.6744 9.7432L16.0018 9.74889C15.0323 9.75095 14.2459 8.96452 14.2481 7.99508L14.2539 5.32259C14.2548 4.90837 14.5913 4.57332 15.0055 4.57422Z" fill="black"/>
<path fill-rule="evenodd" clip-rule="evenodd" d="M6.00445 5.75C5.86596 5.7497 5.75361 5.86205 5.75391 6.00055L5.75972 8.67317C5.76062 9.08738 5.42557 9.4239 5.01136 9.4248C4.59714 9.4257 4.26063 9.09064 4.25973 8.67643L4.25391 6.00381C4.2518 5.03434 5.03824 4.2479 6.00771 4.25L8.68034 4.25582C9.09455 4.25672 9.4296 4.59324 9.4287 5.00745C9.4278 5.42166 9.09129 5.75672 8.67707 5.75582L6.00445 5.75Z" fill="black"/>
<path fill-rule="evenodd" clip-rule="evenodd" d="M18.9896 14.5703C19.4038 14.5694 19.7403 14.9045 19.7412 15.3187L19.7471 17.9913C19.7492 18.9608 18.9627 19.7472 17.9933 19.7451L15.3206 19.7393C14.9064 19.7384 14.5714 19.4019 14.5723 18.9877C14.5732 18.5735 14.9097 18.2384 15.3239 18.2393L17.9965 18.2451C18.135 18.2454 18.2474 18.1331 18.2471 17.9946L18.2412 15.3219C18.2403 14.9077 18.5754 14.5712 18.9896 14.5703Z" fill="black"/>
<path fill-rule="evenodd" clip-rule="evenodd" d="M19.5303 4.46967C19.8232 4.76256 19.8232 5.23744 19.5303 5.53033L15.9708 9.0899C15.6779 9.38279 15.203 9.38279 14.9101 9.0899C14.6172 8.79701 14.6172 8.32213 14.9101 8.02924L18.4697 4.46967C18.7626 4.17678 19.2374 4.17678 19.5303 4.46967ZM9.02887 14.9682C9.32176 15.2611 9.32176 15.736 9.02887 16.0289L5.53033 19.5274C5.23744 19.8203 4.76256 19.8203 4.46967 19.5274C4.17678 19.2345 4.17678 18.7596 4.46967 18.4667L7.9682 14.9682C8.2611 14.6753 8.73597 14.6753 9.02887 14.9682Z" fill="black"/>
</svg>