<svg width="24" height="25" viewBox="0 0 24 25" fill="none" xmlns="http://www.w3.org/2000/svg">
<path opacity="0.4" fill-rule="evenodd" clip-rule="evenodd" d="M15.974 2.75H8.026C4.721 2.75 2.5 4.873 2.5 8.033V16.468C2.5 19.627 4.721 21.75 8.026 21.75H15.974C19.279 21.75 21.5 19.627 21.5 16.468V8.033C21.5 4.873 19.279 2.75 15.974 2.75Z" fill="black"/>
<path fill-rule="evenodd" clip-rule="evenodd" d="M16.378 11.4732C16.377 11.8872 16.042 12.2222 15.628 12.2222C15.196 12.2072 14.877 11.8852 14.878 11.4702L14.882 9.36819L12.78 9.37219H12.779C12.365 9.37219 12.03 9.03719 12.029 8.62419C12.028 8.21019 12.363 7.87319 12.777 7.87219L15.632 7.86719C15.831 7.86719 16.023 7.94619 16.164 8.08619C16.305 8.22719 16.384 8.41819 16.383 8.61819L16.378 11.4732ZM11.223 16.6272L8.36801 16.6332C8.16901 16.6332 7.97701 16.5542 7.83601 16.4132C7.69501 16.2722 7.61601 16.0812 7.61701 15.8822L7.62301 13.0272C7.62401 12.6132 7.95901 12.2782 8.37301 12.2782C8.78701 12.2792 9.12401 12.6162 9.12301 13.0302L9.11801 15.1322L11.22 15.1272C11.634 15.1272 11.97 15.4622 11.971 15.8762C11.972 16.2902 11.637 16.6262 11.223 16.6272Z" fill="black"/>
</svg>