<svg width="24" height="24" viewBox="0 0 24 24" fill="none" xmlns="http://www.w3.org/2000/svg">
<path fill-rule="evenodd" clip-rule="evenodd" d="M4.59706 4.74071C5.48953 3.78331 6.75865 3.25 8.25067 3.25H10.2311C10.6453 3.25 10.9811 3.58579 10.9811 4C10.9811 4.41421 10.6453 4.75 10.2311 4.75H8.25067C7.13024 4.75 6.27403 5.14157 5.69427 5.76351C5.10907 6.39129 4.75 7.31443 4.75 8.46756V15.5324C4.75 16.6865 5.10765 17.6095 5.69162 18.2369C6.26995 18.8581 7.12574 19.25 8.25067 19.25H15.7476C16.873 19.25 17.7293 18.858 18.3079 18.2367C18.8922 17.6094 19.25 16.6864 19.25 15.5324V13.9849C19.25 13.5707 19.5858 13.2349 20 13.2349C20.4142 13.2349 20.75 13.5707 20.75 13.9849V15.5324C20.75 16.9962 20.2922 18.307 19.4056 19.259C18.5134 20.2171 17.2434 20.75 15.7476 20.75H8.25067C6.75515 20.75 5.48561 20.217 4.59371 19.2589C3.70746 18.3069 3.25 16.9961 3.25 15.5324V8.46756C3.25 7.00291 3.71004 5.69227 4.59706 4.74071Z" fill="black"/>
<path fill-rule="evenodd" clip-rule="evenodd" d="M16.0459 4.75C15.6316 4.75 15.2959 4.41421 15.2959 4C15.2959 3.58579 15.6316 3.25 16.0459 3.25H19.9993C20.4135 3.25 20.7493 3.58579 20.7493 4V7.95344C20.7493 8.36765 20.4135 8.70344 19.9993 8.70344C19.5851 8.70344 19.2493 8.36765 19.2493 7.95344V5.81066L13.1818 11.8782H15.3245C15.7387 11.8782 16.0745 12.214 16.0745 12.6282C16.0745 13.0424 15.7387 13.3782 15.3245 13.3782H11.3711C11.1722 13.3782 10.9814 13.2992 10.8408 13.1585C10.7001 13.0179 10.6211 12.8271 10.6211 12.6282L10.6211 8.67474C10.6211 8.26052 10.9569 7.92474 11.3711 7.92474C11.7853 7.92474 12.1211 8.26052 12.1211 8.67474L12.1211 10.8175L18.1886 4.75H16.0459Z" fill="black"/>
</svg>