<svg width="24" height="25" viewBox="0 0 24 25" fill="none" xmlns="http://www.w3.org/2000/svg">
<path fill-rule="evenodd" clip-rule="evenodd" d="M17.503 7.77966L15.942 9.34066L16.741 9.33866C17.155 9.33866 17.491 9.67366 17.492 10.0877C17.493 10.5017 17.158 10.8377 16.744 10.8387L14.131 10.8447H14.13C13.931 10.8447 13.74 10.7657 13.6 10.6247H13.599C13.442 10.4687 13.369 10.2587 13.38 10.0537L13.385 7.47966C13.386 7.06666 13.721 6.73166 14.135 6.73166H14.136C14.55 6.73266 14.886 7.06866 14.885 7.48266L14.883 8.27866L16.442 6.71866C16.735 6.42566 17.21 6.42566 17.503 6.71866C17.796 7.01166 17.796 7.48666 17.503 7.77966ZM17.502 17.7297C17.356 17.8767 17.164 17.9497 16.972 17.9497C16.78 17.9497 16.588 17.8767 16.441 17.7297L14.881 16.1697L14.883 16.9677C14.884 17.3817 14.549 17.7177 14.134 17.7187H14.133C13.719 17.7187 13.384 17.3837 13.383 16.9697L13.377 14.3567C13.377 14.1577 13.456 13.9667 13.597 13.8247C13.738 13.6847 13.98 13.6057 14.128 13.6057H14.133L16.742 13.6107C17.156 13.6117 17.491 13.9477 17.49 14.3627C17.489 14.7767 17.18 15.1427 16.739 15.1107L15.942 15.1097L17.502 16.6697C17.795 16.9627 17.795 17.4367 17.502 17.7297ZM10.494 10.5117C10.467 10.5517 10.436 10.5907 10.401 10.6247C10.26 10.7657 10.069 10.8447 9.871 10.8447H9.869L7.256 10.8387C6.841 10.8377 6.506 10.5017 6.507 10.0877C6.509 9.67266 6.829 9.34566 7.259 9.33866L8.058 9.34066L6.497 7.77966C6.204 7.48666 6.204 7.01166 6.497 6.71866C6.79 6.42566 7.265 6.42566 7.558 6.71866L9.117 8.27866L9.115 7.48266C9.114 7.06866 9.449 6.73266 9.863 6.73166H9.865C10.278 6.73166 10.614 7.06566 10.615 7.47966L10.621 10.0647C10.627 10.2197 10.585 10.3777 10.494 10.5117ZM10.62 14.3547L10.615 16.9667C10.614 17.3797 10.278 17.7147 9.865 17.7147H9.863C9.449 17.7137 9.114 17.3777 9.115 16.9637L9.116 16.1657L7.556 17.7257C7.409 17.8727 7.217 17.9457 7.025 17.9457C6.834 17.9457 6.642 17.8727 6.495 17.7257C6.202 17.4327 6.202 16.9587 6.495 16.6657L8.056 15.1047L7.259 15.1067H7.257C6.844 15.1067 6.508 14.7717 6.507 14.3577C6.506 13.9437 6.842 13.6077 7.256 13.6067L9.865 13.6017C9.875 13.5997 9.884 13.6007 9.894 13.6017C9.968 13.6047 10.04 13.6177 10.107 13.6397C10.108 13.6397 10.108 13.6407 10.109 13.6407C10.11 13.6417 10.11 13.6407 10.112 13.6417H10.114C10.114 13.6437 10.116 13.6427 10.116 13.6427C10.117 13.6427 10.117 13.6437 10.118 13.6437C10.119 13.6447 10.118 13.6447 10.121 13.6447C10.121 13.6447 10.122 13.6447 10.123 13.6457H10.124L10.126 13.6467C10.126 13.6467 10.127 13.6467 10.128 13.6467C10.128 13.6477 10.128 13.6477 10.13 13.6477L10.131 13.6487C10.131 13.6487 10.132 13.6477 10.133 13.6497H10.134C10.135 13.6497 10.135 13.6497 10.136 13.6507C10.137 13.6507 10.137 13.6507 10.138 13.6507C10.139 13.6517 10.139 13.6517 10.14 13.6517C10.145 13.6537 10.149 13.6547 10.153 13.6567C10.241 13.6927 10.323 13.7457 10.394 13.8157L10.396 13.8167L10.397 13.8177C10.397 13.8177 10.399 13.8177 10.398 13.8197C10.399 13.8197 10.399 13.8197 10.399 13.8197L10.4 13.8217L10.401 13.8227C10.401 13.8237 10.402 13.8237 10.404 13.8247L10.405 13.8257V13.8267L10.407 13.8287C10.476 13.8987 10.527 13.9787 10.563 14.0647C10.564 14.0677 10.566 14.0707 10.566 14.0737C10.567 14.0737 10.567 14.0747 10.567 14.0757C10.567 14.0757 10.568 14.0767 10.568 14.0777C10.569 14.0787 10.569 14.0787 10.569 14.0797C10.569 14.0797 10.569 14.0817 10.57 14.0827C10.57 14.0837 10.57 14.0827 10.571 14.0857C10.572 14.0867 10.572 14.0877 10.572 14.0877V14.0887C10.572 14.0897 10.573 14.0907 10.573 14.0907C10.573 14.0917 10.573 14.0917 10.574 14.0917C10.602 14.1667 10.618 14.2497 10.62 14.3337V14.3547ZM15.974 2.72266H8.026C4.721 2.72266 2.5 4.84566 2.5 8.00566V16.4407C2.5 19.5997 4.721 21.7227 8.026 21.7227H15.974C19.279 21.7227 21.5 19.5997 21.5 16.4407V8.00566C21.5 4.84566 19.279 2.72266 15.974 2.72266Z" fill="black"/>
</svg>