<svg width="24" height="25" viewBox="0 0 24 25" fill="none" xmlns="http://www.w3.org/2000/svg">
<path fill-rule="evenodd" clip-rule="evenodd" d="M7.99901 14.2461H7.99601L5.32301 14.2521C4.77001 14.2531 4.32401 14.7021 4.32501 15.2541C4.32601 15.8061 4.77301 16.2521 5.32501 16.2521H5.32701L6.58501 16.2491L4.29301 18.5401C3.90201 18.9301 3.90201 19.5631 4.29301 19.9541C4.48801 20.1491 4.74401 20.2471 5.00001 20.2471C5.25601 20.2471 5.51201 20.1491 5.70701 19.9541L7.99701 17.6641L7.99401 18.9181C7.99301 19.4711 8.43901 19.9191 8.99101 19.9211H8.99401C9.54501 19.9211 9.99301 19.4751 9.99401 18.9231L10.001 16.2501C10.002 15.7141 9.79401 15.2111 9.41501 14.8321C9.03701 14.4541 8.53401 14.2461 7.99901 14.2461Z" fill="black"/>
<path fill-rule="evenodd" clip-rule="evenodd" d="M15.999 10.2492H16.002L18.675 10.2432C19.228 10.2422 19.674 9.79325 19.673 9.24125C19.672 8.68925 19.225 8.24325 18.673 8.24325H18.671L17.418 8.24625L19.707 5.95725C20.098 5.56625 20.098 4.93325 19.707 4.54325C19.316 4.15225 18.684 4.15225 18.293 4.54325L16.001 6.83525L16.004 5.57625C16.005 5.02225 15.52 4.58125 15.004 4.57425C14.453 4.57425 14.005 5.02025 14.004 5.57225L13.998 8.24525C13.997 8.78125 14.205 9.28425 14.584 9.66325C14.962 10.0412 15.464 10.2492 15.999 10.2492Z" fill="black"/>
<path fill-rule="evenodd" clip-rule="evenodd" d="M5.00973 9.925H5.01173C5.56473 9.924 6.01073 9.475 6.00973 8.923L6.00373 6.25L8.67673 6.256H8.67873C9.22973 6.256 9.67773 5.81 9.67873 5.258C9.67973 4.706 9.23373 4.257 8.68073 4.256L6.00773 4.25H6.00373C5.46973 4.25 4.96773 4.458 4.58973 4.836C4.21073 5.215 4.00273 5.718 4.00373 6.254L4.00973 8.927C4.01073 9.479 4.45773 9.925 5.00973 9.925Z" fill="black"/>
<path fill-rule="evenodd" clip-rule="evenodd" d="M18.9912 14.5703H18.9892C18.4362 14.5713 17.9902 15.0203 17.9912 15.5723L17.9972 18.2453L15.3242 18.2393H15.3222C14.7712 18.2393 14.3232 18.6863 14.3222 19.2373C14.3212 19.7903 14.7672 20.2383 15.3202 20.2393L17.9932 20.2453H17.9972C18.5312 20.2453 19.0332 20.0373 19.4112 19.6593C19.7902 19.2803 19.9982 18.7773 19.9972 18.2413L19.9912 15.5683C19.9902 15.0163 19.5432 14.5703 18.9912 14.5703Z" fill="black"/>
</svg>