<svg width="24" height="25" viewBox="0 0 24 25" fill="none" xmlns="http://www.w3.org/2000/svg">
<path fill-rule="evenodd" clip-rule="evenodd" d="M7.42083 6.255L8.67683 6.257H8.67883C9.22983 6.257 9.67783 5.811 9.67883 5.259C9.67983 4.707 9.23283 4.258 8.68083 4.257L5.00583 4.25H5.00183C4.99383 4.25 4.98783 4.25 4.97783 4.25C4.89183 4.252 4.80783 4.265 4.72883 4.287L4.72783 4.288H4.72583L4.72383 4.289H4.72183L4.72083 4.29C4.68683 4.299 4.65283 4.311 4.61983 4.325C4.50683 4.372 4.39983 4.44 4.30683 4.53L4.30583 4.531C4.29883 4.538 4.29183 4.545 4.28483 4.551L4.28283 4.554L4.28183 4.555C4.19183 4.649 4.12283 4.755 4.07683 4.869C4.03083 4.979 4.00483 5.1 4.00183 5.225V5.228V5.255L4.00883 8.928C4.00983 9.48 4.45783 9.926 5.00883 9.926H5.01083C5.56383 9.925 6.00983 9.477 6.00883 8.924L6.00683 7.669L8.29683 9.96C8.49283 10.155 8.74883 10.253 9.00383 10.253C9.25983 10.253 9.51583 10.155 9.71183 9.96C10.1018 9.569 10.1018 8.936 9.71183 8.546L7.42083 6.255Z" fill="black"/>
<path fill-rule="evenodd" clip-rule="evenodd" d="M18.9906 14.5706H18.9886C18.4366 14.5716 17.9896 15.0206 17.9906 15.5726L17.9926 16.8286L15.7026 14.5386C15.3116 14.1486 14.6786 14.1486 14.2886 14.5386C13.8976 14.9296 13.8976 15.5626 14.2886 15.9526L16.5786 18.2426L15.3236 18.2396H15.3216C14.7696 18.2396 14.3226 18.6866 14.3216 19.2376C14.3206 19.7906 14.7666 20.2386 15.3196 20.2396L18.9926 20.2476H18.9986C19.0066 20.2476 19.0156 20.2476 19.0236 20.2476H19.0256C19.1056 20.2456 19.1836 20.2336 19.2576 20.2136H19.2596H19.2606L19.2616 20.2126C19.2636 20.2136 19.2636 20.2126 19.2636 20.2126L19.2656 20.2116C19.3056 20.2006 19.3446 20.1876 19.3816 20.1716C19.4996 20.1226 19.6096 20.0506 19.7056 19.9546C19.8016 19.8586 19.8746 19.7476 19.9236 19.6296C19.9696 19.5166 19.9966 19.3926 19.9986 19.2626V19.2436L19.9906 15.5686C19.9896 15.0166 19.5416 14.5706 18.9906 14.5706Z" fill="black"/>
<g opacity="0.4">
<path fill-rule="evenodd" clip-rule="evenodd" d="M8.29538 14.5393L6.00538 16.8283L6.00838 15.5743C6.00938 15.0223 5.56238 14.5733 5.01038 14.5723H5.00838C4.45738 14.5723 4.00938 15.0183 4.00838 15.5703L4.00038 19.2023C3.98838 19.4733 4.08538 19.7483 4.29238 19.9553C4.48738 20.1503 4.74338 20.2483 4.99938 20.2483H5.00438L8.67938 20.2403C9.23238 20.2393 9.67838 19.7903 9.67738 19.2383C9.67638 18.6863 9.22938 18.2403 8.67738 18.2403H8.67538L7.41938 18.2433L9.70938 15.9533C10.1004 15.5633 10.1004 14.9303 9.70938 14.5393C9.31838 14.1483 8.68638 14.1483 8.29538 14.5393Z" fill="black"/>
<path fill-rule="evenodd" clip-rule="evenodd" d="M14.9975 10.252C15.2535 10.252 15.5095 10.154 15.7045 9.959L17.9935 7.671L17.9905 8.925C17.9895 9.477 18.4365 9.926 18.9885 9.927H18.9905C19.5415 9.927 19.9895 9.481 19.9905 8.929L19.9985 5.315C20.0165 5.038 19.9195 4.755 19.7075 4.543C19.5115 4.347 19.2955 4.252 18.9965 4.25L15.3195 4.258C14.7675 4.259 14.3205 4.708 14.3215 5.26C14.3225 5.812 14.7695 6.258 15.3215 6.258H15.3235L16.5805 6.255L14.2905 8.545C13.8995 8.935 13.8995 9.568 14.2905 9.959C14.4855 10.154 14.7415 10.252 14.9975 10.252Z" fill="black"/>
</g>
</svg>