<svg width="24" height="24" viewBox="0 0 24 24" fill="none" xmlns="http://www.w3.org/2000/svg">
<path fill-rule="evenodd" clip-rule="evenodd" d="M4.47166 4.46963C4.61273 4.32858 4.80419 4.24954 5.00368 4.25L8.68041 4.25849C9.09462 4.25945 9.42963 4.59601 9.42868 5.01022C9.42772 5.42443 9.09116 5.75944 8.67695 5.75849L6.8168 5.75419L9.53498 8.47237C9.82788 8.76526 9.82788 9.24014 9.53498 9.53303C9.24209 9.82592 8.76722 9.82592 8.47432 9.53303L5.7559 6.81461L5.75995 8.67558C5.76085 9.08979 5.4258 9.42631 5.01158 9.42721C4.59737 9.42811 4.26086 9.09306 4.25995 8.67884L4.25195 5.00163C4.25152 4.80214 4.33058 4.61069 4.47166 4.46963Z" fill="black"/>
<path fill-rule="evenodd" clip-rule="evenodd" d="M9.5331 14.4658C9.82595 14.7588 9.82589 15.2336 9.53296 15.5265L6.81424 18.2445L8.67607 18.2405C9.09028 18.2396 9.4268 18.5746 9.4277 18.9888C9.4286 19.4031 9.09355 19.7396 8.67933 19.7405L5.00261 19.7485C4.89096 19.7487 4.78182 19.7241 4.68264 19.6776C4.60552 19.6416 4.53326 19.5917 4.4696 19.5281C4.31301 19.3714 4.24017 19.1628 4.25106 18.9577L4.25898 15.3201C4.25988 14.9059 4.5964 14.5709 5.01061 14.5718C5.42482 14.5727 5.75988 14.9092 5.75897 15.3234L5.75493 17.1825L8.47244 14.4657C8.76537 14.1728 9.24024 14.1729 9.5331 14.4658Z" fill="black"/>
<path fill-rule="evenodd" clip-rule="evenodd" d="M14.4657 14.4658C14.7586 14.1729 15.2334 14.1728 15.5264 14.4657L18.2449 17.1836L18.241 15.3224C18.2401 14.9082 18.5752 14.5717 18.9894 14.5708C19.4036 14.5699 19.7401 14.905 19.741 15.3192L19.7488 18.9962C19.7492 19.1957 19.6702 19.3871 19.5291 19.5282C19.388 19.6692 19.1966 19.7482 18.9971 19.7478L15.3205 19.7395C14.9063 19.7386 14.5713 19.402 14.5722 18.9878C14.5732 18.5736 14.9097 18.2386 15.3239 18.2395L17.1837 18.2437L14.4658 15.5265C14.1729 15.2336 14.1728 14.7588 14.4657 14.4658Z" fill="black"/>
<path fill-rule="evenodd" clip-rule="evenodd" d="M18.245 6.81656L18.241 8.67509C18.2401 9.08931 18.5751 9.42582 18.9893 9.42672C19.4035 9.42762 19.7401 9.09257 19.741 8.67836L19.7489 5.05397C19.7637 4.84465 19.6912 4.63028 19.5311 4.47022C19.426 4.36508 19.2975 4.29767 19.1623 4.268C19.1086 4.25601 19.0533 4.24988 18.9973 4.25L15.3206 4.258C14.9064 4.2589 14.5713 4.59542 14.5722 5.00963C14.5731 5.42384 14.9097 5.7589 15.3239 5.758L17.1863 5.75395L14.4678 8.47179C14.1749 8.76465 14.1748 9.23952 14.4677 9.53245C14.7605 9.82538 15.2354 9.82544 15.5283 9.53259L18.245 6.81656Z" fill="black"/>
</svg>