<svg width="24" height="25" viewBox="0 0 24 25" fill="none" xmlns="http://www.w3.org/2000/svg">
<path fill-rule="evenodd" clip-rule="evenodd" d="M17.255 8.057L14.954 10.359H16.212C16.626 10.359 16.962 10.695 16.962 11.109C16.962 11.523 16.626 11.859 16.212 11.859H13.143C12.729 11.859 12.393 11.523 12.393 11.109V8.039C12.393 7.625 12.729 7.289 13.143 7.289C13.557 7.289 13.893 7.625 13.893 8.039V9.299L16.194 6.996C16.487 6.703 16.962 6.703 17.255 6.996C17.548 7.289 17.548 7.764 17.255 8.057ZM11.848 16.224C11.848 16.638 11.512 16.974 11.098 16.974C10.684 16.974 10.348 16.638 10.348 16.224V14.963L8.046 17.265C7.9 17.411 7.708 17.485 7.516 17.485C7.323 17.485 7.132 17.411 6.985 17.265C6.692 16.973 6.692 16.497 6.985 16.204L9.285 13.904H8.029C7.615 13.904 7.279 13.568 7.279 13.154C7.279 12.74 7.615 12.404 8.029 12.404H11.098C11.512 12.404 11.848 12.74 11.848 13.154V16.224ZM15.974 2.75H8.026C4.721 2.75 2.5 4.873 2.5 8.033V16.468C2.5 19.627 4.721 21.75 8.026 21.75H15.974C19.279 21.75 21.5 19.627 21.5 16.468V8.033C21.5 4.873 19.279 2.75 15.974 2.75Z" fill="black"/>
</svg>