<svg width="24" height="25" viewBox="0 0 24 25" fill="none" xmlns="http://www.w3.org/2000/svg">
<path fill-rule="evenodd" clip-rule="evenodd" d="M19.991 15.569C19.99 15.018 19.542 14.571 18.991 14.571H18.989C18.436 14.573 17.99 15.022 17.991 15.574L17.994 16.829L13.414 12.25L17.994 7.67095L17.991 8.92595C17.99 9.47895 18.437 9.92695 18.989 9.92795H18.991C19.542 9.92795 19.99 9.48195 19.991 8.92995L19.999 5.25695C19.999 5.12495 19.974 4.99395 19.923 4.86995C19.918 4.85795 19.907 4.84995 19.901 4.83795C19.853 4.73295 19.793 4.63095 19.707 4.54495C19.66 4.49695 19.601 4.47395 19.547 4.43895C19.491 4.40095 19.442 4.35295 19.38 4.32795C19.258 4.27695 19.129 4.25195 18.999 4.25195H18.997L15.32 4.25895C14.767 4.25995 14.321 4.70895 14.322 5.26095C14.323 5.81295 14.77 6.25895 15.322 6.25895H15.324L16.58 6.25695L12 10.836L7.419 6.25695L8.675 6.25895H8.677C9.228 6.25895 9.676 5.81295 9.677 5.26095C9.678 4.70895 9.231 4.25995 8.678 4.25895L5.002 4.25195H5C4.87 4.25195 4.742 4.27695 4.62 4.32695C4.499 4.37695 4.387 4.44995 4.293 4.54495C4.198 4.63895 4.125 4.75095 4.075 4.87195C4.025 4.99395 4 5.12295 4 5.25295L4.008 8.92995C4.009 9.48195 4.456 9.92795 5.008 9.92795H5.01C5.562 9.92695 6.009 9.47895 6.008 8.92595L6.005 7.66995L10.585 12.25L6.005 16.829L6.008 15.573C6.009 15.021 5.589 14.57 5.008 14.571C4.456 14.571 4.009 15.018 4.008 15.569L4 19.247C4 19.376 4.025 19.505 4.075 19.627C4.125 19.748 4.198 19.861 4.293 19.956C4.388 20.051 4.5 20.124 4.622 20.173C4.672 20.194 4.726 20.193 4.778 20.204C4.851 20.222 4.923 20.249 5 20.249H5.002L8.678 20.241C9.231 20.24 9.678 19.791 9.677 19.239C9.676 18.687 9.228 18.241 8.677 18.241H8.675L7.418 18.244L12 13.664L16.58 18.244L15.324 18.241H15.322C14.77 18.241 14.323 18.687 14.322 19.239C14.321 19.791 14.767 20.24 15.32 20.241L18.998 20.249H19C19.129 20.249 19.258 20.223 19.38 20.173C19.501 20.123 19.612 20.05 19.707 19.956C19.801 19.861 19.875 19.749 19.924 19.628C19.974 19.506 20 19.377 20 19.247L19.991 15.569Z" fill="black"/>
</svg>