<svg width="24" height="24" viewBox="0 0 24 24" fill="none" xmlns="http://www.w3.org/2000/svg">
<path fill-rule="evenodd" clip-rule="evenodd" d="M13.4085 14.977H10.5909C9.72365 14.977 9.01953 14.274 9.01953 13.4057V10.5881C9.01953 9.71975 9.72365 9.01562 10.5909 9.01562H13.4085C14.2768 9.01562 14.9809 9.71975 14.9809 10.5881V13.4057C14.9809 14.274 14.2768 14.977 13.4085 14.977Z" stroke="black" stroke-width="1.5" stroke-linecap="round" stroke-linejoin="round"/>
<path d="M21.0001 3L17.0645 6.93566" stroke="black" stroke-width="1.5" stroke-linecap="round" stroke-linejoin="round"/>
<path d="M16.9346 3.009L20.9985 3L20.9895 7.06389" stroke="black" stroke-width="1.5" stroke-linecap="round" stroke-linejoin="round"/>
<path d="M21.0001 20.9982L17.0645 17.0625" stroke="black" stroke-width="1.5" stroke-linecap="round" stroke-linejoin="round"/>
<path d="M16.9346 20.9885L20.9985 20.9975L20.9895 16.9336" stroke="black" stroke-width="1.5" stroke-linecap="round" stroke-linejoin="round"/>
<path d="M3 3L6.93566 6.93566" stroke="black" stroke-width="1.5" stroke-linecap="round" stroke-linejoin="round"/>
<path d="M7.06389 3.009L3 3L3.009 7.06389" stroke="black" stroke-width="1.5" stroke-linecap="round" stroke-linejoin="round"/>
<path d="M3 20.9982L6.93566 17.0625" stroke="black" stroke-width="1.5" stroke-linecap="round" stroke-linejoin="round"/>
<path d="M7.06389 20.9885L3 20.9975L3.009 16.9336" stroke="black" stroke-width="1.5" stroke-linecap="round" stroke-linejoin="round"/>
</svg>