<svg width="24" height="25" viewBox="0 0 24 25" fill="none" xmlns="http://www.w3.org/2000/svg">
<path fill-rule="evenodd" clip-rule="evenodd" d="M19.707 18.545L17.417 16.255L18.671 16.258H18.673C19.225 16.258 19.672 15.812 19.673 15.26C19.674 14.708 19.228 14.259 18.675 14.258L15.003 14.25C14.999 14.251 14.996 14.25 14.99 14.25C14.727 14.252 14.475 14.357 14.289 14.543C14.101 14.731 13.996 14.986 13.996 15.252L14.004 18.929C14.005 19.481 14.453 19.927 15.004 19.927H15.006C15.558 19.926 16.005 19.477 16.004 18.925L16.001 17.668L18.293 19.959C18.488 20.154 18.744 20.252 19 20.252C19.256 20.252 19.512 20.154 19.707 19.959C20.098 19.568 20.098 18.935 19.707 18.545Z" fill="black"/>
<path fill-rule="evenodd" clip-rule="evenodd" d="M8.99607 4.57525H8.99407C8.44207 4.57625 7.99507 5.02525 7.99607 5.57725L7.99807 6.83425L5.70707 4.54325C5.31607 4.15225 4.68407 4.15225 4.29307 4.54325C3.90207 4.93325 3.90207 5.56625 4.29307 5.95725L6.58207 8.24625L5.32907 8.24425H5.32707C4.77607 8.24425 4.32807 8.69025 4.32707 9.24225C4.32607 9.79425 4.77307 10.2432 5.32507 10.2442L8.95607 10.2523C8.97207 10.2523 8.98707 10.2533 9.00307 10.2533C9.25707 10.2533 9.51207 10.1562 9.70607 9.96325L9.71107 9.95925C9.89907 9.77125 10.0041 9.51525 10.0041 9.25025L9.99607 5.57325C9.99507 5.02125 9.54707 4.57525 8.99607 4.57525Z" fill="black"/>
<g opacity="0.4">
<path fill-rule="evenodd" clip-rule="evenodd" d="M9.97507 15.0111V15.0091L9.97407 15.0071V15.0051C9.96107 14.9541 9.94407 14.9051 9.92407 14.8571C9.88207 14.7561 9.82207 14.6611 9.74507 14.5751L9.74407 14.5741C9.72307 14.5511 9.69907 14.5281 9.67607 14.5071C9.59007 14.4281 9.49407 14.3681 9.39207 14.3251L9.39107 14.3241C9.27807 14.2771 9.15607 14.2501 9.02707 14.2471L9.02507 14.2461C9.01707 14.2461 9.00707 14.2471 8.99807 14.2461L5.32307 14.2541C4.77107 14.2551 4.32407 14.7041 4.32507 15.2561C4.32607 15.8081 4.77407 16.2541 5.32507 16.2541H5.32707L6.58307 16.2521L4.29307 18.5421C3.90207 18.9331 3.90207 19.5661 4.29307 19.9561C4.48807 20.1521 4.74407 20.2491 5.00007 20.2491C5.25607 20.2491 5.51207 20.1521 5.70707 19.9561L7.99707 17.6661L7.99407 18.9211C7.99307 19.4731 8.43907 19.9221 8.99207 19.9231H8.99407C9.54507 19.9231 9.99307 19.4771 9.99407 18.9261L10.0031 15.2511V15.2251L10.0021 15.2221C10.0011 15.1501 9.99207 15.0791 9.97507 15.0111Z" fill="black"/>
<path fill-rule="evenodd" clip-rule="evenodd" d="M14.0239 9.48825V9.48925L14.0249 9.49225V9.49425C14.0379 9.54525 14.0549 9.59425 14.0749 9.64225C14.1169 9.74325 14.1769 9.83825 14.2539 9.92425L14.2549 9.92525C14.2759 9.94825 14.2999 9.97125 14.3229 9.99225C14.4089 10.0712 14.5049 10.1312 14.6069 10.1743L14.6079 10.1753C14.7209 10.2222 14.8429 10.2493 14.9719 10.2523C14.9769 10.2463 14.9879 10.2533 14.9959 10.2533H15.0009L18.6759 10.2453C19.2289 10.2443 19.6749 9.79525 19.6739 9.24325C19.6729 8.69125 19.2259 8.24525 18.6739 8.24525H18.6719L17.4159 8.24725L19.7059 5.95725C20.0969 5.56625 20.0969 4.93325 19.7059 4.54325C19.3159 4.15225 18.6829 4.15225 18.2919 4.54325L16.0019 6.83325L16.0049 5.57825C16.0059 5.02625 15.5599 4.57725 15.0069 4.57625H15.0049C14.4539 4.57625 14.0059 5.02225 14.0049 5.57325L13.9959 9.24825V9.27425L13.9969 9.27725C13.9979 9.34925 14.0069 9.42025 14.0239 9.48825Z" fill="black"/>
</g>
</svg>