<svg width="24" height="24" viewBox="0 0 24 24" fill="none" xmlns="http://www.w3.org/2000/svg">
<path d="M3 16.2178V7.78313C3 4.83503 5.08119 3 8.02638 3H15.9736C18.9188 3 21 4.83503 21 7.78313V16.2178C21 19.1659 18.9188 21 15.9736 21H8.02638C5.08119 21 3 19.1562 3 16.2178Z" stroke="black" stroke-width="1.5" stroke-linecap="round" stroke-linejoin="round"/>
<path d="M7.02734 7.02734L9.87134 9.87134M7.02734 7.02734L7.03223 9.64075M7.02734 7.02734L9.6398 7.03318" stroke="black" stroke-width="1.5" stroke-linecap="round" stroke-linejoin="round"/>
<path d="M7.02734 16.9729L9.87134 14.1289M9.63978 16.9683L7.02734 16.9742L7.03221 14.3607" stroke="black" stroke-width="1.5" stroke-linecap="round" stroke-linejoin="round"/>
<path d="M16.9729 16.9768L14.1289 14.1328M16.9683 14.3637L16.9742 16.9761L14.3607 16.9713" stroke="black" stroke-width="1.5" stroke-linecap="round" stroke-linejoin="round"/>
<path d="M16.9749 7.02734L14.1309 9.87134M16.9749 7.02734L14.3618 7.03318M16.9749 7.02734L16.9693 9.64075" stroke="black" stroke-width="1.5" stroke-linecap="round" stroke-linejoin="round"/>
</svg>