<svg width="24" height="24" viewBox="0 0 24 24" fill="none" xmlns="http://www.w3.org/2000/svg">
<path fill-rule="evenodd" clip-rule="evenodd" d="M9.53339 14.4653C9.67444 14.6064 9.75348 14.7979 9.753 14.9974L9.74419 18.6744C9.7432 19.0886 9.40661 19.4236 8.9924 19.4226C8.57819 19.4216 8.24321 19.085 8.2442 18.6708L8.24865 16.8106L5.53033 19.5289C5.23744 19.8218 4.76256 19.8218 4.46967 19.5289C4.17678 19.236 4.17678 18.7612 4.46967 18.4683L7.18839 15.7496L5.32683 15.7536C4.91261 15.7545 4.5761 15.4194 4.5752 15.0052C4.5743 14.591 4.90935 14.2545 5.32356 14.2536L9.00137 14.2456C9.20087 14.2452 9.39233 14.3242 9.53339 14.4653Z" fill="black"/>
<path fill-rule="evenodd" clip-rule="evenodd" d="M16.8122 15.7542L18.6715 15.7582C19.0857 15.7591 19.4222 15.4241 19.4231 15.0099C19.424 14.5957 19.0889 14.2591 18.6747 14.2582L15.018 14.2503C14.8995 14.247 14.7803 14.2716 14.6713 14.3242C14.5958 14.3605 14.5261 14.4095 14.4658 14.4699C14.3247 14.611 14.2457 14.8024 14.2461 15.0019L14.2541 18.6789C14.255 19.0931 14.5915 19.4281 15.0057 19.4272C15.4199 19.4263 15.755 19.0898 15.7541 18.6756L15.75 16.8133L18.4698 19.5324C18.7627 19.8253 19.2376 19.8252 19.5305 19.5323C19.8233 19.2393 19.8233 18.7645 19.5303 18.4716L16.8122 15.7542Z" fill="black"/>
<path fill-rule="evenodd" clip-rule="evenodd" d="M4.46967 4.46967C4.76256 4.17678 5.23744 4.17678 5.53033 4.46967L8.2502 7.18954L8.24615 5.32683C8.24525 4.91261 8.5803 4.5761 8.99452 4.5752C9.40873 4.5743 9.74525 4.90935 9.74615 5.32356L9.75415 9.00056C9.75458 9.20004 9.67553 9.39147 9.53448 9.53253C9.5125 9.5545 9.48931 9.57497 9.46504 9.59387C9.31964 9.70787 9.14185 9.76061 8.96647 9.75212L5.32552 9.74419C4.9113 9.74329 4.57625 9.40678 4.57715 8.99256C4.57805 8.57835 4.91457 8.2433 5.32878 8.2442L7.18758 8.24824L4.46967 5.53033C4.17678 5.23744 4.17678 4.76256 4.46967 4.46967Z" fill="black"/>
<path fill-rule="evenodd" clip-rule="evenodd" d="M19.5294 4.46967C19.8223 4.76256 19.8223 5.23744 19.5294 5.53033L16.8106 8.24914L18.6725 8.24517C19.0867 8.24429 19.4232 8.57936 19.4241 8.99358C19.425 9.40779 19.0899 9.74429 18.6757 9.74517L14.9977 9.753C14.7982 9.75342 14.6067 9.67434 14.4657 9.53325C14.3246 9.39215 14.2456 9.20067 14.2461 9.00117L14.2551 5.32434C14.2561 4.91013 14.5927 4.57516 15.0069 4.57617C15.4211 4.57719 15.7561 4.91379 15.7551 5.328L15.7505 7.18791L18.4688 4.46967C18.7617 4.17678 19.2365 4.17678 19.5294 4.46967Z" fill="black"/>
</svg>