<svg width="25" height="24" viewBox="0 0 25 24" fill="none" xmlns="http://www.w3.org/2000/svg">
<path fill-rule="evenodd" clip-rule="evenodd" d="M14.4652 7.32157C15.4261 6.36156 16.983 6.36156 17.9439 7.32157L19.2019 8.57478C20.1628 9.53479 20.1628 11.0916 19.2028 12.0526C19.2028 12.0526 19.2028 12.0535 19.2019 12.0535L10.977 20.2793C10.016 21.2393 8.45828 21.2393 7.49733 20.2793L6.23939 19.0261C5.27843 18.0661 5.27843 16.5093 6.23844 15.5483L6.23939 15.5474L14.4652 7.32157Z" stroke="black" stroke-width="1.5" stroke-linecap="round" stroke-linejoin="round"/>
<path opacity="0.4" d="M12.7158 9.07031L17.4279 13.7824" stroke="black" stroke-width="1.5" stroke-linecap="round" stroke-linejoin="round"/>
<path opacity="0.4" d="M10.2669 3.44454V3.50128" stroke="black" stroke-width="1.5" stroke-linecap="round" stroke-linejoin="round"/>
<path opacity="0.4" d="M5.55006 8.18056V8.21839" stroke="black" stroke-width="1.5" stroke-linecap="round" stroke-linejoin="round"/>
<path opacity="0.4" d="M17.9553 19.3407V19.3785" stroke="black" stroke-width="1.5" stroke-linecap="round" stroke-linejoin="round"/>
<path opacity="0.4" d="M9.37721 7.46222V7.40547" stroke="black" stroke-width="1.5" stroke-linecap="round" stroke-linejoin="round"/>
</svg>