<svg width="25" height="24" viewBox="0 0 25 24" fill="none" xmlns="http://www.w3.org/2000/svg">
<path fill-rule="evenodd" clip-rule="evenodd" d="M12.9824 14.9102C13.3966 14.9102 13.7324 15.2459 13.7324 15.6602V15.6999C13.7324 16.1141 13.3966 16.4499 12.9824 16.4499C12.5682 16.4499 12.2324 16.1141 12.2324 15.6999V15.6602C12.2324 15.2459 12.5682 14.9102 12.9824 14.9102Z" fill="black"/>
<path fill-rule="evenodd" clip-rule="evenodd" d="M12.9766 7.5918C13.3908 7.5918 13.7266 7.92758 13.7266 8.3418V12.6019C13.7266 13.0162 13.3908 13.3519 12.9766 13.3519C12.5623 13.3519 12.2266 13.0162 12.2266 12.6019V8.3418C12.2266 7.92758 12.5623 7.5918 12.9766 7.5918Z" fill="black"/>
<path fill-rule="evenodd" clip-rule="evenodd" d="M18.7154 5.39363C18.8088 4.99012 19.2115 4.73866 19.615 4.83193L22.1485 5.41753C22.552 5.51082 22.8036 5.9136 22.7103 6.31718C22.617 6.72075 22.2142 6.97229 21.8106 6.879L20.0078 6.46228L19.5942 8.25056C19.5008 8.65411 19.098 8.90558 18.6944 8.81223C18.2909 8.71887 18.0394 8.31605 18.1327 7.91249L18.7154 5.39363Z" fill="black"/>
<path fill-rule="evenodd" clip-rule="evenodd" d="M18.9189 5.29082C19.2167 5.00294 19.6915 5.011 19.9794 5.30883C23.6307 9.08622 23.6055 15.1091 19.8872 18.8557C17.5579 21.2029 14.3251 22.107 11.3017 21.5661C10.8939 21.4932 10.6225 21.1035 10.6954 20.6958C10.7684 20.288 11.158 20.0166 11.5658 20.0896C14.1249 20.5473 16.8548 19.7819 18.8225 17.7991L18.8225 17.7991C21.9647 14.633 21.986 9.54297 18.9009 6.35133C18.613 6.05351 18.6211 5.5787 18.9189 5.29082Z" fill="black"/>
<path fill-rule="evenodd" clip-rule="evenodd" d="M7.27675 18.6064C7.18341 19.0099 6.78066 19.2613 6.37714 19.1681L3.84374 18.5825C3.44016 18.4892 3.18863 18.0864 3.28191 17.6828C3.3752 17.2793 3.77798 17.0277 4.18156 17.121L5.98435 17.5377L6.39804 15.7494C6.49139 15.3459 6.89422 15.0944 7.29777 15.1878C7.70133 15.2811 7.9528 15.684 7.85944 16.0875L7.27675 18.6064Z" fill="black"/>
<path fill-rule="evenodd" clip-rule="evenodd" d="M7.07328 18.7092C6.77546 18.9971 6.30065 18.989 6.01277 18.6912C2.3615 14.9138 2.38672 8.89094 6.10501 5.14428C8.43432 2.7971 11.6671 1.89303 14.6905 2.43387C15.0983 2.50681 15.3697 2.89648 15.2967 3.30422C15.2238 3.71196 14.8341 3.98337 14.4264 3.91043C11.8673 3.45265 9.13738 4.21812 7.1697 6.20089L7.16969 6.2009C4.02753 9.36704 4.00622 14.457 7.09129 17.6487C7.37916 17.9465 7.3711 18.4213 7.07328 18.7092Z" fill="black"/>
</svg>