<svg width="24" height="24" viewBox="0 0 24 24" fill="none" xmlns="http://www.w3.org/2000/svg">
<path fill-rule="evenodd" clip-rule="evenodd" d="M16.415 4.8017C16.7079 4.50881 17.1827 4.50881 17.4756 4.8017C17.8949 5.22099 18.2494 5.57555 18.5845 5.91081C19.2028 6.52932 19.7555 7.08218 20.5287 7.8548C20.6695 7.99543 20.7486 8.18623 20.7486 8.38519C20.7487 8.58416 20.6696 8.77498 20.529 8.91567L17.4756 11.9697C17.1827 12.2625 16.7079 12.2625 16.415 11.9697C16.1221 11.6768 16.1221 11.2019 16.415 10.909L18.9379 8.38556C18.4214 7.86927 17.991 7.43879 17.5233 6.97094C17.1882 6.63571 16.8339 6.28129 16.415 5.86236C16.1221 5.56947 16.1221 5.09459 16.415 4.8017Z" fill="black"/>
<path fill-rule="evenodd" clip-rule="evenodd" d="M3.25 13.5293C3.25 10.2756 5.88885 7.63672 9.14259 7.63672H20C20.4142 7.63672 20.75 7.97251 20.75 8.38672C20.75 8.80093 20.4142 9.13672 20 9.13672H9.14259C6.71727 9.13672 4.75 11.104 4.75 13.5293C4.75 15.9557 6.71736 17.9228 9.14259 17.9228H17.5802C17.9944 17.9228 18.3302 18.2586 18.3302 18.6728C18.3302 19.087 17.9944 19.4228 17.5802 19.4228H9.14259C5.88876 19.4228 3.25 16.7839 3.25 13.5293Z" fill="black"/>
</svg>