<svg width="25" height="25" viewBox="0 0 25 25" fill="none" xmlns="http://www.w3.org/2000/svg">
<path fill-rule="evenodd" clip-rule="evenodd" d="M12.25 3.8125C7.69329 3.8125 4 7.50579 4 12.0625C4 16.6192 7.69329 20.3125 12.25 20.3125C16.8067 20.3125 20.5 16.6192 20.5 12.0625C20.5 7.50579 16.8067 3.8125 12.25 3.8125ZM2.5 12.0625C2.5 6.67737 6.86487 2.3125 12.25 2.3125C17.6351 2.3125 22 6.67737 22 12.0625C22 17.4476 17.6351 21.8125 12.25 21.8125C6.86487 21.8125 2.5 17.4476 2.5 12.0625Z" fill="black"/>
<path fill-rule="evenodd" clip-rule="evenodd" d="M11.7676 15.502C11.7676 15.0877 12.1034 14.752 12.5176 14.752H13.7591C14.1733 14.752 14.5091 15.0877 14.5091 15.502C14.5091 15.9162 14.1733 16.252 13.7591 16.252H12.5176C12.1034 16.252 11.7676 15.9162 11.7676 15.502Z" fill="black"/>
<path fill-rule="evenodd" clip-rule="evenodd" d="M12.5176 7.87305C12.9318 7.87305 13.2676 8.20883 13.2676 8.62305V12.295C13.2676 12.5843 13.502 12.8187 13.7912 12.8187H13.9965C14.2854 12.8187 14.5201 12.5837 14.5201 12.295V11.3153C14.5201 10.9011 14.8559 10.5653 15.2701 10.5653C15.6843 10.5653 16.0201 10.9011 16.0201 11.3153V12.295C16.0201 13.4114 15.1145 14.3187 13.9965 14.3187H13.7912C12.6735 14.3187 11.7676 13.4127 11.7676 12.295V8.62305C11.7676 8.20883 12.1034 7.87305 12.5176 7.87305Z" fill="black"/>
<path fill-rule="evenodd" clip-rule="evenodd" d="M17.1782 10.4688C17.5924 10.4688 17.9282 10.8045 17.9282 11.2188V13.3836L17.928 13.3989C17.9023 14.6601 17.104 15.7758 15.9185 16.2067C15.5292 16.3482 15.0989 16.1473 14.9574 15.758C14.8159 15.3687 15.0168 14.9384 15.4061 14.7969C16.0067 14.5786 16.4123 14.0144 16.4282 13.3752V11.2188C16.4282 10.8045 16.764 10.4688 17.1782 10.4688Z" fill="black"/>
<path fill-rule="evenodd" clip-rule="evenodd" d="M10.5292 7.875C10.9434 7.875 11.2792 8.21079 11.2792 8.625V13.6164C11.2792 14.9169 10.2253 15.9708 8.92475 15.9708C7.62415 15.9708 6.57031 14.9169 6.57031 13.6164V12.7309C6.57031 12.3167 6.9061 11.9809 7.32031 11.9809C7.73453 11.9809 8.07031 12.3167 8.07031 12.7309V13.6164C8.07031 14.0885 8.45258 14.4708 8.92475 14.4708C9.39691 14.4708 9.77918 14.0885 9.77918 13.6164V8.625C9.77918 8.21079 10.115 7.875 10.5292 7.875Z" fill="black"/>
</svg>