<svg width="24" height="25" viewBox="0 0 24 25" fill="none" xmlns="http://www.w3.org/2000/svg">
<path d="M21.2506 9.02725C21.2506 11.7182 20.449 15.6851 13.9688 10.5392" stroke="black" stroke-width="1.5" stroke-linecap="round" stroke-linejoin="round"/>
<path d="M2.75084 9.02734C2.75084 6.33647 3.60284 2.36952 10.4902 7.51534" stroke="black" stroke-width="1.5" stroke-linecap="round" stroke-linejoin="round"/>
<path d="M10.4902 7.32617C10.4902 6.77389 10.9379 6.32617 11.4902 6.32617H12.9706C13.5229 6.32617 13.9706 6.77389 13.9706 7.32617V10.7287C13.9706 11.281 13.5229 11.7287 12.9706 11.7287H11.4902C10.938 11.7287 10.4902 11.281 10.4902 10.7287V7.32617Z" stroke="black" stroke-width="1.5" stroke-linecap="round" stroke-linejoin="round"/>
<path d="M9.34936 11.3833C9.4037 12.5998 8.4819 15.3752 5.08496 16.384L6.84564 17.3794L6.2034 20.2148C8.88917 18.8265 10.1656 16.8941 10.7117 15.1032" stroke="black" stroke-width="1.5" stroke-linecap="round" stroke-linejoin="round"/>
<path d="M13.4655 11.6084C13.1745 13.6985 13.5625 17.788 18.2576 20.215L17.6154 17.3795L19.376 16.3842C17.8276 15.9244 16.7935 15.0975 16.1317 14.2185" stroke="black" stroke-width="1.5" stroke-linecap="round" stroke-linejoin="round"/>
<path d="M13.9707 9.24756C14.43 9.27475 15.7546 9.22356 17.3789 8.80127" stroke="black" stroke-width="1.5" stroke-linecap="round" stroke-linejoin="round"/>
<path d="M10.4902 9.24756C10.031 9.27475 8.70634 9.22356 7.08203 8.80127" stroke="black" stroke-width="1.5" stroke-linecap="round" stroke-linejoin="round"/>
<path d="M13.9688 7.51514C17.9216 4.37626 19.7615 4.62809 20.5954 5.91272" stroke="black" stroke-width="1.5" stroke-linecap="round" stroke-linejoin="round"/>
<path d="M10.4902 10.5392C5.67503 14.1369 3.80985 13.2803 3.12338 11.5197" stroke="black" stroke-width="1.5" stroke-linecap="round" stroke-linejoin="round"/>
</svg>