<svg width="24" height="25" viewBox="0 0 24 25" fill="none" xmlns="http://www.w3.org/2000/svg">
<path fill-rule="evenodd" clip-rule="evenodd" d="M21.7493 11.3136C21.9493 10.5541 22.0006 9.72855 22.0006 9.02749C22.0006 8.32645 21.9493 7.50092 21.7493 6.74141C21.5523 5.99298 21.182 5.20092 20.4605 4.71191C19.7082 4.20198 18.744 4.13267 17.6157 4.48688C16.503 4.83623 15.154 5.6166 13.5024 6.92815C13.178 7.18573 13.1238 7.65751 13.3814 7.98189C13.639 8.30627 14.1108 8.36042 14.4351 8.10284C16.0236 6.84148 17.2049 6.18804 18.065 5.91802C18.9096 5.65286 19.3608 5.77863 19.6189 5.95357C19.9079 6.14942 20.1431 6.53202 20.2988 7.12339C20.4516 7.70368 20.5006 8.3831 20.5006 9.02749C20.5006 9.6719 20.4516 10.3513 20.2988 10.9316C20.1431 11.523 19.9079 11.9056 19.6189 12.1014C19.3608 12.2764 18.9096 12.4021 18.065 12.137C17.2049 11.8669 16.0236 11.2135 14.4351 9.95215C14.1108 9.69456 13.639 9.74871 13.3814 10.0731C13.1238 10.3975 13.178 10.8692 13.5024 11.1268C15.154 12.4384 16.503 13.2188 17.6157 13.5681C18.744 13.9223 19.7082 13.853 20.4605 13.3431C21.182 12.8541 21.5523 12.062 21.7493 11.3136Z" fill="black"/>
<path fill-rule="evenodd" clip-rule="evenodd" d="M2.26934 11.3247C2.05542 10.5604 2.00084 9.73048 2.00084 9.02744C2.00084 8.32442 2.05542 7.49455 2.26934 6.73021C2.48144 5.97238 2.87798 5.18278 3.6345 4.70033C4.41164 4.20473 5.40654 4.1342 6.5878 4.48313C7.75769 4.82869 9.18451 5.60368 10.9391 6.91462C11.271 7.16254 11.339 7.63252 11.0911 7.96434C10.8431 8.29617 10.3732 8.36419 10.0413 8.11627C8.35226 6.8543 7.08981 6.19548 6.16287 5.92168C5.2473 5.65123 4.73782 5.77578 4.44103 5.96504C4.12363 6.16746 3.87671 6.55253 3.71383 7.13449C3.55277 7.70996 3.50084 8.38504 3.50084 9.02744C3.50084 9.66987 3.55277 10.3449 3.71383 10.9204C3.87671 11.5024 4.12363 11.8874 4.44103 12.0899C4.73781 12.2791 5.24729 12.4037 6.16287 12.1332C7.0898 11.8594 8.35226 11.2006 10.0413 9.93862C10.3732 9.6907 10.8431 9.75872 11.0911 10.0905C11.339 10.4224 11.271 10.8923 10.9391 11.1403C9.18451 12.4512 7.75769 13.2262 6.5878 13.5718C5.40654 13.9207 4.41164 13.8502 3.6345 13.3546C2.87798 12.8721 2.48144 12.0825 2.26934 11.3247Z" fill="black"/>
<path fill-rule="evenodd" clip-rule="evenodd" d="M9.74023 7.32617C9.74023 6.35967 10.5237 5.57617 11.4902 5.57617H12.9706C13.9371 5.57617 14.7206 6.35967 14.7206 7.32617V10.7287C14.7206 11.6952 13.9371 12.4787 12.9706 12.4787H11.4902C10.5237 12.4787 9.74023 11.6952 9.74023 10.7287V7.32617ZM11.4902 7.07617C11.3522 7.07617 11.2402 7.1881 11.2402 7.32617V10.7287C11.2402 10.8668 11.3522 10.9787 11.4902 10.9787H12.9706C13.1087 10.9787 13.2206 10.8668 13.2206 10.7287V7.32617C13.2206 7.1881 13.1087 7.07617 12.9706 7.07617H11.4902Z" fill="black"/>
<path fill-rule="evenodd" clip-rule="evenodd" d="M9.31582 10.6341C8.90202 10.6525 8.58156 11.003 8.60004 11.4168C8.64078 12.3287 7.90173 14.7651 4.87138 15.6651C4.58292 15.7508 4.37358 16.0006 4.33968 16.2996C4.30577 16.5986 4.45386 16.8889 4.71581 17.037L5.99087 17.7578L5.47187 20.0492C5.40743 20.3337 5.5138 20.6297 5.74456 20.8082C5.97533 20.9866 6.28862 21.0151 6.54775 20.8811C11.6173 18.2605 12.057 13.7937 11.7383 11.5048C11.6812 11.0946 11.3023 10.8083 10.8921 10.8654C10.4818 10.9225 10.1955 11.3014 10.2526 11.7116C10.4822 13.3603 10.256 16.3921 7.33304 18.6224L7.57705 17.5451C7.65019 17.2221 7.50291 16.8894 7.21466 16.7265L6.79536 16.4895C9.36236 15.101 10.1565 12.6465 10.0985 11.3498C10.0801 10.936 9.72963 10.6156 9.31582 10.6341Z" fill="black"/>
<path fill-rule="evenodd" clip-rule="evenodd" d="M15.1451 10.6341C15.5589 10.6525 15.8794 11.003 15.8609 11.4168C15.8202 12.3287 16.5592 14.7651 19.5896 15.6651C19.878 15.7508 20.0874 16.0006 20.1213 16.2996C20.1552 16.5986 20.0071 16.8889 19.7451 17.037L18.4701 17.7578L18.9891 20.0492C19.0535 20.3337 18.9471 20.6297 18.7164 20.8082C18.4856 20.9866 18.1723 21.0151 17.9132 20.8811C12.8437 18.2605 12.404 13.7937 12.7226 11.5048C12.7797 11.0946 13.1586 10.8083 13.5689 10.8654C13.9791 10.9225 14.2654 11.3014 14.2083 11.7116C13.9788 13.3603 14.2049 16.3921 17.1279 18.6224L16.8839 17.5451C16.8107 17.2221 16.958 16.8894 17.2463 16.7265L17.6656 16.4895C15.0986 15.101 14.3045 12.6465 14.3624 11.3498C14.3809 10.936 14.7313 10.6156 15.1451 10.6341Z" fill="black"/>
<path fill-rule="evenodd" clip-rule="evenodd" d="M18.1048 9.44244C18.209 9.04155 17.9685 8.63208 17.5676 8.52785C15.8744 8.08766 14.4711 8.0265 13.9264 8.05875C13.5129 8.08323 13.1975 8.43827 13.222 8.85176C13.2465 9.26525 13.6015 9.58061 14.015 9.55612C14.3889 9.53399 15.6348 9.57521 17.1902 9.97959C17.5911 10.0838 18.0006 9.84332 18.1048 9.44244Z" fill="black"/>
<path fill-rule="evenodd" clip-rule="evenodd" d="M6.35616 9.44195C6.25194 9.04106 6.49243 8.63159 6.89332 8.52737C8.5865 8.08717 9.98986 8.02601 10.5346 8.05826C10.9481 8.08274 11.2634 8.43778 11.2389 8.85127C11.2144 9.26476 10.8594 9.58012 10.4459 9.55564C10.0721 9.5335 8.82618 9.57472 7.27074 9.97911C6.86986 10.0833 6.46038 9.84284 6.35616 9.44195Z" fill="black"/>
</svg>