<svg width="25" height="24" viewBox="0 0 25 24" fill="none" xmlns="http://www.w3.org/2000/svg">
<path fill-rule="evenodd" clip-rule="evenodd" d="M20.4862 12.1597C21.0895 12.1597 21.5644 12.689 21.4924 13.2884C21.4165 13.9131 21.2793 14.5202 21.0847 15.1041C20.3413 17.3342 18.7844 19.1898 16.7673 20.3098C16.1845 20.6338 15.5209 20.7895 14.8534 20.7895H10.3784C9.70899 20.7895 9.04343 20.6328 8.45767 20.3068C5.91126 18.8901 4.10142 16.3096 3.73849 13.2825C3.66745 12.6861 4.14326 12.1597 4.7446 12.1597H20.4862Z" stroke="black" stroke-width="1.5" stroke-linecap="round" stroke-linejoin="round"/>
<path opacity="0.4" d="M14.0464 9.76724C13.7604 9.27294 13.2252 8.94016 12.6132 8.94016C12.042 8.94016 11.538 9.23013 11.2402 9.66994" stroke="black" stroke-width="1.5" stroke-linecap="round" stroke-linejoin="round"/>
<path d="M16.6332 8.5564C16.7003 7.89377 16.4211 7.21459 15.8421 6.79619C15.3021 6.406 14.6278 6.33595 14.0459 6.54904" stroke="black" stroke-width="1.5" stroke-linecap="round" stroke-linejoin="round"/>
<path d="M20.4277 12.159C20.4948 11.4964 20.2156 10.8172 19.6366 10.3988C19.3029 10.1585 18.9185 10.0398 18.5361 10.0339" stroke="black" stroke-width="1.5" stroke-linecap="round" stroke-linejoin="round"/>
<path d="M19.0361 10.1069L19.1013 9.76639C19.2998 8.8751 18.7364 7.99159 17.8461 7.79309C17.4793 7.71135 17.1153 7.76292 16.7962 7.9118L16.6094 8.00618" stroke="black" stroke-width="1.5" stroke-linecap="round" stroke-linejoin="round"/>
<path d="M4.84037 12.1599C4.35094 11.2666 4.67885 10.1457 5.57209 9.65625C6.29991 9.25731 7.27586 9.34197 7.84119 9.89173C7.72734 9.11136 8.0319 8.22979 8.58069 7.58079C9.2151 6.82961 10.156 6.48807 11.0658 6.58635C10.952 5.5744 11.6798 4.66073 12.6917 4.54688C13.7047 4.43304 14.6174 5.16086 14.7312 6.17379L14.7594 6.43164" stroke="black" stroke-width="1.5" stroke-linecap="round" stroke-linejoin="round"/>
<path opacity="0.4" d="M7.08172 3.21045L7.84165 9.89223L3.5 4.53474" stroke="black" stroke-width="1.5" stroke-linecap="round" stroke-linejoin="round"/>
</svg>