<svg width="24" height="24" viewBox="0 0 24 24" fill="none" xmlns="http://www.w3.org/2000/svg">
<path d="M20.5847 15.1041C20.7793 14.5202 20.9165 13.9131 20.9924 13.2884C21.0644 12.689 20.5895 12.1597 19.9862 12.1597H4.2446C3.64326 12.1597 3.16745 12.6861 3.23849 13.2825C3.60142 16.3096 5.41126 18.8901 7.95767 20.3068C8.54343 20.6328 9.20899 20.7895 9.87843 20.7895H14.3534C15.0209 20.7895 15.6845 20.6338 16.2673 20.3098C17.3334 19.7178 18.2709 18.9204 19.0278 17.9708" stroke="black" stroke-width="1.5" stroke-linecap="round" stroke-linejoin="round"/>
<path d="M13.5464 9.76726C13.2604 9.27296 12.7252 8.94019 12.1132 8.94019C11.542 8.94019 11.038 9.23015 10.7402 9.66996" stroke="black" stroke-width="1.5" stroke-linecap="round" stroke-linejoin="round"/>
<path d="M16.1332 8.5564C16.2003 7.89377 15.9211 7.21459 15.3421 6.79619C14.8021 6.406 14.1278 6.33595 13.5459 6.54904" stroke="black" stroke-width="1.5" stroke-linecap="round" stroke-linejoin="round"/>
<path d="M19.9277 12.159C19.9948 11.4964 19.7156 10.8172 19.1366 10.3988C18.8029 10.1585 18.4185 10.0398 18.0361 10.0339" stroke="black" stroke-width="1.5" stroke-linecap="round" stroke-linejoin="round"/>
<path d="M18.5361 10.1069L18.6013 9.76639C18.7998 8.8751 18.2364 7.99159 17.3461 7.79309C16.9793 7.71135 16.6153 7.76292 16.2962 7.9118L16.1094 8.00618" stroke="black" stroke-width="1.5" stroke-linecap="round" stroke-linejoin="round"/>
<path d="M4.34037 12.1598C3.85094 11.2666 4.17885 10.1457 5.07209 9.65625C5.79991 9.2573 6.77586 9.34196 7.34119 9.89172C7.22734 9.11135 7.5319 8.22979 8.08069 7.58078C8.7151 6.8296 9.65602 6.48807 10.5658 6.58634C10.452 5.57439 11.1798 4.66072 12.1917 4.54688" stroke="black" stroke-width="1.5" stroke-linecap="round" stroke-linejoin="round"/>
<path d="M6.58172 3.21045L7.34165 9.89223L3 4.53474" stroke="black" stroke-width="1.5" stroke-linecap="round" stroke-linejoin="round"/>
</svg>