<svg width="24" height="24" viewBox="0 0 24 24" fill="none" xmlns="http://www.w3.org/2000/svg">
<path fill-rule="evenodd" clip-rule="evenodd" d="M11.8382 12.1313L11.1692 11.8553C10.8642 11.7303 10.6442 11.4743 10.5672 11.1533C10.4892 10.8323 10.5672 10.5033 10.7822 10.2533C11.1422 9.83327 11.7802 9.77927 12.2052 10.1343L13.2292 10.9863C13.7702 11.4363 14.4562 11.6843 15.1592 11.6843H18.0602C18.6122 11.6843 19.0602 11.2363 19.0602 10.6843C19.0602 10.1323 18.6122 9.68427 18.0602 9.68427H15.1592C14.9222 9.68427 14.6912 9.60127 14.5082 9.44927L13.4862 8.59827C12.2272 7.54627 10.3332 7.70527 9.26317 8.95127C8.62617 9.69527 8.39217 10.6703 8.62317 11.6243C8.85317 12.5763 9.50517 13.3363 10.4092 13.7053L11.0792 13.9813C11.5902 14.1903 11.8382 14.7603 11.6452 15.2783L10.7762 17.5943C10.5822 18.1113 10.8432 18.6883 11.3602 18.8813C11.4762 18.9253 11.5952 18.9463 11.7122 18.9463C12.1172 18.9463 12.4982 18.6983 12.6482 18.2973L13.5182 15.9803C14.0932 14.4413 13.3542 12.7503 11.8382 12.1313Z" fill="black"/>
<g opacity="0.4">
<path fill-rule="evenodd" clip-rule="evenodd" d="M14.0625 7.037C15.3475 7.037 16.3935 5.991 16.3935 4.706C16.3935 3.421 15.3475 2.375 14.0625 2.375C12.7765 2.375 11.7305 3.421 11.7305 4.706C11.7305 5.991 12.7765 7.037 14.0625 7.037Z" fill="black"/>
<path fill-rule="evenodd" clip-rule="evenodd" d="M6.20457 20.1253C5.10257 20.1253 4.20557 19.2293 4.20557 18.1273C4.20557 17.0253 5.10257 16.1283 6.20457 16.1283C7.30657 16.1283 8.20257 17.0253 8.20257 18.1273C8.20257 19.2293 7.30657 20.1253 6.20457 20.1253ZM6.20457 14.6283C4.27557 14.6283 2.70557 16.1983 2.70557 18.1273C2.70557 20.0563 4.27557 21.6253 6.20457 21.6253C8.13357 21.6253 9.70257 20.0563 9.70257 18.1273C9.70257 16.1983 8.13357 14.6283 6.20457 14.6283Z" fill="black"/>
<path fill-rule="evenodd" clip-rule="evenodd" d="M17.7964 20.1253C16.6944 20.1253 15.7974 19.2293 15.7974 18.1273C15.7974 17.0253 16.6944 16.1283 17.7964 16.1283C18.8984 16.1283 19.7944 17.0253 19.7944 18.1273C19.7944 19.2293 18.8984 20.1253 17.7964 20.1253ZM17.7964 14.6283C15.8674 14.6283 14.2974 16.1983 14.2974 18.1273C14.2974 20.0563 15.8674 21.6253 17.7964 21.6253C19.7254 21.6253 21.2944 20.0563 21.2944 18.1273C21.2944 16.1983 19.7254 14.6283 17.7964 14.6283Z" fill="black"/>
</g>
</svg>