<svg width="25" height="24" viewBox="0 0 25 24" fill="none" xmlns="http://www.w3.org/2000/svg">
<path fill-rule="evenodd" clip-rule="evenodd" d="M5.19747 4.84833C4.45613 5.52594 4 6.43748 4 7.37288V17.4697C4 17.9142 4.36051 18.2744 4.8047 18.2744C5.24956 18.2744 5.6094 17.9145 5.6094 17.4697V11.2382C5.6094 10.824 5.94518 10.4882 6.3594 10.4882H7.48116C8.64796 10.4882 9.71689 9.92967 10.3675 9.07174L10.3687 9.07026C10.5289 8.86006 10.6189 8.58116 10.6189 8.27768V5.94271C10.6189 5.64133 10.5281 5.35991 10.3663 5.14637C9.78522 4.37822 8.88333 3.87191 7.86904 3.81983C6.91318 3.77629 5.93893 4.17063 5.19747 4.84833ZM4.18548 3.74114C5.18045 2.83173 6.53313 2.25664 7.93989 2.3215L7.94341 2.32166C9.41709 2.39656 10.7233 3.13192 11.5623 4.24103C11.9413 4.74153 12.1189 5.34918 12.1189 5.94271V8.27768C12.1189 8.86898 11.9444 9.47707 11.5621 9.97889C10.6308 11.2064 9.12182 11.9882 7.48116 11.9882H7.1094V17.4697C7.1094 18.743 6.07799 19.7744 4.8047 19.7744C3.53269 19.7744 2.5 18.7433 2.5 17.4697V7.37288C2.5 5.9451 3.18995 4.65107 4.18548 3.74114ZM16.6544 7.06809C16.502 6.10101 15.5935 5.44038 14.626 5.59355C14.2168 5.65832 13.8327 5.37916 13.7679 4.97004C13.7032 4.56093 13.9823 4.17677 14.3914 4.112C16.1772 3.82931 17.8546 5.04834 18.1362 6.83457C18.2006 7.24374 17.9212 7.6277 17.5121 7.69218C17.1029 7.75667 16.7189 7.47725 16.6544 7.06809ZM8.52116 5.74451C8.93537 5.74451 9.27116 6.08029 9.27116 6.49451V7.8556C9.27116 8.26981 8.93537 8.6056 8.52116 8.6056C8.10695 8.6056 7.77116 8.26981 7.77116 7.8556V6.49451C7.77116 6.08029 8.10695 5.74451 8.52116 5.74451ZM9.90509 15.6361C9.90509 12.2963 12.6128 9.58862 15.9525 9.58862C19.2923 9.58862 22 12.2963 22 15.6361C22 18.9758 19.2923 21.6835 15.9525 21.6835C12.6128 21.6835 9.90509 18.9758 9.90509 15.6361ZM15.9525 11.0886C13.4412 11.0886 11.4051 13.1248 11.4051 15.6361C11.4051 18.1474 13.4412 20.1835 15.9525 20.1835C18.4638 20.1835 20.5 18.1474 20.5 15.6361C20.5 13.1248 18.4638 11.0886 15.9525 11.0886ZM14.1045 13.5205C14.1045 13.1063 14.4403 12.7705 14.8545 12.7705H16.3547C17.4368 12.7705 18.3121 13.6476 18.3121 14.7279C18.3121 15.4705 17.8985 16.117 17.2884 16.4487L17.8618 17.349C18.0843 17.6984 17.9815 18.162 17.6321 18.3845C17.2828 18.607 16.8191 18.5042 16.5966 18.1548L15.6607 16.6852H15.6045V17.7517C15.6045 18.1659 15.2687 18.5017 14.8545 18.5017C14.4403 18.5017 14.1045 18.1659 14.1045 17.7517V13.5205ZM15.6045 15.1852V14.2705H16.3547C16.6076 14.2705 16.8121 14.4753 16.8121 14.7279C16.8121 14.9805 16.6076 15.1852 16.3547 15.1852H15.6045Z" fill="black"/>
</svg>