<svg width="24" height="24" viewBox="0 0 24 24" fill="none" xmlns="http://www.w3.org/2000/svg">
<path fill-rule="evenodd" clip-rule="evenodd" d="M12.1195 10.7506C12.4117 10.4571 12.8866 10.4561 13.1801 10.7483L15.5292 13.0871C15.6705 13.2278 15.75 13.4189 15.75 13.6184C15.75 13.8178 15.6707 14.009 15.5294 14.1498L13.1804 16.4907C12.887 16.7831 12.4121 16.7823 12.1197 16.4889C11.8273 16.1955 11.8282 15.7206 12.1216 15.4282L13.1849 14.3685L9 14.3685C8.58579 14.3685 8.25 14.0328 8.25 13.6185C8.25 13.2043 8.58579 12.8685 9 12.8685L13.1837 12.8685L12.1218 11.8113C11.8283 11.519 11.8272 11.0442 12.1195 10.7506Z" fill="black"/>
<path fill-rule="evenodd" clip-rule="evenodd" d="M9.66838 4.52203C10.7272 2.68656 13.3782 2.6932 14.4277 4.53408L14.4278 4.53423L21.3877 16.7493L21.3878 16.7494C22.4291 18.5781 21.1086 20.8507 19.0041 20.8507H4.99588C2.88468 20.8507 1.56537 18.5658 2.62006 16.7371L2.62013 16.737L9.66838 4.52203ZM13.1245 5.27682C12.6488 4.44268 11.4476 4.43965 10.9677 5.27153L10.9677 5.27162L3.91943 17.4865C3.91941 17.4866 3.91938 17.4866 3.91936 17.4867C3.44136 18.3156 4.03953 19.3507 4.99588 19.3507H19.0041C19.9574 19.3507 20.5564 18.3207 20.0843 17.4917L13.1246 5.27696C13.1245 5.27691 13.1245 5.27687 13.1245 5.27682Z" fill="black"/>
</svg>