<svg width="24" height="24" viewBox="0 0 24 24" fill="none" xmlns="http://www.w3.org/2000/svg">
<path fill-rule="evenodd" clip-rule="evenodd" d="M11.0651 18.0027C10.776 18.0027 10.4868 17.8925 10.2675 17.672C9.82872 17.231 9.83097 16.5189 10.272 16.0812L13.242 13.1236H4.125C3.50287 13.1236 3 12.6196 3 11.9986C3 11.3776 3.50287 10.8736 4.125 10.8736H13.2397L10.2708 7.91602C9.83097 7.47727 9.82872 6.76402 10.2686 6.32415C10.7085 5.8854 11.4195 5.88427 11.8593 6.3219L16.7261 11.1729C16.8588 11.2966 16.9623 11.4508 17.0242 11.6263C17.0669 11.7455 17.0883 11.8715 17.0883 12.002C17.0883 12.3001 16.9691 12.587 16.7576 12.7985L11.8582 17.6742C11.64 17.8936 11.352 18.0027 11.0651 18.0027Z" fill="black"/>
<path fill-rule="evenodd" clip-rule="evenodd" d="M19.875 19.0456C19.2529 19.0456 18.75 18.5417 18.75 17.9207V6.08007C18.75 5.45795 19.2529 4.95508 19.875 4.95508C20.4971 4.95508 21 5.45795 21 6.08007V17.9207C21 18.5417 20.4971 19.0456 19.875 19.0456Z" fill="black"/>
</svg>