<svg width="24" height="24" viewBox="0 0 24 24" fill="none" xmlns="http://www.w3.org/2000/svg">
<path fill-rule="evenodd" clip-rule="evenodd" d="M15.2658 8.73109C15.4068 8.87203 15.486 9.06334 15.4857 9.26274L15.4793 13.5419C15.4787 13.9561 15.1424 14.2914 14.7282 14.2908C14.314 14.2901 13.9787 13.9539 13.9793 13.5396L13.983 11.075L9.79205 15.2659C9.49916 15.5588 9.02428 15.5588 8.73139 15.2659C8.4385 14.973 8.4385 14.4981 8.73139 14.2052L12.9209 10.0158L10.4616 10.0214C10.0474 10.0223 9.71083 9.68728 9.70988 9.27306C9.70894 8.85885 10.044 8.5223 10.4582 8.52136L14.734 8.51163C14.9334 8.51118 15.1247 8.59015 15.2658 8.73109Z" fill="black"/>
<path fill-rule="evenodd" clip-rule="evenodd" d="M3.7402 3.89737C4.72468 2.84117 6.12669 2.25 7.78216 2.25H16.2169C17.8762 2.25 19.2788 2.84084 20.2629 3.89765C21.2413 4.94841 21.75 6.39889 21.75 8.02638V15.9736C21.75 17.6011 21.2413 19.0516 20.2627 20.1024C19.2785 21.1592 17.8756 21.75 16.2159 21.75H7.78216C6.1228 21.75 4.72038 21.1591 3.73657 20.1023C2.75842 19.0515 2.25 17.601 2.25 15.9736V8.02638C2.25 6.39806 2.76117 4.94771 3.7402 3.89737ZM4.83745 4.92012C4.16024 5.64666 3.75 6.70951 3.75 8.02638V15.9736C3.75 17.2914 4.15861 18.3541 4.83451 19.0802C5.50475 19.8003 6.49341 20.25 7.78216 20.25H16.2159C17.5052 20.25 18.4944 19.8002 19.165 19.0801C19.8412 18.354 20.25 17.2913 20.25 15.9736V8.02638C20.25 6.70868 19.8412 5.64597 19.1651 4.91984C18.4946 4.19975 17.5056 3.75 16.2169 3.75H7.78216C6.49828 3.75 5.50921 4.19943 4.83745 4.92012Z" fill="black"/>
</svg>