<svg width="24" height="25" viewBox="0 0 24 25" fill="none" xmlns="http://www.w3.org/2000/svg">
<path fill-rule="evenodd" clip-rule="evenodd" d="M17.9892 10.9663C17.8607 10.8588 17.6691 10.856 17.5507 10.9744L15.3281 13.196C14.7431 13.782 13.9751 14.075 13.2071 14.075C12.4401 14.075 11.6721 13.782 11.0861 13.196C9.91412 12.025 9.91412 10.125 11.0861 8.95405L13.3087 6.73146C13.4271 6.61303 13.4243 6.4214 13.3169 6.29291C12.8107 5.68752 12.5638 4.89598 12.6263 4.11228C12.6414 3.92286 12.5 3.74805 12.31 3.74805H8.33812C5.34312 3.74805 3.33112 5.67305 3.33112 8.53705V16.101C3.33112 18.965 5.34312 20.889 8.33812 20.889H15.4661C18.4611 20.889 20.4731 18.965 20.4731 16.101V11.975C20.4731 11.787 20.3018 11.6462 20.1142 11.6584C19.3481 11.7081 18.5804 11.4611 17.9892 10.9663Z" fill="black"/>
<path fill-rule="evenodd" clip-rule="evenodd" d="M19.9189 3.61328H15.6139C15.1999 3.61328 14.8639 3.94928 14.8639 4.36328C14.8639 4.77728 15.1999 5.11328 15.6139 5.11328H18.1079L12.6769 10.5443C12.3839 10.8373 12.3839 11.3113 12.6769 11.6043C12.8239 11.7513 13.0149 11.8243 13.2079 11.8243C13.3999 11.8243 13.5909 11.7513 13.7379 11.6043L19.1689 6.17428V8.66828C19.1689 9.08228 19.5049 9.41828 19.9189 9.41828C20.3329 9.41828 20.6689 9.08228 20.6689 8.66828V4.36328C20.6689 3.9543 20.3276 3.61328 19.9189 3.61328Z" fill="black"/>
</svg>