<svg width="24" height="24" viewBox="0 0 24 24" fill="none" xmlns="http://www.w3.org/2000/svg">
<path opacity="0.4" fill-rule="evenodd" clip-rule="evenodd" d="M14.709 2.8C14.709 2.63431 14.5747 2.5 14.409 2.5L7.78398 2.5C4.62398 2.5 2.49998 4.72 2.49998 8.026L2.49998 15.973C2.49998 19.279 4.62298 21.5 7.78298 21.5L14.409 21.5C14.5747 21.5 14.709 21.3657 14.709 21.2L14.709 2.8Z" fill="black"/>
<path fill-rule="evenodd" clip-rule="evenodd" d="M16.218 21.2006C16.218 21.3663 16.3525 21.5014 16.518 21.4938C19.5107 21.3574 21.5 19.1739 21.5 15.9746L21.5 8.02662C21.5 4.82736 19.5107 2.64385 16.518 2.5074C16.3525 2.49986 16.218 2.63494 16.218 2.80062L16.218 21.2006Z" fill="black"/>
<path fill-rule="evenodd" clip-rule="evenodd" d="M7.80225 15.1145C7.52125 14.8105 7.53825 14.3355 7.84225 14.0535L10.0542 12.0005L7.84225 9.94651C7.53825 9.66551 7.52125 9.18951 7.80225 8.88551C8.08425 8.58351 8.55825 8.56551 8.86225 8.84651L11.6662 11.4505C11.8192 11.5925 11.9062 11.7915 11.9062 12.0005C11.9062 12.2095 11.8192 12.4085 11.6662 12.5505L8.86225 15.1535C8.55825 15.4345 8.08425 15.4175 7.80225 15.1145Z" fill="black"/>
</svg>