<svg width="24" height="24" viewBox="0 0 24 24" fill="none" xmlns="http://www.w3.org/2000/svg">
<path fill-rule="evenodd" clip-rule="evenodd" d="M7.28803 10.1084C7.58092 9.81551 8.0558 9.81551 8.34869 10.1084L15.4237 17.1834L15.4152 12.0939C15.4145 11.6797 15.7497 11.3433 16.164 11.3426C16.5782 11.3419 16.9145 11.6772 16.9152 12.0914L16.9267 18.9522C16.9386 19.1456 16.8759 19.3428 16.7385 19.4969C16.7284 19.5084 16.7179 19.5196 16.707 19.5305C16.5659 19.6714 16.3746 19.7504 16.1751 19.75L9.27093 19.7353C8.85672 19.7344 8.52164 19.3979 8.52252 18.9837C8.52341 18.5695 8.85991 18.2344 9.27412 18.2353L14.3651 18.2462L7.28803 11.1691C6.99514 10.8762 6.99514 10.4013 7.28803 10.1084Z" fill="black"/>
<path fill-rule="evenodd" clip-rule="evenodd" d="M5.33789 5C5.33789 4.58579 5.67368 4.25 6.08789 4.25H17.9134C18.3276 4.25 18.6634 4.58579 18.6634 5C18.6634 5.41421 18.3276 5.75 17.9134 5.75H6.08789C5.67368 5.75 5.33789 5.41421 5.33789 5Z" fill="black"/>
</svg>