<svg width="24" height="25" viewBox="0 0 24 25" fill="none" xmlns="http://www.w3.org/2000/svg">
<path d="M15.4795 3.40039H17.2805C19.6785 3.40039 21.6295 5.35239 21.6295 7.75039V16.7504C21.6295 19.1494 19.6785 21.1004 17.2805 21.1004H15.4795C15.0655 21.1004 14.7295 20.7644 14.7295 20.3504C14.7295 19.9364 15.0655 19.6004 15.4795 19.6004H17.2805C18.8515 19.6004 20.1295 18.3224 20.1295 16.7504V7.75039C20.1295 6.17839 18.8515 4.90039 17.2805 4.90039H15.4795C15.0655 4.90039 14.7295 4.56439 14.7295 4.15039C14.7295 3.73639 15.0655 3.40039 15.4795 3.40039Z" fill="black"/>
<path d="M17.8095 12.7814L15.5295 15.0614C15.3835 15.2074 15.1915 15.2814 14.9995 15.2814C14.8075 15.2814 14.6155 15.2074 14.4685 15.0614C14.343 14.9359 14.2712 14.777 14.2532 14.6133H14.2472V13.0004H10.5415V17.8514C10.5415 19.5054 9.19548 20.8514 7.54148 20.8514H5.37048C3.71648 20.8514 2.37048 19.5054 2.37048 17.8514V6.65039C2.37048 4.99639 3.71648 3.65039 5.37048 3.65039H7.54148C9.19548 3.65039 10.5415 4.99639 10.5415 6.65039V11.5004H14.2472V10.0059H14.2496C14.24 9.80247 14.3129 9.59593 14.4685 9.44039C14.7615 9.14739 15.2365 9.14739 15.5295 9.44039L17.8095 11.7204C18.1025 12.0134 18.1025 12.4884 17.8095 12.7814Z" fill="black"/>
</svg>