<svg width="25" height="24" viewBox="0 0 25 24" fill="none" xmlns="http://www.w3.org/2000/svg">
<path opacity="0.4" d="M8.771 6.42796V7.78905M11.619 8.21113C11.619 8.65867 11.487 9.10231 11.215 9.4584C10.424 10.5014 9.13499 11.1717 7.73099 11.1717H6.60901V17.4032C6.60901 18.2622 5.91399 18.9579 5.05499 18.9579C4.19699 18.9579 3.5 18.2622 3.5 17.4032V7.30633C3.5 4.94315 5.792 2.89519 8.155 3.00416C9.4 3.0674 10.504 3.68811 11.214 4.62696C11.485 4.98401 11.619 5.42863 11.619 5.87617V8.21113Z" stroke="black" stroke-width="1.5" stroke-linecap="round" stroke-linejoin="round"/>
<path d="M16.2023 10.2721C19.1273 10.2721 21.4993 12.644 21.4993 15.5696C21.4993 18.4951 19.1273 20.867 16.2023 20.867C13.2763 20.867 10.9043 18.4951 10.9043 15.5696C10.9043 12.644 13.2763 10.2721 16.2023 10.2721Z" stroke="black" stroke-width="1.5" stroke-linecap="round" stroke-linejoin="round"/>
<path d="M17.4775 17.6854L16.3255 15.8767M15.1035 17.6851V13.454H16.6035C17.2705 13.454 17.8105 13.9949 17.8105 14.6614C17.8105 15.3278 17.2705 15.8687 16.6035 15.8687H15.1035V17.6851Z" stroke="black" stroke-width="1.5" stroke-linecap="round" stroke-linejoin="round"/>
<path d="M14.7598 4.78628C16.1358 4.56835 17.4288 5.50817 17.6458 6.88483" stroke="black" stroke-width="1.5" stroke-linecap="round" stroke-linejoin="round"/>
</svg>