<svg width="24" height="24" viewBox="0 0 24 24" fill="none" xmlns="http://www.w3.org/2000/svg">
<path fill-rule="evenodd" clip-rule="evenodd" d="M15.426 6.81606L15.4175 11.9054C15.4168 12.3196 15.7521 12.6559 16.1663 12.6566C16.5805 12.6573 16.9168 12.3221 16.9175 11.9079L16.929 5.04734C16.9417 4.84027 16.869 4.62892 16.7107 4.47069C16.668 4.42798 16.6214 4.3915 16.5721 4.36124C16.4544 4.28884 16.318 4.24972 16.1776 4.25L9.27306 4.26363C8.85885 4.26445 8.52372 4.6009 8.52454 5.01511C8.52536 5.42933 8.86181 5.76445 9.27602 5.76363L14.3672 5.75358L7.28998 12.8308C6.99709 13.1237 6.99709 13.5986 7.28998 13.8914C7.58288 14.1843 8.05775 14.1843 8.35064 13.8914L15.426 6.81606Z" fill="black"/>
<path fill-rule="evenodd" clip-rule="evenodd" d="M5.33789 19C5.33789 18.5858 5.67368 18.25 6.08789 18.25H17.9139C18.3281 18.25 18.6639 18.5858 18.6639 19C18.6639 19.4142 18.3281 19.75 17.9139 19.75H6.08789C5.67368 19.75 5.33789 19.4142 5.33789 19Z" fill="black"/>
</svg>