<svg width="24" height="24" viewBox="0 0 24 24" fill="none" xmlns="http://www.w3.org/2000/svg">
<path fill-rule="evenodd" clip-rule="evenodd" d="M7.29729 14.6561C7.00929 14.6561 6.72129 14.5459 6.50192 14.3265C6.06204 13.8866 6.06204 13.1756 6.50192 12.7358L13.982 5.25563L8.93529 5.26575H8.93304C8.31317 5.26575 7.80917 4.764 7.80804 4.143C7.80692 3.522 8.30979 3.01688 8.93079 3.01575L16.6989 3H16.7012C16.9993 3 17.285 3.11925 17.4965 3.32963L17.501 3.33525C17.7317 3.567 17.8397 3.87525 17.8262 4.17788L17.8127 11.8976C17.8115 12.5186 17.3075 13.0204 16.6877 13.0204H16.6865C16.0644 13.0192 15.5615 12.5153 15.5627 11.8942L15.5717 6.84862L8.09267 14.3265C7.87329 14.5459 7.58529 14.6561 7.29729 14.6561Z" fill="black"/>
<path fill-rule="evenodd" clip-rule="evenodd" d="M18.6522 21H5.3479C4.7269 21 4.2229 20.496 4.2229 19.875C4.2229 19.254 4.7269 18.75 5.3479 18.75H18.6522C19.2732 18.75 19.7772 19.254 19.7772 19.875C19.7772 20.496 19.2732 21 18.6522 21Z" fill="black"/>
</svg>