<svg width="24" height="24" viewBox="0 0 24 24" fill="none" xmlns="http://www.w3.org/2000/svg">
<path fill-rule="evenodd" clip-rule="evenodd" d="M15.486 9.266L15.478 13.542C15.477 13.956 15.142 14.291 14.728 14.291C14.313 14.29 13.977 13.954 13.978 13.539L13.983 11.076L9.792 15.266C9.645 15.412 9.454 15.486 9.261 15.486C9.069 15.486 8.878 15.412 8.731 15.266C8.438 14.973 8.438 14.498 8.731 14.205L12.922 10.016L10.462 10.021H10.46C10.047 10.021 9.711 9.686 9.71 9.272C9.709 8.858 10.044 8.522 10.458 8.521L14.731 8.512H14.736C14.776 8.512 14.816 8.516 14.855 8.521C14.855 8.521 14.856 8.522 14.857 8.522C14.858 8.522 14.858 8.522 14.859 8.522H14.862L14.864 8.523C14.864 8.523 14.868 8.522 14.866 8.523L14.868 8.524C14.869 8.524 14.87 8.524 14.871 8.524L14.874 8.525C14.875 8.525 14.876 8.525 14.877 8.525L14.879 8.526C14.88 8.526 14.881 8.526 14.882 8.526C14.882 8.526 14.882 8.526 14.883 8.527C14.883 8.527 14.885 8.527 14.886 8.527C14.887 8.527 14.887 8.527 14.888 8.528C14.889 8.528 14.89 8.528 14.89 8.528C14.89 8.528 14.892 8.528 14.893 8.529C14.941 8.539 14.988 8.554 15.032 8.573C15.103 8.603 15.171 8.645 15.232 8.699C15.256 8.72 15.278 8.743 15.299 8.767C15.299 8.767 15.299 8.767 15.3 8.767C15.353 8.828 15.395 8.895 15.425 8.966C15.442 9.005 15.456 9.047 15.466 9.089V9.092C15.466 9.093 15.466 9.093 15.467 9.094V9.098C15.469 9.098 15.468 9.099 15.468 9.1C15.468 9.101 15.468 9.102 15.469 9.102V9.105C15.479 9.149 15.484 9.194 15.486 9.24V9.266ZM18.716 5.283C16.923 3.488 14.537 2.5 11.999 2.5C9.462 2.5 7.076 3.488 5.282 5.283C3.488 7.077 2.5 9.462 2.5 11.999C2.5 14.537 3.488 16.923 5.282 18.717C7.076 20.512 9.462 21.5 11.999 21.5C14.537 21.5 16.923 20.512 18.716 18.717C20.511 16.923 21.5 14.537 21.5 11.999C21.5 9.462 20.511 7.076 18.716 5.283Z" fill="black"/>
</svg>