<svg width="24" height="25" viewBox="0 0 24 25" fill="none" xmlns="http://www.w3.org/2000/svg">
<path opacity="0.4" fill-rule="evenodd" clip-rule="evenodd" d="M15.974 2.8125H8.026C4.721 2.8125 2.5 4.9365 2.5 8.0965V16.5305C2.5 19.6895 4.721 21.8125 8.026 21.8125H15.974C19.279 21.8125 21.5 19.6895 21.5 16.5305V8.0965C21.5 4.9365 19.279 2.8125 15.974 2.8125Z" fill="black"/>
<path fill-rule="evenodd" clip-rule="evenodd" d="M17.451 12.3122C17.451 12.3352 17.44 12.3552 17.438 12.3782C17.431 12.4542 17.422 12.5302 17.393 12.6002C17.354 12.6922 17.298 12.7752 17.228 12.8442L14.179 15.8832C14.033 16.0292 13.841 16.1022 13.65 16.1022C13.457 16.1022 13.265 16.0282 13.118 15.8812C12.826 15.5882 12.827 15.1132 13.12 14.8212L14.885 13.0622H10.078C9.66403 13.0622 9.32803 12.7262 9.32803 12.3122C9.32803 11.8982 9.66403 11.5622 10.078 11.5622H14.886L13.12 9.80419C12.827 9.51219 12.826 9.03719 13.118 8.74419C13.41 8.45119 13.885 8.44919 14.179 8.74219L17.23 11.7802C17.257 11.8062 17.269 11.8412 17.291 11.8712C17.328 11.9192 17.368 11.9652 17.392 12.0212C17.43 12.1122 17.451 12.2112 17.451 12.3122ZM8.05103 15.0382C8.05103 15.4522 7.71503 15.7882 7.30103 15.7882C6.88703 15.7882 6.55103 15.4522 6.55103 15.0382V9.58819C6.55103 9.17419 6.88703 8.83819 7.30103 8.83819C7.71503 8.83819 8.05103 9.17419 8.05103 9.58819V15.0382Z" fill="black"/>
</svg>