<svg width="24" height="24" viewBox="0 0 24 24" fill="none" xmlns="http://www.w3.org/2000/svg">
<path fill-rule="evenodd" clip-rule="evenodd" d="M12.3087 8.45221C12.0165 8.74579 12.0176 9.22066 12.3112 9.51287L14.0545 11.2481H8.13012C7.71591 11.2481 7.38012 11.5839 7.38012 11.9981C7.38012 12.4123 7.71591 12.7481 8.13012 12.7481H14.0565L12.3108 14.4884C12.0174 14.7809 12.0167 15.2558 12.3091 15.5491C12.6016 15.8424 13.0765 15.8432 13.3698 15.5507L16.4006 12.5292C16.5418 12.3885 16.6212 12.1972 16.6211 11.9978C16.621 11.7984 16.5415 11.6072 16.4002 11.4665L13.3694 8.44976C13.0758 8.15754 12.6009 8.15864 12.3087 8.45221Z" fill="black"/>
<path fill-rule="evenodd" clip-rule="evenodd" d="M13.5924 2.67673C13.5923 2.67669 13.5924 2.67676 13.5924 2.67673L19.2784 5.95856C20.2637 6.52761 20.8707 7.58007 20.8707 8.71759V15.2824C20.8707 16.4203 20.2636 17.4715 19.2786 18.0404L13.5924 21.3233C13.5923 21.3233 13.5924 21.3233 13.5924 21.3233C12.6072 21.8922 11.393 21.8922 10.4078 21.3233C10.4078 21.3233 10.4079 21.3233 10.4078 21.3233L4.72162 18.0404C3.73657 17.4715 3.12939 16.4203 3.12939 15.2824V8.71759C3.12939 7.58007 3.7362 6.5277 4.72153 5.95865L10.4077 2.67673C10.4077 2.67676 10.4078 2.67669 10.4077 2.67673C11.3928 2.10789 12.6072 2.10789 13.5924 2.67673ZM12.8422 3.97567C12.3212 3.67478 11.6789 3.67478 11.1579 3.97567L5.4717 7.2576C5.47164 7.25763 5.47176 7.25756 5.4717 7.2576C4.95093 7.55843 4.62939 8.11544 4.62939 8.71759V15.2824C4.62939 15.8843 4.95051 16.4404 5.47161 16.7414C5.47159 16.7414 5.47164 16.7414 5.47161 16.7414L11.1578 20.0243C11.6788 20.3252 12.3212 20.3252 12.8422 20.0243L18.5284 16.7414C18.5284 16.7414 18.5284 16.7414 18.5284 16.7414C19.0495 16.4404 19.3707 15.8843 19.3707 15.2824V8.71759C19.3707 8.11538 19.0493 7.55841 18.5284 7.2576L12.8422 3.97567Z" fill="black"/>
</svg>