<svg width="24" height="24" viewBox="0 0 24 24" fill="none" xmlns="http://www.w3.org/2000/svg">
<path fill-rule="evenodd" clip-rule="evenodd" d="M15.4228 11.5439C15.7156 11.251 16.1905 11.251 16.4834 11.5439L20.4482 15.508C20.5889 15.6487 20.6679 15.8395 20.6679 16.0385C20.6679 16.2374 20.5888 16.4282 20.4481 16.5688L16.4834 20.5321C16.1904 20.8249 15.7155 20.8248 15.4227 20.5319C15.1299 20.2389 15.1299 19.7641 15.4229 19.4712L18.8571 16.0383L15.4228 12.6046C15.1299 12.3117 15.1299 11.8368 15.4228 11.5439Z" fill="black"/>
<path fill-rule="evenodd" clip-rule="evenodd" d="M3.33203 16.0352C3.33203 15.6209 3.66782 15.2852 4.08203 15.2852H19.9181C20.3323 15.2852 20.6681 15.6209 20.6681 16.0352C20.6681 16.4494 20.3323 16.7852 19.9181 16.7852H4.08203C3.66782 16.7852 3.33203 16.4494 3.33203 16.0352Z" fill="black"/>
<path fill-rule="evenodd" clip-rule="evenodd" d="M8.18726 3.46974C8.48012 3.17681 8.95499 3.17674 9.24792 3.4696L12.8327 7.05334C12.9733 7.19399 13.0524 7.38476 13.0524 7.5837C13.0524 7.63922 13.0463 7.69411 13.0343 7.74745C13.0001 7.90345 12.9173 8.04125 12.8026 8.14422L9.248 11.6988C8.9551 11.9917 8.48023 11.9917 8.18734 11.6988C7.89444 11.4059 7.89444 10.931 8.18734 10.6382L10.4896 8.33594H4.08203C3.66782 8.33594 3.33203 8.00015 3.33203 7.58594C3.33203 7.17172 3.66782 6.83594 4.08203 6.83594H10.4936L8.18741 4.5304C7.89448 4.23755 7.89441 3.76268 8.18726 3.46974Z" fill="black"/>
</svg>