<svg width="24" height="24" viewBox="0 0 24 24" fill="none" xmlns="http://www.w3.org/2000/svg">
<path fill-rule="evenodd" clip-rule="evenodd" d="M2.25 12C2.25 6.61487 6.61487 2.25 12 2.25C17.3851 2.25 21.75 6.61487 21.75 12C21.75 17.3841 17.3852 21.75 12 21.75C6.61481 21.75 2.25 17.3841 2.25 12ZM12 3.75C7.44329 3.75 3.75 7.44329 3.75 12C3.75 16.5558 7.44335 20.25 12 20.25C16.5567 20.25 20.25 16.5558 20.25 12C20.25 7.44329 16.5567 3.75 12 3.75Z" fill="black"/>
<path fill-rule="evenodd" clip-rule="evenodd" d="M15.2658 8.73109C15.4068 8.87203 15.486 9.06334 15.4857 9.26274L15.4793 13.5419C15.4787 13.9561 15.1424 14.2914 14.7282 14.2908C14.314 14.2901 13.9787 13.9539 13.9793 13.5396L13.983 11.075L9.79205 15.2659C9.49916 15.5588 9.02428 15.5588 8.73139 15.2659C8.4385 14.973 8.4385 14.4981 8.73139 14.2052L12.9209 10.0158L10.4616 10.0214C10.0474 10.0223 9.71083 9.68728 9.70988 9.27306C9.70894 8.85885 10.044 8.5223 10.4582 8.52136L14.734 8.51163C14.9334 8.51118 15.1247 8.59015 15.2658 8.73109Z" fill="black"/>
</svg>