<svg width="24" height="24" viewBox="0 0 24 24" fill="none" xmlns="http://www.w3.org/2000/svg">
<path opacity="0.4" fill-rule="evenodd" clip-rule="evenodd" d="M7.782 2.5L16.216 2.5C19.377 2.5 21.5 4.721 21.5 8.026L21.5 15.974C21.5 19.28 19.376 21.5 16.215 21.5L7.782 21.5C4.623 21.5 2.5 19.28 2.5 15.974L2.5 8.026C2.5 4.721 4.623 2.5 7.782 2.5Z" fill="black"/>
<path fill-rule="evenodd" clip-rule="evenodd" d="M10.0684 14.844C9.77541 15.136 9.77341 15.611 10.0664 15.905C10.2134 16.052 10.4054 16.125 10.5974 16.125C10.7894 16.125 10.9804 16.052 11.1274 15.906L14.5184 12.53C14.6604 12.389 14.7394 12.198 14.7394 11.998C14.7394 11.799 14.6604 11.608 14.5184 11.467L11.1274 8.09C10.8344 7.797 10.3594 7.799 10.0664 8.092C9.77341 8.386 9.77541 8.861 10.0684 9.153L12.9264 11.998L10.0684 14.844Z" fill="black"/>
</svg>