<svg width="24" height="24" viewBox="0 0 24 24" fill="none" xmlns="http://www.w3.org/2000/svg">
<path opacity="0.4" fill-rule="evenodd" clip-rule="evenodd" d="M12 2.5C6.762 2.5 2.5 6.762 2.5 12C2.5 17.238 6.762 21.5 12 21.5C17.238 21.5 21.5 17.238 21.5 12C21.5 6.762 17.238 2.5 12 2.5Z" fill="black"/>
<path fill-rule="evenodd" clip-rule="evenodd" d="M15.4783 13.5416L15.4854 9.26216L15.4861 9.26004C15.4861 9.26004 15.4854 9.26075 15.4861 9.25721L15.4861 9.2558V9.25297L15.4861 9.25156L15.4861 9.24731L15.4854 9.24519L15.4854 9.24236C15.4832 9.14832 15.4634 9.05781 15.4295 8.97579C15.3956 8.89235 15.3454 8.81386 15.2803 8.74597L15.2782 8.74244L15.2662 8.73042C15.2612 8.72688 15.252 8.72052 15.2541 8.7184L15.2513 8.71698C15.1848 8.65334 15.1099 8.60526 15.03 8.57061C14.9437 8.53384 14.8475 8.51263 14.7478 8.51051L14.7443 8.51122L14.7436 8.51051L14.733 8.51122L10.4571 8.52041C10.0428 8.52182 9.70759 8.85841 9.7083 9.27206C9.70971 9.68643 10.0456 10.0209 10.46 10.0209L12.9214 10.0145L8.73108 14.2048C8.43833 14.4976 8.43833 14.9728 8.73108 15.2655C9.02382 15.5582 9.49899 15.5582 9.79174 15.2655L13.9828 11.0745L13.9785 13.5395C13.9778 13.9531 14.3123 14.2904 14.7266 14.2904C15.1417 14.2911 15.4776 13.9552 15.4783 13.5416Z" fill="black"/>
</svg>