<svg width="25" height="24" viewBox="0 0 25 24" fill="none" xmlns="http://www.w3.org/2000/svg">
<path fill-rule="evenodd" clip-rule="evenodd" d="M6.30468 9.29534C6.30468 9.29537 6.30468 9.29532 6.30468 9.29534L6.30371 14.7031C6.30287 17.7233 8.9206 20.25 12.2487 20.25C15.5762 20.25 18.1938 17.7251 18.1938 14.7058L18.1957 9.29687C18.1957 9.29685 18.1957 9.29689 18.1957 9.29687C18.1965 6.27661 15.5788 3.75 12.2507 3.75C8.92342 3.75 6.30557 6.27489 6.30468 9.29534ZM4.80468 9.29493C4.80579 5.3606 8.18338 2.25 12.2507 2.25C16.3191 2.25 19.6968 5.36277 19.6957 9.29729L19.6938 14.7058C19.6938 14.7059 19.6938 14.7057 19.6938 14.7058C19.6936 18.6393 16.3158 21.75 12.2487 21.75C8.18036 21.75 4.80265 18.6373 4.80371 14.7028C4.80371 14.7028 4.80371 14.7028 4.80371 14.7028L4.80468 9.29493Z" fill="black"/>
<path fill-rule="evenodd" clip-rule="evenodd" d="M12.25 2.25391C12.6642 2.25391 13 2.58969 13 3.00391V8.84953C13 8.93535 13.0699 9.00634 13.1578 9.00634H18.9479C19.3622 9.00634 19.6979 9.34212 19.6979 9.75634C19.6979 10.1706 19.3622 10.5063 18.9479 10.5063H13.1578C12.2435 10.5063 11.5 9.76587 11.5 8.84953V3.00391C11.5 2.58969 11.8358 2.25391 12.25 2.25391Z" fill="black"/>
</svg>