<svg width="24" height="24" viewBox="0 0 24 24" fill="none" xmlns="http://www.w3.org/2000/svg">
<path fill-rule="evenodd" clip-rule="evenodd" d="M15.0438 17.7886C15.0438 19.0786 13.9938 20.1286 12.7038 20.1286C11.5338 20.1286 10.5538 19.2786 10.3938 18.1286L10.3838 17.7686H15.0438V17.7886ZM20.4838 13.8086L20.0238 12.8186C19.7238 12.1686 19.5638 11.4786 19.5638 10.7686V9.73864C19.5638 9.43864 19.5438 8.07364 19.4738 7.65364C19.4438 7.47364 19.3138 7.32364 19.1338 7.26364C18.9638 7.20364 18.7738 7.25364 18.6338 7.37364C18.6338 7.37364 9.1368 16.6876 9.0438 16.7986C8.9338 16.9296 8.8688 17.0986 8.8738 17.2886L8.8938 18.2286C8.8938 18.2386 8.9038 18.2586 8.9038 18.2686C8.9038 18.2786 8.8938 18.2886 8.9038 18.3086C9.1438 20.1986 10.7838 21.6286 12.7038 21.6286C14.8238 21.6286 16.5438 19.9086 16.5438 17.7886V17.7686H17.9738C18.9338 17.7686 19.8138 17.2786 20.3238 16.4686C20.8338 15.6586 20.8938 14.6686 20.4838 13.8086Z" fill="black"/>
<path fill-rule="evenodd" clip-rule="evenodd" d="M19.7438 3.64859L4.52384 18.8686C4.38384 19.0186 4.19384 19.0886 3.99384 19.0886C3.80384 19.0886 3.61384 19.0186 3.46384 18.8686C3.17384 18.5786 3.17384 18.1086 3.46384 17.8086L4.73384 16.5486C4.19384 15.7486 4.08384 14.7086 4.51384 13.8086L4.98384 12.8086C5.27384 12.1786 5.43384 11.4686 5.43384 10.7686V9.44859C5.43384 5.54859 8.60384 2.37859 12.4938 2.37859C14.2238 2.37859 15.8738 3.01859 17.1438 4.13859L18.6838 2.58859C18.9838 2.29859 19.4538 2.29859 19.7438 2.58859C20.0438 2.88859 20.0438 3.35859 19.7438 3.64859Z" fill="black"/>
</svg>