<svg width="24" height="24" viewBox="0 0 24 24" fill="none" xmlns="http://www.w3.org/2000/svg">
<path d="M4.66504 13.9973C4.88298 16.6107 7.13441 17.2616 12.0002 17.2616C16.865 17.2616 19.1164 16.6195 19.3353 13.9973C19.3353 11.3859 17.7649 11.5533 17.7649 8.34932C17.7649 5.84687 15.4902 3 12.0002 3C8.51017 3 6.23539 5.84687 6.23539 8.35029C6.23539 11.5542 4.66504 11.3879 4.66504 13.9973Z" stroke="black" stroke-width="1.5" stroke-linecap="round" stroke-linejoin="round"/>
<path d="M9.93359 19.9746C10.4376 20.6041 11.1936 21.0001 12.0303 21.0001C12.8758 21.0001 13.6318 20.6041 14.1358 19.9746" stroke="black" stroke-width="1.5" stroke-linecap="round" stroke-linejoin="round"/>
<path d="M11.9993 12.8273V8.91406M10.043 10.8714H13.9562" stroke="black" stroke-width="1.5" stroke-linecap="round" stroke-linejoin="round"/>
</svg>