<svg width="24" height="24" viewBox="0 0 24 24" fill="none" xmlns="http://www.w3.org/2000/svg">
<path opacity="0.4" fill-rule="evenodd" clip-rule="evenodd" d="M16.22 2.5H7.78C4.62 2.5 2.5 4.72 2.5 8.03V15.98C2.5 19.28 4.62 21.5 7.78 21.5H16.22C19.38 21.5 21.5 19.28 21.5 15.98V8.03C21.5 4.72 19.38 2.5 16.22 2.5Z" fill="black"/>
<path fill-rule="evenodd" clip-rule="evenodd" d="M17.03 14.9802C16.64 15.5902 15.98 15.9602 15.25 15.9602H14.55C14.34 17.1702 13.28 18.1002 12 18.1002C10.73 18.1002 9.67001 17.1702 9.45001 15.9602H8.75001C8.03001 15.9602 7.36001 15.5902 6.97001 14.9802C6.58001 14.3702 6.54001 13.6102 6.84001 12.9502L7.12001 12.3602C7.27001 12.0402 7.35001 11.7002 7.35001 11.3402V10.5602C7.35001 7.99016 9.44001 5.91016 12 5.91016C14.57 5.91016 16.65 7.99016 16.65 10.5602L16.66 11.3402C16.66 11.7002 16.73 12.0402 16.88 12.3602L17.16 12.9502C17.47 13.6102 17.42 14.3602 17.03 14.9802ZM15.77 14.1702C15.71 14.2602 15.56 14.4602 15.25 14.4602H8.75C8.45 14.4602 8.29 14.2602 8.24 14.1702C8.18 14.0902 8.07 13.8602 8.2 13.5902L8.48 13.0002C8.72 12.4802 8.85 11.9202 8.85 11.3402V10.5602C8.85 8.82019 10.26 7.41019 12 7.41019C13.74 7.41019 15.15 8.82019 15.15 10.5602L15.16 11.3402C15.16 11.9202 15.28 12.4802 15.53 13.0002L15.8 13.5902C15.93 13.8602 15.82 14.0902 15.77 14.1702ZM12 16.6002C12.44 16.6002 12.82 16.3302 12.99 15.9602H11.01C11.18 16.3302 11.56 16.6002 12 16.6002Z" fill="black"/>
</svg>