<svg width="25" height="24" viewBox="0 0 25 24" fill="none" xmlns="http://www.w3.org/2000/svg">
<path fill-rule="evenodd" clip-rule="evenodd" d="M6.27456 7.79433C7.34323 3.8051 11.4439 1.43805 15.4322 2.50649C19.4214 3.57599 21.7889 7.6767 20.7204 11.6652L20.3712 12.9705C20.1933 13.6358 20.1641 14.3317 20.2864 15.0088L20.485 16.1136C20.886 18.3421 18.8323 20.2295 16.6455 19.6437L5.81432 16.7413C3.62788 16.1555 2.79199 13.4945 4.25422 11.7646L4.97811 10.9074C5.42202 10.3831 5.74537 9.7647 5.92311 9.09986L6.27456 7.79433C6.27452 7.79447 6.2746 7.79418 6.27456 7.79433ZM15.0439 3.95536C11.8556 3.10133 8.57749 4.99375 7.72338 8.18283L7.37222 9.48726C7.37216 9.4875 7.37228 9.48702 7.37222 9.48726C7.13741 10.3652 6.71095 11.182 6.1238 11.8756C6.12371 11.8757 6.12389 11.8755 6.1238 11.8756L5.40023 12.7324C4.64834 13.6217 5.07708 14.9909 6.20251 15.2924L17.0337 18.1948C17.0337 18.1948 17.0337 18.1948 17.0337 18.1948C18.1589 18.4962 19.2149 17.5251 19.0087 16.3793L18.8103 15.2755C18.8103 15.2754 18.8103 15.2755 18.8103 15.2755C18.6486 14.3802 18.6874 13.4609 18.9221 12.5831L19.2714 11.2773C20.1255 8.08909 18.2331 4.81046 15.0439 3.95536Z" fill="black"/>
<path fill-rule="evenodd" clip-rule="evenodd" d="M9.70989 16.2777C10.11 16.3851 10.3473 16.7964 10.24 17.1964C9.89311 18.4896 10.6609 19.8192 11.9551 20.1666C13.249 20.513 14.5787 19.7453 14.9258 18.4512C15.0331 18.0511 15.4444 17.8138 15.8445 17.9211C16.2446 18.0284 16.4819 18.4397 16.3746 18.8398C15.813 20.9336 13.6613 22.1761 11.5673 21.6156L11.5669 21.6155C9.47351 21.054 8.22933 18.9025 8.79119 16.8078C8.8985 16.4078 9.30982 16.1704 9.70989 16.2777Z" fill="black"/>
</svg>