<svg width="25" height="24" viewBox="0 0 25 24" fill="none" xmlns="http://www.w3.org/2000/svg">
<path fill-rule="evenodd" clip-rule="evenodd" d="M12.3625 3.75C9.29731 3.75 7.34381 6.24548 7.34381 8.3464C7.34381 9.21043 7.23792 9.87667 7.06591 10.4346C6.89419 10.9917 6.66497 11.4112 6.46257 11.7661C6.44265 11.801 6.42319 11.835 6.40417 11.8682C6.22534 12.1807 6.08609 12.424 5.97744 12.7215C5.86508 13.0293 5.7814 13.4125 5.7784 13.9674C5.82593 14.4994 5.97247 14.8789 6.18898 15.1659C6.41068 15.4599 6.74857 15.7136 7.26681 15.9196C7.65174 16.0725 7.83976 16.5086 7.68677 16.8935C7.53378 17.2785 7.09771 17.4665 6.71279 17.3135C6.00705 17.033 5.41771 16.6344 4.99143 16.0692C4.56399 15.5025 4.34319 14.8249 4.2808 14.0592C4.27915 14.0389 4.27832 14.0186 4.27832 13.9983C4.27832 13.2647 4.38932 12.6977 4.56841 12.2071C4.72354 11.7822 4.92704 11.428 5.10005 11.1268C5.12035 11.0915 5.14022 11.0569 5.15955 11.023C5.34853 10.6916 5.51068 10.3878 5.63249 9.99271C5.75401 9.59854 5.84381 9.08385 5.84381 8.3464C5.84381 5.44242 8.44374 2.25 12.3625 2.25C15.1081 2.25 17.1832 3.81524 18.199 5.71507C18.3943 6.08035 18.2565 6.53479 17.8913 6.7301C17.526 6.92541 17.0715 6.78762 16.8762 6.42234C16.0921 4.95574 14.4952 3.75 12.3625 3.75Z" fill="black"/>
<path fill-rule="evenodd" clip-rule="evenodd" d="M18.0989 8.79693C18.5077 8.73049 18.893 9.00808 18.9594 9.41693C19.0836 10.1812 19.3316 10.6147 19.6257 11.1288C19.6616 11.1916 19.6982 11.2556 19.7354 11.3215C20.1032 11.9744 20.448 12.7118 20.448 13.9982C20.448 14.0188 20.4472 14.0394 20.4455 14.0599C20.3828 14.8207 20.1666 15.4945 19.7484 16.0598C19.3307 16.6244 18.7527 17.0249 18.0588 17.3083C16.7099 17.8593 14.7947 18.0154 12.3629 18.0154C11.6504 18.0154 10.9881 18.0037 10.3762 17.9695C9.96261 17.9464 9.64607 17.5924 9.66916 17.1789C9.69224 16.7653 10.0462 16.4487 10.4598 16.4718C11.033 16.5038 11.6647 16.5154 12.3629 16.5154C14.7999 16.5154 16.4442 16.3475 17.4917 15.9197C17.996 15.7137 18.3254 15.4612 18.5425 15.1676C18.7552 14.8802 18.8999 14.4998 18.948 13.967C18.9429 13.042 18.7147 12.5657 18.4285 12.0578C18.3952 11.9986 18.3604 11.9382 18.3246 11.8761C18.0217 11.3494 17.6484 10.7006 17.4789 9.65752C17.4124 9.24867 17.69 8.86337 18.0989 8.79693Z" fill="black"/>
<path fill-rule="evenodd" clip-rule="evenodd" d="M9.82718 19.3882C10.1505 19.1293 10.6225 19.1816 10.8814 19.5049C11.2536 19.9698 11.8 20.2501 12.3926 20.2501C12.9965 20.2501 13.5424 19.9686 13.9136 19.5049C14.1725 19.1816 14.6445 19.1293 14.9678 19.3882C15.2912 19.6471 15.3435 20.1191 15.0846 20.4424C14.4478 21.2377 13.4818 21.7501 12.3926 21.7501C11.3118 21.7501 10.3462 21.2365 9.71045 20.4424C9.45157 20.1191 9.50383 19.6471 9.82718 19.3882Z" fill="black"/>
<path fill-rule="evenodd" clip-rule="evenodd" d="M20.3948 3.21576C20.6877 3.50866 20.6877 3.98353 20.3948 4.27642L5.16705 19.5042C4.87416 19.7971 4.39928 19.7971 4.10639 19.5042C3.8135 19.2113 3.8135 18.7364 4.10639 18.4435L19.3341 3.21576C19.627 2.92287 20.1019 2.92287 20.3948 3.21576Z" fill="black"/>
</svg>