<svg width="25" height="24" viewBox="0 0 25 24" fill="none" xmlns="http://www.w3.org/2000/svg">
<path d="M17.7221 18.1355H6.7791C6.26835 18.1355 5.76587 18.0065 5.31827 17.7605C4.87067 17.5145 4.49244 17.1595 4.21866 16.7283C3.94488 16.2972 3.78442 15.8038 3.75215 15.2941C3.71989 14.7844 3.81687 14.2748 4.0341 13.8125L4.5011 12.8215C4.78486 12.2155 4.93233 11.5547 4.93311 10.8855V9.56552C4.93311 7.62506 5.70394 5.76408 7.07605 4.39197C8.44816 3.01986 10.3091 2.24902 12.2496 2.24902C14.1901 2.24902 16.051 3.01986 17.4231 4.39197C18.7953 5.76408 19.5661 7.62506 19.5661 9.56552V10.8835C19.5665 11.5531 19.7144 12.2145 19.9991 12.8205L20.4651 13.8115C20.6823 14.2738 20.7793 14.7834 20.7471 15.2931C20.7148 15.8028 20.5543 16.2962 20.2805 16.7273C20.0068 17.1585 19.6285 17.5135 19.1809 17.7595C18.7333 18.0055 18.2308 18.1345 17.7201 18.1345L17.7221 18.1355ZM12.2511 3.75052C10.709 3.75211 9.2305 4.36533 8.13997 5.45567C7.04944 6.54601 6.43595 8.02441 6.4341 9.56651V10.8855C6.43272 11.7752 6.23646 12.6538 5.8591 13.4595L5.3931 14.4505C5.28304 14.6841 5.23381 14.9417 5.24997 15.1994C5.26613 15.4571 5.34717 15.7066 5.48555 15.9246C5.62393 16.1426 5.81516 16.322 6.04149 16.4463C6.26781 16.5706 6.52189 16.6357 6.78011 16.6355H17.7231C17.9813 16.6357 18.2354 16.5706 18.4617 16.4463C18.688 16.322 18.8793 16.1426 19.0177 15.9246C19.156 15.7066 19.2371 15.4571 19.2532 15.1994C19.2694 14.9417 19.2202 14.6841 19.1101 14.4505L18.6441 13.4595C18.2665 12.6539 18.0702 11.7752 18.0691 10.8855V9.56651C18.0672 8.02424 17.4536 6.54569 16.3629 5.45532C15.2721 4.36495 13.7934 3.75184 12.2511 3.75052Z" fill="black"/>
<path d="M12.2513 21.7504C11.2307 21.7493 10.2521 21.3433 9.5305 20.6215C8.80888 19.8997 8.40314 18.9211 8.40234 17.9004C8.40234 17.7015 8.48136 17.5107 8.62201 17.3701C8.76266 17.2294 8.95343 17.1504 9.15234 17.1504C9.35126 17.1504 9.54203 17.2294 9.68268 17.3701C9.82333 17.5107 9.90234 17.7015 9.90234 17.9004C9.90234 18.209 9.96312 18.5146 10.0812 18.7997C10.1993 19.0848 10.3724 19.3439 10.5906 19.5621C10.8089 19.7803 11.0679 19.9534 11.353 20.0715C11.6382 20.1896 11.9437 20.2504 12.2523 20.2504C12.561 20.2504 12.8665 20.1896 13.1516 20.0715C13.4368 19.9534 13.6958 19.7803 13.914 19.5621C14.1323 19.3439 14.3054 19.0848 14.4235 18.7997C14.5416 18.5146 14.6023 18.209 14.6023 17.9004C14.6023 17.7015 14.6814 17.5107 14.822 17.3701C14.9627 17.2294 15.1534 17.1504 15.3523 17.1504C15.5513 17.1504 15.742 17.2294 15.8827 17.3701C16.0233 17.5107 16.1023 17.7015 16.1023 17.9004C16.1013 18.9213 15.6952 19.9001 14.9732 20.6219C14.2512 21.3438 13.2723 21.7496 12.2513 21.7504Z" fill="black"/>
<path d="M13.7915 13.188H10.7115C10.5662 13.1881 10.424 13.146 10.3022 13.0669C10.1804 12.9877 10.0842 12.8748 10.0253 12.742C9.96641 12.6092 9.94738 12.4621 9.97049 12.3187C9.99361 12.1753 10.0579 12.0416 10.1555 11.934L12.0995 9.79102H10.7115C10.5126 9.79102 10.3218 9.712 10.1812 9.57135C10.0405 9.4307 9.96152 9.23993 9.96152 9.04102C9.96152 8.8421 10.0405 8.65135 10.1812 8.5107C10.3218 8.37004 10.5126 8.29102 10.7115 8.29102H13.7915C13.9368 8.2909 14.079 8.33299 14.2008 8.41217C14.3226 8.49135 14.4189 8.60421 14.4777 8.73703C14.5366 8.86985 14.5557 9.01692 14.5326 9.16035C14.5094 9.30379 14.4452 9.43743 14.3475 9.54503L12.4035 11.688H13.7915C13.9904 11.688 14.1812 11.767 14.3219 11.9077C14.4625 12.0484 14.5415 12.2391 14.5415 12.438C14.5415 12.6369 14.4625 12.8277 14.3219 12.9684C14.1812 13.109 13.9904 13.188 13.7915 13.188Z" fill="black"/>
</svg>