<svg width="24" height="24" viewBox="0 0 24 24" fill="none" xmlns="http://www.w3.org/2000/svg">
<path opacity="0.4" fill-rule="evenodd" clip-rule="evenodd" d="M19.045 11.123C18.645 10.433 18.265 9.77305 18.265 8.22305C18.265 5.40305 15.745 2.37305 11.995 2.37305C8.24504 2.37305 5.73504 5.40305 5.73504 8.22305C5.73504 9.77305 5.35504 10.433 4.95504 11.133C4.56504 11.803 4.16504 12.503 4.16504 13.873V13.913C4.42504 17.033 7.23504 17.643 11.995 17.643C16.765 17.643 19.565 17.033 19.835 13.873C19.835 12.503 19.425 11.803 19.045 11.123Z" fill="black"/>
<path fill-rule="evenodd" clip-rule="evenodd" d="M14.1323 19.1016H9.93131C9.64331 19.1016 9.38031 19.2676 9.25531 19.5266C9.13031 19.7866 9.16531 20.0956 9.34531 20.3206C10.0103 21.1506 10.9873 21.6266 12.0273 21.6266C13.0713 21.6266 14.0533 21.1506 14.7183 20.3206C14.8983 20.0956 14.9333 19.7866 14.8083 19.5266C14.6833 19.2676 14.4203 19.1016 14.1323 19.1016Z" fill="black"/>
<path fill-rule="evenodd" clip-rule="evenodd" d="M13.445 13.1627H10.555C10.255 13.1627 9.98497 12.9927 9.86497 12.7227C9.74497 12.4527 9.79497 12.1327 9.99497 11.9127L11.755 9.97266H10.555C10.135 9.97266 9.80497 9.64266 9.80497 9.22266C9.80497 8.81266 10.135 8.47266 10.555 8.47266H13.445C13.735 8.47266 14.005 8.65266 14.125 8.92266C14.245 9.19266 14.195 9.51266 13.995 9.73266L12.245 11.6627H13.445C13.855 11.6627 14.195 12.0027 14.195 12.4127C14.195 12.8327 13.855 13.1627 13.445 13.1627Z" fill="black"/>
</svg>