<svg width="24" height="24" viewBox="0 0 24 24" fill="none" xmlns="http://www.w3.org/2000/svg">
<path fill-rule="evenodd" clip-rule="evenodd" d="M11.9991 20.25C11.0391 20.25 10.2391 19.59 10.0191 18.7H13.9791C13.7591 19.59 12.9591 20.25 11.9991 20.25ZM11.1491 4.61C11.1491 4.14 11.5291 3.75 11.9991 3.75C12.4691 3.75 12.8591 4.14 12.8591 4.61V4.77C12.5791 4.73 12.2891 4.71 11.9991 4.71C11.7091 4.71 11.4291 4.73 11.1491 4.77V4.61ZM19.2691 15.05L18.8391 14.15C18.5791 13.59 18.4391 12.96 18.4391 12.33L18.4291 11.14C18.4291 8.42 16.7391 6.1 14.3591 5.16V4.61C14.3591 3.31 13.2991 2.25 11.9991 2.25C10.6991 2.25 9.64909 3.31 9.64909 4.61V5.16C7.25909 6.1 5.56909 8.42 5.56909 11.14V12.33C5.56909 12.96 5.42909 13.59 5.15909 14.15L4.73909 15.05C4.35909 15.85 4.41909 16.77 4.88909 17.52C5.36909 18.26 6.16909 18.7 7.05909 18.7H8.49909C8.74909 20.42 10.2091 21.75 11.9991 21.75C13.7891 21.75 15.2591 20.42 15.4991 18.7H16.9491C17.8291 18.7 18.6391 18.26 19.1091 17.51C19.5791 16.77 19.6391 15.85 19.2691 15.05Z" fill="black"/>
</svg>