<svg width="24" height="24" viewBox="0 0 24 24" fill="none" xmlns="http://www.w3.org/2000/svg">
<path fill-rule="evenodd" clip-rule="evenodd" d="M19.7438 3.64859L4.52384 18.8686C4.38384 19.0186 4.19384 19.0886 3.99384 19.0886C3.80384 19.0886 3.61384 19.0186 3.46384 18.8686C3.17384 18.5786 3.17384 18.1086 3.46384 17.8086L4.73384 16.5486C4.19384 15.7486 4.08384 14.7086 4.51384 13.8086L4.98384 12.8086C5.27384 12.1786 5.43384 11.4686 5.43384 10.7686V9.44859C5.43384 5.54859 8.60384 2.37859 12.4938 2.37859C14.2238 2.37859 15.8738 3.01859 17.1438 4.13859L18.6838 2.58859C18.9838 2.29859 19.4538 2.29859 19.7438 2.58859C20.0438 2.88859 20.0438 3.35859 19.7438 3.64859Z" fill="black"/>
<path opacity="0.4" fill-rule="evenodd" clip-rule="evenodd" d="M15.0438 17.7887C15.0438 19.0787 13.9938 20.1287 12.7038 20.1287C11.5338 20.1287 10.5538 19.2787 10.3938 18.1287L10.3838 17.7687H15.0438V17.7887ZM20.4838 13.8087L20.0238 12.8187C19.7238 12.1687 19.5638 11.4787 19.5638 10.7687V9.73871C19.5638 9.43871 19.5438 8.07371 19.4738 7.65371C19.4438 7.47371 19.3138 7.32371 19.1338 7.26371C18.9638 7.20371 18.7738 7.25371 18.6338 7.37371C18.6338 7.37371 9.1368 16.6877 9.0438 16.7987C8.9338 16.9297 8.8688 17.0987 8.8738 17.2887L8.8938 18.2287C8.8938 18.2387 8.9038 18.2587 8.9038 18.2687C8.9038 18.2787 8.8938 18.2887 8.9038 18.3087C9.1438 20.1987 10.7838 21.6287 12.7038 21.6287C14.8238 21.6287 16.5438 19.9087 16.5438 17.7887V17.7687H17.9738C18.9338 17.7687 19.8138 17.2787 20.3238 16.4687C20.8338 15.6587 20.8938 14.6687 20.4838 13.8087Z" fill="black"/>
</svg>