<svg width="25" height="24" viewBox="0 0 25 24" fill="none" xmlns="http://www.w3.org/2000/svg">
<path fill-rule="evenodd" clip-rule="evenodd" d="M6.10809 9.86867C6.10809 6.33793 8.97044 3.47559 12.5012 3.47559C16.0319 3.47559 18.8933 6.33793 18.8933 9.86867L18.8943 11.152C18.8943 11.9118 19.0626 12.661 19.3856 13.3478L19.839 14.312C20.5327 15.787 19.4576 17.4808 17.8289 17.4808H7.17345C5.54477 17.4808 4.46872 15.787 5.16241 14.312L5.61677 13.3478C5.93978 12.661 6.10712 11.9118 6.10712 11.152L6.10809 9.86867Z" stroke="black" stroke-width="1.5" stroke-linecap="round" stroke-linejoin="round"/>
<path opacity="0.4" d="M9.48047 17.9824C9.48047 19.649 10.8319 21.0004 12.4975 21.0004C14.1641 21.0004 15.5155 19.649 15.5155 17.9824" stroke="black" stroke-width="1.5" stroke-linecap="round" stroke-linejoin="round"/>
<path opacity="0.4" d="M4.56836 5.77673C5.04509 4.74056 5.80397 3.76764 6.78663 3" stroke="black" stroke-width="1.5" stroke-linecap="round" stroke-linejoin="round"/>
<path opacity="0.4" d="M20.4331 5.77673C19.9564 4.74056 19.1975 3.76764 18.2148 3" stroke="black" stroke-width="1.5" stroke-linecap="round" stroke-linejoin="round"/>
</svg>