<svg width="24" height="24" viewBox="0 0 24 24" fill="none" xmlns="http://www.w3.org/2000/svg">
<path opacity="0.4" fill-rule="evenodd" clip-rule="evenodd" d="M19.4544 12.4682C19.1854 11.7052 18.9314 10.9842 19.2174 9.44624C19.4774 8.05124 19.1234 6.50424 18.2484 5.20024C17.2904 3.77424 15.8124 2.81224 14.0874 2.49024C10.3694 1.79824 7.3194 4.33324 6.7974 7.13424C6.5114 8.67324 6.0144 9.25524 5.4884 9.87024C4.9784 10.4682 4.4514 11.0862 4.1924 12.4862C3.8734 15.6192 6.5464 16.7412 11.2704 17.6212C12.8614 17.9172 14.2444 18.1032 15.4114 18.1032C17.7124 18.1032 19.1744 17.3782 19.7314 15.3372C19.9854 13.9762 19.7154 13.2102 19.4544 12.4682Z" fill="black"/>
<path fill-rule="evenodd" clip-rule="evenodd" d="M14.4608 19.0918H10.2208C9.93276 19.0918 9.66976 19.2578 9.54476 19.5168C9.41976 19.7768 9.45576 20.0858 9.63576 20.3108C10.3058 21.1468 11.2898 21.6268 12.3358 21.6268C13.3898 21.6268 14.3778 21.1468 15.0468 20.3098C15.2268 20.0848 15.2618 19.7768 15.1368 19.5168C15.0118 19.2568 14.7488 19.0918 14.4608 19.0918Z" fill="black"/>
</svg>