<svg width="24" height="24" viewBox="0 0 24 24" fill="none" xmlns="http://www.w3.org/2000/svg">
<path fill-rule="evenodd" clip-rule="evenodd" d="M13.955 10.463H12.755V11.673C12.755 12.083 12.415 12.423 12.005 12.423C11.585 12.423 11.255 12.083 11.255 11.673V10.463H10.045C9.63504 10.463 9.29504 10.123 9.29504 9.71305C9.29504 9.29305 9.63504 8.96305 10.045 8.96305H11.255V7.75305C11.255 7.34305 11.585 7.00305 12.005 7.00305C12.415 7.00305 12.755 7.34305 12.755 7.75305V8.96305H13.955C14.375 8.96305 14.705 9.29305 14.705 9.71305C14.705 10.123 14.375 10.463 13.955 10.463ZM19.045 11.123C18.645 10.433 18.265 9.77305 18.265 8.22305C18.265 5.40305 15.755 2.37305 12.005 2.37305C8.25504 2.37305 5.73504 5.40305 5.73504 8.22305C5.73504 9.77305 5.35504 10.433 4.95504 11.133C4.56504 11.803 4.16504 12.503 4.16504 13.873V13.913C4.42504 17.033 7.23504 17.643 12.005 17.643C16.765 17.643 19.575 17.033 19.835 13.873C19.835 12.503 19.435 11.803 19.045 11.123Z" fill="black"/>
<path fill-rule="evenodd" clip-rule="evenodd" d="M14.1382 19.1017H9.93717C9.64917 19.1017 9.38617 19.2677 9.26117 19.5267C9.13617 19.7867 9.17117 20.0957 9.35117 20.3207C10.0162 21.1507 10.9932 21.6267 12.0332 21.6267C13.0772 21.6267 14.0592 21.1507 14.7242 20.3207C14.9042 20.0957 14.9392 19.7867 14.8142 19.5267C14.6892 19.2677 14.4262 19.1017 14.1382 19.1017Z" fill="black"/>
</svg>