<svg width="25" height="24" viewBox="0 0 25 24" fill="none" xmlns="http://www.w3.org/2000/svg">
<path d="M5.96013 16.8743C5.19344 16.2419 4.86749 15.1405 5.33744 14.1345L5.80641 13.1372C6.13235 12.4376 6.30554 11.6622 6.30554 10.8857V9.56348" stroke="black" stroke-width="1.5" stroke-linecap="round" stroke-linejoin="round"/>
<path d="M17.6979 5.13663C16.5196 3.8241 14.7848 3 12.869 3C10.6842 3 8.74705 4.07007 7.55371 5.71424" stroke="black" stroke-width="1.5" stroke-linecap="round" stroke-linejoin="round"/>
<path d="M9.99414 17.3823H18.3451C20.0186 17.3823 21.1249 15.6465 20.4058 14.1345L19.9466 13.145C19.6138 12.4348 19.4426 11.67 19.4426 10.8868V9.85252C19.4426 9.49252 19.4163 9.14128 19.3531 8.79102" stroke="black" stroke-width="1.5" stroke-linecap="round" stroke-linejoin="round"/>
<path d="M9.99414 17.3828L10.0165 18.3276C10.215 19.8395 11.51 21.0003 13.0755 21.0003C14.0792 21.0003 14.9711 20.5227 15.5366 19.7824" stroke="black" stroke-width="1.5" stroke-linecap="round" stroke-linejoin="round"/>
<path d="M4.37109 18.4593L19.5931 3.2373" stroke="black" stroke-width="1.5" stroke-linecap="round" stroke-linejoin="round"/>
</svg>