<svg width="25" height="24" viewBox="0 0 25 24" fill="none" xmlns="http://www.w3.org/2000/svg">
<path fill-rule="evenodd" clip-rule="evenodd" d="M12.2502 3.75C9.18804 3.75 7.23539 6.24729 7.23539 8.35029C7.23539 9.21474 7.12916 9.88114 6.9565 10.4391C6.78412 10.9961 6.55403 11.4153 6.35094 11.7696C6.33087 11.8047 6.31127 11.8387 6.29212 11.872C6.1128 12.1838 5.97336 12.4262 5.86455 12.7229C5.75206 13.0296 5.6682 13.4118 5.66513 13.9657C5.71359 14.4966 5.85843 14.8761 6.0713 15.1632C6.28881 15.4565 6.61865 15.7091 7.12324 15.9152C8.17095 16.3431 9.81503 16.5116 12.2502 16.5116C14.6855 16.5116 16.3292 16.3451 17.3769 15.9182C17.8813 15.7127 18.2109 15.4605 18.4284 15.167C18.6413 14.8797 18.7865 14.4992 18.8352 13.9657C18.8321 13.4112 18.7483 13.0287 18.6358 12.7218C18.5269 12.4249 18.3874 12.1823 18.2079 11.8703C18.1889 11.8372 18.1694 11.8033 18.1494 11.7684C17.9463 11.4141 17.7162 10.995 17.5438 10.438C17.3712 9.88012 17.2649 9.21377 17.2649 8.34932C17.2649 6.24738 15.3124 3.75 12.2502 3.75ZM5.73539 8.35029C5.73539 5.44646 8.33229 2.25 12.2502 2.25C16.168 2.25 18.7649 5.44637 18.7649 8.34932C18.7649 9.08685 18.855 9.60106 18.9768 9.99451C19.0988 10.3889 19.2613 10.6919 19.4508 11.0226C19.4702 11.0565 19.4902 11.091 19.5105 11.1262C19.6841 11.4268 19.8884 11.7807 20.0441 12.2056C20.2239 12.6961 20.3353 13.2633 20.3353 13.9973C20.3353 14.0182 20.3344 14.039 20.3327 14.0597C20.2691 14.8212 20.0522 15.4951 19.6335 16.0601C19.2152 16.6246 18.6369 17.0245 17.943 17.3073C16.594 17.857 14.6796 18.0116 12.2502 18.0116C9.81954 18.0116 7.90503 17.8547 6.55611 17.3038C5.86237 17.0205 5.28438 16.6203 4.8664 16.0566C4.44786 15.4921 4.23098 14.8193 4.16763 14.0597C4.1659 14.0389 4.16504 14.0181 4.16504 13.9973C4.16504 13.2637 4.27644 12.6968 4.45627 12.2064C4.61195 11.7819 4.81617 11.4282 4.98965 11.1278C5.01006 11.0924 5.03005 11.0578 5.04949 11.0238C5.23899 10.6932 5.40149 10.3901 5.52355 9.99563C5.64533 9.6021 5.73539 9.08783 5.73539 8.35029Z" fill="black"/>
<path fill-rule="evenodd" clip-rule="evenodd" d="M9.71488 19.3892C10.0382 19.1303 10.5102 19.1825 10.7691 19.5059C11.1409 19.9703 11.6871 20.2501 12.2803 20.2501C12.8836 20.2501 13.4294 19.9692 13.8004 19.5059C14.0592 19.1825 14.5312 19.1303 14.8546 19.3892C15.1779 19.648 15.2302 20.12 14.9713 20.4434C14.3343 21.2391 13.368 21.7501 12.2803 21.7501C11.2001 21.7501 10.2343 21.238 9.59815 20.4434C9.33927 20.12 9.39153 19.648 9.71488 19.3892Z" fill="black"/>
<path fill-rule="evenodd" clip-rule="evenodd" d="M10.2333 8.99311C10.5262 8.70021 11.0011 8.70021 11.294 8.99311L12.2503 9.94945L13.2067 8.99311C13.4996 8.70021 13.9744 8.70021 14.2673 8.99311C14.5602 9.286 14.5602 9.76087 14.2673 10.0538L13.311 11.0101L14.2664 11.9655C14.5593 12.2584 14.5593 12.7333 14.2664 13.0262C13.9735 13.319 13.4986 13.319 13.2057 13.0262L12.2503 12.0708L11.295 13.0262C11.0021 13.319 10.5272 13.319 10.2343 13.0262C9.9414 12.7333 9.9414 12.2584 10.2343 11.9655L11.1897 11.0101L10.2333 10.0538C9.94045 9.76087 9.94045 9.286 10.2333 8.99311Z" fill="black"/>
</svg>