<svg width="25" height="24" viewBox="0 0 25 24" fill="none" xmlns="http://www.w3.org/2000/svg">
<path d="M12.5002 4.70399C13.4607 3.93478 14.6925 3.47266 16.0357 3.47266C16.5709 3.47363 17.1041 3.5719 17.6363 3.74315C20.9688 4.81635 22.1655 8.44461 21.1488 11.6204M12.5002 4.70399C11.2663 5.69214 10.48 7.18705 10.48 8.86007C10.48 10.0928 11.3849 11.0931 12.4999 11.0931C13.6159 11.0931 14.5208 10.0928 14.5208 8.86007C14.5208 7.18705 13.7342 5.69214 12.5002 4.70399ZM12.5002 4.70399C11.5396 3.93478 10.3079 3.47266 8.96505 3.47266C8.41921 3.49795 7.88309 3.5865 7.35574 3.74315C4.02326 4.81635 2.83622 8.44461 3.85202 11.6204C5.48955 16.7091 12.5009 20.5271 12.5009 20.5271C12.5009 20.5271 16.4673 18.3506 19.122 15.1437" stroke="black" stroke-width="1.5" stroke-linecap="round" stroke-linejoin="round"/>
</svg>