<svg width="24" height="24" viewBox="0 0 24 24" fill="none" xmlns="http://www.w3.org/2000/svg">
<path fill-rule="evenodd" clip-rule="evenodd" d="M19.5237 12.802L19.9897 13.792C20.3977 14.659 20.3347 15.659 19.8227 16.467C19.3087 17.276 18.4297 17.759 17.4717 17.759H15.8467C15.8467 17.762 15.8474 17.7645 15.8482 17.767C15.8489 17.7695 15.8497 17.772 15.8497 17.775C15.8497 19.898 14.1217 21.625 11.9987 21.625C9.87666 21.625 8.15065 19.898 8.15065 17.775C8.15065 17.772 8.1514 17.7695 8.15215 17.767C8.1529 17.7645 8.15366 17.762 8.15366 17.759H6.52865C5.57065 17.759 4.69165 17.276 4.17865 16.467C3.66465 15.659 3.60265 14.658 4.01065 13.792L4.47665 12.802C4.77565 12.165 4.93365 11.458 4.93365 10.759L4.93465 9.441C4.93465 5.545 8.10465 2.375 11.9997 2.375C15.8967 2.375 19.0667 5.545 19.0667 9.441L19.0677 10.759C19.0677 11.461 19.2257 12.168 19.5237 12.802ZM11.9987 20.125C13.2947 20.125 14.3497 19.07 14.3497 17.775C14.3497 17.772 14.3504 17.7695 14.3512 17.767C14.3519 17.7645 14.3527 17.762 14.3527 17.759H9.64766C9.64766 17.762 9.64841 17.7645 9.64915 17.767C9.6499 17.7695 9.65065 17.772 9.65065 17.775C9.65065 19.07 10.7037 20.125 11.9987 20.125ZM11.044 8.7392C10.7511 8.44631 10.2762 8.44631 9.98334 8.7392C9.69045 9.03209 9.69045 9.50697 9.98334 9.79986L10.9397 10.7562L9.98334 11.7125C9.69045 12.0054 9.69045 12.4803 9.98334 12.7732C10.2762 13.0661 10.7511 13.0661 11.044 12.7732L12.0003 11.8168L12.9557 12.7722C13.2486 13.0651 13.7235 13.0651 14.0164 12.7722C14.3093 12.4793 14.3093 12.0045 14.0164 11.7116L13.061 10.7562L14.0164 9.80081C14.3093 9.50792 14.3093 9.03304 14.0164 8.74015C13.7235 8.44726 13.2486 8.44726 12.9557 8.74015L12.0003 9.69553L11.044 8.7392Z" fill="black"/>
</svg>