<svg width="24" height="24" viewBox="0 0 24 24" fill="none" xmlns="http://www.w3.org/2000/svg">
<path opacity="0.4" d="M8.72707 17.2153C8.72864 17.2094 8.72673 17.2047 8.7283 17.1988L13.3747 18.4336C13.3732 18.4395 13.3691 18.4426 13.3676 18.4486L14.8501 18.8256L16.4559 19.2524C17.402 19.5038 18.3958 19.2572 19.1157 18.5932C19.8344 17.9299 20.158 16.9586 19.9836 15.9956L19.7833 14.8956C19.6544 14.1911 19.6839 13.4514 19.8681 12.7581L20.213 11.4563C21.2355 7.60879 18.9369 3.64631 15.0895 2.62383C11.242 1.60134 7.27948 3.89993 6.25699 7.74742L5.91011 9.04875C5.72613 9.74102 5.38481 10.3968 4.92262 10.9464L4.20359 11.802C3.57339 12.5502 3.37192 13.555 3.66647 14.4875C3.96077 15.4211 4.70207 16.1288 5.64814 16.3802L7.25291 16.8067C7.25133 16.8126 7.24732 16.8158 7.24574 16.8217L8.72707 17.2153Z" fill="black"/>
<path fill-rule="evenodd" clip-rule="evenodd" d="M9.84706 17.4723L8.43368 17.0805C8.43292 17.0834 8.43158 17.0855 8.43025 17.0877C8.42891 17.0899 8.42757 17.0921 8.42681 17.0949C7.89262 19.105 9.09324 21.1748 11.1024 21.7087C13.1125 22.2429 15.1834 21.0266 15.7176 19.0165L14.3031 18.6403C14.3023 18.6432 14.301 18.6454 14.2997 18.6475C14.2983 18.6497 14.297 18.6519 14.2962 18.6547C13.9704 19.8809 12.7069 20.6146 11.4799 20.2885C10.2537 19.9626 9.52121 18.6985 9.84706 17.4723Z" fill="black"/>
</svg>