<svg width="25" height="24" viewBox="0 0 25 24" fill="none" xmlns="http://www.w3.org/2000/svg">
<path fill-rule="evenodd" clip-rule="evenodd" d="M9.7139 19.3892C10.0373 19.1303 10.5092 19.1825 10.7681 19.5059C11.1399 19.9703 11.6861 20.2501 12.2794 20.2501C12.8827 20.2501 13.4284 19.9692 13.7994 19.5059C14.0583 19.1825 14.5302 19.1303 14.8536 19.3892C15.1769 19.648 15.2292 20.12 14.9703 20.4434C14.3333 21.2391 13.3671 21.7501 12.2794 21.7501C11.1991 21.7501 10.2333 21.238 9.59717 20.4434C9.33829 20.12 9.39055 19.648 9.7139 19.3892Z" fill="black"/>
<path fill-rule="evenodd" clip-rule="evenodd" d="M12.2511 3.75C11.7984 3.75 11.3713 3.80483 10.9724 3.90328C10.5702 4.00254 10.1638 3.75699 10.0645 3.35485C9.96528 2.9527 10.2108 2.54624 10.613 2.44698C11.1287 2.31971 11.6764 2.25 12.2511 2.25C16.1691 2.25 18.7659 5.44751 18.7659 8.35029C18.7659 9.08787 18.8559 9.60204 18.9776 9.99544C19.0996 10.3897 19.262 10.6927 19.4514 11.0234C19.4707 11.0571 19.4906 11.0916 19.511 11.1268C19.6844 11.4274 19.8886 11.7813 20.0443 12.2063C20.224 12.6968 20.3353 13.2641 20.3353 13.9983C20.3353 14.019 20.3344 14.0398 20.3327 14.0604C20.2694 14.8219 20.0528 15.4959 19.6342 16.061C19.216 16.6255 18.6377 17.0255 17.9438 17.3083C16.595 17.858 14.6805 18.0126 12.2511 18.0126C9.82052 18.0126 7.90601 17.8557 6.55708 17.3048C5.86335 17.0215 5.28536 16.6213 4.86737 16.0576C4.44883 15.4931 4.23196 14.8203 4.16861 14.0606C4.16688 14.0399 4.16602 14.0191 4.16602 13.9983C4.16602 12.8812 4.42486 12.1739 4.7479 11.5621C4.84607 11.3762 4.93748 11.2177 5.02259 11.07C5.22166 10.7248 5.38626 10.4393 5.52223 10.003C5.64547 9.60755 6.06596 9.38688 6.46141 9.51012C6.85687 9.63336 7.07754 10.0538 6.9543 10.4493C6.76488 11.0571 6.4825 11.5465 6.2603 11.9317C6.19089 12.052 6.12736 12.1621 6.07436 12.2625C5.84983 12.6877 5.67061 13.1499 5.6661 13.9667C5.71457 14.4976 5.85941 14.8771 6.07228 15.1642C6.28979 15.4575 6.61963 15.7101 7.12421 15.9161C8.17193 16.344 9.81601 16.5126 12.2511 16.5126C14.6865 16.5126 16.3302 16.3461 17.3777 15.9192C17.882 15.7137 18.2115 15.4615 18.4288 15.1681C18.6416 14.8808 18.7867 14.5003 18.8352 13.9668C18.8322 13.4119 18.7483 13.0292 18.6358 12.7222C18.527 12.4252 18.3875 12.1825 18.2082 11.8706C18.1892 11.8375 18.1697 11.8037 18.1498 11.7689C17.9469 11.4146 17.7169 10.9956 17.5446 10.4388C17.3721 9.88096 17.2659 9.2147 17.2659 8.35029C17.2659 6.24818 15.3132 3.75 12.2511 3.75Z" fill="black"/>
<path fill-rule="evenodd" clip-rule="evenodd" d="M5.82033 5.12305C5.82033 4.70883 6.15611 4.37305 6.57033 4.37305H8.64565C8.94234 4.37305 9.21115 4.54795 9.33135 4.81922C9.45154 5.09048 9.40053 5.4071 9.20121 5.62688L8.26298 6.66144H8.64565C9.05986 6.66144 9.39565 6.99723 9.39565 7.41144C9.39565 7.82566 9.05986 8.16144 8.64565 8.16144H6.57033C6.27363 8.16144 6.00482 7.98654 5.88462 7.71527C5.76443 7.44401 5.81545 7.12739 6.01476 6.90761L6.953 5.87305H6.57033C6.15611 5.87305 5.82033 5.53726 5.82033 5.12305Z" fill="black"/>
<path fill-rule="evenodd" clip-rule="evenodd" d="M9.71291 9.43945C9.71291 9.02524 10.0487 8.68945 10.4629 8.68945H13.3545C13.6512 8.68945 13.92 8.86434 14.0402 9.13558C14.1604 9.40682 14.1094 9.72342 13.9102 9.94321L12.1553 11.8788H13.3545C13.7687 11.8788 14.1045 12.2146 14.1045 12.6288C14.1045 13.043 13.7687 13.3788 13.3545 13.3788H10.4629C10.1662 13.3788 9.89743 13.2039 9.77722 12.9327C9.65702 12.6614 9.708 12.3448 9.90728 12.125L11.6622 10.1895H10.4629C10.0487 10.1895 9.71291 9.85367 9.71291 9.43945Z" fill="black"/>
</svg>