<svg width="25" height="24" viewBox="0 0 25 24" fill="none" xmlns="http://www.w3.org/2000/svg">
<path d="M17.3498 18.3833H7.14983C6.66566 18.3829 6.18944 18.2602 5.76531 18.0267C5.34117 17.7932 4.98285 17.4564 4.72356 17.0475C4.46427 16.6387 4.3124 16.1709 4.28203 15.6877C4.25166 15.2045 4.34377 14.7215 4.54983 14.2833L4.98583 13.3593C5.24714 12.8022 5.38365 12.1947 5.38583 11.5793V10.3513C5.38583 8.53061 6.1091 6.78448 7.39654 5.49704C8.68398 4.2096 10.4301 3.48633 12.2508 3.48633C14.0715 3.48633 15.8177 4.2096 17.1051 5.49704C18.3926 6.78448 19.1158 8.53061 19.1158 10.3513V11.5793C19.1172 12.1951 19.2538 12.8031 19.5158 13.3603L19.9498 14.2823C20.1559 14.7205 20.248 15.2035 20.2176 15.6867C20.1873 16.1699 20.0354 16.6377 19.7761 17.0465C19.5168 17.4554 19.1585 17.7922 18.7343 18.0257C18.3102 18.2592 17.834 18.3819 17.3498 18.3823V18.3833ZM12.2498 4.98733C10.8274 4.98892 9.46375 5.55467 8.45796 6.56046C7.45217 7.56624 6.88642 8.92993 6.88483 10.3523V11.5803C6.88299 12.4165 6.69835 13.2421 6.34383 13.9993L5.90782 14.9223C5.80973 15.1318 5.76597 15.3626 5.7806 15.5934C5.79524 15.8243 5.86778 16.0477 5.99154 16.2431C6.1153 16.4385 6.28629 16.5996 6.48873 16.7115C6.69116 16.8234 6.91853 16.8825 7.14983 16.8833H17.3498C17.5815 16.8834 17.8094 16.8248 18.0124 16.7132C18.2154 16.6016 18.3869 16.4405 18.511 16.2449C18.6351 16.0493 18.7078 15.8255 18.7223 15.5942C18.7367 15.363 18.6926 15.1319 18.5938 14.9223L18.1558 13.9993C17.8006 13.2423 17.6159 12.4165 17.6148 11.5803V10.3523C17.6132 8.92993 17.0475 7.56624 16.0417 6.56046C15.0359 5.55467 13.6722 4.98892 12.2498 4.98733Z" fill="black"/>
<path d="M12.249 4.988C12.0501 4.988 11.8593 4.90899 11.7187 4.76833C11.578 4.62768 11.499 4.43691 11.499 4.238V3C11.499 2.80109 11.578 2.61033 11.7187 2.46967C11.8593 2.32902 12.0501 2.25 12.249 2.25C12.4479 2.25 12.6387 2.32902 12.7794 2.46967C12.92 2.61033 12.999 2.80109 12.999 3V4.238C12.999 4.43691 12.92 4.62768 12.7794 4.76833C12.6387 4.90899 12.4479 4.988 12.249 4.988Z" fill="black"/>
<path d="M9.23768 9.84847C9.19813 9.84862 9.15864 9.84527 9.11968 9.83847C9.02239 9.82313 8.92909 9.78877 8.8451 9.73733C8.76111 9.68589 8.68809 9.61838 8.63023 9.53869C8.57236 9.45899 8.53077 9.36867 8.50786 9.27288C8.48494 9.17709 8.48115 9.07773 8.49668 8.98048C8.58304 8.42448 8.82143 7.90317 9.18549 7.47416C9.54956 7.04515 10.0251 6.72514 10.5597 6.54948C10.7486 6.48715 10.9546 6.50244 11.1323 6.59199C11.31 6.68154 11.4449 6.838 11.5072 7.02697C11.5695 7.21594 11.5542 7.42193 11.4647 7.59962C11.3751 7.77731 11.2186 7.91215 11.0297 7.97447C10.757 8.06432 10.5145 8.22776 10.3288 8.44675C10.1432 8.66575 10.0217 8.93178 9.97768 9.21548C9.94964 9.3917 9.85978 9.55218 9.72418 9.66817C9.58859 9.78416 9.41612 9.84807 9.23768 9.84847Z" fill="black"/>
<path d="M12.2483 21.7493C11.2843 21.7482 10.3601 21.3648 9.67844 20.6832C8.99678 20.0015 8.61336 19.0773 8.6123 18.1133C8.6123 17.9144 8.69133 17.7236 8.83198 17.583C8.97263 17.4423 9.16339 17.3633 9.3623 17.3633C9.56122 17.3633 9.75199 17.4423 9.89264 17.583C10.0333 17.7236 10.1123 17.9144 10.1123 18.1133C10.1244 18.6719 10.3548 19.2036 10.7542 19.5944C11.1535 19.9852 11.69 20.2041 12.2488 20.2041C12.8076 20.2041 13.3441 19.9852 13.7435 19.5944C14.1428 19.2036 14.3732 18.6719 14.3853 18.1133C14.3853 17.9144 14.4643 17.7236 14.605 17.583C14.7456 17.4423 14.9364 17.3633 15.1353 17.3633C15.3342 17.3633 15.525 17.4423 15.6656 17.583C15.8063 17.7236 15.8853 17.9144 15.8853 18.1133C15.884 19.0774 15.5003 20.0016 14.8185 20.6832C14.1367 21.3648 13.2124 21.7482 12.2483 21.7493Z" fill="black"/>
</svg>