<svg width="24" height="24" viewBox="0 0 24 24" fill="none" xmlns="http://www.w3.org/2000/svg">
<path fill-rule="evenodd" clip-rule="evenodd" d="M20.145 4.15305L4.91495 19.383C4.76495 19.523 4.57495 19.603 4.38495 19.603C4.19495 19.603 4.00495 19.523 3.85495 19.383C3.56495 19.083 3.56495 18.613 3.85495 18.323L5.68495 16.493C4.83495 15.903 4.37495 15.053 4.27495 13.913C4.27495 12.503 4.67495 11.803 5.06495 11.123C5.46495 10.433 5.84495 9.77305 5.84495 8.22305C5.84495 5.40305 8.35495 2.37305 12.105 2.37305C14.165 2.37305 16.055 3.34305 17.235 4.94305L19.085 3.09305C19.375 2.80305 19.845 2.80305 20.145 3.09305C20.435 3.38305 20.435 3.86305 20.145 4.15305Z" fill="black"/>
<g opacity="0.4">
<path fill-rule="evenodd" clip-rule="evenodd" d="M19.945 13.8733C19.685 17.0333 16.875 17.6433 12.105 17.6433C11.395 17.6433 10.735 17.6333 10.135 17.5933C9.93499 17.5833 9.76499 17.4633 9.69499 17.2733C9.62499 17.0933 9.67499 16.8833 9.81499 16.7433L17.615 9.05329C17.745 8.92329 17.945 8.88329 18.125 8.94329C18.295 8.99329 18.425 9.15329 18.455 9.33329C18.595 10.1433 18.865 10.6233 19.155 11.1333C19.545 11.8033 19.945 12.5033 19.945 13.8733Z" fill="black"/>
<path fill-rule="evenodd" clip-rule="evenodd" d="M14.2457 19.1019H10.0427C9.75472 19.1019 9.49172 19.2679 9.36672 19.5269C9.24272 19.7869 9.27772 20.0959 9.45772 20.3209C10.1227 21.1519 11.1007 21.6279 12.1397 21.6279C13.1847 21.6279 14.1657 21.1519 14.8307 20.3209C15.0117 20.0959 15.0467 19.7869 14.9217 19.5269C14.7967 19.2679 14.5347 19.1019 14.2457 19.1019Z" fill="black"/>
</g>
</svg>