<svg width="24" height="24" viewBox="0 0 24 24" fill="none" xmlns="http://www.w3.org/2000/svg">
<path opacity="0.4" fill-rule="evenodd" clip-rule="evenodd" d="M18.1228 8.66327C18.1228 5.90227 15.6628 2.94727 12.0008 2.94727C8.33884 2.94727 5.87884 5.90327 5.87884 8.66427C5.87884 10.1723 5.51184 10.8113 5.12184 11.4873C4.74184 12.1473 4.34884 12.8303 4.35084 14.2133C4.60384 17.2583 7.34784 17.8543 12.0008 17.8543C16.6548 17.8543 19.3988 17.2583 19.6538 14.1713C19.6538 12.8293 19.2608 12.1463 18.8798 11.4863C18.4908 10.8103 18.1228 10.1713 18.1228 8.66327Z" fill="black"/>
<path fill-rule="evenodd" clip-rule="evenodd" d="M14.0829 19.2495H9.98388C9.69588 19.2495 9.43288 19.4154 9.30788 19.6744C9.18388 19.9354 9.21888 20.2435 9.39888 20.4685C10.0509 21.2824 11.0099 21.7495 12.0289 21.7495C13.0539 21.7495 14.0159 21.2824 14.6679 20.4685C14.8489 20.2435 14.8839 19.9354 14.7589 19.6744C14.6339 19.4154 14.3719 19.2495 14.0829 19.2495Z" fill="black"/>
<path fill-rule="evenodd" clip-rule="evenodd" d="M4.75719 6.43794C5.11219 5.36794 5.74819 4.36794 6.59419 3.54494C6.89219 3.25594 6.89919 2.78194 6.61019 2.48494C6.32119 2.18794 5.84619 2.18094 5.54919 2.46894C4.53119 3.45894 3.76419 4.66794 3.33319 5.96494C3.20319 6.35794 3.41619 6.78294 3.80919 6.91394C3.88719 6.93894 3.96719 6.95194 4.04519 6.95194C4.36019 6.95194 4.65219 6.75294 4.75719 6.43794Z" fill="black"/>
<path fill-rule="evenodd" clip-rule="evenodd" d="M20.6664 5.97456C20.2324 4.66956 19.4634 3.45456 18.4434 2.46156C18.1474 2.17456 17.6714 2.17956 17.3824 2.47656C17.0944 2.77256 17.1004 3.24756 17.3974 3.53656C18.2464 4.36356 18.8844 5.37056 19.2434 6.44856C19.3484 6.76256 19.6404 6.96156 19.9554 6.96156C20.0334 6.96156 20.1134 6.94956 20.1914 6.92256C20.5844 6.79256 20.7974 6.36756 20.6664 5.97456Z" fill="black"/>
</svg>