<svg width="25" height="24" viewBox="0 0 25 24" fill="none" xmlns="http://www.w3.org/2000/svg">
<path fill-rule="evenodd" clip-rule="evenodd" d="M9.85655 3.75C8.61379 3.75 7.60688 4.75692 7.60688 5.99968V12.0224C7.60688 12.2575 7.49665 12.4789 7.30911 12.6207C6.27588 13.4017 5.60645 14.6205 5.60645 15.9999C5.60645 18.347 7.50947 20.25 9.85655 20.25C12.2036 20.25 14.1067 18.347 14.1067 15.9999C14.1067 14.6202 13.4379 13.4015 12.405 12.6207C12.2174 12.4789 12.1072 12.2575 12.1072 12.0224V5.99968C12.1072 4.75723 11.0996 3.75 9.85655 3.75ZM6.10688 5.99968C6.10688 3.92849 7.78537 2.25 9.85655 2.25C11.9274 2.25 13.6072 3.92817 13.6072 5.99968V11.6647C14.8213 12.713 15.6067 14.2569 15.6067 15.9999C15.6067 19.1754 13.0321 21.75 9.85655 21.75C6.68104 21.75 4.10645 19.1754 4.10645 15.9999C4.10645 14.2566 4.89283 12.7128 6.10688 11.6647V5.99968Z" fill="black"/>
<path fill-rule="evenodd" clip-rule="evenodd" d="M9.8575 15.2764C9.45733 15.2764 9.13379 15.6004 9.13379 15.9996C9.13379 16.3985 9.45736 16.7227 9.85784 16.7227C10.257 16.7227 10.5809 16.3988 10.5809 15.9996C10.5809 15.6005 10.2568 15.2764 9.8575 15.2764ZM7.63379 15.9996C7.63379 14.772 8.62892 13.7764 9.8575 13.7764C11.085 13.7764 12.0809 14.7718 12.0809 15.9996C12.0809 17.2272 11.0855 18.2227 9.85784 18.2227C8.62957 18.2227 7.63379 17.2275 7.63379 15.9996Z" fill="black"/>
<path fill-rule="evenodd" clip-rule="evenodd" d="M9.85645 5.97754C10.2707 5.97754 10.6064 6.31333 10.6064 6.72754V14.5269C10.6064 14.9411 10.2707 15.2769 9.85645 15.2769C9.44223 15.2769 9.10645 14.9411 9.10645 14.5269V6.72754C9.10645 6.31333 9.44223 5.97754 9.85645 5.97754Z" fill="black"/>
<path fill-rule="evenodd" clip-rule="evenodd" d="M18.3712 4.20557C18.5702 4.20557 18.761 4.28464 18.9017 4.42536L20.9015 6.42617C21.1944 6.71913 21.1943 7.194 20.9013 7.48683C20.6083 7.77965 20.1335 7.77954 19.8406 7.48658L19.1212 6.76682V10.319C19.1212 10.7332 18.7854 11.069 18.3712 11.069C17.957 11.069 17.6212 10.7332 17.6212 10.319V6.76666L16.9015 7.48661C16.6087 7.77956 16.1338 7.77964 15.8409 7.4868C15.5479 7.19395 15.5478 6.71908 15.8407 6.42614L17.8408 4.42533C17.9815 4.28461 18.1723 4.20556 18.3712 4.20557Z" fill="black"/>
</svg>