<svg width="24" height="24" viewBox="0 0 24 24" fill="none" xmlns="http://www.w3.org/2000/svg">
<path fill-rule="evenodd" clip-rule="evenodd" d="M20.9497 9.06333C20.9617 9.01933 20.9867 8.98233 20.9917 8.93733C20.9947 8.91533 20.9857 8.89633 20.9877 8.87433C20.9887 8.85333 20.9997 8.83333 20.9997 8.81233C20.9997 8.76333 20.9787 8.71933 20.9717 8.67233C20.9627 8.60933 20.9557 8.54733 20.9357 8.48733C20.9137 8.42733 20.8817 8.37433 20.8497 8.31833C20.8167 8.26133 20.7857 8.20733 20.7427 8.15833C20.7287 8.14233 20.7227 8.12033 20.7067 8.10533L17.9747 5.37333C17.5837 4.98233 16.9507 4.98233 16.5607 5.37333C16.1697 5.76333 16.1697 6.39633 16.5607 6.78733L17.4607 7.68733C13.5067 7.79533 11.0787 9.38033 9.67869 10.8383C6.95069 13.6803 6.41469 17.6293 6.71869 19.4503C6.79969 19.9393 7.22369 20.2863 7.70369 20.2863C7.75869 20.2863 7.81369 20.2813 7.86869 20.2723C8.41369 20.1813 8.78169 19.6663 8.69169 19.1213C8.49669 17.9563 8.83969 14.6013 11.1217 12.2243C12.7217 10.5583 14.9387 9.71933 17.7087 9.68833L16.5607 10.8373C16.1697 11.2283 16.1697 11.8603 16.5607 12.2513C16.7557 12.4463 17.0117 12.5443 17.2677 12.5443C17.5237 12.5443 17.7787 12.4463 17.9747 12.2513L20.7067 9.51933C20.7347 9.49133 20.7467 9.45433 20.7707 9.42433C20.8147 9.36733 20.8567 9.31333 20.8887 9.24733C20.9177 9.18833 20.9327 9.12733 20.9497 9.06333Z" fill="black"/>
<g opacity="0.4">
<path fill-rule="evenodd" clip-rule="evenodd" d="M19.7334 14.9358C19.3424 14.5448 18.7104 14.5448 18.3194 14.9358L16.9764 16.2778L15.6344 14.9358C15.2444 14.5448 14.6114 14.5448 14.2204 14.9358C13.8304 15.3258 13.8304 15.9588 14.2204 16.3498L15.5624 17.6918L14.2204 19.0338C13.8304 19.4248 13.8304 20.0578 14.2204 20.4478C14.4164 20.6438 14.6714 20.7408 14.9274 20.7408C15.1834 20.7408 15.4394 20.6438 15.6344 20.4478L16.9764 19.1058L18.3194 20.4478C18.7104 20.8388 19.3424 20.8388 19.7334 20.4478C20.1244 20.0578 20.1244 19.4238 19.7334 19.0338L18.3904 17.6918L19.7334 16.3498C20.1244 15.9598 20.1244 15.3268 19.7334 14.9358Z" fill="black"/>
<path fill-rule="evenodd" clip-rule="evenodd" d="M6.27724 7.81179C5.57324 7.81179 5.00024 7.23979 5.00024 6.53579C5.00024 5.83179 5.57324 5.25879 6.27724 5.25879C6.98124 5.25879 7.55324 5.83179 7.55324 6.53579C7.55324 7.23979 6.98124 7.81179 6.27724 7.81179ZM9.55324 6.53579C9.55324 4.72879 8.08424 3.25879 6.27724 3.25879C4.46924 3.25879 3.00024 4.72879 3.00024 6.53579C3.00024 8.34179 4.46924 9.81179 6.27724 9.81179C8.08424 9.81179 9.55324 8.34179 9.55324 6.53579Z" fill="black"/>
</g>
</svg>