<svg width="25" height="25" viewBox="0 0 25 25" fill="none" xmlns="http://www.w3.org/2000/svg">
<path fill-rule="evenodd" clip-rule="evenodd" d="M5.08828 12.9053C5.55122 12.9053 5.92651 12.53 5.92651 12.067C5.92651 11.6041 5.55122 11.2288 5.08828 11.2288C4.62533 11.2288 4.25004 11.6041 4.25004 12.067C4.25004 12.53 4.62533 12.9053 5.08828 12.9053ZM7.42651 12.067C7.42651 13.3584 6.37965 14.4053 5.08828 14.4053C3.79691 14.4053 2.75004 13.3584 2.75004 12.067C2.75004 10.7757 3.79691 9.7288 5.08828 9.7288C6.37965 9.7288 7.42651 10.7757 7.42651 12.067Z" fill="black"/>
<path fill-rule="evenodd" clip-rule="evenodd" d="M12.4999 12.9053C12.9628 12.9053 13.3381 12.53 13.3381 12.067C13.3381 11.6041 12.9628 11.2288 12.4999 11.2288C12.037 11.2288 11.6617 11.6041 11.6617 12.067C11.6617 12.53 12.037 12.9053 12.4999 12.9053ZM14.8381 12.067C14.8381 13.3584 13.7913 14.4053 12.4999 14.4053C11.2085 14.4053 10.1617 13.3584 10.1617 12.067C10.1617 10.7757 11.2085 9.7288 12.4999 9.7288C13.7913 9.7288 14.8381 10.7757 14.8381 12.067Z" fill="black"/>
<path fill-rule="evenodd" clip-rule="evenodd" d="M19.9118 12.9053C20.3747 12.9053 20.75 12.53 20.75 12.067C20.75 11.6041 20.3747 11.2288 19.9118 11.2288C19.4488 11.2288 19.0735 11.6041 19.0735 12.067C19.0735 12.53 19.4488 12.9053 19.9118 12.9053ZM22.25 12.067C22.25 13.3584 21.2031 14.4053 19.9118 14.4053C18.6204 14.4053 17.5735 13.3584 17.5735 12.067C17.5735 10.7757 18.6204 9.7288 19.9118 9.7288C21.2031 9.7288 22.25 10.7757 22.25 12.067Z" fill="black"/>
<path fill-rule="evenodd" clip-rule="evenodd" d="M13.3381 12.0674C13.3381 11.6532 13.6739 11.3174 14.0881 11.3174H18.3234C18.7376 11.3174 19.0734 11.6532 19.0734 12.0674C19.0734 12.4816 18.7376 12.8174 18.3234 12.8174H14.0881C13.6739 12.8174 13.3381 12.4816 13.3381 12.0674Z" fill="black"/>
<path fill-rule="evenodd" clip-rule="evenodd" d="M5.92651 12.0674C5.92651 11.6532 6.2623 11.3174 6.67651 11.3174H10.9118C11.326 11.3174 11.6618 11.6532 11.6618 12.0674C11.6618 12.4816 11.326 12.8174 10.9118 12.8174H6.67651C6.2623 12.8174 5.92651 12.4816 5.92651 12.0674Z" fill="black"/>
<path fill-rule="evenodd" clip-rule="evenodd" d="M12.2058 18.877C12.2058 17.9105 12.9893 17.127 13.9558 17.127H18.4558C19.4223 17.127 20.2058 17.9105 20.2058 18.877V20.077C20.2058 21.0434 19.4223 21.827 18.4558 21.827H13.9558C12.9893 21.827 12.2058 21.0435 12.2058 20.077V18.877ZM13.9558 18.627C13.8177 18.627 13.7058 18.7389 13.7058 18.877V20.077C13.7058 20.215 13.8177 20.327 13.9558 20.327H18.4558C18.5939 20.327 18.7058 20.215 18.7058 20.077V18.877C18.7058 18.7389 18.5939 18.627 18.4558 18.627H13.9558Z" fill="black"/>
<path fill-rule="evenodd" clip-rule="evenodd" d="M16.2058 14.4053C15.7916 14.4053 15.4558 14.0695 15.4558 13.6553V12.067C15.4558 11.6528 15.7916 11.317 16.2058 11.317C16.62 11.317 16.9558 11.6528 16.9558 12.067V13.6553C16.9558 14.0695 16.62 14.4053 16.2058 14.4053Z" fill="black"/>
<path fill-rule="evenodd" clip-rule="evenodd" d="M16.2058 18.627C15.7916 18.627 15.4558 18.2912 15.4558 17.877V15.877C15.4558 15.4627 15.7916 15.127 16.2058 15.127C16.62 15.127 16.9558 15.4627 16.9558 15.877V17.877C16.9558 18.2912 16.62 18.627 16.2058 18.627Z" fill="black"/>
<path fill-rule="evenodd" clip-rule="evenodd" d="M8.79419 12.8174C8.37998 12.8174 8.04419 12.4816 8.04419 12.0674V10.4791C8.04419 10.0649 8.37998 9.72908 8.79419 9.72908C9.2084 9.72908 9.54419 10.0649 9.54419 10.4791V12.0674C9.54419 12.4816 9.2084 12.8174 8.79419 12.8174Z" fill="black"/>
<path fill-rule="evenodd" clip-rule="evenodd" d="M4.79419 4.16113C4.79419 3.19463 5.57769 2.41113 6.54419 2.41113H11.0442C12.0107 2.41113 12.7942 3.19464 12.7942 4.16113V5.36113C12.7942 6.32763 12.0107 7.11113 11.0442 7.11113H6.54419C5.57769 7.11113 4.79419 6.32763 4.79419 5.36113V4.16113ZM6.54419 3.91113C6.40612 3.91113 6.29419 4.02306 6.29419 4.16113V5.36113C6.29419 5.4992 6.40612 5.61113 6.54419 5.61113H11.0442C11.1823 5.61113 11.2942 5.4992 11.2942 5.36113V4.16113C11.2942 4.02306 11.1823 3.91113 11.0442 3.91113H6.54419Z" fill="black"/>
<path fill-rule="evenodd" clip-rule="evenodd" d="M8.79419 5.61133C8.37998 5.61133 8.04419 5.94711 8.04419 6.36133V8.36133C8.04419 8.77554 8.37998 9.11133 8.79419 9.11133C9.2084 9.11133 9.54419 8.77554 9.54419 8.36133V6.36133C9.54419 5.94711 9.2084 5.61133 8.79419 5.61133Z" fill="black"/>
</svg>