<svg width="25" height="24" viewBox="0 0 25 24" fill="none" xmlns="http://www.w3.org/2000/svg">
<path fill-rule="evenodd" clip-rule="evenodd" d="M14.6474 15.1122C14.9403 14.8194 15.4152 14.8194 15.7081 15.1122L17.2268 16.631L18.7456 15.1122C19.0385 14.8194 19.5133 14.8194 19.8062 15.1122C20.0991 15.4051 20.0991 15.88 19.8062 16.1729L18.2875 17.6917L19.8062 19.2104C20.0991 19.5033 20.0991 19.9782 19.8062 20.2711C19.5133 20.564 19.0385 20.564 18.7456 20.2711L17.2268 18.7523L15.7081 20.2711C15.4152 20.564 14.9403 20.564 14.6474 20.2711C14.3545 19.9782 14.3545 19.5033 14.6474 19.2104L16.1662 17.6917L14.6474 16.1729C14.3545 15.88 14.3545 15.4051 14.6474 15.1122Z" fill="black"/>
<path fill-rule="evenodd" clip-rule="evenodd" d="M6.52676 5.00879C5.68355 5.00879 5 5.69234 5 6.53555C5 7.37875 5.68355 8.0623 6.52676 8.0623C7.36996 8.0623 8.05351 7.37875 8.05351 6.53555C8.05351 5.69234 7.36996 5.00879 6.52676 5.00879ZM3.5 6.53555C3.5 4.86391 4.85513 3.50879 6.52676 3.50879C8.19839 3.50879 9.55351 4.86391 9.55351 6.53555C9.55351 8.20718 8.19839 9.5623 6.52676 9.5623C4.85513 9.5623 3.5 8.20718 3.5 6.53555Z" fill="black"/>
<path fill-rule="evenodd" clip-rule="evenodd" d="M16.9872 5.54975C17.2801 5.25685 17.755 5.25685 18.0479 5.54975L20.78 8.28186C21.0729 8.57475 21.0729 9.04962 20.78 9.34252L18.0479 12.0746C17.755 12.3675 17.2801 12.3675 16.9872 12.0746C16.6944 11.7817 16.6944 11.3069 16.9872 11.014L19.189 8.81219L16.9872 6.61041C16.6944 6.31751 16.6944 5.84264 16.9872 5.54975Z" fill="black"/>
<path fill-rule="evenodd" clip-rule="evenodd" d="M10.4417 12.9507C8.79767 15.2311 8.49899 17.9875 8.69474 19.1621C8.76283 19.5707 8.48681 19.9571 8.07824 20.0252C7.66966 20.0933 7.28324 19.8173 7.21515 19.4087C6.9556 17.8512 7.33999 14.6881 9.22495 12.0735C11.162 9.38664 14.6275 7.35376 20.3425 8.06812C20.7535 8.1195 21.0451 8.49434 20.9937 8.90536C20.9423 9.31637 20.5675 9.60792 20.1565 9.55654C14.943 8.90488 12.0337 10.7425 10.4417 12.9507Z" fill="black"/>
</svg>