<svg width="25" height="25" viewBox="0 0 25 25" fill="none" xmlns="http://www.w3.org/2000/svg">
<path d="M3.50029 12.067C3.50029 11.1899 4.21136 10.4788 5.08852 10.4788C5.96568 10.4788 6.67676 11.1899 6.67676 12.067C6.67676 12.9442 5.96568 13.6553 5.08852 13.6553C4.21136 13.6553 3.50029 12.9442 3.50029 12.067Z" stroke="black" stroke-width="1.5" stroke-linecap="round"/>
<path d="M10.9114 12.067C10.9114 11.1899 11.6225 10.4788 12.4997 10.4788C13.3768 10.4788 14.0879 11.1899 14.0879 12.067C14.0879 12.9442 13.3768 13.6553 12.4997 13.6553C11.6225 13.6553 10.9114 12.9442 10.9114 12.067Z" stroke="black" stroke-width="1.5" stroke-linecap="round"/>
<path d="M18.3235 12.067C18.3235 11.1899 19.0346 10.4788 19.9118 10.4788C20.7889 10.4788 21.5 11.1899 21.5 12.067C21.5 12.9442 20.7889 13.6553 19.9118 13.6553C19.0346 13.6553 18.3235 12.9442 18.3235 12.067Z" stroke="black" stroke-width="1.5" stroke-linecap="round"/>
<path d="M14.0879 12.0674H18.3232" stroke="black" stroke-width="1.5" stroke-linecap="round"/>
<path d="M6.67676 12.0674H10.9121" stroke="black" stroke-width="1.5" stroke-linecap="round"/>
<path d="M12.9561 18.877C12.9561 18.3247 13.4038 17.877 13.9561 17.877H18.4561C19.0083 17.877 19.4561 18.3247 19.4561 18.877V20.077C19.4561 20.6292 19.0083 21.077 18.4561 21.077H13.9561C13.4038 21.077 12.9561 20.6292 12.9561 20.077V18.877Z" stroke="black" stroke-width="1.5" stroke-linecap="round"/>
<path d="M16.2061 12.067V13.6553" stroke="black" stroke-width="1.5" stroke-linecap="round"/>
<path d="M16.2061 15.877V17.877" stroke="black" stroke-width="1.5" stroke-linecap="round"/>
<path d="M8.79395 10.4791V12.0674" stroke="black" stroke-width="1.5" stroke-linecap="round"/>
<path d="M5.54395 5.36113C5.54395 5.91342 5.99166 6.36113 6.54395 6.36113H11.0439C11.5962 6.36113 12.0439 5.91342 12.0439 5.36113V4.16113C12.0439 3.60885 11.5962 3.16113 11.0439 3.16113H6.54395C5.99166 3.16113 5.54395 3.60885 5.54395 4.16113V5.36113Z" stroke="black" stroke-width="1.5" stroke-linecap="round"/>
<path d="M8.79395 8.36133V6.36133" stroke="black" stroke-width="1.5" stroke-linecap="round"/>
</svg>