<svg width="24" height="24" viewBox="0 0 24 24" fill="none" xmlns="http://www.w3.org/2000/svg">
<path fill-rule="evenodd" clip-rule="evenodd" d="M19.7331 14.9358C19.3421 14.5448 18.7101 14.5448 18.3191 14.9358L16.9761 16.2778L15.6341 14.9358C15.2441 14.5448 14.6111 14.5448 14.2201 14.9358C13.8301 15.3258 13.8301 15.9588 14.2201 16.3498L15.5621 17.6918L14.2201 19.0338C13.8301 19.4248 13.8301 20.0578 14.2201 20.4478C14.4161 20.6438 14.6711 20.7408 14.9271 20.7408C15.1831 20.7408 15.4391 20.6438 15.6341 20.4478L16.9761 19.1058L18.3191 20.4478C18.7101 20.8388 19.3421 20.8388 19.7331 20.4478C20.1241 20.0578 20.1241 19.4238 19.7331 19.0338L18.3901 17.6918L19.7331 16.3498C20.1241 15.9598 20.1241 15.3268 19.7331 14.9358Z" fill="black"/>
<path fill-rule="evenodd" clip-rule="evenodd" d="M6.277 7.81179C5.573 7.81179 5 7.23979 5 6.53579C5 5.83179 5.573 5.25879 6.277 5.25879C6.981 5.25879 7.553 5.83179 7.553 6.53579C7.553 7.23979 6.981 7.81179 6.277 7.81179ZM9.553 6.53579C9.553 4.72879 8.084 3.25879 6.277 3.25879C4.469 3.25879 3 4.72879 3 6.53579C3 8.34179 4.469 9.81179 6.277 9.81179C8.084 9.81179 9.553 8.34179 9.553 6.53579Z" fill="black"/>
<path fill-rule="evenodd" clip-rule="evenodd" d="M20.9496 9.06321C20.9616 9.01921 20.9866 8.98221 20.9916 8.93721C20.9946 8.91521 20.9856 8.89621 20.9876 8.87421C20.9886 8.85321 20.9996 8.83321 20.9996 8.81221C20.9996 8.76321 20.9786 8.71921 20.9716 8.67221C20.9626 8.60921 20.9556 8.54721 20.9356 8.48721C20.9136 8.42721 20.8816 8.37421 20.8496 8.31821C20.8166 8.26121 20.7856 8.20721 20.7426 8.15821C20.7286 8.14221 20.7226 8.12021 20.7066 8.10521L17.9746 5.37321C17.5836 4.98221 16.9506 4.98221 16.5606 5.37321C16.1696 5.76321 16.1696 6.39621 16.5606 6.78721L17.4606 7.68721C13.5066 7.79521 11.0786 9.38021 9.67857 10.8382C6.95057 13.6802 6.41457 17.6292 6.71857 19.4502C6.79957 19.9392 7.22357 20.2862 7.70357 20.2862C7.75857 20.2862 7.81357 20.2812 7.86857 20.2722C8.41357 20.1812 8.78157 19.6662 8.69157 19.1212C8.49657 17.9562 8.83957 14.6012 11.1216 12.2242C12.7216 10.5582 14.9386 9.71921 17.7086 9.68821L16.5606 10.8372C16.1696 11.2282 16.1696 11.8602 16.5606 12.2512C16.7556 12.4462 17.0116 12.5442 17.2676 12.5442C17.5236 12.5442 17.7786 12.4462 17.9746 12.2512L20.7066 9.51921C20.7346 9.49121 20.7466 9.45421 20.7706 9.42421C20.8146 9.36721 20.8566 9.31321 20.8886 9.24721C20.9176 9.18821 20.9326 9.12721 20.9496 9.06321Z" fill="black"/>
</svg>