<svg width="25" height="24" viewBox="0 0 25 24" fill="none" xmlns="http://www.w3.org/2000/svg">
<path d="M13.5881 8.17578H10.9121C10.7132 8.17578 10.5224 8.09677 10.3818 7.95612C10.2411 7.81546 10.1621 7.62469 10.1621 7.42578C10.1621 7.22687 10.2411 7.0361 10.3818 6.89545C10.5224 6.75479 10.7132 6.67578 10.9121 6.67578H13.5881C13.787 6.67578 13.9778 6.75479 14.1184 6.89545C14.2591 7.0361 14.3381 7.22687 14.3381 7.42578C14.3381 7.62469 14.2591 7.81546 14.1184 7.95612C13.9778 8.09677 13.787 8.17578 13.5881 8.17578Z" fill="black"/>
<path d="M13.5881 16.3516H10.9121C10.7132 16.3516 10.5224 16.2725 10.3818 16.1319C10.2411 15.9912 10.1621 15.8005 10.1621 15.6016C10.1621 15.4027 10.2411 15.2119 10.3818 15.0712C10.5224 14.9306 10.7132 14.8516 10.9121 14.8516H13.5881C13.787 14.8516 13.9778 14.9306 14.1184 15.0712C14.2591 15.2119 14.3381 15.4027 14.3381 15.6016C14.3381 15.8005 14.2591 15.9912 14.1184 16.1319C13.9778 16.2725 13.787 16.3516 13.5881 16.3516Z" fill="black"/>
<path d="M13.0039 18C13.0039 17.5858 12.6681 17.25 12.2539 17.25C11.8397 17.25 11.5039 17.5858 11.5039 18V21C11.5039 21.4142 11.8397 21.75 12.2539 21.75C12.6681 21.75 13.0039 21.4142 13.0039 21V18Z" fill="black"/>
<path d="M12.9961 3C12.9961 2.58579 12.6603 2.25 12.2461 2.25C11.8319 2.25 11.4961 2.58579 11.4961 3V5C11.4961 5.41421 11.8319 5.75 12.2461 5.75C12.6603 5.75 12.9961 5.41421 12.9961 5V3Z" fill="black"/>
<path d="M12.998 10C12.998 9.58579 12.6623 9.25 12.248 9.25C11.8338 9.25 11.498 9.58579 11.498 10V13C11.498 13.4142 11.8338 13.75 12.248 13.75C12.6623 13.75 12.998 13.4142 12.998 13V10Z" fill="black"/>
<path d="M6.75 10.756C6.28603 10.7555 5.84123 10.5709 5.51315 10.2429C5.18508 9.91478 5.00053 9.46995 5 9.00598V6C5.00053 5.53603 5.18508 5.0912 5.51315 4.76312C5.84123 4.43505 6.28603 4.25053 6.75 4.25H17.43C17.6753 4.25063 17.9178 4.30276 18.1418 4.40302C18.3657 4.50327 18.5661 4.64939 18.73 4.83197L20.074 6.33197C20.3607 6.6529 20.5191 7.06815 20.5191 7.49847C20.5191 7.9288 20.3607 8.34405 20.074 8.66498L18.729 10.165C18.5652 10.3477 18.3648 10.494 18.1409 10.5944C17.9169 10.6948 17.6744 10.7472 17.429 10.748L6.75 10.756ZM17.43 5.75H6.75C6.6837 5.75 6.62011 5.77636 6.57323 5.82324C6.52634 5.87013 6.5 5.9337 6.5 6V9.005C6.5 9.07131 6.52634 9.13488 6.57323 9.18176C6.62011 9.22865 6.6837 9.255 6.75 9.255H17.43C17.4652 9.25513 17.5 9.24771 17.5321 9.23322C17.5642 9.21872 17.5928 9.19752 17.616 9.17102L18.96 7.67102C19.0011 7.62488 19.0237 7.56523 19.0237 7.50348C19.0237 7.44172 19.0011 7.38214 18.96 7.336L17.616 5.836C17.5924 5.80883 17.5632 5.78706 17.5304 5.77222C17.4976 5.75737 17.462 5.74981 17.426 5.75H17.43Z" fill="black"/>
<path d="M17.7506 18.7548H7.07062C6.82527 18.7542 6.58278 18.7021 6.35884 18.6018C6.13491 18.5016 5.93451 18.3554 5.77061 18.1728L4.42561 16.6728C4.13894 16.3519 3.98047 15.9366 3.98047 15.5063C3.98047 15.076 4.13894 14.6607 4.42561 14.3398L5.77061 12.8398C5.93451 12.6572 6.13491 12.5111 6.35884 12.4108C6.58278 12.3106 6.82527 12.2584 7.07062 12.2578H17.7506C18.2143 12.2591 18.6587 12.4439 18.9866 12.7719C19.3145 13.0998 19.4993 13.5441 19.5006 14.0078V17.0028C19.5006 17.4671 19.3163 17.9125 18.9882 18.241C18.66 18.5695 18.2149 18.7543 17.7506 18.7548ZM6.88461 13.8318L5.5406 15.3318C5.49956 15.3779 5.47688 15.4376 5.47688 15.4993C5.47688 15.5611 5.49956 15.6207 5.5406 15.6668L6.88461 17.1668C6.90801 17.193 6.93668 17.2139 6.96873 17.2282C7.00079 17.2425 7.03552 17.2499 7.07062 17.2498H17.7506C17.8169 17.2498 17.8805 17.2235 17.9274 17.1766C17.9743 17.1297 18.0006 17.0661 18.0006 16.9998V14.0028C18.0005 13.9698 17.9939 13.9373 17.9811 13.9069C17.9684 13.8765 17.9498 13.8488 17.9264 13.8256C17.903 13.8024 17.8752 13.784 17.8447 13.7715C17.8142 13.7591 17.7816 13.7527 17.7486 13.7528H7.07462C7.03982 13.7523 7.0053 13.7591 6.97327 13.7727C6.94124 13.7863 6.91241 13.8064 6.88861 13.8318H6.88461Z" fill="black"/>
</svg>