<svg width="25" height="25" viewBox="0 0 25 25" fill="none" xmlns="http://www.w3.org/2000/svg">
<path d="M8.53539 20.2356C8.28669 20.6342 8.16473 21.0989 8.18535 21.5683" stroke="black" stroke-width="1.5" stroke-linecap="round" stroke-linejoin="round"/>
<path d="M4.58566 16.2859C4.18719 16.5341 3.72162 16.6536 3.25293 16.6269" stroke="black" stroke-width="1.5" stroke-linecap="round" stroke-linejoin="round"/>
<path d="M10.4894 7.59979L6.23853 7.93036L4.41943 9.74946C5.56358 10.4218 6.66227 11.169 7.70758 11.9865C9.62135 13.4771 11.3432 15.1995 12.8338 17.1132C13.6491 18.1568 14.3962 19.2519 15.0709 20.3914L16.88 18.5818L17.211 14.3214" stroke="black" stroke-width="1.5" stroke-linecap="round" stroke-linejoin="round"/>
<path d="M7.43478 12.5114C8.34236 10.545 9.52454 8.7174 10.9462 7.08355C10.9462 7.08355 15.7031 2.01654 20.7612 4.04951C22.8039 8.99091 17.7362 13.8641 17.7362 13.8641C16.0988 15.2884 14.2679 16.474 12.2984 17.3854C11.6636 17.7161 10.9905 17.9671 10.2945 18.134L6.67627 14.5157C6.88359 13.8314 7.13687 13.1614 7.43478 12.5114V12.5114Z" stroke="black" stroke-width="1.5" stroke-linecap="round" stroke-linejoin="round"/>
<path d="M14.4971 11.7047C15.2384 11.7047 15.8394 11.1037 15.8394 10.3623C15.8394 9.62095 15.2384 9.01996 14.4971 9.01996C13.7557 9.01996 13.1548 9.62095 13.1548 10.3623C13.1548 11.1037 13.7557 11.7047 14.4971 11.7047Z" stroke="black" stroke-width="1.5" stroke-linecap="round" stroke-linejoin="round"/>
<path d="M14.9653 4.60376L20.218 9.85643" stroke="black" stroke-width="1.5" stroke-linecap="round" stroke-linejoin="round"/>
<path d="M6.40455 18.4263L5.354 19.4671" stroke="black" stroke-width="1.5" stroke-linecap="round" stroke-linejoin="round"/>
</svg>