<svg width="25" height="24" viewBox="0 0 25 24" fill="none" xmlns="http://www.w3.org/2000/svg">
<path opacity="0.4" d="M9.0353 19.668C8.7866 20.0666 8.66464 20.5313 8.68526 21.0007" stroke="black" stroke-width="1.5" stroke-linecap="round" stroke-linejoin="round"/>
<path opacity="0.4" d="M5.08566 15.7168C4.68719 15.965 4.22162 16.0845 3.75293 16.0578" stroke="black" stroke-width="1.5" stroke-linecap="round" stroke-linejoin="round"/>
<path opacity="0.4" d="M10.9894 7.03143L6.73853 7.362L4.91943 9.1811C6.06358 9.8534 7.16227 10.6006 8.20758 11.4182C10.1213 12.9088 11.8432 14.6311 13.3338 16.5449C14.1491 17.5884 14.8962 18.6835 15.5709 19.823L17.38 18.0134L17.711 13.7531" stroke="black" stroke-width="1.5" stroke-linecap="round" stroke-linejoin="round"/>
<path d="M7.93493 11.943C8.84251 9.97662 10.0247 8.14904 11.4463 6.51519C11.4463 6.51519 16.2032 1.44818 21.2613 3.48115C23.304 8.42255 18.2363 13.2957 18.2363 13.2957C16.599 14.7201 14.768 15.9057 12.7985 16.8171C12.1637 17.1477 11.4907 17.3988 10.7947 17.5656L7.17642 13.9474C7.38374 13.263 7.63702 12.593 7.93493 11.943V11.943Z" stroke="black" stroke-width="1.5" stroke-linecap="round" stroke-linejoin="round"/>
<path d="M14.9972 11.1359C15.7385 11.1359 16.3395 10.5349 16.3395 9.79352C16.3395 9.05216 15.7385 8.45117 14.9972 8.45117C14.2558 8.45117 13.6549 9.05216 13.6549 9.79352C13.6549 10.5349 14.2558 11.1359 14.9972 11.1359Z" stroke="black" stroke-width="1.5" stroke-linecap="round" stroke-linejoin="round"/>
<path opacity="0.4" d="M15.4654 4.03516L20.7181 9.28782" stroke="black" stroke-width="1.5" stroke-linecap="round" stroke-linejoin="round"/>
<path opacity="0.4" d="M6.90471 17.8574L5.85416 18.8982" stroke="black" stroke-width="1.5" stroke-linecap="round" stroke-linejoin="round"/>
</svg>