<svg width="25" height="24" viewBox="0 0 25 24" fill="none" xmlns="http://www.w3.org/2000/svg">
<path fill-rule="evenodd" clip-rule="evenodd" d="M10.6567 5.99301L10.659 5.9905L10.6725 5.97648C10.6837 5.96479 10.6995 5.94848 10.7198 5.92793C10.7603 5.88683 10.8186 5.82871 10.8937 5.75656C11.0438 5.61237 11.2613 5.41163 11.5375 5.17862C12.0885 4.71392 12.881 4.11406 13.845 3.57883C15.7583 2.51664 18.4636 1.64927 21.2961 2.78501C21.4839 2.86031 21.6333 3.00827 21.7104 3.19532C22.8555 5.97325 21.9821 8.68357 20.923 10.6054C20.3882 11.5759 19.7888 12.3791 19.3245 12.9388C19.0917 13.2194 18.8911 13.4409 18.7472 13.5939C18.6752 13.6704 18.6172 13.7299 18.5762 13.7712C18.5558 13.7918 18.5395 13.8079 18.5279 13.8193L18.514 13.8329L18.5098 13.8371L18.509 13.8378L18.5082 13.8386L18.5062 13.8405L18.5001 13.8463L18.4802 13.8651C18.4635 13.8808 18.4399 13.9028 18.4093 13.9305C18.357 13.978 18.2844 14.0425 18.1912 14.1222L17.8834 18.0707C17.8696 18.2489 17.7925 18.4163 17.666 18.5427L15.8515 20.3573C15.6876 20.5212 15.4571 20.6001 15.2271 20.571C14.9971 20.5419 14.7934 20.408 14.6755 20.2085C14.1176 19.2643 13.5115 18.3558 12.8675 17.4939C12.4758 17.677 12.079 17.857 11.7134 18.0008C11.3569 18.1411 10.9832 18.2661 10.6494 18.3129C10.4163 18.3455 10.1814 18.2668 10.015 18.1004L6.39766 14.482C6.21277 14.2971 6.13756 14.0292 6.19918 13.775C6.34269 13.1832 6.67657 12.3889 6.99517 11.649C6.99776 11.643 7.00042 11.637 7.00315 11.6311C6.1402 10.9858 5.23838 10.3859 4.28756 9.82111C4.08849 9.70287 3.95519 9.49932 3.92639 9.26958C3.89759 9.03984 3.97651 8.80967 4.14024 8.64595L5.95475 6.83144C6.08116 6.70503 6.24856 6.62793 6.4268 6.61404L10.3764 6.3062C10.456 6.21319 10.5204 6.14072 10.5678 6.08854C10.5956 6.05795 10.6176 6.03433 10.6333 6.01763L10.6521 5.99776L10.6567 5.99301ZM9.1638 7.90526L6.81953 8.08798L5.87337 9.03414C6.50218 9.43223 7.11178 9.84787 7.70474 10.284C8.23108 9.32809 8.73042 8.5369 9.1638 7.90526ZM8.22248 12.5942C8.04004 13.0252 7.88317 13.414 7.77364 13.7368L10.7795 16.7434C10.8903 16.7082 11.0184 16.6623 11.1642 16.605C11.3937 16.5147 11.6447 16.4051 11.9111 16.2835C10.7877 14.9374 9.558 13.7079 8.22248 12.5942ZM13.2843 15.591C11.9679 13.9772 10.508 12.5181 8.90609 11.2139C9.59383 9.94198 10.2345 8.96965 10.732 8.2841C11.046 7.85134 11.303 7.53286 11.4786 7.32546C11.5664 7.22176 11.6339 7.14584 11.678 7.09731C11.7 7.07304 11.7162 7.05561 11.7262 7.04499L11.7365 7.03414L11.7452 7.02501L11.7536 7.01629C11.7606 7.00895 11.7721 6.99709 11.7879 6.98108C11.8195 6.94904 11.8682 6.90044 11.933 6.83818C12.0627 6.71358 12.2561 6.53486 12.5047 6.32519C13.0033 5.90457 13.7157 5.36628 14.5731 4.89027C14.6672 4.83804 14.7627 4.78673 14.8595 4.73654L19.747 9.62407C19.702 9.71089 19.656 9.79672 19.6093 9.8815C19.132 10.7476 18.5921 11.4723 18.17 11.9811C17.9596 12.2348 17.7802 12.4328 17.655 12.5658C17.5924 12.6322 17.5435 12.6823 17.5112 12.7148C17.4951 12.7311 17.4831 12.743 17.4757 12.7503L17.468 12.7579L17.467 12.7588L17.4659 12.7598L17.465 12.7607L17.4535 12.7717C17.4428 12.7816 17.4254 12.7979 17.4011 12.8199C17.3525 12.864 17.2766 12.9314 17.1728 13.0192C16.9653 13.1948 16.6467 13.4516 16.2138 13.7656C15.5282 14.2628 14.5559 14.9034 13.2843 15.591ZM14.2145 16.7922C14.6492 17.3836 15.0668 17.995 15.4642 18.6233L16.4095 17.678L16.5922 15.334C15.9607 15.7671 15.1698 16.2661 14.2145 16.7922ZM20.3787 8.13441C20.7952 6.85872 20.922 5.45981 20.4371 4.06582C19.0178 3.58261 17.6179 3.70278 16.3528 4.10854L20.3787 8.13441ZM13.2659 8.30962C14.0832 7.49231 15.4094 7.49231 16.2267 8.30962C17.0445 9.12745 17.0454 10.4537 16.2267 11.2714C15.4094 12.0887 14.0832 12.0887 13.2659 11.2714C12.4472 10.4537 12.4481 9.12745 13.2659 8.30962ZM15.166 9.37028C14.9345 9.13876 14.5581 9.13876 14.3266 9.37028C14.0938 9.60304 14.0945 9.97909 14.3261 10.2102C14.5576 10.4417 14.9345 10.4422 15.166 10.2107C15.3976 9.97958 15.3988 9.60304 15.166 9.37028ZM4.40322 15.0982C4.73969 14.8644 5.20257 14.944 5.44135 15.2784C5.68205 15.6155 5.6039 16.0839 5.2668 16.3246L4.83098 15.7142C5.2668 16.3246 5.26703 16.3244 5.2668 16.3246L5.26588 16.3253L5.26491 16.3259L5.26281 16.3274L5.25796 16.3308L5.24574 16.3392C5.23648 16.3455 5.22497 16.3531 5.21128 16.3619C5.18392 16.3795 5.14771 16.4016 5.10318 16.4267C5.01438 16.4768 4.8909 16.5392 4.73725 16.5992C4.43106 16.7189 3.99344 16.8333 3.46799 16.8109C3.05415 16.7932 2.73301 16.4434 2.7507 16.0295C2.76838 15.6157 3.1182 15.2946 3.53203 15.3122C3.80341 15.3238 4.03128 15.2646 4.19136 15.2021C4.27085 15.171 4.33071 15.1403 4.36696 15.1198C4.38495 15.1097 4.39669 15.1024 4.40166 15.0992C4.40229 15.0988 4.40281 15.0984 4.40322 15.0982ZM7.175 17.3225C7.46789 17.6154 7.46789 18.0903 7.175 18.3832L6.13202 19.4262C5.83913 19.7191 5.36425 19.7191 5.07136 19.4262C4.77847 19.1333 4.77847 18.6584 5.07136 18.3655L6.11434 17.3225C6.40723 17.0296 6.8821 17.0296 7.175 17.3225ZM8.78263 19.6676C8.17225 19.2318 8.17209 19.232 8.17193 19.2322L8.17091 19.2337L8.16942 19.2358L8.16603 19.2406L8.15763 19.2528C8.15135 19.2621 8.14371 19.2736 8.13493 19.2873C8.11739 19.3147 8.0952 19.3509 8.07012 19.3954C8.02009 19.4842 7.95765 19.6077 7.89762 19.7613C7.77798 20.0675 7.66352 20.5051 7.68598 21.0306C7.70366 21.4444 8.05348 21.7656 8.46731 21.7479C8.88115 21.7302 9.20229 21.3804 9.18461 20.9666C9.17301 20.6952 9.23221 20.4673 9.29476 20.3072C9.32582 20.2277 9.35659 20.1679 9.37701 20.1316C9.38715 20.1136 9.39449 20.1019 9.39768 20.0969C9.39808 20.0963 9.39842 20.0958 9.39868 20.0954C9.63244 19.7589 9.55287 19.296 9.21845 19.0572C8.88135 18.8165 8.41263 18.8951 8.17193 19.2322L8.78263 19.6676ZM9.39362 20.1026C9.39333 20.103 9.39391 20.1022 9.39362 20.1026V20.1026ZM9.39868 20.0954C9.39912 20.0947 9.39915 20.0947 9.39868 20.0954V20.0954Z" fill="black"/>
</svg>