<svg width="25" height="24" viewBox="0 0 25 24" fill="none" xmlns="http://www.w3.org/2000/svg">
<path fill-rule="evenodd" clip-rule="evenodd" d="M10.6056 9.70668C9.8986 9.9351 9.53167 10.7471 9.81463 11.6326C10.0439 12.3442 10.6871 13.04 11.3717 13.5964C11.7011 13.8641 12.0149 14.0794 12.2462 14.2276C12.2471 14.2282 12.248 14.2288 12.2489 14.2293C12.251 14.228 12.2531 14.2266 12.2552 14.2253C12.4884 14.0752 12.8044 13.8577 13.1355 13.5884C13.8254 13.0272 14.4654 12.333 14.6847 11.6365L14.6858 11.6332C14.9682 10.7504 14.6005 9.93679 13.8932 9.70711C13.4852 9.58004 13.0405 9.65543 12.6972 9.9106C12.4305 10.1088 12.0653 10.1079 11.7996 9.90852C11.4586 9.65259 11.0138 9.57724 10.6056 9.70668ZM12.2498 15.1053C11.891 15.764 11.8909 15.7639 11.8907 15.7638L11.8894 15.7631L11.8868 15.7616L11.8788 15.7573L11.8523 15.7424C11.83 15.7298 11.7986 15.7119 11.7594 15.6888C11.6809 15.6428 11.5704 15.5761 11.4369 15.4906C11.1709 15.3201 10.8091 15.072 10.4257 14.7604C9.68501 14.1585 8.75374 13.2326 8.38654 12.0914L8.38615 12.0902C7.92925 10.6619 8.42657 8.83241 10.1472 8.27847L10.1496 8.27768C10.8498 8.05488 11.6029 8.11491 12.2514 8.43358C12.898 8.11833 13.6471 8.05776 14.3451 8.27679L14.3505 8.2785C16.0673 8.83169 16.5717 10.6582 16.115 12.0885C15.7574 13.2225 14.8227 14.1496 14.082 14.7521C13.6975 15.0648 13.3341 15.3148 13.0667 15.4868C12.9326 15.5731 12.8215 15.6404 12.7427 15.687C12.7032 15.7103 12.6717 15.7284 12.6494 15.7411L12.6227 15.7561L12.6148 15.7605L12.6122 15.7619L12.6113 15.7625C12.6111 15.7626 12.6106 15.7628 12.2498 15.1053ZM12.2498 15.1053L12.6113 15.7625C12.3873 15.8854 12.1151 15.886 11.8907 15.7638L12.2498 15.1053Z" fill="black"/>
<path d="M16.8441 20.0455H7.65007C6.89012 20.0963 6.12679 20.0435 5.38107 19.8885C4.73278 19.703 4.14239 19.3555 3.66548 18.8788C3.18858 18.402 2.84086 17.8118 2.65508 17.1635C2.50104 16.4177 2.44856 15.6544 2.49907 14.8945C2.49238 14.7064 2.50142 14.5181 2.52608 14.3315C2.54382 14.1624 2.59763 13.9989 2.68388 13.8523C2.77014 13.7057 2.88682 13.5792 3.02608 13.4815C3.28843 13.3001 3.56385 13.1383 3.85008 12.9975C4.03419 12.8998 4.18807 12.7537 4.29509 12.5748C4.40211 12.3959 4.45819 12.1912 4.45726 11.9828C4.45633 11.7744 4.39843 11.5702 4.28983 11.3923C4.18122 11.2144 4.02605 11.0696 3.84108 10.9735C3.56722 10.8456 3.30375 10.6965 3.05307 10.5275C2.90962 10.4295 2.78876 10.302 2.69856 10.1535C2.60837 10.0051 2.55092 9.83902 2.53008 9.66654C2.50603 9.48961 2.49667 9.31101 2.50208 9.13254C2.44956 8.36239 2.5017 7.58868 2.65707 6.83254C2.84253 6.18436 3.18988 5.59404 3.66643 5.11715C4.14297 4.64026 4.73304 4.29247 5.38107 4.10654C6.12834 3.95052 6.89342 3.89736 7.65508 3.94854H16.8421C17.6054 3.89738 18.3721 3.95053 19.1211 4.10654C19.7673 4.29274 20.3557 4.63985 20.8312 5.11538C21.3068 5.59092 21.6539 6.17932 21.8401 6.82554C21.9961 7.57449 22.0493 8.34122 21.9981 9.10454C22.007 9.2947 21.9973 9.48527 21.9691 9.67354C21.9484 9.84452 21.8915 10.0091 21.8021 10.1564C21.7128 10.3036 21.5931 10.4302 21.4511 10.5275C21.2105 10.6915 20.9566 10.835 20.6921 10.9565C20.496 11.0506 20.3306 11.1984 20.215 11.3826C20.0995 11.5668 20.0385 11.7801 20.0391 11.9975C20.0373 12.2084 20.0941 12.4157 20.2032 12.5961C20.3124 12.7766 20.4695 12.9232 20.6571 13.0195C20.9341 13.1473 21.2 13.2978 21.4521 13.4695C21.5948 13.5673 21.7151 13.6944 21.8048 13.8424C21.8945 13.9903 21.9515 14.1557 21.9721 14.3275C21.9963 14.5145 22.0054 14.7031 21.9991 14.8915C22.0511 15.6545 21.9979 16.421 21.8411 17.1695C21.6554 17.8161 21.3084 18.4049 20.8328 18.8807C20.3572 19.3564 19.7686 19.7036 19.1221 19.8895C18.3734 20.0449 17.607 20.0974 16.8441 20.0455ZM4.00607 14.6295C3.99907 14.7105 4.00008 14.7875 4.00008 14.8945C3.96166 15.514 3.99523 16.1358 4.10008 16.7475C4.21571 17.152 4.43247 17.5203 4.72991 17.8177C5.02734 18.1152 5.39565 18.3319 5.80008 18.4475C6.41147 18.5524 7.03295 18.586 7.65207 18.5475H16.8451C17.4669 18.5867 18.0911 18.5532 18.7051 18.4475C19.1095 18.3319 19.4778 18.1152 19.7753 17.8177C20.0727 17.5203 20.2894 17.152 20.4051 16.7475C20.5095 16.1334 20.543 15.5093 20.5051 14.8875C20.5051 14.7725 20.5051 14.6935 20.5051 14.6355C20.3901 14.5645 20.2211 14.4775 19.9651 14.3425C19.5366 14.1181 19.1778 13.7807 18.9274 13.3669C18.677 12.9531 18.5446 12.4787 18.5446 11.995C18.5446 11.5114 18.677 11.0369 18.9274 10.6231C19.1778 10.2093 19.5366 9.87194 19.9651 9.64754C20.2411 9.50354 20.4071 9.41754 20.4991 9.36554C20.5061 9.28654 20.5051 9.21054 20.5051 9.10454C20.5442 8.48243 20.5107 7.85787 20.4051 7.24354C20.2894 6.83915 20.0726 6.47088 19.7752 6.17346C19.4777 5.87604 19.1095 5.65925 18.7051 5.54354C18.0907 5.43795 17.4662 5.40439 16.8441 5.44354H7.65707C7.03662 5.40508 6.4138 5.43864 5.80107 5.54354C5.3969 5.65968 5.02887 5.87661 4.73151 6.17397C4.43415 6.47133 4.21722 6.83936 4.10108 7.24354C3.99743 7.85674 3.96389 8.47975 4.00108 9.10054C4.00108 9.21954 4.00108 9.30054 4.00108 9.35054C4.11508 9.42054 4.28308 9.50854 4.53908 9.64354C4.96878 9.86808 5.3285 10.2064 5.57893 10.6216C5.82936 11.0367 5.96087 11.5127 5.95908 11.9975C5.95317 12.4697 5.82297 12.932 5.58159 13.3379C5.34021 13.7438 4.99616 14.0789 4.58408 14.3095C4.29108 14.4705 4.10507 14.5705 4.00607 14.6295Z" fill="black"/>
</svg>