<svg width="25" height="24" viewBox="0 0 25 24" fill="none" xmlns="http://www.w3.org/2000/svg">
<path opacity="0.4" fill-rule="evenodd" clip-rule="evenodd" d="M20.1882 11.9455L12.5534 4.3117C11.2097 2.96902 9.03226 2.96902 7.68958 4.3117L4.8106 7.19067C3.46792 8.53335 3.46792 10.7108 4.81157 12.0545L12.4464 19.6883C13.789 21.031 15.9675 21.031 17.3102 19.6883L20.1882 16.8103C21.5318 15.4666 21.5318 13.2882 20.1882 11.9455Z" stroke="black" stroke-width="1.5" stroke-linecap="round" stroke-linejoin="round"/>
<path d="M9.55373 20.999C8.20813 20.6828 6.85183 19.9395 5.70569 18.7934C4.55955 17.6472 3.81329 16.287 3.5 14.9453L5.21629 16.0983" stroke="black" stroke-width="1.5" stroke-linecap="round" stroke-linejoin="round"/>
<path d="M15.4453 3C16.7909 3.31621 18.1472 4.05955 19.2934 5.20569C20.4395 6.35183 21.1858 7.71203 21.499 9.05373L19.7828 7.90078" stroke="black" stroke-width="1.5" stroke-linecap="round" stroke-linejoin="round"/>
<path d="M16.1447 15.6968V15.6486M16.1448 15.3955C16.0065 15.3955 15.8945 15.5075 15.8945 15.6453C15.8945 15.7835 16.0065 15.8955 16.1448 15.8955C16.283 15.8955 16.395 15.7835 16.395 15.6453C16.395 15.5075 16.283 15.3955 16.1448 15.3955Z" stroke="black" stroke-width="1.5" stroke-linecap="round" stroke-linejoin="round"/>
</svg>