<svg width="24" height="24" viewBox="0 0 24 24" fill="none" xmlns="http://www.w3.org/2000/svg">
<path fill-rule="evenodd" clip-rule="evenodd" d="M11.3206 14.8135L9.18597 12.6789C8.81041 12.3033 8.81041 11.6942 9.18597 11.3187L11.3206 9.18401C11.6962 8.80845 12.3053 8.80845 12.6798 9.18401L14.8155 11.3187C15.191 11.6942 15.191 12.3033 14.8155 12.6789L12.6798 14.8135C12.3053 15.1891 11.6962 15.1891 11.3206 14.8135Z" stroke="black" stroke-width="1.5" stroke-linecap="round" stroke-linejoin="round"/>
<path d="M20.9998 6.32002L18.3845 5.71484L17.7822 8.31555" stroke="black" stroke-width="1.5" stroke-linecap="round" stroke-linejoin="round"/>
<path d="M18.3533 5.87891C21.7061 9.34749 21.6827 14.8768 18.2686 18.3172C16.1301 20.4722 13.1625 21.3031 10.3848 20.805" stroke="black" stroke-width="1.5" stroke-linecap="round" stroke-linejoin="round"/>
<path d="M3.02637 17.9522L5.65918 18.4776L6.18166 15.8594" stroke="black" stroke-width="1.5" stroke-linecap="round" stroke-linejoin="round"/>
<path d="M5.68507 18.3112C2.22913 14.9458 2.08514 9.4184 5.39318 5.87685C7.46557 3.65754 10.4068 2.7381 13.1982 3.15063" stroke="black" stroke-width="1.5" stroke-linecap="round" stroke-linejoin="round"/>
</svg>