<svg width="25" height="24" viewBox="0 0 25 24" fill="none" xmlns="http://www.w3.org/2000/svg">
<path d="M9.11993 13.9643C9.38749 14.2319 9.75818 14.3982 10.1668 14.3982C10.9841 14.3982 11.6467 13.7366 11.6467 12.9193C11.6467 12.1021 10.9841 11.4395 10.1668 11.4395L11.6506 9.60156H9.06836" stroke="black" stroke-width="1.5" stroke-linecap="round" stroke-linejoin="round"/>
<path fill-rule="evenodd" clip-rule="evenodd" d="M15.0107 14.3982H14.2109V9.60156H15.0107C16.3349 9.60156 17.409 10.6747 17.409 11.9999C17.409 13.3241 16.3349 14.3982 15.0107 14.3982Z" stroke="black" stroke-width="1.5" stroke-linecap="round" stroke-linejoin="round"/>
<path d="M3.85938 17.9483L6.49219 18.4737L7.01467 15.8555" stroke="black" stroke-width="1.5" stroke-linecap="round" stroke-linejoin="round"/>
<path d="M21.8347 6.32002L19.2194 5.71484L18.6172 8.31652" stroke="black" stroke-width="1.5" stroke-linecap="round" stroke-linejoin="round"/>
<path d="M6.51905 18.3112C3.06312 14.9458 2.91912 9.4184 6.22717 5.87685C8.29956 3.65754 11.2408 2.7381 14.0322 3.15063" stroke="black" stroke-width="1.5" stroke-linecap="round" stroke-linejoin="round"/>
<path d="M19.1872 5.87891C22.54 9.34651 22.5167 14.8768 19.1026 18.3172C16.964 20.4713 13.9965 21.3022 11.2188 20.805" stroke="black" stroke-width="1.5" stroke-linecap="round" stroke-linejoin="round"/>
</svg>