<svg width="24" height="24" viewBox="0 0 24 24" fill="none" xmlns="http://www.w3.org/2000/svg">
<path d="M14.0072 6.4491L14.0082 17.5886C14.0082 19.3604 12.5721 20.7965 10.8003 20.7965H6.20886C4.43708 20.7965 3.00097 19.3604 3.00097 17.5886L3 6.45007C3 4.67732 4.43611 3.24121 6.20789 3.24121H10.7993C12.5711 3.24121 14.0072 4.67732 14.0072 6.4491Z" stroke="black" stroke-width="1.5" stroke-linecap="round" stroke-linejoin="round"/>
<path d="M17.5557 6.38571L18.9626 7.00452C19.1504 5.28236 18.085 3.71296 16.498 3.20312" stroke="black" stroke-width="1.5" stroke-linecap="round" stroke-linejoin="round"/>
<path d="M14.6348 20.796L17.794 20.795C19.5648 20.795 21.0009 19.3589 21.0009 17.5871V12.911C21.0009 11.1392 19.5648 9.70312 17.793 9.70312L15.9308 9.7041" stroke="black" stroke-width="1.5" stroke-linecap="round" stroke-linejoin="round"/>
<path d="M17.7305 14.123V16.3764" stroke="black" stroke-width="1.5" stroke-linecap="round" stroke-linejoin="round"/>
<path d="M7.41992 6.51172H9.58965" stroke="black" stroke-width="1.5" stroke-linecap="round" stroke-linejoin="round"/>
<path d="M8.50412 17.5474V17.4992M8.50414 17.2461C8.3659 17.2461 8.25391 17.3581 8.25391 17.4959C8.25391 17.6341 8.3659 17.7461 8.50414 17.7461C8.64238 17.7461 8.75437 17.6341 8.75437 17.4959C8.75437 17.3581 8.64238 17.2461 8.50414 17.2461Z" stroke="black" stroke-width="1.5" stroke-linecap="round" stroke-linejoin="round"/>
</svg>