<svg width="25" height="24" viewBox="0 0 25 24" fill="none" xmlns="http://www.w3.org/2000/svg">
<path fill-rule="evenodd" clip-rule="evenodd" d="M12.4819 12.902C12.4819 12.137 12.0949 11.462 11.5079 11.06L12.3209 10.052C12.5019 9.82803 12.5379 9.51903 12.4139 9.25803C12.2889 8.99803 12.0259 8.83203 11.7369 8.83203H9.15393C8.73993 8.83203 8.40393 9.16803 8.40393 9.58203C8.40393 9.99603 8.73993 10.332 9.15393 10.332H10.1689L9.66893 10.951C9.48793 11.175 9.45193 11.484 9.57593 11.745C9.70093 12.006 9.96293 12.172 10.2529 12.172C10.6549 12.172 10.9819 12.5 10.9819 12.902C10.9819 13.304 10.6549 13.631 10.2529 13.631C10.0589 13.631 9.87793 13.554 9.73893 13.415C9.44793 13.121 8.97293 13.117 8.67793 13.409C8.38293 13.7 8.38093 14.175 8.67193 14.469C9.09393 14.896 9.65593 15.131 10.2529 15.131C11.4819 15.131 12.4819 14.131 12.4819 12.902Z" fill="black"/>
<path fill-rule="evenodd" clip-rule="evenodd" d="M16.7446 11.982C16.7446 12.891 16.0056 13.631 15.0966 13.631H15.0466V10.332H15.0966C16.0056 10.332 16.7446 11.072 16.7446 11.982ZM14.2966 8.83203C13.8826 8.83203 13.5466 9.16803 13.5466 9.58203V14.381C13.5466 14.795 13.8826 15.131 14.2966 15.131H15.0966C16.8326 15.131 18.2446 13.718 18.2446 11.982C18.2446 10.245 16.8326 8.83203 15.0966 8.83203H14.2966Z" fill="black"/>
<path fill-rule="evenodd" clip-rule="evenodd" d="M22.3013 7.12572C22.5463 6.97372 22.6823 6.69372 22.6503 6.40672C22.6183 6.11972 22.4253 5.87672 22.1533 5.78072L19.4383 4.82872C19.2133 4.74972 18.9663 4.78172 18.7693 4.91572C18.5723 5.04972 18.4503 5.26872 18.4413 5.50572L18.3283 8.21572C18.3173 8.49372 18.4593 8.75472 18.6993 8.89472C18.8173 8.96272 18.9473 8.99672 19.0773 8.99672C19.2153 8.99672 19.3523 8.95872 19.4743 8.88372L20.1743 8.44872C21.6503 11.4797 21.1433 15.2667 18.6573 17.7717C16.7703 19.6697 14.0723 20.5217 11.4373 20.0437C11.0303 19.9717 10.6403 20.2417 10.5663 20.6487C10.4923 21.0567 10.7643 21.4467 11.1713 21.5207C11.7403 21.6227 12.3133 21.6727 12.8813 21.6727C15.4253 21.6727 17.8943 20.6657 19.7213 18.8297C22.7033 15.8247 23.2873 11.2637 21.4563 7.65072L22.3013 7.12572Z" fill="black"/>
<path fill-rule="evenodd" clip-rule="evenodd" d="M6.96734 15.1078C6.72834 14.9678 6.43034 14.9718 6.19434 15.1188L5.49334 15.5538C4.01634 12.5218 4.52334 8.73278 7.01034 6.22878C8.89534 4.33278 11.5903 3.48278 14.2293 3.95778C14.6373 4.03078 15.0273 3.75878 15.1003 3.35178C15.1733 2.94478 14.9033 2.55378 14.4943 2.48078C11.3773 1.91978 8.18034 2.92478 5.94634 5.17078C2.96434 8.17478 2.38034 12.7368 4.21034 16.3508L3.36534 16.8758C3.12034 17.0278 2.98434 17.3068 3.01634 17.5938C3.04734 17.8798 3.24034 18.1248 3.51334 18.2198L6.22834 19.1728C6.30834 19.2018 6.39234 19.2148 6.47634 19.2148C6.62434 19.2148 6.77134 19.1708 6.89734 19.0868C7.09334 18.9528 7.21534 18.7338 7.22534 18.4968L7.33834 15.7868C7.35034 15.5088 7.20734 15.2478 6.96734 15.1078Z" fill="black"/>
</svg>