<svg width="25" height="24" viewBox="0 0 25 24" fill="none" xmlns="http://www.w3.org/2000/svg">
<path fill-rule="evenodd" clip-rule="evenodd" d="M2.5 6.45007C2.5 4.26325 4.27174 2.49121 6.45789 2.49121H11.0493C13.2353 2.49121 15.0072 4.26307 15.0072 6.44903C15.0072 6.44905 15.0072 6.44901 15.0072 6.44903L15.0082 17.5886C15.0082 19.7746 13.2363 21.5465 11.0503 21.5465H6.45886C4.27289 21.5465 2.50101 19.7747 2.50097 17.5887C2.50097 17.5887 2.50097 17.5887 2.50097 17.5887L2.5 6.45007ZM4 6.45007C4 6.45009 4 6.45005 4 6.45007L4.00097 17.5886C4.00097 18.9461 5.10129 20.0465 6.45886 20.0465H11.0503C12.4079 20.0465 13.5082 18.9462 13.5082 17.5887C13.5082 17.5887 13.5082 17.5887 13.5082 17.5887L13.5072 6.44916C13.5072 5.0916 12.4069 3.99121 11.0493 3.99121H6.45789C5.10049 3.99121 4.00004 5.09141 4 6.45007Z" fill="black"/>
<path fill-rule="evenodd" clip-rule="evenodd" d="M16.0342 2.97392C16.1609 2.57956 16.5833 2.36258 16.9777 2.48927C18.8965 3.10575 20.1856 5.00242 19.9584 7.08602C19.9325 7.32358 19.7949 7.53458 19.588 7.65413C19.3811 7.77368 19.1296 7.78747 18.9108 7.69125L17.5039 7.07244C17.1248 6.90568 16.9526 6.46312 17.1193 6.08396C17.2861 5.7048 17.7287 5.53262 18.1078 5.69939L18.3687 5.81412C18.1066 4.92746 17.419 4.20659 16.5188 3.91738C16.1245 3.79068 15.9075 3.36828 16.0342 2.97392Z" fill="black"/>
<path fill-rule="evenodd" clip-rule="evenodd" d="M18.043 8.95312C20.229 8.95313 22.0009 10.725 22.0009 12.911V17.5871C22.0009 19.7729 20.2293 21.5449 18.0442 21.545C18.0442 21.545 18.0443 21.545 18.0442 21.545L14.885 21.546C14.4708 21.5461 14.1349 21.2104 14.1348 20.7962C14.1346 20.382 14.4703 20.0461 14.8845 20.046L18.0438 20.045C19.4002 20.045 20.5009 18.9448 20.5009 17.5871V12.911C20.5009 11.5536 19.4008 10.4533 18.0434 10.4531L16.1812 10.4541C15.7669 10.4543 15.431 10.1187 15.4308 9.70449C15.4305 9.29028 15.7662 8.95431 16.1804 8.9541L18.043 8.95312Z" fill="black"/>
<path fill-rule="evenodd" clip-rule="evenodd" d="M17.9805 13.373C18.3947 13.373 18.7305 13.7088 18.7305 14.123V16.3764C18.7305 16.7907 18.3947 17.1264 17.9805 17.1264C17.5663 17.1264 17.2305 16.7907 17.2305 16.3764V14.123C17.2305 13.7088 17.5663 13.373 17.9805 13.373Z" fill="black"/>
<path fill-rule="evenodd" clip-rule="evenodd" d="M6.91992 6.51172C6.91992 6.09751 7.25571 5.76172 7.66992 5.76172H9.83965C10.2539 5.76172 10.5896 6.09751 10.5896 6.51172C10.5896 6.92593 10.2539 7.26172 9.83965 7.26172H7.66992C7.25571 7.26172 6.91992 6.92593 6.91992 6.51172Z" fill="black"/>
<path fill-rule="evenodd" clip-rule="evenodd" d="M7.75391 17.4959C7.75391 16.943 8.20261 16.4961 8.75414 16.4961C9.30568 16.4961 9.75437 16.943 9.75437 17.4959C9.75437 18.0483 9.3066 18.4961 8.75414 18.4961C8.20169 18.4961 7.75391 18.0483 7.75391 17.4959Z" fill="black"/>
</svg>