<svg width="24" height="25" viewBox="0 0 24 25" fill="none" xmlns="http://www.w3.org/2000/svg">
<path opacity="0.4" fill-rule="evenodd" clip-rule="evenodd" d="M12 2.5625C6.762 2.5625 2.5 6.8245 2.5 12.0625C2.5 17.3005 6.762 21.5625 12 21.5625C17.238 21.5625 21.5 17.3005 21.5 12.0625C21.5 6.8245 17.238 2.5625 12 2.5625Z" fill="black"/>
<path fill-rule="evenodd" clip-rule="evenodd" d="M13.5799 13.5225H11.5549V13.9225H12.3319C12.7459 13.9225 13.0819 14.2585 13.0819 14.6725C13.0819 15.0865 12.7459 15.4225 12.3319 15.4225H11.5549V16.3125C11.5549 16.7265 11.2189 17.0625 10.8049 17.0625C10.3909 17.0625 10.0549 16.7265 10.0549 16.3125V15.4225H9.8999C9.4859 15.4225 9.1499 15.0865 9.1499 14.6725C9.1499 14.2585 9.4859 13.9225 9.8999 13.9225H10.0549V13.5225H9.8999C9.4859 13.5225 9.1499 13.1865 9.1499 12.7725C9.1499 12.3585 9.4859 12.0225 9.8999 12.0225H10.0549V8.5625C10.0549 8.1485 10.3909 7.8125 10.8049 7.8125H13.5799C15.1559 7.8125 16.4389 9.0955 16.4389 10.6725C16.4389 12.2445 15.1559 13.5225 13.5799 13.5225ZM11.5548 9.3125H13.5798C14.3298 9.3125 14.9388 9.9225 14.9388 10.6725C14.9388 11.4165 14.3298 12.0225 13.5798 12.0225H11.5548V9.3125Z" fill="black"/>
</svg>