<svg width="25" height="25" viewBox="0 0 25 25" fill="none" xmlns="http://www.w3.org/2000/svg">
<path fill-rule="evenodd" clip-rule="evenodd" d="M20.6372 6.04566L18.1472 3.55566C16.8604 2.2698 14.8371 2.17739 13.4336 3.25987C13.2984 3.36412 13.2947 3.56204 13.4154 3.68266C14.0125 4.279 15.6609 5.92543 16.3952 6.65966C16.6882 6.95266 16.6882 7.42666 16.3952 7.71966C16.2482 7.86666 16.0562 7.93966 15.8642 7.93966C15.6732 7.93966 15.4812 7.86666 15.3342 7.71966C14.3554 6.74125 13.2566 5.80108 12.3407 4.75636C12.2244 4.62369 12.0196 4.61429 11.8949 4.73909L10.5542 6.08053C10.4371 6.1977 10.4371 6.38761 10.5543 6.50462C11.0804 7.02957 11.6094 7.55393 12.1352 8.07966C12.4282 8.37266 12.4282 8.84666 12.1352 9.13966C11.9892 9.28666 11.7972 9.35966 11.6052 9.35966C11.4132 9.35966 11.2212 9.28666 11.0742 9.13966C10.5513 8.61646 10.0478 8.02436 9.49411 7.52612C9.37877 7.42234 9.20315 7.43067 9.09343 7.54039L7.74729 8.88653C7.63013 9.00369 7.63015 9.19362 7.74706 9.31103C8.74542 10.3137 9.73065 11.3325 10.7212 12.3437C11.0112 12.6397 11.0062 13.1147 10.7102 13.4047C10.5642 13.5477 10.3752 13.6187 10.1852 13.6187C9.99116 13.6187 9.79616 13.5437 9.65016 13.3937C8.70307 12.4268 7.55673 11.486 6.69422 10.426C6.57899 10.2844 6.36566 10.2692 6.23657 10.3983L4.89445 11.7404C4.76971 11.8651 4.77918 12.0699 4.9111 12.187C5.70382 12.8908 6.42136 13.7249 7.16716 14.4707C7.46016 14.7637 7.46016 15.2377 7.16716 15.5307C7.02016 15.6777 6.82816 15.7507 6.63616 15.7507C6.44516 15.7507 6.25316 15.6777 6.10616 15.5307C5.55596 14.9805 4.34253 13.7664 3.8414 13.265C3.71994 13.1435 3.52053 13.1482 3.41655 13.2849C2.94762 13.9018 2.68616 14.6443 2.68616 15.4327C2.68616 16.3897 3.05916 17.2897 3.73716 17.9657L6.22716 20.4567C6.92616 21.1557 7.84316 21.5047 8.76116 21.5047C9.67916 21.5047 10.5962 21.1557 11.2962 20.4567L20.6372 11.1137C22.0342 9.71766 22.0342 7.44366 20.6372 6.04566Z" fill="black"/>
</svg>