<svg width="25" height="24" viewBox="0 0 25 24" fill="none" xmlns="http://www.w3.org/2000/svg">
<path d="M6.97461 9.17305C8.72299 7.48597 11.5912 7.31863 13.4612 8.87047C14.0878 9.38905 14.6472 9.99616 15.3409 10.4223C16.6281 11.2133 18.2218 11.2931 19.7318 11.2269" stroke="black" stroke-width="1.5" stroke-linecap="round" stroke-linejoin="round"/>
<path d="M13.1387 8.69238C12.0811 10.0127 11.1149 11.2707 11.5956 13.0628C11.975 14.4765 13.377 15.1858 13.5278 16.6919C13.6796 18.2078 12.8672 19.6662 12.263 21.0001" stroke="black" stroke-width="1.5" stroke-linecap="round" stroke-linejoin="round"/>
<path opacity="0.4" d="M9.79468 15.6465C9.09611 16.025 8.43061 16.313 7.6328 16.4132C6.84472 16.5114 6.05663 16.4472 5.26758 16.4696" stroke="black" stroke-width="1.5" stroke-linecap="round" stroke-linejoin="round"/>
<path opacity="0.4" fill-rule="evenodd" clip-rule="evenodd" d="M15.8725 6.98031C16.967 6.98031 17.8621 6.08909 17.8621 4.99064C17.8621 3.89122 16.967 3 15.8725 3C14.7779 3 13.8828 3.89122 13.8828 4.99064C13.8828 6.08909 14.7779 6.98031 15.8725 6.98031Z" stroke="black" stroke-width="1.5" stroke-linecap="round" stroke-linejoin="round"/>
</svg>