<svg width="25" height="24" viewBox="0 0 25 24" fill="none" xmlns="http://www.w3.org/2000/svg">
<path d="M18.7146 11.9941C17.3158 12.0575 15.9267 11.7343 14.6996 11.0601C14.2056 10.7369 13.7426 10.3687 13.3166 9.96005C13.1256 9.78605 12.9336 9.61205 12.7346 9.44705C11.939 8.82881 10.9486 8.51558 9.94222 8.564C8.93587 8.61242 7.98006 9.01929 7.24757 9.71105C7.10448 9.84923 6.91236 9.92491 6.71348 9.92144C6.5146 9.91797 6.32524 9.83564 6.18706 9.69255C6.04889 9.54947 5.97321 9.35735 5.97668 9.15847C5.98015 8.95959 6.06247 8.77023 6.20556 8.63205C7.19961 7.67661 8.50721 7.11529 9.88456 7.05273C11.2619 6.99017 12.615 7.43066 13.6916 8.29205C13.9066 8.47005 14.1156 8.65905 14.3236 8.84805C14.6817 9.19371 15.0702 9.50631 15.4846 9.78205C16.7103 10.3961 18.0892 10.6373 19.4506 10.4761C19.5495 10.4694 19.6488 10.4829 19.7424 10.5158C19.836 10.5486 19.922 10.6001 19.9951 10.6671C20.0682 10.7342 20.1269 10.8153 20.1677 10.9057C20.2086 10.9961 20.2306 11.0939 20.2326 11.1931C20.2412 11.3917 20.1707 11.5856 20.0364 11.7323C19.9022 11.8789 19.7152 11.9662 19.5166 11.9751C19.2606 11.9861 18.9916 11.9941 18.7146 11.9941Z" fill="black"/>
<path d="M12.0147 21.7505C11.8893 21.7502 11.766 21.7186 11.656 21.6585C11.546 21.5984 11.4528 21.5117 11.3849 21.4063C11.317 21.3009 11.2765 21.1802 11.2673 21.0551C11.258 20.9301 11.2801 20.8048 11.3317 20.6905L11.5827 20.1485C12.1872 19.1229 12.5149 17.9578 12.5337 16.7675C12.4141 16.1628 12.1236 15.6051 11.6967 15.1605C11.2129 14.6072 10.8477 13.9605 10.6237 13.2605C10.0337 11.0605 11.2937 9.4895 12.3057 8.2265C12.4301 8.07121 12.6111 7.9717 12.8088 7.94985C13.0066 7.928 13.2049 7.98561 13.3602 8.11C13.5155 8.23438 13.615 8.41536 13.6369 8.61312C13.6587 8.81088 13.6011 9.00921 13.4767 9.1645C12.3577 10.5645 11.7057 11.5055 12.0767 12.8715C12.2537 13.3783 12.5289 13.8453 12.8867 14.2455C13.4944 14.9065 13.8922 15.7331 14.0297 16.6205C14.0526 18.0817 13.678 19.5217 12.9457 20.7865L12.7017 21.3125C12.6417 21.444 12.5449 21.5554 12.423 21.6331C12.3011 21.7108 12.1593 21.7516 12.0147 21.7505Z" fill="black"/>
<path d="M6.25144 17.2178H5.83144C5.56544 17.2178 5.30143 17.2128 5.03743 17.2178C4.83852 17.2236 4.6455 17.15 4.50081 17.0134C4.35613 16.8768 4.27164 16.6883 4.26593 16.4893C4.26023 16.2904 4.33378 16.0974 4.4704 15.9527C4.60702 15.808 4.79552 15.7236 4.99443 15.7178C5.27743 15.7088 5.56143 15.7118 5.84543 15.7178C6.32663 15.7335 6.80834 15.7174 7.28743 15.6698C7.95851 15.5654 8.60343 15.3335 9.18744 14.9868C9.27411 14.94 9.36917 14.9106 9.46718 14.9005C9.5652 14.8903 9.66425 14.8996 9.75869 14.9277C9.85312 14.9559 9.9411 15.0023 10.0176 15.0645C10.0941 15.1266 10.1576 15.2032 10.2044 15.2899C10.2513 15.3765 10.2807 15.4716 10.2908 15.5696C10.301 15.6676 10.2917 15.7667 10.2636 15.8611C10.2354 15.9555 10.189 16.0435 10.1268 16.12C10.0647 16.1965 9.9881 16.26 9.90143 16.3069C9.15423 16.7422 8.33086 17.031 7.47544 17.1579C7.06909 17.2034 6.66029 17.2234 6.25144 17.2178Z" fill="black"/>
<path d="M15.6267 7.73C15.0848 7.73 14.555 7.5693 14.1045 7.26823C13.6539 6.96715 13.3027 6.53922 13.0953 6.03855C12.8879 5.53788 12.8336 4.98696 12.9394 4.45545C13.0451 3.92395 13.306 3.43572 13.6892 3.05253C14.0724 2.66933 14.5607 2.40837 15.0922 2.30265C15.6237 2.19693 16.1746 2.25119 16.6753 2.45857C17.1759 2.66596 17.6039 3.01715 17.9049 3.46774C18.206 3.91833 18.3667 4.44808 18.3667 4.99C18.3659 5.71645 18.077 6.41292 17.5633 6.9266C17.0496 7.44027 16.3532 7.72921 15.6267 7.73ZM15.6267 3.75C15.3815 3.75 15.1417 3.82273 14.9378 3.95898C14.7339 4.09523 14.575 4.28889 14.4811 4.51547C14.3873 4.74205 14.3627 4.99138 14.4105 5.23191C14.4584 5.47245 14.5765 5.6934 14.7499 5.86681C14.9233 6.04023 15.1443 6.15833 15.3848 6.20617C15.6253 6.25402 15.8747 6.22946 16.1012 6.13561C16.3278 6.04176 16.5215 5.88283 16.6577 5.67891C16.794 5.47499 16.8667 5.23525 16.8667 4.99C16.8665 4.66121 16.7357 4.34597 16.5032 4.11348C16.2708 3.88099 15.9555 3.75027 15.6267 3.75Z" fill="black"/>
</svg>