<svg width="25" height="25" viewBox="0 0 25 25" fill="none" xmlns="http://www.w3.org/2000/svg">
<path fill-rule="evenodd" clip-rule="evenodd" d="M12.4983 9.55915C12.4983 8.04165 11.2675 6.81186 9.74948 6.8125L8.24805 6.8125C7.83383 6.8125 7.49805 6.47671 7.49805 6.0625C7.49805 5.64829 7.83383 5.3125 8.24805 5.3125L9.74885 5.3125C9.74895 5.3125 9.74874 5.3125 9.74885 5.3125C12.0949 5.31168 13.9983 7.21254 13.9983 9.55915V9.56159C13.9983 11.8076 12.2562 13.6464 10.0491 13.8003L13.781 17.5322C14.0739 17.8251 14.0739 18.2999 13.781 18.5928C13.4881 18.8857 13.0133 18.8857 12.7204 18.5928L7.71853 13.591C7.50403 13.3765 7.43986 13.0539 7.55595 12.7737C7.67204 12.4934 7.94551 12.3107 8.24886 12.3107H9.75048C9.75058 12.3107 9.75037 12.3107 9.75048 12.3107C11.2683 12.3099 12.4983 11.0795 12.4983 9.56159V9.55915Z" fill="black"/>
<path fill-rule="evenodd" clip-rule="evenodd" d="M7.49805 6.06641C7.49805 5.65219 7.83383 5.31641 8.24805 5.31641H16.2513C16.6655 5.31641 17.0013 5.65219 17.0013 6.06641C17.0013 6.48062 16.6655 6.81641 16.2513 6.81641H8.24805C7.83383 6.81641 7.49805 6.48062 7.49805 6.06641Z" fill="black"/>
<path fill-rule="evenodd" clip-rule="evenodd" d="M7.49805 9.42578C7.49805 9.01157 7.83383 8.67578 8.24805 8.67578H16.2513C16.6655 8.67578 17.0013 9.01157 17.0013 9.42578C17.0013 9.83999 16.6655 10.1758 16.2513 10.1758H8.24805C7.83383 10.1758 7.49805 9.83999 7.49805 9.42578Z" fill="black"/>
</svg>