<svg width="24" height="25" viewBox="0 0 24 25" fill="none" xmlns="http://www.w3.org/2000/svg">
<path fill-rule="evenodd" clip-rule="evenodd" d="M16.0015 8.4325H13.8385C13.7105 7.9435 13.5165 7.4815 13.2435 7.0725H16.0015C16.5535 7.0725 17.0015 6.6245 17.0015 6.0725C17.0015 5.5195 16.5535 5.0725 16.0015 5.0725H9.59754C9.56454 5.0715 9.53354 5.0625 9.50054 5.0625H7.99854C7.44654 5.0625 6.99854 5.5095 6.99854 6.0625L6.99954 6.0675L6.99854 6.0725C6.99854 6.6245 7.44654 7.0725 7.99854 7.0725H9.59754C10.5245 7.1085 11.3175 7.6505 11.7175 8.4325H7.99854C7.44654 8.4325 6.99854 8.8795 6.99854 9.4325C6.99854 9.9855 7.44654 10.4325 7.99854 10.4325H11.8345C11.4795 11.3815 10.5725 12.0625 9.50154 12.0625H7.99954C7.59554 12.0625 7.23054 12.3065 7.07554 12.6795C6.92054 13.0535 7.00654 13.4835 7.29254 13.7695L12.2945 18.7695C12.4895 18.9645 12.7455 19.0625 13.0015 19.0625C13.2575 19.0625 13.5135 18.9645 13.7085 18.7695C14.0995 18.3785 14.0995 17.7455 13.7085 17.3555L10.3365 13.9845C12.1365 13.6455 13.5555 12.2285 13.9095 10.4325H16.0015C16.5535 10.4325 17.0015 9.9855 17.0015 9.4325C17.0015 8.8795 16.5535 8.4325 16.0015 8.4325Z" fill="black"/>
</svg>