<svg width="24" height="25" viewBox="0 0 24 25" fill="none" xmlns="http://www.w3.org/2000/svg">
<path opacity="0.4" fill-rule="evenodd" clip-rule="evenodd" d="M12 2.5625C6.762 2.5625 2.5 6.8235 2.5 12.0625C2.5 17.3005 6.762 21.5625 12 21.5625C17.238 21.5625 21.5 17.3005 21.5 12.0625C21.5 6.8235 17.238 2.5625 12 2.5625Z" fill="black"/>
<path d="M15.3881 11.0031C15.3881 10.5891 15.0521 10.2531 14.6381 10.2531H13.3841C13.3221 10.0491 13.2411 9.85611 13.1381 9.67311H14.6381C15.0521 9.67311 15.3881 9.33711 15.3881 8.92311C15.3881 8.50911 15.0521 8.17311 14.6381 8.17311H10.7011C10.6651 8.17211 10.6311 8.16211 10.5951 8.16211H9.66211C9.24811 8.16211 8.91211 8.49811 8.91211 8.91211L8.91311 8.91811C8.91311 8.91811 8.91211 8.92111 8.91211 8.92311C8.91211 9.33711 9.24811 9.67311 9.66211 9.67311H10.7011C11.1291 9.70511 11.5041 9.92411 11.7441 10.2531H9.66211C9.24811 10.2531 8.91211 10.5891 8.91211 11.0031C8.91211 11.4171 9.24811 11.7531 9.66211 11.7531H11.8501C11.6101 12.2031 11.1411 12.5131 10.5961 12.5131H9.66311C9.36011 12.5131 9.08611 12.6951 8.97011 12.9761C8.85411 13.2561 8.91811 13.5781 9.13311 13.7931L12.2421 16.9031C12.3891 17.0501 12.5811 17.1231 12.7731 17.1231C12.9651 17.1231 13.1571 17.0501 13.3031 16.9031C13.5961 16.6101 13.5961 16.1361 13.3031 15.8431L11.3701 13.9091C12.3981 13.6271 13.1931 12.7951 13.4361 11.7531H14.6381C15.0521 11.7531 15.3881 11.4171 15.3881 11.0031Z" fill="black"/>
</svg>