<svg width="25" height="25" viewBox="0 0 25 25" fill="none" xmlns="http://www.w3.org/2000/svg">
<path d="M15.8462 18.1422H9.12891" stroke="black" stroke-width="1.5" stroke-linecap="round" stroke-linejoin="round"/>
<circle cx="7.17953" cy="18.3169" r="1.95492" stroke="black" stroke-width="1.5" stroke-linecap="round" stroke-linejoin="round"/>
<circle cx="17.8075" cy="18.3169" r="1.95492" stroke="black" stroke-width="1.5" stroke-linecap="round" stroke-linejoin="round"/>
<path d="M5.17075 18.4556H4.41336C3.23535 18.4556 2.25 17.4703 2.25 16.2923V7.66104C2.25 7.08728 2.47809 6.53719 2.8838 6.13148C3.28951 5.72577 3.8396 5.49768 4.41336 5.49768H17.9752C19.3021 5.49768 20.4017 6.56304 20.4017 7.88998V7.88998C20.4017 8.09978 20.2316 8.26986 20.0218 8.26986H18.9496C18.7309 8.26986 18.5536 8.44717 18.5536 8.66589C18.5536 11.2589 19.3959 12.2459 21.1551 13.2398C21.8147 13.6125 22.2498 14.0832 22.2498 14.8408V16.653C22.2498 17.7576 21.3544 18.4345 20.2498 18.4345H19.9397" stroke="black" stroke-width="1.5" stroke-linecap="round" stroke-linejoin="round"/>
<path d="M11.1179 11.7034C11.3941 11.7034 11.6179 11.4795 11.6179 11.2034V8.77014C11.6179 8.494 11.3941 8.27014 11.1179 8.27014H5.25147C4.97532 8.27014 4.75146 8.494 4.75146 8.77014V11.2034C4.75146 11.4795 4.97532 11.7034 5.25146 11.7034H11.1179Z" stroke="black" stroke-width="1.5" stroke-linecap="round" stroke-linejoin="round"/>
<path d="M18.8866 8.27014H14.6929C14.4167 8.27014 14.1929 8.494 14.1929 8.77014V11.2034C14.1929 11.4795 14.4167 11.7034 14.6929 11.7034H19.2829" stroke="black" stroke-width="1.5" stroke-linecap="round" stroke-linejoin="round"/>
</svg>