<svg width="25" height="24" viewBox="0 0 25 24" fill="none" xmlns="http://www.w3.org/2000/svg">
<path d="M16.1913 3V6.22326" stroke="black" stroke-width="1.5" stroke-linecap="round" stroke-linejoin="round"/>
<path d="M8.36653 3V6.22326" stroke="black" stroke-width="1.5" stroke-linecap="round" stroke-linejoin="round"/>
<path fill-rule="evenodd" clip-rule="evenodd" d="M16.765 4.48633L7.80108 4.48722C5.16802 4.48722 3.52441 5.95348 3.52441 8.64856V16.7619C3.52441 19.4996 5.16802 20.9998 7.80108 20.9998L16.7573 20.9989C19.3981 20.9989 21.0339 19.5249 21.0339 16.8289V8.64767C21.0417 5.95259 19.4058 4.48633 16.765 4.48633Z" stroke="black" stroke-width="1.5" stroke-linecap="round" stroke-linejoin="round"/>
<path opacity="0.4" d="M10.4077 17.418C10.8447 16.8662 11.5205 16.5122 12.279 16.5122C13.0375 16.5122 13.7133 16.8662 14.1502 17.418" stroke="black" stroke-width="1.5" stroke-linecap="round" stroke-linejoin="round"/>
<path opacity="0.4" d="M15.2529 13.1377V13.7741" stroke="black" stroke-width="1.5" stroke-linecap="round" stroke-linejoin="round"/>
<path opacity="0.4" d="M9.30566 13.1377V13.7741" stroke="black" stroke-width="1.5" stroke-linecap="round" stroke-linejoin="round"/>
<path opacity="0.4" d="M4.18604 9.66525H20.382" stroke="black" stroke-width="1.5" stroke-linecap="round" stroke-linejoin="round"/>
</svg>