<svg width="25" height="24" viewBox="0 0 25 24" fill="none" xmlns="http://www.w3.org/2000/svg">
<path d="M17.8162 10.2694V9.56589C17.8162 7.02737 16.3635 5.44238 13.7121 5.44238H10.3621C7.75161 5.44238 6.33203 7.02737 6.33203 9.56589V16.8847C6.33203 19.431 7.75161 21.0082 10.3621 21.0004H11.4519" stroke="black" stroke-width="1.5" stroke-linecap="round" stroke-linejoin="round"/>
<path d="M15.0097 5.59397V4.79418C15.0097 3.4933 14.2673 3 12.91 3H11.2024C9.8694 3 9.14258 3.4933 9.14258 4.79418V5.58619" stroke="black" stroke-width="1.5" stroke-linecap="round" stroke-linejoin="round"/>
<path fill-rule="evenodd" clip-rule="evenodd" d="M17.4832 18.6735C19.145 17.2919 18.9971 15.6806 18.4406 14.6016C17.8685 13.4914 16.7544 12.7169 15.5868 12.3404C13.7995 11.7644 12.1337 11.779 11.7834 11.8179C11.6813 12.1545 11.3631 13.7892 11.6034 15.6524C11.7601 16.8686 12.3186 18.1063 13.3052 18.871C14.2646 19.6154 15.8213 20.0552 17.4832 18.6735Z" stroke="black" stroke-width="1.5" stroke-linecap="round" stroke-linejoin="round"/>
<path d="M16.0215 16.9219C16.0215 16.9219 16.8816 19.1004 18.9083 20.373" stroke="black" stroke-width="1.5" stroke-linecap="round" stroke-linejoin="round"/>
</svg>