<svg width="24" height="25" viewBox="0 0 24 25" fill="none" xmlns="http://www.w3.org/2000/svg">
<circle opacity="0.4" cx="12" cy="12.3125" r="9.5" fill="black"/>
<path fill-rule="evenodd" clip-rule="evenodd" d="M5.84 5.11594L7.14003 6.41621C7.43003 6.70621 7.43003 7.18621 7.14003 7.47621C6.99003 7.62621 6.80003 7.69621 6.61003 7.69621C6.42003 7.69621 6.22003 7.62621 6.08003 7.47621L4.78 6.17594L5.84 5.11594Z" fill="black"/>
<path fill-rule="evenodd" clip-rule="evenodd" d="M7.36004 17.726C7.36004 17.916 7.29004 18.106 7.14004 18.256L5.84 19.5559C5.46 19.2359 5.11 18.8859 4.79 18.4959L6.08004 17.196C6.37004 16.906 6.84004 16.906 7.14004 17.196C7.28004 17.346 7.36004 17.536 7.36004 17.726Z" fill="black"/>
<path fill-rule="evenodd" clip-rule="evenodd" d="M5.12 12.3359C5.12 12.7459 4.79 13.0859 4.37 13.0859H2.53C2.51 12.8359 2.5 12.5859 2.5 12.3359C2.5 12.0859 2.51 11.8359 2.53 11.5859H4.37C4.79 11.5859 5.12 11.9159 5.12 12.3359Z" fill="black"/>
<path fill-rule="evenodd" clip-rule="evenodd" d="M19.23 6.17594L17.9199 7.47621C17.7799 7.62621 17.5899 7.69621 17.3899 7.69621C17.1999 7.69621 17.0099 7.62621 16.8599 7.47621C16.7199 7.33621 16.6399 7.13621 16.6399 6.94621C16.6399 6.75621 16.7199 6.56621 16.8599 6.41621L18.16 5.11594C18.54 5.43594 18.9 5.78594 19.23 6.17594Z" fill="black"/>
<path fill-rule="evenodd" clip-rule="evenodd" d="M12.75 2.86594V4.71594C12.75 5.12594 12.41 5.46594 12 5.46594C11.59 5.46594 11.25 5.12594 11.25 4.71594V2.86594C11.5 2.84594 11.75 2.83594 12 2.83594C12.25 2.83594 12.5 2.84594 12.75 2.86594Z" fill="black"/>
<path fill-rule="evenodd" clip-rule="evenodd" d="M21.5 12.3359C21.5 12.5859 21.49 12.8359 21.47 13.0859H19.6299C19.2099 13.0859 18.8799 12.7459 18.8799 12.3359C18.8799 11.9159 19.2099 11.5859 19.6299 11.5859H21.47C21.49 11.8359 21.5 12.0859 21.5 12.3359Z" fill="black"/>
<path fill-rule="evenodd" clip-rule="evenodd" d="M19.22 18.4959C18.89 18.8859 18.54 19.2359 18.16 19.5559L16.8599 18.256C16.7199 18.116 16.6399 17.916 16.6399 17.726C16.6399 17.536 16.7199 17.346 16.8599 17.196C17.1599 16.906 17.6299 16.906 17.9199 17.196L19.22 18.4959Z" fill="black"/>
<path fill-rule="evenodd" clip-rule="evenodd" d="M12.75 19.9658V21.8059C12.5 21.8259 12.25 21.8359 12 21.8359C11.75 21.8359 11.5 21.8259 11.25 21.8059V19.9658C11.25 19.5458 11.59 19.2158 12 19.2158C12.41 19.2158 12.75 19.5458 12.75 19.9658Z" fill="black"/>
<path fill-rule="evenodd" clip-rule="evenodd" d="M11.9999 15.4159C10.3099 15.4159 8.91992 14.0259 8.91992 12.3359C8.91992 10.6359 10.3099 9.25586 11.9999 9.25586C12.5499 9.25586 13.0499 9.41586 13.4899 9.66586L11.6699 11.4859C11.3799 11.7759 11.3799 12.2459 11.6699 12.5459C11.8199 12.6859 12.0099 12.7659 12.1999 12.7659C12.3899 12.7659 12.5899 12.6859 12.7299 12.5459L14.5899 10.6859C14.8999 11.1659 15.0799 11.7259 15.0799 12.3359C15.0799 14.0259 13.6999 15.4159 11.9999 15.4159ZM11.9999 7.75586C9.47992 7.75586 7.41992 9.80586 7.41992 12.3359C7.41992 14.8559 9.47992 16.9159 11.9999 16.9159C14.5299 16.9159 16.5799 14.8559 16.5799 12.3359C16.5799 9.80586 14.5299 7.75586 11.9999 7.75586Z" fill="black"/>
</svg>