<svg width="24" height="25" viewBox="0 0 24 25" fill="none" xmlns="http://www.w3.org/2000/svg">
<path d="M10.0127 7.74414V7.75414" stroke="black" stroke-width="1.5" stroke-linecap="round" stroke-linejoin="round"/>
<path d="M11.6427 21.0088C10.4892 21.0474 9.47174 20.8772 8.82627 20.6822C10.3218 18.228 10.577 15.0955 10.0071 13.3447C9.89855 13.4261 9.28903 13.5355 6.42252 13.8612C3.55602 14.187 2.75795 10.8481 2.71724 9.13799L6.99444 7.31829C6.83738 6.33132 7.22003 4.02473 10.0071 3.8397L12.1457 3.67109C14.5702 3.46258 17.1189 4.6964 18.1833 8.59423C18.325 9.11301 18.4343 9.60179 18.5156 10.062" stroke="black" stroke-width="1.5" stroke-linecap="round" stroke-linejoin="round"/>
<path d="M13.4473 9.09717C13.3323 9.70812 13.2194 10.5151 13.1767 11.3775" stroke="black" stroke-width="1.5" stroke-linecap="round" stroke-linejoin="round"/>
<path d="M18.4719 15.4167C18.4092 14.7104 18.931 14.0868 19.6374 14.0241C20.3439 13.9615 20.9673 14.4834 21.03 15.1897C21.0927 15.8963 20.5709 16.5197 19.8644 16.5824C19.158 16.6451 18.5345 16.1233 18.4719 15.4167Z" stroke="black" stroke-width="1.5" stroke-linecap="round" stroke-linejoin="round"/>
<path d="M18.9722 16.3682L15.0733 21.0142" stroke="black" stroke-width="1.5" stroke-linecap="round" stroke-linejoin="round"/>
<path d="M15.9744 15.4167C16.0371 14.7104 15.5153 14.0868 14.8089 14.0241C14.1024 13.9615 13.479 14.4834 13.4163 15.1897C13.3536 15.8963 13.8754 16.5197 14.5819 16.5824C15.2883 16.6451 15.9117 16.1233 15.9744 15.4167Z" stroke="black" stroke-width="1.5" stroke-linecap="round" stroke-linejoin="round"/>
<path d="M15.4741 16.3682L19.373 21.0142" stroke="black" stroke-width="1.5" stroke-linecap="round" stroke-linejoin="round"/>
</svg>