<svg width="24" height="24" viewBox="0 0 24 24" fill="none" xmlns="http://www.w3.org/2000/svg">
<path opacity="0.4" fill-rule="evenodd" clip-rule="evenodd" d="M19.6042 8.71071L8.70888 19.606C7.51602 20.7988 5.58274 20.7988 4.38988 19.606C3.198 18.4141 3.198 16.4798 4.38988 15.288L15.2852 4.39269C16.478 3.19983 18.4113 3.19983 19.6042 4.39269C20.797 5.58457 20.797 7.51786 19.6042 8.71071Z" fill="black"/>
<path d="M14.833 2.6964C15.0707 2.80505 15.1102 3.11512 14.9254 3.29991L3.29829 14.9267C3.11342 15.1116 2.8032 15.0719 2.69473 14.834C1.86017 13.0038 2.20267 10.7741 3.70127 9.27549L9.27344 3.70331C10.7779 2.19975 13.0045 1.86056 14.833 2.6964Z" fill="black"/>
<path d="M9.16134 21.3036C8.92367 21.195 8.88415 20.8849 9.06893 20.7001L20.6978 9.07135C20.8825 8.88665 21.1924 8.92603 21.3012 9.16351C22.1391 10.9926 21.8005 13.221 20.296 14.7264L14.7237 20.2988C13.224 21.7984 10.9923 22.1403 9.16134 21.3036Z" fill="black"/>
<path fill-rule="evenodd" clip-rule="evenodd" d="M15.5424 7.84036C15.951 7.90832 16.2271 8.29465 16.1592 8.70325C16.158 8.71007 16.1569 8.71697 16.1557 8.72393C16.117 8.95696 16.0654 9.26805 15.9339 9.59692C15.7933 9.94887 15.5732 10.2965 15.2219 10.6478C14.872 10.9977 14.5252 11.2165 14.1739 11.356C13.847 11.4858 13.5373 11.5367 13.3056 11.5748C13.2979 11.576 13.2904 11.5773 13.2829 11.5785C13.0336 11.6195 12.8683 11.6494 12.7018 11.7159C12.5483 11.7772 12.3701 11.8806 12.1551 12.0956C11.9401 12.3106 11.8365 12.4889 11.775 12.6428C11.7081 12.8098 11.678 12.9756 11.6363 13.226C11.6351 13.2328 11.634 13.2397 11.6328 13.2466C11.594 13.4797 11.5422 13.7907 11.4107 14.1195C11.2699 14.4713 11.0498 14.8189 10.6986 15.1702C10.3238 15.545 9.95437 15.7681 9.5823 15.9059C9.27903 16.0182 8.98007 16.0683 8.75937 16.1053C8.72659 16.1108 8.69554 16.116 8.66645 16.121C8.25841 16.1922 7.8699 15.9192 7.7987 15.5111C7.7275 15.1031 8.00057 14.7146 8.40862 14.6434C8.4486 14.6364 8.48632 14.6299 8.52213 14.6238C8.74943 14.5848 8.89984 14.5591 9.06144 14.4992C9.22475 14.4388 9.41141 14.336 9.6379 14.1095C9.85289 13.8945 9.95644 13.7162 10.018 13.5623C10.0848 13.3952 10.115 13.2295 10.1567 12.9791C10.1579 12.9723 10.159 12.9654 10.1602 12.9585C10.199 12.7254 10.2508 12.4144 10.3823 12.0856C10.5231 11.7338 10.7432 11.3862 11.0944 11.0349C11.4457 10.6836 11.7934 10.4635 12.1454 10.3229C12.4754 10.1911 12.7871 10.1399 13.0204 10.1015C13.0268 10.1005 13.033 10.0994 13.0392 10.0984C13.2898 10.0572 13.4545 10.0277 13.6203 9.96188C13.7725 9.90144 13.9487 9.79962 14.1612 9.58715C14.3762 9.3722 14.4796 9.19394 14.5411 9.04018C14.6078 8.87319 14.6378 8.70751 14.6795 8.45714C14.7475 8.04854 15.1338 7.7724 15.5424 7.84036Z" fill="black"/>
</svg>