<svg width="24" height="24" viewBox="0 0 24 24" fill="none" xmlns="http://www.w3.org/2000/svg">
<path opacity="0.4" fill-rule="evenodd" clip-rule="evenodd" d="M17.9978 12.874V18.124C17.9978 20.054 16.4278 21.624 14.4978 21.624H9.2478C7.3178 21.624 5.7478 20.054 5.7478 18.124V12.874C5.7478 11.064 7.1178 9.57402 8.8778 9.39402C8.9978 9.38402 9.1278 9.37402 9.2478 9.37402H14.4978C14.6278 9.37402 14.7478 9.38402 14.8778 9.39402C16.6278 9.58402 17.9978 11.074 17.9978 12.874Z" fill="black"/>
<path fill-rule="evenodd" clip-rule="evenodd" d="M18.0317 4.84498L16.3727 3.18898C15.8547 2.66498 15.1627 2.37598 14.4247 2.37598H9.62769C9.21369 2.37598 8.87769 2.71198 8.87769 3.12598C8.87769 3.53998 9.21369 3.87598 9.62769 3.87598H11.1277V5.75498C9.88769 5.75498 8.87769 6.76498 8.87769 7.99498V9.39498C8.99769 9.38498 9.12769 9.37498 9.24769 9.37498H10.3777V7.99498C10.3777 7.58498 10.7177 7.25498 11.1277 7.25498H11.8697C11.8727 7.25498 11.8747 7.25598 11.8777 7.25598C11.8797 7.25598 11.8827 7.25498 11.8847 7.25498H12.6277C13.0377 7.25498 13.3777 7.59498 13.3777 8.00498V9.37498H14.4977C14.6277 9.37498 14.7477 9.38498 14.8777 9.39498V8.00498C14.8777 6.76498 13.8677 5.75498 12.6277 5.75498V3.87598H14.4247C14.7587 3.87598 15.0707 4.00598 15.3087 4.24698L16.9727 5.90698C17.1187 6.05298 17.3107 6.12598 17.5027 6.12598C17.6947 6.12598 17.8867 6.05298 18.0337 5.90598C18.3257 5.61298 18.3257 5.13798 18.0317 4.84498Z" fill="black"/>
<path fill-rule="evenodd" clip-rule="evenodd" d="M13.7394 14.7457H12.6274V13.6357C12.6274 13.2257 12.2914 12.8857 11.8774 12.8857C11.4634 12.8857 11.1274 13.2257 11.1274 13.6357V14.7457H10.0154C9.60138 14.7457 9.26538 15.0857 9.26538 15.4957C9.26538 15.9157 9.60138 16.2457 10.0154 16.2457H11.1274V17.3657C11.1274 17.7757 11.4634 18.1157 11.8774 18.1157C12.2914 18.1157 12.6274 17.7757 12.6274 17.3657V16.2457H13.7394C14.1534 16.2457 14.4894 15.9157 14.4894 15.4957C14.4894 15.0857 14.1534 14.7457 13.7394 14.7457Z" fill="black"/>
</svg>