<svg width="24" height="24" viewBox="0 0 24 24" fill="none" xmlns="http://www.w3.org/2000/svg">
<path d="M6.375 12.75C6.375 11.0931 7.71815 9.75 9.375 9.75H14.625C16.2819 9.75 17.625 11.0931 17.625 12.75V18C17.625 19.6569 16.2819 21 14.625 21H9.375C7.71815 21 6.375 19.6569 6.375 18V12.75Z" stroke="black" stroke-width="1.5" stroke-linecap="round" stroke-linejoin="round"/>
<path d="M10.1379 15.375L12 15.375M12 15.375L13.8621 15.375M12 15.375V13.5129M12 15.375L12 17.2371" stroke="black" stroke-width="1.5" stroke-linecap="round" stroke-linejoin="round"/>
<path d="M14.25 9.75V7.875C14.25 7.04657 13.5784 6.375 12.75 6.375H11.25C10.4216 6.375 9.75 7.04657 9.75 7.875V9.75" stroke="black" stroke-width="1.5" stroke-linecap="round" stroke-linejoin="round"/>
<path d="M12 6.375V3" stroke="black" stroke-width="1.5" stroke-linecap="round" stroke-linejoin="round"/>
<path d="M9.75 3H14.5466C15.077 3 15.5857 3.21071 15.9608 3.58579L17.625 5.25" stroke="black" stroke-width="1.5" stroke-linecap="round" stroke-linejoin="round"/>
</svg>