<svg width="24" height="24" viewBox="0 0 24 24" fill="none" xmlns="http://www.w3.org/2000/svg">
<path d="M7.78216 3H16.2169C19.165 3 21 5.08119 21 8.02638V15.9736C21 18.9188 19.165 21 16.2159 21H7.78216C4.83405 21 3 18.9188 3 15.9736V8.02638C3 5.08119 4.84281 3 7.78216 3Z" stroke="black" stroke-width="1.5" stroke-linecap="round" stroke-linejoin="round"/>
<path d="M11.5999 13.8452C12.3261 13.6917 12.7554 13.6256 13.5421 13.6256C16.2823 13.6256 15.9171 15.5328 15.5384 16.407M11.5999 13.8452C10.823 12.3397 8.83444 11.608 8.44362 9.92245C8.15556 8.68017 9.06712 7.10875 11.0548 6.64787C13.0424 6.18698 14.3444 6.87218 14.5508 7.75601C14.7571 8.63985 14.2037 9.54682 12.0504 10.0461M11.5999 13.8452C12.2644 15.1327 12.0772 16.5279 10.8821 17.1649C9.38 17.9657 7.2203 17.3127 8.69368 15.4043C9.41495 14.4701 10.4782 14.0822 11.5999 13.8452Z" stroke="black" stroke-width="1.5" stroke-linecap="round" stroke-linejoin="round"/>
</svg>