<svg width="24" height="24" viewBox="0 0 24 24" fill="none" xmlns="http://www.w3.org/2000/svg">
<circle opacity="0.4" cx="12" cy="12" r="9" stroke="black" stroke-width="1.5" stroke-linecap="round" stroke-linejoin="round"/>
<path d="M11.6366 13.6774C12.2969 13.5379 12.6871 13.4778 13.4023 13.4778C15.8933 13.4778 15.5613 15.2116 15.2171 16.0064M11.6366 13.6774C10.9303 12.3089 9.12258 11.6436 8.76728 10.1113C8.50541 8.98198 9.3341 7.55341 11.141 7.13442C12.948 6.71544 14.1316 7.33834 14.3192 8.14183C14.5068 8.94532 14.0037 9.76984 12.0462 10.2237M11.6366 13.6774C12.2407 14.8479 12.0705 16.1162 10.9841 16.6954C9.61854 17.4234 7.65517 16.8297 8.99461 15.0948C9.65031 14.2455 10.6169 13.8929 11.6366 13.6774Z" stroke="black" stroke-width="1.5" stroke-linecap="round" stroke-linejoin="round"/>
</svg>