<svg width="25" height="24" viewBox="0 0 25 24" fill="none" xmlns="http://www.w3.org/2000/svg">
<path fill-rule="evenodd" clip-rule="evenodd" d="M3.9902 3.89737C4.97468 2.84117 6.37669 2.25 8.03216 2.25H16.4669C18.1262 2.25 19.5288 2.84084 20.5129 3.89765C21.4913 4.94841 22 6.39889 22 8.02638V15.9736C22 17.6011 21.4913 19.0516 20.5127 20.1024C19.5285 21.1592 18.1256 21.75 16.4659 21.75H8.03216C6.3728 21.75 4.97038 21.1591 3.98657 20.1023C3.00842 19.0515 2.5 17.601 2.5 15.9736V8.02638C2.5 6.39806 3.01117 4.94771 3.9902 3.89737ZM5.08745 4.92012C4.41024 5.64666 4 6.70951 4 8.02638V15.9736C4 17.2914 4.40861 18.3541 5.08451 19.0802C5.75475 19.8003 6.74341 20.25 8.03216 20.25H16.4659C17.7552 20.25 18.7444 19.8002 19.415 19.0801C20.0912 18.354 20.5 17.2913 20.5 15.9736V8.02638C20.5 6.70868 20.0912 5.64597 19.4151 4.91984C18.7446 4.19975 17.7556 3.75 16.4669 3.75H8.03216C6.74828 3.75 5.75921 4.19943 5.08745 4.92012Z" fill="black"/>
<path fill-rule="evenodd" clip-rule="evenodd" d="M7.36719 17.0244C7.36719 16.6102 7.70297 16.2744 8.11719 16.2744H16.3865C16.8007 16.2744 17.1365 16.6102 17.1365 17.0244C17.1365 17.4386 16.8007 17.7744 16.3865 17.7744H8.11719C7.70297 17.7744 7.36719 17.4386 7.36719 17.0244Z" fill="black"/>
<path fill-rule="evenodd" clip-rule="evenodd" d="M6.64437 8.03357C9.8416 5.19194 14.6598 5.19194 17.8571 8.03357C18.1302 8.27634 18.1886 8.68065 17.9954 8.9908L15.8733 12.3962C15.7564 12.5838 15.5628 12.7102 15.344 12.7418C15.1253 12.7735 14.9038 12.707 14.7386 12.5602C13.32 11.2997 11.1814 11.2997 9.76283 12.5602C9.59763 12.707 9.3761 12.7735 9.15738 12.7418C8.93865 12.7102 8.74501 12.5838 8.62813 12.3962L6.50608 8.9908C6.3128 8.68065 6.37121 8.27634 6.64437 8.03357ZM8.12883 8.75869L9.47031 10.9114C11.1671 9.84929 13.3343 9.84929 15.0311 10.9114L16.3726 8.75869C13.9272 6.95023 10.5742 6.95023 8.12883 8.75869Z" fill="black"/>
<path fill-rule="evenodd" clip-rule="evenodd" d="M14.0873 8.64963C14.461 8.82822 14.6192 9.27597 14.4407 9.64971L13.6749 11.2522C13.4963 11.6259 13.0486 11.7841 12.6749 11.6055C12.3011 11.427 12.1429 10.9792 12.3215 10.6055L13.0872 9.00299C13.2658 8.62925 13.7136 8.47105 14.0873 8.64963Z" fill="black"/>
</svg>