<svg width="24" height="24" viewBox="0 0 24 24" fill="none" xmlns="http://www.w3.org/2000/svg">
<path fill-rule="evenodd" clip-rule="evenodd" d="M11.25 9.61043C11.25 9.19643 11.586 8.86043 12 8.86043C12.414 8.86043 12.75 9.19643 12.75 9.61043V10.7794C12.75 10.8347 12.7947 10.8794 12.85 10.8794H15.6337C15.8215 10.8794 15.9637 10.7085 15.9128 10.5277C15.432 8.82031 13.8595 7.56543 12.001 7.56543C10.1424 7.56543 8.56993 8.82031 8.08915 10.5277C8.03825 10.7085 8.18044 10.8794 8.3682 10.8794H11.15C11.2052 10.8794 11.25 10.8347 11.25 10.7794V9.61043Z" fill="black"/>
<path fill-rule="evenodd" clip-rule="evenodd" d="M12.0009 6.06548C15.0679 6.06548 17.5639 8.56148 17.5639 11.6295C17.5639 12.0435 17.2289 12.3795 16.8139 12.3795H7.18794C6.77294 12.3795 6.43794 12.0435 6.43794 11.6295C6.43794 8.56148 8.93394 6.06548 12.0009 6.06548ZM3.38237 15.8869C3.39876 16.0393 3.52713 16.1525 3.68039 16.1525H20.3031C20.4561 16.1525 20.5843 16.0397 20.601 15.8875C20.7232 14.7747 21.2002 10.4281 21.4549 8.09448C21.6379 6.53448 21.2659 5.18148 20.3779 4.18348C19.4249 3.11148 17.9359 2.52148 16.1859 2.52148H7.81494C6.06394 2.52148 4.57494 3.11148 3.62194 4.18448C2.73394 5.18148 2.36194 6.53448 2.54494 8.08948C2.79427 10.42 3.26242 14.772 3.38237 15.8869Z" fill="black"/>
<path fill-rule="evenodd" clip-rule="evenodd" d="M4.05209 17.6523C3.85888 17.6523 3.71583 17.833 3.76697 18.0193C4.37496 20.2342 5.6354 21.4783 8.66207 21.4783H15.3381C18.5475 21.4783 19.7052 19.9903 20.2319 18.0165C20.2815 17.8308 20.1385 17.6523 19.9463 17.6523H4.05209Z" fill="black"/>
</svg>