<svg width="25" height="24" viewBox="0 0 25 24" fill="none" xmlns="http://www.w3.org/2000/svg">
<path fill-rule="evenodd" clip-rule="evenodd" d="M3.9902 3.89737C4.97468 2.84117 6.37669 2.25 8.03216 2.25H16.4669C18.1262 2.25 19.5288 2.84084 20.5129 3.89765C21.4913 4.94841 22 6.39889 22 8.02638V15.9736C22 17.6011 21.4913 19.0516 20.5127 20.1024C19.5285 21.1592 18.1256 21.75 16.4659 21.75H8.03216C6.3728 21.75 4.97038 21.1591 3.98657 20.1023C3.00842 19.0515 2.5 17.601 2.5 15.9736V8.02638C2.5 6.39806 3.01117 4.94771 3.9902 3.89737ZM5.08745 4.92012C4.41024 5.64666 4 6.70951 4 8.02638V15.9736C4 17.2914 4.40861 18.3541 5.08451 19.0802C5.75475 19.8003 6.74341 20.25 8.03216 20.25H16.4659C17.7552 20.25 18.7444 19.8002 19.415 19.0801C20.0912 18.354 20.5 17.2913 20.5 15.9736V8.02638C20.5 6.70868 20.0912 5.64597 19.4151 4.91984C18.7446 4.19975 17.7556 3.75 16.4669 3.75H8.03216C6.74828 3.75 5.75921 4.19943 5.08745 4.92012Z" fill="black"/>
<path fill-rule="evenodd" clip-rule="evenodd" d="M6.64437 8.55505C9.8416 5.71342 14.6598 5.71342 17.8571 8.55505C18.1302 8.79782 18.1886 9.20213 17.9954 9.51229L15.8733 12.9177C15.7564 13.1053 15.5628 13.2317 15.344 13.2633C15.1253 13.2949 14.9038 13.2285 14.7386 13.0817C13.32 11.8212 11.1814 11.8212 9.76283 13.0817C9.59763 13.2285 9.3761 13.2949 9.15738 13.2633C8.93865 13.2317 8.74501 13.1053 8.62813 12.9177L6.50608 9.51229C6.3128 9.20213 6.37121 8.79782 6.64437 8.55505ZM8.12883 9.28017L9.47031 11.4329C11.1671 10.3708 13.3343 10.3708 15.0311 11.4329L16.3726 9.28017C13.9272 7.47171 10.5742 7.47171 8.12883 9.28017Z" fill="black"/>
<path fill-rule="evenodd" clip-rule="evenodd" d="M12.25 9.09668C12.6642 9.09668 13 9.43247 13 9.84668V11.3859C13 11.8001 12.6642 12.1359 12.25 12.1359C11.8358 12.1359 11.5 11.8001 11.5 11.3859V9.84668C11.5 9.43247 11.8358 9.09668 12.25 9.09668Z" fill="black"/>
<path fill-rule="evenodd" clip-rule="evenodd" d="M12.25 16.4482C12.6642 16.4482 13 16.784 13 17.1982V20.9996C13 21.4139 12.6642 21.7496 12.25 21.7496C11.8358 21.7496 11.5 21.4139 11.5 20.9996V17.1982C11.5 16.784 11.8358 16.4482 12.25 16.4482Z" fill="black"/>
</svg>