<svg width="25" height="25" viewBox="0 0 25 25" fill="none" xmlns="http://www.w3.org/2000/svg">
<path fill-rule="evenodd" clip-rule="evenodd" d="M21.4355 12.877C21.8498 12.877 22.1855 13.2127 22.1855 13.627V15.8843C22.1855 16.2985 21.8498 16.6343 21.4355 16.6343C21.0213 16.6343 20.6855 16.2985 20.6855 15.8843V13.627C20.6855 13.2127 21.0213 12.877 21.4355 12.877Z" fill="black"/>
<path fill-rule="evenodd" clip-rule="evenodd" d="M3.43555 12.877C3.84976 12.877 4.18555 13.2127 4.18555 13.627V15.6897C4.18555 16.1039 3.84976 16.4397 3.43555 16.4397C3.02133 16.4397 2.68555 16.1039 2.68555 15.6897V13.627C2.68555 13.2127 3.02133 12.877 3.43555 12.877Z" fill="black"/>
<path fill-rule="evenodd" clip-rule="evenodd" d="M21.4355 7.89453C21.8498 7.89453 22.1855 8.23032 22.1855 8.64453V10.7072C22.1855 11.1214 21.8498 11.4572 21.4355 11.4572C21.0213 11.4572 20.6855 11.1214 20.6855 10.7072V8.64453C20.6855 8.23032 21.0213 7.89453 21.4355 7.89453Z" fill="black"/>
<path fill-rule="evenodd" clip-rule="evenodd" d="M3.43555 7.71094C3.84976 7.71094 4.18555 8.04672 4.18555 8.46094V10.7085C4.18555 11.1227 3.84976 11.4585 3.43555 11.4585C3.02133 11.4585 2.68555 11.1227 2.68555 10.7085V8.46094C2.68555 8.04672 3.02133 7.71094 3.43555 7.71094Z" fill="black"/>
<path fill-rule="evenodd" clip-rule="evenodd" d="M7.96875 21.168C7.96875 20.7538 8.30454 20.418 8.71875 20.418H10.976C11.3903 20.418 11.726 20.7538 11.726 21.168C11.726 21.5822 11.3903 21.918 10.976 21.918H8.71875C8.30454 21.918 7.96875 21.5822 7.96875 21.168Z" fill="black"/>
<path fill-rule="evenodd" clip-rule="evenodd" d="M8.15234 3.16797C8.15234 2.75376 8.48813 2.41797 8.90234 2.41797H10.9748C11.389 2.41797 11.7248 2.75376 11.7248 3.16797C11.7248 3.58218 11.389 3.91797 10.9748 3.91797H8.90234C8.48813 3.91797 8.15234 3.58218 8.15234 3.16797Z" fill="black"/>
<path fill-rule="evenodd" clip-rule="evenodd" d="M13.1455 21.168C13.1455 20.7538 13.4813 20.418 13.8955 20.418H15.9582C16.3724 20.418 16.7082 20.7538 16.7082 21.168C16.7082 21.5822 16.3724 21.918 15.9582 21.918H13.8955C13.4813 21.918 13.1455 21.5822 13.1455 21.168Z" fill="black"/>
<path fill-rule="evenodd" clip-rule="evenodd" d="M13.1445 3.16797C13.1445 2.75376 13.4803 2.41797 13.8945 2.41797H16.1518C16.566 2.41797 16.9018 2.75376 16.9018 3.16797C16.9018 3.58218 16.566 3.91797 16.1518 3.91797H13.8945C13.4803 3.91797 13.1445 3.58218 13.1445 3.16797Z" fill="black"/>
<path fill-rule="evenodd" clip-rule="evenodd" d="M3.6946 18.0509C4.06788 17.8713 4.51603 18.0284 4.69558 18.4016C5.0011 19.0368 5.46889 19.5405 6.06571 19.8703C6.42825 20.0707 6.55973 20.527 6.35938 20.8895C6.15903 21.252 5.70272 21.3835 5.34018 21.1832C4.45808 20.6957 3.77777 19.954 3.34383 19.0518C3.16428 18.6786 3.32132 18.2304 3.6946 18.0509Z" fill="black"/>
<path fill-rule="evenodd" clip-rule="evenodd" d="M21.1243 18.2323C21.488 18.4307 21.6219 18.8863 21.4236 19.2499C20.9465 20.1245 20.2466 20.8274 19.3596 21.2882C18.992 21.4792 18.5392 21.336 18.3483 20.9684C18.1573 20.6008 18.3005 20.1481 18.6681 19.9571C19.2794 19.6395 19.7665 19.1554 20.1068 18.5316C20.3051 18.168 20.7607 18.034 21.1243 18.2323Z" fill="black"/>
<path fill-rule="evenodd" clip-rule="evenodd" d="M6.51115 3.36054C6.70583 3.72616 6.56726 4.18036 6.20164 4.37504C5.58454 4.70363 5.09616 5.19057 4.75622 5.8138C4.55787 6.17744 4.1023 6.31143 3.73866 6.11308C3.37502 5.91474 3.24103 5.45916 3.43938 5.09552C3.91673 4.22037 4.61538 3.52029 5.49665 3.05104C5.86227 2.85636 6.31647 2.99493 6.51115 3.36054Z" fill="black"/>
<path fill-rule="evenodd" clip-rule="evenodd" d="M18.5174 3.42787C18.7235 3.06853 19.1818 2.94424 19.5411 3.15026C20.4058 3.646 21.0814 4.38237 21.5239 5.27864C21.7072 5.65006 21.5548 6.09979 21.1833 6.28315C20.8119 6.46651 20.3622 6.31406 20.1788 5.94264C19.8624 5.30161 19.3899 4.79257 18.7951 4.45156C18.4357 4.24553 18.3114 3.78721 18.5174 3.42787Z" fill="black"/>
</svg>