<svg width="24" height="24" viewBox="0 0 24 24" fill="none" xmlns="http://www.w3.org/2000/svg">
<path fill-rule="evenodd" clip-rule="evenodd" d="M17.746 9.512L15.624 12.917C15.507 13.104 15.313 13.231 15.095 13.262C14.879 13.295 14.654 13.229 14.489 13.081C13.067 11.82 10.929 11.822 9.513 13.081C9.375 13.204 9.197 13.27 9.015 13.27C8.979 13.27 8.943 13.268 8.907 13.262C8.688 13.231 8.495 13.105 8.378 12.917L6.256 9.512C6.062 9.202 6.121 8.798 6.394 8.555C9.59 5.714 14.412 5.714 17.607 8.555C17.881 8.798 17.939 9.202 17.746 9.512ZM16.217 2.5H7.782C4.623 2.5 2.5 4.72 2.5 8.026V15.973C2.5 19.279 4.623 21.5 7.782 21.5H16.216C19.376 21.5 21.5 19.279 21.5 15.973V8.026C21.5 4.72 19.377 2.5 16.217 2.5Z" fill="black"/>
<path fill-rule="evenodd" clip-rule="evenodd" d="M8.10489 9.11975C7.97545 9.2077 7.94263 9.38246 8.02544 9.51524L9.06166 11.1769C9.14948 11.3177 9.33459 11.3597 9.48007 11.2798C10.2623 10.8504 11.1311 10.6361 12.0008 10.6361C12.0988 10.6361 12.1958 10.6511 12.2938 10.6561L12.5198 9.67807C12.6118 9.27407 13.0088 9.02207 13.4188 9.11507C13.8218 9.20907 14.0738 9.61207 13.9808 10.0151L13.7638 10.9541C14.022 11.046 14.2758 11.152 14.5206 11.2821C14.667 11.3599 14.852 11.3179 14.9397 11.1772L15.9761 9.51524C16.0589 9.38246 16.0261 9.2077 15.8967 9.11975C13.5503 7.52551 10.4513 7.52551 8.10489 9.11975Z" fill="black"/>
</svg>