<svg width="24" height="24" viewBox="0 0 24 24" fill="none" xmlns="http://www.w3.org/2000/svg">
<path fill-rule="evenodd" clip-rule="evenodd" d="M8.10489 9.11975C7.97545 9.2077 7.94263 9.38246 8.02544 9.51524L9.06168 11.1769C9.14949 11.3177 9.33457 11.3597 9.48009 11.2799C10.0365 10.9748 10.6372 10.7792 11.2498 10.6911V9.84607C11.2498 9.43207 11.5858 9.09607 11.9998 9.09607C12.4138 9.09607 12.7498 9.43207 12.7498 9.84607V10.6911C13.3634 10.7792 13.9643 10.9749 14.5216 11.2802C14.6671 11.3598 14.852 11.3179 14.9398 11.1771L15.9761 9.51524C16.0589 9.38246 16.0261 9.2077 15.8967 9.11975C13.5503 7.52551 10.4513 7.52551 8.10489 9.11975Z" fill="black"/>
<path fill-rule="evenodd" clip-rule="evenodd" d="M17.746 9.512L15.624 12.917C15.507 13.104 15.313 13.231 15.095 13.262C14.878 13.295 14.655 13.229 14.489 13.081C13.067 11.82 10.929 11.822 9.513 13.081C9.375 13.204 9.197 13.27 9.015 13.27C8.979 13.27 8.943 13.268 8.907 13.262C8.688 13.231 8.495 13.105 8.378 12.917L6.256 9.512C6.062 9.202 6.121 8.798 6.394 8.555C9.59 5.714 14.412 5.714 17.607 8.555C17.881 8.798 17.939 9.202 17.746 9.512ZM16.217 2.5H7.782C4.623 2.5 2.5 4.72 2.5 8.026V15.973C2.5 19.279 4.623 21.5 7.782 21.5H10.95C11.1157 21.5 11.25 21.3657 11.25 21.2V17.198C11.25 16.783 11.586 16.448 12 16.448C12.414 16.448 12.75 16.783 12.75 17.198V21.2C12.75 21.3657 12.8843 21.5 13.05 21.5H16.216C19.376 21.5 21.5 19.279 21.5 15.973V8.026C21.5 4.72 19.377 2.5 16.217 2.5Z" fill="black"/>
</svg>