<svg width="24" height="24" viewBox="0 0 24 24" fill="none" xmlns="http://www.w3.org/2000/svg">
<path opacity="0.4" fill-rule="evenodd" clip-rule="evenodd" d="M3.38237 15.8869C3.39876 16.0393 3.52713 16.1525 3.68039 16.1525H20.3031C20.4561 16.1525 20.5843 16.0397 20.601 15.8875C20.7232 14.7747 21.2002 10.4281 21.4549 8.09448C21.6379 6.53448 21.2659 5.18148 20.3779 4.18348C19.4249 3.11148 17.9359 2.52148 16.1859 2.52148H7.81494C6.06394 2.52148 4.57494 3.11148 3.62194 4.18448C2.73394 5.18148 2.36194 6.53448 2.54494 8.08948C2.79427 10.42 3.26242 14.772 3.38237 15.8869Z" fill="black"/>
<path fill-rule="evenodd" clip-rule="evenodd" d="M4.05217 17.6523C3.85895 17.6523 3.7159 17.833 3.76705 18.0193C4.37504 20.2342 5.63548 21.4783 8.66215 21.4783H15.3381C18.5475 21.4783 19.7053 19.9903 20.232 18.0165C20.2815 17.8308 20.1385 17.6523 19.9464 17.6523H4.05217Z" fill="black"/>
<path fill-rule="evenodd" clip-rule="evenodd" d="M12.001 6.06543C15.068 6.06543 17.564 8.56143 17.564 11.6294C17.564 12.0434 17.229 12.3794 16.814 12.3794H7.18799C6.77299 12.3794 6.43799 12.0434 6.43799 11.6294C6.43799 8.56143 8.93399 6.06543 12.001 6.06543ZM12 8.86038C11.586 8.86038 11.25 9.19638 11.25 9.61038V10.7794C11.25 10.8346 11.2052 10.8794 11.15 10.8794H8.36825C8.18048 10.8794 8.0383 10.7084 8.08919 10.5277C8.56998 8.82025 10.1425 7.56538 12.001 7.56538C13.8596 7.56538 15.432 8.82025 15.9128 10.5277C15.9637 10.7084 15.8215 10.8794 15.6338 10.8794H12.85C12.7948 10.8794 12.75 10.8346 12.75 10.7794V9.61038C12.75 9.19638 12.414 8.86038 12 8.86038Z" fill="black"/>
</svg>