<svg width="25" height="25" viewBox="0 0 25 25" fill="none" xmlns="http://www.w3.org/2000/svg">
<path fill-rule="evenodd" clip-rule="evenodd" d="M18.9326 9.69726C18.9326 7.48926 17.5566 5.92926 15.3466 5.92926H9.0236C6.8196 5.92926 5.4386 7.48926 5.4386 9.69726V15.6553C5.4386 17.8633 6.8136 19.4233 9.0236 19.4233H15.3466C17.5566 19.4233 18.9326 17.8633 18.9326 15.6553V9.69726Z" fill="black"/>
<path fill-rule="evenodd" clip-rule="evenodd" d="M21.1855 13.3857C20.7715 13.3857 20.4355 13.7217 20.4355 14.1357V16.3937C20.4355 16.8077 20.7715 17.1437 21.1855 17.1437C21.5995 17.1437 21.9355 16.8077 21.9355 16.3937V14.1357C21.9355 13.7217 21.5995 13.3857 21.1855 13.3857Z" fill="black"/>
<path fill-rule="evenodd" clip-rule="evenodd" d="M3.93555 16.1987V14.1357C3.93555 13.7217 3.59955 13.3857 3.18555 13.3857C2.77155 13.3857 2.43555 13.7217 2.43555 14.1357V16.1987C2.43555 16.6127 2.77155 16.9487 3.18555 16.9487C3.59955 16.9487 3.93555 16.6127 3.93555 16.1987Z" fill="black"/>
<path fill-rule="evenodd" clip-rule="evenodd" d="M21.1855 8.40375C20.7715 8.40375 20.4355 8.73975 20.4355 9.15375V11.2167C20.4355 11.6307 20.7715 11.9667 21.1855 11.9667C21.5995 11.9667 21.9355 11.6307 21.9355 11.2167V9.15375C21.9355 8.73975 21.5995 8.40375 21.1855 8.40375Z" fill="black"/>
<path fill-rule="evenodd" clip-rule="evenodd" d="M3.18555 11.9677C3.59955 11.9677 3.93555 11.6317 3.93555 11.2177V8.96973C3.93555 8.55573 3.59955 8.21973 3.18555 8.21973C2.77155 8.21973 2.43555 8.55573 2.43555 8.96973V11.2177C2.43555 11.6317 2.77155 11.9677 3.18555 11.9677Z" fill="black"/>
<path fill-rule="evenodd" clip-rule="evenodd" d="M10.7255 20.9268H8.46851C8.05451 20.9268 7.71851 21.2628 7.71851 21.6768C7.71851 22.0908 8.05451 22.4268 8.46851 22.4268H10.7255C11.1395 22.4268 11.4755 22.0908 11.4755 21.6768C11.4755 21.2628 11.1395 20.9268 10.7255 20.9268Z" fill="black"/>
<path fill-rule="evenodd" clip-rule="evenodd" d="M8.65137 4.42676H10.7244C11.1384 4.42676 11.4744 4.09076 11.4744 3.67676C11.4744 3.26276 11.1384 2.92676 10.7244 2.92676H8.65137C8.23737 2.92676 7.90137 3.26276 7.90137 3.67676C7.90137 4.09076 8.23737 4.42676 8.65137 4.42676Z" fill="black"/>
<path fill-rule="evenodd" clip-rule="evenodd" d="M15.7074 20.9268H13.6454C13.2314 20.9268 12.8954 21.2628 12.8954 21.6768C12.8954 22.0908 13.2314 22.4268 13.6454 22.4268H15.7074C16.1214 22.4268 16.4574 22.0908 16.4574 21.6768C16.4574 21.2628 16.1214 20.9268 15.7074 20.9268Z" fill="black"/>
<path fill-rule="evenodd" clip-rule="evenodd" d="M13.6444 4.42676H15.9014C16.3154 4.42676 16.6514 4.09076 16.6514 3.67676C16.6514 3.26276 16.3154 2.92676 15.9014 2.92676H13.6444C13.2304 2.92676 12.8944 3.26276 12.8944 3.67676C12.8944 4.09076 13.2304 4.42676 13.6444 4.42676Z" fill="black"/>
<path fill-rule="evenodd" clip-rule="evenodd" d="M5.81538 20.3793C5.22438 20.0523 4.75038 19.5443 4.44538 18.9103C4.26638 18.5373 3.81638 18.3783 3.44438 18.5593C3.07138 18.7383 2.91438 19.1873 3.09338 19.5603C3.53338 20.4763 4.22438 21.2133 5.08938 21.6913C5.20438 21.7553 5.32938 21.7853 5.45238 21.7853C5.71638 21.7853 5.97238 21.6463 6.10838 21.3983C6.30938 21.0363 6.17838 20.5793 5.81538 20.3793Z" fill="black"/>
<path fill-rule="evenodd" clip-rule="evenodd" d="M20.8739 18.7411C20.5129 18.5421 20.0549 18.6761 19.8559 19.0401C19.5139 19.6671 19.0289 20.1471 18.4169 20.4661C18.0499 20.6571 17.9069 21.1101 18.0989 21.4771C18.2319 21.7341 18.4939 21.8811 18.7639 21.8811C18.8809 21.8811 18.9989 21.8541 19.1099 21.7961C19.9779 21.3451 20.6909 20.6401 21.1729 19.7591C21.3719 19.3951 21.2379 18.9401 20.8739 18.7411Z" fill="black"/>
<path fill-rule="evenodd" clip-rule="evenodd" d="M3.48921 6.62206C3.60321 6.68406 3.72621 6.71306 3.84721 6.71306C4.11321 6.71306 4.37021 6.57206 4.50621 6.32206C4.84621 5.69706 5.33221 5.21306 5.95121 4.88406C6.31721 4.68906 6.45521 4.23506 6.26021 3.86906C6.06521 3.50306 5.61121 3.36506 5.24621 3.55906C4.36321 4.03006 3.67121 4.71806 3.18921 5.60506C2.99021 5.96906 3.12521 6.42406 3.48921 6.62206Z" fill="black"/>
<path fill-rule="evenodd" clip-rule="evenodd" d="M18.5449 4.96033C19.1349 5.29833 19.6139 5.81433 19.9279 6.45133C20.0589 6.71633 20.3249 6.86933 20.6009 6.86933C20.7119 6.86933 20.8259 6.84433 20.9329 6.79233C21.3039 6.60833 21.4569 6.15933 21.2729 5.78733C20.8259 4.88133 20.1409 4.14533 19.2899 3.65833C18.9329 3.45333 18.4729 3.57733 18.2669 3.93733C18.0609 4.29633 18.1859 4.75433 18.5449 4.96033Z" fill="black"/>
</svg>