<svg width="24" height="25" viewBox="0 0 24 25" fill="none" xmlns="http://www.w3.org/2000/svg">
<path fill-rule="evenodd" clip-rule="evenodd" d="M11.7814 6.2487C11.4114 6.2487 11.1114 5.9587 11.1114 5.5887C11.1114 5.2187 11.4014 4.9187 11.7814 4.9187C12.1514 4.9187 12.4414 5.2187 12.4414 5.5887C12.4414 5.9587 12.1514 6.2487 11.7814 6.2487ZM18.9214 19.7287H17.182C17.0369 19.7287 16.9147 19.624 16.873 19.4851C16.5951 18.5574 15.7346 17.8787 14.7214 17.8787H12.8314C12.6657 17.8787 12.5314 17.7444 12.5314 17.5787V7.8173C12.5314 7.6919 12.6103 7.58153 12.7231 7.52675C13.2655 7.26329 13.6816 6.78092 13.8527 6.1929C13.888 6.07184 13.9841 5.97493 14.1085 5.95423L20.3914 4.9087C20.7614 4.8487 21.0214 4.5287 21.0214 4.1787C21.0214 4.1287 21.0214 4.0887 21.0114 4.0487C20.9414 3.6387 20.5514 3.3587 20.1514 3.4287L13.8538 4.47507C13.7317 4.49535 13.6113 4.43749 13.5389 4.33721C13.1436 3.78976 12.5078 3.4187 11.7814 3.4187C10.7932 3.4187 9.97018 4.07917 9.70113 4.98695C9.6656 5.10681 9.56968 5.20219 9.44634 5.22256L3.17138 6.2587C2.76138 6.3287 2.48138 6.7187 2.55138 7.1287C2.61138 7.4887 2.93138 7.7487 3.29138 7.7487C3.33138 7.7487 3.37138 7.7487 3.41138 7.7387L9.70482 6.69302C9.82891 6.6724 9.95106 6.73262 10.0232 6.83565C10.231 7.13223 10.508 7.37167 10.8356 7.52766C10.9503 7.5823 11.0314 7.69363 11.0314 7.82071V17.5787C11.0314 17.7444 10.8971 17.8787 10.7314 17.8787H8.85138C7.82898 17.8787 6.96777 18.5574 6.68974 19.4851C6.64808 19.624 6.52588 19.7287 6.38079 19.7287H4.64138C4.23138 19.7287 3.89138 20.0687 3.89138 20.4787C3.89138 20.8987 4.23138 21.2287 4.64138 21.2287H18.9214C19.3314 21.2287 19.6714 20.8987 19.6714 20.4787C19.6714 20.0687 19.3314 19.7287 18.9214 19.7287Z" fill="black"/>
<path fill-rule="evenodd" clip-rule="evenodd" d="M5.67126 8.3291C5.48126 8.3291 5.30126 8.4391 5.22126 8.6091L3.75207 11.6175C3.65474 11.8167 3.79984 12.0491 4.02164 12.0491H7.32963C7.55173 12.0491 7.69682 11.8162 7.59889 11.6168L6.12126 8.6091C6.03126 8.4391 5.86126 8.3291 5.67126 8.3291Z" fill="black"/>
<path fill-rule="evenodd" clip-rule="evenodd" d="M5.54131 16.3488C6.77131 16.3488 7.96131 15.6988 8.77131 14.5888C8.88131 14.4388 8.90131 14.2388 8.81131 14.0688L8.63423 13.7147C8.58341 13.613 8.47953 13.5488 8.3659 13.5488H2.98995C2.87464 13.5488 2.76954 13.6149 2.71958 13.7188L2.55131 14.0688C2.48131 14.2188 2.48131 14.3788 2.56131 14.5188C3.09131 15.5688 4.11131 16.2488 5.28131 16.3388C5.37131 16.3388 5.45131 16.3488 5.54131 16.3488Z" fill="black"/>
<path fill-rule="evenodd" clip-rule="evenodd" d="M18.3013 6.26953C18.1113 6.26953 17.9413 6.37953 17.8513 6.54953L16.3813 9.56819C16.2843 9.76746 16.4294 9.99953 16.651 9.99953H19.9777C20.2003 9.99953 20.3454 9.76571 20.2465 9.5663L18.7513 6.54953C18.6713 6.37953 18.4913 6.26953 18.3013 6.26953Z" fill="black"/>
<path fill-rule="evenodd" clip-rule="evenodd" d="M21.4514 12.009L21.2837 11.667C21.2334 11.5642 21.1289 11.499 21.0144 11.499H15.6285C15.514 11.499 15.4095 11.5642 15.3591 11.667L15.1914 12.009C15.1214 12.159 15.1214 12.319 15.1914 12.459C15.7314 13.509 16.7414 14.189 17.9114 14.279C18.0014 14.279 18.0914 14.289 18.1814 14.289C19.4114 14.289 20.6014 13.639 21.4014 12.529C21.5114 12.379 21.5314 12.179 21.4514 12.009Z" fill="black"/>
</svg>