<svg width="24" height="24" viewBox="0 0 24 24" fill="none" xmlns="http://www.w3.org/2000/svg">
<path d="M20.9996 8.469V6.892C20.9996 4.742 19.2566 3 17.1066 3H15.8496" stroke="black" stroke-width="1.5" stroke-linecap="round" stroke-linejoin="round"/>
<path d="M3 8.469V6.892C3 4.742 4.743 3 6.893 3H8.182" stroke="black" stroke-width="1.5" stroke-linecap="round" stroke-linejoin="round"/>
<path d="M3 15.5312V17.1083C3 19.2583 4.743 21.0002 6.893 21.0002H8.15" stroke="black" stroke-width="1.5" stroke-linecap="round" stroke-linejoin="round"/>
<path d="M21.0004 15.5312V17.1083C21.0004 19.2583 19.2574 21.0002 17.1074 21.0002H15.8184" stroke="black" stroke-width="1.5" stroke-linecap="round" stroke-linejoin="round"/>
<path fill-rule="evenodd" clip-rule="evenodd" d="M14.7824 7.875H9.21639C7.86939 7.875 7.02539 8.828 7.02539 10.178V13.819C7.02539 15.168 7.86539 16.122 9.21639 16.122H14.7824C16.1334 16.122 16.9734 15.168 16.9734 13.819V10.178C16.9734 8.828 16.1334 7.875 14.7824 7.875Z" stroke="black" stroke-width="1.5" stroke-linecap="round" stroke-linejoin="round"/>
<path d="M7.02539 11.1094H16.9734" stroke="black" stroke-width="1.5" stroke-linecap="round" stroke-linejoin="round"/>
</svg>