<svg width="25" height="24" viewBox="0 0 25 24" fill="none" xmlns="http://www.w3.org/2000/svg">
<g opacity="0.4">
<path fill-rule="evenodd" clip-rule="evenodd" d="M21.8483 14.7802C21.4343 14.7802 21.0983 15.1162 21.0983 15.5302V17.1102C21.0983 18.8422 19.6883 20.2502 17.9553 20.2502H16.6653C16.2513 20.2502 15.9153 20.5862 15.9153 21.0002C15.9153 21.4142 16.2513 21.7502 16.6653 21.7502H17.9553C20.5153 21.7502 22.5983 19.6692 22.5983 17.1102V15.5302C22.5983 15.1162 22.2623 14.7802 21.8483 14.7802Z" fill="black"/>
<path fill-rule="evenodd" clip-rule="evenodd" d="M9.0001 20.2503H7.7421C6.0101 20.2503 4.6001 18.8413 4.6001 17.1103V15.5303C4.6001 15.1163 4.2641 14.7803 3.8501 14.7803C3.4361 14.7803 3.1001 15.1163 3.1001 15.5303V17.1103C3.1001 19.6683 5.1831 21.7503 7.7421 21.7503H9.0001C9.4141 21.7503 9.7501 21.4143 9.7501 21.0003C9.7501 20.5863 9.4141 20.2503 9.0001 20.2503Z" fill="black"/>
<path fill-rule="evenodd" clip-rule="evenodd" d="M3.85022 9.22C4.26422 9.22 4.60022 8.884 4.60022 8.47V6.89C4.60022 5.158 6.01022 3.75 7.74222 3.75H9.03222C9.44622 3.75 9.78222 3.414 9.78222 3C9.78222 2.586 9.44622 2.25 9.03222 2.25H7.74222C5.18322 2.25 3.10022 4.332 3.10022 6.89V8.47C3.10022 8.884 3.43622 9.22 3.85022 9.22Z" fill="black"/>
<path fill-rule="evenodd" clip-rule="evenodd" d="M17.9562 2.25037H16.6992C16.2852 2.25037 15.9492 2.58637 15.9492 3.00037C15.9492 3.41437 16.2852 3.75037 16.6992 3.75037H17.9562C19.6892 3.75037 21.0992 5.15837 21.0992 6.89037V8.47037C21.0992 8.88437 21.4352 9.22037 21.8492 9.22037C22.2632 9.22037 22.5992 8.88437 22.5992 8.47037V6.89037C22.5992 4.33237 20.5162 2.25037 17.9562 2.25037Z" fill="black"/>
</g>
<path fill-rule="evenodd" clip-rule="evenodd" d="M8.03249 10.1417C8.03896 10.0107 8.18145 9.94966 8.29502 10.0153L12.0004 12.1576C12.0622 12.1934 12.1003 12.2594 12.1003 12.3308V16.82C12.1003 16.9615 11.9575 17.0578 11.8286 16.9996C10.8217 16.5455 9.85771 15.8403 8.91027 15.2954C8.37027 14.9754 8.03027 14.3854 8.03027 13.7554V10.2354C8.03027 10.2041 8.03095 10.1728 8.03249 10.1417Z" fill="black"/>
<path fill-rule="evenodd" clip-rule="evenodd" d="M16.4294 8.49203C16.563 8.56887 16.5631 8.76155 16.4296 8.8386L13.0499 10.7898C12.9263 10.8611 12.774 10.8612 12.6503 10.79L9.26185 8.83877C9.12811 8.76176 9.12829 8.56871 9.26217 8.49195L11.9602 6.94508C12.5102 6.62508 13.1902 6.62508 13.7402 6.94508L16.4294 8.49203Z" fill="black"/>
<path fill-rule="evenodd" clip-rule="evenodd" d="M17.6702 10.2353V13.7553C17.6702 14.3853 17.3302 14.9753 16.7802 15.2953C15.8365 15.8398 14.8756 16.546 13.8719 16.9994C13.7429 17.0577 13.6002 16.9613 13.6002 16.8198V12.3209C13.6002 12.2493 13.6384 12.1833 13.7004 12.1476L17.4057 10.0145C17.5192 9.94915 17.6615 10.0102 17.668 10.1411C17.6695 10.1724 17.6702 10.2038 17.6702 10.2353Z" fill="black"/>
</svg>