<svg width="25" height="25" viewBox="0 0 25 25" fill="none" xmlns="http://www.w3.org/2000/svg">
<path fill-rule="evenodd" clip-rule="evenodd" d="M5.94506 11.1146H18.7551C18.3551 7.62463 16.5251 6.33463 12.3551 6.33463C8.18506 6.33463 6.35506 7.62463 5.94506 11.1146Z" fill="black"/>
<path fill-rule="evenodd" clip-rule="evenodd" d="M22.8151 12.6146H1.68506C1.27506 12.6146 0.935059 12.9546 0.935059 13.3646C0.935059 13.7746 1.27506 14.1146 1.68506 14.1146H2.30506C2.34506 14.7546 2.39506 15.3746 2.49506 15.9146V15.9546C3.12506 19.7146 5.09506 21.6646 8.87506 22.2946C8.91506 22.3046 8.96506 22.3046 9.00506 22.3046C9.36506 22.3046 9.67506 22.0446 9.74506 21.6746C9.80506 21.2746 9.53506 20.8846 9.12506 20.8146C5.93506 20.2846 4.49506 18.8346 3.97506 15.6646C3.96506 15.6446 3.96506 15.6346 3.96506 15.6146C3.88506 15.1646 3.84506 14.6546 3.80506 14.1146H5.90506C6.21506 17.9346 8.01506 19.3346 12.3551 19.3346C16.6951 19.3346 18.4951 17.9346 18.8051 14.1146H20.6851C20.6551 14.6646 20.6051 15.1946 20.5251 15.6646V15.7046C19.9951 18.8546 18.5451 20.2846 15.3751 20.8146C14.9651 20.8846 14.6951 21.2746 14.7651 21.6746C14.8251 22.0446 15.1351 22.3046 15.4951 22.3046C15.5451 22.3046 15.5851 22.3046 15.6251 22.2946C19.4251 21.6646 21.3951 19.6946 22.0151 15.9046V15.8646C22.1051 15.3346 22.1551 14.7346 22.1951 14.1146H22.8151C23.2351 14.1146 23.5651 13.7746 23.5651 13.3646C23.5651 12.9546 23.2351 12.6146 22.8151 12.6146Z" fill="black"/>
<path fill-rule="evenodd" clip-rule="evenodd" d="M3.11006 10.0246C3.15106 10.0316 3.19206 10.0346 3.23206 10.0346C3.59306 10.0346 3.91106 9.77361 3.97106 9.40561C4.48606 6.26161 5.97906 4.76961 9.12206 4.25461C9.53106 4.18761 9.80806 3.80261 9.74106 3.39361C9.67506 2.98461 9.28606 2.70861 8.88006 2.77461C5.08306 3.39561 3.11306 5.36661 2.49106 9.16361C2.42406 9.57161 2.70106 9.95761 3.11006 10.0246Z" fill="black"/>
<path fill-rule="evenodd" clip-rule="evenodd" d="M15.3801 4.255C18.5241 4.77 20.0161 6.26201 20.5311 9.405C20.5911 9.774 20.9091 10.034 21.2701 10.034C21.3111 10.034 21.3511 10.031 21.3921 10.025C21.8011 9.957 22.0781 9.571 22.0111 9.163C21.3891 5.366 19.4191 3.396 15.6221 2.775C15.2141 2.707 14.8281 2.984 14.7611 3.394C14.6941 3.803 14.9711 4.188 15.3801 4.255Z" fill="black"/>
</svg>