<svg width="24" height="24" viewBox="0 0 24 24" fill="none" xmlns="http://www.w3.org/2000/svg">
<path d="M20.9995 8.47004V6.89286C20.9995 4.74259 19.257 3 17.1067 3H15.8496" stroke="black" stroke-width="1.5" stroke-linecap="round" stroke-linejoin="round"/>
<path d="M3 8.47004V6.89286C3 4.74259 4.74259 3 6.89286 3H8.18205" stroke="black" stroke-width="1.5" stroke-linecap="round" stroke-linejoin="round"/>
<path d="M3 15.5312V17.1084C3 19.2577 4.74259 21.0003 6.89286 21.0003H8.14994" stroke="black" stroke-width="1.5" stroke-linecap="round" stroke-linejoin="round"/>
<path d="M21.0004 15.5312V17.1084C21.0004 19.2577 19.2578 21.0003 17.1075 21.0003H15.8184" stroke="black" stroke-width="1.5" stroke-linecap="round" stroke-linejoin="round"/>
<path fill-rule="evenodd" clip-rule="evenodd" d="M15.7177 11.999C15.7177 14.0519 14.0529 15.7167 12 15.7167C9.94698 15.7167 8.2832 14.0519 8.2832 11.999C8.2832 9.946 9.94698 8.28125 12 8.28125C14.0529 8.28125 15.7177 9.946 15.7177 11.999Z" stroke="black" stroke-width="1.5" stroke-linecap="round" stroke-linejoin="round"/>
</svg>