<svg width="25" height="25" viewBox="0 0 25 25" fill="none" xmlns="http://www.w3.org/2000/svg">
<path fill-rule="evenodd" clip-rule="evenodd" d="M0.699951 13.8001C0.699951 13.3859 1.03574 13.0501 1.44995 13.0501H22.582C22.9962 13.0501 23.332 13.3859 23.332 13.8001C23.332 14.2143 22.9962 14.5501 22.582 14.5501H1.44995C1.03574 14.5501 0.699951 14.2143 0.699951 13.8001Z" fill="black"/>
<path fill-rule="evenodd" clip-rule="evenodd" d="M9.50622 3.82878C9.57318 4.23754 9.29608 4.62319 8.88732 4.69014C7.24369 4.95936 6.1097 5.48455 5.32017 6.27408C4.53063 7.06362 4.00544 8.19761 3.73622 9.84123C3.66927 10.25 3.28362 10.5271 2.87486 10.4601C2.46609 10.3932 2.189 10.0075 2.25595 9.59878C2.55673 7.7624 3.17654 6.29639 4.25951 5.21342C5.34247 4.13046 6.80848 3.51065 8.64486 3.20987C9.05362 3.14291 9.43927 3.42001 9.50622 3.82878Z" fill="black"/>
<path fill-rule="evenodd" clip-rule="evenodd" d="M2.76819 13.0543C3.1823 13.045 3.52554 13.3732 3.53485 13.7873C3.55375 14.6284 3.61761 15.3842 3.72618 16.0486C3.73005 16.0651 3.73339 16.0819 3.73618 16.0989C4.00534 17.7422 4.53039 18.8736 5.31976 19.6619C6.10957 20.4507 7.24423 20.9761 8.88934 21.2503C9.29791 21.3184 9.57393 21.7048 9.50583 22.1134C9.43774 22.522 9.05132 22.798 8.64274 22.7299C6.80784 22.4241 5.3425 21.8045 4.25981 20.7233C3.1874 19.6523 2.56904 18.2069 2.26492 16.3957C2.26127 16.3801 2.25809 16.3644 2.25541 16.3484C2.12714 15.5851 2.05584 14.7382 2.03523 13.821C2.02592 13.4069 2.35408 13.0636 2.76819 13.0543Z" fill="black"/>
<path fill-rule="evenodd" clip-rule="evenodd" d="M21.2613 13.0542C21.6755 13.0635 22.0036 13.4068 21.9943 13.8209C21.9741 14.7189 21.9044 15.5484 21.7825 16.2975C21.781 16.3121 21.779 16.3268 21.7766 16.3415C21.4752 18.1781 20.855 19.6416 19.7718 20.7232C18.689 21.8044 17.2237 22.424 15.3888 22.7298C14.9802 22.7979 14.5938 22.5219 14.5257 22.1133C14.4576 21.7047 14.7336 21.3183 15.1422 21.2502C16.7873 20.976 17.922 20.4506 18.7119 19.6618C19.4939 18.8809 20.0167 17.7635 20.2886 16.1455C20.2902 16.1306 20.2922 16.1157 20.2947 16.1007C20.4077 15.4228 20.4753 14.6492 20.4947 13.7872C20.504 13.3731 20.8472 13.0449 21.2613 13.0542Z" fill="black"/>
<path fill-rule="evenodd" clip-rule="evenodd" d="M14.526 3.82878C14.5929 3.42001 14.9786 3.14291 15.3873 3.20987C17.2237 3.51065 18.6897 4.13046 19.7727 5.21342C20.8556 6.29639 21.4755 7.7624 21.7762 9.59878C21.8432 10.0075 21.5661 10.3932 21.1573 10.4601C20.7486 10.5271 20.3629 10.25 20.296 9.84123C20.0268 8.19761 19.5016 7.06362 18.712 6.27408C17.9225 5.48455 16.7885 4.95936 15.1449 4.69014C14.7361 4.62319 14.459 4.23754 14.526 3.82878Z" fill="black"/>
</svg>