<svg width="24" height="25" viewBox="0 0 24 25" fill="none" xmlns="http://www.w3.org/2000/svg">
<path d="M3 9.09023V7.51304C3 5.36375 4.74259 3.62115 6.89286 3.62115H8.18205" stroke="black" stroke-width="1.5" stroke-linecap="round" stroke-linejoin="round"/>
<path d="M3 16.1523V17.7295C3 19.8788 4.74259 21.6214 6.89286 21.6214H8.14994" stroke="black" stroke-width="1.5" stroke-linecap="round" stroke-linejoin="round"/>
<path d="M21.0004 16.1523V17.7295C21.0004 19.8788 19.2578 21.6214 17.1075 21.6214H15.8184" stroke="black" stroke-width="1.5" stroke-linecap="round" stroke-linejoin="round"/>
<path d="M9.14616 12.4192L12.8783 8.68639C12.8157 8.40147 12.7729 8.11431 12.7729 7.81061C12.7729 5.54157 14.6123 3.70215 16.8814 3.70215C19.1504 3.70215 20.9899 5.54157 20.9899 7.81061C20.9899 10.0797 19.1504 11.9191 16.8814 11.9191C16.4409 11.9191 16.0149 11.8497 15.6171 11.7214L14.7712 12.5654H13.7887V14.0635H12.266V15.0379C12.266 15.3136 12.0425 15.5371 11.7668 15.5371H9.49916C9.22348 15.5371 9 15.3136 9 15.0379V12.7721C9 12.6398 9.05257 12.5128 9.14616 12.4192Z" stroke="black" stroke-width="1.5" stroke-linecap="round" stroke-linejoin="round"/>
<path d="M18.0248 7.85215C18.1427 7.16675 17.6014 6.57275 16.9315 6.60055" stroke="black" stroke-width="1.5" stroke-linecap="round" stroke-linejoin="round"/>
</svg>