<svg width="24" height="24" viewBox="0 0 24 24" fill="none" xmlns="http://www.w3.org/2000/svg">
<path fill-rule="evenodd" clip-rule="evenodd" d="M15.8495 3.7522H17.1065C18.8395 3.7522 20.2495 5.1612 20.2495 6.8942V8.4712C20.2495 8.8852 20.5855 9.2212 20.9995 9.2212C21.4135 9.2212 21.7495 8.8852 21.7495 8.4712V6.8942C21.7495 4.3342 19.6665 2.2522 17.1065 2.2522H15.8495C15.4355 2.2522 15.0995 2.5882 15.0995 3.0022C15.0995 3.4162 15.4355 3.7522 15.8495 3.7522Z" fill="black"/>
<path fill-rule="evenodd" clip-rule="evenodd" d="M2.99988 9.22095C3.41388 9.22095 3.74988 8.88495 3.74988 8.47095V6.89395C3.74988 5.16095 5.15988 3.75195 6.89288 3.75195H8.18188C8.59588 3.75195 8.93188 3.41595 8.93188 3.00195C8.93188 2.58795 8.59588 2.25195 8.18188 2.25195H6.89288C4.33288 2.25195 2.24988 4.33395 2.24988 6.89395V8.47095C2.24988 8.88495 2.58588 9.22095 2.99988 9.22095Z" fill="black"/>
<path fill-rule="evenodd" clip-rule="evenodd" d="M8.14976 20.2483H6.89276C5.15976 20.2483 3.74976 18.8393 3.74976 17.1063V15.5293C3.74976 15.1153 3.41376 14.7793 2.99976 14.7793C2.58576 14.7793 2.24976 15.1153 2.24976 15.5293V17.1063C2.24976 19.6663 4.33276 21.7483 6.89276 21.7483H8.14976C8.56376 21.7483 8.89976 21.4123 8.89976 20.9983C8.89976 20.5843 8.56376 20.2483 8.14976 20.2483Z" fill="black"/>
<path fill-rule="evenodd" clip-rule="evenodd" d="M21.0004 14.7796C20.5864 14.7796 20.2504 15.1156 20.2504 15.5296V17.1066C20.2504 18.8396 18.8404 20.2486 17.1074 20.2486H15.8184C15.4044 20.2486 15.0684 20.5846 15.0684 20.9986C15.0684 21.4126 15.4044 21.7486 15.8184 21.7486H17.1074C19.6674 21.7486 21.7504 19.6666 21.7504 17.1066V15.5296C21.7504 15.1156 21.4144 14.7796 21.0004 14.7796Z" fill="black"/>
<path fill-rule="evenodd" clip-rule="evenodd" d="M11.9799 12.1703C11.3199 12.1703 10.7899 11.6303 10.7899 10.9703C10.7899 10.3203 11.3199 9.7803 11.9799 9.7803C12.6399 9.7803 13.1799 10.3203 13.1799 10.9703C13.1799 11.6303 12.6399 12.1703 11.9799 12.1703ZM11.9799 6.75031C9.51989 6.75031 7.50989 8.7603 7.50989 11.2203C7.50989 14.2603 11.0099 17.2503 11.9799 17.2503C12.9499 17.2503 16.4499 14.2603 16.4499 11.2203C16.4499 8.7603 14.4499 6.75031 11.9799 6.75031Z" fill="black"/>
</svg>