<svg width="25" height="24" viewBox="0 0 25 24" fill="none" xmlns="http://www.w3.org/2000/svg">
<path fill-rule="evenodd" clip-rule="evenodd" d="M15.3496 3C15.3496 2.58579 15.6854 2.25 16.0996 2.25H17.3567C19.9212 2.25 21.9995 4.32838 21.9995 6.89286V8.47005C21.9995 8.88426 21.6638 9.22005 21.2495 9.22005C20.8353 9.22005 20.4995 8.88426 20.4995 8.47005V6.89286C20.4995 5.15681 19.0927 3.75 17.3567 3.75H16.0996C15.6854 3.75 15.3496 3.41421 15.3496 3Z" fill="black"/>
<path fill-rule="evenodd" clip-rule="evenodd" d="M7.14286 3.75C5.40681 3.75 4 5.15681 4 6.89286V8.47005C4 8.88426 3.66421 9.22005 3.25 9.22005C2.83579 9.22005 2.5 8.88426 2.5 8.47005V6.89286C2.5 4.32838 4.57838 2.25 7.14286 2.25H8.43205C8.84626 2.25 9.18205 2.58579 9.18205 3C9.18205 3.41421 8.84626 3.75 8.43205 3.75H7.14286Z" fill="black"/>
<path fill-rule="evenodd" clip-rule="evenodd" d="M3.25 14.7812C3.66421 14.7812 4 15.117 4 15.5312V17.1084C4 18.8434 5.40668 20.2503 7.14286 20.2503H8.39994C8.81415 20.2503 9.14994 20.5861 9.14994 21.0003C9.14994 21.4145 8.81415 21.7503 8.39994 21.7503H7.14286C4.5785 21.7503 2.5 19.6721 2.5 17.1084V15.5312C2.5 15.117 2.83579 14.7812 3.25 14.7812Z" fill="black"/>
<path fill-rule="evenodd" clip-rule="evenodd" d="M21.2494 14.7812C21.6636 14.7812 21.9994 15.117 21.9994 15.5312V17.1084C21.9994 19.6721 19.9209 21.7503 17.3566 21.7503H16.0674C15.6532 21.7503 15.3174 21.4145 15.3174 21.0003C15.3174 20.5861 15.6532 20.2503 16.0674 20.2503H17.3566C19.0927 20.2503 20.4994 18.8434 20.4994 17.1084V15.5312C20.4994 15.117 20.8352 14.7812 21.2494 14.7812Z" fill="black"/>
<path fill-rule="evenodd" clip-rule="evenodd" d="M10.3966 9.22081C10.3961 9.22144 10.3952 9.22262 10.3941 9.22454L10.3931 9.22615L7.50926 13.908C7.50768 13.9105 7.50683 13.9123 7.50641 13.9132L7.50604 13.9142C7.50619 13.9153 7.50678 13.9182 7.50897 13.9222C7.51117 13.9261 7.51333 13.9281 7.51419 13.9288L7.51534 13.929C7.51642 13.9292 7.51843 13.9294 7.52152 13.9294H16.9778C16.9809 13.9294 16.9829 13.9292 16.984 13.929L16.9854 13.9288C16.9862 13.9281 16.9885 13.9261 16.9908 13.922C16.9927 13.9185 16.9933 13.9159 16.9935 13.9148C16.9933 13.9142 16.9926 13.9126 16.9919 13.9113C16.9915 13.9106 16.991 13.9099 16.9905 13.909L15.275 11.1037C15.275 11.1036 15.275 11.1037 15.275 11.1037C15.2732 11.1007 15.272 11.0995 15.2718 11.0993C15.2709 11.0988 15.2675 11.097 15.2633 11.0966C15.259 11.0963 15.2564 11.0971 15.2559 11.0973C15.2559 11.0974 15.2543 11.0984 15.2521 11.1011L14.6041 11.8601C14.6041 11.8601 14.6041 11.8601 14.6041 11.8601C13.9648 12.6091 12.7908 12.5597 12.2182 11.7558L10.4162 9.22501C10.4137 9.22151 10.4121 9.22021 10.4121 9.22013C10.4115 9.21987 10.4084 9.2186 10.4039 9.21875C10.4019 9.21882 10.4001 9.21913 10.3988 9.21948C10.3981 9.21969 10.3976 9.21988 10.3973 9.21999L10.3966 9.22081ZM7.51419 13.9288C7.51407 13.9288 7.51425 13.9288 7.51419 13.9288V13.9288ZM7.51419 13.9288C7.51407 13.9288 7.51425 13.9288 7.51419 13.9288V13.9288ZM11.6381 8.35498C11.0108 7.47382 9.68401 7.51326 9.11545 8.44022C9.11527 8.4405 9.1151 8.44079 9.11492 8.44107L6.23202 13.1214C5.61118 14.1298 6.33612 15.4294 7.52152 15.4294H16.9778C18.1593 15.4294 18.8885 14.1355 18.2696 13.1254C18.2696 13.1254 18.2696 13.1254 18.2696 13.1254C18.2694 13.1251 18.2691 13.1247 18.2689 13.1244L16.5542 10.3203C16.0172 9.44458 14.7783 9.34349 14.1099 10.1287C14.1097 10.129 14.1094 10.1293 14.1092 10.1295L13.4632 10.8863C13.4611 10.8888 13.4597 10.8898 13.4593 10.8901L13.4582 10.8908C13.4572 10.8912 13.4547 10.8919 13.451 10.8917C13.4474 10.8916 13.445 10.8906 13.4443 10.8902L13.4434 10.8896C13.4432 10.8895 13.4429 10.8892 13.4424 10.8886C13.4418 10.888 13.441 10.8871 13.44 10.8857M13.44 10.8857L11.6381 8.35498C11.6381 8.35501 11.6381 8.35495 11.6381 8.35498" fill="black"/>
</svg>