<svg width="24" height="24" viewBox="0 0 24 24" fill="none" xmlns="http://www.w3.org/2000/svg">
<path d="M2.00098 8.46951C2.00098 9.02151 2.44898 9.46951 3.00098 9.46951C3.55298 9.46951 4.00098 9.02151 4.00098 8.46951V6.89251C4.00098 5.29751 5.29798 3.99951 6.89398 3.99951H8.18298C8.73498 3.99951 9.18298 3.55251 9.18298 2.99951C9.18298 2.44751 8.73498 1.99951 8.18298 1.99951H6.89398C4.19598 1.99951 2.00098 4.19451 2.00098 6.89251V8.46951Z" fill="black"/>
<path d="M6.89337 21.9998H8.15037C8.70237 21.9998 9.15037 21.5518 9.15037 20.9998C9.15037 20.4478 8.70237 19.9998 8.15037 19.9998H6.89337C5.29837 19.9998 4.00137 18.7018 4.00137 17.1068V15.5298C4.00137 14.9778 3.55337 14.5298 3.00137 14.5298C2.44837 14.5298 2.00137 14.9778 2.00137 15.5298V17.1068C2.00137 19.8048 4.19537 21.9998 6.89337 21.9998Z" fill="black"/>
<path d="M17.106 22.0008H15.817C15.265 22.0008 14.817 21.5528 14.817 21.0008C14.817 20.4488 15.265 20.0008 15.817 20.0008H17.106C18.701 20.0008 19.999 18.7028 19.999 17.1078V15.5308C19.999 14.9788 20.447 14.5308 20.999 14.5308C21.551 14.5308 21.999 14.9788 21.999 15.5308V17.1078C21.999 19.8058 19.804 22.0008 17.106 22.0008Z" fill="black"/>
<path d="M12.9229 15.56C12.6039 15.56 12.2789 15.52 11.9549 15.435C10.9629 15.176 10.1309 14.547 9.61189 13.662C9.09389 12.777 8.94989 11.744 9.20889 10.752C9.46789 9.75898 10.0979 8.92698 10.9829 8.40798C11.8669 7.88898 12.8999 7.74698 13.8929 8.00498C14.543 8.17505 15.1108 8.50265 15.5659 8.93612L17.1803 2.74703C17.3023 2.28103 17.7453 1.97603 18.2193 2.00203C18.7003 2.03703 19.0883 2.40903 19.1413 2.88803C19.1503 2.95703 19.3903 4.73203 20.9603 5.50203C21.4563 5.74503 21.6603 6.34403 21.4173 6.84103C21.1743 7.33603 20.5773 7.54103 20.0783 7.29703C19.3613 6.94503 18.8183 6.47203 18.4063 5.97103L16.6243 12.802C16.6027 12.8851 16.5712 12.963 16.5315 13.0348C15.9751 14.5651 14.5115 15.56 12.9229 15.56Z" fill="black"/>
</svg>