<svg width="25" height="24" viewBox="0 0 25 24" fill="none" xmlns="http://www.w3.org/2000/svg">
<path opacity="0.4" d="M21.4995 8.47004V6.89286C21.4995 4.74259 19.757 3 17.6067 3H16.3496" stroke="black" stroke-width="1.5" stroke-linecap="round" stroke-linejoin="round"/>
<path opacity="0.4" d="M3.5 8.47004V6.89286C3.5 4.74259 5.24259 3 7.39286 3H8.68205" stroke="black" stroke-width="1.5" stroke-linecap="round" stroke-linejoin="round"/>
<path opacity="0.4" d="M3.5 15.5312V17.1084C3.5 19.2577 5.24259 21.0003 7.39286 21.0003H8.64994" stroke="black" stroke-width="1.5" stroke-linecap="round" stroke-linejoin="round"/>
<path opacity="0.4" d="M21.4994 15.5312V17.1084C21.4994 19.2577 19.7568 21.0003 17.6066 21.0003H16.3174" stroke="black" stroke-width="1.5" stroke-linecap="round" stroke-linejoin="round"/>
<path fill-rule="evenodd" clip-rule="evenodd" d="M7.12048 13.5148L10.0044 8.83282C10.2904 8.3658 10.9598 8.34439 11.277 8.79001L13.079 11.3207C13.3679 11.7264 13.9605 11.7517 14.2835 11.3732L14.9305 10.6153C15.2672 10.2193 15.8928 10.2689 16.1642 10.7116L17.8796 13.5167C18.1919 14.0256 17.8251 14.6794 17.2277 14.6794H7.77139C7.17302 14.6794 6.80718 14.0236 7.12048 13.5148Z" stroke="black" stroke-width="1.5" stroke-linecap="round" stroke-linejoin="round"/>
</svg>