<svg width="24" height="25" viewBox="0 0 24 25" fill="none" xmlns="http://www.w3.org/2000/svg">
<path fill-rule="evenodd" clip-rule="evenodd" d="M17.1072 2.55176H15.8492C15.4352 2.55176 15.0992 2.88776 15.0992 3.30176C15.0992 3.71576 15.4352 4.05176 15.8492 4.05176H17.1072C18.8392 4.05176 20.2502 5.46176 20.2502 7.19476V8.77176C20.2502 9.18576 20.5862 9.52176 21.0002 9.52176C21.4142 9.52176 21.7502 9.18576 21.7502 8.77176V7.19476C21.7502 4.63476 19.6672 2.55176 17.1072 2.55176Z" fill="black"/>
<path fill-rule="evenodd" clip-rule="evenodd" d="M2.99976 9.52078C3.41376 9.52078 3.74976 9.18478 3.74976 8.77078V7.19378C3.74976 5.46078 5.15976 4.05078 6.89276 4.05078H8.18176C8.59576 4.05078 8.93176 3.71478 8.93176 3.30078C8.93176 2.88678 8.59576 2.55078 8.18176 2.55078H6.89276C4.33276 2.55078 2.24976 4.63378 2.24976 7.19378V8.77078C2.24976 9.18478 2.58576 9.52078 2.99976 9.52078Z" fill="black"/>
<path fill-rule="evenodd" clip-rule="evenodd" d="M8.15012 20.551H6.89212C5.16012 20.551 3.75012 19.141 3.75012 17.409V15.832C3.75012 15.418 3.41412 15.082 3.00012 15.082C2.58612 15.082 2.25012 15.418 2.25012 15.832V17.409C2.25012 19.968 4.33312 22.051 6.89212 22.051H8.15012C8.56412 22.051 8.90012 21.715 8.90012 21.301C8.90012 20.887 8.56412 20.551 8.15012 20.551Z" fill="black"/>
<path fill-rule="evenodd" clip-rule="evenodd" d="M20.9996 15.082C20.5856 15.082 20.2496 15.418 20.2496 15.832V17.409C20.2496 19.142 18.8406 20.551 17.1076 20.551H15.8176C15.4036 20.551 15.0676 20.887 15.0676 21.301C15.0676 21.715 15.4036 22.051 15.8176 22.051H17.1076C19.6676 22.051 21.7496 19.969 21.7496 17.409V15.832C21.7496 15.418 21.4136 15.082 20.9996 15.082Z" fill="black"/>
<path fill-rule="evenodd" clip-rule="evenodd" d="M11.9997 8.08203C9.67471 8.08203 7.78271 9.97403 7.78271 12.3C7.78271 14.626 9.67471 16.518 11.9997 16.518C14.3257 16.518 16.2177 14.626 16.2177 12.3C16.2177 9.97403 14.3257 8.08203 11.9997 8.08203Z" fill="black"/>
</svg>