<svg width="24" height="24" viewBox="0 0 24 24" fill="none" xmlns="http://www.w3.org/2000/svg">
<path d="M20.9995 8.47004V6.89286C20.9995 4.74259 19.257 3 17.1067 3H15.8496" stroke="black" stroke-width="1.5" stroke-linecap="round" stroke-linejoin="round"/>
<path d="M3 8.47004V6.89286C3 4.74259 4.74259 3 6.89286 3H8.18205" stroke="black" stroke-width="1.5" stroke-linecap="round" stroke-linejoin="round"/>
<path d="M3 15.5312V17.1084C3 19.2577 4.74259 21.0003 6.89286 21.0003H8.14994" stroke="black" stroke-width="1.5" stroke-linecap="round" stroke-linejoin="round"/>
<path d="M20.9994 15.5312V17.1084C20.9994 19.2577 19.2568 21.0003 17.1066 21.0003H15.8174" stroke="black" stroke-width="1.5" stroke-linecap="round" stroke-linejoin="round"/>
<path d="M14.8714 9.125L9.12891 14.8675" stroke="black" stroke-width="1.5" stroke-linecap="round" stroke-linejoin="round"/>
<path fill-rule="evenodd" clip-rule="evenodd" d="M14.8714 9.12696C16.4573 10.7129 16.4573 13.2835 14.8714 14.8694C13.2854 16.4554 10.7149 16.4554 9.12891 14.8694C7.54297 13.2835 7.54297 10.7129 9.12891 9.12696C10.7149 7.54101 13.2854 7.54101 14.8714 9.12696Z" stroke="black" stroke-width="1.5" stroke-linecap="round" stroke-linejoin="round"/>
</svg>