<svg width="25" height="24" viewBox="0 0 25 24" fill="none" xmlns="http://www.w3.org/2000/svg">
<path fill-rule="evenodd" clip-rule="evenodd" d="M5.46562 15.4974C4.65618 15.4974 4 16.1536 4 16.963C4 17.7724 4.65618 18.4286 5.46562 18.4286C6.27506 18.4286 6.93124 17.7724 6.93124 16.963C6.93124 16.1536 6.27506 15.4974 5.46562 15.4974ZM2.5 16.963C2.5 15.3251 3.82775 13.9974 5.46562 13.9974C7.10349 13.9974 8.43124 15.3251 8.43124 16.963C8.43124 18.6009 7.10349 19.9286 5.46562 19.9286C3.82775 19.9286 2.5 18.6009 2.5 16.963Z" fill="black"/>
<path fill-rule="evenodd" clip-rule="evenodd" d="M19.0345 15.4974C18.225 15.4974 17.5688 16.1536 17.5688 16.963C17.5688 17.7724 18.225 18.4286 19.0345 18.4286C19.8439 18.4286 20.5001 17.7724 20.5001 16.963C20.5001 16.1536 19.8439 15.4974 19.0345 15.4974ZM16.0688 16.963C16.0688 15.3251 17.3966 13.9974 19.0345 13.9974C20.6723 13.9974 22.0001 15.3251 22.0001 16.963C22.0001 18.6009 20.6723 19.9286 19.0345 19.9286C17.3966 19.9286 16.0688 18.6009 16.0688 16.963Z" fill="black"/>
<path fill-rule="evenodd" clip-rule="evenodd" d="M9.98614 5.57129C9.80362 5.57129 9.64098 5.69853 9.59563 5.86052L9.595 5.86275L9.595 5.86275L7.8469 12.0326C9.54197 12.9103 10.7581 14.5929 11.0062 16.5649L15.3232 16.5822C15.3237 16.5822 15.3242 16.5822 15.3247 16.5822C15.6315 16.582 15.9373 16.5177 16.2275 16.3987L16.2299 16.3977L16.5367 16.273C16.9204 16.1171 17.3579 16.3019 17.5138 16.6856C17.6697 17.0694 17.485 17.5068 17.1012 17.6627L16.7968 17.7864C16.7964 17.7866 16.7959 17.7868 16.7955 17.787C16.3386 17.9742 15.84 18.0822 15.3232 18.0822L15.3202 18.0822L10.2998 18.062C9.8868 18.0604 9.55284 17.7251 9.55284 17.3121C9.55284 15.4159 8.35835 13.7814 6.68537 13.1549C6.31982 13.018 6.12038 12.6236 6.22679 12.2481L8.15118 5.45608C8.1513 5.45565 8.15142 5.45522 8.15154 5.4548C8.38234 4.63276 9.14498 4.07129 9.98614 4.07129H11.5715C11.9858 4.07129 12.3215 4.40708 12.3215 4.82129C12.3215 5.2355 11.9858 5.57129 11.5715 5.57129H9.98614Z" fill="black"/>
<path fill-rule="evenodd" clip-rule="evenodd" d="M13.3818 7.34778C13.7457 7.54565 13.8803 8.00105 13.6825 8.36495L12.8328 9.92751H15.1689C15.4335 9.92751 15.6786 10.0669 15.8137 10.2944C15.9489 10.5219 15.9542 10.8037 15.8277 11.0361L14.3754 13.7037C14.1773 14.0675 13.7219 14.2019 13.3581 14.0038C12.9943 13.8058 12.8599 13.3503 13.058 12.9865L13.9067 11.4275H11.5713C11.3068 11.4275 11.0618 11.2882 10.9266 11.0608C10.7914 10.8334 10.786 10.5516 10.9124 10.3192L12.3647 7.6484C12.5625 7.2845 13.0179 7.14991 13.3818 7.34778Z" fill="black"/>
</svg>