<svg width="25" height="24" viewBox="0 0 25 24" fill="none" xmlns="http://www.w3.org/2000/svg">
<path d="M5.96562 19.1793C7.18928 19.1793 8.18124 18.1873 8.18124 16.9637C8.18124 15.74 7.18928 14.748 5.96562 14.748C4.74197 14.748 3.75 15.74 3.75 16.9637C3.75 18.1873 4.74197 19.1793 5.96562 19.1793Z" stroke="black" stroke-width="1.5" stroke-miterlimit="10" stroke-linecap="round" stroke-linejoin="round"/>
<path d="M19.5343 19.1793C20.758 19.1793 21.75 18.1873 21.75 16.9637C21.75 15.74 20.758 14.748 19.5343 14.748C18.3107 14.748 17.3187 15.74 17.3187 16.9637C17.3187 18.1873 18.3107 19.1793 19.5343 19.1793Z" stroke="black" stroke-width="1.5" stroke-miterlimit="10" stroke-linecap="round" stroke-linejoin="round"/>
<path d="M6.76379 14.894L9.3733 5.65733C9.51116 5.16496 9.97398 4.82031 10.486 4.82031H12.0714" stroke="black" stroke-width="1.5" stroke-miterlimit="10" stroke-linecap="round" stroke-linejoin="round"/>
<path d="M17.5654 17.9863L17.2503 18.1143C16.8662 18.2719 16.4527 18.3605 16.0292 18.3605H11.401H8.19086" stroke="black" stroke-width="1.5" stroke-miterlimit="10" stroke-linecap="round" stroke-linejoin="round"/>
<path opacity="0.4" d="M11.4004 18.3619V13.2906C11.4004 12.6013 11.0754 11.9415 10.524 11.5279L8.21973 9.80469" stroke="black" stroke-width="1.5" stroke-miterlimit="10" stroke-linecap="round" stroke-linejoin="round"/>
</svg>