<svg width="25" height="24" viewBox="0 0 25 24" fill="none" xmlns="http://www.w3.org/2000/svg">
<path opacity="0.4" d="M3.33398 16.2178V7.78313C3.33398 4.83503 5.41517 3 8.36036 3H16.3076C19.2528 3 21.334 4.83503 21.334 7.78313V16.2178C21.334 19.1659 19.2528 21 16.3076 21H8.36036C5.41517 21 3.33398 19.1562 3.33398 16.2178Z" stroke="black" stroke-width="1.5" stroke-linecap="round" stroke-linejoin="round"/>
<path d="M10.1611 16.5722L9.15501 16.5741C8.38344 16.5761 7.75782 15.9495 7.75879 15.1779L7.76074 14.1719" stroke="black" stroke-width="1.5" stroke-linecap="round" stroke-linejoin="round"/>
<path d="M16.9062 14.1719L16.9081 15.1779C16.9101 15.9495 16.2845 16.5761 15.5129 16.5741L14.5059 16.5722" stroke="black" stroke-width="1.5" stroke-linecap="round" stroke-linejoin="round"/>
<path d="M7.76172 9.82805L7.75977 8.822C7.75782 8.05043 8.38345 7.42481 9.15501 7.42578L10.162 7.4287" stroke="black" stroke-width="1.5" stroke-linecap="round" stroke-linejoin="round"/>
<path d="M14.5068 7.42773L15.5129 7.42579C16.2845 7.42384 16.9101 8.04946 16.9091 8.82103L16.9072 9.82708" stroke="black" stroke-width="1.5" stroke-linecap="round" stroke-linejoin="round"/>
</svg>