<svg width="25" height="24" viewBox="0 0 25 24" fill="none" xmlns="http://www.w3.org/2000/svg">
<path fill-rule="evenodd" clip-rule="evenodd" d="M21.0838 14.6641C21.498 14.6641 21.8338 14.9998 21.8338 15.4141V17.9253C21.8338 20.0374 20.1211 21.7498 18.0083 21.7498H15.498C15.0838 21.7498 14.748 21.414 14.748 20.9998C14.748 20.5856 15.0838 20.2498 15.498 20.2498H18.0083C19.293 20.2498 20.3338 19.2087 20.3338 17.9253V15.4141C20.3338 14.9998 20.6696 14.6641 21.0838 14.6641Z" fill="black"/>
<path fill-rule="evenodd" clip-rule="evenodd" d="M3.08398 14.6641C3.4982 14.6641 3.83398 14.9998 3.83398 15.4141V17.9253C3.83398 19.2087 4.87478 20.2498 6.15951 20.2498H8.66974C9.08395 20.2498 9.41974 20.5856 9.41974 20.9998C9.41974 21.414 9.08395 21.7498 8.66974 21.7498H6.15951C4.04666 21.7498 2.33398 20.0374 2.33398 17.9253V15.4141C2.33398 14.9998 2.66977 14.6641 3.08398 14.6641Z" fill="black"/>
<path fill-rule="evenodd" clip-rule="evenodd" d="M6.15951 3.75C4.87493 3.75 3.83398 4.79095 3.83398 6.07552V8.58673C3.83398 9.00094 3.4982 9.33673 3.08398 9.33673C2.66977 9.33673 2.33398 9.00094 2.33398 8.58673V6.07552C2.33398 3.96252 4.04651 2.25 6.15951 2.25H8.66974C9.08395 2.25 9.41974 2.58579 9.41974 3C9.41974 3.41421 9.08395 3.75 8.66974 3.75H6.15951Z" fill="black"/>
<path fill-rule="evenodd" clip-rule="evenodd" d="M14.748 3C14.748 2.58579 15.0838 2.25 15.498 2.25H18.0083C20.1213 2.25 21.8338 3.96252 21.8338 6.07552V8.58673C21.8338 9.00094 21.498 9.33673 21.0838 9.33673C20.6696 9.33673 20.3338 9.00094 20.3338 8.58673V6.07552C20.3338 4.79095 19.2929 3.75 18.0083 3.75H15.498C15.0838 3.75 14.748 3.41421 14.748 3Z" fill="black"/>
</svg>