<svg width="25" height="24" viewBox="0 0 25 24" fill="none" xmlns="http://www.w3.org/2000/svg">
<path opacity="0.4" fill-rule="evenodd" clip-rule="evenodd" d="M16.807 2.5H8.85998C5.55398 2.5 3.33398 4.622 3.33398 7.78V16.22C3.33398 19.378 5.55398 21.5 8.85998 21.5H16.807C20.113 21.5 22.334 19.378 22.334 16.22V7.78C22.334 4.622 20.113 2.5 16.807 2.5Z" fill="black"/>
<path d="M17.4078 10.5816C17.8208 10.5816 18.1568 10.2466 18.1578 9.83263L18.1598 8.82163C18.1608 8.24363 17.9338 7.70163 17.5238 7.29563C17.1218 6.89863 16.5938 6.68163 16.0408 6.68163H15.0078C14.5938 6.68163 14.2578 7.01763 14.2578 7.43163C14.2578 7.84563 14.5938 8.18163 15.0078 8.18163H16.0308C16.1948 8.18163 16.3498 8.24563 16.4698 8.36163C16.5928 8.48363 16.6598 8.64663 16.6598 8.81963L16.6578 9.83063C16.6568 10.2446 16.9928 10.5806 17.4078 10.5816Z" fill="black"/>
<path d="M16.0318 17.3206C16.5938 17.3206 17.1218 17.1036 17.5218 16.7076C17.9328 16.3006 18.1588 15.7586 18.1578 15.1806L18.1558 14.1706C18.1548 13.7566 17.8198 13.4216 17.4058 13.4216H17.4048C16.9898 13.4226 16.6548 13.7586 16.6558 14.1726L16.6578 15.1836C16.6578 15.3566 16.5908 15.5196 16.4678 15.6416C16.3478 15.7596 16.1658 15.8126 16.0118 15.8206H15.0058C14.5918 15.8206 14.2558 16.1566 14.2558 16.5706C14.2558 16.9846 14.5918 17.3206 15.0058 17.3206H16.0318Z" fill="black"/>
<path d="M9.65482 8.18163H10.6618C11.0758 8.18163 11.4118 7.84563 11.4118 7.43163C11.4118 7.01763 11.0758 6.68163 10.6618 6.68163H9.66482C9.09582 6.65563 8.55282 6.89263 8.14382 7.29663C7.73282 7.70263 7.50882 8.24463 7.50982 8.82163L7.51182 9.83263C7.51182 10.2466 7.84682 10.5816 8.26182 10.5816C8.67782 10.5806 9.01182 10.2446 9.01182 9.83063L9.00982 8.81863C9.00982 8.64563 9.07682 8.48363 9.19882 8.36163C9.31882 8.24263 9.47782 8.15363 9.65482 8.18163Z" fill="black"/>
<path d="M8.14382 16.7086C8.54582 17.1036 9.07282 17.3206 9.62482 17.3206H10.6598C11.0738 17.3206 11.4098 16.9846 11.4098 16.5706C11.4098 16.1566 11.0738 15.8206 10.6598 15.8206H9.64282C9.48582 15.8236 9.31782 15.7596 9.19882 15.6416C9.07482 15.5196 9.00782 15.3556 9.00782 15.1826L9.00982 14.1726C9.01082 13.7586 8.67482 13.4226 8.25982 13.4216C7.84582 13.4216 7.51082 13.7566 7.50982 14.1706L7.50782 15.1806C7.50682 15.7596 7.73282 16.3026 8.14382 16.7086Z" fill="black"/>
</svg>