<svg width="25" height="24" viewBox="0 0 25 24" fill="none" xmlns="http://www.w3.org/2000/svg">
<path fill-rule="evenodd" clip-rule="evenodd" d="M2.33398 15.4141C2.33398 14.9998 2.66977 14.6641 3.08398 14.6641H5.59428C7.70717 14.6641 9.41989 16.3765 9.41989 18.4887V21C9.41989 21.4142 9.0841 21.75 8.66989 21.75C8.25567 21.75 7.91989 21.4142 7.91989 21V18.4887C7.91989 17.2052 6.87905 16.1641 5.59428 16.1641H3.08398C2.66977 16.1641 2.33398 15.8283 2.33398 15.4141Z" fill="black"/>
<path fill-rule="evenodd" clip-rule="evenodd" d="M18.5736 16.1641C17.2889 16.1641 16.248 17.2052 16.248 18.4887V21C16.248 21.4142 15.9123 21.75 15.498 21.75C15.0838 21.75 14.748 21.4142 14.748 21V18.4887C14.748 16.3765 16.4608 14.6641 18.5736 14.6641H21.0839C21.4982 14.6641 21.8339 14.9998 21.8339 15.4141C21.8339 15.8283 21.4982 16.1641 21.0839 16.1641H18.5736Z" fill="black"/>
<path fill-rule="evenodd" clip-rule="evenodd" d="M8.66989 2.25C9.0841 2.25 9.41989 2.58579 9.41989 3V5.51127C9.41989 7.62432 7.70733 9.33687 5.59428 9.33687H3.08398C2.66977 9.33687 2.33398 9.00109 2.33398 8.58687C2.33398 8.17266 2.66977 7.83687 3.08398 7.83687H5.59428C6.8789 7.83687 7.91989 6.79589 7.91989 5.51127V3C7.91989 2.58579 8.25567 2.25 8.66989 2.25Z" fill="black"/>
<path fill-rule="evenodd" clip-rule="evenodd" d="M15.498 2.25C15.9123 2.25 16.248 2.58579 16.248 3V5.51127C16.248 6.79589 17.289 7.83687 18.5736 7.83687H21.0839C21.4982 7.83687 21.8339 8.17266 21.8339 8.58687C21.8339 9.00109 21.4982 9.33687 21.0839 9.33687H18.5736C16.4606 9.33687 14.748 7.62432 14.748 5.51127V3C14.748 2.58579 15.0838 2.25 15.498 2.25Z" fill="black"/>
</svg>