<svg width="25" height="24" viewBox="0 0 25 24" fill="none" xmlns="http://www.w3.org/2000/svg">
<path fill-rule="evenodd" clip-rule="evenodd" d="M18.158 9.831C18.157 10.245 17.821 10.58 17.408 10.58C16.993 10.579 16.657 10.243 16.658 9.829L16.66 8.818C16.66 8.645 16.593 8.482 16.47 8.36C16.35 8.244 16.195 8.18 16.031 8.18H15.008C14.594 8.18 14.258 7.844 14.258 7.43C14.258 7.016 14.594 6.68 15.008 6.68H16.041C16.594 6.68 17.122 6.897 17.524 7.294C17.934 7.7 18.161 8.242 18.16 8.82L18.158 9.831ZM17.522 16.706C17.122 17.102 16.594 17.319 16.032 17.319H15.006C14.592 17.319 14.256 16.983 14.256 16.569C14.256 16.155 14.592 15.819 15.006 15.819H16.012C16.166 15.811 16.348 15.758 16.468 15.64C16.591 15.518 16.658 15.355 16.658 15.182L16.656 14.171C16.655 13.757 16.99 13.421 17.405 13.42H17.406C17.82 13.42 18.155 13.755 18.156 14.169L18.158 15.179C18.159 15.757 17.933 16.299 17.522 16.706ZM10.662 8.18H9.65498C9.47798 8.152 9.31898 8.241 9.19898 8.36C9.07698 8.482 9.00998 8.644 9.00998 8.817L9.01198 9.829C9.01198 10.243 8.67798 10.579 8.26198 10.58C7.84698 10.58 7.51198 10.245 7.51198 9.831L7.50998 8.82C7.50898 8.243 7.73298 7.701 8.14398 7.295C8.55298 6.891 9.09598 6.654 9.66498 6.68H10.662C11.076 6.68 11.412 7.016 11.412 7.43C11.412 7.844 11.076 8.18 10.662 8.18ZM10.66 17.319H9.62498C9.07298 17.319 8.54598 17.102 8.14398 16.707C7.73298 16.301 7.50698 15.758 7.50798 15.179L7.50998 14.169C7.51098 13.755 7.84598 13.42 8.25998 13.42C8.67498 13.421 9.01098 13.757 9.00998 14.171L9.00798 15.181C9.00798 15.354 9.07498 15.518 9.19898 15.64C9.31798 15.758 9.48598 15.822 9.64298 15.819H10.66C11.074 15.819 11.41 16.155 11.41 16.569C11.41 16.983 11.074 17.319 10.66 17.319ZM16.807 2.5H8.85998C5.55398 2.5 3.33398 4.622 3.33398 7.78V16.22C3.33398 19.378 5.55398 21.5 8.85998 21.5H16.807C20.113 21.5 22.334 19.378 22.334 16.22V7.78C22.334 4.622 20.113 2.5 16.807 2.5Z" fill="black"/>
</svg>