<svg width="25" height="24" viewBox="0 0 25 24" fill="none" xmlns="http://www.w3.org/2000/svg">
<path fill-rule="evenodd" clip-rule="evenodd" d="M6.34398 14.4092H3.83398C3.28098 14.4092 2.83398 14.8562 2.83398 15.4092C2.83398 15.9622 3.28098 16.4092 3.83398 16.4092H6.34398C7.48898 16.4092 8.41998 17.3432 8.41998 18.4892V21.0002C8.41998 21.5532 8.86698 22.0002 9.41998 22.0002C9.97298 22.0002 10.42 21.5532 10.42 21.0002V18.4892C10.42 16.2392 8.59198 14.4092 6.34398 14.4092Z" fill="black"/>
<path fill-rule="evenodd" clip-rule="evenodd" d="M21.8343 14.4092H19.3243C17.0763 14.4092 15.2483 16.2392 15.2483 18.4892V21.0002C15.2483 21.5532 15.6953 22.0002 16.2483 22.0002C16.8013 22.0002 17.2483 21.5532 17.2483 21.0002V18.4892C17.2483 17.3432 18.1803 16.4092 19.3243 16.4092H21.8343C22.3873 16.4092 22.8343 15.9622 22.8343 15.4092C22.8343 14.8562 22.3873 14.4092 21.8343 14.4092Z" fill="black"/>
<path fill-rule="evenodd" clip-rule="evenodd" d="M9.42023 2C8.86723 2 8.42023 2.447 8.42023 3V5.51C8.42023 6.656 7.48823 7.59 6.34423 7.59H3.83423C3.28123 7.59 2.83423 8.037 2.83423 8.59C2.83423 9.143 3.28123 9.59 3.83423 9.59H6.34423C8.59223 9.59 10.4202 7.76 10.4202 5.51V3C10.4202 2.447 9.97323 2 9.42023 2Z" fill="black"/>
<path fill-rule="evenodd" clip-rule="evenodd" d="M19.3245 9.59H21.8345C22.3875 9.59 22.8345 9.143 22.8345 8.59C22.8345 8.037 22.3875 7.59 21.8345 7.59H19.3245C18.1795 7.59 17.2485 6.656 17.2485 5.51V3C17.2485 2.447 16.8015 2 16.2485 2C15.6955 2 15.2485 2.447 15.2485 3V5.51C15.2485 7.76 17.0765 9.59 19.3245 9.59Z" fill="black"/>
</svg>