<svg width="24" height="24" viewBox="0 0 24 24" fill="none" xmlns="http://www.w3.org/2000/svg">
<path opacity="0.4" fill-rule="evenodd" clip-rule="evenodd" d="M19.195 9.295C19.194 5.548 15.966 2.5 11.999 2.5C10.082 2.5 8.27896 3.203 6.92196 4.48C5.55496 5.765 4.80296 7.476 4.80396 9.297L4.80496 14.706C4.80596 18.452 8.03396 21.5 12.001 21.5C13.917 21.5 15.72 20.797 17.078 19.519C18.444 18.234 19.196 16.524 19.196 14.703L19.195 9.295Z" fill="black"/>
<path d="M13.843 10.9231C13.55 10.6291 13.075 10.6301 12.782 10.9221L12.75 10.9541V8.28007L12.782 8.31307C13.075 8.60507 13.55 8.60607 13.843 8.31207C14.135 8.01907 14.135 7.54407 13.842 7.25107L12.529 5.94007C12.236 5.64807 11.761 5.64807 11.469 5.94107L10.157 7.25207C9.86499 7.54507 9.86499 8.01907 10.157 8.31207C10.304 8.45907 10.496 8.53207 10.688 8.53207C10.88 8.53207 11.072 8.45907 11.218 8.31207L11.25 8.28007V10.9541L11.218 10.9221C10.925 10.6301 10.45 10.6301 10.157 10.9221C9.86499 11.2151 9.86499 11.6901 10.157 11.9831L11.461 13.2871C11.598 13.4291 11.788 13.5191 12 13.5191C12.215 13.5191 12.405 13.4261 12.542 13.2811L13.842 11.9841C14.135 11.6911 14.135 11.2161 13.843 10.9231Z" fill="black"/>
</svg>