<svg width="24" height="24" viewBox="0 0 24 24" fill="none" xmlns="http://www.w3.org/2000/svg">
<path fill-rule="evenodd" clip-rule="evenodd" d="M8.96213 8.92451C9.35313 9.31751 9.98713 9.31551 10.3761 8.92651C10.7681 8.53551 10.7681 7.90351 10.3781 7.51251L7.53913 4.66851C7.53913 4.66851 7.53913 4.66751 7.53713 4.66651L7.52713 4.65651C7.43313 4.56651 7.32313 4.49651 7.20813 4.45051C6.97413 4.35551 6.68413 4.35851 6.45113 4.45451C6.34013 4.50151 6.23413 4.56951 6.14313 4.65651C6.14313 4.65651 6.14213 4.65851 6.14013 4.65951L6.13313 4.66651C6.12913 4.66951 6.13113 4.66851 6.13113 4.66851L3.29213 7.51251C2.90213 7.90351 2.90213 8.53551 3.29413 8.92651C3.68313 9.31551 4.31713 9.31751 4.70813 8.92451L5.83513 7.79551V16.2015L4.70813 15.0725C4.31713 14.6805 3.68313 14.6825 3.29413 15.0705C2.90213 15.4615 2.90213 16.0945 3.29213 16.4855L6.14313 19.3405C6.23713 19.4315 6.34713 19.5005 6.46213 19.5465C6.57713 19.5935 6.70313 19.6185 6.83513 19.6185C6.97113 19.6185 7.10113 19.5915 7.21913 19.5425C7.33013 19.4955 7.43613 19.4285 7.52713 19.3405L10.3781 16.4855C10.7681 16.0945 10.7681 15.4615 10.3761 15.0705C9.98713 14.6825 9.35313 14.6805 8.96213 15.0725L7.83513 16.2015V7.79551L8.96213 8.92451Z" fill="black"/>
<path fill-rule="evenodd" clip-rule="evenodd" d="M20.0002 11.0977H13.5172C12.9642 11.0977 12.5172 11.5447 12.5172 12.0977C12.5172 12.6507 12.9642 13.0977 13.5172 13.0977H20.0002C20.5532 13.0977 21.0002 12.6507 21.0002 12.0977C21.0002 11.5447 20.5532 11.0977 20.0002 11.0977Z" fill="black"/>
<g opacity="0.4">
<path fill-rule="evenodd" clip-rule="evenodd" d="M13.5168 7.19727H19.9998C20.5528 7.19727 20.9998 6.75027 20.9998 6.19727C20.9998 5.64427 20.5528 5.19727 19.9998 5.19727H13.5168C12.9638 5.19727 12.5168 5.64427 12.5168 6.19727C12.5168 6.75027 12.9638 7.19727 13.5168 7.19727Z" fill="black"/>
<path fill-rule="evenodd" clip-rule="evenodd" d="M20.0003 16.7988H13.5173C12.9643 16.7988 12.5173 17.2458 12.5173 17.7988C12.5173 18.3518 12.9643 18.7988 13.5173 18.7988H20.0003C20.5533 18.7988 21.0003 18.3518 21.0003 17.7988C21.0003 17.2458 20.5533 16.7988 20.0003 16.7988Z" fill="black"/>
</g>
</svg>