<svg width="25" height="24" viewBox="0 0 25 24" fill="none" xmlns="http://www.w3.org/2000/svg">
<path opacity="0.4" fill-rule="evenodd" clip-rule="evenodd" d="M20.4473 11.7323C19.4974 9.16606 16.0933 9.2877 13.7418 9.06239L13.6752 4.71691C13.6614 3.79873 12.9136 3.0625 11.9954 3.0625C11.0677 3.0625 10.3156 3.8146 10.3156 4.7423V14.6497C10.3156 15.1448 9.77926 15.4547 9.34979 15.2072L8.1185 14.4953C6.97184 13.8331 5.51206 14.4752 5.22434 15.7678C5.06567 16.4829 5.31743 17.2255 5.89922 17.6698C6.91789 18.4452 8.6199 19.6595 10.2436 20.4349C12.7856 21.6493 16.8655 21.3298 18.7865 19.4078C20.4631 17.7311 21.4046 14.3144 20.4473 11.7323Z" fill="black"/>
<path fill-rule="evenodd" clip-rule="evenodd" d="M5.69136 11.6187L5.69241 11.6197L5.69453 11.6219L5.69665 11.624C5.69665 11.624 5.6977 11.624 5.69876 11.6261L5.69982 11.6271L5.70193 11.6293C5.70088 11.6314 5.70405 11.6314 5.70405 11.6314L5.70617 11.6324C5.70722 11.6345 5.70828 11.6345 5.70828 11.6345L5.7104 11.6377C5.71251 11.6377 5.71251 11.6388 5.71251 11.6388C5.71251 11.6409 5.71357 11.6409 5.71357 11.6409L5.71569 11.642C5.71674 11.6451 5.7178 11.6441 5.7178 11.6441C5.72097 11.6451 5.71992 11.6462 5.71992 11.6462H5.72097L5.72309 11.6483L5.72626 11.6515L5.72838 11.6525L5.73049 11.6546L5.73261 11.6568L5.73367 11.6578L5.73473 11.6589L5.73578 11.6599L5.7379 11.6621C5.80243 11.716 5.87436 11.7594 5.95052 11.79C6.03832 11.826 6.13458 11.8472 6.23613 11.8493H6.26469C6.3673 11.8472 6.46356 11.826 6.55241 11.789H6.55453C6.57674 11.7795 6.5979 11.7699 6.61905 11.7583C6.62117 11.7573 6.62329 11.7562 6.62329 11.7562L6.6254 11.7551L6.62752 11.753L6.62963 11.752L6.63175 11.7509H6.63386L6.63598 11.7498L6.63809 11.7488C6.63809 11.7488 6.63915 11.7488 6.64021 11.7467L6.64233 11.7456C6.64444 11.7456 6.64444 11.7446 6.64444 11.7446L6.64656 11.7435L6.64867 11.7414C6.65079 11.7424 6.65079 11.7403 6.65079 11.7403L6.6529 11.7393L6.65502 11.7382L6.65714 11.7372L6.65925 11.7361C6.66031 11.734 6.66137 11.734 6.66137 11.734L6.66242 11.7329L6.66454 11.7319C6.66666 11.7298 6.66666 11.7308 6.66666 11.7308L6.66877 11.7298C6.67089 11.7287 6.67089 11.7287 6.67089 11.7287L6.673 11.7276C6.67512 11.7266 6.67406 11.7276 6.67512 11.7255L6.67723 11.7245L6.67935 11.7234L6.68146 11.7223L6.68358 11.7202C6.68358 11.7202 6.68358 11.7192 6.6857 11.7192L6.68781 11.7181C6.68781 11.7181 6.68887 11.7181 6.68993 11.716L6.69204 11.7149L6.6931 11.7139C6.69416 11.7118 6.69522 11.7118 6.69522 11.7118L6.69839 11.7107C6.69733 11.7086 6.70051 11.7097 6.70051 11.7097L6.70156 11.7075C6.70156 11.7075 6.70262 11.7075 6.70474 11.7065L6.70579 11.7054L6.70791 11.7044L6.70897 11.7033L6.71108 11.7012L6.7132 11.7001L6.71531 11.6991C6.71531 11.6959 6.71743 11.697 6.71743 11.697C6.71849 11.6948 6.71955 11.6959 6.71955 11.6959L6.72166 11.6938L6.72378 11.6927L6.72589 11.6906C6.72801 11.6906 6.72695 11.6896 6.72695 11.6896L6.72907 11.6874L6.7333 11.6853L6.73436 11.6843L6.73647 11.6832L6.73859 11.6811C6.73859 11.679 6.74176 11.679 6.74176 11.679C6.74176 11.6769 6.74282 11.6779 6.74282 11.6779C6.74599 11.6747 6.74493 11.6758 6.74493 11.6758L6.74599 11.6747C6.74811 11.6758 6.74811 11.6737 6.74811 11.6737C6.75022 11.6716 6.75022 11.6716 6.75022 11.6716L6.75128 11.6705L6.75234 11.6695L6.75445 11.6673L6.75657 11.6663L6.75869 11.6642L6.7608 11.6631L6.76292 11.6621C6.76503 11.6589 6.76503 11.6599 6.76503 11.6599L6.76715 11.6578C6.76821 11.6557 6.76926 11.6557 6.76926 11.6557L6.77138 11.6536L6.77349 11.6525L6.77455 11.6504L6.77561 11.6494L6.77773 11.6483L6.77984 11.6462L6.78196 11.6451C6.78407 11.643 6.78407 11.643 6.78407 11.643L6.78513 11.642V11.6409H6.78619C6.7883 11.6398 6.7883 11.6388 6.7883 11.6388L6.79042 11.6367L6.79253 11.6356L6.79359 11.6345V11.6335L6.79571 11.6314L6.79782 11.6303L6.79888 11.6282L6.80206 11.625L6.80417 11.624C6.80417 11.6219 6.80629 11.6219 6.80629 11.6219V11.6208C6.8084 11.6187 6.8084 11.6187 6.8084 11.6187C6.81052 11.6187 6.81052 11.6176 6.81052 11.6176L6.81158 11.6166L8.09787 10.3292C8.40781 10.0193 8.40781 9.51682 8.09787 9.20794C7.80909 8.91915 7.35529 8.89906 7.04324 9.14764V5.55321C7.35423 5.80073 7.80909 5.78063 8.09787 5.49291C8.40781 5.18403 8.40781 4.68051 8.09787 4.37058L6.81158 3.08428C6.81052 3.08216 6.80946 3.08216 6.80946 3.08216C6.80946 3.08216 6.80734 3.08216 6.80734 3.08005C6.80734 3.07793 6.80629 3.07793 6.80629 3.07793L6.80417 3.07688L6.80206 3.07476C6.80206 3.07476 6.80206 3.0737 6.79994 3.07264C6.79782 3.07264 6.79782 3.07159 6.79782 3.07159L6.79677 3.06947C6.79465 3.06947 6.79465 3.06841 6.79465 3.06841L6.79359 3.06736L6.79253 3.0663L6.79148 3.06418L6.78936 3.06312C6.71637 2.99542 6.63386 2.94359 6.54607 2.90868H6.54501L6.54395 2.90763C6.45721 2.87272 6.36306 2.85368 6.26469 2.85156H6.23613C6.13246 2.85368 6.03514 2.87483 5.94523 2.91186C5.85955 2.94782 5.77915 2.9986 5.70828 3.0663L5.70617 3.06736V3.06841L5.70405 3.06947L5.70193 3.07053L5.70088 3.07264C5.69982 3.07476 5.69876 3.07476 5.69876 3.07476C5.69559 3.07582 5.69665 3.07688 5.69665 3.07688L5.69453 3.07793L5.69347 3.07899L5.69136 3.08111V3.08216L5.68924 3.08428L4.40189 4.37058C4.09195 4.68051 4.09195 5.18297 4.40189 5.49291C4.69067 5.78063 5.14553 5.80073 5.45652 5.55321V9.14764C5.14447 8.898 4.69067 8.91915 4.40189 9.20794C4.09195 9.51787 4.09195 10.0193 4.40189 10.3292L5.68924 11.6166L5.69136 11.6187Z" fill="black"/>
</svg>