<svg width="24" height="24" viewBox="0 0 24 24" fill="none" xmlns="http://www.w3.org/2000/svg">
<path d="M13.8452 20.4882C12.3252 20.6662 10.7192 20.4582 9.49218 19.8722C7.95718 19.1392 6.34818 17.9912 5.38518 17.2582C4.83518 16.8382 4.59718 16.1362 4.74718 15.4602C5.01918 14.2382 6.39918 13.6312 7.48318 14.2572L8.64718 14.9302C9.05318 15.1642 9.56018 14.8712 9.56018 14.4032V5.03722C9.56018 4.16022 10.2712 3.44922 11.1482 3.44922C12.0162 3.44922 12.7232 4.14522 12.7362 5.01322L12.7992 9.12122C15.0222 9.33422 18.2402 9.21922 19.1382 11.6452C20.0432 14.0862 19.1542 17.3162 17.5682 18.9012" stroke="black" stroke-width="1.5" stroke-linecap="round" stroke-linejoin="round"/>
<path d="M5.71665 11.0058L6.93331 9.78906M5.71665 11.0058L4.5 9.78906M5.71665 11.0058V4M5.71665 4L6.93331 5.21666M5.71665 4L4.5 5.21666" stroke="black" stroke-width="1.5" stroke-miterlimit="10" stroke-linecap="round" stroke-linejoin="round"/>
</svg>