<svg width="24" height="24" viewBox="0 0 24 24" fill="none" xmlns="http://www.w3.org/2000/svg">
<path d="M6.45508 13.8185L6.45605 17.3825C6.45605 19.381 8.07605 21 10.0736 21H15.5893C17.5869 21 19.2069 19.38 19.2069 17.3815L19.2059 6.61751C19.2059 4.62 17.5859 3 15.5884 3H13.6736" stroke="black" stroke-width="1.5" stroke-linecap="round" stroke-linejoin="round"/>
<path d="M9.66353 8.39564L11.122 9.85121M7.69146 3.37305C9.292 3.37305 10.5899 4.67099 10.5899 6.27153C10.5899 7.87305 9.292 9.17002 7.69146 9.17002C6.09091 9.17002 4.79297 7.87305 4.79297 6.27153C4.79297 4.67099 6.09091 3.37305 7.69146 3.37305Z" stroke="black" stroke-width="1.5" stroke-linecap="round" stroke-linejoin="round"/>
<path d="M12.8303 17.3306V17.2824M12.8303 17.0293C12.6921 17.0293 12.5801 17.1413 12.5801 17.2791C12.5801 17.4173 12.6921 17.5293 12.8303 17.5293C12.9686 17.5293 13.0805 17.4173 13.0805 17.2791C13.0805 17.1413 12.9686 17.0293 12.8303 17.0293Z" stroke="black" stroke-width="1.5" stroke-linecap="round" stroke-linejoin="round"/>
</svg>