<svg width="24" height="24" viewBox="0 0 24 24" fill="none" xmlns="http://www.w3.org/2000/svg">
<path fill-rule="evenodd" clip-rule="evenodd" d="M12.6839 9.35205L13.2439 10.3321L11.0639 12.7521L8.89386 10.3321L9.44386 9.35205H12.6839Z" fill="black"/>
<path fill-rule="evenodd" clip-rule="evenodd" d="M14.7139 10.942L11.6239 14.372C11.4839 14.532 11.2839 14.622 11.0639 14.622C10.8539 14.622 10.6539 14.532 10.5139 14.372L7.42387 10.942C7.20387 10.702 7.16387 10.352 7.32387 10.072L8.35387 8.23195C8.48387 7.99195 8.73387 7.85195 9.00387 7.85195H13.1239C13.4039 7.85195 13.6539 7.99195 13.7839 8.23195L14.8139 10.072C14.9739 10.352 14.9339 10.702 14.7139 10.942ZM11.1339 2.50195C6.48387 2.50195 2.71387 6.27195 2.71387 10.922C2.71387 15.572 6.48387 19.342 11.1339 19.342C15.7839 19.342 19.5539 15.572 19.5539 10.922C19.5539 6.27195 15.7839 2.50195 11.1339 2.50195Z" fill="black"/>
<path fill-rule="evenodd" clip-rule="evenodd" d="M20.9927 19.7896L19.0097 17.8106C18.6187 17.4206 17.9847 17.4206 17.5957 17.8126C17.2047 18.2036 17.2057 18.8376 17.5967 19.2276L19.5807 21.2056C19.7757 21.3996 20.0317 21.4976 20.2867 21.4976C20.5427 21.4976 20.7997 21.3996 20.9947 21.2036C21.3847 20.8126 21.3837 20.1796 20.9927 19.7896Z" fill="black"/>
</svg>