<svg width="24" height="24" viewBox="0 0 24 24" fill="none" xmlns="http://www.w3.org/2000/svg">
<path fill-rule="evenodd" clip-rule="evenodd" d="M15.6187 11.3248C15.1337 11.1958 14.6477 11.4568 14.4547 11.9078L13.1237 9.59277C12.9917 9.36177 12.7727 9.19377 12.5167 9.12477C12.2597 9.05677 11.9867 9.09277 11.7567 9.22377L10.3227 10.0538L9.36874 8.39177C9.09474 7.91277 8.48374 7.74977 8.00474 8.02277C7.52574 8.29777 7.35974 8.90877 7.63474 9.38777L9.08674 11.9188C9.21974 12.1488 9.43774 12.3168 9.69474 12.3868C9.95074 12.4538 10.2237 12.4188 10.4537 12.2868L11.8897 11.4578L12.7217 12.9058C12.2337 12.8428 11.7637 13.1318 11.6307 13.6188C11.4867 14.1518 11.8017 14.7008 12.3347 14.8458L14.5107 15.4348C14.5127 15.4358 14.5147 15.4358 14.5167 15.4358C14.5737 15.4508 14.6327 15.4548 14.6917 15.4598C14.7187 15.4618 14.7447 15.4708 14.7717 15.4708L14.7737 15.4698L14.7747 15.4708C14.9437 15.4708 15.1157 15.4278 15.2717 15.3378C15.5147 15.1978 15.6747 14.9728 15.7397 14.7218L16.3247 12.5508C16.4687 12.0168 16.1527 11.4688 15.6187 11.3248Z" fill="black"/>
<path opacity="0.4" fill-rule="evenodd" clip-rule="evenodd" d="M4.21387 11.42C4.21387 7.328 7.54187 4 11.6319 4C15.7219 4 19.0489 7.328 19.0489 11.42C19.0489 15.512 15.7219 18.84 11.6319 18.84C7.54187 18.84 4.21387 15.512 4.21387 11.42ZM21.4929 20.292L18.7579 17.561C20.1819 15.91 21.0489 13.766 21.0489 11.42C21.0489 6.226 16.8249 2 11.6319 2C6.43887 2 2.21387 6.226 2.21387 11.42C2.21387 16.614 6.43887 20.84 11.6319 20.84C13.7589 20.84 15.7169 20.122 17.2959 18.928L20.0799 21.708C20.2749 21.902 20.5299 22 20.7859 22C21.0429 22 21.2979 21.902 21.4939 21.707C21.8839 21.316 21.8829 20.683 21.4929 20.292Z" fill="black"/>
</svg>