<svg width="24" height="25" viewBox="0 0 24 25" fill="none" xmlns="http://www.w3.org/2000/svg">
<path fill-rule="evenodd" clip-rule="evenodd" d="M20.9927 20.1179L19.0087 18.1389C18.6177 17.7489 17.9847 17.7489 17.5947 18.1409C17.2047 18.5319 17.2057 19.1659 17.5967 19.5559L19.5807 21.5339C19.7757 21.7279 20.0317 21.8259 20.2867 21.8259C20.5427 21.8259 20.7997 21.7279 20.9947 21.5319C21.3847 21.1409 21.3837 20.5079 20.9927 20.1179Z" fill="black"/>
<path d="M12.1085 9.38372V9.69017H10.1585V9.37909C10.1701 8.85364 10.5951 8.43188 11.1209 8.42485C11.6589 8.41879 12.0996 8.84828 12.1085 9.38372Z" fill="black"/>
<path d="M9.72877 11.0925C9.34626 11.0925 9.03575 11.403 9.03575 11.7855V13.3619C9.03575 13.7444 9.34626 14.0549 9.72877 14.0549H12.5379C12.9203 14.0549 13.2309 13.7444 13.2309 13.3619V11.7855C13.2309 11.403 12.9203 11.0925 12.5379 11.0925H9.72877Z" fill="black"/>
<path fill-rule="evenodd" clip-rule="evenodd" d="M2.71338 11.2403C2.71338 6.59031 6.48338 2.82031 11.1334 2.82031C15.7834 2.82031 19.5534 6.59031 19.5534 11.2403C19.5534 15.8903 15.7834 19.6603 11.1334 19.6603C6.48338 19.6603 2.71338 15.8903 2.71338 11.2403ZM11.1041 7.02263C12.4162 7.00728 13.4941 8.0573 13.5107 9.36979L13.5108 9.37868L13.5108 9.92938C14.178 10.2799 14.6332 10.9797 14.6332 11.7855V13.3619C14.6332 14.5189 13.6948 15.4573 12.5379 15.4573H9.72877C8.57182 15.4573 7.63342 14.5189 7.63342 13.3619V11.7855C7.63342 10.9795 8.08877 10.2797 8.75615 9.9292V9.36052C8.7779 8.07472 9.81797 7.03926 11.1041 7.02263Z" fill="black"/>
</svg>