<svg width="25" height="24" viewBox="0 0 25 24" fill="none" xmlns="http://www.w3.org/2000/svg">
<path opacity="0.4" d="M17.7109 17.583L21.1357 21M11.9815 3C16.6303 3 20.3986 6.76827 20.3986 11.4171C20.3986 16.0659 16.6303 19.8351 11.9815 19.8351C7.33272 19.8351 3.56445 16.0659 3.56445 11.4171C3.56445 6.76827 7.33272 3 11.9815 3Z" stroke="black" stroke-width="1.5" stroke-linecap="round" stroke-linejoin="round"/>
<path d="M15.611 10.1272V12.9595C15.611 13.3253 15.4154 13.6629 15.0992 13.8458L12.6464 15.2625C12.3292 15.4454 11.939 15.4454 11.6228 15.2625L9.16998 13.8458C8.85279 13.6629 8.6582 13.3253 8.6582 12.9595V10.1272C8.6582 9.76136 8.85279 9.42374 9.16998 9.24083L11.6228 7.8242C11.939 7.64128 12.3292 7.64128 12.6464 7.8242L15.0992 9.24083C15.4154 9.42374 15.611 9.76136 15.611 10.1272Z" stroke="black" stroke-width="1.5" stroke-linecap="round" stroke-linejoin="round"/>
<path d="M8.80078 9.60254L12.1312 11.529L15.4617 9.60254" stroke="black" stroke-width="1.5" stroke-linecap="round" stroke-linejoin="round"/>
<path d="M12.1348 15.4041V11.5269" stroke="black" stroke-width="1.5" stroke-linecap="round" stroke-linejoin="round"/>
</svg>