<svg width="24" height="24" viewBox="0 0 24 24" fill="none" xmlns="http://www.w3.org/2000/svg">
<path opacity="0.4" fill-rule="evenodd" clip-rule="evenodd" d="M11.2519 2.62305C6.51186 2.62305 2.65186 6.48305 2.65186 11.223C2.65186 15.973 6.51186 19.823 11.2519 19.823C16.0019 19.823 19.8519 15.973 19.8519 11.223C19.8519 6.48305 16.0019 2.62305 11.2519 2.62305Z" fill="black"/>
<path d="M12.0821 11.9625H13.4821C13.8921 11.9625 14.2321 11.6325 14.2321 11.2125C14.2321 10.8025 13.8921 10.4625 13.4821 10.4625H12.0821V9.0625C12.0821 8.6525 11.7421 8.3125 11.3321 8.3125C10.9121 8.3125 10.5821 8.6525 10.5821 9.0625V10.4625H9.18213C8.76213 10.4625 8.43213 10.8025 8.43213 11.2125C8.43213 11.6325 8.76213 11.9625 9.18213 11.9625H10.5821V13.3625C10.5821 13.7825 10.9121 14.1125 11.3321 14.1125C11.7421 14.1125 12.0821 13.7825 12.0821 13.3625V11.9625Z" fill="black"/>
<path fill-rule="evenodd" clip-rule="evenodd" d="M19.5834 17.8477C18.6104 17.8477 17.8184 18.6417 17.8184 19.6177C17.8184 20.5877 18.6104 21.3777 19.5834 21.3777C20.5564 21.3777 21.3484 20.5877 21.3484 19.6177C21.3484 18.6417 20.5564 17.8477 19.5834 17.8477Z" fill="black"/>
</svg>