<svg width="24" height="24" viewBox="0 0 24 24" fill="none" xmlns="http://www.w3.org/2000/svg">
<path opacity="0.4" fill-rule="evenodd" clip-rule="evenodd" d="M11.1353 2.5C6.48533 2.5 2.71533 6.27 2.71533 10.92C2.71533 15.57 6.48533 19.34 11.1353 19.34C15.7753 19.34 19.5453 15.57 19.5453 10.92C19.5453 6.27 15.7753 2.5 11.1353 2.5Z" fill="black"/>
<path fill-rule="evenodd" clip-rule="evenodd" d="M14.3543 10.2383H8.67432C8.25432 10.2383 7.92432 9.89828 7.92432 9.48828C7.92432 9.06828 8.25432 8.73828 8.67432 8.73828H14.3543C14.7743 8.73828 15.1043 9.06828 15.1043 9.48828C15.1043 9.89828 14.7743 10.2383 14.3543 10.2383ZM11.5143 13.7083H8.67432C8.25432 13.7083 7.92432 13.3683 7.92432 12.9583C7.92432 12.5383 8.25432 12.2083 8.67432 12.2083H11.5143C11.9243 12.2083 12.2643 12.5383 12.2643 12.9583C12.2643 13.3683 11.9243 13.7083 11.5143 13.7083Z" fill="black"/>
<path fill-rule="evenodd" clip-rule="evenodd" d="M20.9921 19.7942L19.0091 17.8152C18.6181 17.4252 17.9841 17.4252 17.5951 17.8172C17.2041 18.2082 17.2051 18.8422 17.5961 19.2322L19.5801 21.2102C19.7751 21.4042 20.0311 21.5022 20.2861 21.5022C20.5421 21.5022 20.7991 21.4042 20.9941 21.2082C21.3841 20.8172 21.3831 20.1842 20.9921 19.7942Z" fill="black"/>
</svg>