<svg width="25" height="25" viewBox="0 0 25 25" fill="none" xmlns="http://www.w3.org/2000/svg">
<path fill-rule="evenodd" clip-rule="evenodd" d="M12.1319 3.86914C7.8971 3.86914 4.46436 7.30274 4.46436 11.5367C4.46436 15.7725 7.8971 19.2051 12.1319 19.2051C16.3666 19.2051 19.7994 15.7725 19.7994 11.5367C19.7994 7.30274 16.3666 3.86914 12.1319 3.86914ZM2.96436 11.5367C2.96436 6.47443 7.06856 2.36914 12.1319 2.36914C17.1952 2.36914 21.2994 6.47443 21.2994 11.5367C21.2994 16.6008 17.1952 20.7051 12.1319 20.7051C7.06856 20.7051 2.96436 16.6008 2.96436 11.5367Z" fill="black"/>
<path fill-rule="evenodd" clip-rule="evenodd" d="M15.6463 8.36359C15.8187 8.46279 15.9447 8.62642 15.9964 8.81848L16.5831 10.9951C16.691 11.395 16.4541 11.8066 16.0542 11.9145C15.6543 12.0223 15.2426 11.7854 15.1348 11.3855L14.7433 9.93303L13.2908 10.3246C12.8909 10.4324 12.4793 10.1955 12.3715 9.7956C12.2637 9.39566 12.5005 8.98405 12.9004 8.87625L15.0771 8.28952C15.2691 8.23775 15.4739 8.2644 15.6463 8.36359Z" fill="black"/>
<path fill-rule="evenodd" clip-rule="evenodd" d="M15.6459 8.36369C16.0049 8.57024 16.1286 9.02874 15.922 9.38778L13.4048 13.7634C13.1983 14.1224 12.7399 14.246 12.3809 14.0396L10.7278 13.0891L9.64995 14.9622C9.44337 15.3212 8.98486 15.4448 8.62584 15.2382C8.26681 15.0317 8.14323 14.5732 8.34981 14.2141L9.80155 11.6911C10.0081 11.3322 10.4665 11.2086 10.8255 11.415L12.4785 12.3655L14.6218 8.63981C14.8284 8.28077 15.2869 8.15715 15.6459 8.36369Z" fill="black"/>
<path fill-rule="evenodd" clip-rule="evenodd" d="M17.3303 17.1715C17.6228 16.8783 18.0977 16.8776 18.391 17.1702L21.816 20.5864C22.1092 20.8789 22.1099 21.3538 21.8173 21.6471C21.5248 21.9403 21.0499 21.9409 20.7567 21.6484L17.3317 18.2322C17.0384 17.9397 17.0378 17.4648 17.3303 17.1715Z" fill="black"/>
</svg>