<svg width="24" height="24" viewBox="0 0 24 24" fill="none" xmlns="http://www.w3.org/2000/svg">
<path fill-rule="evenodd" clip-rule="evenodd" d="M14.0712 10.2885L12.9812 12.7885C12.8712 13.0485 12.6212 13.2185 12.3412 13.2385H12.2912C12.0312 13.2385 11.7812 13.0985 11.6512 12.8685L11.0412 11.8285L10.4412 12.8585C10.3012 13.1085 10.0612 13.2485 9.75119 13.2385C9.47119 13.2185 9.22119 13.0485 9.11119 12.7885L8.01119 10.2885C7.84119 9.90854 8.02119 9.46854 8.40119 9.29854C8.78119 9.13854 9.22119 9.30854 9.38119 9.68854L9.89119 10.8285L10.3912 9.96854C10.5212 9.73854 10.7712 9.59854 11.0412 9.59854C11.3012 9.59854 11.5512 9.73854 11.6812 9.96854L12.1912 10.8285L12.6912 9.68854C12.8512 9.30854 13.3012 9.13854 13.6812 9.29854C14.0612 9.46854 14.2312 9.90854 14.0712 10.2885ZM18.6412 12.8685L18.0312 11.8285L17.4412 12.8585C17.3012 13.0985 17.0612 13.2385 16.7912 13.2385H16.7512C16.4712 13.2185 16.2212 13.0485 16.1012 12.7885L15.0112 10.2885C14.8412 9.90854 15.0112 9.46854 15.3912 9.29854C15.7712 9.13854 16.2112 9.30854 16.3812 9.68854L16.8812 10.8285L17.3812 9.96853C17.5212 9.73853 17.7612 9.59854 18.0312 9.59854C18.3012 9.59854 18.5412 9.73853 18.6812 9.96853L19.1912 10.8285L19.5012 10.1085V10.0985C19.0912 5.82854 15.4912 2.49854 11.1212 2.49854C6.63119 2.49854 2.97119 6.00854 2.72119 10.4385L2.90119 10.8285L3.40119 9.96853C3.53119 9.73853 3.78119 9.59854 4.04119 9.59854H4.05119C4.31119 9.59854 4.56119 9.73853 4.69119 9.96853L5.20119 10.8285L5.70119 9.68854C5.86119 9.30854 6.31119 9.13854 6.68119 9.29854C7.07119 9.46854 7.24119 9.90854 7.07119 10.2885L5.99119 12.7885C5.88119 13.0485 5.63119 13.2185 5.35119 13.2385C5.05119 13.2485 4.80119 13.1085 4.66119 12.8685L4.05119 11.8285L3.45119 12.8585C3.36119 13.0285 3.20119 13.1485 3.02119 13.1985C4.02119 16.7385 7.26119 19.3385 11.1212 19.3385C14.9712 19.3385 18.2112 16.7585 19.2212 13.2285C18.9712 13.2085 18.7712 13.0785 18.6412 12.8685Z" fill="black"/>
<path fill-rule="evenodd" clip-rule="evenodd" d="M20.9848 19.7932L19.0018 17.8142C18.6108 17.4242 17.9768 17.4242 17.5878 17.8162C17.1968 18.2072 17.1978 18.8412 17.5888 19.2312L19.5728 21.2092C19.7678 21.4032 20.0238 21.5012 20.2788 21.5012C20.5348 21.5012 20.7918 21.4032 20.9868 21.2072C21.3768 20.8162 21.3758 20.1832 20.9848 19.7932Z" fill="black"/>
</svg>