<svg width="24" height="24" viewBox="0 0 24 24" fill="none" xmlns="http://www.w3.org/2000/svg">
<path fill-rule="evenodd" clip-rule="evenodd" d="M14.2639 11.7185C13.8539 11.7185 13.5139 11.3785 13.5139 10.9685C13.5139 9.58853 12.2539 8.50853 10.9039 8.69853L11.0639 8.77853C11.4239 8.96853 11.5739 9.41853 11.3839 9.78854C11.2039 10.1585 10.7439 10.2985 10.3739 10.1185L8.88387 9.35853C8.66387 9.23853 8.51387 9.02853 8.48387 8.77853C8.45387 8.52853 8.54387 8.28854 8.73387 8.11854C9.42387 7.50853 10.3139 7.17853 11.2339 7.17853C13.3239 7.17853 15.0139 8.87854 15.0139 10.9685C15.0139 11.3785 14.6839 11.7185 14.2639 11.7185ZM13.7339 13.7985C13.0439 14.4085 12.1539 14.7485 11.2339 14.7485C9.14387 14.7485 7.44387 13.0485 7.44387 10.9685C7.44387 10.5485 7.78387 10.2185 8.19387 10.2185C8.61387 10.2185 8.94387 10.5485 8.94387 10.9685C8.94387 12.2285 9.97387 13.2485 11.2339 13.2485C11.3439 13.2485 11.4539 13.2385 11.5639 13.2185L11.4039 13.1485C11.0339 12.9585 10.8939 12.5085 11.0839 12.1385C11.2639 11.7685 11.7239 11.6185 12.0839 11.8085L13.5839 12.5685C13.8039 12.6785 13.9539 12.8985 13.9839 13.1385C14.0139 13.3885 13.9239 13.6385 13.7339 13.7985ZM11.1339 2.49854C6.48387 2.49854 2.71387 6.26854 2.71387 10.9185C2.71387 15.5685 6.48387 19.3385 11.1339 19.3385C15.7839 19.3385 19.5539 15.5685 19.5539 10.9185C19.5539 6.26854 15.7839 2.49854 11.1339 2.49854Z" fill="black"/>
<path fill-rule="evenodd" clip-rule="evenodd" d="M20.9919 19.793L19.0089 17.814C18.6179 17.424 17.9839 17.424 17.5949 17.816C17.2039 18.207 17.2049 18.841 17.5959 19.231L19.5799 21.209C19.7749 21.403 20.0309 21.501 20.2859 21.501C20.5419 21.501 20.7989 21.403 20.9939 21.207C21.3839 20.816 21.3829 20.183 20.9919 19.793Z" fill="black"/>
</svg>