<svg width="24" height="24" viewBox="0 0 24 24" fill="none" xmlns="http://www.w3.org/2000/svg">
<path opacity="0.4" fill-rule="evenodd" clip-rule="evenodd" d="M11.2521 2.62305C6.5121 2.62305 2.6521 6.48305 2.6521 11.223C2.6521 15.973 6.5121 19.823 11.2521 19.823C16.0021 19.823 19.8521 15.973 19.8521 11.223C19.8521 6.48305 16.0021 2.62305 11.2521 2.62305Z" fill="black"/>
<path fill-rule="evenodd" clip-rule="evenodd" d="M14.8949 9.94473L11.2449 13.5847C11.0949 13.7347 10.9049 13.8047 10.7149 13.8047C10.5149 13.8047 10.3249 13.7347 10.1849 13.5847L8.35488 11.7547C8.05488 11.4647 8.05488 10.9947 8.35488 10.6947C8.64488 10.4047 9.12488 10.4047 9.41488 10.6947L10.7149 11.9947L13.8349 8.87473C14.1249 8.58473 14.6049 8.58473 14.8949 8.87473C15.1849 9.17473 15.1849 9.64473 14.8949 9.94473Z" fill="black"/>
<path fill-rule="evenodd" clip-rule="evenodd" d="M19.5849 17.8449C18.6049 17.8449 17.8149 18.6449 17.8149 19.6149C17.8149 20.5849 18.6049 21.3749 19.5849 21.3749C20.5549 21.3749 21.3449 20.5849 21.3449 19.6149C21.3449 18.6449 20.5549 17.8449 19.5849 17.8449Z" fill="black"/>
</svg>