<svg width="24" height="24" viewBox="0 0 24 24" fill="none" xmlns="http://www.w3.org/2000/svg">
<path fill-rule="evenodd" clip-rule="evenodd" d="M13.3938 11.963H9.09381C8.67381 11.963 8.34381 11.633 8.34381 11.213C8.34381 10.803 8.67381 10.463 9.09381 10.463H13.3938C13.8038 10.463 14.1438 10.803 14.1438 11.213C14.1438 11.633 13.8038 11.963 13.3938 11.963ZM11.2538 2.62305C6.50381 2.62305 2.65381 6.48305 2.65381 11.223C2.65381 15.973 6.50381 19.823 11.2538 19.823C15.9938 19.823 19.8538 15.973 19.8538 11.223C19.8538 6.48305 15.9938 2.62305 11.2538 2.62305Z" fill="black"/>
<path fill-rule="evenodd" clip-rule="evenodd" d="M19.5808 17.8474C18.6068 17.8474 17.8148 18.6414 17.8148 19.6174C17.8148 20.5874 18.6068 21.3774 19.5808 21.3774C20.5538 21.3774 21.3458 20.5874 21.3458 19.6174C21.3458 18.6414 20.5538 17.8474 19.5808 17.8474Z" fill="black"/>
</svg>