<svg width="24" height="24" viewBox="0 0 24 24" fill="none" xmlns="http://www.w3.org/2000/svg">
<path fill-rule="evenodd" clip-rule="evenodd" d="M19.7243 9.76137C19.0243 10.3314 18.3943 10.7014 18.1743 10.8214C17.7943 11.0314 17.3843 11.1314 16.9643 11.1314C16.5543 11.1314 16.1443 11.0314 15.7643 10.8314C15.2543 10.5514 12.6743 9.04137 11.9043 6.63137C11.5643 5.58137 11.6043 4.45137 12.0043 3.46137C12.1043 3.20137 12.2343 2.96137 12.3943 2.73137C12.0243 2.68137 11.6443 2.65137 11.2543 2.65137C6.5043 2.65137 2.6543 6.51137 2.6543 11.2514C2.6543 16.0014 6.5043 19.8514 11.2543 19.8514C15.9943 19.8514 19.8543 16.0014 19.8543 11.2514C19.8543 10.7414 19.8143 10.2414 19.7243 9.76137Z" fill="black"/>
<path fill-rule="evenodd" clip-rule="evenodd" d="M19.5798 17.8757C18.6058 17.8757 17.8138 18.6697 17.8138 19.6457C17.8138 20.6157 18.6058 21.4057 19.5798 21.4057C20.5538 21.4057 21.3458 20.6157 21.3458 19.6457C21.3458 18.6697 20.5538 17.8757 19.5798 17.8757Z" fill="black"/>
<path fill-rule="evenodd" clip-rule="evenodd" d="M15.0154 4.68534C15.1264 4.41234 15.3214 4.22934 15.5944 4.14034C15.9104 4.04534 16.2544 4.10334 16.5184 4.29734C16.7844 4.49534 17.1474 4.49534 17.4124 4.29734C17.6764 4.10234 18.0224 4.04134 18.3294 4.14034C18.5754 4.21834 18.7594 4.37334 18.8754 4.60134C19.0264 4.89334 19.0474 5.28134 18.9314 5.64134C18.6624 6.49534 17.6224 7.32534 16.9634 7.75834C16.3094 7.33134 15.2774 6.50934 14.9954 5.63634C14.8924 5.31434 14.8994 4.96734 15.0154 4.68534ZM16.6054 9.29334C16.7174 9.35534 16.8414 9.38534 16.9654 9.38534C17.0904 9.38534 17.2154 9.35434 17.3284 9.29134C17.5784 9.15334 19.7984 7.88534 20.3614 6.09634C20.5984 5.35934 20.5434 4.56434 20.2094 3.91434C19.9124 3.33634 19.4074 2.90934 18.7824 2.70934C18.1794 2.52134 17.5314 2.56734 16.9654 2.82934C16.3994 2.56834 15.7494 2.52034 15.1454 2.70934L15.1404 2.71034C14.4434 2.93434 13.9054 3.43434 13.6254 4.11934C13.3754 4.73134 13.3554 5.43334 13.5684 6.09534C14.1524 7.90834 16.3564 9.15734 16.6054 9.29334Z" fill="black"/>
</svg>