<svg width="24" height="25" viewBox="0 0 24 25" fill="none" xmlns="http://www.w3.org/2000/svg">
<path opacity="0.4" fill-rule="evenodd" clip-rule="evenodd" d="M2.62842 11.0802C2.62842 6.43016 6.39842 2.66016 11.0484 2.66016C15.6984 2.66016 19.4684 6.43016 19.4684 11.0802C19.4684 15.7302 15.6984 19.5002 11.0484 19.5002C6.39842 19.5002 2.62842 15.7302 2.62842 11.0802Z" fill="black"/>
<path fill-rule="evenodd" clip-rule="evenodd" d="M13.8783 12.1462V11.9793C14.2228 11.9766 14.5352 12.0153 14.8827 12.155C15.267 12.3095 15.7038 12.1232 15.8583 11.7389C16.0129 11.3546 15.8266 10.9178 15.4423 10.7633C14.9616 10.57 14.513 10.4993 14.1052 10.4827C14.7451 10.1891 15.2032 9.59637 15.3219 8.89714L15.4106 8.37854C15.4804 7.97025 15.2061 7.58266 14.7978 7.51281C14.3895 7.44297 14.0019 7.71733 13.932 8.12561L13.8432 8.6447L13.843 8.6459C13.806 8.86469 13.6566 9.04964 13.45 9.13202L13.0065 9.30513V8.90232C13.0065 7.82167 12.1301 6.94531 11.0495 6.94531C9.96745 6.94531 9.09247 7.82206 9.09247 8.90232V9.30579L8.64722 9.13201C8.44071 9.04964 8.29129 8.86469 8.25423 8.6459L8.16522 8.12561C8.09538 7.71733 7.70778 7.44297 7.2995 7.51281C6.89122 7.58266 6.61686 7.97025 6.6867 8.37854L6.77541 8.89709C6.89408 9.59633 7.35213 10.1891 7.99201 10.4827C7.58405 10.4993 7.13518 10.57 6.65449 10.7633C6.27018 10.9178 6.0839 11.3546 6.23843 11.7389C6.39295 12.1232 6.82977 12.3095 7.21408 12.155C7.56181 12.0152 7.87476 11.9766 8.2196 11.9793V12.1451L8.10363 12.1898L8.09437 12.1935C7.40638 12.4693 6.9003 13.079 6.77731 13.8208L6.68717 14.3363C6.61583 14.7443 6.88876 15.1329 7.29679 15.2042C7.70481 15.2756 8.09341 15.0027 8.16476 14.5946L8.25552 14.0755L8.25689 14.0675C8.2832 13.9067 8.37411 13.7609 8.51197 13.6625C8.94071 14.4791 9.79695 15.036 10.7835 15.036H11.3144C12.2994 15.036 13.1555 14.48 13.5848 13.6643C13.7214 13.7625 13.814 13.908 13.8438 14.0725L13.9279 14.5866C13.9947 14.9953 14.3803 15.2725 14.7891 15.2057C15.1979 15.1388 15.4751 14.7533 15.4082 14.3445L15.3234 13.8253L15.3219 13.8167C15.1923 13.0789 14.6894 12.4699 13.9996 12.1934L13.8783 12.1462ZM10.1798 10.394C10.2159 10.3757 10.2504 10.3547 10.2829 10.3311C10.4321 10.2513 10.6026 10.2061 10.7835 10.2061H11.3144C11.4974 10.2061 11.6699 10.2525 11.8205 10.3343C11.8499 10.3553 11.881 10.3743 11.9134 10.391C12.0054 10.454 12.0871 10.531 12.1553 10.619C12.1664 10.6354 12.178 10.6513 12.1902 10.6666C12.3059 10.8341 12.3748 11.0363 12.3781 11.2545C12.3779 11.266 12.3779 11.2775 12.3783 11.2891V12.4721C12.3783 12.492 12.3777 12.5117 12.3766 12.5312C12.3712 12.5637 12.368 12.5961 12.3668 12.6284C12.2912 13.1419 11.8485 13.536 11.3144 13.536H10.7835C10.2542 13.536 9.81552 13.1501 9.73341 12.644C9.73282 12.6015 9.72858 12.5586 9.72049 12.5159C9.7199 12.5014 9.7196 12.4868 9.7196 12.4721V11.2709C9.7196 11.045 9.78987 10.8356 9.9097 10.6633C9.92016 10.65 9.9302 10.6362 9.9398 10.6221C10.0074 10.5342 10.0884 10.4571 10.1798 10.394ZM11.0495 8.44531C10.8653 8.44531 10.707 8.55376 10.6345 8.71031C10.6838 8.70749 10.7335 8.70605 10.7835 8.70605H11.3144C11.3647 8.70605 11.4147 8.70751 11.4643 8.71037C11.3917 8.55392 11.2332 8.44531 11.0495 8.44531Z" fill="black"/>
<path d="M18.9237 17.9788L20.9077 19.9578C21.2987 20.3478 21.2997 20.9808 20.9097 21.3718C20.7147 21.5678 20.4577 21.6658 20.2017 21.6658C19.9467 21.6658 19.6907 21.5678 19.4957 21.3738L17.5117 19.3958C17.1207 19.0058 17.1197 18.3718 17.5097 17.9808C17.8997 17.5888 18.5327 17.5888 18.9237 17.9788Z" fill="black"/>
</svg>