<svg width="24" height="24" viewBox="0 0 24 24" fill="none" xmlns="http://www.w3.org/2000/svg">
<path d="M20.0499 11.4175C20.0499 6.76847 16.2814 3 11.6324 3C6.98331 3 3.21484 6.76847 3.21484 11.4175C3.21484 16.0666 6.98331 19.836 11.6324 19.836C16.2814 19.836 20.0499 16.0666 20.0499 11.4175Z" stroke="black" stroke-width="1.5" stroke-linecap="round" stroke-linejoin="round"/>
<path d="M6.96485 9.50461L6.9375 9.48438" stroke="black" stroke-width="1.5" stroke-linecap="round" stroke-linejoin="round"/>
<path d="M13.5983 16.064H13.5742" stroke="black" stroke-width="1.5" stroke-linecap="round" stroke-linejoin="round"/>
<path d="M17.0996 9.50439H17.1215" stroke="black" stroke-width="1.5" stroke-linecap="round" stroke-linejoin="round"/>
<path d="M11.3345 15.5112L9.86914 16.1631" stroke="black" stroke-width="1.5" stroke-linecap="round" stroke-linejoin="round"/>
<path d="M12.3582 11.2261L11.2246 12.3596" stroke="black" stroke-width="1.5" stroke-linecap="round" stroke-linejoin="round"/>
<path d="M9.86403 8.11598L8.73047 6.98242" stroke="black" stroke-width="1.5" stroke-linecap="round" stroke-linejoin="round"/>
<path fill-rule="evenodd" clip-rule="evenodd" d="M8.53419 13.2026C8.53419 13.7933 8.05547 14.272 7.46485 14.272C6.87423 14.272 6.39648 13.7933 6.39648 13.2026C6.39648 12.612 6.87423 12.1333 7.46485 12.1333C8.05547 12.1333 8.53419 12.612 8.53419 13.2026Z" stroke="black" stroke-width="1.5" stroke-linecap="round" stroke-linejoin="round"/>
<path fill-rule="evenodd" clip-rule="evenodd" d="M15.1279 7.45215C15.1279 8.04277 14.6492 8.52149 14.0586 8.52149C13.469 8.52149 12.9902 8.04277 12.9902 7.45215C12.9902 6.86153 13.469 6.38281 14.0586 6.38281C14.6492 6.38281 15.1279 6.86153 15.1279 7.45215Z" stroke="black" stroke-width="1.5" stroke-linecap="round" stroke-linejoin="round"/>
<path fill-rule="evenodd" clip-rule="evenodd" d="M16.8447 12.7647C16.8447 13.3553 16.366 13.834 15.7754 13.834C15.1858 13.834 14.707 13.3553 14.707 12.7647C14.707 12.174 15.1858 11.6953 15.7754 11.6953C16.366 11.6953 16.8447 12.174 16.8447 12.7647Z" stroke="black" stroke-width="1.5" stroke-linecap="round" stroke-linejoin="round"/>
<path d="M17.3613 17.584L20.7863 21.0002" stroke="black" stroke-width="1.5" stroke-linecap="round" stroke-linejoin="round"/>
</svg>