<svg width="24" height="24" viewBox="0 0 24 24" fill="none" xmlns="http://www.w3.org/2000/svg">
<path d="M3 15.5308V17.1079C3 19.2572 4.74259 20.9998 6.89286 20.9998H8.14994" stroke="black" stroke-width="1.5" stroke-linecap="round" stroke-linejoin="round"/>
<path d="M3 8.46907V6.89189C3 4.74259 4.74259 3 6.89286 3H8.18205" stroke="black" stroke-width="1.5" stroke-linecap="round" stroke-linejoin="round"/>
<path d="M20.9995 8.46907V6.89189C20.9995 4.74259 19.257 3 17.1067 3H15.8496" stroke="black" stroke-width="1.5" stroke-linecap="round" stroke-linejoin="round"/>
<path d="M14.8295 10.9785C17.1072 10.9785 18.9539 12.8252 18.9539 15.1029C18.9539 17.3807 17.1072 19.2264 14.8295 19.2264C12.5518 19.2264 10.7051 17.3807 10.7051 15.1029C10.7051 13.9296 11.1952 12.8706 11.9818 12.1195" stroke="black" stroke-width="1.5" stroke-linecap="round" stroke-linejoin="round"/>
<path d="M17.6367 18.124L19.859 20.3424" stroke="black" stroke-width="1.5" stroke-linecap="round" stroke-linejoin="round"/>
</svg>