<svg width="24" height="25" viewBox="0 0 24 25" fill="none" xmlns="http://www.w3.org/2000/svg">
<path d="M10.6346 8.71031C10.707 8.55376 10.8654 8.44531 11.0495 8.44531C11.2332 8.44531 11.3917 8.55392 11.4643 8.71037C11.4147 8.70751 11.3647 8.70605 11.3144 8.70605H10.7836C10.7336 8.70605 10.6839 8.70749 10.6346 8.71031Z" fill="black"/>
<path d="M10.1799 10.394C10.216 10.3757 10.2504 10.3547 10.2829 10.3311C10.4322 10.2513 10.6026 10.2061 10.7836 10.2061H11.3144C11.4975 10.2061 11.6699 10.2525 11.8205 10.3343C11.85 10.3553 11.881 10.3743 11.9134 10.391C12.0055 10.454 12.0872 10.531 12.1554 10.619C12.1665 10.6354 12.1781 10.6513 12.1903 10.6666C12.3059 10.8341 12.3749 11.0363 12.3782 11.2545C12.378 11.266 12.378 11.2775 12.3783 11.2891V12.4721C12.3783 12.492 12.3778 12.5117 12.3767 12.5312C12.3713 12.5637 12.368 12.5961 12.3669 12.6284C12.2912 13.1419 11.8485 13.536 11.3144 13.536H10.7836C10.2542 13.536 9.81558 13.1501 9.73347 12.644C9.73288 12.6015 9.72864 12.5586 9.72055 12.5159C9.71996 12.5014 9.71967 12.4868 9.71967 12.4721V11.2709C9.71967 11.045 9.78993 10.8356 9.90976 10.6633C9.92022 10.65 9.93026 10.6362 9.93986 10.6221C10.0075 10.5342 10.0885 10.4571 10.1799 10.394Z" fill="black"/>
<path fill-rule="evenodd" clip-rule="evenodd" d="M2.62842 11.0802C2.62842 6.43016 6.39842 2.66016 11.0484 2.66016C15.6984 2.66016 19.4684 6.43016 19.4684 11.0802C19.4684 15.7302 15.6984 19.5002 11.0484 19.5002C6.39842 19.5002 2.62842 15.7302 2.62842 11.0802ZM13.8783 11.9793V12.1462L13.9997 12.1934C14.6895 12.4699 15.1924 13.0789 15.3219 13.8167L15.3234 13.8253L15.4083 14.3445C15.4751 14.7533 15.1979 15.1388 14.7891 15.2057C14.3804 15.2725 13.9948 14.9953 13.9279 14.5866L13.8439 14.0725C13.8141 13.908 13.7215 13.7625 13.5848 13.6643C13.1555 14.48 12.2995 15.036 11.3144 15.036H10.7836C9.79701 15.036 8.94077 14.4791 8.51203 13.6625C8.37417 13.7609 8.28326 13.9067 8.25695 14.0675L8.25558 14.0755L8.16482 14.5946C8.09348 15.0027 7.70487 15.2756 7.29685 15.2042C6.88883 15.1329 6.61589 14.7443 6.68724 14.3363L6.77737 13.8208C6.90036 13.079 7.40644 12.4693 8.09443 12.1935L8.10369 12.1898L8.21967 12.1451V11.9793C7.87482 11.9766 7.56187 12.0152 7.21414 12.155C6.82983 12.3095 6.39301 12.1232 6.23849 11.7389C6.08396 11.3546 6.27024 10.9178 6.65455 10.7633C7.13524 10.57 7.58411 10.4993 7.99207 10.4827C7.35219 10.1891 6.89414 9.59633 6.77547 8.89709L6.68676 8.37854C6.61692 7.97025 6.89128 7.58266 7.29956 7.51281C7.70785 7.44297 8.09544 7.71733 8.16529 8.12561L8.25429 8.6459C8.29135 8.86469 8.44077 9.04964 8.64728 9.13201L9.09253 9.30579V8.90232C9.09253 7.82206 9.96751 6.94531 11.0495 6.94531C12.1302 6.94531 13.0065 7.82167 13.0065 8.90232V9.30513L13.4501 9.13202C13.6566 9.04964 13.806 8.86469 13.8431 8.6459L13.8433 8.6447L13.9321 8.12561C14.0019 7.71733 14.3895 7.44297 14.7978 7.51281C15.2061 7.58266 15.4805 7.97025 15.4106 8.37854L15.3219 8.89714C15.2032 9.59637 14.7452 10.1891 14.1053 10.4827C14.5131 10.4993 14.9617 10.57 15.4423 10.7633C15.8267 10.9178 16.0129 11.3546 15.8584 11.7389C15.7039 12.1232 15.2671 12.3095 14.8828 12.155C14.5352 12.0153 14.2229 11.9766 13.8783 11.9793Z" fill="black"/>
<path fill-rule="evenodd" clip-rule="evenodd" d="M20.9078 19.9578L18.9238 17.9788C18.5328 17.5888 17.8998 17.5888 17.5098 17.9808C17.1198 18.3718 17.1208 19.0058 17.5118 19.3958L19.4958 21.3738C19.6908 21.5678 19.9468 21.6658 20.2018 21.6658C20.4578 21.6658 20.7148 21.5678 20.9098 21.3718C21.2998 20.9808 21.2988 20.3478 20.9078 19.9578Z" fill="black"/>
</svg>