<svg width="24" height="24" viewBox="0 0 24 24" fill="none" xmlns="http://www.w3.org/2000/svg">
<path fill-rule="evenodd" clip-rule="evenodd" d="M13.4819 11.963H12.0819V13.363C12.0819 13.783 11.7419 14.113 11.3319 14.113C10.9119 14.113 10.5819 13.783 10.5819 13.363V11.963H9.18186C8.76186 11.963 8.43186 11.633 8.43186 11.213C8.43186 10.803 8.76186 10.463 9.18186 10.463H10.5819V9.06305C10.5819 8.65305 10.9119 8.31305 11.3319 8.31305C11.7419 8.31305 12.0819 8.65305 12.0819 9.06305V10.463H13.4819C13.8919 10.463 14.2319 10.803 14.2319 11.213C14.2319 11.633 13.8919 11.963 13.4819 11.963ZM11.2519 2.62305C6.51186 2.62305 2.65186 6.48305 2.65186 11.223C2.65186 15.973 6.51186 19.823 11.2519 19.823C16.0019 19.823 19.8519 15.973 19.8519 11.223C19.8519 6.48305 16.0019 2.62305 11.2519 2.62305Z" fill="black"/>
<path fill-rule="evenodd" clip-rule="evenodd" d="M19.583 17.8474C18.61 17.8474 17.818 18.6414 17.818 19.6174C17.818 20.5874 18.61 21.3774 19.583 21.3774C20.556 21.3774 21.348 20.5874 21.348 19.6174C21.348 18.6414 20.556 17.8474 19.583 17.8474Z" fill="black"/>
</svg>