<svg width="25" height="24" viewBox="0 0 25 24" fill="none" xmlns="http://www.w3.org/2000/svg">
<path opacity="0.4" d="M12.5 21C7.52908 21 3.5 16.9709 3.5 12C3.5 7.03005 7.52908 3 12.5 3C17.4709 3 21.5 7.03005 21.5 12" stroke="black" stroke-width="1.5" stroke-linecap="round" stroke-linejoin="round"/>
<path fill-rule="evenodd" clip-rule="evenodd" d="M13.3193 14.2077C13.1801 15.3607 12.1332 16.1828 10.9803 16.0437C9.82728 15.9055 9.00512 14.8577 9.14426 13.7047C9.28339 12.5517 10.3303 11.7305 11.4833 11.8687C12.6363 12.0078 13.4584 13.0547 13.3193 14.2077Z" stroke="black" stroke-width="1.5" stroke-linecap="round" stroke-linejoin="round"/>
<path d="M13.3203 14.2074L14.0752 7.94141C14.0752 7.94141 14.4469 9.41838 15.8703 9.89027" stroke="black" stroke-width="1.5" stroke-linecap="round" stroke-linejoin="round"/>
<path d="M19.6928 18.9176L20.9324 20.1542M18.1547 15.002C19.4031 15.002 20.415 16.0138 20.415 17.2622C20.415 18.5095 19.4031 19.5224 18.1547 19.5224C16.9064 19.5224 15.8945 18.5095 15.8945 17.2622C15.8945 16.0138 16.9064 15.002 18.1547 15.002Z" stroke="black" stroke-width="1.5" stroke-linecap="round" stroke-linejoin="round"/>
</svg>