<svg width="25" height="24" viewBox="0 0 25 24" fill="none" xmlns="http://www.w3.org/2000/svg">
<path d="M20.1307 12.8858C19.6159 16.8362 16.2387 19.8865 12.1482 19.8865C7.70163 19.8865 4.09766 16.2825 4.09766 11.8359C4.09766 7.72893 7.17329 4.34096 11.147 3.84766" stroke="black" stroke-width="1.5" stroke-linecap="round" stroke-linejoin="round"/>
<path opacity="0.4" d="M17.627 17.7329L20.903 21.0002" stroke="black" stroke-width="1.5" stroke-linecap="round" stroke-linejoin="round"/>
<path opacity="0.4" d="M18.051 3V4.04694M18.051 8.23459V9.28153M15.3281 4.57023L16.232 5.0937M19.8686 7.188L20.7716 7.71147M15.3281 7.71147L16.232 7.188M19.8686 5.0937L20.7716 4.57023M19.5306 4.65937C20.3479 5.47668 20.3479 6.80384 19.5306 7.62116C18.7133 8.43847 17.3871 8.43847 16.5698 7.62116C15.7525 6.80384 15.7525 5.47668 16.5698 4.65937C17.3871 3.84302 18.7133 3.84302 19.5306 4.65937Z" stroke="black" stroke-width="1.5" stroke-linecap="round" stroke-linejoin="round"/>
</svg>