<svg width="24" height="24" viewBox="0 0 24 24" fill="none" xmlns="http://www.w3.org/2000/svg">
<path d="M19.9722 5.80888C20.4304 5.31365 20.4003 4.54112 19.905 4.08286L19.0868 3.32492C18.5915 2.86666 17.819 2.89682 17.3607 3.39206L13.8562 7.2508C13.5594 7.58355 13.3736 7.99998 13.3259 8.44364L13.2267 9.36211C13.1556 10.0179 13.7306 10.5608 14.3816 10.4518L15.2718 10.303C15.7505 10.2232 16.1864 9.98188 16.5104 9.62092L18.2413 7.7149" stroke="black" stroke-width="1.5" stroke-linecap="round" stroke-linejoin="round"/>
<path d="M19.7943 12.7134C19.2686 16.748 15.8193 19.8634 11.6416 19.8634C8.54507 19.8634 5.84862 18.1521 4.44629 15.6236" stroke="black" stroke-width="1.5" stroke-linecap="round" stroke-linejoin="round"/>
<path d="M3.41895 11.6411C3.41895 7.44647 6.56017 3.98625 10.6186 3.48242" stroke="black" stroke-width="1.5" stroke-linecap="round" stroke-linejoin="round"/>
<path d="M17.2363 17.6636L20.5823 21.0006" stroke="black" stroke-width="1.5" stroke-linecap="round" stroke-linejoin="round"/>
</svg>