<svg width="25" height="24" viewBox="0 0 25 24" fill="none" xmlns="http://www.w3.org/2000/svg">
<path fill-rule="evenodd" clip-rule="evenodd" d="M7.14286 3.75C5.40668 3.75 4 5.15693 4 6.89189V8.46907C4 8.88329 3.66421 9.21907 3.25 9.21907C2.83579 9.21907 2.5 8.88329 2.5 8.46907V6.89189C2.5 4.32826 4.5785 2.25 7.14286 2.25H8.43205C8.84626 2.25 9.18205 2.58579 9.18205 3C9.18205 3.41421 8.84626 3.75 8.43205 3.75H7.14286ZM15.3501 3C15.3501 2.58579 15.6859 2.25 16.1001 2.25H17.3571C19.9215 2.25 22 4.32826 22 6.89189V8.46907C22 8.88329 21.6642 9.21907 21.25 9.21907C20.8358 9.21907 20.5 8.88329 20.5 8.46907V6.89189C20.5 5.15693 19.0933 3.75 17.3571 3.75H16.1001C15.6859 3.75 15.3501 3.41421 15.3501 3ZM15.0803 11.7286C13.2168 11.7286 11.7059 13.2395 11.7059 15.103C11.7059 16.9663 13.2165 18.4764 15.0803 18.4764C15.9551 18.4764 16.7521 18.1437 17.3517 17.5979C17.353 17.5966 17.3543 17.5953 17.3556 17.5939C17.3705 17.579 17.386 17.5647 17.4018 17.5513C18.0503 16.9365 18.4547 16.067 18.4547 15.103C18.4547 13.2395 16.9438 11.7286 15.0803 11.7286ZM18.9243 18.1002C19.5699 17.2736 19.9547 16.2333 19.9547 15.103C19.9547 12.411 17.7722 10.2286 15.0803 10.2286C12.3883 10.2286 10.2059 12.411 10.2059 15.103C10.2059 17.7952 12.3886 19.9764 15.0803 19.9764C16.1004 19.9764 17.0474 19.6631 17.8302 19.1275L19.5788 20.873C19.8719 21.1656 20.3468 21.1652 20.6394 20.8721C20.9321 20.5789 20.9317 20.104 20.6385 19.8114L18.9243 18.1002ZM3.25 14.7808C3.66421 14.7808 4 15.1166 4 15.5308V17.108C4 18.843 5.40668 20.2499 7.14286 20.2499H8.39994C8.81415 20.2499 9.14994 20.5857 9.14994 20.9999C9.14994 21.4141 8.81415 21.7499 8.39994 21.7499H7.14286C4.5785 21.7499 2.5 19.6716 2.5 17.108V15.5308C2.5 15.1166 2.83579 14.7808 3.25 14.7808Z" fill="black"/>
</svg>