<svg width="25" height="24" viewBox="0 0 25 24" fill="none" xmlns="http://www.w3.org/2000/svg">
<path d="M20.5086 12.4848C19.9686 16.6297 16.424 19.8318 12.1321 19.8318C7.46562 19.8318 3.68359 16.0488 3.68359 11.3833C3.68359 7.07393 6.91102 3.51763 11.0813 3" stroke="black" stroke-width="1.5" stroke-linecap="round" stroke-linejoin="round"/>
<path opacity="0.4" d="M17.8789 17.5713L21.3165 21.0001" stroke="black" stroke-width="1.5" stroke-linecap="round" stroke-linejoin="round"/>
<path opacity="0.4" fill-rule="evenodd" clip-rule="evenodd" d="M15.5222 5.71229C15.1933 4.68384 15.5776 3.50846 16.6567 3.1611C17.2249 2.97915 17.8457 3.08326 18.3234 3.44132C18.8012 3.08715 19.42 2.98207 19.9872 3.1611C21.0663 3.50846 21.4535 4.68384 21.1247 5.71229C20.6119 7.34109 18.3234 8.59722 18.3234 8.59722C18.3234 8.59722 16.0524 7.36055 15.5222 5.71229Z" stroke="black" stroke-width="1.5" stroke-linecap="round" stroke-linejoin="round"/>
</svg>