<svg width="25" height="24" viewBox="0 0 25 24" fill="none" xmlns="http://www.w3.org/2000/svg">
<path d="M17.8134 18.394C15.7348 20.1128 13.0595 20.7471 10.5414 20.2969C10.3056 20.2549 10.1156 20.1069 10.0112 19.9111C9.93449 19.7676 9.90373 19.5986 9.93449 19.4268C10.0072 19.019 10.3974 18.7471 10.8051 18.8198C13.1332 19.2358 15.6161 18.541 17.4052 16.7368C19.9223 14.1992 20.2382 10.3057 18.3598 7.42969L18.0844 8.62012C17.9911 9.02393 17.5883 9.27491 17.1845 9.18213C16.7812 9.08887 16.5292 8.68604 16.6235 8.28174L17.2924 5.38819C17.3373 5.19385 17.4574 5.02588 17.6264 4.91993C17.747 4.84424 17.8866 4.80567 18.0278 4.80664C18.0829 4.80713 18.1381 4.81348 18.1923 4.82618L21.1025 5.49903C21.5063 5.59278 21.7572 5.99512 21.6645 6.39893C21.6064 6.64844 21.4301 6.83985 21.2084 6.92774C21.0717 6.98194 20.9179 6.99659 20.7641 6.96094L19.6801 6.70996C21.7602 9.98975 21.4985 14.3301 18.8862 17.3452L21.7802 20.2329C22.0732 20.5259 22.0732 21 21.7812 21.2939C21.6239 21.4512 21.414 21.5239 21.2079 21.5127C21.0307 21.5029 20.8564 21.4302 20.7201 21.2949L17.8134 18.394Z" fill="black"/>
<path d="M2.51945 16.523C2.6132 16.1201 3.01604 15.8682 3.41936 15.9619L4.50188 16.2124C2.31682 12.7666 2.7177 8.14893 5.71232 5.12989C7.86418 2.96192 10.8505 2.12793 13.6425 2.62598C14.0502 2.69873 14.3212 3.08887 14.2485 3.4961C14.1908 3.81739 13.9369 4.05469 13.6322 4.10498C13.5502 4.11866 13.4648 4.11866 13.3783 4.10303C11.0502 3.68702 8.56633 4.38379 6.77727 6.18604C4.26018 8.72364 3.94523 12.6172 5.82316 15.4932L6.09904 14.3018C6.15617 14.0542 6.33049 13.8638 6.54973 13.7754C6.68742 13.7197 6.84318 13.7041 6.99943 13.7397C7.2758 13.8042 7.48088 14.0142 7.55266 14.2695C7.58537 14.3867 7.58977 14.5132 7.56047 14.6401L6.89104 17.5352C6.84611 17.729 6.72648 17.897 6.55705 18.002C6.38908 18.1069 6.18547 18.1411 5.99113 18.0957L3.08147 17.4229C2.67717 17.3301 2.42619 16.9268 2.51945 16.523Z" fill="black"/>
</svg>