<svg width="24" height="25" viewBox="0 0 24 25" fill="none" xmlns="http://www.w3.org/2000/svg">
<path d="M17.3608 17.8662L20.7848 21.2832L17.3608 17.8662ZM11.6318 3.2832C16.2808 3.2832 20.0488 7.0522 20.0488 11.7002C20.0488 16.3492 16.2808 20.1182 11.6318 20.1182C6.98284 20.1182 3.21484 16.3492 3.21484 11.7002C3.21484 7.0522 6.98284 3.2832 11.6318 3.2832Z" stroke="black" stroke-width="1.5" stroke-linecap="round" stroke-linejoin="round"/>
<path fill-rule="evenodd" clip-rule="evenodd" d="M11.905 14.7488H11.361C10.334 14.7488 9.50195 13.9168 9.50195 12.8898V11.6588C9.50195 10.6318 10.334 9.79883 11.361 9.79883H11.905C12.931 9.79883 13.7639 10.6318 13.7639 11.6588V12.8898C13.7639 13.9168 12.931 14.7488 11.905 14.7488Z" stroke="black" stroke-width="1.5" stroke-linecap="round" stroke-linejoin="round"/>
<path d="M7.91992 8.56445L8.01093 9.09644C8.09393 9.58644 8.42792 9.99846 8.88992 10.1815L9.86093 10.5604" stroke="black" stroke-width="1.5" stroke-linecap="round" stroke-linejoin="round"/>
<path d="M10.3965 10.0732V9.23114C10.3965 8.54814 10.9495 7.99414 11.6335 7.99414C12.3165 7.99414 12.8705 8.54814 12.8705 9.23114V10.0732" stroke="black" stroke-width="1.5" stroke-linecap="round" stroke-linejoin="round"/>
<path d="M15.3453 8.56445L15.2543 9.09644C15.1713 9.58644 14.8373 9.99846 14.3753 10.1815L13.4043 10.5604" stroke="black" stroke-width="1.5" stroke-linecap="round" stroke-linejoin="round"/>
<path d="M13.7637 11.6573C14.4257 11.6073 15.0827 11.5432 15.8487 11.8512" stroke="black" stroke-width="1.5" stroke-linecap="round" stroke-linejoin="round"/>
<path d="M9.50101 11.6573C8.84001 11.6073 8.18202 11.5432 7.41602 11.8512" stroke="black" stroke-width="1.5" stroke-linecap="round" stroke-linejoin="round"/>
<path d="M7.91992 14.9321L8.01294 14.4001C8.09294 13.9111 8.42693 13.5031 8.89093 13.3171L9.51593 13.0762" stroke="black" stroke-width="1.5" stroke-linecap="round" stroke-linejoin="round"/>
<path d="M13.752 13.0762L14.3709 13.3171C14.8349 13.5031 15.1689 13.9101 15.2549 14.4001L15.3419 14.9322" stroke="black" stroke-width="1.5" stroke-linecap="round" stroke-linejoin="round"/>
</svg>