<svg width="24" height="24" viewBox="0 0 24 24" fill="none" xmlns="http://www.w3.org/2000/svg">
<path d="M19.6307 12.8858C19.1159 16.8362 15.7387 19.8865 11.6482 19.8865C7.20163 19.8865 3.59766 16.2825 3.59766 11.8359C3.59766 7.72893 6.67329 4.34096 10.647 3.84766" stroke="black" stroke-width="1.5" stroke-linecap="round" stroke-linejoin="round"/>
<path d="M17.127 17.7329L20.403 21.0002" stroke="black" stroke-width="1.5" stroke-linecap="round" stroke-linejoin="round"/>
<path d="M17.551 3V4.04694M17.551 8.23459V9.28153M14.8281 4.57023L15.732 5.0937M19.3686 7.188L20.2716 7.71147M14.8281 7.71147L15.732 7.188M19.3686 5.0937L20.2716 4.57023M19.0306 4.65937C19.8479 5.47668 19.8479 6.80384 19.0306 7.62116C18.2133 8.43847 16.8871 8.43847 16.0698 7.62116C15.2525 6.80384 15.2525 5.47668 16.0698 4.65937C16.8871 3.84302 18.2133 3.84302 19.0306 4.65937Z" stroke="black" stroke-width="1.5" stroke-linecap="round" stroke-linejoin="round"/>
</svg>