<svg width="25" height="25" viewBox="0 0 25 25" fill="none" xmlns="http://www.w3.org/2000/svg">
<path opacity="0.4" d="M17.8608 17.8662L21.2848 21.2832L17.8608 17.8662ZM12.1318 3.2832C16.7808 3.2832 20.5488 7.0522 20.5488 11.7002C20.5488 16.3492 16.7808 20.1182 12.1318 20.1182C7.48284 20.1182 3.71484 16.3492 3.71484 11.7002C3.71484 7.0522 7.48284 3.2832 12.1318 3.2832Z" stroke="black" stroke-width="1.5" stroke-linecap="round" stroke-linejoin="round"/>
<path fill-rule="evenodd" clip-rule="evenodd" d="M12.405 14.7488H11.861C10.834 14.7488 10.002 13.9168 10.002 12.8898V11.6588C10.002 10.6318 10.834 9.79883 11.861 9.79883H12.405C13.431 9.79883 14.2639 10.6318 14.2639 11.6588V12.8898C14.2639 13.9168 13.431 14.7488 12.405 14.7488Z" stroke="black" stroke-width="1.5" stroke-linecap="round" stroke-linejoin="round"/>
<path d="M8.41992 8.56445L8.51093 9.09644C8.59393 9.58644 8.92792 9.99846 9.38992 10.1815L10.3609 10.5604" stroke="black" stroke-width="1.5" stroke-linecap="round" stroke-linejoin="round"/>
<path d="M10.8965 10.0732V9.23114C10.8965 8.54814 11.4495 7.99414 12.1335 7.99414C12.8165 7.99414 13.3705 8.54814 13.3705 9.23114V10.0732" stroke="black" stroke-width="1.5" stroke-linecap="round" stroke-linejoin="round"/>
<path d="M15.8453 8.56445L15.7543 9.09644C15.6713 9.58644 15.3373 9.99846 14.8753 10.1815L13.9043 10.5604" stroke="black" stroke-width="1.5" stroke-linecap="round" stroke-linejoin="round"/>
<path d="M14.2637 11.6573C14.9257 11.6073 15.5827 11.5432 16.3487 11.8512" stroke="black" stroke-width="1.5" stroke-linecap="round" stroke-linejoin="round"/>
<path d="M10.001 11.6573C9.34001 11.6073 8.68202 11.5432 7.91602 11.8512" stroke="black" stroke-width="1.5" stroke-linecap="round" stroke-linejoin="round"/>
<path d="M8.41992 14.9321L8.51294 14.4001C8.59294 13.9111 8.92693 13.5031 9.39093 13.3171L10.0159 13.0762" stroke="black" stroke-width="1.5" stroke-linecap="round" stroke-linejoin="round"/>
<path d="M14.252 13.0762L14.8709 13.3171C15.3349 13.5031 15.6689 13.9101 15.7549 14.4001L15.8419 14.9322" stroke="black" stroke-width="1.5" stroke-linecap="round" stroke-linejoin="round"/>
</svg>