<svg width="25" height="24" viewBox="0 0 25 24" fill="none" xmlns="http://www.w3.org/2000/svg">
<path d="M20.1685 12.7557C19.646 16.7693 16.2143 19.8682 12.0587 19.8682C7.5412 19.8682 3.87988 16.2069 3.87988 11.6893C3.87988 7.51721 7.00412 4.07384 11.041 3.57275" stroke="black" stroke-width="1.5" stroke-linecap="round" stroke-linejoin="round"/>
<path opacity="0.4" d="M17.625 17.6802L20.9526 21" stroke="black" stroke-width="1.5" stroke-linecap="round" stroke-linejoin="round"/>
<path opacity="0.4" fill-rule="evenodd" clip-rule="evenodd" d="M18.2845 3.1422L19.0317 4.64546C19.0697 4.72135 19.1417 4.77389 19.2254 4.78654L20.8979 5.02784C20.9651 5.03659 21.0264 5.07259 21.0682 5.12611C21.146 5.22827 21.1344 5.37227 21.0409 5.45984L19.8286 6.63228C19.7673 6.68968 19.7391 6.77531 19.7556 6.85801L20.0456 8.51207C20.066 8.64926 19.9726 8.7777 19.8354 8.80007C19.779 8.80883 19.7206 8.7991 19.669 8.7738L18.1794 7.99347C18.1045 7.95261 18.015 7.95261 17.9401 7.99347L16.4397 8.77867C16.3132 8.84191 16.1605 8.79521 16.0914 8.67164C16.0661 8.62202 16.0564 8.56559 16.0661 8.5111L16.3561 6.85606C16.3706 6.77336 16.3434 6.68968 16.2831 6.63033L15.0639 5.45887C14.9657 5.35962 14.9657 5.19908 15.0639 5.09984C15.1048 5.06286 15.1554 5.03757 15.2099 5.02784L16.8834 4.78556C16.9671 4.77194 17.0391 4.7194 17.077 4.64351L17.8233 3.1422C17.8535 3.08091 17.906 3.03518 17.9712 3.0128C18.0364 2.99139 18.1064 2.99723 18.1677 3.02739C18.2183 3.05269 18.2592 3.09258 18.2845 3.1422Z" stroke="black" stroke-width="1.5" stroke-linecap="round" stroke-linejoin="round"/>
</svg>