<svg width="24" height="24" viewBox="0 0 24 24" fill="none" xmlns="http://www.w3.org/2000/svg">
<path fill-rule="evenodd" clip-rule="evenodd" d="M13.7139 9.28756L9.38387 13.6176C9.24387 13.7676 9.05387 13.8376 8.85387 13.8376C8.66387 13.8376 8.47387 13.7676 8.32387 13.6176C8.03387 13.3276 8.03387 12.8576 8.32387 12.5576L12.6539 8.22756C12.9439 7.93756 13.4239 7.93756 13.7139 8.22756C14.0039 8.52756 14.0039 8.99756 13.7139 9.28756ZM13.1539 13.7776H13.1139C12.6939 13.7776 12.3639 13.4476 12.3639 13.0276C12.3639 12.6176 12.6939 12.2776 13.1139 12.2776C13.5239 12.2776 13.8839 12.6176 13.8839 13.0276C13.8839 13.4476 13.5739 13.7776 13.1539 13.7776ZM8.91387 8.06756C9.32387 8.06756 9.69387 8.40756 9.69387 8.81756C9.69387 9.23756 9.38387 9.56756 8.96387 9.56756H8.91387C8.50387 9.56756 8.16387 9.23756 8.16387 8.81756C8.16387 8.40756 8.50387 8.06756 8.91387 8.06756ZM11.1339 2.49756C6.48387 2.49756 2.71387 6.26756 2.71387 10.9176C2.71387 15.5676 6.48387 19.3376 11.1339 19.3376C15.7839 19.3376 19.5539 15.5676 19.5539 10.9176C19.5539 6.26756 15.7839 2.49756 11.1339 2.49756Z" fill="black"/>
<path fill-rule="evenodd" clip-rule="evenodd" d="M20.9926 19.7942L19.0086 17.8152C18.6176 17.4252 17.9846 17.4252 17.5946 17.8172C17.2046 18.2082 17.2056 18.8422 17.5966 19.2322L19.5806 21.2102C19.7756 21.4042 20.0316 21.5022 20.2866 21.5022C20.5426 21.5022 20.7996 21.4042 20.9946 21.2082C21.3846 20.8172 21.3836 20.1842 20.9926 19.7942Z" fill="black"/>
</svg>