<svg width="25" height="24" viewBox="0 0 25 24" fill="none" xmlns="http://www.w3.org/2000/svg">
<path d="M4.67328 13.9074C3.87733 13.1027 3.40735 12.1345 3.29837 10.9951C3.21761 10.0901 3.26237 6.71561 3.26237 5.92939C3.27113 4.5175 4.33856 3.24282 5.73195 2.99858C6.02095 2.95285 9.36821 2.96161 10.7616 2.96161C12.1278 2.96161 13.3032 3.45008 14.2714 4.41825C14.4854 4.6333 14.7005 4.84737 14.9146 5.06241" stroke="black" stroke-width="1.5" stroke-linecap="round" stroke-linejoin="round"/>
<path d="M17.3462 18.0107C16.631 18.7258 15.9119 19.4381 15.1938 20.1504C13.9727 21.3531 12.1093 21.3355 10.8881 20.1231C9.74691 18.9819 8.60306 17.8434 7.46094 16.7031" stroke="black" stroke-width="1.5" stroke-linecap="round" stroke-linejoin="round"/>
<path d="M6.97122 8.28127C6.96635 9.15409 7.69711 9.88581 8.57479 9.88776C9.45831 9.88971 10.1891 9.17063 10.193 8.29586C10.1969 7.4065 9.48167 6.66893 8.61274 6.66602" stroke="black" stroke-width="1.5" stroke-linecap="round" stroke-linejoin="round"/>
<path fill-rule="evenodd" clip-rule="evenodd" d="M17.5642 7.91211C19.2835 7.91211 20.6769 9.30551 20.6769 11.0249C20.6769 12.7442 19.2835 14.1386 17.5642 14.1386C15.8448 14.1386 14.4514 12.7442 14.4514 11.0249C14.4514 9.30551 15.8448 7.91211 17.5642 7.91211Z" stroke="black" stroke-width="1.5" stroke-linecap="round" stroke-linejoin="round"/>
<path d="M19.6833 13.3066L21.2499 14.8703" stroke="black" stroke-width="1.5" stroke-linecap="round" stroke-linejoin="round"/>
</svg>