<svg width="24" height="24" viewBox="0 0 24 24" fill="none" xmlns="http://www.w3.org/2000/svg">
<path opacity="0.4" fill-rule="evenodd" clip-rule="evenodd" d="M11.1334 2.49805C6.48338 2.49805 2.71338 6.26805 2.71338 10.918C2.71338 15.568 6.48338 19.338 11.1334 19.338C15.7834 19.338 19.5534 15.568 19.5534 10.918C19.5534 6.26805 15.7834 2.49805 11.1334 2.49805Z" fill="black"/>
<path d="M21.1398 10.2902C21.3043 9.91008 21.1295 9.46856 20.7494 9.30406C20.3692 9.13956 19.9277 9.31438 19.7632 9.69453L19.2592 10.8593L18.74 9.97271C18.6051 9.74233 18.3578 9.60104 18.0909 9.60172C17.8239 9.60241 17.5774 9.74497 17.4437 9.97605L16.9333 10.8578L16.4223 9.69139C16.256 9.312 15.8137 9.13919 15.4343 9.30542C15.0549 9.47165 14.8821 9.91397 15.0483 10.2934L16.1537 12.8162C16.2672 13.0752 16.5166 13.2483 16.7988 13.2641C17.0811 13.2799 17.3482 13.1356 17.4898 12.8909L18.0966 11.8424L18.7126 12.8943C18.8554 13.1381 19.1232 13.281 19.4053 13.2639C19.6874 13.2467 19.9359 13.0725 20.0481 12.8131L21.1398 10.2902Z" fill="black"/>
<path d="M6.65489 9.30406C7.03504 9.46856 7.20986 9.91008 7.04536 10.2902L5.95365 12.8131C5.84141 13.0725 5.59291 13.2467 5.31082 13.2639C5.02874 13.281 4.76096 13.1381 4.61814 12.8943L4.00214 11.8424L3.39533 12.8909C3.25373 13.1356 2.98659 13.2799 2.70434 13.2641C2.42209 13.2483 2.17269 13.0752 2.05924 12.8162L0.95386 10.2934C0.787629 9.91397 0.960433 9.47165 1.33983 9.30542C1.71922 9.13919 2.16154 9.312 2.32777 9.69139L2.83885 10.8578L3.34917 9.97605C3.4829 9.74497 3.72939 9.60241 3.99637 9.60172C4.26335 9.60104 4.51057 9.74233 4.64549 9.97271L5.1647 10.8593L5.66872 9.69453C5.83322 9.31438 6.27474 9.13956 6.65489 9.30406Z" fill="black"/>
<path d="M14.0913 10.2902C14.2558 9.91008 14.0809 9.46856 13.7008 9.30406C13.3206 9.13956 12.8791 9.31438 12.7146 9.69453L12.2106 10.8593L11.6914 9.97271C11.5565 9.74233 11.3092 9.60104 11.0423 9.60172C10.7753 9.60241 10.5288 9.74497 10.3951 9.97605L9.88474 10.8578L9.37367 9.69139C9.20744 9.312 8.76512 9.13919 8.38573 9.30542C8.00633 9.47165 7.83353 9.91397 7.99976 10.2934L9.10514 12.8162C9.21859 13.0752 9.46799 13.2483 9.75024 13.2641C10.0325 13.2799 10.2996 13.1356 10.4412 12.8909L11.048 11.8424L11.664 12.8943C11.8069 13.1381 12.0746 13.281 12.3567 13.2639C12.6388 13.2467 12.8873 13.0725 12.9995 12.8131L14.0913 10.2902Z" fill="black"/>
<path d="M19.0089 17.8157L20.9929 19.7947C21.3839 20.1847 21.3849 20.8177 20.9949 21.2087C20.7999 21.4047 20.5429 21.5027 20.2869 21.5027C20.0319 21.5027 19.7759 21.4047 19.5809 21.2107L17.5969 19.2327C17.2059 18.8427 17.2049 18.2087 17.5949 17.8177C17.9849 17.4257 18.6179 17.4257 19.0089 17.8157Z" fill="black"/>
</svg>