<svg width="25" height="25" viewBox="0 0 25 25" fill="none" xmlns="http://www.w3.org/2000/svg">
<path fill-rule="evenodd" clip-rule="evenodd" d="M2.75 6.33594C2.75 5.92172 3.08579 5.58594 3.5 5.58594H16.2792C16.6934 5.58594 17.0292 5.92172 17.0292 6.33594V8.60277C17.0292 9.01698 16.6934 9.35277 16.2792 9.35277C15.865 9.35277 15.5292 9.01698 15.5292 8.60277V7.08594H4.25V8.60277C4.25 9.01698 3.91421 9.35277 3.5 9.35277C3.08579 9.35277 2.75 9.01698 2.75 8.60277V6.33594Z" fill="black"/>
<path fill-rule="evenodd" clip-rule="evenodd" d="M17.9843 12.957C16.7579 12.957 15.7637 13.9513 15.7637 15.1777C15.7637 16.403 16.7577 17.3974 17.9843 17.3974C18.5611 17.3974 19.0865 17.1775 19.4813 16.8171C19.4906 16.808 19.5002 16.7991 19.5099 16.7905C19.938 16.3858 20.205 15.8128 20.205 15.1777C20.205 13.9513 19.2108 12.957 17.9843 12.957ZM21.0293 17.3156C21.455 16.7107 21.705 15.9734 21.705 15.1777C21.705 13.1228 20.0392 11.457 17.9843 11.457C15.9295 11.457 14.2637 13.1228 14.2637 15.1777C14.2637 17.2317 15.9296 18.8974 17.9843 18.8974C18.7004 18.8974 19.3693 18.6951 19.9369 18.3445L20.9709 19.3765C21.2641 19.6691 21.739 19.6687 22.0316 19.3755C22.3242 19.0823 22.3237 18.6074 22.0305 18.3148L21.0293 17.3156Z" fill="black"/>
<path fill-rule="evenodd" clip-rule="evenodd" d="M9.82875 5.58594C10.243 5.58594 10.5787 5.92172 10.5787 6.33594V18.4486H12.7405C13.1548 18.4486 13.4905 18.7844 13.4905 19.1986C13.4905 19.6128 13.1548 19.9486 12.7405 19.9486H7.03906C6.62485 19.9486 6.28906 19.6128 6.28906 19.1986C6.28906 18.7844 6.62485 18.4486 7.03906 18.4486H9.07875V6.33594C9.07875 5.92172 9.41453 5.58594 9.82875 5.58594Z" fill="black"/>
</svg>