<svg width="24" height="24" viewBox="0 0 24 24" fill="none" xmlns="http://www.w3.org/2000/svg">
<path fill-rule="evenodd" clip-rule="evenodd" d="M13.2948 12.205C13.5848 12.505 13.5848 12.975 13.2948 13.275C13.1448 13.415 12.9548 13.485 12.7648 13.485C12.5748 13.485 12.3748 13.415 12.2348 13.275L11.2448 12.275L10.2548 13.275C9.96479 13.565 9.48479 13.565 9.19479 13.275C8.89479 12.975 8.89479 12.505 9.19479 12.205L10.1848 11.215L9.19479 10.225C8.89479 9.935 8.89479 9.465 9.19479 9.165C9.48479 8.875 9.96479 8.875 10.2548 9.165L11.2448 10.155L12.2348 9.165C12.5248 8.875 13.0048 8.875 13.2948 9.165C13.5848 9.465 13.5848 9.935 13.2948 10.225L12.3048 11.215L13.2948 12.205ZM11.2548 2.625C6.51479 2.625 2.65479 6.485 2.65479 11.225C2.65479 15.975 6.51479 19.825 11.2548 19.825C15.9948 19.825 19.8548 15.975 19.8548 11.225C19.8548 6.485 15.9948 2.625 11.2548 2.625Z" fill="black"/>
<path fill-rule="evenodd" clip-rule="evenodd" d="M19.5848 17.8452C18.6048 17.8452 17.8148 18.6452 17.8148 19.6152C17.8148 20.5852 18.6048 21.3752 19.5848 21.3752C20.5548 21.3752 21.3448 20.5852 21.3448 19.6152C21.3448 18.6452 20.5548 17.8452 19.5848 17.8452Z" fill="black"/>
</svg>