<svg width="24" height="24" viewBox="0 0 24 24" fill="none" xmlns="http://www.w3.org/2000/svg">
<path fill-rule="evenodd" clip-rule="evenodd" d="M13.2163 10.7385C12.9363 11.6485 11.8263 12.5285 11.1363 12.9785C10.4463 12.5285 9.34628 11.6585 9.04628 10.7385C8.84628 10.1185 9.01628 9.34852 9.69628 9.12852C10.0363 9.01852 10.4063 9.08852 10.6763 9.29852C10.9463 9.48852 11.3063 9.49852 11.5763 9.29852C11.8663 9.08852 12.2363 9.02852 12.5663 9.12852C13.2563 9.34852 13.4163 10.1285 13.2163 10.7385Z" fill="black"/>
<path fill-rule="evenodd" clip-rule="evenodd" d="M14.6463 11.1985C14.0663 13.0585 11.7563 14.3685 11.4963 14.5085C11.3863 14.5785 11.2563 14.6085 11.1363 14.6085C11.0063 14.6085 10.8863 14.5785 10.7763 14.5185C10.5163 14.3685 8.22631 13.0785 7.61631 11.1985C7.51631 10.8785 7.46631 10.5585 7.46631 10.2485C7.46631 9.08854 8.13631 8.04853 9.23631 7.69853C9.87631 7.49854 10.5463 7.54853 11.1363 7.82854C11.7263 7.54853 12.4063 7.50853 13.0263 7.69853C14.4163 8.15854 15.1263 9.68853 14.6463 11.1985ZM11.1263 2.49854C6.47631 2.49854 2.71631 6.26854 2.71631 10.9185C2.71631 15.5685 6.47631 19.3385 11.1263 19.3385C15.7763 19.3385 19.5463 15.5685 19.5463 10.9185C19.5463 6.26854 15.7763 2.49854 11.1263 2.49854Z" fill="black"/>
<path fill-rule="evenodd" clip-rule="evenodd" d="M20.9899 19.793L19.0069 17.814C18.6159 17.424 17.9819 17.424 17.5929 17.816C17.2019 18.207 17.2029 18.841 17.5939 19.231L19.5779 21.209C19.7729 21.403 20.0289 21.501 20.2839 21.501C20.5399 21.501 20.7969 21.403 20.9919 21.207C21.3819 20.816 21.3809 20.183 20.9899 19.793Z" fill="black"/>
</svg>