<svg width="24" height="24" viewBox="0 0 24 24" fill="none" xmlns="http://www.w3.org/2000/svg">
<path opacity="0.4" fill-rule="evenodd" clip-rule="evenodd" d="M11.1353 2.5C6.48533 2.5 2.71533 6.27 2.71533 10.92C2.71533 15.57 6.48533 19.34 11.1353 19.34C15.7753 19.34 19.5453 15.57 19.5453 10.92C19.5453 6.27 15.7753 2.5 11.1353 2.5Z" fill="black"/>
<path fill-rule="evenodd" clip-rule="evenodd" d="M14.1339 11.6477C13.7239 11.6477 13.3839 11.3077 13.3839 10.8977C13.3839 9.62766 12.3539 8.59766 11.0839 8.59766C10.5339 8.59766 9.99394 8.79766 9.56394 9.16766C9.25394 9.44766 8.78394 9.40766 8.50394 9.09766C8.23394 8.78766 8.26394 8.31766 8.58394 8.03766C9.27394 7.43766 10.1639 7.09766 11.0839 7.09766C13.1839 7.09766 14.8839 8.79766 14.8839 10.8977C14.8839 11.3077 14.5539 11.6477 14.1339 11.6477ZM13.6039 13.7377C12.9139 14.3477 12.0239 14.6877 11.0839 14.6877C8.99394 14.6877 7.28394 12.9877 7.28394 10.8977C7.28394 10.4877 7.62394 10.1477 8.03394 10.1477C8.45394 10.1477 8.78394 10.4877 8.78394 10.8977C8.78394 12.1577 9.81394 13.1877 11.0839 13.1877C11.6539 13.1877 12.1939 12.9877 12.6039 12.6177C12.9139 12.3377 13.3839 12.3677 13.6639 12.6777C13.9339 12.9877 13.9139 13.4577 13.6039 13.7377Z" fill="black"/>
<path fill-rule="evenodd" clip-rule="evenodd" d="M20.9922 19.7948L19.0092 17.8158C18.6182 17.4258 17.9842 17.4258 17.5952 17.8178C17.2042 18.2088 17.2052 18.8428 17.5962 19.2328L19.5802 21.2108C19.7752 21.4048 20.0312 21.5028 20.2862 21.5028C20.5422 21.5028 20.7992 21.4048 20.9942 21.2088C21.3842 20.8178 21.3832 20.1848 20.9922 19.7948Z" fill="black"/>
</svg>