<svg width="25" height="24" viewBox="0 0 25 24" fill="none" xmlns="http://www.w3.org/2000/svg">
<path fill-rule="evenodd" clip-rule="evenodd" d="M11.8819 3.75C7.64733 3.75 4.21484 7.18249 4.21484 11.4171C4.21484 15.6518 7.64744 19.0851 11.8819 19.0851C13.8843 19.0851 15.7073 18.3174 17.0729 17.0603C17.0749 17.0583 17.0768 17.0563 17.0788 17.0543C17.0945 17.0386 17.1107 17.0237 17.1273 17.0097C18.6179 15.6107 19.549 13.6226 19.549 11.4171C19.549 7.18249 16.1165 3.75 11.8819 3.75ZM18.6684 17.5805C20.1475 15.9524 21.049 13.7899 21.049 11.4171C21.049 6.35406 16.9449 2.25 11.8819 2.25C6.8189 2.25 2.71484 6.35406 2.71484 11.4171C2.71484 16.48 6.81879 20.5851 11.8819 20.5851C14.0318 20.5851 16.0088 19.8449 17.572 18.6056L20.505 21.531C20.7982 21.8235 21.2731 21.8229 21.5656 21.5297C21.8582 21.2364 21.8575 20.7615 21.5643 20.469L18.6684 17.5805ZM8.64952 9.20737C8.64952 8.79315 8.9853 8.45737 9.39952 8.45737H9.40925C9.82346 8.45737 10.1592 8.79315 10.1592 9.20737C10.1592 9.62158 9.82346 9.95737 9.40925 9.95737H9.39952C8.9853 9.95737 8.64952 9.62158 8.64952 9.20737ZM13.5143 9.20737C13.5143 8.79315 13.8501 8.45737 14.2643 8.45737H14.274C14.6883 8.45737 15.024 8.79315 15.024 9.20737C15.024 9.62158 14.6883 9.95737 14.274 9.95737H14.2643C13.8501 9.95737 13.5143 9.62158 13.5143 9.20737ZM11.882 13.9851C11.2261 13.9851 10.6118 14.3091 10.1755 14.8764C9.92302 15.2047 9.45214 15.2662 9.12379 15.0137C8.79544 14.7612 8.73396 14.2903 8.98647 13.962C9.67108 13.0717 10.7049 12.4851 11.882 12.4851C13.058 12.4851 14.0931 13.0716 14.777 13.9625C15.0293 14.291 14.9674 14.7618 14.6388 15.0141C14.3103 15.2663 13.8394 15.2044 13.5872 14.8759C13.1522 14.3093 12.5372 13.9851 11.882 13.9851Z" fill="black"/>
</svg>