<svg width="25" height="24" viewBox="0 0 25 24" fill="none" xmlns="http://www.w3.org/2000/svg">
<path d="M11.601 21.75H8.03201C4.72401 21.75 2.5 19.429 2.5 15.974V8.027C2.5 4.572 4.72401 2.25 8.03201 2.25H16.467C19.776 2.25 22 4.572 22 8.027V11.109C22 11.3079 21.921 11.4987 21.7803 11.6393C21.6397 11.78 21.4489 11.859 21.25 11.859C21.0511 11.859 20.8603 11.78 20.7197 11.6393C20.579 11.4987 20.5 11.3079 20.5 11.109V8.027C20.5 5.427 18.917 3.75 16.467 3.75H8.03201C5.58301 3.75 4 5.429 4 8.027V15.974C4 18.574 5.58301 20.25 8.03201 20.25H11.601C11.7999 20.25 11.9907 20.329 12.1313 20.4697C12.272 20.6103 12.351 20.8011 12.351 21C12.351 21.1989 12.272 21.3897 12.1313 21.5303C11.9907 21.671 11.7999 21.75 11.601 21.75V21.75Z" fill="black"/>
<path d="M9.58499 16.3101C9.46668 16.3101 9.34847 16.3031 9.23098 16.2891C8.48055 16.1985 7.79492 15.8191 7.31939 15.2315C6.84387 14.644 6.61583 13.8943 6.68359 13.1415C6.75135 12.3886 7.10957 11.6917 7.68237 11.1985C8.25517 10.7053 8.99754 10.4545 9.7521 10.4992C10.5067 10.544 11.2141 10.8808 11.7246 11.4383C12.2351 11.9958 12.5084 12.7302 12.4867 13.4857C12.465 14.2413 12.1499 14.9587 11.6082 15.486C11.0666 16.0132 10.3409 16.3088 9.58499 16.3101V16.3101ZM9.57901 11.9911C9.23447 11.9917 8.90201 12.1182 8.64419 12.3468C8.38637 12.5753 8.22092 12.8902 8.17898 13.2321C8.15685 13.416 8.17118 13.6024 8.2211 13.7807C8.27101 13.959 8.35555 14.1258 8.46991 14.2714C8.58426 14.4171 8.72618 14.5388 8.88757 14.6296C9.04896 14.7204 9.22664 14.7785 9.41049 14.8006C9.59434 14.8228 9.78075 14.8085 9.95907 14.7586C10.1374 14.7086 10.3041 14.6241 10.4498 14.5097C10.5954 14.3954 10.7171 14.2535 10.8079 14.0921C10.8987 13.9307 10.9569 13.753 10.979 13.5691V13.5691C11.0236 13.1983 10.9193 12.8249 10.6888 12.5309C10.4584 12.2369 10.1208 12.0464 9.75 12.0011C9.69326 11.9943 9.63616 11.9909 9.57901 11.9911V11.9911Z" fill="black"/>
<path d="M21.2489 21.7494C21.1505 21.7495 21.0531 21.7302 20.9621 21.6926C20.8712 21.655 20.7886 21.5999 20.7189 21.5303L19.5919 20.4053C19.0206 20.7568 18.3627 20.942 17.6919 20.9404C16.8766 20.9406 16.0848 20.6674 15.4431 20.1645C14.8014 19.6616 14.3468 18.958 14.1522 18.1662C13.9576 17.3745 14.0341 16.5404 14.3695 15.7973C14.7049 15.0541 15.2799 14.445 16.0023 14.0672C16.7248 13.6894 17.5531 13.5648 18.3548 13.7133C19.1565 13.8619 19.8852 14.275 20.4243 14.8866C20.9635 15.4981 21.282 16.2728 21.3289 17.0868C21.3757 17.9008 21.1483 18.7069 20.6829 19.3763L21.7769 20.4694C21.8822 20.5741 21.9539 20.7077 21.9831 20.8532C22.0123 20.9988 21.9975 21.1497 21.9407 21.2869C21.8839 21.4241 21.7876 21.5412 21.6641 21.6236C21.5406 21.7059 21.3954 21.7497 21.2469 21.7494H21.2489ZM17.6939 15.1553C17.2703 15.1555 16.8563 15.2813 16.5042 15.5168C16.1521 15.7523 15.8777 16.0869 15.7157 16.4783C15.5537 16.8697 15.5114 17.3004 15.5942 17.7158C15.677 18.1313 15.8811 18.5129 16.1807 18.8123C16.4803 19.1118 16.8619 19.3157 17.2774 19.3983C17.6929 19.4808 18.1235 19.4384 18.5149 19.2762C18.9062 19.1141 19.2407 18.8395 19.476 18.4873C19.7113 18.135 19.8369 17.721 19.8369 17.2973C19.8364 16.7292 19.6105 16.1844 19.2087 15.7826C18.8069 15.3808 18.2621 15.1549 17.6939 15.1543V15.1553Z" fill="black"/>
<path d="M11.7231 14.4091C11.6927 14.4092 11.6623 14.4072 11.6321 14.4031C11.5344 14.3914 11.4399 14.3605 11.3542 14.3122C11.2684 14.2639 11.193 14.1991 11.1323 14.1217C11.0715 14.0442 11.0266 13.9556 11.0002 13.8608C10.9737 13.7659 10.9663 13.6669 10.9781 13.5691L11.7491 7.13314C11.77 6.95872 11.8515 6.79721 11.9795 6.67691C12.1075 6.5566 12.2738 6.48517 12.4491 6.47514C12.6247 6.46067 12.7997 6.50976 12.9421 6.61347C13.0845 6.71717 13.185 6.86859 13.2251 7.04014C13.3219 7.37328 13.4943 7.67958 13.7288 7.93524C13.9633 8.19089 14.2536 8.389 14.5771 8.51414C14.6728 8.54337 14.7616 8.59143 14.8385 8.65551C14.9153 8.71959 14.9785 8.7984 15.0244 8.88728C15.0703 8.97616 15.0979 9.07332 15.1057 9.17305C15.1135 9.27278 15.1013 9.37306 15.0697 9.46799C15.0382 9.56292 14.9879 9.65057 14.922 9.7258C14.8561 9.80102 14.7757 9.86229 14.6858 9.90601C14.5958 9.94973 14.498 9.975 14.3981 9.98034C14.2982 9.98569 14.1983 9.971 14.1041 9.93714C13.7019 9.80342 13.3287 9.59474 13.0041 9.32214L12.4701 13.7481C12.4485 13.9308 12.3604 14.0992 12.2227 14.2211C12.0849 14.343 11.9071 14.4099 11.7231 14.4091Z" fill="black"/>
</svg>