<svg width="25" height="24" viewBox="0 0 25 24" fill="none" xmlns="http://www.w3.org/2000/svg">
<path fill-rule="evenodd" clip-rule="evenodd" d="M11.041 3.54272C7.1537 3.54272 4.00244 6.69398 4.00244 10.5813C4.00244 14.4685 7.1537 17.6198 11.041 17.6198C14.9283 17.6198 18.0795 14.4685 18.0795 10.5813C18.0795 6.69398 14.9283 3.54272 11.041 3.54272ZM2.00244 10.5813C2.00244 5.58942 6.04913 1.54272 11.041 1.54272C16.0328 1.54272 20.0795 5.58942 20.0795 10.5813C20.0795 15.5731 16.0328 19.6198 11.041 19.6198C6.04913 19.6198 2.00244 15.5731 2.00244 10.5813Z" fill="black"/>
<path opacity="0.4" fill-rule="evenodd" clip-rule="evenodd" d="M16.5281 15.0872L22.4976 21.0412L21.0853 22.4572L15.1157 16.5032L16.5281 15.0872Z" fill="black"/>
</svg>