<svg width="24" height="25" viewBox="0 0 24 25" fill="none" xmlns="http://www.w3.org/2000/svg">
<path fill-rule="evenodd" clip-rule="evenodd" d="M20.9927 20.1175L19.0087 18.1385C18.6177 17.7485 17.9847 17.7485 17.5947 18.1405C17.2047 18.5315 17.2057 19.1655 17.5967 19.5555L19.5807 21.5335C19.7757 21.7275 20.0317 21.8255 20.2867 21.8255C20.5427 21.8255 20.7997 21.7275 20.9947 21.5315C21.3847 21.1405 21.3837 20.5075 20.9927 20.1175Z" fill="black"/>
<path d="M10.986 13.9568C11.0398 13.9805 11.0891 14.0012 11.1331 14.0189C11.1771 14.0012 11.2265 13.9805 11.2803 13.9567C11.5175 13.8519 11.8291 13.692 12.1359 13.4711C12.7586 13.0226 13.2653 12.4003 13.2653 11.5377C13.2653 10.9304 13.2719 10.4794 13.2782 10.1415L13.2827 9.90635C13.2864 9.72257 13.289 9.59144 13.2889 9.49047C13.2415 9.46797 13.1844 9.44233 13.1182 9.41392C12.8985 9.31979 12.6133 9.21076 12.317 9.10651C12.0212 9.00243 11.725 8.9069 11.485 8.83848C11.3645 8.80413 11.265 8.77857 11.1904 8.76226C11.1651 8.75674 11.1464 8.7531 11.1332 8.75073C11.1202 8.7531 11.1015 8.75673 11.0765 8.76223C11.002 8.77857 10.9025 8.80418 10.782 8.83861C10.5421 8.90717 10.246 9.00288 9.95016 9.10711C9.65384 9.21149 9.36845 9.32063 9.1486 9.41478C9.0825 9.44309 9.02555 9.46867 8.97806 9.49112C8.97804 9.59205 8.98064 9.72298 8.98427 9.90603L8.98881 10.1412C8.99507 10.4793 9.00168 10.9304 9.00168 11.5377C9.00168 12.4004 9.50827 13.0227 10.1307 13.4711C10.4374 13.692 10.7489 13.852 10.986 13.9568Z" fill="black"/>
<path fill-rule="evenodd" clip-rule="evenodd" d="M2.71338 11.2403C2.71338 6.59031 6.48338 2.82031 11.1334 2.82031C15.7834 2.82031 19.5534 6.59031 19.5534 11.2403C19.5534 15.8903 15.7834 19.6603 11.1334 19.6603C6.48338 19.6603 2.71338 15.8903 2.71338 11.2403ZM11.133 7.24707C10.9975 7.24707 10.8533 7.27551 10.7551 7.29705C10.6392 7.32248 10.5073 7.35708 10.3699 7.39634C10.0941 7.47515 9.76847 7.58076 9.45178 7.69232C9.13554 7.80372 8.81748 7.92482 8.55811 8.0359C8.42926 8.09108 8.30574 8.14767 8.20059 8.20257C8.12293 8.24311 7.96775 8.32588 7.84807 8.44557L7.83902 8.45456C7.78002 8.51301 7.63702 8.6547 7.55539 8.88124C7.4844 9.07826 7.47963 9.28436 7.4783 9.43477C7.47715 9.56446 7.48058 9.73718 7.48494 9.95635L7.48907 10.1689C7.49521 10.5005 7.50168 10.9421 7.50168 11.5377C7.50168 13.0816 8.43577 14.0988 9.25398 14.6882C9.66764 14.9862 10.0765 15.1948 10.3797 15.3287C10.5323 15.3962 10.6609 15.446 10.7537 15.4796C10.8001 15.4964 10.8378 15.5093 10.8653 15.5184L10.8986 15.5292L10.9093 15.5325L10.913 15.5337L10.9152 15.5343C11.0568 15.5772 11.2086 15.5774 11.3503 15.5345L10.9152 15.5343L11.3515 15.5341L11.353 15.5337L11.3567 15.5325L11.3674 15.5292L11.4008 15.5184C11.4282 15.5093 11.4659 15.4965 11.5124 15.4796C11.6052 15.446 11.7338 15.3962 11.8865 15.3288C12.1897 15.1948 12.5987 14.9862 13.0125 14.6883C13.8309 14.0989 14.7653 13.0817 14.7653 11.5377C14.7653 10.9421 14.7718 10.5007 14.7779 10.1693L14.782 9.95673C14.7864 9.73789 14.7898 9.5653 14.7887 9.4358C14.7873 9.28521 14.7825 9.07964 14.7118 8.88286C14.6309 8.6581 14.4896 8.51649 14.4312 8.45792L14.422 8.44871L14.421 8.44767C14.3009 8.32664 14.145 8.24323 14.0672 8.20246C13.9618 8.14725 13.838 8.09048 13.7091 8.0352C13.4494 7.92394 13.1312 7.80284 12.8148 7.69153C12.498 7.58006 12.1722 7.47462 11.8963 7.39595C11.7588 7.35676 11.6268 7.32224 11.5108 7.29687C11.4123 7.27536 11.2683 7.24707 11.133 7.24707Z" fill="black"/>
</svg>