<svg width="24" height="24" viewBox="0 0 24 24" fill="none" xmlns="http://www.w3.org/2000/svg">
<path fill-rule="evenodd" clip-rule="evenodd" d="M11.8768 11.4876C11.8768 11.9076 11.5368 12.2376 11.1268 12.2376C10.7068 12.2376 10.3768 11.9076 10.3768 11.4876V7.45756C10.3768 7.04756 10.7068 6.70756 11.1268 6.70756C11.5368 6.70756 11.8768 7.04756 11.8768 7.45756V11.4876ZM11.8768 14.3076C11.8768 14.7276 11.5468 15.0576 11.1268 15.0576C10.7168 15.0576 10.3768 14.7276 10.3768 14.3076C10.3768 13.8976 10.7168 13.5176 11.1268 13.5176C11.5468 13.5176 11.8768 13.8176 11.8768 14.2276V14.3076ZM11.1268 2.49756C6.4768 2.49756 2.7168 6.26756 2.7168 10.9176C2.7168 15.5676 6.4768 19.3376 11.1268 19.3376C15.7768 19.3376 19.5468 15.5676 19.5468 10.9176C19.5468 6.26756 15.7768 2.49756 11.1268 2.49756Z" fill="black"/>
<path fill-rule="evenodd" clip-rule="evenodd" d="M20.9889 19.7942L19.0049 17.8152C18.6139 17.4252 17.9809 17.4252 17.5909 17.8172C17.2009 18.2082 17.2019 18.8422 17.5929 19.2322L19.5769 21.2102C19.7719 21.4042 20.0279 21.5022 20.2829 21.5022C20.5389 21.5022 20.7959 21.4042 20.9909 21.2082C21.3809 20.8172 21.3799 20.1842 20.9889 19.7942Z" fill="black"/>
</svg>