<svg width="25" height="24" viewBox="0 0 25 24" fill="none" xmlns="http://www.w3.org/2000/svg">
<path fill-rule="evenodd" clip-rule="evenodd" d="M11.8819 3.75C7.64733 3.75 4.21484 7.18249 4.21484 11.4171C4.21484 15.6518 7.64744 19.0851 11.8819 19.0851C13.8843 19.0851 15.7073 18.3174 17.0729 17.0603C17.0749 17.0583 17.0768 17.0563 17.0788 17.0543C17.0945 17.0386 17.1107 17.0237 17.1273 17.0097C18.6179 15.6107 19.549 13.6226 19.549 11.4171C19.549 7.18249 16.1165 3.75 11.8819 3.75ZM18.6684 17.5805C20.1475 15.9524 21.049 13.7899 21.049 11.4171C21.049 6.35406 16.9449 2.25 11.8819 2.25C6.8189 2.25 2.71484 6.35406 2.71484 11.4171C2.71484 16.48 6.81879 20.5851 11.8819 20.5851C14.0318 20.5851 16.0088 19.8449 17.572 18.6056L20.505 21.531C20.7982 21.8235 21.2731 21.8229 21.5656 21.5297C21.8582 21.2364 21.8575 20.7615 21.5643 20.469L18.6684 17.5805ZM7.76706 11.1533C7.76706 10.7391 8.10285 10.4033 8.51706 10.4033H8.53065C8.94487 10.4033 9.28065 10.7391 9.28065 11.1533C9.28065 11.5675 8.94487 11.9033 8.53065 11.9033H8.51706C8.10285 11.9033 7.76706 11.5675 7.76706 11.1533ZM14.5642 11.1533C14.5642 10.7391 14.9 10.4033 15.3142 10.4033H15.3278C15.742 10.4033 16.0778 10.7391 16.0778 11.1533C16.0778 11.5675 15.742 11.9033 15.3278 11.9033H15.3142C14.9 11.9033 14.5642 11.5675 14.5642 11.1533ZM9.41439 14.8256C9.41439 14.4114 9.75018 14.0756 10.1644 14.0756H13.598C14.0122 14.0756 14.348 14.4114 14.348 14.8256C14.348 15.2399 14.0122 15.5756 13.598 15.5756H10.1644C9.75018 15.5756 9.41439 15.2399 9.41439 14.8256Z" fill="black"/>
</svg>