<svg width="25" height="24" viewBox="0 0 25 24" fill="none" xmlns="http://www.w3.org/2000/svg">
<path fill-rule="evenodd" clip-rule="evenodd" d="M21.6563 10.2004L18.5563 4.84043C17.9763 3.83043 16.8863 3.19043 15.7163 3.19043H9.44629C8.27629 3.19043 7.18629 3.82043 6.60629 4.83043L3.50629 10.1904C2.92629 11.2004 2.92629 12.4604 3.50629 13.4704L6.60629 18.8304C7.18629 19.8504 8.27629 20.4804 9.44629 20.4804H13.4939C13.8017 20.4804 13.9354 20.0298 13.7017 19.8294C12.4323 18.741 11.6263 17.1223 11.6263 15.3104C11.6263 15.2413 11.6284 15.1742 11.6317 15.1074C11.6385 14.9684 11.5517 14.8429 11.4222 14.7922C10.2396 14.3294 9.40629 13.1869 9.40629 11.8404C9.40629 10.0804 10.8263 8.66043 12.5763 8.66043C13.5195 8.66043 14.3705 9.07134 14.9526 9.72422C15.0464 9.82946 15.197 9.86713 15.3273 9.81303C16.0198 9.52532 16.7817 9.37043 17.5763 9.37043C19.0164 9.37043 20.3334 9.88174 21.3609 10.7325C21.5883 10.9208 21.92 10.746 21.7984 10.477C21.7561 10.3833 21.7087 10.291 21.6563 10.2004Z" fill="black"/>
<path fill-rule="evenodd" clip-rule="evenodd" d="M22.1176 20.0145C21.9716 20.1605 21.7796 20.2345 21.5876 20.2345C21.3956 20.2345 21.2036 20.1605 21.0566 20.0145L19.7574 18.7153C19.1384 19.1103 18.4084 19.3463 17.6214 19.3463C15.4194 19.3463 13.6284 17.5563 13.6284 15.3563C13.6284 13.1563 15.4194 11.3653 17.6214 11.3653C19.8234 11.3653 21.6144 13.1563 21.6144 15.3563C21.6144 16.2283 21.3254 17.0283 20.8484 17.6863L22.1176 18.9535C22.4106 19.2465 22.4106 19.7215 22.1176 20.0145ZM17.6214 12.8662C18.9964 12.8662 20.1144 13.9832 20.1144 15.3562C20.1144 16.7292 18.9964 17.8462 17.6214 17.8462C16.2464 17.8462 15.1284 16.7292 15.1284 15.3562C15.1284 13.9832 16.2464 12.8662 17.6214 12.8662Z" fill="black"/>
</svg>