<svg width="25" height="24" viewBox="0 0 25 24" fill="none" xmlns="http://www.w3.org/2000/svg">
<path opacity="0.4" d="M6.95508 13.8185L6.95605 17.3825C6.95605 19.381 8.57605 21 10.5736 21H16.0893C18.0869 21 19.7069 19.38 19.7069 17.3815L19.7059 6.61751C19.7059 4.62 18.0859 3 16.0884 3H14.1736" stroke="black" stroke-width="1.5" stroke-linecap="round" stroke-linejoin="round"/>
<path d="M10.1635 8.39564L11.622 9.85121M8.19146 3.37305C9.792 3.37305 11.0899 4.67099 11.0899 6.27153C11.0899 7.87305 9.792 9.17002 8.19146 9.17002C6.59091 9.17002 5.29297 7.87305 5.29297 6.27153C5.29297 4.67099 6.59091 3.37305 8.19146 3.37305Z" stroke="black" stroke-width="1.5" stroke-linecap="round" stroke-linejoin="round"/>
<path d="M13.3303 17.3306V17.2824M13.3303 17.0293C13.1921 17.0293 13.0801 17.1413 13.0801 17.2791C13.0801 17.4173 13.1921 17.5293 13.3303 17.5293C13.4686 17.5293 13.5805 17.4173 13.5805 17.2791C13.5805 17.1413 13.4686 17.0293 13.3303 17.0293Z" stroke="black" stroke-width="1.5" stroke-linecap="round" stroke-linejoin="round"/>
</svg>