<svg width="25" height="24" viewBox="0 0 25 24" fill="none" xmlns="http://www.w3.org/2000/svg">
<path fill-rule="evenodd" clip-rule="evenodd" d="M14.2208 4.74081C10.5191 3.13317 6.21481 4.83091 4.60707 8.53259C2.99931 12.2352 4.69708 16.5387 8.3988 18.1464C11.1214 19.329 14.1707 18.7234 16.2325 16.8473C16.242 16.8367 16.2517 16.8263 16.2619 16.8161C16.2861 16.7919 16.3115 16.7696 16.338 16.7493C16.9032 16.2142 17.3899 15.5811 17.7696 14.8611C17.9628 14.4947 18.4165 14.3544 18.7828 14.5476C19.1492 14.7408 19.2896 15.1945 19.0964 15.5609C18.7504 16.2168 18.3309 16.8129 17.8527 17.3434L20.6015 20.0849C20.8947 20.3774 20.8954 20.8522 20.6029 21.1455C20.3104 21.4388 19.8355 21.4394 19.5422 21.1469L16.7558 18.368C14.2929 20.3017 10.8748 20.8573 7.80122 19.5222C3.33971 17.5845 1.29349 12.3976 3.23121 7.93508C5.16897 3.47357 10.3569 1.42725 14.8185 3.36503C16.1656 3.9504 17.294 4.83243 18.1584 5.90339C18.4186 6.22571 18.3682 6.6979 18.0459 6.95806C17.7236 7.21823 17.2514 7.16784 16.9912 6.84552C16.2756 5.9589 15.3411 5.22765 14.2208 4.74081ZM10.5176 9.4713C10.8977 9.6358 11.0725 10.0773 10.908 10.4575L10.0537 12.4316C9.94151 12.691 9.69301 12.8653 9.41092 12.8824C9.12884 12.8995 8.86106 12.7567 8.71824 12.5128L8.37781 11.9315L8.04332 12.5095C7.90172 12.7541 7.63458 12.8984 7.35233 12.8826C7.07008 12.8668 6.82068 12.6937 6.70723 12.4348L5.84226 10.4606C5.67603 10.0812 5.84884 9.6389 6.22823 9.47267C6.60763 9.30644 7.04994 9.47924 7.21617 9.85864L7.48684 10.4764L7.72484 10.0651C7.85857 9.83406 8.10506 9.6915 8.37204 9.69082C8.63902 9.69013 8.88624 9.83142 9.02116 10.0618L9.2648 10.4778L9.53138 9.86177C9.69588 9.48162 10.1374 9.30681 10.5176 9.4713ZM16.0323 9.4713C16.4125 9.6358 16.5873 10.0773 16.4228 10.4575L15.5685 12.4316C15.4563 12.691 15.2078 12.8653 14.9257 12.8824C14.6436 12.8995 14.3758 12.7567 14.233 12.5128L13.8926 11.9315L13.5581 12.5095C13.4165 12.7541 13.1493 12.8984 12.8671 12.8826C12.5849 12.8668 12.3355 12.6937 12.222 12.4348L11.357 10.4606C11.1908 10.0812 11.3636 9.6389 11.743 9.47267C12.1224 9.30644 12.5647 9.47924 12.7309 9.85864L13.0016 10.4764L13.2396 10.0651C13.3733 9.83406 13.6198 9.6915 13.8868 9.69082C14.1538 9.69013 14.401 9.83142 14.5359 10.0618L14.7796 10.4778L15.0462 9.86177C15.2107 9.48162 15.6522 9.30681 16.0323 9.4713ZM21.548 9.4713C21.9282 9.6358 22.103 10.0773 21.9385 10.4575L21.0842 12.4316C20.972 12.691 20.7235 12.8653 20.4414 12.8824C20.1593 12.8995 19.8916 12.7567 19.7487 12.5128L19.4083 11.9315L19.0738 12.5095C18.9322 12.7541 18.6651 12.8984 18.3828 12.8826C18.1006 12.8668 17.8512 12.6937 17.7377 12.4348L16.8728 10.4606C16.7065 10.0812 16.8793 9.6389 17.2587 9.47267C17.6381 9.30644 18.0804 9.47924 18.2467 9.85864L18.5173 10.4764L18.7553 10.0651C18.8891 9.83406 19.1356 9.6915 19.4025 9.69082C19.6695 9.69013 19.9167 9.83142 20.0517 10.0618L20.2953 10.4778L20.5619 9.86177C20.7264 9.48162 21.1679 9.30681 21.548 9.4713Z" fill="black"/>
</svg>