<svg width="25" height="25" viewBox="0 0 25 25" fill="none" xmlns="http://www.w3.org/2000/svg">
<path d="M21.1138 20.7544C21.0154 20.7546 20.9179 20.7354 20.827 20.6978C20.736 20.6602 20.6534 20.605 20.5838 20.5354L18.8698 18.8214C17.8894 19.5348 16.6762 19.8521 15.4721 19.7102C14.268 19.5684 13.1617 18.9776 12.374 18.056C11.5862 17.1343 11.175 15.9495 11.2224 14.7381C11.2698 13.5266 11.7723 12.3775 12.6296 11.5202C13.4869 10.6629 14.636 10.1604 15.8475 10.1131C17.059 10.0657 18.2437 10.4768 19.1654 11.2645C20.087 12.0523 20.6778 13.1586 20.8196 14.3627C20.9615 15.5668 20.6441 16.78 19.9308 17.7604L21.6448 19.4744C21.7496 19.5793 21.821 19.7131 21.8498 19.8585C21.8787 20.004 21.8637 20.1548 21.8069 20.2918C21.7501 20.4288 21.6539 20.5459 21.5305 20.6282C21.4071 20.7105 21.2621 20.7545 21.1138 20.7544ZM16.0338 11.6094C15.3776 11.6089 14.736 11.8032 14.1902 12.1675C13.6445 12.5318 13.2191 13.0499 12.9679 13.6561C12.7167 14.2623 12.651 14.9295 12.7792 15.573C12.9073 16.2166 13.2235 16.8077 13.6878 17.2714C14.3202 17.8745 15.1605 18.211 16.0343 18.211C16.9081 18.211 17.7485 17.8745 18.3808 17.2714C18.8451 16.8076 19.1614 16.2164 19.2895 15.5728C19.4176 14.9291 19.3519 14.2619 19.1005 13.6557C18.8492 13.0494 18.4237 12.5313 17.8777 12.1671C17.3318 11.8028 16.6901 11.6087 16.0338 11.6094Z" fill="black"/>
<path d="M8 19.7812H3.5C3.30109 19.7812 3.11032 19.7022 2.96967 19.5616C2.82901 19.4209 2.75 19.2302 2.75 19.0312C2.75 18.8323 2.82901 18.6416 2.96967 18.5009C3.11032 18.3603 3.30109 18.2812 3.5 18.2812H8C8.19891 18.2812 8.38968 18.3603 8.53033 18.5009C8.67099 18.6416 8.75 18.8323 8.75 19.0312C8.75 19.2302 8.67099 19.4209 8.53033 19.5616C8.38968 19.7022 8.19891 19.7812 8 19.7812ZM8 13.0312H3.5C3.30109 13.0312 3.11032 12.9522 2.96967 12.8116C2.82901 12.6709 2.75 12.4802 2.75 12.2812C2.75 12.0823 2.82901 11.8916 2.96967 11.7509C3.11032 11.6103 3.30109 11.5312 3.5 11.5312H8C8.19891 11.5312 8.38968 11.6103 8.53033 11.7509C8.67099 11.8916 8.75 12.0823 8.75 12.2812C8.75 12.4802 8.67099 12.6709 8.53033 12.8116C8.38968 12.9522 8.19891 13.0312 8 13.0312ZM21.5 6.28125H3.5C3.30109 6.28125 3.11032 6.20224 2.96967 6.06158C2.82901 5.92093 2.75 5.73016 2.75 5.53125C2.75 5.33234 2.82901 5.14157 2.96967 5.00092C3.11032 4.86026 3.30109 4.78125 3.5 4.78125H21.5C21.6989 4.78125 21.8897 4.86026 22.0303 5.00092C22.171 5.14157 22.25 5.33234 22.25 5.53125C22.25 5.73016 22.171 5.92093 22.0303 6.06158C21.8897 6.20224 21.6989 6.28125 21.5 6.28125Z" fill="black"/>
</svg>