<svg width="24" height="24" viewBox="0 0 24 24" fill="none" xmlns="http://www.w3.org/2000/svg">
<g opacity="0.4">
<path fill-rule="evenodd" clip-rule="evenodd" d="M2.99976 9.21951C3.41376 9.21951 3.74976 8.88351 3.74976 8.46951V6.88951C3.74976 5.15751 5.15976 3.74951 6.89276 3.74951H8.18176C8.59576 3.74951 8.93176 3.41351 8.93176 2.99951C8.93176 2.58551 8.59576 2.24951 8.18176 2.24951H6.89276C4.33276 2.24951 2.24976 4.33051 2.24976 6.88951V8.46951C2.24976 8.88351 2.58576 9.21951 2.99976 9.21951Z" fill="black"/>
<path fill-rule="evenodd" clip-rule="evenodd" d="M8.15012 20.2498H6.89212C5.16012 20.2498 3.75012 18.8418 3.75012 17.1098V15.5298C3.75012 15.1158 3.41412 14.7798 3.00012 14.7798C2.58612 14.7798 2.25012 15.1158 2.25012 15.5298V17.1098C2.25012 19.6688 4.33312 21.7498 6.89212 21.7498H8.15012C8.56412 21.7498 8.90012 21.4138 8.90012 20.9998C8.90012 20.5858 8.56412 20.2498 8.15012 20.2498Z" fill="black"/>
<path fill-rule="evenodd" clip-rule="evenodd" d="M20.9996 14.78C20.5856 14.78 20.2496 15.116 20.2496 15.53V17.11C20.2496 18.842 18.8406 20.25 17.1076 20.25H15.8176C15.4036 20.25 15.0676 20.586 15.0676 21C15.0676 21.414 15.4036 21.75 15.8176 21.75H17.1076C19.6676 21.75 21.7496 19.669 21.7496 17.11V15.53C21.7496 15.116 21.4136 14.78 20.9996 14.78Z" fill="black"/>
<path fill-rule="evenodd" clip-rule="evenodd" d="M17.1072 2.24976H15.8492C15.4352 2.24976 15.0992 2.58576 15.0992 2.99976C15.0992 3.41376 15.4352 3.74976 15.8492 3.74976H17.1072C18.8392 3.74976 20.2502 5.15776 20.2502 6.88976V8.46976C20.2502 8.88376 20.5862 9.21976 21.0002 9.21976C21.4142 9.21976 21.7502 8.88376 21.7502 8.46976V6.88976C21.7502 4.33076 19.6672 2.24976 17.1072 2.24976Z" fill="black"/>
</g>
<path fill-rule="evenodd" clip-rule="evenodd" d="M11.4031 7.25977C9.22415 7.25977 7.45215 9.03077 7.45215 11.2068C7.45215 13.3878 9.22415 15.1618 11.4031 15.1618C13.5811 15.1618 15.3531 13.3878 15.3531 11.2068C15.3531 9.03077 13.5811 7.25977 11.4031 7.25977Z" fill="black"/>
<path fill-rule="evenodd" clip-rule="evenodd" d="M15.9907 16.7193C16.1827 16.7193 16.3747 16.6463 16.5217 16.4983C16.8137 16.2053 16.8137 15.7313 16.5207 15.4383L15.6117 14.5313C15.3177 14.2393 14.8427 14.2383 14.5507 14.5323C14.2587 14.8253 14.2587 15.3003 14.5517 15.5933L15.4607 16.5003C15.6077 16.6463 15.7987 16.7193 15.9907 16.7193Z" fill="black"/>
</svg>