<svg width="24" height="24" viewBox="0 0 24 24" fill="none" xmlns="http://www.w3.org/2000/svg">
<path d="M12 21C7.02908 21 3 16.9709 3 12C3 7.03005 7.02908 3 12 3C16.9709 3 21 7.03005 21 12" stroke="black" stroke-width="1.5" stroke-linecap="round" stroke-linejoin="round"/>
<path fill-rule="evenodd" clip-rule="evenodd" d="M12.8193 14.2077C12.6801 15.3607 11.6332 16.1828 10.4803 16.0437C9.32728 15.9055 8.50512 14.8577 8.64426 13.7047C8.78339 12.5517 9.83031 11.7305 10.9833 11.8687C12.1363 12.0078 12.9584 13.0547 12.8193 14.2077Z" stroke="black" stroke-width="1.5" stroke-linecap="round" stroke-linejoin="round"/>
<path d="M12.8203 14.2074L13.5752 7.94141C13.5752 7.94141 13.9469 9.41838 15.3703 9.89027" stroke="black" stroke-width="1.5" stroke-linecap="round" stroke-linejoin="round"/>
<path d="M19.1928 18.9176L20.4324 20.1542M17.6547 15.002C18.9031 15.002 19.915 16.0138 19.915 17.2622C19.915 18.5095 18.9031 19.5224 17.6547 19.5224C16.4064 19.5224 15.3945 18.5095 15.3945 17.2622C15.3945 16.0138 16.4064 15.002 17.6547 15.002Z" stroke="black" stroke-width="1.5" stroke-linecap="round" stroke-linejoin="round"/>
</svg>