<svg width="24" height="24" viewBox="0 0 24 24" fill="none" xmlns="http://www.w3.org/2000/svg">
<path opacity="0.4" fill-rule="evenodd" clip-rule="evenodd" d="M11.1353 2.5C6.48533 2.5 2.71533 6.27 2.71533 10.92C2.71533 15.57 6.48533 19.34 11.1353 19.34C15.7753 19.34 19.5453 15.57 19.5453 10.92C19.5453 6.27 15.7753 2.5 11.1353 2.5Z" fill="black"/>
<path fill-rule="evenodd" clip-rule="evenodd" d="M20.9921 19.7943L19.0091 17.8153C18.6181 17.4253 17.9841 17.4253 17.5951 17.8173C17.2041 18.2083 17.2051 18.8423 17.5961 19.2323L19.5801 21.2103C19.7751 21.4043 20.0311 21.5023 20.2861 21.5023C20.5421 21.5023 20.7991 21.4043 20.9941 21.2083C21.3841 20.8173 21.3831 20.1843 20.9921 19.7943Z" fill="black"/>
<path fill-rule="evenodd" clip-rule="evenodd" d="M11.704 14.0674L15.164 10.2574C15.894 9.45738 15.844 8.20738 15.054 7.46738L14.224 6.70738C13.434 5.98738 12.184 6.02738 11.444 6.82738L7.93399 10.6874C7.53399 11.1274 7.28399 11.6974 7.21399 12.2974L7.11399 13.2174C7.05399 13.7674 7.25399 14.2974 7.65399 14.6774C7.98399 14.9874 8.40399 15.1574 8.84399 15.1574C8.94399 15.1574 9.04399 15.1474 9.14399 15.1274L10.034 14.9774C10.674 14.8774 11.264 14.5474 11.704 14.0674ZM12.894 7.68732C13.014 7.68732 13.124 7.72732 13.214 7.80732L14.024 8.56732C14.224 8.74732 14.234 9.04732 14.054 9.24732L10.584 13.0573C10.374 13.2873 10.094 13.4473 9.78402 13.4973L8.89402 13.6473C8.78402 13.6673 8.71402 13.6173 8.68402 13.5873C8.65402 13.5573 8.59402 13.4873 8.60402 13.3773L8.70402 12.4673C8.73402 12.1773 8.86402 11.9073 9.04402 11.6973L12.544 7.83732C12.634 7.73732 12.764 7.68732 12.894 7.68732Z" fill="black"/>
</svg>