<svg width="25" height="25" viewBox="0 0 25 25" fill="none" xmlns="http://www.w3.org/2000/svg">
<path fill-rule="evenodd" clip-rule="evenodd" d="M11.8878 4.0332C7.65003 4.0332 4.21484 7.46842 4.21484 11.7062C4.21484 15.9429 7.64998 19.3782 11.8878 19.3782C13.861 19.3782 15.6604 18.6331 17.0198 17.4089C17.0388 17.3844 17.0595 17.3609 17.082 17.3384C17.1182 17.3021 17.1572 17.2703 17.1983 17.243C18.6537 15.8467 19.5598 13.8822 19.5598 11.7062C19.5598 7.46837 16.1245 4.0332 11.8878 4.0332ZM2.71484 11.7062C2.71484 6.64 6.8216 2.5332 11.8878 2.5332C16.9531 2.5332 21.0598 6.64005 21.0598 11.7062C21.0598 14.0799 20.158 16.2431 18.6782 17.8718L21.5646 20.7523C21.8578 21.0449 21.8583 21.5198 21.5657 21.813C21.2731 22.1062 20.7982 22.1067 20.505 21.8141L17.5819 18.8969C16.0176 20.1374 14.0391 20.8782 11.8878 20.8782C6.82166 20.8782 2.71484 16.7715 2.71484 11.7062Z" fill="black"/>
<path fill-rule="evenodd" clip-rule="evenodd" d="M10.2931 11.2129C9.85425 11.2129 9.49805 11.5691 9.49805 12.0079V13.7549C9.49805 14.1937 9.85425 14.5499 10.2931 14.5499H13.4061C13.8449 14.5499 14.201 14.1937 14.201 13.7549V12.0079C14.201 11.5691 13.8449 11.2129 13.4061 11.2129H10.2931ZM7.99805 12.0079C7.99805 10.7406 9.02587 9.71289 10.2931 9.71289H13.4061C14.6733 9.71289 15.701 10.7407 15.701 12.0079V13.7549C15.701 15.0221 14.6733 16.0499 13.4061 16.0499H10.2931C9.02587 16.0499 7.99805 15.0221 7.99805 13.7549V12.0079Z" fill="black"/>
<path fill-rule="evenodd" clip-rule="evenodd" d="M11.8174 6.75604C13.2566 6.73921 14.4389 7.89092 14.4571 9.33046L14.4572 9.33997L14.4572 10.49C14.4572 10.9042 14.1214 11.24 13.7072 11.24C13.293 11.24 12.9572 10.9042 12.9572 10.49V9.34533C12.9472 8.73697 12.4466 8.24904 11.8354 8.25593C11.2381 8.26391 10.7552 8.74316 10.7422 9.34013V10.49C10.7422 10.9042 10.4064 11.24 9.99219 11.24C9.57797 11.24 9.24219 10.9042 9.24219 10.49V9.3203C9.26604 7.91 10.4068 6.77429 11.8174 6.75604Z" fill="black"/>
</svg>