<svg width="25" height="24" viewBox="0 0 25 24" fill="none" xmlns="http://www.w3.org/2000/svg">
<path fill-rule="evenodd" clip-rule="evenodd" d="M13.8684 3.49589C14.3922 2.80352 15.2359 2.25 16.4306 2.25C17.6252 2.25 18.4689 2.80352 18.9927 3.49589C19.3167 3.92428 19.5211 4.40739 19.6249 4.85184C20.1295 4.96189 20.5967 5.19612 20.9743 5.55641C21.5188 6.07601 21.8263 6.81011 21.8263 7.66613C21.8263 8.83662 21.1307 9.84712 20.1288 10.2994C20.1189 10.3039 20.1089 10.3082 20.0988 10.3122C19.689 10.4761 19.2826 10.5391 18.9563 10.5391H13.901C13.5727 10.5391 13.1652 10.4731 12.7606 10.3088C12.7515 10.3051 12.7424 10.3012 12.7335 10.2972C11.7346 9.84489 11.0348 8.83912 11.0348 7.66613C11.0348 6.81011 11.3423 6.07601 11.8868 5.55641C12.2644 5.19612 12.7316 4.96189 13.2362 4.85184C13.34 4.40739 13.5444 3.92428 13.8684 3.49589ZM15.0647 4.40083C14.7683 4.79275 14.6529 5.26475 14.6529 5.52862C14.6529 5.94016 14.3213 6.27483 13.9098 6.27859C13.4894 6.28243 13.1505 6.42391 12.9224 6.64159C12.7007 6.85314 12.5349 7.18245 12.5349 7.66613C12.5349 8.22177 12.8623 8.70278 13.339 8.92462C13.5522 9.00897 13.7613 9.03905 13.901 9.03905H18.9563C19.0994 9.03905 19.309 9.00997 19.5262 8.9256C19.9992 8.70537 20.3263 8.22367 20.3263 7.66613C20.3263 7.18245 20.1604 6.85314 19.9387 6.64159C19.7106 6.42391 19.3717 6.28243 18.9514 6.27859C18.5398 6.27483 18.2082 5.94016 18.2082 5.52862C18.2082 5.26475 18.0929 4.79275 17.7964 4.40083C17.5231 4.03951 17.103 3.75 16.4306 3.75C15.7582 3.75 15.338 4.03951 15.0647 4.40083ZM9.69973 4.06471C9.82534 4.45942 9.6072 4.88123 9.21249 5.00684C6.28951 5.93708 4.17285 8.67541 4.17285 11.9053C4.17285 15.9033 7.41353 19.1439 11.4115 19.1439C13.3015 19.1439 15.0228 18.4197 16.3124 17.2333C16.3142 17.2314 16.3161 17.2295 16.318 17.2276C16.3336 17.2119 16.3497 17.1971 16.3663 17.1831C17.3597 16.2505 18.0897 15.0407 18.4325 13.677C18.5335 13.2753 18.941 13.0315 19.3427 13.1325C19.7444 13.2335 19.9882 13.641 19.8872 14.0427C19.5348 15.4445 18.8438 16.7118 17.9062 17.7526L20.6292 20.469C20.9225 20.7616 20.923 21.2365 20.6305 21.5297C20.3379 21.8229 19.8631 21.8235 19.5698 21.531L16.8101 18.7778C15.324 19.9467 13.4494 20.6439 11.4115 20.6439C6.5851 20.6439 2.67285 16.7317 2.67285 11.9053C2.67285 8.00362 5.23011 4.70011 8.7576 3.57748C9.15231 3.45187 9.57411 3.67001 9.69973 4.06471Z" fill="black"/>
</svg>