<svg width="24" height="24" viewBox="0 0 24 24" fill="none" xmlns="http://www.w3.org/2000/svg">
<path fill-rule="evenodd" clip-rule="evenodd" d="M16.0653 9.80902C15.9953 9.82902 15.9153 9.83902 15.8353 9.83902C15.5253 9.83902 15.2253 9.63902 15.1253 9.31902C14.7553 8.16902 13.8353 7.26902 12.6653 6.90902C12.2753 6.78902 12.0453 6.36902 12.1753 5.96902C12.2953 5.57902 12.7153 5.35902 13.1053 5.47902C14.7453 5.97902 16.0353 7.24902 16.5553 8.85902C16.6753 9.25902 16.4653 9.67902 16.0653 9.80902ZM11.1353 2.49902C6.48533 2.49902 2.71533 6.26902 2.71533 10.919C2.71533 15.569 6.48533 19.339 11.1353 19.339C15.7753 19.339 19.5453 15.569 19.5453 10.919C19.5453 6.26902 15.7753 2.49902 11.1353 2.49902Z" fill="black"/>
<path fill-rule="evenodd" clip-rule="evenodd" d="M20.9907 19.7925L19.0077 17.8135C18.6167 17.4235 17.9827 17.4235 17.5937 17.8155C17.2027 18.2065 17.2037 18.8405 17.5947 19.2305L19.5787 21.2085C19.7737 21.4025 20.0297 21.5005 20.2847 21.5005C20.5407 21.5005 20.7977 21.4025 20.9927 21.2065C21.3827 20.8155 21.3817 20.1825 20.9907 19.7925Z" fill="black"/>
</svg>