<svg width="24" height="24" viewBox="0 0 24 24" fill="none" xmlns="http://www.w3.org/2000/svg">
<path opacity="0.4" fill-rule="evenodd" clip-rule="evenodd" d="M19.0376 7.92518V7.91518L18.4476 6.88518C18.3276 6.67518 18.1776 6.50518 17.9976 6.36518C17.4376 5.90518 16.6276 5.80518 15.9476 6.17518H15.9376C15.0676 6.68518 13.9576 6.39518 13.4576 5.52518L13.4476 5.51518C13.2976 5.26518 13.2176 4.97518 13.2076 4.67518C13.2276 3.90518 12.7676 3.23518 12.0876 2.95518C12.0776 2.94518 12.0676 2.94518 12.0576 2.94518C11.9676 2.90518 11.8676 2.87518 11.7576 2.84518C11.7276 2.84518 11.6876 2.84518 11.6576 2.83518C11.5876 2.82518 11.5176 2.80518 11.4376 2.80518H10.1876C9.17763 2.80518 8.36763 3.62518 8.36763 4.62518V4.63518C8.35763 5.63518 7.53763 6.44518 6.53763 6.44518C6.22763 6.43518 5.92763 6.35518 5.65763 6.19518C4.78763 5.69518 3.66763 5.99518 3.16763 6.86518L2.52763 7.91518C2.02763 8.79518 2.32763 9.90518 3.19763 10.4152C3.76763 10.7452 4.10763 11.3452 4.10763 11.9952C4.10763 12.6552 3.76763 13.2552 3.19763 13.5852H3.18763C3.09763 13.6352 3.01763 13.7052 2.93763 13.7652C2.92763 13.7752 2.90763 13.7852 2.89763 13.7952C2.87763 13.8152 2.86763 13.8252 2.85763 13.8452C2.51763 14.1652 2.31763 14.5852 2.28763 15.0352C2.25763 15.3852 2.33763 15.7452 2.52763 16.0752V16.0852L3.11763 17.1152C3.23763 17.3252 3.38763 17.4952 3.56763 17.6252C4.12763 18.0952 4.93763 18.1952 5.61763 17.8252H5.62763C6.49763 17.3152 7.60763 17.6052 8.10763 18.4752C8.10763 18.4752 8.10763 18.4852 8.11763 18.4852C8.26763 18.7352 8.34763 19.0252 8.35763 19.3252C8.33763 20.0952 8.79763 20.7652 9.46763 21.0452C9.47763 21.0452 9.49763 21.0552 9.50763 21.0552C9.59763 21.0952 9.69763 21.1252 9.80763 21.1452C9.83763 21.1552 9.87763 21.1552 9.90763 21.1652L10.1176 21.1952H11.3776C11.844 21.1952 12.8734 20.8164 13.0359 20.2405C13.0626 20.1457 13.0089 20.0522 12.9295 19.994C12.7077 19.8316 12.4979 19.6537 12.3015 19.4617C11.2421 18.4259 10.5776 16.9827 10.5776 15.3852C10.5776 15.2784 10.58 15.174 10.5858 15.0708C10.5958 14.8951 10.4659 14.7383 10.2925 14.708C9.00082 14.4825 8.02763 13.3626 8.02763 11.9952C8.02763 10.4752 9.25763 9.24518 10.7776 9.24518C11.6828 9.24518 12.4855 9.67828 12.9833 10.3488C13.0862 10.4875 13.2792 10.5346 13.4287 10.448C14.2694 9.96144 15.241 9.68518 16.2776 9.68518C17.0428 9.68518 17.783 9.83452 18.453 10.1181C18.5706 10.1679 18.7078 10.1444 18.7955 10.0516C18.8673 9.97554 18.9434 9.89243 18.9684 9.85621C19.1497 9.59298 19.2564 9.2841 19.2776 8.96518C19.2976 8.61518 19.2276 8.25518 19.0376 7.92518Z" fill="black"/>
<path fill-rule="evenodd" clip-rule="evenodd" d="M20.8178 20.0827C20.6718 20.2287 20.4798 20.3027 20.2878 20.3027C20.0958 20.3027 19.9038 20.2287 19.7568 20.0827L18.4576 18.7836C17.8386 19.1786 17.1086 19.4146 16.3216 19.4146C14.1196 19.4146 12.3286 17.6246 12.3286 15.4246C12.3286 13.2246 14.1196 11.4336 16.3216 11.4336C18.5236 11.4336 20.3146 13.2246 20.3146 15.4246C20.3146 16.2966 20.0256 17.0966 19.5486 17.7546L20.8178 19.0217C21.1108 19.3147 21.1108 19.7897 20.8178 20.0827ZM16.3215 12.9345C17.6965 12.9345 18.8145 14.0515 18.8145 15.4245C18.8145 16.7975 17.6965 17.9145 16.3215 17.9145C14.9465 17.9145 13.8285 16.7975 13.8285 15.4245C13.8285 14.0515 14.9465 12.9345 16.3215 12.9345Z" fill="black"/>
</svg>