<svg width="25" height="24" viewBox="0 0 25 24" fill="none" xmlns="http://www.w3.org/2000/svg">
<path fill-rule="evenodd" clip-rule="evenodd" d="M13.0149 4.65283C11.6935 4.65283 10.4612 5.02799 9.41783 5.67711C9.06613 5.89592 8.60364 5.7882 8.38482 5.4365C8.166 5.0848 8.27373 4.6223 8.62543 4.40349C9.89985 3.61059 11.4056 3.15283 13.0149 3.15283C17.6123 3.15283 21.338 6.87973 21.338 11.4769C21.338 13.6049 20.5393 15.5466 19.2252 17.0182L21.7797 19.5662C22.0729 19.8588 22.0735 20.3336 21.781 20.6269C21.4885 20.9202 21.0136 20.9208 20.7203 20.6282L18.1293 18.0437C16.7182 19.1442 14.9433 19.7999 13.0149 19.7999C11.4686 19.7999 10.0197 19.3774 8.77786 18.6425C8.42138 18.4316 8.3034 17.9716 8.51434 17.6151C8.72528 17.2587 9.18526 17.1407 9.54174 17.3516C10.5592 17.9537 11.7453 18.2999 13.0149 18.2999C14.7909 18.2999 16.4082 17.6215 17.622 16.5098C17.627 16.5044 17.6322 16.4991 17.6374 16.4938C17.6564 16.4748 17.6761 16.457 17.6965 16.4405C19.0151 15.1963 19.838 13.4326 19.838 11.4769C19.838 7.70791 16.7836 4.65283 13.0149 4.65283ZM2.5 8.18072C2.5 7.7665 2.83579 7.43072 3.25 7.43072H6.61764C7.03185 7.43072 7.36764 7.7665 7.36764 8.18072C7.36764 8.59493 7.03185 8.93072 6.61764 8.93072H3.25C2.83579 8.93072 2.5 8.59493 2.5 8.18072ZM2.5 11.9255C2.5 11.5113 2.83579 11.1755 3.25 11.1755H9.51335C9.92757 11.1755 10.2634 11.5113 10.2634 11.9255C10.2634 12.3397 9.92757 12.6755 9.51335 12.6755H3.25C2.83579 12.6755 2.5 12.3397 2.5 11.9255ZM2.5 15.6969C2.5 15.2827 2.83579 14.9469 3.25 14.9469H5.88787C6.30208 14.9469 6.63787 15.2827 6.63787 15.6969C6.63787 16.1112 6.30208 16.4469 5.88787 16.4469H3.25C2.83579 16.4469 2.5 16.1112 2.5 15.6969Z" fill="black"/>
</svg>