<svg width="24" height="24" viewBox="0 0 24 24" fill="none" xmlns="http://www.w3.org/2000/svg">
<path fill-rule="evenodd" clip-rule="evenodd" d="M12.0834 14.1376V14.4376C12.0834 14.8576 11.7434 15.1876 11.3334 15.1876C10.9134 15.1876 10.5834 14.8576 10.5834 14.4376V14.1376H9.71338C9.30338 14.1376 8.96338 13.8076 8.96338 13.3876C8.96338 12.9776 9.30338 12.6376 9.71338 12.6376H12.0434C12.3134 12.6376 12.5534 12.4076 12.5534 12.1276C12.5534 11.8576 12.3234 11.6276 12.0434 11.6276H10.6134C9.50338 11.6276 8.60338 10.7276 8.60338 9.61756C8.60338 8.52756 9.48338 7.63756 10.5834 7.61756V7.30756C10.5834 6.89756 10.9134 6.55756 11.3334 6.55756C11.7434 6.55756 12.0834 6.89756 12.0834 7.30756V7.61756H12.9434C13.3534 7.61756 13.6934 7.95756 13.6934 8.36756C13.6934 8.78756 13.3534 9.11756 12.9434 9.11756H10.6134C10.3334 9.11756 10.1034 9.34756 10.1034 9.61756C10.1034 9.90756 10.3334 10.1276 10.6134 10.1276H12.0434C13.1534 10.1276 14.0534 11.0276 14.0534 12.1276C14.0534 13.2276 13.1734 14.1176 12.0834 14.1376ZM11.1334 2.49756C6.48338 2.49756 2.71338 6.26756 2.71338 10.9176C2.71338 15.5676 6.48338 19.3376 11.1334 19.3376C15.7834 19.3376 19.5534 15.5676 19.5534 10.9176C19.5534 6.26756 15.7834 2.49756 11.1334 2.49756Z" fill="black"/>
<path fill-rule="evenodd" clip-rule="evenodd" d="M20.9929 19.7942L19.0089 17.8152C18.6179 17.4252 17.9849 17.4252 17.5949 17.8172C17.2049 18.2082 17.2059 18.8422 17.5969 19.2322L19.5809 21.2102C19.7759 21.4042 20.0319 21.5022 20.2869 21.5022C20.5429 21.5022 20.7999 21.4042 20.9949 21.2082C21.3849 20.8172 21.3839 20.1842 20.9929 19.7942Z" fill="black"/>
<path fill-rule="evenodd" clip-rule="evenodd" d="M11.3334 12.6276C11.3134 12.6276 11.2834 12.6276 11.2634 12.6376H11.4134C11.3834 12.6276 11.3634 12.6276 11.3334 12.6276Z" fill="white"/>
</svg>