<svg width="24" height="24" viewBox="0 0 24 24" fill="none" xmlns="http://www.w3.org/2000/svg">
<path d="M17.0962 18.0097C16.381 18.7249 15.6619 19.4372 14.9438 20.1494C13.7227 21.3521 11.8593 21.3346 10.6381 20.1222C8.5665 18.0506 6.48613 15.9877 4.42328 13.9074C3.62733 13.1027 3.15735 12.1345 3.04837 10.9951C2.96761 10.0901 3.01237 6.71561 3.01237 5.92939C3.02113 4.5175 4.08856 3.24282 5.48195 2.99858C5.77095 2.95285 9.11821 2.96161 10.5116 2.96161C11.8778 2.96161 13.0532 3.45008 14.0214 4.41825C14.2354 4.6333 14.4505 4.84737 14.6646 5.06241" stroke="black" stroke-width="1.5" stroke-linecap="round" stroke-linejoin="round"/>
<path fill-rule="evenodd" clip-rule="evenodd" d="M9.94247 8.29392C9.93858 9.16868 9.20782 9.88776 8.3243 9.88582C7.44662 9.88387 6.71586 9.15214 6.72073 8.27932C6.72559 7.3705 7.44662 6.66115 8.36225 6.66407C9.23118 6.66699 9.94636 7.40456 9.94247 8.29392Z" stroke="black" stroke-width="1.5" stroke-linecap="round" stroke-linejoin="round"/>
<path fill-rule="evenodd" clip-rule="evenodd" d="M17.3139 7.91406C19.0333 7.91406 20.4267 9.30746 20.4267 11.0268C20.4267 12.7462 19.0333 14.1406 17.3139 14.1406C15.5946 14.1406 14.2012 12.7462 14.2012 11.0268C14.2012 9.30746 15.5946 7.91406 17.3139 7.91406Z" stroke="black" stroke-width="1.5" stroke-linecap="round" stroke-linejoin="round"/>
<path d="M19.4336 13.3047L21.0002 14.8684" stroke="black" stroke-width="1.5" stroke-linecap="round" stroke-linejoin="round"/>
</svg>