<svg width="25" height="24" viewBox="0 0 25 24" fill="none" xmlns="http://www.w3.org/2000/svg">
<path fill-rule="evenodd" clip-rule="evenodd" d="M11.3775 3.75C7.31788 3.75 4.02734 7.04053 4.02734 11.1001C4.02734 15.1597 7.31788 18.4502 11.3775 18.4502C15.437 18.4502 18.7276 15.1597 18.7276 11.1001C18.7276 7.04053 15.437 3.75 11.3775 3.75ZM2.52734 11.1001C2.52734 6.21211 6.48945 2.25 11.3775 2.25C16.2655 2.25 20.2276 6.21211 20.2276 11.1001C20.2276 15.9881 16.2655 19.9502 11.3775 19.9502C6.48945 19.9502 2.52734 15.9881 2.52734 11.1001ZM11.3672 8.19054C11.7814 8.19054 12.1172 8.52633 12.1172 8.94054V10.3399H13.5175C13.9317 10.3399 14.2675 10.6756 14.2675 11.0899C14.2675 11.5041 13.9317 11.8399 13.5175 11.8399H12.1172V13.2402C12.1172 13.6544 11.7814 13.9902 11.3672 13.9902C10.953 13.9902 10.6172 13.6544 10.6172 13.2402V11.8399H9.21788C8.80367 11.8399 8.46788 11.5041 8.46788 11.0899C8.46788 10.6756 8.80367 10.3399 9.21788 10.3399H10.6172V8.94054C10.6172 8.52633 10.953 8.19054 11.3672 8.19054ZM19.7063 18.7201C19.2838 18.7201 18.9414 19.0625 18.9414 19.4851C18.9414 19.9076 19.2838 20.25 19.7063 20.25C20.1289 20.25 20.4713 19.9076 20.4713 19.4851C20.4713 19.0625 20.1289 18.7201 19.7063 18.7201ZM17.4414 19.4851C17.4414 18.2341 18.4554 17.2201 19.7063 17.2201C20.9573 17.2201 21.9713 18.2341 21.9713 19.4851C21.9713 20.736 20.9573 21.75 19.7063 21.75C18.4554 21.75 17.4414 20.736 17.4414 19.4851Z" fill="black"/>
</svg>