<svg width="24" height="24" viewBox="0 0 24 24" fill="none" xmlns="http://www.w3.org/2000/svg">
<path d="M8.96875 11.0897H13.2684M11.1181 8.94043V13.2401" stroke="black" stroke-width="1.5" stroke-linecap="round" stroke-linejoin="round"/>
<path d="M11.1275 3C15.6012 3 19.2276 6.62632 19.2276 11.1001C19.2276 15.5739 15.6012 19.2002 11.1275 19.2002C6.65366 19.2002 3.02734 15.5739 3.02734 11.1001C3.02734 8.22049 4.52975 5.69198 6.79351 4.25562" stroke="black" stroke-width="1.5" stroke-linecap="round" stroke-linejoin="round"/>
<path fill-rule="evenodd" clip-rule="evenodd" d="M20.9723 19.4852C20.9723 20.3219 20.2941 21.0001 19.4573 21.0001C18.6206 21.0001 17.9414 20.3219 17.9414 19.4852C17.9414 18.6484 18.6206 17.9702 19.4573 17.9702C20.2941 17.9702 20.9723 18.6484 20.9723 19.4852Z" stroke="black" stroke-width="1.5" stroke-linecap="round" stroke-linejoin="round"/>
</svg>