<svg width="25" height="24" viewBox="0 0 25 24" fill="none" xmlns="http://www.w3.org/2000/svg">
<path fill-rule="evenodd" clip-rule="evenodd" d="M11.8824 3.75C7.64753 3.75 4.21484 7.18268 4.21484 11.4175C4.21484 15.6525 7.64764 19.086 11.8824 19.086C13.881 19.086 15.701 18.3212 17.0658 17.0682C17.0703 17.0635 17.0749 17.0588 17.0795 17.0541C17.0979 17.0357 17.117 17.0185 17.1367 17.0024C18.6223 15.6038 19.5499 13.6189 19.5499 11.4175C19.5499 7.18268 16.1172 3.75 11.8824 3.75ZM18.6696 17.5808C20.1486 15.9526 21.0499 13.7903 21.0499 11.4175C21.0499 6.35426 16.9456 2.25 11.8824 2.25C6.8191 2.25 2.71484 6.35426 2.71484 11.4175C2.71484 16.4807 6.81899 20.586 11.8824 20.586C14.0326 20.586 16.0099 19.8456 17.5733 18.6059L20.5059 21.531C20.7992 21.8235 21.274 21.8229 21.5666 21.5296C21.8591 21.2364 21.8585 20.7615 21.5652 20.469L18.6696 17.5808ZM10.6383 7.01718C10.9611 7.01718 11.2477 7.22376 11.3498 7.53001L13.0124 12.5179L13.488 11.0912C13.5901 10.785 13.8767 10.5784 14.1995 10.5784H15.7826C16.1968 10.5784 16.5326 10.9142 16.5326 11.3284C16.5326 11.7426 16.1968 12.0784 15.7826 12.0784H14.74L13.7239 15.1268C13.6218 15.433 13.3352 15.6396 13.0124 15.6396C12.6896 15.6396 12.403 15.433 12.3009 15.1268L10.6383 10.1389L10.1627 11.5656C10.0606 11.8718 9.77401 12.0784 9.45119 12.0784H7.8681C7.45388 12.0784 7.1181 11.7426 7.1181 11.3284C7.1181 10.9142 7.45388 10.5784 7.8681 10.5784H8.91062L9.92675 7.53001C10.0288 7.22376 10.3154 7.01718 10.6383 7.01718Z" fill="black"/>
</svg>