<svg width="25" height="24" viewBox="0 0 25 24" fill="none" xmlns="http://www.w3.org/2000/svg">
<path fill-rule="evenodd" clip-rule="evenodd" d="M17.449 3.75C16.8653 3.75 16.3347 3.9665 15.9292 4.32426C15.6186 4.59829 15.1446 4.56864 14.8706 4.25803C14.5965 3.94742 14.6262 3.47348 14.9368 3.19944C15.6055 2.60951 16.4857 2.25 17.449 2.25C19.5454 2.25 21.2464 3.94976 21.2464 6.0474C21.2464 6.46161 20.9106 6.7974 20.4964 6.7974C20.0822 6.7974 19.7464 6.46161 19.7464 6.0474C19.7464 4.7785 18.7173 3.75 17.449 3.75ZM11.6224 3.52064C11.6733 3.93171 11.3813 4.30624 10.9703 4.35718C7.3132 4.81034 4.48242 7.93078 4.48242 11.7101C4.48242 15.8038 7.80027 19.1215 11.8929 19.1215C13.8272 19.1215 15.5886 18.3802 16.9084 17.1664C16.9111 17.1637 16.9137 17.161 16.9164 17.1583C16.9327 17.1419 16.9496 17.1264 16.9671 17.1119C18.1843 15.968 19.0149 14.4175 19.2415 12.6777C19.295 12.2669 19.6714 11.9773 20.0821 12.0308C20.4928 12.0843 20.7824 12.4607 20.7289 12.8714C20.4894 14.7107 19.6892 16.3739 18.5053 17.6838L21.2978 20.469C21.5911 20.7615 21.5917 21.2363 21.2992 21.5296C21.0067 21.8229 20.5318 21.8235 20.2386 21.531L17.4092 18.7092C15.8921 19.9067 13.9761 20.6215 11.8929 20.6215C6.97172 20.6215 2.98242 16.6321 2.98242 11.7101C2.98242 7.16449 6.38655 3.41369 10.7858 2.86856C11.1969 2.81762 11.5714 3.10957 11.6224 3.52064ZM14.3992 5.29724C14.8134 5.29724 15.1492 5.63303 15.1492 6.04724C15.1492 7.31614 16.1784 8.34464 17.4466 8.34464C18.0303 8.34464 18.5609 8.12814 18.9664 7.77038C19.2771 7.49635 19.751 7.526 20.025 7.83661C20.2991 8.14722 20.2694 8.62116 19.9588 8.8952C19.2901 9.48514 18.41 9.84464 17.4466 9.84464C15.3502 9.84464 13.6492 8.14488 13.6492 6.04724C13.6492 5.63303 13.985 5.29724 14.3992 5.29724Z" fill="black"/>
</svg>