<svg width="24" height="24" viewBox="0 0 24 24" fill="none" xmlns="http://www.w3.org/2000/svg">
<path d="M11.1275 19.2002C15.6012 19.2002 19.2276 15.5739 19.2276 11.1001C19.2276 6.62632 15.6012 3 11.1275 3C6.65366 3 3.02734 6.62632 3.02734 11.1001C3.02734 15.5739 6.65366 19.2002 11.1275 19.2002Z" stroke="black" stroke-width="1.5" stroke-linecap="round" stroke-linejoin="round"/>
<path d="M8.96875 11.0897H13.2684M11.1181 8.94043V13.2401" stroke="black" stroke-width="1.5" stroke-linecap="round" stroke-linejoin="round"/>
<path fill-rule="evenodd" clip-rule="evenodd" d="M20.9713 19.4852C20.9713 20.3219 20.2931 21.0001 19.4563 21.0001C18.6196 21.0001 17.9414 20.3219 17.9414 19.4852C17.9414 18.6484 18.6196 17.9702 19.4563 17.9702C20.2931 17.9702 20.9713 18.6484 20.9713 19.4852Z" stroke="black" stroke-width="1.5" stroke-linecap="round" stroke-linejoin="round"/>
</svg>