<svg width="25" height="25" viewBox="0 0 25 25" fill="none" xmlns="http://www.w3.org/2000/svg">
<path fill-rule="evenodd" clip-rule="evenodd" d="M12.1316 3.86914C7.89685 3.86914 4.46411 7.30274 4.46411 11.5367C4.46411 15.7725 7.89685 19.2051 12.1316 19.2051C16.3664 19.2051 19.7991 15.7725 19.7991 11.5367C19.7991 7.30274 16.3664 3.86914 12.1316 3.86914ZM2.96411 11.5367C2.96411 6.47443 7.06831 2.36914 12.1316 2.36914C17.1949 2.36914 21.2991 6.47443 21.2991 11.5367C21.2991 16.6008 17.1949 20.7051 12.1316 20.7051C7.06831 20.7051 2.96411 16.6008 2.96411 11.5367Z" fill="black"/>
<path fill-rule="evenodd" clip-rule="evenodd" d="M16.0541 11.6881C16.4541 11.7959 16.6909 12.2075 16.5832 12.6074L15.9964 14.785C15.9447 14.9771 15.8187 15.1408 15.6462 15.24C15.4737 15.3392 15.2689 15.3658 15.0768 15.314L12.9001 14.7263C12.5003 14.6183 12.2636 14.2066 12.3716 13.8067C12.4795 13.4068 12.8913 13.1702 13.2911 13.2781L14.7433 13.6702L15.1348 12.2172C15.2426 11.8172 15.6542 11.5804 16.0541 11.6881Z" fill="black"/>
<path fill-rule="evenodd" clip-rule="evenodd" d="M8.62779 8.36373C8.98681 8.15715 9.44532 8.28073 9.6519 8.63975L10.7296 10.5127L12.3826 9.56151C12.5551 9.46229 12.7598 9.43564 12.9519 9.48743C13.144 9.53922 13.3076 9.6652 13.4068 9.83765L15.924 14.2143C16.1305 14.5733 16.0068 15.0318 15.6478 15.2383C15.2887 15.4448 14.8302 15.3212 14.6237 14.9621L12.4805 11.2358L10.8276 12.1869C10.6552 12.2861 10.4505 12.3127 10.2584 12.261C10.0663 12.2092 9.9027 12.0833 9.8035 11.9109L8.35177 9.38784C8.14519 9.02882 8.26877 8.57031 8.62779 8.36373Z" fill="black"/>
<path fill-rule="evenodd" clip-rule="evenodd" d="M17.3303 17.1715C17.6228 16.8783 18.0977 16.8776 18.391 17.1702L21.816 20.5864C22.1092 20.8789 22.1099 21.3538 21.8173 21.6471C21.5248 21.9403 21.0499 21.9409 20.7567 21.6484L17.3317 18.2322C17.0384 17.9397 17.0378 17.4648 17.3303 17.1715Z" fill="black"/>
</svg>