<svg width="25" height="24" viewBox="0 0 25 24" fill="none" xmlns="http://www.w3.org/2000/svg">
<path opacity="0.4" d="M19.5623 10.4452C20.4117 9.95092 20.7036 8.86508 20.2171 8.01081V8.00497L19.6353 6.99405C19.141 6.13978 18.0484 5.84692 17.1931 6.33827C16.3476 6.83838 15.2569 6.55914 14.7558 5.71459L14.751 5.70486C14.5963 5.44508 14.5146 5.1493 14.5107 4.84768C14.5428 3.85914 13.7663 3.03211 12.7778 3.00097C12.7583 3 12.7398 3 12.7204 3H11.546C10.5643 3 9.76742 3.79686 9.76742 4.77859V4.79124C9.75379 5.772 8.95401 6.55914 7.97325 6.55719C7.67163 6.55427 7.37585 6.47157 7.11606 6.31784C6.26082 5.82551 5.16817 6.11935 4.6739 6.97265L4.04828 8.00303C3.55693 8.85827 3.84979 9.95092 4.70406 10.4452C5.25866 10.7653 5.60017 11.3559 5.60017 11.9961C5.60017 12.6363 5.25866 13.2279 4.70406 13.547C3.85174 14.0355 3.55693 15.1223 4.04536 15.9746C4.04633 15.9775 4.04731 15.9795 4.04828 15.9814L4.63985 17.0011C5.11758 17.867 6.20731 18.1823 7.07325 17.7045C7.07715 17.7016 7.08104 17.6997 7.0859 17.6977C7.93239 17.2044 9.01823 17.4915 9.51152 18.3379C9.51347 18.3428 9.51639 18.3477 9.51931 18.3525C9.67304 18.6123 9.75574 18.9081 9.75866 19.2088C9.75866 20.1983 10.5614 21 11.5499 21H12.3808" stroke="black" stroke-width="1.5" stroke-linecap="round" stroke-linejoin="round"/>
<path fill-rule="evenodd" clip-rule="evenodd" d="M17.6188 13.8442C19.2845 13.8442 20.634 15.1938 20.634 16.8595C20.634 18.5242 19.2845 19.8747 17.6188 19.8747C15.954 19.8747 14.6035 18.5242 14.6035 16.8595C14.6035 15.1938 15.954 13.8442 17.6188 13.8442Z" stroke="black" stroke-width="1.5" stroke-linecap="round" stroke-linejoin="round"/>
<path d="M19.6719 19.0674L21.1897 20.5823" stroke="black" stroke-width="1.5" stroke-linecap="round" stroke-linejoin="round"/>
<path opacity="0.4" d="M11.3347 14.3207C10.3607 13.9928 9.66797 13.0753 9.66797 11.9992C9.66797 10.6322 10.7733 9.52783 12.1403 9.52783C13.2164 9.52783 14.1339 10.2206 14.4618 11.1936" stroke="black" stroke-width="1.5" stroke-linecap="round" stroke-linejoin="round"/>
</svg>