<svg width="24" height="24" viewBox="0 0 24 24" fill="none" xmlns="http://www.w3.org/2000/svg">
<path d="M8.73505 4.29199C5.50981 5.31842 3.17285 8.33935 3.17285 11.9051C3.17285 15.0314 4.96846 17.7382 7.58469 19.0503" stroke="black" stroke-width="1.5" stroke-linecap="round" stroke-linejoin="round"/>
<path d="M18.9095 13.8599C18.0377 17.3274 14.8991 19.8939 11.1611 19.8939" stroke="black" stroke-width="1.5" stroke-linecap="round" stroke-linejoin="round"/>
<path d="M16.5996 17.7573L19.8501 21.0001" stroke="black" stroke-width="1.5" stroke-linecap="round" stroke-linejoin="round"/>
<path d="M18.7066 9.78905C18.943 9.78905 19.2543 9.74235 19.5705 9.61587C20.3119 9.28118 20.8266 8.53301 20.8266 7.66613C20.8266 6.32642 19.8799 5.53933 18.7085 5.52862C18.7085 4.68607 18.0479 3 16.1809 3C14.3138 3 13.6532 4.68607 13.6532 5.52862C12.4818 5.53933 11.5352 6.32642 11.5352 7.66613C11.5352 8.53301 12.0518 9.27827 12.7931 9.61392C13.1045 9.7404 13.4158 9.78905 13.6513 9.78905H15.1789" stroke="black" stroke-width="1.5" stroke-linecap="round" stroke-linejoin="round"/>
</svg>