<svg width="24" height="24" viewBox="0 0 24 24" fill="none" xmlns="http://www.w3.org/2000/svg">
<path opacity="0.4" fill-rule="evenodd" clip-rule="evenodd" d="M11.1316 2.5C6.4826 2.5 2.7146 6.27 2.7146 10.92C2.7146 15.57 6.4826 19.34 11.1316 19.34C15.7806 19.34 19.5496 15.57 19.5496 10.92C19.5496 6.27 15.7806 2.5 11.1316 2.5Z" fill="black"/>
<path fill-rule="evenodd" clip-rule="evenodd" d="M6.98453 14.5209C5.98153 14.5209 5.16553 13.7039 5.16553 12.7009C5.16553 11.6969 5.98153 10.8809 6.98453 10.8809C7.98753 10.8809 8.80353 11.6969 8.80353 12.7009C8.80353 13.7039 7.98753 14.5209 6.98453 14.5209ZM6.66629 12.7008C6.66629 12.5248 6.80829 12.3808 6.98429 12.3808C7.16029 12.3808 7.30329 12.5248 7.30329 12.7008C7.30329 12.8768 7.16029 13.0208 6.98429 13.0208C6.80829 13.0208 6.66629 12.8768 6.66629 12.7008Z" fill="black"/>
<path d="M5.85753 8.52986C6.10453 8.19886 6.57453 8.12986 6.90753 8.38086C7.23853 8.62886 7.31953 9.10886 7.07053 9.43986C6.92053 9.63986 6.69653 9.74686 6.46953 9.74686C6.31853 9.74686 6.16653 9.69986 6.03453 9.60086L6.00653 9.57986C5.67553 9.33186 5.60853 8.86186 5.85753 8.52986Z" fill="black"/>
<path d="M7.72153 5.94786C8.01353 5.65586 8.49053 5.65786 8.78253 5.95186L9.91553 7.09286C10.2075 7.38586 10.2055 7.86086 9.91253 8.15286C9.76653 8.29886 9.57553 8.37086 9.38353 8.37086C9.19153 8.37086 8.99753 8.29686 8.85153 8.14886L7.71753 7.00886C7.42553 6.71586 7.42753 6.23986 7.72153 5.94786Z" fill="black"/>
<path fill-rule="evenodd" clip-rule="evenodd" d="M13.5785 5.13086C14.5805 5.13086 15.3975 5.94686 15.3975 6.95086C15.3975 7.95386 14.5805 8.77086 13.5785 8.77086C12.5755 8.77086 11.7595 7.95386 11.7595 6.95086C11.7595 5.94686 12.5755 5.13086 13.5785 5.13086ZM13.897 6.95132C13.897 7.12632 13.754 7.27032 13.578 7.27032C13.402 7.27032 13.26 7.12632 13.26 6.95132C13.26 6.77432 13.402 6.63032 13.578 6.63032C13.754 6.63032 13.897 6.77432 13.897 6.95132Z" fill="black"/>
<path d="M16.6415 9.75086C16.2275 9.75086 15.8795 9.41486 15.8795 9.00086C15.8795 8.58686 16.2045 8.25086 16.6195 8.25086H16.6415C17.0555 8.25086 17.3915 8.58686 17.3915 9.00086C17.3915 9.41486 17.0555 9.75086 16.6415 9.75086Z" fill="black"/>
<path d="M11.3485 10.1989C11.6415 9.90686 12.1165 9.90686 12.4095 10.2009C12.7015 10.4939 12.7015 10.9689 12.4075 11.2619L11.2735 12.3929C11.1265 12.5379 10.9355 12.6109 10.7445 12.6109C10.5515 12.6109 10.3595 12.5379 10.2125 12.3909C9.92053 12.0979 9.92053 11.6229 10.2145 11.3299L11.3485 10.1989Z" fill="black"/>
<path d="M11.1575 15.6959L9.69253 16.3459C9.59353 16.3899 9.49053 16.4099 9.38853 16.4099C9.10153 16.4099 8.82753 16.2439 8.70353 15.9639C8.53553 15.5859 8.70553 15.1429 9.08453 14.9749L10.5495 14.3249C10.9275 14.1559 11.3705 14.3279 11.5385 14.7069C11.7065 15.0849 11.5365 15.5279 11.1575 15.6959Z" fill="black"/>
<path d="M13.1175 16.3109H13.0935C12.6795 16.3109 12.3435 15.9749 12.3435 15.5609C12.3435 15.1469 12.6795 14.8109 13.0935 14.8109C13.5075 14.8109 13.8555 15.1469 13.8555 15.5609C13.8555 15.9749 13.5315 16.3109 13.1175 16.3109Z" fill="black"/>
<path fill-rule="evenodd" clip-rule="evenodd" d="M15.2945 14.0809C14.2915 14.0809 13.4765 13.2649 13.4765 12.2609C13.4765 11.2629 14.2915 10.4509 15.2945 10.4509C16.2975 10.4509 17.1145 11.2629 17.1145 12.2609C17.1145 13.2649 16.2975 14.0809 15.2945 14.0809ZM14.9768 12.261C14.9768 12.087 15.1158 11.951 15.2948 11.951C15.4738 11.951 15.6138 12.087 15.6138 12.261C15.6138 12.443 15.4768 12.581 15.2948 12.581C15.1128 12.581 14.9768 12.443 14.9768 12.261Z" fill="black"/>
<path fill-rule="evenodd" clip-rule="evenodd" d="M20.9914 19.7927L19.0074 17.8137C18.6164 17.4237 17.9834 17.4237 17.5934 17.8157C17.2034 18.2067 17.2044 18.8407 17.5954 19.2307L19.5794 21.2087C19.7744 21.4027 20.0304 21.5007 20.2854 21.5007C20.5414 21.5007 20.7984 21.4027 20.9934 21.2067C21.3834 20.8157 21.3824 20.1827 20.9914 19.7927Z" fill="black"/>
</svg>