<svg width="24" height="24" viewBox="0 0 24 24" fill="none" xmlns="http://www.w3.org/2000/svg">
<path fill-rule="evenodd" clip-rule="evenodd" d="M8.15 20.25H6.893C5.16 20.25 3.75 18.842 3.75 17.11V15.53C3.75 15.116 3.414 14.78 3 14.78C2.586 14.78 2.25 15.116 2.25 15.53V17.11C2.25 19.669 4.333 21.75 6.893 21.75H8.15C8.564 21.75 8.9 21.414 8.9 21C8.9 20.586 8.564 20.25 8.15 20.25Z" fill="black"/>
<path fill-rule="evenodd" clip-rule="evenodd" d="M8.18224 2.25H6.89324C4.33324 2.25 2.25024 4.331 2.25024 6.89V8.47C2.25024 8.884 2.58624 9.22 3.00024 9.22C3.41424 9.22 3.75024 8.884 3.75024 8.47V6.89C3.75024 5.158 5.16024 3.75 6.89324 3.75H8.18224C8.59624 3.75 8.93224 3.414 8.93224 3C8.93224 2.586 8.59624 2.25 8.18224 2.25Z" fill="black"/>
<path fill-rule="evenodd" clip-rule="evenodd" d="M17.1071 2.25H15.8501C15.4361 2.25 15.1001 2.586 15.1001 3C15.1001 3.414 15.4361 3.75 15.8501 3.75H17.1071C18.8401 3.75 20.2501 5.158 20.2501 6.89V8.47C20.2501 8.884 20.5861 9.22 21.0001 9.22C21.4141 9.22 21.7501 8.884 21.7501 8.47V6.89C21.7501 4.331 19.6671 2.25 17.1071 2.25Z" fill="black"/>
<path fill-rule="evenodd" clip-rule="evenodd" d="M14.9982 10.6689C12.4592 10.6689 10.3942 12.7319 10.3942 15.2689C10.3942 17.8099 12.4592 19.8769 14.9982 19.8769C17.5362 19.8769 19.6012 17.8099 19.6012 15.2689C19.6012 12.7319 17.5362 10.6689 14.9982 10.6689Z" fill="black"/>
<path fill-rule="evenodd" clip-rule="evenodd" d="M19.734 19.1563C19.442 18.8633 18.966 18.8633 18.673 19.1563C18.381 19.4493 18.381 19.9253 18.674 20.2173L19.769 21.3093C19.915 21.4563 20.107 21.5293 20.298 21.5293C20.49 21.5293 20.683 21.4563 20.829 21.3093C21.122 21.0163 21.122 20.5413 20.828 20.2493L19.734 19.1563Z" fill="black"/>
</svg>