<svg width="24" height="24" viewBox="0 0 24 24" fill="none" xmlns="http://www.w3.org/2000/svg">
<path d="M21 11.1088V8.02638C21 5.08119 19.165 3 16.2169 3H7.78216C4.84281 3 3 5.08119 3 8.02638V15.9736C3 18.9188 4.83405 21 7.78216 21H11.351" stroke="black" stroke-width="1.5" stroke-linecap="round" stroke-linejoin="round"/>
<path fill-rule="evenodd" clip-rule="evenodd" d="M11.4734 13.6581C11.3304 14.8422 10.2553 15.6868 9.07115 15.5437C7.88704 15.4017 7.04347 14.3265 7.18553 13.1415C7.32855 11.9574 8.40369 11.1138 9.5878 11.2558C10.7719 11.3989 11.6164 12.474 11.4734 13.6581Z" stroke="black" stroke-width="1.5" stroke-linecap="round" stroke-linejoin="round"/>
<path d="M19.4138 19.416L20.9997 20.999M17.4454 14.4043C19.043 14.4043 20.338 15.6993 20.338 17.2969C20.338 18.8946 19.043 20.1896 17.4454 20.1896C15.8478 20.1896 14.5527 18.8946 14.5527 17.2969C14.5527 15.6993 15.8478 14.4043 17.4454 14.4043Z" stroke="black" stroke-width="1.5" stroke-linecap="round" stroke-linejoin="round"/>
<path d="M11.4727 13.6581L12.2479 7.22266C12.2479 7.22266 12.6303 8.73952 14.0917 9.22503" stroke="black" stroke-width="1.5" stroke-linecap="round" stroke-linejoin="round"/>
</svg>