<svg width="24" height="25" viewBox="0 0 24 25" fill="none" xmlns="http://www.w3.org/2000/svg">
<path d="M10.0127 7.74414V7.75414" stroke="black" stroke-width="1.5" stroke-linecap="round" stroke-linejoin="round"/>
<path d="M11.6427 21.0088C10.4892 21.0474 9.47174 20.8772 8.82627 20.6822C10.3218 18.228 10.577 15.0955 10.0071 13.3447C9.89855 13.4261 9.28903 13.5355 6.42252 13.8612C3.55602 14.187 2.75795 10.8481 2.71724 9.13799L6.99444 7.31829C6.83738 6.33132 7.22003 4.02473 10.0071 3.8397L12.1457 3.67109C14.5702 3.46258 17.1189 4.6964 18.1833 8.59423C18.325 9.11301 18.4343 9.60179 18.5156 10.062" stroke="black" stroke-width="1.5" stroke-linecap="round" stroke-linejoin="round"/>
<path d="M13.4473 9.09717C13.2789 9.99202 13.1148 11.3073 13.1696 12.6015" stroke="black" stroke-width="1.5" stroke-linecap="round" stroke-linejoin="round"/>
<path d="M20.0183 17.2401C20.0183 15.5202 18.6239 14.1255 16.9037 14.1255C15.1835 14.1255 13.7891 15.5202 13.7891 17.2401C13.7891 18.9607 15.1835 20.3551 16.9037 20.3551C18.6239 20.3551 20.0183 18.9607 20.0183 17.2401Z" stroke="black" stroke-width="1.5" stroke-linecap="round" stroke-linejoin="round"/>
<path d="M19.0229 19.5212L20.8149 21.3086" stroke="black" stroke-width="1.5" stroke-linecap="round" stroke-linejoin="round"/>
</svg>