<svg width="24" height="24" viewBox="0 0 24 24" fill="none" xmlns="http://www.w3.org/2000/svg">
<path d="M19.761 12.7466C19.2375 16.764 15.8029 19.8668 11.6425 19.8668C8.3769 19.8668 5.55744 17.9544 4.24316 15.1885" stroke="black" stroke-width="1.5" stroke-linecap="round" stroke-linejoin="round"/>
<path d="M3.45508 11.679C3.45508 7.50204 6.58319 4.05577 10.6239 3.55371" stroke="black" stroke-width="1.5" stroke-linecap="round" stroke-linejoin="round"/>
<path d="M17.2129 17.6763L20.5444 20.9999" stroke="black" stroke-width="1.5" stroke-linecap="round" stroke-linejoin="round"/>
<path d="M20.077 6.08141C20.077 8.17427 17.5696 8.93417 17.5696 8.93417C17.5696 8.93417 15.0613 8.17525 15.0613 6.08141C15.0613 3.98757 14.9708 4.05373 15.1722 3.85233C15.3736 3.65092 17.2407 3 17.5696 3C17.8985 3 19.967 3.85233 19.967 3.85233" stroke="black" stroke-width="1.5" stroke-linecap="round" stroke-linejoin="round"/>
</svg>