<svg width="24" height="25" viewBox="0 0 24 25" fill="none" xmlns="http://www.w3.org/2000/svg">
<path d="M11.6363 20.8908C6.57632 20.8908 2.46631 16.7808 2.46631 11.7208C2.46631 6.66078 6.57632 2.55078 11.6363 2.55078C16.6963 2.55078 20.8063 6.66078 20.8063 11.7208C20.8063 16.7808 16.6963 20.8908 11.6363 20.8908ZM11.6363 4.05078C7.40632 4.05078 3.96631 7.49078 3.96631 11.7208C3.96631 15.9508 7.40632 19.3908 11.6363 19.3908C15.8663 19.3908 19.3063 15.9508 19.3063 11.7208C19.3063 7.49078 15.8663 4.05078 11.6363 4.05078Z" fill="black"/>
<path d="M20.7862 22.0508C20.5962 22.0508 20.4062 21.9808 20.2562 21.8308L16.8362 18.4108C16.5462 18.1208 16.5462 17.6408 16.8362 17.3508C17.1262 17.0608 17.6061 17.0608 17.8961 17.3508L21.3162 20.7708C21.6062 21.0608 21.6062 21.5408 21.3162 21.8308C21.1662 21.9808 20.9762 22.0508 20.7862 22.0508Z" fill="black"/>
<path d="M11.6263 9.22074C11.0863 9.22074 10.6562 8.78075 10.6562 8.24075C10.6562 7.98075 10.7562 7.74074 10.9362 7.55074C11.1162 7.36074 11.3663 7.26074 11.6263 7.26074C12.1663 7.26074 12.6063 7.70075 12.6063 8.24075C12.6063 8.78075 12.1663 9.22074 11.6363 9.22074H11.6263Z" fill="black"/>
<path d="M14.8863 10.8711C14.3463 10.8711 13.9163 10.4311 13.9163 9.89113C13.9163 9.63113 14.0163 9.39113 14.1963 9.20113C14.3763 9.01113 14.6263 8.91113 14.8863 8.91113C15.4263 8.91113 15.8662 9.35113 15.8662 9.89113C15.8662 10.4311 15.4263 10.8711 14.8863 10.8711Z" fill="black"/>
<path d="M8.37625 10.8711C7.83625 10.8711 7.40625 10.4311 7.40625 9.89113C7.40625 9.63113 7.50625 9.39113 7.68625 9.20113C7.86625 9.01113 8.11625 8.91113 8.37625 8.91113C8.91625 8.91113 9.35626 9.35113 9.35626 9.89113C9.35626 10.4311 8.91626 10.8711 8.38626 10.8711H8.37625Z" fill="black"/>
<path d="M9.46625 16.1707C9.15625 16.1707 8.85624 16.1107 8.57624 15.9207C8.18624 15.6707 7.94627 15.2407 7.85627 14.6507C7.73627 13.8807 7.98626 13.0807 8.56626 12.4007C9.31626 11.5207 10.5063 10.9707 11.6663 10.9707C13.6963 10.9707 15.4863 12.5607 15.4963 14.3707C15.4963 15.0307 15.3163 15.5307 14.9363 15.8307C14.3263 16.3207 13.5263 16.1307 12.7563 15.9507C12.3763 15.8607 11.9863 15.7707 11.6663 15.7707C11.3963 15.7707 11.0463 15.8607 10.6963 15.9607C10.3063 16.0607 9.87625 16.1807 9.46625 16.1807V16.1707ZM11.6563 12.4707C10.9363 12.4707 10.1762 12.8307 9.70624 13.3807C9.53624 13.5807 9.26625 13.9807 9.33625 14.4207C9.36625 14.6207 9.41626 14.6807 9.41626 14.6807C9.52626 14.7107 10.0163 14.5807 10.3163 14.5007C10.7363 14.3907 11.2063 14.2607 11.6663 14.2607C12.1663 14.2607 12.6663 14.3807 13.1063 14.4907C13.3863 14.5607 13.7763 14.6407 13.9763 14.6507C13.9763 14.6007 13.9963 14.5207 13.9963 14.3907C13.9963 13.5007 12.9663 12.4807 11.6663 12.4807L11.6563 12.4707Z" fill="black"/>
</svg>