<svg width="24" height="24" viewBox="0 0 24 24" fill="none" xmlns="http://www.w3.org/2000/svg">
<path fill-rule="evenodd" clip-rule="evenodd" d="M11.2143 9.58228H11.0843C10.7443 9.59228 10.4343 9.73228 10.2043 9.97228C9.67426 10.4923 9.67426 11.3523 10.2043 11.8723C10.4343 12.1123 10.7443 12.2523 11.0843 12.2623H11.2143C11.5543 12.2523 11.8643 12.1123 12.0943 11.8723C12.6243 11.3523 12.6243 10.4923 12.0943 9.97228C11.8643 9.73228 11.5543 9.59228 11.2143 9.58228Z" fill="black"/>
<path fill-rule="evenodd" clip-rule="evenodd" d="M13.8944 11.6424L14.2444 11.8424C14.6044 12.0524 14.7244 12.5024 14.5244 12.8624C14.3144 13.2224 13.8544 13.3524 13.4944 13.1424L13.1544 12.9424C12.7944 13.2924 12.3644 13.5424 11.8944 13.6724V14.0624C11.8944 14.4724 11.5644 14.8124 11.1444 14.8124C10.7344 14.8124 10.3944 14.4724 10.3944 14.0624V13.6724C9.93436 13.5424 9.50436 13.2924 9.14436 12.9424L8.80436 13.1424C8.43436 13.3524 7.98436 13.2224 7.77436 12.8624C7.57436 12.5024 7.69436 12.0524 8.05436 11.8424L8.40436 11.6424C8.27436 11.1724 8.27436 10.6724 8.40436 10.2024L8.05436 10.0024C7.69436 9.79244 7.57436 9.34244 7.77436 8.98244C7.98436 8.62244 8.44436 8.49244 8.80436 8.70244L9.14436 8.90244C9.50436 8.55244 9.93436 8.30244 10.3944 8.17244V7.78244C10.3944 7.37244 10.7344 7.03244 11.1444 7.03244C11.5644 7.03244 11.8944 7.37244 11.8944 7.78244V8.17244C12.3644 8.30244 12.7944 8.55244 13.1544 8.90244L13.4944 8.70244C13.8544 8.49244 14.3144 8.62244 14.5244 8.98244C14.7244 9.34244 14.6044 9.79244 14.2444 10.0024L13.8944 10.2024C14.0144 10.6724 14.0144 11.1724 13.8944 11.6424ZM11.1344 2.50244C6.48436 2.50244 2.71436 6.27244 2.71436 10.9224C2.71436 15.5724 6.48436 19.3424 11.1344 19.3424C15.7844 19.3424 19.5544 15.5724 19.5544 10.9224C19.5544 6.27244 15.7844 2.50244 11.1344 2.50244Z" fill="black"/>
<path fill-rule="evenodd" clip-rule="evenodd" d="M20.992 19.7896L19.009 17.8106C18.618 17.4206 17.984 17.4206 17.595 17.8126C17.204 18.2036 17.205 18.8376 17.596 19.2276L19.58 21.2056C19.775 21.3996 20.031 21.4976 20.286 21.4976C20.542 21.4976 20.799 21.3996 20.994 21.2036C21.384 20.8126 21.383 20.1796 20.992 19.7896Z" fill="black"/>
</svg>