<svg width="25" height="24" viewBox="0 0 25 24" fill="none" xmlns="http://www.w3.org/2000/svg">
<path fill-rule="evenodd" clip-rule="evenodd" d="M11.8824 3.75C7.64753 3.75 4.21484 7.18268 4.21484 11.4175C4.21484 15.6525 7.64764 19.086 11.8824 19.086C13.885 19.086 15.7082 18.3181 17.0739 17.0608C17.0761 17.0586 17.0783 17.0563 17.0805 17.0541C17.0964 17.0382 17.1128 17.0232 17.1296 17.009C18.6194 15.61 19.5499 13.6224 19.5499 11.4175C19.5499 7.18268 16.1172 3.75 11.8824 3.75ZM18.67 17.5803C20.1487 15.9522 21.0499 13.79 21.0499 11.4175C21.0499 6.35426 16.9456 2.25 11.8824 2.25C6.8191 2.25 2.71484 6.35426 2.71484 11.4175C2.71484 16.4807 6.81899 20.586 11.8824 20.586C14.0329 20.586 16.0104 19.8455 17.5739 18.6055L20.5069 21.531C20.8001 21.8235 21.275 21.8229 21.5675 21.5296C21.86 21.2364 21.8594 20.7615 21.5662 20.469L18.67 17.5803ZM12.145 7.05899C12.5592 7.05899 12.895 7.39478 12.895 7.80899V8.11847H13.7578C14.1721 8.11847 14.5078 8.45426 14.5078 8.86847C14.5078 9.28268 14.1721 9.61847 13.7578 9.61847H12.2131C12.1906 9.62049 12.1679 9.62152 12.145 9.62152C12.122 9.62152 12.0993 9.62049 12.0769 9.61847H11.4285C11.1499 9.61847 10.9242 9.84411 10.9242 10.1227C10.9242 10.4013 11.1499 10.6269 11.4285 10.6269H12.8617C13.9687 10.6269 14.8659 11.5241 14.8659 12.6311C14.8659 13.727 13.9866 14.6173 12.895 14.635V14.9374C12.895 15.3516 12.5592 15.6874 12.145 15.6874C11.7308 15.6874 11.395 15.3516 11.395 14.9374V14.6353H10.5323C10.1181 14.6353 9.78232 14.2995 9.78232 13.8853C9.78232 13.4711 10.1181 13.1353 10.5323 13.1353H12.1121C12.123 13.1348 12.134 13.1346 12.145 13.1346C12.156 13.1346 12.1669 13.1348 12.1778 13.1353H12.8617C13.1403 13.1353 13.3659 12.9097 13.3659 12.6311C13.3659 12.3525 13.1403 12.1269 12.8617 12.1269H11.4285C10.3215 12.1269 9.42425 11.2297 9.42425 10.1227C9.42425 9.02687 10.3034 8.13662 11.395 8.11875V7.80899C11.395 7.39478 11.7308 7.05899 12.145 7.05899Z" fill="black"/>
</svg>