<svg width="24" height="24" viewBox="0 0 24 24" fill="none" xmlns="http://www.w3.org/2000/svg">
<path fill-rule="evenodd" clip-rule="evenodd" d="M11.2543 9.10791C11.5343 9.13791 12.6843 9.53791 13.0743 9.70791C13.0643 9.78791 13.0643 9.88791 13.0643 10.0279C13.0543 10.3379 13.0443 10.7779 13.0443 11.4379C13.0443 12.6279 11.8043 13.2779 11.2843 13.4879C10.7743 13.2779 9.53434 12.6379 9.53434 11.4379C9.53434 10.7879 9.52434 10.3379 9.51434 10.0279V9.71791C9.96434 9.50791 11.0443 9.13791 11.2543 9.10791Z" fill="black"/>
<path fill-rule="evenodd" clip-rule="evenodd" d="M14.5644 10.058C14.5544 10.358 14.5444 10.798 14.5444 11.438C14.5444 14.048 11.6344 14.968 11.5044 15.008C11.4344 15.028 11.3644 15.038 11.2944 15.038C11.2144 15.038 11.1444 15.028 11.0744 15.008C10.9544 14.968 8.03436 14.068 8.03436 11.438C8.03436 10.798 8.02436 10.368 8.01436 10.058C8.00436 9.31805 7.99436 9.03805 8.36436 8.67805C8.75436 8.29805 10.8144 7.60805 11.2944 7.60805C11.7644 7.60805 13.8344 8.29805 14.2144 8.67805C14.5844 9.03805 14.5744 9.31805 14.5644 10.058ZM11.1344 2.49805C6.48436 2.49805 2.71436 6.26805 2.71436 10.918C2.71436 15.568 6.48436 19.338 11.1344 19.338C15.7844 19.338 19.5544 15.568 19.5544 10.918C19.5544 6.26805 15.7844 2.49805 11.1344 2.49805Z" fill="black"/>
<path fill-rule="evenodd" clip-rule="evenodd" d="M20.9918 19.794L19.0088 17.815C18.6178 17.425 17.9838 17.425 17.5948 17.817C17.2038 18.208 17.2048 18.842 17.5958 19.232L19.5798 21.21C19.7748 21.404 20.0308 21.502 20.2858 21.502C20.5418 21.502 20.7988 21.404 20.9938 21.208C21.3838 20.817 21.3828 20.184 20.9918 19.794Z" fill="black"/>
</svg>