<svg width="25" height="24" viewBox="0 0 25 24" fill="none" xmlns="http://www.w3.org/2000/svg">
<path opacity="0.4" d="M9.46875 11.0897H13.7684M11.6181 8.94043V13.2401" stroke="black" stroke-width="1.5" stroke-linecap="round" stroke-linejoin="round"/>
<path d="M11.6275 19.2002C16.1012 19.2002 19.7276 15.5739 19.7276 11.1001C19.7276 6.62632 16.1012 3 11.6275 3C7.15366 3 3.52734 6.62632 3.52734 11.1001C3.52734 15.5739 7.15366 19.2002 11.6275 19.2002Z" stroke="black" stroke-width="1.5" stroke-linecap="round" stroke-linejoin="round"/>
<path opacity="0.4" fill-rule="evenodd" clip-rule="evenodd" d="M21.4713 19.4852C21.4713 20.3219 20.7931 21.0001 19.9563 21.0001C19.1196 21.0001 18.4414 20.3219 18.4414 19.4852C18.4414 18.6484 19.1196 17.9702 19.9563 17.9702C20.7931 17.9702 21.4713 18.6484 21.4713 19.4852Z" stroke="black" stroke-width="1.5" stroke-linecap="round" stroke-linejoin="round"/>
</svg>