<svg width="24" height="24" viewBox="0 0 24 24" fill="none" xmlns="http://www.w3.org/2000/svg">
<path fill-rule="evenodd" clip-rule="evenodd" d="M14.6853 9.54098L10.8853 13.331C10.7353 13.481 10.5453 13.551 10.3553 13.551C10.1653 13.551 9.97533 13.481 9.82533 13.331L7.92533 11.431C7.63533 11.141 7.63533 10.671 7.92533 10.371C8.21533 10.081 8.68533 10.081 8.98533 10.371L10.3553 11.741L13.6253 8.47098C13.9153 8.18098 14.3953 8.18098 14.6853 8.47098C14.9853 8.77098 14.9853 9.24098 14.6853 9.54098ZM11.1353 2.50098C6.48533 2.50098 2.71533 6.27098 2.71533 10.921C2.71533 15.571 6.48533 19.341 11.1353 19.341C15.7753 19.341 19.5453 15.571 19.5453 10.921C19.5453 6.27098 15.7753 2.50098 11.1353 2.50098Z" fill="black"/>
<path fill-rule="evenodd" clip-rule="evenodd" d="M20.991 19.7905L19.008 17.8115C18.617 17.4215 17.983 17.4215 17.594 17.8135C17.203 18.2045 17.204 18.8385 17.595 19.2285L19.579 21.2065C19.774 21.4005 20.03 21.4985 20.285 21.4985C20.541 21.4985 20.798 21.4005 20.993 21.2045C21.383 20.8135 21.382 20.1805 20.991 19.7905Z" fill="black"/>
</svg>