<svg width="24" height="24" viewBox="0 0 24 24" fill="none" xmlns="http://www.w3.org/2000/svg">
<path fill-rule="evenodd" clip-rule="evenodd" d="M14.193 11.6199C14.193 10.2469 13.075 9.12988 11.7 9.12988C10.325 9.12988 9.20703 10.2469 9.20703 11.6199C9.20703 12.9929 10.325 14.1099 11.7 14.1099C13.075 14.1099 14.193 12.9929 14.193 11.6199Z" fill="black"/>
<path fill-rule="evenodd" clip-rule="evenodd" d="M16.07 16.15C15.924 16.296 15.732 16.37 15.54 16.37C15.348 16.37 15.156 16.296 15.009 16.15L13.837 14.978C13.218 15.373 12.488 15.61 11.7 15.61C9.498 15.61 7.707 13.82 7.707 11.62C7.707 9.42 9.498 7.629 11.7 7.629C13.902 7.629 15.693 9.42 15.693 11.62C15.693 12.491 15.404 13.291 14.928 13.948L16.07 15.089C16.363 15.382 16.363 15.857 16.07 16.15ZM16.216 2.5H7.782C4.623 2.5 2.5 4.722 2.5 8.03V15.969C2.5 19.277 4.623 21.5 7.782 21.5H16.216C19.376 21.5 21.5 19.277 21.5 15.969V8.03C21.5 4.722 19.377 2.5 16.216 2.5Z" fill="black"/>
</svg>