<svg width="25" height="24" viewBox="0 0 25 24" fill="none" xmlns="http://www.w3.org/2000/svg">
<path fill-rule="evenodd" clip-rule="evenodd" d="M11.8824 3.75C7.64753 3.75 4.21484 7.18268 4.21484 11.4175C4.21484 15.6525 7.64764 19.086 11.8824 19.086C13.885 19.086 15.7082 18.3181 17.0739 17.0608C17.0761 17.0586 17.0783 17.0563 17.0805 17.0541C17.0964 17.0382 17.1128 17.0232 17.1296 17.009C18.6194 15.61 19.5499 13.6224 19.5499 11.4175C19.5499 7.18268 16.1172 3.75 11.8824 3.75ZM18.67 17.5803C20.1487 15.9522 21.0499 13.79 21.0499 11.4175C21.0499 6.35426 16.9456 2.25 11.8824 2.25C6.8191 2.25 2.71484 6.35426 2.71484 11.4175C2.71484 16.4807 6.81899 20.586 11.8824 20.586C14.0329 20.586 16.0104 19.8455 17.5739 18.6055L20.5069 21.531C20.8001 21.8235 21.275 21.8229 21.5675 21.5296C21.86 21.2364 21.8594 20.7615 21.5662 20.469L18.67 17.5803ZM11.878 7.20868C12.2922 7.20868 12.628 7.54446 12.628 7.95868V8.03749C12.628 8.4517 12.2922 8.78749 11.878 8.78749C11.4638 8.78749 11.128 8.4517 11.128 8.03749V7.95868C11.128 7.54446 11.4638 7.20868 11.878 7.20868ZM11.8827 10.1006C12.2969 10.1006 12.6327 10.4364 12.6327 10.8506V14.8769C12.6327 15.2911 12.2969 15.6269 11.8827 15.6269C11.4685 15.6269 11.1327 15.2911 11.1327 14.8769V10.8506C11.1327 10.4364 11.4685 10.1006 11.8827 10.1006Z" fill="black"/>
</svg>