<svg width="24" height="24" viewBox="0 0 24 24" fill="none" xmlns="http://www.w3.org/2000/svg">
<path opacity="0.4" fill-rule="evenodd" clip-rule="evenodd" d="M11.1339 2.49756C6.48387 2.49756 2.71387 6.26756 2.71387 10.9176C2.71387 15.5676 6.48387 19.3376 11.1339 19.3376C15.7839 19.3376 19.5539 15.5676 19.5539 10.9176C19.5539 6.26756 15.7839 2.49756 11.1339 2.49756Z" fill="black"/>
<path fill-rule="evenodd" clip-rule="evenodd" d="M20.9923 19.7937L19.0093 17.8148C18.6183 17.4248 17.9843 17.4248 17.5953 17.8168C17.2043 18.2078 17.2053 18.8418 17.5963 19.2318L19.5803 21.2098C19.7753 21.4038 20.0313 21.5017 20.2863 21.5017C20.5423 21.5017 20.7993 21.4038 20.9943 21.2078C21.3843 20.8168 21.3833 20.1837 20.9923 19.7937Z" fill="black"/>
<path d="M14.2034 14.7871H13.8334C13.4234 14.7871 13.0834 14.4571 13.0834 14.0371C13.0834 13.6271 13.4234 13.2871 13.8334 13.2871H14.2034C14.6134 13.2871 14.9534 13.6271 14.9534 14.0371C14.9534 14.4571 14.6134 14.7871 14.2034 14.7871Z" fill="black"/>
<path d="M11.6434 14.7871H8.41344C8.00344 14.7871 7.66344 14.4571 7.66344 14.0371C7.66344 13.6271 8.00344 13.2871 8.41344 13.2871H11.6434C12.0534 13.2871 12.3934 13.6271 12.3934 14.0371C12.3934 14.4571 12.0534 14.7871 11.6434 14.7871Z" fill="black"/>
<path d="M15.3434 11.7871H7.27344C6.85344 11.7871 6.52344 11.4571 6.52344 11.0371C6.52344 10.6271 6.85344 10.2871 7.27344 10.2871H15.3434C15.7634 10.2871 16.0934 10.6271 16.0934 11.0371C16.0934 11.4571 15.7634 11.7871 15.3434 11.7871Z" fill="black"/>
<path d="M8.42344 7.28711H8.79344C9.21344 7.28711 9.54344 7.62711 9.54344 8.03711C9.54344 8.45711 9.21344 8.78711 8.79344 8.78711H8.42344C8.00344 8.78711 7.67344 8.45711 7.67344 8.03711C7.67344 7.62711 8.00344 7.28711 8.42344 7.28711Z" fill="black"/>
<path d="M10.9934 7.28711H14.2034C14.6134 7.28711 14.9534 7.62711 14.9534 8.03711C14.9534 8.45711 14.6134 8.78711 14.2034 8.78711H10.9934C10.5834 8.78711 10.2434 8.45711 10.2434 8.03711C10.2434 7.62711 10.5834 7.28711 10.9934 7.28711Z" fill="black"/>
</svg>