<svg width="24" height="24" viewBox="0 0 24 24" fill="none" xmlns="http://www.w3.org/2000/svg">
<path opacity="0.4" fill-rule="evenodd" clip-rule="evenodd" d="M11.1353 2.5C6.48533 2.5 2.71533 6.27 2.71533 10.92C2.71533 15.57 6.48533 19.34 11.1353 19.34C15.7753 19.34 19.5453 15.57 19.5453 10.92C19.5453 6.27 15.7753 2.5 11.1353 2.5Z" fill="black"/>
<path fill-rule="evenodd" clip-rule="evenodd" d="M20.9894 19.7908L19.0064 17.8118C18.6154 17.4218 17.9814 17.4218 17.5924 17.8138C17.2014 18.2048 17.2024 18.8388 17.5934 19.2288L19.5774 21.2068C19.7724 21.4008 20.0284 21.4988 20.2834 21.4988C20.5394 21.4988 20.7964 21.4008 20.9914 21.2048C21.3814 20.8138 21.3804 20.1808 20.9894 19.7908Z" fill="black"/>
<path fill-rule="evenodd" clip-rule="evenodd" d="M13.2867 14.161C13.6067 14.161 13.9567 14.091 14.3167 13.951C15.2167 13.531 15.7967 12.631 15.7967 11.651C15.7967 10.431 15.0567 9.481 13.9567 9.201C13.6767 8.161 12.7867 7.021 11.1967 7.021C9.60668 7.021 8.71668 8.161 8.43668 9.201C7.33668 9.481 6.59668 10.431 6.59668 11.651C6.59668 12.641 7.17668 13.541 8.09668 13.951C8.41668 14.081 8.76668 14.161 9.09668 14.161H13.2867ZM13.7466 12.5613C14.0666 12.4113 14.2966 12.0513 14.2966 11.6513C14.2966 10.9013 13.7766 10.6313 13.2866 10.6213C12.8766 10.6213 12.5466 10.2813 12.5466 9.87126C12.5466 9.61126 12.3066 8.52126 11.1966 8.52126C10.0866 8.52126 9.84656 9.61126 9.84656 9.87126C9.84656 10.2813 9.51656 10.6213 9.10656 10.6213C8.86656 10.6213 8.09656 10.7013 8.09656 11.6513C8.09656 12.0513 8.32656 12.4113 8.68656 12.5713C8.87656 12.6513 9.04656 12.6613 9.09656 12.6613H13.2866C13.3366 12.6613 13.5166 12.6513 13.7466 12.5613Z" fill="black"/>
</svg>