<svg width="25" height="25" viewBox="0 0 25 25" fill="none" xmlns="http://www.w3.org/2000/svg">
<path fill-rule="evenodd" clip-rule="evenodd" d="M11.8818 4.0332C7.64711 4.0332 4.21484 7.46635 4.21484 11.7002C4.21484 15.9351 7.64717 19.3682 11.8818 19.3682C13.8851 19.3682 15.7089 18.5999 17.0746 17.3419C17.0764 17.34 17.0782 17.3382 17.08 17.3364C17.0953 17.321 17.1112 17.3065 17.1275 17.2927C18.6179 15.8938 19.5488 13.9057 19.5488 11.7002C19.5488 7.46635 16.1166 4.0332 11.8818 4.0332ZM2.71484 11.7002C2.71484 6.63804 6.81856 2.5332 11.8818 2.5332C16.9451 2.5332 21.0488 6.63804 21.0488 11.7002C21.0488 14.0727 20.1478 16.2348 18.6691 17.8628L21.5646 20.7523C21.8578 21.0449 21.8583 21.5198 21.5657 21.813C21.2731 22.1062 20.7982 22.1067 20.505 21.8141L17.573 18.888C16.0096 20.1278 14.0323 20.8682 11.8818 20.8682C6.8185 20.8682 2.71484 16.7633 2.71484 11.7002Z" fill="black"/>
<path fill-rule="evenodd" clip-rule="evenodd" d="M11.611 10.5488C10.9987 10.5488 10.502 11.0455 10.502 11.6588V12.8898C10.502 13.5026 10.9981 13.9988 11.611 13.9988H12.155C12.767 13.9988 13.2639 13.5023 13.2639 12.8898V11.6588C13.2639 11.0458 12.7665 10.5488 12.155 10.5488H11.611ZM9.00195 11.6588C9.00195 10.2181 10.1692 9.04883 11.611 9.04883H12.155C13.5954 9.04883 14.7639 10.2179 14.7639 11.6588V12.8898C14.7639 14.3313 13.5949 15.4988 12.155 15.4988H11.611C10.1698 15.4988 9.00195 14.3311 9.00195 12.8898V11.6588Z" fill="black"/>
<path fill-rule="evenodd" clip-rule="evenodd" d="M8.04358 7.82519C8.45186 7.75535 8.83946 8.02971 8.9093 8.43799L9.00051 8.97118C9.03959 9.20184 9.1971 9.39678 9.41481 9.4836L10.3837 9.86175C10.7696 10.0123 10.9603 10.4472 10.8097 10.8331C10.6591 11.219 10.2242 11.4097 9.83837 11.2591L8.86384 10.8788C8.1585 10.5994 7.64873 9.9709 7.52169 9.22237L7.43078 8.69091C7.36094 8.28263 7.6353 7.89503 8.04358 7.82519Z" fill="black"/>
<path fill-rule="evenodd" clip-rule="evenodd" d="M11.8835 8.74414C11.6141 8.74414 11.3965 8.96196 11.3965 9.23114V10.0732C11.3965 10.4874 11.0607 10.8232 10.6465 10.8232C10.2323 10.8232 9.89648 10.4874 9.89648 10.0732V9.23114C9.89648 8.13432 10.7849 7.24414 11.8835 7.24414C12.9807 7.24414 13.8705 8.13393 13.8705 9.23114V10.0732C13.8705 10.4874 13.5347 10.8232 13.1205 10.8232C12.7063 10.8232 12.3705 10.4874 12.3705 10.0732V9.23114C12.3705 8.96235 12.1523 8.74414 11.8835 8.74414Z" fill="black"/>
<path fill-rule="evenodd" clip-rule="evenodd" d="M15.722 7.82519C16.1303 7.89503 16.4046 8.28263 16.3348 8.69091L16.244 9.22169C16.2439 9.22187 16.2439 9.22206 16.2439 9.22224C16.1169 9.97083 15.6071 10.5993 14.9017 10.8787L14.8982 10.8801L14.8982 10.8801L13.9272 11.2591C13.5413 11.4097 13.1064 11.219 12.9558 10.8331C12.8052 10.4472 12.996 10.0123 13.3818 9.86175L14.3507 9.4836C14.5684 9.39678 14.726 9.20184 14.765 8.97118L14.7652 8.96997L14.7652 8.96997L14.8562 8.43799C14.9261 8.02971 15.3137 7.75535 15.722 7.82519Z" fill="black"/>
<path fill-rule="evenodd" clip-rule="evenodd" d="M14.0966 12.4035C14.0878 12.4041 14.079 12.4048 14.0702 12.4055C13.6572 12.4367 13.297 12.1271 13.2658 11.7141C13.2346 11.301 13.5442 10.9409 13.9572 10.9097C13.9888 10.9073 14.0209 10.9049 14.0534 10.9023C14.6823 10.8537 15.4747 10.7923 16.3785 11.1557C16.7628 11.3102 16.9491 11.7471 16.7946 12.1314C16.6401 12.5157 16.2032 12.7019 15.8189 12.5474C15.245 12.3167 14.7634 12.3531 14.0966 12.4035Z" fill="black"/>
<path fill-rule="evenodd" clip-rule="evenodd" d="M9.71229 10.9024C9.74456 10.9049 9.77639 10.9074 9.80778 10.9097C10.2208 10.941 10.5303 11.3011 10.4991 11.7142C10.4678 12.1272 10.1077 12.4367 9.69464 12.4055C9.68613 12.4048 9.67766 12.4042 9.66921 12.4035C9.00295 12.3531 8.5202 12.3165 7.94601 12.5474C7.5617 12.7019 7.12489 12.5157 6.97036 12.1314C6.81583 11.7471 7.00211 11.3102 7.38642 11.1557C8.29052 10.7922 9.08403 10.8537 9.71229 10.9024Z" fill="black"/>
<path fill-rule="evenodd" clip-rule="evenodd" d="M10.4658 12.8064C10.6149 13.1928 10.4223 13.6269 10.0359 13.776L9.41631 14.0148C9.19104 14.1066 9.03939 14.3002 9.00322 14.5212L9.0019 14.5293L9.00186 14.5293L8.90884 15.0613C8.83749 15.4693 8.44889 15.7423 8.04087 15.6709C7.63284 15.5996 7.35991 15.211 7.43125 14.8029L7.52364 14.2746C7.64857 13.5209 8.16274 12.9013 8.86199 12.621L8.87123 12.6173L8.87125 12.6173L9.49625 12.3764C9.88274 12.2274 10.3168 12.4199 10.4658 12.8064Z" fill="black"/>
<path fill-rule="evenodd" clip-rule="evenodd" d="M13.3032 12.8041C13.4535 12.4181 13.8882 12.227 14.2742 12.3773L14.9002 12.6209C15.6013 12.902 16.1123 13.5207 16.2439 14.2705L16.2454 14.2791L16.3323 14.8111C16.3992 15.2199 16.122 15.6055 15.7132 15.6723C15.3044 15.7392 14.9188 15.462 14.852 15.0532L14.7658 14.5263C14.7246 14.2985 14.5692 14.1054 14.345 14.0144L13.7301 13.7751C13.3441 13.6248 13.153 13.1901 13.3032 12.8041Z" fill="black"/>
</svg>