<svg width="25" height="25" viewBox="0 0 25 25" fill="none" xmlns="http://www.w3.org/2000/svg">
<path d="M11.8818 3.32422C16.5308 3.32422 20.2988 7.09321 20.2988 11.7412C20.2988 16.3902 16.5308 20.1592 11.8818 20.1592C7.23284 20.1592 3.46484 16.3902 3.46484 11.7412C3.46484 8.70755 5.06998 6.04834 7.47756 4.5671" stroke="black" stroke-width="1.5" stroke-linecap="round" stroke-linejoin="round"/>
<path d="M17.6113 17.9062L21.0353 21.3232" stroke="black" stroke-width="1.5" stroke-linecap="round" stroke-linejoin="round"/>
<path fill-rule="evenodd" clip-rule="evenodd" d="M12.155 14.7898H11.611C10.584 14.7898 9.75195 13.9578 9.75195 12.9308V11.6998C9.75195 10.6728 10.584 9.83984 11.611 9.83984H12.155C13.181 9.83984 14.0139 10.6728 14.0139 11.6998V12.9308C14.0139 13.9578 13.181 14.7898 12.155 14.7898Z" stroke="black" stroke-width="1.5" stroke-linecap="round" stroke-linejoin="round"/>
<path d="M8.16992 8.60547L8.26093 9.13745C8.34393 9.62745 8.67792 10.0395 9.13992 10.2225L10.1109 10.6014" stroke="black" stroke-width="1.5" stroke-linecap="round" stroke-linejoin="round"/>
<path d="M10.6465 10.1142V9.27216C10.6465 8.58916 11.1995 8.03516 11.8835 8.03516C12.5665 8.03516 13.1205 8.58916 13.1205 9.27216V10.1142" stroke="black" stroke-width="1.5" stroke-linecap="round" stroke-linejoin="round"/>
<path d="M15.5953 8.60547L15.5043 9.13745C15.4213 9.62745 15.0873 10.0395 14.6253 10.2225L13.6543 10.6014" stroke="black" stroke-width="1.5" stroke-linecap="round" stroke-linejoin="round"/>
<path d="M14.0137 11.6983C14.6757 11.6483 15.3327 11.5842 16.0987 11.8922" stroke="black" stroke-width="1.5" stroke-linecap="round" stroke-linejoin="round"/>
<path d="M9.75101 11.6983C9.09001 11.6483 8.43202 11.5842 7.66602 11.8922" stroke="black" stroke-width="1.5" stroke-linecap="round" stroke-linejoin="round"/>
<path d="M8.16992 14.9731L8.26294 14.4412C8.34294 13.9522 8.67693 13.5442 9.14093 13.3582L9.76593 13.1172" stroke="black" stroke-width="1.5" stroke-linecap="round" stroke-linejoin="round"/>
<path d="M14.002 13.1172L14.6209 13.3582C15.0849 13.5442 15.4189 13.9512 15.5049 14.4412L15.5919 14.9732" stroke="black" stroke-width="1.5" stroke-linecap="round" stroke-linejoin="round"/>
</svg>