<svg width="24" height="24" viewBox="0 0 24 24" fill="none" xmlns="http://www.w3.org/2000/svg">
<path fill-rule="evenodd" clip-rule="evenodd" d="M8.99609 9.15234C8.99609 8.73813 9.33188 8.40234 9.74609 8.40234H21.0014C21.4156 8.40234 21.7514 8.73813 21.7514 9.15234C21.7514 9.56656 21.4156 9.90234 21.0014 9.90234H9.74609C9.33188 9.90234 8.99609 9.56656 8.99609 9.15234Z" fill="black"/>
<path fill-rule="evenodd" clip-rule="evenodd" d="M2.24902 14.1794C2.24902 13.7652 2.58481 13.4294 2.99902 13.4294H14.1053C14.5196 13.4294 14.8553 13.7652 14.8553 14.1794C14.8553 14.5937 14.5196 14.9294 14.1053 14.9294H2.99902C2.58481 14.9294 2.24902 14.5937 2.24902 14.1794Z" fill="black"/>
<path fill-rule="evenodd" clip-rule="evenodd" d="M20.9517 12.0576C21.3643 12.0939 21.6694 12.4578 21.6331 12.8704C21.3568 16.0126 19.5751 18.8262 16.8526 20.4193C14.1301 22.0124 10.8045 22.1875 7.92976 20.8891C7.55226 20.7186 7.38445 20.2744 7.55495 19.8969C7.72544 19.5194 8.16968 19.3516 8.54718 19.5221C10.9789 20.6204 13.7921 20.4723 16.095 19.1246C18.398 17.777 19.9052 15.3971 20.1389 12.739C20.1751 12.3264 20.539 12.0213 20.9517 12.0576Z" fill="black"/>
<path fill-rule="evenodd" clip-rule="evenodd" d="M14.8701 4.30069C12.6142 3.43129 10.0901 3.59753 7.9677 4.7553C5.84528 5.91307 4.33909 7.9453 3.84883 10.3127C3.76483 10.7183 3.36793 10.9791 2.96232 10.8951C2.55671 10.8111 2.29599 10.4142 2.37999 10.0086C2.95959 7.20974 4.74023 4.8072 7.24939 3.43848C9.75855 2.06975 12.7425 1.87322 15.4095 2.90104C15.796 3.04999 15.9886 3.48406 15.8397 3.87057C15.6907 4.25707 15.2566 4.44965 14.8701 4.30069Z" fill="black"/>
<path fill-rule="evenodd" clip-rule="evenodd" d="M17.1465 4.98548C17.1465 4.50617 17.535 4.11719 18.0148 4.11719C18.4939 4.11719 18.8831 4.50557 18.8831 4.98548C18.8831 5.46538 18.4939 5.85378 18.0148 5.85378C17.535 5.85378 17.1465 5.46478 17.1465 4.98548Z" fill="black"/>
<path fill-rule="evenodd" clip-rule="evenodd" d="M4.52441 18.712C4.52441 18.2327 4.9129 17.8438 5.39268 17.8438C5.87186 17.8438 6.26102 18.2321 6.26102 18.712C6.26102 19.1919 5.87188 19.5803 5.39268 19.5803C4.91289 19.5803 4.52441 19.1913 4.52441 18.712Z" fill="black"/>
</svg>