<svg width="25" height="24" viewBox="0 0 25 24" fill="none" xmlns="http://www.w3.org/2000/svg">
<path d="M11.1964 16.9498H12.6087C13.6176 16.9498 14.4322 16.2245 14.4322 15.2155C14.4322 14.3774 13.865 13.707 13.0523 13.5029C11.8893 13.2114 10.7282 12.9827 9.51415 13.0112C7.58951 13.0583 6.24393 14.13 4.71875 15.1517" stroke="black" stroke-width="1.5" stroke-linecap="round" stroke-linejoin="round"/>
<path d="M11.1964 16.9818C11.9109 16.8777 12.6381 16.9827 13.3595 16.9661C15.0329 16.9258 16.3441 15.5115 17.6181 14.5517C18.2688 14.0619 19.1805 14.1267 19.7557 14.7048C20.3946 15.3457 20.3946 16.386 19.7557 17.0269C18.3797 18.4078 17.1646 19.6896 15.2999 20.4149C12.7127 21.4209 10.3121 20.9321 7.69159 20.4149C6.67775 20.2137 5.7434 20.2019 4.7168 20.2019" stroke="black" stroke-width="1.5" stroke-linecap="round" stroke-linejoin="round"/>
<path opacity="0.4" fill-rule="evenodd" clip-rule="evenodd" d="M18.1429 6.48107C18.5777 5.12568 18.0723 3.57203 16.6531 3.11468C16.286 2.9969 15.8964 2.96942 15.5156 3.0342C15.1357 3.09799 14.7765 3.36102 14.4683 3.59265C14.1582 3.36298 13.799 3.10192 13.4192 3.03714C13.0403 2.97335 12.6507 2.99985 12.2826 3.11468C10.8634 3.57596 10.3551 5.12568 10.7889 6.48107C11.4592 8.62948 14.4683 10.0349 14.4683 10.0349C14.4683 10.0349 17.4314 8.655 18.1429 6.48107Z" stroke="black" stroke-width="1.5" stroke-linecap="round" stroke-linejoin="round"/>
</svg>