<svg width="25" height="25" viewBox="0 0 25 25" fill="none" xmlns="http://www.w3.org/2000/svg">
<path opacity="0.4" fill-rule="evenodd" clip-rule="evenodd" d="M21.5384 18.5898L14.1564 5.03161C14.156 5.03079 14.1554 5.03 14.1549 5.02926C14.1543 5.02851 14.1538 5.02772 14.1534 5.0269C13.7771 4.33902 13.0847 3.92676 12.3014 3.92676C11.5174 3.92676 10.8234 4.33976 10.4464 5.02976L3.06339 18.5898C2.65739 19.3358 2.72539 20.2178 3.24039 20.8928C3.75439 21.5648 4.57939 21.8608 5.40539 21.6658L11.2607 20.2713C12.1071 20.073 12.5712 20.0649 13.3754 20.2796L19.1974 21.6658C19.3644 21.7058 19.5314 21.7248 19.6964 21.7248C20.3424 21.7248 20.9514 21.4278 21.3594 20.8938C21.8764 20.2188 21.9444 19.3368 21.5384 18.5898Z" fill="black"/>
<path d="M12.2793 11.1094V18.144" stroke="black" stroke-width="1.5" stroke-linecap="round" stroke-linejoin="round"/>
</svg>