<svg width="24" height="24" viewBox="0 0 24 24" fill="none" xmlns="http://www.w3.org/2000/svg">
<g clip-path="url(#clip0_2_62830)">
<path d="M3.00027 18.0137C2.98252 19.0604 3.84698 19.9614 4.89205 20.0156C5.56236 20.0498 4.89205 20.0156 8.00497 20.0156C8.00475 18.9229 7.64637 17.8604 6.9847 16.9909C6.32304 16.1213 5.39459 15.4926 4.34153 15.2011C4.90005 14.2271 5.5827 13.05 6.38345 11.6667C8.04589 12.34 9.46945 13.4943 10.4717 14.9817C11.4739 16.4692 12.0091 18.222 12.0087 20.0156H16.0125M16.0125 20.0156C16.6761 20.0156 18.3517 20.0206 19.0153 20.0156C19.6686 20.011 20.3018 19.6699 20.6651 19.127C21.0283 18.5841 21.102 17.8686 20.8571 17.263L13.7504 5.00147C13.4041 4.37568 12.7139 3.96875 11.9987 3.96875C11.2835 3.96875 10.5933 4.37568 10.2471 5.00147L8.40535 8.18046C12.8916 10.2324 16.0125 14.7576 16.0125 20.0156Z" stroke="black" stroke-width="1.5" stroke-linecap="round" stroke-linejoin="round"/>
</g>
<defs>
<clipPath id="clip0_2_62830">
<rect width="24" height="24" fill="white"/>
</clipPath>
</defs>
</svg>