<svg width="25" height="24" viewBox="0 0 25 24" fill="none" xmlns="http://www.w3.org/2000/svg">
<path d="M17.213 18.12C14.3446 19.4355 11.4762 19.4355 8.60785 18.12C7.86741 17.7804 7.39551 17.0303 7.39551 16.2168V7.95228C7.39551 7.13788 7.86741 6.38771 8.60785 6.04911C11.4762 4.73363 14.3446 4.73363 17.213 6.04911C17.9534 6.38771 18.4253 7.13788 18.4253 7.95228V16.2168C18.4253 17.0303 17.9534 17.7804 17.213 18.12Z" stroke="black" stroke-width="1.5" stroke-linecap="round" stroke-linejoin="round"/>
<path opacity="0.4" d="M14.2897 5.15906V4.38067C14.2897 3.61882 13.6718 3 12.909 3C12.1462 3 11.5273 3.61882 11.5273 4.38067V5.15906" stroke="black" stroke-width="1.5" stroke-linecap="round" stroke-linejoin="round"/>
<path d="M12.9102 21.0028V19.1094" stroke="black" stroke-width="1.5" stroke-linecap="round" stroke-linejoin="round"/>
<path opacity="0.4" d="M11.3242 15.3428C12.4295 15.3184 13.492 15.369 14.4932 15.3428" stroke="black" stroke-width="1.5" stroke-linecap="round" stroke-linejoin="round"/>
<path opacity="0.4" fill-rule="evenodd" clip-rule="evenodd" d="M12.9097 8.55469L13.9771 9.62206C14.5658 10.2107 14.5667 11.1652 13.9771 11.7548C13.3885 12.3445 12.434 12.3445 11.8443 11.7558C11.2557 11.1672 11.2547 10.2117 11.8434 9.62206L12.9097 8.55469Z" stroke="black" stroke-width="1.5" stroke-linecap="round" stroke-linejoin="round"/>
</svg>