<svg width="25" height="24" viewBox="0 0 25 24" fill="none" xmlns="http://www.w3.org/2000/svg">
<path fill-rule="evenodd" clip-rule="evenodd" d="M4.14773 3.73657C5.19853 2.75842 6.64899 2.25 8.27638 2.25H16.2236C17.8519 2.25 19.3023 2.76117 20.3526 3.7402C21.4088 4.72468 22 6.12669 22 7.78216V16.2169C22 17.8762 21.4092 19.2788 20.3524 20.2629C19.3016 21.2413 17.8511 21.75 16.2236 21.75H8.27638C6.64889 21.75 5.19838 21.2413 4.14761 20.2627C3.0908 19.2785 2.5 17.8756 2.5 16.2159V7.78216C2.5 6.1228 3.09086 4.72038 4.14773 3.73657ZM5.16976 4.83451C4.44973 5.50475 4 6.49341 4 7.78216V16.2159C4 17.5052 4.4498 18.4944 5.16988 19.165C5.89599 19.8412 6.95868 20.25 8.27638 20.25H16.2236C17.5413 20.25 18.604 19.8412 19.3302 19.1651C20.0503 18.4946 20.5 17.5056 20.5 16.2169V7.78216C20.5 6.49828 20.0506 5.50921 19.3299 4.83745C18.6033 4.16024 17.5405 3.75 16.2236 3.75H8.27638C6.95857 3.75 5.89585 4.15861 5.16976 4.83451Z" fill="black"/>
<path fill-rule="evenodd" clip-rule="evenodd" d="M6.86328 16.1348C6.86328 15.7206 7.19907 15.3848 7.61328 15.3848H8.13577C8.54998 15.3848 8.88577 15.7206 8.88577 16.1348C8.88577 16.549 8.54998 16.8848 8.13577 16.8848H7.61328C7.19907 16.8848 6.86328 16.549 6.86328 16.1348ZM11.6017 16.1348C11.6017 15.7206 11.9375 15.3848 12.3517 15.3848H16.8858C17.3 15.3848 17.6358 15.7206 17.6358 16.1348C17.6358 16.549 17.3 16.8848 16.8858 16.8848H12.3517C11.9375 16.8848 11.6017 16.549 11.6017 16.1348Z" fill="black"/>
<path fill-rule="evenodd" clip-rule="evenodd" d="M6.86328 7.86523C6.86328 7.45102 7.19907 7.11523 7.61328 7.11523H8.13577C8.54998 7.11523 8.88577 7.45102 8.88577 7.86523C8.88577 8.27945 8.54998 8.61523 8.13577 8.61523H7.61328C7.19907 8.61523 6.86328 8.27945 6.86328 7.86523ZM11.6017 7.86523C11.6017 7.45102 11.9375 7.11523 12.3517 7.11523H16.8858C17.3 7.11523 17.6358 7.45102 17.6358 7.86523C17.6358 8.27945 17.3 8.61523 16.8858 8.61523H12.3517C11.9375 8.61523 11.6017 8.27945 11.6017 7.86523Z" fill="black"/>
<path fill-rule="evenodd" clip-rule="evenodd" d="M2.52344 12C2.52344 11.5858 2.85922 11.25 3.27344 11.25H21.2267C21.6409 11.25 21.9767 11.5858 21.9767 12C21.9767 12.4142 21.6409 12.75 21.2267 12.75H3.27344C2.85922 12.75 2.52344 12.4142 2.52344 12Z" fill="black"/>
</svg>