<svg width="24" height="24" viewBox="0 0 24 24" fill="none" xmlns="http://www.w3.org/2000/svg">
<g opacity="0.4">
<path fill-rule="evenodd" clip-rule="evenodd" d="M15.7481 2.5H7.84814C4.60814 2.5 2.34814 4.68 2.34814 7.8V10.95C2.34814 11.1157 2.48246 11.25 2.64814 11.25H21.0481C21.2138 11.25 21.3481 11.1157 21.3481 10.95V7.8C21.3481 4.63 19.0981 2.5 15.7481 2.5Z" fill="black"/>
<path fill-rule="evenodd" clip-rule="evenodd" d="M13.1986 13.3657C13.42 13.1656 13.2865 12.75 12.988 12.75H2.64814C2.48246 12.75 2.34814 12.8843 2.34814 13.05V16.2C2.34814 19.37 4.55814 21.5 7.84814 21.5H11.5386C11.776 21.5 11.922 21.2355 11.8117 21.0253C11.354 20.1532 11.0981 19.1621 11.0981 18.1C11.0981 16.2222 11.9063 14.5341 13.1986 13.3657Z" fill="black"/>
</g>
<path fill-rule="evenodd" clip-rule="evenodd" d="M20.9019 13.6318C20.4879 13.6318 20.1519 13.9678 20.1519 14.3818V14.5328C19.5259 14.0878 18.6889 13.6988 17.6139 13.6988C16.1779 13.6988 14.8549 14.4898 14.2429 15.7138C14.0579 16.0848 14.2079 16.5348 14.5789 16.7198C14.9499 16.9058 15.3989 16.7558 15.5849 16.3848C15.9389 15.6758 16.7549 15.1988 17.6139 15.1988C18.1389 15.1988 18.5779 15.3478 18.9449 15.5428C18.5589 15.5738 18.2519 15.8878 18.2519 16.2818C18.2519 16.6958 18.5879 17.0318 19.0019 17.0318H20.9019C21.3159 17.0318 21.6519 16.6958 21.6519 16.2818V14.3818C21.6519 13.9678 21.3159 13.6318 20.9019 13.6318Z" fill="black"/>
<path fill-rule="evenodd" clip-rule="evenodd" d="M20.678 18.494C20.316 18.293 19.86 18.423 19.658 18.786C19.267 19.489 18.407 20 17.614 20C17.197 20 16.825 19.836 16.505 19.623H16.648C17.062 19.623 17.398 19.287 17.398 18.873C17.398 18.459 17.062 18.123 16.648 18.123H14.748C14.334 18.123 13.998 18.459 13.998 18.873V20.673C13.998 21.087 14.334 21.423 14.748 21.423C15.14 21.423 15.452 21.119 15.485 20.735C16.043 21.15 16.757 21.5 17.614 21.5C18.94 21.5 20.32 20.683 20.97 19.514C21.171 19.152 21.04 18.695 20.678 18.494Z" fill="black"/>
<path fill-rule="evenodd" clip-rule="evenodd" d="M16.448 8.15039H11.948C11.528 8.15039 11.198 7.81039 11.198 7.40039C11.198 6.99039 11.528 6.65039 11.948 6.65039H16.448C16.858 6.65039 17.198 6.99039 17.198 7.40039C17.198 7.81039 16.858 8.15039 16.448 8.15039ZM7.74805 8.15039H7.24805C6.82805 8.15039 6.49805 7.81039 6.49805 7.40039C6.49805 6.99039 6.82805 6.65039 7.24805 6.65039H7.74805C8.15805 6.65039 8.49805 6.99039 8.49805 7.40039C8.49805 7.81039 8.15805 8.15039 7.74805 8.15039Z" fill="black"/>
<path fill-rule="evenodd" clip-rule="evenodd" d="M7.74805 17.3504H7.24805C6.82805 17.3504 6.49805 17.0104 6.49805 16.6004C6.49805 16.1904 6.82805 15.8504 7.24805 15.8504H7.74805C8.15805 15.8504 8.49805 16.1904 8.49805 16.6004C8.49805 17.0104 8.15805 17.3504 7.74805 17.3504Z" fill="black"/>
</svg>