<svg width="24" height="24" viewBox="0 0 24 24" fill="none" xmlns="http://www.w3.org/2000/svg">
<path fill-rule="evenodd" clip-rule="evenodd" d="M8 2.5H15.9C19.25 2.5 21.5 4.63 21.5 7.8V11.05C21.5 11.1605 21.4105 11.25 21.3 11.25H2.7C2.58954 11.25 2.5 11.1605 2.5 11.05V7.8C2.5 4.68 4.77 2.5 8 2.5ZM12.1 8.15H16.6C17.02 8.15 17.35 7.81 17.35 7.4C17.35 6.99 17.02 6.65 16.6 6.65H12.1C11.69 6.65 11.35 6.99 11.35 7.4C11.35 7.81 11.69 8.15 12.1 8.15ZM7.4 8.15H7.9C8.32 8.15 8.65 7.81 8.65 7.4C8.65 6.99 8.32 6.65 7.9 6.65H7.4C6.99 6.65 6.65 6.99 6.65 7.4C6.65 7.81 6.99 8.15 7.4 8.15Z" fill="black"/>
<path fill-rule="evenodd" clip-rule="evenodd" d="M14.61 15.65C14.61 15.7605 14.5205 15.85 14.41 15.85H12.1C11.69 15.85 11.35 16.19 11.35 16.6C11.35 17.01 11.69 17.35 12.1 17.35H14.41C14.5205 17.35 14.61 17.4395 14.61 17.55V21.05C14.61 21.1195 14.6121 21.1889 14.6174 21.2584C14.627 21.3842 14.5322 21.5 14.406 21.5H8C4.71 21.5 2.5 19.37 2.5 16.2V12.95C2.5 12.8395 2.58954 12.75 2.7 12.75H15.2894C15.4873 12.75 15.5813 13.0302 15.4441 13.1728C14.9265 13.7108 14.61 14.4386 14.61 15.25V15.65ZM7.4 17.35H7.9C8.32 17.35 8.65 17.01 8.65 16.6C8.65 16.19 8.32 15.85 7.9 15.85H7.4C6.99 15.85 6.65 16.19 6.65 16.6C6.65 17.01 6.99 17.35 7.4 17.35Z" fill="black"/>
<path d="M18.4887 13.5215C18.0056 13.5215 17.6137 13.9134 17.6137 14.3965V17.2965C17.6137 17.7795 18.0056 18.1715 18.4887 18.1715C18.9717 18.1715 19.3637 17.7795 19.3637 17.2965V14.3965C19.3637 13.9134 18.9717 13.5215 18.4887 13.5215Z" fill="black"/>
<path d="M18.4883 19.3867C18.0141 19.3867 17.6293 19.7718 17.6293 20.2467C17.6293 20.7216 18.0141 21.1067 18.4883 21.1067C18.9633 21.1067 19.3483 20.7218 19.3483 20.2467C19.3483 19.7717 18.9633 19.3867 18.4883 19.3867Z" fill="black"/>
</svg>