<svg width="24" height="24" viewBox="0 0 24 24" fill="none" xmlns="http://www.w3.org/2000/svg">
<g opacity="0.4">
<path d="M19.75 16.24V16.2776C20.761 16.5986 21.5 17.5346 21.5 18.6496C21.5 20.0286 20.378 21.1496 19 21.1496C17.622 21.1496 16.5 20.0286 16.5 18.6496C16.5 17.5346 17.239 16.5986 18.25 16.2776V16.24H19.75Z" fill="black"/>
<path d="M17.1247 8.83301C18.6485 8.67589 19.8 7.42175 19.8 5.84961C19.8 4.16761 18.482 2.84961 16.8 2.84961H7.5C5.818 2.84961 4.5 4.16761 4.5 5.84961C4.5 7.42175 5.65145 8.67589 7.17535 8.83301H17.1247Z" fill="black"/>
<path d="M4.25 16.24V16.2776C3.239 16.5986 2.5 17.5346 2.5 18.6496C2.5 20.0286 3.622 21.1496 5 21.1496C6.378 21.1496 7.5 20.0286 7.5 18.6496C7.5 17.5346 6.761 16.5986 5.75 16.2776V16.24H4.25Z" fill="black"/>
<path d="M11.25 16.24V16.2776C10.239 16.5986 9.5 17.5346 9.5 18.6496C9.5 20.0286 10.622 21.1496 12 21.1496C13.378 21.1496 14.5 20.0286 14.5 18.6496C14.5 17.5346 13.761 16.5986 12.75 16.2776V16.24H11.25Z" fill="black"/>
</g>
<path d="M19.75 16.24H18.25V14.6496C18.25 13.9606 17.689 13.3996 17 13.3996H12.75V16.24H11.25V13.3996H7C6.311 13.3996 5.75 13.9606 5.75 14.6496V16.24H4.25V14.6496C4.25 13.1336 5.483 11.8996 7 11.8996H11.25V8.83203H12.75V11.8996H17C18.517 11.8996 19.75 13.1336 19.75 14.6496V16.24Z" fill="black"/>
</svg>