<svg width="24" height="24" viewBox="0 0 24 24" fill="none" xmlns="http://www.w3.org/2000/svg">
<path d="M8.02624 3C5.08113 3 3 4.83401 3 7.78203V16.2155C3 19.1645 5.08113 20.9995 8.02624 20.9995H11.1085" stroke="black" stroke-width="1.5" stroke-linecap="round" stroke-linejoin="round"/>
<path d="M20.9998 11.3518V7.78203C20.9998 4.84276 18.9186 3 15.9735 3H12" stroke="black" stroke-width="1.5" stroke-linecap="round" stroke-linejoin="round"/>
<path d="M7.36328 16.1348H7.88575" stroke="black" stroke-width="1.5" stroke-linecap="round" stroke-linejoin="round"/>
<path d="M7.36328 7.86328H7.88575M12.1016 7.86328H16.6355" stroke="black" stroke-width="1.5" stroke-linecap="round" stroke-linejoin="round"/>
<path d="M14.5801 17.369C14.5801 18.9928 15.8965 20.3092 17.5203 20.3092C19.1442 20.3092 20.4606 18.9928 20.4606 17.369C20.4606 15.7461 19.1442 14.4297 17.5203 14.4297C16.8422 14.4297 16.2177 14.6592 15.7203 15.0448" stroke="black" stroke-width="1.5" stroke-linecap="round" stroke-linejoin="round"/>
<path d="M19.5205 19.5234L21.0004 21.0004" stroke="black" stroke-width="1.5" stroke-linecap="round" stroke-linejoin="round"/>
<path d="M12.2197 12H3.02344" stroke="black" stroke-width="1.5" stroke-linecap="round" stroke-linejoin="round"/>
</svg>