<svg width="24" height="24" viewBox="0 0 24 24" fill="none" xmlns="http://www.w3.org/2000/svg">
<path d="M8.02638 3C5.08119 3 3 4.83405 3 7.78216V16.2159C3 19.165 5.08119 21 8.02638 21H11.1088" stroke="black" stroke-width="1.5" stroke-linecap="round" stroke-linejoin="round"/>
<path d="M21 11.352V7.78216C21 4.84281 18.9188 3 15.9736 3H12" stroke="black" stroke-width="1.5" stroke-linecap="round" stroke-linejoin="round"/>
<path d="M7.36328 16.1348H7.88577" stroke="black" stroke-width="1.5" stroke-linecap="round" stroke-linejoin="round"/>
<path d="M7.36328 7.86523H7.88577M12.1017 7.86523H16.6358" stroke="black" stroke-width="1.5" stroke-linecap="round" stroke-linejoin="round"/>
<path d="M12.22 12H3.02344" stroke="black" stroke-width="1.5" stroke-linecap="round" stroke-linejoin="round"/>
<path d="M16.7611 16.4135L15.0098 16.4145V14.6719" stroke="black" stroke-width="1.5" stroke-linecap="round" stroke-linejoin="round"/>
<path d="M21.0004 17.836C21.0004 16.0885 19.5837 14.6719 17.8372 14.6719C16.6006 14.6719 15.5303 15.3812 15.0098 16.4154" stroke="black" stroke-width="1.5" stroke-linecap="round" stroke-linejoin="round"/>
<path d="M15.1299 19.4727C15.6845 20.3873 16.6896 20.9983 17.8377 20.9983C18.5818 20.9983 19.2661 20.7413 19.8065 20.311" stroke="black" stroke-width="1.5" stroke-linecap="round" stroke-linejoin="round"/>
</svg>