<svg width="24" height="24" viewBox="0 0 24 24" fill="none" xmlns="http://www.w3.org/2000/svg">
<g opacity="0.4">
<path fill-rule="evenodd" clip-rule="evenodd" d="M18.05 13.0996H5.95005C4.08005 13.0996 2.55005 14.6296 2.55005 16.4996V18.0996C2.55005 19.9696 4.08005 21.4996 5.95005 21.4996H18.05C19.92 21.4996 21.45 19.9696 21.45 18.0996V16.4996C21.45 14.6296 19.92 13.0996 18.05 13.0996Z" fill="black"/>
<path fill-rule="evenodd" clip-rule="evenodd" d="M18.05 2.5H5.95005C4.08005 2.5 2.55005 4.03 2.55005 5.9V7.5C2.55005 9.37 4.08005 10.9 5.95005 10.9H18.05C19.92 10.9 21.45 9.37 21.45 7.5V5.9C21.45 4.03 19.92 2.5 18.05 2.5Z" fill="black"/>
</g>
<path fill-rule="evenodd" clip-rule="evenodd" d="M16.75 18.0498H13.15C12.74 18.0498 12.4 17.7098 12.4 17.2998C12.4 16.8898 12.74 16.5498 13.15 16.5498H16.75C17.16 16.5498 17.5 16.8898 17.5 17.2998C17.5 17.7098 17.16 18.0498 16.75 18.0498ZM7.94995 18.0498H7.44995C7.03995 18.0498 6.69995 17.7098 6.69995 17.2998C6.69995 16.8898 7.03995 16.5498 7.44995 16.5498H7.94995C8.35995 16.5498 8.69995 16.8898 8.69995 17.2998C8.69995 17.7098 8.35995 18.0498 7.94995 18.0498Z" fill="black"/>
<path fill-rule="evenodd" clip-rule="evenodd" d="M16.75 7.4502H13.15C12.74 7.4502 12.4 7.1102 12.4 6.7002C12.4 6.2902 12.74 5.9502 13.15 5.9502H16.75C17.16 5.9502 17.5 6.2902 17.5 6.7002C17.5 7.1102 17.16 7.4502 16.75 7.4502ZM7.94995 7.4502H7.44995C7.03995 7.4502 6.69995 7.1102 6.69995 6.7002C6.69995 6.2902 7.03995 5.9502 7.44995 5.9502H7.94995C8.35995 5.9502 8.69995 6.2902 8.69995 6.7002C8.69995 7.1102 8.35995 7.4502 7.94995 7.4502Z" fill="black"/>
</svg>