<svg width="25" height="24" viewBox="0 0 25 24" fill="none" xmlns="http://www.w3.org/2000/svg">
<path d="M21.5 10.7838V7.78216C21.5 4.84281 19.4188 3 16.4736 3H8.52638C5.58119 3 3.5 4.83405 3.5 7.78216V16.2159C3.5 19.165 5.58119 21 8.52638 21H11.6088" stroke="black" stroke-width="1.5" stroke-linecap="round" stroke-linejoin="round"/>
<path fill-rule="evenodd" clip-rule="evenodd" d="M18.1365 20.6531C18.1365 20.6531 21.0729 19.7638 21.0729 17.3119C21.0729 14.861 21.1799 14.9388 20.9435 14.7014C20.7081 14.464 18.5218 13.7031 18.1365 13.7031C17.7512 13.7031 15.5639 14.4659 15.3285 14.7014C15.093 14.9369 15.2001 14.86 15.2001 17.3119C15.2001 19.7638 18.1365 20.6531 18.1365 20.6531Z" stroke="black" stroke-width="1.5" stroke-linecap="round" stroke-linejoin="round"/>
<path opacity="0.4" d="M7.86328 7.86523H8.38577M7.86328 16.1355H8.38577" stroke="black" stroke-width="1.5" stroke-linecap="round" stroke-linejoin="round"/>
<path opacity="0.4" d="M12.6035 7.86523H17.1376" stroke="black" stroke-width="1.5" stroke-linecap="round" stroke-linejoin="round"/>
<path d="M12.72 12H3.52344" stroke="black" stroke-width="1.5" stroke-linecap="round" stroke-linejoin="round"/>
</svg>