<svg width="25" height="24" viewBox="0 0 25 24" fill="none" xmlns="http://www.w3.org/2000/svg">
<path d="M21.5 11.352V7.78216C21.5 4.84281 19.4188 3 16.4736 3H8.52638C5.58119 3 3.5 4.83405 3.5 7.78216V16.2159C3.5 19.165 5.58119 21 8.52638 21H11.6088" stroke="black" stroke-width="1.5" stroke-linecap="round" stroke-linejoin="round"/>
<path opacity="0.4" d="M7.86328 16.1357H8.38577" stroke="black" stroke-width="1.5" stroke-linecap="round" stroke-linejoin="round"/>
<path opacity="0.4" d="M7.86328 7.86523H8.38577M12.6017 7.86523H17.1358" stroke="black" stroke-width="1.5" stroke-linecap="round" stroke-linejoin="round"/>
<path d="M12.72 12H3.52344" stroke="black" stroke-width="1.5" stroke-linecap="round" stroke-linejoin="round"/>
<path d="M17.2611 16.4145L15.5098 16.4155V14.6729" stroke="black" stroke-width="1.5" stroke-linecap="round" stroke-linejoin="round"/>
<path d="M15.6294 19.4735C16.184 20.3881 17.1891 20.9991 18.3372 20.9991C20.0837 20.9991 21.5004 19.5834 21.5004 17.836C21.5004 16.0885 20.0837 14.6719 18.3372 14.6719C17.1006 14.6719 16.0303 15.3812 15.5098 16.4154" stroke="black" stroke-width="1.5" stroke-linecap="round" stroke-linejoin="round"/>
</svg>