<svg width="24" height="24" viewBox="0 0 24 24" fill="none" xmlns="http://www.w3.org/2000/svg">
<g opacity="0.4">
<path fill-rule="evenodd" clip-rule="evenodd" d="M5.29 8.43555C5.48 8.33555 5.66 8.25555 5.86 8.18555C6.18 8.07555 6.51 7.99555 6.86 7.97555H6.87C6.96 7.96555 7.06 7.96555 7.15 7.96555H16.85C16.94 7.96555 17.04 7.96555 17.13 7.97555H17.14C17.48 8.00555 17.82 8.07555 18.13 8.19555H18.14C18.34 8.25555 18.53 8.33555 18.71 8.43555C19.64 7.82555 20.25 6.77555 20.25 5.58555C20.25 3.71555 18.72 2.18555 16.85 2.18555H7.15C5.28 2.18555 3.75 3.71555 3.75 5.58555C3.75 6.77555 4.36 7.82555 5.29 8.43555Z" fill="black"/>
<path fill-rule="evenodd" clip-rule="evenodd" d="M18.59 9.54543C18.08 9.23543 17.49 9.06543 16.85 9.06543H7.15C6.51 9.06543 5.92 9.23543 5.41 9.54543C4.42 10.1354 3.75 11.2254 3.75 12.4654C3.75 13.5854 4.3 14.5854 5.15 15.2054C5.71 15.6254 6.4 15.8654 7.15 15.8654H11.3H12.8H16.85C17.6 15.8654 18.29 15.6254 18.85 15.2054C19.7 14.5854 20.25 13.5854 20.25 12.4654C20.25 11.2254 19.58 10.1354 18.59 9.54543Z" fill="black"/>
</g>
<path fill-rule="evenodd" clip-rule="evenodd" d="M7.65002 4.74512H9.15002C9.56002 4.74512 9.90002 5.07512 9.90002 5.49512C9.90002 5.90512 9.56002 6.24512 9.15002 6.24512H7.65002C7.24002 6.24512 6.90002 5.90512 6.90002 5.49512C6.90002 5.07512 7.24002 4.74512 7.65002 4.74512Z" fill="black"/>
<path fill-rule="evenodd" clip-rule="evenodd" d="M7.65002 13.215H9.15002C9.56002 13.215 9.90002 12.875 9.90002 12.465C9.90002 12.055 9.56002 11.715 9.15002 11.715H7.65002C7.24002 11.715 6.90002 12.055 6.90002 12.465C6.90002 12.875 7.24002 13.215 7.65002 13.215Z" fill="black"/>
<path fill-rule="evenodd" clip-rule="evenodd" d="M11.3 15.8652V17.2352C10.59 17.4652 10.05 18.0052 9.81998 18.7152H5.84998C5.43998 18.7152 5.09998 19.0552 5.09998 19.4652C5.09998 19.8752 5.43998 20.2152 5.84998 20.2152H9.81998C10.12 21.1552 10.99 21.8152 12.05 21.8152C13.11 21.8152 13.98 21.1552 14.28 20.2152H18.25C18.66 20.2152 19 19.8752 19 19.4652C19 19.0552 18.66 18.7152 18.25 18.7152H14.28C14.05 18.0052 13.51 17.4652 12.8 17.2352V15.8652H11.3ZM12.05 20.3152C12.53 20.3152 12.9 19.9452 12.9 19.4652C12.9 18.9852 12.53 18.6152 12.05 18.6152C11.57 18.6152 11.2 18.9852 11.2 19.4652C11.2 19.9452 11.57 20.3152 12.05 20.3152Z" fill="black"/>
</svg>