<svg width="24" height="24" viewBox="0 0 24 24" fill="none" xmlns="http://www.w3.org/2000/svg">
<path d="M21 10.7838V7.78216C21 4.84281 18.9188 3 15.9736 3H8.02638C5.08119 3 3 4.83405 3 7.78216V16.2159C3 19.165 5.08119 21 8.02638 21H11.1088" stroke="black" stroke-width="1.5" stroke-linecap="round" stroke-linejoin="round"/>
<path fill-rule="evenodd" clip-rule="evenodd" d="M17.6365 20.6531C17.6365 20.6531 20.5729 19.7638 20.5729 17.3119C20.5729 14.861 20.6799 14.9388 20.4435 14.7014C20.2081 14.464 18.0218 13.7031 17.6365 13.7031C17.2512 13.7031 15.0639 14.4659 14.8285 14.7014C14.593 14.9369 14.7001 14.86 14.7001 17.3119C14.7001 19.7638 17.6365 20.6531 17.6365 20.6531Z" stroke="black" stroke-width="1.5" stroke-linecap="round" stroke-linejoin="round"/>
<path d="M7.36328 7.86523H7.88577M7.36328 16.1355H7.88577" stroke="black" stroke-width="1.5" stroke-linecap="round" stroke-linejoin="round"/>
<path d="M12.1035 7.86523H16.6376" stroke="black" stroke-width="1.5" stroke-linecap="round" stroke-linejoin="round"/>
<path d="M12.22 12H3.02344" stroke="black" stroke-width="1.5" stroke-linecap="round" stroke-linejoin="round"/>
</svg>