<svg width="24" height="24" viewBox="0 0 24 24" fill="none" xmlns="http://www.w3.org/2000/svg">
<path fill-rule="evenodd" clip-rule="evenodd" d="M16.7 18.0496H13.1C12.69 18.0496 12.35 17.7096 12.35 17.2996C12.35 16.8896 12.69 16.5496 13.1 16.5496H16.7C17.11 16.5496 17.45 16.8896 17.45 17.2996C17.45 17.7096 17.11 18.0496 16.7 18.0496ZM7.9 18.0496H7.4C6.99 18.0496 6.65 17.7096 6.65 17.2996C6.65 16.8896 6.99 16.5496 7.4 16.5496H7.9C8.31 16.5496 8.65 16.8896 8.65 17.2996C8.65 17.7096 8.31 18.0496 7.9 18.0496ZM17.3 13.0996H6.7C4.42 13.0996 2.5 15.0196 2.5 17.2996C2.5 19.5796 4.42 21.4996 6.7 21.4996H17.3C19.58 21.4996 21.5 19.5796 21.5 17.2996C21.5 15.0196 19.58 13.0996 17.3 13.0996Z" fill="black"/>
<path fill-rule="evenodd" clip-rule="evenodd" d="M16.7 7.45H13.1C12.69 7.45 12.35 7.11 12.35 6.7C12.35 6.29 12.69 5.95 13.1 5.95H16.7C17.11 5.95 17.45 6.29 17.45 6.7C17.45 7.11 17.11 7.45 16.7 7.45ZM7.9 7.45H7.4C6.99 7.45 6.65 7.11 6.65 6.7C6.65 6.29 6.99 5.95 7.4 5.95H7.9C8.31 5.95 8.65 6.29 8.65 6.7C8.65 7.11 8.31 7.45 7.9 7.45ZM17.3 2.5H6.7C4.42 2.5 2.5 4.42 2.5 6.7C2.5 8.98 4.42 10.9 6.7 10.9H17.3C19.58 10.9 21.5 8.98 21.5 6.7C21.5 4.42 19.58 2.5 17.3 2.5Z" fill="black"/>
</svg>