<svg width="24" height="24" viewBox="0 0 24 24" fill="none" xmlns="http://www.w3.org/2000/svg">
<path d="M13.4846 14.6947H6.16274C5.08803 14.6947 4.2168 13.8234 4.2168 12.7487C4.2168 12.0938 4.2168 11.4388 4.2168 10.7838C4.2168 9.70912 5.08803 8.83789 6.16274 8.83789H17.8384C18.9131 8.83789 19.7844 9.70912 19.7844 10.7838C19.7844 11.4388 19.7844 12.0938 19.7844 12.7487C19.7844 13.8234 18.9131 14.6947 17.8384 14.6947H16.9195" stroke="black" stroke-width="1.5" stroke-linecap="round" stroke-linejoin="round"/>
<path d="M13.0006 2.98047H17.8384C18.9131 2.98047 19.7844 3.8517 19.7844 4.92641C19.7844 5.58138 19.7844 6.23634 19.7844 6.8913C19.7844 7.96601 18.9131 8.83724 17.8384 8.83724H6.16274C5.08803 8.83724 4.2168 7.96601 4.2168 6.8913C4.2168 6.23634 4.2168 5.58137 4.2168 4.92641C4.2168 3.8517 5.08803 2.98047 6.16274 2.98047H9.08166" stroke="black" stroke-width="1.5" stroke-linecap="round" stroke-linejoin="round"/>
<path d="M7.62305 5.91016H8.10953" stroke="black" stroke-width="1.5" stroke-linecap="round" stroke-linejoin="round"/>
<path d="M7.62305 11.7656H8.10953" stroke="black" stroke-width="1.5" stroke-linecap="round" stroke-linejoin="round"/>
<path fill-rule="evenodd" clip-rule="evenodd" d="M13.5917 19.3889C13.5917 20.2792 12.8726 21.0005 11.9853 21.0005C11.0979 21.0005 10.3789 20.2792 10.3789 19.3889C10.3789 18.4987 11.0979 17.7773 11.9853 17.7773C12.8726 17.7773 13.5917 18.4987 13.5917 19.3889Z" stroke="black" stroke-width="1.5" stroke-linecap="round" stroke-linejoin="round"/>
<path d="M13.5909 19.3888L18.2245 19.3887M10.3781 19.3888L5.74414 19.3887" stroke="black" stroke-width="1.5" stroke-linecap="round" stroke-linejoin="round"/>
<path d="M12 17.7578V14.7148" stroke="black" stroke-width="1.5"/>
</svg>