<svg width="25" height="24" viewBox="0 0 25 24" fill="none" xmlns="http://www.w3.org/2000/svg">
<path fill-rule="evenodd" clip-rule="evenodd" d="M4.14773 3.73657C5.19853 2.75842 6.64899 2.25 8.27638 2.25H16.2236C17.8519 2.25 19.3023 2.76117 20.3526 3.7402C21.4088 4.72468 22 6.12669 22 7.78216V10.7838C22 11.198 21.6642 11.5338 21.25 11.5338C20.8358 11.5338 20.5 11.198 20.5 10.7838V7.78216C20.5 6.49828 20.0506 5.50921 19.3299 4.83745C18.6033 4.16024 17.5405 3.75 16.2236 3.75H8.27638C6.95857 3.75 5.89585 4.15861 5.16976 4.83451C4.44973 5.50475 4 6.49341 4 7.78216V16.2159C4 17.5052 4.4498 18.4944 5.16988 19.165C5.89599 19.8412 6.95868 20.25 8.27638 20.25H11.3588C11.773 20.25 12.1088 20.5858 12.1088 21C12.1088 21.4142 11.773 21.75 11.3588 21.75H8.27638C6.64889 21.75 5.19838 21.2413 4.14761 20.2627C3.0908 19.2785 2.5 17.8756 2.5 16.2159V7.78216C2.5 6.1228 3.09086 4.72038 4.14773 3.73657Z" fill="black"/>
<path fill-rule="evenodd" clip-rule="evenodd" d="M17.5041 13.0038C17.6042 12.9818 17.75 12.9531 17.8865 12.9531C18.0228 12.9531 18.1683 12.9817 18.2685 13.0036C18.3863 13.0295 18.5205 13.0646 18.6604 13.1045C18.9412 13.1847 19.2728 13.2922 19.5954 13.4058C19.9175 13.5193 20.2414 13.6427 20.5054 13.756C20.6366 13.8123 20.7623 13.87 20.8692 13.926C20.9482 13.9674 21.1045 14.0512 21.2249 14.1722C21.2277 14.175 21.2308 14.178 21.2341 14.1814C21.294 14.2409 21.4371 14.3834 21.519 14.6104C21.5905 14.8087 21.5955 15.0164 21.5968 15.1699C21.598 15.3018 21.5945 15.4773 21.59 15.7002C21.5887 15.7682 21.5872 15.8405 21.5858 15.9173C21.5795 16.2551 21.5729 16.705 21.5729 17.3119C21.5729 18.8785 20.625 19.9112 19.7931 20.5105C19.3725 20.8134 18.9568 21.0255 18.6485 21.1618C18.4933 21.2304 18.3625 21.281 18.2682 21.3152C18.221 21.3323 18.1828 21.3454 18.1549 21.3546L18.1211 21.3655L18.1103 21.3689L18.1066 21.3701L18.1051 21.3705C18.1048 21.3706 18.1039 21.3709 17.8865 20.6531C17.6691 21.3709 17.6688 21.3708 17.6685 21.3707L17.6664 21.3701L17.6626 21.3689L17.6519 21.3655L17.618 21.3546C17.5902 21.3454 17.5519 21.3323 17.5047 21.3152C17.4104 21.281 17.2797 21.2304 17.1244 21.1618C16.8161 21.0255 16.4004 20.8134 15.9799 20.5105C15.148 19.9112 14.2 18.8785 14.2 17.3119C14.2 16.7048 14.1934 16.2547 14.1871 15.9167C14.1857 15.8387 14.1842 15.7654 14.1828 15.6966C14.1784 15.4749 14.1749 15.3003 14.176 15.1691C14.1773 15.016 14.1821 14.8083 14.2533 14.6102C14.3352 14.3821 14.479 14.2396 14.539 14.1801C14.5423 14.1769 14.5454 14.1738 14.5481 14.1711C14.6683 14.0509 14.8247 13.9674 14.9038 13.9261C15.0104 13.8704 15.1359 13.8129 15.267 13.7567C15.5309 13.6436 15.8547 13.5202 16.1769 13.4066C16.4995 13.2929 16.8312 13.1852 17.1121 13.1049C17.252 13.0649 17.3862 13.0297 17.5041 13.0038ZM17.8865 20.6531L17.6685 21.3707C17.8103 21.4136 17.9621 21.4138 18.1039 21.3709L17.8865 20.6531ZM17.8865 19.8555C17.9327 19.8369 17.985 19.8151 18.0421 19.7898C18.2843 19.6827 18.6027 19.5193 18.9163 19.2934C19.5526 18.835 20.0729 18.1972 20.0729 17.3119C20.0729 16.6933 20.0797 16.2338 20.0861 15.8895C20.0877 15.8008 20.0893 15.7213 20.0907 15.6496C20.0946 15.4571 20.0973 15.3211 20.0971 15.2169C20.0468 15.1929 19.9857 15.1652 19.9141 15.1345C19.6899 15.0384 19.399 14.927 19.097 14.8206C18.7954 14.7144 18.4934 14.6168 18.2486 14.5469C18.1257 14.5118 18.024 14.4856 17.9476 14.4689C17.9202 14.4629 17.9002 14.4591 17.8866 14.4566C17.873 14.4591 17.853 14.4629 17.8256 14.4689C17.7492 14.4857 17.6475 14.5119 17.5245 14.5471C17.2796 14.6171 16.9775 14.7149 16.6757 14.8213C16.3734 14.9278 16.0822 15.0393 15.8578 15.1355C15.7867 15.1659 15.7259 15.1933 15.6758 15.2172C15.6756 15.3208 15.6783 15.4556 15.6821 15.6456C15.6836 15.7182 15.6852 15.7988 15.6869 15.8887C15.6933 16.2333 15.7 16.6931 15.7 17.3119C15.7 18.1972 16.2203 18.835 16.8566 19.2934C17.1702 19.5193 17.4886 19.6827 17.7309 19.7898C17.788 19.8151 17.8402 19.8369 17.8865 19.8555Z" fill="black"/>
<path fill-rule="evenodd" clip-rule="evenodd" d="M6.86328 7.86523C6.86328 7.45102 7.19907 7.11523 7.61328 7.11523H8.13577C8.54998 7.11523 8.88577 7.45102 8.88577 7.86523C8.88577 8.27945 8.54998 8.61523 8.13577 8.61523H7.61328C7.19907 8.61523 6.86328 8.27945 6.86328 7.86523ZM6.86328 16.1355C6.86328 15.7213 7.19907 15.3855 7.61328 15.3855H8.13577C8.54998 15.3855 8.88577 15.7213 8.88577 16.1355C8.88577 16.5497 8.54998 16.8855 8.13577 16.8855H7.61328C7.19907 16.8855 6.86328 16.5497 6.86328 16.1355Z" fill="black"/>
<path fill-rule="evenodd" clip-rule="evenodd" d="M11.6035 7.86523C11.6035 7.45102 11.9393 7.11523 12.3535 7.11523H16.8876C17.3018 7.11523 17.6376 7.45102 17.6376 7.86523C17.6376 8.27945 17.3018 8.61523 16.8876 8.61523H12.3535C11.9393 8.61523 11.6035 8.27945 11.6035 7.86523Z" fill="black"/>
<path fill-rule="evenodd" clip-rule="evenodd" d="M2.52344 12C2.52344 11.5858 2.85922 11.25 3.27344 11.25H12.47C12.8842 11.25 13.22 11.5858 13.22 12C13.22 12.4142 12.8842 12.75 12.47 12.75H3.27344C2.85922 12.75 2.52344 12.4142 2.52344 12Z" fill="black"/>
</svg>