<svg width="25" height="24" viewBox="0 0 25 24" fill="none" xmlns="http://www.w3.org/2000/svg">
<path fill-rule="evenodd" clip-rule="evenodd" d="M3.71582 11.7848C3.71582 9.75561 5.35616 8.10645 7.38474 8.10645H17.1145C19.143 8.10645 20.7834 9.75561 20.7834 11.7848C20.7834 13.8141 19.143 15.4632 17.1145 15.4632H7.38474C5.35616 15.4632 3.71582 13.8141 3.71582 11.7848ZM7.38474 9.60645C6.18917 9.60645 5.21582 10.5795 5.21582 11.7848C5.21582 12.9902 6.18917 13.9632 7.38474 13.9632H17.1145C18.31 13.9632 19.2834 12.9902 19.2834 11.7848C19.2834 10.5795 18.31 9.60645 17.1145 9.60645H7.38474Z" fill="black"/>
<path fill-rule="evenodd" clip-rule="evenodd" d="M12.2353 18.5264C11.7644 18.5264 11.3789 18.9096 11.3789 19.388C11.3789 19.8663 11.7644 20.2495 12.2353 20.2495C12.7061 20.2495 13.0917 19.8663 13.0917 19.388C13.0917 18.9096 12.7061 18.5264 12.2353 18.5264ZM9.87891 19.388C9.87891 18.0858 10.9314 17.0264 12.2353 17.0264C13.5391 17.0264 14.5917 18.0858 14.5917 19.388C14.5917 20.6901 13.5391 21.7495 12.2353 21.7495C10.9314 21.7495 9.87891 20.6901 9.87891 19.388Z" fill="black"/>
<path fill-rule="evenodd" clip-rule="evenodd" d="M5.24414 19.3877C5.24415 18.9735 5.57995 18.6377 5.99416 18.6377L10.6281 18.6378C11.0423 18.6378 11.3781 18.9736 11.3781 19.3878C11.3781 19.802 11.0423 20.1378 10.6281 20.1378L5.99412 20.1377C5.57991 20.1377 5.24413 19.8019 5.24414 19.3877ZM13.8409 18.6378L18.4745 18.6377C18.8887 18.6377 19.2245 18.9735 19.2245 19.3877C19.2245 19.8019 18.8887 20.1377 18.4745 20.1377L13.8409 20.1378C13.4267 20.1378 13.0909 19.802 13.0909 19.3878C13.0909 18.9736 13.4266 18.6378 13.8409 18.6378Z" fill="black"/>
<path fill-rule="evenodd" clip-rule="evenodd" d="M12.2344 13.9629C12.6486 13.9629 12.9844 14.2987 12.9844 14.7129V17.7714C12.9844 18.1856 12.6486 18.5214 12.2344 18.5214C11.8202 18.5214 11.4844 18.1856 11.4844 17.7714V14.7129C11.4844 14.2987 11.8202 13.9629 12.2344 13.9629Z" fill="black"/>
<path fill-rule="evenodd" clip-rule="evenodd" d="M7.12305 11.7852C7.12305 11.3709 7.45883 11.0352 7.87305 11.0352H9.33251C9.74672 11.0352 10.0825 11.3709 10.0825 11.7852C10.0825 12.1994 9.74672 12.5352 9.33251 12.5352H7.87305C7.45883 12.5352 7.12305 12.1994 7.12305 11.7852Z" fill="black"/>
<path fill-rule="evenodd" clip-rule="evenodd" d="M3.7168 5.92839C3.7168 3.89916 5.35714 2.25 7.38572 2.25H17.1154C19.144 2.25 20.7844 3.89916 20.7844 5.92839C20.7844 7.95761 19.144 9.60677 17.1154 9.60677C16.7012 9.60677 16.3654 9.27099 16.3654 8.85677C16.3654 8.44256 16.7012 8.10677 17.1154 8.10677C18.311 8.10677 19.2844 7.13377 19.2844 5.92839C19.2844 4.72301 18.311 3.75 17.1154 3.75H7.38572C6.19014 3.75 5.2168 4.72301 5.2168 5.92839C5.2168 7.13377 6.19014 8.10677 7.38572 8.10677C7.79993 8.10677 8.13572 8.44256 8.13572 8.85677C8.13572 9.27099 7.79993 9.60677 7.38572 9.60677C5.35714 9.60677 3.7168 7.95761 3.7168 5.92839Z" fill="black"/>
<path fill-rule="evenodd" clip-rule="evenodd" d="M7.12305 5.92871C7.12305 5.5145 7.45883 5.17871 7.87305 5.17871H9.33251C9.74672 5.17871 10.0825 5.5145 10.0825 5.92871C10.0825 6.34292 9.74672 6.67871 9.33251 6.67871H7.87305C7.45883 6.67871 7.12305 6.34292 7.12305 5.92871Z" fill="black"/>
</svg>