<svg width="24" height="24" viewBox="0 0 24 24" fill="none" xmlns="http://www.w3.org/2000/svg">
<g opacity="0.4">
<path fill-rule="evenodd" clip-rule="evenodd" d="M16.85 2.18555H7.15C5.28 2.18555 3.75 3.71555 3.75 5.58555C3.75 6.71242 4.297 7.71375 5.14474 8.3348C5.23274 8.39926 5.34953 8.40322 5.44789 8.35604C5.58235 8.29154 5.71599 8.23595 5.86 8.18555C6.18 8.07555 6.51 7.99555 6.86 7.97555H6.87C6.96 7.96555 7.06 7.96555 7.15 7.96555H16.85C16.94 7.96555 17.04 7.96555 17.13 7.97555H17.14C17.48 8.00555 17.82 8.07555 18.13 8.19555H18.14C18.2812 8.23792 18.4175 8.29026 18.5487 8.35258C18.6495 8.40041 18.7691 8.3981 18.859 8.33207C19.7046 7.71082 20.25 6.71077 20.25 5.58555C20.25 3.71555 18.72 2.18555 16.85 2.18555Z" fill="black"/>
<path d="M16.85 15.8654C17.6 15.8654 18.29 15.6254 18.85 15.2054C19.7 14.5854 20.25 13.5854 20.25 12.4654C20.25 11.2254 19.58 10.1354 18.59 9.54543C18.08 9.23543 17.49 9.06543 16.85 9.06543H7.15C6.51 9.06543 5.92 9.23543 5.41 9.54543C4.42 10.1354 3.75 11.2254 3.75 12.4654C3.75 13.5854 4.3 14.5854 5.15 15.2054C5.71 15.6254 6.4 15.8654 7.15 15.8654H11.3H12.8H16.85Z" fill="black"/>
</g>
<path fill-rule="evenodd" clip-rule="evenodd" d="M11.3 15.8652V17.2352C10.59 17.4652 10.05 18.0052 9.81998 18.7152H5.84998C5.43998 18.7152 5.09998 19.0552 5.09998 19.4652C5.09998 19.8752 5.43998 20.2152 5.84998 20.2152H9.81998C10.12 21.1552 10.99 21.8152 12.05 21.8152C13.11 21.8152 13.98 21.1552 14.28 20.2152H18.25C18.66 20.2152 19 19.8752 19 19.4652C19 19.0552 18.66 18.7152 18.25 18.7152H14.28C14.05 18.0052 13.51 17.4652 12.8 17.2352V15.8652H11.3ZM12.05 20.3152C12.53 20.3152 12.9 19.9452 12.9 19.4652C12.9 18.9852 12.53 18.6152 12.05 18.6152C11.57 18.6152 11.2 18.9852 11.2 19.4652C11.2 19.9452 11.57 20.3152 12.05 20.3152Z" fill="black"/>
<path fill-rule="evenodd" clip-rule="evenodd" d="M10.08 6.23535C9.67001 6.23535 9.33001 5.89535 9.33001 5.48535C9.33001 5.07535 9.66001 4.73535 10.07 4.73535H10.08C10.49 4.73535 10.83 5.07535 10.83 5.48535C10.83 5.89535 10.49 6.23535 10.08 6.23535ZM7.65001 6.23535C7.23001 6.23535 6.89001 5.89535 6.89001 5.48535C6.89001 5.07535 7.22001 4.73535 7.64001 4.73535H7.65001C8.06001 4.73535 8.40001 5.07535 8.40001 5.48535C8.40001 5.89535 8.06001 6.23535 7.65001 6.23535Z" fill="black"/>
<path fill-rule="evenodd" clip-rule="evenodd" d="M10.08 13.2252C9.67001 13.2252 9.33001 12.8852 9.33001 12.4752C9.33001 12.0652 9.66001 11.7252 10.07 11.7252H10.08C10.49 11.7252 10.83 12.0652 10.83 12.4752C10.83 12.8852 10.49 13.2252 10.08 13.2252ZM7.65001 13.2252C7.23001 13.2252 6.89001 12.8852 6.89001 12.4752C6.89001 12.0652 7.22001 11.7252 7.64001 11.7252H7.65001C8.06001 11.7252 8.40001 12.0652 8.40001 12.4752C8.40001 12.8852 8.06001 13.2252 7.65001 13.2252Z" fill="black"/>
</svg>