<svg width="24" height="24" viewBox="0 0 24 24" fill="none" xmlns="http://www.w3.org/2000/svg">
<g opacity="0.4">
<path fill-rule="evenodd" clip-rule="evenodd" d="M17.85 2.05469H6.15C4.83 2.05469 3.75 3.13469 3.75 4.45469V6.45469C3.75 7.28469 4.17 8.00469 4.8 8.44469C5.21 8.22469 5.66 8.09469 6.15 8.09469H17.85C18.34 8.09469 18.79 8.22469 19.2 8.44469C19.83 8.00469 20.25 7.28469 20.25 6.45469V4.45469C20.25 3.13469 19.17 2.05469 17.85 2.05469Z" fill="black"/>
<path fill-rule="evenodd" clip-rule="evenodd" d="M17.85 9.10449H6.15C4.83 9.10449 3.75 10.1845 3.75 11.5045V13.5045C3.75 14.8345 4.83 15.9045 6.15 15.9045H11.3H12.8H17.85C19.17 15.9045 20.25 14.8345 20.25 13.5045V11.5045C20.25 10.1845 19.17 9.10449 17.85 9.10449Z" fill="black"/>
</g>
<path fill-rule="evenodd" clip-rule="evenodd" d="M8.15002 6.20508H7.65002C7.24002 6.20508 6.90002 5.87508 6.90002 5.45508C6.90002 5.04508 7.24002 4.70508 7.65002 4.70508H8.15002C8.56002 4.70508 8.90002 5.04508 8.90002 5.45508C8.90002 5.87508 8.56002 6.20508 8.15002 6.20508Z" fill="black"/>
<path fill-rule="evenodd" clip-rule="evenodd" d="M7.65002 13.2549H8.15002C8.56002 13.2549 8.90002 12.9249 8.90002 12.5049C8.90002 12.0949 8.56002 11.7549 8.15002 11.7549H7.65002C7.24002 11.7549 6.90002 12.0949 6.90002 12.5049C6.90002 12.9249 7.24002 13.2549 7.65002 13.2549Z" fill="black"/>
<path fill-rule="evenodd" clip-rule="evenodd" d="M11.3 15.9043V17.3743C10.6 17.6043 10.06 18.1443 9.82998 18.8443H5.84998C5.43998 18.8443 5.09998 19.1843 5.09998 19.5943C5.09998 20.0043 5.43998 20.3443 5.84998 20.3443H9.82998C10.14 21.2843 11 21.9443 12.05 21.9443C13.1 21.9443 13.96 21.2843 14.27 20.3443H18.25C18.66 20.3443 19 20.0043 19 19.5943C19 19.1843 18.66 18.8443 18.25 18.8443H14.27C14.04 18.1443 13.5 17.6043 12.8 17.3743V15.9043H11.3ZM12.05 20.4443C12.53 20.4443 12.9 20.0743 12.9 19.5943C12.9 19.1143 12.53 18.7443 12.05 18.7443C11.57 18.7443 11.2 19.1143 11.2 19.5943C11.2 20.0743 11.57 20.4443 12.05 20.4443Z" fill="black"/>
</svg>