<svg width="24" height="24" viewBox="0 0 24 24" fill="none" xmlns="http://www.w3.org/2000/svg">
<path d="M20.9998 12.3249V7.78211C20.9998 4.84279 18.9187 3 15.9735 3H8.02633C5.08117 3 3 4.83404 3 7.78211V16.2158C3 19.1648 5.08117 20.9998 8.02633 20.9998H8.94286" stroke="black" stroke-width="1.5" stroke-linecap="round" stroke-linejoin="round"/>
<path d="M12.2199 12H3.02344" stroke="black" stroke-width="1.5" stroke-linecap="round" stroke-linejoin="round"/>
<path d="M7.36328 16.1348H7.88576" stroke="black" stroke-width="1.5" stroke-linecap="round" stroke-linejoin="round"/>
<path d="M7.36328 7.86523H7.88576M12.1017 7.86523H16.6357" stroke="black" stroke-width="1.5" stroke-linecap="round" stroke-linejoin="round"/>
<path fill-rule="evenodd" clip-rule="evenodd" d="M13.6046 16.7964C12.4487 16.8071 11.5156 17.5836 11.5156 18.9048C11.5156 19.7601 12.0245 20.4966 12.7562 20.8274C13.0636 20.952 13.3701 20.9996 13.6026 20.9996H18.59C18.8226 20.9996 19.131 20.9539 19.4424 20.8294C20.174 20.4986 20.6809 19.7601 20.6809 18.9048C20.6809 17.5836 19.7479 16.8071 18.592 16.7964C18.592 15.9655 17.9401 14.3027 16.0983 14.3027C14.2565 14.3027 13.6046 15.9655 13.6046 16.7964Z" stroke="black" stroke-width="1.5" stroke-linecap="round" stroke-linejoin="round"/>
</svg>