<svg width="25" height="24" viewBox="0 0 25 24" fill="none" xmlns="http://www.w3.org/2000/svg">
<path fill-rule="evenodd" clip-rule="evenodd" d="M3 12C3 9.92893 4.67893 8.25 6.75 8.25H17.75C19.8211 8.25 21.5 9.92893 21.5 12C21.5 14.0711 19.8211 15.75 17.75 15.75H6.75C4.67893 15.75 3 14.0711 3 12ZM6.75 9.75C5.50736 9.75 4.5 10.7574 4.5 12C4.5 13.2426 5.50736 14.25 6.75 14.25H17.75C18.9926 14.25 20 13.2426 20 12C20 10.7574 18.9926 9.75 17.75 9.75H6.75Z" fill="black"/>
<path fill-rule="evenodd" clip-rule="evenodd" d="M7.13281 12C7.13281 11.5858 7.4686 11.25 7.88281 11.25H7.88458C8.29879 11.25 8.63458 11.5858 8.63458 12C8.63458 12.4142 8.29879 12.75 7.88458 12.75H7.88281C7.4686 12.75 7.13281 12.4142 7.13281 12Z" fill="black"/>
<path fill-rule="evenodd" clip-rule="evenodd" d="M12.5449 12C12.5449 11.5858 12.8807 11.25 13.2949 11.25H15.6953C16.1095 11.25 16.4453 11.5858 16.4453 12C16.4453 12.4142 16.1095 12.75 15.6953 12.75H13.2949C12.8807 12.75 12.5449 12.4142 12.5449 12Z" fill="black"/>
<path fill-rule="evenodd" clip-rule="evenodd" d="M3 18C3 15.9289 4.67893 14.25 6.75 14.25H17.75C19.8211 14.25 21.5 15.9289 21.5 18C21.5 20.0711 19.8211 21.75 17.75 21.75H6.75C4.67893 21.75 3 20.0711 3 18ZM6.75 15.75C5.50736 15.75 4.5 16.7574 4.5 18C4.5 19.2426 5.50736 20.25 6.75 20.25H17.75C18.9926 20.25 20 19.2426 20 18C20 16.7574 18.9926 15.75 17.75 15.75H6.75Z" fill="black"/>
<path fill-rule="evenodd" clip-rule="evenodd" d="M7.13281 18C7.13281 17.5858 7.4686 17.25 7.88281 17.25H7.88458C8.29879 17.25 8.63458 17.5858 8.63458 18C8.63458 18.4142 8.29879 18.75 7.88458 18.75H7.88281C7.4686 18.75 7.13281 18.4142 7.13281 18Z" fill="black"/>
<path fill-rule="evenodd" clip-rule="evenodd" d="M12.5449 18C12.5449 17.5858 12.8807 17.25 13.2949 17.25H15.6953C16.1095 17.25 16.4453 17.5858 16.4453 18C16.4453 18.4142 16.1095 18.75 15.6953 18.75H13.2949C12.8807 18.75 12.5449 18.4142 12.5449 18Z" fill="black"/>
<path fill-rule="evenodd" clip-rule="evenodd" d="M3 6C3 3.92893 4.67893 2.25 6.75 2.25H17.75C19.8211 2.25 21.5 3.92893 21.5 6C21.5 8.07107 19.8211 9.75 17.75 9.75H6.75C4.67893 9.75 3 8.07107 3 6ZM6.75 3.75C5.50736 3.75 4.5 4.75736 4.5 6C4.5 7.24264 5.50736 8.25 6.75 8.25H17.75C18.9926 8.25 20 7.24264 20 6C20 4.75736 18.9926 3.75 17.75 3.75H6.75Z" fill="black"/>
<path fill-rule="evenodd" clip-rule="evenodd" d="M7.13281 6C7.13281 5.58579 7.4686 5.25 7.88281 5.25H7.88458C8.29879 5.25 8.63458 5.58579 8.63458 6C8.63458 6.41421 8.29879 6.75 7.88458 6.75H7.88281C7.4686 6.75 7.13281 6.41421 7.13281 6Z" fill="black"/>
<path fill-rule="evenodd" clip-rule="evenodd" d="M12.5449 6C12.5449 5.58579 12.8807 5.25 13.2949 5.25H15.6953C16.1095 5.25 16.4453 5.58579 16.4453 6C16.4453 6.41421 16.1095 6.75 15.6953 6.75H13.2949C12.8807 6.75 12.5449 6.41421 12.5449 6Z" fill="black"/>
</svg>