<svg width="25" height="24" viewBox="0 0 25 24" fill="none" xmlns="http://www.w3.org/2000/svg">
<path d="M21.5 11.352V7.78216C21.5 4.84281 19.4188 3 16.4736 3H8.52638C5.58119 3 3.5 4.83405 3.5 7.78216V16.2159C3.5 19.165 5.58119 21 8.52638 21H11.6088" stroke="black" stroke-width="1.5" stroke-linecap="round" stroke-linejoin="round"/>
<path d="M12.72 12H3.52344" stroke="black" stroke-width="1.5" stroke-linecap="round" stroke-linejoin="round"/>
<path opacity="0.4" d="M7.86328 16.1357H8.38577" stroke="black" stroke-width="1.5" stroke-linecap="round" stroke-linejoin="round"/>
<path opacity="0.4" d="M7.86328 7.86523H8.38577M12.6017 7.86523H17.1358" stroke="black" stroke-width="1.5" stroke-linecap="round" stroke-linejoin="round"/>
<path fill-rule="evenodd" clip-rule="evenodd" d="M20.8051 17.5083C20.8051 18.7936 19.7626 19.8368 18.4764 19.8368C17.1911 19.8368 16.1494 18.7936 16.1494 17.5083C16.1494 16.223 17.1911 15.1807 18.4764 15.1807C19.7626 15.1807 20.8051 16.223 20.8051 17.5083Z" stroke="black" stroke-width="1.5" stroke-linecap="round" stroke-linejoin="round"/>
<path d="M18.4766 14.0166V15.1803M18.4766 19.8364V21.0001M15.4531 15.7619L16.4611 16.3437M20.4928 18.6723L21.5008 19.2541M15.4531 19.2541L16.4611 18.6723M20.4928 16.3442L21.5008 15.7624" stroke="black" stroke-width="1.5" stroke-linecap="round" stroke-linejoin="round"/>
</svg>