<svg width="24" height="24" viewBox="0 0 24 24" fill="none" xmlns="http://www.w3.org/2000/svg">
<path fill-rule="evenodd" clip-rule="evenodd" d="M16.2441 8.05918H11.7441C11.3241 8.05918 10.9941 7.71918 10.9941 7.30918C10.9941 6.89918 11.3241 6.55918 11.7441 6.55918H16.2441C16.6541 6.55918 16.9941 6.89918 16.9941 7.30918C16.9941 7.71918 16.6541 8.05918 16.2441 8.05918ZM7.5441 8.05918H7.0441C6.6341 8.05918 6.2941 7.71918 6.2941 7.30918C6.2941 6.89918 6.6341 6.55918 7.0441 6.55918H7.5441C7.9541 6.55918 8.2941 6.89918 8.2941 7.30918C8.2941 7.71918 7.9541 8.05918 7.5441 8.05918ZM21.1441 7.70918C21.1441 4.53918 18.8941 2.40918 15.5441 2.40918H7.6441C4.4041 2.40918 2.1441 4.58918 2.1441 7.70918V10.8592C2.1441 11.0249 2.27842 11.1592 2.4441 11.1592H20.8441C21.0098 11.1592 21.1441 11.0249 21.1441 10.8592V7.70918Z" fill="black"/>
<path fill-rule="evenodd" clip-rule="evenodd" d="M7.5441 17.2592H7.0441C6.6341 17.2592 6.2941 16.9192 6.2941 16.5092C6.2941 16.0992 6.6341 15.7592 7.0441 15.7592H7.5441C7.9541 15.7592 8.2941 16.0992 8.2941 16.5092C8.2941 16.9192 7.9541 17.2592 7.5441 17.2592ZM13.1266 13.2607C13.3374 13.0576 13.202 12.6592 12.9093 12.6592H2.4441C2.27842 12.6592 2.1441 12.7935 2.1441 12.9592V16.1092C2.1441 19.2792 4.3541 21.4092 7.6441 21.4092H11.8011C12.0471 21.4092 12.1924 21.1264 12.0669 20.9149C11.5204 19.9937 11.2141 18.9171 11.2141 17.7692C11.2141 15.999 11.9461 14.3978 13.1266 13.2607Z" fill="black"/>
<path fill-rule="evenodd" clip-rule="evenodd" d="M21.1059 16.6904C20.6919 16.6904 20.3559 17.0264 20.3559 17.4404C20.3559 18.9264 19.1919 20.0904 17.7059 20.0904C17.5529 20.0904 17.3999 20.0764 17.2489 20.0494L17.5249 19.9194C17.8999 19.7424 18.0609 19.2954 17.8849 18.9204C17.7089 18.5464 17.2599 18.3854 16.8869 18.5614L15.1869 19.3614C14.9549 19.4714 14.7939 19.6904 14.7619 19.9454C14.7299 20.1994 14.8289 20.4524 15.0259 20.6164C15.7689 21.2354 16.7449 21.5904 17.7059 21.5904C20.0329 21.5904 21.8559 19.7674 21.8559 17.4404C21.8559 17.0264 21.5199 16.6904 21.1059 16.6904Z" fill="black"/>
<path fill-rule="evenodd" clip-rule="evenodd" d="M15.2558 17.6402C15.2558 16.0012 16.7278 14.7432 18.3638 15.0312L18.0868 15.1612C17.7118 15.3372 17.5508 15.7842 17.7278 16.1592C17.9038 16.5342 18.3508 16.6952 18.7258 16.5182L20.4248 15.7192C20.6568 15.6092 20.8178 15.3902 20.8498 15.1352C20.8818 14.8812 20.7828 14.6282 20.5858 14.4642C19.8428 13.8452 18.8658 13.4902 17.9058 13.4902C15.5788 13.4902 13.7558 15.3132 13.7558 17.6402C13.7558 18.0542 14.0918 18.3902 14.5058 18.3902C14.9198 18.3902 15.2558 18.0542 15.2558 17.6402Z" fill="black"/>
</svg>