<svg width="24" height="24" viewBox="0 0 24 24" fill="none" xmlns="http://www.w3.org/2000/svg">
<g opacity="0.4">
<path fill-rule="evenodd" clip-rule="evenodd" d="M21.2004 11.25C21.3661 11.25 21.5004 11.1157 21.5004 10.95V7.8C21.5004 4.63 19.2504 2.5 15.9004 2.5H8.00043C4.76143 2.5 2.50043 4.679 2.50043 7.8V10.95C2.50043 11.1157 2.63474 11.25 2.80043 11.25H21.2004Z" fill="black"/>
<path fill-rule="evenodd" clip-rule="evenodd" d="M2.79963 12.75C2.63395 12.75 2.49963 12.8843 2.49963 13.05V16.2C2.49963 19.37 4.70963 21.5 7.99963 21.5H15.9996C19.2386 21.5 21.4996 19.321 21.4996 16.2V13.05C21.4996 12.8843 21.3653 12.75 21.1996 12.75H2.79963Z" fill="black"/>
</g>
<path fill-rule="evenodd" clip-rule="evenodd" d="M7.40039 6.65039H7.90039C8.31439 6.65039 8.65039 6.98639 8.65039 7.40039C8.65039 7.81439 8.31439 8.15039 7.90039 8.15039H7.40039C6.98639 8.15039 6.65039 7.81439 6.65039 7.40039C6.65039 6.98639 6.98639 6.65039 7.40039 6.65039ZM12.0994 6.65039H16.5994C17.0134 6.65039 17.3494 6.98639 17.3494 7.40039C17.3494 7.81439 17.0134 8.15039 16.5994 8.15039H12.0994C11.6854 8.15039 11.3494 7.81439 11.3494 7.40039C11.3494 6.98639 11.6854 6.65039 12.0994 6.65039Z" fill="black"/>
<path fill-rule="evenodd" clip-rule="evenodd" d="M16.5996 17.3504H12.0996C11.6856 17.3504 11.3496 17.0144 11.3496 16.6004C11.3496 16.1864 11.6856 15.8504 12.0996 15.8504H16.5996C17.0136 15.8504 17.3496 16.1864 17.3496 16.6004C17.3496 17.0144 17.0136 17.3504 16.5996 17.3504ZM7.9006 17.3504H7.4006C6.9866 17.3504 6.6506 17.0144 6.6506 16.6004C6.6506 16.1864 6.9866 15.8504 7.4006 15.8504H7.9006C8.3146 15.8504 8.6506 16.1864 8.6506 16.6004C8.6506 17.0144 8.3146 17.3504 7.9006 17.3504Z" fill="black"/>
</svg>