<svg width="24" height="24" viewBox="0 0 24 24" fill="none" xmlns="http://www.w3.org/2000/svg">
<path d="M21 11.352V7.78216C21 4.84281 18.9188 3 15.9736 3H8.02638C5.08119 3 3 4.83405 3 7.78216V16.2159C3 19.165 5.08119 21 8.02638 21H11.1088" stroke="black" stroke-width="1.5" stroke-linecap="round" stroke-linejoin="round"/>
<path d="M12.22 12H3.02344" stroke="black" stroke-width="1.5" stroke-linecap="round" stroke-linejoin="round"/>
<path d="M7.36328 16.1357H7.88577" stroke="black" stroke-width="1.5" stroke-linecap="round" stroke-linejoin="round"/>
<path d="M7.36328 7.86523H7.88577M12.1017 7.86523H16.6358" stroke="black" stroke-width="1.5" stroke-linecap="round" stroke-linejoin="round"/>
<path fill-rule="evenodd" clip-rule="evenodd" d="M20.3051 17.5083C20.3051 18.7936 19.2626 19.8368 17.9764 19.8368C16.6911 19.8368 15.6494 18.7936 15.6494 17.5083C15.6494 16.223 16.6911 15.1807 17.9764 15.1807C19.2626 15.1807 20.3051 16.223 20.3051 17.5083Z" stroke="black" stroke-width="1.5" stroke-linecap="round" stroke-linejoin="round"/>
<path d="M17.9766 14.0166V15.1803M17.9766 19.8364V21.0001M14.9531 15.7619L15.9611 16.3437M19.9928 18.6723L21.0008 19.2541M14.9531 19.2541L15.9611 18.6723M19.9928 16.3442L21.0008 15.7624" stroke="black" stroke-width="1.5" stroke-linecap="round" stroke-linejoin="round"/>
</svg>