<svg width="24" height="24" viewBox="0 0 24 24" fill="none" xmlns="http://www.w3.org/2000/svg">
<path fill-rule="evenodd" clip-rule="evenodd" d="M16.1565 7.9H11.6565C11.2465 7.9 10.9065 7.56 10.9065 7.15C10.9065 6.74 11.2465 6.4 11.6565 6.4H16.1565C16.5765 6.4 16.9065 6.74 16.9065 7.15C16.9065 7.56 16.5765 7.9 16.1565 7.9ZM7.45652 7.9H6.95652C6.54652 7.9 6.20652 7.56 6.20652 7.15C6.20652 6.74 6.54652 6.4 6.95652 6.4H7.45652C7.87652 6.4 8.20652 6.74 8.20652 7.15C8.20652 7.56 7.87652 7.9 7.45652 7.9ZM15.4565 2.25H7.55652C4.31652 2.25 2.05652 4.43 2.05652 7.55V10.7C2.05652 10.8657 2.19083 11 2.35652 11H20.7565C20.9222 11 21.0565 10.8657 21.0565 10.7V7.55C21.0565 4.38 18.8065 2.25 15.4565 2.25Z" fill="black"/>
<path fill-rule="evenodd" clip-rule="evenodd" d="M7.45652 17.1H6.95652C6.54652 17.1 6.20652 16.76 6.20652 16.35C6.20652 15.94 6.54652 15.6 6.95652 15.6H7.45652C7.87652 15.6 8.20652 15.94 8.20652 16.35C8.20652 16.76 7.87652 17.1 7.45652 17.1ZM13.439 13.1467C13.671 12.9461 13.5372 12.5 13.2306 12.5H2.35652C2.19083 12.5 2.05652 12.6343 2.05652 12.8V15.95C2.05652 19.12 4.26652 21.25 7.55652 21.25H12.0423C12.2939 21.25 12.4388 20.9546 12.304 20.7423C11.7265 19.8325 11.3965 18.7479 11.3965 17.6C11.3965 15.82 12.1898 14.2268 13.439 13.1467Z" fill="black"/>
<path fill-rule="evenodd" clip-rule="evenodd" d="M17.7934 20.2502C17.3564 20.2502 16.9534 20.1402 16.5944 19.9602L20.1534 16.4012C20.3334 16.7602 20.4434 17.1632 20.4434 17.6002C20.4434 19.0862 19.2794 20.2502 17.7934 20.2502ZM17.7934 14.9502C18.2834 14.9502 18.7324 15.0872 19.1224 15.3102L15.5034 18.9302C15.2804 18.5402 15.1434 18.0912 15.1434 17.6002C15.1434 16.1142 16.3074 14.9502 17.7934 14.9502ZM17.7934 13.4502C15.4664 13.4502 13.6434 15.2732 13.6434 17.6002C13.6434 19.9272 15.4664 21.7502 17.7934 21.7502C20.1204 21.7502 21.9434 19.9272 21.9434 17.6002C21.9434 15.2732 20.1204 13.4502 17.7934 13.4502Z" fill="black"/>
</svg>