<svg width="24" height="24" viewBox="0 0 24 24" fill="none" xmlns="http://www.w3.org/2000/svg">
<path fill-rule="evenodd" clip-rule="evenodd" d="M15.9843 7.9H11.4843C11.0743 7.9 10.7343 7.56 10.7343 7.15C10.7343 6.74 11.0743 6.4 11.4843 6.4H15.9843C16.4043 6.4 16.7343 6.74 16.7343 7.15C16.7343 7.56 16.4043 7.9 15.9843 7.9ZM7.28428 7.9H6.78428C6.37428 7.9 6.03428 7.56 6.03428 7.15C6.03428 6.74 6.37428 6.4 6.78428 6.4H7.28428C7.70428 6.4 8.03428 6.74 8.03428 7.15C8.03428 7.56 7.70428 7.9 7.28428 7.9ZM15.2843 2.25H7.38428C4.15428 2.25 1.88428 4.43 1.88428 7.55V10.7C1.88428 10.8657 2.01859 11 2.18428 11H20.5843C20.75 11 20.8843 10.8657 20.8843 10.7V7.55C20.8843 4.38 18.6343 2.25 15.2843 2.25Z" fill="black"/>
<path fill-rule="evenodd" clip-rule="evenodd" d="M7.28428 17.1H6.78428C6.37428 17.1 6.03428 16.76 6.03428 16.35C6.03428 15.94 6.37428 15.6 6.78428 15.6H7.28428C7.70428 15.6 8.03428 15.94 8.03428 16.35C8.03428 16.76 7.70428 17.1 7.28428 17.1ZM2.18428 12.5C2.01859 12.5 1.88428 12.6343 1.88428 12.8V15.95C1.88428 19.12 4.09428 21.25 7.38428 21.25H9.48705C9.71967 21.25 9.86679 20.9945 9.77212 20.782C9.51485 20.2046 9.37428 19.5645 9.37428 18.9C9.37428 17.01 10.4043 15.46 11.9543 14.73C12.2146 14.1638 12.5808 13.6187 13.0502 13.1583C13.2668 12.9458 13.125 12.5 12.8215 12.5H2.18428Z" fill="black"/>
<path fill-rule="evenodd" clip-rule="evenodd" d="M16.7657 15.0498C15.5107 15.0498 15.1157 16.4138 15.1157 16.7998C15.1157 17.2138 14.7797 17.5498 14.3657 17.5498C13.5327 17.5498 13.0157 18.0668 13.0157 18.8998C13.0157 19.4578 13.2947 19.9108 13.7617 20.1108C13.8787 20.1468 14.1727 20.2448 14.2697 20.2498H19.2657C19.4317 20.2498 19.5887 20.2498 19.8297 20.1298C20.2877 19.9308 20.6157 19.3998 20.6157 18.8998C20.6157 18.0668 20.0987 17.5498 19.2657 17.5498C18.8517 17.5498 18.5157 17.2138 18.5157 16.7998C18.5157 16.5278 18.1927 15.0498 16.7657 15.0498ZM19.2657 21.7498H14.2657C13.9437 21.7498 13.5967 21.6338 13.2287 21.5108C12.1497 21.0518 11.5157 20.0598 11.5157 18.8998C11.5157 17.4788 12.4037 16.3928 13.7027 16.1178C14.0037 14.8988 15.0667 13.5498 16.7657 13.5498C18.6527 13.5498 19.6327 14.9778 19.9227 16.1168C21.2257 16.3898 22.1157 17.4768 22.1157 18.8998C22.1157 20.0078 21.4347 21.0718 20.4607 21.4888C19.9427 21.7498 19.5027 21.7498 19.2657 21.7498Z" fill="black"/>
</svg>