<svg width="24" height="24" viewBox="0 0 24 24" fill="none" xmlns="http://www.w3.org/2000/svg">
<path fill-rule="evenodd" clip-rule="evenodd" d="M13.425 18.6842H11.425C11.015 18.6842 10.675 18.3442 10.675 17.9342C10.675 17.5242 11.015 17.1842 11.425 17.1842H13.425C13.835 17.1842 14.175 17.5242 14.175 17.9342C14.175 18.3442 13.835 18.6842 13.425 18.6842ZM7.05499 18.4642C6.91499 18.6042 6.72499 18.6842 6.52499 18.6842C6.32499 18.6842 6.13499 18.6042 5.99499 18.4642C5.85499 18.3242 5.77499 18.1342 5.77499 17.9342C5.77499 17.7342 5.85499 17.5442 5.99499 17.4042C6.27499 17.1242 6.77499 17.1242 7.05499 17.4042C7.19499 17.5442 7.27499 17.7342 7.27499 17.9342C7.27499 18.1342 7.19499 18.3242 7.05499 18.4642ZM13.425 12.8102H11.425C11.015 12.8102 10.675 12.4702 10.675 12.0602C10.675 11.6502 11.015 11.3102 11.425 11.3102H13.425C13.835 11.3102 14.175 11.6502 14.175 12.0602C14.175 12.4702 13.835 12.8102 13.425 12.8102ZM7.05499 12.5902C6.91499 12.7302 6.72499 12.8102 6.52499 12.8102C6.32499 12.8102 6.13499 12.7302 5.99499 12.5902C5.85499 12.4502 5.77499 12.2602 5.77499 12.0602C5.77499 11.8602 5.85499 11.6702 5.99499 11.5302C6.27499 11.2502 6.77499 11.2502 7.05499 11.5302C7.19499 11.6702 7.27499 11.8602 7.27499 12.0602C7.27499 12.2602 7.19499 12.4502 7.05499 12.5902ZM13.425 6.91719H11.425C11.015 6.91719 10.675 6.57719 10.675 6.16719C10.675 5.75719 11.015 5.41719 11.425 5.41719H13.425C13.835 5.41719 14.175 5.75719 14.175 6.16719C14.175 6.57719 13.835 6.91719 13.425 6.91719ZM7.05499 6.69719C6.91499 6.83719 6.72499 6.91719 6.52499 6.91719C6.32499 6.91719 6.13499 6.83719 5.99499 6.69719C5.85499 6.55719 5.77499 6.36719 5.77499 6.16719C5.77499 5.96719 5.85499 5.77719 5.99499 5.63719C6.27499 5.35719 6.77499 5.35719 7.05499 5.63719C7.19499 5.77719 7.27499 5.96719 7.27499 6.16719C7.27499 6.36719 7.19499 6.55719 7.05499 6.69719ZM21.575 8.06719C21.575 6.60719 20.385 5.41719 18.925 5.41719H18.335C17.985 3.95719 16.685 2.86719 15.125 2.86719H5.72499C3.84499 2.86719 2.42499 4.28719 2.42499 6.16719C2.42499 7.17362 2.87181 8.07082 3.58736 8.68071C3.59228 8.6849 3.59853 8.68719 3.60499 8.68719C4.21499 8.28719 4.94499 8.06719 5.72499 8.06719H15.125C15.8252 8.06719 16.4771 8.25255 17.0372 8.57987C17.1509 8.64629 17.2956 8.6415 17.3915 8.55133C17.847 8.12302 18.183 7.55209 18.335 6.91719H18.925C19.475 6.91719 20.075 7.35719 20.075 8.06719V10.1602C20.075 10.7102 19.635 11.3102 18.925 11.3102H18.335C17.985 9.85019 16.685 8.76019 15.125 8.76019H5.72499C3.84499 8.76019 2.42499 10.1802 2.42499 12.0602C2.42499 13.8802 3.90499 15.3602 5.72499 15.3602H15.125C16.685 15.3602 17.985 14.2702 18.335 12.8102H18.925C19.475 12.8102 20.075 13.2502 20.075 13.9602V16.0342C20.075 16.5842 19.635 17.1842 18.925 17.1842H18.355C18.2305 16.5439 17.9083 15.967 17.4658 15.5165C17.3689 15.4178 17.2156 15.4108 17.0974 15.4826C16.5201 15.8336 15.8506 16.0342 15.125 16.0342H5.72499C4.99852 16.0342 4.32835 15.8331 3.75057 15.4814C3.63333 15.41 3.48141 15.4162 3.3845 15.5134C2.79333 16.1063 2.42499 16.9284 2.42499 17.8342C2.42499 19.6542 3.90499 21.1342 5.72499 21.1342H15.125C16.615 21.1342 17.905 20.0742 18.295 18.6842H18.925C20.385 18.6842 21.575 17.4942 21.575 16.0342V13.9602C21.575 13.2102 21.265 12.5402 20.765 12.0602C21.265 11.5802 21.575 10.9102 21.575 10.1602V8.06719Z" fill="black"/>
</svg>