<svg width="24" height="24" viewBox="0 0 24 24" fill="none" xmlns="http://www.w3.org/2000/svg">
<path fill-rule="evenodd" clip-rule="evenodd" d="M21.5 7.30195V10.452C21.5 10.6176 21.3657 10.752 21.2 10.752H2.8C2.63431 10.752 2.5 10.6176 2.5 10.452V7.30195C2.5 4.18095 4.761 2.00195 8 2.00195H15.9C19.25 2.00195 21.5 4.13195 21.5 7.30195ZM7.9 6.15195H7.4C6.986 6.15195 6.65 6.48795 6.65 6.90195C6.65 7.31595 6.986 7.65195 7.4 7.65195H7.9C8.314 7.65195 8.65 7.31595 8.65 6.90195C8.65 6.48795 8.314 6.15195 7.9 6.15195ZM16.599 6.15195H12.099C11.685 6.15195 11.349 6.48795 11.349 6.90195C11.349 7.31595 11.685 7.65195 12.099 7.65195H16.599C17.013 7.65195 17.349 7.31595 17.349 6.90195C17.349 6.48795 17.013 6.15195 16.599 6.15195Z" fill="black"/>
<path fill-rule="evenodd" clip-rule="evenodd" d="M2.5 15.702V12.552C2.5 12.3863 2.63431 12.252 2.8 12.252H21.2C21.3657 12.252 21.5 12.3863 21.5 12.552V15.702C21.5 16.1607 21.4511 16.599 21.3575 17.0131C21.3252 17.156 21.1753 17.2342 21.0321 17.2034C20.9052 17.1762 20.8081 17.0683 20.8081 16.9385V15.0479C20.8081 13.6669 19.6891 12.5479 18.3081 12.5479C17.7518 12.5479 17.238 12.7294 16.8227 13.0366C16.6966 13.1299 16.5209 13.1299 16.3947 13.0367C16.2849 12.9556 16.1677 12.8829 16.0437 12.8197C15.2057 12.3937 14.1997 12.4727 13.4377 13.0257L11.2377 14.6257C10.1217 15.4377 9.87469 17.0017 10.6867 18.1177C11.0555 18.6254 11.5802 18.9531 12.1471 19.0838C12.2949 19.1179 12.4087 19.2438 12.4087 19.3954V20.702C12.4087 20.8676 12.2744 21.002 12.1087 21.002H8C4.71 21.002 2.5 18.872 2.5 15.702ZM7.4 16.852H7.9C8.314 16.852 8.65 16.516 8.65 16.102C8.65 15.688 8.314 15.352 7.9 15.352H7.4C6.986 15.352 6.65 15.688 6.65 16.102C6.65 16.516 6.986 16.852 7.4 16.852Z" fill="black"/>
<path d="M14.9087 21.9985C14.4947 21.9985 14.1587 21.6625 14.1587 21.2485V16.5205L13.1497 17.2545C12.8117 17.4995 12.3447 17.4235 12.1017 17.0895C11.8577 16.7545 11.9317 16.2855 12.2667 16.0415L14.4677 14.4415C14.6957 14.2755 14.9967 14.2515 15.2497 14.3795C15.5007 14.5075 15.6587 14.7665 15.6587 15.0485V21.2485C15.6587 21.6625 15.3227 21.9985 14.9087 21.9985Z" fill="black"/>
<path d="M17.9671 21.9159C18.0761 21.9709 18.1921 21.9979 18.3081 21.9979C18.4631 21.9979 18.6191 21.9499 18.7491 21.8539L20.9501 20.2539C21.2851 20.0109 21.3591 19.5419 21.1151 19.2069C20.8711 18.8719 20.4051 18.7949 20.0671 19.0409L19.0581 19.7749V15.0479C19.0581 14.6339 18.7221 14.2979 18.3081 14.2979C17.8941 14.2979 17.5581 14.6339 17.5581 15.0479V21.2479C17.5581 21.5299 17.7161 21.7889 17.9671 21.9159Z" fill="black"/>
</svg>