<svg width="24" height="24" viewBox="0 0 24 24" fill="none" xmlns="http://www.w3.org/2000/svg">
<path fill-rule="evenodd" clip-rule="evenodd" d="M19.75 16.2776V14.6496C19.75 13.1336 18.517 11.8996 17 11.8996H12.75V8.84961H16.8C18.482 8.84961 19.8 7.53161 19.8 5.84961C19.8 4.16761 18.482 2.84961 16.8 2.84961H7.5C5.818 2.84961 4.5 4.16761 4.5 5.84961C4.5 7.53161 5.818 8.84961 7.5 8.84961H11.25V11.8996H7C5.483 11.8996 4.25 13.1336 4.25 14.6496V16.2776C3.239 16.5986 2.5 17.5346 2.5 18.6496C2.5 20.0286 3.622 21.1496 5 21.1496C6.378 21.1496 7.5 20.0286 7.5 18.6496C7.5 17.5346 6.761 16.5986 5.75 16.2776V14.6496C5.75 13.9606 6.311 13.3996 7 13.3996H11.25V16.2776C10.239 16.5986 9.5 17.5346 9.5 18.6496C9.5 20.0286 10.622 21.1496 12 21.1496C13.378 21.1496 14.5 20.0286 14.5 18.6496C14.5 17.5346 13.761 16.5986 12.75 16.2776V13.3996H17C17.689 13.3996 18.25 13.9606 18.25 14.6496V16.2776C17.239 16.5986 16.5 17.5346 16.5 18.6496C16.5 20.0286 17.622 21.1496 19 21.1496C20.378 21.1496 21.5 20.0286 21.5 18.6496C21.5 17.5346 20.761 16.5986 19.75 16.2776Z" fill="black"/>
</svg>