<svg width="25" height="24" viewBox="0 0 25 24" fill="none" xmlns="http://www.w3.org/2000/svg">
<path fill-rule="evenodd" clip-rule="evenodd" d="M4.14769 3.73654C5.19847 2.7584 6.6489 2.25 8.27624 2.25H16.2233C17.8516 2.25 19.3019 2.76115 20.3522 3.74016C21.4084 4.72462 21.9995 6.12661 21.9995 7.78203V11.3518C21.9995 11.766 21.6637 12.1018 21.2495 12.1018C20.8353 12.1018 20.4995 11.766 20.4995 11.3518V7.78203C20.4995 6.49819 20.0501 5.50916 19.3294 4.83742C18.6029 4.16023 17.5401 3.75 16.2233 3.75H8.27624C6.95848 3.75 5.89579 4.1586 5.16972 4.83447C4.44972 5.5047 4 6.49332 4 7.78203V16.2155C4 17.5048 4.44978 18.494 5.16984 19.1646C5.89593 19.8407 6.95859 20.2495 8.27624 20.2495H11.3585C11.7728 20.2495 12.1085 20.5853 12.1085 20.9995C12.1085 21.4137 11.7728 21.7495 11.3585 21.7495H8.27624C6.64879 21.7495 5.19832 21.2408 4.14757 20.2623C3.09078 19.2781 2.5 17.8753 2.5 16.2155V7.78203C2.5 6.12272 3.09085 4.72032 4.14769 3.73654Z" fill="black"/>
<path fill-rule="evenodd" clip-rule="evenodd" d="M6.86328 16.1348C6.86328 15.7206 7.19907 15.3848 7.61328 15.3848H8.13575C8.54997 15.3848 8.88575 15.7206 8.88575 16.1348C8.88575 16.549 8.54997 16.8848 8.13575 16.8848H7.61328C7.19907 16.8848 6.86328 16.549 6.86328 16.1348Z" fill="black"/>
<path fill-rule="evenodd" clip-rule="evenodd" d="M6.86328 7.86426C6.86328 7.45004 7.19907 7.11426 7.61328 7.11426H8.13575C8.54997 7.11426 8.88575 7.45004 8.88575 7.86426C8.88575 8.27847 8.54997 8.61426 8.13575 8.61426H7.61328C7.19907 8.61426 6.86328 8.27847 6.86328 7.86426ZM11.6016 7.86426C11.6016 7.45004 11.9374 7.11426 12.3516 7.11426H16.8855C17.2997 7.11426 17.6355 7.45004 17.6355 7.86426C17.6355 8.27847 17.2997 8.61426 16.8855 8.61426H12.3516C11.9374 8.61426 11.6016 8.27847 11.6016 7.86426Z" fill="black"/>
<path fill-rule="evenodd" clip-rule="evenodd" d="M17.7703 15.1797C16.5605 15.1797 15.5801 16.1605 15.5801 17.369C15.5801 18.5786 16.5607 19.5592 17.7703 19.5592C18.3399 19.5592 18.8588 19.3418 19.2483 18.9854C19.2565 18.9774 19.2648 18.9697 19.2733 18.9622C19.6964 18.5628 19.9606 17.9967 19.9606 17.369C19.9606 16.1605 18.9801 15.1797 17.7703 15.1797ZM20.794 19.485C21.2141 18.8859 21.4606 18.1562 21.4606 17.369C21.4606 15.3317 19.8082 13.6797 17.7703 13.6797C15.7324 13.6797 14.0801 15.3317 14.0801 17.369C14.0801 19.407 15.7323 21.0592 17.7703 21.0592C18.4784 21.0592 19.1399 20.8598 19.7017 20.514L20.7209 21.5312C21.0141 21.8238 21.4889 21.8233 21.7815 21.5301C22.0741 21.237 22.0737 20.7621 21.7805 20.4695L20.794 19.485Z" fill="black"/>
<path fill-rule="evenodd" clip-rule="evenodd" d="M2.52344 12C2.52344 11.5858 2.85922 11.25 3.27344 11.25H12.4697C12.8839 11.25 13.2197 11.5858 13.2197 12C13.2197 12.4142 12.8839 12.75 12.4697 12.75H3.27344C2.85922 12.75 2.52344 12.4142 2.52344 12Z" fill="black"/>
</svg>