<svg width="25" height="24" viewBox="0 0 25 24" fill="none" xmlns="http://www.w3.org/2000/svg">
<path d="M12.2495 9.5C13.6305 9.5 14.7495 10.619 14.7495 12C14.7495 13.381 13.6305 14.5 12.2495 14.5C10.8685 14.5 9.74951 13.381 9.74951 12" stroke="black" stroke-width="1.5" stroke-linecap="round" stroke-linejoin="round"/>
<path d="M7.46183 6.339C6.27783 5.65 4.76483 6.058 4.08183 7.25C3.39883 8.443 3.80383 9.967 4.98783 10.654C6.01483 11.253 6.01483 12.747 4.98783 13.346C3.80383 14.034 3.39883 15.559 4.08183 16.75C4.76483 17.942 6.27783 18.35 7.46083 17.663H7.46183C8.48983 17.064 9.77483 17.812 9.77483 19.008C9.77483 20.384 10.8838 21.5 12.2498 21.5C13.6158 21.5 14.7238 20.384 14.7238 19.008C14.7238 17.812 16.0098 17.064 17.0388 17.663" stroke="black" stroke-width="1.5" stroke-linecap="round" stroke-linejoin="round"/>
<path d="M20.4177 16.75C21.1017 15.559 20.6957 14.034 19.5127 13.346H19.5117C18.4837 12.747 18.4837 11.253 19.5127 10.654C20.6957 9.967 21.1017 8.443 20.4177 7.25C19.7337 6.058 18.2207 5.65 17.0387 6.339C16.0097 6.936 14.7237 6.189 14.7237 4.992C14.7237 3.616 13.6157 2.5 12.2497 2.5C10.8837 2.5 9.77466 3.616 9.77466 4.992" stroke="black" stroke-width="1.5" stroke-linecap="round" stroke-linejoin="round"/>
</svg>