<svg width="25" height="24" viewBox="0 0 25 24" fill="none" xmlns="http://www.w3.org/2000/svg">
<path fill-rule="evenodd" clip-rule="evenodd" d="M12.25 15.937C10.079 15.937 8.31298 14.171 8.31298 12C8.31298 9.82901 10.079 8.06201 12.25 8.06201C14.421 8.06201 16.188 9.82901 16.188 12C16.188 14.171 14.421 15.937 12.25 15.937ZM21.968 9.12701L19.168 8.00701L19.598 5.02001L14.622 2.14801L12.251 4.01401L9.87898 2.14801L4.90298 5.02001L5.33298 8.00701L2.53198 9.12701V14.873L5.33398 15.994L4.90398 18.979L9.87998 21.852L12.251 19.987L14.621 21.852L19.597 18.979L19.167 15.993L21.968 14.873V9.12701Z" fill="black"/>
</svg>