<svg width="25" height="25" viewBox="0 0 25 25" fill="none" xmlns="http://www.w3.org/2000/svg">
<path fill-rule="evenodd" clip-rule="evenodd" d="M12.2501 4.24622C7.69167 4.24622 3.99634 7.94155 3.99634 12.5C3.99634 17.0584 7.69167 20.7537 12.2501 20.7537C16.8085 20.7537 20.5038 17.0584 20.5038 12.5C20.5038 7.94155 16.8085 4.24622 12.2501 4.24622ZM2.49634 12.5C2.49634 7.11312 6.86324 2.74622 12.2501 2.74622C17.6369 2.74622 22.0038 7.11312 22.0038 12.5C22.0038 17.8868 17.6369 22.2537 12.2501 22.2537C6.86324 22.2537 2.49634 17.8868 2.49634 12.5Z" fill="black"/>
<path fill-rule="evenodd" clip-rule="evenodd" d="M12.9766 8.25961C11.7988 8.08364 10.5795 8.46528 9.70685 9.33792C8.56085 10.4839 8.26164 12.2278 8.9601 13.6903C9.09708 13.9771 9.0384 14.3191 8.81365 14.5438L5.30987 18.0476C5.01698 18.3405 4.5421 18.3405 4.24921 18.0476C3.95632 17.7547 3.95632 17.2799 4.24921 16.987L7.39848 13.8377C6.7089 11.9149 7.17922 9.74423 8.64619 8.27726C10.2417 6.68177 12.6696 6.26521 14.7057 7.23762C14.9254 7.34255 15.0805 7.5476 15.1216 7.78757C15.1628 8.02754 15.0849 8.27257 14.9128 8.44473L12.591 10.7665L12.8125 11.7715L13.8175 11.993L16.1393 9.67123C16.3114 9.49907 16.5565 9.42119 16.7964 9.46237C17.0364 9.50354 17.2414 9.65864 17.3464 9.87834C18.3188 11.9144 17.9022 14.3423 16.3067 15.9378C14.8398 17.4048 12.6691 17.8751 10.7463 17.1855L7.59703 20.3348C7.30414 20.6277 6.82927 20.6277 6.53637 20.3348C6.24348 20.0419 6.24348 19.567 6.53637 19.2741L10.0402 15.7703C10.2649 15.5456 10.6069 15.4869 10.8937 15.6239C12.3562 16.3224 14.1001 16.0231 15.2461 14.8772C16.1187 14.0045 16.5004 12.7852 16.3244 11.6074L14.7229 13.2089C14.4577 13.4741 14.0755 13.5858 13.7092 13.5051L12.2396 13.1813C11.8214 13.0891 11.4949 12.7626 11.4027 12.3444L11.0789 10.8748C10.9982 10.5085 11.1098 10.1263 11.3751 9.8611L12.9766 8.25961Z" fill="black"/>
</svg>