<svg width="25" height="25" viewBox="0 0 25 25" fill="none" xmlns="http://www.w3.org/2000/svg">
<rect x="3.25" y="3.5" width="18" height="18" rx="5" stroke="black" stroke-width="1.5" stroke-linecap="round" stroke-linejoin="round"/>
<path opacity="0.4" d="M14.0321 21.5001L14.0317 16.6546C15.6493 15.9608 16.7831 14.356 16.7831 12.4846C16.7831 10.6068 15.6429 8.99555 14.0193 8.31409L14.0193 11.5092C14.0189 11.7972 13.8756 12.0665 13.6364 12.2271L12.7331 12.8319C12.4428 13.0264 12.0635 13.0268 11.7727 12.8328L10.8653 12.2267C10.6248 12.0665 10.481 11.7967 10.481 11.5082V8.31409C8.85747 9.00194 7.71729 10.6068 7.71729 12.4846C7.71729 14.356 8.85108 15.9608 10.4746 16.6551L10.4746 21.5001" stroke="black" stroke-width="1.5" stroke-linecap="round" stroke-linejoin="round"/>
</svg>