<svg width="25" height="24" viewBox="0 0 25 24" fill="none" xmlns="http://www.w3.org/2000/svg">
<path d="M15.6032 13.5375C15.8182 13.0695 15.9382 12.5485 15.9382 12.0005C15.9382 9.9635 14.2872 8.3125 12.2502 8.3125C10.2142 8.3125 8.56323 9.9635 8.56323 12.0005C8.56323 14.0375 10.2142 15.6885 12.2502 15.6885" stroke="black" stroke-width="1.5" stroke-linecap="square"/>
<path d="M3.03198 9.466V14.535L5.88498 15.676L5.44698 18.716L9.83698 21.25L12.251 19.351L14.664 21.25L19.054 18.716L18.616 15.675L21.468 14.535V9.466L18.617 8.325L19.055 5.285L14.665 2.75L12.251 4.65L9.83598 2.75L5.44598 5.285L5.88398 8.325" stroke="black" stroke-width="1.5" stroke-linecap="square"/>
</svg>