<svg width="25" height="24" viewBox="0 0 25 24" fill="none" xmlns="http://www.w3.org/2000/svg">
<path opacity="0.4" fill-rule="evenodd" clip-rule="evenodd" d="M21.968 9.12695L19.168 8.00695L19.598 5.01995L14.622 2.14795L12.251 4.01395L9.87898 2.14795L4.90298 5.01995L5.33298 8.00695L2.53198 9.12695V14.8729L5.33398 15.9939L4.90398 18.9789L9.87998 21.8519L12.251 19.9869L14.621 21.8519L19.597 18.9789L19.167 15.9929L21.968 14.8729V9.12695Z" fill="black"/>
<path d="M8.31274 12C8.31274 14.171 10.0787 15.937 12.2497 15.937C14.4207 15.937 16.1877 14.171 16.1877 12C16.1877 9.82901 14.4207 8.06201 12.2497 8.06201C10.0787 8.06201 8.31274 9.82901 8.31274 12Z" fill="black"/>
</svg>