<svg width="24" height="24" viewBox="0 0 24 24" fill="none" xmlns="http://www.w3.org/2000/svg">
<g opacity="0.4">
<path d="M4.02158 11.5522C3.95558 11.5522 3.88758 11.5432 3.82058 11.5252C3.42158 11.4142 3.18758 11.0012 3.29858 10.6012C4.05758 7.86617 6.11358 5.67017 8.79958 4.72717C9.18958 4.59117 9.61858 4.79517 9.75558 5.18617C9.89258 5.57617 9.68758 6.00517 9.29658 6.14217C7.07358 6.92317 5.37158 8.73917 4.74358 11.0032C4.65158 11.3352 4.35058 11.5522 4.02158 11.5522Z" fill="black"/>
<path d="M11.7018 21.6245C9.66882 21.6245 7.66182 20.9115 6.08082 19.5825C5.76382 19.3155 5.72282 18.8425 5.98882 18.5255C6.25682 18.2075 6.72882 18.1675 7.04582 18.4345C8.77282 19.8855 11.1108 20.4475 13.3068 19.9415C13.7028 19.8485 14.1128 20.0995 14.2058 20.5025C14.2998 20.9065 14.0488 21.3095 13.6448 21.4025C13.0028 21.5515 12.3508 21.6245 11.7018 21.6245Z" fill="black"/>
<path d="M19.3819 14.9636C19.4249 14.9716 19.4669 14.9746 19.5089 14.9746C19.8669 14.9746 20.1849 14.7166 20.2469 14.3506C20.7479 11.4076 19.6729 8.3516 17.4419 6.3776C17.1319 6.1026 16.6579 6.1316 16.3829 6.4426C16.1089 6.7526 16.1369 7.2266 16.4469 7.5006C18.2939 9.1346 19.1829 11.6626 18.7689 14.0986C18.6989 14.5076 18.9739 14.8946 19.3819 14.9636Z" fill="black"/>
</g>
<path d="M8.50092 4.81649C8.50092 6.16249 9.59592 7.25749 10.9419 7.25749C12.2879 7.25749 13.3829 6.16249 13.3829 4.81649C13.3829 3.47049 12.2879 2.37549 10.9419 2.37549C9.59592 2.37549 8.50092 3.47049 8.50092 4.81649Z" fill="black"/>
<path d="M16.4252 16.0753C16.4252 17.4213 17.5192 18.5163 18.8662 18.5163C20.2122 18.5163 21.3062 17.4213 21.3062 16.0753C21.3062 14.7293 20.2122 13.6343 18.8662 13.6343C17.5192 13.6343 16.4252 14.7293 16.4252 16.0753Z" fill="black"/>
<path d="M2.69385 17.7155C2.69385 19.0615 3.78885 20.1565 5.13585 20.1565C6.48185 20.1565 7.57685 19.0615 7.57685 17.7155C7.57685 16.3695 6.48185 15.2745 5.13585 15.2745C3.78885 15.2745 2.69385 16.3695 2.69385 17.7155Z" fill="black"/>
<path d="M10.1414 15.3455H13.3154C13.8054 15.3455 14.2454 15.0925 14.4914 14.6695C14.7374 14.2455 14.7384 13.7375 14.4964 13.3135L12.9204 10.5445C12.6754 10.1155 12.2354 9.85848 11.7414 9.85748H11.7384C11.2464 9.85748 10.8064 10.1115 10.5604 10.5385L8.96436 13.3065C8.71836 13.7325 8.71736 14.2405 8.96336 14.6665C9.20936 15.0915 9.64936 15.3455 10.1414 15.3455Z" fill="black"/>
</svg>