<svg width="24" height="24" viewBox="0 0 24 24" fill="none" xmlns="http://www.w3.org/2000/svg">
<path fill-rule="evenodd" clip-rule="evenodd" d="M14.6633 5.86836C14.6633 7.30057 13.5016 8.4623 12.0694 8.4623C10.6362 8.4623 9.47445 7.30057 9.47445 5.86836C9.47445 4.43517 10.6362 3.27344 12.0694 3.27344C13.5016 3.27344 14.6633 4.43517 14.6633 5.86836Z" stroke="black" stroke-width="1.5" stroke-linecap="round" stroke-linejoin="round"/>
<path fill-rule="evenodd" clip-rule="evenodd" d="M21 16.9331C21 18.3663 19.8383 19.528 18.4061 19.528C16.9729 19.528 15.8111 18.3663 15.8111 16.9331C15.8111 15.4999 16.9729 14.3382 18.4061 14.3382C19.8383 14.3382 21 15.4999 21 16.9331Z" stroke="black" stroke-width="1.5" stroke-linecap="round" stroke-linejoin="round"/>
<path fill-rule="evenodd" clip-rule="evenodd" d="M8.18887 16.9331C8.18887 18.3663 7.02714 19.528 5.59492 19.528C4.16173 19.528 3 18.3663 3 16.9331C3 15.4999 4.16173 14.3382 5.59492 14.3382C7.02714 14.3382 8.18887 15.4999 8.18887 16.9331Z" stroke="black" stroke-width="1.5" stroke-linecap="round" stroke-linejoin="round"/>
<path opacity="0.4" d="M13.6588 20.5343C11.382 21.0617 8.97683 20.4769 7.19531 18.9785" stroke="black" stroke-width="1.5" stroke-linecap="round" stroke-linejoin="round"/>
<path opacity="0.4" d="M16.9004 7.69336C18.8337 9.40287 19.724 11.9997 19.2978 14.5051" stroke="black" stroke-width="1.5" stroke-linecap="round" stroke-linejoin="round"/>
<path opacity="0.4" d="M4.81641 11.3047C5.46733 8.96083 7.24106 7.08494 9.51684 6.28516" stroke="black" stroke-width="1.5" stroke-linecap="round" stroke-linejoin="round"/>
</svg>