<svg width="24" height="24" viewBox="0 0 24 24" fill="none" xmlns="http://www.w3.org/2000/svg">
<path fill-rule="evenodd" clip-rule="evenodd" d="M9.36091 6.34529C9.74941 7.43595 10.7856 8.21787 12.0001 8.21787C13.214 8.21787 14.2501 7.43569 14.6385 6.34476C17.2567 7.4271 18.9762 9.98222 18.9762 12.879C18.9762 13.3153 18.9371 13.7483 18.8593 14.1717C18.8055 14.1686 18.7514 14.167 18.6969 14.167C17.1519 14.167 15.8939 15.434 15.8939 16.991C15.8939 17.5194 16.0385 18.0143 16.29 18.4376C15.0715 19.4045 13.5649 19.932 11.9979 19.932C10.4308 19.932 8.92352 19.4074 7.70513 18.4459C7.95967 18.0207 8.10624 17.5228 8.10624 16.991C8.10624 15.434 6.84824 14.167 5.30324 14.167C5.24669 14.167 5.19052 14.1687 5.13479 14.172C5.05751 13.7468 5.02026 13.3203 5.02026 12.8788C5.02026 9.9764 6.7413 7.42243 9.36091 6.34529ZM9.26373 4.77914C9.54254 3.51594 10.6633 2.56787 12.0001 2.56787C13.3358 2.56787 14.4562 3.51555 14.7353 4.77835C18.1779 5.96793 20.4762 9.19593 20.4762 12.879C20.4762 13.4838 20.4134 14.0844 20.2902 14.6686C21.0207 15.1789 21.4999 16.0297 21.4999 16.991C21.4999 18.549 20.2429 19.816 18.6969 19.816C18.2211 19.816 17.7726 19.6959 17.3796 19.4841C15.8702 20.7425 13.9736 21.432 11.9979 21.432C10.0213 21.432 8.12157 20.7439 6.61036 19.4895C6.21982 19.6979 5.77491 19.816 5.30324 19.816C3.75724 19.816 2.50024 18.549 2.50024 16.991C2.50024 16.0322 2.97693 15.1833 3.70425 14.6726C3.5824 14.0841 3.52026 13.4822 3.52026 12.8788C3.52026 9.19042 5.81926 5.96321 9.26373 4.77914Z" fill="black"/>
</svg>