<svg width="24" height="24" viewBox="0 0 24 24" fill="none" xmlns="http://www.w3.org/2000/svg">
<g opacity="0.4">
<path d="M4.61502 11.9052C4.68202 11.9232 4.75002 11.9322 4.81602 11.9322C5.14502 11.9322 5.44602 11.7152 5.53802 11.3832C6.12202 9.28222 7.70202 7.59522 9.76502 6.87022C10.156 6.73222 10.361 6.30422 10.224 5.91322C10.087 5.52322 9.65902 5.31922 9.26802 5.45422C6.74202 6.34222 4.80702 8.40822 4.09302 10.9812C3.98202 11.3802 4.21602 11.7942 4.61502 11.9052Z" fill="black"/>
<path d="M19.2985 15.1319C19.2565 15.1319 19.2145 15.1289 19.1715 15.1209C18.7635 15.0519 18.4885 14.6649 18.5585 14.2559C18.9435 11.9939 18.1175 9.64794 16.4025 8.13194C16.0925 7.85794 16.0635 7.38294 16.3375 7.07294C16.6105 6.76194 17.0855 6.73294 17.3965 7.00794C19.4965 8.86494 20.5075 11.7379 20.0365 14.5079C19.9745 14.8739 19.6575 15.1319 19.2985 15.1319Z" fill="black"/>
<path d="M11.9986 21.3502C10.0866 21.3502 8.19863 20.6802 6.71163 19.4302C6.39463 19.1632 6.35363 18.6902 6.62063 18.3732C6.88663 18.0572 7.36063 18.0162 7.67663 18.2822C9.28163 19.6302 11.4546 20.1522 13.4896 19.6812C13.8986 19.5892 14.2956 19.8392 14.3896 20.2422C14.4826 20.6452 14.2316 21.0482 13.8286 21.1422C13.2246 21.2822 12.6096 21.3502 11.9986 21.3502Z" fill="black"/>
</g>
<path d="M8.97363 5.74539C8.97363 7.45139 10.3616 8.83939 12.0686 8.83939C13.7746 8.83939 15.1626 7.45139 15.1626 5.74539C15.1626 4.03939 13.7746 2.65039 12.0686 2.65039C10.3616 2.65039 8.97363 4.03939 8.97363 5.74539Z" fill="black"/>
<path d="M15.311 16.8103C15.311 18.5173 16.699 19.9053 18.406 19.9053C20.112 19.9053 21.5 18.5173 21.5 16.8103C21.5 15.1043 20.112 13.7153 18.406 13.7153C16.699 13.7153 15.311 15.1043 15.311 16.8103Z" fill="black"/>
<path d="M2.5 16.8103C2.5 18.5173 3.888 19.9053 5.595 19.9053C7.301 19.9053 8.689 18.5173 8.689 16.8103C8.689 15.1043 7.301 13.7153 5.595 13.7153C3.888 13.7153 2.5 15.1043 2.5 16.8103Z" fill="black"/>
</svg>