<svg width="24" height="24" viewBox="0 0 24 24" fill="none" xmlns="http://www.w3.org/2000/svg">
<path d="M14.6632 5.86836C14.6632 7.30057 13.5015 8.4623 12.0693 8.4623C10.6361 8.4623 9.47437 7.30057 9.47437 5.86836C9.47437 4.43517 10.6361 3.27344 12.0693 3.27344" stroke="black" stroke-width="1.5" stroke-linecap="round" stroke-linejoin="round"/>
<path d="M5.59492 19.5277C7.02714 19.5277 8.18887 18.366 8.18887 16.9328C8.18887 15.4996 7.02714 14.3379 5.59492 14.3379C4.16173 14.3379 3 15.4996 3 16.9328" stroke="black" stroke-width="1.5" stroke-linecap="round" stroke-linejoin="round"/>
<path d="M18.4064 19.5277C16.9733 19.5277 15.8115 18.366 15.8115 16.9328C15.8115 15.4996 16.9733 14.3379 18.4064 14.3379C19.8387 14.3379 21.0004 15.4996 21.0004 16.9328" stroke="black" stroke-width="1.5" stroke-linecap="round" stroke-linejoin="round"/>
<path d="M13.6588 20.5343C11.382 21.0617 8.97683 20.4769 7.19531 18.9785" stroke="black" stroke-width="1.5" stroke-linecap="round" stroke-linejoin="round"/>
<path d="M16.9004 7.69336C18.8337 9.40287 19.724 11.9997 19.2978 14.5051" stroke="black" stroke-width="1.5" stroke-linecap="round" stroke-linejoin="round"/>
<path d="M4.81641 11.3047C5.46733 8.96083 7.24106 7.08494 9.51684 6.28516" stroke="black" stroke-width="1.5" stroke-linecap="round" stroke-linejoin="round"/>
</svg>