<svg width="24" height="24" viewBox="0 0 24 24" fill="none" xmlns="http://www.w3.org/2000/svg">
<g opacity="0.4">
<path d="M5.74526 8.39815C5.88926 8.52615 6.06726 8.58915 6.24526 8.58915C6.45126 8.58915 6.65626 8.50515 6.80526 8.33915C7.64726 7.39815 8.72426 6.70315 9.92026 6.33015C10.3153 6.20615 10.5363 5.78615 10.4123 5.39015C10.2893 4.99515 9.87226 4.77315 9.47326 4.89815C8.01826 5.35215 6.70926 6.19615 5.68626 7.33915C5.41126 7.64815 5.43726 8.12215 5.74526 8.39815Z" fill="black"/>
<path d="M3.7829 15.0871C3.8689 15.4271 4.1749 15.6531 4.5099 15.6531C4.5709 15.6531 4.6329 15.6461 4.6949 15.6301C5.0959 15.5281 5.3389 15.1211 5.2379 14.7191C5.0959 14.1611 5.0249 13.5811 5.0249 12.9961C5.0249 12.4491 5.0939 11.8851 5.2309 11.3201C5.3279 10.9181 5.0809 10.5131 4.6779 10.4151C4.2759 10.3181 3.8699 10.5661 3.7729 10.9681C3.6079 11.6481 3.5249 12.3301 3.5249 12.9961C3.5249 13.7051 3.6119 14.4081 3.7829 15.0871Z" fill="black"/>
<path d="M13.257 20.6482C13.344 20.9862 13.649 21.2112 13.983 21.2112C14.045 21.2112 14.108 21.2042 14.17 21.1882C15.46 20.8562 16.664 20.2112 17.654 19.3212C17.962 19.0442 17.987 18.5702 17.71 18.2622C17.433 17.9542 16.959 17.9282 16.651 18.2062C15.84 18.9352 14.853 19.4632 13.797 19.7342C13.396 19.8372 13.154 20.2472 13.257 20.6482Z" fill="black"/>
<path d="M10.0201 21.2273C9.95713 21.2273 9.89213 21.2193 9.82813 21.2023C8.54313 20.8623 7.34313 20.2083 6.35813 19.3113C6.05113 19.0333 6.02913 18.5593 6.30813 18.2523C6.58713 17.9463 7.06113 17.9243 7.36713 18.2023C8.17513 18.9373 9.15913 19.4733 10.2111 19.7523C10.6121 19.8583 10.8511 20.2693 10.7451 20.6693C10.6551 21.0053 10.3521 21.2273 10.0201 21.2273Z" fill="black"/>
<path d="M17.7267 8.56232C17.5217 8.56232 17.3177 8.47932 17.1697 8.31432C16.3337 7.38832 15.2647 6.70132 14.0787 6.33032C13.6837 6.20632 13.4637 5.78532 13.5867 5.39032C13.7107 4.99432 14.1327 4.77332 14.5267 4.89832C15.9697 5.35032 17.2687 6.18432 18.2837 7.31032C18.5607 7.61732 18.5367 8.09132 18.2287 8.36932C18.0857 8.49832 17.9057 8.56232 17.7267 8.56232Z" fill="black"/>
<path d="M19.3112 15.6301C19.3732 15.6461 19.4352 15.6531 19.4962 15.6531C19.8312 15.6531 20.1372 15.4271 20.2232 15.0871C20.3942 14.4081 20.4812 13.7051 20.4812 12.9961C20.4812 12.3301 20.3982 11.6481 20.2332 10.9681C20.1362 10.5661 19.7322 10.3181 19.3282 10.4151C18.9252 10.5131 18.6782 10.9181 18.7752 11.3201C18.9122 11.8851 18.9812 12.4491 18.9812 12.9961C18.9812 13.5811 18.9102 14.1611 18.7682 14.7191C18.6672 15.1211 18.9102 15.5281 19.3112 15.6301Z" fill="black"/>
</g>
<path d="M9.197 5.57546C9.197 7.12146 10.454 8.37846 12 8.37846C13.545 8.37846 14.802 7.12146 14.802 5.57546C14.802 4.02946 13.545 2.77246 12 2.77246C10.454 2.77246 9.197 4.02946 9.197 5.57546Z" fill="black"/>
<path d="M2.5 17.0645C2.5 18.6105 3.757 19.8675 5.303 19.8675C6.849 19.8675 8.106 18.6105 8.106 17.0645C8.106 15.5185 6.849 14.2615 5.303 14.2615C3.757 14.2615 2.5 15.5185 2.5 17.0645Z" fill="black"/>
<path d="M15.894 17.0645C15.894 18.6105 17.151 19.8675 18.697 19.8675C20.243 19.8675 21.5 18.6105 21.5 17.0645C21.5 15.5185 20.243 14.2615 18.697 14.2615C17.151 14.2615 15.894 15.5185 15.894 17.0645Z" fill="black"/>
</svg>