<svg width="24" height="24" viewBox="0 0 24 24" fill="none" xmlns="http://www.w3.org/2000/svg">
<path d="M9.36441 6.53044C9.75567 7.60745 10.7892 8.37846 12 8.37846C13.2099 8.37846 14.2432 7.6076 14.6345 6.53076C15.5986 6.92563 16.4668 7.5355 17.1701 8.31454C17.3181 8.47954 17.5221 8.56254 17.7271 8.56254C17.9061 8.56254 18.0861 8.49854 18.2291 8.36954C18.5371 8.09154 18.5611 7.61754 18.2841 7.31054C17.3182 6.23901 16.0951 5.43192 14.7355 4.96682C14.4569 3.71263 13.3362 2.77246 12 2.77246C10.6629 2.77246 9.54197 3.71272 9.26346 4.96699C7.89262 5.43473 6.66013 6.25166 5.68662 7.33936C5.41162 7.64836 5.43762 8.12236 5.74562 8.39836C5.88962 8.52636 6.06762 8.58936 6.24562 8.58936C6.45162 8.58936 6.65662 8.50536 6.80562 8.33936C7.51491 7.54668 8.39095 6.92856 9.36441 6.53044Z" fill="black"/>
<path d="M2.5 17.0645C2.5 18.6105 3.757 19.8675 5.303 19.8675C5.77841 19.8675 6.22648 19.7486 6.61908 19.539C7.55192 20.3194 8.65475 20.892 9.82849 21.2026C9.89249 21.2196 9.95749 21.2276 10.0205 21.2276C10.3525 21.2276 10.6555 21.0056 10.7455 20.6696C10.8515 20.2696 10.6125 19.8586 10.2115 19.7526C9.30495 19.5121 8.4489 19.0809 7.71246 18.4959C7.96235 18.0767 8.106 17.5871 8.106 17.0645C8.106 15.5185 6.849 14.2615 5.303 14.2615C5.24808 14.2615 5.19353 14.263 5.13938 14.2662C5.06331 13.85 5.02527 13.4245 5.02527 12.9963C5.02527 12.4493 5.09427 11.8853 5.23127 11.3203C5.32827 10.9183 5.08127 10.5133 4.67827 10.4153C4.27627 10.3183 3.87027 10.5663 3.77327 10.9683C3.60827 11.6483 3.52527 12.3303 3.52527 12.9963C3.52527 13.5922 3.58672 14.1838 3.70783 14.7605C2.97836 15.267 2.5 16.1107 2.5 17.0645Z" fill="black"/>
<path d="M15.894 17.0645C15.894 17.5914 16.04 18.0847 16.2937 18.5061C15.5572 19.0809 14.7027 19.5021 13.7974 19.7344C13.3964 19.8374 13.1544 20.2474 13.2574 20.6484C13.3444 20.9864 13.6494 21.2114 13.9834 21.2114C14.0454 21.2114 14.1084 21.2044 14.1704 21.1884C15.3493 20.885 16.4563 20.3202 17.3939 19.5459C17.7834 19.7512 18.2268 19.8675 18.697 19.8675C20.243 19.8675 21.5 18.6105 21.5 17.0645C21.5 16.1134 21.0243 15.2716 20.2982 14.7647C20.4198 14.1867 20.4816 13.5936 20.4816 12.9963C20.4816 12.3303 20.3986 11.6483 20.2336 10.9683C20.1366 10.5663 19.7326 10.3183 19.3286 10.4153C18.9256 10.5133 18.6786 10.9183 18.7756 11.3203C18.9126 11.8853 18.9816 12.4493 18.9816 12.9963C18.9816 13.4247 18.9435 13.8503 18.8674 14.2666C18.811 14.2632 18.7542 14.2615 18.697 14.2615C17.151 14.2615 15.894 15.5185 15.894 17.0645Z" fill="black"/>
</svg>