<svg width="24" height="24" viewBox="0 0 24 24" fill="none" xmlns="http://www.w3.org/2000/svg">
<path fill-rule="evenodd" clip-rule="evenodd" d="M8.94657 5.69944C8.94657 4.01359 10.3137 2.64648 11.9995 2.64648C13.6854 2.64648 15.0525 4.01359 15.0525 5.69944C15.0525 7.38528 13.6854 8.75239 11.9995 8.75239C10.3137 8.75239 8.94657 7.38528 8.94657 5.69944ZM11.9995 4.14648C11.1421 4.14648 10.4466 4.84202 10.4466 5.69944C10.4466 6.55686 11.1421 7.25239 11.9995 7.25239C12.8569 7.25239 13.5525 6.55686 13.5525 5.69944C13.5525 4.84202 12.8569 4.14648 11.9995 4.14648ZM2.25 17.1876C2.25 15.5017 3.6171 14.1346 5.30295 14.1346C6.9888 14.1346 8.3559 15.5017 8.3559 17.1876C8.3559 18.8734 6.9888 20.2405 5.30295 20.2405C3.6171 20.2405 2.25 18.8734 2.25 17.1876ZM5.30295 15.6346C4.44553 15.6346 3.75 16.3301 3.75 17.1876C3.75 18.045 4.44553 18.7405 5.30295 18.7405C6.16037 18.7405 6.8559 18.045 6.8559 17.1876C6.8559 16.3301 6.16037 15.6346 5.30295 15.6346ZM15.6441 17.1876C15.6441 15.5017 17.0112 14.1346 18.697 14.1346C20.3829 14.1346 21.75 15.5017 21.75 17.1876C21.75 18.8734 20.3829 20.2405 18.697 20.2405C17.0112 20.2405 15.6441 18.8734 15.6441 17.1876ZM18.697 15.6346C17.8396 15.6346 17.1441 16.3301 17.1441 17.1876C17.1441 18.045 17.8396 18.7405 18.697 18.7405C19.5545 18.7405 20.25 18.045 20.25 17.1876C20.25 16.5541 19.8703 16.009 19.3262 15.7674C19.2632 15.7528 19.2031 15.7303 19.1473 15.7009C19.0048 15.6578 18.8536 15.6346 18.697 15.6346Z" fill="black"/>
<path fill-rule="evenodd" clip-rule="evenodd" d="M17.7114 18.3855C17.9882 18.6937 17.9628 19.1679 17.6546 19.4447C16.6772 20.3226 15.489 20.9718 14.1714 21.3108C13.7703 21.4141 13.3614 21.1725 13.2582 20.7714C13.155 20.3703 13.3965 19.9614 13.7977 19.8582C14.8775 19.5803 15.8511 19.0484 16.6522 18.3288C16.9604 18.052 17.4346 18.0774 17.7114 18.3855Z" fill="black"/>
<path fill-rule="evenodd" clip-rule="evenodd" d="M4.67841 10.5388C5.08102 10.6362 5.32845 11.0415 5.23106 11.4441C5.09872 11.9912 5.02539 12.5498 5.02539 13.1202C5.02539 13.7122 5.09947 14.2955 5.23797 14.8434C5.33949 15.245 5.09624 15.6528 4.69466 15.7543C4.29308 15.8558 3.88524 15.6126 3.78372 15.211C3.61476 14.5427 3.52539 13.8359 3.52539 13.1202C3.52539 12.42 3.61552 11.7429 3.77311 11.0914C3.87049 10.6888 4.27581 10.4414 4.67841 10.5388Z" fill="black"/>
<path fill-rule="evenodd" clip-rule="evenodd" d="M6.30883 18.3758C6.58776 18.0696 7.06212 18.0475 7.36834 18.3264C8.16514 19.0522 9.13433 19.5903 10.2126 19.8761C10.613 19.9822 10.8516 20.3928 10.7454 20.7932C10.6393 21.1936 10.2287 21.4321 9.82833 21.326C8.5132 20.9774 7.33024 20.3207 6.35824 19.4353C6.05202 19.1564 6.0299 18.682 6.30883 18.3758Z" fill="black"/>
<path fill-rule="evenodd" clip-rule="evenodd" d="M10.4133 5.51566C10.5363 5.91117 10.3155 6.33156 9.91994 6.45462C8.70817 6.83165 7.63455 7.53565 6.80528 8.46341C6.52924 8.77224 6.05511 8.79882 5.74628 8.52278C5.43746 8.24674 5.41088 7.77261 5.68692 7.46378C6.69262 6.33864 7.99686 5.48204 9.4743 5.02235C9.86981 4.89928 10.2902 5.12015 10.4133 5.51566Z" fill="black"/>
<path fill-rule="evenodd" clip-rule="evenodd" d="M13.5871 5.51466C13.7107 5.11932 14.1314 4.89904 14.5268 5.02266C15.9927 5.48103 17.2871 6.32867 18.2838 7.43416C18.5611 7.7418 18.5366 8.21604 18.2289 8.4934C17.9213 8.77076 17.447 8.7462 17.1697 8.43855C16.3489 7.52811 15.2829 6.83072 14.0791 6.4543C13.6838 6.33069 13.4635 5.90999 13.5871 5.51466Z" fill="black"/>
<path fill-rule="evenodd" clip-rule="evenodd" d="M19.3284 10.5388C18.9258 10.6362 18.6784 11.0415 18.7758 11.4441C18.9081 11.9912 18.9814 12.5498 18.9814 13.1202C18.9814 13.7122 18.9074 14.2955 18.7689 14.8434C18.6673 15.245 18.9106 15.6528 19.3122 15.7543C19.7138 15.8558 20.1216 15.6126 20.2231 15.211C20.3921 14.5427 20.4814 13.8359 20.4814 13.1202C20.4814 12.42 20.3913 11.7429 20.2337 11.0914C20.1363 10.6888 19.731 10.4414 19.3284 10.5388Z" fill="black"/>
</svg>