<svg width="24" height="24" viewBox="0 0 24 24" fill="none" xmlns="http://www.w3.org/2000/svg">
<path d="M8.50101 4.83822L8.50092 4.81649C8.50092 3.47049 9.59592 2.37549 10.9419 2.37549C12.2879 2.37549 13.3829 3.47049 13.3829 4.81649C13.3829 6.16249 12.2879 7.25749 10.9419 7.25749C10.137 7.25749 9.42176 6.86586 8.97686 6.26312C6.91098 7.10045 5.34107 8.84905 4.74352 11.0033C4.65152 11.3353 4.35052 11.5523 4.02152 11.5523C3.95552 11.5523 3.88752 11.5433 3.82052 11.5253C3.42152 11.4143 3.18752 11.0013 3.29852 10.6013C4.02915 7.96849 5.96164 5.83518 8.50101 4.83822Z" fill="black"/>
<path d="M18.8662 18.5163C17.5192 18.5163 16.4252 17.4213 16.4252 16.0753C16.4252 14.7407 17.5007 13.6529 18.832 13.6345C19.0663 11.3457 18.1768 9.0311 16.4469 7.50069C16.1369 7.22669 16.1089 6.75269 16.3829 6.44269C16.6579 6.13169 17.1319 6.10269 17.4419 6.37769C19.6075 8.29381 20.6838 11.2294 20.2869 14.0916C20.9038 14.535 21.3062 15.259 21.3062 16.0753C21.3062 17.4213 20.2122 18.5163 18.8662 18.5163Z" fill="black"/>
<path d="M5.13585 20.1565C3.78885 20.1565 2.69385 19.0615 2.69385 17.7155C2.69385 16.3695 3.78885 15.2745 5.13585 15.2745C6.48185 15.2745 7.57685 16.3695 7.57685 17.7155C7.57685 18.0629 7.50388 18.3937 7.37247 18.6931C9.06093 19.9509 11.2463 20.4163 13.3068 19.9416C13.7028 19.8486 14.1128 20.0996 14.2058 20.5026C14.2998 20.9066 14.0488 21.3096 13.6448 21.4026C13.0028 21.5516 12.3508 21.6246 11.7018 21.6246C9.79254 21.6246 7.90625 20.9958 6.37418 19.8185C6.01093 20.0332 5.58752 20.1565 5.13585 20.1565Z" fill="black"/>
<path d="M10.1414 15.3455H13.3154C13.8054 15.3455 14.2454 15.0925 14.4914 14.6695C14.7374 14.2455 14.7384 13.7375 14.4964 13.3135L12.9204 10.5445C12.6754 10.1155 12.2354 9.85848 11.7414 9.85748H11.7384C11.2464 9.85748 10.8064 10.1115 10.5604 10.5385L8.96436 13.3065C8.71836 13.7325 8.71736 14.2405 8.96336 14.6665C9.20936 15.0915 9.64936 15.3455 10.1414 15.3455Z" fill="black"/>
</svg>