<svg width="24" height="24" viewBox="0 0 24 24" fill="none" xmlns="http://www.w3.org/2000/svg">
<path d="M12 21C16.9709 21 21 16.9709 21 12C21 7.02908 16.9709 3 12 3C7.02908 3 3 7.02908 3 12C3 16.9709 7.02908 21 12 21Z" stroke="black" stroke-width="1.5" stroke-linecap="round" stroke-linejoin="round"/>
<path d="M11.0693 7.25L8.13089 10.1884C7.08397 11.2353 7.08397 12.9312 8.13089 13.9781C9.17684 15.0241 10.8737 15.0241 11.9196 13.9781L13.7148 12.183" stroke="black" stroke-width="1.5" stroke-linecap="round" stroke-linejoin="round"/>
<path d="M12.9307 16.7548L15.869 13.8164C16.916 12.7695 16.916 11.0736 15.869 10.0266C14.8231 8.9807 13.1262 8.9807 12.0803 10.0266L10.2852 11.8218" stroke="black" stroke-width="1.5" stroke-linecap="round" stroke-linejoin="round"/>
</svg>