<svg width="24" height="24" viewBox="0 0 24 24" fill="none" xmlns="http://www.w3.org/2000/svg">
<path opacity="0.4" fill-rule="evenodd" clip-rule="evenodd" d="M16.216 2.5H7.782C4.622 2.5 2.5 4.723 2.5 8.031V15.97C2.5 19.278 4.622 21.5 7.782 21.5H16.215C19.376 21.5 21.5 19.278 21.5 15.97V8.031C21.5 4.723 19.377 2.5 16.216 2.5Z" fill="black"/>
<path d="M13.4871 17.4118L16.5041 14.3928C17.1661 13.7338 17.5311 12.8538 17.5311 11.9158C17.5311 10.9788 17.1661 10.0988 16.5041 9.43984C15.1401 8.08084 12.9191 8.07984 11.5531 9.44084L9.71007 11.2808C9.41707 11.5728 9.41707 12.0468 9.70907 12.3408C10.0021 12.6338 10.4761 12.6338 10.7701 12.3408L12.6121 10.5018C13.3931 9.72484 14.6651 9.72484 15.4451 10.5018C15.8231 10.8778 16.0311 11.3798 16.0311 11.9158C16.0311 12.4528 15.8231 12.9548 15.4441 13.3308L12.4261 16.3508C12.1331 16.6438 12.1331 17.1188 12.4261 17.4118C12.5731 17.5578 12.7651 17.6308 12.9571 17.6308C13.1491 17.6308 13.3401 17.5578 13.4871 17.4118Z" fill="black"/>
<path d="M7.49507 9.60984C6.13007 10.9688 6.12907 13.1898 7.49507 14.5628C8.17707 15.2428 9.07307 15.5808 9.97007 15.5808C10.8661 15.5808 11.7631 15.2418 12.4471 14.5618L14.2901 12.7208C14.5831 12.4288 14.5831 11.9538 14.2901 11.6608C13.9971 11.3678 13.5221 11.3678 13.2291 11.6608L11.3881 13.4988C10.6061 14.2778 9.33407 14.2778 8.55607 13.5018C7.77507 12.7178 7.77507 11.4488 8.55507 10.6708L11.5731 7.65184C11.8661 7.35884 11.8661 6.88384 11.5731 6.59084C11.2801 6.29784 10.8051 6.29784 10.5121 6.59084L7.49507 9.60984Z" fill="black"/>
</svg>