<svg width="25" height="24" viewBox="0 0 25 24" fill="none" xmlns="http://www.w3.org/2000/svg">
<path d="M13.5989 13.0408L15.0629 14.5012M11.6208 8.00391C13.2268 8.00391 14.5289 9.30571 14.5289 10.9111C14.5289 12.5166 13.2268 13.8174 11.6208 13.8174C10.0158 13.8174 8.71387 12.5166 8.71387 10.9111C8.71387 9.30571 10.0158 8.00391 11.6208 8.00391Z" stroke="black" stroke-width="1.5" stroke-linecap="round" stroke-linejoin="round"/>
<path d="M19.5736 12.6694C19.5736 18.7826 12.25 21 12.25 21C12.25 21 4.92655 18.7836 4.92655 12.6694C4.92655 6.55524 4.65995 6.07751 5.24755 5.48984C5.83625 4.90119 11.2897 3 12.25 3C13.2103 3 18.6629 4.89632 19.2515 5.48984C19.6895 5.93142 19.6536 6.30708 19.6069 9" stroke="black" stroke-width="1.5" stroke-linecap="round" stroke-linejoin="round"/>
</svg>