<?xml version="1.0" encoding="UTF-8"?>
<svg width="24px" height="24px" viewBox="0 0 24 24" version="1.1" xmlns="http://www.w3.org/2000/svg" xmlns:xlink="http://www.w3.org/1999/xlink">
    <title>Iconly/Light-Outline/Shield Fail</title>
    <g id="Iconly/Light-Outline/Shield-Fail" stroke="none" stroke-width="1" fill="none" fill-rule="evenodd">
        <g id="Shield-Fail" transform="translate(4.000000, 2.000000)" fill="#000000">
            <path d="M8.4837,0 C9.6167,0 15.5627,2.041 16.3487,2.828 C17.0047,3.484 16.9947,4.014 16.9487,6.557 C16.9307,7.575 16.9057,8.962 16.9057,10.879 C16.9057,17.761 9.0357,20.223 8.7007,20.324 C8.6297,20.346 8.5567,20.356 8.4837,20.356 C8.4107,20.356 8.3377,20.346 8.2667,20.324 C7.9317,20.223 0.0617,17.761 0.0617,10.879 C0.0617,8.959 0.0367,7.572 0.0187,6.554 C0.0104857143,6.10042857 0.00341938776,5.71095153 0.00108269862,5.37340598 L0.000778125,4.9925 C0.0092625,3.741125 0.12645,3.32 0.6177,2.828 C1.4047,2.041 7.3507,0 8.4837,0 Z M8.4837,1.5 C7.6357,1.5 2.2847,3.384 1.6677,3.899 C1.54935385,4.018 1.50539527,4.19514201 1.49976503,4.89807789 L1.49931066,5.16876667 C1.5005003,5.51181805 1.50746923,5.95334615 1.5177,6.526 C1.5367,7.552 1.5617,8.947 1.5617,10.879 C1.5617,16.08 7.2837,18.389 8.4827,18.814 C9.6807,18.387 15.4057,16.065 15.4057,10.879 C15.4057,8.949 15.4307,7.555 15.4487,6.529 C15.4592,5.95580769 15.4663657,5.51388609 15.4674649,5.1703325 L15.4668577,4.8991807 C15.4605669,4.19482396 15.4138923,4.01519231 15.2877,3.889 C14.6817,3.384 9.3317,1.5 8.4837,1.5 Z M7.1346,7.5372 L8.48377813,8.887 L9.8328,7.5372 C10.1258,7.2442 10.5998,7.2442 10.8928,7.5372 C11.1858,7.8302 11.1858,8.3042 10.8928,8.5972 L9.54377813,9.947 L10.8926,11.2952 C11.1856,11.5882 11.1856,12.0622 10.8926,12.3552 C10.7466,12.5022 10.5546,12.5752 10.3626,12.5752 C10.1706,12.5752 9.9786,12.5022 9.8326,12.3552 L8.48377813,11.007 L7.1348,12.3552 C6.9888,12.5022 6.7968,12.5752 6.6048,12.5752 C6.4128,12.5752 6.2208,12.5022 6.0748,12.3552 C5.7818,12.0622 5.7818,11.5882 6.0748,11.2952 L7.42377813,9.947 L6.0746,8.5972 C5.7816,8.3042 5.7816,7.8302 6.0746,7.5372 C6.3676,7.2442 6.8416,7.2442 7.1346,7.5372 Z" id="Combined-Shape"></path>
        </g>
    </g>
</svg>