<svg width="24" height="24" viewBox="0 0 24 24" fill="none" xmlns="http://www.w3.org/2000/svg">
<path opacity="0.4" fill-rule="evenodd" clip-rule="evenodd" d="M19.3559 5.136C18.6509 4.43 13.0239 2.5 11.9999 2.5C10.9759 2.5 5.34886 4.43 4.64386 5.137C4.08286 5.699 4.09086 6.132 4.13486 8.535C4.15186 9.508 4.17686 10.834 4.17686 12.669C4.17686 19.077 11.7779 21.455 11.8549 21.478C11.9019 21.493 11.9509 21.5 11.9999 21.5C12.0489 21.5 12.0979 21.493 12.1459 21.478C12.2219 21.455 19.8239 19.077 19.8239 12.669C19.8239 10.838 19.8479 9.514 19.8649 8.541C19.9089 6.133 19.9169 5.7 19.3559 5.136Z" fill="black"/>
<path d="M15.417 11.2574C15.636 11.2574 15.854 11.1624 16.002 10.9774C16.261 10.6544 16.209 10.1824 15.887 9.92241C13.634 8.11541 10.364 8.11341 8.10896 9.92241C7.78696 10.1814 7.73496 10.6544 7.99396 10.9774C8.25396 11.3014 8.72696 11.3524 9.04896 11.0924C10.758 9.72041 13.24 9.72241 14.947 11.0924C15.086 11.2044 15.252 11.2574 15.417 11.2574Z" fill="black"/>
<path d="M13.259 13.1904C13.574 13.4564 14.047 13.4194 14.315 13.1024C14.583 12.7874 14.544 12.3134 14.228 12.0454C12.934 10.9504 11.061 10.9524 9.77396 12.0464C9.45896 12.3164 9.42096 12.7894 9.68996 13.1044C9.83796 13.2784 10.049 13.3684 10.261 13.3684C10.433 13.3684 10.606 13.3094 10.747 13.1894C11.46 12.5814 12.54 12.5814 13.259 13.1904Z" fill="black"/>
<path d="M11.999 15.4684C12.413 15.4684 12.749 15.1324 12.749 14.7184V14.6774C12.749 14.2634 12.413 13.9484 11.999 13.9484C11.585 13.9484 11.249 14.3044 11.249 14.7184C11.249 15.1324 11.585 15.4684 11.999 15.4684Z" fill="black"/>
</svg>