<svg width="25" height="25" viewBox="0 0 25 25" fill="none" xmlns="http://www.w3.org/2000/svg">
<path d="M10.7618 14.5169C10.9028 14.6579 11.0938 14.7369 11.2928 14.7369C11.4918 14.7369 11.6828 14.6579 11.8228 14.5169L15.7208 10.6179C16.0138 10.3249 16.0138 9.84991 15.7208 9.55691C15.4278 9.26391 14.9538 9.26391 14.6608 9.55691L11.2928 12.9249L9.93175 11.5619C9.63875 11.2689 9.16275 11.2689 8.87075 11.5619C8.57775 11.8539 8.57775 12.3299 8.86975 12.6229L10.7618 14.5169Z" fill="black"/>
<path fill-rule="evenodd" clip-rule="evenodd" d="M3.57802 13.0965C3.57802 19.7935 9.06302 22.5735 12 22.5735C14.937 22.5735 20.422 19.7935 20.422 13.0965C20.422 11.2026 20.4464 9.8259 20.4643 8.81163L20.4651 8.76685C20.511 6.22986 20.5206 5.70011 19.866 5.04551C19.034 4.21351 15.59 2.21851 12 2.21851C8.40902 2.21851 4.96602 4.21351 4.13602 5.04551C3.47941 5.70011 3.489 6.23087 3.53493 8.77192L3.53572 8.81606C3.55366 9.82939 3.57802 11.2052 3.57802 13.0965ZM5.19702 6.10651C5.68202 5.61951 8.73402 3.71851 12 3.71851C15.266 3.71851 18.319 5.61951 18.805 6.10651C18.997 6.29851 19.004 6.61651 18.966 8.74351C18.947 9.76951 18.922 11.1645 18.922 13.0965C18.922 19.1835 13.848 21.0735 12 21.0735C10.152 21.0735 5.07802 19.1835 5.07802 13.0965C5.07802 11.1961 5.05373 9.81361 5.03579 8.79282L5.03502 8.74851C4.99602 6.61751 5.00302 6.29851 5.19702 6.10651Z" fill="black"/>
</svg>