<svg width="25" height="25" viewBox="0 0 25 25" fill="none" xmlns="http://www.w3.org/2000/svg">
<path fill-rule="evenodd" clip-rule="evenodd" d="M4.25586 18.5627C4.25586 19.6487 5.13684 20.5287 6.22284 20.5287C7.30784 20.5287 8.18884 19.6487 8.18884 18.5627C8.18884 17.4767 7.30784 16.5957 6.22284 16.5957C5.13684 16.5957 4.25586 17.4767 4.25586 18.5627Z" stroke="black" stroke-width="1.5" stroke-linecap="round" stroke-linejoin="round"/>
<path fill-rule="evenodd" clip-rule="evenodd" d="M16.8965 5.92206C16.8965 7.00806 17.7765 7.88806 18.8625 7.88806C19.9485 7.88806 20.8295 7.00806 20.8295 5.92206C20.8295 4.83606 19.9485 3.95508 18.8625 3.95508C17.7765 3.95508 16.8965 4.83606 16.8965 5.92206Z" stroke="black" stroke-width="1.5" stroke-linecap="round" stroke-linejoin="round"/>
<path fill-rule="evenodd" clip-rule="evenodd" d="M12.5004 15.5998C12.5004 15.5998 15.1994 14.7828 15.1994 12.5308C15.1994 10.2768 15.2974 10.1028 15.0804 9.88382C14.8634 9.66582 12.8544 8.9668 12.5004 8.9668C12.1464 8.9668 10.1374 9.66782 9.92038 9.88382C9.70338 10.1008 9.80136 10.2768 9.80136 12.5308C9.80136 14.7838 12.5004 15.5998 12.5004 15.5998Z" stroke="black" stroke-width="1.5" stroke-linecap="round" stroke-linejoin="round"/>
<path opacity="0.4" d="M3.5 12.2712C3.509 7.29821 7.53197 3.2832 12.504 3.2832C14.283 3.2832 15.941 3.80219 17.33 4.69119" stroke="black" stroke-width="1.5" stroke-linecap="round" stroke-linejoin="round"/>
<path opacity="0.4" d="M21.4998 12.2793C21.4998 17.2523 17.4767 21.2833 12.5037 21.2833C10.7257 21.2833 9.06773 20.7653 7.67773 19.8763" stroke="black" stroke-width="1.5" stroke-linecap="round" stroke-linejoin="round"/>
</svg>