<svg width="25" height="25" viewBox="0 0 25 25" fill="none" xmlns="http://www.w3.org/2000/svg">
<path fill-rule="evenodd" clip-rule="evenodd" d="M9.41085 18.0722C8.86934 18.496 8.61428 19.0373 8.54957 19.5385C8.49653 19.9493 8.12051 20.2393 7.70971 20.1863C7.29891 20.1332 7.00888 19.7572 7.06192 19.3464C7.17421 18.4767 7.61715 17.5712 8.48638 16.8909C9.35386 16.212 10.591 15.7988 12.2297 15.7988C13.8839 15.7988 15.1287 16.2137 15.9987 16.8987C16.8712 17.5857 17.3084 18.4999 17.4152 19.377C17.4653 19.7882 17.1726 20.1621 16.7614 20.2122C16.3502 20.2623 15.9763 19.9696 15.9262 19.5584C15.8641 19.048 15.6113 18.5028 15.0708 18.0772C14.5278 17.6497 13.6366 17.2988 12.2297 17.2988C10.8405 17.2988 9.95411 17.647 9.41085 18.0722Z" fill="black"/>
<path fill-rule="evenodd" clip-rule="evenodd" d="M12.2328 9.36133C11.0739 9.36133 10.1338 10.3012 10.1338 11.4601C10.1338 12.6191 11.0739 13.559 12.2328 13.559C13.3917 13.559 14.3318 12.6191 14.3318 11.4601C14.3318 10.3012 13.3917 9.36133 12.2328 9.36133ZM8.63379 11.4601C8.63379 9.47257 10.2457 7.86133 12.2328 7.86133C14.2199 7.86133 15.8318 9.47257 15.8318 11.4601C15.8318 13.4477 14.2199 15.059 12.2328 15.059C10.2457 15.059 8.63379 13.4477 8.63379 11.4601Z" fill="black"/>
<path d="M12.2498 22.709C12.1762 22.7094 12.1031 22.6986 12.0328 22.677C11.7118 22.577 4.17676 20.224 4.17676 13.629C4.17676 11.794 4.15176 10.468 4.13476 9.49598C4.09076 7.06198 4.08077 6.55498 4.71777 5.91898C5.47277 5.16498 11.1658 3.20898 12.2498 3.20898C13.3948 3.20898 19.0148 5.14598 19.7838 5.92098C20.4188 6.56098 20.4087 7.06698 20.3647 9.50298C20.3477 10.475 20.3237 11.803 20.3237 13.629C20.3237 20.223 12.7878 22.58 12.4678 22.677C12.3971 22.6984 12.3236 22.7092 12.2498 22.709ZM12.2498 4.70898C10.0079 5.21941 7.83199 5.98542 5.76477 6.99198C5.60477 7.15198 5.59876 7.48398 5.63476 9.46798C5.65176 10.447 5.67676 11.782 5.67676 13.629C5.67676 18.541 11.0868 20.75 12.2498 21.167C13.4128 20.75 18.8237 18.541 18.8237 13.629C18.8237 11.786 18.8488 10.454 18.8658 9.47698C18.9008 7.48598 18.8947 7.15398 18.7197 6.97698C16.6564 5.97723 14.4857 5.2163 12.2498 4.70898Z" fill="black"/>
</svg>