<svg width="25" height="25" viewBox="0 0 25 25" fill="none" xmlns="http://www.w3.org/2000/svg">
<path fill-rule="evenodd" clip-rule="evenodd" d="M15.8263 10.2255C16.1192 10.5183 16.1193 10.9932 15.8264 11.2861L12.1048 15.0087C11.9641 15.1495 11.7732 15.2285 11.5742 15.2285C11.3751 15.2284 11.1843 15.1492 11.0437 15.0084L9.23781 13.1997C8.94514 12.9065 8.94552 12.4317 9.23864 12.139C9.53177 11.8464 10.0066 11.8467 10.2993 12.1398L11.5748 13.4173L14.7656 10.2256C15.0585 9.93267 15.5333 9.9326 15.8263 10.2255Z" fill="black"/>
<path d="M12.2498 22.709C12.1762 22.7094 12.1031 22.6986 12.0328 22.677C11.7118 22.577 4.17676 20.224 4.17676 13.629C4.17676 11.794 4.15176 10.468 4.13476 9.49598C4.09076 7.06198 4.08077 6.55498 4.71777 5.91898C5.47277 5.16498 11.1658 3.20898 12.2498 3.20898C13.3948 3.20898 19.0148 5.14598 19.7838 5.92098C20.4188 6.56098 20.4087 7.06698 20.3647 9.50298C20.3477 10.475 20.3237 11.803 20.3237 13.629C20.3237 20.223 12.7878 22.58 12.4678 22.677C12.3971 22.6984 12.3236 22.7092 12.2498 22.709ZM12.2498 4.70898C10.0079 5.21941 7.83199 5.98542 5.76477 6.99198C5.60477 7.15198 5.59876 7.48398 5.63476 9.46798C5.65176 10.447 5.67676 11.782 5.67676 13.629C5.67676 18.541 11.0868 20.75 12.2498 21.167C13.4128 20.75 18.8237 18.541 18.8237 13.629C18.8237 11.786 18.8488 10.454 18.8658 9.47698C18.9008 7.48598 18.8947 7.15398 18.7197 6.97698C16.6564 5.97723 14.4857 5.2163 12.2498 4.70898Z" fill="black"/>
</svg>