<svg width="25" height="25" viewBox="0 0 25 25" fill="none" xmlns="http://www.w3.org/2000/svg">
<path opacity="0.4" d="M19.8237 13.6089C19.8237 19.7221 12.4997 21.9395 12.4997 21.9395C12.4997 21.9395 5.1767 19.7231 5.1767 13.6089C5.1767 7.49469 4.90968 7.01696 5.49768 6.42929C6.08668 5.84064 11.5397 3.93945 12.4997 3.93945C13.4607 3.93945 18.9127 5.83577 19.5017 6.42929C20.0897 7.02183 19.8237 7.49567 19.8237 13.6089Z" stroke="black" stroke-width="1.5" stroke-linecap="round" stroke-linejoin="round"/>
<path d="M12.4433 13.5798L12.4444 15.767L12.4433 13.5798ZM13.6903 10.7196C14.3453 11.3744 14.3453 12.435 13.6903 13.0898C13.0353 13.7446 11.9744 13.7446 11.3204 13.0898C10.6654 12.435 10.6654 11.3744 11.3204 10.7196C11.9744 10.0648 13.0353 10.0648 13.6903 10.7196Z" stroke="black" stroke-width="1.5" stroke-linecap="round" stroke-linejoin="round"/>
</svg>