<svg width="24" height="24" viewBox="0 0 24 24" fill="none" xmlns="http://www.w3.org/2000/svg">
<path opacity="0.4" fill-rule="evenodd" clip-rule="evenodd" d="M19.3561 5.137C18.6521 4.431 13.0251 2.5 12.0001 2.5C10.9761 2.5 5.34911 4.431 4.64411 5.138C4.08311 5.7 4.09111 6.133 4.13511 8.536C4.15311 9.509 4.17711 10.835 4.17711 12.67C4.17711 19.078 11.7791 21.455 11.8551 21.479C11.9031 21.494 11.9511 21.5 12.0001 21.5C12.0491 21.5 12.0981 21.494 12.1461 21.479C12.2221 21.455 19.8241 19.078 19.8241 12.67C19.8241 10.839 19.8481 9.515 19.8651 8.542C19.9091 6.134 19.9171 5.701 19.3561 5.137Z" fill="black"/>
<path fill-rule="evenodd" clip-rule="evenodd" d="M13.7191 12.6813C13.4301 12.9723 13.0781 13.1813 12.6941 13.2953L12.6951 14.8283C12.6951 15.2433 12.3591 15.5783 11.9451 15.5783C11.5311 15.5783 11.1951 15.2433 11.1951 14.8283L11.1941 13.2553C10.8571 13.1353 10.5471 12.9393 10.2871 12.6763C9.8321 12.2253 9.5791 11.6163 9.5791 10.9673C9.5791 10.3213 9.8311 9.71135 10.2881 9.25034C11.2341 8.30834 12.7721 8.30735 13.7191 9.24635L13.7231 9.25034C14.6661 10.2023 14.6641 11.7413 13.7191 12.6813ZM11.079 10.9678C11.079 10.7198 11.176 10.4858 11.349 10.3118C11.708 9.95479 12.295 9.9508 12.661 10.3098C13.02 10.6748 13.021 11.2608 12.659 11.6218C12.489 11.7918 12.265 11.8888 12.028 11.8948C12 11.8918 11.972 11.8898 11.944 11.8898C11.934 11.8898 11.924 11.8898 11.915 11.8908C11.703 11.8698 11.506 11.7758 11.349 11.6178C11.175 11.4448 11.079 11.2138 11.079 10.9678Z" fill="black"/>
</svg>