<svg width="25" height="25" viewBox="0 0 25 25" fill="none" xmlns="http://www.w3.org/2000/svg">
<path fill-rule="evenodd" clip-rule="evenodd" d="M12.2498 3.20898C12.664 3.20898 12.9998 3.54477 12.9998 3.95898V10.8113H19.5749C19.9891 10.8113 20.3249 11.1471 20.3249 11.5613C20.3249 11.9755 19.9891 12.3113 19.5749 12.3113H12.9998V21.959C12.9998 22.3732 12.664 22.709 12.2498 22.709C11.8356 22.709 11.4998 22.3732 11.4998 21.959V12.3113H4.9248C4.51059 12.3113 4.1748 11.9755 4.1748 11.5613C4.1748 11.1471 4.51059 10.8113 4.9248 10.8113H11.4998V3.95898C11.4998 3.54477 11.8356 3.20898 12.2498 3.20898Z" fill="black"/>
<path d="M12.2498 22.709C12.1762 22.7094 12.1031 22.6986 12.0328 22.677C11.7118 22.577 4.17676 20.224 4.17676 13.629C4.17676 11.794 4.15176 10.468 4.13476 9.49598C4.09076 7.06198 4.08077 6.55498 4.71777 5.91898C5.47277 5.16498 11.1658 3.20898 12.2498 3.20898C13.3948 3.20898 19.0148 5.14598 19.7838 5.92098C20.4188 6.56098 20.4087 7.06698 20.3647 9.50298C20.3477 10.475 20.3237 11.803 20.3237 13.629C20.3237 20.223 12.7878 22.58 12.4678 22.677C12.3971 22.6984 12.3236 22.7092 12.2498 22.709ZM12.2498 4.70898C10.0079 5.21941 7.83199 5.98542 5.76477 6.99198C5.60477 7.15198 5.59876 7.48398 5.63476 9.46798C5.65176 10.447 5.67676 11.782 5.67676 13.629C5.67676 18.541 11.0868 20.75 12.2498 21.167C13.4128 20.75 18.8237 18.541 18.8237 13.629C18.8237 11.786 18.8488 10.454 18.8658 9.47698C18.9008 7.48598 18.8947 7.15398 18.7197 6.97698C16.6564 5.97723 14.4857 5.2163 12.2498 4.70898Z" fill="black"/>
</svg>