<svg width="24" height="24" viewBox="0 0 24 24" fill="none" xmlns="http://www.w3.org/2000/svg">
<path opacity="0.4" fill-rule="evenodd" clip-rule="evenodd" d="M19.3549 5.137C18.6519 4.431 13.0249 2.5 11.9999 2.5C10.9749 2.5 5.34788 4.431 4.64288 5.137C4.08288 5.699 4.09088 6.133 4.13488 8.534C4.15288 9.508 4.17688 10.834 4.17688 12.67C4.17688 19.077 11.7779 21.455 11.8549 21.478C11.9019 21.493 11.9509 21.5 11.9999 21.5C12.0489 21.5 12.0969 21.493 12.1449 21.478C12.2209 21.455 19.8239 19.077 19.8239 12.67C19.8239 10.841 19.8479 9.517 19.8659 8.545C19.9089 6.134 19.9169 5.7 19.3549 5.137Z" fill="black"/>
<path d="M14.5436 13.5702C14.5436 13.3792 14.4696 13.1862 14.3236 13.0402L13.0596 11.7752L14.3236 10.5112C14.6166 10.2182 14.6166 9.74322 14.3236 9.45022C14.0306 9.15722 13.5546 9.15722 13.2626 9.45022L11.9996 10.7152L10.7356 9.45022C10.4426 9.15722 9.96857 9.15722 9.67557 9.45022C9.52857 9.59722 9.45557 9.78822 9.45557 9.98022C9.45557 10.1722 9.52857 10.3642 9.67557 10.5112L10.9386 11.7752L9.67557 13.0402C9.38257 13.3332 9.38257 13.8082 9.67557 14.1012C9.96857 14.3942 10.4436 14.3942 10.7356 14.1012L11.9996 12.8362L13.2626 14.1012C13.4096 14.2472 13.6016 14.3202 13.7936 14.3202C13.9856 14.3202 14.1776 14.2472 14.3236 14.1012C14.4696 13.9542 14.5436 13.7632 14.5436 13.5702Z" fill="black"/>
</svg>