<svg width="25" height="25" viewBox="0 0 25 25" fill="none" xmlns="http://www.w3.org/2000/svg">
<path opacity="0.4" d="M19.8236 13.6284C19.8236 19.7416 12.4996 21.959 12.4996 21.959C12.4996 21.959 5.17659 19.7426 5.17659 13.6284C5.17659 7.51419 4.90958 7.03648 5.49858 6.44878C6.08558 5.86018 11.5396 3.95898 12.4996 3.95898C13.4606 3.95898 18.9126 5.85528 19.5016 6.44878C20.0896 7.04138 19.8236 7.51519 19.8236 13.6284Z" stroke="black" stroke-width="1.5" stroke-linecap="round" stroke-linejoin="round"/>
<path fill-rule="evenodd" clip-rule="evenodd" d="M13.8664 15.3505H11.1334C10.3844 15.3505 9.77637 14.7434 9.77637 13.9942V12.4598C9.77637 11.7106 10.3844 11.1035 11.1334 11.1035H13.8664C14.6154 11.1035 15.2224 11.7106 15.2224 12.4598V13.9942C15.2224 14.7434 14.6154 15.3505 13.8664 15.3505Z" stroke="black" stroke-width="1.5" stroke-linecap="round" stroke-linejoin="round"/>
<path d="M14.1312 11.1302V10.1562C14.1192 9.25524 13.3802 8.53434 12.4792 8.54504C11.5962 8.55574 10.8832 9.26694 10.8682 10.1494V11.1302" stroke="black" stroke-width="1.5" stroke-linecap="round" stroke-linejoin="round"/>
</svg>