<svg width="25" height="25" viewBox="0 0 25 25" fill="none" xmlns="http://www.w3.org/2000/svg">
<path fill-rule="evenodd" clip-rule="evenodd" d="M13.678 8.50012C14.0889 8.08923 14.755 8.08936 15.1658 8.50012C15.577 8.91139 15.5768 9.5768 15.1658 9.98787C14.7548 10.3989 14.0894 10.3991 13.6781 9.9878C13.2683 9.57805 13.2674 8.91288 13.6758 8.50228L13.678 8.50012ZM16.2264 7.43946C15.23 6.44307 13.6142 6.44263 12.6173 7.43946L12.6135 7.44328C11.6204 8.44042 11.623 10.054 12.6174 11.0485C13.6147 12.0457 15.2298 12.0451 16.2264 11.0485C17.223 10.0519 17.2237 8.43674 16.2264 7.43946Z" fill="black"/>
<path fill-rule="evenodd" clip-rule="evenodd" d="M13.6749 9.99458C13.382 9.70169 12.9071 9.70169 12.6142 9.99458L8.26747 14.3413C7.97458 14.6342 7.97458 15.1091 8.26747 15.402L9.54168 16.6762C9.83457 16.9691 10.3094 16.9691 10.6023 16.6762C10.8952 16.3833 10.8952 15.9084 10.6023 15.6155L9.85846 14.8716L13.6749 11.0552C13.9678 10.7623 13.9678 10.2875 13.6749 9.99458Z" fill="black"/>
<path fill-rule="evenodd" clip-rule="evenodd" d="M10.2119 12.3967C9.91896 12.6896 9.91896 13.1645 10.2119 13.4574L11.4861 14.7316C11.779 15.0245 12.2538 15.0245 12.5467 14.7316C12.8396 14.4387 12.8396 13.9638 12.5467 13.6709L11.2725 12.3967C10.9796 12.1038 10.5048 12.1038 10.2119 12.3967Z" fill="black"/>
<path d="M12.25 22.0366C12.1765 22.037 12.1033 22.0262 12.033 22.0046C11.712 21.9046 4.177 19.5516 4.177 12.9566C4.177 11.1216 4.15201 9.79562 4.13501 8.82362C4.09101 6.38962 4.08102 5.88262 4.71802 5.24662C5.47302 4.49262 11.166 2.53662 12.25 2.53662C13.395 2.53662 19.015 4.47362 19.784 5.24862C20.419 5.88862 20.409 6.39462 20.365 8.83062C20.348 9.80262 20.324 11.1306 20.324 12.9566C20.324 19.5506 12.788 21.9076 12.468 22.0046C12.3973 22.0261 12.3239 22.0368 12.25 22.0366ZM12.25 4.03662C10.0081 4.54704 7.83223 5.31305 5.76501 6.31962C5.60501 6.47962 5.59901 6.81162 5.63501 8.79562C5.65201 9.77462 5.677 11.1096 5.677 12.9566C5.677 17.8686 11.087 20.0776 12.25 20.4946C13.413 20.0776 18.824 17.8686 18.824 12.9566C18.824 11.1136 18.849 9.78162 18.866 8.80462C18.901 6.81362 18.895 6.48162 18.72 6.30462C16.6566 5.30486 14.4859 4.54394 12.25 4.03662Z" fill="black"/>
</svg>