<svg width="25" height="25" viewBox="0 0 25 25" fill="none" xmlns="http://www.w3.org/2000/svg">
<path fill-rule="evenodd" clip-rule="evenodd" d="M15.9707 10.8255L12.0727 14.7245C11.9317 14.8655 11.7417 14.9445 11.5427 14.9445C11.3437 14.9445 11.1527 14.8655 11.0117 14.7245L9.11969 12.8305C8.82669 12.5375 8.82669 12.0615 9.12069 11.7695C9.41269 11.4765 9.88769 11.4765 10.1807 11.7695L11.5427 13.1335L14.9097 9.76451C15.2027 9.47151 15.6777 9.47151 15.9707 9.76451C16.2637 10.0575 16.2637 10.5325 15.9707 10.8255ZM19.9377 5.42951C19.3317 4.82251 16.0037 2.67651 12.2497 2.67651C8.49369 2.67651 5.16769 4.82251 4.56169 5.42951C3.98069 6.01151 3.98969 6.46451 4.03369 8.97851C4.05269 9.99851 4.07769 11.3865 4.07769 13.3045C4.07769 19.8245 9.39969 22.5315 12.2497 22.5315C15.0987 22.5315 20.4217 19.8245 20.4217 13.3045C20.4217 11.3855 20.4467 9.99651 20.4657 8.97751C20.5107 6.46351 20.5187 6.01151 19.9377 5.42951Z" fill="black"/>
</svg>