<svg width="25" height="25" viewBox="0 0 25 25" fill="none" xmlns="http://www.w3.org/2000/svg">
<path opacity="0.4" fill-rule="evenodd" clip-rule="evenodd" d="M19.9381 5.43003C19.3311 4.82303 16.0041 2.67603 12.2501 2.67603C8.49709 2.67603 5.16909 4.82303 4.56209 5.43003C3.98109 6.01103 3.98909 6.46403 4.03409 8.97903C4.05309 9.99803 4.07709 11.386 4.07709 13.304C4.07709 19.824 9.40109 22.532 12.2501 22.532C15.1001 22.532 20.4231 19.824 20.4231 13.304C20.4231 11.387 20.4481 9.99903 20.4661 8.98103C20.5111 6.46403 20.5191 6.01103 19.9381 5.43003Z" fill="black"/>
<path d="M14.6599 14.7812C14.9529 14.4882 14.9529 14.0132 14.6599 13.7202L13.3109 12.3712L14.6599 11.0232C14.9529 10.7302 14.9529 10.2552 14.6599 9.96218C14.3669 9.66918 13.8919 9.66918 13.5989 9.96218L12.2499 11.3112L10.9009 9.96218C10.6079 9.66918 10.1329 9.66918 9.83987 9.96218C9.54687 10.2552 9.54687 10.7302 9.83987 11.0232L11.1889 12.3712L9.83987 13.7202C9.54687 14.0132 9.54687 14.4882 9.83987 14.7812C9.98687 14.9272 10.1789 15.0002 10.3699 15.0002C10.5619 15.0002 10.7539 14.9272 10.9009 14.7812L12.2499 13.4322L13.5989 14.7812C13.7459 14.9272 13.9379 15.0002 14.1299 15.0002C14.3219 15.0002 14.5139 14.9272 14.6599 14.7812Z" fill="black"/>
</svg>