<svg width="25" height="25" viewBox="0 0 25 25" fill="none" xmlns="http://www.w3.org/2000/svg">
<path fill-rule="evenodd" clip-rule="evenodd" d="M11.6208 9.71289C10.4301 9.71289 9.46387 10.6789 9.46387 11.8701C9.46387 13.0611 10.4297 14.0264 11.6208 14.0264C12.1787 14.0264 12.6869 13.8151 13.0698 13.4682C13.0825 13.4556 13.0954 13.4436 13.1087 13.4321C13.5216 13.0393 13.7789 12.4847 13.7789 11.8701C13.7789 10.6791 12.8128 9.71289 11.6208 9.71289ZM7.96387 11.8701C7.96387 9.85049 9.60163 8.21289 11.6208 8.21289C13.6409 8.21289 15.2789 9.85031 15.2789 11.8701C15.2789 12.6479 15.036 13.3687 14.6221 13.9612L15.5925 14.9292C15.8858 15.2217 15.8864 15.6966 15.5938 15.9899C15.3013 16.2831 14.8264 16.2837 14.5332 15.9912L13.5295 14.9899C12.9738 15.3302 12.3202 15.5264 11.6208 15.5264C9.60195 15.5264 7.96387 13.8901 7.96387 11.8701Z" fill="black"/>
<path d="M12.2498 22.709C12.1762 22.7094 12.1031 22.6986 12.0328 22.677C11.7118 22.577 4.17676 20.224 4.17676 13.629C4.17676 11.794 4.15176 10.468 4.13476 9.49598C4.09076 7.06198 4.08077 6.55498 4.71777 5.91898C5.47277 5.16498 11.1658 3.20898 12.2498 3.20898C13.3948 3.20898 19.0148 5.14598 19.7838 5.92098C20.4188 6.56098 20.4087 7.06698 20.3647 9.50298C20.3477 10.475 20.3237 11.803 20.3237 13.629C20.3237 20.223 12.7878 22.58 12.4678 22.677C12.3971 22.6984 12.3236 22.7092 12.2498 22.709ZM12.2498 4.70898C10.0079 5.21941 7.83199 5.98542 5.76477 6.99198C5.60477 7.15198 5.59876 7.48398 5.63476 9.46798C5.65176 10.447 5.67676 11.782 5.67676 13.629C5.67676 18.541 11.0868 20.75 12.2498 21.167C13.4128 20.75 18.8237 18.541 18.8237 13.629C18.8237 11.786 18.8488 10.454 18.8658 9.47698C18.9008 7.48598 18.8947 7.15398 18.7197 6.97698C16.6564 5.97723 14.4857 5.2163 12.2498 4.70898Z" fill="black"/>
</svg>