<svg width="24" height="25" viewBox="0 0 24 25" fill="none" xmlns="http://www.w3.org/2000/svg">
<path d="M19.3236 13.6284C19.3236 19.7416 11.9996 21.959 11.9996 21.959C11.9996 21.959 4.67659 19.7426 4.67659 13.6284C4.67659 7.51419 4.40958 7.03648 4.99858 6.44878C5.58558 5.86018 11.0396 3.95898 11.9996 3.95898C12.9606 3.95898 18.4126 5.85528 19.0016 6.44878C19.5896 7.04138 19.3236 7.51519 19.3236 13.6284Z" stroke="black" stroke-width="1.5" stroke-linecap="round" stroke-linejoin="round"/>
<path fill-rule="evenodd" clip-rule="evenodd" d="M13.3664 15.3505H10.6334C9.88436 15.3505 9.27637 14.7434 9.27637 13.9942V12.4598C9.27637 11.7106 9.88436 11.1035 10.6334 11.1035H13.3664C14.1154 11.1035 14.7224 11.7106 14.7224 12.4598V13.9942C14.7224 14.7434 14.1154 15.3505 13.3664 15.3505Z" stroke="black" stroke-width="1.5" stroke-linecap="round" stroke-linejoin="round"/>
<path d="M13.6312 11.1302V10.1562C13.6192 9.25524 12.8802 8.53434 11.9792 8.54504C11.0962 8.55574 10.3832 9.26694 10.3682 10.1494V11.1302" stroke="black" stroke-width="1.5" stroke-linecap="round" stroke-linejoin="round"/>
</svg>