<svg width="24" height="24" viewBox="0 0 24 24" fill="none" xmlns="http://www.w3.org/2000/svg">
<path opacity="0.4" fill-rule="evenodd" clip-rule="evenodd" d="M19.8701 8.54C19.8601 8.9 19.8501 9.31 19.8501 9.78C19.8401 10.22 19.8301 10.71 19.8301 11.26C19.8201 11.69 19.8201 12.16 19.8201 12.67C19.8201 18 14.5601 20.54 12.7501 21.26C12.3801 21.41 12.1601 21.48 12.1501 21.48C12.1001 21.49 12.0501 21.5 12.0001 21.5C11.9501 21.5 11.9001 21.49 11.8501 21.48C11.8401 21.48 11.6201 21.41 11.2501 21.26C9.44007 20.54 4.18007 18 4.18007 12.67C4.18007 12.16 4.18007 11.69 4.17007 11.26C4.17007 10.71 4.16007 10.22 4.15007 9.79V9.78C4.15007 9.31 4.14007 8.9 4.13007 8.53C4.09007 6.13 4.08007 5.7 4.64007 5.13C5.24007 4.54 9.39007 3.05 11.2501 2.62C11.5801 2.54 11.8401 2.5 12.0001 2.5C12.1501 2.5 12.4101 2.54 12.7501 2.62C14.6101 3.06 18.7601 4.54 19.3601 5.13C19.9201 5.7 19.9101 6.13 19.8701 8.54Z" fill="black"/>
<path fill-rule="evenodd" clip-rule="evenodd" d="M19.8499 9.78C19.8399 10.22 19.8299 10.71 19.8299 11.26C19.7999 11.27 19.7699 11.27 19.7399 11.27H12.7499V21.26C12.3799 21.41 12.1599 21.48 12.1499 21.48C12.0999 21.49 12.0499 21.5 11.9999 21.5C11.9499 21.5 11.8999 21.49 11.8499 21.48C11.8399 21.48 11.6199 21.41 11.2499 21.26V11.27H4.2599C4.2299 11.27 4.1999 11.27 4.1699 11.26C4.1699 10.71 4.1599 10.22 4.1499 9.79V9.78C4.1899 9.77 4.2199 9.77 4.2599 9.77H11.2499V2.62C11.5799 2.54 11.8399 2.5 11.9999 2.5C12.1499 2.5 12.4099 2.54 12.7499 2.62V9.77H19.7399C19.7799 9.77 19.8099 9.77 19.8499 9.78Z" fill="black"/>
</svg>