<svg width="24" height="24" viewBox="0 0 24 24" fill="none" xmlns="http://www.w3.org/2000/svg">
<path fill-rule="evenodd" clip-rule="evenodd" d="M14.4397 11.629L12.6477 14.919C12.5117 15.169 12.2537 15.311 11.9887 15.311C11.8667 15.311 11.7447 15.281 11.6297 15.219C11.2667 15.022 11.1317 14.566 11.3307 14.202L12.5187 12.021H10.2177C9.95374 12.021 9.70874 11.881 9.57274 11.654C9.43774 11.427 9.43274 11.146 9.55874 10.913L11.3487 7.613C11.5457 7.248 12.0027 7.115 12.3647 7.312C12.7297 7.509 12.8647 7.964 12.6667 8.328L11.4777 10.521H13.7807C14.0457 10.521 14.2907 10.66 14.4257 10.888C14.5607 11.115 14.5657 11.397 14.4397 11.629ZM19.3557 5.137C18.6507 4.431 13.0247 2.5 11.9997 2.5C10.9747 2.5 5.34874 4.431 4.64374 5.138C4.08374 5.699 4.09074 6.133 4.13474 8.535C4.15274 9.509 4.17674 10.835 4.17674 12.67C4.17674 19.077 11.7777 21.455 11.8547 21.479C11.9017 21.493 11.9507 21.5 11.9997 21.5C12.0487 21.5 12.0977 21.493 12.1447 21.479C12.2217 21.455 19.8237 19.077 19.8237 12.67C19.8237 10.839 19.8477 9.515 19.8657 8.542C19.9087 6.134 19.9167 5.7 19.3557 5.137Z" fill="black"/>
</svg>