<svg width="25" height="24" viewBox="0 0 25 24" fill="none" xmlns="http://www.w3.org/2000/svg">
<path opacity="0.4" d="M8.34524 7.94796L7.38184 6.76061M12.0666 4.52894L12.0916 3M15.7484 7.88981L16.8381 6.81803" stroke="black" stroke-width="1.5" stroke-linecap="round" stroke-linejoin="round"/>
<path opacity="0.4" d="M8.34524 16.052L7.38184 17.2394M12.0666 19.4711L12.0916 21M15.7484 16.1102L16.8381 17.182" stroke="black" stroke-width="1.5" stroke-linecap="round" stroke-linejoin="round"/>
<path opacity="0.4" d="M12.1099 7.46704C12.7396 9.5361 14.3588 11.1554 16.4277 11.7851C14.3588 12.4149 12.7396 14.0341 12.1099 16.1032C11.4801 14.0341 9.86095 12.4149 7.79199 11.7851C9.86095 11.1554 11.4801 9.5361 12.1099 7.46704Z" stroke="black" stroke-width="1.5" stroke-linecap="round" stroke-linejoin="round"/>
<path d="M18.7663 9.44751C19.1072 10.5676 19.9837 11.4442 21.1038 11.7852C19.9837 12.1261 19.1072 13.0027 18.7663 14.1228C18.4253 13.0027 17.5488 12.1261 16.4287 11.7852C17.5488 11.4442 18.4253 10.5676 18.7663 9.44751Z" stroke="black" stroke-width="1.5" stroke-linecap="round" stroke-linejoin="round"/>
<path d="M5.46353 9.44751C5.80444 10.5676 6.68101 11.4442 7.80107 11.7852C6.68101 12.1261 5.80444 13.0027 5.46352 14.1228C5.12261 13.0027 4.24604 12.1261 3.12598 11.7852C4.24604 11.4442 5.12261 10.5676 5.46353 9.44751Z" stroke="black" stroke-width="1.5" stroke-linecap="round" stroke-linejoin="round"/>
</svg>