<svg width="24" height="24" viewBox="0 0 24 24" fill="none" xmlns="http://www.w3.org/2000/svg">
<path fill-rule="evenodd" clip-rule="evenodd" d="M17.9522 8.68299H6.04917C5.89517 8.68299 5.76217 8.70599 5.61717 8.71699L5.99717 6.33399C6.10417 5.67899 6.66017 5.20399 7.32117 5.20399H7.81617C8.09117 5.74599 8.64817 6.12199 9.29717 6.12199H14.7042C15.3522 6.12199 15.9092 5.74599 16.1842 5.20399H16.6812C17.3442 5.20399 17.8992 5.67799 18.0032 6.33199L18.3862 8.71699C18.2412 8.70599 18.1072 8.68299 17.9522 8.68299ZM16.6882 16.777C16.6882 17.191 16.3522 17.527 15.9382 17.527C15.5242 17.527 15.1882 17.191 15.1882 16.777V13.11C15.1882 12.696 15.5242 12.36 15.9382 12.36C16.3522 12.36 16.6882 12.696 16.6882 13.11V16.777ZM12.8272 16.777C12.8272 17.191 12.4912 17.527 12.0772 17.527C11.6622 17.527 11.3272 17.191 11.3272 16.777V13.11C11.3272 12.696 11.6622 12.36 12.0772 12.36C12.4912 12.36 12.8272 12.696 12.8272 13.11V16.777ZM8.96717 16.777C8.96717 17.191 8.63117 17.527 8.21717 17.527C7.80317 17.527 7.46717 17.191 7.46717 16.777V13.11C7.46717 12.696 7.80317 12.36 8.21717 12.36C8.63117 12.36 8.96717 12.696 8.96717 13.11V16.777ZM20.8622 9.83399C20.6262 9.53699 20.3172 9.31399 19.9692 9.13099L19.4842 6.09699C19.2652 4.70999 18.0862 3.70399 16.6812 3.70399H16.1812C15.9052 3.16499 15.3502 2.79199 14.7042 2.79199H9.29717C8.65117 2.79199 8.09617 3.16499 7.82017 3.70399H7.32117C5.92117 3.70399 4.74217 4.70899 4.51617 6.09599L4.03417 9.12999C3.68517 9.31299 3.37517 9.53599 3.13917 9.83399C2.48417 10.658 2.33117 11.849 2.68317 13.362L3.65117 18.003C4.05617 20.217 5.68617 21.208 7.12217 21.208H16.8792C18.3142 21.208 19.9442 20.217 20.3472 18.015L21.3152 13.373C21.6692 11.85 21.5172 10.659 20.8622 9.83399Z" fill="black"/>
</svg>