<svg width="25" height="24" viewBox="0 0 25 24" fill="none" xmlns="http://www.w3.org/2000/svg">
<path d="M3.5 3.14844H5.49656L8.14988 14.3805C8.40674 15.4664 9.42351 16.1981 10.5347 16.0949L17.472 15.4518C18.4761 15.3584 19.3246 14.6676 19.6184 13.7024L21.4505 7.6981C21.6704 6.98101 21.1294 6.25614 20.3793 6.26295L6.32943 6.37679" stroke="black" stroke-width="1.5" stroke-linecap="round" stroke-linejoin="round"/>
<path opacity="0.4" d="M15.5041 10.9408H12.3633M13.933 12.5119V9.37109" stroke="black" stroke-width="1.5" stroke-linecap="round" stroke-linejoin="round"/>
<path opacity="0.4" d="M9.38572 20.3468V20.4649M9.86448 20.3722C9.86448 20.6381 9.64872 20.8537 9.38278 20.8537C9.11684 20.8537 8.90137 20.6381 8.90137 20.3722C8.90137 20.1062 9.11684 19.8906 9.38278 19.8906C9.64872 19.8906 9.86448 20.1062 9.86448 20.3722Z" stroke="black" stroke-width="1.5" stroke-linecap="round" stroke-linejoin="round"/>
<path opacity="0.4" d="M18.5967 20.3468V20.4649M19.0754 20.3722C19.0754 20.6381 18.8597 20.8537 18.5937 20.8537C18.3278 20.8537 18.1123 20.6381 18.1123 20.3722C18.1123 20.1062 18.3278 19.8906 18.5937 19.8906C18.8597 19.8906 19.0754 20.1062 19.0754 20.3722Z" stroke="black" stroke-width="1.5" stroke-linecap="round" stroke-linejoin="round"/>
</svg>