<svg width="25" height="24" viewBox="0 0 25 24" fill="none" xmlns="http://www.w3.org/2000/svg">
<path d="M3.5 3.14844H5.49656L8.14988 14.3805C8.40674 15.4664 9.42351 16.1981 10.5347 16.0949L17.472 15.4518C18.4761 15.3584 19.3246 14.6676 19.6184 13.7024L21.4505 7.6981C21.6704 6.98101 21.1294 6.25614 20.3793 6.26295L6.32943 6.37679" stroke="black" stroke-width="1.5" stroke-linecap="round" stroke-linejoin="round"/>
<path opacity="0.4" d="M12.2246 10.7649L13.4739 12.0142L15.9716 9.51562" stroke="black" stroke-width="1.5" stroke-linecap="round" stroke-linejoin="round"/>
<path opacity="0.4" d="M9.36716 20.3468V20.4649M9.84593 20.3722C9.84593 20.6381 9.63016 20.8537 9.36422 20.8537C9.09828 20.8537 8.88281 20.6381 8.88281 20.3722C8.88281 20.1062 9.09828 19.8906 9.36422 19.8906C9.63016 19.8906 9.84593 20.1062 9.84593 20.3722Z" stroke="black" stroke-width="1.5" stroke-linecap="round" stroke-linejoin="round"/>
<path opacity="0.4" d="M18.5781 20.3468V20.4649M19.0569 20.3722C19.0569 20.6381 18.8411 20.8537 18.5752 20.8537C18.3092 20.8537 18.0938 20.6381 18.0938 20.3722C18.0938 20.1062 18.3092 19.8906 18.5752 19.8906C18.8411 19.8906 19.0569 20.1062 19.0569 20.3722Z" stroke="black" stroke-width="1.5" stroke-linecap="round" stroke-linejoin="round"/>
</svg>