<svg width="24" height="24" viewBox="0 0 24 24" fill="none" xmlns="http://www.w3.org/2000/svg">
<path d="M3 3.24609L5.02379 3.59636L5.96076 14.7593C6.03568 15.67 6.79849 16.3705 7.71211 16.3676H18.3263C19.199 16.3696 19.9395 15.7274 20.063 14.8634L20.9864 8.48264C21.0895 7.76945 20.5953 7.10783 19.8821 7.00469C19.8198 6.99593 18.1842 6.99107 18.1842 6.99107" stroke="black" stroke-width="1.5" stroke-linecap="round" stroke-linejoin="round"/>
<path d="M9.34766 7H12.9126C14.268 7 15.3665 8.09849 15.3665 9.45287V10.7528" stroke="black" stroke-width="1.5" stroke-linecap="round" stroke-linejoin="round"/>
<path d="M11.1561 8.89032L9.26172 6.99594L11.1561 5.10156" stroke="black" stroke-width="1.5" stroke-linecap="round" stroke-linejoin="round"/>
<path d="M7.28903 20.2452V20.3633M7.7678 20.2706C7.7678 20.5365 7.55203 20.7521 7.28609 20.7521C7.02016 20.7521 6.80469 20.5365 6.80469 20.2706C6.80469 20.0046 7.02016 19.7891 7.28609 19.7891C7.55203 19.7891 7.7678 20.0046 7.7678 20.2706Z" stroke="black" stroke-width="1.5" stroke-linecap="round" stroke-linejoin="round"/>
<path d="M18.3125 20.2452V20.3633M18.7912 20.2706C18.7912 20.5365 18.5755 20.7521 18.3095 20.7521C18.0436 20.7521 17.8281 20.5365 17.8281 20.2706C17.8281 20.0046 18.0436 19.7891 18.3095 19.7891C18.5755 19.7891 18.7912 20.0046 18.7912 20.2706Z" stroke="black" stroke-width="1.5" stroke-linecap="round" stroke-linejoin="round"/>
</svg>