<svg width="24" height="24" viewBox="0 0 24 24" fill="none" xmlns="http://www.w3.org/2000/svg">
<path fill-rule="evenodd" clip-rule="evenodd" d="M7.23503 19.041C6.55603 19.041 6.00403 19.593 6.00403 20.272C6.00403 20.952 6.55603 21.504 7.23503 21.504C7.91403 21.504 8.46703 20.952 8.46703 20.272C8.46703 19.593 7.91403 19.041 7.23503 19.041Z" fill="black"/>
<path fill-rule="evenodd" clip-rule="evenodd" d="M18.2589 19.041C17.5799 19.041 17.0269 19.593 17.0269 20.272C17.0269 20.952 17.5799 21.504 18.2589 21.504C18.9379 21.504 19.4899 20.952 19.4899 20.272C19.4899 19.593 18.9379 19.041 18.2589 19.041Z" fill="black"/>
<path fill-rule="evenodd" clip-rule="evenodd" d="M16.2257 13.9722C16.2257 14.3862 15.8897 14.7222 15.4757 14.7222C15.0617 14.7222 14.7257 14.3862 14.7257 13.9722V12.7752C14.7257 11.9442 14.0487 11.2672 13.2177 11.2672H11.6667L12.1307 11.7312C12.4237 12.0242 12.4237 12.4992 12.1307 12.7912C11.9837 12.9382 11.7917 13.0112 11.6007 13.0112C11.4087 13.0112 11.2167 12.9382 11.0697 12.7912L9.32672 11.0472C9.03372 10.7542 9.03372 10.2802 9.32672 9.98715L11.0697 8.24315C11.3627 7.95015 11.8377 7.95015 12.1307 8.24315C12.4237 8.53615 12.4237 9.01115 12.1307 9.30415L11.6667 9.76715H13.2177C14.8757 9.76715 16.2257 11.1172 16.2257 12.7752V13.9722ZM21.3417 7.06915C21.0137 6.62915 20.5327 6.34315 19.9877 6.26415C19.9167 6.25415 19.8737 6.24815 5.99872 6.24315L5.77172 3.53615C5.74272 3.19615 5.48872 2.91815 5.15172 2.86015L3.12772 2.50915C2.71572 2.43115 2.33172 2.71115 2.26172 3.12015C2.19072 3.52815 2.46372 3.91615 2.87172 3.98715L4.32572 4.23915L5.21372 14.8232C5.31972 16.1122 6.41372 17.1192 7.70472 17.1192H18.3297C19.5657 17.1192 20.6297 16.1972 20.8057 14.9722L21.7277 8.59315C21.8067 8.05015 21.6697 7.50915 21.3417 7.06915Z" fill="black"/>
</svg>