<svg width="24" height="24" viewBox="0 0 24 24" fill="none" xmlns="http://www.w3.org/2000/svg">
<path d="M15.006 10.9396H11.8652" stroke="black" stroke-width="1.5" stroke-linecap="round" stroke-linejoin="round"/>
<path d="M8.83396 20.3448V20.463M9.31273 20.3702C9.31273 20.6361 9.09696 20.8517 8.83102 20.8517C8.56508 20.8517 8.34961 20.6361 8.34961 20.3702C8.34961 20.1043 8.56508 19.8887 8.83102 19.8887C9.09696 19.8887 9.31273 20.1043 9.31273 20.3702Z" stroke="black" stroke-width="1.5" stroke-linecap="round" stroke-linejoin="round"/>
<path d="M18.0449 20.3448V20.463M18.5237 20.3702C18.5237 20.6361 18.3079 20.8517 18.042 20.8517C17.776 20.8517 17.5605 20.6361 17.5605 20.3702C17.5605 20.1043 17.776 19.8887 18.042 19.8887C18.3079 19.8887 18.5237 20.1043 18.5237 20.3702Z" stroke="black" stroke-width="1.5" stroke-linecap="round" stroke-linejoin="round"/>
<path d="M3 3.14844H4.99656L7.64988 14.3805C7.90674 15.4664 8.92351 16.1981 10.0347 16.0949" stroke="black" stroke-width="1.5" stroke-linecap="round" stroke-linejoin="round"/>
<path d="M16.3664 6.29023L19.8789 6.26177C20.629 6.25496 21.17 6.97983 20.9501 7.69691L19.118 13.7012C18.8242 14.6664 17.9757 15.3572 16.9716 15.4506L13.5029 15.7722" stroke="black" stroke-width="1.5" stroke-linecap="round" stroke-linejoin="round"/>
<path d="M12.854 6.32031L5.8291 6.37723" stroke="black" stroke-width="1.5" stroke-linecap="round" stroke-linejoin="round"/>
</svg>