<svg width="24" height="24" viewBox="0 0 24 24" fill="none" xmlns="http://www.w3.org/2000/svg">
<path fill-rule="evenodd" clip-rule="evenodd" d="M7.22103 8.82C7.22103 8.406 7.55703 8.07 7.97103 8.07C8.38503 8.07 8.72103 8.406 8.72103 8.82C8.72103 10.381 9.99003 11.65 11.55 11.65C13.11 11.65 14.38 10.381 14.38 8.82C14.38 8.406 14.716 8.07 15.13 8.07C15.544 8.07 15.88 8.406 15.88 8.82C15.88 11.208 13.937 13.15 11.55 13.15C9.16303 13.15 7.22103 11.208 7.22103 8.82ZM13.9743 19.3776C13.9916 19.2791 13.9587 19.1785 13.8866 19.1092L13.202 18.452C12.28 17.522 12.281 16.065 13.172 15.171C13.2 15.143 13.228 15.116 13.257 15.09C13.592 14.792 14.001 14.596 14.439 14.524L15.4356 14.3787C15.5329 14.3645 15.6172 14.3034 15.6609 14.2153L16.086 13.36C16.357 12.809 16.851 12.383 17.439 12.193C17.984 12.007 18.627 12.049 19.173 12.319C19.617 12.541 19.968 12.883 20.195 13.314L20.219 13.36L20.6677 14.2619C20.6974 14.3215 20.7543 14.3627 20.8201 14.3723C20.9424 14.3901 21.052 14.2952 21.052 14.1716V8.026C21.052 4.721 18.929 2.5 15.768 2.5H7.33303C4.17403 2.5 2.05103 4.721 2.05103 8.026V15.974C2.05103 19.279 4.17403 21.5 7.33303 21.5H13.5013C13.7104 21.5 13.8552 21.2903 13.817 21.0847C13.7699 20.8312 13.7669 20.5797 13.807 20.329L13.9743 19.3776Z" fill="black"/>
<path fill-rule="evenodd" clip-rule="evenodd" d="M21.7597 16.3454C21.6067 16.1374 21.3727 16.0004 21.1297 15.9714L19.6607 15.7584L19.0047 14.4374C19.0017 14.4334 18.9997 14.4284 18.9977 14.4244C18.9077 14.2514 18.7607 14.1054 18.5727 14.0084C18.3497 13.8984 18.0837 13.8814 17.8537 13.9584C17.6137 14.0364 17.4117 14.2114 17.3007 14.4374L16.6457 15.7574L15.1587 15.9734C14.9777 16.0044 14.8087 16.0854 14.6357 16.2404C14.2697 16.6094 14.2697 17.2094 14.6477 17.5874L15.7147 18.6124L15.4587 20.0604C15.4237 20.2624 15.4557 20.4674 15.5637 20.6804C15.7377 20.9904 16.0597 21.1674 16.3967 21.1674C16.5437 21.1674 16.6947 21.1334 16.8377 21.0614L18.1577 20.3714L19.4837 21.0654C19.6647 21.1544 19.8667 21.1864 20.0637 21.1524C20.5767 21.0724 20.9297 20.5884 20.8487 20.0614L20.5937 18.6124L21.6467 17.5954C22.0037 17.2604 22.0487 16.7174 21.7597 16.3454Z" fill="black"/>
</svg>