<svg width="24" height="24" viewBox="0 0 24 24" fill="none" xmlns="http://www.w3.org/2000/svg">
<path d="M3 3.14844H4.99656L7.64988 14.3805C7.90674 15.4664 8.92351 16.1981 10.0347 16.0949L16.972 15.4518C17.9761 15.3584 18.8246 14.6676 19.1184 13.7024L20.9505 7.6981C21.1704 6.98101 20.6294 6.25614 19.8793 6.26295L5.82943 6.37679" stroke="black" stroke-width="1.5" stroke-linecap="round" stroke-linejoin="round"/>
<path d="M15.0041 10.9396H11.8633" stroke="black" stroke-width="1.5" stroke-linecap="round" stroke-linejoin="round"/>
<path d="M13.4338 12.508V9.36719" stroke="black" stroke-width="1.5" stroke-linecap="round" stroke-linejoin="round"/>
<path d="M8.88474 20.3468V20.4649M9.36351 20.3722C9.36351 20.6381 9.14774 20.8537 8.8818 20.8537C8.61586 20.8537 8.40039 20.6381 8.40039 20.3722C8.40039 20.1062 8.61586 19.8906 8.8818 19.8906C9.14774 19.8906 9.36351 20.1062 9.36351 20.3722Z" stroke="black" stroke-width="1.5" stroke-linecap="round" stroke-linejoin="round"/>
<path d="M18.0957 20.3468V20.4649M18.5744 20.3722C18.5744 20.6381 18.3587 20.8537 18.0927 20.8537C17.8268 20.8537 17.6113 20.6381 17.6113 20.3722C17.6113 20.1062 17.8268 19.8906 18.0927 19.8906C18.3587 19.8906 18.5744 20.1062 18.5744 20.3722Z" stroke="black" stroke-width="1.5" stroke-linecap="round" stroke-linejoin="round"/>
</svg>