<svg width="24" height="24" viewBox="0 0 24 24" fill="none" xmlns="http://www.w3.org/2000/svg">
<path fill-rule="evenodd" clip-rule="evenodd" d="M15.9036 20.9973H8.08722C5.21712 20.9973 3.0125 19.9602 3.63808 15.7864L4.3668 10.1298C4.74915 8.04682 6.08107 7.25 7.24663 7.25H16.7773C17.9604 7.25 19.2115 8.10617 19.6571 10.1298L20.3858 15.7864C20.9171 19.4893 18.7747 20.9973 15.9036 20.9973Z" stroke="black" stroke-width="1.5" stroke-linecap="round" stroke-linejoin="round"/>
<path d="M16.0341 7.04542C16.0341 4.81161 14.2235 3.00004 11.9887 3.00004C9.75486 2.99031 7.93648 4.79312 7.92578 7.02791C7.92578 7.03375 7.92578 7.03958 7.92578 7.04542" stroke="black" stroke-width="1.5" stroke-linecap="round" stroke-linejoin="round"/>
<path d="M9.42578 14.1544H14.5793" stroke="black" stroke-width="1.5" stroke-linecap="round" stroke-linejoin="round"/>
<path d="M12.0021 11.5781V16.7317" stroke="black" stroke-width="1.5" stroke-linecap="round" stroke-linejoin="round"/>
</svg>