<svg width="25" height="24" viewBox="0 0 25 24" fill="none" xmlns="http://www.w3.org/2000/svg">
<path d="M10.0761 16.8524C9.40357 16.8506 8.75121 16.6229 8.22366 16.2058C7.69612 15.7886 7.324 15.2064 7.16708 14.5524L4.64609 3.89844H3.24609C3.04718 3.89844 2.85641 3.81942 2.71576 3.67877C2.57511 3.53812 2.49609 3.34735 2.49609 3.14844C2.49609 2.94953 2.57511 2.75876 2.71576 2.61811C2.85641 2.47746 3.04718 2.39844 3.24609 2.39844H5.24609C5.41505 2.39862 5.57902 2.45577 5.71149 2.56065C5.84395 2.66553 5.93718 2.81202 5.9761 2.97644L6.60208 5.62344L20.1221 5.51344C20.4141 5.5107 20.7027 5.57668 20.9644 5.70605C21.2262 5.83542 21.4539 6.02455 21.6292 6.25816C21.8044 6.49177 21.9222 6.76331 21.9731 7.05086C22.0239 7.3384 22.0065 7.63388 21.9221 7.91344L20.0891 13.9134C19.9031 14.5292 19.537 15.0751 19.0379 15.4809C18.5389 15.8867 17.9298 16.1339 17.2891 16.1904L10.3521 16.8334C10.2591 16.8484 10.1671 16.8524 10.0761 16.8524ZM6.95209 7.11844L8.6261 14.2064C8.71076 14.5545 8.91723 14.8609 9.20813 15.07C9.49903 15.279 9.85516 15.3771 10.2121 15.3464L17.1461 14.6984C17.4894 14.6682 17.8157 14.5358 18.0831 14.3183C18.3505 14.1009 18.5465 13.8084 18.6461 13.4784L20.4791 7.47244C20.4957 7.41867 20.4994 7.36177 20.49 7.3063C20.4806 7.25084 20.4583 7.19834 20.425 7.15303C20.3916 7.10772 20.3481 7.07086 20.298 7.0454C20.2478 7.01995 20.1924 7.0066 20.1361 7.00644L6.95209 7.11844Z" fill="black"/>
<path d="M12.6634 12.8475C12.5151 12.8474 12.3703 12.8033 12.2471 12.7209C12.1239 12.6385 12.0278 12.5214 11.9711 12.3844C11.9144 12.2475 11.8995 12.0968 11.9284 11.9514C11.9573 11.806 12.0286 11.6724 12.1334 11.5675L14.3524 9.3475C14.4938 9.21081 14.6832 9.13513 14.8798 9.13674C15.0765 9.13836 15.2647 9.21715 15.4038 9.35614C15.5429 9.49513 15.6219 9.6832 15.6237 9.87985C15.6255 10.0765 15.5499 10.266 15.4134 10.4075L13.1934 12.6275C13.124 12.6974 13.0414 12.7529 12.9505 12.7907C12.8595 12.8284 12.7619 12.8477 12.6634 12.8475Z" fill="black"/>
<path d="M14.8849 12.8458C14.7862 12.8461 14.6885 12.8268 14.5973 12.789C14.5062 12.7513 14.4235 12.6958 14.3539 12.6258L12.1349 10.4058C12.0024 10.2636 11.9303 10.0756 11.9337 9.8813C11.9371 9.687 12.0159 9.50161 12.1533 9.3642C12.2907 9.22679 12.4761 9.14808 12.6704 9.14465C12.8647 9.14122 13.0527 9.21334 13.1949 9.34582L15.4149 11.5658C15.5196 11.6707 15.591 11.8043 15.6199 11.9497C15.6488 12.0951 15.6339 12.2458 15.5772 12.3827C15.5205 12.5197 15.4244 12.6368 15.3012 12.7192C15.178 12.8016 15.0331 12.8457 14.8849 12.8458Z" fill="black"/>
<path d="M9.11381 21.5987C9.79367 21.5987 10.3448 21.0476 10.3448 20.3677C10.3448 19.6879 9.79367 19.1367 9.11381 19.1367C8.43395 19.1367 7.88281 19.6879 7.88281 20.3677C7.88281 21.0476 8.43395 21.5987 9.11381 21.5987Z" fill="black"/>
<path d="M18.3247 21.5987C19.0046 21.5987 19.5557 21.0476 19.5557 20.3677C19.5557 19.6879 19.0046 19.1367 18.3247 19.1367C17.6449 19.1367 17.0938 19.6879 17.0938 20.3677C17.0938 21.0476 17.6449 21.5987 18.3247 21.5987Z" fill="black"/>
</svg>