<svg width="24" height="24" viewBox="0 0 24 24" fill="none" xmlns="http://www.w3.org/2000/svg">
<path opacity="0.4" fill-rule="evenodd" clip-rule="evenodd" d="M13.9743 19.3776C13.9916 19.2791 13.9587 19.1785 13.8866 19.1092L13.202 18.452C12.28 17.522 12.281 16.065 13.172 15.171C13.2 15.143 13.228 15.116 13.257 15.09C13.592 14.792 14.001 14.596 14.439 14.524L15.4356 14.3787C15.5329 14.3645 15.6172 14.3034 15.6609 14.2153L16.086 13.36C16.357 12.809 16.851 12.383 17.439 12.193C17.984 12.007 18.627 12.049 19.173 12.319C19.617 12.541 19.968 12.883 20.195 13.314L20.219 13.36L20.6677 14.2619C20.6974 14.3215 20.7543 14.3627 20.8201 14.3723C20.9424 14.3901 21.052 14.2952 21.052 14.1716V8.026C21.052 4.721 18.929 2.5 15.768 2.5H7.33303C4.17403 2.5 2.05103 4.721 2.05103 8.026V15.974C2.05103 19.279 4.17403 21.5 7.33303 21.5H13.5013C13.7104 21.5 13.8552 21.2903 13.817 21.0847C13.7699 20.8312 13.7669 20.5797 13.807 20.329L13.9743 19.3776Z" fill="black"/>
<path fill-rule="evenodd" clip-rule="evenodd" d="M21.7596 16.3455C21.6066 16.1375 21.3726 16.0005 21.1296 15.9715L19.6606 15.7585L19.0046 14.4375C19.0016 14.4335 18.9996 14.4285 18.9976 14.4245C18.9076 14.2515 18.7606 14.1055 18.5726 14.0085C18.3496 13.8985 18.0836 13.8815 17.8536 13.9585C17.6136 14.0365 17.4116 14.2115 17.3006 14.4375L16.6456 15.7575L15.1586 15.9735C14.9776 16.0045 14.8086 16.0855 14.6356 16.2405C14.2696 16.6095 14.2696 17.2095 14.6476 17.5875L15.7146 18.6125L15.4586 20.0605C15.4236 20.2625 15.4556 20.4675 15.5636 20.6805C15.7376 20.9905 16.0596 21.1675 16.3966 21.1675C16.5436 21.1675 16.6946 21.1335 16.8376 21.0615L18.1576 20.3715L19.4836 21.0655C19.6646 21.1545 19.8666 21.1865 20.0636 21.1525C20.5766 21.0725 20.9296 20.5885 20.8486 20.0615L20.5936 18.6125L21.6466 17.5955C22.0036 17.2605 22.0486 16.7175 21.7596 16.3455Z" fill="black"/>
<path d="M7.97095 8.06934C7.55695 8.06934 7.22095 8.40534 7.22095 8.81934C7.22095 11.2073 9.16295 13.1493 11.5499 13.1493C13.9369 13.1493 15.8799 11.2073 15.8799 8.81934C15.8799 8.40534 15.5439 8.06934 15.1299 8.06934C14.7159 8.06934 14.3799 8.40534 14.3799 8.81934C14.3799 10.3803 13.1099 11.6493 11.5499 11.6493C9.98995 11.6493 8.72095 10.3803 8.72095 8.81934C8.72095 8.40534 8.38495 8.06934 7.97095 8.06934Z" fill="black"/>
</svg>