<svg width="25" height="24" viewBox="0 0 25 24" fill="none" xmlns="http://www.w3.org/2000/svg">
<path fill-rule="evenodd" clip-rule="evenodd" d="M5.35945 10.2462L4.63338 15.8822L4.63124 15.8975C4.33677 17.8622 4.73829 18.8672 5.31662 19.4103C5.93362 19.9896 6.95606 20.2473 8.33867 20.2473H16.1551C17.4768 20.2473 18.502 19.8989 19.138 19.2539C19.7538 18.6292 20.1382 17.589 19.8949 15.8929L19.8934 15.8822L19.8934 15.8822L19.1691 10.2597C18.7776 8.52935 17.7833 8 17.0287 8H7.49807C7.08599 8 6.63969 8.14032 6.25768 8.47379C5.88133 8.80232 5.52663 9.35481 5.35945 10.2462ZM5.27124 7.34378C5.94217 6.75809 6.7446 6.5 7.49807 6.5H17.0287C18.6358 6.5 20.1364 7.67657 20.641 9.96855C20.6458 9.99019 20.6496 10.012 20.6524 10.034L21.3805 15.6853C21.6668 17.6894 21.2455 19.2528 20.2061 20.307C19.1859 21.3417 17.7044 21.7473 16.1551 21.7473H8.33867C6.85118 21.7473 5.33626 21.4864 4.28982 20.5037C3.20598 19.486 2.81762 17.8881 3.14665 15.683L3.87439 10.034C3.8761 10.0208 3.87816 10.0076 3.88057 9.99442C4.09725 8.81399 4.59732 7.93208 5.27124 7.34378Z" fill="black"/>
<path fill-rule="evenodd" clip-rule="evenodd" d="M7.42579 7.02464C7.43732 4.37612 9.5931 2.23939 12.2403 2.25004C14.8887 2.25092 17.0341 4.39806 17.0341 7.04542C17.0341 7.45963 16.6983 7.79542 16.2841 7.79542C15.8698 7.79542 15.5341 7.45963 15.5341 7.04542C15.5341 5.2257 14.0591 3.75004 12.2387 3.75004H12.2354C10.4163 3.74212 8.93454 5.20983 8.92578 7.02963V7.04501C8.92578 7.45922 8.58999 7.79542 8.17578 7.79542C7.76157 7.79542 7.42578 7.45963 7.42578 7.04542L7.42579 7.02464Z" fill="black"/>
<path fill-rule="evenodd" clip-rule="evenodd" d="M8.92578 14.1562C8.92578 13.742 9.26157 13.4062 9.67578 13.4062H14.8293C15.2435 13.4062 15.5793 13.742 15.5793 14.1562C15.5793 14.5705 15.2435 14.9062 14.8293 14.9062H9.67578C9.26157 14.9062 8.92578 14.5705 8.92578 14.1562Z" fill="black"/>
</svg>