<svg width="24" height="24" viewBox="0 0 24 24" fill="none" xmlns="http://www.w3.org/2000/svg">
<path d="M20.0536 10.6667V7.74592C20.0536 4.95554 18.315 2.98438 15.5217 2.98438H7.52999C4.74545 2.98438 3 4.95554 3 7.74592V15.2755C3 18.0658 4.73669 20.038 7.52999 20.038H10.9119" stroke="black" stroke-width="1.5" stroke-linecap="round" stroke-linejoin="round"/>
<path d="M14.919 8.49219C14.919 10.3651 13.4003 11.8838 11.5274 11.8838C9.6545 11.8838 8.13672 10.3651 8.13672 8.49219" stroke="black" stroke-width="1.5" stroke-linecap="round" stroke-linejoin="round"/>
<path fill-rule="evenodd" clip-rule="evenodd" d="M20.9997 17.3133C20.9997 19.3594 19.3418 21.0173 17.2958 21.0173C15.2507 21.0173 13.5918 19.3594 13.5918 17.3133C13.5918 15.2673 15.2507 13.6094 17.2958 13.6094C19.3418 13.6094 20.9997 15.2673 20.9997 17.3133Z" stroke="black" stroke-width="1.5" stroke-linecap="round" stroke-linejoin="round"/>
<path d="M18.4458 18.2789L17.2754 17.5793V16.0742" stroke="black" stroke-width="1.5" stroke-linecap="round" stroke-linejoin="round"/>
</svg>