<svg width="24" height="24" viewBox="0 0 24 24" fill="none" xmlns="http://www.w3.org/2000/svg">
<path fill-rule="evenodd" clip-rule="evenodd" d="M19.9613 9.10004C19.5213 8.87004 19.0013 8.74004 18.3813 8.70004L18.0013 6.33004C17.9013 5.68004 17.3412 5.21004 16.6812 5.21004H16.1812C15.9112 5.75004 15.3513 6.12004 14.7013 6.12004H9.30125C8.65125 6.12004 8.09125 5.75004 7.82125 5.21004H7.32125C6.66125 5.21004 6.10125 5.68004 6.00125 6.33004L5.62125 8.70004C5.00125 8.74004 4.47125 8.88004 4.03125 9.10004L4.52125 6.10004C4.74125 4.71004 5.92125 3.71004 7.32125 3.71004H7.82125C8.09125 3.17004 8.65125 2.79004 9.30125 2.79004H14.7013C15.3513 2.79004 15.9012 3.17004 16.1812 3.71004H16.6812C18.0912 3.71004 19.2612 4.71004 19.4812 6.10004L19.9613 9.10004Z" fill="black"/>
<path opacity="0.4" fill-rule="evenodd" clip-rule="evenodd" d="M20.8614 9.83969C20.6214 9.52969 20.3214 9.28969 19.9614 9.09969C19.5214 8.86969 19.0014 8.73969 18.3814 8.69969C18.2414 8.67969 18.1014 8.67969 17.9514 8.67969H6.05137C5.90137 8.67969 5.76137 8.67969 5.62137 8.69969C5.00137 8.73969 4.47137 8.87969 4.03137 9.09969C3.68137 9.28969 3.38137 9.52969 3.14137 9.82969C2.48137 10.6597 2.33137 11.8497 2.68137 13.3597L3.65137 17.9997C4.06137 20.2197 5.69137 21.2097 7.12137 21.2097H16.8814C18.3114 21.2097 19.9414 20.2197 20.3514 18.0197L21.3114 13.3697C21.6714 11.8497 21.5214 10.6597 20.8614 9.83969Z" fill="black"/>
<path fill-rule="evenodd" clip-rule="evenodd" d="M16.5635 17.5274C16.1495 17.5274 15.8135 17.1914 15.8135 16.7774V13.1104C15.8135 12.6964 16.1495 12.3604 16.5635 12.3604C16.9775 12.3604 17.3135 12.6964 17.3135 13.1104V16.7774C17.3135 17.1914 16.9775 17.5274 16.5635 17.5274Z" fill="black"/>
<path fill-rule="evenodd" clip-rule="evenodd" d="M12.7022 17.5274C12.2882 17.5274 11.9522 17.1914 11.9522 16.7774V13.1104C11.9522 12.6964 12.2882 12.3604 12.7022 12.3604C13.1162 12.3604 13.4522 12.6964 13.4522 13.1104V16.7774C13.4522 17.1914 13.1162 17.5274 12.7022 17.5274Z" fill="black"/>
<path fill-rule="evenodd" clip-rule="evenodd" d="M8.84277 17.5274C8.42877 17.5274 8.09277 17.1914 8.09277 16.7774V13.1104C8.09277 12.6964 8.42877 12.3604 8.84277 12.3604C9.25677 12.3604 9.59277 12.6964 9.59277 13.1104V16.7774C9.59277 17.1914 9.25677 17.5274 8.84277 17.5274Z" fill="black"/>
</svg>