<svg width="24" height="24" viewBox="0 0 24 24" fill="none" xmlns="http://www.w3.org/2000/svg">
<path fill-rule="evenodd" clip-rule="evenodd" d="M11.4853 12.6231C9.09833 12.6231 7.15633 10.6811 7.15633 8.29314C7.15633 7.87914 7.49233 7.54314 7.90633 7.54314C8.32033 7.54314 8.65633 7.87914 8.65633 8.29314C8.65633 9.85314 9.92533 11.1231 11.4853 11.1231C13.0463 11.1231 14.3153 9.85314 14.3153 8.29314C14.3153 7.87914 14.6513 7.54314 15.0653 7.54314C15.4793 7.54314 15.8153 7.87914 15.8153 8.29314C15.8153 10.6811 13.8733 12.6231 11.4853 12.6231ZM18.0593 12.3691C18.9414 12.3691 19.7747 12.574 20.52 12.934C20.7301 13.0355 20.9863 12.8891 20.9863 12.6559V7.49914C20.9863 4.19414 18.8633 1.97314 15.7033 1.97314H7.26733C4.10833 1.97314 1.98633 4.19414 1.98633 7.49914V15.4471C1.98633 18.7521 4.10833 20.9731 7.26733 20.9731H12.6295C12.862 20.9731 13.0084 20.7184 12.9083 20.5085C12.5558 19.7695 12.3553 18.9447 12.3553 18.0731C12.3553 14.9281 14.9143 12.3691 18.0593 12.3691Z" fill="black"/>
<path fill-rule="evenodd" clip-rule="evenodd" d="M19.6668 19.277C19.5368 19.494 19.3078 19.614 19.0718 19.614C18.9508 19.614 18.8278 19.583 18.7168 19.517L17.6858 18.901C17.4768 18.775 17.3488 18.55 17.3488 18.306V16.981C17.3488 16.598 17.6588 16.288 18.0418 16.288C18.4238 16.288 18.7338 16.598 18.7338 16.981V17.912L19.4278 18.327C19.7558 18.523 19.8638 18.949 19.6668 19.277ZM18.0598 14.12C15.8798 14.12 14.1058 15.893 14.1058 18.073C14.1058 20.253 15.8798 22.027 18.0598 22.027C20.2398 22.027 22.0138 20.253 22.0138 18.073C22.0138 15.893 20.2398 14.12 18.0598 14.12Z" fill="black"/>
</svg>