<svg width="24" height="24" viewBox="0 0 24 24" fill="none" xmlns="http://www.w3.org/2000/svg">
<path fill-rule="evenodd" clip-rule="evenodd" d="M8.88334 19.1392C8.20434 19.1392 7.65234 19.6912 7.65234 20.3702C7.65234 21.0502 8.20434 21.6022 8.88334 21.6022C9.56234 21.6022 10.1153 21.0502 10.1153 20.3702C10.1153 19.6912 9.56234 19.1392 8.88334 19.1392Z" fill="black"/>
<path fill-rule="evenodd" clip-rule="evenodd" d="M18.0943 19.1392C17.4153 19.1392 16.8633 19.6912 16.8633 20.3702C16.8633 21.0502 17.4153 21.6022 18.0943 21.6022C18.7733 21.6022 19.3253 21.0502 19.3253 20.3702C19.3253 19.6912 18.7733 19.1392 18.0943 19.1392Z" fill="black"/>
<path opacity="0.4" fill-rule="evenodd" clip-rule="evenodd" d="M21.3795 6.25995C21.0205 5.77995 20.4775 5.49395 19.8735 5.51295L6.35151 5.62195L5.72651 2.97595C5.64651 2.63695 5.34351 2.39795 4.99651 2.39795H2.99951C2.58551 2.39795 2.24951 2.73395 2.24951 3.14795C2.24951 3.56195 2.58551 3.89795 2.99951 3.89795H4.40251L6.91951 14.5529C7.23951 15.9049 8.46251 16.8539 9.82951 16.8539C9.92051 16.8539 10.0115 16.8499 10.1035 16.8409L17.0415 16.1979C18.3555 16.0759 19.4515 15.1819 19.8355 13.9209L21.6675 7.91795C21.8425 7.34395 21.7375 6.73995 21.3795 6.25995Z" fill="black"/>
</svg>