<svg width="24" height="24" viewBox="0 0 24 24" fill="none" xmlns="http://www.w3.org/2000/svg">
<path opacity="0.4" fill-rule="evenodd" clip-rule="evenodd" d="M19.9452 20.075C19.0652 21.085 17.6652 21.625 15.9052 21.625H8.08521C6.14521 21.625 4.79521 21.155 3.96521 20.195C3.11521 19.215 2.85521 17.785 3.14521 15.835L3.87521 10.195C4.30521 7.765 5.92521 6.895 7.19521 6.875H16.7752C18.0552 6.875 19.6152 7.735 20.1452 10.145L20.8852 15.845C21.1352 17.635 20.8252 19.065 19.9452 20.075Z" fill="black"/>
<path fill-rule="evenodd" clip-rule="evenodd" d="M16.79 6.87504H15.28C15.14 5.19504 13.72 3.87504 12 3.87504H11.99C10.26 3.87504 8.84996 5.19504 8.70996 6.87504H7.20996C7.35996 4.35504 9.44996 2.37504 11.98 2.37504C14.55 2.36504 16.64 4.35504 16.79 6.87504Z" fill="black"/>
<path d="M12.7532 15.0291H14.5802C14.9942 15.0291 15.3302 14.6931 15.3302 14.2791C15.3302 13.8651 14.9942 13.5291 14.5802 13.5291H12.7532V11.7031C12.7532 11.2891 12.4172 10.9531 12.0032 10.9531C11.5892 10.9531 11.2532 11.2891 11.2532 11.7031V13.5291H9.42725C9.01325 13.5291 8.67725 13.8651 8.67725 14.2791C8.67725 14.6931 9.01325 15.0291 9.42725 15.0291H11.2532V16.8571C11.2532 17.2711 11.5892 17.6071 12.0032 17.6071C12.4172 17.6071 12.7532 17.2711 12.7532 16.8571V15.0291Z" fill="black"/>
</svg>