<svg width="24" height="24" viewBox="0 0 24 24" fill="none" xmlns="http://www.w3.org/2000/svg">
<path opacity="0.4" fill-rule="evenodd" clip-rule="evenodd" d="M19.9452 20.075C19.0652 21.085 17.6652 21.625 15.9052 21.625H8.08521C6.14521 21.625 4.79521 21.155 3.96521 20.195C3.11521 19.215 2.85521 17.785 3.14521 15.835L3.87521 10.195C4.30521 7.765 5.92521 6.895 7.19521 6.875H16.7752C18.0552 6.875 19.6152 7.735 20.1452 10.145L20.8852 15.845C21.1352 17.635 20.8252 19.065 19.9452 20.075Z" fill="black"/>
<path fill-rule="evenodd" clip-rule="evenodd" d="M16.79 6.87504H15.28C15.14 5.19504 13.72 3.87504 12 3.87504H11.99C10.26 3.87504 8.84996 5.19504 8.70996 6.87504H7.20996C7.35996 4.35504 9.44996 2.37504 11.98 2.37504C14.55 2.36504 16.64 4.35504 16.79 6.87504Z" fill="black"/>
<path d="M9.72586 10.9514C9.31186 10.9514 8.97586 11.2874 8.97586 11.7014C8.97586 12.1154 9.31186 12.4514 9.72586 12.4514H9.75086C10.1649 12.4514 10.4889 12.1154 10.4889 11.7014C10.4889 11.2874 10.1399 10.9514 9.72586 10.9514Z" fill="black"/>
<path d="M10.1919 16.8464L14.8699 12.1694C15.1629 11.8774 15.1629 11.4024 14.8699 11.1094C14.5779 10.8174 14.1029 10.8154 13.8089 11.1094L9.13186 15.7864C8.83886 16.0794 8.83886 16.5534 9.13186 16.8464C9.27786 16.9934 9.46886 17.0664 9.66186 17.0664C9.85286 17.0664 10.0459 16.9934 10.1919 16.8464Z" fill="black"/>
<path d="M14.2769 17.0024H14.3099C14.7239 17.0024 15.0439 16.6664 15.0439 16.2524C15.0439 15.8384 14.6909 15.5024 14.2769 15.5024C13.8629 15.5024 13.5269 15.8384 13.5269 16.2524C13.5269 16.6664 13.8629 17.0024 14.2769 17.0024Z" fill="black"/>
</svg>