<svg width="24" height="24" viewBox="0 0 24 24" fill="none" xmlns="http://www.w3.org/2000/svg">
<path opacity="0.4" fill-rule="evenodd" clip-rule="evenodd" d="M21.3417 7.06855C21.0137 6.62855 20.5327 6.34255 19.9877 6.26355C19.9177 6.25355 19.8737 6.24755 5.9987 6.24255L5.7717 3.53555C5.7427 3.19455 5.4887 2.91655 5.1517 2.85855L3.1277 2.50855C2.7167 2.43455 2.3317 2.71155 2.2607 3.11955C2.1907 3.52755 2.4637 3.91555 2.8727 3.98655L4.3257 4.23755L5.2137 14.8226C5.3197 16.1116 6.4147 17.1196 7.7047 17.1196H18.3307C19.5657 17.1196 20.6297 16.1966 20.8057 14.9726L21.7287 8.59255C21.8077 8.04955 21.6697 7.50855 21.3417 7.06855Z" fill="black"/>
<path fill-rule="evenodd" clip-rule="evenodd" d="M7.28837 19.04C6.60937 19.04 6.05737 19.592 6.05737 20.271C6.05737 20.951 6.60937 21.503 7.28837 21.503C7.96737 21.503 8.52037 20.951 8.52037 20.271C8.52037 19.592 7.96737 19.04 7.28837 19.04Z" fill="black"/>
<path fill-rule="evenodd" clip-rule="evenodd" d="M18.3113 19.04C17.6323 19.04 17.0803 19.592 17.0803 20.271C17.0803 20.951 17.6323 21.503 18.3113 21.503C18.9903 21.503 19.5433 20.951 19.5433 20.271C19.5433 19.592 18.9903 19.04 18.3113 19.04Z" fill="black"/>
<path d="M12.9927 13.5041L15.6687 10.8281C15.9617 10.5351 15.9617 10.0601 15.6687 9.76711C15.3757 9.47411 14.9007 9.47411 14.6077 9.76711L12.4617 11.9131L11.6537 11.1051C11.3607 10.8131 10.8857 10.8121 10.5927 11.1051C10.2997 11.3981 10.2997 11.8731 10.5927 12.1661L11.9317 13.5041C12.0787 13.6501 12.2707 13.7241 12.4617 13.7241C12.6537 13.7241 12.8457 13.6501 12.9927 13.5041Z" fill="black"/>
</svg>