<svg width="24" height="24" viewBox="0 0 24 24" fill="none" xmlns="http://www.w3.org/2000/svg">
<path d="M3 3.14844H4.99656L7.64988 14.3805C7.90674 15.4664 8.92351 16.1981 10.0347 16.0949L16.972 15.4518C17.9761 15.3584 18.8246 14.6676 19.1184 13.7024L20.9505 7.6981C21.1704 6.98101 20.6294 6.25614 19.8793 6.26295L5.82943 6.37679" stroke="black" stroke-width="1.5" stroke-linecap="round" stroke-linejoin="round"/>
<path d="M11.7246 10.7649L12.9739 12.0142L15.4716 9.51562" stroke="black" stroke-width="1.5" stroke-linecap="round" stroke-linejoin="round"/>
<path d="M8.86716 20.3468V20.4649M9.34593 20.3722C9.34593 20.6381 9.13016 20.8537 8.86422 20.8537C8.59828 20.8537 8.38281 20.6381 8.38281 20.3722C8.38281 20.1062 8.59828 19.8906 8.86422 19.8906C9.13016 19.8906 9.34593 20.1062 9.34593 20.3722Z" stroke="black" stroke-width="1.5" stroke-linecap="round" stroke-linejoin="round"/>
<path d="M18.0781 20.3468V20.4649M18.5569 20.3722C18.5569 20.6381 18.3411 20.8537 18.0752 20.8537C17.8092 20.8537 17.5938 20.6381 17.5938 20.3722C17.5938 20.1062 17.8092 19.8906 18.0752 19.8906C18.3411 19.8906 18.5569 20.1062 18.5569 20.3722Z" stroke="black" stroke-width="1.5" stroke-linecap="round" stroke-linejoin="round"/>
</svg>