<svg width="25" height="24" viewBox="0 0 25 24" fill="none" xmlns="http://www.w3.org/2000/svg">
<path fill-rule="evenodd" clip-rule="evenodd" d="M8.96761 8.74398L12.0546 4.68198C12.4906 4.10798 13.4396 4.10798 13.8766 4.68198L16.9626 8.74398H8.96761ZM15.0236 15.756H11.0616C10.6476 15.756 10.3116 15.42 10.3116 15.006C10.3116 14.592 10.6476 14.256 11.0616 14.256H15.0236C15.4376 14.256 15.7736 14.592 15.7736 15.006C15.7736 15.42 15.4376 15.756 15.0236 15.756ZM21.8256 9.89498C21.2196 9.13098 20.2406 8.74398 18.9166 8.74398H18.8466L15.0706 3.77398C14.5656 3.10998 13.7986 2.72998 12.9646 2.72998C12.1316 2.72998 11.3646 3.11098 10.8606 3.77398L7.08361 8.74398H7.01361C5.68961 8.74398 4.71161 9.13098 4.10461 9.89498C3.44861 10.72 3.29661 11.911 3.64861 13.424L4.61561 18.065C5.02161 20.279 6.65161 21.27 8.08661 21.27H17.8426C19.2796 21.27 20.9086 20.279 21.3116 18.077L22.2796 13.435C22.6336 11.911 22.4816 10.72 21.8256 9.89498Z" fill="black"/>
</svg>