<svg width="24" height="24" viewBox="0 0 24 24" fill="none" xmlns="http://www.w3.org/2000/svg">
<path fill-rule="evenodd" clip-rule="evenodd" d="M14.9998 11.6894H14.1798V12.5094C14.1798 12.9194 13.8498 13.2594 13.4298 13.2594C13.0198 13.2594 12.6798 12.9194 12.6798 12.5094V11.6894H11.8598C11.4498 11.6894 11.1098 11.3494 11.1098 10.9394C11.1098 10.5294 11.4498 10.1894 11.8598 10.1894H12.6798V9.36941C12.6798 8.95941 13.0198 8.61941 13.4298 8.61941C13.8498 8.61941 14.1798 8.95941 14.1798 9.36941V10.1894H14.9998C15.4198 10.1894 15.7498 10.5294 15.7498 10.9394C15.7498 11.3494 15.4198 11.6894 14.9998 11.6894ZM21.3798 6.25941C21.0198 5.77941 20.4798 5.53941 19.8698 5.50941L6.34976 5.61941L5.72976 2.97941C5.64976 2.63941 5.33976 2.39941 4.99976 2.39941H2.99976C2.58976 2.39941 2.24976 2.72941 2.24976 3.14941C2.24976 3.55941 2.58976 3.89941 2.99976 3.89941H4.39976L6.91976 14.5494C7.23976 15.9094 8.45976 16.8494 9.82976 16.8494C9.91976 16.8494 10.0098 16.8494 10.0998 16.8394L17.0398 16.1994C18.3598 16.0794 19.4498 15.1794 19.8398 13.9194L21.6698 7.91941C21.8398 7.33941 21.7398 6.73941 21.3798 6.25941Z" fill="black"/>
<path fill-rule="evenodd" clip-rule="evenodd" d="M8.88105 19.1382C8.20205 19.1382 7.64905 19.6902 7.64905 20.3692C7.64905 21.0492 8.20205 21.6012 8.88105 21.6012C9.56005 21.6012 10.113 21.0492 10.113 20.3692C10.113 19.6902 9.56005 19.1382 8.88105 19.1382Z" fill="black"/>
<path fill-rule="evenodd" clip-rule="evenodd" d="M18.092 19.1382C17.413 19.1382 16.86 19.6902 16.86 20.3692C16.86 21.0492 17.413 21.6012 18.092 21.6012C18.771 21.6012 19.323 21.0492 19.323 20.3692C19.323 19.6902 18.771 19.1382 18.092 19.1382Z" fill="black"/>
</svg>