<svg width="24" height="24" viewBox="0 0 24 24" fill="none" xmlns="http://www.w3.org/2000/svg">
<path d="M4.75195 9.36661L4.75584 9.35007L5.25692 6.21322C5.42135 5.19842 6.29313 4.45312 7.32059 4.45312H8.13691" stroke="black" stroke-width="1.5" stroke-linecap="round" stroke-linejoin="round"/>
<path d="M15.8633 4.45312H16.6806C17.7071 4.45312 18.5827 5.19842 18.7433 6.21322L19.2443 9.35007L19.2482 9.36661" stroke="black" stroke-width="1.5" stroke-linecap="round" stroke-linejoin="round"/>
<path fill-rule="evenodd" clip-rule="evenodd" d="M14.7042 5.62323H9.29647C8.65237 5.62323 8.13086 5.10172 8.13086 4.45761C8.13086 3.81448 8.65237 3.29297 9.29647 3.29297H14.7042C15.3474 3.29297 15.8689 3.81448 15.8689 4.45761C15.8689 5.10172 15.3474 5.62323 14.7042 5.62323Z" stroke="black" stroke-width="1.5" stroke-linecap="round" stroke-linejoin="round"/>
<path d="M15.9377 13.1094V16.7765" stroke="black" stroke-width="1.5" stroke-linecap="round" stroke-linejoin="round"/>
<path d="M12.0763 13.1094V16.7765" stroke="black" stroke-width="1.5" stroke-linecap="round" stroke-linejoin="round"/>
<path d="M8.21695 13.1094V16.7765" stroke="black" stroke-width="1.5" stroke-linecap="round" stroke-linejoin="round"/>
<path fill-rule="evenodd" clip-rule="evenodd" d="M7.12136 20.7094C5.9898 20.7094 4.51284 19.9359 4.14213 17.914L3.17209 13.2613C2.52701 10.4835 3.74127 9.18359 6.04818 9.18359H17.9515C20.2584 9.18359 21.4736 10.4835 20.8276 13.2613L19.8575 17.914C19.4868 19.9359 18.0098 20.7094 16.8783 20.7094H7.12136Z" stroke="black" stroke-width="1.5" stroke-linecap="round" stroke-linejoin="round"/>
</svg>