<svg width="25" height="24" viewBox="0 0 25 24" fill="none" xmlns="http://www.w3.org/2000/svg">
<path d="M10.08 16.8524C9.40732 16.8508 8.75469 16.6232 8.22694 16.2061C7.6992 15.7889 7.32696 15.2066 7.17 14.5524L4.64999 3.89844H3.25C3.05109 3.89844 2.86032 3.81942 2.71967 3.67877C2.57901 3.53812 2.5 3.34735 2.5 3.14844C2.5 2.94953 2.57901 2.75876 2.71967 2.61811C2.86032 2.47746 3.05109 2.39844 3.25 2.39844H5.25C5.41896 2.39862 5.58293 2.45577 5.71539 2.56065C5.84786 2.66553 5.94107 2.81202 5.98 2.97644L6.605 5.62344L20.126 5.51344C20.4177 5.51128 20.7057 5.5777 20.967 5.70734C21.2283 5.83698 21.4554 6.02621 21.6301 6.25977C21.8048 6.49333 21.9221 6.76468 21.9726 7.05193C22.0232 7.33918 22.0055 7.63428 21.921 7.91344L20.088 13.9134C19.9029 14.5284 19.538 15.0739 19.0402 15.4797C18.5425 15.8855 17.9346 16.133 17.295 16.1904L10.357 16.8334C10.263 16.8484 10.171 16.8524 10.08 16.8524ZM6.95599 7.11844L8.63 14.2064C8.71467 14.5545 8.92112 14.8609 9.21202 15.07C9.50292 15.279 9.85907 15.3771 10.216 15.3464L17.15 14.6984C17.4933 14.6683 17.8198 14.536 18.0871 14.3185C18.3545 14.101 18.5506 13.8084 18.65 13.4784L20.484 7.47244C20.5009 7.41828 20.5046 7.36085 20.4947 7.30499C20.4847 7.24912 20.4615 7.19646 20.427 7.15144C20.3528 7.06671 20.2483 7.01461 20.136 7.00644L6.95599 7.11844Z" fill="black"/>
<path d="M15.2504 11.6875H12.1094C11.9105 11.6875 11.7197 11.6085 11.5791 11.4678C11.4384 11.3272 11.3594 11.1364 11.3594 10.9375C11.3594 10.7386 11.4384 10.5478 11.5791 10.4072C11.7197 10.2665 11.9105 10.1875 12.1094 10.1875H15.2504C15.4493 10.1875 15.6401 10.2665 15.7807 10.4072C15.9214 10.5478 16.0004 10.7386 16.0004 10.9375C16.0004 11.1364 15.9214 11.3272 15.7807 11.4678C15.6401 11.6085 15.4493 11.6875 15.2504 11.6875Z" fill="black"/>
<path d="M13.6836 13.2582C13.4847 13.2582 13.2939 13.1792 13.1533 13.0385C13.0126 12.8979 12.9336 12.7071 12.9336 12.5082V9.36719C12.9336 9.16828 13.0126 8.97751 13.1533 8.83686C13.2939 8.6962 13.4847 8.61719 13.6836 8.61719C13.8825 8.61719 14.0733 8.6962 14.2139 8.83686C14.3546 8.97751 14.4336 9.16828 14.4336 9.36719V12.5082C14.4336 12.7071 14.3546 12.8979 14.2139 13.0385C14.0733 13.1792 13.8825 13.2582 13.6836 13.2582Z" fill="black"/>
<path d="M9.13239 21.6007C9.81281 21.6007 10.3644 21.0491 10.3644 20.3687C10.3644 19.6883 9.81281 19.1367 9.13239 19.1367C8.45198 19.1367 7.90039 19.6883 7.90039 20.3687C7.90039 21.0491 8.45198 21.6007 9.13239 21.6007Z" fill="black"/>
<path d="M18.3423 21.5987C18.0989 21.5987 17.8609 21.5265 17.6585 21.3913C17.4561 21.2561 17.2983 21.0639 17.2051 20.839C17.1119 20.6142 17.0875 20.3667 17.1349 20.1279C17.1823 19.8892 17.2995 19.6698 17.4715 19.4976C17.6436 19.3254 17.8628 19.2081 18.1016 19.1605C18.3403 19.1129 18.5878 19.1371 18.8127 19.2301C19.0377 19.3232 19.23 19.4808 19.3654 19.6831C19.5008 19.8854 19.5731 20.1233 19.5733 20.3667C19.5728 20.6931 19.443 21.006 19.2123 21.2369C18.9815 21.4678 18.6687 21.5979 18.3423 21.5987Z" fill="black"/>
</svg>