<svg width="25" height="24" viewBox="0 0 25 24" fill="none" xmlns="http://www.w3.org/2000/svg">
<path d="M10.0761 16.8524C9.4034 16.8508 8.7508 16.6232 8.22305 16.2061C7.69531 15.7889 7.32306 15.2066 7.16611 14.5524L4.64609 3.89844H3.24609C3.04718 3.89844 2.85641 3.81942 2.71576 3.67877C2.57511 3.53812 2.49609 3.34735 2.49609 3.14844C2.49609 2.94953 2.57511 2.75876 2.71576 2.61811C2.85641 2.47746 3.04718 2.39844 3.24609 2.39844H5.24609C5.41505 2.39862 5.57902 2.45577 5.71149 2.56065C5.84395 2.66553 5.93718 2.81202 5.9761 2.97644L6.6011 5.62344L20.1221 5.51344C20.4141 5.5107 20.7027 5.57668 20.9644 5.70605C21.2262 5.83542 21.4539 6.02455 21.6292 6.25816C21.8044 6.49177 21.9222 6.76331 21.9731 7.05086C22.0239 7.3384 22.0065 7.63388 21.9221 7.91344L20.0891 13.9134C19.9031 14.5292 19.537 15.0751 19.0379 15.4809C18.5389 15.8867 17.9298 16.1339 17.2891 16.1904L10.3521 16.8334C10.2591 16.8484 10.1671 16.8524 10.0761 16.8524ZM6.95209 7.11844L8.6261 14.2064C8.71076 14.5545 8.91723 14.8609 9.20813 15.07C9.49903 15.279 9.85516 15.3771 10.2121 15.3464L17.1461 14.6984C17.4894 14.6682 17.8157 14.5358 18.0831 14.3183C18.3505 14.1009 18.5465 13.8084 18.6461 13.4784L20.4791 7.47244C20.4965 7.41846 20.5005 7.36108 20.4909 7.30519C20.4814 7.2493 20.4584 7.19656 20.4241 7.15144C20.3831 7.09644 20.2561 6.97044 20.1321 7.00644L6.95209 7.11844Z" fill="black"/>
<path d="M13.2215 12.7653C13.1228 12.7654 13.0251 12.746 12.934 12.7083C12.8429 12.6705 12.7601 12.6151 12.6905 12.5453L11.4475 11.2993C11.3759 11.2301 11.3188 11.1473 11.2795 11.0558C11.2402 10.9643 11.2196 10.8658 11.2188 10.7662C11.218 10.6667 11.237 10.5679 11.2747 10.4758C11.3125 10.3836 11.3682 10.2999 11.4387 10.2295C11.5091 10.1591 11.5929 10.1035 11.6851 10.0658C11.7773 10.0281 11.876 10.0092 11.9756 10.0101C12.0752 10.011 12.1736 10.0318 12.2651 10.0711C12.3566 10.1105 12.4393 10.1676 12.5084 10.2393L13.2265 10.9573L15.1935 8.9893C15.2602 8.90901 15.343 8.84354 15.4365 8.79708C15.53 8.75063 15.6322 8.7242 15.7365 8.71951C15.8408 8.71481 15.9449 8.73195 16.0422 8.76982C16.1395 8.80769 16.2278 8.86546 16.3015 8.93943C16.3752 9.01339 16.4326 9.10194 16.4701 9.19938C16.5076 9.29683 16.5244 9.40103 16.5193 9.50531C16.5142 9.6096 16.4874 9.71168 16.4406 9.80501C16.3938 9.89834 16.328 9.98086 16.2475 10.0473L13.7475 12.5473C13.6077 12.6864 13.4187 12.7647 13.2215 12.7653Z" fill="black"/>
<path d="M9.11272 21.5987C8.86942 21.5977 8.63187 21.5247 8.43007 21.3888C8.22827 21.2528 8.07128 21.0602 7.9789 20.8351C7.88652 20.61 7.86292 20.3626 7.91106 20.1241C7.9592 19.8856 8.07692 19.6668 8.24938 19.4952C8.42183 19.3235 8.64127 19.2069 8.87999 19.1599C9.11871 19.1129 9.366 19.1377 9.59062 19.2312C9.81525 19.3247 10.0072 19.4826 10.1421 19.6851C10.277 19.8875 10.3489 20.1254 10.3487 20.3687C10.3483 20.5306 10.316 20.6909 10.2537 20.8403C10.1914 20.9898 10.1002 21.1255 9.98546 21.2397C9.87069 21.3539 9.73454 21.4444 9.5848 21.506C9.43505 21.5676 9.27464 21.5991 9.11272 21.5987Z" fill="black"/>
<path d="M18.3208 21.5987C19.0007 21.5987 19.5518 21.0476 19.5518 20.3677C19.5518 19.6879 19.0007 19.1367 18.3208 19.1367C17.641 19.1367 17.0898 19.6879 17.0898 20.3677C17.0898 21.0476 17.641 21.5987 18.3208 21.5987Z" fill="black"/>
</svg>