<?xml version="1.0" encoding="UTF-8"?>
<svg width="24px" height="24px" viewBox="0 0 24 24" version="1.1" xmlns="http://www.w3.org/2000/svg" xmlns:xlink="http://www.w3.org/1999/xlink">
    <title>Iconly/Light-Outline/Show</title>
    <g id="Iconly/Light-Outline/Show" stroke="none" stroke-width="1" fill="none" fill-rule="evenodd">
        <g id="Show" transform="translate(2.000000, 4.000000)" fill="#000000">
            <path d="M10.0029,0.0005 C14.1389,0.0035 17.8529,2.9025 19.9389,7.7565 C20.0209,7.9455 20.0209,8.1595 19.9389,8.3485 C17.8539,13.2035 14.1389,16.1025 10.0029,16.1055 L9.9969,16.1055 C5.8609,16.1025 2.1469,13.2035 0.0609,8.3485 C-0.0201,8.1595 -0.0201,7.9455 0.0609,7.7565 C2.1469,2.9025 5.8619,0.0035 9.9969,0.0005 L10.0029,0.0005 Z M9.9999,1.5005 C6.5639,1.5015 3.4299,3.9445 1.5699,8.0525 C3.4299,12.1615 6.5629,14.6045 9.9999,14.6055 C13.4369,14.6045 16.5699,12.1615 18.4299,8.0525 C16.5699,3.9445 13.4369,1.5015 9.9999,1.5005 Z M9.9996,4.1413 C12.1566,4.1413 13.9116,5.8963 13.9116,8.0533 C13.9116,10.2093 12.1566,11.9633 9.9996,11.9633 C7.8426,11.9633 6.0886,10.2093 6.0886,8.0533 C6.0886,5.8963 7.8426,4.1413 9.9996,4.1413 Z M9.9996,5.6413 C8.6696,5.6413 7.5886,6.7233 7.5886,8.0533 C7.5886,9.3823 8.6696,10.4633 9.9996,10.4633 C11.3296,10.4633 12.4116,9.3823 12.4116,8.0533 C12.4116,6.7233 11.3296,5.6413 9.9996,5.6413 Z" id="Combined-Shape"></path>
        </g>
    </g>
</svg>