<svg width="25" height="24" viewBox="0 0 25 24" fill="none" xmlns="http://www.w3.org/2000/svg">
<path opacity="0.4" d="M15.0263 6.84925V5.49977C15.0263 3.97906 13.6797 2.81055 12.1746 3.02557L7.6844 3.66674C6.45266 3.84187 5.53809 4.89654 5.53809 6.13997V16.9183" stroke="black" stroke-width="1.5" stroke-linecap="round" stroke-linejoin="round"/>
<path fill-rule="evenodd" clip-rule="evenodd" d="M10.5918 11.285C10.5918 8.76413 12.6943 6.73457 15.2415 6.85521C17.6272 6.9671 19.4621 9.02196 19.4621 11.4105C19.4621 11.8727 19.0876 12.2473 18.6254 12.2473H11.4285C10.9664 12.2473 10.5918 11.8727 10.5918 11.4105V11.285Z" stroke="black" stroke-width="1.5" stroke-linecap="round" stroke-linejoin="round"/>
<path opacity="0.4" d="M12.248 15.2305V17.3914M12.248 20.0059V21.0002M17.8054 15.2305V17.3914M17.8054 20.0059V21.0002M15.0272 19.6463V18.327M15.0272 15.7131V15.2305" stroke="black" stroke-width="1.5" stroke-linecap="round" stroke-linejoin="round"/>
</svg>