<svg width="25" height="24" viewBox="0 0 25 24" fill="none" xmlns="http://www.w3.org/2000/svg">
<path fill-rule="evenodd" clip-rule="evenodd" d="M11.8185 2.28325C13.7758 2.00366 15.5263 3.52313 15.5263 5.49992V6.84939C15.5263 7.2636 15.1905 7.59939 14.7763 7.59939C14.362 7.59939 14.0263 7.2636 14.0263 6.84939V5.49992C14.0263 4.43529 13.0836 3.61775 12.0306 3.76818L7.54043 4.40935C6.67857 4.53189 6.03809 5.26992 6.03809 6.14011V16.9184C6.03809 17.3326 5.7023 17.6684 5.28809 17.6684C4.87387 17.6684 4.53809 17.3326 4.53809 16.9184V6.14011C4.53809 4.5236 5.72696 3.15233 7.32838 2.92442L11.8185 2.28325C11.8185 2.28325 11.8185 2.28324 11.8185 2.28325Z" fill="black"/>
<path fill-rule="evenodd" clip-rule="evenodd" d="M14.956 7.60439C12.8387 7.50411 11.0918 9.19012 11.0918 11.2851V11.4106C11.0918 11.4585 11.1306 11.4973 11.1785 11.4973H18.3754C18.4233 11.4973 18.4621 11.4585 18.4621 11.4106C18.4621 9.39415 16.9142 7.69623 14.9564 7.60441L14.956 7.60439ZM15.0266 6.10606C12.0498 5.96525 9.5918 8.3383 9.5918 11.2851V11.4106C9.5918 12.2869 10.3022 12.9973 11.1785 12.9973H18.3754C19.2518 12.9973 19.9621 12.2869 19.9621 11.4106C19.9621 8.64993 17.8404 6.23821 15.027 6.10607" fill="black"/>
<path fill-rule="evenodd" clip-rule="evenodd" d="M11.998 14.4805C12.4123 14.4805 12.748 14.8163 12.748 15.2305V17.3914C12.748 17.8056 12.4123 18.1414 11.998 18.1414C11.5838 18.1414 11.248 17.8056 11.248 17.3914V15.2305C11.248 14.8163 11.5838 14.4805 11.998 14.4805ZM17.5554 14.4805C17.9696 14.4805 18.3054 14.8163 18.3054 15.2305V17.3914C18.3054 17.8056 17.9696 18.1414 17.5554 18.1414C17.1412 18.1414 16.8054 17.8056 16.8054 17.3914V15.2305C16.8054 14.8163 17.1412 14.4805 17.5554 14.4805ZM14.7772 14.4805C15.1914 14.4805 15.5272 14.8163 15.5272 15.2305V15.7131C15.5272 16.1273 15.1914 16.4631 14.7772 16.4631C14.363 16.4631 14.0272 16.1273 14.0272 15.7131V15.2305C14.0272 14.8163 14.363 14.4805 14.7772 14.4805ZM14.7772 17.577C15.1914 17.577 15.5272 17.9128 15.5272 18.327V19.6463C15.5272 20.0605 15.1914 20.3963 14.7772 20.3963C14.363 20.3963 14.0272 20.0605 14.0272 19.6463V18.327C14.0272 17.9128 14.363 17.577 14.7772 17.577ZM11.998 19.2559C12.4123 19.2559 12.748 19.5917 12.748 20.0059V21.0002C12.748 21.4144 12.4123 21.7502 11.998 21.7502C11.5838 21.7502 11.248 21.4144 11.248 21.0002V20.0059C11.248 19.5917 11.5838 19.2559 11.998 19.2559ZM17.5554 19.2559C17.9696 19.2559 18.3054 19.5917 18.3054 20.0059V21.0002C18.3054 21.4144 17.9696 21.7502 17.5554 21.7502C17.1412 21.7502 16.8054 21.4144 16.8054 21.0002V20.0059C16.8054 19.5917 17.1412 19.2559 17.5554 19.2559Z" fill="black"/>
</svg>