<svg width="25" height="25" viewBox="0 0 25 25" fill="none" xmlns="http://www.w3.org/2000/svg">
<path opacity="0.4" fill-rule="evenodd" clip-rule="evenodd" d="M12.25 4.802C6.84805 4.802 2.49805 9.07 2.49805 12.604C2.49805 16.138 6.84805 20.406 12.25 20.406C17.652 20.406 22.002 16.138 22.002 12.604C22.002 9.07 17.652 4.802 12.25 4.802Z" fill="black"/>
<path fill-rule="evenodd" clip-rule="evenodd" d="M12.2499 16.5161C10.0929 16.5161 8.33789 14.7611 8.33789 12.6041C8.33789 10.4471 10.0929 8.69214 12.2499 8.69214C14.4069 8.69214 16.1619 10.4471 16.1619 12.6041C16.1619 14.7611 14.4069 16.5161 12.2499 16.5161ZM9.83789 12.6038C9.83789 11.2738 10.9199 10.1918 12.2499 10.1918C13.5799 10.1918 14.6619 11.2738 14.6619 12.6038C14.6619 13.9338 13.5799 15.0158 12.2499 15.0158C10.9199 15.0158 9.83789 13.9338 9.83789 12.6038Z" fill="black"/>
</svg>