<svg width="24" height="24" viewBox="0 0 24 24" fill="none" xmlns="http://www.w3.org/2000/svg">
<path fill-rule="evenodd" clip-rule="evenodd" d="M15.402 6.42645V5.49845C15.402 4.55445 14.992 3.65945 14.278 3.04045C13.566 2.42445 12.625 2.14945 11.694 2.28645L7.20802 2.92545C5.61402 3.14545 4.41302 4.52745 4.41302 6.13845V16.9185C4.41302 17.3325 4.74902 17.6685 5.16302 17.6685C5.57702 17.6685 5.91302 17.3325 5.91302 16.9185V6.13845C5.91302 5.27245 6.55802 4.53045 7.41602 4.41145L11.908 3.77045C12.408 3.69645 12.914 3.84445 13.298 4.17545C13.682 4.50845 13.902 4.99045 13.902 5.49845V6.39745C12.909 6.54645 11.99 6.99745 11.246 7.70645C10.26 8.64845 9.71702 9.91545 9.71702 11.2785V11.4095C9.71702 12.1485 10.317 12.7485 11.054 12.7485H18.25C18.987 12.7485 19.587 12.1485 19.587 11.4095C19.587 8.88445 17.783 6.80345 15.402 6.42645Z" fill="black"/>
<path fill-rule="evenodd" clip-rule="evenodd" d="M11.8732 19.2588C11.4592 19.2588 11.1232 19.5948 11.1232 20.0088V20.9988C11.1232 21.4128 11.4592 21.7488 11.8732 21.7488C12.2872 21.7488 12.6232 21.4128 12.6232 20.9988V20.0088C12.6232 19.5948 12.2872 19.2588 11.8732 19.2588Z" fill="black"/>
<path fill-rule="evenodd" clip-rule="evenodd" d="M11.8732 14.4785C11.4592 14.4785 11.1232 14.8145 11.1232 15.2285V17.3885C11.1232 17.8025 11.4592 18.1385 11.8732 18.1385C12.2872 18.1385 12.6232 17.8025 12.6232 17.3885V15.2285C12.6232 14.8145 12.2872 14.4785 11.8732 14.4785Z" fill="black"/>
<path fill-rule="evenodd" clip-rule="evenodd" d="M14.652 17.5791C14.238 17.5791 13.902 17.9151 13.902 18.3291V19.6481C13.902 20.0621 14.238 20.3981 14.652 20.3981C15.066 20.3981 15.402 20.0621 15.402 19.6481V18.3291C15.402 17.9151 15.066 17.5791 14.652 17.5791Z" fill="black"/>
<path fill-rule="evenodd" clip-rule="evenodd" d="M17.4304 14.4785C17.0164 14.4785 16.6804 14.8145 16.6804 15.2285V17.3885C16.6804 17.8025 17.0164 18.1385 17.4304 18.1385C17.8444 18.1385 18.1804 17.8025 18.1804 17.3885V15.2285C18.1804 14.8145 17.8444 14.4785 17.4304 14.4785Z" fill="black"/>
<path fill-rule="evenodd" clip-rule="evenodd" d="M14.652 14.4785C14.238 14.4785 13.902 14.8145 13.902 15.2285V15.7085C13.902 16.1235 14.238 16.4585 14.652 16.4585C15.066 16.4585 15.402 16.1235 15.402 15.7085V15.2285C15.402 14.8145 15.066 14.4785 14.652 14.4785Z" fill="black"/>
<path fill-rule="evenodd" clip-rule="evenodd" d="M17.4304 19.2588C17.0164 19.2588 16.6804 19.5948 16.6804 20.0088V20.9988C16.6804 21.4128 17.0164 21.7488 17.4304 21.7488C17.8444 21.7488 18.1804 21.4128 18.1804 20.9988V20.0088C18.1804 19.5948 17.8444 19.2588 17.4304 19.2588Z" fill="black"/>
</svg>