<svg width="24" height="24" viewBox="0 0 24 24" fill="none" xmlns="http://www.w3.org/2000/svg">
<path fill-rule="evenodd" clip-rule="evenodd" d="M13.25 14C13.25 13.5858 13.5858 13.25 14 13.25H20C20.4142 13.25 20.75 13.5858 20.75 14C20.75 14.4142 20.4142 14.75 20 14.75H14.75V20C14.75 20.4142 14.4142 20.75 14 20.75C13.5858 20.75 13.25 20.4142 13.25 20V14Z" fill="black"/>
<path fill-rule="evenodd" clip-rule="evenodd" d="M10 3.25C10.4142 3.25 10.75 3.58579 10.75 4V10C10.75 10.4142 10.4142 10.75 10 10.75H4C3.58579 10.75 3.25 10.4142 3.25 10C3.25 9.58579 3.58579 9.25 4 9.25H9.25V4C9.25 3.58579 9.58579 3.25 10 3.25Z" fill="black"/>
</svg>