<svg width="24" height="24" viewBox="0 0 24 24" fill="none" xmlns="http://www.w3.org/2000/svg">
<path fill-rule="evenodd" clip-rule="evenodd" d="M3.25 14C3.25 13.5858 3.58579 13.25 4 13.25H10C10.4142 13.25 10.75 13.5858 10.75 14V20C10.75 20.4142 10.4142 20.75 10 20.75C9.58579 20.75 9.25 20.4142 9.25 20V14.75H4C3.58579 14.75 3.25 14.4142 3.25 14Z" fill="black"/>
<path fill-rule="evenodd" clip-rule="evenodd" d="M14 3.25C14.4142 3.25 14.75 3.58579 14.75 4V9.25H20C20.4142 9.25 20.75 9.58579 20.75 10C20.75 10.4142 20.4142 10.75 20 10.75H14C13.5858 10.75 13.25 10.4142 13.25 10V4C13.25 3.58579 13.5858 3.25 14 3.25Z" fill="black"/>
</svg>