<svg width="24" height="24" viewBox="0 0 24 24" fill="none" xmlns="http://www.w3.org/2000/svg">
<path d="M14.8633 7.79688C14.8633 7.79688 15.671 8.60444 16.1876 9.12104C15.671 9.63864 14.8633 10.4448 14.8633 10.4448" stroke="black" stroke-width="1.5" stroke-linecap="round" stroke-linejoin="round"/>
<path d="M14.8633 13.5508C14.8633 13.5508 15.6707 14.3582 16.1873 14.8748C15.6707 15.3923 14.8633 16.1997 14.8633 16.1997" stroke="black" stroke-width="1.5" stroke-linecap="round" stroke-linejoin="round"/>
<path d="M16.1876 14.8777C14.6178 14.8777 12.7866 14.8776 11.7394 11.9998C10.6932 9.12107 9.38423 9.12109 7.81445 9.12109" stroke="black" stroke-width="1.5" stroke-linecap="round" stroke-linejoin="round"/>
<path d="M16.1879 9.12109C14.6182 9.12109 12.7866 9.12109 11.7394 11.9989C10.6932 14.8776 9.38423 14.8776 7.81445 14.8776" stroke="black" stroke-width="1.5" stroke-linecap="round" stroke-linejoin="round"/>
<path d="M15.1982 21H15.9736C18.9188 21 21 19.165 21 16.2169V7.78216C21 4.84281 18.9188 3 15.9736 3H8.02638C5.08119 3 3 4.83405 3 7.78216V16.2159C3 19.165 5.08119 21 8.02638 21H11.762" stroke="black" stroke-width="1.5" stroke-linecap="round" stroke-linejoin="round"/>
</svg>