<svg width="24" height="24" viewBox="0 0 24 24" fill="none" xmlns="http://www.w3.org/2000/svg">
<path fill-rule="evenodd" clip-rule="evenodd" d="M17.8475 14.1705C17.5455 13.9355 17.1365 13.8925 16.7935 14.0605C16.4505 14.2285 16.2325 14.5765 16.2325 14.9595V16.1325C15.5875 15.9345 14.9725 15.6255 14.4095 15.1345C13.9955 14.7705 13.3625 14.8135 12.9985 15.2295C12.6355 15.6455 12.6775 16.2765 13.0935 16.6405C14.0795 17.5015 15.1565 17.9505 16.2325 18.1945V20.0005C16.2325 20.3825 16.4505 20.7315 16.7935 20.8985C16.9325 20.9665 17.0825 21.0005 17.2325 21.0005C17.4515 21.0005 17.6675 20.9285 17.8475 20.7885C17.9295 20.7245 19.8775 19.2025 20.8925 18.1875C21.2835 17.7965 21.2835 17.1645 20.8935 16.7735C19.8775 15.7565 17.9295 14.2345 17.8475 14.1705Z" fill="black"/>
<path fill-rule="evenodd" clip-rule="evenodd" d="M3.81616 7.52344C5.63416 7.52344 7.07116 7.52344 8.29416 8.73144C8.48916 8.92444 8.74316 9.02044 8.99716 9.02044C9.25416 9.02044 9.51216 8.92144 9.70816 8.72344C10.0962 8.33044 10.0922 7.69744 9.70016 7.30944C7.89316 5.52344 5.82016 5.52344 3.81616 5.52344C3.26316 5.52344 2.81616 5.97144 2.81616 6.52344C2.81616 7.07544 3.26316 7.52344 3.81616 7.52344Z" fill="black"/>
<path fill-rule="evenodd" clip-rule="evenodd" d="M16.2321 7.86155V9.04055C16.2321 9.42355 16.4501 9.77155 16.7941 9.93955C16.9321 10.0076 17.0831 10.0406 17.2321 10.0406C17.4511 10.0406 17.6681 9.96855 17.8471 9.82955C17.9291 9.76455 19.8781 8.24355 20.8921 7.22755C21.2831 6.83755 21.2831 6.20455 20.8931 5.81455C19.8781 4.79755 17.9291 3.27555 17.8471 3.21155C17.5451 2.97655 17.1361 2.93355 16.7941 3.10155C16.4501 3.26855 16.2321 3.61755 16.2321 3.99955V5.80155C14.0161 6.30155 11.7841 7.70255 10.3461 11.6556C8.59215 16.4776 6.69115 16.4776 3.81415 16.4776C3.26115 16.4776 2.81415 16.9256 2.81415 17.4776C2.81415 18.0296 3.26115 18.4776 3.81415 18.4776C6.85215 18.4776 9.99315 18.4776 12.2251 12.3396C13.2571 9.50355 14.6541 8.34255 16.2321 7.86155Z" fill="black"/>
</svg>