<svg width="24" height="24" viewBox="0 0 24 24" fill="none" xmlns="http://www.w3.org/2000/svg">
<path fill-rule="evenodd" clip-rule="evenodd" d="M4.9204 19.1649C5.64655 19.8411 6.70921 20.25 8.02658 20.25H15.9734C17.2908 20.25 18.3534 19.8411 19.0795 19.1648C19.7997 18.4941 20.2495 17.5048 20.2495 16.2157V7.78228C20.2495 6.49377 19.7997 5.50505 19.0797 4.83469C18.3535 4.15869 17.2909 3.75 15.9734 3.75L8.02658 3.75C6.71006 3.75 5.64727 4.16036 4.92068 4.83771C4.19993 5.50963 3.75049 6.49877 3.75049 7.78228L3.75049 16.2167C3.75049 17.5052 4.20026 18.4943 4.9204 19.1649ZM3.89814 20.2626C2.84141 19.2785 2.25049 17.8759 2.25049 16.2167L2.25049 7.78228C2.25049 6.12708 2.84174 4.72508 3.89785 3.74053C4.94813 2.76142 6.39839 2.25 8.02658 2.25L15.9734 2.25C17.6006 2.25 19.051 2.7586 20.1018 3.73681C21.1586 4.72066 21.7495 6.12308 21.7495 7.78228V16.2157C21.7495 17.8753 21.1586 19.2782 20.1019 20.2624C19.0512 21.2411 17.6007 21.75 15.9734 21.75H8.02658C6.39924 21.75 4.94885 21.2411 3.89814 20.2626Z" fill="black"/>
<path fill-rule="evenodd" clip-rule="evenodd" d="M8.82432 13.6652C9.30836 12.7851 10.2222 12.1087 11.7442 11.5556C13.0384 11.0846 13.5782 10.4837 13.8366 9.91987C14.1174 9.30716 14.1282 8.62285 14.1282 7.81226C14.1282 7.39804 14.464 7.06226 14.8782 7.06226C15.2924 7.06226 15.6282 7.39804 15.6282 7.81226C15.6282 7.82982 15.6282 7.84751 15.6282 7.86534C15.6285 8.61842 15.6288 9.60979 15.2003 10.5448C14.7392 11.5508 13.8402 12.3891 12.2568 12.9653C10.9001 13.4583 10.3743 13.9596 10.1386 14.3881C9.88714 14.8453 9.87164 15.3637 9.87164 16.1854C9.87164 16.5996 9.53586 16.9354 9.12164 16.9354C8.70743 16.9354 8.37164 16.5996 8.37164 16.1854C8.37164 16.1624 8.37163 16.1391 8.37161 16.1157C8.37115 15.3806 8.37058 14.4901 8.82432 13.6652Z" fill="black"/>
<path fill-rule="evenodd" clip-rule="evenodd" d="M8.37159 7.86517C8.3716 7.84731 8.37161 7.82959 8.37161 7.81201C8.37161 7.3978 8.70739 7.06201 9.12161 7.06201C9.53582 7.06201 9.87161 7.3978 9.87161 7.81201C9.87161 8.62262 9.88234 9.30702 10.1632 9.91982C10.4216 10.4837 10.9614 11.0847 12.2555 11.5557C13.7776 12.1088 14.6914 12.7852 15.1754 13.6652C15.6292 14.4902 15.6286 15.3807 15.6282 16.1158C15.6281 16.1392 15.6281 16.1624 15.6281 16.1855C15.6281 16.5997 15.2923 16.9355 14.8781 16.9355C14.4639 16.9355 14.1281 16.5997 14.1281 16.1855C14.1281 15.3638 14.1126 14.8454 13.8611 14.3881C13.6255 13.9597 13.0999 13.4585 11.7432 12.9654C10.1598 12.3893 9.26052 11.5508 8.7995 10.5447C8.37103 9.60963 8.37135 8.61823 8.37159 7.86517Z" fill="black"/>
<path d="M7.04649 9.14922C7.04331 8.95293 7.11655 8.75567 7.26621 8.60626L8.59043 7.28204C8.76841 7.10333 9.01377 7.03399 9.24448 7.07305C9.39317 7.09747 9.53574 7.1668 9.65049 7.28106L10.9747 8.60625C11.2672 8.89922 11.2674 9.37481 10.9742 9.66778C10.681 9.95977 10.2062 9.95977 9.91367 9.6668L9.44614 9.19805L9.12095 8.87286L8.32676 9.6668C8.03403 9.95977 7.55918 9.95977 7.26621 9.6668C7.1229 9.52325 7.04966 9.33672 7.04649 9.14922Z" fill="black"/>
<path d="M12.8004 9.14922C12.7972 8.95293 12.8705 8.75567 13.0201 8.60626L14.3443 7.28204C14.5223 7.10333 14.7677 7.03399 14.9984 7.07305C15.1471 7.09747 15.2896 7.1668 15.4044 7.28106L16.7286 8.60625C17.0211 8.89922 17.0213 9.37481 16.7281 9.66778C16.4349 9.95977 15.9601 9.95977 15.6676 9.6668L15.2001 9.19805L14.8749 8.87286L14.0807 9.6668C13.7879 9.95977 13.3131 9.95977 13.0201 9.6668C12.8768 9.52325 12.8036 9.33672 12.8004 9.14922Z" fill="black"/>
</svg>