<svg width="25" height="24" viewBox="0 0 25 24" fill="none" xmlns="http://www.w3.org/2000/svg">
<path fill-rule="evenodd" clip-rule="evenodd" d="M12.25 3.75C7.69329 3.75 4 7.44329 4 12C4 16.5567 7.69329 20.25 12.25 20.25C16.8067 20.25 20.5 16.5567 20.5 12C20.5 7.44329 16.8067 3.75 12.25 3.75ZM2.5 12C2.5 6.61487 6.86487 2.25 12.25 2.25C17.6351 2.25 22 6.61487 22 12C22 17.3851 17.6351 21.75 12.25 21.75C6.86487 21.75 2.5 17.3851 2.5 12Z" fill="black"/>
<path fill-rule="evenodd" clip-rule="evenodd" d="M8.08984 12.001C8.08984 9.70278 9.95278 7.83984 12.251 7.83984C14.5492 7.83984 16.4121 9.70278 16.4121 12.001V15.4121C16.4121 15.8263 16.0763 16.1621 15.6621 16.1621H12.251C9.95278 16.1621 8.08984 14.2992 8.08984 12.001ZM12.251 9.33984C10.7812 9.33984 9.58984 10.5312 9.58984 12.001C9.58984 13.4707 10.7812 14.6621 12.251 14.6621H14.9121V12.001C14.9121 10.5312 13.7207 9.33984 12.251 9.33984Z" fill="black"/>
</svg>