<svg width="24" height="24" viewBox="0 0 24 24" fill="none" xmlns="http://www.w3.org/2000/svg">
<path fill-rule="evenodd" clip-rule="evenodd" d="M15.0935 3.74996C14.2961 3.74583 13.4948 4.06908 12.9517 4.64576C12.9423 4.65573 12.9326 4.66544 12.9227 4.67489C12.5637 5.01644 12.3313 5.48951 12.1974 6.03694C12.9758 6.04936 13.7561 5.75444 14.2779 5.20704C14.2871 5.19741 14.2965 5.18803 14.3062 5.17891C14.6938 4.81337 14.9586 4.30954 15.0935 3.74996ZM11.8738 3.60249C12.948 2.47325 14.6188 2.00073 16.1234 2.37759C16.4716 2.46479 16.7091 2.78636 16.6902 3.14473C16.6319 4.24653 16.2272 5.42041 15.3498 6.25643C14.2702 7.37746 12.5995 7.77632 11.1451 7.39781C10.7885 7.305 10.5521 6.96685 10.5875 6.60004C10.6844 5.59472 11.0049 4.4388 11.8738 3.60249Z" fill="black"/>
<path fill-rule="evenodd" clip-rule="evenodd" d="M10.1391 9.64943C10.0211 9.65092 9.91464 9.65072 9.81666 9.65054C9.52649 9.65 9.31045 9.64959 9.08542 9.69366C8.52485 9.82961 8.00868 10.1065 7.62237 10.4961C7.6166 10.5019 7.61073 10.5077 7.60476 10.5133C7.01092 11.0742 6.68289 11.9291 6.69774 12.7882L6.69793 12.799C6.70017 13.5816 6.69967 14.3742 6.69924 15.1653C6.69887 15.8648 6.6985 16.5632 6.69997 17.2524C6.71606 18.1676 7.15215 19.0694 7.86277 19.6124L7.87676 19.6234C8.37952 20.0267 9.04128 20.248 9.70705 20.2498C10.4682 20.2508 11.2294 20.2505 11.9914 20.2503C12.7535 20.25 13.5163 20.2497 14.2792 20.2508L14.2844 20.2508C15.1062 20.2576 15.9252 19.9038 16.4812 19.3006L16.4846 19.297C17.0133 18.731 17.3136 17.9449 17.3025 17.1661L17.3024 17.1579C17.3001 16.482 17.3008 15.8128 17.3015 15.1456C17.3023 14.2639 17.3032 13.3857 17.2972 12.5C17.2414 11.0823 16.0433 9.78767 14.6528 9.66055C13.7428 9.64559 12.8436 9.64775 11.9365 9.64993C11.3426 9.65136 10.7452 9.65279 10.1391 9.64943ZM11.9061 8.14994C12.8371 8.14779 13.7767 8.14562 14.704 8.1612C14.7203 8.16147 14.7366 8.16227 14.7528 8.16361C16.9462 8.34369 18.72 10.3 18.7967 12.4569C18.7969 12.464 18.7971 12.4712 18.7971 12.4784C18.8032 13.3674 18.8023 14.2654 18.8015 15.16C18.8008 15.8266 18.8002 16.4913 18.8024 17.149C18.8178 18.3076 18.3774 19.4671 17.5825 20.3191C16.739 21.2331 15.5162 21.7602 14.2747 21.7508C13.5143 21.7497 12.7537 21.75 11.9924 21.7503H11.9907C11.2291 21.7505 10.4666 21.7508 9.70407 21.7497C8.72619 21.7472 7.73077 21.4265 6.94501 20.7989C5.85113 19.9594 5.22152 18.6165 5.20007 17.2714L5.19991 17.2611C5.19839 16.5534 5.19885 15.8549 5.19924 15.1577C5.19968 14.3769 5.20012 13.5976 5.19787 12.8084C5.17819 11.5847 5.63748 10.3134 6.56589 9.43126C7.17178 8.82381 7.94732 8.42291 8.75042 8.23146C8.75871 8.22949 8.76702 8.22765 8.77537 8.22596C9.16985 8.14601 9.59214 8.14805 9.91343 8.14959C9.99094 8.14997 10.0626 8.15031 10.1265 8.14947L10.1406 8.14929C10.722 8.15254 11.3123 8.15131 11.9061 8.14994ZM14.0505 10.7988C15.2484 10.7377 16.1854 11.8168 16.1479 12.9139C16.148 13.0346 16.1482 13.1553 16.1484 13.2761C16.1504 14.5329 16.1525 15.7934 16.1457 17.0532C16.1509 18.1626 15.1797 19.131 14.0553 19.0983C12.9067 19.101 11.7581 19.0999 10.6108 19.0989C10.3832 19.0987 10.1555 19.0985 9.92799 19.0983C8.82468 19.1179 7.84686 18.166 7.85882 17.0506C7.85425 16.1964 7.85494 15.338 7.85562 14.4825C7.85604 13.9615 7.85646 13.4415 7.85568 12.9242C7.81985 11.9316 8.57648 10.9094 9.66695 10.8103C9.68568 10.8086 9.70447 10.8076 9.72328 10.8073C10.6372 10.7932 11.5606 10.7956 12.4764 10.7979C13.0048 10.7993 13.5306 10.8006 14.0505 10.7988ZM9.78335 12.3066C9.57646 12.3394 9.34199 12.5956 9.35486 12.8737C9.35538 12.8849 9.35564 12.8961 9.35566 12.9073C9.35647 13.4373 9.35605 13.9651 9.35562 14.492C9.35493 15.3453 9.35424 16.1961 9.35884 17.0494L9.35876 17.0649C9.35476 17.3255 9.63281 17.6048 9.90345 17.5985L9.92133 17.5983C10.1517 17.5985 10.3821 17.5987 10.6124 17.5989C11.7642 17.5999 12.9146 17.601 14.0651 17.5983C14.0751 17.5983 14.0852 17.5985 14.0952 17.5989C14.3619 17.609 14.6478 17.3334 14.6457 17.0591L14.6457 17.0494C14.6524 15.7937 14.6504 14.5369 14.6484 13.2779C14.6482 13.1523 14.648 13.0267 14.6478 12.9011C14.6478 12.8895 14.6481 12.8779 14.6486 12.8664C14.6625 12.5545 14.3574 12.282 14.1213 12.2972C14.1062 12.2981 14.0911 12.2987 14.0759 12.2987C13.5288 12.3007 12.9878 12.2993 12.4497 12.2979C11.5581 12.2956 10.6744 12.2932 9.78335 12.3066Z" fill="black"/>
</svg>