<svg width="24" height="24" viewBox="0 0 24 24" fill="none" xmlns="http://www.w3.org/2000/svg">
<path fill-rule="evenodd" clip-rule="evenodd" d="M5.26172 12.0152C5.26172 8.30477 8.26962 5.29688 11.98 5.29688C15.6905 5.29688 18.6984 8.30477 18.6984 12.0152C18.6984 15.7256 15.6905 18.7335 11.98 18.7335C10.8481 18.7335 9.79779 18.4079 8.89161 17.93L6.35088 18.5652C6.09591 18.6289 5.82618 18.5545 5.6399 18.3691C5.45363 18.1837 5.37799 17.9144 5.44053 17.6591L6.06616 15.1055C5.58781 14.1989 5.26172 13.1479 5.26172 12.0152ZM11.98 6.79688C9.09804 6.79688 6.76172 9.1332 6.76172 12.0152C6.76172 12.9426 7.05624 13.8333 7.51354 14.6238C7.61045 14.7913 7.63885 14.9898 7.59279 15.1778L7.1933 16.8084L8.81399 16.4033C9.00293 16.3561 9.20284 16.3842 9.37142 16.4817C10.162 16.939 11.0527 17.2335 11.98 17.2335C14.862 17.2335 17.1984 14.8972 17.1984 12.0152C17.1984 9.1332 14.862 6.79688 11.98 6.79688Z" fill="black"/>
<path fill-rule="evenodd" clip-rule="evenodd" d="M7.44519 19.7733C7.60171 19.7576 7.75919 19.7916 7.89535 19.8703C8.16364 20.0255 8.44859 20.1265 8.75777 20.1898C9.16355 20.273 9.42511 20.6693 9.34197 21.0751C9.25883 21.4809 8.86247 21.7424 8.45669 21.6593C8.09037 21.5842 7.72493 21.4672 7.36696 21.2886L6.36081 21.3892C5.94866 21.4304 5.58113 21.1297 5.53991 20.7175C5.4987 20.3054 5.79941 19.9378 6.21156 19.8966L7.44519 19.7733Z" fill="black"/>
<path fill-rule="evenodd" clip-rule="evenodd" d="M3.22668 18.9764C3.63883 19.0177 3.93953 19.3852 3.89831 19.7974L3.86486 20.1318L4.24873 20.0934C4.66089 20.0522 5.02842 20.3529 5.06963 20.7651C5.11085 21.1772 4.81014 21.5447 4.39798 21.586L3.10197 21.7156C2.87814 21.7379 2.65607 21.6587 2.49701 21.4996C2.33795 21.3405 2.25868 21.1185 2.28107 20.8946L2.40576 19.6481C2.44698 19.2359 2.81452 18.9352 3.22668 18.9764Z" fill="black"/>
<path fill-rule="evenodd" clip-rule="evenodd" d="M2.92081 14.6317C3.32702 14.5507 3.72201 14.8143 3.80304 15.2205C3.86615 15.5369 3.96806 15.8279 4.1263 16.1014C4.20507 16.2376 4.23903 16.3951 4.22337 16.5516L4.10905 17.6945C4.06783 18.1067 3.70029 18.4074 3.28813 18.3661C2.87598 18.3249 2.57528 17.9574 2.6165 17.5452L2.70806 16.6298C2.52516 16.2632 2.40682 15.8889 2.33202 15.5139C2.25099 15.1077 2.5146 14.7127 2.92081 14.6317Z" fill="black"/>
<path fill-rule="evenodd" clip-rule="evenodd" d="M3.18414 10.1461C3.59533 10.196 3.88818 10.5698 3.83824 10.981C3.79829 11.3099 3.77769 11.645 3.77769 11.9853C3.77769 12.3148 3.76558 12.637 3.75223 12.9432C3.73418 13.357 3.38409 13.6779 2.97027 13.6598C2.55645 13.6418 2.23561 13.2917 2.25366 12.8779C2.26683 12.5757 2.27769 12.2805 2.27769 11.9853C2.27769 11.5844 2.30196 11.1889 2.34918 10.8001C2.39913 10.389 2.77295 10.0961 3.18414 10.1461Z" fill="black"/>
<path fill-rule="evenodd" clip-rule="evenodd" d="M5.39349 5.86242C5.71975 6.11762 5.77735 6.58899 5.52215 6.91525C5.07737 7.48386 4.7059 8.11208 4.42167 8.7857C4.26064 9.16733 3.82073 9.34617 3.4391 9.18514C3.05747 9.02412 2.87863 8.5842 3.03966 8.20257C3.37602 7.40539 3.81531 6.6627 4.34067 5.99107C4.59587 5.66481 5.06724 5.60721 5.39349 5.86242Z" fill="black"/>
<path fill-rule="evenodd" clip-rule="evenodd" d="M9.24379 3.40227C9.40345 3.78447 9.22304 4.22374 8.84083 4.3834C8.22334 4.64135 7.6437 4.9725 7.11279 5.36619C6.78007 5.61291 6.31034 5.54319 6.06362 5.21048C5.8169 4.87776 5.88662 4.40803 6.21933 4.16131C6.84653 3.69622 7.53188 3.30458 8.26265 2.99931C8.64486 2.83965 9.08413 3.02006 9.24379 3.40227Z" fill="black"/>
<path fill-rule="evenodd" clip-rule="evenodd" d="M10.5875 2.35358C11.0529 2.2853 11.5286 2.25 12.012 2.25C12.4295 2.25 12.8412 2.27633 13.2455 2.32749C13.6565 2.37949 13.9474 2.75477 13.8954 3.16571C13.8434 3.57665 13.4682 3.86762 13.0572 3.81562C12.7152 3.77234 12.3664 3.75 12.012 3.75C11.6017 3.75 11.1988 3.77996 10.8053 3.83769C10.3954 3.89782 10.0145 3.61434 9.95433 3.20451C9.8942 2.79469 10.1777 2.41371 10.5875 2.35358Z" fill="black"/>
<path fill-rule="evenodd" clip-rule="evenodd" d="M14.6888 3.37073C14.8443 2.98682 15.2816 2.80165 15.6656 2.95716C16.4928 3.29225 17.2633 3.73756 17.9586 4.27464C18.2865 4.52783 18.347 4.99884 18.0938 5.32666C17.8406 5.65448 17.3696 5.71498 17.0418 5.46178C16.453 5.0071 15.8014 4.63057 15.1024 4.34744C14.7185 4.19194 14.5333 3.75465 14.6888 3.37073Z" fill="black"/>
<path fill-rule="evenodd" clip-rule="evenodd" d="M18.5875 5.81492C18.9119 5.55741 19.3837 5.61167 19.6412 5.93611C20.2089 6.6514 20.6784 7.44872 21.0289 8.30772C21.1854 8.69123 21.0014 9.129 20.6179 9.2855C20.2344 9.442 19.7966 9.25797 19.6401 8.87446C19.3439 8.14866 18.9469 7.47423 18.4663 6.86863C18.2088 6.54419 18.263 6.07243 18.5875 5.81492Z" fill="black"/>
<path fill-rule="evenodd" clip-rule="evenodd" d="M20.8045 9.97607C21.2147 9.91822 21.5941 10.2038 21.6519 10.614C21.7151 11.0622 21.7478 11.52 21.7478 11.9849C21.7478 12.4498 21.7151 12.9075 21.6519 13.3558C21.5941 13.7659 21.2147 14.0515 20.8045 13.9937C20.3944 13.9358 20.1088 13.5564 20.1666 13.1463C20.2201 12.7672 20.2478 12.3795 20.2478 11.9849C20.2478 11.5903 20.2201 11.2025 20.1666 10.8235C20.1088 10.4133 20.3944 10.0339 20.8045 9.97607Z" fill="black"/>
<path fill-rule="evenodd" clip-rule="evenodd" d="M20.6336 14.636C21.018 14.7903 21.2045 15.227 21.0502 15.6114C20.7215 16.4301 20.285 17.1934 19.7586 17.8838C19.5074 18.2132 19.0368 18.2766 18.7074 18.0255C18.378 17.7743 18.3146 17.3037 18.5657 16.9743C19.0114 16.3898 19.3805 15.7442 19.6582 15.0526C19.8125 14.6682 20.2492 14.4817 20.6336 14.636Z" fill="black"/>
<path fill-rule="evenodd" clip-rule="evenodd" d="M18.1458 18.5955C18.4016 18.9213 18.3448 19.3928 18.019 19.6485C17.3245 20.1938 16.5537 20.6469 15.7249 20.989C15.342 21.1471 14.9035 20.9649 14.7454 20.582C14.5874 20.1992 14.7696 19.7606 15.1525 19.6026C15.8527 19.3134 16.5048 18.9303 17.0928 18.4687C17.4186 18.2129 17.89 18.2697 18.1458 18.5955Z" fill="black"/>
<path fill-rule="evenodd" clip-rule="evenodd" d="M13.9815 20.7853C14.0375 21.1957 13.7502 21.5738 13.3398 21.6298C12.9053 21.6891 12.4621 21.7197 12.0121 21.7197C11.6809 21.7197 11.3509 21.7333 11.0111 21.7485C10.5973 21.767 10.2468 21.4466 10.2283 21.0328C10.2098 20.619 10.5302 20.2685 10.944 20.25C11.2831 20.2348 11.6436 20.2197 12.0121 20.2197C12.3941 20.2197 12.7695 20.1937 13.1369 20.1436C13.5473 20.0876 13.9255 20.3749 13.9815 20.7853Z" fill="black"/>
</svg>