<svg width="25" height="24" viewBox="0 0 25 24" fill="none" xmlns="http://www.w3.org/2000/svg">
<path fill-rule="evenodd" clip-rule="evenodd" d="M19.4983 7.63095C19.206 7.92446 19.207 8.39934 19.5005 8.69161L20.096 9.28456H17.2458C16.8316 9.28456 16.4958 9.62034 16.4958 10.0346C16.4958 10.4488 16.8316 10.7846 17.2458 10.7846H20.0953L19.5007 11.3764C19.2071 11.6686 19.206 12.1435 19.4982 12.437C19.7904 12.7306 20.2652 12.7318 20.5588 12.4396L22.4412 10.5661C22.5826 10.4254 22.6621 10.2342 22.6621 10.0347C22.6621 9.83516 22.5827 9.64387 22.4413 9.50311L20.559 7.6287C20.2654 7.33643 19.7906 7.33744 19.4983 7.63095Z" fill="black"/>
<path fill-rule="evenodd" clip-rule="evenodd" d="M10.916 13.4297L10.916 13.4298C13.0569 13.4501 14.9445 13.6834 16.3193 14.2993C17.0167 14.6117 17.6171 15.0379 18.0417 15.6176C18.4727 16.2061 18.6876 16.9058 18.683 17.6962L18.6829 17.714L18.6819 17.7317C18.6397 18.5241 18.3505 19.2582 17.8002 19.7971C17.2461 20.3397 16.4862 20.6268 15.6151 20.6268H6.20272C5.33103 20.6268 4.56921 20.3402 4.01422 19.7975C3.46248 19.258 3.17324 18.5224 3.1356 17.7273L3.13477 17.7096V17.6918C3.13477 16.9003 3.35213 16.2003 3.78373 15.6116C4.2092 15.0313 4.80935 14.6045 5.50677 14.2919C6.88139 13.6756 8.76584 13.445 10.9035 13.4298L10.916 13.4297ZM4.63482 17.6739C4.66058 18.1419 4.82552 18.4929 5.06293 18.725C5.30003 18.9569 5.66708 19.1268 6.20272 19.1268H15.6151C16.1487 19.1268 16.5139 18.9573 16.7507 18.7254C16.9883 18.4927 17.1544 18.1401 17.1831 17.6695C17.1828 17.1793 17.0526 16.8057 16.8315 16.5039C16.6014 16.1896 16.2379 15.9065 15.7061 15.6682C14.6235 15.1833 12.9936 14.95 10.908 14.9298C8.82669 14.9451 7.20124 15.1761 6.12038 15.6606C5.58952 15.8986 5.22527 16.1824 4.99341 16.4986C4.77036 16.8028 4.63795 17.1798 4.63482 17.6739Z" fill="black"/>
<path fill-rule="evenodd" clip-rule="evenodd" d="M10.9149 4.875C9.3687 4.875 8.11523 6.12846 8.11523 7.67469C8.11523 9.22091 9.3687 10.4744 10.9149 10.4744C12.4612 10.4744 13.7146 9.22092 13.7146 7.67469C13.7146 6.12846 12.4612 4.875 10.9149 4.875ZM6.61523 7.67469C6.61523 5.30004 8.54027 3.375 10.9149 3.375C13.2896 3.375 15.2146 5.30004 15.2146 7.67469C15.2146 10.0493 13.2896 11.9744 10.9149 11.9744C8.54027 11.9744 6.61523 10.0493 6.61523 7.67469Z" fill="black"/>
</svg>