<svg width="24" height="24" viewBox="0 0 24 24" fill="none" xmlns="http://www.w3.org/2000/svg">
<path d="M18.7324 14.875C18.7324 16.0227 17.8829 16.9682 16.7792 17.139V17.9657C16.7792 18.1978 16.7579 18.4252 16.7171 18.6458C18.6779 18.4945 20.2324 16.8711 20.2324 14.875V8.064C20.2324 7.421 19.9894 6.818 19.5544 6.376L16.4364 3.122C15.9684 2.641 15.3454 2.375 14.6804 2.375H10.5124C8.50243 2.375 6.87113 3.942 6.72913 5.915C6.92331 5.88389 7.12238 5.86773 7.32514 5.86773H8.23485C8.39685 4.75073 9.35043 3.875 10.5124 3.875H14.6804C14.9364 3.875 15.1774 3.979 15.3574 4.163L18.4784 7.42C18.6424 7.587 18.7324 7.815 18.7324 8.064V14.875Z" fill="black"/>
<path opacity="0.4" fill-rule="evenodd" clip-rule="evenodd" d="M16.7725 17.1402V11.2752C16.7725 10.7152 16.5495 10.1652 16.1635 9.77023L13.0535 6.52823C12.6405 6.10123 12.0675 5.85523 11.4795 5.85523H8.23673L7.32514 5.86796C7.12238 5.86796 6.92164 5.88412 6.72746 5.91523C5.05046 6.20023 3.76746 7.65123 3.76746 9.40523V18.0752C3.76746 20.0322 5.36146 21.6252 7.32146 21.6252H13.2185C14.9835 21.6252 16.4395 20.3312 16.7145 18.6462L16.7171 18.646C16.7579 18.4254 16.7792 18.1981 16.7792 17.9659L16.7725 17.1402Z" fill="black"/>
<path fill-rule="evenodd" clip-rule="evenodd" d="M13.8544 16.5643C13.8544 17.8223 12.9694 18.7353 11.7514 18.7353H8.7904C7.5714 18.7353 6.6864 17.8223 6.6864 16.5643V14.8653C6.6864 13.6073 7.5714 12.6953 8.7904 12.6953H11.7514C12.9694 12.6953 13.8544 13.6073 13.8544 14.8653V16.5643ZM8.78984 14.1956H11.7508C12.2498 14.1956 12.3548 14.5596 12.3548 14.8656V16.5646C12.3548 16.8706 12.2498 17.2356 11.7508 17.2356H8.78984C8.29084 17.2356 8.18684 16.8706 8.18684 16.5646V14.8656C8.18684 14.5596 8.29084 14.1956 8.78984 14.1956Z" fill="black"/>
</svg>