<svg width="25" height="24" viewBox="0 0 25 24" fill="none" xmlns="http://www.w3.org/2000/svg">
<path d="M3.92188 15.7509C3.92188 14.9021 3.92188 14.4776 4.00717 14.1276C4.27253 13.0387 5.1227 12.1885 6.21158 11.9232C6.56161 11.8379 6.98604 11.8379 7.83492 11.8379H18.0088C18.8577 11.8379 19.2821 11.8379 19.6322 11.9232C20.721 12.1885 21.5712 13.0387 21.8366 14.1276C21.9219 14.4776 21.9219 14.9021 21.9219 15.7509C21.9219 16.2037 21.9219 16.43 21.8764 16.6167C21.7349 17.1974 21.2814 17.6509 20.7007 17.7924C20.514 17.8379 20.2877 17.8379 19.8349 17.8379H6.00883C5.5561 17.8379 5.32973 17.8379 5.14305 17.7924C4.56232 17.6509 4.10889 17.1974 3.96737 16.6167C3.92188 16.43 3.92188 16.2037 3.92188 15.7509Z" stroke="black" stroke-width="1.5" stroke-linecap="round" stroke-linejoin="round"/>
<path opacity="0.4" d="M19.7081 19.3998V18.2998M6.13672 18.2998V19.3998" stroke="black" stroke-width="1.5" stroke-linecap="round" stroke-linejoin="round"/>
<path opacity="0.4" d="M19.7081 11.8382V6.7601C19.7081 6.14557 19.7081 5.83831 19.6195 5.59199C19.468 5.17137 19.1369 4.84021 18.7163 4.68878C18.4699 4.6001 18.1627 4.6001 17.5481 4.6001H8.29672C7.68219 4.6001 7.37493 4.6001 7.12861 4.68878C6.70799 4.84021 6.37683 5.17137 6.2254 5.59199C6.13672 5.83831 6.13672 6.14557 6.13672 6.7601V11.8382" stroke="black" stroke-width="1.5" stroke-linecap="round" stroke-linejoin="round"/>
</svg>