<svg width="24" height="24" viewBox="0 0 24 24" fill="none" xmlns="http://www.w3.org/2000/svg">
<path d="M3 15.7512C3 14.9023 3 14.4779 3.0853 14.1278C3.35065 13.039 4.20083 12.1888 5.28971 11.9234C5.63973 11.8381 6.06417 11.8381 6.91304 11.8381H17.087C17.9358 11.8381 18.3603 11.8381 18.7103 11.9234C19.7992 12.1888 20.6493 13.039 20.9147 14.1278C21 14.4779 21 14.9023 21 15.7512C21 16.2039 21 16.4303 20.9545 16.617C20.813 17.1977 20.3596 17.6511 19.7788 17.7926C19.5921 17.8381 19.3658 17.8381 18.913 17.8381H5.08696C4.63422 17.8381 4.40786 17.8381 4.22118 17.7926C3.64044 17.6511 3.18701 17.1977 3.04549 16.617C3 16.4303 3 16.2039 3 15.7512Z" stroke="black" stroke-width="1.5" stroke-linecap="round" stroke-linejoin="round"/>
<path d="M18.7863 19.3998V18.2998M5.21484 18.2998V19.3998" stroke="black" stroke-width="1.5" stroke-linecap="round" stroke-linejoin="round"/>
<path d="M18.7863 11.8382V6.7601C18.7863 6.14557 18.7863 5.83831 18.6976 5.59199C18.5462 5.17137 18.215 4.84021 17.7944 4.68878C17.5481 4.6001 17.2408 4.6001 16.6263 4.6001H7.37484C6.76032 4.6001 6.45305 4.6001 6.20674 4.68878C5.78611 4.84021 5.45496 5.17137 5.30352 5.59199C5.21484 5.83831 5.21484 6.14557 5.21484 6.7601V11.8382" stroke="black" stroke-width="1.5" stroke-linecap="round" stroke-linejoin="round"/>
</svg>