<svg width="25" height="24" viewBox="0 0 25 24" fill="none" xmlns="http://www.w3.org/2000/svg">
<path fill-rule="evenodd" clip-rule="evenodd" d="M4.57294 3.83114C5.46245 2.877 6.72726 2.3457 8.21387 2.3457H15.6795C17.1699 2.3457 18.4354 2.87664 19.3245 3.83146C20.208 4.78024 20.6639 6.08651 20.6639 7.54511C20.6639 7.95932 20.3281 8.29511 19.9139 8.29511C19.4997 8.29511 19.1639 7.95932 19.1639 7.54511C19.1639 6.39613 18.8078 5.4777 18.2267 4.85367C17.6513 4.23569 16.7996 3.8457 15.6795 3.8457H8.21387C7.09876 3.8457 6.24687 4.23532 5.67011 4.85399C5.08791 5.47849 4.73047 6.39707 4.73047 7.54511V14.5797C4.73047 15.7287 5.08653 16.6471 5.66753 17.2712C6.2429 17.8892 7.09437 18.2791 8.21387 18.2791C8.62809 18.2791 8.96387 18.6149 8.96387 19.0291C8.96387 19.4433 8.62809 19.7791 8.21387 19.7791C6.72386 19.7791 5.45864 19.2481 4.56968 18.2933C3.68636 17.3445 3.23047 16.0383 3.23047 14.5797V7.54511C3.23047 6.08557 3.68886 4.77945 4.57294 3.83114Z" fill="black"/>
<path fill-rule="evenodd" clip-rule="evenodd" d="M12.6246 11.649C13.2174 11.013 14.0539 10.668 15.0141 10.668H19.4597C20.4218 10.668 21.2589 11.0126 21.8517 11.6492C22.4389 12.2798 22.7306 13.1361 22.7306 14.0674V18.2551C22.7306 19.1863 22.4389 20.0426 21.8517 20.6732C21.2589 21.3098 20.4218 21.6545 19.4597 21.6545H15.0141C14.052 21.6545 13.215 21.3098 12.6224 20.673C12.0355 20.0424 11.7441 19.1861 11.7441 18.2551V14.0674C11.7441 13.1353 12.0373 12.2792 12.6246 11.649ZM13.7219 12.6717C13.4365 12.978 13.2441 13.4466 13.2441 14.0674V18.2551C13.2441 18.8769 13.4359 19.3453 13.7205 19.6511C13.9994 19.9508 14.4225 20.1545 15.0141 20.1545H19.4597C20.0514 20.1545 20.4747 19.9508 20.7539 19.651C21.0388 19.3451 21.2306 18.8767 21.2306 18.2551V14.0674C21.2306 13.4458 21.0388 12.9773 20.7539 12.6715C20.4747 12.3716 20.0514 12.168 19.4597 12.168H15.0141C14.4254 12.168 14.0019 12.3713 13.7219 12.6717Z" fill="black"/>
</svg>