<svg width="24" height="24" viewBox="0 0 24 24" fill="none" xmlns="http://www.w3.org/2000/svg">
<path d="M16.21 21.75H7.78001C4.47001 21.75 2.25 19.43 2.25 15.98V8.02991C2.25 4.56991 4.47001 2.25 7.78001 2.25H16.22C19.53 2.25 21.75 4.56991 21.75 8.02991V15.98C21.75 19.43 19.53 21.75 16.22 21.75H16.21ZM7.78001 3.75C5.33001 3.75 3.75 5.42991 3.75 8.02991V15.98C3.75 18.57 5.33001 20.25 7.78001 20.25H16.21C18.66 20.25 20.24 18.57 20.24 15.98V8.02991C20.24 5.42991 18.66 3.75 16.21 3.75H7.77H7.78001Z" fill="black"/>
<path d="M12.0002 16.5997C11.5702 16.5997 11.1602 16.4097 10.8802 16.0897L7.42023 12.2897C6.90023 11.7097 6.84023 10.8397 7.28023 10.2097L8.68022 8.15967C9.00022 7.69967 9.52022 7.42969 10.0702 7.42969H13.9602C14.5102 7.42969 15.0302 7.69966 15.3502 8.14966L16.7502 10.2197C17.1802 10.8497 17.1202 11.7197 16.6002 12.2997L13.1302 16.1097C12.8502 16.4197 12.4402 16.6097 12.0102 16.6097L12.0002 16.5997ZM8.52022 11.2797L11.9902 15.0897L15.4802 11.2797C15.5302 11.2197 15.5402 11.1297 15.5002 11.0597L14.1002 8.98975C14.1002 8.98975 14.0102 8.91968 13.9502 8.91968H10.0602C10.0002 8.91968 9.94022 8.94976 9.91022 8.99976L8.51022 11.0497C8.46022 11.1197 8.47023 11.2097 8.53023 11.2697L8.52022 11.2797Z" fill="black"/>
</svg>