<svg width="24" height="24" viewBox="0 0 24 24" fill="none" xmlns="http://www.w3.org/2000/svg">
<path d="M19.1155 13.889C19.0834 15.5685 18.1337 16.7711 16.4981 17.1554C16.4981 19.9674 15.7197 20.3557 14.4246 20.7536C13.6287 20.9988 12.7783 21.0008 11.9999 20.9998C11.2215 21.0008 10.3701 20.9988 9.57418 20.7536C8.28008 20.3557 7.5007 19.9674 7.5007 17.1554C5.86604 16.7701 4.91638 15.5675 4.88427 13.889C4.87746 13.5028 4.80643 13.0951 4.66535 12.737C3.86066 10.6938 3.92912 7.61962 5.72366 5.48755" stroke="black" stroke-width="1.5" stroke-linecap="round" stroke-linejoin="round"/>
<path d="M7.68066 3.9489C9.05455 3.25222 10.5053 2.99146 11.9999 3.00021C13.4944 2.99146 14.9451 3.25222 16.319 3.9489C19.1899 5.40579 20.0497 8.39633 19.78 10.8814" stroke="black" stroke-width="1.5" stroke-linecap="round" stroke-linejoin="round"/>
<path d="M12.0679 18.9512V20.9848M14.3389 18.9512V20.7804M9.79688 18.9512V20.7989" stroke="black" stroke-width="1.5" stroke-linecap="round" stroke-linejoin="round"/>
<path d="M13.0512 14.6521L12.5501 13.6626C12.3312 13.2315 11.7182 13.2228 11.4876 13.647L10.9505 14.6365C10.7335 15.0365 11.0225 15.523 11.4779 15.523" stroke="black" stroke-width="1.5" stroke-linecap="round" stroke-linejoin="round"/>
<path d="M16.6586 10.1423C16.4426 9.45637 15.9337 8.83753 15.1982 8.70228C13.9653 8.47655 12.9233 9.63151 13.2502 10.8332C13.4808 11.6807 14.3429 12.2976 15.2176 12.3443C15.6175 12.3647 16.0184 12.2732 16.3181 11.994" stroke="black" stroke-width="1.5" stroke-linecap="round" stroke-linejoin="round"/>
<path d="M7.33569 10.1423C7.5517 9.45637 8.06058 8.83753 8.79715 8.70228C10.029 8.47655 11.0711 9.63151 10.7441 10.8332C10.5135 11.6807 9.65145 12.2976 8.77672 12.3443C8.37681 12.3647 7.97593 12.2732 7.67625 11.994" stroke="black" stroke-width="1.5" stroke-linecap="round" stroke-linejoin="round"/>
</svg>