<svg width="24" height="24" viewBox="0 0 24 24" fill="none" xmlns="http://www.w3.org/2000/svg">
<path fill-rule="evenodd" clip-rule="evenodd" d="M16.5691 11.7833C16.2751 12.0573 15.8801 12.2013 15.4221 12.2013C15.3841 12.2013 15.3461 12.2003 15.3081 12.1973C14.3391 12.1533 13.4591 11.4713 13.2171 10.5783C13.0451 9.94935 13.2071 9.28235 13.6511 8.79635C14.0941 8.31135 14.7411 8.09035 15.3881 8.20535C16.1161 8.34335 16.7251 8.93135 16.9821 9.74035C17.1681 10.3383 17.1711 11.2293 16.5691 11.7833ZM13.4451 15.4973C13.2431 15.8253 12.8931 16.0213 12.5071 16.0213H11.4681C11.0751 16.0213 10.7221 15.8213 10.5221 15.4853C10.3231 15.1513 10.3161 14.7473 10.5021 14.4033L11.0391 13.4143C11.2311 13.0543 11.6311 12.8403 12.0171 12.8353C12.4281 12.8393 12.7991 13.0683 12.9861 13.4353L13.4871 14.4273C13.6611 14.7683 13.6461 15.1703 13.4451 15.4973ZM8.66806 12.1973C8.62906 12.2003 8.59106 12.2013 8.55306 12.2013C8.09506 12.2013 7.70006 12.0573 7.40406 11.7813C6.80306 11.2273 6.80706 10.3363 6.99306 9.74135C7.25006 8.93135 7.85906 8.34335 8.58306 8.20635C9.22906 8.09135 9.88006 8.31135 10.3231 8.79635C10.7671 9.28135 10.9301 9.94835 10.7581 10.5783C10.5171 11.4713 9.63806 12.1533 8.66806 12.1973ZM16.5461 3.50735C15.1981 2.81935 13.6941 2.47735 12.0001 2.50235C10.2591 2.47635 8.80206 2.82035 7.45506 3.50635C3.45106 5.53935 3.14106 10.2383 4.20006 12.9253C4.31406 13.2173 4.37806 13.5543 4.38406 13.9013C4.41806 15.6733 5.39006 17.0093 7.00606 17.5413C7.08406 20.2163 8.00806 20.7823 9.29706 21.1863V18.9523C9.29706 18.6763 9.52106 18.4523 9.79706 18.4523C10.0731 18.4523 10.2971 18.6763 10.2971 18.9523V21.4133C10.7301 21.4733 11.1581 21.4953 11.5681 21.4993V18.9523C11.5681 18.6763 11.7921 18.4523 12.0681 18.4523C12.3441 18.4523 12.5681 18.6763 12.5681 18.9523V21.4983C12.9801 21.4913 13.4091 21.4663 13.8391 21.3973V18.9523C13.8391 18.6763 14.0631 18.4523 14.3391 18.4523C14.6151 18.4523 14.8391 18.6763 14.8391 18.9523V21.1413C16.0911 20.7283 16.9211 20.1263 16.9931 17.5413C18.6101 17.0093 19.5811 15.6733 19.6161 13.8993C19.6221 13.5543 19.6851 13.2173 19.7991 12.9263C20.8591 10.2383 20.5501 5.53935 16.5461 3.50735Z" fill="black"/>
</svg>