<svg width="24" height="24" viewBox="0 0 24 24" fill="none" xmlns="http://www.w3.org/2000/svg">
<path d="M11.9999 3.00021C13.4944 2.99146 14.9452 3.25222 16.3191 3.9489C19.962 5.79761 20.3668 10.1158 19.3344 12.7371C19.1933 13.0952 19.1223 13.5029 19.1155 13.8892C19.0834 15.5686 18.1337 16.7712 16.4981 17.1555C16.4981 19.9675 15.7197 20.3558 14.4246 20.7537C13.6287 20.9989 12.7783 21.0009 11.9999 20.9999C11.2215 21.0009 10.3701 20.9989 9.57418 20.7537C8.28008 20.3558 7.5007 19.9675 7.5007 17.1555C5.86604 16.7702 4.91638 15.5676 4.88427 13.8892C4.87746 13.5029 4.80643 13.0952 4.66535 12.7371C3.63299 10.1158 4.03776 5.79761 7.6807 3.9489C9.05459 3.25222 10.5053 2.99146 11.9999 3.00021Z" stroke="black" stroke-width="1.5" stroke-linecap="round" stroke-linejoin="round"/>
<path d="M12.0679 18.9531V20.9867M14.3389 18.9531V20.7824M9.79688 18.9531V20.8009" stroke="black" stroke-width="1.5" stroke-linecap="round" stroke-linejoin="round"/>
<path fill-rule="evenodd" clip-rule="evenodd" d="M10.9505 14.6385L11.4876 13.6489C11.7182 13.2247 12.3312 13.2335 12.5501 13.6645L13.0512 14.6541C13.2536 15.053 12.9637 15.5249 12.5161 15.5249H11.4779C11.0225 15.5249 10.7335 15.0384 10.9505 14.6385Z" stroke="black" stroke-width="1.5" stroke-linecap="round" stroke-linejoin="round"/>
<path fill-rule="evenodd" clip-rule="evenodd" d="M15.2176 12.3423C14.3429 12.2956 13.4808 11.6787 13.2502 10.8312C12.9233 9.62955 13.9653 8.47459 15.1982 8.70033C15.9337 8.83558 16.4426 9.45441 16.6586 10.1404C16.8493 10.7437 16.8065 11.5357 16.3181 11.992C16.0184 12.2713 15.6175 12.3627 15.2176 12.3423Z" stroke="black" stroke-width="1.5" stroke-linecap="round" stroke-linejoin="round"/>
<path fill-rule="evenodd" clip-rule="evenodd" d="M8.77683 12.3423C9.65157 12.2956 10.5137 11.6787 10.7443 10.8312C11.0712 9.62955 10.0291 8.47459 8.79726 8.70033C8.0607 8.83558 7.55181 9.45441 7.3358 10.1404C7.14509 10.7437 7.18791 11.5357 7.67636 11.992C7.97604 12.2713 8.37692 12.3627 8.77683 12.3423Z" stroke="black" stroke-width="1.5" stroke-linecap="round" stroke-linejoin="round"/>
</svg>