<svg width="24" height="24" viewBox="0 0 24 24" fill="none" xmlns="http://www.w3.org/2000/svg">
<path fill-rule="evenodd" clip-rule="evenodd" d="M3.7402 3.89737C4.72468 2.84117 6.12669 2.25 7.78216 2.25H16.2169C17.8762 2.25 19.2788 2.84084 20.2629 3.89765C21.2413 4.94841 21.75 6.39889 21.75 8.02638V15.9736C21.75 17.6011 21.2413 19.0516 20.2627 20.1024C19.2785 21.1592 17.8756 21.75 16.2159 21.75H7.78216C6.1228 21.75 4.72038 21.1591 3.73657 20.1023C2.75842 19.0515 2.25 17.601 2.25 15.9736V8.02638C2.25 6.39806 2.76117 4.94771 3.7402 3.89737ZM4.83745 4.92012C4.16024 5.64666 3.75 6.70951 3.75 8.02638V15.9736C3.75 17.2914 4.15861 18.3541 4.83451 19.0802C5.50475 19.8003 6.49341 20.25 7.78216 20.25H16.2159C17.5052 20.25 18.4944 19.8002 19.165 19.0801C19.8412 18.354 20.25 17.2913 20.25 15.9736V8.02638C20.25 6.70868 19.8412 5.64597 19.1651 4.91984C18.4946 4.19975 17.5056 3.75 16.2169 3.75H7.78216C6.49828 3.75 5.50921 4.19943 4.83745 4.92012Z" fill="black"/>
<path fill-rule="evenodd" clip-rule="evenodd" d="M10.3987 9.1817C10.1252 9.39514 10 9.66974 10 9.98779C10 10.5509 10.3676 10.9524 10.7629 11.0246C10.7629 11.0246 10.763 11.0246 10.7629 11.0246L13.505 11.5236C13.5049 11.5236 13.5051 11.5236 13.505 11.5236C14.6839 11.7372 15.4767 12.8093 15.4995 13.9841C15.4998 13.9933 15.5 14.0026 15.5 14.0119V14.0363C15.5 14.0456 15.4998 14.0549 15.4995 14.0641C15.4848 14.8173 15.1523 15.5097 14.5239 15.9999C13.8964 16.4893 13.0294 16.737 12 16.737C10.5024 16.737 9.01751 15.9812 8.60648 14.6726C8.48235 14.2774 8.70209 13.8564 9.09727 13.7323C9.49245 13.6082 9.91342 13.8279 10.0375 14.2231C10.1796 14.6755 10.878 15.237 12 15.237C12.8043 15.237 13.3123 15.0426 13.6014 14.8171C13.8716 14.6064 13.9968 14.3362 13.9999 14.0239C13.9946 13.4664 13.6288 13.0704 13.2377 12.9996L10.4944 12.5003C9.29923 12.2825 8.5 11.1837 8.5 9.98779C8.5 9.21419 8.83301 8.50075 9.47602 7.99907C10.1035 7.50949 10.9706 7.26172 12 7.26172C13.4987 7.26172 14.981 8.01918 15.3932 9.32519C15.5179 9.7202 15.2987 10.1415 14.9037 10.2662C14.5087 10.3908 14.0874 10.1717 13.9628 9.77668C13.8198 9.32359 13.1209 8.76172 12 8.76172C11.1957 8.76172 10.6878 8.95616 10.3987 9.1817Z" fill="black"/>
</svg>