<svg width="24" height="24" viewBox="0 0 24 24" fill="none" xmlns="http://www.w3.org/2000/svg">
<path fill-rule="evenodd" clip-rule="evenodd" d="M10.1546 4.30783C8.75573 3.49751 6.88308 3.58151 5.57644 4.52478L5.56767 4.53111L5.56762 4.53105C4.69619 5.14122 4.06386 6.09174 3.8457 7.12904L3.84479 7.13329C3.62405 8.15348 3.79275 9.25373 4.30996 10.1601C4.39593 10.3107 4.42702 10.4865 4.39794 10.6575C4.16733 12.0136 4.29047 13.4284 4.77279 14.7066L4.77411 14.7101L4.7741 14.7101C5.44059 16.5033 6.80789 18.028 8.51751 18.8868L8.52188 18.889C9.98847 19.6377 11.7082 19.882 13.3407 19.601C13.5138 19.5713 13.6918 19.6031 13.8438 19.6912C15.2034 20.4786 17.011 20.4264 18.31 19.5525L18.3187 19.5466L18.3188 19.5467C19.2633 18.9303 19.9488 17.9206 20.1653 16.8168L20.1664 16.8112L20.1664 16.8112C20.371 15.8081 20.1957 14.731 19.6881 13.8392C19.6021 13.6882 19.5713 13.512 19.6008 13.3408C19.8222 12.0556 19.7227 10.7177 19.2992 9.49249L19.2981 9.48904C18.6814 7.67616 17.3534 6.11498 15.6661 5.20888L15.6621 5.20674L15.6621 5.20673C14.1542 4.38521 12.3581 4.10378 10.6584 4.39787C10.4851 4.42785 10.3068 4.39598 10.1546 4.30783ZM10.6654 2.87829C8.79661 1.91913 6.42096 2.06776 4.70285 3.30541C3.52618 4.131 2.67579 5.40627 2.37826 6.8182C2.09916 8.11051 2.2798 9.48761 2.87877 10.6654C2.66252 12.1934 2.82024 13.7799 3.36874 15.2345C4.16747 17.3821 5.79564 19.1974 7.84195 20.226C9.52765 21.086 11.472 21.3861 13.3328 21.1206C15.1463 22.0517 17.4384 21.9443 19.143 20.8C20.4196 19.965 21.3411 18.611 21.6367 17.1083C21.8958 15.8349 21.7053 14.4886 21.12 13.3357C21.3275 11.8894 21.197 10.3923 20.7176 9.00425C19.9779 6.83141 18.3959 4.97288 16.3777 3.88844C14.6427 2.94376 12.6091 2.59978 10.6654 2.87829Z" fill="black"/>
<path fill-rule="evenodd" clip-rule="evenodd" d="M10.6612 9.15382C10.4149 9.36001 10.2891 9.63807 10.2891 9.97607C10.2891 10.5799 10.6544 10.9532 10.968 11.0146C10.968 11.0146 10.9681 11.0147 10.968 11.0146L13.5243 11.5136C14.6771 11.7379 15.3951 12.8372 15.4161 13.9733C15.4164 13.9823 15.4165 13.9912 15.4165 14.0002V14.0245C15.4165 14.0334 15.4164 14.0422 15.4161 14.051C15.4028 14.7854 15.1014 15.4747 14.507 15.972C13.9096 16.4718 13.0815 16.7253 12.1028 16.7253C10.6595 16.7253 9.26567 15.9421 8.88642 14.6469C8.77002 14.2493 8.99791 13.8327 9.39543 13.7163C9.79295 13.5999 10.2096 13.8278 10.326 14.2253C10.4624 14.6912 11.104 15.2253 12.1028 15.2253C12.8336 15.2253 13.2873 15.0367 13.5445 14.8215C13.788 14.6178 13.9136 14.3441 13.9165 14.0121C13.9115 13.4146 13.5483 13.0463 13.2383 12.9861L10.6806 12.4869C9.51153 12.2582 8.78906 11.1312 8.78906 9.97607C8.78906 9.22242 9.0904 8.51245 9.69853 8.00351C10.2959 7.50356 11.1241 7.25 12.1028 7.25C13.5471 7.25 14.9386 8.0349 15.3189 9.3275C15.4358 9.72487 15.2085 10.1418 14.8111 10.2587C14.4137 10.3756 13.9968 10.1483 13.8799 9.75093C13.7426 9.28443 13.1006 8.75 12.1028 8.75C11.372 8.75 10.9183 8.93865 10.6612 9.15382Z" fill="black"/>
</svg>