<svg width="24" height="24" viewBox="0 0 24 24" fill="none" xmlns="http://www.w3.org/2000/svg">
<path opacity="0.4" d="M12 21C16.9708 21 21 16.9708 21 12C21 7.02916 16.9708 3 12 3C7.02916 3 3 7.02916 3 12C3 16.9708 7.02916 21 12 21Z" stroke="black" stroke-width="1.5" stroke-linecap="round" stroke-linejoin="round"/>
<path d="M9.32201 14.4478C9.59858 15.3283 10.6902 15.987 12 15.987C13.8337 15.987 14.75 15.1026 14.75 14.0119V14.0363C14.75 13.1567 14.1666 12.4056 13.3713 12.2616L10.6287 11.7625C9.8334 11.6175 9.25 10.8673 9.25 9.98779C9.25 8.89614 10.1663 8.01172 12 8.01172C13.3098 8.01172 14.4004 8.67138 14.678 9.55093" stroke="black" stroke-width="1.5" stroke-linecap="round" stroke-linejoin="round"/>
</svg>