<svg width="25" height="24" viewBox="0 0 25 24" fill="none" xmlns="http://www.w3.org/2000/svg">
<path d="M20.2615 12.1717C20.2615 16.8693 16.4532 20.6775 11.7557 20.6775C7.05821 20.6775 3.25 16.8693 3.25 12.1717C3.25 7.47423 7.05821 3.66602 11.7557 3.66602C12.0029 3.66602 12.2471 3.67672 12.4893 3.69715" stroke="black" stroke-width="1.5" stroke-linecap="round" stroke-linejoin="round"/>
<path d="M8.14355 9.57031C8.39361 9.89626 8.76237 10.0986 9.17101 10.0986C9.58064 10.0986 9.94939 9.89626 10.1994 9.57031" stroke="black" stroke-width="1.5" stroke-linecap="round" stroke-linejoin="round"/>
<path d="M13.3115 9.57031C13.5616 9.89626 13.9303 10.0986 14.339 10.0986C14.7486 10.0986 15.1174 9.89626 15.3674 9.57031" stroke="black" stroke-width="1.5" stroke-linecap="round" stroke-linejoin="round"/>
<path d="M13.4121 14.5867C13.4121 13.6711 12.6707 12.9297 11.7551 12.9297C10.8395 12.9297 10.0981 13.6711 10.0981 14.5867V15.2921C10.0981 16.2076 10.8395 16.949 11.7551 16.949C12.0316 16.949 12.2922 16.8814 12.5213 16.7618" stroke="black" stroke-width="1.5" stroke-linecap="round" stroke-linejoin="round"/>
<path d="M18.6553 6.70312H21.2502L18.6553 9.56464H21.2502" stroke="black" stroke-width="1.5" stroke-linecap="round" stroke-linejoin="round"/>
<path d="M15.2725 3.32227H17.1338L15.2725 5.37524H17.1338" stroke="black" stroke-width="1.5" stroke-linecap="round" stroke-linejoin="round"/>
</svg>