<svg width="25" height="24" viewBox="0 0 25 24" fill="none" xmlns="http://www.w3.org/2000/svg">
<path opacity="0.4" fill-rule="evenodd" clip-rule="evenodd" d="M18.5298 11.9452C17.7388 11.9452 17.0228 11.4782 16.7018 10.7552C16.3808 10.0322 16.5178 9.18716 17.0488 8.60116C17.094 8.55084 17.0913 8.47405 17.0462 8.42353C16.9207 8.28282 16.8169 8.12299 16.7354 7.95013C16.6814 7.83561 16.5703 7.75516 16.4437 7.75516H15.1478C14.3568 7.75516 13.6398 7.28916 13.3188 6.56516C13.0777 6.02043 13.0953 5.40752 13.3457 4.88725C13.3937 4.78763 13.3934 4.67079 13.3467 4.57056C13.3174 4.50745 13.2915 4.44249 13.2688 4.37597C13.2311 4.26536 13.1413 4.1778 13.0261 4.15817C12.5752 4.08134 12.1142 4.03516 11.6308 4.03516C6.97476 4.03516 3.12476 7.88516 3.12476 12.5402C3.12476 17.1962 6.97476 21.0462 11.6308 21.0462C16.2858 21.0462 20.1358 17.1962 20.1358 12.5402C20.1358 12.439 20.1352 12.3376 20.1339 12.2361C20.1318 12.074 19.9989 11.9452 19.8367 11.9452H18.5298Z" fill="black"/>
<path fill-rule="evenodd" clip-rule="evenodd" d="M15.837 10.4076C15.437 10.9296 14.845 11.2296 14.214 11.2296C13.584 11.2296 12.993 10.9296 12.593 10.4076C12.341 10.0786 12.402 9.60862 12.731 9.35662C13.061 9.10362 13.53 9.16662 13.782 9.49462C13.85 9.58162 13.995 9.72962 14.214 9.72962C14.434 9.72962 14.58 9.58162 14.648 9.49462C14.9 9.16662 15.369 9.10262 15.699 9.35662C16.027 9.60862 16.089 10.0786 15.837 10.4076Z" fill="black"/>
<path fill-rule="evenodd" clip-rule="evenodd" d="M7.42501 10.4076C7.17301 10.0786 7.23401 9.60862 7.56301 9.35662C7.89401 9.10362 8.36201 9.16662 8.61401 9.49462C8.68201 9.58162 8.82701 9.72962 9.04601 9.72962C9.26601 9.72962 9.41201 9.58162 9.48001 9.49462C9.73201 9.16662 10.2 9.10262 10.531 9.35662C10.859 9.60862 10.921 10.0786 10.669 10.4076C10.269 10.9296 9.67701 11.2296 9.04601 11.2296C8.41601 11.2296 7.82501 10.9296 7.42501 10.4076Z" fill="black"/>
<path fill-rule="evenodd" clip-rule="evenodd" d="M21.125 9.19523H20.223L21.681 7.58823C21.88 7.36823 21.931 7.05123 21.811 6.78023C21.69 6.50823 21.422 6.33423 21.125 6.33423H18.53C18.116 6.33423 17.78 6.67023 17.78 7.08423C17.78 7.49823 18.116 7.83423 18.53 7.83423H19.433L17.975 9.44123C17.775 9.66123 17.725 9.97823 17.845 10.2492C17.965 10.5202 18.233 10.6952 18.53 10.6952H21.125C21.539 10.6952 21.875 10.3592 21.875 9.94523C21.875 9.53123 21.539 9.19523 21.125 9.19523Z" fill="black"/>
<path fill-rule="evenodd" clip-rule="evenodd" d="M15.1474 4.45312H15.3164L14.5914 5.25213C14.3924 5.47213 14.3414 5.78813 14.4614 6.05912C14.5824 6.33113 14.8504 6.50612 15.1474 6.50612H17.0084C17.4224 6.50612 17.7584 6.17013 17.7584 5.75612C17.7584 5.34212 17.4224 5.00612 17.0084 5.00612H16.8394L17.5644 4.20712C17.7634 3.98712 17.8144 3.67013 17.6944 3.39913C17.5744 3.12813 17.3054 2.95312 17.0084 2.95312H15.1474C14.7334 2.95312 14.3974 3.28912 14.3974 3.70312C14.3974 4.11713 14.7334 4.45312 15.1474 4.45312Z" fill="black"/>
<path fill-rule="evenodd" clip-rule="evenodd" d="M11.6299 18.0796C12.9569 18.0796 14.0369 16.9996 14.0369 15.6726V14.9676C14.0369 13.6396 12.9569 12.5606 11.6299 12.5606C10.3029 12.5606 9.2229 13.6396 9.2229 14.9676V15.6726C9.2229 16.9996 10.3029 18.0796 11.6299 18.0796ZM10.7229 14.9675C10.7229 14.4675 11.1299 14.0605 11.6299 14.0605C12.1299 14.0605 12.5369 14.4675 12.5369 14.9675V15.6725C12.5369 16.1725 12.1299 16.5795 11.6299 16.5795C11.1299 16.5795 10.7229 16.1725 10.7229 15.6725V14.9675Z" fill="black"/>
</svg>