<svg width="24" height="25" viewBox="0 0 24 25" fill="none" xmlns="http://www.w3.org/2000/svg">
<path d="M21.2494 21.7978L4.82657 21.7978C3.86678 21.7978 3.03217 21.1397 2.80827 20.2064C2.45366 18.7281 3.76387 17.3458 5.47873 17.9622" stroke="black" stroke-width="1.5" stroke-linecap="round" stroke-linejoin="round"/>
<path d="M8.05937 17.5055L5.43079 12.2806C5.12695 11.6766 5.41791 10.9243 6.08973 10.8487C7.21208 10.7223 8.59243 11.0042 9.27105 12.8324C10.2416 15.4472 13.6448 15.09 14.6026 12.4281C16.4964 8.09754 18.7002 7.17594 20.3537 7.22628C21.0808 7.24842 21.3736 8.08079 21.0346 8.72443C19.3705 11.884 18.8977 14.9296 18.8726 16.7896C18.8632 17.4923 18.3111 18.1294 17.6084 18.1294H9.07163C8.64343 18.1294 8.25181 17.888 8.05937 17.5055Z" stroke="black" stroke-width="1.5" stroke-linecap="round" stroke-linejoin="round"/>
<path d="M9.37109 21.7979L10.7652 18.1292" stroke="black" stroke-width="1.5" stroke-linecap="round" stroke-linejoin="round"/>
<path d="M18.4473 21.7979L17.0531 18.1292" stroke="black" stroke-width="1.5" stroke-linecap="round" stroke-linejoin="round"/>
<path d="M9.00305 12.1896C8.76339 10.4169 10.1882 7.26491 15.1713 6.7139C15.1713 6.7139 15.2223 4.36873 16.4546 3.4314C17.4157 5.44142 19.0763 3.92066 20.3164 5.17922C20.3164 5.17922 18.8727 6.31969 18.5918 7.529" stroke="black" stroke-width="1.5" stroke-linecap="round" stroke-linejoin="round"/>
<path d="M15.248 6.68823L17.0488 8.43823" stroke="black" stroke-width="1.5" stroke-linecap="round" stroke-linejoin="round"/>
</svg>