<svg width="24" height="24" viewBox="0 0 24 24" fill="none" xmlns="http://www.w3.org/2000/svg">
<path opacity="0.4" d="M4.63086 9.37398L4.63088 7.11571C4.63088 4.70412 6.13982 3 8.54662 3H15.4531C17.8671 3 19.3697 4.70412 19.3697 7.11571L19.3697 9.37398" stroke="black" stroke-width="1.5" stroke-linecap="round" stroke-linejoin="round"/>
<ellipse cx="14.833" cy="10.1319" rx="1.54201" ry="1.54201" stroke="black" stroke-width="1.5"/>
<path d="M19.7853 12.293C17.8443 13.8676 16.5576 13.9223 14.2303 14.1564C13.7012 14.2096 13.3071 14.761 13.299 15.3417C13.279 16.7554 13.3036 18.163 13.2973 19.5767C13.2861 20.2877 13.8727 20.9313 14.5776 20.9961C18.6602 21.1596 18.1144 16.4099 17.2399 13.7023" stroke="black" stroke-width="1.5" stroke-linecap="round" stroke-linejoin="round"/>
<path d="M4.2147 12.293C6.15567 13.8676 7.44244 13.9223 9.76972 14.1564C10.2988 14.2096 10.6929 14.761 10.701 15.3417C10.721 16.7554 10.6964 18.163 10.7027 19.5767C10.7139 20.2877 10.1273 20.9313 9.42239 20.9961C8.77532 21.022 8.40346 20.9751 7.81167 20.6702C5.91802 19.8113 4.80203 16.6889 6.97739 13.7625" stroke="black" stroke-width="1.5" stroke-linecap="round" stroke-linejoin="round"/>
<ellipse cx="1.54201" cy="1.54201" rx="1.54201" ry="1.54201" transform="matrix(-1 0 0 1 10.709 8.58984)" stroke="black" stroke-width="1.5"/>
</svg>