<svg width="25" height="24" viewBox="0 0 25 24" fill="none" xmlns="http://www.w3.org/2000/svg">
<path fill-rule="evenodd" clip-rule="evenodd" d="M18.4513 2.25C18.6502 2.25 18.841 2.32902 18.9816 2.46967L20.1983 3.68633C20.4912 3.97922 20.4912 4.45409 20.1983 4.74699C19.9258 5.0195 19.4957 5.03846 19.2013 4.80388V6.20086C19.4957 5.96629 19.9257 5.98524 20.1983 6.25774C20.4912 6.55062 20.4912 7.0255 20.1983 7.3184L18.9816 8.53514C18.841 8.6758 18.6502 8.75482 18.4513 8.75482C18.2524 8.75482 18.0616 8.6758 17.9209 8.53514L16.7043 7.3184C16.4114 7.0255 16.4114 6.55062 16.7043 6.25774C16.9768 5.98525 17.4069 5.96629 17.7013 6.20086V4.80389C17.4069 5.03846 16.9768 5.0195 16.7043 4.74699C16.4114 4.4541 16.4114 3.97922 16.7043 3.68633L17.921 2.46967C18.0616 2.32902 18.2524 2.25 18.4513 2.25ZM10.8591 4.26429C10.3717 4.26429 9.97665 4.65936 9.97665 5.14671V14.5106C9.97665 14.8389 9.76305 15.1291 9.44953 15.2267C9.13601 15.3242 8.79546 15.2065 8.60912 14.9362L7.44126 13.2418C7.17013 12.8484 6.66491 12.6918 6.21883 12.8629C5.70737 13.0591 5.46864 13.5925 5.63796 14.0598C6.20671 15.6297 7.10773 17.3748 8.2534 18.7995C8.98879 19.7139 10.6243 20.2535 12.4959 20.25C14.357 20.2464 16.0911 19.7044 16.928 18.8675C17.623 18.1725 18.2031 17.0704 18.4948 15.8271C18.7858 14.5867 18.7712 13.2844 18.3692 12.1992C18.0307 11.2857 17.2583 10.7973 16.1413 10.5158C15.2978 10.3032 14.3901 10.2374 13.4836 10.1716C13.1494 10.1473 12.8154 10.1231 12.4849 10.0915C12.1044 10.0552 11.8121 9.73858 11.8063 9.35644L11.7414 5.13316C11.734 4.65115 11.3411 4.26429 10.8591 4.26429ZM8.47665 5.14671C8.47665 3.83093 9.54329 2.76429 10.8591 2.76429C12.1606 2.76429 13.2212 3.80877 13.2412 5.11012L13.2956 8.65255C13.3555 8.65692 13.4161 8.6613 13.4775 8.66573C14.4166 8.73355 15.525 8.8136 16.5079 9.0613C17.847 9.39876 19.1904 10.0982 19.7758 11.6781L19.7758 11.6781C20.3034 13.1023 20.2963 14.7151 19.9551 16.1697C19.6146 17.6213 18.9228 18.994 17.9887 19.9281C16.7469 21.1699 14.5372 21.7461 12.4987 21.75C10.4707 21.7538 8.25088 21.1899 7.08448 19.7395C5.81644 18.1626 4.84145 16.2649 4.22766 14.5708C3.76275 13.2875 4.45469 11.933 5.68165 11.4624C6.67277 11.0823 7.78309 11.3624 8.47665 12.1368V5.14671Z" fill="black"/>
</svg>