<svg width="24" height="24" viewBox="0 0 24 24" fill="none" xmlns="http://www.w3.org/2000/svg">
<path d="M19.375 10.1201C18.965 10.1201 18.625 9.78012 18.625 9.37012V7.11011C18.625 5.04011 17.415 3.75 15.455 3.75H8.545C6.625 3.75 5.375 5.07011 5.375 7.11011V9.37012C5.375 9.78012 5.035 10.1201 4.625 10.1201C4.215 10.1201 3.875 9.78012 3.875 9.37012V7.11011C3.875 4.25011 5.795 2.25 8.545 2.25H15.455C18.245 2.25 20.125 4.20011 20.125 7.11011V9.37012C20.125 9.78012 19.785 10.1201 19.375 10.1201Z" fill="black"/>
<path d="M14.8349 12.4236C13.5749 12.4236 12.5449 11.3938 12.5449 10.1338C12.5449 8.87379 13.5749 7.84375 14.8349 7.84375C16.0949 7.84375 17.1249 8.87379 17.1249 10.1338C17.1249 11.3938 16.0949 12.4236 14.8349 12.4236ZM14.8349 9.34375C14.3949 9.34375 14.0449 9.70379 14.0449 10.1338C14.0449 10.5638 14.4049 10.9236 14.8349 10.9236C15.2649 10.9236 15.6249 10.5638 15.6249 10.1338C15.6249 9.70379 15.2649 9.34375 14.8349 9.34375Z" fill="black"/>
<path d="M14.7853 21.7418C14.7053 21.7418 14.6253 21.7418 14.5453 21.7418C13.4153 21.6418 12.5253 20.6719 12.5453 19.5719C12.5453 18.9919 12.5453 18.3918 12.5453 17.8018C12.5453 16.9718 12.5453 16.1519 12.5453 15.3319C12.5553 14.3519 13.2553 13.5117 14.1453 13.4117L14.5053 13.3719C15.5053 13.2719 16.2653 13.2018 16.9653 13.0018C16.9753 13.0018 16.9953 12.9918 17.0053 12.9818C17.0353 12.9818 17.0653 12.9617 17.0853 12.9617C17.8053 12.7417 18.4853 12.3817 19.3053 11.7017C19.6253 11.4417 20.0953 11.4918 20.3653 11.8118C20.6253 12.1318 20.5753 12.6019 20.2553 12.8719C19.4953 13.4919 18.8153 13.8917 18.1553 14.1717C18.5653 15.7117 19.0853 18.6517 17.7353 20.4217C17.2753 21.0317 16.3853 21.7418 14.7753 21.7418H14.7853ZM16.7253 14.5919C16.0853 14.7219 15.4153 14.7819 14.6553 14.8519L14.3053 14.8819C14.2153 14.8919 14.0553 15.0919 14.0553 15.3419C14.0453 16.1519 14.0553 16.9718 14.0553 17.7918C14.0553 18.3818 14.0553 18.9819 14.0553 19.5819C14.0553 19.9019 14.3353 20.2118 14.6553 20.2418C15.5353 20.2718 16.1553 20.0418 16.5553 19.5118C17.3753 18.4418 17.1853 16.3219 16.7353 14.5919H16.7253Z" fill="black"/>
<path d="M9.1344 21.7518C8.5544 21.7518 8.10439 21.6619 7.47439 21.3419C6.40439 20.8619 5.54439 19.7717 5.20439 18.4417C4.84439 17.0417 5.0644 15.5517 5.8244 14.1617C5.1644 13.8817 4.4944 13.4819 3.7444 12.8719C3.4244 12.6119 3.3744 12.1418 3.6344 11.8118C3.8944 11.4918 4.3644 11.4417 4.6944 11.7017C5.5944 12.4317 6.31439 12.8018 7.11439 13.0118C7.15439 13.0118 7.19439 13.0318 7.23439 13.0418C7.88439 13.2018 8.59439 13.2719 9.50439 13.3619L9.8544 13.3917C10.7444 13.4917 11.4444 14.3419 11.4644 15.3219C11.4744 16.1419 11.4644 16.9718 11.4644 17.7918C11.4644 18.3818 11.4644 18.9718 11.4644 19.5618C11.4844 20.6518 10.5944 21.6318 9.4944 21.7218C9.3744 21.7218 9.25439 21.7218 9.14439 21.7218L9.1344 21.7518ZM7.3044 14.6119C6.3544 16.1119 6.47439 17.4119 6.65439 18.0719C6.88439 18.9619 7.43439 19.6818 8.12439 19.9918C8.61439 20.2418 8.85439 20.2718 9.39439 20.2418C9.68439 20.2118 9.96439 19.9019 9.95439 19.5919C9.95439 18.9819 9.95439 18.3918 9.95439 17.7918C9.95439 16.9718 9.95439 16.1619 9.95439 15.3419C9.95439 15.0919 9.79439 14.9019 9.68439 14.8819L9.3544 14.8519C8.6044 14.7819 7.94439 14.7119 7.31439 14.5919L7.3044 14.6119Z" fill="black"/>
<path d="M9.17476 12.4236C7.91476 12.4236 6.88477 11.3938 6.88477 10.1338C6.88477 8.87379 7.91476 7.84375 9.17476 7.84375C10.4348 7.84375 11.4648 8.87379 11.4648 10.1338C11.4648 11.3938 10.4348 12.4236 9.17476 12.4236ZM9.17476 9.34375C8.73476 9.34375 8.38477 9.70379 8.38477 10.1338C8.38477 10.5638 8.74476 10.9236 9.17476 10.9236C9.60476 10.9236 9.96477 10.5638 9.96477 10.1338C9.96477 9.70379 9.60476 9.34375 9.17476 9.34375Z" fill="black"/>
</svg>