<svg width="24" height="24" viewBox="0 0 24 24" fill="none" xmlns="http://www.w3.org/2000/svg">
<path fill-rule="evenodd" clip-rule="evenodd" d="M17.888 3.41158H17.878C15.398 3.04158 13.058 4.75159 12.678 7.32158C12.678 7.32158 12.628 8.15158 12.548 9.28158C12.458 10.7016 12.348 12.5916 12.278 13.8716C12.168 15.9216 13.638 17.6816 15.678 17.9816C15.888 18.0216 16.098 18.0216 16.298 18.0216C18.098 18.0216 19.688 16.8416 20.138 15.0716C20.448 13.8416 20.888 12.0416 21.218 10.6616C21.508 9.51158 21.708 8.65159 21.718 8.62158C22.098 6.13158 20.378 3.80158 17.888 3.41158Z" fill="black" fill-opacity="0.4"/>
<path fill-rule="evenodd" clip-rule="evenodd" d="M11.3218 9.94036C10.9418 7.37036 8.60185 5.66036 6.12185 6.03036H6.11185C3.62185 6.42036 1.90185 8.75036 2.28185 11.2404C2.29185 11.2704 2.49185 12.1304 2.78185 13.2804C3.11185 14.6604 3.55185 16.4604 3.86185 17.6904C4.31185 19.4604 5.90185 20.6404 7.70185 20.6404C7.90185 20.6404 8.11185 20.6404 8.32185 20.6004C10.3618 20.3004 11.8318 18.5404 11.7218 16.4904C11.6518 15.2104 11.5418 13.3204 11.4518 11.9004C11.3718 10.7704 11.3218 9.94036 11.3218 9.94036Z" fill="black" fill-opacity="0.4"/>
<path fill-rule="evenodd" clip-rule="evenodd" d="M17.8881 3.41158H17.8781C15.3981 3.04158 13.0581 4.75159 12.6781 7.32158C12.6781 7.32158 12.6281 8.15158 12.5481 9.28158C13.8581 8.27158 15.5681 7.92159 17.1781 8.19159C18.7781 8.45158 20.2881 9.31158 21.2181 10.6616C21.5081 9.51158 21.7081 8.65159 21.7181 8.62158C22.0981 6.13158 20.3781 3.80158 17.8881 3.41158Z" fill="black"/>
<path fill-rule="evenodd" clip-rule="evenodd" d="M6.12185 6.0306H6.11185C3.62185 6.4206 1.90185 8.7506 2.28185 11.2406C2.29185 11.2706 2.49185 12.1306 2.78185 13.2806C3.71185 11.9306 5.22185 11.0706 6.82185 10.8106C8.43185 10.5406 10.1418 10.8906 11.4518 11.9006C11.3718 10.7706 11.3218 9.9406 11.3218 9.9406C10.9418 7.3706 8.60185 5.6606 6.12185 6.0306Z" fill="black"/>
</svg>