<svg width="24" height="25" viewBox="0 0 24 25" fill="none" xmlns="http://www.w3.org/2000/svg">
<path fill-rule="evenodd" clip-rule="evenodd" d="M6.36004 8.45109C8.02759 8.20146 9.59544 9.34773 9.83897 10.954C9.83969 10.9587 9.8402 10.9632 9.84056 10.9679C9.84349 11.0064 9.85852 11.2054 9.8801 11.5207C9.89196 11.6938 9.68834 11.8033 9.54008 11.7132C8.71883 11.2141 7.72323 11.0553 6.78004 11.2111C5.83648 11.3669 4.93789 11.8375 4.3048 12.5708C4.19122 12.7024 3.96362 12.6595 3.92262 12.4906C3.85063 12.194 3.80087 11.9875 3.78004 11.9111C3.55004 10.2511 4.70004 8.70109 6.36004 8.45109ZM6.13004 6.96109C3.65047 7.34946 1.93446 9.6616 2.29537 12.1398C2.29838 12.1604 2.30622 12.1805 2.3088 12.2012C2.30904 12.2032 2.30924 12.2051 2.3094 12.2071C2.31067 12.223 2.31134 12.2364 2.31511 12.2519C2.39273 12.5708 3.34318 16.4736 3.88004 18.6211C4.33004 20.3911 5.92004 21.5811 7.71004 21.5811C7.92004 21.5811 8.13004 21.5711 8.34004 21.5411C10.35 21.2411 11.84 19.4311 11.74 17.4211C11.61 15.1311 11.34 10.8711 11.33 10.8011C10.96 8.31109 8.62004 6.59109 6.13004 6.96109Z" fill="black"/>
<path fill-rule="evenodd" clip-rule="evenodd" d="M14.1495 8.29058C14.1499 8.28429 14.1505 8.27799 14.1515 8.27175C14.4059 6.60681 15.9632 5.45163 17.6401 5.70116C19.3069 5.95069 20.4657 7.51527 20.2314 9.12209C20.2305 9.12811 20.2294 9.13388 20.228 9.13979C20.217 9.1848 20.1634 9.40369 20.079 9.74386C20.0372 9.91215 19.8103 9.95429 19.6971 9.82295C19.0639 9.0884 18.1645 8.61713 17.2201 8.46116C16.278 8.30559 15.2836 8.46375 14.463 8.96146C14.3142 9.05171 14.1094 8.94099 14.1206 8.76732C14.1376 8.50304 14.1473 8.33142 14.1495 8.29058ZM17.8751 4.21196C17.8718 4.21143 17.8683 4.21116 17.8649 4.21116C17.8617 4.21116 17.8584 4.21092 17.8552 4.21044C15.3796 3.8438 13.0448 5.55919 12.6613 8.11302C12.6605 8.11841 12.6601 8.12117 12.6597 8.12661C12.6485 8.29708 12.3776 12.4287 12.2601 14.6712C12.1501 16.7212 13.6201 18.4812 15.6601 18.7912C15.8701 18.8212 16.0801 18.8312 16.2801 18.8312C18.0801 18.8312 19.6701 17.6412 20.1201 15.8712C20.6635 13.6974 21.6213 9.72485 21.6958 9.43705C21.6986 9.42605 21.7009 9.41543 21.7026 9.40419C22.072 6.92228 20.3567 4.60344 17.8751 4.21196Z" fill="black"/>
</svg>