<svg width="24" height="24" viewBox="0 0 24 24" fill="none" xmlns="http://www.w3.org/2000/svg">
<path fill-rule="evenodd" clip-rule="evenodd" d="M21.45 8.51057C21.44 8.53057 21.3 9.13057 21.09 9.99057C20.98 10.4506 20.85 10.9706 20.72 11.5306C20.43 12.7006 20.12 13.9906 19.88 14.9306C19.46 16.5906 17.96 17.7106 16.28 17.7106C16.09 17.7106 15.89 17.7006 15.69 17.6706C13.78 17.3806 12.41 15.7306 12.51 13.8106C12.56 12.8106 12.64 11.4606 12.73 10.2406C12.76 9.66057 12.79 9.12057 12.82 8.66057C12.87 7.82057 12.91 7.26057 12.91 7.26057C13.27 4.87057 15.47 3.23057 17.83 3.59057C20.18 3.95057 21.81 6.16057 21.45 8.51057Z" fill="black" fill-opacity="0.4"/>
<path fill-rule="evenodd" clip-rule="evenodd" d="M11.4901 16.5605C11.5901 18.4505 10.1901 20.1405 8.30007 20.4205C8.11007 20.4505 7.91007 20.4605 7.72007 20.4605C6.04007 20.4605 4.54007 19.3405 4.12007 17.6805C3.89007 16.7505 3.58007 15.4805 3.29007 14.3305C3.16007 13.7705 3.03007 13.2505 2.92007 12.7905C2.71007 11.9105 2.56007 11.3005 2.56007 11.3005C2.55007 11.2805 2.55007 11.2705 2.55007 11.2605C2.19007 8.90051 3.82007 6.70051 6.17007 6.34051C8.53007 5.99051 10.7301 7.61051 11.0901 9.97051C11.0901 9.99051 11.1301 10.6005 11.1801 11.4805C11.2101 11.9405 11.2501 12.4805 11.2801 13.0405C11.3601 14.2505 11.4401 15.5905 11.4901 16.5605Z" fill="black" fill-opacity="0.4"/>
<path fill-rule="evenodd" clip-rule="evenodd" d="M11.2797 13.04C11.2097 13.04 11.1297 13.02 11.0597 13C8.35968 12.16 5.87968 12.56 3.44968 14.25C3.39968 14.28 3.34968 14.31 3.28968 14.33C3.15968 13.77 3.02968 13.25 2.91968 12.79C4.07968 12.04 5.27968 11.55 6.49968 11.29L6.22968 9.82001C6.15968 9.41001 6.42968 9.02001 6.83968 8.95001C7.23968 8.88001 7.63968 9.15001 7.70968 9.55001L7.98968 11.09C9.02968 11.04 10.0897 11.16 11.1797 11.48C11.2097 11.94 11.2497 12.48 11.2797 13.04Z" fill="black"/>
<path fill-rule="evenodd" clip-rule="evenodd" d="M21.0897 9.99003C20.9797 10.45 20.8497 10.97 20.7197 11.53C18.1697 9.85003 15.5597 9.43003 12.7297 10.24C12.7597 9.66003 12.7897 9.12003 12.8197 8.66003C13.8897 8.41003 14.9497 8.31003 15.9897 8.37003L16.3097 6.57003C16.3897 6.17003 16.7797 5.90003 17.1797 5.97003C17.5897 6.04003 17.8597 6.43003 17.7897 6.84003L17.4797 8.57003C18.7097 8.82003 19.9197 9.29003 21.0897 9.99003Z" fill="black"/>
</svg>