<svg width="25" height="24" viewBox="0 0 25 24" fill="none" xmlns="http://www.w3.org/2000/svg">
<path fill-rule="evenodd" clip-rule="evenodd" d="M5.12402 6.61849C5.12402 4.20592 7.07968 2.25 9.49154 2.25H15.0073C17.419 2.25 19.3748 4.20575 19.3748 6.61745C19.3748 6.61747 19.3748 6.61742 19.3748 6.61745L19.3758 17.3814C19.3758 19.7941 17.42 21.75 15.0073 21.75H9.49251C7.08081 21.75 5.12503 19.7942 5.125 17.3826C5.125 17.3825 5.125 17.3826 5.125 17.3826L5.12402 6.61849ZM6.62402 6.61849C6.62402 6.61851 6.62402 6.61846 6.62402 6.61849L6.625 17.3824C6.625 18.9657 7.90921 20.25 9.49251 20.25H15.0073C16.5916 20.25 17.8758 18.9658 17.8758 17.3816C17.8758 17.3816 17.8758 17.3816 17.8758 17.3816L17.8748 6.61758C17.8748 5.03428 16.5906 3.75 15.0073 3.75H9.49154C7.90839 3.75 6.62406 5.03411 6.62402 6.61849Z" fill="black"/>
<path fill-rule="evenodd" clip-rule="evenodd" d="M11.25 17.2791C11.25 16.7262 11.6987 16.2793 12.2502 16.2793C12.8018 16.2793 13.2505 16.7262 13.2505 17.2791C13.2505 17.8315 12.8027 18.2793 12.2502 18.2793C11.6978 18.2793 11.25 17.8315 11.25 17.2791Z" fill="black"/>
</svg>