<svg width="25" height="24" viewBox="0 0 25 24" fill="none" xmlns="http://www.w3.org/2000/svg">
<path d="M12.249 19.4591C10.7242 19.4589 9.23364 19.0065 7.96587 18.1592C6.6981 17.3119 5.71004 16.1077 5.12664 14.6989C4.54324 13.29 4.39071 11.7398 4.68831 10.2443C4.98592 8.74878 5.7203 7.37508 6.7986 6.29692C7.8769 5.21876 9.2507 4.48455 10.7463 4.18714C12.2418 3.88973 13.792 4.04247 15.2008 4.62605C16.6095 5.20963 17.8136 6.19784 18.6607 7.46573C19.5079 8.73361 19.96 10.2242 19.96 11.7491C19.9577 13.7933 19.1445 15.7532 17.6988 17.1986C16.2532 18.644 14.2933 19.4569 12.249 19.4591V19.4591ZM12.249 5.53907C11.0209 5.53927 9.82032 5.90364 8.79922 6.58613C7.77812 7.26861 6.98233 8.23855 6.51246 9.3733C6.04259 10.508 5.91976 11.7566 6.15949 12.9612C6.39921 14.1658 6.99074 15.2722 7.85926 16.1406C8.72779 17.0089 9.8343 17.6003 11.0389 17.8398C12.2435 18.0794 13.4921 17.9563 14.6267 17.4863C15.7614 17.0162 16.7312 16.2203 17.4135 15.1991C18.0959 14.1778 18.46 12.9772 18.46 11.7491C18.4582 10.1025 17.8032 8.52385 16.6388 7.35962C15.4744 6.1954 13.8956 5.54066 12.249 5.53907V5.53907Z" fill="black"/>
<path d="M14.2021 22.5007H10.0401C9.43074 22.4982 8.84062 22.2874 8.36767 21.9032C7.89472 21.519 7.5674 20.9846 7.44007 20.3887L6.71707 16.9437C6.67778 16.7497 6.71681 16.548 6.82567 16.3826C6.93453 16.2172 7.10437 16.1016 7.29814 16.0609C7.49192 16.0202 7.69391 16.0579 7.86006 16.1656C8.02621 16.2732 8.14304 16.4423 8.18506 16.6358L8.90806 20.0807C8.96374 20.3405 9.10658 20.5733 9.31285 20.7407C9.51913 20.908 9.77644 20.9998 10.0421 21.0007H14.2041C14.4694 20.9997 14.7264 20.9082 14.9326 20.7412C15.1388 20.5743 15.2818 20.342 15.3381 20.0827L16.0201 16.9027C16.0385 16.8043 16.0764 16.7105 16.1317 16.6269C16.1869 16.5433 16.2584 16.4717 16.3418 16.4162C16.4252 16.3607 16.5189 16.3225 16.6173 16.3038C16.7157 16.2851 16.8169 16.2863 16.9148 16.3073C17.0128 16.3284 17.1055 16.3688 17.1876 16.4263C17.2696 16.4838 17.3394 16.5571 17.3926 16.642C17.4458 16.7268 17.4815 16.8215 17.4976 16.9204C17.5137 17.0193 17.5097 17.1204 17.4861 17.2178L16.8051 20.3968C16.6755 20.9914 16.3469 21.524 15.8736 21.9066C15.4003 22.2892 14.8106 22.4988 14.2021 22.5007Z" fill="black"/>
<path d="M17.0499 7.461C16.8774 7.46057 16.7102 7.40066 16.5767 7.29137C16.4432 7.18207 16.3514 7.03007 16.3169 6.861L15.5929 3.416C15.5376 3.15627 15.395 2.92333 15.1889 2.75594C14.9827 2.58854 14.7255 2.49681 14.4599 2.496H10.2989C10.0336 2.49703 9.77663 2.58858 9.57043 2.7555C9.36422 2.92243 9.22117 3.15473 9.16492 3.414L8.48292 6.594C8.43612 6.7831 8.31758 6.94657 8.15238 7.04982C7.98718 7.15307 7.78829 7.18799 7.59781 7.14719C7.40732 7.10639 7.24018 6.99307 7.13177 6.83122C7.02335 6.66937 6.98216 6.47168 7.01692 6.28L7.69792 3.1C7.82815 2.5066 8.15663 1.97527 8.62924 1.59354C9.10185 1.21182 9.6904 1.00247 10.2979 1H14.4599C15.0693 1.00215 15.6596 1.21287 16.1327 1.59711C16.6057 1.98136 16.9329 2.51596 17.0599 3.112L17.7829 6.557C17.8052 6.66598 17.8029 6.77854 17.7763 6.88654C17.7496 6.99453 17.6993 7.09525 17.629 7.1814C17.5586 7.26755 17.47 7.33698 17.3695 7.38464C17.269 7.43231 17.1591 7.45702 17.0479 7.457L17.0499 7.461Z" fill="black"/>
</svg>