<svg width="25" height="24" viewBox="0 0 25 24" fill="none" xmlns="http://www.w3.org/2000/svg">
<path opacity="0.4" d="M18.8748 6.61751L18.8758 17.3815C18.8758 19.38 17.2558 21 15.2573 21H9.74251C7.745 21 6.125 19.38 6.125 17.3825L6.12402 6.61849C6.12402 4.62 7.74402 3 9.74154 3H15.2573C17.2548 3 18.8748 4.62 18.8748 6.61751Z" stroke="black" stroke-width="1.5" stroke-linecap="round" stroke-linejoin="round"/>
<path d="M11.1094 6.68848H13.8931" stroke="black" stroke-width="1.5" stroke-linecap="round" stroke-linejoin="round"/>
<path d="M12.5002 17.3306V17.2824M12.5002 17.0293C12.362 17.0293 12.25 17.1413 12.25 17.2791C12.25 17.4173 12.362 17.5293 12.5002 17.5293C12.6385 17.5293 12.7505 17.4173 12.7505 17.2791C12.7505 17.1413 12.6385 17.0293 12.5002 17.0293Z" stroke="black" stroke-width="1.5" stroke-linecap="round" stroke-linejoin="round"/>
</svg>