<svg width="25" height="24" viewBox="0 0 25 24" fill="none" xmlns="http://www.w3.org/2000/svg">
<path fill-rule="evenodd" clip-rule="evenodd" d="M19.46 11.999C19.46 8.15472 16.3433 5.03906 12.499 5.03906C8.6558 5.03906 5.53906 8.15472 5.53906 11.999C5.53906 15.8433 8.6558 18.959 12.499 18.959C16.3433 18.959 19.46 15.8433 19.46 11.999Z" stroke="black" stroke-width="1.5" stroke-linecap="round" stroke-linejoin="round"/>
<path opacity="0.4" d="M7.69922 17.0391L8.42246 20.4844C8.60732 21.3677 9.38677 22.0001 10.2895 22.0001H14.4516C15.3532 22.0001 16.1316 21.3709 16.3197 20.4888L17.0008 17.3093" stroke="black" stroke-width="1.5" stroke-linecap="round" stroke-linejoin="round"/>
<path opacity="0.4" d="M17.3016 6.96105L16.5783 3.51566C16.3935 2.63243 15.614 2 14.7113 2H10.5492C9.64756 2 8.86918 2.63027 8.68108 3.51134L8 6.69078" stroke="black" stroke-width="1.5" stroke-linecap="round" stroke-linejoin="round"/>
</svg>