<svg width="24" height="24" viewBox="0 0 24 24" fill="none" xmlns="http://www.w3.org/2000/svg">
<path d="M7.78216 3H16.2169C19.165 3 21 5.08119 21 8.02638V15.9736C21 18.9188 19.165 21 16.2159 21H7.78216C4.83405 21 3 18.9188 3 15.9736V8.02638C3 5.08119 4.84281 3 7.78216 3Z" stroke="black" stroke-width="1.5" stroke-linecap="round" stroke-linejoin="round"/>
<path d="M9.04102 14.3516C9.76102 15.2885 10.8216 15.8733 11.9989 15.8733C13.1762 15.8733 14.2367 15.2885 14.9567 14.3516" stroke="black" stroke-width="1.5" stroke-linecap="round" stroke-linejoin="round"/>
<path d="M8.76953 9.40377V9.3522M8.72401 9.19922C8.60001 9.19922 8.49901 9.30022 8.50001 9.42422C8.50001 9.54822 8.60101 9.64922 8.72501 9.64922C8.84901 9.64922 8.95001 9.54822 8.95001 9.42422C8.95001 9.29922 8.84901 9.19922 8.72401 9.19922Z" stroke="black" stroke-width="1.5" stroke-linecap="round" stroke-linejoin="round"/>
<path d="M15.2307 9.40377V9.3522M15.224 9.19922C15.1 9.19922 14.999 9.30022 15 9.42422C15 9.54822 15.101 9.64922 15.225 9.64922C15.349 9.64922 15.45 9.54822 15.45 9.42422C15.45 9.29922 15.349 9.19922 15.224 9.19922Z" stroke="black" stroke-width="1.5" stroke-linecap="round" stroke-linejoin="round"/>
</svg>