<svg width="24" height="24" viewBox="0 0 24 24" fill="none" xmlns="http://www.w3.org/2000/svg">
<path d="M21 12.0005C21 16.9709 16.9709 21 12.0005 21C7.0291 21 3 16.9709 3 12.0005C3 7.0291 7.0291 3 12.0005 3" stroke="black" stroke-width="1.5" stroke-linecap="round" stroke-linejoin="round"/>
<path d="M20.6001 6.97227L17.5816 3.95379M17.5781 6.97639L20.6014 3.95312" stroke="black" stroke-width="1.5" stroke-linecap="round" stroke-linejoin="round"/>
<path d="M9.12012 14.2891C9.82079 15.2014 10.8539 15.7706 12.0001 15.7706C13.1463 15.7706 14.1794 15.2014 14.8801 14.2891" stroke="black" stroke-width="1.5" stroke-linecap="round" stroke-linejoin="round"/>
<path d="M9.06934 10.0053V9.95377M9.02381 9.80078C8.89981 9.80078 8.79881 9.90178 8.79981 10.0258C8.79981 10.1498 8.90081 10.2508 9.02481 10.2508C9.14881 10.2508 9.24981 10.1498 9.24981 10.0258C9.24981 9.90078 9.14881 9.80078 9.02381 9.80078Z" stroke="black" stroke-width="1.5" stroke-linecap="round" stroke-linejoin="round"/>
<path d="M15.5305 10.0053V9.95377M15.5238 9.80078C15.3998 9.80078 15.2988 9.90178 15.2998 10.0258C15.2998 10.1498 15.4008 10.2508 15.5248 10.2508C15.6488 10.2508 15.7498 10.1498 15.7498 10.0258C15.7498 9.90078 15.6488 9.80078 15.5238 9.80078Z" stroke="black" stroke-width="1.5" stroke-linecap="round" stroke-linejoin="round"/>
</svg>