<svg width="25" height="24" viewBox="0 0 25 24" fill="none" xmlns="http://www.w3.org/2000/svg">
<path opacity="0.4" d="M21.5 12.0005C21.5 16.9709 17.4709 21 12.5005 21C7.5291 21 3.5 16.9709 3.5 12.0005C3.5 7.0291 7.5291 3 12.5005 3" stroke="black" stroke-width="1.5" stroke-linecap="round" stroke-linejoin="round"/>
<path d="M21.1001 6.97227L18.0816 3.95379M18.0781 6.97639L21.1014 3.95312" stroke="black" stroke-width="1.5" stroke-linecap="round" stroke-linejoin="round"/>
<path d="M9.62012 14.2891C10.3208 15.2014 11.3539 15.7706 12.5001 15.7706C13.6463 15.7706 14.6794 15.2014 15.3801 14.2891" stroke="black" stroke-width="1.5" stroke-linecap="round" stroke-linejoin="round"/>
<path d="M9.56934 10.0053V9.95377M9.52381 9.80078C9.39981 9.80078 9.29881 9.90178 9.29981 10.0258C9.29981 10.1498 9.40081 10.2508 9.52481 10.2508C9.64881 10.2508 9.74981 10.1498 9.74981 10.0258C9.74981 9.90078 9.64881 9.80078 9.52381 9.80078Z" stroke="black" stroke-width="1.5" stroke-linecap="round" stroke-linejoin="round"/>
<path d="M16.0305 10.0053V9.95377M16.0238 9.80078C15.8998 9.80078 15.7988 9.90178 15.7998 10.0258C15.7998 10.1498 15.9008 10.2508 16.0248 10.2508C16.1488 10.2508 16.2498 10.1498 16.2498 10.0258C16.2498 9.90078 16.1488 9.80078 16.0238 9.80078Z" stroke="black" stroke-width="1.5" stroke-linecap="round" stroke-linejoin="round"/>
</svg>