<svg width="25" height="24" viewBox="0 0 25 24" fill="none" xmlns="http://www.w3.org/2000/svg">
<path d="M12.2505 3C7.2791 3 3.25 7.0291 3.25 12.0005C3.25 15.7329 5.52198 18.9345 8.75884 20.2978" stroke="black" stroke-width="1.5" stroke-linecap="round" stroke-linejoin="round"/>
<path d="M21.2495 12C21.2495 16.9704 17.2204 20.9995 12.25 20.9995" stroke="black" stroke-width="1.5" stroke-linecap="round" stroke-linejoin="round"/>
<path d="M20.8506 6.97227L17.8321 3.95379M17.8286 6.97639L20.8519 3.95312" stroke="black" stroke-width="1.5" stroke-linecap="round" stroke-linejoin="round"/>
<path d="M9.37036 14.2891C10.071 15.2014 11.1042 15.7706 12.2504 15.7706C13.3966 15.7706 14.4297 15.2014 15.1304 14.2891" stroke="black" stroke-width="1.5" stroke-linecap="round" stroke-linejoin="round"/>
<path d="M9.31934 10.0053V9.95377M9.27381 9.80078C9.14981 9.80078 9.04881 9.90178 9.04981 10.0258C9.04981 10.1498 9.15081 10.2508 9.27481 10.2508C9.39881 10.2508 9.49981 10.1498 9.49981 10.0258C9.49981 9.90078 9.39881 9.80078 9.27381 9.80078Z" stroke="black" stroke-width="1.5" stroke-linecap="round" stroke-linejoin="round"/>
<path d="M15.7805 10.0053V9.95377M15.7738 9.80078C15.6498 9.80078 15.5488 9.90178 15.5498 10.0258C15.5498 10.1498 15.6508 10.2508 15.7748 10.2508C15.8988 10.2508 15.9998 10.1498 15.9998 10.0258C15.9998 9.90078 15.8988 9.80078 15.7738 9.80078Z" stroke="black" stroke-width="1.5" stroke-linecap="round" stroke-linejoin="round"/>
</svg>