<svg width="24" height="24" viewBox="0 0 24 24" fill="none" xmlns="http://www.w3.org/2000/svg">
<path opacity="0.4" d="M12 21C16.9709 21 21 16.9709 21 12C21 7.02908 16.9709 3 12 3C7.02908 3 3 7.02908 3 12C3 16.9709 7.02908 21 12 21Z" stroke="black" stroke-width="1.5" stroke-linecap="round" stroke-linejoin="round"/>
<path d="M11.746 7.34816C13.295 7.20026 14.5978 8.41453 14.5978 9.93237C14.5978 12.2043 14.7106 13.3407 16.7879 14.2495C15.85 14.663 15.7391 14.7126 15.3615 15.49C15.2633 15.6924 15.0667 15.8412 14.842 15.8588C13.5119 15.9668 12.9826 16.6634 12.0019 16.6634C11.0201 16.6634 10.4908 15.9668 9.16176 15.8588C8.93701 15.8412 8.73949 15.6924 8.64122 15.49C8.26371 14.7126 8.15279 14.663 7.21484 14.2495C9.25711 13.3563 9.40111 12.2432 9.40501 10.0472C9.40792 8.69086 10.3955 7.47756 11.746 7.34816Z" stroke="black" stroke-width="1.5" stroke-linecap="round" stroke-linejoin="round"/>
<path d="M7.77539 10.4766C8.32804 10.7899 8.82717 11.2861 9.29907 11.8718" stroke="black" stroke-width="1.5" stroke-linecap="round" stroke-linejoin="round"/>
<path d="M16.2307 10.4766C15.6781 10.7899 15.1789 11.2861 14.707 11.8718" stroke="black" stroke-width="1.5" stroke-linecap="round" stroke-linejoin="round"/>
</svg>