<svg width="24" height="24" viewBox="0 0 24 24" fill="none" xmlns="http://www.w3.org/2000/svg">
<path opacity="0.4" d="M7.78216 3H16.2169C19.165 3 21 5.08119 21 8.02638V15.9736C21 18.9188 19.165 21 16.2159 21H7.78216C4.83405 21 3 18.9188 3 15.9736V8.02638C3 5.08119 4.84281 3 7.78216 3Z" stroke="black" stroke-width="1.5" stroke-linecap="round" stroke-linejoin="round"/>
<path fill-rule="evenodd" clip-rule="evenodd" d="M14.6664 9.87775C14.6664 8.31807 13.3276 7.07169 11.7377 7.22347C10.3512 7.35677 9.33642 8.60218 9.3335 9.99547C9.32863 12.2508 9.18074 13.3941 7.08398 14.3116C8.04723 14.7368 8.16107 14.7864 8.54928 15.5852C8.65047 15.7934 8.85188 15.9462 9.08344 15.9647C10.4485 16.0746 10.9914 16.7897 11.9994 16.7897C13.0084 16.7897 13.5513 16.0746 14.9164 15.9647C15.148 15.9462 15.3494 15.7934 15.4506 15.5852C15.8388 14.7864 15.9526 14.7368 16.9159 14.3116C14.7821 13.3785 14.6664 12.2119 14.6664 9.87775Z" stroke="black" stroke-width="1.5" stroke-linecap="round" stroke-linejoin="round"/>
<path d="M7.6582 10.4375C8.22545 10.7596 8.7382 11.2694 9.22372 11.8697" stroke="black" stroke-width="1.5" stroke-linecap="round" stroke-linejoin="round"/>
<path d="M16.3429 10.4375C15.7756 10.7596 15.2629 11.2694 14.7773 11.8697" stroke="black" stroke-width="1.5" stroke-linecap="round" stroke-linejoin="round"/>
</svg>