<svg width="25" height="24" viewBox="0 0 25 24" fill="none" xmlns="http://www.w3.org/2000/svg">
<path fill-rule="evenodd" clip-rule="evenodd" d="M10.5839 6.42865C10.8768 6.13576 11.3517 6.13576 11.6446 6.42866L12.6142 7.39832L13.5839 6.42865C13.8768 6.13576 14.3517 6.13576 14.6446 6.42865C14.9375 6.72155 14.9374 7.19642 14.6446 7.48931L13.1446 8.98931C13.0039 9.12997 12.8131 9.20899 12.6142 9.20898C12.4153 9.20898 12.2245 9.12996 12.0839 8.98931L10.5839 7.48931C10.291 7.19641 10.291 6.72154 10.5839 6.42865Z" fill="black"/>
<path fill-rule="evenodd" clip-rule="evenodd" d="M10.5839 17.3165C10.8768 17.6094 11.3517 17.6094 11.6446 17.3165L12.6142 16.3468L13.5839 17.3165C13.8768 17.6094 14.3517 17.6094 14.6446 17.3165C14.9375 17.0236 14.9374 16.5487 14.6446 16.2558L13.1446 14.7558C13.0039 14.6151 12.8131 14.5361 12.6142 14.5361C12.4153 14.5361 12.2245 14.6152 12.0839 14.7558L10.5839 16.2558C10.291 16.5487 10.291 17.0236 10.5839 17.3165Z" fill="black"/>
<path fill-rule="evenodd" clip-rule="evenodd" d="M12.6143 5.25C13.0285 5.25 13.3643 5.58579 13.3643 6V18C13.3643 18.4142 13.0285 18.75 12.6143 18.75C12.2 18.75 11.8643 18.4142 11.8643 18V6C11.8643 5.58579 12.2 5.25 12.6143 5.25Z" fill="black"/>
<path fill-rule="evenodd" clip-rule="evenodd" d="M16.4235 16.4802C16.8236 16.373 17.061 15.9617 16.9538 15.5616L16.5989 14.2371L17.9235 13.8821C18.3236 13.7749 18.561 13.3637 18.4538 12.9636C18.3466 12.5635 17.9354 12.3261 17.5353 12.4333L15.4862 12.9823C15.2941 13.0338 15.1303 13.1595 15.0308 13.3317C14.9314 13.504 14.9044 13.7087 14.9559 13.9009L15.5049 15.9499C15.6122 16.35 16.0234 16.5874 16.4235 16.4802Z" fill="black"/>
<path fill-rule="evenodd" clip-rule="evenodd" d="M6.99539 11.0363C6.88818 10.6362 7.12562 10.2249 7.52572 10.1177L8.85029 9.76283L8.49537 8.43824C8.38817 8.03815 8.6256 7.62689 9.0257 7.51969C9.4258 7.41248 9.83705 7.64992 9.94426 8.05002L10.4933 10.0991C10.5448 10.2912 10.5178 10.4959 10.4184 10.6682C10.3189 10.8404 10.1551 10.9661 9.96296 11.0176L7.91394 11.5666C7.51384 11.6738 7.10259 11.4364 6.99539 11.0363Z" fill="black"/>
<path fill-rule="evenodd" clip-rule="evenodd" d="M18.46 15.3114C18.6671 14.9527 18.5442 14.494 18.1854 14.2869L7.79314 8.2869C7.43442 8.07979 6.97572 8.2027 6.76862 8.56142C6.56151 8.92014 6.68442 9.37883 7.04314 9.58594L17.4354 15.5859C17.7942 15.793 18.2529 15.6701 18.46 15.3114Z" fill="black"/>
<path fill-rule="evenodd" clip-rule="evenodd" d="M16.4235 7.5198C16.8236 7.62701 17.061 8.03827 16.9538 8.43837L16.5989 9.76293L17.9235 10.1179C18.3236 10.2251 18.561 10.6363 18.4538 11.0364C18.3466 11.4365 17.9354 11.6739 17.5353 11.5667L15.4862 11.0177C15.2941 10.9662 15.1303 10.8405 15.0308 10.6683C14.9314 10.496 14.9044 10.2913 14.9559 10.0991L15.5049 8.05012C15.6122 7.65003 16.0234 7.41259 16.4235 7.5198Z" fill="black"/>
<path fill-rule="evenodd" clip-rule="evenodd" d="M6.99539 12.9637C6.88818 13.3638 7.12562 13.7751 7.52572 13.8823L8.85029 14.2372L8.49537 15.5618C8.38817 15.9619 8.6256 16.3731 9.0257 16.4803C9.4258 16.5875 9.83705 16.3501 9.94426 15.95L10.4933 13.9009C10.5448 13.7088 10.5178 13.5041 10.4184 13.3318C10.3189 13.1596 10.1551 13.0339 9.96296 12.9824L7.91394 12.4334C7.51384 12.3262 7.10259 12.5636 6.99539 12.9637Z" fill="black"/>
<path fill-rule="evenodd" clip-rule="evenodd" d="M18.46 8.68858C18.6671 9.0473 18.5442 9.50599 18.1854 9.7131L7.79314 15.7131C7.43442 15.9202 6.97572 15.7973 6.76862 15.4386C6.56151 15.0799 6.68442 14.6212 7.04314 14.4141L17.4354 8.41406C17.7942 8.20696 18.2529 8.32986 18.46 8.68858Z" fill="black"/>
<path fill-rule="evenodd" clip-rule="evenodd" d="M4.35445 3.89737C5.33894 2.84117 6.74095 2.25 8.39642 2.25H16.8311C18.4905 2.25 19.8931 2.84084 20.8771 3.89765C21.8555 4.94841 22.3643 6.39889 22.3643 8.02638V15.9736C22.3643 17.6011 21.8555 19.0516 20.877 20.1024C19.8928 21.1592 18.4899 21.75 16.8301 21.75H8.39642C6.73706 21.75 5.33464 21.1591 4.35083 20.1023C3.37268 19.0515 2.86426 17.601 2.86426 15.9736V8.02638C2.86426 6.39806 3.37542 4.94771 4.35445 3.89737ZM5.45171 4.92012C4.7745 5.64666 4.36426 6.70951 4.36426 8.02638V15.9736C4.36426 17.2914 4.77287 18.3541 5.44876 19.0802C6.11901 19.8003 7.10767 20.25 8.39642 20.25H16.8301C18.1195 20.25 19.1087 19.8002 19.7793 19.0801C20.4555 18.354 20.8643 17.2913 20.8643 15.9736V8.02638C20.8643 6.70868 20.4555 5.64597 19.7793 4.91984C19.1088 4.19975 18.1199 3.75 16.8311 3.75H8.39642C7.11254 3.75 6.12347 4.19943 5.45171 4.92012Z" fill="black"/>
</svg>