<svg width="24" height="25" viewBox="0 0 24 25" fill="none" xmlns="http://www.w3.org/2000/svg">
<path fill-rule="evenodd" clip-rule="evenodd" d="M7.86634 7.7953C7.9092 7.87303 7.98431 7.92791 8.07152 7.9444C10.6465 8.43136 13.2458 8.43902 15.8228 7.96469C15.9188 7.94701 15.9999 7.88293 16.04 7.79389L17.452 4.66192C17.526 4.49692 17.505 4.30392 17.397 4.15892C17.288 4.01392 17.116 3.93792 16.929 3.96092C16.504 4.01792 15.331 4.16892 15.015 4.18692C13.625 4.25692 12.344 3.84592 11.265 3.42592C9.78296 2.84992 8.36896 3.06992 7.06496 4.07992C6.66896 4.38592 6.51196 4.52392 6.51196 4.52392C6.33396 4.67792 6.28796 4.93592 6.40296 5.14192L7.86634 7.7953Z" fill="black"/>
<path fill-rule="evenodd" clip-rule="evenodd" d="M14.4154 15.8245C14.7734 16.0315 14.8964 16.4895 14.6894 16.8485C14.5514 17.0895 14.2994 17.2235 14.0394 17.2235C13.9124 17.2235 13.7834 17.1915 13.6654 17.1235L12.7494 16.5945V17.6525C12.7494 18.0665 12.4134 18.4025 11.9994 18.4025C11.5854 18.4025 11.2494 18.0665 11.2494 17.6525V16.5945L10.3334 17.1235C10.2154 17.1915 10.0864 17.2235 9.95943 17.2235C9.69943 17.2235 9.44743 17.0895 9.30943 16.8485C9.10243 16.4895 9.22543 16.0315 9.58343 15.8245L10.4994 15.2965L9.58343 14.7675C9.22543 14.5605 9.10243 14.1025 9.30943 13.7435C9.51543 13.3865 9.97443 13.2605 10.3334 13.4695L11.2494 13.9975V12.9395C11.2494 12.5255 11.5854 12.1895 11.9994 12.1895C12.4134 12.1895 12.7494 12.5255 12.7494 12.9395V13.9975L13.6654 13.4695C14.0254 13.2605 14.4824 13.3865 14.6894 13.7435C14.8964 14.1025 14.7734 14.5605 14.4154 14.7675L13.4994 15.2965L14.4154 15.8245ZM17.7724 11.6735C17.3463 10.9655 16.898 10.2643 16.4504 9.56364C16.384 9.45977 16.2609 9.40721 16.1398 9.42986C14.764 9.68707 13.3822 9.82348 12.0004 9.82348C10.6184 9.82348 9.2381 9.68702 7.86313 9.43057C7.74245 9.40807 7.61981 9.46017 7.55335 9.56339C7.10305 10.2627 6.6537 10.9643 6.22743 11.6735C5.04943 13.6335 3.87443 15.9265 4.84243 18.3425C6.17643 21.6685 10.2864 22.0895 12.0074 22.1165C13.7134 22.0895 17.8234 21.6685 19.1564 18.3425C20.1254 15.9285 18.9494 13.6345 17.7724 11.6735Z" fill="black"/>
</svg>