<svg width="24" height="25" viewBox="0 0 24 25" fill="none" xmlns="http://www.w3.org/2000/svg">
<path d="M9.78516 12.9893C9.37516 12.9893 9.03516 12.6493 9.03516 12.2393V7.57935C9.03516 7.16935 9.37516 6.82935 9.78516 6.82935C10.1952 6.82935 10.5352 7.16935 10.5352 7.57935V12.2393C10.5352 12.6493 10.1952 12.9893 9.78516 12.9893Z" fill="black"/>
<path d="M9.95508 20.5995C9.54508 20.5995 9.20508 20.2595 9.20508 19.8495V19.4495C9.20508 19.0395 9.54508 18.6995 9.95508 18.6995C10.3651 18.6995 10.7051 19.0395 10.7051 19.4495V19.8495C10.7051 20.2595 10.3651 20.5995 9.95508 20.5995Z" fill="black"/>
<path d="M6.91504 20.5995C6.50504 20.5995 6.16504 20.2595 6.16504 19.8495V19.4495C6.16504 19.0395 6.50504 18.6995 6.91504 18.6995C7.32504 18.6995 7.66504 19.0395 7.66504 19.4495V19.8495C7.66504 20.2595 7.32504 20.5995 6.91504 20.5995Z" fill="black"/>
<path d="M12.9951 20.5995C12.5851 20.5995 12.2451 20.2595 12.2451 19.8495V19.4495C12.2451 19.0395 12.5851 18.6995 12.9951 18.6995C13.4051 18.6995 13.7451 19.0395 13.7451 19.4495V19.8495C13.7451 20.2595 13.4051 20.5995 12.9951 20.5995Z" fill="black"/>
<path d="M7.76483 11.8294C7.50483 11.8294 7.25481 11.6994 7.11481 11.4494C6.90481 11.0894 7.03483 10.6294 7.38483 10.4294L11.4248 8.09942C11.7848 7.88942 12.2448 8.01944 12.4448 8.36944C12.6548 8.72944 12.5248 9.18943 12.1748 9.38943L8.13483 11.7194C8.01483 11.7894 7.88483 11.8194 7.76483 11.8194V11.8294Z" fill="black"/>
<path d="M11.8048 11.8194C11.6748 11.8194 11.5448 11.7894 11.4348 11.7194L7.39483 9.38943C7.03483 9.17943 6.91481 8.71944 7.12481 8.36944C7.33481 8.01944 7.78483 7.88942 8.14483 8.09942L12.1848 10.4294C12.5448 10.6394 12.6648 11.0994 12.4548 11.4494C12.3148 11.6894 12.0648 11.8294 11.8048 11.8294V11.8194Z" fill="black"/>
<path d="M4.71484 18.1894C4.30484 18.1894 3.96484 17.8494 3.96484 17.4394V8.43936C3.96484 5.22936 6.57485 2.61938 9.78485 2.61938C12.9949 2.61938 15.6049 5.22936 15.6049 8.43936V12.2994C15.6049 12.7094 15.2649 13.0494 14.8549 13.0494C14.4449 13.0494 14.1049 12.7094 14.1049 12.2994V8.43936C14.1049 6.05936 12.1649 4.11938 9.78485 4.11938C7.40485 4.11938 5.46484 6.05936 5.46484 8.43936V17.4394C5.46484 17.8494 5.12484 18.1894 4.71484 18.1894Z" fill="black"/>
<path d="M14.7954 17.9792C14.6054 17.9792 14.4154 17.9092 14.2654 17.7592C13.9754 17.4692 13.9754 16.9892 14.2654 16.6992L18.5154 12.4492C18.7954 12.1692 18.9554 11.7992 18.9554 11.3992C18.9554 10.9992 18.8053 10.6292 18.5253 10.3492C17.9453 9.76919 17.0054 9.76919 16.4254 10.3492L15.3853 11.3892C15.0953 11.6792 14.6153 11.6792 14.3253 11.3892C14.0353 11.0992 14.0353 10.6192 14.3253 10.3292L15.3653 9.28919C16.5353 8.12919 18.4253 8.12919 19.5853 9.28919C20.1453 9.84919 20.4554 10.5992 20.4554 11.3992C20.4554 12.1992 20.1453 12.9492 19.5753 13.5092L15.3253 17.7592C15.1753 17.9092 14.9854 17.9792 14.7954 17.9792Z" fill="black"/>
<path d="M13.7949 22.6099H6.10492C4.62492 22.6099 3.54492 21.6299 3.54492 20.2899V18.9999C3.54492 17.6599 4.62492 16.6799 6.10492 16.6799H13.7949C15.2749 16.6799 16.3549 17.6499 16.3549 18.9999V20.2899C16.3549 21.6299 15.2749 22.6099 13.7949 22.6099ZM6.10492 18.1899C5.61492 18.1899 5.04492 18.3999 5.04492 19.0099V20.2999C5.04492 20.8999 5.61492 21.1199 6.10492 21.1199H13.7949C14.2849 21.1199 14.8549 20.9099 14.8549 20.2999V19.0099C14.8549 18.4099 14.2849 18.1899 13.7949 18.1899H6.10492Z" fill="black"/>
</svg>