<svg width="24" height="25" viewBox="0 0 24 25" fill="none" xmlns="http://www.w3.org/2000/svg">
<path fill-rule="evenodd" clip-rule="evenodd" d="M13.2422 15.317C13.2422 15.731 12.9062 16.067 12.4922 16.067C12.0782 16.067 11.7422 15.731 11.7422 15.317C11.7422 14.9031 12.0782 14.562 12.4922 14.562C12.9062 14.562 13.2422 14.8921 13.2422 15.3061V15.317ZM13.2422 17.85C13.2422 18.264 12.9062 18.6 12.4922 18.6C12.0782 18.6 11.7422 18.264 11.7422 17.85C11.7422 17.4361 12.0782 17.095 12.4922 17.095C12.9062 17.095 13.2422 17.4261 13.2422 17.84V17.85ZM20.6792 10.6761C20.4202 10.35 19.9482 10.298 19.6252 10.554L16.9792 12.6551C16.8451 12.4652 16.698 12.2849 16.542 12.1122C16.3925 11.9468 16.1361 11.951 15.9705 12.1002C14.9164 13.05 13.5248 13.6311 11.9972 13.6311C11.564 13.6311 11.1422 13.5823 10.735 13.4926C10.5399 13.4496 10.3482 13.5935 10.3482 13.7932V15.1311C10.3482 15.5461 10.0132 15.8811 9.59824 15.8811C9.18424 15.8811 8.84824 15.5461 8.84824 15.1311C8.84824 14.528 8.86072 13.4296 8.86644 12.9575C8.86814 12.8172 8.79569 12.6877 8.67917 12.6094C8.45005 12.4556 8.2323 12.2867 8.02755 12.1032C7.8614 11.9543 7.60477 11.9499 7.45532 12.1156C7.30289 12.2846 7.15946 12.4605 7.02824 12.6451L4.37324 10.5531C4.04624 10.2961 3.57524 10.3531 3.32024 10.6781C3.06324 11.0041 3.12024 11.4751 3.44524 11.7311L6.29824 13.979C6.24524 14.121 6.20324 14.2661 6.16024 14.4121C6.14124 14.475 6.12024 14.538 6.10324 14.602C6.05424 14.7871 6.01824 14.975 5.98724 15.1641C5.97524 15.2371 5.95824 15.309 5.94824 15.382C5.91524 15.642 5.89524 15.903 5.89524 16.165C5.89524 17.289 6.20624 18.3681 6.76824 19.3011C7.15624 19.958 7.66624 20.532 8.25924 20.991H6.21724C5.80324 20.991 5.46724 21.327 5.46724 21.741C5.46724 22.155 5.80324 22.491 6.21724 22.491H17.7832C18.1972 22.491 18.5332 22.155 18.5332 21.741C18.5332 21.327 18.1972 20.991 17.7832 20.991H15.7412C16.1322 20.688 16.4882 20.3381 16.7942 19.9431C17.6292 18.8831 18.1042 17.559 18.1042 16.165C18.1042 15.9021 18.0842 15.6411 18.0512 15.3811C18.0422 15.3091 18.0252 15.24 18.0132 15.168C17.9822 14.977 17.9452 14.787 17.8962 14.599C17.8802 14.538 17.8602 14.478 17.8412 14.417C17.7992 14.274 17.7602 14.1311 17.7072 13.9921L20.5562 11.7301C20.8822 11.472 20.9352 11.001 20.6792 10.6761Z" fill="black"/>
<path fill-rule="evenodd" clip-rule="evenodd" d="M10.6768 5.70775C11.0908 5.70775 11.4268 6.03875 11.4268 6.45275V6.46275C11.4268 6.87675 11.0908 7.21275 10.6768 7.21275C10.2628 7.21275 9.92684 6.87675 9.92684 6.46275C9.92684 6.04875 10.2628 5.70775 10.6768 5.70775ZM12.6548 7.91975C12.8568 8.28075 12.7278 8.73775 12.3658 8.93975L11.5368 9.40375C11.4208 9.46975 11.2958 9.49975 11.1718 9.49975C10.9088 9.49975 10.6538 9.36175 10.5168 9.11575C10.3148 8.75475 10.4438 8.29775 10.8048 8.09575L11.6338 7.63175C11.9968 7.42875 12.4538 7.55875 12.6548 7.91975ZM13.3208 5.70775C13.7348 5.70775 14.0708 6.03875 14.0708 6.45275V6.46275C14.0708 6.87675 13.7348 7.21275 13.3208 7.21275C12.9058 7.21275 12.5708 6.87675 12.5708 6.46275C12.5708 6.04875 12.9058 5.70775 13.3208 5.70775ZM11.9968 12.6317C14.7238 12.6317 16.9428 10.4127 16.9428 7.68575C16.9428 4.95875 14.7238 2.73975 11.9968 2.73975C9.26984 2.73975 7.05084 4.95875 7.05084 7.68575C7.05084 10.4127 9.26984 12.6317 11.9968 12.6317Z" fill="black"/>
</svg>