<svg width="24" height="25" viewBox="0 0 24 25" fill="none" xmlns="http://www.w3.org/2000/svg">
<path fill-rule="evenodd" clip-rule="evenodd" d="M7.17969 18.1993C8.30921 16.9846 9.27224 15.5588 10.075 13.9275H7.99967C9.71779 11.9139 11.1952 9.5196 12.5123 6.89551C13.8286 9.5196 15.3068 11.9139 17.0241 13.9275H14.9488C15.7516 15.5588 16.7154 16.9846 17.8441 18.1993H7.17969Z" stroke="black" stroke-width="1.5" stroke-linecap="round" stroke-linejoin="round"/>
<path d="M12.5117 18.2251V21.3563" stroke="black" stroke-width="1.5" stroke-linecap="round" stroke-linejoin="round"/>
<path d="M9.50977 12.0401L14.6622 10.8208" stroke="black" stroke-width="1.5" stroke-linecap="round" stroke-linejoin="round"/>
<path d="M8.78711 16.2085L15.2825 14.6714" stroke="black" stroke-width="1.5" stroke-linecap="round" stroke-linejoin="round"/>
<path d="M19.547 6.89551C19.7954 7.71167 20.4341 8.35041 21.2502 8.59882C20.4341 8.84724 19.7954 9.48597 19.547 10.3021C19.2986 9.48597 18.6599 8.84724 17.8437 8.59882C18.6599 8.35041 19.2986 7.71167 19.547 6.89551Z" stroke="black" stroke-width="1.5" stroke-linecap="round" stroke-linejoin="round"/>
<path d="M4.96598 3.87402V8.98851M7.17928 5.15265L2.75 7.70989M7.17928 7.70989L2.75 5.15265" stroke="black" stroke-width="1.5" stroke-linecap="round" stroke-linejoin="round"/>
<circle cx="12.5115" cy="5.55884" r="1.12671" stroke="black" stroke-width="1.5" stroke-linecap="round" stroke-linejoin="round"/>
</svg>