<svg width="24" height="25" viewBox="0 0 24 25" fill="none" xmlns="http://www.w3.org/2000/svg">
<path fill-rule="evenodd" clip-rule="evenodd" d="M3.32033 10.8025C3.064 11.1279 3.11996 11.5994 3.44533 11.8558L6.54516 14.2979C6.87053 14.5542 7.3421 14.4982 7.59843 14.1729C7.85476 13.8475 7.79879 13.3759 7.47342 13.1196L4.3736 10.6775C4.04823 10.4212 3.57666 10.4771 3.32033 10.8025Z" fill="black"/>
<path fill-rule="evenodd" clip-rule="evenodd" d="M11.9966 11.5063C9.95549 11.5063 8.30087 9.85173 8.30087 7.81065C8.30087 5.76957 9.95549 4.11495 11.9966 4.11495C14.0376 4.11495 15.6923 5.76957 15.6923 7.81065C15.6923 9.85173 14.0376 11.5063 11.9966 11.5063ZM6.80087 7.81065C6.80087 10.6802 9.12706 13.0063 11.9966 13.0063C14.8661 13.0063 17.1923 10.6802 17.1923 7.81065C17.1923 4.94115 14.8661 2.61495 11.9966 2.61495C9.12706 2.61495 6.80087 4.94115 6.80087 7.81065Z" fill="black"/>
<path fill-rule="evenodd" clip-rule="evenodd" d="M20.678 10.8002C20.9356 11.1246 20.8815 11.5964 20.5571 11.854L17.9154 13.9516C18.1989 14.6768 18.3551 15.4714 18.3551 16.2891C18.3551 18.6925 17.0205 20.7832 15.0556 21.8623C15.0415 21.87 15.0273 21.8773 15.0128 21.8841C12.9176 22.8657 10.8683 22.8551 8.9626 21.8716C7.02664 20.8723 5.64604 18.6848 5.64604 16.2893C5.64604 13.8859 6.98062 11.7953 8.94556 10.7161C9.30862 10.5167 9.76458 10.6494 9.96398 11.0125C10.1634 11.3755 10.0307 11.8315 9.66762 12.0309C8.1631 12.8572 7.14604 14.455 7.14604 16.2893C7.14604 18.1315 8.2203 19.8004 9.65058 20.5386C11.1049 21.2892 12.6561 21.3252 14.3543 20.5361C15.8474 19.7065 16.8551 18.115 16.8551 16.2891C16.8551 15.4929 16.6618 14.7269 16.3251 14.0674C16.1627 13.7494 16.247 13.3611 16.5266 13.139L19.6243 10.6793C19.9487 10.4217 20.4204 10.4759 20.678 10.8002Z" fill="black"/>
<path fill-rule="evenodd" clip-rule="evenodd" d="M10.639 11.4644C11.0532 11.4644 11.389 11.8001 11.389 12.2144V14.5131C11.389 14.9273 11.0532 15.2631 10.639 15.2631C10.2248 15.2631 9.88903 14.9273 9.88903 14.5131V12.2144C9.88903 11.8001 10.2248 11.4644 10.639 11.4644Z" fill="black"/>
<path fill-rule="evenodd" clip-rule="evenodd" d="M13.321 5.82715C13.7352 5.82715 14.071 6.16293 14.071 6.57715V6.58715C14.071 7.00136 13.7352 7.33715 13.321 7.33715C12.9068 7.33715 12.571 7.00136 12.571 6.58715V6.57715C12.571 6.16293 12.9068 5.82715 13.321 5.82715Z" fill="black"/>
<path fill-rule="evenodd" clip-rule="evenodd" d="M12.4923 14.6816C12.9065 14.6816 13.2423 15.0174 13.2423 15.4316V15.4416C13.2423 15.8559 12.9065 16.1916 12.4923 16.1916C12.0781 16.1916 11.7423 15.8559 11.7423 15.4416V15.4316C11.7423 15.0174 12.0781 14.6816 12.4923 14.6816Z" fill="black"/>
<path fill-rule="evenodd" clip-rule="evenodd" d="M12.4923 17.2148C12.9065 17.2148 13.2423 17.5506 13.2423 17.9648V17.9748C13.2423 18.3891 12.9065 18.7248 12.4923 18.7248C12.0781 18.7248 11.7423 18.3891 11.7423 17.9748V17.9648C11.7423 17.5506 12.0781 17.2148 12.4923 17.2148Z" fill="black"/>
<path fill-rule="evenodd" clip-rule="evenodd" d="M10.6769 5.82715C11.0911 5.82715 11.4269 6.16293 11.4269 6.57715V6.58715C11.4269 7.00136 11.0911 7.33715 10.6769 7.33715C10.2627 7.33715 9.92686 7.00136 9.92686 6.58715V6.57715C9.92686 6.16293 10.2627 5.82715 10.6769 5.82715Z" fill="black"/>
<path fill-rule="evenodd" clip-rule="evenodd" d="M5.46684 21.8647C5.46684 21.4505 5.80263 21.1147 6.21684 21.1147H17.7828C18.197 21.1147 18.5328 21.4505 18.5328 21.8647C18.5328 22.279 18.197 22.6147 17.7828 22.6147H6.21684C5.80263 22.6147 5.46684 22.279 5.46684 21.8647Z" fill="black"/>
<path fill-rule="evenodd" clip-rule="evenodd" d="M12.6543 8.04366C12.8568 8.40501 12.728 8.86209 12.3666 9.06457L11.5379 9.52894C11.1766 9.73142 10.7195 9.60263 10.517 9.24128C10.3145 8.87994 10.4433 8.42286 10.8047 8.22037L11.6334 7.75601C11.9947 7.55353 12.4518 7.68231 12.6543 8.04366Z" fill="black"/>
</svg>