<svg width="24" height="25" viewBox="0 0 24 25" fill="none" xmlns="http://www.w3.org/2000/svg">
<path d="M7.00928 13.7087L3.90945 11.2666" stroke="black" stroke-width="1.5" stroke-linecap="round" stroke-linejoin="round"/>
<circle r="4.4457" transform="matrix(1 0 0 -1 11.9966 7.81065)" stroke="black" stroke-width="1.5" stroke-linecap="round" stroke-linejoin="round"/>
<path d="M9.30654 11.3735C7.57181 12.3262 6.396 14.1704 6.396 16.2893C6.396 18.4081 7.62343 20.3363 9.30654 21.2051C10.9897 22.0738 12.7935 22.0956 14.6945 21.2049C16.4292 20.2522 17.605 18.408 17.605 16.2891C17.605 15.3727 17.3829 14.4901 16.993 13.7263L20.0906 11.2666" stroke="black" stroke-width="1.5" stroke-linecap="round" stroke-linejoin="round"/>
<path d="M10.639 12.2144V14.5131" stroke="black" stroke-width="1.5" stroke-linecap="round" stroke-linejoin="round"/>
<path d="M13.321 6.57715V6.58715" stroke="black" stroke-width="1.5" stroke-linecap="round" stroke-linejoin="round"/>
<path d="M12.4923 15.4316V15.4416" stroke="black" stroke-width="1.5" stroke-linecap="round" stroke-linejoin="round"/>
<path d="M12.4923 17.9648V17.9748" stroke="black" stroke-width="1.5" stroke-linecap="round" stroke-linejoin="round"/>
<path d="M10.6769 6.57715V6.58715" stroke="black" stroke-width="1.5" stroke-linecap="round" stroke-linejoin="round"/>
<path d="M6.2168 21.8647H17.7828" stroke="black" stroke-width="1.5" stroke-linecap="round" stroke-linejoin="round"/>
<path d="M12 8.41016L11.1713 8.87452" stroke="black" stroke-width="1.5" stroke-linecap="round" stroke-linejoin="round"/>
</svg>