<svg width="24" height="25" viewBox="0 0 24 25" fill="none" xmlns="http://www.w3.org/2000/svg">
<path fill-rule="evenodd" clip-rule="evenodd" d="M10.2795 10.8326C10.0138 10.894 9.8082 10.5963 9.9555 10.3668C10.6466 9.29023 11.3193 8.10283 11.985 6.80463C11.415 6.55463 11.005 5.98463 11.005 5.31463C11.005 4.41463 11.735 3.68463 12.635 3.68463C13.535 3.68463 14.265 4.41463 14.265 5.31463C14.265 5.98463 13.855 6.55463 13.285 6.80463C13.7549 7.72693 14.2323 8.58867 14.7239 9.39643C14.8311 9.57252 14.7357 9.803 14.5349 9.84941L10.2795 10.8326Z" fill="black"/>
<path fill-rule="evenodd" clip-rule="evenodd" d="M7.67502 13.8946C7.58502 13.7146 7.61502 13.5046 7.74502 13.3646C7.86158 13.2314 7.97814 13.0913 8.08892 12.95C8.13198 12.8951 8.19222 12.856 8.26021 12.8403L15.6135 11.1412C15.7348 11.1132 15.8607 11.1631 15.9309 11.2659C16.4463 12.0207 16.9863 12.7229 17.535 13.3646C17.655 13.5046 17.685 13.7146 17.605 13.8946C17.525 14.0746 17.345 14.1846 17.145 14.1846H16.0118C15.9597 14.1846 15.9278 14.244 15.9533 14.2893C15.9772 14.3317 15.9517 14.3844 15.9039 14.3932L9.11471 15.6422C8.85082 15.6908 8.65731 15.3925 8.80114 15.166C8.9727 14.8958 9.13789 14.6176 9.29533 14.3314C9.33176 14.2652 9.28358 14.1846 9.20801 14.1846H8.12502C7.92502 14.1846 7.75502 14.0746 7.67502 13.8946Z" fill="black"/>
<path fill-rule="evenodd" clip-rule="evenodd" d="M18.425 18.1546C18.345 18.3346 18.165 18.4546 17.965 18.4546H13.685C13.5193 18.4546 13.385 18.5889 13.385 18.7546V21.1146C13.385 21.5246 13.055 21.8646 12.635 21.8646C12.225 21.8646 11.885 21.5246 11.885 21.1146V18.7546C11.885 18.5889 11.7507 18.4546 11.585 18.4546H7.30502C7.10502 18.4546 6.92502 18.3346 6.84502 18.1546C6.76677 17.9786 6.80333 17.7738 6.92664 17.6245C6.93212 17.6179 6.93679 17.6104 6.94212 17.6036C6.96213 17.5782 6.99373 17.5612 7.02555 17.5553L16.8228 15.755C16.8243 15.7548 16.8256 15.7546 16.8271 15.7546C16.8428 15.7546 16.8631 15.7569 16.8718 15.77C17.3175 16.4401 17.8116 17.0517 18.335 17.6146C18.475 17.7646 18.505 17.9746 18.425 18.1546Z" fill="black"/>
<path fill-rule="evenodd" clip-rule="evenodd" d="M21.5205 7.87743C20.8625 7.67743 20.3505 7.16543 20.1505 6.50743C20.0215 6.08643 19.3225 6.08643 19.1935 6.50743C18.9935 7.16543 18.4815 7.67743 17.8235 7.87743C17.6135 7.94143 17.4685 8.13543 17.4685 8.35643C17.4685 8.57543 17.6125 8.77043 17.8235 8.83443C18.4815 9.03443 18.9935 9.54643 19.1935 10.2054C19.2575 10.4154 19.4525 10.5594 19.6715 10.5594C19.8915 10.5594 20.0855 10.4154 20.1505 10.2054C20.3505 9.54643 20.8625 9.03443 21.5205 8.83443C21.7315 8.77043 21.8745 8.57543 21.8745 8.35643C21.8745 8.13543 21.7305 7.94143 21.5205 7.87743Z" fill="black"/>
<path fill-rule="evenodd" clip-rule="evenodd" d="M7.10001 7.60023C7.27701 7.29423 7.17201 6.90223 6.86601 6.72623L5.93501 6.18823L6.86601 5.65123C7.17201 5.47523 7.27701 5.08323 7.10001 4.77723C6.92401 4.47123 6.53301 4.36623 6.22601 4.54323L5.29701 5.07923V4.00523C5.29701 3.65223 5.01001 3.36523 4.65701 3.36523C4.30301 3.36523 4.01601 3.65223 4.01601 4.00523V5.08023L3.08501 4.54323C2.77801 4.36623 2.38701 4.47123 2.21101 4.77723C2.03401 5.08323 2.13901 5.47523 2.44501 5.65123L3.37501 6.18823L2.44501 6.72623C2.13901 6.90223 2.03401 7.29423 2.21101 7.60023C2.38701 7.90623 2.77801 8.01223 3.08501 7.83423L4.01601 7.29723V8.37123C4.01601 8.72523 4.30301 9.01123 4.65701 9.01123C5.01001 9.01123 5.29701 8.72523 5.29701 8.37123V7.29823L6.22601 7.83423C6.53301 8.01223 6.92401 7.90623 7.10001 7.60023Z" fill="black"/>
</svg>