<svg width="24" height="25" viewBox="0 0 24 25" fill="none" xmlns="http://www.w3.org/2000/svg">
<path d="M12.0152 22.3661C8.28516 22.3061 5.59513 20.8761 4.61513 18.4361C3.60513 15.9161 4.80516 13.5561 6.01516 11.5461C6.54516 10.6661 7.10515 9.79608 7.66515 8.92608L7.95516 8.46609L6.18514 5.2561C6.01514 4.9461 6.08515 4.55607 6.35515 4.32607C6.35515 4.32607 6.51515 4.18609 6.91515 3.87609C8.27515 2.82609 9.81515 2.58609 11.3552 3.18609C12.4052 3.59609 13.6651 4.00608 14.9951 3.92608C15.3051 3.90608 16.4652 3.75608 16.8952 3.70608C17.1652 3.66608 17.4351 3.78609 17.5951 3.99609C17.7551 4.20609 17.7852 4.5061 17.6752 4.7561L16.0251 8.41607L16.2451 8.7561C16.8351 9.6761 17.4252 10.5961 17.9852 11.5361C19.1952 13.5461 20.3952 15.9061 19.3852 18.4261C18.4052 20.8661 15.7151 22.2961 12.0051 22.3561L12.0152 22.3661ZM7.80514 5.08608L9.48516 8.13607C9.61516 8.37607 9.60514 8.67609 9.46514 8.90609L8.92516 9.73608C8.37516 10.5861 7.82514 11.4461 7.30514 12.3161C6.23514 14.0961 5.25515 15.9861 6.00515 17.8761C7.05515 20.5061 10.5552 20.8461 12.0152 20.8661C13.4452 20.8461 16.9451 20.5061 18.0051 17.8761C18.7551 15.9961 17.7752 14.0961 16.7052 12.3161C16.1552 11.3961 15.5652 10.4861 14.9852 9.57607L14.5452 8.89608C14.4052 8.68608 14.3851 8.41609 14.4951 8.18609L15.7652 5.36608C15.4852 5.39608 15.2251 5.42609 15.0851 5.43609C13.4651 5.52609 12.0151 5.05609 10.8151 4.59609C9.75515 4.18609 8.78513 4.33607 7.83513 5.07607C7.83513 5.07607 7.81514 5.08609 7.80514 5.09609V5.08608Z" fill="black"/>
<path d="M12.005 9.62611C10.885 9.62611 9.77496 9.4961 8.66496 9.2461C8.26496 9.1561 8.00496 8.74611 8.10496 8.34611C8.19496 7.94611 8.60495 7.68611 9.00495 7.78611C11.005 8.24611 13.025 8.24611 15.015 7.78611C15.415 7.68611 15.825 7.94611 15.915 8.34611C16.005 8.74611 15.755 9.1561 15.355 9.2461C14.245 9.5061 13.125 9.62611 12.015 9.62611H12.005Z" fill="black"/>
<path d="M12.0054 18.4063C11.5954 18.4063 11.2554 18.0663 11.2554 17.6563V12.9463C11.2554 12.5363 11.5954 12.1963 12.0054 12.1963C12.4154 12.1963 12.7554 12.5363 12.7554 12.9463V17.6563C12.7554 18.0663 12.4154 18.4063 12.0054 18.4063Z" fill="black"/>
<path d="M9.96549 17.2264C9.70549 17.2264 9.4555 17.0964 9.3155 16.8464C9.1055 16.4864 9.23549 16.0264 9.58549 15.8264L13.6655 13.4664C14.0255 13.2564 14.4855 13.3864 14.6855 13.7364C14.8955 14.0964 14.7655 14.5564 14.4155 14.7564L10.3355 17.1164C10.2155 17.1864 10.0855 17.2164 9.96549 17.2164V17.2264Z" fill="black"/>
<path d="M14.0455 17.2264C13.9155 17.2264 13.7855 17.1964 13.6755 17.1264L9.59549 14.7664C9.23549 14.5564 9.1155 14.0964 9.3255 13.7464C9.5355 13.3864 9.98549 13.2664 10.3455 13.4764L14.4255 15.8364C14.7855 16.0464 14.9055 16.5064 14.6955 16.8564C14.5555 17.0964 14.3055 17.2364 14.0455 17.2364V17.2264Z" fill="black"/>
</svg>