<svg width="24" height="25" viewBox="0 0 24 25" fill="none" xmlns="http://www.w3.org/2000/svg">
<path fill-rule="evenodd" clip-rule="evenodd" d="M18.4627 8.13597V7.67197L18.8647 7.90497C19.0217 7.99497 19.1937 8.03797 19.3637 8.03797C19.7097 8.03797 20.0457 7.85997 20.2307 7.53797C20.5067 7.05997 20.3427 6.44897 19.8647 6.17197L19.4607 5.93897L19.8647 5.70597C20.3427 5.42997 20.5067 4.81897 20.2307 4.33997C19.9537 3.86297 19.3427 3.69697 18.8647 3.97397L18.4627 4.20597V3.74097C18.4627 3.18897 18.0147 2.74097 17.4627 2.74097C16.9107 2.74097 16.4627 3.18897 16.4627 3.74097V4.20697L16.0587 3.97397C15.5807 3.69797 14.9677 3.86097 14.6927 4.33997C14.4167 4.81897 14.5797 5.42997 15.0587 5.70597L15.4607 5.93897L15.0587 6.17097C14.5807 6.44797 14.4167 7.05897 14.6917 7.53697C14.8777 7.85797 15.2137 8.03697 15.5597 8.03697C15.7287 8.03697 15.9007 7.99397 16.0587 7.90397L16.4627 7.66997V8.13597C16.4627 8.68897 16.9107 9.13597 17.4627 9.13597C18.0147 9.13597 18.4627 8.68897 18.4627 8.13597Z" fill="black"/>
<path fill-rule="evenodd" clip-rule="evenodd" d="M21.7508 19.7575C22.2288 19.4805 22.3918 18.8706 22.1158 18.3916C21.8398 17.9125 21.2278 17.7495 20.7518 18.0255C20.7508 17.4735 20.3038 17.0266 19.7518 17.0266C19.1998 17.0266 18.7528 17.4735 18.7528 18.0255H18.7518C18.2738 17.7495 17.6618 17.9125 17.3868 18.3916C17.1098 18.8706 17.2738 19.4805 17.7518 19.7575C17.2738 20.0345 17.1098 20.6446 17.3868 21.1236C17.5718 21.4445 17.9078 21.6236 18.2528 21.6236C18.4228 21.6236 18.5948 21.5805 18.7518 21.4895H18.7528C18.7528 22.0415 19.1998 22.4886 19.7518 22.4886C20.3038 22.4886 20.7508 22.0416 20.7518 21.4906C20.9088 21.5806 21.0808 21.6236 21.2488 21.6236C21.5948 21.6236 21.9308 21.4445 22.1158 21.1236C22.3918 20.6446 22.2288 20.0345 21.7508 19.7575Z" fill="black"/>
<path fill-rule="evenodd" clip-rule="evenodd" d="M12.4314 13.7111L14.9724 14.3921C15.0594 14.4151 15.1464 14.4261 15.2314 14.4261C15.6734 14.4261 16.0774 14.1311 16.1974 13.6851C16.3404 13.1521 16.0234 12.6031 15.4904 12.4601L14.8804 12.2971L15.4604 11.9621C15.9384 11.6861 16.1024 11.0741 15.8264 10.5961C15.5494 10.1161 14.9364 9.95209 14.4604 10.2301L13.8814 10.5641L14.0444 9.95709C14.1874 9.42409 13.8704 8.87609 13.3374 8.73309C12.8024 8.58809 12.2554 8.90509 12.1124 9.44009L11.4314 11.9791L9.98739 12.8121V11.1521L11.8514 9.28809C12.2424 8.89809 12.2424 8.26509 11.8514 7.87409C11.4604 7.48409 10.8274 7.48409 10.4374 7.87409L9.98739 8.32409V7.65009C9.98739 7.09709 9.53939 6.65009 8.98739 6.65009C8.43539 6.65009 7.98739 7.09709 7.98739 7.65009V8.31609L7.54539 7.87409C7.15639 7.48409 6.52239 7.48409 6.13139 7.87409C5.74139 8.26509 5.74139 8.89809 6.13139 9.28809L7.98739 11.1451V12.8091L6.55039 11.9791L5.86939 9.44009C5.72639 8.90509 5.17839 8.58709 4.64339 8.73309C4.11039 8.87609 3.79439 9.42409 3.93739 9.95709L4.10039 10.5651L3.51939 10.2301C3.04139 9.95209 2.43039 10.1161 2.15339 10.5961C1.87739 11.0741 2.04139 11.6861 2.51939 11.9621L3.10039 12.2971L2.49139 12.4611C1.95739 12.6041 1.64139 13.1531 1.78439 13.6861C1.90439 14.1331 2.30839 14.4271 2.74939 14.4271C2.83539 14.4271 2.92239 14.4161 3.00939 14.3931L5.54939 13.7111L6.98939 14.5431L5.55039 15.3751L3.00839 14.6951C2.47539 14.5511 1.92739 14.8691 1.78439 15.4021C1.64139 15.9361 1.95839 16.4841 2.49239 16.6261L3.10039 16.7891L2.51939 17.1241C2.04139 17.4011 1.87739 18.0121 2.15339 18.4901C2.33939 18.8121 2.67539 18.9901 3.02039 18.9901C3.19039 18.9901 3.36239 18.9471 3.51939 18.8571L4.09939 18.5221L3.93639 19.1301C3.79339 19.6631 4.11039 20.2121 4.64339 20.3551C4.73039 20.3781 4.81739 20.3891 4.90339 20.3891C5.34439 20.3891 5.74839 20.0951 5.86839 19.6481L6.54939 17.1071L7.98739 16.2771V17.9421L6.13139 19.7981C5.74139 20.1891 5.74139 20.8211 6.13139 21.2121C6.52239 21.6031 7.15539 21.6031 7.54539 21.2121L7.98739 20.7701V21.4381C7.98739 21.9901 8.43539 22.4381 8.98739 22.4381C9.53939 22.4381 9.98739 21.9901 9.98739 21.4381V20.7631L10.4374 21.2121C10.6324 21.4071 10.8884 21.5051 11.1444 21.5051C11.4004 21.5051 11.6564 21.4071 11.8514 21.2121C12.2424 20.8211 12.2424 20.1891 11.8514 19.7981L9.98739 17.9351V16.2741L11.4304 17.1071L12.1114 19.6471C12.2304 20.0941 12.6354 20.3881 13.0764 20.3881C13.1614 20.3881 13.2494 20.3771 13.3354 20.3541C13.8694 20.2111 14.1854 19.6621 14.0424 19.1291L13.8794 18.5221L14.4604 18.8571C14.6174 18.9471 14.7894 18.9901 14.9594 18.9901C15.3054 18.9901 15.6404 18.8121 15.8264 18.4901C16.1024 18.0121 15.9384 17.4011 15.4604 17.1241L14.8794 16.7891L15.4884 16.6261C16.0214 16.4841 16.3384 15.9361 16.1954 15.4021C16.0524 14.8691 15.5024 14.5511 14.9714 14.6951L12.4304 15.3751L10.9904 14.5431L12.4314 13.7111Z" fill="black"/>
</svg>