<svg width="24" height="25" viewBox="0 0 24 25" fill="none" xmlns="http://www.w3.org/2000/svg">
<path fill-rule="evenodd" clip-rule="evenodd" d="M19.9789 14.5253C19.9947 14.6775 19.8856 14.8137 19.7348 14.8399C13.7664 15.8774 10.1893 15.8775 4.26868 14.8403C4.11781 14.8139 4.00894 14.6774 4.02501 14.5251C4.38641 11.0996 7.16767 7.43604 10.8417 6.78311C11.2117 6.72311 11.6017 6.68311 11.9917 6.68311H12.0117C12.4417 6.68311 12.8617 6.72311 13.2617 6.80311C16.8862 7.50462 19.6278 11.13 19.9789 14.5253Z" fill="black" fill-opacity="0.4"/>
<path fill-rule="evenodd" clip-rule="evenodd" d="M14.1317 5.12322C14.1317 5.81322 13.7917 6.43322 13.2617 6.80322C12.8617 6.72322 12.4417 6.68322 12.0117 6.68322H12.0017H11.9917C11.6017 6.68322 11.2117 6.72322 10.8417 6.78322C10.3217 6.41322 9.9917 5.80322 9.9917 5.12322C9.9917 3.98322 10.9217 3.05322 12.0617 3.05322C13.2017 3.05322 14.1317 3.98322 14.1317 5.12322Z" fill="black"/>
<path fill-rule="evenodd" clip-rule="evenodd" d="M14.07 10.1459C13.863 9.78687 13.406 9.66387 13.046 9.87187L12.735 10.0509V9.69287C12.735 9.27887 12.399 8.94287 11.985 8.94287C11.571 8.94287 11.235 9.27887 11.235 9.69287V10.0499L10.927 9.87187C10.57 9.66387 10.11 9.78687 9.90295 10.1459C9.69495 10.5049 9.81795 10.9629 10.177 11.1699L10.486 11.3489L10.177 11.5279C9.81795 11.7349 9.69495 12.1939 9.90295 12.5519C10.041 12.7919 10.294 12.9269 10.552 12.9269C10.68 12.9269 10.809 12.8949 10.927 12.8269L11.235 12.6489V13.0049C11.235 13.4189 11.571 13.7549 11.985 13.7549C12.399 13.7549 12.735 13.4189 12.735 13.0049V12.6469L13.046 12.8269C13.164 12.8949 13.293 12.9269 13.42 12.9269C13.679 12.9269 13.931 12.7919 14.07 12.5519C14.277 12.1939 14.154 11.7349 13.796 11.5279L13.486 11.3489L13.796 11.1699C14.154 10.9629 14.277 10.5049 14.07 10.1459Z" fill="black"/>
<path fill-rule="evenodd" clip-rule="evenodd" d="M20.8859 15.8435C20.8274 15.811 20.755 15.8165 20.6901 15.8328C17.2701 16.4528 14.6201 16.7628 11.9801 16.7628C9.34011 16.7628 6.71011 16.4528 3.31011 15.8328C3.24524 15.8165 3.17283 15.8112 3.11453 15.844C2.30751 16.2973 2.01937 17.0199 2.00011 18.5028C1.98011 20.1328 2.46011 20.9228 3.78011 21.4128C4.14825 21.5518 4.58332 21.6708 5.08532 21.7643C5.26609 21.7979 5.43011 21.6569 5.43011 21.4731V18.6528C5.43011 18.2428 5.76011 17.9028 6.18011 17.9028C6.59011 17.9028 6.93011 18.2428 6.93011 18.6528V21.719C6.93011 21.8741 7.04812 22.0037 7.20268 22.0164C8.27027 22.1039 9.51643 22.1488 10.9347 22.177C11.1025 22.1803 11.2401 22.0451 11.2401 21.8773V18.7528C11.2401 18.3428 11.5701 18.0028 11.9901 18.0028C12.4001 18.0028 12.7401 18.3428 12.7401 18.7528V21.8773C12.7401 22.0451 12.8778 22.1803 13.0455 22.177C14.4625 22.1489 15.7013 22.1044 16.7749 22.0244C16.9306 22.0128 17.0501 21.8826 17.0501 21.7265V18.6528C17.0501 18.2428 17.3801 17.9028 17.8001 17.9028C18.2101 17.9028 18.5501 18.2428 18.5501 18.6528V21.4739C18.5501 21.6575 18.7137 21.7984 18.8944 21.766C19.4043 21.6746 19.8425 21.5605 20.2201 21.4128C21.5401 20.9228 22.0201 20.1328 22.0001 18.5028C21.9808 17.0194 21.7018 16.2968 20.8859 15.8435Z" fill="black"/>
</svg>