<svg width="24" height="25" viewBox="0 0 24 25" fill="none" xmlns="http://www.w3.org/2000/svg">
<path fill-rule="evenodd" clip-rule="evenodd" d="M13.8101 11.5171C14.1701 11.7271 14.2901 12.1771 14.0901 12.5371C13.9501 12.7771 13.7001 12.9171 13.4401 12.9171C13.3101 12.9171 13.1801 12.8871 13.0601 12.8171L12.7501 12.6371V12.9971C12.7501 13.4071 12.4201 13.7471 12.0001 13.7471C11.5901 13.7471 11.2501 13.4071 11.2501 12.9971V12.6371L10.9401 12.8171C10.8201 12.8871 10.7001 12.9171 10.5701 12.9171C10.3101 12.9171 10.0601 12.7771 9.92006 12.5371C9.71006 12.1771 9.83006 11.7271 10.1901 11.5171L10.5001 11.3371L10.1901 11.1571C9.83006 10.9471 9.71006 10.4971 9.92006 10.1371C10.1301 9.77713 10.5901 9.64713 10.9401 9.85713L11.2501 10.0371V9.67713C11.2501 9.26713 11.5901 8.92713 12.0001 8.92713C12.4201 8.92713 12.7501 9.26713 12.7501 9.67713V10.0371L13.0601 9.85713C13.4201 9.64713 13.8801 9.77713 14.0901 10.1371C14.2901 10.4971 14.1701 10.9471 13.8101 11.1571L13.5001 11.3371L13.8101 11.5171ZM13.2501 6.80713C13.7801 6.43713 14.1301 5.81713 14.1301 5.11713C14.1301 3.97713 13.2001 3.05713 12.0601 3.05713C10.9201 3.05713 10.0001 3.97713 10.0001 5.11713C10.0001 5.80713 10.3401 6.41713 10.8601 6.79713C7.17608 7.44036 4.38495 11.0946 4.02336 14.5291C4.00732 14.6814 4.11624 14.8179 4.26713 14.8443C10.1971 15.8815 13.765 15.8814 19.7332 14.8439C19.884 14.8177 19.9931 14.6816 19.9774 14.5293C19.6261 11.1246 16.8748 7.49896 13.2501 6.80713Z" fill="black"/>
<path fill-rule="evenodd" clip-rule="evenodd" d="M22.0001 18.5071C22.0201 20.1371 21.5401 20.9271 20.2301 21.4171C19.8536 21.5563 19.4168 21.6686 18.9088 21.7651C18.7267 21.7997 18.5601 21.6584 18.5601 21.473V18.6472C18.5601 18.2271 18.2301 17.8972 17.8101 17.8972C17.4001 17.8972 17.0601 18.2271 17.0601 18.6472V21.7232C17.0601 21.8783 16.9419 22.008 16.7873 22.0206C15.7127 22.1082 14.4725 22.1526 13.0537 22.1731C12.8866 22.1756 12.7501 22.0406 12.7501 21.8735V18.7471C12.7501 18.3271 12.4201 17.9971 12.0001 17.9971C11.5901 17.9971 11.2501 18.3271 11.2501 18.7471V21.8735C11.2501 22.0406 11.1135 22.1756 10.9465 22.1731C9.53578 22.1526 8.29022 22.1082 7.22267 22.0208C7.06811 22.0081 6.9501 21.8785 6.9501 21.7234V18.6472C6.9501 18.2271 6.6101 17.8972 6.2001 17.8972C5.7801 17.8972 5.4501 18.2271 5.4501 18.6472V21.4721C5.4501 21.6578 5.28302 21.7992 5.10065 21.7643C4.59749 21.668 4.15549 21.5559 3.7801 21.4171C2.4701 20.9271 1.9801 20.1371 2.0001 18.5071C2.01952 17.0115 2.31249 16.2799 3.13549 15.8359C3.18319 15.8102 3.23922 15.8132 3.29211 15.825C3.30566 15.828 3.3171 15.8284 3.33075 15.831C6.72075 16.4584 9.34544 16.7671 11.9801 16.7671C14.6152 16.7671 17.2603 16.4583 20.6712 15.8306C20.6837 15.8283 20.6984 15.8275 20.711 15.8253C20.7653 15.8161 20.8181 15.8105 20.8667 15.8365C21.698 16.2805 21.9904 17.0122 22.0001 18.5071Z" fill="black"/>
</svg>