<svg width="24" height="25" viewBox="0 0 24 25" fill="none" xmlns="http://www.w3.org/2000/svg">
<path fill-rule="evenodd" clip-rule="evenodd" d="M18.1045 16.1599C18.1045 17.5599 17.6245 18.8799 16.7945 19.9399C16.2945 20.5899 15.6745 21.1199 14.9645 21.4999C14.9545 21.5099 14.9445 21.5099 14.9345 21.5199C14.9245 21.5199 14.9245 21.5199 14.9245 21.5299C13.9945 21.9999 13.0445 22.2399 12.0645 22.2399H11.9245C10.9645 22.2399 10.0245 22.0099 9.11453 21.5399C9.11453 21.5399 9.10453 21.5399 9.09453 21.5299H9.07453C8.12453 21.0299 7.32453 20.2399 6.76453 19.2999C6.20453 18.3699 5.89453 17.2899 5.89453 16.1599C5.89453 15.8999 5.91453 15.6399 5.94453 15.3799C5.95453 15.3099 5.97453 15.2399 5.98453 15.1599C6.01453 14.9699 6.05453 14.7899 6.10453 14.5999C6.12453 14.5399 6.14453 14.4799 6.16453 14.4099C6.21453 14.2099 6.28453 14.0199 6.36453 13.8299C6.38453 13.7899 6.39453 13.7499 6.41453 13.7099C6.46453 13.5999 6.50453 13.4799 6.56453 13.3699C6.57453 13.3399 6.60453 13.3199 6.62453 13.2899C6.83586 12.8964 7.09498 12.5242 7.39029 12.1847C7.57198 11.9759 7.88986 11.9831 8.09874 12.1648C8.33434 12.3697 8.5881 12.5575 8.85453 12.7199C9.31453 13.0099 9.81453 13.2399 10.3445 13.3899C10.8645 13.5499 11.4245 13.6299 11.9945 13.6299C13.4913 13.6299 14.853 13.0743 15.8961 12.1611C16.1065 11.9769 16.4284 11.971 16.6107 12.1831C16.9052 12.5258 17.1637 12.8973 17.3745 13.2899C17.3945 13.3199 17.4245 13.3399 17.4345 13.3699C17.4945 13.4799 17.5345 13.5999 17.5845 13.7099C17.6045 13.7499 17.6145 13.7899 17.6345 13.8199C17.7145 14.0199 17.7845 14.2199 17.8445 14.4199C17.8645 14.4799 17.8845 14.5399 17.8945 14.5999C17.9445 14.7899 17.9845 14.9799 18.0145 15.1699C18.0245 15.2399 18.0445 15.3099 18.0545 15.3799C18.0845 15.6399 18.1045 15.8999 18.1045 16.1599Z" fill="black" fill-opacity="0.4"/>
<path fill-rule="evenodd" clip-rule="evenodd" d="M7.00782 14.3346C6.84582 14.3346 6.68282 14.2816 6.54482 14.1736L3.44482 11.7306C3.11982 11.4756 3.06382 11.0036 3.31982 10.6786C3.57482 10.3536 4.04582 10.2966 4.37282 10.5536L7.47282 12.9956C7.79782 13.2516 7.85482 13.7236 7.59782 14.0486C7.44982 14.2366 7.23082 14.3346 7.00782 14.3346Z" fill="black"/>
<path fill-rule="evenodd" clip-rule="evenodd" d="M12.4922 18.6002C12.0782 18.6002 11.7422 18.2642 11.7422 17.8502C11.7422 17.4362 12.0782 17.0952 12.4922 17.0952C12.9062 17.0952 13.2422 17.4262 13.2422 17.8402V17.8502C13.2422 18.2642 12.9062 18.6002 12.4922 18.6002Z" fill="black"/>
<path fill-rule="evenodd" clip-rule="evenodd" d="M17.7828 22.4907H6.2168C5.8028 22.4907 5.4668 22.1547 5.4668 21.7407C5.4668 21.3267 5.8028 20.9907 6.2168 20.9907H17.7828C18.1968 20.9907 18.5328 21.3267 18.5328 21.7407C18.5328 22.1547 18.1968 22.4907 17.7828 22.4907Z" fill="black"/>
<path fill-rule="evenodd" clip-rule="evenodd" d="M16.9924 14.3512C16.7714 14.3512 16.5534 14.2542 16.4044 14.0672C16.1474 13.7432 16.2014 13.2712 16.5264 13.0132L19.6244 10.5542C19.9474 10.2982 20.4194 10.3502 20.6784 10.6762C20.9344 11.0002 20.8814 11.4722 20.5554 11.7302L17.4584 14.1892C17.3204 14.2982 17.1564 14.3512 16.9924 14.3512Z" fill="black"/>
<path fill-rule="evenodd" clip-rule="evenodd" d="M10.3438 13.3902V15.1302C10.3438 15.5502 10.0137 15.8802 9.59375 15.8802C9.18375 15.8802 8.84375 15.5502 8.84375 15.1302V12.8302C8.84375 12.7902 8.84375 12.7602 8.85375 12.7202C9.31375 13.0102 9.81375 13.2402 10.3438 13.3902Z" fill="black"/>
<path fill-rule="evenodd" clip-rule="evenodd" d="M14.0698 6.46275C14.0698 6.87675 13.7338 7.21275 13.3198 7.21275C12.9058 7.21275 12.5698 6.87675 12.5698 6.46275C12.5698 6.04875 12.9058 5.70775 13.3198 5.70775C13.7338 5.70775 14.0698 6.03875 14.0698 6.45275V6.46275ZM12.3658 8.94075L11.5368 9.40375C11.4208 9.46975 11.2958 9.49975 11.1718 9.49975C10.9088 9.49975 10.6528 9.36175 10.5158 9.11575C10.3138 8.75475 10.4428 8.29775 10.8038 8.09575L11.6328 7.63175C11.9968 7.42875 12.4538 7.55875 12.6538 7.91975C12.8558 8.28075 12.7268 8.73775 12.3658 8.94075ZM9.9258 6.46275C9.9258 6.04875 10.2618 5.70775 10.6758 5.70775C11.0908 5.70775 11.4258 6.03875 11.4258 6.45275V6.46275C11.4258 6.87675 11.0908 7.21275 10.6758 7.21275C10.2618 7.21275 9.9258 6.87675 9.9258 6.46275ZM11.9968 2.73975C9.2688 2.73975 7.0498 4.95875 7.0498 7.68575C7.0498 10.4127 9.2688 12.6317 11.9968 12.6317C14.7228 12.6317 16.9418 10.4127 16.9418 7.68575C16.9418 4.95875 14.7228 2.73975 11.9968 2.73975Z" fill="black"/>
<path fill-rule="evenodd" clip-rule="evenodd" d="M12.4922 16.067C12.0782 16.067 11.7422 15.731 11.7422 15.317C11.7422 14.903 12.0782 14.562 12.4922 14.562C12.9062 14.562 13.2422 14.892 13.2422 15.306V15.317C13.2422 15.731 12.9062 16.067 12.4922 16.067Z" fill="black"/>
</svg>