<svg width="25" height="24" viewBox="0 0 25 24" fill="none" xmlns="http://www.w3.org/2000/svg">
<path d="M14.9376 2.77661C15.3469 2.84033 15.627 3.22378 15.5633 3.63306L14.7353 8.95137C14.6716 9.36065 14.2882 9.64079 13.8789 9.57706C13.4696 9.51334 13.1895 9.1299 13.2532 8.72061L14.0812 3.40231C14.1449 2.99303 14.5283 2.71289 14.9376 2.77661Z" fill="black"/>
<path d="M19.4835 3.98767C19.8515 4.17769 19.9959 4.63011 19.8058 4.99816L17.6468 9.18003C17.4568 9.54808 17.0044 9.69241 16.6363 9.50238C16.2683 9.31236 16.1239 8.85995 16.314 8.4919L18.473 4.31003C18.663 3.94197 19.1154 3.79765 19.4835 3.98767Z" fill="black"/>
<path d="M4.52596 11.2402C3.62427 11.2402 2.9026 12.0292 3.01076 12.9368C3.03988 13.1796 3.07773 13.4199 3.12398 13.6571C3.15968 13.8402 3.32233 13.969 3.5089 13.969H21.4922C21.6786 13.969 21.8412 13.8403 21.877 13.6573C21.9229 13.4221 21.9604 13.1842 21.9892 12.944C22.0982 12.0366 21.3822 11.2402 20.4741 11.2402H4.52596Z" fill="black"/>
<path d="M21.2223 15.7424C21.2795 15.6126 21.1829 15.469 21.041 15.469H3.95768C3.81589 15.469 3.71934 15.6124 3.77637 15.7423C4.65118 17.7334 6.15874 19.3816 8.04544 20.431C8.71929 20.806 9.4786 20.9825 10.2344 20.9825H14.7675C15.5198 20.9825 16.2774 20.8083 16.9499 20.4338C18.8362 19.3855 20.3447 17.7354 21.2223 15.7424Z" fill="black"/>
</svg>