<svg width="24" height="24" viewBox="0 0 24 24" fill="none" xmlns="http://www.w3.org/2000/svg">
<path fill-rule="evenodd" clip-rule="evenodd" d="M4.21851 14.3839C4.27551 14.3549 4.32051 14.3099 4.34851 14.2559C4.38351 14.1749 4.38351 13.8159 4.38351 13.4679V10.5309C4.38351 10.1839 4.38351 9.82487 4.34851 9.74487C4.32051 9.68987 4.27551 9.64487 4.22251 9.61787C4.13751 9.58087 3.78051 9.58087 3.43351 9.58087H2.29951C2.13383 9.58087 1.99951 9.71519 1.99951 9.88087V14.1189C1.99951 14.2846 2.13383 14.4189 2.29951 14.4189H3.43351C3.78051 14.4189 4.13751 14.4189 4.21851 14.3839Z" fill="black"/>
<path fill-rule="evenodd" clip-rule="evenodd" d="M11.2497 16.0901C11.2497 15.9465 11.1475 15.8244 11.0086 15.7881C9.32632 15.3482 8.08073 13.8182 8.08073 12.0001C8.08073 10.1819 9.3264 8.65181 11.0087 8.21109C11.1476 8.17472 11.2497 8.0527 11.2497 7.90918C11.2497 6.94195 11.2497 5.43523 11.2497 4.7993C11.2497 4.63362 11.1154 4.50006 10.9497 4.50006H5.69973C4.50073 4.50006 3.89873 4.50006 3.36373 4.77206C2.89273 5.01306 2.51473 5.39106 2.27173 5.86506C2.03435 6.33076 2.00466 6.85885 2.00117 7.78105C2.00055 7.94674 2.13505 8.08106 2.30073 8.08106H3.43373C4.10973 8.08106 4.51873 8.08106 4.91073 8.28506C5.23973 8.45406 5.50773 8.72106 5.68073 9.05606C5.88373 9.44606 5.88373 9.85406 5.88373 10.5311V13.4681C5.88373 14.1451 5.88373 14.5531 5.68073 14.9451C5.50773 15.2781 5.23973 15.5451 4.90573 15.7171C4.51873 15.9191 4.10973 15.9191 3.43373 15.9191H2.30073C2.13505 15.9191 2.00055 16.0534 2.00117 16.2191C2.00466 17.1404 2.03437 17.6685 2.27173 18.1351C2.51473 18.6081 2.89273 18.9861 3.36373 19.2271C3.89873 19.5001 4.50073 19.5001 5.69973 19.5001H10.9497C11.1154 19.5001 11.2497 19.3665 11.2497 19.2008C11.2497 18.5648 11.2497 17.0576 11.2497 16.0901Z" fill="black"/>
<path fill-rule="evenodd" clip-rule="evenodd" d="M20.5662 9.58057C20.2192 9.58057 19.8622 9.58057 19.7812 9.61557C19.7242 9.64457 19.6792 9.68957 19.6512 9.74457C19.6162 9.82557 19.6162 10.1846 19.6162 10.5316V13.4686C19.6162 13.8156 19.6162 14.1746 19.6512 14.2546C19.6792 14.3096 19.7242 14.3546 19.7772 14.3816C19.8622 14.4186 20.2192 14.4186 20.5662 14.4186H21.7002C21.8659 14.4186 22.0002 14.2843 22.0002 14.1186V9.88057C22.0002 9.71488 21.8659 9.58057 21.7002 9.58057H20.5662Z" fill="black"/>
<path fill-rule="evenodd" clip-rule="evenodd" d="M13.1312 9.87424C12.9507 9.77842 12.7501 9.92206 12.7501 10.1264V13.8733C12.7501 14.0776 12.9505 14.2212 13.131 14.1256C13.8948 13.7208 14.4188 12.9239 14.4188 11.9997C14.4188 11.0764 13.8949 10.2797 13.1312 9.87424Z" fill="black"/>
<path fill-rule="evenodd" clip-rule="evenodd" d="M10.8687 14.1253C11.0492 14.2211 11.2497 14.0775 11.2497 13.8731V10.1266C11.2497 9.92225 11.0492 9.7786 10.8687 9.87441C10.1049 10.2798 9.58081 11.0766 9.58081 11.9999C9.58081 12.924 10.1049 13.7201 10.8687 14.1253Z" fill="black"/>
<path fill-rule="evenodd" clip-rule="evenodd" d="M20.5661 15.919C19.8891 15.919 19.4812 15.919 19.0882 15.714C18.7592 15.545 18.4921 15.278 18.3191 14.944C18.1161 14.553 18.1161 14.145 18.1161 13.468V10.531C18.1161 9.855 18.1161 9.446 18.3191 9.054C18.4921 8.721 18.7591 8.454 19.0931 8.283C19.4811 8.081 19.8891 8.081 20.5661 8.081H21.6991C21.8648 8.081 21.9993 7.94667 21.9987 7.78099C21.995 6.85878 21.9645 6.33061 21.7271 5.864C21.4852 5.391 21.1071 5.013 20.6341 4.772C20.1001 4.5 19.4991 4.5 18.2991 4.5H13.0501C12.8845 4.5 12.7501 4.6335 12.7501 4.79918C12.7501 5.43666 12.7501 6.94891 12.7501 7.91003C12.7501 8.05362 12.8524 8.17562 12.9913 8.21194C14.6736 8.65185 15.9191 10.1819 15.9191 12C15.9191 13.8181 14.6736 15.3482 12.9913 15.7881C12.8524 15.8244 12.7501 15.9464 12.7501 16.09C12.7501 17.0511 12.7501 18.5633 12.7501 19.2008C12.7501 19.3665 12.8845 19.5 13.0501 19.5H18.2991C19.4991 19.5 20.1001 19.5 20.6351 19.227C21.1071 18.986 21.4852 18.608 21.7271 18.135C21.9645 17.6684 21.995 17.1403 21.9987 16.219C21.9993 16.0533 21.8648 15.919 21.6992 15.919H20.5661Z" fill="black"/>
</svg>