<svg width="24" height="25" viewBox="0 0 24 25" fill="none" xmlns="http://www.w3.org/2000/svg">
<path d="M14.25 19.7285C12.8467 21.6381 10.2048 22.1359 8.20277 20.8679C6.01187 19.4802 5.43985 16.5352 6.952 14.4283L8.48974 12.5832L8.17268 9.57104" stroke="black" stroke-width="1.5" stroke-linecap="round" stroke-linejoin="round"/>
<path d="M8.48145 12.5569C8.89536 12.9136 10.0343 13.6172 11.2785 13.5783" stroke="black" stroke-width="1.5" stroke-linecap="round" stroke-linejoin="round"/>
<path d="M12.0463 6.14218C14.9066 5.79274 17.1585 4.96288 17.0761 4.28863C16.9938 3.61439 14.6083 3.35109 11.748 3.70053C8.88779 4.04997 6.63587 4.87983 6.71824 5.55408C6.77189 5.99317 7.8023 6.25798 9.30451 6.29277" stroke="black" stroke-width="1.5" stroke-linecap="round" stroke-linejoin="round"/>
<path d="M12.4757 9.3765C10.6106 9.60437 8.98064 9.36964 8.07221 9.17872C7.59757 9.07897 7.25483 8.68881 7.1695 8.21137L6.71948 5.6936" stroke="black" stroke-width="1.5" stroke-linecap="round" stroke-linejoin="round"/>
<path d="M17.0493 8.03857L17.797 13.1151C17.9612 14.23 17.679 15.3646 17.0117 16.2727L16.0916 17.424" stroke="black" stroke-width="1.5" stroke-linecap="round" stroke-linejoin="round"/>
<path d="M17.0622 4.19727L17.5099 6.81066C17.6035 7.35695 17.3426 7.90105 16.8366 8.12726C16.4105 8.31774 15.8395 8.55029 15.1692 8.76758" stroke="black" stroke-width="1.5" stroke-linecap="round" stroke-linejoin="round"/>
</svg>