<svg width="24" height="25" viewBox="0 0 24 25" fill="none" xmlns="http://www.w3.org/2000/svg">
<path fill-rule="evenodd" clip-rule="evenodd" d="M16.9401 7.29668C17.3499 7.23632 17.731 7.5196 17.7913 7.92939L18.539 13.0059C18.732 14.3162 18.4003 15.6497 17.6161 16.7169C17.6101 16.7251 17.6039 16.7331 17.5976 16.741L14.845 20.1852C13.206 22.402 10.132 22.9775 7.80146 21.5014C5.24621 19.883 4.57906 16.4482 6.34269 13.9909C6.35322 13.9762 6.36429 13.9619 6.37586 13.948L7.71068 12.3464L7.42679 9.64949C7.38343 9.23755 7.68222 8.86846 8.09416 8.8251C8.5061 8.78174 8.87519 9.08053 8.91855 9.49246L9.23562 12.5046C9.25683 12.7061 9.1956 12.9076 9.06588 13.0633L7.54627 14.8866C6.30446 16.6416 6.78482 19.082 8.60407 20.2342C10.2732 21.2914 12.4757 20.8764 13.6457 19.2843C13.6517 19.2762 13.6578 19.2681 13.6641 19.2602L16.4159 15.817C16.9601 15.07 17.1897 14.1392 17.055 13.2245L16.3073 8.14795C16.247 7.73816 16.5303 7.35703 16.9401 7.29668Z" fill="black"/>
<path fill-rule="evenodd" clip-rule="evenodd" d="M7.91333 12.0673C8.18374 11.7535 8.65731 11.7184 8.97108 11.9888C9.30764 12.2788 10.2695 12.8595 11.2551 12.8287C11.6691 12.8157 12.0152 13.1408 12.0282 13.5549C12.0411 13.9689 11.716 14.315 11.302 14.3279C9.79907 14.375 8.48313 13.5484 7.99186 13.125C7.67809 12.8546 7.64293 12.3811 7.91333 12.0673Z" fill="black"/>
<path fill-rule="evenodd" clip-rule="evenodd" d="M7.40545 5.72549C7.40464 5.72548 7.40809 5.72032 7.41823 5.71003C7.41133 5.72035 7.40626 5.7255 7.40545 5.72549ZM7.90773 5.4087C8.04268 5.34491 8.20279 5.27778 8.38893 5.20919C9.2304 4.89909 10.4488 4.61478 11.8389 4.44494C13.2291 4.27511 14.4801 4.25773 15.3715 4.35612C15.5686 4.37788 15.7402 4.40449 15.8865 4.43391C15.7516 4.4977 15.5915 4.56482 15.4053 4.63342C14.5639 4.94351 13.3455 5.22783 11.9553 5.39767C10.5652 5.5675 9.31418 5.58488 8.42281 5.48649C8.22562 5.46472 8.05407 5.43812 7.90773 5.4087ZM16.4503 4.62046C16.4495 4.62066 16.4434 4.61689 16.4342 4.60854C16.4465 4.61608 16.4511 4.62026 16.4503 4.62046ZM16.376 4.13258C16.3829 4.12226 16.388 4.11711 16.3888 4.11712C16.3896 4.11713 16.3862 4.12229 16.376 4.13258ZM7.36009 5.23407C7.34776 5.22653 7.34317 5.22235 7.34396 5.22215C7.34474 5.22195 7.3509 5.22572 7.36009 5.23407ZM7.87026 3.80172C8.84922 3.44096 10.1869 3.13562 11.657 2.95601C13.1272 2.7764 14.499 2.75071 15.536 2.86517C16.0484 2.92173 16.5218 3.01688 16.894 3.16853C17.1988 3.29273 17.7453 3.58172 17.8205 4.19763C17.8958 4.81354 17.435 5.22559 17.169 5.41952C16.8443 5.65632 16.4077 5.86263 15.924 6.04089C14.945 6.40165 13.6074 6.70699 12.1372 6.8866C10.6671 7.0662 9.29526 7.0919 8.25824 6.97743C7.74582 6.92087 7.27248 6.82572 6.90025 6.67407C6.59542 6.54988 6.04896 6.26089 5.97372 5.64498C5.89847 5.02907 6.35928 4.61702 6.62524 4.42309C6.95001 4.18629 7.38652 3.97998 7.87026 3.80172Z" fill="black"/>
<path fill-rule="evenodd" clip-rule="evenodd" d="M16.9357 3.45791C17.344 3.38797 17.7317 3.66224 17.8016 4.07051L18.2493 6.6839C18.3953 7.53606 17.99 8.43308 17.1428 8.81183C16.1807 9.24196 14.4948 9.88528 12.5667 10.1208C10.5934 10.3619 8.87603 10.1139 7.91801 9.91255C7.11196 9.74315 6.56433 9.08779 6.43125 8.34319L5.98123 5.82543C5.90835 5.41767 6.17982 5.02805 6.58757 4.95517C6.99533 4.88229 7.38495 5.15375 7.45783 5.56151L7.90785 8.07927C7.94543 8.28955 8.08329 8.41451 8.22651 8.44462C9.08536 8.62511 10.6279 8.84655 12.3848 8.6319C14.1081 8.42137 15.6415 7.83995 16.5306 7.44245C16.6954 7.36877 16.812 7.1776 16.7708 6.93717L16.3231 4.32378C16.2532 3.91551 16.5275 3.52785 16.9357 3.45791Z" fill="black"/>
</svg>