<svg width="25" height="24" viewBox="0 0 25 24" fill="none" xmlns="http://www.w3.org/2000/svg">
<path opacity="0.4" d="M16.2008 18.9526L16.6921 20.4763" stroke="black" stroke-width="1.5" stroke-linecap="round" stroke-linejoin="round"/>
<path opacity="0.4" d="M9.07004 18.9526L8.5787 20.4763" stroke="black" stroke-width="1.5" stroke-linecap="round" stroke-linejoin="round"/>
<path fill-rule="evenodd" clip-rule="evenodd" d="M19.4939 10.6206V10.6206C18.3263 10.6245 17.3806 11.5702 17.3767 12.7378V13.5774C17.3767 14.1602 16.9048 14.6321 16.322 14.6321H8.68522C8.10339 14.6321 7.63053 14.1602 7.63053 13.5774V12.7407C7.62761 11.5712 6.67994 10.6245 5.51044 10.6206C4.40321 10.6206 3.50517 11.5177 3.50517 12.6249V12.6288C3.48668 13.4908 3.51781 14.3529 3.59857 15.211C3.75327 16.9848 5.17282 18.3839 6.94848 18.5133C7.77939 18.6427 11.1069 18.6427 12.4944 18.6427C13.8818 18.6427 17.5703 18.6145 18.0519 18.5113C19.8237 18.3771 21.2374 16.9809 21.3911 15.211C21.4729 14.3587 21.5089 13.5025 21.4982 12.6453C21.5079 11.5381 20.6186 10.6313 19.5104 10.6206H19.4939Z" stroke="black" stroke-width="1.5" stroke-linecap="round" stroke-linejoin="round"/>
<path opacity="0.4" d="M5.60639 10.7005C5.57331 9.51251 5.61709 8.32258 5.73677 7.14043C5.86909 5.33461 7.29156 3.89073 9.09543 3.73409C11.3731 3.45387 13.6771 3.45387 15.9548 3.73409C17.749 3.91214 19.1627 5.34337 19.3184 7.14043C19.4526 8.3216 19.4974 9.51251 19.4536 10.7005" stroke="black" stroke-width="1.5"/>
<path d="M10.51 7.24414H10.5" stroke="black" stroke-width="1.5" stroke-linecap="round" stroke-linejoin="round"/>
<path d="M10.5002 10.2441H10.4902" stroke="black" stroke-width="1.5" stroke-linecap="round" stroke-linejoin="round"/>
<path d="M14.51 7.24414H14.5" stroke="black" stroke-width="1.5" stroke-linecap="round" stroke-linejoin="round"/>
<path d="M14.51 10.2441H14.5" stroke="black" stroke-width="1.5" stroke-linecap="round" stroke-linejoin="round"/>
</svg>