<svg width="24" height="24" viewBox="0 0 24 24" fill="none" xmlns="http://www.w3.org/2000/svg">
<path fill-rule="evenodd" clip-rule="evenodd" d="M15.4709 18.2388C15.8652 18.1117 16.2878 18.3282 16.4149 18.7224L16.9063 20.2461C17.0334 20.6403 16.8169 21.0629 16.4227 21.1901C16.0284 21.3172 15.6058 21.1007 15.4787 20.7064L14.9873 19.1828C14.8602 18.7886 15.0767 18.3659 15.4709 18.2388Z" fill="black"/>
<path fill-rule="evenodd" clip-rule="evenodd" d="M8.80059 18.2388C9.19481 18.3659 9.41134 18.7886 9.28421 19.1828L8.79286 20.7064C8.66573 21.1007 8.2431 21.3172 7.84887 21.1901C7.45465 21.0629 7.23813 20.6403 7.36526 20.2461L7.8566 18.7224C7.98373 18.3282 8.40637 18.1117 8.80059 18.2388Z" fill="black"/>
<path fill-rule="evenodd" clip-rule="evenodd" d="M2.25517 12.6207C2.25746 11.1007 3.49088 9.87061 5.01044 9.87061H5.01294C6.59413 9.87587 7.87657 11.156 7.88052 12.7388L7.88053 12.7407L7.88053 13.5774C7.88053 13.7456 8.01715 13.8821 8.18522 13.8821H15.822C15.9906 13.8821 16.1267 13.746 16.1267 13.5774V12.7378L16.1267 12.7353C16.132 11.1555 17.4115 9.87588 18.9914 9.87061L18.9939 10.6207V9.87061H19.0176C20.5372 9.88528 21.757 11.1264 21.7482 12.6435C21.7589 13.5243 21.7218 14.404 21.638 15.2795C21.452 17.4008 19.7666 19.0759 17.6493 19.2559C17.4369 19.2912 17.0743 19.3102 16.705 19.3248C16.2617 19.3423 15.7058 19.3556 15.1258 19.3656C13.9649 19.3856 12.6915 19.3927 11.9944 19.3927H11.9929C11.2995 19.3927 10.1164 19.3927 9.00179 19.3764C7.93886 19.3609 6.85983 19.3304 6.36445 19.259C4.23637 19.0897 2.53865 17.4083 2.35164 15.2789C2.2686 14.3954 2.23644 13.508 2.25517 12.6207ZM18.9952 11.3706C18.2408 11.3737 17.6298 11.9848 17.6267 12.7392V13.5774C17.6267 14.5745 16.819 15.3821 15.822 15.3821H8.18522C7.18962 15.3821 6.38053 14.5749 6.38053 13.5774V12.7417C6.37818 11.9863 5.76615 11.3738 5.00921 11.3706C4.31628 11.3713 3.75517 11.9328 3.75517 12.6249V12.6288L3.75499 12.6449C3.73712 13.4782 3.76722 14.3114 3.84527 15.1408L3.84575 15.1459C3.96845 16.5527 5.09444 17.6626 6.50299 17.7653C6.52338 17.7667 6.54369 17.7691 6.56389 17.7722C6.91482 17.8269 7.89127 17.8601 9.02366 17.8766C10.1266 17.8927 11.3001 17.8927 11.9944 17.8927C12.6847 17.8927 13.9493 17.8857 15.0999 17.8658C15.6756 17.8559 16.2189 17.8428 16.646 17.8259C16.8599 17.8175 17.0401 17.8083 17.1786 17.7985C17.2479 17.7935 17.3028 17.7887 17.344 17.7842C17.3817 17.7801 17.3969 17.7774 17.397 17.7775C17.397 17.7775 17.3962 17.7777 17.3949 17.778C17.428 17.7709 17.4615 17.766 17.4953 17.7635C18.9012 17.6569 20.0221 16.5493 20.1439 15.1461L20.1445 15.1395C20.2237 14.3138 20.2586 13.4846 20.2482 12.6547L20.2482 12.6388C20.2543 11.9463 19.6989 11.379 19.0064 11.3706H18.9952Z" fill="black"/>
<path fill-rule="evenodd" clip-rule="evenodd" d="M15.3635 4.47847C13.1466 4.20574 10.9041 4.20574 8.68726 4.47847L8.67393 4.48011L8.66056 4.48127C7.22403 4.60602 6.09047 5.75602 5.98501 7.19524L5.98425 7.20561L5.9832 7.21597C5.86675 8.36621 5.82416 9.52394 5.85634 10.6796L4.35693 10.7214C4.32304 9.50442 4.36768 8.28562 4.48982 7.07484C4.65352 4.91208 6.35587 3.18254 8.5169 2.98813C10.8485 2.70235 13.2067 2.70253 15.5382 2.98866C17.6838 3.20594 19.3738 4.91664 19.5649 7.06536C19.7026 8.28096 19.7484 9.50617 19.7033 10.7281L18.2043 10.6729C18.2468 9.52208 18.2034 8.36872 18.0734 7.22514L18.0723 7.21516L18.0714 7.20515C17.9469 5.76764 16.816 4.62283 15.381 4.48042L15.3722 4.47955L15.3635 4.47847Z" fill="black"/>
<path fill-rule="evenodd" clip-rule="evenodd" d="M9.25 7.24414C9.25 6.82993 9.58579 6.49414 10 6.49414H10.01C10.4242 6.49414 10.76 6.82993 10.76 7.24414C10.76 7.65835 10.4242 7.99414 10.01 7.99414H10C9.58579 7.99414 9.25 7.65835 9.25 7.24414Z" fill="black"/>
<path fill-rule="evenodd" clip-rule="evenodd" d="M9.24023 10.2441C9.24023 9.82993 9.57602 9.49414 9.99023 9.49414H10.0002C10.4144 9.49414 10.7502 9.82993 10.7502 10.2441C10.7502 10.6584 10.4144 10.9941 10.0002 10.9941H9.99023C9.57602 10.9941 9.24023 10.6584 9.24023 10.2441Z" fill="black"/>
<path fill-rule="evenodd" clip-rule="evenodd" d="M13.25 7.24414C13.25 6.82993 13.5858 6.49414 14 6.49414H14.01C14.4242 6.49414 14.76 6.82993 14.76 7.24414C14.76 7.65835 14.4242 7.99414 14.01 7.99414H14C13.5858 7.99414 13.25 7.65835 13.25 7.24414Z" fill="black"/>
<path fill-rule="evenodd" clip-rule="evenodd" d="M13.25 10.2441C13.25 9.82993 13.5858 9.49414 14 9.49414H14.01C14.4242 9.49414 14.76 9.82993 14.76 10.2441C14.76 10.6584 14.4242 10.9941 14.01 10.9941H14C13.5858 10.9941 13.25 10.6584 13.25 10.2441Z" fill="black"/>
</svg>