<svg width="24" height="24" viewBox="0 0 24 24" fill="none" xmlns="http://www.w3.org/2000/svg">
<path fill-rule="evenodd" clip-rule="evenodd" d="M18.922 10.6289C18.4187 10.6278 18.167 10.6273 17.9627 10.686C17.4662 10.8285 17.0791 11.2147 16.9356 11.7109C16.8765 11.9151 16.8765 12.1654 16.8765 12.666V13.5774C16.8765 14.1602 16.4046 14.6321 15.8218 14.6321H8.18504C7.60321 14.6321 7.13035 14.1602 7.13035 13.5774V12.6839C7.13035 12.1639 7.13035 11.9039 7.06754 11.6937C6.92251 11.2084 6.5465 10.832 6.06132 10.6865C5.85123 10.6235 5.5898 10.6232 5.06694 10.6226C4.55252 10.6221 4.2953 10.6219 4.08319 10.6857C3.59835 10.8315 3.21361 11.221 3.07369 11.7076C3.01248 11.9204 3.01583 12.1743 3.02255 12.6822C3.03599 13.6984 3.05915 14.794 3.09839 15.211C3.25309 16.9847 4.67264 18.3838 6.4483 18.5132C7.27921 18.6426 10.6067 18.6426 11.9942 18.6426C13.3816 18.6426 17.0701 18.6144 17.5517 18.5113C19.3235 18.377 20.7372 16.9808 20.891 15.211C20.9305 14.7984 20.9569 13.7098 20.9735 12.6962C20.9818 12.1923 20.9859 11.9404 20.9293 11.7338C20.7915 11.2307 20.406 10.838 19.9056 10.6909C19.7 10.6305 19.4407 10.63 18.922 10.6289Z" stroke="black" stroke-width="1.5" stroke-linecap="round" stroke-linejoin="round"/>
<path d="M8.08008 18.7002V20.4764" stroke="black" stroke-width="1.5" stroke-linecap="round" stroke-linejoin="round"/>
<path d="M16.1934 18.7002V20.4764" stroke="black" stroke-width="1.5" stroke-linecap="round" stroke-linejoin="round"/>
<path d="M18.962 10.5956V8.17389C18.962 6.83237 18.962 6.16161 18.7514 5.62951C18.4464 4.85932 17.8366 4.2495 17.0664 3.94456C16.5343 3.73389 15.8636 3.73389 14.522 3.73389H9.54352C8.202 3.73389 7.53123 3.73389 6.99914 3.94456C6.22895 4.2495 5.61913 4.85932 5.31419 5.62951C5.10352 6.16161 5.10352 6.83237 5.10352 8.17389V10.5956" stroke="black" stroke-width="1.5" stroke-linecap="round" stroke-linejoin="round"/>
</svg>