<svg width="24" height="24" viewBox="0 0 24 24" fill="none" xmlns="http://www.w3.org/2000/svg">
<path fill-rule="evenodd" clip-rule="evenodd" d="M21.4125 11.3706C21.2295 10.7036 20.7215 10.1846 20.0465 9.98158C19.7725 9.90258 19.4885 9.90258 18.9235 9.90258C18.3735 9.90258 18.0975 9.90258 17.8285 9.98058C17.1745 10.1666 16.6485 10.6876 16.4555 11.3486C16.3785 11.6246 16.3785 11.8976 16.3785 12.4426V13.3526C16.3785 13.6556 16.1295 13.9026 15.8235 13.9026H8.18546C7.88046 13.9026 7.63246 13.6556 7.63246 13.3526V12.4526C7.63246 11.8846 7.63246 11.5996 7.54846 11.3166C7.35046 10.6686 6.84946 10.1696 6.21946 9.98658C5.93246 9.89258 5.64246 9.89258 5.06846 9.89258C4.51846 9.89258 4.21646 9.89258 3.94446 9.98158C3.29846 10.1706 2.78046 10.6926 2.59646 11.3426C2.51246 11.6276 2.51646 11.9236 2.52446 12.4586C2.54146 13.8016 2.56746 14.6666 2.60146 15.0256C2.77746 17.0536 4.38046 18.6326 6.37246 18.7766C6.57746 18.8086 6.91346 18.8326 7.33146 18.8516V20.2526C7.33146 20.6666 7.66746 21.0026 8.08146 21.0026C8.49546 21.0026 8.83146 20.6666 8.83146 20.2526V18.8926C9.79746 18.9086 10.9095 18.9126 11.9955 18.9126C12.0255 18.9126 13.8705 18.9106 15.4445 18.8816V20.2526C15.4445 20.6666 15.7805 21.0026 16.1945 21.0026C16.6085 21.0026 16.9445 20.6666 16.9445 20.2526V18.8366C17.2545 18.8216 17.4885 18.8036 17.5895 18.7816C19.6165 18.6336 21.2145 17.0536 21.3905 15.0316C21.4245 14.6776 21.4525 13.8186 21.4745 12.4816C21.4835 11.9456 21.4895 11.6506 21.4125 11.3706Z" fill="black"/>
<path opacity="0.4" fill-rule="evenodd" clip-rule="evenodd" d="M6.53132 9.03805C7.45132 9.30805 8.21132 10.048 8.50132 11.028C8.63132 11.458 8.63132 11.828 8.63132 12.448V12.598C8.63132 12.7637 8.76563 12.898 8.93132 12.898H15.0813C15.247 12.898 15.3813 12.7637 15.3813 12.598V12.438C15.3813 11.848 15.3813 11.488 15.4913 11.078C15.7913 10.068 16.5613 9.29805 17.5513 9.01805C17.9513 8.89805 18.3213 8.89805 18.9213 8.89805C18.9979 8.89805 19.0715 8.89805 19.1422 8.89861C19.3152 8.89998 19.4613 8.76176 19.4613 8.58871V7.93805C19.4613 6.53805 19.4613 5.83805 19.2213 5.21805C18.8613 4.31805 18.1413 3.60805 17.2613 3.25805C16.6313 2.99805 15.9313 2.99805 14.5213 2.99805H9.54132C8.14132 2.99805 7.43132 2.99805 6.82132 3.25805C5.92132 3.60805 5.21132 4.31805 4.85132 5.21805C4.60132 5.83805 4.60132 6.53805 4.60132 7.93805V8.57585C4.60132 8.74996 4.7492 8.88924 4.9233 8.88831C4.97159 8.88805 5.02102 8.88805 5.07132 8.88805C5.68132 8.88805 6.09132 8.88805 6.53132 9.03805Z" fill="black"/>
</svg>