<svg width="24" height="24" viewBox="0 0 24 24" fill="none" xmlns="http://www.w3.org/2000/svg">
<path fill-rule="evenodd" clip-rule="evenodd" d="M20.781 10.7491C20.311 10.2701 19.684 10.0021 19.01 9.99609H18.994C17.555 9.99609 16.382 11.1701 16.377 12.6151V13.4561C16.377 13.7591 16.128 14.0061 15.822 14.0061H8.18399C7.87899 14.0061 7.63099 13.7591 7.63099 13.4561V12.6141C7.62699 11.1711 6.45099 9.99609 5.00999 9.99609C3.62899 9.99609 2.50499 11.1221 2.50499 12.4961C2.48699 13.3791 2.51899 14.2661 2.59999 15.1291C2.77599 17.1561 4.37899 18.7351 6.37099 18.8801C6.63799 18.9211 7.12599 18.9501 7.73599 18.9701L7.36499 20.1261C7.23799 20.5201 7.45499 20.9421 7.84899 21.0691C7.92599 21.0941 8.00299 21.1051 8.07899 21.1051C8.39599 21.1051 8.69099 20.9031 8.79299 20.5851L9.28399 19.0561C9.28999 19.0381 9.28599 19.0201 9.28999 19.0031C10.141 19.0131 11.078 19.0161 11.994 19.0161C12.021 19.0161 13.529 19.0141 14.98 18.9921C14.985 19.0131 14.98 19.0351 14.987 19.0561L15.479 20.5851C15.582 20.9031 15.876 21.1051 16.193 21.1051C16.269 21.1051 16.346 21.0941 16.423 21.0691C16.817 20.9421 17.034 20.5201 16.907 20.1261L16.531 18.9571C17.049 18.9391 17.446 18.9151 17.588 18.8851C19.615 18.7361 21.213 17.1561 21.388 15.1341C21.471 14.2671 21.509 13.3871 21.498 12.5301C21.504 11.8591 21.249 11.2281 20.781 10.7491Z" fill="black"/>
<path opacity="0.4" fill-rule="evenodd" clip-rule="evenodd" d="M8.62967 12.612V12.702C8.62967 12.8677 8.76398 13.002 8.92967 13.002H15.0797C15.2454 13.002 15.3797 12.8677 15.3797 12.702V12.612C15.3797 10.622 17.0097 8.99203 18.9897 8.99203H19.0097C19.0276 8.99203 19.0455 8.99219 19.0633 8.99252C19.2499 8.99593 19.4158 8.85076 19.4108 8.6642C19.391 7.93839 19.3628 7.32529 19.3197 6.97203C19.1397 4.94203 17.5397 3.31203 15.5197 3.11203C13.1997 2.82203 10.8497 2.82203 8.54967 3.11203C6.48967 3.29203 4.88967 4.92203 4.73967 6.96203C4.70487 7.32737 4.67008 7.94996 4.64845 8.67843C4.64316 8.85662 4.79445 8.99516 4.97268 8.99233C4.9851 8.99213 4.99744 8.99203 5.00967 8.99203C6.99967 8.99203 8.62967 10.622 8.62967 12.612Z" fill="black"/>
<path d="M10.7496 10.1113C10.7496 9.70133 10.3996 9.36133 9.98962 9.36133C9.57962 9.36133 9.23962 9.70133 9.23962 10.1113C9.23962 10.5313 9.57962 10.8613 9.98962 10.8613H9.99962C10.4096 10.8613 10.7496 10.5313 10.7496 10.1113Z" fill="black"/>
<path d="M10.7496 7.11133C10.7496 6.70133 10.4096 6.36133 9.99962 6.36133C9.58962 6.36133 9.24962 6.70133 9.24962 7.11133C9.24962 7.53133 9.58962 7.86133 9.99962 7.86133H10.0096C10.4196 7.86133 10.7496 7.53133 10.7496 7.11133Z" fill="black"/>
<path d="M14.7496 10.1113C14.7496 9.70133 14.4096 9.36133 13.9996 9.36133C13.5896 9.36133 13.2496 9.70133 13.2496 10.1113C13.2496 10.5313 13.5896 10.8613 13.9996 10.8613H14.0096C14.4196 10.8613 14.7496 10.5313 14.7496 10.1113Z" fill="black"/>
<path d="M14.7496 7.11133C14.7496 6.70133 14.4096 6.36133 13.9996 6.36133C13.5896 6.36133 13.2496 6.70133 13.2496 7.11133C13.2496 7.53133 13.5896 7.86133 13.9996 7.86133H14.0096C14.4196 7.86133 14.7496 7.53133 14.7496 7.11133Z" fill="black"/>
</svg>