<svg width="25" height="24" viewBox="0 0 25 24" fill="none" xmlns="http://www.w3.org/2000/svg">
<path fill-rule="evenodd" clip-rule="evenodd" d="M19.4225 10.6289C18.9192 10.6278 18.6675 10.6273 18.4632 10.686C17.9667 10.8285 17.5796 11.2147 17.4361 11.7109C17.377 11.9151 17.377 12.1654 17.377 12.666V13.5774C17.377 14.1602 16.9051 14.6321 16.3223 14.6321H8.68553C8.1037 14.6321 7.63084 14.1602 7.63084 13.5774V12.6839C7.63084 12.1639 7.63084 11.9039 7.56803 11.6937C7.42299 11.2084 7.04698 10.832 6.56181 10.6865C6.35171 10.6235 6.09029 10.6232 5.56743 10.6226C5.05301 10.6221 4.79579 10.6219 4.58368 10.6857C4.09884 10.8315 3.7141 11.221 3.57418 11.7076C3.51296 11.9204 3.51632 12.1743 3.52304 12.6822C3.53648 13.6984 3.55964 14.794 3.59888 15.211C3.75358 16.9847 5.17313 18.3838 6.94879 18.5132C7.7797 18.6426 11.1072 18.6426 12.4947 18.6426C13.8821 18.6426 17.5706 18.6144 18.0522 18.5113C19.824 18.377 21.2377 16.9808 21.3914 15.211C21.431 14.7984 21.4573 13.7098 21.474 12.6962C21.4823 12.1923 21.4864 11.9404 21.4298 11.7338C21.292 11.2307 20.9065 10.838 20.4061 10.6909C20.2005 10.6305 19.9412 10.63 19.4225 10.6289Z" stroke="black" stroke-width="1.5" stroke-linecap="round" stroke-linejoin="round"/>
<path opacity="0.4" d="M8.58008 18.7002V20.4764" stroke="black" stroke-width="1.5" stroke-linecap="round" stroke-linejoin="round"/>
<path opacity="0.4" d="M16.6934 18.7002V20.4764" stroke="black" stroke-width="1.5" stroke-linecap="round" stroke-linejoin="round"/>
<path opacity="0.4" d="M19.462 10.5956V8.17389C19.462 6.83237 19.462 6.16161 19.2514 5.62951C18.9464 4.85932 18.3366 4.2495 17.5664 3.94456C17.0343 3.73389 16.3636 3.73389 15.022 3.73389H10.0435C8.702 3.73389 8.03123 3.73389 7.49914 3.94456C6.72895 4.2495 6.11913 4.85932 5.81419 5.62951C5.60352 6.16161 5.60352 6.83237 5.60352 8.17389V10.5956" stroke="black" stroke-width="1.5" stroke-linecap="round" stroke-linejoin="round"/>
</svg>