<svg width="25" height="24" viewBox="0 0 25 24" fill="none" xmlns="http://www.w3.org/2000/svg">
<path fill-rule="evenodd" clip-rule="evenodd" d="M11.968 2.25C12.3822 2.25 12.718 2.58579 12.718 3V4.3719C12.718 4.78612 12.3822 5.1219 11.968 5.1219C11.5538 5.1219 11.218 4.78612 11.218 4.3719V3C11.218 2.58579 11.5538 2.25 11.968 2.25ZM18.8621 5.10549C19.155 5.39839 19.155 5.87326 18.8621 6.16615L17.8921 7.13622C17.5992 7.42911 17.1243 7.42911 16.8314 7.13622C16.5385 6.84332 16.5385 6.36845 16.8314 6.07556L17.8015 5.10549C18.0944 4.8126 18.5692 4.8126 18.8621 5.10549ZM18.846 12.0001C18.846 11.5859 19.1818 11.2501 19.596 11.2501H20.9679C21.3822 11.2501 21.7179 11.5859 21.7179 12.0001C21.7179 12.4143 21.3822 12.7501 20.9679 12.7501H19.596C19.1818 12.7501 18.846 12.4143 18.846 12.0001ZM16.8314 16.8635C17.1243 16.5706 17.5992 16.5706 17.8921 16.8635L18.8621 17.8335C19.155 18.1264 19.155 18.6013 18.8621 18.8942C18.5692 19.1871 18.0944 19.1871 17.8015 18.8942L16.8314 17.9241C16.5385 17.6312 16.5385 17.1564 16.8314 16.8635ZM11.968 18.8781C12.3822 18.8781 12.718 19.2139 12.718 19.6281V21C12.718 21.4142 12.3822 21.75 11.968 21.75C11.5538 21.75 11.218 21.4142 11.218 21V19.6281C11.218 19.2139 11.5538 18.8781 11.968 18.8781Z" fill="black"/>
<path fill-rule="evenodd" clip-rule="evenodd" d="M11.9676 8.55469C11.6399 8.55469 11.3242 8.6002 11.0257 8.68478C10.6272 8.79771 10.2126 8.5662 10.0997 8.16768C9.98672 7.76916 10.2182 7.35454 10.6168 7.24161C11.047 7.11969 11.5003 7.05469 11.9676 7.05469C14.6996 7.05469 16.9131 9.26941 16.9131 12.0002C16.9131 14.7318 14.6997 16.9466 11.9676 16.9466C11.5003 16.9466 11.047 16.8816 10.6167 16.7597C10.2182 16.6468 9.98672 16.2322 10.0997 15.8336C10.2126 15.4351 10.6272 15.2036 11.0257 15.3166C11.3242 15.4011 11.6399 15.4466 11.9676 15.4466C13.8708 15.4466 15.4131 13.9038 15.4131 12.0002C15.4131 10.0976 13.8709 8.55469 11.9676 8.55469Z" fill="black"/>
<path fill-rule="evenodd" clip-rule="evenodd" d="M9.33498 8.64901C9.64412 8.9247 9.67123 9.3988 9.39554 9.70794C8.85191 10.3175 8.52246 11.1196 8.52246 12.0002C8.52246 12.8814 8.85197 13.6837 9.39558 14.2934C9.67125 14.6025 9.6441 15.0766 9.33494 15.3523C9.02577 15.628 8.55168 15.6008 8.27601 15.2916C7.49677 14.4177 7.02246 13.2634 7.02246 12.0002C7.02246 10.7374 7.49683 9.58331 8.27605 8.70956C8.55175 8.40042 9.02585 8.37331 9.33498 8.64901Z" fill="black"/>
<path fill-rule="evenodd" clip-rule="evenodd" d="M3.51074 4.29199C3.51074 3.87778 3.84653 3.54199 4.26074 3.54199C8.9329 3.54199 12.7184 7.32956 12.7184 11.9997C12.7184 16.6715 8.93301 20.4592 4.26074 20.4592C3.84653 20.4592 3.51074 20.1234 3.51074 19.7092C3.51074 19.295 3.84653 18.9592 4.26074 18.9592C8.10413 18.9592 11.2184 15.8435 11.2184 11.9997C11.2184 8.15776 8.10424 5.04199 4.26074 5.04199C3.84653 5.04199 3.51074 4.70621 3.51074 4.29199Z" fill="black"/>
</svg>