<svg width="25" height="24" viewBox="0 0 25 24" fill="none" xmlns="http://www.w3.org/2000/svg">
<path fill-rule="evenodd" clip-rule="evenodd" d="M19.4237 9.735C19.3327 9.589 19.1727 9.5 18.9997 9.5H3.49967C3.31867 9.5 3.15067 9.598 3.06267 9.757C2.97467 9.917 2.97967 10.111 3.07567 10.264L5.57566 14.264C5.66766 14.411 5.82767 14.5 5.99967 14.5H21.4997C21.6817 14.5 21.8487 14.401 21.9377 14.242C22.0257 14.083 22.0207 13.888 21.9237 13.735L19.4237 9.735Z" fill="black"/>
<g opacity="0.4">
<path fill-rule="evenodd" clip-rule="evenodd" d="M21.4998 16H5.99978C5.82778 16 5.66678 16.089 5.57578 16.235L3.07578 20.235C2.97878 20.389 2.97478 20.583 3.06278 20.742C3.15078 20.901 3.31778 21 3.49978 21H18.9998C19.1718 21 19.3328 20.911 19.4238 20.765L21.9238 16.765C22.0208 16.611 22.0248 16.417 21.9368 16.258C21.8488 16.099 21.6818 16 21.4998 16Z" fill="black"/>
<path fill-rule="evenodd" clip-rule="evenodd" d="M3.49978 8H18.9998C19.1718 8 19.3328 7.911 19.4238 7.765L21.9238 3.765C22.0208 3.611 22.0248 3.417 21.9368 3.258C21.8488 3.099 21.6818 3 21.4998 3H5.99978C5.82778 3 5.66678 3.089 5.57578 3.235L3.07578 7.235C2.97878 7.389 2.97478 7.583 3.06278 7.742C3.15078 7.901 3.31778 8 3.49978 8Z" fill="black"/>
</g>
</svg>