<svg width="25" height="24" viewBox="0 0 25 24" fill="none" xmlns="http://www.w3.org/2000/svg">
<path opacity="0.4" d="M12.4181 2.69629V4.1145M12.4181 19.8857V21.3039M4.53247 12.0002H3.11426M18.9967 5.42108L17.9939 6.42389M6.84235 17.5759L5.83954 18.5787M18.9967 18.5787L17.9939 17.5759M6.84235 6.42438L5.83954 5.42157" stroke="black" stroke-width="1.5" stroke-linecap="round" stroke-linejoin="round"/>
<path opacity="0.4" d="M16.1694 8.7682C15.2617 7.71582 13.9185 7.04956 12.4193 7.04956C9.68454 7.04956 7.46875 9.2665 7.46875 12.0001C7.46875 14.7348 9.68454 16.9517 12.4193 16.9517C13.8626 16.9517 15.1614 16.3342 16.0662 15.3489" stroke="black" stroke-width="1.5" stroke-linecap="round" stroke-linejoin="round"/>
<path fill-rule="evenodd" clip-rule="evenodd" d="M21.1142 13.488C20.2076 15.6805 17.3226 16.566 15.2365 14.7116C14.6299 14.1724 14.2444 13.4132 14.1688 12.6051C13.9095 9.84199 16.2982 8.04004 18.6004 8.58068C18.0757 9.47492 17.9784 10.6852 18.4528 11.6122C18.9273 12.54 19.9953 13.3861 21.1142 13.488Z" stroke="black" stroke-width="1.5" stroke-linecap="round" stroke-linejoin="round"/>
</svg>