<svg width="24" height="24" viewBox="0 0 24 24" fill="none" xmlns="http://www.w3.org/2000/svg">
<path fill-rule="evenodd" clip-rule="evenodd" d="M20.9998 16H5.49978C5.32778 16 5.16678 16.089 5.07578 16.235L2.57578 20.235C2.47878 20.389 2.47478 20.583 2.56278 20.742C2.65078 20.901 2.81778 21 2.99978 21H18.4998C18.6718 21 18.8328 20.911 18.9238 20.765L21.4238 16.765C21.5208 16.611 21.5248 16.417 21.4368 16.258C21.3488 16.099 21.1818 16 20.9998 16Z" fill="black"/>
<path fill-rule="evenodd" clip-rule="evenodd" d="M18.9235 9.73524C18.8325 9.58924 18.6725 9.50024 18.4995 9.50024H2.99954C2.81854 9.50024 2.65054 9.59824 2.56254 9.75724C2.47454 9.91724 2.47954 10.1112 2.57554 10.2642L5.07554 14.2642C5.16754 14.4112 5.32754 14.5002 5.49954 14.5002H20.9995C21.1815 14.5002 21.3485 14.4012 21.4375 14.2422C21.5255 14.0832 21.5205 13.8882 21.4235 13.7352L18.9235 9.73524Z" fill="black"/>
<path fill-rule="evenodd" clip-rule="evenodd" d="M2.99978 8H18.4998C18.6718 8 18.8328 7.911 18.9238 7.765L21.4238 3.765C21.5208 3.611 21.5248 3.417 21.4368 3.258C21.3488 3.099 21.1818 3 20.9998 3H5.49978C5.32778 3 5.16678 3.089 5.07578 3.235L2.57578 7.235C2.47878 7.389 2.47478 7.583 2.56278 7.742C2.65078 7.901 2.81778 8 2.99978 8Z" fill="black"/>
</svg>