<svg width="25" height="24" viewBox="0 0 25 24" fill="none" xmlns="http://www.w3.org/2000/svg">
<path fill-rule="evenodd" clip-rule="evenodd" d="M12.25 2.36719C12.6642 2.36719 13 2.70297 13 3.11719V20.8813C13 21.2955 12.6642 21.6313 12.25 21.6313C11.8358 21.6313 11.5 21.2955 11.5 20.8813V3.11719C11.5 2.70297 11.8358 2.36719 12.25 2.36719Z" fill="black"/>
<path fill-rule="evenodd" clip-rule="evenodd" d="M7.76562 5.69336C8.17984 5.69336 8.51562 6.02915 8.51562 6.44336V17.6953C8.51562 18.1095 8.17984 18.4453 7.76562 18.4453C7.35141 18.4453 7.01562 18.1095 7.01562 17.6953V6.44336C7.01562 6.02915 7.35141 5.69336 7.76562 5.69336Z" fill="black"/>
<path fill-rule="evenodd" clip-rule="evenodd" d="M16.7324 5.55273C17.1466 5.55273 17.4824 5.88852 17.4824 6.30273V17.5547C17.4824 17.9689 17.1466 18.3047 16.7324 18.3047C16.3182 18.3047 15.9824 17.9689 15.9824 17.5547V6.30273C15.9824 5.88852 16.3182 5.55273 16.7324 5.55273Z" fill="black"/>
<path fill-rule="evenodd" clip-rule="evenodd" d="M21.2168 9.00195C21.631 9.00195 21.9668 9.33774 21.9668 9.75195V13.9634C21.9668 14.3776 21.631 14.7134 21.2168 14.7134C20.8026 14.7134 20.4668 14.3776 20.4668 13.9634V9.75195C20.4668 9.33774 20.8026 9.00195 21.2168 9.00195Z" fill="black"/>
<path fill-rule="evenodd" clip-rule="evenodd" d="M3.2832 9.28516C3.69742 9.28516 4.0332 9.62094 4.0332 10.0352V14.2466C4.0332 14.6608 3.69742 14.9966 3.2832 14.9966C2.86899 14.9966 2.5332 14.6608 2.5332 14.2466V10.0352C2.5332 9.62094 2.86899 9.28516 3.2832 9.28516Z" fill="black"/>
</svg>