<svg width="25" height="24" viewBox="0 0 25 24" fill="none" xmlns="http://www.w3.org/2000/svg">
<path fill-rule="evenodd" clip-rule="evenodd" d="M21.4996 16.7254C21.4996 17.9143 20.5354 18.8785 19.3465 18.8785C18.1575 18.8785 17.1934 17.9143 17.1934 16.7254C17.1934 15.5364 18.1575 14.5723 19.3465 14.5723C20.5354 14.5723 21.4996 15.5364 21.4996 16.7254Z" stroke="black" stroke-width="1.5" stroke-linecap="round" stroke-linejoin="round"/>
<path fill-rule="evenodd" clip-rule="evenodd" d="M13.1441 18.2605C13.1441 19.4495 12.1799 20.4137 10.991 20.4137C9.80207 20.4137 8.83789 19.4495 8.83789 18.2605C8.83789 17.0716 9.80207 16.1074 10.991 16.1074C12.1799 16.1074 13.1441 17.0716 13.1441 18.2605Z" stroke="black" stroke-width="1.5" stroke-linecap="round" stroke-linejoin="round"/>
<path fill-rule="evenodd" clip-rule="evenodd" d="M7.83348 10.4197C7.83348 11.6164 6.86345 12.5864 5.66674 12.5864C4.47002 12.5864 3.5 11.6164 3.5 10.4197C3.5 9.22295 4.47002 8.25195 5.66674 8.25195C6.86345 8.25195 7.83348 9.22295 7.83348 10.4197Z" stroke="black" stroke-width="1.5" stroke-linecap="round" stroke-linejoin="round"/>
<path opacity="0.4" d="M7.83398 10.3372V3.58594C7.83398 3.58594 8.41872 5.10664 9.99099 5.42674" stroke="black" stroke-width="1.5" stroke-linecap="round" stroke-linejoin="round"/>
<path d="M21.4986 16.7255L21.4994 6.50195C18.7625 7.77359 15.9313 8.25616 13.1428 8.03823L13.1426 18.261" stroke="black" stroke-width="1.5" stroke-linecap="round" stroke-linejoin="round"/>
<path opacity="0.4" d="M13.1426 11.6886C15.931 11.9075 18.7623 11.4249 21.4992 10.1523" stroke="black" stroke-width="1.5" stroke-linecap="round" stroke-linejoin="round"/>
</svg>