<svg width="24" height="24" viewBox="0 0 24 24" fill="none" xmlns="http://www.w3.org/2000/svg">
<path d="M10.3435 20.2495C10.3435 20.8015 10.7915 21.2495 11.3435 21.2495C11.8955 21.2495 12.3435 20.8015 12.3435 20.2495V3.75049C12.3435 3.19849 11.8955 2.75049 11.3435 2.75049C10.7915 2.75049 10.3435 3.19849 10.3435 3.75049V20.2495Z" fill="black"/>
<path d="M15.5076 14.0715C14.9556 14.0715 14.5076 13.6235 14.5076 13.0715V6.70947C14.5076 6.15747 14.9556 5.70947 15.5076 5.70947C16.0596 5.70947 16.5076 6.15747 16.5076 6.70947V13.0715C16.5076 13.6235 16.0596 14.0715 15.5076 14.0715Z" fill="black"/>
<path d="M18.6726 11.6846C18.6726 12.2366 19.1206 12.6846 19.6726 12.6846C20.2246 12.6846 20.6726 12.2366 20.6726 11.6846V9.9126C20.6726 9.3606 20.2246 8.9126 19.6726 8.9126C19.1206 8.9126 18.6726 9.3606 18.6726 9.9126V11.6846Z" fill="black"/>
<path d="M16.4236 19.5295C16.6186 19.7245 16.8746 19.8225 17.1306 19.8225C17.3866 19.8225 17.6426 19.7245 17.8376 19.5295L21.6916 15.6765C22.0826 15.2865 22.0826 14.6535 21.6916 14.2625C21.3006 13.8715 20.6686 13.8715 20.2776 14.2625L17.1306 17.4085L16.2966 16.5745C15.9056 16.1835 15.2736 16.1835 14.8826 16.5745C14.4916 16.9655 14.4916 17.5975 14.8826 17.9885L16.4236 19.5295Z" fill="black"/>
<path d="M6.17944 17.2903C6.17944 17.8423 6.62744 18.2903 7.17944 18.2903C7.73144 18.2903 8.17944 17.8423 8.17944 17.2903V6.84033C8.17944 6.28833 7.73144 5.84033 7.17944 5.84033C6.62744 5.84033 6.17944 6.28833 6.17944 6.84033V17.2903Z" fill="black"/>
<path d="M3.01538 15.0873C2.46338 15.0873 2.01538 14.6393 2.01538 14.0873V10.1763C2.01538 9.62427 2.46338 9.17627 3.01538 9.17627C3.56738 9.17627 4.01538 9.62427 4.01538 10.1763V14.0873C4.01538 14.6393 3.56738 15.0873 3.01538 15.0873Z" fill="black"/>
</svg>