<svg width="25" height="24" viewBox="0 0 25 24" fill="none" xmlns="http://www.w3.org/2000/svg">
<path fill-rule="evenodd" clip-rule="evenodd" d="M15.894 18.076C15.5856 17.1119 15.9456 16.0115 16.9575 15.6855C17.4897 15.5153 18.0715 15.6135 18.5181 15.9482C18.9656 15.6165 19.5455 15.5182 20.0767 15.6855C21.0886 16.0115 21.4515 17.1119 21.1431 18.076C20.6624 19.6016 18.5181 20.7789 18.5181 20.7789C18.5181 20.7789 16.3912 19.6201 15.894 18.076Z" stroke="black" stroke-width="1.5" stroke-linecap="round" stroke-linejoin="round"/>
<path d="M13.0703 14.2072L13.8254 7.94141C13.8254 7.94141 14.197 9.41833 15.6204 9.8902" stroke="black" stroke-width="1.5" stroke-linecap="round" stroke-linejoin="round"/>
<path d="M12.25 21.0004C7.27908 21.0004 3.25 16.9713 3.25 12.0004C3.25 10.0754 3.8544 8.29151 4.88384 6.82812" stroke="black" stroke-width="1.5" stroke-linecap="round" stroke-linejoin="round"/>
<path d="M21.2498 12C21.2498 7.03005 17.2208 3 12.2498 3C10.6037 3 9.06085 3.44194 7.7334 4.21362" stroke="black" stroke-width="1.5" stroke-linecap="round" stroke-linejoin="round"/>
<path d="M11.2333 11.8691C12.3863 12.0083 13.2084 13.0552 13.0693 14.2082C12.9301 15.3611 11.8832 16.1833 10.7303 16.0442C9.57728 15.906 8.75512 14.8581 8.89426 13.7051C8.93259 13.3875 9.03982 13.095 9.19919 12.8409" stroke="black" stroke-width="1.5" stroke-linecap="round" stroke-linejoin="round"/>
</svg>