<svg width="25" height="24" viewBox="0 0 25 24" fill="none" xmlns="http://www.w3.org/2000/svg">
<path d="M15.2506 20.8135H9.26562C8.23841 20.8124 7.25356 20.404 6.52711 19.6777C5.80067 18.9515 5.39195 17.9667 5.39062 16.9395V7.0625C5.39168 6.03511 5.80029 5.05011 6.52676 4.32364C7.25324 3.59716 8.23824 3.18856 9.26562 3.1875H15.2506C16.278 3.18856 17.263 3.59716 17.9895 4.32364C18.716 5.05011 19.1246 6.03511 19.1256 7.0625V16.9395C19.1243 17.9667 18.7156 18.9515 17.9891 19.6777C17.2627 20.404 16.2778 20.8124 15.2506 20.8135V20.8135ZM9.26562 4.6875C8.63598 4.68829 8.03235 4.93878 7.58713 5.384C7.1419 5.82923 6.89142 6.43285 6.89062 7.0625V16.9395C6.89168 17.569 7.14228 18.1723 7.58748 18.6174C8.03268 19.0624 8.63615 19.3127 9.26562 19.3135H15.2506C15.8802 19.313 16.4838 19.0627 16.9291 18.6176C17.3743 18.1726 17.6248 17.5691 17.6256 16.9395V7.0625C17.6251 6.43277 17.3747 5.829 16.9294 5.38371C16.4841 4.93843 15.8804 4.68803 15.2506 4.6875H9.26562Z" fill="black"/>
<path d="M6.14101 17.9633H5.59C4.76956 17.9607 3.98364 17.6329 3.40443 17.0518C2.82523 16.4708 2.5 15.6838 2.5 14.8634V9.12735C2.5 8.30691 2.82523 7.51992 3.40443 6.93884C3.98364 6.35777 4.76956 6.02999 5.59 6.02734H6.14101C6.33992 6.02734 6.53067 6.10637 6.67133 6.24702C6.81198 6.38768 6.89101 6.57843 6.89101 6.77734C6.89101 6.97626 6.81198 7.16703 6.67133 7.30768C6.53067 7.44833 6.33992 7.52734 6.14101 7.52734H5.59C5.16739 7.52999 4.76299 7.69972 4.46509 7.9995C4.16719 8.29927 3.99999 8.70473 4 9.12735V14.8634C3.99999 15.286 4.16719 15.6914 4.46509 15.9912C4.76299 16.291 5.16739 16.4607 5.59 16.4633H6.14101C6.33992 16.4633 6.53067 16.5424 6.67133 16.683C6.81198 16.8237 6.89101 17.0144 6.89101 17.2133C6.89101 17.4123 6.81198 17.603 6.67133 17.7437C6.53067 17.8843 6.33992 17.9633 6.14101 17.9633V17.9633Z" fill="black"/>
<path d="M11.7127 16.23C11.2202 16.23 10.7388 16.084 10.3293 15.8104C9.9198 15.5368 9.60066 15.1479 9.4122 14.6929C9.22373 14.2379 9.17443 13.7372 9.2705 13.2542C9.36658 12.7712 9.60373 12.3275 9.95196 11.9793C10.3002 11.6311 10.7439 11.3939 11.2269 11.2978C11.7099 11.2018 12.2105 11.2511 12.6655 11.4395C13.1205 11.628 13.5094 11.9472 13.783 12.3566C14.0566 12.7661 14.2026 13.2475 14.2026 13.74C14.2019 14.4001 13.9393 15.033 13.4725 15.4998C13.0057 15.9666 12.3728 16.2292 11.7127 16.23V16.23ZM11.7127 12.75C11.5169 12.75 11.3254 12.8081 11.1626 12.9168C10.9998 13.0256 10.8729 13.1802 10.798 13.3611C10.7231 13.542 10.7035 13.7411 10.7417 13.9331C10.7799 14.1252 10.8742 14.3016 11.0126 14.44C11.1511 14.5785 11.3275 14.6728 11.5195 14.711C11.7116 14.7492 11.9106 14.7296 12.0915 14.6546C12.2724 14.5797 12.427 14.4528 12.5358 14.29C12.6446 14.1272 12.7026 13.9358 12.7026 13.74C12.7028 13.6099 12.6773 13.481 12.6276 13.3607C12.5779 13.2404 12.505 13.1311 12.4131 13.039C12.3212 12.9468 12.212 12.8737 12.0918 12.8238C11.9716 12.7739 11.8428 12.7481 11.7127 12.748V12.75Z" fill="black"/>
<path d="M13.4492 14.4913C13.2503 14.4913 13.0595 14.4123 12.9189 14.2716C12.7782 14.1309 12.6992 13.9402 12.6992 13.7413V8.51927C12.6993 8.34413 12.7606 8.17454 12.8726 8.0399C12.9846 7.90526 13.1402 7.81406 13.3124 7.78212C13.4846 7.75017 13.6626 7.77949 13.8154 7.865C13.9682 7.95051 14.0863 8.08681 14.1492 8.25027C14.2504 8.48418 14.4036 8.69194 14.5972 8.85777C14.7907 9.02359 15.0196 9.14312 15.2662 9.20727C15.4612 9.24705 15.6323 9.36264 15.742 9.52861C15.8517 9.69458 15.891 9.89733 15.8512 10.0923C15.8114 10.2872 15.6958 10.4584 15.5299 10.5681C15.3639 10.6778 15.1612 10.7171 14.9662 10.6773C14.6981 10.6233 14.4391 10.531 14.1972 10.4033V13.7413C14.1972 13.9398 14.1185 14.1303 13.9783 14.2709C13.838 14.4115 13.6478 14.4907 13.4492 14.4913V14.4913Z" fill="black"/>
<path d="M18.9104 17.9633H18.3594C18.1605 17.9633 17.9697 17.8843 17.8291 17.7437C17.6884 17.603 17.6094 17.4123 17.6094 17.2133C17.6094 17.0144 17.6884 16.8237 17.8291 16.683C17.9697 16.5424 18.1605 16.4633 18.3594 16.4633H18.9104C19.333 16.4607 19.7374 16.291 20.0353 15.9912C20.3332 15.6914 20.5004 15.286 20.5004 14.8634V9.12735C20.5004 8.70473 20.3332 8.29927 20.0353 7.9995C19.7374 7.69972 19.333 7.52999 18.9104 7.52734H18.3594C18.1605 7.52734 17.9697 7.44833 17.8291 7.30768C17.6884 7.16703 17.6094 6.97626 17.6094 6.77734C17.6094 6.57843 17.6884 6.38768 17.8291 6.24702C17.9697 6.10637 18.1605 6.02734 18.3594 6.02734H18.9104C19.7308 6.02999 20.5167 6.35777 21.0959 6.93884C21.6751 7.51992 22.0004 8.30691 22.0004 9.12735V14.8634C22.0004 15.6838 21.6751 16.4708 21.0959 17.0518C20.5167 17.6329 19.7308 17.9607 18.9104 17.9633V17.9633Z" fill="black"/>
</svg>