<svg width="25" height="24" viewBox="0 0 25 24" fill="none" xmlns="http://www.w3.org/2000/svg">
<path opacity="0.4" fill-rule="evenodd" clip-rule="evenodd" d="M19.19 7.05994V16.9399C19.19 17.2999 19.14 17.6399 19.04 17.9699C18.6 19.4699 17.21 20.5599 15.57 20.5599H9.57996C7.93996 20.5599 6.54996 19.4699 6.10996 17.9699C6.00996 17.6399 5.95996 17.2999 5.95996 16.9399V7.05994C5.95996 6.69994 6.00996 6.35994 6.10996 6.02994C6.54996 4.52994 7.93996 3.43994 9.57996 3.43994H15.57C17.21 3.43994 18.6 4.52994 19.04 6.02994C19.14 6.35994 19.19 6.69994 19.19 7.05994Z" fill="black"/>
<path fill-rule="evenodd" clip-rule="evenodd" d="M12.0288 14.7308C11.4838 14.7308 11.0398 14.2878 11.0398 13.7418C11.0398 13.1958 11.4838 12.7518 12.0288 12.7518C12.5728 12.7518 13.0148 13.1938 13.0178 13.7368V13.7408C13.0178 13.7418 13.0178 13.7428 13.0178 13.7438C13.0168 14.2888 12.5738 14.7308 12.0288 14.7308ZM15.5848 9.20777C14.8008 9.04777 14.4788 8.27677 14.4678 8.25077C14.3378 7.91277 13.9818 7.71177 13.6308 7.78277C13.2758 7.84877 13.0178 8.15877 13.0178 8.51977V11.4588C12.7138 11.3268 12.3808 11.2518 12.0288 11.2518C10.6558 11.2518 9.53979 12.3688 9.53979 13.7418C9.53979 15.1138 10.6558 16.2308 12.0288 16.2308C13.4018 16.2308 14.5188 15.1138 14.5188 13.7418C14.5188 13.7388 14.5178 13.7358 14.5178 13.7318V10.4028C14.7428 10.5228 14.9978 10.6188 15.2858 10.6778C15.6858 10.7578 16.0878 10.4978 16.1708 10.0918C16.2528 9.68677 15.9908 9.29077 15.5848 9.20777Z" fill="black"/>
<path fill-rule="evenodd" clip-rule="evenodd" d="M5.96007 16.9398C5.96007 17.2998 6.01007 17.6398 6.11007 17.9698H5.91007C4.20007 17.9698 2.82007 16.5798 2.82007 14.8698V9.12979C2.82007 7.41979 4.20007 6.02979 5.91007 6.02979H6.11007C6.01007 6.35979 5.96007 6.69979 5.96007 7.05979V7.52979H5.91007C5.03007 7.52979 4.32007 8.24978 4.32007 9.12979V14.8698C4.32007 15.7498 5.03007 16.4698 5.91007 16.4698H5.96007V16.9398Z" fill="black"/>
<path fill-rule="evenodd" clip-rule="evenodd" d="M22.3201 9.12979V14.8698C22.3201 16.5798 20.9301 17.9698 19.2301 17.9698H19.0401C19.1401 17.6398 19.1901 17.2998 19.1901 16.9398V16.4698H19.2301C20.1001 16.4698 20.8201 15.7498 20.8201 14.8698V9.12979C20.8201 8.24978 20.1001 7.52979 19.2301 7.52979H19.1901V7.05979C19.1901 6.69979 19.1401 6.35979 19.0401 6.02979H19.2301C20.9301 6.02979 22.3201 7.41979 22.3201 9.12979Z" fill="black"/>
</svg>