<svg width="25" height="24" viewBox="0 0 25 24" fill="none" xmlns="http://www.w3.org/2000/svg">
<path opacity="0.4" fill-rule="evenodd" clip-rule="evenodd" d="M14.5681 18.9998C14.5681 16.2598 16.7901 14.0378 19.5301 14.0378C20.1825 14.0378 20.7984 14.1745 21.3667 14.407C21.539 14.4775 21.7398 14.3891 21.7851 14.2085C21.9686 13.4765 22.0701 12.7135 22.0701 11.9258C22.0701 6.68678 17.8081 2.42578 12.5701 2.42578C7.33207 2.42578 3.07007 6.68678 3.07007 11.9258C3.07007 17.1638 7.33207 21.4258 12.5701 21.4258C13.3021 21.4258 14.0128 21.3351 14.6968 21.175C14.878 21.1326 14.9697 20.9337 14.9026 20.7602C14.6911 20.2132 14.5681 19.6224 14.5681 18.9998Z" fill="black"/>
<path fill-rule="evenodd" clip-rule="evenodd" d="M19.1696 21.5741C18.7556 21.5741 18.4196 21.2391 18.4196 20.8241V19.4441H17.0396C16.6256 19.4441 16.2896 19.1081 16.2896 18.6941C16.2896 18.2801 16.6256 17.9441 17.0396 17.9441H18.4196L18.4186 16.5661C18.4186 16.1521 18.7536 15.8161 19.1686 15.8161C19.5826 15.8161 19.9186 16.1521 19.9186 16.5661L19.9196 17.9441H21.2976C21.7116 17.9441 22.0476 18.2801 22.0476 18.6941C22.0476 19.1081 21.7116 19.4441 21.2976 19.4441H19.9196V20.8241C19.9196 21.2381 19.5846 21.5741 19.1696 21.5741Z" fill="black"/>
<path fill-rule="evenodd" clip-rule="evenodd" d="M13.3191 13.703C13.3191 13.706 13.3171 13.709 13.3161 13.712C13.2231 14.465 12.8441 15.138 12.2471 15.606C11.7401 16.004 11.1271 16.215 10.4921 16.215C10.3771 16.215 10.2611 16.208 10.1451 16.194C9.38914 16.103 8.71314 15.724 8.24214 15.124C7.77214 14.524 7.56314 13.777 7.65414 13.021C7.84214 11.46 9.26714 10.342 10.8271 10.53C11.3061 10.588 11.7461 10.773 12.1291 11.045L12.5851 7.25696C12.6291 6.89796 12.9221 6.62096 13.2821 6.59896C13.6451 6.57796 13.9691 6.81296 14.0571 7.16396C14.0703 7.21054 14.364 8.25324 15.3611 8.58396C15.7541 8.71496 15.9671 9.13996 15.8371 9.53296C15.7061 9.92496 15.2821 10.137 14.8881 10.008C14.4681 9.86896 14.1211 9.66296 13.8341 9.42796L13.3191 13.703ZM10.4862 12.0095C10.5392 12.0095 10.5932 12.0135 10.6482 12.0195C11.0062 12.0625 11.3272 12.2435 11.5502 12.5265C11.7732 12.8115 11.8722 13.1665 11.8292 13.5245C11.7862 13.8825 11.6052 14.2035 11.3212 14.4265C11.0372 14.6495 10.6862 14.7495 10.3242 14.7055C9.9652 14.6625 9.6452 14.4815 9.4222 14.1975C9.1992 13.9135 9.1002 13.5595 9.1432 13.2005C9.2262 12.5155 9.8122 12.0095 10.4862 12.0095Z" fill="black"/>
</svg>