<svg width="25" height="24" viewBox="0 0 25 24" fill="none" xmlns="http://www.w3.org/2000/svg">
<path d="M15.8932 21.7357H8.59317C4.83317 21.7357 2.49316 19.4057 2.49316 15.6537V8.33972C2.49316 4.30672 4.29316 2.26172 7.83116 2.26172H9.70616C10.1546 2.26334 10.5966 2.36874 10.9975 2.56964C11.3984 2.77054 11.7474 3.06149 12.0172 3.41974L12.8722 4.55774C13.003 4.72932 13.1715 4.86856 13.3646 4.96478C13.5578 5.061 13.7704 5.11163 13.9862 5.11273H16.6522C20.3052 5.11273 22.0072 6.98274 22.0072 10.9977L21.9812 15.6577C21.9762 19.4057 19.6452 21.7357 15.8932 21.7357ZM7.84016 3.76172C5.15016 3.76172 4.00217 5.13072 4.00217 8.33972V15.6537C4.00217 18.6087 5.63417 20.2357 8.60217 20.2357H15.9022C18.8582 20.2357 20.4852 18.6087 20.4852 15.6537L20.5112 10.9937C20.5112 7.80071 19.4662 6.61273 16.6562 6.61273H14.0032C13.5553 6.61093 13.1138 6.50598 12.7131 6.30603C12.3123 6.10608 11.963 5.81648 11.6922 5.45972L10.8352 4.3197C10.7054 4.14727 10.5375 4.0072 10.3446 3.9104C10.1517 3.8136 9.93898 3.76272 9.72316 3.76172H7.84016Z" fill="black"/>
<path d="M11.241 17.4503C11.1374 17.4499 11.0339 17.4436 10.931 17.4313C10.4215 17.3703 9.94161 17.1596 9.55194 16.8258C9.16227 16.492 8.88036 16.0501 8.74183 15.5561C8.60331 15.062 8.61441 14.538 8.77373 14.0503C8.93304 13.5625 9.23343 13.133 9.63688 12.816C10.0403 12.499 10.5287 12.3088 11.0403 12.2694C11.5519 12.23 12.0636 12.3432 12.5109 12.5946C12.9581 12.8461 13.3207 13.2246 13.5529 13.6822C13.785 14.1397 13.8762 14.6559 13.815 15.1653V15.1653C13.7382 15.7945 13.4342 16.3739 12.9602 16.7947C12.4862 17.2155 11.8748 17.4486 11.241 17.4503ZM11.241 13.7613C10.9612 13.7604 10.6918 13.8667 10.488 14.0584C10.2842 14.25 10.1616 14.5125 10.1453 14.7917C10.1291 15.071 10.2204 15.3458 10.4006 15.5598C10.5807 15.7739 10.836 15.9107 11.114 15.9423C11.4015 15.9751 11.6904 15.8933 11.9181 15.7145C12.1457 15.5357 12.2937 15.2745 12.33 14.9873V14.9873C12.3647 14.6995 12.2837 14.4096 12.1048 14.1814C11.9259 13.9532 11.6638 13.8053 11.376 13.7703C11.3299 13.7632 11.2835 13.7592 11.237 13.7583L11.241 13.7613Z" fill="black"/>
<path d="M13.0687 15.8197C13.0383 15.8196 13.0079 15.8176 12.9777 15.8137C12.7803 15.7899 12.6004 15.6887 12.4775 15.5323C12.3547 15.3759 12.299 15.1772 12.3227 14.9797L12.9847 9.48471C13.006 9.31045 13.0876 9.14914 13.2156 9.0289C13.3435 8.90867 13.5095 8.83711 13.6847 8.82669C13.8599 8.81226 14.0345 8.86128 14.1766 8.96482C14.3187 9.06835 14.4188 9.21952 14.4587 9.39072C14.5377 9.65706 14.6764 9.90182 14.8642 10.1065C15.0521 10.3111 15.2841 10.4703 15.5427 10.5717C15.6391 10.6003 15.7287 10.6479 15.8063 10.7118C15.8839 10.7757 15.9478 10.8546 15.9943 10.9437C16.0408 11.0328 16.0689 11.1303 16.077 11.2305C16.0851 11.3307 16.0729 11.4314 16.0413 11.5268C16.0096 11.6222 15.9592 11.7103 15.8928 11.7858C15.8265 11.8613 15.7456 11.9227 15.6551 11.9663C15.5646 12.01 15.4662 12.035 15.3658 12.0398C15.2654 12.0447 15.1651 12.0293 15.0707 11.9947C14.7756 11.8978 14.4975 11.7551 14.2467 11.5717L13.8137 15.1597C13.7919 15.3419 13.704 15.5097 13.5667 15.6313C13.4294 15.753 13.2522 15.82 13.0687 15.8197Z" fill="black"/>
</svg>