<svg width="25" height="24" viewBox="0 0 25 24" fill="none" xmlns="http://www.w3.org/2000/svg">
<path fill-rule="evenodd" clip-rule="evenodd" d="M19.0965 15.3223C18.3218 15.3223 17.6934 15.9507 17.6934 16.7254C17.6934 17.5001 18.3218 18.1285 19.0965 18.1285C19.8712 18.1285 20.4996 17.5001 20.4996 16.7254C20.4996 15.9507 19.8712 15.3223 19.0965 15.3223ZM16.1934 16.7254C16.1934 15.1222 17.4933 13.8223 19.0965 13.8223C20.6996 13.8223 21.9996 15.1222 21.9996 16.7254C21.9996 18.3285 20.6996 19.6285 19.0965 19.6285C17.4933 19.6285 16.1934 18.3285 16.1934 16.7254Z" fill="black"/>
<path fill-rule="evenodd" clip-rule="evenodd" d="M10.741 16.8574C9.96629 16.8574 9.33789 17.4858 9.33789 18.2605C9.33789 19.0353 9.96629 19.6637 10.741 19.6637C11.5157 19.6637 12.1441 19.0353 12.1441 18.2605C12.1441 17.4858 11.5157 16.8574 10.741 16.8574ZM7.83789 18.2605C7.83789 16.6574 9.13786 15.3574 10.741 15.3574C12.3442 15.3574 13.6441 16.6574 13.6441 18.2605C13.6441 19.8637 12.3442 21.1637 10.741 21.1637C9.13786 21.1637 7.83789 19.8637 7.83789 18.2605Z" fill="black"/>
<path fill-rule="evenodd" clip-rule="evenodd" d="M5.41674 9.00195C4.63467 9.00195 4 9.63672 4 10.4197C4 11.2022 4.63424 11.8364 5.41674 11.8364C6.19924 11.8364 6.83348 11.2022 6.83348 10.4197C6.83348 9.63672 6.1988 9.00195 5.41674 9.00195ZM2.5 10.4197C2.5 8.80917 3.80537 7.50195 5.41674 7.50195C7.02811 7.50195 8.33348 8.80917 8.33348 10.4197C8.33348 12.0306 7.02767 13.3364 5.41674 13.3364C3.80581 13.3364 2.5 12.0306 2.5 10.4197Z" fill="black"/>
<path fill-rule="evenodd" clip-rule="evenodd" d="M8.28232 3.31247C8.28253 3.31298 8.28289 3.31385 8.28339 3.31506C8.28533 3.31971 8.28941 3.32934 8.29572 3.34331C8.30837 3.37133 8.32974 3.41629 8.36041 3.4733C8.42225 3.58827 8.51894 3.74665 8.65408 3.91234C8.92582 4.2455 9.32547 4.57683 9.89062 4.69189C10.2965 4.77452 10.5586 5.17055 10.4759 5.57644C10.3933 5.98232 9.99726 6.24437 9.59137 6.16174C9.09503 6.06069 8.67842 5.86636 8.33398 5.63453V10.3372C8.33398 10.7515 7.9982 11.0872 7.58398 11.0872C7.16977 11.0872 6.83398 10.7515 6.83398 10.3372V3.58601C6.83398 3.22459 7.09175 2.91457 7.4471 2.84861C7.8009 2.78293 8.15125 2.97779 8.28231 3.31245C8.28217 3.31208 8.28209 3.3119 8.28209 3.3119L8.28211 3.31194L8.28267 3.31335L8.28324 3.31483L8.2836 3.31577" fill="black"/>
<path fill-rule="evenodd" clip-rule="evenodd" d="M21.6529 5.86971C21.8688 6.00748 21.9994 6.2459 21.9994 6.50202L21.9986 16.7256C21.9985 17.1398 21.6627 17.4756 21.2485 17.4755C20.8343 17.4755 20.4985 17.1397 20.4986 16.7255L20.4993 7.63767C18.2438 8.51853 15.9343 8.90222 13.6428 8.83025L13.6426 18.261C13.6426 18.6752 13.3068 19.011 12.8926 19.011C12.4783 19.0109 12.1426 18.6752 12.1426 18.2609L12.1428 8.03821C12.1428 7.82914 12.2301 7.62957 12.3836 7.48762C12.5371 7.34566 12.7429 7.27422 12.9513 7.29051C15.6111 7.49839 18.3134 7.03911 20.9334 5.82179C21.1657 5.71387 21.437 5.73194 21.6529 5.86971Z" fill="black"/>
<path fill-rule="evenodd" clip-rule="evenodd" d="M21.9293 9.8363C22.1039 10.2119 21.941 10.658 21.5654 10.8326C18.7115 12.1596 15.7512 12.6655 12.8339 12.4365C12.421 12.4041 12.1125 12.043 12.1449 11.6301C12.1773 11.2172 12.5384 10.9087 12.9513 10.9411C15.611 11.1499 18.3131 10.6907 20.933 9.47245C21.3086 9.2978 21.7546 9.4607 21.9293 9.8363Z" fill="black"/>
</svg>