<svg width="25" height="24" viewBox="0 0 25 24" fill="none" xmlns="http://www.w3.org/2000/svg">
<path d="M16.9429 16.7264C16.9429 17.9153 17.9071 18.8795 19.096 18.8795C20.2849 18.8795 21.2491 17.9153 21.2491 16.7264C21.2491 15.5374 20.2849 14.5732 19.096 14.5732C18.8094 14.5732 18.5359 14.6293 18.2858 14.7309" stroke="black" stroke-width="1.5" stroke-linecap="round" stroke-linejoin="round"/>
<path d="M9.51912 16.4877C9.8663 16.2479 10.2873 16.1074 10.7411 16.1074C11.93 16.1074 12.8942 17.0716 12.8942 18.2605C12.8942 19.4495 11.93 20.4137 10.7411 20.4137C9.83124 20.4137 9.053 19.849 8.73779 19.051" stroke="black" stroke-width="1.5" stroke-linecap="round" stroke-linejoin="round"/>
<path d="M3.25 10.4197C3.25 11.6164 4.22002 12.5864 5.41674 12.5864C6.61345 12.5864 7.58348 11.6164 7.58348 10.4197C7.58348 9.22295 6.61345 8.25195 5.41674 8.25195C5.0838 8.25195 4.76841 8.32711 4.48657 8.46137" stroke="black" stroke-width="1.5" stroke-linecap="round" stroke-linejoin="round"/>
<path d="M7.58398 10.3372V3.58594C7.58398 3.58594 8.16872 5.10664 9.74099 5.42674" stroke="black" stroke-width="1.5" stroke-linecap="round" stroke-linejoin="round"/>
<path d="M12.8926 18.261L12.8928 8.03823C15.6813 8.25616 18.5125 7.77359 21.2494 6.50195L21.2486 16.7255" stroke="black" stroke-width="1.5" stroke-linecap="round" stroke-linejoin="round"/>
<path d="M12.8926 11.6886C14.7049 11.8309 16.5353 11.6768 18.3462 11.2021" stroke="black" stroke-width="1.5" stroke-linecap="round" stroke-linejoin="round"/>
</svg>