<svg width="24" height="24" viewBox="0 0 24 24" fill="none" xmlns="http://www.w3.org/2000/svg">
<path fill-rule="evenodd" clip-rule="evenodd" d="M3 6.71484C2.586 6.71484 2.25 7.05084 2.25 7.46484V16.5328C2.25 16.9468 2.586 17.2828 3 17.2828C3.414 17.2828 3.75 16.9468 3.75 16.5328V7.46484C3.75 7.05084 3.414 6.71484 3 6.71484Z" fill="black"/>
<path fill-rule="evenodd" clip-rule="evenodd" d="M21 6.71484C20.586 6.71484 20.25 7.05084 20.25 7.46484V16.5328C20.25 16.9468 20.586 17.2828 21 17.2828C21.414 17.2828 21.75 16.9468 21.75 16.5328V7.46484C21.75 7.05084 21.414 6.71484 21 6.71484Z" fill="black"/>
<path fill-rule="evenodd" clip-rule="evenodd" d="M12.3999 13.723C12.3969 13.187 11.9609 12.752 11.4249 12.752C10.8869 12.752 10.4489 13.19 10.4489 13.728C10.4489 14.266 10.8869 14.704 11.4249 14.704C11.9619 14.704 12.3999 14.267 12.4009 13.73C12.4009 13.729 12.3999 13.728 12.3999 13.727V13.723Z" fill="black"/>
<path fill-rule="evenodd" clip-rule="evenodd" d="M15.5405 10.108C15.4575 10.514 15.0605 10.774 14.6555 10.693C14.3735 10.635 14.1225 10.541 13.9005 10.424L13.8995 13.718C13.8995 13.722 13.9005 13.725 13.9005 13.728C13.9005 15.093 12.7905 16.204 11.4245 16.204C10.0595 16.204 8.94851 15.093 8.94851 13.728C8.94851 12.363 10.0595 11.252 11.4245 11.252C11.7715 11.252 12.1005 11.325 12.4005 11.454V8.54502C12.4005 8.18302 12.6585 7.87302 13.0145 7.80802C13.3675 7.74002 13.7215 7.93902 13.8515 8.27602C13.8615 8.30202 14.1805 9.06502 14.9555 9.22302C15.3615 9.30602 15.6235 9.70202 15.5405 10.108ZM14.9455 3.49902H9.00551C7.01951 3.49902 5.40451 5.11402 5.40451 7.09902V16.9C5.40451 18.886 7.01951 20.501 9.00551 20.501H14.9455C16.9305 20.501 18.5455 18.886 18.5455 16.9V7.09902C18.5455 5.11402 16.9305 3.49902 14.9455 3.49902Z" fill="black"/>
</svg>