<svg width="25" height="24" viewBox="0 0 25 24" fill="none" xmlns="http://www.w3.org/2000/svg">
<path d="M3.56982 10.4478H12.7128C13.2648 10.4478 13.7128 9.99975 13.7128 9.44775C13.7128 8.89575 13.2648 8.44775 12.7128 8.44775H3.56982C3.01782 8.44775 2.56982 8.89575 2.56982 9.44775C2.56982 9.99975 3.01782 10.4478 3.56982 10.4478Z" fill="black"/>
<path d="M7.21382 19.9795H3.56982C3.01782 19.9795 2.56982 19.5315 2.56982 18.9795C2.56982 18.4275 3.01782 17.9795 3.56982 17.9795H7.21382C7.76582 17.9795 8.21382 18.4275 8.21382 18.9795C8.21382 19.5315 7.76582 19.9795 7.21382 19.9795Z" fill="black"/>
<path d="M16.5609 20.3182C14.9489 20.3182 13.6369 19.0062 13.6369 17.3932C13.6369 15.7822 14.9489 14.4702 16.5609 14.4702C16.8849 14.4702 17.1967 14.5232 17.4882 14.621V10.1536C17.4882 9.67162 17.8322 9.25762 18.3062 9.16962C18.7792 9.08362 19.2482 9.34462 19.4222 9.79462C19.4382 9.83562 19.9152 10.9826 21.0852 11.2206C21.6262 11.3306 21.9762 11.8576 21.8662 12.3996C21.7572 12.9396 21.2312 13.2896 20.6872 13.1806C20.2312 13.0876 19.8332 12.9276 19.4882 12.7296V17.2086C19.4882 17.2437 19.4863 17.2784 19.4828 17.3126C19.4835 17.3394 19.4839 17.3663 19.4839 17.3932C19.4839 19.0062 18.1729 20.3182 16.5609 20.3182Z" fill="black"/>
<g opacity="0.4">
<path d="M21.5702 5.68164H3.57019C3.01819 5.68164 2.57019 5.23364 2.57019 4.68164C2.57019 4.12964 3.01819 3.68164 3.57019 3.68164H21.5702C22.1222 3.68164 22.5702 4.12964 22.5702 4.68164C22.5702 5.23364 22.1222 5.68164 21.5702 5.68164Z" fill="black"/>
<path d="M9.83882 15.2139H3.56982C3.01782 15.2139 2.56982 14.7659 2.56982 14.2139C2.56982 13.6619 3.01782 13.2139 3.56982 13.2139H9.83882C10.3908 13.2139 10.8388 13.6619 10.8388 14.2139C10.8388 14.7659 10.3908 15.2139 9.83882 15.2139Z" fill="black"/>
</g>
</svg>