<svg width="25" height="24" viewBox="0 0 25 24" fill="none" xmlns="http://www.w3.org/2000/svg">
<path opacity="0.4" fill-rule="evenodd" clip-rule="evenodd" d="M19.3189 13.4274C19.9712 13.4274 20.587 13.5642 21.1552 13.7965C21.3277 13.867 21.5285 13.7786 21.5737 13.5978C21.7568 12.8665 21.8589 12.1029 21.8589 11.3154C21.8589 6.07643 17.5969 1.81543 12.3589 1.81543C7.12089 1.81543 2.85889 6.07643 2.85889 11.3154C2.85889 16.5534 7.12089 20.8154 12.3589 20.8154C13.0909 20.8154 13.8009 20.7248 14.4852 20.5647C14.6665 20.5223 14.7583 20.3232 14.691 20.1496C14.4789 19.6023 14.3559 19.0122 14.3559 18.3904C14.3559 15.6494 16.5779 13.4274 19.3189 13.4274Z" fill="black"/>
<path fill-rule="evenodd" clip-rule="evenodd" d="M22.0625 17.5089L19.8935 15.3309C19.6115 15.0489 19.1115 15.0489 18.8305 15.3309L16.6615 17.5089C16.3685 17.8019 16.3695 18.2779 16.6635 18.5699C16.9575 18.8629 17.4315 18.8609 17.7235 18.5679L18.6125 17.6759V21.4349C18.6125 21.8489 18.9485 22.1849 19.3625 22.1849C19.7765 22.1849 20.1125 21.8489 20.1125 21.4349V17.6759L21.0005 18.5679C21.1465 18.7149 21.3385 18.7879 21.5315 18.7879C21.7225 18.7879 21.9145 18.7159 22.0605 18.5699C22.3545 18.2779 22.3545 17.8019 22.0625 17.5089Z" fill="black"/>
<path fill-rule="evenodd" clip-rule="evenodd" d="M15.625 8.92167C15.494 9.31467 15.069 9.52667 14.677 9.39767C14.257 9.25867 13.909 9.05267 13.623 8.81767L13.108 13.0927C13.107 13.0967 13.105 13.0997 13.105 13.1037C13.011 13.8557 12.632 14.5277 12.036 14.9957C11.529 15.3937 10.916 15.6047 10.281 15.6047C10.166 15.6047 10.05 15.5977 9.93396 15.5837C9.17696 15.4927 8.50096 15.1127 8.03096 14.5137C7.56096 13.9137 7.35196 13.1667 7.44296 12.4107C7.62996 10.8497 9.05296 9.73167 10.616 9.91967C11.105 9.97867 11.542 10.1697 11.917 10.4367L12.374 6.64767C12.417 6.28867 12.71 6.01167 13.071 5.98867C13.414 5.97167 13.757 6.20267 13.845 6.55367C13.8582 6.60075 14.1521 7.64403 15.149 7.97367C15.542 8.10467 15.755 8.52867 15.625 8.92167ZM10.2746 11.3992C10.3286 11.3992 10.3826 11.4032 10.4366 11.4092C11.1776 11.4982 11.7076 12.1732 11.6176 12.9132C11.5746 13.2722 11.3946 13.5932 11.1096 13.8162C10.8266 14.0392 10.4716 14.1392 10.1126 14.0952C9.75357 14.0522 9.43357 13.8712 9.21057 13.5872C8.98757 13.3032 8.88857 12.9492 8.93257 12.5902C9.01457 11.9042 9.60057 11.3992 10.2746 11.3992Z" fill="black"/>
</svg>