<svg width="24" height="24" viewBox="0 0 24 24" fill="none" xmlns="http://www.w3.org/2000/svg">
<path d="M12.0002 21.8822C11.4482 21.8822 11.0002 21.4342 11.0002 20.8822V3.11816C11.0002 2.56616 11.4482 2.11816 12.0002 2.11816C12.5522 2.11816 13.0002 2.56616 13.0002 3.11816V20.8822C13.0002 21.4342 12.5522 21.8822 12.0002 21.8822Z" fill="black"/>
<path d="M7.51587 18.6954C6.96387 18.6954 6.51587 18.2474 6.51587 17.6954V6.44336C6.51587 5.89136 6.96387 5.44336 7.51587 5.44336C8.06787 5.44336 8.51587 5.89136 8.51587 6.44336V17.6954C8.51587 18.2474 8.06787 18.6954 7.51587 18.6954Z" fill="black"/>
<path d="M15.4823 17.5557C15.4823 18.1077 15.9303 18.5557 16.4823 18.5557C17.0343 18.5557 17.4823 18.1077 17.4823 17.5557V6.30371C17.4823 5.75071 17.0343 5.30371 16.4823 5.30371C15.9303 5.30371 15.4823 5.75071 15.4823 6.30371V17.5557Z" fill="black"/>
<path d="M20.967 14.9634C20.415 14.9634 19.967 14.5154 19.967 13.9634V9.75244C19.967 9.20044 20.415 8.75244 20.967 8.75244C21.519 8.75244 21.967 9.20044 21.967 9.75244V13.9634C21.967 14.5154 21.519 14.9634 20.967 14.9634Z" fill="black"/>
<path d="M2.03296 14.2476C2.03296 14.7996 2.48096 15.2476 3.03296 15.2476C3.58496 15.2476 4.03296 14.7996 4.03296 14.2476V10.0356C4.03296 9.48364 3.58496 9.03564 3.03296 9.03564C2.48096 9.03564 2.03296 9.48364 2.03296 10.0356V14.2476Z" fill="black"/>
</svg>