<svg width="24" height="24" viewBox="0 0 24 24" fill="none" xmlns="http://www.w3.org/2000/svg">
<path fill-rule="evenodd" clip-rule="evenodd" d="M8.1504 20.2498H6.8944C5.1614 20.2498 3.7514 18.8398 3.7514 17.1068V15.5298C3.7514 15.1158 3.4154 14.7798 3.0014 14.7798C2.5874 14.7798 2.2514 15.1158 2.2514 15.5298V17.1068C2.2514 19.6668 4.3344 21.7498 6.8944 21.7498H8.1504C8.5644 21.7498 8.9004 21.4138 8.9004 20.9998C8.9004 20.5858 8.5644 20.2498 8.1504 20.2498Z" fill="black"/>
<path fill-rule="evenodd" clip-rule="evenodd" d="M7.94531 9.37451C7.39331 9.37451 6.94531 9.82251 6.94531 10.3745V13.6245C6.94531 14.1765 7.39331 14.6245 7.94531 14.6245C8.49731 14.6245 8.94531 14.1765 8.94531 13.6245V10.3745C8.94531 9.82251 8.49731 9.37451 7.94531 9.37451Z" fill="black"/>
<path fill-rule="evenodd" clip-rule="evenodd" d="M16.0552 14.6245C16.6072 14.6245 17.0552 14.1765 17.0552 13.6245V10.3745C17.0552 9.82251 16.6072 9.37451 16.0552 9.37451C15.5032 9.37451 15.0552 9.82251 15.0552 10.3745V13.6245C15.0552 14.1765 15.5032 14.6245 16.0552 14.6245Z" fill="black"/>
<path fill-rule="evenodd" clip-rule="evenodd" d="M12.0005 6.40771C11.4485 6.40771 11.0005 6.85571 11.0005 7.40771V16.5907C11.0005 17.1427 11.4485 17.5907 12.0005 17.5907C12.5525 17.5907 13.0005 17.1427 13.0005 16.5907V7.40771C13.0005 6.85571 12.5525 6.40771 12.0005 6.40771Z" fill="black"/>
<path fill-rule="evenodd" clip-rule="evenodd" d="M3.00049 9.21951C3.41449 9.21951 3.75049 8.88351 3.75049 8.46951V6.89251C3.75049 5.15951 5.16049 3.74951 6.89349 3.74951H8.18249C8.59649 3.74951 8.93249 3.41351 8.93249 2.99951C8.93249 2.58551 8.59649 2.24951 8.18249 2.24951H6.89349C4.33349 2.24951 2.25049 4.33251 2.25049 6.89251V8.46951C2.25049 8.88351 2.58649 9.21951 3.00049 9.21951Z" fill="black"/>
<path fill-rule="evenodd" clip-rule="evenodd" d="M20.9981 14.7803C20.5841 14.7803 20.2481 15.1163 20.2481 15.5303V17.1073C20.2481 18.8403 18.8381 20.2503 17.1051 20.2503H15.8161C15.4021 20.2503 15.0661 20.5863 15.0661 21.0003C15.0661 21.4143 15.4021 21.7503 15.8161 21.7503H17.1051C19.6651 21.7503 21.7481 19.6673 21.7481 17.1073V15.5303C21.7481 15.1163 21.4121 14.7803 20.9981 14.7803Z" fill="black"/>
<path fill-rule="evenodd" clip-rule="evenodd" d="M17.1065 2.24951H15.8505C15.4365 2.24951 15.1005 2.58551 15.1005 2.99951C15.1005 3.41351 15.4365 3.74951 15.8505 3.74951H17.1065C18.8395 3.74951 20.2495 5.15951 20.2495 6.89251V8.46951C20.2495 8.88351 20.5855 9.21951 20.9995 9.21951C21.4135 9.21951 21.7495 8.88351 21.7495 8.46951V6.89251C21.7495 4.33251 19.6665 2.24951 17.1065 2.24951Z" fill="black"/>
</svg>