<svg width="24" height="24" viewBox="0 0 24 24" fill="none" xmlns="http://www.w3.org/2000/svg">
<path fill-rule="evenodd" clip-rule="evenodd" d="M20.9996 16.7254C20.9996 17.9143 20.0354 18.8785 18.8465 18.8785C17.6575 18.8785 16.6934 17.9143 16.6934 16.7254C16.6934 15.5364 17.6575 14.5723 18.8465 14.5723C20.0354 14.5723 20.9996 15.5364 20.9996 16.7254Z" stroke="black" stroke-width="1.5" stroke-linecap="round" stroke-linejoin="round"/>
<path fill-rule="evenodd" clip-rule="evenodd" d="M12.6441 18.2605C12.6441 19.4495 11.6799 20.4137 10.491 20.4137C9.30207 20.4137 8.33789 19.4495 8.33789 18.2605C8.33789 17.0716 9.30207 16.1074 10.491 16.1074C11.6799 16.1074 12.6441 17.0716 12.6441 18.2605Z" stroke="black" stroke-width="1.5" stroke-linecap="round" stroke-linejoin="round"/>
<path fill-rule="evenodd" clip-rule="evenodd" d="M7.33348 10.4197C7.33348 11.6164 6.36345 12.5864 5.16674 12.5864C3.97002 12.5864 3 11.6164 3 10.4197C3 9.22295 3.97002 8.25195 5.16674 8.25195C6.36345 8.25195 7.33348 9.22295 7.33348 10.4197Z" stroke="black" stroke-width="1.5" stroke-linecap="round" stroke-linejoin="round"/>
<path d="M7.33398 10.3372V3.58594C7.33398 3.58594 7.91872 5.10664 9.49099 5.42674" stroke="black" stroke-width="1.5" stroke-linecap="round" stroke-linejoin="round"/>
<path d="M20.9986 16.7255L20.9994 6.50195C18.2625 7.77359 15.4313 8.25616 12.6428 8.03823L12.6426 18.261" stroke="black" stroke-width="1.5" stroke-linecap="round" stroke-linejoin="round"/>
<path d="M12.6426 11.6886C15.431 11.9075 18.2623 11.4249 20.9992 10.1523" stroke="black" stroke-width="1.5" stroke-linecap="round" stroke-linejoin="round"/>
</svg>