<svg width="25" height="24" viewBox="0 0 25 24" fill="none" xmlns="http://www.w3.org/2000/svg">
<path opacity="0.4" fill-rule="evenodd" clip-rule="evenodd" d="M16.7871 2.5H8.35207C5.19307 2.5 3.07007 4.721 3.07007 8.027V15.974C3.07007 19.279 5.19307 21.5 8.35207 21.5H16.7861C19.9471 21.5 22.0701 19.279 22.0701 15.974V8.027C22.0701 4.721 19.9471 2.5 16.7871 2.5Z" fill="black"/>
<path fill-rule="evenodd" clip-rule="evenodd" d="M16.743 10.0701C16.612 10.4631 16.189 10.6751 15.795 10.5461C15.352 10.3991 14.988 10.1791 14.69 9.93009L14.157 14.3571C14.156 14.3611 14.154 14.3631 14.154 14.3661C13.972 15.8361 12.715 16.9191 11.268 16.9191C11.152 16.9191 11.036 16.9121 10.919 16.8981C10.147 16.8051 9.45797 16.4181 8.97797 15.8061C8.49897 15.1951 8.28497 14.4331 8.37797 13.6621C8.47197 12.8901 8.85897 12.2001 9.47097 11.7211C10.082 11.2411 10.844 11.0291 11.615 11.1211C12.115 11.1811 12.574 11.3771 12.97 11.6661L13.443 7.74209C13.487 7.38309 13.78 7.10709 14.14 7.08409C14.483 7.06509 14.827 7.29909 14.915 7.64909C14.926 7.69009 15.229 8.77708 16.267 9.12208C16.66 9.25208 16.873 9.67708 16.743 10.0701ZM11.2629 12.6002C11.3199 12.6002 11.3769 12.6032 11.4349 12.6102C11.8089 12.6552 12.1429 12.8432 12.3759 13.1392C12.6079 13.4362 12.7119 13.8042 12.6659 14.1782C12.5729 14.9492 11.8599 15.4982 11.0979 15.4092C10.3269 15.3162 9.77491 14.6132 9.86791 13.8412C9.91291 13.4672 10.1009 13.1332 10.3969 12.9012C10.6469 12.7042 10.9499 12.6002 11.2629 12.6002Z" fill="black"/>
</svg>