<svg width="24" height="24" viewBox="0 0 24 24" fill="none" xmlns="http://www.w3.org/2000/svg">
<path fill-rule="evenodd" clip-rule="evenodd" d="M10.0781 12.0193C10.0231 12.0133 9.96906 12.0093 9.91606 12.0093C9.24206 12.0093 8.65606 12.5153 8.57306 13.2003C8.53006 13.5593 8.62906 13.9133 8.85206 14.1973C9.07506 14.4813 9.39506 14.6623 9.75406 14.7053C10.1161 14.7493 10.4671 14.6493 10.7511 14.4263C11.0351 14.2033 11.2161 13.8823 11.2591 13.5243C11.3021 13.1663 11.2031 12.8113 10.9801 12.5263C10.7571 12.2433 10.4361 12.0623 10.0781 12.0193Z" fill="black"/>
<path fill-rule="evenodd" clip-rule="evenodd" d="M12.749 13.7028C12.749 13.7058 12.747 13.7088 12.746 13.7118C12.653 14.4648 12.274 15.1378 11.677 15.6058C11.17 16.0038 10.557 16.2148 9.922 16.2148C9.807 16.2148 9.691 16.2078 9.575 16.1938C8.819 16.1028 8.143 15.7238 7.672 15.1238C7.202 14.5238 6.993 13.7768 7.084 13.0208C7.272 11.4598 8.697 10.3418 10.257 10.5298C10.736 10.5878 11.176 10.7728 11.559 11.0448L12.015 7.25678C12.059 6.89778 12.352 6.62078 12.712 6.59878C13.075 6.57778 13.399 6.81278 13.487 7.16378C13.498 7.20278 13.79 8.25178 14.791 8.58378C15.184 8.71478 15.397 9.13978 15.267 9.53278C15.136 9.92478 14.712 10.1368 14.318 10.0078C13.898 9.86878 13.551 9.66278 13.264 9.42778L12.749 13.7028ZM13.998 18.9998C13.998 16.2598 16.22 14.0378 18.96 14.0378C19.6124 14.0378 20.2283 14.1745 20.7966 14.407C20.969 14.4775 21.1697 14.3891 21.215 14.2085C21.3986 13.4765 21.5 12.7135 21.5 11.9258C21.5 6.68678 17.238 2.42578 12 2.42578C6.762 2.42578 2.5 6.68678 2.5 11.9258C2.5 17.1638 6.762 21.4258 12 21.4258C12.732 21.4258 13.4428 21.3351 14.1267 21.175C14.3079 21.1326 14.3996 20.9337 14.3325 20.7602C14.121 20.2132 13.998 19.6224 13.998 18.9998Z" fill="black"/>
<path fill-rule="evenodd" clip-rule="evenodd" d="M18.5995 21.5739C18.1855 21.5739 17.8495 21.2389 17.8495 20.8239V19.4439H16.4695C16.0555 19.4439 15.7195 19.1079 15.7195 18.6939C15.7195 18.2799 16.0555 17.9439 16.4695 17.9439H17.8495L17.8485 16.5659C17.8485 16.1519 18.1835 15.8159 18.5985 15.8159C19.0125 15.8159 19.3485 16.1519 19.3485 16.5659L19.3495 17.9439H20.7275C21.1415 17.9439 21.4775 18.2799 21.4775 18.6939C21.4775 19.1079 21.1415 19.4439 20.7275 19.4439H19.3495V20.8239C19.3495 21.2379 19.0145 21.5739 18.5995 21.5739Z" fill="black"/>
</svg>