<svg width="24" height="24" viewBox="0 0 24 24" fill="none" xmlns="http://www.w3.org/2000/svg">
<path fill-rule="evenodd" clip-rule="evenodd" d="M10.079 12.094C10.024 12.088 9.97004 12.084 9.91704 12.084C9.24204 12.084 8.65604 12.59 8.57404 13.275C8.53104 13.634 8.63004 13.988 8.85204 14.272C9.07604 14.556 9.39604 14.737 9.75404 14.78C10.497 14.869 11.17 14.339 11.26 13.599C11.349 12.858 10.819 12.183 10.079 12.094Z" fill="black"/>
<path fill-rule="evenodd" clip-rule="evenodd" d="M15.267 9.607C15.137 9.999 14.714 10.211 14.319 10.083C13.899 9.943 13.551 9.737 13.265 9.503L12.75 13.777C12.75 13.781 12.747 13.783 12.747 13.786C12.568 15.228 11.337 16.289 9.919 16.289C9.805 16.289 9.691 16.282 9.575 16.269C8.819 16.178 8.143 15.798 7.673 15.198C7.203 14.599 6.994 13.852 7.084 13.096C7.272 11.535 8.694 10.421 10.258 10.605C10.746 10.663 11.184 10.854 11.559 11.121L12.016 7.332C12.059 6.973 12.352 6.696 12.713 6.673C13.059 6.653 13.399 6.888 13.487 7.238C13.498 7.277 13.79 8.327 14.791 8.659C15.184 8.789 15.397 9.214 15.267 9.607ZM12 2.5C6.762 2.5 2.5 6.762 2.5 12C2.5 17.238 6.762 21.5 12 21.5C12.7328 21.5 13.4428 21.4093 14.1271 21.2493C14.3085 21.2069 14.4003 21.0077 14.3329 20.834C14.1209 20.2872 13.998 19.6966 13.998 19.075C13.998 16.334 16.22 14.112 18.961 14.112C19.6134 14.112 20.2293 14.2495 20.7976 14.4815C20.97 14.5519 21.1705 14.4634 21.2157 14.2828C21.3986 13.5513 21.5 12.7876 21.5 12C21.5 6.762 17.239 2.5 12 2.5Z" fill="black"/>
<path fill-rule="evenodd" clip-rule="evenodd" d="M19.6605 18.7685L20.8045 17.6245C21.0975 17.3315 21.0975 16.8565 20.8045 16.5635C20.5115 16.2705 20.0365 16.2705 19.7435 16.5635L18.5995 17.7075L17.4555 16.5645C17.1625 16.2715 16.6875 16.2715 16.3945 16.5645C16.1015 16.8575 16.1015 17.3325 16.3945 17.6245L17.5385 18.7685L16.3935 19.9135C16.1005 20.2055 16.1005 20.6805 16.3935 20.9735C16.6865 21.2665 17.1615 21.2665 17.4545 20.9735L18.5995 19.8295L19.7445 20.9745C19.8915 21.1205 20.0835 21.1935 20.2755 21.1935C20.4675 21.1935 20.6595 21.1205 20.8055 20.9745C21.0985 20.6815 21.0985 20.2055 20.8055 19.9135L19.6605 18.7685Z" fill="black"/>
</svg>