<svg width="24" height="24" viewBox="0 0 24 24" fill="none" xmlns="http://www.w3.org/2000/svg">
<path d="M14.9452 20.0005H9.00516C7.29273 20.0005 5.9043 18.6121 5.9043 16.8997V7.09891C5.9043 5.38648 7.29273 3.99805 9.00516 3.99805H14.9452C16.6576 3.99805 18.046 5.38648 18.046 7.09891V16.8997C18.046 18.6121 16.6576 20.0005 14.9452 20.0005Z" stroke="black" stroke-width="1.5" stroke-linecap="round" stroke-linejoin="round"/>
<path fill-rule="evenodd" clip-rule="evenodd" d="M13.1513 13.728C13.1513 14.6805 12.3788 15.4541 11.4253 15.4541C10.4718 15.4541 9.69922 14.6805 9.69922 13.728C9.69922 12.7745 10.4718 12.002 11.4253 12.002C12.3788 12.002 13.1513 12.7745 13.1513 13.728Z" stroke="black" stroke-width="1.5" stroke-linecap="round" stroke-linejoin="round"/>
<path d="M3 7.46484V16.533" stroke="black" stroke-width="1.5" stroke-linecap="round" stroke-linejoin="round"/>
<path d="M21 7.46484V16.533" stroke="black" stroke-width="1.5" stroke-linecap="round" stroke-linejoin="round"/>
<path d="M13.1504 13.727L13.1507 8.54492C13.1507 8.54492 13.5993 9.71249 14.8057 9.95768" stroke="black" stroke-width="1.5" stroke-linecap="round" stroke-linejoin="round"/>
</svg>