<svg width="25" height="24" viewBox="0 0 25 24" fill="none" xmlns="http://www.w3.org/2000/svg">
<path d="M21.25 8.02638C21.25 5.08119 19.415 3 16.4659 3H8.03216C5.08405 3 3.25 5.08119 3.25 8.02638V15.9736C3.25 18.9188 5.09281 21 8.03216 21H16.4669C19.415 21 21.25 18.9188 21.25 15.9736V12" stroke="black" stroke-width="1.5" stroke-linecap="round" stroke-linejoin="round"/>
<path fill-rule="evenodd" clip-rule="evenodd" d="M15.8737 14.0345C15.8737 15.1573 14.9639 16.067 13.8411 16.067C12.7183 16.067 11.8086 15.1573 11.8086 14.0345C11.8086 12.9117 12.7183 12.002 13.8411 12.002C14.9639 12.002 15.8737 12.9117 15.8737 14.0345Z" stroke="black" stroke-width="1.5" stroke-linecap="round" stroke-linejoin="round"/>
<path d="M15.873 14.0352L15.8733 7.93359C15.8733 7.93359 16.4016 9.3084 17.8221 9.5964" stroke="black" stroke-width="1.5" stroke-linecap="round" stroke-linejoin="round"/>
<path d="M8.34961 17.8111V3" stroke="black" stroke-width="1.5" stroke-linecap="round" stroke-linejoin="round"/>
</svg>