<svg width="25" height="25" viewBox="0 0 25 25" fill="none" xmlns="http://www.w3.org/2000/svg">
<path fill-rule="evenodd" clip-rule="evenodd" d="M7.91983 5.95312C8.33404 5.95312 8.66983 6.28891 8.66983 6.70312V16.5288L10.2986 14.9001C10.5915 14.6072 11.0664 14.6072 11.3592 14.9001C11.6521 15.1929 11.6521 15.6678 11.3592 15.9607L8.45016 18.8698C8.15727 19.1627 7.68239 19.1627 7.3895 18.8698L4.48041 15.9607C4.18752 15.6678 4.18752 15.1929 4.48041 14.9001C4.77331 14.6072 5.24818 14.6072 5.54107 14.9001L7.16983 16.5288V6.70312C7.16983 6.28891 7.50562 5.95312 7.91983 5.95312Z" fill="black"/>
<path fill-rule="evenodd" clip-rule="evenodd" d="M15.0449 19.1875C15.0449 18.7733 15.3807 18.4375 15.7949 18.4375H19.3304C19.7446 18.4375 20.0804 18.7733 20.0804 19.1875C20.0804 19.6017 19.7446 19.9375 19.3304 19.9375H15.7949C15.3807 19.9375 15.0449 19.6017 15.0449 19.1875Z" fill="black"/>
<path fill-rule="evenodd" clip-rule="evenodd" d="M17.5612 14.1953C17.8638 14.1953 18.1367 14.3772 18.2533 14.6565L20.6814 20.4756C20.8409 20.8579 20.6603 21.2971 20.2781 21.4566C19.8958 21.6161 19.4566 21.4355 19.2971 21.0533L17.561 16.8926L15.8242 21.0534C15.6646 21.4356 15.2254 21.6161 14.8431 21.4566C14.4609 21.297 14.2803 20.8578 14.4399 20.4755L16.869 14.6564C16.9856 14.3771 17.2586 14.1953 17.5612 14.1953Z" fill="black"/>
<path fill-rule="evenodd" clip-rule="evenodd" d="M14.8701 4.76562C14.8701 4.35141 15.2059 4.01562 15.6201 4.01562H19.4989C19.7755 4.01562 20.0296 4.16786 20.1602 4.41173C20.2907 4.6556 20.2764 4.95151 20.1229 5.18165L17.0215 9.8338H19.4989C19.9131 9.8338 20.2489 10.1696 20.2489 10.5838C20.2489 10.998 19.9131 11.3338 19.4989 11.3338H15.6201C15.3435 11.3338 15.0894 11.1816 14.9589 10.9377C14.8283 10.6938 14.8427 10.3979 14.9961 10.1678L18.0975 5.51562H15.6201C15.2059 5.51562 14.8701 5.17984 14.8701 4.76562Z" fill="black"/>
</svg>