<svg width="25" height="25" viewBox="0 0 25 25" fill="none" xmlns="http://www.w3.org/2000/svg">
<path fill-rule="evenodd" clip-rule="evenodd" d="M7.51321 19.6758C7.92743 19.6758 8.26321 19.34 8.26321 18.9258V6.60827C8.26321 6.30463 8.08013 6.03095 7.79948 5.91506C7.51883 5.79916 7.19599 5.86392 6.98175 6.07908L3.96853 9.10527C3.67627 9.39879 3.67729 9.87366 3.97081 10.1659C4.26433 10.4582 4.7392 10.4572 5.03147 10.1636L6.76321 8.42445V18.9258C6.76321 19.34 7.099 19.6758 7.51321 19.6758Z" fill="black"/>
<path fill-rule="evenodd" clip-rule="evenodd" d="M10.8555 7.71875C10.8555 7.30454 11.1913 6.96875 11.6055 6.96875H13.9752C14.3894 6.96875 14.7252 7.30454 14.7252 7.71875C14.7252 8.13296 14.3894 8.46875 13.9752 8.46875H11.6055C11.1913 8.46875 10.8555 8.13296 10.8555 7.71875ZM10.8555 12.8311C10.8555 12.4169 11.1913 12.0811 11.6055 12.0811H16.6347C17.0489 12.0811 17.3847 12.4169 17.3847 12.8311C17.3847 13.2453 17.0489 13.5811 16.6347 13.5811H11.6055C11.1913 13.5811 10.8555 13.2453 10.8555 12.8311ZM10.8555 17.9443C10.8555 17.5301 11.1913 17.1943 11.6055 17.1943H20.5007C20.9149 17.1943 21.2507 17.5301 21.2507 17.9443C21.2507 18.3586 20.9149 18.6943 20.5007 18.6943H11.6055C11.1913 18.6943 10.8555 18.3586 10.8555 17.9443Z" fill="black"/>
</svg>