<svg width="25" height="25" viewBox="0 0 25 25" fill="none" xmlns="http://www.w3.org/2000/svg">
<path opacity="0.4" d="M5.83398 15.4336L8.50065 18.1003M8.50065 18.1003L11.1673 15.4336M8.50065 18.1003V7.43359" stroke="black" stroke-width="1.5" stroke-linecap="round" stroke-linejoin="round"/>
<path fill-rule="evenodd" clip-rule="evenodd" d="M17.3891 14.543C18.3713 14.543 19.1669 15.3385 19.1669 16.3207V18.9874C19.1669 19.9687 18.3713 20.7652 17.3891 20.7652C16.4069 20.7652 15.6113 19.9687 15.6113 18.9874V16.3207C15.6113 15.3385 16.4069 14.543 17.3891 14.543Z" stroke="black" stroke-width="1.5" stroke-linecap="round" stroke-linejoin="round"/>
<path d="M19.1669 8.32118H17.3891C16.4069 8.32118 15.6113 7.52474 15.6113 6.5434C15.6113 5.56118 16.4069 4.76562 17.3891 4.76562C18.3713 4.76562 19.1669 5.56118 19.1669 6.5434V9.21007C19.1669 10.1914 18.3713 10.9878 17.3891 10.9878H16.1278" stroke="black" stroke-width="1.5" stroke-linecap="round" stroke-linejoin="round"/>
</svg>