<svg width="24" height="24" viewBox="0 0 24 24" fill="none" xmlns="http://www.w3.org/2000/svg">
<path fill-rule="evenodd" clip-rule="evenodd" d="M7.17127 15.8987L5.45427 17.6167L4.70627 16.8687C4.31627 16.4777 3.68327 16.4777 3.29227 16.8687C2.90127 17.2587 2.90127 17.8917 3.29227 18.2827L4.74727 19.7377C4.93527 19.9247 5.18927 20.0307 5.45427 20.0307C5.72027 20.0307 5.97427 19.9247 6.16127 19.7377L8.58527 17.3127C8.97627 16.9217 8.97627 16.2897 8.58527 15.8987C8.19427 15.5077 7.56227 15.5077 7.17127 15.8987Z" fill="black"/>
<path fill-rule="evenodd" clip-rule="evenodd" d="M7.17127 10.0823L5.45427 11.7993L4.70627 11.0523C4.31627 10.6613 3.68327 10.6613 3.29227 11.0523C2.90127 11.4423 2.90127 12.0763 3.29227 12.4663L4.74727 13.9203C4.94227 14.1153 5.19827 14.2133 5.45427 14.2133C5.71027 14.2133 5.96627 14.1153 6.16127 13.9203L8.58527 11.4963C8.97627 11.1053 8.97627 10.4733 8.58527 10.0823C8.19427 9.69131 7.56227 9.69131 7.17127 10.0823Z" fill="black"/>
<path fill-rule="evenodd" clip-rule="evenodd" d="M7.17127 4.262L5.45427 5.979L4.70627 5.231C4.31627 4.84 3.68327 4.84 3.29227 5.231C2.90127 5.621 2.90127 6.254 3.29227 6.645L4.74727 8.1C4.94227 8.295 5.19827 8.393 5.45427 8.393C5.71027 8.393 5.96627 8.295 6.16127 8.1L8.58527 5.676C8.97627 5.285 8.97627 4.653 8.58527 4.262C8.19427 3.871 7.56227 3.871 7.17127 4.262Z" fill="black"/>
<path fill-rule="evenodd" clip-rule="evenodd" d="M20.0005 17.0589H11.2725C10.7205 17.0589 10.2725 17.5059 10.2725 18.0589C10.2725 18.6119 10.7205 19.0589 11.2725 19.0589H20.0005C20.5535 19.0589 21.0005 18.6119 21.0005 18.0589C21.0005 17.5059 20.5535 17.0589 20.0005 17.0589Z" fill="black"/>
<path fill-rule="evenodd" clip-rule="evenodd" d="M20.0005 11.2425H11.2725C10.7205 11.2425 10.2725 11.6895 10.2725 12.2425C10.2725 12.7955 10.7205 13.2425 11.2725 13.2425H20.0005C20.5535 13.2425 21.0005 12.7955 21.0005 12.2425C21.0005 11.6895 20.5535 11.2425 20.0005 11.2425Z" fill="black"/>
<path fill-rule="evenodd" clip-rule="evenodd" d="M11.2729 7.42218H20.0009C20.5529 7.42218 21.0009 6.97518 21.0009 6.42218C21.0009 5.86918 20.5529 5.42218 20.0009 5.42218H11.2729C10.7199 5.42218 10.2729 5.86918 10.2729 6.42218C10.2729 6.97518 10.7199 7.42218 11.2729 7.42218Z" fill="black"/>
</svg>