<svg width="24" height="24" viewBox="0 0 24 24" fill="none" xmlns="http://www.w3.org/2000/svg">
<path fill-rule="evenodd" clip-rule="evenodd" d="M17.6667 16.3293H16.8897C16.4607 16.3293 16.1117 15.9843 16.1117 15.5593C16.1117 15.1223 16.4537 14.7793 16.8897 14.7793C17.3247 14.7793 17.6667 15.1223 17.6667 15.5593V16.3293ZM16.8897 12.7793C15.3577 12.7793 14.1117 14.0263 14.1117 15.5593C14.1117 17.0873 15.3577 18.3293 16.8897 18.3293H17.6587C17.6047 18.7073 17.2807 18.9993 16.8897 18.9993H15.6277C15.0747 18.9993 14.6277 19.4463 14.6277 19.9993C14.6277 20.5523 15.0747 20.9993 15.6277 20.9993H16.8897C18.4207 20.9993 19.6667 19.7523 19.6667 18.2193V15.5593C19.6667 14.0263 18.4207 12.7793 16.8897 12.7793Z" fill="black"/>
<path fill-rule="evenodd" clip-rule="evenodd" d="M17.6667 8.439C17.6667 8.876 17.3247 9.219 16.8897 9.219C16.4537 9.219 16.1117 8.876 16.1117 8.439V5.78C16.1117 5.349 16.4607 5 16.8897 5C17.3177 5 17.6667 5.349 17.6667 5.78V8.439ZM16.8897 3C15.3577 3 14.1117 4.247 14.1117 5.78V8.439C14.1117 9.972 15.3577 11.219 16.8897 11.219C18.4207 11.219 19.6667 9.972 19.6667 8.439V5.78C19.6667 4.247 18.4207 3 16.8897 3Z" fill="black"/>
<path opacity="0.4" fill-rule="evenodd" clip-rule="evenodd" d="M9.96062 13.9619L9.00062 14.9199V6.66992C9.00062 6.11692 8.55362 5.66992 8.00062 5.66992C7.44762 5.66992 7.00062 6.11692 7.00062 6.66992V14.9199L6.03962 13.9619C5.64862 13.5729 5.01662 13.5709 4.62562 13.9639C4.23562 14.3549 4.23562 14.9879 4.62762 15.3779L7.29162 18.0359C7.36162 18.1079 7.44162 18.1649 7.52462 18.2099L7.52762 18.2119L7.53062 18.2129L7.53362 18.2149L7.53562 18.2159L7.53862 18.2179L7.54162 18.2189L7.54362 18.2199L7.54462 18.2209C7.54762 18.2199 7.54762 18.2219 7.54762 18.2219L7.54962 18.2229L7.55062 18.2239L7.55262 18.2249L7.55462 18.2259L7.55662 18.2269H7.55762L7.55962 18.2279L7.56062 18.2289C7.56462 18.2289 7.56362 18.2299 7.56362 18.2299L7.56462 18.2309L7.56662 18.2319L7.56762 18.2329C7.57062 18.2319 7.57062 18.2329 7.57062 18.2329L7.57262 18.2339H7.57362L7.57562 18.2349L7.57662 18.2359L7.57862 18.2369L7.58162 18.2379L7.58462 18.2389L7.58762 18.2409L7.59062 18.2419C7.60162 18.2469 7.61162 18.2519 7.62262 18.2559C7.73862 18.3039 7.86662 18.3299 8.00062 18.3299C8.13762 18.3299 8.26862 18.3029 8.38662 18.2529C8.43662 18.2329 8.48362 18.2069 8.53062 18.1789L8.53262 18.1769L8.53562 18.1749L8.53862 18.1739L8.54062 18.1719L8.54362 18.1699L8.54562 18.1689L8.54662 18.1679L8.54862 18.1669L8.54962 18.1659L8.55162 18.1649L8.55262 18.1639L8.55562 18.1629C8.55662 18.1599 8.55762 18.1609 8.55762 18.1609L8.55862 18.1599L8.56062 18.1589C8.56062 18.1589 8.56262 18.1589 8.56362 18.1569C8.56562 18.1529 8.56562 18.1549 8.56562 18.1549L8.56762 18.1529L8.57062 18.1509L8.57262 18.1499L8.57362 18.1489H8.57562L8.57862 18.1469L8.58062 18.1449C8.62062 18.1159 8.65862 18.0839 8.69462 18.0489L8.69762 18.0469L8.70262 18.0419L8.70462 18.0399L8.70662 18.0379L11.3726 15.3779C11.7646 14.9869 11.7646 14.3549 11.3746 13.9639C10.9836 13.5709 10.3516 13.5729 9.96062 13.9619Z" fill="black"/>
</svg>