<svg width="25" height="24" viewBox="0 0 25 24" fill="none" xmlns="http://www.w3.org/2000/svg">
<path d="M11.208 17.8359H19.9353" stroke="black" stroke-width="1.5" stroke-linecap="round" stroke-linejoin="round"/>
<path d="M11.208 12H19.9353" stroke="black" stroke-width="1.5" stroke-linecap="round" stroke-linejoin="round"/>
<path d="M11.208 6.18359H19.9353" stroke="black" stroke-width="1.5" stroke-linecap="round" stroke-linejoin="round"/>
<path opacity="0.4" d="M6.14909 18.9042C6.74826 18.9042 7.23439 18.4184 7.23439 17.8193C7.23439 17.2201 6.74826 16.7344 6.14909 16.7344C5.54991 16.7344 5.06445 17.2201 5.06445 17.8193C5.06445 18.4184 5.54991 18.9042 6.14909 18.9042Z" stroke="black" stroke-width="1.5" stroke-linecap="round" stroke-linejoin="round"/>
<path opacity="0.4" d="M6.14909 13.0839C6.74826 13.0839 7.23439 12.5981 7.23439 11.999C7.23439 11.3998 6.74826 10.9141 6.14909 10.9141C5.54991 10.9141 5.06445 11.3998 5.06445 11.999C5.06445 12.5981 5.54991 13.0839 6.14909 13.0839Z" stroke="black" stroke-width="1.5" stroke-linecap="round" stroke-linejoin="round"/>
<path opacity="0.4" d="M6.14909 7.26746C6.74826 7.26746 7.23439 6.78173 7.23439 6.18255C7.23439 5.58338 6.74826 5.09766 6.14909 5.09766C5.54991 5.09766 5.06445 5.58338 5.06445 6.18255C5.06445 6.78173 5.54991 7.26746 6.14909 7.26746Z" stroke="black" stroke-width="1.5" stroke-linecap="round" stroke-linejoin="round"/>
</svg>