<svg width="25" height="25" viewBox="0 0 25 25" fill="none" xmlns="http://www.w3.org/2000/svg">
<path fill-rule="evenodd" clip-rule="evenodd" d="M7.51321 5.85547C7.92743 5.85547 8.26321 6.19126 8.26321 6.60547V18.923C8.26321 19.2266 8.08013 19.5003 7.79948 19.6162C7.51883 19.7321 7.19599 19.6673 6.98175 19.4522L3.96853 16.426C3.67627 16.1325 3.67729 15.6576 3.97081 15.3653C4.26433 15.0731 4.7392 15.0741 5.03147 15.3676L6.76321 17.1068V6.60547C6.76321 6.19126 7.099 5.85547 7.51321 5.85547Z" fill="black"/>
<path fill-rule="evenodd" clip-rule="evenodd" d="M10.8555 7.71875C10.8555 7.30454 11.1913 6.96875 11.6055 6.96875H20.5007C20.9149 6.96875 21.2507 7.30454 21.2507 7.71875C21.2507 8.13296 20.9149 8.46875 20.5007 8.46875H11.6055C11.1913 8.46875 10.8555 8.13296 10.8555 7.71875ZM10.8555 12.8311C10.8555 12.4169 11.1913 12.0811 11.6055 12.0811H16.6356C17.0498 12.0811 17.3856 12.4169 17.3856 12.8311C17.3856 13.2453 17.0498 13.5811 16.6356 13.5811H11.6055C11.1913 13.5811 10.8555 13.2453 10.8555 12.8311ZM10.8555 17.9443C10.8555 17.5301 11.1913 17.1943 11.6055 17.1943H13.9752C14.3894 17.1943 14.7252 17.5301 14.7252 17.9443C14.7252 18.3586 14.3894 18.6943 13.9752 18.6943H11.6055C11.1913 18.6943 10.8555 18.3586 10.8555 17.9443Z" fill="black"/>
</svg>