<svg width="25" height="25" viewBox="0 0 25 25" fill="none" xmlns="http://www.w3.org/2000/svg">
<path fill-rule="evenodd" clip-rule="evenodd" d="M7.91983 5.95312C8.33405 5.95312 8.66983 6.28891 8.66983 6.70312V16.5288L10.2986 14.9001C10.5915 14.6072 11.0664 14.6072 11.3593 14.9001C11.6521 15.193 11.6521 15.6678 11.3593 15.9607L8.45016 18.8698C8.15727 19.1627 7.6824 19.1627 7.3895 18.8698L4.48041 15.9607C4.18752 15.6678 4.18752 15.193 4.48041 14.9001C4.77331 14.6072 5.24818 14.6072 5.54107 14.9001L7.16983 16.5288V6.70312C7.16983 6.28891 7.50562 5.95312 7.91983 5.95312Z" fill="black"/>
<path fill-rule="evenodd" clip-rule="evenodd" d="M14.8701 14.9492C14.8701 14.535 15.2059 14.1992 15.6201 14.1992H19.4989C19.7755 14.1992 20.0296 14.3515 20.1602 14.5953C20.2907 14.8392 20.2764 15.1351 20.1229 15.3652L17.0215 20.0174H19.4989C19.9131 20.0174 20.2489 20.3532 20.2489 20.7674C20.2489 21.1816 19.9131 21.5174 19.4989 21.5174H15.6201C15.3435 21.5174 15.0894 21.3652 14.9589 21.1213C14.8283 20.8774 14.8427 20.5815 14.9961 20.3514L18.0975 15.6992H15.6201C15.2059 15.6992 14.8701 15.3634 14.8701 14.9492Z" fill="black"/>
<path fill-rule="evenodd" clip-rule="evenodd" d="M15.043 9.00781C15.043 8.5936 15.3788 8.25781 15.793 8.25781H19.3285C19.7427 8.25781 20.0785 8.5936 20.0785 9.00781C20.0785 9.42203 19.7427 9.75781 19.3285 9.75781H15.793C15.3788 9.75781 15.043 9.42203 15.043 9.00781Z" fill="black"/>
<path fill-rule="evenodd" clip-rule="evenodd" d="M17.5609 4.01563C17.8635 4.01565 18.1365 4.19753 18.253 4.47681L20.6812 10.296C20.8407 10.6782 20.6601 11.1174 20.2778 11.2769C19.8955 11.4364 19.4563 11.2559 19.2968 10.8736L17.5607 6.71292L15.8239 10.8737C15.6643 11.2559 15.2251 11.4365 14.8429 11.2769C14.4606 11.1173 14.2801 10.6781 14.4397 10.2959L16.8688 4.47671C16.9853 4.19745 17.2583 4.0156 17.5609 4.01563Z" fill="black"/>
</svg>