<svg width="25" height="25" viewBox="0 0 25 25" fill="none" xmlns="http://www.w3.org/2000/svg">
<path d="M11.3115 7.7816C11.6541 7.63888 12.0394 7.63888 12.3819 7.7816" stroke="black" stroke-width="1.5" stroke-linecap="round" stroke-linejoin="round"/>
<path d="M14.6738 16.0341H18.2374C18.6753 16.0341 19.0303 15.6791 19.0303 15.2412V14.2586C19.0303 13.5947 18.7059 12.9727 18.1615 12.5927L17.8464 12.3728C17.0926 11.8468 16.4138 11.2209 15.8285 10.5123L14.7635 9.22314" stroke="black" stroke-width="1.5" stroke-linecap="round" stroke-linejoin="round"/>
<path d="M9.0401 16.0341H5.4765C5.03859 16.0341 4.68359 15.6791 4.68359 15.2412V14.2586C4.68359 13.5947 5.00801 12.9727 5.55243 12.5927L5.86757 12.3728C6.62128 11.8468 7.30011 11.2209 7.88547 10.5123L8.95042 9.22314" stroke="black" stroke-width="1.5" stroke-linecap="round" stroke-linejoin="round"/>
<path d="M11.8945 13.0466V14.8221" stroke="black" stroke-width="1.5" stroke-linecap="round" stroke-linejoin="round"/>
<path fill-rule="evenodd" clip-rule="evenodd" d="M10.0272 17.1806L9.48007 16.6335C9.19832 16.3517 9.04004 15.9696 9.04004 15.5711V7.80321C9.04004 6.32159 9.62861 4.90065 10.6763 3.85299V3.85299C10.9994 3.5299 11.4376 3.34839 11.8945 3.34839V3.34839C12.3514 3.34839 12.7896 3.5299 13.1127 3.85299V3.85299C14.1604 4.90065 14.7489 6.3216 14.7489 7.80322V15.5711C14.7489 15.9696 14.5907 16.3517 14.3089 16.6335L13.7617 17.1806C13.48 17.4624 13.0979 17.6206 12.6994 17.6206H11.0896C10.6911 17.6206 10.309 17.4624 10.0272 17.1806Z" stroke="black" stroke-width="1.5" stroke-linecap="round" stroke-linejoin="round"/>
<path d="M13.3085 17.5449C13.282 18.2697 13.4547 20.2604 14.6377 21.3484" stroke="black" stroke-width="1.5" stroke-linecap="round" stroke-linejoin="round"/>
<path d="M10.4806 17.5449C10.507 18.2697 10.3344 20.2604 9.15137 21.3484" stroke="black" stroke-width="1.5" stroke-linecap="round" stroke-linejoin="round"/>
<path d="M16.8482 21.0362C16.8482 20.8748 16.8136 20.7154 16.7467 20.5686C16.6797 20.4217 16.5821 20.291 16.4603 20.1852C16.3385 20.0794 16.1954 20.001 16.0406 19.9552C15.8859 19.9095 15.7232 19.8974 15.5634 19.92C15.4036 19.9426 15.2506 19.9992 15.1146 20.086C14.9786 20.1728 14.8628 20.2877 14.775 20.4232C14.6873 20.5586 14.6296 20.7112 14.6059 20.8708C14.5823 21.0304 14.5931 21.1932 14.6378 21.3483" stroke="black" stroke-width="1.5" stroke-linecap="round" stroke-linejoin="round"/>
<path d="M6.93945 21.0362C6.93945 20.8748 6.97409 20.7154 7.04102 20.5686C7.10796 20.4217 7.20563 20.291 7.32743 20.1852C7.44924 20.0794 7.59234 20.001 7.74707 19.9552C7.90179 19.9095 8.06454 19.8974 8.2243 19.92C8.38406 19.9426 8.53712 19.9992 8.67313 20.086C8.80914 20.1728 8.92493 20.2877 9.01268 20.4232C9.10042 20.5586 9.15808 20.7112 9.18175 20.8708C9.20542 21.0304 9.19455 21.1932 9.14988 21.3483" stroke="black" stroke-width="1.5" stroke-linecap="round" stroke-linejoin="round"/>
<path d="M20.1383 20.6542C20.0941 20.2442 19.9182 19.8596 19.637 19.5579C19.3558 19.2563 18.9845 19.0539 18.5786 18.981C18.1727 18.9081 17.7542 18.9687 17.3856 19.1536C17.017 19.3386 16.7183 19.638 16.5342 20.007" stroke="black" stroke-width="1.5" stroke-linecap="round" stroke-linejoin="round"/>
<path d="M4.09082 20.8317C4.1413 20.3639 4.36278 19.9314 4.71274 19.617C5.0627 19.3026 5.51646 19.1286 5.98688 19.1284" stroke="black" stroke-width="1.5" stroke-linecap="round" stroke-linejoin="round"/>
</svg>