<svg width="25" height="25" viewBox="0 0 25 25" fill="none" xmlns="http://www.w3.org/2000/svg">
<path fill-rule="evenodd" clip-rule="evenodd" d="M16.369 13.3826L12.2065 16.4171C11.9711 16.6054 11.6896 16.8457 11.4896 17.0187C11.321 17.1647 11.1112 17.2551 10.8891 17.2749L9.90616 17.3624C9.59805 17.3898 9.29363 17.2792 9.07491 17.0605L7.33529 15.3209C7.13795 15.1236 7.02778 14.8555 7.02936 14.5764L7.03556 13.4782C7.03697 13.2268 7.12901 12.9848 7.29276 12.7941C7.4678 12.5903 7.70013 12.3163 7.88039 12.0909L10.9149 7.9285C12.978 5.34962 16.1015 3.84839 19.4041 3.84839C19.9812 3.84839 20.4491 4.31626 20.4491 4.89341C20.4491 8.19598 18.9479 11.3195 16.369 13.3826Z" stroke="black" stroke-width="1.5" stroke-linecap="round" stroke-linejoin="round"/>
<path opacity="0.4" d="M16.8696 12.9846V17.5639C16.8696 17.9597 16.646 18.3216 16.2919 18.4986L13.7673 19.761C13.4963 19.8964 13.1799 19.9077 12.9 19.7917C12.6201 19.6758 12.4043 19.4441 12.3085 19.1567L11.6445 17.1647" stroke="black" stroke-width="1.5" stroke-linecap="round" stroke-linejoin="round"/>
<path opacity="0.4" d="M7.14012 12.6606L5.14815 11.9966C4.86075 11.9008 4.62907 11.685 4.51314 11.4052C4.39721 11.1253 4.40844 10.8089 4.54392 10.5379L5.8063 8.01322C5.9833 7.65921 6.34512 7.43555 6.74092 7.43555L11.3202 7.43555" stroke="black" stroke-width="1.5" stroke-linecap="round" stroke-linejoin="round"/>
<path opacity="0.4" d="M8.20697 18.8765C7.88776 21.001 5.40083 20.6047 3.7793 20.8483C4.0229 19.2268 3.6403 16.7535 5.76476 16.4343" stroke="black" stroke-width="1.5" stroke-linecap="round" stroke-linejoin="round"/>
<path opacity="0.4" d="M15.3789 7.73243C16.198 7.48529 16.8442 8.16021 16.6967 9.05022" stroke="black" stroke-width="1.5" stroke-linecap="round" stroke-linejoin="round"/>
</svg>