<svg width="25" height="25" viewBox="0 0 25 25" fill="none" xmlns="http://www.w3.org/2000/svg">
<path opacity="0.4" d="M11.3114 7.7816C11.654 7.63888 12.0393 7.63888 12.3819 7.7816" stroke="black" stroke-width="1.5" stroke-linecap="round" stroke-linejoin="round"/>
<path d="M14.6738 16.0341H18.2374C18.6753 16.0341 19.0303 15.6791 19.0303 15.2412V14.2586C19.0303 13.5947 18.7059 12.9727 18.1615 12.5927L17.8464 12.3728C17.0926 11.8468 16.4138 11.2209 15.8285 10.5123L14.7635 9.22314" stroke="black" stroke-width="1.5" stroke-linecap="round" stroke-linejoin="round"/>
<path d="M9.03985 16.0341H5.47626C5.03835 16.0341 4.68335 15.6791 4.68335 15.2412V14.2586C4.68335 13.5947 5.00776 12.9727 5.55219 12.5927L5.86733 12.3728C6.62104 11.8468 7.29987 11.2209 7.88522 10.5123L8.95018 9.22314" stroke="black" stroke-width="1.5" stroke-linecap="round" stroke-linejoin="round"/>
<path opacity="0.4" d="M11.8945 13.0466V14.8221" stroke="black" stroke-width="1.5" stroke-linecap="round" stroke-linejoin="round"/>
<path fill-rule="evenodd" clip-rule="evenodd" d="M10.0272 17.1806L9.48007 16.6335C9.19832 16.3517 9.04004 15.9696 9.04004 15.5711V7.80321C9.04004 6.32159 9.62861 4.90065 10.6763 3.85299V3.85299C10.9994 3.5299 11.4376 3.34839 11.8945 3.34839V3.34839C12.3514 3.34839 12.7896 3.5299 13.1127 3.85299V3.85299C14.1604 4.90065 14.7489 6.3216 14.7489 7.80322V15.5711C14.7489 15.9696 14.5907 16.3517 14.3089 16.6335L13.7617 17.1806C13.48 17.4624 13.0979 17.6206 12.6994 17.6206H11.0896C10.6911 17.6206 10.309 17.4624 10.0272 17.1806Z" stroke="black" stroke-width="1.5" stroke-linecap="round" stroke-linejoin="round"/>
<g opacity="0.4">
<path d="M13.3085 17.5449C13.282 18.2697 13.4547 20.2604 14.6377 21.3484" stroke="black" stroke-width="1.5" stroke-linecap="round" stroke-linejoin="round"/>
<path d="M10.4806 17.5449C10.507 18.2697 10.3344 20.2604 9.15137 21.3484" stroke="black" stroke-width="1.5" stroke-linecap="round" stroke-linejoin="round"/>
<path d="M16.8481 21.0362C16.8481 20.8748 16.8135 20.7154 16.7465 20.5686C16.6796 20.4217 16.5819 20.291 16.4601 20.1852C16.3383 20.0794 16.1952 20.001 16.0405 19.9552C15.8858 19.9095 15.723 19.8974 15.5633 19.92C15.4035 19.9426 15.2504 19.9992 15.1144 20.086C14.9784 20.1728 14.8626 20.2877 14.7749 20.4232C14.6871 20.5586 14.6295 20.7112 14.6058 20.8708C14.5822 21.0304 14.593 21.1932 14.6377 21.3483" stroke="black" stroke-width="1.5" stroke-linecap="round" stroke-linejoin="round"/>
<path d="M6.93924 21.0362C6.93924 20.8748 6.97388 20.7154 7.04081 20.5686C7.10774 20.4217 7.20541 20.291 7.32722 20.1852C7.44902 20.0794 7.59213 20.001 7.74685 19.9552C7.90158 19.9095 8.06432 19.8974 8.22409 19.92C8.38385 19.9426 8.53691 19.9992 8.67292 20.086C8.80893 20.1728 8.92472 20.2877 9.01246 20.4232C9.10021 20.5586 9.15787 20.7112 9.18154 20.8708C9.2052 21.0304 9.19434 21.1932 9.14966 21.3483" stroke="black" stroke-width="1.5" stroke-linecap="round" stroke-linejoin="round"/>
<path d="M20.1382 20.6542C20.0939 20.2442 19.918 19.8596 19.6369 19.5579C19.3557 19.2563 18.9843 19.0539 18.5785 18.981C18.1726 18.9081 17.754 18.9687 17.3854 19.1536C17.0169 19.3386 16.7182 19.638 16.534 20.007" stroke="black" stroke-width="1.5" stroke-linecap="round" stroke-linejoin="round"/>
<path d="M4.09082 20.8317C4.1413 20.3639 4.36278 19.9314 4.71274 19.617C5.0627 19.3026 5.51646 19.1286 5.98688 19.1284" stroke="black" stroke-width="1.5" stroke-linecap="round" stroke-linejoin="round"/>
</g>
</svg>