<svg width="25" height="25" viewBox="0 0 25 25" fill="none" xmlns="http://www.w3.org/2000/svg">
<path fill-rule="evenodd" clip-rule="evenodd" d="M12.4648 13.6406C12.8791 13.6406 13.2148 13.9764 13.2148 14.3906V17.3116L14.6152 15.9475C14.9119 15.6585 15.3867 15.6648 15.6757 15.9615C15.9648 16.2582 15.9585 16.733 15.6618 17.022L12.9882 19.6264C12.6969 19.9101 12.2325 19.91 11.9413 19.6262L9.26947 17.0219C8.97285 16.7328 8.96677 16.2579 9.25589 15.9613C9.54501 15.6647 10.0198 15.6586 10.3165 15.9477L11.7148 17.3107V14.3906C11.7148 13.9764 12.0506 13.6406 12.4648 13.6406Z" fill="black"/>
<path fill-rule="evenodd" clip-rule="evenodd" d="M11.9413 5.90436C12.2325 5.62049 12.6969 5.62041 12.9882 5.90419L15.6618 8.50884C15.9585 8.79788 15.9647 9.27271 15.6757 9.56941C15.3867 9.86611 14.9118 9.87231 14.6151 9.58327L13.2148 8.21912V10.9969C13.2148 11.4111 12.8791 11.7469 12.4648 11.7469C12.0506 11.7469 11.7148 11.4111 11.7148 10.9969V8.21994L10.3165 9.5831C10.0199 9.87224 9.54506 9.86619 9.25593 9.56959C8.96679 9.27299 8.97284 8.79815 9.26944 8.50901L11.9413 5.90436Z" fill="black"/>
<path fill-rule="evenodd" clip-rule="evenodd" d="M6.06543 21.7656C6.06543 21.3514 6.40122 21.0156 6.81543 21.0156H18.1836C18.5979 21.0156 18.9336 21.3514 18.9336 21.7656C18.9336 22.1798 18.5979 22.5156 18.1836 22.5156H6.81543C6.40122 22.5156 6.06543 22.1798 6.06543 21.7656Z" fill="black"/>
<path fill-rule="evenodd" clip-rule="evenodd" d="M6.06543 3.76562C6.06543 3.35141 6.40122 3.01562 6.81543 3.01562H18.1836C18.5979 3.01562 18.9336 3.35141 18.9336 3.76562C18.9336 4.17984 18.5979 4.51562 18.1836 4.51562H6.81543C6.40122 4.51562 6.06543 4.17984 6.06543 3.76562Z" fill="black"/>
</svg>