<svg width="25" height="24" viewBox="0 0 25 24" fill="none" xmlns="http://www.w3.org/2000/svg">
<path fill-rule="evenodd" clip-rule="evenodd" d="M13.1615 2.62061C13.4522 2.62061 13.7167 2.7886 13.8403 3.05172L14.7875 5.06816L16.804 6.01537C17.0671 6.13898 17.2351 6.4035 17.2351 6.69421C17.2351 6.98492 17.0671 7.24944 16.804 7.37304L14.7875 8.32026L13.8403 10.3367C13.7167 10.5998 13.4522 10.7678 13.1615 10.7678C12.8708 10.7678 12.6063 10.5998 12.4827 10.3367L11.5354 8.32026L9.51901 7.37304C9.25589 7.24944 9.08789 6.98492 9.08789 6.69421C9.08789 6.4035 9.25589 6.13898 9.51901 6.01537L11.5354 5.06816L12.4827 3.05172C12.6063 2.7886 12.8708 2.62061 13.1615 2.62061ZM13.1615 5.13458L12.7781 5.95083C12.7037 6.1091 12.5764 6.23643 12.4181 6.31078L11.6019 6.69421L12.4181 7.07764C12.5764 7.15199 12.7037 7.27931 12.7781 7.43759L13.1615 8.25383L13.5449 7.43759C13.6193 7.27931 13.7466 7.15199 13.9049 7.07764L14.7211 6.69421L13.9049 6.31078C13.7466 6.23643 13.6193 6.1091 13.5449 5.95083L13.1615 5.13458Z" fill="black"/>
<path fill-rule="evenodd" clip-rule="evenodd" d="M6.93786 9.78125C7.22857 9.78125 7.49309 9.94925 7.61669 10.2124L8.56391 12.2288L10.5803 13.176C10.8435 13.2996 11.0115 13.5641 11.0115 13.8549C11.0115 14.1456 10.8435 14.4101 10.5803 14.5337L8.56391 15.4809L7.61669 17.4973C7.49309 17.7605 7.22857 17.9285 6.93786 17.9285C6.64715 17.9285 6.38263 17.7605 6.25903 17.4973L5.31181 15.4809L3.29538 14.5337C3.03225 14.4101 2.86426 14.1456 2.86426 13.8549C2.86426 13.5641 3.03225 13.2996 3.29538 13.176L5.31181 12.2288L6.25903 10.2124C6.38263 9.94925 6.64715 9.78125 6.93786 9.78125ZM6.93786 12.2952L6.55443 13.1115C6.48008 13.2697 6.35276 13.3971 6.19448 13.4714L5.37823 13.8549L6.19448 14.2383C6.35276 14.3126 6.48008 14.44 6.55443 14.5982L6.93786 15.4145L7.32129 14.5982C7.39564 14.44 7.52296 14.3126 7.68124 14.2383L8.49749 13.8549L7.68124 13.4714C7.52296 13.3971 7.39564 13.2697 7.32129 13.1115L6.93786 12.2952Z" fill="black"/>
<path fill-rule="evenodd" clip-rule="evenodd" d="M17.3157 11.2842C17.6064 11.2842 17.871 11.4522 17.9946 11.7153L19.2533 14.3948L21.9328 15.6535C22.1959 15.7771 22.3639 16.0416 22.3639 16.3323C22.3639 16.623 22.1959 16.8876 21.9328 17.0112L19.2533 18.2699L17.9946 20.9494C17.871 21.2125 17.6064 21.3805 17.3157 21.3805C17.025 21.3805 16.7605 21.2125 16.6369 20.9494L15.3782 18.2699L12.6987 17.0112C12.4356 16.8876 12.2676 16.623 12.2676 16.3323C12.2676 16.0416 12.4356 15.7771 12.6987 15.6535L15.3782 14.3948L16.6369 11.7153C16.7605 11.4522 17.025 11.2842 17.3157 11.2842ZM17.3157 13.7982L16.6208 15.2775C16.5465 15.4358 16.4192 15.5631 16.2609 15.6374L14.7816 16.3323L16.2609 17.0272C16.4192 17.1016 16.5465 17.2289 16.6208 17.3872L17.3157 18.8665L18.0106 17.3872C18.085 17.2289 18.2123 17.1016 18.3706 17.0272L19.8499 16.3323L18.3706 15.6374C18.2123 15.5631 18.085 15.4358 18.0106 15.2775L17.3157 13.7982Z" fill="black"/>
<path fill-rule="evenodd" clip-rule="evenodd" d="M9.7666 18.8516C10.1808 18.8516 10.5166 19.1873 10.5166 19.6016V19.6116C10.5166 20.0258 10.1808 20.3616 9.7666 20.3616C9.35239 20.3616 9.0166 20.0258 9.0166 19.6116V19.6016C9.0166 19.1873 9.35239 18.8516 9.7666 18.8516Z" fill="black"/>
<path fill-rule="evenodd" clip-rule="evenodd" d="M5.97852 5.47876C6.39273 5.47876 6.72852 5.81455 6.72852 6.22876V6.23876C6.72852 6.65297 6.39273 6.98876 5.97852 6.98876C5.5643 6.98876 5.22852 6.65297 5.22852 6.23876V6.22876C5.22852 5.81455 5.5643 5.47876 5.97852 5.47876Z" fill="black"/>
<path fill-rule="evenodd" clip-rule="evenodd" d="M20.3672 8.25098C20.7814 8.25098 21.1172 8.58676 21.1172 9.00098V9.01098C21.1172 9.42519 20.7814 9.76098 20.3672 9.76098C19.953 9.76098 19.6172 9.42519 19.6172 9.01098V9.00098C19.6172 8.58676 19.953 8.25098 20.3672 8.25098Z" fill="black"/>
</svg>