<svg width="24" height="24" viewBox="0 0 24 24" fill="none" xmlns="http://www.w3.org/2000/svg">
<path fill-rule="evenodd" clip-rule="evenodd" d="M17.6841 20H6.3161C5.7631 20 5.3161 20.447 5.3161 21C5.3161 21.553 5.7631 22 6.3161 22H17.6841C18.2371 22 18.6841 21.553 18.6841 21C18.6841 20.447 18.2371 20 17.6841 20Z" fill="black"/>
<path fill-rule="evenodd" clip-rule="evenodd" d="M11.9653 19.0405C12.5183 19.0405 12.9653 18.5935 12.9653 18.0405V15.6395L13.9403 16.5875C14.3363 16.9745 14.9683 16.9635 15.3543 16.5675C15.7383 16.1725 15.7303 15.5385 15.3343 15.1535L12.6893 12.5795C12.5063 12.3895 12.2493 12.2695 11.9653 12.2695H11.9603C11.7093 12.2705 11.4593 12.3655 11.2673 12.5535L8.59532 15.1535C8.19932 15.5395 8.19132 16.1725 8.57532 16.5675C8.96132 16.9635 9.59332 16.9745 9.98932 16.5875L10.9653 15.6385V18.0405C10.9653 18.5935 11.4123 19.0405 11.9653 19.0405Z" fill="black"/>
<path fill-rule="evenodd" clip-rule="evenodd" d="M6.31592 4H17.6839C18.2369 4 18.6839 3.553 18.6839 3C18.6839 2.447 18.2369 2 17.6839 2H6.31592C5.76292 2 5.31592 2.447 5.31592 3C5.31592 3.553 5.76292 4 6.31592 4Z" fill="black"/>
<path fill-rule="evenodd" clip-rule="evenodd" d="M15.353 7.4227C14.967 7.0267 14.334 7.0207 13.939 7.4047L12.965 8.3567V5.9707C12.965 5.4177 12.518 4.9707 11.965 4.9707C11.413 4.9707 10.965 5.4177 10.965 5.9707V8.3577L9.99198 7.4057C9.59498 7.0197 8.96198 7.0267 8.57798 7.4217C8.19098 7.8177 8.19898 8.4497 8.59298 8.8357L11.265 11.4457C11.46 11.6367 11.733 11.7277 11.965 11.7317C12.25 11.7317 12.507 11.6117 12.69 11.4207L15.335 8.8367C15.731 8.4497 15.739 7.8177 15.353 7.4227Z" fill="black"/>
</svg>