<svg width="25" height="25" viewBox="0 0 25 25" fill="none" xmlns="http://www.w3.org/2000/svg">
<path fill-rule="evenodd" clip-rule="evenodd" d="M6.06543 21.7656C6.06543 21.3514 6.40122 21.0156 6.81543 21.0156H18.1836C18.5979 21.0156 18.9336 21.3514 18.9336 21.7656C18.9336 22.1798 18.5979 22.5156 18.1836 22.5156H6.81543C6.40122 22.5156 6.06543 22.1798 6.06543 21.7656Z" fill="black"/>
<path fill-rule="evenodd" clip-rule="evenodd" d="M11.7148 15.8123V18.8018C11.7148 19.216 12.0506 19.5518 12.4648 19.5518C12.879 19.5518 13.2148 19.216 13.2148 18.8018V15.8143L14.6131 17.1769C14.9097 17.466 15.3846 17.4599 15.6737 17.1632C15.9627 16.8666 15.9566 16.3918 15.66 16.1027L13.0112 13.5214C12.8744 13.376 12.6802 13.2852 12.4648 13.2852C12.4646 13.2852 12.4644 13.2852 12.4643 13.2852C12.2752 13.285 12.0861 13.356 11.9403 13.498L9.26757 16.1027C8.97093 16.3918 8.9648 16.8666 9.25389 17.1632C9.54298 17.4599 10.0178 17.466 10.3145 17.1769L11.7148 15.8123Z" fill="black"/>
<path fill-rule="evenodd" clip-rule="evenodd" d="M6.06543 3.76562C6.06543 3.35141 6.40122 3.01562 6.81543 3.01562H18.1836C18.5979 3.01562 18.9336 3.35141 18.9336 3.76562C18.9336 4.17984 18.5979 4.51562 18.1836 4.51562H6.81543C6.40122 4.51562 6.06543 4.17984 6.06543 3.76562Z" fill="black"/>
<path fill-rule="evenodd" clip-rule="evenodd" d="M12.4648 5.98438C12.879 5.98438 13.2148 6.32016 13.2148 6.73438V9.71394L14.6131 8.35128C14.9097 8.06219 15.3846 8.06832 15.6737 8.36497C15.9627 8.66161 15.9566 9.13645 15.66 9.42554L13.0126 12.0055C12.8757 12.1518 12.6809 12.2432 12.4648 12.2432C12.4155 12.2432 12.3673 12.2384 12.3206 12.2293C12.1817 12.2024 12.049 12.1361 11.9403 12.0302L9.26757 9.42554C8.97093 9.13645 8.9648 8.66161 9.25389 8.36497C9.54298 8.06832 10.0178 8.06219 10.3145 8.35128L11.7148 9.71593V6.73438C11.7148 6.32016 12.0506 5.98438 12.4648 5.98438Z" fill="black"/>
</svg>