<svg width="24" height="24" viewBox="0 0 24 24" fill="none" xmlns="http://www.w3.org/2000/svg">
<path opacity="0.4" d="M11.9979 21.5V2.50001L12.0012 2.5H12.0032C12.3092 2.501 12.5952 2.644 12.8532 2.924L17.7242 7.108C18.7422 7.922 20.5052 9.667 20.7202 12.081C20.7642 12.571 20.7442 13.075 20.6602 13.577C20.3142 15.634 19.0252 17.181 17.2962 17.613C15.8722 17.97 14.8182 17.77 13.9722 17.38C14.2502 19.145 15.5612 20.633 15.5762 20.65C15.7102 20.8 15.7432 21.015 15.6612 21.198C15.5802 21.382 15.3972 21.5 15.1962 21.5H11.9979Z" fill="black"/>
<path d="M11.9979 21.5V2.50001L11.9946 2.5H11.9926C11.6866 2.501 11.4006 2.644 11.1426 2.924L6.27162 7.108C5.25362 7.922 3.49062 9.667 3.27562 12.081C3.23162 12.571 3.25162 13.075 3.33562 13.577C3.68162 15.634 4.97062 17.181 6.69962 17.613C8.12362 17.97 9.17762 17.77 10.0236 17.38C9.74562 19.145 8.43462 20.633 8.41962 20.65C8.28562 20.8 8.25262 21.015 8.33462 21.198C8.41562 21.382 8.59862 21.5 8.79962 21.5H11.9979Z" fill="black"/>
</svg>