<svg width="24" height="24" viewBox="0 0 24 24" fill="none" xmlns="http://www.w3.org/2000/svg">
<path opacity="0.4" fill-rule="evenodd" clip-rule="evenodd" d="M15 2.5H9C6.519 2.5 4.5 4.518 4.5 7V17C4.5 19.481 6.519 21.5 9 21.5H15C17.481 21.5 19.5 19.481 19.5 17V7C19.5 4.518 17.481 2.5 15 2.5Z" fill="black"/>
<path fill-rule="evenodd" clip-rule="evenodd" d="M16 6.76086C16.414 6.76086 16.75 6.42486 16.75 6.01086V6.00086C16.75 5.58686 16.414 5.25586 16 5.25586C15.586 5.25586 15.25 5.59686 15.25 6.01086C15.25 6.42486 15.586 6.76086 16 6.76086ZM13.868 14.9819C14.896 14.9119 15.772 14.2239 16.098 13.2329C16.3 12.6299 16.313 11.9769 16.133 11.3939C15.91 10.6769 15.455 10.0179 14.826 9.49786L12.727 7.69486C12.505 7.50086 12.263 7.40286 12.007 7.40086H12.002C11.749 7.40086 11.508 7.49686 11.282 7.68986L9.08 9.58086C8.5 10.0999 8.084 10.7219 7.876 11.3849C7.677 12.0399 7.712 12.7579 7.976 13.4049C8.267 14.1229 8.842 14.6579 9.569 14.8789C10.271 15.0759 10.819 15.0189 11.25 14.8639V16.0009C11.25 16.4149 11.586 16.7509 12 16.7509C12.414 16.7509 12.75 16.4149 12.75 16.0009V14.8099C13.076 14.9309 13.442 15.0079 13.868 14.9819ZM8 18.7609C8.414 18.7609 8.75 18.4249 8.75 18.0109V18.0009C8.75 17.5869 8.414 17.2559 8 17.2559C7.586 17.2559 7.25 17.5969 7.25 18.0109C7.25 18.4249 7.586 18.7609 8 18.7609ZM12.0024 9.04773L13.8594 10.6437C14.2794 10.9917 14.5624 11.3937 14.7004 11.8367C14.7884 12.1207 14.7794 12.4467 14.6734 12.7597C14.5374 13.1777 14.1894 13.4557 13.7674 13.4837C13.3054 13.528 12.9243 13.2505 12.6031 13.0167C12.5836 13.0025 12.5644 12.9885 12.5454 12.9747L12.5054 12.9457C12.3734 12.8257 12.1984 12.7517 12.0064 12.7507C11.8694 12.7617 11.6944 12.7937 11.5574 12.8917C11.4744 12.9527 11.3894 13.0197 11.3014 13.0907C10.9044 13.4117 10.6414 13.6227 9.98938 13.4377C9.71338 13.3547 9.48638 13.1367 9.36538 12.8397C9.23338 12.5147 9.21338 12.1437 9.30938 11.8277C9.43438 11.4277 9.70138 11.0377 10.0684 10.7087L12.0024 9.04773Z" fill="black"/>
</svg>