<svg width="24" height="24" viewBox="0 0 24 24" fill="none" xmlns="http://www.w3.org/2000/svg">
<path fill-rule="evenodd" clip-rule="evenodd" d="M10.5177 15.1081L11.2487 16.4723C11.4228 16.7972 11.7615 17 12.1301 17C12.4987 17 12.8374 16.7972 13.0115 16.4723L13.7207 15.149L15.8397 15.4868C16.2198 15.5475 16.6009 15.3846 16.8198 15.0681C17.0386 14.7516 17.0565 14.3375 16.8656 14.0034L12.8679 7.00404C12.6899 6.69236 12.3585 6.5 11.9996 6.5C11.6407 6.5 11.3093 6.69236 11.1312 7.00404L7.13361 14.0033C6.94266 14.3376 6.9606 14.7519 7.17975 15.0685C7.3989 15.385 7.78033 15.5477 8.16048 15.4866L10.5177 15.1081Z" stroke="black" stroke-width="1.5" stroke-linecap="round" stroke-linejoin="round"/>
<path d="M7.78216 3H16.2169C19.165 3 21 5.08119 21 8.02638V15.9736C21 18.9188 19.165 21 16.2159 21H7.78216C4.83405 21 3 18.9188 3 15.9736V8.02638C3 5.08119 4.84281 3 7.78216 3Z" stroke="black" stroke-width="1.5" stroke-linecap="round" stroke-linejoin="round"/>
</svg>