<svg width="25" height="24" viewBox="0 0 25 24" fill="none" xmlns="http://www.w3.org/2000/svg">
<path d="M11.3527 14.964V14.9737M5.67464 13.5456C7.91836 13.9455 11.3861 14.7706 15.2236 16.4237C16.8349 17.1175 18.6339 15.9693 18.6359 14.215L18.6456 6.75025C18.6495 4.0609 16.8524 2.90985 15.2382 3.60068C11.3939 5.24406 7.92128 6.06137 5.67659 6.45446C4.22586 6.70841 3.50292 7.97427 3.50098 9.44738L3.5 10.5459C3.49806 12.0219 4.22099 13.2868 5.67464 13.5456Z" stroke="black" stroke-width="1.5" stroke-linecap="round" stroke-linejoin="round"/>
<path opacity="0.4" d="M18.6367 13.3437C20.2558 13.1015 21.4983 11.7062 21.5002 10.019C21.5022 8.3338 20.2636 6.93464 18.6455 6.6875" stroke="black" stroke-width="1.5" stroke-linecap="round" stroke-linejoin="round"/>
<path opacity="0.4" d="M11.3534 14.9741C11.5052 16.0823 11.799 18.2423 11.837 18.7824C11.9031 19.5685 11.4857 20.2321 10.8134 20.488C10.1313 20.7527 9.25952 20.5162 8.82362 19.9003C8.6154 19.6259 8.47334 19.2941 8.36923 18.9624C7.89538 17.4562 7.26099 15.3059 6.79688 13.7617" stroke="black" stroke-width="1.5" stroke-linecap="round" stroke-linejoin="round"/>
<path opacity="0.4" d="M7.87791 6.03516L7.87305 9.7588" stroke="black" stroke-width="1.5" stroke-linecap="round" stroke-linejoin="round"/>
</svg>