<svg width="24" height="24" viewBox="0 0 24 24" fill="none" xmlns="http://www.w3.org/2000/svg">
<path fill-rule="evenodd" clip-rule="evenodd" d="M11.9655 19.2352C11.8755 19.4752 11.6955 19.6652 11.4655 19.7752C11.2355 19.8752 10.9755 19.8852 10.7355 19.7952C10.4955 19.7052 10.3055 19.5352 10.1955 19.3052L8.87551 16.3952C9.47551 16.2752 10.1355 16.1652 10.8355 16.0752L11.9455 18.5052C12.0455 18.7352 12.0555 18.9952 11.9655 19.2352ZM14.8855 5.88519C14.2955 4.59519 13.3255 3.75519 12.2355 3.57519C11.3455 3.43519 10.4755 3.75519 9.84551 4.44519C8.41551 6.01519 6.98551 7.30519 5.73551 8.31519L7.52551 12.0952C7.69551 12.4752 7.52551 12.9152 7.14551 13.0852C7.04551 13.1352 6.94551 13.1552 6.83551 13.1552C6.55551 13.1552 6.28551 12.9952 6.15551 12.7152L4.52551 9.26519C4.16551 9.53519 3.82551 9.77519 3.51551 9.98519C2.24551 10.8552 1.89551 12.4452 2.62551 14.0352L3.01551 14.8952C3.61551 16.2152 4.70551 16.9752 5.90551 16.9752C6.15551 16.9752 6.40551 16.9452 6.65551 16.8852C6.87551 16.8252 7.11551 16.7652 7.36551 16.7152L8.83551 19.9252C9.10551 20.5152 9.58551 20.9752 10.2055 21.2052C10.4855 21.3052 10.7755 21.3652 11.0755 21.3652C11.4155 21.3652 11.7655 21.2852 12.0855 21.1452C12.6855 20.8652 13.1455 20.3752 13.3755 19.7652C13.6055 19.1452 13.5755 18.4852 13.3055 17.8852L12.3955 15.8952C13.2155 15.8152 14.0855 15.7652 14.9955 15.7452C15.9655 15.7252 16.8555 15.2252 17.3655 14.4052C17.8755 13.6052 17.9355 12.6052 17.5455 11.7352L14.8855 5.88519Z" fill="black"/>
<path fill-rule="evenodd" clip-rule="evenodd" d="M21.2169 5.98104C20.4459 4.28604 18.8969 3.04304 17.0719 2.65504C16.6699 2.56304 16.2689 2.82704 16.1829 3.23204C16.0959 3.63704 16.3549 4.03604 16.7599 4.12204C18.1409 4.41604 19.2679 5.32004 19.8519 6.60204C20.4199 7.85104 20.3779 9.26204 19.7379 10.475C19.5439 10.841 19.6839 11.295 20.0499 11.489C20.1619 11.548 20.2819 11.576 20.3999 11.576C20.6689 11.576 20.9289 11.43 21.0639 11.176C21.9229 9.54904 21.9789 7.65604 21.2169 5.98104Z" fill="black"/>
<path fill-rule="evenodd" clip-rule="evenodd" d="M16.7594 5.23006C16.3714 5.08406 15.9394 5.28506 15.7954 5.67306C15.6524 6.06106 15.8504 6.49305 16.2384 6.63605C16.7764 6.83505 17.2044 7.23406 17.4434 7.75606C17.6884 8.29806 17.7014 8.90005 17.4794 9.45106C17.3244 9.83405 17.5104 10.2721 17.8954 10.4261C17.9874 10.4631 18.0814 10.4811 18.1754 10.4811C18.4724 10.4811 18.7534 10.3031 18.8714 10.0111C19.2474 9.07705 19.2254 8.05606 18.8084 7.13506C18.4014 6.24506 17.6744 5.56806 16.7594 5.23006Z" fill="black"/>
</svg>