<svg width="25" height="24" viewBox="0 0 25 24" fill="none" xmlns="http://www.w3.org/2000/svg">
<path d="M17.9728 17.8992C17.9218 17.8991 17.8709 17.8941 17.8208 17.8842C17.3918 17.7962 7.29184 15.7172 5.99184 15.3922C4.96899 15.0295 4.08362 14.3589 3.45747 13.4725C2.83131 12.5861 2.49512 11.5275 2.49512 10.4422C2.49512 9.35696 2.83131 8.29836 3.45747 7.41197C4.08362 6.52557 4.96899 5.85491 5.99184 5.49221C7.29184 5.16921 17.3428 3.10022 17.7708 3.01322C17.8672 2.99352 17.9666 2.99299 18.0631 3.01168C18.1597 3.03037 18.2517 3.06791 18.3338 3.12214C18.4159 3.17637 18.4865 3.24622 18.5416 3.32774C18.5966 3.40925 18.6351 3.50083 18.6548 3.59722C18.6745 3.69361 18.6751 3.79293 18.6564 3.88952C18.6377 3.98611 18.6002 4.07808 18.5459 4.16016C18.4917 4.24225 18.4218 4.31286 18.3403 4.36794C18.2588 4.42303 18.1672 4.46151 18.0708 4.48121C17.9708 4.50321 7.62284 6.63221 6.35284 6.94721C5.65768 7.22901 5.06245 7.71187 4.64335 8.33398C4.22426 8.95608 4.00038 9.68912 4.00038 10.4392C4.00038 11.1893 4.22426 11.9224 4.64335 12.5445C5.06245 13.1666 5.65768 13.6494 6.35284 13.9312C7.62184 14.2492 18.0158 16.3892 18.1208 16.4102C18.3021 16.4483 18.4629 16.5521 18.5722 16.7016C18.6816 16.8511 18.7317 17.0359 18.7129 17.2201C18.6942 17.4044 18.6079 17.5753 18.4707 17.6997C18.3335 17.8242 18.1551 17.8935 17.9698 17.8942L17.9728 17.8992Z" fill="black"/>
<path d="M18.232 17.9208C16.082 17.9208 14.46 14.7068 14.46 10.4438C14.46 6.1808 16.082 2.9668 18.232 2.9668C20.382 2.9668 22.004 6.1818 22.004 10.4438C22.004 14.7058 20.382 17.9208 18.232 17.9208ZM18.232 4.4668C17.283 4.4668 15.96 6.7408 15.96 10.4438C15.96 14.1468 17.283 16.4208 18.232 16.4208C19.181 16.4208 20.504 14.1468 20.504 10.4438C20.504 6.7408 19.181 4.4668 18.232 4.4668Z" fill="black"/>
<path d="M8.67664 21.0321C8.13709 21.0423 7.60748 20.8862 7.15964 20.5851C6.77681 20.2893 6.45946 19.9174 6.22762 19.4927C5.99577 19.0681 5.85448 18.6001 5.81264 18.1181L5.42964 14.7511C5.41624 14.6522 5.42272 14.5516 5.4487 14.4552C5.47467 14.3588 5.51963 14.2686 5.58093 14.1898C5.64224 14.111 5.71865 14.0453 5.80569 13.9964C5.89273 13.9475 5.98865 13.9165 6.08783 13.9052C6.18701 13.8939 6.28745 13.9025 6.38326 13.9305C6.47908 13.9585 6.56834 14.0054 6.64581 14.0683C6.72328 14.1313 6.78741 14.209 6.83443 14.2971C6.88145 14.3852 6.91042 14.4817 6.91964 14.5811L7.29864 17.9191C7.34757 18.4662 7.59941 18.9753 8.00464 19.3461C8.18541 19.4481 8.3853 19.5117 8.5918 19.5329C8.7983 19.5541 9.00694 19.5323 9.20464 19.4691C11.1434 18.9831 13.1741 18.9996 15.1046 19.5171C15.1954 19.5552 15.2777 19.6108 15.347 19.6807C15.4163 19.7506 15.4711 19.8334 15.5083 19.9245C15.5456 20.0156 15.5645 20.1132 15.564 20.2116C15.5636 20.31 15.5437 20.4073 15.5056 20.4981C15.4676 20.5888 15.412 20.6712 15.3421 20.7405C15.2722 20.8097 15.1893 20.8645 15.0982 20.9018C15.0071 20.939 14.9096 20.9579 14.8112 20.9575C14.7127 20.957 14.6154 20.9372 14.5246 20.8991C12.8794 20.509 11.1646 20.5204 9.52464 20.9321C9.24649 20.9964 8.96212 21.0299 8.67664 21.0321Z" fill="black"/>
</svg>