<svg width="24" height="24" viewBox="0 0 24 24" fill="none" xmlns="http://www.w3.org/2000/svg">
<path opacity="0.4" fill-rule="evenodd" clip-rule="evenodd" d="M17.5066 3.52838C18.4266 4.46838 19.2366 5.84838 19.8066 7.40838C20.3066 8.77838 20.5666 10.1484 20.5666 11.3484C20.5666 11.5284 20.5566 11.6984 20.5466 11.8684C20.4366 13.3884 19.8466 14.4084 18.8966 14.7584C18.8366 14.7784 18.7766 14.7984 18.7066 14.8084C18.6566 14.8284 18.6066 14.8384 18.5566 14.8484C18.5466 14.8584 18.5366 14.8584 18.5266 14.8584C18.3547 14.8855 16.4395 15.1664 14.284 15.4714L14.2813 15.4688L9.74098 16.127C9.53811 16.1495 9.33266 16.1785 9.12582 16.2078C8.57024 16.2863 8.00466 16.3663 7.45236 16.3255C6.02566 16.1557 4.36666 15.0699 3.71662 13.2684C2.94662 11.1684 3.85662 8.93838 5.12662 8.07838C5.8745 7.57715 10.5533 4.6895 12.8073 3.29837C13.3864 2.94101 13.8054 2.6824 13.9566 2.58838C13.9766 2.57838 13.9966 2.56838 14.0066 2.55838C14.1266 2.47838 14.2566 2.41838 14.3866 2.36838C15.3366 2.02838 16.4466 2.43838 17.5066 3.52838ZM19.0466 11.7584C19.1266 10.6684 18.8866 9.26838 18.3966 7.92838C17.9066 6.57838 17.1966 5.35838 16.4366 4.56838C15.9266 4.04838 15.4266 3.74838 15.0666 3.74838C15.0066 3.74838 14.9466 3.75838 14.8966 3.77838C14.8666 3.78838 14.8366 3.80838 14.8066 3.82838C14.7866 3.83838 14.7666 3.84838 14.7466 3.86838C14.1266 4.37838 13.8966 6.50838 14.8766 9.20838C15.3666 10.5584 16.0866 11.7784 16.8466 12.5584C17.4466 13.1684 18.0366 13.4784 18.3766 13.3484C18.7266 13.2184 18.9866 12.6084 19.0466 11.7584Z" fill="black"/>
<path fill-rule="evenodd" clip-rule="evenodd" d="M19.0466 11.758C19.1266 10.668 18.8866 9.26805 18.3966 7.92805C17.9066 6.57805 17.1966 5.35805 16.4366 4.56805C15.9266 4.04805 15.4266 3.74805 15.0666 3.74805C15.0066 3.74805 14.9466 3.75805 14.8966 3.77805C14.8666 3.78805 14.8366 3.80805 14.8066 3.82805C14.7866 3.83805 14.7666 3.84805 14.7466 3.86805C14.1266 4.37805 13.8966 6.50805 14.8766 9.20805C15.3666 10.558 16.0866 11.778 16.8466 12.558C17.4466 13.168 18.0366 13.478 18.3766 13.348C18.7266 13.218 18.9866 12.608 19.0466 11.758Z" fill="black"/>
<path d="M7.78326 16.3362L9.06818 19.8665C9.60853 21.3505 11.2488 22.1176 12.7344 21.5756C14.2196 21.0358 14.9838 19.3937 14.4445 17.9104L13.592 15.5684L12.0757 15.7882L13.0349 18.4232C13.2915 19.129 12.9274 19.9096 12.2218 20.166L12.2207 20.1664C11.5153 20.4238 10.7351 20.0602 10.4777 19.3533L9.32263 16.1798C9.25721 16.1889 9.19161 16.1982 9.12588 16.2075C8.68079 16.2704 8.22922 16.3342 7.78326 16.3362Z" fill="black"/>
</svg>