<svg width="25" height="24" viewBox="0 0 25 24" fill="none" xmlns="http://www.w3.org/2000/svg">
<path d="M18.219 17.1515C18.219 17.1515 7.72 14.9915 6.421 14.6665C5.123 14.3425 3.5 12.6405 3.5 10.4475C3.5 8.25454 5.123 6.55254 6.421 6.22754" stroke="black" stroke-width="1.5" stroke-linecap="round" stroke-linejoin="round"/>
<path d="M9.25 5.60936C12.7686 4.86458 18.169 3.75391 18.169 3.75391" stroke="black" stroke-width="1.5" stroke-linecap="round" stroke-linejoin="round"/>
<path fill-rule="evenodd" clip-rule="evenodd" d="M21.501 10.4458C21.501 14.1608 20.148 17.1728 18.479 17.1728C16.81 17.1728 15.457 14.1608 15.457 10.4458C15.457 6.73075 16.81 3.71875 18.479 3.71875C20.148 3.71875 21.501 6.73075 21.501 10.4458Z" stroke="black" stroke-width="1.5" stroke-linecap="round" stroke-linejoin="round"/>
<path d="M15.0655 20.2081C14.6345 20.0271 12.4255 19.5711 9.61449 20.2001C7.59649 20.6521 6.97349 19.1291 6.80049 18.0041L6.68652 17" stroke="black" stroke-width="1.5" stroke-linecap="round" stroke-linejoin="round"/>
</svg>