<svg width="24" height="24" viewBox="0 0 24 24" fill="none" xmlns="http://www.w3.org/2000/svg">
<path fill-rule="evenodd" clip-rule="evenodd" d="M12 3.75012C7.44329 3.75012 3.75 7.44342 3.75 12.0001C3.75 16.5568 7.44329 20.2501 12 20.2501C16.5567 20.2501 20.25 16.5568 20.25 12.0001C20.25 7.44342 16.5567 3.75012 12 3.75012ZM2.25 12.0001C2.25 6.61499 6.61487 2.25012 12 2.25012C17.3851 2.25012 21.75 6.61499 21.75 12.0001C21.75 17.3853 17.3851 21.7501 12 21.7501C6.61487 21.7501 2.25 17.3853 2.25 12.0001Z" fill="black"/>
<path fill-rule="evenodd" clip-rule="evenodd" d="M9.08821 7.25C13.38 7.25 16.9125 10.5982 16.9125 14.7913V16C16.9125 16.4142 16.5767 16.75 16.1625 16.75H12.0011C11.5869 16.75 11.2511 16.4142 11.2511 16V14.7913C11.2511 13.6896 10.3119 12.7449 9.08819 12.7449H7.83789C7.42368 12.7449 7.08789 12.4091 7.08789 11.9949V8.01066C7.08789 7.59894 7.41979 7.2642 7.8315 7.26069L9.08821 7.25ZM9.09132 8.75L8.58789 8.75429V11.2449H9.08819C11.0821 11.2449 12.7511 12.8041 12.7511 14.7913V15.25H15.4125V14.7913C15.4125 11.4847 12.6115 8.75161 9.09132 8.75Z" fill="black"/>
</svg>