<svg width="25" height="24" viewBox="0 0 25 24" fill="none" xmlns="http://www.w3.org/2000/svg">
<path d="M12.5 21C17.4709 21 21.5 16.9709 21.5 12C21.5 7.02908 17.4709 3 12.5 3C7.52908 3 3.5 7.02908 3.5 12C3.5 16.9709 7.52908 21 12.5 21Z" stroke="black" stroke-width="1.5" stroke-linecap="round" stroke-linejoin="round"/>
<path opacity="0.4" d="M3.5 11.9998C3.5 11.4014 3.86486 10.837 4.50995 10.3408" stroke="black" stroke-width="1.5" stroke-linecap="round" stroke-linejoin="round"/>
<path opacity="0.4" d="M7.16211 9.10117C8.21973 8.78884 9.45346 8.56701 10.7923 8.46484" stroke="black" stroke-width="1.5" stroke-linecap="round" stroke-linejoin="round"/>
<path opacity="0.4" d="M14.1191 8.45801C15.457 8.55531 16.6917 8.77033 17.7532 9.07682" stroke="black" stroke-width="1.5" stroke-linecap="round" stroke-linejoin="round"/>
<path opacity="0.4" d="M21.5003 11.9998C21.5003 11.4014 21.1353 10.837 20.4902 10.3408" stroke="black" stroke-width="1.5" stroke-linecap="round" stroke-linejoin="round"/>
<path opacity="0.4" d="M21.5 12C21.5 13.9878 17.4709 15.6 12.5 15.6C7.52908 15.6 3.5 13.9878 3.5 12" stroke="black" stroke-width="1.5" stroke-linecap="round" stroke-linejoin="round"/>
</svg>