<svg width="24" height="24" viewBox="0 0 24 24" fill="none" xmlns="http://www.w3.org/2000/svg">
<path fill-rule="evenodd" clip-rule="evenodd" d="M12 9.4502C11.5858 9.4502 11.25 9.78598 11.25 10.2002V10.2102C11.25 10.6244 11.5858 10.9602 12 10.9602C12.4142 10.9602 12.75 10.6244 12.75 10.2102V10.2002C12.75 9.78598 12.4142 9.4502 12 9.4502Z" fill="black"/>
<path fill-rule="evenodd" clip-rule="evenodd" d="M10.0411 7.58963C9.97684 7.18043 9.59303 6.9008 9.18383 6.96506C7.28297 7.26357 5.59643 7.86267 4.36325 8.68946C3.14405 9.50687 2.25018 10.6364 2.25018 12C2.25018 12.9936 2.73038 13.8703 3.45583 14.5803C4.17837 15.2875 5.17836 15.8675 6.33649 16.3024C6.72426 16.448 7.15667 16.2518 7.3023 15.864C7.44793 15.4762 7.25164 15.0438 6.86387 14.8982C5.83601 14.5122 5.03599 14.028 4.50504 13.5084C3.97699 12.9915 3.75018 12.4786 3.75018 12C3.75018 11.3486 4.18062 10.6178 5.19857 9.93535C6.20255 9.26223 7.666 8.72181 9.41654 8.4469C9.82574 8.38264 10.1054 7.99882 10.0411 7.58963Z" fill="black"/>
<path fill-rule="evenodd" clip-rule="evenodd" d="M13.9591 7.58969C13.8948 7.99888 14.1744 8.3827 14.5836 8.44696C16.3342 8.72187 17.7976 9.26229 18.8016 9.93541C19.8196 10.6179 20.25 11.3487 20.25 12C20.25 12.8055 19.5775 13.7367 18.0286 14.5112C16.5245 15.2632 14.3941 15.75 12 15.75C11.5858 15.75 11.25 16.0858 11.25 16.5C11.25 16.9142 11.5858 17.25 12 17.25C14.5765 17.25 16.9461 16.7295 18.6994 15.8528C20.4078 14.9986 21.75 13.6798 21.75 12C21.75 10.6365 20.8561 9.50694 19.6369 8.68952C18.4038 7.86273 16.7172 7.26363 14.8164 6.96512C14.4072 6.90086 14.0233 7.18049 13.9591 7.58969Z" fill="black"/>
<path fill-rule="evenodd" clip-rule="evenodd" d="M15.231 13.2695C14.9381 12.9766 14.4632 12.9766 14.1704 13.2695L11.4713 15.9685C11.3304 16.1094 11.2513 16.3004 11.2513 16.4996V16.5C11.2513 16.6992 11.3304 16.8902 11.4713 17.0311L14.1704 19.7301C14.4632 20.023 14.9381 20.023 15.231 19.7301C15.5239 19.4372 15.5239 18.9624 15.231 18.6695L13.0613 16.4998L15.231 14.3301C15.5239 14.0372 15.5239 13.5624 15.231 13.2695Z" fill="black"/>
<path fill-rule="evenodd" clip-rule="evenodd" d="M12 4.0498C11.5858 4.0498 11.25 4.38559 11.25 4.7998V4.8098C11.25 5.22402 11.5858 5.5598 12 5.5598C12.4142 5.5598 12.75 5.22402 12.75 4.8098V4.7998C12.75 4.38559 12.4142 4.0498 12 4.0498Z" fill="black"/>
<path fill-rule="evenodd" clip-rule="evenodd" d="M12 6.75C11.5858 6.75 11.25 7.08579 11.25 7.5V7.51C11.25 7.92421 11.5858 8.26 12 8.26C12.4142 8.26 12.75 7.92421 12.75 7.51V7.5C12.75 7.08579 12.4142 6.75 12 6.75Z" fill="black"/>
</svg>