<svg width="24" height="24" viewBox="0 0 24 24" fill="none" xmlns="http://www.w3.org/2000/svg">
<path fill-rule="evenodd" clip-rule="evenodd" d="M12 9.45026C12.4142 9.45026 12.75 9.78604 12.75 10.2003V10.2103C12.75 10.6245 12.4142 10.9603 12 10.9603C11.5858 10.9603 11.25 10.6245 11.25 10.2103V10.2003C11.25 9.78604 11.5858 9.45026 12 9.45026Z" fill="black"/>
<path fill-rule="evenodd" clip-rule="evenodd" d="M13.9594 7.58963C14.0236 7.18043 14.4075 6.9008 14.8167 6.96506C16.7175 7.26357 18.4041 7.86267 19.6372 8.68946C20.8564 9.50687 21.7503 10.6364 21.7503 12C21.7503 12.9936 21.2701 13.8703 20.5447 14.5803C19.8221 15.2875 18.8221 15.8675 17.664 16.3024C17.2762 16.448 16.8438 16.2518 16.6982 15.864C16.5526 15.4762 16.7488 15.0438 17.1366 14.8982C18.1645 14.5122 18.9645 14.028 19.4955 13.5084C20.0235 12.9915 20.2503 12.4786 20.2503 12C20.2503 11.3486 19.8199 10.6178 18.8019 9.93535C17.7979 9.26223 16.3345 8.72181 14.5839 8.4469C14.1748 8.38264 13.8951 7.99882 13.9594 7.58963Z" fill="black"/>
<path fill-rule="evenodd" clip-rule="evenodd" d="M10.0409 7.58963C10.1052 7.99882 9.82555 8.38264 9.41635 8.4469C7.66582 8.72181 6.20236 9.26223 5.19838 9.93535C4.18043 10.6178 3.75 11.3486 3.75 12C3.75 12.8055 4.4225 13.7367 5.97145 14.5111C7.47554 15.2632 9.60591 15.75 12 15.75C12.4142 15.75 12.75 16.0858 12.75 16.5C12.75 16.9142 12.4142 17.25 12 17.25C9.42353 17.25 7.0539 16.7294 5.30063 15.8528C3.59222 14.9986 2.25 13.6797 2.25 12C2.25 10.6364 3.14387 9.50687 4.36307 8.68946C5.59624 7.86267 7.28279 7.26357 9.18365 6.96506C9.59284 6.9008 9.97666 7.18043 10.0409 7.58963Z" fill="black"/>
<path fill-rule="evenodd" clip-rule="evenodd" d="M8.76947 13.2695C9.06237 12.9766 9.53724 12.9766 9.83013 13.2695L12.5292 15.9685C12.67 16.1094 12.7492 16.3004 12.7492 16.4996V16.5C12.7492 16.6992 12.67 16.8902 12.5292 17.0311L9.83013 19.7301C9.53724 20.023 9.06237 20.023 8.76947 19.7301C8.47658 19.4372 8.47658 18.9624 8.76947 18.6695L10.9391 16.4998L8.76947 14.3301C8.47658 14.0372 8.47658 13.5624 8.76947 13.2695Z" fill="black"/>
<path fill-rule="evenodd" clip-rule="evenodd" d="M12 4.0498C12.4142 4.0498 12.75 4.38559 12.75 4.7998V4.8098C12.75 5.22402 12.4142 5.5598 12 5.5598C11.5858 5.5598 11.25 5.22402 11.25 4.8098V4.7998C11.25 4.38559 11.5858 4.0498 12 4.0498Z" fill="black"/>
<path fill-rule="evenodd" clip-rule="evenodd" d="M12 6.75012C12.4142 6.75012 12.75 7.08591 12.75 7.50012V7.51012C12.75 7.92434 12.4142 8.26012 12 8.26012C11.5858 8.26012 11.25 7.92434 11.25 7.51012V7.50012C11.25 7.08591 11.5858 6.75012 12 6.75012Z" fill="black"/>
</svg>