<svg width="25" height="24" viewBox="0 0 25 24" fill="none" xmlns="http://www.w3.org/2000/svg">
<path opacity="0.4" fill-rule="evenodd" clip-rule="evenodd" d="M15.8512 11.4882C15.8726 12.1226 15.6167 12.7346 15.1915 13.2065L14.526 13.9459C14.1018 14.4178 13.8605 15.0298 13.8663 15.6642C13.8819 17.2064 14.4627 21 16.9643 21C19.4658 21 20.0457 17.2064 20.0612 15.6642C20.068 15.0298 19.8267 14.4178 19.4016 13.9459L18.736 13.2065C18.3118 12.7346 18.055 12.1226 18.0764 11.4882C18.1425 9.55297 18.4422 7.08551 18.6105 4.728C18.6777 3.78032 17.8273 3 16.9643 3C16.1003 3 15.2509 3.78032 15.318 4.728C15.4853 7.08551 15.785 9.55297 15.8512 11.4882Z" stroke="black" stroke-width="1.5" stroke-linecap="round" stroke-linejoin="round"/>
<path d="M11.0654 3C11.1316 4.4867 11.2046 5.97243 11.2639 7.45914C11.3019 8.42043 10.973 9.24941 10.2511 9.88768C9.26545 10.7604 9.02221 11.8356 9.1555 13.1102C9.40167 15.4609 9.58167 16.8551 9.74902 19.2126C9.81615 20.1594 8.96577 20.9406 8.10275 20.9406C7.23972 20.9406 6.38934 20.1594 6.45648 19.2126C6.62383 16.8551 6.80383 15.4609 7.04999 13.1102C7.18329 11.8356 6.94102 10.7604 5.95442 9.88768C5.23345 9.24941 4.90361 8.42043 4.94253 7.45914C5.00091 5.97243 5.07388 4.4867 5.14004 3" stroke="black" stroke-width="1.5" stroke-linecap="round" stroke-linejoin="round"/>
<path d="M8.09766 6.60494L8.10739 3.07791" stroke="black" stroke-width="1.5" stroke-linecap="round" stroke-linejoin="round"/>
</svg>