<svg width="24" height="24" viewBox="0 0 24 24" fill="none" xmlns="http://www.w3.org/2000/svg">
<path fill-rule="evenodd" clip-rule="evenodd" d="M15.96 12.2192C15.85 14.2292 14.25 15.8392 12.24 15.9592C12.56 14.0592 14.06 12.5492 15.96 12.2192ZM13.27 8.23922C14.44 8.62922 15.37 9.56922 15.76 10.7392C13.19 11.1592 11.16 13.1992 10.75 15.7692C9.57 15.3792 8.63 14.4392 8.24 13.2592C10.81 12.8492 12.85 10.8092 13.27 8.23922ZM8.04 11.7692C8.15 9.75922 9.77 8.14922 11.78 8.03922C11.45 9.93922 9.95 11.4492 8.04 11.7692ZM21.04 13.6592C20.95 13.5892 20.81 13.5192 20.29 13.2392C19.82 12.9892 19.54 12.5292 19.54 11.9992C19.54 11.4692 19.82 11.0092 20.35 10.7292C20.84 10.4692 20.96 10.4092 21.05 10.3392C21.33 10.1092 21.4 9.97922 21.48 9.61922C21.49 9.53922 21.5 9.39922 21.5 9.10922C21.5 7.97922 21.5 7.40922 21.35 6.89922C20.99 5.65922 20.04 4.70922 18.8 4.34922C18.29 4.19922 17.72 4.19922 16.59 4.19922H7.41C6.28 4.19922 5.71 4.19922 5.2 4.34922C3.96 4.70922 3.01 5.66922 2.65 6.90922C2.5 7.41922 2.5 7.97922 2.5 9.13922C2.5 9.39922 2.51 9.53922 2.53 9.62922C2.6 9.97922 2.68 10.1092 2.96 10.3392C3.05 10.4092 3.17 10.4692 3.71 10.7592C4.18 11.0092 4.46 11.4692 4.46 12.0392C4.44 12.5292 4.16 12.9792 3.73 13.2192C3.17 13.5292 3.03 13.5992 2.94 13.6792C2.66 13.9092 2.59 14.0192 2.52 14.3892C2.51 14.4692 2.5 14.6092 2.5 14.8992C2.5 16.0192 2.5 16.5892 2.65 17.0992C3 18.3392 3.96 19.2892 5.2 19.6492C5.71 19.7992 6.28 19.7992 7.4 19.7992H16.59C17.72 19.7992 18.29 19.7992 18.8 19.6492C20.04 19.2892 20.99 18.3392 21.35 17.0992C21.5 16.5892 21.5 16.0192 21.5 14.8892C21.5 14.6092 21.49 14.4692 21.48 14.3692C21.4 14.0192 21.33 13.8892 21.04 13.6592Z" fill="black"/>
<path fill-rule="evenodd" clip-rule="evenodd" d="M15.96 12.2192C15.85 14.2292 14.25 15.8392 12.24 15.9592C12.56 14.0592 14.06 12.5492 15.96 12.2192ZM13.27 8.23922C14.44 8.62922 15.37 9.56922 15.76 10.7392C13.19 11.1592 11.16 13.1992 10.75 15.7692C9.57 15.3792 8.63 14.4392 8.24 13.2592C10.81 12.8492 12.85 10.8092 13.27 8.23922ZM8.04 11.7692C8.15 9.75922 9.77 8.14922 11.78 8.03922C11.45 9.93922 9.95 11.4492 8.04 11.7692ZM21.04 13.6592C20.95 13.5892 20.81 13.5192 20.29 13.2392C19.82 12.9892 19.54 12.5292 19.54 11.9992C19.54 11.4692 19.82 11.0092 20.35 10.7292C20.84 10.4692 20.96 10.4092 21.05 10.3392C21.33 10.1092 21.4 9.97922 21.48 9.61922C21.49 9.53922 21.5 9.39922 21.5 9.10922C21.5 7.97922 21.5 7.40922 21.35 6.89922C20.99 5.65922 20.04 4.70922 18.8 4.34922C18.29 4.19922 17.72 4.19922 16.59 4.19922H7.41C6.28 4.19922 5.71 4.19922 5.2 4.34922C3.96 4.70922 3.01 5.66922 2.65 6.90922C2.5 7.41922 2.5 7.97922 2.5 9.13922C2.5 9.39922 2.51 9.53922 2.53 9.62922C2.6 9.97922 2.68 10.1092 2.96 10.3392C3.05 10.4092 3.17 10.4692 3.71 10.7592C4.18 11.0092 4.46 11.4692 4.46 12.0392C4.44 12.5292 4.16 12.9792 3.73 13.2192C3.17 13.5292 3.03 13.5992 2.94 13.6792C2.66 13.9092 2.59 14.0192 2.52 14.3892C2.51 14.4692 2.5 14.6092 2.5 14.8992C2.5 16.0192 2.5 16.5892 2.65 17.0992C3 18.3392 3.96 19.2892 5.2 19.6492C5.71 19.7992 6.28 19.7992 7.4 19.7992H16.59C17.72 19.7992 18.29 19.7992 18.8 19.6492C20.04 19.2892 20.99 18.3392 21.35 17.0992C21.5 16.5892 21.5 16.0192 21.5 14.8892C21.5 14.6092 21.49 14.4692 21.48 14.3692C21.4 14.0192 21.33 13.8892 21.04 13.6592Z" fill="black"/>
</svg>