<svg width="24" height="24" viewBox="0 0 24 24" fill="none" xmlns="http://www.w3.org/2000/svg">
<path fill-rule="evenodd" clip-rule="evenodd" d="M2.25 12C2.25 6.61487 6.61487 2.25 12 2.25C17.3851 2.25 21.75 6.61487 21.75 12C21.75 17.3851 17.3851 21.75 12 21.75C6.61487 21.75 2.25 17.3851 2.25 12ZM12 3.75C7.44329 3.75 3.75 7.44329 3.75 12C3.75 16.5567 7.44329 20.25 12 20.25C16.5567 20.25 20.25 16.5567 20.25 12C20.25 7.44329 16.5567 3.75 12 3.75Z" fill="black"/>
<path fill-rule="evenodd" clip-rule="evenodd" d="M14.1379 16.0672C12.663 15.1422 10.8784 14.9209 9.26822 15.5267C8.88054 15.6726 8.44802 15.4765 8.30215 15.0889C8.15629 14.7012 8.35232 14.2687 8.74 14.1228C10.8174 13.3412 13.0901 13.6394 14.9349 14.7965C15.2858 15.0166 15.3919 15.4795 15.1718 15.8304C14.9517 16.1813 14.4888 16.2873 14.1379 16.0672Z" fill="black"/>
<path fill-rule="evenodd" clip-rule="evenodd" d="M15.1219 13.5575C13.2208 12.2354 10.7113 11.9837 8.4209 12.7821C8.02976 12.9184 7.60216 12.7119 7.46582 12.3207C7.32949 11.9296 7.53604 11.502 7.92717 11.3656C10.6164 10.4283 13.6373 10.698 15.9783 12.326C16.3184 12.5625 16.4024 13.0299 16.1659 13.3699C15.9294 13.71 15.462 13.794 15.1219 13.5575Z" fill="black"/>
<path fill-rule="evenodd" clip-rule="evenodd" d="M16.6172 11.1176C13.8642 9.33615 10.3295 8.9306 7.23269 10.0646C6.84374 10.207 6.41297 10.0071 6.27054 9.61816C6.12812 9.2292 6.32797 8.79843 6.71693 8.65601C10.2577 7.35948 14.285 7.82181 17.4321 9.85829C17.7799 10.0833 17.8793 10.5477 17.6543 10.8954C17.4293 11.2432 16.965 11.3427 16.6172 11.1176Z" fill="black"/>
</svg>