<svg width="24" height="24" viewBox="0 0 24 24" fill="none" xmlns="http://www.w3.org/2000/svg">
<path d="M6.30097 6.1086C6.99116 5.45244 7.95584 5.14258 9.06484 5.14258H14.9406C16.0524 5.14258 17.0176 5.45222 17.7067 6.10904C18.3995 6.76942 18.7484 7.71883 18.7455 8.86479V15.1973C18.7455 16.3434 18.3949 17.2939 17.7017 17.9556C17.012 18.6138 16.0467 18.9255 14.9341 18.9255H9.06484C7.95276 18.9255 6.987 18.6071 6.29743 17.9385C5.6054 17.2675 5.25452 16.305 5.25452 15.1444V8.86425C5.25452 7.7175 5.60692 6.76842 6.30097 6.1086Z" fill="black"/>
<g opacity="0.4">
<path d="M17.0065 5.63651C17.0926 6.04169 16.8338 6.43989 16.4286 6.52591C16.0235 6.61193 15.6253 6.35319 15.5392 5.94801L15.0613 3.69666C14.9531 3.18509 14.5002 2.81787 13.9766 2.81787H10.022C9.49739 2.81787 9.04528 3.1842 8.93609 3.69736L8.45829 5.94801C8.37227 6.35319 7.97407 6.61193 7.56889 6.52591C7.16371 6.43989 6.90497 6.04169 6.99099 5.63651L7.46888 3.38546C7.72518 2.17978 8.78876 1.31787 10.022 1.31787H13.9766C15.2088 1.31787 16.2738 2.18094 16.5288 3.38616L17.0065 5.63651Z" fill="black"/>
<path d="M17.0065 18.4312C17.0926 18.026 16.8338 17.6278 16.4286 17.5418C16.0235 17.4558 15.6253 17.7145 15.5392 18.1197L15.0613 20.3711C14.9531 20.8826 14.5002 21.2499 13.9766 21.2499H10.022C9.49739 21.2499 9.04528 20.8835 8.93609 20.3704L8.45829 18.1197C8.37227 17.7145 7.97407 17.4558 7.56889 17.5418C7.16371 17.6278 6.90497 18.026 6.99099 18.4312L7.46888 20.6823C7.72518 21.888 8.78876 22.7499 10.022 22.7499H13.9766C15.2088 22.7499 16.2738 21.8868 16.5288 20.6816L17.0065 18.4312Z" fill="black"/>
</g>
</svg>