<svg width="24" height="24" viewBox="0 0 24 24" fill="none" xmlns="http://www.w3.org/2000/svg">
<path fill-rule="evenodd" clip-rule="evenodd" d="M14.456 8.017C14.296 8.399 13.856 8.58 13.474 8.415C11.714 7.674 9.604 8.418 8.67 10.057C8.531 10.299 8.278 10.435 8.018 10.435C7.892 10.435 7.765 10.404 7.646 10.336C7.287 10.131 7.162 9.673 7.367 9.313C8.316 7.649 10.092 6.615 12.001 6.615C12.707 6.615 13.399 6.756 14.058 7.035C14.439 7.196 14.618 7.635 14.456 8.017ZM10.158 14.015C10.572 14.015 10.908 14.351 10.908 14.765V16.385C10.908 16.799 10.572 17.135 10.158 17.135C9.744 17.135 9.408 16.799 9.408 16.385V14.765C9.408 14.351 9.744 14.015 10.158 14.015ZM8.173 15.345C8.173 15.759 7.837 16.095 7.423 16.095C7.009 16.095 6.673 15.759 6.673 15.345V12.505C6.673 12.091 7.009 11.755 7.423 11.755C7.837 11.755 8.173 12.091 8.173 12.505V15.345ZM16.218 2.375H7.782C4.623 2.375 2.5 4.598 2.5 7.906V15.845C2.5 19.153 4.623 21.375 7.782 21.375H13.5956C13.8529 21.375 13.9969 21.0666 13.8536 20.8529C13.3682 20.1289 13.045 19.2411 13.045 18.175C13.045 17.605 13.037 17.191 13.032 16.887C13.029 16.744 13.028 16.599 13.029 16.455C13.026 16.431 13.015 16.41 13.015 16.385V12.115C13.015 11.531 12.542 11.055 11.96 11.055C11.38 11.055 10.908 11.531 10.908 12.115V12.595C10.908 13.009 10.572 13.345 10.158 13.345C9.744 13.345 9.408 13.009 9.408 12.595V12.115C9.408 10.704 10.553 9.555 11.96 9.555C13.368 9.555 14.515 10.704 14.515 12.115V13.123C14.515 13.3534 14.7657 13.5007 14.9741 13.4028C15.183 13.3046 15.4037 13.2124 15.6294 13.1276C15.7486 13.0829 15.829 12.9699 15.829 12.8426V11.945C15.829 11.151 15.588 10.387 15.13 9.736C14.893 9.397 14.975 8.929 15.313 8.691C15.652 8.454 16.12 8.537 16.358 8.874C16.993 9.78 17.329 10.841 17.329 11.945V12.2708C17.329 12.4596 17.5009 12.5991 17.688 12.5739C17.777 12.5619 17.8541 12.555 17.914 12.555C18.423 12.555 19.9357 12.9403 21.0239 13.4806C21.2357 13.5858 21.5 13.4369 21.5 13.2004V7.906C21.5 4.598 19.377 2.375 16.218 2.375Z" fill="black"/>
<path fill-rule="evenodd" clip-rule="evenodd" d="M19.5477 16.8287C19.5417 17.1457 19.5337 17.5787 19.5337 18.1757C19.5337 19.2717 18.4027 19.8687 17.9137 20.0747C17.4257 19.8687 16.2947 19.2717 16.2947 18.1757C16.2947 17.5787 16.2867 17.1457 16.2807 16.8287C16.2767 16.6227 16.2727 16.4747 16.2727 16.3647C16.7067 16.1737 17.6917 15.8347 17.8737 15.8037C18.1357 15.8367 19.2067 16.2027 19.5567 16.3447C19.5577 16.4557 19.5517 16.6087 19.5477 16.8287ZM17.9137 14.3057C17.5097 14.3057 15.5067 14.9367 15.1187 15.3247C14.7607 15.6827 14.7667 16.0267 14.7807 16.8547C14.7867 17.1667 14.7947 17.5907 14.7947 18.1757C14.7947 20.6827 17.5767 21.5577 17.6957 21.5937C17.7677 21.6147 17.8407 21.6257 17.9137 21.6257C17.9867 21.6257 18.0607 21.6147 18.1317 21.5937C18.2497 21.5577 21.0337 20.6827 21.0337 18.1757C21.0337 17.5907 21.0417 17.1667 21.0477 16.8547C21.0627 16.0267 21.0687 15.6827 20.7097 15.3247C20.3217 14.9367 18.3187 14.3057 17.9137 14.3057Z" fill="black"/>
</svg>