<svg width="24" height="24" viewBox="0 0 24 24" fill="none" xmlns="http://www.w3.org/2000/svg">
<path opacity="0.4" d="M21.4841 7.906V13.5898C21.4841 13.7831 21.3041 13.9256 21.1138 13.8916C19.4845 13.6002 16.3085 13.9832 15.0374 15.0442C13.2837 16.508 12.0342 18.6667 12.2687 21.0318C12.2867 21.2134 12.1472 21.375 11.9647 21.375H7.76613C4.60713 21.375 2.48413 19.153 2.48413 15.845V7.906C2.48413 4.598 4.60713 2.375 7.76613 2.375H16.2011C19.3611 2.375 21.4841 4.598 21.4841 7.906Z" fill="black"/>
<path d="M8.6588 10.0413C9.31802 8.882 10.5636 8.10156 11.9898 8.10156C12.5132 8.10156 13.011 8.20694 13.4645 8.39653C13.8467 8.55629 14.286 8.376 14.4458 7.99383C14.6055 7.61167 14.4253 7.17235 14.0431 7.01259C13.4106 6.74818 12.7164 6.60156 11.9898 6.60156C10.0021 6.60156 8.26965 7.69112 7.35487 9.29983C7.15012 9.6599 7.27603 10.1178 7.6361 10.3225C7.99617 10.5273 8.45405 10.4014 8.6588 10.0413Z" fill="black"/>
<path d="M15.8184 14.5675V11.93C15.8184 11.1077 15.5602 10.348 15.1207 9.72555C14.8818 9.38717 14.9624 8.91919 15.3008 8.68029C15.6392 8.44138 16.1072 8.52202 16.3461 8.86039C16.9586 9.72797 17.3184 10.7883 17.3184 11.93V14.0806C16.7732 14.2032 16.2569 14.3655 15.8184 14.5675Z" fill="black"/>
<path d="M13.0034 17.5111V12.097C13.0034 11.5149 12.532 11.043 11.9495 11.043C11.3695 11.043 10.8975 11.5144 10.8975 12.097V12.58C10.8975 12.9942 10.5617 13.33 10.1475 13.33C9.73325 13.33 9.39746 12.9942 9.39746 12.58V12.097C9.39746 10.6875 10.5394 9.54297 11.9495 9.54297C13.3609 9.54297 14.5034 10.687 14.5034 12.097V15.5257C13.9072 16.11 13.3914 16.7796 13.0034 17.5111Z" fill="black"/>
<path d="M7.41113 11.7422C7.82535 11.7422 8.16113 12.078 8.16113 12.4922V15.3282C8.16113 15.7424 7.82535 16.0782 7.41113 16.0782C6.99692 16.0782 6.66113 15.7424 6.66113 15.3282V12.4922C6.66113 12.078 6.99692 11.7422 7.41113 11.7422Z" fill="black"/>
<path d="M10.1475 13.9961C10.5617 13.9961 10.8975 14.3319 10.8975 14.7461V16.3691C10.8975 16.7833 10.5617 17.1191 10.1475 17.1191C9.73325 17.1191 9.39746 16.7833 9.39746 16.3691V14.7461C9.39746 14.3319 9.73325 13.9961 10.1475 13.9961Z" fill="black"/>
<path d="M20.2358 16.3535C20.5288 16.0605 21.0038 16.0605 21.2968 16.3535C21.5888 16.6465 21.5888 17.1225 21.2968 17.4145L17.3018 21.4045C17.1618 21.5445 16.9708 21.6245 16.7718 21.6245C16.5718 21.6245 16.3808 21.5445 16.2408 21.4035L14.6448 19.8025C14.3518 19.5095 14.3528 19.0355 14.6458 18.7425C14.9388 18.4505 15.4138 18.4505 15.7058 18.7445L16.5608 19.6003C16.6779 19.7175 16.8679 19.7176 16.9851 19.6006L20.2358 16.3535Z" fill="black"/>
</svg>