<svg width="24" height="24" viewBox="0 0 24 24" fill="none" xmlns="http://www.w3.org/2000/svg">
<path opacity="0.4" fill-rule="evenodd" clip-rule="evenodd" d="M16.217 2.5H7.783C4.623 2.5 2.5 4.719 2.5 8.02V15.97C2.5 19.277 4.623 21.5 7.783 21.5H16.216C19.376 21.5 21.5 19.277 21.5 15.97V8.02C21.5 4.719 19.377 2.5 16.217 2.5Z" fill="black"/>
<path fill-rule="evenodd" clip-rule="evenodd" d="M14.1575 10.6075C14.1575 9.42041 13.1911 8.45312 12.0005 8.45312C10.8089 8.45312 9.84253 9.42041 9.84253 10.6075C9.84253 11.3198 10.1916 11.9442 10.7236 12.3399L10.0553 14.3536C9.86012 14.9427 10.3007 15.5495 10.9241 15.5495H13.0768C13.7002 15.5495 14.1408 14.9427 13.9447 14.3536L13.2764 12.3399C13.8084 11.9442 14.1575 11.3198 14.1575 10.6075Z" fill="black"/>
</svg>