<svg width="25" height="24" viewBox="0 0 25 24" fill="none" xmlns="http://www.w3.org/2000/svg">
<path fill-rule="evenodd" clip-rule="evenodd" d="M9.51855 21C9.51855 20.5858 9.85434 20.25 10.2686 20.25H14.2313C14.6455 20.25 14.9813 20.5858 14.9813 21C14.9813 21.4142 14.6455 21.75 14.2313 21.75H10.2686C9.85434 21.75 9.51855 21.4142 9.51855 21Z" fill="black"/>
<path fill-rule="evenodd" clip-rule="evenodd" d="M3.17364 16.1723C3.58387 16.115 3.9629 16.4011 4.02022 16.8113C4.28871 18.7327 5.52346 20.0157 7.4111 20.2363C7.82251 20.2844 8.11705 20.6569 8.06896 21.0683C8.02087 21.4797 7.64838 21.7742 7.23696 21.7262C4.61972 21.4202 2.89022 19.5634 2.53465 17.0189C2.47733 16.6087 2.76341 16.2297 3.17364 16.1723Z" fill="black"/>
<path fill-rule="evenodd" clip-rule="evenodd" d="M21.2833 16.1723C21.6935 16.2297 21.9796 16.6087 21.9223 17.0189C21.567 19.5612 19.8491 21.42 17.2297 21.7262C16.8183 21.7742 16.4458 21.4797 16.3977 21.0683C16.3496 20.6569 16.6442 20.2844 17.0556 20.2363C18.9411 20.0159 20.1679 18.735 20.4367 16.8113C20.494 16.4011 20.8731 16.115 21.2833 16.1723Z" fill="black"/>
<path fill-rule="evenodd" clip-rule="evenodd" d="M21.25 9.26855C21.6642 9.26855 22 9.60434 22 10.0186V13.9813C22 14.3955 21.6642 14.7313 21.25 14.7313C20.8358 14.7313 20.5 14.3955 20.5 13.9813V10.0186C20.5 9.60434 20.8358 9.26855 21.25 9.26855Z" fill="black"/>
<path fill-rule="evenodd" clip-rule="evenodd" d="M9.51953 3C9.51953 2.58579 9.85532 2.25 10.2695 2.25H14.2323C14.6465 2.25 14.9823 2.58579 14.9823 3C14.9823 3.41421 14.6465 3.75 14.2323 3.75H10.2695C9.85532 3.75 9.51953 3.41421 9.51953 3Z" fill="black"/>
<path fill-rule="evenodd" clip-rule="evenodd" d="M3.25 9.26855C3.66421 9.26855 4 9.60434 4 10.0186V13.9813C4 14.3955 3.66421 14.7313 3.25 14.7313C2.83579 14.7313 2.5 14.3955 2.5 13.9813V10.0186C2.5 9.60434 2.83579 9.26855 3.25 9.26855Z" fill="black"/>
<path fill-rule="evenodd" clip-rule="evenodd" d="M8.06896 2.93253C8.11705 3.34395 7.82251 3.71644 7.4111 3.76453C5.52557 3.98492 4.28902 5.27565 4.02022 7.19925C3.9629 7.60947 3.58387 7.89556 3.17364 7.83823C2.76341 7.78091 2.47733 7.40188 2.53465 6.99166C2.88991 4.44937 4.61761 2.58083 7.23696 2.27467C7.64838 2.22659 8.02087 2.52112 8.06896 2.93253Z" fill="black"/>
<path fill-rule="evenodd" clip-rule="evenodd" d="M16.3977 2.93253C16.4458 2.52112 16.8183 2.22659 17.2297 2.27467C19.8512 2.58108 21.5673 4.45164 21.9223 6.99166C21.9796 7.40188 21.6935 7.78091 21.2833 7.83823C20.8731 7.89556 20.494 7.60947 20.4367 7.19925C20.1676 5.27338 18.939 3.98467 17.0556 3.76453C16.6442 3.71644 16.3496 3.34395 16.3977 2.93253Z" fill="black"/>
</svg>