<svg width="24" height="24" viewBox="0 0 24 24" fill="none" xmlns="http://www.w3.org/2000/svg">
<path fill-rule="evenodd" clip-rule="evenodd" d="M13.3339 10.6493C13.3339 9.91731 12.7349 9.32031 11.9989 9.32031C11.2629 9.32031 10.6639 9.91731 10.6639 10.6493C10.6639 11.0773 10.8639 11.4693 11.2119 11.7263C11.4739 11.9203 11.5809 12.2583 11.4789 12.5663L10.8329 14.5063C10.8179 14.5483 10.8249 14.5873 10.8509 14.6243C10.8689 14.6493 10.9019 14.6793 10.9589 14.6793H13.0399C13.0969 14.6793 13.1309 14.6493 13.1489 14.6243C13.1749 14.5883 13.1809 14.5493 13.1669 14.5093L12.5219 12.5663C12.4189 12.2583 12.5259 11.9203 12.7879 11.7263C13.1349 11.4703 13.3339 11.0783 13.3339 10.6493Z" fill="black"/>
<path fill-rule="evenodd" clip-rule="evenodd" d="M11.251 16.472C11.251 16.3107 11.1203 16.18 10.959 16.18C10.436 16.18 9.939 15.926 9.634 15.5C9.328 15.076 9.244 14.528 9.41 14.033L9.84598 12.7197C9.87999 12.6173 9.85534 12.5052 9.78806 12.4208C9.38999 11.9215 9.164 11.2971 9.164 10.65C9.164 9.43005 9.94601 8.39856 11.0324 8.00343C11.1592 7.9573 11.25 7.84049 11.25 7.70551L11.2509 2.80005C11.251 2.63435 11.1167 2.5 10.9509 2.5H7.782C4.623 2.5 2.5 4.719 2.5 8.021V15.97C2.5 19.278 4.623 21.5 7.782 21.5H10.951C11.1167 21.5 11.251 21.3657 11.251 21.2V16.472Z" fill="black"/>
<path opacity="0.4" fill-rule="evenodd" clip-rule="evenodd" d="M16.217 2.5H13.0509C12.8852 2.5 12.7509 2.63428 12.7509 2.79994L12.75 7.70561C12.75 7.84054 12.8407 7.95735 12.9675 8.00356C14.0537 8.39947 14.834 9.43088 14.834 10.649C14.834 11.296 14.6089 11.9219 14.2112 12.4207C14.1438 12.5052 14.119 12.6174 14.1531 12.72L14.59 14.034C14.755 14.526 14.672 15.075 14.367 15.499C14.061 15.926 13.565 16.18 13.04 16.18C12.8803 16.18 12.751 16.3094 12.751 16.469V21.2C12.751 21.3657 12.8853 21.5 13.051 21.5H16.216C19.376 21.5 21.5 19.277 21.5 15.97V8.021C21.5 4.719 19.377 2.5 16.217 2.5Z" fill="black"/>
</svg>