<svg width="25" height="25" viewBox="0 0 25 25" fill="none" xmlns="http://www.w3.org/2000/svg">
<path fill-rule="evenodd" clip-rule="evenodd" d="M5.08747 5.88682C4.41026 6.61331 4 7.67606 4 8.9928V16.9408C4 18.2585 4.40859 19.3211 5.08445 20.0471C5.75466 20.7671 6.74327 21.2168 8.03198 21.2168H16.466C17.7553 21.2168 18.7444 20.767 19.415 20.047C20.0912 19.321 20.5 18.2584 20.5 16.9408V8.9928C20.5 7.67521 20.0912 6.61259 19.4151 5.88653C18.7446 5.16651 17.7557 4.7168 16.467 4.7168H8.03198C6.74828 4.7168 5.75924 5.16618 5.08747 5.88682ZM3.99026 4.86402C4.97473 3.80792 6.37669 3.2168 8.03198 3.2168H16.467C18.1263 3.2168 19.5288 3.80758 20.5129 4.86431C21.4913 5.915 22 7.36539 22 8.9928V16.9408C22 18.5682 21.4913 20.0186 20.5127 21.0693C19.5285 22.1261 18.1257 22.7168 16.466 22.7168H8.03198C6.37269 22.7168 4.97031 22.126 3.98654 21.0692C3.0084 20.0185 2.5 18.5681 2.5 16.9408V8.9928C2.5 7.36454 3.01123 5.91429 3.99026 4.86402Z" fill="black"/>
<path fill-rule="evenodd" clip-rule="evenodd" d="M9.41797 11.6221C9.41797 10.0557 10.688 8.78711 12.253 8.78711C13.8187 8.78711 15.089 10.0554 15.089 11.6221C15.089 12.3577 14.807 13.0212 14.3522 13.5203L14.8447 15.0015C15.1953 16.0589 14.4095 17.1511 13.295 17.1511H11.213C10.0986 17.1511 9.31244 16.0595 9.66309 15.0021L10.1557 13.5204C9.70086 13.0216 9.41797 12.3582 9.41797 11.6221ZM12.253 10.2871C11.516 10.2871 10.918 10.8846 10.918 11.6221C10.918 12.0577 11.1302 12.4443 11.4655 12.6911C11.7274 12.8838 11.8352 13.2232 11.7327 13.5317L11.0869 15.4742C11.0868 15.4742 11.0869 15.4741 11.0869 15.4742C11.0576 15.5626 11.1235 15.6511 11.213 15.6511H13.295C13.3844 15.6511 13.4503 15.5629 13.4212 15.4744C13.4211 15.4743 13.4212 15.4745 13.4212 15.4744L12.7753 13.5317C12.6727 13.2232 12.7806 12.8838 13.0424 12.6911C13.3771 12.4447 13.589 12.0584 13.589 11.6221C13.589 10.8848 12.9912 10.2871 12.253 10.2871Z" fill="black"/>
</svg>