<svg width="25" height="24" viewBox="0 0 25 24" fill="none" xmlns="http://www.w3.org/2000/svg">
<path fill-rule="evenodd" clip-rule="evenodd" d="M3.9902 3.89737C4.97468 2.84117 6.37669 2.25 8.03216 2.25H16.4669C18.1262 2.25 19.5288 2.84084 20.5129 3.89765C21.4913 4.94841 22 6.39889 22 8.02638V15.9736C22 17.6011 21.4913 19.0516 20.5127 20.1024C19.5285 21.1592 18.1256 21.75 16.4659 21.75H8.03216C6.3728 21.75 4.97038 21.1591 3.98657 20.1023C3.00842 19.0515 2.5 17.601 2.5 15.9736V8.02638C2.5 6.39806 3.01117 4.94771 3.9902 3.89737ZM5.08745 4.92012C4.41024 5.64666 4 6.70951 4 8.02638V15.9736C4 17.2914 4.40861 18.3541 5.08451 19.0802C5.75475 19.8003 6.74341 20.25 8.03216 20.25H16.4659C17.7552 20.25 18.7444 19.8002 19.415 19.0801C20.0912 18.354 20.5 17.2913 20.5 15.9736V8.02638C20.5 6.70868 20.0912 5.64597 19.4151 4.91984C18.7446 4.19975 17.7556 3.75 16.4669 3.75H8.03216C6.74828 3.75 5.75921 4.19943 5.08745 4.92012Z" fill="black"/>
<path fill-rule="evenodd" clip-rule="evenodd" d="M12.0827 7.1457C12.3121 6.98564 12.6114 6.9665 12.8593 7.09605C14.159 7.77529 15.3199 8.75297 16.0092 10.1825C16.6724 11.4799 16.7411 12.9991 16.2494 14.275C15.7516 15.5668 14.67 16.6188 13.0775 16.8884C8.93337 17.7778 6.13312 12.7052 9.26432 9.71124C9.27062 9.70494 9.27735 9.69818 9.28447 9.69103C9.41221 9.56291 9.66802 9.30634 9.87371 9.1587C10.1022 8.99469 10.4032 8.97231 10.6535 9.10071C10.883 9.2185 11.0344 9.44499 11.0579 9.69872C11.0595 9.70554 11.0618 9.71458 11.0649 9.72604C11.0784 9.77544 11.1008 9.8471 11.1321 9.93673C11.1947 10.1153 11.2832 10.3373 11.3819 10.5494C11.4196 10.6306 11.4568 10.7059 11.4926 10.7741C11.6009 10.6197 11.6991 10.3789 11.7671 10.0111C11.8898 9.34759 11.8556 8.52932 11.7682 7.85749C11.7321 7.58014 11.8533 7.30576 12.0827 7.1457ZM11.0542 9.68205C11.0542 9.68209 11.0545 9.68349 11.055 9.68612C11.0544 9.68332 11.0541 9.68201 11.0542 9.68205ZM9.99812 11.1307C8.4926 13.075 10.2128 15.9798 12.7758 15.419C12.7885 15.4162 12.8013 15.4138 12.8141 15.4117C13.836 15.2431 14.5196 14.5923 14.8497 13.7356C15.1868 12.8608 15.145 11.7829 14.6703 10.859L14.6613 10.8408C14.3498 10.192 13.9002 9.65044 13.3452 9.19534C13.338 9.56042 13.3074 9.93096 13.2421 10.2838C13.087 11.1229 12.6699 12.1671 11.5706 12.4617C11.5486 12.4676 11.5263 12.4725 11.5038 12.4764C11.1439 12.5384 10.8748 12.3624 10.7575 12.2699C10.6242 12.1648 10.5191 12.0359 10.442 11.929C10.2837 11.7096 10.1391 11.4342 10.0218 11.1821C10.0138 11.165 10.0059 11.1478 9.99812 11.1307Z" fill="black"/>
</svg>