<svg width="24" height="24" viewBox="0 0 24 24" fill="none" xmlns="http://www.w3.org/2000/svg">
<path opacity="0.4" fill-rule="evenodd" clip-rule="evenodd" d="M16.216 2.5H7.782C4.623 2.5 2.5 4.722 2.5 8.03V15.97C2.5 19.277 4.623 21.5 7.782 21.5H16.215C19.376 21.5 21.5 19.277 21.5 15.97V8.03C21.5 4.722 19.377 2.5 16.216 2.5Z" fill="black"/>
<path fill-rule="evenodd" clip-rule="evenodd" d="M15.8181 14.682C15.2141 15.881 14.1521 16.663 12.8261 16.887C12.5051 16.955 12.1881 16.989 11.8771 16.989C10.3301 16.989 8.94007 16.165 8.18007 14.735C7.27507 13.029 7.60507 11.056 9.02007 9.70701C9.20107 9.52101 9.43107 9.29301 9.63107 9.15401C9.86107 8.99501 10.1601 8.97701 10.4071 9.10401C10.6551 9.23401 10.8101 9.49001 10.8101 9.76901C10.8461 9.91401 11.0651 10.444 11.2561 10.801C11.5681 10.351 11.6961 9.22001 11.5171 7.85701C11.4811 7.57901 11.6021 7.30501 11.8321 7.14501C12.0631 6.98401 12.3621 6.96601 12.6091 7.09501C14.0871 7.86801 15.1481 8.91101 15.7631 10.196C16.4811 11.591 16.5051 13.318 15.8181 14.682ZM11.3193 12.4641C12.4463 12.1631 13.0663 11.0001 13.0993 9.19807C13.6783 9.67407 14.1143 10.2231 14.4193 10.8621C14.9313 11.8581 14.9533 13.0631 14.4783 14.0071C14.2053 14.5491 13.6523 15.2311 12.5643 15.4091C12.5513 15.4121 12.5373 15.4141 12.5253 15.4171C11.0133 15.7511 9.95329 14.8761 9.50529 14.0311C9.09329 13.2541 8.96929 12.1291 9.74929 11.1311C9.96229 11.5901 10.2253 12.0311 10.4713 12.2411C10.7833 12.5071 11.0903 12.5051 11.3193 12.4641Z" fill="black"/>
</svg>