<svg width="25" height="25" viewBox="0 0 25 25" fill="none" xmlns="http://www.w3.org/2000/svg">
<path opacity="0.4" d="M21.4569 14.934V8.961C21.4569 6.03 19.631 3.95898 16.697 3.95898H8.30295C5.37695 3.95898 3.54297 6.03 3.54297 8.961V16.871C3.54297 19.802 5.36895 21.873 8.30295 21.873H12.823" stroke="black" stroke-width="1.5" stroke-linecap="round" stroke-linejoin="round"/>
<path d="M8.53711 10.7347C9.32111 9.35774 10.8021 8.42773 12.5011 8.42773C13.1221 8.42773 13.7171 8.55275 14.2571 8.77875" stroke="black" stroke-width="1.5" stroke-linecap="round" stroke-linejoin="round"/>
<path d="M16.2266 10.3613C16.7506 11.1033 17.0586 12.0083 17.0586 12.9863V15.7883" stroke="black" stroke-width="1.5" stroke-linecap="round" stroke-linejoin="round"/>
<path d="M7.94531 16.3708V13.5488" stroke="black" stroke-width="1.5" stroke-linecap="round" stroke-linejoin="round"/>
<path d="M14.256 17.4044V13.1524C14.256 12.1604 13.452 11.3574 12.461 11.3574C11.47 11.3574 10.666 12.1604 10.666 13.1524V13.6324" stroke="black" stroke-width="1.5" stroke-linecap="round" stroke-linejoin="round"/>
<path d="M10.666 17.4021V15.7871" stroke="black" stroke-width="1.5" stroke-linecap="round" stroke-linejoin="round"/>
<path d="M15.7012 20.3628L17.2982 21.9608L21.2922 17.9668" stroke="black" stroke-width="1.5" stroke-linecap="round" stroke-linejoin="round"/>
</svg>