<svg width="24" height="25" viewBox="0 0 24 25" fill="none" xmlns="http://www.w3.org/2000/svg">
<path d="M7.78198 3.9668H16.217C19.165 3.9668 21 6.0478 21 8.9928V16.9408C21 19.8858 19.165 21.9668 16.216 21.9668H7.78198C4.83398 21.9668 3 19.8858 3 16.9408V8.9928C3 6.0478 4.84298 3.9668 7.78198 3.9668Z" stroke="black" stroke-width="1.5" stroke-linecap="round" stroke-linejoin="round"/>
<path fill-rule="evenodd" clip-rule="evenodd" d="M13.233 13.2961C13.748 12.9161 14.084 12.3111 14.084 11.6221C14.084 10.4701 13.151 9.53711 11.999 9.53711C10.848 9.53711 9.91406 10.4701 9.91406 11.6221C9.91406 12.3111 10.252 12.9161 10.767 13.2961L10.121 15.2391C9.93103 15.8111 10.357 16.4011 10.959 16.4011H13.04C13.643 16.4011 14.069 15.8111 13.879 15.2391L13.233 13.2961Z" stroke="black" stroke-width="1.5" stroke-linecap="round" stroke-linejoin="round"/>
<path d="M3 13.3574H10.746M13.26 13.3574H21H13.26Z" stroke="black" stroke-width="1.5" stroke-linecap="round" stroke-linejoin="round"/>
</svg>