<svg width="24" height="24" viewBox="0 0 24 24" fill="none" xmlns="http://www.w3.org/2000/svg">
<path d="M13.598 8.267L8.14298 13.73C6.96698 14.908 5.05898 14.908 3.88298 13.73V13.73C2.70698 12.552 2.70698 10.642 3.88298 9.463L9.33798 4" stroke="black" stroke-width="1.5" stroke-linecap="round" stroke-linejoin="round"/>
<path d="M6.14258 11.4676L11.5976 6.00459C12.7736 4.82659 14.6816 4.82659 15.8576 6.00459" stroke="black" stroke-width="1.5" stroke-linecap="round" stroke-linejoin="round"/>
<path d="M10.4023 15.7332L15.8573 10.2702C17.0333 9.09222 18.9413 9.09222 20.1173 10.2702V10.2702C21.2933 11.4482 21.2933 13.3582 20.1173 14.5372L14.6623 20.0002" stroke="black" stroke-width="1.5" stroke-linecap="round" stroke-linejoin="round"/>
<path d="M17.8576 12.5352L12.4026 17.9982C11.2266 19.1762 9.31858 19.1762 8.14258 17.9982" stroke="black" stroke-width="1.5" stroke-linecap="round" stroke-linejoin="round"/>
</svg>