<svg width="25" height="24" viewBox="0 0 25 24" fill="none" xmlns="http://www.w3.org/2000/svg">
<path fill-rule="evenodd" clip-rule="evenodd" d="M12.25 3.75C7.69329 3.75 4 7.44329 4 12C4 16.5567 7.69329 20.25 12.25 20.25C16.8067 20.25 20.5 16.5567 20.5 12C20.5 7.44329 16.8067 3.75 12.25 3.75ZM2.5 12C2.5 6.61487 6.86487 2.25 12.25 2.25C17.6351 2.25 22 6.61487 22 12C22 17.3851 17.6351 21.75 12.25 21.75C6.86487 21.75 2.5 17.3851 2.5 12Z" fill="black"/>
<path fill-rule="evenodd" clip-rule="evenodd" d="M8.18359 10.9121C8.18359 10.4979 8.51938 10.1621 8.93359 10.1621H15.5683C15.9825 10.1621 16.3183 10.4979 16.3183 10.9121C16.3183 11.3263 15.9825 11.6621 15.5683 11.6621H8.93359C8.51938 11.6621 8.18359 11.3263 8.18359 10.9121Z" fill="black"/>
<path fill-rule="evenodd" clip-rule="evenodd" d="M8.18359 13.1465C8.18359 12.7323 8.51938 12.3965 8.93359 12.3965H15.5683C15.9825 12.3965 16.3183 12.7323 16.3183 13.1465C16.3183 13.5607 15.9825 13.8965 15.5683 13.8965H8.93359C8.51938 13.8965 8.18359 13.5607 8.18359 13.1465Z" fill="black"/>
<path fill-rule="evenodd" clip-rule="evenodd" d="M12.1396 12.4965C12.4998 12.7011 12.6259 13.1589 12.4213 13.5191L10.6933 16.5606C10.4886 16.9207 10.0308 17.0468 9.67066 16.8422C9.31051 16.6376 9.18443 16.1797 9.38904 15.8196L11.117 12.7781C11.3217 12.4179 11.7795 12.2918 12.1396 12.4965Z" fill="black"/>
<path fill-rule="evenodd" clip-rule="evenodd" d="M12.2136 12.4965C12.5738 12.2918 13.0316 12.4179 13.2362 12.7781L14.9642 15.8196C15.1688 16.1797 15.0427 16.6376 14.6826 16.8422C14.3225 17.0468 13.8646 16.9207 13.66 16.5606L11.932 13.5191C11.7274 13.1589 11.8535 12.7011 12.2136 12.4965Z" fill="black"/>
<path fill-rule="evenodd" clip-rule="evenodd" d="M9.67085 7.16042C10.0311 6.95591 10.4888 7.08213 10.6934 7.44233L12.4544 10.5442C12.6589 10.9044 12.5327 11.3622 12.1725 11.5667C11.8123 11.7712 11.3545 11.645 11.15 11.2848L9.38893 8.18293C9.18442 7.82272 9.31064 7.36493 9.67085 7.16042Z" fill="black"/>
<path fill-rule="evenodd" clip-rule="evenodd" d="M14.6823 7.16042C15.0425 7.36493 15.1687 7.82272 14.9642 8.18293L13.2031 11.2848C12.9986 11.645 12.5408 11.7712 12.1806 11.5667C11.8204 11.3622 11.6942 10.9044 11.8987 10.5442L13.6598 7.44233C13.8643 7.08213 14.3221 6.95591 14.6823 7.16042Z" fill="black"/>
</svg>