<svg width="24" height="24" viewBox="0 0 24 24" fill="none" xmlns="http://www.w3.org/2000/svg">
<path fill-rule="evenodd" clip-rule="evenodd" d="M6.7832 17.3008C6.7832 16.8866 7.11899 16.5508 7.5332 16.5508H15.7193C16.1335 16.5508 16.4693 16.8866 16.4693 17.3008C16.4693 17.715 16.1335 18.0508 15.7193 18.0508H7.5332C7.11899 18.0508 6.7832 17.715 6.7832 17.3008Z" fill="black"/>
<path fill-rule="evenodd" clip-rule="evenodd" d="M6.96418 13.1341C7.05623 12.7302 7.45825 12.4775 7.8621 12.5695L15.8435 14.3888C16.2474 14.4809 16.5001 14.8829 16.4081 15.2868C16.316 15.6906 15.914 15.9434 15.5101 15.8513L7.52873 14.032C7.12488 13.9399 6.87212 13.5379 6.96418 13.1341Z" fill="black"/>
<path fill-rule="evenodd" clip-rule="evenodd" d="M8.37976 9.21815C8.54622 8.83885 8.98863 8.66631 9.36793 8.83276L16.864 12.1224C17.2433 12.2888 17.4158 12.7313 17.2494 13.1106C17.0829 13.4899 16.6405 13.6624 16.2612 13.4959L8.76515 10.2063C8.38585 10.0399 8.21331 9.59745 8.37976 9.21815Z" fill="black"/>
<path fill-rule="evenodd" clip-rule="evenodd" d="M10.8363 5.48624C11.0985 5.16555 11.571 5.11811 11.8917 5.38027L18.2295 10.5615C18.5502 10.8236 18.5977 11.2961 18.3355 11.6168C18.0733 11.9375 17.6008 11.9849 17.2801 11.7228L10.9423 6.54159C10.6216 6.27943 10.5742 5.80693 10.8363 5.48624Z" fill="black"/>
<path fill-rule="evenodd" clip-rule="evenodd" d="M13.9777 2.40297C14.3074 2.15227 14.7779 2.21634 15.0286 2.54607L19.9832 9.06255C20.2339 9.39228 20.1699 9.86282 19.8401 10.1135C19.5104 10.3642 19.0399 10.3002 18.7892 9.97042L13.8346 3.45393C13.5839 3.1242 13.6479 2.65367 13.9777 2.40297Z" fill="black"/>
<path fill-rule="evenodd" clip-rule="evenodd" d="M4.61328 14.625C5.02749 14.625 5.36328 14.9608 5.36328 15.375V18.1074C5.36328 19.023 5.63833 19.4901 6.00601 19.7639C6.42031 20.0723 7.10178 20.25 8.12801 20.25H15.3162C16.3428 20.25 17.0247 20.0723 17.4393 19.7638C17.8072 19.49 18.0824 19.0229 18.0824 18.1074L18.0824 15.375C18.0824 14.9608 18.4181 14.625 18.8324 14.625C19.2466 14.625 19.5824 14.9608 19.5824 15.375L19.5824 18.1074C19.5824 19.3566 19.1831 20.3358 18.3349 20.9671C17.5332 21.5637 16.4571 21.75 15.3162 21.75H8.12801C6.98748 21.75 5.91158 21.5637 5.11021 20.967C4.26222 20.3356 3.86328 19.3565 3.86328 18.1074V15.375C3.86328 14.9608 4.19907 14.625 4.61328 14.625Z" fill="black"/>
</svg>