<svg width="24" height="24" viewBox="0 0 24 24" fill="none" xmlns="http://www.w3.org/2000/svg">
<path d="M19.583 4.0777H16.4046C16.1743 4.0777 15.9876 4.26438 15.9876 4.49466V7.63847C15.9876 7.86876 15.8009 8.05544 15.5707 8.05544H12.3922C12.1619 8.05544 11.9752 8.24212 11.9752 8.4724V11.7488C11.9752 11.9791 11.7886 12.1658 11.5583 12.1658H8.37981C8.14953 12.1658 7.96285 12.3524 7.96285 12.5827V15.6602C7.96285 15.8905 7.77617 16.0772 7.54588 16.0772H4.41696C4.18668 16.0772 4 16.2639 4 16.4942V19.5054C4 19.7357 4.18668 19.9224 4.41696 19.9224H19.583C19.8133 19.9224 20 19.7357 20 19.5054V4.49466C20 4.26438 19.8133 4.0777 19.583 4.0777Z" stroke="black" stroke-width="1.5" stroke-linecap="round" stroke-linejoin="round"/>
</svg>