<svg width="24" height="24" viewBox="0 0 24 24" fill="none" xmlns="http://www.w3.org/2000/svg">
<path fill-rule="evenodd" clip-rule="evenodd" d="M7.04485 19.4995C7.71813 19.4995 8.26393 18.9536 8.26393 18.2804V16.0245H11.5588C12.2321 16.0245 12.7779 15.4787 12.7779 14.8054V12.4004H16.0727C16.746 12.4004 17.2918 11.8546 17.2918 11.1813V9H20.5C21.1904 9 21.75 8.44036 21.75 7.75V5.75C21.75 5.05964 21.1904 4.5 20.5 4.5H4.5C3.80964 4.5 3.25 5.05964 3.25 5.75V18.2495C3.25 18.9398 3.80964 19.4995 4.5 19.4995H7.04485ZM15.5492 19.2799C15.4081 19.139 15.329 18.9477 15.3293 18.7483L15.3342 15.6315C15.3348 15.2173 15.6711 14.882 16.0853 14.8827C16.4995 14.8833 16.8348 15.2196 16.8342 15.6338L16.8321 16.9363L20.4697 13.2997C20.7627 13.0068 21.2375 13.0069 21.5304 13.2998C21.8233 13.5927 21.8232 14.0676 21.5303 14.3605L17.8941 17.9956L19.1928 17.9929C19.6071 17.9921 19.9435 18.3271 19.9444 18.7414C19.9453 19.1556 19.6102 19.4921 19.196 19.4929L16.0809 19.4994C15.8815 19.4999 15.6902 19.4209 15.5492 19.2799Z" fill="black"/>
</svg>