<svg width="25" height="24" viewBox="0 0 25 24" fill="none" xmlns="http://www.w3.org/2000/svg">
<path opacity="0.4" d="M21.4451 5.27075L17.4126 5.27075C17.1543 5.27075 16.9449 5.48013 16.9449 5.73841V9.26441C16.9449 9.52269 16.7356 9.73206 16.4773 9.73206H12.9124C12.6542 9.73206 12.4448 9.94144 12.4448 10.1997V13.8744C12.4448 14.1327 12.2354 14.3421 11.9771 14.3421H8.41227C8.15399 14.3421 7.94461 14.5515 7.94461 14.8097V18.2614C7.94461 18.5197 7.73523 18.729 7.47696 18.729H3.5" stroke="black" stroke-width="1.5" stroke-linecap="round" stroke-linejoin="round"/>
<path d="M16.5943 18.593L21.5 13.6886M16.5943 18.593L16.5992 15.4857M16.5943 18.593L19.6999 18.5865" stroke="black" stroke-width="1.5" stroke-linecap="round" stroke-linejoin="round"/>
</svg>