<svg width="25" height="24" viewBox="0 0 25 24" fill="none" xmlns="http://www.w3.org/2000/svg">
<g opacity="0.4">
<path fill-rule="evenodd" clip-rule="evenodd" d="M18.849 12.0326L18.279 12.5796L18.412 13.3416C18.505 13.9276 18.112 14.4696 17.539 14.5616C17.484 14.5706 17.428 14.5746 17.371 14.5746C17.201 14.5746 17.027 14.5326 16.873 14.4496L15.974 13.9836C15.606 13.7926 15.462 13.3406 15.653 12.9726C15.845 12.6046 16.298 12.4626 16.664 12.6516L16.78 12.7116L16.76 12.6016C16.7 12.2556 16.815 11.9056 17.068 11.6626L17.141 11.5926L17.029 11.5756C16.688 11.5276 16.391 11.3146 16.235 11.0076L15.779 10.0956C15.594 9.72459 15.744 9.27459 16.115 9.08859C16.487 8.90459 16.936 9.05459 17.121 9.42459L17.471 10.1246L18.261 10.2386C18.531 10.2746 18.778 10.4166 18.948 10.6386C19.12 10.8626 19.194 11.1386 19.157 11.4176C19.125 11.6516 19.016 11.8696 18.849 12.0326ZM15.06 12.1036L14.346 12.7906L14.515 13.7566C14.582 14.1876 14.293 14.5866 13.87 14.6526C13.708 14.6786 13.533 14.6516 13.383 14.5716L12.5 14.1146L11.612 14.5746C11.501 14.6336 11.378 14.6636 11.253 14.6636C11.177 14.6636 11.1 14.6526 11.025 14.6296C10.826 14.5686 10.662 14.4336 10.565 14.2506C10.487 14.1016 10.459 13.9296 10.484 13.7646L10.655 12.7906L9.94 12.1056C9.634 11.8096 9.624 11.3196 9.919 11.0136C10.042 10.8856 10.205 10.8046 10.379 10.7826L11.363 10.6396L11.805 9.75659C11.904 9.56559 12.067 9.42859 12.266 9.36559C12.465 9.30359 12.676 9.32259 12.86 9.41759C13.002 9.49159 13.116 9.60559 13.192 9.74859L13.638 10.6396L14.631 10.7826C14.83 10.8096 15.012 10.9146 15.138 11.0786C15.263 11.2426 15.317 11.4456 15.289 11.6506C15.268 11.8196 15.186 11.9826 15.06 12.1036ZM9.026 13.9836L8.117 14.4546C7.972 14.5326 7.802 14.5746 7.63 14.5746C7.571 14.5746 7.512 14.5696 7.454 14.5596C6.888 14.4696 6.495 13.9276 6.585 13.3536L6.721 12.5796L6.157 12.0386C5.984 11.8696 5.875 11.6516 5.844 11.4196C5.806 11.1386 5.88 10.8626 6.052 10.6386C6.222 10.4166 6.469 10.2746 6.747 10.2376L7.529 10.1246L7.879 9.42459C8.064 9.05459 8.515 8.90459 8.885 9.08859C9.256 9.27459 9.406 9.72459 9.221 10.0956L8.766 11.0046C8.609 11.3146 8.312 11.5276 7.97 11.5766L7.859 11.5926L7.932 11.6626C8.185 11.9056 8.3 12.2556 8.24 12.6006L8.22 12.7116L8.336 12.6516C8.703 12.4606 9.156 12.6046 9.347 12.9726C9.537 13.3406 9.394 13.7926 9.026 13.9836ZM19.893 7.31659C19.814 7.31659 19.75 7.25259 19.75 7.13659C19.75 5.92159 18.762 4.93359 17.547 4.93359H7.453C6.238 4.93359 5.25 5.92159 5.25 7.17459C5.25 7.25259 5.186 7.31659 5.107 7.31659C3.945 7.31659 3 8.26259 3 9.42459V14.5776C3 15.7396 3.945 16.6846 5.107 16.6846C5.186 16.6846 5.25 16.7486 5.25 16.8276V16.8656C5.25 18.0806 6.238 19.0686 7.453 19.0686H17.547C18.762 19.0686 19.75 18.0806 19.75 16.8276C19.75 16.7486 19.814 16.6846 19.893 16.6846C21.055 16.6846 22 15.7396 22 14.5776V9.42459C22 8.26259 21.055 7.31659 19.893 7.31659Z" fill="black"/>
<path fill-rule="evenodd" clip-rule="evenodd" d="M18.849 12.0326L18.279 12.5796L18.412 13.3416C18.505 13.9276 18.112 14.4696 17.539 14.5616C17.484 14.5706 17.428 14.5746 17.371 14.5746C17.201 14.5746 17.027 14.5326 16.873 14.4496L15.974 13.9836C15.606 13.7926 15.462 13.3406 15.653 12.9726C15.845 12.6046 16.298 12.4626 16.664 12.6516L16.78 12.7116L16.76 12.6016C16.7 12.2556 16.815 11.9056 17.068 11.6626L17.141 11.5926L17.029 11.5756C16.688 11.5276 16.391 11.3146 16.235 11.0076L15.779 10.0956C15.594 9.72459 15.744 9.27459 16.115 9.08859C16.487 8.90459 16.936 9.05459 17.121 9.42459L17.471 10.1246L18.261 10.2386C18.531 10.2746 18.778 10.4166 18.948 10.6386C19.12 10.8626 19.194 11.1386 19.157 11.4176C19.125 11.6516 19.016 11.8696 18.849 12.0326ZM15.06 12.1036L14.346 12.7906L14.515 13.7566C14.582 14.1876 14.293 14.5866 13.87 14.6526C13.708 14.6786 13.533 14.6516 13.383 14.5716L12.5 14.1146L11.612 14.5746C11.501 14.6336 11.378 14.6636 11.253 14.6636C11.177 14.6636 11.1 14.6526 11.025 14.6296C10.826 14.5686 10.662 14.4336 10.565 14.2506C10.487 14.1016 10.459 13.9296 10.484 13.7646L10.655 12.7906L9.94 12.1056C9.634 11.8096 9.624 11.3196 9.919 11.0136C10.042 10.8856 10.205 10.8046 10.379 10.7826L11.363 10.6396L11.805 9.75659C11.904 9.56559 12.067 9.42859 12.266 9.36559C12.465 9.30359 12.676 9.32259 12.86 9.41759C13.002 9.49159 13.116 9.60559 13.192 9.74859L13.638 10.6396L14.631 10.7826C14.83 10.8096 15.012 10.9146 15.138 11.0786C15.263 11.2426 15.317 11.4456 15.289 11.6506C15.268 11.8196 15.186 11.9826 15.06 12.1036ZM9.026 13.9836L8.117 14.4546C7.972 14.5326 7.802 14.5746 7.63 14.5746C7.571 14.5746 7.512 14.5696 7.454 14.5596C6.888 14.4696 6.495 13.9276 6.585 13.3536L6.721 12.5796L6.157 12.0386C5.984 11.8696 5.875 11.6516 5.844 11.4196C5.806 11.1386 5.88 10.8626 6.052 10.6386C6.222 10.4166 6.469 10.2746 6.747 10.2376L7.529 10.1246L7.879 9.42459C8.064 9.05459 8.515 8.90459 8.885 9.08859C9.256 9.27459 9.406 9.72459 9.221 10.0956L8.766 11.0046C8.609 11.3146 8.312 11.5276 7.97 11.5766L7.859 11.5926L7.932 11.6626C8.185 11.9056 8.3 12.2556 8.24 12.6006L8.22 12.7116L8.336 12.6516C8.703 12.4606 9.156 12.6046 9.347 12.9726C9.537 13.3406 9.394 13.7926 9.026 13.9836ZM19.893 7.31659C19.814 7.31659 19.75 7.25259 19.75 7.13659C19.75 5.92159 18.762 4.93359 17.547 4.93359H7.453C6.238 4.93359 5.25 5.92159 5.25 7.17459C5.25 7.25259 5.186 7.31659 5.107 7.31659C3.945 7.31659 3 8.26259 3 9.42459V14.5776C3 15.7396 3.945 16.6846 5.107 16.6846C5.186 16.6846 5.25 16.7486 5.25 16.8276V16.8656C5.25 18.0806 6.238 19.0686 7.453 19.0686H17.547C18.762 19.0686 19.75 18.0806 19.75 16.8276C19.75 16.7486 19.814 16.6846 19.893 16.6846C21.055 16.6846 22 15.7396 22 14.5776V9.42459C22 8.26259 21.055 7.31659 19.893 7.31659Z" fill="black"/>
</g>
<path fill-rule="evenodd" clip-rule="evenodd" d="M18.849 12.0343L18.279 12.5813L18.412 13.3433C18.505 13.9293 18.112 14.4713 17.539 14.5633C17.484 14.5723 17.428 14.5763 17.371 14.5763C17.201 14.5763 17.027 14.5343 16.873 14.4513L15.974 13.9853C15.606 13.7943 15.462 13.3423 15.653 12.9743C15.845 12.6063 16.298 12.4643 16.664 12.6533L16.78 12.7133L16.76 12.6033C16.7 12.2573 16.815 11.9073 17.068 11.6643L17.141 11.5943L17.029 11.5773C16.688 11.5293 16.391 11.3163 16.235 11.0093L15.779 10.0973C15.594 9.72631 15.744 9.27631 16.115 9.09031C16.487 8.90631 16.936 9.05631 17.121 9.42631L17.471 10.1263L18.261 10.2403C18.531 10.2763 18.778 10.4183 18.948 10.6403C19.12 10.8643 19.194 11.1403 19.157 11.4193C19.125 11.6533 19.016 11.8713 18.849 12.0343ZM15.06 12.1053L14.346 12.7923L14.515 13.7583C14.582 14.1893 14.293 14.5883 13.87 14.6543C13.708 14.6803 13.533 14.6533 13.383 14.5733L12.5 14.1163L11.612 14.5763C11.501 14.6353 11.378 14.6653 11.253 14.6653C11.177 14.6653 11.1 14.6543 11.025 14.6313C10.826 14.5703 10.662 14.4353 10.565 14.2523C10.487 14.1033 10.459 13.9313 10.484 13.7663L10.655 12.7923L9.93997 12.1073C9.63397 11.8113 9.62397 11.3213 9.91897 11.0153C10.042 10.8873 10.205 10.8063 10.379 10.7843L11.363 10.6413L11.805 9.75831C11.904 9.56731 12.067 9.43031 12.266 9.36731C12.465 9.30531 12.676 9.32431 12.86 9.41931C13.002 9.49331 13.116 9.60731 13.192 9.75031L13.638 10.6413L14.631 10.7843C14.83 10.8113 15.012 10.9163 15.138 11.0803C15.263 11.2443 15.317 11.4473 15.289 11.6523C15.268 11.8213 15.186 11.9843 15.06 12.1053ZM9.02597 13.9853L8.11697 14.4563C7.97197 14.5343 7.80197 14.5763 7.62997 14.5763C7.57097 14.5763 7.51197 14.5713 7.45397 14.5613C6.88797 14.4713 6.49497 13.9293 6.58497 13.3553L6.72097 12.5813L6.15697 12.0403C5.98397 11.8713 5.87497 11.6533 5.84397 11.4213C5.80597 11.1403 5.87997 10.8643 6.05197 10.6403C6.22197 10.4183 6.46897 10.2763 6.74697 10.2393L7.52897 10.1263L7.87897 9.42631C8.06397 9.05631 8.51497 8.90631 8.88497 9.09031C9.25597 9.27631 9.40597 9.72631 9.22097 10.0973L8.76597 11.0063C8.60897 11.3163 8.31197 11.5293 7.96997 11.5783L7.85897 11.5943L7.93197 11.6643C8.18497 11.9073 8.29997 12.2573 8.23997 12.6023L8.21997 12.7133L8.33597 12.6533C8.70297 12.4623 9.15597 12.6063 9.34697 12.9743C9.53697 13.3423 9.39397 13.7943 9.02597 13.9853Z" fill="black"/>
<path fill-rule="evenodd" clip-rule="evenodd" d="M18.849 12.0343L18.279 12.5813L18.412 13.3433C18.505 13.9293 18.112 14.4713 17.539 14.5633C17.484 14.5723 17.428 14.5763 17.371 14.5763C17.201 14.5763 17.027 14.5343 16.873 14.4513L15.974 13.9853C15.606 13.7943 15.462 13.3423 15.653 12.9743C15.845 12.6063 16.298 12.4643 16.664 12.6533L16.78 12.7133L16.76 12.6033C16.7 12.2573 16.815 11.9073 17.068 11.6643L17.141 11.5943L17.029 11.5773C16.688 11.5293 16.391 11.3163 16.235 11.0093L15.779 10.0973C15.594 9.72631 15.744 9.27631 16.115 9.09031C16.487 8.90631 16.936 9.05631 17.121 9.42631L17.471 10.1263L18.261 10.2403C18.531 10.2763 18.778 10.4183 18.948 10.6403C19.12 10.8643 19.194 11.1403 19.157 11.4193C19.125 11.6533 19.016 11.8713 18.849 12.0343ZM15.06 12.1053L14.346 12.7923L14.515 13.7583C14.582 14.1893 14.293 14.5883 13.87 14.6543C13.708 14.6803 13.533 14.6533 13.383 14.5733L12.5 14.1163L11.612 14.5763C11.501 14.6353 11.378 14.6653 11.253 14.6653C11.177 14.6653 11.1 14.6543 11.025 14.6313C10.826 14.5703 10.662 14.4353 10.565 14.2523C10.487 14.1033 10.459 13.9313 10.484 13.7663L10.655 12.7923L9.93997 12.1073C9.63397 11.8113 9.62397 11.3213 9.91897 11.0153C10.042 10.8873 10.205 10.8063 10.379 10.7843L11.363 10.6413L11.805 9.75831C11.904 9.56731 12.067 9.43031 12.266 9.36731C12.465 9.30531 12.676 9.32431 12.86 9.41931C13.002 9.49331 13.116 9.60731 13.192 9.75031L13.638 10.6413L14.631 10.7843C14.83 10.8113 15.012 10.9163 15.138 11.0803C15.263 11.2443 15.317 11.4473 15.289 11.6523C15.268 11.8213 15.186 11.9843 15.06 12.1053ZM9.02597 13.9853L8.11697 14.4563C7.97197 14.5343 7.80197 14.5763 7.62997 14.5763C7.57097 14.5763 7.51197 14.5713 7.45397 14.5613C6.88797 14.4713 6.49497 13.9293 6.58497 13.3553L6.72097 12.5813L6.15697 12.0403C5.98397 11.8713 5.87497 11.6533 5.84397 11.4213C5.80597 11.1403 5.87997 10.8643 6.05197 10.6403C6.22197 10.4183 6.46897 10.2763 6.74697 10.2393L7.52897 10.1263L7.87897 9.42631C8.06397 9.05631 8.51497 8.90631 8.88497 9.09031C9.25597 9.27631 9.40597 9.72631 9.22097 10.0973L8.76597 11.0063C8.60897 11.3163 8.31197 11.5293 7.96997 11.5783L7.85897 11.5943L7.93197 11.6643C8.18497 11.9073 8.29997 12.2573 8.23997 12.6023L8.21997 12.7133L8.33597 12.6533C8.70297 12.4623 9.15597 12.6063 9.34697 12.9743C9.53697 13.3423 9.39397 13.7943 9.02597 13.9853Z" fill="black"/>
</svg>