<svg width="25" height="25" viewBox="0 0 25 25" fill="none" xmlns="http://www.w3.org/2000/svg">
<path d="M13.5984 22.6633C13.5229 22.6632 13.4474 22.6582 13.3725 22.6483C12.991 22.5979 12.6381 22.4187 12.3725 22.1403L10.1725 19.8503C10.1517 19.828 10.1258 19.8111 10.097 19.8012C10.0683 19.7913 10.0375 19.7885 10.0074 19.7933L6.89544 20.3373C6.58211 20.391 6.26001 20.3557 5.96569 20.2356C5.67138 20.1154 5.41667 19.9151 5.23046 19.6575C5.04425 19.3998 4.93403 19.0951 4.91229 18.778C4.89054 18.4608 4.95817 18.1439 5.10748 17.8633L6.57543 15.0313C6.59156 15.0004 6.60003 14.9661 6.60003 14.9313C6.60003 14.8964 6.59156 14.8621 6.57543 14.8313L5.10345 11.9973C4.9554 11.7173 4.8885 11.4016 4.91027 11.0856C4.93204 10.7697 5.04163 10.4661 5.22668 10.2091C5.41173 9.95213 5.66491 9.75194 5.95764 9.63111C6.25037 9.51028 6.57103 9.47362 6.88348 9.52526L10.0065 10.0693C10.0358 10.0751 10.0662 10.0734 10.0947 10.0643C10.1232 10.0552 10.1489 10.039 10.1695 10.0173L12.3765 7.71726C12.5301 7.55654 12.7142 7.4279 12.918 7.33882C13.1217 7.24973 13.3411 7.20195 13.5635 7.19826C14.0093 7.19637 14.4389 7.36568 14.7635 7.67126C15.0381 7.93868 15.2143 8.29108 15.2635 8.67126L15.7175 11.8353C15.7223 11.8684 15.735 11.9 15.7545 11.9273C15.7739 11.9546 15.7997 11.9769 15.8295 11.9923L18.6625 13.4133C18.9425 13.5562 19.1778 13.7735 19.3425 14.0414C19.5071 14.3092 19.5948 14.6173 19.5958 14.9317C19.5969 15.2461 19.5112 15.5548 19.3483 15.8237C19.1854 16.0927 18.9516 16.3115 18.6725 16.4563L18.6625 16.4613L15.8285 17.8803C15.7994 17.8947 15.7743 17.916 15.7553 17.9423C15.7363 17.9686 15.724 17.9991 15.7195 18.0313L15.2615 21.2093C15.206 21.6129 15.0066 21.983 14.6999 22.2513C14.3932 22.5195 13.9999 22.668 13.5925 22.6693L13.5984 22.6633ZM10.0395 18.2913C10.2673 18.2909 10.4927 18.3371 10.702 18.427C10.9113 18.517 11.1 18.6487 11.2565 18.8143L13.4565 21.1043C13.4855 21.136 13.5248 21.1566 13.5674 21.1623C13.6167 21.168 13.6661 21.1542 13.7054 21.124C13.7446 21.0937 13.7705 21.0493 13.7775 21.0003L14.2364 17.8153C14.275 17.5429 14.379 17.284 14.5396 17.0607C14.7002 16.8374 14.9125 16.6564 15.1584 16.5333L17.9864 15.1173C18.025 15.0972 18.0565 15.0658 18.0765 15.0273C18.0958 14.9765 18.0972 14.9207 18.0805 14.869C18.0638 14.8174 18.0299 14.773 17.9845 14.7433L15.1584 13.3263C14.9123 13.2022 14.6999 13.0204 14.5392 12.7965C14.3785 12.5726 14.2743 12.3131 14.2355 12.0403L13.7795 8.86826C13.7747 8.82245 13.7542 8.77971 13.7215 8.74726C13.6827 8.71834 13.6353 8.70323 13.5869 8.70432C13.5385 8.70541 13.4919 8.72263 13.4545 8.75326L11.2545 11.0533C11.0634 11.2534 10.8259 11.4032 10.563 11.4894C10.3001 11.5756 10.0199 11.5955 9.74749 11.5473L6.63549 10.9973C6.59528 10.9927 6.55462 11 6.51849 11.0183C6.49443 11.0303 6.473 11.047 6.45556 11.0675C6.43812 11.088 6.42502 11.1118 6.41699 11.1375C6.40896 11.1631 6.40621 11.1902 6.40887 11.2169C6.41153 11.2437 6.41957 11.2697 6.43249 11.2933L7.90649 14.1373C8.03122 14.3814 8.09625 14.6516 8.09625 14.9258C8.09625 15.1999 8.03122 15.4701 7.90649 15.7143L6.43646 18.5573C6.41395 18.5966 6.4055 18.6425 6.41247 18.6873C6.41673 18.714 6.4262 18.7396 6.44036 18.7627C6.45453 18.7857 6.47313 18.8058 6.49505 18.8217C6.51697 18.8375 6.54178 18.8489 6.56811 18.8552C6.59444 18.8615 6.62177 18.8625 6.64849 18.8583L9.74847 18.3163C9.84456 18.2995 9.94194 18.2911 10.0395 18.2913Z" fill="black"/>
<path d="M6.11914 7.46841C5.92023 7.46841 5.72946 7.38939 5.58881 7.24874C5.44815 7.10808 5.36914 6.91732 5.36914 6.71841V4.94141C5.36914 4.74249 5.44815 4.55173 5.58881 4.41108C5.72946 4.27042 5.92023 4.19141 6.11914 4.19141C6.31805 4.19141 6.50882 4.27042 6.64948 4.41108C6.79013 4.55173 6.86914 4.74249 6.86914 4.94141V6.71841C6.86914 6.91732 6.79013 7.10808 6.64948 7.24874C6.50882 7.38939 6.31805 7.46841 6.11914 7.46841Z" fill="black"/>
<path d="M18.3887 9.92841C18.1898 9.92841 17.999 9.84939 17.8583 9.70874C17.7177 9.56808 17.6387 9.37732 17.6387 9.17841V4.94141C17.6387 4.74249 17.7177 4.55173 17.8583 4.41108C17.999 4.27042 18.1898 4.19141 18.3887 4.19141C18.5876 4.19141 18.7784 4.27042 18.919 4.41108C19.0597 4.55173 19.1387 4.74249 19.1387 4.94141V9.17841C19.1387 9.37732 19.0597 9.56808 18.919 9.70874C18.7784 9.84939 18.5876 9.92841 18.3887 9.92841Z" fill="black"/>
<path d="M12.2559 6.01309C12.0569 6.01309 11.8662 5.93407 11.7255 5.79342C11.5849 5.65276 11.5059 5.462 11.5059 5.26309V3.91309C11.5059 3.71417 11.5849 3.52341 11.7255 3.38276C11.8662 3.2421 12.0569 3.16309 12.2559 3.16309C12.4548 3.16309 12.6455 3.2421 12.7862 3.38276C12.9268 3.52341 13.0059 3.71417 13.0059 3.91309V5.26309C13.0059 5.462 12.9268 5.65276 12.7862 5.79342C12.6455 5.93407 12.4548 6.01309 12.2559 6.01309Z" fill="black"/>
</svg>