<svg width="25" height="24" viewBox="0 0 25 24" fill="none" xmlns="http://www.w3.org/2000/svg">
<path fill-rule="evenodd" clip-rule="evenodd" d="M12.25 5.53189C10.8794 8.64093 8.3909 11.1294 5.28186 12.5001C8.3909 13.8708 10.8794 16.3592 12.2501 19.4683C13.6207 16.3592 16.1092 13.8708 19.2182 12.5001C16.1092 11.1294 13.6207 8.64093 12.25 5.53189ZM11.5238 3.06274L12.9763 3.06274C14.0784 7.33531 17.4148 10.6717 21.6874 11.7739V13.2263C17.4148 14.3284 14.0784 17.6649 12.9763 21.9374H11.5238C10.4217 17.6649 7.08528 14.3284 2.81271 13.2263L2.81271 11.7739C7.08528 10.6717 10.4217 7.33531 11.5238 3.06274Z" fill="black"/>
<path fill-rule="evenodd" clip-rule="evenodd" d="M16.503 6.49845V4.99845C16.8312 4.99845 17.2754 4.79657 17.6653 4.40224C18.0564 4.00674 18.2513 3.56084 18.2513 3.25009H19.7513C19.7513 3.55883 19.9472 4.00452 20.3409 4.40144C20.7337 4.7975 21.1781 4.99845 21.4997 4.99845V6.49845C21.1492 6.49845 20.7058 6.70191 20.326 7.08799C19.9446 7.47578 19.7513 7.92191 19.7513 8.2468H18.2513C18.2513 7.93146 18.051 7.48686 17.6529 7.09121C17.2541 6.69493 16.8086 6.49845 16.503 6.49845ZM18.9905 6.33586C19.0751 6.23027 19.1642 6.13007 19.2566 6.03615C19.3584 5.9327 19.468 5.83276 19.5846 5.73845C19.4752 5.64884 19.372 5.55462 19.2759 5.45772C19.1816 5.3627 19.0901 5.26095 19.0031 5.15343C18.9166 5.26059 18.8257 5.36207 18.7319 5.45692C18.6305 5.55945 18.5212 5.6589 18.405 5.75305C18.5129 5.84061 18.615 5.93261 18.7102 6.02725C18.8069 6.12331 18.901 6.22651 18.9905 6.33586Z" fill="black"/>
</svg>