<svg width="25" height="24" viewBox="0 0 25 24" fill="none" xmlns="http://www.w3.org/2000/svg">
<path d="M12.2498 18.9752C14.1158 18.9752 16.0208 21.9942 17.7908 20.6602C19.5608 19.3252 17.4908 16.6432 17.9098 14.7342C18.3288 12.8242 21.7178 12.0692 21.1948 9.84417C20.6728 7.62017 16.9028 9.05317 15.6918 7.80017" stroke="black" stroke-width="1.5" stroke-linecap="round" stroke-linejoin="round"/>
<path d="M14.3782 5.16163C13.9042 4.02163 13.3422 2.99963 12.2502 2.99963C10.2142 2.99963 10.0212 6.54663 8.80918 7.79963C7.59718 9.05263 3.82818 7.61963 3.30518 9.84363C2.78218 12.0686 6.17218 12.8236 6.59018 14.7336C7.01118 16.6426 4.93918 19.3246 6.70918 20.6596C7.66218 21.3786 8.65518 20.8346 9.65918 20.1786" stroke="black" stroke-width="1.5" stroke-linecap="round" stroke-linejoin="round"/>
</svg>