<svg width="24" height="24" viewBox="0 0 24 24" fill="none" xmlns="http://www.w3.org/2000/svg">
<path fill-rule="evenodd" clip-rule="evenodd" d="M18.349 12.0326L17.779 12.5796L17.912 13.3416C18.005 13.9276 17.612 14.4696 17.039 14.5616C16.984 14.5706 16.928 14.5746 16.871 14.5746C16.701 14.5746 16.527 14.5326 16.373 14.4496L15.474 13.9836C15.106 13.7926 14.962 13.3406 15.153 12.9726C15.345 12.6046 15.798 12.4626 16.164 12.6516L16.28 12.7116L16.26 12.6016C16.2 12.2556 16.315 11.9056 16.568 11.6626L16.641 11.5926L16.529 11.5756C16.188 11.5276 15.891 11.3146 15.735 11.0076L15.279 10.0956C15.094 9.72459 15.244 9.27459 15.615 9.08859C15.987 8.90459 16.436 9.05459 16.621 9.42459L16.971 10.1246L17.761 10.2386C18.031 10.2746 18.278 10.4166 18.448 10.6386C18.62 10.8626 18.694 11.1386 18.657 11.4176C18.625 11.6516 18.516 11.8696 18.349 12.0326ZM14.56 12.1036L13.846 12.7906L14.015 13.7566C14.082 14.1876 13.793 14.5866 13.37 14.6526C13.208 14.6786 13.033 14.6516 12.883 14.5716L12 14.1146L11.112 14.5746C11.001 14.6336 10.878 14.6636 10.753 14.6636C10.677 14.6636 10.6 14.6526 10.525 14.6296C10.326 14.5686 10.162 14.4336 10.065 14.2506C9.987 14.1016 9.959 13.9296 9.984 13.7646L10.155 12.7906L9.44 12.1056C9.134 11.8096 9.124 11.3196 9.419 11.0136C9.542 10.8856 9.705 10.8046 9.879 10.7826L10.863 10.6396L11.305 9.75659C11.404 9.56559 11.567 9.42859 11.766 9.36559C11.965 9.30359 12.176 9.32259 12.36 9.41759C12.502 9.49159 12.616 9.60559 12.692 9.74859L13.138 10.6396L14.131 10.7826C14.33 10.8096 14.512 10.9146 14.638 11.0786C14.763 11.2426 14.817 11.4456 14.789 11.6506C14.768 11.8196 14.686 11.9826 14.56 12.1036ZM8.526 13.9836L7.617 14.4546C7.472 14.5326 7.302 14.5746 7.13 14.5746C7.071 14.5746 7.012 14.5696 6.954 14.5596C6.388 14.4696 5.995 13.9276 6.085 13.3536L6.221 12.5796L5.657 12.0386C5.484 11.8696 5.375 11.6516 5.344 11.4196C5.306 11.1386 5.38 10.8626 5.552 10.6386C5.722 10.4166 5.969 10.2746 6.247 10.2376L7.029 10.1246L7.379 9.42459C7.564 9.05459 8.015 8.90459 8.385 9.08859C8.756 9.27459 8.906 9.72459 8.721 10.0956L8.266 11.0046C8.109 11.3146 7.812 11.5276 7.47 11.5766L7.359 11.5926L7.432 11.6626C7.685 11.9056 7.8 12.2556 7.74 12.6006L7.72 12.7116L7.836 12.6516C8.203 12.4606 8.656 12.6046 8.847 12.9726C9.037 13.3406 8.894 13.7926 8.526 13.9836ZM19.393 7.31659C19.314 7.31659 19.25 7.25259 19.25 7.13659C19.25 5.92159 18.262 4.93359 17.047 4.93359H6.953C5.738 4.93359 4.75 5.92159 4.75 7.17459C4.75 7.25259 4.686 7.31659 4.607 7.31659C3.445 7.31659 2.5 8.26259 2.5 9.42459V14.5776C2.5 15.7396 3.445 16.6846 4.607 16.6846C4.686 16.6846 4.75 16.7486 4.75 16.8276V16.8656C4.75 18.0806 5.738 19.0686 6.953 19.0686H17.047C18.262 19.0686 19.25 18.0806 19.25 16.8276C19.25 16.7486 19.314 16.6846 19.393 16.6846C20.555 16.6846 21.5 15.7396 21.5 14.5776V9.42459C21.5 8.26259 20.555 7.31659 19.393 7.31659Z" fill="black"/>
<path fill-rule="evenodd" clip-rule="evenodd" d="M18.349 12.0326L17.779 12.5796L17.912 13.3416C18.005 13.9276 17.612 14.4696 17.039 14.5616C16.984 14.5706 16.928 14.5746 16.871 14.5746C16.701 14.5746 16.527 14.5326 16.373 14.4496L15.474 13.9836C15.106 13.7926 14.962 13.3406 15.153 12.9726C15.345 12.6046 15.798 12.4626 16.164 12.6516L16.28 12.7116L16.26 12.6016C16.2 12.2556 16.315 11.9056 16.568 11.6626L16.641 11.5926L16.529 11.5756C16.188 11.5276 15.891 11.3146 15.735 11.0076L15.279 10.0956C15.094 9.72459 15.244 9.27459 15.615 9.08859C15.987 8.90459 16.436 9.05459 16.621 9.42459L16.971 10.1246L17.761 10.2386C18.031 10.2746 18.278 10.4166 18.448 10.6386C18.62 10.8626 18.694 11.1386 18.657 11.4176C18.625 11.6516 18.516 11.8696 18.349 12.0326ZM14.56 12.1036L13.846 12.7906L14.015 13.7566C14.082 14.1876 13.793 14.5866 13.37 14.6526C13.208 14.6786 13.033 14.6516 12.883 14.5716L12 14.1146L11.112 14.5746C11.001 14.6336 10.878 14.6636 10.753 14.6636C10.677 14.6636 10.6 14.6526 10.525 14.6296C10.326 14.5686 10.162 14.4336 10.065 14.2506C9.987 14.1016 9.959 13.9296 9.984 13.7646L10.155 12.7906L9.44 12.1056C9.134 11.8096 9.124 11.3196 9.419 11.0136C9.542 10.8856 9.705 10.8046 9.879 10.7826L10.863 10.6396L11.305 9.75659C11.404 9.56559 11.567 9.42859 11.766 9.36559C11.965 9.30359 12.176 9.32259 12.36 9.41759C12.502 9.49159 12.616 9.60559 12.692 9.74859L13.138 10.6396L14.131 10.7826C14.33 10.8096 14.512 10.9146 14.638 11.0786C14.763 11.2426 14.817 11.4456 14.789 11.6506C14.768 11.8196 14.686 11.9826 14.56 12.1036ZM8.526 13.9836L7.617 14.4546C7.472 14.5326 7.302 14.5746 7.13 14.5746C7.071 14.5746 7.012 14.5696 6.954 14.5596C6.388 14.4696 5.995 13.9276 6.085 13.3536L6.221 12.5796L5.657 12.0386C5.484 11.8696 5.375 11.6516 5.344 11.4196C5.306 11.1386 5.38 10.8626 5.552 10.6386C5.722 10.4166 5.969 10.2746 6.247 10.2376L7.029 10.1246L7.379 9.42459C7.564 9.05459 8.015 8.90459 8.385 9.08859C8.756 9.27459 8.906 9.72459 8.721 10.0956L8.266 11.0046C8.109 11.3146 7.812 11.5276 7.47 11.5766L7.359 11.5926L7.432 11.6626C7.685 11.9056 7.8 12.2556 7.74 12.6006L7.72 12.7116L7.836 12.6516C8.203 12.4606 8.656 12.6046 8.847 12.9726C9.037 13.3406 8.894 13.7926 8.526 13.9836ZM19.393 7.31659C19.314 7.31659 19.25 7.25259 19.25 7.13659C19.25 5.92159 18.262 4.93359 17.047 4.93359H6.953C5.738 4.93359 4.75 5.92159 4.75 7.17459C4.75 7.25259 4.686 7.31659 4.607 7.31659C3.445 7.31659 2.5 8.26259 2.5 9.42459V14.5776C2.5 15.7396 3.445 16.6846 4.607 16.6846C4.686 16.6846 4.75 16.7486 4.75 16.8276V16.8656C4.75 18.0806 5.738 19.0686 6.953 19.0686H17.047C18.262 19.0686 19.25 18.0806 19.25 16.8276C19.25 16.7486 19.314 16.6846 19.393 16.6846C20.555 16.6846 21.5 15.7396 21.5 14.5776V9.42459C21.5 8.26259 20.555 7.31659 19.393 7.31659Z" fill="black"/>
</svg>