<svg width="24" height="25" viewBox="0 0 24 25" fill="none" xmlns="http://www.w3.org/2000/svg">
<path fill-rule="evenodd" clip-rule="evenodd" d="M18.0762 15.7877L15.2422 17.2062C14.9622 17.3473 14.7692 17.6149 14.7262 17.9252L14.2692 21.099C14.2022 21.6137 13.7292 21.9757 13.2152 21.9076C13.0042 21.8793 12.8082 21.7811 12.6622 21.6273L10.4562 19.3331C10.2422 19.1074 9.92923 19.0042 9.62223 19.0578L6.50919 19.6016C5.98819 19.6843 5.49923 19.3312 5.41623 18.8106C5.38323 18.6063 5.41819 18.3971 5.51419 18.2142L6.98423 15.379C7.12823 15.0988 7.12823 14.768 6.98423 14.4888L5.51322 11.6516C5.26722 11.1865 5.44421 10.6105 5.90921 10.3634C6.09221 10.2661 6.30221 10.2321 6.50821 10.2651L9.62119 10.8081C9.92819 10.8625 10.2412 10.7594 10.4562 10.5337L12.6612 8.23652C13.0212 7.86194 13.6152 7.85123 13.9892 8.21123C14.1422 8.35912 14.2412 8.55371 14.2692 8.76484L14.7252 11.9386C14.7692 12.249 14.9622 12.5175 15.2412 12.6586L18.0762 14.0801C18.5482 14.3243 18.7322 14.9042 18.4882 15.3761C18.3962 15.5522 18.2522 15.6962 18.0762 15.7877Z" stroke="black" stroke-width="1.5" stroke-linecap="round" stroke-linejoin="round"/>
<path d="M5.86328 4.94434V6.72096" stroke="black" stroke-width="1.5" stroke-linecap="round" stroke-linejoin="round"/>
<path d="M18.1328 4.94434V9.18059" stroke="black" stroke-width="1.5" stroke-linecap="round" stroke-linejoin="round"/>
<path d="M12 3.91602V5.26551" stroke="black" stroke-width="1.5" stroke-linecap="round" stroke-linejoin="round"/>
</svg>