<svg width="24" height="25" viewBox="0 0 24 25" fill="none" xmlns="http://www.w3.org/2000/svg">
<path fill-rule="evenodd" clip-rule="evenodd" d="M20.3402 11.1952C20.3402 13.7883 19.1529 16.1899 17.1624 17.7441C17.0773 17.8106 16.9718 17.8452 16.8637 17.8452H7.13661C7.02856 17.8452 6.92304 17.8106 6.83787 17.7441C4.84744 16.1899 3.66016 13.7883 3.66016 11.1952C3.66016 6.60523 7.40016 2.86523 12.0002 2.86523C16.6002 2.86523 20.3402 6.60523 20.3402 11.1952Z" fill="black" fill-opacity="0.4"/>
<path fill-rule="evenodd" clip-rule="evenodd" d="M17.66 20.9552C17.63 21.4052 17.41 21.8052 17.05 22.0752C16.65 22.3652 16.13 22.3652 15.08 22.3652H8.92001C7.88001 22.3652 7.35001 22.3652 6.96001 22.0752C6.59001 21.8052 6.37001 21.3952 6.34001 20.9552C6.31001 20.4652 6.60001 20.0252 7.16001 19.1452L7.20277 19.0777C7.29444 18.9329 7.45385 18.8452 7.62518 18.8452H16.3748C16.5462 18.8452 16.7056 18.9329 16.7972 19.0777L16.84 19.1452C17.41 20.0252 17.69 20.4652 17.66 20.9552Z" fill="black"/>
<path fill-rule="evenodd" clip-rule="evenodd" d="M12.8957 11.8625C11.7987 11.5295 10.9437 10.6745 10.6097 9.57649C10.4807 9.15549 9.7807 9.15549 9.6527 9.57649C9.3187 10.6745 8.4637 11.5285 7.3667 11.8625C7.1567 11.9265 7.0127 12.1205 7.0127 12.3415C7.0127 12.5615 7.1567 12.7555 7.3667 12.8195C8.4637 13.1535 9.3187 14.0085 9.6527 15.1055C9.7167 15.3165 9.9107 15.4605 10.1307 15.4605C10.3517 15.4605 10.5447 15.3165 10.6097 15.1055C10.9437 14.0085 11.7987 13.1535 12.8957 12.8195C13.1057 12.7555 13.2497 12.5615 13.2497 12.3415C13.2497 12.1205 13.1057 11.9265 12.8957 11.8625Z" fill="black"/>
<path fill-rule="evenodd" clip-rule="evenodd" d="M16.2634 13.4118L16.2534 13.4018C15.9534 13.1168 15.4844 13.1338 15.1984 13.4328C14.9124 13.7328 14.9294 14.2118 15.2294 14.4978C15.3744 14.6358 15.5604 14.7048 15.7464 14.7048C15.9444 14.7048 16.1414 14.6268 16.2894 14.4718C16.5754 14.1718 16.5634 13.6978 16.2634 13.4118Z" fill="black"/>
<path fill-rule="evenodd" clip-rule="evenodd" d="M9.52319 7.25699C9.70919 7.25699 9.89519 7.18799 10.0402 7.04999C10.3402 6.76399 10.3522 6.28999 10.0662 5.98999L10.0562 5.97999C9.77219 5.67999 9.30119 5.67399 9.00119 5.95899C8.70119 6.24399 8.69419 6.72399 8.98019 7.02399C9.12719 7.17899 9.32519 7.25699 9.52319 7.25699Z" fill="black"/>
<path fill-rule="evenodd" clip-rule="evenodd" d="M15.6506 8.89379C15.8566 8.82679 15.9966 8.63479 15.9966 8.41779C15.9966 8.20179 15.8566 8.00979 15.6506 7.94279C15.2986 7.82879 15.0196 7.54979 14.9046 7.19679C14.8386 6.99079 14.6456 6.85179 14.4296 6.85179C14.2126 6.85179 14.0206 6.99079 13.9536 7.19679C13.8396 7.54979 13.5606 7.82879 13.2086 7.94279C13.0026 8.00979 12.8626 8.20179 12.8626 8.41779C12.8626 8.63479 13.0026 8.82679 13.2086 8.89379C13.5616 9.00779 13.8396 9.28679 13.9536 9.63879C14.0206 9.84479 14.2126 9.98379 14.4296 9.98379C14.6456 9.98379 14.8386 9.84479 14.9046 9.63879C15.0196 9.28679 15.2976 9.00779 15.6506 8.89379Z" fill="black"/>
</svg>