<svg width="24" height="25" viewBox="0 0 24 25" fill="none" xmlns="http://www.w3.org/2000/svg">
<path fill-rule="evenodd" clip-rule="evenodd" d="M8.39571 4.04248C7.72869 4.04248 7.14432 4.60946 7.14432 5.36393C7.14432 6.1172 7.72847 6.68441 8.39571 6.68441C8.80993 6.68441 9.14571 7.0202 9.14571 7.43441C9.14571 7.84862 8.80993 8.18441 8.39571 8.18441C6.85237 8.18441 5.64432 6.89714 5.64432 5.36393C5.64432 3.82998 6.85215 2.54248 8.39571 2.54248C10.227 2.54248 11.3218 3.90465 11.9101 5.01144C12.2145 5.58416 12.4187 6.14974 12.5466 6.56777C12.611 6.77815 12.6571 6.95457 12.6875 7.08032C12.7027 7.14327 12.714 7.19375 12.7218 7.22968L12.7308 7.2725L12.7333 7.28529L12.7342 7.28946L12.7345 7.29097C12.7345 7.29123 12.7347 7.2921 12.0248 7.42928L12.7347 7.2921C12.8133 7.69879 12.5473 8.09219 12.1406 8.17078C11.7343 8.24931 11.3412 7.98388 11.2621 7.57781C11.2621 7.57766 11.2622 7.57797 11.2621 7.57781L11.2619 7.57672L11.2611 7.57256L11.2555 7.5461C11.2502 7.52137 11.2416 7.48286 11.2294 7.43255C11.2051 7.33179 11.1667 7.18462 11.1123 7.00669C11.0026 6.64812 10.8315 6.17821 10.5856 5.71545C10.0731 4.75127 9.3666 4.04248 8.39571 4.04248Z" fill="black"/>
<path fill-rule="evenodd" clip-rule="evenodd" d="M12.0865 5.0114C12.6748 3.90463 13.7697 2.54248 15.601 2.54248C17.1445 2.54248 18.3523 3.82998 18.3523 5.36393C18.3523 6.89714 17.1443 8.18441 15.601 8.18441C15.1867 8.18441 14.851 7.84862 14.851 7.43441C14.851 7.0202 15.1867 6.68441 15.601 6.68441C16.2682 6.68441 16.8523 6.1172 16.8523 5.36393C16.8523 4.60946 16.268 4.04248 15.601 4.04248C14.63 4.04248 13.9235 4.7513 13.4109 5.71549C13.1649 6.17826 12.9939 6.64816 12.8841 7.00674C12.8296 7.18467 12.7913 7.33184 12.7669 7.4326C12.7548 7.48291 12.7462 7.52142 12.7408 7.54616L12.7353 7.57261L12.7344 7.57677C12.6556 7.98321 12.2622 8.24937 11.8557 8.17077C11.449 8.09215 11.1831 7.69873 11.2617 7.29205L11.998 7.43441C11.2617 7.29205 11.2616 7.29231 11.2617 7.29205L11.2622 7.2894L11.263 7.28524L11.2656 7.27244L11.2746 7.22963C11.2824 7.19369 11.2937 7.14322 11.3089 7.08027C11.3393 6.95452 11.3854 6.7781 11.4498 6.56772C11.5777 6.14969 11.782 5.58411 12.0865 5.0114Z" fill="black"/>
<path fill-rule="evenodd" clip-rule="evenodd" d="M4.01529 8.02134C4.77116 7.16408 5.85374 6.68311 7.12775 6.68311H16.873C18.1466 6.68311 19.229 7.16416 19.9847 8.02139C20.7316 8.86875 21.1091 10.0247 21.1091 11.3026V17.4206C21.1091 18.6999 20.7295 19.856 19.9818 20.703C19.2257 21.5597 18.1437 22.0411 16.873 22.0411H7.12677C5.85314 22.0411 4.77078 21.56 4.01507 20.7026C3.26808 19.8551 2.89062 18.699 2.89062 17.4206V11.3026C2.89062 10.0247 3.26813 8.86871 4.01529 8.02134ZM5.14039 9.01338C4.68155 9.53375 4.39062 10.3125 4.39062 11.3026V17.4206C4.39062 18.4113 4.6816 19.1903 5.14036 19.7108C5.5904 20.2214 6.25111 20.5411 7.12677 20.5411H16.873C17.7447 20.5411 18.4059 20.2218 18.8572 19.7104C19.317 19.1895 19.6091 18.4103 19.6091 17.4206V11.3026C19.6091 10.3125 19.3182 9.53372 18.8595 9.01332C18.4094 8.50281 17.7487 8.18311 16.873 8.18311H7.12775C6.25149 8.18311 5.59051 8.50288 5.14039 9.01338Z" fill="black"/>
<path fill-rule="evenodd" clip-rule="evenodd" d="M12.3846 6.79079C12.7395 7.00453 12.8538 7.46543 12.6401 7.82023L10.4139 11.5156C10.2002 11.8704 9.73927 11.9847 9.38447 11.771C9.02966 11.5572 8.91531 11.0963 9.12905 10.7415L11.3552 7.0462C11.5689 6.6914 12.0298 6.57704 12.3846 6.79079Z" fill="black"/>
<path fill-rule="evenodd" clip-rule="evenodd" d="M12.7397 7.32186C12.6783 6.91274 12.2971 6.63052 11.8878 6.69135L12.7397 7.32186ZM11.998 7.43321C11.2562 7.54346 11.2562 7.54367 11.2563 7.54389L11.2565 7.54561L11.257 7.54886L11.2585 7.55856L11.2637 7.59036C11.2681 7.61692 11.2746 7.65403 11.2834 7.70042C11.3008 7.79309 11.3275 7.92333 11.3652 8.08075C11.4402 8.39401 11.561 8.82296 11.7447 9.28123C12.0953 10.1555 12.7506 11.328 13.9366 11.8211C14.319 11.9801 14.758 11.799 14.917 11.4165C15.0761 11.034 14.8949 10.595 14.5125 10.436C13.9106 10.1858 13.4528 9.51058 13.137 8.72302C12.9876 8.35037 12.887 7.99486 12.8239 7.73139C12.7925 7.60045 12.7709 7.49426 12.7574 7.42259C12.7507 7.3868 12.746 7.35977 12.7431 7.34272L12.7402 7.32484L12.7397 7.32186M11.998 7.43321L11.2563 7.54389C11.1954 7.13418 11.4781 6.75224 11.8878 6.69135" fill="black"/>
<path fill-rule="evenodd" clip-rule="evenodd" d="M12 12.3381C12.3301 12.3381 12.6214 12.554 12.7175 12.8698C13.0176 13.8558 13.7893 14.6275 14.7753 14.9276C15.0911 15.0238 15.3069 15.315 15.3069 15.6451C15.3069 15.9752 15.0911 16.2665 14.7753 16.3626C13.7893 16.6628 13.0176 17.4345 12.7175 18.4205C12.6214 18.7363 12.3301 18.9521 12 18.9521C11.6699 18.9521 11.3786 18.7363 11.2825 18.4205C10.9824 17.4345 10.2107 16.6628 9.22472 16.3626C8.90893 16.2665 8.69312 15.9752 8.69312 15.6451C8.69312 15.315 8.90893 15.0238 9.22472 14.9276C10.2107 14.6275 10.9824 13.8558 11.2825 12.8698C11.3786 12.554 11.6699 12.3381 12 12.3381ZM11.0771 15.6451C11.427 15.9073 11.7379 16.2181 12 16.5681C12.2621 16.2181 12.573 15.9073 12.9229 15.6451C12.573 15.383 12.2621 15.0721 12 14.7222C11.7379 15.0721 11.427 15.383 11.0771 15.6451Z" fill="black"/>
</svg>