<svg width="24" height="24" viewBox="0 0 24 24" fill="none" xmlns="http://www.w3.org/2000/svg">
<path opacity="0.4" d="M13.4668 2.89224C12.5592 2.36925 11.4407 2.36925 10.5331 2.89224L4.84655 6.17534C3.93873 6.69962 3.37939 7.66839 3.37939 8.71775V15.2825C3.37939 16.331 3.93888 17.2997 4.8466 17.824L10.5327 21.1068C11.4405 21.6311 12.5594 21.6311 13.4672 21.1068L19.1533 17.8239C20.061 17.2997 20.6205 16.331 20.6205 15.2825V8.71775C20.6205 7.66839 20.0611 6.69959 19.1533 6.1753L13.4668 2.89224Z" fill="black"/>
<path fill-rule="evenodd" clip-rule="evenodd" d="M11.9997 8.20312C12.4139 8.20312 12.7497 8.53891 12.7497 8.95312V10.6672L14.2142 9.77734C14.5682 9.56226 15.0295 9.67487 15.2446 10.0289C15.4597 10.3829 15.3471 10.8442 14.9931 11.0593L13.4438 12.0006L14.994 12.9425C15.348 13.1575 15.4606 13.6189 15.2456 13.9729C15.0305 14.3269 14.5691 14.4395 14.2152 14.2244L12.7497 13.334V15.0479C12.7497 15.4621 12.4139 15.7979 11.9997 15.7979C11.5855 15.7979 11.2497 15.4621 11.2497 15.0479V13.3337L9.78371 14.2244C9.42972 14.4395 8.96839 14.3269 8.75331 13.9729C8.53823 13.6189 8.65084 13.1575 9.00483 12.9425L10.5551 12.0006L9.00578 11.0593C8.65179 10.8442 8.53918 10.3829 8.75426 10.0289C8.96934 9.67487 9.43067 9.56226 9.78466 9.77734L11.2497 10.6675V8.95312C11.2497 8.53891 11.5855 8.20312 11.9997 8.20312Z" fill="black"/>
</svg>