<svg width="24" height="25" viewBox="0 0 24 25" fill="none" xmlns="http://www.w3.org/2000/svg">
<path opacity="0.4" d="M10.2256 12.3877C10.5985 13.6129 11.5573 14.5718 12.7825 14.9447C11.5573 15.3176 10.5985 16.2765 10.2256 17.5017C9.85269 16.2765 8.89386 15.3176 7.6687 14.9447C8.89386 14.5718 9.85269 13.6129 10.2256 12.3877Z" stroke="black" stroke-width="1.5" stroke-linecap="round" stroke-linejoin="round"/>
<path d="M7.26953 8.94835V6.3209C7.26953 4.68826 8.59305 3.36475 10.2257 3.36475C11.8583 3.36475 13.1818 4.68826 13.1818 6.3209V8.94835" stroke="black" stroke-width="1.5" stroke-linecap="round" stroke-linejoin="round"/>
<path opacity="0.4" d="M10.4102 7.01275V6.70505C10.4102 5.52098 11.0563 4.48783 12.0152 3.93896" stroke="black" stroke-width="1.5" stroke-linecap="round" stroke-linejoin="round"/>
<path opacity="0.4" d="M16.7792 7.02842V6.70523C16.7792 5.32374 15.8996 4.14769 14.6699 3.70654" stroke="black" stroke-width="1.5" stroke-linecap="round" stroke-linejoin="round"/>
<path d="M11.8134 7.0376H5.92344C5.13859 7.0376 4.48643 7.64262 4.42765 8.42527L3.53945 20.2524C3.4741 21.1226 4.16256 21.8647 5.03524 21.8647H12.0001" stroke="black" stroke-width="1.5" stroke-linecap="round" stroke-linejoin="round"/>
<path d="M12.3535 7.0376H14.4819C15.2668 7.0376 15.9189 7.64262 15.9777 8.42527L16.8659 20.2524C16.9313 21.1226 16.2428 21.8647 15.3701 21.8647H12.3535" stroke="black" stroke-width="1.5" stroke-linecap="round" stroke-linejoin="round"/>
<path opacity="0.4" d="M11.8135 7.0376H17.7034C18.4703 7.0376 19.1136 7.61598 19.195 8.37849L20.4566 20.2056C20.5512 21.092 19.8565 21.8647 18.9651 21.8647H12.0002" stroke="black" stroke-width="1.5" stroke-linecap="round" stroke-linejoin="round"/>
</svg>