<svg width="24" height="25" viewBox="0 0 24 25" fill="none" xmlns="http://www.w3.org/2000/svg">
<path d="M4.19783 19.7785C4.18183 19.8845 4.19883 19.9935 4.24983 20.0879C4.37683 20.3282 4.67482 20.4197 4.91582 20.2922L6.38384 19.5313C6.52884 19.4564 6.69983 19.4564 6.84383 19.5313L8.31084 20.2922C8.40684 20.3419 8.51483 20.3603 8.62083 20.3428C8.88883 20.3 9.07182 20.047 9.02882 19.7775L8.74782 18.1672C8.72082 18.0085 8.77285 17.8461 8.88985 17.7351L10.0778 16.5938C10.1568 16.5179 10.2088 16.4167 10.2218 16.3077C10.2568 16.0421 10.0698 15.7969 9.80483 15.7618L8.16182 15.5254C8.00182 15.503 7.86284 15.4038 7.78984 15.2588L7.05583 13.7924C7.00783 13.701 6.93382 13.627 6.84282 13.5794C6.59882 13.4529 6.29884 13.5482 6.17284 13.7924L5.43684 15.2598C5.36384 15.4038 5.22483 15.504 5.06383 15.5264L3.42284 15.7618C3.31284 15.7774 3.21282 15.828 3.13582 15.9068C2.94982 16.1005 2.95584 16.4079 3.14784 16.5938L4.33684 17.7351" stroke="black" stroke-width="1.5" stroke-linecap="round" stroke-linejoin="round"/>
<path d="M19.6642 17.7351L20.8521 16.5938C20.9301 16.5179 20.9822 16.4167 20.9962 16.3077C21.0312 16.0421 20.8442 15.7969 20.5782 15.7618L18.9362 15.5254C18.7752 15.503 18.6361 15.4038 18.5631 15.2588L17.8292 13.7924C17.7822 13.701 17.7082 13.627 17.6162 13.5794C17.3722 13.4529 17.0722 13.5482 16.9462 13.7924L16.2101 15.2598C16.1371 15.4038 15.9982 15.504 15.8382 15.5264L14.1962 15.7618C14.0862 15.7774 13.9862 15.828 13.9092 15.9068C13.7232 16.1005 13.7292 16.4079 13.9222 16.5938L15.1111 17.7351C15.2281 17.847 15.2811 18.0085 15.2531 18.1672L14.9721 19.7785C14.9551 19.8845 14.9732 19.9935 15.0232 20.0879C15.1512 20.3282 15.4482 20.4197 15.6902 20.2922L17.1572 19.5313C17.3022 19.4564 17.4732 19.4564 17.6172 19.5313L19.0851 20.2922C19.1801 20.3419 19.2882 20.3603 19.3942 20.3428C19.6632 20.3 19.8462 20.047 19.8032 19.7775" stroke="black" stroke-width="1.5" stroke-linecap="round" stroke-linejoin="round"/>
<path d="M9.58504 11.7375C9.56804 11.8435 9.58604 11.9525 9.63704 12.0469C9.76404 12.2872 10.0621 12.3797 10.3031 12.2512L11.77 11.4903C11.915 11.4164 12.087 11.4164 12.231 11.4903L13.698 12.2512C13.793 12.3008 13.901 12.3193 14.007 12.3018C14.276 12.259 14.459 12.006 14.416 11.7365L14.1351 10.1261C14.1081 9.96753 14.1601 9.80503 14.2771 9.69413L15.465 8.55284C15.544 8.47694 15.5951 8.37573 15.6091 8.26673C15.6441 8.00113 15.4571 7.75683 15.1911 7.72083L13.5491 7.48443C13.3891 7.46203 13.249 7.36283 13.176 7.21783L12.443 5.75144C12.395 5.66004 12.3211 5.58603 12.2301 5.53833C11.9851 5.41183 11.686 5.50724 11.559 5.75144L10.8241 7.21873C10.7511 7.36283 10.611 7.46303 10.451 7.48543L8.80904 7.72083C8.70004 7.73643 8.59905 7.78703 8.52205 7.86583C8.33705 8.05943 8.34205 8.36694 8.53505 8.55374L9.72404 9.69413" stroke="black" stroke-width="1.5" stroke-linecap="round" stroke-linejoin="round"/>
</svg>