<svg width="24" height="25" viewBox="0 0 24 25" fill="none" xmlns="http://www.w3.org/2000/svg">
<path d="M9.97549 16.9271L6.78548 16.8823C6.26548 16.8735 5.85149 16.4454 5.85949 15.9259C5.86249 15.7128 5.93849 15.5075 6.07449 15.3421L8.08749 12.8386C8.28449 12.5953 8.3495 12.2704 8.2625 11.9688L7.3655 8.92041C7.2225 8.40765 7.5205 7.87543 8.0335 7.7324C8.2255 7.67888 8.42851 7.68569 8.61651 7.75283L11.5935 8.86008C11.8875 8.96905 12.2155 8.92624 12.4725 8.74624L15.1105 6.9112C15.5335 6.60958 16.1215 6.70785 16.4225 7.1311C16.5465 7.30526 16.6075 7.51445 16.5955 7.72753L16.4215 10.9121C16.4045 11.2234 16.5425 11.5231 16.7915 11.7109L19.3175 13.6209C19.7335 13.9449 19.8095 14.5442 19.4855 14.9616C19.3585 15.1251 19.1815 15.2428 18.9805 15.2973L15.8985 16.1584C15.5955 16.244 15.3525 16.4698 15.2465 16.7665L14.1735 19.7837C14.0005 20.2819 13.4575 20.5456 12.9585 20.3743C12.7625 20.3062 12.5935 20.1758 12.4785 20.0026L11.8784 19.0826" stroke="black" stroke-width="1.5" stroke-linecap="round" stroke-linejoin="round"/>
<path d="M11.5881 3.91602V5.27721M4.63507 12.2305H3.41406M9.32108 20.1955L9.00507 21.1597M19.6861 9.87233L20.5871 9.57654" stroke="black" stroke-width="1.5" stroke-linecap="round" stroke-linejoin="round"/>
<path d="M18.2969 19.5293L20.5239 21.916" stroke="black" stroke-width="1.5" stroke-linecap="round" stroke-linejoin="round"/>
</svg>