<svg width="25" height="24" viewBox="0 0 25 24" fill="none" xmlns="http://www.w3.org/2000/svg">
<path fill-rule="evenodd" clip-rule="evenodd" d="M12.25 2.50049C12.2498 2.50049 12.2497 2.50049 12.2495 2.50049C10.6331 2.50049 9.99076 4.12438 9.42316 5.55937L9.42153 5.56349C9.13153 6.29749 8.83153 7.05649 8.44953 7.45249C8.07406 7.8399 7.18084 7.88512 6.31515 7.92895L6.30453 7.92949L6.3024 7.92959C4.92176 7.99858 3.20533 8.08433 2.81853 9.72949C2.45158 11.2913 3.59822 12.2362 4.61011 13.0701L4.61053 13.0705C5.30253 13.6405 5.95653 14.1805 6.10153 14.8405C6.24237 15.4807 6.03102 16.3076 5.82624 17.1087L5.82553 17.1115L5.82468 17.1148C5.47288 18.493 5.07461 20.0533 6.40853 21.0595C6.82553 21.3745 7.24853 21.4995 7.66653 21.4995C8.57153 21.4995 9.45353 20.9155 10.2085 20.4155L10.2143 20.4117C10.9115 19.9508 11.6322 19.4745 12.2495 19.4745C12.2497 19.4745 12.2498 19.4745 12.25 19.4745V2.50049Z" fill="black"/>
<path opacity="0.4" fill-rule="evenodd" clip-rule="evenodd" d="M12.25 2.50049C12.2502 2.50049 12.2503 2.50049 12.2505 2.50049C13.8669 2.50049 14.5092 4.12438 15.0768 5.55937L15.0785 5.56349C15.3685 6.29749 15.6685 7.05649 16.0505 7.45249C16.4259 7.8399 17.3192 7.88512 18.1848 7.92895L18.1955 7.92949L18.1976 7.92959C19.5782 7.99858 21.2947 8.08433 21.6815 9.72949C22.0484 11.2913 20.9018 12.2362 19.8899 13.0701L19.8895 13.0705C19.1975 13.6405 18.5435 14.1805 18.3985 14.8405C18.2576 15.4807 18.469 16.3076 18.6738 17.1087L18.6745 17.1115L18.6753 17.1148C19.0271 18.493 19.4254 20.0533 18.0915 21.0595C17.6745 21.3745 17.2515 21.4995 16.8335 21.4995C15.9285 21.4995 15.0465 20.9155 14.2915 20.4155L14.2857 20.4117C13.5885 19.9508 12.8678 19.4745 12.2505 19.4745C12.2503 19.4745 12.2502 19.4745 12.25 19.4745V2.50049Z" fill="black"/>
</svg>