<svg width="24" height="25" viewBox="0 0 24 25" fill="none" xmlns="http://www.w3.org/2000/svg">
<path fill-rule="evenodd" clip-rule="evenodd" d="M12.7416 11.2113L12.0016 9.73633L11.2546 11.2303C11.0526 11.6213 10.6786 11.8903 10.2486 11.9563L8.59259 12.1903L9.77959 13.3353C10.0926 13.6253 10.2456 14.0843 10.1696 14.5243L9.88659 16.1463L11.3776 15.3693C11.5736 15.2683 11.7876 15.2183 12.0016 15.2183C12.2156 15.2183 12.4286 15.2683 12.6226 15.3683L14.1156 16.1463L13.8326 14.5243C13.7536 14.0863 13.9076 13.6253 14.2336 13.3243L15.4076 12.1903L13.7596 11.9573C13.3116 11.8883 12.9346 11.6093 12.7416 11.2113Z" fill="black"/>
<path fill-rule="evenodd" clip-rule="evenodd" d="M16.687 13.041L15.326 14.355L15.648 16.207C15.708 16.569 15.623 16.926 15.411 17.219C15.199 17.511 14.887 17.702 14.533 17.757C14.461 17.768 14.39 17.773 14.319 17.773C14.102 17.773 13.89 17.721 13.696 17.62L12.001 16.737L10.302 17.621C9.647 17.958 8.835 17.707 8.491 17.057C8.355 16.812 8.303 16.499 8.353 16.209L8.676 14.355L7.307 13.036C6.782 12.54 6.761 11.693 7.264 11.154C7.49 10.931 7.759 10.798 8.044 10.754L9.951 10.484L10.798 8.79002C10.963 8.46402 11.242 8.22602 11.584 8.11502C11.927 8.00402 12.294 8.03302 12.619 8.19802C12.877 8.33802 13.072 8.53602 13.199 8.77902C13.2 8.78302 13.202 8.78602 13.204 8.78902L14.055 10.485L15.948 10.753C16.288 10.795 16.603 10.975 16.821 11.258C17.041 11.543 17.137 11.896 17.09 12.253C17.049 12.556 16.906 12.834 16.687 13.041ZM16.217 3.41602H7.782C4.623 3.41602 2.5 5.63402 2.5 8.93602V16.885C2.5 20.193 4.623 22.416 7.782 22.416H16.216C19.376 22.416 21.5 20.193 21.5 16.885V8.93602C21.5 5.63402 19.377 3.41602 16.217 3.41602Z" fill="black"/>
</svg>