<svg width="25" height="24" viewBox="0 0 25 24" fill="none" xmlns="http://www.w3.org/2000/svg">
<path fill-rule="evenodd" clip-rule="evenodd" d="M12.6142 3.75C12.2913 3.75 12.0046 3.95676 11.9026 4.26321L10.1488 9.53429L4.87745 11.2884C4.57101 11.3903 4.36426 11.677 4.36426 12C4.36426 12.323 4.57101 12.6097 4.87746 12.7116L10.1487 14.4657L11.9026 19.7368C12.0046 20.0432 12.2913 20.25 12.6142 20.25C12.9372 20.25 13.2239 20.0433 13.3259 19.7368L15.08 14.4655L20.351 12.7116C20.6575 12.6097 20.8643 12.323 20.8643 12C20.8643 11.677 20.6575 11.3903 20.351 11.2884L15.08 9.53446L13.3259 4.2632C13.2239 3.95675 12.9372 3.75 12.6142 3.75ZM12.6143 6.87548L13.7752 10.3643C13.8499 10.5886 14.0258 10.7646 14.2501 10.8392L17.7387 12L14.2501 13.1608C14.0259 13.2354 13.8499 13.4114 13.7753 13.6356L12.6143 17.1245L11.4535 13.6358C11.3788 13.4116 11.2029 13.2356 10.9786 13.161L7.48966 12L10.9787 10.839C11.2029 10.7644 11.3789 10.5884 11.4535 10.3641L12.6143 6.87548Z" fill="black"/>
<path fill-rule="evenodd" clip-rule="evenodd" d="M16.1821 21.7499C15.7679 21.75 15.4321 21.4142 15.4321 21L15.4319 19.2002C15.4319 18.786 15.7677 18.4501 16.1819 18.4501C16.5961 18.4501 16.9319 18.7858 16.9319 19.2001L16.9321 20.9999C16.9321 21.4141 16.5964 21.7499 16.1821 21.7499Z" fill="black"/>
<path fill-rule="evenodd" clip-rule="evenodd" d="M22.3637 15.4377C22.3637 15.8519 22.028 16.1878 21.6138 16.1878L19.8139 16.1879C19.3997 16.188 19.0639 15.8522 19.0639 15.438C19.0639 15.0238 19.3996 14.688 19.8138 14.6879L21.6136 14.6878C22.0279 14.6878 22.3637 15.0235 22.3637 15.4377Z" fill="black"/>
<path fill-rule="evenodd" clip-rule="evenodd" d="M16.5026 15.6684C16.2097 15.9613 16.2097 16.4362 16.5026 16.7291L20.1015 20.3278C20.3944 20.6206 20.8693 20.6206 21.1622 20.3277C21.4551 20.0348 21.4551 19.56 21.1622 19.2671L17.5633 15.6684C17.2704 15.3755 16.7955 15.3755 16.5026 15.6684Z" fill="black"/>
<path fill-rule="evenodd" clip-rule="evenodd" d="M9.04638 21.7499C9.46059 21.75 9.7964 21.4142 9.79644 21L9.79658 19.2002C9.79661 18.786 9.46085 18.4501 9.04664 18.4501C8.63243 18.4501 8.29661 18.7858 8.29658 19.2001L8.29644 20.9999C8.2964 21.4141 8.63216 21.7499 9.04638 21.7499Z" fill="black"/>
<path fill-rule="evenodd" clip-rule="evenodd" d="M2.86481 15.4377C2.86478 15.8519 3.20054 16.1878 3.61475 16.1878L5.41457 16.1879C5.82879 16.188 6.1646 15.8522 6.16463 15.438C6.16466 15.0238 5.8289 14.688 5.41469 14.6879L3.61487 14.6878C3.20065 14.6878 2.86484 15.0235 2.86481 15.4377Z" fill="black"/>
<path fill-rule="evenodd" clip-rule="evenodd" d="M8.7259 15.6684C9.01879 15.9613 9.01878 16.4362 8.72588 16.7291L5.127 20.3278C4.83409 20.6206 4.35922 20.6206 4.06634 20.3277C3.77345 20.0348 3.77346 19.56 4.06636 19.2671L7.66524 15.6684C7.95815 15.3755 8.43302 15.3755 8.7259 15.6684Z" fill="black"/>
<path fill-rule="evenodd" clip-rule="evenodd" d="M16.1821 2.24982C15.7679 2.24979 15.4321 2.58554 15.4321 2.99976L15.4319 4.79958C15.4319 5.21379 15.7677 5.54961 16.1819 5.54964C16.5961 5.54967 16.9319 5.21391 16.9319 4.7997L16.9321 2.99988C16.9321 2.58566 16.5964 2.24985 16.1821 2.24982Z" fill="black"/>
<path fill-rule="evenodd" clip-rule="evenodd" d="M22.3637 8.56226C22.3637 8.14805 22.028 7.81224 21.6138 7.81221L19.8139 7.81206C19.3997 7.81203 19.0639 8.14779 19.0639 8.562C19.0639 8.97622 19.3996 9.31203 19.8138 9.31206L21.6136 9.3122C22.0279 9.31224 22.3637 8.97648 22.3637 8.56226Z" fill="black"/>
<path fill-rule="evenodd" clip-rule="evenodd" d="M16.5026 8.33159C16.2097 8.03868 16.2097 7.56381 16.5026 7.27092L20.1015 3.67224C20.3944 3.37936 20.8693 3.37937 21.1622 3.67227C21.4551 3.96517 21.4551 4.44004 21.1622 4.73293L17.5633 8.33161C17.2704 8.6245 16.7955 8.62449 16.5026 8.33159Z" fill="black"/>
<path fill-rule="evenodd" clip-rule="evenodd" d="M9.04638 2.24982C9.46059 2.24979 9.7964 2.58554 9.79644 2.99976L9.79658 4.79958C9.79661 5.21379 9.46085 5.54961 9.04664 5.54964C8.63243 5.54967 8.29661 5.21391 8.29658 4.7997L8.29644 2.99988C8.2964 2.58566 8.63216 2.24985 9.04638 2.24982Z" fill="black"/>
<path fill-rule="evenodd" clip-rule="evenodd" d="M2.86481 8.56226C2.86478 8.14805 3.20054 7.81224 3.61475 7.81221L5.41457 7.81206C5.82879 7.81203 6.1646 8.14779 6.16463 8.562C6.16466 8.97622 5.8289 9.31203 5.41469 9.31206L3.61487 9.3122C3.20065 9.31224 2.86484 8.97648 2.86481 8.56226Z" fill="black"/>
<path fill-rule="evenodd" clip-rule="evenodd" d="M8.7259 8.33159C9.01879 8.03868 9.01878 7.56381 8.72588 7.27092L5.127 3.67224C4.83409 3.37936 4.35922 3.37937 4.06634 3.67227C3.77345 3.96517 3.77346 4.44004 4.06636 4.73293L7.66524 8.33161C7.95815 8.6245 8.43302 8.62449 8.7259 8.33159Z" fill="black"/>
</svg>