<svg width="25" height="24" viewBox="0 0 25 24" fill="none" xmlns="http://www.w3.org/2000/svg">
<path d="M14.1327 12.6599L15.1147 11.7164C15.1801 11.6533 15.2222 11.5697 15.2342 11.4797C15.2631 11.2596 15.1084 11.0575 14.8883 11.0286L13.5305 10.833C13.3981 10.8145 13.2829 10.7321 13.2228 10.6126L12.616 9.39993C12.5768 9.32425 12.5154 9.26283 12.44 9.22399C12.2382 9.11942 11.9899 9.1981 11.8853 9.39993L11.2775 10.6129C11.217 10.7325 11.1018 10.8148 10.9694 10.8334L9.61163 11.0289C9.52134 11.0409 9.43768 11.083 9.37461 11.1484C9.22058 11.3084 9.22556 11.5627 9.38523 11.7168L10.3682 12.6602C10.4645 12.7522 10.5086 12.8859 10.4857 13.0171L10.2533 14.3493C10.2391 14.4369 10.254 14.5265 10.2955 14.6052C10.4011 14.804 10.6477 14.8797 10.8466 14.7742L12.0602 14.1451C12.1797 14.0834 12.3215 14.0834 12.441 14.1451L13.8396 14.7742" stroke="black" stroke-width="1.5" stroke-linecap="round" stroke-linejoin="round"/>
<path d="M11.7617 4.70312H7.657C6.575 4.70312 6.033 4.70312 5.592 4.83113C4.524 5.14063 3.689 5.97612 3.38 7.04442C3.253 7.48632 3.253 8.02763 3.254 9.11023L3.25411 9.13557C3.25502 9.35018 3.25548 9.45999 3.268 9.52633C3.316 9.76803 3.33 9.79132 3.522 9.94622C3.577 9.99042 3.782 10.0989 4.193 10.3157C4.799 10.6354 5.21 11.2586 5.209 11.9992V12.057C5.185 12.7501 4.791 13.3436 4.224 13.6542C3.78433 13.8952 3.56397 14.016 3.50999 14.0602C3.31599 14.2218 3.311 14.2288 3.263 14.4772C3.25 14.5451 3.25 14.6625 3.25 14.8975C3.25 15.977 3.25 16.5168 3.377 16.9575C3.686 18.0262 4.522 18.8618 5.591 19.1706C6.03099 19.298 6.57099 19.298 7.65098 19.298H16.844C17.928 19.298 18.47 19.298 18.913 19.1695C19.979 18.8601 20.812 18.0267 21.121 16.9608C21.25 16.5183 21.25 15.9761 21.249 14.8918C21.249 14.6592 21.249 14.543 21.236 14.4738C21.188 14.2319 21.174 14.2089 20.982 14.0538C20.927 14.0095 20.721 13.9006 20.308 13.683C19.7 13.3631 19.289 12.7387 19.289 11.9975C19.289 11.2559 19.701 10.6349 20.308 10.317L20.3469 10.2966C20.7331 10.094 20.9288 9.9913 20.982 9.94832C21.174 9.79362 21.188 9.76962 21.236 9.52782C21.25 9.45842 21.25 9.34202 21.25 9.10922C21.25 8.02452 21.25 7.48212 21.122 7.03942C20.812 5.97412 19.979 5.14112 18.914 4.83172C18.471 4.70312 17.929 4.70312 16.844 4.70312H15.5559" stroke="black" stroke-width="1.5" stroke-linecap="round" stroke-linejoin="round"/>
</svg>