<svg width="25" height="24" viewBox="0 0 25 24" fill="none" xmlns="http://www.w3.org/2000/svg">
<path fill-rule="evenodd" clip-rule="evenodd" d="M21.6815 9.72949C21.2945 8.08349 19.5765 7.99849 18.1955 7.92949C17.3265 7.88549 16.4275 7.84149 16.0515 7.45249C15.6685 7.05649 15.3695 6.29749 15.0785 5.56349C14.5115 4.12749 13.8685 2.50049 12.2495 2.50049C10.6315 2.50049 9.98953 4.12749 9.42153 5.56349C9.13153 6.29749 8.83153 7.05649 8.44953 7.45249C8.07253 7.84149 7.17353 7.88549 6.30453 7.92949C4.92353 7.99849 3.20553 8.08349 2.81853 9.72949C2.45153 11.2915 3.59853 12.2365 4.61053 13.0705C5.30253 13.6405 5.95653 14.1805 6.10153 14.8405C6.24253 15.4815 6.03053 16.3095 5.82553 17.1115C5.47353 18.4905 5.07353 20.0525 6.40853 21.0595C6.82553 21.3745 7.24853 21.4995 7.66653 21.4995C8.57153 21.4995 9.45353 20.9155 10.2085 20.4155C10.9075 19.9535 11.6305 19.4745 12.2495 19.4745C12.8685 19.4745 13.5925 19.9535 14.2905 20.4155C15.3955 21.1465 16.7695 22.0545 18.0925 21.0595C19.4275 20.0525 19.0275 18.4895 18.6745 17.1095C18.4695 16.3085 18.2585 15.4805 18.3985 14.8405C18.5435 14.1805 19.1975 13.6415 19.8895 13.0705C20.9015 12.2365 22.0485 11.2915 21.6815 9.72949Z" fill="black"/>
</svg>