<svg width="24" height="25" viewBox="0 0 24 25" fill="none" xmlns="http://www.w3.org/2000/svg">
<path fill-rule="evenodd" clip-rule="evenodd" d="M10.2257 4.11475C9.00726 4.11475 8.01953 5.10247 8.01953 6.3209V8.94835C8.01953 9.36257 7.68374 9.69835 7.26953 9.69835C6.85532 9.69835 6.51953 9.36257 6.51953 8.94835V6.3209C6.51953 4.27405 8.17883 2.61475 10.2257 2.61475C12.2725 2.61475 13.9318 4.27405 13.9318 6.3209V8.94835C13.9318 9.36257 13.596 9.69835 13.1818 9.69835C12.7676 9.69835 12.4318 9.36257 12.4318 8.94835V6.3209C12.4318 5.10247 11.4441 4.11475 10.2257 4.11475Z" fill="black"/>
<path fill-rule="evenodd" clip-rule="evenodd" d="M12.6661 3.56628C12.8719 3.92577 12.7473 4.384 12.3878 4.58977C11.6527 5.0105 11.1602 5.80065 11.1602 6.70493V7.01263C11.1602 7.42684 10.8244 7.76263 10.4102 7.76263C9.99594 7.76263 9.66016 7.42684 9.66016 7.01263V6.70493C9.66016 5.24108 10.4599 3.96493 11.6427 3.28793C12.0022 3.08217 12.4604 3.20679 12.6661 3.56628Z" fill="black"/>
<path fill-rule="evenodd" clip-rule="evenodd" d="M13.964 3.45324C14.1038 3.06336 14.5333 2.86069 14.9232 3.00056C16.4414 3.54521 17.5292 4.99721 17.5292 6.70519V7.02838C17.5292 7.44259 17.1934 7.77838 16.7792 7.77838C16.365 7.77838 16.0292 7.44259 16.0292 7.02838V6.70519C16.0292 5.6502 15.3578 4.75009 14.4167 4.41245C14.0268 4.27258 13.8241 3.84313 13.964 3.45324Z" fill="black"/>
<path fill-rule="evenodd" clip-rule="evenodd" d="M3.67977 8.3691C3.76794 7.19513 4.74618 6.2876 5.92345 6.2876H17.7034C18.8536 6.2876 19.8187 7.15517 19.9407 8.29894L21.2023 20.126C21.3441 21.4556 20.3021 22.6147 18.965 22.6147H5.03525C3.72623 22.6147 2.69354 21.5016 2.79157 20.1962L3.67977 8.3691ZM5.92345 7.7876C5.53103 7.7876 5.20495 8.09011 5.17556 8.48143L4.28736 20.3085C4.25468 20.7437 4.59891 21.1147 5.03525 21.1147H18.965C19.4107 21.1147 19.758 20.7283 19.7108 20.2852L18.4491 8.45804C18.4085 8.07679 18.0868 7.7876 17.7034 7.7876H5.92345Z" fill="black"/>
<path fill-rule="evenodd" clip-rule="evenodd" d="M11.6035 7.0376C11.6035 6.62338 11.9393 6.2876 12.3535 6.2876H14.4819C15.6592 6.2876 16.6374 7.19513 16.7256 8.3691L17.6138 20.1962C17.7118 21.5016 16.6792 22.6147 15.3701 22.6147H12.3535C11.9393 22.6147 11.6035 22.2789 11.6035 21.8647C11.6035 21.4505 11.9393 21.1147 12.3535 21.1147H15.3701C15.8065 21.1147 16.1507 20.7437 16.118 20.3085L15.2298 8.48143C15.2004 8.09011 14.8744 7.7876 14.4819 7.7876H12.3535C11.9393 7.7876 11.6035 7.45181 11.6035 7.0376Z" fill="black"/>
<path fill-rule="evenodd" clip-rule="evenodd" d="M10.2256 11.6377C10.5557 11.6377 10.847 11.8535 10.9431 12.1693C11.2432 13.1554 12.0149 13.9271 13.0009 14.2272C13.3167 14.3233 13.5325 14.6146 13.5325 14.9447C13.5325 15.2748 13.3167 15.5661 13.0009 15.6622C12.0149 15.9623 11.2432 16.734 10.9431 17.7201C10.847 18.0359 10.5557 18.2517 10.2256 18.2517C9.89549 18.2517 9.6042 18.0359 9.50808 17.7201C9.20797 16.734 8.4363 15.9623 7.45031 15.6622C7.13452 15.5661 6.9187 15.2748 6.9187 14.9447C6.9187 14.6146 7.13452 14.3233 7.45031 14.2272C8.4363 13.9271 9.20797 13.1554 9.50808 12.1693C9.6042 11.8535 9.89549 11.6377 10.2256 11.6377ZM9.30266 14.9447C9.6526 15.2068 9.96347 15.5177 10.2256 15.8677C10.4877 15.5177 10.7986 15.2068 11.1485 14.9447C10.7986 14.6826 10.4877 14.3717 10.2256 14.0217C9.96347 14.3717 9.6526 14.6826 9.30266 14.9447Z" fill="black"/>
</svg>