<svg width="24" height="25" viewBox="0 0 24 25" fill="none" xmlns="http://www.w3.org/2000/svg">
<path d="M10.1309 9.72607C10.5129 10.9811 11.4951 11.9633 12.7501 12.3453C11.4951 12.7273 10.5129 13.7096 10.1309 14.9646C9.74894 13.7096 8.76677 12.7273 7.51178 12.3453C8.76677 11.9633 9.74894 10.9811 10.1309 9.72607Z" stroke="black" stroke-width="1.5" stroke-linecap="round" stroke-linejoin="round"/>
<path d="M15.7363 13.9492L15.7463 13.9592" stroke="black" stroke-width="1.5" stroke-linecap="round" stroke-linejoin="round"/>
<path d="M9.51337 6.50146L9.52337 6.51146" stroke="black" stroke-width="1.5" stroke-linecap="round" stroke-linejoin="round"/>
<path d="M11.9989 3.36523C16.3283 3.36523 19.8376 6.87527 19.8376 11.2039C19.8376 14.2176 18.1372 16.8339 15.6434 18.1458H8.35432C5.86053 16.8339 4.16016 14.2176 4.16016 11.2039C4.16016 6.87527 7.66937 3.36523 11.9989 3.36523Z" stroke="black" stroke-width="1.5" stroke-linecap="round" stroke-linejoin="round"/>
<path d="M8.37444 18.1792L7.58105 19.4174C7.07554 20.2063 6.82279 20.6008 6.84291 20.9268C6.86123 21.2236 7.01066 21.4968 7.25066 21.6724C7.51434 21.8652 7.98282 21.8652 8.91979 21.8652H15.0839C16.0209 21.8652 16.4894 21.8652 16.753 21.6724C16.993 21.4968 17.1425 21.2236 17.1608 20.9268C17.1809 20.6008 16.9282 20.2063 16.4227 19.4174L15.6259 18.1738" stroke="black" stroke-width="1.5" stroke-linecap="round" stroke-linejoin="round"/>
<path fill-rule="evenodd" clip-rule="evenodd" d="M15.4958 8.42188C14.9899 8.58602 14.5935 8.98244 14.4294 9.48828C14.2652 8.98244 13.8688 8.58602 13.363 8.42188C13.8688 8.25773 14.2652 7.86131 14.4294 7.35547C14.5935 7.86131 14.9899 8.25773 15.4958 8.42188Z" stroke="black" stroke-width="1.5" stroke-linecap="round" stroke-linejoin="round"/>
</svg>