<svg width="24" height="25" viewBox="0 0 24 25" fill="none" xmlns="http://www.w3.org/2000/svg">
<path d="M18.3872 16.8508L18.6592 18.4081C18.7429 18.9277 18.3887 19.4171 17.8691 19.4998C17.6638 19.5329 17.4546 19.4988 17.2717 19.4015L14.4355 17.9313C14.1572 17.7873 13.8254 17.7873 13.5462 17.9313L10.709 19.4025C10.2439 19.6486 9.66786 19.4716 9.42072 19.0065C9.32343 18.8236 9.28937 18.6134 9.32245 18.4081L9.86536 15.2946C9.91986 14.9881 9.81676 14.6748 9.59096 14.4607L7.2938 12.255C6.92017 11.895 6.9085 11.3005 7.2685 10.9269C7.41639 10.7731 7.61099 10.6749 7.82212 10.6476L9.40904 10.4189" stroke="black" stroke-width="1.5" stroke-linecap="round" stroke-linejoin="round"/>
<path d="M18.3904 14.4593L20.6857 12.2535C20.8384 12.1066 20.9367 11.911 20.9649 11.7009C21.033 11.1862 20.6711 10.7133 20.1564 10.6462L16.9825 10.1889C16.6731 10.146 16.4036 9.95342 16.2635 9.67412L14.8449 6.83891C14.7535 6.66281 14.6095 6.51881 14.4333 6.42731C13.9614 6.18311 13.3816 6.36701 13.1364 6.83891L11.7158 9.67511" stroke="black" stroke-width="1.5" stroke-linecap="round" stroke-linejoin="round"/>
<path d="M3.02734 12.8857H4.32491" stroke="black" stroke-width="1.5" stroke-linecap="round" stroke-linejoin="round"/>
<path d="M3.02734 6.75781H8.13942" stroke="black" stroke-width="1.5" stroke-linecap="round" stroke-linejoin="round"/>
<path d="M3.02734 19.0752H5.73348" stroke="black" stroke-width="1.5" stroke-linecap="round" stroke-linejoin="round"/>
</svg>