<svg width="25" height="24" viewBox="0 0 25 24" fill="none" xmlns="http://www.w3.org/2000/svg">
<path opacity="0.4" fill-rule="evenodd" clip-rule="evenodd" d="M21.625 11.5156C17.265 10.3916 13.858 6.98456 12.734 2.62456L12.25 0.747559L11.766 2.62456C10.642 6.98456 7.23505 10.3916 2.87505 11.5156L0.998047 11.9996L2.87505 12.4846C7.23505 13.6086 10.642 17.0156 11.766 21.3746L12.25 23.2526L12.734 21.3746C13.858 17.0156 17.265 13.6086 21.625 12.4846L23.502 11.9996L21.625 11.5156Z" fill="black"/>
<path fill-rule="evenodd" clip-rule="evenodd" d="M19.0009 7.747C19.0009 6.585 20.2749 5.248 21.4999 5.248C20.3209 5.248 19.0009 3.897 19.0009 2.75C19.0009 3.897 17.6929 5.248 16.5029 5.248C17.6479 5.248 19.0009 6.578 19.0009 7.747Z" fill="black"/>
</svg>