<svg width="25" height="24" viewBox="0 0 25 24" fill="none" xmlns="http://www.w3.org/2000/svg">
<path fill-rule="evenodd" clip-rule="evenodd" d="M4.35498 3.89744C5.3397 2.84116 6.74194 2.25 8.39739 2.25H16.8321C18.4915 2.25 19.8939 2.84086 20.8777 3.89789C21.8559 4.94883 22.3643 6.39954 22.3643 8.02735V15.9736C22.3643 17.6014 21.8559 19.052 20.8775 20.1027C19.8935 21.1595 18.4908 21.75 16.8311 21.75H8.39739C6.73816 21.75 5.33552 21.1595 4.35143 20.1028C3.37295 19.0521 2.86426 17.6015 2.86426 15.9736V8.02735C2.86426 6.3985 3.37569 4.9479 4.35498 3.89744ZM5.45216 4.92029C4.77471 5.64696 4.36426 6.71004 4.36426 8.02735V15.9736C4.36426 17.2919 4.77307 18.3545 5.44914 19.0805C6.11959 19.8004 7.10852 20.25 8.39739 20.25H16.8311C18.1205 20.25 19.1094 19.8004 19.7797 19.0805C20.4556 18.3546 20.8643 17.292 20.8643 15.9736V8.02735C20.8643 6.709 20.4556 5.64603 19.7797 4.91984C19.1095 4.19973 18.1208 3.75 16.8321 3.75H8.39739C7.1135 3.75 6.12417 4.19944 5.45216 4.92029Z" fill="black"/>
<path fill-rule="evenodd" clip-rule="evenodd" d="M13.6359 7.01934C13.3154 6.03001 11.9155 6.03001 11.595 7.01934C11.5951 7.01919 11.595 7.01948 11.595 7.01934L10.6251 10.0109L7.63268 10.9807L7.63095 10.9813C6.64745 11.3027 6.63968 12.7 7.63268 13.0216C7.63256 13.0216 7.63281 13.0217 7.63268 13.0216L10.6251 13.9915L11.595 16.9839C11.9157 17.972 13.3151 17.9723 13.6358 16.9842L14.6058 13.9915L17.5982 13.0216C18.5897 12.6998 18.5824 11.3034 17.6006 10.9815L14.6057 10.0109L13.6359 7.01934ZM12.6154 8.73567L11.9847 10.6811L11.9842 10.6827C11.8778 11.0084 11.6226 11.2635 11.297 11.3699L11.2953 11.3705L9.34933 12.0012L11.297 12.6324C11.6226 12.7388 11.8778 12.994 11.9842 13.3197L11.9847 13.3213L12.6154 15.2673L13.2461 13.3213L13.2467 13.3197C13.3531 12.994 13.6083 12.7388 13.9339 12.6324L13.9356 12.6319L15.8815 12.0012L13.9356 11.3705L13.9339 11.3699C13.6083 11.2635 13.3531 11.0084 13.2467 10.6827L13.2462 10.6811L12.6154 8.73567Z" fill="black"/>
</svg>