<svg width="25" height="24" viewBox="0 0 25 24" fill="none" xmlns="http://www.w3.org/2000/svg">
<path opacity="0.4" d="M16.5357 7.88888L20.7287 8.48388C21.6837 8.61288 22.3607 9.49688 22.2347 10.4549C22.1807 10.8539 21.9957 11.2229 21.7117 11.4969L18.6757 14.4129C18.4997 14.5809 18.4197 14.8189 18.4617 15.0489L19.1797 19.1789C19.2567 19.6559 19.1447 20.1259 18.8637 20.5099C18.5847 20.8929 18.1727 21.1409 17.7057 21.2109C17.3587 21.2789 16.9617 21.2179 16.6077 21.0389L12.8527 19.0849C12.6327 18.9759 12.3647 18.9779 12.1397 19.0889L8.39568 21.0369C8.13868 21.1729 7.85668 21.2429 7.57168 21.2429C7.39768 21.2429 7.22068 21.2169 7.04968 21.1639C6.59568 21.0249 6.22368 20.7169 6.00068 20.2969C5.82168 19.9509 5.75668 19.5559 5.81868 19.1829L6.53668 15.0529C6.57868 14.8189 6.49768 14.5809 6.32368 14.4119L3.28568 11.4969C2.58968 10.8179 2.56968 9.70588 3.23868 9.01488C3.51668 8.72188 3.88868 8.53588 4.28268 8.49188L8.46468 7.88788C8.70768 7.85188 8.92068 7.69688 9.03368 7.47588L10.9117 3.73188C11.1347 3.29988 11.5067 2.98588 11.9647 2.84188C12.4167 2.69688 12.9017 2.74088 13.3247 2.96288C13.6587 3.13988 13.9207 3.40488 14.0867 3.72888L14.0887 3.73188L15.9647 7.47888C16.0747 7.69788 16.2887 7.85188 16.5357 7.88888Z" fill="black"/>
<path fill-rule="evenodd" clip-rule="evenodd" d="M15.0738 11.876C14.9098 12.04 14.6628 12.143 14.4268 12.143C14.1808 12.143 13.9448 12.04 13.7708 11.876C13.6888 11.784 13.6158 11.691 13.5748 11.578C13.5238 11.466 13.5028 11.342 13.5028 11.219C13.5028 10.973 13.5948 10.737 13.7708 10.562C13.8518 10.48 13.9548 10.419 14.0688 10.367C14.4058 10.224 14.8268 10.316 15.0738 10.562C15.2478 10.737 15.3518 10.973 15.3518 11.219C15.3518 11.466 15.2478 11.702 15.0738 11.876ZM14.7358 15.11C14.0758 15.821 13.3458 16.167 12.5078 16.167C11.6608 16.168 10.8678 15.808 10.2418 15.093C9.96281 14.773 9.99481 14.286 10.3148 14.007C10.6348 13.727 11.1198 13.759 11.4008 14.079C11.7278 14.453 12.0698 14.627 12.4748 14.627C12.8568 14.618 13.2348 14.465 13.6088 14.062C13.8978 13.751 14.3848 13.732 14.6968 14.022C15.0088 14.312 15.0258 14.799 14.7358 15.11ZM9.65381 11.219C9.65381 10.973 9.74581 10.737 9.92181 10.562C10.0028 10.48 10.1058 10.419 10.2188 10.367C10.5568 10.224 10.9678 10.305 11.2248 10.562C11.3988 10.737 11.5018 10.973 11.5018 11.219C11.5018 11.466 11.3988 11.702 11.2248 11.876C11.0598 12.04 10.8138 12.143 10.5778 12.143C10.4548 12.143 10.3318 12.122 10.2188 12.071C10.1058 12.03 10.0028 11.958 9.92181 11.876C9.74581 11.702 9.65381 11.466 9.65381 11.219Z" fill="black"/>
</svg>