<svg width="25" height="24" viewBox="0 0 25 24" fill="none" xmlns="http://www.w3.org/2000/svg">
<path opacity="0.4" fill-rule="evenodd" clip-rule="evenodd" d="M13.6026 4.16836L15.4306 7.82136C15.6116 8.18136 15.9586 8.42936 16.3576 8.48536L20.4476 9.07435C21.1106 9.16138 21.5766 9.77038 21.4896 10.4334C21.4536 10.7044 21.3266 10.9564 21.1296 11.1464L18.1716 13.9884C17.8806 14.2654 17.7476 14.6684 17.8176 15.0644L18.5176 19.0764C18.6256 19.7464 18.1696 20.3764 17.4996 20.4844C17.2356 20.5264 16.9656 20.4814 16.7296 20.3564L13.0756 18.4624C12.7156 18.2764 12.2886 18.2764 11.9286 18.4624L8.27259 20.3573C7.67359 20.6753 6.9306 20.4473 6.6126 19.8484C6.4876 19.6114 6.44258 19.3414 6.48558 19.0774L7.1856 15.0644C7.2546 14.6694 7.12159 14.2664 6.83159 13.9894L3.87059 11.1474C3.38959 10.6834 3.3746 9.91738 3.8386 9.43538C4.0286 9.23838 4.28058 9.11138 4.55258 9.07535L8.6426 8.48636C9.0416 8.43036 9.38859 8.18236 9.57059 7.82236L11.4016 4.16836C11.7166 3.56037 12.4646 3.32337 13.0726 3.63837C13.2996 3.75537 13.4846 3.94037 13.6026 4.16836Z" stroke="black" stroke-width="1.5" stroke-linecap="round" stroke-linejoin="round"/>
<path d="M10.8672 14.5229C11.2696 14.9793 11.795 15.3074 12.4777 15.3145C13.1915 15.3216 13.7044 14.9837 14.1325 14.5229" stroke="black" stroke-width="1.5" stroke-linecap="round" stroke-linejoin="round"/>
<path d="M14.3761 11.2418V11.2428" stroke="black" stroke-width="1.8" stroke-linecap="round" stroke-linejoin="round"/>
<path d="M10.6261 11.2418V11.2428" stroke="black" stroke-width="1.8" stroke-linecap="round" stroke-linejoin="round"/>
</svg>