<svg width="25" height="24" viewBox="0 0 25 24" fill="none" xmlns="http://www.w3.org/2000/svg">
<path fill-rule="evenodd" clip-rule="evenodd" d="M13.6668 10.657L16.867 11.6942C17.1637 11.7915 17.1637 12.2118 16.867 12.3082L13.6668 13.3453C13.5686 13.3775 13.4917 13.4543 13.4596 13.5526L12.4224 16.7527C12.3261 17.0495 11.9048 17.0495 11.8085 16.7527L10.7713 13.5526C10.7392 13.4543 10.6623 13.3775 10.564 13.3453L7.36392 12.3082C7.06619 12.2118 7.06619 11.7915 7.36392 11.6942L10.564 10.657C10.6623 10.6249 10.7392 10.548 10.7713 10.4498L11.8085 7.25064C11.9048 6.95291 12.3261 6.95291 12.4224 7.25064L13.4596 10.4498C13.4917 10.548 13.5686 10.6249 13.6668 10.657Z" stroke="black" stroke-width="1.5" stroke-linecap="round" stroke-linejoin="round"/>
<path opacity="0.4" d="M18.4782 5.63604C21.9929 9.15076 21.9929 14.8492 18.4782 18.364C14.9635 21.8787 9.26502 21.8787 5.7503 18.364C2.23558 14.8492 2.23558 9.15076 5.7503 5.63604C9.26502 2.12132 14.9635 2.12132 18.4782 5.63604Z" stroke="black" stroke-width="1.5" stroke-linecap="round" stroke-linejoin="round"/>
</svg>