<svg width="24" height="25" viewBox="0 0 24 25" fill="none" xmlns="http://www.w3.org/2000/svg">
<path d="M7.94843 20.2495L11.4519 18.4337C11.7968 18.2554 12.206 18.2554 12.551 18.4337L16.0525 20.2486C16.2787 20.3684 16.5374 20.4115 16.7904 20.3713C17.4324 20.2678 17.8694 19.6641 17.7659 19.022L17.0951 15.1775C17.028 14.798 17.1555 14.4118 17.4344 14.1464L20.2689 11.423C20.4577 11.2409 20.5794 10.9994 20.6139 10.7397C20.6973 10.1044 20.2507 9.5208 19.6154 9.4374L15.6961 8.87299C15.3137 8.81932 14.9812 8.58167 14.8077 8.23669L13.056 4.73613C12.9429 4.51766 12.7657 4.34038 12.5481 4.22826C11.9655 3.9264 11.2487 4.15351 10.9469 4.73613L9.19227 8.23765C9.01786 8.58263 8.68535 8.82028 8.303 8.87394L4.38366 9.43836C4.12301 9.47288 3.88154 9.59458 3.69947 9.78336C3.25483 10.2452 3.2692 10.9793 3.73013 11.4239L6.56757 14.1473" stroke="black" stroke-width="1.5" stroke-linecap="round" stroke-linejoin="round"/>
<path d="M19.0289 7.29465C20.2623 8.83496 21 10.7894 21 12.916C21 17.8869 16.9709 21.916 12 21.916C7.0291 21.916 3 17.8869 3 12.916C3 7.94607 7.0291 3.91602 12 3.91602C13.6211 3.91602 15.1421 4.34464 16.4558 5.09471" stroke="black" stroke-width="1.5" stroke-linecap="round" stroke-linejoin="round"/>
</svg>