<svg width="25" height="24" viewBox="0 0 25 24" fill="none" xmlns="http://www.w3.org/2000/svg">
<path fill-rule="evenodd" clip-rule="evenodd" d="M2.86426 12C2.86426 6.61589 7.22909 2.25 12.6143 2.25C17.9994 2.25 22.3643 6.61589 22.3643 12C22.3643 17.3851 17.9994 21.75 12.6143 21.75C7.22914 21.75 2.86426 17.3851 2.86426 12ZM12.6143 3.75C8.05762 3.75 4.36426 7.44421 4.36426 12C4.36426 16.5567 8.05757 20.25 12.6143 20.25C17.1709 20.25 20.8643 16.5567 20.8643 12C20.8643 7.44421 17.1709 3.75 12.6143 3.75Z" fill="black"/>
<path fill-rule="evenodd" clip-rule="evenodd" d="M12.6138 2.25C12.9439 2.25 13.2352 2.46583 13.3313 2.78163C14.5711 6.85493 17.7587 10.0427 21.8318 11.2825C22.1476 11.3786 22.3634 11.6699 22.3634 12C22.3634 12.3301 22.1476 12.6214 21.8318 12.7175C17.7587 13.9573 14.5711 17.1451 13.3313 21.2184C13.2352 21.5342 12.9439 21.75 12.6138 21.75C12.2837 21.75 11.9924 21.5342 11.8963 21.2184C10.6566 17.1451 7.46895 13.9573 3.39586 12.7175C3.08008 12.6214 2.86426 12.3301 2.86426 12C2.86426 11.6699 3.08008 11.3786 3.39586 11.2825C7.46895 10.0427 10.6566 6.85493 11.8963 2.78163C11.9924 2.46583 12.2837 2.25 12.6138 2.25ZM5.70627 12C8.74833 13.4176 11.1963 15.8657 12.6138 18.9078C14.0314 15.8657 16.4793 13.4176 19.5214 12C16.4793 10.5824 14.0314 8.13435 12.6138 5.09216C11.1963 8.13435 8.74833 10.5824 5.70627 12Z" fill="black"/>
</svg>