<svg width="25" height="24" viewBox="0 0 25 24" fill="none" xmlns="http://www.w3.org/2000/svg">
<path d="M11.067 18.0799C8.50172 17.6413 6.47695 15.6187 6.03516 13.0544" stroke="black" stroke-width="1.5" stroke-linecap="round" stroke-linejoin="round"/>
<path d="M18.1949 13.0488C17.7551 15.6157 15.7293 17.6409 13.1621 18.0798" stroke="black" stroke-width="1.5" stroke-linecap="round" stroke-linejoin="round"/>
<path d="M13.166 5.92041C15.7305 6.36138 17.7536 8.3855 18.1931 10.9504" stroke="black" stroke-width="1.5" stroke-linecap="round" stroke-linejoin="round"/>
<path d="M11.0613 5.92041C8.49869 6.36106 6.47662 8.38258 6.03516 10.9449" stroke="black" stroke-width="1.5" stroke-linecap="round" stroke-linejoin="round"/>
<path d="M9.80594 9.69041L12.1152 2.75L14.4248 9.69064L21.3652 12L14.4248 14.3093L12.1152 21.25L9.8059 14.3095L2.86523 12L9.80594 9.69041Z" stroke="black" stroke-width="1.5" stroke-linecap="round" stroke-linejoin="round"/>
<path d="M9.78027 14.3608L14.4594 9.67212" stroke="black" stroke-width="1.5" stroke-linecap="round" stroke-linejoin="round"/>
<path d="M14.46 14.3608L9.78083 9.67212" stroke="black" stroke-width="1.5" stroke-linecap="round" stroke-linejoin="round"/>
</svg>