<svg width="24" height="25" viewBox="0 0 24 25" fill="none" xmlns="http://www.w3.org/2000/svg">
<path d="M16.4699 16.7821L18.801 14.5423C18.957 14.3925 19.0569 14.194 19.0849 13.98C19.1539 13.4575 18.7869 12.9778 18.2639 12.9097L15.0409 12.4456C14.7249 12.4009 14.4529 12.2053 14.3099 11.9212L12.8689 9.04221C12.7769 8.86318 12.631 8.71724 12.452 8.62481C11.972 8.37573 11.3819 8.56351 11.1339 9.04221L9.68993 11.9222C9.54693 12.2063 9.27395 12.4018 8.95995 12.4466L5.73491 12.9097C5.52091 12.9379 5.3229 13.0381 5.1729 13.1938C4.8079 13.5733 4.81893 14.1775 5.19793 14.5433L7.53191 16.7831C7.76091 17.001 7.86594 17.3192 7.81194 17.6315L7.2589 20.7936C7.2259 21.0018 7.26094 21.2149 7.35894 21.4017C7.60994 21.8736 8.19596 22.0536 8.66796 21.8026L11.5499 20.3091C11.8329 20.1631 12.1689 20.1631 12.4539 20.3091L15.3329 21.8026C15.5189 21.9008 15.7319 21.9358 15.9409 21.9028C16.4679 21.8171 16.8279 21.3209 16.7429 20.7926" stroke="black" stroke-width="1.5" stroke-linecap="round" stroke-linejoin="round"/>
<path d="M6.26758 4.95996V8.2184" stroke="black" stroke-width="1.5" stroke-linecap="round" stroke-linejoin="round"/>
<path d="M12 3.91602V5.28691" stroke="black" stroke-width="1.5" stroke-linecap="round" stroke-linejoin="round"/>
<path d="M17.7324 4.95996V8.2184" stroke="black" stroke-width="1.5" stroke-linecap="round" stroke-linejoin="round"/>
</svg>