<svg width="25" height="24" viewBox="0 0 25 24" fill="none" xmlns="http://www.w3.org/2000/svg">
<path fill-rule="evenodd" clip-rule="evenodd" d="M12.25 3.75C7.69365 3.75 4 7.44365 4 12C4 16.5563 7.69365 20.25 12.25 20.25C16.8063 20.25 20.5 16.5563 20.5 12C20.5 7.44365 16.8063 3.75 12.25 3.75ZM2.5 12C2.5 6.61522 6.86522 2.25 12.25 2.25C17.6348 2.25 22 6.61522 22 12C22 17.3848 17.6348 21.75 12.25 21.75C6.86522 21.75 2.5 17.3848 2.5 12Z" fill="black"/>
<path fill-rule="evenodd" clip-rule="evenodd" d="M16.3244 7.56345C17.0328 8.05481 17.5706 8.82021 17.6254 9.78722C17.6778 10.7104 17.3306 11.5174 16.6587 12.0903C16.0079 12.6452 15.1074 12.9368 14.0948 12.9935L14.0858 12.9941L14.0858 12.994C13.4698 13.021 12.8526 12.9956 12.241 12.9181C12.2251 12.917 12.2093 12.9155 12.1936 12.9134C11.6574 12.8436 11.1163 12.8203 10.5761 12.8438C10.2894 12.8597 10.0046 12.9 9.72473 12.9644C9.4916 13.018 9.24688 12.9572 9.06597 12.8007C8.88505 12.6442 8.78965 12.4108 8.80914 12.1723C9.0278 9.49791 11.0089 7.0398 13.8349 6.88338C14.7253 6.83338 15.6226 7.07669 16.3244 7.56345ZM15.4695 8.79599C15.0577 8.51033 14.4945 8.34864 13.9188 8.38103L13.9181 8.38107C12.2964 8.47074 10.9597 9.70428 10.4792 11.3469C10.4855 11.3465 10.4919 11.3462 10.4982 11.3458L10.5063 11.3454L10.5063 11.3454C11.1222 11.3184 11.7394 11.3438 12.3511 11.4213C12.3669 11.4224 12.3827 11.4239 12.3985 11.426C12.9344 11.4958 13.4754 11.5191 14.0154 11.4956C14.8079 11.4505 15.3572 11.2287 15.6855 10.9488C15.9933 10.6864 16.1542 10.3365 16.1278 9.87222C16.104 9.45172 15.8748 9.07713 15.4695 8.79599Z" fill="black"/>
<path fill-rule="evenodd" clip-rule="evenodd" d="M14.6162 11.4442C15.0289 11.4796 15.3348 11.8428 15.2994 12.2555C15.0849 14.7564 13.1877 16.9743 10.5096 17.1216L10.5071 17.1217L10.5071 17.1217C9.6655 17.1652 8.81301 16.9404 8.14293 16.4897C7.46735 16.0353 6.93891 15.3185 6.88469 14.3994C6.83545 13.5647 7.10262 12.8727 7.61629 12.3652C8.10675 11.8807 8.76292 11.6216 9.41102 11.4963C9.8177 11.4177 10.2111 11.6837 10.2897 12.0903C10.3684 12.497 10.1024 12.8904 9.69575 12.9691C9.21885 13.0613 8.87752 13.2278 8.67048 13.4323C8.48665 13.6139 8.35633 13.8744 8.38208 14.311C8.40286 14.6632 8.60192 14.9907 8.98009 15.2451C9.36347 15.5029 9.89047 15.6513 10.4285 15.6238C12.2498 15.5229 13.6444 13.9986 13.8049 12.1274C13.8403 11.7147 14.2035 11.4088 14.6162 11.4442Z" fill="black"/>
</svg>