<svg width="25" height="25" viewBox="0 0 25 25" fill="none" xmlns="http://www.w3.org/2000/svg">
<path fill-rule="evenodd" clip-rule="evenodd" d="M10.6851 9.323C10.33 9.323 9.99164 9.47402 9.75454 9.73834L8.8498 10.747C8.70754 10.9056 8.50454 10.9962 8.29149 10.9962H3.76855C3.35434 10.9962 3.01855 10.6604 3.01855 10.2462C3.01855 9.83199 3.35434 9.4962 3.76855 9.4962H7.95672L8.63793 8.73676L9.19089 9.23275L8.63793 8.73676C9.15955 8.15524 9.90387 7.823 10.6851 7.823H13.8166C14.5978 7.823 15.3422 8.15526 15.8638 8.73682L16.5449 9.4962H20.7332C21.1474 9.4962 21.4832 9.83199 21.4832 10.2462C21.4832 10.6604 21.1474 10.9962 20.7332 10.9962H16.2101C15.9971 10.9962 15.7941 10.9056 15.6518 10.747L14.7472 9.73837C14.5101 9.47403 14.1717 9.323 13.8166 9.323H10.6851Z" fill="black"/>
<path fill-rule="evenodd" clip-rule="evenodd" d="M12.25 4.63477C7.69365 4.63477 4 8.32842 4 12.8848C4 17.4411 7.69365 21.1348 12.25 21.1348C12.6642 21.1348 13 21.4706 13 21.8848C13 22.299 12.6642 22.6348 12.25 22.6348C6.86522 22.6348 2.5 18.2695 2.5 12.8848C2.5 7.49999 6.86522 3.13477 12.25 3.13477C17.6348 3.13477 22 7.49999 22 12.8848C22 13.299 21.6642 13.6348 21.25 13.6348C20.8358 13.6348 20.5 13.299 20.5 12.8848C20.5 8.32842 16.8063 4.63477 12.25 4.63477Z" fill="black"/>
<path fill-rule="evenodd" clip-rule="evenodd" d="M8.09463 16.8201C9.01175 17.8342 9.49219 19.4072 9.49219 21.6433C9.49219 22.0575 9.82797 22.3933 10.2422 22.3933C10.6564 22.3933 10.9922 22.0575 10.9922 21.6433C10.9922 19.2303 10.4792 17.2205 9.20714 15.8139C7.92135 14.3922 5.98971 13.7275 3.47253 13.7275C3.05831 13.7275 2.72253 14.0633 2.72253 14.4775C2.72253 14.8918 3.05831 15.2275 3.47253 15.2275C5.73809 15.2275 7.19127 15.8212 8.09463 16.8201Z" fill="black"/>
<path fill-rule="evenodd" clip-rule="evenodd" d="M12.25 13.2194C11.8358 13.2194 11.5 13.5551 11.5 13.9694C11.5 14.3836 11.8358 14.7194 12.25 14.7194C12.6642 14.7194 13 14.3836 13 13.9694C13 13.5551 12.6642 13.2194 12.25 13.2194ZM10 13.9694C10 12.7267 11.0074 11.7194 12.25 11.7194C13.4926 11.7194 14.5 12.7267 14.5 13.9694C14.5 15.212 13.4926 16.2194 12.25 16.2194C11.0074 16.2194 10 15.212 10 13.9694Z" fill="black"/>
<path fill-rule="evenodd" clip-rule="evenodd" d="M22.7765 16.0857C23.0699 16.3782 23.0706 16.853 22.7781 17.1464L18.4334 21.504C18.2928 21.645 18.1019 21.7243 17.9028 21.7244C17.7037 21.7246 17.5127 21.6455 17.3719 21.5047L15.0605 19.1931C14.7676 18.9001 14.7676 18.4253 15.0605 18.1324C15.3534 17.8395 15.8283 17.8395 16.1212 18.1324L17.9015 19.913L21.7159 16.0873C22.0083 15.794 22.4832 15.7932 22.7765 16.0857Z" fill="black"/>
</svg>