<svg width="25" height="25" viewBox="0 0 25 25" fill="none" xmlns="http://www.w3.org/2000/svg">
<path opacity="0.4" d="M3.7684 10.2462H8.29134L9.19608 9.23755C9.57544 8.81463 10.1168 8.573 10.6849 8.573H13.8165C14.3846 8.573 14.926 8.81464 15.3053 9.2376L16.21 10.2462H20.733" stroke="black" stroke-width="1.5" stroke-linecap="round" stroke-linejoin="round"/>
<path d="M21.25 12.8848C21.25 7.9142 17.2206 3.88477 12.25 3.88477C7.27944 3.88477 3.25 7.9142 3.25 12.8848C3.25 17.8553 7.27944 21.8848 12.25 21.8848" stroke="black" stroke-width="1.5" stroke-linecap="round" stroke-linejoin="round"/>
<path opacity="0.4" d="M3.4723 14.4775C8.25503 14.4775 10.242 16.9942 10.242 21.6433" stroke="black" stroke-width="1.5" stroke-linecap="round" stroke-linejoin="round"/>
<circle cx="12.25" cy="13.9694" r="1.5" stroke="black" stroke-width="1.5" stroke-linecap="round" stroke-linejoin="round"/>
<path d="M22.247 16.6168L17.9023 20.9744L15.5908 18.6627" stroke="black" stroke-width="1.5" stroke-linecap="round" stroke-linejoin="round"/>
</svg>