<svg width="24" height="24" viewBox="0 0 24 24" fill="none" xmlns="http://www.w3.org/2000/svg">
<path d="M12 21C16.9706 21 21 16.9706 21 12C21 7.02944 16.9706 3 12 3C7.02944 3 3 7.02944 3 12C3 16.9706 7.02944 21 12 21Z" stroke="black" stroke-width="1.5" stroke-linecap="round" stroke-linejoin="round"/>
<path d="M12.0003 7.125L11.4603 8.1975C11.2681 8.57903 11.168 9.00029 11.168 9.4275C11.168 9.85471 11.2681 10.276 11.4603 10.6575L12.4803 12.72C12.7192 13.2386 12.8448 13.8022 12.8487 14.3732C12.8526 14.9442 12.7347 15.5094 12.5028 16.0312L12.1278 16.9012" stroke="black" stroke-width="1.5" stroke-linecap="round" stroke-linejoin="round"/>
<path d="M8.62559 8.13672L8.19809 8.99922C8.04727 9.30077 7.96875 9.6333 7.96875 9.97047C7.96875 10.3076 8.04727 10.6402 8.19809 10.9417L9.00059 12.5542C9.18968 12.9654 9.28914 13.4121 9.29237 13.8647C9.29561 14.3173 9.20254 14.7654 9.01934 15.1792L8.71559 15.8655" stroke="black" stroke-width="1.5" stroke-linecap="round" stroke-linejoin="round"/>
<path d="M15.3756 8.13672L14.9481 8.99922C14.7973 9.30077 14.7188 9.6333 14.7188 9.97047C14.7188 10.3076 14.7973 10.6402 14.9481 10.9417L15.7506 12.5542C15.9367 12.9667 16.033 13.4141 16.033 13.8667C16.033 14.3193 15.9367 14.7667 15.7506 15.1792L15.4468 15.8655" stroke="black" stroke-width="1.5" stroke-linecap="round" stroke-linejoin="round"/>
</svg>