<svg width="25" height="24" viewBox="0 0 25 24" fill="none" xmlns="http://www.w3.org/2000/svg">
<path fill-rule="evenodd" clip-rule="evenodd" d="M21.9101 13.3481C21.9101 14.5906 20.9031 15.5985 19.6596 15.5985C18.4172 15.5985 17.4102 14.5906 17.4102 13.3481C17.4102 12.1056 18.4172 11.0977 19.6596 11.0977C20.9031 11.0977 21.9101 12.1056 21.9101 13.3481Z" stroke="black" stroke-width="1.5" stroke-linecap="round" stroke-linejoin="round"/>
<path d="M7.51008 3.89844H7.21625C5.39099 3.89844 3.91016 5.3783 3.91016 7.20453V9.58924C3.91016 12.4098 6.19659 14.6963 9.01621 14.6963H9.60387C12.4235 14.6963 14.7099 12.4098 14.7099 9.58924V7.20453C14.7099 5.3783 13.2301 3.89844 11.4038 3.89844H11.11" stroke="black" stroke-width="1.5" stroke-linecap="round" stroke-linejoin="round"/>
<path opacity="0.4" d="M19.6589 15.5992V15.824C19.6589 18.6815 17.3423 20.9991 14.4837 20.9991C11.6262 20.9991 9.30859 18.6815 9.30859 15.824V14.6992" stroke="black" stroke-width="1.5" stroke-linecap="round" stroke-linejoin="round"/>
<path d="M7.50894 3V4.79996" stroke="black" stroke-width="1.5" stroke-linecap="round" stroke-linejoin="round"/>
<path d="M11.1085 3V4.79996" stroke="black" stroke-width="1.5" stroke-linecap="round" stroke-linejoin="round"/>
</svg>