<svg width="24" height="24" viewBox="0 0 24 24" fill="none" xmlns="http://www.w3.org/2000/svg">
<path d="M11.1512 7.77715C11.5014 7.41329 11.984 7.20703 12.4889 7.20703H17.335C19.5873 7.20703 20.9999 8.80162 20.9999 11.0588V17.1492C20.9999 19.4073 19.5941 21.0019 17.335 21.0019H10.871C8.61093 21.0019 7.20508 19.4073 7.20508 17.1492V12.6329C7.20508 12.1543 7.3909 11.695 7.72169 11.3497L11.1512 7.77715Z" stroke="black" stroke-width="1.5" stroke-linecap="round" stroke-linejoin="round"/>
<path d="M12.3821 7.26172V10.0588C12.3831 11.4238 11.2779 12.532 9.9129 12.5349H7.26367" stroke="black" stroke-width="1.5" stroke-linecap="round" stroke-linejoin="round"/>
<path d="M7.20587 16.8026H6.66688C4.40488 16.8026 3 15.2051 3 12.9431V8.42882C3 7.95696 3.19264 7.49483 3.51953 7.14847L6.94611 3.57791C7.30219 3.21209 7.78378 3 8.28385 3H13.1348C15.387 3 16.8017 4.59848 16.8017 6.86049V7.20685" stroke="black" stroke-width="1.5" stroke-linecap="round" stroke-linejoin="round"/>
<path d="M8.18096 3.05859V5.8557C8.18193 7.22069 7.07671 8.32883 5.71172 8.33175H3.0625" stroke="black" stroke-width="1.5" stroke-linecap="round" stroke-linejoin="round"/>
</svg>