<svg width="25" height="24" viewBox="0 0 25 24" fill="none" xmlns="http://www.w3.org/2000/svg">
<path d="M16.351 20.2557C15.8947 20.7315 15.2642 21 14.6055 21H8.28216C5.34281 21 3.5 18.9188 3.5 15.9736V8.02638C3.5 5.08022 5.33405 3 8.28216 3H16.7159C19.6659 3 21.5 5.08022 21.5 8.02638V13.9187C21.5 14.5443 21.2587 15.1437 20.8257 15.5951L16.351 20.2557Z" stroke="black" stroke-width="1.5" stroke-linecap="round" stroke-linejoin="round"/>
<path opacity="0.4" d="M15.1758 20.9284V17.5142C15.1748 15.8475 16.5233 14.4961 18.1901 14.4922H21.4232" stroke="black" stroke-width="1.5" stroke-linecap="round" stroke-linejoin="round"/>
<path opacity="0.4" d="M10.6649 13.0747V15.1073M13.0153 7.65862C13.1768 8.06532 13.0776 8.5304 12.7623 8.83494C12.7623 8.83494 12.2671 9.20662 12.1893 9.39051C12.09 9.62402 12.0754 10.1796 12.1893 10.4063C12.3041 10.6369 13.0114 11.0232 13.0114 11.0232C13.4405 11.3452 13.6935 11.8502 13.6935 12.3863C13.6935 12.7667 13.386 13.0742 13.0056 13.0742H8.32266C7.9432 13.0742 7.63574 12.7667 7.63574 12.3863C7.63574 11.8502 7.88774 11.3452 8.31682 11.0232C8.31682 11.0232 9.02515 10.6369 9.13996 10.4063C9.2538 10.1796 9.2392 9.62402 9.13996 9.39051C9.06212 9.20662 8.56688 8.83494 8.56688 8.83494C8.25163 8.5304 8.15142 8.06532 8.3139 7.65862C8.47736 7.24705 8.87531 6.97656 9.31899 6.97656H12.0102C12.4529 6.97656 12.8519 7.24705 13.0153 7.65862Z" stroke="black" stroke-width="1.5" stroke-linecap="round" stroke-linejoin="round"/>
</svg>