<svg width="24" height="24" viewBox="0 0 24 24" fill="none" xmlns="http://www.w3.org/2000/svg">
<path fill-rule="evenodd" clip-rule="evenodd" d="M20.1849 16.3209C19.3919 16.3179 18.4569 16.3209 17.7839 16.3279C16.7169 16.3279 15.8379 17.2159 15.8379 18.2939V20.8629C15.8379 21.2829 16.3429 21.4909 16.6309 21.1879C17.1529 20.6399 17.8709 19.8849 18.5859 19.1349C19.2979 18.3869 20.0069 17.6419 20.5159 17.1069C20.7979 16.8119 20.5909 16.3219 20.1849 16.3209Z" fill="black"/>
<path fill-rule="evenodd" clip-rule="evenodd" d="M16.71 2.25391H9.039C6.831 2.25391 5.001 3.85191 4.59 5.96191H3.698C3.288 5.96191 2.948 6.29191 2.948 6.71191C2.948 7.12191 3.288 7.46191 3.698 7.46191H7.028C7.283 7.46191 7.5 7.32191 7.636 7.12291C7.696 7.23091 7.739 7.34891 7.739 7.48191C7.739 7.89191 7.399 8.23191 6.989 8.23191H4.684C4.57354 8.23191 4.484 8.32145 4.484 8.43191V10.9219H3.698C3.288 10.9219 2.948 11.2619 2.948 11.6719C2.948 12.0919 3.288 12.4219 3.698 12.4219H7.028C7.283 12.4219 7.5 12.2849 7.636 12.0869C7.696 12.1949 7.739 12.3119 7.739 12.4419C7.739 12.8619 7.399 13.1919 6.989 13.1919H4.684C4.57354 13.1919 4.484 13.2814 4.484 13.3919V15.8919H3.698C3.288 15.8919 2.948 16.2219 2.948 16.6419C2.948 17.0519 3.288 17.3919 3.698 17.3919H7.028C7.283 17.3919 7.5 17.2519 7.636 17.0529C7.696 17.1609 7.739 17.2789 7.739 17.4119C7.739 17.8219 7.399 18.1619 6.989 18.1619H4.80675C4.6816 18.1619 4.58697 18.2758 4.6166 18.3974C5.0832 20.3126 6.7929 21.7459 8.836 21.7459H13.989C14.24 21.7459 14.433 21.5409 14.433 21.2969V18.1589C14.433 16.3759 15.89 14.9139 17.656 14.9039H20.618C20.859 14.9039 21.052 14.7089 21.052 14.4649V6.62991C21.052 4.21291 19.113 2.25391 16.71 2.25391Z" fill="black"/>
</svg>