<svg width="24" height="24" viewBox="0 0 24 24" fill="none" xmlns="http://www.w3.org/2000/svg">
<path fill-rule="evenodd" clip-rule="evenodd" d="M20.6446 15.4271C19.7206 15.4241 18.6306 15.4271 17.8466 15.4351C16.6026 15.4351 15.5776 16.4701 15.5776 17.7261V20.7201C15.5776 21.2101 16.1656 21.4531 16.5026 21.1001C17.1116 20.4611 17.9476 19.5821 18.7806 18.7071C19.6106 17.8351 20.4376 16.9661 21.0306 16.3441C21.3586 16.0001 21.1186 15.4281 20.6446 15.4271Z" fill="black"/>
<path fill-rule="evenodd" clip-rule="evenodd" d="M13.2101 9.79C12.6001 11.69 10.2901 12.99 10.0201 13.14C9.91009 13.2 9.79009 13.23 9.66009 13.23C9.54009 13.23 9.42009 13.2 9.30009 13.14C9.04009 12.99 6.71009 11.67 6.12009 9.79C5.63009 8.27 6.35009 6.72 7.75009 6.27C8.39009 6.07 9.07009 6.12 9.66009 6.4C10.2601 6.12 10.9401 6.07 11.5801 6.27C12.9801 6.72 13.7001 8.27 13.2101 9.79ZM16.5901 2.25H7.65009C4.73009 2.25 2.34009 4.65 2.34009 7.6V16.63C2.34009 19.44 4.62009 21.75 7.42009 21.75H13.4201C13.7201 21.75 13.9401 21.51 13.9401 21.23V17.57C13.9401 15.49 15.6401 13.79 17.7001 13.78H21.1501C21.4301 13.78 21.6601 13.55 21.6601 13.26V7.35C21.6601 4.53 19.3901 2.25 16.5901 2.25Z" fill="black"/>
<path fill-rule="evenodd" clip-rule="evenodd" d="M11.7801 9.32997C11.4801 10.27 10.3601 11.15 9.6701 11.6C8.97011 11.15 7.84011 10.26 7.55011 9.32997C7.35011 8.70997 7.51011 7.91997 8.2101 7.69997C8.32011 7.65997 8.4301 7.64997 8.5401 7.64997C8.7801 7.64997 9.02011 7.71997 9.22011 7.86997C9.48011 8.05997 9.85011 8.05997 10.1101 7.86997C10.4001 7.64997 10.7801 7.58997 11.1201 7.69997C11.8201 7.91997 11.9801 8.70997 11.7801 9.32997Z" fill="black"/>
</svg>