<svg width="24" height="24" viewBox="0 0 24 24" fill="none" xmlns="http://www.w3.org/2000/svg">
<path d="M15.851 20.2557C15.3947 20.7315 14.7642 21 14.1055 21H7.78216C4.84281 21 3 18.9188 3 15.9736V8.02638C3 5.08022 4.83405 3 7.78216 3H16.2159C19.1659 3 21 5.08022 21 8.02638V13.9187C21 14.5443 20.7587 15.1437 20.3257 15.5951L15.851 20.2557Z" stroke="black" stroke-width="1.5" stroke-linecap="round" stroke-linejoin="round"/>
<path d="M14.6758 20.9284V17.5142C14.6748 15.8475 16.0233 14.4961 17.6901 14.4922H20.9232" stroke="black" stroke-width="1.5" stroke-linecap="round" stroke-linejoin="round"/>
<path d="M10.1659 13.0747V15.1073M12.5163 7.65862C12.6778 8.06532 12.5786 8.5304 12.2633 8.83494C12.2633 8.83494 11.7681 9.20662 11.6902 9.39051C11.591 9.62402 11.5764 10.1796 11.6902 10.4063C11.805 10.6369 12.5124 11.0232 12.5124 11.0232C12.9415 11.3452 13.1944 11.8502 13.1944 12.3863C13.1944 12.7667 12.887 13.0742 12.5066 13.0742H7.82364C7.44418 13.0742 7.13672 12.7667 7.13672 12.3863C7.13672 11.8502 7.38872 11.3452 7.8178 11.0232C7.8178 11.0232 8.52612 10.6369 8.64093 10.4063C8.75477 10.1796 8.74018 9.62402 8.64093 9.39051C8.5631 9.20662 8.06785 8.83494 8.06785 8.83494C7.75261 8.5304 7.65239 8.06532 7.81488 7.65862C7.97834 7.24705 8.37629 6.97656 8.81996 6.97656H11.5112C11.9539 6.97656 12.3528 7.24705 12.5163 7.65862Z" stroke="black" stroke-width="1.5" stroke-linecap="round" stroke-linejoin="round"/>
</svg>