<svg width="24" height="24" viewBox="0 0 24 24" fill="none" xmlns="http://www.w3.org/2000/svg">
<path opacity="0.4" fill-rule="evenodd" clip-rule="evenodd" d="M14.4509 11.3688H8.3119C7.8979 11.3688 7.5619 11.0328 7.5619 10.6188C7.5619 10.2048 7.8979 9.86878 8.3119 9.86878H14.4509C14.8649 9.86878 15.2009 10.2048 15.2009 10.6188C15.2009 11.0328 14.8649 11.3688 14.4509 11.3688ZM12.1259 15.9228H8.3109C7.8969 15.9228 7.5609 15.5868 7.5609 15.1728C7.5609 14.7588 7.8969 14.4228 8.3109 14.4228H12.1259C12.5399 14.4228 12.8759 14.7588 12.8759 15.1728C12.8759 15.5868 12.5399 15.9228 12.1259 15.9228ZM17.0679 3.05078H9.62482C9.44294 3.05078 9.3039 3.21126 9.32058 3.39237C9.33515 3.5506 9.3439 3.71034 9.3439 3.87278C9.3439 7.03323 6.86139 9.61414 3.73883 9.7703C3.57336 9.77857 3.4389 9.9121 3.4389 10.0778V16.8018C3.4389 19.4958 5.6119 21.7008 8.2899 21.7008H14.0339C14.3139 21.7008 14.5289 21.4728 14.5289 21.2018V17.7028C14.5289 15.7148 16.1529 14.0848 18.1219 14.0748H21.4239C21.6929 14.0748 21.9079 13.8568 21.9079 13.5858V7.92978C21.9079 5.23478 19.7459 3.05078 17.0679 3.05078Z" fill="black"/>
<path fill-rule="evenodd" clip-rule="evenodd" d="M14.4509 11.3672H8.3119C7.8979 11.3672 7.5619 11.0312 7.5619 10.6172C7.5619 10.2032 7.8979 9.86719 8.3119 9.86719H14.4509C14.8649 9.86719 15.2009 10.2032 15.2009 10.6172C15.2009 11.0312 14.8649 11.3672 14.4509 11.3672ZM12.1259 15.9212H8.3109C7.8969 15.9212 7.5609 15.5852 7.5609 15.1712C7.5609 14.7572 7.8969 14.4212 8.3109 14.4212H12.1259C12.5399 14.4212 12.8759 14.7572 12.8759 15.1712C12.8759 15.5852 12.5399 15.9212 12.1259 15.9212Z" fill="black"/>
<path fill-rule="evenodd" clip-rule="evenodd" d="M20.9412 15.6531C20.0572 15.6501 19.0142 15.6531 18.2652 15.6611C17.0752 15.6611 16.0952 16.6501 16.0952 17.8521V20.7161C16.0952 21.1841 16.6582 21.4161 16.9792 21.0791C17.5622 20.4671 18.3622 19.6271 19.1582 18.7901C19.9522 17.9561 20.7432 17.1251 21.3102 16.5301C21.6242 16.2011 21.3942 15.6541 20.9412 15.6531Z" fill="black"/>
<path fill-rule="evenodd" clip-rule="evenodd" d="M5.53579 6.80453C5.68179 6.95053 5.87379 7.02453 6.06579 7.02453C6.25779 7.02453 6.44979 6.95053 6.59679 6.80453C6.88979 6.51153 6.88979 6.03653 6.59679 5.74353L5.51479 4.66153L6.59579 3.58053C6.88879 3.28753 6.88879 2.81353 6.59579 2.52053C6.30279 2.22753 5.82779 2.22753 5.53579 2.52053L4.45379 3.60153L3.37279 2.52053C3.07979 2.22753 2.60479 2.22753 2.31179 2.52053C2.01879 2.81353 2.01879 3.28753 2.31179 3.58053L3.39279 4.66153L2.31179 5.74353C2.01879 6.03653 2.01879 6.51153 2.31179 6.80453C2.60479 7.09753 3.07879 7.09753 3.37179 6.80453L4.45379 5.72253L5.53579 6.80453Z" fill="black"/>
</svg>