<svg width="25" height="25" viewBox="0 0 25 25" fill="none" xmlns="http://www.w3.org/2000/svg">
<path d="M5.75 21.1187V19.1187" stroke="black" stroke-width="1.5" stroke-linecap="round" stroke-linejoin="round"/>
<path fill-rule="evenodd" clip-rule="evenodd" d="M6.5152 19.1187H4.98376C4.16453 19.1187 3.5 18.4566 3.5 17.6396V12.5968C3.5 11.7797 4.16453 11.1187 4.98376 11.1187H6.5152C7.33541 11.1187 7.99994 11.7797 7.99994 12.5968V17.6396C7.99994 18.4566 7.33541 19.1187 6.5152 19.1187Z" stroke="black" stroke-width="1.5" stroke-linecap="round" stroke-linejoin="round"/>
<path d="M5.75 11.1187V9.11865" stroke="black" stroke-width="1.5" stroke-linecap="round" stroke-linejoin="round"/>
<path d="M12.5 17.1187V14.6187" stroke="black" stroke-width="1.5" stroke-linecap="round" stroke-linejoin="round"/>
<path fill-rule="evenodd" clip-rule="evenodd" d="M13.2652 14.6187H11.7338C10.9145 14.6187 10.25 13.9566 10.25 13.1396V12.0968C10.25 11.2797 10.9145 10.6187 11.7338 10.6187H13.2652C14.0854 10.6187 14.7499 11.2797 14.7499 12.0968V13.1396C14.7499 13.9566 14.0854 14.6187 13.2652 14.6187Z" stroke="black" stroke-width="1.5" stroke-linecap="round" stroke-linejoin="round"/>
<path d="M12.5 10.6187V5.11865" stroke="black" stroke-width="1.5" stroke-linecap="round" stroke-linejoin="round"/>
<path d="M19.25 14.1187V11.6187" stroke="black" stroke-width="1.5" stroke-linecap="round" stroke-linejoin="round"/>
<path fill-rule="evenodd" clip-rule="evenodd" d="M20.0152 11.6187H18.4838C17.6645 11.6187 17 10.9566 17 10.1396V7.09677C17 6.27969 17.6645 5.61865 18.4838 5.61865H20.0152C20.8354 5.61865 21.4999 6.27969 21.4999 7.09677V10.1396C21.4999 10.9566 20.8354 11.6187 20.0152 11.6187Z" stroke="black" stroke-width="1.5" stroke-linecap="round" stroke-linejoin="round"/>
<path d="M19.25 5.61865V3.11865" stroke="black" stroke-width="1.5" stroke-linecap="round" stroke-linejoin="round"/>
</svg>