<svg width="25" height="24" viewBox="0 0 25 24" fill="none" xmlns="http://www.w3.org/2000/svg">
<path fill-rule="evenodd" clip-rule="evenodd" d="M12.16 11.2202C11.728 11.2202 11.377 11.5702 11.377 12.0002C11.377 12.4302 11.728 12.7802 12.16 12.7802C12.593 12.7802 12.944 12.4302 12.944 12.0002C12.944 11.5702 12.593 11.2202 12.16 11.2202Z" fill="black"/>
<path fill-rule="evenodd" clip-rule="evenodd" d="M16.4007 9.03L14.2777 11.156C14.3827 11.418 14.4437 11.702 14.4437 12C14.4437 13.258 13.4197 14.28 12.1597 14.28C10.9007 14.28 9.87669 13.258 9.87669 12C9.87669 10.743 10.9007 9.72 12.1597 9.72C12.5707 9.72 12.9517 9.838 13.2847 10.029L15.3387 7.97C15.6307 7.676 16.1057 7.676 16.3997 7.969C16.6927 8.262 16.6927 8.737 16.4007 9.03ZM12.1577 2.5C6.92069 2.5 2.65869 6.762 2.65869 12C2.65869 17.238 6.92069 21.5 12.1577 21.5C17.3967 21.5 21.6577 17.238 21.6577 12C21.6577 6.762 17.3967 2.5 12.1577 2.5Z" fill="black"/>
</svg>