<svg width="25" height="24" viewBox="0 0 25 24" fill="none" xmlns="http://www.w3.org/2000/svg">
<path opacity="0.4" fill-rule="evenodd" clip-rule="evenodd" d="M13.2591 5.021C8.75912 5.021 5.09912 8.681 5.09912 13.181C5.09912 13.2833 5.10174 13.3857 5.10564 13.4867C5.11179 13.6461 5.24419 13.771 5.40375 13.771H8.75912C9.86912 13.771 10.7591 14.661 10.7591 15.771C10.7591 15.8206 10.7571 15.8695 10.7532 15.9177C10.737 16.1173 10.8798 16.311 11.0801 16.311H11.2491C12.3491 16.311 13.2491 17.201 13.2491 18.311C13.2491 18.4795 13.227 18.6449 13.1864 18.8035C13.1424 18.9754 13.2617 19.161 13.4391 19.161C14.3722 19.161 15.158 19.8041 15.3738 20.6743C15.4198 20.8597 15.6031 20.9933 15.7848 20.9342C19.0523 19.871 21.4191 16.8009 21.4191 13.181C21.4191 8.681 17.7591 5.021 13.2591 5.021Z" fill="black"/>
<path fill-rule="evenodd" clip-rule="evenodd" d="M11.1617 3.58936H15.3697C15.7837 3.58936 16.1197 3.25336 16.1197 2.83936C16.1197 2.42536 15.7837 2.08936 15.3697 2.08936H11.1617C10.7477 2.08936 10.4117 2.42536 10.4117 2.83936C10.4117 3.25336 10.7477 3.58936 11.1617 3.58936Z" fill="black"/>
<path fill-rule="evenodd" clip-rule="evenodd" d="M11.9949 18.3096C11.9949 17.8956 11.6589 17.5596 11.2449 17.5596H6.95392C6.53992 17.5596 6.20392 17.8956 6.20392 18.3096C6.20392 18.7236 6.53992 19.0596 6.95392 19.0596H11.2449C11.6589 19.0596 11.9949 18.7236 11.9949 18.3096Z" fill="black"/>
<path fill-rule="evenodd" clip-rule="evenodd" d="M13.4343 20.4106H9.14331C8.72931 20.4106 8.39331 20.7466 8.39331 21.1606C8.39331 21.5746 8.72931 21.9106 9.14331 21.9106H13.4343C13.8483 21.9106 14.1843 21.5746 14.1843 21.1606C14.1843 20.7466 13.8483 20.4106 13.4343 20.4106Z" fill="black"/>
<path fill-rule="evenodd" clip-rule="evenodd" d="M9.51295 15.7695C9.51295 15.3555 9.17695 15.0195 8.76295 15.0195H4.47095C4.05695 15.0195 3.72095 15.3555 3.72095 15.7695C3.72095 16.1835 4.05695 16.5195 4.47095 16.5195H8.76295C9.17695 16.5195 9.51295 16.1835 9.51295 15.7695Z" fill="black"/>
<path d="M16.7192 10.741L13.7792 13.681C13.6392 13.831 13.4392 13.901 13.2492 13.901C13.0592 13.901 12.8692 13.831 12.7192 13.681C12.4292 13.391 12.4292 12.911 12.7192 12.621L15.6592 9.681C15.9592 9.391 16.4292 9.391 16.7192 9.681C17.0192 9.971 17.0192 10.451 16.7192 10.741Z" fill="black"/>
</svg>