<svg width="25" height="24" viewBox="0 0 25 24" fill="none" xmlns="http://www.w3.org/2000/svg">
<path d="M10.3965 3H14.6042" stroke="black" stroke-width="1.5" stroke-linecap="round" stroke-linejoin="round"/>
<path d="M12.4902 13.3105L15.4316 10.3691" stroke="black" stroke-width="1.5" stroke-linecap="round" stroke-linejoin="round"/>
<path fill-rule="evenodd" clip-rule="evenodd" d="M18.9238 16.7305H16.9831C16.3069 16.7305 15.8828 17.2093 15.8828 17.8875V19.7148C15.8828 20.393 16.305 20.8718 16.9831 20.8718H18.9238C19.602 20.8718 20.0241 20.393 20.0241 19.7148V17.8875C20.0241 17.2093 19.602 16.7305 18.9238 16.7305Z" stroke="black" stroke-width="1.5" stroke-linecap="round" stroke-linejoin="round"/>
<path d="M20.0857 13.293C20.0857 9.08012 16.6697 5.66406 12.4567 5.66406C9.65961 5.66406 7.21375 7.16993 5.88574 9.41509" stroke="black" stroke-width="1.5" stroke-linecap="round" stroke-linejoin="round"/>
<path d="M12.4571 20.9219C8.24418 20.9219 4.82812 17.5059 4.82812 13.293" stroke="black" stroke-width="1.5" stroke-linecap="round" stroke-linejoin="round"/>
</svg>