<svg width="25" height="24" viewBox="0 0 25 24" fill="none" xmlns="http://www.w3.org/2000/svg">
<path fill-rule="evenodd" clip-rule="evenodd" d="M12.2071 6.41406C8.40839 6.41406 5.32812 9.49433 5.32812 13.293C5.32812 17.0917 8.40839 20.172 12.2071 20.172C12.6213 20.172 12.9571 20.5078 12.9571 20.922C12.9571 21.3362 12.6213 21.672 12.2071 21.672C7.57997 21.672 3.82812 17.9201 3.82812 13.293C3.82812 8.6659 7.57997 4.91406 12.2071 4.91406C16.8342 4.91406 20.5861 8.6659 20.5861 13.293C20.5861 13.7072 20.2503 14.043 19.8361 14.043C19.4218 14.043 19.0861 13.7072 19.0861 13.293C19.0861 9.49433 16.0058 6.41406 12.2071 6.41406Z" fill="black"/>
<path fill-rule="evenodd" clip-rule="evenodd" d="M9.36328 3C9.36328 2.58579 9.69907 2.25 10.1133 2.25H14.3028C14.7171 2.25 15.0528 2.58579 15.0528 3C15.0528 3.41421 14.7171 3.75 14.3028 3.75H10.1133C9.69907 3.75 9.36328 3.41421 9.36328 3Z" fill="black"/>
<path fill-rule="evenodd" clip-rule="evenodd" d="M15.6562 9.80756C15.9491 10.1005 15.9491 10.5753 15.6562 10.8682L12.7276 13.7968C12.4347 14.0897 11.9598 14.0897 11.6669 13.7968C11.374 13.5039 11.374 13.0291 11.6669 12.7362L14.5955 9.80756C14.8884 9.51467 15.3633 9.51467 15.6562 9.80756Z" fill="black"/>
<path fill-rule="evenodd" clip-rule="evenodd" d="M16.5638 17.1579C16.4643 18.048 16.4617 19.0082 16.5644 20.0197C16.5859 20.1806 16.6481 20.2216 16.6633 20.2302C16.6812 20.2404 16.7696 20.2809 16.9639 20.2043C17.7289 19.8919 18.4287 19.4319 18.987 18.9222C19.1421 18.7776 19.1709 18.6559 19.1706 18.5844C19.1702 18.5113 19.1387 18.3923 18.9894 18.2559L18.9856 18.2524L18.9856 18.2524C18.3997 17.71 17.7216 17.2847 16.9573 16.9689L16.9502 16.966L16.9502 16.9659C16.8012 16.9025 16.7089 16.9284 16.6729 16.9475C16.6474 16.961 16.5851 17.0032 16.5638 17.1579ZM17.5333 15.5839C17.0266 15.3696 16.4569 15.3644 15.9705 15.6221C15.4726 15.886 15.1522 16.3782 15.0755 16.9704L15.0754 16.9704L15.074 16.983C14.9605 17.9931 14.9592 19.0666 15.0732 20.1815L15.075 20.1974C15.1439 20.7539 15.429 21.2539 15.9217 21.5341C16.4119 21.8129 16.9902 21.8081 17.5208 21.5971L17.5208 21.5971L17.5269 21.5947C18.4681 21.2109 19.319 20.6507 20.001 20.0275L20.0011 20.0275L20.005 20.0238C20.4223 19.6369 20.6735 19.1292 20.6705 18.5762C20.6675 18.0253 20.4127 17.5252 20.0029 17.1501C19.2785 16.4799 18.4483 15.9624 17.5333 15.5839Z" fill="black"/>
</svg>