<svg width="24" height="24" viewBox="0 0 24 24" fill="none" xmlns="http://www.w3.org/2000/svg">
<path fill-rule="evenodd" clip-rule="evenodd" d="M15.3102 10.9012L12.3702 13.8412C12.2302 13.9912 12.0302 14.0612 11.8402 14.0612C11.6502 14.0612 11.4602 13.9912 11.3102 13.8412C11.0202 13.5512 11.0202 13.0712 11.3102 12.7812L14.2502 9.84115C14.5502 9.55115 15.0202 9.55115 15.3102 9.84115C15.6102 10.1312 15.6102 10.6112 15.3102 10.9012ZM11.8502 5.18115C7.35019 5.18115 3.69019 8.84115 3.69019 13.3412C3.69019 17.8412 7.35019 21.5012 11.8502 21.5012C12.3711 21.5012 12.8791 21.4498 13.3692 21.3573C13.5562 21.322 13.6547 21.1189 13.5928 20.939C13.1615 19.6865 13.3339 18.1003 13.4702 16.8512C13.6002 15.8412 14.1402 15.0312 14.9402 14.5612C15.7602 14.1012 16.7602 14.0512 17.6702 14.4412C18.2561 14.6772 18.8156 14.9728 19.3378 15.328C19.5112 15.446 19.7534 15.3659 19.8014 15.1618C19.9389 14.5778 20.0102 13.9692 20.0102 13.3412C20.0102 8.84115 16.3502 5.18115 11.8502 5.18115Z" fill="black"/>
<path fill-rule="evenodd" clip-rule="evenodd" d="M9.74438 3.74951H13.9524C14.3664 3.74951 14.7024 3.41351 14.7024 2.99951C14.7024 2.58551 14.3664 2.24951 13.9524 2.24951H9.74438C9.33038 2.24951 8.99438 2.58551 8.99438 2.99951C8.99438 3.41351 9.33038 3.74951 9.74438 3.74951Z" fill="black"/>
<path fill-rule="evenodd" clip-rule="evenodd" d="M16.4098 16.9298C16.3698 16.9298 16.3358 16.9378 16.3078 16.9538C16.2378 16.9928 16.2118 17.0918 16.2018 17.1668C16.1008 18.0608 16.1018 19.0298 16.2038 20.0338C16.2158 20.1218 16.2518 20.2018 16.2988 20.2298C16.3448 20.2568 16.4498 20.2638 16.6048 20.2028C17.3348 19.9038 18.0358 19.4588 18.6248 18.9188C18.7098 18.8408 18.8098 18.7188 18.8098 18.5818C18.8088 18.4468 18.7118 18.3288 18.6298 18.2548C18.0478 17.7138 17.3668 17.2848 16.6018 16.9748C16.5298 16.9448 16.4648 16.9298 16.4098 16.9298ZM16.3908 21.7508C16.0848 21.7508 15.7948 21.6738 15.5358 21.5208C15.0848 21.2548 14.7848 20.7738 14.7138 20.2028C14.5988 19.0758 14.5988 17.9988 14.7128 16.9858C14.7888 16.3988 15.0988 15.9168 15.5638 15.6508C16.0408 15.3788 16.6288 15.3568 17.1768 15.5898C18.0998 15.9638 18.9348 16.4908 19.6448 17.1508C20.0688 17.5358 20.3068 18.0438 20.3098 18.5748C20.3118 19.1088 20.0748 19.6218 19.6428 20.0208L19.6408 20.0228C18.9218 20.6818 18.0668 21.2248 17.1668 21.5938C16.9038 21.6988 16.6418 21.7508 16.3908 21.7508Z" fill="black"/>
</svg>