<svg width="24" height="24" viewBox="0 0 24 24" fill="none" xmlns="http://www.w3.org/2000/svg">
<path fill-rule="evenodd" clip-rule="evenodd" d="M15.2733 10.9666L12.3333 13.9066C12.1933 14.0566 11.9933 14.1266 11.8033 14.1266C11.6133 14.1266 11.4233 14.0566 11.2733 13.9066C10.9833 13.6166 10.9833 13.1366 11.2733 12.8466L14.2133 9.90658C14.5133 9.61658 14.9833 9.61658 15.2733 9.90658C15.5733 10.1966 15.5733 10.6766 15.2733 10.9666ZM11.8133 5.24658C7.31332 5.24658 3.65332 8.90658 3.65332 13.4066C3.65332 17.9066 7.31332 21.5666 11.8133 21.5666C12.3722 21.5666 12.918 21.5075 13.4453 21.4001C13.6344 21.3615 13.7288 21.1522 13.6618 20.9712C13.5271 20.607 13.4533 20.206 13.4533 19.7766V17.9566C13.4533 16.1566 14.7833 14.7966 16.5533 14.7966H18.4933C18.8288 14.7966 19.149 14.8475 19.4466 14.9422C19.6289 15.0001 19.8328 14.9001 19.8648 14.7115C19.9372 14.2856 19.9733 13.8491 19.9733 13.4066C19.9733 8.90658 16.3133 5.24658 11.8133 5.24658Z" fill="black"/>
<path fill-rule="evenodd" clip-rule="evenodd" d="M9.70703 3.81494H13.915C14.329 3.81494 14.665 3.47894 14.665 3.06494C14.665 2.65094 14.329 2.31494 13.915 2.31494H9.70703C9.29303 2.31494 8.95703 2.65094 8.95703 3.06494C8.95703 3.47894 9.29303 3.81494 9.70703 3.81494Z" fill="black"/>
<path fill-rule="evenodd" clip-rule="evenodd" d="M16.5556 17.5449C16.4506 17.5449 16.2056 17.5449 16.2056 17.9549V19.7749C16.2056 20.1849 16.4506 20.1849 16.5556 20.1849H18.4966C18.6006 20.1849 18.8466 20.1849 18.8466 19.7749V17.9549C18.8466 17.5449 18.6006 17.5449 18.4966 17.5449H16.5556ZM18.4966 21.6849H16.5556C15.4836 21.6849 14.7056 20.8819 14.7056 19.7749V17.9549C14.7056 16.8479 15.4836 16.0449 16.5556 16.0449H18.4966C19.5686 16.0449 20.3466 16.8479 20.3466 17.9549V19.7749C20.3466 20.8819 19.5686 21.6849 18.4966 21.6849Z" fill="black"/>
</svg>