<svg width="24" height="24" viewBox="0 0 24 24" fill="none" xmlns="http://www.w3.org/2000/svg">
<path fill-rule="evenodd" clip-rule="evenodd" d="M16.1492 10.741L13.2092 13.681C13.0692 13.831 12.8692 13.901 12.6792 13.901C12.4892 13.901 12.2992 13.831 12.1492 13.681C11.8592 13.391 11.8592 12.911 12.1492 12.621L15.0892 9.681C15.3892 9.391 15.8592 9.391 16.1492 9.681C16.4492 9.971 16.4492 10.451 16.1492 10.741ZM12.6892 5.021C8.18917 5.021 4.52917 8.681 4.52917 13.181C4.52917 13.2833 4.53179 13.3857 4.53569 13.4867C4.54184 13.6461 4.67424 13.771 4.8338 13.771H8.18917C9.29917 13.771 10.1892 14.661 10.1892 15.771C10.1892 15.8206 10.1871 15.8695 10.1832 15.9177C10.167 16.1173 10.3098 16.311 10.5101 16.311H10.6792C11.7792 16.311 12.6792 17.201 12.6792 18.311C12.6792 18.4795 12.6571 18.6448 12.6165 18.8035C12.5725 18.9754 12.6917 19.161 12.8692 19.161C13.8022 19.161 14.5881 19.8041 14.8038 20.6743C14.8498 20.8597 15.0332 20.9933 15.2149 20.9342C18.4823 19.871 20.8492 16.8009 20.8492 13.181C20.8492 8.681 17.1892 5.021 12.6892 5.021Z" fill="black"/>
<path fill-rule="evenodd" clip-rule="evenodd" d="M10.5917 3.58936H14.7997C15.2137 3.58936 15.5497 3.25336 15.5497 2.83936C15.5497 2.42536 15.2137 2.08936 14.7997 2.08936H10.5917C10.1777 2.08936 9.84167 2.42536 9.84167 2.83936C9.84167 3.25336 10.1777 3.58936 10.5917 3.58936Z" fill="black"/>
<path fill-rule="evenodd" clip-rule="evenodd" d="M11.4249 18.3096C11.4249 17.8956 11.0889 17.5596 10.6748 17.5596H6.38385C5.96985 17.5596 5.63385 17.8956 5.63385 18.3096C5.63385 18.7236 5.96985 19.0596 6.38385 19.0596H10.6748C11.0889 19.0596 11.4249 18.7236 11.4249 18.3096Z" fill="black"/>
<path fill-rule="evenodd" clip-rule="evenodd" d="M12.8642 20.4106H8.57324C8.15924 20.4106 7.82324 20.7466 7.82324 21.1606C7.82324 21.5746 8.15924 21.9106 8.57324 21.9106H12.8642C13.2782 21.9106 13.6142 21.5746 13.6142 21.1606C13.6142 20.7466 13.2782 20.4106 12.8642 20.4106Z" fill="black"/>
<path fill-rule="evenodd" clip-rule="evenodd" d="M8.94288 15.7695C8.94288 15.3555 8.60688 15.0195 8.19288 15.0195H3.90088C3.48688 15.0195 3.15088 15.3555 3.15088 15.7695C3.15088 16.1835 3.48688 16.5195 3.90088 16.5195H8.19288C8.60688 16.5195 8.94288 16.1835 8.94288 15.7695Z" fill="black"/>
</svg>