<svg width="24" height="24" viewBox="0 0 24 24" fill="none" xmlns="http://www.w3.org/2000/svg">
<path d="M9.70923 3.75H13.9532C14.3672 3.75 14.7032 3.414 14.7032 3C14.7032 2.586 14.3672 2.25 13.9532 2.25H9.70923C9.29523 2.25 8.95923 2.586 8.95923 3C8.95923 3.414 9.29523 3.75 9.70923 3.75Z" fill="black"/>
<path d="M12.0002 21.4302C7.51616 21.4302 3.86816 17.7832 3.86816 13.3002C3.86816 11.498 4.45263 9.7723 5.52589 8.36587L4.13039 6.97018C3.83739 6.67718 3.83739 6.20318 4.13039 5.91018C4.42339 5.61718 4.89739 5.61718 5.19039 5.91018L19.7484 20.4702C20.0414 20.7632 20.0414 21.2372 19.7484 21.5302C19.6024 21.6772 19.4104 21.7502 19.2184 21.7502C19.0264 21.7502 18.8344 21.6772 18.6884 21.5302L16.9203 19.7619C15.5163 20.8427 13.7953 21.4302 12.0002 21.4302Z" fill="black"/>
<path d="M18.9179 15.9739C19.0119 16.0689 19.1399 16.1199 19.2709 16.1199C19.3109 16.1199 19.3499 16.1149 19.3899 16.1059C19.5589 16.0649 19.6949 15.9379 19.7479 15.7709C20.0029 14.9659 20.1319 14.1349 20.1319 13.2999C20.1319 11.0266 19.1935 8.96789 17.6834 7.49088C17.9428 7.23038 18.1649 7.00935 18.4287 6.74667L18.6532 6.52314L18.7662 6.41214C19.0592 6.12014 19.0612 5.64514 18.7692 5.35114C18.4782 5.05714 18.0032 5.05614 17.7092 5.34814L17.529 5.52683C17.1505 5.9023 16.8739 6.17679 16.5129 6.53998C15.2209 5.67492 13.6683 5.16992 11.9999 5.16992C11.1689 5.16992 10.3369 5.29892 9.52895 5.55292C9.36195 5.60592 9.23495 5.74192 9.19295 5.91092C9.15095 6.08092 9.20095 6.25992 9.32495 6.38392L18.9179 15.9739Z" fill="black"/>
</svg>