<svg width="25" height="24" viewBox="0 0 25 24" fill="none" xmlns="http://www.w3.org/2000/svg">
<path fill-rule="evenodd" clip-rule="evenodd" d="M12.4082 3.75C7.85236 3.75 4.15918 7.44398 4.15918 12C4.15918 16.556 7.85236 20.25 12.4082 20.25C16.965 20.25 20.6582 16.556 20.6582 12C20.6582 7.44404 16.965 3.75 12.4082 3.75ZM2.65918 12C2.65918 6.61578 7.02371 2.25 12.4082 2.25C17.7936 2.25 22.1582 6.61572 22.1582 12C22.1582 17.3843 17.7936 21.75 12.4082 21.75C7.02371 21.75 2.65918 17.3842 2.65918 12Z" fill="black"/>
<path fill-rule="evenodd" clip-rule="evenodd" d="M12.4105 11.2168C11.9779 11.2168 11.627 11.5677 11.627 12.0003C11.627 12.4329 11.9779 12.7839 12.4105 12.7839C12.8431 12.7839 13.194 12.4329 13.194 12.0003C13.194 11.5677 12.8431 11.2168 12.4105 11.2168ZM10.127 12.0003C10.127 10.7393 11.1494 9.7168 12.4105 9.7168C13.6715 9.7168 14.694 10.7393 14.694 12.0003C14.694 13.2614 13.6715 14.2839 12.4105 14.2839C11.1494 14.2839 10.127 13.2614 10.127 12.0003Z" fill="black"/>
<path fill-rule="evenodd" clip-rule="evenodd" d="M16.6502 7.97358C16.9431 8.26647 16.9431 8.74134 16.6502 9.03424L14.1241 11.5604C13.8312 11.8532 13.3563 11.8532 13.0634 11.5604C12.7705 11.2675 12.7705 10.7926 13.0634 10.4997L15.5895 7.97358C15.8824 7.68068 16.3573 7.68068 16.6502 7.97358Z" fill="black"/>
</svg>