<svg width="25" height="24" viewBox="0 0 25 24" fill="none" xmlns="http://www.w3.org/2000/svg">
<path opacity="0.4" fill-rule="evenodd" clip-rule="evenodd" d="M12.5701 2.50049C7.33207 2.50049 3.07007 6.76249 3.07007 11.9995C3.07007 17.2385 7.33207 21.4995 12.5701 21.4995C17.8091 21.4995 22.0701 17.2385 22.0701 11.9995C22.0701 6.76249 17.8091 2.50049 12.5701 2.50049Z" fill="black"/>
<path fill-rule="evenodd" clip-rule="evenodd" d="M16.045 13.2024C16.045 14.5404 15.141 15.4744 13.846 15.4744H11.292C9.99802 15.4744 9.09302 14.5404 9.09302 13.2024V10.7954C9.09302 9.45744 9.99802 8.52344 11.292 8.52344H13.846C15.141 8.52344 16.045 9.45744 16.045 10.7954V13.2024ZM11.2923 10.0239H13.8463C14.4243 10.0239 14.5453 10.4439 14.5453 10.7959V13.2029C14.5453 13.5549 14.4243 13.9749 13.8463 13.9749H11.2923C10.7143 13.9749 10.5933 13.5549 10.5933 13.2029V10.7959C10.5933 10.5079 10.6843 10.0239 11.2923 10.0239Z" fill="black"/>
</svg>