<svg width="24" height="24" viewBox="0 0 24 24" fill="none" xmlns="http://www.w3.org/2000/svg">
<path d="M5.7863 3.83984H18.2141C18.9983 3.83984 19.7008 4.33314 19.98 5.07941L20.8742 7.68113C21.346 8.94307 20.4324 10.2945 19.1082 10.2945H4.89214C3.56793 10.2945 2.65334 8.94307 3.1262 7.68113L4.01939 5.07941C4.29961 4.33314 5.00209 3.83984 5.7863 3.83984Z" stroke="black" stroke-width="1.5" stroke-linecap="round" stroke-linejoin="round"/>
<path d="M4.79004 10.3037V17.5513C4.79685 19.0001 5.97706 20.1686 7.42582 20.1618H16.5727C18.0215 20.1696 19.2026 19.002 19.2104 17.5533V10.2969" stroke="black" stroke-width="1.5" stroke-linecap="round" stroke-linejoin="round"/>
<path d="M9.53711 20.1587V16.6774C9.53711 15.3172 10.6395 14.2148 11.9997 14.2148C13.3599 14.2148 14.4633 15.3172 14.4633 16.6774V20.1587" stroke="black" stroke-width="1.5" stroke-linecap="round" stroke-linejoin="round"/>
</svg>