<svg width="24" height="25" viewBox="0 0 24 25" fill="none" xmlns="http://www.w3.org/2000/svg">
<g opacity="0.4">
<path fill-rule="evenodd" clip-rule="evenodd" d="M20.5679 14.9463H4.89488C4.73988 14.9463 4.59288 15.0183 4.49888 15.1423C4.40388 15.2653 4.37188 15.4253 4.41188 15.5753L5.46088 19.4933C5.92188 21.2163 7.48588 22.3553 9.19188 22.3553C9.52088 22.3553 9.85588 22.3133 10.1899 22.2233L18.3209 20.0443C19.3169 19.7783 20.1499 19.1393 20.6649 18.2463C21.1809 17.3533 21.3179 16.3123 21.0509 15.3173C20.9919 15.0983 20.7949 14.9463 20.5679 14.9463Z" fill="black"/>
<path fill-rule="evenodd" clip-rule="evenodd" d="M13.603 11.5527C13.189 11.5527 12.853 11.8887 12.853 12.3027C12.853 12.7167 13.189 13.0527 13.603 13.0527H15.7C16.114 13.0527 16.45 12.7167 16.45 12.3027C16.45 11.8887 16.114 11.5527 15.7 11.5527H13.603Z" fill="black"/>
<path fill-rule="evenodd" clip-rule="evenodd" d="M21 11.5527H18.903C18.489 11.5527 18.153 11.8887 18.153 12.3027C18.153 12.7167 18.489 13.0527 18.903 13.0527H21C21.414 13.0527 21.75 12.7167 21.75 12.3027C21.75 11.8887 21.414 11.5527 21 11.5527Z" fill="black"/>
<path fill-rule="evenodd" clip-rule="evenodd" d="M8.2998 11.5527C7.8858 11.5527 7.5498 11.8887 7.5498 12.3027C7.5498 12.7167 7.8858 13.0527 8.2998 13.0527H10.3968C10.8108 13.0527 11.1468 12.7167 11.1468 12.3027C11.1468 11.8887 10.8108 11.5527 10.3968 11.5527H8.2998Z" fill="black"/>
<path fill-rule="evenodd" clip-rule="evenodd" d="M5.84712 12.3027C5.84712 11.8887 5.51112 11.5527 5.09712 11.5527H3.00012C2.58612 11.5527 2.25012 11.8887 2.25012 12.3027C2.25012 12.7167 2.58612 13.0527 3.00012 13.0527H5.09712C5.51112 13.0527 5.84712 12.7167 5.84712 12.3027Z" fill="black"/>
</g>
<path fill-rule="evenodd" clip-rule="evenodd" d="M3.20997 9.65684H18.883C19.038 9.65684 19.185 9.58484 19.279 9.46083C19.374 9.33783 19.406 9.17783 19.366 9.02783L18.317 5.10883C18.05 4.11283 17.411 3.28084 16.518 2.76484C15.625 2.24984 14.585 2.11184 13.588 2.37984L5.45697 4.55784C3.40097 5.10984 2.17697 7.23083 2.72697 9.28584C2.78597 9.50484 2.98297 9.65684 3.20997 9.65684Z" fill="black"/>
</svg>