<svg width="24" height="24" viewBox="0 0 24 24" fill="none" xmlns="http://www.w3.org/2000/svg">
<path d="M7.78216 3H16.2169C19.165 3 21 5.08119 21 8.02638V15.9736C21 18.9188 19.165 21 16.2159 21H7.78216C4.83405 21 3 18.9188 3 15.9736V8.02638C3 5.08119 4.84281 3 7.78216 3Z" stroke="black" stroke-width="1.5" stroke-linecap="round" stroke-linejoin="round"/>
<path d="M14.0189 8.51542C13.5604 8.19145 12.8399 7.98084 12.1081 8.00138C10.8924 8.0355 9.82129 8.63508 9.82129 9.91476C9.82129 10.6746 10.3308 11.2359 10.9539 11.5494L13.0461 12.4506C13.6692 12.7641 14.1787 13.3254 14.1787 14.0852C14.1787 15.3649 13.1077 15.9645 11.8919 15.9986C11.1601 16.0192 10.4397 15.8085 9.98113 15.4846" stroke="black" stroke-width="1.5" stroke-linecap="round" stroke-linejoin="round"/>
</svg>