<svg width="24" height="24" viewBox="0 0 24 24" fill="none" xmlns="http://www.w3.org/2000/svg">
<path opacity="0.4" d="M8.40756 10.2C7.95956 10.2 7.55256 9.897 7.43856 9.442C7.35956 9.126 7.32156 8.815 7.32356 8.494C7.32356 5.976 9.37856 4 12.0016 4C13.9816 4 15.6996 5.126 16.3766 6.868C16.5766 7.383 16.3216 7.962 15.8066 8.162C15.2906 8.364 14.7126 8.107 14.5126 7.593C14.1306 6.61 13.1686 6 12.0016 6C10.4746 6 9.32356 7.075 9.32356 8.5C9.32256 8.658 9.34056 8.805 9.37856 8.958C9.51256 9.493 9.18656 10.036 8.65156 10.17C8.56956 10.19 8.48856 10.2 8.40756 10.2Z" fill="black"/>
<path d="M5.88098 13H12.5403H16.0972H18.119C18.671 13 19.119 12.553 19.119 12C19.119 11.447 18.671 11 18.119 11H12.7851C12.7435 10.9974 12.702 10.9974 12.6609 11H5.88098C5.32898 11 4.88098 11.447 4.88098 12C4.88098 12.553 5.32898 13 5.88098 13Z" fill="black"/>
<path opacity="0.4" d="M11.9999 19.9995C9.3019 19.9995 7.1059 17.9805 7.1059 15.4995C7.1059 14.9465 7.5539 14.4995 8.1059 14.4995C8.6589 14.4995 9.1059 14.9465 9.1059 15.4995C9.1059 16.8785 10.4039 17.9995 11.9999 17.9995C13.5959 17.9995 14.8939 16.8785 14.8939 15.4995C14.8939 14.3058 14.3175 13.6829 12.5403 13H16.0972C16.5703 13.6215 16.8939 14.4317 16.8939 15.4995C16.8939 17.9805 14.6989 19.9995 11.9999 19.9995Z" fill="black"/>
</svg>