<svg width="24" height="24" viewBox="0 0 24 24" fill="none" xmlns="http://www.w3.org/2000/svg">
<path fill-rule="evenodd" clip-rule="evenodd" d="M7.09889 3.89909C8.43534 2.80434 10.2847 2.25 12.3974 2.25C14.0536 2.25 15.6458 2.45736 17.2505 3.09922C17.2698 3.10694 17.2888 3.11546 17.3074 3.12476C17.7955 3.36884 18.0203 3.85143 18.0203 4.29282V7.67403C18.0203 8.15109 17.7708 8.52927 17.4368 8.74186C17.1227 8.94174 16.7148 9.00873 16.337 8.88278C16.3173 8.87621 16.2978 8.86882 16.2787 8.86063C14.975 8.3019 13.5835 8.02624 12.3974 8.02624C11.8889 8.02624 11.6375 8.10119 11.5318 8.16551C11.4933 8.18895 11.4854 8.20399 11.4819 8.21077L11.4819 8.21078C11.4762 8.2217 11.4568 8.26496 11.4568 8.37017L11.4567 8.37184C11.4567 8.39694 11.4566 8.43142 11.54 8.50948C11.6474 8.61004 11.8425 8.72889 12.1675 8.86725C12.4859 9.0028 12.8657 9.13172 13.3111 9.28155L13.347 9.29365C13.7731 9.43698 14.2477 9.59661 14.7254 9.78643C15.7035 10.1751 16.767 10.7168 17.5923 11.6087C18.4371 12.5216 18.9869 13.7515 19.0147 15.4184L19.0149 15.4309H19.0148C19.0148 17.4367 18.224 19.0526 16.8254 20.1484C15.4493 21.2266 13.5531 21.75 11.4029 21.75C9.72323 21.75 7.83505 21.4359 6.0455 20.699C6.02861 20.6921 6.01198 20.6845 5.99565 20.6763C5.50748 20.4323 5.28272 19.9497 5.28272 19.5083V15.9282C5.28272 15.5543 5.4266 15.1325 5.80316 14.8815C6.18758 14.6252 6.63776 14.664 6.9859 14.869C8.40741 15.5264 10.0673 15.9738 11.3034 15.9738C11.5609 15.9738 11.7394 15.9615 11.866 15.9389C11.9436 15.925 11.9847 15.91 12.0031 15.9018C12.0182 15.865 12.0451 15.7635 12.0451 15.5304C12.0451 15.397 11.9804 15.1936 11.3515 14.8732C11.0584 14.7239 10.7049 14.5811 10.2902 14.4205C10.2176 14.3924 10.1433 14.3637 10.0674 14.3346C9.72117 14.2013 9.34406 14.0561 8.96874 13.8949C8.05553 13.5026 7.05511 12.9763 6.28461 12.1353C5.49252 11.2707 4.98438 10.1189 4.98438 8.56906C4.98438 6.61819 5.74574 5.00752 7.09889 3.89909ZM11.9931 15.9195C11.9928 15.919 11.9947 15.9151 11.9997 15.9095C11.9959 15.9173 11.9934 15.9201 11.9931 15.9195ZM8.04942 5.05947C7.06555 5.86541 6.48438 7.03927 6.48438 8.56906C6.48438 9.75404 6.85882 10.5415 7.39063 11.122C7.94403 11.726 8.7088 12.1507 9.56079 12.5167C9.90713 12.6655 10.2517 12.7981 10.5967 12.931C10.6751 12.9611 10.7535 12.9913 10.832 13.0217C11.2447 13.1816 11.6635 13.3488 12.0323 13.5366C12.7273 13.8907 13.5451 14.4704 13.5451 15.5304C13.5451 16.0917 13.4391 16.7098 12.9044 17.1038C12.4461 17.4415 11.8315 17.4738 11.3034 17.4738C9.91847 17.4738 8.23805 17.0362 6.78272 16.4193V19.3789C8.32551 19.9867 9.95238 20.25 11.4029 20.25C13.3301 20.25 14.8648 19.779 15.9003 18.9676C16.9119 18.175 17.5132 17.0084 17.5148 15.4372C17.4916 14.1242 17.0722 13.2551 16.4914 12.6275C15.8903 11.978 15.0705 11.5376 14.1715 11.1804C13.7318 11.0057 13.2903 10.8572 12.8553 10.7108L12.8328 10.7033C12.4006 10.5578 11.9623 10.4102 11.5799 10.2474C11.2041 10.0874 10.8157 9.88616 10.5148 9.60447C10.1918 9.30202 9.95675 8.89188 9.95675 8.37017C9.95675 7.74685 10.2131 7.21217 10.7519 6.88421C11.218 6.60047 11.8119 6.52624 12.3974 6.52624C13.6874 6.52624 15.141 6.79902 16.5203 7.33878V4.42461C15.198 3.92483 13.8596 3.75 12.3974 3.75C10.5321 3.75 9.04998 4.23986 8.04942 5.05947Z" fill="black"/>
</svg>