<svg width="24" height="24" viewBox="0 0 24 24" fill="none" xmlns="http://www.w3.org/2000/svg">
<path opacity="0.4" d="M12 21C16.9708 21 21 16.9708 21 12C21 7.02916 16.9708 3 12 3C7.02916 3 3 7.02916 3 12C3 16.9708 7.02916 21 12 21Z" stroke="black" stroke-width="1.5" stroke-linecap="round" stroke-linejoin="round"/>
<path d="M7 12.4648V14.1315C7 15.052 7.74619 15.7982 8.66667 15.7982C9.58714 15.7982 10.3333 15.052 10.3333 14.1315V9.13151C10.3333 8.21104 11.0795 7.46484 12 7.46484C12.9205 7.46484 13.6667 8.21104 13.6667 9.13151V9.96484" stroke="black" stroke-width="1.5" stroke-linecap="round"/>
<path d="M17.0003 12.4648V14.1315C17.0003 15.052 16.2542 15.7982 15.3337 15.7982C14.4132 15.7982 13.667 15.052 13.667 14.1315V12.4648" stroke="black" stroke-width="1.5" stroke-linecap="round"/>
</svg>