<svg width="24" height="24" viewBox="0 0 24 24" fill="none" xmlns="http://www.w3.org/2000/svg">
<path fill-rule="evenodd" clip-rule="evenodd" d="M3.7402 3.89737C4.72468 2.84117 6.12669 2.25 7.78216 2.25H16.2169C17.8762 2.25 19.2788 2.84084 20.2629 3.89765C21.2413 4.94841 21.75 6.39889 21.75 8.02638V15.9736C21.75 17.6011 21.2413 19.0516 20.2627 20.1024C19.2785 21.1592 17.8756 21.75 16.2159 21.75H7.78216C6.1228 21.75 4.72038 21.1591 3.73657 20.1023C2.75842 19.0515 2.25 17.601 2.25 15.9736V8.02638C2.25 6.39806 2.76117 4.94771 3.7402 3.89737ZM4.83745 4.92012C4.16024 5.64666 3.75 6.70951 3.75 8.02638V15.9736C3.75 17.2914 4.15861 18.3541 4.83451 19.0802C5.50475 19.8003 6.49341 20.25 7.78216 20.25H16.2159C17.5052 20.25 18.4944 19.8002 19.165 19.0801C19.8412 18.354 20.25 17.2913 20.25 15.9736V8.02638C20.25 6.70868 19.8412 5.64597 19.1651 4.91984C18.4946 4.19975 17.5056 3.75 16.2169 3.75H7.78216C6.49828 3.75 5.50921 4.19943 4.83745 4.92012Z" fill="black"/>
<path fill-rule="evenodd" clip-rule="evenodd" d="M12 8.58203C11.4937 8.58203 11.0833 8.99243 11.0833 9.4987V14.4987C11.0833 15.8334 10.0013 16.9154 8.66667 16.9154C7.33199 16.9154 6.25 15.8334 6.25 14.4987V12.832C6.25 12.4178 6.58579 12.082 7 12.082C7.41421 12.082 7.75 12.4178 7.75 12.832V14.4987C7.75 15.005 8.1604 15.4154 8.66667 15.4154C9.17294 15.4154 9.58333 15.005 9.58333 14.4987V9.4987C9.58333 8.16402 10.6653 7.08203 12 7.08203C13.3347 7.08203 14.4167 8.16402 14.4167 9.4987V10.332C14.4167 10.7462 14.0809 11.082 13.6667 11.082C13.2525 11.082 12.9167 10.7462 12.9167 10.332V9.4987C12.9167 8.99243 12.5063 8.58203 12 8.58203Z" fill="black"/>
<path fill-rule="evenodd" clip-rule="evenodd" d="M13.667 12.082C14.0812 12.082 14.417 12.4178 14.417 12.832V14.4987C14.417 15.005 14.8274 15.4154 15.3337 15.4154C15.8399 15.4154 16.2503 15.005 16.2503 14.4987V12.832C16.2503 12.4178 16.5861 12.082 17.0003 12.082C17.4145 12.082 17.7503 12.4178 17.7503 12.832V14.4987C17.7503 15.8334 16.6684 16.9154 15.3337 16.9154C13.9989 16.9154 12.917 15.8334 12.917 14.4987V12.832C12.917 12.4178 13.2528 12.082 13.667 12.082Z" fill="black"/>
</svg>