<svg width="24" height="24" viewBox="0 0 24 24" fill="none" xmlns="http://www.w3.org/2000/svg">
<path fill-rule="evenodd" clip-rule="evenodd" d="M12 3.75C7.44337 3.75 3.75 7.44337 3.75 12C3.75 16.5566 7.44337 20.25 12 20.25C16.5566 20.25 20.25 16.5566 20.25 12C20.25 7.44337 16.5566 3.75 12 3.75ZM2.25 12C2.25 6.61494 6.61494 2.25 12 2.25C17.3851 2.25 21.75 6.61494 21.75 12C21.75 17.3851 17.3851 21.75 12 21.75C6.61494 21.75 2.25 17.3851 2.25 12Z" fill="black"/>
<path fill-rule="evenodd" clip-rule="evenodd" d="M12 8.21484C11.4937 8.21484 11.0833 8.62524 11.0833 9.13151V14.1315C11.0833 15.4662 10.0013 16.5482 8.66667 16.5482C7.33199 16.5482 6.25 15.4662 6.25 14.1315V12.4648C6.25 12.0506 6.58579 11.7148 7 11.7148C7.41421 11.7148 7.75 12.0506 7.75 12.4648V14.1315C7.75 14.6378 8.1604 15.0482 8.66667 15.0482C9.17294 15.0482 9.58333 14.6378 9.58333 14.1315V9.13151C9.58333 7.79683 10.6653 6.71484 12 6.71484C13.3347 6.71484 14.4167 7.79683 14.4167 9.13151V9.96484C14.4167 10.3791 14.0809 10.7148 13.6667 10.7148C13.2525 10.7148 12.9167 10.3791 12.9167 9.96484V9.13151C12.9167 8.62524 12.5063 8.21484 12 8.21484Z" fill="black"/>
<path fill-rule="evenodd" clip-rule="evenodd" d="M13.667 11.7148C14.0812 11.7148 14.417 12.0506 14.417 12.4648V14.1315C14.417 14.6378 14.8274 15.0482 15.3337 15.0482C15.8399 15.0482 16.2503 14.6378 16.2503 14.1315V12.4648C16.2503 12.0506 16.5861 11.7148 17.0003 11.7148C17.4145 11.7148 17.7503 12.0506 17.7503 12.4648V14.1315C17.7503 15.4662 16.6684 16.5482 15.3337 16.5482C13.9989 16.5482 12.917 15.4662 12.917 14.1315V12.4648C12.917 12.0506 13.2528 11.7148 13.667 11.7148Z" fill="black"/>
</svg>