<svg width="24" height="24" viewBox="0 0 24 24" fill="none" xmlns="http://www.w3.org/2000/svg">
<path opacity="0.4" d="M7.78216 3H16.2169C19.165 3 21 5.08119 21 8.02638V15.9736C21 18.9188 19.165 21 16.2159 21H7.78216C4.83405 21 3 18.9188 3 15.9736V8.02638C3 5.08119 4.84281 3 7.78216 3Z" stroke="black" stroke-width="1.5" stroke-linecap="round" stroke-linejoin="round"/>
<path d="M7 12.832V14.4987C7 15.4192 7.74619 16.1654 8.66667 16.1654C9.58714 16.1654 10.3333 15.4192 10.3333 14.4987V9.4987C10.3333 8.57822 11.0795 7.83203 12 7.83203C12.9205 7.83203 13.6667 8.57822 13.6667 9.4987V10.332" stroke="black" stroke-width="1.5" stroke-linecap="round"/>
<path d="M17.0003 12.832V14.4987C17.0003 15.4192 16.2542 16.1654 15.3337 16.1654C14.4132 16.1654 13.667 15.4192 13.667 14.4987V12.832" stroke="black" stroke-width="1.5" stroke-linecap="round"/>
</svg>