<svg width="24" height="24" viewBox="0 0 24 24" fill="none" xmlns="http://www.w3.org/2000/svg">
<path fill-rule="evenodd" clip-rule="evenodd" d="M18.3393 11.0717C18.6626 10.9591 19.0218 11.0183 19.2922 11.2302C19.554 11.4354 19.6966 11.7556 19.6764 12.085L19.6764 16.3194L19.6762 16.3396C19.6621 16.861 19.3363 17.3229 18.8499 17.5111C18.8354 17.5167 18.8207 17.5219 18.8059 17.5266L5.65979 21.6949C5.33639 21.8078 4.9769 21.7487 4.70629 21.5366C4.44433 21.3312 4.30173 21.0108 4.32226 20.6812V16.4472L4.32253 16.4272C4.33646 15.9056 4.66257 15.4435 5.14936 15.2556C5.16366 15.2501 5.17812 15.245 5.19273 15.2404L18.3393 11.0717ZM18.1764 12.6969L5.82226 16.6144V20.0697L18.1764 16.1526L18.1764 12.6969Z" fill="black"/>
<path fill-rule="evenodd" clip-rule="evenodd" d="M5.66005 6.66974L18.8078 10.8386C18.8224 10.8433 18.8369 10.8484 18.8512 10.8539C19.338 11.0418 19.6641 11.5039 19.678 12.0255L19.6783 12.0455V16.2801C19.6987 16.6098 19.5558 16.9302 19.2937 17.1353C19.0231 17.3471 18.6639 17.406 18.3407 17.2931L5.19273 13.1241C5.17809 13.1195 5.16359 13.1144 5.14926 13.1089C4.66228 12.9208 4.33616 12.4584 4.32251 11.9366L4.32225 11.9169V7.68289C4.30176 7.35315 4.44456 7.0326 4.70675 6.82738C4.97742 6.61551 5.33683 6.55669 5.66005 6.66974ZM5.82225 8.29477V11.7501L18.1783 15.668V12.2126L5.82225 8.29477Z" fill="black"/>
<path fill-rule="evenodd" clip-rule="evenodd" d="M18.339 2.30616C18.6624 2.1934 19.0218 2.25255 19.2923 2.46461C19.5542 2.66988 19.6968 2.9902 19.6764 3.31972L19.6764 7.55384L19.6761 7.57442C19.6618 8.09557 19.336 8.5572 18.8498 8.74527C18.8353 8.75086 18.8207 8.75601 18.8059 8.76069L5.65958 12.9294C5.33622 13.0421 4.97686 12.983 4.70634 12.771C4.44448 12.5657 4.30185 12.2454 4.32223 11.9159V7.68167L4.32249 7.66206C4.33614 7.14022 4.66227 6.67778 5.14924 6.48974C5.16357 6.48421 5.17807 6.47912 5.19272 6.47447L18.339 2.30616ZM18.1764 3.93134L5.82223 7.84847V11.3042L18.1764 7.38671L18.1764 3.93134Z" fill="black"/>
</svg>