<svg width="25" height="24" viewBox="0 0 25 24" fill="none" xmlns="http://www.w3.org/2000/svg">
<path d="M21.3256 11.3856V8.41623C21.3343 5.39916 19.511 3.75781 16.5679 3.75781H8.10919C5.17481 3.75781 3.34277 5.39916 3.34277 8.41623V15.4992C3.34277 18.563 5.17481 20.2423 8.10919 20.2423H12.3337" stroke="black" stroke-width="1.5" stroke-linecap="round" stroke-linejoin="round"/>
<path opacity="0.4" d="M21.3333 8.57422H3.33398" stroke="black" stroke-width="1.5" stroke-linecap="round" stroke-linejoin="round"/>
<path opacity="0.4" d="M12.4898 12.375H11.9547M7.53711 15.8316H9.74762M9.25001 12.375H7.59602" stroke="black" stroke-width="1.5" stroke-linecap="round" stroke-linejoin="round"/>
<path d="M19.8656 18.7791L21.3338 20.2434M17.8807 13.7266C19.4909 13.7266 20.7966 15.0322 20.7966 16.6434C20.7966 18.2536 19.4909 19.5593 17.8807 19.5593C16.2705 19.5593 14.9648 18.2536 14.9648 16.6434C14.9648 15.0322 16.2705 13.7266 17.8807 13.7266Z" stroke="black" stroke-width="1.5" stroke-linecap="round" stroke-linejoin="round"/>
</svg>