<svg width="25" height="24" viewBox="0 0 25 24" fill="none" xmlns="http://www.w3.org/2000/svg">
<path fill-rule="evenodd" clip-rule="evenodd" d="M21.4997 7.61455C21.0857 7.61455 20.7497 7.95055 20.7497 8.36455V10.4515C20.7497 10.8655 21.0857 11.2015 21.4997 11.2015C21.9137 11.2015 22.2497 10.8655 22.2497 10.4515V8.36455C22.2497 7.95055 21.9137 7.61455 21.4997 7.61455Z" fill="black"/>
<path fill-rule="evenodd" clip-rule="evenodd" d="M14.0169 3.74842H16.1039C16.5179 3.74842 16.8539 3.41242 16.8539 2.99842C16.8539 2.58442 16.5179 2.24842 16.1039 2.24842H14.0169C13.6029 2.24842 13.2669 2.58442 13.2669 2.99842C13.2669 3.41242 13.6029 3.74842 14.0169 3.74842Z" fill="black"/>
<path fill-rule="evenodd" clip-rule="evenodd" d="M18.6068 3.74939C19.8078 3.78539 20.6108 4.53339 20.7548 5.75239C20.8038 6.16439 21.1818 6.46439 21.5878 6.40939C21.9998 6.36039 22.2938 5.98739 22.2448 5.57639C22.0128 3.61339 20.6028 2.30739 18.6508 2.25039C18.6438 2.24939 18.6358 2.24939 18.6278 2.24939C18.2248 2.24939 17.8908 2.57139 17.8788 2.97839C17.8668 3.39239 18.1928 3.73739 18.6068 3.74939Z" fill="black"/>
<path fill-rule="evenodd" clip-rule="evenodd" d="M18.6506 16.6409C20.6026 16.5839 22.0126 15.2779 22.2446 13.3139C22.2936 12.9029 21.9996 12.5299 21.5876 12.4819C21.5576 12.4779 21.5276 12.4759 21.4986 12.4759C21.1236 12.4759 20.7996 12.7569 20.7546 13.1389C20.6106 14.3569 19.8076 15.1059 18.6066 15.1419C18.1926 15.1539 17.8666 15.4989 17.8796 15.9129C17.8906 16.3269 18.2196 16.6669 18.6506 16.6409Z" fill="black"/>
<path fill-rule="evenodd" clip-rule="evenodd" d="M8.53294 6.40707C8.94294 6.46307 9.31694 6.16107 9.36594 5.75007C9.50994 4.53207 10.3129 3.78307 11.5139 3.74707C11.9289 3.73507 12.2539 3.38907 12.2409 2.97507C12.2299 2.56907 11.8959 2.24707 11.4919 2.24707C11.4849 2.24707 11.4769 2.24707 11.4699 2.24807C9.51794 2.30607 8.10794 3.61207 7.87594 5.57407C7.82694 5.98607 8.12094 6.35907 8.53294 6.40707Z" fill="black"/>
<path opacity="0.4" d="M7.87061 7.37305V11.9688C7.87061 14.7986 9.60162 16.62 12.2659 16.62H17.1298V17.403C17.1298 19.963 15.4098 21.753 12.9598 21.753H6.91975C4.46975 21.753 2.74976 19.963 2.74976 17.403V11.713C2.74976 9.15305 4.46975 7.37305 6.91975 7.37305H7.87061Z" fill="black"/>
<path d="M17.1298 16.62V11.713C17.1298 9.15305 15.4098 7.37305 12.9598 7.37305H7.87061V11.9688C7.87061 14.7986 9.60162 16.62 12.2659 16.62H17.1298Z" fill="black"/>
</svg>