<svg width="25" height="24" viewBox="0 0 25 24" fill="none" xmlns="http://www.w3.org/2000/svg">
<path fill-rule="evenodd" clip-rule="evenodd" d="M3.85732 4.41312C4.8583 3.45774 6.25622 3.00781 7.85936 3.00781H16.3184C17.9253 3.00781 19.3238 3.45742 20.3229 4.41389C21.3272 5.37525 21.8308 6.75551 21.8262 8.41723V15.5755C21.8262 17.2373 21.3203 18.619 20.3157 19.5821C19.316 20.5405 17.9177 20.9929 16.3096 20.9929H7.85936C6.25169 20.9929 4.85216 20.5309 3.85208 19.5576C2.84868 18.5811 2.3418 17.182 2.3418 15.4987V8.41641C2.3418 6.75342 2.85097 5.37364 3.85732 4.41312ZM4.89298 5.49821C4.24917 6.11269 3.8418 7.0622 3.8418 8.41641V15.4987C3.8418 16.8803 4.25145 17.8532 4.89822 18.4826C5.5483 19.1153 6.53255 19.4929 7.85936 19.4929H16.3096C17.6448 19.4929 18.6299 19.1203 19.2776 18.4993C19.9205 17.8829 20.3262 16.931 20.3262 15.5755V8.41641L20.3262 8.41423C20.3302 7.05936 19.9264 6.11081 19.2857 5.49744C18.6395 4.87891 17.6547 4.50781 16.3184 4.50781H7.85936C6.52802 4.50781 5.54216 4.87859 4.89298 5.49821Z" fill="black"/>
<path fill-rule="evenodd" clip-rule="evenodd" d="M6.53711 15.832C6.53711 15.4178 6.8729 15.082 7.28711 15.082H9.4977C9.91192 15.082 10.2477 15.4178 10.2477 15.832C10.2477 16.2462 9.91192 16.582 9.4977 16.582H7.28711C6.8729 16.582 6.53711 16.2462 6.53711 15.832ZM14.1917 15.832C14.1917 15.4178 14.5275 15.082 14.9417 15.082H16.8808C17.295 15.082 17.6308 15.4178 17.6308 15.832C17.6308 16.2462 17.295 16.582 16.8808 16.582H14.9417C14.5275 16.582 14.1917 16.2462 14.1917 15.832Z" fill="black"/>
<path fill-rule="evenodd" clip-rule="evenodd" d="M6.59766 12.375C6.59766 11.9608 6.93344 11.625 7.34766 11.625H9.00171C9.41592 11.625 9.75171 11.9608 9.75171 12.375C9.75171 12.7892 9.41592 13.125 9.00171 13.125H7.34766C6.93344 13.125 6.59766 12.7892 6.59766 12.375ZM10.9566 12.375C10.9566 11.9608 11.2923 11.625 11.7066 11.625H14.0475C14.4617 11.625 14.7975 11.9608 14.7975 12.375C14.7975 12.7892 14.4617 13.125 14.0475 13.125H11.7066C11.2923 13.125 10.9566 12.7892 10.9566 12.375Z" fill="black"/>
<path fill-rule="evenodd" clip-rule="evenodd" d="M11.3105 15.832C11.3105 15.4178 11.6463 15.082 12.0605 15.082H12.0705C12.4848 15.082 12.8205 15.4178 12.8205 15.832C12.8205 16.2462 12.4848 16.582 12.0705 16.582H12.0605C11.6463 16.582 11.3105 16.2462 11.3105 15.832Z" fill="black"/>
<path fill-rule="evenodd" clip-rule="evenodd" d="M16.0859 12.375C16.0859 11.9608 16.4217 11.625 16.8359 11.625H16.8459C17.2602 11.625 17.5959 11.9608 17.5959 12.375C17.5959 12.7892 17.2602 13.125 16.8459 13.125H16.8359C16.4217 13.125 16.0859 12.7892 16.0859 12.375Z" fill="black"/>
<path fill-rule="evenodd" clip-rule="evenodd" d="M2.33398 8.57422C2.33398 8.16001 2.66977 7.82422 3.08398 7.82422H21.084C21.4982 7.82422 21.834 8.16001 21.834 8.57422C21.834 8.98843 21.4982 9.32422 21.084 9.32422H3.08398C2.66977 9.32422 2.33398 8.98843 2.33398 8.57422Z" fill="black"/>
</svg>