<svg width="24" height="24" viewBox="0 0 24 24" fill="none" xmlns="http://www.w3.org/2000/svg">
<path d="M6.42195 21.0003C4.31254 21.0003 3 19.5117 3 17.4042V11.7172C3 9.60974 4.31935 8.12109 6.42195 8.12109H12.4573C14.5667 8.12109 15.8792 9.60974 15.8792 11.7172V17.4042C15.8792 19.5117 14.5667 21.0003 12.4563 21.0003H9.9271" stroke="black" stroke-width="1.5" stroke-linecap="round" stroke-linejoin="round"/>
<path d="M21 10.4532V8.36719" stroke="black" stroke-width="1.5" stroke-linecap="round" stroke-linejoin="round"/>
<path d="M18.1289 15.8935C19.7518 15.8458 20.8172 14.7794 21.0002 13.2285" stroke="black" stroke-width="1.5" stroke-linecap="round" stroke-linejoin="round"/>
<path d="M13.5176 3H15.6036" stroke="black" stroke-width="1.5" stroke-linecap="round" stroke-linejoin="round"/>
<path d="M10.9923 3C9.36942 3.04768 8.30401 4.11405 8.12109 5.66497" stroke="black" stroke-width="1.5" stroke-linecap="round" stroke-linejoin="round"/>
<path d="M18.1289 3C19.7518 3.04768 20.8172 4.11405 21.0002 5.66497" stroke="black" stroke-width="1.5" stroke-linecap="round" stroke-linejoin="round"/>
<path d="M8.12109 10.543V12.2842C8.12109 14.3916 9.43363 15.8803 11.543 15.8803H15.8796" stroke="black" stroke-width="1.5" stroke-linecap="round" stroke-linejoin="round"/>
</svg>