<svg width="25" height="24" viewBox="0 0 25 24" fill="none" xmlns="http://www.w3.org/2000/svg">
<path d="M5.96918 5.99968V12.0224C4.76172 12.935 3.96875 14.3692 3.96875 15.9999C3.96875 18.7612 6.20756 21 8.96886 21C11.7302 21 13.969 18.7612 13.969 15.9999C13.969 14.3692 13.177 12.935 11.9695 12.0224V5.99968C11.9695 4.3427 10.6258 3 8.96886 3C7.31189 3 5.96918 4.3427 5.96918 5.99968Z" stroke="black" stroke-width="1.5" stroke-linecap="round" stroke-linejoin="round"/>
<path fill-rule="evenodd" clip-rule="evenodd" d="M10.4393 15.9997C10.4393 16.8131 9.77965 17.4728 8.96624 17.4728C8.15186 17.4728 7.49219 16.8131 7.49219 15.9997C7.49219 15.1863 8.15247 14.5264 8.96685 14.5264C9.78026 14.5264 10.4393 15.1863 10.4393 15.9997Z" stroke="black" stroke-width="1.5" stroke-linecap="round" stroke-linejoin="round"/>
<path d="M8.9668 10.481V14.5266" stroke="black" stroke-width="1.5" stroke-linecap="round" stroke-linejoin="round"/>
<path d="M14.709 3.2002V4.0464M20.2602 8.75154H19.414M18.6342 4.826L18.0359 5.42435M18.6342 12.6768L18.0359 12.0784" stroke="black" stroke-width="1.5" stroke-linecap="round" stroke-linejoin="round"/>
<path d="M14.8945 6.52832C16.1183 6.52832 17.1099 7.52042 17.1099 8.74372C17.1099 9.75078 16.4385 10.6009 15.5187 10.8705" stroke="black" stroke-width="1.5" stroke-linecap="round" stroke-linejoin="round"/>
</svg>