<svg width="25" height="24" viewBox="0 0 25 24" fill="none" xmlns="http://www.w3.org/2000/svg">
<path fill-rule="evenodd" clip-rule="evenodd" d="M12.5547 5.25C12.969 5.25 13.3047 5.58579 13.3047 6V6.9146C13.3047 7.32882 12.969 7.6646 12.5547 7.6646C12.1405 7.6646 11.8047 7.32882 11.8047 6.9146V6C11.8047 5.58579 12.1405 5.25 12.5547 5.25ZM17.3276 7.22689C17.6205 7.51978 17.6205 7.99465 17.3276 8.28755L16.6809 8.93425C16.388 9.22715 15.9131 9.22715 15.6202 8.93425C15.3273 8.64136 15.3273 8.16649 15.6202 7.87359L16.2669 7.22689C16.5598 6.93399 17.0347 6.93399 17.3276 7.22689ZM7.78189 7.2272C8.07478 6.93431 8.54966 6.93431 8.84255 7.2272L9.48926 7.87391C9.78215 8.1668 9.78215 8.64168 9.48926 8.93457C9.19637 9.22746 8.72149 9.22746 8.4286 8.93457L7.78189 8.28786C7.489 7.99497 7.489 7.5201 7.78189 7.2272ZM5.80469 12.0001C5.80469 11.5858 6.14047 11.2501 6.55469 11.2501H7.46929C7.8835 11.2501 8.21929 11.5858 8.21929 12.0001C8.21929 12.4143 7.8835 12.7501 7.46929 12.7501H6.55469C6.14047 12.7501 5.80469 12.4143 5.80469 12.0001ZM16.8901 12.0001C16.8901 11.5858 17.2259 11.2501 17.6401 11.2501H18.5547C18.9689 11.2501 19.3047 11.5858 19.3047 12.0001C19.3047 12.4143 18.9689 12.7501 18.5547 12.7501H17.6401C17.2259 12.7501 16.8901 12.4143 16.8901 12.0001ZM9.48926 15.0655C9.78215 15.3584 9.78215 15.8333 9.48926 16.1262L8.84255 16.7729C8.54966 17.0658 8.07478 17.0658 7.78189 16.7729C7.489 16.48 7.489 16.0051 7.78189 15.7122L8.4286 15.0655C8.72149 14.7726 9.19637 14.7726 9.48926 15.0655ZM15.6202 15.0655C15.9131 14.7726 16.388 14.7726 16.6809 15.0655L17.3276 15.7122C17.6205 16.0051 17.6205 16.48 17.3276 16.7729C17.0347 17.0658 16.5598 17.0658 16.2669 16.7729L15.6202 16.1262C15.3273 15.8333 15.3273 15.3584 15.6202 15.0655ZM12.5547 16.3354C12.969 16.3354 13.3047 16.6712 13.3047 17.0854V18C13.3047 18.4142 12.969 18.75 12.5547 18.75C12.1405 18.75 11.8047 18.4142 11.8047 18V17.0854C11.8047 16.6712 12.1405 16.3354 12.5547 16.3354Z" fill="black"/>
<path fill-rule="evenodd" clip-rule="evenodd" d="M12.5548 9.95312C11.424 9.95312 10.5078 10.8698 10.5078 12.0001C10.5078 13.1312 11.4242 14.0478 12.5548 14.0478C13.6855 14.0478 14.6018 13.1312 14.6018 12.0001C14.6018 10.8698 13.6856 9.95312 12.5548 9.95312ZM9.00781 12.0001C9.00781 10.0416 10.5954 8.45312 12.5548 8.45312C14.5142 8.45312 16.1018 10.0416 16.1018 12.0001C16.1018 13.9592 14.5143 15.5478 12.5548 15.5478C10.5953 15.5478 9.00781 13.9592 9.00781 12.0001Z" fill="black"/>
<path fill-rule="evenodd" clip-rule="evenodd" d="M4.29488 3.89737C5.27937 2.84117 6.68138 2.25 8.33685 2.25H16.7716C18.4309 2.25 19.8335 2.84084 20.8176 3.89765C21.796 4.94841 22.3047 6.39889 22.3047 8.02638V15.9736C22.3047 17.6011 21.796 19.0516 20.8174 20.1024C19.8332 21.1592 18.4303 21.75 16.7706 21.75H8.33685C6.67749 21.75 5.27507 21.1591 4.29126 20.1023C3.3131 19.0515 2.80469 17.601 2.80469 15.9736V8.02638C2.80469 6.39806 3.31585 4.94771 4.29488 3.89737ZM5.39214 4.92012C4.71493 5.64666 4.30469 6.70951 4.30469 8.02638V15.9736C4.30469 17.2914 4.7133 18.3541 5.38919 19.0802C6.05944 19.8003 7.0481 20.25 8.33685 20.25H16.7706C18.0599 20.25 19.0491 19.8002 19.7197 19.0801C20.3959 18.354 20.8047 17.2913 20.8047 15.9736V8.02638C20.8047 6.70868 20.3959 5.64597 19.7198 4.91984C19.0493 4.19975 18.0603 3.75 16.7716 3.75H8.33685C7.05297 3.75 6.0639 4.19943 5.39214 4.92012Z" fill="black"/>
</svg>