<svg width="25" height="24" viewBox="0 0 25 24" fill="none" xmlns="http://www.w3.org/2000/svg">
<path opacity="0.4" d="M5.15668 5.99968V12.0224C3.94922 12.935 3.15625 14.3692 3.15625 15.9999C3.15625 18.7612 5.39506 21 8.15636 21C10.9177 21 13.1565 18.7612 13.1565 15.9999C13.1565 14.3692 12.3645 12.935 11.157 12.0224V5.99968C11.157 4.3427 9.81333 3 8.15636 3C6.49939 3 5.15668 4.3427 5.15668 5.99968Z" stroke="black" stroke-width="1.5" stroke-linecap="round" stroke-linejoin="round"/>
<path fill-rule="evenodd" clip-rule="evenodd" d="M9.62878 15.9999C9.62878 16.8133 8.9691 17.473 8.15569 17.473C7.34132 17.473 6.68164 16.8133 6.68164 15.9999C6.68164 15.1865 7.34132 14.5259 8.15569 14.5259C8.9691 14.5259 9.62878 15.1865 9.62878 15.9999Z" stroke="black" stroke-width="1.5" stroke-linecap="round" stroke-linejoin="round"/>
<path d="M8.15625 8V14.5267" stroke="black" stroke-width="1.5" stroke-linecap="round" stroke-linejoin="round"/>
<path d="M16.5961 3V3.6824M16.5961 11.271V11.9534M21.0727 7.47672H20.3903M19.7615 4.31108L19.2789 4.7936M13.9132 10.1596L13.4307 10.6421M19.7615 10.6421L19.2789 10.1596M13.9132 4.79384L13.4307 4.31132" stroke="black" stroke-width="1.5" stroke-linecap="round" stroke-linejoin="round"/>
<path fill-rule="evenodd" clip-rule="evenodd" d="M16.5956 5.65186C17.6036 5.65186 18.4204 6.46905 18.4204 7.47668C18.4204 8.48473 17.6036 9.30193 16.5956 9.30193C15.5875 9.30193 14.7707 8.48473 14.7707 7.47668C14.7707 6.46905 15.5875 5.65186 16.5956 5.65186Z" stroke="black" stroke-width="1.5" stroke-linecap="round" stroke-linejoin="round"/>
</svg>