<svg width="25" height="24" viewBox="0 0 25 24" fill="none" xmlns="http://www.w3.org/2000/svg">
<path d="M6.17493 19.1103C5.98493 19.1103 5.79493 19.0403 5.64493 18.8903C5.35493 18.6003 5.35493 18.1203 5.64493 17.8303L6.61493 16.8603C6.90493 16.5703 7.38493 16.5703 7.67493 16.8603C7.96493 17.1503 7.96493 17.6303 7.67493 17.9203L6.70493 18.8903C6.55493 19.0403 6.36493 19.1103 6.17493 19.1103ZM4.91493 12.7502H3.54492C3.13492 12.7502 2.79492 12.4102 2.79492 12.0002C2.79492 11.5902 3.13492 11.2502 3.54492 11.2502H4.91493C5.32493 11.2502 5.66493 11.5902 5.66493 12.0002C5.66493 12.4102 5.32493 12.7502 4.91493 12.7502ZM7.14493 7.36026C6.95493 7.36026 6.76493 7.29026 6.61493 7.14026L5.64493 6.17026C5.35493 5.88026 5.35493 5.40026 5.64493 5.11026C5.93493 4.82026 6.41493 4.82026 6.70493 5.11026L7.67493 6.08026C7.96493 6.37026 7.96493 6.85026 7.67493 7.14026C7.52493 7.29026 7.33493 7.36026 7.14493 7.36026ZM17.9349 7.36026C17.7449 7.36026 17.5549 7.29026 17.4049 7.14026C17.1149 6.85026 17.1149 6.37026 17.4049 6.08026L18.3749 5.11026C18.6649 4.82026 19.1449 4.82026 19.4349 5.11026C19.7249 5.40026 19.7249 5.88026 19.4349 6.17026L18.4649 7.14026C18.3149 7.29026 18.1249 7.36026 17.9349 7.36026ZM12.5449 5.13025C12.1349 5.13025 11.7949 4.79025 11.7949 4.38025V3.01025C11.7949 2.60025 12.1349 2.26025 12.5449 2.26025C12.9549 2.26025 13.2949 2.60025 13.2949 3.01025V4.38025C13.2949 4.79025 12.9549 5.13025 12.5449 5.13025Z" fill="black"/>
<path d="M9.57474 15.7105C9.38474 15.7105 9.19472 15.6405 9.04472 15.4905C8.11472 14.5605 7.59473 13.3105 7.59473 11.9905C7.59473 10.6705 8.11472 9.43054 9.04472 8.49054C9.97472 7.56054 11.2247 7.04053 12.5447 7.04053C13.8647 7.04053 15.1047 7.55054 16.0447 8.49054C16.3347 8.78054 16.3347 9.26054 16.0447 9.55054C15.7547 9.84054 15.2747 9.84054 14.9847 9.55054C13.6847 8.25054 11.4147 8.25054 10.1147 9.55054C9.46473 10.2005 9.10474 11.0705 9.10474 11.9905C9.10474 12.9105 9.46473 13.7805 10.1147 14.4305C10.4047 14.7205 10.4047 15.2005 10.1147 15.4905C9.96473 15.6405 9.77473 15.7105 9.58473 15.7105H9.57474Z" fill="black"/>
<path d="M18.1347 14.9605H13.0947C12.6847 14.9605 12.3447 14.6205 12.3447 14.2105C12.3447 13.8005 12.6847 13.4605 13.0947 13.4605H18.1347C18.4747 13.4605 18.5947 13.2105 18.5947 13.0005C18.5947 12.6005 17.9847 12.4105 17.7547 12.7405C17.5247 13.0805 17.0547 13.1705 16.7147 12.9405C16.3747 12.7105 16.2847 12.2405 16.5147 11.9005C16.8747 11.3605 17.4847 11.0405 18.1347 11.0405C19.2147 11.0405 20.0947 11.9205 20.0947 13.0005C20.0947 14.0805 19.2547 14.9605 18.1347 14.9605Z" fill="black"/>
<path d="M14.9243 21.7398C14.3143 21.7398 13.7443 21.4398 13.4043 20.9298C13.1743 20.5898 13.2643 20.1198 13.6043 19.8898C13.9443 19.6598 14.4143 19.7498 14.6443 20.0898C14.8143 20.3298 15.2543 20.1998 15.2543 19.8998C15.2543 19.8198 15.2343 19.5698 14.9243 19.5698H12.1143C11.7043 19.5698 11.3643 19.2298 11.3643 18.8198C11.3643 18.4098 11.7043 18.0698 12.1143 18.0698H14.9243C15.9643 18.0698 16.7543 18.8598 16.7543 19.8998C16.7543 20.9398 15.9343 21.7298 14.9243 21.7298V21.7398Z" fill="black"/>
<path d="M20.2245 20.1002C19.6645 20.1002 19.1145 19.8702 18.7245 19.4602C18.4345 19.1602 18.4545 18.6902 18.7545 18.4002C19.0545 18.1202 19.5245 18.1302 19.8145 18.4302C20.1445 18.7802 20.8045 18.5102 20.8045 18.0402C20.8045 17.7802 20.7045 17.4802 20.2245 17.4702H15.1045C14.6945 17.4702 14.3545 17.1302 14.3545 16.7202C14.3545 16.3102 14.6945 15.9702 15.1045 15.9702H20.2445C21.4545 15.9902 22.3145 16.8602 22.3145 18.0402C22.3145 19.2202 21.3845 20.1102 20.2445 20.1102L20.2245 20.1002Z" fill="black"/>
</svg>