<svg width="25" height="24" viewBox="0 0 25 24" fill="none" xmlns="http://www.w3.org/2000/svg">
<path fill-rule="evenodd" clip-rule="evenodd" d="M21.623 12C21.623 12.4142 21.2873 12.75 20.873 12.75L19.5011 12.75C19.0869 12.75 18.7511 12.4142 18.7511 12C18.7511 11.5858 19.0869 11.25 19.5011 11.25L20.873 11.25C21.2873 11.25 21.623 11.5858 21.623 12ZM18.7676 18.8941C18.4747 19.187 17.9998 19.187 17.7069 18.8941L16.7368 17.9241C16.4439 17.6312 16.4439 17.1563 16.7368 16.8634C17.0297 16.5705 17.5046 16.5705 17.7975 16.8634L18.7676 17.8335C19.0604 18.1263 19.0604 18.6012 18.7676 18.8941ZM18.7671 5.1059C19.06 5.39879 19.06 5.87367 18.7671 6.16656L17.797 7.13662C17.5041 7.42952 17.0292 7.42952 16.7364 7.13662C16.4435 6.84373 16.4435 6.36886 16.7364 6.07596L17.7064 5.1059C17.9993 4.81301 18.4742 4.81301 18.7671 5.1059Z" fill="black"/>
<path fill-rule="evenodd" clip-rule="evenodd" d="M7.0108 7.11553C6.71791 7.40842 6.24303 7.40842 5.95014 7.11553L5.94014 7.10553C5.64725 6.81263 5.64725 6.33776 5.94014 6.04487C6.23303 5.75197 6.70791 5.75197 7.0008 6.04487L7.0108 6.05487C7.30369 6.34776 7.30369 6.82263 7.0108 7.11553ZM7.01079 16.8631C7.30369 17.156 7.30369 17.6309 7.0108 17.9238L7.0008 17.9338C6.70791 18.2267 6.23304 18.2267 5.94014 17.9338C5.64725 17.6409 5.64724 17.1661 5.94013 16.8732L5.95013 16.8632C6.24302 16.5703 6.7179 16.5703 7.01079 16.8631ZM4.99622 11.9999C4.99622 12.4141 4.66043 12.7499 4.24622 12.7499L4.23622 12.7499C3.822 12.7499 3.48622 12.4141 3.48622 11.9999C3.48622 11.5857 3.822 11.2499 4.23622 11.2499L4.24622 11.2499C4.66043 11.2499 4.99622 11.5857 4.99622 11.9999Z" fill="black"/>
<path fill-rule="evenodd" clip-rule="evenodd" d="M15.3184 12.0002C15.3184 10.0969 13.7754 8.55469 11.8729 8.55469C9.96921 8.55469 8.4264 10.097 8.4264 12.0002C8.4264 13.9034 9.96921 15.4457 11.8729 15.4457C13.7754 15.4457 15.3184 13.9035 15.3184 12.0002ZM11.8729 7.05469C14.6036 7.05469 16.8184 9.26821 16.8184 12.0002C16.8184 14.7322 14.6036 16.9457 11.8729 16.9457C9.14124 16.9457 6.9264 14.7323 6.9264 12.0002C6.9264 9.2681 9.14124 7.05469 11.8729 7.05469Z" fill="black"/>
<path fill-rule="evenodd" clip-rule="evenodd" d="M11.873 2.25C12.2873 2.25 12.623 2.58579 12.623 3L12.623 21C12.623 21.4142 12.2873 21.75 11.873 21.75C11.4588 21.75 11.123 21.4142 11.123 21L11.123 3C11.123 2.58579 11.4588 2.25 11.873 2.25Z" fill="black"/>
</svg>