<svg width="25" height="24" viewBox="0 0 25 24" fill="none" xmlns="http://www.w3.org/2000/svg">
<path opacity="0.4" d="M18.4186 5.63604C21.9334 9.15076 21.9334 14.8492 18.4186 18.364C14.9039 21.8787 9.20545 21.8787 5.69073 18.364C2.17601 14.8492 2.17601 9.15076 5.69073 5.63604C9.20545 2.12132 14.9039 2.12132 18.4186 5.63604Z" stroke="black" stroke-width="1.5" stroke-linecap="round" stroke-linejoin="round"/>
<path d="M12.0547 6V6.9146M12.0547 17.0854V18M18.0547 12.0001H17.1401M6.96929 12.0001H6.05469M16.2973 7.75722L15.6505 8.40392M8.45893 15.5959L7.81222 16.2426M16.2973 16.2426L15.6505 15.5959M8.45893 8.40424L7.81222 7.75753" stroke="black" stroke-width="1.5" stroke-linecap="round" stroke-linejoin="round"/>
<path fill-rule="evenodd" clip-rule="evenodd" d="M12.0548 9.20312C13.5999 9.20312 14.8518 10.4557 14.8518 12.0001C14.8518 13.5452 13.5999 14.7978 12.0548 14.7978C10.5097 14.7978 9.25781 13.5452 9.25781 12.0001C9.25781 10.4557 10.5097 9.20312 12.0548 9.20312Z" stroke="black" stroke-width="1.5" stroke-linecap="round" stroke-linejoin="round"/>
</svg>