<svg width="25" height="24" viewBox="0 0 25 24" fill="none" xmlns="http://www.w3.org/2000/svg">
<path fill-rule="evenodd" clip-rule="evenodd" d="M4.29488 3.89737C5.27937 2.84117 6.68138 2.25 8.33685 2.25H16.7716C18.4309 2.25 19.8335 2.84084 20.8176 3.89765C21.796 4.94841 22.3047 6.39889 22.3047 8.02638V15.9736C22.3047 17.6011 21.796 19.0516 20.8174 20.1024C19.8332 21.1592 18.4303 21.75 16.7706 21.75H8.33685C6.67749 21.75 5.27507 21.1591 4.29126 20.1023C3.3131 19.0515 2.80469 17.601 2.80469 15.9736V8.02638C2.80469 6.39806 3.31585 4.94771 4.29488 3.89737ZM5.39214 4.92012C4.71493 5.64666 4.30469 6.70951 4.30469 8.02638V15.9736C4.30469 17.2914 4.7133 18.3541 5.38919 19.0802C6.05944 19.8003 7.0481 20.25 8.33685 20.25H16.7706C18.0599 20.25 19.0491 19.8002 19.7197 19.0801C20.3959 18.354 20.8047 17.2913 20.8047 15.9736V8.02638C20.8047 6.70868 20.3959 5.64597 19.7198 4.91984C19.0493 4.19975 18.0603 3.75 16.7716 3.75H8.33685C7.05297 3.75 6.0639 4.19943 5.39214 4.92012Z" fill="black"/>
<path fill-rule="evenodd" clip-rule="evenodd" d="M12.5236 9.95312C11.3928 9.95312 10.4766 10.8698 10.4766 12.0001C10.4766 13.1312 11.3929 14.0478 12.5236 14.0478C13.6542 14.0478 14.5706 13.1312 14.5706 12.0001C14.5706 10.8698 13.6543 9.95312 12.5236 9.95312ZM8.97656 12.0001C8.97656 10.0416 10.5641 8.45312 12.5236 8.45312C14.483 8.45312 16.0706 10.0416 16.0706 12.0001C16.0706 13.9592 14.4831 15.5478 12.5236 15.5478C10.564 15.5478 8.97656 13.9592 8.97656 12.0001Z" fill="black"/>
<path fill-rule="evenodd" clip-rule="evenodd" d="M12.5234 5.75C12.9376 5.75 13.2734 6.08579 13.2734 6.5V6.51078C13.2734 6.92499 12.9376 7.26078 12.5234 7.26078C12.1092 7.26078 11.7734 6.92499 11.7734 6.51078V6.5C11.7734 6.08579 12.1092 5.75 12.5234 5.75ZM16.9427 7.58058C17.2355 7.87348 17.2355 8.34836 16.9426 8.64124L16.935 8.64886C16.6421 8.94175 16.1672 8.94173 15.8743 8.64883C15.5815 8.35592 15.5815 7.88105 15.8744 7.58817L15.882 7.58054C16.1749 7.28766 16.6498 7.28768 16.9427 7.58058ZM8.10381 7.58061C8.3967 7.28771 8.87157 7.28771 9.16447 7.5806L9.17209 7.58822C9.46498 7.88111 9.46499 8.35598 9.1721 8.64888C8.87921 8.94177 8.40433 8.94178 8.11144 8.64889L8.10382 8.64127C7.81092 8.34838 7.81092 7.8735 8.10381 7.58061ZM17.2627 12C17.2627 11.5858 17.5984 11.25 18.0127 11.25H18.0234C18.4377 11.25 18.7734 11.5858 18.7734 12C18.7734 12.4142 18.4377 12.75 18.0234 12.75H18.0127C17.5984 12.75 17.2627 12.4142 17.2627 12ZM6.27344 12C6.27344 11.5858 6.60922 11.25 7.02344 11.25H7.03422C7.44843 11.25 7.78422 11.5858 7.78422 12C7.78422 12.4142 7.44843 12.75 7.03422 12.75H7.02344C6.60922 12.75 6.27344 12.4142 6.27344 12ZM15.8744 15.3512C16.1672 15.0582 16.6421 15.0582 16.935 15.3511L16.9426 15.3587C17.2356 15.6516 17.2356 16.1264 16.9427 16.4194C16.6498 16.7123 16.175 16.7123 15.8821 16.4194L15.8744 16.4118C15.5815 16.1189 15.5815 15.6441 15.8744 15.3512ZM9.17215 15.3512C9.46504 15.6441 9.46502 16.119 9.17211 16.4118L9.16449 16.4195C8.87158 16.7123 8.39671 16.7123 8.10383 16.4194C7.81095 16.1265 7.81097 15.6516 8.10387 15.3588L8.11149 15.3511C8.4044 15.0583 8.87927 15.0583 9.17215 15.3512ZM12.5235 16.7392C12.9377 16.7392 13.2735 17.075 13.2735 17.4892V17.5C13.2735 17.9142 12.9377 18.25 12.5235 18.25C12.1093 18.25 11.7735 17.9142 11.7735 17.5V17.4892C11.7735 17.075 12.1093 16.7392 12.5235 16.7392Z" fill="black"/>
</svg>