<svg width="25" height="24" viewBox="0 0 25 24" fill="none" xmlns="http://www.w3.org/2000/svg">
<path fill-rule="evenodd" clip-rule="evenodd" d="M17.5953 2.44335C17.9948 2.55281 18.2299 2.9654 18.1204 3.36489L18.1149 3.38523C18.0054 3.78472 17.5928 4.01983 17.1933 3.91037C16.7938 3.80091 16.5587 3.38833 16.6682 2.98884L16.6738 2.9685C16.7832 2.56901 17.1958 2.33389 17.5953 2.44335ZM12.526 3.08804C12.8859 2.88296 13.3439 3.00844 13.549 3.36832L13.5579 3.38403C13.763 3.74391 13.6375 4.2019 13.2776 4.40698C12.9178 4.61207 12.4598 4.48658 12.2547 4.1267L12.2457 4.111C12.0406 3.75112 12.1661 3.29313 12.526 3.08804ZM21.6494 5.56966C21.8545 5.92953 21.729 6.38753 21.3691 6.59262L21.3322 6.61365C20.9724 6.81874 20.5144 6.69326 20.3093 6.33339C20.1042 5.97351 20.2297 5.51552 20.5895 5.31043L20.6264 5.28939C20.9863 5.0843 21.4443 5.20978 21.6494 5.56966ZM20.8037 10.2574C20.9132 9.85788 21.3258 9.62275 21.7252 9.7322L21.7524 9.73963C22.1519 9.84907 22.387 10.2617 22.2775 10.6611C22.1681 11.0606 21.7555 11.2958 21.356 11.1863L21.3289 11.1789C20.9294 11.0694 20.6943 10.6569 20.8037 10.2574Z" fill="black"/>
<path fill-rule="evenodd" clip-rule="evenodd" d="M15.8255 6.12012C14.8265 6.12012 13.9503 6.64929 13.4632 7.44605C13.2472 7.79945 12.7856 7.9108 12.4322 7.69475C12.0788 7.4787 11.9674 7.01706 12.1835 6.66366C12.9317 5.43979 14.2825 4.62012 15.8255 4.62012C18.1816 4.62012 20.0908 6.53017 20.0908 8.8854C20.0908 10.3708 19.3312 11.6786 18.1824 12.4415C17.8374 12.6706 17.3719 12.5766 17.1427 12.2316C16.9136 11.8865 17.0076 11.421 17.3526 11.1919C18.1004 10.6953 18.5908 9.84754 18.5908 8.8854C18.5908 7.35841 17.353 6.12012 15.8255 6.12012Z" fill="black"/>
<path fill-rule="evenodd" clip-rule="evenodd" d="M7.36094 7.9263C8.14076 6.89555 9.39041 6.07129 11.1845 6.07129C12.9786 6.07129 14.2283 6.89555 15.0081 7.9263C15.5738 8.674 15.8961 9.53251 16.0227 10.2732C16.8936 10.3987 17.693 10.7654 18.3165 11.3627C19.1064 12.1193 19.5643 13.1987 19.5643 14.4841C19.5643 16.2132 18.5339 17.7001 17.0578 18.3671C16.6803 18.5377 16.236 18.37 16.0655 17.9925C15.8949 17.6151 16.0626 17.1708 16.4401 17.0002C17.3989 16.567 18.0643 15.6024 18.0643 14.4841C18.0643 13.5688 17.7465 12.8938 17.2789 12.4459C16.8058 11.9928 16.1294 11.7247 15.3356 11.7244C14.9216 11.7242 14.586 11.3885 14.586 10.9744C14.586 10.4398 14.3644 9.56168 13.8119 8.83131C13.2824 8.13153 12.4564 7.57129 11.1845 7.57129C9.91266 7.57129 9.08659 8.13153 8.55717 8.83131C8.0046 9.56168 7.78306 10.4398 7.78306 10.9744C7.78306 11.3861 7.45118 11.7208 7.03949 11.7244C6.2427 11.7312 5.56394 12.0005 5.09002 12.4528C4.62248 12.8989 4.30469 13.5698 4.30469 14.4841C4.30469 15.6026 4.96955 16.567 5.92878 17.0002C6.30628 17.1706 6.47411 17.6149 6.30364 17.9924C6.13316 18.3699 5.68893 18.5377 5.31142 18.3672C3.83406 17.7001 2.80469 16.2129 2.80469 14.4841C2.80469 13.1978 3.2639 12.122 4.05446 11.3676C4.6784 10.7722 5.47722 10.4067 6.3456 10.2773C6.47178 9.53566 6.79423 8.67537 7.36094 7.9263Z" fill="black"/>
<path fill-rule="evenodd" clip-rule="evenodd" d="M5.29768 21.8524C4.92066 21.6809 4.75409 21.2361 4.92563 20.8591L5.38064 19.8591C5.55218 19.4821 5.99688 19.3155 6.3739 19.4871C6.75092 19.6586 6.9175 20.1033 6.74595 20.4803L6.29095 21.4803C6.1194 21.8574 5.6747 22.0239 5.29768 21.8524Z" fill="black"/>
<path fill-rule="evenodd" clip-rule="evenodd" d="M13.4874 18.8524C13.1104 18.6809 12.9438 18.2361 13.1153 17.8591L13.5703 16.8591C13.7419 16.4821 14.1866 16.3155 14.5636 16.4871C14.9406 16.6586 15.1072 17.1033 14.9356 17.4803L14.4806 18.4803C14.3091 18.8574 13.8644 19.0239 13.4874 18.8524Z" fill="black"/>
<path fill-rule="evenodd" clip-rule="evenodd" d="M16.2941 21.8859C16.3692 21.9111 16.4495 21.9248 16.533 21.9248C16.6166 21.9248 16.6969 21.9111 16.772 21.8859C16.8879 21.8474 16.999 21.7793 17.091 21.6782C17.24 21.5146 17.2876 21.3217 17.2876 21.1698C17.2876 21.0179 17.24 20.825 17.091 20.6614C16.9363 20.4914 16.7274 20.4148 16.533 20.4148C16.3387 20.4148 16.1298 20.4914 15.975 20.6614C15.8261 20.825 15.7785 21.0179 15.7785 21.1698C15.7785 21.3217 15.8261 21.5146 15.975 21.6782C16.0671 21.7793 16.1782 21.8474 16.2941 21.8859Z" fill="black"/>
<path fill-rule="evenodd" clip-rule="evenodd" d="M10.8342 21.8859C10.9092 21.9111 10.9895 21.9248 11.0731 21.9248C11.1566 21.9248 11.237 21.9111 11.312 21.8859C11.4279 21.8474 11.5391 21.7793 11.6311 21.6782C11.78 21.5146 11.8276 21.3217 11.8276 21.1698C11.8276 21.0179 11.78 20.825 11.6311 20.6614C11.4763 20.4914 11.2674 20.4148 11.0731 20.4148C10.8788 20.4148 10.6698 20.4914 10.5151 20.6614C10.3662 20.825 10.3185 21.0179 10.3185 21.1698C10.3185 21.3217 10.3662 21.5146 10.5151 21.6782C10.6071 21.7793 10.7183 21.8474 10.8342 21.8859Z" fill="black"/>
<path fill-rule="evenodd" clip-rule="evenodd" d="M9.00921 18.8908C9.08425 18.916 9.1646 18.9297 9.24814 18.9297C9.33167 18.9297 9.41202 18.916 9.48707 18.8908C9.60294 18.8523 9.71412 18.7842 9.80614 18.6831C9.95505 18.5195 10.0027 18.3266 10.0027 18.1747C10.0027 18.0228 9.95505 17.8299 9.80614 17.6663C9.65139 17.4962 9.44246 17.4197 9.24814 17.4197C9.05381 17.4197 8.84488 17.4962 8.69013 17.6663C8.54123 17.8299 8.49359 18.0228 8.49359 18.1747C8.49359 18.3266 8.54123 18.5195 8.69013 18.6831C8.78215 18.7842 8.89333 18.8523 9.00921 18.8908Z" fill="black"/>
</svg>