<svg width="25" height="24" viewBox="0 0 25 24" fill="none" xmlns="http://www.w3.org/2000/svg">
<path d="M7.83685 3H16.2716C19.2197 3 21.0547 5.08119 21.0547 8.02638V15.9736C21.0547 18.9188 19.2197 21 16.2706 21H7.83685C4.88874 21 3.05469 18.9188 3.05469 15.9736V8.02638C3.05469 5.08119 4.8975 3 7.83685 3Z" stroke="black" stroke-width="1.5" stroke-linecap="round" stroke-linejoin="round"/>
<path fill-rule="evenodd" clip-rule="evenodd" d="M12.0236 9.20312C13.5687 9.20312 14.8206 10.4557 14.8206 12.0001C14.8206 13.5452 13.5687 14.7978 12.0236 14.7978C10.4785 14.7978 9.22656 13.5452 9.22656 12.0001C9.22656 10.4557 10.4785 9.20312 12.0236 9.20312Z" stroke="black" stroke-width="1.5" stroke-linecap="round" stroke-linejoin="round"/>
<path d="M12.0235 17.4892V17.5M12.0234 6.5V6.51078M6.53422 12H6.52344M17.5234 12H17.5127M8.1418 15.8815L8.13418 15.8891M15.9123 8.11089L15.9047 8.11851M8.14176 8.11855L8.13414 8.11093M15.9124 15.8891L15.9047 15.8814" stroke="black" stroke-width="1.5" stroke-linecap="round" stroke-linejoin="round"/>
</svg>