<svg width="25" height="24" viewBox="0 0 25 24" fill="none" xmlns="http://www.w3.org/2000/svg">
<path opacity="0.4" d="M16.8972 3.16699L16.8916 3.18733M12.3975 3.73996L12.4064 3.75566M20.461 5.96234L20.4979 5.94131M21.0543 10.4633L21.0272 10.4558" stroke="black" stroke-width="1.5" stroke-linecap="round" stroke-linejoin="round"/>
<path opacity="0.4" d="M12.3232 7.05485C12.9409 6.04454 14.0544 5.37012 15.3254 5.37012C17.2672 5.37012 18.8407 6.94429 18.8407 8.8854C18.8407 10.1092 18.2157 11.187 17.2674 11.8167" stroke="black" stroke-width="1.5" stroke-linecap="round" stroke-linejoin="round"/>
<path d="M16.2489 17.6837C17.4664 17.1335 18.3143 15.9078 18.3143 14.4841C18.3143 12.2834 16.7628 10.9752 14.836 10.9744C14.836 9.5903 13.7505 6.82129 10.6845 6.82129C7.61856 6.82129 6.53306 9.5903 6.53306 10.9744C4.6087 10.9909 3.05469 12.2834 3.05469 14.4841C3.05469 15.9078 3.9018 17.1335 5.1201 17.6837" stroke="black" stroke-width="1.5" stroke-linecap="round" stroke-linejoin="round"/>
<path opacity="0.4" d="M5.10844 21.1699L5.56344 20.1699" stroke="black" stroke-width="1.5" stroke-linecap="round" stroke-linejoin="round"/>
<path opacity="0.4" d="M13.298 18.1699L13.753 17.1699" stroke="black" stroke-width="1.5" stroke-linecap="round" stroke-linejoin="round"/>
<path opacity="0.4" d="M16.0332 21.1749C16.0359 21.1749 16.0378 21.1729 16.0378 21.1699C16.0378 21.1669 16.0359 21.1649 16.0332 21.1649C16.0305 21.1649 16.0287 21.1669 16.0287 21.1699C16.0287 21.1729 16.0305 21.1749 16.0332 21.1749" stroke="black" stroke-width="1.5" stroke-linecap="round" stroke-linejoin="round"/>
<path opacity="0.4" d="M10.5732 21.1749C10.576 21.1749 10.5778 21.1729 10.5778 21.1699C10.5778 21.1669 10.576 21.1649 10.5732 21.1649C10.5705 21.1649 10.5687 21.1669 10.5687 21.1699C10.5687 21.1729 10.5705 21.1749 10.5732 21.1749" stroke="black" stroke-width="1.5" stroke-linecap="round" stroke-linejoin="round"/>
<path opacity="0.4" d="M8.7482 18.1798C8.75093 18.1798 8.75275 18.1778 8.75275 18.1748C8.75275 18.1718 8.75093 18.1698 8.7482 18.1698C8.74547 18.1698 8.74365 18.1718 8.74365 18.1748C8.74365 18.1778 8.74547 18.1798 8.7482 18.1798" stroke="black" stroke-width="1.5" stroke-linecap="round" stroke-linejoin="round"/>
</svg>