<svg width="25" height="24" viewBox="0 0 25 24" fill="none" xmlns="http://www.w3.org/2000/svg">
<path fill-rule="evenodd" clip-rule="evenodd" d="M12.5548 2.25C12.969 2.25 13.3048 2.58579 13.3048 3V4.3719C13.3048 4.78612 12.969 5.1219 12.5548 5.1219C12.1406 5.1219 11.8048 4.78612 11.8048 4.3719V3C11.8048 2.58579 12.1406 2.25 12.5548 2.25ZM19.4489 5.10549C19.7418 5.39839 19.7418 5.87326 19.4489 6.16616L18.4788 7.13622C18.1859 7.42911 17.711 7.42911 17.4181 7.13622C17.1253 6.84332 17.1253 6.36845 17.4181 6.07556L18.3882 5.10549C18.6811 4.8126 19.156 4.8126 19.4489 5.10549ZM5.66066 5.10597C5.95355 4.81308 6.42842 4.81308 6.72132 5.10597L7.69138 6.07603C7.98427 6.36893 7.98427 6.8438 7.69138 7.13669C7.39849 7.42959 6.92361 7.42959 6.63072 7.13669L5.66066 6.16663C5.36776 5.87374 5.36776 5.39886 5.66066 5.10597ZM2.80469 12.0001C2.80469 11.5859 3.14047 11.2501 3.55469 11.2501H4.92659C5.3408 11.2501 5.67659 11.5859 5.67659 12.0001C5.67659 12.4143 5.3408 12.7501 4.92659 12.7501H3.55469C3.14047 12.7501 2.80469 12.4143 2.80469 12.0001ZM19.4328 12.0001C19.4328 11.5859 19.7686 11.2501 20.1828 11.2501H21.5547C21.9689 11.2501 22.3047 11.5859 22.3047 12.0001C22.3047 12.4143 21.9689 12.7501 21.5547 12.7501H20.1828C19.7686 12.7501 19.4328 12.4143 19.4328 12.0001ZM7.69138 16.8635C7.98427 17.1564 7.98427 17.6312 7.69138 17.9241L6.72132 18.8942C6.42842 19.1871 5.95355 19.1871 5.66066 18.8942C5.36776 18.6013 5.36776 18.1264 5.66066 17.8335L6.63072 16.8635C6.92361 16.5706 7.39849 16.5706 7.69138 16.8635Z" fill="black"/>
<path fill-rule="evenodd" clip-rule="evenodd" d="M16.0157 11.8084C15.91 9.90874 14.2844 8.45389 12.384 8.55966C10.4837 8.66543 9.02962 10.2917 9.13534 12.1913C9.20074 13.3664 9.84643 14.3714 10.7821 14.9432C11.1355 15.1591 11.2469 15.6208 11.0309 15.9742C10.815 16.3276 10.3533 16.4391 9.9999 16.2231C8.66142 15.4051 7.7316 13.9624 7.63766 12.2747C7.48591 9.54811 9.57294 7.2138 12.3007 7.06198C15.0284 6.91016 17.3616 8.99846 17.5134 11.725C17.5364 12.1386 17.2198 12.4925 16.8062 12.5155C16.3926 12.5385 16.0387 12.2219 16.0157 11.8084Z" fill="black"/>
<path fill-rule="evenodd" clip-rule="evenodd" d="M18.2965 15.2334C19.6817 15.2334 20.8047 16.3563 20.8047 17.7416C20.8047 19.1269 19.6817 20.2498 18.2965 20.2498H14.3718C13.5897 20.2498 12.9558 19.6158 12.9558 18.8339C12.9558 18.0518 13.5897 17.4179 14.3718 17.4179C14.5575 17.4179 14.7331 17.4533 14.8938 17.517C15.0897 17.5948 15.3094 17.5865 15.4989 17.4941C15.6884 17.4018 15.8303 17.2339 15.8898 17.0317C16.1961 15.9915 17.1588 15.2334 18.2965 15.2334ZM22.3047 17.7416C22.3047 15.5279 20.5102 13.7334 18.2965 13.7334C16.7308 13.7334 15.376 14.6307 14.7161 15.9381C14.6031 15.9247 14.4882 15.9179 14.3718 15.9179C12.7613 15.9179 11.4558 17.2234 11.4558 18.8339C11.4558 20.4443 12.7613 21.7498 14.3718 21.7498H18.2965C20.5102 21.7498 22.3047 19.9553 22.3047 17.7416Z" fill="black"/>
</svg>