<svg width="25" height="24" viewBox="0 0 25 24" fill="none" xmlns="http://www.w3.org/2000/svg">
<path d="M17.0186 3.62061L17.0131 3.64065M12.585 4.18515L12.5938 4.20062M20.5299 6.37485L20.5663 6.35413M21.1145 10.8096L21.0878 10.8023" stroke="black" stroke-width="1.5" stroke-linecap="round" stroke-linejoin="round"/>
<path d="M12.5078 7.45838C13.1156 6.45936 14.2147 5.79199 15.4697 5.79199C17.383 5.79199 18.9333 7.34302 18.9333 9.25559C18.9333 10.4538 18.3253 11.5099 17.4009 12.1319" stroke="black" stroke-width="1.5" stroke-linecap="round" stroke-linejoin="round"/>
<path d="M18.4138 14.7781C18.4138 12.6078 16.8812 11.3338 14.9841 11.3168C14.9841 9.95173 13.9128 7.22168 10.8891 7.22168C9.39 7.22168 8.371 7.89268 7.72451 8.73569L7.40332 9.19838" stroke="black" stroke-width="1.5" stroke-linecap="round" stroke-linejoin="round"/>
<path d="M4.36226 15.7622C3.62662 15.4298 3.11426 14.6891 3.11426 13.8289C3.11426 12.4991 4.05375 11.7186 5.21603 11.7082C5.21603 10.8719 5.87193 9.19922 7.72449 9.19922C9.57706 9.19922 10.2335 10.8719 10.2335 11.7082" stroke="black" stroke-width="1.5" stroke-linecap="round" stroke-linejoin="round"/>
<path d="M9.32713 7.33624C9.32713 6.08966 8.31658 5.0791 7.06999 5.0791C5.89693 5.0791 4.93287 5.97398 4.82324 7.11831" stroke="black" stroke-width="1.5" stroke-linecap="round" stroke-linejoin="round"/>
<path d="M3.11426 8.24012C3.11426 7.58623 3.64434 7.05615 4.29823 7.05615C4.80765 7.05615 5.24192 7.37788 5.40895 7.82922" stroke="black" stroke-width="1.5" stroke-linecap="round" stroke-linejoin="round"/>
<path d="M12.8061 14.1865L11.5047 17.362C11.4563 17.4939 11.554 17.6338 11.6946 17.6338H13.0753C13.2082 17.6338 13.3049 17.7597 13.2707 17.8881L12.6744 20.1242C12.6193 20.3308 12.8809 20.4704 13.0219 20.3095L16.1498 16.7393C16.2643 16.6086 16.1715 16.4039 15.9977 16.4039H14.3503C14.2108 16.4039 14.1132 16.2659 14.1597 16.1343L14.9312 14.3235" stroke="black" stroke-width="1.5" stroke-linecap="round" stroke-linejoin="round"/>
<path d="M7.62466 15.3447L6.89062 17.1075H9.16596L8.2634 19.1241" stroke="black" stroke-width="1.5" stroke-linecap="round" stroke-linejoin="round"/>
</svg>