<svg width="25" height="24" viewBox="0 0 25 24" fill="none" xmlns="http://www.w3.org/2000/svg">
<path d="M20.6548 11.8449H19.4248C19.0148 11.8449 18.6748 11.5049 18.6748 11.0949C18.6748 10.6849 19.0148 10.3449 19.4248 10.3449H20.6548C21.0648 10.3449 21.4048 10.6849 21.4048 11.0949C21.4048 11.5049 21.0648 11.8449 20.6548 11.8449ZM5.69482 11.8449H4.46484C4.05484 11.8449 3.71484 11.5049 3.71484 11.0949C3.71484 10.6849 4.05484 10.3449 4.46484 10.3449H5.69482C6.10482 10.3449 6.44482 10.6849 6.44482 11.0949C6.44482 11.5049 6.10482 11.8449 5.69482 11.8449ZM7.70483 6.9949C7.51483 6.9949 7.32484 6.9249 7.17484 6.7749L6.30484 5.90488C6.01484 5.61488 6.01484 5.13488 6.30484 4.84488C6.59484 4.55488 7.07484 4.55488 7.36484 4.84488L8.23483 5.7149C8.52483 6.0049 8.52483 6.4849 8.23483 6.7749C8.08483 6.9249 7.89483 6.9949 7.70483 6.9949ZM17.4148 6.9949C17.2248 6.9949 17.0348 6.9249 16.8848 6.7749C16.5948 6.4849 16.5948 6.0049 16.8848 5.7149L17.7548 4.84488C18.0448 4.55488 18.5248 4.55488 18.8148 4.84488C19.1048 5.13488 19.1048 5.61488 18.8148 5.90488L17.9448 6.7749C17.7948 6.9249 17.6048 6.9949 17.4148 6.9949ZM12.5648 4.98489C12.1548 4.98489 11.8148 4.64489 11.8148 4.23489V3.00488C11.8148 2.59488 12.1548 2.25488 12.5648 2.25488C12.9748 2.25488 13.3148 2.59488 13.3148 3.00488V4.23489C13.3148 4.64489 12.9748 4.98489 12.5648 4.98489Z" fill="black"/>
<path d="M15.5651 15.3452C15.3551 15.3452 15.1451 15.2552 14.9951 15.0852C14.7251 14.7752 14.7551 14.2952 15.0651 14.0252C15.9051 13.2952 16.3851 12.2352 16.3851 11.1252C16.3851 9.00515 14.6651 7.28516 12.5451 7.28516C10.4251 7.28516 8.70508 9.00515 8.70508 11.1252C8.70508 12.2252 9.17509 13.2652 9.99509 13.9952C10.3051 14.2752 10.3351 14.7452 10.0551 15.0552C9.77508 15.3652 9.30509 15.3952 8.99509 15.1152C7.85509 14.1052 7.20508 12.6452 7.20508 11.1252C7.20508 8.17515 9.60507 5.78516 12.5451 5.78516C15.4851 5.78516 17.8851 8.18515 17.8851 11.1252C17.8851 12.6752 17.2151 14.1452 16.0451 15.1652C15.9051 15.2852 15.7251 15.3452 15.5551 15.3452H15.5651Z" fill="black"/>
<path d="M12.5544 21.7452C12.1444 21.7452 11.8044 21.4052 11.8044 20.9952V18.3052L11.1144 18.9952C10.8244 19.2852 10.3444 19.2852 10.0544 18.9952C9.76441 18.7052 9.76441 18.2252 10.0544 17.9352L12.0244 15.9652C12.0844 15.9152 12.1544 15.8652 12.2244 15.8452C12.3044 15.8052 12.3944 15.7852 12.4944 15.7852H12.5244C12.6144 15.7852 12.7144 15.8052 12.7944 15.8352C12.8444 15.8552 12.8844 15.8752 12.9244 15.9052C12.9244 15.9052 12.9244 15.9052 12.9344 15.9052L14.9044 17.8752C15.1944 18.1652 15.1944 18.6452 14.9044 18.9352C14.6144 19.2252 14.1344 19.2252 13.8444 18.9352L13.1544 18.2452V20.9352C13.1544 21.3452 12.8144 21.6852 12.4044 21.6852L12.5544 21.7452Z" fill="black"/>
<path d="M5.35453 16.3349C4.59453 16.3349 3.83453 16.1349 3.16453 15.7249C2.81453 15.5049 2.69453 15.0449 2.91453 14.6949C3.13453 14.3449 3.59453 14.2249 3.94453 14.4449C4.80453 14.9649 5.90453 14.9649 6.76453 14.4449C7.95453 13.7149 9.49453 13.6349 10.7645 14.2449C11.1345 14.4249 11.2945 14.8649 11.1245 15.2449C10.9445 15.6149 10.5045 15.7849 10.1245 15.6049C9.30452 15.2149 8.31453 15.2649 7.54453 15.7349C6.87453 16.1349 6.11453 16.3449 5.35453 16.3449V16.3349Z" fill="black"/>
<path d="M5.35453 19.9451C4.59453 19.9451 3.83453 19.7452 3.16453 19.3352C2.81453 19.1152 2.69453 18.6552 2.91453 18.3052C3.13453 17.9552 3.59453 17.8452 3.94453 18.0552C4.80453 18.5752 5.90453 18.5752 6.76453 18.0552C7.11453 17.8352 7.57453 17.9552 7.79453 18.3052C8.01453 18.6552 7.89453 19.1252 7.54453 19.3352C6.87453 19.7352 6.11453 19.9451 5.35453 19.9451Z" fill="black"/>
<path d="M19.755 16.3345C18.995 16.3345 18.235 16.1345 17.565 15.7245C16.795 15.2545 15.805 15.2045 14.985 15.5945C14.615 15.7745 14.165 15.6145 13.985 15.2345C13.805 14.8645 13.965 14.4145 14.345 14.2345C15.615 13.6345 17.155 13.7146 18.345 14.4346C19.205 14.9546 20.305 14.9546 21.165 14.4346C21.515 14.2146 21.975 14.3346 22.195 14.6846C22.405 15.0346 22.295 15.5046 21.945 15.7146C21.275 16.1146 20.515 16.3245 19.755 16.3245V16.3345Z" fill="black"/>
<path d="M19.7549 19.9451C18.9949 19.9451 18.2349 19.7452 17.5649 19.3352C17.2149 19.1252 17.0949 18.6552 17.3149 18.3052C17.5349 17.9552 17.9949 17.8352 18.3449 18.0552C19.2049 18.5752 20.3049 18.5752 21.1649 18.0552C21.5149 17.8352 21.9749 17.9552 22.1949 18.3052C22.4149 18.6552 22.2949 19.1152 21.9449 19.3352C21.2749 19.7352 20.5149 19.9451 19.7549 19.9451Z" fill="black"/>
</svg>