<svg width="25" height="25" viewBox="0 0 25 25" fill="none" xmlns="http://www.w3.org/2000/svg">
<path fill-rule="evenodd" clip-rule="evenodd" d="M4.03151 8.68781C4.35495 8.42906 4.82692 8.4815 5.08568 8.80494L8.50003 13.0729L11.9144 8.80494C12.1731 8.4815 12.6451 8.42906 12.9685 8.68781C13.292 8.94657 13.3444 9.41854 13.0857 9.74199L9.4605 14.2735L13.0857 18.8049C13.3444 19.1284 13.292 19.6004 12.9685 19.8591C12.6451 20.1179 12.1731 20.0654 11.9144 19.742L8.50003 15.4741L5.08568 19.742C4.82692 20.0654 4.35495 20.1179 4.03151 19.8591C3.70806 19.6004 3.65562 19.1284 3.91438 18.8049L7.53956 14.2735L3.91438 9.74199C3.65562 9.41854 3.70806 8.94657 4.03151 8.68781Z" fill="black"/>
<path fill-rule="evenodd" clip-rule="evenodd" d="M15.8487 6.90126C16.6065 5.57512 18.2959 5.11439 19.622 5.87218C20.9481 6.62997 21.4089 8.31933 20.6511 9.64547C20.6263 9.68885 20.5972 9.72964 20.5643 9.76724L18.1527 12.5234H20.4999C20.9141 12.5234 21.2499 12.8591 21.2499 13.2734C21.2499 13.6876 20.9141 14.0234 20.4999 14.0234H16.4999C16.2056 14.0234 15.9385 13.8513 15.8169 13.5833C15.6953 13.3153 15.7417 13.001 15.9355 12.7795L19.3803 8.84256C19.6816 8.2454 19.4652 7.51024 18.8778 7.17454C18.2709 6.82777 17.4978 7.03861 17.1511 7.64547C16.9456 8.0051 16.4874 8.13005 16.1278 7.92454C15.7681 7.71904 15.6432 7.2609 15.8487 6.90126Z" fill="black"/>
</svg>