<svg width="25" height="25" viewBox="0 0 25 25" fill="none" xmlns="http://www.w3.org/2000/svg">
<path d="M12.25 3.32422C7.279 3.32422 3.25 7.35322 3.25 12.3242C3.25 17.2942 7.279 21.3242 12.25 21.3242C17.221 21.3242 21.25 17.2942 21.25 12.3242C21.25 8.46415 18.8206 5.17209 15.4072 3.89344" stroke="black" stroke-width="1.5" stroke-linecap="round" stroke-linejoin="round"/>
<path d="M15.9927 14.0715C15.3346 15.4775 13.9071 16.4513 12.252 16.4513C9.97201 16.4513 8.12305 14.6033 8.12305 12.3233C8.12305 10.0433 9.97201 8.19531 12.252 8.19531C14.1063 8.19531 15.6748 9.41758 16.1959 11.1005" stroke="black" stroke-width="1.5" stroke-linecap="round" stroke-linejoin="round"/>
<path d="M9.33472 15.2383L7.61072 16.9623" stroke="black" stroke-width="1.5" stroke-linecap="round" stroke-linejoin="round"/>
<path d="M16.8929 16.9648L18.6159 18.6879" stroke="black" stroke-width="1.5" stroke-linecap="round" stroke-linejoin="round"/>
<path d="M5.88672 5.96094L9.33374 9.40793" stroke="black" stroke-width="1.5" stroke-linecap="round" stroke-linejoin="round"/>
<path d="M15.1699 9.40594L18.6149 5.96094" stroke="black" stroke-width="1.5" stroke-linecap="round" stroke-linejoin="round"/>
</svg>