<svg width="24" height="24" viewBox="0 0 24 24" fill="none" xmlns="http://www.w3.org/2000/svg">
<path d="M16.2156 3.00485L7.78448 3.00485C4.86714 3.00485 3.00972 5.07619 3 8.02271L3 15.9676C3 18.9142 4.86714 20.9951 7.78448 20.9951L16.2156 20.9951C19.1622 20.9951 21 18.885 21 15.9676L21 8.02271C21 5.07619 19.133 3.00485 16.2156 3.00485Z" stroke="black" stroke-width="1.5" stroke-linecap="round" stroke-linejoin="round"/>
<path d="M9.71949 17.1943L8.05664 15.5314L9.71949 13.8685" stroke="black" stroke-width="1.5" stroke-linecap="round" stroke-linejoin="round"/>
<path d="M15.9529 12.2259L15.9529 13.2567C15.9529 13.8602 15.7131 14.4391 15.2864 14.8658C14.8596 15.2925 14.2809 15.5322 13.6774 15.5322L8.05664 15.5322" stroke="black" stroke-width="1.5" stroke-linecap="round" stroke-linejoin="round"/>
<path d="M14.2883 6.78418L15.9512 8.44714L14.2883 10.11" stroke="black" stroke-width="1.5" stroke-linecap="round" stroke-linejoin="round"/>
<path d="M8.05491 11.7546L8.05491 10.7237C8.05491 10.1202 8.2947 9.54141 8.72145 9.11466C9.14819 8.68792 9.72689 8.44824 10.3304 8.44824L15.9512 8.44824" stroke="black" stroke-width="1.5" stroke-linecap="round" stroke-linejoin="round"/>
</svg>