<svg width="25" height="24" viewBox="0 0 25 24" fill="none" xmlns="http://www.w3.org/2000/svg">
<path fill-rule="evenodd" clip-rule="evenodd" d="M12.19 9.44537H13.19V7.44537H12.19C10.311 7.44537 8.599 5.73137 8.599 3.84937V2.84937H6.599V3.84937C6.599 5.73137 4.883 7.44537 3 7.44537H2V9.44537H3C4.343 9.44537 5.61 8.91137 6.599 8.05637V18.7894H8.599V8.05937C9.586 8.91337 10.85 9.44537 12.19 9.44537Z" fill="black"/>
<path opacity="0.4" fill-rule="evenodd" clip-rule="evenodd" d="M21.5001 14.5547C20.1561 14.5547 18.8901 15.0887 17.9001 15.9437V5.20972H15.9001V15.9407C14.9131 15.0867 13.6501 14.5547 12.3101 14.5547H11.3101V16.5547H12.3101C14.1881 16.5547 15.9001 18.2687 15.9001 20.1507V21.1507H17.9001V20.1507C17.9001 18.2687 19.6161 16.5547 21.5001 16.5547H22.5001V14.5547H21.5001Z" fill="black"/>
</svg>