<svg width="24" height="25" viewBox="0 0 24 25" fill="none" xmlns="http://www.w3.org/2000/svg">
<path fill-rule="evenodd" clip-rule="evenodd" d="M16.946 14.4385L14.527 16.1895C14.397 16.2845 14.243 16.3325 14.088 16.3325C13.971 16.3325 13.854 16.3055 13.747 16.2505C13.496 16.1225 13.338 15.8635 13.338 15.5825V8.7925C13.338 8.3775 13.674 8.0425 14.088 8.0425C14.502 8.0425 14.838 8.3775 14.838 8.7925V14.1135L16.067 13.2235C16.402 12.9805 16.872 13.0555 17.114 13.3915C17.357 13.7275 17.282 14.1955 16.946 14.4385ZM10.661 15.5825C10.661 15.9965 10.325 16.3325 9.911 16.3325C9.497 16.3325 9.161 15.9965 9.161 15.5825V10.2605L7.931 11.1505C7.595 11.3925 7.127 11.3175 6.884 10.9825C6.641 10.6465 6.717 10.1785 7.052 9.9355L9.471 8.1845C9.699 8.0195 10.001 7.9955 10.252 8.1245C10.503 8.2515 10.661 8.5105 10.661 8.7925V15.5825ZM12 2.6875C6.761 2.6875 2.5 6.9485 2.5 12.1875C2.5 17.4255 6.761 21.6875 12 21.6875C17.238 21.6875 21.5 17.4255 21.5 12.1875C21.5 6.9485 17.238 2.6875 12 2.6875Z" fill="black"/>
</svg>