<svg width="25" height="24" viewBox="0 0 25 24" fill="none" xmlns="http://www.w3.org/2000/svg">
<path d="M12.4999 6.81017C10.6614 5.74369 8.33634 5.74012 6.49458 6.80095C4.65282 7.86178 3.48926 9.87475 3.48926 12.0002C3.48926 14.1256 4.65282 16.1386 6.49458 17.1994C7.16102 17.5833 7.89075 17.8277 8.63781 17.9329" stroke="black" stroke-width="1.5" stroke-linecap="round" stroke-linejoin="round"/>
<path d="M13.998 15L16.998 12" stroke="black" stroke-width="1.5" stroke-linecap="round" stroke-linejoin="round"/>
<path d="M15.1157 9.84467L13.998 9" stroke="black" stroke-width="1.5" stroke-linecap="round" stroke-linejoin="round"/>
<path d="M6.49805 12H16.998" stroke="black" stroke-width="1.5" stroke-linecap="round" stroke-linejoin="round"/>
<path d="M21.498 12C21.498 8.68629 18.8118 6 15.498 6C12.1843 6 9.49805 8.68629 9.49805 12C9.49805 15.3137 12.1843 18 15.498 18C17.81 18 19.8166 16.6924 20.8185 14.7763" stroke="black" stroke-width="1.5" stroke-linecap="round" stroke-linejoin="round"/>
</svg>