<svg width="25" height="24" viewBox="0 0 25 24" fill="none" xmlns="http://www.w3.org/2000/svg">
<path fill-rule="evenodd" clip-rule="evenodd" d="M7.21967 7.03412C7.51256 6.74123 7.98744 6.74123 8.28033 7.03412L16.75 15.5038L20.7197 11.5341C21.0126 11.2412 21.4874 11.2412 21.7803 11.5341C22.0732 11.827 22.0732 12.3019 21.7803 12.5948L17.2803 17.0948C16.9874 17.3877 16.5126 17.3877 16.2197 17.0948L7.75 8.62511L3.78033 12.5948C3.48744 12.8877 3.01256 12.8877 2.71967 12.5948C2.42678 12.3019 2.42678 11.827 2.71967 11.5341L7.21967 7.03412Z" fill="black"/>
<path fill-rule="evenodd" clip-rule="evenodd" d="M7.75 6.81445C8.16421 6.81445 8.5 7.15024 8.5 7.56445V21.0645C8.5 21.4787 8.16421 21.8145 7.75 21.8145C7.33579 21.8145 7 21.4787 7 21.0645V7.56445C7 7.15024 7.33579 6.81445 7.75 6.81445Z" fill="black"/>
<path fill-rule="evenodd" clip-rule="evenodd" d="M16.75 2.31445C17.1642 2.31445 17.5 2.65024 17.5 3.06445V16.5645C17.5 16.9787 17.1642 17.3145 16.75 17.3145C16.3358 17.3145 16 16.9787 16 16.5645V3.06445C16 2.65024 16.3358 2.31445 16.75 2.31445Z" fill="black"/>
</svg>