<svg width="24" height="24" viewBox="0 0 24 24" fill="none" xmlns="http://www.w3.org/2000/svg">
<path fill-rule="evenodd" clip-rule="evenodd" d="M4.84587 19.0739C5.52203 19.7965 6.51277 20.2451 7.78448 20.2451L16.2156 20.2451C17.5004 20.2451 18.4903 19.7903 19.163 19.0653C19.8415 18.3339 20.25 17.2697 20.25 15.9676L20.25 8.02271C20.25 6.7078 19.8353 5.64724 19.1549 4.92201C18.4792 4.20184 17.4884 3.75485 16.2156 3.75485L7.78448 3.75485C6.51198 3.75485 5.52376 4.20163 4.8492 4.92162C4.16973 5.64685 3.7546 6.70789 3.75 8.02397L3.75 15.9676C3.75 17.2826 4.1648 18.346 4.84587 19.0739ZM3.7506 20.0988C2.76877 19.0495 2.25 17.5991 2.25 15.9676L2.25 8.02023C2.25538 6.39036 2.77377 4.9429 3.75457 3.89606C4.74048 2.84374 6.13964 2.25485 7.78448 2.25485L16.2156 2.25485C17.8602 2.25485 19.2616 2.84353 20.2488 3.89567C21.2312 4.94274 21.75 6.3911 21.75 8.02271L21.75 15.9676C21.75 17.5829 21.2396 19.0324 20.2626 20.0855C19.2797 21.1448 17.8774 21.7451 16.2156 21.7451L7.78448 21.7451C6.13886 21.7451 4.73735 21.1533 3.7506 20.0988Z" fill="black"/>
<path fill-rule="evenodd" clip-rule="evenodd" d="M7.52629 16.0617C7.23342 15.7688 7.23342 15.2939 7.52631 15.001L9.18916 13.3382C9.48205 13.0453 9.95692 13.0453 10.2498 13.3382C10.5427 13.6311 10.5427 14.106 10.2498 14.3989L9.11728 15.5314L10.2498 16.664C10.5427 16.9569 10.5427 17.4318 10.2498 17.7247C9.95689 18.0176 9.48202 18.0176 9.18914 17.7246L7.52629 16.0617Z" fill="black"/>
<path fill-rule="evenodd" clip-rule="evenodd" d="M7.30664 15.5322C7.30664 15.118 7.64243 14.7822 8.05664 14.7822L13.6774 14.7822C14.082 14.7822 14.47 14.6215 14.756 14.3355C15.0421 14.0494 15.2029 13.6613 15.2029 13.2567L15.2029 12.2259C15.2029 11.8117 15.5387 11.4759 15.9529 11.4759C16.3671 11.4759 16.7029 11.8117 16.7029 12.2259L16.7029 13.2567C16.7029 14.0592 16.3841 14.8288 15.8167 15.3961C15.2493 15.9635 14.4798 16.2822 13.6774 16.2822L8.05664 16.2822C7.64243 16.2822 7.30664 15.9464 7.30664 15.5322Z" fill="black"/>
<path fill-rule="evenodd" clip-rule="evenodd" d="M16.4815 7.91683C16.7744 8.20973 16.7744 8.68459 16.4815 8.97747L14.8187 10.6403C14.5258 10.9332 14.0509 10.9332 13.758 10.6403C13.4651 10.3474 13.4651 9.87255 13.758 9.57966L14.8905 8.44713L13.758 7.31449C13.4651 7.02159 13.4651 6.54671 13.758 6.25383C14.0509 5.96095 14.5258 5.96096 14.8187 6.25387L16.4815 7.91683Z" fill="black"/>
<path fill-rule="evenodd" clip-rule="evenodd" d="M16.7012 8.44824C16.7012 8.86246 16.3654 9.19824 15.9512 9.19824L10.3304 9.19824C9.92578 9.19824 9.53785 9.35892 9.25178 9.64499C8.96566 9.93111 8.80491 10.3192 8.80491 10.7237L8.80491 11.7546C8.80491 12.1688 8.46912 12.5046 8.05491 12.5046C7.6407 12.5046 7.30491 12.1688 7.30491 11.7546L7.30491 10.7237C7.30491 9.92128 7.62375 9.1517 8.19112 8.58433C8.75853 8.01692 9.52801 7.69824 10.3304 7.69824L15.9512 7.69824C16.3654 7.69824 16.7012 8.03403 16.7012 8.44824Z" fill="black"/>
</svg>