<svg width="25" height="24" viewBox="0 0 25 24" fill="none" xmlns="http://www.w3.org/2000/svg">
<path fill-rule="evenodd" clip-rule="evenodd" d="M21.4998 14.5547C20.1558 14.5547 18.8898 15.0887 17.8998 15.9437V5.2097H15.8998V15.9407C14.9128 15.0867 13.6498 14.5547 12.3098 14.5547H11.3098V16.5547H12.3098C14.1878 16.5547 15.8998 18.2687 15.8998 20.1507V21.1507H17.8998V20.1507C17.8998 18.2687 19.6158 16.5547 21.4998 16.5547H22.4998V14.5547H21.4998Z" fill="black"/>
<path fill-rule="evenodd" clip-rule="evenodd" d="M12.1902 9.4453H13.1902V7.4453H12.1902C10.3112 7.4453 8.59924 5.7313 8.59924 3.8493V2.8493H6.59924V3.8493C6.59924 5.7313 4.88324 7.4453 3.00024 7.4453H2.00024V9.4453H3.00024C4.34324 9.4453 5.61024 8.9113 6.59924 8.0563V18.7893H8.59924V8.0593C9.58624 8.9133 10.8502 9.4453 12.1902 9.4453Z" fill="black"/>
</svg>