<svg width="25" height="24" viewBox="0 0 25 24" fill="none" xmlns="http://www.w3.org/2000/svg">
<path fill-rule="evenodd" clip-rule="evenodd" d="M16.1546 20.8995L16.1546 5.46026L17.6546 5.46026L17.6546 20.8995L16.1546 20.8995Z" fill="black"/>
<path fill-rule="evenodd" clip-rule="evenodd" d="M17.6546 20.1503C17.6546 17.2053 15.0697 14.8048 12.3091 14.8048H11.5591V16.3048H12.3091C14.2734 16.3048 16.1546 18.0655 16.1546 20.1503V20.9003H17.6546V20.1503Z" fill="black"/>
<path fill-rule="evenodd" clip-rule="evenodd" d="M16.1546 20.1503C16.1546 17.2053 18.7395 14.8048 21.5001 14.8048H22.2501V16.3048H21.5001C19.5358 16.3048 17.6546 18.0655 17.6546 20.1503V20.9003H16.1546V20.1503Z" fill="black"/>
<path fill-rule="evenodd" clip-rule="evenodd" d="M6.84552 3.09973L6.84552 18.539L8.34552 18.539L8.34552 3.09973L6.84552 3.09973Z" fill="black"/>
<path fill-rule="evenodd" clip-rule="evenodd" d="M8.34552 3.84992C8.34552 6.79491 5.76065 9.19543 3.00001 9.19543L2.25001 9.19543L2.25001 7.69543L3.00001 7.69543C4.96433 7.69543 6.84552 5.93474 6.84552 3.84992L6.84552 3.09992L8.34552 3.09992L8.34552 3.84992Z" fill="black"/>
<path fill-rule="evenodd" clip-rule="evenodd" d="M6.84552 3.84992C6.84552 6.79491 9.43039 9.19543 12.191 9.19544L12.941 9.19544L12.941 7.69544L12.191 7.69544C10.2267 7.69543 8.34552 5.93474 8.34552 3.84992L8.34552 3.09992L6.84552 3.09992L6.84552 3.84992Z" fill="black"/>
</svg>