<svg width="25" height="24" viewBox="0 0 25 24" fill="none" xmlns="http://www.w3.org/2000/svg">
<path fill-rule="evenodd" clip-rule="evenodd" d="M12.2532 8.21857C11.8442 7.44557 9.68115 3.58557 7.29015 3.58557C4.89915 3.58557 2.73515 7.44557 2.32615 8.21857C2.06815 8.70657 2.25415 9.31157 2.74215 9.57057C3.22815 9.82557 3.83515 9.64257 4.09415 9.15457C4.68415 8.04257 5.54815 6.85757 6.29015 6.17157V17.2046C6.29015 17.7576 6.73715 18.2046 7.29015 18.2046C7.84315 18.2046 8.29015 17.7576 8.29015 17.2046V6.17157C9.03215 6.85857 9.89615 8.04257 10.4852 9.15457C10.6652 9.49257 11.0122 9.68657 11.3702 9.68657C11.5282 9.68657 11.6892 9.64857 11.8372 9.57057C12.3252 9.31157 12.5112 8.70657 12.2532 8.21857Z" fill="black"/>
<path opacity="0.4" fill-rule="evenodd" clip-rule="evenodd" d="M21.7578 14.4325C21.2738 14.1735 20.6648 14.3595 20.4058 14.8465C19.8178 15.9565 18.9578 17.1385 18.2198 17.8255V6.79553C18.2198 6.24353 17.7728 5.79553 17.2198 5.79553C16.6668 5.79553 16.2198 6.24353 16.2198 6.79553V17.8295C15.4778 17.1435 14.6138 15.9595 14.0238 14.8465C13.7648 14.3595 13.1548 14.1725 12.6718 14.4325C12.1838 14.6905 11.9978 15.2945 12.2558 15.7835C12.6648 16.5565 14.8278 20.4145 17.2198 20.4145C19.6018 20.4145 21.7648 16.5565 22.1738 15.7835C22.4318 15.2945 22.2458 14.6905 21.7578 14.4325Z" fill="black"/>
</svg>