<svg width="24" height="24" viewBox="0 0 24 24" fill="none" xmlns="http://www.w3.org/2000/svg">
<path fill-rule="evenodd" clip-rule="evenodd" d="M17.431 11.4471C16.3724 11.2758 15.0333 11.5094 13.5389 12.3661C12.1611 13.1559 11.1511 14.8591 10.4755 16.5088C10.1461 17.3133 9.91198 18.0652 9.76038 18.6164C9.73911 18.6937 9.7195 18.767 9.7015 18.8357C9.77181 18.855 9.84705 18.8752 9.92687 18.896C10.4838 19.0414 11.2572 19.2162 12.1243 19.3352C13.9026 19.5794 15.8956 19.5626 17.2747 18.7721C18.7693 17.9152 19.6406 16.8816 20.0192 15.8893C20.3934 14.9081 20.3075 13.9195 19.8041 13.0537C19.3004 12.1875 18.4788 11.6166 17.431 11.4471ZM8.80857 19.3514C8.07273 19.2064 8.07277 19.2062 8.07281 19.2059L8.07321 19.2039L8.07412 19.1994L8.07722 19.1841L8.08869 19.1294C8.09869 19.0825 8.11346 19.0152 8.13324 18.9297C8.17278 18.7589 8.23243 18.5155 8.3141 18.2186C8.47709 17.626 8.72947 16.8144 9.08742 15.9404C9.78666 14.2329 10.9554 12.118 12.7929 11.0647C14.5139 10.0782 16.1992 9.72825 17.6706 9.96632C19.1529 10.2061 20.3669 11.0375 21.1008 12.2996C21.8349 13.5622 21.9543 15.0249 21.4206 16.4239C20.8912 17.8118 19.7413 19.087 18.0207 20.0734C16.1843 21.126 13.7578 21.0736 11.9203 20.8213C10.9796 20.6921 10.1461 20.5035 9.54814 20.3474C9.24855 20.2693 9.00654 20.1989 8.83796 20.1475C8.75364 20.1218 8.68758 20.1009 8.64176 20.0861L8.58843 20.0686L8.57358 20.0637L8.5692 20.0622L8.56777 20.0617C8.56757 20.0616 8.56686 20.0614 8.80857 19.3514ZM8.80857 19.3514L8.56777 20.0617C8.21218 19.9407 8.00016 19.5745 8.07281 19.2059L8.80857 19.3514Z" fill="black"/>
<path fill-rule="evenodd" clip-rule="evenodd" d="M11.3726 12.5562C11.7859 12.5295 12.1427 12.843 12.1694 13.2564C12.2366 14.2971 12.744 15.4317 13.5182 16.5054C14.2869 17.5714 15.2751 18.5163 16.2068 19.1721C16.5456 19.4105 16.6269 19.8784 16.3885 20.2171C16.15 20.5558 15.6822 20.6372 15.3435 20.3987C14.2808 19.6507 13.1716 18.5892 12.3016 17.3827C11.4372 16.184 10.7646 14.7801 10.6725 13.353C10.6458 12.9397 10.9592 12.5829 11.3726 12.5562Z" fill="black"/>
<path fill-rule="evenodd" clip-rule="evenodd" d="M15.7754 10.3281C16.1896 10.3281 16.5254 10.6639 16.5254 11.0781C16.5254 13.4611 17.78 15.6849 19.6956 17.0577C20.0323 17.2989 20.1097 17.7675 19.8684 18.1042C19.6271 18.4408 19.1586 18.5182 18.8219 18.2769C16.5511 16.6496 15.0254 13.9895 15.0254 11.0781C15.0254 10.6639 15.3612 10.3281 15.7754 10.3281Z" fill="black"/>
<path fill-rule="evenodd" clip-rule="evenodd" d="M14.7886 4.74321C14.4624 4.97296 14.1853 5.33885 14.0489 5.66448L14.0485 5.66542C13.7707 6.32627 13.8379 7.03352 14.0718 7.82703C15.0219 7.28868 15.7414 6.61755 15.9117 5.71641C15.958 5.43438 15.9506 5.14292 15.8828 4.92268C15.8199 4.71847 15.7265 4.62551 15.6031 4.57926L15.5849 4.57217C15.3724 4.48614 15.1093 4.51733 14.7886 4.74321ZM16.1389 3.1782C15.2996 2.84263 14.4992 3.1123 13.9248 3.51687C13.3539 3.919 12.9039 4.51555 12.6654 5.08501L13.3572 5.37474L12.6658 5.08406C12.0474 6.55495 12.5151 8.02724 12.9399 9.15076C13.0134 9.3451 13.1642 9.50025 13.3564 9.57922C13.5486 9.65819 13.7649 9.65389 13.9538 9.56736C15.2735 8.96281 17.0282 7.91868 17.3877 5.98378L17.3878 5.9838L17.3901 5.97047C17.4633 5.53231 17.4729 4.98968 17.3164 4.48131C17.1552 3.9576 16.7988 3.42927 16.1389 3.1782Z" fill="black"/>
<path fill-rule="evenodd" clip-rule="evenodd" d="M6.20392 6.47453C5.49159 6.41749 4.84215 6.53799 4.33667 6.86156L4.33071 6.86538L4.33069 6.86535C3.97351 7.08927 3.75122 7.47243 3.75 7.82932C3.75032 8.3427 4.0007 8.83023 4.4505 9.25566C4.90345 9.68407 5.51253 10.0008 6.08771 10.1509L6.09419 10.1526L6.09418 10.1526C7.54302 10.5446 9.18858 10.2416 10.6972 9.63292C10.0727 8.54115 9.29829 7.64877 8.22817 7.07741M6.20392 6.47453C6.91501 6.53148 7.63728 6.76261 8.22803 7.07734L6.20392 6.47453ZM6.32366 4.97932C7.25995 5.0543 8.18038 5.35224 8.93397 5.75384L8.93447 5.75411C10.6151 6.65135 11.6554 8.11982 12.4094 9.66568C12.497 9.84534 12.5093 10.0525 12.4435 10.2413C12.3777 10.43 12.2393 10.5847 12.059 10.671C10.2361 11.5432 7.89261 12.1919 5.70566 11.6014C4.91109 11.3935 4.07242 10.9627 3.41978 10.3454C2.76338 9.7246 2.25 8.86723 2.25 7.82835V7.82652H2.25C2.2523 6.88322 2.80349 6.05373 3.53089 5.59637C4.38788 5.04891 5.38947 4.90451 6.32366 4.97932Z" fill="black"/>
</svg>