<svg width="25" height="24" viewBox="0 0 25 24" fill="none" xmlns="http://www.w3.org/2000/svg">
<path d="M14.0518 20.0426C14.9572 21.0975 16.343 21.5134 17.6449 21.3337C19.8485 21.0296 21.6372 18.6766 20.9342 16.0244C19.3189 9.97201 11.2734 8.8252 11.2734 8.8252C11.2734 8.8252 12.5601 11.5683 12.9743 14.6357C13.2195 16.4511 12.7557 18.5327 14.0518 20.0426Z" stroke="black" stroke-width="1.5" stroke-linecap="round" stroke-linejoin="round"/>
<path d="M3.17633 14.0976C3.43103 15.7162 5.02161 16.838 6.73694 16.5969C8.45227 16.3558 9.63221 14.8503 9.37751 13.2267C8.8837 10.0829 5.2971 7.38672 5.2971 7.38672C5.2971 7.38672 2.68253 10.9537 3.17633 14.0976Z" stroke="black" stroke-width="1.5" stroke-linecap="round" stroke-linejoin="round"/>
<path d="M17.7307 8.19739C19.0883 8.73145 20.5469 7.99 20.9872 6.55376C21.4275 5.11235 20.6845 3.51538 19.3268 2.98133C16.6895 1.94952 13.2725 3.53093 13.2725 3.53093C13.2725 3.53093 15.0934 7.16559 17.7307 8.19739Z" stroke="black" stroke-width="1.5" stroke-linecap="round" stroke-linejoin="round"/>
</svg>