<svg width="24" height="24" viewBox="0 0 24 24" fill="none" xmlns="http://www.w3.org/2000/svg">
<path d="M19.1378 11.6721C20.0949 14.2554 19.1532 17.6737 17.4762 19.3507C15.3364 21.4905 9.35664 21.6531 7.39891 19.2186C6.15656 17.6737 5.19097 15.7987 4.58231 14.1187C4.25587 13.2177 4.73489 12.246 5.62966 11.9028C6.42172 11.599 7.3188 11.877 7.80022 12.5755L9.00243 14.3197V4.68044C9.00243 3.75236 9.75479 3 10.6829 3C11.6009 3 12.349 3.73672 12.3631 4.65463L12.4299 9.00213C14.7816 9.22671 18.1869 9.10538 19.1378 11.6721Z" stroke="black" stroke-width="1.5" stroke-miterlimit="10" stroke-linecap="round" stroke-linejoin="round"/>
<path d="M5.73104 4.05859L4.47852 5.31104L5.73104 6.56348" stroke="black" stroke-width="1.5" stroke-miterlimit="10" stroke-linecap="round" stroke-linejoin="round"/>
<path d="M15.7207 4.05859L16.9732 5.31104L15.7207 6.56348" stroke="black" stroke-width="1.5" stroke-miterlimit="10" stroke-linecap="round" stroke-linejoin="round"/>
</svg>