<svg width="25" height="24" viewBox="0 0 25 24" fill="none" xmlns="http://www.w3.org/2000/svg">
<path opacity="0.4" fill-rule="evenodd" clip-rule="evenodd" d="M15.5575 9.36712L17.0425 5.08374C17.3555 4.17942 16.8855 3.19079 15.9864 2.86405C15.0768 2.5331 14.0713 3.00107 13.7404 3.91066L10.3034 13.3543L9.74685 11.2169C9.52446 10.361 8.74452 9.76868 7.86023 9.78449C6.86105 9.80136 6.04527 10.5824 6.04422 11.5815C6.04105 13.445 6.31825 15.6257 6.98542 17.5829C8.03519 20.6658 13.9512 22.6389 16.8106 21.3056C19.0525 20.2611 21.1941 17.2477 21.1773 14.3756C21.1604 11.5215 17.7814 10.4253 15.5575 9.36712Z" fill="black"/>
<path fill-rule="evenodd" clip-rule="evenodd" d="M9.0417 5.36061L8.83195 5.73267C8.61694 6.11316 8.7508 6.59588 9.13234 6.80984C9.2546 6.8794 9.38846 6.91208 9.51915 6.91208C9.79529 6.91208 10.063 6.76768 10.2085 6.51051L11.2603 4.64496C11.274 4.62704 11.2814 4.60702 11.2919 4.5891L11.313 4.55221C11.3194 4.54062 11.3183 4.52902 11.3246 4.51743C11.3594 4.44576 11.3858 4.37198 11.3973 4.29082C11.4058 4.24339 11.4026 4.19702 11.4016 4.14959C11.4005 4.11375 11.411 4.08003 11.4047 4.04314C11.4026 4.03049 11.3931 4.01995 11.39 4.00625C11.3752 3.93247 11.3446 3.86501 11.3088 3.79756C11.2983 3.77859 11.2919 3.75751 11.2804 3.73959C11.2308 3.66265 11.1655 3.59836 11.0896 3.54144C11.0854 3.53828 11.0822 3.53406 11.0769 3.5309C11.0537 3.51404 11.039 3.4898 11.0126 3.47504L9.05435 2.37047C8.67597 2.15862 8.19324 2.29037 7.97823 2.67085C7.76427 3.05134 7.89813 3.53301 8.27861 3.74802L8.50206 3.87345C6.33296 4.53956 4.85212 5.59776 3.9341 7.14395C3.71066 7.52022 3.83397 8.00505 4.21025 8.22744C4.33672 8.30228 4.47585 8.33811 4.61287 8.33811C4.88163 8.33811 5.14513 8.20004 5.29269 7.9513C6.00834 6.74555 7.22358 5.90658 9.0417 5.36061Z" fill="black"/>
</svg>