<svg width="25" height="24" viewBox="0 0 25 24" fill="none" xmlns="http://www.w3.org/2000/svg">
<path opacity="0.4" fill-rule="evenodd" clip-rule="evenodd" d="M20.7482 9.41028L18.2612 6.92128C17.7422 6.40028 17.0542 6.11328 16.3212 6.11328C15.5892 6.11328 14.8992 6.40028 14.3832 6.92028L5.82618 15.4703C5.73218 15.5633 5.68018 15.6903 5.68018 15.8233C5.68018 15.9563 5.73218 16.0833 5.82618 16.1773C7.49218 17.8413 10.2012 17.8393 11.8652 16.1773L16.5802 11.4653C16.6802 11.6653 16.7312 11.8873 16.7302 12.1173C16.7292 12.5043 16.5782 12.8663 16.3032 13.1393L9.90018 19.5503C9.70518 19.7453 9.70518 20.0613 9.90018 20.2573C10.7322 21.0893 11.8262 21.5053 12.9202 21.5053C14.0132 21.5053 15.1062 21.0893 15.9392 20.2573L20.7492 15.4463C22.4102 13.7773 22.4102 11.0693 20.7482 9.41028Z" fill="black"/>
<path fill-rule="evenodd" clip-rule="evenodd" d="M15.2451 4.10403C15.2451 3.97103 15.1921 3.84303 15.0991 3.75003C13.4321 2.08803 10.7241 2.08903 9.0601 3.75003L4.2491 8.56103C2.5921 10.228 2.5921 12.94 4.2491 14.607C4.3431 14.701 4.4701 14.754 4.6021 14.754H4.6031C4.7361 14.754 4.8631 14.702 4.9571 14.608L15.0991 4.45803C15.1921 4.36403 15.2451 4.23603 15.2451 4.10403Z" fill="black"/>
</svg>