<svg width="24" height="24" viewBox="0 0 24 24" fill="none" xmlns="http://www.w3.org/2000/svg">
<path fill-rule="evenodd" clip-rule="evenodd" d="M10.4799 9.59634L8.87667 5.39447C8.53854 4.50754 7.55048 4.0567 6.65828 4.38113C5.7566 4.70978 5.29207 5.70627 5.61967 6.609L9.02941 15.9766L7.24395 14.7073C6.52977 14.1985 5.55962 14.2459 4.89706 14.821C4.14811 15.471 4.02698 16.5844 4.66321 17.3449C5.84825 18.7627 7.45041 20.2427 9.20427 21.3056C11.9683 22.9783 17.7218 20.7051 19.0448 17.8684C20.0813 15.6458 19.7874 11.9906 17.944 9.8186C16.1112 7.66026 12.8447 8.98223 10.4799 9.59634Z" fill="black"/>
<path fill-rule="evenodd" clip-rule="evenodd" d="M11.3753 4.86509C11.3785 4.87879 11.3743 4.89143 11.3774 4.90407C11.3859 4.93988 11.4101 4.96621 11.4227 4.99992C11.4438 5.05048 11.4628 5.09894 11.4933 5.14529C11.5249 5.19163 11.5639 5.22956 11.605 5.26748C11.6292 5.2917 11.645 5.32331 11.6734 5.34437L13.4663 6.66951C13.6074 6.77379 13.7717 6.8233 13.935 6.8233C14.1773 6.8233 14.4164 6.71269 14.5712 6.50307C14.8304 6.1523 14.7566 5.65828 14.4048 5.39809L14.0604 5.14423C15.9217 4.90407 17.3606 5.17478 18.5024 5.97955C18.6404 6.07751 18.7995 6.12386 18.9564 6.12386C19.206 6.12386 19.4494 6.00799 19.6032 5.78995C19.8549 5.43286 19.7696 4.93988 19.4136 4.68918C17.9525 3.66004 16.1903 3.29663 13.9708 3.56419L14.1035 3.38406C14.3627 3.03329 14.2879 2.53821 13.9371 2.27908C13.5853 2.01995 13.0913 2.09579 12.8321 2.44551L11.507 4.23939C11.4986 4.25098 11.4975 4.26573 11.4891 4.27731C11.4607 4.32156 11.4427 4.37001 11.4227 4.41952C11.4038 4.46692 11.3817 4.51116 11.3732 4.55962C11.3637 4.60491 11.368 4.65126 11.3669 4.69866C11.3659 4.75449 11.3637 4.80926 11.3753 4.86509Z" fill="black"/>
</svg>