<svg width="25" height="24" viewBox="0 0 25 24" fill="none" xmlns="http://www.w3.org/2000/svg">
<path opacity="0.4" fill-rule="evenodd" clip-rule="evenodd" d="M20.533 11.5621C19.6002 9.04512 16.6258 8.8301 14.2364 8.65725C13.9761 8.63828 13.721 8.6193 13.4754 8.59822L13.409 4.25365C13.3921 3.14906 12.4794 2.25 11.3748 2.25C10.2523 2.25 9.33953 3.16276 9.33953 4.28421V13.5984L8.55325 12.4569C7.9746 11.6169 6.90585 11.287 5.95409 11.6506C4.85793 12.0711 4.30564 13.2453 4.69667 14.3225C5.42288 16.3261 6.49163 18.2613 7.70794 19.7738C8.61543 20.9026 10.3703 21.6161 12.5237 21.7331C12.7334 21.7447 12.941 21.75 13.1487 21.75C15.4517 21.75 17.5923 21.0617 18.7212 19.9329C20.4455 18.2096 21.6281 14.5185 20.533 11.5621Z" fill="black"/>
<path fill-rule="evenodd" clip-rule="evenodd" d="M6.15484 7.06118C6.25708 7.06118 6.35931 7.04116 6.45734 7.00111C6.75245 6.87884 6.94534 6.59005 6.94534 6.27068V3.63042C6.94534 3.31106 6.75245 3.02227 6.45734 2.9C6.16222 2.77774 5.82283 2.84519 5.59622 3.0718L4.27556 4.39141C3.96674 4.70023 3.96674 5.20088 4.27556 5.5097L5.59622 6.8293C5.74694 6.98108 5.94931 7.06118 6.15484 7.06118Z" fill="black"/>
<path fill-rule="evenodd" clip-rule="evenodd" d="M16.3813 7.00041C16.4794 7.04151 16.5816 7.06048 16.6838 7.06048C16.8894 7.06048 17.0917 6.98038 17.2425 6.8286L18.5631 5.509C18.8719 5.20018 18.8719 4.69953 18.5631 4.39071L17.2425 3.0711C17.0169 2.84555 16.6775 2.77809 16.3813 2.8993C16.0862 3.02262 15.8933 3.31036 15.8933 3.62972V6.26999C15.8933 6.58935 16.0862 6.87814 16.3813 7.00041Z" fill="black"/>
</svg>