<svg width="25" height="24" viewBox="0 0 25 24" fill="none" xmlns="http://www.w3.org/2000/svg">
<path opacity="0.4" d="M18.1941 9.55486C19.9446 11.617 20.2237 15.087 19.2396 17.1974C17.9839 19.8903 12.5212 22.0484 9.89742 20.4597C8.23237 19.4515 6.71183 18.0458 5.58608 16.7002C4.98231 15.9784 5.09797 14.9211 5.80827 14.3039C6.43704 13.7576 7.35809 13.7129 8.03683 14.1957L9.73178 15.4013L6.49478 6.50766C6.18311 5.65137 6.62462 4.70456 7.48091 4.3929C8.32791 4.08461 9.26556 4.51311 9.58682 5.35528L11.1084 9.34405C13.3536 8.76151 16.4547 7.50602 18.1941 9.55486Z" stroke="black" stroke-width="1.5" stroke-miterlimit="10" stroke-linecap="round" stroke-linejoin="round"/>
<path d="M13.9454 3L12.6875 4.70294L14.3904 5.96082" stroke="black" stroke-width="1.5" stroke-miterlimit="10" stroke-linecap="round" stroke-linejoin="round"/>
<path d="M12.6875 4.70399C15.0826 4.09553 17.3527 4.02442 19.157 5.29701" stroke="black" stroke-width="1.5" stroke-miterlimit="10" stroke-linecap="round" stroke-linejoin="round"/>
</svg>