<svg width="24" height="24" viewBox="0 0 24 24" fill="none" xmlns="http://www.w3.org/2000/svg">
<path fill-rule="evenodd" clip-rule="evenodd" d="M11.8933 8.95333L11.8226 4.36738C11.8078 3.39891 11.0187 2.6214 10.0503 2.6214C9.07124 2.6214 8.27685 3.41474 8.27685 4.39375V14.5637L7.00877 12.7227C6.50133 11.9864 5.55503 11.6931 4.71949 12.0138C3.77529 12.3757 3.26996 13.4011 3.61388 14.3516C4.25636 16.124 5.2744 18.102 6.58573 19.7309C8.65136 22.2998 14.959 22.1278 17.2167 19.8712C18.9859 18.102 19.9796 14.4951 18.97 11.7701C17.9668 9.06199 14.3746 9.1907 11.8933 8.95333Z" fill="black"/>
<path fill-rule="evenodd" clip-rule="evenodd" d="M19.703 3.95488H16.5866L16.8008 3.74178C17.1099 3.43267 17.1099 2.93156 16.8008 2.62245C16.4917 2.31335 15.9906 2.31335 15.6815 2.62245L14.1169 4.18698C14.0389 4.26399 13.9808 4.35472 13.9429 4.45072C13.9091 4.53301 13.8891 4.62268 13.8859 4.71657V4.72501C13.8848 4.72501 13.8848 4.72818 13.8848 4.72818V4.7651C13.8859 4.76721 13.8859 4.76721 13.8859 4.76721V4.77565C13.8891 4.86954 13.9091 4.95921 13.9429 5.0415C13.9808 5.1375 14.0389 5.22823 14.1169 5.30524L15.6815 6.86977C15.8355 7.02379 16.038 7.1008 16.2406 7.1008C16.4431 7.1008 16.6457 7.02379 16.8008 6.86977C17.1099 6.56066 17.1099 6.05955 16.8008 5.75044L16.5866 5.53734H19.703C20.1398 5.53734 20.4942 5.18287 20.4942 4.74611C20.4942 4.30935 20.1398 3.95488 19.703 3.95488Z" fill="black"/>
</svg>