<svg width="25" height="24" viewBox="0 0 25 24" fill="none" xmlns="http://www.w3.org/2000/svg">
<path opacity="0.4" d="M20.3582 14.0227C20.3738 16.7479 18.342 19.6068 16.2157 20.5983C13.5026 21.8634 7.88895 19.9914 6.89278 17.066C6.26063 15.2095 5.99741 13.1399 6.00002 11.3723C6.00142 10.4243 6.77546 9.68308 7.72334 9.66678C8.5624 9.65236 9.30224 10.2143 9.51344 11.0265L10.0408 13.0546L13.3022 4.09424C13.6162 3.23152 14.5701 2.7867 15.4328 3.1007C16.2862 3.4113 16.7323 4.34926 16.4349 5.20729L15.026 9.2712C17.1362 10.2756 20.3427 11.315 20.3582 14.0227Z" stroke="black" stroke-width="1.5" stroke-miterlimit="10" stroke-linecap="round" stroke-linejoin="round"/>
<path d="M8.48828 3.28516L10.3462 4.33309L9.29821 6.19096" stroke="black" stroke-width="1.5" stroke-miterlimit="10" stroke-linecap="round" stroke-linejoin="round"/>
<path d="M10.3473 4.34766C7.89434 4.7744 5.77769 5.63053 4.64258 7.54368" stroke="black" stroke-width="1.5" stroke-miterlimit="10" stroke-linecap="round" stroke-linejoin="round"/>
</svg>