<svg width="24" height="24" viewBox="0 0 24 24" fill="none" xmlns="http://www.w3.org/2000/svg">
<path fill-rule="evenodd" clip-rule="evenodd" d="M12.3685 9.12411L12.2979 4.54211C12.2831 3.57449 11.4947 2.79764 10.5271 2.79764C9.54892 2.79764 8.75521 3.5903 8.75521 4.56846V14.7296L7.48823 12.8903C6.98123 12.1545 6.03574 11.8615 5.20092 12.1819C4.25754 12.5435 3.75265 13.568 4.09627 14.5177C4.73819 16.2886 5.75536 18.2649 7.06555 19.8924C9.1294 22.459 15.4316 22.2872 17.6873 20.0326C19.455 18.2649 20.4479 14.6611 19.4392 11.9384C18.4367 9.23268 14.8477 9.36127 12.3685 9.12411Z" fill="black"/>
<path fill-rule="evenodd" clip-rule="evenodd" d="M16.8783 5.02944L16.9795 4.92825V7.26089C16.9795 7.69727 17.3337 8.05143 17.77 8.05143C18.2064 8.05143 18.5606 7.69727 18.5606 7.26089V4.9272L18.6618 5.02944C18.9706 5.33828 19.4713 5.33828 19.7801 5.02944C20.089 4.7206 20.089 4.21993 19.7801 3.91109L18.3181 2.45016C18.2444 2.37848 18.159 2.32473 18.0694 2.28784C17.8786 2.20878 17.6425 2.21194 17.4549 2.29416C17.3737 2.32894 17.2978 2.37848 17.2293 2.44173V2.44278C17.2219 2.45016 17.2156 2.45649 17.2082 2.46281L15.7599 3.91109C15.4511 4.21993 15.4511 4.72166 15.7599 5.02944C16.0688 5.33828 16.5695 5.33828 16.8783 5.02944Z" fill="black"/>
</svg>