<svg width="25" height="24" viewBox="0 0 25 24" fill="none" xmlns="http://www.w3.org/2000/svg">
<path fill-rule="evenodd" clip-rule="evenodd" d="M10.9328 3.75C10.4189 3.75 10.0024 4.16657 10.0024 4.68044V14.3197C10.0024 14.648 9.78876 14.9382 9.47524 15.0358C9.16172 15.1334 8.82117 15.0157 8.63483 14.7453L7.43262 13.0011C7.14773 12.5878 6.61688 12.4232 6.14818 12.603C5.61114 12.809 5.35873 13.3701 5.53738 13.8632C6.12352 15.4811 7.05213 17.2797 8.2333 18.7486C8.99665 19.6978 10.6889 20.2536 12.6178 20.25C14.5363 20.2463 16.3284 19.6878 17.1958 18.8203C17.9148 18.1014 18.5136 16.9629 18.8145 15.68C19.1148 14.3999 19.1002 13.0548 18.6845 11.9327C18.3325 10.9825 17.5289 10.4767 16.3758 10.1861C15.5054 9.96672 14.5682 9.89871 13.6343 9.83095C13.2908 9.80602 12.9477 9.78112 12.6085 9.74873C12.2281 9.7124 11.9358 9.39579 11.9299 9.01364L11.8631 4.66615C11.8553 4.15791 11.4411 3.75 10.9328 3.75ZM8.50235 4.68044C8.50235 3.33814 9.5905 2.25 10.9328 2.25C12.2605 2.25 13.3426 3.31553 13.3629 4.64311L13.4193 8.30993C13.4879 8.31496 13.5576 8.32 13.6283 8.3251C14.5947 8.3949 15.7327 8.47709 16.7424 8.73155C18.1175 9.07811 19.4921 9.79499 20.0911 11.4116L20.0911 11.4116C20.6324 12.8727 20.6254 14.5284 20.2749 16.0225C19.9251 17.5138 19.2145 18.923 18.2565 19.881C16.9842 21.1533 14.7165 21.746 12.6206 21.75C10.5353 21.7539 8.25874 21.1738 7.06437 19.6886C5.76084 18.0676 4.75826 16.1163 4.12708 14.3742C3.65285 13.0652 4.35847 11.6829 5.61099 11.2025C6.64118 10.8074 7.79753 11.1112 8.50235 11.9348V4.68044Z" fill="black"/>
<path fill-rule="evenodd" clip-rule="evenodd" d="M6.28033 3.46967C6.57322 3.76256 6.57322 4.23744 6.28033 4.53033L5.31066 5.5L6.28033 6.46967C6.57322 6.76256 6.57322 7.23744 6.28033 7.53033C5.98744 7.82322 5.51256 7.82322 5.21967 7.53033L3.71967 6.03033C3.42678 5.73744 3.42678 5.26256 3.71967 4.96967L5.21967 3.46967C5.51256 3.17678 5.98744 3.17678 6.28033 3.46967Z" fill="black"/>
<path fill-rule="evenodd" clip-rule="evenodd" d="M15.7197 3.46967C16.0126 3.17678 16.4874 3.17678 16.7803 3.46967L18.2803 4.96967C18.5732 5.26256 18.5732 5.73744 18.2803 6.03033L16.7803 7.53033C16.4874 7.82322 16.0126 7.82322 15.7197 7.53033C15.4268 7.23744 15.4268 6.76256 15.7197 6.46967L16.6893 5.5L15.7197 4.53033C15.4268 4.23744 15.4268 3.76256 15.7197 3.46967Z" fill="black"/>
<path fill-rule="evenodd" clip-rule="evenodd" d="M3.5 5.5C3.5 5.08579 3.83579 4.75 4.25 4.75H9.25C9.66421 4.75 10 5.08579 10 5.5C10 5.91421 9.66421 6.25 9.25 6.25H4.25C3.83579 6.25 3.5 5.91421 3.5 5.5ZM12 5.5C12 5.08579 12.3358 4.75 12.75 4.75H17.75C18.1642 4.75 18.5 5.08579 18.5 5.5C18.5 5.91421 18.1642 6.25 17.75 6.25H12.75C12.3358 6.25 12 5.91421 12 5.5Z" fill="black"/>
</svg>