<svg width="25" height="24" viewBox="0 0 25 24" fill="none" xmlns="http://www.w3.org/2000/svg">
<path opacity="0.4" d="M19.4815 11.6721C20.4385 14.2554 19.4969 17.6737 17.8199 19.3507C15.6801 21.4905 9.70031 21.6531 7.74258 19.2186C6.50023 17.6737 5.53464 15.7987 4.92598 14.1187C4.59954 13.2177 5.07855 12.246 5.97333 11.9028C6.76539 11.599 7.66246 11.877 8.14389 12.5755L9.3461 14.3197V4.68044C9.3461 3.75236 10.0985 3 11.0265 3C11.9446 3 12.6927 3.73672 12.7068 4.65463L12.7736 9.00213C15.1253 9.22671 18.5306 9.10538 19.4815 11.6721Z" stroke="black" stroke-width="1.5" stroke-miterlimit="10" stroke-linecap="round" stroke-linejoin="round"/>
<path d="M18.6953 3.53125L20.1778 5.01361L18.6953 6.49596" stroke="black" stroke-width="1.5" stroke-miterlimit="10" stroke-linecap="round" stroke-linejoin="round"/>
<path d="M20.1768 5.01172H15.4121" stroke="black" stroke-width="1.5" stroke-miterlimit="10" stroke-linecap="round" stroke-linejoin="round"/>
</svg>