<svg width="25" height="24" viewBox="0 0 25 24" fill="none" xmlns="http://www.w3.org/2000/svg">
<path opacity="0.4" d="M19.6378 11.6721C20.5949 14.2554 19.6532 17.6737 17.9762 19.3507C15.8364 21.4905 9.85664 21.6531 7.89891 19.2186C6.65656 17.6737 5.69097 15.7987 5.08231 14.1187C4.75587 13.2177 5.23489 12.246 6.12966 11.9028C6.92172 11.599 7.8188 11.877 8.30022 12.5755L9.50243 14.3197V4.68044C9.50243 3.75236 10.2548 3 11.1829 3C12.1009 3 12.849 3.73672 12.8631 4.65463L12.9299 9.00213C15.2816 9.22671 18.6869 9.10538 19.6378 11.6721Z" stroke="black" stroke-width="1.5" stroke-miterlimit="10" stroke-linecap="round" stroke-linejoin="round"/>
<path d="M6.23104 4.05859L4.97852 5.31104L6.23104 6.56348" stroke="black" stroke-width="1.5" stroke-miterlimit="10" stroke-linecap="round" stroke-linejoin="round"/>
<path d="M16.2207 4.05859L17.4732 5.31104L16.2207 6.56348" stroke="black" stroke-width="1.5" stroke-miterlimit="10" stroke-linecap="round" stroke-linejoin="round"/>
</svg>