<svg width="24" height="24" viewBox="0 0 24 24" fill="none" xmlns="http://www.w3.org/2000/svg">
<path d="M13.968 20.9844C11.497 21.3704 8.64 20.8714 7.399 19.3284C6.156 17.7834 5.191 15.9074 4.582 14.2274C4.256 13.3264 4.735 12.3554 5.63 12.0124C6.422 11.7084 7.319 11.9864 7.8 12.6844L9.002 14.4284V4.78937C9.002 3.86137 9.755 3.10938 10.683 3.10938C11.601 3.10938 12.349 3.84538 12.363 4.76338L12.43 9.11137C14.782 9.33537 18.187 9.21438 19.138 11.7814C20.095 14.3644 19.153 17.7834 17.476 19.4604" stroke="black" stroke-width="1.5" stroke-linecap="round" stroke-linejoin="round"/>
<path d="M19.1709 4.43652L17.625 2.89062L16.0791 4.43652" stroke="black" stroke-width="1.5" stroke-linecap="round" stroke-linejoin="round"/>
<path d="M17.6494 2.89062L17.6494 7.27226" stroke="black" stroke-width="1.5" stroke-linecap="round" stroke-linejoin="round"/>
</svg>