<svg width="25" height="24" viewBox="0 0 25 24" fill="none" xmlns="http://www.w3.org/2000/svg">
<path fill-rule="evenodd" clip-rule="evenodd" d="M14.9263 3.80568C14.4528 3.63334 13.9293 3.87747 13.7569 4.35096L10.4956 13.3113C10.3833 13.6199 10.0833 13.8195 9.75536 13.804C9.42737 13.7885 9.14762 13.5614 9.06498 13.2436L8.53758 11.2154C8.41354 10.7384 7.97902 10.4084 7.48623 10.4169C6.92146 10.4266 6.50078 10.8595 6.50002 11.3736C6.4975 13.0751 6.75206 15.0604 7.35275 16.8244C7.73998 17.9616 9.12204 19.0496 10.9156 19.6985C12.6993 20.3439 14.5517 20.4303 15.6487 19.9188C16.5587 19.4945 17.4994 18.6399 18.2126 17.5501C18.9242 16.4628 19.365 15.209 19.3582 14.0272C19.3525 13.0287 18.7792 12.2887 17.8066 11.6291C17.0724 11.1312 16.2251 10.7513 15.3802 10.3724C15.0691 10.233 14.7584 10.0936 14.4537 9.94859C14.1086 9.78433 13.9422 9.38684 14.0674 9.02574L15.4763 4.96183C15.6395 4.49092 15.3946 3.97614 14.9263 3.80568ZM12.3474 3.83793C12.8031 2.58598 14.1874 1.94047 15.4393 2.39614C16.6777 2.84687 17.3252 4.208 16.8935 5.45316L15.7077 8.8738C15.7674 8.90064 15.8281 8.92781 15.8895 8.95533C16.7643 9.34722 17.7954 9.80912 18.6486 10.3877C19.8107 11.1758 20.8484 12.3094 20.8582 14.0186C20.867 15.5619 20.2997 17.1002 19.4677 18.3715C18.6373 19.6403 17.499 20.711 16.2827 21.2782C14.6667 22.0318 12.3557 21.8148 10.4052 21.109C8.46461 20.4069 6.54175 19.0962 5.93282 17.3079C5.26919 15.3591 4.99731 13.2051 5.00002 11.3714C5.00206 9.98949 6.12947 8.93998 7.46045 8.9171C8.54784 8.8984 9.51726 9.56495 9.90038 10.561L12.3474 3.83793Z" fill="black"/>
<path fill-rule="evenodd" clip-rule="evenodd" d="M7.58517 2.91682C7.78866 2.55604 8.2461 2.42854 8.60688 2.63204L10.4647 3.67998C10.638 3.7777 10.7653 3.94025 10.8187 4.13186C10.8722 4.32346 10.8473 4.52844 10.7495 4.70169L9.70159 6.55956C9.49809 6.92034 9.04066 7.04784 8.67988 6.84434C8.3191 6.64085 8.1916 6.18341 8.3951 5.82263L9.07457 4.61801L7.86995 3.93854C7.50917 3.73504 7.38167 3.2776 7.58517 2.91682Z" fill="black"/>
<path fill-rule="evenodd" clip-rule="evenodd" d="M10.8363 4.21923C10.9073 4.62731 10.634 5.01568 10.2259 5.08668C7.83429 5.50277 6.00015 6.30437 5.03771 7.9265C4.82635 8.28273 4.36623 8.40017 4.01 8.18881C3.65377 7.97745 3.53632 7.51733 3.74768 7.1611C5.05545 4.95694 7.45462 4.04629 9.96883 3.60888C10.3769 3.53788 10.7653 3.81115 10.8363 4.21923Z" fill="black"/>
</svg>