<svg width="25" height="25" viewBox="0 0 25 25" fill="none" xmlns="http://www.w3.org/2000/svg">
<path fill-rule="evenodd" clip-rule="evenodd" d="M2.75 12.7672C2.75 8.78802 5.97552 5.5625 9.9547 5.5625H15.0453C19.0245 5.5625 22.25 8.78802 22.25 12.7672C22.25 16.7464 19.0245 19.9719 15.0453 19.9719H9.9547C5.97552 19.9719 2.75 16.7464 2.75 12.7672ZM9.9547 7.0625C6.80394 7.0625 4.25 9.61644 4.25 12.7672C4.25 15.918 6.80394 18.4719 9.9547 18.4719H15.0453C18.1961 18.4719 20.75 15.918 20.75 12.7672C20.75 9.61644 18.1961 7.0625 15.0453 7.0625H9.9547ZM9.96195 10.2798C8.58867 10.2798 7.47487 11.3929 7.47487 12.7669C7.47487 14.14 8.58882 15.2539 9.96195 15.2539C11.3359 15.2539 12.449 14.1401 12.449 12.7669C12.449 11.3927 11.3361 10.2798 9.96195 10.2798ZM5.97487 12.7669C5.97487 10.5642 7.76054 8.77977 9.96195 8.77977C12.1645 8.77977 13.949 10.5643 13.949 12.7669C13.949 14.9683 12.1646 16.7539 9.96195 16.7539C7.76039 16.7539 5.97487 14.9684 5.97487 12.7669Z" fill="black"/>
</svg>