<svg width="24" height="24" viewBox="0 0 24 24" fill="none" xmlns="http://www.w3.org/2000/svg">
<path d="M14.9192 18H17C19.206 18 21 16.206 21 14C21 11.794 19.206 10 17 10H4C3.447 10 3 10.447 3 11C3 11.553 3.447 12 4 12H17C18.103 12 19 12.897 19 14C19 15.103 18.103 16 17 16H14.9205L15.2128 15.7086C15.6038 15.3186 15.6058 14.6866 15.2148 14.2946C14.8248 13.9026 14.1928 13.9016 13.8008 14.2926L11.8228 16.2637C11.6564 16.4168 11.5422 16.6257 11.5096 16.8609C11.5031 16.9069 11.4998 16.9536 11.4998 17.0006C11.4998 17.2666 11.6058 17.5216 11.7938 17.7086L13.8008 19.7086C13.9958 19.9026 14.2518 20.0006 14.5068 20.0006C14.7638 20.0006 15.0198 19.9026 15.2148 19.7066C15.6058 19.3146 15.6038 18.6826 15.2128 18.2926L14.9192 18Z" fill="black"/>
<g opacity="0.4">
<path d="M20 6H4C3.447 6 3 5.553 3 5C3 4.447 3.447 4 4 4H20C20.553 4 21 4.447 21 5C21 5.553 20.553 6 20 6Z" fill="black"/>
<path d="M4 18H9C9.553 18 10 17.553 10 17C10 16.447 9.553 16 9 16H4C3.447 16 3 16.447 3 17C3 17.553 3.447 18 4 18Z" fill="black"/>
</g>
</svg>