<svg width="24" height="24" viewBox="0 0 24 24" fill="none" xmlns="http://www.w3.org/2000/svg">
<path fill-rule="evenodd" clip-rule="evenodd" d="M20.6258 17.3815L20.6248 6.61751C20.6248 4.62 19.0048 3 17.0073 3H6.99154C4.99402 3 3.37402 4.62 3.37402 6.61849L3.375 17.3825C3.375 19.38 4.995 21 6.99251 21H17.0073C19.0058 21 20.6258 19.38 20.6258 17.3815Z" stroke="black" stroke-width="1.5" stroke-linecap="round" stroke-linejoin="round"/>
<path d="M12.0012 17.3306V17.2824M12.0012 17.0293C11.863 17.0293 11.751 17.1413 11.751 17.2791C11.751 17.4173 11.863 17.5293 12.0012 17.5293C12.1394 17.5293 12.2514 17.4173 12.2514 17.2791C12.2514 17.1413 12.1394 17.0293 12.0012 17.0293Z" stroke="black" stroke-width="1.5" stroke-linecap="round" stroke-linejoin="round"/>
</svg>