<svg width="25" height="24" viewBox="0 0 25 24" fill="none" xmlns="http://www.w3.org/2000/svg">
<path opacity="0.4" fill-rule="evenodd" clip-rule="evenodd" d="M21.1258 17.3815L21.1248 6.61751C21.1248 4.62 19.5048 3 17.5073 3H7.49154C5.49402 3 3.87402 4.62 3.87402 6.61849L3.875 17.3825C3.875 19.38 5.495 21 7.49251 21H17.5073C19.5058 21 21.1258 19.38 21.1258 17.3815Z" stroke="black" stroke-width="1.5" stroke-linecap="round" stroke-linejoin="round"/>
<path d="M12.5012 17.3306V17.2824M12.5012 17.0293C12.363 17.0293 12.251 17.1413 12.251 17.2791C12.251 17.4173 12.363 17.5293 12.5012 17.5293C12.6394 17.5293 12.7514 17.4173 12.7514 17.2791C12.7514 17.1413 12.6394 17.0293 12.5012 17.0293Z" stroke="black" stroke-width="1.5" stroke-linecap="round" stroke-linejoin="round"/>
</svg>