<svg width="24" height="24" viewBox="0 0 24 24" fill="none" xmlns="http://www.w3.org/2000/svg">
<path fill-rule="evenodd" clip-rule="evenodd" d="M3.01582 5.96647C3.01874 4.5547 4.08608 3.28888 5.47158 3.0505C5.75568 3.00088 9.08808 3.00769 10.4668 3.00866C11.8309 3.00964 12.9936 3.50001 13.9568 4.4613C16.002 6.50257 18.0452 8.5458 20.0855 10.591C21.2929 11.8004 21.3095 13.6568 20.1069 14.8701C18.3721 16.6214 16.6285 18.364 14.8782 20.0988C13.6659 21.3004 11.8095 21.2848 10.5991 20.0774C8.53544 18.0195 6.47178 15.9617 4.41688 13.8951C3.62197 13.0954 3.15301 12.1292 3.0489 10.9996C2.96522 10.0967 3.01387 6.73998 3.01582 5.96647Z" stroke="black" stroke-width="1.5" stroke-linecap="round" stroke-linejoin="round"/>
<path fill-rule="evenodd" clip-rule="evenodd" d="M9.90712 8.31531C9.90322 9.18514 9.17642 9.90027 8.29784 9.89832C7.42509 9.89638 6.69828 9.1686 6.70315 8.30169C6.70899 7.39683 7.42509 6.69144 8.33578 6.69533C9.19977 6.69825 9.91101 7.43089 9.90712 8.31531Z" stroke="black" stroke-width="1.5" stroke-linecap="round" stroke-linejoin="round"/>
</svg>