<svg width="25" height="24" viewBox="0 0 25 24" fill="none" xmlns="http://www.w3.org/2000/svg">
<path d="M13.0102 21.7392C12.5103 21.7374 12.0156 21.6369 11.5546 21.4433C11.0937 21.2497 10.6755 20.9669 10.3242 20.6112C8.25757 18.5532 6.19624 16.4915 4.14024 14.4262C3.22926 13.5325 2.66779 12.3426 2.55724 11.0712C2.49024 10.3572 2.50122 8.39921 2.51622 6.62021L2.52123 5.96719C2.52995 5.09547 2.84212 4.25405 3.40404 3.58755C3.96596 2.92106 4.74253 2.47116 5.60024 2.31521C5.81624 2.27621 6.62422 2.2462 10.4002 2.2622H10.7182C11.4666 2.25344 12.209 2.39705 12.9001 2.68432C13.5912 2.9716 14.2166 3.39651 14.7382 3.93319C16.7836 5.97586 18.8266 8.01988 20.8672 10.0652C21.2224 10.4121 21.505 10.826 21.6987 11.283C21.8924 11.7401 21.9934 12.2311 21.9957 12.7275C21.9981 13.2239 21.9017 13.7158 21.7123 14.1746C21.5228 14.6334 21.2441 15.05 20.8922 15.4002C19.1542 17.1529 17.4089 18.8979 15.6562 20.6352C14.9551 21.3389 14.0036 21.7359 13.0102 21.7392ZM9.49825 3.7612C8.11225 3.7612 6.11222 3.7662 5.83522 3.7962C5.33019 3.89759 4.87499 4.16853 4.54506 4.56411C4.21513 4.9597 4.0303 5.45616 4.02123 5.97119L4.01622 6.63321C4.00622 7.80221 3.98525 10.2332 4.05025 10.9332C4.12807 11.8576 4.538 12.7226 5.20424 13.3682C7.25824 15.4349 9.31789 17.4949 11.3832 19.5482C11.5906 19.7661 11.8397 19.94 12.1158 20.0594C12.3919 20.1788 12.6892 20.2413 12.99 20.2432C13.2908 20.245 13.5888 20.1862 13.8664 20.0702C14.1439 19.9543 14.3952 19.7835 14.6052 19.5682C16.3552 17.8349 18.0969 16.0935 19.8302 14.3442C20.0455 14.1343 20.2163 13.883 20.3322 13.6056C20.4482 13.3281 20.507 13.0302 20.5051 12.7295C20.5033 12.4288 20.4408 12.1315 20.3214 11.8555C20.202 11.5795 20.0281 11.3304 19.8102 11.1232C17.7702 9.07786 15.7276 7.03452 13.6822 4.99319C13.2998 4.59539 12.8395 4.28069 12.3301 4.06872C11.8206 3.85675 11.273 3.75206 10.7212 3.7612H9.49825Z" fill="black"/>
<path d="M8.5537 10.6558C8.23697 10.6665 7.92134 10.6131 7.62576 10.4988C7.33017 10.3845 7.06072 10.2116 6.83361 9.9906C6.6065 9.76955 6.4264 9.50488 6.30413 9.21249C6.18187 8.9201 6.11997 8.60603 6.12212 8.28912C6.12428 7.97221 6.19047 7.65898 6.3167 7.36828C6.44294 7.07759 6.62662 6.8154 6.85671 6.59747C7.08681 6.37954 7.35858 6.21037 7.65569 6.10009C7.95281 5.98982 8.26915 5.94073 8.58572 5.95578H8.5967C8.90018 5.95702 9.2004 6.01856 9.47988 6.13684C9.75936 6.25512 10.0126 6.42778 10.2247 6.64477C10.4455 6.86583 10.6201 7.12852 10.7386 7.4176C10.857 7.70667 10.9169 8.0164 10.9147 8.32879C10.9081 8.9498 10.6562 9.54299 10.2139 9.97894C9.77154 10.4149 9.17474 10.6582 8.5537 10.6558ZM8.58071 7.45578C8.46601 7.45268 8.35187 7.47275 8.24511 7.5148C8.13835 7.55684 8.04116 7.61999 7.95937 7.70047C7.87759 7.78094 7.81289 7.87708 7.76913 7.98315C7.72537 8.08922 7.70345 8.20304 7.70471 8.31778C7.70609 8.53813 7.79494 8.74892 7.95171 8.90377C8.02992 8.98381 8.12321 9.04754 8.22619 9.0913C8.32917 9.13507 8.43982 9.15802 8.55172 9.15878C8.77502 9.15783 8.98917 9.07005 9.14892 8.91403C9.30867 8.75801 9.40148 8.54599 9.40771 8.32278C9.40839 8.20725 9.38623 8.09273 9.34246 7.98581C9.2987 7.87888 9.23419 7.78166 9.1527 7.69976C8.99645 7.55481 8.79534 7.46767 8.58273 7.45279L8.58071 7.45578Z" fill="black"/>
</svg>