<svg width="24" height="24" viewBox="0 0 24 24" fill="none" xmlns="http://www.w3.org/2000/svg">
<path fill-rule="evenodd" clip-rule="evenodd" d="M7.56028 7.87908C8.67111 7.5588 9.59438 7.57577 10.4722 7.85361C11.0659 8.0415 11.6012 8.33742 12.1172 8.65737C12.337 8.79364 12.5618 8.9398 12.7877 9.0867C12.827 9.11224 12.8663 9.13779 12.9056 9.16333C13.1742 9.33776 13.4495 9.51494 13.7433 9.6928C13.7498 9.69674 13.7563 9.70078 13.7627 9.70493C16.0508 11.187 18.8096 10.4381 20.0808 8.71977C19.941 8.75707 19.8015 8.78675 19.6622 8.80901C18.9099 8.92919 18.2147 8.82475 17.5695 8.60369C16.9342 8.38601 16.338 8.05171 15.7785 7.70557C15.5229 7.54742 15.2893 7.39654 15.0598 7.24822C14.7503 7.04828 14.448 6.85301 14.1087 6.6509C14.1006 6.64608 14.0926 6.64111 14.0847 6.63599C12.7031 5.74104 11.0453 5.61187 9.69095 6.1049C8.78334 6.43532 8.02204 7.03869 7.56028 7.87908ZM14.8881 5.36924C13.1063 4.22047 10.9612 4.04617 9.17783 4.6954C7.37707 5.35096 5.92383 6.86013 5.63351 9.04329C5.59725 9.31602 5.71321 9.58671 5.93567 9.74859C6.15812 9.91047 6.45136 9.93756 6.69971 9.81917C8.31415 9.04954 9.24782 9.03942 10.0196 9.2837C10.4348 9.41509 10.8449 9.6334 11.3267 9.93217C11.5316 10.0592 11.741 10.1954 11.9676 10.3427C12.0074 10.3686 12.0478 10.3948 12.0887 10.4214C12.3569 10.5955 12.6455 10.7814 12.957 10.9702C16.6562 13.3569 21.7128 11.305 22.2431 7.27087C22.2824 6.97224 22.1392 6.67909 21.8795 6.52649C21.6198 6.37389 21.2941 6.39144 21.0523 6.57106C20.424 7.0378 19.8899 7.2536 19.4255 7.3278C18.9635 7.4016 18.5193 7.34352 18.0557 7.18467C17.5822 7.02243 17.1002 6.75942 16.5677 6.42997C16.3703 6.30786 16.1511 6.16668 15.9224 6.01937C15.5852 5.80219 15.2273 5.57167 14.8881 5.36924Z" fill="black"/>
<path fill-rule="evenodd" clip-rule="evenodd" d="M3.68333 15.5666C4.79416 15.2463 5.71742 15.2633 6.59528 15.5411C7.18892 15.729 7.72428 16.0249 8.24026 16.3449C8.46001 16.4811 8.6848 16.6273 8.91074 16.7742C8.95001 16.7997 8.98932 16.8253 9.02864 16.8508C9.29728 17.0253 9.57254 17.2024 9.86638 17.3803C9.8729 17.3842 9.87935 17.3883 9.88574 17.3924C12.1739 18.8745 14.9326 18.1256 16.2039 16.4073C16.0641 16.4446 15.9245 16.4743 15.7852 16.4965C15.033 16.6167 14.3378 16.5123 13.6926 16.2912C13.0573 16.0735 12.461 15.7392 11.9015 15.3931C11.6459 15.2349 11.4124 15.084 11.1828 14.9357C10.8733 14.7358 10.5711 14.5405 10.2317 14.3384C10.2236 14.3336 10.2156 14.3286 10.2077 14.3235C8.82615 13.4285 7.1683 13.2994 5.814 13.7924C4.90639 14.1228 4.14508 14.7262 3.68333 15.5666ZM11.0111 13.0567C9.2293 11.908 7.08424 11.7337 5.30087 12.3829C3.50012 13.0385 2.04688 14.5476 1.75656 16.7308C1.72029 17.0035 1.83626 17.2742 2.05871 17.4361C2.28117 17.598 2.57441 17.6251 2.82275 17.5067C4.4372 16.737 5.37086 16.7269 6.14266 16.9712C6.55783 17.1026 6.96794 17.3209 7.44976 17.6197C7.65468 17.7467 7.86404 17.8829 8.09061 18.0302C8.13044 18.0561 8.1708 18.0823 8.21177 18.1089C8.4799 18.283 8.76853 18.4689 9.08008 18.6577C12.7793 21.0444 17.8358 18.9925 18.3662 14.9584C18.4054 14.6597 18.2623 14.3666 18.0026 14.214C17.7429 14.0614 17.4171 14.0789 17.1753 14.2586C16.5471 14.7253 16.013 14.9411 15.5486 15.0153C15.0866 15.0891 14.6424 15.031 14.1788 14.8722C13.7053 14.7099 13.2232 14.4469 12.6907 14.1175C12.4934 13.9954 12.2742 13.8542 12.0455 13.7069C11.7083 13.4897 11.3504 13.2592 11.0111 13.0567Z" fill="black"/>
</svg>