<svg width="24" height="24" viewBox="0 0 24 24" fill="none" xmlns="http://www.w3.org/2000/svg">
<path fill-rule="evenodd" clip-rule="evenodd" d="M3.7402 3.89737C4.72468 2.84117 6.12669 2.25 7.78216 2.25H16.2169C17.8762 2.25 19.2788 2.84084 20.2629 3.89765C21.2413 4.94841 21.75 6.39889 21.75 8.02638V15.9736C21.75 17.6011 21.2413 19.0516 20.2627 20.1024C19.2785 21.1592 17.8756 21.75 16.2159 21.75H7.78216C6.1228 21.75 4.72038 21.1591 3.73657 20.1023C2.75842 19.0515 2.25 17.601 2.25 15.9736V8.02638C2.25 6.39806 2.76117 4.94771 3.7402 3.89737ZM4.83745 4.92012C4.16024 5.64666 3.75 6.70951 3.75 8.02638V15.9736C3.75 17.2914 4.15861 18.3541 4.83451 19.0802C5.50475 19.8003 6.49341 20.25 7.78216 20.25H16.2159C17.5052 20.25 18.4944 19.8002 19.165 19.0801C19.8412 18.354 20.25 17.2913 20.25 15.9736V8.02638C20.25 6.70868 19.8412 5.64597 19.1651 4.91984C18.4946 4.19975 17.5056 3.75 16.2169 3.75H7.78216C6.49828 3.75 5.50921 4.19943 4.83745 4.92012Z" fill="black"/>
<path fill-rule="evenodd" clip-rule="evenodd" d="M10.1385 8.74182C10.5107 8.72216 10.8611 8.7692 11.2047 8.87795C11.5952 9.00153 11.9401 9.19388 12.2551 9.38921C12.3893 9.47245 12.5267 9.56177 12.6615 9.64941C12.6848 9.66457 12.7081 9.67969 12.7312 9.69472C12.8912 9.7986 13.0522 9.90223 13.2234 10.0058C13.2299 10.0098 13.2364 10.0138 13.2428 10.018C14.1863 10.6291 15.2493 10.5311 15.9978 10.0595C15.7365 10.0379 15.4884 9.98009 15.2539 9.89973C14.8419 9.75857 14.4629 9.54458 14.1233 9.33452C13.9585 9.23256 13.8171 9.14108 13.6807 9.05286C13.5024 8.93752 13.3326 8.82773 13.1305 8.70735C13.1224 8.70253 13.1144 8.69756 13.1065 8.69244C12.3626 8.21054 11.4719 8.14295 10.7503 8.40562C10.5252 8.48758 10.3188 8.60025 10.1385 8.74182ZM13.9098 7.42563C12.7656 6.68996 11.3877 6.57727 10.2372 6.99611C9.06925 7.42131 8.11448 8.40817 7.92453 9.83661C7.88826 10.1093 8.00423 10.38 8.22668 10.5419C8.44914 10.7038 8.74238 10.7309 8.99072 10.6125C9.9104 10.1741 10.3867 10.1924 10.7521 10.308C10.9641 10.3751 11.1837 10.4899 11.4646 10.664C11.584 10.738 11.7059 10.8173 11.8413 10.9053C11.8652 10.9209 11.8895 10.9367 11.9143 10.9528C12.0739 11.0564 12.2483 11.1688 12.4372 11.2833C14.8014 12.8051 18.0922 11.5205 18.4423 8.85738C18.4816 8.55875 18.3384 8.2656 18.0787 8.113C17.819 7.9604 17.4932 7.97795 17.2514 8.15757C16.9068 8.41361 16.6323 8.51853 16.4125 8.55365C16.1951 8.58839 15.9804 8.56304 15.7401 8.48071C15.4899 8.39499 15.2251 8.25229 14.9125 8.05891C14.8059 7.99297 14.679 7.91126 14.5436 7.82414C14.3377 7.69166 14.1124 7.54667 13.9098 7.42563Z" fill="black"/>
<path fill-rule="evenodd" clip-rule="evenodd" d="M7.77224 14.0465C8.14449 14.0268 8.49488 14.0739 8.8385 14.1826C9.22895 14.3062 9.57388 14.4986 9.88888 14.6939C10.0231 14.7771 10.1605 14.8665 10.2953 14.9541C10.3186 14.9693 10.3418 14.9844 10.365 14.9994C10.525 15.1033 10.686 15.2069 10.8572 15.3105C10.8637 15.3145 10.8701 15.3185 10.8765 15.3226C11.8201 15.9338 12.8831 15.8358 13.6316 15.3642C13.3703 15.3426 13.1222 15.2848 12.8877 15.2044C12.4757 15.0633 12.0966 14.8493 11.7571 14.6392C11.5923 14.5372 11.4509 14.4458 11.3145 14.3576C11.1362 14.2422 10.9664 14.1324 10.7643 14.012C10.7562 14.0072 10.7482 14.0022 10.7403 13.9971C9.99638 13.5152 9.10565 13.4476 8.38413 13.7103C8.159 13.7923 7.95257 13.9049 7.77224 14.0465ZM11.5436 12.7303C10.3994 11.9946 9.02152 11.882 7.871 12.3008C6.70304 12.726 5.74827 13.7129 5.55832 15.1413C5.52205 15.414 5.63802 15.6847 5.86047 15.8466C6.08293 16.0085 6.37616 16.0356 6.62451 15.9172C7.54419 15.4787 8.02046 15.4971 8.38588 15.6127C8.59785 15.6798 8.81754 15.7945 9.09838 15.9687C9.21776 16.0427 9.33968 16.122 9.47509 16.21C9.49899 16.2256 9.52331 16.2414 9.54812 16.2575C9.70767 16.3611 9.8821 16.4735 10.071 16.588C12.4352 18.1098 15.726 16.8252 16.0761 14.1621C16.1154 13.8634 15.9722 13.5703 15.7125 13.4177C15.4528 13.2651 15.127 13.2826 14.8852 13.4623C14.5406 13.7183 14.2661 13.8232 14.0463 13.8583C13.8289 13.8931 13.6142 13.8677 13.3739 13.7854C13.1237 13.6997 12.8589 13.557 12.5463 13.3636C12.4397 13.2977 12.3127 13.2159 12.1774 13.1288C11.9715 12.9963 11.7462 12.8514 11.5436 12.7303Z" fill="black"/>
</svg>