<svg width="25" height="24" viewBox="0 0 25 24" fill="none" xmlns="http://www.w3.org/2000/svg">
<path opacity="0.4" d="M21.1384 11.6447C22.0428 14.0861 21.1529 17.3164 19.5681 18.9013C17.7518 20.7175 13.8949 21.0198 11.4916 19.8722C9.95682 19.1394 8.3477 17.9915 7.38517 17.2576C6.83486 16.838 6.59715 16.1356 6.74727 15.4601C7.01884 14.238 8.39901 13.6312 9.48308 14.2574L10.6473 14.9298C11.0529 15.1641 11.56 14.8714 11.56 14.403V5.0373C11.56 4.16023 12.271 3.44922 13.1481 3.44922C14.0157 3.44922 14.7227 4.14545 14.736 5.01291L14.7991 9.12148C17.0216 9.33371 20.2397 9.21905 21.1384 11.6447Z" stroke="black" stroke-width="1.5" stroke-linecap="round" stroke-linejoin="round"/>
<path d="M3.81248 7.58449C3.65969 8.37575 3.88967 9.2263 4.5024 9.83904C5.48329 10.8199 7.07362 10.8199 8.05451 9.83904C9.0354 8.85815 9.0354 7.26782 8.05451 6.28693C7.25649 5.48892 6.05509 5.34014 5.10667 5.8406" stroke="black" stroke-width="1.5" stroke-linecap="round" stroke-linejoin="round"/>
<path d="M5.8877 6.63672L4.81021 5.55924L5.86654 4.50291" stroke="black" stroke-width="1.5" stroke-linecap="round" stroke-linejoin="round"/>
</svg>