<svg width="25" height="24" viewBox="0 0 25 24" fill="none" xmlns="http://www.w3.org/2000/svg">
<path opacity="0.4" d="M17.9424 12.4299C18.8218 14.8038 17.9566 17.9448 16.4155 19.4859C14.4492 21.4522 8.95428 21.6016 7.15529 19.3645C6.01367 17.9448 5.12637 16.2219 4.56706 14.6781C4.26709 13.8501 4.70727 12.9572 5.52949 12.6419C6.25733 12.3627 7.08167 12.6182 7.52406 13.26L8.6288 14.8628V6.00512C8.6288 5.15229 9.32015 4.46094 10.173 4.46094C11.0166 4.46094 11.704 5.13792 11.717 5.98141L11.7783 9.97641C13.9394 10.1828 17.0686 10.0713 17.9424 12.4299Z" stroke="black" stroke-width="1.5" stroke-linecap="round" stroke-linejoin="round"/>
<path d="M15.5234 5.08594L14.6895 5.91988L15.5234 6.75389" stroke="black" stroke-width="1.5" stroke-linecap="round" stroke-linejoin="round"/>
<path d="M16.7734 8.00391L17.6074 8.83787L18.4414 8.00391" stroke="black" stroke-width="1.5" stroke-linecap="round" stroke-linejoin="round"/>
<path d="M16.7734 3.83398L17.6074 3L18.4414 3.83398" stroke="black" stroke-width="1.5" stroke-linecap="round" stroke-linejoin="round"/>
<path d="M19.6934 5.08594L20.5273 5.91988L19.6934 6.75389" stroke="black" stroke-width="1.5" stroke-linecap="round" stroke-linejoin="round"/>
<path d="M20.5273 5.91797H14.6895" stroke="black" stroke-width="1.5" stroke-linecap="round" stroke-linejoin="round"/>
<path d="M17.6074 3V8.83784" stroke="black" stroke-width="1.5" stroke-linecap="round" stroke-linejoin="round"/>
</svg>