<svg width="24" height="24" viewBox="0 0 24 24" fill="none" xmlns="http://www.w3.org/2000/svg">
<path d="M12.753 20.909C10.46 21.294 7.77296 20.842 6.61496 19.403C5.47296 17.983 4.58596 16.26 4.02596 14.717C3.72596 13.889 4.16696 12.996 4.98896 12.68C5.71696 12.401 6.54096 12.657 6.98296 13.299L8.08796 14.901V6.044C8.08796 5.191 8.77896 4.5 9.63196 4.5C10.476 4.5 11.163 5.177 11.176 6.02L11.238 10.015C13.399 10.221 16.528 10.11 17.402 12.468C18.281 14.842 17.416 17.983 15.875 19.524" stroke="black" stroke-width="1.5" stroke-linecap="round" stroke-linejoin="round"/>
<path d="M14.9815 5.12891L14.1475 5.96291L14.9815 6.79691" stroke="black" stroke-width="1.5" stroke-linecap="round" stroke-linejoin="round"/>
<path d="M16.2324 8.04394L17.0664 8.87794L17.9004 8.04394" stroke="black" stroke-width="1.5" stroke-linecap="round" stroke-linejoin="round"/>
<path d="M16.2324 3.87403L17.0664 3.04003L17.9004 3.87403" stroke="black" stroke-width="1.5" stroke-linecap="round" stroke-linejoin="round"/>
<path d="M19.1514 5.12891L19.9854 5.96291L19.1514 6.79691" stroke="black" stroke-width="1.5" stroke-linecap="round" stroke-linejoin="round"/>
<path d="M19.9855 5.96094H14.1475" stroke="black" stroke-width="1.5" stroke-linecap="round" stroke-linejoin="round"/>
<path d="M17.0664 3.04297V8.88097" stroke="black" stroke-width="1.5" stroke-linecap="round" stroke-linejoin="round"/>
</svg>