<svg width="24" height="24" viewBox="0 0 24 24" fill="none" xmlns="http://www.w3.org/2000/svg">
<path d="M3.75781 8.35858C4.34849 7.32508 5.94255 5.14497 9.08234 5.32715" stroke="black" stroke-width="1.5" stroke-linecap="round" stroke-linejoin="round"/>
<path d="M6.80664 8.09014C7.21645 7.91411 7.8895 7.86339 8.51973 8.34549" stroke="black" stroke-width="1.5" stroke-linecap="round" stroke-linejoin="round"/>
<path d="M20.2992 13.4768C20.5653 16.1753 18.8153 19.1946 16.8 20.3725C14.4903 21.7224 10.5248 21.0078 8.40683 19.2167C7.05421 18.0729 5.73639 16.4913 4.9606 15.4976C4.51706 14.9295 4.46317 14.1591 4.79289 13.5182C5.38939 12.3587 6.94014 12.1122 7.86683 13.0294L8.86205 14.0145C9.20878 14.3576 9.797 14.1967 9.92076 13.7248L12.3953 4.28942C12.6271 3.40582 13.5312 2.87737 14.4148 3.10911C15.2888 3.33833 15.8172 4.22655 15.6014 5.10399L14.5794 9.25982C16.7624 10.0609 20.0348 10.7956 20.2992 13.4768Z" stroke="black" stroke-width="1.5" stroke-linecap="round" stroke-linejoin="round"/>
</svg>