<svg width="24" height="24" viewBox="0 0 24 24" fill="none" xmlns="http://www.w3.org/2000/svg">
<path d="M5.25862 12.6903C4.35477 15.1301 5.24408 18.3585 6.8279 19.9423C8.84884 21.9632 14.4964 22.1168 16.3454 19.8175C17.5187 18.3585 18.4307 16.5877 19.0055 15.001C19.3138 14.15 18.8614 13.2323 18.0163 12.9082C17.2683 12.6212 16.4211 12.8838 15.9664 13.5435L14.831 15.1908V6.08708C14.831 5.21056 14.1204 4.5 13.2439 4.5C12.3769 4.5 11.6703 5.19579 11.657 6.06271L11.5939 10.1687C9.37283 10.3808 6.15672 10.2662 5.25862 12.6903Z" stroke="black" stroke-width="1.5" stroke-linecap="round" stroke-linejoin="round"/>
<path d="M14.9827 9.5C16.0698 8.86052 16.8047 7.63895 16.8047 6.23711C16.8047 4.17316 15.2117 2.5 13.2468 2.5C11.2818 2.5 9.68883 4.17316 9.68883 6.23711C9.68883 7.61658 10.4004 8.82148 11.4591 9.46894" stroke="black" stroke-width="1.5" stroke-linecap="round" stroke-linejoin="round"/>
</svg>