<svg width="25" height="24" viewBox="0 0 25 24" fill="none" xmlns="http://www.w3.org/2000/svg">
<path fill-rule="evenodd" clip-rule="evenodd" d="M19.5446 7.42422C19.4185 7.58182 19.2399 7.65537 19.0508 7.65537C18.9142 7.65537 18.7776 7.61334 18.6515 7.51878L17.5799 6.64673C17.4328 6.53116 17.3487 6.35255 17.3487 6.16343V4.91315C17.3487 4.56643 17.6324 4.28275 17.9791 4.28275C18.3258 4.28275 18.6095 4.56643 18.6095 4.91315V5.85874L19.45 6.53116C19.7232 6.7518 19.7652 7.15105 19.5446 7.42422ZM18.1788 2.73828C16.3296 2.73828 14.8271 4.24072 14.8271 6.08988C14.8271 7.93904 16.3296 9.44149 18.1788 9.44149C20.0279 9.44149 21.5304 7.93904 21.5304 6.08988C21.5304 4.24072 20.0279 2.73828 18.1788 2.73828Z" fill="black"/>
<path d="M7.95762 8.88851C7.18554 8.31379 6.69184 7.39771 6.67713 6.38394C6.65087 4.65351 7.95263 3.22566 9.5801 3.20045C11.2065 3.17628 12.5514 4.5642 12.5766 6.29464C12.5923 7.32323 12.1122 8.27618 11.3347 8.87085L11.359 10.4698C11.4334 10.4769 11.4769 10.4799 11.5572 10.4868C11.7005 10.4886 11.8451 10.4536 11.9756 10.3722C13.3436 9.50755 14.1778 7.93577 14.1526 6.27047C14.1137 3.67219 12.0513 1.58768 9.55594 1.62551C7.06062 1.66228 5.06227 3.80773 5.10114 6.40706C5.12636 8.10492 6.03308 9.66515 7.46513 10.4794C7.63744 10.5763 7.77252 10.5824 7.95762 10.5572V8.88851Z" fill="black"/>
<path opacity="0.4" fill-rule="evenodd" clip-rule="evenodd" d="M11.3592 10.4708L11.2923 6.15694C11.2782 5.24666 10.5364 4.51562 9.62502 4.51562C8.70394 4.51562 7.95779 5.26178 7.95779 6.18286V15.7468L6.76459 14.0169C6.28731 13.3237 5.39755 13.0472 4.61144 13.3485C3.72383 13.6897 3.24763 14.654 3.57158 15.5481C4.17628 17.2153 5.13407 19.0748 6.36722 20.6081C8.30981 23.0237 14.2423 22.8628 16.3663 20.7388C18.0303 19.0748 18.9643 15.6831 18.0152 13.1196C17.0714 10.5734 13.6927 10.6932 11.3592 10.4708Z" fill="black"/>
</svg>