<svg width="24" height="24" viewBox="0 0 24 24" fill="none" xmlns="http://www.w3.org/2000/svg">
<path fill-rule="evenodd" clip-rule="evenodd" d="M19.0824 13.119C18.182 10.6868 15.0626 10.6868 12.7512 10.4977C12.83 10.4788 12.9067 10.4515 12.9792 10.4073C14.0845 9.73178 14.8662 8.59604 15.1236 7.29326C15.2076 6.86565 14.9303 6.4517 14.5027 6.36765C14.075 6.2836 13.6621 6.56097 13.577 6.98752C13.4258 7.75449 12.9971 8.41849 12.4024 8.87341L12.3604 6.15542C12.3457 5.24452 11.604 4.51433 10.6931 4.51433C9.77165 4.51433 9.0257 5.26028 9.0257 6.18169V8.89758C8.23562 8.31447 7.73972 7.37311 7.73972 6.33928C7.73972 5.94109 7.80906 5.55236 7.94565 5.18463C8.09694 4.77699 7.88996 4.32311 7.48127 4.17182C7.07362 4.02053 6.61975 4.22751 6.46846 4.63515C6.26568 5.17938 6.16377 5.75198 6.16377 6.33928C6.16377 8.03606 7.0463 9.60991 8.46676 10.4462C8.59179 10.5198 8.72942 10.5555 8.866 10.5555C8.92169 10.5555 8.97107 10.525 9.0257 10.5135V15.7456L7.83218 14.0152C7.35519 13.3218 6.46425 13.0465 5.67838 13.3481C4.79059 13.6885 4.31571 14.653 4.6393 15.547C5.24342 17.2133 6.20159 19.074 7.43399 20.6069C9.37661 23.0234 15.3106 22.8616 17.4339 20.7382C19.0981 19.074 20.0321 15.6826 19.0824 13.119Z" fill="black"/>
<path fill-rule="evenodd" clip-rule="evenodd" d="M9.38165 3.5256C10.6529 2.85424 12.3056 3.30496 13.1177 4.55627C13.269 4.78951 13.5212 4.91559 13.7796 4.91559C13.9267 4.91559 14.0748 4.87461 14.2072 4.78846C14.5728 4.55207 14.6769 4.06352 14.4394 3.69895C13.5968 2.40037 12.1953 1.625 10.6897 1.625C9.98157 1.625 9.27554 1.79941 8.64726 2.13141C8.26168 2.33418 8.11459 2.81117 8.31736 3.1957C8.52013 3.58128 8.99712 3.72732 9.38165 3.5256Z" fill="black"/>
</svg>