<svg width="25" height="24" viewBox="0 0 25 24" fill="none" xmlns="http://www.w3.org/2000/svg">
<path d="M19.2414 12.6903C20.1452 15.1301 19.2559 18.3585 17.6721 19.9423C15.6512 21.9632 10.0036 22.1168 8.15461 19.8175C6.98129 18.3585 6.06933 16.5877 5.49449 15.001C5.18618 14.15 5.63859 13.2323 6.48366 12.9082C7.23171 12.6212 8.07895 12.8838 8.53363 13.5435L9.66905 15.1908V6.08708C9.66905 5.21056 10.3796 4.5 11.2561 4.5C12.1231 4.5 12.8297 5.19579 12.843 6.06271L12.9061 10.1687C15.1272 10.3808 18.3433 10.2662 19.2414 12.6903Z" stroke="black" stroke-width="1.5" stroke-linecap="round" stroke-linejoin="round"/>
<path opacity="0.4" d="M9.51733 9.50185C8.43016 8.86237 7.69531 7.6408 7.69531 6.23896C7.69531 5.75911 7.78141 5.30039 7.93827 4.87891" stroke="black" stroke-width="1.5" stroke-linecap="round" stroke-linejoin="round"/>
<path opacity="0.4" d="M14.7371 7C14.5291 8.05326 13.899 8.94419 13.041 9.46894" stroke="black" stroke-width="1.5" stroke-linecap="round" stroke-linejoin="round"/>
<path opacity="0.4" d="M9.6582 2.89545C10.1379 2.64243 10.6795 2.5 11.2528 2.5C12.4746 2.5 13.5526 3.14686 14.1932 4.13231" stroke="black" stroke-width="1.5" stroke-linecap="round" stroke-linejoin="round"/>
</svg>