<svg width="25" height="24" viewBox="0 0 25 24" fill="none" xmlns="http://www.w3.org/2000/svg">
<path fill-rule="evenodd" clip-rule="evenodd" d="M11.0061 5.25C10.5438 5.25 10.1691 5.62477 10.1691 6.08708V15.1908C10.1691 15.5192 9.95546 15.8093 9.64194 15.9069C9.32842 16.0045 8.98787 15.8868 8.80153 15.6164L7.66611 13.9691C7.40797 13.5946 6.92695 13.4455 6.50225 13.6084C6.01493 13.7953 5.78913 14.3025 5.94964 14.7455C6.50197 16.27 7.37694 17.9645 8.48908 19.3475C9.19806 20.2292 10.78 20.7534 12.5974 20.75C14.4044 20.7465 16.0837 20.22 16.8918 19.412C17.5641 18.7396 18.1266 17.6719 18.4094 16.466C18.6916 15.263 18.6772 14.0013 18.2881 12.9509C17.9625 12.072 17.2195 11.6002 16.1366 11.3272C15.3183 11.121 14.4386 11.0572 13.5579 10.9933C13.2326 10.9697 12.9073 10.9461 12.5848 10.9153C12.2043 10.8789 11.912 10.5623 11.9062 10.1802L11.8431 6.07422C11.8361 5.61698 11.4634 5.25 11.0061 5.25ZM8.66905 6.08708C8.66905 4.79635 9.7154 3.75 11.0061 3.75C12.2829 3.75 13.3233 4.7746 13.3429 6.05119L13.3955 9.47612C13.447 9.47988 13.4991 9.48364 13.5518 9.48744C14.4651 9.55339 15.5456 9.63142 16.5031 9.87273C17.8081 10.2016 19.1222 10.8845 19.6947 12.4298L19.6947 12.4298C20.2094 13.8192 20.2022 15.3915 19.8698 16.8086C19.538 18.2228 18.8639 19.5612 17.9524 20.4726C16.7395 21.6855 14.5846 22.2462 12.6003 22.25C10.6265 22.2537 8.46014 21.7052 7.32015 20.2875C6.08564 18.7524 5.13671 16.9053 4.53934 15.2565C4.08324 13.9975 4.76226 12.6693 5.96507 12.2079C6.91967 11.8418 7.98706 12.1004 8.66905 12.8294V6.08708Z" fill="black"/>
<path fill-rule="evenodd" clip-rule="evenodd" d="M11.0032 3.25C9.48676 3.25 8.19531 4.55222 8.19531 6.23711C8.19531 7.37474 8.79085 8.3496 9.64758 8.85354C10.0046 9.06355 10.1238 9.52323 9.91378 9.88025C9.70377 10.2373 9.2441 10.3565 8.88707 10.1465C7.56948 9.37143 6.69531 7.90317 6.69531 6.23711C6.69531 3.7941 8.58974 1.75 11.0032 1.75C13.4167 1.75 15.3112 3.7941 15.3112 6.23711C15.3112 7.87669 14.4646 9.32448 13.1822 10.1088C12.8289 10.3249 12.3672 10.2136 12.1511 9.86025C11.935 9.50688 12.0463 9.04523 12.3996 8.82912C13.2345 8.31849 13.8112 7.35647 13.8112 6.23711C13.8112 4.55222 12.5197 3.25 11.0032 3.25Z" fill="black"/>
</svg>