<svg width="24" height="24" viewBox="0 0 24 24" fill="none" xmlns="http://www.w3.org/2000/svg">
<path d="M3.71582 8.31126C4.30682 7.27826 5.90082 5.09826 9.04082 5.28026" stroke="black" stroke-width="1.5" stroke-linecap="round" stroke-linejoin="round"/>
<path d="M6.76465 8.04403C7.17465 7.86803 7.84765 7.81703 8.47765 8.30003" stroke="black" stroke-width="1.5" stroke-linecap="round" stroke-linejoin="round"/>
<path d="M13.0204 20.9904C12.7434 20.9644 12.4644 20.9264 12.1884 20.8754C10.7484 20.6094 9.35536 20.0074 8.36436 19.1704C7.01236 18.0264 5.69436 16.4444 4.91836 15.4514C4.47536 14.8834 4.42136 14.1124 4.75136 13.4714C5.34736 12.3124 6.89836 12.0654 7.82436 12.9824L8.82036 13.9674C9.16636 14.3114 9.75536 14.1504 9.87836 13.6784L12.3534 4.2424C12.5854 3.3594 13.4894 2.8304 14.3724 3.0624C15.2474 3.2914 15.7754 4.1804 15.5594 5.0574L14.5374 9.2134C16.7204 10.0144 19.9924 10.7494 20.2574 13.4304C20.5234 16.1284 18.7734 19.1484 16.7584 20.3254" stroke="black" stroke-width="1.5" stroke-linecap="round" stroke-linejoin="round"/>
</svg>