<svg width="25" height="24" viewBox="0 0 25 24" fill="none" xmlns="http://www.w3.org/2000/svg">
<path d="M15.475 8.88851C16.2471 8.31379 16.7408 7.39771 16.7555 6.38394C16.7818 4.65351 15.48 3.22566 13.8525 3.20045C12.2261 3.17628 10.8812 4.5642 10.856 6.29464C10.8403 7.32323 11.3204 8.27618 12.0979 8.87085L12.0736 10.4698C11.9992 10.4769 11.9557 10.4799 11.8754 10.4868C11.7322 10.4886 11.5875 10.4536 11.457 10.3722C10.0891 9.50755 9.25483 7.93577 9.28004 6.27047C9.31892 3.67219 11.3814 1.58768 13.8767 1.62551C16.372 1.66228 18.3703 3.80773 18.3315 6.40706C18.3063 8.10492 17.3995 9.66515 15.9675 10.4794C15.7952 10.5763 15.6601 10.5824 15.475 10.5572V8.88851Z" fill="black"/>
<path opacity="0.4" fill-rule="evenodd" clip-rule="evenodd" d="M12.0734 10.4708L12.1404 6.15694C12.1544 5.24666 12.8962 4.51562 13.8076 4.51562C14.7287 4.51562 15.4748 5.26178 15.4748 6.18286V15.7468L16.668 14.0169C17.1453 13.3237 18.0351 13.0472 18.8212 13.3485C19.7088 13.6897 20.185 14.654 19.861 15.5481C19.2563 17.2153 18.2985 19.0748 17.0654 20.6081C15.1228 23.0237 9.19031 22.8628 7.06631 20.7388C5.40231 19.0748 4.46827 15.6831 5.41743 13.1196C6.36119 10.5734 9.73993 10.6932 12.0734 10.4708Z" fill="black"/>
</svg>