<svg width="25" height="24" viewBox="0 0 25 24" fill="none" xmlns="http://www.w3.org/2000/svg">
<path fill-rule="evenodd" clip-rule="evenodd" d="M14.4737 3.83485C13.9908 3.70819 13.4966 3.99702 13.3699 4.47996L10.8954 13.9154C10.6251 14.9458 9.34072 15.2971 8.58361 14.5478L7.58839 13.5627C7.0218 13.0019 6.07367 13.1527 5.70897 13.8616C5.50565 14.2568 5.54708 14.7112 5.80093 15.0364C6.56927 16.0205 7.84867 17.5521 9.14028 18.6443C10.073 19.4331 11.4565 20.0138 12.8929 20.2312C14.3365 20.4497 15.7141 20.2843 16.6707 19.7252C17.5324 19.2216 18.3854 18.289 18.9915 17.1442C19.5962 16.002 19.9173 14.72 19.802 13.5507C19.7047 12.5637 19.0699 11.8842 18.0461 11.3205C17.2732 10.8949 16.3993 10.5966 15.5275 10.299C15.2064 10.1894 14.8856 10.0799 14.5702 9.96418C14.2114 9.83252 14.009 9.45212 14.1003 9.08099L15.1222 4.92517C15.2402 4.4456 14.9514 3.96013 14.4737 3.83485ZM11.919 4.09943C12.2558 2.81516 13.57 2.0471 14.8542 2.38392C16.1246 2.71708 16.8925 4.00806 16.5788 5.28337L15.7195 8.77803C15.78 8.79874 15.8414 8.81968 15.9036 8.84088C16.8064 9.14869 17.8709 9.51162 18.7697 10.0065C19.994 10.6807 21.1277 11.7092 21.2948 13.4035C21.4456 14.9326 21.0248 16.5095 20.3171 17.846C19.6109 19.18 18.5812 20.346 17.4276 21.0203C16.0744 21.8111 14.3144 21.9634 12.6684 21.7143C11.0152 21.4641 9.35695 20.792 8.1717 19.7897C6.75807 18.5942 5.40184 16.9627 4.6186 15.9595C3.98536 15.1484 3.91901 14.0619 4.37514 13.1753C5.20342 11.5654 7.35679 11.223 8.64359 12.4966L9.49558 13.3399L11.919 4.09943ZM9.63881 13.4817L9.63861 13.4815L9.63881 13.4817Z" fill="black"/>
<path fill-rule="evenodd" clip-rule="evenodd" d="M9.28902 6.07604C6.58663 5.91924 5.20543 7.77497 4.65909 8.73089C4.45356 9.09051 3.99541 9.21542 3.63578 9.00988C3.27616 8.80435 3.15125 8.3462 3.35679 7.98657C3.99181 6.87549 5.79872 4.371 9.37592 4.57856C9.78943 4.60256 10.1052 4.95723 10.0812 5.37075C10.0572 5.78427 9.70254 6.10004 9.28902 6.07604Z" fill="black"/>
<path fill-rule="evenodd" clip-rule="evenodd" d="M8.31425 8.94094C7.93318 8.64944 7.55547 8.69196 7.35285 8.779C6.97226 8.94248 6.53121 8.76649 6.36772 8.3859C6.20424 8.00532 6.38023 7.56426 6.76082 7.40078C7.37781 7.13574 8.34619 7.07683 9.22561 7.74954C9.5546 8.0012 9.61729 8.47192 9.36562 8.80092C9.11396 9.12991 8.64324 9.1926 8.31425 8.94094Z" fill="black"/>
</svg>