<svg width="24" height="24" viewBox="0 0 24 24" fill="none" xmlns="http://www.w3.org/2000/svg">
<path d="M12.0879 21.459C9.91392 21.656 7.57592 21.147 6.50692 19.818C5.33392 18.359 4.42192 16.588 3.84692 15.001C3.53892 14.15 3.99092 13.232 4.83592 12.908C5.58392 12.621 6.43092 12.884 6.88592 13.544L8.02192 15.191V6.087C8.02192 5.211 8.73192 4.5 9.60892 4.5C10.4759 4.5 11.1819 5.196 11.1959 6.063L11.2589 10.169C13.4799 10.381 16.6959 10.266 17.5939 12.69C18.4979 15.13 17.6079 18.359 16.0249 19.942" stroke="black" stroke-width="1.5" stroke-linecap="round" stroke-linejoin="round"/>
<path d="M6.28383 7.575C6.13183 7.16 6.04883 6.708 6.04883 6.237C6.04883 4.173 7.64183 2.5 9.60683 2.5C11.5718 2.5 13.1648 4.173 13.1648 6.237C13.1648 7.616 12.4528 8.821 11.3938 9.469" stroke="black" stroke-width="1.5" stroke-linecap="round" stroke-linejoin="round"/>
<path d="M15.532 4.845C15.352 5.191 15.25 5.583 15.25 6C15.25 7.381 16.369 8.5 17.75 8.5C19.131 8.5 20.25 7.381 20.25 6C20.25 4.619 19.131 3.5 17.75 3.5" stroke="black" stroke-width="1.5" stroke-linecap="round" stroke-linejoin="round"/>
<path d="M17.7493 5.25781V5.99981L18.3893 6.51681" stroke="black" stroke-width="1.5" stroke-linecap="round" stroke-linejoin="round"/>
</svg>