<svg width="24" height="24" viewBox="0 0 24 24" fill="none" xmlns="http://www.w3.org/2000/svg">
<path fill-rule="evenodd" clip-rule="evenodd" d="M7.45794 6.18117V8.88872C6.6857 8.314 6.19189 7.39783 6.17718 6.38394C6.15092 4.65351 7.45268 3.22566 9.08015 3.20045C10.7066 3.17628 12.0514 4.5642 12.0766 6.29464C12.0924 7.32323 11.6122 8.27618 10.8348 8.87085L10.7927 6.15595C10.778 5.24503 10.0363 4.51377 9.12533 4.51377C8.2039 4.51377 7.45794 5.26079 7.45794 6.18117ZM10.9272 10.4752C11.1111 10.5057 11.3054 10.4784 11.4757 10.3722C12.8436 9.50755 13.6778 7.93577 13.6526 6.27047C13.6137 3.67219 11.5513 1.58768 9.05599 1.62551C6.56067 1.66228 4.56232 3.80773 4.60119 6.40706C4.62641 8.10492 5.53313 9.66515 6.96518 10.4794C7.09231 10.5509 7.23099 10.5845 7.36548 10.5824C7.39805 10.5813 7.42642 10.5614 7.45794 10.5572V15.7464L6.26439 14.0159C5.78634 13.3225 4.89643 13.0462 4.11053 13.3477C3.22273 13.6881 2.74783 14.6526 3.07143 15.5467C3.67556 17.2141 4.63376 19.0749 5.86619 20.6078C7.80886 23.0232 13.743 22.8614 15.8664 20.7381C17.5296 19.0749 18.4646 15.6823 17.5148 13.1187C16.5808 10.596 13.2586 10.6906 10.9272 10.4752Z" fill="black"/>
<path fill-rule="evenodd" clip-rule="evenodd" d="M19.0447 7.42419C18.9186 7.58179 18.74 7.65533 18.5509 7.65533C18.4143 7.65533 18.2777 7.61331 18.1516 7.51875L17.08 6.6467C16.9329 6.53113 16.8488 6.35252 16.8488 6.1634V4.91311C16.8488 4.5664 17.1325 4.28272 17.4792 4.28272C17.8259 4.28272 18.1096 4.5664 18.1096 4.91311V5.85871L18.9501 6.53113C19.2233 6.75177 19.2653 7.15102 19.0447 7.42419ZM17.6788 2.73825C15.8297 2.73825 14.3272 4.24069 14.3272 6.08985C14.3272 7.93901 15.8297 9.44145 17.6788 9.44145C19.528 9.44145 21.0304 7.93901 21.0304 6.08985C21.0304 4.24069 19.528 2.73825 17.6788 2.73825Z" fill="black"/>
</svg>