<svg width="25" height="24" viewBox="0 0 25 24" fill="none" xmlns="http://www.w3.org/2000/svg">
<path d="M18.0939 12.6903C18.9978 15.1301 18.1085 18.3585 16.5246 19.9423C14.5037 21.9632 8.85612 22.1168 7.00715 19.8175C5.83382 18.3585 4.92187 16.5877 4.34703 15.001C4.03872 14.15 4.49113 13.2323 5.33619 12.9082C6.08425 12.6212 6.93149 12.8838 7.38617 13.5435L8.52159 15.1908V6.08708C8.52159 5.21056 9.23215 4.5 10.1087 4.5C10.9757 4.5 11.6822 5.19579 11.6956 6.06271L11.7586 10.1687C13.9797 10.3808 17.1958 10.2662 18.0939 12.6903Z" stroke="black" stroke-width="1.5" stroke-linecap="round" stroke-linejoin="round"/>
<path opacity="0.4" d="M8.37084 9.5C7.28368 8.86052 6.54883 7.63895 6.54883 6.23711C6.54883 4.17316 8.14177 2.5 10.1068 2.5C12.0717 2.5 13.6647 4.17316 13.6647 6.23711C13.6647 7.61658 12.9531 8.82148 11.8944 9.46894" stroke="black" stroke-width="1.5" stroke-linecap="round" stroke-linejoin="round"/>
<path opacity="0.4" d="M18.25 8.5C19.6307 8.5 20.75 7.38071 20.75 6C20.75 4.61929 19.6307 3.5 18.25 3.5C16.8693 3.5 15.75 4.61929 15.75 6C15.75 7.38071 16.8693 8.5 18.25 8.5Z" stroke="black" stroke-width="1.5" stroke-linecap="round" stroke-linejoin="round"/>
<path opacity="0.4" d="M18.25 5.25781V5.99947L18.8903 6.51667" stroke="black" stroke-width="1.5" stroke-linecap="round" stroke-linejoin="round"/>
</svg>