<svg width="25" height="24" viewBox="0 0 25 24" fill="none" xmlns="http://www.w3.org/2000/svg">
<path fill-rule="evenodd" clip-rule="evenodd" d="M13.4939 5.25C13.9562 5.25 14.3309 5.62477 14.3309 6.08708V15.1908C14.3309 15.5192 14.5445 15.8093 14.8581 15.9069C15.1716 16.0045 15.5121 15.8868 15.6985 15.6164L16.8339 13.9691C17.092 13.5946 17.573 13.4455 17.9977 13.6084C18.4851 13.7953 18.7109 14.3025 18.5504 14.7455C17.998 16.27 17.1231 17.9645 16.0109 19.3475C15.3019 20.2292 13.72 20.7534 11.9026 20.75C10.0956 20.7465 8.41627 20.22 7.60823 19.412C6.93585 18.7396 6.37345 17.6719 6.09056 16.466C5.80835 15.263 5.82277 14.0013 6.2119 12.9509C6.53751 12.072 7.28052 11.6002 8.36342 11.3272C9.18167 11.121 10.0614 11.0572 10.9421 10.9933C11.2674 10.9697 11.5927 10.9461 11.9152 10.9153C12.2957 10.8789 12.588 10.5623 12.5938 10.1802L12.6569 6.07422C12.6639 5.61698 13.0366 5.25 13.4939 5.25ZM15.8309 6.08708C15.8309 4.79635 14.7846 3.75 13.4939 3.75C12.2171 3.75 11.1767 4.7746 11.1571 6.05119L11.1045 9.47612C11.053 9.47988 11.0009 9.48364 10.9482 9.48744C10.0349 9.55339 8.9544 9.63142 7.99687 9.87273C6.69191 10.2016 5.37782 10.8845 4.80533 12.4298L4.80532 12.4298C4.29061 13.8192 4.29776 15.3915 4.6302 16.8086C4.96196 18.2228 5.63612 19.5612 6.54757 20.4726C7.76046 21.6855 9.9154 22.2462 11.8997 22.25C13.8735 22.2537 16.0399 21.7052 17.1798 20.2875C18.4144 18.7524 19.3633 16.9053 19.9607 15.2565C20.4168 13.9975 19.7377 12.6693 18.5349 12.2079C17.5803 11.8418 16.5129 12.1004 15.8309 12.8294V6.08708Z" fill="black"/>
<path fill-rule="evenodd" clip-rule="evenodd" d="M13.4968 3.25C15.0132 3.25 16.3047 4.55222 16.3047 6.23711C16.3047 7.37474 15.7092 8.3496 14.8524 8.85354C14.4954 9.06355 14.3762 9.52323 14.5862 9.88025C14.7962 10.2373 15.2559 10.3565 15.6129 10.1465C16.9305 9.37143 17.8047 7.90317 17.8047 6.23711C17.8047 3.7941 15.9103 1.75 13.4968 1.75C11.0833 1.75 9.18883 3.7941 9.18883 6.23711C9.18883 7.87669 10.0354 9.32448 11.3178 10.1088C11.6711 10.3249 12.1328 10.2136 12.3489 9.86025C12.565 9.50688 12.4537 9.04523 12.1004 8.82912C11.2655 8.31849 10.6888 7.35647 10.6888 6.23711C10.6888 4.55222 11.9803 3.25 13.4968 3.25Z" fill="black"/>
</svg>