<svg width="24" height="24" viewBox="0 0 24 24" fill="none" xmlns="http://www.w3.org/2000/svg">
<path fill-rule="evenodd" clip-rule="evenodd" d="M21.3986 11.6251C20.4481 9.05737 17.0421 9.17909 14.6892 8.95365L14.6225 4.60559C14.6087 3.68687 13.8604 2.9502 12.9417 2.9502C12.0134 2.9502 11.2609 3.70274 11.2609 4.63099V14.5443C11.2609 15.0397 10.7242 15.3498 10.2945 15.1021L9.0625 14.3898C7.91516 13.7272 6.45451 14.3697 6.16662 15.6631C6.00785 16.3786 6.25976 17.1216 6.8419 17.5661C7.86118 18.342 9.5642 19.5571 11.1889 20.3329C13.7323 21.548 17.8147 21.2283 19.7368 19.3052C21.4145 17.6275 22.3565 14.2088 21.3986 11.6251Z" fill="black"/>
<path fill-rule="evenodd" clip-rule="evenodd" d="M8.11203 5.3925C7.51296 4.79448 6.74241 4.46319 5.94753 4.39862C6.08407 4.10544 6.03855 3.74769 5.79617 3.50425C5.48605 3.19412 4.98329 3.19412 4.67317 3.50425L3.55546 4.62195C3.24534 4.93208 3.24534 5.43483 3.5544 5.74496L4.69434 6.88595C4.84993 7.04154 5.05315 7.11881 5.25637 7.11881C5.45959 7.11881 5.66281 7.04154 5.8184 6.88701C6.05972 6.64463 6.10735 6.28793 5.97187 5.99475C6.34656 6.05614 6.70431 6.22972 6.98903 6.5155C7.71618 7.24264 7.71618 8.42598 6.99009 9.15206C6.26294 9.87921 5.07961 9.88027 4.35246 9.15312C3.91427 8.71387 3.72269 8.08728 3.84018 7.47656C3.92274 7.04577 3.64014 6.62981 3.20935 6.54725C2.77963 6.46575 2.3626 6.74624 2.28005 7.17808C2.06412 8.30531 2.4187 9.46324 3.22946 10.2751C3.90157 10.9482 4.78642 11.2848 5.67022 11.2848C6.55507 11.2848 7.43992 10.9482 8.11309 10.2751C9.4573 8.92873 9.4573 6.73883 8.11203 5.3925Z" fill="black"/>
</svg>