<svg width="24" height="24" viewBox="0 0 24 24" fill="none" xmlns="http://www.w3.org/2000/svg">
<path d="M18.7414 12.6903C19.6452 15.1301 18.7559 18.3585 17.1721 19.9423C15.1512 21.9632 9.50358 22.1168 7.65461 19.8175C6.48129 18.3585 5.56933 16.5877 4.99449 15.001C4.68618 14.15 5.13859 13.2323 5.98366 12.9082C6.73171 12.6212 7.57895 12.8838 8.03363 13.5435L9.16905 15.1908V6.08708C9.16905 5.21056 9.87961 4.5 10.7561 4.5C11.6231 4.5 12.3297 5.19579 12.343 6.06271L12.4061 10.1687C14.6272 10.3808 17.8433 10.2662 18.7414 12.6903Z" stroke="black" stroke-width="1.5" stroke-linecap="round" stroke-linejoin="round"/>
<path d="M9.01733 9.5C7.93016 8.86052 7.19531 7.63895 7.19531 6.23711C7.19531 4.17316 8.78825 2.5 10.7532 2.5C12.7182 2.5 14.3112 4.17316 14.3112 6.23711C14.3112 7.61658 13.5996 8.82148 12.5409 9.46894" stroke="black" stroke-width="1.5" stroke-linecap="round" stroke-linejoin="round"/>
</svg>