<svg width="24" height="24" viewBox="0 0 24 24" fill="none" xmlns="http://www.w3.org/2000/svg">
<path d="M13.9154 21.373C11.5694 21.754 8.83538 21.287 7.65438 19.817C6.48138 18.358 5.56938 16.587 4.99438 15.001C4.68638 14.15 5.13838 13.232 5.98338 12.908C6.73138 12.621 7.57938 12.884 8.03338 13.543L9.16938 15.191V6.087C9.16938 5.21 9.87938 4.5 10.7564 4.5C11.6234 4.5 12.3294 5.196 12.3434 6.062L12.4064 10.168C14.6274 10.381 17.8434 10.266 18.7414 12.69C19.6454 15.13 18.7564 18.358 17.1724 19.942" stroke="black" stroke-width="1.5" stroke-linecap="round" stroke-linejoin="round"/>
<path d="M9.01634 9.5C7.92934 8.861 7.19434 7.639 7.19434 6.237C7.19434 4.173 8.78734 2.5 10.7523 2.5C12.7173 2.5 14.3103 4.173 14.3103 6.237C14.3103 6.538 14.2763 6.83 14.2123 7.11" stroke="black" stroke-width="1.5" stroke-linecap="round" stroke-linejoin="round"/>
</svg>