<svg width="25" height="24" viewBox="0 0 25 24" fill="none" xmlns="http://www.w3.org/2000/svg">
<path fill-rule="evenodd" clip-rule="evenodd" d="M12.2514 12.0176C12.1015 12.0176 11.9799 12.1402 11.9799 12.29C11.9799 12.4409 12.1025 12.5625 12.2523 12.5625C12.4022 12.5615 12.5248 12.4399 12.5248 12.29C12.5248 12.1392 12.4012 12.0176 12.2514 12.0176Z" stroke="black" stroke-width="1.5" stroke-linecap="round" stroke-linejoin="round"/>
<path fill-rule="evenodd" clip-rule="evenodd" d="M7.69092 12.2885C7.69092 14.8069 9.73249 16.8485 12.2519 16.8485C14.7703 16.8485 16.8118 14.8069 16.8118 12.2885C16.8118 9.77009 14.7703 7.72852 12.2519 7.72852C9.73249 7.72852 7.69092 9.77009 7.69092 12.2885Z" stroke="black" stroke-width="1.5" stroke-linecap="round" stroke-linejoin="round"/>
<path d="M17.1873 3L17.9347 5.46488L15.4834 6.20833" stroke="black" stroke-width="1.5" stroke-linecap="round" stroke-linejoin="round"/>
<path d="M17.7013 5.49972C16.2086 4.29995 14.3122 3.58203 12.248 3.58203C7.43713 3.58203 3.53711 7.48205 3.53711 12.293C3.53711 17.1039 7.43713 21.0039 12.248 21.0039C17.059 21.0039 20.959 17.1039 20.959 12.293C20.959 11.7393 20.9073 11.1976 20.8086 10.6726" stroke="black" stroke-width="1.5" stroke-linecap="round" stroke-linejoin="round"/>
</svg>