<svg width="24" height="24" viewBox="0 0 24 24" fill="none" xmlns="http://www.w3.org/2000/svg">
<path opacity="0.4" d="M20.423 9.93307C20.824 9.85607 21.222 10.1261 21.298 10.5331C21.406 11.1111 21.461 11.7021 21.461 12.2911C21.461 17.5081 17.216 21.7521 12 21.7521C6.783 21.7521 2.539 17.5081 2.539 12.2911C2.539 7.07407 6.783 2.83007 12 2.83007C13.299 2.83007 14.581 3.10507 15.761 3.61607L16.277 2.64607C16.411 2.39307 16.675 2.24607 16.964 2.24807C17.25 2.25807 17.506 2.42907 17.623 2.69107L18.867 5.46407C18.963 5.67807 18.953 5.92507 18.84 6.13107C18.728 6.33707 18.525 6.47807 18.292 6.51207L15.344 6.94807C15.307 6.95307 15.271 6.95607 15.235 6.95607C14.993 6.95607 14.763 6.84007 14.622 6.63807C14.459 6.40707 14.44 6.10407 14.572 5.85407L15.057 4.94207C14.1 4.54207 13.07 4.33007 12 4.33007C7.61 4.33007 4.039 7.90107 4.039 12.2911C4.039 16.6801 7.61 20.2521 12 20.2521C16.389 20.2521 19.961 16.6801 19.961 12.2911C19.961 11.7951 19.914 11.2961 19.823 10.8081C19.747 10.4011 20.016 10.0101 20.423 9.93307Z" fill="black"/>
<path fill-rule="evenodd" clip-rule="evenodd" d="M6.94165 12.2875C6.94165 9.49754 9.21165 7.22754 12.0016 7.22754C14.7917 7.22754 17.0617 9.49754 17.0617 12.2875C17.0617 15.0775 14.7917 17.3475 12.0016 17.3475C9.21165 17.3475 6.94165 15.0775 6.94165 12.2875ZM10.7317 12.2875C10.7317 12.9875 11.3017 13.5575 12.0016 13.5575C12.7017 13.5575 13.2717 12.9875 13.2717 12.2875C13.2717 11.5875 12.7017 11.0175 12.0016 11.0175C11.3017 11.0175 10.7317 11.5875 10.7317 12.2875Z" fill="black"/>
</svg>