<svg width="25" height="24" viewBox="0 0 25 24" fill="none" xmlns="http://www.w3.org/2000/svg">
<path opacity="0.4" d="M12.1 14.2298C13.674 14.2298 14.95 12.9538 14.95 11.3798C14.95 9.80577 13.674 8.52979 12.1 8.52979C10.526 8.52979 9.25 9.80577 9.25 11.3798C9.25 12.9538 10.526 14.2298 12.1 14.2298Z" stroke="black" stroke-width="1.5" stroke-miterlimit="10" stroke-linecap="round" stroke-linejoin="round"/>
<path d="M3.25 9.54C4.01 6.16 6.66 3.51 10.04 2.75" stroke="black" stroke-width="1.5" stroke-miterlimit="10" stroke-linecap="round" stroke-linejoin="round"/>
<path d="M14 2.75C17.37 3.51 20.03 6.16 20.79 9.54" stroke="black" stroke-width="1.5" stroke-miterlimit="10" stroke-linecap="round" stroke-linejoin="round"/>
<path d="M10.04 20.29C6.66 19.53 4.01 16.87 3.25 13.5" stroke="black" stroke-width="1.5" stroke-miterlimit="10" stroke-linecap="round" stroke-linejoin="round"/>
<path d="M20.79 13.5C20.03 16.87 17.37 19.53 14 20.29" stroke="black" stroke-width="1.5" stroke-miterlimit="10" stroke-linecap="round" stroke-linejoin="round"/>
<path opacity="0.4" d="M18.4902 17.9702L22.1502 21.6202" stroke="black" stroke-width="1.5" stroke-miterlimit="10" stroke-linecap="round" stroke-linejoin="round"/>
</svg>