<svg width="25" height="24" viewBox="0 0 25 24" fill="none" xmlns="http://www.w3.org/2000/svg">
<path fill-rule="evenodd" clip-rule="evenodd" d="M11.2295 12.292C11.2295 11.7314 11.6834 11.2695 12.251 11.2695C12.2512 11.2695 12.2513 11.2695 12.2515 11.2695C12.2516 11.2695 12.2518 11.2695 12.252 11.2695C12.8143 11.2695 13.2744 11.7252 13.2744 12.292C13.2744 12.8605 12.8127 13.3108 12.2568 13.3145L12.252 13.3145C11.6896 13.3145 11.2295 12.8588 11.2295 12.292ZM12.251 12.7695C12.2512 12.7695 12.2513 12.7695 12.2515 12.7695C12.2516 12.7695 12.2518 12.7695 12.252 12.7695C12.2518 12.7695 12.2517 12.7695 12.2515 12.7695C12.2517 12.7695 12.2518 12.7695 12.252 12.7695M12.251 12.7695C12.2513 12.7695 12.2516 12.7695 12.252 12.7695L12.251 12.7695Z" fill="black"/>
<path fill-rule="evenodd" clip-rule="evenodd" d="M6.94141 12.2904C6.94141 9.35773 9.31887 6.98047 12.2524 6.98047C15.185 6.98047 17.5623 9.35783 17.5623 12.2904C17.5623 15.2231 15.185 17.6004 12.2524 17.6004C9.31887 17.6004 6.94141 15.2232 6.94141 12.2904ZM12.2524 8.48047C10.1471 8.48047 8.44141 10.1864 8.44141 12.2904C8.44141 14.3945 10.1471 16.1004 12.2524 16.1004C14.3565 16.1004 16.0623 14.3946 16.0623 12.2904C16.0623 10.1863 14.3565 8.48047 12.2524 8.48047Z" fill="black"/>
<path fill-rule="evenodd" clip-rule="evenodd" d="M16.9699 2.28246C17.3663 2.16228 17.7851 2.38619 17.9052 2.78258L18.6526 5.24746C18.7728 5.64383 18.5489 6.06258 18.1525 6.18279L15.7013 6.92624C15.3049 7.04646 14.8861 6.82259 14.7659 6.42621C14.6457 6.02982 14.8695 5.61103 15.2659 5.49081L16.9995 4.96502L16.4698 3.21781C16.3496 2.82142 16.5735 2.40265 16.9699 2.28246Z" fill="black"/>
<path fill-rule="evenodd" clip-rule="evenodd" d="M12.248 4.33203C7.85134 4.33203 4.28711 7.89626 4.28711 12.293C4.28711 16.6897 7.85134 20.2539 12.248 20.2539C16.6448 20.2539 20.209 16.6897 20.209 12.293C20.209 11.786 20.1617 11.2908 20.0715 10.8113C19.9949 10.4042 20.2628 10.0121 20.6699 9.93554C21.077 9.85897 21.4691 10.1269 21.5456 10.534C21.653 11.1045 21.709 11.6925 21.709 12.293C21.709 17.5181 17.4732 21.7539 12.248 21.7539C7.02292 21.7539 2.78711 17.5181 2.78711 12.293C2.78711 7.06784 7.02292 2.83203 12.248 2.83203C14.4892 2.83203 16.5501 3.6122 18.1711 4.91514C18.494 5.17464 18.5453 5.64673 18.2858 5.96958C18.0263 6.29243 17.5543 6.34379 17.2314 6.08429C15.8671 4.98771 14.1352 4.33203 12.248 4.33203Z" fill="black"/>
</svg>