<svg width="25" height="25" viewBox="0 0 25 25" fill="none" xmlns="http://www.w3.org/2000/svg">
<path fill-rule="evenodd" clip-rule="evenodd" d="M2.50735 11.755C2.56484 11.3448 2.94398 11.0589 3.35418 11.1164C9.25595 11.9434 15.2442 11.9434 21.146 11.1164C21.5562 11.0589 21.9353 11.3448 21.9928 11.755C22.0503 12.1652 21.7644 12.5444 21.3542 12.6018C15.3143 13.4483 9.18589 13.4483 3.146 12.6018C2.7358 12.5444 2.44986 12.1652 2.50735 11.755Z" fill="black"/>
<path fill-rule="evenodd" clip-rule="evenodd" d="M8.05281 6.45398C10.837 6.01502 13.6726 6.01502 16.4568 6.45398L16.4596 6.45443C17.5092 6.62408 18.4138 7.37781 18.7713 8.37828L19.8152 10.9935C19.8182 11.0011 19.8211 11.0087 19.8239 11.0164C19.8548 11.1018 19.8968 11.1829 19.9495 11.2585L21.1128 12.8196C21.6861 13.6019 21.9954 14.5467 21.9962 15.5166V21.1633C21.9962 21.5775 21.6604 21.9133 21.2462 21.9133C20.8319 21.9133 20.4962 21.5775 20.4962 21.1633V15.5177C20.4957 14.8672 20.2884 14.2334 19.9045 13.7085C19.9039 13.7077 19.9034 13.707 19.9028 13.7062L18.7406 12.1466L18.73 12.1319C18.6006 11.9493 18.4956 11.7504 18.4179 11.5391L17.3727 8.92064C17.3688 8.91074 17.365 8.90077 17.3615 8.89071C17.19 8.40136 16.7331 8.01862 16.2216 7.93542C13.5939 7.5213 10.9176 7.5212 8.28994 7.93512C7.78126 8.02095 7.32833 8.40292 7.15799 8.89014C7.15441 8.90039 7.1506 8.91056 7.14657 8.92064L6.09959 11.5437C6.0206 11.7507 5.91361 11.9458 5.7816 12.1236L4.59938 13.7514C4.59931 13.7515 4.59945 13.7513 4.59938 13.7514C4.22378 14.2698 4.0219 14.8944 4.02314 15.5346L4.02315 15.5383L4.00683 21.1624C4.00563 21.5766 3.66887 21.9114 3.25466 21.9102C2.84045 21.909 2.50564 21.5722 2.50684 21.158L2.52314 15.5375C2.52314 15.5369 2.52314 15.5363 2.52314 15.5357C2.52169 14.5788 2.82328 13.6461 3.38473 12.8712L4.57595 11.2311C4.62733 11.1622 4.6688 11.0866 4.69914 11.0063L4.70402 10.9934L5.74788 8.37854C6.10335 7.3817 7.00172 6.62895 8.04644 6.45501L8.05281 6.45398Z" fill="black"/>
<path fill-rule="evenodd" clip-rule="evenodd" d="M6.48828 20.3352C6.48828 19.3687 7.27178 18.5852 8.23828 18.5852H16.2514C17.2179 18.5852 18.0014 19.3687 18.0014 20.3352V21.1637C18.0014 21.5779 17.6656 21.9137 17.2514 21.9137C16.8372 21.9137 16.5014 21.5779 16.5014 21.1637V20.3352C16.5014 20.1971 16.3894 20.0852 16.2514 20.0852H8.23828C8.10021 20.0852 7.98828 20.1971 7.98828 20.3352V21.1637C7.98828 21.5779 7.65249 21.9137 7.23828 21.9137C6.82407 21.9137 6.48828 21.5779 6.48828 21.1637V20.3352Z" fill="black"/>
<path fill-rule="evenodd" clip-rule="evenodd" d="M10.556 5.35583C10.4538 5.35583 10.3619 5.41807 10.3239 5.51299L9.57533 7.38438L8.18262 6.82729L8.93117 4.9559C9.19693 4.2915 9.84043 3.85583 10.556 3.85583H13.9436C14.6592 3.85583 15.3027 4.2915 15.5685 4.9559L14.8721 5.23444L15.5685 4.9559L16.317 6.82729L14.9243 7.38438L14.1758 5.51299C14.1378 5.41807 14.0459 5.35583 13.9436 5.35583H10.556Z" fill="black"/>
<path fill-rule="evenodd" clip-rule="evenodd" d="M17 15.8368C17 15.4226 17.3358 15.0868 17.75 15.0868L18.25 15.0868C18.6642 15.0868 19 15.4226 19 15.8368C19 16.251 18.6642 16.5868 18.25 16.5868L17.75 16.5868C17.3358 16.5868 17 16.251 17 15.8368Z" fill="black"/>
<path fill-rule="evenodd" clip-rule="evenodd" d="M5.5 15.8368C5.5 15.4226 5.83579 15.0868 6.25 15.0868L6.75 15.0868C7.16421 15.0868 7.5 15.4226 7.5 15.8368C7.5 16.251 7.16421 16.5868 6.75 16.5868L6.25 16.5868C5.83579 16.5868 5.5 16.251 5.5 15.8368Z" fill="black"/>
<path fill-rule="evenodd" clip-rule="evenodd" d="M9 15.8368C9 15.4226 9.33579 15.0868 9.75 15.0868H14.75C15.1642 15.0868 15.5 15.4226 15.5 15.8368C15.5 16.251 15.1642 16.5868 14.75 16.5868H9.75C9.33579 16.5868 9 16.251 9 15.8368Z" fill="black"/>
</svg>