<svg width="24" height="24" viewBox="0 0 24 24" fill="none" xmlns="http://www.w3.org/2000/svg">
<path d="M6.41824 14.2179H15.0002M15.0002 21.4439C15.5492 21.4439 16.0852 21.2409 16.4802 20.8599C17.6462 19.7379 18.3722 18.1609 18.3722 16.4179C18.3722 12.5619 14.8432 9.55694 10.8542 10.3949C8.56822 10.8759 6.70823 12.6969 6.18823 14.9729C5.66423 17.2699 6.43122 19.4229 7.90222 20.8479C8.30222 21.2339 8.84125 21.4439 9.39725 21.4439H11.6806M13.5252 8.91594C13.5252 8.18194 12.9292 7.58594 12.1952 7.58594C11.4592 7.58594 10.8652 8.18194 10.8652 8.91594C10.8652 9.64994 11.4592 10.2459 12.1952 10.2459C12.9292 10.2459 13.5252 9.64994 13.5252 8.91594Z" stroke="black" stroke-width="1.5" stroke-linecap="round" stroke-linejoin="round"/>
<path d="M6.01913 17.5902L2.49414 11.9102H3.98615L6.81915 13.3842" stroke="black" stroke-width="1.5" stroke-linecap="round" stroke-linejoin="round"/>
<path d="M3.98828 6.4375C4.52428 6.9745 4.52428 7.84151 3.98828 8.37851" stroke="black" stroke-width="1.5" stroke-linecap="round" stroke-linejoin="round"/>
<path d="M7.45473 2.55859C6.91873 3.09459 6.91873 3.9626 7.45473 4.4986C7.99073 5.0336 7.99073 5.9026 7.45473 6.4386" stroke="black" stroke-width="1.5" stroke-linecap="round" stroke-linejoin="round"/>
<path d="M16.5176 11.9985C17.5126 11.171 20.2513 10.5575 21.2544 12.898C21.7832 14.1318 21.4175 15.3566 20.7195 16.3452" stroke="black" stroke-width="1.5" stroke-linecap="round"/>
</svg>