<svg width="24" height="24" viewBox="0 0 24 24" fill="none" xmlns="http://www.w3.org/2000/svg">
<path fill-rule="evenodd" clip-rule="evenodd" d="M12.0201 6.95117C10.9081 6.95117 10.0088 7.85221 10.0088 8.96243C10.0088 9.26825 10.077 9.55819 10.1992 9.81781C8.82005 10.1903 7.60363 11.0065 6.72312 12.0999L6.72881 12.1077C6.50947 12.3892 6.25158 12.7953 6.0129 13.2918C5.65389 14.0387 5.33834 14.9903 5.26274 16.0308C5.23108 16.4666 5.24152 16.9181 5.30851 17.3767L5.3228 17.3997C5.38398 17.7911 5.47878 18.1717 5.60416 18.5384C5.62318 18.5898 5.64304 18.6412 5.66376 18.6926C5.66665 18.6998 5.66956 18.7069 5.67249 18.7141C5.71594 18.8207 5.7546 18.9218 5.78873 19.0175C6.14597 19.8492 6.66486 20.5958 7.30571 21.2166C7.8351 21.7282 8.54303 22.0003 9.26479 22.0003H14.7826C15.492 22.0003 16.198 21.7388 16.7265 21.2296C17.4307 20.5515 17.9893 19.7216 18.3492 18.7931C19.4518 18.3809 20.4552 17.5417 21.1044 16.5245C21.826 15.3939 22.163 13.9501 21.5877 12.5607C21.088 11.3543 20.0307 10.7394 18.9377 10.6037C18.0634 10.4951 17.1306 10.6844 16.3529 11.1363C15.6264 10.5344 14.7725 10.0813 13.8384 9.82298C13.9621 9.56207 14.0313 9.27032 14.0313 8.96243C14.0313 7.85185 13.1306 6.95117 12.0201 6.95117ZM7.45717 13.4823C8.21051 12.2873 9.43542 11.4017 10.8441 11.1055C12.7469 10.7058 14.5255 11.3044 15.7488 12.4762C15.7808 12.5151 15.8161 12.5496 15.854 12.5797C16.1244 12.8533 16.3655 13.1558 16.5723 13.4823H7.45717ZM18.8043 16.3503C18.8043 14.7792 18.2712 13.3374 17.3776 12.1916C17.8144 12.0106 18.3042 11.939 18.7648 11.9962C19.4529 12.0817 20.0193 12.4411 20.2913 13.0976C20.6443 13.9502 20.4712 14.9085 19.9216 15.7696C19.6193 16.2432 19.2191 16.6594 18.7753 16.9802C18.7945 16.7728 18.8043 16.5626 18.8043 16.3503ZM11.412 8.96243C11.412 8.62647 11.6838 8.35437 12.0201 8.35437C12.3557 8.35437 12.6281 8.62682 12.6281 8.96243C12.6281 9.29804 12.3557 9.57049 12.0201 9.57049C11.6838 9.57049 11.412 9.29839 11.412 8.96243Z" fill="black"/>
<path d="M4.2771 15.7145C4.39856 14.6319 4.743 13.6414 5.09624 12.8639C5.21297 12.607 5.33066 12.3734 5.44159 12.1673L4.15319 11.4965C4.08649 11.4618 4.01239 11.4436 3.93718 11.4436H2.46773C2.29797 11.4436 2.14154 11.5356 2.059 11.684C1.97647 11.8323 1.98079 12.0137 2.0703 12.158L4.2771 15.7145Z" fill="black"/>
<g opacity="0.4">
<path d="M7.84866 3.1977C8.12266 2.92371 8.12266 2.47949 7.84866 2.20549C7.57467 1.9315 7.13044 1.9315 6.85645 2.20549C6.05455 3.00739 6.05455 4.30619 6.85645 5.10809C7.10947 5.36062 7.11063 5.77208 6.85645 6.02626C6.58246 6.30025 6.58246 6.74448 6.85645 7.01847C7.13044 7.29246 7.57467 7.29246 7.84866 7.01847C8.65014 6.21699 8.65099 4.91717 7.84866 4.11588C7.59498 3.86194 7.59483 3.45154 7.84866 3.1977Z" fill="black"/>
<path d="M4.43501 6.02559C4.16102 5.7516 3.71679 5.7516 3.4428 6.02559C3.16881 6.29959 3.16881 6.74381 3.4428 7.0178C3.69672 7.27172 3.69672 7.68206 3.4428 7.93598C3.16881 8.20997 3.16881 8.6542 3.4428 8.92819C3.71679 9.20218 4.16102 9.20218 4.43501 8.92819C5.23691 8.12629 5.23691 6.82749 4.43501 6.02559Z" fill="black"/>
</g>
</svg>