<svg width="24" height="24" viewBox="0 0 24 24" fill="none" xmlns="http://www.w3.org/2000/svg">
<path fill-rule="evenodd" clip-rule="evenodd" d="M3.7402 3.89737C4.72468 2.84117 6.12669 2.25 7.78216 2.25H16.2169C17.8762 2.25 19.2788 2.84084 20.2629 3.89765C21.2413 4.94841 21.75 6.39889 21.75 8.02638V15.9736C21.75 17.6011 21.2413 19.0516 20.2627 20.1024C19.2785 21.1592 17.8756 21.75 16.2159 21.75H7.78216C6.1228 21.75 4.72038 21.1591 3.73657 20.1023C2.75842 19.0515 2.25 17.601 2.25 15.9736V8.02638C2.25 6.39806 2.76117 4.94771 3.7402 3.89737ZM4.83745 4.92012C4.16024 5.64666 3.75 6.70951 3.75 8.02638V15.9736C3.75 17.2914 4.15861 18.3541 4.83451 19.0802C5.50475 19.8003 6.49341 20.25 7.78216 20.25H16.2159C17.5052 20.25 18.4944 19.8002 19.165 19.0801C19.8412 18.354 20.25 17.2913 20.25 15.9736V8.02638C20.25 6.70868 19.8412 5.64597 19.1651 4.91984C18.4946 4.19975 17.5056 3.75 16.2169 3.75H7.78216C6.49828 3.75 5.50921 4.19943 4.83745 4.92012Z" fill="black"/>
<path fill-rule="evenodd" clip-rule="evenodd" d="M8.81225 8.3891C9.62506 7.70372 10.868 8.28151 10.868 9.34471V10.0031H13.1329V9.34471C13.1329 8.28151 14.3759 7.70372 15.1887 8.3891L18.338 11.0447C18.9303 11.5441 18.9303 12.4565 18.338 12.9559L15.1887 15.6115C14.3759 16.2969 13.1329 15.7191 13.1329 14.6559V13.9971H10.868V14.6559C10.868 15.7191 9.62505 16.2969 8.81225 15.6115L9.29573 15.0381L8.81225 15.6115L5.66295 12.9559C5.07068 12.4565 5.07068 11.5441 5.66295 11.0447L8.81225 8.3891ZM9.36805 9.88253L6.85656 12.0003L9.36805 14.118V13.2471C9.36805 12.8329 9.70384 12.4971 10.118 12.4971H13.8829C14.2972 12.4971 14.6329 12.8329 14.6329 13.2471V14.118L17.1444 12.0003L14.6329 9.88253V10.7531C14.6329 11.1673 14.2972 11.5031 13.8829 11.5031H10.118C9.70384 11.5031 9.36805 11.1673 9.36805 10.7531V9.88253ZM9.77908 9.53594L9.77921 9.53583L9.77908 9.53594Z" fill="black"/>
</svg>