<svg width="25" height="24" viewBox="0 0 25 24" fill="none" xmlns="http://www.w3.org/2000/svg">
<path d="M12.25 3C15.9518 3 19.1314 5.23444 20.5136 8.42832" stroke="black" stroke-width="1.5" stroke-linecap="round" stroke-linejoin="round"/>
<path d="M3.76172 8.99838C4.62207 6.56388 6.50005 4.61024 8.8847 3.64844" stroke="black" stroke-width="1.5" stroke-linecap="round" stroke-linejoin="round"/>
<path d="M3.29961 12.9726C3.08867 13.8307 3.56984 14.6866 4.37432 14.8844C5.1788 15.0821 6.00195 14.5468 6.21288 13.6887C6.59481 12.1349 5.32914 11 5.32914 11" stroke="black" stroke-width="1.5" stroke-linecap="round" stroke-linejoin="round"/>
<path d="M21.2351 12.9726C21.446 13.8307 20.9649 14.6866 20.1604 14.8844C19.3559 15.0821 18.5328 14.5468 18.3218 13.6887C17.9399 12.1349 19.2056 11 19.2056 11" stroke="black" stroke-width="1.5" stroke-linecap="round" stroke-linejoin="round"/>
<path d="M7.93457 9.53984C8.02992 8.90644 8.57479 8.42773 9.22668 8.42773C9.88441 8.42773 10.4283 8.90644 10.5178 9.53984" stroke="black" stroke-width="1.5" stroke-linecap="round" stroke-linejoin="round"/>
<path d="M13.9829 9.53984C14.0724 8.90644 14.6163 8.42773 15.2682 8.42773C15.9259 8.42773 16.4708 8.90644 16.5662 9.53984" stroke="black" stroke-width="1.5" stroke-linecap="round" stroke-linejoin="round"/>
<path d="M5.54199 18C7.18989 19.8412 9.58464 21 12.2502 21C14.9158 21 17.3105 19.8412 18.9584 18" stroke="black" stroke-width="1.5" stroke-linecap="round" stroke-linejoin="round"/>
<path fill-rule="evenodd" clip-rule="evenodd" d="M15.119 13.6387C15.119 15.3414 13.8346 16.723 12.2506 16.723C10.6666 16.723 9.38232 15.3414 9.38232 13.6387H15.119Z" stroke="black" stroke-width="1.5" stroke-linecap="round" stroke-linejoin="round"/>
</svg>