<svg width="25" height="24" viewBox="0 0 25 24" fill="none" xmlns="http://www.w3.org/2000/svg">
<path opacity="0.4" fill-rule="evenodd" clip-rule="evenodd" d="M20.8863 7.80654L15.9623 3.28754C15.1863 2.57254 14.0733 2.32554 13.0543 2.63754L6.67929 4.64854C5.66729 4.97254 4.89629 5.81454 4.66929 6.84654L3.21929 13.3665C2.99029 14.3975 3.33329 15.4845 4.11429 16.2035L9.03729 20.7225C9.59129 21.2325 10.3173 21.5055 11.0583 21.5055C11.3543 21.5055 11.6543 21.4615 11.9453 21.3715L18.3203 19.3615C19.3323 19.0365 20.1023 18.1945 20.3303 17.1635L21.7793 10.6445C22.0103 9.61354 21.6683 8.52654 20.8863 7.80654Z" fill="black"/>
<path d="M12.3762 10.9436H14.5332C14.9472 10.9436 15.2832 10.6076 15.2832 10.1936C15.2832 9.77962 14.9472 9.44362 14.5332 9.44362H12.6552L12.8772 8.25162C12.9502 7.85862 12.7032 7.47762 12.3142 7.38462C11.9232 7.28962 11.5322 7.52062 11.4202 7.90362C11.1502 8.82862 10.8032 9.08662 9.75023 9.49462C9.41323 9.62462 9.21723 9.97662 9.28323 10.3316C9.35023 10.6866 9.65923 10.9436 10.0212 10.9436H10.8502L10.3332 13.7186C10.1942 14.4206 10.3752 15.1396 10.8292 15.6926C11.2842 16.2456 11.9572 16.5636 12.6762 16.5636H13.5072C13.9212 16.5636 14.2572 16.2276 14.2572 15.8136C14.2572 15.3996 13.9212 15.0636 13.5072 15.0636H12.6762C12.4082 15.0636 12.1572 14.9456 11.9882 14.7396C11.8202 14.5356 11.7532 14.2696 11.8062 14.0016L12.3762 10.9436Z" fill="black"/>
</svg>