<svg width="24" height="24" viewBox="0 0 24 24" fill="none" xmlns="http://www.w3.org/2000/svg">
<path fill-rule="evenodd" clip-rule="evenodd" d="M14.0332 10.9445H11.8762L11.3062 14.0025C11.2532 14.2705 11.3202 14.5365 11.4882 14.7405C11.6572 14.9465 11.9082 15.0645 12.1762 15.0645H13.0072C13.4212 15.0645 13.7572 15.4005 13.7572 15.8145C13.7572 16.2285 13.4212 16.5645 13.0072 16.5645H12.1762C11.4572 16.5645 10.7842 16.2465 10.3292 15.6935C9.87517 15.1405 9.69417 14.4215 9.83317 13.7195L10.3502 10.9445H9.52117C9.15917 10.9445 8.85017 10.6875 8.78317 10.3325C8.71717 9.97754 8.91317 9.62554 9.25017 9.49554C10.3032 9.08754 10.6502 8.82954 10.9202 7.90454C11.0322 7.52154 11.4232 7.29054 11.8142 7.38554C12.2032 7.47854 12.4502 7.85954 12.3772 8.25254L12.1552 9.44454H14.0332C14.4472 9.44454 14.7832 9.78054 14.7832 10.1945C14.7832 10.6085 14.4472 10.9445 14.0332 10.9445ZM20.3862 7.80654L15.4622 3.28754C14.6862 2.57254 13.5732 2.32554 12.5542 2.63754L6.17917 4.64854C5.16717 4.97254 4.39617 5.81454 4.16917 6.84654L2.71917 13.3665C2.49017 14.3975 2.83317 15.4845 3.61417 16.2035L8.53717 20.7225C9.09117 21.2325 9.81717 21.5055 10.5582 21.5055C10.8542 21.5055 11.1542 21.4615 11.4452 21.3715L17.8202 19.3615C18.8322 19.0365 19.6022 18.1945 19.8302 17.1635L21.2792 10.6445C21.5102 9.61354 21.1682 8.52654 20.3862 7.80654Z" fill="black"/>
</svg>