<svg width="25" height="24" viewBox="0 0 25 24" fill="none" xmlns="http://www.w3.org/2000/svg">
<path d="M19.8422 17.0533C19.6505 17.9173 19.0112 18.6139 18.1677 18.8795L11.7947 20.8858C10.9501 21.1514 10.0277 20.9461 9.37584 20.3478L4.45159 15.8322C3.7997 15.2338 3.51559 14.3328 3.70727 13.4688L5.157 6.94694C5.34868 6.08196 5.98695 5.38628 6.8315 5.12066L13.2045 3.11438C14.0491 2.84875 14.9714 3.05308 15.6233 3.65146L20.5476 8.16802C21.1995 8.76641 21.4836 9.66738 21.2909 10.5314L20.5665 13.7923" stroke="black" stroke-width="1.5" stroke-linecap="round" stroke-linejoin="round"/>
<path d="M13.5067 15.8144H12.6758C11.6434 15.8144 10.8689 14.8706 11.0694 13.8577L12.1397 8.11133C11.7748 9.36355 11.1832 9.74107 10.0215 10.1916H14.5332" stroke="black" stroke-width="1.5" stroke-linecap="round" stroke-linejoin="round"/>
</svg>