<svg width="25" height="24" viewBox="0 0 25 24" fill="none" xmlns="http://www.w3.org/2000/svg">
<path d="M10.8056 21.7487C9.99652 21.7494 9.21657 21.4469 8.61959 20.9008L3.69561 16.3847C3.27914 16.0011 2.97044 15.5151 2.80025 14.9751C2.63006 14.435 2.60433 13.8598 2.72561 13.3067L4.17559 6.78377C4.29912 6.23131 4.56547 5.7209 4.94802 5.30361C5.33057 4.88632 5.81594 4.5767 6.35561 4.40572L12.7306 2.39876C13.2711 2.23036 13.8462 2.20638 14.3989 2.32918C14.9515 2.45199 15.4623 2.71731 15.8806 3.09878L20.8056 7.61574C21.2221 7.99948 21.5307 8.48575 21.7006 9.02602C21.8704 9.5663 21.8956 10.1417 21.7736 10.6947L20.3246 17.2168C20.201 17.769 19.9347 18.2792 19.5524 18.6965C19.17 19.1137 18.685 19.4234 18.1456 19.5947L11.7706 21.6018C11.4582 21.6994 11.1328 21.7489 10.8056 21.7487ZM13.6966 3.74874C13.5218 3.74891 13.348 3.77623 13.1816 3.82973L6.8066 5.83474C6.51776 5.92638 6.25801 6.09214 6.05324 6.31551C5.84847 6.53888 5.70585 6.81205 5.63961 7.10775L4.1896 13.6308C4.12502 13.9269 4.13906 14.2349 4.23028 14.5239C4.32149 14.813 4.48674 15.0733 4.70961 15.2788L9.6336 19.7937C9.85734 19.9985 10.1309 20.1409 10.427 20.2067C10.723 20.2725 11.0312 20.2594 11.3206 20.1687L17.6926 18.1638C17.9815 18.0723 18.2414 17.9066 18.4462 17.6832C18.651 17.4598 18.7936 17.1865 18.8596 16.8908L20.3096 10.3678C20.3744 10.0716 20.3604 9.76358 20.2692 9.47445C20.178 9.18531 20.0126 8.92512 19.7896 8.71975L14.8656 4.20473C14.5464 3.91249 14.1294 3.75024 13.6966 3.74978V3.74874Z" fill="black"/>
<path d="M13.2586 16.5648H12.4276C12.0746 16.5648 11.7259 16.4864 11.4068 16.3355C11.0877 16.1846 10.8059 15.9648 10.5819 15.692C10.3578 15.4192 10.197 15.1001 10.1111 14.7577C10.0251 14.4153 10.016 14.0581 10.0846 13.7118L10.6016 10.9418H9.77258C9.59774 10.9416 9.42847 10.8803 9.29401 10.7686C9.15955 10.6568 9.06837 10.5015 9.03623 10.3297C9.00408 10.1578 9.03298 9.9801 9.11795 9.82729C9.20293 9.67448 9.33863 9.55619 9.50159 9.49282C10.5716 9.07782 10.9016 8.83281 11.1716 7.90181C11.2262 7.71794 11.3491 7.56196 11.5152 7.46596C11.6812 7.36996 11.8777 7.3412 12.0643 7.38564C12.2509 7.43008 12.4134 7.54431 12.5183 7.70485C12.6233 7.8654 12.6628 8.06006 12.6286 8.2488L12.4066 9.44179H14.2846C14.4835 9.44179 14.6743 9.5208 14.8149 9.66146C14.9556 9.80211 15.0346 9.99288 15.0346 10.1918C15.0346 10.3907 14.9556 10.5815 14.8149 10.7221C14.6743 10.8628 14.4835 10.9418 14.2846 10.9418H12.1266L11.5576 13.9958C11.5309 14.125 11.5333 14.2586 11.5646 14.3868C11.5959 14.515 11.6553 14.6346 11.7386 14.737C11.8219 14.8393 11.927 14.9218 12.0462 14.9785C12.1653 15.0352 12.2956 15.0648 12.4276 15.0648H13.2586C13.4575 15.0648 13.6483 15.1439 13.7889 15.2845C13.9296 15.4252 14.0086 15.6159 14.0086 15.8148C14.0086 16.0138 13.9296 16.2045 13.7889 16.3451C13.6483 16.4858 13.4575 16.5648 13.2586 16.5648Z" fill="black"/>
</svg>