<svg width="24" height="24" viewBox="0 0 24 24" fill="none" xmlns="http://www.w3.org/2000/svg">
<path d="M20.1404 5.19656C19.8805 4.99427 19.5009 4.87735 18.8662 5.08871L4.50805 10.6014C4.20656 10.7123 3.86868 10.7938 3.64343 11.0389C3.361 11.3686 3.51738 11.946 3.92283 12.0959C4.91783 12.4762 5.9397 12.7829 6.9373 13.1563C7.52241 13.3585 8.01231 13.2384 8.4828 13.0095C11.0745 11.7485 13.7097 10.3387 16.1588 8.82412C14.5478 10.4342 12.864 11.9698 11.2448 13.5722C10.4837 14.2902 10.46 14.7296 11.3379 15.382C12.8705 16.4762 14.3905 17.5868 15.9196 18.6854C16.4928 19.0884 17.2639 19.2403 17.7178 18.5273C17.8668 18.3007 17.8785 18.0217 17.9473 17.7666C18.7777 14.0422 19.5839 10.3121 20.4095 6.58633C20.5276 6.08617 20.6061 5.55067 20.1404 5.19656Z" stroke="black" stroke-width="1.5" stroke-linecap="round" stroke-linejoin="round"/>
</svg>