<svg width="24" height="24" viewBox="0 0 24 24" fill="none" xmlns="http://www.w3.org/2000/svg">
<path d="M12 21C16.9709 21 21 16.9709 21 12C21 7.02908 16.9709 3 12 3C7.02908 3 3 7.02908 3 12C3 16.9709 7.02908 21 12 21Z" stroke="black" stroke-width="1.5" stroke-linecap="round" stroke-linejoin="round"/>
<path fill-rule="evenodd" clip-rule="evenodd" d="M9.95968 15.1897L9.19779 12.6807L7.01532 11.9995C6.76574 11.9216 6.75354 11.5716 6.99843 11.4778L15.3032 8.27447C15.6101 8.15625 15.9263 8.42553 15.8587 8.74737L14.4635 15.3229C14.3818 15.7085 13.9286 15.8803 13.6124 15.6457L11.6308 14.1819L10.4626 15.3192C10.2984 15.4768 10.0263 15.4064 9.95968 15.1897Z" stroke="black" stroke-width="1.5" stroke-linecap="round" stroke-linejoin="round"/>
</svg>