<svg width="24" height="24" viewBox="0 0 24 24" fill="none" xmlns="http://www.w3.org/2000/svg">
<path d="M7.78216 3H16.2169C19.165 3 21 5.08119 21 8.02638V15.9736C21 18.9188 19.165 21 16.2159 21H7.78216C4.83405 21 3 18.9188 3 15.9736V8.02638C3 5.08119 4.84281 3 7.78216 3Z" stroke="black" stroke-width="1.5" stroke-linecap="round" stroke-linejoin="round"/>
<path fill-rule="evenodd" clip-rule="evenodd" d="M10.373 13.5977L8.37641 12.4272C7.62333 11.9864 7.72258 10.8675 8.54085 10.5649L14.1958 8.47304C15.0247 8.16558 15.8323 8.97315 15.5258 9.80212L13.4339 15.457C13.1304 16.2763 12.0124 16.3746 11.5707 15.6215L10.4002 13.6249C10.3934 13.6133 10.3846 13.6045 10.373 13.5977Z" stroke="black" stroke-width="1.5" stroke-linecap="round" stroke-linejoin="round"/>
</svg>