<svg width="24" height="24" viewBox="0 0 24 24" fill="none" xmlns="http://www.w3.org/2000/svg">
<path fill-rule="evenodd" clip-rule="evenodd" d="M3.7402 3.89737C4.72468 2.84117 6.12669 2.25 7.78216 2.25H16.2169C17.8762 2.25 19.2788 2.84084 20.2629 3.89765C21.2413 4.94841 21.75 6.39889 21.75 8.02638V15.9736C21.75 17.6011 21.2413 19.0516 20.2627 20.1024C19.2785 21.1592 17.8756 21.75 16.2159 21.75H7.78216C6.1228 21.75 4.72038 21.1591 3.73657 20.1023C2.75842 19.0515 2.25 17.601 2.25 15.9736V8.02638C2.25 6.39806 2.76117 4.94771 3.7402 3.89737ZM4.83745 4.92012C4.16024 5.64666 3.75 6.70951 3.75 8.02638V15.9736C3.75 17.2914 4.15861 18.3541 4.83451 19.0802C5.50475 19.8003 6.49341 20.25 7.78216 20.25H16.2159C17.5052 20.25 18.4944 19.8002 19.165 19.0801C19.8412 18.354 20.25 17.2913 20.25 15.9736V8.02638C20.25 6.70868 19.8412 5.64597 19.1651 4.91984C18.4946 4.19975 17.5056 3.75 16.2169 3.75H7.78216C6.49828 3.75 5.50921 4.19943 4.83745 4.92012Z" fill="black"/>
<path fill-rule="evenodd" clip-rule="evenodd" d="M15.8495 8.74723L7.64292 11.9628C7.71113 11.9902 7.77962 12.0177 7.84796 12.0452C7.87921 12.0577 7.91042 12.0702 7.94156 12.0827C8.29745 12.2256 8.64424 12.3642 8.93772 12.4743C9.41094 12.6354 9.89029 12.594 10.1695 12.4189L12.9481 10.5813C13.2936 10.3528 13.7589 10.4476 13.9874 10.7931C14.2159 11.1386 14.121 11.6039 13.7756 11.8324L11.2703 13.4893C11.2804 13.4991 11.2911 13.5093 11.3024 13.5199C11.3904 13.6017 11.4978 13.6878 11.6194 13.7783C12.1588 14.1635 12.7006 14.5555 13.2401 14.9459C13.6335 15.2305 14.0256 15.5143 14.4148 15.7938C14.4186 15.7965 14.4224 15.7991 14.4262 15.8017L15.9976 8.83099C16.0089 8.78324 16.0173 8.7443 16.0232 8.71104C15.9905 8.71175 15.9346 8.71874 15.8495 8.74723ZM9.82565 14.0619C9.3446 14.1062 8.85875 14.034 8.43944 13.8891L8.42148 13.8827C8.10664 13.7648 7.73981 13.6181 7.38267 13.4747C7.35207 13.4624 7.32155 13.4502 7.29112 13.438C6.96338 13.3063 6.64721 13.1793 6.37591 13.0756C5.88082 12.8897 5.66925 12.3856 5.66606 11.9946C5.66202 11.5 5.95014 11.0398 6.47877 10.8086C6.48769 10.8047 6.49667 10.8009 6.50573 10.7974L15.3176 7.34462C15.3266 7.34107 15.3358 7.3377 15.3449 7.33451C15.7198 7.20421 16.0642 7.18023 16.3752 7.24716C16.6815 7.31306 16.8949 7.45444 17.0237 7.55429C17.3574 7.80966 17.4979 8.15248 17.5276 8.47316C17.5535 8.75277 17.4951 9.01629 17.4584 9.17186L15.8124 16.4737C15.8082 16.4923 15.8033 16.5108 15.7977 16.529C15.715 16.7981 15.5565 17.0526 15.2948 17.2229C15.0386 17.3897 14.7646 17.4228 14.5448 17.4073C14.1371 17.3784 13.771 17.1749 13.5493 17.019L13.5431 17.0146C13.1424 16.7268 12.7468 16.4405 12.3525 16.1551C11.8166 15.7674 11.2829 15.3812 10.7418 14.9948L10.7302 14.9864C10.4638 14.7884 10.0876 14.4899 9.86278 14.1252C9.85029 14.1049 9.83786 14.0838 9.82565 14.0619Z" fill="black"/>
</svg>