<svg width="24" height="24" viewBox="0 0 24 24" fill="none" xmlns="http://www.w3.org/2000/svg">
<path fill-rule="evenodd" clip-rule="evenodd" d="M12 3.75C7.44329 3.75 3.75 7.44329 3.75 12C3.75 16.5567 7.44329 20.25 12 20.25C16.5567 20.25 20.25 16.5567 20.25 12C20.25 7.44329 16.5567 3.75 12 3.75ZM2.25 12C2.25 6.61487 6.61487 2.25 12 2.25C17.3851 2.25 21.75 6.61487 21.75 12C21.75 17.3851 17.3851 21.75 12 21.75C6.61487 21.75 2.25 17.3851 2.25 12Z" fill="black"/>
<path fill-rule="evenodd" clip-rule="evenodd" d="M14.9968 9.19656L13.7972 14.8497L12.0764 13.5787C11.781 13.3604 11.3709 13.3883 11.1077 13.6445L10.4645 14.2707L9.91548 12.4627C9.84334 12.2252 9.6583 12.0387 9.4213 11.9647L8.53626 11.6885L14.9968 9.19656ZM13.7298 15.1676C13.7298 15.1677 13.7298 15.1675 13.7298 15.1676V15.1676ZM15.0336 7.57462C15.8959 7.24235 16.7823 7.99855 16.5928 8.90143L15.1973 15.4782C15.1972 15.4783 15.1973 15.4781 15.1973 15.4782C15.0025 16.3969 13.9224 16.8081 13.1669 16.2489C13.1669 16.2489 13.1669 16.249 13.1669 16.2489C13.1665 16.2487 13.166 16.2483 13.1656 16.248L11.6976 15.1637L10.9821 15.8602C10.4169 16.4028 9.47436 16.1633 9.24283 15.41L9.24208 15.4076L8.59552 13.2784L6.79198 12.7154C6.79195 12.7154 6.792 12.7154 6.79198 12.7154C5.86847 12.4272 5.81637 11.1284 6.72921 10.7778C6.72953 10.7777 6.72984 10.7775 6.73015 10.7774L15.0336 7.57462Z" fill="black"/>
</svg>