<svg width="25" height="24" viewBox="0 0 25 24" fill="none" xmlns="http://www.w3.org/2000/svg">
<path d="M16.8321 20.998H8.65904C8.17842 21.0142 7.69983 20.928 7.25472 20.746C6.8096 20.5639 6.4078 20.2898 6.07628 19.9414C5.74476 19.593 5.49104 19.179 5.33127 18.7254C5.17151 18.2718 5.10936 17.7898 5.14938 17.3105V11.4733C5.10783 10.9938 5.16886 10.5109 5.32807 10.0566C5.48728 9.60236 5.74124 9.18746 6.07307 8.83877C6.4049 8.49008 6.80707 8.21571 7.25289 8.03421C7.69871 7.8527 8.17802 7.76812 8.65904 7.78587H16.8321C17.3139 7.76675 17.794 7.85056 18.241 8.03146C18.6879 8.21236 19.0916 8.48626 19.4245 8.83511C19.7573 9.18395 20.012 9.59984 20.1718 10.0548C20.3315 10.5097 20.3926 10.9929 20.3509 11.4733V17.3105C20.391 17.7906 20.3289 18.273 20.1685 18.7272C20.0082 19.1815 19.7533 19.5966 19.4208 19.9451C19.0882 20.2936 18.6854 20.5682 18.2391 20.7496C17.7929 20.9311 17.3135 21.0156 16.8321 20.998V20.998Z" stroke="black" stroke-width="1.5" stroke-linecap="round" stroke-linejoin="round"/>
<path opacity="0.4" d="M14.5246 17.7891H10.9776" stroke="black" stroke-width="1.5" stroke-linecap="round" stroke-linejoin="round"/>
<path d="M16.148 15.0395H9.34497C9.18573 15.0454 9.02707 15.017 8.87946 14.957C8.73184 14.897 8.59861 14.8066 8.48863 14.6913C8.37865 14.576 8.29418 14.4384 8.24121 14.2881C8.18825 14.1378 8.1678 13.9777 8.18119 13.8189V11.8863C8.1678 11.7275 8.18825 11.5674 8.24121 11.4171C8.29418 11.2668 8.37865 11.1301 8.48863 11.0148C8.59861 10.8995 8.73184 10.8082 8.87946 10.7482C9.02707 10.6882 9.18573 10.6607 9.34497 10.6666H16.148C16.3073 10.6607 16.4659 10.6882 16.6136 10.7482C16.7612 10.8082 16.8944 10.8995 17.0044 11.0148C17.1144 11.1301 17.1984 11.2668 17.2513 11.4171C17.3043 11.5674 17.3247 11.7275 17.3114 11.8863V13.8189C17.3263 13.978 17.3069 14.1389 17.2545 14.2899C17.2021 14.4409 17.1179 14.5784 17.0076 14.694C16.8973 14.8097 16.7637 14.9003 16.6154 14.9598C16.4671 15.0192 16.3077 15.0469 16.148 15.0395Z" stroke="black" stroke-width="1.5" stroke-linecap="round" stroke-linejoin="round"/>
<path opacity="0.4" d="M6.85742 4.28555L18.6431 3M12.75 3.63794V7.78547" stroke="black" stroke-width="1.5" stroke-linecap="round" stroke-linejoin="round"/>
</svg>