<svg width="24" height="24" viewBox="0 0 24 24" fill="none" xmlns="http://www.w3.org/2000/svg">
<path fill-rule="evenodd" clip-rule="evenodd" d="M20.2448 5.0654C20.2738 4.93879 20.1479 4.83143 20.027 4.88086L3.88245 11.4883C3.81495 11.5159 3.78771 11.5501 3.77329 11.577C3.75545 11.6104 3.74487 11.6582 3.75207 11.7129C3.75928 11.7677 3.78187 11.8111 3.80766 11.8386C3.8285 11.8608 3.86353 11.8867 3.936 11.8959L8.23276 12.4408C8.55167 12.4813 8.80935 12.7205 8.87338 13.0355L9.74744 17.3361L11.401 15.924L10.3207 14.8439C10.0278 14.551 10.0278 14.0761 10.3206 13.7832C10.6135 13.4903 11.0884 13.4902 11.3813 13.7831L12.9485 15.35C12.9972 15.3848 13.0426 15.4261 13.0832 15.4737C13.0973 15.4902 13.1106 15.5071 13.123 15.5245L16.6607 19.0616C16.7977 19.1985 17.0319 19.1305 17.0747 18.9426L20.2448 5.0654ZM12.4651 16.9878L10.6745 18.517C9.82707 19.2388 8.51173 18.7883 8.28974 17.6951C8.28973 17.6951 8.28976 17.6952 8.28974 17.6951L7.51054 13.8612L3.74726 13.384C2.00006 13.1623 1.6859 10.7664 3.31429 10.1001C3.31426 10.1001 3.31431 10.1001 3.31429 10.1001L19.4591 3.49252C20.7042 2.98347 22.0068 4.08823 21.7071 5.39962C21.7071 5.39968 21.7071 5.39957 21.7071 5.39962L18.5372 19.2761C18.2317 20.6158 16.5704 21.0926 15.6001 20.1223L12.4651 16.9878Z" fill="black"/>
<path fill-rule="evenodd" clip-rule="evenodd" d="M16.0515 7.85455C16.2828 8.19814 16.1918 8.66421 15.8482 8.89555L8.55762 13.8043C8.21403 14.0356 7.74796 13.9446 7.51662 13.601C7.28528 13.2574 7.37628 12.7914 7.71987 12.56L15.0105 7.65129C15.3541 7.41996 15.8201 7.51096 16.0515 7.85455Z" fill="black"/>
</svg>