<svg width="25" height="24" viewBox="0 0 25 24" fill="none" xmlns="http://www.w3.org/2000/svg">
<path opacity="0.4" fill-rule="evenodd" clip-rule="evenodd" d="M12.5001 17.983C11.2208 17.983 10.1853 16.9485 10.1853 15.6713C10.1853 14.3835 11.2208 13.3491 12.5001 13.3491C13.7794 13.3491 14.816 14.3835 14.816 15.6713C14.816 16.9485 13.7794 17.983 12.5001 17.983ZM18.9411 12.1004C18.6529 12.093 18.3405 12.0845 18.0017 12.0845C15.2952 12.0845 14.4814 10.2247 14.0898 9.33165C13.7773 8.61599 13.7288 8.50515 12.498 8.50515C11.2683 8.50515 11.2208 8.61493 10.9094 9.32954C10.5178 10.2236 9.70605 12.0845 6.99855 12.0845C6.66394 12.0845 6.35466 12.093 6.06966 12.0993C5.51715 12.113 4.95696 12.1261 4.41234 12.0681C4.2166 12.0473 4.03877 12.1964 4.03877 12.3932V16.254C4.03877 19.2222 5.94088 21.2151 8.77399 21.2151H16.2157C19.053 21.2151 20.9604 19.2222 20.9604 16.254V12.3957C20.9604 12.1991 20.7829 12.0501 20.5874 12.0706C20.2885 12.102 19.9853 12.112 19.6811 12.112C19.4341 12.112 19.1871 12.1057 18.9411 12.1004Z" fill="black"/>
<path fill-rule="evenodd" clip-rule="evenodd" d="M12.4979 2.78516C2.28644 2.78516 3.04539 6.44793 3 6.8596C3 10.5118 4.11678 9.97349 6.99844 9.97349C9.98567 9.97349 7.80383 6.39516 12.4979 6.39516C17.193 6.39516 15.0133 9.97349 18.0016 9.97349C20.8832 9.97349 22 10.5224 22 6.8596C21.9546 6.44793 22.7093 2.78516 12.4979 2.78516Z" fill="black"/>
</svg>