<svg width="25" height="25" viewBox="0 0 25 25" fill="none" xmlns="http://www.w3.org/2000/svg">
<g opacity="0.4">
<path fill-rule="evenodd" clip-rule="evenodd" d="M20.9507 20.5508H3.99072C3.58072 20.5508 3.24072 20.8908 3.24072 21.3008C3.24072 21.7108 3.58072 22.0508 3.99072 22.0508H20.9507C21.3707 22.0508 21.7007 21.7108 21.7007 21.3008C21.7007 20.8908 21.3707 20.5508 20.9507 20.5508Z" fill="black"/>
<path fill-rule="evenodd" clip-rule="evenodd" d="M3.99072 12.5508H20.9507C21.3707 12.5508 21.7007 12.2108 21.7007 11.8008C21.7007 11.3908 21.3707 11.0508 20.9507 11.0508H20.0707C19.7207 7.44078 16.8307 4.55078 13.2207 4.20078V3.30078C13.2207 2.89078 12.8907 2.55078 12.4707 2.55078C12.0607 2.55078 11.7207 2.89078 11.7207 3.30078V4.20078C8.11072 4.55078 5.22072 7.44078 4.87072 11.0508H3.99072C3.58072 11.0508 3.24072 11.3908 3.24072 11.8008C3.24072 12.2108 3.58072 12.5508 3.99072 12.5508Z" fill="black"/>
</g>
<path d="M6.08118 20.5508H4.58118V12.5508H6.08118V20.5508Z" fill="black"/>
<path d="M8.15118 20.5508H9.65118V12.5508H8.15118V20.5508Z" fill="black"/>
<path d="M13.2212 20.5508H11.7212V12.5508H13.2212V20.5508Z" fill="black"/>
<path d="M15.2912 20.5508H16.7912V12.5508H15.2912V20.5508Z" fill="black"/>
<path d="M20.3612 20.5508H18.8612V12.5508H20.3612V20.5508Z" fill="black"/>
</svg>