<svg width="25" height="24" viewBox="0 0 25 24" fill="none" xmlns="http://www.w3.org/2000/svg">
<path fill-rule="evenodd" clip-rule="evenodd" d="M4.71967 5.34467C5.01256 5.05178 5.48744 5.05178 5.78033 5.34467L11.0303 10.5947C11.3232 10.8876 11.3232 11.3624 11.0303 11.6553L5.78033 16.9053C5.48744 17.1982 5.01256 17.1982 4.71967 16.9053C4.42678 16.6124 4.42678 16.1376 4.71967 15.8447L9.43934 11.125L4.71967 6.40533C4.42678 6.11244 4.42678 5.63756 4.71967 5.34467Z" fill="black"/>
<path fill-rule="evenodd" clip-rule="evenodd" d="M11.5 18.125C11.5 17.7108 11.8358 17.375 12.25 17.375H19.25C19.6642 17.375 20 17.7108 20 18.125C20 18.5392 19.6642 18.875 19.25 18.875H12.25C11.8358 18.875 11.5 18.5392 11.5 18.125Z" fill="black"/>
</svg>