<svg width="24" height="24" viewBox="0 0 24 24" fill="none" xmlns="http://www.w3.org/2000/svg">
<path fill-rule="evenodd" clip-rule="evenodd" d="M10.9571 10.4183L5.70713 5.16825C5.31613 4.77725 4.68413 4.77725 4.29313 5.16825C3.90213 5.55925 3.90213 6.19125 4.29313 6.58225L8.83613 11.1252L4.29313 15.6683C3.90213 16.0592 3.90213 16.6912 4.29313 17.0822C4.48813 17.2772 4.74413 17.3752 5.00013 17.3752C5.25613 17.3752 5.51213 17.2772 5.70713 17.0822L10.9571 11.8323C11.3481 11.4413 11.3481 10.8092 10.9571 10.4183Z" fill="black"/>
<path fill-rule="evenodd" clip-rule="evenodd" d="M19.0001 17.125H12.0001C11.4481 17.125 11.0001 17.573 11.0001 18.125C11.0001 18.677 11.4481 19.125 12.0001 19.125H19.0001C19.5521 19.125 20.0001 18.677 20.0001 18.125C20.0001 17.573 19.5521 17.125 19.0001 17.125Z" fill="black"/>
</svg>