<svg width="24" height="24" viewBox="0 0 24 24" fill="none" xmlns="http://www.w3.org/2000/svg">
<path d="M21 12C21 7.02908 16.9709 3 12 3C7.02908 3 3 7.02908 3 12C3 16.9709 7.02908 21 12 21C16.9709 21 21 16.9709 21 12Z" stroke="black" stroke-width="1.5" stroke-linecap="round" stroke-linejoin="round"/>
<path d="M14.6184 11.8516C15.2664 12.0909 15.6624 12.4217 15.6624 12.7983C15.6624 13.5406 14.0239 14.1449 11.9992 14.1449C9.97442 14.1449 8.33594 13.5406 8.33594 12.7983C8.33594 12.4217 8.73291 12.0909 9.38091 11.8516" stroke="black" stroke-width="1.5" stroke-linecap="round" stroke-linejoin="round"/>
<path d="M9.40039 8.99609H14.599" stroke="black" stroke-width="1.5" stroke-linecap="round" stroke-linejoin="round"/>
<path d="M12.0781 16.0278V8.99609" stroke="black" stroke-width="1.5" stroke-linecap="round" stroke-linejoin="round"/>
</svg>