<svg width="25" height="24" viewBox="0 0 25 24" fill="none" xmlns="http://www.w3.org/2000/svg">
<path opacity="0.4" fill-rule="evenodd" clip-rule="evenodd" d="M12.5 2.5C7.262 2.5 3 6.762 3 12C3 17.238 7.262 21.5 12.5 21.5C17.738 21.5 22 17.238 22 12C22 6.762 17.738 2.5 12.5 2.5Z" fill="black"/>
<path d="M13.3279 16.03V14.858C15.2199 14.713 16.9119 14.061 16.9119 12.8C16.9119 12.305 16.6459 11.616 15.3789 11.147C14.9909 11.004 14.5579 11.2 14.4149 11.589C14.2709 11.977 14.4689 12.409 14.8569 12.553C15.0999 12.643 15.2509 12.731 15.3379 12.795C15.0849 12.979 14.3929 13.249 13.3279 13.349V9.75H15.0989C15.5129 9.75 15.8489 9.414 15.8489 9C15.8489 8.586 15.5129 8.25 15.0989 8.25H9.89994C9.48594 8.25 9.14994 8.586 9.14994 9C9.14994 9.414 9.48594 9.75 9.89994 9.75H11.8279V13.363C10.6709 13.277 9.92594 12.988 9.66094 12.795C9.74694 12.731 9.89794 12.643 10.1409 12.553C10.5299 12.409 10.7279 11.977 10.5839 11.589C10.4409 11.201 10.0089 11.005 9.61994 11.147C8.35194 11.617 8.08594 12.305 8.08594 12.8C8.08594 14.096 9.87294 14.745 11.8279 14.865V16.03C11.8279 16.444 12.1639 16.78 12.5779 16.78C12.9919 16.78 13.3279 16.444 13.3279 16.03Z" fill="black"/>
</svg>