<svg width="25" height="25" viewBox="0 0 25 25" fill="none" xmlns="http://www.w3.org/2000/svg">
<path fill-rule="evenodd" clip-rule="evenodd" d="M10.0408 3.87109C10.455 3.87109 10.7908 4.20688 10.7908 4.62109V17.1657H13.0506C13.4648 17.1657 13.8006 17.5015 13.8006 17.9157C13.8006 18.3299 13.4648 18.6657 13.0506 18.6657H10.0456C10.044 18.6657 10.0424 18.6657 10.0408 18.6657C10.0392 18.6657 10.0376 18.6657 10.036 18.6657H7.15723C6.74301 18.6657 6.40723 18.3299 6.40723 17.9157C6.40723 17.5015 6.74301 17.1657 7.15723 17.1657H9.2908V4.62109C9.2908 4.20688 9.62659 3.87109 10.0408 3.87109Z" fill="black"/>
<path fill-rule="evenodd" clip-rule="evenodd" d="M19.4677 11.0156C19.6667 11.0156 19.8574 11.0946 19.9981 11.2353L22.0303 13.2675C22.3232 13.5604 22.3232 14.0353 22.0303 14.3281C21.7374 14.621 21.2625 14.621 20.9696 14.3281L20.2177 13.5763V19.0998L20.9696 18.348C21.2625 18.0551 21.7374 18.0551 22.0303 18.348C22.3232 18.6409 22.3232 19.1157 22.0303 19.4086L19.9981 21.4408C19.8574 21.5815 19.6667 21.6605 19.4677 21.6605C19.2688 21.6605 19.0781 21.5815 18.9374 21.4408L16.9052 19.4086C16.6123 19.1157 16.6123 18.6409 16.9052 18.348C17.1981 18.0551 17.673 18.0551 17.9659 18.348L18.7177 19.0998V13.5763L17.9659 14.3281C17.673 14.621 17.1981 14.621 16.9052 14.3281C16.6123 14.0353 16.6123 13.5604 16.9052 13.2675L18.9374 11.2353C19.0781 11.0946 19.2688 11.0156 19.4677 11.0156Z" fill="black"/>
<path fill-rule="evenodd" clip-rule="evenodd" d="M2.75 4.62109C2.75 4.20688 3.08579 3.87109 3.5 3.87109H16.7093C17.1235 3.87109 17.4593 4.20688 17.4593 4.62109V6.96421C17.4593 7.37843 17.1235 7.71421 16.7093 7.71421C16.295 7.71421 15.9593 7.37843 15.9593 6.96421V5.37109H4.25V6.96421C4.25 7.37843 3.91421 7.71421 3.5 7.71421C3.08579 7.71421 2.75 7.37843 2.75 6.96421V4.62109Z" fill="black"/>
</svg>