<svg width="24" height="24" viewBox="0 0 24 24" fill="none" xmlns="http://www.w3.org/2000/svg">
<path fill-rule="evenodd" clip-rule="evenodd" d="M9.54088 18.1494C8.98888 18.1494 8.54088 17.7024 8.54088 17.1494V4.85938H2.99988C2.44788 4.85938 1.99988 4.41237 1.99988 3.85938C1.99988 3.30638 2.44788 2.85938 2.99988 2.85938H16.2089C16.7609 2.85938 17.2089 3.30638 17.2089 3.85938C17.2089 4.41237 16.7609 4.85938 16.2089 4.85938H10.5409V17.1494C10.5409 17.7024 10.0929 18.1494 9.54088 18.1494Z" fill="black"/>
<path fill-rule="evenodd" clip-rule="evenodd" d="M18.9677 21.14C18.8337 21.14 18.7057 21.114 18.5897 21.066C18.5277 21.04 18.4677 21.009 18.4117 20.971C18.4107 20.971 18.4097 20.97 18.4087 20.97C18.4077 20.969 18.4077 20.968 18.4067 20.968C18.4057 20.967 18.4047 20.967 18.4047 20.966C18.4047 20.967 18.4027 20.966 18.4017 20.964C18.4007 20.964 18.3987 20.961 18.3987 20.962C18.3977 20.962 18.3977 20.961 18.3967 20.961C18.3957 20.961 18.3957 20.959 18.3937 20.959C18.3927 20.958 18.3907 20.957 18.3907 20.957C18.3897 20.956 18.3907 20.954 18.3877 20.955C18.3877 20.954 18.3867 20.954 18.3857 20.953C18.3847 20.952 18.3837 20.952 18.3837 20.952C18.3827 20.953 18.3817 20.95 18.3807 20.95C18.3797 20.95 18.3787 20.948 18.3777 20.948C18.3767 20.948 18.3757 20.946 18.3757 20.946C18.3747 20.946 18.3727 20.944 18.3727 20.944C18.3717 20.944 18.3707 20.944 18.3697 20.942C18.3697 20.942 18.3687 20.942 18.3687 20.941C18.3687 20.941 18.3677 20.943 18.3657 20.939C18.3657 20.939 18.3647 20.941 18.3637 20.937C18.3627 20.936 18.3627 20.938 18.3617 20.935C18.3607 20.935 18.3607 20.935 18.3597 20.934C18.3597 20.934 18.3587 20.936 18.3577 20.932C18.3567 20.932 18.3557 20.934 18.3547 20.93C18.3547 20.931 18.3527 20.93 18.3527 20.928C18.3517 20.929 18.3517 20.928 18.3497 20.926H18.3487C18.3487 20.924 18.3467 20.924 18.3467 20.924C18.3457 20.923 18.3437 20.922 18.3437 20.922C18.3427 20.921 18.3417 20.919 18.3417 20.92C18.3417 20.919 18.3407 20.919 18.3397 20.918C18.3407 20.918 18.3427 20.925 18.3377 20.916C18.3367 20.916 18.3367 20.918 18.3347 20.914C18.3347 20.914 18.3337 20.916 18.3327 20.912C18.3327 20.912 18.3317 20.91 18.3297 20.911C18.3297 20.911 18.3287 20.909 18.3277 20.909L18.3267 20.908C18.3257 20.908 18.3257 20.907 18.3247 20.907C18.3227 20.907 18.3217 20.904 18.3217 20.904C18.3217 20.904 18.3197 20.901 18.3197 20.902C18.3197 20.901 18.3187 20.901 18.3177 20.9C18.3167 20.899 18.3157 20.899 18.3157 20.898C18.3157 20.897 18.3137 20.897 18.3127 20.896C18.3117 20.895 18.3117 20.895 18.3107 20.894C18.3107 20.894 18.3117 20.892 18.3077 20.892C18.3077 20.892 18.3077 20.89 18.3057 20.89C18.3057 20.888 18.3047 20.888 18.3037 20.888C18.3017 20.887 18.3027 20.887 18.3007 20.885C18.3007 20.885 18.3007 20.885 18.2987 20.883C18.2977 20.882 18.2967 20.881 18.2967 20.881C18.2967 20.881 18.3007 20.878 18.2937 20.879C18.2927 20.879 18.2917 20.876 18.2907 20.876C18.2907 20.874 18.2907 20.873 18.2887 20.874C18.2877 20.873 18.2877 20.875 18.2857 20.871L18.2837 20.869C18.2817 20.869 18.2817 20.868 18.2817 20.868C18.2807 20.866 18.2787 20.866 18.2797 20.866C18.2787 20.864 18.2787 20.866 18.2767 20.863C18.2757 20.863 18.2757 20.861 18.2747 20.861C18.2727 20.861 18.2727 20.859 18.2727 20.859C18.2717 20.858 18.2697 20.859 18.2697 20.856C18.2687 20.856 18.2687 20.854 18.2677 20.854C18.2667 20.854 18.2667 20.853 18.2667 20.853C18.2667 20.853 18.2687 20.851 18.2647 20.852C18.2647 20.851 18.2647 20.851 18.2637 20.851L18.2627 20.85C18.2627 20.849 18.2627 20.849 18.2627 20.849C18.2627 20.848 18.2617 20.848 18.2607 20.848L16.2297 18.819C15.8387 18.428 15.8387 17.794 16.2287 17.404C16.6177 17.013 17.2507 17.013 17.6427 17.403L17.9677 17.728V13.413L17.6427 13.738C17.2527 14.128 16.6187 14.128 16.2287 13.738C15.8387 13.347 15.8387 12.713 16.2287 12.324L18.2587 10.295C18.2587 10.295 18.2597 10.294 18.2597 10.293C18.3567 10.198 18.4677 10.124 18.5867 10.076C18.6967 10.03 18.8177 10.003 18.9437 10H18.9907C19.1147 10.003 19.2347 10.029 19.3437 10.074C19.4637 10.122 19.5767 10.196 19.6747 10.293L21.7067 12.324C22.0977 12.713 22.0977 13.347 21.7077 13.738C21.3167 14.128 20.6827 14.128 20.2937 13.738L19.9677 13.412V17.728L20.2937 17.403C20.6847 17.014 21.3177 17.013 21.7077 17.404C22.0977 17.795 22.0967 18.428 21.7067 18.819L19.6747 20.848C19.6737 20.848 19.6737 20.848 19.6737 20.849C19.6737 20.849 19.6727 20.849 19.6727 20.85C19.6727 20.85 19.6717 20.851 19.6707 20.851V20.852C19.6697 20.852 19.6697 20.852 19.6697 20.853C19.6687 20.853 19.6667 20.855 19.6667 20.855C19.6667 20.856 19.6657 20.857 19.6647 20.857C19.6637 20.858 19.6637 20.858 19.6627 20.859C19.6627 20.859 19.6657 20.86 19.6607 20.861L19.6597 20.862C19.6597 20.862 19.6587 20.864 19.6577 20.864C19.6567 20.865 19.6547 20.866 19.6557 20.866C19.6547 20.867 19.6547 20.868 19.6537 20.868C19.6547 20.868 19.6557 20.869 19.6517 20.869C19.6517 20.87 19.6507 20.87 19.6507 20.87C19.6507 20.87 19.6497 20.871 19.6487 20.872C19.6487 20.872 19.6487 20.873 19.6467 20.874C19.6457 20.875 19.6447 20.876 19.6437 20.876C19.6427 20.878 19.6417 20.879 19.6417 20.879C19.6407 20.879 19.6397 20.88 19.6397 20.881C19.6397 20.881 19.6377 20.881 19.6367 20.883C19.6377 20.884 19.6357 20.884 19.6347 20.885C19.6337 20.886 19.6337 20.886 19.6327 20.887C19.6057 20.911 19.5767 20.934 19.5487 20.954C19.5477 20.955 19.5467 20.955 19.5457 20.956C19.5447 20.956 19.5437 20.957 19.5437 20.958C19.5427 20.958 19.5417 20.959 19.5407 20.959C19.5397 20.96 19.5387 20.961 19.5377 20.961C19.5367 20.962 19.5367 20.962 19.5357 20.963C19.5347 20.964 19.5337 20.964 19.5327 20.965C19.5337 20.965 19.5307 20.966 19.5307 20.967H19.5297C19.5297 20.967 19.5277 20.97 19.5277 20.969C19.5267 20.969 19.5267 20.97 19.5257 20.97C19.5257 20.971 19.5237 20.971 19.5227 20.972C19.5217 20.973 19.5187 20.973 19.5197 20.974C19.5187 20.975 19.5187 20.977 19.5167 20.976C19.5167 20.976 19.5157 20.977 19.5147 20.977C19.5147 20.977 19.5137 20.975 19.5127 20.979C19.5117 20.979 19.5117 20.98 19.5097 20.981C19.5107 20.982 19.5087 20.982 19.5077 20.982C19.5077 20.983 19.5067 20.983 19.5067 20.983C19.5047 20.983 19.5047 20.983 19.5037 20.985C19.5037 20.985 19.5027 20.985 19.5017 20.986C19.4997 20.989 19.4997 20.989 19.4987 20.988C19.4977 20.988 19.4957 20.99 19.4957 20.99C19.4957 20.99 19.4947 20.99 19.4937 20.991C19.4937 20.992 19.4927 20.992 19.4917 20.992C19.4907 20.993 19.4907 20.993 19.4907 20.993C19.4897 20.994 19.4887 20.994 19.4877 20.994C19.4867 20.994 19.4867 20.992 19.4857 20.996C19.4847 20.997 19.4827 20.998 19.4827 20.997C19.4817 20.997 19.4817 20.998 19.4807 20.998C19.4807 20.998 19.4797 20.998 19.4787 21C19.4777 21.001 19.4767 21.001 19.4757 21.001C19.4747 21.003 19.4737 21.003 19.4727 21.003C19.4727 21.003 19.4727 21.003 19.4707 21.004C19.4697 21.005 19.4687 21.006 19.4677 21.006C19.4667 21.006 19.4667 21.006 19.4657 21.008C19.4647 21.008 19.4637 21.008 19.4637 21.009C19.4637 21.009 19.4617 21.01 19.4607 21.01C19.4597 21.01 19.4587 21.01 19.4577 21.012C19.4567 21.013 19.4557 21.013 19.4547 21.013C19.4547 21.013 19.4537 21.015 19.4527 21.015C19.4517 21.016 19.4487 21.017 19.4487 21.017C19.4477 21.017 19.4467 21.018 19.4467 21.018C19.4457 21.019 19.4457 21.019 19.4447 21.02H19.4437C19.4427 21.02 19.4427 21.021 19.4417 21.021C19.4397 21.022 19.4377 21.022 19.4387 21.023C19.4377 21.023 19.4367 21.024 19.4357 21.024C19.4347 21.025 19.4337 21.025 19.4327 21.026C19.4067 21.039 19.3807 21.051 19.3547 21.063C19.2357 21.113 19.1047 21.14 18.9677 21.14Z" fill="black"/>
</svg>