<svg width="25" height="25" viewBox="0 0 25 25" fill="none" xmlns="http://www.w3.org/2000/svg">
<path fill-rule="evenodd" clip-rule="evenodd" d="M9.51982 5.89844C9.93404 5.89844 10.2698 6.23422 10.2698 6.64844V18.1337H12.2896C12.7038 18.1337 13.0396 18.4695 13.0396 18.8837C13.0396 19.2979 12.7038 19.6337 12.2896 19.6337H6.86621C6.452 19.6337 6.11621 19.2979 6.11621 18.8837C6.11621 18.4695 6.452 18.1337 6.86621 18.1337H8.76982V6.64844C8.76982 6.23422 9.10561 5.89844 9.51982 5.89844Z" fill="black"/>
<path fill-rule="evenodd" clip-rule="evenodd" d="M2.75 6.64844C2.75 6.23422 3.08579 5.89844 3.5 5.89844H15.6558C16.0701 5.89844 16.4058 6.23422 16.4058 6.64844V8.8047C16.4058 9.21891 16.0701 9.5547 15.6558 9.5547C15.2416 9.5547 14.9058 9.21891 14.9058 8.8047V7.39844H4.25V8.8047C4.25 9.21891 3.91421 9.5547 3.5 9.5547C3.08579 9.5547 2.75 9.21891 2.75 8.8047V6.64844Z" fill="black"/>
<path fill-rule="evenodd" clip-rule="evenodd" d="M15.4844 12.0048C15.7773 12.2977 15.7773 12.7726 15.4844 13.0655L14.8946 13.6553H19.6889L19.0991 13.0655C18.8062 12.7726 18.8062 12.2977 19.0991 12.0048C19.392 11.7119 19.8669 11.7119 20.1598 12.0048L22.0299 13.875C22.1706 14.0156 22.2496 14.2064 22.2496 14.4053C22.2496 14.6042 22.1706 14.795 22.0299 14.9356L20.1598 16.8057C19.8669 17.0986 19.392 17.0986 19.0991 16.8057C18.8062 16.5129 18.8062 16.038 19.0991 15.7451L19.6889 15.1553H14.8946L15.4844 15.7451C15.7773 16.038 15.7773 16.5129 15.4844 16.8057C15.1916 17.0986 14.7167 17.0986 14.4238 16.8057L12.5537 14.9356C12.2608 14.6427 12.2608 14.1678 12.5537 13.875L14.4238 12.0048C14.7167 11.7119 15.1916 11.7119 15.4844 12.0048Z" fill="black"/>
</svg>