<svg width="25" height="25" viewBox="0 0 25 25" fill="none" xmlns="http://www.w3.org/2000/svg">
<path fill-rule="evenodd" clip-rule="evenodd" d="M16.7176 16.5517C17.0105 16.2588 17.4853 16.2588 17.7782 16.5517L20.1198 18.8932C20.4127 19.1861 20.4127 19.661 20.1198 19.9539L17.7782 22.2954C17.4853 22.5883 17.0105 22.5883 16.7176 22.2954C16.4247 22.0025 16.4247 21.5277 16.7176 21.2348L17.7788 20.1736H5.41016C4.99594 20.1736 4.66016 19.8378 4.66016 19.4236C4.66016 19.0094 4.99594 18.6736 5.41016 18.6736H17.7788L16.7176 17.6124C16.4247 17.3195 16.4247 16.8446 16.7176 16.5517Z" fill="black"/>
<path fill-rule="evenodd" clip-rule="evenodd" d="M5.26855 7.41927C5.26855 4.9872 7.24013 3.01562 9.6722 3.01562H16.4575C16.8718 3.01562 17.2075 3.35141 17.2075 3.76562C17.2075 4.17984 16.8718 4.51562 16.4575 4.51562H9.6722C8.06856 4.51562 6.76855 5.81563 6.76855 7.41927C6.76855 9.02291 8.06856 10.3229 9.6722 10.3229H10.1942C10.6084 10.3229 10.9442 10.6587 10.9442 11.0729C10.9442 11.4871 10.6084 11.8229 10.1942 11.8229H9.6722C7.24013 11.8229 5.26855 9.85134 5.26855 7.41927Z" fill="black"/>
<path fill-rule="evenodd" clip-rule="evenodd" d="M14.3706 3.01562C14.7848 3.01562 15.1206 3.35141 15.1206 3.76562V15.2485C15.1206 15.6627 14.7848 15.9985 14.3706 15.9985C13.9564 15.9985 13.6206 15.6627 13.6206 15.2485V3.76562C13.6206 3.35141 13.9564 3.01562 14.3706 3.01562Z" fill="black"/>
<path fill-rule="evenodd" clip-rule="evenodd" d="M10.1948 3.01562C10.609 3.01562 10.9448 3.35141 10.9448 3.76562V15.2485C10.9448 15.6627 10.609 15.9985 10.1948 15.9985C9.78061 15.9985 9.44482 15.6627 9.44482 15.2485V3.76562C9.44482 3.35141 9.78061 3.01562 10.1948 3.01562Z" fill="black"/>
</svg>