<svg width="25" height="25" viewBox="0 0 25 25" fill="none" xmlns="http://www.w3.org/2000/svg">
<path fill-rule="evenodd" clip-rule="evenodd" d="M5.38672 10.2202C5.38672 7.34578 7.71687 5.01562 10.5913 5.01562H18.864C19.2782 5.01562 19.614 5.35141 19.614 5.76562C19.614 6.17984 19.2782 6.51562 18.864 6.51562H10.5913C8.5453 6.51562 6.88672 8.17421 6.88672 10.2202C6.88672 12.2661 8.5453 13.9247 10.5913 13.9247H11.2276C11.6418 13.9247 11.9776 14.2605 11.9776 14.6747C11.9776 15.0889 11.6418 15.4247 11.2276 15.4247H10.5913C7.71687 15.4247 5.38672 13.0946 5.38672 10.2202Z" fill="black"/>
<path fill-rule="evenodd" clip-rule="evenodd" d="M16.3181 5.01562C16.7323 5.01562 17.0681 5.35141 17.0681 5.76562V19.7656C17.0681 20.1798 16.7323 20.5156 16.3181 20.5156C15.9039 20.5156 15.5681 20.1798 15.5681 19.7656V5.76562C15.5681 5.35141 15.9039 5.01562 16.3181 5.01562Z" fill="black"/>
<path fill-rule="evenodd" clip-rule="evenodd" d="M11.2273 5.01562C11.6415 5.01562 11.9773 5.35141 11.9773 5.76562V19.7656C11.9773 20.1798 11.6415 20.5156 11.2273 20.5156C10.8131 20.5156 10.4773 20.1798 10.4773 19.7656V5.76562C10.4773 5.35141 10.8131 5.01562 11.2273 5.01562Z" fill="black"/>
</svg>