<svg width="25" height="25" viewBox="0 0 25 25" fill="none" xmlns="http://www.w3.org/2000/svg">
<path fill-rule="evenodd" clip-rule="evenodd" d="M9.07911 7.0869V19.1977C9.07911 19.6119 9.4149 19.9477 9.82911 19.9477C10.2433 19.9477 10.5791 19.6119 10.5791 19.1977V7.0869H16.2792C16.6934 7.0869 17.0292 6.75111 17.0292 6.3369C17.0292 5.92268 16.6934 5.5869 16.2792 5.5869H9.86739C9.85471 5.58626 9.84195 5.58594 9.82911 5.58594C9.81627 5.58594 9.80351 5.58626 9.79083 5.5869H3.5C3.08579 5.5869 2.75 5.92268 2.75 6.3369C2.75 6.75111 3.08579 7.0869 3.5 7.0869H9.07911Z" fill="black"/>
<path fill-rule="evenodd" clip-rule="evenodd" d="M17.9843 12.957C16.7579 12.957 15.7637 13.9513 15.7637 15.1777C15.7637 16.403 16.7577 17.3974 17.9843 17.3974C18.5611 17.3974 19.0865 17.1775 19.4813 16.8171C19.4906 16.808 19.5002 16.7991 19.5099 16.7905C19.938 16.3858 20.205 15.8128 20.205 15.1777C20.205 13.9513 19.2108 12.957 17.9843 12.957ZM21.0293 17.3156C21.455 16.7107 21.705 15.9734 21.705 15.1777C21.705 13.1228 20.0392 11.457 17.9843 11.457C15.9295 11.457 14.2637 13.1228 14.2637 15.1777C14.2637 17.2317 15.9296 18.8974 17.9843 18.8974C18.7004 18.8974 19.3693 18.6951 19.9369 18.3445L20.9709 19.3765C21.2641 19.6691 21.739 19.6687 22.0316 19.3755C22.3242 19.0823 22.3237 18.6074 22.0305 18.3148L21.0293 17.3156Z" fill="black"/>
</svg>