<svg width="25" height="24" viewBox="0 0 25 24" fill="none" xmlns="http://www.w3.org/2000/svg">
<path d="M20.7736 9.209L19.4446 10.539C20.0756 11.171 20.0756 12.195 19.4446 12.826C18.9966 13.273 18.2716 13.273 17.8246 12.826L12.1006 7.102C11.6526 6.655 11.6526 5.93 12.1006 5.482C12.7316 4.851 13.7556 4.851 14.3876 5.482L14.3886 5.483L15.8206 4.052C16.5156 3.357 17.4336 3 18.3516 3C19.3386 3 20.3116 3.399 21.0316 4.212C22.3006 5.644 22.1276 7.856 20.7736 9.209Z" stroke="black" stroke-width="1.5" stroke-linecap="round" stroke-linejoin="round"/>
<path opacity="0.4" d="M12.5007 7.5L6.70973 13.291C6.43073 13.57 6.25373 13.935 6.20773 14.326L6.01973 15.911C5.97273 16.303 5.79673 16.667 5.51773 16.946L4.43773 18.026C3.75773 18.706 3.75773 19.809 4.43773 20.488C5.11773 21.168 6.22073 21.168 6.90073 20.488L7.97973 19.409C8.25873 19.13 8.62373 18.953 9.01473 18.907L10.5997 18.719C10.9917 18.672 11.3567 18.495 11.6347 18.216L17.4257 12.425" stroke="black" stroke-width="1.5" stroke-linecap="round" stroke-linejoin="round"/>
<path opacity="0.4" d="M11.2344 15.3203L12.8834 16.9693" stroke="black" stroke-width="1.5" stroke-linecap="round" stroke-linejoin="round"/>
<path opacity="0.4" d="M13.3633 13.1914L15.0123 14.8404" stroke="black" stroke-width="1.5" stroke-linecap="round" stroke-linejoin="round"/>
</svg>