<svg width="25" height="25" viewBox="0 0 25 25" fill="none" xmlns="http://www.w3.org/2000/svg">
<path opacity="0.4" d="M19.808 9.61489C19.4932 8.42614 18.9979 7.40178 18.3238 6.55225C16.9577 4.83031 14.9597 3.94798 12.3854 3.92969H12.3751C9.80598 3.94792 7.83038 4.83361 6.50317 6.56212C5.32213 8.10029 4.71292 10.2405 4.69245 12.9234L4.69238 12.9297L4.69245 12.936C4.71292 15.6188 5.32213 17.7591 6.50317 19.2973C7.83038 21.0258 9.80598 21.9115 12.3751 21.9297H12.3854" stroke="black" stroke-width="1.5" stroke-linecap="round" stroke-linejoin="round"/>
<path d="M12.3854 21.9297C14.6695 21.9135 16.2795 21.3008 17.6058 19.9432C19.3452 18.1629 19.5231 15.2316 17.6058 13.5203C16.3057 12.3599 14.3375 12.1266 12.5735 12.2302C10.3937 12.3588 9.39937 13.6039 9.46077 14.7842C9.62002 17.8452 13.3518 18.1055 15.0592 15.8756C16.1691 14.4263 16.1843 12.5113 15.6183 10.7744C14.6663 7.85327 11.1967 7.88039 9.46077 10.0353" stroke="black" stroke-width="1.5" stroke-linecap="round" stroke-linejoin="round"/>
</svg>