<svg width="24" height="24" viewBox="0 0 24 24" fill="none" xmlns="http://www.w3.org/2000/svg">
<path opacity="0.4" d="M7.78216 3H16.2169C19.165 3 21 5.08119 21 8.02638V15.9736C21 18.9188 19.165 21 16.2159 21H7.78216C4.83405 21 3 18.9188 3 15.9736V8.02638C3 5.08119 4.84281 3 7.78216 3Z" stroke="black" stroke-width="1.5" stroke-linecap="round" stroke-linejoin="round"/>
<path d="M16.6182 9.97429C16.4258 9.24783 16.1231 8.62184 15.7112 8.10268C14.8763 7.05038 13.6554 6.51118 12.0821 6.5H12.0758C10.5058 6.51114 9.29852 7.05239 8.48745 8.10871C7.7657 9.0487 7.39341 10.3566 7.3809 11.9961L7.38086 12L7.3809 12.0039C7.39341 13.6434 7.7657 14.9513 8.48745 15.8913C9.29852 16.9476 10.5058 17.4889 12.0758 17.5H12.0821C13.478 17.4901 14.4619 17.1157 15.2724 16.286C16.3353 15.1981 16.4441 13.4068 15.2724 12.3609C14.4779 11.6518 13.2751 11.5092 12.1971 11.5725C10.865 11.6511 10.2574 12.412 10.2949 13.1333C10.3922 15.004 12.6727 15.163 13.7162 13.8003C14.3944 12.9146 14.4037 11.7444 14.0578 10.6829C13.4761 8.89775 11.3557 8.91433 10.2949 10.2312" stroke="black" stroke-width="1.5" stroke-linecap="round" stroke-linejoin="round"/>
</svg>