<svg width="24" height="24" viewBox="0 0 24 24" fill="none" xmlns="http://www.w3.org/2000/svg">
<path fill-rule="evenodd" clip-rule="evenodd" d="M12 3.75C7.44329 3.75 3.75 7.44329 3.75 12C3.75 16.5567 7.44329 20.25 12 20.25C16.5567 20.25 20.25 16.5567 20.25 12C20.25 7.44329 16.5567 3.75 12 3.75ZM2.25 12C2.25 6.61487 6.61487 2.25 12 2.25C17.3851 2.25 21.75 6.61487 21.75 12C21.75 17.3851 17.3851 21.75 12 21.75C6.61487 21.75 2.25 17.3851 2.25 12Z" fill="black"/>
<path fill-rule="evenodd" clip-rule="evenodd" d="M12.0758 5.75H12.0874C13.8442 5.76248 15.2977 6.37489 16.2987 7.63651C16.7833 8.24726 17.128 8.96999 17.3432 9.78231C17.4492 10.1827 17.2105 10.5933 16.8101 10.6993C16.4097 10.8053 15.9992 10.5667 15.8931 10.1663C15.7235 9.52568 15.4629 8.99641 15.1236 8.56884C14.4553 7.72642 13.4677 7.26044 12.0794 7.25C10.6955 7.26039 9.72609 7.727 9.08228 8.56547C8.49201 9.33423 8.14285 10.4633 8.13085 12C8.14285 13.5367 8.49201 14.6658 9.08228 15.4346C9.72609 16.273 10.6947 16.7396 12.0785 16.75C13.3163 16.7408 14.0934 16.4196 14.7359 15.7619C15.5079 14.9717 15.5654 13.7793 14.9028 13.0492C14.7905 13.4708 14.5999 13.8797 14.3116 14.2563C13.6248 15.1532 12.5249 15.5638 11.5431 15.4216C11.0443 15.3493 10.5554 15.1302 10.1799 14.7348C9.79975 14.3346 9.57842 13.7983 9.54585 13.1723C9.48034 11.913 10.5482 10.9185 12.1529 10.8238C12.5151 10.8026 12.9122 10.8013 13.3182 10.8397C13.1156 10.3006 12.7234 10.073 12.3006 10.0418C11.8212 10.0063 11.2613 10.2271 10.8789 10.7017C10.6191 11.0243 10.1469 11.0752 9.82434 10.8153C9.50177 10.5555 9.45092 10.0833 9.71077 9.76074C10.3892 8.91851 11.4199 8.47252 12.4113 8.54584C13.4401 8.62192 14.3825 9.25894 14.7708 10.4505C14.8565 10.7133 14.925 10.9888 14.9703 11.271C15.2555 11.4081 15.5261 11.5822 15.7718 11.8014C17.3183 13.1818 17.1154 15.4728 15.8088 16.8102C14.8307 17.8114 13.6398 18.239 12.0874 18.25L12.0821 18.25L12.0705 18.25C10.3157 18.2376 8.87048 17.6217 7.89255 16.3481C7.03972 15.2374 6.64431 13.7514 6.63089 12.0105C6.63089 12.0102 6.63089 12.0109 6.63089 12.0105L6.63086 12.0076V11.9924L6.63088 11.9904C6.64417 10.2491 7.03956 8.76286 7.89254 7.65195C8.87047 6.37832 10.3157 5.76247 12.0705 5.75002L12.0758 5.75ZM13.5092 12.3765C13.1189 12.3099 12.6882 12.295 12.241 12.3212C11.1817 12.3838 11.0343 12.911 11.0438 13.0943C11.0599 13.4037 11.1601 13.5888 11.2675 13.7018C11.3796 13.8198 11.5443 13.9061 11.7582 13.9371C12.2019 14.0013 12.764 13.8101 13.1206 13.3443C13.3321 13.0682 13.4597 12.7391 13.5092 12.3765Z" fill="black"/>
</svg>