<svg width="24" height="24" viewBox="0 0 24 24" fill="none" xmlns="http://www.w3.org/2000/svg">
<path d="M7.66113 9.93497C8.83842 9.93497 10.8971 6.176 11.7657 4.48084C11.9205 4.17862 11.998 4.02751 12.117 3.91155C12.2194 3.81188 12.3694 3.72067 12.505 3.6757C12.6627 3.62337 12.8013 3.62404 13.0785 3.62538C13.2856 3.62639 13.4889 3.63771 13.6399 3.66875C14.9438 3.93677 15.9601 5.52052 14.6451 9.60629C14.5978 9.75311 14.5742 9.82652 14.5882 9.88257C14.6011 9.93443 14.6326 9.97769 14.678 10.0059C14.7271 10.0363 14.8028 10.0363 14.9541 10.0363H16.0092C17.9908 10.0363 18.9816 10.0363 19.6561 10.4416C20.273 10.8124 20.726 11.4037 20.9233 12.096C21.139 12.8528 20.881 13.8094 20.365 15.7225L19.8833 17.5084C19.6101 18.5215 19.4734 19.0281 19.1864 19.4064C18.9221 19.7546 18.5689 20.0252 18.1638 20.1897C17.7238 20.3683 17.1992 20.3683 16.1498 20.3683H11.8799C11.5384 20.3683 11.3677 20.3683 11.2005 20.345C11.0458 20.3234 10.8935 20.2869 10.7457 20.2361C10.5861 20.1812 10.4338 20.104 10.1294 19.9494L7.66113 18.6963" stroke="black" stroke-width="1.5" stroke-linecap="round" stroke-linejoin="round"/>
<path d="M5.40568 8.71875H5.25571C4.47455 8.71875 4.08398 8.71875 3.78456 8.86836C3.50974 9.00568 3.28693 9.22849 3.14961 9.50331C3 9.80273 3 10.1933 3 10.9745V18.1165C3 18.8977 3 19.2883 3.14961 19.5877C3.28693 19.8625 3.50974 20.0853 3.78456 20.2226C4.08398 20.3722 4.47455 20.3722 5.25571 20.3722H5.40568C6.18684 20.3722 6.57742 20.3722 6.87683 20.2226C7.15165 20.0853 7.37447 19.8625 7.51179 19.5877C7.66139 19.2883 7.66139 18.8977 7.66139 18.1165V10.9745C7.66139 10.1933 7.66139 9.80273 7.51179 9.50331C7.37447 9.22849 7.15165 9.00568 6.87683 8.86836C6.57742 8.71875 6.18684 8.71875 5.40568 8.71875Z" stroke="black" stroke-width="1.5" stroke-linecap="round" stroke-linejoin="round"/>
</svg>