<svg width="24" height="24" viewBox="0 0 24 24" fill="none" xmlns="http://www.w3.org/2000/svg">
<path d="M18.856 15.2266H19.0867C19.7493 15.2266 20.0806 15.2266 20.3345 15.0997C20.5676 14.9832 20.7566 14.7942 20.8731 14.5611C21 14.3071 21 13.9758 21 13.3132V5.60784C21 4.94526 21 4.61397 20.8731 4.36C20.7566 4.1269 20.5676 3.9379 20.3345 3.82143C20.0806 3.69453 19.7493 3.69453 19.0867 3.69453H19.0867H18.856H18.856C17.8622 3.69453 17.3652 3.69453 16.9843 3.88488C16.6346 4.05959 16.3511 4.34308 16.1764 4.69274C15.9861 5.07369 15.9861 5.57063 15.9861 6.5645V12.3566C15.9861 13.3505 15.9861 13.8474 16.1764 14.2284C16.3511 14.578 16.6346 14.8615 16.9843 15.0362C17.3652 15.2266 17.8622 15.2266 18.856 15.2266Z" stroke="black" stroke-width="1.5" stroke-linecap="round" stroke-linejoin="round"/>
<path d="M18.6426 6.09935V6.10938" stroke="black" stroke-width="1.5" stroke-linecap="round" stroke-linejoin="round"/>
<path d="M15.9863 5.197L13.1799 4.03434C12.9199 3.92664 12.79 3.87279 12.6557 3.83463C12.5314 3.7993 12.4044 3.77404 12.276 3.7591C12.1374 3.74296 11.9967 3.74296 11.7153 3.74296H7.3077C6.67056 3.74296 6.35199 3.74296 6.05553 3.81964C5.78161 3.89049 5.52232 4.00909 5.28959 4.16999C5.03771 4.34412 4.82937 4.58514 4.41272 5.06715L3.93191 5.62338C3.59071 6.0181 3.42012 6.21546 3.29779 6.43803C3.18467 6.64386 3.10229 6.86514 3.05327 7.09483C3.00026 7.34321 3.00026 7.60408 3.00026 8.12582V10.3633C3.00026 11.5781 3.00026 12.1855 3.2329 12.6511C3.44644 13.0784 3.79293 13.4249 4.22029 13.6384C4.68589 13.8711 5.29326 13.8711 6.508 13.8711H10.103" stroke="black" stroke-width="1.5" stroke-linecap="round" stroke-linejoin="round"/>
<path d="M15.9863 14.0209C14.6135 14.0209 12.5306 15.4691 11.7199 19.1147C11.616 19.582 11.5033 20.0442 11.0076 20.2317C10.6666 20.3607 10.219 20.2937 9.86934 20.2219C8.53469 19.9475 7.50449 18.2802 9.01697 13.9207" stroke="black" stroke-width="1.5" stroke-linecap="round" stroke-linejoin="round"/>
</svg>