<svg width="25" height="24" viewBox="0 0 25 24" fill="none" xmlns="http://www.w3.org/2000/svg">
<path d="M14.5996 13.3705C13.9633 13.3705 12.8505 15.4024 12.381 16.3186C12.2973 16.482 12.2554 16.5637 12.1911 16.6264C12.1358 16.6802 12.0547 16.7295 11.9814 16.7538C11.8961 16.7821 11.8212 16.7818 11.6714 16.781C11.5594 16.7805 11.4495 16.7744 11.3679 16.7576C10.6631 16.6127 10.1138 15.7567 10.8246 13.5482C10.8501 13.4688 10.8629 13.4292 10.8554 13.3989C10.8484 13.3708 10.8313 13.3474 10.8068 13.3322C10.7803 13.3158 10.7394 13.3158 10.6576 13.3158H10.0872C9.01615 13.3158 8.48061 13.3158 8.11601 13.0967C7.78253 12.8963 7.53768 12.5766 7.43104 12.2025C7.31444 11.7934 7.4539 11.2763 7.73282 10.2422L7.99318 9.27691C8.14088 8.72927 8.21474 8.45545 8.3699 8.25097C8.51273 8.06274 8.70366 7.91648 8.9226 7.82759C9.16043 7.73103 9.44404 7.73103 10.0112 7.73103H12.3192C12.5038 7.73103 12.5961 7.73103 12.6865 7.74363C12.7701 7.7553 12.8525 7.77501 12.9323 7.80247C13.0186 7.83214 13.1009 7.87392 13.2655 7.95747L14.5996 8.63481" stroke="black" stroke-width="1.5" stroke-linecap="round" stroke-linejoin="round"/>
<path d="M15.8208 14.0273H15.9018C16.3241 14.0273 16.5352 14.0273 16.697 13.9465C16.8456 13.8723 16.966 13.7518 17.0402 13.6033C17.1211 13.4414 17.1211 13.2303 17.1211 12.8081V8.94758C17.1211 8.52535 17.1211 8.31423 17.0402 8.15239C16.966 8.00384 16.8456 7.8834 16.697 7.80918C16.5352 7.72831 16.3241 7.72831 15.9018 7.72831H15.8208C15.3985 7.72831 15.1874 7.72831 15.0256 7.80918C14.877 7.8834 14.7566 8.00384 14.6823 8.15239C14.6015 8.31423 14.6015 8.52535 14.6015 8.94758V12.8081C14.6015 13.2303 14.6015 13.4414 14.6823 13.6033C14.7566 13.7518 14.877 13.8723 15.0256 13.9465C15.1874 14.0273 15.3985 14.0273 15.8208 14.0273Z" stroke="black" stroke-width="1.5" stroke-linecap="round" stroke-linejoin="round"/>
<path opacity="0.4" fill-rule="evenodd" clip-rule="evenodd" d="M12.5 3C17.4709 3 21.5 7.03005 21.5 12C21.5 16.9709 17.4709 21 12.5 21C7.52908 21 3.5 16.9709 3.5 12C3.5 7.03005 7.52908 3 12.5 3Z" stroke="black" stroke-width="1.5" stroke-linecap="round" stroke-linejoin="round"/>
</svg>