<svg width="24" height="24" viewBox="0 0 24 24" fill="none" xmlns="http://www.w3.org/2000/svg">
<path d="M10.1528 18.8537C10.7238 18.8537 11.0098 18.8537 11.2488 18.7557C11.4688 18.6667 11.6608 18.5197 11.8048 18.3297C11.9608 18.1247 12.0358 17.8487 12.1838 17.2977L12.4458 16.3267C12.7268 15.2857 12.8668 14.7657 12.7498 14.3537C12.6428 13.9767 12.3958 13.6557 12.0608 13.4537C11.6938 13.2337 11.1548 13.2337 10.0768 13.2337H9.08684C8.90184 13.2337 8.86684 13.1617 8.91884 12.9997C9.63384 10.7767 9.26684 9.89173 8.55784 9.74573C8.28684 9.68973 8.17384 9.69273 7.95984 9.90173C7.26584 10.7197 6.09484 11.9997 5.45584 12.6927C5.29084 12.8717 5.20784 12.9617 5.14884 13.0627C5.09484 13.1567 5.05584 13.2567 5.03184 13.3627C5.00684 13.4767 5.00684 13.5977 5.00684 13.8397V16.8067C5.00684 17.5157 5.00684 17.8697 5.14284 18.1417C5.26684 18.3907 5.46884 18.5927 5.71884 18.7177C5.98984 18.8537 6.34484 18.8537 7.05284 18.8537" stroke="black" stroke-width="1.5" stroke-linecap="round" stroke-linejoin="round"/>
<path d="M13.8474 5.14453C13.2764 5.14453 12.9904 5.14453 12.7514 5.24153C12.5314 5.33053 12.3394 5.47753 12.1954 5.66753C12.0394 5.87353 11.9644 6.14853 11.8164 6.69953L11.5544 7.67153C11.2734 8.71153 11.1334 9.23253 11.2504 9.64353C11.3574 10.0205 11.6044 10.3415 11.9394 10.5435C12.3064 10.7645 12.8454 10.7645 13.9234 10.7645H14.9134C15.0984 10.7645 15.1344 10.8355 15.0814 10.9985C14.3664 13.2205 14.7334 14.1055 15.4424 14.2515C15.7134 14.3075 15.8264 14.3045 16.0404 14.0955C16.7344 13.2775 17.9054 11.9975 18.5444 11.3045C18.7094 11.1255 18.7924 11.0355 18.8514 10.9345C18.9054 10.8405 18.9444 10.7405 18.9684 10.6345C18.9934 10.5205 18.9934 10.3995 18.9934 10.1575V7.19053C18.9934 6.48153 18.9934 6.12753 18.8574 5.85553C18.7334 5.60653 18.5314 5.40453 18.2814 5.27953C18.0104 5.14453 17.6554 5.14453 16.9474 5.14453" stroke="black" stroke-width="1.5" stroke-linecap="round" stroke-linejoin="round"/>
<path d="M3.00098 18.6329V13.7109" stroke="black" stroke-width="1.5" stroke-linecap="round" stroke-linejoin="round"/>
<path d="M20.999 5.36719V10.2892" stroke="black" stroke-width="1.5" stroke-linecap="round" stroke-linejoin="round"/>
</svg>