<svg width="24" height="24" viewBox="0 0 24 24" fill="none" xmlns="http://www.w3.org/2000/svg">
<path fill-rule="evenodd" clip-rule="evenodd" d="M21.2483 11.2815C21.0072 10.8097 20.6192 10.4217 20.1578 10.191C19.6336 9.92889 18.9939 9.92889 17.6937 9.92889H15.8161C15.5285 9.92889 15.3264 9.64548 15.4111 9.37066C16.1128 7.09538 16.1669 5.34559 15.5651 4.28761C15.261 3.74236 14.7892 3.39633 14.202 3.28099C13.814 3.19711 13.3212 3.12371 12.9332 3.27051C12.3355 3.50119 12.2097 4.0779 12.1049 4.53927C11.7609 6.09203 10.8274 8.20667 9.41669 9.19975C9.25341 9.31469 9.17414 9.51975 9.21537 9.71513C9.32616 10.2402 9.32616 10.838 9.32616 11.6485V17.7197C9.32616 18.4647 9.32616 19.0292 9.24616 19.5201C9.21227 19.7279 9.3142 19.9406 9.50849 20.0219L10.6474 20.4984C10.9305 20.6138 11.0668 20.6767 11.2136 20.7186C11.3394 20.7501 11.4862 20.7815 11.633 20.8025C11.7903 20.813 11.9371 20.813 12.2412 20.813H16.8549C17.5364 20.813 17.872 20.813 18.197 20.7291C18.5011 20.6557 18.7947 20.5194 19.0464 20.3411C19.3295 20.1524 19.5602 19.8798 19.9901 19.3765L20.5039 18.7893C20.8604 18.3698 21.0386 18.1706 21.1749 17.919C21.3008 17.6988 21.3951 17.4471 21.4476 17.1954C21.5 16.9228 21.5 16.6397 21.5 16.084V13.7457C21.5 12.4454 21.5 11.8058 21.2483 11.2815Z" fill="black"/>
<path fill-rule="evenodd" clip-rule="evenodd" d="M4.97461 18.9981C4.53422 18.9981 4.18819 18.652 4.18819 18.2116V18.2011C4.18819 17.7712 4.53422 17.4147 4.97461 17.4147C5.40452 17.4147 5.76104 17.7712 5.76104 18.2011C5.76104 18.6311 5.40452 18.9981 4.97461 18.9981ZM7.55408 9.68681C7.37583 9.31981 7.07174 9.02621 6.71523 8.83747C6.31678 8.63824 5.79249 8.63824 4.74393 8.63824H4.50276C3.81071 8.63824 3.46468 8.63824 3.19205 8.77455C2.95088 8.90038 2.75166 9.09961 2.63631 9.34078C2.5 9.60292 2.5 9.94895 2.5 10.6515V18.7254C2.5 19.4175 2.5 19.774 2.63631 20.0361C2.75166 20.2773 2.95088 20.4765 3.19205 20.6024C3.46468 20.7282 3.81071 20.7282 4.50276 20.7282H4.74393C5.79249 20.7282 6.31678 20.7282 6.71523 20.5394C7.07174 20.3507 7.37583 20.0571 7.55408 19.6901C7.617 19.5643 7.65894 19.428 7.6904 19.2602C7.75331 18.9037 7.75331 18.4318 7.75331 17.7188V11.6476C7.75331 10.7668 7.75331 10.2635 7.62748 9.88603C7.60651 9.81263 7.58554 9.74972 7.55408 9.68681Z" fill="black"/>
</svg>