<svg width="25" height="24" viewBox="0 0 25 24" fill="none" xmlns="http://www.w3.org/2000/svg">
<path d="M14.5996 13.3744C13.9633 13.3744 12.8505 15.4063 12.381 16.3226C12.2973 16.4859 12.2554 16.5676 12.1911 16.6303C12.1358 16.6841 12.0547 16.7334 11.9814 16.7578C11.8961 16.786 11.8212 16.7857 11.6714 16.7849C11.5594 16.7844 11.4495 16.7783 11.3679 16.7615C10.6631 16.6166 10.1138 15.7606 10.8246 13.5521C10.8501 13.4727 10.8629 13.4331 10.8554 13.4028C10.8484 13.3747 10.8313 13.3514 10.8068 13.3361C10.7803 13.3197 10.7394 13.3197 10.6576 13.3197H10.0872C9.01615 13.3197 8.48061 13.3197 8.11601 13.1006C7.78253 12.9002 7.53768 12.5805 7.43104 12.2064C7.31444 11.7973 7.4539 11.2802 7.73282 10.2461L7.99318 9.28082C8.14088 8.73318 8.21474 8.45936 8.3699 8.25488C8.51273 8.06664 8.70366 7.92038 8.9226 7.8315C9.16043 7.73494 9.44404 7.73494 10.0112 7.73494H12.3192C12.5038 7.73494 12.5961 7.73494 12.6865 7.74754C12.7701 7.75921 12.8525 7.77891 12.9323 7.80638C13.0186 7.83605 13.1009 7.87782 13.2655 7.96137L14.5996 8.63871" stroke="black" stroke-width="1.5" stroke-linecap="round" stroke-linejoin="round"/>
<path d="M15.8208 14.0312H15.9018C16.3241 14.0312 16.5352 14.0313 16.697 13.9504C16.8456 13.8762 16.966 13.7557 17.0402 13.6072C17.1211 13.4453 17.1211 13.2342 17.1211 12.812V8.95149C17.1211 8.52925 17.1211 8.31814 17.0402 8.15629C16.966 8.00775 16.8456 7.88731 16.697 7.81308C16.5352 7.73222 16.3241 7.73222 15.9018 7.73222H15.8208C15.3985 7.73222 15.1874 7.73222 15.0256 7.81308C14.877 7.88731 14.7566 8.00775 14.6823 8.15629C14.6015 8.31814 14.6015 8.52925 14.6015 8.95149V12.812C14.6015 13.2342 14.6015 13.4453 14.6823 13.6072C14.7566 13.7557 14.877 13.8762 15.0256 13.9504C15.1874 14.0313 15.3985 14.0312 15.8208 14.0312Z" stroke="black" stroke-width="1.5" stroke-linecap="round" stroke-linejoin="round"/>
<path opacity="0.4" fill-rule="evenodd" clip-rule="evenodd" d="M16.7221 3H8.28384C5.34818 3 3.50586 5.08161 3.50586 8.02602V15.9692C3.50586 18.9146 5.3404 20.9952 8.28384 20.9952H16.7163C19.6665 20.9952 21.4943 18.9146 21.4943 15.9692V8.02602C21.504 5.08161 19.6704 3 16.7221 3Z" stroke="black" stroke-width="1.5" stroke-linecap="round" stroke-linejoin="round"/>
</svg>