<svg width="24" height="24" viewBox="0 0 24 24" fill="none" xmlns="http://www.w3.org/2000/svg">
<path fill-rule="evenodd" clip-rule="evenodd" d="M9.14879 11.1902C9.14879 10.9782 9.14879 10.7592 9.13379 10.6982C9.10979 10.7212 8.89079 10.7212 8.67879 10.7212H8.59779C8.38579 10.7212 8.16779 10.7212 8.10579 10.7362C8.12879 10.7592 8.12879 10.9782 8.12879 11.1902V15.0512C8.12879 15.2632 8.12879 15.4822 8.14379 15.5442C8.16579 15.5202 8.38579 15.5202 8.59779 15.5202C8.89179 15.5202 9.11179 15.5202 9.17379 15.5052C9.14879 15.4822 9.14879 15.2632 9.14879 15.0512V11.1902Z" fill="black"/>
<path fill-rule="evenodd" clip-rule="evenodd" d="M17.4945 13.94L17.2305 14.917C17.0675 15.521 16.9705 15.881 16.7265 16.202C16.5005 16.498 16.2015 16.727 15.8595 16.867C15.4855 17.017 15.1315 17.017 14.4885 17.017H12.1815C11.9435 17.017 11.8245 17.013 11.7085 16.997C11.5875 16.982 11.4585 16.951 11.3335 16.909C11.2135 16.868 11.1095 16.819 10.9125 16.719L10.3175 16.417C10.1775 16.599 10.0125 16.759 9.80849 16.861C9.48949 17.02 9.18349 17.02 8.67949 17.02C8.09349 17.02 7.78849 17.02 7.47049 16.862C7.17749 16.716 6.93549 16.475 6.78849 16.181C6.62849 15.861 6.62849 15.556 6.62849 15.051V11.19C6.62849 10.685 6.62849 10.38 6.78849 10.06C6.93749 9.76295 7.17249 9.52795 7.46949 9.37995C7.78649 9.22095 8.09249 9.22095 8.59849 9.22095H8.67949C9.16749 9.22095 9.49149 9.22095 9.81049 9.38195C9.91349 9.43295 9.99749 9.50795 10.0845 9.57895C10.3945 9.19695 10.8665 8.47995 11.4515 7.33695C11.5555 7.13495 11.6355 6.97895 11.7885 6.83195C11.9205 6.70395 12.1025 6.59195 12.2845 6.53195C12.4855 6.46495 12.6575 6.46795 12.8335 6.46695C12.9995 6.46795 13.1605 6.48095 13.2805 6.50495C13.7715 6.60595 14.1825 6.90395 14.4395 7.34295C14.7995 7.95995 14.8515 8.82895 14.5975 9.93195C15.6515 9.93295 16.2565 9.94995 16.7705 10.259C17.2685 10.558 17.6305 11.032 17.7895 11.59C17.9635 12.198 17.7975 12.817 17.4945 13.94ZM19.9695 3.95295C19.0235 3.00295 17.7275 2.50195 16.2225 2.50195H7.78449C4.62649 2.50195 2.50549 4.72295 2.50549 8.02895V15.971C2.50549 19.277 4.62649 21.498 7.78449 21.498H16.2155C19.3725 21.498 21.4945 19.277 21.4945 15.971V8.03095C21.4995 6.39295 20.9575 4.94495 19.9695 3.95295Z" fill="black"/>
<path fill-rule="evenodd" clip-rule="evenodd" d="M15.9975 11.5448C15.8105 11.4328 15.2245 11.4328 14.4135 11.4328H13.8415C13.7065 11.4328 13.5205 11.4328 13.3205 11.3178C13.1415 11.2158 12.9645 10.9768 12.9155 10.7748C12.8565 10.5528 12.9175 10.3578 12.9585 10.2278C13.4295 8.7648 13.2195 8.2298 13.1435 8.0998C13.1015 8.0258 13.0545 7.9908 12.9815 7.9758C12.9365 7.9688 12.8745 7.9648 12.8135 7.9678L12.7885 8.0198C11.8005 9.9488 11.1205 10.7678 10.6485 11.1178C10.6485 11.1428 10.6485 11.1638 10.6485 11.1908V14.9028L11.5745 15.3728C11.6995 15.4368 11.7545 15.4678 11.8145 15.4888C11.8375 15.4958 11.8725 15.5058 11.9095 15.5108C11.9825 15.5198 12.0475 15.5178 12.1815 15.5178H14.4885C14.8985 15.5178 15.1945 15.5178 15.2965 15.4768C15.3885 15.4398 15.4705 15.3758 15.5335 15.2928C15.5985 15.2068 15.6755 14.9238 15.7815 14.5318L16.0425 13.5618C16.2555 12.7728 16.4075 12.2108 16.3475 12.0028C16.2925 11.8108 16.1685 11.6488 15.9975 11.5448Z" fill="black"/>
</svg>