<svg width="25" height="24" viewBox="0 0 25 24" fill="none" xmlns="http://www.w3.org/2000/svg">
<path fill-rule="evenodd" clip-rule="evenodd" d="M4.25098 11.7609V6.83789C4.25098 6.42389 3.91498 6.08789 3.50098 6.08789C3.08698 6.08789 2.75098 6.42389 2.75098 6.83789V11.7609C2.75098 12.1749 3.08698 12.5109 3.50098 12.5109C3.91498 12.5109 4.25098 12.1749 4.25098 11.7609Z" fill="black"/>
<path fill-rule="evenodd" clip-rule="evenodd" d="M21.4991 14.041C21.0851 14.041 20.7491 14.377 20.7491 14.791V19.713C20.7491 20.127 21.0851 20.463 21.4991 20.463C21.9131 20.463 22.2491 20.127 22.2491 19.713V14.791C22.2491 14.377 21.9131 14.041 21.4991 14.041Z" fill="black"/>
<path fill-rule="evenodd" clip-rule="evenodd" d="M21.1689 6.12293C20.8989 5.80693 20.4269 5.76993 20.1109 6.03993L19.0999 6.90293C18.7849 7.17193 18.7469 7.64493 19.0169 7.96093C19.1649 8.13492 19.3749 8.22393 19.5869 8.22393C19.7599 8.22393 19.9329 8.16493 20.0739 8.04393L21.0859 7.18093C21.3999 6.91193 21.4389 6.43793 21.1689 6.12293Z" fill="black"/>
<path fill-rule="evenodd" clip-rule="evenodd" d="M5.02924 16.2037L4.01724 17.0667C3.70324 17.3357 3.66524 17.8087 3.93424 18.1247C4.08324 18.2987 4.29324 18.3877 4.50524 18.3877C4.67724 18.3877 4.85024 18.3287 4.99224 18.2077L6.00424 17.3447C6.31824 17.0757 6.35624 16.6017 6.08724 16.2867C5.81724 15.9717 5.34424 15.9337 5.02924 16.2037Z" fill="black"/>
<path fill-rule="evenodd" clip-rule="evenodd" d="M16.8261 6.34981C16.9101 6.37981 16.9951 6.39381 17.0791 6.39381C17.3871 6.39381 17.6761 6.20381 17.7851 5.89681L18.2331 4.64481C18.3731 4.25481 18.1701 3.82581 17.7801 3.68581C17.3871 3.54381 16.9601 3.74781 16.8211 4.13881L16.3731 5.39081C16.2331 5.78081 16.4361 6.20981 16.8261 6.34981Z" fill="black"/>
<path fill-rule="evenodd" clip-rule="evenodd" d="M8.27636 17.898C7.88736 17.755 7.45736 17.961 7.31836 18.352L6.87136 19.604C6.73136 19.994 6.93436 20.423 7.32536 20.562C7.40836 20.592 7.49336 20.606 7.57736 20.606C7.88436 20.606 8.17336 20.415 8.28336 20.108L8.73036 18.856C8.87036 18.466 8.66736 18.037 8.27636 17.898Z" fill="black"/>
<g opacity="0.4">
<path fill-rule="evenodd" clip-rule="evenodd" d="M12.3048 12.0094C12.4608 11.8044 12.5358 11.5284 12.6838 10.9774L12.9458 10.0064C13.2268 8.96542 13.3668 8.44542 13.2498 8.03342C13.1428 7.65642 12.8958 7.33542 12.5608 7.13342C12.1938 6.91342 11.6548 6.91342 10.5768 6.91342H9.58684C9.40184 6.91342 9.36684 6.84142 9.41884 6.67942C10.1338 4.45642 9.76684 3.57142 9.05784 3.42542C8.78684 3.36942 8.67384 3.37242 8.45984 3.58142C7.76584 4.39942 6.59484 5.67942 5.95584 6.37242C5.79084 6.55242 5.70784 6.64142 5.64884 6.74242C5.59484 6.83642 5.55584 6.93642 5.53184 7.04242C5.50684 7.15642 5.50684 7.27742 5.50684 7.51942V10.4864C5.50684 11.1954 5.50684 11.5494 5.64284 11.8214C5.76684 12.0704 5.96884 12.2724 6.21884 12.3974C6.48984 12.5334 6.84484 12.5334 7.55284 12.5334H10.6528C11.2238 12.5334 11.5098 12.5334 11.7488 12.4354C11.9688 12.3464 12.1608 12.1994 12.3048 12.0094Z" fill="black"/>
<path fill-rule="evenodd" clip-rule="evenodd" d="M19.3509 14.6438C19.2919 14.5428 19.2089 14.4538 19.0439 14.2748C18.4049 13.5818 17.2339 12.3008 16.5399 11.4828C16.3259 11.2748 16.2129 11.2718 15.9419 11.3278C15.2329 11.4728 14.8659 12.3588 15.5809 14.5808C15.6339 14.7428 15.5979 14.8148 15.4129 14.8148H14.4229C13.3449 14.8148 12.8059 14.8148 12.4389 15.0348C12.1039 15.2368 11.8569 15.5588 11.7499 15.9348C11.6329 16.3468 11.7729 16.8668 12.0539 17.9078L12.3159 18.8788C12.4639 19.4298 12.5389 19.7058 12.6949 19.9118C12.8389 20.1008 13.0309 20.2478 13.2509 20.3378C13.4899 20.4348 13.7759 20.4348 14.3469 20.4348H17.4469C18.1549 20.4348 18.5099 20.4348 18.7809 20.2988C19.0309 20.1748 19.2329 19.9728 19.3569 19.7228C19.4929 19.4518 19.4929 19.0968 19.4929 18.3878V15.4218C19.4929 15.1798 19.4929 15.0578 19.4679 14.9438C19.4439 14.8378 19.4049 14.7378 19.3509 14.6438Z" fill="black"/>
</g>
</svg>