<svg width="25" height="24" viewBox="0 0 25 24" fill="none" xmlns="http://www.w3.org/2000/svg">
<path opacity="0.4" fill-rule="evenodd" clip-rule="evenodd" d="M20.4694 3.951C19.5234 3.001 18.2274 2.5 16.7224 2.5H8.28437C5.12637 2.5 3.00537 4.721 3.00537 8.027V15.969C3.00537 19.275 5.12637 21.496 8.28437 21.496H16.7154C19.8724 21.496 21.9944 19.275 21.9944 15.969V8.029C21.9994 6.391 21.4574 4.943 20.4694 3.951Z" fill="black"/>
<path fill-rule="evenodd" clip-rule="evenodd" d="M17.7109 13.9444C17.8709 13.6244 17.8709 13.3194 17.8709 12.8144V8.95337C17.8709 8.44837 17.8709 8.14337 17.7109 7.82337C17.5639 7.52938 17.3219 7.28837 17.0299 7.14237C16.7109 6.98438 16.4059 6.98438 15.8209 6.98438C15.3159 6.98438 15.0109 6.98438 14.6909 7.14337C14.4869 7.24538 14.3219 7.40538 14.1819 7.58738L13.5869 7.28538C13.3899 7.18538 13.2869 7.13637 13.1659 7.09538C13.0409 7.05337 12.9129 7.02238 12.7909 7.00737C12.6749 6.99137 12.5569 6.98737 12.3189 6.98737H10.0109C9.36888 6.98737 9.01488 6.98737 8.64089 7.13737C8.29889 7.27738 7.99889 7.50637 7.77289 7.80237C7.52989 8.12337 7.43189 8.48338 7.26888 9.08737L7.00489 10.0644L7.00345 10.0697C6.70236 11.1893 6.53616 11.8073 6.70988 12.4144C6.86889 12.9724 7.23088 13.4464 7.72889 13.7454C8.24288 14.0544 8.84788 14.0714 9.90289 14.0724C9.64789 15.1754 9.70089 16.0444 10.0609 16.6624C10.3169 17.1004 10.7279 17.3984 11.2189 17.4994C11.3569 17.5264 11.5469 17.5374 11.7349 17.5374C11.8889 17.5374 12.0399 17.5304 12.2149 17.4724C12.3949 17.4134 12.5769 17.3024 12.7109 17.1724C12.8633 17.026 12.9432 16.8706 13.0466 16.6698L13.0479 16.6674C13.6329 15.5244 14.1049 14.8074 14.4149 14.4254L14.4486 14.4531C14.5242 14.5154 14.6001 14.578 14.6889 14.6224C15.0089 14.7834 15.3319 14.7834 15.8209 14.7834H15.9019C16.4079 14.7834 16.7129 14.7834 17.0299 14.6244C17.3269 14.4764 17.5619 14.2414 17.7109 13.9444ZM16.3559 8.45996C16.3709 8.52096 16.3709 8.73996 16.3709 8.95196V12.813C16.3709 13.025 16.3709 13.244 16.3939 13.267C16.3319 13.282 16.1139 13.282 15.9019 13.282H15.8209C15.6089 13.282 15.3899 13.282 15.3659 13.306C15.3509 13.244 15.3509 13.025 15.3509 12.813V8.95196C15.3509 8.73996 15.3509 8.52096 15.3259 8.49796C15.3879 8.48296 15.6079 8.48296 15.9019 8.48296C16.1139 8.48296 16.3339 8.48296 16.3559 8.45996ZM13.8509 9.10021V12.8132C13.8509 12.8268 13.8511 12.8387 13.8514 12.8504C13.8516 12.8619 13.8519 12.8733 13.8519 12.8862C13.3789 13.2362 12.6989 14.0542 11.7119 15.9842L11.6859 16.0362C11.6612 16.0346 11.6364 16.0341 11.6126 16.0337H11.6125C11.5775 16.033 11.5447 16.0324 11.5179 16.0282C11.4459 16.0122 11.3989 15.9772 11.3559 15.9042C11.2809 15.7742 11.0699 15.2392 11.5409 13.7762C11.5819 13.6462 11.6429 13.4512 11.5839 13.2282C11.5359 13.0272 11.3579 12.7882 11.1789 12.6852C10.9789 12.5712 10.7929 12.5712 10.6579 12.5712H10.0869C9.2749 12.5712 8.6889 12.5712 8.5019 12.4592C8.3309 12.3552 8.2069 12.1932 8.1519 12.0012C8.0929 11.7922 8.2439 11.2312 8.4569 10.4422L8.7189 9.47121L8.72612 9.44455L8.72613 9.44454C8.82837 9.06732 8.90238 8.79425 8.96589 8.71021C9.02889 8.62721 9.1119 8.56421 9.2039 8.52721C9.30589 8.48621 9.60089 8.48621 10.0109 8.48621H10.0109H12.3189L12.3625 8.48584C12.4664 8.48491 12.5255 8.48438 12.5909 8.49321C12.6269 8.49821 12.6629 8.50721 12.6849 8.51421C12.7313 8.53096 12.7743 8.55292 12.8473 8.59024L12.8473 8.59026C12.8702 8.60197 12.8961 8.61518 12.9259 8.63021L13.8509 9.10021Z" fill="black"/>
</svg>