<svg width="25" height="24" viewBox="0 0 25 24" fill="none" xmlns="http://www.w3.org/2000/svg">
<path fill-rule="evenodd" clip-rule="evenodd" d="M5.13865 9.24896C4.86697 9.22713 4.51364 9.22656 3.9834 9.22656C3.56918 9.22656 3.2334 8.89078 3.2334 8.47656C3.2334 8.06235 3.56918 7.72656 3.9834 7.72656C3.9933 7.72656 4.00318 7.72656 4.01302 7.72656C4.50588 7.72655 4.91987 7.72654 5.2588 7.75378C5.61303 7.78225 5.94967 7.84403 6.27003 8.0041C6.77985 8.25884 7.1932 8.67219 7.44794 9.18201C7.60802 9.50237 7.6698 9.83901 7.69826 10.1932C7.7255 10.5322 7.72549 10.9462 7.72548 11.439V17.5368C7.72549 18.0296 7.7255 18.4436 7.69826 18.7826C7.6698 19.1368 7.60802 19.4734 7.44794 19.7938C7.1932 20.3036 6.77985 20.717 6.27003 20.9717C5.94967 21.1318 5.61303 21.1936 5.2588 21.222C4.91988 21.2493 4.50589 21.2493 4.01304 21.2492H3.9834C3.56919 21.2492 3.2334 20.9135 3.2334 20.4992C3.2334 20.085 3.56919 19.7492 3.9834 19.7492C4.51364 19.7492 4.86698 19.7487 5.13865 19.7269C5.40179 19.7057 5.52277 19.6683 5.59956 19.6299C5.81881 19.5203 5.99657 19.3426 6.10612 19.1233C6.1445 19.0465 6.18194 18.9256 6.20308 18.6624C6.22492 18.3907 6.22548 18.0374 6.22548 17.5072V11.4686C6.22548 10.9384 6.22492 10.5851 6.20308 10.3134C6.18194 10.0503 6.1445 9.92928 6.10612 9.85248C5.99657 9.63323 5.81881 9.45547 5.59956 9.34592C5.52277 9.30755 5.40179 9.27011 5.13865 9.24896Z" fill="black"/>
<path fill-rule="evenodd" clip-rule="evenodd" d="M11.9096 2.7985C11.9944 2.76643 12.0843 2.75 12.175 2.75C13.2807 2.75 14.1342 3.14003 14.7225 3.81387C15.2883 4.46199 15.5451 5.29924 15.6368 6.09919C15.7294 6.90588 15.6625 7.74146 15.5203 8.46231C15.4744 8.69461 15.4193 8.92212 15.3564 9.13867H16.8584C17.9209 9.13867 18.7854 9.34485 19.4645 9.77087C20.1535 10.2031 20.5813 10.8175 20.8419 11.5005C21.0969 12.1688 21.1965 12.9135 21.2381 13.6449C21.2712 14.227 21.2688 14.8424 21.2665 15.4351C21.2659 15.5846 21.2653 15.7327 21.2653 15.8784C21.2653 17.4679 20.7511 18.8138 19.7961 19.7637C18.8425 20.7122 17.5178 21.1977 16.0246 21.1977H11.4295C10.5127 21.1977 9.63861 20.9191 8.85956 20.5988C8.46739 20.4376 8.08346 20.2588 7.72319 20.0905L7.69394 20.0769C7.33902 19.9111 7.0092 19.7571 6.6897 19.6247C6.30703 19.4662 6.12533 19.0274 6.28387 18.6448C6.4424 18.2621 6.88114 18.0804 7.26381 18.2389C7.61465 18.3843 7.97131 18.5509 8.31626 18.712L8.35791 18.7315C8.72156 18.9013 9.07501 19.0656 9.42996 19.2115C10.1451 19.5056 10.8042 19.6977 11.4295 19.6977H16.0246C17.1907 19.6977 18.1113 19.3238 18.7383 18.7002C19.3639 18.0779 19.7653 17.1392 19.7653 15.8784C19.7653 15.7185 19.7659 15.5609 19.7665 15.4055C19.7687 14.8182 19.7708 14.2621 19.7405 13.73C19.7024 13.0593 19.615 12.4925 19.4405 12.0353C19.2716 11.5928 19.0276 11.2675 18.6674 11.0415C18.2972 10.8093 17.735 10.6387 16.8584 10.6387H14.2426C13.9713 10.6387 13.7211 10.4921 13.5884 10.2554C13.4557 10.0187 13.4612 9.72883 13.6028 9.49735C13.7468 9.26202 13.927 8.7881 14.0486 8.17185C14.1679 7.56741 14.2178 6.89076 14.1466 6.27017C14.0746 5.64284 13.8871 5.13775 13.5925 4.80035C13.3393 4.51022 12.9553 4.28335 12.3206 4.25337C12.2985 4.26466 12.2826 4.27419 12.2713 4.28169C12.2592 4.28983 12.2528 4.29532 12.2501 4.29787C12.2475 4.30027 12.2463 4.30174 12.2453 4.30304C12.239 4.31142 12.2074 4.35669 12.1568 4.58419C11.2725 8.56069 8.90616 10.4819 6.97676 10.4819C6.56255 10.4819 6.22676 10.1461 6.22676 9.73185C6.22676 9.31764 6.56255 8.98185 6.97676 8.98185C7.90988 8.98185 9.88651 7.88338 10.6926 4.25858C10.7503 3.99882 10.8355 3.68115 11.048 3.39952C11.2736 3.10057 11.5766 2.92446 11.9096 2.7985Z" fill="black"/>
</svg>