<svg width="24" height="24" viewBox="0 0 24 24" fill="none" xmlns="http://www.w3.org/2000/svg">
<path d="M18.6355 15.3438C19.2058 15.3438 19.491 15.3438 19.7242 15.278C20.3105 15.1125 20.7688 14.6543 20.9342 14.0679C21 13.8347 21 13.5496 21 12.9794C21 10.6018 21 8.13125 21 5.75359C21 5.18338 21 4.89828 20.9342 4.66506C20.7688 4.07872 20.3105 3.62047 19.7242 3.45505C19.491 3.38925 19.2058 3.38925 18.6355 3.38925C18.0651 3.38925 17.78 3.38925 17.5468 3.45505C16.9604 3.62047 16.5022 4.07872 16.3367 4.66506C16.2709 4.89828 16.2709 5.18338 16.2709 5.75359C16.2709 8.13125 16.2709 10.6018 16.2709 12.9794C16.2709 13.5496 16.2709 13.8347 16.3367 14.0679C16.5022 14.6543 16.9604 15.1125 17.5468 15.278C17.78 15.3438 18.0651 15.3438 18.6355 15.3438Z" stroke="black" stroke-width="1.5" stroke-linecap="round" stroke-linejoin="round"/>
<path d="M16.2715 14.2623C14.8258 16.1316 13.3916 18.0104 11.934 19.8704C11.4722 20.4596 10.6636 20.7565 9.93772 20.5454C8.31866 20.0748 8.73198 17.2034 9.15539 15.6805C9.46937 14.5512 9.08762 14.1595 8.16829 14.1595C6.15797 14.1595 5.20276 14.1595 4.51844 13.7483C3.89254 13.3722 3.43297 12.7722 3.23282 12.07C2.81548 10.6058 2.95923 7.81658 3.67445 5.87257C4.15764 4.55923 5.52051 3.65601 6.70096 3.525C8.29505 3.34808 10.52 3.41189 12.1999 3.50517C13.7436 3.59088 15.1812 4.27766 16.2715 5.37386" stroke="black" stroke-width="1.5" stroke-linecap="round" stroke-linejoin="round"/>
</svg>