<svg width="25" height="24" viewBox="0 0 25 24" fill="none" xmlns="http://www.w3.org/2000/svg">
<path fill-rule="evenodd" clip-rule="evenodd" d="M18.9814 16.0937C18.9498 16.0937 18.9178 16.0936 18.8854 16.0936C18.853 16.0936 18.821 16.0937 18.7894 16.0937C18.3143 16.0941 17.9289 16.0944 17.593 15.9997C16.7556 15.7634 16.1011 15.1089 15.8648 14.2715C15.77 13.9356 15.7704 13.5502 15.7708 13.0753C15.7708 13.0437 15.7708 13.0117 15.7708 12.9793V5.75348C15.7708 5.72109 15.7708 5.6891 15.7708 5.65751C15.7704 5.18258 15.77 4.79723 15.8648 4.46131C16.1011 3.62387 16.7556 2.96938 17.593 2.73312C17.9289 2.63834 18.3143 2.63868 18.7894 2.63909C18.821 2.63911 18.853 2.63914 18.8854 2.63914C18.9178 2.63914 18.9498 2.63911 18.9814 2.63909C19.4564 2.63868 19.8418 2.63834 20.1777 2.73312C21.0152 2.96938 21.6697 3.62387 21.9059 4.46131C22.0007 4.79723 22.0004 5.18258 21.9999 5.65751C21.9999 5.6891 21.9999 5.72109 21.9999 5.75348V12.9793C21.9999 13.0117 21.9999 13.0437 21.9999 13.0753C22.0004 13.5502 22.0007 13.9356 21.9059 14.2715C21.6697 15.1089 21.0152 15.7634 20.1777 15.9997C19.8418 16.0944 19.4564 16.0941 18.9814 16.0937ZM18.8854 14.5936C19.5065 14.5936 19.6623 14.5865 19.7704 14.556C20.1057 14.4614 20.3677 14.1994 20.4623 13.8642C20.4928 13.756 20.4999 13.6003 20.4999 12.9793V5.75348C20.4999 5.13248 20.4928 4.97677 20.4623 4.8686C20.3677 4.53335 20.1057 4.27135 19.7704 4.17676C19.6623 4.14625 19.5065 4.13914 18.8854 4.13914C18.2642 4.13914 18.1085 4.14625 18.0003 4.17676C17.665 4.27135 17.403 4.53335 17.3085 4.8686C17.2779 4.97677 17.2708 5.13248 17.2708 5.75348V12.9793C17.2708 13.6003 17.2779 13.756 17.3085 13.8642C17.403 14.1994 17.665 14.4614 18.0003 14.556C18.1085 14.5865 18.2642 14.5936 18.8854 14.5936Z" fill="black"/>
<path fill-rule="evenodd" clip-rule="evenodd" d="M12.7743 20.3325C12.1401 21.1417 11.0234 21.569 9.97833 21.2652C8.66126 20.8823 8.32971 19.5548 8.28144 18.5428C8.22997 17.4637 8.46049 16.2786 8.68276 15.4792C8.74949 15.2392 8.76609 15.0828 8.76322 14.989C8.76269 14.9718 8.76156 14.958 8.76026 14.9471C8.7048 14.9289 8.59858 14.9091 8.41826 14.9091H8.38095C7.40763 14.9091 6.63848 14.9091 6.02937 14.8547C5.40343 14.7988 4.86401 14.6803 4.38209 14.3907C3.59311 13.9166 3.01381 13.1604 2.7615 12.2751C2.51988 11.4274 2.45451 10.2683 2.53048 9.10201C2.60705 7.9265 2.83208 6.66903 3.22054 5.61318C3.81257 4.00401 5.4374 2.93794 6.8682 2.77914C8.53007 2.5947 10.8101 2.66253 12.4915 2.75589C14.2333 2.8526 15.842 3.62667 17.0532 4.84454C17.3453 5.13823 17.344 5.6131 17.0503 5.9052C16.7566 6.19729 16.2818 6.196 15.9897 5.90231C15.0204 4.92779 13.7539 4.32829 12.4083 4.25358C10.73 4.16039 8.55996 4.10059 7.03366 4.26999C6.10354 4.37322 5.00264 5.11358 4.62829 6.1311C4.30153 7.01926 4.09708 8.12839 4.02731 9.19952C3.95693 10.2799 4.02835 11.2475 4.20406 11.864L3.48278 12.0696L4.20406 11.864C4.35206 12.3833 4.69189 12.8269 5.15471 13.105C5.35711 13.2266 5.63746 13.3138 6.16279 13.3607C6.69719 13.4084 7.39894 13.4091 8.41826 13.4091C8.93079 13.4091 9.58989 13.5087 9.9842 14.0596C10.3661 14.5932 10.2966 15.2746 10.1279 15.881C9.92681 16.6044 9.73896 17.6164 9.77974 18.4714C9.82373 19.3935 10.095 19.737 10.397 19.8248C10.8038 19.9431 11.3041 19.7767 11.5936 19.4073C12.5639 18.1692 13.5222 16.9248 14.4827 15.6775C14.9633 15.0532 15.4446 14.4283 15.9282 13.8031C16.1816 13.4754 16.6526 13.4152 16.9803 13.6686C17.3079 13.9221 17.3681 14.3931 17.1147 14.7208C16.6353 15.3406 16.1562 15.9628 15.6765 16.5857C14.7135 17.8362 13.7483 19.0896 12.7743 20.3325ZM8.75354 14.9136C8.75357 14.9136 8.75382 14.9141 8.75424 14.9154L8.75354 14.9136Z" fill="black"/>
</svg>