<svg width="24" height="24" viewBox="0 0 24 24" fill="none" xmlns="http://www.w3.org/2000/svg">
<path fill-rule="evenodd" clip-rule="evenodd" d="M21.4171 12.1086C21.2166 11.3697 20.731 10.7469 20.087 10.3563C19.3692 9.93401 18.3241 9.93401 16.2339 9.93401H15.1149C14.9566 9.93401 14.8827 9.93401 14.8299 9.90234C14.7896 9.87815 14.7616 9.84164 14.7459 9.80222C14.7364 9.77826 14.7284 9.75295 14.7283 9.72716C14.7281 9.67386 14.7566 9.59668 14.7982 9.48008C16.1811 5.16251 15.1044 3.49459 13.732 3.20957C13.5737 3.1779 13.3626 3.16734 13.1409 3.16734C12.8453 3.15679 12.6975 3.15679 12.5392 3.22012C12.3914 3.26235 12.233 3.35736 12.1275 3.46292C12.0008 3.5896 11.9163 3.74795 11.758 4.06464C11.1551 5.25028 10.0071 7.37315 8.94211 8.68552C8.84436 8.80597 8.81808 8.96804 8.8599 9.11741C9.00277 9.62761 9.00277 10.1772 9.00277 10.9158V18.4636C9.00277 18.8691 9.00277 19.2206 8.97571 19.5409C8.96027 19.7237 9.05048 19.9026 9.21423 19.9852L10.0267 20.3954C10.3434 20.5538 10.5123 20.6382 10.6812 20.7016C10.829 20.7543 10.9979 20.786 11.1563 20.8177C11.3357 20.8388 11.5152 20.8388 11.8741 20.8388H16.3817C17.4901 20.8388 18.0391 20.8388 18.5036 20.6488C18.9364 20.4799 19.3058 20.1949 19.5909 19.8254C19.8864 19.4242 20.0342 18.8859 20.3193 17.8197L20.826 15.9301C21.3749 13.9138 21.6494 12.9004 21.4171 12.1086Z" fill="black"/>
<path fill-rule="evenodd" clip-rule="evenodd" d="M6.59589 8.69867C6.2792 8.54032 5.8675 8.54032 5.0441 8.54032H4.88575C4.05179 8.54032 3.64009 8.54032 3.3234 8.69867C3.03838 8.84646 2.80614 9.0787 2.65835 9.36372C2.5 9.68041 2.5 10.0921 2.5 10.9155V18.4634C2.5 19.2868 2.5 19.6985 2.65835 20.0152C2.80614 20.3002 3.03838 20.543 3.3234 20.6802C3.64009 20.8386 4.05179 20.8386 4.88575 20.8386H5.0441C5.8675 20.8386 6.2792 20.8386 6.59589 20.6802C6.88092 20.543 7.11316 20.3002 7.26095 20.0152C7.41929 19.6985 7.41929 19.2868 7.41929 18.4634V10.9155C7.41929 10.0921 7.41929 9.68041 7.26095 9.36372C7.11316 9.0787 6.88092 8.84646 6.59589 8.69867Z" fill="black"/>
</svg>