<svg width="24" height="24" viewBox="0 0 24 24" fill="none" xmlns="http://www.w3.org/2000/svg">
<path fill-rule="evenodd" clip-rule="evenodd" d="M21.2591 11.9278C21.048 11.1888 20.5624 10.5554 19.8973 10.1543C19.1794 9.72145 18.166 9.72145 16.0441 9.72145C15.0729 9.72145 14.6718 9.30974 15.0096 8.11684C15.453 6.51224 15.8858 3.48249 14.1756 2.98633C13.4155 2.75408 12.5604 3.07078 12.0748 3.69362C10.9256 5.16269 9.78575 6.63177 8.64644 8.1098C8.53223 8.25795 8.53169 8.46228 8.62604 8.6238C8.76447 8.86075 8.8738 9.11668 8.95008 9.38364C9.07676 9.84813 9.07676 10.2704 9.07676 10.9671V18.5996C9.07676 19.1122 9.07676 19.4729 9.02603 19.8108C8.9975 20.0008 9.077 20.1971 9.24886 20.2831C10.0375 20.6778 10.8969 20.9173 11.7898 20.9642C13.5633 21.0698 15.9069 21.1332 17.5959 20.9537C18.8416 20.8059 20.2773 19.8558 20.7946 18.4729C21.5441 16.4143 21.6919 13.469 21.2591 11.9278Z" fill="black"/>
<path fill-rule="evenodd" clip-rule="evenodd" d="M6.14203 8.53943C5.89923 8.47609 5.59309 8.47609 4.99136 8.47609C4.38963 8.47609 4.09405 8.47609 3.85125 8.53943C3.22841 8.71889 2.7428 9.2045 2.5739 9.81678C2.5 10.0701 2.5 10.3657 2.5 10.9675V18.5999C2.5 19.2016 2.5 19.4972 2.5739 19.7506C2.7428 20.3628 3.22841 20.8485 3.85125 21.0279C4.09405 21.0913 4.38963 21.0913 4.99136 21.0913C5.59309 21.0913 5.89923 21.0913 6.14203 21.0279C6.76487 20.8485 7.25048 20.3628 7.41938 19.7506C7.49328 19.4972 7.49328 19.2016 7.49328 18.5999V10.9675C7.49328 10.3657 7.49328 10.0701 7.41938 9.81678C7.25048 9.2045 6.76487 8.71889 6.14203 8.53943Z" fill="black"/>
</svg>