<svg width="24" height="24" viewBox="0 0 24 24" fill="none" xmlns="http://www.w3.org/2000/svg">
<path fill-rule="evenodd" clip-rule="evenodd" d="M15.871 8.95098C15.871 8.73898 15.871 8.51998 15.856 8.45898C15.834 8.48198 15.614 8.48198 15.402 8.48198C15.108 8.48198 14.888 8.48198 14.826 8.49698C14.851 8.51998 14.851 8.73898 14.851 8.95098V12.812C14.851 13.024 14.851 13.243 14.866 13.305C14.89 13.281 15.109 13.281 15.321 13.281H15.402C15.614 13.281 15.832 13.281 15.894 13.266C15.871 13.243 15.871 13.024 15.871 12.812V8.95098Z" fill="black"/>
<path fill-rule="evenodd" clip-rule="evenodd" d="M13.351 12.8122V9.09924L12.426 8.62924C12.301 8.56624 12.246 8.53524 12.185 8.51324C12.163 8.50624 12.127 8.49724 12.091 8.49224C12.017 8.48224 11.951 8.48424 11.819 8.48524H9.51099C9.10099 8.48524 8.80599 8.48524 8.70399 8.52624C8.61199 8.56324 8.52899 8.62624 8.46599 8.70924C8.40099 8.79524 8.32499 9.07924 8.21899 9.47024L7.95699 10.4412C7.74399 11.2302 7.59299 11.7912 7.65199 12.0002C7.70699 12.1922 7.83099 12.3542 8.00199 12.4582C8.18899 12.5702 8.77499 12.5702 9.58699 12.5702H10.158C10.293 12.5702 10.479 12.5702 10.679 12.6842C10.858 12.7872 11.036 13.0262 11.084 13.2272C11.143 13.4502 11.082 13.6452 11.041 13.7752C10.57 15.2382 10.781 15.7732 10.856 15.9032C10.899 15.9762 10.946 16.0112 11.018 16.0272C11.063 16.0342 11.125 16.0312 11.186 16.0352L11.212 15.9832C12.199 14.0532 12.879 13.2352 13.352 12.8852C13.352 12.8592 13.351 12.8392 13.351 12.8122Z" fill="black"/>
<path fill-rule="evenodd" clip-rule="evenodd" d="M17.371 12.813C17.371 13.318 17.371 13.623 17.211 13.943C17.062 14.24 16.827 14.475 16.53 14.623C16.213 14.782 15.908 14.782 15.402 14.782H15.321C14.832 14.782 14.509 14.782 14.189 14.621C14.087 14.57 14.002 14.495 13.915 14.424C13.605 14.806 13.133 15.523 12.548 16.666C12.444 16.868 12.364 17.024 12.211 17.171C12.077 17.301 11.895 17.412 11.715 17.471C11.54 17.529 11.389 17.536 11.235 17.536C11.047 17.536 10.857 17.525 10.719 17.498C10.228 17.397 9.81698 17.099 9.56098 16.661C9.20098 16.043 9.14798 15.174 9.40298 14.071C8.34798 14.07 7.74298 14.053 7.22898 13.744C6.73098 13.445 6.36898 12.971 6.20998 12.413C6.03598 11.805 6.20298 11.186 6.50498 10.063L6.76898 9.08595C6.93198 8.48195 7.02998 8.12195 7.27298 7.80095C7.49898 7.50495 7.79898 7.27595 8.14098 7.13595C8.51498 6.98595 8.86898 6.98595 9.51098 6.98595H11.819C12.057 6.98595 12.175 6.98995 12.291 7.00595C12.413 7.02095 12.541 7.05195 12.666 7.09395C12.787 7.13495 12.89 7.18395 13.087 7.28395L13.682 7.58595C13.822 7.40395 13.987 7.24395 14.191 7.14195C14.511 6.98295 14.816 6.98295 15.321 6.98295C15.906 6.98295 16.211 6.98295 16.53 7.14095C16.822 7.28695 17.064 7.52795 17.211 7.82195C17.371 8.14195 17.371 8.44695 17.371 8.95195V12.813ZM19.969 3.95295C19.024 3.00295 17.728 2.50195 16.222 2.50195H7.78398C4.62698 2.50195 2.50598 4.72295 2.50598 8.02895V15.971C2.50598 19.277 4.62698 21.498 7.78398 21.498H16.216C19.373 21.498 21.494 19.277 21.494 15.971V8.03095C21.499 6.39295 20.958 4.94495 19.969 3.95295Z" fill="black"/>
</svg>