<svg width="24" height="24" viewBox="0 0 24 24" fill="none" xmlns="http://www.w3.org/2000/svg">
<path d="M9.90039 10.6256C10.5367 10.6256 11.6495 8.59373 12.119 7.67745C12.2027 7.51409 12.2446 7.43241 12.3089 7.36973C12.3642 7.31586 12.4453 7.26656 12.5186 7.24225C12.6039 7.21396 12.6788 7.21432 12.8286 7.21505C12.9406 7.21559 13.0505 7.22171 13.1321 7.23849C13.8369 7.38336 14.3862 8.23942 13.6754 10.4479C13.6499 10.5273 13.6371 10.5669 13.6446 10.5972C13.6516 10.6253 13.6687 10.6486 13.6932 10.6639C13.7197 10.6803 13.7606 10.6803 13.8424 10.6803H14.4128C15.4838 10.6803 16.0194 10.6803 16.384 10.8994C16.7175 11.0998 16.9623 11.4195 17.069 11.7936C17.1856 12.2027 17.0461 12.7198 16.7672 13.7539L16.5068 14.7192C16.3591 15.2668 16.2853 15.5406 16.1301 15.7451C15.9873 15.9334 15.7963 16.0796 15.5774 16.1685C15.3396 16.2651 15.056 16.2651 14.4888 16.2651H12.1808C11.9962 16.2651 11.9039 16.2651 11.8135 16.2525C11.7299 16.2408 11.6475 16.2211 11.5677 16.1936C11.4814 16.164 11.3991 16.1222 11.2345 16.0386L9.90039 15.3613" stroke="black" stroke-width="1.5" stroke-linecap="round" stroke-linejoin="round"/>
<path d="M8.67925 9.96875H8.59818C8.17594 9.96875 7.96483 9.96875 7.80298 10.0496C7.65444 10.1238 7.534 10.2443 7.45977 10.3928C7.37891 10.5547 7.37891 10.7658 7.37891 11.188V15.0485C7.37891 15.4707 7.37891 15.6819 7.45977 15.8437C7.534 15.9923 7.65444 16.1127 7.80298 16.1869C7.96483 16.2678 8.17594 16.2678 8.59818 16.2678H8.67925C9.10148 16.2678 9.3126 16.2678 9.47444 16.1869C9.62299 16.1127 9.74343 15.9923 9.81765 15.8437C9.89852 15.6819 9.89852 15.4707 9.89852 15.0485V11.188C9.89852 10.7658 9.89852 10.5547 9.81765 10.3928C9.74343 10.2443 9.62299 10.1238 9.47444 10.0496C9.3126 9.96875 9.10148 9.96875 8.67925 9.96875Z" stroke="black" stroke-width="1.5" stroke-linecap="round" stroke-linejoin="round"/>
<path fill-rule="evenodd" clip-rule="evenodd" d="M16.2221 3H7.78384C4.84818 3 3.00586 5.08161 3.00586 8.02602V15.9692C3.00586 18.9146 4.8404 20.9952 7.78384 20.9952H16.2163C19.1665 20.9952 20.9943 18.9146 20.9943 15.9692V8.02602C21.004 5.08161 19.1704 3 16.2221 3Z" stroke="black" stroke-width="1.5" stroke-linecap="round" stroke-linejoin="round"/>
</svg>