<svg width="25" height="24" viewBox="0 0 25 24" fill="none" xmlns="http://www.w3.org/2000/svg">
<path opacity="0.4" fill-rule="evenodd" clip-rule="evenodd" d="M21.7591 11.9278C21.548 11.1888 21.0624 10.5554 20.3973 10.1543C19.6795 9.72145 18.666 9.72145 16.5442 9.72145C15.5729 9.72145 15.1718 9.30974 15.5096 8.11684C15.953 6.51224 16.3858 3.48249 14.6756 2.98633C13.9156 2.75408 13.0605 3.07078 12.5749 3.69362C11.4256 5.16269 10.2858 6.63177 9.14646 8.1098C9.03226 8.25795 9.03172 8.46228 9.12607 8.6238C9.26449 8.86075 9.37383 9.11668 9.45011 9.38364C9.57679 9.84813 9.57679 10.2704 9.57679 10.9671V18.5996C9.57679 19.1122 9.57679 19.4729 9.52606 19.8108C9.49752 20.0008 9.57702 20.1971 9.74888 20.2831C10.5376 20.6778 11.397 20.9173 12.2898 20.9642C14.0633 21.0698 16.4069 21.1332 18.096 20.9537C19.3417 20.8059 20.7774 19.8558 21.2946 18.4729C22.0442 16.4143 22.1919 13.469 21.7591 11.9278Z" fill="black"/>
<path fill-rule="evenodd" clip-rule="evenodd" d="M6.64203 8.5399C6.39923 8.47656 6.09309 8.47656 5.49136 8.47656C4.88963 8.47656 4.59405 8.47656 4.35125 8.5399C3.72841 8.71936 3.2428 9.20497 3.0739 9.81725C3 10.0706 3 10.3662 3 10.9679V18.6004C3 19.2021 3 19.4977 3.0739 19.751C3.2428 20.3633 3.72841 20.8489 4.35125 21.0284C4.59405 21.0917 4.88963 21.0917 5.49136 21.0917C6.09309 21.0917 6.39923 21.0917 6.64203 21.0284C7.26487 20.8489 7.75048 20.3633 7.91938 19.751C7.99328 19.4977 7.99328 19.2021 7.99328 18.6004V10.9679C7.99328 10.3662 7.99328 10.0706 7.91938 9.81725C7.75048 9.20497 7.26487 8.71936 6.64203 8.5399Z" fill="black"/>
</svg>