<svg width="24" height="24" viewBox="0 0 24 24" fill="none" xmlns="http://www.w3.org/2000/svg">
<path fill-rule="evenodd" clip-rule="evenodd" d="M2.58287 11.8923C2.78345 12.6313 3.26905 13.2541 3.91299 13.6447C4.63083 14.0669 5.67592 14.0669 7.7661 14.0669H8.88509C9.04343 14.0669 9.11733 14.0669 9.17011 14.0986C9.21043 14.1228 9.23843 14.1593 9.25411 14.1987C9.26364 14.2227 9.27164 14.248 9.27173 14.2738C9.27193 14.3271 9.24342 14.4043 9.20178 14.5209C7.81888 18.8385 8.89564 20.5064 10.268 20.7914C10.4263 20.8231 10.6375 20.8336 10.8591 20.8336C11.1547 20.8442 11.3025 20.8442 11.4609 20.7809C11.6087 20.7386 11.767 20.6436 11.8726 20.5381C11.9992 20.4114 12.0837 20.253 12.242 19.9363C12.8449 18.7507 13.9929 16.6278 15.0579 15.3154C15.1557 15.195 15.182 15.0329 15.1402 14.8835C14.9973 14.3733 14.9973 13.8238 14.9973 13.0852V5.53732C14.9973 5.13185 14.9973 4.78027 15.0243 4.46003C15.0398 4.27724 14.9496 4.09835 14.7858 4.01568L13.9733 3.60548C13.6566 3.44713 13.4877 3.36268 13.3188 3.29934C13.171 3.24656 13.0021 3.21489 12.8438 3.18322C12.6643 3.16211 12.4848 3.16211 12.1259 3.16211H7.61831C6.50988 3.16211 5.96095 3.16211 5.49646 3.35213C5.06365 3.52103 4.69417 3.80605 4.40914 4.17553C4.11356 4.57668 3.96577 5.11506 3.68075 6.18126L3.17404 8.07087C2.6251 10.0872 2.35063 11.1006 2.58287 11.8923Z" fill="black"/>
<path fill-rule="evenodd" clip-rule="evenodd" d="M17.4041 15.3021C17.7208 15.4604 18.1325 15.4604 18.9559 15.4604H19.1142C19.9482 15.4604 20.3599 15.4604 20.6766 15.3021C20.9616 15.1543 21.1939 14.922 21.3417 14.637C21.5 14.3203 21.5 13.9086 21.5 13.0852V5.53732C21.5 4.71391 21.5 4.30221 21.3417 3.98551C21.1939 3.70049 20.9616 3.45769 20.6766 3.32046C20.3599 3.16211 19.9482 3.16211 19.1142 3.16211H18.9559C18.1325 3.16211 17.7208 3.16211 17.4041 3.32046C17.1191 3.45769 16.8868 3.70049 16.739 3.98551C16.5807 4.30221 16.5807 4.71391 16.5807 5.53732V13.0852C16.5807 13.9086 16.5807 14.3203 16.739 14.637C16.8868 14.922 17.1191 15.1543 17.4041 15.3021Z" fill="black"/>
</svg>