<svg width="24" height="24" viewBox="0 0 24 24" fill="none" xmlns="http://www.w3.org/2000/svg">
<path d="M4.11621 6.48891C4.39021 5.47591 4.52621 4.96891 4.81321 4.59091C5.07821 4.24291 5.43121 3.97191 5.83621 3.80791C6.27621 3.62891 6.80121 3.62891 7.85021 3.62891H12.1202C12.4612 3.62891 12.6322 3.62891 12.7992 3.65291C12.9542 3.67391 13.1062 3.71091 13.2542 3.76091C13.4142 3.81591 13.5662 3.89391 13.8702 4.04791L16.3392 5.30091" stroke="black" stroke-width="1.5" stroke-linecap="round" stroke-linejoin="round"/>
<path d="M16.3389 14.0617C15.1609 14.0617 13.1029 17.8207 12.2339 19.5157C12.0789 19.8177 12.0019 19.9687 11.8829 20.0847C11.7799 20.1847 11.6299 20.2757 11.4949 20.3207C11.3369 20.3727 11.1979 20.3717 10.9209 20.3707C10.7139 20.3697 10.5109 20.3587 10.3599 20.3277C9.05593 20.0597 8.03993 18.4757 9.35493 14.3897C9.40193 14.2427 9.42593 14.1697 9.41193 14.1137C9.39893 14.0617 9.36693 14.0187 9.32193 13.9907C9.27293 13.9597 9.19693 13.9597 9.04593 13.9597H7.99093C6.00893 13.9597 5.01793 13.9597 4.34393 13.5547C3.72693 13.1837 3.27393 12.5927 3.07593 11.9007C2.90393 11.2937 3.03493 10.5587 3.35993 9.30469" stroke="black" stroke-width="1.5" stroke-linecap="round" stroke-linejoin="round"/>
<path d="M20.9999 9.36691V5.88391C20.9999 5.10291 20.9999 4.71291 20.8499 4.41291C20.7129 4.13891 20.4899 3.91591 20.2149 3.77791C19.9159 3.62891 19.5249 3.62891 18.7439 3.62891H18.5939C17.8129 3.62891 17.4229 3.62891 17.1229 3.77791C16.8479 3.91591 16.6259 4.13891 16.4879 4.41291C16.3389 4.71291 16.3389 5.10291 16.3389 5.88391V13.0269C16.3389 13.8079 16.3389 14.1979 16.4879 14.4979C16.6259 14.7729 16.8479 14.9949 17.1229 15.1329C17.4229 15.2819 17.8129 15.2819 18.5939 15.2819H18.7439C19.5249 15.2819 19.9159 15.2819 20.2149 15.1329C20.4899 14.9949 20.7129 14.7729 20.8499 14.4979C20.9999 14.1979 20.9999 13.8079 20.9999 13.0269" stroke="black" stroke-width="1.5" stroke-linecap="round" stroke-linejoin="round"/>
</svg>