<svg width="25" height="24" viewBox="0 0 25 24" fill="none" xmlns="http://www.w3.org/2000/svg">
<path fill-rule="evenodd" clip-rule="evenodd" d="M18.7264 14.7969C19.076 14.9578 20.24 14.9889 21.2831 14.9956C21.6793 14.9978 22 14.676 22 14.2809V3.41386C22 3.01771 21.6793 2.69701 21.2831 2.69923C20.24 2.70478 19.076 2.73585 18.7264 2.89786C18.3159 3.08651 17.983 3.38612 17.7832 3.76341C17.5613 4.16289 17.5613 4.69554 17.5613 5.74973V11.9451C17.5613 12.9993 17.5613 13.5319 17.7832 13.9314C17.983 14.3087 18.3159 14.6083 18.7264 14.7969Z" fill="black"/>
<path opacity="0.4" fill-rule="evenodd" clip-rule="evenodd" d="M6.94171 14.4334H8.95803C9.3046 14.4334 9.53908 14.8262 9.42584 15.1537C8.73547 17.1508 8.53893 21.2358 11.8862 21.3015C11.9391 21.3025 11.9943 21.2932 12.0433 21.2732C12.5466 21.0676 12.6727 20.8125 12.7786 20.3147C13.4533 17.2734 14.9237 15.5962 16.2623 14.9342C16.3358 14.8978 16.3552 14.8064 16.3185 14.733C15.8968 13.9562 15.8968 13.2017 15.8968 11.9477V5.78902C15.8968 5.21715 15.8968 4.74677 15.9391 4.33032C15.9594 4.12969 15.8582 3.93185 15.6741 3.8495C14.7359 3.42979 13.7573 3.07031 12.7786 3.07031H7.82945C4.97758 3.07031 3.00235 4.92347 3.00235 7.98618C3.00235 11.1931 2.76932 14.4334 6.94171 14.4334Z" fill="black"/>
</svg>