<svg width="24" height="25" viewBox="0 0 24 25" fill="none" xmlns="http://www.w3.org/2000/svg">
<path opacity="0.4" fill-rule="evenodd" clip-rule="evenodd" d="M8.71759 20.0851H15.2824C16.1523 20.0851 16.9569 19.6209 17.3919 18.8678L20.6738 13.1816C21.1087 12.4285 21.1087 11.5003 20.6738 10.7472L17.3919 5.06097C16.9569 4.30787 16.1523 3.84375 15.2824 3.84375H8.71759C7.84773 3.84375 7.04403 4.30787 6.6091 5.06097L3.3262 10.7472C2.89127 11.5003 2.89127 12.4285 3.3262 13.1816L6.6091 18.8678C7.04403 19.6209 7.84773 20.0851 8.71759 20.0851Z" stroke="black" stroke-width="1.5" stroke-linecap="round" stroke-linejoin="round"/>
<path fill-rule="evenodd" clip-rule="evenodd" d="M11.6533 7.84292L8.30582 12.4538C8.06695 12.7826 8.30193 13.2433 8.70814 13.2433H11.4465V16.1384C11.4465 16.62 12.0639 16.8209 12.347 16.4303L15.6945 11.8199C15.9333 11.491 15.6984 11.0299 15.2922 11.0299H12.5533V8.13529C12.5533 7.65319 11.9364 7.45276 11.6533 7.84292Z" stroke="black" stroke-width="1.5" stroke-linecap="round" stroke-linejoin="round"/>
</svg>