<svg width="24" height="25" viewBox="0 0 24 25" fill="none" xmlns="http://www.w3.org/2000/svg">
<path fill-rule="evenodd" clip-rule="evenodd" d="M5.95963 4.68589C6.52851 3.70085 7.57974 3.09375 8.71759 3.09375H15.2824C16.4199 3.09375 17.4723 3.70056 18.0413 4.68589L21.3233 10.3721C21.3232 10.372 21.3233 10.3722 21.3233 10.3721C21.8921 11.3572 21.8922 12.5714 21.3234 13.5565C21.3233 13.5566 21.3234 13.5565 21.3234 13.5565L18.0414 19.2427C17.4724 20.2281 16.4199 20.8351 15.2824 20.8351H8.71759C7.57974 20.8351 6.52851 20.228 5.95963 19.2429L2.67673 13.5567C2.10777 12.5715 2.10776 11.3574 2.67668 10.3722C2.67666 10.3722 2.67669 10.3722 2.67668 10.3722L5.95963 4.68589ZM7.25857 5.43605C7.25855 5.43608 7.25859 5.43603 7.25857 5.43605L3.97572 11.1222C3.67483 11.6432 3.67478 12.2855 3.97567 12.8065L7.25857 18.4927C7.55955 19.0139 8.11571 19.3351 8.71759 19.3351H15.2824C15.8846 19.3351 16.4416 19.0136 16.7424 18.4927L20.0242 12.8067C20.3251 12.2857 20.3252 11.6433 20.0243 11.1223L16.7424 5.43605C16.7424 5.436 16.7424 5.43611 16.7424 5.43605C16.4416 4.91528 15.8846 4.59375 15.2824 4.59375H8.71759C8.11574 4.59375 7.55956 4.91495 7.25857 5.43605Z" fill="black"/>
<path fill-rule="evenodd" clip-rule="evenodd" d="M11.0463 7.40382C11.7568 6.42497 13.3032 6.92882 13.3032 8.13682V10.2814H15.2921C16.3115 10.2814 16.8998 11.4378 16.3013 12.2621C16.3013 12.2621 16.3012 12.2621 16.3012 12.2622L12.9542 16.8719C12.9541 16.872 12.954 16.8721 12.9539 16.8723C12.9539 16.8723 12.9538 16.8724 12.9538 16.8725C12.2432 17.852 10.6964 17.3471 10.6964 16.1399V13.9949H8.70803C7.68932 13.9949 7.09987 12.8395 7.69879 12.0147M7.69888 12.0146L11.0462 7.40394C11.0462 7.4039 11.0462 7.40386 11.0463 7.40382M11.8032 8.91445L9.2038 12.4949H11.4464C11.8606 12.4949 12.1964 12.8307 12.1964 13.2449V15.3625L14.7966 11.7814H12.5532C12.139 11.7814 11.8032 11.4456 11.8032 11.0314V8.91445ZM15.0876 11.3807L15.0875 11.3808L15.0876 11.3807ZM11.7396 15.9917C11.7398 15.9915 11.7399 15.9913 11.74 15.9911L11.7396 15.9917ZM12.2599 8.28529L12.2601 8.28506L12.2602 8.28494C12.2601 8.28506 12.26 8.28517 12.2599 8.28529Z" fill="black"/>
</svg>