<svg width="25" height="24" viewBox="0 0 25 24" fill="none" xmlns="http://www.w3.org/2000/svg">
<path fill-rule="evenodd" clip-rule="evenodd" d="M9.88006 9.62959C10.1731 9.33683 10.648 9.33704 10.9407 9.63006L12.2502 10.9407L13.5587 9.63097C13.8515 9.33794 14.3264 9.33773 14.6194 9.63049C14.9124 9.92325 14.9126 10.3981 14.6199 10.6912L13.3106 12.0016L14.6197 13.3107C14.9126 13.6036 14.9126 14.0784 14.6197 14.3713C14.3268 14.6642 13.8519 14.6642 13.559 14.3713L12.2504 13.0627L10.9416 14.3726C10.6488 14.6657 10.174 14.6659 9.88095 14.3731C9.58793 14.0803 9.58772 13.6055 9.88048 13.3124L11.19 12.0018L9.87959 10.6903C9.58683 10.3972 9.58704 9.92235 9.88006 9.62959Z" fill="black"/>
<path d="M16.8442 20.0454H7.65025C6.89063 20.0963 6.12761 20.0435 5.38224 19.8884C4.73355 19.7035 4.14272 19.3562 3.66557 18.8794C3.18842 18.4026 2.8407 17.812 2.65525 17.1634C2.50122 16.4176 2.44874 15.6544 2.49925 14.8944C2.49334 14.7081 2.50166 14.5215 2.52421 14.3364C2.5419 14.1666 2.5957 14.0024 2.68193 13.8549C2.76815 13.7075 2.88482 13.5802 3.02421 13.4814C3.29017 13.2993 3.56888 13.1366 3.8582 12.9944C4.04037 12.8954 4.19217 12.7487 4.29734 12.57C4.40252 12.3913 4.45715 12.1874 4.4553 11.98C4.45345 11.7727 4.39519 11.5698 4.28685 11.393C4.1785 11.2162 4.02416 11.0722 3.84025 10.9764C3.56722 10.8483 3.3041 10.6999 3.0532 10.5324C2.90985 10.4344 2.78897 10.307 2.69847 10.1588C2.60797 10.0105 2.54995 9.84477 2.52824 9.67244C2.50464 9.49481 2.49526 9.31557 2.50023 9.13644C2.44775 8.3663 2.49992 7.59259 2.65525 6.83644C2.84088 6.18836 3.18826 5.59813 3.66478 5.12126C4.1413 4.64439 4.7313 4.29655 5.37925 4.11044C6.12652 3.95442 6.89158 3.90126 7.65324 3.95244H16.8403C17.6036 3.90132 18.3703 3.95448 19.1192 4.11044C19.7655 4.29648 20.354 4.64353 20.8296 5.11909C21.3051 5.59465 21.6522 6.18314 21.8382 6.82944C21.9943 7.5784 22.0474 8.34513 21.9962 9.10844C22.0026 9.2969 21.9933 9.48556 21.9682 9.67244C21.9477 9.84402 21.8909 10.0093 21.8016 10.1572C21.7122 10.3051 21.5925 10.4324 21.4502 10.5304C21.2151 10.6912 20.9669 10.832 20.7082 10.9514C20.5091 11.0445 20.3404 11.1922 20.222 11.3774C20.1035 11.5626 20.0402 11.7776 20.0392 11.9974C20.0377 12.2083 20.0946 12.4154 20.2037 12.5958C20.3128 12.7763 20.4698 12.9229 20.6572 13.0194C20.9333 13.1469 21.1986 13.2967 21.4502 13.4674C21.5929 13.5652 21.7133 13.6922 21.8033 13.8399C21.8933 13.9876 21.9508 14.1528 21.9722 14.3244C21.9966 14.5124 22.0057 14.702 21.9992 14.8914C22.0518 15.6544 21.9986 16.421 21.8412 17.1694C21.6559 17.8162 21.3091 18.4052 20.8334 18.881C20.3578 19.3568 19.7689 19.7038 19.1222 19.8894C18.3735 20.0447 17.6071 20.0972 16.8442 20.0454ZM4.00523 14.6294C3.99923 14.7094 4.00023 14.7874 4.00023 14.8944C3.96179 15.5139 3.99532 16.1357 4.1002 16.7474C4.21566 17.152 4.43238 17.5204 4.72984 17.8178C5.0273 18.1153 5.39569 18.332 5.80021 18.4474C6.4116 18.5523 7.03308 18.5858 7.6522 18.5474H16.8452C17.467 18.5865 18.0912 18.553 18.7052 18.4474C19.1098 18.332 19.4782 18.1153 19.7756 17.8178C20.0731 17.5204 20.2898 17.152 20.4053 16.7474C20.5103 16.1334 20.5439 15.5092 20.5052 14.8874C20.5052 14.7724 20.5052 14.6934 20.5052 14.6354C20.3932 14.5654 20.2233 14.4774 19.9653 14.3424C19.5371 14.1179 19.1784 13.7806 18.9282 13.3669C18.678 12.9532 18.5457 12.4789 18.5457 11.9954C18.5457 11.512 18.678 11.0377 18.9282 10.624C19.1784 10.2103 19.5371 9.87294 19.9653 9.64844C20.2453 9.50044 20.4092 9.41644 20.5002 9.36544C20.5072 9.28744 20.5062 9.21144 20.5062 9.10444C20.5454 8.48233 20.5118 7.85778 20.4062 7.24344C20.2905 6.83905 20.0737 6.47079 19.7763 6.17337C19.4789 5.87594 19.1106 5.65916 18.7062 5.54344C18.0919 5.4379 17.4673 5.40434 16.8452 5.44344H7.65825C7.03779 5.40494 6.41495 5.4385 5.80223 5.54344C5.3981 5.65967 5.03012 5.87663 4.73277 6.17397C4.43542 6.47132 4.21844 6.83931 4.10221 7.24344C3.9984 7.85663 3.96487 8.47965 4.00224 9.10044C4.00224 9.21944 4.00224 9.30044 4.00224 9.35044C4.11324 9.41944 4.28223 9.50744 4.53923 9.64244C4.96908 9.86706 5.32889 10.2056 5.57933 10.6209C5.82977 11.0362 5.96118 11.5124 5.95921 11.9974C5.9533 12.4696 5.82309 12.9319 5.58171 13.3378C5.34032 13.7437 4.99629 14.0788 4.58421 14.3094C4.29321 14.4694 4.10623 14.5704 4.00523 14.6294Z" fill="black"/>
</svg>