<svg width="25" height="25" viewBox="0 0 25 25" fill="none" xmlns="http://www.w3.org/2000/svg">
<path fill-rule="evenodd" clip-rule="evenodd" d="M20.149 12.5337C20.149 13.3097 20.612 14.0917 21.645 14.0917C21.921 14.0917 22.145 14.3147 22.145 14.5917C22.145 19.8867 21.694 21.5607 12.25 21.5607C2.80598 21.5607 2.35498 19.8867 2.35498 14.5917C2.35498 14.3147 2.57798 14.0917 2.85498 14.0917C3.32798 14.0917 3.70398 13.9337 3.97298 13.6217C4.21298 13.3437 4.34998 12.9467 4.34998 12.5337C4.34998 11.7597 3.88798 10.9767 2.85498 10.9767C2.57798 10.9767 2.35498 10.7537 2.35498 10.4767C2.35498 5.18367 2.80598 3.50867 12.25 3.50867C21.694 3.50867 22.145 5.18367 22.145 10.4767C22.145 10.7537 21.921 10.9767 21.645 10.9767C20.612 10.9767 20.149 11.7597 20.149 12.5337ZM11.2487 9.95236C11.4202 9.5916 11.6934 9.1344 12.2499 9.1344C12.8065 9.1344 13.0797 9.5916 13.2512 9.95236C13.2968 10.0484 13.3395 10.1473 13.3798 10.2408L13.3819 10.2456C13.4221 10.3389 13.46 10.4268 13.4992 10.5098C13.581 10.683 13.6562 10.8068 13.7361 10.8828C13.7917 10.9351 13.9001 10.9782 14.0928 11.0037C14.2234 11.0209 14.3602 11.0271 14.5098 11.0339C14.5799 11.0371 14.6528 11.0404 14.7292 11.045C14.9515 11.0585 15.2012 11.0836 15.413 11.1698C15.6388 11.2617 15.8345 11.4294 15.9087 11.7173C15.9787 11.9909 15.914 12.2257 15.7854 12.4198C15.6648 12.602 15.487 12.7504 15.3265 12.8746C15.2783 12.9119 15.2318 12.9471 15.1869 12.981C15.071 13.0684 14.9663 13.1475 14.8726 13.2345C14.7457 13.3524 14.6767 13.4528 14.6535 13.5491C14.6269 13.6608 14.6369 13.8002 14.6756 13.9778C14.6946 14.0648 14.7189 14.1548 14.7455 14.2503L14.7585 14.2967C14.7808 14.3765 14.8043 14.4605 14.8248 14.543C14.8728 14.7369 14.914 14.9585 14.8834 15.1732C14.8507 15.4029 14.7375 15.6126 14.5083 15.7713C14.0302 16.1007 13.5435 15.863 13.1959 15.6618C13.1237 15.6199 13.057 15.5794 12.9929 15.5405C12.883 15.4738 12.7809 15.4118 12.6716 15.3557C12.505 15.2703 12.3686 15.2255 12.2499 15.2255C12.1313 15.2255 11.9949 15.2703 11.8282 15.3557C11.719 15.4118 11.6169 15.4738 11.507 15.5405C11.4429 15.5794 11.3762 15.6199 11.3039 15.6618C10.9564 15.863 10.4701 16.101 9.99203 15.7716C9.7631 15.6128 9.64958 15.4027 9.61692 15.1731C9.58641 14.9586 9.62751 14.737 9.67551 14.5431C9.69592 14.4606 9.71934 14.3768 9.74164 14.297L9.75464 14.2504C9.7812 14.1549 9.80547 14.0649 9.82439 13.9779C9.86298 13.8003 9.87296 13.6609 9.84633 13.5491C9.82312 13.4528 9.75417 13.3524 9.62724 13.2345C9.5336 13.1475 9.42882 13.0684 9.31297 12.981C9.26813 12.9471 9.22147 12.9119 9.17333 12.8746C9.01289 12.7504 8.83507 12.602 8.71444 12.4198C8.58589 12.2257 8.52105 11.9913 8.59105 11.7177C8.66524 11.4298 8.86109 11.2617 9.08689 11.1698C9.29868 11.0836 9.54839 11.0585 9.77066 11.045C9.84704 11.0404 9.91996 11.0371 9.99009 11.0339C10.1396 11.0271 10.2765 11.0209 10.4071 11.0037C10.5998 10.9782 10.7082 10.9351 10.7637 10.8828C10.8437 10.8068 10.9188 10.683 11.0006 10.5098C11.0399 10.4268 11.0777 10.3389 11.118 10.2456L11.12 10.2408C11.1604 10.1473 11.203 10.0484 11.2487 9.95236Z" fill="black"/>
</svg>