<svg width="24" height="24" viewBox="0 0 24 24" fill="none" xmlns="http://www.w3.org/2000/svg">
<path d="M13.9059 18.5885L12.9558 19.5387C12.3248 20.1696 12.0093 20.4851 11.6773 20.6683C10.8722 21.1124 9.89548 21.1124 9.09034 20.6683C8.75831 20.4851 8.44284 20.1696 7.8119 19.5387C7.67461 19.4014 7.60596 19.3328 7.57397 19.2854C7.45696 19.112 7.45528 19.1055 7.47464 18.8973C7.47994 18.8403 7.53814 18.6412 7.65454 18.2428C7.80443 17.7298 7.68753 17.153 7.29667 16.7337L7.2629 16.6999C6.8304 16.2667 6.22633 16.1423 5.68521 16.3097C5.31828 16.4232 5.13476 16.4799 5.077 16.486C4.87449 16.5075 4.8526 16.502 4.68337 16.3888C4.6351 16.3565 4.5674 16.2889 4.43199 16.1538C3.79865 15.5217 3.48198 15.2056 3.29827 14.8728C2.85415 14.0681 2.85367 13.0919 3.29701 12.2869C3.48039 11.9538 3.79675 11.6375 4.42947 11.0048L10.9691 4.46592C11.6031 3.83193 11.9201 3.51493 12.254 3.33134C13.0575 2.88955 14.0311 2.88955 14.8346 3.33134C15.1685 3.51493 15.4855 3.83193 16.1195 4.46592C16.2556 4.60198 16.3236 4.67001 16.3561 4.71861C16.4694 4.88797 16.4749 4.91047 16.4532 5.11307C16.4469 5.17119 16.3895 5.35504 16.2746 5.72261C16.1057 6.26319 16.2282 6.86648 16.6617 7.2999C17.0946 7.73349 17.6999 7.85797 18.2418 7.69C18.6105 7.57572 18.7948 7.51858 18.8528 7.51245C19.0555 7.49104 19.0771 7.49637 19.2464 7.60975C19.2949 7.64218 19.3628 7.71012 19.4988 7.846C20.1326 8.47963 20.4495 8.79647 20.6331 9.13017C21.0753 9.93386 21.0754 10.908 20.6333 11.7117C20.4498 12.0455 20.1329 12.3623 19.4992 12.9961L18.634 13.8613" stroke="black" stroke-width="1.5" stroke-linecap="round" stroke-linejoin="round"/>
<circle cx="17.3678" cy="17.3346" r="3.66662" stroke="black" stroke-width="1.5" stroke-linecap="round" stroke-linejoin="round"/>
<path d="M13.3945 9.55078L15.1576 11.3138" stroke="black" stroke-width="1.5" stroke-linecap="round" stroke-linejoin="round"/>
<path d="M9.63477 5.8125L11.3724 7.55014" stroke="black" stroke-width="1.5" stroke-linecap="round" stroke-linejoin="round"/>
<path d="M15.9072 16.6805L17.3721 18.1456L20.3185 15.1992" stroke="black" stroke-width="1.5" stroke-linecap="round" stroke-linejoin="round"/>
</svg>