<svg width="25" height="24" viewBox="0 0 25 24" fill="none" xmlns="http://www.w3.org/2000/svg">
<path d="M9.56885 10.3535H12.8184" stroke="black" stroke-width="1.5" stroke-linecap="round" stroke-linejoin="round"/>
<path d="M18.1652 11.8633C20.1712 11.8633 21.7982 13.4893 21.7982 15.4953C21.7982 17.5013 20.1712 19.1273 18.1652 19.1273C16.1592 19.1273 14.5332 17.5013 14.5332 15.4953C14.5332 14.7203 14.7752 14.0033 15.1882 13.4133" stroke="black" stroke-width="1.5" stroke-linecap="round" stroke-linejoin="round"/>
<path d="M19.2954 16.4384L18.1475 15.7514V14.2754" stroke="black" stroke-width="1.5" stroke-linecap="round" stroke-linejoin="round"/>
<path d="M7.64222 4.70312C6.72867 4.70312 6.2719 4.70312 5.89813 4.80725C4.93946 5.0743 4.19063 5.82386 3.92451 6.7828C3.82075 7.15667 3.8212 7.61344 3.8221 8.52697C3.82232 8.76348 3.82244 8.88173 3.83383 8.95425C3.88516 9.281 3.84759 9.20299 4.07109 9.44681C4.12069 9.50092 4.41385 9.73514 5.00016 10.2034C5.411 10.5316 5.67244 11.032 5.67198 11.6071V11.6618C5.6534 12.1899 5.40839 12.6569 5.0335 12.9723C4.41221 13.4948 4.10157 13.7562 4.05493 13.809C3.82896 14.0652 3.87944 13.9568 3.82881 14.2947C3.81836 14.3644 3.81836 14.4783 3.81836 14.7058C3.81836 15.6071 3.81836 16.0578 3.91977 16.4269C4.18505 17.3925 4.9395 18.147 5.90515 18.4122C6.2743 18.5137 6.72492 18.5137 7.62613 18.5137H11.8463" stroke="black" stroke-width="1.5" stroke-linecap="round" stroke-linejoin="round"/>
<path d="M20.8063 9.19587C20.8184 9.11881 20.8184 8.99324 20.8184 8.74208V8.29318C20.8184 7.74503 20.8184 7.47096 20.7826 7.24155C20.5818 5.95165 19.5698 4.93971 18.28 4.73885C18.0505 4.70313 18.1033 4.70312 17.5509 4.70312C17.4104 4.70312 17.3402 4.70312 17.2727 4.7077C16.8764 4.73453 16.4971 4.87875 16.1831 5.12198C16.1296 5.16339 16.0775 5.20969 15.9733 5.3023C15.7411 5.50875 15.6249 5.612 15.5125 5.68749C14.8381 6.14047 13.9567 6.14047 13.2823 5.68749C13.1699 5.612 13.0537 5.50875 12.8215 5.3023C12.7173 5.20969 12.6652 5.16339 12.6117 5.12198C12.2977 4.87875 11.9184 4.73453 11.5221 4.7077C11.4546 4.70312 11.3849 4.70312 11.2455 4.70312H10.6028" stroke="black" stroke-width="1.5" stroke-linecap="round" stroke-linejoin="round"/>
</svg>