<svg width="25" height="25" viewBox="0 0 25 25" fill="none" xmlns="http://www.w3.org/2000/svg">
<path opacity="0.4" fill-rule="evenodd" clip-rule="evenodd" d="M12.25 2.78467C5.052 2.78467 2.5 5.33667 2.5 12.5347C2.5 19.7327 5.052 22.2847 12.25 22.2847C19.448 22.2847 22 19.7327 22 12.5347C22 5.33667 19.448 2.78467 12.25 2.78467Z" fill="black"/>
<path d="M11.5912 15.4375L16.3412 10.6915C16.6342 10.3985 16.6342 9.92351 16.3412 9.63051C16.0482 9.33851 15.5732 9.33751 15.2802 9.63051L11.0612 13.8465L9.2202 12.0035C8.9282 11.7125 8.4532 11.7105 8.1592 12.0035C7.8662 12.2965 7.8662 12.7715 8.1592 13.0645L10.5302 15.4375C10.6712 15.5785 10.8622 15.6575 11.0612 15.6575C11.2602 15.6575 11.4502 15.5785 11.5912 15.4375Z" fill="black"/>
</svg>