<svg width="25" height="24" viewBox="0 0 25 24" fill="none" xmlns="http://www.w3.org/2000/svg">
<g opacity="0.4">
<path fill-rule="evenodd" clip-rule="evenodd" d="M21.544 13.6631C21.453 13.5901 21.314 13.5161 20.791 13.2411C20.321 12.9931 20.039 12.5281 20.039 11.9981C20.039 11.4691 20.32 11.0061 20.846 10.7301C21.338 10.4721 21.457 10.4091 21.547 10.3371C21.828 10.1091 21.904 9.98313 21.977 9.62413C21.994 9.53912 22 9.39513 22 9.10913C22 7.97813 22 7.41112 21.853 6.90013C21.493 5.66413 20.54 4.71113 19.303 4.35113C18.792 4.20312 18.225 4.20312 17.094 4.20312H7.907C6.779 4.20312 6.212 4.20312 5.702 4.35113C4.463 4.71012 3.509 5.66513 3.15 6.90613C3.002 7.41813 3.003 7.98312 3.004 9.13812C3.005 9.40112 3.011 9.53612 3.028 9.62512C3.1 9.98212 3.176 10.1081 3.459 10.3361C3.546 10.4061 3.67 10.4731 4.21 10.7581C4.68 11.0061 4.96 11.4701 4.959 12.0401C4.943 12.5291 4.664 12.9801 4.234 13.2161C3.669 13.5261 3.532 13.6021 3.44 13.6761C3.157 13.9121 3.091 14.0241 3.022 14.3851C3.006 14.4681 3 14.6111 3 14.8971C3 16.0221 3 16.5871 3.147 17.0961C3.505 18.3371 4.46 19.2921 5.702 19.6511C6.21 19.7981 6.776 19.7981 7.902 19.7981H17.094C18.224 19.7981 18.791 19.7981 19.303 19.6491C20.54 19.2901 21.493 18.3371 21.852 17.1011C22.001 16.5871 22 16.0201 21.999 14.8921C21.999 14.6091 21.993 14.4681 21.977 14.3741C21.904 14.0201 21.828 13.8941 21.544 13.6631Z" fill="black"/>
<path fill-rule="evenodd" clip-rule="evenodd" d="M21.544 13.6631C21.453 13.5901 21.314 13.5161 20.791 13.2411C20.321 12.9931 20.039 12.5281 20.039 11.9981C20.039 11.4691 20.32 11.0061 20.846 10.7301C21.338 10.4721 21.457 10.4091 21.547 10.3371C21.828 10.1091 21.904 9.98313 21.977 9.62413C21.994 9.53912 22 9.39513 22 9.10913C22 7.97813 22 7.41112 21.853 6.90013C21.493 5.66413 20.54 4.71113 19.303 4.35113C18.792 4.20312 18.225 4.20312 17.094 4.20312H7.907C6.779 4.20312 6.212 4.20312 5.702 4.35113C4.463 4.71012 3.509 5.66513 3.15 6.90613C3.002 7.41813 3.003 7.98312 3.004 9.13812C3.005 9.40112 3.011 9.53612 3.028 9.62512C3.1 9.98212 3.176 10.1081 3.459 10.3361C3.546 10.4061 3.67 10.4731 4.21 10.7581C4.68 11.0061 4.96 11.4701 4.959 12.0401C4.943 12.5291 4.664 12.9801 4.234 13.2161C3.669 13.5261 3.532 13.6021 3.44 13.6761C3.157 13.9121 3.091 14.0241 3.022 14.3851C3.006 14.4681 3 14.6111 3 14.8971C3 16.0221 3 16.5871 3.147 17.0961C3.505 18.3371 4.46 19.2921 5.702 19.6511C6.21 19.7981 6.776 19.7981 7.902 19.7981H17.094C18.224 19.7981 18.791 19.7981 19.303 19.6491C20.54 19.2901 21.493 18.3371 21.852 17.1011C22.001 16.5871 22 16.0201 21.999 14.8921C21.999 14.6091 21.993 14.4681 21.977 14.3741C21.904 14.0201 21.828 13.8941 21.544 13.6631Z" fill="black"/>
</g>
<path fill-rule="evenodd" clip-rule="evenodd" d="M14.8699 13.3066C15.1629 13.5986 15.1629 14.0746 14.8699 14.3676C14.5769 14.6606 14.1019 14.6606 13.8089 14.3676L12.4999 13.0586L11.1909 14.3686C11.0449 14.5156 10.8529 14.5886 10.6609 14.5886C10.4699 14.5886 10.2769 14.5156 10.1309 14.3696C9.83791 14.0766 9.83791 13.6016 10.1309 13.3086L11.4389 11.9976L10.1299 10.6866C9.83691 10.3926 9.83691 9.91863 10.1299 9.62563C10.4239 9.33263 10.8979 9.33363 11.1899 9.62563L12.4999 10.9366L13.8089 9.62663C14.1019 9.33363 14.5769 9.33363 14.8699 9.62663C15.1629 9.91963 15.1629 10.3946 14.8699 10.6876L13.5599 11.9976L14.8699 13.3066Z" fill="black"/>
<path fill-rule="evenodd" clip-rule="evenodd" d="M14.8699 13.3066C15.1629 13.5986 15.1629 14.0746 14.8699 14.3676C14.5769 14.6606 14.1019 14.6606 13.8089 14.3676L12.4999 13.0586L11.1909 14.3686C11.0449 14.5156 10.8529 14.5886 10.6609 14.5886C10.4699 14.5886 10.2769 14.5156 10.1309 14.3696C9.83791 14.0766 9.83791 13.6016 10.1309 13.3086L11.4389 11.9976L10.1299 10.6866C9.83691 10.3926 9.83691 9.91863 10.1299 9.62563C10.4239 9.33263 10.8979 9.33363 11.1899 9.62563L12.4999 10.9366L13.8089 9.62663C14.1019 9.33363 14.5769 9.33363 14.8699 9.62663C15.1629 9.91963 15.1629 10.3946 14.8699 10.6876L13.5599 11.9976L14.8699 13.3066Z" fill="black"/>
</svg>