<svg width="25" height="24" viewBox="0 0 25 24" fill="none" xmlns="http://www.w3.org/2000/svg">
<path d="M7.65942 4.74805V16.0252" stroke="black" stroke-width="1.5" stroke-linecap="round" stroke-linejoin="round"/>
<path d="M13.4451 9.54688V14.2375" stroke="black" stroke-width="1.5" stroke-linecap="round" stroke-linejoin="round"/>
<path d="M15.4848 10.7344L11.4058 13.0503" stroke="black" stroke-width="1.5" stroke-linecap="round" stroke-linejoin="round"/>
<path d="M11.4058 10.7344L15.4848 13.0503" stroke="black" stroke-width="1.5" stroke-linecap="round" stroke-linejoin="round"/>
<path d="M3.254 9.11023C3.253 8.02763 3.253 7.48632 3.38 7.04442C3.689 5.97612 4.524 5.14063 5.592 4.83113C6.033 4.70312 6.575 4.70312 7.657 4.70312H16.844C17.929 4.70312 18.471 4.70312 18.914 4.83172C19.979 5.14112 20.812 5.97412 21.122 7.03942C21.25 7.48212 21.25 8.02452 21.25 9.10922C21.25 9.34202 21.25 9.45842 21.236 9.52782C21.188 9.76962 21.174 9.79362 20.982 9.94832C20.9288 9.9913 20.7331 10.094 20.3469 10.2966L20.308 10.317C19.701 10.6349 19.289 11.2559 19.289 11.9975C19.289 12.7387 19.7 13.3631 20.308 13.683C20.721 13.9006 20.927 14.0095 20.982 14.0538C21.174 14.2089 21.188 14.2319 21.236 14.4738C21.249 14.543 21.249 14.6592 21.249 14.8918C21.25 15.9761 21.25 16.5183 21.121 16.9608C20.812 18.0267 19.979 18.8601 18.913 19.1695C18.47 19.298 17.928 19.298 16.844 19.298H7.65098C6.57099 19.298 6.03099 19.298 5.591 19.1706C4.522 18.8618 3.686 18.0262 3.377 16.9575C3.25 16.5168 3.25 15.977 3.25 14.8975C3.25 13.929 3.25313 13.5531 3.25518 12.5864" stroke="black" stroke-width="1.5" stroke-linecap="round" stroke-linejoin="round"/>
</svg>