<svg width="25" height="24" viewBox="0 0 25 24" fill="none" xmlns="http://www.w3.org/2000/svg">
<g opacity="0.4">
<path fill-rule="evenodd" clip-rule="evenodd" d="M10.3635 9.32912H7.11449C6.70049 9.32912 6.36449 8.99312 6.36449 8.57912C6.36449 8.16512 6.70049 7.82912 7.11449 7.82912H10.3635C10.7775 7.82912 11.1135 8.16512 11.1135 8.57912C11.1135 8.99312 10.7775 9.32912 10.3635 9.32912ZM17.3825 9.47512C18.3165 9.47512 19.1975 9.70612 19.9765 10.1061C20.3435 9.81312 20.4565 9.71912 20.5105 9.66012L20.5805 9.58712C20.7755 9.37812 20.8205 9.28613 20.8775 8.90613C20.8905 8.81913 20.8945 8.67912 20.8945 8.39712V7.97312C20.8945 7.42912 20.8945 7.15612 20.8545 6.90212C20.6315 5.46212 19.5125 4.34312 18.0725 4.11812C17.8165 4.07812 17.5425 4.07812 16.9945 4.07812C16.8415 4.07812 16.7665 4.07913 16.6965 4.08413C16.2215 4.11613 15.7715 4.28712 15.3955 4.57812C15.3435 4.61712 15.2945 4.66113 15.1695 4.77113C14.9755 4.94412 14.8825 5.03113 14.7875 5.09413C14.3165 5.41113 13.7075 5.41013 13.2365 5.09413C13.1425 5.03113 13.0485 4.94412 12.8535 4.77113C12.7435 4.67213 12.6855 4.62312 12.6295 4.57912C12.2525 4.28712 11.8015 4.11612 11.3315 4.08513C11.2595 4.07913 11.1825 4.07812 11.0315 4.07812H7.19549C6.23849 4.07812 5.75849 4.07812 5.31949 4.20113C4.20049 4.51313 3.31049 5.40112 2.99949 6.52213C2.87849 6.95913 2.87849 7.43213 2.87849 8.43013C2.87949 8.68913 2.88449 8.82212 2.91149 9.00112C2.95249 9.28312 2.99649 9.37613 3.19049 9.58313L3.26049 9.65812C3.33349 9.73612 3.49449 9.86613 4.24349 10.4661C4.55549 10.7161 4.72749 11.0741 4.72649 11.5151C4.71449 11.8801 4.54749 12.2251 4.26749 12.4591C3.42549 13.1661 3.30049 13.2731 3.23649 13.3471L3.15449 13.4381C2.98349 13.6231 2.93949 13.7181 2.90749 13.9691L2.88949 14.0941C2.87849 14.1761 2.87549 14.3081 2.87549 14.5731C2.87549 15.5171 2.87549 15.9921 2.99349 16.4271C3.30449 17.5551 4.19849 18.4481 5.32749 18.7601C5.76149 18.8791 6.23549 18.8791 7.17949 18.8791H11.0315C11.1825 18.8791 11.2595 18.8781 11.3255 18.8731C11.7995 18.8421 12.2505 18.6711 12.6285 18.3791C12.6345 18.3741 12.6415 18.3681 12.6475 18.3631C12.0345 17.4531 11.6755 16.3591 11.6755 15.1821C11.6755 12.0351 14.2355 9.47512 17.3825 9.47512Z" fill="black"/>
<path fill-rule="evenodd" clip-rule="evenodd" d="M10.3635 9.32912H7.11449C6.70049 9.32912 6.36449 8.99312 6.36449 8.57912C6.36449 8.16512 6.70049 7.82912 7.11449 7.82912H10.3635C10.7775 7.82912 11.1135 8.16512 11.1135 8.57912C11.1135 8.99312 10.7775 9.32912 10.3635 9.32912ZM17.3825 9.47512C18.3165 9.47512 19.1975 9.70612 19.9765 10.1061C20.3435 9.81312 20.4565 9.71912 20.5105 9.66012L20.5805 9.58712C20.7755 9.37812 20.8205 9.28613 20.8775 8.90613C20.8905 8.81913 20.8945 8.67912 20.8945 8.39712V7.97312C20.8945 7.42912 20.8945 7.15612 20.8545 6.90212C20.6315 5.46212 19.5125 4.34312 18.0725 4.11812C17.8165 4.07812 17.5425 4.07812 16.9945 4.07812C16.8415 4.07812 16.7665 4.07913 16.6965 4.08413C16.2215 4.11613 15.7715 4.28712 15.3955 4.57812C15.3435 4.61712 15.2945 4.66113 15.1695 4.77113C14.9755 4.94412 14.8825 5.03113 14.7875 5.09413C14.3165 5.41113 13.7075 5.41013 13.2365 5.09413C13.1425 5.03113 13.0485 4.94412 12.8535 4.77113C12.7435 4.67213 12.6855 4.62312 12.6295 4.57912C12.2525 4.28712 11.8015 4.11612 11.3315 4.08513C11.2595 4.07913 11.1825 4.07812 11.0315 4.07812H7.19549C6.23849 4.07812 5.75849 4.07812 5.31949 4.20113C4.20049 4.51313 3.31049 5.40112 2.99949 6.52213C2.87849 6.95913 2.87849 7.43213 2.87849 8.43013C2.87949 8.68913 2.88449 8.82212 2.91149 9.00112C2.95249 9.28312 2.99649 9.37613 3.19049 9.58313L3.26049 9.65812C3.33349 9.73612 3.49449 9.86613 4.24349 10.4661C4.55549 10.7161 4.72749 11.0741 4.72649 11.5151C4.71449 11.8801 4.54749 12.2251 4.26749 12.4591C3.42549 13.1661 3.30049 13.2731 3.23649 13.3471L3.15449 13.4381C2.98349 13.6231 2.93949 13.7181 2.90749 13.9691L2.88949 14.0941C2.87849 14.1761 2.87549 14.3081 2.87549 14.5731C2.87549 15.5171 2.87549 15.9921 2.99349 16.4271C3.30449 17.5551 4.19849 18.4481 5.32749 18.7601C5.76149 18.8791 6.23549 18.8791 7.17949 18.8791H11.0315C11.1825 18.8791 11.2595 18.8781 11.3255 18.8731C11.7995 18.8421 12.2505 18.6711 12.6285 18.3791C12.6345 18.3741 12.6415 18.3681 12.6475 18.3631C12.0345 17.4531 11.6755 16.3591 11.6755 15.1821C11.6755 12.0351 14.2355 9.47512 17.3825 9.47512Z" fill="black"/>
</g>
<path fill-rule="evenodd" clip-rule="evenodd" d="M10.3633 9.32812H7.11426C6.70026 9.32812 6.36426 8.99213 6.36426 8.57812C6.36426 8.16412 6.70026 7.82812 7.11426 7.82812H10.3633C10.7773 7.82812 11.1133 8.16412 11.1133 8.57812C11.1133 8.99213 10.7773 9.32812 10.3633 9.32812Z" fill="black"/>
<path fill-rule="evenodd" clip-rule="evenodd" d="M10.3633 9.32812H7.11426C6.70026 9.32812 6.36426 8.99213 6.36426 8.57812C6.36426 8.16412 6.70026 7.82812 7.11426 7.82812H10.3633C10.7773 7.82812 11.1133 8.16412 11.1133 8.57812C11.1133 8.99213 10.7773 9.32812 10.3633 9.32812Z" fill="black"/>
<path fill-rule="evenodd" clip-rule="evenodd" d="M14.9258 15.1826C14.9258 13.8286 16.0278 12.7266 17.3818 12.7266C18.7358 12.7266 19.8368 13.8286 19.8368 15.1826C19.8368 15.8336 19.5818 16.4526 19.1238 16.9196L19.1218 16.9206L19.1208 16.9226C18.6558 17.3846 18.0378 17.6386 17.3818 17.6386C16.0278 17.6386 14.9258 16.5366 14.9258 15.1826ZM21.9048 18.6426L20.6578 17.3956C21.0978 16.7426 21.3368 15.9786 21.3368 15.1826C21.3368 13.0006 19.5628 11.2266 17.3818 11.2266C15.1998 11.2266 13.4258 13.0006 13.4258 15.1826C13.4258 17.3646 15.1998 19.1386 17.3818 19.1386C18.1828 19.1386 18.9468 18.9006 19.5998 18.4586L20.8448 19.7036C20.9908 19.8496 21.1838 19.9226 21.3748 19.9226C21.5678 19.9226 21.7588 19.8496 21.9048 19.7036C22.1978 19.4106 22.1978 18.9356 21.9048 18.6426Z" fill="black"/>
<path fill-rule="evenodd" clip-rule="evenodd" d="M14.9258 15.1826C14.9258 13.8286 16.0278 12.7266 17.3818 12.7266C18.7358 12.7266 19.8368 13.8286 19.8368 15.1826C19.8368 15.8336 19.5818 16.4526 19.1238 16.9196L19.1218 16.9206L19.1208 16.9226C18.6558 17.3846 18.0378 17.6386 17.3818 17.6386C16.0278 17.6386 14.9258 16.5366 14.9258 15.1826ZM21.9048 18.6426L20.6578 17.3956C21.0978 16.7426 21.3368 15.9786 21.3368 15.1826C21.3368 13.0006 19.5628 11.2266 17.3818 11.2266C15.1998 11.2266 13.4258 13.0006 13.4258 15.1826C13.4258 17.3646 15.1998 19.1386 17.3818 19.1386C18.1828 19.1386 18.9468 18.9006 19.5998 18.4586L20.8448 19.7036C20.9908 19.8496 21.1838 19.9226 21.3748 19.9226C21.5678 19.9226 21.7588 19.8496 21.9048 19.7036C22.1978 19.4106 22.1978 18.9356 21.9048 18.6426Z" fill="black"/>
</svg>