<svg width="25" height="25" viewBox="0 0 25 25" fill="none" xmlns="http://www.w3.org/2000/svg">
<path opacity="0.4" fill-rule="evenodd" clip-rule="evenodd" d="M21.5 11.0456H22V4.63464H2.5V11.1236H3C3.863 11.1236 4.513 11.7306 4.513 12.5356C4.513 13.3556 3.834 14.0236 3 14.0236H2.5V20.4346H22V14.0236H21.5C20.665 14.0236 19.987 13.3556 19.987 12.5356C19.987 11.7136 20.665 11.0456 21.5 11.0456Z" fill="black"/>
<path d="M12.2491 14.7105L14.7241 15.9275L14.3311 13.1965L16.2541 11.2185L13.5371 10.7485L12.2491 8.30847L10.9621 10.7485L8.24414 11.2185L10.1671 13.1965L9.77414 15.9275L12.2491 14.7105Z" fill="black"/>
</svg>