<svg width="25" height="24" viewBox="0 0 25 24" fill="none" xmlns="http://www.w3.org/2000/svg">
<path d="M13.7981 6.82098H13.211V4.09998H2.5V10.59H3C3.863 10.59 4.513 11.196 4.513 12.001C4.513 12.821 3.834 13.489 3 13.489H2.5V19.9H13.211V17.578H13.7981V15.087H13.211V9.12798H13.7981V6.82098Z" fill="black"/>
<path opacity="0.4" d="M13.7979 17.578H14.7107V19.8998H21.9998V13.4891H21.4998C20.6658 13.4891 19.9868 12.8212 19.9868 12.0009C19.9868 11.1801 20.6658 10.5121 21.4998 10.5121H21.9998V4.09998H14.7107V6.82117H13.7979V9.12781H14.7107V15.0868H13.7979V17.578Z" fill="black"/>
</svg>