<svg width="24" height="24" viewBox="0 0 24 24" fill="none" xmlns="http://www.w3.org/2000/svg">
<path fill-rule="evenodd" clip-rule="evenodd" d="M17.51 18.5308C17.11 18.9908 16.56 19.3008 15.97 19.4208C15.34 19.5408 14.49 19.3108 12.79 18.8508L10.93 18.2808H14.84V15.0208C14.84 14.6108 15.17 14.2708 15.59 14.2708C16 14.2708 16.34 14.6108 16.34 15.0208V18.2708C16.87 18.2808 17.32 18.2708 17.71 18.2408C17.65 18.3508 17.58 18.4508 17.51 18.5308ZM6.11 12.8708C6.11 12.4608 6.45 12.1208 6.86 12.1208H11.57C11.98 12.1208 12.32 12.4608 12.32 12.8708C12.32 13.2908 11.98 13.6208 11.57 13.6208H6.86C6.45 13.6208 6.11 13.2908 6.11 12.8708ZM9.69 7.86078H11.57C11.98 7.86078 12.32 8.20078 12.32 8.61078C12.32 9.03078 11.98 9.36078 11.57 9.36078H9.69C9.28 9.36078 8.94 9.03078 8.94 8.61078C8.94 8.20078 9.28 7.86078 9.69 7.86078ZM14.84 9.05078C14.84 8.64078 15.17 8.30078 15.59 8.30078C16 8.30078 16.34 8.64078 16.34 9.05078V12.2408C16.34 12.6508 16 12.9908 15.59 12.9908C15.17 12.9908 14.84 12.6508 14.84 12.2408V9.05078ZM21.15 5.29078C20.76 4.50078 20.11 3.85078 19.32 3.46078C18.61 3.11078 17.79 3.06078 16.34 3.06078V6.26078C16.34 6.68078 16 7.01078 15.59 7.01078C15.17 7.01078 14.84 6.68078 14.84 6.26078V3.05078H8.47C6.5 3.05078 5.51 3.05078 4.68 3.46078C3.89 3.85078 3.24 4.50078 2.85 5.29078C2.44 6.12078 2.44 7.11078 2.44 9.08078V12.2508C2.44 14.2208 2.44 15.2108 2.85 16.0408C3.24 16.8408 3.89 17.4908 4.68 17.8708C4.77 17.9208 4.86 17.9608 4.96 17.9908C5.02 18.0408 5.09 18.0808 5.17 18.1108L12.39 20.2908C13.9 20.7008 14.82 20.9508 15.61 20.9508C15.83 20.9508 16.04 20.9308 16.25 20.8908C17.17 20.7108 18.02 20.2208 18.64 19.5208C19.06 19.0408 19.31 18.4608 19.54 17.7408C20.23 17.3508 20.8 16.7608 21.15 16.0408C21.56 15.2108 21.56 14.2208 21.56 12.2508V9.08078C21.56 7.11078 21.56 6.12078 21.15 5.29078Z" fill="black"/>
<path fill-rule="evenodd" clip-rule="evenodd" d="M17.51 18.5308C17.11 18.9908 16.56 19.3008 15.97 19.4208C15.34 19.5408 14.49 19.3108 12.79 18.8508L10.93 18.2808H14.84V15.0208C14.84 14.6108 15.17 14.2708 15.59 14.2708C16 14.2708 16.34 14.6108 16.34 15.0208V18.2708C16.87 18.2808 17.32 18.2708 17.71 18.2408C17.65 18.3508 17.58 18.4508 17.51 18.5308ZM6.11 12.8708C6.11 12.4608 6.45 12.1208 6.86 12.1208H11.57C11.98 12.1208 12.32 12.4608 12.32 12.8708C12.32 13.2908 11.98 13.6208 11.57 13.6208H6.86C6.45 13.6208 6.11 13.2908 6.11 12.8708ZM9.69 7.86078H11.57C11.98 7.86078 12.32 8.20078 12.32 8.61078C12.32 9.03078 11.98 9.36078 11.57 9.36078H9.69C9.28 9.36078 8.94 9.03078 8.94 8.61078C8.94 8.20078 9.28 7.86078 9.69 7.86078ZM14.84 9.05078C14.84 8.64078 15.17 8.30078 15.59 8.30078C16 8.30078 16.34 8.64078 16.34 9.05078V12.2408C16.34 12.6508 16 12.9908 15.59 12.9908C15.17 12.9908 14.84 12.6508 14.84 12.2408V9.05078ZM21.15 5.29078C20.76 4.50078 20.11 3.85078 19.32 3.46078C18.61 3.11078 17.79 3.06078 16.34 3.06078V6.26078C16.34 6.68078 16 7.01078 15.59 7.01078C15.17 7.01078 14.84 6.68078 14.84 6.26078V3.05078H8.47C6.5 3.05078 5.51 3.05078 4.68 3.46078C3.89 3.85078 3.24 4.50078 2.85 5.29078C2.44 6.12078 2.44 7.11078 2.44 9.08078V12.2508C2.44 14.2208 2.44 15.2108 2.85 16.0408C3.24 16.8408 3.89 17.4908 4.68 17.8708C4.77 17.9208 4.86 17.9608 4.96 17.9908C5.02 18.0408 5.09 18.0808 5.17 18.1108L12.39 20.2908C13.9 20.7008 14.82 20.9508 15.61 20.9508C15.83 20.9508 16.04 20.9308 16.25 20.8908C17.17 20.7108 18.02 20.2208 18.64 19.5208C19.06 19.0408 19.31 18.4608 19.54 17.7408C20.23 17.3508 20.8 16.7608 21.15 16.0408C21.56 15.2108 21.56 14.2208 21.56 12.2508V9.08078C21.56 7.11078 21.56 6.12078 21.15 5.29078Z" fill="black"/>
</svg>