<svg width="25" height="24" viewBox="0 0 25 24" fill="none" xmlns="http://www.w3.org/2000/svg">
<path fill-rule="evenodd" clip-rule="evenodd" d="M14.359 14.544C14.359 14.958 14.023 15.294 13.609 15.294C13.195 15.294 12.859 14.958 12.859 14.544V9.255C12.859 8.841 13.195 8.505 13.609 8.505C14.023 8.505 14.359 8.841 14.359 9.255V14.544ZM21.75 13.55C20.701 13.55 20.232 12.772 20.232 11.999C20.232 11.228 20.701 10.449 21.75 10.449C22.026 10.449 22.25 10.226 22.25 9.949C22.25 5.094 21.845 3.296 14.359 3.038V6.255C14.359 6.669 14.023 7.005 13.609 7.005C13.195 7.005 12.859 6.669 12.859 6.255V3.007C12.653 3.006 12.466 3 12.25 3C2.705 3 2.25 4.67 2.25 9.949C2.25 10.226 2.474 10.449 2.75 10.449C3.799 10.449 4.268 11.228 4.268 11.999C4.268 12.409 4.13 12.804 3.887 13.08C3.614 13.392 3.232 13.55 2.75 13.55C2.474 13.55 2.25 13.773 2.25 14.05C2.25 19.33 2.705 21 12.25 21C12.466 21 12.653 20.995 12.859 20.993V17.544C12.859 17.13 13.195 16.794 13.609 16.794C14.023 16.794 14.359 17.13 14.359 17.544V20.962C21.845 20.704 22.25 18.906 22.25 14.05C22.25 13.773 22.026 13.55 21.75 13.55Z" fill="black"/>
</svg>