<svg width="24" height="24" viewBox="0 0 24 24" fill="none" xmlns="http://www.w3.org/2000/svg">
<path fill-rule="evenodd" clip-rule="evenodd" d="M15.951 10.4641L11.864 14.5511C11.718 14.6971 11.526 14.7711 11.334 14.7711C11.141 14.7711 10.95 14.6971 10.804 14.5511L8.959 12.7071C8.666 12.4141 8.666 11.9391 8.959 11.6461C9.252 11.3531 9.726 11.3531 10.019 11.6461L11.334 12.9601L14.89 9.40312C15.183 9.11012 15.658 9.11012 15.951 9.40312C16.244 9.69613 16.244 10.1711 15.951 10.4641ZM21.044 13.6631C20.953 13.5901 20.813 13.5161 20.291 13.2411C19.82 12.9931 19.539 12.5281 19.539 11.9981C19.539 11.4691 19.819 11.0061 20.346 10.7311C20.838 10.4721 20.957 10.4091 21.047 10.3371C21.328 10.1101 21.404 9.98413 21.476 9.62512C21.494 9.53912 21.5 9.39612 21.5 9.11013C21.5 7.97913 21.5 7.41112 21.352 6.90013C20.993 5.66413 20.04 4.71113 18.803 4.35113C18.292 4.20312 17.724 4.20312 16.594 4.20312H7.407C6.278 4.20312 5.712 4.20312 5.202 4.35113C3.963 4.71113 3.009 5.66513 2.649 6.90613C2.502 7.41813 2.503 7.98412 2.504 9.13812C2.505 9.40212 2.511 9.53612 2.527 9.62612C2.599 9.98212 2.676 10.1081 2.962 10.3391C3.048 10.4071 3.172 10.4741 3.71 10.7581C4.18 11.0061 4.46 11.4701 4.459 12.0401C4.442 12.5291 4.164 12.9801 3.733 13.2161C3.169 13.5261 3.032 13.6021 2.939 13.6761C2.657 13.9121 2.591 14.0251 2.521 14.3851C2.506 14.4681 2.5 14.6111 2.5 14.8981C2.5 16.0231 2.5 16.5871 2.646 17.0961C3.005 18.3381 3.96 19.2931 5.202 19.6511C5.71 19.7981 6.275 19.7981 7.401 19.7981H16.594C17.723 19.7981 18.291 19.7981 18.803 19.6501C20.04 19.2901 20.993 18.3371 21.351 17.1011C21.501 16.5881 21.5 16.0211 21.499 14.8921C21.499 14.6091 21.493 14.4681 21.476 14.3751C21.404 14.0201 21.328 13.8941 21.044 13.6631Z" fill="black"/>
<path fill-rule="evenodd" clip-rule="evenodd" d="M15.951 10.4641L11.864 14.5511C11.718 14.6971 11.526 14.7711 11.334 14.7711C11.141 14.7711 10.95 14.6971 10.804 14.5511L8.959 12.7071C8.666 12.4141 8.666 11.9391 8.959 11.6461C9.252 11.3531 9.726 11.3531 10.019 11.6461L11.334 12.9601L14.89 9.40312C15.183 9.11012 15.658 9.11012 15.951 9.40312C16.244 9.69613 16.244 10.1711 15.951 10.4641ZM21.044 13.6631C20.953 13.5901 20.813 13.5161 20.291 13.2411C19.82 12.9931 19.539 12.5281 19.539 11.9981C19.539 11.4691 19.819 11.0061 20.346 10.7311C20.838 10.4721 20.957 10.4091 21.047 10.3371C21.328 10.1101 21.404 9.98413 21.476 9.62512C21.494 9.53912 21.5 9.39612 21.5 9.11013C21.5 7.97913 21.5 7.41112 21.352 6.90013C20.993 5.66413 20.04 4.71113 18.803 4.35113C18.292 4.20312 17.724 4.20312 16.594 4.20312H7.407C6.278 4.20312 5.712 4.20312 5.202 4.35113C3.963 4.71113 3.009 5.66513 2.649 6.90613C2.502 7.41813 2.503 7.98412 2.504 9.13812C2.505 9.40212 2.511 9.53612 2.527 9.62612C2.599 9.98212 2.676 10.1081 2.962 10.3391C3.048 10.4071 3.172 10.4741 3.71 10.7581C4.18 11.0061 4.46 11.4701 4.459 12.0401C4.442 12.5291 4.164 12.9801 3.733 13.2161C3.169 13.5261 3.032 13.6021 2.939 13.6761C2.657 13.9121 2.591 14.0251 2.521 14.3851C2.506 14.4681 2.5 14.6111 2.5 14.8981C2.5 16.0231 2.5 16.5871 2.646 17.0961C3.005 18.3381 3.96 19.2931 5.202 19.6511C5.71 19.7981 6.275 19.7981 7.401 19.7981H16.594C17.723 19.7981 18.291 19.7981 18.803 19.6501C20.04 19.2901 20.993 18.3371 21.351 17.1011C21.501 16.5881 21.5 16.0211 21.499 14.8921C21.499 14.6091 21.493 14.4681 21.476 14.3751C21.404 14.0201 21.328 13.8941 21.044 13.6631Z" fill="black"/>
</svg>