<svg width="25" height="25" viewBox="0 0 25 25" fill="none" xmlns="http://www.w3.org/2000/svg">
<path fill-rule="evenodd" clip-rule="evenodd" d="M14.724 15.9276L12.249 14.7106L9.774 15.9276L10.167 13.1966L8.244 11.2186L10.962 10.7486L12.249 8.30864L13.537 10.7486L16.254 11.2186L14.331 13.1966L14.724 15.9276ZM21.5 11.0456H22V4.63464H2.5V11.1236H3C3.863 11.1236 4.513 11.7306 4.513 12.5356C4.513 13.3556 3.834 14.0236 3 14.0236H2.5V20.4346H22V14.0236H21.5C20.665 14.0236 19.987 13.3556 19.987 12.5356C19.987 11.7136 20.665 11.0456 21.5 11.0456Z" fill="black"/>
</svg>