<svg width="24" height="24" viewBox="0 0 24 24" fill="none" xmlns="http://www.w3.org/2000/svg">
<path d="M9.99119 9.33989C6.77162 9.33989 4.16113 11.9436 4.16113 15.1699C4.16113 18.3963 6.77162 21 9.99119 21C13.2108 21 15.8212 18.3963 15.8212 15.1699V8.68605C15.8212 8.68605 17.8995 10.1912 19.8386 9.67265V6.43265C17.0559 6.16995 15.9536 3.9 15.6539 3H12.9412" stroke="black" stroke-width="1.5" stroke-linecap="round" stroke-linejoin="round"/>
<path opacity="0.4" d="M9.99097 9.33989C9.99097 9.33989 9.96567 11.5125 9.96567 12.4018C8.60448 12.54 7.54199 13.6871 7.54199 15.0882C7.54199 16.5817 8.75042 17.7882 10.242 17.7882C11.7326 17.7882 12.941 16.5817 12.941 15.0882V3" stroke="black" stroke-width="1.5" stroke-linecap="round" stroke-linejoin="round"/>
</svg>