<svg width="24" height="24" viewBox="0 0 24 24" fill="none" xmlns="http://www.w3.org/2000/svg">
<path fill-rule="evenodd" clip-rule="evenodd" d="M12 3.75C7.44329 3.75 3.75 7.44329 3.75 12C3.75 16.5567 7.44329 20.25 12 20.25C16.5567 20.25 20.25 16.5567 20.25 12C20.25 7.44329 16.5567 3.75 12 3.75ZM2.25 12C2.25 6.61487 6.61487 2.25 12 2.25C17.3851 2.25 21.75 6.61487 21.75 12C21.75 17.3851 17.3851 21.75 12 21.75C6.61487 21.75 2.25 17.3851 2.25 12Z" fill="black"/>
<path fill-rule="evenodd" clip-rule="evenodd" d="M12.6405 6.70107C13.0037 6.64221 13.3559 6.85545 13.4721 7.20452C13.5638 7.47981 13.8053 7.94026 14.2073 8.32175C14.5964 8.69113 15.1155 8.97012 15.7991 8.97012C16.2133 8.97012 16.5491 9.3059 16.5491 9.72012C16.5491 10.1343 16.2133 10.4701 15.7991 10.4701C14.854 10.4701 14.0917 10.1397 13.5105 9.69613V14.2795C13.5105 15.9555 12.1533 17.3082 10.4808 17.3082C8.80844 17.3082 7.45117 15.9555 7.45117 14.2795C7.45117 12.6027 8.80823 11.2498 10.4808 11.2498C10.8951 11.2498 11.2308 11.5856 11.2308 11.9998C11.2308 12.414 10.8951 12.7498 10.4808 12.7498C9.63541 12.7498 8.95117 13.4324 8.95117 14.2795C8.95117 15.1254 9.6352 15.8082 10.4808 15.8082C11.3265 15.8082 12.0105 15.1254 12.0105 14.2795V7.44141C12.0105 7.07352 12.2774 6.75994 12.6405 6.70107Z" fill="black"/>
</svg>