<svg width="25" height="24" viewBox="0 0 25 24" fill="none" xmlns="http://www.w3.org/2000/svg">
<path fill-rule="evenodd" clip-rule="evenodd" d="M12.4032 6.18164C8.68523 6.18164 5.67188 9.19572 5.67188 12.9139C5.67188 16.632 8.6851 19.6452 12.4032 19.6452C16.1213 19.6452 19.1354 16.6318 19.1354 12.9139C19.1354 9.19584 16.1212 6.18164 12.4032 6.18164ZM4.17188 12.9139C4.17188 8.36754 7.85655 4.68164 12.4032 4.68164C16.9496 4.68164 20.6354 8.36742 20.6354 12.9139C20.6354 17.4605 16.9495 21.1452 12.4032 21.1452C7.85668 21.1452 4.17188 17.4604 4.17188 12.9139Z" fill="black"/>
<path fill-rule="evenodd" clip-rule="evenodd" d="M12.4023 9.60938C12.8166 9.60938 13.1523 9.94516 13.1523 10.3594V15.4675C13.1523 15.8818 12.8166 16.2175 12.4023 16.2175C11.9881 16.2175 11.6523 15.8818 11.6523 15.4675V10.3594C11.6523 9.94516 11.9881 9.60938 12.4023 9.60938Z" fill="black"/>
<path fill-rule="evenodd" clip-rule="evenodd" d="M9.09961 12.9141C9.09961 12.4998 9.4354 12.1641 9.84961 12.1641H14.9568C15.371 12.1641 15.7068 12.4998 15.7068 12.9141C15.7068 13.3283 15.371 13.6641 14.9568 13.6641H9.84961C9.4354 13.6641 9.09961 13.3283 9.09961 12.9141Z" fill="black"/>
<path fill-rule="evenodd" clip-rule="evenodd" d="M7.29078 3.222C7.50802 3.57467 7.39823 4.03668 7.04555 4.25392C5.85492 4.98731 4.81952 5.97113 4.02659 7.12613C3.79215 7.46762 3.32527 7.5544 2.98379 7.31996C2.6423 7.08553 2.55552 6.61865 2.78996 6.27716C3.7017 4.94911 4.89054 3.81961 6.25886 2.97676C6.61154 2.75952 7.07355 2.86932 7.29078 3.222Z" fill="black"/>
<path fill-rule="evenodd" clip-rule="evenodd" d="M17.5146 3.21418C17.7308 2.86084 18.1925 2.74964 18.5458 2.96581C19.9258 3.81007 21.1157 4.94957 22.0265 6.27736C22.2608 6.61893 22.1739 7.08577 21.8323 7.32008C21.4908 7.5544 21.0239 7.46745 20.7896 7.12587C19.9958 5.96865 18.9595 4.97732 17.763 4.24535C17.4097 4.02918 17.2985 3.56751 17.5146 3.21418Z" fill="black"/>
</svg>