<svg width="25" height="24" viewBox="0 0 25 24" fill="none" xmlns="http://www.w3.org/2000/svg">
<path opacity="0.4" fill-rule="evenodd" clip-rule="evenodd" d="M12.7217 5.03516C8.3217 5.03516 4.7417 8.61516 4.7417 13.0152C4.7417 17.4152 8.3217 20.9952 12.7217 20.9952C17.1217 20.9952 20.7017 17.4152 20.7017 13.0152C20.7017 8.61516 17.1217 5.03516 12.7217 5.03516Z" fill="black"/>
<path fill-rule="evenodd" clip-rule="evenodd" d="M7.36651 4.40245C7.71951 4.18445 7.82852 3.72245 7.61052 3.37045C7.39152 3.01745 6.92951 2.90845 6.57851 3.12645C5.20551 3.97345 4.00551 5.11645 3.10851 6.43145C2.87551 6.77345 2.96351 7.24045 3.30551 7.47345C3.43451 7.56245 3.58151 7.60445 3.72751 7.60445C3.96751 7.60445 4.20251 7.48945 4.34751 7.27745C5.12751 6.13445 6.17151 5.14045 7.36651 4.40245Z" fill="black"/>
<path fill-rule="evenodd" clip-rule="evenodd" d="M22.3479 6.43196C21.4419 5.10196 20.2379 3.95496 18.8669 3.11496C18.5139 2.89896 18.0519 3.00896 17.8349 3.36196C17.6189 3.71596 17.7289 4.17696 18.0819 4.39396C19.2749 5.12396 20.3209 6.12096 21.1089 7.27696C21.2539 7.48996 21.4889 7.60396 21.7289 7.60396C21.8739 7.60396 22.0209 7.56196 22.1509 7.47396C22.4929 7.24096 22.5809 6.77396 22.3479 6.43196Z" fill="black"/>
<path d="M15.2918 16.0753C15.5418 16.0753 15.7918 15.9453 15.9318 15.7053C16.1518 15.3553 16.0318 14.8953 15.6718 14.6853L13.3018 13.2553V10.1553C13.3018 9.73527 12.9618 9.40527 12.5518 9.40527C12.1418 9.40527 11.8018 9.73527 11.8018 10.1553V13.6853C11.8018 13.9453 11.9418 14.1953 12.1718 14.3253L14.9018 15.9653C15.0218 16.0353 15.1618 16.0753 15.2918 16.0753Z" fill="black"/>
</svg>