<svg width="25" height="24" viewBox="0 0 25 24" fill="none" xmlns="http://www.w3.org/2000/svg">
<path fill-rule="evenodd" clip-rule="evenodd" d="M4.24342 4.24339C5.91119 2.57561 8.49002 2.00009 12.0001 2.00009C15.5102 2.00009 18.0891 2.57561 19.7568 4.24339C21.4246 5.91116 22.0001 8.48999 22.0001 12.0001C22.0001 15.5102 21.4246 18.089 19.7568 19.7568C18.0891 21.4246 15.5102 22.0001 12.0001 22.0001C8.49002 22.0001 5.91119 21.4246 4.24342 19.7568C2.57564 18.089 2.00012 15.5102 2.00012 12.0001C2.00012 8.48999 2.57564 5.91116 4.24342 4.24339ZM5.30408 5.30405C4.0811 6.52702 3.50012 8.57319 3.50012 12.0001C3.50012 15.427 4.0811 17.4732 5.30408 18.6961C6.52705 19.9191 8.57322 20.5001 12.0001 20.5001C15.427 20.5001 17.4732 19.9191 18.6962 18.6961C19.9191 17.4732 20.5001 15.427 20.5001 12.0001C20.5001 8.57319 19.9191 6.52702 18.6962 5.30405C17.4732 4.08107 15.427 3.50009 12.0001 3.50009C8.57322 3.50009 6.52705 4.08107 5.30408 5.30405Z" fill="black"/>
<path fill-rule="evenodd" clip-rule="evenodd" d="M11.9993 6.88409C12.4135 6.88409 12.7493 7.21988 12.7493 7.63409V11.5692L15.7745 13.374C16.1302 13.5862 16.2466 14.0466 16.0344 14.4023C15.8221 14.7581 15.3617 14.8744 15.006 14.6622L11.615 12.6392C11.3882 12.5039 11.2493 12.2592 11.2493 11.9951V7.63409C11.2493 7.21988 11.5851 6.88409 11.9993 6.88409Z" fill="black"/>
</svg>