<svg width="25" height="24" viewBox="0 0 25 24" fill="none" xmlns="http://www.w3.org/2000/svg">
<path fill-rule="evenodd" clip-rule="evenodd" d="M6.79647 4.37364C7.14947 4.15664 7.25847 3.69364 7.04047 3.34164C6.82247 2.98864 6.36047 2.87964 6.00847 3.09764C4.64747 3.93664 3.44847 5.07964 2.54047 6.40064C2.30547 6.74164 2.39247 7.20864 2.73347 7.44364C2.86347 7.53264 3.01147 7.57564 3.15747 7.57564C3.39647 7.57564 3.63047 7.46164 3.77647 7.24964C4.56747 6.09964 5.61147 5.10464 6.79647 4.37364Z" fill="black"/>
<path fill-rule="evenodd" clip-rule="evenodd" d="M21.7765 6.40057C20.8535 5.05757 19.6495 3.91457 18.2925 3.09357C17.9395 2.87957 17.4775 2.99257 17.2625 3.34757C17.0485 3.70157 17.1615 4.16257 17.5165 4.37757C18.6915 5.08857 19.7365 6.08157 20.5405 7.25057C20.6855 7.46157 20.9205 7.57557 21.1585 7.57557C21.3055 7.57557 21.4535 7.53257 21.5835 7.44357C21.9245 7.20857 22.0105 6.74157 21.7765 6.40057Z" fill="black"/>
<path fill-rule="evenodd" clip-rule="evenodd" d="M14.4654 14.2847C14.7584 14.5767 14.7584 15.0527 14.4654 15.3457C14.3194 15.4917 14.1274 15.5647 13.9354 15.5647C13.7434 15.5647 13.5514 15.4917 13.4044 15.3457L12.1544 14.0957L10.9034 15.3457C10.7574 15.4917 10.5654 15.5647 10.3734 15.5647C10.1814 15.5647 9.98936 15.4917 9.84236 15.3457C9.54936 15.0527 9.54936 14.5767 9.84236 14.2847L11.0934 13.0347L9.84236 11.7847C9.54936 11.4927 9.54936 11.0177 9.84236 10.7247C10.1344 10.4317 10.6104 10.4317 10.9034 10.7247L12.1544 11.9747L13.4044 10.7247C13.6974 10.4317 14.1724 10.4317 14.4654 10.7247C14.7584 11.0177 14.7584 11.4927 14.4654 11.7847L13.2154 13.0347L14.4654 14.2847ZM12.1534 5.05566C7.75336 5.05566 4.17236 8.63466 4.17236 13.0347C4.17236 17.4357 7.75336 21.0147 12.1534 21.0147C16.5554 21.0147 20.1364 17.4357 20.1364 13.0347C20.1364 8.63466 16.5554 5.05566 12.1534 5.05566Z" fill="black"/>
</svg>