<svg width="24" height="24" viewBox="0 0 24 24" fill="none" xmlns="http://www.w3.org/2000/svg">
<path fill-rule="evenodd" clip-rule="evenodd" d="M15.7414 11.4452L12.0214 15.1652C11.8714 15.3052 11.6814 15.3852 11.4914 15.3852C11.2914 15.3852 11.1014 15.3052 10.9614 15.1652L9.15135 13.3552C8.86135 13.0652 8.86135 12.5852 9.15135 12.2952C9.44135 12.0052 9.92135 12.0052 10.2114 12.2952L11.4914 13.5752L14.6814 10.3852C14.9714 10.0952 15.4514 10.0952 15.7414 10.3852C16.0314 10.6752 16.0314 11.1552 15.7414 11.4452ZM11.9914 5.05518C7.59135 5.05518 4.01135 8.63518 4.01135 13.0352C4.01135 17.4352 7.59135 21.0152 11.9914 21.0152C16.4014 21.0152 19.9814 17.4352 19.9814 13.0352C19.9814 8.63518 16.4014 5.05518 11.9914 5.05518Z" fill="black"/>
<path fill-rule="evenodd" clip-rule="evenodd" d="M6.63414 4.38467C6.98814 4.16867 7.10014 3.70767 6.88414 3.35367C6.66914 2.99967 6.20714 2.88867 5.85414 3.10367C4.49414 3.93167 3.29414 5.07167 2.38214 6.39967C2.14714 6.74067 2.23414 7.20767 2.57514 7.44267C2.70514 7.53167 2.85314 7.57367 2.99914 7.57367C3.23814 7.57367 3.47214 7.46067 3.61814 7.24867C4.41114 6.09367 5.45414 5.10367 6.63414 4.38467Z" fill="black"/>
<path fill-rule="evenodd" clip-rule="evenodd" d="M21.6181 6.3996C20.6951 5.0566 19.4901 3.9136 18.1341 3.0926C17.7811 2.8786 17.3191 2.9916 17.1041 3.3466C16.8901 3.7006 17.0031 4.1616 17.3581 4.3766C18.5331 5.0876 19.5781 6.0806 20.3821 7.2496C20.5271 7.4616 20.7621 7.5746 21.0001 7.5746C21.1471 7.5746 21.2951 7.5316 21.4251 7.4426C21.7661 7.2076 21.8521 6.7406 21.6181 6.3996Z" fill="black"/>
</svg>