<svg width="24" height="24" viewBox="0 0 24 24" fill="none" xmlns="http://www.w3.org/2000/svg">
<path fill-rule="evenodd" clip-rule="evenodd" d="M3.7402 3.89737C4.72468 2.84117 6.12669 2.25 7.78216 2.25H16.2169C17.8762 2.25 19.2788 2.84084 20.2629 3.89765C21.2413 4.94841 21.75 6.39889 21.75 8.02638V15.9736C21.75 17.6011 21.2413 19.0516 20.2627 20.1024C19.2785 21.1592 17.8756 21.75 16.2159 21.75H7.78216C6.1228 21.75 4.72038 21.1591 3.73657 20.1023C2.75842 19.0515 2.25 17.601 2.25 15.9736V8.02638C2.25 6.39806 2.76117 4.94771 3.7402 3.89737ZM4.83745 4.92012C4.16024 5.64666 3.75 6.70951 3.75 8.02638V15.9736C3.75 17.2914 4.15861 18.3541 4.83451 19.0802C5.50475 19.8003 6.49341 20.25 7.78216 20.25H16.2159C17.5052 20.25 18.4944 19.8002 19.165 19.0801C19.8412 18.354 20.25 17.2913 20.25 15.9736V8.02638C20.25 6.70868 19.8412 5.64597 19.1651 4.91984C18.4946 4.19975 17.5056 3.75 16.2169 3.75H7.78216C6.49828 3.75 5.50921 4.19943 4.83745 4.92012Z" fill="black"/>
<path fill-rule="evenodd" clip-rule="evenodd" d="M11.878 6.38382C12.1081 6.22412 12.4081 6.20599 12.6558 6.3368C14.1581 7.1302 15.4874 8.2653 16.2761 9.91856C17.0334 11.4142 17.111 13.1643 16.5514 14.6314C15.9859 16.1139 14.7583 17.3219 12.9437 17.6314C8.19689 18.6644 5.06111 12.8134 8.60183 9.39644C8.76531 9.23387 9.24024 8.78549 9.47692 8.61437C9.70521 8.44931 10.0068 8.42611 10.2576 8.5543C10.5085 8.68248 10.6663 8.94044 10.6663 9.22215C10.6663 9.34112 10.7111 9.69069 10.7968 10.0207C10.8003 10.0342 10.8038 10.0474 10.8073 10.0603C11.0404 9.94878 11.2303 9.71222 11.3801 9.30858C11.6089 8.69238 11.6591 7.85054 11.5617 7.09598C11.5259 6.81816 11.6478 6.54352 11.878 6.38382ZM10.915 10.3648C10.915 10.3649 10.9145 10.364 10.9134 10.362C10.9145 10.3638 10.9151 10.3648 10.915 10.3648ZM13.0883 8.37538C13.0498 8.87643 12.9547 9.37715 12.7864 9.83059C12.4418 10.7589 11.711 11.639 10.4372 11.639C10.1093 11.639 9.89149 11.4572 9.79098 11.3518C9.68435 11.24 9.61258 11.1152 9.56567 11.0213C9.51484 10.9195 9.47085 10.808 9.4329 10.6955C7.30835 13.0969 9.47501 16.8629 12.6388 16.1627C12.6516 16.1598 12.6646 16.1573 12.6776 16.1551C13.9154 15.9488 14.7487 15.1486 15.1499 14.0968C15.5578 13.0273 15.5064 11.714 14.9345 10.5895L14.9257 10.5715C14.5029 9.68201 13.8703 8.96276 13.0883 8.37538Z" fill="black"/>
</svg>