<svg width="24" height="24" viewBox="0 0 24 24" fill="none" xmlns="http://www.w3.org/2000/svg">
<path d="M12 21C16.9709 21 21 16.9709 21 12C21 7.02908 16.9709 3 12 3C7.02908 3 3 7.02908 3 12C3 16.9709 7.02908 21 12 21Z" stroke="black" stroke-width="1.5" stroke-linecap="round" stroke-linejoin="round"/>
<path fill-rule="evenodd" clip-rule="evenodd" d="M15.6039 10.2495C16.9373 12.8717 15.8648 16.3844 12.8017 16.8949C8.79009 17.7828 6.11395 12.8338 9.12761 9.93217C9.28855 9.77164 9.73232 9.35584 9.91722 9.22215C9.91722 9.63164 10.1556 10.889 10.4381 10.889C12.1213 10.889 12.5215 8.66688 12.3064 7C13.7127 7.74265 14.9039 8.77688 15.6039 10.2495Z" stroke="black" stroke-width="1.5" stroke-linejoin="round"/>
</svg>