<svg width="25" height="25" viewBox="0 0 25 25" fill="none" xmlns="http://www.w3.org/2000/svg">
<path fill-rule="evenodd" clip-rule="evenodd" d="M8.25599 6.57422C8.5541 6.57422 8.82391 6.75078 8.94326 7.02395L13.6991 17.9094C13.8649 18.2889 13.6916 18.7311 13.312 18.8969C12.9325 19.0627 12.4903 18.8895 12.3245 18.5099L8.25599 9.19756L4.18746 18.5099C4.02163 18.8895 3.57949 19.0627 3.19992 18.8969C2.82035 18.7311 2.64709 18.2889 2.81292 17.9094L7.56872 7.02395C7.68807 6.75078 7.95787 6.57422 8.25599 6.57422Z" fill="black"/>
<path fill-rule="evenodd" clip-rule="evenodd" d="M4.45117 14.3164C4.45117 13.9022 4.78696 13.5664 5.20117 13.5664H11.3113C11.7255 13.5664 12.0613 13.9022 12.0613 14.3164C12.0613 14.7306 11.7255 15.0664 11.3113 15.0664H5.20117C4.78696 15.0664 4.45117 14.7306 4.45117 14.3164Z" fill="black"/>
<path fill-rule="evenodd" clip-rule="evenodd" d="M18.33 12.6172C16.9929 12.6172 15.9102 13.7 15.9102 15.0371C15.9102 16.3733 16.9931 17.457 18.33 17.457C19.6662 17.457 20.7499 16.3732 20.7499 15.0371C20.7499 13.7001 19.6663 12.6172 18.33 12.6172ZM14.4102 15.0371C14.4102 12.8715 16.1645 11.1172 18.33 11.1172C20.4944 11.1172 22.2499 12.8714 22.2499 15.0371C22.2499 17.2016 20.4946 18.957 18.33 18.957C16.1644 18.957 14.4102 17.2015 14.4102 15.0371Z" fill="black"/>
<path fill-rule="evenodd" clip-rule="evenodd" d="M21.5 11.3164C21.9142 11.3164 22.25 11.6522 22.25 12.0664V18.0121C22.25 18.4263 21.9142 18.7621 21.5 18.7621C21.0858 18.7621 20.75 18.4263 20.75 18.0121V12.0664C20.75 11.6522 21.0858 11.3164 21.5 11.3164Z" fill="black"/>
</svg>