<svg width="25" height="24" viewBox="0 0 25 24" fill="none" xmlns="http://www.w3.org/2000/svg">
<path fill-rule="evenodd" clip-rule="evenodd" d="M6.16107 4.72337C5.60047 5.32554 5.25586 6.21289 5.25586 7.32487V16.6751C5.25586 17.7861 5.60184 18.6736 6.16364 19.2763C6.72 19.8731 7.54247 20.25 8.62154 20.25H15.8789C16.9619 20.25 17.784 19.8728 18.3391 19.2766C18.8998 18.6744 19.2446 17.787 19.2446 16.6751V7.32487C19.2446 6.21301 18.8998 5.32568 18.339 4.72346C17.7838 4.12727 16.9614 3.75 15.878 3.75H8.62154C7.53807 3.75 6.71602 4.12726 6.16107 4.72337ZM5.06319 3.70128C5.93169 2.76837 7.16748 2.25 8.62154 2.25H15.878C17.332 2.25 18.568 2.76835 19.4367 3.70119C20.2998 4.628 20.7446 5.9031 20.7446 7.32487V16.6751C20.7446 18.0969 20.2998 19.372 19.4369 20.2988C18.5683 21.2316 17.3326 21.75 15.8789 21.75H8.62154C7.17087 21.75 5.9355 21.2313 5.06646 20.2991C4.20285 19.3727 3.75586 18.0977 3.75586 16.6751V7.32487C3.75586 5.90322 4.20033 4.62813 5.06319 3.70128Z" fill="black"/>
<path fill-rule="evenodd" clip-rule="evenodd" d="M7.45652 10.3208C7.06725 7.46613 9.28656 4.9248 12.1674 4.9248C15.0483 4.9248 17.2677 7.46618 16.8783 10.3209L16.1603 15.5904C15.8878 17.5877 14.1831 19.0764 12.1674 19.0764C10.1518 19.0764 8.44711 17.5878 8.17459 15.5906L7.45652 10.3208C7.45653 10.3209 7.45652 10.3208 7.45652 10.3208ZM12.1674 6.4248C10.1952 6.4248 8.67633 8.16451 8.94278 10.1182L9.66082 15.3878C9.66083 15.3878 9.66082 15.3877 9.66082 15.3878C9.83204 16.6422 10.9023 17.5764 12.1674 17.5764C13.4326 17.5764 14.5028 16.6423 14.674 15.3879C14.674 15.3879 14.674 15.388 14.674 15.3879L15.3921 10.1183C15.6585 8.16459 14.1397 6.4248 12.1674 6.4248Z" fill="black"/>
<path fill-rule="evenodd" clip-rule="evenodd" d="M11.0996 9.39963C11.0996 8.76407 11.6155 8.25 12.25 8.25C12.8845 8.25 13.4004 8.76407 13.4004 9.39963C13.4004 10.035 12.8854 10.55 12.25 10.55C11.6146 10.55 11.0996 10.035 11.0996 9.39963Z" fill="black"/>
<path fill-rule="evenodd" clip-rule="evenodd" d="M3.75586 9.00293C3.75586 8.58872 4.09165 8.25293 4.50586 8.25293H6.44013C6.85434 8.25293 7.19013 8.58872 7.19013 9.00293C7.19013 9.41714 6.85434 9.75293 6.44013 9.75293H4.50586C4.09165 9.75293 3.75586 9.41714 3.75586 9.00293ZM3.75586 11.9998C3.75586 11.5855 4.09165 11.2498 4.50586 11.2498H6.43137C6.84559 11.2498 7.18137 11.5855 7.18137 11.9998C7.18137 12.414 6.84559 12.7498 6.43137 12.7498H4.50586C4.09165 12.7498 3.75586 12.414 3.75586 11.9998ZM3.75586 14.9975C3.75586 14.5833 4.09165 14.2475 4.50586 14.2475H6.45667C6.87088 14.2475 7.20667 14.5833 7.20667 14.9975C7.20667 15.4118 6.87088 15.7475 6.45667 15.7475H4.50586C4.09165 15.7475 3.75586 15.4118 3.75586 14.9975Z" fill="black"/>
<path fill-rule="evenodd" clip-rule="evenodd" d="M17.3072 9.00293C17.3072 8.58872 17.643 8.25293 18.0572 8.25293H19.9953C20.4095 8.25293 20.7453 8.58872 20.7453 9.00293C20.7453 9.41714 20.4095 9.75293 19.9953 9.75293H18.0572C17.643 9.75293 17.3072 9.41714 17.3072 9.00293ZM17.3157 11.9998C17.3157 11.5855 17.6515 11.2498 18.0657 11.2498H19.9951C20.4093 11.2498 20.7451 11.5855 20.7451 11.9998C20.7451 12.414 20.4093 12.7498 19.9951 12.7498H18.0657C17.6515 12.7498 17.3157 12.414 17.3157 11.9998ZM17.291 14.9975C17.291 14.5833 17.6268 14.2475 18.041 14.2475H19.9957C20.4099 14.2475 20.7457 14.5833 20.7457 14.9975C20.7457 15.4118 20.4099 15.7475 19.9957 15.7475H18.041C17.6268 15.7475 17.291 15.4118 17.291 14.9975Z" fill="black"/>
</svg>