<svg width="25" height="24" viewBox="0 0 25 24" fill="none" xmlns="http://www.w3.org/2000/svg">
<path d="M16.7439 3H7.75072C7.15623 3 6.58996 3.24908 6.18812 3.68692L5.06045 4.91676C4.70239 5.30789 4.50391 5.8187 4.50391 6.34995V17.6501C4.50391 18.1813 4.70239 18.6921 5.06045 19.0832L6.18812 20.3131C6.58996 20.7509 7.15623 21 7.75072 21H16.7439C17.3384 21 17.9047 20.7509 18.3065 20.3131L19.4342 19.0832C19.7932 18.6921 19.9917 18.1803 19.9917 17.6501V6.34995C19.9917 5.81968 19.7932 5.30789 19.4342 4.91676L18.3055 3.68692C17.9037 3.24908 17.3374 3 16.7439 3Z" stroke="black" stroke-width="1.5" stroke-linecap="round" stroke-linejoin="round"/>
<path d="M8.28058 10.2196C7.95269 7.81535 9.82177 5.6748 12.2484 5.6748C14.675 5.6748 16.544 7.81535 16.2161 10.2196L15.4981 15.4892C15.2763 17.115 13.8888 18.3264 12.2484 18.3264C10.6079 18.3264 9.22047 17.115 8.99863 15.4892L8.28058 10.2196Z" stroke="black" stroke-width="1.5" stroke-linecap="round" stroke-linejoin="round"/>
<path d="M8.94261 14.9976H4.50391M19.9921 14.9976H15.5553" stroke="black" stroke-width="1.5" stroke-linecap="round" stroke-linejoin="round"/>
<path d="M8.52326 12H4.50391M19.9927 12H15.9734" stroke="black" stroke-width="1.5" stroke-linecap="round" stroke-linejoin="round"/>
<path d="M8.30435 9.00488H4.50586M19.9954 9.00488H16.1882" stroke="black" stroke-width="1.5" stroke-linecap="round" stroke-linejoin="round"/>
<path d="M12.25 9.48207V9.40501M12.25 9C12.0288 9 11.8496 9.17919 11.8496 9.39963C11.8496 9.62081 12.0288 9.8 12.25 9.8C12.4712 9.8 12.6504 9.62081 12.6504 9.39963C12.6504 9.17919 12.4712 9 12.25 9Z" stroke="black" stroke-width="1.5" stroke-linecap="round" stroke-linejoin="round"/>
</svg>