<svg width="24" height="24" viewBox="0 0 24 24" fill="none" xmlns="http://www.w3.org/2000/svg">
<path d="M12.0002 21H15.6289C18.1655 21 19.7446 19.2088 19.7446 16.6751V7.32487C19.7446 4.79124 18.1655 3 15.628 3H8.37153C5.83402 3 4.25586 4.79124 4.25586 7.32487V16.6751C4.25586 19.2088 5.84181 21 8.37153 21H8.78723" stroke="black" stroke-width="1.5" stroke-linecap="round" stroke-linejoin="round"/>
<path d="M14.9717 15.1915C14.7694 16.6772 13.4996 17.7854 12.0003 17.7854C10.5009 17.7854 9.2312 16.6772 9.02882 15.1915L8.37206 10.3724C8.07239 8.17442 9.7819 6.2168 12.0003 6.2168C14.2187 6.2168 15.9282 8.17442 15.6285 10.3724L15.3561 12.3715" stroke="black" stroke-width="1.5" stroke-linecap="round" stroke-linejoin="round"/>
<path d="M12.0019 9.68129V9.60423M12.0019 9.19922C11.7808 9.19922 11.6016 9.37841 11.6016 9.59884C11.6016 9.82002 11.7808 9.99922 12.0019 9.99922C12.2231 9.99922 12.4023 9.82002 12.4023 9.59884C12.4023 9.37841 12.2231 9.19922 12.0019 9.19922Z" stroke="black" stroke-width="1.5" stroke-linecap="round" stroke-linejoin="round"/>
<path d="M6.25391 9.8125V13.647" stroke="black" stroke-width="1.5" stroke-linecap="round" stroke-linejoin="round"/>
<path d="M17.7383 9.8125V13.647" stroke="black" stroke-width="1.5" stroke-linecap="round" stroke-linejoin="round"/>
</svg>