<svg width="24" height="24" viewBox="0 0 24 24" fill="none" xmlns="http://www.w3.org/2000/svg">
<path fill-rule="evenodd" clip-rule="evenodd" d="M18.4875 13.649C18.4875 14.063 18.1515 14.399 17.7375 14.399C17.3235 14.399 16.9875 14.063 16.9875 13.649V9.809C16.9875 9.395 17.3235 9.059 17.7375 9.059C18.1515 9.059 18.4875 9.395 18.4875 9.809V13.649ZM16.1235 10.437L15.4675 15.256C15.2315 16.986 13.7405 18.29 11.9995 18.29C10.2585 18.29 8.76749 16.986 8.53249 15.256L7.87649 10.437C7.71449 9.248 8.07249 8.047 8.86149 7.144C9.65249 6.239 10.7955 5.719 11.9995 5.719C13.2035 5.719 14.3475 6.239 15.1375 7.144C15.9265 8.047 16.2855 9.248 16.1235 10.437ZM7.00349 13.649C7.00349 14.063 6.66749 14.399 6.25349 14.399C5.83949 14.399 5.50349 14.063 5.50349 13.649V9.809C5.50349 9.395 5.83949 9.059 6.25349 9.059C6.66749 9.059 7.00349 9.395 7.00349 9.809V13.649ZM15.6275 2.5H8.37149C5.61049 2.5 3.75549 4.436 3.75549 7.319V16.679C3.75549 19.562 5.61049 21.5 8.37149 21.5H15.6285C18.3895 21.5 20.2445 19.562 20.2445 16.679V7.319C20.2445 4.436 18.3895 2.5 15.6275 2.5Z" fill="black"/>
<path fill-rule="evenodd" clip-rule="evenodd" d="M12.0017 8.44971C11.3677 8.44971 10.8517 8.96571 10.8517 9.59871C10.8517 10.2337 11.3677 10.7497 12.0017 10.7497C12.6357 10.7497 13.1517 10.2337 13.1517 9.59871C13.1517 8.96571 12.6357 8.44971 12.0017 8.44971Z" fill="black"/>
</svg>