<svg width="24" height="24" viewBox="0 0 24 24" fill="none" xmlns="http://www.w3.org/2000/svg">
<path d="M8.37153 21H15.6289C18.1655 21 19.7446 19.2088 19.7446 16.6751V7.32487C19.7446 4.79124 18.1655 3 15.628 3H8.37153C5.83402 3 4.25586 4.79124 4.25586 7.32487V16.6751C4.25586 19.2088 5.84181 21 8.37153 21Z" stroke="black" stroke-width="1.5" stroke-linecap="round" stroke-linejoin="round"/>
<path d="M8.37206 10.3719C8.07239 8.17393 9.7819 6.21631 12.0003 6.21631C14.2187 6.21631 15.9282 8.17393 15.6285 10.3719L14.9717 15.191C14.7694 16.6767 13.4996 17.785 12.0003 17.785C10.5009 17.785 9.2312 16.6767 9.02882 15.191L8.37206 10.3719Z" stroke="black" stroke-width="1.5" stroke-linecap="round" stroke-linejoin="round"/>
<path d="M12.0019 9.68227V9.60521M12.0019 9.2002C11.7808 9.2002 11.6016 9.37939 11.6016 9.59982C11.6016 9.821 11.7808 10.0002 12.0019 10.0002C12.2231 10.0002 12.4023 9.821 12.4023 9.59982C12.4023 9.37939 12.2231 9.2002 12.0019 9.2002Z" stroke="black" stroke-width="1.5" stroke-linecap="round" stroke-linejoin="round"/>
<path d="M6.25391 9.81152V13.646" stroke="black" stroke-width="1.5" stroke-linecap="round" stroke-linejoin="round"/>
<path d="M17.7383 9.81152V13.646" stroke="black" stroke-width="1.5" stroke-linecap="round" stroke-linejoin="round"/>
</svg>