<svg width="24" height="24" viewBox="0 0 24 24" fill="none" xmlns="http://www.w3.org/2000/svg">
<path d="M8.37154 21H15.6289C18.1655 21 19.7446 19.2088 19.7446 16.6751V7.32487C19.7446 4.79124 18.1655 3 15.628 3H8.37154C5.83402 3 4.25586 4.79124 4.25586 7.32487V16.6751C4.25586 19.2088 5.84181 21 8.37154 21Z" stroke="black" stroke-width="1.5" stroke-linecap="round" stroke-linejoin="round"/>
<path d="M7.94952 10.2196C7.62163 7.81535 9.49071 5.6748 11.9173 5.6748C14.3439 5.6748 16.213 7.81535 15.8851 10.2196L15.167 15.4892C14.9452 17.115 13.5577 18.3264 11.9173 18.3264C10.2769 18.3264 8.88942 17.115 8.66758 15.4892L7.94952 10.2196Z" stroke="black" stroke-width="1.5" stroke-linecap="round" stroke-linejoin="round"/>
<path d="M12 9.48207V9.40501M12 9C11.7788 9 11.5996 9.17919 11.5996 9.39963C11.5996 9.62081 11.7788 9.8 12 9.8C12.2212 9.8 12.4004 9.62081 12.4004 9.39963C12.4004 9.17919 12.2212 9 12 9Z" stroke="black" stroke-width="1.5" stroke-linecap="round" stroke-linejoin="round"/>
<path d="M6.18137 11.9998H4.25586M6.20667 14.9975H4.25586M6.19013 9.00293H4.25586" stroke="black" stroke-width="1.5" stroke-linecap="round" stroke-linejoin="round"/>
<path d="M19.7451 11.9998H17.8157M19.7457 14.9975H17.791M19.7453 9.00293H17.8072" stroke="black" stroke-width="1.5" stroke-linecap="round" stroke-linejoin="round"/>
</svg>