<svg width="24" height="24" viewBox="0 0 24 24" fill="none" xmlns="http://www.w3.org/2000/svg">
<path d="M8.37129 3C5.83378 3 4.25562 4.79124 4.25562 7.32487V16.6751C4.25562 19.2088 5.84156 21 8.37129 21H15.6287C18.1652 21 19.7444 19.2088 19.7444 16.6751V7.32487C19.7444 4.79124 18.1652 3 15.6277 3H11.695" stroke="black" stroke-width="1.5" stroke-linecap="round" stroke-linejoin="round"/>
<path d="M11.9173 18.3273C10.2769 18.3273 8.88942 17.116 8.66758 15.4902L7.94952 10.2205C7.62163 7.81632 9.49071 5.67578 11.9173 5.67578C14.3439 5.67578 16.213 7.81632 15.8851 10.2205L15.167 15.4902C15.0597 16.2768 14.6795 16.9664 14.1298 17.4687" stroke="black" stroke-width="1.5" stroke-linecap="round" stroke-linejoin="round"/>
<path d="M12 9.48207V9.40501M12 9C11.7788 9 11.5996 9.17919 11.5996 9.39963C11.5996 9.62081 11.7788 9.8 12 9.8C12.2212 9.8 12.4004 9.62081 12.4004 9.39963C12.4004 9.17919 12.2212 9 12 9Z" stroke="black" stroke-width="1.5" stroke-linecap="round" stroke-linejoin="round"/>
<path d="M6.18137 12.0007H4.25586M6.20667 14.9985H4.25586M6.19013 9.00391H4.25586" stroke="black" stroke-width="1.5" stroke-linecap="round" stroke-linejoin="round"/>
<path d="M19.7451 12.0007H17.8157M19.7457 14.9985H17.791M19.7453 9.00391H17.8072" stroke="black" stroke-width="1.5" stroke-linecap="round" stroke-linejoin="round"/>
</svg>