<svg width="25" height="24" viewBox="0 0 25 24" fill="none" xmlns="http://www.w3.org/2000/svg">
<g opacity="0.4">
<path d="M14.0273 16.7361C13.9102 16.6189 13.9102 16.429 14.0273 16.3118L17.7122 12.6269C17.8294 12.5098 18.0193 12.5098 18.1365 12.6269L21.8996 16.3901C22.8396 17.3291 22.8396 18.8581 21.8996 19.7981L21.1976 20.5001C20.7276 20.9691 20.1116 21.2041 19.4946 21.2041C18.8776 21.2041 18.2606 20.9701 17.7906 20.5001L14.0273 16.7361Z" fill="black"/>
<path d="M4.10645 21.5943H8.47845C8.89245 21.5943 9.22845 21.2583 9.22845 20.8443C9.22845 20.4303 8.89245 20.0943 8.47845 20.0943H4.10645C3.69245 20.0943 3.35645 20.4303 3.35645 20.8443C3.35645 21.2583 3.69245 21.5943 4.10645 21.5943Z" fill="black"/>
</g>
<path d="M6.99688 16.3567C7.66788 17.0278 8.54888 17.3628 9.42888 17.3628C10.3099 17.3628 11.1909 17.0278 11.8609 16.3567L17.7599 10.4598C19.0999 9.11775 19.0999 6.93675 17.7599 5.59475L15.5429 3.37975C14.2429 2.08175 11.9779 2.08175 10.6799 3.37975L4.78088 9.27775C3.44088 10.6198 3.44088 12.8008 4.78088 14.1418L6.99688 16.3567Z" fill="black"/>
</svg>