<svg width="25" height="24" viewBox="0 0 25 24" fill="none" xmlns="http://www.w3.org/2000/svg">
<path fill-rule="evenodd" clip-rule="evenodd" d="M4.14773 3.73657C5.19853 2.75842 6.64899 2.25 8.27638 2.25H16.2236C17.8519 2.25 19.3023 2.76117 20.3526 3.7402C21.4088 4.72468 22 6.12669 22 7.78216V16.2169C22 17.8762 21.4092 19.2788 20.3524 20.2629C19.3016 21.2413 17.8511 21.75 16.2236 21.75H8.27638C6.64889 21.75 5.19838 21.2413 4.14761 20.2627C3.0908 19.2785 2.5 17.8756 2.5 16.2159V7.78216C2.5 6.1228 3.09086 4.72038 4.14773 3.73657ZM5.16976 4.83451C4.44973 5.50475 4 6.49341 4 7.78216V16.2159C4 17.5052 4.4498 18.4944 5.16988 19.165C5.89599 19.8412 6.95868 20.25 8.27638 20.25H16.2236C17.5413 20.25 18.604 19.8412 19.3302 19.1651C20.0503 18.4946 20.5 17.5056 20.5 16.2169V7.78216C20.5 6.49828 20.0506 5.50921 19.3299 4.83745C18.6033 4.16024 17.5405 3.75 16.2236 3.75H8.27638C6.95857 3.75 5.89585 4.15861 5.16976 4.83451Z" fill="black"/>
<path fill-rule="evenodd" clip-rule="evenodd" d="M12.2502 12.0938C12.4587 12.0938 12.6579 12.1806 12.7998 12.3334L15.4034 15.1375C15.6853 15.4411 15.6677 15.9156 15.3642 16.1975C15.0606 16.4793 14.5861 16.4617 14.3042 16.1582L12.2502 13.946L10.1961 16.1582C9.91425 16.4617 9.4397 16.4793 9.13616 16.1975C8.83262 15.9156 8.81503 15.4411 9.09688 15.1375L11.7006 12.3334C11.8425 12.1806 12.0416 12.0938 12.2502 12.0938Z" fill="black"/>
<path fill-rule="evenodd" clip-rule="evenodd" d="M2.5 8.54297C2.5 8.12876 2.83579 7.79297 3.25 7.79297H21.25C21.6642 7.79297 22 8.12876 22 8.54297C22 8.95718 21.6642 9.29297 21.25 9.29297H3.25C2.83579 9.29297 2.5 8.95718 2.5 8.54297Z" fill="black"/>
</svg>