<svg width="24" height="24" viewBox="0 0 24 24" fill="none" xmlns="http://www.w3.org/2000/svg">
<path opacity="0.4" fill-rule="evenodd" clip-rule="evenodd" d="M2.8 9.29101C2.63431 9.29101 2.5 9.42533 2.5 9.59101L2.5 16.216C2.5 19.376 4.72 21.5 8.026 21.5L15.973 21.5C19.279 21.5 21.5 19.377 21.5 16.217L21.5 9.59102C21.5 9.42533 21.3657 9.29102 21.2 9.29102L2.8 9.29101Z" fill="black"/>
<path fill-rule="evenodd" clip-rule="evenodd" d="M21.1998 7.782C21.3655 7.782 21.5005 7.64753 21.493 7.48201C21.3565 4.48933 19.173 2.5 15.9738 2.5L8.02577 2.5C4.82651 2.5 2.64299 4.48933 2.50655 7.48201C2.499 7.64753 2.63408 7.782 2.79977 7.782L21.1998 7.782Z" fill="black"/>
<path fill-rule="evenodd" clip-rule="evenodd" d="M15.114 16.1978C14.81 16.4788 14.335 16.4618 14.053 16.1578L12 13.9457L9.94602 16.1578C9.66502 16.4618 9.18902 16.4787 8.88502 16.1977C8.58302 15.9157 8.56502 15.4417 8.84602 15.1378L11.45 12.3338C11.592 12.1808 11.791 12.0937 12 12.0937C12.209 12.0937 12.408 12.1808 12.55 12.3338L15.153 15.1378C15.434 15.4418 15.417 15.9158 15.114 16.1978Z" fill="black"/>
</svg>