<svg width="25" height="25" viewBox="0 0 25 25" fill="none" xmlns="http://www.w3.org/2000/svg">
<path fill-rule="evenodd" clip-rule="evenodd" d="M4.23673 4.66331C5.22069 3.60644 6.62336 3.01562 8.28314 3.01562H16.7169C18.3762 3.01562 19.7788 3.60647 20.7629 4.66327C21.7413 5.71404 22.25 7.16451 22.25 8.792V16.7392C22.25 18.3681 21.7386 19.8185 20.7592 20.8687C19.7744 21.9248 18.3722 22.5156 16.7169 22.5156H8.28216C6.62291 22.5156 5.22047 21.9251 4.23661 20.8683C3.25839 19.8176 2.75 18.3671 2.75 16.7392V8.792C2.75 7.16462 3.25842 5.71413 4.23673 4.66331ZM5.33459 5.68542C4.65861 6.4115 4.25 7.4742 4.25 8.792V16.7392C4.25 18.0576 4.65864 19.1203 5.33447 19.8462C6.00467 20.5661 6.99331 21.0156 8.28216 21.0156H16.7169C18.0009 21.0156 18.9902 20.5664 19.6622 19.8458C20.3396 19.1193 20.75 18.0565 20.75 16.7392V8.792C20.75 7.4743 20.3412 6.41159 19.6651 5.68546C18.9946 4.96537 18.0056 4.51562 16.7169 4.51562H8.28314C6.99383 4.51562 6.00493 4.96541 5.33459 5.68542Z" fill="black"/>
<path fill-rule="evenodd" clip-rule="evenodd" d="M9.56055 7.65625C9.56055 7.24204 9.89633 6.90625 10.3105 6.90625H17.6078C18.0221 6.90625 18.3578 7.24204 18.3578 7.65625C18.3578 8.07046 18.0221 8.40625 17.6078 8.40625H10.3105C9.89633 8.40625 9.56055 8.07046 9.56055 7.65625ZM13.4899 12.0346C13.4899 11.6204 13.8256 11.2846 14.2399 11.2846H17.6078C18.0221 11.2846 18.3578 11.6204 18.3578 12.0346C18.3578 12.4488 18.0221 12.7846 17.6078 12.7846H14.2399C13.8256 12.7846 13.4899 12.4488 13.4899 12.0346Z" fill="black"/>
</svg>