<svg width="25" height="25" viewBox="0 0 25 25" fill="none" xmlns="http://www.w3.org/2000/svg">
<path fill-rule="evenodd" clip-rule="evenodd" d="M5.33492 5.68546C4.65879 6.41159 4.25 7.4743 4.25 8.792V16.7392C4.25 18.0565 4.66045 19.1193 5.33783 19.8458C6.00979 20.5664 6.99913 21.0156 8.28313 21.0156H16.7178C18.0067 21.0156 18.9953 20.5661 19.6655 19.8462C20.3414 19.1203 20.75 18.0576 20.75 16.7392V8.792C20.75 7.4742 20.3414 6.4115 19.6654 5.68542C18.9951 4.96541 18.0062 4.51562 16.7169 4.51562H8.28313C6.99437 4.51562 6.00542 4.96537 5.33492 5.68546ZM4.23714 4.66327C5.22117 3.60647 6.62379 3.01562 8.28313 3.01562H16.7169C18.3766 3.01562 19.7793 3.60644 20.7633 4.66331C21.7416 5.71413 22.25 7.16462 22.25 8.792V16.7392C22.25 18.3671 21.7416 19.8176 20.7634 20.8683C19.7795 21.9251 18.3771 22.5156 16.7178 22.5156H8.28313C6.62779 22.5156 5.22556 21.9248 4.24079 20.8687C3.26145 19.8185 2.75 18.3681 2.75 16.7392V8.792C2.75 7.16451 3.25872 5.71404 4.23714 4.66327Z" fill="black"/>
<path fill-rule="evenodd" clip-rule="evenodd" d="M6.64258 7.65625C6.64258 7.24204 6.97836 6.90625 7.39258 6.90625H14.6899C15.1041 6.90625 15.4399 7.24204 15.4399 7.65625C15.4399 8.07046 15.1041 8.40625 14.6899 8.40625H7.39258C6.97836 8.40625 6.64258 8.07046 6.64258 7.65625ZM6.64258 12.0346C6.64258 11.6204 6.97836 11.2846 7.39258 11.2846H10.7606C11.1748 11.2846 11.5106 11.6204 11.5106 12.0346C11.5106 12.4488 11.1748 12.7846 10.7606 12.7846H7.39258C6.97836 12.7846 6.64258 12.4488 6.64258 12.0346Z" fill="black"/>
</svg>