<svg width="24" height="24" viewBox="0 0 24 24" fill="none" xmlns="http://www.w3.org/2000/svg">
<path d="M13.2882 21.7495C13.0882 21.7495 12.8982 21.6695 12.7582 21.5295L5.04819 13.8196C4.88819 13.6596 4.80822 13.4394 4.82822 13.2094C4.83822 13.0394 4.91819 12.8695 5.04819 12.7495L10.3182 7.47946L8.27823 5.43942C8.13823 5.29942 8.0582 5.10939 8.0582 4.90939C8.0582 4.70939 8.13823 4.51937 8.27823 4.37937L10.1882 2.46945C10.4782 2.17945 10.9582 2.17945 11.2482 2.46945L18.9582 10.1794C19.1482 10.3694 19.2182 10.6494 19.1482 10.9094C19.1182 11.0394 19.0482 11.1595 18.9582 11.2495L13.6882 16.5195L15.7182 18.5495C16.0082 18.8395 16.0082 19.3196 15.7182 19.6096L13.8082 21.5295C13.6682 21.6695 13.4782 21.7495 13.2782 21.7495H13.2882ZM6.6282 13.2895L13.2882 19.9394L14.1382 19.0796L12.0982 17.0495C11.9582 16.9095 11.8782 16.7195 11.8782 16.5195C11.8782 16.3195 11.9582 16.1295 12.0982 15.9895L17.3782 10.7094L10.7182 4.05954L9.86819 4.90939L11.9082 6.94943C12.1982 7.23943 12.1982 7.71949 11.9082 8.00949L6.6282 13.2795V13.2895ZM10.7182 15.3596C10.5282 15.3596 10.3382 15.2894 10.1882 15.1394L8.86819 13.8196C8.72819 13.6796 8.64822 13.4895 8.64822 13.2895C8.64822 13.0895 8.72819 12.8995 8.86819 12.7595L12.7582 8.86936C13.0482 8.57936 13.5282 8.57936 13.8182 8.86936L15.1382 10.1894C15.2782 10.3294 15.3582 10.5195 15.3582 10.7195C15.3582 10.9195 15.2782 11.1095 15.1382 11.2495L11.2482 15.1394C11.0982 15.2894 10.9082 15.3596 10.7182 15.3596ZM10.4582 13.2895L10.7182 13.5495L13.5482 10.7195L13.2882 10.4594L10.4582 13.2895Z" fill="black"/>
</svg>