<svg width="25" height="24" viewBox="0 0 25 24" fill="none" xmlns="http://www.w3.org/2000/svg">
<path d="M12.0012 3C12.8297 3 13.5012 3.67157 13.5012 4.5V19.5C13.5012 20.3284 12.8297 21 12.0012 21H9.665C8.83657 21 8.165 20.3284 8.165 19.5V8.3325H5C4.17157 8.3325 3.5 7.66093 3.5 6.8325V4.5C3.5 3.67157 4.17157 3 5 3H12.0012Z" stroke="black" stroke-width="1.5" stroke-linecap="round" stroke-linejoin="round"/>
<path opacity="0.4" d="M21.4716 5.6811C21.4716 7.14566 20.2843 8.33291 18.8198 8.33291C17.3552 8.33291 16.168 7.14566 16.168 5.6811C16.168 4.21655 17.3552 3.0293 18.8198 3.0293C20.2843 3.0293 21.4716 4.21655 21.4716 5.6811Z" stroke="black" stroke-width="1.5" stroke-linecap="round" stroke-linejoin="round"/>
</svg>