<svg width="24" height="24" viewBox="0 0 24 24" fill="none" xmlns="http://www.w3.org/2000/svg">
<path opacity="0.4" fill-rule="evenodd" clip-rule="evenodd" d="M12 2.5C6.762 2.5 2.5 6.762 2.5 12C2.5 17.239 6.762 21.5 12 21.5C17.238 21.5 21.5 17.239 21.5 12C21.5 6.762 17.238 2.5 12 2.5Z" fill="black"/>
<path d="M16.5271 16.1801C16.9411 16.1801 17.2771 15.8441 17.2771 15.4301V12.0701C17.2771 10.9761 16.9441 9.92508 16.3151 9.03008C16.0771 8.69008 15.6091 8.60708 15.2701 8.84708C14.9311 9.08408 14.8501 9.55208 15.0881 9.89108C15.5391 10.5341 15.7771 11.2861 15.7771 12.0701V15.4301C15.7771 15.8441 16.1131 16.1801 16.5271 16.1801Z" fill="black"/>
<path d="M13.4611 8.58408C13.8471 8.74308 14.2831 8.55608 14.4401 8.17408C14.5961 7.79008 14.4131 7.35308 14.029 7.19608C11.5621 6.18908 8.68705 7.21508 7.41205 9.46008C7.20705 9.82108 7.33405 10.2781 7.69405 10.4831C7.81105 10.5491 7.93805 10.5801 8.06405 10.5801C8.32405 10.5801 8.57805 10.4441 8.71605 10.2011C9.62905 8.59508 11.6761 7.85308 13.4611 8.58408Z" fill="black"/>
<path d="M13.7451 17.2101C14.159 17.2101 14.4951 16.8741 14.4951 16.4601V12.2301C14.4951 10.8351 13.3601 9.70108 11.963 9.70108C10.567 9.70108 9.43005 10.8351 9.43005 12.2301V12.7101C9.43005 13.1241 9.76605 13.4601 10.1801 13.4601C10.5941 13.4601 10.9301 13.1241 10.9301 12.7101V12.2301C10.9301 11.6621 11.3941 11.2011 11.963 11.2011C12.5321 11.2011 12.9951 11.6621 12.9951 12.2301V16.4601C12.9951 16.8741 13.3311 17.2101 13.7451 17.2101Z" fill="black"/>
<path d="M10.1801 17.2101C10.5941 17.2101 10.9301 16.8741 10.9301 16.4601V14.8501C10.9301 14.4361 10.5941 14.1001 10.1801 14.1001C9.76605 14.1001 9.43005 14.4361 9.43005 14.8501V16.4601C9.43005 16.8741 9.76605 17.2101 10.1801 17.2101Z" fill="black"/>
<path d="M7.47705 16.1801C7.89105 16.1801 8.22705 15.8441 8.22705 15.4301V12.6301C8.22705 12.2161 7.89105 11.8801 7.47705 11.8801C7.06305 11.8801 6.72705 12.2161 6.72705 12.6301V15.4301C6.72705 15.8441 7.06305 16.1801 7.47705 16.1801Z" fill="black"/>
</svg>