<svg width="25" height="25" viewBox="0 0 25 25" fill="none" xmlns="http://www.w3.org/2000/svg">
<path d="M5.90942 16.1428C5.87442 15.8648 5.85645 15.5818 5.85645 15.2948V10.6098C5.85645 6.9408 8.83043 3.9668 12.5004 3.9668C16.1694 3.9668 19.1444 6.9408 19.1444 10.6098V15.2948C19.1444 15.6848 19.1104 16.0668 19.0464 16.4378C18.8554 17.3608 18.5644 18.1738 18.1384 18.8398C17.8444 19.3088 17.4935 19.7398 17.0955 20.1198" stroke="black" stroke-width="1.5" stroke-linecap="round" stroke-linejoin="round"/>
<path d="M13.9272 21.8138C13.4682 21.9148 12.9903 21.9678 12.5013 21.9678C10.1233 21.9678 8.03726 20.7198 6.86426 18.8418" stroke="black" stroke-width="1.5" stroke-linecap="round" stroke-linejoin="round"/>
<path opacity="0.4" d="M9.06348 14.8395C9.06348 16.7365 10.6015 18.2745 12.4995 18.2745C14.3975 18.2745 15.9355 16.7365 15.9355 14.8395V11.1025C15.9355 10.2025 15.5895 9.38448 15.0245 8.77148" stroke="black" stroke-width="1.5" stroke-linecap="round" stroke-linejoin="round"/>
<path opacity="0.4" d="M12.4995 7.66211C10.6025 7.66211 9.06348 9.2001 9.06348 11.0981V12.0361" stroke="black" stroke-width="1.5" stroke-linecap="round" stroke-linejoin="round"/>
<path opacity="0.4" d="M12.4971 14.9379V11.0059" stroke="black" stroke-width="1.5" stroke-linecap="round" stroke-linejoin="round"/>
</svg>