<svg width="25" height="25" viewBox="0 0 25 25" fill="none" xmlns="http://www.w3.org/2000/svg">
<path opacity="0.4" d="M21.5 12.959C21.5 7.98798 17.471 3.95898 12.5 3.95898C7.529 3.95898 3.5 7.98798 3.5 12.959C3.5 17.93 7.529 21.959 12.5 21.959C17.471 21.959 21.5 17.93 21.5 12.959Z" stroke="black" stroke-width="1.5" stroke-linecap="round" stroke-linejoin="round"/>
<path d="M14.2447 17.4142V13.1912C14.2447 12.2062 13.4467 11.4082 12.4627 11.4082C11.4777 11.4082 10.6797 12.2062 10.6797 13.1912V13.6682" stroke="black" stroke-width="1.5" stroke-linecap="round" stroke-linejoin="round"/>
<path d="M10.6797 17.4146V15.8105" stroke="black" stroke-width="1.5" stroke-linecap="round" stroke-linejoin="round"/>
<path d="M8.56445 10.7929C9.34245 9.42394 10.8135 8.50195 12.5005 8.50195C13.1185 8.50195 13.7085 8.62494 14.2455 8.84894" stroke="black" stroke-width="1.5" stroke-linecap="round" stroke-linejoin="round"/>
<path d="M16.2012 10.4199C16.7212 11.1569 17.0272 12.0569 17.0272 13.0269V16.3879" stroke="black" stroke-width="1.5" stroke-linecap="round" stroke-linejoin="round"/>
<path d="M7.97656 16.3909V13.5879" stroke="black" stroke-width="1.5" stroke-linecap="round" stroke-linejoin="round"/>
</svg>