<svg width="24" height="24" viewBox="0 0 24 24" fill="none" xmlns="http://www.w3.org/2000/svg">
<g opacity="0.4">
<path fill-rule="evenodd" clip-rule="evenodd" d="M4.43046 16.162C4.97846 16.093 5.36746 15.593 5.29746 15.045C5.26846 14.814 5.25146 14.568 5.25146 14.33V9.64C5.25146 6.53 7.78446 4 10.8965 4C14.0085 4 16.5405 6.53 16.5405 9.64C16.5405 10.192 16.9885 10.64 17.5405 10.64C18.0935 10.64 18.5405 10.192 18.5405 9.64C18.5405 5.427 15.1115 2 10.8965 2C6.68146 2 3.25146 5.427 3.25146 9.64V14.33C3.25146 14.652 3.27446 14.984 3.31346 15.295C3.37646 15.801 3.80746 16.17 4.30446 16.17C4.34546 16.17 4.38846 16.167 4.43046 16.162Z" fill="black"/>
<path fill-rule="evenodd" clip-rule="evenodd" d="M10.8962 5.69043C8.44923 5.69043 6.45923 7.68143 6.45923 10.1294V11.0704C6.45923 11.6234 6.90623 12.0704 7.45823 12.0704C8.01123 12.0704 8.45823 11.6234 8.45823 11.0704V10.1294C8.45823 8.78543 9.55223 7.69043 10.8962 7.69043C11.4492 7.69043 11.8962 7.24343 11.8962 6.69043C11.8962 6.13743 11.4492 5.69043 10.8962 5.69043Z" fill="black"/>
<path fill-rule="evenodd" clip-rule="evenodd" d="M8.45874 13.8701C8.45874 13.3171 8.01174 12.8701 7.45874 12.8701C6.90574 12.8701 6.45874 13.3171 6.45874 13.8701C6.45874 15.2441 7.08374 16.5181 8.17274 17.3681C8.35474 17.5111 8.57174 17.5801 8.78674 17.5801C9.08474 17.5801 9.37974 17.4481 9.57574 17.1951C9.91574 16.7601 9.83874 16.1311 9.40274 15.7921C8.80274 15.3231 8.45874 14.6231 8.45874 13.8701Z" fill="black"/>
<path fill-rule="evenodd" clip-rule="evenodd" d="M10.8962 9.04004C10.3432 9.04004 9.89624 9.48704 9.89624 10.04V11.95C9.89624 12.503 10.3432 12.95 10.8962 12.95C11.4492 12.95 11.8962 12.503 11.8962 11.95V10.04C11.8962 9.48704 11.4492 9.04004 10.8962 9.04004Z" fill="black"/>
<path fill-rule="evenodd" clip-rule="evenodd" d="M12.739 7.06627C12.335 7.44227 12.311 8.07527 12.686 8.48027C13.102 8.92727 13.331 9.51327 13.331 10.1293C13.331 10.6823 13.778 11.1293 14.331 11.1293C14.884 11.1293 15.331 10.6823 15.331 10.1293C15.331 9.00727 14.913 7.93827 14.153 7.11927C13.776 6.71327 13.144 6.69027 12.739 7.06627Z" fill="black"/>
<path fill-rule="evenodd" clip-rule="evenodd" d="M10.8982 20C8.93923 20 7.14823 19.006 6.10723 17.34C5.81523 16.871 5.19823 16.728 4.72923 17.022C4.26123 17.314 4.11923 17.932 4.41223 18.4C5.82023 20.654 8.24523 22 10.8982 22C11.4512 22 11.8982 21.553 11.8982 21C11.8982 20.447 11.4512 20 10.8982 20Z" fill="black"/>
</g>
<path fill-rule="evenodd" clip-rule="evenodd" d="M17.5223 17.9385C17.5013 17.9555 17.4833 17.9725 17.4643 17.9915C17.4623 17.9935 17.4603 17.9945 17.4603 17.9965C17.0823 18.3345 16.5843 18.5395 16.0383 18.5395C14.8613 18.5395 13.9043 17.5845 13.9043 16.4095C13.9043 15.2295 14.8613 14.2695 16.0383 14.2695C17.2143 14.2695 18.1713 15.2295 18.1713 16.4095C18.1713 17.0085 17.9223 17.5505 17.5223 17.9385ZM20.4563 19.5735L19.5193 18.6345C19.9323 17.9925 20.1713 17.2275 20.1713 16.4095C20.1713 14.1265 18.3173 12.2695 16.0383 12.2695C13.7583 12.2695 11.9043 14.1265 11.9043 16.4095C11.9043 18.6865 13.7583 20.5395 16.0383 20.5395C16.7733 20.5395 17.4643 20.3455 18.0643 20.0075L19.0403 20.9855C19.2353 21.1815 19.4923 21.2795 19.7483 21.2795C20.0033 21.2795 20.2593 21.1815 20.4543 20.9875C20.6503 20.7925 20.7483 20.5365 20.7483 20.2805C20.7483 20.0245 20.6513 19.7685 20.4563 19.5735Z" fill="black"/>
</svg>