<svg width="25" height="25" viewBox="0 0 25 25" fill="none" xmlns="http://www.w3.org/2000/svg">
<path opacity="0.4" d="M4.80591 16.1428C4.77091 15.8658 4.75195 15.5828 4.75195 15.2958V10.6108C4.75195 6.94179 7.72691 3.9668 11.3969 3.9668C15.0659 3.9668 18.0409 6.94179 18.0409 10.6108" stroke="black" stroke-width="1.5" stroke-linecap="round" stroke-linejoin="round"/>
<path opacity="0.4" d="M11.396 7.66211C9.499 7.66211 7.95898 9.20111 7.95898 11.0991V12.0361" stroke="black" stroke-width="1.5" stroke-linecap="round" stroke-linejoin="round"/>
<path opacity="0.4" d="M7.95898 14.834C7.95898 15.938 8.48002 16.92 9.28802 17.548" stroke="black" stroke-width="1.5" stroke-linecap="round" stroke-linejoin="round"/>
<path opacity="0.4" d="M11.3965 12.9149V11.0059" stroke="black" stroke-width="1.5" stroke-linecap="round" stroke-linejoin="round"/>
<path opacity="0.4" d="M14.8309 11.1015C14.8309 10.2025 14.4859 9.38348 13.9199 8.77148" stroke="black" stroke-width="1.5" stroke-linecap="round" stroke-linejoin="round"/>
<path opacity="0.4" d="M11.3978 21.9678C9.01977 21.9678 6.93477 20.7188 5.75977 18.8418" stroke="black" stroke-width="1.5" stroke-linecap="round" stroke-linejoin="round"/>
<path d="M18.6713 19.6712L20.2483 21.2452L18.6713 19.6712ZM16.5383 14.2402C18.2693 14.2402 19.6723 15.6432 19.6723 17.3742C19.6723 19.1052 18.2693 20.5092 16.5383 20.5092C14.8073 20.5092 13.4043 19.1052 13.4043 17.3742C13.4043 15.6432 14.8073 14.2402 16.5383 14.2402Z" stroke="black" stroke-width="1.5" stroke-linecap="round" stroke-linejoin="round"/>
</svg>