<svg width="25" height="25" viewBox="0 0 25 25" fill="none" xmlns="http://www.w3.org/2000/svg">
<path opacity="0.4" d="M8.28216 3.95898H16.7169C19.665 3.95898 21.5 6.03999 21.5 8.98499V16.933C21.5 19.878 19.665 21.959 16.7159 21.959H8.28216C5.33405 21.959 3.5 19.878 3.5 16.933V8.98499C3.5 6.03999 5.34281 3.95898 8.28216 3.95898Z" stroke="black" stroke-width="1.5" stroke-linecap="round" stroke-linejoin="round"/>
<path d="M14.8304 14.6397V12.8807C14.8304 11.5947 13.7884 10.5527 12.5021 10.5527C11.2168 10.5527 10.1738 11.5947 10.1738 12.8807V15.6777C10.1738 16.9627 11.2168 18.0057 12.5021 18.0057" stroke="black" stroke-width="1.5" stroke-linecap="round" stroke-linejoin="round"/>
<path d="M12.5 15.3877V13.2637" stroke="black" stroke-width="1.5" stroke-linecap="round" stroke-linejoin="round"/>
<path d="M17.4581 15.4961V12.8681C17.4581 10.1301 15.2388 7.91211 12.5018 7.91211C11.8246 7.91211 11.1795 8.04712 10.5918 8.29312" stroke="black" stroke-width="1.5" stroke-linecap="round" stroke-linejoin="round"/>
<path d="M8.46711 9.95898C7.88111 10.789 7.53711 11.801 7.53711 12.894V16.527" stroke="black" stroke-width="1.5" stroke-linecap="round" stroke-linejoin="round"/>
</svg>