<svg width="24" height="24" viewBox="0 0 24 24" fill="none" xmlns="http://www.w3.org/2000/svg">
<path d="M9.81004 8.23084C13.4208 8.23084 16.3476 7.05935 16.3476 5.61542C16.3476 4.17149 13.4208 3 9.81004 3C6.19924 3 3.27148 4.17149 3.27148 5.61542C3.27148 7.05935 6.19924 8.23084 9.81004 8.23084Z" stroke="black" stroke-width="1.5" stroke-linecap="round" stroke-linejoin="round"/>
<path d="M16.3476 5.61523V18.3854C16.3476 19.8293 13.4208 20.9998 9.81004 20.9998C6.19924 20.9998 3.27148 19.8293 3.27148 18.3854V5.61523" stroke="black" stroke-width="1.5" stroke-linecap="round" stroke-linejoin="round"/>
<path d="M10.207 3.00098H20.7135L20.7281 18.2138H16.3457" stroke="black" stroke-width="1.5" stroke-linecap="round" stroke-linejoin="round"/>
<path d="M8.6875 5.46045C9.44741 5.6677 10.2015 5.66575 10.9478 5.46045" stroke="black" stroke-width="1.5" stroke-linecap="round" stroke-linejoin="round"/>
<path d="M11.4863 12.3805V13.5121M11.4863 8.14355V9.86868M11.4863 19.468V20.9139M11.4863 16.0653V17.157" stroke="black" stroke-width="1.5" stroke-linecap="round" stroke-linejoin="round"/>
</svg>