<svg width="25" height="24" viewBox="0 0 25 24" fill="none" xmlns="http://www.w3.org/2000/svg">
<path d="M16.2695 9.81034C16.2695 13.421 17.441 16.3477 18.8849 16.3477C20.3288 16.3477 21.5002 13.421 21.5002 9.81034C21.5002 6.19964 20.3288 3.27197 18.8849 3.27197C17.441 3.27197 16.2695 6.19964 16.2695 9.81034Z" stroke="black" stroke-width="1.5" stroke-linecap="round" stroke-linejoin="round"/>
<path d="M18.8847 16.3477H6.11438C4.67049 16.3477 3.5 13.421 3.5 9.81034C3.5 6.19964 4.67049 3.27197 6.11438 3.27197H18.8847" stroke="black" stroke-width="1.5" stroke-linecap="round" stroke-linejoin="round"/>
<path opacity="0.4" d="M19.0395 8.68799C18.8322 9.44788 18.8342 10.201 19.0395 10.9482" stroke="black" stroke-width="1.5" stroke-linecap="round" stroke-linejoin="round"/>
<path opacity="0.4" d="M12.1193 11.4873H10.9877M16.3558 11.4873H14.6307M5.03177 11.4873H3.58594M8.43455 11.4873H7.34385" stroke="black" stroke-width="1.5" stroke-linecap="round" stroke-linejoin="round"/>
<path opacity="0.4" d="M21.4995 10.208V20.7142L6.28711 20.7278V16.3465" stroke="black" stroke-width="1.5" stroke-linecap="round" stroke-linejoin="round"/>
</svg>