<svg width="25" height="24" viewBox="0 0 25 24" fill="none" xmlns="http://www.w3.org/2000/svg">
<path d="M16.2695 9.76347C16.2695 13.3742 17.441 16.3009 18.8849 16.3009C20.3288 16.3009 21.5002 13.3742 21.5002 9.76347C21.5002 6.15277 20.3288 3.2251 18.8849 3.2251C17.441 3.2251 16.2695 6.15277 16.2695 9.76347Z" stroke="black" stroke-width="1.5" stroke-linecap="round" stroke-linejoin="round"/>
<path d="M18.8847 16.3009H6.11438C4.67049 16.3009 3.5 13.3742 3.5 9.76347C3.5 6.15277 4.67049 3.2251 6.11438 3.2251H18.8847" stroke="black" stroke-width="1.5" stroke-linecap="round" stroke-linejoin="round"/>
<path opacity="0.4" d="M19.0395 8.64111C18.8322 9.401 18.8342 10.1551 19.0395 10.9013" stroke="black" stroke-width="1.5" stroke-linecap="round" stroke-linejoin="round"/>
<path opacity="0.4" d="M21.4995 10.1611V20.6673C20.7961 20.4445 20.5518 19.9414 19.4748 19.9414C18.0893 19.9414 18.0893 20.7743 16.6969 20.7743C15.3036 20.7743 15.3036 19.9414 13.9181 19.9414C12.5258 19.9414 12.5258 20.7743 11.1325 20.7743C9.747 20.7743 9.747 19.9414 8.35467 19.9414C7.24841 19.9414 7.01878 20.4659 6.28711 20.6819V16.2996" stroke="black" stroke-width="1.5" stroke-linecap="round" stroke-linejoin="round"/>
</svg>