<svg width="24" height="24" viewBox="0 0 24 24" fill="none" xmlns="http://www.w3.org/2000/svg">
<path d="M9.76316 8.23084C13.374 8.23084 16.3007 7.05935 16.3007 5.61542C16.3007 4.17149 13.374 3 9.76316 3C6.15236 3 3.22461 4.17149 3.22461 5.61542C3.22461 7.05935 6.15236 8.23084 9.76316 8.23084Z" stroke="black" stroke-width="1.5" stroke-linecap="round" stroke-linejoin="round"/>
<path d="M16.3007 5.61523V18.3854C16.3007 19.8293 13.374 20.9998 9.76316 20.9998C6.15236 20.9998 3.22461 19.8293 3.22461 18.3854V5.61523" stroke="black" stroke-width="1.5" stroke-linecap="round" stroke-linejoin="round"/>
<path d="M8.64062 5.46045C9.40054 5.6677 10.1546 5.66575 10.9009 5.46045" stroke="black" stroke-width="1.5" stroke-linecap="round" stroke-linejoin="round"/>
<path d="M10.1602 3.00098H20.6666C20.4438 3.70446 19.9407 3.94868 19.9407 5.02579C19.9407 6.41134 20.7736 6.41134 20.7736 7.8037C20.7736 9.19704 19.9407 9.19704 19.9407 10.5826C19.9407 11.9749 20.7736 11.9749 20.7736 13.3683C20.7736 14.7538 19.9407 14.7538 19.9407 16.1462C19.9407 17.2525 20.4652 17.4821 20.6802 18.2138H16.2988" stroke="black" stroke-width="1.5" stroke-linecap="round" stroke-linejoin="round"/>
</svg>