<svg width="24" height="25" viewBox="0 0 24 25" fill="none" xmlns="http://www.w3.org/2000/svg">
<g opacity="0.4">
<path d="M18.5317 18.8404C20.0364 18.8404 21.2823 17.7327 21.4985 16.2883L21.4985 21.7024C21.4985 22.035 21.1646 22.2795 20.8476 22.1791C20.5998 22.1006 20.3759 21.9815 20.1541 21.8635C19.7875 21.6685 19.4267 21.4766 18.9737 21.4766C18.4202 21.4766 18.1683 21.6276 17.8503 21.8183C17.3318 22.1293 16.8081 22.3095 16.1958 22.3095C15.6664 22.3095 15.2208 22.0973 14.7794 21.8871C14.3463 21.6809 13.9172 21.4766 13.4169 21.4766C12.8589 21.4766 12.605 21.6284 12.2862 21.8191L12.281 21.8221C11.9057 22.0466 11.463 22.3095 10.6312 22.3095C9.80261 22.3095 9.36144 22.0459 8.98769 21.8218L8.98369 21.8194C8.66579 21.6288 8.41194 21.4766 7.85331 21.4766C7.44614 21.4766 7.09905 21.5933 6.75653 21.7998C6.54678 21.9262 6.26428 22.0965 5.92667 22.1958C5.61164 22.2883 5.28569 22.0444 5.28569 21.716L5.28569 18.8404L18.5317 18.8404Z" fill="black"/>
<path d="M5.61427 3.38867L18.3844 3.38867C17.7565 3.38867 17.2299 3.70397 16.8268 4.12152C16.4258 4.53693 16.0991 5.09868 15.8407 5.73147C15.3223 7.00076 15.0188 8.70252 15.0188 10.5436C15.0188 12.3847 15.3223 14.0862 15.8407 15.3553C16.0992 15.988 16.4258 16.5496 16.8269 16.965C17.2217 17.3738 17.7348 17.6842 18.3456 17.6968L5.61427 17.6968C4.9864 17.6968 4.46004 17.382 4.057 16.9645C3.65604 16.5491 3.32953 15.9875 3.07121 15.3548C2.55307 14.0857 2.24982 12.3842 2.24982 10.5432C2.24982 8.7022 2.55307 7.00048 3.07119 5.7312C3.32949 5.09842 3.656 4.53665 4.05693 4.1212C4.45993 3.7036 4.98631 3.38867 5.61427 3.38867Z" fill="black"/>
</g>
<path fill-rule="evenodd" clip-rule="evenodd" d="M20.9276 5.73107C21.446 7.00036 21.7495 8.70212 21.7495 10.5432C21.7495 12.3843 21.446 14.0858 20.9276 15.3549C20.6691 15.9876 20.3425 16.5492 19.9414 16.9646C19.5383 17.382 19.0119 17.6968 18.3841 17.6968C17.7563 17.6968 17.2299 17.382 16.8267 16.9646C16.4257 16.5492 16.099 15.9876 15.8406 15.3549C15.5731 14.7002 15.3629 13.9303 15.222 13.0856L14.1246 13.0856C13.7104 13.0856 13.3746 12.7498 13.3746 12.3356C13.3746 11.9214 13.7104 11.5856 14.1246 11.5856L15.0516 11.5856C15.0298 11.2446 15.0187 10.8965 15.0187 10.5432C15.0187 8.70212 15.3222 7.00036 15.8406 5.73107C16.099 5.09828 16.4257 4.53654 16.8267 4.12112C17.2297 3.70357 17.7562 3.38867 18.3841 3.38867C19.012 3.38867 19.5384 3.70357 19.9415 4.12112C20.3425 4.53654 20.6692 5.09828 20.9276 5.73107ZM17.8162 11.7455C17.9261 12.1448 18.3389 12.3795 18.7383 12.2697C19.1377 12.1598 19.3724 11.747 19.2625 11.3476C19.093 10.7314 19.0909 10.1142 19.2629 9.4836C19.3719 9.08398 19.1363 8.67167 18.7367 8.56269C18.3371 8.4537 17.9248 8.6893 17.8158 9.08892C17.5733 9.97812 17.5751 10.8691 17.8162 11.7455Z" fill="black"/>
<path d="M2.28282 11.5856C2.31588 12.1047 2.37338 12.6072 2.45312 13.0856L4.52532 13.0856C4.93953 13.0856 5.27532 12.7498 5.27532 12.3356C5.27532 11.9214 4.93953 11.5856 4.52532 11.5856L2.28282 11.5856Z" fill="black"/>
<path d="M11.6128 13.0856C12.027 13.0856 12.3628 12.7498 12.3628 12.3356C12.3628 11.9214 12.027 11.5856 11.6128 11.5856L10.4812 11.5856C10.067 11.5856 9.73122 11.9214 9.73122 12.3356C9.73122 12.7498 10.067 13.0856 10.4812 13.0856L11.6128 13.0856Z" fill="black"/>
<path d="M8.67796 12.3356C8.67796 12.7498 8.34218 13.0856 7.92796 13.0856L6.83626 13.0856C6.42205 13.0856 6.08626 12.7498 6.08626 12.3356C6.08626 11.9214 6.42205 11.5856 6.83626 11.5856L7.92796 11.5856C8.34218 11.5856 8.67796 11.9214 8.67796 12.3356Z" fill="black"/>
</svg>