<svg width="25" height="24" viewBox="0 0 25 24" fill="none" xmlns="http://www.w3.org/2000/svg">
<path d="M10.31 8.23084C13.9208 8.23084 16.8476 7.05935 16.8476 5.61542C16.8476 4.17149 13.9208 3 10.31 3C6.69924 3 3.77148 4.17149 3.77148 5.61542C3.77148 7.05935 6.69924 8.23084 10.31 8.23084Z" stroke="black" stroke-width="1.5" stroke-linecap="round" stroke-linejoin="round"/>
<path d="M16.8476 5.61523V18.3854C16.8476 19.8293 13.9208 20.9998 10.31 20.9998C6.69924 20.9998 3.77148 19.8293 3.77148 18.3854V5.61523" stroke="black" stroke-width="1.5" stroke-linecap="round" stroke-linejoin="round"/>
<path opacity="0.4" d="M10.707 3.00098H21.2135L21.2281 18.2138H16.8457" stroke="black" stroke-width="1.5" stroke-linecap="round" stroke-linejoin="round"/>
<path opacity="0.4" d="M9.1875 5.46045C9.94741 5.6677 10.7015 5.66575 11.4478 5.46045" stroke="black" stroke-width="1.5" stroke-linecap="round" stroke-linejoin="round"/>
<path opacity="0.4" d="M11.9863 12.3805V13.5121M11.9863 8.14355V9.86868M11.9863 19.468V20.9139M11.9863 16.0653V17.157" stroke="black" stroke-width="1.5" stroke-linecap="round" stroke-linejoin="round"/>
</svg>