<svg width="24" height="24" viewBox="0 0 24 24" fill="none" xmlns="http://www.w3.org/2000/svg">
<path fill-rule="evenodd" clip-rule="evenodd" d="M18.38 7.92484C18.11 7.98484 17.89 8.17484 17.82 8.45484C17.58 9.33484 17.58 10.2248 17.82 11.1048C17.9 11.3848 18.12 11.5848 18.38 11.6248C18.43 11.6448 18.48 11.6548 18.54 11.6548C18.6 11.6548 18.67 11.6548 18.74 11.6348C19.14 11.5248 19.37 11.1148 19.26 10.7148C19.09 10.0848 19.09 9.47484 19.26 8.84484C19.37 8.44484 19.14 8.03484 18.74 7.92484C18.62 7.89484 18.49 7.89484 18.38 7.92484Z" fill="black"/>
<path fill-rule="evenodd" clip-rule="evenodd" d="M20.25 19.4546C19.93 19.3146 19.54 19.1946 18.98 19.1946C18.08 19.1946 17.59 19.4846 17.2 19.7146C16.89 19.9046 16.69 20.0246 16.2 20.0246C15.71 20.0246 15.5 19.9046 15.19 19.7146C14.8 19.4846 14.32 19.1946 13.42 19.1946C12.52 19.1946 12.03 19.4846 11.64 19.7146C11.33 19.9046 11.12 20.0246 10.63 20.0246C10.15 20.0246 9.94 19.9046 9.63 19.7246C9.24 19.4846 8.76 19.1946 7.85 19.1946C7.27 19.1946 6.86 19.3246 6.54 19.4646V17.0546H18.38C19.12 17.0546 19.75 16.6346 20.25 15.9446V19.4546ZM18.38 15.5546C17.75 15.5546 16.52 13.5146 16.52 9.76461C16.52 6.02461 17.75 3.97461 18.38 3.97461C19.02 3.97461 20.25 6.02461 20.25 9.76461C20.25 13.5146 19.02 15.5546 18.38 15.5546ZM21.74 10.0946C21.75 9.98461 21.75 9.87461 21.75 9.76461C21.75 6.14461 20.59 2.47461 18.38 2.47461H5.61C3.41 2.47461 2.25 6.14461 2.25 9.76461C2.25 13.0646 3.21 16.3946 5.04 16.9746V20.6846C5.04 20.9246 5.15 21.1446 5.34 21.2946C5.53 21.4346 5.78 21.4746 6 21.4046C6.36 21.3046 6.62 21.1446 6.84 21.0146C7.15 20.8246 7.36 20.6946 7.85 20.6946C8.34 20.6946 8.55 20.8246 8.86 21.0046C9.25 21.2346 9.73 21.5246 10.63 21.5246C11.54 21.5246 12.02 21.2346 12.41 21.0046C12.72 20.8246 12.93 20.6946 13.42 20.6946C13.9 20.6946 14.11 20.8246 14.42 21.0046C14.81 21.2346 15.29 21.5246 16.2 21.5246C17.1 21.5246 17.58 21.2346 17.97 21.0046C18.28 20.8246 18.49 20.6946 18.98 20.6946C19.46 20.6946 19.67 20.8246 19.98 21.0146C20.2 21.1346 20.44 21.2846 20.77 21.3946C20.99 21.4646 21.25 21.4246 21.44 21.2846C21.63 21.1446 21.75 20.9146 21.75 20.6746V10.1646C21.75 10.1546 21.75 10.1346 21.74 10.1246C21.75 10.1146 21.75 10.1046 21.74 10.0946Z" fill="black"/>
</svg>