<svg width="24" height="24" viewBox="0 0 24 24" fill="none" xmlns="http://www.w3.org/2000/svg">
<path d="M15.7695 9.81034C15.7695 13.421 16.941 16.3477 18.3849 16.3477C19.8288 16.3477 21.0002 13.421 21.0002 9.81034C21.0002 6.19964 19.8288 3.27197 18.3849 3.27197C16.941 3.27197 15.7695 6.19964 15.7695 9.81034Z" stroke="black" stroke-width="1.5" stroke-linecap="round" stroke-linejoin="round"/>
<path d="M18.3847 16.3477H5.61438C4.17049 16.3477 3 13.421 3 9.81034C3 6.19964 4.17049 3.27197 5.61438 3.27197H18.3847" stroke="black" stroke-width="1.5" stroke-linecap="round" stroke-linejoin="round"/>
<path d="M18.5395 8.68799C18.3322 9.44788 18.3342 10.201 18.5395 10.9482" stroke="black" stroke-width="1.5" stroke-linecap="round" stroke-linejoin="round"/>
<path d="M11.6193 11.4873H10.4877M15.8558 11.4873H14.1307M4.53177 11.4873H3.08594M7.93455 11.4873H6.84385" stroke="black" stroke-width="1.5" stroke-linecap="round" stroke-linejoin="round"/>
<path d="M20.9995 10.208V20.7142L5.78711 20.7278V16.3465" stroke="black" stroke-width="1.5" stroke-linecap="round" stroke-linejoin="round"/>
</svg>