<svg width="25" height="24" viewBox="0 0 25 24" fill="none" xmlns="http://www.w3.org/2000/svg">
<path d="M7.2002 16.157C6.78613 16.157 6.4502 15.821 6.4502 15.407V8.84307H4C3.58594 8.84307 3.25 8.50708 3.25 8.09307C3.25 7.67907 3.58594 7.34307 4 7.34307H10.3999C10.814 7.34307 11.1499 7.67907 11.1499 8.09307C11.1499 8.50708 10.814 8.84307 10.3999 8.84307H7.9502V15.407C7.9502 15.821 7.61377 16.157 7.2002 16.157Z" fill="black"/>
<path d="M13.6001 16.157C13.186 16.157 12.8501 15.821 12.8501 15.407V8.09307C12.8501 7.78912 13.0332 7.51611 13.313 7.40008C13.5928 7.28411 13.916 7.34808 14.1299 7.56305L16.7998 10.233L19.4697 7.56305C19.6841 7.34808 20.0068 7.28411 20.2871 7.40008C20.3691 7.4342 20.4429 7.48181 20.5063 7.53979C20.6587 7.6792 20.75 7.87841 20.75 8.09307V15.407C20.75 15.821 20.4141 16.157 20 16.157C19.5859 16.157 19.25 15.821 19.25 15.407V9.90326L17.3301 11.8231C17.0371 12.1161 16.563 12.1161 16.27 11.8231L14.3501 9.90326V15.407C14.3501 15.821 14.0142 16.157 13.6001 16.157Z" fill="black"/>
</svg>