<svg width="24" height="24" viewBox="0 0 24 24" fill="none" xmlns="http://www.w3.org/2000/svg">
<path fill-rule="evenodd" clip-rule="evenodd" d="M12 3.75C7.44329 3.75 3.75 7.44329 3.75 12C3.75 16.5567 7.44329 20.25 12 20.25C16.5567 20.25 20.25 16.5567 20.25 12C20.25 7.44329 16.5567 3.75 12 3.75ZM2.25 12C2.25 6.61487 6.61487 2.25 12 2.25C17.3851 2.25 21.75 6.61487 21.75 12C21.75 17.3851 17.3851 21.75 12 21.75C6.61487 21.75 2.25 17.3851 2.25 12Z" fill="black"/>
<path fill-rule="evenodd" clip-rule="evenodd" d="M16.7886 8.61239C17.171 8.7717 17.3518 9.21081 17.1925 9.59316L14.6925 15.5932C14.5332 15.9755 14.0941 16.1563 13.7117 15.997C13.3294 15.8377 13.1486 15.3986 13.3079 15.0162L15.8079 9.01624C15.9672 8.63389 16.4063 8.45308 16.7886 8.61239Z" fill="black"/>
<path fill-rule="evenodd" clip-rule="evenodd" d="M6.25 9.30469C6.25 8.89047 6.58579 8.55469 7 8.55469H10C10.4142 8.55469 10.75 8.89047 10.75 9.30469V15.3047C10.75 15.7189 10.4142 16.0547 10 16.0547C9.58579 16.0547 9.25 15.7189 9.25 15.3047V10.0547H7C6.58579 10.0547 6.25 9.7189 6.25 9.30469Z" fill="black"/>
<path fill-rule="evenodd" clip-rule="evenodd" d="M12.0293 9.23594C12.0293 8.73912 12.432 8.33594 12.9293 8.33594C13.426 8.33594 13.8293 8.73852 13.8293 9.23594C13.8293 9.73334 13.426 10.1359 12.9293 10.1359C12.432 10.1359 12.0293 9.73274 12.0293 9.23594Z" fill="black"/>
</svg>