<svg width="25" height="25" viewBox="0 0 25 25" fill="none" xmlns="http://www.w3.org/2000/svg">
<path fill-rule="evenodd" clip-rule="evenodd" d="M16.063 5.98901C16.063 5.5748 16.3988 5.23901 16.813 5.23901L19.694 5.23901C19.9024 5.23901 20.1015 5.32577 20.2434 5.47847C20.3853 5.63118 20.4572 5.83605 20.4419 6.04394C20.404 6.56018 20.1599 7.25953 19.5804 7.83442C18.9822 8.42789 18.0769 8.83978 16.813 8.83978C16.3988 8.83978 16.063 8.50399 16.063 8.08978C16.063 7.67557 16.3988 7.33978 16.813 7.33978C17.7304 7.33978 18.2399 7.05142 18.524 6.76956C18.5342 6.75943 18.5442 6.74925 18.5539 6.73901L16.813 6.73901C16.3988 6.73901 16.063 6.40323 16.063 5.98901Z" fill="black"/>
<path fill-rule="evenodd" clip-rule="evenodd" d="M8.43701 5.98901C8.43701 5.5748 8.10123 5.23901 7.68701 5.23901L4.80604 5.23901C4.59758 5.23901 4.39853 5.32577 4.25663 5.47847C4.11473 5.63118 4.04278 5.83605 4.05805 6.04394C4.09596 6.56018 4.3401 7.25953 4.91957 7.83442C5.51777 8.42789 6.42308 8.83978 7.68701 8.83978C8.10123 8.83978 8.43701 8.50399 8.43701 8.08978C8.43701 7.67557 8.10123 7.33978 7.68701 7.33978C6.76958 7.33978 6.26011 7.05142 5.97602 6.76956C5.96581 6.75943 5.95582 6.74925 5.94606 6.73901L7.68701 6.73901C8.10123 6.73901 8.43701 6.40323 8.43701 5.98901Z" fill="black"/>
<path fill-rule="evenodd" clip-rule="evenodd" d="M16.063 14.9901C16.063 14.5759 16.3988 14.2401 16.813 14.2401L19.694 14.2401C19.9024 14.2401 20.1015 14.3269 20.2434 14.4796C20.3853 14.6323 20.4572 14.8371 20.4419 15.045C20.404 15.5613 20.1599 16.2606 19.5804 16.8355C18.9822 17.429 18.0769 17.8409 16.813 17.8409C16.3988 17.8409 16.063 17.5051 16.063 17.0909C16.063 16.6767 16.3988 16.3409 16.813 16.3409C17.7304 16.3409 18.2399 16.0525 18.524 15.7707C18.5342 15.7605 18.5442 15.7503 18.5539 15.7401L16.813 15.7401C16.3988 15.7401 16.063 15.4043 16.063 14.9901Z" fill="black"/>
<path fill-rule="evenodd" clip-rule="evenodd" d="M8.43701 14.9901C8.43701 14.5759 8.10123 14.2401 7.68701 14.2401L4.80604 14.2401C4.59758 14.2401 4.39853 14.3269 4.25663 14.4796C4.11473 14.6323 4.04278 14.8371 4.05805 15.045C4.09596 15.5613 4.3401 16.2606 4.91957 16.8355C5.51777 17.429 6.42308 17.8409 7.68701 17.8409C8.10123 17.8409 8.43701 17.5051 8.43701 17.0909C8.43701 16.6767 8.10123 16.3409 7.68701 16.3409C6.76958 16.3409 6.26011 16.0525 5.97602 15.7707C5.96581 15.7605 5.95582 15.7503 5.94606 15.7401L7.68701 15.7401C8.10123 15.7401 8.43701 15.4043 8.43701 14.9901Z" fill="black"/>
<path fill-rule="evenodd" clip-rule="evenodd" d="M16.063 10.4895C16.063 10.0753 16.3988 9.7395 16.813 9.7395L19.694 9.7395C19.9024 9.7395 20.1015 9.82626 20.2434 9.97896C20.3853 10.1317 20.4572 10.3365 20.4419 10.5444C20.404 11.0607 20.1599 11.76 19.5804 12.3349C18.9822 12.9284 18.0769 13.3403 16.813 13.3403C16.3988 13.3403 16.063 13.0045 16.063 12.5903C16.063 12.1761 16.3988 11.8403 16.813 11.8403C17.7304 11.8403 18.2399 11.5519 18.524 11.2701C18.5342 11.2599 18.5442 11.2497 18.5539 11.2395L16.813 11.2395C16.3988 11.2395 16.063 10.9037 16.063 10.4895Z" fill="black"/>
<path fill-rule="evenodd" clip-rule="evenodd" d="M8.43701 10.4895C8.43701 10.0753 8.10123 9.7395 7.68701 9.7395L4.80604 9.7395C4.59758 9.7395 4.39853 9.82626 4.25663 9.97896C4.11473 10.1317 4.04278 10.3365 4.05805 10.5444C4.09596 11.0607 4.3401 11.76 4.91957 12.3349C5.51777 12.9284 6.42308 13.3403 7.68701 13.3403C8.10123 13.3403 8.43701 13.0045 8.43701 12.5903C8.43701 12.1761 8.10123 11.8403 7.68701 11.8403C6.76958 11.8403 6.26011 11.5519 5.97602 11.2701C5.96581 11.2599 5.95582 11.2497 5.94606 11.2395L7.68701 11.2395C8.10123 11.2395 8.43701 10.9037 8.43701 10.4895Z" fill="black"/>
<path fill-rule="evenodd" clip-rule="evenodd" d="M17.563 16.9251C17.563 18.8804 15.9777 20.4657 14.0224 20.4657L10.4777 20.4657C8.52242 20.4657 6.93714 18.8804 6.93714 16.9251L6.93714 6.30424C6.93714 4.34895 8.52242 2.76367 10.4777 2.76367L14.0224 2.76367C15.9777 2.76367 17.563 4.34895 17.563 6.30424L17.563 16.9251ZM14.0224 18.9657C15.1493 18.9657 16.063 18.052 16.063 16.9251L16.063 6.30424C16.063 5.17738 15.1493 4.26367 14.0224 4.26367L10.4777 4.26367C9.35085 4.26367 8.43714 5.17738 8.43714 6.30424L8.43714 16.9251C8.43714 18.052 9.35085 18.9657 10.4777 18.9657L14.0224 18.9657Z" fill="black"/>
<path fill-rule="evenodd" clip-rule="evenodd" d="M11.125 19.0138C11.5392 19.0138 11.875 19.3496 11.875 19.7638V21.5136C11.875 21.9279 11.5392 22.2636 11.125 22.2636C10.7108 22.2636 10.375 21.9279 10.375 21.5136V19.7638C10.375 19.3496 10.7108 19.0138 11.125 19.0138Z" fill="black"/>
<path fill-rule="evenodd" clip-rule="evenodd" d="M13.3755 19.0138C13.7897 19.0138 14.1255 19.3496 14.1255 19.7638V21.5136C14.1255 21.9279 13.7897 22.2636 13.3755 22.2636C12.9613 22.2636 12.6255 21.9279 12.6255 21.5136V19.7638C12.6255 19.3496 12.9613 19.0138 13.3755 19.0138Z" fill="black"/>
<path fill-rule="evenodd" clip-rule="evenodd" d="M12.2501 6.73901C12.043 6.73901 11.875 6.90697 11.875 7.11415C11.875 7.32134 12.043 7.4893 12.2501 7.4893C12.4573 7.4893 12.6253 7.32134 12.6253 7.11415C12.6253 6.90697 12.4573 6.73901 12.2501 6.73901ZM10.375 7.11415C10.375 6.07854 11.2145 5.23901 12.2501 5.23901C13.2858 5.23901 14.1253 6.07854 14.1253 7.11415C14.1253 8.14977 13.2858 8.9893 12.2501 8.9893C11.2145 8.9893 10.375 8.14977 10.375 7.11415Z" fill="black"/>
<path fill-rule="evenodd" clip-rule="evenodd" d="M12.2501 11.2395C12.043 11.2395 11.875 11.4075 11.875 11.6146C11.875 11.8218 12.043 11.9898 12.2501 11.9898C12.4573 11.9898 12.6253 11.8218 12.6253 11.6146C12.6253 11.4075 12.4573 11.2395 12.2501 11.2395ZM10.375 11.6146C10.375 10.579 11.2145 9.7395 12.2501 9.7395C13.2858 9.7395 14.1253 10.579 14.1253 11.6146C14.1253 12.6503 13.2858 13.4898 12.2501 13.4898C11.2145 13.4898 10.375 12.6503 10.375 11.6146Z" fill="black"/>
<path fill-rule="evenodd" clip-rule="evenodd" d="M12.2501 15.7401C12.043 15.7401 11.875 15.9081 11.875 16.1153C11.875 16.3224 12.043 16.4904 12.2501 16.4904C12.4573 16.4904 12.6253 16.3224 12.6253 16.1153C12.6253 15.9081 12.4573 15.7401 12.2501 15.7401ZM10.375 16.1153C10.375 15.0796 11.2145 14.2401 12.2501 14.2401C13.2858 14.2401 14.1253 15.0796 14.1253 16.1153C14.1253 17.1509 13.2858 17.9904 12.2501 17.9904C11.2145 17.9904 10.375 17.1509 10.375 16.1153Z" fill="black"/>
</svg>