<svg width="25" height="25" viewBox="0 0 25 25" fill="none" xmlns="http://www.w3.org/2000/svg">
<path fill-rule="evenodd" clip-rule="evenodd" d="M10.324 16.5303C9.50811 16.5303 8.84668 17.1917 8.84668 18.0076C8.84668 18.8235 9.50811 19.485 10.324 19.485C11.1399 19.485 11.8014 18.8235 11.8014 18.0076C11.8014 17.1917 11.1399 16.5303 10.324 16.5303ZM7.34668 18.0076C7.34668 16.3633 8.67968 15.0303 10.324 15.0303C11.9684 15.0303 13.3014 16.3633 13.3014 18.0076C13.3014 19.652 11.9684 20.985 10.324 20.985C8.67968 20.985 7.34668 19.652 7.34668 18.0076Z" fill="black"/>
<path fill-rule="evenodd" clip-rule="evenodd" d="M11.8013 18.0077C11.8013 17.5935 12.1371 17.2577 12.5513 17.2577H20.6681C20.9368 17.2577 21.1849 17.4014 21.3186 17.6344L22.4005 19.5195C22.6067 19.8788 22.4826 20.3371 22.1234 20.5433C21.7641 20.7495 21.3058 20.6254 21.0996 20.2662L20.2338 18.7577H12.5513C12.1371 18.7577 11.8013 18.4219 11.8013 18.0077Z" fill="black"/>
<path fill-rule="evenodd" clip-rule="evenodd" d="M7.54878 9.18311L7.13253 11.5087L14.4902 11.5087V9.18311H7.54878ZM6.10557 8.73265C6.21429 8.12527 6.74263 7.68311 7.35966 7.68311H14.7161C15.4198 7.68311 15.9902 8.2535 15.9902 8.95712V11.7347C15.9902 12.4383 15.4198 13.0087 14.7161 13.0087L6.86251 13.0087C6.06906 13.0087 5.46863 12.2912 5.60842 11.5102L6.10557 8.73265Z" fill="black"/>
<path fill-rule="evenodd" clip-rule="evenodd" d="M10.9275 7.68311C11.3417 7.68311 11.6775 8.01889 11.6775 8.43311V12.2587C11.6775 12.6729 11.3417 13.0087 10.9275 13.0087C10.5133 13.0087 10.1775 12.6729 10.1775 12.2587V8.43311C10.1775 8.01889 10.5133 7.68311 10.9275 7.68311Z" fill="black"/>
<path fill-rule="evenodd" clip-rule="evenodd" d="M6.23811 6.28455C5.58079 6.28455 5.01961 6.7593 4.91067 7.40753L3.51908 15.6886C3.38112 16.5096 4.01401 17.2577 4.84653 17.2577H8.09538C8.5096 17.2577 8.84538 17.5935 8.84538 18.0077C8.84538 18.4219 8.5096 18.7577 8.09538 18.7577H4.84653C3.08629 18.7577 1.74811 17.1759 2.03982 15.44L3.43141 7.15895C3.66174 5.78835 4.84829 4.78455 6.23811 4.78455H16.2451C17.817 4.78455 19.0912 6.05877 19.0912 7.6306V17.9424C19.0912 18.3566 18.7554 18.6924 18.3412 18.6924C17.927 18.6924 17.5912 18.3566 17.5912 17.9424V7.6306C17.5912 6.88719 16.9885 6.28455 16.2451 6.28455H6.23811Z" fill="black"/>
</svg>