<svg width="25" height="25" viewBox="0 0 25 25" fill="none" xmlns="http://www.w3.org/2000/svg">
<path d="M10.324 20.235C9.0939 20.235 8.09668 19.2377 8.09668 18.0076C8.09668 16.7775 9.0939 15.7803 10.324 15.7803C11.5541 15.7803 12.5514 16.7775 12.5514 18.0076C12.5514 19.2377 11.5541 20.235 10.324 20.235Z" stroke="black" stroke-width="1.5" stroke-linecap="round" stroke-linejoin="round"/>
<path d="M12.5513 18.0077H18.3424H20.6681L21.7501 19.8928" stroke="black" stroke-width="1.5" stroke-linecap="round" stroke-linejoin="round"/>
<path d="M6.84387 8.86479L6.34672 11.6423C6.28922 11.9636 6.53619 12.2587 6.86254 12.2587L14.7162 12.2587C15.0056 12.2587 15.2402 12.0241 15.2402 11.7347V8.95712C15.2402 8.66771 15.0056 8.43311 14.7162 8.43311H7.35969C7.1059 8.43311 6.88859 8.61497 6.84387 8.86479Z" stroke="black" stroke-width="1.5" stroke-linecap="round" stroke-linejoin="round"/>
<path d="M10.9272 8.43311V12.2587" stroke="black" stroke-width="1.5" stroke-linecap="round" stroke-linejoin="round"/>
<path d="M8.09544 18.0077H4.84658C3.55021 18.0077 2.56467 16.8427 2.77951 15.5643L4.1711 7.28324C4.34073 6.27382 5.2146 5.53455 6.23817 5.53455H16.2452C17.4028 5.53455 18.3412 6.47298 18.3412 7.6306V17.9424" stroke="black" stroke-width="1.5" stroke-linecap="round" stroke-linejoin="round"/>
</svg>