<svg width="25" height="25" viewBox="0 0 25 25" fill="none" xmlns="http://www.w3.org/2000/svg">
<path d="M18.1265 4.17871H6.37264C5.26808 4.17871 4.37265 5.07413 4.37264 6.1787L4.37256 20.5908C4.37256 21.1431 4.82027 21.5909 5.37256 21.5909H6.79668C7.15235 21.5909 7.48125 21.4019 7.66046 21.0947L8.04899 20.4287C8.2282 20.1215 8.5571 19.9326 8.91277 19.9326H15.5836C15.9393 19.9326 16.2682 20.1215 16.4474 20.4287L16.8359 21.0947C17.0152 21.4019 17.3441 21.5909 17.6997 21.5909H19.1266C19.6788 21.5909 20.1266 21.1431 20.1266 20.5909L20.1265 6.1787C20.1265 5.07414 19.2311 4.17871 18.1265 4.17871Z" stroke="black" stroke-width="1.5" stroke-linecap="round" stroke-linejoin="round"/>
<path opacity="0.4" d="M22.25 12.0994L22.2498 10.3376M2.2502 12.0994L2.25 10.3376" stroke="black" stroke-width="1.5" stroke-linecap="round" stroke-linejoin="round"/>
<path opacity="0.4" d="M6.6842 13.7763C10.421 14.3352 14.0685 14.3361 17.8156 13.7763L17.8169 9.99055C17.8173 8.88571 16.9218 7.98987 15.8169 7.98987H8.68262C7.57772 7.98987 6.68216 8.88581 6.68262 9.9907L6.6842 13.7763Z" stroke="black" stroke-width="1.5" stroke-linecap="round" stroke-linejoin="round"/>
<path d="M15.6348 17.0242H17.3523" stroke="black" stroke-width="1.5" stroke-linecap="round" stroke-linejoin="round"/>
<path d="M7.14795 17.0242H8.86552" stroke="black" stroke-width="1.5" stroke-linecap="round" stroke-linejoin="round"/>
</svg>