<svg width="25" height="25" viewBox="0 0 25 25" fill="none" xmlns="http://www.w3.org/2000/svg">
<path fill-rule="evenodd" clip-rule="evenodd" d="M3.62264 6.17869C3.62265 4.65992 4.85386 3.42871 6.37264 3.42871H18.1265C19.6453 3.42871 20.8765 4.65992 20.8765 6.1787L20.8766 20.5908C20.8766 21.5574 20.0931 22.3409 19.1266 22.3409H17.6997C17.0773 22.3409 16.5017 22.0103 16.1881 21.4726L15.7996 20.8066C15.7548 20.7298 15.6726 20.6826 15.5836 20.6826H8.91277C8.82385 20.6826 8.74162 20.7298 8.69682 20.8066L8.3083 21.4726L7.66046 21.0947L8.3083 21.4726C7.99468 22.0103 7.4191 22.3409 6.79668 22.3409H5.37256C4.40605 22.3409 3.62255 21.5573 3.62256 20.5908L3.62264 6.17869ZM6.37264 4.92871C5.68229 4.92871 5.12264 5.48835 5.12264 6.1787L5.12256 20.5909C5.12256 20.7289 5.23449 20.8409 5.37256 20.8409H6.79668C6.8856 20.8409 6.96783 20.7936 7.01263 20.7168L7.40115 20.0508L7.83304 20.3027L7.40115 20.0508C7.71477 19.5132 8.29035 19.1826 8.91277 19.1826H15.5836C16.2061 19.1826 16.7816 19.5132 17.0953 20.0508L16.4474 20.4287L17.0953 20.0508L17.4838 20.7168C17.5286 20.7936 17.6108 20.8409 17.6997 20.8409H19.1266C19.2646 20.8409 19.3766 20.7289 19.3766 20.5909L19.3765 6.17871C19.3765 5.48835 18.8168 4.92871 18.1265 4.92871H6.37264Z" fill="black"/>
<path fill-rule="evenodd" clip-rule="evenodd" d="M2.24992 9.58765C2.66413 9.5876 2.99995 9.92335 3 10.3376L3.0002 12.0993C3.00024 12.5136 2.66449 12.8494 2.25028 12.8494C1.83607 12.8495 1.50024 12.5137 1.5002 12.0995L1.5 10.3377C1.49995 9.92352 1.8357 9.58769 2.24992 9.58765ZM22.2497 9.58765C22.6639 9.5876 22.9998 9.92335 22.9998 10.3376L23 12.0993C23 12.5136 22.6643 12.8494 22.2501 12.8494C21.8359 12.8495 21.5 12.5137 21.5 12.0995L21.4998 10.3377C21.4998 9.92352 21.8355 9.58769 22.2497 9.58765Z" fill="black"/>
<path fill-rule="evenodd" clip-rule="evenodd" d="M5.93262 9.99102C5.93198 8.47179 7.16339 7.23987 8.68262 7.23987H15.8169C17.3361 7.23987 18.5674 8.47165 18.5669 9.9908L18.5656 13.7765C18.5655 14.1478 18.2937 14.4632 17.9265 14.518C14.1058 15.0888 10.3836 15.088 6.57324 14.518C6.20608 14.4631 5.93435 14.1478 5.9342 13.7766L5.93262 9.99102ZM8.68262 8.73987C7.99206 8.73987 7.43233 9.29983 7.43262 9.99039L7.43393 13.1247C10.6625 13.5526 13.8291 13.5532 17.0659 13.1246L17.0669 9.99029C17.0672 9.29977 16.5074 8.73987 15.8169 8.73987H8.68262Z" fill="black"/>
<path fill-rule="evenodd" clip-rule="evenodd" d="M14.8848 17.0242C14.8848 16.61 15.2206 16.2742 15.6348 16.2742H17.3523C17.7666 16.2742 18.1023 16.61 18.1023 17.0242C18.1023 17.4384 17.7666 17.7742 17.3523 17.7742H15.6348C15.2206 17.7742 14.8848 17.4384 14.8848 17.0242Z" fill="black"/>
<path fill-rule="evenodd" clip-rule="evenodd" d="M6.39795 17.0242C6.39795 16.61 6.73374 16.2742 7.14795 16.2742H8.86552C9.27974 16.2742 9.61552 16.61 9.61552 17.0242C9.61552 17.4384 9.27974 17.7742 8.86552 17.7742H7.14795C6.73374 17.7742 6.39795 17.4384 6.39795 17.0242Z" fill="black"/>
</svg>