<svg width="25" height="25" viewBox="0 0 25 25" fill="none" xmlns="http://www.w3.org/2000/svg">
<path d="M10.3239 20.235C9.0938 20.235 8.09658 19.2377 8.09658 18.0076C8.09658 16.7775 9.0938 15.7803 10.3239 15.7803C11.554 15.7803 12.5513 16.7775 12.5513 18.0076C12.5513 19.2377 11.554 20.235 10.3239 20.235Z" stroke="black" stroke-width="1.5" stroke-linecap="round" stroke-linejoin="round"/>
<path d="M6.84376 8.86479L6.34661 11.6423C6.28911 11.9636 6.53607 12.2587 6.86242 12.2587L14.7161 12.2587C15.0055 12.2587 15.2401 12.0241 15.2401 11.7347V8.95712C15.2401 8.66771 15.0055 8.43311 14.7161 8.43311H7.35958C7.10579 8.43311 6.88847 8.61497 6.84376 8.86479Z" stroke="black" stroke-width="1.5" stroke-linecap="round" stroke-linejoin="round"/>
<path d="M10.9275 8.43311V12.2587" stroke="black" stroke-width="1.5" stroke-linecap="round" stroke-linejoin="round"/>
<g opacity="0.4">
<path d="M12.5513 18.0077H18.3424H20.6681L21.7501 19.8928" stroke="black" stroke-width="1.5" stroke-linecap="round" stroke-linejoin="round"/>
<path d="M8.09544 18.0077H4.84658C3.55021 18.0077 2.56467 16.8427 2.77951 15.5643L4.1711 7.28324C4.34073 6.27382 5.2146 5.53455 6.23817 5.53455H16.2452C17.4028 5.53455 18.3412 6.47298 18.3412 7.6306V17.9424" stroke="black" stroke-width="1.5" stroke-linecap="round" stroke-linejoin="round"/>
</g>
</svg>