<svg width="25" height="25" viewBox="0 0 25 25" fill="none" xmlns="http://www.w3.org/2000/svg">
<path fill-rule="evenodd" clip-rule="evenodd" d="M5.41988 4.95414C4.6998 5.62474 4.25 6.61393 4.25 7.90325V16.337C4.25 17.6257 4.69973 18.6144 5.41976 19.2846C6.14585 19.9605 7.20857 20.3691 8.52638 20.3691H16.4736C17.7905 20.3691 18.8533 19.9589 19.5799 19.2817C20.3006 18.6099 20.75 17.6209 20.75 16.337V7.90228C20.75 6.61351 20.3003 5.62456 19.5802 4.95406C18.854 4.27793 17.7913 3.86914 16.4736 3.86914H8.52638C7.20868 3.86914 6.14599 4.27793 5.41988 4.95414ZM4.39761 3.85644C5.44838 2.87787 6.89889 2.36914 8.52638 2.36914H16.4736C18.1011 2.36914 19.5516 2.87787 20.6024 3.85628C21.6592 4.84031 22.25 6.24293 22.25 7.90228V16.337C22.25 17.9924 21.6588 19.3945 20.6026 20.3789C19.5523 21.358 18.1019 21.8691 16.4736 21.8691H8.52638C6.89899 21.8691 5.44853 21.3607 4.39773 20.3826C3.34086 19.3988 2.75 17.9963 2.75 16.337V7.90325C2.75 6.24349 3.3408 4.84062 4.39761 3.85644Z" fill="black"/>
<path fill-rule="evenodd" clip-rule="evenodd" d="M7.55859 13.4648C7.55859 13.0506 7.89438 12.7148 8.30859 12.7148H11.0319C11.4461 12.7148 11.7819 13.0506 11.7819 13.4648C11.7819 13.8791 11.4461 14.2148 11.0319 14.2148H8.30859C7.89438 14.2148 7.55859 13.8791 7.55859 13.4648Z" fill="black"/>
<path fill-rule="evenodd" clip-rule="evenodd" d="M7.55859 16.8984C7.55859 16.4842 7.89438 16.1484 8.30859 16.1484H15.6071C16.0213 16.1484 16.3571 16.4842 16.3571 16.8984C16.3571 17.3127 16.0213 17.6484 15.6071 17.6484H8.30859C7.89438 17.6484 7.55859 17.3127 7.55859 16.8984Z" fill="black"/>
<path fill-rule="evenodd" clip-rule="evenodd" d="M17.2178 9.08984C17.632 9.09048 17.9673 9.42678 17.9666 9.84099L17.9625 12.5185C17.9622 12.7175 17.8829 12.9081 17.742 13.0486C17.6011 13.189 17.4102 13.2677 17.2113 13.2674L14.5339 13.263C14.1197 13.2623 13.7845 12.926 13.7852 12.5118C13.7858 12.0976 14.1222 11.7623 14.5364 11.763L16.4637 11.7662L16.4666 9.8387C16.4673 9.42449 16.8036 9.08921 17.2178 9.08984Z" fill="black"/>
<path fill-rule="evenodd" clip-rule="evenodd" d="M7.25373 6.80865C7.5471 6.51624 8.02198 6.51701 8.31439 6.81038L10.2257 8.72789L11.9288 7.02992C12.0715 6.88769 12.2654 6.80883 12.4668 6.8111C12.6682 6.81338 12.8603 6.89659 12.9997 7.04201L17.7565 12.0035C18.0431 12.3025 18.0331 12.7773 17.7341 13.0639C17.4351 13.3506 16.9603 13.3406 16.6737 13.0416L12.4462 8.63217L10.7536 10.3197C10.6127 10.4602 10.4218 10.5389 10.2229 10.5386C10.0239 10.5383 9.83328 10.459 9.69284 10.3181L7.25201 7.86931C6.9596 7.57594 6.96037 7.10107 7.25373 6.80865Z" fill="black"/>
</svg>