<svg width="24" height="24" viewBox="0 0 24 24" fill="none" xmlns="http://www.w3.org/2000/svg">
<path fill-rule="evenodd" clip-rule="evenodd" d="M9.93581 5.31447C9.66476 5.19419 9.34829 5.24489 9.12839 5.44385L2.49681 11.4438C2.33966 11.586 2.25 11.7881 2.25 12C2.25 12.2119 2.33966 12.414 2.49681 12.5562L9.12839 18.5562C9.34829 18.7551 9.66476 18.8058 9.93581 18.6855C10.2069 18.5652 10.3816 18.2965 10.3816 18V14.75H21C21.4142 14.75 21.75 14.4142 21.75 14C21.75 13.5858 21.4142 13.25 21 13.25H9.63158C9.21737 13.25 8.88158 13.5858 8.88158 14V16.31L4.11788 12L8.88158 7.68999V10C8.88158 10.4142 9.21737 10.75 9.63158 10.75H21C21.4142 10.75 21.75 10.4142 21.75 10C21.75 9.58579 21.4142 9.25 21 9.25H10.3816V6C10.3816 5.70346 10.2069 5.43476 9.93581 5.31447Z" fill="black"/>
</svg>