<svg width="24" height="24" viewBox="0 0 24 24" fill="none" xmlns="http://www.w3.org/2000/svg">
<path fill-rule="evenodd" clip-rule="evenodd" d="M5.31449 14.0642C5.1942 14.3352 5.24491 14.6517 5.44386 14.8716L11.4439 21.5032C11.586 21.6603 11.7881 21.75 12 21.75C12.2119 21.75 12.414 21.6603 12.5562 21.5032L18.5562 14.8716C18.7551 14.6517 18.8058 14.3352 18.6855 14.0642C18.5652 13.7931 18.2966 13.6184 18 13.6184L14.75 13.6184L14.75 3C14.75 2.58579 14.4142 2.25 14 2.25C13.5858 2.25 13.25 2.58579 13.25 3L13.25 14.3684C13.25 14.7826 13.5858 15.1184 14 15.1184L16.31 15.1184L12 19.8821L7.69 15.1184L10 15.1184C10.4142 15.1184 10.75 14.7826 10.75 14.3684L10.75 3C10.75 2.58579 10.4142 2.25 10 2.25C9.5858 2.25 9.25001 2.58579 9.25001 3L9.25001 13.6184L6.00001 13.6184C5.70347 13.6184 5.43478 13.7931 5.31449 14.0642Z" fill="black"/>
</svg>