<svg width="25" height="25" viewBox="0 0 25 25" fill="none" xmlns="http://www.w3.org/2000/svg">
<path fill-rule="evenodd" clip-rule="evenodd" d="M4.24076 4.66291C5.22547 3.60678 6.62768 3.01562 8.28313 3.01562H16.7178C18.3772 3.01562 19.7796 3.60648 20.7634 4.66335C21.7416 5.71415 22.25 7.16462 22.25 8.792V16.7392C22.25 18.3666 21.7416 19.8171 20.7633 20.8679C19.7793 21.9248 18.3766 22.5156 16.7169 22.5156H8.28313C6.62379 22.5156 5.22117 21.9248 4.23714 20.868C3.25872 19.8172 2.75 18.3667 2.75 16.7392V8.792C2.75 7.16358 3.26147 5.71322 4.24076 4.66291ZM5.33786 5.68583C4.66042 6.41241 4.25 7.47524 4.25 8.792V16.7392C4.25 18.0569 4.65879 19.1197 5.33492 19.8458C6.00542 20.5659 6.99437 21.0156 8.28313 21.0156H16.7169C18.0062 21.0156 18.9951 20.5658 19.6654 19.8458C20.3414 19.1197 20.75 18.057 20.75 16.7392V8.792C20.75 7.4742 20.3414 6.41147 19.6655 5.68538C18.9952 4.96536 18.0066 4.51562 16.7178 4.51562H8.28313C6.99924 4.51562 6.00988 4.96507 5.33786 5.68583Z" fill="black"/>
<path fill-rule="evenodd" clip-rule="evenodd" d="M7.66797 9.64062C7.66797 9.22641 8.00376 8.89062 8.41797 8.89062H16.5832C16.9974 8.89062 17.3332 9.22641 17.3332 9.64062C17.3332 10.0548 16.9974 10.3906 16.5832 10.3906H8.41797C8.00376 10.3906 7.66797 10.0548 7.66797 9.64062Z" fill="black"/>
<path fill-rule="evenodd" clip-rule="evenodd" d="M12.5 7.81641C12.9142 7.81641 13.25 8.15219 13.25 8.56641V9.63862C13.25 10.0528 12.9142 10.3886 12.5 10.3886C12.0858 10.3886 11.75 10.0528 11.75 9.63862V8.56641C11.75 8.15219 12.0858 7.81641 12.5 7.81641Z" fill="black"/>
<path fill-rule="evenodd" clip-rule="evenodd" d="M14.6864 8.96486C15.0598 8.78538 15.5079 8.94252 15.6874 9.31583C15.7322 9.40905 15.7475 9.49092 15.7519 9.51508C15.7588 9.55184 15.7622 9.58383 15.7641 9.60583C15.7679 9.65052 15.7688 9.69397 15.7687 9.73053C15.7684 9.80582 15.7637 9.89442 15.755 9.99151C15.7375 10.1876 15.7012 10.4461 15.6368 10.7497C15.508 11.3568 15.2629 12.1633 14.8147 13.0253C13.9107 14.7637 12.1884 16.7076 9.00768 17.6806C8.61159 17.8018 8.19226 17.5789 8.07109 17.1828C7.94992 16.7867 8.17279 16.3674 8.56889 16.2462C11.3135 15.4066 12.7393 13.765 13.4838 12.3333C13.8598 11.6102 14.064 10.9354 14.1694 10.4385C14.2221 10.19 14.2491 9.99087 14.261 9.85783C14.2656 9.80598 14.2676 9.76808 14.2683 9.74389C14.2247 9.4296 14.3851 9.10972 14.6864 8.96486Z" fill="black"/>
<path fill-rule="evenodd" clip-rule="evenodd" d="M10.4038 12.1073C10.7675 11.909 11.223 12.0431 11.4213 12.4067C12.1155 13.6799 13.5525 15.5597 16.1649 16.1437C16.5692 16.234 16.8236 16.635 16.7333 17.0392C16.6429 17.4434 16.242 17.6979 15.8377 17.6075C12.6259 16.8896 10.8988 14.5818 10.1044 13.1248C9.90607 12.7611 10.0401 12.3056 10.4038 12.1073Z" fill="black"/>
</svg>