<svg width="24" height="24" viewBox="0 0 24 24" fill="none" xmlns="http://www.w3.org/2000/svg">
<path fill-rule="evenodd" clip-rule="evenodd" d="M11.713 4.30708C11.9932 4.191 12.3158 4.25516 12.5303 4.46966L19.5303 11.4697C19.8232 11.7626 19.8232 12.2374 19.5303 12.5303L12.5303 19.5303C12.3158 19.7448 11.9932 19.809 11.713 19.6929C11.4327 19.5768 11.25 19.3033 11.25 19V15.75H5C4.58579 15.75 4.25 15.4142 4.25 15C4.25 14.5858 4.58579 14.25 5 14.25H12C12.4142 14.25 12.75 14.5858 12.75 15V17.1893L17.9393 12L12.75 6.81065V8.99999C12.75 9.41421 12.4142 9.74999 12 9.74999H5C4.58579 9.74999 4.25 9.41421 4.25 8.99999C4.25 8.58578 4.58579 8.24999 5 8.24999H11.25V4.99999C11.25 4.69664 11.4327 4.42317 11.713 4.30708Z" fill="black"/>
</svg>