<svg width="24" height="24" viewBox="0 0 24 24" fill="none" xmlns="http://www.w3.org/2000/svg">
<path fill-rule="evenodd" clip-rule="evenodd" d="M4.30711 11.713C4.19103 11.9932 4.25519 12.3158 4.46969 12.5303L11.4697 19.5303C11.7626 19.8232 12.2375 19.8232 12.5304 19.5303L19.5304 12.5303C19.7448 12.3158 19.809 11.9932 19.6929 11.713C19.5768 11.4327 19.3034 11.25 19 11.25L15.75 11.25L15.75 5C15.75 4.58579 15.4142 4.25 15 4.25C14.5858 4.25 14.25 4.58579 14.25 5L14.25 12C14.25 12.4142 14.5858 12.75 15 12.75L17.1894 12.75L12 17.9393L6.81068 12.75L9.00002 12.75C9.41424 12.75 9.75002 12.4142 9.75002 12L9.75002 5C9.75002 4.58579 9.41424 4.25 9.00002 4.25C8.58581 4.25 8.25002 4.58579 8.25002 5L8.25002 11.25L5.00002 11.25C4.69667 11.25 4.4232 11.4327 4.30711 11.713Z" fill="black"/>
</svg>