<svg width="24" height="24" viewBox="0 0 24 24" fill="none" xmlns="http://www.w3.org/2000/svg">
<path fill-rule="evenodd" clip-rule="evenodd" d="M14.0642 5.31447C14.3352 5.19419 14.6517 5.24489 14.8716 5.44385L21.5032 11.4438C21.6603 11.586 21.75 11.7881 21.75 12C21.75 12.2119 21.6603 12.414 21.5032 12.5562L14.8716 18.5562C14.6517 18.7551 14.3352 18.8058 14.0642 18.6855C13.7931 18.5652 13.6184 18.2965 13.6184 18V14.75H3C2.58579 14.75 2.25 14.4142 2.25 14C2.25 13.5858 2.58579 13.25 3 13.25H14.3684C14.7826 13.25 15.1184 13.5858 15.1184 14V16.31L19.8821 12L15.1184 7.68999V10C15.1184 10.4142 14.7826 10.75 14.3684 10.75H3C2.58579 10.75 2.25 10.4142 2.25 10C2.25 9.58579 2.58579 9.25 3 9.25H13.6184V6C13.6184 5.70346 13.7931 5.43476 14.0642 5.31447Z" fill="black"/>
</svg>