<svg width="24" height="24" viewBox="0 0 24 24" fill="none" xmlns="http://www.w3.org/2000/svg">
<path opacity="0.4" fill-rule="evenodd" clip-rule="evenodd" d="M16.218 2.5H7.784C4.623 2.5 2.5 4.723 2.5 8.03V15.97C2.5 19.277 4.623 21.5 7.784 21.5H16.217C19.377 21.5 21.5 19.277 21.5 15.97V8.03C21.5 4.723 19.378 2.5 16.218 2.5Z" fill="black"/>
<path fill-rule="evenodd" clip-rule="evenodd" d="M16.7181 15.0298H16.7171C16.3031 15.0298 15.9681 14.6947 15.9671 14.2808L15.9661 13.4648L12.4991 17.0798C12.3611 17.2238 12.1681 17.3077 11.9661 17.3097H11.9581C11.7601 17.3097 11.5691 17.2308 11.4281 17.0918L9.72607 15.3907L7.81507 17.3088C7.66807 17.4567 7.47607 17.5298 7.28307 17.5298C7.09207 17.5298 6.90107 17.4567 6.75407 17.3108C6.46107 17.0188 6.46007 16.5447 6.75207 16.2507L9.19307 13.8007C9.33307 13.6597 9.52407 13.5798 9.72307 13.5798C9.92107 13.5798 10.1141 13.6588 10.2541 13.7987L11.9471 15.4888L14.9501 12.3558L14.0381 12.3597H14.0351C13.6221 12.3597 13.2871 12.0258 13.2851 11.6128C13.2831 11.1988 13.6181 10.8617 14.0321 10.8597L16.6971 10.8488H16.7131C16.7431 10.8488 16.7701 10.8628 16.8001 10.8658C16.8651 10.8738 16.9311 10.8797 16.9931 10.9047C17.0341 10.9207 17.0671 10.9517 17.1051 10.9757C17.1491 11.0027 17.1961 11.0207 17.2351 11.0577C17.2371 11.0597 17.2371 11.0627 17.2391 11.0647L17.2421 11.0668C17.2611 11.0858 17.2701 11.1118 17.2871 11.1328C17.3971 11.2688 17.4621 11.4298 17.4631 11.5968L17.4671 14.2788C17.4681 14.6927 17.1321 15.0288 16.7181 15.0298ZM7.80907 9.89975H10.5321C10.9471 9.89975 11.2821 10.2357 11.2821 10.6497C11.2821 11.0637 10.9471 11.3997 10.5321 11.3997H7.80907C7.39507 11.3997 7.05907 11.0637 7.05907 10.6497C7.05907 10.2357 7.39507 9.89975 7.80907 9.89975ZM7.80907 6.46875H15.1081C15.5221 6.46875 15.8581 6.80475 15.8581 7.21875C15.8581 7.63375 15.5221 7.96875 15.1081 7.96875H7.80907C7.39507 7.96875 7.05907 7.63375 7.05907 7.21875C7.05907 6.80475 7.39507 6.46875 7.80907 6.46875Z" fill="black"/>
</svg>