<svg width="24" height="24" viewBox="0 0 24 24" fill="none" xmlns="http://www.w3.org/2000/svg">
<path fill-rule="evenodd" clip-rule="evenodd" d="M12.287 19.6929C12.0068 19.809 11.6842 19.7448 11.4697 19.5303L4.46967 12.5303C4.17678 12.2374 4.17678 11.7626 4.46967 11.4697L11.4697 4.46968C11.6842 4.25518 12.0068 4.19101 12.287 4.3071C12.5673 4.42319 12.75 4.69666 12.75 5.00001L12.75 8.25001L19 8.25001C19.4142 8.25001 19.75 8.5858 19.75 9.00001C19.75 9.41422 19.4142 9.75001 19 9.75001L12 9.75001C11.5858 9.75001 11.25 9.41422 11.25 9.00001L11.25 6.81067L6.06066 12L11.25 17.1893L11.25 15C11.25 14.5858 11.5858 14.25 12 14.25L19 14.25C19.4142 14.25 19.75 14.5858 19.75 15C19.75 15.4142 19.4142 15.75 19 15.75L12.75 15.75L12.75 19C12.75 19.3034 12.5673 19.5768 12.287 19.6929Z" fill="black"/>
</svg>