<svg width="25" height="24" viewBox="0 0 25 24" fill="none" xmlns="http://www.w3.org/2000/svg">
<path d="M15.8877 4.20898H12.8174C12.6073 4.21207 12.4065 4.29711 12.259 4.4468C12.1115 4.59649 12.0292 4.79845 12.0293 5.00859V13.0794C12.0306 13.1837 12.0081 13.2862 11.9632 13.3804C11.9183 13.4746 11.852 13.558 11.7702 13.6228C11.6884 13.6876 11.593 13.7329 11.491 13.7549C11.389 13.777 11.2832 13.7744 11.182 13.7492L3.02963 11.3963C2.88022 11.3577 2.74726 11.2715 2.65165 11.1504C2.55604 11.0293 2.50282 10.8808 2.5 10.7265V5.961C2.49997 5.77894 2.57169 5.60487 2.69933 5.47503C2.82696 5.3452 3.00039 5.27018 3.18243 5.26709H12.0293" stroke="black" stroke-width="1.5" stroke-linecap="round" stroke-linejoin="round"/>
<path d="M10.4636 17.9755C10.4649 18.1528 10.4411 18.3302 10.393 18.5003C10.2862 18.9086 10.0526 19.2681 9.72837 19.5251C9.40411 19.7821 9.00731 19.9214 8.59903 19.9214C8.19075 19.9214 7.79396 19.7821 7.4697 19.5251C7.14544 19.2681 6.91187 18.9086 6.80508 18.5003C6.75698 18.3302 6.73313 18.1528 6.73443 17.9755C6.7717 17.4897 6.98396 17.0362 7.32954 16.7056C7.67512 16.3749 8.1286 16.1914 8.59903 16.1914C9.06947 16.1914 9.52238 16.3749 9.86796 16.7056C10.2135 17.0362 10.4264 17.4897 10.4636 17.9755V17.9755Z" stroke="black" stroke-width="1.5" stroke-linecap="round" stroke-linejoin="round"/>
<path d="M19.9461 17.9755C19.9474 18.1528 19.9235 18.3302 19.8754 18.5003C19.7686 18.9086 19.5351 19.2681 19.2108 19.5251C18.8865 19.7821 18.4897 19.9214 18.0815 19.9214C17.6732 19.9214 17.2764 19.7821 16.9521 19.5251C16.6279 19.2681 16.3943 18.9086 16.2875 18.5003C16.2394 18.3302 16.2156 18.1528 16.2168 17.9755C16.2541 17.4897 16.4664 17.0362 16.812 16.7056C17.1575 16.3749 17.611 16.1914 18.0815 16.1914C18.5519 16.1914 19.0048 16.3749 19.3504 16.7056C19.696 17.0362 19.9088 17.4897 19.9461 17.9755V17.9755Z" stroke="black" stroke-width="1.5" stroke-linecap="round" stroke-linejoin="round"/>
<path d="M16.1058 17.9258L10.5764 17.9258" stroke="black" stroke-width="1.5" stroke-linecap="round" stroke-linejoin="round"/>
<path d="M6.42893 17.9725H4.92334C4.69028 17.9694 4.46777 17.8753 4.30296 17.7105C4.13814 17.5457 4.04406 17.3232 4.04102 17.0901V15.584" stroke="black" stroke-width="1.5" stroke-linecap="round" stroke-linejoin="round"/>
<path opacity="0.4" d="M14.5332 12.0194H19.0626" stroke="black" stroke-width="1.5" stroke-linecap="round" stroke-linejoin="round"/>
<path d="M14.4648 17.878V7.29007C14.4648 7.08103 14.5479 6.87954 14.6958 6.73173C14.8436 6.58391 15.0439 6.50195 15.253 6.50195H17.8414C18.1327 6.50267 18.4197 6.57358 18.6777 6.70875C18.9358 6.84391 19.1569 7.03838 19.3234 7.27744L22.1823 11.4306C22.398 11.7364 22.5094 12.1031 22.5 12.4772V15.9249C22.5 16.4772 22.2805 17.0061 21.89 17.3966C21.4995 17.7872 20.9699 18.0067 20.4177 18.0067H20.1" stroke="black" stroke-width="1.5" stroke-linecap="round" stroke-linejoin="round"/>
<path opacity="0.4" d="M9.20508 8.76172V12.9849" stroke="black" stroke-width="1.5" stroke-linecap="round" stroke-linejoin="round"/>
<path opacity="0.4" d="M5.73633 9.47864V12.0197" stroke="black" stroke-width="1.5" stroke-linecap="round" stroke-linejoin="round"/>
</svg>