<svg width="25" height="25" viewBox="0 0 25 25" fill="none" xmlns="http://www.w3.org/2000/svg">
<path fill-rule="evenodd" clip-rule="evenodd" d="M13.8975 4.36672C13.0837 3.70328 11.9161 3.70328 11.1022 4.36672L5.52808 8.90658C5.52803 8.90662 5.52814 8.90653 5.52808 8.90658C5.01188 9.32762 4.7124 9.95791 4.7124 10.6235V17.7974C4.7124 19.2174 5.86348 20.3691 7.28418 20.3691H17.7156C19.1363 20.3691 20.2873 19.2174 20.2873 17.7974V10.6235C20.2873 9.95791 19.988 9.32775 19.4718 8.90671C19.4718 8.90667 19.4719 8.90676 19.4718 8.90671L13.8975 4.36672ZM14.845 3.20386C13.4795 2.0909 11.5202 2.0909 10.1547 3.20386C10.1546 3.20393 10.1548 3.20379 10.1547 3.20386L4.58046 7.74382C3.71513 8.44949 3.2124 9.50673 3.2124 10.6235V17.7974C3.2124 20.0455 5.03477 21.8691 7.28418 21.8691H17.7156C19.965 21.8691 21.7873 20.0455 21.7873 17.7974V10.6235C21.7873 9.50673 21.285 8.44979 20.4196 7.74411L14.845 3.20386C14.8451 3.20393 14.845 3.20379 14.845 3.20386Z" fill="black"/>
<path fill-rule="evenodd" clip-rule="evenodd" d="M7.66603 10.7568C7.33859 11.0105 7.2788 11.4815 7.53249 11.809L10.2777 15.3523C10.4001 15.5102 10.5803 15.6128 10.7786 15.6373C10.9768 15.6618 11.1766 15.6062 11.3338 15.4828L13.9381 13.438L16.2816 16.483C16.5342 16.8112 17.0051 16.8725 17.3334 16.6199C17.6616 16.3673 17.7229 15.8964 17.4703 15.5681L14.665 11.923C14.5429 11.7644 14.3624 11.6611 14.1638 11.6363C13.9652 11.6114 13.7649 11.6669 13.6074 11.7905L11.0012 13.8369L8.71825 10.8903C8.46456 10.5629 7.99347 10.5031 7.66603 10.7568Z" fill="black"/>
</svg>