<svg width="24" height="24" viewBox="0 0 24 24" fill="none" xmlns="http://www.w3.org/2000/svg">
<path fill-rule="evenodd" clip-rule="evenodd" d="M3.71718 19.6902C3.81447 19.3195 4.12776 19.0441 4.50818 18.9945L17.2314 17.3551C18.2033 17.2296 19.1004 17.8912 19.2687 18.8564C19.4643 19.9821 18.5906 21.0105 17.4474 20.9998L4.62007 20.8723C4.00517 20.8665 3.56054 20.2846 3.71718 19.6902Z" stroke="black" stroke-width="1.5" stroke-linecap="round" stroke-linejoin="round"/>
<path d="M5.4668 8.68634C6.23542 7.5295 7.67441 6.67331 9.0881 6.9039C11.4105 7.28432 11.9651 10.388 14.4646 10.388" stroke="black" stroke-width="1.5" stroke-linecap="round" stroke-linejoin="round"/>
<path d="M10.5269 7.74902C9.40899 9.18995 8.31832 10.6679 9.43429 12.4532C9.98011 13.3269 10.6612 14.0819 10.6738 15.1677C10.6865 16.3177 10.1095 17.388 9.56369 18.3638" stroke="black" stroke-width="1.5" stroke-linecap="round" stroke-linejoin="round"/>
<path d="M7.5063 13.8506C6.94588 14.2573 6.21131 14.4441 5.5322 14.519C4.91924 14.5871 4.30045 14.5657 3.68555 14.5336" stroke="black" stroke-width="1.5" stroke-linecap="round" stroke-linejoin="round"/>
<path fill-rule="evenodd" clip-rule="evenodd" d="M13.4439 6.36152C14.3682 6.36152 15.1242 5.60944 15.1242 4.68027C15.1242 3.75209 14.3682 3 13.4439 3C12.5196 3 11.7637 3.75209 11.7637 4.68027C11.7637 5.60944 12.5196 6.36152 13.4439 6.36152Z" stroke="black" stroke-width="1.5" stroke-linecap="round" stroke-linejoin="round"/>
<path d="M16.7031 17.4238L17.9514 7.68174L20.3166 6.6582" stroke="black" stroke-width="1.5" stroke-linecap="round" stroke-linejoin="round"/>
</svg>