<svg width="24" height="24" viewBox="0 0 24 24" fill="none" xmlns="http://www.w3.org/2000/svg">
<path d="M4.67383 6.13086L9.10533 6.68995" stroke="black" stroke-width="1.5" stroke-linecap="round" stroke-linejoin="round"/>
<path d="M14.084 13.0177L15.8194 5.97486C17.6387 6.31717 18.8658 6.20562 20.0226 2.90039" stroke="black" stroke-width="1.5" stroke-linecap="round" stroke-linejoin="round"/>
<path d="M6.75 6.43652L7.94617 11.2317" stroke="black" stroke-width="1.5" stroke-linecap="round" stroke-linejoin="round"/>
<path d="M7.94727 14.9707H9.99424" stroke="black" stroke-width="1.5" stroke-linecap="round" stroke-linejoin="round"/>
<path d="M15.3635 13.4088L8.46766 11.3758C6.83427 10.8942 5.09128 11.6578 4.33787 13.185C3.79183 14.2918 3.86889 15.6043 4.54068 16.6396L4.57423 16.6913C5.23979 17.7171 6.3794 18.3361 7.60213 18.3361H14.6523C15.6911 18.3361 16.6231 17.6974 16.9979 16.7285C17.5284 15.3569 16.7741 13.8247 15.3635 13.4088Z" stroke="black" stroke-width="1.5" stroke-linecap="round" stroke-linejoin="round"/>
<path d="M5.15558 20.5943V20.7118M5.63178 20.6196C5.63178 20.8841 5.41718 21.0985 5.15266 21.0985C4.88814 21.0985 4.67383 20.8841 4.67383 20.6196C4.67383 20.3551 4.88814 20.1406 5.15266 20.1406C5.41718 20.1406 5.63178 20.3551 5.63178 20.6196Z" stroke="black" stroke-width="1.5" stroke-linecap="round" stroke-linejoin="round"/>
<path d="M17.1693 20.5943V20.7118M17.6455 20.6196C17.6455 20.8841 17.4308 21.0985 17.1663 21.0985C16.9018 21.0985 16.6875 20.8841 16.6875 20.6196C16.6875 20.3551 16.9018 20.1406 17.1663 20.1406C17.4308 20.1406 17.6455 20.3551 17.6455 20.6196Z" stroke="black" stroke-width="1.5" stroke-linecap="round" stroke-linejoin="round"/>
</svg>