<svg width="24" height="25" viewBox="0 0 24 25" fill="none" xmlns="http://www.w3.org/2000/svg">
<path fill-rule="evenodd" clip-rule="evenodd" d="M4.83745 5.53535C4.16024 6.26189 3.75 7.32474 3.75 8.6416V16.5888C3.75 17.9066 4.15861 18.9694 4.83451 19.6955C5.50475 20.4155 6.49341 20.8652 7.78216 20.8652H16.2159C17.5052 20.8652 18.4944 20.4154 19.165 19.6953C19.8412 18.9692 20.25 17.9065 20.25 16.5888V8.6416C20.25 7.3239 19.8412 6.26119 19.1651 5.53507C18.4946 4.81498 17.5057 4.36523 16.2169 4.36523H7.78216C6.49828 4.36523 5.50921 4.81466 4.83745 5.53535ZM3.7402 4.5126C4.72468 3.4564 6.12669 2.86523 7.78216 2.86523H16.2169C17.8762 2.86523 19.2789 3.45608 20.2629 4.51288C21.2413 5.56364 21.75 7.01412 21.75 8.6416V16.5888C21.75 18.2163 21.2413 19.6668 20.2627 20.7176C19.2785 21.7744 17.8757 22.3652 16.2159 22.3652H7.78216C6.1228 22.3652 4.72038 21.7744 3.73657 20.7175C2.75842 19.6667 2.25 18.2162 2.25 16.5888V8.6416C2.25 7.01328 2.76117 5.56294 3.7402 4.5126Z" fill="black"/>
<path fill-rule="evenodd" clip-rule="evenodd" d="M11.9999 7.36523C12.2282 7.36523 12.444 7.4692 12.5863 7.64769L15.969 11.8905C16.1486 12.1158 16.1833 12.424 16.0583 12.6835C15.9333 12.9431 15.6707 13.1081 15.3826 13.1081H14.7451L15.5415 14.4875C15.6755 14.7196 15.6755 15.0055 15.5415 15.2375C15.4075 15.4696 15.1599 15.6125 14.892 15.6125H9.10817C8.84022 15.6125 8.59263 15.4696 8.45865 15.2375C8.32468 15.0055 8.32468 14.7196 8.45865 14.4875L9.25509 13.1081H8.61719C8.32912 13.1081 8.0665 12.9431 7.94149 12.6835C7.81648 12.424 7.85118 12.1158 8.03076 11.8905L11.4135 7.64769C11.5558 7.4692 11.7716 7.36523 11.9999 7.36523ZM10.1743 11.6081H10.5541C10.8221 11.6081 11.0697 11.751 11.2036 11.9831C11.3376 12.2151 11.3376 12.501 11.2036 12.7331L10.4072 14.1125H13.593L12.7965 12.7331C12.6625 12.501 12.6625 12.2151 12.7965 11.9831C12.9305 11.751 13.1781 11.6081 13.446 11.6081H13.8255L11.9999 9.31832L10.1743 11.6081Z" fill="black"/>
<path fill-rule="evenodd" clip-rule="evenodd" d="M12.0002 14.1128C12.4144 14.1128 12.7502 14.4486 12.7502 14.8628L12.7502 17.1153C12.7502 17.5295 12.4144 17.8653 12.0002 17.8653C11.586 17.8653 11.2502 17.5295 11.2502 17.1153L11.2502 14.8628C11.2502 14.4486 11.586 14.1128 12.0002 14.1128Z" fill="black"/>
</svg>