<svg width="24" height="25" viewBox="0 0 24 25" fill="none" xmlns="http://www.w3.org/2000/svg">
<path fill-rule="evenodd" clip-rule="evenodd" d="M12 3.11523C6.762 3.11523 2.5 7.37723 2.5 12.6152C2.5 17.8532 6.762 22.1152 12 22.1152C17.238 22.1152 21.5 17.8532 21.5 12.6152C21.5 7.37723 17.238 3.11523 12 3.11523Z" fill="black" fill-opacity="0.4"/>
<path fill-rule="evenodd" clip-rule="evenodd" d="M15.8335 12.575C15.7505 12.748 15.5755 12.858 15.3835 12.858H14.3125L15.3245 14.613C15.4145 14.767 15.4145 14.958 15.3245 15.113C15.2355 15.267 15.0705 15.363 14.8925 15.363H12.7505V17.116C12.7505 17.53 12.4145 17.866 12.0005 17.866C11.5865 17.866 11.2505 17.53 11.2505 17.116V15.363H9.10848C8.92948 15.363 8.76448 15.267 8.67548 15.113C8.58548 14.958 8.58548 14.767 8.67548 14.613L9.68848 12.858H8.61748C8.42548 12.858 8.25048 12.748 8.16648 12.575C8.08348 12.402 8.10648 12.197 8.22648 12.047L11.6095 7.80399C11.7995 7.56599 12.2015 7.56599 12.3915 7.80399L15.7735 12.047C15.8945 12.197 15.9175 12.402 15.8335 12.575Z" fill="black"/>
</svg>