<svg width="25" height="25" viewBox="0 0 25 25" fill="none" xmlns="http://www.w3.org/2000/svg">
<path d="M16.7169 21.1187H8.28216C5.33405 21.1187 3.5 19.0384 3.5 16.0923V8.146C3.5 5.19984 5.33405 3.11865 8.28313 3.11865H16.7169C19.665 3.11865 21.5 5.19984 21.5 8.146V16.0923C21.5 19.0384 19.6562 21.1187 16.7169 21.1187Z" stroke="black" stroke-width="1.5" stroke-linecap="round" stroke-linejoin="round"/>
<path d="M9.5 9.11865L21.5 9.11865" stroke="black" stroke-width="1.5" stroke-linecap="round"/>
<path d="M3.5 12.1187H9.5" stroke="black" stroke-width="1.5" stroke-linecap="round"/>
<path d="M15.5 14.2134L21.5 14.2134" stroke="black" stroke-width="1.5" stroke-linecap="round"/>
<path d="M9.5 16.9541L15.5 16.9541" stroke="black" stroke-width="1.5" stroke-linecap="round"/>
<path d="M15.5 9.11865L15.5 21.1187" stroke="black" stroke-width="1.5" stroke-linecap="round"/>
<path d="M13.5 3.11865L13.5 9.11865" stroke="black" stroke-width="1.5" stroke-linecap="round"/>
<path d="M17.5 3.22217L17.5 9.11865" stroke="black" stroke-width="1.5" stroke-linecap="round"/>
<path d="M9.5 3.11865L9.5 21.1187" stroke="black" stroke-width="1.5" stroke-linecap="round"/>
</svg>