<svg width="24" height="25" viewBox="0 0 24 25" fill="none" xmlns="http://www.w3.org/2000/svg">
<path fill-rule="evenodd" clip-rule="evenodd" d="M15.833 12.5742C15.75 12.7472 15.575 12.8572 15.383 12.8572H14.312L15.324 14.6122C15.414 14.7662 15.414 14.9572 15.324 15.1122C15.235 15.2662 15.07 15.3622 14.892 15.3622H12.75V17.1152C12.75 17.5292 12.414 17.8652 12 17.8652C11.586 17.8652 11.25 17.5292 11.25 17.1152V15.3622H9.108C8.929 15.3622 8.764 15.2662 8.675 15.1122C8.585 14.9572 8.585 14.7662 8.675 14.6122L9.688 12.8572H8.617C8.425 12.8572 8.25 12.7472 8.166 12.5742C8.083 12.4012 8.106 12.1962 8.226 12.0462L11.609 7.80323C11.799 7.56523 12.201 7.56523 12.391 7.80323L15.773 12.0462C15.894 12.1962 15.917 12.4012 15.833 12.5742ZM12 3.11523C6.762 3.11523 2.5 7.37623 2.5 12.6152C2.5 17.8532 6.762 22.1152 12 22.1152C17.238 22.1152 21.5 17.8532 21.5 12.6152C21.5 7.37623 17.238 3.11523 12 3.11523Z" fill="black"/>
</svg>