<svg width="24" height="24" viewBox="0 0 24 24" fill="none" xmlns="http://www.w3.org/2000/svg">
<path d="M14.2048 12.7835H15.7746C16.2078 12.7835 16.5595 12.4319 16.5595 11.9986V8.8591C16.5595 8.42585 16.2078 8.07422 15.7746 8.07422H14.2048C13.7715 8.07422 13.4199 8.42585 13.4199 8.8591V11.9986C13.4199 12.4319 13.7715 12.7835 14.2048 12.7835Z" stroke="black" stroke-width="1.5" stroke-linecap="round" stroke-linejoin="round"/>
<path d="M8.22531 15.923H9.79508C10.2283 15.923 10.58 15.5714 10.58 15.1382V8.8591C10.58 8.42585 10.2283 8.07422 9.79508 8.07422H8.22531C7.79206 8.07422 7.44043 8.42585 7.44043 8.8591V15.1382C7.44043 15.5714 7.79206 15.923 8.22531 15.923Z" stroke="black" stroke-width="1.5" stroke-linecap="round" stroke-linejoin="round"/>
<circle cx="12" cy="12" r="9" stroke="black" stroke-width="1.5" stroke-linecap="round" stroke-linejoin="round"/>
</svg>