<svg width="24" height="25" viewBox="0 0 24 25" fill="none" xmlns="http://www.w3.org/2000/svg">
<path fill-rule="evenodd" clip-rule="evenodd" d="M9.56689 8.38867H7.62089C7.49789 8.38867 7.39789 8.49267 7.39789 8.61867V16.3987C7.39789 16.5227 7.49589 16.6187 7.62089 16.6187H9.56689C9.69189 16.6187 9.78989 16.5227 9.78989 16.3987V8.61867C9.78989 8.49267 9.68989 8.38867 9.56689 8.38867Z" fill="black"/>
<path fill-rule="evenodd" clip-rule="evenodd" d="M16.3779 8.38867H14.4319C14.3089 8.38867 14.2089 8.49267 14.2089 8.61867V12.5087C14.2089 12.6317 14.3069 12.7287 14.4319 12.7287H16.3779C16.5029 12.7287 16.6009 12.6317 16.6009 12.5087V8.61867C16.6009 8.49267 16.5009 8.38867 16.3779 8.38867Z" fill="black"/>
<path fill-rule="evenodd" clip-rule="evenodd" d="M18.101 12.5088C18.101 13.4568 17.328 14.2288 16.378 14.2288H14.432C13.482 14.2288 12.709 13.4568 12.709 12.5088V8.61879C12.709 7.66479 13.482 6.88879 14.432 6.88879H16.378C17.328 6.88879 18.101 7.66479 18.101 8.61879V12.5088ZM11.29 16.3988C11.29 17.3478 10.517 18.1188 9.567 18.1188H7.621C6.671 18.1188 5.898 17.3478 5.898 16.3988V8.61879C5.898 7.66479 6.671 6.88879 7.621 6.88879H9.567C10.517 6.88879 11.29 7.66479 11.29 8.61879V16.3988ZM16.217 3.00879H7.782C4.622 3.00879 2.5 5.23179 2.5 8.53879V16.4788C2.5 19.7858 4.622 22.0088 7.782 22.0088H16.216C19.376 22.0088 21.5 19.7858 21.5 16.4788V8.53879C21.5 5.23179 19.377 3.00879 16.217 3.00879Z" fill="black"/>
</svg>