<svg width="24" height="24" viewBox="0 0 24 24" fill="none" xmlns="http://www.w3.org/2000/svg">
<path d="M7.78216 3H16.2169C19.165 3 21 5.08119 21 8.02638V15.9736C21 18.9188 19.165 21 16.2159 21H7.78216C4.83405 21 3 18.9188 3 15.9736V8.02638C3 5.08119 4.84281 3 7.78216 3Z" stroke="black" stroke-width="1.5" stroke-linecap="round" stroke-linejoin="round"/>
<path d="M14.432 12.9707H16.3779C16.915 12.9707 17.3509 12.5348 17.3509 11.9977V8.10579C17.3509 7.5687 16.915 7.13281 16.3779 7.13281H14.432C13.8949 7.13281 13.459 7.5687 13.459 8.10579V11.9977C13.459 12.5348 13.8949 12.9707 14.432 12.9707Z" stroke="black" stroke-width="1.5" stroke-linecap="round" stroke-linejoin="round"/>
<path d="M7.62141 16.8625H9.56736C10.1044 16.8625 10.5403 16.4267 10.5403 15.8896V8.10579C10.5403 7.5687 10.1044 7.13281 9.56736 7.13281H7.62141C7.08433 7.13281 6.64844 7.5687 6.64844 8.10579V15.8896C6.64844 16.4267 7.08433 16.8625 7.62141 16.8625Z" stroke="black" stroke-width="1.5" stroke-linecap="round" stroke-linejoin="round"/>
</svg>