<svg width="25" height="25" viewBox="0 0 25 25" fill="none" xmlns="http://www.w3.org/2000/svg">
<path fill-rule="evenodd" clip-rule="evenodd" d="M5.20093 17.521C5.61514 17.521 5.95093 17.8568 5.95093 18.271L5.95093 21.1186C5.95093 21.5328 5.61514 21.8686 5.20093 21.8686C4.78671 21.8686 4.45093 21.5328 4.45093 21.1186L4.45093 18.271C4.45093 17.8568 4.78671 17.521 5.20093 17.521Z" fill="black"/>
<path fill-rule="evenodd" clip-rule="evenodd" d="M10.3323 16.165C10.7465 16.165 11.0823 16.5008 11.0823 16.915L11.0823 21.1186C11.0823 21.5328 10.7465 21.8686 10.3323 21.8686C9.91806 21.8686 9.58228 21.5328 9.58228 21.1186L9.58228 16.915C9.58228 16.5008 9.91806 16.165 10.3323 16.165Z" fill="black"/>
<path fill-rule="evenodd" clip-rule="evenodd" d="M15.4639 13.4531C15.8781 13.4531 16.2139 13.7889 16.2139 14.2031L16.2139 21.1187C16.2139 21.5329 15.8781 21.8687 15.4639 21.8687C15.0497 21.8687 14.7139 21.5329 14.7139 21.1187L14.7139 14.2031C14.7139 13.7889 15.0497 13.4531 15.4639 13.4531Z" fill="black"/>
<path fill-rule="evenodd" clip-rule="evenodd" d="M20.5955 9.521C21.0097 9.521 21.3455 9.85678 21.3455 10.271L21.3455 21.119C21.3455 21.5332 21.0097 21.869 20.5955 21.869C20.1812 21.869 19.8455 21.5332 19.8455 21.119L19.8455 10.271C19.8455 9.85678 20.1812 9.521 20.5955 9.521Z" fill="black"/>
<path fill-rule="evenodd" clip-rule="evenodd" d="M21.0339 2.51008C21.197 2.6276 21.3062 2.80572 21.3368 3.00445L21.7678 5.80195C21.8309 6.21134 21.5501 6.59434 21.1408 6.65741C20.7314 6.72049 20.3484 6.43975 20.2853 6.03036L19.9704 3.98658L17.6037 4.39173C17.1954 4.46162 16.8078 4.18731 16.7379 3.77903C16.668 3.37076 16.9423 2.98313 17.3506 2.91324L20.469 2.37941C20.6672 2.34548 20.8707 2.39256 21.0339 2.51008Z" fill="black"/>
<path fill-rule="evenodd" clip-rule="evenodd" d="M20.9825 2.47641C21.3373 2.69023 21.4515 3.15115 21.2377 3.50591C17.9491 8.96238 13.6459 11.6292 10.1547 12.9245C8.41298 13.5707 6.87607 13.8749 5.7699 14.0175C5.21647 14.0889 4.76971 14.1201 4.45755 14.1332C4.30143 14.1398 4.17885 14.1419 4.09329 14.1423C4.0505 14.1425 4.01696 14.1423 3.99309 14.142L3.96459 14.1415L3.95589 14.1413L3.95293 14.1412L3.95181 14.1412C3.95135 14.1412 3.95093 14.1412 3.97293 13.3989L3.95181 14.1412C3.53778 14.1289 3.2112 13.7833 3.22348 13.3693C3.23575 12.9555 3.58098 12.6299 3.99473 12.6418C3.99451 12.6418 3.99494 12.6418 3.99473 12.6418L4.01239 12.6421C4.02769 12.6423 4.05247 12.6425 4.0863 12.6423C4.15396 12.642 4.25777 12.6403 4.39431 12.6346C4.66747 12.623 5.07111 12.5953 5.578 12.5299C6.59247 12.399 8.01589 12.1181 9.63292 11.5182C12.8591 10.3212 16.8671 7.85169 19.953 2.73161C20.1668 2.37685 20.6278 2.2626 20.9825 2.47641Z" fill="black"/>
</svg>