<svg width="25" height="25" viewBox="0 0 25 25" fill="none" xmlns="http://www.w3.org/2000/svg">
<path fill-rule="evenodd" clip-rule="evenodd" d="M5.33451 5.03841C4.65861 5.7645 4.25 6.82723 4.25 8.14503V16.0923C4.25 17.4101 4.65861 18.4728 5.33459 19.1989C6.00493 19.9189 6.99383 20.3687 8.28313 20.3687H16.7169C18.0056 20.3687 18.9946 19.9189 19.6651 19.1988C20.3412 18.4727 20.75 17.41 20.75 16.0923V8.14503C20.75 6.82827 20.3396 5.76543 19.6621 5.03885C18.9901 4.31809 18.0008 3.86865 16.7169 3.86865H8.28216C6.99341 3.86865 6.00475 4.31839 5.33451 5.03841ZM4.23657 4.01638C5.22038 2.95951 6.6228 2.36865 8.28216 2.36865H16.7169C18.3723 2.36865 19.7745 2.95981 20.7592 4.01594C21.7385 5.06625 22.25 6.5166 22.25 8.14503V16.0923C22.25 17.7198 21.7413 19.1702 20.7629 20.221C19.7788 21.2778 18.3762 21.8687 16.7169 21.8687H8.28313C6.62336 21.8687 5.22069 21.2778 4.23673 20.221C3.25842 19.1702 2.75 17.7197 2.75 16.0923V8.14503C2.75 6.51765 3.25842 5.06718 4.23657 4.01638Z" fill="black"/>
<path fill-rule="evenodd" clip-rule="evenodd" d="M16.658 14.793C17.0722 14.793 17.408 15.1288 17.408 15.543V16.5305C17.408 16.9447 17.0722 17.2805 16.658 17.2805C16.2437 17.2805 15.908 16.9447 15.908 16.5305V15.543C15.908 15.1288 16.2437 14.793 16.658 14.793Z" fill="black"/>
<path fill-rule="evenodd" clip-rule="evenodd" d="M12.498 13.1094C12.9123 13.1094 13.248 13.4452 13.248 13.8594V16.5302C13.248 16.9444 12.9123 17.2802 12.498 17.2802C12.0838 17.2802 11.748 16.9444 11.748 16.5302V13.8594C11.748 13.4452 12.0838 13.1094 12.498 13.1094Z" fill="black"/>
<path fill-rule="evenodd" clip-rule="evenodd" d="M8.34009 11.4297C8.7543 11.4297 9.09009 11.7655 9.09009 12.1797V16.5337C9.09009 16.948 8.7543 17.2837 8.34009 17.2837C7.92587 17.2837 7.59009 16.948 7.59009 16.5337V12.1797C7.59009 11.7655 7.92587 11.4297 8.34009 11.4297Z" fill="black"/>
<path fill-rule="evenodd" clip-rule="evenodd" d="M7.29062 7.23089C7.55306 6.91042 8.0256 6.86338 8.34606 7.12582C10.6921 9.04707 13.5768 10.19 16.6013 10.3983L17.1785 10.4382C17.5917 10.4668 17.9035 10.8249 17.875 11.2381C17.8464 11.6514 17.4883 11.9632 17.075 11.9346L16.4983 11.8947C16.4982 11.8947 16.4983 11.8947 16.4983 11.8947C13.1635 11.6651 9.98257 10.4048 7.39568 8.28633C7.07522 8.02389 7.02818 7.55135 7.29062 7.23089Z" fill="black"/>
<path fill-rule="evenodd" clip-rule="evenodd" d="M15.3711 8.82615C15.7034 8.57883 16.1733 8.64769 16.4206 8.97997L17.7292 10.7381C17.848 10.8977 17.8985 11.0979 17.8697 11.2947C17.8408 11.4915 17.735 11.6688 17.5754 11.7876L15.8172 13.0962C15.485 13.3435 15.0151 13.2747 14.7678 12.9424C14.5205 12.6101 14.5893 12.1403 14.9216 11.893L16.0781 11.0321L15.2173 9.87559C14.97 9.54332 15.0389 9.07347 15.3711 8.82615Z" fill="black"/>
</svg>