<svg width="25" height="25" viewBox="0 0 25 25" fill="none" xmlns="http://www.w3.org/2000/svg">
<path fill-rule="evenodd" clip-rule="evenodd" d="M15.8413 7.20947C15.8413 6.79526 16.1771 6.45947 16.5913 6.45947H21.4999C21.9141 6.45947 22.2499 6.79525 22.2499 7.20946L22.2499 12.1181C22.2499 12.5323 21.9142 12.8681 21.4999 12.8681C21.0857 12.8681 20.7499 12.5323 20.7499 12.1181L20.7499 7.95947H16.5913C16.1771 7.95947 15.8413 7.62369 15.8413 7.20947Z" fill="black"/>
<path fill-rule="evenodd" clip-rule="evenodd" d="M22.0303 6.67817C22.3231 6.97106 22.3231 7.44593 22.0303 7.73883L14.2572 15.5119C14.1165 15.6525 13.9258 15.7316 13.7268 15.7315C13.5279 15.7315 13.3371 15.6525 13.1965 15.5118L9.63645 11.9509L4.03033 17.5571C3.73744 17.8499 3.26256 17.8499 2.96967 17.5571C2.67678 17.2642 2.67678 16.7893 2.96967 16.4964L9.10618 10.3599C9.24685 10.2192 9.43763 10.1402 9.63656 10.1402C9.83549 10.1402 10.0263 10.2193 10.1669 10.3599L13.7269 13.9208L20.9696 6.67817C21.2625 6.38527 21.7374 6.38527 22.0303 6.67817Z" fill="black"/>
</svg>