<svg width="25" height="25" viewBox="0 0 25 25" fill="none" xmlns="http://www.w3.org/2000/svg">
<path fill-rule="evenodd" clip-rule="evenodd" d="M19.7983 17.521C19.3841 17.521 19.0483 17.8568 19.0483 18.271L19.0483 21.1186C19.0483 21.5328 19.3841 21.8686 19.7983 21.8686C20.2126 21.8686 20.5483 21.5328 20.5483 21.1186L20.5483 18.271C20.5483 17.8568 20.2126 17.521 19.7983 17.521Z" fill="black"/>
<path fill-rule="evenodd" clip-rule="evenodd" d="M14.667 16.165C14.2528 16.165 13.917 16.5008 13.917 16.915L13.917 21.1186C13.917 21.5328 14.2528 21.8686 14.667 21.8686C15.0812 21.8686 15.417 21.5328 15.417 21.1186L15.417 16.915C15.417 16.5008 15.0812 16.165 14.667 16.165Z" fill="black"/>
<path fill-rule="evenodd" clip-rule="evenodd" d="M9.53564 13.4531C9.12143 13.4531 8.78564 13.7889 8.78564 14.2031L8.78564 21.1187C8.78564 21.5329 9.12143 21.8687 9.53564 21.8687C9.94986 21.8687 10.2856 21.5329 10.2856 21.1187L10.2856 14.2031C10.2856 13.7889 9.94986 13.4531 9.53564 13.4531Z" fill="black"/>
<path fill-rule="evenodd" clip-rule="evenodd" d="M4.4043 9.52051C3.99008 9.52051 3.6543 9.85629 3.6543 10.2705L3.6543 21.1185C3.6543 21.5327 3.99008 21.8685 4.4043 21.8685C4.81851 21.8685 5.1543 21.5327 5.1543 21.1185L5.1543 10.2705C5.1543 9.85629 4.81851 9.52051 4.4043 9.52051Z" fill="black"/>
<path fill-rule="evenodd" clip-rule="evenodd" d="M18.4956 9.68774C18.8142 9.42307 19.2871 9.46682 19.5517 9.78545L21.5732 12.2191C21.7017 12.3738 21.7627 12.5736 21.7425 12.7737C21.7223 12.9737 21.6226 13.1573 21.4658 13.2832L19.2586 15.0552C18.9356 15.3145 18.4636 15.2629 18.2042 14.9399C17.9449 14.6169 17.9966 14.1448 18.3196 13.8855L19.9321 12.5909L18.3979 10.7439C18.1332 10.4253 18.1769 9.9524 18.4956 9.68774Z" fill="black"/>
<path fill-rule="evenodd" clip-rule="evenodd" d="M4.44856 3.08307L4.44967 3.08509L4.45733 3.09889C4.46481 3.11224 4.47704 3.13379 4.49409 3.16301C4.52819 3.22145 4.58156 3.3105 4.65482 3.42586C4.80139 3.65667 5.02726 3.99234 5.33733 4.39863C5.9579 5.21175 6.91288 6.30402 8.24095 7.40444C10.8906 9.59995 15.0333 11.8362 21.0104 11.9486C21.4245 11.9564 21.7539 12.2985 21.7461 12.7126C21.7383 13.1267 21.3963 13.4562 20.9822 13.4484C14.6124 13.3285 10.1513 10.9353 7.28392 8.55946C5.85345 7.3742 4.82158 6.19528 4.14492 5.30866C3.80638 4.86507 3.55605 4.49371 3.38856 4.22997C3.3048 4.09806 3.24168 3.99295 3.19856 3.91905C3.17699 3.8821 3.16042 3.85293 3.14875 3.83211L3.13491 3.80719L3.13074 3.79955L3.12933 3.79695L3.12879 3.79597C3.12857 3.79556 3.12837 3.79519 3.78872 3.4396L3.12837 3.79519C2.93199 3.43049 3.06843 2.97564 3.43313 2.77925C3.79749 2.58305 4.25182 2.71905 4.44851 3.08298" fill="black"/>
</svg>