<svg width="25" height="25" viewBox="0 0 25 25" fill="none" xmlns="http://www.w3.org/2000/svg">
<path fill-rule="evenodd" clip-rule="evenodd" d="M21.4991 11.3691C21.9133 11.3691 22.2492 11.7048 22.2492 12.119L22.2501 17.0278C22.2501 17.2267 22.1711 17.4175 22.0305 17.5582C21.8898 17.6989 21.699 17.7779 21.5001 17.7779L16.5906 17.7778C16.1763 17.7778 15.8406 17.442 15.8406 17.0278C15.8406 16.6136 16.1764 16.2778 16.5906 16.2778L20.75 16.2779L20.7492 12.1193C20.7492 11.7051 21.0849 11.3692 21.4991 11.3691Z" fill="black"/>
<path fill-rule="evenodd" clip-rule="evenodd" d="M2.96967 6.67817C3.26256 6.38527 3.73744 6.38527 4.03033 6.67817L9.63654 12.2844L13.1966 8.72433C13.4895 8.43145 13.9643 8.43143 14.2572 8.72429L22.0303 16.4964C22.3232 16.7893 22.3232 17.2642 22.0304 17.5571C21.7375 17.85 21.2626 17.85 20.9697 17.5571L13.727 10.3153L10.1669 13.8754C9.87398 14.1683 9.3991 14.1683 9.10621 13.8754L2.96967 7.73883C2.67678 7.44593 2.67678 6.97106 2.96967 6.67817Z" fill="black"/>
</svg>