<svg width="25" height="24" viewBox="0 0 25 24" fill="none" xmlns="http://www.w3.org/2000/svg">
<path fill-rule="evenodd" clip-rule="evenodd" d="M9.91838 4.52203C10.9772 2.68656 13.6282 2.6932 14.6777 4.53408L14.6778 4.53423L21.6377 16.7493L21.6378 16.7494C22.6791 18.5781 21.3586 20.8507 19.2541 20.8507H5.24588C3.13468 20.8507 1.81537 18.5658 2.87006 16.7371L2.87013 16.737L9.91838 4.52203ZM13.3745 5.27682C12.8988 4.44268 11.6976 4.43965 11.2177 5.27153L11.2177 5.27162L4.16943 17.4865C4.16941 17.4866 4.16938 17.4866 4.16936 17.4867C3.69136 18.3156 4.28953 19.3507 5.24588 19.3507H19.2541C20.2074 19.3507 20.8064 18.3207 20.3343 17.4917L13.3746 5.27696C13.3745 5.27691 13.3745 5.27687 13.3745 5.27682Z" fill="black"/>
<path fill-rule="evenodd" clip-rule="evenodd" d="M11.8728 13.2732C12.1048 13.1393 12.3906 13.1394 12.6226 13.2734L15.2579 14.7955C15.6166 15.0027 15.7394 15.4614 15.5323 15.8201C15.3251 16.1787 14.8664 16.3016 14.5077 16.0944L12.2472 14.7888L10.0135 16.0771C9.65471 16.2841 9.19607 16.161 8.98912 15.8022C8.78216 15.4434 8.90527 14.9847 9.26408 14.7778L11.8728 13.2732Z" fill="black"/>
<path fill-rule="evenodd" clip-rule="evenodd" d="M12.2461 10.2158C12.6603 10.2158 12.9961 10.5516 12.9961 10.9658V13.9227C12.9961 14.3369 12.6603 14.6727 12.2461 14.6727C11.8319 14.6727 11.4961 14.3369 11.4961 13.9227V10.9658C11.4961 10.5516 11.8319 10.2158 12.2461 10.2158Z" fill="black"/>
<path fill-rule="evenodd" clip-rule="evenodd" d="M7.02726 17.0224C7.23394 17.3814 7.11049 17.8399 6.75152 18.0466L3.86654 19.7076C3.50757 19.9143 3.04902 19.7909 2.84235 19.4319C2.63567 19.0729 2.75912 18.6144 3.11809 18.4077L6.00307 16.7466C6.36204 16.54 6.82059 16.6634 7.02726 17.0224Z" fill="black"/>
<path fill-rule="evenodd" clip-rule="evenodd" d="M17.5126 17.0404C17.7195 16.6816 18.1782 16.5585 18.537 16.7655L21.3831 18.4071C21.7419 18.6141 21.865 19.0727 21.658 19.4315C21.4511 19.7903 20.9924 19.9134 20.6336 19.7065L17.7875 18.0648C17.4287 17.8579 17.3056 17.3992 17.5126 17.0404Z" fill="black"/>
<path fill-rule="evenodd" clip-rule="evenodd" d="M12.2461 3.1543C12.6603 3.1543 12.9961 3.49008 12.9961 3.9043V7.30411C12.9961 7.71832 12.6603 8.05411 12.2461 8.05411C11.8319 8.05411 11.4961 7.71832 11.4961 7.30411V3.9043C11.4961 3.49008 11.8319 3.1543 12.2461 3.1543Z" fill="black"/>
</svg>