<svg width="25" height="24" viewBox="0 0 25 24" fill="none" xmlns="http://www.w3.org/2000/svg">
<path fill-rule="evenodd" clip-rule="evenodd" d="M9.91838 4.52203C10.9772 2.68656 13.6282 2.6932 14.6777 4.53408L14.6778 4.53423L21.6377 16.7493L21.6378 16.7494C22.6791 18.5781 21.3586 20.8507 19.2541 20.8507H5.24588C3.13468 20.8507 1.81537 18.5658 2.87006 16.7371L2.87013 16.737L9.91838 4.52203ZM13.3745 5.27682C12.8988 4.44268 11.6976 4.43965 11.2177 5.27153L11.2177 5.27162L4.16943 17.4865C4.16941 17.4866 4.16938 17.4866 4.16936 17.4867C3.69136 18.3156 4.28953 19.3507 5.24588 19.3507H19.2541C20.2074 19.3507 20.8064 18.3207 20.3343 17.4917L13.3746 5.27696C13.3745 5.27691 13.3745 5.27687 13.3745 5.27682Z" fill="black"/>
<path fill-rule="evenodd" clip-rule="evenodd" d="M12.8985 13.6319C13.1057 13.9906 12.9828 14.4493 12.6241 14.6565L3.87127 19.7108C3.51257 19.9179 3.05386 19.795 2.84673 19.4363C2.63959 19.0776 2.76247 18.6189 3.12117 18.4118L11.874 13.3575C12.2327 13.1503 12.6914 13.2732 12.8985 13.6319Z" fill="black"/>
<path fill-rule="evenodd" clip-rule="evenodd" d="M12.25 3.14941C12.6642 3.14941 13 3.4852 13 3.89941V14.0066C13 14.4208 12.6642 14.7566 12.25 14.7566C11.8358 14.7566 11.5 14.4208 11.5 14.0066V3.89941C11.5 3.4852 11.8358 3.14941 12.25 3.14941Z" fill="black"/>
<path fill-rule="evenodd" clip-rule="evenodd" d="M11.6006 13.6319C11.8078 13.2732 12.2665 13.1503 12.6252 13.3575L21.3782 18.4118C21.7369 18.6189 21.8598 19.0776 21.6527 19.4363C21.4455 19.795 20.9868 19.9179 20.6281 19.7108L11.8751 14.6565C11.5164 14.4493 11.3935 13.9906 11.6006 13.6319Z" fill="black"/>
</svg>