<svg width="25" height="24" viewBox="0 0 25 24" fill="none" xmlns="http://www.w3.org/2000/svg">
<path fill-rule="evenodd" clip-rule="evenodd" d="M4.30248 3.80355C4.3025 3.8036 4.30246 3.80351 4.30248 3.80355L11.2579 20.2276C11.2608 20.2343 11.2633 20.2379 11.2645 20.2393C11.2657 20.2409 11.2669 20.242 11.2684 20.2431C11.2717 20.2456 11.2783 20.2489 11.2877 20.2502C11.2971 20.2514 11.3041 20.2499 11.3077 20.2485C11.3093 20.2479 11.3106 20.2472 11.3121 20.2461C11.3135 20.2451 11.3166 20.2426 11.3211 20.2369L20.1956 8.94943C20.1956 8.94939 20.1955 8.94947 20.1956 8.94943C20.2074 8.93424 20.206 8.9116 20.1915 8.89798C20.1914 8.89793 20.1915 8.89803 20.1915 8.89798L17.2087 6.13472L4.34293 3.75198C4.33467 3.75044 4.32952 3.7506 4.32793 3.75076C4.32616 3.75093 4.32486 3.75127 4.3235 3.7518C4.32034 3.75304 4.31398 3.75669 4.30763 3.7646C4.30127 3.77252 4.29888 3.7798 4.29825 3.78375C4.29798 3.78547 4.29793 3.78711 4.29817 3.78916C4.2984 3.79102 4.2992 3.79577 4.30248 3.80355ZM4.61608 2.27706C3.40933 2.05296 2.4451 3.26173 2.92077 4.38741L9.87665 20.8124C9.87664 20.8124 9.87667 20.8124 9.87665 20.8124C10.3323 21.8886 11.7774 22.0841 12.5006 21.1636C12.5005 21.1637 12.5007 21.1635 12.5006 21.1636L21.375 9.87627C21.8689 9.24741 21.7987 8.3436 21.2121 7.79876L18.0687 4.88665C17.9646 4.79017 17.8352 4.72523 17.6956 4.69938L4.61608 2.27706Z" fill="black"/>
<path fill-rule="evenodd" clip-rule="evenodd" d="M3.191 2.91039C3.46594 2.60058 3.93998 2.57231 4.24978 2.84725L12.7476 10.3887C12.9258 10.5468 13.0183 10.7802 12.9967 11.0175L12.0831 21.0682C12.0456 21.4807 11.6808 21.7848 11.2683 21.7473C10.8558 21.7098 10.5518 21.345 10.5893 20.9324L11.4686 11.2591L3.25414 3.96917C2.94433 3.69423 2.91606 3.2202 3.191 2.91039Z" fill="black"/>
<path fill-rule="evenodd" clip-rule="evenodd" d="M18.0787 4.89525C18.3771 5.18254 18.3861 5.65733 18.0988 5.95572L14.5698 9.62123L20.7781 8.13109C21.1809 8.03441 21.5858 8.28255 21.6824 8.68533C21.7791 9.0881 21.531 9.49299 21.1282 9.58966L12.4251 11.6786C12.1011 11.7564 11.7647 11.6111 11.5991 11.322C11.4336 11.0328 11.4786 10.6692 11.7097 10.4291L17.0182 4.91537C17.3055 4.61698 17.7803 4.60797 18.0787 4.89525Z" fill="black"/>
</svg>