<svg width="25" height="24" viewBox="0 0 25 24" fill="none" xmlns="http://www.w3.org/2000/svg">
<path d="M5.64382 18.1748L5.58801 18.1743C4.43992 18.1743 3.50977 17.2442 3.50977 16.0961V13.0352" stroke="black" stroke-width="1.5" stroke-linecap="round" stroke-linejoin="round"/>
<path d="M18.6152 18.1745L19.4216 18.1745C20.5687 18.1745 21.4988 17.2444 21.4988 16.0963V12.6549C21.4988 11.7199 20.9472 10.8725 20.091 10.495L16.6992 8.99854" stroke="black" stroke-width="1.5" stroke-linecap="round" stroke-linejoin="round"/>
<path opacity="0.4" d="M19.0996 13.4043H21.4999" stroke="black" stroke-width="1.5" stroke-linecap="round" stroke-linejoin="round"/>
<path d="M9.47461 18.1743H14.7827" stroke="black" stroke-width="1.5" stroke-linecap="round" stroke-linejoin="round"/>
<path d="M16.6985 16.259L16.6983 7.97669C16.6983 6.82859 15.7681 5.89844 14.621 5.89844H13.5371" stroke="black" stroke-width="1.5" stroke-linecap="round" stroke-linejoin="round"/>
<path fill-rule="evenodd" clip-rule="evenodd" d="M9.47606 18.1746C9.47606 17.1169 8.6179 16.2588 7.56029 16.2588C6.50268 16.2588 5.64453 17.1169 5.64453 18.1746C5.64453 19.2322 6.50268 20.0903 7.56029 20.0903C8.6179 20.0903 9.47606 19.2322 9.47606 18.1746Z" stroke="black" stroke-width="1.5" stroke-linecap="round" stroke-linejoin="round"/>
<path fill-rule="evenodd" clip-rule="evenodd" d="M18.6147 18.1746C18.6147 17.1169 17.7575 16.2588 16.699 16.2588C15.6414 16.2588 14.7832 17.1169 14.7832 18.1746C14.7832 19.2322 15.6414 20.0903 16.699 20.0903C17.7575 20.0903 18.6147 19.2322 18.6147 18.1746Z" stroke="black" stroke-width="1.5" stroke-linecap="round" stroke-linejoin="round"/>
<path opacity="0.4" d="M7.3578 11.6243C9.48761 11.6243 11.2146 9.89631 11.2146 7.76649C11.2146 5.63668 9.48761 3.90967 7.3578 3.90967C5.22701 3.90967 3.5 5.63668 3.5 7.76649C3.5 9.89631 5.22701 11.6243 7.3578 11.6243Z" stroke="black" stroke-width="1.5" stroke-linecap="round" stroke-linejoin="round"/>
<path opacity="0.4" d="M6.13867 7.76709H8.57594" stroke="black" stroke-width="1.5" stroke-linecap="round" stroke-linejoin="round"/>
</svg>