<svg width="24" height="24" viewBox="0 0 24 24" fill="none" xmlns="http://www.w3.org/2000/svg">
<path fill-rule="evenodd" clip-rule="evenodd" d="M18.92 16.4299H18.75C18.5 15.5699 17.81 14.8799 16.94 14.6299V9.1499L19.29 10.1899C19.87 10.4399 20.25 11.0199 20.25 11.6599H18.59C18.18 11.6599 17.84 11.9999 17.84 12.4099C17.84 12.8299 18.18 13.1599 18.59 13.1599H20.25V15.0999C20.25 15.8399 19.65 16.4299 18.92 16.4299ZM15.07 17.4799C15.04 17.3799 15.03 17.2799 15.03 17.1799C15.03 16.8299 15.19 16.5099 15.44 16.2999C15.64 16.1199 15.9 16.0199 16.19 16.0199C16.48 16.0199 16.74 16.1199 16.94 16.2899C17.2 16.4999 17.36 16.8199 17.36 17.1799C17.36 17.8299 16.84 18.3499 16.19 18.3499C15.65 18.3499 15.2 17.9799 15.07 17.4799ZM5.88 17.1999V17.1799C5.88 16.5399 6.41 16.0199 7.05 16.0199C7.687 16.0199 8.213 16.5349 8.218 17.1709C8.218 17.1749 8.215 17.1789 8.215 17.1839C8.215 17.1889 8.218 17.1929 8.218 17.1979C8.218 17.2219 8.218 17.2459 8.21 17.2699C8.17 17.8799 7.66 18.3499 7.05 18.3499C6.42 18.3499 5.89 17.8399 5.88 17.1999ZM19.89 8.8199L16.94 7.5099V6.9799C16.94 5.4199 15.67 4.1499 14.11 4.1499H5.04C3.5 4.1499 2.25 5.4099 2.25 6.9499V15.0999C2.25 16.4499 3.2 17.5799 4.47 17.8599C4.77 18.9999 5.81 19.8499 7.05 19.8499C8.259 19.8499 9.287 19.0419 9.608 17.9339H13.642C13.963 19.0419 14.982 19.8499 16.19 19.8499C17.4 19.8499 18.43 19.0399 18.75 17.9299H18.92C20.48 17.9299 21.75 16.6599 21.75 15.0999V11.6599C21.75 10.4199 21.02 9.2999 19.89 8.8199Z" fill="black"/>
</svg>