<svg width="24" height="24" viewBox="0 0 24 24" fill="none" xmlns="http://www.w3.org/2000/svg">
<path fill-rule="evenodd" clip-rule="evenodd" d="M18.919 17.4381H18.75C18.499 16.5701 17.811 15.8921 16.942 15.6421V10.1581L19.291 11.1961C19.872 11.4481 20.248 12.0251 20.248 12.6681H18.596C18.182 12.6681 17.846 13.0041 17.846 13.4181C17.846 13.8321 18.182 14.1681 18.596 14.1681H20.248V16.1081C20.248 16.8411 19.651 17.4381 18.919 17.4381ZM5.88195 18.2121V18.1931C5.88195 17.5531 6.41195 17.0321 7.05195 17.0321C7.67195 17.0321 8.18195 17.5121 8.22195 18.1331V18.1421C8.21195 18.1621 8.21195 18.1731 8.21195 18.1931C8.21195 18.2121 8.21195 18.2221 8.22195 18.2421V18.2521C8.22195 18.2621 8.22195 18.2621 8.21195 18.2721V18.2821C8.17195 18.8831 7.66195 19.3631 7.05195 19.3631C6.42195 19.3631 5.89195 18.8431 5.88195 18.2121ZM15.072 18.4921C15.042 18.3921 15.032 18.2921 15.032 18.1931C15.032 17.8431 15.192 17.5221 15.442 17.3131C15.642 17.1331 15.902 17.0321 16.192 17.0321C16.482 17.0321 16.742 17.1331 16.942 17.3031C17.2 17.5111 17.359 17.8271 17.361 18.1841L17.36 18.1881C17.36 18.1881 17.362 18.1921 17.362 18.1951C17.361 18.8341 16.841 19.3631 16.192 19.3631C15.652 19.3631 15.202 18.9921 15.072 18.4921ZM19.892 9.82211L16.942 8.51811V7.99211C16.942 6.43211 15.672 5.16211 14.112 5.16211H13.3187C13.1003 5.16211 12.9557 5.38801 13.0303 5.59324C13.0685 5.69797 13.1028 5.80426 13.132 5.91211C13.212 6.16211 13.272 6.41211 13.302 6.66211C13.372 7.01211 13.402 7.37311 13.402 7.73211C13.402 11.2421 10.542 14.0931 7.04195 14.0931C5.84195 14.0931 4.71195 13.7621 3.75195 13.1731C3.48195 13.0221 3.24195 12.8431 3.00195 12.6531C2.93561 12.5966 2.87048 12.5389 2.80655 12.4801C2.60304 12.2929 2.25195 12.4298 2.25195 12.7063V16.1131C2.25195 17.4621 3.20195 18.5931 4.47195 18.8731C4.78195 20.0121 5.81195 20.8631 7.05195 20.8631C8.26195 20.8631 9.28195 20.0531 9.61195 18.9431H13.642C13.962 20.0531 14.982 20.8631 16.192 20.8631C17.402 20.8631 18.422 20.0531 18.752 18.9431C18.753 18.9411 18.753 18.9381 18.753 18.9381H18.919C20.479 18.9381 21.748 17.6681 21.748 16.1081V12.6681C21.748 11.4271 21.018 10.3091 19.892 9.82211Z" fill="black"/>
<path opacity="0.4" fill-rule="evenodd" clip-rule="evenodd" d="M6.87875 3.13672C4.33775 3.13672 2.27075 5.20472 2.27075 7.74672C2.27075 10.2827 4.33775 12.3467 6.87875 12.3467C9.41875 12.3467 11.4858 10.2827 11.4858 7.74672C11.4858 5.20472 9.41875 3.13672 6.87875 3.13672Z" fill="black"/>
<path d="M4.7666 7.80424L6.02756 9.06423L8.99023 6.10059" stroke="black" stroke-width="1.5" stroke-linecap="round" stroke-linejoin="round"/>
</svg>