<svg width="25" height="24" viewBox="0 0 25 24" fill="none" xmlns="http://www.w3.org/2000/svg">
<path d="M5.6448 18.1748L5.58899 18.1743C4.44089 18.1743 3.51074 17.2442 3.51074 16.0961V13.0352" stroke="black" stroke-width="1.5" stroke-linecap="round" stroke-linejoin="round"/>
<path d="M16.6985 16.259L16.6983 7.97669C16.6983 6.82859 15.7681 5.89844 14.621 5.89844H13.5371" stroke="black" stroke-width="1.5" stroke-linecap="round" stroke-linejoin="round"/>
<path d="M9.47461 18.1748H14.7827" stroke="black" stroke-width="1.5" stroke-linecap="round" stroke-linejoin="round"/>
<path d="M18.6152 18.1749L19.4216 18.175C20.5687 18.175 21.4988 17.2449 21.4988 16.0968V12.6554C21.4988 11.7204 20.9472 10.8729 20.091 10.4954L16.6992 8.99902" stroke="black" stroke-width="1.5" stroke-linecap="round" stroke-linejoin="round"/>
<path opacity="0.4" d="M19.0996 13.4048H21.4999" stroke="black" stroke-width="1.5" stroke-linecap="round" stroke-linejoin="round"/>
<path fill-rule="evenodd" clip-rule="evenodd" d="M9.47606 18.175C9.47606 17.1174 8.61888 16.2593 7.56029 16.2593C6.50268 16.2593 5.64453 17.1174 5.64453 18.175C5.64453 19.2327 6.50268 20.0908 7.56029 20.0908C8.61888 20.0908 9.47606 19.2327 9.47606 18.175Z" stroke="black" stroke-width="1.5" stroke-linecap="round" stroke-linejoin="round"/>
<path fill-rule="evenodd" clip-rule="evenodd" d="M18.6147 18.175C18.6147 17.1174 17.7575 16.2593 16.699 16.2593C15.6414 16.2593 14.7832 17.1174 14.7832 18.175C14.7832 19.2327 15.6414 20.0908 16.699 20.0908C17.7575 20.0908 18.6147 19.2327 18.6147 18.175Z" stroke="black" stroke-width="1.5" stroke-linecap="round" stroke-linejoin="round"/>
<path opacity="0.4" d="M7.3578 11.6243C9.48761 11.6243 11.2146 9.89631 11.2146 7.76649C11.2146 5.63668 9.48761 3.90967 7.3578 3.90967C5.22701 3.90967 3.5 5.63668 3.5 7.76649C3.5 9.89631 5.22701 11.6243 7.3578 11.6243Z" stroke="black" stroke-width="1.5" stroke-linecap="round" stroke-linejoin="round"/>
<path opacity="0.4" d="M6.49414 8.62888L8.21726 6.90576M6.49414 6.90576L8.21726 8.62888" stroke="black" stroke-width="1.5" stroke-linecap="round" stroke-linejoin="round"/>
</svg>