<svg width="25" height="24" viewBox="0 0 25 24" fill="none" xmlns="http://www.w3.org/2000/svg">
<path fill-rule="evenodd" clip-rule="evenodd" d="M19.0724 17.4381H18.8984C18.6474 16.5701 17.9684 15.8921 17.1004 15.6421V10.1601L19.4444 11.1961C20.0254 11.4471 20.4004 12.0251 20.4004 12.6681H18.7494C18.3354 12.6681 17.9994 13.0041 17.9994 13.4181C17.9994 13.8321 18.3354 14.1681 18.7494 14.1681H20.4004V16.1081C20.4004 16.8411 19.8044 17.4381 19.0724 17.4381ZM15.2204 18.4921C15.1904 18.3921 15.1804 18.2921 15.1804 18.1931V18.1891C15.1824 17.8311 15.3414 17.5111 15.6004 17.3031C15.8004 17.1331 16.0604 17.0321 16.3504 17.0321C16.6404 17.0321 16.9004 17.1331 17.1004 17.3131C17.3504 17.5221 17.5104 17.8431 17.5104 18.1931C17.5104 18.8331 16.9904 19.3631 16.3504 19.3631C15.8104 19.3631 15.3504 18.9921 15.2204 18.4921ZM6.04039 18.2121V18.1931C6.04039 17.5531 6.56039 17.0321 7.21039 17.0321C7.85039 17.0321 8.37039 17.5531 8.37039 18.1931C8.37039 18.2221 8.37039 18.2521 8.36039 18.2821C8.32039 18.8831 7.82039 19.3631 7.21039 19.3631C6.57039 19.3631 6.05039 18.8431 6.04039 18.2121ZM20.0454 9.82211L17.1004 8.52111V7.99211C17.1004 6.43211 15.8304 5.16211 14.2704 5.16211H13.4849C13.2621 5.16211 13.1142 5.39829 13.1872 5.60878C13.2218 5.70848 13.2527 5.80959 13.2804 5.91211C13.3604 6.16211 13.4204 6.41211 13.4504 6.66211C13.5204 7.01211 13.5504 7.37311 13.5504 7.73211C13.5504 11.2421 10.7004 14.0931 7.19039 14.0931C5.98039 14.0931 4.86039 13.7621 3.90039 13.1731C3.64039 13.0221 3.39039 12.8431 3.15039 12.6531C3.08405 12.5966 3.01891 12.5389 2.95499 12.4801C2.75148 12.2929 2.40039 12.4298 2.40039 12.7063V16.1131C2.40039 17.4621 3.36039 18.6031 4.63039 18.8731C4.93039 20.0121 5.97039 20.8631 7.21039 20.8631C8.41039 20.8631 9.43039 20.0531 9.76039 18.9431L9.76139 18.9381H13.7894C13.7894 18.9381 13.7894 18.9411 13.7904 18.9431C14.1204 20.0531 15.1404 20.8631 16.3504 20.8631C17.5604 20.8631 18.5804 20.0531 18.9004 18.9431L18.9014 18.9381H19.0724C20.6324 18.9381 21.9004 17.6681 21.9004 16.1081V12.6681C21.9004 11.4271 21.1704 10.3091 20.0454 9.82211Z" fill="black"/>
<path fill-rule="evenodd" clip-rule="evenodd" d="M5.58795 6.99672H8.47395C8.88795 6.99672 9.22395 7.33272 9.22395 7.74672C9.22395 8.16072 8.88795 8.49672 8.47395 8.49672H5.58795C5.17395 8.49672 4.83795 8.16072 4.83795 7.74672C4.83795 7.33272 5.17395 6.99672 5.58795 6.99672ZM7.03095 12.3467C9.57195 12.3467 11.639 10.2837 11.639 7.74672C11.639 5.20472 9.57195 3.13672 7.03095 3.13672C4.48995 3.13672 2.42395 5.20472 2.42395 7.74672C2.42395 10.2837 4.48995 12.3467 7.03095 12.3467Z" fill="black"/>
</svg>