<svg width="24" height="24" viewBox="0 0 24 24" fill="none" xmlns="http://www.w3.org/2000/svg">
<path fill-rule="evenodd" clip-rule="evenodd" d="M18.919 17.4382H18.75C18.499 16.5702 17.811 15.8922 16.942 15.6422V10.1582L19.291 11.1962C19.872 11.4482 20.248 12.0252 20.248 12.6682H18.596C18.182 12.6682 17.846 13.0042 17.846 13.4182C17.846 13.8322 18.182 14.1682 18.596 14.1682H20.248V16.1082C20.248 16.8412 19.651 17.4382 18.919 17.4382ZM5.88195 18.2122V18.1932C5.88195 17.5532 6.41195 17.0322 7.05195 17.0322C7.67195 17.0322 8.18195 17.5122 8.22195 18.1332V18.1422C8.21195 18.1622 8.21195 18.1732 8.21195 18.1932C8.21195 18.2122 8.21195 18.2222 8.22195 18.2422V18.2522C8.22195 18.2622 8.22195 18.2622 8.21195 18.2722V18.2822C8.17195 18.8832 7.66195 19.3632 7.05195 19.3632C6.42195 19.3632 5.89195 18.8432 5.88195 18.2122ZM15.072 18.4922C15.042 18.3922 15.032 18.2922 15.032 18.1932C15.032 17.8432 15.192 17.5222 15.442 17.3132C15.642 17.1332 15.902 17.0322 16.192 17.0322C16.482 17.0322 16.742 17.1332 16.942 17.3032C17.2 17.5112 17.359 17.8272 17.361 18.1842L17.36 18.1882C17.36 18.1882 17.362 18.1922 17.362 18.1952C17.361 18.8342 16.841 19.3632 16.192 19.3632C15.652 19.3632 15.202 18.9922 15.072 18.4922ZM19.892 9.82223L16.942 8.51823V7.99223C16.942 6.43223 15.672 5.16223 14.112 5.16223H13.3187C13.1003 5.16223 12.9557 5.38814 13.0303 5.59336C13.0685 5.69809 13.1028 5.80438 13.132 5.91223C13.212 6.16223 13.272 6.41223 13.302 6.66223C13.372 7.01223 13.402 7.37323 13.402 7.73223C13.402 11.2422 10.542 14.0932 7.04195 14.0932C5.84195 14.0932 4.71195 13.7622 3.75195 13.1732C3.48195 13.0222 3.24195 12.8432 3.00195 12.6532C2.93561 12.5967 2.87048 12.539 2.80655 12.4802C2.60304 12.293 2.25195 12.4299 2.25195 12.7064V16.1132C2.25195 17.4622 3.20195 18.5932 4.47195 18.8732C4.78195 20.0122 5.81195 20.8632 7.05195 20.8632C8.26195 20.8632 9.28195 20.0532 9.61195 18.9432H13.642C13.962 20.0532 14.982 20.8632 16.192 20.8632C17.402 20.8632 18.422 20.0532 18.752 18.9432C18.753 18.9412 18.753 18.9382 18.753 18.9382H18.919C20.479 18.9382 21.748 17.6682 21.748 16.1082V12.6682C21.748 11.4272 21.018 10.3092 19.892 9.82223Z" fill="black"/>
<path fill-rule="evenodd" clip-rule="evenodd" d="M8.42875 8.23721C8.72175 8.53021 8.72175 9.00521 8.42875 9.29821C8.13575 9.59121 7.66075 9.59121 7.36775 9.29821L6.87875 8.80821L6.38775 9.29921C6.24075 9.44521 6.04975 9.51921 5.85775 9.51921C5.66475 9.51921 5.47375 9.44521 5.32675 9.29921C5.03375 9.00621 5.03375 8.53121 5.32675 8.23821L5.81775 7.74821L5.32675 7.25721C5.03375 6.96421 5.03375 6.48921 5.32675 6.19621C5.61975 5.90421 6.09475 5.90421 6.38775 6.19621L6.87875 6.68721L7.36975 6.19521C7.66275 5.90321 8.13775 5.90321 8.43075 6.19521C8.72375 6.48821 8.72375 6.96321 8.43075 7.25621L7.93975 7.74821L8.42875 8.23721ZM6.87875 3.13721C4.33775 3.13721 2.27075 5.20521 2.27075 7.74721C2.27075 10.2832 4.33775 12.3472 6.87875 12.3472C9.41875 12.3472 11.4858 10.2832 11.4858 7.74721C11.4858 5.20521 9.41875 3.13721 6.87875 3.13721Z" fill="black"/>
</svg>