<svg width="25" height="24" viewBox="0 0 25 24" fill="none" xmlns="http://www.w3.org/2000/svg">
<path fill-rule="evenodd" clip-rule="evenodd" d="M7.10969 4.64844C5.39217 4.64844 4 6.04061 4 7.75813C4 9.47564 5.39217 10.8678 7.10969 10.8678C8.82721 10.8678 10.2194 9.47564 10.2194 7.75813C10.2194 6.04061 8.82721 4.64844 7.10969 4.64844ZM2.5 7.75813C2.5 5.21218 4.56374 3.14844 7.10969 3.14844C9.65563 3.14844 11.7194 5.21218 11.7194 7.75813C11.7194 10.3041 9.65563 12.3678 7.10969 12.3678C4.56374 12.3678 2.5 10.3041 2.5 7.75813ZM12.5335 5.90134C12.5335 5.48713 12.8693 5.15134 13.2835 5.15134H14.3674C15.9297 5.15134 17.1966 6.41823 17.1966 7.98051C17.1966 7.98052 17.1966 7.98051 17.1966 7.98051L17.1966 8.51338L20.1439 9.81381C21.2713 10.3122 22 11.4286 22 12.6619V16.1051C22 17.6674 20.7331 18.9343 19.1708 18.9343L19.0066 18.9343C18.6825 20.0419 17.6592 20.8509 16.4468 20.8509C15.2345 20.8509 14.211 20.0418 13.887 18.9341H9.86243C9.53843 20.0418 8.51502 20.8509 7.30264 20.8509C6.06698 20.8509 5.02761 20.0104 4.72496 18.87C3.45289 18.5932 2.5 17.4604 2.5 16.1055V13.0417C2.5 12.6275 2.83579 12.2917 3.25 12.2917C3.66421 12.2917 4 12.6275 4 13.0417V16.1055C4 16.6437 4.32015 17.1073 4.78031 17.3163C5.14037 16.2696 6.13366 15.5174 7.30264 15.5174C8.51502 15.5174 9.53843 16.3265 9.86243 17.4341H13.887C14.1415 16.5644 14.8271 15.8788 15.6968 15.6244L15.6966 7.98056C15.6966 7.24669 15.1013 6.65134 14.3674 6.65134H13.2835C12.8693 6.65134 12.5335 6.31556 12.5335 5.90134ZM17.1968 15.6243C18.0666 15.8788 18.7523 16.5645 19.0067 17.4343L19.1708 17.4343C19.1709 17.4343 19.1707 17.4343 19.1708 17.4343C19.9046 17.4342 20.5 16.839 20.5 16.1051V14.1622H18.8485C18.4343 14.1622 18.0985 13.8265 18.0985 13.4122C18.0985 12.998 18.4343 12.6622 18.8485 12.6622H20.5C20.5 12.0238 20.1231 11.4449 19.5384 11.1862L17.1967 10.1529L17.1968 15.6243ZM7.08859 5.71383C7.5028 5.71383 7.83859 6.04962 7.83859 6.46383V7.60688L8.69363 8.11827C9.04912 8.33088 9.16494 8.79142 8.95233 9.1469C8.73972 9.50239 8.27919 9.61821 7.9237 9.4056L6.70362 8.67589C6.4772 8.54047 6.33859 8.29605 6.33859 8.03222V6.46383C6.33859 6.04962 6.67437 5.71383 7.08859 5.71383ZM7.30264 17.0174C6.65828 17.0174 6.13593 17.5398 6.13593 18.1841C6.13593 18.8285 6.65828 19.3509 7.30264 19.3509C7.94699 19.3509 8.46935 18.8285 8.46935 18.1841C8.46935 17.5398 7.94699 17.0174 7.30264 17.0174ZM16.4468 17.0174C15.8025 17.0174 15.2801 17.5398 15.2801 18.1841C15.2801 18.8285 15.8025 19.3509 16.4468 19.3509C17.0912 19.3509 17.6135 18.8285 17.6135 18.1841C17.6135 17.5398 17.0912 17.0174 16.4468 17.0174Z" fill="black"/>
</svg>