<svg width="24" height="24" viewBox="0 0 24 24" fill="none" xmlns="http://www.w3.org/2000/svg">
<path fill-rule="evenodd" clip-rule="evenodd" d="M18.9195 17.4381H18.7495C18.4975 16.5701 17.8095 15.8921 16.9415 15.6421V10.1571L19.2915 11.1961C19.8725 11.4481 20.2485 12.0251 20.2485 12.6681H18.5965C18.1825 12.6681 17.8465 13.0041 17.8465 13.4181C17.8465 13.8321 18.1825 14.1681 18.5965 14.1681H20.2485V16.1081C20.2485 16.8411 19.6515 17.4381 18.9195 17.4381ZM15.0715 18.4921C15.0415 18.3921 15.0315 18.2921 15.0315 18.1931C15.0315 17.8431 15.1915 17.5221 15.4415 17.3131C15.6415 17.1331 15.9015 17.0321 16.1915 17.0321C16.4815 17.0321 16.7415 17.1331 16.9415 17.3031C17.2015 17.5121 17.3615 17.8331 17.3615 18.1931C17.3615 18.8331 16.8415 19.3631 16.1915 19.3631C15.6515 19.3631 15.2015 18.9921 15.0715 18.4921ZM5.88146 18.2121V18.1931C5.88146 17.5531 6.41146 17.0321 7.05147 17.0321C7.68646 17.0321 8.21246 17.5471 8.21846 18.1811C8.21846 18.1841 8.21746 18.1881 8.21746 18.1881C8.21746 18.1931 8.22046 18.1971 8.22046 18.2011C8.21946 18.2281 8.22046 18.2551 8.21146 18.2821C8.17146 18.8831 7.66146 19.3631 7.05147 19.3631C6.42146 19.3631 5.89146 18.8431 5.88146 18.2121ZM19.8925 9.82211L16.9415 8.51811V7.99211C16.9415 6.43211 15.6715 5.16211 14.1115 5.16211H13.3182C13.0998 5.16211 12.9526 5.38912 13.0261 5.59474C13.0634 5.69898 13.0983 5.80477 13.1315 5.91211C13.2115 6.16211 13.2715 6.41211 13.3015 6.66211C13.3715 7.01211 13.4015 7.37311 13.4015 7.73211C13.4015 11.2421 10.5415 14.0931 7.04146 14.0931C5.83146 14.0931 4.71146 13.7621 3.75146 13.1731C3.49146 13.0221 3.24146 12.8431 3.00146 12.6531C2.93512 12.5966 2.86999 12.5389 2.80606 12.4801C2.60255 12.2929 2.25146 12.4298 2.25146 12.7063V16.1131C2.25146 17.4621 3.20146 18.5931 4.47146 18.8731C4.78146 20.0121 5.81147 20.8631 7.05147 20.8631C8.26147 20.8631 9.28147 20.0531 9.61146 18.9431L9.61246 18.9381H13.6405C13.6405 18.9381 13.6405 18.9411 13.6415 18.9431C13.9615 20.0531 14.9815 20.8631 16.1915 20.8631C17.4015 20.8631 18.4215 20.0531 18.7515 18.9431L18.7525 18.9381H18.9195C20.4795 18.9381 21.7485 17.6681 21.7485 16.1081V12.6681C21.7485 11.4271 21.0185 10.3091 19.8925 9.82211Z" fill="black"/>
<path opacity="0.4" fill-rule="evenodd" clip-rule="evenodd" d="M6.87975 3.13672C4.33875 3.13672 2.27075 5.20472 2.27075 7.74672C2.27075 10.2837 4.33875 12.3467 6.87975 12.3467C9.41975 12.3467 11.4858 10.2837 11.4858 7.74672C11.4858 5.20472 9.41975 3.13672 6.87975 3.13672Z" fill="black"/>
<path d="M7.62979 8.49673H8.32179C8.73579 8.49673 9.07179 8.16073 9.07179 7.74673C9.07179 7.33273 8.73579 6.99673 8.32179 6.99673H7.62979V6.30273C7.62979 5.88873 7.29379 5.55273 6.87979 5.55273C6.46579 5.55273 6.12979 5.88873 6.12979 6.30273V6.99673H5.43579C5.02179 6.99673 4.68579 7.33273 4.68579 7.74673C4.68579 8.16073 5.02179 8.49673 5.43579 8.49673H6.12979V9.19173C6.12979 9.60573 6.46579 9.94173 6.87979 9.94173C7.29379 9.94173 7.62979 9.60573 7.62979 9.19173V8.49673Z" fill="black"/>
</svg>