<svg width="24" height="24" viewBox="0 0 24 24" fill="none" xmlns="http://www.w3.org/2000/svg">
<path fill-rule="evenodd" clip-rule="evenodd" d="M18.921 17.443H18.748C18.497 16.575 17.819 15.897 16.95 15.647V10.166L19.293 11.201C19.875 11.453 20.25 12.03 20.25 12.673H18.598C18.184 12.673 17.848 13.009 17.848 13.423C17.848 13.837 18.184 14.173 18.598 14.173H20.25V16.113C20.25 16.846 19.654 17.443 18.921 17.443ZM15.07 18.497C15.04 18.397 15.03 18.297 15.03 18.198C15.03 17.838 15.19 17.517 15.45 17.308C15.65 17.138 15.91 17.037 16.2 17.037C16.49 17.037 16.75 17.138 16.95 17.318C17.2 17.527 17.36 17.848 17.36 18.198C17.36 18.838 16.84 19.368 16.2 19.368C15.66 19.368 15.2 18.997 15.07 18.497ZM5.89 18.217V18.198C5.89 17.558 6.41 17.037 7.05 17.037C7.698 17.037 8.216 17.555 8.219 18.192V18.193L8.22 18.199C8.22 18.228 8.22 18.258 8.21 18.287C8.17 18.888 7.67 19.368 7.05 19.368C6.42 19.368 5.9 18.848 5.89 18.217ZM19.894 9.82699L16.95 8.52599V7.99699C16.95 6.43699 15.68 5.16699 14.12 5.16699H13.3345C13.1117 5.16699 12.9644 5.40272 13.0421 5.61154C13.2927 6.28502 13.4 7.02786 13.4 7.73699C13.4 11.247 10.55 14.098 7.04 14.098C5.83 14.098 4.71 13.767 3.75 13.178C3.49 13.027 3.24 12.848 3 12.658C2.93366 12.6015 2.86852 12.5438 2.80459 12.485C2.60109 12.2978 2.25 12.4347 2.25 12.7112V16.118C2.25 17.467 3.21 18.608 4.48 18.878C4.78 20.017 5.82 20.868 7.05 20.868C8.26 20.868 9.28 20.058 9.61 18.948C9.611 18.946 9.611 18.943 9.611 18.943H13.639L13.64 18.948C13.97 20.058 14.99 20.868 16.2 20.868C17.41 20.868 18.43 20.058 18.75 18.948C18.751 18.946 18.751 18.943 18.751 18.943H18.921C20.481 18.943 21.75 17.673 21.75 16.113V12.673C21.75 11.431 21.02 10.314 19.894 9.82699Z" fill="black"/>
<path opacity="0.4" fill-rule="evenodd" clip-rule="evenodd" d="M7.04018 12.3528C9.58118 12.3528 11.6492 10.2848 11.6492 7.74281C11.6492 5.20081 9.58118 3.13281 7.04018 3.13281C4.49818 3.13281 2.43018 5.20081 2.43018 7.74281C2.43018 10.2848 4.49818 12.3528 7.04018 12.3528Z" fill="black"/>
<path d="M7.01807 5.69336C6.60407 5.69336 6.26807 6.02936 6.26807 6.44336V8.01336C6.26807 8.27636 6.40707 8.52136 6.63307 8.65636L7.85307 9.38636C7.97407 9.45936 8.10607 9.49336 8.23807 9.49336C8.49307 9.49336 8.74107 9.36236 8.88207 9.12836C9.09507 8.77336 8.97907 8.31236 8.62307 8.09936L7.76807 7.58836V6.44336C7.76807 6.02936 7.43207 5.69336 7.01807 5.69336Z" fill="black"/>
</svg>