<svg width="25" height="24" viewBox="0 0 25 24" fill="none" xmlns="http://www.w3.org/2000/svg">
<path d="M16.6968 15.266L16.6971 6.98007C16.6971 5.83199 15.766 4.90088 14.6179 4.90088H5.54806C4.41749 4.90088 3.5 5.8174 3.5 6.94894V15.1042C3.5 16.2523 4.43111 17.1834 5.57919 17.1834" stroke="black" stroke-width="1.5" stroke-linecap="round" stroke-linejoin="round"/>
<path d="M9.46875 17.1826H14.7795" stroke="black" stroke-width="1.5" stroke-linecap="round" stroke-linejoin="round"/>
<path d="M18.6133 17.1825L19.4206 17.1827C20.5686 17.1827 21.4997 16.2516 21.4997 15.1035V11.6602C21.4997 10.7243 20.9471 9.87585 20.0909 9.49835L16.6973 8.00098" stroke="black" stroke-width="1.5" stroke-linecap="round" stroke-linejoin="round"/>
<path opacity="0.4" d="M19.0977 12.4106H21.4989" stroke="black" stroke-width="1.5" stroke-linecap="round" stroke-linejoin="round"/>
<path fill-rule="evenodd" clip-rule="evenodd" d="M9.46916 17.1823C9.46916 16.1238 8.61102 15.2656 7.55245 15.2656C6.49388 15.2656 5.63574 16.1238 5.63574 17.1823C5.63574 18.2409 6.49388 19.099 7.55245 19.099C8.61102 19.099 9.46916 18.2409 9.46916 17.1823Z" stroke="black" stroke-width="1.5" stroke-linecap="round" stroke-linejoin="round"/>
<path fill-rule="evenodd" clip-rule="evenodd" d="M18.6147 17.1823C18.6147 16.1238 17.7565 15.2656 16.698 15.2656C15.6394 15.2656 14.7812 16.1238 14.7812 17.1823C14.7812 18.2409 15.6394 19.099 16.698 19.099C17.7565 19.099 18.6147 18.2409 18.6147 17.1823Z" stroke="black" stroke-width="1.5" stroke-linecap="round" stroke-linejoin="round"/>
<path opacity="0.4" d="M10.9844 11.8775L12.5664 10.3003M12.5664 10.3003L10.9844 8.7251M12.5664 10.3003L7.62891 10.3013" stroke="black" stroke-width="1.5" stroke-linecap="round" stroke-linejoin="round"/>
</svg>