<svg width="25" height="24" viewBox="0 0 25 24" fill="none" xmlns="http://www.w3.org/2000/svg">
<path d="M5.63593 18.1844L5.57919 18.185C4.43111 18.185 3.5 17.2539 3.5 16.1058V13.042" stroke="black" stroke-width="1.5" stroke-linecap="round" stroke-linejoin="round"/>
<path d="M9.46875 18.1846H14.7795" stroke="black" stroke-width="1.5" stroke-linecap="round" stroke-linejoin="round"/>
<path d="M16.6965 16.2675L16.6963 7.98056C16.6963 6.83248 15.7651 5.90137 14.6171 5.90137H13.5332" stroke="black" stroke-width="1.5" stroke-linecap="round" stroke-linejoin="round"/>
<path d="M18.6133 18.184L19.4206 18.1842C20.5686 18.1842 21.4997 17.253 21.4997 16.105V12.6617C21.4997 11.7257 20.9471 10.8783 20.0909 10.4998L16.6973 9.00244" stroke="black" stroke-width="1.5" stroke-linecap="round" stroke-linejoin="round"/>
<path opacity="0.4" d="M19.0977 13.4121H21.4989" stroke="black" stroke-width="1.5" stroke-linecap="round" stroke-linejoin="round"/>
<path fill-rule="evenodd" clip-rule="evenodd" d="M9.47014 18.1843C9.47014 17.1257 8.612 16.2676 7.55343 16.2676C6.49486 16.2676 5.63672 17.1257 5.63672 18.1843C5.63672 19.2429 6.49486 20.101 7.55343 20.101C8.612 20.101 9.47014 19.2429 9.47014 18.1843Z" stroke="black" stroke-width="1.5" stroke-linecap="round" stroke-linejoin="round"/>
<path fill-rule="evenodd" clip-rule="evenodd" d="M18.6127 18.1843C18.6127 17.1257 17.7546 16.2676 16.696 16.2676C15.6374 16.2676 14.7793 17.1257 14.7793 18.1843C14.7793 19.2429 15.6374 20.101 16.696 20.101C17.7546 20.101 18.6127 19.2429 18.6127 18.1843Z" stroke="black" stroke-width="1.5" stroke-linecap="round" stroke-linejoin="round"/>
<path opacity="0.4" d="M7.35969 11.6178C9.49142 11.6178 11.2194 9.88986 11.2194 7.75813C11.2194 5.62639 9.49142 3.89844 7.35969 3.89844C5.22796 3.89844 3.5 5.62639 3.5 7.75813C3.5 9.88986 5.22796 11.6178 7.35969 11.6178Z" stroke="black" stroke-width="1.5" stroke-linecap="round" stroke-linejoin="round"/>
<path opacity="0.4" d="M8.55797 8.76197L7.33789 8.03226V6.46387" stroke="black" stroke-width="1.5" stroke-linecap="round" stroke-linejoin="round"/>
</svg>