<svg width="25" height="24" viewBox="0 0 25 24" fill="none" xmlns="http://www.w3.org/2000/svg">
<path fill-rule="evenodd" clip-rule="evenodd" d="M7.1078 4.65967C5.3911 4.65967 4 6.05101 4 7.76649C4 9.48221 5.39135 10.8743 7.1078 10.8743C8.82315 10.8743 10.2146 9.48234 10.2146 7.76649C10.2146 6.05089 8.8234 4.65967 7.1078 4.65967ZM2.5 7.76649C2.5 5.22234 4.56292 3.15967 7.1078 3.15967C9.65182 3.15967 11.7146 5.22246 11.7146 7.76649C11.7146 10.3103 9.65207 12.3743 7.1078 12.3743C4.56267 12.3743 2.5 10.3104 2.5 7.76649ZM12.5384 5.89835C12.5384 5.48414 12.8742 5.14835 13.2884 5.14835H14.3723C15.9339 5.14835 17.1996 6.4145 17.1996 7.97657C17.1996 7.97658 17.1996 7.97656 17.1996 7.97657L17.1996 8.50986L20.1439 9.80888C20.144 9.8089 20.1439 9.80885 20.1439 9.80888C21.2723 10.3065 21.9992 11.4233 21.9992 12.6551V13.3702C21.9997 13.3816 22 13.3931 22 13.4046C22 13.4161 21.9997 13.4276 21.9992 13.439V16.0965C21.9992 17.6586 20.7335 18.9247 19.172 18.9247L19.0086 18.9247C18.6844 20.0316 17.6613 20.8404 16.4498 20.8404C15.2384 20.8404 14.2152 20.0315 13.8911 18.9246H9.86907C9.54518 20.0314 8.52268 20.8404 7.31027 20.8404C6.07511 20.8404 5.03566 19.9996 4.73331 18.8593C3.46203 18.5822 2.51045 17.4504 2.51045 16.0959V13.035C2.51045 12.6208 2.84624 12.285 3.26045 12.285C3.67467 12.285 4.01045 12.6208 4.01045 13.035V16.0959C4.01045 16.6339 4.32983 17.0969 4.78942 17.3057C5.14991 16.2603 6.14264 15.5089 7.31027 15.5089C8.52268 15.5089 9.54518 16.3179 9.86907 17.4246H13.8911C14.1456 16.5557 14.8308 15.8704 15.6998 15.6159L15.6996 9.01558C15.6993 9.00411 15.6993 8.99261 15.6996 8.9811L15.6996 7.97662C15.6996 7.24251 15.105 6.64835 14.3723 6.64835H13.2884C12.8742 6.64835 12.5384 6.31256 12.5384 5.89835ZM17.1996 10.1494L17.1998 15.6159C18.0688 15.8704 18.7542 16.5557 19.0086 17.4247L19.172 17.4247C19.172 17.4247 19.1719 17.4247 19.172 17.4247C19.9046 17.4247 20.4992 16.8306 20.4992 16.0965V14.1546H18.8497C18.4355 14.1546 18.0997 13.8188 18.0997 13.4046C18.0997 12.9904 18.4355 12.6546 18.8497 12.6546H20.4992C20.499 12.0166 20.1226 11.4388 19.5388 11.1814L17.1996 10.1494ZM7.10764 5.79826C7.52186 5.79826 7.85764 6.13404 7.85764 6.54826V7.01731H8.32586C8.74007 7.01731 9.07586 7.3531 9.07586 7.76731C9.07586 8.18153 8.74007 8.51731 8.32586 8.51731H7.85764V8.98553C7.85764 9.39974 7.52186 9.73553 7.10764 9.73553C6.69343 9.73553 6.35764 9.39974 6.35764 8.98553V8.51731H5.88859C5.47438 8.51731 5.13859 8.18153 5.13859 7.76731C5.13859 7.3531 5.47438 7.01731 5.88859 7.01731H6.35764V6.54826C6.35764 6.13404 6.69343 5.79826 7.10764 5.79826ZM7.31027 17.0089C6.66687 17.0089 6.14451 17.5312 6.14451 18.1746C6.14451 18.818 6.66687 19.3404 7.31027 19.3404C7.95439 19.3404 8.47603 18.8183 8.47603 18.1746C8.47603 17.531 7.95439 17.0089 7.31027 17.0089ZM16.4498 17.0089C15.8064 17.0089 15.2841 17.5312 15.2841 18.1746C15.2841 18.818 15.8064 19.3404 16.4498 19.3404C17.0932 19.3404 17.6156 18.818 17.6156 18.1746C17.6156 17.5312 17.0932 17.0089 16.4498 17.0089Z" fill="black"/>
</svg>