<svg width="24" height="24" viewBox="0 0 24 24" fill="none" xmlns="http://www.w3.org/2000/svg">
<path d="M16.197 15.2656C17.2556 15.2656 18.1137 16.1238 18.1137 17.1823C18.1137 18.2409 17.2556 19.099 16.197 19.099C15.1384 19.099 14.2803 18.2409 14.2803 17.1823C14.2803 16.1238 15.1384 15.2656 16.197 15.2656Z" stroke="black" stroke-width="1.5" stroke-linecap="round" stroke-linejoin="round"/>
<path d="M7.05343 15.2656C8.112 15.2656 8.97014 16.1238 8.97014 17.1823C8.97014 18.2409 8.112 19.099 7.05343 19.099C5.99486 19.099 5.13672 18.2409 5.13672 17.1823C5.13672 16.1238 5.99486 15.2656 7.05343 15.2656Z" stroke="black" stroke-width="1.5" stroke-linecap="round" stroke-linejoin="round"/>
<path d="M16.1969 15.266L16.1971 6.98007C16.1971 5.83199 15.266 4.90088 14.1179 4.90088H9.58301" stroke="black" stroke-width="1.5" stroke-linecap="round" stroke-linejoin="round"/>
<path d="M5.07919 17.1834C3.93111 17.1834 3 16.2523 3 15.1042V6.94894C3 5.8174 3.91749 4.90088 5.04806 4.90088H6.31552" stroke="black" stroke-width="1.5" stroke-linecap="round" stroke-linejoin="round"/>
<path d="M18.1133 17.1824L18.9205 17.1826C20.0686 17.1826 20.9997 16.2515 20.9997 15.1034V11.6601C20.9997 10.7241 20.4471 9.87573 19.5909 9.49822L18.2658 8.91357" stroke="black" stroke-width="1.5" stroke-linecap="round" stroke-linejoin="round"/>
<path d="M18.5977 12.4106H20.9989" stroke="black" stroke-width="1.5" stroke-linecap="round" stroke-linejoin="round"/>
<path d="M8.96875 17.1826L12.2805 17.1833" stroke="black" stroke-width="1.5" stroke-linecap="round" stroke-linejoin="round"/>
</svg>