<svg width="24" height="24" viewBox="0 0 24 24" fill="none" xmlns="http://www.w3.org/2000/svg">
<path d="M5.13593 17.1832L5.07919 17.1831C3.93111 17.1831 3 16.252 3 15.104V12.5918" stroke="black" stroke-width="1.5" stroke-linecap="round" stroke-linejoin="round"/>
<path fill-rule="evenodd" clip-rule="evenodd" d="M8.97014 17.1833C8.97014 16.1247 8.112 15.2666 7.05343 15.2666C5.99486 15.2666 5.13672 16.1247 5.13672 17.1833C5.13672 18.2419 5.99486 19.1 7.05343 19.1C8.112 19.1 8.97014 18.2419 8.97014 17.1833Z" stroke="black" stroke-width="1.5" stroke-linecap="round" stroke-linejoin="round"/>
<path fill-rule="evenodd" clip-rule="evenodd" d="M18.1127 17.1833C18.1127 16.1247 17.2546 15.2666 16.196 15.2666C15.1374 15.2666 14.2793 16.1247 14.2793 17.1833C14.2793 18.2419 15.1374 19.1 16.196 19.1C17.2546 19.1 18.1127 18.2419 18.1127 17.1833Z" stroke="black" stroke-width="1.5" stroke-linecap="round" stroke-linejoin="round"/>
<path d="M8.96875 17.1831H14.2795" stroke="black" stroke-width="1.5" stroke-linecap="round" stroke-linejoin="round"/>
<path d="M16.1968 15.2665L16.1971 6.97958C16.1971 5.8315 15.266 4.90039 14.1179 4.90039H3" stroke="black" stroke-width="1.5" stroke-linecap="round" stroke-linejoin="round"/>
<path d="M3 9.71963H7.45124M4.88794 7.31006H7.45166" stroke="black" stroke-width="1.5" stroke-linecap="round" stroke-linejoin="round"/>
<path d="M18.1133 17.183L18.9206 17.1832C20.0686 17.1832 20.9997 16.2521 20.9997 15.104V11.6607C20.9997 10.7247 20.4471 9.87634 19.5909 9.49883L16.1973 8.00146" stroke="black" stroke-width="1.5" stroke-linecap="round" stroke-linejoin="round"/>
<path d="M18.5977 12.4111H20.9989" stroke="black" stroke-width="1.5" stroke-linecap="round" stroke-linejoin="round"/>
</svg>