<svg width="24" height="24" viewBox="0 0 24 24" fill="none" xmlns="http://www.w3.org/2000/svg">
<path opacity="0.4" d="M20.25 11.6644H18.599C18.185 11.6644 17.849 12.0004 17.849 12.4144C17.849 12.8284 18.185 13.1644 18.599 13.1644H20.25V15.1004C20.25 15.8404 19.66 16.4304 18.92 16.4304H18.76C18.7592 16.4276 18.7584 16.4249 18.7576 16.4221L18.7563 16.4273C18.8268 16.6667 18.8647 16.9201 18.8647 17.1823C18.8647 17.445 18.8267 17.6987 18.756 17.9384L18.7573 17.9396C18.7582 17.9365 18.7591 17.9335 18.76 17.9304H18.92C20.48 17.9304 21.75 16.6604 21.75 15.1004V11.6604C21.75 10.4204 21.02 9.30039 19.9 8.82039L16.95 7.52039V6.98039C16.95 5.42039 15.68 4.15039 14.12 4.15039H5.05C3.51 4.15039 2.25 5.41039 2.25 6.95039V15.1004C2.25 16.4477 3.20624 17.5859 4.47254 17.8588C4.41606 17.6428 4.38599 17.4161 4.38599 17.1823C4.38599 15.7096 5.57991 14.5156 7.0527 14.5156C8.52548 14.5156 9.71941 15.7096 9.71941 17.1823C9.71941 17.4435 9.68187 17.6959 9.61189 17.9344H13.6388C13.5688 17.6959 13.5312 17.4435 13.5312 17.1823C13.5312 15.7096 14.7252 14.5156 16.198 14.5156C16.4591 14.5156 16.7115 14.5532 16.95 14.6231V9.16039L19.29 10.1904C19.88 10.4404 20.25 11.0204 20.25 11.6604V11.6644Z" fill="black"/>
<path fill-rule="evenodd" clip-rule="evenodd" d="M7.05245 14.5156C5.57967 14.5156 4.38574 15.7096 4.38574 17.1823C4.38574 18.6551 5.57967 19.849 7.05245 19.849C8.52523 19.849 9.71916 18.6551 9.71916 17.1823C9.71916 15.7096 8.52523 14.5156 7.05245 14.5156ZM5.88574 17.1823C5.88574 16.538 6.4081 16.0156 7.05245 16.0156C7.69681 16.0156 8.21916 16.538 8.21916 17.1823C8.21916 17.8267 7.69681 18.349 7.05245 18.349C6.4081 18.349 5.88574 17.8267 5.88574 17.1823Z" fill="black"/>
<path fill-rule="evenodd" clip-rule="evenodd" d="M16.1977 14.5156C14.7249 14.5156 13.531 15.7096 13.531 17.1823C13.531 18.6551 14.7249 19.849 16.1977 19.849C17.6705 19.849 18.8644 18.6551 18.8644 17.1823C18.8644 15.7096 17.6705 14.5156 16.1977 14.5156ZM15.031 17.1823C15.031 16.538 15.5534 16.0156 16.1977 16.0156C16.8421 16.0156 17.3644 16.538 17.3644 17.1823C17.3644 17.8267 16.8421 18.349 16.1977 18.349C15.5534 18.349 15.031 17.8267 15.031 17.1823Z" fill="black"/>
</svg>