<svg width="24" height="24" viewBox="0 0 24 24" fill="none" xmlns="http://www.w3.org/2000/svg">
<path d="M5.1448 18.1748L5.08899 18.1743C3.94089 18.1743 3.01074 17.2442 3.01074 16.0961V13.0352" stroke="black" stroke-width="1.5" stroke-linecap="round" stroke-linejoin="round"/>
<path fill-rule="evenodd" clip-rule="evenodd" d="M8.97606 18.175C8.97606 17.1174 8.11888 16.2593 7.06029 16.2593C6.00268 16.2593 5.14453 17.1174 5.14453 18.175C5.14453 19.2327 6.00268 20.0908 7.06029 20.0908C8.11888 20.0908 8.97606 19.2327 8.97606 18.175Z" stroke="black" stroke-width="1.5" stroke-linecap="round" stroke-linejoin="round"/>
<path fill-rule="evenodd" clip-rule="evenodd" d="M18.1147 18.175C18.1147 17.1174 17.2575 16.2593 16.199 16.2593C15.1414 16.2593 14.2832 17.1174 14.2832 18.175C14.2832 19.2327 15.1414 20.0908 16.199 20.0908C17.2575 20.0908 18.1147 19.2327 18.1147 18.175Z" stroke="black" stroke-width="1.5" stroke-linecap="round" stroke-linejoin="round"/>
<path d="M16.1985 16.259L16.1983 7.97669C16.1983 6.82859 15.2681 5.89844 14.121 5.89844H13.0371" stroke="black" stroke-width="1.5" stroke-linecap="round" stroke-linejoin="round"/>
<path d="M8.97461 18.1748H14.2827" stroke="black" stroke-width="1.5" stroke-linecap="round" stroke-linejoin="round"/>
<path d="M18.1152 18.1749L18.9216 18.175C20.0687 18.175 20.9988 17.2449 20.9988 16.0968V12.6554C20.9988 11.7204 20.4472 10.8729 19.591 10.4954L16.1992 8.99902" stroke="black" stroke-width="1.5" stroke-linecap="round" stroke-linejoin="round"/>
<path d="M18.5996 13.4048H20.9999" stroke="black" stroke-width="1.5" stroke-linecap="round" stroke-linejoin="round"/>
<path d="M6.8578 11.6243C8.98761 11.6243 10.7146 9.89631 10.7146 7.76649C10.7146 5.63668 8.98761 3.90967 6.8578 3.90967C4.72701 3.90967 3 5.63668 3 7.76649C3 9.89631 4.72701 11.6243 6.8578 11.6243Z" stroke="black" stroke-width="1.5" stroke-linecap="round" stroke-linejoin="round"/>
<path d="M5.99414 8.62888L7.71726 6.90576M5.99414 6.90576L7.71726 8.62888" stroke="black" stroke-width="1.5" stroke-linecap="round" stroke-linejoin="round"/>
</svg>