<svg width="25" height="24" viewBox="0 0 25 24" fill="none" xmlns="http://www.w3.org/2000/svg">
<path fill-rule="evenodd" clip-rule="evenodd" d="M2.5 3.69141C2.5 3.27719 2.83579 2.94141 3.25 2.94141H9.20365C9.40815 2.94141 9.60378 3.02491 9.74524 3.17259C9.88671 3.32026 9.96174 3.5193 9.95295 3.72361C9.80727 7.11307 7.01708 9.785 3.6246 9.785H3.25C2.83579 9.785 2.5 9.44921 2.5 9.035V3.69141ZM4 4.44141V8.27062C6.15447 8.10495 7.92342 6.52535 8.35704 4.44141H4Z" fill="black"/>
<path fill-rule="evenodd" clip-rule="evenodd" d="M9.35547 9.05932C9.35547 5.68045 12.0945 2.94141 15.4734 2.94141H21.2509C21.6651 2.94141 22.0009 3.27719 22.0009 3.69141V9.09727C22.0009 9.51148 21.6651 9.84727 21.2509 9.84727H16.128V20.3099C16.128 20.7241 15.7922 21.0599 15.378 21.0599H10.1055C9.69126 21.0599 9.35547 20.7241 9.35547 20.3099V9.05932ZM15.4734 4.44141C12.9229 4.44141 10.8555 6.50887 10.8555 9.05932V19.5599H14.628V9.09727C14.628 8.68305 14.9638 8.34727 15.378 8.34727H20.5009V4.44141H15.4734Z" fill="black"/>
</svg>