<svg width="25" height="24" viewBox="0 0 25 24" fill="none" xmlns="http://www.w3.org/2000/svg">
<path d="M12.4998 2.50009C12.3828 2.49792 12.2651 2.53639 12.1695 2.6155C9.46881 4.86872 6.43678 4.87699 5.22459 4.8803C5.20158 4.88036 5.17922 4.88043 5.15754 4.8805L4.99054 4.8795C4.85654 4.8795 4.72754 4.9325 4.63454 5.0285C4.53954 5.1235 4.48854 5.2525 4.49054 5.3855C4.65054 16.6415 5.60454 17.6215 9.22554 19.5885C10.0805 20.0515 11.0505 20.5795 12.1985 21.4055C12.2845 21.4675 12.3875 21.4995 12.4905 21.4995C12.4936 21.4995 12.4967 21.4995 12.4998 21.4994V2.50009Z" fill="black"/>
<path opacity="0.4" d="M12.4998 21.4993V2.5C12.6105 2.50205 12.7206 2.54052 12.8105 2.61541C15.4929 4.85898 18.5275 4.87393 19.7545 4.87998C19.7832 4.88012 19.8109 4.88025 19.8375 4.88041L20.0095 4.87941C20.1425 4.87941 20.2715 4.93241 20.3655 5.02841C20.4595 5.12341 20.5115 5.25341 20.5095 5.38641C20.3365 16.6054 19.3055 17.6604 15.7565 19.5874C14.9005 20.0514 13.9305 20.5784 12.7825 21.4054C12.6982 21.4655 12.5987 21.4975 12.4998 21.4993Z" fill="black"/>
</svg>