<svg width="24" height="24" viewBox="0 0 24 24" fill="none" xmlns="http://www.w3.org/2000/svg">
<path fill-rule="evenodd" clip-rule="evenodd" d="M19.3754 5.03436C19.2814 4.93836 19.1524 4.88536 19.0194 4.88536L18.8474 4.88636C17.6794 4.87936 14.5654 4.91736 11.8204 2.62136C11.6354 2.46736 11.3654 2.46736 11.1794 2.62136C8.42742 4.91736 5.33142 4.88236 4.16742 4.88636L4.00042 4.88536C3.86642 4.88536 3.73742 4.93836 3.64442 5.03436C3.54942 5.12936 3.49842 5.25836 3.50042 5.39136C3.66042 16.6474 4.61442 17.6274 8.23542 19.5944C9.09042 20.0574 10.0604 20.5854 11.2084 21.4114C11.2944 21.4734 11.3974 21.5054 11.5004 21.5054C11.6024 21.5054 11.7054 21.4734 11.7924 21.4114C12.9404 20.5844 13.9104 20.0574 14.7664 19.5934C18.3154 17.6664 19.3464 16.6114 19.5194 5.39236C19.5214 5.25936 19.4694 5.12936 19.3754 5.03436Z" fill="black"/>
</svg>