<svg width="24" height="24" viewBox="0 0 24 24" fill="none" xmlns="http://www.w3.org/2000/svg">
<path d="M10.5331 3.5101C10.5641 3.22971 10.7905 3.00035 11.0726 3.00016C11.6958 2.99974 12.4589 3.00024 12.9526 3.00069C13.2349 3.00094 13.4629 3.2299 13.4628 3.51219L13.4621 7.90377L16.8665 7.90555C17.1489 7.9057 17.3778 8.13468 17.3778 8.41709V10.8316C17.3778 11.114 17.1489 11.3429 16.8665 11.3431L13.4621 11.3449L13.4623 15.1797C13.4624 16.3097 14.3785 17.2257 15.5085 17.2257H16.9878C17.2703 17.2257 17.4993 17.4547 17.4993 17.7372V20.4879C17.4993 20.7701 17.2719 20.999 16.9897 20.9993C16.1485 21.0002 14.4838 21.0012 13.6911 20.9958C11.8167 21.0236 9.8616 20.027 9.31884 18.138C9.08409 17.4655 9.01201 16.8046 9.01201 16.0935C9.0116 14.2979 9.01201 11.3453 9.01201 11.3453L7.01376 11.3449C6.73151 11.3449 6.50263 11.1162 6.50231 10.834L6.5 8.74908C6.49976 8.53481 6.63341 8.34391 6.83335 8.26689C7.58255 7.97829 8.26241 7.65834 8.9182 7.04391C9.76008 6.19512 10.3932 4.77846 10.5331 3.5101Z" stroke="black" stroke-width="1.5" stroke-linecap="round" stroke-linejoin="round"/>
</svg>