<svg width="24" height="25" viewBox="0 0 24 25" fill="none" xmlns="http://www.w3.org/2000/svg">
<path fill-rule="evenodd" clip-rule="evenodd" d="M12.799 16.0988C13.123 16.0988 13.429 15.9728 13.66 15.7448C13.954 15.4538 14.429 15.4558 14.721 15.7508C15.012 16.0458 15.009 16.5208 14.714 16.8118C14.2 17.3198 13.52 17.5988 12.799 17.5988C11.461 17.5988 10.372 16.5078 10.372 15.1678V11.5088H9.372C8.958 11.5088 8.622 11.1728 8.622 10.7588C8.622 10.3448 8.958 10.0088 9.372 10.0088C9.922 10.0088 10.369 9.56279 10.372 9.01379V8.12879C10.372 7.71479 10.708 7.37879 11.122 7.37879C11.536 7.37879 11.872 7.71479 11.872 8.12879V8.37379C11.872 8.37579 11.873 8.37779 11.873 8.37879V9.00879C11.873 9.01179 11.872 9.01479 11.872 9.01779V10.0088H14.188C14.602 10.0088 14.938 10.3448 14.938 10.7588C14.938 11.1728 14.602 11.5088 14.188 11.5088H11.872V15.1388C11.872 15.6808 12.288 16.0988 12.799 16.0988ZM16.217 3.00879H7.782C4.623 3.00879 2.5 5.23179 2.5 8.53879V16.4788C2.5 19.7868 4.623 22.0088 7.782 22.0088H16.216C19.377 22.0088 21.5 19.7868 21.5 16.4788V8.53879C21.5 5.23179 19.377 3.00879 16.217 3.00879Z" fill="black"/>
</svg>