<svg width="24" height="24" viewBox="0 0 24 24" fill="none" xmlns="http://www.w3.org/2000/svg">
<path fill-rule="evenodd" clip-rule="evenodd" d="M11.2591 3.75006C11.0705 5.12431 10.3899 6.62519 9.45069 7.57207C9.44424 7.57857 9.43767 7.58496 9.43099 7.59122C8.71916 8.25816 7.98526 8.61799 7.25018 8.90927L7.25205 10.595L9.01213 10.5953C9.42634 10.5953 9.76207 10.9312 9.76201 11.3454L9.76186 13.0461C9.7618 14.0087 9.7618 15.1956 9.76201 16.0933C9.76201 16.7519 9.82873 17.323 10.0269 17.8909C10.0316 17.9041 10.0358 17.9175 10.0397 17.9309C10.4592 19.3911 12.023 20.2704 13.6799 20.2459L13.6962 20.2458C14.416 20.2507 15.8617 20.2503 16.7493 20.2495V17.9757H15.5085C13.9643 17.9757 12.7124 16.7239 12.7123 15.1798L12.7121 11.3449C12.712 10.9308 13.0476 10.5951 13.4617 10.5949L16.6278 10.5932V8.65543L13.4617 8.65377C13.0476 8.65356 12.712 8.31776 12.7121 7.90365L12.7128 3.75048C12.2876 3.75015 11.7451 3.74987 11.2591 3.75006ZM8.26193 12.0952L7.01364 12.0949C6.31754 12.0948 5.75309 11.5309 5.75232 10.8348L5.75 8.74991C5.74941 8.21843 6.08041 7.75321 6.56376 7.56702C7.27353 7.29361 7.84611 7.01742 8.39522 6.50612C9.09933 5.79018 9.66454 4.54368 9.78765 3.42785C9.85494 2.81791 10.3592 2.25065 11.072 2.25016C11.6959 2.24974 12.4595 2.25024 12.9533 2.25069C13.651 2.25132 14.2129 2.81745 14.2128 3.51232L14.2122 7.15417L16.8669 7.15555C17.5634 7.15592 18.1278 7.72062 18.1278 8.41709V10.8316C18.1278 11.528 17.5634 12.0927 16.8669 12.0931L14.2121 12.0945L14.2123 15.1797C14.2124 15.8955 14.7927 16.4757 15.5085 16.4757H16.9878C17.6845 16.4757 18.2493 17.0405 18.2493 17.7372V20.4879C18.2493 21.1818 17.6888 21.7485 16.9905 21.7493C16.1531 21.7502 14.4933 21.7512 13.6938 21.7458C11.6104 21.7737 9.27687 20.6664 8.60392 18.3656C8.33819 17.5954 8.26202 16.8508 8.26201 16.0936M8.26193 12.0952L8.26186 13.046C8.2618 14.0086 8.2618 15.1958 8.26201 16.0936" fill="black"/>
</svg>