<svg width="24" height="25" viewBox="0 0 24 25" fill="none" xmlns="http://www.w3.org/2000/svg">
<path opacity="0.4" fill-rule="evenodd" clip-rule="evenodd" d="M12 2.75C6.762 2.75 2.5 7.011 2.5 12.25C2.5 17.488 6.762 21.75 12 21.75C17.238 21.75 21.5 17.488 21.5 12.25C21.5 7.011 17.238 2.75 12 2.75Z" fill="black"/>
<path fill-rule="evenodd" clip-rule="evenodd" d="M9.284 16.5127L6.977 14.2057C6.83 14.0587 6.75699 13.8677 6.75699 13.6757C6.75699 13.4837 6.83 13.2917 6.977 13.1447C7.269 12.8517 7.74399 12.8517 8.03699 13.1447L9.06499 14.1727L9.06499 11.8527C9.06499 9.59767 10.9 7.76367 13.156 7.76367C15.411 7.76367 17.245 9.59767 17.245 11.8527L17.245 13.4397C17.245 13.8537 16.909 14.1897 16.495 14.1897C16.081 14.1897 15.745 13.8537 15.745 13.4397L15.745 11.8527C15.745 10.4247 14.584 9.26367 13.156 9.26367C11.727 9.26367 10.565 10.4247 10.565 11.8527L10.565 14.1727L11.594 13.1447C11.887 12.8517 12.361 12.8517 12.655 13.1447C12.948 13.4377 12.947 13.9127 12.655 14.2057L10.346 16.5127C10.277 16.5817 10.195 16.6377 10.103 16.6757C10.065 16.6917 10.023 16.6907 9.984 16.6997C9.92799 16.7127 9.875 16.7337 9.815 16.7337C9.758 16.7337 9.708 16.7137 9.654 16.7017C9.612 16.6917 9.567 16.6927 9.527 16.6757C9.436 16.6377 9.353 16.5817 9.284 16.5127Z" fill="black"/>
</svg>