<svg width="24" height="24" viewBox="0 0 24 24" fill="none" xmlns="http://www.w3.org/2000/svg">
<path fill-rule="evenodd" clip-rule="evenodd" d="M15.0868 3.46967C15.3797 3.17678 15.8546 3.17678 16.1474 3.46967C16.7436 4.06579 17.209 4.53088 17.6746 4.99605L17.6763 4.9978C18.1413 5.4624 18.6065 5.92724 19.2021 6.52285C19.495 6.81574 19.495 7.29061 19.2021 7.58351C18.9092 7.8764 18.4343 7.8764 18.1414 7.58351C17.5453 6.98738 17.0798 6.5223 16.6143 6.05713L16.6131 6.05591C16.2951 5.73817 15.977 5.42033 15.6172 5.06066L13.0948 7.58351C12.8019 7.8764 12.327 7.8764 12.0341 7.58351C11.7412 7.29061 11.7412 6.81574 12.0341 6.52285L15.0868 3.46967Z" fill="black"/>
<path fill-rule="evenodd" clip-rule="evenodd" d="M15.6162 3.25C16.0304 3.25 16.3662 3.58579 16.3662 4V14.8574C16.3662 18.1122 13.7273 20.75 10.4736 20.75C7.2191 20.75 4.58008 18.1123 4.58008 14.8574V12.0668C4.58008 11.6526 4.91586 11.3168 5.33008 11.3168C5.74429 11.3168 6.08008 11.6526 6.08008 12.0668V14.8574C6.08008 17.2835 8.04717 19.25 10.4736 19.25C12.899 19.25 14.8662 17.2836 14.8662 14.8574V4C14.8662 3.58579 15.202 3.25 15.6162 3.25Z" fill="black"/>
</svg>