<svg width="24" height="24" viewBox="0 0 24 24" fill="none" xmlns="http://www.w3.org/2000/svg">
<path fill-rule="evenodd" clip-rule="evenodd" d="M16.415 12.0302C16.7079 11.7373 17.1827 11.7373 17.4756 12.0302L20.529 15.084C20.6696 15.2247 20.7487 15.4155 20.7486 15.6145C20.7486 15.8135 20.6695 16.0043 20.5287 16.1449C19.7771 16.896 19.2338 17.4394 18.6361 18.0374C18.2857 18.388 17.9165 18.7573 17.4756 19.1982C17.1827 19.4911 16.7079 19.4911 16.415 19.1982C16.1221 18.9053 16.1221 18.4304 16.415 18.1375C16.8555 17.697 17.2245 17.3278 17.575 16.9772C18.0229 16.5291 18.4404 16.1114 18.9379 15.6142L16.415 13.0909C16.1221 12.798 16.1221 12.3231 16.415 12.0302Z" fill="black"/>
<path fill-rule="evenodd" clip-rule="evenodd" d="M9.14259 6.07812C6.71651 6.07812 4.75 8.04522 4.75 10.4717C4.75 12.8971 6.71642 14.8642 9.14259 14.8642H20C20.4142 14.8642 20.75 15.2 20.75 15.6142C20.75 16.0285 20.4142 16.3642 20 16.3642H9.14259C5.88782 16.3642 3.25 13.7253 3.25 10.4717C3.25 7.21715 5.88773 4.57812 9.14259 4.57812H17.5802C17.9944 4.57812 18.3302 4.91391 18.3302 5.32812C18.3302 5.74234 17.9944 6.07812 17.5802 6.07812H9.14259Z" fill="black"/>
</svg>