<svg width="25" height="25" viewBox="0 0 25 25" fill="none" xmlns="http://www.w3.org/2000/svg">
<path opacity="0.4" d="M21.5 8.03216L21.5 16.4669C21.5 19.415 19.4188 21.25 16.4736 21.25L8.52638 21.25C5.58119 21.25 3.5 19.415 3.5 16.4659L3.5 8.03216C3.5 5.08405 5.58119 3.25 8.52638 3.25L16.4736 3.25C19.4188 3.25 21.5 5.09281 21.5 8.03216Z" stroke="black" stroke-width="1.5" stroke-linecap="round" stroke-linejoin="round"/>
<path d="M12.7604 10.4284C13.5194 9.66946 13.9455 9.24329 14.7044 8.48437C15.4634 9.24329 15.8895 9.66946 16.6484 10.4284" stroke="black" stroke-width="1.5" stroke-linecap="round" stroke-linejoin="round"/>
<path d="M14.7051 8.48047L14.7051 13.0963C14.7051 14.7094 13.3974 16.0171 11.7852 16.0171C10.172 16.0171 8.86529 14.7094 8.86529 13.0963L8.86529 8.81323" stroke="black" stroke-width="1.5" stroke-linecap="round" stroke-linejoin="round"/>
</svg>