<svg width="24" height="24" viewBox="0 0 24 24" fill="none" xmlns="http://www.w3.org/2000/svg">
<path fill-rule="evenodd" clip-rule="evenodd" d="M12.8173 5.03998C13.1102 4.74709 13.5851 4.74709 13.878 5.03998C14.2824 5.44436 14.6242 5.78626 14.9474 6.10957C15.5433 6.70576 16.0761 7.2387 16.8215 7.98351C16.9623 8.12414 17.0414 8.31494 17.0414 8.5139C17.0414 8.71287 16.9624 8.90369 16.8217 9.04438C16.247 9.61911 15.7986 10.0678 15.3501 10.5164C14.9016 10.9652 14.4529 11.4141 13.878 11.989C13.5851 12.2819 13.1102 12.2819 12.8173 11.989C12.5244 11.6961 12.5244 11.2213 12.8173 10.9284C13.392 10.3537 13.8404 9.9051 14.2888 9.45647L14.29 9.45521C14.5908 9.15429 14.8916 8.85331 15.2306 8.51424C14.7411 8.02494 14.3311 7.61479 13.886 7.16953C13.5629 6.84631 13.2213 6.50459 12.8173 6.10064C12.5244 5.80775 12.5244 5.33288 12.8173 5.03998Z" fill="black"/>
<path fill-rule="evenodd" clip-rule="evenodd" d="M19 5.71484C19.4142 5.71484 19.75 6.05063 19.75 6.46484V11.1282C19.75 11.5424 19.4142 11.8782 19 11.8782C18.5858 11.8782 18.25 11.5424 18.25 11.1282V6.46484C18.25 6.05063 18.5858 5.71484 19 5.71484Z" fill="black"/>
<path fill-rule="evenodd" clip-rule="evenodd" d="M4.25 13.4739C4.25 10.322 6.8053 7.76562 9.95826 7.76562H16.2931C16.7073 7.76562 17.0431 8.10141 17.0431 8.51562C17.0431 8.92984 16.7073 9.26562 16.2931 9.26562H9.95826C7.6339 9.26562 5.75 11.1503 5.75 13.4739C5.75 15.7985 7.63399 17.683 9.95826 17.683H19C19.4142 17.683 19.75 18.0188 19.75 18.433C19.75 18.8473 19.4142 19.183 19 19.183H9.95826C6.80521 19.183 4.25 16.6266 4.25 13.4739Z" fill="black"/>
</svg>