<svg width="24" height="25" viewBox="0 0 24 25" fill="none" xmlns="http://www.w3.org/2000/svg">
<path opacity="0.4" d="M16.6163 15.4058C16.6163 18.7928 13.8603 21.5488 10.4733 21.5488C7.08533 21.5488 4.32933 18.7928 4.32933 15.4058V12.6158C4.32933 12.0638 4.77733 11.6158 5.32933 11.6158C5.88233 11.6158 6.32933 12.0638 6.32933 12.6158V15.4058C6.32933 17.6908 8.18833 19.5488 10.4733 19.5488C12.7573 19.5488 14.6163 17.6908 14.6163 15.4058V8.71289H16.6163V15.4058Z" fill="black"/>
<path d="M14.8342 3.68668L12.394 7.00351C12.1537 7.33079 12.1204 7.76431 12.3007 8.12378C12.4831 8.4854 12.8533 8.71289 13.2578 8.71289L14.626 8.71289L16.7721 8.71289L18.1392 8.71289C18.5437 8.71289 18.9139 8.4854 19.0974 8.12378C19.1736 7.97033 19.2122 7.80508 19.2122 7.63983C19.2122 7.41556 19.1414 7.19129 19.0041 7.00351L16.5629 3.68668C16.3611 3.41198 16.0403 3.24995 15.699 3.24995C15.3578 3.24995 15.0359 3.41198 14.8342 3.68668Z" fill="black"/>
</svg>