<svg width="24" height="24" viewBox="0 0 24 24" fill="none" xmlns="http://www.w3.org/2000/svg">
<path fill-rule="evenodd" clip-rule="evenodd" d="M2.25 12C2.25 6.61589 6.61481 2.25 12 2.25C17.3852 2.25 21.75 6.61589 21.75 12C21.75 17.3841 17.3852 21.75 12 21.75C6.61481 21.75 2.25 17.3841 2.25 12ZM12 3.75C7.44335 3.75 3.75 7.44421 3.75 12C3.75 16.5558 7.44335 20.25 12 20.25C16.5567 20.25 20.25 16.5558 20.25 12C20.25 7.44421 16.5567 3.75 12 3.75Z" fill="black"/>
<path fill-rule="evenodd" clip-rule="evenodd" d="M14.1878 7.51563C14.3868 7.51568 14.5776 7.5948 14.7182 7.73558C15.3444 8.36247 15.7797 8.79766 16.2897 9.30751C16.5133 9.53106 16.7513 9.76897 17.026 10.0437C17.3189 10.3366 17.3189 10.8115 17.026 11.1043C16.7331 11.3972 16.2582 11.3972 15.9653 11.1043C15.6909 10.8299 15.453 10.5921 15.2294 10.3686C14.8758 10.015 14.5579 9.69721 14.1874 9.32653C14.1136 9.40035 14.0419 9.47207 13.9716 9.5424C13.4658 10.0483 13.0321 10.4822 12.4089 11.1046C12.1159 11.3974 11.641 11.3971 11.3483 11.1041C11.0556 10.811 11.0558 10.3361 11.3489 10.0434C11.9716 9.42131 12.4049 8.98795 12.9105 8.48217C13.137 8.25558 13.3781 8.01445 13.6573 7.73529C13.798 7.59459 13.9888 7.51557 14.1878 7.51563Z" fill="black"/>
<path fill-rule="evenodd" clip-rule="evenodd" d="M14.1873 7.51562C14.6015 7.51562 14.9373 7.85141 14.9373 8.26562V12.3969C14.9373 14.6557 13.1062 16.4871 10.848 16.4871C8.58906 16.4871 6.75781 14.6558 6.75781 12.3969V10.8099C6.75781 10.3957 7.0936 10.0599 7.50781 10.0599C7.92203 10.0599 8.25781 10.3957 8.25781 10.8099V12.3969C8.25781 13.8274 9.41749 14.9871 10.848 14.9871C12.2775 14.9871 13.4373 13.8276 13.4373 12.3969V8.26562C13.4373 7.85141 13.7731 7.51562 14.1873 7.51562Z" fill="black"/>
</svg>