<svg width="24" height="25" viewBox="0 0 24 25" fill="none" xmlns="http://www.w3.org/2000/svg">
<path d="M13.8203 12.5117C14.5792 13.2706 15.0054 13.6968 15.7643 14.4557C15.0054 15.2146 14.5792 15.6408 13.8203 16.3997" stroke="black" stroke-width="1.5" stroke-linecap="round" stroke-linejoin="round"/>
<path d="M15.7691 14.4531H11.1523C9.5401 14.4531 8.23242 13.1454 8.23242 11.5332C8.23242 9.91998 9.5401 8.61328 11.1523 8.61328H15.4363" stroke="black" stroke-width="1.5" stroke-linecap="round" stroke-linejoin="round"/>
<path d="M15.1982 21.25H15.9736C18.9188 21.25 21 19.415 21 16.4669V8.03216C21 5.09281 18.9188 3.25 15.9736 3.25H8.02638C5.08119 3.25 3 5.08405 3 8.03216V16.4659C3 19.415 5.08119 21.25 8.02638 21.25H11.762" stroke="black" stroke-width="1.5" stroke-linecap="round" stroke-linejoin="round"/>
</svg>