<svg width="24" height="24" viewBox="0 0 24 24" fill="none" xmlns="http://www.w3.org/2000/svg">
<path fill-rule="evenodd" clip-rule="evenodd" d="M2.25 12C2.25 6.61589 6.61481 2.25 12 2.25C17.3852 2.25 21.75 6.61589 21.75 12C21.75 17.3841 17.3852 21.75 12 21.75C6.61481 21.75 2.25 17.3841 2.25 12ZM12 3.75C7.44335 3.75 3.75 7.44421 3.75 12C3.75 16.5558 7.44335 20.25 12 20.25C16.5567 20.25 20.25 16.5558 20.25 12C20.25 7.44421 16.5567 3.75 12 3.75Z" fill="black"/>
<path fill-rule="evenodd" clip-rule="evenodd" d="M6.97524 12.8957C7.26798 12.6027 7.74285 12.6024 8.0359 12.8952C8.74566 13.6042 9.20979 14.0687 9.814 14.6736C9.92014 14.5675 10.0219 14.4656 10.1215 14.366C10.5892 13.8981 11.0075 13.4796 11.5926 12.8952C11.8856 12.6024 12.3605 12.6027 12.6532 12.8957C12.946 13.1888 12.9457 13.6637 12.6527 13.9564C12.068 14.5404 11.6504 14.9582 11.183 15.4258C10.9296 15.6794 10.6614 15.9476 10.3441 16.265C10.2034 16.4057 10.0125 16.4847 9.81355 16.4846C9.61457 16.4846 9.42376 16.4055 9.28313 16.2647C9.13835 16.1197 9.0038 15.985 8.87619 15.8573C8.20962 15.1899 7.73254 14.7123 6.97582 13.9564C6.68276 13.6637 6.68251 13.1888 6.97524 12.8957Z" fill="black"/>
<path fill-rule="evenodd" clip-rule="evenodd" d="M13.1537 9.01562C11.7243 9.01562 10.5645 10.1752 10.5645 11.6058V15.7371C10.5645 16.1513 10.2287 16.4871 9.81445 16.4871C9.40024 16.4871 9.06445 16.1513 9.06445 15.7371V11.6058C9.06445 9.34701 10.8956 7.51562 13.1537 7.51562C15.4127 7.51562 17.2439 9.34687 17.2439 11.6058V13.1928C17.2439 13.607 16.9081 13.9428 16.4939 13.9428C16.0797 13.9428 15.7439 13.607 15.7439 13.1928V11.6058C15.7439 10.1753 14.5842 9.01562 13.1537 9.01562Z" fill="black"/>
</svg>