<svg width="24" height="24" viewBox="0 0 24 24" fill="none" xmlns="http://www.w3.org/2000/svg">
<path fill-rule="evenodd" clip-rule="evenodd" d="M7.58351 12.0301C7.8764 12.323 7.8764 12.7979 7.58351 13.0908L5.06075 15.614C5.54654 16.0997 5.95613 16.5095 6.39226 16.9458C6.75205 17.3058 7.1299 17.6838 7.58351 18.1374C7.8764 18.4303 7.8764 18.9052 7.58351 19.198C7.29061 19.4909 6.81574 19.4909 6.52285 19.198C6.06876 18.744 5.6908 18.3658 5.33104 18.0059C4.74563 17.4202 4.20842 16.8827 3.46988 16.1448C3.32914 16.0041 3.25004 15.8133 3.25 15.6144C3.24996 15.4154 3.32898 15.2246 3.46967 15.0839L6.52285 12.0301C6.81574 11.7372 7.29061 11.7372 7.58351 12.0301Z" fill="black"/>
<path fill-rule="evenodd" clip-rule="evenodd" d="M5.66976 5.32812C5.66976 4.91391 6.00555 4.57812 6.41976 4.57812H14.8574C18.1123 4.57812 20.75 7.21715 20.75 10.4717C20.75 13.7253 18.1122 16.3642 14.8574 16.3642H4C3.58579 16.3642 3.25 16.0285 3.25 15.6142C3.25 15.2 3.58579 14.8642 4 14.8642H14.8574C17.2836 14.8642 19.25 12.8971 19.25 10.4717C19.25 8.04522 17.2835 6.07812 14.8574 6.07812H6.41976C6.00555 6.07812 5.66976 5.74234 5.66976 5.32812Z" fill="black"/>
</svg>