<svg width="24" height="25" viewBox="0 0 24 25" fill="none" xmlns="http://www.w3.org/2000/svg">
<path d="M12.2607 10.4284C13.0197 9.66946 13.4458 9.24329 14.2047 8.48438C14.9637 9.24329 15.3898 9.66946 16.1487 10.4284" stroke="black" stroke-width="1.5" stroke-linecap="round" stroke-linejoin="round"/>
<path d="M14.205 8.48047V13.0963C14.205 14.7094 12.8973 16.0171 11.2851 16.0171C9.67194 16.0171 8.36523 14.7094 8.36523 13.0963L8.36523 8.81323" stroke="black" stroke-width="1.5" stroke-linecap="round" stroke-linejoin="round"/>
<path d="M15.1982 21.25H15.9736C18.9188 21.25 21 19.415 21 16.4669V8.03216C21 5.09281 18.9188 3.25 15.9736 3.25H8.02638C5.08119 3.25 3 5.08405 3 8.03216V16.4659C3 19.415 5.08119 21.25 8.02638 21.25H11.762" stroke="black" stroke-width="1.5" stroke-linecap="round" stroke-linejoin="round"/>
</svg>