<svg width="24" height="24" viewBox="0 0 24 24" fill="none" xmlns="http://www.w3.org/2000/svg">
<path fill-rule="evenodd" clip-rule="evenodd" d="M3.89737 20.2598C2.84117 19.2753 2.25 17.8733 2.25 16.2178L2.25 7.78314C2.25 6.12379 2.84085 4.72117 3.89765 3.73714C4.94841 2.75872 6.39889 2.25 8.02638 2.25L15.9736 2.25C17.6011 2.25 19.0516 2.75873 20.1024 3.7373C21.1592 4.72148 21.75 6.12435 21.75 7.78411L21.75 16.2178C21.75 17.8772 21.1591 19.2796 20.1023 20.2634C19.0515 21.2416 17.601 21.75 15.9736 21.75L8.02638 21.75C6.39806 21.75 4.94771 21.2388 3.89737 20.2598ZM4.92012 19.1625C5.64666 19.8398 6.70951 20.25 8.02638 20.25L15.9736 20.25C17.2914 20.25 18.3541 19.8414 19.0802 19.1655C19.8003 18.4952 20.25 17.5066 20.25 16.2178L20.25 7.78411C20.25 6.49479 19.8002 5.5056 19.0801 4.835C18.354 4.15879 17.2913 3.75 15.9736 3.75L8.02638 3.75C6.70868 3.75 5.64597 4.15879 4.91984 4.83492C4.19975 5.50542 3.75 6.49437 3.75 7.78314L3.75 16.2178C3.75 17.5017 4.19943 18.4908 4.92012 19.1625Z" fill="black"/>
<path fill-rule="evenodd" clip-rule="evenodd" d="M7.32123 13.2913C7.61413 12.9984 8.089 12.9984 8.38189 13.2913L9.79556 14.705L11.2092 13.2913C11.5021 12.9984 11.977 12.9984 12.2699 13.2913C12.5628 13.5842 12.5628 14.0591 12.2699 14.352L10.3259 16.296C10.033 16.5888 9.55813 16.5888 9.26523 16.296L7.32123 14.352C7.02834 14.0591 7.02834 13.5842 7.32123 13.2913Z" fill="black"/>
<path fill-rule="evenodd" clip-rule="evenodd" d="M9.79492 16.5195C9.38071 16.5195 9.04492 16.1837 9.04492 15.7695L9.04492 11.1537C9.04492 9.12651 10.6882 7.48288 12.7148 7.48288C14.7425 7.48288 16.3847 9.12667 16.3847 11.1537L16.3847 15.4368C16.3847 15.851 16.0489 16.1868 15.6347 16.1868C15.2205 16.1868 14.8847 15.851 14.8847 15.4368L14.8847 11.1537C14.8847 9.95445 13.9135 8.98288 12.7148 8.98288C11.517 8.98288 10.5449 9.95461 10.5449 11.1537L10.5449 15.7695C10.5449 16.1837 10.2091 16.5195 9.79492 16.5195Z" fill="black"/>
</svg>