<svg width="24" height="24" viewBox="0 0 24 24" fill="none" xmlns="http://www.w3.org/2000/svg">
<path d="M7.78216 3H16.2169C19.165 3 21 5.08119 21 8.02638V15.9736C21 18.9188 19.165 21 16.2159 21H7.78216C4.83405 21 3 18.9188 3 15.9736V8.02638C3 5.08119 4.84281 3 7.78216 3Z" stroke="black" stroke-width="1.5" stroke-linecap="round" stroke-linejoin="round"/>
<path d="M10.1803 11.7396C9.42141 10.9806 8.99525 10.5545 8.23633 9.79556C8.99525 9.03664 9.42141 8.61048 10.1803 7.85156" stroke="black" stroke-width="1.5" stroke-linecap="round" stroke-linejoin="round"/>
<path d="M8.23242 9.79688H12.8482C14.4614 9.79688 15.7691 11.1046 15.7691 12.7168C15.7691 14.33 14.4614 15.6367 12.8482 15.6367H8.56518" stroke="black" stroke-width="1.5" stroke-linecap="round" stroke-linejoin="round"/>
</svg>