<svg width="24" height="24" viewBox="0 0 24 24" fill="none" xmlns="http://www.w3.org/2000/svg">
<path fill-rule="evenodd" clip-rule="evenodd" d="M12 20.25C7.44335 20.25 3.75 16.5558 3.75 12C3.75 7.44421 7.44335 3.75 12 3.75C16.5567 3.75 20.25 7.44421 20.25 12C20.25 16.5558 16.5567 20.25 12 20.25ZM2.25 12C2.25 17.3841 6.61481 21.75 12 21.75C17.3852 21.75 21.75 17.3841 21.75 12C21.75 6.61589 17.3852 2.25 12 2.25C6.61481 2.25 2.25 6.61589 2.25 12Z" fill="black"/>
<path fill-rule="evenodd" clip-rule="evenodd" d="M7.51562 10.8447C7.51562 13.1026 9.34576 14.934 11.6049 14.934H15.7361C16.1503 14.934 16.4861 14.5982 16.4861 14.184C16.4861 13.7698 16.1503 13.434 15.7361 13.434H11.6049C10.1745 13.434 9.01562 12.2745 9.01562 10.8447C9.01562 9.41392 10.1746 8.25453 11.6049 8.25453H13.1918C13.606 8.25453 13.9418 7.91874 13.9418 7.50453C13.9418 7.09032 13.606 6.75453 13.1918 6.75453H11.6049C9.34561 6.75453 7.51562 8.58606 7.51562 10.8447Z" fill="black"/>
<path fill-rule="evenodd" clip-rule="evenodd" d="M12.8974 17.0225C13.1903 17.3154 13.6652 17.3154 13.9581 17.0225L16.266 14.7146C16.5587 14.4218 16.5589 13.9472 16.2662 13.6543C16.1215 13.5094 15.987 13.3747 15.8595 13.247C15.1928 12.5796 14.7151 12.1014 13.9578 11.3448C13.6647 11.0521 13.1899 11.0523 12.8971 11.3454C12.6044 11.6384 12.6046 12.1133 12.8977 12.406C13.6072 13.1147 14.0708 13.5788 14.6753 14.184L12.8974 15.9619C12.6045 16.2548 12.6045 16.7296 12.8974 17.0225Z" fill="black"/>
</svg>