<svg width="24" height="25" viewBox="0 0 24 25" fill="none" xmlns="http://www.w3.org/2000/svg">
<path fill-rule="evenodd" clip-rule="evenodd" d="M14.857 4.70898H6.42C5.868 4.70898 5.42 5.15698 5.42 5.70898C5.42 6.26098 5.868 6.70898 6.42 6.70898H14.857C17.142 6.70898 19 8.56798 19 10.853C19 13.137 17.142 14.995 14.857 14.995H8.791V13.199C8.791 12.821 8.578 12.476 8.241 12.306C7.903 12.136 7.501 12.169 7.197 12.394L3.406 15.19C3.389 15.204 3.382 15.226 3.365 15.24C3.287 15.305 3.225 15.383 3.17 15.47C3.148 15.506 3.118 15.535 3.1 15.574C3.04 15.703 3 15.843 3 15.995C3 16.147 3.04 16.288 3.1 16.417C3.118 16.455 3.148 16.484 3.17 16.521C3.225 16.607 3.287 16.685 3.365 16.751C3.382 16.765 3.389 16.787 3.406 16.8L7.197 19.597C7.372 19.726 7.581 19.792 7.791 19.792C7.944 19.792 8.099 19.756 8.241 19.685C8.578 19.515 8.791 19.169 8.791 18.792V16.995H14.857C18.244 16.995 21 14.24 21 10.853C21 7.46498 18.244 4.70898 14.857 4.70898Z" fill="black"/>
</svg>