<svg width="24" height="24" viewBox="0 0 24 24" fill="none" xmlns="http://www.w3.org/2000/svg">
<path fill-rule="evenodd" clip-rule="evenodd" d="M8.72188 3.46967C9.01477 3.76256 9.01477 4.23744 8.72188 4.53033L6.45519 6.79702L8.72188 9.06371C9.01477 9.3566 9.01477 9.83148 8.72188 10.1244C8.42899 10.4173 7.95411 10.4173 7.66122 10.1244L4.8642 7.32735C4.57131 7.03446 4.57131 6.55958 4.8642 6.26669L7.66122 3.46967C7.95411 3.17678 8.42899 3.17678 8.72188 3.46967Z" fill="black"/>
<path fill-rule="evenodd" clip-rule="evenodd" d="M4.64844 6.79688C4.64844 6.38266 4.98422 6.04688 5.39844 6.04688H12.6171C16.3379 6.04688 19.3535 9.06245 19.3535 12.7832C19.3535 16.503 16.338 19.5196 12.6171 19.5196C12.2029 19.5196 11.8671 19.1838 11.8671 18.7696C11.8671 18.3554 12.2029 18.0196 12.6171 18.0196C15.5094 18.0196 17.8535 15.6748 17.8535 12.7832C17.8535 9.89087 15.5095 7.54688 12.6171 7.54688H5.39844C4.98422 7.54688 4.64844 7.21109 4.64844 6.79688Z" fill="black"/>
<path fill-rule="evenodd" clip-rule="evenodd" d="M7.60076 16.3359C6.79647 16.3359 6.14453 16.9879 6.14453 17.7922C6.14453 18.5965 6.79647 19.2484 7.60076 19.2484C8.40505 19.2484 9.05699 18.5965 9.05699 17.7922C9.05699 16.9879 8.40505 16.3359 7.60076 16.3359ZM4.64453 17.7922C4.64453 16.1595 5.96804 14.8359 7.60076 14.8359C9.23348 14.8359 10.557 16.1595 10.557 17.7922C10.557 19.4249 9.23348 20.7484 7.60076 20.7484C5.96804 20.7484 4.64453 19.4249 4.64453 17.7922Z" fill="black"/>
</svg>