<svg width="24" height="24" viewBox="0 0 24 24" fill="none" xmlns="http://www.w3.org/2000/svg">
<path fill-rule="evenodd" clip-rule="evenodd" d="M2.25 12C2.25 6.61589 6.61481 2.25 12 2.25C17.3852 2.25 21.75 6.61589 21.75 12C21.75 17.3841 17.3852 21.75 12 21.75C6.61481 21.75 2.25 17.3841 2.25 12ZM12 3.75C7.44335 3.75 3.75 7.44421 3.75 12C3.75 16.5558 7.44335 20.25 12 20.25C16.5567 20.25 20.25 16.5558 20.25 12C20.25 7.44421 16.5567 3.75 12 3.75Z" fill="black"/>
<path fill-rule="evenodd" clip-rule="evenodd" d="M7.51367 9.81601C7.51367 9.4018 7.84946 9.06601 8.26367 9.06601H12.3949C14.654 9.06601 16.4842 10.8974 16.4842 13.1553C16.4842 15.4139 14.6542 17.2455 12.3949 17.2455H10.808C10.3938 17.2455 10.058 16.9097 10.058 16.4955C10.058 16.0813 10.3938 15.7455 10.808 15.7455H12.3949C13.8252 15.7455 14.9842 14.5861 14.9842 13.1553C14.9842 11.7255 13.8253 10.566 12.3949 10.566H8.26367C7.84946 10.566 7.51367 10.2302 7.51367 9.81601Z" fill="black"/>
<path fill-rule="evenodd" clip-rule="evenodd" d="M11.1029 6.97748C11.3958 7.27038 11.3958 7.74525 11.1029 8.03814C10.9188 8.22217 10.7513 8.3897 10.5936 8.54745C10.1432 8.99786 9.77251 9.36859 9.32453 9.81628C9.39643 9.8882 9.46634 9.95812 9.5349 10.0267C10.0431 10.5351 10.4774 10.9695 11.1026 11.594C11.3956 11.8867 11.3959 12.3616 11.1032 12.6546C10.8104 12.9477 10.3355 12.9479 10.0425 12.6552C9.41695 12.0303 8.98218 11.5954 8.47377 11.0869C8.24898 10.862 8.00978 10.6228 7.73334 10.3463C7.59264 10.2056 7.51362 10.0148 7.51367 9.81581C7.51373 9.61683 7.59285 9.42602 7.73363 9.28539C8.45128 8.56851 8.9175 8.10226 9.53263 7.48708C9.69044 7.32927 9.85804 7.16165 10.0422 6.97748C10.3351 6.68459 10.81 6.68459 11.1029 6.97748Z" fill="black"/>
</svg>