<svg width="24" height="24" viewBox="0 0 24 24" fill="none" xmlns="http://www.w3.org/2000/svg">
<path fill-rule="evenodd" clip-rule="evenodd" d="M20.1026 3.7402C21.1588 4.72468 21.75 6.12669 21.75 7.78216L21.75 16.2169C21.75 17.8762 21.1592 19.2788 20.1024 20.2629C19.0516 21.2413 17.6011 21.75 15.9736 21.75L8.02638 21.75C6.39889 21.75 4.94838 21.2413 3.89761 20.2627C2.84079 19.2785 2.25 17.8756 2.25 16.2159L2.25 7.78216C2.25 6.1228 2.84086 4.72038 3.89773 3.73657C4.94853 2.75842 6.39899 2.25 8.02638 2.25L15.9736 2.25C17.6019 2.25 19.0523 2.76117 20.1026 3.7402ZM19.0799 4.83745C18.3533 4.16024 17.2905 3.75 15.9736 3.75L8.02638 3.75C6.70857 3.75 5.64585 4.15861 4.91976 4.83451C4.19974 5.50475 3.75 6.49341 3.75 7.78216L3.75 16.2159C3.75 17.5052 4.1998 18.4944 4.91988 19.165C5.64599 19.8412 6.70868 20.25 8.02638 20.25L15.9736 20.25C17.2913 20.25 18.354 19.8412 19.0802 19.1651C19.8002 18.4946 20.25 17.5056 20.25 16.2169L20.25 7.78216C20.25 6.49828 19.8006 5.50921 19.0799 4.83745Z" fill="black"/>
<path fill-rule="evenodd" clip-rule="evenodd" d="M16.6788 10.7087C16.3859 11.0016 15.911 11.0016 15.6181 10.7087L14.2044 9.29504L12.7908 10.7087C12.4979 11.0016 12.023 11.0016 11.7301 10.7087C11.4372 10.4158 11.4372 9.94094 11.7301 9.64804L13.6741 7.70404C13.967 7.41115 14.4419 7.41115 14.7348 7.70404L16.6788 9.64805C16.9717 9.94094 16.9717 10.4158 16.6788 10.7087Z" fill="black"/>
<path fill-rule="evenodd" clip-rule="evenodd" d="M14.2051 7.48047C14.6193 7.48047 14.9551 7.81626 14.9551 8.23047L14.9551 12.8463C14.9551 14.8735 13.3118 16.5171 11.2852 16.5171C9.25746 16.5171 7.61529 14.8733 7.61529 12.8463L7.61529 8.56322C7.61529 8.14901 7.95108 7.81322 8.36529 7.81322C8.77951 7.81322 9.11529 8.14901 9.11529 8.56323L9.11529 12.8463C9.11529 14.0456 10.0865 15.0171 11.2852 15.0171C12.483 15.0171 13.4551 14.0454 13.4551 12.8463L13.4551 8.23047C13.4551 7.81626 13.7909 7.48047 14.2051 7.48047Z" fill="black"/>
</svg>