<svg width="24" height="24" viewBox="0 0 24 24" fill="none" xmlns="http://www.w3.org/2000/svg">
<path d="M16.2178 21H7.78313C4.83503 21 3 18.9188 3 15.9736V8.02638C3 5.08119 4.83503 3 7.78411 3H16.2178C19.1659 3 21 5.08119 21 8.02638V15.9736C21 18.9188 19.1572 21 16.2178 21Z" stroke="black" stroke-width="1.5" stroke-linecap="round" stroke-linejoin="round"/>
<path d="M13.8203 12.2604C14.5792 13.0194 15.0054 13.4455 15.7643 14.2044C15.0054 14.9634 14.5792 15.3895 13.8203 16.1484" stroke="black" stroke-width="1.5" stroke-linecap="round" stroke-linejoin="round"/>
<path d="M15.7691 14.2031H11.1523C9.5401 14.2031 8.23242 12.8954 8.23242 11.2832C8.23242 9.67004 9.5401 8.36334 11.1523 8.36334H15.4363" stroke="black" stroke-width="1.5" stroke-linecap="round" stroke-linejoin="round"/>
</svg>