<svg width="24" height="25" viewBox="0 0 24 25" fill="none" xmlns="http://www.w3.org/2000/svg">
<path fill-rule="evenodd" clip-rule="evenodd" d="M16.3824 15.3242C14.8904 15.3242 13.6754 16.5382 13.6754 18.0302C13.6754 19.5222 14.8904 20.7362 16.3824 20.7362C17.8744 20.7362 19.0884 19.5222 19.0884 18.0302C19.0884 16.5382 17.8744 15.3242 16.3824 15.3242Z" fill="black"/>
<path d="M19.2135 6.22955L16.1225 3.95555C15.8175 3.73155 15.4135 3.70055 15.0785 3.86855C14.7415 4.03855 14.5295 4.38355 14.5295 4.76055V6.03555V8.03555V9.30955C14.5295 9.68655 14.7415 10.0315 15.0785 10.2025C15.2215 10.2735 15.3755 10.3095 15.5295 10.3095C15.7385 10.3095 15.9475 10.2435 16.1225 10.1155L19.2135 7.84055C19.4695 7.65255 19.6205 7.35355 19.6205 7.03555C19.6205 6.71755 19.4695 6.41755 19.2135 6.22955Z" fill="black"/>
<path opacity="0.4" d="M11.3645 6.03516H14.5295V8.03516H11.3645C8.61552 8.03516 6.37952 10.2712 6.37952 13.0212C6.37952 15.7712 8.61552 18.0082 11.3645 18.0082C11.9175 18.0082 12.3645 18.4562 12.3645 19.0082C12.3645 19.5602 11.9175 20.0082 11.3645 20.0082C7.51352 20.0082 4.37952 16.8742 4.37952 13.0212C4.37952 9.16916 7.51352 6.03516 11.3645 6.03516Z" fill="black"/>
</svg>