<svg width="24" height="24" viewBox="0 0 24 24" fill="none" xmlns="http://www.w3.org/2000/svg">
<path d="M9.14767 20.7268C6.85767 20.7268 3.96767 20.0868 2.42767 18.2368C2.23767 18.0068 2.19767 17.6968 2.32767 17.4268C2.45767 17.1568 2.73766 16.9968 3.02766 17.0068C4.33766 17.0368 5.58767 16.7768 6.73767 16.2068C3.50767 13.8668 2.35767 10.1268 3.24767 4.83681C3.29767 4.55681 3.49766 4.32678 3.75766 4.24678C4.02766 4.15678 4.31767 4.23678 4.51767 4.43678C6.24767 6.19678 8.48767 7.40675 10.8977 7.90675C11.0477 6.22675 12.0177 4.11675 14.1677 3.46675C16.5677 2.73675 18.3377 4.2368 19.0177 4.9568L20.8877 4.67677C21.1877 4.63677 21.4677 4.7668 21.6277 5.0168C21.7877 5.2668 21.7877 5.58681 21.6277 5.83681L20.1777 8.03676C20.6177 15.2168 16.4777 20.2968 9.87767 20.7068C9.63767 20.7168 9.39767 20.7268 9.13766 20.7268H9.14767ZM4.99767 18.3568C6.55767 19.1368 8.58767 19.2868 9.79767 19.2068C15.5077 18.8468 19.0877 14.3868 18.6877 8.11678L18.6677 7.91676C18.6477 7.74676 18.6877 7.56677 18.7877 7.42677L19.4577 6.40675L18.8377 6.49678C18.5677 6.53678 18.2877 6.4268 18.1277 6.2068C18.0677 6.1268 16.6377 4.27675 14.6177 4.90675C12.9477 5.41675 12.2577 7.4768 12.4077 8.7068C12.4377 8.9368 12.3577 9.16681 12.1877 9.33681C12.0177 9.49681 11.7877 9.57677 11.5577 9.54677C8.98766 9.19677 6.53767 8.12677 4.53767 6.48677C3.96767 12.2768 6.49766 14.4468 8.52766 15.5868C8.75766 15.7168 8.89767 15.9468 8.90767 16.2068C8.91767 16.4668 8.79766 16.7168 8.58766 16.8568C7.48766 17.6168 6.26766 18.1168 4.97766 18.3568H4.99767Z" fill="black"/>
</svg>