<svg width="24" height="24" viewBox="0 0 24 24" fill="none" xmlns="http://www.w3.org/2000/svg">
<path fill-rule="evenodd" clip-rule="evenodd" d="M7.83839 3.75006C6.90344 3.75006 6.14551 4.50799 6.14551 5.44294V14.16C6.14551 17.5234 8.87212 20.2501 12.2356 20.2501H16.1615C17.0965 20.2501 17.8544 19.4921 17.8544 18.5572C17.8544 17.6222 17.0965 16.8643 16.1615 16.8643H12.2356C10.742 16.8643 9.53127 15.6535 9.53127 14.16V12.2057C9.53127 11.7915 9.86706 11.4557 10.2813 11.4557H16.1615C16.6105 11.4557 17.0411 11.2773 17.3586 10.9599C17.676 10.6424 17.8544 10.2118 17.8544 9.7628C17.8544 8.82785 17.0965 8.06992 16.1615 8.06992H10.2813C9.86706 8.06992 9.53127 7.73414 9.53127 7.31992V5.44294C9.53127 4.50799 8.77334 3.75006 7.83839 3.75006ZM4.64551 5.44294C4.64551 3.67956 6.07501 2.25006 7.83839 2.25006C9.60177 2.25006 11.0313 3.67956 11.0313 5.44294V6.56992H16.1615C17.9249 6.56992 19.3544 7.99942 19.3544 9.7628C19.3544 10.6096 19.018 11.4217 18.4192 12.0205C17.8204 12.6193 17.0083 12.9557 16.1615 12.9557H11.0313V14.16C11.0313 14.8251 11.5705 15.3643 12.2356 15.3643H16.1615C17.9249 15.3643 19.3544 16.7938 19.3544 18.5572C19.3544 20.3206 17.9249 21.7501 16.1615 21.7501H12.2356C8.0437 21.7501 4.64551 18.3519 4.64551 14.16V5.44294Z" fill="black"/>
</svg>