<svg width="24" height="24" viewBox="0 0 24 24" fill="none" xmlns="http://www.w3.org/2000/svg">
<path fill-rule="evenodd" clip-rule="evenodd" d="M5.63984 3.5C4.55404 3.5 3.67383 4.38021 3.67383 5.46601V15.0648C3.67383 16.1506 4.55404 17.0308 5.63984 17.0308H5.81435C6.35725 17.0308 6.79736 17.4709 6.79736 18.0138V20.0075C6.79736 20.4454 7.32678 20.6647 7.63641 20.3551L10.3848 17.6066C10.7535 17.2379 11.2536 17.0308 11.775 17.0308H16.6944C17.2157 17.0308 17.7156 16.8238 18.0843 16.4552L19.751 14.7891C20.1199 14.4204 20.3271 13.9202 20.3271 13.3987V5.46601C20.3271 4.38021 19.4469 3.5 18.3611 3.5H5.63984Z" stroke="black" stroke-width="1.5" stroke-linecap="round" stroke-linejoin="round"/>
<path d="M16.1643 8.19141V11.8267M12.001 8.19141V11.8267" stroke="black" stroke-width="1.5" stroke-linecap="round" stroke-linejoin="round"/>
</svg>