<svg width="24" height="24" viewBox="0 0 24 24" fill="none" xmlns="http://www.w3.org/2000/svg">
<path d="M16.21 21.7542H7.78C4.47 21.7542 2.25 19.4341 2.25 15.9741V8.02417C2.25 4.57417 4.47 2.24414 7.78 2.24414H16.22C19.53 2.24414 21.75 4.56417 21.75 8.02417V15.9741C21.75 19.4241 19.53 21.7542 16.22 21.7542H16.21ZM7.78 3.75415C5.33 3.75415 3.75 5.43418 3.75 8.03418V15.9841C3.75 18.5841 5.33 20.2642 7.78 20.2642H16.21C18.66 20.2642 20.24 18.5841 20.24 15.9841V8.03418C20.24 5.43418 18.66 3.75415 16.21 3.75415H7.77002H7.78Z" fill="black"/>
<path d="M10.3503 17.6147C9.39032 17.6147 7.31031 17.4447 6.15031 16.0447C5.96031 15.8147 5.92033 15.5047 6.05033 15.2347C6.18033 14.9647 6.45032 14.7947 6.75032 14.8147C7.28032 14.8347 7.81033 14.7447 8.30033 14.5747C6.63033 13.1247 6.06031 10.9447 6.56031 7.95475C6.61031 7.67475 6.81032 7.44472 7.07032 7.36472C7.34032 7.28472 7.63033 7.35472 7.83033 7.55472C8.72033 8.46472 9.85033 9.10472 11.0803 9.42472C11.2803 8.34472 12.0003 7.25476 13.1703 6.90476C14.6403 6.45476 15.7403 7.28475 16.2403 7.77475L17.2103 7.71475C17.5003 7.69475 17.7603 7.83475 17.9003 8.08475C18.0403 8.32475 18.0403 8.63473 17.8903 8.87473L17.1003 10.1147C17.2703 14.3647 14.7503 17.3647 10.7703 17.6147C10.6803 17.6147 10.5403 17.6247 10.3503 17.6247V17.6147ZM8.92033 15.9547C9.51033 16.0947 10.1403 16.1447 10.6803 16.1047C13.8903 15.9047 15.8203 13.4847 15.6003 9.94474C15.6003 9.78474 15.6303 9.62472 15.7203 9.49472L15.8503 9.29471C15.6503 9.27471 15.4603 9.16473 15.3403 9.00473C15.3003 8.95473 14.5903 8.05476 13.6203 8.34476C12.7803 8.60476 12.4803 9.69471 12.5503 10.2347C12.5803 10.4647 12.5003 10.6947 12.3303 10.8647C12.1703 11.0247 11.9303 11.1047 11.7003 11.0747C10.3303 10.8947 9.02031 10.3647 7.90031 9.57474C7.78031 12.3247 9.00031 13.4048 10.1203 14.0348C10.3503 14.1648 10.4903 14.3948 10.5003 14.6548C10.5103 14.9148 10.3903 15.1647 10.1803 15.3047C9.79031 15.5747 9.36033 15.7948 8.92033 15.9648V15.9547Z" fill="black"/>
</svg>