<svg width="24" height="24" viewBox="0 0 24 24" fill="none" xmlns="http://www.w3.org/2000/svg">
<path fill-rule="evenodd" clip-rule="evenodd" d="M5.63984 4.25C4.96826 4.25 4.42383 4.79443 4.42383 5.46601V15.0648C4.42383 15.7364 4.96826 16.2808 5.63984 16.2808H5.81435C6.77146 16.2808 7.54736 17.0567 7.54736 18.0138V19.3834L9.85452 17.0763C10.3639 16.5669 11.0547 16.2808 11.775 16.2808H16.6944C17.0168 16.2808 17.3261 16.1527 17.5541 15.9248L19.2208 14.2587C19.4489 14.0307 19.5771 13.7213 19.5771 13.3987V5.46601C19.5771 4.79443 19.0327 4.25 18.3611 4.25H5.63984ZM2.92383 5.46601C2.92383 3.966 4.13983 2.75 5.63984 2.75H18.3611C19.8611 2.75 21.0771 3.966 21.0771 5.46601V13.3987C21.0771 14.1192 20.7908 14.8102 20.2812 15.3196L18.6146 16.9856C18.1052 17.4948 17.4146 17.7808 16.6944 17.7808H11.775C11.4525 17.7808 11.1432 17.9089 10.9152 18.1369L8.16674 20.8854C7.38463 21.6675 6.04736 21.1136 6.04736 20.0075V18.0138C6.04736 17.8851 5.94304 17.7808 5.81435 17.7808H5.63984C4.13983 17.7808 2.92383 16.5648 2.92383 15.0648V5.46601Z" fill="black"/>
<path fill-rule="evenodd" clip-rule="evenodd" d="M12.001 7.44141C12.4152 7.44141 12.751 7.77719 12.751 8.19141V11.8267C12.751 12.241 12.4152 12.5767 12.001 12.5767C11.5868 12.5767 11.251 12.241 11.251 11.8267V8.19141C11.251 7.77719 11.5868 7.44141 12.001 7.44141ZM16.1643 7.44141C16.5785 7.44141 16.9143 7.77719 16.9143 8.19141V11.8267C16.9143 12.241 16.5785 12.5767 16.1643 12.5767C15.7501 12.5767 15.4143 12.241 15.4143 11.8267V8.19141C15.4143 7.77719 15.7501 7.44141 16.1643 7.44141Z" fill="black"/>
</svg>