<svg width="24" height="24" viewBox="0 0 24 24" fill="none" xmlns="http://www.w3.org/2000/svg">
<path fill-rule="evenodd" clip-rule="evenodd" d="M12 3.75C7.44329 3.75 3.75 7.44329 3.75 12C3.75 16.5567 7.44329 20.25 12 20.25C16.5567 20.25 20.25 16.5567 20.25 12C20.25 7.44329 16.5567 3.75 12 3.75ZM2.25 12C2.25 6.61487 6.61487 2.25 12 2.25C17.3851 2.25 21.75 6.61487 21.75 12C21.75 17.3851 17.3851 21.75 12 21.75C6.61487 21.75 2.25 17.3851 2.25 12Z" fill="black"/>
<path fill-rule="evenodd" clip-rule="evenodd" d="M9.9248 7.25C10.339 7.25 10.6748 7.58579 10.6748 8V14C10.6748 14.6904 11.2344 15.25 11.9248 15.25H14.0754C14.4896 15.25 14.8254 15.5858 14.8254 16C14.8254 16.4142 14.4896 16.75 14.0754 16.75H11.9248C10.406 16.75 9.1748 15.5188 9.1748 14V8C9.1748 7.58579 9.51059 7.25 9.9248 7.25Z" fill="black"/>
<path fill-rule="evenodd" clip-rule="evenodd" d="M9.1748 11.5C9.1748 11.0858 9.51059 10.75 9.9248 10.75H14.0754C14.4896 10.75 14.8254 11.0858 14.8254 11.5C14.8254 11.9142 14.4896 12.25 14.0754 12.25H9.9248C9.51059 12.25 9.1748 11.9142 9.1748 11.5Z" fill="black"/>
</svg>