<svg width="24" height="24" viewBox="0 0 24 24" fill="none" xmlns="http://www.w3.org/2000/svg">
<path fill-rule="evenodd" clip-rule="evenodd" d="M17.5841 14.793C17.5761 14.775 17.5611 14.763 17.5521 14.745C17.5181 14.677 17.4811 14.608 17.4231 14.551L15.8351 12.963C15.6891 12.816 15.4971 12.743 15.3051 12.743C15.1131 12.743 14.9211 12.816 14.7751 12.963C14.4821 13.256 14.4821 13.73 14.7751 14.023L15.0851 14.334H14.7431C13.4841 14.334 12.4601 13.309 12.4601 12.05V8.334C12.4601 7.92 12.1241 7.584 11.7101 7.584C11.7091 7.584 11.7091 7.584 11.7081 7.584C11.2941 7.584 10.9571 7.92 10.9571 8.334V12.05C10.9571 13.309 9.93213 14.334 8.67313 14.334H8.33113L8.64213 14.023C8.93513 13.73 8.93513 13.256 8.64213 12.963C8.49513 12.816 8.30313 12.743 8.11213 12.743C7.92013 12.743 7.72813 12.816 7.58113 12.963L5.99313 14.551C5.93613 14.608 5.89913 14.677 5.86413 14.745C5.85513 14.763 5.84013 14.775 5.83213 14.793C5.79413 14.886 5.77413 14.984 5.77413 15.082C5.77413 15.083 5.77413 15.083 5.77413 15.084C5.77413 15.111 5.78613 15.135 5.78913 15.162C5.79713 15.231 5.80413 15.301 5.83113 15.366C5.87013 15.463 5.92913 15.549 6.00213 15.62L7.58113 17.199C7.87413 17.492 8.34913 17.492 8.64213 17.199C8.93513 16.906 8.93513 16.431 8.64213 16.139L8.33713 15.834H8.67313C9.92013 15.834 11.0191 15.22 11.7081 14.287C12.3981 15.22 13.4971 15.834 14.7431 15.834H15.0791L14.7751 16.139C14.4821 16.431 14.4821 16.906 14.7751 17.199C15.0681 17.492 15.5421 17.492 15.8351 17.199L17.4141 15.62C17.4881 15.549 17.5461 15.463 17.5861 15.366C17.6131 15.301 17.6191 15.231 17.6271 15.162C17.6301 15.135 17.6431 15.111 17.6431 15.084C17.6431 15.083 17.6421 15.083 17.6421 15.082C17.6431 14.984 17.6231 14.886 17.5841 14.793ZM15.9251 22H7.49213C4.33113 22 2.20813 19.779 2.20813 16.473V8.526C2.20813 5.221 4.33113 3 7.49113 3H15.9251C19.0851 3 21.2081 5.221 21.2081 8.526V16.473C21.2081 19.779 19.0851 22 15.9251 22Z" fill="black"/>
</svg>