<svg width="24" height="24" viewBox="0 0 24 24" fill="none" xmlns="http://www.w3.org/2000/svg">
<path fill-rule="evenodd" clip-rule="evenodd" d="M16.457 9.58C16.457 9.994 16.121 10.33 15.707 10.33C15.293 10.33 14.957 9.994 14.957 9.58V9.019H12.715V14.98H13.654C14.068 14.98 14.404 15.316 14.404 15.73C14.404 16.144 14.068 16.48 13.654 16.48H10.347C9.933 16.48 9.597 16.144 9.597 15.73C9.597 15.316 9.933 14.98 10.347 14.98H11.215V9.019H9.043V9.58C9.043 9.994 8.707 10.33 8.293 10.33C7.879 10.33 7.543 9.994 7.543 9.58V8.269C7.543 7.855 7.879 7.519 8.293 7.519H15.707C16.121 7.519 16.457 7.855 16.457 8.269V9.58ZM16.218 2.5H7.783C4.623 2.5 2.5 4.723 2.5 8.03V15.97C2.5 19.277 4.623 21.5 7.783 21.5H16.217C19.377 21.5 21.5 19.277 21.5 15.97V8.03C21.5 4.723 19.377 2.5 16.218 2.5Z" fill="black"/>
</svg>