<svg width="24" height="24" viewBox="0 0 24 24" fill="none" xmlns="http://www.w3.org/2000/svg">
<path d="M7.78216 3H16.2169C19.165 3 21 5.08119 21 8.02638V15.9736C21 18.9188 19.165 21 16.2159 21H7.78216C4.83405 21 3 18.9188 3 15.9736V8.02638C3 5.08119 4.84281 3 7.78216 3Z" stroke="black" stroke-width="1.5" stroke-linecap="round" stroke-linejoin="round"/>
<path d="M17.212 11.4945C16.5825 10.7939 15.3137 10.8523 14.727 11.5772C14.3349 12.0608 14.297 12.7068 14.6239 13.2351C15.0141 13.8646 15.6445 13.995 16.3188 14.1361C17.2344 14.3278 17.9048 15.2171 17.5457 16.1618C17.03 17.5201 15.1133 17.3995 14.3223 16.3915" stroke="black" stroke-width="1.5" stroke-linecap="round" stroke-linejoin="round"/>
<path d="M9.94531 17.1641V11M12 11H7.89062" stroke="black" stroke-width="1.5" stroke-linecap="round" stroke-linejoin="round"/>
</svg>