<svg width="24" height="24" viewBox="0 0 24 24" fill="none" xmlns="http://www.w3.org/2000/svg">
<path d="M16.2149 21.75H7.78488C4.47488 21.75 2.25488 19.43 2.25488 15.97V8.03003C2.25488 4.57003 4.47488 2.25 7.78488 2.25H16.2149C19.5249 2.25 21.7449 4.57003 21.7449 8.03003V15.97C21.7449 19.43 19.5249 21.75 16.2149 21.75ZM7.78488 3.75C5.33488 3.75 3.75488 5.43003 3.75488 8.03003V15.97C3.75488 18.57 5.33488 20.25 7.78488 20.25H16.2149C18.6649 20.25 20.2449 18.57 20.2449 15.97V8.03003C20.2449 5.43003 18.6649 3.75 16.2149 3.75H7.78488Z" fill="black"/>
<path d="M15.9952 17.9134C15.1252 17.9134 14.2552 17.5133 13.7352 16.8533C13.4752 16.5233 13.5352 16.0533 13.8652 15.8033C14.1952 15.5433 14.6652 15.6034 14.9152 15.9334C15.1852 16.2734 15.7252 16.4734 16.1852 16.4034C16.5152 16.3534 16.7352 16.1834 16.8452 15.8934C16.9252 15.6934 16.9052 15.5033 16.8152 15.3233C16.6952 15.0933 16.4452 14.9234 16.1652 14.8734C15.4152 14.7034 14.5352 14.5134 13.9852 13.6234C13.4852 12.8234 13.5452 11.8333 14.1452 11.1033C14.5652 10.5833 15.2252 10.2632 15.9552 10.2432C16.6552 10.2232 17.3252 10.4932 17.7652 10.9832C18.0452 11.2932 18.0152 11.7633 17.7052 12.0433C17.3952 12.3233 16.9252 12.2932 16.6452 11.9832C16.5052 11.8232 16.2552 11.7332 15.9852 11.7432C15.7052 11.7432 15.4452 11.8633 15.2952 12.0433C15.1052 12.2733 15.0852 12.5733 15.2452 12.8233C15.4552 13.1633 15.7952 13.2534 16.4252 13.3934C17.1552 13.5434 17.7752 13.9933 18.1052 14.6033C18.4152 15.1633 18.4552 15.8134 18.2252 16.4234C17.9252 17.2134 17.2552 17.7434 16.3852 17.8834C16.2452 17.9034 16.1052 17.9134 15.9652 17.9134H15.9952Z" fill="black"/>
<path d="M9.94551 17.9102C9.53551 17.9102 9.19551 17.5702 9.19551 17.1602V11.75H7.89551C7.48551 11.75 7.14551 11.41 7.14551 11C7.14551 10.59 7.48551 10.25 7.89551 10.25H12.0055C12.4155 10.25 12.7555 10.59 12.7555 11C12.7555 11.41 12.4155 11.75 12.0055 11.75H10.7055V17.1602C10.7055 17.5702 10.3655 17.9102 9.95551 17.9102H9.94551Z" fill="black"/>
</svg>