<svg width="24" height="24" viewBox="0 0 24 24" fill="none" xmlns="http://www.w3.org/2000/svg">
<path fill-rule="evenodd" clip-rule="evenodd" d="M12 3.75C7.44329 3.75 3.75 7.44329 3.75 12C3.75 16.5567 7.44329 20.25 12 20.25C16.5567 20.25 20.25 16.5567 20.25 12C20.25 7.44329 16.5567 3.75 12 3.75ZM2.25 12C2.25 6.61487 6.61487 2.25 12 2.25C17.3851 2.25 21.75 6.61487 21.75 12C21.75 17.3851 17.3851 21.75 12 21.75C6.61487 21.75 2.25 17.3851 2.25 12Z" fill="black"/>
<path fill-rule="evenodd" clip-rule="evenodd" d="M8.5 9.25C8.5 8.83579 8.83579 8.5 9.25 8.5H14.75C15.1642 8.5 15.5 8.83579 15.5 9.25V14.75C15.5 15.1642 15.1642 15.5 14.75 15.5H9.25C8.83579 15.5 8.5 15.1642 8.5 14.75V9.25ZM10 10V14H14V10H10Z" fill="black"/>
<path fill-rule="evenodd" clip-rule="evenodd" d="M2.25 12C2.25 11.5858 2.58579 11.25 3 11.25H9.25C9.66421 11.25 10 11.5858 10 12C10 12.4142 9.66421 12.75 9.25 12.75H3C2.58579 12.75 2.25 12.4142 2.25 12Z" fill="black"/>
</svg>