<svg width="25" height="25" viewBox="0 0 25 25" fill="none" xmlns="http://www.w3.org/2000/svg">
<path d="M19.7823 14.5031H4.71833C4.39744 14.5036 4.08028 14.4343 3.78882 14.3001C3.49736 14.1658 3.23855 13.9698 3.03034 13.7257C2.82213 13.4815 2.66946 13.195 2.58295 12.886C2.49644 12.577 2.47814 12.2529 2.5293 11.9361C2.83227 9.57207 3.98638 7.39946 5.77558 5.82492C7.56478 4.25038 9.86646 3.38184 12.2498 3.38184C14.6332 3.38184 16.9349 4.25038 18.7241 5.82492C20.5133 7.39946 21.6673 9.57207 21.9703 11.9361C22.0225 12.2508 22.0056 12.5731 21.9208 12.8806C21.8361 13.1882 21.6854 13.4736 21.4793 13.7171C21.2706 13.9636 21.0107 14.1617 20.7176 14.2974C20.4245 14.4332 20.1053 14.5033 19.7823 14.5031ZM12.2503 4.85309C10.2305 4.89912 8.2929 5.66155 6.78333 7.00424C5.27376 8.34693 4.29053 10.1825 4.00928 12.1831C3.99284 12.283 3.99859 12.3853 4.02607 12.4828C4.05354 12.5802 4.10213 12.6705 4.16834 12.7471C4.23582 12.8273 4.31998 12.8917 4.41498 12.9359C4.50999 12.9802 4.61353 13.0031 4.71833 13.0031H19.7823C19.8872 13.0031 19.9909 12.9802 20.0861 12.936C20.1812 12.8917 20.2656 12.8273 20.3333 12.7471C20.3995 12.6705 20.448 12.5802 20.4753 12.4827C20.5027 12.3853 20.5081 12.2829 20.4913 12.1831C20.2101 10.1825 19.2269 8.34693 17.7173 7.00424C16.2077 5.66155 14.2701 4.89912 12.2503 4.85309V4.85309Z" fill="black"/>
<path d="M14.232 21.8659C13.508 21.8648 12.814 21.5768 12.3021 21.0648C11.7901 20.5529 11.502 19.8589 11.501 19.1349V13.7549C11.501 13.556 11.58 13.3652 11.7206 13.2245C11.8613 13.0839 12.0521 13.0049 12.251 13.0049C12.4499 13.0049 12.6407 13.0839 12.7813 13.2245C12.922 13.3652 13.001 13.556 13.001 13.7549V19.1349C13.001 19.4614 13.1307 19.7745 13.3615 20.0053C13.5924 20.2362 13.9055 20.3659 14.232 20.3659C14.5585 20.3659 14.8716 20.2362 15.1024 20.0053C15.3333 19.7745 15.463 19.4614 15.463 19.1349C15.463 18.936 15.542 18.7452 15.6826 18.6046C15.8233 18.4639 16.014 18.3849 16.213 18.3849C16.4119 18.3849 16.6026 18.4639 16.7433 18.6046C16.8839 18.7452 16.963 18.936 16.963 19.1349C16.9622 19.859 16.6742 20.5531 16.1622 21.0651C15.6502 21.5771 14.9561 21.8651 14.232 21.8659V21.8659Z" fill="black"/>
</svg>