<svg width="24" height="25" viewBox="0 0 24 25" fill="none" xmlns="http://www.w3.org/2000/svg">
<path fill-rule="evenodd" clip-rule="evenodd" d="M15.9617 18.1056C15.5477 18.1056 15.2117 18.4416 15.2117 18.8556C15.2117 19.5336 14.6597 20.0856 13.9817 20.0856C13.3027 20.0856 12.7497 19.5336 12.7497 18.8556V14.1756C12.7497 14.0651 12.8392 13.9756 12.9497 13.9756H14.7783C14.8893 13.9756 14.9791 13.8837 14.9772 13.7727C14.8951 9.12367 13.127 6.29617 12.1483 5.08636C12.071 4.99086 11.9283 4.99083 11.851 5.0863C10.8729 6.29457 9.10327 9.1221 9.02117 13.7727C9.01921 13.8837 9.10907 13.9756 9.22008 13.9756H11.0497C11.1601 13.9756 11.2497 14.0651 11.2497 14.1756V18.8556C11.2497 20.3606 12.4757 21.5856 13.9817 21.5856C15.4867 21.5856 16.7117 20.3606 16.7117 18.8556C16.7117 18.4416 16.3757 18.1056 15.9617 18.1056Z" fill="black"/>
<path fill-rule="evenodd" clip-rule="evenodd" d="M11.0133 3.75176C11.1401 3.61283 11.0326 3.38275 10.846 3.4062C6.68185 3.92967 3.27094 7.24855 2.52602 11.6942C2.43202 12.2602 2.59302 12.8372 2.96602 13.2782C3.34202 13.7212 3.88902 13.9752 4.46802 13.9752H7.31824C7.42822 13.9752 7.51748 13.8842 7.51921 13.7743C7.60795 8.11207 9.96037 4.90576 11.0133 3.75176Z" fill="black"/>
<path fill-rule="evenodd" clip-rule="evenodd" d="M21.4734 11.6935C20.7284 7.2499 17.3176 3.93114 13.1536 3.40672C12.9669 3.38321 12.8594 3.61334 12.9862 3.75229C14.039 4.90644 16.3906 8.11272 16.4801 13.7747C16.4819 13.8846 16.5711 13.9755 16.6811 13.9755H19.5324C20.1114 13.9755 20.6594 13.7205 21.0354 13.2765C21.4084 12.8365 21.5684 12.2595 21.4734 11.6935Z" fill="black"/>
</svg>