<svg width="24" height="25" viewBox="0 0 24 25" fill="none" xmlns="http://www.w3.org/2000/svg">
<path fill-rule="evenodd" clip-rule="evenodd" d="M19.5318 14.1441C20.1108 14.1441 20.6588 13.8901 21.0348 13.4461C21.4078 13.0051 21.5678 12.4281 21.4738 11.8621C20.6608 7.01314 16.6768 3.49414 11.9998 3.49414C7.32277 3.49414 3.33877 7.01314 2.52577 11.8631C2.43277 12.4291 2.59277 13.0061 2.96577 13.4471C3.34177 13.8901 3.88977 14.1441 4.46777 14.1441H19.5318Z" fill="black" fill-opacity="0.4"/>
<path fill-rule="evenodd" clip-rule="evenodd" d="M11.2499 14.1445V19.0245C11.2499 20.5305 12.4759 21.7545 13.9809 21.7545C15.4869 21.7545 16.7119 20.5305 16.7119 19.0245C16.7119 18.6105 16.3759 18.2745 15.9619 18.2745C15.5479 18.2745 15.2119 18.6105 15.2119 19.0245C15.2119 19.7035 14.6599 20.2545 13.9809 20.2545C13.3029 20.2545 12.7499 19.7035 12.7499 19.0245V14.1445H11.2499Z" fill="black"/>
</svg>