<svg width="24" height="24" viewBox="0 0 24 24" fill="none" xmlns="http://www.w3.org/2000/svg">
<path fill-rule="evenodd" clip-rule="evenodd" d="M18 18H6C5.447 18 5 18.447 5 19C5 19.553 5.447 20 6 20H18C18.553 20 19 19.553 19 19C19 18.447 18.553 18 18 18Z" fill="black"/>
<path fill-rule="evenodd" clip-rule="evenodd" d="M12 16C14.757 16 17 13.757 17 11V5C17 4.447 16.553 4 16 4C15.447 4 15 4.447 15 5V11C15 12.654 13.654 14 12 14C10.346 14 9 12.654 9 11V5C9 4.447 8.553 4 8 4C7.447 4 7 4.447 7 5V11C7 13.757 9.243 16 12 16Z" fill="black"/>
</svg>