<svg width="24" height="24" viewBox="0 0 24 24" fill="none" xmlns="http://www.w3.org/2000/svg">
<path fill-rule="evenodd" clip-rule="evenodd" d="M4.31099 15.6837C4.29499 15.6747 4.28799 15.6687 4.28499 15.6677C4.28599 15.6607 4.28999 15.6507 4.31399 15.6397C4.41199 15.5957 4.50599 15.6037 4.61099 15.6687C4.71199 15.7327 4.76999 15.8537 4.77099 15.9937C4.76799 16.0607 4.74199 16.1857 4.60699 16.2767C4.53999 16.3227 4.46199 16.3247 4.39799 16.2747C4.35299 16.2417 4.34499 16.2157 4.36399 16.1657C4.37299 16.1417 4.38599 16.1187 4.39899 16.0947L4.42099 16.0547C4.50399 15.8927 4.46799 15.7717 4.31099 15.6837ZM7.48299 17.6337C7.60599 17.4817 7.67899 17.3387 7.70999 17.1867C7.75199 16.9807 7.75799 16.7657 7.72999 16.5317C7.70399 16.3087 7.59799 16.1037 7.40699 15.9037C7.25299 15.7437 7.07599 15.6147 6.90399 15.4907L6.71599 15.3517C6.02099 14.8397 5.75699 13.9207 6.08699 13.1647C6.16699 12.9797 6.25499 12.7977 6.34499 12.6187C6.57999 12.1467 6.70499 11.6107 6.75199 10.8787C6.75899 10.7537 6.78199 10.6297 6.80899 10.4917C6.83599 10.3427 6.90999 10.2237 7.03299 10.1257C7.13999 10.0427 7.27199 10.0137 7.41099 9.9897L7.55799 9.9637C7.72399 9.9347 7.88999 9.9067 8.05299 9.8657C8.40999 9.7767 8.71799 9.5957 8.96999 9.3297C9.16599 9.1217 9.27499 8.9017 9.30299 8.6527C9.31299 8.5567 9.31499 8.4217 9.31599 8.3017L9.31699 8.1697C9.31999 8.0927 9.27199 8.0247 9.24299 7.9927C9.16699 7.9037 9.08899 7.8177 9.01099 7.7317L8.96199 7.6767C7.63999 6.2187 3.47899 1.9227 3.43699 1.8797C3.39199 1.8327 3.31499 1.8287 3.26599 1.8717C3.21499 1.9147 3.20699 1.9907 3.24799 2.0427C3.25999 2.0587 4.45699 3.6207 6.08299 5.6107C6.57299 6.2087 7.05999 6.8107 7.54699 7.4117L8.22499 8.2477C8.26299 8.2937 8.30099 8.3417 8.32999 8.3927C8.39099 8.4967 8.37899 8.5887 8.29699 8.6657C8.22199 8.7367 8.14999 8.7867 8.08299 8.8127C7.94699 8.8677 7.79399 8.9127 7.62899 8.9487C7.56999 8.9607 7.49099 8.9567 7.40499 8.9407C7.22699 8.9027 7.08499 8.8107 6.98599 8.6667L6.83499 8.4497C6.64999 8.1807 6.46399 7.9127 6.28699 7.6407C5.79499 6.8857 5.30699 6.1287 4.81799 5.3717L4.04599 4.1817C4.01199 4.1317 3.94999 4.1117 3.89499 4.1337C3.83999 4.1567 3.80799 4.2137 3.81799 4.2727C3.83099 4.3417 3.85799 4.3977 3.88599 4.4467L4.47799 5.5087C4.89599 6.2587 5.31399 7.0097 5.72999 7.7617C5.85299 7.9837 5.97099 8.2077 6.08799 8.4337C6.16799 8.5877 6.24899 8.7427 6.33199 8.8967C6.38099 8.9877 6.37199 9.0677 6.30299 9.1627C6.25699 9.2277 6.20599 9.2877 6.15399 9.3467C5.98699 9.5347 5.85899 9.7517 5.77399 9.9957C5.65999 10.3257 5.60699 10.6697 5.57099 10.9637C5.51199 11.4387 5.39399 11.8517 5.20799 12.2277C5.04799 12.5507 4.83699 12.8817 4.56299 13.2397C4.37999 13.4787 4.19199 13.7147 4.00499 13.9527L3.83799 14.1627C3.68999 14.3497 3.56099 14.5627 3.43499 14.8327C3.28099 15.1577 3.25499 15.4977 3.24199 15.7917C3.22299 16.2187 3.30299 16.6497 3.49299 17.1457C3.59499 17.4137 3.74599 17.6547 3.89099 17.8877L3.96199 18.0017C4.09299 18.2127 4.21199 18.4307 4.33199 18.6487L4.35299 18.6877C4.37399 18.7267 4.38599 18.7787 4.39799 18.8347C4.41899 18.9247 4.45799 19.0147 4.58399 19.0147C4.60299 19.0147 4.62399 19.0117 4.64799 19.0077L4.68399 19.0007C4.82099 18.9757 4.95799 18.9507 5.09299 18.9157C5.68999 18.7697 6.19199 18.5797 6.62599 18.3347C6.98999 18.1297 7.26999 17.9007 7.48299 17.6337Z" fill="black"/>
<path fill-rule="evenodd" clip-rule="evenodd" d="M20.7109 13.0332C20.5619 12.1312 20.1149 11.3942 19.3829 10.8462C18.9719 10.5382 18.4859 10.3052 17.8979 10.1332C17.3849 9.98424 16.8549 9.90524 16.3419 9.82824L16.2439 9.81224C15.8309 9.75024 15.4039 9.68424 14.9919 9.58924C14.4689 9.46824 14.0809 9.28224 13.7689 9.00524C13.7519 8.98924 13.7319 8.97624 13.6819 8.94424C13.6459 8.92124 13.5979 8.92924 13.5589 8.94824C13.5189 8.96724 13.4909 9.01624 13.4859 9.05924C13.4829 9.08224 13.4819 9.09924 13.4819 9.11524L13.4809 9.22024C13.4789 9.33024 13.4769 9.43924 13.4809 9.54924C13.4979 10.1562 13.7179 10.6892 14.1359 11.1322C14.3769 11.3862 14.6659 11.6112 15.0469 11.8422C15.6049 12.1782 16.1949 12.4312 16.7499 12.6572L16.7799 12.6692C17.3239 12.8892 17.8859 13.1182 18.4179 13.3852C18.6809 13.5172 19.0209 13.7012 19.3149 13.9532C19.7509 14.3262 19.9749 14.7582 19.9989 15.2722C19.9999 15.3002 20.0059 15.3272 20.0149 15.3602L20.0239 15.3992C20.0339 15.4472 20.0709 15.4842 20.1179 15.4952C20.1279 15.4972 20.1369 15.4982 20.1459 15.4982C20.1839 15.4982 20.2209 15.4802 20.2449 15.4502L20.2659 15.4232C20.2799 15.4062 20.2939 15.3892 20.3049 15.3692C20.4849 15.0342 20.5959 14.7512 20.6539 14.4762C20.6889 14.3122 20.7119 14.1312 20.7269 13.9072C20.7449 13.6412 20.7599 13.3342 20.7109 13.0332Z" fill="black"/>
<path fill-rule="evenodd" clip-rule="evenodd" d="M8.50922 4.26875C8.86322 4.31875 9.19722 4.40775 9.50322 4.53375C9.96922 4.72575 10.4092 5.02975 10.8472 5.46275C11.2462 5.85775 11.5902 6.30075 11.9072 6.71975C12.2842 7.21675 12.7112 7.78075 13.2252 8.26475C13.4282 8.45775 13.6492 8.61675 13.8782 8.73475C14.3432 8.97575 14.8472 9.13775 15.4212 9.23075C15.8932 9.30775 16.3512 9.33775 16.8992 9.37075C17.2632 9.39175 17.5902 9.41475 17.9132 9.47175C18.1582 9.51575 18.3632 9.58575 18.5372 9.68575C18.7752 9.82275 18.9732 10.0138 19.1432 10.2708L19.2372 10.4058C19.2592 10.4388 19.3012 10.4538 19.3442 10.4538C19.3672 10.4538 19.3912 10.4498 19.4102 10.4398C19.4552 10.4188 19.4832 10.3438 19.4832 10.2948C19.4822 10.2657 19.4822 10.2378 19.4762 10.2078L19.4562 10.0998C19.4382 9.99775 19.4202 9.89475 19.3902 9.79675C19.1732 9.08175 18.7992 8.43775 18.2452 7.82575C18.2362 7.81575 18.2252 7.80675 18.1962 7.78475C18.1632 7.75775 18.1152 7.76375 18.0752 7.77575C18.0352 7.78875 18.0002 7.83375 17.9892 7.87475L17.9332 8.08175C17.9082 8.17875 17.8822 8.27675 17.8512 8.37275C17.7892 8.57175 17.7062 8.73475 17.5982 8.87275C17.5372 8.95075 17.4842 8.99775 17.4252 9.02775C17.3712 9.05475 17.3092 9.05775 17.2522 9.03775C17.1932 9.01575 17.1462 8.97075 17.1212 8.91475C17.0902 8.84175 17.0922 8.77875 17.1362 8.68675C17.1942 8.56775 17.2522 8.44475 17.2852 8.31075C17.3942 7.86575 17.3312 7.43475 17.2562 7.07175C17.2312 6.95375 17.1682 6.86475 17.0682 6.80875C16.9932 6.76575 16.9202 6.72275 16.8462 6.67975C16.6922 6.58875 16.5332 6.49575 16.3682 6.41475C15.5582 6.01975 14.6682 5.82175 13.6482 5.80775C13.2232 5.80075 12.7712 5.84275 12.2592 5.93375C12.2272 5.93975 12.2272 5.93975 12.2072 5.91475C11.8792 5.52175 11.5202 5.16675 11.1412 4.86375C10.4012 4.26975 9.55422 3.96875 8.62422 3.96875C8.56322 3.96975 8.50122 3.97275 8.44122 3.97975L8.40022 3.98475C8.34522 3.98975 8.30122 4.03075 8.29022 4.08375C8.27922 4.13775 8.30522 4.19275 8.35322 4.21875C8.39922 4.24375 8.44822 4.25875 8.50922 4.26875Z" fill="black"/>
<path fill-rule="evenodd" clip-rule="evenodd" d="M19.121 14.5879C18.79 14.2729 18.404 13.9869 17.972 13.7389C17.535 13.4879 17.097 13.2399 16.658 12.9919L16.189 12.7269C16.143 12.6989 16.066 12.6579 15.983 12.6869C15.901 12.7169 15.871 12.7979 15.85 12.8589C15.843 12.8769 15.837 12.8959 15.834 12.9129L15.809 13.0559C15.788 13.1749 15.767 13.2949 15.759 13.4149C15.734 13.7829 15.796 14.1669 15.949 14.5879C16.09 14.9739 16.303 15.3169 16.493 15.6039C16.604 15.7719 16.717 15.9399 16.83 16.1079C16.975 16.3219 17.12 16.5369 17.262 16.7529C17.435 17.0179 17.657 17.3689 17.834 17.7459C17.977 18.0529 18.059 18.3489 18.086 18.6489C18.121 19.0479 18.046 19.4339 17.855 19.8279C17.833 19.8729 17.813 19.9179 17.791 19.9689L17.751 20.0579C17.731 20.1039 17.739 20.1559 17.772 20.1929C17.796 20.2199 17.83 20.2339 17.865 20.2339C17.878 20.2339 17.892 20.2329 17.905 20.2279L17.939 20.2169C17.965 20.2089 17.981 20.2029 17.996 20.1949L18.07 20.1569C18.13 20.1269 18.189 20.0969 18.246 20.0639C19.107 19.5639 19.676 18.7819 19.937 17.7399C20.02 17.4089 20.022 17.0739 20.023 16.7499C20.026 16.2389 19.89 15.7299 19.621 15.2339C19.494 15.0009 19.326 14.7829 19.121 14.5879Z" fill="black"/>
<path fill-rule="evenodd" clip-rule="evenodd" d="M16.2695 21.1378L16.0175 21.2238C15.6505 21.3498 15.3135 21.3838 14.9925 21.3328C14.7275 21.2878 14.5275 21.1658 14.3825 20.9588C14.2615 20.7838 14.1795 20.6058 14.1405 20.4268C14.0925 20.2048 14.0555 19.9818 14.0185 19.7578L13.9995 19.6458C13.9525 19.3568 13.9025 19.0578 13.8175 18.7678C13.6185 18.0888 13.2545 17.6058 12.7065 17.2888C12.2735 17.0378 11.8355 16.8988 11.3685 16.8628C10.8175 16.8218 10.3655 16.8508 9.94354 16.9588C9.01754 17.1968 8.14354 17.6498 7.34654 18.3058C7.28654 18.3558 7.22954 18.4108 7.16954 18.4698L7.09354 18.5438C7.06354 18.5738 7.06154 18.6188 7.06754 18.6598C7.07454 18.6998 7.11154 18.7408 7.14854 18.7578C7.15954 18.7628 7.19354 18.7758 7.20454 18.7778L7.73854 18.8668C8.33754 18.9658 8.88854 19.2458 9.32954 19.6788L9.42054 19.7688C9.49154 19.8378 9.56154 19.9078 9.63154 19.9768L9.70054 20.0458C9.83754 20.1868 9.98054 20.3308 10.1535 20.4458C10.5525 20.7068 10.9535 20.7858 11.3505 20.6888C11.8245 20.5688 12.1235 20.2608 12.2145 19.7988C12.2455 19.6468 12.2445 19.4798 12.2105 19.2868C12.1805 19.1128 12.1005 18.9638 11.9715 18.8478C11.7035 18.6008 11.3925 18.5108 11.0435 18.5868C10.7415 18.6508 10.5195 18.9038 10.5015 19.2018C10.4905 19.3968 10.5895 19.5648 10.7715 19.6608C10.8295 19.6918 10.9035 19.6718 10.9375 19.6148C10.9725 19.5578 10.9555 19.4838 10.8995 19.4468C10.8345 19.4038 10.8065 19.3538 10.8055 19.2788C10.8025 19.1178 10.8935 19.0018 11.0545 18.9598C11.2155 18.9168 11.3765 18.9528 11.5545 19.0738C11.6505 19.1388 11.7065 19.2258 11.7235 19.3388C11.7395 19.4458 11.7355 19.5368 11.7105 19.6218C11.6305 19.9028 11.3815 20.0808 11.1025 20.0648C10.8955 20.0488 10.7025 19.9648 10.5275 19.8158C10.3575 19.6698 10.2755 19.4888 10.2745 19.2608C10.2745 18.9398 10.4665 18.6608 10.7755 18.5338C11.0405 18.4238 11.3235 18.4158 11.6155 18.5098C12.0165 18.6378 12.3395 18.8878 12.5755 19.2528C12.6925 19.4328 12.7895 19.6258 12.8955 19.8418C12.9785 20.0128 13.0575 20.1868 13.1355 20.3598L13.2695 20.6538C13.3805 20.8918 13.5255 21.1118 13.7005 21.3058C14.0675 21.7118 14.4995 21.9148 14.9925 21.9148C15.1585 21.9148 15.3315 21.8928 15.5105 21.8458C15.8605 21.7538 16.1555 21.5518 16.3725 21.3888C16.4115 21.3598 16.4215 21.3208 16.4285 21.2978C16.4445 21.2518 16.4335 21.2018 16.3985 21.1678C16.3665 21.1338 16.3145 21.1218 16.2695 21.1378Z" fill="black"/>
<path fill-rule="evenodd" clip-rule="evenodd" d="M9.85488 8.28427C10.0529 8.40227 10.2389 8.47427 10.4249 8.50527C10.4749 8.51327 10.5269 8.51927 10.5799 8.51927C10.6389 8.51927 10.6999 8.51227 10.7619 8.48927C10.8909 8.44327 10.9439 8.34327 10.9079 8.21527C10.8929 8.15927 10.8649 8.11127 10.8299 8.05327L10.7169 7.86527C10.6399 7.73927 10.5629 7.61327 10.4919 7.48327C10.4379 7.38327 10.3929 7.27027 10.3579 7.15027C10.3019 6.95227 10.2579 6.75027 10.2139 6.54827C10.1779 6.38727 10.1419 6.22527 10.0979 6.06627C9.89888 5.34527 9.34788 4.77427 8.66088 4.57727L8.58688 4.55627C8.54188 4.54527 8.49588 4.53727 8.44688 4.52927L8.37688 4.51627C8.34288 4.51327 8.30988 4.51727 8.28188 4.53727C8.25388 4.55627 8.23588 4.58727 8.22988 4.62027C8.18788 4.88927 8.18088 5.14527 8.20588 5.40227C8.26488 5.99527 8.44088 6.56727 8.73088 7.10327C9.00188 7.60527 9.38088 8.00327 9.85488 8.28427Z" fill="black"/>
<path fill-rule="evenodd" clip-rule="evenodd" d="M14.0473 14.9484C13.6813 15.1604 13.2743 15.2524 12.9233 15.3144C12.4933 15.3904 12.0623 15.4694 11.6323 15.5534C11.1263 15.6534 10.6423 15.8504 10.1523 16.1574C10.1303 16.1714 10.1083 16.1874 10.0863 16.2034L10.0543 16.2254C10.0183 16.2504 9.99728 16.2924 10.0003 16.3354C10.0033 16.3794 10.0273 16.4184 10.0663 16.4384C10.0973 16.4554 10.1273 16.4634 10.1583 16.4634C10.1773 16.4634 10.1973 16.4604 10.2163 16.4534L10.3603 16.4074C10.4463 16.3804 10.5323 16.3514 10.6203 16.3284C11.1073 16.1954 11.6073 16.1504 12.1193 16.1124L12.3763 16.0944C12.6353 16.0754 12.8943 16.0564 13.1533 16.0314C13.5413 15.9954 13.9023 15.9014 14.2283 15.7554C14.8833 15.4584 15.3243 14.9744 15.5393 14.3184C15.5703 14.2234 15.5893 14.1174 15.5963 13.9944C15.6053 13.8324 15.6053 13.6704 15.6013 13.5004C15.5983 13.3954 15.5963 13.2874 15.5673 13.1804C15.4843 12.8794 15.3653 12.6254 15.2043 12.4044C15.1753 12.3654 15.1443 12.3274 15.1133 12.2904L15.0733 12.2414C15.0343 12.1914 14.9503 12.1884 14.8983 12.2204C14.8563 12.2464 14.8343 12.3084 14.8403 12.3574C14.8413 12.3674 14.8483 12.3994 14.8513 12.4084C14.9113 12.5704 14.9553 12.7504 14.9893 12.9724C15.0433 13.3274 15.0183 13.6444 14.9133 13.9434C14.7643 14.3674 14.4813 14.6964 14.0473 14.9484Z" fill="black"/>
<path fill-rule="evenodd" clip-rule="evenodd" d="M10.2768 10.4661C10.2748 10.5081 10.2468 10.5491 10.1968 10.5801C9.99877 10.7081 9.81677 10.7111 9.63677 10.5891C9.57777 10.5491 9.54477 10.5031 9.54477 10.4601C9.54377 10.4151 9.57677 10.3661 9.63677 10.3221C9.70977 10.2711 9.79777 10.2441 9.90577 10.2381C10.0268 10.2421 10.1238 10.2751 10.2028 10.3361C10.2528 10.3761 10.2788 10.4221 10.2768 10.4661ZM10.8018 11.2661C10.9608 11.1021 11.0128 10.8991 10.9518 10.6791C10.9278 10.5961 10.8978 10.5221 10.8608 10.4571C10.6408 10.0751 10.3028 9.87806 9.85577 9.87006C9.71977 9.86506 9.55977 9.87806 9.40577 9.97006C9.02077 10.2001 8.81977 10.5341 8.81177 10.9801L8.83577 11.1931C8.86177 11.4351 9.05977 11.6281 9.31577 11.6631C9.41377 11.6761 9.51077 11.6831 9.60677 11.6831C9.88877 11.6831 10.1618 11.6271 10.4228 11.5181C10.5748 11.4541 10.6988 11.3721 10.8018 11.2661Z" fill="black"/>
<path fill-rule="evenodd" clip-rule="evenodd" d="M15.8769 5.81158L16.0969 5.91858C16.2519 5.99558 16.4079 6.07158 16.5609 6.15058C16.7779 6.26558 16.9439 6.37258 17.0809 6.48658C17.2299 6.61158 17.3229 6.75058 17.3679 6.91358C17.3959 7.01158 17.4219 7.11758 17.4259 7.21658C17.4399 7.57758 17.4459 7.90358 17.4429 8.21558C17.4419 8.27458 17.4249 8.33858 17.4069 8.40758C17.3979 8.43858 17.3909 8.46858 17.3829 8.49958C17.3789 8.51758 17.3719 8.53558 17.3649 8.55158C17.3649 8.55258 17.3529 8.58258 17.3529 8.58358C17.3339 8.63458 17.3509 8.69258 17.3939 8.72558C17.4169 8.74358 17.4429 8.75158 17.4699 8.75158C17.4949 8.75158 17.5199 8.74458 17.5419 8.72958C17.5959 8.69158 17.6259 8.64458 17.6489 8.59858C17.7899 8.32058 17.8669 8.00858 17.8879 7.64758C17.8929 7.55158 17.8959 7.45658 17.8989 7.36058C17.9009 7.27658 17.9039 7.19358 17.9079 7.10958C17.9099 7.07658 17.9159 7.04458 17.9289 7.01258C17.9789 7.04058 18.0279 7.06858 18.0719 7.10358C18.2459 7.24358 18.4199 7.38458 18.5929 7.52658L18.9059 7.78058C18.9489 7.81858 19.0139 7.81958 19.0599 7.78558C19.1059 7.75058 19.1239 7.68958 19.1009 7.63658C19.0749 7.57558 19.0389 7.51858 18.9899 7.46358L18.1839 6.58058C18.0899 6.47858 17.9969 6.37658 17.9069 6.27258C17.8249 6.17558 17.7699 6.05958 17.7379 5.90258C17.7139 5.78458 17.6899 5.66558 17.6759 5.54558C17.6409 5.25958 17.6219 4.92258 17.7519 4.59358C17.7589 4.57358 17.7619 4.55558 17.7639 4.53958C17.7759 4.48058 17.7449 4.42058 17.6889 4.39858C17.6329 4.37258 17.5689 4.39358 17.5369 4.44658C17.4479 4.58258 17.3799 4.73858 17.3339 4.90658C17.2629 5.16358 17.2409 5.42558 17.2269 5.67058C17.2219 5.76358 17.2149 5.85758 17.1999 5.94858C17.1159 5.92258 17.0319 5.89658 16.9509 5.86358C16.6269 5.73058 16.3009 5.62158 15.9819 5.53958L15.8499 5.50758C15.7959 5.49758 15.7389 5.52158 15.7119 5.57058C15.6859 5.62058 15.6949 5.68158 15.7359 5.71958C15.7829 5.76558 15.8349 5.79058 15.8769 5.81158Z" fill="black"/>
</svg>