<svg width="25" height="24" viewBox="0 0 25 24" fill="none" xmlns="http://www.w3.org/2000/svg">
<path fill-rule="evenodd" clip-rule="evenodd" d="M11.9186 2.48611C12.4065 2.1713 13.0349 2.1713 13.5228 2.48611L21.7235 7.77963C22.1429 8.05209 22.3984 8.51899 22.3984 9.02226V9.59715C22.3984 10.4143 21.7353 11.0762 20.9184 11.0762H4.52297C3.70611 11.0762 3.04297 10.4143 3.04297 9.59715V9.02226C3.04297 8.51863 3.29886 8.05119 3.72024 7.77876L11.9186 2.48611ZM12.7207 3.75369L4.54297 9.03305V9.57618H20.8984V9.03242L12.7207 3.75369Z" fill="black"/>
<path fill-rule="evenodd" clip-rule="evenodd" d="M12.7207 6.51562C13.1349 6.51562 13.4707 6.85141 13.4707 7.26562V7.27562C13.4707 7.68984 13.1349 8.02562 12.7207 8.02562C12.3065 8.02562 11.9707 7.68984 11.9707 7.27562V7.26562C11.9707 6.85141 12.3065 6.51562 12.7207 6.51562Z" fill="black"/>
<path fill-rule="evenodd" clip-rule="evenodd" d="M3.41965 18.4617C3.54684 17.8839 4.0592 17.4727 4.65039 17.4727H20.7909C21.3822 17.4727 21.8946 17.8841 22.0217 18.462L22.4084 20.2174C22.5805 21.0011 21.9855 21.7482 21.1787 21.7482H4.26357C3.45873 21.7482 2.86023 21.0037 3.03271 20.2179L3.41965 18.4617C3.41963 18.4618 3.41967 18.4616 3.41965 18.4617ZM4.84305 18.9727L4.56202 20.2482H20.8792L20.5982 18.9727H4.84305ZM20.5567 18.7844C20.5568 18.7846 20.5567 18.7842 20.5567 18.7844V18.7844Z" fill="black"/>
<path fill-rule="evenodd" clip-rule="evenodd" d="M5.94727 9.57422C6.36148 9.57422 6.69727 9.91001 6.69727 10.3242V18.2234C6.69727 18.6376 6.36148 18.9734 5.94727 18.9734C5.53305 18.9734 5.19727 18.6376 5.19727 18.2234V10.3242C5.19727 9.91001 5.53305 9.57422 5.94727 9.57422ZM10.4613 9.57422C10.8755 9.57422 11.2113 9.91001 11.2113 10.3242V18.2234C11.2113 18.6376 10.8755 18.9734 10.4613 18.9734C10.0471 18.9734 9.7113 18.6376 9.7113 18.2234V10.3242C9.7113 9.91001 10.0471 9.57422 10.4613 9.57422ZM14.9772 9.57422C15.3914 9.57422 15.7272 9.91001 15.7272 10.3242V18.2234C15.7272 18.6376 15.3914 18.9734 14.9772 18.9734C14.563 18.9734 14.2272 18.6376 14.2272 18.2234V10.3242C14.2272 9.91001 14.563 9.57422 14.9772 9.57422ZM19.4913 9.57422C19.9055 9.57422 20.2413 9.91001 20.2413 10.3242V18.2234C20.2413 18.6376 19.9055 18.9734 19.4913 18.9734C19.077 18.9734 18.7413 18.6376 18.7413 18.2234V10.3242C18.7413 9.91001 19.077 9.57422 19.4913 9.57422Z" fill="black"/>
</svg>