<svg width="24" height="24" viewBox="0 0 24 24" fill="none" xmlns="http://www.w3.org/2000/svg">
<path fill-rule="evenodd" clip-rule="evenodd" d="M14.5807 14.4832H9.41775C9.00375 14.4832 8.66775 14.1472 8.66775 13.7332C8.66775 13.3192 9.00375 12.9832 9.41775 12.9832H14.5807C14.9948 12.9832 15.3307 13.3192 15.3307 13.7332C15.3307 14.1472 14.9948 14.4832 14.5807 14.4832ZM14.5807 17.7942H9.41775C9.00375 17.7942 8.66775 17.4582 8.66775 17.0442C8.66775 16.6292 9.00375 16.2942 9.41775 16.2942H14.5807C14.9948 16.2942 15.3307 16.6292 15.3307 17.0442C15.3307 17.4582 14.9948 17.7942 14.5807 17.7942ZM19.5597 11.0952C19.2137 10.3782 18.6298 9.79617 17.9237 9.46317C17.2037 9.11317 16.3658 9.11317 14.6958 9.11317H9.30375C8.93375 9.11317 8.60975 9.11317 8.31375 9.11717V7.50717C8.32375 5.95517 9.31875 4.56617 10.7898 4.05017C11.7228 3.72517 12.7228 3.78117 13.6088 4.21017C14.4958 4.63817 15.1627 5.38717 15.4867 6.31917C15.6227 6.71117 16.0538 6.91817 16.4408 6.78117C16.8328 6.64517 17.0398 6.21717 16.9028 5.82717C16.4478 4.51517 15.5098 3.46217 14.2618 2.85917C13.0138 2.25517 11.6038 2.17517 10.2948 2.63417C8.22675 3.35917 6.82775 5.31317 6.81375 7.50317V9.22817C6.54475 9.28017 6.30475 9.35217 6.08075 9.46117C5.36975 9.79617 4.78575 10.3782 4.43775 11.0982C4.09375 11.8202 4.09375 12.6572 4.09375 14.3232V16.4532C4.09375 18.1192 4.09375 18.9562 4.43875 19.6812C4.78375 20.3922 5.36375 20.9752 6.08175 21.3252C6.79975 21.6632 7.63675 21.6632 9.30375 21.6632H14.6958C16.3628 21.6632 17.1997 21.6632 17.9248 21.3222C18.6358 20.9752 19.2157 20.3922 19.5608 19.6782C19.9058 18.9562 19.9058 18.1192 19.9058 16.4532V14.3232C19.9058 12.6572 19.9057 11.8202 19.5597 11.0952Z" fill="black"/>
</svg>