<svg width="25" height="25" viewBox="0 0 25 25" fill="none" xmlns="http://www.w3.org/2000/svg">
<path opacity="0.4" d="M9.18664 9.20263C9.2273 9.19669 9.26805 9.19113 9.30888 9.186C9.45426 9.16772 9.64701 9.14186 9.87923 9.10964C10.5921 9.03129 11.3806 8.99414 12.2501 8.99414C18.2741 8.99414 20.4101 10.7661 20.4101 15.7651C20.4101 20.7651 18.2741 22.5371 12.2501 22.5371C6.22609 22.5371 4.09009 20.7651 4.09009 15.7651C4.09009 13.0646 4.7166 11.3084 6.23942 10.2632C6.63855 10.0178 7.65058 9.51001 8.79749 9.27172C8.92429 9.24696 9.05399 9.22395 9.18664 9.20263Z" fill="black"/>
<path d="M12.2502 17.7972C12.6642 17.7972 13.0002 17.4612 13.0002 17.0472V14.8262C13.0002 14.4122 12.6642 14.0762 12.2502 14.0762C11.8362 14.0762 11.5002 14.4122 11.5002 14.8262V17.0472C11.5002 17.4612 11.8362 17.7972 12.2502 17.7972Z" fill="black"/>
<path d="M8.43872 9.36035V7.91701C8.47272 5.84201 10.1237 4.19601 12.1987 4.17101H12.2467C13.9137 4.17101 15.4127 5.27801 15.9027 6.87801C16.0237 7.27401 16.4397 7.49901 16.8397 7.37501C17.2347 7.25401 17.4587 6.83501 17.3367 6.43901C16.6477 4.19101 14.4857 2.65601 12.1807 2.67101C9.28772 2.70701 6.98572 5.00001 6.93872 7.90501V9.8877C7.48323 9.65426 7.94165 9.50551 8.43872 9.36035Z" fill="black"/>
</svg>