<svg width="24" height="24" viewBox="0 0 24 24" fill="none" xmlns="http://www.w3.org/2000/svg">
<path opacity="0.4" fill-rule="evenodd" clip-rule="evenodd" d="M19.9098 14.3077V16.4377C19.9098 18.0977 19.9098 18.9377 19.5598 19.6577C19.2098 20.3777 18.6298 20.9577 17.9198 21.2977C17.1998 21.6477 16.3698 21.6477 14.6998 21.6477H9.29984C7.62984 21.6477 6.79984 21.6477 6.07984 21.2977C5.36984 20.9577 4.78984 20.3777 4.43984 19.6577C4.08984 18.9377 4.08984 18.0977 4.08984 16.4377V14.3077C4.08984 12.6377 4.08984 11.7977 4.43984 11.0777C4.77984 10.3677 5.35984 9.77766 6.07984 9.43766C6.29984 9.32766 6.53984 9.25766 6.80984 9.20766C7.20984 9.13766 7.68984 9.10766 8.30984 9.10766C8.59984 9.09766 8.92984 9.09766 9.29984 9.09766H14.6998C16.3598 9.09766 17.1998 9.09766 17.9198 9.42766C18.6398 9.77766 19.2198 10.3677 19.5598 11.0777C19.9098 11.7977 19.9098 12.6377 19.9098 14.3077Z" fill="black"/>
<path d="M15.4901 6.32623C15.6201 6.71623 16.0501 6.92623 16.4401 6.78623C16.8301 6.65623 17.0401 6.22623 16.9001 5.83623C16.4501 4.52623 15.5101 3.47623 14.2601 2.87623C13.0101 2.26623 11.6001 2.18623 10.3001 2.64623C8.23006 3.36623 6.83006 5.32623 6.81006 7.51623V9.20623C7.21006 9.13623 7.69006 9.10623 8.31006 9.10623V7.51623C8.32006 5.96623 9.32006 4.57623 10.7901 4.05623C11.7201 3.73623 12.7201 3.79623 13.6101 4.22623C14.5001 4.65623 15.1601 5.39623 15.4901 6.32623Z" fill="black"/>
<path d="M9.41809 14.4805H14.5811C14.9951 14.4805 15.3311 14.1445 15.3311 13.7305C15.3311 13.3165 14.9951 12.9805 14.5811 12.9805H9.41809C9.00409 12.9805 8.66809 13.3165 8.66809 13.7305C8.66809 14.1445 9.00409 14.4805 9.41809 14.4805Z" fill="black"/>
<path d="M9.41809 17.7915H14.5811C14.9951 17.7915 15.3311 17.4555 15.3311 17.0415C15.3311 16.6265 14.9951 16.2915 14.5811 16.2915H9.41809C9.00409 16.2915 8.66809 16.6265 8.66809 17.0415C8.66809 17.4555 9.00409 17.7915 9.41809 17.7915Z" fill="black"/>
</svg>