<svg width="25" height="25" viewBox="0 0 25 25" fill="none" xmlns="http://www.w3.org/2000/svg">
<path fill-rule="evenodd" clip-rule="evenodd" d="M13.0001 17.0471C13.0001 17.4611 12.6641 17.7971 12.2501 17.7971C11.8361 17.7971 11.5001 17.4611 11.5001 17.0471V14.8261C11.5001 14.4121 11.8361 14.0761 12.2501 14.0761C12.6641 14.0761 13.0001 14.4121 13.0001 14.8261V17.0471ZM12.2501 8.99407C10.7471 8.99407 9.48609 9.10507 8.43909 9.34807V7.91707C8.47309 5.84207 10.1241 4.19607 12.1991 4.17107H12.2471C13.9141 4.17107 15.4131 5.27807 15.9031 6.87807C16.0241 7.27407 16.4401 7.49907 16.8401 7.37507C17.2351 7.25407 17.4591 6.83507 17.3371 6.43907C16.6481 4.19107 14.4861 2.65607 12.1811 2.67107C9.28809 2.70707 6.98609 5.00007 6.93909 7.90507V9.86207C4.90609 10.8311 4.09009 12.6831 4.09009 15.7651C4.09009 20.7651 6.22609 22.5371 12.2501 22.5371C18.2741 22.5371 20.4101 20.7651 20.4101 15.7651C20.4101 10.7661 18.2741 8.99407 12.2501 8.99407Z" fill="black"/>
</svg>