<svg width="25" height="25" viewBox="0 0 25 25" fill="none" xmlns="http://www.w3.org/2000/svg">
<path fill-rule="evenodd" clip-rule="evenodd" d="M7.00831 7.74407C7.02112 4.81648 9.40341 2.45443 12.3299 2.46635C13.8539 2.46682 15.2286 3.11164 16.1944 4.14085L16.7076 4.68777L15.6138 5.71418L15.1006 5.16726C14.406 4.42712 13.4214 3.96635 12.3283 3.96635H12.325C10.2268 3.95717 8.51833 5.64993 8.5083 7.74907V10.4487H7.0083L7.00831 7.74407Z" fill="black"/>
<path fill-rule="evenodd" clip-rule="evenodd" d="M12.9312 13.9189V17.6399H11.4312V13.9189H12.9312Z" fill="black"/>
<path fill-rule="evenodd" clip-rule="evenodd" d="M3.95557 22.4663L3.95557 9.09277L20.6806 9.09277L20.6806 22.4663L3.95557 22.4663ZM5.45557 20.9663L19.1806 20.9663L19.1806 10.5928L5.45557 10.5928L5.45557 20.9663Z" fill="black"/>
</svg>