<svg width="25" height="25" viewBox="0 0 25 25" fill="none" xmlns="http://www.w3.org/2000/svg">
<path d="M14.8309 18.5932H9.66797C9.46906 18.5932 9.27829 18.5141 9.13763 18.3735C8.99698 18.2328 8.91797 18.0421 8.91797 17.8432C8.91797 17.6442 8.99698 17.4535 9.13763 17.3128C9.27829 17.1722 9.46906 17.0932 9.66797 17.0932H14.8309C15.0298 17.0932 15.2206 17.1722 15.3613 17.3128C15.5019 17.4535 15.5809 17.6442 15.5809 17.8432C15.5809 18.0421 15.5019 18.2328 15.3613 18.3735C15.2206 18.5141 15.0298 18.5932 14.8309 18.5932ZM14.8309 15.2852H9.66797C9.46906 15.2852 9.27829 15.2061 9.13763 15.0655C8.99698 14.9248 8.91797 14.7341 8.91797 14.5352C8.91797 14.3362 8.99698 14.1455 9.13763 14.0048C9.27829 13.8642 9.46906 13.7852 9.66797 13.7852H14.8309C15.0298 13.7852 15.2206 13.8642 15.3613 14.0048C15.5019 14.1455 15.5809 14.3362 15.5809 14.5352C15.5809 14.7341 15.5019 14.9248 15.3613 15.0655C15.2206 15.2061 15.0298 15.2852 14.8309 15.2852Z" fill="black"/>
<path d="M7.81445 11.1656C7.61554 11.1656 7.42477 11.0866 7.28412 10.9459C7.14347 10.8053 7.06445 10.6145 7.06445 10.4156V8.30459C7.07403 7.08278 7.51442 5.90355 8.30811 4.97459C9.10179 4.04563 10.1978 3.42654 11.4031 3.22637C12.6085 3.0262 13.8458 3.25779 14.8972 3.88034C15.9485 4.50289 16.7465 5.47646 17.1505 6.62958C17.2092 6.81566 17.1931 7.01733 17.1057 7.19176C17.0182 7.3662 16.8662 7.49966 16.6819 7.56382C16.4976 7.62799 16.2956 7.6178 16.1187 7.53541C15.9418 7.45303 15.8039 7.30494 15.7344 7.12259C15.4486 6.30128 14.8819 5.60734 14.1342 5.16325C13.3865 4.71916 12.506 4.55348 11.6481 4.69545C10.7901 4.83743 10.0099 5.27793 9.44513 5.9392C8.88037 6.60047 8.56738 7.43999 8.5614 8.30958V10.4156C8.5614 10.614 8.48284 10.8043 8.34283 10.9449C8.20283 11.0854 8.01285 11.1648 7.81445 11.1656Z" fill="black"/>
<path d="M14.95 22.717H9.54996C8.42535 22.8385 7.28775 22.7126 6.21696 22.348C5.44852 21.9787 4.82886 21.3587 4.46 20.59C4.09432 19.5195 3.96802 18.3817 4.09 17.257V15.126C3.9682 14.001 4.09449 12.863 4.46 11.792C4.82976 11.0243 5.4492 10.4048 6.21696 10.035C7.28774 9.67038 8.42535 9.54443 9.54996 9.66602H14.95C16.0746 9.54443 17.2122 9.67038 18.283 10.035C19.0508 10.4048 19.6702 11.0243 20.04 11.792C20.4055 12.863 20.5317 14.001 20.4099 15.126V17.257C20.5318 18.382 20.4055 19.5201 20.04 20.591C19.6708 21.3589 19.0516 21.9785 18.284 22.348C17.2128 22.7125 16.0749 22.8384 14.95 22.717ZM9.54996 11.166C8.64892 11.0748 7.7388 11.1501 6.86497 11.388C6.4045 11.61 6.03291 11.9816 5.81095 12.442C5.57391 13.3157 5.49906 14.2254 5.59 15.126V17.257C5.49917 18.158 5.57401 19.068 5.81095 19.942C6.0333 20.4026 6.40526 20.7741 6.866 20.996C7.73966 21.233 8.64931 21.3079 9.54996 21.217H14.95C15.851 21.3078 16.761 21.2329 17.635 20.996C18.0953 20.7738 18.4668 20.4023 18.689 19.942C18.9259 19.068 19.0008 18.158 18.9099 17.257V15.126C19.0009 14.2254 18.926 13.3157 18.689 12.442C18.467 11.9816 18.0954 11.61 17.635 11.388C16.7612 11.1501 15.851 11.0748 14.95 11.166H9.54996Z" fill="black"/>
</svg>