<svg width="24" height="24" viewBox="0 0 24 24" fill="none" xmlns="http://www.w3.org/2000/svg">
<path fill-rule="evenodd" clip-rule="evenodd" d="M6.76305 9.96484C5.34688 9.96484 4.19922 11.1121 4.19922 12.5277V17.6843C4.19922 19.1002 5.34716 20.2481 6.76305 20.2481H17.2367C18.6515 20.2481 19.7996 19.1003 19.7996 17.6843V12.5277C19.7996 11.112 18.6518 9.96484 17.2367 9.96484H6.76305ZM2.69922 12.5277C2.69922 10.2831 4.51902 8.46484 6.76305 8.46484H17.2367C19.4799 8.46484 21.2996 10.2832 21.2996 12.5277V17.6843C21.2996 19.9284 19.4802 21.7481 17.2367 21.7481H6.76305C4.51874 21.7481 2.69922 19.9286 2.69922 17.6843V12.5277Z" fill="black"/>
<path fill-rule="evenodd" clip-rule="evenodd" d="M7.9685 3C7.9685 2.58579 8.30429 2.25 8.7185 2.25H15.28C15.6942 2.25 16.03 2.58579 16.03 3C16.03 3.41421 15.6942 3.75 15.28 3.75H8.7185C8.30429 3.75 7.9685 3.41421 7.9685 3ZM5.43164 6.11169C5.43164 5.69748 5.76743 5.36169 6.18164 5.36169H17.817C18.2312 5.36169 18.567 5.69748 18.567 6.11169C18.567 6.52591 18.2312 6.86169 17.817 6.86169H6.18164C5.76743 6.86169 5.43164 6.52591 5.43164 6.11169Z" fill="black"/>
<path fill-rule="evenodd" clip-rule="evenodd" d="M9.85686 12.9658C10.1498 12.6729 10.6246 12.6729 10.9175 12.9658L11.9987 14.0469L13.0798 12.9658C13.3727 12.6729 13.8476 12.6729 14.1405 12.9658C14.4334 13.2587 14.4334 13.7335 14.1405 14.0264L13.0593 15.1076L14.141 16.1892C14.4338 16.4821 14.4338 16.957 14.141 17.2499C13.8481 17.5427 13.3732 17.5427 13.0803 17.2499L11.9987 16.1682L10.917 17.2499C10.6242 17.5427 10.1493 17.5427 9.85639 17.2499C9.5635 16.957 9.5635 16.4821 9.85639 16.1892L10.938 15.1076L9.85686 14.0264C9.56397 13.7335 9.56397 13.2587 9.85686 12.9658Z" fill="black"/>
</svg>