<svg width="25" height="25" viewBox="0 0 25 25" fill="none" xmlns="http://www.w3.org/2000/svg">
<path fill-rule="evenodd" clip-rule="evenodd" d="M17.3347 9.18792C17.6621 9.44161 17.7219 9.9127 17.4682 10.2401L14.723 13.7834C14.6007 13.9413 14.4204 14.0439 14.2222 14.0684C14.0239 14.0929 13.8241 14.0373 13.667 13.914L11.0626 11.8692L8.71915 14.9141C8.46652 15.2424 7.99562 15.3037 7.66736 15.051C7.33911 14.7984 7.27781 14.3275 7.53044 13.9993L10.3358 10.3542C10.4579 10.1955 10.6383 10.0923 10.8369 10.0674C11.0355 10.0425 11.2359 10.0981 11.3933 10.2217L13.9996 12.268L16.2825 9.32145C16.5362 8.99402 17.0073 8.93423 17.3347 9.18792Z" fill="black"/>
<path fill-rule="evenodd" clip-rule="evenodd" d="M12.5 3.86865C7.94335 3.86865 4.25 7.56287 4.25 12.1187C4.25 16.6754 7.94329 20.3687 12.5 20.3687C17.0567 20.3687 20.75 16.6754 20.75 12.1187C20.75 11.433 20.6665 10.7678 20.5095 10.1324C20.4101 9.73025 20.6555 9.32371 21.0576 9.22434C21.4598 9.12497 21.8663 9.3704 21.9657 9.77252C22.1516 10.5248 22.25 11.3107 22.25 12.1187C22.25 17.5038 17.8851 21.8687 12.5 21.8687C7.11487 21.8687 2.75 17.5038 2.75 12.1187C2.75 6.73455 7.11481 2.36865 12.5 2.36865C13.2707 2.36865 14.0215 2.45823 14.7421 2.62787C15.1453 2.72279 15.3952 3.12658 15.3003 3.52977C15.2054 3.93297 14.8016 4.18287 14.3984 4.08796C13.7896 3.94465 13.1542 3.86865 12.5 3.86865Z" fill="black"/>
<path fill-rule="evenodd" clip-rule="evenodd" d="M19.6982 3.86865C19.1175 3.86865 18.6465 4.33966 18.6465 4.92035C18.6465 5.50105 19.1175 5.97206 19.6982 5.97206C20.2789 5.97206 20.7499 5.50105 20.7499 4.92035C20.7499 4.33966 20.2789 3.86865 19.6982 3.86865ZM17.1465 4.92035C17.1465 3.51123 18.2891 2.36865 19.6982 2.36865C21.1073 2.36865 22.2499 3.51123 22.2499 4.92035C22.2499 6.32948 21.1073 7.47206 19.6982 7.47206C18.2891 7.47206 17.1465 6.32948 17.1465 4.92035Z" fill="black"/>
</svg>