<svg width="25" height="25" viewBox="0 0 25 25" fill="none" xmlns="http://www.w3.org/2000/svg">
<path fill-rule="evenodd" clip-rule="evenodd" d="M4.20738 4.75084C5.1543 3.72927 6.50485 3.1582 8.10289 3.1582H14.9141C15.3283 3.1582 15.6641 3.49399 15.6641 3.9082C15.6641 4.32242 15.3283 4.6582 14.9141 4.6582H8.10289C6.87716 4.6582 5.94116 5.0869 5.30747 5.77054C4.66781 6.46063 4.27979 7.47246 4.27979 8.72955V16.3048C4.27979 17.5662 4.66153 18.5752 5.2955 19.2611C5.92284 19.94 6.85718 20.3684 8.10289 20.3684H16.164C17.3897 20.3684 18.3258 19.9413 18.9594 19.2596C19.5988 18.5717 19.9871 17.5622 19.9871 16.3048V9.70798C19.9871 9.29376 20.3229 8.95798 20.7371 8.95798C21.1513 8.95798 21.4871 9.29376 21.4871 9.70798V16.3048C21.4871 17.8703 20.9998 19.2676 20.0581 20.2808C19.1106 21.3002 17.7602 21.8684 16.164 21.8684H8.10289C6.49089 21.8684 5.13868 21.3015 4.1939 20.2792C3.25574 19.2641 2.77979 17.8663 2.77979 16.3048V8.72955C2.77979 7.16481 3.26643 5.76597 4.20738 4.75084Z" fill="black"/>
<path fill-rule="evenodd" clip-rule="evenodd" d="M16.9248 9.56878C17.2522 9.82247 17.312 10.2936 17.0583 10.621L14.3131 14.1643C14.1908 14.3222 14.0105 14.4248 13.8123 14.4493C13.614 14.4738 13.4142 14.4182 13.2571 14.2948L10.6527 12.25L8.30924 15.295C8.05661 15.6232 7.58571 15.6845 7.25745 15.4319C6.9292 15.1793 6.86789 14.7084 7.12052 14.3801L9.92586 10.735C10.0479 10.5764 10.2284 10.4731 10.427 10.4483C10.6256 10.4234 10.8259 10.4789 10.9834 10.6025L13.5897 12.6489L15.8726 9.70231C16.1263 9.37488 16.5974 9.31509 16.9248 9.56878Z" fill="black"/>
<path fill-rule="evenodd" clip-rule="evenodd" d="M19.6689 3.86865C19.0882 3.86865 18.6172 4.33966 18.6172 4.92035C18.6172 5.50105 19.0882 5.97206 19.6689 5.97206C20.2496 5.97206 20.7206 5.50105 20.7206 4.92035C20.7206 4.33966 20.2496 3.86865 19.6689 3.86865ZM17.1172 4.92035C17.1172 3.51123 18.2598 2.36865 19.6689 2.36865C21.078 2.36865 22.2206 3.51123 22.2206 4.92035C22.2206 6.32948 21.078 7.47206 19.6689 7.47206C18.2598 7.47206 17.1172 6.32948 17.1172 4.92035Z" fill="black"/>
</svg>