<svg width="24" height="24" viewBox="0 0 24 24" fill="none" xmlns="http://www.w3.org/2000/svg">
<path fill-rule="evenodd" clip-rule="evenodd" d="M12.0018 16.621C11.5876 16.621 11.2518 16.2852 11.2518 15.871V9.94413L9.51251 11.6894C9.22012 11.9828 8.74525 11.9837 8.45185 11.6913C8.15845 11.3989 8.15763 10.924 8.45001 10.6306L11.4705 7.59962C11.6113 7.45836 11.8025 7.37898 12.002 7.37903C12.2014 7.37907 12.3926 7.45854 12.5333 7.59986L15.551 10.6309C15.8433 10.9244 15.8422 11.3993 15.5487 11.6915C15.2552 11.9838 14.7803 11.9827 14.488 11.6892L12.7518 9.94532V15.871C12.7518 16.2852 12.416 16.621 12.0018 16.621Z" fill="black"/>
<path fill-rule="evenodd" clip-rule="evenodd" d="M21.75 12C21.75 17.3851 17.3851 21.75 12 21.75C6.61487 21.75 2.25 17.3851 2.25 12C2.25 6.61589 6.61481 2.25 12 2.25C17.3852 2.25 21.75 6.61589 21.75 12ZM12 20.25C16.5567 20.25 20.25 16.5567 20.25 12C20.25 7.44421 16.5567 3.75 12 3.75C7.44335 3.75 3.75 7.44421 3.75 12C3.75 16.5567 7.44329 20.25 12 20.25Z" fill="black"/>
</svg>