<svg width="25" height="25" viewBox="0 0 25 25" fill="none" xmlns="http://www.w3.org/2000/svg">
<path d="M14.9141 3.9082H8.10289C5.27912 3.9082 3.52979 5.90772 3.52979 8.72955V16.3048C3.52979 19.1276 5.24518 21.1184 8.10289 21.1184H16.164C18.9858 21.1184 20.7371 19.1276 20.7371 16.3048V9.70798" stroke="black" stroke-width="1.5" stroke-linecap="round" stroke-linejoin="round"/>
<path d="M7.71484 14.8375L10.5202 11.1924L13.7202 13.7049L16.4654 10.1616" stroke="black" stroke-width="1.5" stroke-linecap="round" stroke-linejoin="round"/>
<path fill-rule="evenodd" clip-rule="evenodd" d="M19.6689 3.11865C20.6638 3.11865 21.4706 3.92544 21.4706 4.92035C21.4706 5.91527 20.6638 6.72206 19.6689 6.72206C18.674 6.72206 17.8672 5.91527 17.8672 4.92035C17.8672 3.92544 18.674 3.11865 19.6689 3.11865Z" stroke="black" stroke-width="1.5" stroke-linecap="round" stroke-linejoin="round"/>
</svg>