<svg width="24" height="25" viewBox="0 0 24 25" fill="none" xmlns="http://www.w3.org/2000/svg">
<path opacity="0.4" fill-rule="evenodd" clip-rule="evenodd" d="M19.9781 9.00506L15.3061 4.33306C13.3261 2.35406 10.7261 2.29706 8.83306 4.19006L3.87506 9.14806C2.93306 10.0891 2.45806 11.2151 2.50006 12.4041C2.54106 13.5591 3.06606 14.6711 4.01706 15.6221L8.68906 20.2941C9.70506 21.3101 10.8841 21.8191 12.0471 21.8191C13.1511 21.8191 14.2421 21.3591 15.1631 20.4381L20.1211 15.4791C22.0141 13.5861 21.9571 10.9841 19.9781 9.00506Z" fill="black"/>
<path fill-rule="evenodd" clip-rule="evenodd" d="M11.9979 7.98353C12.1979 7.98353 12.3889 8.06353 12.5299 8.20453L15.3209 11.0075C15.4659 11.1545 15.5389 11.3455 15.5389 11.5375C15.5389 11.7295 15.4649 11.9215 15.3179 12.0685C15.0239 12.3605 14.5499 12.3595 14.2569 12.0665L12.7459 10.5485L12.7459 15.8945C12.7459 16.3085 12.4099 16.6445 11.9959 16.6445C11.5819 16.6445 11.2459 16.3085 11.2459 15.8945L11.2459 10.5505L9.73485 12.0665C9.44285 12.3595 8.96785 12.3605 8.67485 12.0685C8.38185 11.7765 8.37985 11.3015 8.67285 11.0075L11.4619 8.20953C11.5319 8.13753 11.6149 8.08053 11.7089 8.04153C11.7579 8.02153 11.8119 8.01953 11.8639 8.01053C11.9079 8.00153 11.9489 7.98353 11.9959 7.98353L11.9979 7.98353Z" fill="black"/>
</svg>