<svg width="24" height="25" viewBox="0 0 24 25" fill="none" xmlns="http://www.w3.org/2000/svg">
<path d="M3.14996 8.76993L3.14996 6.96893C3.14996 4.57093 5.10196 2.61993 7.49996 2.61993L16.5 2.61993C18.899 2.61993 20.85 4.57093 20.85 6.96893L20.85 8.76993C20.85 9.18393 20.514 9.51993 20.1 9.51993C19.686 9.51993 19.35 9.18393 19.35 8.76993L19.35 6.96893C19.35 5.39793 18.072 4.11993 16.5 4.11993L7.49996 4.11993C5.92796 4.11993 4.64996 5.39793 4.64996 6.96893L4.64996 8.76993C4.64996 9.18393 4.31396 9.51993 3.89996 9.51993C3.48596 9.51993 3.14996 9.18393 3.14996 8.76993Z" fill="black"/>
<path d="M12.531 6.43991L14.811 8.71991C14.957 8.86591 15.031 9.05791 15.031 9.24991C15.031 9.44191 14.957 9.63391 14.811 9.78091C14.6855 9.90642 14.5265 9.97816 14.3629 9.99615L14.3629 10.0022L12.75 10.0022L12.75 13.7079L17.601 13.7079C19.255 13.7079 20.601 15.0539 20.601 16.7079L20.601 18.8789C20.601 20.5329 19.255 21.8789 17.601 21.8789L6.39996 21.8789C4.74596 21.8789 3.39996 20.5329 3.39996 18.8789L3.39996 16.7079C3.39996 15.0539 4.74596 13.7079 6.39996 13.7079L11.25 13.7079L11.25 10.0022L9.75543 10.0022L9.75543 9.99982C9.55204 10.0094 9.3455 9.93644 9.18996 9.78091C8.89696 9.48791 8.89696 9.01291 9.18996 8.71991L11.47 6.43991C11.763 6.14691 12.238 6.14691 12.531 6.43991Z" fill="black"/>
</svg>