<svg width="24" height="24" viewBox="0 0 24 24" fill="none" xmlns="http://www.w3.org/2000/svg">
<path opacity="0.4" fill-rule="evenodd" clip-rule="evenodd" d="M21 20H5.941C4.871 20 4 19.13 4 18.061V3C4 2.447 3.553 2 3 2C2.447 2 2 2.447 2 3V18.061C2 20.232 3.769 22 5.941 22H21C21.553 22 22 21.553 22 21C22 20.447 21.553 20 21 20Z" fill="black"/>
<path fill-rule="evenodd" clip-rule="evenodd" d="M8.63177 13.9488C8.93177 13.9488 9.22877 13.8148 9.42477 13.5588L12.6568 9.35884L16.2528 12.1848C16.4628 12.3498 16.7348 12.4238 16.9928 12.3908C17.2578 12.3588 17.4978 12.2218 17.6618 12.0118L21.4268 7.15084C21.7648 6.71484 21.6848 6.08684 21.2478 5.74784C20.8118 5.41084 20.1828 5.48984 19.8448 5.92684L16.6968 9.99084L13.0998 7.16284C12.8888 6.99784 12.6228 6.92484 12.3578 6.95684C12.0928 6.98984 11.8518 7.12784 11.6898 7.33884L7.84077 12.3388C7.50377 12.7768 7.58477 13.4038 8.02277 13.7408C8.20477 13.8818 8.41877 13.9488 8.63177 13.9488Z" fill="black"/>
</svg>