<svg width="25" height="25" viewBox="0 0 25 25" fill="none" xmlns="http://www.w3.org/2000/svg">
<path fill-rule="evenodd" clip-rule="evenodd" d="M12.5 3.86865C7.94335 3.86865 4.25 7.56287 4.25 12.1187C4.25 16.6754 7.94329 20.3687 12.5 20.3687C17.0567 20.3687 20.75 16.6754 20.75 12.1187C20.75 7.56287 17.0567 3.86865 12.5 3.86865ZM2.75 12.1187C2.75 6.73455 7.11481 2.36865 12.5 2.36865C17.8852 2.36865 22.25 6.73455 22.25 12.1187C22.25 17.5038 17.8851 21.8687 12.5 21.8687C7.11487 21.8687 2.75 17.5038 2.75 12.1187Z" fill="black"/>
<path fill-rule="evenodd" clip-rule="evenodd" d="M15.8179 8.47092C15.9832 8.58155 16.0978 8.75333 16.1365 8.94846L16.7862 12.2275C16.8667 12.6338 16.6026 13.0285 16.1963 13.109C15.79 13.1895 15.3953 12.9254 15.3148 12.5191L14.8109 9.9758L12.2678 10.48C11.8615 10.5606 11.4668 10.2965 11.3863 9.89018C11.3057 9.48388 11.5698 9.0892 11.9761 9.00864L15.2549 8.35856C15.45 8.31987 15.6525 8.36029 15.8179 8.47092Z" fill="black"/>
<path fill-rule="evenodd" clip-rule="evenodd" d="M15.8175 8.47101C16.1618 8.70138 16.2541 9.16719 16.0237 9.51143L11.8617 15.7308C11.7511 15.8961 11.5793 16.0107 11.3842 16.0494C11.1891 16.088 10.9866 16.0476 10.8212 15.937L8.14243 14.1441L5.63037 17.5403C5.38405 17.8733 4.9144 17.9436 4.58139 17.6973C4.24837 17.451 4.17809 16.9813 4.42442 16.6483L7.36198 12.6769C7.60014 12.3549 8.04927 12.2768 8.3821 12.4996L11.0322 14.2732L14.7771 8.6772C15.0075 8.33296 15.4733 8.24064 15.8175 8.47101Z" fill="black"/>
</svg>