<svg width="24" height="24" viewBox="0 0 24 24" fill="none" xmlns="http://www.w3.org/2000/svg">
<path fill-rule="evenodd" clip-rule="evenodd" d="M12.0004 21C11.3794 21 10.8754 20.496 10.8754 19.875V10.764L7.919 13.7294C7.48026 14.1681 6.76816 14.1703 6.3283 13.7316C5.88844 13.2929 5.88731 12.5808 6.32605 12.1409L11.1465 7.30582C11.3524 7.06507 11.6584 6.9132 12.0004 6.9132C12.0026 6.9132 12.0049 6.9132 12.0049 6.9132C12.3041 6.9132 12.591 7.03245 12.8013 7.24394L17.6781 12.1409C18.1168 12.5819 18.1157 13.294 17.6747 13.7327C17.2359 14.1715 16.5227 14.1703 16.084 13.7294L13.1253 10.7583V19.875C13.1253 20.496 12.6213 21 12.0004 21Z" fill="black"/>
<path fill-rule="evenodd" clip-rule="evenodd" d="M17.9202 5.24993H6.07992C5.45781 5.24993 4.95496 4.74594 4.95496 4.12496C4.95496 3.50398 5.45781 3 6.07992 3H17.9202C18.5411 3 19.0451 3.50398 19.0451 4.12496C19.0451 4.74594 18.5411 5.24993 17.9202 5.24993Z" fill="black"/>
</svg>