<svg width="24" height="24" viewBox="0 0 24 24" fill="none" xmlns="http://www.w3.org/2000/svg">
<path opacity="0.4" fill-rule="evenodd" clip-rule="evenodd" d="M17.9209 5.25H6.0791C5.45698 5.25 4.9541 4.746 4.9541 4.125C4.9541 3.504 5.45698 3 6.0791 3H17.9209C18.5419 3 19.0459 3.504 19.0459 4.125C19.0459 4.746 18.5419 5.25 17.9209 5.25Z" fill="black"/>
<path fill-rule="evenodd" clip-rule="evenodd" d="M12.0003 21.0009C11.3794 21.0009 10.8754 20.4969 10.8754 19.8759V10.7648L7.91898 13.7302C7.48024 14.169 6.76814 14.1712 6.32828 13.7325C5.88842 13.2937 5.88729 12.5816 6.32603 12.1418L11.1465 7.30667C11.3524 7.06593 11.6584 6.91406 12.0003 6.91406C12.0026 6.91406 12.0048 6.91406 12.0048 6.91406C12.3041 6.91406 12.591 7.03331 12.8013 7.2448L17.678 12.1418C18.1168 12.5828 18.1157 13.2949 17.6747 13.7336C17.2359 14.1723 16.5227 14.1712 16.084 13.7302L13.1253 10.7592V19.8759C13.1253 20.4969 12.6213 21.0009 12.0003 21.0009Z" fill="black"/>
</svg>