<svg width="24" height="24" viewBox="0 0 24 24" fill="none" xmlns="http://www.w3.org/2000/svg">
<path fill-rule="evenodd" clip-rule="evenodd" d="M8.73151 8.73345C8.87256 8.59247 9.06394 8.51347 9.26336 8.5139L13.5405 8.52329C13.9547 8.5242 14.2897 8.86072 14.2888 9.27493C14.2879 9.68914 13.9514 10.0242 13.5372 10.0233L11.0764 10.0179L15.2664 14.208C15.5593 14.5008 15.5593 14.9757 15.2664 15.2686C14.9735 15.5615 14.4987 15.5615 14.2058 15.2686L10.0149 11.0777L10.0191 13.5417C10.0198 13.9559 9.68464 14.2923 9.27042 14.293C8.85621 14.2937 8.51984 13.9585 8.51913 13.5443L8.51172 9.2652C8.51137 9.06578 8.59047 8.87443 8.73151 8.73345Z" fill="black"/>
<path fill-rule="evenodd" clip-rule="evenodd" d="M15.0996 3C15.0996 2.58579 15.4354 2.25 15.8496 2.25H17.1067C19.6712 2.25 21.7495 4.3284 21.7495 6.89286V8.47004C21.7495 8.88425 21.4137 9.22004 20.9995 9.22004C20.5853 9.22004 20.2495 8.88425 20.2495 8.47004V6.89286C20.2495 5.15678 18.8428 3.75 17.1067 3.75H15.8496C15.4354 3.75 15.0996 3.41421 15.0996 3Z" fill="black"/>
<path fill-rule="evenodd" clip-rule="evenodd" d="M6.89286 3.75C5.1568 3.75 3.75 5.1568 3.75 6.89286V8.47004C3.75 8.88425 3.41421 9.22004 3 9.22004C2.58579 9.22004 2.25 8.88425 2.25 8.47004V6.89286C2.25 4.32838 4.32838 2.25 6.89286 2.25H8.18205C8.59626 2.25 8.93205 2.58579 8.93205 3C8.93205 3.41421 8.59626 3.75 8.18205 3.75H6.89286Z" fill="black"/>
<path fill-rule="evenodd" clip-rule="evenodd" d="M3 14.7812C3.41421 14.7812 3.75 15.117 3.75 15.5312V17.1084C3.75 18.8434 5.15668 20.2503 6.89286 20.2503H8.14994C8.56415 20.2503 8.89994 20.5861 8.89994 21.0003C8.89994 21.4146 8.56415 21.7503 8.14994 21.7503H6.89286C4.3285 21.7503 2.25 19.6721 2.25 17.1084V15.5312C2.25 15.117 2.58579 14.7812 3 14.7812Z" fill="black"/>
<path fill-rule="evenodd" clip-rule="evenodd" d="M21.0004 14.7812C21.4146 14.7812 21.7504 15.117 21.7504 15.5312V17.1084C21.7504 19.6721 19.6718 21.7503 17.1075 21.7503H15.8184C15.4041 21.7503 15.0684 21.4146 15.0684 21.0003C15.0684 20.5861 15.4041 20.2503 15.8184 20.2503H17.1075C18.8437 20.2503 20.2504 18.8434 20.2504 17.1084V15.5312C20.2504 15.117 20.5861 14.7812 21.0004 14.7812Z" fill="black"/>
</svg>