<svg width="24" height="24" viewBox="0 0 24 24" fill="none" xmlns="http://www.w3.org/2000/svg">
<path fill-rule="evenodd" clip-rule="evenodd" d="M5 21.75C4.58579 21.75 4.25 21.4142 4.25 21L4.25 5C4.25 4.58578 4.58579 4.25 5 4.25C5.41421 4.25 5.75 4.58578 5.75 5L5.75 21C5.75 21.4142 5.41421 21.75 5 21.75ZM8.46971 6.53037C8.17679 6.23749 8.17676 5.76262 8.46963 5.46971L11.4692 2.46971C11.6099 2.32904 11.8006 2.25001 11.9995 2.25C12.1984 2.24999 12.3892 2.32899 12.5299 2.46963L15.5303 5.46963C15.8232 5.76251 15.8232 6.23738 15.5304 6.53029C15.2375 6.82321 14.7626 6.82324 14.4697 6.53037L12.7496 4.81053L12.75 21C12.75 21.4142 12.4142 21.75 12 21.75C11.5858 21.75 11.25 21.4142 11.25 21L11.2496 4.81079L9.53037 6.53029C9.23749 6.82321 8.76262 6.82324 8.46971 6.53037ZM19 21.75C18.5858 21.75 18.25 21.4142 18.25 21L18.25 5C18.25 4.58578 18.5858 4.25 19 4.25C19.4142 4.25 19.75 4.58578 19.75 5L19.75 21C19.75 21.4142 19.4142 21.75 19 21.75Z" fill="black"/>
</svg>