<svg width="24" height="25" viewBox="0 0 24 25" fill="none" xmlns="http://www.w3.org/2000/svg">
<path fill-rule="evenodd" clip-rule="evenodd" d="M18.2369 9.9688C18.1069 9.8509 17.9042 9.84092 17.7801 9.965L15.2326 12.5125C14.7446 13.0005 14.1056 13.2445 13.4656 13.2445C12.8256 13.2445 12.1866 13.0005 11.6976 12.5125C10.7216 11.5365 10.7216 9.95355 11.6976 8.97655L14.2452 6.42979C14.3693 6.3058 14.3594 6.10318 14.2417 5.9732C13.8449 5.53524 13.6215 4.97266 13.6026 4.38334C13.5978 4.23381 13.4988 4.09886 13.3516 4.07218C12.8615 3.98335 12.3575 3.93555 11.8426 3.93555C7.14857 3.93555 3.33057 7.75455 3.33057 12.4475C3.33057 17.1405 7.14857 20.9585 11.8426 20.9585C16.5356 20.9585 20.3546 17.1405 20.3546 12.4475C20.3546 11.9029 20.2988 11.3722 20.1993 10.856C20.1707 10.7078 20.0328 10.6099 19.8818 10.6083C19.273 10.602 18.6892 10.3792 18.2369 9.9688Z" fill="black"/>
<path fill-rule="evenodd" clip-rule="evenodd" d="M19.9234 3.54146C19.9204 3.54146 19.9174 3.54046 19.9154 3.54146H16.0904C15.6764 3.54146 15.3404 3.87746 15.3404 4.29146C15.3404 4.70546 15.6764 5.04146 16.0904 5.04146H18.1084L12.9354 10.2145C12.6424 10.5075 12.6424 10.9815 12.9354 11.2745C13.0814 11.4215 13.2734 11.4945 13.4654 11.4945C13.6574 11.4945 13.8494 11.4215 13.9954 11.2745L19.1694 6.10146V8.12046C19.1694 8.53446 19.5054 8.87046 19.9194 8.87046C20.3334 8.87046 20.6694 8.53446 20.6694 8.12046V4.29146C20.6694 3.87846 20.3354 3.54346 19.9234 3.54146Z" fill="black"/>
</svg>