<svg width="24" height="24" viewBox="0 0 24 24" fill="none" xmlns="http://www.w3.org/2000/svg">
<path fill-rule="evenodd" clip-rule="evenodd" d="M9.72295 3.43087L13.0856 7.716C13.3511 8.05237 13.4006 8.51587 13.2127 8.90175C13.0248 9.28875 12.6311 9.53512 12.2013 9.53512H9.96482V13.5446C9.96482 16.4156 12.2992 18.75 15.1679 18.75H18.5238C19.1448 18.75 19.6488 19.2529 19.6488 19.875C19.6488 20.4971 19.1448 21 18.5238 21H15.1679C11.0583 21 7.71482 17.6565 7.71482 13.5446V9.53512H5.47607C5.0452 9.53512 4.65257 9.28875 4.46357 8.90175C4.3882 8.7465 4.35107 8.57775 4.35107 8.41012C4.35107 8.16262 4.43207 7.91738 4.5907 7.716L7.95332 3.43087C8.16595 3.15862 8.4922 3 8.83757 3C9.18407 3 9.51032 3.15862 9.72295 3.43087Z" fill="black"/>
</svg>