<svg width="24" height="24" viewBox="0 0 24 24" fill="none" xmlns="http://www.w3.org/2000/svg">
<path fill-rule="evenodd" clip-rule="evenodd" d="M12.0018 16.621C11.5876 16.621 11.2518 16.2852 11.2518 15.871V9.94413L9.51251 11.6894C9.22012 11.9828 8.74525 11.9837 8.45185 11.6913C8.15845 11.3989 8.15763 10.924 8.45001 10.6306L11.4705 7.59962C11.6113 7.45836 11.8025 7.37898 12.002 7.37903C12.2014 7.37907 12.3926 7.45854 12.5333 7.59986L15.551 10.6309C15.8433 10.9244 15.8422 11.3993 15.5487 11.6915C15.2552 11.9838 14.7803 11.9827 14.488 11.6892L12.7518 9.94532V15.871C12.7518 16.2852 12.416 16.621 12.0018 16.621Z" fill="black"/>
<path fill-rule="evenodd" clip-rule="evenodd" d="M12.0001 3.75C10.1988 3.75 8.49201 4.97619 7.39352 7.08032C7.32264 7.2161 7.21187 7.32692 7.07612 7.39789C4.97452 8.49649 3.75 10.2022 3.75 12.0022C3.75 13.8031 4.97569 15.5096 7.07907 16.6081C7.21476 16.679 7.32552 16.7897 7.39647 16.9253C8.49511 19.0261 10.2004 20.25 12.0001 20.25C13.7997 20.25 15.505 19.026 16.6037 16.9253C16.6746 16.7896 16.7854 16.6789 16.9211 16.608C19.0244 15.5095 20.25 13.8031 20.25 12.0022C20.25 10.2022 19.0255 8.49656 16.924 7.39795C16.7883 7.32699 16.6775 7.21617 16.6066 7.08038C15.5081 4.97621 13.8013 3.75 12.0001 3.75ZM6.17472 6.17957C7.44967 3.86989 9.5352 2.25 12.0001 2.25C14.4649 2.25 16.5505 3.86992 17.8254 6.17965C20.1324 7.45481 21.75 9.53915 21.75 12.0022C21.75 14.4666 20.1308 16.5517 17.8219 17.8267C16.5467 20.133 14.4627 21.75 12.0001 21.75C9.53748 21.75 7.45347 20.1331 6.17825 17.8268C3.86928 16.5518 2.25 14.4666 2.25 12.0022C2.25 9.5391 3.86765 7.45472 6.17472 6.17957Z" fill="black"/>
</svg>