<svg width="24" height="24" viewBox="0 0 24 24" fill="none" xmlns="http://www.w3.org/2000/svg">
<path opacity="0.4" d="M13.1904 15.7975L13.5176 19.4967C13.5176 20.3269 12.8379 21 11.9997 21C11.1614 21 10.4818 20.3269 10.4818 19.4967L10.8089 15.7975C10.8089 15.1463 11.3421 14.6183 11.9997 14.6183C12.6584 14.6183 13.1904 15.1463 13.1904 15.7975Z" fill="black"/>
<path d="M13.1302 3.37436C13.1885 3.43218 13.4353 3.64818 13.6402 3.85108C14.9234 5.03471 17.0218 8.12521 17.664 9.74192C17.7665 9.98737 17.9846 10.6081 18 10.9408C18 11.2583 17.9262 11.5615 17.7808 11.8506C17.577 12.2117 17.2554 12.4997 16.8764 12.659C16.6143 12.7604 15.8267 12.9197 15.8124 12.9197C14.9521 13.0779 13.5531 13.1641 12.0066 13.1641C10.535 13.1641 9.19332 13.0779 8.31871 12.9481C8.30329 12.9339 7.32623 12.7746 6.99137 12.6012C6.37892 12.2837 6 11.663 6 10.9986L6 10.9408C6.01432 10.5077 6.39435 9.59792 6.40756 9.59792C7.04975 8.0674 9.04681 5.04998 10.3742 3.8369C10.3742 3.8369 10.7156 3.49436 10.9282 3.346C11.2344 3.11473 11.6134 2.9991 11.9923 2.9991C12.4153 2.9991 12.8085 3.12891 13.1302 3.37436Z" fill="black"/>
</svg>