<svg width="24" height="24" viewBox="0 0 24 24" fill="none" xmlns="http://www.w3.org/2000/svg">
<path fill-rule="evenodd" clip-rule="evenodd" d="M3.73714 3.89765C4.72117 2.84084 6.12379 2.25 7.78313 2.25H16.2178C17.8772 2.25 19.2796 2.84086 20.2634 3.89773C21.2416 4.94853 21.75 6.39899 21.75 8.02638V15.9736C21.75 17.602 21.2385 19.0524 20.2594 20.1027C19.2748 21.1588 17.8729 21.75 16.2178 21.75H7.78313C6.12379 21.75 4.72117 21.1592 3.73714 20.1024C2.75872 19.0516 2.25 17.6011 2.25 15.9736V8.02638C2.25 6.39889 2.75872 4.94841 3.73714 3.89765ZM4.83492 4.91984C4.15879 5.64597 3.75 6.70868 3.75 8.02638V15.9736C3.75 17.2913 4.15879 18.354 4.83492 19.0802C5.50542 19.8003 6.49437 20.25 7.78313 20.25H16.2178C17.5012 20.25 18.4903 19.8006 19.1622 19.0798C19.8396 18.3532 20.25 17.2904 20.25 15.9736V8.02638C20.25 6.70857 19.8414 5.64585 19.1655 4.91976C18.4952 4.19973 17.5066 3.75 16.2178 3.75H7.78313C6.49437 3.75 5.50542 4.19975 4.83492 4.91984Z" fill="black"/>
<path fill-rule="evenodd" clip-rule="evenodd" d="M8.52539 16.7012C8.52539 16.287 8.86118 15.9512 9.27539 15.9512H14.726C15.1402 15.9512 15.476 16.287 15.476 16.7012C15.476 17.1154 15.1402 17.4512 14.726 17.4512H9.27539C8.86118 17.4512 8.52539 17.1154 8.52539 16.7012Z" fill="black"/>
<path fill-rule="evenodd" clip-rule="evenodd" d="M11.9984 6.55078C12.1978 6.55073 12.389 6.63008 12.5297 6.7713L15.5703 9.82157C15.8627 10.1149 15.8619 10.5898 15.5686 10.8822C15.2752 11.1747 14.8003 11.1739 14.5079 10.8805L11.9988 8.3634L9.49237 10.8803C9.20008 11.1738 8.72521 11.1748 8.43171 10.8825C8.13821 10.5902 8.13722 10.1153 8.42951 9.82182L11.4671 6.77155C11.6078 6.63027 11.799 6.55083 11.9984 6.55078Z" fill="black"/>
<path fill-rule="evenodd" clip-rule="evenodd" d="M12 6.55078C12.4142 6.55078 12.75 6.88657 12.75 7.30078V13.9238C12.75 14.338 12.4142 14.6738 12 14.6738C11.5858 14.6738 11.25 14.338 11.25 13.9238V7.30078C11.25 6.88657 11.5858 6.55078 12 6.55078Z" fill="black"/>
</svg>