<svg width="24" height="24" viewBox="0 0 24 24" fill="none" xmlns="http://www.w3.org/2000/svg">
<path fill-rule="evenodd" clip-rule="evenodd" d="M3.89773 20.2634C4.94853 21.2416 6.39899 21.75 8.02638 21.75H15.9736C17.6019 21.75 19.0523 21.2388 20.1026 20.2598C21.1588 19.2753 21.75 17.8733 21.75 16.2178V7.78314C21.75 6.12379 21.1592 4.72117 20.1024 3.73714C19.0516 2.75872 17.6011 2.25 15.9736 2.25H8.02638C6.39889 2.25 4.94838 2.75873 3.89761 3.7373C2.8408 4.72148 2.25 6.12435 2.25 7.78411V16.2178C2.25 17.8772 2.84086 19.2796 3.89773 20.2634ZM4.91976 19.1655C4.19973 18.4952 3.75 17.5066 3.75 16.2178V7.78411C3.75 6.49479 4.1998 5.5056 4.91988 4.835C5.64599 4.15879 6.70868 3.75 8.02638 3.75H15.9736C17.2913 3.75 18.354 4.15879 19.0802 4.83492C19.8003 5.50542 20.25 6.49437 20.25 7.78314V16.2178C20.25 17.5017 19.8006 18.4908 19.0799 19.1625C18.3533 19.8398 17.2905 20.25 15.9736 20.25H8.02638C6.70857 20.25 5.64585 19.8414 4.91976 19.1655Z" fill="black"/>
<path fill-rule="evenodd" clip-rule="evenodd" d="M8.09386 13.9338C8.38739 14.2261 8.86226 14.2251 9.15452 13.9315L12.0002 11.0735L14.846 13.9315C15.1382 14.2251 15.6131 14.2261 15.9066 13.9338C16.2001 13.6416 16.2012 13.1667 15.9089 12.8732L12.5317 9.48138C12.391 9.34002 12.1997 9.26056 12.0002 9.26056C11.8008 9.26056 11.6095 9.34002 11.4688 9.48137L8.09157 12.8732C7.79931 13.1667 7.80034 13.6416 8.09386 13.9338Z" fill="black"/>
</svg>