<svg width="25" height="24" viewBox="0 0 25 24" fill="none" xmlns="http://www.w3.org/2000/svg">
<path fill-rule="evenodd" clip-rule="evenodd" d="M12.4265 9.04603C12.6825 9.04603 12.9385 8.94803 13.1335 8.75403C13.5245 8.36303 13.5245 7.73003 13.1335 7.33903L9.1725 3.37603C9.0805 3.28403 8.9715 3.21103 8.8495 3.16003C8.7285 3.10903 8.5985 3.08203 8.4645 3.08203C8.3305 3.08203 8.2005 3.10903 8.0795 3.16003C7.9575 3.21103 7.8485 3.28403 7.7565 3.37603L3.7925 7.33903C3.4025 7.72903 3.4025 8.36203 3.7925 8.75303C4.1835 9.14403 4.8165 9.14403 5.2065 8.75303L7.4645 6.49603V19.918C7.4645 20.47 7.9115 20.918 8.4645 20.918C9.0175 20.918 9.4645 20.47 9.4645 19.918V6.49703L11.7195 8.75303C11.9145 8.94803 12.1705 9.04603 12.4265 9.04603Z" fill="black"/>
<path fill-rule="evenodd" clip-rule="evenodd" d="M21.2068 14.5762L17.6258 10.9942C17.6248 10.9932 17.6238 10.9932 17.6228 10.9922C17.5228 10.8912 17.4068 10.8172 17.2838 10.7682C17.1778 10.7262 17.0608 10.7012 16.9398 10.6992H16.9158C16.9078 10.6992 16.8918 10.7012 16.8928 10.6992H16.8918C16.7668 10.7022 16.6468 10.7282 16.5368 10.7732C16.4178 10.8222 16.3058 10.8942 16.2088 10.9922C16.2078 10.9932 16.2068 10.9932 16.2058 10.9942L12.6248 14.5762C12.2338 14.9672 12.2338 15.6002 12.6248 15.9902C13.0158 16.3812 13.6478 16.3812 14.0388 15.9902L15.9158 14.1132V19.9182C15.9158 20.4702 16.3628 20.9182 16.9158 20.9182C17.4688 20.9182 17.9158 20.4702 17.9158 19.9182V14.1132L19.7928 15.9902C20.1838 16.3812 20.8158 16.3812 21.2068 15.9902C21.5978 15.6002 21.5978 14.9672 21.2068 14.5762Z" fill="black"/>
</svg>