<svg width="25" height="24" viewBox="0 0 25 24" fill="none" xmlns="http://www.w3.org/2000/svg">
<path opacity="0.4" fill-rule="evenodd" clip-rule="evenodd" d="M8.46526 3.08392C8.55826 3.08392 8.64226 3.11292 8.72826 3.13692C8.76626 3.14792 8.80826 3.14492 8.84526 3.16092C8.97226 3.21292 9.08526 3.29092 9.18026 3.38792L13.1333 7.34192C13.5243 7.73192 13.5243 8.36492 13.1333 8.75592C12.7423 9.14592 12.1103 9.14592 11.7193 8.75592L9.46526 6.50192L9.46526 19.9199C9.46526 20.4729 9.01726 20.9199 8.46526 20.9199C7.91326 20.9199 7.46526 20.4729 7.46526 19.9199L7.46526 6.49492L5.20626 8.75592C4.81626 9.14592 4.18226 9.14592 3.79226 8.75592C3.59626 8.56092 3.49926 8.30492 3.49926 8.04892C3.49926 7.79292 3.59626 7.53692 3.79126 7.34192L7.75426 3.37692C7.94226 3.18892 8.19626 3.08392 8.46226 3.08392L8.46526 3.08392Z" fill="black"/>
<path fill-rule="evenodd" clip-rule="evenodd" d="M15.9142 19.9199L15.9142 14.1159L14.0392 15.9909C13.6482 16.3819 13.0152 16.3819 12.6242 15.9909C12.4292 15.7959 12.3312 15.5399 12.3312 15.2839C12.3312 15.0279 12.4292 14.7729 12.6242 14.5769L16.1712 11.0309C16.3542 10.8279 16.6192 10.6999 16.9142 10.6999C17.1712 10.6999 17.4272 10.7979 17.6232 10.9929L21.2072 14.5769C21.5982 14.9679 21.5982 15.6009 21.2072 15.9909C20.8162 16.3819 20.1842 16.3819 19.7932 15.9909L17.9142 14.1119L17.9142 19.9199C17.9142 20.4729 17.4662 20.9199 16.9142 20.9199C16.3622 20.9199 15.9142 20.4729 15.9142 19.9199Z" fill="black"/>
</svg>