<svg width="24" height="24" viewBox="0 0 24 24" fill="none" xmlns="http://www.w3.org/2000/svg">
<path fill-rule="evenodd" clip-rule="evenodd" d="M11.9987 9.86963C12.1981 9.86958 12.3894 9.94896 12.5301 10.0902L14.8711 12.4392C15.1634 12.7326 15.1626 13.2075 14.8692 13.4999C14.5758 13.7923 14.1009 13.7915 13.8086 13.4981L12.7489 12.4347V16.6196C12.7489 17.0338 12.4131 17.3696 11.9989 17.3696C11.5847 17.3696 11.2489 17.0338 11.2489 16.6196V12.4359L10.1916 13.4978C9.8994 13.7914 9.42453 13.7924 9.13099 13.5001C8.83746 13.2079 8.83641 12.733 9.12866 12.4395L11.4674 10.0905C11.6081 9.94914 11.7993 9.86968 11.9987 9.86963Z" fill="black"/>
<path fill-rule="evenodd" clip-rule="evenodd" d="M9.66838 4.52203C10.7272 2.68656 13.3782 2.6932 14.4277 4.53408L14.4278 4.53423L21.3877 16.7493L21.3878 16.7494C22.4291 18.5781 21.1086 20.8507 19.0041 20.8507H4.99588C2.88468 20.8507 1.56537 18.5658 2.62006 16.7371L2.62013 16.737L9.66838 4.52203ZM13.1245 5.27682C12.6488 4.44268 11.4476 4.43965 10.9677 5.27153L10.9677 5.27162L3.91943 17.4865C3.91941 17.4866 3.91938 17.4866 3.91936 17.4867C3.44136 18.3156 4.03953 19.3507 4.99588 19.3507H19.0041C19.9574 19.3507 20.5564 18.3207 20.0843 17.4917L13.1246 5.27696C13.1245 5.27691 13.1245 5.27687 13.1245 5.27682Z" fill="black"/>
</svg>