<svg width="24" height="24" viewBox="0 0 24 24" fill="none" xmlns="http://www.w3.org/2000/svg">
<path fill-rule="evenodd" clip-rule="evenodd" d="M7.96515 3.33203C8.16408 3.33207 8.35484 3.41113 8.49547 3.55183L12.4576 7.5159C12.7504 7.80886 12.7503 8.28374 12.4573 8.57656C12.1644 8.86938 11.6895 8.86927 11.3967 8.5763L7.96482 5.14276L4.53027 8.57649C4.23734 8.86935 3.76247 8.8693 3.46961 8.57637C3.17675 8.28344 3.1768 7.80857 3.46973 7.51571L7.43475 3.55164C7.57543 3.41099 7.76622 3.332 7.96515 3.33203Z" fill="black"/>
<path fill-rule="evenodd" clip-rule="evenodd" d="M16.4158 10.9492C16.6147 10.9492 16.8055 11.0282 16.9462 11.1689L20.5306 14.7535C20.8235 15.0464 20.8235 15.5213 20.5306 15.8142C20.2377 16.1071 19.7628 16.107 19.4699 15.8141L17.1659 13.51L17.166 19.9186C17.166 20.3328 16.8302 20.6686 16.416 20.6686C16.0018 20.6687 15.666 20.3329 15.666 19.9187L15.6659 13.5101L13.3624 15.8141C13.0696 16.107 12.5947 16.1071 12.3018 15.8142C12.0088 15.5214 12.0088 15.0465 12.3016 14.7536L15.8854 11.1689C16.0261 11.0283 16.2169 10.9492 16.4158 10.9492Z" fill="black"/>
<path fill-rule="evenodd" clip-rule="evenodd" d="M7.96484 3.33203C8.37906 3.33203 8.71484 3.66782 8.71484 4.08203V19.9175C8.71484 20.3317 8.37906 20.6675 7.96484 20.6675C7.55063 20.6675 7.21484 20.3317 7.21484 19.9175V4.08203C7.21484 3.66782 7.55063 3.33203 7.96484 3.33203Z" fill="black"/>
</svg>