<svg width="24" height="24" viewBox="0 0 24 24" fill="none" xmlns="http://www.w3.org/2000/svg">
<path d="M10.2573 3H9.24251C7.24402 3 5.62402 4.62 5.62402 6.61849L5.625 17.3825C5.625 19.38 7.245 21 9.24348 21H14.7583C16.7568 21 18.3768 19.38 18.3758 17.3815V12.0175" stroke="black" stroke-width="1.5" stroke-linecap="round" stroke-linejoin="round"/>
<path d="M14.6516 7.40137H12.8516V9.07585" stroke="black" stroke-width="1.5" stroke-linecap="round" stroke-linejoin="round"/>
<path d="M18.3781 3V4.8H16.5781" stroke="black" stroke-width="1.5" stroke-linecap="round" stroke-linejoin="round"/>
<path d="M12.9141 4.6567C13.4181 3.77421 14.3628 3.18945 15.4516 3.18945C17.4043 3.18945 18.3763 4.80945 18.3763 4.80945" stroke="black" stroke-width="1.5" stroke-linecap="round" stroke-linejoin="round"/>
<path d="M17.982 7.57264C17.4771 8.4454 16.5323 9.03016 15.4523 9.03016C13.8411 9.03016 12.8516 7.41016 12.8516 7.41016" stroke="black" stroke-width="1.5" stroke-linecap="round" stroke-linejoin="round"/>
<path d="M12.4006 17.3306V17.2824M12.4006 17.0293C12.2624 17.0293 12.1504 17.1413 12.1504 17.2791C12.1504 17.4173 12.2624 17.5293 12.4006 17.5293C12.5389 17.5293 12.6509 17.4173 12.6509 17.2791C12.6509 17.1413 12.5389 17.0293 12.4006 17.0293Z" stroke="black" stroke-width="1.5" stroke-linecap="round" stroke-linejoin="round"/>
</svg>