<svg width="24" height="25" viewBox="0 0 24 25" fill="none" xmlns="http://www.w3.org/2000/svg">
<path fill-rule="evenodd" clip-rule="evenodd" d="M8.22863 11.2102C8.68763 10.9032 8.80963 10.2822 8.50263 9.82316C8.19463 9.36316 7.57363 9.24016 7.11563 9.54916L6.32263 10.0802C7.20563 7.79716 9.42963 6.16016 12.0006 6.16016C14.0026 6.16016 15.8776 7.14216 17.0166 8.78816C17.3316 9.24316 17.9536 9.35516 18.4086 9.04216C18.8626 8.72816 18.9756 8.10516 18.6616 7.65016C17.1496 5.46516 14.6596 4.16016 12.0006 4.16016C8.47863 4.16016 5.44063 6.47016 4.34663 9.65316L3.83163 8.88316C3.52263 8.42416 2.90063 8.30116 2.44363 8.60816C1.98463 8.91616 1.86163 9.53716 2.16863 9.99616L4.04963 12.8062C4.19763 13.0262 4.42663 13.1792 4.68663 13.2312C4.75063 13.2432 4.81663 13.2502 4.88063 13.2502C5.07763 13.2502 5.27163 13.1912 5.43763 13.0802L8.22863 11.2102Z" fill="black"/>
<path fill-rule="evenodd" clip-rule="evenodd" d="M21.8302 14.4925L19.9492 11.6925C19.6412 11.2355 19.0212 11.1115 18.5622 11.4195L15.7712 13.2895C15.3122 13.5965 15.1902 14.2185 15.4972 14.6775C15.8062 15.1355 16.4252 15.2575 16.8852 14.9505L17.6792 14.4185C16.7962 16.7025 14.5712 18.3405 12.0002 18.3405C9.99823 18.3405 8.12323 17.3575 6.98423 15.7115C6.66923 15.2575 6.04723 15.1425 5.59323 15.4585C5.13923 15.7725 5.02523 16.3955 5.34023 16.8495C6.85123 19.0345 9.34223 20.3405 12.0002 20.3405C15.5242 20.3405 18.5632 18.0275 19.6562 14.8435L20.1702 15.6075C20.3632 15.8945 20.6792 16.0505 21.0012 16.0505C21.1922 16.0505 21.3872 15.9945 21.5582 15.8805C22.0162 15.5725 22.1382 14.9505 21.8302 14.4925Z" fill="black"/>
</svg>