<svg width="24" height="25" viewBox="0 0 24 25" fill="none" xmlns="http://www.w3.org/2000/svg">
<path fill-rule="evenodd" clip-rule="evenodd" d="M7.22617 14.4988C6.89717 14.2638 6.45917 14.2488 6.11717 14.4628L5.20117 15.0318C4.11017 12.3748 4.62917 9.18981 6.75817 7.04481C8.45517 5.33381 10.8842 4.56381 13.2692 4.99081C13.8092 5.08781 14.3312 4.72581 14.4292 4.18181C14.5272 3.63881 14.1642 3.11881 13.6212 3.02181C10.5912 2.47981 7.49717 3.45781 5.33817 5.63681C2.55017 8.44581 1.93517 12.6578 3.48917 16.0938L2.47317 16.7248C2.12917 16.9388 1.94817 17.3388 2.01417 17.7378C2.08017 18.1378 2.38017 18.4578 2.77517 18.5488L5.73817 19.2328C5.81317 19.2508 5.88817 19.2588 5.96317 19.2588C6.14917 19.2588 6.33317 19.2068 6.49417 19.1068C6.71817 18.9668 6.87817 18.7428 6.93817 18.4838L7.61917 15.5378C7.70917 15.1438 7.55417 14.7338 7.22617 14.4988Z" fill="black"/>
<path fill-rule="evenodd" clip-rule="evenodd" d="M21.9859 6.75852C21.9199 6.35952 21.6199 6.03952 21.2249 5.94752L18.2629 5.26252C18.0019 5.20152 17.7339 5.24852 17.5079 5.38852C17.2829 5.52952 17.1239 5.75352 17.0629 6.01152L16.3819 8.95952C16.2909 9.35252 16.4459 9.76252 16.7739 9.99752C16.9479 10.1215 17.1519 10.1845 17.3559 10.1845C17.5389 10.1845 17.7209 10.1345 17.8829 10.0335L18.7999 9.46452C19.8909 12.1215 19.3719 15.3065 17.2439 17.4525C15.5469 19.1635 13.1129 19.9335 10.7329 19.5075C10.1899 19.4075 9.67092 19.7715 9.57292 20.3155C9.47492 20.8595 9.83792 21.3785 10.3819 21.4755C10.9299 21.5735 11.4819 21.6225 12.0299 21.6225C14.4999 21.6225 16.8949 20.6435 18.6639 18.8615C21.4519 16.0515 22.0659 11.8395 20.5109 8.40252L21.5269 7.77152C21.8709 7.55752 22.0519 7.15752 21.9859 6.75852Z" fill="black"/>
</svg>