<svg width="24" height="24" viewBox="0 0 24 24" fill="none" xmlns="http://www.w3.org/2000/svg">
<path fill-rule="evenodd" clip-rule="evenodd" d="M3.89765 3.73714C4.94841 2.75872 6.39889 2.25 8.02638 2.25H15.9736C17.6011 2.25 19.0516 2.75872 20.1024 3.73714C21.1592 4.72117 21.75 6.12379 21.75 7.78313V16.2178C21.75 17.8772 21.1591 19.2796 20.1023 20.2634C19.0515 21.2416 17.601 21.75 15.9736 21.75H8.02638C6.39795 21.75 4.94762 21.2385 3.89733 20.2594C2.8412 19.2748 2.25 17.8729 2.25 16.2178V7.78313C2.25 6.12379 2.84084 4.72117 3.89765 3.73714ZM4.91984 4.83492C4.19975 5.50542 3.75 6.49437 3.75 7.78313V16.2178C3.75 17.5012 4.19939 18.4903 4.92016 19.1622C5.64676 19.8396 6.70962 20.25 8.02638 20.25H15.9736C17.2914 20.25 18.3541 19.8414 19.0802 19.1655C19.8003 18.4952 20.25 17.5066 20.25 16.2178V7.78313C20.25 6.49437 19.8003 5.50542 19.0802 4.83492C18.354 4.15879 17.2913 3.75 15.9736 3.75H8.02638C6.70868 3.75 5.64597 4.15879 4.91984 4.83492Z" fill="black"/>
<path fill-rule="evenodd" clip-rule="evenodd" d="M7.30051 11.285C7.49304 11.2349 7.69758 11.2634 7.86912 11.3641L9.68663 12.4315C10.0438 12.6412 10.1633 13.1008 9.95356 13.458C9.74381 13.8152 9.28422 13.9347 8.92704 13.7249L7.75637 13.0375L7.06293 14.2188C6.85324 14.576 6.39367 14.6956 6.03646 14.4859C5.67924 14.2762 5.55965 13.8166 5.76934 13.4594L6.84253 11.6312C6.94324 11.4596 7.10798 11.3351 7.30051 11.285Z" fill="black"/>
<path fill-rule="evenodd" clip-rule="evenodd" d="M17.9619 9.51727C18.3191 9.72696 18.4387 10.1865 18.229 10.5437L17.1558 12.372C17.0551 12.5435 16.8904 12.668 16.6979 12.7181C16.5053 12.7682 16.3008 12.7397 16.1292 12.639L14.3117 11.5717C13.9546 11.3619 13.835 10.9023 14.0448 10.5451C14.2546 10.188 14.7141 10.0684 15.0713 10.2782L16.242 10.9657L16.9354 9.78438C17.1451 9.42717 17.6047 9.30757 17.9619 9.51727Z" fill="black"/>
<path fill-rule="evenodd" clip-rule="evenodd" d="M7.71897 9.04801C8.65559 7.69246 10.2225 6.80078 11.9992 6.80078C14.8332 6.80078 17.1374 9.0703 17.1965 11.8901C17.2052 12.3042 16.8766 12.647 16.4624 12.6556C16.0483 12.6643 15.7056 12.3357 15.6969 11.9215C15.6548 9.91538 14.0146 8.30078 11.9992 8.30078C10.7364 8.30078 9.62183 8.93278 8.95304 9.90069C8.71758 10.2415 8.25044 10.3268 7.90966 10.0914C7.56888 9.85592 7.48351 9.38878 7.71897 9.04801Z" fill="black"/>
<path fill-rule="evenodd" clip-rule="evenodd" d="M7.53506 11.3478C7.94918 11.3391 8.29194 11.6678 8.30062 12.0819C8.34268 14.0881 9.98286 15.7027 11.9982 15.7027C13.2611 15.7027 14.3757 15.0707 15.0445 14.1028C15.2799 13.762 15.7471 13.6766 16.0878 13.9121C16.4286 14.1475 16.514 14.6147 16.2785 14.9555C15.3419 16.311 13.775 17.2027 11.9982 17.2027C9.16433 17.2027 6.86007 14.9332 6.80095 12.1134C6.79227 11.6993 7.12094 11.3565 7.53506 11.3478Z" fill="black"/>
</svg>