<svg width="24" height="25" viewBox="0 0 24 25" fill="none" xmlns="http://www.w3.org/2000/svg">
<path fill-rule="evenodd" clip-rule="evenodd" d="M17.27 9.29492H12.75V14.7549C12.75 15.1749 12.41 15.5049 12 15.5049C11.59 15.5049 11.25 15.1749 11.25 14.7549V9.29492H6.74C4.54 9.29492 2.75 11.0849 2.75 13.2849V17.8949C2.75 20.0849 4.54 21.8749 6.74 21.8749H17.26C19.46 21.8749 21.25 20.0849 21.25 17.8949V13.2749C21.25 11.0849 19.46 9.29492 17.27 9.29492Z" fill="black"/>
<path fill-rule="evenodd" clip-rule="evenodd" d="M12.75 5.195L14.23 6.675C14.52 6.965 14.99 6.965 15.29 6.675C15.58 6.385 15.58 5.905 15.29 5.615L12.53 2.845C12.48 2.795 12.43 2.755 12.37 2.725C12.37 2.715 12.37 2.715 12.36 2.715C12.33 2.705 12.31 2.685 12.28 2.675C12.2 2.645 12.11 2.625 12.02 2.625H11.98C11.89 2.625 11.8 2.645 11.72 2.675C11.66 2.705 11.61 2.735 11.56 2.765C11.53 2.795 11.5 2.815 11.47 2.845L8.70998 5.615C8.41998 5.905 8.41998 6.385 8.70998 6.675C9.00998 6.965 9.47998 6.965 9.77998 6.675L11.25 5.195L11.25 9.29492H12.75L12.75 5.195Z" fill="black"/>
</svg>