<svg width="25" height="24" viewBox="0 0 25 24" fill="none" xmlns="http://www.w3.org/2000/svg">
<path fill-rule="evenodd" clip-rule="evenodd" d="M13.1199 4.16923L14.7589 5.81223C14.9049 5.95923 15.0979 6.03323 15.2899 6.03323C15.4809 6.03323 15.6729 5.95923 15.8189 5.81423C16.1129 5.52123 16.1129 5.04623 15.8209 4.75323L12.9009 1.82523C12.6199 1.54223 12.1199 1.54223 11.8389 1.82523L8.91895 4.75323C8.62695 5.04623 8.62695 5.52123 8.92095 5.81423C9.21495 6.10623 9.68895 6.10623 9.98095 5.81223L11.6199 4.16923V7.15723C12.1299 7.14723 12.6299 7.14723 13.1199 7.15723V4.16923Z" fill="black"/>
<path fill-rule="evenodd" clip-rule="evenodd" d="M16.65 7.28704C15.53 7.20704 14.3499 7.16723 13.1199 7.15723L13.12 14.397C13.12 14.807 12.78 15.147 12.37 15.147C11.96 15.147 11.62 14.807 11.62 14.397L11.6199 7.15723C10.4099 7.16723 9.15 7.21704 7.85 7.28704H7.83C3.8 7.65704 2.5 9.48704 2.5 14.787C2.5 22.387 5.35 22.387 12.25 22.387C19.15 22.387 22 22.387 22 14.787C22 9.48704 20.7 7.65704 16.65 7.28704Z" fill="black"/>
</svg>