<svg width="25" height="25" viewBox="0 0 25 25" fill="none" xmlns="http://www.w3.org/2000/svg">
<path opacity="0.4" fill-rule="evenodd" clip-rule="evenodd" d="M2.5 10.9653L2.5 22.4853L22 22.4853L22 10.9653L2.5 10.9653Z" fill="black"/>
<path fill-rule="evenodd" clip-rule="evenodd" d="M11.5003 2.54301C11.4993 4.55501 9.6673 6.38701 7.6543 6.38701L6.9043 6.38701L6.9043 7.88701L7.6543 7.88701C9.1313 7.88701 10.5113 7.21201 11.5003 6.16801L11.5002 17.2083L13.0002 17.2083L13.0003 6.16801C13.9893 7.21201 15.3683 7.88701 16.8453 7.88701L17.5953 7.88701L17.5953 6.38701L16.8453 6.38701C14.8333 6.38701 13.0003 4.55401 13.0003 2.54201L13.0003 1.79201L11.5003 1.79201L11.5003 2.54301Z" fill="black"/>
</svg>