<svg width="25" height="24" viewBox="0 0 25 24" fill="none" xmlns="http://www.w3.org/2000/svg">
<path opacity="0.4" fill-rule="evenodd" clip-rule="evenodd" d="M16.65 7.28717C15.53 7.20717 14.3499 7.16735 13.1199 7.15735H11.6199C10.4099 7.16735 9.15 7.21717 7.85 7.28717H7.83C3.8 7.65717 2.5 9.48717 2.5 14.7872C2.5 22.3872 5.35 22.3872 12.25 22.3872C19.15 22.3872 22 22.3872 22 14.7872C22 9.48717 20.7 7.65717 16.65 7.28717Z" fill="black"/>
<path fill-rule="evenodd" clip-rule="evenodd" d="M12.9998 4.16917L14.6388 5.81217C14.7848 5.95917 14.9778 6.03316 15.1698 6.03316C15.3608 6.03316 15.5528 5.95917 15.6988 5.81417C15.9928 5.52117 15.9928 5.04617 15.7008 4.75317L12.7808 1.82517C12.4998 1.54217 11.9998 1.54217 11.7188 1.82517L8.79883 4.75317C8.50683 5.04617 8.50683 5.52117 8.80083 5.81417C9.09483 6.10617 9.56883 6.10617 9.86083 5.81217L11.4998 4.16917V14.406C11.4998 14.8177 11.8454 15.1483 12.257 15.1483C12.6689 15.1483 12.9998 14.8173 12.9998 14.4054V4.16917Z" fill="black"/>
</svg>