<?xml version="1.0" encoding="UTF-8"?>
<svg width="24px" height="24px" viewBox="0 0 24 24" version="1.1" xmlns="http://www.w3.org/2000/svg" xmlns:xlink="http://www.w3.org/1999/xlink">
    <title>Iconly/Light-Outline/Upload</title>
    <g id="Iconly/Light-Outline/Upload" stroke="none" stroke-width="1" fill="none" fill-rule="evenodd">
        <g id="Upload" transform="translate(2.000000, 2.000000)" fill="#000000">
            <path d="M5.3684,6.7941 C5.7824,6.7941 6.1184,7.1301 6.1184,7.5441 C6.1184,7.9581 5.7824,8.2941 5.3684,8.2941 L4.4354,8.2941 C2.8164,8.2941 1.5004,9.6101 1.5004,11.2281 L1.5004,16.1031 C1.5004,17.7221 2.8164,19.0381 4.4354,19.0381 L15.5654,19.0381 C17.1834,19.0381 18.5004,17.7221 18.5004,16.1031 L18.5004,11.2191 C18.5004,9.6061 17.1884,8.2941 15.5764,8.2941 L14.6334,8.2941 C14.2194,8.2941 13.8834,7.9581 13.8834,7.5441 C13.8834,7.1301 14.2194,6.7941 14.6334,6.7941 L15.5764,6.7941 C18.0154,6.7941 20.0004,8.7791 20.0004,11.2191 L20.0004,16.1031 C20.0004,18.5491 18.0104,20.5381 15.5654,20.5381 L4.4354,20.5381 C1.9904,20.5381 0.0004,18.5491 0.0004,16.1031 L0.0004,11.2281 C0.0004,8.7831 1.9904,6.7941 4.4354,6.7941 L5.3684,6.7941 Z M10.531,0.2217 L13.447,3.1497 C13.739,3.4437 13.738,3.9177 13.445,4.2097 C13.151,4.5017 12.677,4.5017 12.385,4.2077 L10.7494,2.56645 L10.75,13.541 L9.25,13.541 L9.2494,2.56645 L7.616,4.2077 C7.47,4.3557 7.277,4.4287 7.085,4.4287 C6.894,4.4287 6.702,4.3557 6.556,4.2097 C6.263,3.9177 6.261,3.4437 6.554,3.1497 L9.469,0.2217 C9.75,-0.0613 10.25,-0.0613 10.531,0.2217 Z" id="Combined-Shape"></path>
        </g>
    </g>
</svg>