<svg width="25" height="25" viewBox="0 0 25 25" fill="none" xmlns="http://www.w3.org/2000/svg">
<path fill-rule="evenodd" clip-rule="evenodd" d="M2.25 10.5894L8.375 10.5894L8.375 12.0894L3.75 12.0894L3.75 21.1133L20.75 21.1133L20.75 12.0894L16.125 12.0894V10.5894L22.25 10.5894L22.25 22.6133L2.25 22.6133L2.25 10.5894Z" fill="black"/>
<path fill-rule="evenodd" clip-rule="evenodd" d="M11.501 1.66406L11.501 17.1033L13.001 17.1033L13.001 1.66406L11.501 1.66406Z" fill="black"/>
<path fill-rule="evenodd" clip-rule="evenodd" d="M13.001 2.41426C13.001 5.35924 10.4161 7.75977 7.65547 7.75977L6.90547 7.75977L6.90547 6.25977L7.65547 6.25977C9.61978 6.25977 11.501 4.49907 11.501 2.41426L11.501 1.66426L13.001 1.66426L13.001 2.41426Z" fill="black"/>
<path fill-rule="evenodd" clip-rule="evenodd" d="M11.501 2.41426C11.501 5.35924 14.0858 7.75977 16.8465 7.75977L17.5965 7.75977L17.5965 6.25977L16.8465 6.25977C14.8822 6.25977 13.001 4.49907 13.001 2.41426L13.001 1.66426L11.501 1.66426L11.501 2.41426Z" fill="black"/>
</svg>