<svg width="25" height="24" viewBox="0 0 25 24" fill="none" xmlns="http://www.w3.org/2000/svg">
<path fill-rule="evenodd" clip-rule="evenodd" d="M12.1208 15C11.7066 15 11.3708 14.6642 11.3708 14.25V2.209C11.3708 1.79479 11.7066 1.459 12.1208 1.459C12.5351 1.459 12.8708 1.79479 12.8708 2.209V14.25C12.8708 14.6642 12.5351 15 12.1208 15Z" fill="black"/>
<path fill-rule="evenodd" clip-rule="evenodd" d="M8.67559 5.66713C8.3821 5.37484 8.38112 4.89997 8.67342 4.60647L11.5894 1.67847C11.7302 1.53715 11.9214 1.45771 12.1208 1.45771C12.3203 1.45771 12.5115 1.53715 12.6523 1.67847L15.5683 4.60647C15.8605 4.89997 15.8596 5.37484 15.5661 5.66713C15.2726 5.95942 14.7977 5.95845 14.5054 5.66495L12.1208 3.27056L9.73625 5.66495C9.44396 5.95845 8.96909 5.95942 8.67559 5.66713Z" fill="black"/>
<path fill-rule="evenodd" clip-rule="evenodd" d="M4.45009 9.71174C5.02564 8.93503 5.96655 8.54673 7.69884 8.38705C8.11131 8.34903 8.41485 7.98384 8.37683 7.57137C8.33881 7.15891 7.97362 6.85536 7.56116 6.89338C5.71345 7.0637 4.21436 7.51041 3.24491 8.81869C2.31546 10.073 2 11.9628 2 14.6402C2 18.19 2.55654 20.3726 4.37994 21.4927C5.249 22.0265 6.3253 22.2624 7.55739 22.377C8.78465 22.4912 10.259 22.4912 11.9684 22.4912H12.0316C13.741 22.4912 15.2154 22.4912 16.4426 22.377C17.6747 22.2624 18.751 22.0265 19.6201 21.4927C21.4435 20.3726 22 18.19 22 14.6402C22 11.9628 21.6845 10.073 20.7551 8.81869C19.7856 7.51041 18.2866 7.0637 16.4388 6.89338C16.0264 6.85536 15.6612 7.15891 15.6232 7.57137C15.5851 7.98384 15.8887 8.34903 16.3012 8.38705C18.0334 8.54673 18.9744 8.93503 19.5499 9.71174C20.1655 10.5424 20.5 11.9876 20.5 14.6402C20.5 18.1914 19.9015 19.5593 18.8349 20.2145C18.259 20.5683 17.4565 20.7762 16.3036 20.8835C15.1535 20.9905 13.7472 20.9912 12 20.9912C10.2528 20.9912 8.84654 20.9905 7.69636 20.8835C6.54345 20.7762 5.741 20.5683 5.16506 20.2145C4.09846 19.5593 3.5 18.1914 3.5 14.6402C3.5 11.9876 3.83454 10.5424 4.45009 9.71174Z" fill="black"/>
</svg>