<svg width="24" height="24" viewBox="0 0 24 24" fill="none" xmlns="http://www.w3.org/2000/svg">
<path fill-rule="evenodd" clip-rule="evenodd" d="M15.968 15.661C15.783 15.847 15.538 15.949 15.277 15.949C14.739 15.949 14.3 15.512 14.3 14.974C14.3 14.436 14.738 13.999 15.276 13.999C15.813 13.999 16.25 14.436 16.25 14.974C16.252 15.229 16.152 15.475 15.968 15.661ZM11.999 8.979C11.127 8.979 10.294 9.412 9.714 10.168C9.462 10.496 8.992 10.558 8.662 10.306C8.334 10.054 8.273 9.583 8.525 9.254C9.391 8.126 10.657 7.479 11.999 7.479C13.341 7.479 14.608 8.126 15.474 9.254C15.726 9.583 15.664 10.054 15.336 10.306C15.199 10.411 15.039 10.461 14.88 10.461C14.655 10.461 14.432 10.36 14.284 10.168C13.704 9.412 12.871 8.979 11.999 8.979ZM9.468 15.661C9.283 15.847 9.038 15.949 8.777 15.949C8.239 15.949 7.8 15.512 7.8 14.974C7.8 14.436 8.238 13.999 8.776 13.999C9.313 13.999 9.75 14.436 9.75 14.974C9.752 15.229 9.652 15.475 9.468 15.661ZM12 2.5C6.762 2.5 2.5 6.762 2.5 12C2.5 17.239 6.762 21.5 12 21.5C17.239 21.5 21.5 17.239 21.5 12C21.5 6.762 17.239 2.5 12 2.5Z" fill="black"/>
</svg>