<svg width="25" height="24" viewBox="0 0 25 24" fill="none" xmlns="http://www.w3.org/2000/svg">
<path d="M12.25 21.75C10.3216 21.75 8.43657 21.1782 6.83319 20.1068C5.22982 19.0355 3.98013 17.5128 3.24218 15.7312C2.50422 13.9496 2.31114 11.9892 2.68735 10.0979C3.06355 8.20656 3.99215 6.46928 5.35571 5.10572C6.71928 3.74215 8.45656 2.81356 10.3479 2.43735C12.2392 2.06114 14.1996 2.25422 15.9812 2.99217C17.7627 3.73013 19.2855 4.97981 20.3568 6.58319C21.4282 8.18657 22 10.0716 22 12C21.9971 14.585 20.9689 17.0632 19.1411 18.8911C17.3132 20.7189 14.835 21.7471 12.25 21.75ZM12.25 3.75C10.6183 3.75 9.02326 4.23386 7.66655 5.14038C6.30984 6.0469 5.25242 7.33538 4.628 8.84287C4.00358 10.3504 3.8402 12.0092 4.15853 13.6095C4.47685 15.2098 5.26259 16.6799 6.41637 17.8336C7.57016 18.9874 9.04017 19.7731 10.6405 20.0915C12.2409 20.4098 13.8997 20.2464 15.4071 19.622C16.9146 18.9976 18.2031 17.9402 19.1096 16.5835C20.0161 15.2267 20.5 13.6317 20.5 12C20.4976 9.8127 19.6277 7.71567 18.081 6.16901C16.5343 4.62235 14.4373 3.75238 12.25 3.75Z" fill="black"/>
<path d="M9.02678 15.95C8.8339 15.9502 8.6453 15.8932 8.48483 15.7862C8.32436 15.6792 8.19924 15.527 8.12529 15.3488C8.05134 15.1707 8.03189 14.9746 8.06939 14.7854C8.1069 14.5962 8.19968 14.4224 8.336 14.2859C8.47232 14.1495 8.64604 14.0565 8.8352 14.0188C9.02436 13.9811 9.22045 14.0004 9.39867 14.0741C9.57688 14.1479 9.72922 14.2729 9.8364 14.4332C9.94357 14.5936 10.0008 14.7821 10.0008 14.975C10.001 15.103 9.97604 15.2299 9.9272 15.3482C9.87835 15.4665 9.80664 15.5741 9.71615 15.6647C9.62567 15.7552 9.5182 15.8271 9.3999 15.876C9.28161 15.925 9.15481 15.9501 9.02678 15.95Z" fill="black"/>
<path d="M15.5268 15.95C15.3339 15.9502 15.1453 15.8932 14.9848 15.7862C14.8244 15.6792 14.6992 15.527 14.6253 15.3488C14.5513 15.1707 14.5319 14.9746 14.5694 14.7854C14.6069 14.5962 14.6997 14.4224 14.836 14.2859C14.9723 14.1495 15.146 14.0565 15.3352 14.0188C15.5244 13.9811 15.7205 14.0004 15.8987 14.0741C16.0769 14.1479 16.2292 14.2729 16.3364 14.4332C16.4436 14.5936 16.5008 14.7821 16.5008 14.975C16.501 15.103 16.476 15.2299 16.4272 15.3482C16.3784 15.4665 16.3066 15.5741 16.2162 15.6647C16.1257 15.7552 16.0182 15.8271 15.8999 15.876C15.7816 15.925 15.6548 15.9501 15.5268 15.95Z" fill="black"/>
<path d="M9.36861 10.4625C9.22813 10.4635 9.09019 10.425 8.97051 10.3515C8.85083 10.2779 8.75422 10.1722 8.69168 10.0464C8.62915 9.9206 8.6032 9.77976 8.6168 9.63994C8.63041 9.50011 8.683 9.36691 8.76861 9.25552C9.1662 8.70594 9.68848 8.25849 10.2926 7.94992C10.8966 7.64135 11.5653 7.48047 12.2436 7.48047C12.9219 7.48047 13.5906 7.64135 14.1947 7.94992C14.7987 8.25849 15.321 8.70594 15.7186 9.25552C15.8398 9.41333 15.8934 9.61282 15.8675 9.8101C15.8416 10.0074 15.7384 10.1863 15.5806 10.3075C15.4228 10.4287 15.2233 10.4823 15.026 10.4564C14.8287 10.4305 14.6498 10.3273 14.5286 10.1695C14.2713 9.80229 13.9293 9.50248 13.5316 9.29549C13.1338 9.08849 12.692 8.98042 12.2436 8.98042C11.7952 8.98042 11.3534 9.08849 10.9557 9.29549C10.5579 9.50248 10.2159 9.80229 9.95861 10.1695C9.8891 10.2601 9.79981 10.3336 9.69755 10.3844C9.59529 10.4352 9.48278 10.4619 9.36861 10.4625Z" fill="black"/>
</svg>