<svg width="24" height="24" viewBox="0 0 24 24" fill="none" xmlns="http://www.w3.org/2000/svg">
<path opacity="0.4" d="M12 21C16.9709 21 21 16.9709 21 12C21 7.02908 16.9709 3 12 3C7.02908 3 3 7.02908 3 12C3 16.9709 7.02908 21 12 21Z" stroke="black" stroke-width="1.5" stroke-linecap="round" stroke-linejoin="round"/>
<path d="M10.7266 9.29004C11.3631 10.8815 12.5581 14.3827 14.8644 14.3827C16.0779 14.3827 17.0924 13.3682 17.0924 12.1547C17.0924 10.9411 16.0779 9.92662 14.8644 9.92662C13.574 9.92662 12.8101 10.8815 12.6363 11.8364C12.4823 12.683 11.6814 16.9291 11.6814 16.9291" stroke="black" stroke-width="1.5" stroke-linecap="round"/>
<path d="M6.90723 9.29004V12.473C6.90723 13.5131 7.7768 14.3827 8.81698 14.3827C9.85716 14.3827 10.7267 13.5131 10.7267 12.473V9.29004" stroke="black" stroke-width="1.5" stroke-linecap="round"/>
</svg>