<svg width="24" height="24" viewBox="0 0 24 24" fill="none" xmlns="http://www.w3.org/2000/svg">
<path fill-rule="evenodd" clip-rule="evenodd" d="M12 3.75C7.44329 3.75 3.75 7.44329 3.75 12C3.75 16.5567 7.44329 20.25 12 20.25C16.5567 20.25 20.25 16.5567 20.25 12C20.25 7.44329 16.5567 3.75 12 3.75ZM2.25 12C2.25 6.61487 6.61487 2.25 12 2.25C17.3851 2.25 21.75 6.61487 21.75 12C21.75 17.3851 17.3851 21.75 12 21.75C6.61487 21.75 2.25 17.3851 2.25 12Z" fill="black"/>
<path fill-rule="evenodd" clip-rule="evenodd" d="M10.5849 8.55651C10.9379 8.48853 11.2895 8.68063 11.423 9.01444C11.4711 9.13465 11.5212 9.26233 11.5736 9.39584C11.7472 9.83854 11.9459 10.3453 12.1806 10.8561C12.6288 9.9475 13.5312 9.17956 14.8644 9.17956C16.4922 9.17956 17.8424 10.5298 17.8424 12.1576C17.8424 13.7853 16.4922 15.1356 14.8644 15.1356C14.1008 15.1356 13.4555 14.8544 12.9143 14.4372C12.8889 14.5725 12.8635 14.7078 12.8383 14.8417C12.7285 15.4254 12.6236 15.9827 12.5461 16.3941L12.4187 17.0701L11.6815 16.9319L10.9446 16.7928L11.072 16.1164C11.1495 15.7052 11.2544 15.1481 11.3641 14.5645C11.4623 14.0423 11.5642 13.4998 11.6537 13.0218C11.6119 12.9583 11.5714 12.8948 11.5322 12.8315C11.5096 12.7951 11.4873 12.7586 11.4651 12.7218C11.3386 14.0636 10.1885 15.1356 8.81696 15.1356C7.36258 15.1356 6.15723 13.9302 6.15723 12.4759V9.29298C6.15723 8.87877 6.49301 8.54298 6.90723 8.54298C7.32144 8.54298 7.65723 8.87877 7.65723 9.29298V12.4759C7.65723 13.1018 8.191 13.6356 8.81696 13.6356C9.44291 13.6356 9.97668 13.1018 9.97668 12.4759V9.29298C9.97668 8.93346 10.2318 8.6245 10.5849 8.55651ZM11.6815 16.9319L10.9446 16.7928C10.8678 17.1999 11.1355 17.5921 11.5425 17.6689C11.9496 17.7457 12.3419 17.4772 12.4187 17.0701L11.6815 16.9319ZM13.2461 12.666C13.7571 13.2983 14.294 13.6356 14.8644 13.6356C15.6637 13.6356 16.3424 12.9569 16.3424 12.1576C16.3424 11.3583 15.6637 10.6796 14.8644 10.6796C14.0217 10.6796 13.4997 11.2843 13.3743 11.9736C13.3479 12.1186 13.3028 12.362 13.2461 12.666Z" fill="black"/>
</svg>