<svg width="24" height="24" viewBox="0 0 24 24" fill="none" xmlns="http://www.w3.org/2000/svg">
<path fill-rule="evenodd" clip-rule="evenodd" d="M9.60817 4.51355C9.96121 4.44556 10.3128 4.63766 10.4464 4.97147C10.5291 5.17821 10.6159 5.39982 10.7074 5.63317C11.1503 6.76344 11.7012 8.1691 12.4108 9.49438C12.8089 7.57917 14.391 5.62501 17.0625 5.62501C19.6213 5.62501 21.75 7.75367 21.75 10.3125C21.75 12.8713 19.6213 15 17.0625 15C15.5207 15 14.2601 14.266 13.2375 13.2395C13.1322 13.8005 13.0229 14.3823 12.9162 14.9497C12.7223 15.9813 12.5369 16.9661 12.3999 17.693L12.1746 18.8887L11.4375 18.75L10.7005 18.6109L10.9259 17.4153C11.0628 16.6885 11.2482 15.7039 11.4421 14.6725C11.6315 13.6651 11.8288 12.614 11.997 11.7152C11.8811 11.545 11.7697 11.3729 11.6625 11.2002C11.2279 10.4998 10.8418 9.7536 10.5 9.02112V10.875C10.5 13.1275 8.62746 15 6.375 15C4.12254 15 2.25 13.1275 2.25 10.875V5.25001C2.25 4.8358 2.58579 4.50001 3 4.50001C3.41421 4.50001 3.75 4.8358 3.75 5.25001V10.875C3.75 12.299 4.95096 13.5 6.375 13.5C7.79904 13.5 9 12.299 9 10.875V5.25001C9 4.89049 9.25513 4.58153 9.60817 4.51355ZM11.4375 18.75L10.7005 18.6109C10.6237 19.018 10.8915 19.4102 11.2985 19.487C11.7055 19.5638 12.0978 19.2957 12.1746 18.8887L11.4375 18.75ZM13.5891 11.3611C14.5925 12.6761 15.7377 13.5 17.0625 13.5C18.7929 13.5 20.25 12.0429 20.25 10.3125C20.25 8.5821 18.7929 7.12501 17.0625 7.12501C15.2298 7.12501 14.1216 8.46238 13.8629 9.88429C13.8092 10.1791 13.7115 10.7056 13.5891 11.3611Z" fill="black"/>
</svg>