<svg width="25" height="24" viewBox="0 0 25 24" fill="none" xmlns="http://www.w3.org/2000/svg">
<path d="M14.75 9.75C14.75 9.75 14 9 13.25 9H11.75C10.9216 9 10.25 9.67157 10.25 10.5C10.25 11.3284 10.9216 12 11.75 12H13.25C14.0784 12 14.75 12.6716 14.75 13.5C14.75 14.3284 14.0784 15 13.25 15H11.75C11 15 10.25 14.25 10.25 14.25" stroke="black" stroke-width="1.5" stroke-linecap="round" stroke-linejoin="round"/>
<path d="M12.5 7.5V9M12.5 15V16.5" stroke="black" stroke-width="1.5" stroke-linecap="round" stroke-linejoin="round"/>
<path d="M11 17.8125C8.37643 17.1407 6.48828 14.7082 6.48828 12" stroke="black" stroke-width="1.5" stroke-linecap="round" stroke-linejoin="round"/>
<path d="M7.08887 9.41081C7.84605 7.85121 9.26177 6.63269 11.0005 6.1875" stroke="black" stroke-width="1.5" stroke-linecap="round" stroke-linejoin="round"/>
<path d="M14 6.1875C16.2148 6.75458 17.9055 8.57643 18.3786 10.7597" stroke="black" stroke-width="1.5" stroke-linecap="round" stroke-linejoin="round"/>
<path d="M18.0583 14.2637C17.3475 15.9784 15.8582 17.3374 14 17.8132" stroke="black" stroke-width="1.5" stroke-linecap="round" stroke-linejoin="round"/>
<path d="M12.5 21C7.52944 21 3.5 16.9706 3.5 12C3.5 7.02944 7.52944 3 12.5 3C17.4706 3 21.5 7.02944 21.5 12C21.5 15.4651 19.5417 18.4729 16.6715 19.9769" stroke="black" stroke-width="1.5" stroke-linecap="round" stroke-linejoin="round"/>
</svg>