<svg width="25" height="24" viewBox="0 0 25 24" fill="none" xmlns="http://www.w3.org/2000/svg">
<path fill-rule="evenodd" clip-rule="evenodd" d="M12.25 3.75C7.69365 3.75 4 7.44365 4 12C4 16.5563 7.69365 20.25 12.25 20.25C16.8063 20.25 20.5 16.5563 20.5 12C20.5 7.44365 16.8063 3.75 12.25 3.75ZM2.5 12C2.5 6.61522 6.86522 2.25 12.25 2.25C17.6348 2.25 22 6.61522 22 12C22 17.3848 17.6348 21.75 12.25 21.75C6.86522 21.75 2.5 17.3848 2.5 12Z" fill="black"/>
<path fill-rule="evenodd" clip-rule="evenodd" d="M9.25 10.5C9.25 9.25736 10.2574 8.25 11.5 8.25H13C13.6004 8.25 14.1287 8.53856 14.4473 8.75096C14.6188 8.8653 14.7602 8.97853 14.8592 9.06337C14.9091 9.10612 14.9492 9.14255 14.978 9.16948C14.9925 9.18297 15.0042 9.19415 15.013 9.20263L15.0239 9.21329L15.0277 9.21703L15.0292 9.21849L15.0301 9.2194C15.0302 9.21954 15.0303 9.21967 14.5195 9.7305L15.0301 9.2194C15.323 9.5123 15.3232 9.98744 15.0303 10.2803C14.7374 10.5732 14.2626 10.5732 13.9697 10.2803L14.5 9.75C13.9697 10.2803 13.9695 10.2802 13.9697 10.2803L13.9706 10.2812L13.9718 10.2824C13.9718 10.2824 13.971 10.2816 13.9697 10.2803L13.9546 10.2661C13.9395 10.252 13.9152 10.2298 13.883 10.2023C13.8179 10.1465 13.725 10.0722 13.6152 9.99904C13.3713 9.83644 13.1496 9.75 13 9.75H11.5C11.0858 9.75 10.75 10.0858 10.75 10.5C10.75 10.9142 11.0858 11.25 11.5 11.25H13C14.2426 11.25 15.25 12.2574 15.25 13.5C15.25 14.7426 14.2426 15.75 13 15.75H11.5C10.8996 15.75 10.3713 15.4614 10.0527 15.249C9.88122 15.1347 9.73979 15.0215 9.64081 14.9366C9.59093 14.8939 9.55081 14.8575 9.52195 14.8305C9.5075 14.817 9.4958 14.8059 9.48704 14.7974L9.4761 14.7867L9.47232 14.783L9.47085 14.7815L9.46994 14.7806C9.4698 14.7805 9.46967 14.7803 10 14.25L9.46994 14.7806C9.17704 14.4877 9.17678 14.0126 9.46967 13.7197C9.76195 13.4274 10.2354 13.4268 10.5285 13.7178C10.5285 13.7179 10.5284 13.7177 10.5285 13.7178C10.5289 13.7183 10.5294 13.7187 10.5298 13.7192L10.5454 13.7339C10.5605 13.748 10.5848 13.7702 10.617 13.7977C10.6821 13.8535 10.775 13.9278 10.8848 14.001C11.1287 14.1636 11.3504 14.25 11.5 14.25H13C13.4142 14.25 13.75 13.9142 13.75 13.5C13.75 13.0858 13.4142 12.75 13 12.75H11.5C10.2574 12.75 9.25 11.7426 9.25 10.5Z" fill="black"/>
<path fill-rule="evenodd" clip-rule="evenodd" d="M12.25 6.75C12.6642 6.75 13 7.08579 13 7.5V9C13 9.41421 12.6642 9.75 12.25 9.75C11.8358 9.75 11.5 9.41421 11.5 9V7.5C11.5 7.08579 11.8358 6.75 12.25 6.75ZM12.25 14.25C12.6642 14.25 13 14.5858 13 15V16.5C13 16.9142 12.6642 17.25 12.25 17.25C11.8358 17.25 11.5 16.9142 11.5 16.5V15C11.5 14.5858 11.8358 14.25 12.25 14.25Z" fill="black"/>
<path fill-rule="evenodd" clip-rule="evenodd" d="M11.4766 6.00165C11.5793 6.40292 11.3373 6.8115 10.9361 6.91424C8.64432 7.50102 6.98828 9.6345 6.98828 12.0002C6.98828 14.3659 8.64432 16.4993 10.9361 17.0861C11.3373 17.1889 11.5793 17.5974 11.4766 17.9987C11.3739 18.4 10.9653 18.642 10.564 18.5392C7.60855 17.7825 5.48828 15.051 5.48828 12.0002C5.48828 8.94937 7.60855 6.21784 10.564 5.46112C10.9653 5.35838 11.3739 5.60038 11.4766 6.00165Z" fill="black"/>
<path fill-rule="evenodd" clip-rule="evenodd" d="M13.0236 6.00165C13.1264 5.60038 13.5349 5.35838 13.9362 5.46112C16.8917 6.21784 19.0119 8.94937 19.0119 12.0002C19.0119 15.051 16.8917 17.7825 13.9362 18.5392C13.5349 18.642 13.1264 18.4 13.0236 17.9987C12.9209 17.5974 13.1629 17.1889 13.5642 17.0861C15.8559 16.4993 17.5119 14.3659 17.5119 12.0002C17.5119 9.6345 15.8559 7.50102 13.5642 6.91424C13.1629 6.8115 12.9209 6.40292 13.0236 6.00165Z" fill="black"/>
</svg>