<svg width="25" height="24" viewBox="0 0 25 24" fill="none" xmlns="http://www.w3.org/2000/svg">
<path opacity="0.4" fill-rule="evenodd" clip-rule="evenodd" d="M17.0959 19.9996C17.0959 19.9996 19.3505 19.3164 19.3505 17.4346C19.3505 15.5519 19.4326 15.4057 19.2519 15.2241C19.0703 15.0416 17.3917 14.457 17.0959 14.457C16.8001 14.457 15.1207 15.0425 14.9399 15.2241C14.7592 15.4049 14.8405 15.5519 14.8405 17.4346C14.8405 19.3164 17.0959 19.9996 17.0959 19.9996Z" stroke="black" stroke-width="1.5" stroke-linecap="round" stroke-linejoin="round"/>
<path fill-rule="evenodd" clip-rule="evenodd" d="M16.0935 7.96081C16.0935 10.1479 14.3198 11.9216 12.1327 11.9216C9.94559 11.9216 8.17188 10.1479 8.17188 7.96081C8.17188 5.77285 9.94559 4 12.1327 4C14.3198 4 16.0935 5.77285 16.0935 7.96081Z" stroke="black" stroke-width="1.5" stroke-linecap="round" stroke-linejoin="round"/>
<path d="M5.93164 19.3618C5.93164 17.3373 7.52894 14.8164 12.1323 14.8164" stroke="black" stroke-width="1.5" stroke-linecap="round" stroke-linejoin="round"/>
</svg>