<svg width="25" height="24" viewBox="0 0 25 24" fill="none" xmlns="http://www.w3.org/2000/svg">
<path opacity="0.4" d="M15.5383 16.7225L16.4583 17.6443L18.3547 15.747M13.6707 14.4264C13.6707 13.8613 14.1285 13.4026 14.6944 13.4018H15.1603C15.4303 13.4018 15.6896 13.2954 15.8818 13.1049L16.2073 12.7786C16.6052 12.3771 17.2543 12.3762 17.6549 12.7741L17.6558 12.775L17.6593 12.7786L17.9857 13.104C18.177 13.2945 18.4363 13.4018 18.7072 13.4018H19.174C19.7391 13.4018 20.1977 13.8604 20.1977 14.4264V14.8914C20.1977 15.1614 20.305 15.4216 20.4955 15.6129L20.8209 15.9393C21.2224 16.338 21.2251 16.9863 20.8263 17.3877L20.8218 17.3913L20.4955 17.7177C20.305 17.9099 20.1986 18.1683 20.1986 18.4383V18.9059C20.1977 19.471 19.7391 19.9288 19.174 19.9279H18.7064C18.4354 19.9279 18.1761 20.0352 17.9848 20.2257L17.6584 20.552C17.2606 20.9535 16.6132 20.9562 16.2109 20.5583L16.21 20.5565L16.2064 20.5529L15.88 20.2274C15.6887 20.037 15.4294 19.9297 15.1594 19.9297H14.6944C14.1294 19.9297 13.6707 19.471 13.6707 18.9059V18.4374C13.6707 18.1674 13.5634 17.909 13.3729 17.7168L13.0475 17.3904C12.646 16.9934 12.6424 16.3452 13.0403 15.9437L13.0421 15.9419L13.0466 15.9384L13.372 15.612C13.5625 15.4207 13.6698 15.1614 13.6698 14.8905L13.6707 14.4264Z" stroke="black" stroke-width="1.5" stroke-linecap="round" stroke-linejoin="round"/>
<path d="M4.17773 19.0276C4.17773 16.9345 5.83006 14.3281 10.5886 14.3281" stroke="black" stroke-width="1.5" stroke-linecap="round" stroke-linejoin="round"/>
<path fill-rule="evenodd" clip-rule="evenodd" d="M14.6843 7.24349C14.6843 9.50472 12.8504 11.3386 10.5892 11.3386C8.32798 11.3386 6.49414 9.50472 6.49414 7.24349C6.49414 4.98227 8.32798 3.14844 10.5892 3.14844C12.8504 3.14844 14.6843 4.98227 14.6843 7.24349Z" stroke="black" stroke-width="1.5" stroke-linecap="round" stroke-linejoin="round"/>
</svg>