<svg width="25" height="24" viewBox="0 0 25 24" fill="none" xmlns="http://www.w3.org/2000/svg">
<path fill-rule="evenodd" clip-rule="evenodd" d="M16.8239 15.3145C16.4689 15.3145 16.1129 15.4485 15.8449 15.7185C15.3039 16.2595 15.3039 17.1405 15.8449 17.6815C16.3829 18.2205 17.2649 18.2195 17.8089 17.6805C18.3479 17.1395 18.3479 16.2595 17.8079 15.7185C17.5369 15.4495 17.1799 15.3145 16.8239 15.3145ZM19.8069 20.6805C19.5519 20.6805 19.2949 20.5835 19.0989 20.3875L18.4079 19.6945C17.1239 20.3665 15.5019 20.1675 14.4279 19.0945C13.1119 17.7735 13.1119 15.6265 14.4279 14.3065C15.7449 12.9875 17.8939 12.9865 19.2199 14.3025C20.2959 15.3795 20.4959 17.0025 19.8229 18.2815L20.5149 18.9745C20.9049 19.3645 20.9049 19.9985 20.5139 20.3885C20.3189 20.5835 20.0629 20.6805 19.8069 20.6805Z" fill="black"/>
<path fill-rule="evenodd" clip-rule="evenodd" d="M10.7046 3.25C8.01659 3.25 5.82959 5.437 5.82959 8.125C5.82959 10.814 8.01659 13.001 10.7046 13.001C13.3926 13.001 15.5796 10.814 15.5796 8.125C15.5796 5.437 13.3926 3.25 10.7046 3.25Z" fill="black"/>
<path opacity="0.4" fill-rule="evenodd" clip-rule="evenodd" d="M10.7032 14.5215C5.72316 14.5215 3.49316 17.2715 3.49316 20.0015C3.49316 20.2015 3.57316 20.3915 3.71316 20.5315C3.85316 20.6715 4.04316 20.7515 4.24316 20.7515C4.24316 20.7515 8.70316 20.7445 10.0532 20.7425C10.0532 20.7425 11.2242 20.7405 11.2302 20.7405C11.3352 20.7375 11.4362 20.7185 11.5352 20.6865C11.9602 20.5655 12.2352 20.2175 12.2352 19.7225V15.5395C12.2352 14.9275 11.7912 14.5215 10.7032 14.5215Z" fill="black"/>
</svg>