<svg width="25" height="24" viewBox="0 0 25 24" fill="none" xmlns="http://www.w3.org/2000/svg">
<path fill-rule="evenodd" clip-rule="evenodd" d="M3.17664 13.3305C2.78764 13.3305 2.45864 13.0305 2.42964 12.6375C2.34764 11.5415 2.45564 10.4355 2.75164 9.35047C2.86064 8.95047 3.26564 8.71447 3.67264 8.82347C4.07264 8.93347 4.30864 9.34547 4.19864 9.74447C3.94764 10.6645 3.85664 11.6005 3.92564 12.5235C3.95664 12.9365 3.64764 13.2975 3.23464 13.3285C3.21464 13.3295 3.19664 13.3305 3.17664 13.3305Z" fill="black"/>
<path fill-rule="evenodd" clip-rule="evenodd" d="M4.92674 7.38179C4.77374 7.38179 4.61774 7.33479 4.48474 7.23679C4.15074 6.99179 4.07774 6.52279 4.32274 6.18879C4.77474 5.57179 5.30374 5.00579 5.89574 4.50679C6.21174 4.23979 6.68474 4.27979 6.95174 4.59679C7.21874 4.91279 7.17874 5.38579 6.86274 5.65279C6.36174 6.07579 5.91374 6.55479 5.53274 7.07479C5.38574 7.27579 5.15774 7.38179 4.92674 7.38179Z" fill="black"/>
<path fill-rule="evenodd" clip-rule="evenodd" d="M6.99967 20.1131C6.85367 20.1131 6.70367 20.0701 6.57367 19.9791C5.09367 18.9551 3.92567 17.5381 3.19567 15.8831C3.02867 15.5031 3.20067 15.0601 3.57967 14.8931C3.95767 14.7281 4.40067 14.8981 4.56867 15.2771C5.18667 16.6791 6.17467 17.8791 7.42767 18.7471C7.76867 18.9821 7.85367 19.4491 7.61667 19.7901C7.47167 20.0011 7.23767 20.1131 6.99967 20.1131Z" fill="black"/>
<path fill-rule="evenodd" clip-rule="evenodd" d="M12.1619 21.7501C11.4459 21.7501 10.7299 21.6711 10.0269 21.5131C9.62288 21.4231 9.36888 21.0211 9.45988 20.6171C9.55088 20.2131 9.94988 19.9581 10.3549 20.0501C11.1519 20.2281 11.9659 20.2881 12.7779 20.2271C14.4169 20.1041 15.9629 19.5071 17.2499 18.4971C17.5769 18.2381 18.0479 18.2991 18.3029 18.6241C18.5579 18.9501 18.5019 19.4211 18.1759 19.6771C16.6539 20.8711 14.8259 21.5781 12.8909 21.7231C12.6479 21.7411 12.4049 21.7501 12.1619 21.7501Z" fill="black"/>
<path fill-rule="evenodd" clip-rule="evenodd" d="M19.7956 17.4733C19.6606 17.4733 19.5246 17.4373 19.4016 17.3613C19.0496 17.1433 18.9416 16.6813 19.1586 16.3283C20.0276 14.9233 20.4546 13.3213 20.3926 11.6923C20.2166 7.14226 16.3716 3.58526 11.8196 3.75526C11.4126 3.79626 11.0586 3.44926 11.0426 3.03526C11.0256 2.62126 11.3496 2.27326 11.7636 2.25726C17.1036 2.05126 21.6826 6.25726 21.8906 11.6343C21.9646 13.5623 21.4616 15.4583 20.4346 17.1183C20.2926 17.3473 20.0466 17.4733 19.7956 17.4733Z" fill="black"/>
<path fill-rule="evenodd" clip-rule="evenodd" d="M12.1123 11.9697C13.6973 11.9697 14.9853 10.6807 14.9853 9.09566C14.9853 7.51166 13.6973 6.22266 12.1123 6.22266C10.5273 6.22266 9.23926 7.51166 9.23926 9.09566C9.23926 10.6807 10.5273 11.9697 12.1123 11.9697Z" fill="black"/>
<path fill-rule="evenodd" clip-rule="evenodd" d="M12.1125 12.9512C8.96855 12.9512 7.56055 14.6902 7.56055 16.4142C7.56055 16.5402 7.61055 16.6602 7.69955 16.7492C7.78755 16.8382 7.90855 16.8872 8.03355 16.8872H8.03455L16.1915 16.8762C16.4525 16.8762 16.6635 16.6642 16.6635 16.4022C16.6635 14.6842 15.2565 12.9512 12.1125 12.9512Z" fill="black"/>
</svg>