<svg width="25" height="24" viewBox="0 0 25 24" fill="none" xmlns="http://www.w3.org/2000/svg">
<path d="M15.0383 16.7225L15.9583 17.6443L17.8547 15.747M13.1707 14.4264C13.1707 13.8613 13.6285 13.4026 14.1944 13.4018H14.6603C14.9303 13.4018 15.1896 13.2954 15.3818 13.1049L15.7073 12.7786C16.1052 12.3771 16.7543 12.3762 17.1549 12.7741L17.1558 12.775L17.1593 12.7786L17.4857 13.104C17.677 13.2945 17.9363 13.4018 18.2072 13.4018H18.674C19.2391 13.4018 19.6977 13.8604 19.6977 14.4264V14.8914C19.6977 15.1614 19.805 15.4216 19.9955 15.6129L20.3209 15.9393C20.7224 16.338 20.7251 16.9863 20.3263 17.3877L20.3218 17.3913L19.9955 17.7177C19.805 17.9099 19.6986 18.1683 19.6986 18.4383V18.9059C19.6977 19.471 19.2391 19.9288 18.674 19.9279H18.2064C17.9354 19.9279 17.6761 20.0352 17.4848 20.2257L17.1584 20.552C16.7606 20.9535 16.1132 20.9562 15.7109 20.5583L15.71 20.5565L15.7064 20.5529L15.38 20.2274C15.1887 20.037 14.9294 19.9297 14.6594 19.9297H14.1944C13.6294 19.9297 13.1707 19.471 13.1707 18.9059V18.4374C13.1707 18.1674 13.0634 17.909 12.8729 17.7168L12.5475 17.3904C12.146 16.9934 12.1424 16.3452 12.5403 15.9437L12.5421 15.9419L12.5466 15.9384L12.872 15.612C13.0625 15.4207 13.1698 15.1614 13.1698 14.8905L13.1707 14.4264Z" stroke="black" stroke-width="1.5" stroke-linecap="round" stroke-linejoin="round"/>
<path d="M3.67773 19.0276C3.67773 16.9345 5.33006 14.3281 10.0886 14.3281" stroke="black" stroke-width="1.5" stroke-linecap="round" stroke-linejoin="round"/>
<path fill-rule="evenodd" clip-rule="evenodd" d="M14.1843 7.24349C14.1843 9.50472 12.3504 11.3386 10.0892 11.3386C7.82798 11.3386 5.99414 9.50472 5.99414 7.24349C5.99414 4.98227 7.82798 3.14844 10.0892 3.14844C12.3504 3.14844 14.1843 4.98227 14.1843 7.24349Z" stroke="black" stroke-width="1.5" stroke-linecap="round" stroke-linejoin="round"/>
</svg>