<svg width="25" height="24" viewBox="0 0 25 24" fill="none" xmlns="http://www.w3.org/2000/svg">
<path d="M18.1348 16.2332V15.3325C18.1251 14.5282 17.465 13.8849 16.6607 13.8946C15.8741 13.9044 15.237 14.5388 15.2237 15.3263V16.2332M17.8981 19.9994H15.4595C14.7905 19.9994 14.249 19.4579 14.249 18.7889V17.4201C14.249 16.7521 14.7905 16.2097 15.4595 16.2097H17.8981C18.5661 16.2097 19.1085 16.7521 19.1085 17.4201V18.7889C19.1085 19.4579 18.5661 19.9994 17.8981 19.9994Z" stroke="black" stroke-width="1.5" stroke-linecap="round" stroke-linejoin="round"/>
<path d="M5.69238 19.7171C5.69238 17.6457 7.32666 15.0664 12.0366 15.0664" stroke="black" stroke-width="1.5" stroke-linecap="round" stroke-linejoin="round"/>
<path d="M7.98438 8.05273C7.98438 10.2906 9.79832 12.1055 12.0362 12.1055C14.275 12.1055 16.0889 10.2906 16.0889 8.05273C16.0889 5.81486 14.275 4 12.0362 4C10.813 4 9.71651 4.54218 8.97361 5.39926" stroke="black" stroke-width="1.5" stroke-linecap="round" stroke-linejoin="round"/>
</svg>