<svg width="25" height="24" viewBox="0 0 25 24" fill="none" xmlns="http://www.w3.org/2000/svg">
<path fill-rule="evenodd" clip-rule="evenodd" d="M16.8242 15.3145C16.4692 15.3145 16.1132 15.4485 15.8452 15.7185C15.3042 16.2595 15.3042 17.1405 15.8452 17.6815C16.3832 18.2205 17.2652 18.2195 17.8092 17.6805C18.3482 17.1395 18.3482 16.2595 17.8082 15.7185C17.5372 15.4495 17.1802 15.3145 16.8242 15.3145ZM19.8072 20.6805C19.5522 20.6805 19.2952 20.5835 19.0992 20.3875L18.4082 19.6945C17.1242 20.3665 15.5022 20.1675 14.4282 19.0945C13.1122 17.7735 13.1122 15.6265 14.4282 14.3065C15.7452 12.9875 17.8942 12.9865 19.2202 14.3025C20.2962 15.3795 20.4962 17.0025 19.8232 18.2815L20.5152 18.9745C20.9052 19.3645 20.9052 19.9985 20.5142 20.3885C20.3192 20.5835 20.0632 20.6805 19.8072 20.6805Z" fill="black"/>
<path fill-rule="evenodd" clip-rule="evenodd" d="M10.7048 3.25C8.01683 3.25 5.82983 5.437 5.82983 8.125C5.82983 10.814 8.01683 13.001 10.7048 13.001C13.3928 13.001 15.5798 10.814 15.5798 8.125C15.5798 5.437 13.3928 3.25 10.7048 3.25Z" fill="black"/>
<path fill-rule="evenodd" clip-rule="evenodd" d="M10.7034 14.5215C5.72341 14.5215 3.49341 17.2715 3.49341 20.0015C3.49341 20.2015 3.57341 20.3915 3.71341 20.5315C3.85341 20.6715 4.04341 20.7515 4.24341 20.7515C4.24341 20.7515 8.70341 20.7445 10.0534 20.7425C10.0534 20.7425 11.2244 20.7405 11.2304 20.7405C11.3354 20.7375 11.4364 20.7185 11.5354 20.6865C11.9604 20.5655 12.2354 20.2175 12.2354 19.7225V15.5395C12.2354 14.9275 11.7914 14.5215 10.7034 14.5215Z" fill="black"/>
</svg>