<svg width="25" height="24" viewBox="0 0 25 24" fill="none" xmlns="http://www.w3.org/2000/svg">
<path fill-rule="evenodd" clip-rule="evenodd" d="M12.1504 17.4452C11.0804 17.4452 7.82539 17.4452 7.82539 15.4772C7.82539 13.7242 10.2944 13.5212 12.1504 13.5212C13.2204 13.5212 16.4754 13.5212 16.4754 15.4892C16.4754 17.2422 14.0074 17.4452 12.1504 17.4452ZM12.1504 6.55322C13.7404 6.55322 15.0334 7.84622 15.0334 9.43422C15.0334 11.0222 13.7404 12.3142 12.1504 12.3142C10.5604 12.3142 9.26739 11.0222 9.26739 9.43422C9.26739 7.84622 10.5604 6.55322 12.1504 6.55322ZM20.2504 4.04922C19.2504 3.04922 17.9504 2.44922 16.3504 2.44922H7.95039C6.35039 2.44922 4.95039 3.04922 4.05039 4.04922C3.05039 5.04922 2.65039 6.44922 2.65039 8.04922V15.9492C2.65039 17.5492 3.15039 18.9492 4.05039 19.9492C5.05039 20.9492 6.35039 21.5492 7.95039 21.5492H16.3504C17.9504 21.5492 19.3504 20.9492 20.2504 19.9492C21.1504 18.9492 21.6504 17.5492 21.6504 15.9492V8.04922C21.6504 6.44922 21.1504 5.04922 20.2504 4.04922Z" fill="black"/>
</svg>