<svg width="25" height="24" viewBox="0 0 25 24" fill="none" xmlns="http://www.w3.org/2000/svg">
<path d="M8.67619 20.9995C6.0716 20.9995 4.4458 19.1587 4.4458 16.5619V9.53623C4.4458 6.93164 6.07939 5.09082 8.67619 5.09082H10.6892" stroke="black" stroke-width="1.5" stroke-linecap="round" stroke-linejoin="round"/>
<path d="M14.1193 5.08984H16.1313C18.7369 5.08984 20.3539 6.93067 20.3539 9.53526V16.5609C20.3539 19.1577 18.7369 20.9986 16.1313 20.9986H11.4736" stroke="black" stroke-width="1.5" stroke-linecap="round" stroke-linejoin="round"/>
<path fill-rule="evenodd" clip-rule="evenodd" d="M13.7435 6.80424L12.5575 7.39969C12.4622 7.44833 12.3483 7.44833 12.253 7.40066L11.0592 6.80424C10.8295 6.68943 10.6846 6.45495 10.6846 6.19712V3.95738C10.6846 3.42907 11.1127 3 11.642 3H13.1588C13.6881 3 14.1171 3.42907 14.1171 3.95738V6.19906C14.1171 6.45495 13.9722 6.68943 13.7435 6.80424Z" stroke="black" stroke-width="1.5" stroke-linecap="round" stroke-linejoin="round"/>
<path d="M14.1491 11.6712C14.1491 12.6374 13.3659 13.4206 12.3998 13.4206C11.4336 13.4206 10.6514 12.6374 10.6514 11.6712C10.6514 10.7051 11.4336 9.92285 12.3998 9.92285" stroke="black" stroke-width="1.5" stroke-linecap="round" stroke-linejoin="round"/>
<path d="M9.66211 17.2445C9.66211 16.3504 10.3675 15.2373 12.4 15.2373C14.4325 15.2373 15.1389 16.3426 15.1389 17.2367" stroke="black" stroke-width="1.5" stroke-linecap="round" stroke-linejoin="round"/>
</svg>