<svg width="25" height="24" viewBox="0 0 25 24" fill="none" xmlns="http://www.w3.org/2000/svg">
<path d="M15.3185 3.68238C14.3133 3.28926 13.2186 3.07422 12.0743 3.07422C7.14576 3.07422 3.15039 7.06959 3.15039 11.9981C3.15039 16.9266 7.14576 20.922 12.0743 20.922C17.0028 20.922 20.9982 16.9266 20.9982 11.9981C20.9982 9.60829 20.0582 7.4374 18.5286 5.83575" stroke="black" stroke-width="1.5" stroke-linecap="round" stroke-linejoin="round"/>
<path d="M21.1507 6.20293L18.5672 5.60547L17.9727 8.17434" stroke="black" stroke-width="1.5" stroke-linecap="round" stroke-linejoin="round"/>
<path fill-rule="evenodd" clip-rule="evenodd" d="M14.9406 11.195C14.9406 12.7351 13.692 13.9825 12.1519 13.9825C10.6128 13.9825 9.36426 12.7351 9.36426 11.195C9.36426 9.65482 10.6128 8.40625 12.1519 8.40625C13.692 8.40625 14.9406 9.65482 14.9406 11.195Z" stroke="black" stroke-width="1.5" stroke-linecap="round" stroke-linejoin="round"/>
<path d="M7.7832 19.7133C7.7832 18.2889 8.91048 16.5117 12.1454 16.5117C15.3893 16.5117 16.5165 18.2733 16.5165 19.6966" stroke="black" stroke-width="1.5" stroke-linecap="round" stroke-linejoin="round"/>
</svg>