<svg width="25" height="24" viewBox="0 0 25 24" fill="none" xmlns="http://www.w3.org/2000/svg">
<path fill-rule="evenodd" clip-rule="evenodd" d="M15.1714 17.9164L9.13044 17.9244C9.03744 17.9244 8.94844 17.8874 8.88244 17.8224C8.81644 17.7564 8.77944 17.6674 8.77944 17.5744C8.77944 16.2974 9.82244 15.0094 12.1504 15.0094C14.4794 15.0094 15.5214 16.2934 15.5214 17.5654C15.5214 17.7594 15.3654 17.9164 15.1714 17.9164ZM12.1504 9.55139C13.3564 9.55139 14.3384 10.5324 14.3384 11.7384C14.3384 12.9454 13.3564 13.9264 12.1504 13.9264C10.9444 13.9264 9.96344 12.9454 9.96344 11.7384C9.96344 10.5324 10.9444 9.55139 12.1504 9.55139ZM11.1504 4.20039H11.1554C11.1554 4.10039 11.2554 4.00039 11.3554 4.00039H12.9504C13.0504 4.00039 13.1504 4.10039 13.1504 4.20039V6.40039L12.1504 6.90039L11.1504 6.40039V4.20039ZM15.9004 4.80039H14.7004V4.20039C14.7004 3.20039 13.9004 2.40039 12.9004 2.40039H11.4004C10.4004 2.40039 9.60044 3.20039 9.60044 4.20039V4.80039H8.40044C5.60044 4.80039 3.70044 6.80039 3.70044 9.70039V16.7004C3.70044 19.6004 5.60044 21.6004 8.40044 21.6004H15.9004C18.7004 21.6004 20.6004 19.6004 20.6004 16.7004V9.70039C20.6004 6.80039 18.7004 4.80039 15.9004 4.80039Z" fill="black"/>
</svg>