<svg width="25" height="24" viewBox="0 0 25 24" fill="none" xmlns="http://www.w3.org/2000/svg">
<path fill-rule="evenodd" clip-rule="evenodd" d="M15.7352 15.8326C15.7372 15.9066 15.7392 15.9926 15.7412 16.0936C15.7462 16.3966 15.7532 16.8066 15.7532 17.3706C15.7532 18.1756 16.5622 18.6566 17.0112 18.8616C17.4602 18.6546 18.2632 18.1726 18.2632 17.3706C18.2632 16.8036 18.2702 16.3926 18.2762 16.0896C18.2772 15.9896 18.2802 15.9046 18.2812 15.8326C17.8962 15.6766 17.2882 15.4696 17.0112 15.4036C16.7352 15.4686 16.1232 15.6766 15.7352 15.8326ZM17.0132 20.9356C16.9162 20.9356 16.8182 20.9206 16.7242 20.8926C15.6212 20.5586 13.7532 19.4416 13.7532 17.3706C13.7532 16.8216 13.7462 16.4226 13.7412 16.1276C13.7262 15.2976 13.7192 14.8816 14.1442 14.4546C14.5742 14.0206 16.5512 13.3926 17.0132 13.3926C17.4742 13.3926 19.4462 14.0216 19.8762 14.4586C20.2972 14.8816 20.2902 15.2966 20.2752 16.1246C20.2702 16.4186 20.2632 16.8196 20.2632 17.3706C20.2632 19.4406 18.4032 20.5586 17.3032 20.8926C17.2102 20.9206 17.1112 20.9356 17.0132 20.9356Z" fill="black"/>
<path fill-rule="evenodd" clip-rule="evenodd" d="M11.2324 3.06445C8.54442 3.06445 6.35742 5.25145 6.35742 7.93945C6.35742 10.6285 8.54442 12.8155 11.2324 12.8155C13.9204 12.8155 16.1074 10.6285 16.1074 7.93945C16.1074 5.25145 13.9204 3.06445 11.2324 3.06445Z" fill="black"/>
<path opacity="0.4" fill-rule="evenodd" clip-rule="evenodd" d="M11.231 14.334C6.251 14.334 4.021 17.084 4.021 19.814C4.021 20.014 4.101 20.204 4.241 20.344C4.381 20.484 4.571 20.564 4.771 20.564C4.771 20.564 9.231 20.557 10.581 20.555C10.581 20.555 11.752 20.553 11.758 20.553C11.863 20.55 11.964 20.531 12.063 20.499C12.488 20.378 12.763 20.03 12.763 19.535V15.352C12.763 14.74 12.319 14.334 11.231 14.334Z" fill="black"/>
</svg>