<svg width="25" height="24" viewBox="0 0 25 24" fill="none" xmlns="http://www.w3.org/2000/svg">
<path d="M16.6856 21.6004C16.454 21.601 16.2245 21.556 16.0103 21.4678C15.7962 21.3796 15.6016 21.25 15.4376 21.0864L15.1046 20.7544C15.0535 20.7039 14.9845 20.6755 14.9125 20.6754H14.4475C13.9774 20.6746 13.5267 20.4875 13.1943 20.1549C12.862 19.8224 12.6751 19.3716 12.6746 18.9014V18.4334C12.675 18.3963 12.668 18.3595 12.6539 18.3251C12.6398 18.2908 12.6189 18.2596 12.5925 18.2334L12.2706 17.9114C11.9389 17.5806 11.7517 17.1318 11.75 16.6633C11.7483 16.1948 11.9323 15.7447 12.2615 15.4114L12.2916 15.3824L12.5916 15.0824C12.6422 15.0314 12.6706 14.9624 12.6705 14.8904V14.4254C12.6713 13.9555 12.8582 13.5051 13.1903 13.1726C13.5224 12.8402 13.9727 12.6528 14.4426 12.6514H14.9096C14.9817 12.6514 15.051 12.623 15.1026 12.5724L15.4255 12.2494C15.7573 11.9163 16.2076 11.7283 16.6777 11.7266C17.1478 11.7249 17.5994 11.9097 17.9335 12.2404L18.2645 12.5714C18.2896 12.5968 18.3195 12.617 18.3525 12.6307C18.3855 12.6445 18.4208 12.6515 18.4566 12.6514H18.9235C19.3939 12.652 19.8448 12.839 20.1774 13.1716C20.51 13.5042 20.697 13.9551 20.6975 14.4254V14.8914C20.6979 14.9631 20.7258 15.0318 20.7755 15.0834L21.1016 15.4094C21.4337 15.7415 21.6208 16.1916 21.6219 16.6612C21.623 17.1308 21.4381 17.5818 21.1076 17.9154L20.7745 18.2484C20.7252 18.2989 20.6979 18.3669 20.6986 18.4374V18.9054C20.698 19.3754 20.511 19.826 20.1786 20.1582C19.8462 20.4904 19.3955 20.6772 18.9255 20.6774H18.4556C18.4203 20.6773 18.3854 20.6841 18.3528 20.6975C18.3202 20.7109 18.2906 20.7306 18.2656 20.7554L17.9365 21.0824C17.7734 21.2476 17.579 21.3788 17.3648 21.4684C17.1506 21.558 16.9208 21.6043 16.6885 21.6044L16.6856 21.6004ZM13.3135 16.4804C13.2684 16.533 13.2449 16.6007 13.2477 16.6699C13.2505 16.7391 13.2794 16.8047 13.3286 16.8534L13.6566 17.1824C13.988 17.5144 14.1743 17.9643 14.1746 18.4334V18.9014C14.1746 18.9739 14.2033 19.0435 14.2545 19.0948C14.3056 19.1462 14.375 19.1752 14.4475 19.1754H14.9125C15.3814 19.1763 15.8309 19.3621 16.1635 19.6924L16.4885 20.0164C16.5146 20.043 16.5458 20.064 16.5802 20.0782C16.6145 20.0925 16.6514 20.0997 16.6885 20.0994C16.7241 20.0997 16.7594 20.0927 16.7922 20.079C16.8251 20.0652 16.8547 20.045 16.8795 20.0194L17.2105 19.6894C17.3744 19.525 17.5693 19.3948 17.7839 19.3062C17.9985 19.2176 18.2284 19.1725 18.4605 19.1734H18.9296C18.9656 19.1736 19.0013 19.1666 19.0346 19.1528C19.0679 19.1391 19.0981 19.1189 19.1235 19.0934C19.1746 19.0418 19.2034 18.9721 19.2036 18.8994V18.4334C19.2025 17.9654 19.3874 17.5162 19.7175 17.1844L20.0466 16.8554C20.0721 16.8299 20.0924 16.7996 20.1062 16.7662C20.12 16.7328 20.1271 16.6971 20.1271 16.6609C20.1271 16.6248 20.12 16.589 20.1062 16.5557C20.0924 16.5223 20.0721 16.492 20.0466 16.4664L19.7196 16.1384C19.555 15.9744 19.4246 15.7794 19.3359 15.5647C19.2472 15.3499 19.2018 15.1198 19.2025 14.8874V14.4214C19.2025 14.3488 19.1737 14.2791 19.1223 14.2277C19.0709 14.1763 19.0012 14.1474 18.9285 14.1474H18.4616C18.2291 14.1481 17.9989 14.1027 17.7841 14.0138C17.5694 13.9249 17.3744 13.7942 17.2105 13.6294L16.8856 13.3064L16.8706 13.2924C16.8204 13.2471 16.7552 13.2221 16.6876 13.2224C16.6517 13.2223 16.6161 13.2294 16.583 13.2431C16.5499 13.2568 16.5199 13.277 16.4946 13.3024L16.1685 13.6294C15.8352 13.9601 15.3851 14.1462 14.9155 14.1474H14.4495C14.377 14.1477 14.3076 14.1767 14.2564 14.228C14.2053 14.2794 14.1765 14.3489 14.1765 14.4214V14.8874C14.1769 15.1196 14.1315 15.3495 14.0427 15.564C13.954 15.7785 13.8238 15.9734 13.6596 16.1374L13.3345 16.4634L13.3135 16.4804ZM16.2116 18.3904C16.1129 18.3904 16.0151 18.3708 15.924 18.3329C15.8329 18.2949 15.7502 18.2394 15.6806 18.1694L14.7606 17.2474C14.6241 17.1058 14.5488 16.9162 14.5507 16.7196C14.5527 16.5229 14.6319 16.3349 14.7711 16.1961C14.9104 16.0572 15.0986 15.9786 15.2953 15.9772C15.492 15.9757 15.6813 16.0516 15.8225 16.1884L16.2125 16.5784L17.5786 15.2124C17.72 15.0758 17.9094 15.0001 18.106 15.0017C18.3027 15.0033 18.4908 15.0821 18.6299 15.2211C18.769 15.3601 18.848 15.5481 18.8498 15.7448C18.8516 15.9414 18.7761 16.1309 18.6395 16.2724L16.7396 18.1724C16.5992 18.3118 16.4094 18.3902 16.2116 18.3904Z" fill="black"/>
<path d="M3.92969 19.7703C3.73078 19.7703 3.54001 19.6913 3.39935 19.5506C3.2587 19.41 3.17969 19.2192 3.17969 19.0203C3.17969 16.3073 5.3937 13.5703 10.3407 13.5703C10.5396 13.5703 10.7304 13.6493 10.871 13.79C11.0117 13.9306 11.0907 14.1214 11.0907 14.3203C11.0907 14.5192 11.0117 14.71 10.871 14.8506C10.7304 14.9913 10.5396 15.0703 10.3407 15.0703C6.1617 15.0703 4.67969 17.1983 4.67969 19.0203C4.67969 19.2192 4.60067 19.41 4.46002 19.5506C4.31937 19.6913 4.1286 19.7703 3.92969 19.7703Z" fill="black"/>
<path d="M10.3411 12.0806C9.38279 12.0806 8.44603 11.7964 7.64925 11.264C6.85248 10.7316 6.23151 9.97486 5.86483 9.0895C5.49815 8.20413 5.40223 7.22991 5.58926 6.29004C5.77628 5.35018 6.2378 4.48688 6.91549 3.80934C7.59317 3.13179 8.4566 2.67043 9.39651 2.4836C10.3364 2.29677 11.3106 2.39286 12.1959 2.75972C13.0812 3.12658 13.8378 3.74773 14.3701 4.54461C14.9023 5.3415 15.1863 6.27834 15.1861 7.23663C15.1845 8.52102 14.6735 9.75234 13.7652 10.6605C12.8569 11.5686 11.6255 12.0793 10.3411 12.0806ZM10.3411 3.89063C9.67955 3.89063 9.03287 4.08678 8.48281 4.45429C7.93275 4.8218 7.50402 5.34416 7.25082 5.95532C6.99761 6.56648 6.93134 7.239 7.06032 7.88784C7.18931 8.53668 7.50778 9.1327 7.97549 9.60054C8.44319 10.0684 9.03909 10.3871 9.68789 10.5162C10.3367 10.6454 11.0093 10.5793 11.6205 10.3263C12.2317 10.0733 12.7542 9.64469 13.1218 9.09474C13.4895 8.54479 13.6859 7.89817 13.6861 7.23663C13.6848 6.34998 13.3319 5.50004 12.7049 4.87317C12.0778 4.24631 11.2277 3.89369 10.3411 3.89263V3.89063Z" fill="black"/>
</svg>