<svg width="25" height="24" viewBox="0 0 25 24" fill="none" xmlns="http://www.w3.org/2000/svg">
<path fill-rule="evenodd" clip-rule="evenodd" d="M13.9087 17.4177C13.6141 16.4961 13.9587 15.4448 14.9249 15.1335C15.4335 14.9704 15.9894 15.0634 16.4173 15.3843C16.8443 15.0669 17.3985 14.9731 17.9062 15.1335C18.8724 15.4448 19.2196 16.4961 18.925 17.4177C18.4664 18.8767 16.4173 20.0008 16.4173 20.0008C16.4173 20.0008 14.3839 18.8934 13.9087 17.4177Z" stroke="black" stroke-width="1.5" stroke-linecap="round" stroke-linejoin="round"/>
<path d="M5.27344 19.5734C5.27344 17.5208 6.89381 14.9648 11.5603 14.9648" stroke="black" stroke-width="1.5" stroke-linecap="round" stroke-linejoin="round"/>
<path fill-rule="evenodd" clip-rule="evenodd" d="M15.5786 8.01587C15.5786 10.2334 13.7802 12.0317 11.5627 12.0317C9.34525 12.0317 7.54688 10.2334 7.54688 8.01587C7.54688 5.79837 9.34525 4 11.5627 4C13.7802 4 15.5786 5.79837 15.5786 8.01587Z" stroke="black" stroke-width="1.5" stroke-linecap="round" stroke-linejoin="round"/>
</svg>