<svg width="25" height="24" viewBox="0 0 25 24" fill="none" xmlns="http://www.w3.org/2000/svg">
<path fill-rule="evenodd" clip-rule="evenodd" d="M7.29831 17.3974C6.45182 18.1642 6.11328 19.1399 6.11328 19.999C6.11328 20.4133 5.77749 20.749 5.36328 20.749C4.94907 20.749 4.61328 20.4133 4.61328 19.999C4.61328 18.7496 5.10703 17.3585 6.29127 16.2857C7.47737 15.2113 9.2882 14.5156 11.8216 14.5156C12.2358 14.5156 12.5716 14.8514 12.5716 15.2656C12.5716 15.6798 12.2358 16.0156 11.8216 16.0156C9.56128 16.0156 8.14295 16.6323 7.29831 17.3974Z" fill="black"/>
<path fill-rule="evenodd" clip-rule="evenodd" d="M19.9682 15.7234C20.2611 16.0163 20.2613 16.4911 19.9684 16.7841L16.4573 20.297C16.3166 20.4378 16.1257 20.5169 15.9267 20.5168C15.7276 20.5168 15.5368 20.4376 15.3961 20.2967L13.6919 18.5898C13.3992 18.2967 13.3996 17.8218 13.6927 17.5292C13.9859 17.2365 14.4607 17.2369 14.7534 17.53L15.9272 18.7056L18.9075 15.7237C19.2003 15.4307 19.6752 15.4306 19.9682 15.7234Z" fill="black"/>
<path fill-rule="evenodd" clip-rule="evenodd" d="M11.8207 4.75C9.95696 4.75 8.44531 6.26164 8.44531 8.12542C8.44531 9.98919 9.95696 11.5008 11.8207 11.5008C13.6845 11.5008 15.1961 9.98919 15.1961 8.12542C15.1961 6.26164 13.6845 4.75 11.8207 4.75ZM6.94531 8.12542C6.94531 5.43322 9.12853 3.25 11.8207 3.25C14.5129 3.25 16.6961 5.43322 16.6961 8.12542C16.6961 10.8176 14.5129 13.0008 11.8207 13.0008C9.12853 13.0008 6.94531 10.8176 6.94531 8.12542Z" fill="black"/>
</svg>