<svg width="25" height="24" viewBox="0 0 25 24" fill="none" xmlns="http://www.w3.org/2000/svg">
<path opacity="0.4" fill-rule="evenodd" clip-rule="evenodd" d="M13.2211 6.74161C13.2211 6.90761 13.0861 7.04161 12.9211 7.04161H11.3801C11.2141 7.04161 11.0801 6.90761 11.0801 6.74161V4.11661C11.0801 3.95061 11.2141 3.81661 11.3801 3.81661H12.9211C13.0861 3.81661 13.2211 3.95061 13.2211 4.11661V6.74161ZM21.3131 9.54961C21.2131 6.74961 19.4131 4.94961 16.7131 4.94961H14.6131V4.14961C14.6131 3.14961 13.9131 2.34961 12.8131 2.34961H11.2131C10.2131 2.34961 9.41309 3.04961 9.41309 4.14961V4.94961H7.61309C4.81309 4.94961 2.91309 6.94961 2.91309 9.84961V16.7496C2.91309 19.6496 4.81309 21.6496 7.61309 21.6496H16.6131C19.4131 21.6496 21.3131 19.6496 21.3131 16.7496C21.4131 16.7496 21.4131 9.64961 21.3131 9.54961Z" fill="black"/>
<path d="M14.6689 11.5775H17.8059C18.2609 11.5775 18.6289 11.2095 18.6289 10.7545C18.6289 10.3005 18.2609 9.93252 17.8059 9.93252H14.6689C14.2139 9.93252 13.8459 10.3005 13.8459 10.7545C13.8459 11.2095 14.2139 11.5775 14.6689 11.5775Z" fill="black"/>
<path d="M14.6689 14.7865H17.8059C18.2609 14.7865 18.6289 14.4185 18.6289 13.9635C18.6289 13.5095 18.2609 13.1415 17.8059 13.1415H14.6689C14.2139 13.1415 13.8459 13.5095 13.8459 13.9635C13.8459 14.4185 14.2139 14.7865 14.6689 14.7865Z" fill="black"/>
<path d="M15.6239 18.1515H17.8059C18.2609 18.1515 18.6289 17.7835 18.6289 17.3295C18.6289 16.8745 18.2609 16.5065 17.8059 16.5065H15.6239C15.1699 16.5065 14.8009 16.8745 14.8009 17.3295C14.8009 17.7835 15.1699 18.1515 15.6239 18.1515Z" fill="black"/>
<path d="M6.02295 16.8145C6.02295 18.3555 8.41095 18.3555 9.25795 18.3555C10.1059 18.3555 12.4939 18.3555 12.4939 16.8145C12.4939 16.5065 12.4169 16.1985 12.1849 15.9675C11.7229 15.5055 10.8759 15.2745 9.25795 15.2745C8.41095 15.2745 6.02295 15.2745 6.02295 16.8145Z" fill="black"/>
<path d="M11.492 11.9625C11.492 10.7295 10.4909 9.72852 9.25795 9.72852C8.02595 9.72852 7.02495 10.7295 7.02495 11.9625C7.02495 13.1945 8.02595 14.1955 9.25795 14.1955C10.4909 14.1955 11.492 13.1945 11.492 11.9625Z" fill="black"/>
</svg>