<svg width="25" height="24" viewBox="0 0 25 24" fill="none" xmlns="http://www.w3.org/2000/svg">
<path fill-rule="evenodd" clip-rule="evenodd" d="M6.13514 6.84742C5.55296 7.47151 5.19531 8.38916 5.19531 9.53526V16.5609C5.19531 17.7035 5.55125 18.6191 6.13224 19.242C6.70775 19.859 7.55886 20.2486 8.6757 20.2486H16.1314C17.2487 20.2486 18.0974 19.8591 18.6706 19.2428C19.2496 18.6203 19.604 17.7046 19.604 16.5609V9.53526C19.604 8.38714 19.2493 7.46953 18.6703 6.84628C18.0972 6.22928 17.2486 5.83984 16.1314 5.83984H14.1194C13.7052 5.83984 13.3694 5.50406 13.3694 5.08984C13.3694 4.67563 13.7052 4.33984 14.1194 4.33984H16.1314C17.6198 4.33984 18.8826 4.87082 19.7693 5.82538C20.6502 6.77368 21.104 8.07879 21.104 9.53526V16.5609C21.104 18.0141 20.6499 19.3172 19.769 20.2643C18.8823 21.2176 17.6197 21.7486 16.1314 21.7486H8.6757C7.18796 21.7486 5.92388 21.2177 5.03533 20.2651C4.15228 19.3184 3.69531 18.0151 3.69531 16.5609V9.53526C3.69531 8.07677 4.15445 6.77171 5.03828 5.82424C5.92746 4.87103 7.19133 4.33984 8.6757 4.33984H10.6887C11.103 4.33984 11.4387 4.67563 11.4387 5.08984C11.4387 5.50406 11.103 5.83984 10.6887 5.83984H8.6757C7.56327 5.83984 6.71195 6.22907 6.13514 6.84742Z" fill="black"/>
<path fill-rule="evenodd" clip-rule="evenodd" d="M11.641 3.75C11.5264 3.75 11.4336 3.84279 11.4336 3.95738V6.1534L12.4028 6.63763L13.3662 6.15399V3.95738C13.3662 3.84378 13.2734 3.75 13.1578 3.75H11.641ZM9.93359 3.95738C9.93359 3.01535 10.697 2.25 11.641 2.25H13.1578C14.1008 2.25 14.8662 3.01436 14.8662 3.95738V6.19906C14.8662 6.73921 14.5606 7.2327 14.0791 7.47449L12.8946 8.06917C12.586 8.22551 12.2225 8.22435 11.9168 8.07159C11.9167 8.07155 11.9169 8.07162 11.9168 8.07159L10.723 7.47517C10.2388 7.23305 9.93359 6.73844 9.93359 6.19712V3.95738Z" fill="black"/>
<path fill-rule="evenodd" clip-rule="evenodd" d="M12.4007 10.6719C11.8488 10.6719 11.4023 11.1183 11.4023 11.6703C11.4023 12.2227 11.8494 12.6696 12.4007 12.6696C12.9527 12.6696 13.4001 12.2222 13.4001 11.6703C13.4001 11.1189 12.9532 10.6719 12.4007 10.6719ZM9.90234 11.6703C9.90234 10.2899 11.0204 9.17188 12.4007 9.17188C13.7805 9.17188 14.9001 10.2894 14.9001 11.6703C14.9001 13.0506 13.7811 14.1696 12.4007 14.1696C11.0198 14.1696 9.90234 13.0501 9.90234 11.6703Z" fill="black"/>
<path fill-rule="evenodd" clip-rule="evenodd" d="M10.7725 16.4623C10.511 16.6993 10.4121 16.9934 10.4121 17.2455C10.4121 17.6597 10.0763 17.9955 9.66211 17.9955C9.2479 17.9955 8.91211 17.6597 8.91211 17.2455C8.91211 16.6034 9.16596 15.8939 9.76525 15.3508C10.3664 14.8061 11.2472 14.4883 12.4 14.4883C13.5514 14.4883 14.432 14.8033 15.0337 15.3455C15.6341 15.8866 15.8889 16.5948 15.8889 17.2377C15.8889 17.6519 15.5531 17.9877 15.1389 17.9877C14.7246 17.9877 14.3889 17.6519 14.3889 17.2377C14.3889 16.9864 14.2904 16.6949 14.0295 16.4598C13.7699 16.2259 13.281 15.9883 12.4 15.9883C11.5203 15.9883 11.0321 16.227 10.7725 16.4623Z" fill="black"/>
</svg>