<svg width="25" height="24" viewBox="0 0 25 24" fill="none" xmlns="http://www.w3.org/2000/svg">
<path d="M21.1504 12C21.1504 7.03005 17.1213 3 12.1504 3C7.17947 3 3.15039 7.03005 3.15039 12C3.15039 16.9709 7.17947 21 12.1504 21C17.1213 21 21.1504 16.9709 21.1504 12Z" stroke="black" stroke-width="1.5" stroke-linecap="round" stroke-linejoin="round"/>
<path d="M5.15039 17.6477C5.75102 16.5939 7.0771 15.7031 9.46159 15.7031C11.8604 15.7031 13.187 16.5906 13.7875 17.6476" stroke="black" stroke-width="1.5" stroke-linecap="round" stroke-linejoin="round"/>
<path fill-rule="evenodd" clip-rule="evenodd" d="M12.187 10.4138C12.187 11.9151 10.9698 13.1323 9.46849 13.1323C7.96719 13.1323 6.75 11.9151 6.75 10.4138C6.75 8.9125 7.96719 7.69531 9.46849 7.69531C10.9698 7.69531 12.187 8.9125 12.187 10.4138Z" stroke="black" stroke-width="1.5" stroke-linecap="round" stroke-linejoin="round"/>
<path d="M19.1223 17.6741C18.4209 17.3719 17.5289 17.1875 16.4139 17.1875C13.0787 17.1875 11.7357 18.8642 11.5415 20.3741L11.4971 20.9542" stroke="black" stroke-width="1.5" stroke-linecap="round" stroke-linejoin="round"/>
<path fill-rule="evenodd" clip-rule="evenodd" d="M18.5297 12.7009C18.5297 13.8192 17.6229 14.7259 16.5046 14.7259C15.3862 14.7259 14.4795 13.8192 14.4795 12.7009C14.4795 11.5825 15.3862 10.6758 16.5046 10.6758C17.6229 10.6758 18.5297 11.5825 18.5297 12.7009Z" stroke="black" stroke-width="1.5" stroke-linecap="round" stroke-linejoin="round"/>
</svg>