<svg width="25" height="24" viewBox="0 0 25 24" fill="none" xmlns="http://www.w3.org/2000/svg">
<path d="M17.6665 18.7075C16.7343 19.6396 15.2231 19.6396 14.2909 18.7075C13.3588 17.7753 13.3588 16.2641 14.2909 15.3319C15.2231 14.3998 16.7343 14.3998 17.6665 15.3319C18.5986 16.2641 18.5986 17.7753 17.6665 18.7075ZM17.6665 18.7075L18.9599 20.0005" stroke="black" stroke-width="1.5" stroke-linecap="round" stroke-linejoin="round"/>
<path d="M5.3418 19.5617C5.3418 17.5108 6.95992 14.957 11.6233 14.957" stroke="black" stroke-width="1.5" stroke-linecap="round" stroke-linejoin="round"/>
<path fill-rule="evenodd" clip-rule="evenodd" d="M15.6362 8.01246C15.6362 10.2281 13.8394 12.0249 11.6238 12.0249C9.40817 12.0249 7.61133 10.2281 7.61133 8.01246C7.61133 5.79685 9.40817 4 11.6238 4C13.8394 4 15.6362 5.79685 15.6362 8.01246Z" stroke="black" stroke-width="1.5" stroke-linecap="round" stroke-linejoin="round"/>
</svg>