<svg width="25" height="24" viewBox="0 0 25 24" fill="none" xmlns="http://www.w3.org/2000/svg">
<path d="M14.3472 19.6427H17.8003C20.6361 19.6427 22.4006 17.6415 22.4006 14.8089V11.5195" stroke="black" stroke-width="1.5" stroke-linecap="round" stroke-linejoin="round"/>
<path d="M22.4005 8.22829C22.4005 5.39572 20.6361 3.39453 17.8014 3.39453H10.095C8.07438 3.39453 6.59323 4.41729 5.91211 6.03575" stroke="black" stroke-width="1.5" stroke-linecap="round" stroke-linejoin="round"/>
<path d="M18.2692 16.3203H15.9653" stroke="black" stroke-width="1.5" stroke-linecap="round" stroke-linejoin="round"/>
<path d="M6.83413 20.6042C9.22561 20.6042 11.2679 20.242 11.2679 18.7955C11.2679 17.3478 9.23858 16.9727 6.83413 16.9727C4.44158 16.9727 2.40039 17.3338 2.40039 18.7825C2.40039 19.5973 3.04233 20.0718 4.03189 20.3311" stroke="black" stroke-width="1.5" stroke-linecap="round" stroke-linejoin="round"/>
<path d="M9.60567 11.703C9.60567 13.1744 8.41318 14.3669 6.94175 14.3669C5.47033 14.3669 4.27783 13.1744 4.27783 11.703C4.27783 10.2316 5.47033 9.03906 6.94175 9.03906" stroke="black" stroke-width="1.5" stroke-linecap="round" stroke-linejoin="round"/>
</svg>