<svg width="25" height="24" viewBox="0 0 25 24" fill="none" xmlns="http://www.w3.org/2000/svg">
<path fill-rule="evenodd" clip-rule="evenodd" d="M4.14059 3.89737C5.12507 2.84117 6.52708 2.25 8.18255 2.25H16.6173C18.2766 2.25 19.6792 2.84084 20.6633 3.89765C21.6417 4.94841 22.1504 6.39889 22.1504 8.02638V15.9736C22.1504 17.6011 21.6417 19.0516 20.6631 20.1024C19.6789 21.1592 18.276 21.75 16.6163 21.75H8.18255C6.52319 21.75 5.12077 21.1591 4.13697 20.1023C3.15881 19.0515 2.65039 17.601 2.65039 15.9736V8.02638C2.65039 6.39806 3.16156 4.94771 4.14059 3.89737ZM5.23784 4.92012C4.56063 5.64666 4.15039 6.70951 4.15039 8.02638V15.9736C4.15039 17.2914 4.559 18.3541 5.2349 19.0802C5.90514 19.8003 6.8938 20.25 8.18255 20.25H16.6163C17.9056 20.25 18.8948 19.8002 19.5654 19.0801C20.2416 18.354 20.6504 17.2913 20.6504 15.9736V8.02638C20.6504 6.70868 20.2416 5.64597 19.5655 4.91984C18.895 4.19975 17.906 3.75 16.6173 3.75H8.18255C6.89867 3.75 5.9096 4.19943 5.23784 4.92012Z" fill="black"/>
<path fill-rule="evenodd" clip-rule="evenodd" d="M9.61978 13.5567C10.4011 13.2948 11.4076 13.2227 12.3997 13.2227C13.3981 13.2227 14.4052 13.2976 15.1862 13.5629C15.5806 13.697 15.972 13.8973 16.2713 14.2109C16.5879 14.5425 16.7682 14.9676 16.7682 15.4594C16.7682 15.9528 16.5861 16.3783 16.2675 16.7092C15.9666 17.0215 15.5738 17.22 15.1793 17.3523C14.3978 17.6142 13.3915 17.6863 12.3997 17.6863C11.402 17.6863 10.3949 17.6117 9.61379 17.3465C9.21931 17.2125 8.82778 17.0122 8.52836 16.6986C8.2116 16.3668 8.03125 15.9416 8.03125 15.4496C8.03125 14.9563 8.21318 14.5308 8.53176 14.1999C8.83255 13.8875 9.22527 13.689 9.61978 13.5567ZM9.61231 15.2403C9.55753 15.2972 9.53125 15.3519 9.53125 15.4496C9.53125 15.5487 9.55802 15.6049 9.61325 15.6627C9.6858 15.7387 9.83111 15.8362 10.0961 15.9261C10.6338 16.1087 11.4359 16.1863 12.3997 16.1863C13.3598 16.1863 14.1627 16.111 14.7025 15.9301C14.9686 15.8408 15.1145 15.744 15.1871 15.6686C15.242 15.6116 15.2682 15.557 15.2682 15.4594C15.2682 15.3605 15.2415 15.3045 15.1863 15.2466C15.1138 15.1707 14.9685 15.0732 14.7036 14.9832C14.166 14.8005 13.3639 14.7227 12.3997 14.7227C11.4392 14.7227 10.6363 14.798 10.0966 14.9789C9.83062 15.0681 9.68486 15.165 9.61231 15.2403Z" fill="black"/>
<path fill-rule="evenodd" clip-rule="evenodd" d="M12.4007 7.8125C11.5457 7.8125 10.8535 8.50459 10.8535 9.35872C10.8535 10.2128 11.5457 10.9049 12.4007 10.9049C13.2545 10.9049 13.9469 10.2131 13.9469 9.35872C13.9469 8.50438 13.2545 7.8125 12.4007 7.8125ZM9.35352 9.35872C9.35352 7.67533 10.7181 6.3125 12.4007 6.3125C14.0825 6.3125 15.4469 7.67554 15.4469 9.35872C15.4469 11.0419 14.0825 12.4049 12.4007 12.4049C10.7181 12.4049 9.35352 11.0421 9.35352 9.35872Z" fill="black"/>
</svg>