<svg width="25" height="24" viewBox="0 0 25 24" fill="none" xmlns="http://www.w3.org/2000/svg">
<path fill-rule="evenodd" clip-rule="evenodd" d="M16.2178 15.9841C15.9848 15.8094 15.6823 15.7586 15.4049 15.8474C14.9451 15.9958 14.666 16.5385 14.8733 17.1883C15.0421 17.7114 15.5251 18.2419 16.0647 18.6804C16.2853 18.8596 16.4971 19.0089 16.667 19.1208C16.8387 19.0074 17.0533 18.8559 17.2764 18.6744C17.8204 18.2319 18.2996 17.7029 18.46 17.1926L18.4611 17.1891C18.6681 16.5416 18.3894 15.9976 17.9286 15.8479C17.6517 15.761 17.3489 15.8124 17.1152 15.986C16.8487 16.1842 16.4835 16.1834 16.2178 15.9841ZM16.6678 20.0006C16.3091 20.6593 16.3089 20.6592 16.3088 20.6591L16.3075 20.6584L16.3052 20.6571L16.2984 20.6534L16.2762 20.641C16.2577 20.6305 16.232 20.6158 16.2 20.597C16.136 20.5595 16.0462 20.5053 15.9381 20.436C15.7227 20.298 15.4296 20.0971 15.1188 19.8445C14.5231 19.3605 13.752 18.5998 13.4453 17.6474L13.4448 17.6459C13.0635 16.4531 13.4732 14.8937 14.9455 14.4195C15.5178 14.236 16.1325 14.275 16.6694 14.5185C17.203 14.2785 17.8127 14.2381 18.3827 14.4182L18.3866 14.4195C19.8565 14.893 20.2715 16.4496 19.8905 17.6441C19.5919 18.592 18.8179 19.354 18.223 19.838C17.9115 20.0914 17.6172 20.2938 17.4009 20.433C17.2923 20.5028 17.2022 20.5575 17.1379 20.5954C17.1057 20.6144 17.0799 20.6293 17.0614 20.6398L17.0392 20.6523L17.0324 20.6561L17.0301 20.6573L17.0288 20.658C17.0287 20.6581 17.0285 20.6582 16.6678 20.0006ZM16.6678 20.0006L17.0288 20.658C16.8049 20.7809 16.5331 20.7813 16.3088 20.6591L16.6678 20.0006Z" fill="black"/>
<path fill-rule="evenodd" clip-rule="evenodd" d="M7.42052 17.0552C6.60095 17.7978 6.27344 18.7422 6.27344 19.5734C6.27344 19.9877 5.93765 20.3234 5.52344 20.3234C5.10922 20.3234 4.77344 19.9877 4.77344 19.5734C4.77344 18.352 5.25612 16.9922 6.41335 15.9436C7.57247 14.8934 9.34044 14.2148 11.8103 14.2148C12.2245 14.2148 12.5603 14.5506 12.5603 14.9648C12.5603 15.3791 12.2245 15.7148 11.8103 15.7148C9.61366 15.7148 8.23821 16.3143 7.42052 17.0552Z" fill="black"/>
<path fill-rule="evenodd" clip-rule="evenodd" d="M11.8127 4.75C10.0095 4.75 8.54688 6.21259 8.54688 8.01587C8.54688 9.81915 10.0095 11.2817 11.8127 11.2817C13.616 11.2817 15.0786 9.81915 15.0786 8.01587C15.0786 6.21259 13.616 4.75 11.8127 4.75ZM7.04688 8.01587C7.04688 5.38416 9.18103 3.25 11.8127 3.25C14.4445 3.25 16.5786 5.38416 16.5786 8.01587C16.5786 10.6476 14.4445 12.7817 11.8127 12.7817C9.18103 12.7817 7.04688 10.6476 7.04688 8.01587Z" fill="black"/>
</svg>