<svg width="25" height="24" viewBox="0 0 25 24" fill="none" xmlns="http://www.w3.org/2000/svg">
<path fill-rule="evenodd" clip-rule="evenodd" d="M14.3435 14.84C14.4762 14.6035 14.7263 14.457 14.9976 14.457H18.7455C19.0168 14.457 19.2669 14.6035 19.3996 14.84L20.3366 16.5101C20.4939 16.7904 20.4551 17.1398 20.24 17.3788L17.429 20.5024C17.2868 20.6604 17.0842 20.7507 16.8715 20.7507C16.6589 20.7507 16.4563 20.6604 16.3141 20.5024L13.5031 17.3788C13.288 17.1398 13.2492 16.7904 13.4065 16.5101L14.3435 14.84ZM15.4367 15.957L14.9778 16.7751L16.8715 18.8795L18.7653 16.7751L18.3064 15.957H15.4367Z" fill="black"/>
<path fill-rule="evenodd" clip-rule="evenodd" d="M7.03817 17.2548C6.20303 18.0114 5.86914 18.9737 5.86914 19.8212C5.86914 20.2354 5.53335 20.5712 5.11914 20.5712C4.70493 20.5712 4.36914 20.2354 4.36914 19.8212C4.36914 18.5835 4.85824 17.2056 6.03114 16.1431C7.20589 15.079 8.99868 14.3906 11.5053 14.3906C11.9195 14.3906 12.2553 14.7264 12.2553 15.1406C12.2553 15.5548 11.9195 15.8906 11.5053 15.8906C9.27176 15.8906 7.87146 16.5 7.03817 17.2548Z" fill="black"/>
<path fill-rule="evenodd" clip-rule="evenodd" d="M11.5051 4.75C9.66667 4.75 8.17578 6.24022 8.17578 8.07932C8.17578 9.91764 9.66678 11.4086 11.5051 11.4086C13.3434 11.4086 14.8344 9.91764 14.8344 8.07932C14.8344 6.24022 13.3435 4.75 11.5051 4.75ZM6.67578 8.07932C6.67578 5.41158 8.83846 3.25 11.5051 3.25C14.1717 3.25 16.3344 5.41158 16.3344 8.07932C16.3344 10.7461 14.1718 12.9086 11.5051 12.9086C8.83835 12.9086 6.67578 10.7461 6.67578 8.07932Z" fill="black"/>
</svg>