<svg width="25" height="24" viewBox="0 0 25 24" fill="none" xmlns="http://www.w3.org/2000/svg">
<path fill-rule="evenodd" clip-rule="evenodd" d="M12.4004 3.75C7.84374 3.75 4.15039 7.44421 4.15039 12C4.15039 16.5567 7.84369 20.25 12.4004 20.25C16.9571 20.25 20.6504 16.5567 20.6504 12C20.6504 7.44421 16.957 3.75 12.4004 3.75ZM2.65039 12C2.65039 6.61589 7.01521 2.25 12.4004 2.25C17.7856 2.25 22.1504 6.61589 22.1504 12C22.1504 17.3851 17.7855 21.75 12.4004 21.75C7.01526 21.75 2.65039 17.3851 2.65039 12Z" fill="black"/>
<path fill-rule="evenodd" clip-rule="evenodd" d="M9.37796 18.1687C8.79438 18.6253 8.51871 19.2096 8.44903 19.7513C8.3962 20.1622 8.02033 20.4524 7.6095 20.3996C7.19867 20.3467 6.90845 19.9708 6.96129 19.56C7.07843 18.6491 7.54221 17.7005 8.45361 16.9873C9.36322 16.2756 10.6638 15.8398 12.3929 15.8398C14.138 15.8398 15.4463 16.2773 16.3584 16.9953C17.273 17.7152 17.7309 18.6728 17.8427 19.5913C17.8928 20.0025 17.6001 20.3764 17.1889 20.4265C16.7777 20.4765 16.4038 20.1838 16.3537 19.7726C16.2866 19.221 16.0132 18.6325 15.4307 18.1739C14.8456 17.7134 13.8908 17.3398 12.3929 17.3398C10.9132 17.3398 9.96332 17.7107 9.37796 18.1687Z" fill="black"/>
<path fill-rule="evenodd" clip-rule="evenodd" d="M12.4001 9.33203C11.313 9.33203 10.4316 10.2134 10.4316 11.3005C10.4316 12.3876 11.313 13.269 12.4001 13.269C13.4872 13.269 14.3686 12.3876 14.3686 11.3005C14.3686 10.2134 13.4872 9.33203 12.4001 9.33203ZM8.93164 11.3005C8.93164 9.38501 10.4846 7.83203 12.4001 7.83203C14.3156 7.83203 15.8686 9.38501 15.8686 11.3005C15.8686 13.216 14.3156 14.769 12.4001 14.769C10.4846 14.769 8.93164 13.216 8.93164 11.3005Z" fill="black"/>
</svg>