<svg width="25" height="24" viewBox="0 0 25 24" fill="none" xmlns="http://www.w3.org/2000/svg">
<path fill-rule="evenodd" clip-rule="evenodd" d="M12.4004 3.75C7.84374 3.75 4.15039 7.44421 4.15039 12C4.15039 16.5567 7.84369 20.25 12.4004 20.25C16.9571 20.25 20.6504 16.5567 20.6504 12C20.6504 7.44421 16.957 3.75 12.4004 3.75ZM2.65039 12C2.65039 6.61589 7.01521 2.25 12.4004 2.25C17.7856 2.25 22.1504 6.61589 22.1504 12C22.1504 17.3851 17.7855 21.75 12.4004 21.75C7.01526 21.75 2.65039 17.3851 2.65039 12Z" fill="black"/>
<path fill-rule="evenodd" clip-rule="evenodd" d="M9.71171 16.4531C7.52328 16.4531 6.48656 17.2568 6.05211 18.0191C5.84699 18.3789 5.38898 18.5044 5.02912 18.2993C4.66926 18.0941 4.54382 17.6361 4.74893 17.2763C5.51574 15.931 7.13118 14.9531 9.71171 14.9531C12.304 14.9531 13.9221 15.9259 14.6897 17.2771C14.8944 17.6372 14.7683 18.0951 14.4081 18.2997C14.048 18.5043 13.5902 18.3782 13.3855 18.0181C12.9521 17.2552 11.917 16.4531 9.71171 16.4531Z" fill="black"/>
<path fill-rule="evenodd" clip-rule="evenodd" d="M9.71849 8.44531C8.6314 8.44531 7.75 9.32671 7.75 10.4138C7.75 11.5009 8.6314 12.3823 9.71849 12.3823C10.8056 12.3823 11.687 11.5009 11.687 10.4138C11.687 9.32672 10.8056 8.44531 9.71849 8.44531ZM6.25 10.4138C6.25 8.49829 7.80297 6.94531 9.71849 6.94531C11.634 6.94531 13.187 8.49829 13.187 10.4138C13.187 12.3293 11.634 13.8823 9.71849 13.8823C7.80297 13.8823 6.25 12.3293 6.25 10.4138Z" fill="black"/>
<path fill-rule="evenodd" clip-rule="evenodd" d="M12.5368 20.4519C12.6139 19.8866 12.9044 19.2799 13.511 18.8053C14.1259 18.3242 15.12 17.9375 16.663 17.9375C17.6963 17.9375 18.4841 18.1085 19.0747 18.3629C19.4551 18.5268 19.8963 18.3513 20.0602 17.9709C20.2241 17.5905 20.0486 17.1492 19.6681 16.9853C18.8559 16.6354 17.8595 16.4375 16.663 16.4375C14.8707 16.4375 13.5257 16.8892 12.5867 17.6239C11.6459 18.3601 11.1675 19.3389 11.0467 20.2784C11.045 20.2912 11.0437 20.304 11.0428 20.3168L10.9983 20.8969C10.9667 21.31 11.2758 21.6704 11.6889 21.702C12.1019 21.7337 12.4623 21.4245 12.4939 21.0115L12.5368 20.4519Z" fill="black"/>
<path fill-rule="evenodd" clip-rule="evenodd" d="M16.7555 11.4258C16.0514 11.4258 15.4805 11.9967 15.4805 12.7009C15.4805 13.405 16.0514 13.9759 16.7555 13.9759C17.4597 13.9759 18.0306 13.405 18.0306 12.7009C18.0306 11.9967 17.4597 11.4258 16.7555 11.4258ZM13.9805 12.7009C13.9805 11.1683 15.223 9.92578 16.7555 9.92578C18.2881 9.92578 19.5306 11.1683 19.5306 12.7009C19.5306 14.2334 18.2881 15.4759 16.7555 15.4759C15.223 15.4759 13.9805 14.2334 13.9805 12.7009Z" fill="black"/>
</svg>