<svg width="25" height="24" viewBox="0 0 25 24" fill="none" xmlns="http://www.w3.org/2000/svg">
<path fill-rule="evenodd" clip-rule="evenodd" d="M12.5609 14.7969L12.5609 14.797C13.9365 14.8115 15.1951 14.9766 16.1324 15.4422C16.6128 15.6808 17.0331 16.0102 17.3301 16.4599C17.6301 16.9141 17.7731 17.4437 17.77 18.0273L17.7699 18.0433L17.7691 18.0593C17.741 18.6443 17.5481 19.2095 17.1535 19.638C16.7492 20.0771 16.1857 20.314 15.5459 20.314H9.56006C8.92025 20.314 8.3555 20.0776 7.95044 19.6385C7.5546 19.2093 7.3617 18.6427 7.33662 18.0553L7.33594 18.0393V18.0233C7.33594 17.4393 7.48049 16.9096 7.78075 16.4556C8.07825 16.0057 8.49819 15.6758 8.97876 15.437C9.91625 14.971 11.1732 14.8078 12.547 14.797L12.5609 14.7969ZM8.836 18.0071C8.85176 18.3077 8.94696 18.5065 9.05302 18.6215C9.1517 18.7284 9.30486 18.814 9.56006 18.814H15.5459C15.7995 18.814 15.9515 18.729 16.0501 18.6219C16.1566 18.5063 16.2526 18.3061 16.27 18.0031C16.2692 17.686 16.193 17.4599 16.0785 17.2866C15.9592 17.106 15.7665 16.9352 15.4651 16.7856C14.8401 16.4751 13.8627 16.3113 12.552 16.297C11.2443 16.3079 10.2701 16.4702 9.6464 16.7802C9.34583 16.9296 9.15245 17.1007 9.03191 17.283C8.91609 17.4581 8.83854 17.6869 8.836 18.0071Z" fill="black"/>
<path fill-rule="evenodd" clip-rule="evenodd" d="M12.5537 9.3125C11.6784 9.3125 10.9688 10.0221 10.9688 10.8975C10.9688 11.7728 11.6784 12.4824 12.5537 12.4824C13.4291 12.4824 14.1387 11.7728 14.1387 10.8975C14.1387 10.0221 13.4291 9.3125 12.5537 9.3125ZM9.46875 10.8975C9.46875 9.19368 10.8499 7.8125 12.5537 7.8125C14.2575 7.8125 15.6387 9.19368 15.6387 10.8975C15.6387 12.6012 14.2575 13.9824 12.5537 13.9824C10.8499 13.9824 9.46875 12.6012 9.46875 10.8975Z" fill="black"/>
<path fill-rule="evenodd" clip-rule="evenodd" d="M7.85952 10.8769C7.86279 11.2911 7.52967 11.6295 7.11547 11.6328C6.03208 11.6414 5.24498 11.7761 4.75274 12.0207C4.51843 12.1372 4.37708 12.2658 4.29201 12.3945C4.21149 12.5162 4.15299 12.6804 4.15048 12.9227C4.16292 13.1466 4.23323 13.2803 4.29693 13.3494C4.35288 13.4101 4.44514 13.4683 4.62441 13.4683H7.51158C7.92579 13.4683 8.26158 13.8041 8.26158 14.2183C8.26158 14.6325 7.92579 14.9683 7.51158 14.9683H4.62441C4.06053 14.9683 3.55667 14.7592 3.19434 14.3664C2.84124 13.9836 2.6729 13.4823 2.65107 12.971C2.65062 12.9604 2.65039 12.9497 2.65039 12.939C2.65039 12.4324 2.77605 11.9675 3.04085 11.5671C3.30288 11.1708 3.6708 10.8834 4.08509 10.6775C4.89006 10.2774 5.95754 10.1419 7.10361 10.1328C7.51781 10.1296 7.85624 10.4627 7.85952 10.8769Z" fill="black"/>
<path fill-rule="evenodd" clip-rule="evenodd" d="M16.9413 10.8769C16.938 11.2911 17.2711 11.6295 17.6853 11.6328C18.7687 11.6414 19.5558 11.7761 20.048 12.0207C20.2823 12.1372 20.4237 12.2658 20.5088 12.3945C20.5893 12.5162 20.6478 12.6804 20.6503 12.9227C20.6379 13.1466 20.5675 13.2803 20.5038 13.3494C20.4479 13.4101 20.3556 13.4683 20.1764 13.4683H17.2892C16.875 13.4683 16.5392 13.8041 16.5392 14.2183C16.5392 14.6325 16.875 14.9683 17.2892 14.9683H20.1764C20.7403 14.9683 21.2441 14.7592 21.6064 14.3664C21.9595 13.9836 22.1279 13.4823 22.1497 12.971C22.1502 12.9604 22.1504 12.9497 22.1504 12.939C22.1504 12.4324 22.0247 11.9675 21.7599 11.5671C21.4979 11.1708 21.13 10.8834 20.7157 10.6775C19.9107 10.2774 18.8432 10.1419 17.6972 10.1328C17.283 10.1296 16.9445 10.4627 16.9413 10.8769Z" fill="black"/>
<path fill-rule="evenodd" clip-rule="evenodd" d="M6.84506 5.1875C6.1885 5.1875 5.65625 5.71975 5.65625 6.37631C5.65625 7.03287 6.1885 7.56511 6.84506 7.56511C7.50162 7.56511 8.03386 7.03287 8.03386 6.37631C8.03386 5.71975 7.50162 5.1875 6.84506 5.1875ZM4.15625 6.37631C4.15625 4.89132 5.36007 3.6875 6.84506 3.6875C8.33004 3.6875 9.53386 4.89132 9.53386 6.37631C9.53386 7.86129 8.33004 9.06511 6.84506 9.06511C5.36007 9.06511 4.15625 7.86129 4.15625 6.37631Z" fill="black"/>
<path fill-rule="evenodd" clip-rule="evenodd" d="M17.9557 5.1875C18.6123 5.1875 19.1445 5.71975 19.1445 6.37631C19.1445 7.03287 18.6123 7.56511 17.9557 7.56511C17.2992 7.56511 16.7669 7.03287 16.7669 6.37631C16.7669 5.71975 17.2992 5.1875 17.9557 5.1875ZM20.6445 6.37631C20.6445 4.89132 19.4407 3.6875 17.9557 3.6875C16.4707 3.6875 15.2669 4.89132 15.2669 6.37631C15.2669 7.86129 16.4707 9.06511 17.9557 9.06511C19.4407 9.06511 20.6445 7.86129 20.6445 6.37631Z" fill="black"/>
</svg>