<svg width="25" height="24" viewBox="0 0 25 24" fill="none" xmlns="http://www.w3.org/2000/svg">
<path d="M20.7409 12.3289C20.7409 17.1187 16.8579 21.0016 12.0682 21.0016C7.27846 21.0016 3.39551 17.1187 3.39551 12.3289C3.39551 7.53921 7.27846 3.65625 12.0682 3.65625C12.434 3.65625 12.795 3.67863 13.1491 3.72338" stroke="black" stroke-width="1.5" stroke-linecap="round" stroke-linejoin="round"/>
<path fill-rule="evenodd" clip-rule="evenodd" d="M19.1878 7.4142C19.1878 8.40464 18.3851 9.20731 17.3947 9.20731C16.4052 9.20731 15.6025 8.40464 15.6025 7.4142C15.6025 6.42376 16.4052 5.62109 17.3947 5.62109C18.3851 5.62109 19.1878 6.42376 19.1878 7.4142Z" stroke="black" stroke-width="1.5" stroke-linecap="round" stroke-linejoin="round"/>
<path d="M19.1865 7.41515V3C19.1865 3 19.6526 4.21227 20.9057 4.46718" stroke="black" stroke-width="1.5" stroke-linecap="round" stroke-linejoin="round"/>
<path d="M7.80469 19.8812C7.97495 18.5619 9.14733 17.0977 12.0612 17.0977C15.0063 17.0977 16.1709 18.5697 16.3334 19.9055" stroke="black" stroke-width="1.5" stroke-linecap="round" stroke-linejoin="round"/>
<path fill-rule="evenodd" clip-rule="evenodd" d="M14.5382 12.2925C14.5382 13.6556 13.433 14.7609 12.0699 14.7609C10.7068 14.7609 9.60156 13.6556 9.60156 12.2925C9.60156 10.9295 10.7068 9.82422 12.0699 9.82422C13.433 9.82422 14.5382 10.9295 14.5382 12.2925Z" stroke="black" stroke-width="1.5" stroke-linecap="round" stroke-linejoin="round"/>
</svg>