<svg width="25" height="24" viewBox="0 0 25 24" fill="none" xmlns="http://www.w3.org/2000/svg">
<path opacity="0.4" fill-rule="evenodd" clip-rule="evenodd" d="M11.1502 4.20039H11.1552C11.1552 4.10039 11.2552 4.00039 11.3552 4.00039H12.9502C13.0502 4.00039 13.1502 4.10039 13.1502 4.20039V6.40039L12.1502 6.90039L11.1502 6.40039V4.20039ZM15.9002 4.80039H14.7002V4.20039C14.7002 3.20039 13.9002 2.40039 12.9002 2.40039H11.4002C10.4002 2.40039 9.6002 3.20039 9.6002 4.20039V4.80039H8.4002C5.6002 4.80039 3.7002 6.80039 3.7002 9.70039V16.7004C3.7002 19.6004 5.6002 21.6004 8.4002 21.6004H15.9002C18.7002 21.6004 20.6002 19.6004 20.6002 16.7004V9.70039C20.6002 6.80039 18.7002 4.80039 15.9002 4.80039Z" fill="black"/>
<path d="M9.1303 17.9238L15.1713 17.9158C15.3653 17.9158 15.5213 17.7588 15.5213 17.5648C15.5213 16.2928 14.4793 15.0088 12.1503 15.0088C9.8223 15.0088 8.7793 16.2968 8.7793 17.5738C8.7793 17.6668 8.8163 17.7558 8.8823 17.8218C8.9483 17.8868 9.0373 17.9238 9.1303 17.9238Z" fill="black"/>
<path d="M14.3383 11.7378C14.3383 10.5318 13.3563 9.55078 12.1503 9.55078C10.9443 9.55078 9.9633 10.5318 9.9633 11.7378C9.9633 12.9448 10.9443 13.9258 12.1503 13.9258C13.3563 13.9258 14.3383 12.9448 14.3383 11.7378Z" fill="black"/>
</svg>