<svg width="25" height="24" viewBox="0 0 25 24" fill="none" xmlns="http://www.w3.org/2000/svg">
<path fill-rule="evenodd" clip-rule="evenodd" d="M16.8459 19.9996C16.8459 19.9996 19.1005 19.3164 19.1005 17.4346C19.1005 15.5519 19.1826 15.4057 19.0019 15.2241C18.8203 15.0416 17.1417 14.457 16.8459 14.457C16.5501 14.457 14.8707 15.0425 14.6899 15.2241C14.5092 15.4049 14.5905 15.5519 14.5905 17.4346C14.5905 19.3164 16.8459 19.9996 16.8459 19.9996Z" stroke="black" stroke-width="1.5" stroke-linecap="round" stroke-linejoin="round"/>
<path d="M5.68164 19.3618C5.68164 17.3373 7.27894 14.8164 11.8823 14.8164" stroke="black" stroke-width="1.5" stroke-linecap="round" stroke-linejoin="round"/>
<path d="M7.92188 7.95361C7.92188 10.1367 9.69145 11.9072 11.8746 11.9072C14.0586 11.9072 15.8282 10.1367 15.8282 7.95361C15.8282 5.77047 14.0586 4 11.8746 4C10.6813 4 9.61164 4.52892 8.88691 5.36504" stroke="black" stroke-width="1.5" stroke-linecap="round" stroke-linejoin="round"/>
</svg>