<svg width="25" height="24" viewBox="0 0 25 24" fill="none" xmlns="http://www.w3.org/2000/svg">
<path fill-rule="evenodd" clip-rule="evenodd" d="M12.4478 15C8.34775 15 7.44775 16.6 7.44775 18.1C7.54775 19.3 8.34775 20 9.44775 20H15.4478C16.6478 20 17.4478 19.2 17.4478 18C17.4478 16.6 16.5478 15 12.4478 15Z" fill="black"/>
<path fill-rule="evenodd" clip-rule="evenodd" d="M12.4477 13.6977C14.0477 13.6977 15.2477 12.4977 15.2477 10.8977C15.2477 9.29766 14.0477 8.09766 12.4477 8.09766C10.8477 8.09766 9.64771 9.29766 9.64771 10.8977C9.64771 12.3977 10.9477 13.6977 12.4477 13.6977Z" fill="black"/>
<g opacity="0.4">
<path fill-rule="evenodd" clip-rule="evenodd" d="M17.5479 10.0996C17.3479 10.0996 17.1479 10.1996 16.9479 10.3996C16.8479 10.5996 16.7479 10.7996 16.7479 10.9996C16.8479 12.0996 16.7479 13.0996 16.3479 13.9996C16.2479 14.1996 16.2479 14.4996 16.4479 14.6996C16.5479 14.8996 16.8479 14.9996 17.0479 14.9996H19.9479C21.0479 14.9996 21.8479 14.0996 21.8479 12.8996C21.9479 10.9996 20.5479 10.0996 17.5479 10.0996Z" fill="black"/>
<path fill-rule="evenodd" clip-rule="evenodd" d="M6.74766 8.8C8.04766 8.8 9.14766 7.7 9.14766 6.4C9.14766 5.1 8.04766 4 6.74766 4C5.44766 4 4.34766 5.1 4.34766 6.4C4.34766 7.7 5.44766 8.8 6.74766 8.8Z" fill="black"/>
<path fill-rule="evenodd" clip-rule="evenodd" d="M17.8478 8.8C19.1478 8.8 20.2478 7.7 20.2478 6.4C20.2478 5.1 19.1478 4 17.8478 4C16.5478 4 15.4478 5.1 15.4478 6.4C15.4478 7.7 16.5478 8.8 17.8478 8.8Z" fill="black"/>
<path fill-rule="evenodd" clip-rule="evenodd" d="M8.14775 13.9C7.74775 12.9 7.64775 12 7.74775 10.9C7.74775 10.7 7.74775 10.5 7.54775 10.3C7.44775 10.1 7.24775 10 6.94775 10C3.94775 10 2.44775 11 2.44775 12.8C2.44775 14 3.34775 14.9 4.44775 14.9H7.34775C7.54775 14.9 7.84775 14.8 7.94775 14.6C8.24775 14.4 8.24775 14.2 8.14775 13.9Z" fill="black"/>
</g>
</svg>