<svg width="25" height="24" viewBox="0 0 25 24" fill="none" xmlns="http://www.w3.org/2000/svg">
<path d="M15.8185 3.68238C14.8133 3.28926 13.7186 3.07422 12.5743 3.07422C7.64576 3.07422 3.65039 7.06959 3.65039 11.9981C3.65039 16.9266 7.64576 20.922 12.5743 20.922C17.5028 20.922 21.4982 16.9266 21.4982 11.9981C21.4982 9.60829 20.5582 7.4374 19.0286 5.83575" stroke="black" stroke-width="1.5" stroke-linecap="round" stroke-linejoin="round"/>
<path d="M21.6507 6.20293L19.0672 5.60547L18.4727 8.17434" stroke="black" stroke-width="1.5" stroke-linecap="round" stroke-linejoin="round"/>
<path opacity="0.4" fill-rule="evenodd" clip-rule="evenodd" d="M15.4406 11.195C15.4406 12.7351 14.192 13.9825 12.6519 13.9825C11.1128 13.9825 9.86426 12.7351 9.86426 11.195C9.86426 9.65482 11.1128 8.40625 12.6519 8.40625C14.192 8.40625 15.4406 9.65482 15.4406 11.195Z" stroke="black" stroke-width="1.5" stroke-linecap="round" stroke-linejoin="round"/>
<path opacity="0.4" d="M8.2832 19.7133C8.2832 18.2889 9.41048 16.5117 12.6454 16.5117C15.8893 16.5117 17.0165 18.2733 17.0165 19.6966" stroke="black" stroke-width="1.5" stroke-linecap="round" stroke-linejoin="round"/>
</svg>