<svg width="25" height="24" viewBox="0 0 25 24" fill="none" xmlns="http://www.w3.org/2000/svg">
<path fill-rule="evenodd" clip-rule="evenodd" d="M4.97482 5.96754C5.78838 4.03231 7.57402 2.82812 9.91065 2.82812H17.7314C19.3555 2.82812 20.7295 3.40616 21.6936 4.44149C22.6521 5.47079 23.1497 6.89097 23.1497 8.48313V15.1601C23.1497 16.7522 22.6522 18.1726 21.6935 19.2022C20.7292 20.2378 19.355 20.8162 17.7303 20.8162H14.2264C13.8122 20.8162 13.4764 20.4804 13.4764 20.0662C13.4764 19.6519 13.8122 19.3162 14.2264 19.3162H17.7303C18.9846 19.3162 19.9451 18.8788 20.5957 18.18C21.252 17.4752 21.6497 16.4426 21.6497 15.1601V8.48313C21.6497 7.20061 21.252 6.16829 20.5959 5.46375C19.9454 4.76525 18.9852 4.32812 17.7314 4.32812H9.91065C8.14771 4.32812 6.9257 5.19751 6.3576 6.54886C6.19707 6.9307 5.7574 7.11011 5.37555 6.94959C4.99371 6.78906 4.8143 6.34939 4.97482 5.96754Z" fill="black"/>
<path fill-rule="evenodd" clip-rule="evenodd" d="M15.1191 16.6953C15.1191 16.2811 15.4549 15.9453 15.8691 15.9453H18.2076C18.6218 15.9453 18.9576 16.2811 18.9576 16.6953C18.9576 17.1095 18.6218 17.4453 18.2076 17.4453H15.8691C15.4549 17.4453 15.1191 17.1095 15.1191 16.6953Z" fill="black"/>
<path fill-rule="evenodd" clip-rule="evenodd" d="M3.84214 18.9054C3.34551 19.3555 3.15039 19.9235 3.15039 20.4192C3.15039 20.8334 2.8146 21.1692 2.40039 21.1692C1.98618 21.1692 1.65039 20.8334 1.65039 20.4192C1.65039 19.5333 2.00069 18.5499 2.83491 17.7939C3.67103 17.0362 4.92544 16.5664 6.63294 16.5664C8.33943 16.5664 9.59358 17.0321 10.43 17.7863C11.2652 18.5394 11.6155 19.5206 11.6155 20.4073C11.6155 20.8215 11.2797 21.1573 10.8655 21.1573C10.4513 21.1573 10.1155 20.8215 10.1155 20.4073C10.1155 19.9113 9.92087 19.347 9.42552 18.9003C8.93136 18.4548 8.06924 18.0664 6.63294 18.0664C5.19873 18.0664 4.33686 18.4571 3.84214 18.9054Z" fill="black"/>
<path fill-rule="evenodd" clip-rule="evenodd" d="M6.63355 10.1016C5.55436 10.1016 4.67969 10.9759 4.67969 12.0543C4.67969 13.1331 5.55475 14.0082 6.63355 14.0082C7.71235 14.0082 8.58741 13.1331 8.58741 12.0543C8.58741 10.9759 7.71274 10.1016 6.63355 10.1016ZM3.17969 12.0543C3.17969 10.1467 4.72671 8.60156 6.63355 8.60156C8.54038 8.60156 10.0874 10.1467 10.0874 12.0543C10.0874 13.9616 8.54077 15.5082 6.63355 15.5082C4.72632 15.5082 3.17969 13.9616 3.17969 12.0543Z" fill="black"/>
</svg>