<svg width="25" height="24" viewBox="0 0 25 24" fill="none" xmlns="http://www.w3.org/2000/svg">
<path opacity="0.4" fill-rule="evenodd" clip-rule="evenodd" d="M14.4087 17.4177C14.1141 16.4961 14.4587 15.4448 15.4249 15.1335C15.9335 14.9704 16.4894 15.0634 16.9173 15.3843C17.3443 15.0669 17.8985 14.9731 18.4062 15.1335C19.3724 15.4448 19.7196 16.4961 19.425 17.4177C18.9664 18.8767 16.9173 20.0008 16.9173 20.0008C16.9173 20.0008 14.8839 18.8934 14.4087 17.4177Z" stroke="black" stroke-width="1.5" stroke-linecap="round" stroke-linejoin="round"/>
<path d="M5.77344 19.5734C5.77344 17.5208 7.39381 14.9648 12.0603 14.9648" stroke="black" stroke-width="1.5" stroke-linecap="round" stroke-linejoin="round"/>
<path fill-rule="evenodd" clip-rule="evenodd" d="M16.0786 8.01587C16.0786 10.2334 14.2802 12.0317 12.0627 12.0317C9.84525 12.0317 8.04688 10.2334 8.04688 8.01587C8.04688 5.79837 9.84525 4 12.0627 4C14.2802 4 16.0786 5.79837 16.0786 8.01587Z" stroke="black" stroke-width="1.5" stroke-linecap="round" stroke-linejoin="round"/>
</svg>