<svg width="25" height="24" viewBox="0 0 25 24" fill="none" xmlns="http://www.w3.org/2000/svg">
<path d="M12.3259 21.7523C11.0392 21.7519 9.76614 21.4881 8.58527 20.977C7.40439 20.4658 6.34072 19.7183 5.45979 18.7804C4.57887 17.8425 3.89936 16.734 3.46318 15.5235C3.027 14.3129 2.84337 13.0259 2.92362 11.7416C3.00386 10.4574 3.34628 9.20319 3.92976 8.05634C4.51325 6.90949 5.32543 5.8943 6.31625 5.07334C7.30708 4.25237 8.45553 3.64302 9.69084 3.28287C10.9262 2.92272 12.2222 2.81939 13.4989 2.97925C13.6917 3.00895 13.8653 3.11256 13.983 3.26813C14.1006 3.4237 14.153 3.61897 14.1291 3.81253C14.1051 4.0061 14.0067 4.18274 13.8547 4.30497C13.7027 4.42719 13.5091 4.48541 13.3149 4.46726C12.9868 4.42683 12.6565 4.40645 12.3259 4.40625C10.7589 4.40625 9.22708 4.87093 7.92415 5.74152C6.62122 6.61211 5.6057 7.84951 5.00603 9.29724C4.40635 10.745 4.24945 12.338 4.55516 13.8749C4.86087 15.4119 5.61548 16.8236 6.72353 17.9316C7.83158 19.0397 9.24332 19.7943 10.7802 20.1C12.3171 20.4057 13.9102 20.2488 15.3579 19.6491C16.8057 19.0495 18.0431 18.034 18.9137 16.731C19.7843 15.4281 20.2489 13.8963 20.2489 12.3293C20.2489 12.1303 20.3279 11.9396 20.4686 11.7989C20.6092 11.6583 20.8 11.5793 20.9989 11.5793C21.1978 11.5793 21.3886 11.6583 21.5293 11.7989C21.6699 11.9396 21.7489 12.1303 21.7489 12.3293C21.746 14.8275 20.7523 17.2226 18.9858 18.9891C17.2193 20.7556 14.8242 21.7494 12.3259 21.7523Z" fill="black"/>
<path d="M17.6534 9.95319C17.1504 9.95319 16.6587 9.80406 16.2405 9.52463C15.8224 9.2452 15.4964 8.84804 15.3039 8.38337C15.1115 7.91869 15.0611 7.40736 15.1592 6.91407C15.2573 6.42077 15.4995 5.96765 15.8552 5.612C16.2108 5.25636 16.664 5.01417 17.1572 4.91605C17.6505 4.81793 18.1618 4.86829 18.6265 5.06077C19.0912 5.25324 19.4884 5.57919 19.7678 5.99738C20.0472 6.41557 20.1964 6.90723 20.1964 7.41019C20.1958 8.08447 19.9277 8.73098 19.4509 9.20777C18.9742 9.68456 18.3276 9.95266 17.6534 9.95319ZM17.6534 6.36719C17.4471 6.36719 17.2454 6.42837 17.0739 6.54297C16.9024 6.65758 16.7687 6.82047 16.6897 7.01105C16.6108 7.20164 16.5902 7.41136 16.6304 7.61368C16.6707 7.816 16.77 8.00184 16.9159 8.14771C17.0617 8.29358 17.2476 8.3929 17.4499 8.43314C17.6522 8.47339 17.8619 8.45273 18.0525 8.37378C18.2431 8.29484 18.406 8.16118 18.5206 7.98966C18.6352 7.81814 18.6964 7.61648 18.6964 7.41019C18.6964 7.13357 18.5865 6.86827 18.3909 6.67267C18.1953 6.47707 17.93 6.36719 17.6534 6.36719Z" fill="black"/>
<path d="M19.4482 8.16575C19.2493 8.16575 19.0586 8.08674 18.9179 7.94609C18.7773 7.80543 18.6982 7.61466 18.6982 7.41575V3.00074C18.6981 2.82552 18.7592 2.65577 18.8712 2.52095C18.9831 2.38613 19.1387 2.29475 19.3109 2.26268C19.4832 2.2306 19.6613 2.25985 19.8142 2.34535C19.9672 2.43085 20.0853 2.56721 20.1482 2.73075C20.254 2.97552 20.4143 3.19284 20.6169 3.36616C20.8195 3.53948 21.0591 3.6642 21.3172 3.73075C21.5072 3.77565 21.6721 3.89271 21.7772 4.05714C21.8823 4.22157 21.9193 4.42046 21.8803 4.61167C21.8413 4.80289 21.7294 4.97141 21.5683 5.08155C21.4072 5.1917 21.2096 5.23479 21.0172 5.20173C20.7305 5.14319 20.4541 5.04208 20.1972 4.90174V7.41374C20.1975 7.51231 20.1783 7.60999 20.1408 7.70115C20.1033 7.79231 20.0482 7.87518 19.9786 7.94502C19.9091 8.01486 19.8264 8.07029 19.7354 8.10817C19.6444 8.14604 19.5468 8.16562 19.4482 8.16575Z" fill="black"/>
<path d="M16.5918 20.6596C16.4087 20.6592 16.2321 20.5921 16.0951 20.4708C15.9581 20.3494 15.8702 20.1822 15.8478 20.0006C15.7868 19.4956 15.3478 17.8516 12.3208 17.8516C9.32076 17.8516 8.87275 19.4816 8.80875 19.9806C8.78135 20.177 8.67806 20.3549 8.52102 20.476C8.36398 20.5972 8.16571 20.6519 7.96876 20.6286C7.87108 20.616 7.77685 20.5843 7.69145 20.5352C7.60604 20.4862 7.53114 20.4208 7.47105 20.3427C7.41095 20.2647 7.36683 20.1756 7.34121 20.0805C7.31559 19.9854 7.30898 19.8862 7.32176 19.7886C7.53476 18.1266 8.96076 16.3516 12.3218 16.3516C15.7098 16.3516 17.1348 18.1436 17.3388 19.8186C17.3506 19.9164 17.3431 20.0156 17.3166 20.1106C17.2901 20.2055 17.2452 20.2943 17.1843 20.3718C17.1235 20.4494 17.048 20.5142 16.9621 20.5625C16.8762 20.6109 16.7816 20.6418 16.6838 20.6536C16.6533 20.6576 16.6225 20.6596 16.5918 20.6596Z" fill="black"/>
<path d="M12.3303 15.5141C11.6939 15.5141 11.0717 15.3254 10.5425 14.9718C10.0133 14.6182 9.60082 14.1156 9.35726 13.5276C9.1137 12.9396 9.04997 12.2925 9.17414 11.6683C9.29831 11.0441 9.60479 10.4707 10.0548 10.0206C10.5049 9.57059 11.0783 9.26413 11.7025 9.13996C12.3267 9.0158 12.9738 9.07951 13.5618 9.32307C14.1498 9.56663 14.6524 9.97911 15.006 10.5083C15.3596 11.0375 15.5483 11.6597 15.5483 12.2961C15.5472 13.1493 15.2079 13.9672 14.6046 14.5704C14.0013 15.1737 13.1835 15.5131 12.3303 15.5141ZM12.3303 10.5771C11.9906 10.5771 11.6584 10.6779 11.3759 10.8666C11.0934 11.0553 10.8732 11.3236 10.7432 11.6374C10.6131 11.9513 10.579 12.2967 10.6452 12.6299C10.7114 12.9632 10.875 13.2693 11.1151 13.5096C11.3553 13.7499 11.6613 13.9136 11.9945 13.98C12.3277 14.0464 12.6731 14.0125 12.9871 13.8826C13.301 13.7528 13.5694 13.5327 13.7583 13.2503C13.9472 12.9679 14.0481 12.6359 14.0483 12.2961C14.0478 11.8406 13.8666 11.4038 13.5446 11.0816C13.2225 10.7593 12.7859 10.5779 12.3303 10.5771Z" fill="black"/>
</svg>