<svg width="25" height="24" viewBox="0 0 25 24" fill="none" xmlns="http://www.w3.org/2000/svg">
<path fill-rule="evenodd" clip-rule="evenodd" d="M5.42196 7.12809C4.85382 7.73707 4.50391 8.63354 4.50391 9.7554V16.648C4.50391 17.7665 4.85194 18.6608 5.41874 19.2685C5.98004 19.8703 6.81091 20.2511 7.90364 20.2511H16.8969C17.9945 20.2511 18.8252 19.87 19.3852 19.2689C19.9509 18.6616 20.2976 17.7674 20.2976 16.648V9.7554C20.2976 8.63148 19.9506 7.73505 19.3856 7.12693C18.8265 6.52506 17.9982 6.14453 16.9056 6.14453H14.2114C13.7972 6.14453 13.4614 5.80874 13.4614 5.39453C13.4614 4.98032 13.7972 4.64453 14.2114 4.64453H16.9056C18.3691 4.64453 19.6117 5.16644 20.4846 6.106C21.3516 7.03932 21.7976 8.32332 21.7976 9.7554V16.648C21.7976 18.0767 21.3512 19.3591 20.4828 20.2913C19.6086 21.2297 18.3639 21.7511 16.8969 21.7511H7.90364C6.44037 21.7511 5.19637 21.2293 4.32181 20.2916C3.45274 19.3599 3.00391 18.0777 3.00391 16.648V9.7554C3.00391 8.32127 3.45524 7.0373 4.32516 6.10484C5.20042 5.16666 6.44415 4.64453 7.90364 4.64453H10.5871C11.0013 4.64453 11.3371 4.98032 11.3371 5.39453C11.3371 5.80874 11.0013 6.14453 10.5871 6.14453H7.90364C6.81589 6.14453 5.98475 6.52484 5.42196 7.12809Z" fill="black"/>
<path fill-rule="evenodd" clip-rule="evenodd" d="M7.60624 15.0819C8.26809 14.8598 9.11084 14.8008 9.92657 14.8008C10.7475 14.8008 11.591 14.8621 12.2527 15.0871C12.5874 15.201 12.9302 15.3745 13.1958 15.6528C13.4786 15.9491 13.6403 16.3306 13.6403 16.7689C13.6403 17.2089 13.477 17.5909 13.1922 17.8867C12.9252 18.164 12.5813 18.3359 12.2465 18.4482C11.5846 18.6703 10.7419 18.7293 9.92657 18.7293C9.10585 18.7293 8.26235 18.6683 7.60063 18.4434C7.26582 18.3296 6.92297 18.1561 6.65732 17.8777C6.37436 17.5811 6.21289 17.1995 6.21289 16.7612C6.21289 16.3214 6.37595 15.9394 6.66063 15.6435C6.92756 15.3662 7.27148 15.1943 7.60624 15.0819ZM7.74142 16.6837C7.72034 16.7056 7.71289 16.7169 7.71289 16.7612C7.71289 16.8069 7.72096 16.8195 7.74255 16.8422C7.78143 16.8829 7.87812 16.9534 8.08331 17.0232C8.5016 17.1653 9.13994 17.2293 9.92657 17.2293C10.7099 17.2293 11.349 17.1672 11.7693 17.0261C11.9756 16.9569 12.0728 16.8867 12.1117 16.8463C12.1329 16.8243 12.1403 16.813 12.1403 16.7689C12.1403 16.7237 12.1323 16.7111 12.1107 16.6884C12.0717 16.6476 11.9749 16.577 11.7697 16.5072C11.3514 16.365 10.713 16.3008 9.92657 16.3008C9.14273 16.3008 8.50364 16.3629 8.08355 16.5039C7.87733 16.5732 7.78025 16.6433 7.74142 16.6837Z" fill="black"/>
<path fill-rule="evenodd" clip-rule="evenodd" d="M9.92764 10.6406C9.30322 10.6406 8.79688 11.1469 8.79688 11.7724C8.79688 12.3978 9.30322 12.9041 9.92764 12.9041C10.5526 12.9041 11.0594 12.3973 11.0594 11.7724C11.0594 11.1474 10.5526 10.6406 9.92764 10.6406ZM7.29688 11.7724C7.29688 10.3195 8.47378 9.14062 9.92764 9.14062C11.381 9.14062 12.5594 10.319 12.5594 11.7724C12.5594 13.2257 11.381 14.4041 9.92764 14.4041C8.47378 14.4041 7.29688 13.2252 7.29688 11.7724Z" fill="black"/>
<path fill-rule="evenodd" clip-rule="evenodd" d="M13.9707 10.6445C13.9707 10.2303 14.3065 9.89453 14.7207 9.89453H17.8371C18.2514 9.89453 18.5871 10.2303 18.5871 10.6445C18.5871 11.0587 18.2514 11.3945 17.8371 11.3945H14.7207C14.3065 11.3945 13.9707 11.0587 13.9707 10.6445ZM13.9708 13.8805C13.9765 13.4663 14.3168 13.1351 14.731 13.1408L17.8474 13.1836C18.2616 13.1893 18.5928 13.5297 18.5871 13.9439C18.5814 14.3581 18.241 14.6892 17.8268 14.6835L14.7104 14.6407C14.2962 14.635 13.9651 14.2946 13.9708 13.8805ZM14.9665 17.2245C14.9665 16.8103 15.3023 16.4745 15.7165 16.4745H17.8376C18.2518 16.4745 18.5876 16.8103 18.5876 17.2245C18.5876 17.6387 18.2518 17.9745 17.8376 17.9745H15.7165C15.3023 17.9745 14.9665 17.6387 14.9665 17.2245Z" fill="black"/>
<path fill-rule="evenodd" clip-rule="evenodd" d="M11.6057 3.75C11.4663 3.75 11.3535 3.86275 11.3535 4.00216V6.62141C11.3535 6.76082 11.4663 6.87358 11.6057 6.87358H13.1936C13.333 6.87358 13.4457 6.76082 13.4457 6.62141V4.00216C13.4457 3.86275 13.333 3.75 13.1936 3.75H11.6057ZM9.85352 4.00216C9.85352 3.03433 10.6378 2.25 11.6057 2.25H13.1936C14.1614 2.25 14.9457 3.03433 14.9457 4.00216V6.62141C14.9457 7.58925 14.1614 8.37358 13.1936 8.37358H11.6057C10.6378 8.37358 9.85352 7.58925 9.85352 6.62141V4.00216Z" fill="black"/>
</svg>