<svg width="25" height="24" viewBox="0 0 25 24" fill="none" xmlns="http://www.w3.org/2000/svg">
<path d="M3.42416 13.3292C3.23503 13.3292 3.05289 13.2576 2.91433 13.1289C2.77577 13.0002 2.69105 12.8238 2.67716 12.6352C2.5964 11.5294 2.70564 10.418 3.00016 9.34917C3.02438 9.25237 3.06769 9.16136 3.12753 9.0815C3.18737 9.00164 3.26255 8.93452 3.34866 8.88408C3.43477 8.83365 3.53008 8.80091 3.629 8.78777C3.72792 8.77464 3.82847 8.78139 3.92475 8.80761C4.02104 8.83383 4.11113 8.87898 4.18974 8.94045C4.26835 9.00193 4.3339 9.07848 4.38255 9.16561C4.4312 9.25274 4.46197 9.34869 4.47306 9.44787C4.48416 9.54704 4.47535 9.64743 4.44715 9.74315C4.19749 10.6473 4.10482 11.5876 4.17316 12.5232C4.18692 12.721 4.12173 12.9163 3.99185 13.0663C3.86197 13.2162 3.67798 13.3086 3.48016 13.3232L3.42416 13.3292Z" fill="black"/>
<path d="M5.1745 7.38018C5.03625 7.37959 4.90086 7.34073 4.78332 7.26793C4.66578 7.19514 4.57069 7.09122 4.50857 6.9677C4.44645 6.84419 4.41973 6.7059 4.43137 6.56814C4.44301 6.43037 4.49255 6.29853 4.5745 6.18719C5.0301 5.56597 5.55816 5.00131 6.1475 4.50518C6.22275 4.44162 6.30978 4.3935 6.40362 4.36358C6.49746 4.33365 6.59628 4.32251 6.69443 4.33077C6.79258 4.33903 6.88815 4.36654 6.97567 4.41173C7.06318 4.45693 7.14094 4.51892 7.2045 4.59417C7.26806 4.66941 7.31618 4.75646 7.3461 4.8503C7.37603 4.94414 7.38717 5.04295 7.37891 5.1411C7.37065 5.23926 7.34314 5.33481 7.29794 5.42232C7.25274 5.50984 7.19074 5.58761 7.1155 5.65117C6.61714 6.07085 6.17036 6.54819 5.7845 7.07317C5.71432 7.16891 5.62245 7.24664 5.51641 7.30001C5.41038 7.35337 5.29321 7.38086 5.1745 7.38018Z" fill="black"/>
<path d="M7.24682 20.1145C7.09461 20.1145 6.94601 20.0681 6.82082 19.9815C5.33727 18.9533 4.16766 17.5342 3.44182 15.8815C3.36146 15.6995 3.35672 15.4929 3.42864 15.3074C3.50056 15.1218 3.64325 14.9724 3.82532 14.892C4.00739 14.8117 4.21393 14.8069 4.3995 14.8788C4.58506 14.9508 4.73447 15.0935 4.81483 15.2755C5.42893 16.6741 6.41897 17.875 7.67483 18.7445C7.80782 18.835 7.90818 18.9659 7.9611 19.1178C8.01402 19.2697 8.01669 19.4346 7.96872 19.5882C7.92075 19.7417 7.82468 19.8758 7.69469 19.9706C7.56471 20.0653 7.40769 20.1158 7.24682 20.1145Z" fill="black"/>
<path d="M12.4121 21.7524C11.6932 21.7524 10.9765 21.6729 10.2751 21.5154C10.1765 21.4964 10.0827 21.4578 9.99933 21.4019C9.91594 21.346 9.84463 21.2739 9.78962 21.1899C9.7346 21.1059 9.69701 21.0118 9.67907 20.913C9.66112 20.8142 9.6632 20.7128 9.68516 20.6149C9.70713 20.5169 9.74853 20.4243 9.80693 20.3427C9.86532 20.261 9.93953 20.1919 10.0251 20.1395C10.1107 20.087 10.206 20.0522 10.3053 20.0373C10.4045 20.0223 10.5058 20.0275 10.6031 20.0524C11.3983 20.2303 12.2154 20.29 13.0281 20.2294C14.6571 20.1108 16.2136 19.5084 17.4981 18.4994C17.5755 18.4377 17.6643 18.392 17.7594 18.3648C17.8546 18.3376 17.9542 18.3295 18.0525 18.341C18.1508 18.3525 18.2458 18.3833 18.3321 18.4317C18.4185 18.4801 18.4944 18.5451 18.5555 18.6229C18.6166 18.7008 18.6616 18.79 18.6881 18.8853C18.7146 18.9807 18.7219 19.0803 18.7097 19.1785C18.6975 19.2767 18.666 19.3715 18.6169 19.4575C18.5679 19.5434 18.5024 19.6189 18.4241 19.6794C16.9056 20.8721 15.0658 21.5845 13.1401 21.7254C12.8974 21.7434 12.6547 21.7524 12.4121 21.7524Z" fill="black"/>
<path d="M20.0475 17.4741C19.9078 17.4744 19.7709 17.4352 19.6525 17.3611C19.5687 17.3092 19.496 17.2413 19.4385 17.1613C19.3811 17.0813 19.3399 16.9907 19.3174 16.8948C19.295 16.7988 19.2916 16.6994 19.3076 16.6022C19.3235 16.5049 19.3585 16.4118 19.4105 16.3281C20.2758 14.9408 20.7053 13.326 20.6435 11.6921C20.5563 9.50435 19.6052 7.44044 17.9987 5.9528C16.3922 4.46517 14.2614 3.67523 12.0735 3.75612C11.9743 3.76279 11.8748 3.74914 11.7811 3.71602C11.6874 3.6829 11.6015 3.63099 11.5286 3.56349C11.4556 3.49599 11.3972 3.41433 11.357 3.32347C11.3167 3.23261 11.2955 3.13448 11.2945 3.03511C11.2872 2.8365 11.359 2.64311 11.4942 2.49742C11.6294 2.35173 11.8168 2.26565 12.0155 2.2581C13.7829 2.18595 15.5366 2.59672 17.0882 3.44624C18.6398 4.29577 19.9306 5.55193 20.822 7.07985C21.7134 8.60777 22.1717 10.3497 22.1476 12.1185C22.1236 13.8872 21.6181 15.616 20.6855 17.1191C20.6182 17.2278 20.5243 17.3175 20.4126 17.3796C20.301 17.4418 20.1753 17.4743 20.0475 17.4741Z" fill="black"/>
<path d="M8.82715 16.9373C8.62824 16.9373 8.43747 16.8583 8.29681 16.7177C8.15616 16.577 8.07715 16.3862 8.07715 16.1873C8.07715 14.5123 9.41215 12.8203 12.3932 12.8203C15.3742 12.8203 16.7141 14.5043 16.7141 16.1733C16.7141 16.3722 16.6351 16.563 16.4945 16.7036C16.3538 16.8443 16.1631 16.9233 15.9641 16.9233C15.7652 16.9233 15.5745 16.8443 15.4338 16.7036C15.2932 16.563 15.2141 16.3722 15.2141 16.1733C15.2141 15.3183 14.4752 14.3203 12.3932 14.3203C10.3112 14.3203 9.57715 15.3263 9.57715 16.1873C9.57715 16.3862 9.49813 16.577 9.35748 16.7177C9.21682 16.8583 9.02606 16.9373 8.82715 16.9373Z" fill="black"/>
<path d="M12.3971 12.1185C11.7983 12.1183 11.213 11.9406 10.7152 11.6078C10.2174 11.275 9.82948 10.8021 9.60042 10.2488C9.37136 9.69556 9.31148 9.08682 9.42835 8.49954C9.54522 7.91226 9.83359 7.37282 10.257 6.9494C10.6804 6.52599 11.2199 6.2376 11.8071 6.12073C12.3944 6.00386 13.0032 6.06376 13.5564 6.29282C14.1097 6.52187 14.5826 6.90982 14.9154 7.40762C15.2482 7.90542 15.4259 8.49071 15.4261 9.08951C15.4253 9.89261 15.1059 10.6626 14.5381 11.2305C13.9702 11.7983 13.2002 12.1177 12.3971 12.1185ZM12.3971 7.5625C12.0949 7.5627 11.7995 7.65252 11.5484 7.82059C11.2972 7.98865 11.1015 8.2274 10.986 8.50668C10.8706 8.78596 10.8405 9.09322 10.8997 9.38959C10.9588 9.68595 11.1045 9.95811 11.3184 10.1717C11.5322 10.3852 11.8046 10.5306 12.101 10.5894C12.3974 10.6481 12.7047 10.6176 12.9838 10.5018C13.2629 10.386 13.5014 10.19 13.6692 9.9386C13.8369 9.68721 13.9263 9.39172 13.9261 9.08951C13.9253 8.68442 13.7639 8.29617 13.4773 8.00992C13.1907 7.72366 12.8022 7.56276 12.3971 7.5625Z" fill="black"/>
</svg>