<svg width="25" height="24" viewBox="0 0 25 24" fill="none" xmlns="http://www.w3.org/2000/svg">
<path fill-rule="evenodd" clip-rule="evenodd" d="M14.1587 17.4177C13.8641 16.4961 14.2087 15.4448 15.1749 15.1335C15.6835 14.9704 16.2394 15.0634 16.6673 15.3843C17.0943 15.0669 17.6485 14.9731 18.1562 15.1335C19.1224 15.4448 19.4696 16.4961 19.175 17.4177C18.7164 18.8767 16.6673 20.0008 16.6673 20.0008C16.6673 20.0008 14.6339 18.8934 14.1587 17.4177Z" stroke="black" stroke-width="1.5" stroke-linecap="round" stroke-linejoin="round"/>
<path d="M5.52344 19.5734C5.52344 17.5208 7.14381 14.9648 11.8103 14.9648" stroke="black" stroke-width="1.5" stroke-linecap="round" stroke-linejoin="round"/>
<path d="M7.79816 8.01562C7.79816 10.233 9.59549 12.0312 11.8129 12.0312C14.0312 12.0312 15.8285 10.233 15.8285 8.01562C15.8285 5.79825 14.0312 4 11.8129 4C10.6009 4 9.51443 4.53721 8.77833 5.38645" stroke="black" stroke-width="1.5" stroke-linecap="round" stroke-linejoin="round"/>
</svg>