<svg width="25" height="24" viewBox="0 0 25 24" fill="none" xmlns="http://www.w3.org/2000/svg">
<path d="M6.88916 8.40002C7.30322 8.40002 7.63916 8.73602 7.63916 9.15002V12.7C7.63916 13.528 8.31104 14.2 9.13916 14.2C9.96729 14.2 10.6392 13.528 10.6392 12.7V9.15002C10.6392 8.73602 10.9751 8.40002 11.3892 8.40002C11.8032 8.40002 12.1392 8.73602 12.1392 9.15002V12.7C12.1392 14.357 10.7959 15.7 9.13916 15.7C7.48193 15.7 6.13916 14.357 6.13916 12.7V9.15002C6.13916 8.73602 6.4751 8.40002 6.88916 8.40002Z" fill="black"/>
<path d="M13.8442 8.40137C14.0933 8.38647 14.3438 8.49609 14.499 8.71399L15.8892 10.6602L17.2793 8.71399C17.519 8.37701 17.9883 8.29895 18.3252 8.53998C18.6621 8.77997 18.7402 9.24902 18.499 9.586L16.8105 11.95L18.499 14.314C18.7402 14.651 18.6621 15.119 18.3252 15.36C17.9883 15.601 17.519 15.5229 17.2793 15.186L15.8892 13.2398L14.499 15.186C14.2593 15.5229 13.79 15.601 13.4531 15.36C13.1162 15.119 13.0381 14.651 13.2793 14.314L14.9678 11.95L13.2793 9.586C13.0381 9.24902 13.1162 8.77997 13.4531 8.53998C13.5723 8.45483 13.708 8.40948 13.8442 8.40137Z" fill="black"/>
<path fill-rule="evenodd" clip-rule="evenodd" d="M4.0293 3.64697C5.01416 2.59094 6.41602 2 8.07129 2H16.5059C18.165 2 19.5679 2.591 20.5522 3.64801C21.5303 4.698 22.0391 6.14899 22.0391 7.776V15.724C22.0391 17.351 21.5303 18.802 20.5522 19.852C19.5679 20.909 18.165 21.5 16.5049 21.5H8.07129C6.41113 21.5 5.00928 20.909 4.0249 19.852C3.04688 18.801 2.53906 17.351 2.53906 15.724V7.776C2.53906 6.14801 3.05029 4.698 4.0293 3.64697ZM5.12598 4.66998C4.44922 5.39697 4.03906 6.46002 4.03906 7.776V15.724C4.03906 17.042 4.44727 18.104 5.12305 18.83C5.79297 19.55 6.78223 20 8.07129 20H16.5049C17.7939 20 18.7832 19.55 19.4541 18.83C20.1299 18.104 20.5391 17.041 20.5391 15.724V7.776C20.5391 6.45898 20.1299 5.396 19.4541 4.66998C18.7842 3.95001 17.7949 3.5 16.5059 3.5H8.07129C6.78711 3.5 5.79785 3.94897 5.12598 4.66998Z" fill="black"/>
</svg>