<svg width="25" height="24" viewBox="0 0 25 24" fill="none" xmlns="http://www.w3.org/2000/svg">
<path d="M13.9111 9.39844L15.9111 12.1985M15.9111 12.1985L17.9111 14.9984M15.9111 12.1985L17.9111 9.39844M15.9111 12.1985L13.9112 14.9984" stroke="black" stroke-width="1.5" stroke-linecap="round" stroke-linejoin="round"/>
<path d="M6.91064 9.39844V12.9484C6.91064 14.1911 7.918 15.1984 9.16064 15.1984C10.4033 15.1984 11.4106 14.1911 11.4106 12.9484V9.39844" stroke="black" stroke-width="1.5" stroke-linecap="round" stroke-linejoin="round"/>
<path d="M12.311 21C17.282 21 21.311 16.9709 21.311 12C21.311 7.03005 17.282 3 12.311 3C7.34012 3 3.31104 7.03005 3.31104 12C3.31104 15.3619 5.15396 18.293 7.88476 19.8383" stroke="black" stroke-width="1.5" stroke-linecap="round" stroke-linejoin="round"/>
</svg>