<svg width="24" height="24" viewBox="0 0 24 24" fill="none" xmlns="http://www.w3.org/2000/svg">
<path fill-rule="evenodd" clip-rule="evenodd" d="M3.92307 4.06782C4.85544 3.06754 6.18863 2.5 7.78216 2.5H16.2169C17.8144 2.5 19.1481 3.06733 20.0799 4.06801C21.0079 5.06467 21.5 6.45052 21.5 8.02638V15.9736C21.5 17.5495 21.0079 18.9353 20.0798 19.932C19.1478 20.9327 17.8139 21.5 16.2159 21.5H7.78216C6.18412 21.5 4.85063 20.9327 3.91917 19.9319C2.9915 18.9352 2.5 17.5493 2.5 15.9736V8.02638C2.5 6.44997 2.99434 5.06421 3.92307 4.06782ZM18.2103 9.83583C18.4511 9.49877 18.373 9.03036 18.0359 8.7896C17.6989 8.54884 17.2305 8.62692 16.9897 8.96398L15.6 10.9096L14.2103 8.96398C13.9696 8.62692 13.5011 8.54884 13.1641 8.7896C12.827 9.03035 12.7489 9.49877 12.9897 9.83583L14.6783 12.1999L12.9897 14.564C12.749 14.901 12.8271 15.3694 13.1641 15.6102C13.5012 15.851 13.9696 15.7729 14.2104 15.4358L15.6 13.4903L16.9897 15.4358C17.2304 15.7729 17.6988 15.851 18.0359 15.6102C18.373 15.3694 18.451 14.901 18.2103 14.564L16.5217 12.1999L18.2103 9.83583ZM7.35001 9.3999C7.35001 8.98569 7.01422 8.6499 6.60001 8.6499C6.18579 8.6499 5.85001 8.98569 5.85001 9.3999V12.9499C5.85001 14.6068 7.19315 15.9499 8.85001 15.9499C10.5069 15.9499 11.85 14.6068 11.85 12.9499V9.3999C11.85 8.98569 11.5142 8.6499 11.1 8.6499C10.6858 8.6499 10.35 8.98569 10.35 9.3999V12.9499C10.35 13.7783 9.67843 14.4499 8.85001 14.4499C8.02158 14.4499 7.35001 13.7783 7.35001 12.9499V9.3999Z" fill="black"/>
</svg>