<svg width="24" height="24" viewBox="0 0 24 24" fill="none" xmlns="http://www.w3.org/2000/svg">
<path d="M5.71862 14.8848C7.22096 14.8848 8.43821 16.103 8.43821 17.6044C8.43821 19.1057 7.22096 20.3239 5.71862 20.3239C4.21725 20.3239 3 19.1057 3 17.6044C3 16.103 4.21725 14.8848 5.71862 14.8848Z" stroke="black" stroke-width="1.5" stroke-linecap="round" stroke-linejoin="round"/>
<path d="M4.28756 15.2472C4.24767 12.153 6.8612 10.099 9.87075 10.6361C12.7733 11.1547 17.2959 14.6819 15.7312 17.9328C15.1377 19.1675 13.8426 19.8603 12.4561 19.9566C10.7406 20.0228 9.06509 19.9051 7.40025 19.7416" stroke="black" stroke-width="1.5" stroke-linecap="round" stroke-linejoin="round"/>
<path d="M17.875 19.8535H21.0003" stroke="black" stroke-width="1.5" stroke-linecap="round" stroke-linejoin="round"/>
<path d="M11.0449 13.8976C11.0644 13.8607 12.447 14.3014 13.0425 15.6403" stroke="black" stroke-width="1.5" stroke-linecap="round" stroke-linejoin="round"/>
<path d="M13.1561 12.1241C13.8265 11.2084 14.1116 10.0136 13.8557 8.90044C13.6075 7.81747 12.6559 7.19182 12.3368 6.16626C11.9884 5.04923 12.7805 3.86409 13.9209 3.69576C15.1624 3.51283 16.188 4.65419 16.8545 5.57953C19.796 9.64578 19.1888 13.7908 19.1722 18.582V19.8576" stroke="black" stroke-width="1.5" stroke-linecap="round" stroke-linejoin="round"/>
</svg>