<svg width="24" height="24" viewBox="0 0 24 24" fill="none" xmlns="http://www.w3.org/2000/svg">
<path d="M5.71998 21.0755C5.03387 21.0756 4.36313 20.8724 3.79255 20.4914C3.22196 20.1104 2.77715 19.5687 2.51441 18.9349C2.25167 18.3011 2.18282 17.6036 2.31647 16.9307C2.45013 16.2577 2.78032 15.6395 3.26533 15.1542C3.75034 14.6689 4.36832 14.3383 5.04121 14.2043C5.71409 14.0703 6.41165 14.1388 7.0456 14.4011C7.67955 14.6635 8.22145 15.108 8.60279 15.6783C8.98413 16.2487 9.1878 16.9193 9.188 17.6054C9.1872 18.5252 8.8216 19.407 8.17145 20.0575C7.52131 20.7081 6.63969 21.0741 5.71998 21.0755ZM5.71998 15.6365C5.3305 15.6363 4.94973 15.7516 4.6258 15.9678C4.30187 16.184 4.04934 16.4915 3.90015 16.8513C3.75097 17.211 3.7118 17.607 3.78767 17.989C3.86353 18.371 4.05103 18.7219 4.32636 18.9974C4.60169 19.2729 4.9525 19.4605 5.33448 19.5365C5.71646 19.6126 6.11239 19.5737 6.47224 19.4247C6.83208 19.2757 7.13969 19.0233 7.35609 18.6995C7.57249 18.3757 7.688 17.9949 7.688 17.6054C7.68747 17.0836 7.47996 16.5832 7.11103 16.2141C6.7421 15.845 6.24185 15.6372 5.71998 15.6365Z" fill="black"/>
<path d="M11.462 20.7262C9.96201 20.7262 8.55306 20.6092 7.32706 20.4892C7.22897 20.4797 7.13367 20.4509 7.04672 20.4046C6.95978 20.3582 6.88286 20.2951 6.82034 20.2189C6.75782 20.1427 6.71094 20.055 6.6824 19.9606C6.65387 19.8663 6.64422 19.7673 6.65402 19.6692C6.67623 19.4724 6.77434 19.292 6.92746 19.1663C7.08058 19.0406 7.27664 18.9796 7.47403 18.9962C9.11818 19.1809 10.7731 19.2517 12.427 19.2082C12.9676 19.1978 13.4957 19.0443 13.9576 18.7632C14.4194 18.4821 14.7985 18.0836 15.0561 17.6082C15.2353 17.2155 15.3171 16.7854 15.2945 16.3543C15.2718 15.9232 15.1455 15.504 14.9261 15.1322C14.3543 14.193 13.6011 13.3771 12.7105 12.7322C11.8199 12.0873 10.8098 11.6263 9.73905 11.3762C9.14769 11.2571 8.53729 11.2701 7.95157 11.4145C7.36585 11.5589 6.81931 11.8309 6.35104 12.2112C5.91942 12.5852 5.57733 13.0514 5.35007 13.5753C5.12281 14.0992 5.01619 14.6676 5.03806 15.2382C5.03937 15.3367 5.02125 15.4345 4.98477 15.526C4.9483 15.6175 4.89413 15.7009 4.82541 15.7715C4.75669 15.8421 4.67475 15.8984 4.58426 15.9373C4.49377 15.9762 4.3965 15.9969 4.29801 15.9982C4.19951 15.9995 4.10178 15.9814 4.01029 15.945C3.91879 15.9085 3.83537 15.8543 3.7648 15.7856C3.69423 15.7169 3.63787 15.635 3.59897 15.5445C3.56007 15.454 3.53937 15.3567 3.53806 15.2582C3.51183 14.4665 3.6637 13.6789 3.98251 12.9537C4.30133 12.2285 4.77892 11.5842 5.38004 11.0682C6.0161 10.5445 6.76028 10.1682 7.55911 9.96647C8.35794 9.76468 9.19156 9.74241 10 9.90123C11.2997 10.1893 12.526 10.7419 13.6027 11.5247C14.6794 12.3076 15.5833 13.3038 16.258 14.4512C16.5849 15.0285 16.7687 15.6756 16.7941 16.3385C16.8195 17.0014 16.6857 17.6607 16.404 18.2612C16.0307 18.9794 15.4725 19.5849 14.7868 20.0151C14.1012 20.4453 13.3131 20.6846 12.5041 20.7082C12.1551 20.7192 11.807 20.7262 11.462 20.7262Z" fill="black"/>
<path d="M21 20.6013H17.875C17.6761 20.6013 17.4853 20.5223 17.3447 20.3817C17.204 20.241 17.125 20.0502 17.125 19.8513C17.125 19.6524 17.204 19.4616 17.3447 19.321C17.4853 19.1803 17.6761 19.1013 17.875 19.1013H21C21.1989 19.1013 21.3897 19.1803 21.5303 19.321C21.671 19.4616 21.75 19.6524 21.75 19.8513C21.75 20.0502 21.671 20.241 21.5303 20.3817C21.3897 20.5223 21.1989 20.6013 21 20.6013Z" fill="black"/>
<path d="M13.044 16.391C12.8988 16.3912 12.7567 16.3492 12.635 16.2702C12.5132 16.1912 12.417 16.0786 12.3579 15.946C12.0712 15.3474 11.5653 14.8819 10.9449 14.646C10.8566 14.6341 10.7713 14.6063 10.693 14.564C10.5424 14.4838 10.4235 14.3547 10.3561 14.198C10.2887 14.0413 10.2766 13.8663 10.3219 13.7018C10.3671 13.5373 10.4671 13.3932 10.6052 13.293C10.7434 13.1929 10.9115 13.1428 11.0819 13.151C11.6624 13.2864 12.2037 13.5546 12.6631 13.9344C13.1226 14.3142 13.4877 14.7953 13.7299 15.34C13.8104 15.5218 13.8155 15.7282 13.7441 15.9138C13.6727 16.0994 13.5306 16.2491 13.349 16.33C13.2528 16.372 13.1488 16.3928 13.044 16.391Z" fill="black"/>
<path d="M19.1716 20.6083C18.9727 20.6083 18.782 20.5293 18.6413 20.3886C18.5007 20.248 18.4216 20.0572 18.4216 19.8583V18.5833C18.4216 17.8833 18.4386 17.1923 18.4536 16.5163C18.5386 12.6393 18.6126 9.29132 16.2476 6.01632C15.4216 4.87232 14.6717 4.33632 14.0297 4.43532C13.8571 4.46264 13.6924 4.52702 13.5471 4.62403C13.4017 4.72105 13.2791 4.8484 13.1876 4.99732C13.0976 5.13512 13.039 5.29094 13.0156 5.45386C12.9923 5.61677 13.0049 5.78282 13.0526 5.94032C13.201 6.32194 13.4104 6.6769 13.6726 6.99132C14.0984 7.49893 14.4105 8.09192 14.5877 8.73032C14.7288 9.39146 14.7281 10.075 14.5858 10.7359C14.4434 11.3968 14.1625 12.02 13.7617 12.5643C13.7035 12.6438 13.6302 12.7111 13.546 12.7623C13.4619 12.8135 13.3684 12.8476 13.2711 12.8627C13.1737 12.8778 13.0743 12.8736 12.9786 12.8503C12.8829 12.8269 12.7927 12.785 12.7131 12.7268C12.6336 12.6686 12.5663 12.5954 12.5151 12.5112C12.4639 12.427 12.4298 12.3336 12.4147 12.2362C12.3997 12.1389 12.4039 12.0395 12.4272 11.9438C12.4505 11.848 12.4925 11.7578 12.5507 11.6783C12.8256 11.3081 13.019 10.8838 13.1181 10.4334C13.2172 9.98304 13.2197 9.51677 13.1256 9.06532C12.9893 8.62951 12.7646 8.22646 12.4656 7.88132C12.1006 7.43532 11.8148 6.92999 11.6206 6.38732C11.5093 6.0228 11.4785 5.63845 11.5303 5.26085C11.5821 4.88325 11.7153 4.52139 11.9207 4.20032C12.1267 3.8673 12.4027 3.5831 12.7296 3.36742C13.0565 3.15175 13.4264 3.00976 13.8137 2.95132C15.6807 2.68132 17.0246 4.52932 17.4656 5.13832C20.1256 8.81632 20.0426 12.5713 19.9556 16.5453C19.9406 17.2123 19.9267 17.8903 19.9237 18.5823V19.8543C19.9242 19.9533 19.9051 20.0514 19.8675 20.143C19.8299 20.2346 19.7746 20.3179 19.7047 20.3879C19.6348 20.458 19.5517 20.5136 19.4602 20.5514C19.3687 20.5893 19.2706 20.6086 19.1716 20.6083Z" fill="black"/>
</svg>