<svg width="24" height="24" viewBox="0 0 24 24" fill="none" xmlns="http://www.w3.org/2000/svg">
<path opacity="0.4" d="M3.87744 14.4512C4.3271 14.2634 4.82061 14.1597 5.33835 14.1597C7.43557 14.1597 9.1347 15.8602 9.1347 17.956C9.1347 18.8509 8.8249 19.6738 8.30659 20.3229C9.68577 20.4406 11.087 20.5113 12.5199 20.456L12.5353 20.4552C14.0529 20.3498 15.5362 19.5852 16.2265 18.1491C17.1448 16.2409 16.2339 14.3231 14.8816 12.9135C13.521 11.4951 11.5726 10.424 10.0032 10.1436C6.97078 9.60242 4.25869 11.4781 3.87744 14.4512Z" fill="black"/>
<path d="M21 19.1022H19.922V18.5862C19.925 17.8932 19.939 17.2152 19.954 16.5492L19.9541 16.5457C20.0411 12.575 20.1232 8.82415 17.465 5.14524C17.025 4.53324 15.679 2.68024 13.816 2.96024C13.043 3.06924 12.354 3.51924 11.925 4.19524C11.503 4.86024 11.393 5.66224 11.621 6.39724C11.809 6.99624 12.157 7.46824 12.465 7.88524C12.768 8.29524 13.029 8.65024 13.126 9.07024C13.295 9.80524 13.154 10.6062 12.774 11.2972L14 12.1572C14.615 11.1162 14.85 9.87624 14.588 8.73424C14.421 8.01024 14.023 7.47024 13.672 6.99524L13.6696 6.99189C13.4095 6.63915 13.1647 6.30711 13.053 5.95024C12.956 5.63724 13.007 5.29124 13.191 4.99824C13.385 4.69424 13.688 4.49324 14.034 4.44424C14.681 4.34724 15.423 4.87424 16.248 6.02224C18.6125 9.29449 18.5391 12.6407 18.4541 16.5136L18.454 16.5162C18.439 17.1922 18.425 17.8782 18.422 18.5832V19.1022H17.875C17.461 19.1022 17.125 19.4382 17.125 19.8522C17.125 20.2662 17.461 20.6022 17.875 20.6022H19.119C19.1275 20.6027 19.1355 20.6052 19.1435 20.6076C19.1527 20.6104 19.1619 20.6132 19.172 20.6132C19.1821 20.6132 19.1914 20.6104 19.2006 20.6076C19.2086 20.6052 19.2166 20.6027 19.225 20.6022H21C21.414 20.6022 21.75 20.2662 21.75 19.8522C21.75 19.4382 21.414 19.1022 21 19.1022Z" fill="black"/>
<path d="M10.9929 14.6416C11.0066 14.6464 11.0244 14.6531 11.046 14.6617C11.1462 14.7021 11.2966 14.774 11.4654 14.883C11.8057 15.1029 12.1802 15.4467 12.4018 15.9451C12.5702 16.3235 13.0134 16.4939 13.3919 16.3256C13.7704 16.1572 13.9407 15.714 13.7724 15.3355C13.3986 14.495 12.7839 13.949 12.2792 13.623C12.0254 13.4591 11.7893 13.344 11.6062 13.2703C11.516 13.234 11.4297 13.2041 11.3537 13.1834C11.3193 13.174 11.267 13.1609 11.2085 13.1531C11.1841 13.1498 11.1227 13.1422 11.0463 13.1472C11.0102 13.1495 10.9321 13.1568 10.8395 13.1898C10.7586 13.2187 10.5522 13.3082 10.4258 13.5483C10.2329 13.9148 10.3737 14.3684 10.7402 14.5613C10.8214 14.6041 10.9069 14.6304 10.9929 14.6416Z" fill="black"/>
<path d="M5.33849 15.1934C3.81277 15.1934 2.57617 16.4312 2.57617 17.9565C2.57617 19.4818 3.81277 20.7197 5.33849 20.7197C6.86493 20.7197 8.10163 19.4819 8.10163 17.9565C8.10163 16.4311 6.86493 15.1934 5.33849 15.1934Z" fill="black"/>
</svg>