<svg width="24" height="24" viewBox="0 0 24 24" fill="none" xmlns="http://www.w3.org/2000/svg">
<path fill-rule="evenodd" clip-rule="evenodd" d="M4.74 15.8982C5.03 15.7182 5.37 15.6282 5.72 15.6282C6.8 15.6282 7.69 16.5182 7.69 17.5982C7.69 18.2082 7.41 18.7582 6.97 19.1182C6.63 19.3982 6.19 19.5682 5.72 19.5682C4.63 19.5682 3.75 18.6882 3.75 17.5982C3.75 16.8682 4.15 16.2282 4.74 15.8982ZM10.96 14.6482C10.87 14.6382 10.79 14.6082 10.71 14.5682C10.34 14.3882 10.19 13.9382 10.37 13.5682C10.5 13.3082 10.8 13.1782 11.07 13.1482C11.54 13.1582 13.07 13.8482 13.73 15.3382C13.9 15.7182 13.73 16.1582 13.35 16.3282C13.25 16.3682 13.15 16.3882 13.04 16.3882C12.76 16.3882 12.48 16.2282 12.36 15.9482C11.99 15.1282 11.21 14.7282 10.96 14.6482ZM21 19.1022H19.922V18.5862C19.925 17.8932 19.939 17.2152 19.954 16.5492C20.041 12.5772 20.124 8.82524 17.465 5.14524C17.025 4.53324 15.679 2.68024 13.816 2.96024C13.043 3.06924 12.354 3.51924 11.925 4.19524C11.503 4.86024 11.393 5.66224 11.621 6.39724C11.809 6.99624 12.157 7.46824 12.465 7.88524C12.768 8.29524 13.029 8.65024 13.126 9.07024C13.295 9.80524 13.154 10.6062 12.774 11.2972C11.809 10.7132 10.807 10.2992 9.959 10.1502C8.328 9.85624 6.718 10.2612 5.543 11.2592C4.525 12.1212 3.922 13.3312 3.809 14.7062C2.875 15.3272 2.25 16.3932 2.25 17.5982C2.25 19.5182 3.81 21.0682 5.72 21.0682C6.55 21.0682 7.3 20.7782 7.89 20.2982C7.893 20.2952 7.895 20.2922 7.899 20.2902C9.241 20.4152 10.401 20.4792 11.486 20.4792C11.826 20.4792 12.16 20.4732 12.492 20.4612C14.167 20.3402 15.547 19.4762 16.182 18.1492C16.72 17.0332 16.669 15.7902 16.035 14.5542C15.575 13.6582 14.84 12.8432 14 12.1572C14.615 11.1162 14.85 9.87624 14.588 8.73424C14.421 8.01024 14.023 7.47024 13.672 6.99524C13.411 6.64124 13.165 6.30824 13.053 5.95024C12.956 5.63724 13.007 5.29124 13.191 4.99824C13.385 4.69424 13.688 4.49324 14.034 4.44424C14.681 4.34724 15.423 4.87424 16.248 6.02224C18.613 9.29524 18.539 12.6422 18.454 16.5162C18.439 17.1922 18.425 17.8782 18.422 18.5832V19.1022H17.875C17.461 19.1022 17.125 19.4382 17.125 19.8522C17.125 20.2662 17.461 20.6022 17.875 20.6022H19.119C19.137 20.6032 19.153 20.6132 19.172 20.6132C19.191 20.6132 19.207 20.6032 19.225 20.6022H21C21.414 20.6022 21.75 20.2662 21.75 19.8522C21.75 19.4382 21.414 19.1022 21 19.1022Z" fill="black"/>
</svg>