<svg width="25" height="24" viewBox="0 0 25 24" fill="none" xmlns="http://www.w3.org/2000/svg">
<path d="M9.10106 16.9629C9.09814 17.1414 9.07438 17.3192 9.03085 17.4924C8.9071 17.8935 8.66008 18.2449 8.32489 18.4977C7.9897 18.7504 7.58376 18.8908 7.16405 18.8994C6.74323 18.8997 6.3337 18.7626 5.99834 18.5084C5.66299 18.2542 5.4199 17.8976 5.30652 17.4924C5.25489 17.3206 5.22791 17.1422 5.22656 16.9629C5.22656 16.4491 5.43079 15.9562 5.79406 15.5929C6.15733 15.2296 6.65031 15.0254 7.16405 15.0254C7.6778 15.0254 8.17029 15.2296 8.53356 15.5929C8.89683 15.9562 9.10106 16.4491 9.10106 16.9629V16.9629Z" stroke="black" stroke-width="1.5" stroke-linecap="round" stroke-linejoin="round"/>
<path d="M19.8263 17.0333C19.8234 17.2056 19.8001 17.3773 19.7566 17.5445C19.6407 17.9349 19.3963 18.2781 19.0603 18.5226C18.7244 18.7671 18.3149 18.8991 17.8941 18.8991C17.4734 18.8991 17.0644 18.7671 16.7284 18.5226C16.3925 18.2781 16.1481 17.9349 16.0322 17.5445C15.9838 17.3783 15.96 17.206 15.962 17.0333C15.9429 16.7771 15.9789 16.5197 16.0673 16.2774C16.1558 16.0351 16.2951 15.8131 16.4764 15.625C16.6576 15.437 16.8769 15.287 17.1209 15.1844C17.3649 15.0819 17.6281 15.0291 17.8941 15.0291C18.1602 15.0291 18.4234 15.0819 18.6674 15.1844C18.9113 15.287 19.1311 15.437 19.3124 15.625C19.4937 15.8131 19.633 16.0351 19.7214 16.2774C19.8099 16.5197 19.8454 16.7771 19.8263 17.0333V17.0333Z" stroke="black" stroke-width="1.5" stroke-linecap="round" stroke-linejoin="round"/>
<path d="M15.9612 16.9629H9.10156" stroke="black" stroke-width="1.5" stroke-linecap="round" stroke-linejoin="round"/>
<path d="M4.96648 17.0229H4.65689C4.08489 17.0229 3.53632 16.7956 3.13185 16.3911C2.72739 15.9866 2.5 15.4381 2.5 14.8661V7.25845C2.5 6.68645 2.72739 6.13788 3.13185 5.73342C3.53632 5.32895 4.08489 5.10156 4.65689 5.10156H17.6372C17.9397 5.1025 18.2378 5.17624 18.5055 5.31706C18.7732 5.45788 19.0027 5.66117 19.1749 5.90991L22.1704 10.2032C22.3877 10.5243 22.5027 10.9046 22.5 11.2924L22.4497 14.8661C22.451 15.1488 22.3966 15.4294 22.2893 15.691C22.182 15.9526 22.0242 16.1907 21.8247 16.3911C21.6252 16.5915 21.3881 16.7506 21.127 16.8591C20.8659 16.9676 20.5858 17.0229 20.3031 17.0229H19.9735" stroke="black" stroke-width="1.5" stroke-linecap="round" stroke-linejoin="round"/>
<path opacity="0.4" d="M13.8438 11.7402H22.4707" stroke="black" stroke-width="1.5" stroke-linecap="round" stroke-linejoin="round"/>
<path opacity="0.4" d="M5.72461 11.7402H10.9167" stroke="black" stroke-width="1.5" stroke-linecap="round" stroke-linejoin="round"/>
<path d="M13.8438 5.16016V16.9623" stroke="black" stroke-width="1.5" stroke-linecap="round" stroke-linejoin="round"/>
</svg>