<svg width="25" height="24" viewBox="0 0 25 24" fill="none" xmlns="http://www.w3.org/2000/svg">
<path fill-rule="evenodd" clip-rule="evenodd" d="M2.33398 7.68533C2.33398 5.04605 4.47354 2.90625 7.11209 2.90625H17.0549C19.6943 2.90625 21.834 5.04593 21.834 7.68533V13.1418C21.834 15.7812 19.6943 17.9208 17.0549 17.9208H7.11209C4.47354 17.9208 2.33398 15.781 2.33398 13.1418V7.68533ZM7.11209 4.40625C5.30221 4.40625 3.83398 5.87424 3.83398 7.68533V13.1418C3.83398 14.9529 5.30221 16.4208 7.11209 16.4208H17.0549C18.8659 16.4208 20.334 14.9527 20.334 13.1418V7.68533C20.334 5.87436 18.8659 4.40625 17.0549 4.40625H7.11209Z" fill="black"/>
<path fill-rule="evenodd" clip-rule="evenodd" d="M6.83789 20.3438C6.83789 19.9295 7.17368 19.5938 7.58789 19.5938H16.5782C16.9924 19.5938 17.3282 19.9295 17.3282 20.3438C17.3282 20.758 16.9924 21.0938 16.5782 21.0938H7.58789C7.17368 21.0938 6.83789 20.758 6.83789 20.3438Z" fill="black"/>
<path fill-rule="evenodd" clip-rule="evenodd" d="M11.074 8.93973C10.9717 9.85821 10.9683 10.8499 11.0747 11.8913C11.0976 12.0605 11.1647 12.1104 11.1904 12.1249C11.2201 12.1416 11.3242 12.1823 11.534 12.1001C12.333 11.7776 13.0631 11.3016 13.6469 10.7737C13.8128 10.6206 13.8451 10.4901 13.8447 10.4113C13.8443 10.3309 13.8092 10.2026 13.6487 10.0571L13.6459 10.0546L13.6459 10.0546C13.0334 9.49361 12.3258 9.05319 11.5274 8.72637L11.5209 8.72373L11.5209 8.7237C11.3574 8.65496 11.2496 8.68095 11.2015 8.70622C11.1647 8.72553 11.097 8.77671 11.074 8.93973ZM12.0986 7.33937C11.58 7.12252 10.9994 7.11806 10.504 7.37826C9.99659 7.64477 9.6661 8.14374 9.58611 8.74941L9.58432 8.76406C9.46798 9.80188 9.46565 10.9075 9.58359 12.0544L9.58547 12.0709C9.65697 12.6415 9.95181 13.1489 10.4545 13.432C10.9535 13.7129 11.543 13.709 12.0866 13.4946L12.0866 13.4946L12.0919 13.4925C13.0674 13.0993 13.9485 12.5239 14.6558 11.8838L14.6558 11.8838L14.6598 11.8801C15.0888 11.4861 15.3477 10.9683 15.3447 10.4033C15.3417 9.84024 15.0791 9.32981 14.6576 8.94711C13.9071 8.26007 13.0478 7.72831 12.0986 7.33937Z" fill="black"/>
</svg>