<svg width="25" height="24" viewBox="0 0 25 24" fill="none" xmlns="http://www.w3.org/2000/svg">
<path d="M7.86209 3.65625H17.8049C20.0301 3.65625 21.834 5.46014 21.834 7.68533V13.1418C21.834 15.367 20.0301 17.1708 17.8049 17.1708H7.86209C5.63788 17.1708 3.83398 15.367 3.83398 13.1418V7.68533C3.83398 5.46014 5.63788 3.65625 7.86209 3.65625Z" stroke="black" stroke-width="1.5" stroke-linecap="round" stroke-linejoin="round"/>
<path d="M8.33789 20.3438H17.3282" stroke="black" stroke-width="1.5" stroke-linecap="round" stroke-linejoin="round"/>
<path fill-rule="evenodd" clip-rule="evenodd" d="M14.9025 11.3277C14.2564 11.9125 13.4498 12.4389 12.5615 12.7969C11.8065 13.0947 11.1731 12.723 11.0797 11.9777C10.9668 10.8802 10.9697 9.8284 11.0797 8.84764C11.1818 8.07413 11.8785 7.74526 12.5615 8.03229C13.4362 8.39034 14.2204 8.87683 14.9025 9.50148C15.4853 10.0298 15.4989 10.78 14.9025 11.3277Z" stroke="black" stroke-width="1.5" stroke-linecap="round" stroke-linejoin="round"/>
</svg>