<svg width="25" height="24" viewBox="0 0 25 24" fill="none" xmlns="http://www.w3.org/2000/svg">
<path d="M7.36209 3.65625H17.3049C19.5301 3.65625 21.334 5.46014 21.334 7.68533V13.1418C21.334 15.367 19.5301 17.1708 17.3049 17.1708H7.36209C5.13788 17.1708 3.33398 15.367 3.33398 13.1418V7.68533C3.33398 5.46014 5.13788 3.65625 7.36209 3.65625Z" stroke="black" stroke-width="1.5" stroke-linecap="round" stroke-linejoin="round"/>
<path d="M7.83789 20.3438H16.8282" stroke="black" stroke-width="1.5" stroke-linecap="round" stroke-linejoin="round"/>
<path opacity="0.4" fill-rule="evenodd" clip-rule="evenodd" d="M14.4015 11.3277C13.7554 11.9125 12.9488 12.4389 12.0605 12.7969C11.3055 13.0947 10.6721 12.723 10.5787 11.9777C10.4658 10.8802 10.4687 9.8284 10.5787 8.84764C10.6808 8.07413 11.3775 7.74526 12.0605 8.03229C12.9352 8.39034 13.7194 8.87683 14.4015 9.50148C14.9843 10.0298 14.9979 10.78 14.4015 11.3277Z" stroke="black" stroke-width="1.5" stroke-linecap="round" stroke-linejoin="round"/>
</svg>