<svg width="25" height="25" viewBox="0 0 25 25" fill="none" xmlns="http://www.w3.org/2000/svg">
<path fill-rule="evenodd" clip-rule="evenodd" d="M9.09287 10.1045C6.41823 10.1045 4.25 12.2727 4.25 14.9474C4.25 17.622 6.41823 19.7902 9.09287 19.7902C11.7675 19.7902 13.9357 17.622 13.9357 14.9474C13.9357 12.2727 11.7675 10.1045 9.09287 10.1045ZM2.75 14.9474C2.75 11.4443 5.5898 8.60449 9.09287 8.60449C12.5959 8.60449 15.4357 11.4443 15.4357 14.9474C15.4357 18.4504 12.5959 21.2902 9.09287 21.2902C5.5898 21.2902 2.75 18.4504 2.75 14.9474Z" fill="black"/>
<path fill-rule="evenodd" clip-rule="evenodd" d="M15.9071 10.1045C13.2324 10.1045 11.0642 12.2727 11.0642 14.9474C11.0642 17.622 13.2324 19.7902 15.9071 19.7902C18.5817 19.7902 20.7499 17.622 20.7499 14.9474C20.7499 12.2727 18.5817 10.1045 15.9071 10.1045ZM9.56421 14.9474C9.56421 11.4443 12.404 8.60449 15.9071 8.60449C19.4101 8.60449 22.2499 11.4443 22.2499 14.9474C22.2499 18.4504 19.4101 21.2902 15.9071 21.2902C12.404 21.2902 9.56421 18.4504 9.56421 14.9474Z" fill="black"/>
<path fill-rule="evenodd" clip-rule="evenodd" d="M12.3715 4.44727C9.65326 4.44727 7.46436 6.62355 7.46436 9.29014C7.46436 11.9567 9.65326 14.133 12.3715 14.133C15.0898 14.133 17.2787 11.9567 17.2787 9.29014C17.2787 6.62355 15.0898 4.44727 12.3715 4.44727ZM5.96436 9.29014C5.96436 5.77901 8.84104 2.94727 12.3715 2.94727C15.902 2.94727 18.7787 5.77901 18.7787 9.29014C18.7787 12.8013 15.902 15.633 12.3715 15.633C8.84104 15.633 5.96436 12.8013 5.96436 9.29014Z" fill="black"/>
</svg>