<svg width="25" height="24" viewBox="0 0 25 24" fill="none" xmlns="http://www.w3.org/2000/svg">
<path d="M12.25 3C7.27908 3 3.25 7.02908 3.25 12C3.25 16.9699 7.27908 21 12.25 21C17.2209 21 21.25 16.9699 21.25 12C21.25 8.10951 18.782 4.79593 15.3261 3.53931" stroke="black" stroke-width="1.5" stroke-linecap="round" stroke-linejoin="round"/>
<path d="M8.62558 14.7383L7.65747 15.7064M10.6773 16.2552L10.0906 17.4928" stroke="black" stroke-width="1.5" stroke-linecap="round" stroke-linejoin="round"/>
<path d="M15.9282 14.7383L16.8963 15.7064M13.8765 16.2552L14.4632 17.4928" stroke="black" stroke-width="1.5" stroke-linecap="round" stroke-linejoin="round"/>
<path d="M7.45361 13.8926C8.24853 15.8959 10.0943 17.2951 12.2455 17.2951C14.3977 17.2951 16.2512 15.8959 17.0462 13.8926" stroke="black" stroke-width="1.5" stroke-linecap="round" stroke-linejoin="round"/>
<path fill-rule="evenodd" clip-rule="evenodd" d="M8.21081 11.47C9.46984 12.2056 11.4401 11.0098 10.8524 10.317C10.0789 9.40534 7.7 8.2115 7.54919 8.32826C7.16876 8.62113 7.19795 10.8784 8.21081 11.47Z" stroke="black" stroke-width="1.5" stroke-linecap="round" stroke-linejoin="round"/>
<path fill-rule="evenodd" clip-rule="evenodd" d="M16.2905 11.47C15.0314 12.2056 13.0612 11.0098 13.6489 10.317C14.4224 9.40534 16.8013 8.2115 16.9521 8.32826C17.3325 8.62113 17.3033 10.8784 16.2905 11.47Z" stroke="black" stroke-width="1.5" stroke-linecap="round" stroke-linejoin="round"/>
</svg>