<svg width="25" height="25" viewBox="0 0 25 25" fill="none" xmlns="http://www.w3.org/2000/svg">
<path fill-rule="evenodd" clip-rule="evenodd" d="M21.5 20.8691L3.5 20.8691C3.08579 20.8691 2.75 20.5334 2.75 20.1191C2.75 19.7049 3.08579 19.3691 3.5 19.3691L21.5 19.3691C21.9142 19.3691 22.25 19.7049 22.25 20.1191C22.25 20.5334 21.9142 20.8691 21.5 20.8691Z" fill="black"/>
<path fill-rule="evenodd" clip-rule="evenodd" d="M14.8994 13.3667L18.7399 13.3667C19.7132 13.3667 20.4502 14.1792 20.4502 15.117L20.4502 20.1179C20.4502 20.5321 20.1144 20.8679 19.7002 20.8679C19.2859 20.8679 18.9502 20.5321 18.9502 20.1179L18.9502 15.117C18.9502 14.9494 18.8277 14.8667 18.7399 14.8667L15.6494 14.8667L15.6494 20.1179C15.6494 20.5321 15.3136 20.8679 14.8994 20.8679C14.4852 20.8679 14.1494 20.5321 14.1494 20.1179L14.1494 14.1167C14.1494 13.7025 14.4852 13.3667 14.8994 13.3667Z" fill="black"/>
<path fill-rule="evenodd" clip-rule="evenodd" d="M10.0991 8.36768L13.9396 8.36768C14.9129 8.36768 15.6499 9.18018 15.6499 10.1179L15.6499 20.118C15.6499 20.5322 15.3141 20.868 14.8999 20.868C14.4856 20.868 14.1499 20.5322 14.1499 20.118L14.1499 10.1179C14.1499 9.95035 14.0274 9.86768 13.9396 9.86768L10.8491 9.86768L10.8491 20.118C10.8491 20.5322 10.5133 20.868 10.0991 20.868C9.68491 20.868 9.34912 20.5322 9.34912 20.118L9.34912 9.11768C9.34912 8.70346 9.68491 8.36768 10.0991 8.36768Z" fill="black"/>
<path fill-rule="evenodd" clip-rule="evenodd" d="M6.26058 3.36768L9.14075 3.36768C10.1141 3.36768 10.851 4.18018 10.851 5.11794L10.851 20.1191C10.851 20.5333 10.5152 20.8691 10.101 20.8691C9.68682 20.8691 9.35103 20.5333 9.35103 20.1191L9.35103 5.11794C9.35103 4.95035 9.22858 4.86768 9.14075 4.86768L6.26058 4.86768C6.17275 4.86768 6.05029 4.95035 6.05029 5.11794L6.05029 20.1191C6.05029 20.5333 5.71451 20.8691 5.30029 20.8691C4.88608 20.8691 4.55029 20.5333 4.55029 20.1191L4.55029 5.11794C4.55029 4.18019 5.28723 3.36768 6.26058 3.36768Z" fill="black"/>
</svg>