<svg width="25" height="25" viewBox="0 0 25 25" fill="none" xmlns="http://www.w3.org/2000/svg">
<path fill-rule="evenodd" clip-rule="evenodd" d="M21.5 20.8691L3.5 20.8691C3.08579 20.8691 2.75 20.5334 2.75 20.1191C2.75 19.7049 3.08579 19.3691 3.5 19.3691L21.5 19.3691C21.9142 19.3691 22.25 19.7049 22.25 20.1191C22.25 20.5334 21.9142 20.8691 21.5 20.8691Z" fill="black"/>
<path fill-rule="evenodd" clip-rule="evenodd" d="M9.35103 14.8667L6.26058 14.8667C6.17275 14.8667 6.05029 14.9494 6.05029 15.117L6.05029 20.1179C6.05029 20.5321 5.71451 20.8679 5.30029 20.8679C4.88608 20.8679 4.55029 20.5321 4.55029 20.1179L4.55029 15.117C4.55029 14.1792 5.28723 13.3667 6.26058 13.3667L10.101 13.3667C10.2999 13.3667 10.4907 13.4457 10.6314 13.5864C10.772 13.727 10.851 13.9178 10.851 14.1167L10.851 20.1179C10.851 20.5321 10.5152 20.8679 10.101 20.8679C9.68682 20.8679 9.35103 20.5321 9.35103 20.1179L9.35103 14.8667Z" fill="black"/>
<path fill-rule="evenodd" clip-rule="evenodd" d="M14.8994 8.36768L18.7399 8.36768C19.7132 8.36768 20.4502 9.18018 20.4502 10.1179L20.4502 20.118C20.4502 20.5322 20.1144 20.868 19.7002 20.868C19.2859 20.868 18.9502 20.5322 18.9502 20.118L18.9502 10.1179C18.9502 9.95035 18.8277 9.86768 18.7399 9.86768L15.6494 9.86768L15.6494 20.118C15.6494 20.5322 15.3136 20.868 14.8994 20.868C14.4852 20.868 14.1494 20.5322 14.1494 20.118L14.1494 9.11768C14.1494 8.70346 14.4852 8.36768 14.8994 8.36768Z" fill="black"/>
<path fill-rule="evenodd" clip-rule="evenodd" d="M13.9396 4.86768L11.0594 4.86768C10.9716 4.86768 10.8491 4.95035 10.8491 5.11794L10.8491 20.1191C10.8491 20.5333 10.5133 20.8691 10.0991 20.8691C9.68491 20.8691 9.34912 20.5333 9.34912 20.1191L9.34912 5.11794C9.34912 4.18018 10.0861 3.36768 11.0594 3.36768L13.9396 3.36768C14.9129 3.36768 15.6499 4.18019 15.6499 5.11794V20.1191C15.6499 20.5333 15.3141 20.8691 14.8999 20.8691C14.4856 20.8691 14.1499 20.5333 14.1499 20.1191V5.11794C14.1499 4.95035 14.0274 4.86768 13.9396 4.86768Z" fill="black"/>
</svg>