<svg width="25" height="24" viewBox="0 0 25 24" fill="none" xmlns="http://www.w3.org/2000/svg">
<path opacity="0.4" fill-rule="evenodd" clip-rule="evenodd" d="M13.252 10.333C13.252 10.747 12.916 11.083 12.502 11.083C12.088 11.083 11.752 10.747 11.752 10.333V8.333C11.752 7.919 12.088 7.583 12.502 7.583C12.916 7.583 13.252 7.919 13.252 8.333V10.333ZM13.252 15.667C13.252 16.081 12.916 16.417 12.502 16.417C12.088 16.417 11.752 16.081 11.752 15.667V13.667C11.752 13.253 12.088 12.917 12.502 12.917C12.916 12.917 13.252 13.253 13.252 13.667V15.667ZM16.717 2.5H13.552C13.3863 2.5 13.252 2.63431 13.252 2.8V5.001C13.252 5.415 12.916 5.751 12.502 5.751C12.088 5.751 11.752 5.415 11.752 5.001V2.8C11.752 2.63431 11.6177 2.5 11.452 2.5H8.282C5.123 2.5 3 4.721 3 8.026V15.974C3 19.279 5.123 21.5 8.282 21.5H11.452C11.6177 21.5 11.752 21.3657 11.752 21.2V18.999C11.752 18.585 12.088 18.249 12.502 18.249C12.916 18.249 13.252 18.585 13.252 18.999V21.2C13.252 21.3657 13.3863 21.5 13.552 21.5H16.716C19.877 21.5 22 19.279 22 15.974V8.026C22 4.721 19.877 2.5 16.717 2.5Z" fill="black"/>
<path d="M18.416 14.5471C18.742 14.3911 18.944 14.0701 18.944 13.7091V10.2911C18.944 9.9301 18.741 9.6081 18.416 9.4511C18.088 9.2951 17.712 9.3381 17.43 9.5641L15.3 11.2731C15.078 11.4511 14.951 11.7161 14.951 12.0001C14.951 12.2841 15.078 12.5491 15.3 12.7271L17.431 14.4351C17.6 14.5711 17.804 14.6411 18.011 14.6411C18.148 14.6411 18.286 14.6101 18.416 14.5471Z" fill="black"/>
<path d="M7.57504 14.4351L9.70604 12.7261C9.92704 12.5481 10.053 12.2831 10.053 12.0001C10.053 11.7161 9.92704 11.4521 9.70604 11.2731L9.70503 11.2721L7.57404 9.5641C7.29204 9.3381 6.91404 9.2961 6.58804 9.4521C6.26304 9.6081 6.06104 9.9301 6.06104 10.2911V13.7091C6.06104 14.0691 6.26304 14.3911 6.58804 14.5471C6.71804 14.6091 6.85604 14.6411 6.99404 14.6411C7.20004 14.6411 7.40404 14.5711 7.57504 14.4351Z" fill="black"/>
</svg>