<svg width="25" height="24" viewBox="0 0 25 24" fill="none" xmlns="http://www.w3.org/2000/svg">
<path fill-rule="evenodd" clip-rule="evenodd" d="M13.1403 4.75391H6.34984C3.98329 4.75391 2.5 6.42963 2.5 8.80051V15.1985C2.5 17.5694 3.97572 19.2451 6.34984 19.2451H13.1392C15.5133 19.2451 16.9912 17.5694 16.9912 15.1985V8.80051C16.9912 6.42963 15.5133 4.75391 13.1403 4.75391Z" stroke="black" stroke-width="1.5" stroke-linecap="round" stroke-linejoin="round"/>
<path opacity="0.4" d="M16.9844 9.99068L20.391 7.20249C20.9423 6.75058 21.7564 6.83167 22.2083 7.38304C22.3975 7.61439 22.5013 7.90413 22.5002 8.20252L22.4883 15.8038C22.4862 16.5174 21.9078 17.0947 21.1942 17.0925C20.8969 17.0925 20.6083 16.9887 20.378 16.7995L16.9844 14.0124" stroke="black" stroke-width="1.5" stroke-linecap="round" stroke-linejoin="round"/>
</svg>