<svg width="25" height="24" viewBox="0 0 25 24" fill="none" xmlns="http://www.w3.org/2000/svg">
<path opacity="0.4" d="M7.36209 3.89453H17.3049C19.5301 3.89453 21.334 5.69842 21.334 7.92361V16.08C21.334 18.3052 19.5301 20.1091 17.3049 20.1091H7.36209C5.13788 20.1091 3.33398 18.3052 3.33398 16.08V7.92361C3.33398 5.69842 5.13788 3.89453 7.36209 3.89453Z" stroke="black" stroke-width="1.5" stroke-linecap="round" stroke-linejoin="round"/>
<path d="M10.5654 16.4802H17.5825M10.5654 15.5391V17.1892" stroke="black" stroke-width="1.5" stroke-linecap="round" stroke-linejoin="round"/>
<path d="M7.08594 16.4805H8.26713" stroke="black" stroke-width="1.5" stroke-linecap="round" stroke-linejoin="round"/>
<path fill-rule="evenodd" clip-rule="evenodd" d="M14.1152 10.6628C13.5285 11.194 12.7949 11.6727 11.9873 11.9987C11.3004 12.2692 10.7254 11.9315 10.6407 11.2543C10.5376 10.2561 10.5405 9.30061 10.6407 8.40937C10.7331 7.70494 11.3666 7.40623 11.9873 7.66796C12.7822 7.99294 13.4954 8.43467 14.1152 9.00288C14.6445 9.48256 14.6571 10.1646 14.1152 10.6628Z" stroke="black" stroke-width="1.5" stroke-linecap="round" stroke-linejoin="round"/>
</svg>