<svg width="25" height="24" viewBox="0 0 25 24" fill="none" xmlns="http://www.w3.org/2000/svg">
<path fill-rule="evenodd" clip-rule="evenodd" d="M2.33398 7.92361C2.33398 5.28433 4.47354 3.14453 7.11209 3.14453H17.0549C19.6943 3.14453 21.834 5.28421 21.834 7.92361V16.08C21.834 18.7194 19.6943 20.8591 17.0549 20.8591H7.11209C4.47354 20.8591 2.33398 18.7193 2.33398 16.08V7.92361ZM7.11209 4.64453C5.30221 4.64453 3.83398 6.11252 3.83398 7.92361V16.08C3.83398 17.8911 5.30221 19.3591 7.11209 19.3591H17.0549C18.8659 19.3591 20.334 17.891 20.334 16.08V7.92361C20.334 6.11264 18.8659 4.64453 17.0549 4.64453H7.11209Z" fill="black"/>
<path fill-rule="evenodd" clip-rule="evenodd" d="M10.3145 14.7891C10.7287 14.7891 11.0645 15.1248 11.0645 15.5391V15.7302H17.3315C17.7457 15.7302 18.0815 16.066 18.0815 16.4802C18.0815 16.8944 17.7457 17.2302 17.3315 17.2302H11.0634C11.0421 17.6254 10.7149 17.9392 10.3145 17.9392C9.90024 17.9392 9.56445 17.6034 9.56445 17.1892V15.5391C9.56445 15.1248 9.90024 14.7891 10.3145 14.7891Z" fill="black"/>
<path fill-rule="evenodd" clip-rule="evenodd" d="M6.08594 16.4805C6.08594 16.0663 6.42172 15.7305 6.83594 15.7305H8.01713C8.43134 15.7305 8.76713 16.0663 8.76713 16.4805C8.76713 16.8947 8.43134 17.2305 8.01713 17.2305H6.83594C6.42172 17.2305 6.08594 16.8947 6.08594 16.4805Z" fill="black"/>
<path fill-rule="evenodd" clip-rule="evenodd" d="M11.1351 8.50142C11.0425 9.33045 11.0391 10.2258 11.1358 11.1678C11.1538 11.3003 11.2026 11.3264 11.206 11.3282C11.206 11.3283 11.2061 11.3283 11.2061 11.3283C11.2116 11.3314 11.2841 11.3704 11.4599 11.3018C12.1782 11.0114 12.8352 10.5831 13.3594 10.1089C13.498 9.98082 13.5172 9.8797 13.5169 9.82992C13.5167 9.77868 13.4951 9.67962 13.3616 9.5586L13.3584 9.5557L13.3584 9.55569C12.8085 9.05161 12.1722 8.656 11.4535 8.36217L11.4459 8.35907L11.4459 8.35903C11.3135 8.30318 11.2375 8.32832 11.2147 8.3403C11.2018 8.34705 11.1891 8.35713 11.1766 8.37588C11.1642 8.39449 11.1448 8.43264 11.1351 8.50142ZM12.0246 6.97512C11.5373 6.77094 10.988 6.76502 10.5171 7.01237C10.034 7.26617 9.722 7.74085 9.64709 8.31177L9.64696 8.31175L9.64541 8.32554C9.53877 9.27391 9.53642 10.2834 9.64468 11.3314L9.64651 11.3473C9.71355 11.8837 9.99147 12.3658 10.4702 12.6354C10.9451 12.9028 11.5029 12.897 12.0121 12.6965L12.0121 12.6965L12.018 12.6941C12.9125 12.3331 13.7206 11.8055 14.3686 11.2187L14.3686 11.2187L14.3728 11.2149C14.7745 10.8456 15.0198 10.3573 15.0169 9.82182C15.014 9.28836 14.7653 8.80719 14.3706 8.4487C13.6821 7.81783 12.8937 7.33087 12.0246 6.97512Z" fill="black"/>
</svg>