<svg width="25" height="24" viewBox="0 0 25 24" fill="none" xmlns="http://www.w3.org/2000/svg">
<path opacity="0.4" fill-rule="evenodd" clip-rule="evenodd" d="M21.8852 7.78V16.23C21.8852 19.38 19.8552 21.5 16.8452 21.5H8.83516C5.81516 21.5 3.78516 19.38 3.78516 16.23V7.78C3.78516 7.42 3.81516 7.07 3.86516 6.73C4.26516 4.19 6.12516 2.53 8.75516 2.5H16.9152C19.5452 2.53 21.4052 4.18 21.8052 6.73C21.8552 7.07 21.8852 7.42 21.8852 7.78Z" fill="black"/>
<path fill-rule="evenodd" clip-rule="evenodd" d="M8.75516 2.5V6.73H3.86516C3.81516 7.07 3.78516 7.42 3.78516 7.78V8.23H21.8852V7.78C21.8852 7.42 21.8552 7.07 21.8052 6.73H16.9152V2.5H15.4152V6.73H10.2552V2.5H8.75516Z" fill="black"/>
<path fill-rule="evenodd" clip-rule="evenodd" d="M12.515 17.0312H8.62305C8.20905 17.0312 7.87305 16.6952 7.87305 16.2812C7.87305 15.8672 8.20905 15.5312 8.62305 15.5312H12.515C12.929 15.5312 13.265 15.8672 13.265 16.2812C13.265 16.6952 12.929 17.0312 12.515 17.0312Z" fill="black"/>
</svg>