<svg width="25" height="25" viewBox="0 0 25 25" fill="none" xmlns="http://www.w3.org/2000/svg">
<path opacity="0.4" fill-rule="evenodd" clip-rule="evenodd" d="M9.06137 5.10962C3.59137 5.10962 1.65137 7.05962 1.65137 12.5396C1.65137 18.0196 3.59137 19.9596 9.06137 19.9596C14.5214 19.9596 16.4514 18.0196 16.4514 12.5396C16.4514 7.05962 14.5214 5.10962 9.06137 5.10962Z" fill="black"/>
<path fill-rule="evenodd" clip-rule="evenodd" d="M22.1513 7.46967C21.3713 6.62967 18.9713 8.13967 17.6113 9.09967C17.8413 10.0897 17.9513 11.2397 17.9513 12.5397C17.9513 13.8297 17.8413 14.9597 17.6213 15.9497C18.7113 16.7197 20.4913 17.8497 21.5313 17.8497C21.7913 17.8497 22.0113 17.7797 22.1513 17.6197C23.0813 16.6297 23.0813 8.46967 22.1513 7.46967Z" fill="black"/>
</svg>