<svg width="25" height="24" viewBox="0 0 25 24" fill="none" xmlns="http://www.w3.org/2000/svg">
<path fill-rule="evenodd" clip-rule="evenodd" d="M5.23534 6.92782C5.24021 6.70324 5.021 6.52752 4.82401 6.6355C3.94108 7.11946 3.33398 8.06055 3.33398 9.1275V14.8675C3.33398 15.953 3.94255 16.89 4.82722 17.3717C5.02369 17.4787 5.24106 17.3046 5.23566 17.081C5.2345 17.0331 5.23398 16.9853 5.23398 16.9375V7.0575C5.23398 7.01425 5.23441 6.97099 5.23534 6.92782Z" fill="black"/>
<path fill-rule="evenodd" clip-rule="evenodd" d="M20.8744 6.64765C20.6777 6.53844 20.4582 6.71413 20.4627 6.93908C20.4635 6.97816 20.4638 7.01754 20.4638 7.05727V16.9373C20.4638 16.98 20.4634 17.0228 20.4625 17.0654C20.4577 17.2904 20.6777 17.4661 20.8744 17.3569C21.7439 16.8739 22.3338 15.9407 22.3338 14.8673V9.12727C22.3338 8.06247 21.7439 7.1304 20.8744 6.64765Z" fill="black"/>
<path fill-rule="evenodd" clip-rule="evenodd" d="M14.3939 11.6772C14.4539 11.7372 14.5639 11.8572 14.5739 11.9972C14.5739 12.1272 14.4739 12.2472 14.3839 12.3272C13.8039 12.8572 13.1039 13.2972 12.3739 13.5872C12.2139 13.6572 12.1039 13.6472 12.0639 13.6172C12.0139 13.5872 11.9839 13.5172 11.9639 13.4272C11.8639 12.4372 11.8639 11.4772 11.9639 10.5872C11.9721 10.53 11.9936 10.4595 12.0339 10.4137C12.0516 10.3937 12.0766 10.3823 12.1025 10.3762C12.1248 10.371 12.1494 10.3672 12.1739 10.3672C12.2339 10.3672 12.2939 10.3772 12.3539 10.4072C13.1539 10.7372 13.8139 11.1472 14.3939 11.6772Z" fill="black"/>
<path fill-rule="evenodd" clip-rule="evenodd" d="M15.4077 13.434C15.4053 13.4363 15.4022 13.4375 15.399 13.4375C15.3958 13.4375 15.3927 13.4387 15.3903 13.4408C14.6811 14.0794 13.8325 14.6181 12.934 14.9875C12.664 15.0875 12.404 15.1375 12.154 15.1375C11.844 15.1375 11.554 15.0575 11.294 14.8975C10.834 14.6275 10.554 14.1675 10.474 13.5975C10.364 12.4875 10.364 11.4175 10.474 10.4075C10.554 9.8275 10.854 9.3575 11.314 9.0975C11.794 8.8175 12.384 8.7875 12.934 9.0175C13.874 9.4175 14.714 9.9375 15.404 10.5675C15.834 10.9575 16.064 11.4675 16.074 11.9975C16.074 12.526 15.8354 13.0346 15.4077 13.434ZM15.834 3.4375H9.85401C7.85401 3.4375 6.23401 5.0675 6.23401 7.0575V16.9375C6.23401 18.9375 7.85401 20.5575 9.85401 20.5575H15.834C17.834 20.5575 19.464 18.9375 19.464 16.9375V7.0575C19.464 5.0675 17.834 3.4375 15.834 3.4375Z" fill="black"/>
</svg>