<svg width="25" height="24" viewBox="0 0 25 24" fill="none" xmlns="http://www.w3.org/2000/svg">
<path fill-rule="evenodd" clip-rule="evenodd" d="M15.0478 6.729C15.2131 6.729 15.3472 6.59529 15.3478 6.42999L15.3598 2.80099C15.3603 2.63492 15.2259 2.5 15.0598 2.5H10.6068C10.4407 2.5 10.3062 2.63492 10.3068 2.80099L10.3188 6.42999C10.3193 6.59529 10.4535 6.729 10.6188 6.729H15.0478Z" fill="black"/>
<path fill-rule="evenodd" clip-rule="evenodd" d="M16.8466 6.42949C16.8468 6.59517 16.9811 6.729 17.1468 6.729H21.447C21.6312 6.729 21.7724 6.56386 21.7325 6.38401C21.2352 4.14472 19.4279 2.63024 17.1344 2.50799C16.9684 2.49915 16.8334 2.63396 16.8342 2.80022C16.8374 3.50383 16.8453 5.28614 16.8466 6.42949Z" fill="black"/>
<path fill-rule="evenodd" clip-rule="evenodd" d="M8.51946 6.729C8.68515 6.729 8.81945 6.59454 8.81954 6.42886C8.82033 4.88705 8.8269 3.48743 8.82889 2.79924C8.82937 2.63356 8.69469 2.4992 8.5292 2.50714C6.13926 2.62172 4.42771 4.10817 3.93574 6.38374C3.89681 6.56382 4.03799 6.729 4.22223 6.729H8.51946Z" fill="black"/>
<path fill-rule="evenodd" clip-rule="evenodd" d="M12.5162 17.0295H8.62416C8.21016 17.0295 7.87416 16.6935 7.87416 16.2795C7.87416 15.8655 8.21016 15.5295 8.62416 15.5295H12.5162C12.9302 15.5295 13.2662 15.8655 13.2662 16.2795C13.2662 16.6935 12.9302 17.0295 12.5162 17.0295ZM4.08516 8.22852C3.91947 8.22852 3.78516 8.36283 3.78516 8.52852V16.2285C3.78516 19.3815 5.81116 21.4995 8.82816 21.4995H16.8412C19.8572 21.4995 21.8842 19.3815 21.8842 16.2285V8.52852C21.8842 8.36283 21.7498 8.22852 21.5842 8.22852H4.08516Z" fill="black"/>
</svg>