<svg width="25" height="24" viewBox="0 0 25 24" fill="none" xmlns="http://www.w3.org/2000/svg">
<path opacity="0.4" d="M6.44166 20.0199H12.3953C14.1116 20.0199 15.503 18.6286 15.503 16.9123V7.08814C15.503 5.37182 14.1116 3.98047 12.3953 3.98047H6.44166C4.72534 3.98047 3.33398 5.37182 3.33398 7.08814V16.9123C3.33398 18.6286 4.72534 20.0199 6.44166 20.0199Z" stroke="black" stroke-width="1.5" stroke-linecap="round" stroke-linejoin="round"/>
<path fill-rule="evenodd" clip-rule="evenodd" d="M11.5971 12.8716C10.9802 13.4301 10.2086 13.9331 9.36118 14.2747C8.63826 14.5588 8.03405 14.2046 7.94551 13.4934C7.83751 12.4435 7.83945 11.4394 7.94551 10.5024C8.04183 9.76299 8.70832 9.44872 9.36118 9.7231C10.196 10.0656 10.9452 10.5297 11.5971 11.1271C12.1536 11.6311 12.1672 12.3472 11.5971 12.8716Z" stroke="black" stroke-width="1.5" stroke-linecap="round" stroke-linejoin="round"/>
<path d="M18.415 6.54297V17.4568" stroke="black" stroke-width="1.5" stroke-linecap="round" stroke-linejoin="round"/>
<path d="M21.334 8.92188V15.0769" stroke="black" stroke-width="1.5" stroke-linecap="round" stroke-linejoin="round"/>
</svg>