<svg width="25" height="24" viewBox="0 0 25 24" fill="none" xmlns="http://www.w3.org/2000/svg">
<path d="M18.13 13.0012V16.9016C18.13 18.6141 16.7416 20.0025 15.0291 20.0025H9.08915C7.37671 20.0025 5.98828 18.6141 5.98828 16.9016V7.10086C5.98828 5.38843 7.37671 4 9.08915 4H15.0291C16.7416 4 18.13 5.38843 18.13 7.10086V9.55105" stroke="black" stroke-width="1.5" stroke-linecap="round" stroke-linejoin="round"/>
<path d="M3.08398 7.46484V16.533" stroke="black" stroke-width="1.5" stroke-linecap="round" stroke-linejoin="round"/>
<path d="M21.084 7.46484V16.533" stroke="black" stroke-width="1.5" stroke-linecap="round" stroke-linejoin="round"/>
<path fill-rule="evenodd" clip-rule="evenodd" d="M14.0593 12.8714C13.4434 13.4289 12.6747 13.93 11.8282 14.2715C11.1073 14.5556 10.504 14.2015 10.4155 13.4912C10.3085 12.4453 10.3104 11.4431 10.4155 10.5081C10.5128 9.76958 11.1773 9.45725 11.8282 9.73066C12.6611 10.0722 13.4093 10.5353 14.0593 11.1308C14.6148 11.6348 14.6275 12.3489 14.0593 12.8714Z" stroke="black" stroke-width="1.5" stroke-linecap="round" stroke-linejoin="round"/>
</svg>