<svg width="25" height="24" viewBox="0 0 25 24" fill="none" xmlns="http://www.w3.org/2000/svg">
<path fill-rule="evenodd" clip-rule="evenodd" d="M18.082 17.2306H11.813C11.793 17.6266 11.465 17.9406 11.064 17.9406C10.65 17.9406 10.314 17.6046 10.314 17.1906V15.5416C10.314 15.1266 10.65 14.7916 11.064 14.7916C11.478 14.7916 11.814 15.1266 11.814 15.5416V15.7306H18.082C18.496 15.7306 18.832 16.0666 18.832 16.4806C18.832 16.8946 18.496 17.2306 18.082 17.2306ZM10.395 8.32662C10.469 7.76163 10.766 7.29963 11.212 7.04262C11.675 6.77962 12.246 6.75463 12.778 6.97962C13.654 7.33162 14.447 7.82763 15.123 8.44963C15.534 8.82263 15.765 9.31163 15.767 9.82162C15.769 10.3336 15.54 10.8276 15.124 11.2106L15.118 11.2166C14.432 11.8366 13.62 12.3486 12.771 12.6956C12.518 12.7946 12.267 12.8436 12.024 12.8436C11.726 12.8436 11.441 12.7676 11.188 12.6176C10.753 12.3586 10.464 11.8936 10.396 11.3426C10.287 10.2916 10.287 9.28163 10.395 8.32662ZM8.76698 17.2306H7.58598C7.17198 17.2306 6.83598 16.8946 6.83598 16.4806C6.83598 16.0666 7.17198 15.7306 7.58598 15.7306H8.76698C9.18098 15.7306 9.51698 16.0666 9.51698 16.4806C9.51698 16.8946 9.18098 17.2306 8.76698 17.2306ZM17.805 3.39062H7.86198C5.36498 3.39062 3.33398 5.42263 3.33398 7.92063V16.0816C3.33398 18.5796 5.36498 20.6116 7.86198 20.6116H17.805C20.302 20.6116 22.334 18.5796 22.334 16.0816V7.92063C22.334 5.42263 20.302 3.39062 17.805 3.39062Z" fill="black"/>
<path fill-rule="evenodd" clip-rule="evenodd" d="M11.9561 11.3301C11.9941 11.3511 12.0881 11.3541 12.2141 11.3041C12.8921 11.0261 13.5511 10.6111 14.1091 10.1071C14.1691 10.0521 14.2671 9.94312 14.2671 9.82812C14.2671 9.71513 14.1691 9.60913 14.1111 9.55813C13.5651 9.05613 12.9271 8.65613 12.2081 8.36812C12.1391 8.33913 12.0821 8.32812 12.0381 8.32812C12.0031 8.32812 11.9761 8.33512 11.9591 8.34513C11.9091 8.37413 11.8911 8.46012 11.8851 8.50912C11.7901 9.34412 11.7901 10.2451 11.8871 11.1751C11.8951 11.2431 11.9231 11.3101 11.9561 11.3301Z" fill="black"/>
</svg>