<svg width="25" height="24" viewBox="0 0 25 24" fill="none" xmlns="http://www.w3.org/2000/svg">
<path d="M3.08398 14.0002V16.9123C3.08398 18.6286 4.47534 20.0199 6.19166 20.0199H12.1453C13.8616 20.0199 15.253 18.6286 15.253 16.9123V7.08814C15.253 5.37182 13.8616 3.98047 12.1453 3.98047H6.19166C4.47534 3.98047 3.08398 5.37182 3.08398 7.08814V10.5442" stroke="black" stroke-width="1.5" stroke-linecap="round" stroke-linejoin="round"/>
<path fill-rule="evenodd" clip-rule="evenodd" d="M11.3471 12.8716C10.7302 13.4301 9.95864 13.9331 9.11118 14.2747C8.38826 14.5588 7.78405 14.2046 7.69551 13.4934C7.58751 12.4435 7.58945 11.4394 7.69551 10.5024C7.79183 9.76299 8.45832 9.44872 9.11118 9.7231C9.94599 10.0656 10.6952 10.5297 11.3471 11.1271C11.9036 11.6311 11.9172 12.3472 11.3471 12.8716Z" stroke="black" stroke-width="1.5" stroke-linecap="round" stroke-linejoin="round"/>
<path d="M18.165 6.54297V17.4568" stroke="black" stroke-width="1.5" stroke-linecap="round" stroke-linejoin="round"/>
<path d="M21.084 8.92188V15.0769" stroke="black" stroke-width="1.5" stroke-linecap="round" stroke-linejoin="round"/>
</svg>