<svg width="25" height="24" viewBox="0 0 25 24" fill="none" xmlns="http://www.w3.org/2000/svg">
<path d="M11.5615 11.4903C11.6815 11.6003 11.8215 11.7803 11.8315 11.9903C11.8315 12.2103 11.6815 12.4003 11.5615 12.5103C10.8415 13.1703 9.99152 13.7103 9.10152 14.0703C8.90152 14.1503 8.72152 14.1503 8.61152 14.0903C8.47152 14.0103 8.43152 13.8203 8.42152 13.7303C8.30152 12.5303 8.30152 11.3603 8.42152 10.2803C8.43152 10.1503 8.48152 9.99033 8.62152 9.91033C8.67152 9.88033 8.74152 9.87033 8.81152 9.87033C8.89152 9.87033 8.99152 9.89033 9.09152 9.94033C10.0115 10.3103 10.8415 10.8303 11.5615 11.4903Z" fill="black"/>
<path fill-rule="evenodd" clip-rule="evenodd" d="M6.51602 4.25H13.306C15.909 4.25 17.658 6.078 17.658 8.8V15.2C17.658 17.922 15.909 19.75 13.305 19.75H6.51602C3.91402 19.75 2.16602 17.922 2.16602 15.2V8.8C2.16602 6.078 3.91402 4.25 6.51602 4.25ZM12.5816 13.6102H12.5716C11.7216 14.4002 10.7116 15.0302 9.66161 15.4602C9.36161 15.5802 9.07161 15.6302 8.79161 15.6302C8.45161 15.6302 8.13161 15.5502 7.85161 15.3802C7.34161 15.0802 7.01161 14.5602 6.93161 13.9002C6.80161 12.5802 6.80161 11.3002 6.93161 10.1002C7.01161 9.44021 7.36161 8.90021 7.88161 8.61021C8.41161 8.31021 9.06161 8.29021 9.68161 8.55021C10.7516 8.99021 11.7316 9.61021 12.5816 10.3902C13.0616 10.8302 13.3216 11.3902 13.3316 11.9802C13.3316 12.5802 13.0616 13.1602 12.5816 13.6102Z" fill="black"/>
<path d="M20.577 6.81317C21.34 6.18917 22.471 6.30017 23.097 7.06217C23.361 7.38117 23.504 7.78717 23.503 8.20217L23.491 15.8002C23.488 16.7872 22.683 17.5892 21.697 17.5892C21.282 17.5892 20.879 17.4462 20.563 17.1852L19.3486 16.1869C19.0924 15.9763 18.974 15.6538 18.9908 15.3226C18.9928 15.2823 18.994 15.2415 18.994 15.2002V8.79917C18.994 8.76018 18.9929 8.72169 18.991 8.6836C18.9748 8.35136 19.0933 8.02784 19.3507 7.81712L20.577 6.81317Z" fill="black"/>
</svg>