<svg width="25" height="24" viewBox="0 0 25 24" fill="none" xmlns="http://www.w3.org/2000/svg">
<path d="M6.75335 5.92578C4.70328 5.92578 3.41699 7.37747 3.41699 9.43241V13.1842C3.41699 15.2392 4.69647 16.6918 6.75335 16.6918H12.638C14.6958 16.6918 15.9763 15.2392 15.9763 13.1842V9.43241C15.9763 7.37747 14.6958 5.92578 12.6389 5.92578H9.69614" stroke="black" stroke-width="1.5" stroke-linecap="round" stroke-linejoin="round"/>
<path d="M9.44141 3H13.6369" stroke="black" stroke-width="1.5" stroke-linecap="round" stroke-linejoin="round"/>
<path d="M15.9707 12.1531L18.9111 14.5681C19.1105 14.7325 19.3606 14.822 19.6194 14.822C20.2372 14.824 20.7393 14.3239 20.7403 13.706L20.7456 11.3086" stroke="black" stroke-width="1.5" stroke-linecap="round" stroke-linejoin="round"/>
<path d="M15.9707 10.4627L18.9227 8.0468C19.4014 7.65469 20.1059 7.72474 20.498 8.20248C20.6624 8.40291 20.7519 8.65491 20.751 8.91373" stroke="black" stroke-width="1.5" stroke-linecap="round" stroke-linejoin="round"/>
<path d="M7.39453 21.0008L10.5305 16.6914L13.6051 20.9151" stroke="black" stroke-width="1.5" stroke-linecap="round" stroke-linejoin="round"/>
<path d="M12.0754 9.41067V9.36251M12.0754 9.10938C11.9372 9.10938 11.8252 9.22137 11.8252 9.35914C11.8252 9.49738 11.9372 9.60938 12.0754 9.60938C12.2137 9.60938 12.3257 9.49738 12.3257 9.35914C12.3257 9.22137 12.2137 9.10938 12.0754 9.10938Z" stroke="black" stroke-width="1.5" stroke-linecap="round" stroke-linejoin="round"/>
</svg>