<svg width="25" height="25" viewBox="0 0 25 25" fill="none" xmlns="http://www.w3.org/2000/svg">
<path fill-rule="evenodd" clip-rule="evenodd" d="M19.398 9.42123C18.5435 9.86645 17.5071 10.5551 16.6173 11.2605C16.2927 11.5178 15.821 11.4633 15.5637 11.1387C15.3064 10.8141 15.3609 10.3424 15.6855 10.085C16.6338 9.33326 17.7498 8.58861 18.7048 8.09098C19.1775 7.84472 19.6454 7.64054 20.0517 7.53579C20.2531 7.48389 20.4795 7.44558 20.704 7.459C20.9262 7.47229 21.234 7.54337 21.4725 7.80062C21.611 7.94964 21.6971 8.12576 21.7533 8.26498C21.8136 8.41456 21.8623 8.58071 21.9028 8.75081C21.9839 9.09127 22.046 9.50567 22.0933 9.95535C22.1882 10.8582 22.2306 11.9738 22.2264 13.0756C22.2222 14.1778 22.1712 15.2873 22.0742 16.1785C22.026 16.6224 21.9646 17.0289 21.887 17.3598C21.8484 17.5249 21.8022 17.6862 21.7455 17.8306C21.694 17.9616 21.6111 18.1391 21.4718 18.2885C21.2241 18.5556 20.9016 18.6118 20.6929 18.6179C20.4747 18.6242 20.2539 18.5816 20.0577 18.5273C19.6604 18.4174 19.1971 18.2118 18.7249 17.9646C17.771 17.4651 16.6476 16.7248 15.6903 15.9786C15.3636 15.7239 15.3052 15.2527 15.5599 14.926C15.8145 14.5993 16.2858 14.5409 16.6125 14.7955C17.5123 15.4969 18.5603 16.1852 19.4207 16.6357C19.8308 16.8505 20.1695 16.9958 20.4141 17.0691C20.4182 17.0527 20.4224 17.0356 20.4266 17.0177C20.4846 16.7701 20.538 16.4306 20.583 16.0164C20.6727 15.1916 20.7223 14.1368 20.7264 13.0699C20.7305 12.0027 20.689 10.9445 20.6015 10.1122C20.5576 9.69433 20.5038 9.35084 20.4436 9.09852C20.4342 9.05907 20.425 9.02327 20.4161 8.99093C20.1717 9.05537 19.8242 9.19911 19.398 9.42123ZM20.3321 17.321C20.3321 17.321 20.3325 17.3203 20.3332 17.319C20.3325 17.3204 20.3322 17.321 20.3321 17.321Z" fill="black"/>
<path fill-rule="evenodd" clip-rule="evenodd" d="M4.55499 8.15787C3.69851 9.01709 3.2644 10.4818 3.2644 13.037C3.2644 15.5916 3.69849 17.0564 4.55502 17.9157C5.41083 18.7744 6.86928 19.2098 9.41536 19.2098C11.9609 19.2098 13.4191 18.7744 14.2748 17.9158C15.1313 17.0564 15.5654 15.5916 15.5654 13.037C15.5654 10.4818 15.1313 9.01707 14.2749 8.15784C13.4192 7.29934 11.961 6.86411 9.41536 6.86411C6.86919 6.86411 5.41077 7.29935 4.55499 8.15787ZM3.49263 7.09891C4.79328 5.7941 6.78533 5.36411 9.41536 5.36411C12.0449 5.36411 14.0368 5.79411 15.3373 7.09894C16.6371 8.40304 17.0654 10.3997 17.0654 13.037C17.0654 15.6738 16.6371 17.6704 15.3373 18.9746C14.0368 20.2795 12.045 20.7098 9.41536 20.7098C6.78524 20.7098 4.79322 20.2796 3.4926 18.9746C2.1927 17.6704 1.7644 15.6738 1.7644 13.037C1.7644 10.3997 2.19268 8.40302 3.49263 7.09891Z" fill="black"/>
</svg>