<svg width="25" height="24" viewBox="0 0 25 24" fill="none" xmlns="http://www.w3.org/2000/svg">
<path d="M20.8353 17.5571C20.3778 17.5557 19.9348 17.3964 19.5813 17.1061L16.9693 14.9651C16.6908 14.7378 16.4665 14.4513 16.3127 14.1265C16.1589 13.8016 16.0795 13.4465 16.0803 13.0871V10.1401C16.0703 10.0704 16.0703 9.99971 16.0803 9.93007V8.89606C16.0795 8.07227 15.7519 7.28247 15.1694 6.69997C14.5869 6.11746 13.7971 5.78986 12.9733 5.78906H8.73828C8.53937 5.78906 8.3486 5.71005 8.20795 5.5694C8.0673 5.42874 7.98828 5.23797 7.98828 5.03906C7.98828 4.84015 8.0673 4.64938 8.20795 4.50873C8.3486 4.36808 8.53937 4.28906 8.73828 4.28906H12.9703C14.1159 4.29045 15.22 4.71806 16.0677 5.48868C16.9154 6.25929 17.446 7.31777 17.5563 8.45807L19.5933 6.79106C19.8837 6.55358 20.2356 6.40345 20.608 6.35814C20.9804 6.31283 21.3581 6.3742 21.697 6.53511C22.0359 6.69602 22.3221 6.94986 22.5224 7.26709C22.7227 7.58432 22.8287 7.95189 22.8283 8.32706L22.8173 15.5751C22.8162 16.1 22.6069 16.6031 22.2354 16.974C21.8638 17.3448 21.3602 17.5531 20.8353 17.5531V17.5571ZM17.5773 10.3841V13.0841C17.5771 13.2215 17.6076 13.3572 17.6664 13.4814C17.7252 13.6056 17.8109 13.7151 17.9173 13.8021L20.5313 15.9441C20.6157 16.0141 20.7216 16.0529 20.8313 16.0541V16.0541C20.9583 16.0533 21.08 16.0024 21.1698 15.9126C21.2597 15.8228 21.3105 15.7011 21.3113 15.5741L21.3223 8.32506C21.3228 8.21393 21.2846 8.10609 21.2143 8.02007C21.1331 7.92156 21.0162 7.8592 20.8891 7.84665C20.7621 7.83409 20.6352 7.87236 20.5363 7.95306L17.5773 10.3841Z" fill="black"/>
<path d="M13.1576 19.608H6.67661C6.07609 19.623 5.47905 19.5125 4.9236 19.2838C4.36815 19.055 3.8665 18.713 3.45067 18.2795C3.03485 17.846 2.71398 17.3305 2.50856 16.766C2.30313 16.2015 2.21767 15.6004 2.25761 15.001V8.894C2.23127 8.22755 2.35017 7.56335 2.60607 6.94742C2.86198 6.3315 3.24876 5.77857 3.73961 5.327C3.89025 5.19691 4.08641 5.132 4.28491 5.14654C4.48342 5.16107 4.66802 5.25387 4.79811 5.40452C4.9282 5.55516 4.99312 5.7513 4.97858 5.9498C4.96405 6.14831 4.87125 6.33292 4.72061 6.463C4.39421 6.77474 4.13914 7.15344 3.97291 7.57307C3.80668 7.99269 3.73323 8.44331 3.75761 8.894V15C3.71269 15.4029 3.75577 15.8107 3.8839 16.1953C4.01202 16.5799 4.22212 16.9321 4.49969 17.2275C4.77725 17.523 5.11566 17.7546 5.49151 17.9065C5.86737 18.0583 6.27172 18.1267 6.67661 18.107H13.1576C13.882 18.1326 14.5894 17.8849 15.1396 17.413C15.2126 17.3469 15.2979 17.2958 15.3907 17.2627C15.4835 17.2295 15.5819 17.2149 15.6802 17.2198C15.7786 17.2247 15.8751 17.2489 15.9641 17.2911C16.0531 17.3332 16.133 17.3925 16.1991 17.4655C16.2652 17.5385 16.3163 17.6238 16.3495 17.7166C16.3826 17.8094 16.3972 17.9077 16.3923 18.0061C16.3874 18.1045 16.3632 18.201 16.3211 18.29C16.2789 18.379 16.2196 18.4589 16.1466 18.525C15.3221 19.2494 14.2548 19.6362 13.1576 19.608Z" fill="black"/>
<path d="M17.902 21.1142C17.7999 21.1146 17.6988 21.0939 17.605 21.0535C17.5112 21.0131 17.4268 20.9537 17.357 20.8792L1.53398 4.14022C1.40228 3.99483 1.33279 3.80363 1.34041 3.6076C1.34803 3.41158 1.43214 3.22633 1.57473 3.09159C1.71731 2.95686 1.90701 2.88335 2.10316 2.88684C2.2993 2.89032 2.48627 2.97051 2.62398 3.11023L18.445 19.8492C18.5456 19.9557 18.6128 20.0894 18.6383 20.2336C18.6638 20.3779 18.6465 20.5264 18.5886 20.661C18.5306 20.7955 18.4345 20.9101 18.3121 20.9907C18.1898 21.0712 18.0465 21.1142 17.9 21.1142H17.902Z" fill="black"/>
</svg>