<svg width="24" height="24" viewBox="0 0 24 24" fill="none" xmlns="http://www.w3.org/2000/svg">
<path fill-rule="evenodd" clip-rule="evenodd" d="M22.263 7.06217C21.637 6.30017 20.506 6.18917 19.743 6.81317L18.5167 7.81712C18.2593 8.02784 18.1409 8.35136 18.1571 8.6836C18.1589 8.72169 18.16 8.76018 18.16 8.79917V15.2002C18.16 15.2415 18.1588 15.2823 18.1568 15.3226C18.14 15.6538 18.2584 15.9763 18.5146 16.1869L19.729 17.1852C20.045 17.4462 20.448 17.5892 20.863 17.5892C21.849 17.5892 22.654 16.7872 22.657 15.8002L22.669 8.20217C22.67 7.78717 22.527 7.38117 22.263 7.06217Z" fill="black"/>
<path fill-rule="evenodd" clip-rule="evenodd" d="M12.472 4.25H5.68203C3.08003 4.25 1.33203 6.078 1.33203 8.8V15.2C1.33203 17.922 3.08003 19.75 5.68203 19.75H12.471C15.075 19.75 16.824 17.922 16.824 15.2V8.8C16.824 6.078 15.075 4.25 12.472 4.25Z" fill="black"/>
</svg>