<svg width="25" height="24" viewBox="0 0 25 24" fill="none" xmlns="http://www.w3.org/2000/svg">
<path fill-rule="evenodd" clip-rule="evenodd" d="M6.8198 8.27295C7.32696 7.72894 8.03987 7.4375 8.84827 7.4375H12.4213C13.2311 7.4375 13.9445 7.72861 14.4516 8.27334C14.9531 8.81202 15.1973 9.53811 15.1973 10.3165V13.6835C15.1973 14.4623 14.9531 15.1885 14.4515 15.7271C13.9443 16.2718 13.2309 16.5625 12.4213 16.5625H8.84827C8.03865 16.5625 7.32526 16.2718 6.81802 15.7271C6.31641 15.1885 6.07227 14.4623 6.07227 13.6835V10.3165C6.07227 9.5371 6.31808 8.81114 6.8198 8.27295ZM7.91698 9.2958C7.71695 9.51036 7.57227 9.8489 7.57227 10.3165V13.6835C7.57227 14.1527 7.71662 14.491 7.91576 14.7049C8.10927 14.9127 8.40888 15.0625 8.84827 15.0625H12.4213C12.8606 15.0625 13.1603 14.9127 13.3538 14.7049C13.5529 14.491 13.6973 14.1527 13.6973 13.6835V10.3165C13.6973 9.84789 13.553 9.50948 13.3537 9.29541C13.16 9.08739 12.8604 8.9375 12.4213 8.9375H8.84827C8.41166 8.9375 8.11157 9.08706 7.91698 9.2958Z" fill="black"/>
<path fill-rule="evenodd" clip-rule="evenodd" d="M16.5961 10.1489L16.5896 13.8504L14.9194 12.4786C14.5993 12.2158 14.1267 12.2621 13.8638 12.5822C13.6009 12.9023 13.6473 13.3749 13.9674 13.6378L15.7524 15.1038C16.0083 15.3136 16.3285 15.428 16.6575 15.4282V15.4282C17.4457 15.4297 18.0873 14.7926 18.0894 14.0032L18.0964 10.0012C18.0964 9.66816 17.9803 9.34995 17.7748 9.09665L17.7721 9.09343C17.2726 8.48474 16.3726 8.39267 15.7611 8.89406V8.89406L13.9685 10.3608C13.6479 10.6231 13.6006 11.0956 13.8629 11.4162C14.1252 11.7367 14.5977 11.784 14.9183 11.5217L16.5961 10.1489Z" fill="black"/>
<path fill-rule="evenodd" clip-rule="evenodd" d="M6.97698 3.75C5.2412 3.75 3.83398 5.15721 3.83398 6.893V8.47C3.83398 8.88421 3.4982 9.22 3.08398 9.22C2.66977 9.22 2.33398 8.88421 2.33398 8.47V6.893C2.33398 4.32879 4.41277 2.25 6.97698 2.25H8.26598C8.6802 2.25 9.01598 2.58579 9.01598 3C9.01598 3.41421 8.6802 3.75 8.26598 3.75H6.97698Z" fill="black"/>
<path fill-rule="evenodd" clip-rule="evenodd" d="M3.08398 14.7812C3.4982 14.7812 3.83398 15.117 3.83398 15.5312V17.1082C3.83398 18.8438 5.24095 20.2502 6.97698 20.2502H8.23398C8.6482 20.2502 8.98398 20.586 8.98398 21.0002C8.98398 21.4145 8.6482 21.7502 8.23398 21.7502H6.97698C4.41302 21.7502 2.33398 19.6727 2.33398 17.1082V15.5312C2.33398 15.117 2.66977 14.7812 3.08398 14.7812Z" fill="black"/>
<path fill-rule="evenodd" clip-rule="evenodd" d="M21.0843 14.7812C21.4986 14.7812 21.8343 15.117 21.8343 15.5312V17.1082C21.8343 19.6727 19.7553 21.7502 17.1913 21.7502H15.9023C15.4881 21.7502 15.1523 21.4145 15.1523 21.0002C15.1523 20.586 15.4881 20.2502 15.9023 20.2502H17.1913C18.9274 20.2502 20.3343 18.8438 20.3343 17.1082V15.5312C20.3343 15.117 20.6701 14.7812 21.0843 14.7812Z" fill="black"/>
<path fill-rule="evenodd" clip-rule="evenodd" d="M15.1836 3C15.1836 2.58579 15.5194 2.25 15.9336 2.25H17.1906C19.7548 2.25 21.8336 4.32879 21.8336 6.893V8.47C21.8336 8.88421 21.4978 9.22 21.0836 9.22C20.6694 9.22 20.3336 8.88421 20.3336 8.47V6.893C20.3336 5.15721 18.9264 3.75 17.1906 3.75H15.9336C15.5194 3.75 15.1836 3.41421 15.1836 3Z" fill="black"/>
</svg>