<?xml version="1.0" encoding="UTF-8"?>
<svg width="24px" height="24px" viewBox="0 0 24 24" version="1.1" xmlns="http://www.w3.org/2000/svg" xmlns:xlink="http://www.w3.org/1999/xlink">
    <title>Iconly/Light-Outline/Video</title>
    <g id="Iconly/Light-Outline/Video" stroke="none" stroke-width="1" fill="none" fill-rule="evenodd">
        <g id="Video" transform="translate(2.000000, 5.000000)" fill="#000000">
            <path d="M6.08921782,0.00138819444 L6.55955622,0.00199184671 C6.63995741,0.00210540123 6.72125833,0.002225 6.8033,0.00235 L7.30316694,0.00315967078 C8.39995947,0.00503209877 9.56819738,0.0076 10.458572,0.00945069444 L10.8485122,0.0102487912 C10.90979,0.0103716049 10.9691056,0.0104888889 11.0263,0.0106 C13.2763,-0.1474 15.3073,1.5226 15.4883,3.7636 C15.4899871,3.78658704 15.4914519,3.91702492 15.4926942,4.15429463 L17.5685,2.4543 C18.1725,1.9593 18.9855,1.8623 19.6905,2.1953 C20.3955,2.5303 20.8335,3.2223 20.8325017,4.0023 L20.8205,11.3513 C20.8195,12.1313 20.3805,12.8233 19.6765,13.1553 C19.4005,13.2863 19.1085,13.3493 18.8185,13.3493 C18.3675,13.3493 17.9225,13.1943 17.5555,12.8933 L15.4973353,11.1855152 C15.4973237,11.2144596 15.4973119,11.2434879 15.4973,11.2726 C15.5393,12.3286 15.1633,13.3456 14.4373,14.1356 C13.6743,14.9666 12.6223,15.4496 11.4763,15.4966 C11.4568556,15.4979889 11.3473262,15.4989341 11.1675862,15.4995214 L10.7725195,15.5002104 C10.6184166,15.5003236 10.4433307,15.5003264 10.2515546,15.5002374 L9.40561134,15.4994356 C9.32939414,15.4993353 9.25195844,15.4992276 9.17346324,15.499113 L8.69105,15.49835 C7.54168889,15.4964056 6.24699136,15.4934025 5.24323553,15.4912228 L4.83213916,15.4903445 C4.70189259,15.4900722 4.57885556,15.4898222 4.4643,15.4896 C4.3583,15.4976 4.2523,15.5016005 4.1463,15.5016005 C2.0323,15.5026 0.1883,13.8826 0.0143,11.7576 L0.0141442593,11.7554469 L0.01321,11.73562 C0.01314,11.7334633 0.0130686111,11.7310844 0.0129959259,11.7284502 L0.0123092593,11.6969519 C0.0122296296,11.692487 0.0121489815,11.6876674 0.0120674074,11.6824598 L0.0113107407,11.6242215 C0.0112244444,11.6163878 0.0111375,11.6080667 0.01105,11.599225 L0.01025,11.5047 C0.01016,11.4924367 0.0100697222,11.4795533 0.00997925926,11.4660169 L0.009435,11.376695 C0.00934416667,11.3604133 0.00925333333,11.3434122 0.00916259259,11.3256585 L0.00835092593,11.1446602 C0.00826157407,11.1220926 0.00817259259,11.098673 0.00808407407,11.0743681 L0.00730240741,10.8308298 C0.0072175,10.8009156 0.00713333333,10.7700167 0.00705,10.7381 L0.006325,10.422475 C0.0062475,10.3841533 0.00617111111,10.3447144 0.00609592593,10.3041252 L0.00525740741,9.75971481 C0.00519333333,9.70939222 0.00513083333,9.65778667 0.00507,9.604865 L0.00429407407,8.70818815 C0.00425222222,8.64127667 0.0042125,8.57288333 0.004175,8.502975 L0.00416074074,4.58504648 C0.00420361111,4.46622111 0.00425,4.34541667 0.0043,4.2226 C-0.0437,3.1916 0.3303,2.1676 1.0603,1.3706 C1.8223,0.5386 2.8733,0.0536 4.0203,0.0046 C4.03574444,0.00348888889 4.10883086,0.00264938272 4.22938368,0.00204032922 L4.44454074,0.00129444444 C4.48590957,0.00119722222 4.52992706,0.00111311728 4.57643422,0.00104148663 L5.86453114,0.00115041152 C5.93810298,0.00122191358 6.01305154,0.00130138889 6.08921782,0.00138819444 Z M11.0803,1.5086 C9.81774444,1.50676667 8.27397593,1.50455988 6.95656372,1.50312075 L6.26347455,1.50241876 C6.15271804,1.50231674 6.04459492,1.50222277 5.93948656,1.50213772 L4.20041111,1.50219259 C4.13496667,1.50248889 4.09263333,1.50293333 4.0763,1.5036 C3.3383,1.5346 2.6573,1.8476 2.1663,2.3836 C1.7083,2.8846 1.4723,3.5246 1.5033,4.1886 L1.50412621,8.051563 C1.50417033,8.13683894 1.50421667,8.22152889 1.50426531,8.30552322 L1.50518056,9.49956356 C1.50525477,9.57386103 1.50533178,9.64691475 1.5054117,9.71861508 L1.50592681,10.1316994 C1.50601873,10.1975477 1.50611375,10.2618234 1.50621197,10.3244167 L1.50718494,10.8393758 C1.5082496,11.3029937 1.5095973,11.6037081 1.5113,11.6616 C1.6253,13.0466 2.9233,14.1056 4.4093,13.9916 C4.56644286,13.9918286 4.72790898,13.9920735 4.8927268,13.9923308 L5.39626378,13.993136 C5.82263789,13.9938315 6.2638878,13.9945801 6.70483276,13.9953205 L7.23284876,13.9962011 C7.495812,13.9966356 7.75647943,13.9970583 8.011572,13.997456 L8.51335243,13.9982142 C8.59541979,13.9983337 8.67662483,13.9984495 8.7568461,13.998561 L9.22539696,13.9991752 C9.30119738,13.9992678 9.37577114,13.9993551 9.44899679,13.9994367 L11.2144366,13.9994044 C11.3299261,13.998991 11.4024714,13.9984 11.4243,13.9976 C12.1593,13.9676 12.8413,13.6556 13.3323,13.1206 C13.7913,12.6216 14.0273,11.9816 13.9983,11.3206 L13.997425,11.3041 L13.997425,11.3041 L13.997237,6.4679077 C13.9971935,6.38936094 13.997147,6.31182877 13.9970974,6.23542145 L13.9963462,5.37958302 C13.99627,5.31393866 13.9961901,5.24986018 13.9961066,5.18745786 L13.9952519,4.67406998 C13.9949317,4.52001072 13.994575,4.38401382 13.9941788,4.2690563 L13.9933324,4.06807587 C13.9927317,3.95396669 13.9920568,3.88078919 13.9913,3.8556 C13.8783,2.4636 12.5743,1.3916 11.0803,1.5086 Z M18.5185,3.6153 L15.4969215,6.08059306 C15.4970368,6.20345914 15.4971419,6.33117851 15.4972369,6.4637451 L15.4978879,8.97138598 L15.4978879,8.97138598 L18.5065,11.7343 C18.7275,11.9143 18.9495,11.8403 19.0355,11.7983 C19.1215,11.7583 19.3205,11.6333 19.3205,11.3493 L19.3325,4.0003 C19.3335,3.7163 19.1335,3.5913 19.0475,3.5503 C18.9625,3.5103 18.7375,3.4353 18.5185,3.6153 Z" id="Combined-Shape"></path>
        </g>
    </g>
</svg>