<svg width="25" height="24" viewBox="0 0 25 24" fill="none" xmlns="http://www.w3.org/2000/svg">
<path opacity="0.4" d="M21.05 17.6845V12.5278C21.05 10.6986 19.5663 9.21484 17.7371 9.21484H7.26314C5.43299 9.21484 3.94922 10.6986 3.94922 12.5278V17.6845C3.94922 19.5146 5.43299 20.9984 7.26314 20.9984H17.7371C19.5663 20.9984 21.05 19.5146 21.05 17.6845Z" stroke="black" stroke-width="1.5" stroke-linecap="round" stroke-linejoin="round"/>
<path fill-rule="evenodd" clip-rule="evenodd" d="M14.4894 15.9514C13.8852 16.4982 13.1312 16.9905 12.3003 17.3252C11.5929 17.6035 11.0013 17.2561 10.9147 16.5595C10.8087 15.532 10.8106 14.5493 10.9147 13.6318C11.0091 12.908 11.662 12.6005 12.3003 12.87C13.1175 13.2047 13.8512 13.6591 14.4894 14.2438C15.0343 14.7371 15.0469 15.4386 14.4894 15.9514Z" stroke="black" stroke-width="1.5" stroke-linecap="round" stroke-linejoin="round"/>
<path opacity="0.4" d="M6.68164 6.11328H18.3183" stroke="black" stroke-width="1.5" stroke-linecap="round" stroke-linejoin="round"/>
<path opacity="0.4" d="M9.21875 3H15.7804" stroke="black" stroke-width="1.5" stroke-linecap="round" stroke-linejoin="round"/>
</svg>