<svg width="25" height="24" viewBox="0 0 25 24" fill="none" xmlns="http://www.w3.org/2000/svg">
<path fill-rule="evenodd" clip-rule="evenodd" d="M5.03333 5.04178C4.39958 5.63199 4 6.505 4 7.65114V16.3458C4 17.487 4.39924 18.3605 5.03373 18.9523C5.67402 19.5494 6.61411 19.9149 7.78512 19.9149H8.96438C9.3786 19.9149 9.71438 20.2507 9.71438 20.6649C9.71438 21.0791 9.3786 21.4149 8.96438 21.4149H7.78512C6.3018 21.4149 4.97433 20.948 4.01064 20.0492C3.04115 19.145 2.5 17.8589 2.5 16.3458V7.65114C2.5 6.13421 3.04081 4.84766 4.01105 3.94409C4.97523 3.04614 6.30284 2.58203 7.78512 2.58203H8.96438C9.3786 2.58203 9.71438 2.91782 9.71438 3.33203C9.71438 3.74624 9.3786 4.08203 8.96438 4.08203H7.78512C6.61307 4.08203 5.67312 4.44594 5.03333 5.04178Z" fill="black"/>
<path fill-rule="evenodd" clip-rule="evenodd" d="M14.7891 3.33203C14.7891 2.91782 15.1248 2.58203 15.5391 2.58203H16.7086C18.1952 2.58203 19.5235 3.04582 20.4872 3.94456C21.4568 4.84883 21.9947 6.13582 21.9947 7.65212V16.3458C21.9947 17.8621 21.4568 19.1489 20.4871 20.053C19.5234 20.9514 18.1951 21.4149 16.7086 21.4149H15.5391C15.1248 21.4149 14.7891 21.0791 14.7891 20.6649C14.7891 20.2507 15.1248 19.9149 15.5391 19.9149H16.7086C17.8862 19.9149 18.8259 19.5509 19.4642 18.9558C20.0965 18.3663 20.4947 17.4935 20.4947 16.3458V7.65212C20.4947 6.50436 20.0965 5.6313 19.4641 5.04155C18.8258 4.44626 17.8861 4.08203 16.7086 4.08203H15.5391C15.1248 4.08203 14.7891 3.74624 14.7891 3.33203Z" fill="black"/>
<path fill-rule="evenodd" clip-rule="evenodd" d="M12.25 2.64062C12.6642 2.64062 13 2.97641 13 3.39062V5.30353C13 5.71774 12.6642 6.05353 12.25 6.05353C11.8358 6.05353 11.5 5.71774 11.5 5.30353V3.39062C11.5 2.97641 11.8358 2.64062 12.25 2.64062ZM12.25 7.7714C12.6642 7.7714 13 8.10719 13 8.5214V10.4343C13 10.8485 12.6642 11.1843 12.25 11.1843C11.8358 11.1843 11.5 10.8485 11.5 10.4343V8.5214C11.5 8.10719 11.8358 7.7714 12.25 7.7714ZM12.25 13.1616C12.6642 13.1616 13 13.4974 13 13.9116V15.8245C13 16.2387 12.6642 16.5745 12.25 16.5745C11.8358 16.5745 11.5 16.2387 11.5 15.8245V13.9116C11.5 13.4974 11.8358 13.1616 12.25 13.1616ZM12.25 17.9441C12.6642 17.9441 13 18.2799 13 18.6941V20.607C13 21.0212 12.6642 21.357 12.25 21.357C11.8358 21.357 11.5 21.0212 11.5 20.607V18.6941C11.5 18.2799 11.8358 17.9441 12.25 17.9441Z" fill="black"/>
<path fill-rule="evenodd" clip-rule="evenodd" d="M6.90039 2.69922C7.3146 2.69922 7.65039 3.03501 7.65039 3.44922V20.5535C7.65039 20.9677 7.3146 21.3035 6.90039 21.3035C6.48618 21.3035 6.15039 20.9677 6.15039 20.5535V3.44922C6.15039 3.03501 6.48618 2.69922 6.90039 2.69922Z" fill="black"/>
<path fill-rule="evenodd" clip-rule="evenodd" d="M2.52481 7.69141C2.52481 7.27719 2.8606 6.94141 3.27481 6.94141H6.89629C7.3105 6.94141 7.64629 7.27719 7.64629 7.69141C7.64629 8.10562 7.3105 8.44141 6.89629 8.44141H3.27481C2.8606 8.44141 2.52481 8.10562 2.52481 7.69141ZM2.52148 11.9803C2.52148 11.5661 2.85727 11.2303 3.27148 11.2303H6.8988C7.31301 11.2303 7.6488 11.5661 7.6488 11.9803C7.6488 12.3945 7.31301 12.7303 6.8988 12.7303H3.27148C2.85727 12.7303 2.52148 12.3945 2.52148 11.9803ZM2.52481 16.2647C2.52481 15.8505 2.8606 15.5147 3.27481 15.5147H6.89629C7.3105 15.5147 7.64629 15.8505 7.64629 16.2647C7.64629 16.6789 7.3105 17.0147 6.89629 17.0147H3.27481C2.8606 17.0147 2.52481 16.6789 2.52481 16.2647Z" fill="black"/>
<path fill-rule="evenodd" clip-rule="evenodd" d="M17.5977 2.69922C18.0119 2.69922 18.3477 3.03501 18.3477 3.44922V20.5535C18.3477 20.9677 18.0119 21.3035 17.5977 21.3035C17.1834 21.3035 16.8477 20.9677 16.8477 20.5535V3.44922C16.8477 3.03501 17.1834 2.69922 17.5977 2.69922Z" fill="black"/>
<path fill-rule="evenodd" clip-rule="evenodd" d="M16.8505 7.69531C16.8505 7.2811 17.1862 6.94531 17.6005 6.94531H21.2463C21.6605 6.94531 21.9963 7.2811 21.9963 7.69531C21.9963 8.10953 21.6605 8.44531 21.2463 8.44531H17.6005C17.1862 8.44531 16.8505 8.10953 16.8505 7.69531ZM16.8457 11.9842C16.8457 11.57 17.1815 11.2342 17.5957 11.2342H21.2493C21.6635 11.2342 21.9993 11.57 21.9993 11.9842C21.9993 12.3984 21.6635 12.7342 21.2493 12.7342H17.5957C17.1815 12.7342 16.8457 12.3984 16.8457 11.9842ZM16.8505 16.2686C16.8505 15.8544 17.1862 15.5186 17.6005 15.5186H21.2463C21.6605 15.5186 21.9963 15.8544 21.9963 16.2686C21.9963 16.6828 21.6605 17.0186 21.2463 17.0186H17.6005C17.1862 17.0186 16.8505 16.6828 16.8505 16.2686Z" fill="black"/>
</svg>