<svg width="25" height="24" viewBox="0 0 25 24" fill="none" xmlns="http://www.w3.org/2000/svg">
<path d="M8.74316 5.04688H12.9745C15.1053 5.04688 16.8317 6.77443 16.8317 8.90414V13.0911C16.8317 13.5938 17.0577 14.0706 17.4469 14.3895L20.0598 16.5311C20.2793 16.7116 20.5539 16.81 20.8382 16.8111C21.5182 16.8122 22.0706 16.2619 22.0717 15.5819L22.0776 11.9576" stroke="black" stroke-width="1.5" stroke-linecap="round" stroke-linejoin="round"/>
<path d="M16.8242 10.0384L20.0728 7.38004C20.5982 6.94978 21.3744 7.02653 21.8047 7.55193C21.9853 7.77247 22.0847 8.04922 22.0836 8.33355V9.25155" stroke="black" stroke-width="1.5" stroke-linecap="round" stroke-linejoin="round"/>
<path d="M4.23539 5.90234C3.44621 6.58342 3.0127 7.63855 3.0127 8.90124V11.9542" stroke="black" stroke-width="1.5" stroke-linecap="round" stroke-linejoin="round"/>
<path d="M3.0127 15.0078C3.0127 17.2673 4.42241 18.8651 6.68185 18.8651H13.1629C14.1791 18.8651 15.0266 18.5397 15.6483 17.9764" stroke="black" stroke-width="1.5" stroke-linecap="round" stroke-linejoin="round"/>
<path d="M17.9065 20.3682L2.08398 3.62891" stroke="black" stroke-width="1.5" stroke-linecap="round" stroke-linejoin="round"/>
</svg>