<svg width="24" height="24" viewBox="0 0 24 24" fill="none" xmlns="http://www.w3.org/2000/svg">
<path opacity="0.4" fill-rule="evenodd" clip-rule="evenodd" d="M17.2392 8.83594H6.75922C4.65922 8.83594 2.94922 10.5559 2.94922 12.6559V17.8059C2.94922 19.9159 4.65922 21.6259 6.75922 21.6259H17.2392C19.3392 21.6259 21.0492 19.9159 21.0492 17.8059V12.6559C21.0492 10.5559 19.3392 8.83594 17.2392 8.83594Z" fill="black"/>
<path fill-rule="evenodd" clip-rule="evenodd" d="M6.18164 6.98535H17.8186C18.2326 6.98535 18.5686 6.64935 18.5686 6.23535C18.5686 5.82135 18.2326 5.48535 17.8186 5.48535H6.18164C5.76764 5.48535 5.43164 5.82135 5.43164 6.23535C5.43164 6.64935 5.76764 6.98535 6.18164 6.98535Z" fill="black"/>
<path fill-rule="evenodd" clip-rule="evenodd" d="M8.71875 3.875H15.2808C15.6947 3.875 16.0308 3.539 16.0308 3.125C16.0308 2.711 15.6947 2.375 15.2808 2.375H8.71875C8.30475 2.375 7.96875 2.711 7.96875 3.125C7.96875 3.539 8.30475 3.875 8.71875 3.875Z" fill="black"/>
<path fill-rule="evenodd" clip-rule="evenodd" d="M14.5 16.6301H14.49C13.8 17.2601 12.97 17.7901 12.08 18.1501C11.82 18.2501 11.57 18.3001 11.32 18.3001C11.01 18.3001 10.72 18.2201 10.47 18.0601C10.02 17.8001 9.73998 17.3401 9.66998 16.7801C9.55998 15.6901 9.55998 14.6501 9.66998 13.6701C9.73998 13.1001 10.05 12.6301 10.5 12.3701C10.97 12.1001 11.55 12.0701 12.09 12.3001C12.98 12.6601 13.79 13.1701 14.49 13.8101C14.92 14.2001 15.15 14.7001 15.15 15.2201C15.15 15.7401 14.92 16.2401 14.5 16.6301ZM13.65 15.2204C13.65 15.1304 13.59 15.0204 13.48 14.9204C12.91 14.4004 12.25 13.9804 11.52 13.6904C11.45 13.6604 11.39 13.6504 11.34 13.6504C11.3 13.6504 11.27 13.6604 11.25 13.6704C11.19 13.7004 11.17 13.7904 11.16 13.8504C11.06 14.7104 11.06 15.6404 11.16 16.6104C11.17 16.6904 11.2 16.7504 11.24 16.7804C11.28 16.8004 11.38 16.8104 11.53 16.7504C12.24 16.4704 12.92 16.0404 13.48 15.5204C13.55 15.4604 13.65 15.3504 13.65 15.2204Z" fill="black"/>
</svg>