<svg width="25" height="24" viewBox="0 0 25 24" fill="none" xmlns="http://www.w3.org/2000/svg">
<path opacity="0.4" d="M15.2791 20.0025H9.33915C7.62671 20.0025 6.23828 18.6141 6.23828 16.9016V7.10086C6.23828 5.38843 7.62671 4 9.33915 4H15.2791C16.9916 4 18.38 5.38843 18.38 7.10086V16.9016C18.38 18.6141 16.9916 20.0025 15.2791 20.0025Z" stroke="black" stroke-width="1.5" stroke-linecap="round" stroke-linejoin="round"/>
<path d="M3.33398 7.46484V16.533" stroke="black" stroke-width="1.5" stroke-linecap="round" stroke-linejoin="round"/>
<path d="M21.334 7.46484V16.533" stroke="black" stroke-width="1.5" stroke-linecap="round" stroke-linejoin="round"/>
<path fill-rule="evenodd" clip-rule="evenodd" d="M14.3093 12.8714C13.6934 13.4289 12.9247 13.93 12.0782 14.2715C11.3573 14.5556 10.754 14.2015 10.6655 13.4912C10.5585 12.4453 10.5604 11.4431 10.6655 10.5081C10.7628 9.76958 11.4273 9.45725 12.0782 9.73066C12.9111 10.0722 13.6593 10.5353 14.3093 11.1308C14.8648 11.6348 14.8775 12.3489 14.3093 12.8714Z" stroke="black" stroke-width="1.5" stroke-linecap="round" stroke-linejoin="round"/>
</svg>