<svg width="25" height="24" viewBox="0 0 25 24" fill="none" xmlns="http://www.w3.org/2000/svg">
<path opacity="0.4" d="M15.9748 20.9845C19.3306 20.9845 21.3077 19.0074 21.3077 15.6526L21.334 10.9969C21.334 7.57399 20.0925 5.86156 16.7289 5.86156H14.0756C13.4023 5.86058 12.7689 5.54339 12.3632 5.00534L11.507 3.86696C11.1032 3.32891 10.4698 3.01172 9.79744 3.01172H7.92155C4.56577 3.01172 3.33398 4.9888 3.33398 8.33875V15.6526C3.33398 19.0074 5.31496 20.9845 8.67852 20.9845H15.9748Z" stroke="black" stroke-width="1.5" stroke-linecap="round" stroke-linejoin="round"/>
<path fill-rule="evenodd" clip-rule="evenodd" d="M14.4525 14.1957C13.6624 14.9109 12.6748 15.555 11.589 15.9928C10.6647 16.3567 9.8902 15.9023 9.77636 14.9916C9.6382 13.648 9.64111 12.3617 9.77636 11.162C9.89993 10.2153 10.7532 9.81346 11.589 10.1647C12.6583 10.6035 13.6186 11.197 14.4525 11.9618C15.1657 12.6078 15.1822 13.5254 14.4525 14.1957Z" stroke="black" stroke-width="1.5" stroke-linecap="round" stroke-linejoin="round"/>
</svg>