<svg width="25" height="24" viewBox="0 0 25 24" fill="none" xmlns="http://www.w3.org/2000/svg">
<path fill-rule="evenodd" clip-rule="evenodd" d="M9.09967 4.6875C7.7879 4.6875 6.72461 5.75079 6.72461 7.06256V16.9398C6.72461 18.2504 7.78775 19.3138 9.09967 19.3138H15.0851C16.3971 19.3138 17.4602 18.2504 17.4602 16.9398V7.06256C17.4602 5.75079 16.3969 4.6875 15.0851 4.6875H9.09967ZM5.22461 7.06256C5.22461 4.92236 6.95947 3.1875 9.09967 3.1875H15.0851C17.2253 3.1875 18.9602 4.92236 18.9602 7.06256V16.9398C18.9602 19.0791 17.2252 20.8138 15.0851 20.8138H9.09967C6.95962 20.8138 5.22461 19.0791 5.22461 16.9398V7.06256Z" fill="black"/>
<path fill-rule="evenodd" clip-rule="evenodd" d="M5.42388 7.53516C4.54633 7.53516 3.83398 8.24401 3.83398 9.13479V14.8692C3.83398 15.7527 4.54774 16.4679 5.42388 16.4679H5.97456C6.38878 16.4679 6.72456 16.8037 6.72456 17.2179C6.72456 17.6321 6.38878 17.9679 5.97456 17.9679H5.42388C3.71203 17.9679 2.33398 16.5738 2.33398 14.8692V9.13479C2.33398 7.42005 3.71344 6.03516 5.42388 6.03516H5.97456C6.38878 6.03516 6.72456 6.37094 6.72456 6.78516C6.72456 7.19937 6.38878 7.53516 5.97456 7.53516H5.42388Z" fill="black"/>
<path fill-rule="evenodd" clip-rule="evenodd" d="M17.4434 6.78516C17.4434 6.37094 17.7791 6.03516 18.1934 6.03516H18.744C20.4545 6.03516 21.8339 7.42005 21.8339 9.13479V14.8692C21.8339 16.5738 20.4559 17.9679 18.744 17.9679H18.1934C17.7791 17.9679 17.4434 17.6321 17.4434 17.2179C17.4434 16.8037 17.7791 16.4679 18.1934 16.4679H18.744C19.6202 16.4679 20.3339 15.7527 20.3339 14.8692V9.13479C20.3339 8.24401 19.6216 7.53516 18.744 7.53516H18.1934C17.7791 7.53516 17.4434 7.19937 17.4434 6.78516Z" fill="black"/>
<path fill-rule="evenodd" clip-rule="evenodd" d="M11.2133 10.5863C11.115 11.4663 11.1124 12.4163 11.214 13.4156C11.2349 13.5693 11.2945 13.6081 11.3098 13.6167C11.3291 13.6276 11.4197 13.6675 11.6151 13.5911C12.3784 13.2834 13.0763 12.8281 13.635 12.3234C13.7894 12.1805 13.8158 12.0626 13.8155 11.9966C13.8151 11.929 13.786 11.8136 13.6372 11.6788L13.6339 11.6758L13.634 11.6758C13.0491 11.1397 12.372 10.7187 11.6084 10.4064L11.6011 10.4034L11.6011 10.4034C11.4511 10.3402 11.3568 10.3657 11.3194 10.3853C11.2994 10.3958 11.2806 10.4113 11.2636 10.4367C11.2468 10.4619 11.2243 10.5081 11.2133 10.5863ZM12.1796 9.01944C11.6748 8.80796 11.1078 8.80262 10.623 9.05673C10.1258 9.31735 9.80269 9.8058 9.72528 10.3971L9.72516 10.3971L9.72364 10.4106C9.61111 11.4111 9.60986 12.4749 9.72284 13.5782L9.72475 13.595C9.79429 14.1506 10.0819 14.6469 10.5742 14.9239C11.0627 15.1988 11.6385 15.1941 12.1673 14.9857L12.1673 14.9857L12.1724 14.9837C13.1133 14.605 13.9623 14.0499 14.6439 13.4335L14.6439 13.4335L14.6486 13.4291C15.0655 13.0455 15.3185 12.5405 15.3155 11.9883C15.3124 11.4381 15.0557 10.9407 14.6461 10.5688C13.9226 9.90581 13.0934 9.39362 12.1796 9.01944Z" fill="black"/>
</svg>