<svg width="25" height="24" viewBox="0 0 25 24" fill="none" xmlns="http://www.w3.org/2000/svg">
<path d="M9.09967 20.0638H15.0851C16.8111 20.0638 18.2102 18.6648 18.2102 16.9398V7.06256C18.2102 5.33658 16.8111 3.9375 15.0851 3.9375H9.09967C7.37368 3.9375 5.97461 5.33658 5.97461 7.06256V16.9398C5.97461 18.6648 7.37368 20.0638 9.09967 20.0638Z" stroke="black" stroke-width="1.5" stroke-linecap="round" stroke-linejoin="round"/>
<path d="M5.97456 6.78516H5.42388C4.12989 6.78516 3.08398 7.83203 3.08398 9.13479V11.0317" stroke="black" stroke-width="1.5" stroke-linecap="round" stroke-linejoin="round"/>
<path d="M5.97456 17.2197H5.42388C4.12989 17.2197 3.08398 16.165 3.08398 14.871V13.9336" stroke="black" stroke-width="1.5" stroke-linecap="round" stroke-linejoin="round"/>
<path d="M18.1934 6.78516H18.744C20.038 6.78516 21.0839 7.83203 21.0839 9.13479V10.5684" stroke="black" stroke-width="1.5" stroke-linecap="round" stroke-linejoin="round"/>
<path d="M18.1934 17.2196H18.744C20.038 17.2196 21.0839 16.1649 21.0839 14.8709V13.3711" stroke="black" stroke-width="1.5" stroke-linecap="round" stroke-linejoin="round"/>
<path fill-rule="evenodd" clip-rule="evenodd" d="M14.1408 12.8772C13.5201 13.4386 12.7456 13.9445 11.8923 14.288C11.1665 14.574 10.5585 14.2169 10.4689 13.5018C10.3609 12.4472 10.3629 11.4373 10.4689 10.4945C10.5662 9.75119 11.2366 9.43596 11.8923 9.71227C12.732 10.0557 13.486 10.5227 14.1408 11.123C14.7002 11.6299 14.7138 12.3499 14.1408 12.8772Z" stroke="black" stroke-width="1.5" stroke-linecap="round" stroke-linejoin="round"/>
</svg>