<svg width="25" height="24" viewBox="0 0 25 24" fill="none" xmlns="http://www.w3.org/2000/svg">
<path d="M8.02953 14.6781C7.88012 14.6782 7.73411 14.6336 7.61026 14.55C7.48641 14.4664 7.39039 14.3477 7.33453 14.2091L5.77453 10.3521C5.69988 10.1677 5.70155 9.9611 5.77919 9.77788C5.85683 9.59465 6.00408 9.44978 6.18853 9.37512C6.37299 9.30046 6.57955 9.30214 6.76278 9.37978C6.946 9.45742 7.09088 9.60467 7.16553 9.78912L8.02953 11.9271L8.89353 9.78912C8.96819 9.60467 9.11307 9.45742 9.29629 9.37978C9.47952 9.30214 9.68608 9.30046 9.87053 9.37512C10.055 9.44978 10.2022 9.59465 10.2799 9.77788C10.3575 9.9611 10.3592 10.1677 10.2845 10.3521L8.72453 14.2091C8.66857 14.3476 8.57252 14.4663 8.44869 14.5498C8.32487 14.6334 8.17891 14.6781 8.02953 14.6781Z" fill="black"/>
<path d="M12.2295 14.751C12.0306 14.751 11.8398 14.672 11.6992 14.5313C11.5585 14.3907 11.4795 14.1999 11.4795 14.001V10C11.4795 9.80109 11.5585 9.61033 11.6992 9.46967C11.8398 9.32902 12.0306 9.25 12.2295 9.25C12.4284 9.25 12.6192 9.32902 12.7598 9.46967C12.9005 9.61033 12.9795 9.80109 12.9795 10V14C12.9796 14.0986 12.9603 14.1962 12.9227 14.2873C12.8851 14.3784 12.8298 14.4612 12.7602 14.531C12.6905 14.6007 12.6078 14.6561 12.5167 14.6938C12.4257 14.7316 12.3281 14.751 12.2295 14.751Z" fill="black"/>
<path d="M15.0967 14.7399C14.8978 14.7399 14.707 14.6609 14.5663 14.5202C14.4257 14.3796 14.3467 14.1888 14.3467 13.9899V9.92188C14.3467 9.72296 14.4257 9.5322 14.5663 9.39155C14.707 9.2509 14.8978 9.17188 15.0967 9.17188H16.8507C17.3843 9.17188 17.8961 9.38385 18.2734 9.76118C18.6507 10.1385 18.8627 10.6503 18.8627 11.1839C18.8627 11.7175 18.6507 12.2293 18.2734 12.6066C17.8961 12.9839 17.3843 13.1959 16.8507 13.1959H15.8507V13.9899C15.8507 14.0887 15.8311 14.1866 15.7932 14.2778C15.7553 14.3691 15.6997 14.4519 15.6296 14.5216C15.5595 14.5913 15.4764 14.6465 15.3849 14.6839C15.2935 14.7214 15.1955 14.7404 15.0967 14.7399ZM15.8467 11.6959H16.8467C16.9825 11.6959 17.1127 11.6419 17.2087 11.5459C17.3047 11.4499 17.3587 11.3197 17.3587 11.1839C17.3587 11.0481 17.3047 10.9179 17.2087 10.8218C17.1127 10.7258 16.9825 10.6719 16.8467 10.6719H15.8467V11.6959Z" fill="black"/>
<path d="M15.8535 20.0411C15.6114 20.0569 15.3683 20.0435 15.1295 20.0011C14.8911 19.9631 14.6705 19.8516 14.4985 19.6821C14.1781 19.3363 13.8958 18.9572 13.6565 18.5511C13.5503 18.3955 13.409 18.267 13.2439 18.1762C13.0789 18.0853 12.8948 18.0346 12.7065 18.0281C12.5176 18.0236 12.3303 18.0633 12.1594 18.144C11.9886 18.2248 11.839 18.3443 11.7225 18.4931C11.4108 18.9662 11.0413 19.3985 10.6225 19.7801C10.5177 19.8575 10.4008 19.917 10.2765 19.9561C9.97176 20.0385 9.65533 20.0689 9.34049 20.0461C6.84749 20.0461 5.59649 20.0461 4.55149 19.4051C3.9675 19.0432 3.47693 18.5488 3.11949 17.9621C2.47949 16.9171 2.47949 15.6621 2.47949 13.1721V10.8301C2.47949 8.3371 2.47949 7.0861 3.11949 6.0411C3.47911 5.45451 3.97215 4.96112 4.55849 4.6011C5.60349 3.9611 6.85849 3.9611 9.34749 3.9611C9.64979 3.93873 9.95371 3.96541 10.2475 4.0401C10.3737 4.07475 10.4928 4.13128 10.5995 4.2071C11.0356 4.58952 11.4159 5.03114 11.7295 5.5191C11.8405 5.66438 11.984 5.78172 12.1484 5.86176C12.3128 5.94179 12.4936 5.98231 12.6765 5.98009C12.8772 5.98224 13.0752 5.93336 13.2519 5.83803C13.4285 5.7427 13.5781 5.60405 13.6865 5.4351C13.8998 5.05715 14.1508 4.70168 14.4355 4.3741C14.6083 4.18817 14.8361 4.06237 15.0855 4.0151C15.3352 3.96512 15.5903 3.9473 15.8445 3.9621C17.0019 3.85378 18.1693 3.96472 19.2855 4.2891C20.3582 4.7335 21.2106 5.58556 21.6555 6.6581C21.9785 7.77528 22.0884 8.94327 21.9795 10.1011V13.9171C22.0865 15.0669 21.977 16.2266 21.6565 17.3361C21.4367 17.8715 21.1128 18.3579 20.7035 18.7671C20.2943 19.1764 19.8079 19.5003 19.2725 19.7201C18.1629 20.04 17.0032 20.1488 15.8535 20.0411ZM15.3825 18.5141L15.3095 19.2681L15.4835 18.5551C15.4512 18.5382 15.4174 18.5245 15.3825 18.5141ZM12.6735 16.5241C13.1102 16.5292 13.5394 16.6384 13.9255 16.8426C14.3116 17.0467 14.6434 17.34 14.8935 17.6981C15.2105 18.1611 15.3935 18.4331 15.4845 18.5451V18.5391C15.5385 18.5391 15.6545 18.5391 15.8505 18.5391C16.8067 18.6236 17.7703 18.552 18.7035 18.3271C19.0541 18.1831 19.3727 17.971 19.6408 17.703C19.9089 17.4351 20.1212 17.1166 20.2655 16.7661C20.4892 15.8327 20.5605 14.8693 20.4765 13.9131V10.1011C20.5618 9.13883 20.4895 8.16908 20.2625 7.23009C20.1184 6.88197 19.9071 6.56569 19.6406 6.29937C19.3741 6.03305 19.0577 5.82193 18.7095 5.6781C17.7708 5.45111 16.8014 5.37883 15.8395 5.4641C15.6625 5.4641 15.5505 5.4641 15.4725 5.4641C15.3565 5.6061 15.1985 5.8541 14.9375 6.2541C14.6917 6.63089 14.3557 6.94032 13.96 7.15425C13.5643 7.36818 13.1213 7.47984 12.6715 7.4791C12.2595 7.48121 11.8527 7.38809 11.4827 7.20699C11.1127 7.02589 10.7895 6.76171 10.5385 6.4351C10.2005 5.9991 9.90349 5.6151 9.77649 5.4731C9.63366 5.45837 9.48992 5.45435 9.34649 5.4611C7.13549 5.4611 6.02549 5.4611 5.34049 5.8801C4.95652 6.11608 4.63348 6.43913 4.39749 6.8231C3.97849 7.5081 3.97849 8.6181 3.97849 10.8291V13.1711C3.97849 15.3831 3.97849 16.4931 4.39749 17.1781C4.63352 17.5618 4.95657 17.8845 5.34049 18.1201C6.02549 18.5401 7.14049 18.5401 9.34649 18.5401C9.54649 18.5401 9.67649 18.5401 9.76849 18.5401C9.88749 18.4121 10.1875 18.0251 10.5295 17.5841C10.7807 17.2539 11.1051 16.9863 11.4771 16.8024C11.849 16.6185 12.2585 16.5232 12.6735 16.5241Z" fill="black"/>
</svg>