<svg width="24" height="24" viewBox="0 0 24 24" fill="none" xmlns="http://www.w3.org/2000/svg">
<path opacity="0.4" fill-rule="evenodd" clip-rule="evenodd" d="M16.2502 2.49512H7.8152C4.6562 2.49512 2.5332 4.71612 2.5332 8.02112V15.9691C2.5332 19.2741 4.6562 21.4951 7.8152 21.4951H16.2492C19.4092 21.4951 21.5332 19.2741 21.5332 15.9691V8.02112C21.5332 4.71612 19.4102 2.49512 16.2502 2.49512Z" fill="black"/>
<path d="M9.72316 14.9329L11.9282 9.63493C12.0872 9.25293 11.9062 8.81393 11.5232 8.65493C11.1442 8.49593 10.7022 8.67593 10.5432 9.05893L9.03016 12.6939L7.51716 9.05893C7.35616 8.67593 6.91516 8.49693 6.53616 8.65493C6.15316 8.81393 5.97316 9.25293 6.13216 9.63493L8.33816 14.9329C8.45416 15.2129 8.72716 15.3949 9.03016 15.3949C9.33316 15.3949 9.60616 15.2129 9.72316 14.9329Z" fill="black"/>
<path fill-rule="evenodd" clip-rule="evenodd" d="M17.4132 14.3469C17.6282 14.7009 17.5152 15.1619 17.1602 15.3769C17.0392 15.4509 16.9042 15.4859 16.7722 15.4859C16.5182 15.4859 16.2712 15.3579 16.1302 15.1249L15.0182 13.2929H14.4552V14.7359C14.4552 15.1499 14.1192 15.4859 13.7052 15.4859C13.2912 15.4859 12.9552 15.1499 12.9552 14.7359V9.25293C12.9552 8.83893 13.2912 8.50293 13.7052 8.50293H15.5992C16.9192 8.50293 17.9932 9.57693 17.9932 10.8979C17.9932 11.8489 17.4322 12.6649 16.6272 13.0509L17.4132 14.3469ZM15.5983 10.0027C16.0923 10.0027 16.4933 10.4037 16.4933 10.8977C16.4933 11.3917 16.0923 11.7927 15.5983 11.7927H14.4553V10.0027H15.5983Z" fill="black"/>
</svg>