<svg width="25" height="25" viewBox="0 0 25 25" fill="none" xmlns="http://www.w3.org/2000/svg">
<path opacity="0.4" d="M8.28299 3.2832H16.718C19.666 3.2832 21.5 5.36318 21.5 8.31018V16.2572C21.5 19.2022 19.666 21.2832 16.717 21.2832H8.28299C5.33499 21.2832 3.5 19.2022 3.5 16.2572V8.31018C3.5 5.36318 5.34399 3.2832 8.28299 3.2832Z" stroke="black" stroke-width="1.5" stroke-linecap="round" stroke-linejoin="round"/>
<path fill-rule="evenodd" clip-rule="evenodd" d="M12.8289 16.2605H12.1719C10.9289 16.2605 9.92188 15.2535 9.92188 14.0105V12.5205C9.92188 11.2795 10.9289 10.2715 12.1719 10.2715H12.8289C14.0719 10.2715 15.0789 11.2795 15.0789 12.5205V14.0105C15.0789 15.2535 14.0719 16.2605 12.8289 16.2605Z" stroke="black" stroke-width="1.5" stroke-linecap="round" stroke-linejoin="round"/>
<path d="M8.00781 8.77148L8.1178 9.41644C8.2188 10.0094 8.6218 10.5065 9.1828 10.7285L10.3568 11.1874" stroke="black" stroke-width="1.5" stroke-linecap="round" stroke-linejoin="round"/>
<path d="M9.92337 12.5179C9.12237 12.4569 8.32639 12.3799 7.40039 12.7519" stroke="black" stroke-width="1.5" stroke-linecap="round" stroke-linejoin="round"/>
<path d="M8.00781 16.4784L8.11981 15.8334C8.21681 15.2434 8.62181 14.7494 9.18381 14.5244L9.93982 14.2324" stroke="black" stroke-width="1.5" stroke-linecap="round" stroke-linejoin="round"/>
<path d="M15.0664 14.2324L15.8144 14.5244C16.3754 14.7494 16.7804 15.2434 16.8854 15.8334L16.9894 16.4784" stroke="black" stroke-width="1.5" stroke-linecap="round" stroke-linejoin="round"/>
<path d="M15.0801 12.5179C15.8811 12.4569 16.6771 12.3799 17.6031 12.7519" stroke="black" stroke-width="1.5" stroke-linecap="round" stroke-linejoin="round"/>
<path d="M16.9935 8.77148L16.8835 9.41644C16.7825 10.0094 16.3795 10.5065 15.8185 10.7285L14.6445 11.1874" stroke="black" stroke-width="1.5" stroke-linecap="round" stroke-linejoin="round"/>
<path d="M11.0039 10.601V9.58203C11.0039 8.75503 11.6749 8.08398 12.5019 8.08398C13.3279 8.08398 13.9979 8.75503 13.9979 9.58203V10.601" stroke="black" stroke-width="1.5" stroke-linecap="round" stroke-linejoin="round"/>
</svg>