<svg width="25" height="24" viewBox="0 0 25 24" fill="none" xmlns="http://www.w3.org/2000/svg">
<path opacity="0.4" d="M12.4102 6L12.6812 5.59181C13.1415 4.89859 13.1245 3.99277 12.6385 3.31732L12.4102 3" stroke="black" stroke-width="1.5" stroke-linecap="round" stroke-linejoin="round"/>
<path d="M12.4121 18L12.743 18.6904C13.0293 19.2879 13.0011 19.9886 12.6676 20.5612L12.4121 21" stroke="black" stroke-width="1.5" stroke-linecap="round" stroke-linejoin="round"/>
<path d="M16.6523 7.75804L17.4823 7.41383C18.0487 7.17893 18.4761 6.69717 18.6418 6.10678L18.7737 5.63672" stroke="black" stroke-width="1.5" stroke-linecap="round" stroke-linejoin="round"/>
<path opacity="0.4" d="M8.17405 16.2734L7.80023 17.1071C7.58134 17.5953 7.17597 17.9755 6.67474 18.1626L6.05273 18.3948" stroke="black" stroke-width="1.5" stroke-linecap="round" stroke-linejoin="round"/>
<path opacity="0.4" d="M18.4102 11.9964L19.1639 11.6964C19.6349 11.509 20.1596 11.5074 20.6318 11.692L21.4102 11.9964" stroke="black" stroke-width="1.5" stroke-linecap="round" stroke-linejoin="round"/>
<path d="M6.41016 11.9985L5.42876 11.6798C4.97509 11.5325 4.4837 11.5522 4.04326 11.7353L3.41016 11.9985" stroke="black" stroke-width="1.5" stroke-linecap="round" stroke-linejoin="round"/>
<path opacity="0.4" d="M16.6523 16.2461L17.7217 16.8206C18.2414 17.0998 18.6113 17.5942 18.7325 18.1715L18.7737 18.3674" stroke="black" stroke-width="1.5" stroke-linecap="round" stroke-linejoin="round"/>
<path d="M8.16624 7.75804L7.83152 6.96071C7.61214 6.43812 7.18133 6.03316 6.64619 5.84647L6.04492 5.63672" stroke="black" stroke-width="1.5" stroke-linecap="round" stroke-linejoin="round"/>
<circle cx="12.4102" cy="12" r="6" stroke="black" stroke-width="1.5" stroke-linecap="round" stroke-linejoin="round"/>
<circle opacity="0.4" cx="10.834" cy="10.6152" r="1.57617" stroke="black" stroke-width="1.5" stroke-linecap="round" stroke-linejoin="round"/>
<circle cx="14.4049" cy="13.5826" r="0.582625" stroke="black" stroke-width="1.5" stroke-linecap="round" stroke-linejoin="round"/>
</svg>