<svg width="24" height="24" viewBox="0 0 24 24" fill="none" xmlns="http://www.w3.org/2000/svg">
<path opacity="0.4" fill-rule="evenodd" clip-rule="evenodd" d="M11.998 5.50391C8.41405 5.50391 5.49805 8.41991 5.49805 12.0039C5.49805 15.5879 8.41405 18.5039 11.998 18.5039C15.582 18.5039 18.498 15.5879 18.498 12.0039C18.498 8.41991 15.582 5.50391 11.998 5.50391Z" fill="black"/>
<path fill-rule="evenodd" clip-rule="evenodd" d="M10.4186 11.4498C9.96863 11.4498 9.59863 11.0798 9.59863 10.6198C9.59863 10.1698 9.96863 9.7998 10.4186 9.7998C10.8786 9.7998 11.2486 10.1698 11.2486 10.6198C11.2486 11.0798 10.8786 11.4498 10.4186 11.4498ZM10.4186 8.2998C9.13863 8.2998 8.09863 9.3398 8.09863 10.6198C8.09863 11.9098 9.13863 12.9498 10.4186 12.9498C11.7086 12.9498 12.7486 11.9098 12.7486 10.6198C12.7486 9.3398 11.7086 8.2998 10.4186 8.2998Z" fill="black"/>
<path fill-rule="evenodd" clip-rule="evenodd" d="M13.1185 5.59932C12.7585 5.52932 12.3785 5.49932 11.9985 5.49932C11.7985 5.49932 11.5985 5.50932 11.4085 5.52932L11.6485 5.17932C11.9285 4.74932 11.9185 4.17932 11.6185 3.76932L11.3885 3.43932C11.1485 3.09932 11.2285 2.62932 11.5585 2.38932C11.8985 2.14932 12.3685 2.22932 12.6085 2.56932L12.8385 2.88932C13.4085 3.67932 13.5085 4.71932 13.1185 5.59932Z" fill="black"/>
<path fill-rule="evenodd" clip-rule="evenodd" d="M12.8983 20.9392L12.6483 21.3792C12.5083 21.6192 12.2583 21.7492 11.9983 21.7492C11.8683 21.7492 11.7383 21.7192 11.6283 21.6492C11.2683 21.4492 11.1483 20.9892 11.3483 20.6292L11.6083 20.1892C11.8183 19.8292 11.8283 19.3892 11.6583 19.0192L11.3983 18.4692C11.5983 18.4892 11.7983 18.4992 11.9983 18.4992C12.3483 18.4992 12.6983 18.4692 13.0283 18.4092C13.3983 19.2292 13.3483 20.1692 12.8983 20.9392Z" fill="black"/>
<path fill-rule="evenodd" clip-rule="evenodd" d="M19.0884 5.84906L18.9484 6.31906C18.7184 7.13906 18.1384 7.78906 17.3484 8.10906L17.2284 8.15906C16.9184 7.71906 16.5384 7.32906 16.1284 6.98906L16.7784 6.71906C17.1384 6.57906 17.4084 6.27906 17.5084 5.90906L17.6384 5.43906C17.7484 5.03906 18.1684 4.80906 18.5684 4.91906C18.9684 5.02906 19.1984 5.44906 19.0884 5.84906Z" fill="black"/>
<path fill-rule="evenodd" clip-rule="evenodd" d="M8.15845 17.2294L8.06845 17.4194C7.76845 18.0994 7.19845 18.6194 6.51845 18.8694L5.89845 19.0994C5.81845 19.1294 5.72845 19.1394 5.63845 19.1394C5.33845 19.1394 5.04845 18.9594 4.93845 18.6494C4.79845 18.2694 4.98845 17.8294 5.37845 17.6894L5.99845 17.4594C6.31845 17.3494 6.56845 17.1094 6.69845 16.8094L6.99845 16.1494C7.33845 16.5594 7.72845 16.9294 8.15845 17.2294Z" fill="black"/>
<path fill-rule="evenodd" clip-rule="evenodd" d="M21.6985 12.279C21.5785 12.579 21.2985 12.749 20.9985 12.749C20.9085 12.749 20.8085 12.739 20.7185 12.699L19.9385 12.389C19.6485 12.279 19.3285 12.279 19.0285 12.399L18.4685 12.619C18.4885 12.419 18.4985 12.209 18.4985 11.999C18.4985 11.669 18.4785 11.339 18.4185 11.029L18.4785 11.009C19.1085 10.749 19.8285 10.739 20.4885 10.989L21.2785 11.309C21.6585 11.459 21.8485 11.899 21.6985 12.279Z" fill="black"/>
<path fill-rule="evenodd" clip-rule="evenodd" d="M5.49844 11.9997C5.49844 12.2197 5.50844 12.4297 5.52844 12.6397L4.78844 12.3997C4.49844 12.2997 4.19844 12.3197 3.92844 12.4297L3.27844 12.6997C2.89844 12.8597 2.45844 12.6697 2.30844 12.2897C2.14844 11.9097 2.32844 11.4697 2.70844 11.3097L3.34844 11.0497C3.93844 10.7897 4.61844 10.7597 5.24844 10.9697L5.56844 11.0697C5.51844 11.3697 5.49844 11.6797 5.49844 11.9997Z" fill="black"/>
<path fill-rule="evenodd" clip-rule="evenodd" d="M19.0984 18.2192C19.1784 18.6292 18.9184 19.0192 18.5184 19.1092C18.4684 19.1192 18.4084 19.1192 18.3584 19.1192C18.0184 19.1192 17.6984 18.8792 17.6284 18.5292L17.5884 18.3292C17.5084 17.9692 17.2784 17.6592 16.9584 17.4792L16.1084 17.0292C16.5084 16.6992 16.8784 16.3192 17.1884 15.9092L17.6584 16.1592C18.3784 16.5492 18.8884 17.2292 19.0584 18.0192L19.0984 18.2192Z" fill="black"/>
<path fill-rule="evenodd" clip-rule="evenodd" d="M8.14872 6.76995C7.71872 7.08995 7.32872 7.45995 6.98872 7.86995L6.72872 7.24995C6.58872 6.92995 6.31872 6.67995 5.99872 6.55995L5.38872 6.34995C4.99872 6.21995 4.78872 5.78995 4.92872 5.39995C5.05872 5.00995 5.48872 4.79995 5.87872 4.93995L6.47872 5.14995C7.20872 5.38995 7.80872 5.94995 8.10872 6.66995L8.14872 6.76995Z" fill="black"/>
<path fill-rule="evenodd" clip-rule="evenodd" d="M10.4186 11.4498C9.96863 11.4498 9.59863 11.0798 9.59863 10.6198C9.59863 10.1698 9.96863 9.7998 10.4186 9.7998C10.8786 9.7998 11.2486 10.1698 11.2486 10.6198C11.2486 11.0798 10.8786 11.4498 10.4186 11.4498ZM10.4186 8.2998C9.13863 8.2998 8.09863 9.3398 8.09863 10.6198C8.09863 11.9098 9.13863 12.9498 10.4186 12.9498C11.7086 12.9498 12.7486 11.9098 12.7486 10.6198C12.7486 9.3398 11.7086 8.2998 10.4186 8.2998Z" fill="black"/>
<path fill-rule="evenodd" clip-rule="evenodd" d="M15.3282 13.58C15.3282 14.32 14.7282 14.92 13.9882 14.92C13.2582 14.92 12.6582 14.32 12.6582 13.58C12.6582 12.85 13.2582 12.25 13.9882 12.25C14.7282 12.25 15.3282 12.85 15.3282 13.58Z" fill="black"/>
</svg>