<svg width="24" height="25" viewBox="0 0 24 25" fill="none" xmlns="http://www.w3.org/2000/svg">
<path fill-rule="evenodd" clip-rule="evenodd" d="M12.3293 9.56471C12.4713 9.56471 12.6073 9.58771 12.7443 9.60671C12.7343 9.20271 12.4063 8.87571 12.0023 8.87571C11.5963 8.87571 11.2683 9.20271 11.2583 9.60671C11.3943 9.58771 11.5303 9.56471 11.6723 9.56471H12.3293Z" fill="black"/>
<path fill-rule="evenodd" clip-rule="evenodd" d="M13.8294 12.5645C13.8294 11.7375 13.1564 11.0645 12.3294 11.0645H11.6724C10.8454 11.0645 10.1724 11.7375 10.1724 12.5645V14.0545C10.1724 14.8815 10.8454 15.5545 11.6724 15.5545H12.3294C13.1564 15.5545 13.8294 14.8815 13.8294 14.0545V12.5645Z" fill="black"/>
<path fill-rule="evenodd" clip-rule="evenodd" d="M17.8 13.0732C17.683 13.3662 17.402 13.5452 17.104 13.5452C17.011 13.5452 16.917 13.5282 16.825 13.4912C16.302 13.2822 15.826 13.2512 15.329 13.2692V13.7722L15.594 13.8782C16.4 14.1952 16.973 14.8932 17.123 15.7442L17.23 16.4052C17.296 16.8142 17.018 17.1992 16.609 17.2642C16.569 17.2712 16.529 17.2742 16.488 17.2742C16.127 17.2742 15.808 17.0112 15.749 16.6432L15.645 15.9942C15.588 15.6802 15.369 15.4122 15.06 15.2832C14.589 16.3252 13.545 17.0542 12.329 17.0542H11.672C10.456 17.0542 9.412 16.3242 8.941 15.2822C8.63 15.4122 8.413 15.6762 8.361 15.9962L8.247 16.6522C8.184 17.0172 7.867 17.2742 7.509 17.2742C7.466 17.2742 7.423 17.2702 7.38 17.2632C6.972 17.1922 6.698 16.8042 6.769 16.3962L6.881 15.7472C7.018 14.9122 7.604 14.1922 8.409 13.8762L8.672 13.7722V13.2692C8.176 13.2512 7.701 13.2822 7.179 13.4912C7.088 13.5282 6.993 13.5452 6.901 13.5452C6.603 13.5452 6.321 13.3662 6.204 13.0732C6.05 12.6882 6.237 12.2522 6.622 12.0982C7.423 11.7782 8.139 11.7442 8.792 11.7722C8.804 11.7272 8.819 11.6832 8.833 11.6382L8.409 11.4722C7.61 11.1592 7.024 10.4382 6.879 9.59122L6.769 8.93922C6.699 8.53122 6.974 8.14422 7.383 8.07522C7.779 7.99622 8.178 8.28022 8.247 8.68922L8.358 9.34022C8.414 9.67122 8.644 9.95322 8.956 10.0762L9.662 10.3522C9.692 10.3262 9.724 10.3022 9.754 10.2772V9.62522C9.754 8.38522 10.763 7.37522 12.002 7.37522C13.24 7.37522 14.248 8.38522 14.248 9.62522V10.2782C14.278 10.3032 14.31 10.3262 14.339 10.3532L15.046 10.0762C15.359 9.95322 15.588 9.67122 15.645 9.33922L15.755 8.68922C15.824 8.28122 16.222 8.00422 16.619 8.07522C17.029 8.14422 17.303 8.53122 17.234 8.93922L17.123 9.59022C16.979 10.4382 16.393 11.1592 15.593 11.4722L15.168 11.6392C15.183 11.6832 15.197 11.7272 15.21 11.7732C15.862 11.7452 16.579 11.7782 17.382 12.0982C17.767 12.2522 17.954 12.6882 17.8 13.0732ZM16.218 2.82422H7.783C4.623 2.82422 2.5 5.04722 2.5 8.35422V16.3042C2.5 19.6062 4.623 21.8242 7.783 21.8242H16.217C19.377 21.8242 21.5 19.6062 21.5 16.3042V8.35422C21.5 5.04722 19.377 2.82422 16.218 2.82422Z" fill="black"/>
</svg>