<svg width="24" height="25" viewBox="0 0 24 25" fill="none" xmlns="http://www.w3.org/2000/svg">
<path opacity="0.4" fill-rule="evenodd" clip-rule="evenodd" d="M16.218 2.82422H7.783C4.623 2.82422 2.5 5.04722 2.5 8.35422V16.3042C2.5 19.6062 4.623 21.8242 7.783 21.8242H16.217C19.377 21.8242 21.5 19.6062 21.5 16.3042V8.35422C21.5 5.04722 19.377 2.82422 16.218 2.82422Z" fill="black"/>
<path fill-rule="evenodd" clip-rule="evenodd" d="M17.1041 13.545C17.4021 13.545 17.6831 13.366 17.8001 13.073C17.9541 12.688 17.7671 12.252 17.3821 12.098C16.5791 11.778 15.8621 11.745 15.2101 11.773C15.1971 11.727 15.1831 11.683 15.1681 11.639L15.5931 11.472C16.3931 11.159 16.9791 10.438 17.1231 9.59L17.2341 8.939C17.3031 8.531 17.0291 8.144 16.6191 8.075C16.2221 8.004 15.8241 8.281 15.7551 8.689L15.6451 9.339C15.5881 9.671 15.3591 9.953 15.0461 10.076L14.3391 10.353C14.3205 10.3357 14.3007 10.3201 14.281 10.3045C14.2699 10.2957 14.2589 10.287 14.2481 10.278V9.625C14.2481 8.385 13.2401 7.375 12.0021 7.375C10.7631 7.375 9.75408 8.385 9.75408 9.625V10.277C9.74151 10.2875 9.72858 10.2978 9.71559 10.3081C9.6976 10.3225 9.67951 10.3369 9.66208 10.352L8.95608 10.076C8.64408 9.953 8.41408 9.671 8.35808 9.34L8.24708 8.689C8.17808 8.28 7.77908 7.996 7.38308 8.075C6.97408 8.144 6.69908 8.531 6.76908 8.939L6.87908 9.591C7.02408 10.438 7.61008 11.159 8.40908 11.472L8.83308 11.638L8.82099 11.6762C8.81079 11.7081 8.80067 11.7398 8.79208 11.772C8.13908 11.744 7.42308 11.778 6.62208 12.098C6.23708 12.252 6.05008 12.688 6.20408 13.073C6.32108 13.366 6.60308 13.545 6.90108 13.545C6.99308 13.545 7.08808 13.528 7.17908 13.491C7.70108 13.282 8.17608 13.251 8.67208 13.269V13.772L8.40908 13.876C7.60408 14.192 7.01808 14.912 6.88108 15.747L6.76908 16.396C6.69808 16.804 6.97208 17.192 7.38008 17.263C7.42308 17.27 7.46608 17.274 7.50908 17.274C7.86708 17.274 8.18408 17.017 8.24708 16.652L8.36108 15.996C8.41308 15.676 8.63008 15.412 8.94108 15.282C9.41208 16.324 10.4561 17.054 11.6721 17.054H12.3291C13.5451 17.054 14.5891 16.325 15.0601 15.283C15.3691 15.412 15.5881 15.68 15.6451 15.994L15.7491 16.643C15.8081 17.011 16.1271 17.274 16.4881 17.274C16.5291 17.274 16.5691 17.271 16.6091 17.264C17.0181 17.199 17.2961 16.814 17.2301 16.405L17.1231 15.744C16.9731 14.893 16.4001 14.195 15.5941 13.878L15.3291 13.772V13.269C15.8261 13.251 16.3021 13.282 16.8251 13.491C16.9171 13.528 17.0111 13.545 17.1041 13.545ZM13.8294 12.5642C13.8294 11.7372 13.1564 11.0642 12.3294 11.0642H11.6724C10.8454 11.0642 10.1724 11.7372 10.1724 12.5642V14.0542C10.1724 14.8812 10.8454 15.5542 11.6724 15.5542H12.3294C13.1564 15.5542 13.8294 14.8812 13.8294 14.0542V12.5642ZM12.6836 9.59788C12.567 9.58119 12.4504 9.56449 12.3294 9.56449H11.6724C11.5508 9.56449 11.4336 9.58136 11.317 9.59814C11.2974 9.60095 11.2779 9.60376 11.2584 9.60649C11.2684 9.20249 11.5964 8.87549 12.0024 8.87549C12.4064 8.87549 12.7344 9.20249 12.7444 9.60649C12.7241 9.60368 12.7039 9.60078 12.6836 9.59788Z" fill="black"/>
</svg>