<svg width="25" height="25" viewBox="0 0 25 25" fill="none" xmlns="http://www.w3.org/2000/svg">
<path d="M12.25 21.3242H8.03299C5.08499 21.3242 3.25 19.2432 3.25 16.2982V8.3512C3.25 5.4042 5.09399 3.32422 8.03299 3.32422H16.468C19.416 3.32422 21.25 5.4042 21.25 8.3512V16.2982C21.25 19.2432 19.416 21.3242 16.467 21.3242H16.0939" stroke="black" stroke-width="1.5" stroke-linecap="round" stroke-linejoin="round"/>
<path fill-rule="evenodd" clip-rule="evenodd" d="M12.5789 16.3015H11.9219C10.6789 16.3015 9.67188 15.2945 9.67188 14.0515V12.5615C9.67188 11.3205 10.6789 10.3125 11.9219 10.3125H12.5789C13.8219 10.3125 14.8289 11.3205 14.8289 12.5615V14.0515C14.8289 15.2945 13.8219 16.3015 12.5789 16.3015Z" stroke="black" stroke-width="1.5" stroke-linecap="round" stroke-linejoin="round"/>
<path d="M7.75781 8.8125L7.8678 9.45746C7.9688 10.0505 8.3718 10.5475 8.9328 10.7695L10.1068 11.2285" stroke="black" stroke-width="1.5" stroke-linecap="round" stroke-linejoin="round"/>
<path d="M9.67337 12.5589C8.87237 12.4979 8.07639 12.4209 7.15039 12.7929" stroke="black" stroke-width="1.5" stroke-linecap="round" stroke-linejoin="round"/>
<path d="M7.75781 16.5194L7.86981 15.8744C7.96681 15.2844 8.37181 14.7904 8.93381 14.5654L9.68982 14.2734" stroke="black" stroke-width="1.5" stroke-linecap="round" stroke-linejoin="round"/>
<path d="M14.8164 14.2734L15.5644 14.5654C16.1254 14.7904 16.5304 15.2844 16.6354 15.8744L16.7394 16.5194" stroke="black" stroke-width="1.5" stroke-linecap="round" stroke-linejoin="round"/>
<path d="M14.8301 12.5589C15.6311 12.4979 16.4271 12.4209 17.3531 12.7929" stroke="black" stroke-width="1.5" stroke-linecap="round" stroke-linejoin="round"/>
<path d="M16.7435 8.8125L16.6335 9.45746C16.5325 10.0505 16.1295 10.5475 15.5685 10.7695L14.3945 11.2285" stroke="black" stroke-width="1.5" stroke-linecap="round" stroke-linejoin="round"/>
<path d="M10.7539 10.642V9.62305C10.7539 8.79605 11.4249 8.125 12.2519 8.125C13.0779 8.125 13.7479 8.79605 13.7479 9.62305V10.642" stroke="black" stroke-width="1.5" stroke-linecap="round" stroke-linejoin="round"/>
</svg>