<svg width="25" height="25" viewBox="0 0 25 25" fill="none" xmlns="http://www.w3.org/2000/svg">
<path fill-rule="evenodd" clip-rule="evenodd" d="M5.0879 5.20305C4.41051 5.9295 4 6.99244 4 8.31018V16.2572C4 17.5748 4.40877 18.6374 5.08487 19.3635C5.75535 20.0835 6.74426 20.5332 8.03299 20.5332H16.467C17.7563 20.5332 18.7451 20.0835 19.4155 19.3635C20.0914 18.6375 20.5 17.5749 20.5 16.2572V8.31018C20.5 6.99137 20.0913 5.92854 19.4155 5.2026C18.7454 4.48272 17.7568 4.0332 16.468 4.0332H8.03299C6.74916 4.0332 5.75987 4.48241 5.0879 5.20305ZM3.99084 4.18008C4.97562 3.12398 6.37782 2.5332 8.03299 2.5332H16.468C18.1272 2.5332 19.5296 3.12368 20.5134 4.18054C21.4917 5.23133 22 6.682 22 8.31018V16.2572C22 17.8845 21.4916 19.3349 20.5133 20.3856C19.5293 21.4424 18.1267 22.0332 16.467 22.0332H8.03299C6.37371 22.0332 4.97113 21.4424 3.98712 20.3857C3.00872 19.335 2.5 17.8846 2.5 16.2572V8.31018C2.5 6.68092 3.01148 5.23038 3.99084 4.18008Z" fill="black"/>
<path fill-rule="evenodd" clip-rule="evenodd" d="M11.9219 11.0215C11.0931 11.0215 10.4219 11.6937 10.4219 12.5205V14.0105C10.4219 14.8393 11.0931 15.5105 11.9219 15.5105H12.5789C13.4076 15.5105 14.0789 14.8393 14.0789 14.0105V12.5205C14.0789 11.6937 13.4076 11.0215 12.5789 11.0215H11.9219ZM8.92188 12.5205C8.92188 10.8653 10.2647 9.52148 11.9219 9.52148H12.5789C14.2361 9.52148 15.5789 10.8653 15.5789 12.5205V14.0105C15.5789 15.6677 14.2361 17.0105 12.5789 17.0105H11.9219C10.2647 17.0105 8.92188 15.6677 8.92188 14.0105V12.5205Z" fill="black"/>
<path fill-rule="evenodd" clip-rule="evenodd" d="M7.63185 8.03216C8.04017 7.96252 8.42763 8.23709 8.49726 8.6454L8.60725 9.29036C8.6641 9.62415 8.89061 9.90462 9.20765 10.0306L10.38 10.4889C10.7658 10.6397 10.9563 11.0747 10.8054 11.4605C10.6546 11.8463 10.2196 12.0368 9.83384 11.886L8.65695 11.4258C7.85269 11.1076 7.27371 10.3942 7.12859 9.54252C7.12858 9.54247 7.1286 9.54257 7.12859 9.54252L7.01861 8.89756C6.94897 8.48924 7.22354 8.10179 7.63185 8.03216Z" fill="black"/>
<path fill-rule="evenodd" clip-rule="evenodd" d="M9.62181 11.762C9.65834 11.7649 9.6945 11.7677 9.73028 11.7704C10.1433 11.8019 10.4526 12.1622 10.4212 12.5752C10.3897 12.9882 10.0294 13.2975 9.61637 13.2661C9.60344 13.2651 9.59056 13.2641 9.57773 13.2631C8.77769 13.2021 8.15978 13.155 7.42992 13.4482C7.04557 13.6026 6.60881 13.4162 6.4544 13.0318C6.3 12.6475 6.48641 12.2107 6.87077 12.0563C7.93047 11.6306 8.85861 11.7027 9.62181 11.762Z" fill="black"/>
<path fill-rule="evenodd" clip-rule="evenodd" d="M10.3893 13.9622C10.5386 14.3486 10.3463 14.7828 9.95991 14.932L9.20876 15.2222C8.88475 15.3533 8.66263 15.6335 8.60976 15.955L8.60866 15.9617L8.60863 15.9617L8.49663 16.6067C8.42577 17.0148 8.03749 17.2882 7.62938 17.2173C7.22128 17.1465 6.94789 16.7582 7.01875 16.3501L7.13022 15.7081C7.27221 14.8525 7.85806 14.1472 8.65493 13.8281L8.66345 13.8247L8.66347 13.8248L9.41948 13.5328C9.80588 13.3835 10.2401 13.5758 10.3893 13.9622Z" fill="black"/>
<path fill-rule="evenodd" clip-rule="evenodd" d="M14.1177 13.9597C14.2683 13.5738 14.7032 13.3831 15.0891 13.5338L15.8436 13.8283C16.6414 14.1482 17.2228 14.8534 17.3738 15.702L17.3759 15.714L17.4798 16.359C17.5457 16.7679 17.2677 17.1529 16.8588 17.2188C16.4498 17.2848 16.0649 17.0067 15.9989 16.5978L15.896 15.9596C15.8358 15.6313 15.609 15.3515 15.288 15.2216L14.5436 14.9311C14.1578 14.7804 13.9671 14.3455 14.1177 13.9597Z" fill="black"/>
<path fill-rule="evenodd" clip-rule="evenodd" d="M14.9257 13.2631C14.9129 13.2641 14.9 13.2651 14.8871 13.2661C14.474 13.2975 14.1137 12.9882 14.0823 12.5752C14.0508 12.1622 14.3601 11.8019 14.7732 11.7704C14.8089 11.7677 14.8451 11.7649 14.8816 11.762C15.6448 11.7027 16.573 11.6306 17.6327 12.0563C18.0171 12.2107 18.2035 12.6475 18.0491 13.0318C17.8947 13.4162 17.4579 13.6026 17.0735 13.4482C16.3437 13.155 15.7257 13.2021 14.9257 13.2631Z" fill="black"/>
<path fill-rule="evenodd" clip-rule="evenodd" d="M16.8696 8.03216C17.2779 8.10179 17.5524 8.48924 17.4828 8.89756L17.3729 9.54237C17.3728 9.54242 17.3729 9.54232 17.3729 9.54237C17.2277 10.3941 16.6487 11.1076 15.8445 11.4258L15.8416 11.427L14.6676 11.886C14.2818 12.0368 13.8468 11.8463 13.696 11.4605C13.5452 11.0747 13.7356 10.6397 14.1214 10.4889L15.2938 10.0306C15.6108 9.90462 15.8373 9.6243 15.8941 9.29051L16.0042 8.6454C16.0738 8.23709 16.4612 7.96252 16.8696 8.03216Z" fill="black"/>
<path fill-rule="evenodd" clip-rule="evenodd" d="M12.2519 8.83398C11.8391 8.83398 11.5039 9.1692 11.5039 9.58203V10.601C11.5039 11.0152 11.1681 11.351 10.7539 11.351C10.3397 11.351 10.0039 11.0152 10.0039 10.601V9.58203C10.0039 8.34086 11.0106 7.33398 12.2519 7.33398C13.4931 7.33398 14.4979 8.34183 14.4979 9.58203V10.601C14.4979 11.0152 14.1621 11.351 13.7479 11.351C13.3337 11.351 12.9979 11.0152 12.9979 10.601V9.58203C12.9979 9.16824 12.6627 8.83398 12.2519 8.83398Z" fill="black"/>
</svg>