<svg width="25" height="25" viewBox="0 0 25 25" fill="none" xmlns="http://www.w3.org/2000/svg">
<path d="M3.25 9.50226C3.05109 9.50226 2.86032 9.42318 2.71967 9.28253C2.57901 9.14188 2.5 8.95117 2.5 8.75226V7.17523C2.50159 5.94441 2.99128 4.76445 3.86169 3.89423C4.73211 3.024 5.91218 2.53453 7.14301 2.5332H8.43201C8.63092 2.5332 8.82169 2.61222 8.96234 2.75287C9.10299 2.89352 9.18201 3.08429 9.18201 3.2832C9.18201 3.48212 9.10299 3.67289 8.96234 3.81354C8.82169 3.95419 8.63092 4.0332 8.43201 4.0332H7.14301C6.30985 4.034 5.51104 4.36531 4.92181 4.95435C4.33259 5.54338 4.00106 6.34207 4 7.17523V8.75226C4 8.95117 3.92099 9.14188 3.78033 9.28253C3.63968 9.42318 3.44891 9.50226 3.25 9.50226Z" fill="black"/>
<path d="M17.3495 22.0334H16.0605C15.8616 22.0334 15.6709 21.9544 15.5302 21.8138C15.3896 21.6731 15.3105 21.4824 15.3105 21.2834C15.3105 21.0845 15.3896 20.8938 15.5302 20.7531C15.6709 20.6125 15.8616 20.5334 16.0605 20.5334H17.3495C18.1827 20.5327 18.9816 20.2014 19.5708 19.6124C20.16 19.0233 20.4915 18.2246 20.4926 17.3915V15.8145C20.4926 15.6155 20.5716 15.4248 20.7122 15.2841C20.8529 15.1435 21.0436 15.0645 21.2426 15.0645C21.4415 15.0645 21.6322 15.1435 21.7729 15.2841C21.9135 15.4248 21.9926 15.6155 21.9926 15.8145V17.3915C21.991 18.6223 21.5013 19.8023 20.6309 20.6725C19.7604 21.5427 18.5804 22.0321 17.3495 22.0334Z" fill="black"/>
<path d="M21.2496 9.50226C21.0507 9.50226 20.86 9.42318 20.7193 9.28253C20.5786 9.14188 20.4996 8.95117 20.4996 8.75226V7.17523C20.4986 6.34207 20.167 5.54338 19.5778 4.95435C18.9886 4.36531 18.1898 4.034 17.3566 4.0332H16.0996C15.9007 4.0332 15.7099 3.95419 15.5693 3.81354C15.4286 3.67289 15.3496 3.48212 15.3496 3.2832C15.3496 3.08429 15.4286 2.89352 15.5693 2.75287C15.7099 2.61222 15.9007 2.5332 16.0996 2.5332H17.3566C18.5874 2.53453 19.7675 3.024 20.6379 3.89423C21.5084 4.76445 21.998 5.94441 21.9996 7.17523V8.75226C21.9996 8.95117 21.9206 9.14188 21.78 9.28253C21.6393 9.42318 21.4485 9.50226 21.2496 9.50226Z" fill="black"/>
<path d="M8.40002 22.0334H7.14301C5.91218 22.0321 4.73211 21.5427 3.86169 20.6725C2.99128 19.8023 2.50159 18.6223 2.5 17.3915V15.8145C2.5 15.6155 2.57901 15.4248 2.71967 15.2841C2.86032 15.1435 3.05109 15.0645 3.25 15.0645C3.44891 15.0645 3.63968 15.1435 3.78033 15.2841C3.92099 15.4248 4 15.6155 4 15.8145V17.3915C4.00106 18.2246 4.33259 19.0233 4.92181 19.6124C5.51104 20.2014 6.30985 20.5327 7.14301 20.5334H8.40002C8.59894 20.5334 8.78971 20.6125 8.93036 20.7531C9.07101 20.8938 9.15002 21.0845 9.15002 21.2834C9.15002 21.4824 9.07101 21.6731 8.93036 21.8138C8.78971 21.9544 8.59894 22.0334 8.40002 22.0334Z" fill="black"/>
<path d="M12.6135 17.4337H11.8845C11.0254 17.4327 10.2017 17.0908 9.5943 16.4832C8.98688 15.8756 8.64533 15.0519 8.64453 14.1927V12.5438C8.64533 11.6846 8.98688 10.8608 9.5943 10.2532C10.2017 9.64563 11.0254 9.30379 11.8845 9.30273H12.6135C13.4726 9.30406 14.2961 9.64599 14.9034 10.2535C15.5108 10.8611 15.8525 11.6847 15.8535 12.5438V14.1927C15.8525 15.0518 15.5108 15.8754 14.9034 16.483C14.2961 17.0905 13.4726 17.4324 12.6135 17.4337ZM11.8845 10.8027C11.423 10.8033 10.9806 10.9869 10.6544 11.3133C10.3281 11.6397 10.1448 12.0823 10.1445 12.5438V14.1927C10.1448 14.6542 10.3281 15.0967 10.6544 15.4232C10.9806 15.7496 11.423 15.9332 11.8845 15.9337H12.6135C13.0749 15.9329 13.5172 15.7492 13.8434 15.4229C14.1696 15.0965 14.353 14.6542 14.3535 14.1927V12.5438C14.353 12.0824 14.1696 11.64 13.8434 11.3136C13.5172 10.9872 13.0749 10.8035 12.6135 10.8027H11.8845Z" fill="black"/>
<path d="M9.87748 11.8204C9.78409 11.8206 9.69147 11.8033 9.60447 11.7693L8.30449 11.2604C7.87969 11.0919 7.50526 10.8171 7.21721 10.4623C6.92915 10.1076 6.73711 9.68471 6.65947 9.23437L6.53849 8.52136C6.52153 8.42401 6.52394 8.3243 6.54564 8.2279C6.56734 8.1315 6.60786 8.04034 6.6649 7.95965C6.72194 7.87896 6.79439 7.81029 6.87803 7.75768C6.96168 7.70508 7.05489 7.66954 7.15233 7.65307C7.24976 7.6366 7.34949 7.63954 7.44578 7.66174C7.54207 7.68393 7.63303 7.72495 7.71342 7.7824C7.79382 7.83986 7.86205 7.9126 7.91423 7.99651C7.96641 8.08043 8.00153 8.17384 8.0175 8.27136L8.13847 8.98437C8.17099 9.1805 8.25401 9.3648 8.37938 9.5191C8.50475 9.6734 8.66818 9.79239 8.8535 9.86437L10.1535 10.3724C10.3159 10.4362 10.451 10.5548 10.5354 10.7076C10.6199 10.8604 10.6484 11.0378 10.6161 11.2093C10.5837 11.3809 10.4926 11.5357 10.3583 11.6473C10.224 11.7588 10.055 11.82 9.88047 11.8204H9.87748Z" fill="black"/>
<path d="M6.60241 13.5518C6.42836 13.5513 6.2599 13.4903 6.12579 13.3794C5.99169 13.2684 5.90025 13.1143 5.86719 12.9434C5.83412 12.7726 5.86148 12.5955 5.94452 12.4425C6.02755 12.2895 6.16113 12.1701 6.32245 12.1048C7.29248 11.7504 8.33509 11.6414 9.35742 11.7877C9.56094 11.8016 9.75131 11.8934 9.88879 12.0441C10.0263 12.1949 10.1002 12.3928 10.0954 12.5968C10.0913 12.692 10.0685 12.7856 10.0282 12.872C9.98792 12.9585 9.93101 13.0362 9.86072 13.1006C9.79042 13.1651 9.70808 13.215 9.61847 13.2476C9.52885 13.2803 9.43372 13.2949 9.33844 13.2907L9.2384 13.2827C8.44574 13.1578 7.63449 13.2317 6.87744 13.4978C6.78991 13.5327 6.69664 13.551 6.60241 13.5518Z" fill="black"/>
<path d="M7.27839 17.6787C7.23483 17.6785 7.19135 17.6749 7.14838 17.6678C6.95249 17.6333 6.77824 17.5226 6.66388 17.3599C6.54952 17.1972 6.50441 16.9957 6.5384 16.7998L6.66236 16.0868C6.74034 15.6385 6.93183 15.2177 7.21857 14.8645C7.50531 14.5112 7.87773 14.2373 8.30036 14.0688L9.14637 13.7428C9.32946 13.6825 9.52875 13.6949 9.70295 13.7774C9.87714 13.86 10.0129 14.0064 10.0822 14.1863C10.1514 14.3661 10.1489 14.5658 10.075 14.7439C10.0012 14.9219 9.86163 15.0647 9.68537 15.1428L8.84839 15.4648C8.66601 15.5374 8.50533 15.6556 8.38172 15.8081C8.25811 15.9606 8.17571 16.1423 8.1424 16.3358L8.0174 17.0568C7.98687 17.2307 7.89605 17.3884 7.76093 17.5021C7.62581 17.6158 7.455 17.6783 7.27839 17.6787Z" fill="black"/>
<path d="M17.2182 17.6801C17.04 17.68 16.8677 17.6165 16.7321 17.5009C16.5965 17.3852 16.5065 17.2251 16.4782 17.0491L16.3642 16.3361C16.3273 16.1411 16.2413 15.9587 16.1145 15.806C15.9877 15.6533 15.8242 15.5353 15.6392 15.4631L14.8172 15.1442C14.7253 15.1085 14.6413 15.0551 14.57 14.9869C14.4987 14.9188 14.4415 14.8374 14.4017 14.7471C14.362 14.6569 14.3403 14.5598 14.3381 14.4612C14.3358 14.3626 14.3531 14.2646 14.3887 14.1727C14.4244 14.0808 14.4778 13.9967 14.5459 13.9254C14.614 13.8541 14.6955 13.797 14.7857 13.7572C14.8759 13.7174 14.9731 13.6958 15.0717 13.6936C15.1702 13.6913 15.2683 13.7085 15.3602 13.7442L16.1892 14.0662C16.6141 14.2333 16.9892 14.5063 17.2787 14.8594C17.5682 15.2124 17.7626 15.6337 17.8432 16.0831L17.9592 16.8101C17.9907 17.0064 17.9429 17.2071 17.8264 17.3682C17.71 17.5292 17.5344 17.6375 17.3382 17.6691C17.2986 17.6762 17.2584 17.6798 17.2182 17.6801Z" fill="black"/>
<path d="M17.8985 13.5517C17.8029 13.5514 17.7083 13.5331 17.6195 13.4977C16.8625 13.2316 16.0511 13.1577 15.2585 13.2827L15.1055 12.5427L15.1435 11.7877C16.1658 11.6415 17.2084 11.7504 18.1785 12.1047C18.3398 12.1701 18.4734 12.2895 18.5564 12.4425C18.6394 12.5954 18.6668 12.7725 18.6337 12.9434C18.6007 13.1143 18.5092 13.2683 18.3751 13.3793C18.241 13.4903 18.0726 13.5512 17.8985 13.5517Z" fill="black"/>
<path d="M14.6216 11.8211C14.4471 11.8207 14.2781 11.7595 14.1438 11.648C14.0096 11.5364 13.9184 11.3816 13.886 11.21C13.8537 11.0385 13.8822 10.8611 13.9667 10.7083C14.0511 10.5555 14.1862 10.4369 14.3487 10.3731L15.6487 9.8641C15.8333 9.79178 15.996 9.67272 16.1208 9.51864C16.2456 9.36456 16.3282 9.1807 16.3606 8.98507L16.4826 8.27108C16.4991 8.17397 16.5346 8.08106 16.587 7.99764C16.6393 7.91423 16.7077 7.84195 16.788 7.78494C16.8683 7.72792 16.9591 7.68724 17.0551 7.66531C17.1511 7.64337 17.2505 7.64059 17.3476 7.65707C17.4448 7.67355 17.5377 7.70899 17.6211 7.76138C17.7045 7.81377 17.7768 7.8821 17.8338 7.96243C17.8908 8.04275 17.9315 8.13349 17.9534 8.22952C17.9753 8.32554 17.9781 8.42495 17.9617 8.52206L17.8396 9.23605C17.7619 9.68567 17.5701 10.1079 17.2826 10.4622C16.9952 10.8166 16.6216 11.0913 16.1977 11.2601L14.8976 11.77C14.8096 11.8042 14.716 11.8215 14.6216 11.8211Z" fill="black"/>
<path d="M13.9093 11.1719C13.7103 11.1719 13.5196 11.0929 13.3789 10.9523C13.2383 10.8116 13.1593 10.6208 13.1593 10.4219V9.29492C13.1633 9.17321 13.1428 9.05193 13.099 8.93829C13.0552 8.82466 12.989 8.72101 12.9044 8.63348C12.8197 8.54596 12.7183 8.47637 12.6062 8.42883C12.494 8.3813 12.3736 8.35681 12.2518 8.35681C12.13 8.35681 12.0095 8.3813 11.8974 8.42883C11.7852 8.47637 11.6838 8.54596 11.5991 8.63348C11.5145 8.72101 11.4483 8.82466 11.4045 8.93829C11.3607 9.05193 11.3402 9.17321 11.3442 9.29492V10.4219C11.3442 10.6208 11.2652 10.8116 11.1246 10.9523C10.9839 11.0929 10.7932 11.1719 10.5942 11.1719C10.3953 11.1719 10.2046 11.0929 10.0639 10.9523C9.92326 10.8116 9.84425 10.6208 9.84425 10.4219V9.29492C9.83772 8.97464 9.8952 8.65627 10.0133 8.35846C10.1313 8.06065 10.3076 7.78943 10.5318 7.56061C10.756 7.33179 11.0236 7.14998 11.3189 7.02588C11.6143 6.90178 11.9314 6.83789 12.2518 6.83789C12.5721 6.83789 12.8892 6.90178 13.1846 7.02588C13.4799 7.14998 13.7475 7.33179 13.9718 7.56061C14.196 7.78943 14.3723 8.06065 14.4903 8.35846C14.6084 8.65627 14.6658 8.97464 14.6593 9.29492V10.4219C14.6593 10.6208 14.5802 10.8116 14.4396 10.9523C14.2989 11.0929 14.1082 11.1719 13.9093 11.1719Z" fill="black"/>
</svg>