<svg width="24" height="25" viewBox="0 0 24 25" fill="none" xmlns="http://www.w3.org/2000/svg">
<path d="M7.78299 3.2832H16.218C19.166 3.2832 21 5.36318 21 8.31018V16.2572C21 19.2022 19.166 21.2832 16.217 21.2832H7.78299C4.83499 21.2832 3 19.2022 3 16.2572V8.31018C3 5.36318 4.84399 3.2832 7.78299 3.2832Z" stroke="black" stroke-width="1.5" stroke-linecap="round" stroke-linejoin="round"/>
<path fill-rule="evenodd" clip-rule="evenodd" d="M12.3289 16.2605H11.6719C10.4289 16.2605 9.42188 15.2535 9.42188 14.0105V12.5205C9.42188 11.2795 10.4289 10.2715 11.6719 10.2715H12.3289C13.5719 10.2715 14.5789 11.2795 14.5789 12.5205V14.0105C14.5789 15.2535 13.5719 16.2605 12.3289 16.2605Z" stroke="black" stroke-width="1.5" stroke-linecap="round" stroke-linejoin="round"/>
<path d="M7.50781 8.77148L7.6178 9.41644C7.7188 10.0094 8.1218 10.5065 8.6828 10.7285L9.85681 11.1874" stroke="black" stroke-width="1.5" stroke-linecap="round" stroke-linejoin="round"/>
<path d="M9.42337 12.5179C8.62237 12.4569 7.82639 12.3799 6.90039 12.7519" stroke="black" stroke-width="1.5" stroke-linecap="round" stroke-linejoin="round"/>
<path d="M7.50781 16.4784L7.61981 15.8334C7.71681 15.2434 8.12181 14.7494 8.68381 14.5244L9.43982 14.2324" stroke="black" stroke-width="1.5" stroke-linecap="round" stroke-linejoin="round"/>
<path d="M14.5664 14.2324L15.3144 14.5244C15.8754 14.7494 16.2804 15.2434 16.3854 15.8334L16.4894 16.4784" stroke="black" stroke-width="1.5" stroke-linecap="round" stroke-linejoin="round"/>
<path d="M14.5801 12.5179C15.3811 12.4569 16.1771 12.3799 17.1031 12.7519" stroke="black" stroke-width="1.5" stroke-linecap="round" stroke-linejoin="round"/>
<path d="M16.4935 8.77148L16.3835 9.41644C16.2825 10.0094 15.8795 10.5065 15.3185 10.7285L14.1445 11.1874" stroke="black" stroke-width="1.5" stroke-linecap="round" stroke-linejoin="round"/>
<path d="M10.5039 10.601V9.58203C10.5039 8.75503 11.1749 8.08398 12.0019 8.08398C12.8279 8.08398 13.4979 8.75503 13.4979 9.58203V10.601" stroke="black" stroke-width="1.5" stroke-linecap="round" stroke-linejoin="round"/>
</svg>