<svg width="24" height="25" viewBox="0 0 24 25" fill="none" xmlns="http://www.w3.org/2000/svg">
<path d="M3 8.75226V7.17523C3 5.02623 4.74301 3.2832 6.89301 3.2832H8.18201" stroke="black" stroke-width="1.5" stroke-linecap="round" stroke-linejoin="round"/>
<path d="M20.9984 15.8145V17.3915C20.9984 19.5405 19.2554 21.2834 17.1054 21.2834H15.8164" stroke="black" stroke-width="1.5" stroke-linecap="round" stroke-linejoin="round"/>
<path d="M21.0015 8.75226V7.17523C21.0015 5.02523 19.2585 3.2832 17.1085 3.2832H15.8516" stroke="black" stroke-width="1.5" stroke-linecap="round" stroke-linejoin="round"/>
<path d="M3 15.8145V17.3915C3 19.5405 4.74301 21.2834 6.89301 21.2834H8.14996" stroke="black" stroke-width="1.5" stroke-linecap="round" stroke-linejoin="round"/>
<path fill-rule="evenodd" clip-rule="evenodd" d="M12.3635 16.6838H11.6345C10.2595 16.6838 9.14453 15.5687 9.14453 14.1927V12.5438C9.14453 11.1688 10.2595 10.0527 11.6345 10.0527H12.3635C13.7385 10.0527 14.8535 11.1688 14.8535 12.5438V14.1927C14.8535 15.5687 13.7385 16.6838 12.3635 16.6838Z" stroke="black" stroke-width="1.5" stroke-linecap="round" stroke-linejoin="round"/>
<path d="M7.02734 8.39648L7.14832 9.1095C7.26032 9.7675 7.70633 10.3175 8.32733 10.5635L9.62732 11.0715" stroke="black" stroke-width="1.5" stroke-linecap="round" stroke-linejoin="round"/>
<path d="M9.14459 12.5428C8.25859 12.4758 7.37656 12.3897 6.35156 12.8017" stroke="black" stroke-width="1.5" stroke-linecap="round" stroke-linejoin="round"/>
<path d="M7.02734 16.9293L7.15131 16.2164C7.25831 15.5624 7.70631 15.0154 8.32831 14.7664L9.16534 14.4434" stroke="black" stroke-width="1.5" stroke-linecap="round" stroke-linejoin="round"/>
<path d="M14.8398 14.4434L15.6688 14.7664C16.2898 15.0154 16.7378 15.5624 16.8548 16.2164L16.9698 16.9293" stroke="black" stroke-width="1.5" stroke-linecap="round" stroke-linejoin="round"/>
<path d="M14.8555 12.5428C15.7415 12.4758 16.6235 12.3897 17.6485 12.8017" stroke="black" stroke-width="1.5" stroke-linecap="round" stroke-linejoin="round"/>
<path d="M16.972 8.39648L16.8501 9.1095C16.7381 9.7675 16.2921 10.3175 15.6721 10.5635L14.3711 11.0715" stroke="black" stroke-width="1.5" stroke-linecap="round" stroke-linejoin="round"/>
<path d="M10.3438 10.4197V9.29279C10.3438 8.37679 11.0858 7.63477 12.0018 7.63477C12.9168 7.63477 13.6588 8.37679 13.6588 9.29279V10.4197" stroke="black" stroke-width="1.5" stroke-linecap="round" stroke-linejoin="round"/>
</svg>