<svg width="24" height="24" viewBox="0 0 24 24" fill="none" xmlns="http://www.w3.org/2000/svg">
<path fill-rule="evenodd" clip-rule="evenodd" d="M11.562 2.39128C11.8982 2.14935 12.3669 2.22579 12.6089 2.562L12.8372 2.87932C13.5055 3.80807 13.5289 5.05357 12.8959 6.00675L12.6249 6.41494C12.3957 6.76001 11.9303 6.85399 11.5852 6.62485C11.2401 6.39572 11.1461 5.93024 11.3753 5.58517L11.6463 5.17699C11.934 4.74372 11.9234 4.17758 11.6196 3.75543L11.3913 3.43811C11.1494 3.10189 11.2258 2.63321 11.562 2.39128Z" fill="black"/>
<path fill-rule="evenodd" clip-rule="evenodd" d="M11.678 17.3238C12.0515 17.1448 12.4995 17.3025 12.6785 17.676L13.0093 18.3664C13.4031 19.1881 13.3643 20.1515 12.9058 20.9388L12.6502 21.3776C12.4418 21.7356 11.9826 21.8567 11.6247 21.6483C11.2667 21.4398 11.1456 20.9807 11.354 20.6227L11.6096 20.1839C11.818 19.826 11.8356 19.3881 11.6566 19.0147L11.3258 18.3243C11.1468 17.9508 11.3045 17.5028 11.678 17.3238Z" fill="black"/>
<path fill-rule="evenodd" clip-rule="evenodd" d="M18.5663 4.9148C18.9652 5.02672 19.1977 5.44074 19.0858 5.83955L18.9539 6.30961C18.7261 7.12139 18.1385 7.78381 17.3597 8.10681L16.5297 8.45101C16.1471 8.60969 15.7083 8.42816 15.5496 8.04554C15.3909 7.66293 15.5725 7.22413 15.9551 7.06545L16.785 6.72124C17.139 6.57442 17.4061 6.27332 17.5097 5.90433L17.6416 5.43427C17.7535 5.03546 18.1675 4.80289 18.5663 4.9148Z" fill="black"/>
<path fill-rule="evenodd" clip-rule="evenodd" d="M8.07096 15.5893C8.44892 15.7587 8.61793 16.2025 8.44846 16.5805L8.07463 17.4142C7.77365 18.0854 7.21627 18.6081 6.52708 18.8654L5.90508 19.0976C5.51702 19.2424 5.085 19.0453 4.94014 18.6572C4.79528 18.2692 4.99243 17.8372 5.38049 17.6923L6.00249 17.4601C6.31576 17.3432 6.56912 17.1056 6.70593 16.8005L7.07975 15.9668C7.24922 15.5888 7.693 15.4198 8.07096 15.5893Z" fill="black"/>
<path fill-rule="evenodd" clip-rule="evenodd" d="M19.9487 12.3905C19.6536 12.2751 19.3257 12.2761 19.0312 12.3933L18.2775 12.6933C17.8927 12.8464 17.4565 12.6586 17.3034 12.2737C17.1502 11.8889 17.338 11.4527 17.7229 11.2996L18.4766 10.9996C19.1243 10.7418 19.8457 10.7397 20.495 10.9935L21.2733 11.2979C21.6591 11.4488 21.8495 11.8838 21.6987 12.2696C21.5478 12.6553 21.1128 12.8458 20.7271 12.6949L19.9487 12.3905Z" fill="black"/>
<path fill-rule="evenodd" clip-rule="evenodd" d="M3.34538 11.0427C3.95098 10.791 4.62664 10.7639 5.25043 10.9665L6.23183 11.2852C6.6258 11.4131 6.84146 11.8362 6.71353 12.2301C6.5856 12.6241 6.16252 12.8398 5.76856 12.7118L4.78716 12.3931C4.50361 12.3011 4.1965 12.3134 3.92122 12.4278L3.28812 12.691C2.90564 12.85 2.46668 12.6689 2.30766 12.2864C2.14865 11.9039 2.3298 11.465 2.71227 11.306L3.34538 11.0427Z" fill="black"/>
<path fill-rule="evenodd" clip-rule="evenodd" d="M15.5816 15.8913C15.7777 15.5264 16.2324 15.3895 16.5973 15.5855L17.6667 16.1601C18.3812 16.5439 18.8898 17.2237 19.0565 18.0175L19.0977 18.2135C19.1828 18.6188 18.9231 19.0164 18.5178 19.1016C18.1124 19.1867 17.7148 18.927 17.6297 18.5217L17.5885 18.3258C17.5128 17.9649 17.2816 17.6559 16.9568 17.4814L15.8874 16.9069C15.5225 16.7109 15.3856 16.2562 15.5816 15.8913Z" fill="black"/>
<path fill-rule="evenodd" clip-rule="evenodd" d="M4.92682 5.38989C5.06326 4.99879 5.49091 4.79234 5.88201 4.92878L6.48328 5.13853C7.21909 5.39522 7.81145 5.95205 8.1131 6.6706L8.44783 7.46793C8.60816 7.84986 8.42852 8.28945 8.0466 8.44978C7.66467 8.61011 7.22509 8.43048 7.06476 8.04855L6.73003 7.25122C6.59292 6.9246 6.32367 6.6715 5.9892 6.55482L5.38793 6.34507C4.99683 6.20864 4.79039 5.78098 4.92682 5.38989Z" fill="black"/>
<path fill-rule="evenodd" clip-rule="evenodd" d="M12 6.75C9.10051 6.75 6.75 9.10051 6.75 12C6.75 14.8995 9.10051 17.25 12 17.25C14.8995 17.25 17.25 14.8995 17.25 12C17.25 9.10051 14.8995 6.75 12 6.75ZM5.25 12C5.25 8.27208 8.27208 5.25 12 5.25C15.7279 5.25 18.75 8.27208 18.75 12C18.75 15.7279 15.7279 18.75 12 18.75C8.27208 18.75 5.25 15.7279 5.25 12Z" fill="black"/>
<path fill-rule="evenodd" clip-rule="evenodd" d="M10.4238 9.78906C9.96755 9.78906 9.59766 10.159 9.59766 10.6152C9.59766 11.0715 9.96755 11.4414 10.4238 11.4414C10.8801 11.4414 11.25 11.0715 11.25 10.6152C11.25 10.159 10.8801 9.78906 10.4238 9.78906ZM8.09766 10.6152C8.09766 9.33053 9.13912 8.28906 10.4238 8.28906C11.7085 8.28906 12.75 9.33053 12.75 10.6152C12.75 11.8999 11.7085 12.9414 10.4238 12.9414C9.13912 12.9414 8.09766 11.8999 8.09766 10.6152Z" fill="black"/>
<path fill-rule="evenodd" clip-rule="evenodd" d="M13.9947 13.75C14.0872 13.75 14.1621 13.6751 14.1621 13.5826C14.1621 13.4902 14.0872 13.4153 13.9947 13.4153C13.9023 13.4153 13.8274 13.4902 13.8274 13.5826C13.8274 13.6751 13.9023 13.75 13.9947 13.75ZM12.6621 13.5826C12.6621 12.8466 13.2587 12.25 13.9947 12.25C14.7307 12.25 15.3274 12.8466 15.3274 13.5826C15.3274 14.3186 14.7307 14.9153 13.9947 14.9153C13.2587 14.9153 12.6621 14.3186 12.6621 13.5826Z" fill="black"/>
</svg>