<svg width="25" height="25" viewBox="0 0 25 25" fill="none" xmlns="http://www.w3.org/2000/svg">
<path d="M3.25 8.79327V7.21625C3.25 5.06725 4.99301 3.32422 7.14301 3.32422H8.43201" stroke="black" stroke-width="1.5" stroke-linecap="round" stroke-linejoin="round"/>
<path d="M21.2484 15.8555V17.4325C21.2484 19.5815 19.5054 21.3245 17.3554 21.3245H16.0664" stroke="black" stroke-width="1.5" stroke-linecap="round" stroke-linejoin="round"/>
<path d="M21.2515 8.79327V7.21625C21.2515 5.06625 19.5085 3.32422 17.3585 3.32422H16.1016" stroke="black" stroke-width="1.5" stroke-linecap="round" stroke-linejoin="round"/>
<path d="M3.25 15.8555V17.4325C3.25 19.5815 4.99301 21.3245 7.14301 21.3245H8.39996" stroke="black" stroke-width="1.5" stroke-linecap="round" stroke-linejoin="round"/>
<path d="M10.3868 16.2239C9.78414 15.7694 9.39453 15.0472 9.39453 14.2338V12.5848C9.39453 11.2098 10.5095 10.0938 11.8845 10.0938H12.6135C13.9885 10.0938 15.1035 11.2098 15.1035 12.5848V14.2338C15.1035 15.4016 14.3003 16.3815 13.2166 16.6512" stroke="black" stroke-width="1.5" stroke-linecap="round" stroke-linejoin="round"/>
<path d="M7.27734 8.4375L7.39832 9.15051C7.51032 9.80851 7.95633 10.3585 8.57733 10.6045L9.87732 11.1125" stroke="black" stroke-width="1.5" stroke-linecap="round" stroke-linejoin="round"/>
<path d="M9.39459 12.5838C8.50859 12.5168 7.62656 12.4308 6.60156 12.8428" stroke="black" stroke-width="1.5" stroke-linecap="round" stroke-linejoin="round"/>
<path d="M7.27734 16.9703L7.40131 16.2574C7.50831 15.6034 7.95631 15.0564 8.57831 14.8074L9.41534 14.4844" stroke="black" stroke-width="1.5" stroke-linecap="round" stroke-linejoin="round"/>
<path d="M15.0898 14.4844L15.9188 14.8074C16.5398 15.0564 16.9878 15.6034 17.1048 16.2574L17.2198 16.9703" stroke="black" stroke-width="1.5" stroke-linecap="round" stroke-linejoin="round"/>
<path d="M15.1055 12.5838C15.9915 12.5168 16.8735 12.4308 17.8985 12.8428" stroke="black" stroke-width="1.5" stroke-linecap="round" stroke-linejoin="round"/>
<path d="M17.222 8.4375L17.1001 9.15051C16.9881 9.80851 16.5421 10.3585 15.9221 10.6045L14.6211 11.1125" stroke="black" stroke-width="1.5" stroke-linecap="round" stroke-linejoin="round"/>
<path d="M10.5938 10.4608V9.3338C10.5938 8.4178 11.3358 7.67578 12.2518 7.67578C13.1668 7.67578 13.9088 8.4178 13.9088 9.3338V10.4608" stroke="black" stroke-width="1.5" stroke-linecap="round" stroke-linejoin="round"/>
</svg>