<svg width="24" height="24" viewBox="0 0 24 24" fill="none" xmlns="http://www.w3.org/2000/svg">
<path fill-rule="evenodd" clip-rule="evenodd" d="M10.4238 9.79419C9.96878 9.79419 9.59778 10.1652 9.59778 10.6202C9.59778 11.0752 9.96878 11.4462 10.4238 11.4462C10.8788 11.4462 11.2498 11.0752 11.2498 10.6202C11.2498 10.1652 10.8788 9.79419 10.4238 9.79419Z" fill="black"/>
<path fill-rule="evenodd" clip-rule="evenodd" d="M13.9951 13.4123C13.9031 13.4123 13.8281 13.4873 13.8281 13.5803C13.8281 13.7643 14.1621 13.7643 14.1621 13.5803C14.1621 13.4873 14.0871 13.4123 13.9951 13.4123Z" fill="black"/>
<path fill-rule="evenodd" clip-rule="evenodd" d="M13.9951 14.9123C13.2601 14.9123 12.6621 14.3143 12.6621 13.5803C12.6621 12.8453 13.2601 12.2473 13.9951 12.2473C14.7301 12.2473 15.3281 12.8453 15.3281 13.5803C15.3281 14.3143 14.7301 14.9123 13.9951 14.9123ZM10.4241 12.9463C9.1411 12.9463 8.0981 11.9023 8.0981 10.6203C8.0981 9.3383 9.1411 8.2943 10.4241 8.2943C11.7061 8.2943 12.7501 9.3383 12.7501 10.6203C12.7501 11.9023 11.7061 12.9463 10.4241 12.9463ZM21.2781 11.3043L20.4881 10.9883C19.8311 10.7393 19.1151 10.7443 18.4761 11.0033L18.4191 11.0263C18.2581 9.9633 17.8411 8.9863 17.2301 8.1573L17.3541 8.1043C18.1411 7.7853 18.7241 7.1323 18.9551 6.3123L19.0871 5.8423C19.1981 5.4433 18.9661 5.0293 18.5661 4.9173C18.1671 4.8083 17.7531 5.0393 17.6411 5.4373L17.5111 5.9073C17.4061 6.2763 17.1431 6.5713 16.7811 6.7193L16.1361 6.9903C15.2841 6.2853 14.2491 5.8003 13.1151 5.6033C13.5071 4.7223 13.4131 3.6773 12.8391 2.8853L12.6101 2.5643C12.3691 2.2273 11.9011 2.1463 11.5641 2.3903C11.2271 2.6303 11.1481 3.0993 11.3901 3.4353L11.6211 3.7613C11.9231 4.1773 11.9331 4.7453 11.6461 5.1763L11.4121 5.5303C10.1991 5.6393 9.08509 6.0863 8.1551 6.7713L8.1121 6.6693C7.8081 5.9453 7.2121 5.3883 6.4831 5.1413L5.8821 4.9323C5.4891 4.7983 5.0621 5.0013 4.9271 5.3923C4.7901 5.7833 4.9961 6.2113 5.3881 6.3483L5.9961 6.5603C6.3241 6.6713 6.5921 6.9233 6.7291 7.2503L6.9871 7.8663C6.2461 8.7643 5.7471 9.8663 5.5741 11.0723L5.2541 10.9683C4.6221 10.7603 3.9431 10.7893 3.3481 11.0473L2.7151 11.3073C2.3321 11.4643 2.1481 11.9013 2.3071 12.2853C2.4631 12.6693 2.9001 12.8543 3.2851 12.6933L3.9301 12.4293C4.2001 12.3123 4.5021 12.2993 4.7861 12.3923L5.5321 12.6363C5.6621 13.9623 6.1911 15.1733 6.9981 16.1453L6.7051 16.8053C6.5691 17.1073 6.3161 17.3453 6.0051 17.4563L5.3831 17.6853C4.9941 17.8293 4.7961 18.2613 4.9381 18.6493C5.0511 18.9523 5.3381 19.1403 5.6421 19.1403C5.7281 19.1403 5.8161 19.1253 5.9021 19.0943L6.5171 18.8663C7.2051 18.6193 7.7721 18.0913 8.0751 17.4153L8.1571 17.2303C9.0821 17.9123 10.1901 18.3573 11.3961 18.4693L11.6561 19.0123C11.8351 19.3893 11.8181 19.8263 11.6081 20.1843L11.3531 20.6243C11.1451 20.9823 11.2671 21.4413 11.6261 21.6483C11.7441 21.7183 11.8731 21.7503 12.0011 21.7503C12.2601 21.7503 12.5121 21.6163 12.6501 21.3763L12.9041 20.9393C13.3561 20.1683 13.3961 19.2283 13.0241 18.4113C14.1821 18.2273 15.2411 17.7423 16.1111 17.0303L16.9571 17.4803C17.2831 17.6563 17.5131 17.9633 17.5881 18.3243L17.6301 18.5243C17.7041 18.8783 18.0161 19.1203 18.3631 19.1203C18.4141 19.1203 18.4671 19.1153 18.5181 19.1043C18.9241 19.0193 19.1831 18.6213 19.0991 18.2163L19.0571 18.0163C18.8911 17.2233 18.3851 16.5463 17.6651 16.1583L17.1851 15.9033C17.8891 14.9703 18.3521 13.8473 18.4681 12.6213L19.0351 12.3953C19.3271 12.2773 19.6521 12.2753 19.9431 12.3863L20.7221 12.6963C20.8131 12.7333 20.9071 12.7503 21.0001 12.7503C21.2981 12.7503 21.5791 12.5713 21.6961 12.2783C21.8501 11.8933 21.6631 11.4573 21.2781 11.3043Z" fill="black"/>
</svg>