<svg width="24" height="24" viewBox="0 0 24 24" fill="none" xmlns="http://www.w3.org/2000/svg">
<path d="M12 6L12.271 5.59181C12.7314 4.89859 12.7144 3.99277 12.2283 3.31732L12 3" stroke="black" stroke-width="1.5" stroke-linecap="round" stroke-linejoin="round"/>
<path d="M12.002 18L12.3328 18.6904C12.6192 19.2879 12.591 19.9886 12.2575 20.5612L12.002 21" stroke="black" stroke-width="1.5" stroke-linecap="round" stroke-linejoin="round"/>
<path d="M16.2422 7.75804L17.0722 7.41383C17.6386 7.17893 18.0659 6.69717 18.2316 6.10678L18.3635 5.63672" stroke="black" stroke-width="1.5" stroke-linecap="round" stroke-linejoin="round"/>
<path d="M7.7639 16.2734L7.39008 17.1071C7.17118 17.5953 6.76581 17.9755 6.26458 18.1626L5.64258 18.3948" stroke="black" stroke-width="1.5" stroke-linecap="round" stroke-linejoin="round"/>
<path d="M18 11.9964L18.7537 11.6964C19.2248 11.509 19.7495 11.5074 20.2217 11.692L21 11.9964" stroke="black" stroke-width="1.5" stroke-linecap="round" stroke-linejoin="round"/>
<path d="M6 11.9985L5.0186 11.6798C4.56493 11.5325 4.07354 11.5522 3.6331 11.7353L3 11.9985" stroke="black" stroke-width="1.5" stroke-linecap="round" stroke-linejoin="round"/>
<path d="M16.2422 16.2461L17.3116 16.8206C17.8313 17.0998 18.2012 17.5942 18.3224 18.1715L18.3635 18.3674" stroke="black" stroke-width="1.5" stroke-linecap="round" stroke-linejoin="round"/>
<path d="M7.75609 7.75804L7.42136 6.96071C7.20198 6.43812 6.77118 6.03316 6.23604 5.84647L5.63477 5.63672" stroke="black" stroke-width="1.5" stroke-linecap="round" stroke-linejoin="round"/>
<circle cx="12" cy="12" r="6" stroke="black" stroke-width="1.5" stroke-linecap="round" stroke-linejoin="round"/>
<circle cx="10.4238" cy="10.6152" r="1.57617" stroke="black" stroke-width="1.5" stroke-linecap="round" stroke-linejoin="round"/>
<circle cx="13.9947" cy="13.5826" r="0.582625" stroke="black" stroke-width="1.5" stroke-linecap="round" stroke-linejoin="round"/>
</svg>