<svg width="25" height="25" viewBox="0 0 25 25" fill="none" xmlns="http://www.w3.org/2000/svg">
<path opacity="0.4" d="M3.5 8.75226V7.17523C3.5 5.02623 5.24301 3.2832 7.39301 3.2832H8.68201" stroke="black" stroke-width="1.5" stroke-linecap="round" stroke-linejoin="round"/>
<path opacity="0.4" d="M21.4984 15.8145V17.3915C21.4984 19.5405 19.7554 21.2834 17.6054 21.2834H16.3164" stroke="black" stroke-width="1.5" stroke-linecap="round" stroke-linejoin="round"/>
<path opacity="0.4" d="M21.5015 8.75226V7.17523C21.5015 5.02523 19.7585 3.2832 17.6085 3.2832H16.3516" stroke="black" stroke-width="1.5" stroke-linecap="round" stroke-linejoin="round"/>
<path opacity="0.4" d="M3.5 15.8145V17.3915C3.5 19.5405 5.24301 21.2834 7.39301 21.2834H8.64996" stroke="black" stroke-width="1.5" stroke-linecap="round" stroke-linejoin="round"/>
<path fill-rule="evenodd" clip-rule="evenodd" d="M12.8635 16.6838H12.1345C10.7595 16.6838 9.64453 15.5687 9.64453 14.1927V12.5438C9.64453 11.1688 10.7595 10.0527 12.1345 10.0527H12.8635C14.2385 10.0527 15.3535 11.1688 15.3535 12.5438V14.1927C15.3535 15.5687 14.2385 16.6838 12.8635 16.6838Z" stroke="black" stroke-width="1.5" stroke-linecap="round" stroke-linejoin="round"/>
<path d="M7.52734 8.39648L7.64832 9.1095C7.76032 9.7675 8.20633 10.3175 8.82733 10.5635L10.1273 11.0715" stroke="black" stroke-width="1.5" stroke-linecap="round" stroke-linejoin="round"/>
<path d="M9.64459 12.5428C8.75859 12.4758 7.87656 12.3897 6.85156 12.8017" stroke="black" stroke-width="1.5" stroke-linecap="round" stroke-linejoin="round"/>
<path d="M7.52734 16.9293L7.65131 16.2164C7.75831 15.5624 8.20631 15.0154 8.82831 14.7664L9.66534 14.4434" stroke="black" stroke-width="1.5" stroke-linecap="round" stroke-linejoin="round"/>
<path d="M15.3398 14.4434L16.1688 14.7664C16.7898 15.0154 17.2378 15.5624 17.3548 16.2164L17.4698 16.9293" stroke="black" stroke-width="1.5" stroke-linecap="round" stroke-linejoin="round"/>
<path d="M15.3555 12.5428C16.2415 12.4758 17.1235 12.3897 18.1485 12.8017" stroke="black" stroke-width="1.5" stroke-linecap="round" stroke-linejoin="round"/>
<path d="M17.472 8.39648L17.3501 9.1095C17.2381 9.7675 16.7921 10.3175 16.1721 10.5635L14.8711 11.0715" stroke="black" stroke-width="1.5" stroke-linecap="round" stroke-linejoin="round"/>
<path d="M10.8438 10.4197V9.29279C10.8438 8.37679 11.5858 7.63477 12.5018 7.63477C13.4168 7.63477 14.1588 8.37679 14.1588 9.29279V10.4197" stroke="black" stroke-width="1.5" stroke-linecap="round" stroke-linejoin="round"/>
</svg>