<svg width="24" height="25" viewBox="0 0 24 25" fill="none" xmlns="http://www.w3.org/2000/svg">
<path fill-rule="evenodd" clip-rule="evenodd" d="M2.99902 9.54522C3.41302 9.54522 3.74902 9.20922 3.74902 8.79522V7.22522C3.74902 5.48722 5.15902 4.07422 6.89202 4.07422H8.18102C8.59502 4.07422 8.93102 3.73822 8.93102 3.32422C8.93102 2.91022 8.59502 2.57422 8.18102 2.57422H6.89202C4.33202 2.57422 2.24902 4.66022 2.24902 7.22522V8.79522C2.24902 9.20922 2.58502 9.54522 2.99902 9.54522Z" fill="black"/>
<path fill-rule="evenodd" clip-rule="evenodd" d="M20.9971 15.1162C20.5831 15.1162 20.2471 15.4522 20.2471 15.8662V17.4352C20.2471 19.1672 18.8371 20.5752 17.1041 20.5752H15.8151C15.4011 20.5752 15.0651 20.9112 15.0651 21.3252C15.0651 21.7392 15.4011 22.0752 15.8151 22.0752H17.1041C19.6641 22.0752 21.7471 19.9942 21.7471 17.4352V15.8662C21.7471 15.4522 21.4111 15.1162 20.9971 15.1162Z" fill="black"/>
<path fill-rule="evenodd" clip-rule="evenodd" d="M17.1083 2.5752H15.8503C15.4363 2.5752 15.1003 2.9112 15.1003 3.3252C15.1003 3.7392 15.4363 4.0752 15.8503 4.0752H17.1083C18.8403 4.0752 20.2513 5.4882 20.2513 7.2252V8.7962C20.2513 9.2102 20.5873 9.5462 21.0013 9.5462C21.4153 9.5462 21.7513 9.2102 21.7513 8.7962V7.2252C21.7513 4.6612 19.6683 2.5752 17.1083 2.5752Z" fill="black"/>
<path fill-rule="evenodd" clip-rule="evenodd" d="M8.14939 20.5752H6.89139C5.15939 20.5752 3.74939 19.1672 3.74939 17.4352V15.8662C3.74939 15.4522 3.41339 15.1162 2.99939 15.1162C2.58539 15.1162 2.24939 15.4522 2.24939 15.8662V17.4352C2.24939 19.9942 4.33239 22.0752 6.89139 22.0752H8.14939C8.56339 22.0752 8.89939 21.7392 8.89939 21.3252C8.89939 20.9112 8.56339 20.5752 8.14939 20.5752Z" fill="black"/>
<path fill-rule="evenodd" clip-rule="evenodd" d="M15.3877 15.5105C15.7727 15.6655 16.0447 15.9965 16.1147 16.3845L16.2287 17.0945C16.2877 17.4625 16.6067 17.7255 16.9677 17.7255C17.0077 17.7255 17.0477 17.7225 17.0877 17.7155C17.4967 17.6505 17.7757 17.2655 17.7087 16.8565L17.5927 16.1345C17.4307 15.2225 16.8167 14.4685 15.9457 14.1175L15.3527 13.8815V13.3055C16.0377 13.2625 16.6637 13.2585 17.3687 13.5415C17.4597 13.5775 17.5547 13.5955 17.6477 13.5955C17.9457 13.5955 18.2267 13.4165 18.3437 13.1235C18.4977 12.7395 18.3107 12.3025 17.9257 12.1495C16.9207 11.7465 16.0347 11.7595 15.2377 11.8105C15.2187 11.7415 15.1977 11.6735 15.1747 11.6065L15.9407 11.3055C16.8027 10.9725 17.4337 10.1975 17.5877 9.28155L17.7097 8.57255C17.7807 8.16355 17.5057 7.77655 17.0977 7.70555C16.6917 7.64055 16.3017 7.90955 16.2317 8.31855L16.1097 9.03055C16.0417 9.42755 15.7707 9.76255 15.3967 9.90655L14.3087 10.3345C14.2597 10.2915 14.2097 10.2495 14.1587 10.2095V9.33555C14.1587 8.15055 13.1907 7.18555 12.0007 7.18555C10.8107 7.18555 9.84269 8.15055 9.84269 9.33555V10.2065C9.78969 10.2465 9.73869 10.2905 9.68769 10.3345L8.59569 9.90555C8.22569 9.76255 7.95369 9.42755 7.88669 9.02955L7.76569 8.31955C7.69669 7.90955 7.31069 7.63255 6.90069 7.70555C6.49169 7.77555 6.21769 8.16255 6.28669 8.57155L6.40869 9.28055C6.56269 10.1975 7.19469 10.9735 8.05169 11.3035L8.82169 11.6065C8.79869 11.6735 8.77669 11.7415 8.75869 11.8105C7.96169 11.7595 7.07769 11.7465 6.07269 12.1495C5.68769 12.3025 5.49969 12.7395 5.65469 13.1235C5.77169 13.4175 6.05269 13.5955 6.35069 13.5955C6.44369 13.5955 6.53769 13.5775 6.62869 13.5415C7.33469 13.2595 7.95969 13.2625 8.64369 13.3055V13.8845L8.04769 14.1185C7.16969 14.4725 6.55769 15.2295 6.41069 16.1365L6.28669 16.8465C6.21569 17.2545 6.48969 17.6435 6.89769 17.7145C6.94169 17.7215 6.98469 17.7255 7.02769 17.7255C7.38469 17.7255 7.70069 17.4685 7.76569 17.1045L7.89069 16.3845C7.95369 15.9925 8.22169 15.6655 8.60269 15.5125L8.88169 15.4025C9.33769 16.4725 10.3997 17.2255 11.6337 17.2255H12.3637C13.5977 17.2255 14.6597 16.4725 15.1147 15.4025L15.3877 15.5105Z" fill="black"/>
</svg>