<svg width="24" height="25" viewBox="0 0 24 25" fill="none" xmlns="http://www.w3.org/2000/svg">
<g opacity="0.4">
<path fill-rule="evenodd" clip-rule="evenodd" d="M2.99878 9.54522C3.41278 9.54522 3.74878 9.20922 3.74878 8.79522V7.22522C3.74878 5.48722 5.15878 4.07422 6.89178 4.07422H8.18078C8.59478 4.07422 8.93078 3.73822 8.93078 3.32422C8.93078 2.91022 8.59478 2.57422 8.18078 2.57422H6.89178C4.33178 2.57422 2.24878 4.66022 2.24878 7.22522V8.79522C2.24878 9.20922 2.58478 9.54522 2.99878 9.54522Z" fill="black"/>
<path fill-rule="evenodd" clip-rule="evenodd" d="M20.9968 15.1162C20.5828 15.1162 20.2468 15.4522 20.2468 15.8662V17.4352C20.2468 19.1672 18.8368 20.5752 17.1038 20.5752H15.8148C15.4008 20.5752 15.0648 20.9112 15.0648 21.3252C15.0648 21.7392 15.4008 22.0752 15.8148 22.0752H17.1038C19.6638 22.0752 21.7468 19.9942 21.7468 17.4352V15.8662C21.7468 15.4522 21.4108 15.1162 20.9968 15.1162Z" fill="black"/>
<path fill-rule="evenodd" clip-rule="evenodd" d="M17.1081 2.5752H15.8501C15.4361 2.5752 15.1001 2.9112 15.1001 3.3252C15.1001 3.7392 15.4361 4.0752 15.8501 4.0752H17.1081C18.8401 4.0752 20.2511 5.4882 20.2511 7.2252V8.7962C20.2511 9.2102 20.5871 9.5462 21.0011 9.5462C21.4151 9.5462 21.7511 9.2102 21.7511 8.7962V7.2252C21.7511 4.6612 19.6681 2.5752 17.1081 2.5752Z" fill="black"/>
<path fill-rule="evenodd" clip-rule="evenodd" d="M8.14915 20.5752H6.89115C5.15915 20.5752 3.74915 19.1672 3.74915 17.4352V15.8662C3.74915 15.4522 3.41315 15.1162 2.99915 15.1162C2.58515 15.1162 2.24915 15.4522 2.24915 15.8662V17.4352C2.24915 19.9942 4.33215 22.0752 6.89115 22.0752H8.14915C8.56315 22.0752 8.89915 21.7392 8.89915 21.3252C8.89915 20.9112 8.56315 20.5752 8.14915 20.5752Z" fill="black"/>
</g>
<path fill-rule="evenodd" clip-rule="evenodd" d="M15.3874 15.5086C15.7724 15.6636 16.0444 15.9946 16.1144 16.3826L16.2284 17.0926C16.2874 17.4606 16.6064 17.7236 16.9674 17.7236C17.0074 17.7236 17.0474 17.7206 17.0874 17.7136C17.4964 17.6486 17.7754 17.2636 17.7084 16.8546L17.5924 16.1326C17.4304 15.2206 16.8164 14.4666 15.9454 14.1156L15.3524 13.8796V13.3036C16.0374 13.2606 16.6634 13.2566 17.3684 13.5396C17.4594 13.5756 17.5544 13.5936 17.6474 13.5936C17.9454 13.5936 18.2264 13.4146 18.3434 13.1216C18.4974 12.7376 18.3104 12.3006 17.9254 12.1476C16.9204 11.7446 16.0344 11.7576 15.2374 11.8086C15.2184 11.7396 15.1974 11.6716 15.1744 11.6046L15.9404 11.3036C16.8025 10.9706 17.4334 10.1956 17.5874 9.27959L17.7094 8.57059C17.7804 8.16159 17.5054 7.77459 17.0974 7.70359C16.6914 7.63859 16.3014 7.90759 16.2314 8.31659L16.1094 9.02859C16.0414 9.42559 15.7704 9.76059 15.3964 9.90459L14.3084 10.3326C14.2594 10.2896 14.2094 10.2476 14.1584 10.2076V9.33359C14.1584 8.14859 13.1904 7.18359 12.0004 7.18359C10.8104 7.18359 9.84245 8.14859 9.84245 9.33359V10.2046C9.78945 10.2446 9.73845 10.2886 9.68745 10.3326L8.59545 9.90359C8.22545 9.76059 7.95345 9.42559 7.88645 9.02759L7.76545 8.31759C7.69645 7.90759 7.31045 7.63059 6.90045 7.70359C6.49145 7.77359 6.21745 8.16059 6.28645 8.56959L6.40845 9.27859C6.56245 10.1956 7.19445 10.9716 8.05145 11.3016L8.82145 11.6046C8.79845 11.6716 8.77645 11.7396 8.75845 11.8086C7.96145 11.7576 7.07745 11.7446 6.07245 12.1476C5.68745 12.3006 5.49945 12.7376 5.65445 13.1216C5.77145 13.4156 6.05245 13.5936 6.35045 13.5936C6.44345 13.5936 6.53745 13.5756 6.62845 13.5396C7.33445 13.2576 7.95945 13.2606 8.64345 13.3036V13.8826L8.04745 14.1166C7.16945 14.4706 6.55745 15.2276 6.41045 16.1346L6.28645 16.8446C6.21545 17.2526 6.48945 17.6416 6.89745 17.7126C6.94145 17.7196 6.98445 17.7236 7.02745 17.7236C7.38445 17.7236 7.70045 17.4666 7.76545 17.1026L7.89045 16.3826C7.95345 15.9906 8.22145 15.6636 8.60245 15.5106L8.88145 15.4006C9.33745 16.4706 10.3994 17.2236 11.6334 17.2236H12.3634C13.5974 17.2236 14.6594 16.4706 15.1144 15.4006L15.3874 15.5086Z" fill="black"/>
</svg>