<svg width="25" height="24" viewBox="0 0 25 24" fill="none" xmlns="http://www.w3.org/2000/svg">
<path opacity="0.4" fill-rule="evenodd" clip-rule="evenodd" d="M18.095 3.21094H6.904C3.971 3.21094 2 5.27194 2 8.34094V15.6609C2 18.7289 3.971 20.7909 6.904 20.7909H18.094C21.028 20.7909 23 18.7289 23 15.6609V8.34094C23 5.27194 21.028 3.21094 18.095 3.21094Z" fill="black"/>
<path fill-rule="evenodd" clip-rule="evenodd" d="M19.1739 14.6901C19.1029 14.7111 19.0309 14.7211 18.9609 14.7211C18.6369 14.7211 18.3379 14.5101 18.2419 14.1841L17.6609 12.2221L16.7739 14.2701C16.6089 14.6501 16.1679 14.8251 15.7859 14.6601C15.4059 14.4951 15.2329 14.0521 15.3969 13.6721L17.1069 9.73113C17.2329 9.44213 17.5109 9.25113 17.8409 9.28113C18.1549 9.30013 18.4249 9.51413 18.5139 9.81713L19.6799 13.7581C19.7979 14.1561 19.5709 14.5731 19.1739 14.6901ZM14.3299 11.0211C14.0349 10.9071 13.7069 10.9311 13.6369 10.9801C13.6499 11.0811 13.7299 11.1641 14.0609 11.4101C14.2569 11.5541 14.4489 11.7031 14.6049 11.8721C14.9159 12.2261 15.0739 12.5951 15.0879 12.9831C15.1069 13.4191 14.9199 13.8671 14.5879 14.1771C14.2629 14.4771 13.8429 14.6291 13.3709 14.6291C13.0509 14.6291 12.7059 14.5591 12.3509 14.4191C11.9659 14.2651 11.7779 13.8301 11.9309 13.4441C12.0839 13.0581 12.5239 12.8721 12.9049 13.0241C13.2349 13.1541 13.4899 13.1481 13.5669 13.0801C13.5889 13.0191 13.5669 12.9621 13.4889 12.8751C13.4079 12.7871 13.2859 12.7031 13.1669 12.6151C12.7469 12.3021 12.1119 11.8321 12.1559 10.9151C12.1819 10.4081 12.4159 9.98513 12.8189 9.72313C13.4529 9.31013 14.3199 9.41013 14.8689 9.62113C15.2549 9.76913 15.4479 10.2041 15.2999 10.5901C15.1519 10.9771 14.7179 11.1691 14.3299 11.0211ZM11.0139 14.0781C10.9599 14.4521 10.6399 14.7211 10.2729 14.7211C10.2369 14.7211 10.2009 14.7191 10.1649 14.7131C9.75489 14.6551 9.47089 14.2751 9.52889 13.8651L10.0939 9.92313C10.1529 9.51313 10.5269 9.21613 10.9429 9.28813C11.3529 9.34613 11.6369 9.72613 11.5779 10.1361L11.0139 14.0781ZM7.69989 14.2801C7.57789 14.5501 7.30989 14.7211 7.01689 14.7211C6.99389 14.7211 6.97189 14.7201 6.94889 14.7181C6.63089 14.6891 6.36589 14.4621 6.28889 14.1531L5.30789 10.2111C5.20689 9.80913 5.45189 9.40213 5.85389 9.30213C6.25689 9.19913 6.66289 9.44613 6.76289 9.84813L7.22289 11.6941L8.11289 9.72113C8.28289 9.34313 8.73189 9.17813 9.10589 9.34613C9.48389 9.51713 9.65189 9.96113 9.48089 10.3381L7.69989 14.2801Z" fill="black"/>
</svg>