<svg width="24" height="24" viewBox="0 0 24 24" fill="none" xmlns="http://www.w3.org/2000/svg">
<path fill-rule="evenodd" clip-rule="evenodd" d="M12 3.75C7.44365 3.75 3.75 7.44365 3.75 12C3.75 16.5563 7.44365 20.25 12 20.25C16.5563 20.25 20.25 16.5563 20.25 12C20.25 7.44365 16.5563 3.75 12 3.75ZM2.25 12C2.25 6.61522 6.61522 2.25 12 2.25C17.3848 2.25 21.75 6.61522 21.75 12C21.75 17.3848 17.3848 21.75 12 21.75C6.61522 21.75 2.25 17.3848 2.25 12Z" fill="black"/>
<path fill-rule="evenodd" clip-rule="evenodd" d="M15.8839 8.53999C16.2523 8.72944 16.3973 9.18163 16.2079 9.54998L12.8915 15.9978C12.7623 16.2491 12.5029 16.4064 12.2203 16.4048C11.9378 16.4032 11.6801 16.2429 11.5538 15.9902L8.67709 10.2368H7.59863C7.18442 10.2368 6.84863 9.90105 6.84863 9.48683C6.84863 9.07262 7.18442 8.73683 7.59863 8.73683H9.14062C9.4247 8.73683 9.6844 8.89733 9.81144 9.15142L12.234 13.9966L14.874 8.86391C15.0634 8.49556 15.5156 8.35054 15.8839 8.53999Z" fill="black"/>
</svg>