<svg width="24" height="24" viewBox="0 0 24 24" fill="none" xmlns="http://www.w3.org/2000/svg">
<path fill-rule="evenodd" clip-rule="evenodd" d="M3.7402 3.89737C4.72468 2.84117 6.12669 2.25 7.78216 2.25H16.2169C17.8762 2.25 19.2788 2.84084 20.2629 3.89765C21.2413 4.94841 21.75 6.39889 21.75 8.02638V15.9736C21.75 17.6011 21.2413 19.0516 20.2627 20.1024C19.2785 21.1592 17.8756 21.75 16.2159 21.75H7.78216C6.1228 21.75 4.72038 21.1591 3.73657 20.1023C2.75842 19.0515 2.25 17.601 2.25 15.9736V8.02638C2.25 6.39806 2.76117 4.94771 3.7402 3.89737ZM4.83745 4.92012C4.16024 5.64666 3.75 6.70951 3.75 8.02638V15.9736C3.75 17.2914 4.15861 18.3541 4.83451 19.0802C5.50475 19.8003 6.49341 20.25 7.78216 20.25H16.2159C17.5052 20.25 18.4944 19.8002 19.165 19.0801C19.8412 18.354 20.25 17.2913 20.25 15.9736V8.02638C20.25 6.70868 19.8412 5.64597 19.1651 4.91984C18.4946 4.19975 17.5056 3.75 16.2169 3.75H7.78216C6.49828 3.75 5.50921 4.19943 4.83745 4.92012Z" fill="black"/>
<path fill-rule="evenodd" clip-rule="evenodd" d="M15.8615 8.1103C16.2298 8.29976 16.3748 8.75194 16.1854 9.12029L12.8691 15.5681C12.7399 15.8194 12.4804 15.9767 12.1979 15.9751C11.9153 15.9735 11.6577 15.8132 11.5313 15.5605L8.65463 9.80715H7.57617C7.16196 9.80715 6.82617 9.47136 6.82617 9.05715C6.82617 8.64293 7.16196 8.30715 7.57617 8.30715H9.11816C9.40224 8.30715 9.66194 8.46765 9.78898 8.72174L12.2116 13.5669L14.8515 8.43422C15.0409 8.06587 15.4931 7.92085 15.8615 8.1103Z" fill="black"/>
</svg>