<svg width="24" height="24" viewBox="0 0 24 24" fill="none" xmlns="http://www.w3.org/2000/svg">
<path opacity="0.4" d="M12 21C16.9709 21 21 16.9709 21 12C21 7.02908 16.9709 3 12 3C7.02908 3 3 7.02908 3 12C3 16.9709 7.02908 21 12 21Z" stroke="black" stroke-width="1.5" stroke-linecap="round" stroke-linejoin="round"/>
<path d="M16.6811 9.37891C16.3726 10.0074 15.9912 10.6019 15.5252 11.1244C15.1097 11.5895 14.6213 11.9826 14.0326 12.1957C13.6337 12.3358 13.2299 12.3757 12.8203 12.3864" stroke="black" stroke-width="1.5" stroke-linecap="round" stroke-linejoin="round"/>
<path d="M16.6811 15.389C16.3726 14.7604 15.9912 14.166 15.5252 13.6435C15.1097 13.1833 14.6213 12.7853 14.0326 12.5722C13.6337 12.4321 13.2299 12.3926 12.8203 12.3867H12.207" stroke="black" stroke-width="1.5" stroke-linecap="round" stroke-linejoin="round"/>
<path d="M11.0011 9.38281H12.2007V15.3831C8.61728 15.3831 7.31836 11.0339 7.31836 9.38281" stroke="black" stroke-width="1.5" stroke-linecap="round" stroke-linejoin="round"/>
</svg>