<svg width="24" height="24" viewBox="0 0 24 24" fill="none" xmlns="http://www.w3.org/2000/svg">
<path d="M12 21.75C6.62 21.75 2.25 17.38 2.25 12C2.25 6.62 6.62 2.25 12 2.25C17.38 2.25 21.75 6.62 21.75 12C21.75 17.38 17.38 21.75 12 21.75ZM12 3.75C7.45 3.75 3.75 7.45 3.75 12C3.75 16.55 7.45 20.25 12 20.25C16.55 20.25 20.25 16.55 20.25 12C20.25 7.45 16.55 3.75 12 3.75Z" fill="black"/>
<path d="M12.8203 13.1388C12.4103 13.1388 12.0803 12.8188 12.0703 12.4088C12.0703 11.9988 12.3903 11.6488 12.8003 11.6388C13.2203 11.6388 13.5203 11.5888 13.7803 11.4888C14.1903 11.3388 14.5703 11.0588 14.9603 10.6288C15.3503 10.1888 15.7003 9.65882 16.0003 9.04882C16.1803 8.67882 16.6303 8.52885 17.0003 8.70885C17.3703 8.88885 17.5203 9.33885 17.3403 9.70885C16.9803 10.4389 16.5603 11.0788 16.0703 11.6188C15.5103 12.2388 14.9203 12.6589 14.2703 12.8989C13.7303 13.0889 13.2103 13.1288 12.8203 13.1288H12.8003L12.8203 13.1388Z" fill="black"/>
<path d="M16.68 16.1406C16.4 16.1406 16.14 15.9906 16.01 15.7206C15.71 15.1206 15.36 14.5906 14.97 14.1406C14.58 13.7106 14.19 13.4206 13.78 13.2806C13.52 13.1906 13.22 13.1506 12.81 13.1406H12.21C11.8 13.1406 11.46 12.8006 11.46 12.3906C11.46 11.9806 11.8 11.6406 12.21 11.6406H12.82C13.22 11.6406 13.74 11.6806 14.28 11.8706C14.93 12.1006 15.52 12.5206 16.08 13.1506C16.57 13.7006 17 14.3406 17.35 15.0706C17.53 15.4406 17.38 15.8906 17.01 16.0706C16.9 16.1206 16.79 16.1506 16.68 16.1506V16.1406Z" fill="black"/>
<path d="M12.2003 16.1289C8.27032 16.1289 6.57031 11.6589 6.57031 9.37891C6.57031 8.96891 6.91031 8.62891 7.32031 8.62891C7.73031 8.62891 8.07031 8.96891 8.07031 9.37891C8.07031 10.4389 8.90032 13.9589 11.4503 14.5489V10.1289H11.0003C10.5903 10.1289 10.2503 9.78891 10.2503 9.37891C10.2503 8.96891 10.5903 8.62891 11.0003 8.62891H12.2003C12.6103 8.62891 12.9503 8.96891 12.9503 9.37891V15.3789C12.9503 15.7889 12.6103 16.1289 12.2003 16.1289Z" fill="black"/>
</svg>