<svg width="24" height="24" viewBox="0 0 24 24" fill="none" xmlns="http://www.w3.org/2000/svg">
<path d="M12.0966 18.0956C10.1966 18.0956 8.18661 17.1556 6.56661 15.4756C5.56661 14.4956 4.84661 13.2756 4.15661 12.0956L3.98661 11.8056C3.26661 10.5156 2.76661 9.35559 2.42661 8.22559L2.39661 8.09558C2.27661 7.65558 2.10661 6.98562 2.45661 6.44562C2.58661 6.24562 2.83661 5.98558 3.30661 5.90558C3.33661 5.90558 3.37661 5.90558 3.40661 5.90558C3.85661 5.89558 4.30661 5.89563 4.75661 5.89563C5.02661 5.89563 5.30661 5.89563 5.58661 5.89563C6.79661 5.85563 7.15661 6.9156 7.34661 7.4856L7.39661 7.63562C7.80661 8.74562 8.44661 10.2956 9.39661 11.4256V9.03559C9.37661 8.78559 9.31661 8.3856 9.07661 8.1156C8.66661 7.6056 8.54661 7.04558 8.75661 6.59558C8.84661 6.39558 9.14661 5.92558 9.93661 5.90558H11.2066C11.8566 5.90558 12.4966 5.90558 13.1366 5.90558C13.1766 5.90558 13.2066 5.90558 13.2466 5.90558C13.7166 5.98558 14.2666 6.3056 14.2666 7.4256V10.6556C15.0866 9.67558 15.8066 8.46563 16.5266 6.83563C16.8066 6.23563 17.3566 5.89563 18.0466 5.89563H20.0566C20.7466 5.89563 21.0666 6.26559 21.1966 6.47559C21.6166 7.19559 21.1766 8.12562 20.7266 8.94562L20.6666 9.05561C20.0866 10.0856 19.4366 11.0456 18.8066 11.9856L18.5766 12.3356C18.5766 12.3356 18.6466 12.4256 18.6766 12.4556L18.7566 12.5556L19.2366 13.0456C20.0166 13.8456 20.8166 14.6856 21.4266 15.6956C21.7666 16.2656 21.8466 16.8656 21.6366 17.3256C21.4666 17.7156 21.1066 17.9756 20.6466 18.0656C20.6166 18.0656 20.5766 18.0756 20.5366 18.0756C20.2566 18.0856 19.9766 18.0856 19.6966 18.0856H18.9366C18.2666 18.0856 17.6866 18.0856 16.9166 17.4656C16.6466 17.1956 16.4466 16.9556 16.2366 16.7256C15.6166 16.0256 14.9866 15.2956 14.2666 14.9656C14.2666 15.2056 14.2666 15.4556 14.2666 15.6956C14.2666 16.0756 14.2666 16.4556 14.2566 16.8356C14.1966 17.4756 13.7166 17.9256 13.0266 18.0256C12.7266 18.0756 12.4066 18.1056 12.0966 18.1056V18.0956ZM3.76661 7.38562C3.78661 7.50562 3.82661 7.63558 3.84661 7.71558L3.87661 7.82562C4.17661 8.81562 4.63661 9.8856 5.28661 11.0556L5.45661 11.3356C6.10661 12.4256 6.77661 13.5656 7.64661 14.4156C9.19661 16.0256 11.1166 16.8156 12.7766 16.5356C12.7766 16.2756 12.7766 15.9856 12.7766 15.6956C12.7766 15.4056 12.7766 15.1056 12.7766 14.8156C12.7766 14.7756 12.7766 14.7356 12.7866 14.6956C12.8466 14.3756 12.9466 13.8256 13.4266 13.5456C13.8566 13.2856 14.3366 13.3956 14.6466 13.4956C15.8066 13.9556 16.6366 14.9056 17.3666 15.7356C17.5566 15.9556 17.7466 16.1756 17.9366 16.3756C18.2166 16.5956 18.3466 16.5956 18.9266 16.5956H19.7066C19.8666 16.5956 20.0366 16.5956 20.1966 16.5956C20.1766 16.5556 20.1566 16.5156 20.1366 16.4756C19.6166 15.6056 18.9066 14.8656 18.1466 14.0956L17.4966 13.3956C17.2366 13.0656 16.7466 12.4456 17.2666 11.5956L17.5666 11.1556C18.1766 10.2456 18.8166 9.30558 19.3566 8.34558L19.4166 8.2356C19.6366 7.8356 19.7566 7.57558 19.8166 7.40558H18.0566C17.9066 7.40558 17.9066 7.43558 17.8966 7.46558C17.1066 9.23558 16.3066 10.5856 15.3766 11.6756C14.6266 12.5656 14.0066 12.5856 13.6166 12.4456C13.2366 12.3056 12.7766 11.9156 12.7666 10.8156V7.40558C12.2466 7.40558 11.7266 7.40558 11.2066 7.40558H10.4066C10.6866 7.83558 10.8566 8.38561 10.8866 8.99561V11.5556V11.7456C10.8866 12.0156 10.8866 12.3356 10.8066 12.6656C10.6766 13.0556 10.4266 13.2956 10.1066 13.3856C9.56661 13.5356 9.06661 13.2056 8.80661 12.9956C7.35661 11.6156 6.49661 9.57558 5.97661 8.15558L5.91661 7.97559C5.85661 7.79559 5.74661 7.46558 5.66661 7.40558C5.31661 7.40558 5.02661 7.40558 4.74661 7.40558C4.41661 7.40558 4.08661 7.40558 3.75661 7.40558L3.76661 7.38562Z" fill="black"/>
</svg>