<svg width="24" height="24" viewBox="0 0 24 24" fill="none" xmlns="http://www.w3.org/2000/svg">
<path d="M3.43118 6.65511C4.15213 6.63427 4.87388 6.65191 5.59523 6.64549C6.33041 6.61513 6.48997 7.30856 6.69368 7.88942C7.27114 9.45973 8.07027 11.2452 9.30056 12.4159C9.49413 12.5775 9.95507 12.8648 10.0884 12.4768C10.165 12.1754 10.1437 11.8617 10.1477 11.5539C10.1473 10.7131 10.1485 9.87233 10.1469 9.03156C10.1185 8.52942 9.98023 8.01205 9.64681 7.62332C9.29721 7.19437 9.26393 6.66911 9.9626 6.64509C11.0178 6.65111 12.0734 6.63628 13.1285 6.65271C13.5101 6.71617 13.5198 7.12473 13.5189 7.42696C13.5189 8.54986 13.5189 9.67236 13.5189 10.7953C13.532 11.8979 14.0531 12.0706 14.8025 11.1848C15.8204 9.97973 16.5742 8.57671 17.2138 7.14162C17.3743 6.79321 17.6891 6.64413 18.0553 6.64549C18.7242 6.6463 19.393 6.64509 20.0623 6.6463C21.2161 6.64842 20.2612 8.23082 20.009 8.70294C19.375 9.83426 18.636 10.9019 17.9139 11.9771C17.64 12.4269 17.8731 12.646 18.1611 13.0162C19.0857 13.997 20.0793 14.9238 20.7816 16.09C21.0602 16.5553 21.1704 17.2102 20.5039 17.3371C20.09 17.3555 19.6752 17.3415 19.2608 17.3459C18.4212 17.3385 18.0438 17.4261 17.3993 16.8951C16.5338 15.9826 15.6391 14.6982 14.4217 14.2165C13.7491 13.9998 13.6311 14.2654 13.5221 14.8408C13.508 15.4961 13.5337 16.1525 13.5088 16.8073C13.4788 17.0991 13.1762 17.2445 12.9181 17.2838C10.7373 17.6567 8.58728 16.4917 7.11287 14.9643C6.09118 13.9565 5.36053 12.6571 4.63343 11.4321C4.0287 10.3472 3.50291 9.2127 3.14865 8.02047C3.0387 7.58432 2.76807 6.76684 3.43118 6.65511Z" stroke="black" stroke-width="1.5" stroke-linecap="round" stroke-linejoin="round"/>
</svg>