<svg width="24" height="24" viewBox="0 0 24 24" fill="none" xmlns="http://www.w3.org/2000/svg">
<path d="M7.78216 3H16.2169C19.165 3 21 5.08119 21 8.02638V15.9736C21 18.9188 19.165 21 16.2159 21H7.78216C4.83405 21 3 18.9188 3 15.9736V8.02638C3 5.08119 4.84281 3 7.78216 3Z" stroke="black" stroke-width="1.5" stroke-linecap="round" stroke-linejoin="round"/>
<path d="M16.9246 8.98438C16.5986 9.64737 16.1956 10.2754 15.7046 10.8264C15.2656 11.3184 14.7506 11.7324 14.1286 11.9584C13.7086 12.1064 13.2816 12.1474 12.8496 12.1594" stroke="black" stroke-width="1.5" stroke-linecap="round" stroke-linejoin="round"/>
<path d="M16.9246 15.3286C16.5986 14.6656 16.1956 14.0376 15.7046 13.4866C15.2656 13.0006 14.7506 12.5806 14.1286 12.3546C13.7086 12.2066 13.2816 12.1662 12.8496 12.1602H12.2148" stroke="black" stroke-width="1.5" stroke-linecap="round" stroke-linejoin="round"/>
<path d="M10.928 8.98828H12.195V15.3223H12.193C8.41102 15.3223 7.04102 10.7313 7.04102 8.98828" stroke="black" stroke-width="1.5" stroke-linecap="round" stroke-linejoin="round"/>
</svg>