<svg width="24" height="24" viewBox="0 0 24 24" fill="none" xmlns="http://www.w3.org/2000/svg">
<path fill-rule="evenodd" clip-rule="evenodd" d="M12.0001 4.25C11.4719 4.25 11.0017 4.5844 10.8283 5.08328L10.8277 5.08478L7.57141 14.3898L7.57095 14.3911C7.35398 15.0074 7.64495 15.6871 8.24039 15.9556C10.6349 17.0148 13.3652 17.0148 15.7597 15.9556C16.3552 15.6871 16.6461 15.0074 16.4292 14.3911L16.4287 14.3898L13.1719 5.08327C12.9985 4.58439 12.5282 4.25 12.0001 4.25ZM9.41166 4.59007C9.79493 3.48839 10.8336 2.75 12.0001 2.75C13.1666 2.75 14.2052 3.48841 14.5885 4.59012C14.5884 4.58989 14.5886 4.59034 14.5885 4.59012L17.844 13.893C17.844 13.8927 17.8441 13.8932 17.844 13.893C18.3197 15.2452 17.6803 16.7373 16.3727 17.3247L16.3689 17.3264C13.5865 18.5579 10.4136 18.5578 7.63122 17.3264L7.62745 17.3247C6.31979 16.7373 5.6802 15.2461 6.15577 13.8938C6.15567 13.8941 6.15587 13.8935 6.15577 13.8938L9.41166 4.59007C9.41175 4.58982 9.41157 4.59031 9.41166 4.59007Z" fill="black"/>
<path fill-rule="evenodd" clip-rule="evenodd" d="M7.11318 11.2201C7.32386 10.8634 7.78376 10.7451 8.14039 10.9558C10.6122 12.4161 13.4077 12.4493 15.8577 10.9606C16.2117 10.7455 16.673 10.8581 16.8881 11.2121C17.1032 11.5661 16.9906 12.0274 16.6366 12.2425C13.6941 14.0304 10.3055 13.9771 7.37742 12.2473C7.02079 12.0366 6.90249 11.5767 7.11318 11.2201Z" fill="black"/>
<path fill-rule="evenodd" clip-rule="evenodd" d="M8.5639 7.08028C8.75042 6.71044 9.20144 6.56183 9.57129 6.74835C11.1701 7.55466 12.8299 7.55711 14.428 6.74875C14.7976 6.56179 15.2488 6.70987 15.4358 7.07949C15.6227 7.4491 15.4747 7.9003 15.105 8.08726C13.0797 9.11171 10.9179 9.10745 8.89584 8.08767C8.52599 7.90115 8.37738 7.45013 8.5639 7.08028Z" fill="black"/>
<path fill-rule="evenodd" clip-rule="evenodd" d="M2.92824 15.7445C3.26555 14.5639 4.34461 13.75 5.57243 13.75H6.76134C7.17556 13.75 7.51134 14.0858 7.51134 14.5C7.51134 14.9142 7.17556 15.25 6.76134 15.25H5.57243C5.01433 15.25 4.52385 15.62 4.37053 16.1566L4.37052 16.1566L3.79909 18.1566C3.69134 18.5337 3.76686 18.9396 4.00307 19.2527C4.23927 19.5659 4.60876 19.75 5.001 19.75H18.9986C19.3908 19.75 19.7603 19.5659 19.9965 19.2527C20.2327 18.9396 20.3082 18.5337 20.2005 18.1566L20.9216 17.9506L20.2005 18.1566L19.629 16.1566C19.4757 15.62 18.9852 15.25 18.4271 15.25H17.2257C16.8114 15.25 16.4757 14.9142 16.4757 14.5C16.4757 14.0858 16.8114 13.75 17.2257 13.75H18.4271C19.6549 13.75 20.734 14.5639 21.0713 15.7445L20.3502 15.9506L21.0713 15.7445L21.6428 17.7445C21.8798 18.5742 21.7137 19.4671 21.194 20.156C20.6744 20.845 19.8615 21.25 18.9986 21.25H5.001C4.13808 21.25 3.32519 20.845 2.80554 20.156C2.28589 19.4671 2.11975 18.5742 2.35681 17.7445L3.07795 17.9506L2.35681 17.7445L2.92824 15.7445C2.92824 15.7445 2.92824 15.7445 2.92824 15.7445Z" fill="black"/>
</svg>