<svg width="24" height="24" viewBox="0 0 24 24" fill="none" xmlns="http://www.w3.org/2000/svg">
<path fill-rule="evenodd" clip-rule="evenodd" d="M13.8801 4.83703L17.1365 14.142C17.4831 15.1267 17.0175 16.2128 16.0652 16.6405C13.4761 17.7865 10.5237 17.7865 7.93462 16.6405C6.98237 16.2128 6.51671 15.1267 6.86336 14.142L10.1197 4.83704C10.3979 4.03656 11.1525 3.5 11.9999 3.5C12.8474 3.5 13.6019 4.03655 13.8801 4.83703Z" stroke="black" stroke-width="1.5" stroke-linecap="round" stroke-linejoin="round"/>
<path d="M16.2471 11.6016C13.5508 13.2399 10.4587 13.1966 7.75879 11.6016" stroke="black" stroke-width="1.5" stroke-linecap="round" stroke-linejoin="round"/>
<path d="M14.7664 7.41797C12.9546 8.33437 11.0438 8.33101 9.2334 7.41797" stroke="black" stroke-width="1.5" stroke-linecap="round" stroke-linejoin="round"/>
<path d="M6.76134 14.5H5.57243C4.67946 14.5 3.89469 15.092 3.64938 15.9506L3.07795 17.9506C2.90554 18.554 3.02637 19.2034 3.4043 19.7044C3.78222 20.2054 4.37341 20.5 5.001 20.5H18.9986C19.6261 20.5 20.2173 20.2054 20.5953 19.7044C20.9732 19.2034 21.094 18.554 20.9216 17.9506L20.3502 15.9505C20.1049 15.0919 19.3201 14.5 18.4271 14.5H17.2257" stroke="black" stroke-width="1.5" stroke-linecap="round" stroke-linejoin="round"/>
</svg>