<svg width="25" height="25" viewBox="0 0 25 25" fill="none" xmlns="http://www.w3.org/2000/svg">
<path fill-rule="evenodd" clip-rule="evenodd" d="M13.7438 9.64251H10.7538C10.3438 9.64251 10.0038 9.30251 10.0038 8.89251C10.0038 8.48251 10.3438 8.14251 10.7538 8.14251H13.7438C14.1538 8.14251 14.4938 8.48251 14.4938 8.89251C14.4938 9.30251 14.1538 9.64251 13.7438 9.64251ZM11.7438 5.37251H12.7538C13.1638 5.37251 13.5038 5.71251 13.5038 6.12251C13.5038 6.53251 13.1638 6.87251 12.7538 6.87251H11.7438C11.3338 6.87251 10.9938 6.53251 10.9938 6.12251C10.9938 5.71251 11.3338 5.37251 11.7438 5.37251ZM12.2538 2.95251C9.00382 2.95251 6.36382 5.59251 6.36382 8.84251V10.9825C6.36382 11.2625 6.58382 11.4825 6.86382 11.4825H17.6338C17.9138 11.4825 18.1338 11.2625 18.1338 10.9825V8.84251C18.1338 5.59251 15.4938 2.95251 12.2538 2.95251Z" fill="black"/>
<path fill-rule="evenodd" clip-rule="evenodd" d="M19.0279 13.3245H5.47192C5.05792 13.3245 4.72192 13.6605 4.72192 14.0745C4.72192 14.4885 5.05792 14.8245 5.47192 14.8245H6.41692C6.75592 17.4695 8.85392 19.5685 11.4999 19.9065V21.5055C11.4999 21.9195 11.8359 22.2555 12.2499 22.2555C12.6639 22.2555 12.9999 21.9195 12.9999 21.5055V19.9075C15.6459 19.5685 17.7439 17.4695 18.0829 14.8245H19.0279C19.4419 14.8245 19.7779 14.4885 19.7779 14.0745C19.7779 13.6605 19.4419 13.3245 19.0279 13.3245Z" fill="black"/>
</svg>