<?xml version="1.0" encoding="UTF-8"?>
<svg width="24px" height="24px" viewBox="0 0 24 24" version="1.1" xmlns="http://www.w3.org/2000/svg" xmlns:xlink="http://www.w3.org/1999/xlink">
    <title>Iconly/Light-Outline/Voice 2</title>
    <g id="Iconly/Light-Outline/Voice-2" stroke="none" stroke-width="1" fill="none" fill-rule="evenodd">
        <g id="Voice-2" transform="translate(3.000000, 1.000000)" fill="#000000">
            <path d="M16.75,8.8009 C17.164,8.8009 17.5,9.1369 17.5,9.5509 C17.5,14.1430846 13.9753863,17.9234856 9.50030497,18.3068946 L9.5,20.75 C9.5,21.164 9.164,21.5 8.75,21.5 C8.336,21.5 8,21.164 8,20.75 L8.00069106,18.3069798 C3.52513666,17.9240465 0,14.1434253 0,9.5509 C0,9.1369 0.336,8.8009 0.75,8.8009 C1.164,8.8009 1.5,9.1369 1.5,9.5509 C1.5,13.5689 4.752,16.8389 8.75,16.8389 C12.748,16.8389 16,13.5689 16,9.5509 C16,9.1369 16.336,8.8009 16.75,8.8009 Z M8.75,-6.75015599e-14 C11.403,-6.75015599e-14 13.561,2.167 13.561,4.831 L13.561,9.519 C13.561,12.182 11.403,14.349 8.75,14.349 C6.097,14.349 3.938,12.182 3.938,9.519 L3.938,4.831 C3.938,2.167 6.097,-6.75015599e-14 8.75,-6.75015599e-14 Z M8.75,1.5 C6.924,1.5 5.438,2.994 5.438,4.831 L5.438,9.519 C5.438,11.354 6.924,12.849 8.75,12.849 C10.5510137,12.849 12.0202958,11.3946341 12.0601688,9.59413446 L9.8205,9.5938 C9.4065,9.5938 9.0705,9.2578 9.0705,8.8438 C9.0705,8.4298 9.4065,8.0938 9.8205,8.0938 L12.06,8.093 L12.06,6.255 L10.8186,6.2559 C10.4046,6.2559 10.0686,5.9199 10.0686,5.5059 C10.0686,5.0919 10.4046,4.7559 10.8186,4.7559 L12.058,4.755 L12.0557496,4.64223625 C11.9581807,2.89274197 10.5130345,1.5 8.75,1.5 Z" id="Combined-Shape"></path>
        </g>
    </g>
</svg>