<svg width="25" height="26" viewBox="0 0 25 26" fill="none" xmlns="http://www.w3.org/2000/svg">
<path fill-rule="evenodd" clip-rule="evenodd" d="M13.0381 7.18805H16.6905V8.68805H13.0381V7.18805Z" fill="black"/>
<path fill-rule="evenodd" clip-rule="evenodd" d="M11.958 10.7989H16.6928V12.2989H11.958V10.7989Z" fill="black"/>
<path fill-rule="evenodd" clip-rule="evenodd" d="M12.998 19.0826V23.354H11.498V19.0826H12.998Z" fill="black"/>
<path fill-rule="evenodd" clip-rule="evenodd" d="M12.2482 4.354C10.6249 4.354 9.30273 5.67734 9.30273 7.31664V12.4906C9.30273 14.1297 10.6247 15.4523 12.2482 15.4523C13.8726 15.4523 15.1937 14.1298 15.1937 12.4906V7.31664C15.1937 5.67722 13.8723 4.354 12.2482 4.354ZM7.80273 7.31664C7.80273 4.85547 9.78997 2.854 12.2482 2.854C14.7075 2.854 16.6937 4.8556 16.6937 7.31664V12.4906C16.6937 14.9519 14.7073 16.9523 12.2482 16.9523C9.79022 16.9523 7.80273 14.952 7.80273 12.4906V7.31664Z" fill="black"/>
<path fill-rule="evenodd" clip-rule="evenodd" d="M5.72168 11.7702V12.5202C5.72168 16.1476 8.64726 19.0825 12.2492 19.0825C15.8522 19.0825 18.7777 16.1475 18.7777 12.5202V11.7702H20.2777V12.5202C20.2777 16.9693 16.6873 20.5825 12.2492 20.5825C7.81203 20.5825 4.22168 16.9692 4.22168 12.5202V11.7702H5.72168Z" fill="black"/>
</svg>