<?xml version="1.0" encoding="UTF-8"?>
<svg width="24px" height="24px" viewBox="0 0 24 24" version="1.1" xmlns="http://www.w3.org/2000/svg" xmlns:xlink="http://www.w3.org/1999/xlink">
    <title>Iconly/Light-Outline/Voice</title>
    <g id="Iconly/Light-Outline/Voice" stroke="none" stroke-width="1" fill="none" fill-rule="evenodd">
        <g id="Voice" transform="translate(3.000000, 1.000000)" fill="#000000">
            <path d="M16.7495,8.8009 C17.1645,8.8009 17.4995,9.1369 17.4995,9.5509 C17.4995,14.1430846 13.9748863,17.9234856 9.49980497,18.3068946 L9.4995,20.75 C9.4995,21.164 9.1635,21.5 8.7495,21.5 C8.3355,21.5 7.9995,21.164 7.9995,20.75 L8.00019106,18.3069798 C3.52463666,17.9240465 -0.0005,14.1434253 -0.0005,9.5509 C-0.0005,9.1369 0.3355,8.8009 0.7495,8.8009 C1.1645,8.8009 1.4995,9.1369 1.4995,9.5509 C1.4995,13.5689 4.7515,16.8389 8.7495,16.8389 C12.7475,16.8389 15.9995,13.5689 15.9995,9.5509 C15.9995,9.1369 16.3355,8.8009 16.7495,8.8009 Z M8.7495,-6.75015599e-14 C11.4025,-6.75015599e-14 13.5615,2.167 13.5615,4.831 L13.5615,9.519 C13.5615,12.182 11.4025,14.349 8.7495,14.349 C6.0965,14.349 3.9375,12.182 3.9375,9.519 L3.9375,4.831 C3.9375,2.167 6.0965,-6.75015599e-14 8.7495,-6.75015599e-14 Z M8.7495,1.5 C6.9235,1.5 5.4375,2.994 5.4375,4.831 L5.4375,9.519 C5.4375,11.354 6.9235,12.849 8.7495,12.849 C10.5755,12.849 12.0615,11.354 12.0615,9.519 L12.0615,4.831 C12.0615,2.994 10.5755,1.5 8.7495,1.5 Z" id="Combined-Shape"></path>
        </g>
    </g>
</svg>