<svg width="25" height="25" viewBox="0 0 25 25" fill="none" xmlns="http://www.w3.org/2000/svg">
<path fill-rule="evenodd" clip-rule="evenodd" d="M11.9601 10.177V11.677H16.4401V11.867C16.4401 14.187 14.5601 16.077 12.2501 16.077C9.93012 16.077 8.05012 14.187 8.05012 11.867V6.69699C8.05012 4.36699 9.93012 2.47699 12.2501 2.47699C14.5201 2.47699 16.3701 4.29699 16.4301 6.56699H13.0401V8.06699H16.4401V10.177H11.9601Z" fill="black"/>
<path fill-rule="evenodd" clip-rule="evenodd" d="M18.7779 11.147V11.897C18.7779 15.516 15.8489 18.46 12.2489 18.46C8.64992 18.46 5.72192 15.516 5.72192 11.897V11.147H4.22192V11.897C4.22192 16.088 7.42292 19.54 11.4979 19.922V22.731H12.9979V19.922C17.0749 19.541 20.2779 16.089 20.2779 11.897V11.147H18.7779Z" fill="black"/>
</svg>