<svg width="25" height="25" viewBox="0 0 25 25" fill="none" xmlns="http://www.w3.org/2000/svg">
<path fill-rule="evenodd" clip-rule="evenodd" d="M19.0279 13.3245H5.47192C5.05792 13.3245 4.72192 13.6605 4.72192 14.0745C4.72192 14.4885 5.05792 14.8245 5.47192 14.8245H6.41692C6.75592 17.4695 8.85392 19.5685 11.4999 19.9065V21.5055C11.4999 21.9195 11.8359 22.2555 12.2499 22.2555C12.6639 22.2555 12.9999 21.9195 12.9999 21.5055V19.9075C15.6459 19.5685 17.7439 17.4695 18.0829 14.8245H19.0279C19.4419 14.8245 19.7779 14.4885 19.7779 14.0745C19.7779 13.6605 19.4419 13.3245 19.0279 13.3245Z" fill="black"/>
<path opacity="0.4" fill-rule="evenodd" clip-rule="evenodd" d="M12.2535 2.95245C9.00353 2.95245 6.36353 5.59245 6.36353 8.84245V10.9825C6.36353 11.2625 6.58353 11.4825 6.86353 11.4825H17.6335C17.9135 11.4825 18.1335 11.2625 18.1335 10.9825V8.84245C18.1335 5.59245 15.4935 2.95245 12.2535 2.95245Z" fill="black"/>
<path d="M10.7532 9.64238H13.7432C14.1532 9.64238 14.4932 9.30238 14.4932 8.89238C14.4932 8.48238 14.1532 8.14238 13.7432 8.14238H10.7532C10.3432 8.14238 10.0032 8.48238 10.0032 8.89238C10.0032 9.30238 10.3432 9.64238 10.7532 9.64238Z" fill="black"/>
<path d="M12.7532 5.37238H11.7432C11.3332 5.37238 10.9932 5.71238 10.9932 6.12238C10.9932 6.53238 11.3332 6.87238 11.7432 6.87238H12.7532C13.1632 6.87238 13.5032 6.53238 13.5032 6.12238C13.5032 5.71238 13.1632 5.37238 12.7532 5.37238Z" fill="black"/>
</svg>