<svg width="25" height="25" viewBox="0 0 25 25" fill="none" xmlns="http://www.w3.org/2000/svg">
<path fill-rule="evenodd" clip-rule="evenodd" d="M19.384 13.4069H5.11597C4.70197 13.4069 4.36597 13.7429 4.36597 14.1569C4.36597 14.5709 4.70197 14.9069 5.11597 14.9069H6.13097C6.47297 17.7089 8.69797 19.9339 11.5 20.2759V21.9789C11.5 22.3929 11.836 22.7289 12.25 22.7289C12.664 22.7289 13 22.3929 13 21.9789V20.2759C15.803 19.9339 18.027 17.7089 18.369 14.9069H19.384C19.798 14.9069 20.134 14.5709 20.134 14.1569C20.134 13.7429 19.798 13.4069 19.384 13.4069Z" fill="black"/>
<path opacity="0.4" fill-rule="evenodd" clip-rule="evenodd" d="M6.57983 11.4021H17.9188C18.1958 11.4021 18.4188 11.1781 18.4188 10.9021V8.64813C18.4188 5.24713 15.6518 2.47913 12.2488 2.47913C8.84783 2.47913 6.07983 5.24713 6.07983 8.64813V10.9021C6.07983 11.1781 6.30383 11.4021 6.57983 11.4021Z" fill="black"/>
</svg>