<svg width="25" height="24" viewBox="0 0 25 24" fill="none" xmlns="http://www.w3.org/2000/svg">
<path d="M21.2459 10.3273L17.9013 13.6709M21.2498 13.6755L17.9004 10.3262" stroke="black" stroke-width="1.5" stroke-linecap="round" stroke-linejoin="round"/>
<path d="M3.34171 9.65164C3.43721 8.98716 3.6305 8.40742 4.01971 8.08218C4.79899 7.4339 5.26329 7.60054 6.68025 7.49555C7.05978 7.49555 7.50481 7.38862 7.8275 7.18634L10.6046 5.45053C12.271 4.40924 14.3055 5.65956 14.4239 7.60054C14.6378 10.5337 14.6378 13.4668 14.4239 16.4C14.3218 18.3381 12.271 19.5913 10.6046 18.55L7.8275 16.8142C7.50481 16.6119 7.06556 16.505 6.68507 16.505C5.26136 16.3981 4.80477 16.5657 4.01971 15.9183C3.3814 15.3837 3.27022 14.1614 3.25293 13.005" stroke="black" stroke-width="1.5" stroke-linecap="round" stroke-linejoin="round"/>
</svg>