<svg width="25" height="25" viewBox="0 0 25 25" fill="none" xmlns="http://www.w3.org/2000/svg">
<path fill-rule="evenodd" clip-rule="evenodd" d="M18.8428 7.47162L19.2154 8.12251C20.7724 10.8425 20.773 14.1668 19.2149 16.8802L18.8414 17.5306L17.5406 16.7837L17.9141 16.1333C19.2062 13.8831 19.2068 11.1268 17.9136 8.86773L17.541 8.21683L18.8428 7.47162Z" fill="black"/>
<path fill-rule="evenodd" clip-rule="evenodd" d="M13.0956 4.2373H14.9009V20.7627H13.0956L8.96968 17.1863H4.1192L4.11858 16.437C4.11644 13.8124 4.11644 11.1878 4.11858 8.56316L4.1192 7.81378H8.96967L13.0956 4.2373ZM13.4009 5.95769L9.5293 9.31378H5.61803C5.61662 11.438 5.61662 13.5622 5.61803 15.6863H9.52929L13.4009 19.0423V5.95769Z" fill="black"/>
</svg>