<svg width="25" height="24" viewBox="0 0 25 24" fill="none" xmlns="http://www.w3.org/2000/svg">
<path opacity="0.4" fill-rule="evenodd" clip-rule="evenodd" d="M14.1769 5.26128C12.5029 4.26628 10.9649 5.44528 9.84288 6.30528C9.38388 6.65728 8.94988 6.98828 8.62088 7.09628C8.17488 7.24328 7.78788 7.29028 7.41488 7.33428C6.76088 7.41228 6.08588 7.49328 5.34588 8.12128C4.15788 9.13028 4.16088 10.7233 4.16388 12.0043C4.16088 13.2843 4.15788 14.8773 5.34688 15.8883C6.08788 16.5173 6.76388 16.5973 7.41788 16.6753C7.79088 16.7203 8.17688 16.7663 8.62188 16.9113C8.94888 17.0203 9.38188 17.3523 9.83988 17.7023C10.6549 18.3273 11.6869 19.1183 12.8449 19.1183C13.2839 19.1183 13.7409 19.0053 14.2109 18.7263C15.5509 17.7763 16.0249 16.0173 16.0249 12.0043C16.0249 7.94228 15.5679 6.24528 14.1769 5.26128Z" fill="black"/>
<path fill-rule="evenodd" clip-rule="evenodd" d="M19.3104 7.98999C19.1104 7.62699 18.6534 7.49599 18.2914 7.69599C17.9284 7.89499 17.7964 8.35199 17.9974 8.71499C19.1184 10.748 19.1184 13.269 17.9974 15.295C17.7964 15.657 17.9284 16.114 18.2904 16.314C18.4054 16.378 18.5304 16.408 18.6534 16.408C18.9164 16.408 19.1734 16.268 19.3104 16.021C20.6784 13.549 20.6784 10.47 19.3104 7.98999Z" fill="black"/>
</svg>