<svg width="24" height="24" viewBox="0 0 24 24" fill="none" xmlns="http://www.w3.org/2000/svg">
<path d="M13.35 20.6727C12.74 20.6727 12.132 20.4987 11.575 20.1497L8.29902 18.1027C8.02002 17.9267 7.59502 17.8147 7.21702 17.8147C6.83739 17.7865 6.53815 17.7749 6.27705 17.7647L6.20102 17.7617C5.23644 17.7267 4.59679 17.7035 3.75402 17.0077C2.65402 16.0857 2.65902 13.9917 2.66402 12.3097L2.66502 11.9997L2.66402 11.6827C2.65902 10.0027 2.65302 7.91173 3.75102 6.99373C4.59284 6.29388 5.23475 6.27074 6.2054 6.23575L6.22999 6.23487C6.50128 6.22509 6.81076 6.21393 7.17402 6.18673C7.56202 6.15573 8.01002 6.07773 8.29902 5.89773L11.575 3.84973C12.604 3.20773 13.805 3.15473 14.874 3.70473C16.01 4.28973 16.765 5.46773 16.845 6.77873C17.096 10.2417 17.096 13.7577 16.845 17.2267C16.777 18.5197 16.03 19.6957 14.896 20.2857C14.399 20.5447 13.873 20.6727 13.35 20.6727Z" fill="black"/>
<path d="M19.8367 15.6825C19.8367 16.0965 20.1727 16.4325 20.5867 16.4325C21.0007 16.4325 21.3367 16.0965 21.3367 15.6825V8.31348C21.3367 7.89948 21.0007 7.56348 20.5867 7.56348C20.1727 7.56348 19.8367 7.89948 19.8367 8.31348V15.6825Z" fill="black"/>
</svg>