<svg width="25" height="24" viewBox="0 0 25 24" fill="none" xmlns="http://www.w3.org/2000/svg">
<path opacity="0.4" d="M19.4357 5.77454C21.9293 9.49454 21.9366 14.4036 19.4357 18.1318" stroke="black" stroke-width="1.5" stroke-linecap="round" stroke-linejoin="round"/>
<path opacity="0.4" d="M16.9889 8.21729C18.2707 10.54 18.2707 13.3746 16.9889 15.6891" stroke="black" stroke-width="1.5" stroke-linecap="round" stroke-linejoin="round"/>
<path fill-rule="evenodd" clip-rule="evenodd" d="M2.68225 11.953C2.67952 13.1993 2.68225 14.6611 3.71134 15.5348C4.74134 16.4093 5.5577 16.0484 6.88952 16.4866C8.22225 16.9257 10.0886 19.633 12.1504 18.4102C13.265 17.6184 13.7904 16.1239 13.7904 11.953C13.7904 7.78204 13.2886 6.30386 12.1504 5.49568C10.0886 4.27386 8.22225 6.98113 6.88952 7.41932C5.5577 7.85841 4.74134 7.4975 3.71134 8.37113C2.68225 9.24477 2.67952 10.7066 2.68225 11.953Z" stroke="black" stroke-width="1.5" stroke-linecap="round" stroke-linejoin="round"/>
</svg>