<svg width="25" height="24" viewBox="0 0 25 24" fill="none" xmlns="http://www.w3.org/2000/svg">
<path fill-rule="evenodd" clip-rule="evenodd" d="M10.9297 6.15188C10.9297 6.1519 10.9297 6.15186 10.9297 6.15188L8.18092 7.86999C8.18075 7.8701 8.1811 7.86988 8.18092 7.86999C7.73077 8.152 7.16015 8.2853 6.67626 8.29052C6.35252 8.31397 6.07672 8.32386 5.8465 8.3321C5.82351 8.33293 5.80098 8.33373 5.7789 8.33454C5.52132 8.3439 5.34412 8.35234 5.19262 8.3727C4.94695 8.40572 4.77058 8.46649 4.49273 8.69748C4.31982 8.84244 4.15207 9.20906 4.06724 9.90402C3.99746 10.4757 3.99913 11.1082 4.00075 11.7244C4.00099 11.8169 4.00123 11.909 4.00123 12.0005C4.00123 12.0895 4.00101 12.1792 4.00079 12.2692C3.99926 12.8878 3.99768 13.5235 4.06793 14.0976C4.1528 14.7911 4.31996 15.1582 4.49213 15.3039C4.77291 15.5349 4.94965 15.5953 5.19451 15.6281C5.34607 15.6485 5.52321 15.6569 5.78137 15.6665C5.80212 15.6672 5.82327 15.668 5.84483 15.6688C6.07641 15.6772 6.35426 15.6874 6.68143 15.7114C7.16772 15.7167 7.7318 15.8505 8.18061 16.1317C8.18072 16.1318 8.18051 16.1317 8.18061 16.1317L10.9286 17.8499C12.0203 18.5317 13.489 17.7565 13.564 16.3182L13.565 16.3028C13.7741 13.4348 13.7741 10.5671 13.565 7.69918L13.5643 7.68997C13.4763 6.23612 12.0149 5.47385 10.9297 6.15188ZM15.0613 7.59392C14.9131 5.20696 12.348 3.49692 10.1348 4.8798L7.38505 6.59854C7.20548 6.71111 6.90792 6.79068 6.64664 6.79068C6.62814 6.79068 6.60966 6.79137 6.59122 6.79273C6.28607 6.81534 6.02852 6.82459 5.79122 6.83312C5.76877 6.83392 5.7465 6.83472 5.72439 6.83553C5.47708 6.84452 5.22806 6.85445 4.99281 6.88607C4.46519 6.95698 4.026 7.13457 3.53269 7.54495L3.53141 7.54602C2.88046 8.08998 2.66792 8.98802 2.57829 9.72228C2.49621 10.3947 2.49864 11.1315 2.50065 11.7388C2.50095 11.8291 2.50123 11.9165 2.50123 12.0005C2.50123 12.0827 2.50097 12.1683 2.50069 12.2566C2.49878 12.8657 2.49646 13.605 2.57904 14.2798C2.66888 15.014 2.88141 15.9115 3.53076 16.4554L3.53521 16.4591C4.0302 16.8672 4.46782 17.0441 4.99497 17.1148C5.22981 17.1463 5.47858 17.1563 5.72595 17.1654C5.74654 17.1662 5.76727 17.167 5.78815 17.1677C6.02689 17.1765 6.28664 17.186 6.59524 17.2091C6.61393 17.2105 6.63266 17.2112 6.65141 17.2112C6.9118 17.2112 7.20332 17.2895 7.38422 17.4029L10.1337 19.122C12.3414 20.5007 14.9309 18.7999 15.0615 16.4046C15.2753 13.4677 15.2752 10.5307 15.0613 7.59392Z" fill="black"/>
<path fill-rule="evenodd" clip-rule="evenodd" d="M18.5525 7.52526C18.8123 7.40034 19.1207 7.43537 19.3458 7.61537L21.7188 9.51241C21.8968 9.65471 22.0005 9.87023 22.0005 10.0981C22.0005 10.326 21.8969 10.5416 21.719 10.6839L20.0759 11.9981L21.719 13.3123C21.8968 13.4546 22.0004 13.6699 22.0005 13.8977C22.0006 14.1254 21.8972 14.3408 21.7195 14.4833L19.3466 16.3851C19.1215 16.5654 18.8129 16.6008 18.5529 16.4759C18.2929 16.3511 18.1275 16.0882 18.1275 15.7998V13.5587L17.3665 14.1665C17.0428 14.425 16.5709 14.3721 16.3124 14.0484C16.0539 13.7247 16.1068 13.2528 16.4305 12.9943L17.6765 11.9993L16.4298 11.0013C16.1064 10.7425 16.0541 10.2705 16.313 9.94713C16.5718 9.62376 17.0438 9.57146 17.3672 9.83031L18.1275 10.439V8.20118C18.1275 7.91292 18.2927 7.65017 18.5525 7.52526ZM19.6275 13.5603L20.0505 13.8986L19.6275 14.2376V13.5603ZM19.6275 10.4359V9.76096L20.0496 10.0984L19.6275 10.4359Z" fill="black"/>
</svg>