<svg width="24" height="24" viewBox="0 0 24 24" fill="none" xmlns="http://www.w3.org/2000/svg">
<path fill-rule="evenodd" clip-rule="evenodd" d="M6.43038 7.49557C6.80991 7.49557 7.25494 7.38865 7.57764 7.18636L10.3548 5.45054C12.0212 4.40924 14.0557 5.65957 14.1732 7.60057C14.387 10.5337 14.387 13.4669 14.1732 16.4001C14.072 18.3382 12.0212 19.5914 10.3538 18.5501L7.57764 16.8143C7.25494 16.612 6.81569 16.5051 6.43519 16.5051C5.01147 16.3982 4.55488 16.5658 3.76981 15.9185C2.93947 15.223 3.00112 13.3638 3.00112 11.9998C3.00112 10.6368 2.93754 8.77769 3.76981 8.08221C4.5491 7.43392 5.0134 7.60057 6.43038 7.49557Z" stroke="black" stroke-width="1.5" stroke-linecap="round" stroke-linejoin="round"/>
<path d="M20.9997 11.998H17.2988" stroke="black" stroke-width="1.5" stroke-linecap="round" stroke-linejoin="round"/>
</svg>