<svg width="24" height="24" viewBox="0 0 24 24" fill="none" xmlns="http://www.w3.org/2000/svg">
<path d="M18.6559 8.63464C19.9092 10.9058 19.9092 13.6773 18.6559 15.9404" stroke="black" stroke-width="1.5" stroke-linecap="round" stroke-linejoin="round"/>
<path fill-rule="evenodd" clip-rule="evenodd" d="M4.66723 12.2873C4.66367 13.506 4.66723 14.9353 5.67345 15.7896C6.67967 16.6447 7.47878 16.2918 8.781 16.7202C10.0841 17.1496 11.909 19.7967 13.925 18.6011C15.0148 17.8269 15.5286 16.3656 15.5286 12.2873C15.5286 8.20912 15.0379 6.76379 13.925 5.97357C11.909 4.7789 10.0841 7.42601 8.781 7.85445C7.47878 8.28379 6.67967 7.9309 5.67345 8.78512C4.66723 9.63934 4.66367 11.0687 4.66723 12.2873Z" stroke="black" stroke-width="1.5" stroke-linecap="round" stroke-linejoin="round"/>
</svg>