<svg width="25" height="24" viewBox="0 0 25 24" fill="none" xmlns="http://www.w3.org/2000/svg">
<path fill-rule="evenodd" clip-rule="evenodd" d="M15.4267 12.8707C15.2387 12.7877 15.0187 12.8287 14.8727 12.9747L10.3637 17.4847C10.2587 17.5907 10.2057 17.7377 10.2197 17.8867C10.2337 18.0347 10.3137 18.1687 10.4367 18.2527C10.9817 18.6207 11.7117 19.0277 12.5447 19.0277C12.9797 19.0277 13.4437 18.9167 13.9237 18.6307C15.1067 17.7897 15.6117 16.3087 15.7257 13.3487C15.7347 13.1417 15.6147 12.9527 15.4267 12.8707Z" fill="black"/>
<path fill-rule="evenodd" clip-rule="evenodd" d="M20.4628 3.79739C20.1698 3.50439 19.6948 3.50439 19.4018 3.79739L15.4428 7.75739C15.1728 6.46139 14.6948 5.64639 13.8878 5.07739C12.2038 4.08339 10.6588 5.26939 9.53076 6.13439C9.06976 6.48839 8.63476 6.82239 8.30676 6.93039C7.85776 7.07739 7.46876 7.12439 7.09276 7.17039C6.43376 7.24939 5.75176 7.33239 5.00676 7.96539C3.79876 8.99039 3.81076 10.6574 3.81876 11.8664C3.81076 13.0834 3.79876 14.7504 5.00876 15.7784C5.60376 16.2794 6.15676 16.4294 6.69076 16.5094L4.05776 19.1424C3.76476 19.4354 3.76476 19.9094 4.05776 20.2024C4.20476 20.3494 4.39676 20.4224 4.58776 20.4224C4.77976 20.4224 4.97176 20.3494 5.11876 20.2024L20.4628 4.85839C20.7558 4.56539 20.7558 4.09039 20.4628 3.79739Z" fill="black"/>
</svg>