<svg width="24" height="24" viewBox="0 0 24 24" fill="none" xmlns="http://www.w3.org/2000/svg">
<path d="M7.71375 16.2869C7.53651 16.1843 7.36859 16.1189 7.21933 16.1096C5.92263 16.0163 5.41888 16.1656 4.7099 15.5592C3.94494 14.9061 4.00091 13.1615 4.00091 11.8834C4.00091 11.0689 3.97818 10.0651 4.15962 9.2749" stroke="black" stroke-width="1.5" stroke-linecap="round" stroke-linejoin="round"/>
<path d="M14.5332 9.46706C14.4679 6.85481 14.2347 5.54869 13.3764 4.84898C11.3732 3.66636 8.8106 7.14239 7.44189 7.60822" stroke="black" stroke-width="1.5" stroke-linecap="round" stroke-linejoin="round"/>
<path d="M14.5329 13.9172C14.4956 16.7907 14.2717 18.1901 13.3762 18.9178C12.3966 19.4962 11.2865 18.9644 10.2417 18.2088" stroke="black" stroke-width="1.5" stroke-linecap="round" stroke-linejoin="round"/>
<path d="M4.00146 20L7.71431 16.2869L14.5336 9.46706L20.0003 4" stroke="black" stroke-width="1.5" stroke-linecap="round" stroke-linejoin="round"/>
</svg>