<svg width="25" height="24" viewBox="0 0 25 24" fill="none" xmlns="http://www.w3.org/2000/svg">
<path d="M2.39288 9.18563C2.50826 8.57393 2.71558 8.05058 3.08691 7.74027C3.93422 7.0354 4.43905 7.21659 5.97971 7.10243C6.39237 7.10243 6.87625 6.98617 7.22711 6.76623L10.2466 4.87889C12.0586 3.7467 14.2706 5.10617 14.3994 7.21659C14.6309 10.4058 14.6309 13.595 14.3994 16.7842C14.2884 18.8915 12.0586 20.2541 10.2466 19.1219L7.22711 17.2346C6.87625 17.0146 6.39865 16.8984 5.98495 16.8984C4.43695 16.7821 3.94051 16.9643 3.08691 16.2605C2.27472 15.5802 2.24744 13.876 2.25014 12.4609" stroke="black" stroke-width="1.5" stroke-linecap="round" stroke-linejoin="round"/>
<path d="M17.8223 8.30664C19.1357 10.593 19.1357 13.4062 17.8223 15.6926" stroke="black" stroke-width="1.5" stroke-linecap="round" stroke-linejoin="round"/>
<path d="M20.3301 5.89258C22.8898 9.56252 22.8898 14.439 20.3301 18.1089" stroke="black" stroke-width="1.5" stroke-linecap="round" stroke-linejoin="round"/>
</svg>