<svg width="25" height="24" viewBox="0 0 25 24" fill="none" xmlns="http://www.w3.org/2000/svg">
<path opacity="0.4" fill-rule="evenodd" clip-rule="evenodd" d="M12.543 5.11836C10.837 4.10336 9.26801 5.30836 8.12201 6.18536C7.65201 6.54536 7.20801 6.88536 6.87101 6.99636C6.41301 7.14636 6.01801 7.19436 5.63501 7.24036C4.96801 7.31936 4.27901 7.40136 3.52401 8.04236C2.31501 9.06936 2.31701 10.6974 2.31901 12.0054C2.31701 13.3124 2.31501 14.9404 3.52501 15.9684C4.27901 16.6084 4.96801 16.6904 5.63501 16.7694C6.01801 16.8154 6.41301 16.8634 6.87101 17.0144C7.20801 17.1254 7.65101 17.4654 8.12101 17.8244C8.95201 18.4614 10.006 19.2684 11.188 19.2684C11.635 19.2684 12.1 19.1534 12.578 18.8694C13.944 17.8984 14.428 16.1014 14.428 12.0054C14.428 7.85436 13.961 6.12236 12.543 5.11836Z" fill="black"/>
<path fill-rule="evenodd" clip-rule="evenodd" d="M20.1966 5.40811C19.9666 5.06411 19.4986 4.97111 19.1556 5.20311C18.8116 5.43311 18.7196 5.89911 18.9506 6.24411C21.2616 9.69111 21.2616 14.3211 18.9506 17.7651C18.7196 18.1091 18.8116 18.5751 19.1556 18.8061C19.2836 18.8921 19.4286 18.9331 19.5726 18.9331C19.8146 18.9331 20.0516 18.8171 20.1966 18.6011C22.8426 14.6581 22.8426 9.35611 20.1966 5.40811Z" fill="black"/>
<path fill-rule="evenodd" clip-rule="evenodd" d="M16.7645 7.61218C16.4015 7.81118 16.2695 8.26818 16.4705 8.63118C17.6205 10.7162 17.6205 13.3012 16.4705 15.3782C16.2695 15.7402 16.4015 16.1962 16.7635 16.3972C16.8785 16.4612 17.0035 16.4912 17.1265 16.4912C17.3895 16.4912 17.6455 16.3512 17.7835 16.1042C19.1805 13.5812 19.1815 10.4392 17.7835 7.90618C17.5825 7.54318 17.1265 7.41218 16.7645 7.61218Z" fill="black"/>
</svg>