<svg width="25" height="24" viewBox="0 0 25 24" fill="none" xmlns="http://www.w3.org/2000/svg">
<path opacity="0.4" fill-rule="evenodd" clip-rule="evenodd" d="M6.89651 7.54002C7.27229 7.54002 7.71293 7.43416 8.03244 7.23387L10.7821 5.51518C12.4322 4.48416 14.4465 5.72215 14.5629 7.64398C14.7746 10.5482 14.7746 13.4524 14.5629 16.3566C14.4627 18.2756 12.4322 19.5165 10.7812 18.4854L8.03244 16.7667C7.71293 16.5665 7.27802 16.4606 6.90128 16.4606C5.49161 16.3547 5.03953 16.5207 4.26221 15.8797C3.44006 15.1911 3.50111 13.3504 3.50111 11.9998C3.50111 10.6503 3.43816 8.80948 4.26221 8.12087C5.03381 7.47898 5.49352 7.64398 6.89651 7.54002Z" stroke="black" stroke-width="1.5" stroke-linecap="round" stroke-linejoin="round"/>
<path d="M17.1484 10.4158L19.1275 12M19.1275 12L21.5005 13.898L19.1275 15.7998V12ZM19.1275 12V11.9962M19.1275 12L17.1484 13.5804M19.1275 11.9962V8.20117L21.5005 10.0982L19.1275 11.9962Z" stroke="black" stroke-width="1.5" stroke-linecap="round" stroke-linejoin="round"/>
</svg>