<svg width="25" height="24" viewBox="0 0 25 24" fill="none" xmlns="http://www.w3.org/2000/svg">
<path fill-rule="evenodd" clip-rule="evenodd" d="M19.3104 7.98992C19.1104 7.62692 18.6534 7.49592 18.2914 7.69592C17.9284 7.89492 17.7964 8.35192 17.9974 8.71492C19.1184 10.7479 19.1184 13.2689 17.9974 15.2949C17.7964 15.6569 17.9284 16.1139 18.2904 16.3139C18.4054 16.3779 18.5304 16.4079 18.6534 16.4079C18.9164 16.4079 19.1734 16.2679 19.3104 16.0209C20.6784 13.5489 20.6784 10.4699 19.3104 7.98992Z" fill="black"/>
<path fill-rule="evenodd" clip-rule="evenodd" d="M14.1771 5.26128C12.5031 4.26628 10.9651 5.44528 9.84312 6.30528C9.38412 6.65728 8.95012 6.98828 8.62112 7.09628C8.17512 7.24328 7.78812 7.29028 7.41512 7.33428C6.76112 7.41228 6.08612 7.49328 5.34612 8.12128C4.15812 9.13028 4.16112 10.7233 4.16412 12.0043C4.16112 13.2843 4.15812 14.8773 5.34712 15.8883C6.08812 16.5173 6.76412 16.5973 7.41812 16.6753C7.79112 16.7203 8.17712 16.7663 8.62212 16.9113C8.94912 17.0203 9.38212 17.3523 9.84012 17.7023C10.6551 18.3273 11.6871 19.1183 12.8451 19.1183C13.2841 19.1183 13.7411 19.0053 14.2111 18.7263C15.5511 17.7763 16.0251 16.0173 16.0251 12.0043C16.0251 7.94228 15.5681 6.24528 14.1771 5.26128Z" fill="black"/>
</svg>