<svg width="25" height="24" viewBox="0 0 25 24" fill="none" xmlns="http://www.w3.org/2000/svg">
<path d="M11.2422 6.4397L14.45 4.43468C16.3749 3.23189 18.7248 4.67613 18.8606 6.91814C19.1076 10.3062 19.1076 13.6943 18.8606 17.0823C18.7438 19.321 16.3749 20.7686 14.4489 19.5658L11.2422 17.5608" stroke="black" stroke-width="1.5" stroke-linecap="round" stroke-linejoin="round"/>
<path opacity="0.4" d="M11.2417 6.43945C10.8689 6.67311 10.3549 6.79662 9.91647 6.79662C8.27975 6.9179 7.74344 6.72541 6.8433 7.47423C5.88196 8.27757 5.95539 10.425 5.95539 11.9994C5.95539 13.575 5.88418 15.7224 6.8433 16.5257C7.75012 17.2735 8.27752 17.0799 9.92204 17.2034C10.3615 17.2034 10.8689 17.3269 11.2417 17.5605" stroke="black" stroke-width="1.5" stroke-linecap="round" stroke-linejoin="round"/>
</svg>