<svg width="25" height="24" viewBox="0 0 25 24" fill="none" xmlns="http://www.w3.org/2000/svg">
<path fill-rule="evenodd" clip-rule="evenodd" d="M13.2773 4.1755C12.7099 3.60817 11.7901 3.60817 11.2227 4.1755L4.4255 10.9727C3.85817 11.5401 3.85817 12.4599 4.4255 13.0273L11.2227 19.8245C11.7901 20.3918 12.7099 20.3918 13.2773 19.8245L20.0745 13.0273C20.6418 12.4599 20.6418 11.5401 20.0745 10.9727L19.98 10.8783C19.6871 10.5854 19.6871 10.1105 19.98 9.8176C20.2729 9.52471 20.7478 9.52471 21.0407 9.8176L21.1352 9.91209C22.2883 11.0652 22.2883 12.9348 21.1352 14.0879L14.3379 20.8852C13.1848 22.0383 11.3152 22.0383 10.1621 20.8852L3.36484 14.0879C2.21172 12.9348 2.21172 11.0652 3.36484 9.91208L10.1621 3.11484C11.3152 1.96172 13.1848 1.96172 14.3379 3.11484L16.4441 5.22104C16.737 5.51393 16.737 5.9888 16.4441 6.2817C16.1512 6.57459 15.6763 6.57459 15.3834 6.2817L13.2773 4.1755Z" fill="black"/>
<path fill-rule="evenodd" clip-rule="evenodd" d="M20.1636 6.28803C20.4565 6.58092 20.4565 7.0558 20.1636 7.34869L12.5044 15.0079C12.2115 15.3008 11.7367 15.3008 11.4438 15.0079L8.41498 11.9791C8.12209 11.6862 8.12209 11.2113 8.41498 10.9184C8.70788 10.6256 9.18275 10.6256 9.47564 10.9184L11.9741 13.4169L19.103 6.28803C19.3959 5.99514 19.8708 5.99514 20.1636 6.28803Z" fill="black"/>
</svg>