<svg width="25" height="24" viewBox="0 0 25 24" fill="none" xmlns="http://www.w3.org/2000/svg">
<path fill-rule="evenodd" clip-rule="evenodd" d="M5.35596 5.10547C9.16427 1.29822 15.337 1.29811 19.1445 5.10555C19.4487 5.40978 19.7145 5.72735 19.957 6.04281C20.2094 6.37121 20.1479 6.84207 19.8195 7.09452C19.4911 7.34697 19.0202 7.2854 18.7678 6.957C18.551 6.67504 18.3283 6.41075 18.0838 6.16621C14.8622 2.94464 9.63912 2.94453 6.41648 6.16628C6.17294 6.40982 5.95217 6.67377 5.73072 6.95943C5.47693 7.28679 5.00582 7.34643 4.67846 7.09265C4.35109 6.83886 4.29145 6.36775 4.54523 6.04039C4.78691 5.72864 5.05075 5.41069 5.35596 5.10547ZM4.08947 8.93922C4.47441 8.78627 4.91045 8.97433 5.06341 9.35927L6.31534 12.5101L7.56728 9.35927C7.72024 8.97433 8.15628 8.78627 8.54122 8.93922C8.92616 9.09217 9.11423 9.52822 8.96127 9.91316L7.01234 14.8181C6.89886 15.1037 6.62265 15.2911 6.31534 15.2911C6.00804 15.2911 5.73183 15.1037 5.61835 14.8181L3.66942 9.91316C3.51646 9.52822 3.70453 9.09217 4.08947 8.93922ZM10.1747 9.63622C10.1747 9.222 10.5105 8.88622 10.9247 8.88622H12.2996C13.5545 8.88622 14.5723 9.90408 14.5723 11.159C14.5723 12.4139 13.5545 13.4317 12.2996 13.4317H11.6747V14.509C11.6747 14.9233 11.3389 15.259 10.9247 15.259C10.5105 15.259 10.1747 14.9233 10.1747 14.509V9.63622ZM11.6747 11.9317H12.2996C12.726 11.9317 13.0723 11.5854 13.0723 11.159C13.0723 10.7325 12.726 10.3862 12.2996 10.3862H11.6747V11.9317ZM20.1341 8.94513C20.5483 8.94513 20.8841 9.28091 20.8841 9.69513V14.3159C20.8841 14.638 20.6784 14.9241 20.3731 15.0268C20.0679 15.1295 19.7311 15.0258 19.5365 14.7691L17.4785 12.0556V14.4502C17.4785 14.8644 17.1428 15.2002 16.7285 15.2002C16.3143 15.2002 15.9785 14.8644 15.9785 14.4502V9.82551C15.9785 9.50343 16.1842 9.2173 16.4895 9.11464C16.7948 9.01197 17.1315 9.11568 17.3261 9.37231L19.3841 12.0859V9.69513C19.3841 9.28091 19.7199 8.94513 20.1341 8.94513ZM4.68088 16.9055C5.00927 16.653 5.48014 16.7146 5.73259 17.043C5.94934 17.325 6.172 17.5892 6.41655 17.8338C9.63809 21.0553 14.8612 21.0555 18.0838 17.8338C18.0838 17.8338 18.0838 17.8338 18.0838 17.8338M18.0838 17.8338C18.3273 17.5902 18.5482 17.3262 18.7696 17.0406C19.0234 16.7132 19.4945 16.6536 19.8219 16.9074C20.1493 17.1611 20.2089 17.6322 19.9551 17.9596C19.7134 18.2714 19.4497 18.5892 19.1445 18.8945C15.3361 22.7017 9.16332 22.7019 5.35589 18.8945C5.05166 18.5902 4.78587 18.2727 4.54336 17.9572C4.29092 17.6288 4.35248 17.1579 4.68088 16.9055" fill="black"/>
</svg>