<svg width="24" height="24" viewBox="0 0 24 24" fill="none" xmlns="http://www.w3.org/2000/svg">
<path fill-rule="evenodd" clip-rule="evenodd" d="M17.2186 12.4196C16.7666 12.3066 16.3446 11.9916 15.9296 11.4566C15.7356 11.2046 15.5586 10.9446 15.3836 10.6876C14.8046 9.83763 14.1476 8.87563 12.9596 8.30163C11.3796 7.54163 9.59864 7.65763 8.30964 8.60863C6.44764 9.98463 6.09164 12.5506 6.02664 13.3046C5.97964 13.8546 6.38664 14.3386 6.93764 14.3856C7.47564 14.4426 7.97164 14.0256 8.01864 13.4756C8.11064 12.4086 8.55264 10.9156 9.49664 10.2176C9.73364 10.0436 10.0186 9.94563 10.3166 9.88163L9.80764 11.9596C9.41064 13.5236 9.76664 15.2186 10.7606 16.4936L14.5416 21.3636C14.7396 21.6176 15.0346 21.7506 15.3326 21.7506C15.5466 21.7506 15.7626 21.6816 15.9456 21.5406C16.3816 21.2016 16.4606 20.5726 16.1216 20.1366L12.3386 15.2656C11.7216 14.4726 11.4996 13.4206 11.7476 12.4436L12.2906 10.2306C12.8766 10.5886 13.2816 11.1556 13.7316 11.8146C13.9286 12.1046 14.1286 12.3966 14.3486 12.6806C15.0496 13.5856 15.8306 14.1346 16.7356 14.3596C16.8166 14.3806 16.8976 14.3896 16.9776 14.3896C17.4266 14.3896 17.8346 14.0866 17.9476 13.6316C18.0806 13.0956 17.7546 12.5526 17.2186 12.4196Z" fill="black"/>
<g opacity="0.4">
<path fill-rule="evenodd" clip-rule="evenodd" d="M12.2239 7.18C13.5829 7.18 14.6889 6.074 14.6889 4.714C14.6889 3.356 13.5829 2.25 12.2239 2.25C10.8649 2.25 9.75989 3.356 9.75989 4.714C9.75989 6.074 10.8649 7.18 12.2239 7.18Z" fill="black"/>
<path fill-rule="evenodd" clip-rule="evenodd" d="M8.70589 17.4651L6.69489 20.1511C6.36489 20.5931 6.45489 21.2201 6.89689 21.5501C7.07689 21.6851 7.28689 21.7501 7.49489 21.7501C7.79989 21.7501 8.09989 21.6121 8.29689 21.3491L10.3079 18.6631C10.6379 18.2211 10.5479 17.5941 10.1059 17.2631C9.66389 16.9331 9.03789 17.0231 8.70589 17.4651Z" fill="black"/>
</g>
</svg>