<svg width="25" height="24" viewBox="0 0 25 24" fill="none" xmlns="http://www.w3.org/2000/svg">
<path fill-rule="evenodd" clip-rule="evenodd" d="M17.5345 10.2988C16.5335 10.2988 15.7217 11.1107 15.7217 12.1117C15.7217 13.1138 16.5337 13.9255 17.5345 13.9255H21.4212C21.8354 13.9255 22.1712 14.2613 22.1712 14.6755C22.1712 15.0897 21.8354 15.4255 21.4212 15.4255H17.5345C15.7049 15.4255 14.2217 13.9419 14.2217 12.1117C14.2217 10.2822 15.7051 8.79883 17.5345 8.79883H21.3907C21.8049 8.79883 22.1407 9.13461 22.1407 9.54883C22.1407 9.96304 21.8049 10.2988 21.3907 10.2988H17.5345Z" fill="black"/>
<path fill-rule="evenodd" clip-rule="evenodd" d="M16.9249 12.0531C16.9249 11.6389 17.2607 11.3031 17.6749 11.3031H17.9721C18.3863 11.3031 18.7221 11.6389 18.7221 12.0531C18.7221 12.4673 18.3863 12.8031 17.9721 12.8031H17.6749C17.2607 12.8031 16.9249 12.4673 16.9249 12.0531Z" fill="black"/>
<path fill-rule="evenodd" clip-rule="evenodd" d="M7.1062 8.14371C7.1062 7.72949 7.44199 7.39371 7.8562 7.39371H11.9162C12.3304 7.39371 12.6662 7.72949 12.6662 8.14371C12.6662 8.55792 12.3304 8.89371 11.9162 8.89371H7.8562C7.44199 8.89371 7.1062 8.55792 7.1062 8.14371Z" fill="black"/>
<path fill-rule="evenodd" clip-rule="evenodd" d="M5.50573 6.1343C4.29345 7.24727 3.71411 9.10476 3.71411 12.2531C3.71411 15.401 4.29343 17.2585 5.50576 18.3716C6.73734 19.5024 8.8081 20.0422 12.2651 20.0422C15.7215 20.0422 17.792 19.5024 19.0235 18.3716C20.2357 17.2585 20.8151 15.401 20.8151 12.2531C20.8151 9.10476 20.2357 7.24725 19.0235 6.13427C17.7921 5.00361 15.7216 4.46408 12.2651 4.46408C8.80804 4.46408 6.7373 5.00362 5.50573 6.1343ZM4.4913 5.02934C6.16616 3.49169 8.7459 2.96408 12.2651 2.96408C15.7838 2.96408 18.3633 3.49169 20.038 5.02936C21.732 6.58472 22.3151 8.99674 22.3151 12.2531C22.3151 15.5091 21.732 17.9211 20.038 19.4765C18.3633 21.0143 15.7838 21.5422 12.2651 21.5422C8.74584 21.5422 6.16612 21.0143 4.49127 19.4765C2.79717 17.9211 2.21411 15.5091 2.21411 12.2531C2.21411 8.99674 2.79716 6.5847 4.4913 5.02934Z" fill="black"/>
</svg>