<svg width="25" height="24" viewBox="0 0 25 24" fill="none" xmlns="http://www.w3.org/2000/svg">
<path opacity="0.4" fill-rule="evenodd" clip-rule="evenodd" d="M15.9724 14.3688C15.9724 15.3138 16.8524 16.0838 17.9314 16.0848H22.5054V12.6538H17.9314C16.8514 12.6538 15.9724 13.4238 15.9724 14.3688Z" fill="black"/>
<path fill-rule="evenodd" clip-rule="evenodd" d="M1.99438 21.8699V5.34424H3.49438V5.35093H18.6234V5.34424H20.1234V5.35093H22.5054V11.1529H17.9314C16.0244 11.1539 14.4724 12.5959 14.4724 14.3689C14.4744 16.1409 16.0254 17.5829 17.9314 17.5839H22.5054V21.8749H2.24438V21.8699H1.99438ZM6.55933 11.1689H13.4923V9.66895H6.55933V11.1689Z" fill="black"/>
<path opacity="0.4" d="M20.1233 5.34424V2.12598L1.99438 2.125V5.34424H3.49438V3.625L18.6233 3.62598V5.34424H20.1233Z" fill="black"/>
</svg>