<svg width="25" height="24" viewBox="0 0 25 24" fill="none" xmlns="http://www.w3.org/2000/svg">
<path d="M21.2511 15.1558H17.4441C16.5739 15.1558 15.7394 14.8101 15.1241 14.1948C14.5088 13.5795 14.1631 12.7449 14.1631 11.8748C14.1631 11.0046 14.5088 10.17 15.1241 9.55473C15.7394 8.93943 16.5739 8.59375 17.4441 8.59375H21.2511C21.45 8.59375 21.6408 8.67277 21.7814 8.81342C21.9221 8.95407 22.0011 9.14484 22.0011 9.34375C22.0011 9.54266 21.9221 9.73343 21.7814 9.87408C21.6408 10.0147 21.45 10.0938 21.2511 10.0938H17.4441C16.9717 10.0938 16.5188 10.2814 16.1848 10.6154C15.8508 10.9494 15.6631 11.4024 15.6631 11.8748C15.6631 12.3471 15.8508 12.8001 16.1848 13.1341C16.5188 13.4681 16.9717 13.6558 17.4441 13.6558H21.2511C21.45 13.6558 21.6408 13.7348 21.7814 13.8754C21.9221 14.0161 22.0011 14.2068 22.0011 14.4058C22.0011 14.6047 21.9221 14.7954 21.7814 14.9361C21.6408 15.0767 21.45 15.1558 21.2511 15.1558Z" fill="black"/>
<path d="M17.2638 12.5625C17.1154 12.5635 16.9701 12.5204 16.8462 12.4388C16.7223 12.3572 16.6254 12.2406 16.5677 12.1039C16.5101 11.9672 16.4943 11.8164 16.5223 11.6707C16.5504 11.525 16.621 11.3909 16.7253 11.2854C16.8295 11.1798 16.9628 11.1076 17.1082 11.0778C17.2535 11.048 17.4044 11.062 17.5418 11.118C17.6792 11.174 17.7969 11.2695 17.88 11.3924C17.9631 11.5153 18.008 11.6601 18.0088 11.8085C18.0093 11.9071 17.9904 12.0049 17.953 12.0963C17.9157 12.1876 17.8607 12.2707 17.7912 12.3407C17.7217 12.4107 17.6391 12.4664 17.5481 12.5044C17.457 12.5425 17.3594 12.5622 17.2608 12.5625H17.2638Z" fill="black"/>
<path d="M16.317 21.0585H12.89C12.691 21.0585 12.5003 20.9795 12.3596 20.8388C12.219 20.6982 12.14 20.5074 12.14 20.3085C12.14 20.1096 12.219 19.9188 12.3596 19.7782C12.5003 19.6375 12.691 19.5585 12.89 19.5585H16.317C17.4267 19.5572 18.4905 19.1157 19.2751 18.3309C20.0597 17.5462 20.5009 16.4822 20.502 15.3725V8.6225C20.5009 7.5129 20.0596 6.44904 19.275 5.66443C18.4904 4.87982 17.4266 4.43856 16.317 4.4375H8.18799C7.07829 4.43856 6.01432 4.87979 5.22955 5.66437C4.44478 6.44895 4.00328 7.5128 4.00195 8.6225V10.6705C4.00195 10.8694 3.92294 11.0602 3.78229 11.2008C3.64164 11.3415 3.45087 11.4205 3.25195 11.4205C3.05304 11.4205 2.86227 11.3415 2.72162 11.2008C2.58097 11.0602 2.50195 10.8694 2.50195 10.6705V8.6225C2.50381 7.11514 3.10354 5.67006 4.16949 4.60429C5.23545 3.53852 6.68063 2.93909 8.18799 2.9375H16.317C17.8242 2.93909 19.2693 3.53855 20.3351 4.60435C21.4009 5.67015 22.0004 7.11523 22.002 8.6225V15.3725C22.0004 16.8799 21.401 18.325 20.3352 19.391C19.2694 20.457 17.8243 21.0566 16.317 21.0585Z" fill="black"/>
<path d="M4.7092 21.0642C4.52518 21.0636 4.34463 21.0138 4.18637 20.9199C4.02811 20.826 3.89788 20.6914 3.80917 20.5302C3.69873 20.325 3.66003 20.0889 3.69919 19.8592L3.9722 18.3002L2.80917 17.1942C2.71136 17.0994 2.63338 16.9862 2.5798 16.861C2.52622 16.7358 2.49812 16.6012 2.4971 16.465C2.49608 16.3288 2.52219 16.1938 2.57388 16.0678C2.62557 15.9418 2.70181 15.8274 2.79819 15.7312C2.95448 15.5802 3.15284 15.4801 3.36716 15.4442L4.96719 15.2112L5.67416 13.7892C5.75994 13.6182 5.89148 13.4743 6.05417 13.3736C6.21685 13.2729 6.40434 13.2193 6.59567 13.2188C6.787 13.2182 6.97468 13.2708 7.13791 13.3706C7.30113 13.4705 7.43347 13.6136 7.52017 13.7842L8.22818 15.2082L9.8132 15.4372C10.0821 15.4763 10.3247 15.6201 10.4882 15.8372C10.6426 16.0377 10.7167 16.2886 10.696 16.5408C10.6752 16.7931 10.5612 17.0285 10.3762 17.2012L9.23916 18.3012L9.51321 19.8622C9.53536 19.9958 9.53091 20.1324 9.50015 20.2643C9.46939 20.3961 9.41292 20.5206 9.33395 20.6306C9.25499 20.7406 9.15511 20.8339 9.04001 20.9052C8.9249 20.9766 8.79682 21.0245 8.66318 21.0462C8.44463 21.0809 8.22069 21.0459 8.02316 20.9462L6.60318 20.2032L5.1802 20.9472C5.03458 21.0226 4.87321 21.0627 4.7092 21.0642ZM6.39621 20.0882H6.40317H6.39621ZM6.8392 20.0832L6.8262 20.0902L6.8392 20.0832ZM4.55917 16.7882L5.19021 17.3952C5.31097 17.5115 5.40141 17.6556 5.4537 17.8149C5.50599 17.9742 5.51853 18.1439 5.4902 18.3092L5.33816 19.1762L6.13821 18.7592C6.28654 18.6794 6.4523 18.6377 6.6207 18.6377C6.7891 18.6377 6.95485 18.6794 7.10318 18.7592L7.88418 19.1672L7.73221 18.3092C7.70138 18.1416 7.71333 17.969 7.767 17.8073C7.82066 17.6456 7.91432 17.5001 8.03921 17.3842L8.65921 16.7842L7.78317 16.6572C7.61794 16.6327 7.46108 16.5686 7.32596 16.4704C7.19084 16.3722 7.08147 16.2428 7.00717 16.0932L6.60721 15.2932L6.20718 16.0932C6.13329 16.2403 6.02565 16.3678 5.89303 16.4653C5.76042 16.5628 5.60661 16.6275 5.44418 16.6542L4.55917 16.7882ZM9.07815 18.4652L9.06717 18.4752L9.07815 18.4652ZM9.60416 16.9252H9.61416H9.60416ZM9.34817 16.1162L9.3392 16.1242L9.34817 16.1162Z" fill="black"/>
</svg>