<svg width="25" height="24" viewBox="0 0 25 24" fill="none" xmlns="http://www.w3.org/2000/svg">
<path d="M21.2499 14.407H17.4428C16.0446 14.407 14.9121 13.2735 14.9121 11.8754C14.9121 10.4782 16.0446 9.34473 17.4428 9.34473H21.2499" stroke="black" stroke-width="1.5" stroke-linecap="round" stroke-linejoin="round"/>
<path d="M17.2463 11.8193H17.2434" stroke="black" stroke-width="1.5" stroke-linecap="round" stroke-linejoin="round"/>
<path d="M3.25 10.6724V8.62526C3.25 5.89904 5.45958 3.68945 8.1858 3.68945H16.3139C19.0401 3.68945 21.2497 5.89904 21.2497 8.62526V15.3747C21.2497 18.1009 19.0401 20.3105 16.3139 20.3105H12.8881" stroke="black" stroke-width="1.5" stroke-linecap="round" stroke-linejoin="round"/>
<path fill-rule="evenodd" clip-rule="evenodd" d="M4.94753 18.613C6.16956 19.835 8.15147 19.835 9.37351 18.613C10.5955 17.391 10.5955 15.4091 9.37351 14.187C8.15147 12.965 6.16956 12.965 4.94753 14.187C3.7255 15.4091 3.7255 17.391 4.94753 18.613Z" stroke="black" stroke-width="1.5" stroke-linecap="round" stroke-linejoin="round"/>
<path d="M3.25 20.3101L4.94586 18.6143" stroke="black" stroke-width="1.5" stroke-linecap="round" stroke-linejoin="round"/>
</svg>