<svg width="24" height="24" viewBox="0 0 24 24" fill="none" xmlns="http://www.w3.org/2000/svg">
<path fill-rule="evenodd" clip-rule="evenodd" d="M19.2756 10.919C19.2756 11.329 18.9456 11.669 18.5356 11.669H18.5256C18.1156 11.669 17.7756 11.329 17.7756 10.919C17.7756 10.509 18.1156 10.169 18.5256 10.169C18.9456 10.169 19.2756 10.509 19.2756 10.919ZM16.6556 10.979C16.6556 11.959 17.4556 12.759 18.4356 12.759H22.4456C22.6113 12.759 22.7456 12.6247 22.7456 12.459V9.48897C22.7456 9.32328 22.6113 9.18896 22.4456 9.18896H18.4356C17.4556 9.18896 16.6556 9.98897 16.6556 10.979Z" fill="black"/>
<path fill-rule="evenodd" clip-rule="evenodd" d="M15.1555 10.9791C15.1555 9.16906 16.6255 7.68906 18.4355 7.68906H22.4424C22.6093 7.68906 22.745 7.55265 22.7341 7.38613C22.5497 4.54678 20.1935 2.28906 17.3055 2.28906H9.17548C6.18548 2.28906 3.74548 4.72906 3.74548 7.72906V12.3232C3.74548 12.5057 3.90851 12.6583 4.09105 12.6615C4.23398 12.6639 4.37798 12.6691 4.44901 12.6691C7.82901 12.6691 10.2855 15.3891 10.2855 18.7691C10.2855 19.0346 10.2669 19.2954 10.233 19.5516C10.2084 19.7381 10.3495 19.9091 10.5376 19.9091H17.3055C20.3281 19.9091 22.5915 17.4657 22.7379 14.559C22.7463 14.3935 22.6112 14.2591 22.4455 14.2591H18.4355C16.6255 14.2591 15.1555 12.7891 15.1555 10.9791Z" fill="black"/>
<path fill-rule="evenodd" clip-rule="evenodd" d="M7.44239 17.4934H5.47139V15.5234C5.47139 15.1094 5.13539 14.7734 4.72139 14.7734C4.30739 14.7734 3.97139 15.1094 3.97139 15.5234V17.4934H2.00439C1.58939 17.4934 1.25439 17.8294 1.25439 18.2434C1.25439 18.6574 1.58939 18.9934 2.00439 18.9934H3.97139V20.9634C3.97139 21.3774 4.30739 21.7134 4.72139 21.7134C5.13539 21.7134 5.47139 21.3774 5.47139 20.9634V18.9934H7.44239C7.85639 18.9934 8.19239 18.6574 8.19239 18.2434C8.19239 17.8294 7.85639 17.4934 7.44239 17.4934Z" fill="black"/>
</svg>