<svg width="25" height="24" viewBox="0 0 25 24" fill="none" xmlns="http://www.w3.org/2000/svg">
<path opacity="0.4" d="M21.4993 14.24H17.9525C16.6504 14.24 15.5938 13.1842 15.5938 11.8822C15.5938 10.5793 16.6504 9.52344 17.9525 9.52344H21.4993" stroke="black" stroke-width="1.5" stroke-linecap="round" stroke-linejoin="round"/>
<path d="M17.785 11.8287H17.7823" stroke="black" stroke-width="1.5" stroke-linecap="round" stroke-linejoin="round"/>
<path d="M4.73047 9.88739V8.8561C4.73047 6.31688 6.78953 4.25781 9.32876 4.25781H16.9017C19.441 4.25781 21.5 6.31688 21.5 8.8561V15.1446C21.5 17.6838 19.441 19.7429 16.9017 19.7429H14.5859" stroke="black" stroke-width="1.5" stroke-linecap="round" stroke-linejoin="round"/>
<path d="M9.86272 19.6363V14.082M11.5971 17.9667L9.86398 19.6385L8.13086 17.9667" stroke="black" stroke-width="1.5" stroke-linecap="round" stroke-linejoin="round"/>
<path opacity="0.4" d="M5.23357 14.082V19.6363M5.23357 14.082L3.5 15.7538M5.23357 14.082L6.96624 15.7538" stroke="black" stroke-width="1.5" stroke-linecap="round" stroke-linejoin="round"/>
</svg>