<svg width="25" height="24" viewBox="0 0 25 24" fill="none" xmlns="http://www.w3.org/2000/svg">
<path d="M21.2491 15.1557H17.4431C16.5729 15.1557 15.7384 14.8101 15.1231 14.1948C14.5078 13.5795 14.1621 12.7449 14.1621 11.8747C14.1621 11.0046 14.5078 10.17 15.1231 9.55473C15.7384 8.93943 16.5729 8.59375 17.4431 8.59375H21.2491C21.448 8.59375 21.6388 8.67276 21.7794 8.81342C21.9201 8.95407 21.9991 9.14484 21.9991 9.34375C21.9991 9.54266 21.9201 9.73342 21.7794 9.87408C21.6388 10.0147 21.448 10.0938 21.2491 10.0938H17.4431C16.9708 10.0938 16.5177 10.2814 16.1837 10.6154C15.8497 10.9494 15.6621 11.4024 15.6621 11.8747C15.6621 12.3471 15.8497 12.8001 16.1837 13.1341C16.5177 13.4681 16.9708 13.6557 17.4431 13.6557H21.2491C21.448 13.6557 21.6388 13.7348 21.7794 13.8754C21.9201 14.0161 21.9991 14.2068 21.9991 14.4057C21.9991 14.6047 21.9201 14.7954 21.7794 14.9361C21.6388 15.0767 21.448 15.1557 21.2491 15.1557Z" fill="black"/>
<path d="M17.248 12.5703C17.0997 12.5701 16.9548 12.526 16.8316 12.4434C16.7084 12.3609 16.6124 12.2437 16.5558 12.1066C16.4992 11.9696 16.4845 11.8188 16.5136 11.6734C16.5426 11.528 16.6141 11.3944 16.7191 11.2896C16.824 11.1848 16.9576 11.1135 17.1031 11.0846C17.2485 11.0558 17.3993 11.0707 17.5363 11.1275C17.6732 11.1843 17.7903 11.2804 17.8727 11.4037C17.9551 11.5271 17.999 11.672 17.999 11.8203C17.999 11.9191 17.9795 12.017 17.9416 12.1083C17.9036 12.1995 17.848 12.2824 17.7779 12.3521C17.7079 12.4218 17.6247 12.4769 17.5333 12.5144C17.4418 12.5518 17.3439 12.5708 17.245 12.5703H17.248Z" fill="black"/>
<path d="M16.315 21.0575H12.888C12.6891 21.0575 12.4983 20.9785 12.3577 20.8378C12.217 20.6972 12.138 20.5064 12.138 20.3075C12.138 20.1086 12.217 19.9178 12.3577 19.7772C12.4983 19.6365 12.6891 19.5575 12.888 19.5575H16.315C17.4246 19.5564 18.4885 19.1152 19.2731 18.3306C20.0577 17.546 20.4989 16.4821 20.5 15.3725V8.6215C20.4987 7.51207 20.0573 6.44846 19.2727 5.66407C18.4881 4.87968 17.4244 4.43856 16.315 4.4375H8.18597C7.07645 4.43856 6.01265 4.87964 5.22791 5.66401C4.44316 6.44837 4.00159 7.51197 4 8.6215V9.7295C4 9.92841 3.92096 10.1192 3.7803 10.2598C3.63965 10.4005 3.44891 10.4795 3.25 10.4795C3.05109 10.4795 2.86032 10.4005 2.71967 10.2598C2.57901 10.1192 2.5 9.92841 2.5 9.7295V8.6215C2.50212 7.11431 3.10192 5.66949 4.16785 4.60394C5.23378 3.53838 6.67879 2.93909 8.18597 2.9375H16.315C17.8221 2.93909 19.267 3.53841 20.3328 4.604C21.3986 5.66958 21.9981 7.1144 22 8.6215V15.3725C21.9984 16.8798 21.3989 18.3248 20.3331 19.3906C19.2673 20.4564 17.8223 21.0559 16.315 21.0575Z" fill="black"/>
<path d="M8.14053 16.3206C7.94162 16.3206 7.75085 16.2416 7.6102 16.101C7.46955 15.9603 7.39053 15.7695 7.39053 15.5706V14.4376C7.38478 14.1548 7.26836 13.8854 7.06625 13.6874C6.86415 13.4894 6.59247 13.3786 6.30954 13.3786H6.29553C6.01385 13.3815 5.74445 13.4944 5.54489 13.6932C5.34533 13.892 5.23144 14.161 5.22754 14.4426V15.5706C5.22754 15.7695 5.14853 15.9603 5.00787 16.101C4.86722 16.2416 4.67645 16.3206 4.47754 16.3206C4.27863 16.3206 4.08786 16.2416 3.9472 16.101C3.80655 15.9603 3.72754 15.7695 3.72754 15.5706V14.4296C3.74084 13.7538 4.01867 13.1101 4.50134 12.6368C4.98402 12.1635 5.63306 11.8984 6.30905 11.8984C6.98504 11.8984 7.63405 12.1635 8.11673 12.6368C8.59941 13.1101 8.87723 13.7538 8.89053 14.4296V15.5716C8.89027 15.7704 8.81113 15.9609 8.6705 16.1013C8.52988 16.2417 8.33927 16.3206 8.14053 16.3206Z" fill="black"/>
<path d="M7.841 21.0571H4.77399C4.17122 21.0565 3.59328 20.8169 3.16696 20.3908C2.74065 19.9647 2.50079 19.3868 2.5 18.7841V17.0611C2.50106 16.4585 2.74104 15.8809 3.16733 15.455C3.59361 15.0291 4.17139 14.7896 4.77399 14.7891H7.841C8.4436 14.7896 9.02138 15.0291 9.44766 15.455C9.87395 15.8809 10.1139 16.4585 10.115 17.0611V18.7841C10.1142 19.3868 9.87431 19.9647 9.448 20.3908C9.02168 20.8169 8.44377 21.0565 7.841 21.0571ZM4.77399 16.2891C4.56906 16.2891 4.37248 16.3703 4.22739 16.5151C4.08229 16.6598 4.00053 16.8561 4 17.0611V18.7841C4.00027 18.9892 4.08193 19.1858 4.22705 19.3307C4.37218 19.4757 4.56888 19.5571 4.77399 19.5571H7.841C8.04611 19.5571 8.24282 19.4757 8.38794 19.3307C8.53306 19.1858 8.61473 18.9892 8.61499 18.7841V17.0611C8.61446 16.8561 8.53267 16.6598 8.38757 16.5151C8.24248 16.3703 8.04594 16.2891 7.841 16.2891H4.77399Z" fill="black"/>
</svg>