<svg width="24" height="24" viewBox="0 0 24 24" fill="none" xmlns="http://www.w3.org/2000/svg">
<path d="M20.9981 14.4064H17.191C15.7934 14.4064 14.6602 13.2731 14.6602 11.8755C14.6602 10.477 15.7934 9.34375 17.191 9.34375H20.9981" stroke="black" stroke-width="1.5" stroke-linecap="round" stroke-linejoin="round"/>
<path d="M17.012 11.814H17.0091" stroke="black" stroke-width="1.5" stroke-linecap="round" stroke-linejoin="round"/>
<path d="M3 10.6706V8.62318C3 5.89765 5.21015 3.6875 7.93568 3.6875H16.0643C18.7899 3.6875 21 5.89765 21 8.62318V15.3731C21 18.0986 18.7899 20.3087 16.0643 20.3087H12.6381" stroke="black" stroke-width="1.5" stroke-linecap="round" stroke-linejoin="round"/>
<path fill-rule="evenodd" clip-rule="evenodd" d="M6.60042 14.1202L7.41677 15.7632C7.45815 15.846 7.53715 15.9034 7.62838 15.9165L9.45669 16.1808C9.53004 16.1912 9.59776 16.2297 9.6429 16.289C9.72849 16.3999 9.71532 16.557 9.61281 16.6529L8.28766 17.9339C8.22088 17.9969 8.19079 18.09 8.20772 18.1812L8.5256 19.9888C8.54723 20.1393 8.44566 20.2785 8.29518 20.303C8.23311 20.3124 8.1701 20.303 8.11367 20.2748L6.48568 19.4217C6.40386 19.3775 6.30511 19.3775 6.22423 19.4217L4.58402 20.2804C4.44671 20.35 4.27836 20.2983 4.20406 20.1638C4.17585 20.1092 4.1655 20.0481 4.17585 19.987L4.49279 18.1793C4.50878 18.0891 4.47868 17.9969 4.41285 17.9329L3.08112 16.652C2.97296 16.5438 2.97296 16.368 3.08112 16.2598V16.2598C3.12532 16.2194 3.18081 16.1921 3.24006 16.1818L5.06837 15.9156C5.16054 15.9015 5.2386 15.8441 5.27998 15.7614L6.09632 14.1202C6.12924 14.0534 6.18755 14.0026 6.25809 13.9791C6.32862 13.9556 6.40574 13.9613 6.47252 13.9951C6.52801 14.0224 6.57221 14.0657 6.60042 14.1202Z" stroke="black" stroke-width="1.5" stroke-linecap="round" stroke-linejoin="round"/>
</svg>