<svg width="24" height="24" viewBox="0 0 24 24" fill="none" xmlns="http://www.w3.org/2000/svg">
<path d="M20.9999 14.406H17.1928C15.7946 14.406 14.6621 13.2725 14.6621 11.8744C14.6621 10.4772 15.7946 9.34375 17.1928 9.34375H20.9999" stroke="black" stroke-width="1.5" stroke-linecap="round" stroke-linejoin="round"/>
<path d="M16.9966 11.8185H16.9936" stroke="black" stroke-width="1.5" stroke-linecap="round" stroke-linejoin="round"/>
<path d="M3 10.6704V8.6233C3 5.89708 5.20958 3.6875 7.9358 3.6875H16.0639C18.7901 3.6875 20.9997 5.89708 20.9997 8.6233V15.3727C20.9997 18.0989 18.7901 20.3085 16.0639 20.3085H12.6381" stroke="black" stroke-width="1.5" stroke-linecap="round" stroke-linejoin="round"/>
<path fill-rule="evenodd" clip-rule="evenodd" d="M4.69777 18.612C5.91981 19.8341 7.90172 19.8341 9.12375 18.612C10.3458 17.39 10.3458 15.4081 9.12375 14.1861C7.90172 12.964 5.91981 12.964 4.69777 14.1861C3.47574 15.4081 3.47574 17.39 4.69777 18.612Z" stroke="black" stroke-width="1.5" stroke-linecap="round" stroke-linejoin="round"/>
<path d="M3 20.3091L4.69586 18.6133" stroke="black" stroke-width="1.5" stroke-linecap="round" stroke-linejoin="round"/>
</svg>