<svg width="25" height="24" viewBox="0 0 25 24" fill="none" xmlns="http://www.w3.org/2000/svg">
<path fill-rule="evenodd" clip-rule="evenodd" d="M17.4409 9.87891C16.4571 9.87891 15.6602 10.6764 15.6602 11.6596C15.6602 12.6439 16.4573 13.4413 17.4409 13.4413H21.2481C21.6623 13.4413 21.9981 13.7771 21.9981 14.1913C21.9981 14.6055 21.6623 14.9413 21.2481 14.9413H17.4409C15.6281 14.9413 14.1602 13.4716 14.1602 11.6596C14.1602 9.84839 15.6283 8.37891 17.4409 8.37891H21.2481C21.6623 8.37891 21.9981 8.71469 21.9981 9.12891C21.9981 9.54312 21.6623 9.87891 21.2481 9.87891H17.4409Z" fill="black"/>
<path fill-rule="evenodd" clip-rule="evenodd" d="M16.4941 11.6016C16.4941 11.1873 16.8299 10.8516 17.2441 10.8516H17.2471C17.6613 10.8516 17.9971 11.1873 17.9971 11.6016C17.9971 12.0158 17.6613 12.3516 17.2471 12.3516H17.2441C16.8299 12.3516 16.4941 12.0158 16.4941 11.6016Z" fill="black"/>
<path fill-rule="evenodd" clip-rule="evenodd" d="M8.18589 4.22266C5.87384 4.22266 4 6.09649 4 8.40855V10.4557C4 10.8699 3.66421 11.2057 3.25 11.2057C2.83579 11.2057 2.5 10.8699 2.5 10.4557V8.40855C2.5 5.26806 5.04541 2.72266 8.18589 2.72266H16.3141C19.4546 2.72266 22 5.26806 22 8.40855V15.1581C22 18.2985 19.4546 20.844 16.3141 20.844H12.8883C12.4741 20.844 12.1383 20.5082 12.1383 20.094C12.1383 19.6797 12.4741 19.344 12.8883 19.344H16.3141C18.6262 19.344 20.5 17.4701 20.5 15.1581V8.40855C20.5 6.09649 18.6262 4.22266 16.3141 4.22266H8.18589Z" fill="black"/>
<path fill-rule="evenodd" clip-rule="evenodd" d="M6.5007 14.7773C5.11964 14.7773 4 15.8963 4 17.278C4 18.659 5.11978 19.7787 6.5007 19.7787C7.4066 19.7787 8.20109 19.2968 8.64119 18.5713C8.85603 18.2172 9.31728 18.1042 9.67142 18.3191C10.0256 18.5339 10.1385 18.9952 9.92367 19.3493C9.22345 20.5036 7.95329 21.2787 6.5007 21.2787C4.29135 21.2787 2.5 19.4874 2.5 17.278C2.5 15.0676 4.2915 13.2773 6.5007 13.2773C8.06431 13.2773 9.4181 14.1743 10.0758 15.4802C10.2622 15.8502 10.1133 16.3011 9.74337 16.4875C9.37343 16.6738 8.92249 16.5249 8.73616 16.155C8.32363 15.3359 7.47656 14.7773 6.5007 14.7773Z" fill="black"/>
<path fill-rule="evenodd" clip-rule="evenodd" d="M9.4045 13.2773C9.81871 13.2773 10.1545 13.6131 10.1545 14.0273V15.8166C10.1545 16.2309 9.81871 16.5666 9.4045 16.5666H7.60547C7.19126 16.5666 6.85547 16.2309 6.85547 15.8166C6.85547 15.4024 7.19126 15.0666 7.60547 15.0666H8.6545V14.0273C8.6545 13.6131 8.99028 13.2773 9.4045 13.2773Z" fill="black"/>
</svg>