<svg width="25" height="24" viewBox="0 0 25 24" fill="none" xmlns="http://www.w3.org/2000/svg">
<path d="M21.2485 14.4071H17.4412C16.0431 14.4071 14.9105 13.2736 14.9105 11.8754C14.9105 10.4782 16.0431 9.34473 17.4412 9.34473H21.2485" stroke="black" stroke-width="1.5" stroke-linecap="round" stroke-linejoin="round"/>
<path d="M17.2466 11.8193H17.2437" stroke="black" stroke-width="1.5" stroke-linecap="round" stroke-linejoin="round"/>
<path d="M3.25 10.6725V8.62535C3.25 5.89907 5.45962 3.68945 8.18589 3.68945H16.3141C19.0404 3.68945 21.25 5.89907 21.25 8.62535V15.3749C21.25 18.1011 19.0404 20.3108 16.3141 20.3108H12.8883" stroke="black" stroke-width="1.5" stroke-linecap="round" stroke-linejoin="round"/>
<path fill-rule="evenodd" clip-rule="evenodd" d="M6.66722 20.2552C5.86549 19.762 5.12019 19.1811 4.44495 18.5243C3.96916 18.0505 3.60722 17.4745 3.38733 16.8401C2.99133 15.6035 3.45349 14.1907 4.75144 13.7723C5.43446 13.5524 6.18171 13.678 6.75576 14.109C7.32787 13.6789 8.07414 13.5544 8.75619 13.7723C10.0541 14.1907 10.5192 15.6035 10.1242 16.8401C9.9043 17.4755 9.54235 18.0524 9.06657 18.5263C8.39133 19.1821 7.64603 19.762 6.8443 20.2552L6.75771 20.3088L6.66722 20.2552Z" stroke="black" stroke-width="1.5" stroke-linecap="round" stroke-linejoin="round"/>
</svg>