<svg width="24" height="24" viewBox="0 0 24 24" fill="none" xmlns="http://www.w3.org/2000/svg">
<path d="M20.9981 14.1913H17.1909C15.7927 14.1913 14.6602 13.0578 14.6602 11.6596C14.6602 10.2624 15.7927 9.12891 17.1909 9.12891H20.9981" stroke="black" stroke-width="1.5" stroke-linecap="round" stroke-linejoin="round"/>
<path d="M16.9966 11.6037H16.9936" stroke="black" stroke-width="1.5" stroke-linecap="round" stroke-linejoin="round"/>
<path d="M3 10.4557V8.40855C3 5.68228 5.20962 3.47266 7.93589 3.47266H16.0641C18.7904 3.47266 21 5.68228 21 8.40855V15.1581C21 17.8843 18.7904 20.094 16.0641 20.094H12.6383" stroke="black" stroke-width="1.5" stroke-linecap="round" stroke-linejoin="round"/>
<path d="M9.03243 18.9603C8.46227 19.9002 7.42995 20.5287 6.2507 20.5287C4.45557 20.5287 3 19.0732 3 17.278C3 15.4819 4.45557 14.0273 6.2507 14.0273C7.52043 14.0273 8.62087 14.7551 9.156 15.8176" stroke="black" stroke-width="1.5" stroke-linecap="round" stroke-linejoin="round"/>
<path d="M7.35547 15.8166H9.1545V14.0273" stroke="black" stroke-width="1.5" stroke-linecap="round" stroke-linejoin="round"/>
</svg>