<svg width="24" height="24" viewBox="0 0 24 24" fill="none" xmlns="http://www.w3.org/2000/svg">
<path fill-rule="evenodd" clip-rule="evenodd" d="M18.675 11.0049C18.675 11.4249 18.345 11.7549 17.925 11.7549C17.515 11.7549 17.175 11.4249 17.175 11.0049C17.175 10.5949 17.515 10.2549 17.925 10.2549C18.335 10.2549 18.675 10.5949 18.675 11.0049ZM16.055 11.0649C16.055 12.0549 16.855 12.8449 17.835 12.8449H21.835C22.0007 12.8449 22.135 12.7106 22.135 12.5449V9.5749C22.135 9.40922 22.0007 9.2749 21.835 9.2749H17.835C16.855 9.2749 16.055 10.0849 16.055 11.0649Z" fill="black"/>
<path fill-rule="evenodd" clip-rule="evenodd" d="M14.5551 11.065C14.5551 9.255 16.0251 7.775 17.8351 7.775H21.8331C21.9996 7.775 22.1351 7.63921 22.1248 7.47305C21.9493 4.63324 19.5838 2.375 16.7051 2.375H8.57513C5.57513 2.375 3.13513 4.815 3.13513 7.815V10.8152C3.13513 11.0526 3.39976 11.1985 3.6097 11.0877C4.51271 10.6108 5.54018 10.345 6.62513 10.345C10.2251 10.345 13.1451 13.265 13.1451 16.865C13.1451 17.8227 12.9405 18.724 12.5667 19.5391C12.4712 19.7474 12.6175 19.995 12.8466 19.995H16.7051C19.7282 19.995 21.9817 17.5494 22.1276 14.645C22.1359 14.4795 22.0008 14.345 21.8351 14.345H17.8351C16.0251 14.345 14.5551 12.875 14.5551 11.065Z" fill="black"/>
<path fill-rule="evenodd" clip-rule="evenodd" d="M6.62975 20.1252C4.82975 20.1252 3.36475 18.6622 3.36475 16.8642C3.36475 15.0612 4.82975 13.5942 6.62975 13.5942C8.42975 13.5942 9.89475 15.0612 9.89475 16.8642C9.89475 18.6622 8.42975 20.1252 6.62975 20.1252ZM6.62975 12.0942C4.00275 12.0942 1.86475 14.2332 1.86475 16.8642C1.86475 19.4892 4.00275 21.6252 6.62975 21.6252C9.25675 21.6252 11.3947 19.4892 11.3947 16.8642C11.3947 14.2332 9.25675 12.0942 6.62975 12.0942Z" fill="black"/>
<path fill-rule="evenodd" clip-rule="evenodd" d="M8.26254 17.2611L7.35754 16.7201V15.5151C7.35754 15.1011 7.02154 14.7651 6.60754 14.7651C6.19354 14.7651 5.85754 15.1011 5.85754 15.5151V17.1451C5.85754 17.4081 5.99654 17.6531 6.22254 17.7881L7.49154 18.5481C7.61254 18.6201 7.74554 18.6551 7.87654 18.6551C8.13154 18.6551 8.38054 18.5251 8.52054 18.2891C8.73354 17.9341 8.61754 17.4741 8.26254 17.2611Z" fill="black"/>
</svg>