<svg width="24" height="24" viewBox="0 0 24 24" fill="none" xmlns="http://www.w3.org/2000/svg">
<path d="M20.9994 15.9123H15.9767C14.8226 15.9123 13.8877 14.9774 13.8877 13.8233C13.8877 12.6693 14.8226 11.7344 15.9767 11.7344H20.9994" stroke="black" stroke-width="1.5" stroke-linecap="round" stroke-linejoin="round"/>
<path fill-rule="evenodd" clip-rule="evenodd" d="M16.434 6.17578H7.56605C5.04392 6.17578 3 8.2197 3 10.7418V16.9064C3 19.4285 5.04392 21.4724 7.56605 21.4724H16.434C18.9561 21.4724 21 19.4285 21 16.9064V10.7418C21 8.2197 18.9561 6.17578 16.434 6.17578Z" stroke="black" stroke-width="1.5" stroke-linecap="round" stroke-linejoin="round"/>
<path d="M8.11357 12.6055V15.0344" stroke="black" stroke-width="1.5" stroke-linecap="round" stroke-linejoin="round"/>
<path d="M18.2853 6.54779L16.7329 4.06457C15.7744 2.53163 13.752 2.07083 12.2283 3.02111L7.21575 6.16174L7.20551 6.17198H7.19629" stroke="black" stroke-width="1.5" stroke-linecap="round" stroke-linejoin="round"/>
</svg>