<svg width="25" height="24" viewBox="0 0 25 24" fill="none" xmlns="http://www.w3.org/2000/svg">
<path opacity="0.4" d="M21.4991 14.3905H17.6918C16.2937 14.3905 15.1602 13.257 15.1602 11.8588C15.1602 10.4616 16.2937 9.32812 17.6918 9.32812H21.4991" stroke="black" stroke-width="1.5" stroke-linecap="round" stroke-linejoin="round"/>
<path d="M17.4966 11.8029H17.4936" stroke="black" stroke-width="1.5" stroke-linecap="round" stroke-linejoin="round"/>
<path d="M3.5 11.5958V8.60777C3.5 5.8815 5.70962 3.67188 8.43589 3.67188H16.5641C19.2904 3.67188 21.5 5.8815 21.5 8.60777V15.3573C21.5 18.0836 19.2904 20.2932 16.5641 20.2932H12.1974" stroke="black" stroke-width="1.5" stroke-linecap="round" stroke-linejoin="round"/>
<path opacity="0.4" fill-rule="evenodd" clip-rule="evenodd" d="M6.05805 20.1769L5.23686 20.3141C4.63556 20.4153 4.10529 19.9142 4.17048 19.308L4.26194 18.4615C4.3067 18.0519 4.47794 17.6676 4.75135 17.3611L8.32994 13.4556C8.75221 12.9983 9.4654 12.971 9.9227 13.3933L10.6777 14.0929C11.135 14.5151 11.1623 15.2283 10.739 15.6856L7.20032 19.5474C6.90259 19.8811 6.49881 20.1029 6.05805 20.1769Z" stroke="black" stroke-width="1.5" stroke-linecap="round" stroke-linejoin="round"/>
</svg>