<svg width="24" height="24" viewBox="0 0 24 24" fill="none" xmlns="http://www.w3.org/2000/svg">
<path d="M20.9991 14.4022H17.1918C15.7937 14.4022 14.6602 13.2687 14.6602 11.8705C14.6602 10.4734 15.7937 9.33984 17.1918 9.33984H20.9991" stroke="black" stroke-width="1.5" stroke-linecap="round" stroke-linejoin="round"/>
<path d="M16.9966 11.8146H16.9936" stroke="black" stroke-width="1.5" stroke-linecap="round" stroke-linejoin="round"/>
<path d="M3 9.72966V8.62242C3 5.89712 5.20962 3.6875 7.93589 3.6875H16.0641C18.7904 3.6875 21 5.89712 21 8.62242V15.3729C21 18.0982 18.7904 20.3078 16.0641 20.3078H12.6383" stroke="black" stroke-width="1.5" stroke-linecap="round" stroke-linejoin="round"/>
<path d="M7.88883 15.5713V14.4378C7.87618 13.4269 7.04623 12.6164 6.03434 12.6291C5.04386 12.6417 4.2431 13.4395 4.22559 14.43V15.5713" stroke="black" stroke-width="1.5" stroke-linecap="round" stroke-linejoin="round"/>
<path fill-rule="evenodd" clip-rule="evenodd" d="M7.59146 20.3066H4.5227C3.68205 20.3066 3 19.6246 3 18.7839V17.0618C3 16.2201 3.68205 15.5391 4.5227 15.5391H7.59146C8.43211 15.5391 9.11416 16.2201 9.11416 17.0618V18.7839C9.11416 19.6246 8.43211 20.3066 7.59146 20.3066Z" stroke="black" stroke-width="1.5" stroke-linecap="round" stroke-linejoin="round"/>
</svg>