<svg width="25" height="24" viewBox="0 0 25 24" fill="none" xmlns="http://www.w3.org/2000/svg">
<path opacity="0.4" d="M21.4981 14.4064H17.691C16.2934 14.4064 15.1602 13.2731 15.1602 11.8755C15.1602 10.477 16.2934 9.34375 17.691 9.34375H21.4981" stroke="black" stroke-width="1.5" stroke-linecap="round" stroke-linejoin="round"/>
<path d="M17.512 11.814H17.5091" stroke="black" stroke-width="1.5" stroke-linecap="round" stroke-linejoin="round"/>
<path d="M3.5 10.6706V8.62318C3.5 5.89765 5.71015 3.6875 8.43568 3.6875H16.5643C19.2899 3.6875 21.5 5.89765 21.5 8.62318V15.3731C21.5 18.0986 19.2899 20.3087 16.5643 20.3087H13.1381" stroke="black" stroke-width="1.5" stroke-linecap="round" stroke-linejoin="round"/>
<path opacity="0.4" fill-rule="evenodd" clip-rule="evenodd" d="M7.10042 14.1202L7.91677 15.7632C7.95815 15.846 8.03715 15.9034 8.12838 15.9165L9.95669 16.1808C10.03 16.1912 10.0978 16.2297 10.1429 16.289C10.2285 16.3999 10.2153 16.557 10.1128 16.6529L8.78766 17.9339C8.72088 17.9969 8.69079 18.09 8.70772 18.1812L9.0256 19.9888C9.04723 20.1393 8.94566 20.2785 8.79518 20.303C8.73311 20.3124 8.6701 20.303 8.61367 20.2748L6.98568 19.4217C6.90386 19.3775 6.80511 19.3775 6.72423 19.4217L5.08402 20.2804C4.94671 20.35 4.77836 20.2983 4.70406 20.1638C4.67585 20.1092 4.6655 20.0481 4.67585 19.987L4.99279 18.1793C5.00878 18.0891 4.97868 17.9969 4.91285 17.9329L3.58112 16.652C3.47296 16.5438 3.47296 16.368 3.58112 16.2598V16.2598C3.62532 16.2194 3.68081 16.1921 3.74006 16.1818L5.56837 15.9156C5.66054 15.9015 5.7386 15.8441 5.77998 15.7614L6.59632 14.1202C6.62924 14.0534 6.68755 14.0026 6.75809 13.9791C6.82862 13.9556 6.90574 13.9613 6.97252 13.9951C7.02801 14.0224 7.07221 14.0657 7.10042 14.1202Z" stroke="black" stroke-width="1.5" stroke-linecap="round" stroke-linejoin="round"/>
</svg>