<svg width="25" height="24" viewBox="0 0 25 24" fill="none" xmlns="http://www.w3.org/2000/svg">
<path fill-rule="evenodd" clip-rule="evenodd" d="M12.25 3.75C7.69365 3.75 4 7.44365 4 12C4 16.5563 7.69365 20.25 12.25 20.25C16.8063 20.25 20.5 16.5563 20.5 12C20.5 7.44365 16.8063 3.75 12.25 3.75ZM2.5 12C2.5 6.61522 6.86522 2.25 12.25 2.25C17.6348 2.25 22 6.61522 22 12C22 17.3848 17.6348 21.75 12.25 21.75C6.86522 21.75 2.5 17.3848 2.5 12Z" fill="black"/>
<path fill-rule="evenodd" clip-rule="evenodd" d="M7.21967 12.2197C7.51256 11.9268 7.98744 11.9268 8.28033 12.2197L10 13.9393L11.7197 12.2197C12.0126 11.9268 12.4874 11.9268 12.7803 12.2197L14.5 13.9393L16.2197 12.2197C16.5126 11.9268 16.9874 11.9268 17.2803 12.2197C17.5732 12.5126 17.5732 12.9874 17.2803 13.2803L15.0303 15.5303C14.7374 15.8232 14.2626 15.8232 13.9697 15.5303L12.25 13.8107L10.5303 15.5303C10.2374 15.8232 9.76256 15.8232 9.46967 15.5303L7.21967 13.2803C6.92678 12.9874 6.92678 12.5126 7.21967 12.2197Z" fill="black"/>
<path fill-rule="evenodd" clip-rule="evenodd" d="M12.2539 9.74219C11.2687 9.74219 10.2931 10.1473 9.59766 10.8451C9.30527 11.1385 8.8304 11.1394 8.537 10.847C8.2436 10.5546 8.24277 10.0797 8.53516 9.78633C9.51201 8.80607 10.87 8.24219 12.2539 8.24219C13.6378 8.24219 14.9958 8.80607 15.9727 9.78633C16.265 10.0797 16.2642 10.5546 15.9708 10.847C15.6774 11.1394 15.2025 11.1385 14.9102 10.8451C14.2148 10.1473 13.2391 9.74219 12.2539 9.74219Z" fill="black"/>
</svg>