<svg width="25" height="24" viewBox="0 0 25 24" fill="none" xmlns="http://www.w3.org/2000/svg">
<path fill-rule="evenodd" clip-rule="evenodd" d="M11.2799 16.2967C11.2799 18.5141 9.48189 20.3122 7.26449 20.3122C5.04708 20.3122 3.25 18.5141 3.25 16.2967C3.25 14.0793 5.04708 12.2812 7.26449 12.2812C9.48189 12.2812 11.2799 14.0793 11.2799 16.2967Z" stroke="black" stroke-width="1.5" stroke-linecap="round" stroke-linejoin="round"/>
<path d="M8.51228 17.3398L7.24255 16.5809V14.9492" stroke="black" stroke-width="1.5" stroke-linecap="round" stroke-linejoin="round"/>
<path d="M21.2485 14.4052H17.4412C16.0431 14.4052 14.9105 13.2716 14.9105 11.8735C14.9105 10.4763 16.0431 9.34277 17.4412 9.34277H21.2485" stroke="black" stroke-width="1.5" stroke-linecap="round" stroke-linejoin="round"/>
<path d="M17.2466 11.8174H17.2437" stroke="black" stroke-width="1.5" stroke-linecap="round" stroke-linejoin="round"/>
<path d="M3.25 9.72966V8.62242C3.25 5.89712 5.45962 3.6875 8.18589 3.6875H16.3141C19.0404 3.6875 21.25 5.89712 21.25 8.62242V15.3729C21.25 18.0982 19.0404 20.3078 16.3141 20.3078H13.8282" stroke="black" stroke-width="1.5" stroke-linecap="round" stroke-linejoin="round"/>
</svg>