<svg width="24" height="24" viewBox="0 0 24 24" fill="none" xmlns="http://www.w3.org/2000/svg">
<path d="M20.9991 14.4061H17.1918C15.7937 14.4061 14.6602 13.2726 14.6602 11.8745C14.6602 10.4773 15.7937 9.34375 17.1918 9.34375H20.9991" stroke="black" stroke-width="1.5" stroke-linecap="round" stroke-linejoin="round"/>
<path d="M16.9966 11.8185H16.9936" stroke="black" stroke-width="1.5" stroke-linecap="round" stroke-linejoin="round"/>
<path d="M3 9.72966V8.62242C3 5.89712 5.20962 3.6875 7.93589 3.6875H16.0641C18.7904 3.6875 21 5.89712 21 8.62242V15.3729C21 18.0982 18.7904 20.3078 16.0641 20.3078H13.5782" stroke="black" stroke-width="1.5" stroke-linecap="round" stroke-linejoin="round"/>
<path fill-rule="evenodd" clip-rule="evenodd" d="M8.37859 13.0391H4.94595C3.75016 13.0391 3 13.8855 3 15.0843V18.2649C3 19.4636 3.74627 20.3101 4.94595 20.3101H8.37859C9.57827 20.3101 10.3245 19.4636 10.3245 18.2649V15.0843C10.3245 13.8855 9.57827 13.0391 8.37859 13.0391Z" stroke="black" stroke-width="1.5" stroke-linecap="round" stroke-linejoin="round"/>
<path d="M6.66227 20.3101V13.0391" stroke="black" stroke-width="1.5" stroke-linecap="round" stroke-linejoin="round"/>
<path d="M3 16.6779H10.3245" stroke="black" stroke-width="1.5" stroke-linecap="round" stroke-linejoin="round"/>
</svg>