<svg width="25" height="24" viewBox="0 0 25 24" fill="none" xmlns="http://www.w3.org/2000/svg">
<path opacity="0.4" d="M21.4981 14.4061H17.6909C16.2927 14.4061 15.1602 13.2726 15.1602 11.8745C15.1602 10.4773 16.2927 9.34375 17.6909 9.34375H21.4981" stroke="black" stroke-width="1.5" stroke-linecap="round" stroke-linejoin="round"/>
<path d="M17.4966 11.8185H17.4936" stroke="black" stroke-width="1.5" stroke-linecap="round" stroke-linejoin="round"/>
<path d="M3.5 10.6705V8.62339C3.5 5.89712 5.70962 3.6875 8.43589 3.6875H16.5641C19.2904 3.6875 21.5 5.89712 21.5 8.62339V15.3729C21.5 18.0992 19.2904 20.3088 16.5641 20.3088H13.1383" stroke="black" stroke-width="1.5" stroke-linecap="round" stroke-linejoin="round"/>
<path opacity="0.4" fill-rule="evenodd" clip-rule="evenodd" d="M6.91722 20.2572C6.11549 19.7639 5.37019 19.183 4.69495 18.5263C4.21916 18.0524 3.85722 17.4764 3.63733 16.8421C3.24133 15.6054 3.70349 14.1927 5.00144 13.7743C5.68446 13.5544 6.43171 13.6799 7.00576 14.1109C7.57787 13.6809 8.32414 13.5563 9.00619 13.7743C10.3041 14.1927 10.7692 15.6054 10.3742 16.8421C10.1543 17.4774 9.79235 18.0544 9.31657 18.5282C8.64133 19.184 7.89603 19.7639 7.0943 20.2572L7.00771 20.3107L6.91722 20.2572Z" stroke="black" stroke-width="1.5" stroke-linecap="round" stroke-linejoin="round"/>
</svg>