<svg width="24" height="24" viewBox="0 0 24 24" fill="none" xmlns="http://www.w3.org/2000/svg">
<path d="M20.9991 14.4061H17.1918C15.7937 14.4061 14.6602 13.2726 14.6602 11.8745C14.6602 10.4773 15.7937 9.34375 17.1918 9.34375H20.9991" stroke="black" stroke-width="1.5" stroke-linecap="round" stroke-linejoin="round"/>
<path d="M16.9966 11.8146H16.9936" stroke="black" stroke-width="1.5" stroke-linecap="round" stroke-linejoin="round"/>
<path d="M3 9.72966V8.62242C3 5.89712 5.20962 3.6875 7.93589 3.6875H16.0641C18.7904 3.6875 21 5.89712 21 8.62242V15.3729C21 18.0982 18.7904 20.3078 16.0641 20.3078H11.6974" stroke="black" stroke-width="1.5" stroke-linecap="round" stroke-linejoin="round"/>
<path fill-rule="evenodd" clip-rule="evenodd" d="M6.03245 20.3087C6.03245 20.3087 9.03991 19.398 9.03991 16.8877C9.03991 14.3765 9.14889 14.4572 8.90759 14.214C8.66629 13.9698 6.42651 13.1914 6.03245 13.1914C5.6384 13.1914 3.39862 13.9717 3.15635 14.214C2.91505 14.4553 3.02499 14.3765 3.02499 16.8877C3.02499 19.398 6.03245 20.3087 6.03245 20.3087Z" stroke="black" stroke-width="1.5" stroke-linecap="round" stroke-linejoin="round"/>
</svg>