<svg width="25" height="24" viewBox="0 0 25 24" fill="none" xmlns="http://www.w3.org/2000/svg">
<path opacity="0.4" fill-rule="evenodd" clip-rule="evenodd" d="M15.0399 11.2212C15.0399 9.41125 16.5099 7.93125 18.3199 7.93125H22.3179C22.4843 7.93125 22.6198 7.79546 22.6096 7.6293C22.434 4.78949 20.0686 2.53125 17.1899 2.53125H9.05988C6.05988 2.53125 3.62988 4.97125 3.62988 7.97125V11.9114C3.62988 12.1401 3.87706 12.2868 4.08652 12.1949C4.78513 11.8882 5.56081 11.7212 6.36988 11.7212C6.93545 11.7212 7.49242 11.7986 8.01689 11.9613C8.09573 11.9858 8.18083 11.9785 8.25571 11.9438C8.56545 11.8001 8.90584 11.7212 9.26988 11.7212C10.6599 11.7212 11.7699 12.8412 11.7699 14.2212V15.8713C11.7799 16.0013 11.7799 16.1412 11.7599 16.2712C11.7399 16.4312 11.7099 16.6013 11.6599 16.7513C11.6299 16.8313 11.6099 16.9113 11.5699 16.9913C11.5399 17.0612 11.5099 17.1313 11.4699 17.2013C11.4281 17.2849 11.3781 17.3746 11.3219 17.4589C11.2392 17.5829 11.2278 17.7489 11.3041 17.877C11.6326 18.4288 11.7371 19.0909 11.5863 19.7258C11.5362 19.9366 11.6832 20.1612 11.8998 20.1612H17.1899C20.2144 20.1612 22.476 17.7077 22.6223 14.8012C22.6307 14.6357 22.4956 14.5013 22.3299 14.5013H18.3199C16.5099 14.5013 15.0399 13.0312 15.0399 11.2212Z" fill="black"/>
<path fill-rule="evenodd" clip-rule="evenodd" d="M18.4103 11.9097C18.0003 11.9097 17.6603 11.5797 17.6603 11.1597C17.6603 10.7497 18.0003 10.4097 18.4103 10.4097C18.8303 10.4097 19.1603 10.7497 19.1603 11.1597C19.1603 11.5797 18.8303 11.9097 18.4103 11.9097ZM18.3203 9.42969C17.3403 9.42969 16.5403 10.2397 16.5403 11.2197C16.5403 12.2097 17.3403 12.9997 18.3203 12.9997H22.3303C22.496 12.9997 22.6303 12.8654 22.6303 12.6997V9.72969C22.6303 9.564 22.496 9.42969 22.3303 9.42969H18.3203Z" fill="black"/>
<path fill-rule="evenodd" clip-rule="evenodd" d="M9.27512 13.4692C8.89812 13.4692 8.59912 13.7522 8.54612 14.1152C7.91112 13.7032 7.16312 13.4692 6.37112 13.4692C4.16512 13.4692 2.37012 15.2632 2.37012 17.4692C2.37012 19.6752 4.16512 21.4692 6.37112 21.4692C7.78212 21.4692 9.06112 20.7472 9.79412 19.5382C10.0081 19.1842 9.89512 18.7232 9.54112 18.5082C9.18812 18.2942 8.72512 18.4062 8.51112 18.7612C8.05312 19.5182 7.25312 19.9692 6.37112 19.9692C4.99212 19.9692 3.87012 18.8482 3.87012 17.4692C3.87012 16.0902 4.99212 14.9692 6.37112 14.9692C6.77712 14.9692 7.15812 15.0832 7.50412 15.2602H7.47612C7.06212 15.2602 6.72612 15.5962 6.72612 16.0102C6.72612 16.4242 7.06212 16.7602 7.47612 16.7602H9.27512C9.28312 16.7602 9.29012 16.7552 9.29812 16.7552C9.35212 16.7542 9.40312 16.7372 9.45512 16.7242C9.50012 16.7122 9.54612 16.7062 9.58812 16.6872C9.59612 16.6832 9.60512 16.6842 9.61312 16.6802C9.65012 16.6622 9.67312 16.6312 9.70512 16.6082C9.74612 16.5792 9.78712 16.5532 9.82112 16.5162C9.85812 16.4772 9.88112 16.4332 9.90812 16.3882C9.93112 16.3502 9.95612 16.3162 9.97212 16.2752C9.99312 16.2192 9.99912 16.1622 10.0061 16.1032C10.0101 16.0712 10.0251 16.0432 10.0251 16.0102V14.2192C10.0251 13.8052 9.68912 13.4692 9.27512 13.4692Z" fill="black"/>
</svg>