<svg width="25" height="24" viewBox="0 0 25 24" fill="none" xmlns="http://www.w3.org/2000/svg">
<path fill-rule="evenodd" clip-rule="evenodd" d="M17.7025 10.2734C16.8145 10.2734 16.0938 10.9937 16.0938 11.8822C16.0938 12.7696 16.8143 13.49 17.7025 13.49H21.2493C21.6635 13.49 21.9993 13.8258 21.9993 14.24C21.9993 14.6542 21.6635 14.99 21.2493 14.99H17.7025C15.9866 14.99 14.5938 13.5988 14.5938 11.8822C14.5938 10.1649 15.9864 8.77344 17.7025 8.77344H21.2493C21.6635 8.77344 21.9993 9.10922 21.9993 9.52344C21.9993 9.93765 21.6635 10.2734 21.2493 10.2734H17.7025Z" fill="black"/>
<path fill-rule="evenodd" clip-rule="evenodd" d="M16.7822 11.8281C16.7822 11.4139 17.118 11.0781 17.5322 11.0781H17.535C17.9492 11.0781 18.285 11.4139 18.285 11.8281C18.285 12.2423 17.9492 12.5781 17.535 12.5781H17.5322C17.118 12.5781 16.7822 12.2423 16.7822 11.8281Z" fill="black"/>
<path fill-rule="evenodd" clip-rule="evenodd" d="M9.07876 5.00781C6.95375 5.00781 5.23047 6.73109 5.23047 8.8561V9.88739C5.23047 10.3016 4.89468 10.6374 4.48047 10.6374C4.06626 10.6374 3.73047 10.3016 3.73047 9.88739V8.8561C3.73047 5.90266 6.12532 3.50781 9.07876 3.50781H16.6517C19.6052 3.50781 22 5.90266 22 8.8561V15.1446C22 18.098 19.6052 20.4929 16.6517 20.4929H14.3359C13.9217 20.4929 13.5859 20.1571 13.5859 19.7429C13.5859 19.3287 13.9217 18.9929 14.3359 18.9929H16.6517C18.7767 18.9929 20.5 17.2696 20.5 15.1446V8.8561C20.5 6.73109 18.7767 5.00781 16.6517 5.00781H9.07876Z" fill="black"/>
<path fill-rule="evenodd" clip-rule="evenodd" d="M9.6123 13.332C10.0265 13.332 10.3623 13.6678 10.3623 14.082V19.6363C10.3623 20.0505 10.0265 20.3863 9.6123 20.3863C9.19809 20.3863 8.8623 20.0505 8.8623 19.6363V14.082C8.8623 13.6678 9.19809 13.332 9.6123 13.332Z" fill="black"/>
<path fill-rule="evenodd" clip-rule="evenodd" d="M7.34106 17.4442C7.62864 17.146 8.10343 17.1375 8.40155 17.425L9.61398 18.5946L10.8264 17.425C11.1245 17.1375 11.5993 17.146 11.8869 17.4442C12.1745 17.7423 12.1659 18.2171 11.8678 18.5046L10.1347 20.1764C9.84412 20.4567 9.38384 20.4567 9.09329 20.1764L7.36017 18.5046C7.06205 18.2171 7.05349 17.7423 7.34106 17.4442Z" fill="black"/>
<path fill-rule="evenodd" clip-rule="evenodd" d="M4.9834 13.332C5.39761 13.332 5.7334 13.6678 5.7334 14.082V19.6363C5.7334 20.0505 5.39761 20.3863 4.9834 20.3863C4.56918 20.3863 4.2334 20.0505 4.2334 19.6363V14.082C4.2334 13.6678 4.56918 13.332 4.9834 13.332Z" fill="black"/>
<path fill-rule="evenodd" clip-rule="evenodd" d="M4.46243 13.5422C4.75298 13.262 5.21326 13.262 5.50381 13.5422L7.23693 15.214C7.53505 15.5016 7.54361 15.9764 7.25604 16.2745C6.96847 16.5726 6.49367 16.5812 6.19555 16.2936L4.98312 15.1241L3.77069 16.2936C3.47257 16.5812 2.99778 16.5726 2.71021 16.2745C2.42263 15.9764 2.43119 15.5016 2.72931 15.214L4.46243 13.5422Z" fill="black"/>
</svg>