<svg width="24" height="24" viewBox="0 0 24 24" fill="none" xmlns="http://www.w3.org/2000/svg">
<path fill-rule="evenodd" clip-rule="evenodd" d="M18.8652 11.3799C18.8652 11.7899 18.5352 12.1299 18.1252 12.1299H18.1152C17.7052 12.1299 17.3652 11.7899 17.3652 11.3799C17.3652 10.9699 17.7052 10.6299 18.1152 10.6299C18.5352 10.6299 18.8652 10.9699 18.8652 11.3799ZM16.2452 11.4399C16.2452 12.4199 17.0452 13.2199 18.0252 13.2199H22.0352C22.2009 13.2199 22.3352 13.0856 22.3352 12.9199V9.9499C22.3352 9.78422 22.2009 9.6499 22.0352 9.6499H18.0252C17.0452 9.6499 16.2452 10.4499 16.2452 11.4399Z" fill="black"/>
<path fill-rule="evenodd" clip-rule="evenodd" d="M14.7452 11.44C14.7452 9.63 16.2152 8.15 18.0252 8.15H22.0322C22.199 8.15 22.3347 8.01359 22.3239 7.84707C22.1394 5.00772 19.7832 2.75 16.8952 2.75H8.7652C5.7752 2.75 3.33521 5.19 3.33521 8.19V11.2816C3.33521 11.5187 3.59949 11.665 3.81079 11.5574C4.58166 11.1648 5.43296 10.96 6.3252 10.96C7.83521 10.96 9.2452 11.55 10.3152 12.62C11.3752 13.67 11.9552 15.09 11.9552 16.59C11.9552 17.7777 11.5914 18.9025 10.9223 19.8414C10.771 20.0538 10.9144 20.37 11.1751 20.37H16.8952C19.9178 20.37 22.1812 17.9266 22.3277 15.02C22.336 14.8545 22.2009 14.72 22.0352 14.72H18.0252C16.2152 14.72 14.7452 13.25 14.7452 11.44Z" fill="black"/>
<path fill-rule="evenodd" clip-rule="evenodd" d="M8.00742 18.271C7.55742 18.723 6.96042 18.972 6.32542 18.972C5.69242 18.972 5.09442 18.723 4.64542 18.271L4.64242 18.268C4.19442 17.821 3.94642 17.225 3.94542 16.591C3.94542 15.957 4.19342 15.359 4.64542 14.908C5.09442 14.457 5.69042 14.208 6.32442 14.208C6.95942 14.208 7.55742 14.457 8.00942 14.91C8.45842 15.359 8.70642 15.956 8.70542 16.591C8.70542 17.225 8.45842 17.821 8.00742 18.271ZM6.32542 12.708C5.28942 12.708 4.31342 13.114 3.58342 13.848C2.84942 14.581 2.44542 15.555 2.44542 16.591C2.44642 17.371 2.67642 18.116 3.10342 18.748L1.88342 19.971C1.59142 20.264 1.59242 20.739 1.88542 21.032C2.03142 21.177 2.22342 21.25 2.41542 21.25C2.60742 21.25 2.79942 21.177 2.94642 21.03L4.16342 19.809C4.79742 20.239 5.54242 20.472 6.32442 20.472C7.36142 20.472 8.33742 20.066 9.06942 19.331C9.80142 18.6 10.2054 17.627 10.2054 16.591C10.2064 15.555 9.80242 14.582 9.07042 13.85C8.33742 13.113 7.36242 12.708 6.32542 12.708Z" fill="black"/>
</svg>