<svg width="24" height="24" viewBox="0 0 24 24" fill="none" xmlns="http://www.w3.org/2000/svg">
<path d="M20.9993 14.24H17.4525C16.1504 14.24 15.0938 13.1842 15.0938 11.8822C15.0938 10.5793 16.1504 9.52344 17.4525 9.52344H20.9993" stroke="black" stroke-width="1.5" stroke-linecap="round" stroke-linejoin="round"/>
<path d="M17.285 11.8287H17.2823" stroke="black" stroke-width="1.5" stroke-linecap="round" stroke-linejoin="round"/>
<path d="M4.23047 9.88739V8.8561C4.23047 6.31688 6.28953 4.25781 8.82876 4.25781H16.4017C18.941 4.25781 21 6.31688 21 8.8561V15.1446C21 17.6838 18.941 19.7429 16.4017 19.7429H14.0859" stroke="black" stroke-width="1.5" stroke-linecap="round" stroke-linejoin="round"/>
<path d="M9.3629 19.6363V14.082" stroke="black" stroke-width="1.5" stroke-linecap="round" stroke-linejoin="round"/>
<path d="M11.0971 17.9648L9.36398 19.6366L7.63086 17.9648" stroke="black" stroke-width="1.5" stroke-linecap="round" stroke-linejoin="round"/>
<path d="M4.734 14.082V19.6363" stroke="black" stroke-width="1.5" stroke-linecap="round" stroke-linejoin="round"/>
<path d="M3 15.7538L4.73312 14.082L6.46624 15.7538" stroke="black" stroke-width="1.5" stroke-linecap="round" stroke-linejoin="round"/>
</svg>