<svg width="25" height="24" viewBox="0 0 25 24" fill="none" xmlns="http://www.w3.org/2000/svg">
<path d="M15.2906 16.8067H9.2006C8.2306 16.8067 7.32059 16.2867 6.82059 15.4467C6.33059 14.6067 6.32063 13.5567 6.80063 12.7067L9.85062 7.28671C10.3406 6.42671 11.2606 5.88672 12.2506 5.88672C13.2406 5.88672 14.1606 6.42671 14.6506 7.28671L17.7006 12.7067C18.1806 13.5567 18.1706 14.6067 17.6806 15.4467C17.1906 16.2867 16.2806 16.8067 15.3006 16.8067H15.2906ZM12.2406 7.38672C11.7906 7.38672 11.3706 7.6267 11.1506 8.0267L8.10062 13.4467C7.88062 13.8367 7.89062 14.3067 8.10062 14.6967C8.32062 15.0767 8.74058 15.3167 9.18058 15.3167H15.2706C15.7106 15.3167 16.1306 15.0767 16.3506 14.6967C16.5706 14.3167 16.5806 13.8367 16.3606 13.4467L13.3106 8.0267C13.0906 7.6367 12.6706 7.38672 12.2206 7.38672H12.2406Z" fill="black"/>
<path d="M12.2505 21.7461C6.87049 21.7461 2.50049 17.3661 2.50049 11.9961C2.50049 6.62609 6.88049 2.24609 12.2505 2.24609C17.6205 2.24609 22.0005 6.62609 22.0005 11.9961C22.0005 17.3661 17.6205 21.7461 12.2505 21.7461ZM12.2505 3.73608C7.70049 3.73608 4.00049 7.43608 4.00049 11.9861C4.00049 16.5361 7.70049 20.2361 12.2505 20.2361C16.8005 20.2361 20.5005 16.5361 20.5005 11.9861C20.5005 7.43608 16.8005 3.73608 12.2505 3.73608Z" fill="black"/>
<path d="M12.2505 12.2153C11.8405 12.2153 11.5005 11.8753 11.5005 11.4653V9.44531C11.5005 9.03531 11.8405 8.69531 12.2505 8.69531C12.6605 8.69531 13.0005 9.03531 13.0005 9.44531V11.4653C13.0005 11.8753 12.6605 12.2153 12.2505 12.2153Z" fill="black"/>
<path d="M12.2505 14.3459C11.8405 14.3459 11.5005 14.0159 11.5005 13.5959C11.5005 13.1759 11.8405 12.8359 12.2505 12.8359C12.6605 12.8359 13.0005 13.1759 13.0005 13.5859C13.0005 13.9959 12.6605 14.3359 12.2505 14.3359V14.3459Z" fill="black"/>
</svg>