<svg width="24" height="24" viewBox="0 0 24 24" fill="none" xmlns="http://www.w3.org/2000/svg">
<path d="M15.7881 3H8.21289C5.56535 3 3.91797 4.86857 3.91797 7.51418V16.4858C3.91797 19.1314 5.56535 21 8.21385 21H15.7881C18.4357 21 20.0831 19.1314 20.0831 16.4858V7.51418C20.0831 4.86857 18.427 3 15.7881 3Z" stroke="black" stroke-width="1.5" stroke-linecap="round" stroke-linejoin="round"/>
<path d="M16.4605 6.03076H14.5371" stroke="black" stroke-width="1.5" stroke-linecap="round" stroke-linejoin="round"/>
<path d="M20.0811 8.48193H3.91602" stroke="black" stroke-width="1.5" stroke-linecap="round" stroke-linejoin="round"/>
<path d="M11.9978 11.2344C10.1398 11.2344 8.63281 12.7404 8.63281 14.5993C8.63281 16.4583 10.1398 17.9653 11.9978 17.9653C13.8567 17.9653 15.3637 16.4583 15.3637 14.5993C15.3637 12.7404 13.8567 11.2344 11.9978 11.2344Z" stroke="black" stroke-width="1.5" stroke-linecap="round" stroke-linejoin="round"/>
<path d="M8.6875 15.1414C9.06793 14.7103 9.57874 14.4399 10.1003 14.3503C10.7016 14.2492 11.3427 14.3795 11.8837 14.7609C12.234 15.011 12.5554 15.192 13.0357 15.192C13.5159 15.1919 13.8369 15.011 14.1872 14.7609C14.5422 14.5106 14.9405 14.3684 15.3423 14.3289" stroke="black" stroke-width="1.5" stroke-linecap="round" stroke-linejoin="round"/>
</svg>