<svg width="24" height="24" viewBox="0 0 24 24" fill="none" xmlns="http://www.w3.org/2000/svg">
<path d="M8.21218 3H15.7868C18.4342 3 20.0815 4.86908 20.0815 7.51362V16.4864C20.0815 19.1319 18.4342 21 15.7858 21H8.21218C5.56472 21 3.91748 19.1319 3.91748 16.4864V7.51362C3.91748 4.86908 5.57251 3 8.21218 3Z" stroke="black" stroke-width="1.5" stroke-linecap="round" stroke-linejoin="round"/>
<path d="M12.0003 11.2344C13.8587 11.2344 15.3658 12.7415 15.3658 14.5999C15.3658 16.4583 13.8587 17.9654 12.0003 17.9654C10.1419 17.9654 8.63477 16.4583 8.63477 14.5999C8.63477 12.7415 10.1419 11.2344 12.0003 11.2344Z" stroke="black" stroke-width="1.5" stroke-linecap="round" stroke-linejoin="round"/>
<path d="M8.6875 15.1414C9.06793 14.7103 9.57874 14.4399 10.1003 14.3503C10.7016 14.2492 11.3427 14.3795 11.8837 14.7609C12.234 15.011 12.5554 15.192 13.0357 15.192C13.5159 15.1919 13.8369 15.011 14.1872 14.7609C14.5422 14.5106 14.9405 14.3684 15.3423 14.3289" stroke="black" stroke-width="1.5" stroke-linecap="round" stroke-linejoin="round"/>
<path d="M3.91797 8.48145H20.0829" stroke="black" stroke-width="1.5" stroke-linecap="round" stroke-linejoin="round"/>
<path d="M16.4277 6.03027H16.4377" stroke="black" stroke-width="1.5" stroke-linecap="round" stroke-linejoin="round"/>
<path d="M14.3633 6.03027H14.3733" stroke="black" stroke-width="1.5" stroke-linecap="round" stroke-linejoin="round"/>
<path d="M7.53906 6.03027H9.46263" stroke="black" stroke-width="1.5" stroke-linecap="round" stroke-linejoin="round"/>
</svg>