<svg width="24" height="24" viewBox="0 0 24 24" fill="none" xmlns="http://www.w3.org/2000/svg">
<path opacity="0.4" fill-rule="evenodd" clip-rule="evenodd" d="M8.20998 2.25H15.79C18.76 2.25 20.83 4.42 20.83 7.51V16.49C20.83 19.64 18.81 21.75 15.79 21.75H8.20998C5.19998 21.75 3.16998 19.64 3.16998 16.49V7.51C3.16998 4.37 5.19998 2.25 8.20998 2.25ZM19.11 7.73H4.88998C4.76848 7.73 4.66998 7.6315 4.66998 7.51C4.66998 5.23 6.05998 3.75 8.20998 3.75H15.79C17.94 3.75 19.33 5.23 19.33 7.51C19.33 7.6315 19.2315 7.73 19.11 7.73Z" fill="black"/>
<path d="M12 10.4805C10.202 10.4805 8.67569 11.6444 8.11639 13.2558C8.06115 13.4149 8.22804 13.5538 8.38665 13.4971C8.5954 13.4224 8.80931 13.3651 9.03 13.3205C10.07 13.1575 11.111 13.3955 11.963 13.9975C12.364 14.2855 12.577 14.3605 12.878 14.3605C13.179 14.3605 13.379 14.2855 13.768 13.9975C14.056 13.7965 14.357 13.6465 14.67 13.5205C14.9624 13.4117 15.2627 13.321 15.5702 13.304C15.7169 13.2959 15.8323 13.1536 15.776 13.0179C15.1596 11.5333 13.7102 10.4805 12 10.4805Z" fill="black"/>
<path d="M11.08 18.6105C11.38 18.6805 11.68 18.7205 12 18.7205C14.0207 18.7205 15.6833 17.2566 16.0256 15.327C16.0465 15.2088 15.9527 15.099 15.8337 15.1146C15.6023 15.145 15.2734 15.2577 14.658 15.6765L14.645 15.6895C14.181 15.9905 13.63 16.2405 12.878 16.2405C12.001 16.2405 11.399 15.9025 10.885 15.5265C10.434 15.2125 9.882 15.0875 9.343 15.1755C8.90947 15.2627 8.499 15.4831 8.18571 15.7975C8.13224 15.8511 8.11891 15.9319 8.14492 16.003C8.17683 16.0903 8.20697 16.1779 8.24 16.2605C8.28 16.3605 8.33 16.4605 8.38 16.5605C8.39 16.5705 8.4 16.5805 8.4 16.5905C8.51 16.8005 8.65 17.0005 8.8 17.1905C9.03 17.4705 9.29 17.7205 9.58 17.9305C9.66 17.9905 9.74 18.0505 9.83 18.1005L10.04 18.2205C10.13 18.2705 10.23 18.3205 10.33 18.3705C10.48 18.4305 10.63 18.4905 10.78 18.5305C10.87 18.5705 10.98 18.5905 11.08 18.6105Z" fill="black"/>
<path fill-rule="evenodd" clip-rule="evenodd" d="M16.4599 5.28516H14.5369C14.1229 5.28516 13.7869 5.62116 13.7869 6.03516C13.7869 6.44916 14.1229 6.78516 14.5369 6.78516H16.4599C16.8739 6.78516 17.2099 6.44916 17.2099 6.03516C17.2099 5.62116 16.8739 5.28516 16.4599 5.28516Z" fill="black"/>
</svg>