<svg width="24" height="24" viewBox="0 0 24 24" fill="none" xmlns="http://www.w3.org/2000/svg">
<path fill-rule="evenodd" clip-rule="evenodd" d="M14.6834 19.518C14.5934 19.942 14.2134 20.249 13.7804 20.249H10.2204C9.78742 20.249 9.40742 19.942 9.31642 19.519L9.10342 18.513C9.19042 18.518 9.26942 18.534 9.35842 18.534H14.6394C14.7294 18.534 14.8094 18.518 14.8964 18.513L14.6834 19.518ZM9.31642 4.48198C9.40742 4.05898 9.78742 3.75098 10.2204 3.75098H13.7804C14.2134 3.75098 14.5934 4.05898 14.6834 4.48198L14.9094 5.54898C14.8204 5.54498 14.7384 5.52898 14.6464 5.52898H9.35842C9.26442 5.52898 9.18142 5.54498 9.09042 5.54998L9.31642 4.48198ZM17.3984 6.53598C17.1514 6.28798 16.8504 6.09898 16.5254 5.94198L16.1504 4.17098C15.9134 3.05898 14.9164 2.25098 13.7804 2.25098H10.2204C9.08342 2.25098 8.08642 3.05798 7.84942 4.16998L7.47442 5.94198C6.31242 6.50798 5.62842 7.63598 5.62842 9.17898V14.831C5.62842 16.402 6.31742 17.549 7.48842 18.121L7.84942 19.831C8.08642 20.943 9.08342 21.749 10.2204 21.749H13.7804C14.9174 21.749 15.9144 20.942 16.1504 19.83L16.5114 18.126C17.6824 17.561 18.3714 16.428 18.3714 14.878V9.18098C18.3734 8.09098 18.0374 7.17598 17.3984 6.53598Z" fill="black" fill-opacity="0.4"/>
<path fill-rule="evenodd" clip-rule="evenodd" d="M10.8185 10.4522C10.3095 10.6162 10.1945 11.2012 10.3435 11.6672C10.5755 12.3862 11.4385 13.0832 12.0005 13.4582C12.5725 13.0772 13.4305 12.3832 13.6545 11.6712C13.8045 11.2012 13.6885 10.6162 13.1775 10.4522C12.9305 10.3742 12.6585 10.4212 12.4465 10.5782C12.1815 10.7752 11.8155 10.7752 11.5505 10.5762C11.3405 10.4202 11.0685 10.3732 10.8185 10.4522ZM12.0005 15.0872C11.8775 15.0872 11.7535 15.0562 11.6415 14.9952C11.4185 14.8742 9.44052 13.7592 8.91652 12.1262C8.48552 10.7852 9.12052 9.4222 10.3605 9.0242L10.3615 9.0232C10.9055 8.8492 11.4905 8.8862 12.0025 9.1132C12.5115 8.8892 13.0925 8.8522 13.6315 9.0222C14.8775 9.4232 15.5125 10.7852 15.0855 12.1252C14.5755 13.7422 12.5865 14.8712 12.3605 14.9942C12.2485 15.0562 12.1245 15.0872 12.0005 15.0872Z" fill="black"/>
</svg>