<svg width="25" height="24" viewBox="0 0 25 24" fill="none" xmlns="http://www.w3.org/2000/svg">
<path fill-rule="evenodd" clip-rule="evenodd" d="M6.914 6.4803C7.60557 5.82283 8.55604 5.52832 9.60816 5.52832H14.8963C15.9507 5.52832 16.9019 5.8225 17.5927 6.48097C18.2891 7.14475 18.6233 8.08559 18.6207 9.17858C18.6207 9.17897 18.6207 9.17935 18.6207 9.17973L17.8707 9.17779H18.6207V9.17858V14.8775C18.6207 15.9707 18.2848 16.9122 17.5883 17.5769C16.8972 18.2365 15.9461 18.5328 14.8905 18.5328H9.60816C8.55159 18.5328 7.59947 18.2299 6.90875 17.5603C6.21431 16.8872 5.87891 15.9354 5.87891 14.8298V9.17779C5.87891 8.08363 6.21664 7.14328 6.914 6.4803ZM7.94752 7.56742C7.61376 7.88473 7.37891 8.3941 7.37891 9.17779V14.8298C7.37891 15.6322 7.6161 16.1569 7.95277 16.4833C8.29316 16.8132 8.83067 17.0328 9.60816 17.0328H14.8905C15.6747 17.0328 16.2137 16.8154 16.5527 16.4918C16.8864 16.1733 17.1207 15.6622 17.1207 14.8775V9.17779L17.1207 9.17585C17.1227 8.39149 16.8896 7.88302 16.5578 7.56675C16.2202 7.24495 15.6818 7.02832 14.8963 7.02832H9.60816C8.82622 7.02832 8.28707 7.24462 7.94752 7.56742Z" fill="black"/>
<path fill-rule="evenodd" clip-rule="evenodd" d="M11.0695 10.4513C10.6633 10.5824 10.403 11.0674 10.5943 11.6672C10.7497 12.1494 11.198 12.6441 11.7063 13.057C11.9038 13.2175 12.0939 13.3524 12.2495 13.4557C12.4069 13.3509 12.5996 13.214 12.7995 13.0514C13.3121 12.6346 13.7571 12.1413 13.9051 11.671L13.9061 11.6679C14.0968 11.0709 13.8372 10.5844 13.4299 10.4519C13.1804 10.3743 12.9078 10.4206 12.6973 10.5768C12.4308 10.7746 12.0661 10.7738 11.8005 10.5748C11.5911 10.4178 11.3187 10.3719 11.0695 10.4513ZM12.2503 14.3364C11.8917 14.9952 11.8916 14.9951 11.8914 14.995L11.8902 14.9943L11.888 14.9931L11.8814 14.9895L11.8601 14.9776C11.8425 14.9676 11.818 14.9536 11.7875 14.9358C11.7266 14.9 11.6413 14.8486 11.5386 14.7828C11.334 14.6519 11.0558 14.4612 10.7606 14.2213C10.1962 13.7629 9.45954 13.0378 9.16617 12.1259L9.16572 12.1245C8.80106 10.9834 9.19025 9.48009 10.6108 9.0232L10.612 9.02283C11.1567 8.84861 11.7401 8.88446 12.2519 9.11159C12.7611 8.8876 13.3403 8.85135 13.8822 9.02171L13.8869 9.02318C15.3049 9.47924 15.6999 10.9797 15.3354 12.1229C15.0491 13.0307 14.3095 13.7569 13.7458 14.2152C13.4499 14.4559 13.1706 14.6479 12.9652 14.7799C12.8621 14.8462 12.7765 14.8981 12.7153 14.9342C12.6847 14.9522 12.6601 14.9664 12.6424 14.9764L12.6212 14.9884L12.6146 14.992L12.6124 14.9933L12.6112 14.9939C12.611 14.994 12.6109 14.9941 12.2503 14.3364ZM12.2503 14.3364L12.6112 14.9939C12.3873 15.1167 12.1157 15.1171 11.8914 14.995L12.2503 14.3364Z" fill="black"/>
<path d="M14.0313 21.7491H10.4722C9.91762 21.747 9.3803 21.5556 8.94918 21.2067C8.51806 20.8578 8.21892 20.3721 8.10122 19.8301L7.67226 17.8021C7.63733 17.6101 7.67866 17.4119 7.7875 17.2499C7.89633 17.0878 8.06408 16.9745 8.25509 16.9342C8.4461 16.8938 8.64528 16.9295 8.81038 17.0337C8.97548 17.1379 9.09348 17.3024 9.13924 17.4922L9.56722 19.5182C9.61264 19.7247 9.72702 19.9095 9.8915 20.0424C10.056 20.1753 10.2608 20.2482 10.4722 20.2491H14.0313C14.2421 20.2475 14.4461 20.1742 14.6097 20.0411C14.7733 19.9081 14.8867 19.7233 14.9312 19.5172L15.3603 17.4922C15.406 17.3024 15.5239 17.1379 15.689 17.0337C15.8541 16.9295 16.0534 16.8938 16.2444 16.9342C16.4354 16.9745 16.6032 17.0878 16.712 17.2499C16.8208 17.4119 16.8622 17.6101 16.8272 17.8021L16.3972 19.8282C16.2806 20.3699 15.9825 20.8557 15.5523 21.205C15.122 21.5543 14.5855 21.7463 14.0313 21.7491Z" fill="black"/>
<path d="M8.40674 7.10201C8.35436 7.10154 8.30212 7.09617 8.25073 7.086C8.15432 7.06556 8.06287 7.02632 7.98163 6.97052C7.90039 6.91472 7.8309 6.84345 7.77722 6.7608C7.72354 6.67814 7.6867 6.58572 7.66876 6.48881C7.65083 6.3919 7.65219 6.29239 7.67273 6.196L8.10169 4.17001C8.21903 3.62774 8.51805 3.14179 8.94922 2.79263C9.3804 2.44347 9.9179 2.25203 10.4727 2.25H14.0317C14.5864 2.25208 15.1237 2.44356 15.5548 2.79273C15.9858 3.1419 16.2846 3.62782 16.4017 4.17001L16.8317 6.196C16.8547 6.29327 16.858 6.39415 16.8414 6.49271C16.8249 6.59127 16.7887 6.68552 16.7352 6.76994C16.6817 6.85435 16.6119 6.92721 16.5298 6.98425C16.4477 7.04128 16.3551 7.08134 16.2573 7.10207C16.1596 7.12279 16.0586 7.12377 15.9605 7.10494C15.8623 7.08611 15.769 7.04785 15.6858 6.99242C15.6026 6.93698 15.5314 6.86548 15.4763 6.78212C15.4211 6.69876 15.3832 6.60522 15.3647 6.507L14.9357 4.482C14.8914 4.2758 14.778 4.0909 14.6144 3.95782C14.4508 3.82473 14.2466 3.75142 14.0357 3.75H10.4767C10.265 3.75065 10.06 3.82358 9.89539 3.9567C9.73081 4.08981 9.6166 4.27514 9.57172 4.482L9.14374 6.507C9.10808 6.67582 9.0153 6.82718 8.88104 6.93557C8.74679 7.04396 8.57928 7.10274 8.40674 7.10201Z" fill="black"/>
</svg>