<svg width="25" height="24" viewBox="0 0 25 24" fill="none" xmlns="http://www.w3.org/2000/svg">
<path opacity="0.4" d="M13.7593 5.35959C12.3965 3.88026 11.2285 3 11.2285 3C11.2285 3 4.40034 8.1468 4.50218 14.4649L4.50203 14.4724C4.43174 18.0689 7.89677 21.042 11.2284 20.9996C13.9024 21.0336 16.6634 19.1251 17.6128 16.5109" stroke="black" stroke-width="1.5" stroke-linecap="round" stroke-linejoin="round"/>
<path d="M7.89713 14.064L7.89705 14.068C7.85934 15.9973 9.71858 17.4023 11.5059 17.3795" stroke="black" stroke-width="1.5" stroke-linecap="round" stroke-linejoin="round"/>
<path d="M13.6568 11.4847L15.3393 7.37938C15.3771 7.27644 15.4751 7.20801 15.5847 7.20801H17.8403C18.0207 7.20801 18.1468 7.38642 18.0867 7.55652L17.0893 9.89753C17.0291 10.0676 17.1553 10.246 17.3357 10.246H19.4655C19.6901 10.246 19.8101 10.5107 19.6621 10.6797L15.6182 15.2954C15.436 15.5034 15.0978 15.323 15.1691 15.0558L15.9399 12.1649C15.9842 11.9989 15.8591 11.8361 15.6874 11.8361H13.9023C13.7205 11.8361 13.5943 11.6553 13.6568 11.4847Z" stroke="black" stroke-width="1.5" stroke-linecap="round" stroke-linejoin="round"/>
</svg>