<svg width="25" height="24" viewBox="0 0 25 24" fill="none" xmlns="http://www.w3.org/2000/svg">
<path d="M12.6143 21.75C7.23426 21.75 2.86426 17.38 2.86426 12C2.86426 6.62 7.23426 2.25 12.6143 2.25C17.9943 2.25 22.3643 6.62 22.3643 12C22.3643 17.38 17.9943 21.75 12.6143 21.75ZM12.6143 3.75C8.06426 3.75 4.36426 7.45 4.36426 12C4.36426 16.55 8.06426 20.25 12.6143 20.25C17.1643 20.25 20.8643 16.55 20.8643 12C20.8643 7.45 17.1643 3.75 12.6143 3.75Z" fill="black"/>
<path d="M8.5341 13.9198C7.1741 13.9198 6.05411 12.9097 6.02411 11.6497C5.98411 9.72975 7.74411 7.98976 7.94411 7.78976C8.23411 7.51976 8.67411 7.50976 8.97411 7.78976C9.18411 7.97976 10.9941 9.69972 11.0341 11.6197C11.0441 12.1997 10.8241 12.7498 10.4041 13.1798C9.93411 13.6598 9.26411 13.9298 8.56411 13.9298H8.5341V13.9198ZM7.52411 11.6297C7.52411 12.0697 8.01411 12.3998 8.55411 12.4198C8.86411 12.4198 9.14411 12.3097 9.33411 12.1197C9.42411 12.0197 9.5441 11.8597 9.5341 11.6397C9.5141 10.8797 8.96411 10.0298 8.48411 9.4498C8.03411 10.0298 7.51411 10.8697 7.52411 11.6197V11.6297Z" fill="black"/>
<path d="M16.2143 12.9797C14.8643 12.9797 13.7443 11.9796 13.7243 10.7396C13.6843 8.85959 15.4143 7.14969 15.6043 6.95969C15.8943 6.68969 16.3443 6.67969 16.6343 6.95969C16.8343 7.14969 18.6143 8.82969 18.6543 10.7097C18.6643 11.2797 18.4443 11.8296 18.0343 12.2496C17.5743 12.7196 16.9143 12.9797 16.2243 12.9797H16.2143ZM15.2243 10.7197C15.2243 11.1297 15.6843 11.4797 16.2143 11.4797C16.5043 11.4797 16.7743 11.3797 16.9543 11.1897C17.0443 11.0997 17.1543 10.9397 17.1443 10.7297C17.1343 9.9997 16.5943 9.1796 16.1343 8.6196C15.6943 9.1796 15.2043 9.98969 15.2143 10.7097L15.2243 10.7197Z" fill="black"/>
<path d="M12.7743 18.41C11.4143 18.41 10.2843 17.4 10.2643 16.15C10.2243 14.24 11.9743 12.5301 12.1643 12.3401C12.4543 12.0701 12.8943 12.0601 13.1843 12.3401C13.3843 12.5301 15.1843 14.23 15.2243 16.13C15.2343 16.7 15.0143 17.25 14.6043 17.67C14.1443 18.14 13.4743 18.41 12.7743 18.41ZM12.6943 14C12.2443 14.57 11.7443 15.39 11.7643 16.12C11.7643 16.55 12.2343 16.91 12.7743 16.91C13.0743 16.91 13.3443 16.8 13.5343 16.62C13.6243 16.53 13.7343 16.37 13.7343 16.16C13.7243 15.41 13.1743 14.57 12.7043 14.01L12.6943 14Z" fill="black"/>
</svg>