<svg width="25" height="24" viewBox="0 0 25 24" fill="none" xmlns="http://www.w3.org/2000/svg">
<path fill-rule="evenodd" clip-rule="evenodd" d="M9.32726 13.3151C9.74139 13.3234 10.0703 13.6659 10.062 14.0801L10.0619 14.0833C10.0378 15.3185 11.2781 16.3658 12.6047 16.3489C13.0189 16.3436 13.3589 16.6751 13.3642 17.0892C13.3695 17.5034 13.038 17.8435 12.6238 17.8487C10.6795 17.8735 8.51735 16.3495 8.56221 14.054L8.56229 14.0498C8.57065 13.6357 8.91314 13.3067 9.32726 13.3151Z" fill="black"/>
<path d="M12.5243 21.7464C10.5343 21.7464 8.44434 20.8465 6.93434 19.3265C5.56434 17.9465 4.82433 16.2165 4.86433 14.4565C4.76433 7.83646 11.8643 2.61641 12.1743 2.39641C12.4343 2.20641 12.7943 2.20641 13.0543 2.39641C13.3543 2.61641 20.4743 7.85648 20.3643 14.4765C20.4043 16.2165 19.6643 17.9465 18.2943 19.3265C16.7643 20.8665 14.6343 21.7564 12.6043 21.7464H12.5243ZM12.6043 20.2464C14.2643 20.2664 15.9743 19.5264 17.2243 18.2664C18.3043 17.1764 18.8843 15.8264 18.8643 14.4864C18.9443 9.49637 14.1243 5.17647 12.6143 3.95646C11.1143 5.17647 6.28433 9.49646 6.36433 14.4565C6.36433 14.4865 6.36433 14.5164 6.36433 14.5464C6.34433 15.8464 6.92432 17.1864 8.00432 18.2864C9.25432 19.5464 10.9543 20.2664 12.6043 20.2664V20.2464Z" fill="black"/>
</svg>