<svg width="25" height="24" viewBox="0 0 25 24" fill="none" xmlns="http://www.w3.org/2000/svg">
<circle opacity="0.4" cx="12.1143" cy="12" r="9" stroke="black" stroke-width="1.5" stroke-linecap="round" stroke-linejoin="round"/>
<path d="M6.27661 11.6376C6.29365 12.4873 7.09021 13.1768 8.06068 13.1749C9.03114 13.173 9.8016 12.4834 9.78494 11.6311C9.75234 9.98063 7.96896 8.34033 7.96896 8.34033C7.96896 8.34033 6.24401 9.98714 6.27661 11.6376Z" stroke="black" stroke-width="1.5" stroke-linecap="round" stroke-linejoin="round"/>
<path d="M13.9772 10.7292C13.9938 11.5592 14.7718 12.2326 15.7197 12.2308C16.6676 12.2289 17.4201 11.5553 17.4038 10.7229C17.372 9.11089 15.6301 7.50879 15.6301 7.50879C15.6301 7.50879 13.9454 9.11725 13.9772 10.7292Z" stroke="black" stroke-width="1.5" stroke-linecap="round" stroke-linejoin="round"/>
<path d="M10.5123 16.1441C10.5291 16.9831 11.3155 17.6638 12.2737 17.6619C13.2319 17.66 13.9925 16.9792 13.9761 16.1377C13.9439 14.5082 12.1832 12.8887 12.1832 12.8887C12.1832 12.8887 10.4801 14.5146 10.5123 16.1441Z" stroke="black" stroke-width="1.5" stroke-linecap="round" stroke-linejoin="round"/>
</svg>