<svg width="25" height="25" viewBox="0 0 25 25" fill="none" xmlns="http://www.w3.org/2000/svg">
<path fill-rule="evenodd" clip-rule="evenodd" d="M4.5 3.36914C4.91421 3.36914 5.25 3.70493 5.25 4.11914V18.1191C5.25 18.8095 5.80964 19.3691 6.5 19.3691H20.5C20.9142 19.3691 21.25 19.7049 21.25 20.1191C21.25 20.5334 20.9142 20.8691 20.5 20.8691H6.5C4.98122 20.8691 3.75 19.6379 3.75 18.1191V4.11914C3.75 3.70493 4.08579 3.36914 4.5 3.36914Z" fill="black"/>
<path fill-rule="evenodd" clip-rule="evenodd" d="M8.2959 11.3691C8.71011 11.3691 9.0459 11.7049 9.0459 12.1191L9.0459 19.9116C9.0459 20.3258 8.71011 20.6616 8.2959 20.6616C7.88169 20.6616 7.5459 20.3258 7.5459 19.9116L7.5459 12.1191C7.5459 11.7049 7.88168 11.3691 8.2959 11.3691Z" fill="black"/>
<path fill-rule="evenodd" clip-rule="evenodd" d="M11.6318 4.02246C12.046 4.02246 12.3818 4.35825 12.3818 4.77246V12.9878C12.3818 13.402 12.046 13.7378 11.6318 13.7378C11.2176 13.7378 10.8818 13.402 10.8818 12.9878V4.77246C10.8818 4.35825 11.2176 4.02246 11.6318 4.02246Z" fill="black"/>
<path fill-rule="evenodd" clip-rule="evenodd" d="M14.9678 4.02246C15.382 4.02246 15.7178 4.35825 15.7178 4.77246L15.7178 19.9116C15.7178 20.3258 15.382 20.6616 14.9678 20.6616C14.5536 20.6616 14.2178 20.3258 14.2178 19.9116L14.2178 4.77246C14.2178 4.35825 14.5536 4.02246 14.9678 4.02246Z" fill="black"/>
<path fill-rule="evenodd" clip-rule="evenodd" d="M18.3035 13.6426C18.7177 13.6426 19.0535 13.9784 19.0535 14.3926V19.9116C19.0535 20.3258 18.7177 20.6616 18.3035 20.6616C17.8893 20.6616 17.5535 20.3258 17.5535 19.9116V14.3926C17.5535 13.9784 17.8893 13.6426 18.3035 13.6426Z" fill="black"/>
</svg>