<svg width="24" height="24" viewBox="0 0 24 24" fill="none" xmlns="http://www.w3.org/2000/svg">
<path fill-rule="evenodd" clip-rule="evenodd" d="M12 3.75C7.44329 3.75 3.75 7.44329 3.75 12C3.75 16.5567 7.44329 20.25 12 20.25C16.5567 20.25 20.25 16.5567 20.25 12C20.25 7.44329 16.5567 3.75 12 3.75ZM2.25 12C2.25 6.61487 6.61487 2.25 12 2.25C17.3851 2.25 21.75 6.61487 21.75 12C21.75 17.3851 17.3851 21.75 12 21.75C6.61487 21.75 2.25 17.3851 2.25 12Z" fill="black"/>
<path fill-rule="evenodd" clip-rule="evenodd" d="M10.1119 11.2795C10.0718 11.3485 10.0325 11.416 9.99422 11.4814C9.81631 11.785 9.45125 11.924 9.11643 11.8158C8.7816 11.7076 8.56706 11.3811 8.60054 11.0308C8.60425 10.992 8.60794 10.9538 8.61158 10.916C8.66296 10.3833 8.705 9.94754 8.65194 9.52109C8.61877 9.28383 8.53318 9.12697 8.4525 9.04648C8.39114 8.98526 8.30545 8.93576 8.13147 8.95496L8.12239 8.95596L8.12238 8.9559C7.86335 8.9813 7.62796 9.16516 7.45238 9.7823C7.28228 10.3802 7.26007 11.109 7.25048 11.6666C7.24513 12.3403 7.28366 13.2242 7.4957 13.9815C7.70816 14.7404 8.03565 15.1795 8.46674 15.3345C8.78022 15.3916 9.00384 15.3039 9.22442 15.1069C9.48908 14.8707 9.72437 14.4912 9.95489 14.024C10.0335 13.8606 10.1135 13.6881 10.1959 13.5103C10.4432 12.9766 10.713 12.3942 11.0392 11.8615C11.2198 11.5664 11.5788 11.4332 11.9082 11.539C12.2376 11.6448 12.4519 11.9622 12.4269 12.3072C12.3932 12.7721 12.4236 13.3317 12.5749 13.7595C12.7198 14.1691 12.9131 14.3239 13.1747 14.3525L13.184 14.3535L13.184 14.3536C13.3845 14.378 13.5427 14.3172 13.7232 14.1402C13.927 13.9405 14.1064 13.6382 14.2855 13.2793C14.9515 11.9126 15.6889 10.6189 16.5415 9.35512C16.686 9.14089 16.7353 8.98213 16.747 8.89616C16.5408 8.88512 16.2106 9.01435 15.7323 9.46928C15.269 9.90989 14.8619 10.4705 14.558 10.8891C14.5287 10.9295 14.5003 10.9686 14.4729 11.0061C14.2681 11.2868 13.8974 11.3901 13.5771 11.2558C13.2567 11.1215 13.0704 10.7848 13.127 10.442C13.1948 10.0311 13.2184 9.50338 13.1184 9.10627C13.0697 8.91308 13.0044 8.80236 12.9498 8.74516C12.9104 8.70389 12.854 8.6635 12.7229 8.65512L12.7172 8.65475L12.7172 8.65473C12.2953 8.62453 11.8176 8.89592 11.2789 9.52677C10.8162 10.0686 10.4337 10.7262 10.1119 11.2795ZM12.8215 7.15836C11.6511 7.0759 10.7476 7.8391 10.1382 8.55269C10.0877 8.61182 10.0381 8.67201 9.9893 8.73298C9.88455 8.45996 9.72891 8.20106 9.51194 7.9846C9.12328 7.59683 8.58645 7.39692 7.97151 7.46351C6.76469 7.58416 6.23616 8.57564 6.00963 9.37182C5.7777 10.187 5.75983 11.1083 5.75064 11.6443L5.75061 11.6443L5.75055 11.651C5.74474 12.3634 5.78066 13.4195 6.05124 14.3859C6.31609 15.3319 6.86844 16.3982 8.04383 16.7748C8.06751 16.7824 8.09156 16.7888 8.11588 16.794C8.98829 16.9804 9.69523 16.6974 10.2234 16.2259C10.7156 15.7865 11.0553 15.1843 11.3018 14.6842L11.3018 14.6842L11.3048 14.678C11.3112 14.6648 11.3175 14.6517 11.3237 14.6386C11.6239 15.2221 12.1485 15.7476 13.0071 15.8431C13.7665 15.9341 14.3549 15.6216 14.7733 15.2113C15.1688 14.8236 15.4404 14.3248 15.6294 13.9456L15.6294 13.9456L15.6324 13.9395C16.2705 12.6297 16.9738 11.3963 17.7849 10.1941C18.0551 9.79366 18.2617 9.30927 18.2495 8.81536C18.2357 8.25828 17.938 7.7587 17.3668 7.51019C17.3434 7.49999 17.3195 7.491 17.2951 7.48325C16.2246 7.14243 15.2767 7.83245 14.6985 8.38238C14.6384 8.4396 14.5791 8.49827 14.5209 8.55794C14.4267 8.26461 14.2764 7.96249 14.0347 7.70935C13.728 7.38816 13.316 7.19063 12.8215 7.15836Z" fill="black"/>
</svg>