<svg width="24" height="24" viewBox="0 0 24 24" fill="none" xmlns="http://www.w3.org/2000/svg">
<path fill-rule="evenodd" clip-rule="evenodd" d="M8.26664 10.4779C8.19729 10.5972 8.13004 10.7129 8.06486 10.8241C7.88695 11.1277 7.52189 11.2668 7.18707 11.1586C6.85225 11.0503 6.6377 10.7238 6.67119 10.3736C6.67807 10.3015 6.68498 10.2301 6.69184 10.1592C6.77934 9.25518 6.85794 8.44307 6.75776 7.64264C6.68895 7.14518 6.50221 6.75196 6.25775 6.50806C6.0324 6.28322 5.71971 6.14302 5.25816 6.19395L5.24908 6.19495L5.24907 6.1949C4.45584 6.27267 3.94228 6.88446 3.62038 8.0159C3.30398 9.12798 3.26727 10.4574 3.25086 11.413C3.24138 12.591 3.30693 14.1808 3.69458 15.5654C4.08386 16.9558 4.73693 17.9399 5.7554 18.2835C6.50859 18.4337 7.07247 18.2125 7.56908 17.7692C8.10908 17.2871 8.55361 16.5503 8.95787 15.7307C9.10139 15.4326 9.24442 15.124 9.39007 14.8097C9.81409 13.8948 10.2603 12.932 10.8056 12.0413C10.9862 11.7462 11.3452 11.613 11.6746 11.7188C12.004 11.8246 12.2183 12.142 12.1933 12.487C12.1324 13.3277 12.1823 14.3787 12.4788 15.2168C12.7688 16.0367 13.2329 16.5209 13.9698 16.6014L13.9791 16.6024L13.9791 16.6025C14.5294 16.6696 14.9597 16.4728 15.3583 16.082C15.78 15.6686 16.1236 15.0747 16.4368 14.4468C17.5772 12.1064 18.8386 9.89326 20.2966 7.73238C20.6325 7.2344 20.7564 6.81595 20.7498 6.54552C20.7449 6.34937 20.6815 6.22577 20.488 6.13185C19.841 5.94968 19.0236 6.32302 18.0707 7.22926C17.2321 8.02694 16.4999 9.03572 15.9784 9.75431C15.9271 9.82504 15.8778 9.89295 15.8307 9.95758C15.6259 10.2382 15.2552 10.3415 14.9349 10.2072C14.6145 10.0729 14.4282 9.7362 14.4848 9.39344C14.6074 8.65047 14.6597 7.65415 14.4606 6.86417C14.3624 6.47454 14.2157 6.18632 14.035 5.99709C13.8696 5.82378 13.6426 5.69682 13.2834 5.67387L13.2777 5.6735L13.2777 5.67348C12.2763 5.6018 11.296 6.24963 10.3396 7.36958C9.50606 8.34576 8.81967 9.52654 8.26664 10.4779ZM13.3819 4.17711C11.632 4.05318 10.2259 5.19289 9.19895 6.39551C8.86495 6.78664 8.55309 7.20593 8.26525 7.62627C8.25941 7.56789 8.25284 7.50949 8.24549 7.45109L8.24553 7.45108L8.24443 7.44305C8.14374 6.70773 7.85107 5.97883 7.31719 5.44618C6.7645 4.89476 6.00062 4.60417 5.09818 4.7025C3.3571 4.87552 2.55044 6.29509 2.17763 7.60542C1.79937 8.93495 1.76703 10.4569 1.75102 11.3907L1.75099 11.3907L1.75093 11.3974C1.741 12.6139 1.80392 14.3761 2.25013 15.9698C2.6906 17.5431 3.5672 19.158 5.33301 19.7236C5.35669 19.7312 5.38074 19.7376 5.40506 19.7428C6.7159 20.023 7.76446 19.6056 8.56807 18.8881C9.33568 18.2028 9.88457 17.2432 10.3048 16.3909L10.3048 16.3909L10.3078 16.3847C10.4733 16.041 10.6296 15.7038 10.7831 15.3727C10.8199 15.2934 10.8564 15.2145 10.8929 15.136C10.9408 15.333 10.9976 15.5275 11.0647 15.717C11.4637 16.845 12.2845 17.9242 13.8022 18.092C14.9114 18.2257 15.7719 17.7771 16.4084 17.1531C17.022 16.5515 17.4577 15.761 17.7808 15.1129L17.7808 15.1129L17.7838 15.1068C18.8963 12.8234 20.1236 10.6707 21.54 8.57133C21.9718 7.93135 22.2665 7.2062 22.2493 6.50847C22.2305 5.74756 21.8345 5.0811 21.0524 4.74076C21.0289 4.73057 21.005 4.72158 20.9806 4.71383C19.4506 4.2267 18.0284 5.1994 17.037 6.14236C16.6846 6.47754 16.3507 6.84356 16.0438 7.20754C16.0153 6.96743 15.9734 6.72895 15.9151 6.49757C15.7782 5.95413 15.5381 5.39921 15.1199 4.96127C14.6872 4.50802 14.1045 4.22393 13.3819 4.17711Z" fill="black"/>
</svg>