<svg width="24" height="24" viewBox="0 0 24 24" fill="none" xmlns="http://www.w3.org/2000/svg">
<path d="M13.3312 4.92539C15.4972 5.06379 15.4851 7.93821 15.2248 9.51554C16.2473 8.11394 18.5703 4.73354 20.7531 5.42848C21.7555 5.86465 21.6861 7.01389 20.9183 8.15185C19.4808 10.2824 18.2362 12.4658 17.1096 14.7783C16.4729 16.0555 15.5502 17.5496 13.8883 17.3469C11.6308 17.1003 11.316 14.2181 11.4453 12.4329C10.7382 13.5878 10.2183 14.8419 9.63207 16.0592C8.80721 17.7324 7.64434 19.4544 5.5618 19.0094C2.75734 18.111 2.48134 13.7984 2.5009 11.4035C2.53329 9.51385 2.63844 5.69724 5.17589 5.44847C6.54186 5.29773 7.33229 6.31016 7.50136 7.54479C7.62293 8.51017 7.50975 9.48275 7.41777 10.4449C8.55657 8.50165 10.5785 4.72835 13.3312 4.92539Z" stroke="black" stroke-width="1.5" stroke-linecap="round" stroke-linejoin="round"/>
</svg>