<svg width="25" height="24" viewBox="0 0 25 24" fill="none" xmlns="http://www.w3.org/2000/svg">
<g opacity="0.4">
<path fill-rule="evenodd" clip-rule="evenodd" d="M7.82634 2.5C6.23289 2.5 4.89955 3.06751 3.967 4.0677C3.03806 5.06401 2.54346 6.44971 2.54346 8.02611V8.74219H21.5425V8.02611C21.5425 6.4504 21.0507 5.06463 20.123 4.06799C19.1915 3.06731 17.8581 2.5 16.2606 2.5H7.82634Z" fill="black"/>
<path fill-rule="evenodd" clip-rule="evenodd" d="M2.54346 15.9729V10.2422H21.5425V15.9729C21.5425 17.5486 21.0507 18.9344 20.1229 19.9311C19.1912 20.9318 17.8576 21.4991 16.2596 21.4991H7.82634C6.22884 21.4991 4.89523 20.9317 3.96349 19.9311C3.0355 18.9345 2.54346 17.5487 2.54346 15.9729Z" fill="black"/>
</g>
<path fill-rule="evenodd" clip-rule="evenodd" d="M6.28906 5.80078C5.87485 5.80078 5.53906 6.13657 5.53906 6.55078C5.53906 6.96499 5.87485 7.30078 6.28906 7.30078H6.34452C6.75873 7.30078 7.09452 6.96499 7.09452 6.55078C7.09452 6.13657 6.75873 5.80078 6.34452 5.80078H6.28906ZM8.77457 5.80078C8.36036 5.80078 8.02457 6.13657 8.02457 6.55078C8.02457 6.96499 8.36036 7.30078 8.77457 7.30078H8.83003C9.24424 7.30078 9.58003 6.96499 9.58003 6.55078C9.58003 6.13657 9.24424 5.80078 8.83003 5.80078H8.77457ZM11.261 5.80078C10.8468 5.80078 10.511 6.13657 10.511 6.55078C10.511 6.96499 10.8468 7.30078 11.261 7.30078H11.3165C11.7307 7.30078 12.0665 6.96499 12.0665 6.55078C12.0665 6.13657 11.7307 5.80078 11.3165 5.80078H11.261Z" fill="black"/>
<path fill-rule="evenodd" clip-rule="evenodd" d="M14.5036 13.3179C14.7965 13.6108 14.7965 14.0857 14.5036 14.3786L13.0623 15.8198L14.5029 17.2604C14.7958 17.5533 14.7958 18.0282 14.5029 18.3211C14.21 18.6139 13.7351 18.6139 13.4422 18.3211L12.0017 16.8805L10.5589 18.3233C10.266 18.6162 9.79112 18.6162 9.49823 18.3233C9.20534 18.0304 9.20534 17.5555 9.49823 17.2626L10.941 15.8198L9.49753 14.3764C9.20463 14.0835 9.20463 13.6086 9.49753 13.3157C9.79042 13.0228 10.2653 13.0228 10.5582 13.3157L12.0017 14.7592L13.4429 13.3179C13.7358 13.025 14.2107 13.025 14.5036 13.3179Z" fill="black"/>
</svg>