<svg width="25" height="24" viewBox="0 0 25 24" fill="none" xmlns="http://www.w3.org/2000/svg">
<g opacity="0.4">
<path fill-rule="evenodd" clip-rule="evenodd" d="M8.55827 2.5C6.96482 2.5 5.63148 3.06751 4.69893 4.0677C3.77 5.06401 3.27539 6.44971 3.27539 8.02611V8.74219H22.2744V8.02611C22.2744 6.4504 21.7827 5.06463 20.8549 4.06799C19.9234 3.06731 18.59 2.5 16.9925 2.5H8.55827Z" fill="black"/>
<path d="M3.27539 10.2422V15.9729C3.27539 17.5487 3.76744 18.9345 4.69542 19.9311C5.62716 20.9317 6.96077 21.4991 8.55827 21.4991H12.0678H13.5678H16.9916C18.5895 21.4991 19.9232 20.9318 20.8548 19.9311C21.7827 18.9344 22.2744 17.5486 22.2744 15.9729V10.2422H3.27539Z" fill="black"/>
</g>
<path fill-rule="evenodd" clip-rule="evenodd" d="M7.06445 5.80078C6.65024 5.80078 6.31445 6.13657 6.31445 6.55078C6.31445 6.96499 6.65024 7.30078 7.06445 7.30078H7.11991C7.53412 7.30078 7.86991 6.96499 7.86991 6.55078C7.86991 6.13657 7.53412 5.80078 7.11991 5.80078H7.06445ZM9.54996 5.80078C9.13575 5.80078 8.79996 6.13657 8.79996 6.55078C8.79996 6.96499 9.13575 7.30078 9.54996 7.30078H9.60542C10.0196 7.30078 10.3554 6.96499 10.3554 6.55078C10.3554 6.13657 10.0196 5.80078 9.60542 5.80078H9.54996ZM12.0364 5.80078C11.6222 5.80078 11.2864 6.13657 11.2864 6.55078C11.2864 6.96499 11.6222 7.30078 12.0364 7.30078H12.0919C12.5061 7.30078 12.8419 6.96499 12.8419 6.55078C12.8419 6.13657 12.5061 5.80078 12.0919 5.80078H12.0364Z" fill="black"/>
<path d="M13.5678 21.4991V16.1047L14.8843 17.4212C15.1772 17.7141 15.652 17.7141 15.9449 17.4212C16.2378 17.1283 16.2378 16.6534 15.9449 16.3605L13.3481 13.7637C13.2074 13.623 13.0167 13.544 12.8177 13.544C12.6188 13.544 12.428 13.6231 12.2874 13.7638L9.6915 16.3606C9.39866 16.6535 9.39874 17.1284 9.69169 17.4213C9.98464 17.7141 10.4595 17.714 10.7523 17.4211L12.0678 16.1052V21.4991H13.5678Z" fill="black"/>
</svg>