<svg width="25" height="24" viewBox="0 0 25 24" fill="none" xmlns="http://www.w3.org/2000/svg">
<path fill-rule="evenodd" clip-rule="evenodd" d="M3.99676 4.09866C4.95721 3.06847 6.32446 2.49268 7.93707 2.49268H16.1258C17.7423 2.49268 19.1099 3.06816 20.0697 4.09903C21.0239 5.12385 21.5189 6.53765 21.5189 8.12224V12.059C21.5189 12.4732 21.1831 12.809 20.7689 12.809C20.3547 12.809 20.0189 12.4732 20.0189 12.059V10.2948H4.04395V15.8371C4.04395 17.1127 4.43922 18.1386 5.09094 18.8385C5.73702 19.5324 6.6909 19.9667 7.93707 19.9667H9.63689C10.0511 19.9667 10.3869 20.3025 10.3869 20.7167C10.3869 21.1309 10.0511 21.4667 9.63689 21.4667H7.93707C6.3207 21.4667 4.95301 20.8915 3.99317 19.8607C3.03896 18.836 2.54395 17.4221 2.54395 15.8371V8.12224C2.54395 6.53668 3.04175 5.12301 3.99676 4.09866ZM4.04395 8.7948H20.0189V8.12224C20.0189 6.8472 19.6237 5.82122 18.9719 5.12116C18.3257 4.42716 17.3718 3.99268 16.1258 3.99268H7.93707C6.69589 3.99268 5.74157 4.42685 5.09391 5.12153C4.44081 5.82206 4.04395 6.84817 4.04395 8.12224V8.7948ZM5.73736 6.68901C5.73736 6.2748 6.07314 5.93901 6.48736 5.93901H6.54282C6.95703 5.93901 7.29282 6.2748 7.29282 6.68901C7.29282 7.10323 6.95703 7.43901 6.54282 7.43901H6.48736C6.07314 7.43901 5.73736 7.10323 5.73736 6.68901ZM8.15084 6.68901C8.15084 6.2748 8.48662 5.93901 8.90084 5.93901H8.9563C9.37051 5.93901 9.7063 6.2748 9.7063 6.68901C9.7063 7.10323 9.37051 7.43901 8.9563 7.43901H8.90084C8.48662 7.43901 8.15084 7.10323 8.15084 6.68901ZM10.5643 6.68901C10.5643 6.2748 10.9001 5.93901 11.3143 5.93901H11.3698C11.784 5.93901 12.1198 6.2748 12.1198 6.68901C12.1198 7.10323 11.784 7.43901 11.3698 7.43901H11.3143C10.9001 7.43901 10.5643 7.10323 10.5643 6.68901ZM21.8242 15.459C22.1171 15.7519 22.1172 16.2267 21.8244 16.5197L17.0587 21.2874C16.9179 21.4281 16.727 21.5072 16.528 21.5071C16.3289 21.5071 16.1381 21.4279 15.9974 21.287L13.6846 18.9703C13.392 18.6772 13.3924 18.2023 13.6855 17.9097C13.9787 17.617 14.4535 17.6174 14.7462 17.9105L16.5286 19.6959L20.7635 15.4592C21.0563 15.1663 21.5312 15.1662 21.8242 15.459Z" fill="black"/>
</svg>