<svg width="25" height="24" viewBox="0 0 25 24" fill="none" xmlns="http://www.w3.org/2000/svg">
<path fill-rule="evenodd" clip-rule="evenodd" d="M4.19266 3.86003C5.15545 2.82724 6.52614 2.25 8.1431 2.25H16.3562C17.9766 2.25 19.3477 2.82696 20.3099 3.86036C21.2664 4.88771 21.763 6.30516 21.763 7.89418V11.8426C21.763 12.2568 21.4272 12.5926 21.013 12.5926C20.5987 12.5926 20.263 12.2568 20.263 11.8426V10.0707H4.23633V15.6324C4.23633 16.9114 4.6328 17.9411 5.28695 18.6438C5.93543 19.3405 6.89273 19.7766 8.1431 19.7766H9.84779C10.262 19.7766 10.5978 20.1124 10.5978 20.5266C10.5978 20.9408 10.262 21.2766 9.84779 21.2766H8.1431C6.52215 21.2766 5.15106 20.6994 4.18899 19.6658C3.23258 18.6383 2.73633 17.2209 2.73633 15.6324V7.89418C2.73633 6.30431 3.23532 4.88697 4.19266 3.86003ZM4.23633 8.57069H20.263V7.89418C20.263 6.61481 19.8663 5.58516 19.212 4.88253C18.5634 4.18593 17.6061 3.75 16.3562 3.75H8.1431C6.8975 3.75 5.9398 4.18565 5.28985 4.88286C4.63445 5.58591 4.23633 6.61566 4.23633 7.89418V8.57069ZM5.93926 6.45586C5.93926 6.04164 6.27504 5.70586 6.68926 5.70586H6.74472C7.15893 5.70586 7.49472 6.04164 7.49472 6.45586C7.49472 6.87007 7.15893 7.20586 6.74472 7.20586H6.68926C6.27504 7.20586 5.93926 6.87007 5.93926 6.45586ZM8.36035 6.45586C8.36035 6.04164 8.69614 5.70586 9.11035 5.70586H9.16581C9.58003 5.70586 9.91581 6.04164 9.91581 6.45586C9.91581 6.87007 9.58003 7.20586 9.16581 7.20586H9.11035C8.69614 7.20586 8.36035 6.87007 8.36035 6.45586ZM10.7814 6.45586C10.7814 6.04164 11.1172 5.70586 11.5314 5.70586H11.5869C12.0011 5.70586 12.3369 6.04164 12.3369 6.45586C12.3369 6.87007 12.0011 7.20586 11.5869 7.20586H11.5314C11.1172 7.20586 10.7814 6.87007 10.7814 6.45586ZM15.9608 15.5124C15.5905 15.2354 15.1107 15.1546 14.671 15.2952C13.9035 15.5429 13.5149 16.4203 13.8161 17.3644C14.0605 18.1225 14.7434 18.8589 15.464 19.4444C15.8113 19.7267 16.1421 19.9537 16.3859 20.1099C16.3937 20.1149 16.4015 20.1198 16.4091 20.1247C16.4179 20.1191 16.4269 20.1134 16.4359 20.1075C16.6816 19.9494 17.0146 19.7202 17.3634 19.4364C18.089 18.846 18.7682 18.1112 19.0019 17.3684L19.0029 17.3653C19.3037 16.4237 18.9145 15.5447 18.1458 15.2957C17.7069 15.158 17.2273 15.2393 16.8573 15.5141C16.591 15.7118 16.2264 15.7112 15.9608 15.5124ZM16.4101 21C16.0514 21.6586 16.0512 21.6586 16.0511 21.6585L16.0471 21.6563L16.0388 21.6517L16.0112 21.6363C15.988 21.6231 15.9552 21.6044 15.9142 21.5803C15.8321 21.5322 15.7165 21.4624 15.5768 21.3729C15.2982 21.1945 14.9194 20.9347 14.518 20.6086C13.7414 19.9775 12.7704 19.011 12.388 17.8234L12.3875 17.8218C11.9128 16.3359 12.4308 14.441 14.2118 13.8673L14.213 13.8669C14.9468 13.6318 15.7351 13.6977 16.4116 14.0352C17.0853 13.7017 17.8691 13.6356 18.5992 13.8659L18.6036 13.8672C20.3822 14.4402 20.9068 16.3325 20.4322 17.8203C20.0603 19.0004 19.0865 19.9682 18.3101 20.5999C17.9078 20.9272 17.5274 21.1889 17.2476 21.369C17.1072 21.4593 16.991 21.5298 16.9086 21.5784C16.8674 21.6028 16.8345 21.6217 16.8112 21.6349L16.7835 21.6506L16.7753 21.6551L16.7717 21.6571C16.7715 21.6572 16.771 21.6575 16.4101 21ZM16.4101 21L16.7717 21.6571C16.5477 21.78 16.2755 21.7807 16.0511 21.6585L16.4101 21Z" fill="black"/>
</svg>