<svg width="25" height="24" viewBox="0 0 25 24" fill="none" xmlns="http://www.w3.org/2000/svg">
<path fill-rule="evenodd" clip-rule="evenodd" d="M7.82634 2.5C6.23289 2.5 4.89955 3.06751 3.967 4.0677C3.03806 5.06401 2.54346 6.44971 2.54346 8.02611V8.74219H21.5425V8.02611C21.5425 6.4504 21.0507 5.06463 20.123 4.06799C19.1915 3.06731 17.8581 2.5 16.2606 2.5H7.82634ZM6.33252 5.80078C5.91831 5.80078 5.58252 6.13657 5.58252 6.55078C5.58252 6.96499 5.91831 7.30078 6.33252 7.30078H6.38798C6.80219 7.30078 7.13798 6.96499 7.13798 6.55078C7.13798 6.13657 6.80219 5.80078 6.38798 5.80078H6.33252ZM8.81803 5.80078C8.40382 5.80078 8.06803 6.13657 8.06803 6.55078C8.06803 6.96499 8.40382 7.30078 8.81803 7.30078H8.87349C9.2877 7.30078 9.62349 6.96499 9.62349 6.55078C9.62349 6.13657 9.2877 5.80078 8.87349 5.80078H8.81803ZM11.3045 5.80078C10.8903 5.80078 10.5545 6.13657 10.5545 6.55078C10.5545 6.96499 10.8903 7.30078 11.3045 7.30078H11.3599C11.7742 7.30078 12.1099 6.96499 12.1099 6.55078C12.1099 6.13657 11.7742 5.80078 11.3599 5.80078H11.3045Z" fill="black"/>
<path d="M12.4546 14.6744L12.0433 13.8545L11.6311 14.6771C11.4634 15.0097 11.1447 15.2376 10.7779 15.2876L9.87926 15.4164L10.5268 16.038C10.7955 16.2937 10.9187 16.668 10.8529 17.0376L10.6991 17.9251L11.5227 17.498C11.846 17.3285 12.2369 17.3266 12.5667 17.4989L13.3875 17.9241L13.2328 17.0367C13.167 16.6726 13.2884 16.2974 13.5598 16.0371L14.2064 15.4164L13.3032 15.2867C12.9373 15.2348 12.6195 15.006 12.4546 14.6744Z" fill="black"/>
<path fill-rule="evenodd" clip-rule="evenodd" d="M2.54346 15.9729V10.2422H21.5425V15.9729C21.5425 17.5486 21.0507 18.9344 20.1229 19.9311C19.1912 20.9318 17.8576 21.4991 16.2596 21.4991H7.82634C6.22884 21.4991 4.89523 20.9317 3.96349 19.9311C3.0355 18.9345 2.54346 17.5487 2.54346 15.9729ZM15.5633 16.0388L14.6258 16.9392L14.8481 18.2121C14.9472 18.8346 14.5285 19.4145 13.9152 19.5127C13.6725 19.5516 13.4289 19.5127 13.2093 19.3969L12.043 18.7929L10.8721 19.3997C10.7072 19.4877 10.5284 19.5294 10.3524 19.5294C9.94938 19.5294 9.55752 19.3117 9.35371 18.93C9.23976 18.7151 9.199 18.465 9.23606 18.2241L9.45932 16.9401L8.51903 16.0388C8.07437 15.6071 8.06233 14.8965 8.48846 14.4519C8.6617 14.2721 8.89422 14.1536 9.14342 14.1184L10.4496 13.9303L11.0333 12.7658C11.1787 12.4879 11.414 12.2897 11.7021 12.1989C11.9902 12.109 12.2968 12.135 12.5655 12.2749C12.7758 12.3851 12.9435 12.5528 13.05 12.7621L13.6355 13.9312L14.9417 14.1184C15.2316 14.1564 15.4957 14.3092 15.6772 14.5473C15.8597 14.7844 15.9385 15.0781 15.8986 15.3755C15.8662 15.6284 15.7467 15.8637 15.5633 16.0388Z" fill="black"/>
</svg>