<svg width="25" height="24" viewBox="0 0 25 24" fill="none" xmlns="http://www.w3.org/2000/svg">
<path d="M8.10124 3.00049H16.5355C19.4835 3.00049 21.3174 5.08157 21.3174 8.0266V15.9734C21.3174 18.9185 19.4835 20.9995 16.5345 20.9995H8.10124C5.15329 20.9995 3.31836 18.9185 3.31836 15.9734V8.0266C3.31836 5.08157 5.16205 3.00049 8.10124 3.00049Z" stroke="black" stroke-width="1.5" stroke-linecap="round" stroke-linejoin="round"/>
<path d="M8.92436 14.1123L6.97852 16.0581M8.92436 16.0581L6.97852 14.1123" stroke="black" stroke-width="1.5" stroke-linecap="round" stroke-linejoin="round"/>
<path d="M13.2915 14.1123L11.3457 16.0581M13.2915 16.0581L11.3457 14.1123" stroke="black" stroke-width="1.5" stroke-linecap="round" stroke-linejoin="round"/>
<path d="M17.6587 14.1123L15.7129 16.0581M17.6587 16.0581L15.7129 14.1123" stroke="black" stroke-width="1.5" stroke-linecap="round" stroke-linejoin="round"/>
<path opacity="0.4" d="M21.3174 9.4917H3.31836" stroke="black" stroke-width="1.5" stroke-linecap="round" stroke-linejoin="round"/>
<path opacity="0.4" d="M6.66288 6.5498H6.60742M9.14934 6.5498H9.09388M11.6348 6.5498H11.5794" stroke="black" stroke-width="1.5" stroke-linecap="round" stroke-linejoin="round"/>
</svg>