<svg width="25" height="24" viewBox="0 0 25 24" fill="none" xmlns="http://www.w3.org/2000/svg">
<path d="M9.68945 13.4414C10.3549 14.9884 11.5361 15.9175 12.8281 15.9175C14.1182 15.9175 15.2993 14.9884 15.9648 13.4414" stroke="black" stroke-width="1.5" stroke-linecap="round" stroke-linejoin="round"/>
<path d="M12.8279 15.9164L12.8275 17.3134M10.5988 14.875L9.61133 15.8625M15.0375 14.875L16.025 15.8625" stroke="black" stroke-width="1.5" stroke-linecap="round" stroke-linejoin="round"/>
<path d="M7.16288 6.55078H7.10742M9.64934 6.55078H9.59388M12.1348 6.55078H12.0794" stroke="black" stroke-width="1.5" stroke-linecap="round" stroke-linejoin="round"/>
<path d="M12.8179 20.9991H17.0345C19.9835 20.9991 21.8174 18.918 21.8174 15.9729V8.02611C21.8174 5.08108 19.9835 3 17.0355 3H8.60124C5.66205 3 3.81836 5.08108 3.81836 8.02611V15.9729C3.81836 18.918 5.65329 20.9991 8.60124 20.9991H9.28579" stroke="black" stroke-width="1.5" stroke-linecap="round" stroke-linejoin="round"/>
<path d="M18.8657 9.49219H3.81836" stroke="black" stroke-width="1.5" stroke-linecap="round" stroke-linejoin="round"/>
</svg>