<svg width="24" height="24" viewBox="0 0 24 24" fill="none" xmlns="http://www.w3.org/2000/svg">
<path d="M20.9998 12.0816V8.0273C20.9998 5.08117 19.1658 3 16.2177 3H7.78212C4.84279 3 3 5.08117 3 8.0273V12.6391" stroke="black" stroke-width="1.5" stroke-linecap="round" stroke-linejoin="round"/>
<path d="M3 15.9727C3 18.9188 4.83404 20.999 7.78212 20.999H9.53248" stroke="black" stroke-width="1.5" stroke-linecap="round" stroke-linejoin="round"/>
<path d="M6.34452 6.55078H6.28906M8.83014 6.55078H8.77468M11.3158 6.55078H11.2603" stroke="black" stroke-width="1.5" stroke-linecap="round" stroke-linejoin="round"/>
<path d="M18.2917 9.49219H2.99976" stroke="black" stroke-width="1.5" stroke-linecap="round" stroke-linejoin="round"/>
<path d="M14.4141 16.3791C14.9414 15.4577 15.929 14.8457 17.0683 14.8457C19.1106 14.8457 20.1263 16.5396 20.1263 16.5396" stroke="black" stroke-width="1.5" stroke-linecap="round" stroke-linejoin="round"/>
<path d="M19.7136 19.4291C19.1862 20.3417 18.1977 20.9527 17.069 20.9527C15.3848 20.9527 14.3496 19.2598 14.3496 19.2598" stroke="black" stroke-width="1.5" stroke-linecap="round" stroke-linejoin="round"/>
<path d="M16.2313 19.25H14.3496V21.0004" stroke="black" stroke-width="1.5" stroke-linecap="round" stroke-linejoin="round"/>
<path d="M20.1259 14.6484V16.5302H18.2441" stroke="black" stroke-width="1.5" stroke-linecap="round" stroke-linejoin="round"/>
</svg>