<svg width="25" height="24" viewBox="0 0 25 24" fill="none" xmlns="http://www.w3.org/2000/svg">
<path d="M8.60124 3.00049H17.0355C19.9835 3.00049 21.8174 5.08157 21.8174 8.0266V15.9734C21.8174 18.9185 19.9835 20.9995 17.0345 20.9995H8.60124C5.65329 20.9995 3.81836 18.9185 3.81836 15.9734V8.0266C3.81836 5.08157 5.66205 3.00049 8.60124 3.00049Z" stroke="black" stroke-width="1.5" stroke-linecap="round" stroke-linejoin="round"/>
<path d="M9.42436 14.1123L7.47852 16.0581M9.42436 16.0581L7.47852 14.1123" stroke="black" stroke-width="1.5" stroke-linecap="round" stroke-linejoin="round"/>
<path d="M13.7915 14.1123L11.8457 16.0581M13.7915 16.0581L11.8457 14.1123" stroke="black" stroke-width="1.5" stroke-linecap="round" stroke-linejoin="round"/>
<path d="M18.1587 14.1123L16.2129 16.0581M18.1587 16.0581L16.2129 14.1123" stroke="black" stroke-width="1.5" stroke-linecap="round" stroke-linejoin="round"/>
<path d="M21.8174 9.4917H3.81836" stroke="black" stroke-width="1.5" stroke-linecap="round" stroke-linejoin="round"/>
<path d="M7.16288 6.5498H7.10742M9.64934 6.5498H9.59388M12.1348 6.5498H12.0794" stroke="black" stroke-width="1.5" stroke-linecap="round" stroke-linejoin="round"/>
</svg>