<svg width="25" height="24" viewBox="0 0 25 24" fill="none" xmlns="http://www.w3.org/2000/svg">
<path fill-rule="evenodd" clip-rule="evenodd" d="M8.60173 2.5C7.00828 2.5 5.67494 3.06751 4.74239 4.0677C3.81345 5.06401 3.31885 6.44971 3.31885 8.02611V8.74219H22.3179V8.02611C22.3179 6.4504 21.8261 5.06463 20.8984 4.06799C19.9669 3.06731 18.6335 2.5 17.036 2.5H8.60173ZM7.10791 5.80078C6.6937 5.80078 6.35791 6.13657 6.35791 6.55078C6.35791 6.96499 6.6937 7.30078 7.10791 7.30078H7.16337C7.57758 7.30078 7.91337 6.96499 7.91337 6.55078C7.91337 6.13657 7.57758 5.80078 7.16337 5.80078H7.10791ZM9.59342 5.80078C9.17921 5.80078 8.84342 6.13657 8.84342 6.55078C8.84342 6.96499 9.17921 7.30078 9.59342 7.30078H9.64888C10.0631 7.30078 10.3989 6.96499 10.3989 6.55078C10.3989 6.13657 10.0631 5.80078 9.64888 5.80078H9.59342ZM12.0799 5.80078C11.6657 5.80078 11.3299 6.13657 11.3299 6.55078C11.3299 6.96499 11.6657 7.30078 12.0799 7.30078H12.1353C12.5496 7.30078 12.8853 6.96499 12.8853 6.55078C12.8853 6.13657 12.5496 5.80078 12.1353 5.80078H12.0799Z" fill="black"/>
<path fill-rule="evenodd" clip-rule="evenodd" d="M3.31885 15.9729V10.2422H22.3179V15.9729C22.3179 17.5486 21.8261 18.9344 20.8983 19.9311C19.9666 20.9318 18.633 21.4991 17.035 21.4991H8.60173C7.00423 21.4991 5.67062 20.9317 4.73888 19.9311C3.81089 18.9345 3.31885 17.5487 3.31885 15.9729ZM8.43555 12.7401C8.02133 12.7401 7.68555 13.0759 7.68555 13.4901C7.68555 13.9044 8.02133 14.2401 8.43555 14.2401H12.1562C12.5704 14.2401 12.9062 13.9044 12.9062 13.4901C12.9062 13.0759 12.5704 12.7401 12.1562 12.7401H8.43555ZM8.43555 16.1855C8.02133 16.1855 7.68555 16.5212 7.68555 16.9355C7.68555 17.3497 8.02133 17.6855 8.43555 17.6855H15.2571C15.6713 17.6855 16.0071 17.3497 16.0071 16.9355C16.0071 16.5212 15.6713 16.1855 15.2571 16.1855H8.43555Z" fill="black"/>
</svg>