<svg width="25" height="24" viewBox="0 0 25 24" fill="none" xmlns="http://www.w3.org/2000/svg">
<path opacity="0.4" fill-rule="evenodd" clip-rule="evenodd" d="M7.78288 2.5C6.18943 2.5 4.85609 3.06751 3.92354 4.0677C2.99461 5.06401 2.5 6.44971 2.5 8.02611V8.74219H21.4991V8.02611C21.4991 6.4504 21.0073 5.06463 20.0796 4.06799C19.1481 3.06731 17.8147 2.5 16.2171 2.5H7.78288Z" fill="black"/>
<path opacity="0.4" d="M2.5 15.9729V10.2422H21.4991V15.9729C21.4991 17.5486 21.0073 18.9344 20.0794 19.9311C19.1478 20.9318 17.8141 21.4991 16.2162 21.4991H7.78288C6.18538 21.4991 4.85177 20.9317 3.92003 19.9311C2.99204 18.9345 2.5 17.5487 2.5 15.9729Z" fill="black"/>
<path d="M6.28906 5.80078C5.87485 5.80078 5.53906 6.13657 5.53906 6.55078C5.53906 6.96499 5.87485 7.30078 6.28906 7.30078H6.34452C6.75873 7.30078 7.09452 6.96499 7.09452 6.55078C7.09452 6.13657 6.75873 5.80078 6.34452 5.80078H6.28906Z" fill="black"/>
<path d="M8.77457 5.80078C8.36036 5.80078 8.02457 6.13657 8.02457 6.55078C8.02457 6.96499 8.36036 7.30078 8.77457 7.30078H8.83003C9.24424 7.30078 9.58003 6.96499 9.58003 6.55078C9.58003 6.13657 9.24424 5.80078 8.83003 5.80078H8.77457Z" fill="black"/>
<path d="M11.261 5.80078C10.8468 5.80078 10.511 6.13657 10.511 6.55078C10.511 6.96499 10.8468 7.30078 11.261 7.30078H11.3165C11.7307 7.30078 12.0665 6.96499 12.0665 6.55078C12.0665 6.13657 11.7307 5.80078 11.3165 5.80078H11.261Z" fill="black"/>
<path d="M9.20654 10.2422V16.1067C9.20654 16.2944 9.35898 16.4478 9.54763 16.4478C9.6067 16.4478 9.66386 16.4326 9.71531 16.404L12.0095 15.1178L14.2828 16.4021C14.4476 16.4945 14.6553 16.4364 14.7486 16.2725C14.7772 16.221 14.7925 16.1639 14.7925 16.1048L14.7906 10.2422H9.20654Z" fill="black"/>
</svg>