<svg width="25" height="24" viewBox="0 0 25 24" fill="none" xmlns="http://www.w3.org/2000/svg">
<g opacity="0.4">
<path fill-rule="evenodd" clip-rule="evenodd" d="M7.82634 2.5C6.23289 2.5 4.89955 3.06751 3.967 4.0677C3.03806 5.06401 2.54346 6.44971 2.54346 8.02611V8.74219H21.5425V8.02611C21.5425 6.4504 21.0507 5.06463 20.123 4.06799C19.1915 3.06731 17.8581 2.5 16.2606 2.5H7.82634Z" fill="black"/>
<path fill-rule="evenodd" clip-rule="evenodd" d="M2.54346 15.9729V10.2422H21.5425V15.9729C21.5425 17.5486 21.0507 18.9344 20.1229 19.9311C19.1912 20.9318 17.8576 21.4991 16.2596 21.4991H7.82634C6.22884 21.4991 4.89523 20.9317 3.96349 19.9311C3.0355 18.9345 2.54346 17.5487 2.54346 15.9729Z" fill="black"/>
</g>
<path fill-rule="evenodd" clip-rule="evenodd" d="M6.28906 5.80078C5.87485 5.80078 5.53906 6.13657 5.53906 6.55078C5.53906 6.96499 5.87485 7.30078 6.28906 7.30078H6.34452C6.75873 7.30078 7.09452 6.96499 7.09452 6.55078C7.09452 6.13657 6.75873 5.80078 6.34452 5.80078H6.28906ZM8.77457 5.80078C8.36036 5.80078 8.02457 6.13657 8.02457 6.55078C8.02457 6.96499 8.36036 7.30078 8.77457 7.30078H8.83003C9.24424 7.30078 9.58003 6.96499 9.58003 6.55078C9.58003 6.13657 9.24424 5.80078 8.83003 5.80078H8.77457ZM11.261 5.80078C10.8468 5.80078 10.511 6.13657 10.511 6.55078C10.511 6.96499 10.8468 7.30078 11.261 7.30078H11.3165C11.7307 7.30078 12.0665 6.96499 12.0665 6.55078C12.0665 6.13657 11.7307 5.80078 11.3165 5.80078H11.261Z" fill="black"/>
<path fill-rule="evenodd" clip-rule="evenodd" d="M12.0013 12.6035C12.4156 12.6035 12.7513 12.9393 12.7513 13.3535V15.0684H14.4652C14.8795 15.0684 15.2152 15.4041 15.2152 15.8184C15.2152 16.2326 14.8795 16.5684 14.4652 16.5684H12.7513V18.2849C12.7513 18.6992 12.4156 19.0349 12.0013 19.0349C11.5871 19.0349 11.2513 18.6992 11.2513 18.2849V16.5684H9.53381C9.1196 16.5684 8.78381 16.2326 8.78381 15.8184C8.78381 15.4041 9.1196 15.0684 9.53381 15.0684H11.2513V13.3535C11.2513 12.9393 11.5871 12.6035 12.0013 12.6035Z" fill="black"/>
</svg>