<svg width="25" height="24" viewBox="0 0 25 24" fill="none" xmlns="http://www.w3.org/2000/svg">
<path fill-rule="evenodd" clip-rule="evenodd" d="M4.30112 3.84868C5.25698 2.82319 6.61768 2.25 8.22235 2.25H16.3665C17.9749 2.25 19.336 2.82288 20.2912 3.84904C21.2408 4.86913 21.7334 6.27617 21.7334 7.85266V12.7072C21.7334 13.1214 21.3976 13.4572 20.9834 13.4572C20.5692 13.4572 20.2334 13.1214 20.2334 12.7072V10.0177H4.35547V15.5252C4.35547 16.7921 4.74823 17.8114 5.39555 18.5068C6.03721 19.1961 6.98455 19.6279 8.22235 19.6279H9.91224C10.3264 19.6279 10.6622 19.9637 10.6622 20.3779C10.6622 20.7921 10.3264 21.1279 9.91224 21.1279H8.22235C6.61394 21.1279 5.25284 20.555 4.29761 19.5289C3.34804 18.5088 2.85547 17.1017 2.85547 15.5252V7.85266C2.85547 6.27523 3.35071 4.86832 4.30112 3.84868ZM4.35547 8.51766H20.2334V7.85266C20.2334 6.58575 19.8406 5.56646 19.1933 4.87107C18.5516 4.18175 17.6043 3.75 16.3665 3.75H8.22235C6.98926 3.75 6.04152 4.18144 5.39838 4.87143C4.74979 5.56727 4.35547 6.58669 4.35547 7.85266V8.51766ZM6.03018 6.42714C6.03018 6.01293 6.36596 5.67714 6.78018 5.67714H6.83372C7.24793 5.67714 7.58372 6.01293 7.58372 6.42714C7.58372 6.84136 7.24793 7.17714 6.83372 7.17714H6.78018C6.36596 7.17714 6.03018 6.84136 6.03018 6.42714ZM8.43083 6.42714C8.43083 6.01293 8.76662 5.67714 9.18083 5.67714H9.23437C9.64859 5.67714 9.98437 6.01293 9.98437 6.42714C9.98437 6.84136 9.64859 7.17714 9.23437 7.17714H9.18083C8.76662 7.17714 8.43083 6.84136 8.43083 6.42714ZM10.8306 6.42714C10.8306 6.01293 11.1664 5.67714 11.5806 5.67714H11.6341C12.0483 5.67714 12.3841 6.01293 12.3841 6.42714C12.3841 6.84136 12.0483 7.17714 11.6341 7.17714H11.5806C11.1664 7.17714 10.8306 6.84136 10.8306 6.42714ZM16.0532 15.0058C16.2604 14.9542 16.4773 14.9267 16.701 14.9267C18.1711 14.9267 19.3627 16.1183 19.3627 17.5884C19.3627 18.0027 19.6985 18.3384 20.1127 18.3384C20.5269 18.3384 20.8627 18.0027 20.8627 17.5884C20.8627 15.2899 18.9995 13.4267 16.701 13.4267C15.6453 13.4267 14.6804 13.8203 13.9474 14.4674C13.7611 14.6319 13.6683 14.8779 13.6997 15.1244C13.7311 15.3709 13.8826 15.5859 14.1041 15.6984L15.7837 16.5513C16.153 16.7389 16.6044 16.5915 16.792 16.2222C16.9795 15.8529 16.8322 15.4014 16.4629 15.2139L16.0532 15.0058ZM13.2888 16.8383C13.703 16.8383 14.0388 17.1741 14.0388 17.5883C14.0388 19.0584 15.2304 20.25 16.7005 20.25C16.924 20.25 17.1409 20.2226 17.3481 20.1708L16.9386 19.9629C16.5693 19.7753 16.4219 19.3239 16.6095 18.9546C16.797 18.5852 17.2485 18.4379 17.6178 18.6254L19.2973 19.4784C19.5189 19.5909 19.6704 19.8058 19.7017 20.0523C19.7331 20.2988 19.6404 20.5449 19.4541 20.7093C18.721 21.3565 17.7552 21.75 16.7005 21.75C14.402 21.75 12.5388 19.8868 12.5388 17.5883C12.5388 17.1741 12.8746 16.8383 13.2888 16.8383Z" fill="black"/>
</svg>