<svg width="25" height="24" viewBox="0 0 25 24" fill="none" xmlns="http://www.w3.org/2000/svg">
<path fill-rule="evenodd" clip-rule="evenodd" d="M7.82634 2.5C6.23289 2.5 4.89955 3.06751 3.967 4.0677C3.03806 5.06401 2.54346 6.44971 2.54346 8.02611V8.74219H21.5425V8.02611C21.5425 6.4504 21.0507 5.06463 20.123 4.06799C19.1915 3.06731 17.8581 2.5 16.2606 2.5H7.82634ZM6.33252 5.80078C5.91831 5.80078 5.58252 6.13657 5.58252 6.55078C5.58252 6.96499 5.91831 7.30078 6.33252 7.30078H6.38798C6.80219 7.30078 7.13798 6.96499 7.13798 6.55078C7.13798 6.13657 6.80219 5.80078 6.38798 5.80078H6.33252ZM8.81803 5.80078C8.40382 5.80078 8.06803 6.13657 8.06803 6.55078C8.06803 6.96499 8.40382 7.30078 8.81803 7.30078H8.87349C9.2877 7.30078 9.62349 6.96499 9.62349 6.55078C9.62349 6.13657 9.2877 5.80078 8.87349 5.80078H8.81803ZM11.3045 5.80078C10.8903 5.80078 10.5545 6.13657 10.5545 6.55078C10.5545 6.96499 10.8903 7.30078 11.3045 7.30078H11.3599C11.7742 7.30078 12.1099 6.96499 12.1099 6.55078C12.1099 6.13657 11.7742 5.80078 11.3599 5.80078H11.3045Z" fill="black"/>
<path d="M10.0069 16.7651L13.2553 13.2182C13.3596 13.1072 13.5333 13.1014 13.6442 13.2042L14.3304 13.8394C14.4429 13.9438 14.4484 14.1176 14.3463 14.2277L14.3432 14.2311L11.1245 17.7434L11.1177 17.751C10.9607 17.927 10.7484 18.0441 10.5146 18.0834L9.76808 18.2085C9.71164 18.2179 9.66113 18.1713 9.66739 18.1129L9.75044 17.3439C9.77388 17.1285 9.86358 16.9263 10.0069 16.7651Z" fill="black"/>
<path fill-rule="evenodd" clip-rule="evenodd" d="M2.54346 15.9729V10.2422H21.5425V15.9729C21.5425 17.5486 21.0507 18.9344 20.1229 19.9311C19.1912 20.9318 17.8576 21.4991 16.2596 21.4991H7.82634C6.22884 21.4991 4.89523 20.9317 3.96349 19.9311C3.0355 18.9345 2.54346 17.5487 2.54346 15.9729ZM12.1546 12.1992C12.8205 11.4815 13.9432 11.4367 14.6633 12.1035L15.3495 12.7387C16.0676 13.4038 16.1138 14.526 15.4477 15.246L12.2335 18.7534C11.8486 19.1832 11.3299 19.4675 10.7627 19.5628L10.0156 19.6879C8.97842 19.8613 8.06387 18.9971 8.17596 17.9528L8.25916 17.1823C8.31652 16.6544 8.53759 16.1575 8.8917 15.7619L8.89739 15.7555L12.1513 12.2028L12.1546 12.1992Z" fill="black"/>
</svg>