<svg width="25" height="24" viewBox="0 0 25 24" fill="none" xmlns="http://www.w3.org/2000/svg">
<path fill-rule="evenodd" clip-rule="evenodd" d="M3.80912 3.89729C4.79383 2.84115 6.19604 2.25 7.85149 2.25H16.2862C17.9456 2.25 19.348 2.84086 20.3318 3.89773C21.3099 4.94853 21.8184 6.39899 21.8184 8.02638V15.9736C21.8184 17.601 21.3099 19.0515 20.3316 20.1023C19.3477 21.1592 17.945 21.75 16.2852 21.75H7.85149C6.19215 21.75 4.78953 21.1592 3.8055 20.1024C2.82708 19.0516 2.31836 17.6011 2.31836 15.9736V8.02638C2.31836 6.39795 2.82983 4.9476 3.80912 3.89729ZM3.81836 10.2416V15.9736C3.81836 17.2913 4.22715 18.354 4.90328 19.0802C5.57378 19.8003 6.56273 20.25 7.85149 20.25H16.2852C17.5745 20.25 18.5634 19.8002 19.2338 19.0802C19.9098 18.3541 20.3184 17.2914 20.3184 15.9736V10.2416H3.81836ZM20.3184 8.74155H3.81836V8.02638C3.81836 6.70962 4.22878 5.64678 4.90622 4.9202C5.57824 4.19944 6.56759 3.75 7.85149 3.75H16.2862C17.5749 3.75 18.5636 4.19973 19.2339 4.91976C19.9097 5.64585 20.3184 6.70857 20.3184 8.02638V8.74155ZM5.60672 6.54983C5.60672 6.13562 5.94251 5.79983 6.35672 5.79983H6.41218C6.82639 5.79983 7.16218 6.13562 7.16218 6.54983C7.16218 6.96405 6.82639 7.29983 6.41218 7.29983H6.35672C5.94251 7.29983 5.60672 6.96405 5.60672 6.54983ZM8.09331 6.54983C8.09331 6.13562 8.4291 5.79983 8.84331 5.79983H8.89877C9.31298 5.79983 9.64877 6.13562 9.64877 6.54983C9.64877 6.96405 9.31298 7.29983 8.89877 7.29983H8.84331C8.4291 7.29983 8.09331 6.96405 8.09331 6.54983ZM10.579 6.54983C10.579 6.13562 10.9147 5.79983 11.329 5.79983H11.3844C11.7986 5.79983 12.1344 6.13562 12.1344 6.54983C12.1344 6.96405 11.7986 7.29983 11.3844 7.29983H11.329C10.9147 7.29983 10.579 6.96405 10.579 6.54983ZM12.0684 12.47C12.4826 12.47 12.8184 12.8058 12.8184 13.22V16.9971C12.8184 17.4113 12.4826 17.7471 12.0684 17.7471C11.6541 17.7471 11.3184 17.4113 11.3184 16.9971V13.22C11.3184 12.8058 11.6541 12.47 12.0684 12.47ZM8.76177 13.8867C9.17599 13.8867 9.51177 14.2225 9.51177 14.6367V16.9972C9.51177 17.4114 9.17599 17.7472 8.76177 17.7472C8.34756 17.7472 8.01177 17.4114 8.01177 16.9972V14.6367C8.01177 14.2225 8.34756 13.8867 8.76177 13.8867ZM15.3759 15.1386C15.7901 15.1386 16.1259 15.4744 16.1259 15.8886V16.9968C16.1259 17.411 15.7901 17.7468 15.3759 17.7468C14.9617 17.7468 14.6259 17.411 14.6259 16.9968V15.8886C14.6259 15.4744 14.9617 15.1386 15.3759 15.1386Z" fill="black"/>
</svg>