<svg width="24" height="24" viewBox="0 0 24 24" fill="none" xmlns="http://www.w3.org/2000/svg">
<path d="M9.21649 15.3966V15.4054M14.6853 15.8694C13.9935 16.1321 13.2395 16.2634 12.4689 16.2634C11.2867 16.2634 10.1823 15.9569 9.21906 15.4052C7.204 14.2746 5.8457 12.1107 5.8457 9.63249C5.8457 8.86091 5.97706 8.10781 6.23198 7.41602" stroke="black" stroke-width="1.5" stroke-linecap="round" stroke-linejoin="round"/>
<path d="M9.21646 15.4043L7.27146 18.7679C6.8161 19.5658 7.3853 20.5466 8.30575 20.5466H16.6365C17.4859 20.5466 18.0386 19.6884 17.7496 18.9343" stroke="black" stroke-width="1.5" stroke-linecap="round" stroke-linejoin="round"/>
<path d="M8.39453 4.41959C9.51542 3.52639 10.9263 3 12.4684 3C16.1298 3 19.0994 5.97054 19.0994 9.6319C19.0994 11.1741 18.574 12.5927 17.6808 13.7146" stroke="black" stroke-width="1.5" stroke-linecap="round" stroke-linejoin="round"/>
<path d="M11.6367 7.66928C11.8907 7.55544 12.1709 7.49414 12.4686 7.49414C13.6518 7.49414 14.615 8.44864 14.615 9.6318C14.615 9.92954 14.5537 10.2185 14.4399 10.4725" stroke="black" stroke-width="1.5" stroke-linecap="round" stroke-linejoin="round"/>
<path d="M4.18359 5.36523L19.8186 21.0002" stroke="black" stroke-width="1.5" stroke-linecap="round" stroke-linejoin="round"/>
</svg>