<svg width="25" height="24" viewBox="0 0 25 24" fill="none" xmlns="http://www.w3.org/2000/svg">
<path d="M12.4995 16.6044C16.2562 16.6044 19.3017 13.5589 19.3017 9.8022C19.3017 6.04547 16.2562 3 12.4995 3C8.74274 3 5.69824 6.04547 5.69824 9.8022C5.69824 13.5589 8.74274 16.6044 12.4995 16.6044Z" stroke="black" stroke-width="1.5" stroke-linecap="round" stroke-linejoin="round"/>
<path opacity="0.4" d="M15.8496 15.707L17.8365 19.1855C18.2947 19.995 17.71 21.0011 16.7759 21.0011H8.22716C7.28336 21.0011 6.69859 19.995 7.1666 19.1767L9.16123 15.7158" stroke="black" stroke-width="1.5" stroke-linecap="round" stroke-linejoin="round"/>
<path fill-rule="evenodd" clip-rule="evenodd" d="M14.6997 9.80249C14.6997 11.0158 13.716 12.0005 12.5017 12.0005C11.2884 12.0005 10.3047 11.0158 10.3047 9.80249C10.3047 8.58917 11.2884 7.60547 12.5017 7.60547C13.716 7.60547 14.6997 8.58917 14.6997 9.80249Z" stroke="black" stroke-width="1.5" stroke-linecap="round" stroke-linejoin="round"/>
</svg>