<svg width="25" height="24" viewBox="0 0 25 24" fill="none" xmlns="http://www.w3.org/2000/svg">
<path d="M16.5352 16.6638C15.9048 17.9335 14.492 18.4891 12.7864 18.3198C12.4439 16.08 12.0995 13.8295 11.6966 11.2006C10.0455 14.245 9.89762 18.1894 5.34994 18.3918C4.67567 14.1837 4.01113 10.0398 3.32227 5.74218C5.42097 5.85796 6.68194 6.82802 7.11783 8.51807C7.51286 10.0495 7.50897 11.6832 7.70064 13.4501C9.44908 10.5399 9.25546 6.25786 13.9608 5.60791C14.3101 8.14056 14.6457 10.571 14.9804 13.0025C15.0865 13.0268 15.9184 10.9846 16.3475 9.99115C16.7785 8.99094 17.1891 7.88856 17.9246 7.14132C18.6622 6.39213 21.1296 5.8385 21.3223 6.01267C20.2105 8.51991 19.148 11.0518 18.0123 13.5471" stroke="black" stroke-width="1.5" stroke-linecap="round" stroke-linejoin="round"/>
</svg>