<svg width="24" height="24" viewBox="0 0 24 24" fill="none" xmlns="http://www.w3.org/2000/svg">
<path fill-rule="evenodd" clip-rule="evenodd" d="M14.0913 5.01152C14.2499 5.13163 14.3543 5.30984 14.3815 5.50691C14.4861 6.26546 14.5895 7.01488 14.692 7.75793C14.8129 8.63415 14.9326 9.5015 15.0516 10.3645C15.153 10.1247 15.2493 9.89751 15.3364 9.69581C15.3842 9.58502 15.4329 9.46926 15.4832 9.34981C15.8545 8.46844 16.3103 7.38631 17.0679 6.61665L17.0679 6.61663C17.3485 6.3316 17.7398 6.11094 18.1055 5.94377C18.4859 5.76987 18.9063 5.62383 19.2987 5.51127C19.6907 5.39885 20.0739 5.31435 20.384 5.26941C20.5364 5.24733 20.6912 5.23179 20.8295 5.2319C20.8973 5.23195 20.9839 5.23561 21.0745 5.25237C21.138 5.2641 21.3313 5.3026 21.503 5.45778C21.7433 5.67503 21.8169 6.02201 21.6856 6.31815C21.2439 7.31441 20.8078 8.31962 20.3704 9.32805C19.2565 11.8956 18.1337 14.4841 16.8847 16.9989C16.0652 18.6493 14.2755 19.2547 12.39 19.0676C12.0492 19.0338 11.7745 18.7733 11.7227 18.4346C11.4957 16.9498 11.2678 15.4602 11.0226 13.8587C10.7085 14.6521 10.3739 15.4889 9.9351 16.2413C9.49093 17.0028 8.92213 17.7111 8.11728 18.2394C7.30833 18.7704 6.31087 19.0869 5.06103 19.1425C4.68031 19.1595 4.34742 18.8882 4.28713 18.5119C3.85722 15.8289 3.43128 13.172 3.00045 10.4847C2.75557 8.95719 2.50912 7.41988 2.25946 5.86235C2.22355 5.63833 2.29098 5.41009 2.44287 5.24155C2.59476 5.07301 2.81478 4.98229 3.04132 4.99479C4.1945 5.05841 5.18773 5.36071 5.96779 5.9386C6.75588 6.52242 7.26687 7.34376 7.52181 8.33223C7.70109 9.02729 7.80175 9.73222 7.87297 10.4352C8.12342 9.74767 8.39155 9.02148 8.72889 8.34727C9.13746 7.53073 9.6689 6.74293 10.4518 6.11471C11.2406 5.48177 12.2417 5.0452 13.5359 4.86643C13.7329 4.83921 13.9327 4.8914 14.0913 5.01152ZM14.0853 12.5384C14.0853 12.5384 14.086 12.5372 14.0874 12.5352C14.086 12.5374 14.0853 12.5384 14.0853 12.5384ZM9.13655 11.3483C8.83528 12.1692 8.49882 13.043 8.02128 13.8378C7.85542 14.1139 7.53183 14.2532 7.21729 14.184C6.90276 14.1149 6.66749 13.8526 6.63276 13.5324C6.57177 12.9702 6.5288 12.4031 6.48795 11.8639C6.46432 11.5522 6.44141 11.2498 6.41613 10.9631C6.34492 10.1555 6.25138 9.41258 6.06934 8.70687L6.06934 8.70685C5.88839 8.00527 5.55094 7.49655 5.0749 7.14389C4.76905 6.91732 4.38235 6.73784 3.90058 6.62325C4.09564 7.84014 4.28896 9.04595 4.4813 10.2457C4.87503 12.7017 5.2647 15.1323 5.65704 17.5807C6.34409 17.4762 6.87149 17.2628 7.29415 16.9854C7.84766 16.6221 8.27172 16.116 8.63937 15.4856C9.0122 14.8463 9.30826 14.114 9.62831 13.3055C9.64234 13.2701 9.65642 13.2345 9.67055 13.1987C9.97143 12.438 10.2963 11.6167 10.7151 10.8445C10.8686 10.5614 11.1858 10.4079 11.5031 10.4632C11.8204 10.5184 12.067 10.7701 12.1157 11.0884C12.4822 13.4803 12.8004 15.5589 13.1127 17.6012C14.3253 17.5872 15.1576 17.1042 15.5412 16.3317L15.5413 16.3317C16.7719 13.8538 17.8708 11.3206 18.9786 8.76672C19.243 8.15728 19.5079 7.54667 19.7752 6.93535C19.7543 6.94116 19.7334 6.94709 19.7123 6.95313C19.3716 7.05086 19.0248 7.17281 18.7291 7.30798C18.4187 7.44988 18.225 7.57936 18.1369 7.66892C17.5959 8.21848 17.2594 9.00913 16.8686 9.92754C16.8182 10.0461 16.7668 10.1668 16.714 10.2894L16.7137 10.29C16.6284 10.4875 16.5181 10.7483 16.3988 11.0301C16.2383 11.4094 16.0616 11.8267 15.9083 12.1792C15.7702 12.4965 15.6373 12.7935 15.5298 13.0131C15.4776 13.1198 15.4226 13.2264 15.3705 13.3121C15.3471 13.3507 15.3066 13.4145 15.2529 13.4765C15.2282 13.5049 15.1734 13.5654 15.0907 13.6213C15.0292 13.663 14.8012 13.8063 14.4905 13.735C14.1867 13.6653 13.9577 13.415 13.9152 13.1062C13.6807 11.4029 13.4458 9.70012 13.206 7.96221C13.139 7.477 13.0717 6.98905 13.0039 6.49759C12.3241 6.67638 11.805 6.95206 11.3906 7.28463C10.8318 7.73304 10.4201 8.3195 10.0703 9.01848C9.76019 9.63834 9.51558 10.3093 9.25278 11.0301C9.21451 11.1351 9.17585 11.2412 9.13655 11.3483Z" fill="black"/>
</svg>