<svg width="24" height="24" viewBox="0 0 24 24" fill="none" xmlns="http://www.w3.org/2000/svg">
<path fill-rule="evenodd" clip-rule="evenodd" d="M14.7206 13.0272H13.6576C12.8396 13.0452 12.1726 13.7242 12.1716 14.5412C12.1708 15.0991 12.1714 15.6564 12.1716 16.2142C12.1716 16.3798 12.0373 16.5142 11.8716 16.5142H8.78917C8.62367 16.5142 8.48942 16.3801 8.48936 16.2146C8.48917 15.6607 8.49048 15.1074 8.48963 14.5542C8.48863 13.7392 7.84863 13.0692 7.00963 13.0272H5.92163C5.91263 13.0272 5.90563 13.0272 5.89663 13.0272C5.08163 13.0692 4.44463 13.7402 4.44463 14.5542C4.44163 16.3632 4.44163 18.1742 4.44463 19.9852C4.44563 20.8032 5.11263 21.4832 5.94063 21.4992H7.00263C7.82163 21.4832 8.48863 20.8032 8.48963 19.9852C8.49048 19.428 8.48917 18.8709 8.48936 18.3137C8.48942 18.1482 8.62367 18.0142 8.78918 18.0142H11.8716C12.0373 18.0142 12.1716 18.1485 12.1716 18.3142C12.1714 18.8664 12.1708 19.4193 12.1716 19.9722C12.1726 20.7872 12.8126 21.4582 13.6516 21.4992H14.7406C14.7486 21.4992 14.7566 21.4992 14.7656 21.4992C15.5796 21.4582 16.2176 20.7872 16.2176 19.9722C16.2206 18.1622 16.2206 16.3512 16.2176 14.5412C16.2166 13.7242 15.5496 13.0452 14.7206 13.0272Z" fill="black"/>
<path fill-rule="evenodd" clip-rule="evenodd" d="M3.00781 15.0482C2.59381 15.0482 2.25781 15.3842 2.25781 15.7982V18.7282C2.25781 19.1422 2.59381 19.4782 3.00781 19.4782C3.42181 19.4782 3.75781 19.1422 3.75781 18.7282V15.7982C3.75781 15.3842 3.42181 15.0482 3.00781 15.0482Z" fill="black"/>
<path fill-rule="evenodd" clip-rule="evenodd" d="M17.6543 15.0482C17.2403 15.0482 16.9043 15.3842 16.9043 15.7982V18.7282C16.9043 19.1422 17.2403 19.4782 17.6543 19.4782C18.0683 19.4782 18.4043 19.1422 18.4043 18.7282V15.7982C18.4043 15.3842 18.0683 15.0482 17.6543 15.0482Z" fill="black"/>
<path fill-rule="evenodd" clip-rule="evenodd" d="M18.9434 3.78449C18.8174 2.97549 18.0524 2.40849 17.2344 2.51349L16.1844 2.67349C15.3784 2.81249 14.8214 3.58449 14.9434 4.39449C15.0265 4.94547 15.111 5.49574 15.1951 6.04589C15.2202 6.20969 15.1076 6.36273 14.9438 6.3877L11.8951 6.85228C11.7313 6.87725 11.5782 6.76462 11.5534 6.60076C11.4706 6.05443 11.3881 5.5076 11.3034 4.96149C11.1794 4.15649 10.4634 3.58249 9.61143 3.67549L8.53543 3.84049C8.52743 3.84149 8.51943 3.84249 8.51143 3.84449C7.71243 4.00649 7.18143 4.76449 7.30443 5.57049C7.57543 7.36149 7.84743 9.14949 8.12343 10.9415C8.23943 11.6825 8.89043 12.2245 9.63043 12.2245C9.69743 12.2245 9.76343 12.2205 9.83043 12.2115L10.8804 12.0505C11.6874 11.9115 12.2444 11.1395 12.1224 10.3305C12.0393 9.77908 11.954 9.22838 11.8702 8.67657C11.8454 8.51298 11.9579 8.36031 12.1215 8.33537L15.1701 7.87067C15.3338 7.84571 15.4868 7.95811 15.5117 8.12181C15.5951 8.66902 15.6776 9.21612 15.7614 9.76249C15.8774 10.5145 16.5204 11.0575 17.2844 11.0575C17.3394 11.0575 17.3954 11.0555 17.4524 11.0495L18.5294 10.8855C18.5374 10.8845 18.5464 10.8825 18.5534 10.8815C19.3524 10.7195 19.8834 9.95949 19.7604 9.15349C19.4914 7.36349 19.2174 5.57549 18.9434 3.78449Z" fill="black"/>
<path fill-rule="evenodd" clip-rule="evenodd" d="M21.292 4.69758C21.23 4.28758 20.844 4.01158 20.438 4.06958C20.028 4.13158 19.747 4.51458 19.81 4.92458L20.251 7.81958C20.308 8.19058 20.627 8.45558 20.991 8.45558C21.029 8.45558 21.067 8.45258 21.105 8.44758C21.515 8.38558 21.796 8.00258 21.733 7.59258L21.292 4.69758Z" fill="black"/>
<path fill-rule="evenodd" clip-rule="evenodd" d="M6.51271 10.6639C6.55071 10.6639 6.58871 10.6609 6.62671 10.6549C7.03571 10.5929 7.31771 10.2099 7.25471 9.80089L6.81371 6.90589C6.75071 6.49589 6.36571 6.21989 5.95871 6.27789C5.54971 6.33989 5.26871 6.72289 5.33071 7.13189L5.77271 10.0269C5.82871 10.3979 6.14871 10.6639 6.51271 10.6639Z" fill="black"/>
</svg>