<svg width="24" height="24" viewBox="0 0 24 24" fill="none" xmlns="http://www.w3.org/2000/svg">
<path fill-rule="evenodd" clip-rule="evenodd" d="M5.9215 13.5283C5.3752 13.5555 4.94359 14.0085 4.94359 14.5558C4.94068 16.3648 4.94068 18.1748 4.94359 19.9849C4.94457 20.537 5.38783 20.989 5.93997 20.9997H6.99273C7.54487 20.989 7.98814 20.537 7.98911 19.9849C7.99203 18.1748 7.99203 16.3648 7.98911 14.5558C7.98814 14.0085 7.55751 13.5555 7.01023 13.5283H5.9215Z" stroke="black" stroke-width="1.5" stroke-linecap="round" stroke-linejoin="round"/>
<path fill-rule="evenodd" clip-rule="evenodd" d="M14.7397 20.9997C15.286 20.9735 15.7176 20.5195 15.7176 19.9722C15.7205 18.1632 15.7205 16.3532 15.7176 14.5432C15.7167 13.991 15.2734 13.54 14.7212 13.5283H13.6685C13.1163 13.54 12.6731 13.991 12.6721 14.5432C12.6692 16.3532 12.6692 18.1632 12.6721 19.9722C12.6731 20.5195 13.1037 20.9735 13.651 20.9997H14.7397Z" stroke="black" stroke-width="1.5" stroke-linecap="round" stroke-linejoin="round"/>
<path d="M7.99219 17.2646H12.6416M12.673 17.2646H8.02351" stroke="black" stroke-width="1.5" stroke-linecap="round" stroke-linejoin="round"/>
<path d="M3.00781 18.7287V15.7988" stroke="black" stroke-width="1.5" stroke-linecap="round" stroke-linejoin="round"/>
<path d="M17.6543 15.7988V18.7287" stroke="black" stroke-width="1.5" stroke-linecap="round" stroke-linejoin="round"/>
<path fill-rule="evenodd" clip-rule="evenodd" d="M8.61136 4.33466C8.07478 4.44353 7.71705 4.95679 7.79871 5.49726C8.06895 7.28685 8.3421 9.07548 8.6172 10.8651C8.70177 11.4104 9.20822 11.7895 9.7555 11.7176L10.7956 11.5591C11.34 11.4648 11.7103 10.9516 11.6277 10.4062C11.3585 8.61568 11.0853 6.82706 10.8102 5.03844C10.7266 4.49699 10.2328 4.11497 9.68843 4.17038L8.61136 4.33466Z" stroke="black" stroke-width="1.5" stroke-linecap="round" stroke-linejoin="round"/>
<path fill-rule="evenodd" clip-rule="evenodd" d="M18.4544 10.3917C18.991 10.2828 19.3487 9.76955 19.267 9.22907C18.9968 7.43948 18.7237 5.65086 18.4486 3.86224C18.364 3.31593 17.8575 2.93682 17.3102 3.00875L16.2701 3.1672C15.7258 3.26149 15.3554 3.77475 15.4371 4.32106C15.7073 6.11065 15.9804 7.89927 16.2555 9.68789C16.3391 10.2293 16.833 10.6123 17.3773 10.556L18.4544 10.3917Z" stroke="black" stroke-width="1.5" stroke-linecap="round" stroke-linejoin="round"/>
<path d="M11.2207 7.71514C12.7537 7.48184 14.275 7.24952 15.8177 7.01428M15.8471 7.00977C14.3141 7.24306 12.7928 7.47539 11.2501 7.71063" stroke="black" stroke-width="1.5" stroke-linecap="round" stroke-linejoin="round"/>
<path d="M20.5508 4.81152L20.9921 7.70734" stroke="black" stroke-width="1.5" stroke-linecap="round" stroke-linejoin="round"/>
<path d="M6.51359 9.91535L6.07227 7.01953" stroke="black" stroke-width="1.5" stroke-linecap="round" stroke-linejoin="round"/>
</svg>