<svg width="24" height="24" viewBox="0 0 24 24" fill="none" xmlns="http://www.w3.org/2000/svg">
<g opacity="0.4">
<path fill-rule="evenodd" clip-rule="evenodd" d="M20.8468 8.78461C20.5978 8.53261 15.4928 3.42161 15.1518 3.09161C14.3468 2.31161 13.2198 2.30061 12.4108 3.06461C12.0178 3.43461 11.6368 3.81961 11.2638 4.20961C10.5148 4.98961 10.5268 6.24661 11.2888 7.01261C13.1788 8.90861 15.0718 10.7996 16.9678 12.6916C17.3618 13.0846 17.8778 13.2826 18.3958 13.2826C18.8808 13.2826 19.3678 13.1086 19.7548 12.7576C20.1678 12.3826 20.5628 11.9876 20.9298 11.5836C21.7208 10.7126 21.6888 9.63961 20.8468 8.78461Z" fill="black"/>
<path fill-rule="evenodd" clip-rule="evenodd" d="M7.0114 11.2906C6.2454 10.5266 4.9894 10.5146 4.2094 11.2646C3.8194 11.6376 3.4344 12.0186 3.0634 12.4106C2.2994 13.2206 2.3104 14.3476 3.0964 15.1576L8.7834 20.8476C9.2264 21.2826 9.7264 21.5006 10.2274 21.5006C10.6954 21.5006 11.1624 21.3116 11.5834 20.9306C11.9914 20.5596 12.3864 20.1636 12.7574 19.7546C13.4814 18.9556 13.4504 17.7306 12.6894 16.9686C10.7994 15.0726 8.9074 13.1806 7.0114 11.2906Z" fill="black"/>
</g>
<path fill-rule="evenodd" clip-rule="evenodd" d="M3.85472 17.6279C3.56172 17.3349 3.08672 17.3349 2.79372 17.6279C2.50072 17.9209 2.50072 18.3959 2.79372 18.6889L5.31272 21.2069C5.45872 21.3529 5.65072 21.4259 5.84272 21.4259C6.03472 21.4259 6.22672 21.3529 6.37272 21.2069C6.66572 20.9139 6.66572 20.4389 6.37272 20.1459L3.85472 17.6279Z" fill="black"/>
<path fill-rule="evenodd" clip-rule="evenodd" d="M20.1447 6.37395C20.2907 6.51995 20.4827 6.59395 20.6747 6.59395C20.8667 6.59395 21.0587 6.51995 21.2057 6.37395C21.4987 6.08095 21.4987 5.60595 21.2057 5.31295L18.6867 2.79495C18.3947 2.50195 17.9197 2.50195 17.6267 2.79495C17.3337 3.08795 17.3337 3.56295 17.6267 3.85595L20.1447 6.37395Z" fill="black"/>
<path fill-rule="evenodd" clip-rule="evenodd" d="M12.7737 9.30996C12.7697 9.30596 12.7647 9.30096 12.7597 9.29696C12.5647 9.11496 12.2577 9.11896 12.0667 9.30996L9.38966 11.987C9.19466 12.182 9.19466 12.498 9.38966 12.694C9.39466 12.698 9.39866 12.703 9.40366 12.707L11.3067 14.61C11.4007 14.704 11.5277 14.757 11.6607 14.757C11.7937 14.757 11.9197 14.704 12.0137 14.61L14.6907 11.934C14.7847 11.84 14.8367 11.713 14.8367 11.581C14.8367 11.448 14.7847 11.321 14.6907 11.227L12.7737 9.30996Z" fill="black"/>
</svg>