<svg width="24" height="24" viewBox="0 0 24 24" fill="none" xmlns="http://www.w3.org/2000/svg">
<path fill-rule="evenodd" clip-rule="evenodd" d="M6.36362 11.6279C5.75362 11.0189 4.76562 11.0089 4.14262 11.6069C3.73862 11.9959 3.33862 12.3909 2.95262 12.7989C2.33762 13.4519 2.35162 14.3169 2.97662 14.9629C3.19103 15.1851 3.57067 15.5632 3.8091 15.7996C3.92729 15.9168 3.92787 16.1077 3.81025 16.2255L3.17662 16.8599C2.63062 17.4049 2.63062 18.2899 3.17662 18.8359L5.16362 20.8229C5.70762 21.3679 6.59362 21.3679 7.13962 20.8229L7.77285 20.1881C7.89022 20.0705 8.08064 20.0704 8.19792 20.1882C8.42179 20.4129 8.7702 20.762 8.97762 20.9669C9.66962 21.6459 10.4966 21.6829 11.2066 21.0379C11.6266 20.6569 12.0296 20.2549 12.4116 19.8349C12.9856 19.2009 12.9596 18.2249 12.3576 17.6199C10.3626 15.6189 8.36462 13.6219 6.36362 11.6279Z" fill="black"/>
<path fill-rule="evenodd" clip-rule="evenodd" d="M20.9655 8.97798C20.7613 8.77058 20.4125 8.42263 20.1878 8.19906C20.0701 8.08187 20.07 7.89152 20.1874 7.77405L20.8215 7.13998C21.3675 6.59398 21.3675 5.70898 20.8215 5.16398L18.8355 3.17698C18.2905 2.63098 17.4045 2.63098 16.8595 3.17698L16.226 3.8105C16.1083 3.92818 15.9174 3.92772 15.8001 3.80962C15.5634 3.57119 15.1848 3.19144 14.9625 2.97698C14.3165 2.35198 13.4505 2.33798 12.7985 2.95398C12.3905 3.33898 11.9955 3.73798 11.6065 4.14298C11.0095 4.76598 11.0175 5.75298 11.6265 6.36398C13.6215 8.36498 15.6185 10.363 17.6195 12.357C18.2255 12.961 19.2005 12.986 19.8335 12.412C20.2545 12.031 20.6585 11.626 21.0385 11.207C21.6845 10.497 21.6465 9.66998 20.9655 8.97798Z" fill="black"/>
<path fill-rule="evenodd" clip-rule="evenodd" d="M12.6848 9.13809C12.5368 8.99309 12.2948 8.99909 12.1488 9.14509C10.7628 10.5311 10.4918 10.8031 9.11775 12.1771C8.96875 12.3261 8.96675 12.5721 9.11775 12.7191L11.3197 14.8681C11.4677 15.0131 11.7048 15.0121 11.8518 14.8651C13.0868 13.6301 14.3557 12.3621 14.8947 11.8231C15.0437 11.6741 15.0387 11.4341 14.8877 11.2871L12.6848 9.13809Z" fill="black"/>
</svg>