<svg width="24" height="24" viewBox="0 0 24 24" fill="none" xmlns="http://www.w3.org/2000/svg">
<path d="M12.0044 21.7351C10.4844 21.7351 8.96441 21.3751 7.61441 20.6951C7.51441 20.6451 7.44441 20.6551 7.42441 20.6651C6.61441 20.8551 5.31441 21.1751 4.36441 21.4151C3.85441 21.5451 3.32441 21.4051 2.95441 21.0351C2.58441 20.6651 2.4244 20.1451 2.5444 19.6351C2.7844 18.6151 3.1044 17.1851 3.2644 16.4751C3.2744 16.4151 3.26442 16.3551 3.24442 16.3051C2.58442 14.8951 2.25439 13.4451 2.25439 11.9951C2.25439 9.09514 3.5444 6.35514 5.7944 4.49514C8.0344 2.63514 10.9744 1.88513 13.8544 2.42513C17.7444 3.15513 20.8444 6.2551 21.5744 10.1451C22.1144 13.0251 21.3644 15.9651 19.5044 18.2051C17.6344 20.4551 14.9044 21.7451 12.0044 21.7451V21.7351ZM7.4744 19.1551C7.7544 19.1551 8.02439 19.2251 8.28439 19.3551C9.42439 19.9351 10.7144 20.2351 11.9944 20.2351C14.4444 20.2351 16.7644 19.1451 18.3444 17.2351C19.9144 15.3351 20.5544 12.8551 20.0944 10.4051C19.4744 7.11511 16.8544 4.49515 13.5644 3.88515C11.1244 3.42515 8.63441 4.06515 6.73441 5.63515C4.83441 7.21515 3.73441 9.53513 3.73441 11.9851C3.73441 13.2151 4.01441 14.4551 4.58441 15.6651C4.75441 16.0251 4.79442 16.4151 4.71442 16.7951C4.55442 17.5051 4.23442 18.9451 3.99442 19.9651C4.94442 19.7151 6.2544 19.3851 7.0744 19.1951C7.2044 19.1651 7.33442 19.1451 7.46442 19.1451L7.4744 19.1551Z" fill="black"/>
<path d="M13.9945 16.7629C12.6745 16.7629 11.1245 15.9629 9.5845 14.4329C7.1145 11.9629 6.53449 9.46289 8.07449 7.92289L8.20449 7.79289C8.63449 7.37289 9.21448 7.15287 9.81448 7.21287C10.4145 7.26287 10.9445 7.57291 11.2845 8.07291L11.7445 8.73289C12.2545 9.45289 12.2345 10.4029 11.7245 11.0929C12.0845 11.5829 12.4145 11.9429 12.8945 12.2929C13.5845 11.7729 14.5445 11.7529 15.2645 12.2629L15.9245 12.7229C16.4145 13.0629 16.7245 13.6029 16.7845 14.2029C16.8345 14.8029 16.6245 15.3829 16.1945 15.8029L16.0645 15.9329C15.4845 16.5029 14.7845 16.7929 13.9945 16.7929V16.7629ZM9.62447 8.69291C9.52447 8.69291 9.38448 8.72287 9.25448 8.84287L9.12447 8.97288C8.06447 10.0429 9.20448 11.9429 10.6345 13.3729C12.0445 14.7829 13.9245 15.9129 14.9945 14.8529L15.1245 14.7229C15.2745 14.5729 15.2845 14.4029 15.2745 14.3129C15.2745 14.2229 15.2245 14.0529 15.0545 13.9329L14.3945 13.4729C14.1845 13.3229 13.9045 13.3529 13.7245 13.5229L13.4845 13.7529C13.2445 13.9929 12.8645 14.0429 12.5745 13.8629C11.4145 13.1729 10.8445 12.5029 10.1245 11.4229C9.92447 11.1229 9.9645 10.7329 10.2145 10.4829L10.4445 10.2429C10.6245 10.0629 10.6445 9.78291 10.4945 9.57291L10.0345 8.91288C9.91448 8.74288 9.74447 8.70291 9.65447 8.69291C9.64447 8.69291 9.62449 8.69291 9.60449 8.69291H9.62447Z" fill="black"/>
</svg>