<svg width="24" height="25" viewBox="0 0 24 25" fill="none" xmlns="http://www.w3.org/2000/svg">
<path fill-rule="evenodd" clip-rule="evenodd" d="M14.51 14.0668L14.407 13.9958C14.198 13.8498 13.909 13.8688 13.736 14.0408L13.504 14.2748C13.262 14.5208 12.881 14.5678 12.584 14.3898C11.432 13.6958 10.857 13.0258 10.138 11.9568C9.941 11.6628 9.976 11.2698 10.223 11.0158L10.456 10.7758C10.639 10.5888 10.661 10.3098 10.512 10.0928C10.353 9.87077 10.198 9.64777 10.05 9.43477C9.964 9.31277 9.823 9.23277 9.668 9.21977C9.655 9.21877 9.64 9.21777 9.623 9.21777C9.529 9.21777 9.385 9.24377 9.261 9.36877L9.136 9.49477L9.133 9.49777C8.071 10.5628 9.218 12.4688 10.646 13.8978C12.056 15.3028 13.944 16.4308 15.006 15.3668L15.153 15.2288C15.282 15.0978 15.291 14.9228 15.283 14.8328C15.275 14.7418 15.236 14.5728 15.065 14.4538C14.881 14.3218 14.7 14.1978 14.51 14.0668Z" fill="black"/>
<path fill-rule="evenodd" clip-rule="evenodd" d="M16.1957 16.3073L16.0477 16.4473C15.4677 17.0243 14.7667 17.3093 13.9857 17.3093C12.6777 17.3093 11.1457 16.5133 9.58671 14.9593C7.11071 12.4833 6.52971 9.98526 8.06871 8.44026L8.19571 8.31226C8.62071 7.88626 9.21271 7.67026 9.79671 7.72526C10.3947 7.77726 10.9347 8.08726 11.2797 8.57726C11.4257 8.78826 11.5777 9.00526 11.7397 9.23126C12.2437 9.96126 12.2207 10.9123 11.7187 11.6013C12.0777 12.0903 12.4117 12.4513 12.8877 12.7963C13.5797 12.2793 14.5347 12.2573 15.2617 12.7633L15.3607 12.8303C15.5597 12.9683 15.7497 13.0983 15.9317 13.2303C16.4127 13.5643 16.7237 14.1023 16.7777 14.6983C16.8317 15.2963 16.6187 15.8823 16.1957 16.3073ZM21.3317 10.6963C20.6197 6.90926 17.5957 3.88626 13.8087 3.17626C10.9957 2.64726 8.13471 3.38526 5.95271 5.19526C3.75871 7.01526 2.50171 9.68026 2.50171 12.5083C2.50171 13.9303 2.82571 15.3433 3.46371 16.7043C3.51571 16.8223 3.53171 16.9413 3.50771 17.0513C3.35171 17.7603 3.02471 19.1873 2.78871 20.2073C2.68971 20.6383 2.81971 21.0783 3.13371 21.3833C3.44471 21.6853 3.88471 21.8043 4.30471 21.6933C5.25571 21.4533 6.55871 21.1343 7.37671 20.9433C7.48371 20.9183 7.60171 20.9333 7.72471 20.9943C9.04371 21.6583 10.5227 22.0083 12.0017 22.0083C14.8277 22.0083 17.4917 20.7513 19.3097 18.5603C21.1227 16.3773 21.8587 13.5103 21.3317 10.6963Z" fill="black"/>
</svg>