<svg width="24" height="24" viewBox="0 0 24 24" fill="none" xmlns="http://www.w3.org/2000/svg">
<path d="M12.0044 21.7351C10.4844 21.7351 8.96438 21.3751 7.61438 20.6951C7.51438 20.6451 7.44438 20.6551 7.42438 20.6651C6.61438 20.8551 5.31438 21.1751 4.36438 21.4151C3.85438 21.5451 3.32441 21.4051 2.95441 21.0351C2.58441 20.6651 2.42437 20.1451 2.54437 19.6351C2.78437 18.6151 3.1044 17.1851 3.2644 16.4751C3.2744 16.4151 3.26438 16.3551 3.24438 16.3051C2.58438 14.8951 2.25439 13.4451 2.25439 11.9951C2.25439 9.09514 3.54437 6.35514 5.79437 4.49514C8.03437 2.63514 10.9744 1.88513 13.8544 2.42513C17.7444 3.15513 20.8444 6.2551 21.5744 10.1451C22.1144 13.0251 21.3644 15.9651 19.5044 18.2051C17.6344 20.4551 14.9044 21.7451 12.0044 21.7451V21.7351ZM7.47443 19.1551C7.75443 19.1551 8.02442 19.2251 8.28442 19.3551C9.42442 19.9351 10.7144 20.2351 11.9944 20.2351C14.4444 20.2351 16.7644 19.1451 18.3444 17.2351C19.9144 15.3351 20.5544 12.8551 20.0944 10.4051C19.4744 7.11511 16.8544 4.49515 13.5644 3.88515C11.1244 3.42515 8.63438 4.06515 6.73438 5.63515C4.83437 7.21515 3.73438 9.53513 3.73438 11.9851C3.73438 13.2151 4.01441 14.4551 4.58441 15.6651C4.75441 16.0251 4.79442 16.4151 4.71442 16.7951C4.55442 17.5051 4.23438 18.9451 3.99438 19.9651C4.94438 19.7151 6.2544 19.3851 7.0744 19.1951C7.2044 19.1651 7.33442 19.1451 7.46442 19.1451L7.47443 19.1551Z" fill="black"/>
<path d="M12.765 16.6437H9.85504C9.18504 16.6437 8.64502 16.1038 8.64502 15.4338V8.55377C8.64502 7.88377 9.18504 7.34375 9.85504 7.34375H12.765C14.195 7.34375 15.355 8.55376 15.355 10.0438C15.355 10.8138 15.045 11.5038 14.555 11.9938C15.045 12.4838 15.355 13.1838 15.355 13.9438C15.355 15.4338 14.195 16.6437 12.765 16.6437ZM10.145 15.1437H12.765C13.365 15.1437 13.855 14.6038 13.855 13.9438C13.855 13.2838 13.365 12.7438 12.765 12.7438H10.145V15.1537V15.1437ZM10.145 11.2338H12.765C13.365 11.2338 13.855 10.6938 13.855 10.0338C13.855 9.37375 13.365 8.83374 12.765 8.83374H10.145V11.2438V11.2338Z" fill="black"/>
</svg>