<svg width="25" height="24" viewBox="0 0 25 24" fill="none" xmlns="http://www.w3.org/2000/svg">
<path d="M19.4988 11.2518V15.9356C19.4988 18.2279 18.1954 19.6554 15.9051 19.6554H9.09919C6.80886 19.6554 5.50098 18.2279 5.50098 15.9346V11.2518C5.50098 8.95955 6.80862 7.5332 9.09895 7.5332H15.9047C18.1951 7.5332 19.4988 8.96636 19.4988 11.2518Z" stroke="black" stroke-width="1.5" stroke-linecap="round" stroke-linejoin="round"/>
<path d="M9.10156 16.2503V11.0732" stroke="black" stroke-width="1.5" stroke-linecap="round" stroke-linejoin="round"/>
<path d="M12.502 16.2503V11.0732" stroke="black" stroke-width="1.5" stroke-linecap="round" stroke-linejoin="round"/>
<path d="M15.9082 16.2503V11.0732" stroke="black" stroke-width="1.5" stroke-linecap="round" stroke-linejoin="round"/>
<path opacity="0.4" d="M15.9055 19.6553L15.9056 20.9999M9.09961 19.6553L9.09969 20.9999" stroke="black" stroke-width="1.5" stroke-linecap="round" stroke-linejoin="round"/>
<path opacity="0.4" d="M15.5351 7.53298V4.63067C15.5351 3.72971 14.8054 3 13.9054 3H11.0965C10.1965 3 9.4668 3.72971 9.4668 4.63067V7.53298" stroke="black" stroke-width="1.5" stroke-linecap="round" stroke-linejoin="round"/>
</svg>