<svg width="25" height="24" viewBox="0 0 25 24" fill="none" xmlns="http://www.w3.org/2000/svg">
<path d="M19.4988 11.2518C19.4988 8.96636 18.1951 7.5332 15.9047 7.5332H9.09895C6.80862 7.5332 5.50098 8.95955 5.50098 11.2518V15.9346C5.50098 18.2279 6.80886 19.6554 9.09919 19.6554H15.9051C18.1954 19.6554 19.4988 18.2279 19.4988 15.9356V14.3835" stroke="black" stroke-width="1.5" stroke-linecap="round" stroke-linejoin="round"/>
<path d="M9.10156 16.2503V11.0732" stroke="black" stroke-width="1.5" stroke-linecap="round" stroke-linejoin="round"/>
<path d="M12.502 16.2503V11.0732" stroke="black" stroke-width="1.5" stroke-linecap="round" stroke-linejoin="round"/>
<path d="M15.9082 16.2503V11.0732" stroke="black" stroke-width="1.5" stroke-linecap="round" stroke-linejoin="round"/>
<path d="M15.9055 19.6553L15.9056 20.9999M9.09961 19.6553L9.09969 20.9999" stroke="black" stroke-width="1.5" stroke-linecap="round" stroke-linejoin="round"/>
<path d="M15.5351 7.53298V4.63067C15.5351 3.72971 14.8054 3 13.9054 3H11.0965C10.1965 3 9.4668 3.72971 9.4668 4.63067V7.53298" stroke="black" stroke-width="1.5" stroke-linecap="round" stroke-linejoin="round"/>
</svg>