<svg width="25" height="25" viewBox="0 0 25 25" fill="none" xmlns="http://www.w3.org/2000/svg">
<path d="M3.76855 10.2462H8.29149L9.19624 9.23755C9.57559 8.81463 10.1169 8.573 10.6851 8.573H13.8166C14.3848 8.573 14.9261 8.81464 15.3055 9.2376L16.2101 10.2462H20.7332" stroke="black" stroke-width="1.5" stroke-linecap="round" stroke-linejoin="round"/>
<path d="M21.25 12.8848C21.25 7.9142 17.2206 3.88477 12.25 3.88477C7.27944 3.88477 3.25 7.9142 3.25 12.8848C3.25 17.8553 7.27944 21.8848 12.25 21.8848" stroke="black" stroke-width="1.5" stroke-linecap="round" stroke-linejoin="round"/>
<path d="M3.47251 14.4775C8.25525 14.4775 10.2422 16.9942 10.2422 21.6433" stroke="black" stroke-width="1.5" stroke-linecap="round" stroke-linejoin="round"/>
<circle cx="12.25" cy="13.9694" r="1.5" stroke="black" stroke-width="1.5" stroke-linecap="round" stroke-linejoin="round"/>
<path fill-rule="evenodd" clip-rule="evenodd" d="M19.7974 21.8848H16.8706C16.0686 21.8848 15.418 21.2342 15.418 20.4322V18.7896C15.418 17.9876 16.0686 17.337 16.8706 17.337H19.7974C20.5994 17.337 21.25 17.9876 21.25 18.7896V20.4322C21.25 21.2342 20.5994 21.8848 19.7974 21.8848Z" stroke="black" stroke-width="1.5" stroke-linecap="round" stroke-linejoin="round"/>
<path d="M16.5879 17.3634V16.2756C16.6039 15.3307 17.3673 14.5701 18.3122 14.5579C18.7721 14.5525 19.1928 14.7251 19.5083 15.0118" stroke="black" stroke-width="1.5" stroke-linecap="round" stroke-linejoin="round"/>
</svg>