<svg width="25" height="25" viewBox="0 0 25 25" fill="none" xmlns="http://www.w3.org/2000/svg">
<path opacity="0.4" d="M3.7684 10.2462H8.29134L9.19608 9.23755C9.57544 8.81463 10.1168 8.573 10.6849 8.573H13.8165C14.3846 8.573 14.926 8.81464 15.3053 9.2376L16.21 10.2462H20.733" stroke="black" stroke-width="1.5" stroke-linecap="round" stroke-linejoin="round"/>
<path d="M21.1737 11.7072C20.5968 7.29309 16.8214 3.88477 12.25 3.88477C7.27944 3.88477 3.25 7.9142 3.25 12.8848C3.25 17.597 6.87156 21.4635 11.4832 21.8526" stroke="black" stroke-width="1.5" stroke-linecap="round" stroke-linejoin="round"/>
<path opacity="0.4" d="M3.4723 14.4775C8.25503 14.4775 10.242 16.9942 10.242 21.6433" stroke="black" stroke-width="1.5" stroke-linecap="round" stroke-linejoin="round"/>
<circle cx="12.25" cy="13.9694" r="1.5" stroke="black" stroke-width="1.5" stroke-linecap="round" stroke-linejoin="round"/>
<path d="M19.7197 17.0411L19.7107 17.0501" stroke="black" stroke-width="1.5" stroke-linecap="round" stroke-linejoin="round"/>
<path d="M14.6682 20.1158L16.8315 17.9538C16.7916 17.7723 16.7643 17.5893 16.7643 17.3958C16.7643 15.9498 17.9365 14.7777 19.3824 14.7777C20.8283 14.7777 22.0004 15.9498 22.0004 17.3958C22.0004 18.8417 20.8283 20.0138 19.3824 20.0138C19.1017 20.0138 18.8302 19.9696 18.5767 19.8878L18.0377 20.4256L16.6563 21.7845C16.5316 21.9093 16.3919 22.1026 16.2163 22.1026L14.8932 22.1026C14.7175 22.1026 14.5751 21.9602 14.5751 21.7845V20.3407C14.5751 20.2563 14.6086 20.1754 14.6682 20.1158Z" stroke="black" stroke-width="1.5" stroke-linecap="round" stroke-linejoin="round"/>
</svg>