<svg width="25" height="25" viewBox="0 0 25 25" fill="none" xmlns="http://www.w3.org/2000/svg">
<path fill-rule="evenodd" clip-rule="evenodd" d="M10.6848 9.323C10.3297 9.323 9.9914 9.47402 9.7543 9.73834L8.84956 10.747C8.7073 10.9056 8.5043 10.9962 8.29125 10.9962H3.76831C3.3541 10.9962 3.01831 10.6604 3.01831 10.2462C3.01831 9.83199 3.3541 9.4962 3.76831 9.4962H7.95648L8.63768 8.73676L9.19065 9.23275L8.63769 8.73676C9.1593 8.15524 9.90363 7.823 10.6848 7.823H13.8164C14.5976 7.823 15.3419 8.15526 15.8636 8.73682L16.5447 9.4962H20.7329C21.1471 9.4962 21.4829 9.83199 21.4829 10.2462C21.4829 10.6604 21.1471 10.9962 20.7329 10.9962H16.2099C15.9968 10.9962 15.7938 10.9056 15.6516 10.747L14.7469 9.73837C14.5098 9.47403 14.1715 9.323 13.8164 9.323H10.6848Z" fill="black"/>
<path fill-rule="evenodd" clip-rule="evenodd" d="M12.25 4.63477C7.69365 4.63477 4 8.32842 4 12.8848C4 17.204 7.3197 20.7486 11.5463 21.1052C11.959 21.14 12.2654 21.5029 12.2306 21.9156C12.1957 22.3284 11.8329 22.6347 11.4202 22.5999C6.42341 22.1783 2.5 17.9901 2.5 12.8848C2.5 7.49999 6.86522 3.13477 12.25 3.13477C17.203 3.13477 21.2923 6.82731 21.9173 11.61C21.971 12.0208 21.6816 12.3972 21.2708 12.4509C20.8601 12.5046 20.4837 12.2151 20.43 11.8044C19.9013 7.75886 16.4399 4.63477 12.25 4.63477Z" fill="black"/>
<path fill-rule="evenodd" clip-rule="evenodd" d="M8.09438 16.8201C9.01151 17.8342 9.49194 19.4072 9.49194 21.6433C9.49194 22.0575 9.82773 22.3933 10.2419 22.3933C10.6562 22.3933 10.9919 22.0575 10.9919 21.6433C10.9919 19.2303 10.4789 17.2205 9.2069 15.8139C7.9211 14.3922 5.98946 13.7275 3.47228 13.7275C3.05807 13.7275 2.72228 14.0633 2.72228 14.4775C2.72228 14.8918 3.05807 15.2275 3.47228 15.2275C5.73784 15.2275 7.19103 15.8212 8.09438 16.8201Z" fill="black"/>
<path fill-rule="evenodd" clip-rule="evenodd" d="M12.25 13.2194C11.8358 13.2194 11.5 13.5551 11.5 13.9694C11.5 14.3836 11.8358 14.7194 12.25 14.7194C12.6642 14.7194 13 14.3836 13 13.9694C13 13.5551 12.6642 13.2194 12.25 13.2194ZM10 13.9694C10 12.7267 11.0074 11.7194 12.25 11.7194C13.4926 11.7194 14.5 12.7267 14.5 13.9694C14.5 15.212 13.4926 16.2194 12.25 16.2194C11.0074 16.2194 10 15.212 10 13.9694Z" fill="black"/>
<path fill-rule="evenodd" clip-rule="evenodd" d="M20.2502 16.5109C19.9573 16.218 19.4825 16.2179 19.1895 16.5107L19.1805 16.5197C18.8876 16.8125 18.8875 17.2874 19.1803 17.5803C19.4732 17.8733 19.948 17.8734 20.241 17.5805L20.2499 17.5716C20.5429 17.2788 20.543 16.8039 20.2502 16.5109Z" fill="black"/>
<path fill-rule="evenodd" clip-rule="evenodd" d="M19.3825 15.5277C18.3508 15.5277 17.5144 16.3641 17.5144 17.3958C17.5144 17.518 17.5315 17.6443 17.5641 17.7931C17.619 18.0429 17.5427 18.3035 17.3617 18.4843L15.3252 20.5197V21.3526L16.0324 21.3526L16.0609 21.3219C16.0791 21.3025 16.1016 21.2787 16.1261 21.2542L16.1304 21.2498L17.5099 19.8929L18.0471 19.3569C18.2461 19.1583 18.5395 19.0877 18.8071 19.174C18.9869 19.232 19.1806 19.2638 19.3825 19.2638C20.4142 19.2638 21.2505 18.4274 21.2505 17.3958C21.2505 16.3641 20.4142 15.5277 19.3825 15.5277ZM15.957 21.4299C15.957 21.4298 15.9575 21.4295 15.9584 21.4288L15.957 21.4299ZM16.0144 17.3958C16.0144 15.5356 17.5224 14.0277 19.3825 14.0277C21.2426 14.0277 22.7505 15.5356 22.7505 17.3958C22.7505 19.2559 21.2426 20.7638 19.3825 20.7638C19.1878 20.7638 18.9962 20.7472 18.8094 20.7152L18.5638 20.9603L17.1849 22.3167C17.173 22.3286 17.1626 22.3398 17.1451 22.3587C17.1353 22.3693 17.1232 22.3823 17.1074 22.3993C17.0707 22.4384 17.016 22.496 16.9517 22.5527C16.8392 22.652 16.5844 22.8526 16.2164 22.8526L14.8933 22.8526C14.3034 22.8526 13.8252 22.3744 13.8252 21.7845V20.3407C13.8252 20.0575 13.9377 19.7858 14.1379 19.5855L16.03 17.6946C16.0202 17.5988 16.0144 17.4992 16.0144 17.3958Z" fill="black"/>
</svg>