<svg width="25" height="25" viewBox="0 0 25 25" fill="none" xmlns="http://www.w3.org/2000/svg">
<path opacity="0.4" d="M3.7684 10.2462H8.29134L9.19608 9.23755C9.57544 8.81463 10.1168 8.573 10.6849 8.573H13.8165C14.3846 8.573 14.926 8.81464 15.3053 9.2376L16.21 10.2462H20.733" stroke="black" stroke-width="1.5" stroke-linecap="round" stroke-linejoin="round"/>
<path d="M21.25 12.8848C21.25 7.9142 17.2206 3.88477 12.25 3.88477C7.27944 3.88477 3.25 7.9142 3.25 12.8848C3.25 17.8553 7.27944 21.8848 12.25 21.8848" stroke="black" stroke-width="1.5" stroke-linecap="round" stroke-linejoin="round"/>
<path opacity="0.4" d="M3.4723 14.4775C8.25503 14.4775 10.242 16.9942 10.242 21.6433" stroke="black" stroke-width="1.5" stroke-linecap="round" stroke-linejoin="round"/>
<circle cx="12.25" cy="13.9694" r="1.5" stroke="black" stroke-width="1.5" stroke-linecap="round" stroke-linejoin="round"/>
<path fill-rule="evenodd" clip-rule="evenodd" d="M19.7974 21.8848H16.8705C16.0685 21.8848 15.4179 21.2342 15.4179 20.4322V18.7896C15.4179 17.9876 16.0685 17.337 16.8705 17.337H19.7974C20.5994 17.337 21.25 17.9876 21.25 18.7896V20.4322C21.25 21.2342 20.5994 21.8848 19.7974 21.8848Z" stroke="black" stroke-width="1.5" stroke-linecap="round" stroke-linejoin="round"/>
<path d="M20.0807 17.3634V16.2822C20.0685 15.3185 19.2768 14.5466 18.3121 14.5579C17.3672 14.5701 16.6038 15.3307 16.5878 16.2756V17.3634" stroke="black" stroke-width="1.5" stroke-linecap="round" stroke-linejoin="round"/>
</svg>