<svg width="24" height="24" viewBox="0 0 24 24" fill="none" xmlns="http://www.w3.org/2000/svg">
<path fill-rule="evenodd" clip-rule="evenodd" d="M15.351 16.8303C15.351 14.5273 13.4839 12.6602 11.1809 12.6602C8.87785 12.6602 7.00977 14.5273 7.00977 16.8303C7.00977 19.1333 8.87785 21.0004 11.1809 21.0004C13.4839 21.0004 15.351 19.1333 15.351 16.8303Z" stroke="black" stroke-width="1.5" stroke-linecap="round" stroke-linejoin="round"/>
<path d="M15.2578 15.7031H16.4361C16.98 15.7031 17.4557 16.068 17.5968 16.5924L18.5727 20.206" stroke="black" stroke-width="1.5" stroke-linecap="round" stroke-linejoin="round"/>
<path d="M5.42773 9.77344H7.36587L8.34856 13.7694" stroke="black" stroke-width="1.5" stroke-linecap="round" stroke-linejoin="round"/>
<path d="M10.0781 10.4141C10.4216 9.67077 10.7115 9.43142 11.092 9.14926C11.9024 8.54603 13.0369 8.59468 13.7987 9.25532C14.1052 9.51996 14.4282 10.0327 14.6744 10.4793C14.9595 10.995 15.5102 11.3063 16.0998 11.3063H17.064" stroke="black" stroke-width="1.5" stroke-linecap="round" stroke-linejoin="round"/>
<path fill-rule="evenodd" clip-rule="evenodd" d="M14.2725 4.71144C14.2725 3.76669 13.5058 3 12.561 3C11.6163 3 10.8496 3.76669 10.8496 4.71144C10.8496 5.65716 11.6163 6.42288 12.561 6.42288C13.5058 6.42288 14.2725 5.65716 14.2725 4.71144Z" stroke="black" stroke-width="1.5" stroke-linecap="round" stroke-linejoin="round"/>
</svg>