<svg width="25" height="24" viewBox="0 0 25 24" fill="none" xmlns="http://www.w3.org/2000/svg">
<path fill-rule="evenodd" clip-rule="evenodd" d="M3.13281 8.37768C3.13281 5.88619 5.15182 3.86719 7.6433 3.86719H16.9234C19.4149 3.86719 21.4339 5.88619 21.4339 8.37768V13.4711C21.4339 15.9626 19.4149 17.9816 16.9234 17.9816H7.6433C5.15182 17.9816 3.13281 15.9626 3.13281 13.4711V8.37768ZM7.6433 5.36719C5.98025 5.36719 4.63281 6.71462 4.63281 8.37768V13.4711C4.63281 15.1342 5.98025 16.4816 7.6433 16.4816H16.9234C18.5864 16.4816 19.9339 15.1342 19.9339 13.4711V8.37768C19.9339 6.71462 18.5864 5.36719 16.9234 5.36719H7.6433Z" fill="black"/>
<path fill-rule="evenodd" clip-rule="evenodd" d="M12.2832 2.25C12.6974 2.25 13.0332 2.58579 13.0332 3V4.62873C13.0332 5.04295 12.6974 5.37873 12.2832 5.37873C11.869 5.37873 11.5332 5.04295 11.5332 4.62873V3C11.5332 2.58579 11.869 2.25 12.2832 2.25Z" fill="black"/>
<path fill-rule="evenodd" clip-rule="evenodd" d="M12.2843 16.5078C12.4856 16.5078 12.6784 16.5887 12.8194 16.7324L16.4914 20.4724C16.7816 20.768 16.7772 21.2429 16.4816 21.5331C16.1861 21.8232 15.7112 21.8189 15.421 21.5233L12.2842 18.3283L9.14644 21.5234C8.85621 21.8189 8.38136 21.8232 8.08582 21.533C7.79029 21.2428 7.78599 20.7679 8.07622 20.4724L11.7491 16.7323C11.8902 16.5887 12.083 16.5078 12.2843 16.5078Z" fill="black"/>
</svg>