<svg width="24" height="24" viewBox="0 0 24 24" fill="none" xmlns="http://www.w3.org/2000/svg">
<path fill-rule="evenodd" clip-rule="evenodd" d="M10.2695 6.04419C9.97649 6.33719 9.97649 6.81219 10.2695 7.10519C10.5625 7.39819 11.0375 7.39819 11.3305 7.10519C11.7365 6.69719 12.2635 6.69719 12.6695 7.10519C12.8165 7.25119 13.0075 7.32419 13.2005 7.32419C13.3925 7.32419 13.5835 7.25119 13.7305 7.10519C14.0235 6.81219 14.0235 6.33719 13.7305 6.04419C12.7445 5.05819 11.2555 5.05819 10.2695 6.04419Z" fill="black"/>
<path fill-rule="evenodd" clip-rule="evenodd" d="M10.1299 5.00541C11.1439 3.99141 12.8569 3.99141 13.8699 5.00541C14.0169 5.15141 14.2089 5.22441 14.4009 5.22441C14.5929 5.22441 14.7839 5.15141 14.9309 5.00541C15.2239 4.71241 15.2239 4.23641 14.9309 3.94341C13.3429 2.35741 10.6569 2.35741 9.06887 3.94341C8.77587 4.23641 8.77587 4.71241 9.06887 5.00541C9.36087 5.29741 9.83587 5.29741 10.1299 5.00541Z" fill="black"/>
<path opacity="0.4" fill-rule="evenodd" clip-rule="evenodd" d="M21.4987 17.2336C21.4987 17.1636 21.3487 9.88356 18.1887 8.23356C18.1887 8.23356 18.1787 8.22356 18.1687 8.22356L18.0587 8.17356C17.3887 7.86356 15.6087 7.04356 13.5887 8.30356C12.1587 9.19356 11.7687 9.11356 10.4087 8.29356C8.32869 7.06356 6.66869 7.83356 5.96869 8.16356L5.80869 8.23356C2.66869 9.87356 2.49869 17.1536 2.49869 17.2036C2.48869 17.9436 2.42869 20.1836 4.34869 20.9636C4.84869 21.1536 5.34869 21.2436 5.82869 21.2436C6.54869 21.2436 7.21869 21.0336 7.76869 20.6236C8.12869 20.3636 8.32869 20.0836 8.50869 19.8436C8.73869 19.5236 8.95869 19.2236 9.56869 18.8736C10.6087 18.2736 13.5187 18.3636 14.4387 18.8736C14.9587 19.1636 15.1787 19.4636 15.4487 19.8036C15.6587 20.0736 15.8787 20.3536 16.2387 20.6236C17.1487 21.3036 18.3987 21.4336 19.6687 20.9636C21.5687 20.1836 21.5187 17.9436 21.4987 17.2336Z" fill="black"/>
<path fill-rule="evenodd" clip-rule="evenodd" d="M17.3587 14.3641C16.9487 14.3641 16.6087 14.0341 16.6087 13.6241C16.6087 13.2141 16.9487 12.8841 17.3587 12.8841C17.7687 12.8841 18.0987 13.2141 18.0987 13.6241C18.0987 14.0341 17.7687 14.3641 17.3587 14.3641ZM15.8987 15.8241C15.4887 15.8241 15.1487 15.4941 15.1487 15.0841C15.1487 14.6741 15.4887 14.3441 15.8987 14.3441C16.3087 14.3441 16.6387 14.6741 16.6387 15.0841C16.6387 15.4941 16.3087 15.8241 15.8987 15.8241ZM14.4387 14.3641C14.0287 14.3641 13.6887 14.0341 13.6887 13.6241C13.6887 13.2141 14.0287 12.8841 14.4387 12.8841C14.8487 12.8841 15.1787 13.2141 15.1787 13.6241C15.1787 14.0341 14.8487 14.3641 14.4387 14.3641ZM15.8987 11.4141C16.3087 11.4141 16.6387 11.7541 16.6387 12.1641C16.6387 12.5741 16.3087 12.9041 15.8987 12.9041C15.4887 12.9041 15.1487 12.5741 15.1487 12.1641C15.1487 11.7541 15.4887 11.4141 15.8987 11.4141ZM9.28867 14.4241H8.63867V15.0741C8.63867 15.4841 8.29867 15.8241 7.88867 15.8241C7.47867 15.8241 7.13867 15.4841 7.13867 15.0741V14.4241H6.38867C5.97867 14.4241 5.63867 14.0841 5.63867 13.6741C5.63867 13.2541 5.97867 12.9241 6.38867 12.9241H7.13867V12.1741C7.13867 11.7541 7.47867 11.4241 7.88867 11.4241C8.29867 11.4241 8.63867 11.7541 8.63867 12.1741V12.9241H9.28867C9.69867 12.9241 10.0387 13.2541 10.0387 13.6741C10.0387 14.0841 9.69867 14.4241 9.28867 14.4241Z" fill="black"/>
</svg>