<svg width="25" height="24" viewBox="0 0 25 24" fill="none" xmlns="http://www.w3.org/2000/svg">
<path d="M18.4613 8.53569C17.8873 8.27979 16.2585 7.39634 14.3525 8.58531C12.7159 9.60693 12.1039 9.4532 10.6484 8.58531C8.65766 7.39926 7.11356 8.27979 6.53951 8.53569C3.74416 9.99709 3.49703 16.7826 3.50287 17.0784C3.47076 18.386 3.69162 19.8144 5.01973 20.3553C6.27097 20.8165 7.29356 20.582 7.96685 20.0829C8.69561 19.5419 8.62555 18.9864 9.82133 18.2975C11.0161 17.6077 14.1335 17.7108 15.1795 18.2975C16.2264 18.8832 16.3052 19.5419 17.033 20.0829C17.7073 20.582 18.7289 20.8165 19.9801 20.3553C21.3092 19.8144 21.5301 18.386 21.497 17.0784C21.5038 16.7826 21.2566 9.99709 18.4613 8.53569Z" stroke="black" stroke-width="1.5" stroke-linecap="round" stroke-linejoin="round"/>
<path opacity="0.4" d="M15.0723 13.4661V13.4561" stroke="black" stroke-width="1.5" stroke-linecap="round" stroke-linejoin="round"/>
<path opacity="0.4" d="M17.9414 13.4661V13.4561" stroke="black" stroke-width="1.5" stroke-linecap="round" stroke-linejoin="round"/>
<path opacity="0.4" d="M16.5017 12.0264L16.5117 12.0264" stroke="black" stroke-width="1.5" stroke-linecap="round" stroke-linejoin="round"/>
<path opacity="0.4" d="M16.5017 14.8955L16.5117 14.8955" stroke="black" stroke-width="1.5" stroke-linecap="round" stroke-linejoin="round"/>
<path opacity="0.4" d="M8.50311 12.0205V14.8898M9.93765 13.4562H7.06836" stroke="black" stroke-width="1.5" stroke-linecap="round" stroke-linejoin="round"/>
<path opacity="0.4" d="M11.3066 6.51258C11.9653 5.85388 13.0346 5.85388 13.6933 6.51258" stroke="black" stroke-width="1.5" stroke-linecap="round" stroke-linejoin="round"/>
<path opacity="0.4" d="M10.1152 4.38454C11.4336 3.06713 13.5703 3.06713 14.8886 4.38454" stroke="black" stroke-width="1.5" stroke-linecap="round" stroke-linejoin="round"/>
</svg>