<svg width="24" height="24" viewBox="0 0 24 24" fill="none" xmlns="http://www.w3.org/2000/svg">
<path fill-rule="evenodd" clip-rule="evenodd" d="M7.95455 6.699C7.95455 6.285 8.29055 5.949 8.70455 5.949H11.5046C11.9186 5.949 12.2546 6.285 12.2546 6.699C12.2546 7.113 11.9186 7.449 11.5046 7.449H8.70455C8.29055 7.449 7.95455 7.113 7.95455 6.699ZM13.5167 20.6504C13.5005 20.5114 13.4017 20.3944 13.2678 20.3539C12.8501 20.2278 12.4598 19.9906 12.1446 19.644C11.7711 19.2341 11.5674 18.733 11.517 18.2205C11.5035 18.0837 11.4102 17.9661 11.28 17.9217C10.8385 17.771 10.4339 17.4979 10.1256 17.103C9.27455 16.015 9.46655 14.444 10.5546 13.594C12.3034 12.2246 14.4855 11.6139 16.6252 11.75C16.8023 11.7613 16.9556 11.623 16.9556 11.4456V6.599C16.9556 4.339 15.1166 2.5 12.8556 2.5H7.35555C5.09455 2.5 3.25555 4.339 3.25555 6.599V17.399C3.25555 19.66 5.09455 21.5 7.35555 21.5H12.8556C13.0243 21.5 13.1899 21.4883 13.3527 21.4672C13.5451 21.4422 13.6467 21.2328 13.5943 21.0461C13.558 20.9172 13.5323 20.7841 13.5167 20.6504Z" fill="black"/>
<path fill-rule="evenodd" clip-rule="evenodd" d="M20.457 14.9717C17.9 12.9717 14.189 12.9717 11.632 14.9717C11.306 15.2277 11.249 15.6987 11.504 16.0247C11.652 16.2137 11.873 16.3127 12.095 16.3127C12.257 16.3127 12.42 16.2607 12.557 16.1537C14.578 14.5727 17.512 14.5717 19.532 16.1537C19.858 16.4087 20.33 16.3517 20.585 16.0247C20.84 15.6987 20.783 15.2277 20.457 14.9717Z" fill="black"/>
<path fill-rule="evenodd" clip-rule="evenodd" d="M13.4902 17.4078C13.1832 17.6858 13.1612 18.1608 13.4392 18.4678C13.7192 18.7738 14.1942 18.7968 14.4992 18.5168C15.3102 17.7798 16.6792 17.7808 17.4902 18.5168C17.6342 18.6478 17.8142 18.7128 17.9942 18.7128C18.1982 18.7128 18.4012 18.6298 18.5492 18.4678C18.8282 18.1608 18.8052 17.6858 18.4992 17.4078C17.1182 16.1528 14.8712 16.1508 13.4902 17.4078Z" fill="black"/>
<path fill-rule="evenodd" clip-rule="evenodd" d="M15.4648 19.833C15.3248 19.973 15.2448 20.163 15.2448 20.362C15.2448 20.463 15.2648 20.562 15.3048 20.652C15.3448 20.743 15.3948 20.822 15.4648 20.893C15.6048 21.032 15.7948 21.112 15.9948 21.112C16.1948 21.112 16.3848 21.032 16.5248 20.893C16.6648 20.753 16.7448 20.562 16.7448 20.362C16.7448 20.163 16.6648 19.973 16.5248 19.833C16.2448 19.553 15.7448 19.553 15.4648 19.833Z" fill="black"/>
</svg>