<svg width="24" height="24" viewBox="0 0 24 24" fill="none" xmlns="http://www.w3.org/2000/svg">
<path fill-rule="evenodd" clip-rule="evenodd" d="M10.2695 6.04419C9.97649 6.33719 9.97649 6.81219 10.2695 7.10519C10.5625 7.39819 11.0375 7.39819 11.3305 7.10519C11.7365 6.69719 12.2635 6.69719 12.6695 7.10519C12.8165 7.25119 13.0075 7.32419 13.2005 7.32419C13.3925 7.32419 13.5835 7.25119 13.7305 7.10519C14.0235 6.81219 14.0235 6.33719 13.7305 6.04419C12.7445 5.05819 11.2555 5.05819 10.2695 6.04419Z" fill="black"/>
<path fill-rule="evenodd" clip-rule="evenodd" d="M10.1299 5.00541C11.1439 3.99141 12.8569 3.99141 13.8699 5.00541C14.0169 5.15141 14.2089 5.22441 14.4009 5.22441C14.5929 5.22441 14.7839 5.15141 14.9309 5.00541C15.2239 4.71241 15.2239 4.23641 14.9309 3.94341C13.3429 2.35741 10.6569 2.35741 9.06887 3.94341C8.77587 4.23641 8.77587 4.71241 9.06887 5.00541C9.36087 5.29741 9.83587 5.29741 10.1299 5.00541Z" fill="black"/>
<path fill-rule="evenodd" clip-rule="evenodd" d="M17.3587 14.3636C16.9487 14.3636 16.6087 14.0336 16.6087 13.6236C16.6087 13.2136 16.9487 12.8836 17.3587 12.8836C17.7687 12.8836 18.0987 13.2136 18.0987 13.6236C18.0987 14.0336 17.7687 14.3636 17.3587 14.3636ZM15.8987 15.8236C15.4887 15.8236 15.1487 15.4936 15.1487 15.0836C15.1487 14.6736 15.4887 14.3436 15.8987 14.3436C16.3087 14.3436 16.6387 14.6736 16.6387 15.0836C16.6387 15.4936 16.3087 15.8236 15.8987 15.8236ZM14.4387 14.3636C14.0287 14.3636 13.6887 14.0336 13.6887 13.6236C13.6887 13.2136 14.0287 12.8836 14.4387 12.8836C14.8487 12.8836 15.1787 13.2136 15.1787 13.6236C15.1787 14.0336 14.8487 14.3636 14.4387 14.3636ZM15.8987 11.4136C16.3087 11.4136 16.6387 11.7536 16.6387 12.1636C16.6387 12.5736 16.3087 12.9036 15.8987 12.9036C15.4887 12.9036 15.1487 12.5736 15.1487 12.1636C15.1487 11.7536 15.4887 11.4136 15.8987 11.4136ZM9.28869 14.4236H8.63869V15.0736C8.63869 15.4836 8.29869 15.8236 7.88869 15.8236C7.47869 15.8236 7.13869 15.4836 7.13869 15.0736V14.4236H6.38869C5.97869 14.4236 5.63869 14.0836 5.63869 13.6736C5.63869 13.2536 5.97869 12.9236 6.38869 12.9236H7.13869V12.1736C7.13869 11.7536 7.47869 11.4236 7.88869 11.4236C8.29869 11.4236 8.63869 11.7536 8.63869 12.1736V12.9236H9.28869C9.69869 12.9236 10.0387 13.2536 10.0387 13.6736C10.0387 14.0836 9.69869 14.4236 9.28869 14.4236ZM21.4987 17.2336C21.4987 17.1636 21.3487 9.88356 18.1887 8.23356C18.1887 8.23356 18.1787 8.22356 18.1687 8.22356L18.0587 8.17356C17.3887 7.86356 15.6087 7.04356 13.5887 8.30356C12.1587 9.19356 11.7687 9.11356 10.4087 8.29356C8.32869 7.06356 6.66869 7.83356 5.96869 8.16356L5.80869 8.23356C2.66869 9.87356 2.49869 17.1536 2.49869 17.2036C2.48869 17.9436 2.42869 20.1836 4.34869 20.9636C4.84869 21.1536 5.34869 21.2436 5.82869 21.2436C6.54869 21.2436 7.21869 21.0336 7.76869 20.6236C8.12869 20.3636 8.32869 20.0836 8.50869 19.8436C8.73869 19.5236 8.95869 19.2236 9.56869 18.8736C10.6087 18.2736 13.5187 18.3636 14.4387 18.8736C14.9587 19.1636 15.1787 19.4636 15.4487 19.8036C15.6587 20.0736 15.8787 20.3536 16.2387 20.6236C17.1487 21.3036 18.3987 21.4336 19.6687 20.9636C21.5687 20.1836 21.5187 17.9436 21.4987 17.2336Z" fill="black"/>
</svg>