<svg width="25" height="24" viewBox="0 0 25 24" fill="none" xmlns="http://www.w3.org/2000/svg">
<path fill-rule="evenodd" clip-rule="evenodd" d="M3.76172 6.61849C3.76172 4.20592 5.71737 2.25 8.12923 2.25H13.645C16.0567 2.25 18.0124 4.20568 18.0125 6.61731C18.0125 6.61738 18.0125 6.61724 18.0125 6.61731L18.0135 10.1813C18.0136 10.5955 17.6779 10.9314 17.2637 10.9315C16.8495 10.9316 16.5136 10.5959 16.5135 10.1817L16.5125 6.61772C16.5125 5.03442 15.2283 3.75 13.645 3.75H8.12923C6.54609 3.75 5.26176 5.03405 5.26172 6.61842C5.26172 6.61844 5.26172 6.6184 5.26172 6.61842L5.26269 17.3824C5.26269 18.9657 6.54691 20.25 8.13021 20.25H10.045C10.4592 20.25 10.795 20.5858 10.795 21C10.795 21.4142 10.4592 21.75 10.045 21.75H8.13021C5.7185 21.75 3.76273 19.7943 3.76269 17.3826C3.76269 17.3825 3.76269 17.3826 3.76269 17.3826L3.76172 6.61849Z" fill="black"/>
<path fill-rule="evenodd" clip-rule="evenodd" d="M8.74609 6.68848C8.74609 6.27426 9.08188 5.93848 9.49609 5.93848H12.2798C12.694 5.93848 13.0298 6.27426 13.0298 6.68848C13.0298 7.10269 12.694 7.43848 12.2798 7.43848H9.49609C9.08188 7.43848 8.74609 7.10269 8.74609 6.68848Z" fill="black"/>
<path fill-rule="evenodd" clip-rule="evenodd" d="M19.5207 16.632C17.5014 15.0146 14.6132 15.0146 12.5939 16.632C12.2706 16.891 11.7986 16.8388 11.5397 16.5156C11.2807 16.1923 11.3329 15.7203 11.6561 15.4613C14.2235 13.4048 17.8911 13.4048 20.4585 15.4613C20.7817 15.7203 20.8339 16.1923 20.5749 16.5156C20.316 16.8388 19.844 16.891 19.5207 16.632Z" fill="black"/>
<path fill-rule="evenodd" clip-rule="evenodd" d="M17.5785 19.0451C16.7054 18.3078 15.4108 18.3095 14.5457 19.0483C14.2307 19.3173 13.7573 19.28 13.4883 18.9651C13.2193 18.6501 13.2566 18.1767 13.5716 17.9077C14.9988 16.6889 17.1154 16.6906 18.5463 17.8992C18.8628 18.1665 18.9026 18.6397 18.6354 18.9561C18.3681 19.2725 17.8949 19.3124 17.5785 19.0451Z" fill="black"/>
<path fill-rule="evenodd" clip-rule="evenodd" d="M16.0625 20.1396C16.4767 20.1396 16.8125 20.4754 16.8125 20.8896V20.9042C16.8125 21.3185 16.4767 21.6542 16.0625 21.6542C15.6483 21.6542 15.3125 21.3185 15.3125 20.9042V20.8896C15.3125 20.4754 15.6483 20.1396 16.0625 20.1396Z" fill="black"/>
</svg>