<svg width="25" height="24" viewBox="0 0 25 24" fill="none" xmlns="http://www.w3.org/2000/svg">
<path fill-rule="evenodd" clip-rule="evenodd" d="M10.6 4.40186C10.209 4.40186 9.85838 4.5708 9.61603 4.84208C9.34007 5.15098 8.86595 5.17768 8.55705 4.90172C8.24815 4.62576 8.22144 4.15164 8.4974 3.84274C9.01304 3.26555 9.76522 2.90186 10.6 2.90186C12.1578 2.90186 13.4208 4.16444 13.4208 5.72181C13.4208 7.25947 12.2626 8.54262 10.6 8.54262H5.77832C5.36411 8.54262 5.02832 8.20683 5.02832 7.79262C5.02832 7.37841 5.36411 7.04262 5.77832 7.04262H10.6C11.394 7.04262 11.9208 6.47177 11.9208 5.72181C11.9208 4.99327 11.3298 4.40186 10.6 4.40186Z" fill="black"/>
<path fill-rule="evenodd" clip-rule="evenodd" d="M5.7168 15.1484C5.7168 14.7342 6.05258 14.3984 6.4668 14.3984H16.5994C18.5868 14.3984 19.9487 15.9207 19.9487 17.7488C19.9487 19.5981 18.4502 21.0981 16.5994 21.0981C15.4427 21.0981 14.4234 20.5111 13.8225 19.6223C13.5906 19.2791 13.6807 18.8129 14.0239 18.5809C14.367 18.3489 14.8333 18.4391 15.0652 18.7823C15.3991 19.2761 15.9618 19.5981 16.5994 19.5981C17.6213 19.5981 18.4487 18.77 18.4487 17.7488C18.4487 16.7042 17.7141 15.8984 16.5994 15.8984H6.4668C6.05258 15.8984 5.7168 15.5627 5.7168 15.1484Z" fill="black"/>
<path fill-rule="evenodd" clip-rule="evenodd" d="M2.86426 11.4707C2.86426 11.0565 3.20004 10.7207 3.61426 10.7207H11.392C11.8062 10.7207 12.142 11.0565 12.142 11.4707C12.142 11.8849 11.8062 12.2207 11.392 12.2207H3.61426C3.20004 12.2207 2.86426 11.8849 2.86426 11.4707Z" fill="black"/>
<path fill-rule="evenodd" clip-rule="evenodd" d="M18.8675 6.72656C18.298 6.72656 17.7856 6.96379 17.4211 7.34655C17.1355 7.64651 16.6607 7.65811 16.3608 7.37246C16.0608 7.08681 16.0492 6.61208 16.3349 6.31212C16.9707 5.64446 17.8706 5.22656 18.8675 5.22656C20.7992 5.22656 22.3642 6.79312 22.3642 8.72417C22.3642 9.64867 22.0554 10.5214 21.4368 11.1721C20.8137 11.8275 19.9276 12.2034 18.8799 12.2207L18.8675 12.221V12.2209H14.0459C13.6317 12.2209 13.2959 11.8851 13.2959 11.4709C13.2959 11.0566 13.6317 10.7209 14.0459 10.7209H18.8609C19.55 10.7082 20.0353 10.4692 20.3497 10.1386C20.6695 9.80218 20.8642 9.31591 20.8642 8.72417C20.8642 7.62088 19.9701 6.72656 18.8675 6.72656Z" fill="black"/>
<path fill-rule="evenodd" clip-rule="evenodd" d="M4.09668 18.5527C4.09668 18.1385 4.43247 17.8027 4.84668 17.8027H9.97656C10.3908 17.8027 10.7266 18.1385 10.7266 18.5527C10.7266 18.9669 10.3908 19.3027 9.97656 19.3027H4.84668C4.43247 19.3027 4.09668 18.9669 4.09668 18.5527Z" fill="black"/>
</svg>