<svg width="25" height="24" viewBox="0 0 25 24" fill="none" xmlns="http://www.w3.org/2000/svg">
<path d="M20.5605 6.66916C19.4978 6.02304 18.1341 6.02306 17.0713 6.6692C16.0086 7.31534 14.6449 7.31534 13.5821 6.6692C12.5194 6.02306 11.1556 6.02306 10.0929 6.6692C9.03014 7.31534 7.66643 7.31534 6.60368 6.6692C5.54092 6.02306 4.17721 6.02306 3.11446 6.6692" stroke="black" stroke-width="1.5" stroke-linecap="round" stroke-linejoin="round"/>
<path d="M3.11438 12.4846C4.17713 11.8385 5.54084 11.8385 6.6036 12.4846C7.66635 13.1308 9.03006 13.1308 10.0928 12.4846C11.1556 11.8385 12.5193 11.8385 13.582 12.4846" stroke="black" stroke-width="1.5" stroke-linecap="round" stroke-linejoin="round"/>
<path d="M20.5605 18.3C19.4978 17.6539 18.1341 17.6539 17.0713 18.3001C16.0086 18.9462 14.6449 18.9462 13.5821 18.3001C12.5194 17.6539 11.1556 17.6539 10.0929 18.3001C9.03014 18.9462 7.66643 18.9462 6.60368 18.3001C5.54092 17.6539 4.17721 17.6539 3.11446 18.3001" stroke="black" stroke-width="1.5" stroke-linecap="round" stroke-linejoin="round"/>
<path d="M18.7494 8.36132L21.1143 6.19503L18.7266 4.00781" stroke="black" stroke-width="1.5" stroke-linecap="round" stroke-linejoin="round"/>
<path d="M18.7494 19.9922L21.1143 17.8259L18.7266 15.6387" stroke="black" stroke-width="1.5" stroke-linecap="round" stroke-linejoin="round"/>
<path d="M11.7719 14.1767L14.1368 12.0105L11.749 9.82324" stroke="black" stroke-width="1.5" stroke-linecap="round" stroke-linejoin="round"/>
</svg>