<svg width="25" height="24" viewBox="0 0 25 24" fill="none" xmlns="http://www.w3.org/2000/svg">
<path opacity="0.4" fill-rule="evenodd" clip-rule="evenodd" d="M12.5 2.5C7.261 2.5 3 6.762 3 12C3 17.238 7.261 21.5 12.5 21.5C17.738 21.5 22 17.238 22 12C22 6.762 17.738 2.5 12.5 2.5Z" fill="black"/>
<path fill-rule="evenodd" clip-rule="evenodd" d="M15.5249 9.50078C14.9869 9.50078 14.5489 9.06378 14.5489 8.52578C14.5469 8.27078 14.6479 8.02478 14.8319 7.83878C15.0159 7.65278 15.2619 7.55078 15.5239 7.55078C16.0619 7.55078 16.4999 7.98778 16.4999 8.52578C16.4999 9.06378 16.0619 9.50078 15.5249 9.50078Z" fill="black"/>
<path fill-rule="evenodd" clip-rule="evenodd" d="M12.5009 16.5208C10.6429 16.5208 9.13086 14.9138 9.13086 12.9378C9.13086 12.6618 9.35486 12.4378 9.63086 12.4378H15.3689C15.6449 12.4378 15.8689 12.6618 15.8689 12.9378C15.8689 14.9138 14.3579 16.5208 12.5009 16.5208Z" fill="black"/>
<path fill-rule="evenodd" clip-rule="evenodd" d="M8.15967 8.51978C8.15967 8.10578 8.49567 7.76978 8.90967 7.76978H10.4907C10.9047 7.76978 11.2407 8.10578 11.2407 8.51978C11.2407 8.93378 10.9047 9.26978 10.4907 9.26978H8.90967C8.49567 9.26978 8.15967 8.93378 8.15967 8.51978Z" fill="black"/>
</svg>