<svg width="24" height="24" viewBox="0 0 24 24" fill="none" xmlns="http://www.w3.org/2000/svg">
<path fill-rule="evenodd" clip-rule="evenodd" d="M12 17.301C9.731 17.301 7.886 15.333 7.886 12.914C7.886 12.638 8.109 12.414 8.386 12.414H15.615C15.892 12.414 16.115 12.638 16.115 12.914C16.115 15.333 14.27 17.301 12 17.301ZM7.636 8.498C7.636 8.084 7.972 7.748 8.386 7.748H9.978C10.392 7.748 10.728 8.084 10.728 8.498C10.728 8.912 10.392 9.248 9.978 9.248H8.386C7.972 9.248 7.636 8.912 7.636 8.498ZM14.332 7.839C14.517 7.653 14.762 7.551 15.023 7.551C15.562 7.551 16 7.989 16 8.526C16 9.064 15.563 9.501 15.024 9.501C14.487 9.501 14.05 9.064 14.05 8.526C14.048 8.271 14.148 8.025 14.332 7.839ZM16.217 2.5H7.782C4.623 2.5 2.5 4.721 2.5 8.026V15.974C2.5 19.28 4.623 21.5 7.782 21.5H16.216C19.376 21.5 21.5 19.28 21.5 15.974V8.026C21.5 4.721 19.377 2.5 16.217 2.5Z" fill="black"/>
</svg>