<svg width="25" height="24" viewBox="0 0 25 24" fill="none" xmlns="http://www.w3.org/2000/svg">
<path d="M5.96918 5.99968V12.0224C4.76172 12.935 3.96875 14.3692 3.96875 15.9999C3.96875 18.7612 6.20756 21 8.96886 21C11.7302 21 13.969 18.7612 13.969 15.9999C13.969 14.3692 13.177 12.935 11.9695 12.0224V5.99968C11.9695 4.3427 10.6258 3 8.96886 3C7.31189 3 5.96918 4.3427 5.96918 5.99968Z" stroke="black" stroke-width="1.5" stroke-linecap="round" stroke-linejoin="round"/>
<path fill-rule="evenodd" clip-rule="evenodd" d="M10.4393 15.9997C10.4393 16.8131 9.77965 17.4728 8.96624 17.4728C8.15186 17.4728 7.49219 16.8131 7.49219 15.9997C7.49219 15.1863 8.15247 14.5264 8.96685 14.5264C9.78026 14.5264 10.4393 15.1863 10.4393 15.9997Z" stroke="black" stroke-width="1.5" stroke-linecap="round" stroke-linejoin="round"/>
<path d="M8.9668 10.481V14.5266" stroke="black" stroke-width="1.5" stroke-linecap="round" stroke-linejoin="round"/>
<path d="M19.5266 5.5625L17.2588 7.56576L19.5266 9.56908" stroke="black" stroke-width="1.5" stroke-linecap="round" stroke-linejoin="round"/>
<path d="M17.259 3.55957L14.9912 5.56283" stroke="black" stroke-width="1.5" stroke-linecap="round" stroke-linejoin="round"/>
<path d="M17.259 11.564L14.9912 9.5607" stroke="black" stroke-width="1.5" stroke-linecap="round" stroke-linejoin="round"/>
<path d="M14.9219 3V11.6171" stroke="black" stroke-width="1.5" stroke-linecap="round" stroke-linejoin="round"/>
<path d="M17.2588 7.56592H14.9221" stroke="black" stroke-width="1.5" stroke-linecap="round" stroke-linejoin="round"/>
<path d="M20.2598 7.56592H20.2498" stroke="black" stroke-width="1.5" stroke-linecap="round" stroke-linejoin="round"/>
</svg>