<svg width="25" height="24" viewBox="0 0 25 24" fill="none" xmlns="http://www.w3.org/2000/svg">
<path d="M7.7545 11.999L10.7921 20.8089" stroke="black" stroke-width="1.5" stroke-linecap="round" stroke-linejoin="round"/>
<path fill-rule="evenodd" clip-rule="evenodd" d="M21.1489 11.7255L18.5349 18.9527C18.3103 19.4028 17.7702 19.6036 17.3134 19.3942C16.0266 18.8039 13.6384 18.5177 12.2502 18.5168C10.862 18.5177 8.47382 18.8039 7.18702 19.3942C6.72934 19.6036 6.18922 19.4028 5.96464 18.9527L3.35154 11.7255C3.12222 11.2678 3.29279 10.6964 3.74762 10.4633C6.41031 9.09787 9.32885 8.43552 12.2493 8.43457C15.1697 8.43552 18.0882 9.09787 20.7519 10.4633C21.2077 10.6974 21.3773 11.2678 21.1489 11.7255Z" stroke="black" stroke-width="1.5" stroke-linecap="round" stroke-linejoin="round"/>
<path d="M11.8917 6.07805C11.8917 5.91205 11.8767 5.74505 11.8467 5.58105" stroke="black" stroke-width="1.5" stroke-linecap="round" stroke-linejoin="round"/>
<path d="M17.479 3.95741C17.355 3.84341 17.223 3.74041 17.085 3.64941" stroke="black" stroke-width="1.5" stroke-linecap="round" stroke-linejoin="round"/>
<path d="M14.2726 3.19043C14.0906 3.23743 13.9166 3.30543 13.7466 3.38743" stroke="black" stroke-width="1.5" stroke-linecap="round" stroke-linejoin="round"/>
<path d="M6.69869 3.64941C6.56069 3.74041 6.42869 3.84341 6.30469 3.95741" stroke="black" stroke-width="1.5" stroke-linecap="round" stroke-linejoin="round"/>
<path d="M9.51025 3.19043C9.69225 3.23743 9.86625 3.30543 10.0363 3.38743" stroke="black" stroke-width="1.5" stroke-linecap="round" stroke-linejoin="round"/>
<path d="M11.8916 14.0791V13.0791" stroke="black" stroke-width="1.5" stroke-linecap="round" stroke-linejoin="round"/>
<path d="M11.8916 9.0791V10.0791" stroke="black" stroke-width="1.5" stroke-linecap="round" stroke-linejoin="round"/>
</svg>