<svg width="25" height="24" viewBox="0 0 25 24" fill="none" xmlns="http://www.w3.org/2000/svg">
<path d="M8.72521 8.04982L11.7628 16.8597" stroke="black" stroke-width="1.5" stroke-linecap="round" stroke-linejoin="round"/>
<circle cx="12.25" cy="18.0693" r="1.25" stroke="black" stroke-width="1.5" stroke-linecap="round" stroke-linejoin="round"/>
<path opacity="0.4" fill-rule="evenodd" clip-rule="evenodd" d="M21.1255 7.9716L18.5114 15.1988C18.2868 15.6489 17.7467 15.8497 17.29 15.6403C16.0032 15.05 13.615 14.7638 12.2268 14.7629C10.8386 14.7638 8.45039 15.05 7.16358 15.6403C6.7059 15.8497 6.16578 15.6489 5.94121 15.1988L3.3281 7.9716C3.09879 7.51392 3.26935 6.94253 3.72419 6.70942C6.38687 5.34397 9.30541 4.68161 12.2258 4.68066C15.1463 4.68161 18.0648 5.34397 20.7284 6.70942C21.1842 6.94348 21.3538 7.51392 21.1255 7.9716Z" stroke="black" stroke-width="1.5" stroke-linecap="round" stroke-linejoin="round"/>
<path d="M10.124 12.0735C11.3206 11.8656 12.8571 11.8656 14.2513 12.2497" stroke="black" stroke-width="1.5" stroke-linecap="round" stroke-linejoin="round"/>
<path d="M16.9345 10.2027C15.6477 9.61231 13.2595 9.32614 11.8713 9.3252C11.1661 9.32568 10.2027 9.39977 9.25684 9.54996" stroke="black" stroke-width="1.5" stroke-linecap="round" stroke-linejoin="round"/>
</svg>