<svg width="25" height="24" viewBox="0 0 25 24" fill="none" xmlns="http://www.w3.org/2000/svg">
<path d="M10.8008 21.5625C10.4908 21.5625 10.2008 21.3625 10.0908 21.0525L7.0508 12.2425C6.9108 11.8525 7.12079 11.4225 7.51079 11.2925C7.90079 11.1525 8.3308 11.3625 8.4608 11.7525L11.5008 20.5625C11.6408 20.9525 11.4308 21.3825 11.0408 21.5125C10.9608 21.5425 10.8808 21.5525 10.8008 21.5525V21.5625Z" fill="black"/>
<path d="M6.81067 20.2314C6.19067 20.2314 5.60067 19.8814 5.30067 19.2914L2.65066 11.9814C2.27066 11.2314 2.59067 10.2114 3.41067 9.80145C8.79067 7.04145 15.7107 7.04145 21.1007 9.80145C21.9007 10.2114 22.2307 11.2014 21.8507 12.0214L19.2507 19.2114C18.8007 20.1114 17.8307 20.4614 17.0107 20.0814C15.9307 19.5814 13.7007 19.2714 12.2607 19.2714C10.8207 19.2714 8.60066 19.5814 7.51066 20.0814C7.28066 20.1814 7.04067 20.2314 6.81067 20.2314ZM12.2607 9.19143C9.40066 9.19143 6.58068 9.86144 4.10068 11.1414C4.02068 11.1814 3.98067 11.3014 4.03067 11.4014L6.68068 18.7114C6.68068 18.7114 6.80067 18.7614 6.88067 18.7214C8.38067 18.0314 10.9707 17.7814 12.2607 17.7714C13.5407 17.7714 16.1407 18.0314 17.6407 18.7214C17.7307 18.7614 17.8307 18.7214 17.8807 18.6314L20.4607 11.4814C20.4607 11.4814 20.4807 11.4314 20.4907 11.4014C20.5407 11.3014 20.5107 11.1814 20.4207 11.1414C17.9407 9.87144 15.1207 9.20143 12.2607 9.19143Z" fill="black"/>
<path d="M11.9009 6.83188C11.4909 6.83188 11.1509 6.49188 11.1509 6.08188C11.1509 5.96188 11.1409 5.84186 11.1209 5.72186C11.0509 5.31186 11.3209 4.92187 11.7209 4.85187C12.1309 4.78187 12.5209 5.05188 12.5909 5.45188C12.6309 5.66188 12.6509 5.87188 12.6509 6.08188C12.6509 6.49188 12.3109 6.83188 11.9009 6.83188Z" fill="black"/>
<path d="M17.4907 4.70179C17.3107 4.70179 17.1307 4.63178 16.9807 4.50178C16.8907 4.41178 16.7907 4.3418 16.6807 4.2718C16.3307 4.0418 16.2407 3.58179 16.4707 3.23179C16.7007 2.89179 17.1607 2.7918 17.5107 3.0218C17.6807 3.1318 17.8507 3.26177 18.0007 3.40177C18.3007 3.68177 18.3207 4.1518 18.0407 4.4618C17.8907 4.6218 17.6907 4.70179 17.4907 4.70179Z" fill="black"/>
<path d="M13.7507 4.13113C13.4707 4.13113 13.2007 3.97115 13.0707 3.71115C12.8907 3.34115 13.0507 2.89115 13.4207 2.71115C13.6507 2.60115 13.8607 2.52115 14.0907 2.46115C14.4907 2.36115 14.9007 2.60112 15.0007 3.00112C15.1007 3.40112 14.8607 3.81113 14.4607 3.91113C14.3307 3.94113 14.2007 3.99112 14.0707 4.06112C13.9707 4.11112 13.8507 4.13113 13.7407 4.13113H13.7507Z" fill="black"/>
<path d="M6.31058 4.70179C6.11058 4.70179 5.91058 4.6218 5.76058 4.4618C5.48058 4.1618 5.50059 3.68177 5.80059 3.40177C5.95059 3.26177 6.12059 3.1318 6.29059 3.0218C6.64059 2.7918 7.10058 2.89179 7.33058 3.23179C7.56058 3.58179 7.46058 4.0418 7.12058 4.2718C7.02058 4.3418 6.92059 4.42178 6.82059 4.50178C6.68059 4.63178 6.49058 4.70179 6.31058 4.70179Z" fill="black"/>
<path d="M10.041 4.13113C9.93098 4.13113 9.82098 4.11112 9.71098 4.06112C9.59098 4.00112 9.46098 3.95113 9.32098 3.91113C8.92098 3.81113 8.68097 3.40112 8.78097 3.00112C8.88097 2.60112 9.29097 2.36115 9.69097 2.46115C9.91097 2.52115 10.131 2.60115 10.361 2.71115C10.731 2.89115 10.891 3.34115 10.711 3.71115C10.581 3.98115 10.311 4.13113 10.031 4.13113H10.041Z" fill="black"/>
<path d="M11.9009 14.8311C11.4909 14.8311 11.1509 14.4911 11.1509 14.0811V13.0811C11.1509 12.6711 11.4909 12.3311 11.9009 12.3311C12.3109 12.3311 12.6509 12.6711 12.6509 13.0811V14.0811C12.6509 14.4911 12.3109 14.8311 11.9009 14.8311Z" fill="black"/>
<path d="M11.9009 10.8311C11.4909 10.8311 11.1509 10.4911 11.1509 10.0811V9.08105C11.1509 8.67105 11.4909 8.33105 11.9009 8.33105C12.3109 8.33105 12.6509 8.67105 12.6509 9.08105V10.0811C12.6509 10.4911 12.3109 10.8311 11.9009 10.8311Z" fill="black"/>
</svg>