<svg width="25" height="24" viewBox="0 0 25 24" fill="none" xmlns="http://www.w3.org/2000/svg">
<path opacity="0.4" fill-rule="evenodd" clip-rule="evenodd" d="M20.9677 7.7554C15.7997 2.6434 8.29873 2.6414 3.13173 7.7554C2.41073 8.4664 2.35473 9.6284 3.00273 10.4004L10.5637 19.3884C10.9337 19.8274 11.4747 20.0794 12.0487 20.0794C12.6227 20.0794 13.1637 19.8274 13.5327 19.3884L21.0927 10.4004C21.7427 9.6304 21.6877 8.4684 20.9677 7.7554Z" fill="black"/>
<path d="M12.0508 11.8522C12.4648 11.8522 12.8008 11.5162 12.8008 11.1022V8.1582C12.8008 7.7442 12.4648 7.4082 12.0508 7.4082C11.6368 7.4082 11.3008 7.7442 11.3008 8.1582V11.1022C11.3008 11.5162 11.6368 11.8522 12.0508 11.8522Z" fill="black"/>
<path d="M11.3008 14.1512C11.3008 14.5652 11.6368 14.8962 12.0508 14.8962C12.4648 14.8962 12.8008 14.5552 12.8008 14.1412C12.8008 13.7272 12.4648 13.3912 12.0508 13.3912C11.6368 13.3912 11.3008 13.7272 11.3008 14.1412V14.1512Z" fill="black"/>
</svg>