<svg width="25" height="24" viewBox="0 0 25 24" fill="none" xmlns="http://www.w3.org/2000/svg">
<path d="M12.301 11.8514C11.8869 11.8514 11.551 11.5113 11.551 11.1014V8.15118C11.551 7.90826 11.6687 7.69025 11.8508 7.55255C11.9763 7.45782 12.132 7.40118 12.301 7.40118C12.715 7.40118 13.051 7.74103 13.051 8.15118V11.1014C13.051 11.5113 12.715 11.8514 12.301 11.8514Z" fill="black"/>
<path d="M12.301 14.8912C11.8869 14.8912 11.551 14.5611 11.551 14.1412V14.1312C11.551 13.721 11.8869 13.3812 12.301 13.3812C12.715 13.3812 13.051 13.721 13.051 14.1312V14.1412C13.051 14.5611 12.715 14.8912 12.301 14.8912Z" fill="black"/>
<path fill-rule="evenodd" clip-rule="evenodd" d="M10.6232 19.5413L3.06221 10.5513C2.321 9.6712 2.39424 8.37115 3.20528 7.57135C8.45088 2.38116 16.1481 2.38116 21.3933 7.57135C22.2033 8.37115 22.2771 9.6712 21.5349 10.5513L13.9743 19.5413C13.1003 20.5814 11.4982 20.5814 10.6232 19.5413ZM4.21016 9.59137L11.7712 18.5814C12.0471 18.9012 12.551 18.9012 12.8259 18.5814L20.3869 9.59137C20.6179 9.31134 20.6013 8.90118 20.3381 8.64117C15.677 4.02106 8.9211 4.02106 4.25996 8.64117C3.99727 8.90118 3.9792 9.31134 4.21016 9.59137Z" fill="black"/>
</svg>