<svg width="25" height="24" viewBox="0 0 25 24" fill="none" xmlns="http://www.w3.org/2000/svg">
<path fill-rule="evenodd" clip-rule="evenodd" d="M14.2121 13.7302C14.3506 13.5599 14.447 13.3582 14.49 13.1428C14.8606 11.288 16.4305 9.92383 18.3649 9.89928C19.1427 9.90638 19.8661 10.1271 20.4846 10.4999C20.6173 10.5798 20.7902 10.5577 20.8899 10.4393L20.9219 10.4013C21.5709 9.63028 21.5159 8.46828 20.7959 7.75628C15.6279 2.64328 8.12695 2.64128 2.95995 7.75528C2.23895 8.46728 2.18295 9.62928 2.83195 10.4003L10.3929 19.3883C10.7619 19.8273 11.3029 20.0793 11.8769 20.0793C12.4509 20.0793 12.9919 19.8273 13.3609 19.3883C13.551 19.162 13.5907 18.8497 13.5097 18.5655C13.4164 18.2386 13.3659 17.8937 13.3659 17.5373V16.1003C13.3659 15.2017 13.6849 14.3784 14.2121 13.7302Z" fill="black"/>
<path fill-rule="evenodd" clip-rule="evenodd" d="M20.2173 17.5376C20.2173 17.8246 19.9833 18.0586 19.6963 18.0586H17.1363C16.8493 18.0586 16.6163 17.8246 16.6163 17.5376V16.1006C16.6163 15.8136 16.8493 15.5796 17.1363 15.5796H19.6963C19.9833 15.5796 20.2173 15.8136 20.2173 16.1006V17.5376ZM18.4073 13.1486H18.4183C18.8423 13.1486 19.1903 13.4916 19.1953 13.9076V14.0796H17.6393V13.9136C17.6463 13.4906 17.9843 13.1546 18.4073 13.1486ZM20.6953 14.3546V13.8976C20.6783 12.6516 19.6603 11.6486 18.4193 11.6486H18.3883C17.1483 11.6646 16.1603 12.6486 16.1393 13.9006V14.3536C15.5313 14.7026 15.1163 15.3506 15.1163 16.1006V17.5376C15.1163 18.6516 16.0223 19.5586 17.1363 19.5586H19.6963C20.8103 19.5586 21.7173 18.6516 21.7173 17.5376V16.1006C21.7173 15.3516 21.3023 14.7036 20.6953 14.3546Z" fill="black"/>
</svg>