<svg width="25" height="24" viewBox="0 0 25 24" fill="none" xmlns="http://www.w3.org/2000/svg">
<path fill-rule="evenodd" clip-rule="evenodd" d="M18.0517 10.0677C18.8959 10.0677 19.6941 10.2601 20.4075 10.6024C20.5355 10.6638 20.6901 10.6348 20.7814 10.5261L20.8867 10.4007C21.5377 9.62967 21.4817 8.46867 20.7617 7.75567C15.5957 2.64267 8.09371 2.64067 2.92571 7.75567C2.20671 8.46667 2.14871 9.62867 2.79671 10.4007L10.3587 19.3887C10.7277 19.8277 11.2687 20.0797 11.8427 20.0797C12.4167 20.0797 12.9577 19.8277 13.3277 19.3887L13.4919 19.1932C13.6439 19.0122 13.6463 18.7508 13.5147 18.5545C12.9335 17.6882 12.5927 16.6482 12.5927 15.5267C12.5927 12.5117 15.0367 10.0677 18.0517 10.0677Z" fill="black"/>
<path fill-rule="evenodd" clip-rule="evenodd" d="M19.135 16.6602C18.485 17.3102 17.355 17.3102 16.704 16.6602C16.035 15.9902 16.035 14.9002 16.704 14.2302C17.039 13.8952 17.48 13.7282 17.919 13.7282C18.36 13.7282 18.8 13.8952 19.135 14.2302C19.805 14.9002 19.805 15.9902 19.135 16.6602ZM21.532 17.9982L20.663 17.1282C21.423 15.8892 21.268 14.2422 20.196 13.1692C18.94 11.9152 16.898 11.9162 15.644 13.1702C14.391 14.4242 14.391 16.4652 15.644 17.7212C16.678 18.7572 18.387 18.9392 19.604 18.1892L20.472 19.0582C20.618 19.2052 20.81 19.2782 21.002 19.2782C21.194 19.2782 21.386 19.2052 21.532 19.0592C21.825 18.7662 21.825 18.2912 21.532 17.9982Z" fill="black"/>
</svg>