<svg width="25" height="24" viewBox="0 0 25 24" fill="none" xmlns="http://www.w3.org/2000/svg">
<path fill-rule="evenodd" clip-rule="evenodd" d="M19.0414 5.28291L19.7024 4.59991C19.8984 4.39791 19.9644 4.10291 19.8734 3.83591C19.7824 3.56991 19.5504 3.37691 19.2724 3.33591L16.3254 2.90191C16.0854 2.86491 15.8444 2.94891 15.6774 3.12291C15.5094 3.29591 15.4354 3.53991 15.4774 3.77691L16.0064 6.71291C16.0554 6.98991 16.2574 7.21591 16.5264 7.29791C16.5974 7.31891 16.6714 7.32991 16.7444 7.32991C16.9444 7.32991 17.1394 7.24991 17.2834 7.10191L17.9994 6.36091C20.4724 8.95291 21.0484 12.9979 19.1494 16.2079C17.7794 18.5299 15.3524 20.0299 12.6574 20.2199C12.2444 20.2499 11.9324 20.6079 11.9624 21.0209C11.9894 21.4169 12.3194 21.7179 12.7094 21.7179C12.7274 21.7179 12.7444 21.7179 12.7624 21.7159C15.9494 21.4909 18.8204 19.7169 20.4404 16.9699C22.6964 13.1579 21.9994 8.34791 19.0414 5.28291Z" fill="black"/>
<path fill-rule="evenodd" clip-rule="evenodd" d="M7.46269 10.9262C7.72269 11.2502 8.19369 11.3022 8.51669 11.0452C10.5627 9.41218 13.5297 9.41218 15.5747 11.0442C15.7127 11.1552 15.8777 11.2082 16.0417 11.2082C16.2617 11.2082 16.4807 11.1122 16.6287 10.9262C16.8867 10.6022 16.8337 10.1312 16.5097 9.87218C13.9237 7.80718 10.1687 7.80718 7.58169 9.87218C7.25769 10.1312 7.20469 10.6022 7.46269 10.9262Z" fill="black"/>
<path fill-rule="evenodd" clip-rule="evenodd" d="M13.6003 13.5009C13.9163 13.7689 14.3903 13.7289 14.6573 13.4119C14.9243 13.0959 14.8843 12.6229 14.5683 12.3549C13.1233 11.1349 10.9563 11.1399 9.52532 12.3689C9.21132 12.6389 9.17532 13.1119 9.44532 13.4269C9.59432 13.5989 9.80332 13.6879 10.0153 13.6879C10.1873 13.6879 10.3613 13.6279 10.5033 13.5069C11.3803 12.7529 12.7113 12.7509 13.6003 13.5009Z" fill="black"/>
<path fill-rule="evenodd" clip-rule="evenodd" d="M12.945 15.3784V15.3384C12.945 14.8414 12.542 14.4584 12.045 14.4584C11.548 14.4584 11.145 14.8814 11.145 15.3784C11.145 15.8754 11.548 16.2784 12.045 16.2784C12.542 16.2784 12.945 15.8754 12.945 15.3784Z" fill="black"/>
<path fill-rule="evenodd" clip-rule="evenodd" d="M7.56022 16.7046C7.29022 16.6226 6.99822 16.6986 6.80322 16.9006L6.08722 17.6416C3.61422 15.0486 3.03722 11.0046 4.93722 7.7946C6.30722 5.4726 8.73422 3.9726 11.4292 3.7816C11.8422 3.7526 12.1532 3.3936 12.1242 2.9806C12.0952 2.5666 11.7312 2.2456 11.3232 2.2856C8.13622 2.5106 5.26622 4.2856 3.64522 7.0316C1.38922 10.8436 2.08722 15.6546 5.04522 18.7186L4.38422 19.4026C4.18822 19.6046 4.12222 19.8996 4.21322 20.1656C4.30422 20.4326 4.53622 20.6256 4.81422 20.6666L7.76122 21.0996C7.79722 21.1046 7.83422 21.1076 7.87022 21.1076C8.07222 21.1076 8.26722 21.0266 8.40922 20.8786C8.57722 20.7056 8.65122 20.4616 8.60822 20.2246L8.08022 17.2896C8.03022 17.0126 7.82922 16.7866 7.56022 16.7046Z" fill="black"/>
</svg>