<svg width="25" height="24" viewBox="0 0 25 24" fill="none" xmlns="http://www.w3.org/2000/svg">
<path fill-rule="evenodd" clip-rule="evenodd" d="M10.6232 19.5413L3.06221 10.5513C2.321 9.6712 2.39424 8.37115 3.20528 7.57135C8.45088 2.38116 16.1481 2.38116 21.3933 7.57135C22.2033 8.37115 22.2771 9.6712 21.5349 10.5513L13.9743 19.5413C13.1003 20.5814 11.4982 20.5814 10.6232 19.5413ZM4.21016 9.59137L11.7712 18.5814C12.0471 18.9012 12.551 18.9012 12.8259 18.5814L20.3869 9.59137C20.5241 9.42462 20.5739 9.21198 20.5363 9.01227C20.5109 8.87628 20.4445 8.7464 20.3381 8.64117C15.677 4.02106 8.9211 4.02106 4.25996 8.64117C3.99727 8.90118 3.9792 9.31134 4.21016 9.59137Z" fill="black"/>
</svg>