<svg width="24" height="24" viewBox="0 0 24 24" fill="none" xmlns="http://www.w3.org/2000/svg">
<path d="M6.78467 21H17.2161C19.0511 21 20.5378 19.5123 20.5378 17.6773V10.5044C20.5378 9.61314 20.137 8.76956 19.4461 8.20621L13.8719 3.66625C12.7822 2.77792 11.2186 2.77792 10.1288 3.66625L4.55458 8.20621C3.86376 8.76956 3.46289 9.61314 3.46289 10.5044V17.6773C3.46289 19.5123 4.94961 21 6.78467 21Z" stroke="black" stroke-width="1.5" stroke-linecap="round" stroke-linejoin="round"/>
<path d="M12.002 16.2744V16.3163" stroke="black" stroke-width="1.5" stroke-linecap="round" stroke-linejoin="round"/>
<path d="M8.18359 11.6591C10.4098 9.87566 13.5915 9.87566 15.8176 11.6591" stroke="black" stroke-width="1.5" stroke-linecap="round" stroke-linejoin="round"/>
<path d="M10.0605 14.0184C11.1736 13.0687 12.8287 13.0687 13.9476 14.0125" stroke="black" stroke-width="1.5" stroke-linecap="round" stroke-linejoin="round"/>
</svg>