<svg width="24" height="24" viewBox="0 0 24 24" fill="none" xmlns="http://www.w3.org/2000/svg">
<path fill-rule="evenodd" clip-rule="evenodd" d="M12 3.75C7.44329 3.75 3.75 7.44329 3.75 12C3.75 16.5567 7.44329 20.25 12 20.25C16.5567 20.25 20.25 16.5567 20.25 12C20.25 7.44329 16.5567 3.75 12 3.75ZM2.25 12C2.25 6.61487 6.61487 2.25 12 2.25C17.3851 2.25 21.75 6.61487 21.75 12C21.75 17.3851 17.3851 21.75 12 21.75C6.61487 21.75 2.25 17.3851 2.25 12Z" fill="black"/>
<path fill-rule="evenodd" clip-rule="evenodd" d="M3.44434 7.76172C3.44434 7.34751 3.78012 7.01172 4.19434 7.01172L7.22772 7.01172C7.64193 7.01172 7.97772 7.34751 7.97772 7.76172C7.97772 8.17593 7.64193 8.51172 7.22772 8.51172L4.19434 8.51172C3.78012 8.51172 3.44434 8.17593 3.44434 7.76172Z" fill="black"/>
<path fill-rule="evenodd" clip-rule="evenodd" d="M6.14727 7.05474C6.53771 6.91645 6.96634 7.12087 7.10463 7.51131L10.5759 17.3121C10.7142 17.7025 10.5098 18.1311 10.1194 18.2694C9.72891 18.4077 9.30028 18.2033 9.16199 17.8129L5.6907 8.01211C5.55241 7.62166 5.75682 7.19303 6.14727 7.05474Z" fill="black"/>
<path fill-rule="evenodd" clip-rule="evenodd" d="M8.68457 7.76172C8.68457 7.34751 9.02036 7.01172 9.43457 7.01172H14.1703C14.5845 7.01172 14.9203 7.34751 14.9203 7.76172C14.9203 8.17593 14.5845 8.51172 14.1703 8.51172H9.43457C9.02036 8.51172 8.68457 8.17593 8.68457 7.76172Z" fill="black"/>
<path fill-rule="evenodd" clip-rule="evenodd" d="M13.0897 7.05474C13.4801 6.91645 13.9087 7.12087 14.047 7.51131L17.5183 17.3121C17.6566 17.7025 17.4522 18.1311 17.0617 18.2694C16.6713 18.4077 16.2427 18.2033 16.1044 17.8129L12.6331 8.01211C12.4948 7.62166 12.6992 7.19303 13.0897 7.05474Z" fill="black"/>
<path fill-rule="evenodd" clip-rule="evenodd" d="M15.9666 8.14869C14.7331 6.67434 15.6698 4.40625 17.6799 4.40625C18.0941 4.40625 18.4299 4.74204 18.4299 5.15625C18.4299 5.57046 18.0941 5.90625 17.6799 5.90625C17.0206 5.90625 16.6502 6.62819 17.1171 7.18613C17.7873 7.98722 18.4594 8.87372 18.9082 9.77788C19.0894 9.08103 19.1421 8.35622 19.0622 7.63828C19.0163 7.22661 19.3129 6.85573 19.7246 6.80989C20.1362 6.76405 20.5071 7.06062 20.5529 7.47229C20.6791 8.60507 20.5419 9.75121 20.1521 10.8233C20.148 10.8346 20.1436 10.8457 20.139 10.8568L19.2716 12.928L16.9063 19.6012C16.4419 20.9102 14.5997 20.9355 14.0999 19.6395L9.64223 8.08043C9.49319 7.69395 9.68567 7.25984 10.0721 7.1108C10.4586 6.96176 10.8927 7.15424 11.0418 7.54071L15.4959 19.0905L17.8668 12.4014C18.0476 11.9042 17.9687 11.2906 17.6034 10.5246C17.2397 9.76196 16.6429 8.957 15.9666 8.14869Z" fill="black"/>
<path fill-rule="evenodd" clip-rule="evenodd" d="M3.40017 7.96308C3.78515 7.81022 4.22115 7.99838 4.37402 8.38336L4.72251 9.26101L8.51334 19.0911L11.2005 11.7514C11.3429 11.3624 11.7737 11.1625 12.1626 11.3049C12.5516 11.4474 12.7515 11.8781 12.6091 12.2671L9.92222 19.6059C9.45549 20.9109 7.61658 20.9345 7.11734 19.6399L3.32427 9.80421L2.9799 8.93693C2.82704 8.55195 3.0152 8.11595 3.40017 7.96308Z" fill="black"/>
</svg>