<svg width="25" height="24" viewBox="0 0 25 24" fill="none" xmlns="http://www.w3.org/2000/svg">
<path fill-rule="evenodd" clip-rule="evenodd" d="M9.74021 4.86255C9.74021 4.01355 10.3282 3.32355 11.0502 3.32355H13.4502C14.1722 3.32355 14.7602 4.01355 14.7602 4.86255V4.88655C13.9942 4.80955 13.1602 4.77155 12.2502 4.77155C11.3392 4.77155 10.5052 4.80955 9.74021 4.88655V4.86255ZM2.75621 10.7815C5.36521 12.3895 8.74521 13.2765 12.2702 13.2795C15.7882 13.2765 19.1592 12.3925 21.7662 10.7915C21.2382 7.52855 19.5732 5.79255 16.2602 5.11755V4.86255C16.2602 3.18655 14.9992 1.82355 13.4502 1.82355H11.0502C9.50121 1.82355 8.24021 3.18655 8.24021 4.86255V5.11755C4.93221 5.79155 3.26821 7.52255 2.73621 10.7735C2.74321 10.7775 2.75021 10.7775 2.75621 10.7815Z" fill="black"/>
<path fill-rule="evenodd" clip-rule="evenodd" d="M13 14.8174V16.9804C13 17.3944 12.664 17.7304 12.25 17.7304C11.836 17.7304 11.5 17.3944 11.5 16.9804V14.8164C8.23904 14.7074 5.12104 13.8934 2.56404 12.4844C2.54904 12.8034 2.54004 13.1314 2.54004 13.4734C2.54004 19.8994 5.08104 22.1764 12.25 22.1764C19.419 22.1764 21.96 19.8994 21.96 13.4734C21.96 13.1394 21.952 12.8184 21.938 12.5074C19.377 13.9084 16.259 14.7144 13 14.8174Z" fill="black"/>
</svg>