<svg width="24" height="24" viewBox="0 0 24 24" fill="none" xmlns="http://www.w3.org/2000/svg">
<path d="M11.9612 16.5168V13.8888" stroke="black" stroke-width="1.5" stroke-linecap="round" stroke-linejoin="round"/>
<path d="M21.0895 11.4777L21.0605 11.4987C18.6385 12.9907 15.4405 13.8917 11.9565 13.8917C8.47252 13.8917 5.28352 12.9907 2.86252 11.4987L2.83252 11.4777" stroke="black" stroke-width="1.5" stroke-linecap="round" stroke-linejoin="round"/>
<path fill-rule="evenodd" clip-rule="evenodd" d="M2.75024 13.3507C2.75024 7.19871 5.05324 5.14771 11.9612 5.14771C18.8702 5.14771 21.1722 7.19871 21.1722 13.3507C21.1722 19.5027 18.8702 21.5537 11.9612 21.5537C5.05324 21.5537 2.75024 19.5027 2.75024 13.3507Z" stroke="black" stroke-width="1.5" stroke-linecap="round" stroke-linejoin="round"/>
<path d="M15.2237 5.36932V4.73932C15.2237 3.47532 14.3007 2.45032 13.1637 2.45032H10.7587C9.62173 2.45032 8.69873 3.47532 8.69873 4.73932V5.36932" stroke="black" stroke-width="1.5" stroke-linecap="round" stroke-linejoin="round"/>
</svg>