<svg width="25" height="24" viewBox="0 0 25 24" fill="none" xmlns="http://www.w3.org/2000/svg">
<g opacity="0.4">
<path d="M12.2112 16.5168V13.8888" stroke="black" stroke-width="1.5" stroke-linecap="round" stroke-linejoin="round"/>
<path d="M21.3395 11.4777L21.3105 11.4987C18.8885 12.9907 15.6905 13.8917 12.2065 13.8917C8.72252 13.8917 5.53352 12.9907 3.11252 11.4987L3.08252 11.4777" stroke="black" stroke-width="1.5" stroke-linecap="round" stroke-linejoin="round"/>
</g>
<path fill-rule="evenodd" clip-rule="evenodd" d="M3.00024 13.3507C3.00024 7.19871 5.30324 5.14771 12.2112 5.14771C19.1202 5.14771 21.4222 7.19871 21.4222 13.3507C21.4222 19.5027 19.1202 21.5537 12.2112 21.5537C5.30324 21.5537 3.00024 19.5027 3.00024 13.3507Z" stroke="black" stroke-width="1.5" stroke-linecap="round" stroke-linejoin="round"/>
<path opacity="0.4" d="M15.4737 5.36932V4.73932C15.4737 3.47532 14.5507 2.45032 13.4137 2.45032H11.0087C9.87173 2.45032 8.94873 3.47532 8.94873 4.73932V5.36932" stroke="black" stroke-width="1.5" stroke-linecap="round" stroke-linejoin="round"/>
</svg>