<?xml version="1.0" encoding="UTF-8"?>
<svg width="24px" height="24px" viewBox="0 0 24 24" version="1.1" xmlns="http://www.w3.org/2000/svg" xmlns:xlink="http://www.w3.org/1999/xlink">
    <title>Iconly/Light-Outline/Work</title>
    <g id="Iconly/Light-Outline/Work" stroke="none" stroke-width="1" fill="none" fill-rule="evenodd">
        <g id="Work" transform="translate(2.000000, 2.000000)" fill="#000000">
            <path d="M19.2729,12.7352 C19.6859,12.7662 19.9949,13.1272 19.9639,13.5402 L19.7739,16.0492 C19.6169,18.1192 17.8699,19.7402 15.7949,19.7402 L4.1949,19.7402 C2.1199,19.7402 0.3729,18.1192 0.2159,16.0492 L0.0259,13.5402 C-0.0051,13.1272 0.3049,12.7662 0.7179,12.7352 C1.1329,12.7202 1.4909,13.0132 1.5229,13.4272 L1.7119,15.9352 C1.8099,17.2272 2.8999,18.2402 4.1949,18.2402 L15.7949,18.2402 C17.0899,18.2402 18.1809,17.2272 18.2779,15.9352 L18.4679,13.4272 C18.4999,13.0132 18.8669,12.7192 19.2729,12.7352 Z M11.2851,0.0001 C12.7880388,0.0001 14.033158,1.12636437 14.2206909,2.57912633 L16.1902,2.58 C18.2862,2.58 19.9902,4.289 19.9902,6.391 L19.9902,9.83 C19.9902,10.097 19.8482,10.343 19.6192,10.477 C17.1508939,11.9224966 14.0241124,12.7656134 10.7447407,12.8780753 L10.7451,14.6767 C10.7451,15.0907 10.4091,15.4267 9.9951,15.4267 C9.5811,15.4267 9.2451,15.0907 9.2451,14.6767 L9.24445102,12.878327 C5.96838209,12.7668769 2.84135614,11.92358 0.3712,10.477 C0.1412,10.343 0.0002,10.097 0.0002,9.83 L0.0002,6.381 C0.0002,4.285 1.7092,2.58 3.8102,2.58 L5.76950912,2.57912633 C5.957042,1.12636437 7.20216122,0.0001 8.7051,0.0001 L11.2851,0.0001 Z M16.1902,4.08 L3.8102,4.08 C2.5362,4.08 1.5002,5.112 1.5002,6.381 L1.5002,9.393 C3.87391245,10.6827571 6.86643164,11.3896381 9.98119456,11.390998 L9.9951,11.3897 L9.9951,11.3897 L10.0062,11.3901 L10.4823519,11.3851426 C13.4281612,11.3149612 16.2383053,10.6160526 18.4902,9.393 L18.4902,6.391 C18.4902,5.116 17.4592,4.08 16.1902,4.08 Z M11.2851,1.5001 L8.7051,1.5001 C8.03175553,1.5001 7.46335904,1.95837286 7.2954501,2.57937902 L12.6947499,2.57937902 C12.526841,1.95837286 11.9584445,1.5001 11.2851,1.5001 Z" id="Combined-Shape"></path>
        </g>
    </g>
</svg>