<svg width="25" height="24" viewBox="0 0 25 24" fill="none" xmlns="http://www.w3.org/2000/svg">
<path fill-rule="evenodd" clip-rule="evenodd" d="M9.66739 5.50493L10.2434 4.17493H14.2564L14.8324 5.50493H9.66739ZM16.4674 5.50493L15.2434 2.67493H9.25639L8.03239 5.50493H2.50439V12.7919L2.75139 12.9369C5.15339 14.3419 8.18639 15.1599 11.3704 15.2889V16.5859H13.1294V15.2889C16.3154 15.1589 19.3484 14.3409 21.7474 12.9369L21.9954 12.7919V5.50493H16.4674Z" fill="black"/>
<path opacity="0.4" fill-rule="evenodd" clip-rule="evenodd" d="M20.3976 15.8151C17.9376 16.7951 15.1276 17.3151 12.2476 17.3151C9.36758 17.3151 6.55758 16.7951 4.10758 15.8151C3.73758 15.6651 3.37758 15.5151 3.02758 15.3451C2.85758 15.2651 2.68758 15.1851 2.51758 15.0851L2.73758 21.3251H21.7676L21.9776 15.0851C21.8076 15.1851 21.6376 15.2651 21.4676 15.3451C21.1176 15.5151 20.7576 15.6651 20.3976 15.8151Z" fill="black"/>
</svg>