<svg width="25" height="24" viewBox="0 0 25 24" fill="none" xmlns="http://www.w3.org/2000/svg">
<path d="M11.8064 21C7.16529 20.6254 3.52832 16.7432 3.52832 12.0097C3.52832 7.04076 7.55935 3 12.5381 3C17.1412 3 20.928 6.45016 21.4719 10.9035" stroke="black" stroke-width="1.5" stroke-linecap="round" stroke-linejoin="round"/>
<path d="M15.8757 11.0903C15.8475 10.3216 15.7823 9.58119 15.6792 8.87773C15.2102 5.44605 13.9823 3 12.5384 3C11.1042 3 9.86661 5.44605 9.39764 8.87773C9.25656 9.85265 9.18164 10.9025 9.18164 12.0088C9.18164 13.115 9.25656 14.1746 9.39764 15.1495C9.72553 17.5304 10.7384 19.8276 11.8067 21" stroke="black" stroke-width="1.5" stroke-linecap="round" stroke-linejoin="round"/>
<path d="M3.52832 12.0177H12.1304" stroke="black" stroke-width="1.5" stroke-linecap="round" stroke-linejoin="round"/>
<path opacity="0.4" d="M17.201 14.703L20.0888 16.8251M16.6906 20.9336L15.4646 20.99C15.0706 21.0085 14.7164 20.7487 14.6162 20.3663L14.3038 19.1803C14.2396 18.9351 14.2893 18.6743 14.4391 18.471L18.0858 13.5001C18.4769 12.9669 19.2261 12.853 19.7593 13.2442L20.7177 13.9496C21.2509 14.3407 21.3647 15.0899 20.9736 15.6221L17.3269 20.593C17.177 20.7964 16.9435 20.9219 16.6906 20.9336Z" stroke="black" stroke-width="1.5" stroke-linecap="round" stroke-linejoin="round"/>
</svg>