<svg width="25" height="24" viewBox="0 0 25 24" fill="none" xmlns="http://www.w3.org/2000/svg">
<path d="M11.5564 20.9891C6.91868 20.6145 3.2832 16.7357 3.2832 12.0036C3.2832 9.24083 4.53021 6.76516 6.4935 5.1123" stroke="black" stroke-width="1.5" stroke-linecap="round" stroke-linejoin="round"/>
<path d="M12.2871 3C16.8879 3 20.6723 6.44864 21.2162 10.8986" stroke="black" stroke-width="1.5" stroke-linecap="round" stroke-linejoin="round"/>
<path d="M15.6218 11.0854C15.5936 10.3167 15.5284 9.57714 15.4252 8.87456C14.9562 5.44538 13.7291 3 12.286 3C10.8526 3 9.61585 5.44538 9.14779 8.87456C9.00669 9.84863 8.93176 10.8976 8.93176 12.004C8.93176 13.1095 9.00669 14.1682 9.14779 15.1423C9.47572 17.5224 10.4877 19.818 11.5552 20.9886" stroke="black" stroke-width="1.5" stroke-linecap="round" stroke-linejoin="round"/>
<path d="M6.32642 12.0127H11.8805" stroke="black" stroke-width="1.5" stroke-linecap="round" stroke-linejoin="round"/>
<path fill-rule="evenodd" clip-rule="evenodd" d="M19.5089 19.3113C18.2915 20.5287 16.3171 20.5287 15.0998 19.3113C13.8824 18.094 13.8824 16.1196 15.0998 14.9023C16.3171 13.6849 18.2915 13.6849 19.5089 14.9023C20.7262 16.1196 20.7262 18.094 19.5089 19.3113Z" stroke="black" stroke-width="1.5" stroke-linecap="round" stroke-linejoin="round"/>
<path d="M21.1977 20.9998L19.5084 19.3105" stroke="black" stroke-width="1.5" stroke-linecap="round" stroke-linejoin="round"/>
</svg>