<svg width="24" height="24" viewBox="0 0 24 24" fill="none" xmlns="http://www.w3.org/2000/svg">
<path d="M11.2912 20.3636C6.81438 20.0016 3.30566 16.2574 3.30566 11.691C3.30566 6.89792 7.19483 3 11.9967 3C16.4366 3 20.0903 6.32773 20.6147 10.6236" stroke="black" stroke-width="1.5" stroke-linecap="round" stroke-linejoin="round"/>
<path d="M15.2167 10.8046C15.1895 10.0632 15.1262 9.34896 15.027 8.67076C14.5745 5.36055 13.3904 3 11.997 3C10.6134 3 9.41947 5.36055 8.96799 8.67076C8.83177 9.6107 8.75977 10.6236 8.75977 11.691C8.75977 12.7584 8.83177 13.7801 8.96799 14.72C9.28422 17.0173 10.2611 19.2329 11.2916 20.3636" stroke="black" stroke-width="1.5" stroke-linecap="round" stroke-linejoin="round"/>
<path d="M3.30566 11.7014H11.6036" stroke="black" stroke-width="1.5" stroke-linecap="round" stroke-linejoin="round"/>
<path fill-rule="evenodd" clip-rule="evenodd" d="M17.3364 20.9991C16.7993 20.9991 13.9785 18.7164 13.9785 16.3266C13.9785 14.4721 15.4818 12.9688 17.3364 12.9688C19.191 12.9688 20.6943 14.4721 20.6943 16.3266C20.6943 18.7164 17.8735 20.9991 17.3364 20.9991Z" stroke="black" stroke-width="1.5" stroke-linecap="round" stroke-linejoin="round"/>
<path d="M17.3113 16.2404H17.357" stroke="black" stroke-width="2" stroke-linecap="round" stroke-linejoin="round"/>
</svg>