<svg width="25" height="24" viewBox="0 0 25 24" fill="none" xmlns="http://www.w3.org/2000/svg">
<path d="M11.5564 20.9999C6.91529 20.6253 3.27832 16.7432 3.27832 12.0096C3.27832 8.69761 5.06923 5.79796 7.73796 4.23242" stroke="black" stroke-width="1.5" stroke-linecap="round" stroke-linejoin="round"/>
<path d="M12.2881 3C16.8912 3 20.678 6.45016 21.2219 10.9035" stroke="black" stroke-width="1.5" stroke-linecap="round" stroke-linejoin="round"/>
<path d="M15.6259 11.0903C15.5977 10.3216 15.5325 9.58119 15.4294 8.87773C14.9604 5.44605 13.7325 3 12.2886 3C10.8545 3 9.61686 5.44605 9.14788 8.87773C9.0068 9.85265 8.93188 10.9025 8.93188 12.0088C8.93188 13.115 9.0068 14.1746 9.14788 15.1495C9.47578 17.5304 10.4886 19.8276 11.557 21" stroke="black" stroke-width="1.5" stroke-linecap="round" stroke-linejoin="round"/>
<path d="M5.92761 12.0186H11.8803" stroke="black" stroke-width="1.5" stroke-linecap="round" stroke-linejoin="round"/>
<path fill-rule="evenodd" clip-rule="evenodd" d="M17.8283 13.5383L18.7225 15.3383C18.7682 15.4288 18.8548 15.492 18.955 15.5066L20.9574 15.7956C21.0382 15.8073 21.1112 15.8491 21.1608 15.9143C21.2542 16.0359 21.2406 16.2081 21.1287 16.3132L19.677 17.7162C19.603 17.7853 19.57 17.8875 19.5894 17.9867L19.9368 19.9677C19.9621 20.1321 19.8492 20.2849 19.6858 20.3121C19.6176 20.3218 19.5476 20.3111 19.4863 20.281L17.7028 19.346C17.6133 19.2973 17.5053 19.2973 17.4158 19.346L15.6187 20.2868C15.4689 20.3627 15.285 20.3063 15.2033 20.1584C15.1721 20.1 15.1614 20.0319 15.1721 19.9657L15.5195 17.9848C15.537 17.8865 15.5039 17.7853 15.4319 17.7143L13.9725 16.3113C13.8547 16.1935 13.8547 16.0009 13.9725 15.8822C14.0221 15.8374 14.0824 15.8082 14.1476 15.7966L16.1509 15.5056C16.2502 15.4901 16.3368 15.4268 16.3825 15.3363L17.2757 13.5383C17.3117 13.4653 17.3759 13.4098 17.4528 13.3836C17.5306 13.3583 17.6153 13.3641 17.6882 13.4011C17.7486 13.4303 17.7972 13.4789 17.8283 13.5383Z" stroke="black" stroke-width="1.5" stroke-linecap="round" stroke-linejoin="round"/>
</svg>