<svg width="25" height="24" viewBox="0 0 25 24" fill="none" xmlns="http://www.w3.org/2000/svg">
<path d="M11.6186 20.8423C7.01829 20.471 3.41309 16.6231 3.41309 11.9305C3.41309 7.006 7.40926 3 12.3436 3C16.9066 3 20.6601 6.42052 21.1994 10.8342" stroke="black" stroke-width="1.5" stroke-linecap="round" stroke-linejoin="round"/>
<path d="M15.6523 11.0199C15.6248 10.2576 15.559 9.52374 15.4568 8.82726C14.9922 5.42541 13.7751 3 12.3438 3C10.9223 3 9.69539 5.42541 9.23075 8.82726C9.09125 9.7929 9.01758 10.8342 9.01758 11.9305C9.01758 13.0268 9.09125 14.0769 9.23075 15.0435C9.5559 17.4041 10.5599 19.6802 11.6188 20.8423" stroke="black" stroke-width="1.5" stroke-linecap="round" stroke-linejoin="round"/>
<path d="M3.41309 11.9404H11.9398" stroke="black" stroke-width="1.5" stroke-linecap="round" stroke-linejoin="round"/>
<path opacity="0.4" d="M15.613 19.4477C16.1769 20.379 17.1995 21.0008 18.3675 21.0008C20.1456 21.0008 21.5867 19.5597 21.5867 17.7816C21.5867 16.0036 20.1456 14.5625 18.3675 14.5625C17.1101 14.5625 16.0207 15.2845 15.4912 16.3356" stroke="black" stroke-width="1.5" stroke-linecap="round" stroke-linejoin="round"/>
<path d="M17.2732 16.3346H15.4912V14.5625" stroke="black" stroke-width="1.5" stroke-linecap="round" stroke-linejoin="round"/>
</svg>