<svg width="24" height="24" viewBox="0 0 24 24" fill="none" xmlns="http://www.w3.org/2000/svg">
<path fill-rule="evenodd" clip-rule="evenodd" d="M13.9287 10.7455C13.7927 6.38147 12.4307 3.63147 11.4757 3.63147C10.5217 3.63147 9.15968 6.38147 9.02368 10.7455H13.9287Z" fill="black"/>
<path fill-rule="evenodd" clip-rule="evenodd" d="M12.7032 12.1669H9.02319C9.16319 16.5369 10.5232 19.2769 11.4732 19.2769C11.6432 19.2769 11.8232 19.1869 12.0132 19.0169C11.7832 18.4169 11.6532 17.7569 11.6532 17.0169C11.6532 16.1769 11.6332 15.6169 11.6332 15.2269C11.6132 14.1669 11.5932 13.2469 12.5232 12.3169C12.5732 12.2669 12.6332 12.2169 12.7032 12.1669Z" fill="black"/>
<path fill-rule="evenodd" clip-rule="evenodd" d="M15.3532 10.7469H20.4532C20.1132 6.45691 16.7732 3.00691 12.5332 2.51691C14.2832 3.53691 15.2432 7.07691 15.3532 10.7469Z" fill="black"/>
<path fill-rule="evenodd" clip-rule="evenodd" d="M10.421 2.51367C6.18195 3.01067 2.83895 6.45967 2.50195 10.7457H7.59995C7.70995 7.07667 8.67095 3.53767 10.421 2.51367Z" fill="black"/>
<path fill-rule="evenodd" clip-rule="evenodd" d="M7.60022 12.1683H2.50122C2.83922 16.4543 6.18122 19.9023 10.4212 20.4003C8.67122 19.3763 7.71022 15.8373 7.60022 12.1683Z" fill="black"/>
<path fill-rule="evenodd" clip-rule="evenodd" d="M19.9923 15.1761C19.9843 15.5791 19.9723 16.1591 19.9723 17.0121C19.9723 18.7841 18.0993 19.6811 17.4493 19.9391C16.7993 19.6811 14.9253 18.7851 14.9253 17.0121C14.9253 16.1571 14.9133 15.5761 14.9053 15.1731C14.9013 14.9511 14.8973 14.7501 14.8983 14.6201C15.4143 14.3591 17.0983 13.7741 17.4263 13.7381C17.8033 13.7741 19.5323 14.3751 19.9993 14.6181C20.0013 14.7471 19.9963 14.9511 19.9923 15.1761ZM21.1113 13.5751C20.6653 13.1221 18.0033 12.2381 17.4493 12.2381C16.9003 12.2381 14.2423 13.1191 13.7873 13.5721C13.3823 13.9801 13.3873 14.2391 13.4053 15.2031C13.4133 15.6001 13.4253 16.1711 13.4253 17.0121C13.4253 20.2651 17.0763 21.4061 17.2323 21.4531C17.3033 21.4751 17.3763 21.4861 17.4493 21.4861C17.5223 21.4861 17.5963 21.4751 17.6673 21.4531C17.8223 21.4061 21.4723 20.2641 21.4723 17.0121C21.4723 16.1731 21.4843 15.6031 21.4923 15.2061C21.5113 14.2391 21.5153 13.9801 21.1113 13.5751Z" fill="black"/>
</svg>