<svg width="25" height="24" viewBox="0 0 25 24" fill="none" xmlns="http://www.w3.org/2000/svg">
<path opacity="0.4" d="M10.0131 21.5002H15.9371C16.2131 21.5002 16.4371 21.2762 16.4371 21.0002V17.5272C19.3261 16.1912 21.1741 13.3122 21.1741 10.1002C21.1741 6.77524 19.1931 3.80724 16.1281 2.53824C15.9741 2.47424 15.7981 2.49124 15.6591 2.58424C15.5201 2.67724 15.4371 2.83324 15.4371 3.00024V9.07124C15.4371 9.27224 15.3161 9.45424 15.1311 9.53224L13.1751 10.3552C13.0511 10.4072 12.9091 10.4072 12.7861 10.3562L10.8191 9.53124C10.6331 9.45324 10.5131 9.27224 10.5131 9.07024V3.00024C10.5131 2.83324 10.4291 2.67624 10.2901 2.58324C10.1511 2.49224 9.97311 2.47424 9.82011 2.53924C6.76311 3.82324 4.78711 6.79124 4.78711 10.1002C4.78711 13.2982 6.63111 16.1762 9.51311 17.5252V21.0002C9.51311 21.2762 9.73711 21.5002 10.0131 21.5002Z" fill="black"/>
</svg>