<svg width="25" height="25" viewBox="0 0 25 25" fill="none" xmlns="http://www.w3.org/2000/svg">
<path fill-rule="evenodd" clip-rule="evenodd" d="M6.84265 3.46311C9.63498 2.12951 12.9647 2.7008 15.1528 4.88891C17.2134 6.9495 17.8401 10.0225 16.7924 12.7058L21.1019 17.0152C22.2994 18.2128 22.2994 20.1543 21.1019 21.3519C19.9043 22.5494 17.9628 22.5494 16.7652 21.3519L12.4558 17.0424C9.77253 18.0901 6.6995 17.4634 4.63891 15.4028C2.4508 13.2147 1.87951 9.88498 3.21311 7.09265C3.31804 6.87294 3.52309 6.71784 3.76306 6.67667C4.00303 6.6355 4.24805 6.71338 4.42021 6.88554L7.87132 10.3366L9.68666 9.93667L10.0866 8.12132L6.63554 4.67021C6.46338 4.49805 6.3855 4.25303 6.42667 4.01306C6.46784 3.77309 6.62294 3.56804 6.84265 3.46311ZM8.52453 4.43788L11.2441 7.1575C11.5458 7.45913 11.6728 7.89376 11.581 8.31035L11.1172 10.4154C11.0124 10.891 10.641 11.2624 10.1654 11.3672L8.06035 11.831C7.64376 11.9228 7.20913 11.7958 6.9075 11.4941L4.18788 8.77453C3.67446 10.7403 4.22491 12.8675 5.69957 14.3422C7.43818 16.0808 10.0839 16.5347 12.3026 15.4751C12.5894 15.3381 12.9314 15.3968 13.1562 15.6215L17.8259 20.2912C18.4376 20.903 19.4295 20.903 20.0412 20.2912C20.653 19.6795 20.653 18.6876 20.0412 18.0759L15.3715 13.4062C15.1468 13.1814 15.0881 12.8394 15.2251 12.5526C16.2847 10.3339 15.8308 7.68818 14.0922 5.94957C12.6175 4.47491 10.4903 3.92446 8.52453 4.43788Z" fill="black"/>
</svg>