<svg width="25" height="24" viewBox="0 0 25 24" fill="none" xmlns="http://www.w3.org/2000/svg">
<path fill-rule="evenodd" clip-rule="evenodd" d="M19.9822 14.6573C17.9909 16.6485 15.0769 17.1497 12.6175 16.1667L8.6554 20.1298C7.62773 21.1565 5.93566 21.3041 4.86039 20.327C3.71615 19.2876 3.69187 17.5237 4.76422 16.4503L8.83219 12.3824C7.84336 9.91615 8.34458 7.00214 10.3358 5.0109C12.3339 3.01286 15.2547 2.51844 17.7141 3.51407L14.3154 6.91278C14.0084 7.21972 13.8744 7.65974 13.9599 8.08615L14.2804 9.69663C14.3834 10.2124 14.7875 10.6155 15.3032 10.7175L16.9079 11.0351C17.3333 11.1187 17.7724 10.9846 18.0793 10.6787L21.479 7.27897C22.4814 9.7316 21.9802 12.6592 19.9822 14.6573Z" stroke="black" stroke-width="1.5" stroke-linecap="round" stroke-linejoin="round"/>
</svg>