<svg width="24" height="24" viewBox="0 0 24 24" fill="none" xmlns="http://www.w3.org/2000/svg">
<path fill-rule="evenodd" clip-rule="evenodd" d="M4.20472 5.4039C3.6916 4.64737 4.23352 3.625 5.14764 3.625H8.7938C9.36514 3.625 9.89934 3.90816 10.2201 4.381L19.8841 18.6293C20.3972 19.3858 19.8553 20.4082 18.9412 20.4082H15.295C14.7237 20.4082 14.1895 20.125 13.8688 19.6522L4.20472 5.4039ZM5.82803 5.125L15.1102 18.8102C15.1517 18.8715 15.221 18.9082 15.295 18.9082H18.2608L8.97866 5.22299C8.93709 5.1617 8.86785 5.125 8.7938 5.125H5.82803Z" fill="black"/>
<path fill-rule="evenodd" clip-rule="evenodd" d="M10.9455 12.8704C11.2564 13.1441 11.2866 13.618 11.0129 13.9289L5.23189 20.4956C4.95819 20.8065 4.48427 20.8366 4.17337 20.5629C3.86247 20.2892 3.83232 19.8153 4.10602 19.5044L9.887 12.9378C10.1607 12.6269 10.6346 12.5967 10.9455 12.8704Z" fill="black"/>
<path fill-rule="evenodd" clip-rule="evenodd" d="M19.2527 3.43707C19.5636 3.71078 19.5937 4.18469 19.32 4.49559L13.8833 10.6712C13.6096 10.9821 13.1356 11.0123 12.8247 10.7386C12.5138 10.4649 12.4837 9.99094 12.7574 9.68004L18.1941 3.50443C18.4678 3.19352 18.9418 3.16337 19.2527 3.43707Z" fill="black"/>
</svg>