<svg width="24" height="24" viewBox="0 0 24 24" fill="none" xmlns="http://www.w3.org/2000/svg">
<path opacity="0.4" d="M12 21C16.9709 21 21 16.9709 21 12C21 7.02908 16.9709 3 12 3C7.02908 3 3 7.02908 3 12C3 16.9709 7.02908 21 12 21Z" stroke="black" stroke-width="1.5" stroke-linecap="round" stroke-linejoin="round"/>
<path d="M10.6491 7.95111C10.5472 7.80089 10.3775 7.71094 10.196 7.71094H8.14515C7.96945 7.71094 7.86528 7.90745 7.96391 8.05286L13.3997 16.0671C13.5016 16.2174 13.6713 16.3073 13.8528 16.3073H15.9036C16.0793 16.3073 16.1835 16.1108 16.0849 15.9654L10.6491 7.95111Z" stroke="black" stroke-width="1.5" stroke-linecap="round" stroke-linejoin="round"/>
<path d="M11.1286 12.8047L7.87695 16.4982" stroke="black" stroke-width="1.5" stroke-linecap="round" stroke-linejoin="round"/>
<path d="M15.8012 7.5L12.7432 10.9736" stroke="black" stroke-width="1.5" stroke-linecap="round" stroke-linejoin="round"/>
</svg>