<svg width="24" height="24" viewBox="0 0 24 24" fill="none" xmlns="http://www.w3.org/2000/svg">
<path fill-rule="evenodd" clip-rule="evenodd" d="M3.7402 3.89737C4.72468 2.84117 6.12669 2.25 7.78216 2.25H16.2169C17.8762 2.25 19.2788 2.84084 20.2629 3.89765C21.2413 4.94841 21.75 6.39889 21.75 8.02638V15.9736C21.75 17.6011 21.2413 19.0516 20.2627 20.1024C19.2785 21.1592 17.8756 21.75 16.2159 21.75H7.78216C6.1228 21.75 4.72038 21.1591 3.73657 20.1023C2.75842 19.0515 2.25 17.601 2.25 15.9736V8.02638C2.25 6.39806 2.76117 4.94771 3.7402 3.89737ZM4.83745 4.92012C4.16024 5.64666 3.75 6.70951 3.75 8.02638V15.9736C3.75 17.2914 4.15861 18.3541 4.83451 19.0802C5.50475 19.8003 6.49341 20.25 7.78216 20.25H16.2159C17.5052 20.25 18.4944 19.8002 19.165 19.0801C19.8412 18.354 20.25 17.2913 20.25 15.9736V8.02638C20.25 6.70868 19.8412 5.64597 19.1651 4.91984C18.4946 4.19975 17.5056 3.75 16.2169 3.75H7.78216C6.49828 3.75 5.50921 4.19943 4.83745 4.92012Z" fill="black"/>
<path fill-rule="evenodd" clip-rule="evenodd" d="M6.89512 8.0353C6.44776 7.37573 6.92023 6.48438 7.7172 6.48438H9.996C10.4463 6.48438 10.8674 6.70756 11.1202 7.08025L17.1601 15.9853C17.6074 16.6448 17.135 17.5362 16.338 17.5362H14.0592C13.6089 17.5362 13.1878 17.313 12.935 16.9403L6.89512 8.0353ZM8.67305 7.98438L14.1343 16.0362H15.3821L9.92092 7.98438H8.67305Z" fill="black"/>
<path fill-rule="evenodd" clip-rule="evenodd" d="M11.5266 12.3316C11.8375 12.6053 11.8677 13.0792 11.594 13.3901L7.98091 17.4942C7.70721 17.8051 7.23329 17.8352 6.92239 17.5615C6.61149 17.2878 6.58134 16.8139 6.85504 16.503L10.4681 12.399C10.7418 12.0881 11.2157 12.0579 11.5266 12.3316Z" fill="black"/>
<path fill-rule="evenodd" clip-rule="evenodd" d="M16.7187 6.43707C17.0296 6.71078 17.0597 7.18469 16.786 7.49559L13.3881 11.3553C13.1144 11.6662 12.6405 11.6963 12.3296 11.4226C12.0187 11.1489 11.9886 10.675 12.2623 10.3641L15.6602 6.50443C15.9339 6.19352 16.4078 6.16337 16.7187 6.43707Z" fill="black"/>
</svg>