<svg width="24" height="24" viewBox="0 0 24 24" fill="none" xmlns="http://www.w3.org/2000/svg">
<path d="M17.9613 6.24467C17.3873 5.98878 15.7585 5.10532 13.8525 6.29429C12.2159 7.31591 11.6039 7.16218 10.1484 6.29429C8.15766 5.10824 6.61356 5.98878 6.03951 6.24467C3.24416 7.70607 2.99606 14.4916 3.00287 14.7873C2.97076 16.095 3.19162 17.5233 4.51973 18.0643C5.77097 18.5255 6.79356 18.291 7.46685 17.7919C8.19561 17.2509 8.12555 16.6953 9.32036 16.0065C10.5161 15.3166 13.6335 15.4198 14.6795 16.0065C15.7264 16.5922 15.8052 17.2509 16.533 17.7919C17.2073 18.291 18.2289 18.5255 19.4801 18.0643C20.8092 17.5233 21.0301 16.095 20.997 14.7873C21.0038 14.4916 20.7566 7.70607 17.9613 6.24467Z" stroke="black" stroke-width="1.5" stroke-linecap="round" stroke-linejoin="round"/>
<path d="M8.00121 9.72949V12.5988M9.43765 11.1642H6.56836" stroke="black" stroke-width="1.5" stroke-linecap="round" stroke-linejoin="round"/>
<path d="M16.0059 12.6086V12.5986" stroke="black" stroke-width="1.5" stroke-linecap="round" stroke-linejoin="round"/>
<path d="M16.0059 9.73949V9.72949" stroke="black" stroke-width="1.5" stroke-linecap="round" stroke-linejoin="round"/>
<path d="M14.5723 11.1741V11.1641" stroke="black" stroke-width="1.5" stroke-linecap="round" stroke-linejoin="round"/>
<path d="M17.4414 11.1741V11.1641" stroke="black" stroke-width="1.5" stroke-linecap="round" stroke-linejoin="round"/>
</svg>