<svg width="25" height="24" viewBox="0 0 25 24" fill="none" xmlns="http://www.w3.org/2000/svg">
<path d="M5.80273 17.7208C7.72922 15.0938 10.0838 12.6419 12.7498 10.8613C13.6138 11.4384 14.4452 12.0861 15.2399 12.7873" stroke="black" stroke-width="1.5" stroke-linecap="round" stroke-linejoin="round"/>
<path d="M17.1943 14.6914C18.0916 15.652 18.9281 16.672 19.6965 17.7199" stroke="black" stroke-width="1.5" stroke-linecap="round" stroke-linejoin="round"/>
<path d="M6.53101 5.5C7.86398 6.14216 9.00236 7.23189 10.0532 8.50649C9.44372 8.97726 8.67959 9.73412 7.91892 10.6708" stroke="black" stroke-width="1.5" stroke-linecap="round" stroke-linejoin="round"/>
<path d="M6.53101 12.6191C5.80974 13.7833 5.19926 15.0695 4.87695 16.3588" stroke="black" stroke-width="1.5" stroke-linecap="round" stroke-linejoin="round"/>
<path d="M18.9655 5.5C17.6325 6.14216 16.4942 7.23189 15.4434 8.50649C17.0682 9.76162 19.7925 13.0503 20.6196 16.3584" stroke="black" stroke-width="1.5" stroke-linecap="round" stroke-linejoin="round"/>
<path d="M7.93359 4.40039C9.8017 4.48796 11.3682 5.20796 12.7498 6.44363C14.1314 5.20796 15.6979 4.48796 17.566 4.40039" stroke="black" stroke-width="1.5" stroke-linecap="round" stroke-linejoin="round"/>
<path d="M12.75 21C7.77908 21 3.75 16.9709 3.75 12C3.75 7.02908 7.77908 3 12.75 3C17.7209 3 21.75 7.02908 21.75 12C21.75 15.6691 19.555 18.825 16.4063 20.2264" stroke="black" stroke-width="1.5" stroke-linecap="round" stroke-linejoin="round"/>
</svg>