<svg width="24" height="24" viewBox="0 0 24 24" fill="none" xmlns="http://www.w3.org/2000/svg">
<path fill-rule="evenodd" clip-rule="evenodd" d="M17.302 11.992C16.896 11.992 16.567 11.663 16.567 11.257C16.567 10.851 16.896 10.522 17.302 10.522C17.708 10.522 18.037 10.851 18.037 11.257C18.037 11.663 17.708 11.992 17.302 11.992ZM15.898 13.396C15.492 13.396 15.163 13.067 15.163 12.661C15.163 12.255 15.492 11.926 15.898 11.926C16.304 11.926 16.633 12.255 16.633 12.661C16.633 13.067 16.304 13.396 15.898 13.396ZM14.494 11.992C14.088 11.992 13.759 11.663 13.759 11.257C13.759 10.851 14.088 10.522 14.494 10.522C14.9 10.522 15.229 10.851 15.229 11.257C15.229 11.663 14.9 11.992 14.494 11.992ZM15.898 9.11802C16.304 9.11802 16.633 9.44702 16.633 9.85302C16.633 10.259 16.304 10.588 15.898 10.588C15.492 10.588 15.163 10.259 15.163 9.85302C15.163 9.44702 15.492 9.11802 15.898 9.11802ZM9.3 12.057H8.65V12.707C8.65 13.121 8.314 13.457 7.9 13.457C7.486 13.457 7.15 13.121 7.15 12.707V12.057H6.4C5.986 12.057 5.65 11.721 5.65 11.307C5.65 10.893 5.986 10.557 6.4 10.557H7.15V9.80702C7.15 9.39302 7.486 9.05702 7.9 9.05702C8.314 9.05702 8.65 9.39302 8.65 9.80702V10.557H9.3C9.714 10.557 10.05 10.893 10.05 11.307C10.05 11.721 9.714 12.057 9.3 12.057ZM21.48 14.636C21.469 14.568 21.457 14.432 21.438 14.242C21.269 12.51 20.756 7.23902 18.136 5.83502C18.132 5.83302 18.128 5.83102 18.123 5.82902C17.521 5.52702 15.683 4.60802 13.534 5.85202C12.106 6.74402 11.714 6.66202 10.357 5.84702C8.227 4.56902 6.582 5.41502 5.879 5.77702L5.763 5.83502C2.589 7.53602 2.5 14.704 2.5 14.776C2.5 16.139 2.703 17.798 4.32 18.543C4.87 18.754 5.361 18.834 5.788 18.834C6.771 18.834 7.42 18.409 7.69 18.183C8.037 17.935 8.239 17.672 8.434 17.416C8.688 17.085 8.927 16.772 9.552 16.408C10.596 15.799 13.495 15.888 14.442 16.405C14.93 16.698 15.163 16.98 15.431 17.306C15.652 17.574 15.902 17.878 16.309 18.183C17.222 18.835 18.412 18.967 19.679 18.543C21.311 17.915 21.5 16.093 21.5 14.776C21.5 14.728 21.493 14.681 21.48 14.636Z" fill="black"/>
</svg>