<svg width="25" height="24" viewBox="0 0 25 24" fill="none" xmlns="http://www.w3.org/2000/svg">
<path d="M6.07482 19.0533C5.54041 19.0493 5.01089 18.9508 4.5108 18.7623C2.4268 17.9143 2.4838 15.5423 2.5028 14.7623C2.5028 14.7243 2.6028 7.31931 5.9418 5.57331L6.10781 5.49631C6.83094 5.10741 7.64389 4.91621 8.46456 4.94202C9.28523 4.96783 10.0846 5.20974 10.7818 5.64331C12.0208 6.38231 12.3318 6.50731 13.7048 5.65131C14.4058 5.21261 15.2107 4.96777 16.0373 4.94176C16.8639 4.91576 17.6826 5.10954 18.4098 5.50331L18.5168 5.55231L18.5588 5.57331C21.8978 7.31831 21.9988 14.7243 21.9968 14.7973C22.0158 15.5413 22.0758 17.9123 20.0128 18.7523C19.419 19.0064 18.7706 19.1061 18.1279 19.0423C17.4852 18.9785 16.8691 18.7532 16.3368 18.3873C16.0153 18.1393 15.7323 17.8451 15.4968 17.5143C15.2563 17.1589 14.9365 16.8642 14.5628 16.6533C13.0641 16.1511 11.4425 16.1511 9.94381 16.6533C9.54556 16.8672 9.20647 17.1764 8.95681 17.5533C8.7398 17.8742 8.47196 18.1576 8.16381 18.3923C7.55724 18.8327 6.8243 19.0646 6.07482 19.0533ZM8.33782 6.43431C7.77923 6.45071 7.23184 6.59508 6.73782 6.85631L6.58981 6.92331C4.44781 8.04431 3.98979 13.7633 3.99779 14.7683C3.95179 16.6743 4.53481 17.1553 5.04781 17.3683C5.40125 17.5331 5.79143 17.6031 6.18011 17.5716C6.56878 17.54 6.9426 17.4079 7.26482 17.1883C7.45189 17.0419 7.6134 16.8655 7.74282 16.6663C8.11541 16.1219 8.61116 15.6731 9.18981 15.3563C11.1511 14.5927 13.3273 14.5909 15.2898 15.3513C15.8402 15.6602 16.3144 16.0883 16.6778 16.6043C16.8307 16.8246 17.0146 17.0216 17.2238 17.1893C17.5507 17.4091 17.929 17.5403 18.3218 17.5703C18.7145 17.6002 19.1083 17.5279 19.4648 17.3603C19.9548 17.1603 20.5378 16.6793 20.4908 14.8043C20.4978 13.7703 20.0428 8.07731 17.8728 6.91731L17.7728 6.87231C17.2712 6.58509 16.7014 6.43876 16.1235 6.44879C15.5456 6.45882 14.9811 6.62485 14.4898 6.92931C12.6238 8.09331 11.6898 7.94431 10.0048 6.93731C9.50565 6.62026 8.92905 6.44627 8.33782 6.43431Z" fill="black"/>
<path d="M8.24942 13.3417C8.05051 13.3417 7.85974 13.2626 7.71909 13.122C7.57843 12.9813 7.49942 12.7906 7.49942 12.5917V11.9077H6.81641C6.61749 11.9077 6.42675 11.8286 6.2861 11.688C6.14545 11.5473 6.06641 11.3566 6.06641 11.1577C6.06641 10.9587 6.14545 10.768 6.2861 10.6273C6.42675 10.4867 6.61749 10.4077 6.81641 10.4077H7.49942V9.72266C7.49942 9.52374 7.57843 9.33298 7.71909 9.19233C7.85974 9.05167 8.05051 8.97266 8.24942 8.97266C8.44833 8.97266 8.6391 9.05167 8.77975 9.19233C8.92041 9.33298 8.99942 9.52374 8.99942 9.72266V10.4077H9.68643C9.88534 10.4077 10.0761 10.4867 10.2167 10.6273C10.3574 10.768 10.4364 10.9587 10.4364 11.1577C10.4364 11.3566 10.3574 11.5473 10.2167 11.688C10.0761 11.8286 9.88534 11.9077 9.68643 11.9077H8.99942V12.5917C8.99942 12.6901 8.98001 12.7877 8.94232 12.8787C8.90463 12.9697 8.8494 13.0523 8.77975 13.122C8.71011 13.1916 8.62743 13.2469 8.53644 13.2846C8.44544 13.3223 8.34791 13.3417 8.24942 13.3417Z" fill="black"/>
<path d="M16.2559 13.3477C16.1576 13.3482 16.0603 13.3293 15.9694 13.2921C15.8785 13.2549 15.7958 13.2001 15.7261 13.1309C15.6564 13.0617 15.6011 12.9794 15.5633 12.8888C15.5255 12.7981 15.506 12.7009 15.5059 12.6027V12.5927C15.5068 12.4445 15.5517 12.3 15.6347 12.1774C15.7177 12.0547 15.8352 11.9593 15.9723 11.9033C16.1094 11.8473 16.2601 11.8332 16.4052 11.8627C16.5504 11.8922 16.6835 11.964 16.7879 12.0691C16.8923 12.1742 16.9633 12.3078 16.9918 12.4532C17.0203 12.5985 17.0052 12.7491 16.9483 12.8858C16.8914 13.0226 16.7952 13.1394 16.672 13.2216C16.5488 13.3038 16.404 13.3477 16.2559 13.3477Z" fill="black"/>
<path d="M16.2559 10.4785C16.1576 10.479 16.0603 10.4602 15.9694 10.423C15.8785 10.3858 15.7958 10.331 15.7261 10.2618C15.6564 10.1926 15.6011 10.1103 15.5633 10.0196C15.5255 9.92896 15.506 9.83174 15.5059 9.73352V9.72352C15.5068 9.5754 15.5517 9.43089 15.6347 9.30821C15.7177 9.18553 15.8352 9.09018 15.9723 9.03418C16.1094 8.97818 16.2601 8.96404 16.4052 8.99354C16.5504 9.02304 16.6835 9.09486 16.7879 9.19995C16.8923 9.30504 16.9633 9.43868 16.9918 9.58403C17.0203 9.72937 17.0052 9.87992 16.9483 10.0167C16.8914 10.1534 16.7952 10.2703 16.672 10.3525C16.5488 10.4346 16.404 10.4785 16.2559 10.4785Z" fill="black"/>
<path d="M14.8223 11.9121C14.724 11.9126 14.6267 11.8938 14.5358 11.8566C14.4449 11.8194 14.3622 11.7646 14.2925 11.6954C14.2229 11.6262 14.1675 11.5439 14.1297 11.4532C14.0919 11.3626 14.0724 11.2653 14.0723 11.1671V11.1571C14.0733 11.009 14.1181 10.8645 14.2011 10.7418C14.2841 10.6191 14.4016 10.5238 14.5387 10.4678C14.6758 10.4118 14.8265 10.3976 14.9716 10.4271C15.1168 10.4566 15.2499 10.5285 15.3543 10.6335C15.4587 10.7386 15.5297 10.8723 15.5582 11.0176C15.5867 11.163 15.5716 11.3135 15.5147 11.4503C15.4578 11.587 15.3617 11.7039 15.2384 11.7861C15.1152 11.8682 14.9704 11.9121 14.8223 11.9121Z" fill="black"/>
<path d="M17.6914 11.9121C17.5932 11.9126 17.4958 11.8938 17.4049 11.8566C17.314 11.8194 17.2313 11.7646 17.1617 11.6954C17.092 11.6262 17.0366 11.5439 16.9988 11.4532C16.961 11.3626 16.9415 11.2653 16.9414 11.1671V11.1571C16.9424 11.009 16.9872 10.8645 17.0702 10.7418C17.1532 10.6191 17.2707 10.5238 17.4078 10.4678C17.545 10.4118 17.6956 10.3976 17.8408 10.4271C17.9859 10.4566 18.1191 10.5285 18.2235 10.6335C18.3279 10.7386 18.3988 10.8723 18.4273 11.0176C18.4559 11.163 18.4407 11.3135 18.3838 11.4503C18.3269 11.587 18.2308 11.7039 18.1075 11.7861C17.9843 11.8682 17.8395 11.9121 17.6914 11.9121Z" fill="black"/>
</svg>