<svg width="24" height="24" viewBox="0 0 24 24" fill="none" xmlns="http://www.w3.org/2000/svg">
<path d="M20.997 14.7873C21.0301 16.095 20.8092 17.5233 19.4801 18.0643C18.2289 18.5255 17.2073 18.291 16.533 17.7919C15.8052 17.2509 15.7264 16.5922 14.6795 16.0065C13.6335 15.4198 10.5161 15.3166 9.32036 16.0065C8.12555 16.6953 8.19561 17.2509 7.46685 17.7919C6.79356 18.291 5.77097 18.5255 4.51973 18.0643C3.19162 17.5233 2.97076 16.095 3.00287 14.7873C2.99606 14.4916 3.24416 7.70607 6.03951 6.24467C6.61356 5.98878 8.15766 5.10824 10.1484 6.29429C11.6039 7.16218 12.2159 7.31591 13.8525 6.29429C15.7585 5.10532 17.3873 5.98878 17.9613 6.24467C19.6074 7.10526 20.3699 9.81213 20.7172 11.9528" stroke="black" stroke-width="1.5" stroke-linecap="round" stroke-linejoin="round"/>
<path d="M8.00121 9.72949V12.5988M9.43765 11.1642H6.56836" stroke="black" stroke-width="1.5" stroke-linecap="round" stroke-linejoin="round"/>
<path d="M16.0059 12.6086V12.5986" stroke="black" stroke-width="1.5" stroke-linecap="round" stroke-linejoin="round"/>
<path d="M16.0059 9.73949V9.72949" stroke="black" stroke-width="1.5" stroke-linecap="round" stroke-linejoin="round"/>
<path d="M14.5723 11.1741V11.1641" stroke="black" stroke-width="1.5" stroke-linecap="round" stroke-linejoin="round"/>
<path d="M17.4414 11.1741V11.1641" stroke="black" stroke-width="1.5" stroke-linecap="round" stroke-linejoin="round"/>
</svg>