<svg width="24" height="24" viewBox="0 0 24 24" fill="none" xmlns="http://www.w3.org/2000/svg">
<path fill-rule="evenodd" clip-rule="evenodd" d="M3.7402 3.89737C4.72468 2.84117 6.12669 2.25 7.78216 2.25H16.2169C17.8762 2.25 19.2788 2.84084 20.2629 3.89765C21.2413 4.94841 21.75 6.39889 21.75 8.02638V15.9736C21.75 17.6011 21.2413 19.0516 20.2627 20.1024C19.2785 21.1592 17.8756 21.75 16.2159 21.75H7.78216C6.1228 21.75 4.72038 21.1591 3.73657 20.1023C2.75842 19.0515 2.25 17.601 2.25 15.9736V8.02638C2.25 6.39806 2.76117 4.94771 3.7402 3.89737ZM4.83745 4.92012C4.16024 5.64666 3.75 6.70951 3.75 8.02638V15.9736C3.75 17.2914 4.15861 18.3541 4.83451 19.0802C5.50475 19.8003 6.49341 20.25 7.78216 20.25H16.2159C17.5052 20.25 18.4944 19.8002 19.165 19.0801C19.8412 18.354 20.25 17.2913 20.25 15.9736V8.02638C20.25 6.70868 19.8412 5.64597 19.1651 4.91984C18.4946 4.19975 17.5056 3.75 16.2169 3.75H7.78216C6.49828 3.75 5.50921 4.19943 4.83745 4.92012Z" fill="black"/>
<path fill-rule="evenodd" clip-rule="evenodd" d="M7.0918 9.22656C7.0918 8.81235 7.42758 8.47656 7.8418 8.47656H11.5391C12.9701 8.47656 14.1377 9.64424 14.1377 11.0752V14.7725C14.1377 15.1867 13.802 15.5225 13.3877 15.5225C12.9735 15.5225 12.6377 15.1867 12.6377 14.7725V11.0752C12.6377 10.4727 12.1416 9.97656 11.5391 9.97656H8.5918V14.7725C8.5918 15.1867 8.25601 15.5225 7.8418 15.5225C7.42758 15.5225 7.0918 15.1867 7.0918 14.7725V9.22656Z" fill="black"/>
<path fill-rule="evenodd" clip-rule="evenodd" d="M10.6133 11.25C11.0275 11.25 11.3633 11.5858 11.3633 12V14.773C11.3633 15.1872 11.0275 15.523 10.6133 15.523C10.1991 15.523 9.86328 15.1872 9.86328 14.773V12C9.86328 11.5858 10.1991 11.25 10.6133 11.25Z" fill="black"/>
<path fill-rule="evenodd" clip-rule="evenodd" d="M16.1602 8.47656C16.5744 8.47656 16.9102 8.81235 16.9102 9.22656V14.7725C16.9102 15.1867 16.5744 15.5225 16.1602 15.5225C15.7459 15.5225 15.4102 15.1867 15.4102 14.7725V9.22656C15.4102 8.81235 15.7459 8.47656 16.1602 8.47656Z" fill="black"/>
</svg>