<svg width="24" height="24" viewBox="0 0 24 24" fill="none" xmlns="http://www.w3.org/2000/svg">
<path fill-rule="evenodd" clip-rule="evenodd" d="M12 3.75C7.44329 3.75 3.75 7.44329 3.75 12C3.75 16.5567 7.44329 20.25 12 20.25C16.5567 20.25 20.25 16.5567 20.25 12C20.25 7.44329 16.5567 3.75 12 3.75ZM2.25 12C2.25 6.61487 6.61487 2.25 12 2.25C17.3851 2.25 21.75 6.61487 21.75 12C21.75 17.3851 17.3851 21.75 12 21.75C6.61487 21.75 2.25 17.3851 2.25 12Z" fill="black"/>
<path fill-rule="evenodd" clip-rule="evenodd" d="M7.20117 9.29688C7.20117 8.88266 7.53696 8.54688 7.95117 8.54688H11.5512C12.9546 8.54688 14.1012 9.69191 14.1012 11.0969V14.6969C14.1012 15.1111 13.7654 15.4469 13.3512 15.4469C12.937 15.4469 12.6012 15.1111 12.6012 14.6969V11.0969C12.6012 10.5209 12.1267 10.0469 11.5512 10.0469H8.70117V14.6969C8.70117 15.1111 8.36539 15.4469 7.95117 15.4469C7.53696 15.4469 7.20117 15.1111 7.20117 14.6969V9.29688Z" fill="black"/>
<path fill-rule="evenodd" clip-rule="evenodd" d="M16.0508 8.54688C16.465 8.54688 16.8008 8.88266 16.8008 9.29688V14.6969C16.8008 15.1111 16.465 15.4469 16.0508 15.4469C15.6366 15.4469 15.3008 15.1111 15.3008 14.6969V9.29688C15.3008 8.88266 15.6366 8.54688 16.0508 8.54688Z" fill="black"/>
<path fill-rule="evenodd" clip-rule="evenodd" d="M10.6504 11.25C11.0646 11.25 11.4004 11.5858 11.4004 12V14.7C11.4004 15.1142 11.0646 15.45 10.6504 15.45C10.2362 15.45 9.90039 15.1142 9.90039 14.7V12C9.90039 11.5858 10.2362 11.25 10.6504 11.25Z" fill="black"/>
</svg>