<svg width="24" height="24" viewBox="0 0 24 24" fill="none" xmlns="http://www.w3.org/2000/svg">
<path fill-rule="evenodd" clip-rule="evenodd" d="M2.25 3C2.25 2.58579 2.58579 2.25 3 2.25H21C21.4142 2.25 21.75 2.58579 21.75 3V21C21.75 21.4142 21.4142 21.75 21 21.75H3C2.58579 21.75 2.25 21.4142 2.25 21V3ZM3.75 3.75V20.25H20.25V3.75H3.75Z" fill="black"/>
<path fill-rule="evenodd" clip-rule="evenodd" d="M7.0918 9.22656C7.0918 8.81235 7.42758 8.47656 7.8418 8.47656H11.5391C12.9701 8.47656 14.1377 9.64424 14.1377 11.0752V14.7725C14.1377 15.1867 13.802 15.5225 13.3877 15.5225C12.9735 15.5225 12.6377 15.1867 12.6377 14.7725V11.0752C12.6377 10.4727 12.1416 9.97656 11.5391 9.97656H8.5918V14.7725C8.5918 15.1867 8.25601 15.5225 7.8418 15.5225C7.42758 15.5225 7.0918 15.1867 7.0918 14.7725V9.22656Z" fill="black"/>
<path fill-rule="evenodd" clip-rule="evenodd" d="M16.1602 8.47656C16.5744 8.47656 16.9102 8.81235 16.9102 9.22656V14.7725C16.9102 15.1867 16.5744 15.5225 16.1602 15.5225C15.7459 15.5225 15.4102 15.1867 15.4102 14.7725V9.22656C15.4102 8.81235 15.7459 8.47656 16.1602 8.47656Z" fill="black"/>
<path fill-rule="evenodd" clip-rule="evenodd" d="M10.6133 11.25C11.0275 11.25 11.3633 11.5858 11.3633 12V14.773C11.3633 15.1872 11.0275 15.523 10.6133 15.523C10.1991 15.523 9.86328 15.1872 9.86328 14.773V12C9.86328 11.5858 10.1991 11.25 10.6133 11.25Z" fill="black"/>
</svg>