<svg width="24" height="24" viewBox="0 0 24 24" fill="none" xmlns="http://www.w3.org/2000/svg">
<path fill-rule="evenodd" clip-rule="evenodd" d="M12 3.75C7.44329 3.75 3.75 7.44329 3.75 12C3.75 16.5567 7.44329 20.25 12 20.25C16.5567 20.25 20.25 16.5567 20.25 12C20.25 7.44329 16.5567 3.75 12 3.75ZM2.25 12C2.25 6.61487 6.61487 2.25 12 2.25C17.3851 2.25 21.75 6.61487 21.75 12C21.75 17.3851 17.3851 21.75 12 21.75C6.61487 21.75 2.25 17.3851 2.25 12Z" fill="black"/>
<path fill-rule="evenodd" clip-rule="evenodd" d="M15.9057 6.64904C16.2635 6.85775 16.3843 7.31699 16.1756 7.67478L13.1115 12.9276L15.2231 16.3063C15.4426 16.6575 15.3359 17.1202 14.9846 17.3398C14.6334 17.5593 14.1706 17.4525 13.9511 17.1013L11.7499 13.5794C11.5097 13.1951 11.5023 12.7092 11.7307 12.3177L14.88 6.91897C15.0887 6.56118 15.5479 6.44033 15.9057 6.64904Z" fill="black"/>
<path fill-rule="evenodd" clip-rule="evenodd" d="M8.7808 8.5437C9.13205 8.32416 9.59476 8.43094 9.81429 8.7822L10.8396 10.4227C11.0798 10.807 11.0872 11.2928 10.8589 11.6843L9.12063 14.6646C8.91194 15.0224 8.45271 15.1432 8.09491 14.9346C7.73711 14.7259 7.61623 14.2666 7.82492 13.9088L9.4781 11.0745L8.5423 9.5772C8.32276 9.22594 8.42954 8.76323 8.7808 8.5437Z" fill="black"/>
</svg>