<svg width="24" height="24" viewBox="0 0 24 24" fill="none" xmlns="http://www.w3.org/2000/svg">
<path fill-rule="evenodd" clip-rule="evenodd" d="M3.7402 3.89737C4.72468 2.84117 6.12669 2.25 7.78216 2.25H16.2169C17.8762 2.25 19.2788 2.84084 20.2629 3.89765C21.2413 4.94841 21.75 6.39889 21.75 8.02638V15.9736C21.75 17.6011 21.2413 19.0516 20.2627 20.1024C19.2785 21.1592 17.8756 21.75 16.2159 21.75H7.78216C6.1228 21.75 4.72038 21.1591 3.73657 20.1023C2.75842 19.0515 2.25 17.601 2.25 15.9736V8.02638C2.25 6.39806 2.76117 4.94771 3.7402 3.89737ZM4.83745 4.92012C4.16024 5.64666 3.75 6.70951 3.75 8.02638V15.9736C3.75 17.2914 4.15861 18.3541 4.83451 19.0802C5.50475 19.8003 6.49341 20.25 7.78216 20.25H16.2159C17.5052 20.25 18.4944 19.8002 19.165 19.0801C19.8412 18.354 20.25 17.2913 20.25 15.9736V8.02638C20.25 6.70868 19.8412 5.64597 19.1651 4.91984C18.4946 4.19975 17.5056 3.75 16.2169 3.75H7.78216C6.49828 3.75 5.50921 4.19943 4.83745 4.92012Z" fill="black"/>
<path fill-rule="evenodd" clip-rule="evenodd" d="M16.1278 6.35217C16.4856 6.56088 16.6065 7.02011 16.3978 7.3779L13.126 12.9866L15.3859 16.6025C15.6055 16.9538 15.4987 17.4165 15.1474 17.636C14.7962 17.8555 14.3335 17.7488 14.1139 17.3975L11.774 13.6536C11.5279 13.2599 11.5203 12.7623 11.7543 12.3612L15.1021 6.6221C15.3108 6.26431 15.77 6.14346 16.1278 6.35217Z" fill="black"/>
<path fill-rule="evenodd" clip-rule="evenodd" d="M8.60262 8.36401C8.95388 8.14448 9.41659 8.25126 9.63612 8.60251L10.7261 10.3464C10.9721 10.7401 10.9797 11.2377 10.7458 11.6387L8.89798 14.8069C8.68929 15.1647 8.23005 15.2856 7.87225 15.0769C7.51445 14.8682 7.39358 14.4089 7.60227 14.0511L9.37406 11.0134L8.36412 9.39751C8.14459 9.04626 8.25137 8.58354 8.60262 8.36401Z" fill="black"/>
</svg>