<svg width="24" height="24" viewBox="0 0 24 24" fill="none" xmlns="http://www.w3.org/2000/svg">
<path fill-rule="evenodd" clip-rule="evenodd" d="M12 3.75C7.44329 3.75 3.75 7.44329 3.75 12C3.75 16.5567 7.44329 20.25 12 20.25C16.5567 20.25 20.25 16.5567 20.25 12C20.25 7.44329 16.5567 3.75 12 3.75ZM2.25 12C2.25 6.61487 6.61487 2.25 12 2.25C17.3851 2.25 21.75 6.61487 21.75 12C21.75 17.3851 17.3851 21.75 12 21.75C6.61487 21.75 2.25 17.3851 2.25 12Z" fill="black"/>
<path fill-rule="evenodd" clip-rule="evenodd" d="M12.5484 8.56184C12.9285 8.72654 13.1031 9.16815 12.9384 9.54821L9.68836 17.0482C9.52366 17.4283 9.08205 17.6029 8.70199 17.4382C8.32192 17.2735 8.14733 16.8319 8.31202 16.4518L11.562 8.9518C11.7267 8.57174 12.1683 8.39715 12.5484 8.56184Z" fill="black"/>
<path fill-rule="evenodd" clip-rule="evenodd" d="M16.4675 7.27159C16.8482 7.43475 17.0246 7.87566 16.8614 8.25639L15.3614 11.7564C15.1983 12.1371 14.7574 12.3135 14.3766 12.1503C13.9959 11.9871 13.8195 11.5462 13.9827 11.1655L15.4827 7.66551C15.6459 7.28478 16.0868 7.10842 16.4675 7.27159Z" fill="black"/>
<path fill-rule="evenodd" clip-rule="evenodd" d="M7.21174 8.5577C7.59409 8.39839 8.03319 8.5792 8.1925 8.96155L10.5209 14.5498C10.6802 14.9322 10.4994 15.3713 10.1171 15.5306C9.73473 15.6899 9.29563 15.5091 9.13632 15.1267L6.80789 9.53847C6.64858 9.15612 6.82938 8.71702 7.21174 8.5577Z" fill="black"/>
<path fill-rule="evenodd" clip-rule="evenodd" d="M12.8037 13.9542C12.8037 13.4749 13.1922 13.0859 13.672 13.0859C14.1512 13.0859 14.5403 13.4743 14.5403 13.9542C14.5403 14.4341 14.1512 14.8225 13.672 14.8225C13.1922 14.8225 12.8037 14.4335 12.8037 13.9542Z" fill="black"/>
</svg>