<svg width="24" height="24" viewBox="0 0 24 24" fill="none" xmlns="http://www.w3.org/2000/svg">
<path d="M10.7578 3.02045C11.5701 2.93048 12.9319 3.09882 12.9319 4.31124C12.9319 4.94754 12.5979 8.01519 12.5552 8.70853C12.5349 9.03806 12.4368 9.70312 12.2861 10.0053C11.8994 10.7805 10.9604 10.4894 10.5628 9.93826C10.2826 9.63881 8.06928 6.22059 7.75208 5.34855C7.43488 4.4765 8.05304 3.87972 8.80395 3.53707C9.42406 3.2684 10.0876 3.10242 10.7578 3.02045Z" stroke="black" stroke-width="1.5"/>
<path d="M19.0663 8.26537C19.3698 8.63265 19.5979 9.05496 19.7849 9.49162C20.2478 10.5875 19.7981 11.2269 18.723 11.4588C17.606 11.7124 16.6076 11.9077 15.491 12.1618C14.8949 12.3155 14.1554 11.9909 14.2552 11.2605C14.3003 10.9515 14.514 10.7054 14.7174 10.4829C15.4795 9.70447 16.1217 8.98158 16.8994 8.21872C17.7114 7.47348 18.3584 7.41725 19.0663 8.26537Z" stroke="black" stroke-width="1.5"/>
<path d="M5.7086 10.5447C6.89291 10.8719 8.04722 11.3451 9.20201 11.761C10.3094 12.2051 10.3507 13.3292 9.07611 13.638C7.94614 13.893 6.81658 14.1504 5.68622 14.4046C4.85105 14.5844 4.21372 14.3067 4.08101 13.4078C3.98668 12.6483 4.02386 11.8577 4.29405 11.1359C4.55219 10.4828 5.09436 10.3828 5.7086 10.5447Z" stroke="black" stroke-width="1.5"/>
<path d="M15.6566 14.4991C16.6606 15.019 17.5414 15.3374 18.5342 15.8786C19.2316 16.2948 19.8772 16.7844 19.3755 17.6597C18.9326 18.4015 18.3007 19.0383 17.5427 19.4571C16.6765 19.9169 16.1905 19.3513 15.7574 18.6541C15.1959 17.6705 14.7842 16.8738 14.2435 15.8786C13.6343 14.7397 14.3929 13.8633 15.6566 14.4991Z" stroke="black" stroke-width="1.5"/>
<path d="M12.097 16.2788C12.055 17.3719 12.0186 18.4653 11.9563 19.5571C11.7837 21.3734 10.2881 21.183 8.94529 20.5547C7.63692 19.8998 7.73959 19.1554 8.53686 18.027C9.11351 17.2307 9.69784 16.4402 10.287 15.6528C11.0235 14.6871 12.1358 14.9268 12.097 16.2788Z" stroke="black" stroke-width="1.5"/>
</svg>