<svg width="24" height="25" viewBox="0 0 24 25" fill="none" xmlns="http://www.w3.org/2000/svg">
<path fill-rule="evenodd" clip-rule="evenodd" d="M16.9865 5.28137C16.5565 4.93537 15.9255 5.00837 15.5815 5.43837L11.9985 9.92037L8.41945 5.43837C8.07545 5.00837 7.44645 4.93537 7.01345 5.28137C6.58245 5.62637 6.51145 6.25537 6.85645 6.68637L9.92045 10.5224H8.18345C7.63145 10.5224 7.18345 10.9694 7.18345 11.5224C7.18345 12.0754 7.63145 12.5224 8.18345 12.5224H11.0045V18.0624C11.0045 18.6154 11.4515 19.0624 12.0045 19.0624C12.5565 19.0624 13.0045 18.6154 13.0045 18.0624V12.5224H15.8195C16.3725 12.5224 16.8195 12.0754 16.8195 11.5224C16.8195 10.9694 16.3725 10.5224 15.8195 10.5224H14.0775L17.1435 6.68637C17.4885 6.25637 17.4185 5.62637 16.9865 5.28137Z" fill="black"/>
</svg>