<svg width="24" height="24" viewBox="0 0 24 24" fill="none" xmlns="http://www.w3.org/2000/svg">
<path fill-rule="evenodd" clip-rule="evenodd" d="M19.0299 4.40606C20.1539 4.73903 21.0118 5.65351 21.3005 6.796C21.4675 7.31318 21.5742 8.1131 21.6429 8.98277C21.7149 9.89335 21.7502 10.9551 21.75 12.0091C21.7498 13.0631 21.7141 14.1204 21.642 15.0219C21.5736 15.8771 21.4676 16.6658 21.2995 17.17C21.0106 18.307 20.1578 19.2175 19.0404 19.5526C18.7547 19.6544 18.3533 19.7235 17.9261 19.7766C17.4642 19.8341 16.9025 19.8806 16.2802 19.9172C15.0343 19.9904 13.514 20.0257 11.9991 20.0245C10.4841 20.0234 8.96412 19.9858 7.71889 19.912C7.09687 19.8751 6.53595 19.8288 6.07492 19.7722C5.64792 19.7199 5.24922 19.6525 4.96641 19.5548C3.86672 19.2361 3.01694 18.3611 2.70351 17.2534C2.53397 16.7409 2.42649 15.9377 2.35737 15.0643C2.28537 14.1543 2.24994 13.0907 2.25 12.0329C2.25006 10.9751 2.28562 9.91224 2.35766 9.00373C2.42623 8.13889 2.53253 7.34291 2.69992 6.83211C2.9885 5.692 3.84208 4.78066 4.96293 4.44613C5.24643 4.3475 5.64696 4.28007 6.07542 4.22782C6.53649 4.1716 7.09742 4.1257 7.71934 4.08921C8.96437 4.01616 10.484 3.97907 11.9985 3.97669C13.513 3.9743 15.0322 4.0066 16.2765 4.07359C16.8981 4.10706 17.4581 4.14955 17.918 4.20174C18.3504 4.25081 18.7503 4.31404 19.0299 4.40606ZM6.25699 5.71679C5.81853 5.77026 5.55893 5.82534 5.45051 5.86472C5.43513 5.87031 5.41958 5.87539 5.40387 5.87996C4.79292 6.05761 4.30896 6.56178 4.14952 7.21849C4.14417 7.24052 4.13783 7.2623 4.13051 7.28375C4.02402 7.59582 3.92317 8.23692 3.85296 9.12229C3.78474 9.98273 3.75006 11.005 3.75 12.033C3.74994 13.061 3.7845 14.084 3.8527 14.9459C3.92284 15.8324 4.02377 16.4764 4.1309 16.7921C4.13554 16.8057 4.13978 16.8195 4.14362 16.8334C4.31909 17.4686 4.79973 17.9499 5.39746 18.118C5.41522 18.123 5.43278 18.1286 5.45013 18.1349C5.55906 18.1744 5.81916 18.2296 6.25749 18.2834C6.67589 18.3347 7.20284 18.3788 7.80764 18.4146C9.01608 18.4862 10.5056 18.5234 12.0002 18.5245C13.4949 18.5257 14.9841 18.4908 16.1922 18.4198C16.7968 18.3842 17.3232 18.3401 17.7409 18.2881C18.1791 18.2336 18.4366 18.1773 18.5427 18.1375C18.5602 18.131 18.578 18.1251 18.5959 18.1199C19.2061 17.9422 19.6911 17.4369 19.8505 16.7811C19.8563 16.7575 19.8631 16.7342 19.8711 16.7113C19.9758 16.4112 20.0765 15.7815 20.1468 14.9023C20.215 14.0493 20.2498 13.033 20.25 12.0089C20.2502 10.9848 20.2157 9.96361 20.1476 9.10095C20.0775 8.21471 19.9766 7.56554 19.8681 7.24175C19.8614 7.22167 19.8555 7.2013 19.8505 7.18072C19.6911 6.52487 19.2061 6.01957 18.5959 5.84195C18.5855 5.83891 18.5751 5.83564 18.5648 5.83216C18.4518 5.79385 18.1877 5.74197 17.7489 5.69217C17.3292 5.64454 16.8012 5.60401 16.1959 5.57142C14.9863 5.5063 13.4958 5.47433 12.0008 5.47668C10.5057 5.47904 9.01583 5.51572 7.8072 5.58664C7.20229 5.62213 6.67535 5.66578 6.25699 5.71679Z" fill="black"/>
<path fill-rule="evenodd" clip-rule="evenodd" d="M9.39453 9.93255C9.39453 8.99797 10.403 8.40794 11.2176 8.87087L14.8908 10.9595C15.711 11.4275 15.7142 12.6133 14.8892 13.0815L11.2178 15.1692C10.4055 15.6309 9.39453 15.0458 9.39453 14.1086V9.93255ZM10.8945 10.4127L13.7213 12.0201L10.8945 13.6275V10.4127Z" fill="black"/>
</svg>