<svg width="24" height="24" viewBox="0 0 24 24" fill="none" xmlns="http://www.w3.org/2000/svg">
<path d="M12 21.75C6.62 21.75 2.25 17.38 2.25 12C2.25 6.62 6.62 2.25 12 2.25C17.38 2.25 21.75 6.62 21.75 12C21.75 17.38 17.38 21.75 12 21.75ZM12 3.75C7.45 3.75 3.75 7.45 3.75 12C3.75 16.55 7.45 20.25 12 20.25C16.55 20.25 20.25 16.55 20.25 12C20.25 7.45 16.55 3.75 12 3.75Z" fill="black"/>
<path d="M10.44 11.2009C10.25 11.2009 10.06 11.1309 9.91004 10.9809L7.57004 8.64084C7.28004 8.35084 7.28004 7.87078 7.57004 7.58078C7.86004 7.29078 8.34004 7.29078 8.63004 7.58078L10.97 9.92087C11.26 10.2109 11.26 10.6909 10.97 10.9809C10.82 11.1309 10.63 11.2009 10.44 11.2009Z" fill="black"/>
<path d="M15.8902 16.6303C15.7002 16.6303 15.5102 16.5604 15.3602 16.4104L13.0202 14.0705C12.7302 13.7805 12.7302 13.3005 13.0202 13.0105C13.3102 12.7205 13.7902 12.7205 14.0802 13.0105L16.4202 15.3503C16.7102 15.6403 16.7102 16.1204 16.4202 16.4104C16.2702 16.5604 16.0802 16.6303 15.8902 16.6303Z" fill="black"/>
<path d="M8.10004 16.6303C7.91004 16.6303 7.72004 16.5604 7.57004 16.4104C7.28004 16.1204 7.28004 15.6403 7.57004 15.3503L9.91004 13.0105C10.2 12.7205 10.68 12.7205 10.97 13.0105C11.26 13.3005 11.26 13.7805 10.97 14.0705L8.63004 16.4104C8.48004 16.5604 8.29004 16.6303 8.10004 16.6303Z" fill="black"/>
<path d="M13.5405 11.2009C13.3505 11.2009 13.1605 11.1309 13.0105 10.9809C12.7205 10.6909 12.7205 10.2109 13.0105 9.92087L15.3505 7.58078C15.6405 7.29078 16.1205 7.29078 16.4105 7.58078C16.7005 7.87078 16.7005 8.35084 16.4105 8.64084L14.0705 10.9809C13.9205 11.1309 13.7305 11.2009 13.5405 11.2009Z" fill="black"/>
<path d="M17.5001 12.75H13.8301C13.4201 12.75 13.0801 12.41 13.0801 12C13.0801 11.59 13.4201 11.25 13.8301 11.25H17.5001C17.9101 11.25 18.2501 11.59 18.2501 12C18.2501 12.41 17.9101 12.75 17.5001 12.75Z" fill="black"/>
<path d="M10.16 12.75H6.5C6.09 12.75 5.75 12.41 5.75 12C5.75 11.59 6.09 11.25 6.5 11.25H10.16C10.57 11.25 10.91 11.59 10.91 12C10.91 12.41 10.57 12.75 10.16 12.75Z" fill="black"/>
<path d="M11.9902 10.9199C11.5802 10.9199 11.2402 10.5799 11.2402 10.1699V6.5C11.2402 6.09 11.5802 5.75 11.9902 5.75C12.4002 5.75 12.7402 6.09 12.7402 6.5V10.1699C12.7402 10.5799 12.4002 10.9199 11.9902 10.9199Z" fill="black"/>
<path d="M11.9902 18.2383C11.5802 18.2383 11.2402 17.8983 11.2402 17.4883V13.8281C11.2402 13.4181 11.5802 13.0781 11.9902 13.0781C12.4002 13.0781 12.7402 13.4181 12.7402 13.8281V17.4883C12.7402 17.8983 12.4002 18.2383 11.9902 18.2383Z" fill="black"/>
<path d="M11.9999 14.5778C11.3799 14.5778 10.7699 14.468 10.1799 14.238C9.97992 14.158 9.81992 14.0081 9.74992 13.8081C9.52992 13.2381 9.41992 12.628 9.41992 11.998C9.41992 11.368 9.52992 10.7579 9.74992 10.1779C9.82992 9.97794 9.97992 9.81801 10.1799 9.74801C11.2999 9.31801 12.5799 9.29801 13.8099 9.74801C14.0199 9.82801 14.1799 9.98795 14.2599 10.188C14.4799 10.768 14.5899 11.378 14.5899 11.998C14.5899 12.618 14.4799 13.2281 14.2599 13.8081C14.1799 14.0181 14.0199 14.178 13.8099 14.248C13.2199 14.468 12.6099 14.5778 11.9999 14.5778ZM11.0399 12.948C11.6599 13.118 12.3099 13.128 12.9499 12.948C13.0299 12.638 13.0799 12.318 13.0799 11.998C13.0799 11.678 13.0399 11.3581 12.9499 11.0481C12.2999 10.8781 11.6399 10.8781 11.0399 11.0481C10.9599 11.3581 10.9099 11.678 10.9099 12.008C10.9099 12.328 10.9499 12.648 11.0399 12.958V12.948Z" fill="black"/>
</svg>