<svg width="24" height="24" viewBox="0 0 24 24" fill="none" xmlns="http://www.w3.org/2000/svg">
<path d="M9.59015 10.3554C9.40015 10.3554 9.21015 10.2855 9.06015 10.1355L5.44016 6.52561C5.15016 6.23561 5.15016 5.75555 5.44016 5.46555C5.73016 5.17555 6.21015 5.17555 6.50015 5.46555L10.1201 9.07565C10.4101 9.36565 10.4101 9.84547 10.1201 10.1355C9.97015 10.2855 9.78015 10.3554 9.59015 10.3554Z" fill="black"/>
<path d="M18.0101 18.7541C17.8201 18.7541 17.6301 18.6842 17.4801 18.5342L13.8601 14.924C13.5701 14.634 13.5701 14.154 13.8601 13.864C14.1501 13.574 14.6301 13.574 14.9201 13.864L18.5401 17.4741C18.8301 17.7641 18.8301 18.2442 18.5401 18.5342C18.3901 18.6842 18.2001 18.7541 18.0101 18.7541Z" fill="black"/>
<path d="M5.97016 18.7541C5.78016 18.7541 5.59016 18.6842 5.44016 18.5342C5.15016 18.2442 5.15016 17.7641 5.44016 17.4741L9.06015 13.864C9.35015 13.574 9.83015 13.574 10.1201 13.864C10.4101 14.154 10.4101 14.634 10.1201 14.924L6.50015 18.5342C6.35015 18.6842 6.16015 18.7541 5.97016 18.7541Z" fill="black"/>
<path d="M14.3901 10.3554C14.2001 10.3554 14.0101 10.2855 13.8601 10.1355C13.5701 9.84547 13.5701 9.36565 13.8601 9.07565L17.4801 5.46555C17.7701 5.17555 18.2501 5.17555 18.5401 5.46555C18.8301 5.75555 18.8301 6.23561 18.5401 6.52561L14.9201 10.1355C14.7701 10.2855 14.5801 10.3554 14.3901 10.3554Z" fill="black"/>
<path d="M20.5003 12.7559H14.8203C14.4103 12.7559 14.0703 12.4159 14.0703 12.0059C14.0703 11.5959 14.4103 11.2559 14.8203 11.2559H20.5003C20.9103 11.2559 21.2503 11.5959 21.2503 12.0059C21.2503 12.4159 20.9103 12.7559 20.5003 12.7559Z" fill="black"/>
<path d="M9.16 12.7559H3.5C3.09 12.7559 2.75 12.4159 2.75 12.0059C2.75 11.5959 3.09 11.2559 3.5 11.2559H9.16C9.57 11.2559 9.91 11.5959 9.91 12.0059C9.91 12.4159 9.57 12.7559 9.16 12.7559Z" fill="black"/>
<path d="M11.9902 9.92578C11.5802 9.92578 11.2402 9.58578 11.2402 9.17578V3.50586C11.2402 3.09586 11.5802 2.75586 11.9902 2.75586C12.4002 2.75586 12.7402 3.09586 12.7402 3.50586V9.17578C12.7402 9.58578 12.4002 9.92578 11.9902 9.92578Z" fill="black"/>
<path d="M11.9902 21.2461C11.5802 21.2461 11.2402 20.9061 11.2402 20.4961V14.8262C11.2402 14.4162 11.5802 14.0762 11.9902 14.0762C12.4002 14.0762 12.7402 14.4162 12.7402 14.8262V20.4961C12.7402 20.9061 12.4002 21.2461 11.9902 21.2461Z" fill="black"/>
<path d="M11.9904 15.574C11.0804 15.574 10.1804 15.4138 9.33038 15.0838C9.13038 15.0038 8.97041 14.8538 8.89041 14.6438C8.57041 13.7938 8.41039 12.9039 8.40039 11.9939C8.40039 11.0839 8.57041 10.1938 8.89041 9.3438C8.97041 9.1438 9.12038 8.98386 9.33038 8.90386C11.0004 8.27386 12.9304 8.25386 14.6504 8.90386C14.8504 8.98386 15.0104 9.1338 15.0904 9.3438C15.4104 10.1938 15.5804 11.0839 15.5704 11.9939C15.5704 12.9039 15.4104 13.7939 15.0804 14.6539C15.0004 14.8639 14.8404 15.0238 14.6404 15.0938C13.7804 15.4138 12.8804 15.574 11.9904 15.574ZM10.1904 13.794C11.3604 14.164 12.6104 14.164 13.8104 13.794C13.9904 13.204 14.0904 12.6039 14.0904 11.9839C14.0904 11.3739 14.0004 10.7739 13.8204 10.1939C12.6404 9.8239 11.3504 9.8239 10.2104 10.1939C10.0304 10.7839 9.93039 11.3839 9.93039 11.9939C9.93039 12.6039 10.0204 13.214 10.2104 13.794H10.1904Z" fill="black"/>
</svg>