<svg width="24" height="24" viewBox="0 0 24 24" fill="none" xmlns="http://www.w3.org/2000/svg">
<path d="M12 21C16.9709 21 21 16.9709 21 12C21 7.02908 16.9709 3 12 3C7.02908 3 3 7.02908 3 12C3 16.9709 7.02908 21 12 21Z" stroke="black" stroke-width="1.5" stroke-linecap="round" stroke-linejoin="round"/>
<path d="M8.07432 14.1465C7.582 14.6388 7.582 15.4376 8.07432 15.9299C8.56665 16.4222 9.36546 16.4222 9.85778 15.9299L15.9788 9.80895C16.4711 9.31663 16.4711 8.51782 15.9788 8.02549C15.4864 7.53317 14.6876 7.53317 14.1953 8.02549L8.07432 14.1465Z" stroke="black" stroke-width="1.5" stroke-linecap="round" stroke-linejoin="round"/>
<path d="M13.7773 15.6689L15.6687 13.7775C15.9275 13.5187 16.3702 13.7016 16.3702 14.0684V15.9589C16.3702 16.1866 16.1863 16.3704 15.9596 16.3704H14.0682C13.7023 16.3704 13.5185 15.9277 13.7773 15.6689Z" stroke="black" stroke-width="1.5" stroke-linecap="round" stroke-linejoin="round"/>
<path d="M8.32847 10.2219L10.2199 8.33042C10.4787 8.07161 10.2958 7.62891 9.92901 7.62891H8.03852C7.81085 7.62891 7.62695 7.8128 7.62695 8.0395V9.93096C7.62695 10.2968 8.06966 10.4807 8.32847 10.2219Z" stroke="black" stroke-width="1.5" stroke-linecap="round" stroke-linejoin="round"/>
</svg>