<svg width="25" height="24" viewBox="0 0 25 24" fill="none" xmlns="http://www.w3.org/2000/svg">
<path d="M8.61235 14.2609C8.09276 14.7795 8.09276 15.6208 8.61235 16.1404C9.13195 16.659 9.97329 16.659 10.4919 16.1404L16.9459 9.68745C17.4645 9.16786 17.4645 8.32651 16.9459 7.80692C16.4263 7.28832 15.5849 7.28832 15.0663 7.80692L8.61235 14.2609Z" stroke="black" stroke-width="1.5" stroke-linecap="round" stroke-linejoin="round"/>
<path d="M14.6263 15.8692L16.6197 13.8758C16.8925 13.603 17.3592 13.7959 17.3592 14.1826V16.176C17.3592 16.4148 17.1653 16.6087 16.9265 16.6087H14.932C14.5463 16.6087 14.3525 16.143 14.6263 15.8692Z" stroke="black" stroke-width="1.5" stroke-linecap="round" stroke-linejoin="round"/>
<path d="M8.882 10.1235L10.8755 8.13005C11.1482 7.85726 10.9554 7.39062 10.5687 7.39062H8.57524C8.33643 7.39062 8.14258 7.58447 8.14258 7.82329V9.81774C8.14258 10.2034 8.60822 10.3963 8.882 10.1235Z" stroke="black" stroke-width="1.5" stroke-linecap="round" stroke-linejoin="round"/>
<path d="M12.749 21H8.53216C5.58405 21 3.75 18.9188 3.75 15.9736V8.02638C3.75 5.08119 5.59281 3 8.53216 3H16.9669C19.915 3 21.75 5.08119 21.75 8.02638V15.9736C21.75 18.9188 19.915 21 16.9659 21H16.3991" stroke="black" stroke-width="1.5" stroke-linecap="round" stroke-linejoin="round"/>
</svg>