<svg width="25" height="24" viewBox="0 0 25 24" fill="none" xmlns="http://www.w3.org/2000/svg">
<path fill-rule="evenodd" clip-rule="evenodd" d="M11.8819 3.75C7.64733 3.75 4.21484 7.18249 4.21484 11.4171C4.21484 15.6518 7.64744 19.0851 11.8819 19.0851C13.89 19.0851 15.7177 18.313 17.0845 17.0495C17.0951 17.0392 17.1058 17.0292 17.1168 17.0196C18.6135 15.6201 19.549 13.6278 19.549 11.4171C19.549 7.18249 16.1165 3.75 11.8819 3.75ZM18.6687 17.5801C20.1477 15.952 21.049 13.7897 21.049 11.4171C21.049 6.35406 16.9449 2.25 11.8819 2.25C6.8189 2.25 2.71484 6.35406 2.71484 11.4171C2.71484 16.48 6.81879 20.5851 11.8819 20.5851C14.032 20.5851 16.0092 19.8448 17.5725 18.6052L20.5049 21.5309C20.7981 21.8235 21.273 21.823 21.5655 21.5297C21.8581 21.2365 21.8576 20.7616 21.5643 20.4691L18.6687 17.5801ZM8.90131 11.4174C8.90131 11.0032 9.23709 10.6674 9.65131 10.6674H14.0744C14.4886 10.6674 14.8244 11.0032 14.8244 11.4174C14.8244 11.8316 14.4886 12.1674 14.0744 12.1674H9.65131C9.23709 12.1674 8.90131 11.8316 8.90131 11.4174Z" fill="black"/>
</svg>