<svg width="24" height="25" viewBox="0 0 24 25" fill="none" xmlns="http://www.w3.org/2000/svg">
<path fill-rule="evenodd" clip-rule="evenodd" d="M14.8428 12.9687L16.3578 13.8977V11.1287L14.8428 12.0577V12.9687Z" fill="black"/>
<path fill-rule="evenodd" clip-rule="evenodd" d="M17.858 15.2378C17.858 15.5088 17.711 15.7588 17.474 15.8918C17.36 15.9558 17.234 15.9878 17.108 15.9878C16.972 15.9878 16.836 15.9508 16.716 15.8778L14.843 14.7288V14.9778C14.843 15.7718 14.197 16.4178 13.404 16.4178H8.938C7.397 16.4178 6.143 15.1668 6.143 13.6288V10.0388C6.143 9.24479 6.788 8.59779 7.581 8.59779H12.047C13.241 8.59779 14.255 9.35579 14.655 10.4128L16.716 9.14879C16.947 9.00879 17.237 9.00279 17.474 9.13379C17.711 9.26679 17.858 9.51679 17.858 9.78879V15.2378ZM16.217 3.00879H7.782C4.623 3.00879 2.5 5.23079 2.5 8.53879V16.4778C2.5 19.7858 4.623 22.0088 7.782 22.0088H16.216C19.377 22.0088 21.5 19.7858 21.5 16.4778V8.53879C21.5 5.23079 19.377 3.00879 16.217 3.00879Z" fill="black"/>
<path fill-rule="evenodd" clip-rule="evenodd" d="M13.3743 13.2104L13.3433 11.3984C13.3433 10.6814 12.7613 10.0984 12.0473 10.0984H7.64331V13.6284C7.64331 14.3394 8.22431 14.9174 8.93831 14.9174H13.4043L13.3813 13.6034C13.3423 13.4764 13.3413 13.3434 13.3743 13.2104Z" fill="black"/>
</svg>