<svg width="24" height="24" viewBox="0 0 24 24" fill="none" xmlns="http://www.w3.org/2000/svg">
<path fill-rule="evenodd" clip-rule="evenodd" d="M10.425 10.5868C10.279 10.7327 10.086 10.8068 9.895 10.8068C9.702 10.8068 9.511 10.7327 9.364 10.5868L6.873 8.09275L6.876 9.67475C6.877 10.0898 6.542 10.4257 6.128 10.4268H6.126C5.713 10.4268 5.377 10.0918 5.376 9.67875L5.369 6.27975V6.25475C5.372 6.16075 5.392 6.07075 5.426 5.98875C5.461 5.90475 5.512 5.82475 5.58 5.75575V5.75475L5.582 5.75275V5.75175C5.588 5.74675 5.593 5.74175 5.598 5.73675L5.601 5.73375C5.67 5.66775 5.748 5.61775 5.832 5.58275C5.868 5.56775 5.906 5.55575 5.946 5.54675L5.947 5.54575H5.949L5.951 5.54475H5.953L5.955 5.54375H5.957C6.011 5.53075 6.042 5.50775 6.121 5.52575L9.517 5.53575C9.931 5.53675 10.266 5.87375 10.265 6.28775C10.264 6.70175 9.928 7.03575 9.515 7.03575H9.513L7.934 7.03075L10.425 9.52575C10.718 9.81875 10.718 10.2948 10.425 10.5868ZM14.916 10.6237H18.797C18.8969 10.6237 18.9942 10.6301 19.0901 10.6398C19.2713 10.6582 19.432 10.5212 19.432 10.339V7.54375C19.432 4.58275 17.529 2.59375 14.698 2.59375H7.234C4.403 2.59375 2.5 4.58275 2.5 7.54375V14.5837C2.5 17.5448 4.403 19.5338 7.234 19.5338H10.4437C10.6321 19.5338 10.7733 19.362 10.7505 19.1749C10.7276 18.9859 10.715 18.7922 10.715 18.5938V14.9338C10.715 12.4368 12.482 10.6237 14.916 10.6237Z" fill="black"/>
<path fill-rule="evenodd" clip-rule="evenodd" d="M18.7971 12.124H14.9161C13.3251 12.124 12.2151 13.279 12.2151 14.934V18.594C12.2151 20.248 13.3251 21.403 14.9161 21.403H18.7971C20.3881 21.403 21.4991 20.248 21.4991 18.594V14.934C21.4991 13.279 20.3881 12.124 18.7971 12.124Z" fill="black"/>
</svg>