<svg width="24" height="24" viewBox="0 0 24 24" fill="none" xmlns="http://www.w3.org/2000/svg">
<path d="M6.47266 5.42188V7.40287H8.41266" stroke="black" stroke-width="1.5" stroke-linecap="round" stroke-linejoin="round"/>
<path d="M4.99273 10.8091V8.82812H3.05273" stroke="black" stroke-width="1.5" stroke-linecap="round" stroke-linejoin="round"/>
<path d="M6.47266 7.40287L8.41266 5.42188" stroke="black" stroke-width="1.5" stroke-linecap="round" stroke-linejoin="round"/>
<path d="M4.99273 8.82812L3.05273 10.8091" stroke="black" stroke-width="1.5" stroke-linecap="round" stroke-linejoin="round"/>
<path d="M19.0123 18.9012C20.6023 17.3162 21.4923 14.0862 20.5823 11.6452C19.6923 9.21922 16.4723 9.33422 14.2523 9.12122L14.1823 5.01322C14.1723 4.14522 13.4623 3.44922 12.5923 3.44922C11.7223 3.44922 11.0123 4.16022 11.0123 5.03722V14.4032C11.0123 14.8712 10.5023 15.1642 10.0923 14.9302L8.93229 14.2572C7.85229 13.6312 6.47229 14.2382 6.19229 15.4602C6.04229 16.1362 6.28229 16.8382 6.83229 17.2582C7.79229 17.9912 9.40229 19.1392 10.9423 19.8722C12.2923 20.5202 14.1223 20.7062 15.7723 20.4182" stroke="black" stroke-width="1.5" stroke-linecap="round" stroke-linejoin="round"/>
</svg>