<svg width="24" height="24" viewBox="0 0 24 24" fill="none" xmlns="http://www.w3.org/2000/svg">
<path opacity="0.4" fill-rule="evenodd" clip-rule="evenodd" d="M14.916 10.6237H18.797C18.8969 10.6237 18.9942 10.6301 19.0901 10.6398C19.2713 10.6582 19.432 10.5212 19.432 10.339V7.54375C19.432 4.58275 17.529 2.59375 14.698 2.59375H7.234C4.403 2.59375 2.5 4.58275 2.5 7.54375V14.5837C2.5 17.5448 4.403 19.5338 7.234 19.5338H10.4437C10.6321 19.5338 10.7733 19.362 10.7505 19.1749C10.7276 18.9859 10.715 18.7922 10.715 18.5938V14.9338C10.715 12.4368 12.482 10.6237 14.916 10.6237Z" fill="black"/>
<path d="M9.89514 10.8111C10.0861 10.8111 10.2791 10.7371 10.4251 10.5911C10.7181 10.2991 10.7181 9.82306 10.4251 9.53006L7.93414 7.03506L9.51314 7.04006H9.51514C9.92814 7.04006 10.2641 6.70606 10.2651 6.29206C10.2661 5.87806 9.93114 5.54106 9.51714 5.54006L6.12114 5.53006C6.04214 5.51206 6.01114 5.53506 5.95714 5.54806H5.95514L5.95314 5.54906H5.95114L5.94914 5.55006H5.94714L5.94614 5.55106C5.90614 5.56006 5.86814 5.57206 5.83214 5.58706C5.74814 5.62206 5.67014 5.67206 5.60114 5.73806L5.59813 5.74107C5.59314 5.74606 5.58814 5.75106 5.58214 5.75606V5.75706L5.58014 5.75906V5.76006C5.51214 5.82906 5.46114 5.90906 5.42614 5.99306C5.39214 6.07506 5.37214 6.16506 5.36914 6.25906V6.28406L5.37614 9.68306C5.37714 10.0961 5.71314 10.4311 6.12614 10.4311H6.12814C6.54214 10.4301 6.87714 10.0941 6.87614 9.67906L6.87314 8.09706L9.36414 10.5911C9.51114 10.7371 9.70214 10.8111 9.89514 10.8111Z" fill="black"/>
<path fill-rule="evenodd" clip-rule="evenodd" d="M18.7972 12.1284H14.9162C13.3252 12.1284 12.2152 13.2834 12.2152 14.9384V18.5984C12.2152 20.2524 13.3252 21.4074 14.9162 21.4074H18.7972C20.3882 21.4074 21.4992 20.2524 21.4992 18.5984V14.9384C21.4992 13.2834 20.3882 12.1284 18.7972 12.1284Z" fill="black"/>
</svg>