<svg width="24" height="24" viewBox="0 0 24 24" fill="none" xmlns="http://www.w3.org/2000/svg">
<path fill-rule="evenodd" clip-rule="evenodd" d="M16.2169 3H7.78216C4.84281 3 3 5.08119 3 8.02638V15.9736C3 18.9188 4.83405 21 7.78216 21H16.2159C19.165 21 21 18.9188 21 15.9736V8.02638C21 5.08119 19.165 3 16.2169 3Z" stroke="black" stroke-width="1.5" stroke-linecap="round" stroke-linejoin="round"/>
<path d="M14.0918 11.126L17.108 9.27734V14.726L14.0918 12.8773" stroke="black" stroke-width="1.5" stroke-linecap="round" stroke-linejoin="round"/>
<path fill-rule="evenodd" clip-rule="evenodd" d="M6.89258 9.52871V13.118C6.89258 14.2476 7.80815 15.1642 8.93777 15.1642H13.4037C13.7841 15.1642 14.0926 14.8548 14.0926 14.4743V10.885C14.0926 9.75541 13.177 8.83984 12.0474 8.83984H7.58144C7.20101 8.83984 6.89258 9.14828 6.89258 9.52871Z" stroke="black" stroke-width="1.5" stroke-linecap="round" stroke-linejoin="round"/>
</svg>