<svg width="24" height="24" viewBox="0 0 24 24" fill="none" xmlns="http://www.w3.org/2000/svg">
<path fill-rule="evenodd" clip-rule="evenodd" d="M12 21C16.9709 21 21 16.9709 21 12C21 7.02908 16.9709 3 12 3C7.02908 3 3 7.02908 3 12C3 16.9709 7.02908 21 12 21Z" stroke="black" stroke-width="1.5"/>
<path d="M14.4004 11.3117L17.3368 9.51172V14.8173L14.4004 13.0173" stroke="black" stroke-width="1.5" stroke-linecap="round" stroke-linejoin="round"/>
<path fill-rule="evenodd" clip-rule="evenodd" d="M7.39062 9.75729V13.2522C7.39062 14.3526 8.28187 15.2439 9.3823 15.2439H13.7295C14.1002 15.2439 14.4009 14.9432 14.4009 14.5725V11.0776C14.4009 9.97815 13.5097 9.08594 12.4092 9.08594H8.06198C7.69127 9.08594 7.39062 9.38659 7.39062 9.75729Z" stroke="black" stroke-width="1.5" stroke-linecap="round" stroke-linejoin="round"/>
</svg>